<?xml version="1.0" encoding="UTF-8" standalone="no"?>
<svg
   width="2000"
   height="2000"
   version="1.1"
   id="svg1"
   sodipodi:docname="BULUG3.liga.svg"
   inkscape:version="1.3.2 (091e20e, 2023-11-25)"
   xmlns:inkscape="http://www.inkscape.org/namespaces/inkscape"
   xmlns:sodipodi="http://sodipodi.sourceforge.net/DTD/sodipodi-0.dtd"
   xmlns="http://www.w3.org/2000/svg"
   xmlns:svg="http://www.w3.org/2000/svg">
  <defs
     id="defs1" />
  <sodipodi:namedview
     id="namedview1"
     pagecolor="#505050"
     bordercolor="#eeeeee"
     borderopacity="1"
     inkscape:showpageshadow="0"
     inkscape:pageopacity="0"
     inkscape:pagecheckerboard="0"
     inkscape:deskcolor="#505050"
     inkscape:zoom="0.379"
     inkscape:cx="1000"
     inkscape:cy="998.68074"
     inkscape:window-width="1392"
     inkscape:window-height="1212"
     inkscape:window-x="0"
     inkscape:window-y="0"
     inkscape:window-maximized="0"
     inkscape:current-layer="svg1" />
  <path
     d="m 1153.5,659 q 9,-9 17.5,-15 8.5,-6 12.5,-6 1,0 2,1 2,1 2,6 0,3 -2,13 -2,10 -8,26 -6,18 -7.5,31.5 -1.5,13.5 -1.5,20.5 0,11 2,19 3,13 15.5,36.5 12.5,23.5 32,51 19.5,27.5 42,56 22.5,28.5 44.5,52 22,23.5 38.5,38.5 16.5,15 25.5,15 8,0 8,9 0,4 -1,10 -4,17 -15,17 -9,0 -33,16.5 -24,16.5 -54,39.5 -30,23 -59,48 -29,25 -43,38 -16,17 -32,40 -16,23 -30,46.5 -14,23.5 -24,43 -10,19.5 -10,35.5 0,15 -6,15 -12,0 -46,-55 -12,-20 -31,-46 -19,-26 -35,-43 -9,-7 -16.5,-16.5 -7.5,-9.5 -7.5,-12.5 0,-1 0,-1 1,-2 4,-2 3,0 10.5,2 7.5,2 21.5,5 30,8 58,8 47,0 90,-22 18,-10 55,-35 37,-25 73.5,-51 36.5,-26 63.5,-48 27,-22 27,-26 0,-5 -22.5,-31 -22.5,-26 -52.5,-57.5 -30,-31.5 -59,-60 -29,-28.5 -52,-43.5 -21,-12 -60.5,-30 -39.5,-18 -63.5,-26 -22,-7 -22,-13 0,-3 6.5,-8.5 6.5,-5.5 43.5,-24.5 32,-17 59,-34 27,-17 40,-32 z m -348,21 q 0,-9 6,-9 6,0 9,12 3,12 3,28 0,18 4.5,37.5 4.5,19.5 12.5,31.5 31,53 211,164 39,25 64.5,44 25.5,19 25.5,28 0,2 -1,3 -2,2 -3,2 -2,0 -3,-1 -2,-2 -7,-2 -11,0 -43.5,14 -32.5,14 -75.5,36 -101,51 -157,96 -56,45 -92,102 l -29,44 -33,-69 q -13,-30 -30.5,-59.5 -17.5,-29.5 -32.5,-47.5 -11,-14 -11,-18 0,-2 1,-2 1,0 1,0 9,0 51,16 32,10 43,13 11,3 21.5,3 10.5,0 22.5,-1.5 12,-1.5 24,-4.5 15,-3 34.5,-9.5 19.5,-6.5 44.5,-17 25,-10.5 52.5,-23.5 27.5,-13 54.5,-26 l 131,-66 -89,-54 q -37,-24 -71,-43.5 -34,-19.5 -50,-25.5 -14,-6 -41,-13.5 -27,-7.5 -54,-14.5 -27,-7 -50,-10.5 -23,-3.5 -40,-3.5 -10,0 -20,-1.5 -10,-1.5 -10,-4.5 0,-3 19,-22.5 19,-19.5 37,-37.5 33,-33 51.5,-55 18.5,-22 18.5,-32 z m 344,42 q 1,-6 2,-12 1,-6 1,-17 0,0 0,0 0,0 0,0 0,0 0,0 0,0 0,0 0,0 0,0 0,-1 0,-1 v -2 q 0,0 0,0 v -1 q -8,4 -17,9 -7,4 -16,10 -9,6 -21,14 l -57,33 63,30 q 25,12 45.5,21 20.5,9 21.5,9 1,0 1,-2 0,-2 -2.5,-8.5 -2.5,-6.5 -7.5,-13.5 -9,-17 -11.5,-30.5 -2.5,-13.5 -2.5,-24.5 0,-7 1,-14 z m -297,102 q -21,-21 -31,-38.5 -10,-17.5 -13,-29.5 l -7,-27 -86,83 57,10 q 23,5 45.5,9.5 22.5,4.5 31.5,7.5 8,1 11,1 3,0 3,-1 0,0 -0.5,-1.5 -0.5,-1.5 -10.5,-13.5 z m -83,339 q -15,2 -28,2 -6,0 -18,-1 -12,-1 -24,-6 l -27,-9 25,48 q 11,20 19,37 8,17 11,23 2,6 5,6 6,0 15,-16 7,-9 23,-27 16,-18 29,-35 18,-21 22,-26 4,-5 4,-7 0,-1 -2,-1 -1,0 -4,1 -8,3 -23.5,6 -15.5,3 -26.5,5 z m 330,84 q 17,-29 23,-40.5 6,-11.5 6,-13.5 0,0 0,0 -2,1 -8.5,4 -6.5,3 -12.5,6 -14,9 -34,13 -20,4 -40,4 h -46 l 33,49 q 13,21 20.5,30 7.5,9 13.5,9 2,0 6.5,-2 4.5,-2 15,-19.5 10.5,-17.5 23.5,-39.5 z"
     id="path1" />
</svg>
