<?xml version="1.0" encoding="UTF-8" standalone="no"?>
<svg
   width="2000"
   height="2000"
   version="1.1"
   id="svg1"
   sodipodi:docname="GUDU4.liga.svg"
   inkscape:version="1.3.2 (091e20e, 2023-11-25)"
   xmlns:inkscape="http://www.inkscape.org/namespaces/inkscape"
   xmlns:sodipodi="http://sodipodi.sourceforge.net/DTD/sodipodi-0.dtd"
   xmlns="http://www.w3.org/2000/svg"
   xmlns:svg="http://www.w3.org/2000/svg">
  <defs
     id="defs1" />
  <sodipodi:namedview
     id="namedview1"
     pagecolor="#505050"
     bordercolor="#eeeeee"
     borderopacity="1"
     inkscape:showpageshadow="0"
     inkscape:pageopacity="0"
     inkscape:pagecheckerboard="0"
     inkscape:deskcolor="#505050"
     inkscape:zoom="0.379"
     inkscape:cx="1000"
     inkscape:cy="998.68074"
     inkscape:window-width="1392"
     inkscape:window-height="1212"
     inkscape:window-x="0"
     inkscape:window-y="0"
     inkscape:window-maximized="0"
     inkscape:current-layer="svg1" />
  <path
     d="m 881,653.5 q 12,-15 19,-15 1,0 3.5,1 2.5,1 2.5,10 0,7 -3,19 -1,8 -1,14 0,6 2,11 2,5 15,8 13,3 13,8 0,3 -3,6 -4,4 -4,10 0,5 4,14 4,9 24,33 16,20 39.5,44.5 23.5,24.5 45.5,45.5 22,21 38,33.5 16,12.5 20,12.5 1,0 1,0 1,-1 1,-5 0,-6 -3,-23 -3,-17 -9.5,-43 -6.5,-26 -14,-51.5 -7.5,-25.5 -13.5,-37.5 -5,-11 -15,-22.5 -10,-11.5 -24,-20.5 -11,-8 -11,-10 0,-1 0,-1 2,0 21,-1 19,-1 34,-2 35,-2 63,-6 28,-4 46,-10 13,-4 23.5,-5.5 10.5,-1.5 14.5,-1.5 1,0 2,0 1,0 1,2 0,3 -5.5,15.5 -5.5,12.5 -11.5,25.5 -11,23 -22,57.5 -11,34.5 -20,70.5 -9,36 -13.5,61.5 -4.5,25.5 -4.5,34.5 0,4 1,6 2,6 19.5,16 17.5,10 37.5,18 19,8 33.5,11.5 14.5,3.5 34,5.5 19.5,2 47.5,2 h 5 q 1,0 2,0 h 2 q 1,0 2,0 h 2 q 1,0 2,0 h 2 q 1,0 3,0 h 5 q 1,0 2,0 h 46 q 32,-1 57,-1 24,0 49.5,1.5 25.5,1.5 25.5,7.5 0,4 -18,6 -18,2 -49,2 -38,0 -79.5,3 -41.5,3 -79,8 -37.5,5 -67.5,11 -30,6 -46,13 l -39,18 -3,142 v 143 l -6,-95 q -2,-20 -3.5,-40 -1.5,-20 -2.5,-38 -1,-18 -2,-32.5 -1,-14.5 -1,-25.5 0,-14 -1.5,-22 -1.5,-8 -8.5,-8 -1,0 -6,0.5 -5,0.5 -24.5,10 -19.5,9.5 -36.5,18.5 -50,26 -84.5,51.5 -34.5,25.5 -65,54 -30.5,28.5 -54.5,56.5 -24,28 -38,57 -10,22 -14.5,24 -4.5,2 -4.5,2 -6,0 -6,-19 0,-15 -3.5,-36 -3.5,-21 -9.5,-43.5 -6,-22.5 -13,-43.5 -7,-21 -13,-32 -10,-19 -35.5,-40.5 -25.5,-21.5 -56.5,-40 -31,-18.5 -63,-30.5 -32,-12 -55,-12 h -39 l 36,-37 q 15,-15 23,-28.5 8,-13.5 10,-24.5 2,-11 2,-19 0,-7 -2,-19.5 -2,-12.5 -9,-34.5 -6,-15 -7.5,-21.5 -1.5,-6.5 -1.5,-9.5 0,-4 2,-7.5 2,-3.5 10,-4.5 8,-1 17,-1 20,0 47.5,-7 27.5,-7 56.5,-17 29,-10 54.5,-22 25.5,-12 43.5,-28 9,-8 9,-11 0,-1 -1,-1 -1,0 -3,1 -9,3 -13,3 -3,0 -3,-2 0,-3 7,-13 7,-10 46,-39 22,-18 42,-37 20,-19 29,-31 z m 10,43 q 0,-10 -6,-10 -1,0 -6.5,2 -5.5,2 -31.5,23 -31,26 -33.5,32 -2.5,6 -2.5,8 0,7 14,7 11,0 29.5,5 18.5,5 49.5,16 9,4 23.5,9.5 14.5,5.5 16.5,5.5 -3,-5 -8,-13 -3,-4 -7.5,-11.5 -4.5,-7.5 -9.5,-15.5 -12,-16 -20,-31.5 -8,-15.5 -8,-26.5 z m 285,14 q 2,-7 2,-11 0,-4 -3,-4 -4,2 -20,4 -16,2 -32,4 -24,3 -39.5,7 -15.5,4 -16.5,6 -1,1 -1,4 0,2 1.5,8.5 1.5,6.5 6.5,15.5 6,13 12.5,36 6.5,23 10.5,40 6,25 11,40.5 5,15.5 9,24 4,8.5 7,8.5 3,0 3,-7 0,-9 6,-32.5 6,-23.5 14,-51.5 8,-28 16,-54.5 8,-26.5 13,-37.5 z m -244,107 q -35,-18 -57,-26.5 -22,-8.5 -31.5,-9 -9.5,-0.5 -10.5,-0.5 -16,0 -32.5,7.5 -16.5,7.5 -44.5,26.5 -20,13 -37,26 -17,13 -17,18 0,3 5,9.5 5,6.5 11.5,12 6.5,5.5 14.5,9 8,3.5 16,3.5 5,0 22,1.5 17,1.5 35,3.5 19,4 28,4 4,0 8,-1.5 4,-1.5 4,-11.5 0,-7 -4,-16.5 -4,-9.5 -11,-16.5 -5,-7 -8,-12 -3,-5 -3,-7 0,-1 1,-2 2,-2 20,-4.5 18,-2.5 39,-4 21,-1.5 31.5,-2 10.5,-0.5 13.5,-0.5 11,0 11,2 0,2 -5,11 -5,9 -12,21 -8,13 -13.5,24 -5.5,11 -5.5,13 0,3 20.5,5 20.5,2 48.5,2 28,0 47,2 19,2 19,7 0,5 -19.5,7 -19.5,2 -57.5,2 -20,0 -34.5,0.5 -14.5,0.5 -22,3 -7.5,2.5 -10,6.5 -2.5,4 -4.5,13 -2,10 -2,17 0,2 0.5,7.5 0.5,5.5 8.5,10 8,4.5 19.5,5 11.5,0.5 18.5,0.5 15,0 34,-1 22,-2 38,-2 4,0 15,0.5 11,0.5 17,2 6,1.5 6,3.5 0,1 -3,3 -3,2 -18,5 -16,3 -39.5,5 -23.5,2 -50.5,2 -15,0 -26,0.5 -11,0.5 -16,3 -5,2.5 -6,8 -1,5.5 -1,15.5 v 27 h 81 q 79,0 79.5,4.5 0.5,4.5 0.5,4.5 0,9 -80,11 -25,1 -41,2 -16,1 -24,3.5 -8,2.5 -10.5,6 -2.5,3.5 -3.5,12.5 -2,18 -11,18 -9,0 -9,-20 0,-16 -4.5,-17.5 -4.5,-1.5 -8.5,-1.5 -10,0 -29,3 -18,1 -42.5,5.5 -24.5,4.5 -46.5,9.5 -24,7 -35,7 -3,0 -6.5,-1 -3.5,-1 -3.5,-6 0,-4 5,-11 6,-10 7.5,-18 1.5,-8 1.5,-14 0,-2 -0.5,-7 -0.5,-5 -2.5,-11.5 -2,-6.5 -6,-7.5 -5,-2 -5,-10 0,-7 4,-19 6,-14 6,-26 0,-5 -2,-15 -2,-10 -12,-10 -5,0 -5,-4 0,-4 4,-11 6,-11 7.5,-22.5 1.5,-11.5 1.5,-18.5 0,-4 0,-8 l -3,-27 -47,40 q -17,15 -26,24 -9,9 -12.5,16 -3.5,7 -3.5,14 0,1 0.5,5.5 0.5,4.5 1.5,11.5 3,23 14.5,46.5 11.5,23.5 23.5,41.5 10,17 20,28.5 10,11.5 24.5,25 14.5,13.5 36.5,30.5 22,17 35,26 29,22 35,22.5 6,0.5 7,0.5 11,0 32,-7 92,-23 213,-87 l 75,-40 -6,-51 q -2,-18 -4.5,-29.5 -2.5,-11.5 -8.5,-22 -6,-10.5 -17,-22.5 -1,0 -1,0 l -4,-4 q 0,0 0,0 l -4,-4 q 0,0 -1,-1 l -3,-3 q 0,0 -1,-1 l -7,-7 q 0,0 0,0 -34,-33 -68,-56.5 -34,-23.5 -61,-35.5 z m -41,55 q 5,-13 5,-18 0,-1 -1,-3.5 -1,-2.5 -17,-2.5 -16,0 -18,2.5 -2,2.5 -2,5.5 0,5 3,16 7,22 11,23 4,1 4,1 7,0 15,-24 z m -279,27 q 25,-23 25,-28 0,-1 -1,-2 -1,-1 -10,-1 -8,0 -24,2 -32,4 -35,8 -3,4 -3,12 0,5 1,14 2,9 4,17 2,8 4,8 2,0 14,-9.5 12,-9.5 25,-20.5 z m 126,12 q -12,-9 -19.5,-9 -7.5,0 -7.5,7 0,6 6,8.5 6,2.5 18,2.5 10,0 10.5,-1 0.5,-1 0.5,-1 0,-1 -8,-7 z m 122,24 q -3,-6 -6.5,-9 -3.5,-3 -8.5,-3.5 -5,-0.5 -7,-0.5 -8,0 -20.5,1.5 -12.5,1.5 -35.5,5.5 -69,12 -69,24 0,1 2.5,7.5 2.5,6.5 81.5,12.5 27,1 42,1 15,0 21,-3.5 6,-3.5 6,-10.5 0,-1 -0.5,-6 -0.5,-5 -5.5,-19 z m 351,78 q 4,-3 4,-5 0,-2 -4.5,-5 -4.5,-3 -29.5,-12 l -45,-14 v 62 l 25,-14 q 11,-7 18,-8.5 7,-1.5 9,-1.5 3,0 3,1 2,2 6,2 1,0 4.5,-0.5 3.5,-0.5 9.5,-4.5 z m -468,-21 q 1,-2 1,-3 0,-3 -3,-4.5 -3,-1.5 -11,-1.5 -19,0 -19,10 0,8 12,8 7,0 12.5,-2.5 5.5,-2.5 7.5,-6.5 z m -142,33 q -1,-2 -2,-4 -1,-2 -2,-4 l -1,-1 q -1,-2 -2,-4 -1,-2 -2,-4 l -1,-1 q -1,-1 -2,-3 v -1 q -6,-11 -7,-11 -2,0 -8.5,6.5 -6.5,6.5 -14,15 -7.5,8.5 -13.5,16.5 -6,8 -6,11 0,5 10,5 9,0 21,4 12,4 24,10 16,9 21,9 2,0 2.5,-1 0.5,-1 0.5,-2 0,-6 -18,-41 z m 263,5 q 0,-20 -4,-24 -4,-4 -16,-4 -6,0 -13,1 -14,0 -26,0.5 -12,0.5 -17,2.5 -4,1 -17,4 -13,3 -27,5 -23,5 -25.5,6.5 -2.5,1.5 -2.5,3.5 0,2 4,6 9,9 30,14 21,5 50,7 l 64,6 z m -108,37 q 0,-1 -6.5,-2 -6.5,-1 -14.5,-1 -21,0 -21,7 0,0 0,1 2,3 7.5,3.5 5.5,0.5 8.5,0.5 4,0 9.5,-0.5 5.5,-0.5 11,-3 5.5,-2.5 5.5,-5.5 z m 95,170 q 21,-23 33.5,-38 12.5,-15 12.5,-16 0,0 -1,0 0,0 0,0 -4,0 -17.5,3.5 -13.5,3.5 -26.5,7.5 -16,6 -34,10 -18,4 -30,4 -20,0 -20,10 0,2 1,5 1,4 4.5,17 3.5,13 6.5,27 2,14 5.5,22 3.5,8 5.5,8 1,0 1,0 2,-2 19,-19.5 17,-17.5 40,-40.5 z"
     id="path1" />
</svg>
