<?xml version="1.0" encoding="UTF-8" standalone="no"?>
<svg
   width="2000"
   height="2000"
   version="1.1"
   id="svg1"
   sodipodi:docname="HUL.liga.svg"
   inkscape:version="1.3.2 (091e20e, 2023-11-25)"
   xmlns:inkscape="http://www.inkscape.org/namespaces/inkscape"
   xmlns:sodipodi="http://sodipodi.sourceforge.net/DTD/sodipodi-0.dtd"
   xmlns="http://www.w3.org/2000/svg"
   xmlns:svg="http://www.w3.org/2000/svg">
  <defs
     id="defs1" />
  <sodipodi:namedview
     id="namedview1"
     pagecolor="#505050"
     bordercolor="#eeeeee"
     borderopacity="1"
     inkscape:showpageshadow="0"
     inkscape:pageopacity="0"
     inkscape:pagecheckerboard="0"
     inkscape:deskcolor="#505050"
     inkscape:zoom="0.379"
     inkscape:cx="1000"
     inkscape:cy="998.68074"
     inkscape:window-width="1392"
     inkscape:window-height="1212"
     inkscape:window-x="0"
     inkscape:window-y="0"
     inkscape:window-maximized="0"
     inkscape:current-layer="svg1" />
  <path
     d="m 1614.5,644.5 q 6,-5 15,-5 3,0 10.5,1 7.5,1 7.5,9 0,3 -2.5,6 -2.5,3 -6.5,3 -7,0 -18,15.5 -11,15.5 -24,40.5 -13,25 -26.5,56.5 -13.5,31.5 -25,63.5 -11.5,32 -19.5,62 -8,30 -11,51 l -6,53 h 30 q 12,0 21.5,2 9.5,2 9.5,7 0,5 -8.5,7.5 -8.5,2.5 -21.5,2.5 h -28 v 195 h 27 q 32,0 33.5,5 1.5,5 1.5,6 0,8 -27,10 -11,1 -17.5,2.5 -6.5,1.5 -10,6.5 -3.5,5 -4.5,14.5 -1,9.5 -2,22.5 -3,50 -12,50 0,0 -4.5,-0.5 -4.5,-0.5 -4.5,-48.5 v -48 h -205 q -80,0 -136,2 -56,2 -102,7 -46,5 -89.5,15 -43.5,10 -98.5,27 -29,8 -50.5,15.5 -21.5,7.5 -21.5,11.5 0,2 7.5,9.5 7.5,7.5 17.5,12.5 11,7 16,13.5 5,6.5 5,9.5 0,1 -1,2 0,1 -2,1 -3,0 -11,-4 -8,-4 -24.5,-14 -16.5,-10 -37.5,-24.5 -21,-14.5 -44,-30.5 -113,-80 -190.5,-120.5 -77.5,-40.5 -127.5,-40.5 -26,0 -35,-6 -9,-6 -9,-10 0,-5 14,-10 23,-7 40,-14.5 17,-7.5 33.5,-18.5 16.5,-11 35,-27.5 18.5,-16.5 45.5,-43.5 30,-31 49,-47 19,-16 23,-16 1,0 1,1 0,3 -5,12.5 -5,9.5 -11,16.5 -17,18 -17,52 0,3 1,23.5 1,20.5 23,63.5 6,14 20.5,33.5 14.5,19.5 32.5,41 18,21.5 38,42.5 20,21 37,37 17,16 29,24 12,8 16,8 1,0 2,0 4,-2 6.5,-27 2.5,-25 2.5,-60 0,-31 2,-51.5 2,-20.5 6,-20.5 1,0 1,0 2,1 19.5,10 17.5,9 28.5,15 31,15 46,20.5 15,5.5 21,5.5 3,0 4,-1 5,-3 7,-28.5 2,-25.5 2,-59.5 v -82 h -72 q -28,0 -48,2 -20,2 -36.5,8 -16.5,6 -31.5,16 -15,10 -26,20 -29,27 -29,61 0,12 -3,20.5 -3,8.5 -6,8.5 -2,0 -4,-10 -2,-10 -3.5,-27.5 -1.5,-17.5 -3,-41 -1.5,-23.5 -1.5,-50.5 -1,-50 -2.5,-78.5 -1.5,-28.5 -7.5,-52.5 -6,-24 -19,-50.5 -13,-26.5 -18,-35.5 -10,-20 -10,-30 0,-11 15.5,-12.5 15.5,-1.5 48.5,-1.5 42,0 57,3 15,3 15,13 0,5 -2.5,9.5 -2.5,4.5 -5.5,4.5 -5,0 -13.5,12 -8.5,12 -16.5,29.5 -8,17.5 -14,35.5 -6,18 -6,31 0,29 31,63 8,9 15.5,15.5 7.5,6.5 18.5,9.5 11,3 30,3.5 19,0.5 53,0.5 h 90 l -1,-60 q -1,-22 -6.5,-46.5 -5.5,-24.5 -13.5,-45.5 -8,-21 -17,-34.5 -9,-13.5 -16,-13.5 -3,0 -6,-4 -3,-4 -3,-8 0,-8 18,-10.5 18,-2.5 60,-2.5 19,-1 34,-1 12,0 28,1 16,1 16,4 0,2 -5,12 -5,10 -10,19 -10,16 -18.5,36 -8.5,20 -16.5,41 -8,21 -13.5,39 -5.5,18 -5.5,24 0,8 13.5,16.5 13.5,8.5 33.5,16.5 20,8 42,15 22,7 39,9 l 34,2 -3,-65 q 0,-36 -5,-59.5 -5,-23.5 -18,-47.5 -8,-15 -17,-26 -9,-11 -15,-11 -6,0 -6,-8 0,-12 18,-14.5 18,-2.5 60,-2.5 18,-1 34,-1 11,0 27.5,1 16.5,1 16.5,4 0,2 -5,12 -5,10 -11,20 -11,20 -20.5,41.5 -9.5,21.5 -16.5,44 -7,22.5 -11,43.5 -4,21 -4,37 v 38 h 383 l -5,-96 q -1,-41 -5,-70 -4,-29 -13,-52.5 -9,-23.5 -23.5,-44 -14.5,-20.5 -36.5,-42.5 -14,-16 -25,-27.5 -11,-11.5 -11,-12.5 0,-2 34.5,-3.5 34.5,-1.5 103.5,-1.5 0,0 0,0 h 1 q 1,0 1,0 0,0 1,0 0,0 1,0 0,0 1,0 1,0 1,0 h 19 q 22,0 38.5,-1 16.5,-1 27,-2 10.5,-1 11.5,-3 z m -16,33 q 0,-3 -24.5,-5 -24.5,-2 -60.5,-2 -31,0 -49.5,1.5 -18.5,1.5 -24,5 -5.5,3.5 -5.5,8.5 0,2 2.5,8 2.5,6 11.5,16 13,13 24,33.5 11,20.5 19,43.5 6,16 12.5,30.5 6.5,14.5 9.5,16.5 0,0 1,0 3,0 11,-13 8,-13 19,-36 8,-22 19,-45 11,-23 20,-35 5,-7 10,-16.5 5,-9.5 5,-10.5 z m -917,101 q 0,-2 -10,-2.5 -10,-0.5 -19,-0.5 -34,0 -35.5,5 -1.5,5 -1.5,7 0,10 14,37 l 15,32 19,-38 q 7,-16 12.5,-27.5 5.5,-11.5 5.5,-12.5 z m 273,10 q 0,-1 0,-2 0,-5 -5,-6.5 -5,-1.5 -10,-1.5 -10,0 -31,4 l -30,3 19,39 q 8,16 15.5,27.5 7.5,11.5 8.5,11.5 1,0 6,-10 5,-10 11,-23 6,-13 11,-25.5 5,-12.5 5,-16.5 z m 185,1 q 0,-1 0,-3 0,-5 -5,-6.5 -5,-1.5 -9,-1.5 -11,0 -31,4 l -32,3 20,39 q 9,16 15.5,27.5 6.5,11.5 8.5,11.5 2,0 7,-10 5,-10 10.5,-23 5.5,-13 10,-25.5 4.5,-12.5 5.5,-15.5 z m -413,215 q 0,-1 -8,-6 -8,-5 -19,-12 l -28,-16 v 69 l 30,-17 q 11,-7 18,-11 7,-4 7,-6 z m 285,-1 q -18,-6 -35.5,-11 -17.5,-5 -23.5,-8 -4,-2 -7,-2 -4,0 -7,4.5 -3,4.5 -3,29.5 0,25 2.5,28 2.5,3 7.5,3 7,0 21,-3 7,-1 23.5,-5 16.5,-4 30.5,-6 30,-6 30,-13 0,0 -1.5,-4 -1.5,-4 -37.5,-13 z m -463,63 q -6,-20 -12.5,-33.5 -6.5,-13.5 -8.5,-13.5 -2,0 -18,13 -16,13 -40,35 -12,11 -21,19.5 -9,8.5 -11,12 -2,3.5 -2,5.5 0,2 3,4 3,2 10,4 11,2 36.5,13.5 25.5,11.5 55.5,27.5 24,13 45,22 21,9 23,9 1,0 1,-1 0,-2 -5,-11 -5,-9 -12,-19 -13,-19 -25,-43.5 -12,-24.5 -19,-43.5 z m 943,-47 -159,2 q -83,0 -127.5,1 -44.5,1 -65.5,5.5 -21,4.5 -25.5,13 -4.5,8.5 -7.5,23.5 -1,9 -2,20 -1,11 -2,23.5 -1,12.5 -1.5,25.5 -0.5,13 -0.5,24 v 57 h 391 z m -402,108 q 1,-30 1.5,-41 0.5,-11 0.5,-15 0,-11 -1.5,-19 -1.5,-8 -5.5,-10.5 -4,-2.5 -11,-2.5 -12,0 -36,6 -24,6 -48,14 -24,8 -43,16 -19,8 -22,14 -3,5 -6,22.5 -3,17.5 -3,37.5 0,17 2,28.5 2,11.5 12,17.5 10,6 32,9 22,3 61,6 l 64,6 z m -252,57 q -14,-6 -28.5,-12.5 -14.5,-6.5 -16.5,-6.5 -1,0 -2.5,17.5 -1.5,17.5 -1.5,40.5 0,25 2,42 2,17 6,17 3,0 23,-6 20,-6 33,-10 27,-8 41,-11.5 14,-3.5 26.5,-7 12.5,-3.5 23,-6.5 10.5,-3 21.5,-5 13,-3 13,-5 0,0 -1.5,-1.5 -1.5,-1.5 -25.5,-7.5 -30,-7 -58.5,-17 -28.5,-10 -54.5,-21 z"
     id="path1" />
</svg>
