<?xml version="1.0" encoding="UTF-8" standalone="no"?>
<svg
   width="2000"
   height="2000"
   version="1.1"
   id="svg1"
   sodipodi:docname="ILLAT.liga.svg"
   inkscape:version="1.3.2 (091e20e, 2023-11-25)"
   xmlns:inkscape="http://www.inkscape.org/namespaces/inkscape"
   xmlns:sodipodi="http://sodipodi.sourceforge.net/DTD/sodipodi-0.dtd"
   xmlns="http://www.w3.org/2000/svg"
   xmlns:svg="http://www.w3.org/2000/svg">
  <defs
     id="defs1" />
  <sodipodi:namedview
     id="namedview1"
     pagecolor="#505050"
     bordercolor="#eeeeee"
     borderopacity="1"
     inkscape:showpageshadow="0"
     inkscape:pageopacity="0"
     inkscape:pagecheckerboard="0"
     inkscape:deskcolor="#505050"
     inkscape:zoom="0.379"
     inkscape:cx="1000"
     inkscape:cy="998.68074"
     inkscape:window-width="1392"
     inkscape:window-height="1212"
     inkscape:window-x="0"
     inkscape:window-y="0"
     inkscape:window-maximized="0"
     inkscape:current-layer="svg1" />
  <path
     d="m 724,687 5,-5 q 0,0 1,-1 l 19,-19 q 21,-21 24,-23 3,0 4.5,3.5 1.5,3.5 1.5,8 0,4.5 -2,9 -2,4.5 -5,6.5 -5,3 -8.5,14 -3.5,11 -5,23.5 -1.5,12.5 -1.5,24.5 0,3 0.5,12.5 0.5,9.5 3.5,19.5 3,9 10,17 7,8 22,19.5 15,11.5 40.5,28.5 25.5,17 67.5,44 86,52 109,70 23,18 23,23 0,3 -6,3 -1,0 -12.5,-7 -11.5,-7 -30,-18.5 Q 966,928 941,912.5 916,897 878,872 824,837 787,814.5 750,792 730,781.5 710,771 704.5,770.5 699,770 697,770 q -8,0 -17,3 -10,2 -17,6.5 -7,4.5 -7,6.5 -1,4 -4,10.5 -3,6.5 -6,13.5 -11,18 -14,37 -3,19 -3,29 0,13 3,23 2,12 21.5,28 19.5,16 71.5,48 l 87,54 135,-37 q 28,-8 54,-15 26,-7 46.5,-12.5 20.5,-5.5 33.5,-9 13,-3.5 17,-5.5 5,-2 8,-2 5,0 5,4 0,4 -10.5,8.5 -10.5,4.5 -28.5,11 -18,6.5 -42.5,14 -24.5,7.5 -50.5,14.5 -30,9 -54.5,16 -24.5,7 -43,13 -18.5,6 -29,10 -10.5,4 -10.5,5 0,7 12,12 8,4 8,7 0,2 -1,3 -2,3 -7,3 -1,0 -5.5,-0.5 -4.5,-0.5 -15.5,-6.5 -7,-5 -12.5,-7 -5.5,-2 -12.5,-2 -1,0 -6.5,0.5 -5.5,0.5 -20,4 -14.5,3.5 -38.5,9.5 -20,6 -35,11 -15,5 -26.5,10.5 -11.5,5.5 -21,12.5 -9.5,7 -18.5,14 -36,31 -47,49.5 -11,18.5 -11,28.5 0,8 5,13 4,5 14.5,8 10.5,3 18.5,3.5 8,0.5 10,0.5 11,0 23,-2.5 12,-2.5 20,-5.5 4,-2 19.5,-7.5 15.5,-5.5 40,-13.5 24.5,-8 56.5,-19 h 1 q 2,-1 3,-1 l 2,-1 q 5,-1 10,-3 l 3,-1 q 2,-1 3,-1 l 3,-1 q 1,0 3,-1 l 3,-1 q 18,-6 40,-13 l 4,-2 q 0,0 1,0 23,-7 55.5,-17.5 32.5,-10.5 59.5,-20 27,-9.5 46,-17 19,-7.5 30,-14.5 10,-6 22,-16 12,-10 20.5,-19.5 8.5,-9.5 12,-16.5 3.5,-7 3.5,-11 0,-2 -1,-4 0,-1 0,-2 0,-6 7.5,-13.5 7.5,-7.5 24.5,-16.5 14,-9 25,-17 11,-8 11,-10 0,-2 -8,-13 -8,-11 -18,-21 -37,-36 -63.5,-40.5 -26.5,-4.5 -36.5,-4.5 -33,0 -62,19 -16,9 -19.5,9.5 -3.5,0.5 -3.5,0.5 -4,0 -4,-3 0,-6 23,-25 23,-19 47,-36 24,-18 40.5,-31.5 16.5,-13.5 31.5,-26 15,-12.5 27.5,-23.5 12.5,-11 21.5,-21 12,-13 22.5,-20 10.5,-7 15.5,-7 1,0 2,0 2,2 2,5 0,5 -8,15 -15,18 -22.5,44 -7.5,26 -8,42 -0.5,16 -0.5,20 0,25 6,49.5 6,24.5 19,40.5 l 18,21 47,-48 q 37,-38 50.5,-47 13.5,-9 17.5,-9 2,0 2,3 0,3 -4,11 -4,5 -8.5,10.5 -4.5,5.5 -6.5,7.5 -4,3 -4,16.5 0,13.5 4,32 4,18.5 11,39 7,20.5 20,42.5 6,11 15,25 9,14 21.5,27 12.5,13 29.5,28 17,15 44,36 23,20 36.5,33 13.5,13 13.5,17 0,1 -1,1 0,0 -1,0 -5,0 -28.5,-16.5 Q 1440,1136 1415,1116 1285,1013 1200,999 q -10,-2 -17.5,-2 -7.5,0 -13,1.5 -5.5,1.5 -10.5,5.5 -5,4 -11,12 -6,7 -9.5,13.5 -3.5,6.5 -6,14 -2.5,7.5 -3.5,17 -1,9.5 -2,22.5 0,51 25,97 25,46 79,94 23,23 36.5,37.5 13.5,14.5 13.5,18.5 0,1 -1,1 0,0 -1,0 -1,0 -7.5,-3.5 -6.5,-3.5 -17,-11.5 -10.5,-8 -24,-19.5 -13.5,-11.5 -25.5,-22.5 -67,-61 -116.5,-86 -49.5,-25 -97.5,-25 -14,0 -31.5,2 -17.5,2 -26.5,7 -4,3 -7,3 -1,0 -2.5,-0.5 -1.5,-0.5 -1.5,-7.5 0,-6 2,-9.5 2,-3.5 4,-3.5 3,0 9,-3 6,-3 10,-6 3,-2 3,-3 0,0 -2,0 -1,0 -6,0.5 -5,0.5 -21,5 -16,4.5 -39.5,11.5 -23.5,7 -44.5,14 -68,21 -108.5,37 -40.5,16 -49.5,25 -11,9 -20.5,23.5 -9.5,14.5 -16,30 -6.5,15.5 -9.5,27 -3,11.5 -3,19.5 0,4 1,8 1,4 1,8 0,2 -0.5,6 -0.5,4 -4.5,4 -6,0 -10,-11 -5,-18 -11,-37.5 -6,-19.5 -12.5,-36 -6.5,-16.5 -12,-29 Q 576,1235 571,1229 q -6,-7 -10,-17.5 -4,-10.5 -4,-16.5 0,-8 -7.5,-29.5 Q 542,1144 533,1121 q -11,-23 -16,-38 -5,-15 -5,-19 0,-2 0,-2 0,-1 2,-1 2,0 9,3.5 7,3.5 17,11.5 8,6 14,9 6,3 12.5,4.5 6.5,1.5 13.5,1.5 2,0 8,-0.5 6,-0.5 17,-1.5 21,-2 37.5,-6 16.5,-4 20.5,-6 4,-3 22.5,-9 18.5,-6 39.5,-13 23,-6 39.5,-12 16.5,-6 17.5,-8 0,0 0,0 0,-2 -17,-14.5 Q 748,1008 717,989 695,976 668.5,958.5 642,941 631,930 q -25,-19 -37,-20 -12,-1 -14,-1 -20,0 -46,15 -19,13 -25,13 -3,0 -3,-3 0,-1 5,-11 5,-10 48,-49 26,-24 45,-44.5 19,-20.5 21,-27.5 1,-4 7,-13 6,-9 16,-21 10,-12 22.5,-26 12.5,-14 53.5,-55 z m 13,69 q 2,0 2.5,-5.5 0.5,-5.5 0.5,-8.5 0,-7 -1,-14 l -5,-27 -22,25 -23,23 21,6 q 11,3 18,3 5,0 9,-2 z m 410,72 q 0,-23 -1,-38.5 -1,-15.5 -2,-15.5 -2,0 -17,11.5 -15,11.5 -33,26.5 l -45,37 27,6 q 11,2 26,7 15,5 24,10 l 21,12 z m -534,45 q 0,-9 -1,-13 0,-3 -1,-6 -5,0 -25,18 l -24,18 25,4 q 8,1 13,1 7,0 10,-2 3,-2 3,-20 z m 675,55 q -2,-10 -4.5,-19 -2.5,-9 -4.5,-9 -2,2 -12,9 -10,7 -21,18 l -30,26 15,18 q 5,6 20,16 15,10 31.5,20 16.5,10 27,14.5 10.5,4.5 13.5,4.5 2,0 2,-1 0,-2 -4.5,-11.5 Q 1316,1004 1313,997 1303,978 1296.5,960.5 1290,943 1288,928 Z m -74,46 q -8,-8 -11,-8.5 -3,-0.5 -4,-0.5 -5,0 -15,6 -3,3 -3,5 0,1 1.5,2.5 1.5,1.5 16.5,2.5 9,1 13,1 2,0 3.5,0 1.5,0 1.5,-2 0,-2 -3,-6 z m -85,197 q -7,-16 -11,-34 -4,-18 -6,-34 l -4,-41 -119,80 32,4 q 14,2 35,9 21,7 51,22 0,0 1,0 1,1 2,2 h 1 q 1,1 3,2 h 1 q 1,0 1,1 l 2,1 q 1,0 1,0 l 2,1 q 1,1 2,1 10,5 12,5 0,0 0,0 0,-5 -6,-19 z m -509,-64 h -36 q -14,0 -25,1 -11,1 -11,2 0,3 3,12 3,9 6.5,18 3.5,9 7.5,16 4,7 6,7 2,0 10.5,-9 8.5,-9 17.5,-20 z m 27,137 q 0,-1 0,-2 0,-9 -27,-9 -7,0 -13.5,0.5 -6.5,0.5 -7.5,2.5 -1,2 -1,4 0,2 2,7.5 2,5.5 7,17.5 l 10,25 12,-18 q 5,-8 10.5,-16.5 5.5,-8.5 7.5,-11.5 z"
     id="path1" />
</svg>
