<?xml version="1.0" encoding="UTF-8" standalone="no"?>
<svg
   width="2000"
   height="2000"
   version="1.1"
   id="svg1"
   sodipodi:docname="KESZ3.liga.svg"
   inkscape:version="1.3.2 (091e20e, 2023-11-25)"
   xmlns:inkscape="http://www.inkscape.org/namespaces/inkscape"
   xmlns:sodipodi="http://sodipodi.sourceforge.net/DTD/sodipodi-0.dtd"
   xmlns="http://www.w3.org/2000/svg"
   xmlns:svg="http://www.w3.org/2000/svg">
  <defs
     id="defs1" />
  <sodipodi:namedview
     id="namedview1"
     pagecolor="#505050"
     bordercolor="#eeeeee"
     borderopacity="1"
     inkscape:showpageshadow="0"
     inkscape:pageopacity="0"
     inkscape:pagecheckerboard="0"
     inkscape:deskcolor="#505050"
     inkscape:zoom="0.379"
     inkscape:cx="1000"
     inkscape:cy="998.68074"
     inkscape:window-width="1392"
     inkscape:window-height="1212"
     inkscape:window-x="0"
     inkscape:window-y="0"
     inkscape:window-maximized="0"
     inkscape:current-layer="svg1" />
  <path
     d="m 1508.5,655.5 q 4,-3 10,-8 6,-5 11,-8 6,-4 11,-8 0,0 0,0 1,0 1,3 0,4 -1,15.5 -1,11.5 -2,18.5 -2,34 -2,53 0,6 0.5,18 0.5,12 7.5,23 5,9 24,31 19,22 45,51 26,29 56,60 30,31 56,56.5 26,25.5 44.5,42.5 18.5,17 27.5,17 4,0 4,2 0,1 -1,3.5 -1,2.5 -17.5,13 -16.5,10.5 -49.5,28.5 -33,18 -85,45 -52,27 -83,44 -31,17 -52.5,31 -21.5,14 -37.5,28.5 -16,14.5 -33,32.5 -28,29 -48,55.5 -20,26.5 -28,42.5 -3,6 -7.5,14 -4.5,8 -6.5,8 -2,0 -6.5,-8 -4.5,-8 -9.5,-19 -6,-11 -20.5,-32.5 -14.5,-21.5 -29.5,-41.5 -32,-39 -34.5,-47 -2.5,-8 -2.5,-9 0,-5 5,-5 5,0 13,3 8,2 31,4 23,2 48,2 20,-1 34,-2.5 14,-1.5 29,-6 15,-4.5 33.5,-13 18.5,-8.5 46.5,-22.5 l 84,-42 -51,-3 q -5,0 -9,0 -44,0 -50,9 -4,7 -7,7 -3,0 -6,-5 -11,-14 -24,-15.5 -13,-1.5 -19,-1.5 -22,0 -63,7 -48,9 -69.5,17 -21.5,8 -21.5,19 0,3 2,7 1,3 1,4 0,3 -2,3 -2,0 -11,-5.5 -9,-5.5 -41,-34.5 -51,-46 -89,-67.5 -38,-21.5 -77,-27.5 l -41,-6 51,-55 q 38,-40 58,-63 20,-23 29,-42 9,-19 9.5,-33 0.5,-14 0.5,-22 0,-16 -1,-36 -2,-33 -2,-51 0,-4 0.5,-15 0.5,-11 3,-15 2.5,-4 4.5,-4 3,0 9,4 6,4 15,12 11,10 18,13.5 7,3.5 17.5,6 10.5,2.5 26,3.5 15.5,1 38.5,2 28,1 45,1 17,0 30,-3 13,-3 27,-9 14,-6 30,-14 30,-15 57.5,-31.5 27.5,-16.5 46.5,-29.5 z m 21,120 q -2,-8 -6,-25.5 -4,-17.5 -6,-34.5 l -4,-40 -54,31 q -40,24 -44,30.5 -4,6.5 -4,9.5 0,5 12,5 11,0 29,6 18,6 38,15 l 45,23 z m -832,-71 q -2,-6 -2,-9 0,-1 0.5,-3 0.5,-2 7.5,-3.5 7,-1.5 22,-1.5 15,0 42,1 32,0 55,1 23,1 25,1 0,0 0,0 0,1 -1,1 0,0 0,0 0,0 0,1 0,0 0,0 -1,1 -1,1 0,0 0,0 0,0 0,1 0,0 -1,0 0,1 0,1 0,0 0,0 0,0 -1,1 0,0 0,0 0,1 0,1 0,0 0,0 0,0 -1,1 0,0 0,0 0,1 0,1 0,0 -1,0 0,0 0,1 0,0 0,0 -3,5 -6.5,11.5 -3.5,6.5 -6.5,11.5 -11,17 -21,42 -10,25 -15,42 -6,21 -9,45.5 -3,24.5 -4,40.5 -1,16 -1,25 0,10 1,21.5 1,11.5 5,11.5 1,0 10,-5.5 9,-5.5 23,-15.5 14,-10 33,-22.5 19,-12.5 45,-30.5 34,-24 58.5,-40.5 24.5,-16.5 37.5,-24.5 13,-8 15.5,-8.5 2.5,-0.5 3.5,-0.5 3,0 3,3 0,6 -28,27.5 -28,21.5 -64,45.5 -23,16 -40.5,28.5 -17.5,12.5 -31,22 -13.5,9.5 -21,15.5 -7.5,6 -7.5,7 0,2 9.5,3.5 9.5,1.5 25,2.5 15.5,1 36.5,1.5 21,0.5 65,0.5 0,0 1,0 0,0 1,0 0,0 1,0 0,0 0,0 h 1 q 0,0 1,0 0,0 1,0 1,0 1,0 h 11 q 0,0 1,0 h 4 q 20,0 35,0.5 15,0.5 23,1.5 8,1 8,2 0,0 0,0 -1,1 -11,2.5 -10,1.5 -25.5,3 -15.5,1.5 -36.5,3 -21,1.5 -44,2.5 l -111,6 107,75 q 70,47 87.5,63 17.5,16 17.5,21 0,3 -5,3 -1,0 -11,-6.5 -10,-6.5 -25.5,-17 -15.5,-10.5 -36.5,-25.5 -21,-15 -40,-28 -27,-19 -48,-33.5 -21,-14.5 -37.5,-25 -16.5,-10.5 -27,-16.5 -10.5,-6 -13.5,-6 -6,0 -6.5,18.5 -0.5,18.5 -0.5,25.5 0,30 2,82 2,44 2.5,69 0.5,25 0.5,44 0,19 -1,29.5 -1,10.5 -2,10.5 -3,0 -6.5,-21.5 -3.5,-21.5 -6.5,-54.5 -3,-33 -5,-71.5 -2,-38.5 -2,-66.5 0,-26 -2,-41 -2,-15 -5,-15 -4,0 -24,19.5 -20,19.5 -44,45.5 -24,26 -46.5,53.5 -22.5,27.5 -34.5,47.5 -15,25 -24.5,30 -9.5,5 -13.5,5 -5,0 -5,-7 0,-10 -11,-28 -11,-18 -26,-39 -14,-19 -22.5,-32 -8.5,-13 -8.5,-16 0,-1 1,-1 1,0 15,-1.5 14,-1.5 34,-2.5 19,-2 43.5,-9 24.5,-7 48.5,-17 24,-10 46,-22 22,-12 36,-24 l 21,-18 h -50 q -26,0 -68.5,7.5 -42.5,7.5 -85.5,18.5 -43,11 -79,23.5 -36,12.5 -49,22.5 -5,2 -8,2 -3,0 -4,-2 0,-5 0.5,-29.5 0.5,-24.5 1,-53 0.5,-28.5 1.5,-51.5 1,-23 2,-24 1,0 19.5,8 18.5,8 42.5,21 24,12 39,18.5 15,6.5 32,10 17,3.5 40,5 23,1.5 55,3.5 36,2 61,2 54,0 54,-8 0,-4 -22,-14.5 -22,-10.5 -53,-23 -31,-12.5 -65,-24 -34,-11.5 -58,-17.5 l -45,-11 29,-31 q 12,-14 25.5,-31.5 13.5,-17.5 22.5,-32.5 5,-9 11,-17 6,-8 8,-8 2,0 8,12 6,12 10,23 11,27 30,52 19,25 45,50 42,43 52,48.5 10,5.5 13,5.5 7,0 7,-12 0,-10 -5.5,-35 -5.5,-25 -13,-53.5 -7.5,-28.5 -15,-54 -7.5,-25.5 -14.5,-36.5 -4,-7 -9,-19 -5,-12 -7,-19 z m 82,4 q -14,0 -28,-2 -14,-2 -21,-4 -6,-2 -8,-2 -2,0 -3,0.5 -1,0.5 -1,2.5 0,4 3,11 3,5 10,26.5 7,21.5 15,45.5 l 18,55 8,-31 q 2,-14 9.5,-33.5 7.5,-19.5 14.5,-34.5 l 18,-34 z m 425,53 q 0,-3 -6,-7.5 -6,-4.5 -15,-9.5 l -23,-11 v 51 q 2,38 2.5,39.5 0.5,1.5 0.5,1.5 2,0 9,-18 6,-11 12,-21 6,-10 11,-12 3,-2 6,-6 3,-4 3,-7 z m -999,-13 q 0,-2 22,-3 22,-1 40,-1 19,0 42,1 37,2 66,4 29,2 29,4 0,2 -8.5,10 -8.5,8 -20.5,16 -16,11 -29,23.5 -13,12.5 -17,18.5 -6,10 -11,41 -5,31 -8,65.5 -3,34.5 -3.5,50 -0.5,15.5 -0.5,17.5 0,25 5,30 2,3 5,12.5 3,9.5 3,19.5 0,12 3.5,27 3.5,15 10,30 6.5,15 14.5,28.5 8,13.5 14,19.5 6,7 19.5,15 13.5,8 34,18.5 20.5,10.5 45.5,23 25,12.5 72,33.5 33,14 61.5,27 28.5,13 41,19.5 12.5,6.5 13,8 0.5,1.5 0.5,1.5 0,2 -1,3 -1,1 -3,1 -3,0 -11.5,-2.5 -8.5,-2.5 -26,-9.5 -17.5,-7 -40,-16 -22.5,-9 -48.5,-20 l -123,-54 -63,6 q -26,2 -54.5,7 -28.5,5 -48.5,11 -16,5 -24,5 -6,0 -6.5,-1.5 -0.5,-1.5 -0.5,-2.5 0,-9 24,-48 15,-24 28,-47.5 13,-23.5 20.5,-46.5 7.5,-23 11,-48.5 3.5,-25.5 6.5,-75.5 1,-18 1.5,-31.5 0.5,-13.5 0.5,-20.5 0,-10 -1,-21 -1,-11 -5,-22.5 -4,-11.5 -10,-24.5 -11,-23 -24.5,-43 -13.5,-20 -22.5,-31 -9,-9 -15.5,-17 -6.5,-8 -6.5,-10 z m 1226,21 q -15,-4 -28.5,-7.5 -13.5,-3.5 -22.5,-4.5 -9,-1 -17,-1 -5,0 -14.5,0.5 -9.5,0.5 -27.5,1.5 -43,4 -64.5,8.5 -21.5,4.5 -36,15 -14.5,10.5 -23.5,29 -9,18.5 -25,62.5 -6,15 -14.5,38.5 -8.5,23.5 -17.5,33.5 -12,12 -15,28 -3,16 -3,25 0,14 4,28 5,12 9.5,21 4.5,9 9.5,9 5,0 8,10 0,6 13.5,19 13.5,13 30,25 16.5,12 28,17.5 11.5,5.5 15.5,5.5 2,0 3,-1 1,-5 3.5,-27 2.5,-22 3.5,-49 4,-27 6,-46.5 2,-19.5 3,-21.5 0,0 1,0 3,0 14,3.5 11,3.5 21,8.5 21,10 48,15.5 27,5.5 48,7.5 l 51,1 6,-73 h -33 q -14,0 -33.5,2.5 -19.5,2.5 -33.5,7.5 -15,4 -31.5,8 -16.5,4 -24.5,6 l -21,4 5,-81 q 3,-32 5.5,-57 2.5,-25 4.5,-27 0,0 1,0 3,0 11.5,3.5 8.5,3.5 19.5,11.5 12,7 29.5,12.5 17.5,5.5 33.5,7.5 9,1 15,1 6,0 7,-2.5 1,-2.5 1,-5.5 0,-3 -1,-9.5 -1,-6.5 -3,-13.5 -2,-8 -2,-13 0,-7 3.5,-7.5 3.5,-0.5 6.5,-0.5 10,0 31,2 24,2 38,2 20,0 20,-4 0,-1 -1,-5.5 -1,-4.5 -65,-23.5 z m -1078,-1 q 0,-4 -15.5,-6 -15.5,-2 -40.5,-2 -18,0 -33.5,1 -15.5,1 -15.5,2 0,2 7,15 7,13 16,29 l 22,40 17,-24 q 5,-10 14,-20.5 9,-10.5 14,-15.5 7,-5 11,-10.5 4,-5.5 4,-8.5 z m 252,23 q 0,-9 -6,-9 -2,0 -9.5,3.5 -7.5,3.5 -25.5,30.5 -8,11 -13.5,21.5 -5.5,10.5 -5.5,13.5 0,1 0,1 2,1 19.5,7.5 17.5,6.5 38,13.5 20.5,7 38.5,12.5 18,5.5 20,5.5 0,0 0,-1 0,-2 -6.5,-13.5 -6.5,-11.5 -19.5,-29.5 -12,-17 -21,-31.5 -9,-14.5 -9,-24.5 z m 932,22 q -4,-1 -12.5,-5 -8.5,-4 -10.5,-4 -1,0 -6.5,6.5 -5.5,6.5 -11.5,15 -6,8.5 -10.5,15.5 -4.5,7 -4.5,9 0,2 17,3.5 17,1.5 41,1.5 55,0 55,8 0,0 -1.5,4.5 -1.5,4.5 -60.5,6.5 l -63,3 -3,27 q -1,11 -1,17 0,6 3,9 3,3 9.5,3.5 6.5,0.5 15.5,0.5 17,0 37,2 20,2 34,6 19,4 19,6 0,0 -3,0.5 -3,0.5 -48,2.5 h -67 v 78 h 64 q 26,0 47.5,2.5 21.5,2.5 23.5,6.5 0,1 0,1 0,4 -16,6 -16,2 -49,2 h -70 v 58 l 72,5 q 26,1 41.5,1 15.5,0 30,-4 14.5,-4 31,-11.5 16.5,-7.5 34.5,-16.5 42,-21 64,-34.5 22,-13.5 22,-18.5 0,-4 -13.5,-20 -13.5,-16 -34.5,-38 -1,0 -1,0 l -8,-8 q 0,0 -1,-1 l -8,-8 q 0,0 -1,-1 l -8,-8 q -1,-1 -1,-1 l -9,-9 q 0,0 -1,-1 l -9,-9 q 0,0 0,-1 -26,-25 -50,-46.5 -24,-21.5 -42.5,-37.5 -18.5,-16 -35.5,-24 z m -65,13 q -1,-1 -8.5,-4 -7.5,-3 -15.5,-5 -7,-2 -13,-2 -11,0 -12.5,4.5 -1.5,4.5 -1.5,6.5 0,9 13,20 8,7 13,7 1,0 4,-0.5 3,-0.5 11,-8.5 5,-5 8,-9.5 3,-4.5 3,-6.5 0,-1 -1,-2 z m -138,34 q 0,-5 -18,-13 -8,-5 -12,-5 -1,0 -2.5,1.5 -1.5,1.5 -1.5,16.5 0,15 1.5,16 1.5,1 2.5,1 4,0 13,-4 17,-8 17,-13 z m 99,45 q -11,-31 -34,-31 -1,0 -2,0 -10,0 -24,2 -14,2 -27,5 -13,3 -23,6 -10,3 -13,6 -3,2 -3,5 0,3 6,9 6,6 21,12.5 15,6.5 35.5,10.5 20.5,4 40.5,4 24,0 25.5,-4 1.5,-4 1.5,-7 0,-7 -4,-18 z m -99,41 q 0,-5 -6,-10.5 -6,-5.5 -15,-8.5 -13,-6 -18,-6 0,0 -2,1 -2,1 -2,17 0,14 2,16.5 2,2.5 4,2.5 4,0 9,-2 5,-1 11,-3 6,-2 10,-2 7,0 7,-5 z m -892,-10 q -14,-9 -20,-9 -3,0 -6,3.5 -3,3.5 -3,39.5 0,23 2,36.5 2,13.5 4,13.5 2,0 15,-4 13,-4 32.5,-10 19.5,-6 42.5,-13 23,-7 28,-9 14,-4 14,-8 0,-2 -8,-5.5 -8,-3.5 -29,-9.5 -22,-7 -43,-14.5 -21,-7.5 -29,-10.5 z m 672,22 q 4,-9 6.5,-17.5 2.5,-8.5 2.5,-11.5 0,-1 0,-1 0,0 0,0 -3,0 -15,12.5 -12,12.5 -27,29.5 -20,23 -30,37 -10,14 -10,17 0,1 0,1 1,1 10.5,2.5 9.5,1.5 19.5,2.5 9,1 15,1 9,0 13,-2 4,-2 4,-9 0,-2 -1,-5 -1,-4 -1,-8 0,-7 3,-19.5 3,-12.5 10,-29.5 z m 185,62 q -14,-8 -19,-8 -1,0 -4,1 -3,1 -3,13 0,17 6,18.5 6,1.5 8,1.5 9,0 19,-7 7,-4 7,-8 0,0 -0.5,-2 -0.5,-2 -13.5,-9 z m 146,57 q -2,-24 -6,-29.5 -4,-5.5 -22,-6.5 -4,0 -9,0 -14,0 -34,2.5 -20,2.5 -41,7.5 -21,5 -36,10.5 -15,5.5 -15,10.5 0,8 31.5,16.5 31.5,8.5 79.5,13.5 l 55,8 z m -807,11 q 17,-19 17,-24 0,-1 -1,-2 -1,-1 -4,-1 -6,0 -23,6 -18,7 -36,10 -18,3 -31,3 -14,1 -23.5,2.5 -9.5,1.5 -9.5,3.5 0,1 7,13.5 7,12.5 17,29.5 l 26,39 19,-28 q 8,-11 20.5,-26.5 12.5,-15.5 21.5,-25.5 z m -327,23 q -1,-7 -4,-15 -3,-8 -5,-10 0,0 -1,0 -3,0 -13.5,17 -10.5,17 -24.5,44 l -31,65 45,-5 q 19,-2 38,-4.5 19,-2.5 28,-4.5 l 19,-4 -22,-27 q -9,-11 -18,-26.5 -9,-15.5 -11,-29.5 z m 979,-13 q -14,-8 -19,-8 -1,0 -3.5,1 -2.5,1 -2.5,13 0,17 6,18.5 6,1.5 8,1.5 8,0 18,-6 8,-5 8,-8 0,-1 -1,-3 -1,-2 -14,-9 z m 122,156 q 17,-20 19,-24 2,-4 2,-5 0,-3 -6,-3 -2,0 -3,0 -7,0 -30,2 -23,2 -49,4 l -65,5 29,34 q 10,15 20.5,29 10.5,14 13.5,19 5,8 9,8 1,0 3,-0.5 2,-0.5 12,-14.5 6,-11 19.5,-26.5 13.5,-15.5 25.5,-27.5 z"
     id="path1" />
</svg>
