<?xml version="1.0" encoding="UTF-8" standalone="no"?>
<svg
   width="2000"
   height="2000"
   version="1.1"
   id="svg1"
   sodipodi:docname="KID2xIM.liga.svg"
   inkscape:version="1.3.2 (091e20e, 2023-11-25)"
   xmlns:inkscape="http://www.inkscape.org/namespaces/inkscape"
   xmlns:sodipodi="http://sodipodi.sourceforge.net/DTD/sodipodi-0.dtd"
   xmlns="http://www.w3.org/2000/svg"
   xmlns:svg="http://www.w3.org/2000/svg">
  <defs
     id="defs1" />
  <sodipodi:namedview
     id="namedview1"
     pagecolor="#505050"
     bordercolor="#eeeeee"
     borderopacity="1"
     inkscape:showpageshadow="0"
     inkscape:pageopacity="0"
     inkscape:pagecheckerboard="0"
     inkscape:deskcolor="#505050"
     inkscape:zoom="0.379"
     inkscape:cx="1000"
     inkscape:cy="998.68074"
     inkscape:window-width="1392"
     inkscape:window-height="1212"
     inkscape:window-x="0"
     inkscape:window-y="0"
     inkscape:window-maximized="0"
     inkscape:current-layer="svg1" />
  <path
     d="m 579,646 q 6,-3 14,-6 8,-3 11,-3 2,0 3,1 1,1 1,2 0,3 -5,13.5 -5,10.5 -11,22.5 -18,38 -29.5,72.5 -11.5,34.5 -19,76.5 -7.5,42 -11,93 -3.5,51 -5.5,117 l -4,168 67,8 q 24,3 35,3.5 11,0.5 16,0.5 6,0 11.5,-0.5 5.5,-0.5 8.5,-4 3,-3.5 6,-9.5 3,-8 4,-16.5 1,-8.5 1,-13.5 0,-7 -1,-13 -1,-7 -3,-11.5 -2,-4.5 -8,-7.5 -6,-3 -17.5,-4 -11.5,-1 -28.5,-2 -28,-2 -44.5,-4 -16.5,-2 -16.5,-5 0,-2 17.5,-19 17.5,-17 43.5,-39 42,-34 50.5,-45.5 8.5,-11.5 8.5,-14.5 0,-2 -2,-2 -3,0 -9,3 -7,3 -11,3 -6,0 -6,-7.5 0,-7.5 12,-17.5 7,-6 10,-12 3,-6 4,-19 1,-13 1,-34.5 0,-21.5 -2,-52.5 -2,-42 -6,-75.5 -4,-33.5 -10,-58 -6,-24.5 -13.5,-39 Q 633,680 624,680 q -4,0 -4,-3 0,-1 1,-3 3,-7 11,-7.5 8,-0.5 11,-0.5 11,0 24,2 7,0 15,0 11,0 27.5,-1 16.5,-1 33.5,-7 14,-5 22,-5 7,0 9,2.5 2,2.5 2,6.5 0,9 -10,28 -7,12 -16.5,33.5 Q 740,747 733,768 q -6,20 -13.5,51 -7.5,31 -13,59.5 -5.5,28.5 -7.5,43 -2,14.5 -2,18.5 0,7 2,7 4,0 18,-10.5 14,-10.5 29.5,-24.5 15.5,-14 28,-28 12.5,-14 17.5,-27 4,-12 9,-12 1,0 5.5,3.5 4.5,3.5 4.5,24.5 0,17 5,33.5 5,16.5 12.5,31.5 7.5,15 15,26 7.5,11 9.5,11 4,0 4,-32 0,-32 -2,-70 -2,-46 -6,-80.5 -4,-34.5 -10,-60.5 -6,-26 -13,-42 -7,-16 -15,-18 -10,-4 -10,-8 0,-3 11,-6.5 11,-3.5 52,-4.5 26,0 46.5,-3 20.5,-3 26.5,-9 2,-2 7,-5 5,-3 8,-3 4,0 6,5 2,5 2,10 0,2 -0.5,6 -0.5,4 -2.5,11 -2,7 -5,9 -5,3 -13.5,25 -8.5,22 -18,51 -9.5,29 -17.5,60 -8,31 -12,48 -3,16 -3,26 0,2 0.5,8 0.5,6 5,14.5 4.5,8.5 13,15 8.5,6.5 18.5,11.5 16,9 39.5,15.5 23.5,6.5 55.5,12.5 32,6 68.5,11 36.5,5 72.5,8 l 76,6 -6,-72 q -7,-79 -16.5,-133 -9.5,-54 -26.5,-79 -7,-10 -7,-16 0,-3 2.5,-6.5 2.5,-3.5 17.5,-3.5 5,0 11,1 8,1 17,1 8,0 21,-1 13,-1 31,-7 17,-5 27,-5 1,0 6.5,0.5 5.5,0.5 15.5,11.5 6,4 11.5,6.5 5.5,2.5 11,3 5.5,0.5 8.5,0.5 7,0 19,-1.5 12,-1.5 34,-4.5 14,-2 31,-4.5 17,-2.5 34.5,-4.5 17.5,-2 34.5,-3.5 17,-1.5 34,-2.5 19,-1 30,-1 12,0 18,1 6,1 6,6 0,3 -2,6 -15,36 -27.5,74 -12.5,38 -22,75 -9.5,37 -14.5,70 -5,33 -5,59 v 37 h 60 q 26,0 43,2 17,2 17,7 0,5 -16.5,7 -16.5,2 -41.5,2 h -59 l -4,77 q -4,32 -6,65 -2,33 -2,50 v 39 h 111 q 51,0 81,3 30,3 30,6 0,6 -101,7.5 -101,1.5 -279,1.5 -99,0 -171,0.5 -72,0.5 -126,1.5 -54,1 -85,2.5 -31,1.5 -31,4.5 0,2 10.5,10.5 10.5,8.5 23.5,16.5 18,13 28.5,22 10.5,9 10.5,14 0,3 -3,3 -4,0 -16.5,-6 -12.5,-6 -38.5,-25 l -60,-44 -161,11 q -115,8 -196.5,15 -81.5,7 -136.5,15.5 -55,8.5 -87,19.5 -32,11 -48,26 l -21,20 6,-23 q 3,-10 8.5,-19 5.5,-9 10.5,-14 7,-5 11.5,-20 4.5,-15 6.5,-31.5 2,-16.5 2,-30.5 0,-5 -0.5,-18 -0.5,-13 -6.5,-28 -3,-10 -4.5,-17 -1.5,-7 -1.5,-10 0,-3 1,-4 0,-1 2,-1 4,0 15,3 11,3 26,8 22,8 49.5,14.5 27.5,6.5 53.5,11 26,4.5 40.5,6 14.5,1.5 20.5,1.5 5,0 6,-1 2,-2 3.5,-27.5 1.5,-25.5 1.5,-64 0,-38.5 -0.5,-84.5 -0.5,-46 -2,-89 Q 503,886 501,850.5 499,815 496,792 492,770 484.5,741 477,712 466,693 q -4,-6 -9.5,-17 -5.5,-11 -5.5,-13 0,-3 11,-4 11,-1 20,-1 6,0 12,0 8,1 16,1 13,0 30.5,-2.5 Q 558,654 579,646 Z m 340,41 q 2,-5 2,-8 0,-5 -5,-7.5 -5,-2.5 -30,-2.5 h -39 l 5,30 q 3,13 6.5,31 3.5,18 5.5,32 7,45 13.5,45 6.5,0 22.5,-53 5,-17 11,-39 6,-22 8,-28 z m -357,9 q 2,-6 2,-10 0,-12 -18,-12 -3,0 -7,0 -6,1 -21,3 -15,2 -21.5,4.5 -6.5,2.5 -6.5,6.5 0,0 0.5,2.5 0.5,2.5 2.5,8.5 3,10 8.5,32 5.5,22 9.5,45 l 12,55 10,-42 q 8,-32 16.5,-57.5 Q 558,706 562,696 Z m 166,28 q 3,-8 6.5,-18.5 3.5,-10.5 3.5,-15.5 0,-3 -1.5,-6 -1.5,-3 -9.5,-3 -2,0 -9,1 -7,1 -17,2 -29,4 -32.5,7.5 -3.5,3.5 -3.5,8.5 0,4 2,10 3,8 7,28.5 4,20.5 6,33.5 9,46 13,55.5 4,9.5 5,9.5 2,0 2,-8 0,-15 6.5,-38.5 Q 713,767 728,724 Z m 602,-13 q -3,-6 -8,-14 -5,-8 -7,-8 -4,0 -10,14 -6,14 -12.5,36.5 -6.5,22.5 -13.5,50 -7,27.5 -12,55.5 -5,28 -8.5,53.5 -3.5,25.5 -3.5,42.5 v 40 l 47,6 q 20,2 36.5,2 16.5,0 19.5,-2 4,-3 5.5,-17.5 1.5,-14.5 1.5,-30.5 0,-8 -0.5,-25.5 -0.5,-17.5 -3.5,-49 -3,-31.5 -7,-60.5 -4,-29 -9.5,-53 -5.5,-24 -14.5,-40 z m 153,0 q -3,-10 -8.5,-16 -5.5,-6 -8.5,-6 -8,0 -20,24 -12,24 -23.5,60 -11.5,36 -21.5,79.5 -10,43.5 -14,82.5 l -6,58 h 132 v -49 q 0,-27 -2.5,-63 -2.5,-36 -7,-70.5 -4.5,-34.5 -10,-62 Q 1488,721 1483,711 Z m 86,-13 q 0,-5 -9.5,-7 -9.5,-2 -24.5,-2 -11,0 -18.5,1 -7.5,1 -8.5,6 -1,5 -1,8 0,7 2.5,21 2.5,14 8.5,46 l 12,60 10,-42 q 4,-17 10,-34.5 6,-17.5 11,-26.5 4,-9 6,-18 2,-9 2,-12 z m -292,24 q 4,-19 4.5,-22 0.5,-3 0.5,-3 0,-4 -3,-5.5 -3,-1.5 -7,-1.5 -3,0 -9.5,1 -6.5,1 -14.5,2 -23,4 -25,8 -2,4 -2,8 0,6 2,15 1,3 4.5,18 3.5,15 5.5,30 7,42 14,42 1,0 6.5,-6.5 5.5,-6.5 23.5,-85.5 z m 141,-6 q 1,-5 1,-9 0,-4 -3,-6.5 -3,-2.5 -17,-2.5 -13,0 -22,2.5 -9,2.5 -12,9.5 -3,7 -3,16 0,5 1,15.5 1,10.5 6,38.5 l 12,68 17,-59 q 7,-25 13,-47 6,-22 7,-26 z M 793,910 q 0,-9 -6,-9 -2,0 -8.5,3 -6.5,3 -29.5,28 -28,27 -28.5,33 -0.5,6 -0.5,6 0,12 27,18 9,2 29,8 20,6 33,10 23,6 34,7.5 11,1.5 14,1.5 1,0 1,0 0,-2 -9.5,-16 Q 839,986 826,968 812,951 802.5,935 793,919 793,910 Z m 102,55 q 0,-11 -2.5,-20.5 Q 890,935 886,933 q -1,-1 -2,-1 -4,0 -6,8 -2,8 -2,26 0,33 8,33 1,0 2,-1 4,-2 6.5,-12 2.5,-10 2.5,-21 z m 138,16 q -30,-4 -53.5,-9.5 Q 956,966 945,960 l -30,-12 -5,44 q -2,17 -2.5,26.5 -0.5,9.5 -0.5,13.5 0,3 0,3 1,1 3,1 7,0 31,-4.5 24,-4.5 51,-9.5 88,-18 90,-22 2,-4 2,-5 0,-7 -51,-14 z m 329,35 q -2,-8 -14.5,-11 -12.5,-3 -39.5,-3 h -50 l -6,113 q -1,24 -1.5,45 -0.5,21 -0.5,37 v 2 q 0,1 0,1 v 1 q 0,1 0,1 v 4 q 0,1 0,1 v 1 q 0,0 0,1 v 1 q 0,0 0,1 0,1 0,1 v 10 q 0,0 0,0 v 2 q 0,10 1,11 2,3 18,5 16,2 37,2 h 48 l 8,-106 q 3,-45 3,-79 0,-34 -3,-41 z m -564,4 q -32,-9 -47,-13 -15,-4 -22,-4 -2,0 -6.5,1 -4.5,1 -4.5,8.5 0,7.5 1,13.5 1,18 12.5,36.5 11.5,18.5 27,39 15.5,20.5 33,39.5 17.5,19 30.5,28 l 25,18 5,-21 q 2,-8 4,-30 2,-22 2,-44 v -52 z m 436,29 q -1,-42 -20,-44 -2,0 -5,0 -9,0 -30,2 -21,2 -52,6.5 -31,4.5 -63.5,10.5 -32.5,6 -59.5,12 -27,6 -44.5,11.5 -17.5,5.5 -17.5,10.5 0,7 26,29 26,22 93,69 22,15 38,26.5 16,11.5 22,17 6,5.5 6,7.5 0,0 -0.5,1 -0.5,1 -1.5,2 -2,1 -4,1 -6,0 -19.5,-7.5 -13.5,-7.5 -37.5,-23.5 -24,-16 -52,-37 -28,-21 -43,-34 -49,-39 -70,-39 -1,0 -12,0.5 -11,0.5 -11,39.5 0,10 -1.5,27.5 -1.5,17.5 -3.5,28.5 -2,13 -2,22 0,8 2,15.5 2,7.5 14,18.5 8,8 16.5,12 8.5,4 26.5,5.5 18,1.5 50.5,2 32.5,0.5 87.5,0.5 h 159 l 6,-76 q 4,-32 4.5,-52.5 0.5,-20.5 0.5,-26.5 0,-24 -2,-38 z m 282,-38 h -132 v 39 q 0,9 -0.5,22 -0.5,13 -1.5,29 -1,16 -2,32.5 -1,16.5 -2,32.5 l -6,76 h 132 v -39 q 0,-17 2,-50 2,-33 4,-65 z m -765,110 q -9,-9 -21,-24.5 -12,-15.5 -20,-29.5 l -19,-32 v 42 q 0,18 1,28 1,10 5.5,16 4.5,6 13.5,9 9,3 26,6 l 34,7 z m -78,-42 q 0,-17 -1,-28 -1,-11 -2,-11 -2,0 -12,9.5 -10,9.5 -21,21.5 -11,12 -20,22.5 -9,10.5 -9,12.5 0,2 9.5,4.5 9.5,2.5 22.5,4.5 l 33,4 z m 95,89 q -4,-2 -22,-9 -18,-7 -28,-10 -9,-3 -14,-3 -5,0 -8,3.5 -3,3.5 -8,26.5 -2,12 -2,21 0,3 0.5,9.5 0.5,6.5 3.5,9.5 4,5 29.5,8 25.5,3 51,5 25.5,2 45.5,2 5,0 19,-0.5 14,-0.5 14,-7.5 0,-7 -20,-23 -20,-16 -61,-32 z m -280,47 q -10,0 -37.5,-5.5 Q 423,1204 394,1197 l -72,-16 v 42 q 0,18 -2,36 -2,18 -5,29 -1,4 -1.5,6 -0.5,2 -0.5,3 0,3 3,3.5 3,0.5 4,0.5 5,0 15,-2 10,-2 22,-5 19,-5 41,-8.5 22,-3.5 50,-7.5 28,-4 60,-7 32,-3 65,-6 29,-2 56.5,-4.5 27.5,-2.5 48.5,-5 21,-2.5 33.5,-4.5 12.5,-2 13.5,-3 0,0 0,0 0,-2 -12.5,-4.5 -12.5,-2.5 -33.5,-5 -21,-2.5 -46,-5 -25,-2.5 -47.5,-4 -22.5,-1.5 -39,-1.5 -16.5,0 -22.5,2 -3,1 -7,1 -2,0 -6.5,-1 -4.5,-1 -4.5,-5 0,-4 -5.5,-7 -5.5,-3 -12.5,-3 z"
     id="path1" />
</svg>
