<?xml version="1.0" encoding="UTF-8" standalone="no"?>
<svg
   width="2000"
   height="2000"
   version="1.1"
   id="svg1"
   sodipodi:docname="MUNUSTUK.liga.svg"
   inkscape:version="1.3.2 (091e20e, 2023-11-25)"
   xmlns:inkscape="http://www.inkscape.org/namespaces/inkscape"
   xmlns:sodipodi="http://sodipodi.sourceforge.net/DTD/sodipodi-0.dtd"
   xmlns="http://www.w3.org/2000/svg"
   xmlns:svg="http://www.w3.org/2000/svg">
  <defs
     id="defs1" />
  <sodipodi:namedview
     id="namedview1"
     pagecolor="#505050"
     bordercolor="#eeeeee"
     borderopacity="1"
     inkscape:showpageshadow="0"
     inkscape:pageopacity="0"
     inkscape:pagecheckerboard="0"
     inkscape:deskcolor="#505050"
     inkscape:zoom="0.379"
     inkscape:cx="1000"
     inkscape:cy="998.68074"
     inkscape:window-width="1392"
     inkscape:window-height="1212"
     inkscape:window-x="0"
     inkscape:window-y="0"
     inkscape:window-maximized="0"
     inkscape:current-layer="svg1" />
  <path
     d="m 1026,649 q 6,-6 18,-9 12,0 14,6 2,6 2,7 0,7 -9,9 -13,6 -31,49 -18,43 -30,91 -11,42 -17,91.5 -6,49.5 -9.5,94.5 -3.5,45 -3.5,78 0,5 0.5,25.5 0.5,20.5 5.5,23.5 0,0 2,0 8,0 51.5,-7.5 43.5,-7.5 115,-21 71.5,-13.5 153.5,-29.5 10,-2 20,-4 l 5,-1 q 40,-8 77,-15 l 5,-1 q 24,-5 47,-10 71,-14 119,-24 48,-10 50,-11 0,0 0,0 0,-2 -41.5,-10 -41.5,-8 -78.5,-14 -95,-17 -160,-23.5 -65,-6.5 -105.5,-8.5 -40.5,-2 -63.5,-2 -24,0 -54,2 -30,2 -54,12 -7,3 -19,7 -12,4 -15,4 -1,0 -1,-2 0,-4 4,-16 4,-12 16,-33 17,-33 19.5,-45.5 2.5,-12.5 2.5,-23.5 0,-9 -1,-21 -2,-11 -2,-18 0,-3 1,-7.5 1,-4.5 12,-4.5 10,0 10,7 0,8 16.5,20.5 16.5,12.5 42.5,24.5 79,44 176,71.5 97,27.5 226,48.5 102,17 113.5,23.5 11.5,6.5 11.5,9.5 0,8 -38,15 -12,3 -44.5,10 -32.5,7 -81,16 -48.5,9 -110,21 -61.5,12 -127.5,25 -114,23 -180,36.5 -66,13.5 -103,22.5 -37,9 -55.5,17 -18.5,8 -39.5,20 -27,17 -55,38.5 -28,21.5 -51,45 -23,23.5 -39,44.5 -16,21 -20,42 -3,15 -9,15 -2,0 -5,-3 -6,-6 -6,-16.5 0,-10.5 5,-25.5 7,-21 8.5,-45.5 1.5,-24.5 1.5,-46.5 0,-8 -0.5,-27 -0.5,-19 -3.5,-48.5 -3,-29.5 -8,-45.5 -2,-6 -2,-10 0,-5 4,-5 1,0 6.5,1.5 5.5,1.5 11.5,14.5 18,44 110,44 8,0 16,0 39,-3 59,-6 20,-3 29,-16 9,-13 10.5,-40.5 Q 952,1057 952,1013 952,940 947.5,884.5 943,829 935.5,787 928,745 917.5,718.5 907,692 892,688 q -9,-3 -9,-9 0,-8 17.5,-11 17.5,-3 45.5,-3 66,0 80,-16 z M 525,685 Q 535,674 548.5,661.5 562,649 565,649 q 3,0 3.5,6 0.5,6 0.5,8 0,8 -2,17 -1,7 -1,13 0,13 5,26.5 5,13.5 21,37.5 18,28 44.5,58 26.5,30 52,57 25.5,27 45,43 19.5,16 24.5,16 1,0 1,0 2,-2 2,-15 0,-7 -1,-25.5 -1,-18.5 -5.5,-52 Q 750,805 744,773.5 738,742 733,728 729,719 722,708.5 715,698 706,691 q -10,-9 -10,-14 0,-3 5,-5.5 5,-2.5 30,-2.5 11,0 26,1 62,0 78,-12 8,-8 16,-8.5 8,-0.5 9,-0.5 14,0 14,9 0,7 -10,10 -18,6 -32.5,37 -14.5,31 -26.5,78 -12,47 -20,105 -8,58 -11,128 -2,32 -4,61 -2,29 -3,38 -1,9 -2,9 -1,0 -1.5,-6 -0.5,-6 -0.5,-24 0,-58 -10,-58 -5,0 -29,12 -24,12 -42,22 -57,30 -97.5,62.5 -40.5,32.5 -72,64 -31.5,31.5 -50,60.5 -18.5,29 -18.5,56 0,11 -1.5,12 -1.5,1 -2.5,1 -2,0 -7,-5 -12,-10 -12,-23 0,-3 0,-6 1,-3 1,-8 0,-30 -38,-110 -15,-32 -16.5,-38 -1.5,-6 -1.5,-7 0,-6 7,-6 2,0 5,1 4,1 7,1 1,0 3,-0.5 2,-0.5 3,-9.5 1,-9 1,-20 0,-8 -0.5,-25.5 Q 391,1052 390,1007 387,913 378.5,871 370,829 343,808 q -10,-9 -10,-15 0,-5 14,-5.5 14,-0.5 29,-0.5 27,0 45,-3 18,-3 27,-12 3,-2 3,-2 0,0 -0.5,-0.5 -0.5,-0.5 -0.5,-0.5 -2,0 -6,1 -11,3 -17,3 -3,0 -5,-1.5 -2,-1.5 -2,-4.5 0,-2 1.5,-6 1.5,-4 9,-10 7.5,-6 16.5,-9 13,-3 32.5,-17.5 Q 499,710 525,685 Z m 484,-2 h -42 q -28,0 -33,2 -5,2 -5,7 0,3 2,8 2,4 7,22 5,18 11,41 5,16 8.5,30.5 3.5,14.5 5.5,15.5 0,0 0,0 2,0 9,-18 7,-18 15,-43 z m -190,14 q 2,-5 2,-8 0,-5 -4,-5 -2,0 -4,1 -5,1 -17.5,2 -12.5,1 -26.5,2 -21,3 -25,5.5 -4,2.5 -4,7.5 0,4 2,10 3,7 10,30.5 7,23.5 13,45.5 5,26 9,26 0,0 2,-2.5 2,-2.5 16,-42.5 9,-23 15.5,-44 6.5,-21 11.5,-28 z M 571,752 Q 561,733 552.5,718.5 544,704 541,703 q 0,0 -1,0 -2,0 -11.5,6.5 -9.5,6.5 -21,15.5 -11.5,9 -20.5,19 -9,10 -9,13 0,3 11,3 12,0 29,6.5 17,6.5 34,14.5 l 43,19 z m -9,54 q -25,-13 -43,-20 -18,-7 -29,-7 -3,0 -10.5,1 -7.5,1 -15.5,10 -8,9 -16,27 -10,28 -20,80.5 -10,52.5 -14.5,105 -4.5,52.5 -4.5,94 0,41.5 11,47.5 3,2 10,2 19,0 72,-17 53,-17 156,-69 23,-11 47.5,-23 24.5,-12 36.5,-20 12,-8 15.5,-13 3.5,-5 3.5,-10 0,-2 -1,-5 -1,-10 -9.5,-14 -8.5,-4 -38.5,-7 -4,0 -7,0 -28,0 -63.5,7 -35.5,7 -68.5,19 -33,12 -55,27.5 -22,15.5 -22,33.5 0,6 -2,6 -1,0 -2,-1 -6,-6 -6.5,-27 -0.5,-21 -0.5,-36 0,-15 0.5,-39 0.5,-24 3.5,-50.5 3,-26.5 9,-26.5 4,0 7,11 8,25 47.5,38.5 Q 592,944 660,947 l 81,3 -56,-54 Q 661,872 627.5,848 594,824 562,806 Z m -132,15 q 3,-6 3,-10 0,-4 -3.5,-6 -3.5,-2 -24.5,-2 -20,0 -23,2 -3,2 -3,6 0,4 3,13 0,2 4.5,14 4.5,12 7.5,24 3,12 6,20 3,8 5,8 3,0 6,-8 3,-8 6,-20 3,-12 7.5,-24 4.5,-12 5.5,-17 z m 689,29 q -14,-12 -26,-12 -1,0 -8,12.5 -7,12.5 -13.5,27.5 -6.5,15 -10.5,27 -4,12 -4,14 0,1 0,1 2,0 32.5,-0.5 30.5,-0.5 72.5,-2.5 l 104,-3 -60,-24 q -26,-9 -50.5,-20 Q 1131,859 1119,850 Z M 562,955 q -12,-5 -24,-10 -12,-5 -18,-8 -4,-1 -7,-1 -4,0 -6.5,4 -2.5,4 -2.5,25 0,17 2,26 2,9 6,9 1,0 1,0 1,-2 14,-7 13,-5 28,-13 l 37,-16 z m -63,229 q 32,-34 33,-37.5 1,-3.5 1,-4.5 0,-2 -4,-2 -6,0 -25,8 -8,5 -26.5,8 -18.5,3 -35.5,3 -18,1 -25.5,3 -7.5,2 -7.5,9 0,11 9,33 8,16 15.5,32 7.5,16 14.5,16 5,0 5,-6 0,-6 12.5,-22.5 Q 478,1207 499,1184 Z m 312,-21 q -21,-1 -41,-4 -20,-3 -29,-8 -4,-2 -7,-2 -5,0 -5.5,3 -0.5,3 -0.5,8 0,10 2,32 3,19 4.5,38.5 1.5,19.5 1.5,28.5 l 2,23 22,-27 q 11,-12 29.5,-29.5 Q 808,1208 825,1196 l 40,-30 z"
     id="path1" />
</svg>
