<?xml version="1.0" encoding="UTF-8" standalone="no"?>
<svg
   width="2000"
   height="2000"
   version="1.1"
   id="svg1"
   sodipodi:docname="NIDABA.liga.svg"
   inkscape:version="1.3.2 (091e20e, 2023-11-25)"
   xmlns:inkscape="http://www.inkscape.org/namespaces/inkscape"
   xmlns:sodipodi="http://sodipodi.sourceforge.net/DTD/sodipodi-0.dtd"
   xmlns="http://www.w3.org/2000/svg"
   xmlns:svg="http://www.w3.org/2000/svg">
  <defs
     id="defs1" />
  <sodipodi:namedview
     id="namedview1"
     pagecolor="#505050"
     bordercolor="#eeeeee"
     borderopacity="1"
     inkscape:showpageshadow="0"
     inkscape:pageopacity="0"
     inkscape:pagecheckerboard="0"
     inkscape:deskcolor="#505050"
     inkscape:zoom="0.379"
     inkscape:cx="1000"
     inkscape:cy="998.68074"
     inkscape:window-width="1392"
     inkscape:window-height="1212"
     inkscape:window-x="0"
     inkscape:window-y="0"
     inkscape:window-maximized="0"
     inkscape:current-layer="svg1" />
  <path
     d="m 368,691 q 21,-22 35,-33 14,-11 17,-11 2,0 2,1 1,1 1,4 0,3 -2,9 -2,6 -9,14 -20,27 -39.5,56 -19.5,29 -35,53 -15.5,24 -25.5,40.5 -10,16.5 -10,27.5 0,9 7,9 9,0 35,-17.5 26,-17.5 110,-101.5 33,-33 63.5,-62 30.5,-29 35.5,-29 1,0 1,0 0,0 0,1 0,5 -11,24.5 -11,19.5 -35,55.5 -63,96 -63,115 0,5 4,5 21,0 140,-117 31,-30 60.5,-57 29.5,-27 34.5,-27 1,0 1,0 0,0 0,0 0,3 -13.5,25.5 Q 658,699 644,718 q -60,89 -63,129 0,4 0,7 0,7 1.5,16 1.5,9 6.5,9 1,0 11.5,-9 10.5,-9 28,-24 17.5,-15 38.5,-35.5 21,-20.5 48,-47.5 82,-79 100,-92 18,-13 21,-13 1,0 1,1 0,5 -13,23 -7,9 -11,17.5 -4,8.5 -4,11.5 0,4 14.5,7 14.5,3 29,3.5 14.5,0.5 24.5,0.5 9,0 22.5,-0.5 13.5,-0.5 25.5,-6.5 8,-5 16,-5 6,0 12,3 6,3 6,7 0,4 -7,9 -9,7 -17.5,24.5 -8.5,17.5 -16.5,39 -8,21.5 -13.5,42.5 -5.5,21 -5.5,32 0,10 7.5,14 7.5,4 27.5,4 13,0 21.5,-2.5 8.5,-2.5 13.5,-7.5 5,-5 10.5,-16.5 Q 985,847 991,834 q 10,-29 17,-58 7,-29 7,-47 0,-17 4.5,-32 4.5,-15 9,-21.5 4.5,-6.5 7.5,-6.5 1,0 3.5,1.5 2.5,1.5 2.5,13.5 0,18 9,35 9,17 24,34.5 15,17.5 33.5,32.5 18.5,15 32.5,21 12,6 42,14 30,8 77,19.5 47,11.5 107,25.5 60,14 141,32 87,18 157,34.5 70,16.5 110.5,28.5 40.5,12 53.5,18.5 13,6.5 13,10.5 0,2 -2,4 -1,1 -16,4 h -2 q -4,1 -9,2 -27,5 -73.5,14 -46.5,9 -107.5,19.5 -61,10.5 -137,23.5 -164,29 -256,47 -92,18 -113,30 l -44,21 -1,108 q 0,90 -7,90 -1,0 -2,-3 -3,-9 -6,-37 -3,-28 -3,-58 -2,-30 -4,-51.5 -2,-21.5 -7,-21.5 -4,0 -14.5,9.5 -10.5,9.5 -22,23 -11.5,13.5 -21,29.5 -9.5,16 -15.5,32 -9,22 -15,22 -2,0 -6.5,-5 -4.5,-5 -5.5,-51 0,-23 -6,-56 -6,-33 -15,-60 -8,-21 -10.5,-33.5 -2.5,-12.5 -2.5,-16.5 0,-8 4,-10 2,-1 3,-1 5,0 12,9 9,16 33.5,26.5 24.5,10.5 54.5,10.5 21,0 23,-3.5 2,-3.5 2,-7.5 0,-10 -4,-32 -7,-39 -19,-72 -12,-33 -24,-41 -12,-4 -12,-16 0,-11 6.5,-12 6.5,-1 9.5,-1 10,0 27,4 21,3 38,3 24,0 39,-6 10,-6 18,-6 9,0 16,6 7,7 7,11 0,2 -4,2 -15,0 -30.5,36 -15.5,36 -23.5,86 l -10,52 27,-7 q 6,-2 36.5,-7 30.5,-5 78.5,-13.5 48,-8.5 109,-19 61,-10.5 113,-19.5 83,-15 142,-26 59,-11 102.5,-20 43.5,-9 68.5,-14.5 25,-5.5 25,-5.5 0,0 0,0 -2,-3 -44,-12.5 -42,-9.5 -103.5,-24 -61.5,-14.5 -135,-30 -73.5,-15.5 -141,-30 -67.5,-14.5 -118.5,-24 -51,-9.5 -78,-12.5 -24,-3 -47,-3 -29,0 -67.5,6 -38.5,6 -53.5,27 -6,7 -16.5,14 -10.5,7 -20.5,8 -32,5 -48.5,68 -16.5,63 -19.5,231 -1,30 -2,75.5 -1,45.5 -2,50.5 0,1 -1,1 -2,0 -4.5,-12 -2.5,-12 -5.5,-36 -3,-24 -5,-52.5 -2,-28.5 -2,-52.5 0,-34 -4.5,-74 -4.5,-40 -12,-75 -7.5,-35 -16.5,-63 -9,-28 -20,-41 -18,-28 -18,-35 0,-1 0.5,-2.5 0.5,-1.5 7.5,-1.5 8,0 21,3 13,3 20.5,3 7.5,0 8.5,-5.5 1,-5.5 1,-8.5 0,-8 -3,-21 -3,-13 -9,-31 -9,-32 -19,-51.5 -10,-19.5 -20,-28.5 -8,-7 -14,-7 -3,0 -7.5,3 -4.5,3 -20.5,28 -35,53 -36,71.5 -1,18.5 -1,20.5 0,32 25,48 9,7 21,18.5 12,11.5 19,21.5 6,9 8,13.5 2,4.5 2,7.5 0,4 -2.5,10.5 -2.5,6.5 -11,18.5 -8.5,12 -17.5,22 -45,59 -52.5,75 -7.5,16 -7.5,22 0,8 6,11 6,6 6,11 0,2 -1,4 -1,1 -1,2 0,4 11,15.5 11,11.5 27,24.5 21,20 34.5,35 13.5,15 13.5,22 0,4 -3,4 -9,0 -42,-29 -40,-39 -77,-58 -37,-19 -76,-25 l -40,-6 40,-22 q 21,-12 49,-31.5 28,-19.5 53.5,-40.5 25.5,-21 43.5,-39 18,-18 19,-26 0,-1 0,-3 0,-8 -11,-21 -11,-13 -30,-26.5 -19,-13.5 -42,-24 -23,-10.5 -49,-12.5 -8,-1 -16,-1 -4,0 -12.5,0.5 -8.5,0.5 -8.5,3.5 0,3 6.5,14.5 6.5,11.5 18.5,23.5 22,25 22,33 0,2 -1.5,2.5 -1.5,0.5 -2.5,0.5 -11,0 -42,-29 -36,-34 -63,-47 -27,-13 -63,-13 -25,0 -25.5,3 -0.5,3 -0.5,4 0,6 23,26 21,15 33.5,34 12.5,19 12.5,25 0,3 -2,4 -1,1 -2,1 -4,0 -16,-11 Q 493,943 482,933 455,907 440,896.5 425,886 410,881 395,876 384.5,875.5 374,875 370,875 q -13,0 -30,2 l -38,3 45,45 q 36,35 41.5,46.5 5.5,11.5 5.5,14.5 0,4 -4,4 -3,0 -7,-2 -4,-1 -8,-1 -17,0 -34.5,21 -17.5,21 -36.5,60 -26,49 -26,78 0,3 1.5,19.5 1.5,16.5 22.5,17.5 8,0 8,2 0,1 -5,4 -3,1 -3,5 0,11 32,45 25,27 33,41 8,14 8,19 0,4 -4,4 -1,0 -23,-20 -22,-20 -40,-38 -55,-54 -76,-68.5 -21,-14.5 -42,-14.5 -9,0 -19.5,-2 -10.5,-2 -12.5,-5 0,0 0,-1 0,-5 20.5,-25.5 20.5,-20.5 57.5,-51.5 12,-11 28.5,-26 16.5,-15 30,-28.5 Q 308,1009 318,998 q 10,-11 14,-17 l 21,-30 -45,-30 Q 281,901 261.5,895 242,889 212,889 h -52 l 78,-73 q 34,-30 71.5,-67 37.5,-37 58.5,-58 z m 536,78 q 1,-3 1,-6 0,-14 -28,-18 -7,-1 -12,-1 -12,0 -13.5,3.5 -1.5,3.5 -1.5,6.5 0,11 10,41 12,39 16,40.5 4,1.5 4,1.5 7,0 15,-33 0,0 0,0 v -1 q 0,-1 0,-3 l 1,-1 q 0,-1 0,-3 l 1,-1 q 1,-4 2,-9 3,-12 5,-17 z m 174,18 q -15,-13 -24,-20 -9,-7 -11.5,-7.5 -2.5,-0.5 -2.5,-0.5 -4,0 -7,5 -3,5 -8,20 -1,8 -4,20 -2,5 -3,9 v 1 q 0,2 -1,3 v 1 q 0,2 -1,3 v 1 q 0,0 0,0 -2,6 -2,10 0,3 1.5,3.5 1.5,0.5 3.5,0.5 5,0 15,-2 12,-3 27,-5.5 15,-2.5 26,-5.5 l 25,-4 z m -786,36 q 7,-17 7,-23 0,-5 -2,-5 -8,0 -35,28 -27,29 -28,34 -1,5 -1,6 0,5 8,5 2,0 6,-1 15,-2 24.5,-11.5 Q 281,846 292,823 Z m 270,-9 q 3,-7 3,-11 0,-4 -4,-4 -1,0 -7.5,1.5 Q 547,802 526,823 l -24,26 h 27 q 12,0 19.5,-3 7.5,-3 7.5,-8 0,-3 1.5,-9.5 Q 559,822 562,814 Z m -131,6 q 3,-8 3,-12 0,-4 -2,-4.5 -2,-0.5 -2,-0.5 -7,0 -29,23 -15,17 -15,20 0,3 11,3 25,0 34,-29 z m 281,3 q 3,-8 3,-12 0,-5 -4,-5 -7,0 -35,28 l -24,27 24,-5 q 12,-1 21,-8.5 9,-7.5 15,-24.5 z m 193,111 q 3,-9 3,-15 0,-5 -3.5,-7.5 Q 901,909 878,909 h -36 l 17,51 q 13,43 17,45.5 4,2.5 5,2.5 6,0 14,-30 1,-8 4,-22 3,-14 6,-22 z m 171,20 q -15,-3 -24.5,-3.5 -9.5,-0.5 -12.5,-0.5 -8,0 -8,2 0,2 6,17 6,15 14,36 11,29 19,29 7,0 12,-17 3,-6 8.5,-22.5 5.5,-16.5 5.5,-24 0,-7.5 -4,-10.5 -4,-3 -16,-6 z m -522,90 q 24,-23 40,-34 16,-11 19,-11 1,0 1,1 1,1 1,2 0,5 -8,19 -8,14 -17,27 -18,27 -24.5,43 -6.5,16 -6.5,30 0,1 0.5,9 0.5,8 9.5,23 9,15 30,39 28,32 28,39 0,2 -1,2.5 -1,0.5 -2,0.5 -8,0 -41,-30 -29,-25 -52,-40 -23,-15 -53,-23 -23,-4 -25,-6.5 -2,-2.5 -2,-3.5 0,-5 16,-15 15,-11 40.5,-32 25.5,-21 46.5,-40 z m -123,-3 q 15,-15 29.5,-27 14.5,-12 17.5,-12 2,-1 3,-1 5,0 5,5 0,2 -2,9.5 -2,7.5 -20,28.5 -25,33 -32.5,52.5 -7.5,19.5 -7.5,29.5 0,12 7,20 4,4 4,5 0,1 -2,1 -3,0 -3,2 0,3 6.5,12.5 6.5,9.5 23.5,27.5 31,34 31,44 0,2 -1,3 -1,1 -3,1 -8,0 -35,-26 -22,-22 -47,-38.5 -25,-16.5 -46,-24.5 l -46,-18 37,-27 q 17,-10 40,-29.5 23,-19.5 41,-37.5 z m 270,49 q 1,-6 1,-10 0,-7 -1.5,-7.5 -1.5,-0.5 -2.5,-0.5 -6,0 -27,17 -22,19 -22,26 0,7 16,7 30,0 36,-32 z m -444,33 q 8,-21 8,-30 0,-7 -5,-7 -9,0 -39,31 -13,15 -14,17.5 -1,2.5 -1,2.5 0,4 17,10 11,4 17,4 4,0 7,-2.5 3,-2.5 10,-25.5 z m 276,-9 q 3,-7 3,-11 0,-4 -2.5,-6 -2.5,-2 -3.5,-2 -6,0 -13,10 -7,9 -7,14 0,4 4,7 2,2 5,2 2,0 6,-1.5 4,-1.5 8,-12.5 z m -129,-3 q 0,-9 -3.5,-9 -3.5,0 -21.5,14 -15,12 -15,13 0,0 0.5,1 0.5,1 17.5,2 22,0 22,-21 z m 609,21 q -7,-1 -22,-3.5 -15,-2.5 -23,-2.5 -4,0 -9.5,1 -5.5,1 -5.5,6 0,5 6,29 5,17 8.5,32 3.5,15 7,16 3.5,1 5.5,1 5,0 13,-6.5 8,-6.5 26,-22.5 32,-29 33.5,-32 1.5,-3 1.5,-4 0,-6 -41,-14 z"
     id="path1" />
</svg>
