<?xml version="1.0" encoding="UTF-8" standalone="no"?>
<svg
   width="2000"
   height="2000"
   version="1.1"
   id="svg1"
   sodipodi:docname="NUMUN2.liga.svg"
   inkscape:version="1.3.2 (091e20e, 2023-11-25)"
   xmlns:inkscape="http://www.inkscape.org/namespaces/inkscape"
   xmlns:sodipodi="http://sodipodi.sourceforge.net/DTD/sodipodi-0.dtd"
   xmlns="http://www.w3.org/2000/svg"
   xmlns:svg="http://www.w3.org/2000/svg">
  <defs
     id="defs1" />
  <sodipodi:namedview
     id="namedview1"
     pagecolor="#505050"
     bordercolor="#eeeeee"
     borderopacity="1"
     inkscape:showpageshadow="0"
     inkscape:pageopacity="0"
     inkscape:pagecheckerboard="0"
     inkscape:deskcolor="#505050"
     inkscape:zoom="0.379"
     inkscape:cx="1000"
     inkscape:cy="998.68074"
     inkscape:window-width="1392"
     inkscape:window-height="1212"
     inkscape:window-x="0"
     inkscape:window-y="0"
     inkscape:window-maximized="0"
     inkscape:current-layer="svg1" />
  <path
     d="m 999,647.5 q 7,-12 16,-12 6,0 6,5 0,9 -22,36 -15,18 -30,40.5 -15,22.5 -26.5,44 -11.5,21.5 -19,40.5 -7.5,19 -7.5,37 0,21 8,21 5,0 5,8 0,3 -1,8 -1,2 -1,4 0,5 6.5,15 6.5,10 18.5,23 l 30,29 35,-27 q 24,-19 35,-19 1,0 4.5,0.5 3.5,0.5 3.5,4.5 0,3 -4,9 -8,12 -9,23 -1,11 -1,18 0,8 1,19.5 1,11.5 5,26 4,14.5 11,26.5 9,13 30,38 21,25 43,48 22,23 40,39.5 18,16.5 25,16.5 8,0 12,11 6,13 28.5,26 22.5,13 55.5,23.5 33,10.5 72,18 39,7.5 77,8.5 21,2 57,2 36,0 66,-2 l 70,-1 v -164 q 0,-93 -3,-142.5 -3,-49.5 -12,-82.5 l -13,-58 -108,4 q -102,5 -166.5,14 -64.5,9 -99.5,25 l -34,15 v -64 q 1,-26 2.5,-43 1.5,-17 3.5,-17 0,0 0,0 27,15 62,27 35,12 76.5,18.5 41.5,6.5 71.5,8 30,1.5 47,1.5 34,0 76,-3 13,-1 36.5,-3.5 23.5,-2.5 23.5,-3.5 1,-1 1,-3 0,-4 -3.5,-14 -3.5,-10 -12.5,-30 -6,-13 -11.5,-26 -5.5,-13 -5.5,-14 0,-1 10,-1 6,0 21.5,0.5 15.5,0.5 44,2.5 28.5,2 53,4.5 24.5,2.5 26.5,3.5 1,1 1,3 0,2 -4,6 -14,9 -29,38.5 -15,29.5 -22,62.5 -5,16 -7,35.5 -2,19.5 -3.5,50.5 -1.5,31 -2.5,73.5 -1,42.5 -1,168.5 v 8 q 0,1 0,1 v 4 q 0,1 0,1 v 2 q 0,1 0,1 v 31 q 0,2 0,3 0,42 -1.5,61 -1.5,19 -4,20.5 -2.5,1.5 -4.5,1.5 -2,0 -6,-2 -11,-7 -44,-7 -33,0 -94,4 -137,9 -202,25 -65,16 -91,41 l -18,21 -63,-60 q -24,-22 -44,-38 -20,-16 -41,-25.5 -21,-9.5 -45,-15 -24,-5.5 -54,-6.5 -17,-3 -28,-4.5 -11,-1.5 -13,-4.5 -1,-1 -1,-1 0,-3 8,-9.5 8,-6.5 23,-16.5 l 35,-23 -41,-46 q -33,-38 -78,-62 -45,-24 -99,-36 -10,-1 -23.5,-3.5 -13.5,-2.5 -18.5,-3.5 -3,-1 -5,-1 -7,0 -9,9.5 -2,9.5 -2,55.5 v 71 h 28 q 15,0 31.5,-7.5 16.5,-7.5 39.5,-24.5 31,-22 41,-22 5,0 5,5 0,4 -3,11 -3,8 -6,20 -1,5 -2,9 l -1,1 q 0,2 0,3 l -1,1 q 0,2 0,3 v 1 q 0,0 0,0 -1,7 -1,14 0,7 2.5,16 2.5,9 16,24.5 13.5,15.5 37.5,37.5 24,22 51,46 30,25 40.5,36.5 10.5,11.5 10.5,15.5 0,1 -1,2 0,0 -1,0 -5,0 -26,-15 -21,-15 -45,-36 -29,-27 -49,-40.5 -20,-13.5 -39,-22.5 -19,-9 -41.5,-13.5 -22.5,-4.5 -52.5,-6.5 l -30,-3 -3,41 q -3,41 -9,41 -1,0 -5.5,-5 -4.5,-5 -4.5,-56 v -60 h -77 v 60 q 0,26 -2,43 -2,17 -7,17 -3,0 -6,-17 -3,-17 -3,-43 v -60 h -76 v 60 q 0,26 -3,43 -3,17 -6,17 -3,0 -6,-17 -3,-17 -3,-47 0,-21 -1.5,-38.5 -1.5,-17.5 -6.5,-17.5 -4,0 -26,7 -22,7 -47.5,16.5 -25.5,9.5 -50,20 -24.5,10.5 -41.5,19.5 -25,13 -33,13 -2,0 -4,-0.5 -2,-0.5 -2,-5.5 0,-5 3,-14 6,-17 8.5,-41 2.5,-24 2.5,-49 v -60 l 39,30 q 64,48 132,48 h 27 v -47 q 0,-18 -6,-48 -6,-30 -15,-61 -6,-18 -11,-32.5 -5,-14.5 -5,-19.5 0,-2 1,-2 1,-3 8,-3 1,0 6,0.5 5,0.5 17,2.5 l 27,4 -6,-78 -49,18 q -21,8 -44.5,19 -23.5,11 -35.5,19 l -33,21 v -86 q 0,-36 2.5,-61.5 2.5,-25.5 8.5,-25.5 4,0 16,14 21,24 54,39.5 33,15.5 57,15.5 h 27 l -3,-42 q -3,-16 -9.5,-39.5 -6.5,-23.5 -15.5,-42.5 -6,-11 -10,-22 -4,-11 -4,-13 0,-1 0,-1 2,-2 24.5,-2.5 22.5,-0.5 54.5,-0.5 h 5 q 2,0 4,0 h 9 q 1,0 2,0 h 2 q 1,0 2,0 h 2 q 1,0 3,0 h 2 q 1,0 2,0 h 26 q 2,0 5,0 h 6 q 37,0 69.5,0.5 32.5,0.5 55,1.5 22.5,1 23.5,2 0,1 0,3 0,8 -13,21 -17,17 -20.5,31 -3.5,14 -3.5,55 0,18 0.5,29 0.5,11 3,17 2.5,6 7,7.5 4.5,1.5 13.5,3.5 23,3 23,10 0,0 -0.5,4 -0.5,4 -25.5,4 h -26 l 2,49 q 0,7 0,14 0,14 -1.5,31 -1.5,17 -7.5,26 l -11,19 38,-19 q 16,-8 38,-21.5 22,-13.5 41,-28.5 23,-18 35,-23 12,-5 17,-5 4,0 4,4 0,2 -2.5,10 -2.5,8 -3.5,14 -8,23 -8,42 0,16 8.5,38 8.5,22 59.5,78 18,19 37.5,38 19.5,19 25.5,19 6,0 27,-18 19,-14 29,-16 10,-2 12,-2 5,0 5,3 0,2 -4,6 -8,7 -11,20 -3,13 -3,29 0,14 1.5,22 1.5,8 8.5,18 7,10 20.5,22.5 13.5,12.5 28.5,27.5 34,32 56,50 22,18 25,18 3,0 6.5,-12 3.5,-12 7.5,-28 4,-16 7,-32.5 3,-16.5 3,-20.5 0,-9 -22,-35.5 -22,-26.5 -55,-62.5 -24,-24 -41,-40.5 -17,-16.5 -30.5,-27 -13.5,-10.5 -27,-16.5 -13.5,-6 -33.5,-13 -27,-9 -51,-15 -24,-6 -39,-6 -18,0 -18,-8 0,-1 1.5,-6.5 1.5,-5.5 31.5,-20.5 15,-7 25,-14.5 10,-7.5 10,-10.5 0,-3 -16,-19 -16,-16 -31,-29 -36,-35 -57.5,-49 -21.5,-14 -48.5,-22 l -48,-13 43,-23 q 20,-12 50.5,-33 30.5,-21 61.5,-44 31,-23 54,-42.5 23,-19.5 31,-33.5 z m 171,-1 q 4,-9 7,-9 2,0 3,4 1,3 1,6 0,5 -2.5,12.5 -2.5,7.5 -13.5,20.5 -9,14 -22.5,35 -13.5,21 -26,41 -12.5,20 -21,36 -8.5,16 -9.5,22 -3,7 -3,15 0,17 15,46.5 15,29.5 48,68.5 71,78 71,98 0,2 -2,4 -2,2 -4,2 -5,0 -13,-12 -6,-9 -24,-31.5 -18,-22.5 -39.5,-47.5 -21.5,-25 -43.5,-46.5 -22,-21.5 -32,-30.5 -15,-12 -36,-22.5 -21,-10.5 -47,-18.5 -34,-9 -34.5,-12 -0.5,-3 -0.5,-3 0,-7 29,-22 27,-14 58,-35.5 31,-21.5 60,-45 29,-23.5 51.5,-43 22.5,-19.5 30.5,-32.5 z m -650,58 q 5,-10 5,-13 0,-1 -1,-2 -1,-1 -16,-1 -16,0 -17,1 -1,1 -1,2 0,3 5,13 3,8 6.5,13 3.5,5 6.5,5 2,0 5.5,-5 3.5,-5 6.5,-13 z m 198,0 q 5,-10 5,-13 0,-1 -1,-2 -1,-1 -16,-1 -16,0 -17,1 -1,1 -1,2 0,3 5,13 3,8 6.5,13 3.5,5 6.5,5 2,0 5.5,-5 3.5,-5 6.5,-13 z m -94,-7 q 0,-9 -23,-9 -13,0 -14.5,2 -1.5,2 -1.5,4 0,4 4,12 6,10 8.5,11 2.5,1 3.5,1 4,0 11,-6 12,-8 12,-15 z m -44,27 q -6,-17 -12,-26.5 -6,-9.5 -7,-9.5 -5,0 -15,12 -15,16 -18,31 -3,15 -3,50 v 57 l 37,3 36,1 v -40 q 0,-17 -5,-40 -5,-23 -13,-38 z m 96,-11 q -10,-22 -14,-23.5 -4,-1.5 -5,-1.5 -7,0 -17,15 -21,31 -21,84 v 51 l 42,3 42,1 -3,-45 q -3,-19 -8,-41.5 -5,-22.5 -16,-42.5 z m 1013,9 h -93 l 18,42 q 7,18 11.5,36 4.5,18 4.5,26 0,12 5.5,14 5.5,2 7.5,2 5,0 5,-7 0,-8 6,-26 6,-18 15,-39 z m -602,51 q 6,-12 11.5,-23.5 5.5,-11.5 5.5,-14.5 0,-1 0,-1 -2,0 -19,12 -17,12 -43,30 l -60,44 35,15 q 31,15 38.5,15 7.5,0 7.5,-12 0,-11 6,-27.5 6,-16.5 18,-37.5 z m -166,-10 q 4,-8 8,-16 4,-8 4,-10 0,-1 0,-1 0,0 -1,0 -4,0 -20.5,11 -16.5,11 -40.5,29 l -60,44 38,13 q 28,12 39,12 2,0 7,-2 5,-2 5,-20 0,-14 5,-29 5,-15 16,-31 z m 369,31 q -41,-11 -52,-11 -1,0 -6,0.5 -5,0.5 -8,21.5 -2,4 -2,9.5 0,5.5 -1,8.5 0,0 0,1 0,0 0,0 0,0 0,1 0,0 0,0 0,1 0,1 0,0 0,1 v 3 q 0,1 3,1 4,0 17,-2.5 13,-2.5 37,-10.5 l 54,-13 z m -879,38 q -20,-11 -34,-17.5 -14,-6.5 -16,-6.5 -3,0 -3.5,13.5 -0.5,13.5 -0.5,28.5 0,27 2,38.5 2,11.5 4,11.5 0,0 1,-1 3,-1 17.5,-8 14.5,-7 33.5,-14 l 44,-21 z m 852,57 q -6,-15 -6,-22 0,-5 6,-6.5 6,-1.5 34,-1.5 27,0 43,2 16,2 16,7 0,3 -6,15 -6,12 -14,25 -6,11 -10.5,21.5 -4.5,10.5 -6,27.5 -1.5,17 -2,46.5 -0.5,29.5 -0.5,72.5 0,62 -1.5,103 -1.5,41 -3.5,41 -3,0 -6,-34.5 -3,-34.5 -4,-83.5 -2,-44 -4,-73 -2,-29 -6.5,-53 -4.5,-24 -13,-47.5 -8.5,-23.5 -15.5,-39.5 z m -563,-30 h -85 v 73 l 91,5 z m -103,0 h -77 v 73 l 83,3 z m 727,34 q 3,-6 3,-9 0,-3 -3,-5 -3,-2 -21,-2 -16,0 -19,2 -3,2 -3,5 0,3 3,9 1,5 4,13 3,8 5,16 6,15 10,15 6,0 12,-15 2,-8 5,-16 3,-8 4,-13 z m -483,60 q 1,-5 1,-8 0,-6 -3,-6 -1,0 -4.5,1 -3.5,1 -26.5,16 -40,27 -40,40 0,6 10,8 9,3 31,11.5 22,8.5 29,11.5 8,2 12,2 2,0 2.5,-0.5 0.5,-0.5 0.5,-1.5 0,-3 -4,-15 -6,-18 -7,-29 -1,-11 -1,-19 0,-5 0,-11 z m 189,33 q -1,-18 -2.5,-32 -1.5,-14 -3.5,-14 0,0 -1,0 -3,0 -14.5,6.5 -11.5,6.5 -26.5,18 -15,11.5 -27.5,21 -12.5,9.5 -12.5,14.5 0,6 13,6 11,0 24.5,3.5 13.5,3.5 25.5,8.5 l 31,13 z m -519,-25 q 0,-8 -18,-8 -19,0 -19.5,5 -0.5,5 -0.5,6 0,9 7,21 5,8 8,8 1,0 4,-2 3,-2 7.5,-7 4.5,-5 8,-12 3.5,-7 3.5,-11 z m 96,-2 q 0,-3 -6.5,-4.5 -6.5,-1.5 -15.5,-1.5 -18,0 -19.5,4 -1.5,4 -1.5,5 0,8 12,23 6,11 10,11 0,0 1.5,-0.5 1.5,-0.5 10.5,-15.5 9,-16 9,-21 z m 86,15 q 5,-10 5,-15 0,-1 -1,-3.5 -1,-2.5 -13,-2.5 -22,0 -22,12 0,4 2,9 3,9 3,17 0,7 4,7 2,0 7.5,-3 5.5,-3 14.5,-21 z m -35,42 q -12,-45 -16.5,-51 -4.5,-6 -6.5,-6 -6,0 -13,12 -18,29 -22,99 l -5,74 h 80 v -32 q 0,-12 -4,-37.5 -4,-25.5 -13,-58.5 z m -94,-9 q -12,-39 -16.5,-43 -4.5,-4 -6.5,-4 -6,0 -13,11 -18,29 -23,99 l -4,74 h 79 v -42 q 0,-17 -3.5,-41 -3.5,-24 -12.5,-54 z m -228,116 q -6,-5 -13.5,-9.5 -7.5,-4.5 -10.5,-4.5 -2,0 -5,14.5 -3,14.5 -4.5,31 -1.5,16.5 -1.5,31.5 0,15 2,16 0,1 3,1 3,0 13.5,-3.5 10.5,-3.5 26.5,-10.5 17,-8 34,-14.5 17,-6.5 20,-8.5 14,-5 14,-7 0,-1 -1.5,-2 -1.5,-1 -15.5,-6 -18,-4 -33,-11 -15,-7 -28,-17 z m 472,70 q 2,-1 2,-5 0,-3 -1,-9.5 -1,-6.5 -4,-18.5 l -4,-31 -75,52 40,8 q 17,3 26,4 9,1 12,1 4,0 4,-1 z m 221,17 q 1,-2 1,-11.5 0,-9.5 -1,-23.5 l -5,-33 -37,29 -39,28 39,6 q 15,3 24.5,4 9.5,1 13.5,1 3,0 4,0 z m -311,-47 q 0,-3 -9,-3 -16,0 -16,9 0,5 5,5 4,0 11,-3 9,-5 9,-8 z m 599,93 q -21,-7 -42,-14 -21,-7 -32,-13 -8,-5 -12,-5 -1,0 -3.5,1 -2.5,1 -8.5,30 -3,18 -5,33.5 -2,15.5 -2,21.5 0,5 1,5 2,0 13,-4.5 11,-4.5 23,-9.5 20,-9 42.5,-15 22.5,-6 38.5,-9 l 38,-7 z"
     id="path1" />
</svg>
