<?xml version="1.0" encoding="UTF-8" standalone="no"?>
<svg
   width="2000"
   height="2000"
   version="1.1"
   id="svg1"
   sodipodi:docname="SZExSUHUR.liga.svg"
   inkscape:version="1.3.2 (091e20e, 2023-11-25)"
   xmlns:inkscape="http://www.inkscape.org/namespaces/inkscape"
   xmlns:sodipodi="http://sodipodi.sourceforge.net/DTD/sodipodi-0.dtd"
   xmlns="http://www.w3.org/2000/svg"
   xmlns:svg="http://www.w3.org/2000/svg">
  <defs
     id="defs1" />
  <sodipodi:namedview
     id="namedview1"
     pagecolor="#505050"
     bordercolor="#eeeeee"
     borderopacity="1"
     inkscape:showpageshadow="0"
     inkscape:pageopacity="0"
     inkscape:pagecheckerboard="0"
     inkscape:deskcolor="#505050"
     inkscape:zoom="0.379"
     inkscape:cx="1000"
     inkscape:cy="998.68074"
     inkscape:window-width="1392"
     inkscape:window-height="1212"
     inkscape:window-x="0"
     inkscape:window-y="0"
     inkscape:window-maximized="0"
     inkscape:current-layer="svg1" />
  <path
     d="m 633,637 3,17 q 0,7 -2,17 -2,10 -8,19 -3,6 -10.5,21.5 Q 608,727 600,744 l -15,39 15,36 q 8,15 20,31.5 12,16.5 22,25.5 l 26,21 24,-23 q 16,-16 17,-19 1,-3 1,-4 0,-5 -11,-11 -6,-5 -17,-11 -11,-6 -23,-9 -30,-10 -30.5,-13 -0.5,-3 -0.5,-4 0,-6 22,-22 13,-9 32,-25.5 Q 701,739 719,722 737,705 750.5,690.5 764,676 767,667 q 3,-4 5,-4 1,0 2,1 1,2 1,6 0,5 -2.5,14.5 -2.5,9.5 -16.5,36.5 -7,17 -14.5,35 -7.5,18 -10,28 -2.5,10 -2.5,17 0,3 1,9 1,6 7,13 4,8 8,17 4,9 4,13 0,5 9.5,17 9.5,12 23.5,24 l 34,31 29,-22 q 19,-15 29,-23.5 10,-8.5 10,-15 0,-6.5 -8.5,-14 Q 867,843 852,832 833,819 813.5,808.5 794,798 776,793 q -19,-4 -19,-10 0,-5 14,-12 14,-6 33.5,-19.5 Q 824,738 842.5,723 861,708 876,694.5 891,681 893,675 q 2,-4 4,-4 2,0 3,1 2,1 2,5 0,5 -6,18 -6,13 -18,34 l -27,51 12,28 q 6,12 14,22.5 8,10.5 16,13.5 6,4 12,4 4,0 9.5,-5 5.5,-5 14.5,-20 11,-17 16,-17 1,0 2,1 2,1 2,4 0,3 -2.5,9 -2.5,6 -10.5,20 -6,7 -19.5,30.5 Q 903,894 890,918 q -9,18 -15,30.5 -6,12.5 -9,22.5 -3,10 -3.5,16 -0.5,6 -0.5,9 0,7 1,16 4,35 18,45 6,3 7.5,5.5 1.5,2.5 1.5,3.5 0,0 0,0 -1,0 -1,1 0,4 11,18 11,14 33,40 36,40 48.5,59 12.5,19 12.5,26 0,2 -1,3 -1,1 -2,1 -5,0 -14,-13 -12,-16 -42,-51.5 -30,-35.5 -57,-62.5 -27,-28 -31.5,-30 -4.5,-2 -6.5,-2 -6,0 -12,8 -6,6 -12,19.5 -6,13.5 -11,28 -5,14.5 -8,28 -3,13.5 -3,20.5 0,9 4.5,22 4.5,13 10.5,25.5 6,12.5 13.5,22.5 7.5,10 11.5,11 5,2 19,17 14,15 28.5,33 14.5,18 26.5,33.5 12,15.5 12,18.5 0,1 -1,1 -3,0 -23,-18.5 -20,-18.5 -54,-52.5 -21,-23 -40,-40 -19,-17 -35.5,-29 -16.5,-12 -33.5,-19.5 -17,-7.5 -34,-13.5 -16,-5 -16,-8 0,0 0.5,-1.5 0.5,-1.5 14.5,-10.5 7,-4 17,-11.5 10,-7.5 17,-13.5 l 17,-17 -20,-21 q -9,-7 -17,-14 -8,-7 -11,-7 -5,0 -14.5,13.5 -9.5,13.5 -21.5,36.5 -15,27 -16.5,33.5 -1.5,6.5 -1.5,9.5 0,8 6,18 0,1 0,1 0,1 0,2 h 1 q 0,1 0,1 0,1 1,2 v 1 q 0,0 0,0 0,1 1,2 0,1 0,1 1,1 1,2 0,1 0,1 h 1 q 0,1 0,2 h 1 q 3,8 3,11 1,3 17.5,20 16.5,17 34.5,34 30,27 41,41 11,14 11,18 0,2 -1,2 -1,0 -1,0 -8,0 -27,-19 -14,-17 -36.5,-36.5 Q 678,1243 654,1225 630,1207 608.5,1193.5 587,1180 564,1174 q -21,-4 -22,-7.5 -1,-3.5 -1,-3.5 0,-6 17,-13 11,-4 23,-11 12,-7 21,-14 l 21,-18 -30,-29 q -22,-21 -34,-21 -2,0 -9,2.5 -7,2.5 -28,44.5 -6,13 -10.5,24.5 -4.5,11.5 -5.5,12.5 -1,2 -1,4 0,11 20.5,40.5 20.5,29.5 59.5,66.5 17,17 30,30.5 13,13.5 13,18.5 0,0 -1,1 0,1 -1,1 -3,0 -19,-12.5 -16,-12.5 -40,-36.5 -91,-86 -144,-95 -10,-3 -17.5,-5 -7.5,-2 -7.5,-5 0,-2 9.5,-8 9.5,-6 17.5,-10 18,-11 39.5,-26 21.5,-15 38.5,-31 l 40,-38 -30,-25 q -12,-12 -30,-22 -18,-10 -39,-14 -21,-6 -23.5,-9.5 -2.5,-3.5 -2.5,-5.5 0,-5 14,-12 9,-5 26.5,-16 Q 476,921 494,906.5 512,892 528.5,878 545,864 554,855 q 11,-13 11,-22 0,-3 -4,-9.5 -4,-6.5 -45,-21.5 l -39,-13 18,-12 q 15,-9 37,-28 22,-19 42,-37.5 20,-18.5 36,-35 16,-16.5 17,-22.5 z m 399,41 q 0,-7 4,-7 1,0 5.5,2 4.5,2 8.5,15 5,18 26,43 21,25 55.5,55.5 34.5,30.5 81,66 46.5,35.5 104.5,74.5 26,16 47,29.5 21,13.5 24,13.5 4,0 22,-12.5 18,-12.5 39,-30.5 21,-18 41.5,-36 20.5,-18 32.5,-32 10,-12 14,-12 3,0 3,2 0,2 0,3 0,11 -20,36 -18,24 -31.5,48.5 -13.5,24.5 -21,46.5 -7.5,22 -8.5,31 -1,9 -1,11 0,12 8,16 6,3 6,9 0,10 19.5,32.5 19.5,22.5 50.5,51.5 26,24 43,44 17,20 17,24 0,1 0,1 0,0 -1,0 -5,0 -23,-15 -18,-15 -40,-38 -26,-24 -48.5,-43.5 -22.5,-19.5 -42,-35 -19.5,-15.5 -33.5,-25.5 -14,-10 -19,-10 -1,0 -32,20.5 -31,20.5 -67,45.5 -34,23 -59.5,41 -25.5,18 -49.5,37.5 -24,19.5 -49,42.5 -25,23 -68,65 -29,27 -51.5,49 -22.5,22 -29,24 -6.5,2 -8.5,2 -6,0 -8,-9.5 -2,-9.5 -4,-33.5 0,-12 -5,-26.5 -5,-14.5 -13,-23.5 -14,-22 -14,-29 0,-1 1,-4 1,-3 16,-3 2,0 5,0 7,1 14,1 68,0 185,-67 27,-15 62.5,-36.5 35.5,-21.5 67,-42 31.5,-20.5 52.5,-35.5 21,-15 21,-18 0,-4 -21,-12 l -21,-7 24,-14 q 10,-6 17.5,-11 7.5,-5 7.5,-8 0,-3 -24,-21 -24,-18 -56,-39 -32,-21 -65,-41.5 Q 1190,862 1163,849 1125,831 1072,811.5 1019,792 978,786 971,784 960.5,782.5 950,781 950,780 q 6,-6 12,-14 7,-6 14.5,-14 7.5,-8 15.5,-16 16,-16 28,-32 12,-16 12,-26 z m 93,133 q 0,0 0,-1 0,-2 -12,-16 -12,-14 -33,-35 l -45,-50 -24,30 q -21,26 -22,29 -1,3 -1,3 0,4 10,4 10,0 30.5,6 20.5,6 47.5,15 16,6 30,11 14,5 17,5 2,0 2,-1 z M 590,733 q 2,-5 2,-7 0,-2 -2,-2 -5,0 -17,9 -12,9 -24.5,20.5 -12.5,11.5 -21.5,20 -9,8.5 -9,11.5 0,1 0,1 3,1 10.5,4 7.5,3 15.5,7 8,4 15.5,6 7.5,2 9.5,2 7,0 10,-28 2,-12 4,-23.5 2,-11.5 7,-20.5 z m 132,32 q 7,-19 7,-24 0,-2 -1,-2 -3,0 -14.5,8.5 Q 702,756 690,767 q -12,11 -21.5,20 -9.5,9 -9.5,12 0,2 6,5 6,3 13.5,6 7.5,3 15.5,6 8,3 14,3 2,1 3,1 3,0 3,-5 0,-2 -1,-5 -1,-4 -1,-9 0,-6 2.5,-15 2.5,-9 7.5,-21 z m 121,4 q 9,-20 9,-26 0,-1 -1,-2 0,-1 -1,-1 -3,0 -10,5.5 -7,5.5 -19,13.5 l -29,21 21,7 q 11,6 16,6 2,0 4.5,-2 2.5,-2 9.5,-22 z M 629,882 q -29,-30 -35,-31.5 -6,-1.5 -7,-1.5 -10,0 -30,33 -14,22 -22.5,42.5 -8.5,20.5 -8.5,37.5 0,3 1,14.5 1,11.5 17.5,30.5 16.5,19 46.5,47 l 47,45 22,-24 q 18,-16 19,-19 1,-3 1,-4 0,-5 -8,-13 -7,-9 -21.5,-18 -14.5,-9 -30,-17 -15.5,-8 -30,-13.5 Q 576,985 566,985 q -12,0 -12,-6 0,0 0.5,-3.5 0.5,-3.5 15.5,-11.5 9,-3 23.5,-12 14.5,-9 27.5,-19 l 32,-24 z m 171,49 Q 798,928 786,915.5 774,903 759,889 l -39,-31 -15,25 q -15,26 -15,35.5 0,9.5 15,26.5 12,14 12,20 0,1 -1,2 -1,1 -3,1 -3,0 -7,-2.5 -4,-2.5 -13,-13.5 -9,-10 -11,-10.5 -2,-0.5 -2,-0.5 -4,0 -11,10 -10,13 -10,22 0,9 12,24 8,12 8,16 0,1 -1,2 -1,1 -1,1 0,4 12,15 12,11 31,28 l 45,40 29,-28 q 21,-22 21,-33 0,-2 -2.5,-8.5 -2.5,-6.5 -45.5,-20.5 -17,-4 -29,-9.5 -12,-5.5 -12,-6.5 0,-3 11.5,-11.5 Q 749,973 761,966 780,954 790,944.5 800,935 800,932 Z m 165,-42 q 0,-3 11,-3 10,0 31,3 22,5 31,9.5 9,4.5 9,10.5 0,13 41.5,29.5 41.5,16.5 129.5,37.5 39,11 63,19 24,8 24,13 0,3 -24,12.5 -24,9.5 -52,18.5 -39,12 -86.5,31.5 -47.5,19.5 -81.5,36.5 -48,25 -61,29.5 -13,4.5 -18,4.5 -5,0 -7,-4 -1,-3 -1.5,-7 -0.5,-4 -0.5,-5 0,-4 2,-8 1,-2 1,-5 0,-9 -8,-25 -6,-12 -6,-17 0,-1 1,-2.5 1,-1.5 10,-1.5 3,0 7,0 5,0 8,0 11,0 12.5,-5 1.5,-5 1.5,-31 0,-34 -4.5,-47 -4.5,-13 -20.5,-13 -11,0 -11.5,-2.5 -0.5,-2.5 -0.5,-2.5 0,-5 10,-19 11,-16 11,-20.5 0,-4.5 -8,-12.5 -6,-7 -9.5,-14 -3.5,-7 -3.5,-10 z m -89,17 q 0,-4 -4,-4 -1,0 -6.5,2 -5.5,2 -14.5,12 -6,8 -20.5,19 -14.5,11 -32.5,23 -13,9 -23.5,17.5 Q 764,984 764,987 q 0,6 21,13 7,3 17,7 10,4 17,8 9,5 15,5 12,0 12,-24 0,-14 4,-29 4,-15 13,-30 4,-9 8.5,-18.5 Q 876,909 876,906 Z m -357,16 q 3,-6 3,-9 0,-3 -3,-3 -3,0 -12.5,6 -9.5,6 -20,14.5 -10.5,8.5 -19.5,15 -9,6.5 -9,9.5 0,2 5,6.5 5,4.5 13,7.5 1,1 2,1 0,0 1,0 1,1 2,1 0,0 1,0 v 1 q 1,0 2,0 v 1 q 0,0 1,0 1,0 2,1 0,0 1,0 1,0 2,1 0,0 1,0 7,3 12,3 7,0 7,-20 0,-19 9,-36 z m 498,3 q 0,-7 -7,-7 -8,0 -8,7 0,8 8,8 7,0 7,-8 z m -360,24 q 5,-13 5,-18 0,-4 -4,-4 -4,0 -34,22 l -33,24 21,9 q 21,9 30,9 9,0 9,-4 0,-1 -1,-3 -1,-2 -1,-5 0,-4 2,-11.5 2,-7.5 6,-18.5 z m 393,-9 q -3,-7 -10,-7 -8,0 -11,7 -1,1 -1,3 0,1 2,3 2,2 10,2 7,0 9.5,-2 2.5,-2 2.5,-3 0,-2 -2,-3 z m 422,-3 q 0,-4 -3,-4 -2,0 -8.5,3.5 -6.5,3.5 -30.5,23.5 -17,13 -32,24.5 -15,11.5 -22,15.5 l -18,12 39,12 q 32,11 40,11 0,0 3,-1 3,-1 3,-17 0,-14 4,-28 4,-14 14,-29 11,-14 11,-23 z m -266,51 q -42,-10 -72.5,-15.5 -30.5,-5.5 -50.5,-7 -20,-1.5 -32,-1.5 -8,0 -20,1 -12,1 -15,5 -2,5 -2,20.5 0,15.5 2,38.5 1,10 2,19 1,9 3,13 2,4 7.5,4.5 5.5,0.5 11.5,0.5 12,0 38,-5 26,-5 57.5,-12 31.5,-7 61.5,-15 30,-8 48,-14 12,-5 16.5,-7.5 4.5,-2.5 4.5,-3.5 0,-2 -3.5,-4 -3.5,-2 -20,-6.5 Q 1226,994 1206,988 Z m -144,98 q 0,-3 -10.5,-4 -10.5,-1 -25.5,-1 -27,0 -33,3 -6,3 -6,18 0,17 8,17 4,0 14.5,-4.5 10.5,-4.5 22.5,-10.5 12,-6 21,-11.5 9,-5.5 9,-6.5 z m -558,24 q 3,-7 3,-10 0,-3 -2,-3 -5,0 -22,13 -6,4 -14,10 -8,6 -11,9 -10,7 -10,14 0,10 28,16 9,3 13,3 2,0 4,-1.5 2,-1.5 2,-13.5 0,-9 2.5,-19.5 2.5,-10.5 6.5,-17.5 z m 284,3 q 6,-6 6,-9 0,-2 -2,-3 -1,-2 -3,-2 -2,0 -6,4 -4,4 -4,11 0,4 2,4 2,0 7,-5 z m -150,27 q 3,-7 3,-10 0,-5 -2.5,-5.5 -2.5,-0.5 -3.5,-0.5 -9,0 -30,16 l -29,19 21,9 q 21,8 30,8 7,0 7,-5 0,-1 -1,-3 -2,-3 -2,-7 0,-2 1,-7 1,-5 6,-14 z m 136,-2 q -3,-12 -12,-12 -4,0 -11.5,4.5 -7.5,4.5 -15,10.5 -7.5,6 -11.5,11 -4,5 -4,6 0,1 0,1 2,2 10,6.5 8,4.5 18,9 10,4.5 18,8 8,3.5 10,3.5 2,0 2,-11 0,-4 -0.5,-16 -0.5,-12 -3.5,-21 z m 282,140 q 30,-30 46,-48 16,-18 16,-21 0,0 0,0 -3,0 -16,5 -13,5 -26,11 -18,9 -39,16 -21,7 -41,10 -18,3 -23,5.5 -5,2.5 -5,6.5 0,2 1,4 3,6 5.5,18 2.5,12 3.5,26 2,13 4,22 2,9 5,9 2,0 23,-19.5 21,-19.5 46,-44.5 z"
     id="path1" />
</svg>
