<?xml version="1.0" encoding="UTF-8" standalone="no"?>
<svg
   width="2000"
   height="2000"
   version="1.1"
   id="svg1"
   sodipodi:docname="u1206F.svg"
   inkscape:version="1.3.2 (091e20e, 2023-11-25)"
   xmlns:inkscape="http://www.inkscape.org/namespaces/inkscape"
   xmlns:sodipodi="http://sodipodi.sourceforge.net/DTD/sodipodi-0.dtd"
   xmlns="http://www.w3.org/2000/svg"
   xmlns:svg="http://www.w3.org/2000/svg">
  <defs
     id="defs1" />
  <sodipodi:namedview
     id="namedview1"
     pagecolor="#505050"
     bordercolor="#eeeeee"
     borderopacity="1"
     inkscape:showpageshadow="0"
     inkscape:pageopacity="0"
     inkscape:pagecheckerboard="0"
     inkscape:deskcolor="#505050"
     inkscape:zoom="0.379"
     inkscape:cx="1000"
     inkscape:cy="998.68074"
     inkscape:window-width="1392"
     inkscape:window-height="1212"
     inkscape:window-x="0"
     inkscape:window-y="0"
     inkscape:window-maximized="0"
     inkscape:current-layer="svg1" />
  <path
     d="m 1147.5,645 q 0,-8 5,-8 2,0 5,1 8,3 33,5.5 25,2.5 55,2.5 30,2 51.5,2.5 21.5,0.5 22.5,0.5 -2,4 -4,7 -3,4 -5.5,9 -2.5,5 -6.5,10 -22,32 -36,75 -14,43 -17,85 l -4,53 h 31 q 12,0 20.5,2 8.5,2 8.5,5 0,3 -8,5 -8,2 -20,2 l -33,2 1,151 2,120 47,39 q 47,39 47,51 0,0 -0.5,6.5 -0.5,6.5 -46.5,6.5 h -47 v 22 q 0,9 -1.5,15.5 -1.5,6.5 -4.5,6.5 -3,0 -5.5,-6.5 -2.5,-6.5 -2.5,-16.5 v -22 l -114,5 q -46,2 -81.5,6 -35.5,4 -66,11 -30.5,7 -58,17.5 -27.5,10.5 -57.5,25.5 l -40,21 -1,-82 q 0,-34 1.5,-58 1.5,-24 6.5,-24 3,0 12,11 9,11 13,11 5,0 6,-21 1,-21 1.5,-53 0.5,-32 0.5,-69.5 0,-37.5 -1,-70 -1,-32.5 -2,-55 -1,-22.5 -3,-24.5 -1,-1 -5,-1 -5,0 -21,4 -16,4 -42.5,12.5 -26.5,8.5 -55,19 -28.5,10.5 -44.5,18.5 -14,7 -20,7 -3,0 -4.5,-1.5 -1.5,-1.5 -1.5,-4.5 0,-3 3,-9 8,-16 8,-56 0,-17 -1,-38 -1,-19 -1,-37.5 0,-18.5 1,-18.5 2,0 11.5,5.5 9.5,5.5 19.5,12.5 20,13 43.5,23 23.5,10 44.5,16 21,6 29,6.5 8,0.5 10,0.5 11,0 11,-6 0,-4 -5,-19.5 -5,-15.5 -11.5,-34.5 -6.5,-19 -14.5,-37 -8,-18 -14,-29 l -17,-29 h 82 q 34,0 57.5,2 23.5,2 23.5,7 0,4 -12,16 -11,11 -20,26 -9,15 -16.5,31.5 -7.5,16.5 -12,32 -4.5,15.5 -4.5,26.5 v 24 l 175,-4 q 36,-1 68,-1.5 32,-0.5 56,-1.5 24,-1 38,-1.5 14,-0.5 15,-1.5 1,-1 1,-3 0,-5 -3.5,-18.5 -3.5,-13.5 -10.5,-37.5 -7,-24 -15.5,-52 -8.5,-28 -17,-53 -8.5,-25 -15.5,-43 -7,-18 -12,-22 -4,-4 -4,-13 z m 99,19 q -20,0 -36.5,-1.5 -16.5,-1.5 -22.5,-3.5 -2,-1 -4,-1 -7,0 -7,10 0,0 0.5,7.5 0.5,7.5 11.5,31.5 8,17 14.5,37.5 6.5,20.5 10.5,37.5 4,17 8,30 4,13 6,15 0,0 1,0 2,0 6,-10.5 4,-10.5 7,-25.5 4,-19 12.5,-44 8.5,-25 17.5,-42 l 21,-41 z m -380,86 q -18,0 -33.5,-1 -15.5,-1 -23.5,-4 -3,-1 -5,-1 -3,0 -3,3 0,0 0.5,4 0.5,4 15.5,34 8,14 14.5,31 6.5,17 9.5,31 4,20 7.5,21 3.5,1 3.5,1 5,0 9,-16 3,-13 10.5,-31 7.5,-18 16.5,-34 l 21,-38 z m -154,116 q -5,-3 -16.5,-8.5 -11.5,-5.5 -12.5,-5.5 -2,0 -2,15 v 1 q 0,1 0,1 v 2 q 0,1 0,2 v 3 q 0,1 0,2 v 1 q 0,0 0,1 v 3 q 0,2 0,3 v 2 q 0,0 0,1 v 17 q 0,23 0.5,38.5 0.5,15.5 1.5,15.5 1,0 22,-6.5 21,-6.5 61,-19.5 18,-6 41.5,-13.5 23.5,-7.5 25.5,-7.5 4,-1 4,-3 0,-2 -7.5,-4.5 -7.5,-2.5 -24.5,-6.5 -21,-4 -44.5,-12 -23.5,-8 -48.5,-21 z m 458,38 q -153,4 -222.5,8 -69.5,4 -75.5,9 -4,5 -4.5,28 -0.5,23 -0.5,35 0,37 2,99 l 6,153 29,14 q 47,20 154,20 36,0 79,-2 l 97,-5 v -80 l -66,-51 -92,3 q -48,2 -76,5 -28,3 -41,10 l -25,11 20,8 q 9,4 43.5,6 34.5,2 79.5,2 46,0 72.5,2 26.5,2 26.5,5 0,4 -21.5,6 -21.5,2 -51.5,2 -34,0 -61.5,3 -27.5,3 -50,7.5 -22.5,4.5 -39.5,11 -17,6.5 -26,15.5 -7,7 -11,7 0,0 -2.5,-0.5 -2.5,-0.5 -5.5,-14.5 -3,-14 -5,-44.5 -2,-30.5 -4,-77.5 -1,-35 -1.5,-61 -0.5,-26 -0.5,-46 v -1 q 0,-1 0,-1 v -2 q 0,0 0,-1 v -3 q 0,0 0,-1 v -1 q 0,0 0,-1 v -3 q 0,0 0,-1 v -1 q 0,0 0,-1 v -14 q 0,-12 1,-13 1,-1 2,-1 2,0 7.5,3 5.5,3 12.5,10 7,7 13,10 6,3 15,5 9,2 23,3 14,1 32,2 66,3 69.5,6.5 3.5,3.5 3.5,4.5 0,5 -41,5 -68,0 -99,16 -8,5 -9,6.5 -1,1.5 -1,1.5 0,3 9,10 15,10 72,10 h 59 l 52,-44 q 22,-19 37,-34.5 15,-15.5 15,-24.5 0,-6 6,-6 4,0 6,4.5 2,4.5 2,10 0,5.5 -1.5,11 -1.5,5.5 -4.5,7.5 -3,1 -7.5,13.5 -4.5,12.5 -9,28.5 -4.5,16 -8,32 -3.5,16 -3.5,23 0,7 4,14 0,2 1,3 v 1 q 1,0 1,1 0,1 1,2 1,1 1,3 h 1 q 0,1 0,1 v 1 q 0,0 1,0 v 1 q 0,0 0,1 h 1 q 0,1 0,1 l 10,19 64,55 q 0,-3 -0.5,-22 -0.5,-19 -1.5,-45.5 -1,-26.5 -2,-57.5 -1,-31 -1.5,-59 -0.5,-28 -1.5,-49 -1,-21 -2,-28 z m -242,94 q 6,-4 6,-7 0,0 -0.5,-1.5 -0.5,-1.5 -9.5,-6.5 -9,-5 -12,-5 0,0 -1.5,0.5 -1.5,0.5 -1.5,10.5 0,12 3,13 3,1 4,1 4,0 12,-5 z m 214,14 q 3,-7 3,-11 0,-3 -3,-3 -1,0 -6.5,2 -5.5,2 -37.5,30 -25,20 -28,24 -3,4 -3,6 0,4 10,8 1,0 12,4 11,4 25,10 18,8 22,8 v -31 q 0,-12 2,-25.5 2,-13.5 4,-21.5 z m -220,30 q -6,-2 -9,-2 -1,0 -2.5,0.5 -1.5,0.5 -1.5,7.5 0,13 12,13 10,0 11.5,-3.5 1.5,-3.5 1.5,-4.5 0,-6 -12,-11 z m 102,18 q 0,-4 -7,-5 -7,-1 -13,-1 -6,0 -16,1 -10,1 -23.5,3.5 -13.5,2.5 -25.5,9.5 -15,8 -15,16 0,0 0.5,4 0.5,4 17.5,12 17,9 42,12.5 25,3.5 73,4.5 l 87,3 -18,-14 q -8,-6 -25.5,-14 -17.5,-8 -35.5,-13 -16,-5 -28.5,-10.5 -12.5,-5.5 -12.5,-8.5 z m -78,59 q 0,0 -1,0 v -1 q -1,0 -1,0 h -1 q 0,-1 0,-1 h -1 q 0,0 -1,0 v -1 q -2,0 -3,-1 -1,-1 -2,-1 -1,0 -1,-1 h -1 q -1,-1 -3,-2 -7,-3 -9,-5 0,0 -1,0 -2,0 -3.5,5.5 -1.5,5.5 -1.5,14.5 0,19 3.5,20.5 3.5,1.5 4.5,1.5 7,0 24,-9 l 18,-10 z m -8,58 q -13,-6 -18,-6 0,0 -2,1 -2,1 -2,20 0,8 0.5,14.5 0.5,6.5 3.5,6.5 2,0 8.5,-2.5 6.5,-2.5 13.5,-6.5 7,-4 12,-7.5 5,-3.5 5,-4.5 0,-2 -5,-6 -5,-4 -16,-9 z m 310,18 v 69 h 80 l -36,-33 z m -315,80 q -15,-4 -36,-12 -21,-8 -35,-16 l -33,-20 v 55 q 0,23 1,38.5 1,15.5 3,15.5 2,0 11.5,-4 9.5,-4 19.5,-10 15,-8 34.5,-15 19.5,-7 34.5,-12 l 37,-12 z"
     id="path1" />
</svg>
