<?xml version="1.0" encoding="UTF-8" standalone="no"?>
<svg
   width="2000"
   height="2000"
   version="1.1"
   id="svg1"
   sodipodi:docname="u12082.svg"
   inkscape:version="1.3.2 (091e20e, 2023-11-25)"
   xmlns:inkscape="http://www.inkscape.org/namespaces/inkscape"
   xmlns:sodipodi="http://sodipodi.sourceforge.net/DTD/sodipodi-0.dtd"
   xmlns="http://www.w3.org/2000/svg"
   xmlns:svg="http://www.w3.org/2000/svg">
  <defs
     id="defs1" />
  <sodipodi:namedview
     id="namedview1"
     pagecolor="#505050"
     bordercolor="#eeeeee"
     borderopacity="1"
     inkscape:showpageshadow="0"
     inkscape:pageopacity="0"
     inkscape:pagecheckerboard="0"
     inkscape:deskcolor="#505050"
     inkscape:zoom="0.379"
     inkscape:cx="1000"
     inkscape:cy="998.68074"
     inkscape:window-width="1392"
     inkscape:window-height="1212"
     inkscape:window-x="0"
     inkscape:window-y="0"
     inkscape:window-maximized="0"
     inkscape:current-layer="svg1" />
  <path
     d="m 880.5,703.5 q -12,-22 -12,-31 0,-5 2.5,-5 2.5,0 2.5,0 11,0 30,16 63,51 220,66 42,4 62,9 20,5 20,7 0,5 -32,8 -32,3 -76,6 -102,4 -139.5,19.5 -37.5,15.5 -37.5,32.5 0,4 7.5,18 7.5,14 72.5,35 65,21 176,30 13,0 24,4 11,4 12,8 0,1 0,1 0,5 -27,8 -27,3 -78,3 -61,0 -92,5 -31,5 -55,17 -11,7 -22,15 -11,8 -11,13 0,7 17.5,15 17.5,8 48,17 30.5,9 71.5,16.5 41,7.5 86,12.5 28,3 47,7 19,4 19,6 0,5 -30.5,7.5 -30.5,2.5 -75.5,2.5 -57,0 -87.5,4 -30.5,4 -62.5,20 -44,23 -44,40 0,8 19,22.5 19,14.5 154,32.5 45,5 74.5,11 29.5,6 29.5,9 0,4 -28,5.5 -28,1.5 -68,1.5 -6,0 -12,0 -153,0 -190,74 -9,16 -16,16 -2,0 -5.5,-2.5 -3.5,-2.5 -3.5,-18.5 0,-8 1,-18 0,-4 0,-7 0,-18 -5,-24.5 -5,-6.5 -33,-11.5 -28,-5 -58,-5 -10,0 -36,1.5 -26,1.5 -62,12.5 -36,11 -61.5,28.5 -25.5,17.5 -37.5,52.5 -5,16 -9,16 -2,0 -4,-6 -2,-6 -2,-34 0,-18 1,-46 0,-35 -2,-66.5 -2,-31.5 -9,-45.5 -3,-6 -3,-9 0,-1 0.5,-2 0.5,-1 3.5,-1 2,0 6,1 4,2 8,2 6,0 11,-7 5,-7 7.5,-20.5 2.5,-13.5 2.5,-27.5 0,-5 -0.5,-17 -0.5,-12 -6.5,-35 -5,-18 -5,-27 0,-10 5,-12 6,-3 9,-19 3,-16 3,-34.5 0,-18.5 -3,-34 -3,-15.5 -8,-15.5 -8,0 -8,-26 0,-17 3,-43 l 8,-69 -30,27 q -16,15 -41,45.5 -25,30.5 -49.5,63 -24.5,32.5 -43.5,61 -19,28.5 -23,41.5 -1,5 -1,11 0,2 0.5,7.5 0.5,5.5 6.5,9.5 6,5 6,12 0,5 -3,11 -1,2 -1,5 0,20 52,74 38,37 58,66.5 20,29.5 20,47.5 0,1 0,2 0,6 -3,6 -4,0 -16,-17 -15,-24 -42,-53 -27,-29 -56,-57.5 -29,-28.5 -56,-51 -27,-22.5 -47,-31.5 -15,-7 -38,-13 -23,-6 -40,-6 -12,0 -23,-2.5 -11,-2.5 -11,-6.5 0,-6 17.5,-18.5 17.5,-12.5 44.5,-27.5 31,-18 68,-42 37,-24 73.5,-50.5 36.5,-26.5 69,-51.5 32.5,-25 52.5,-44 34,-33 34,-57 0,-5 -1,-9 -1,-3 -1,-5 0,-4 4,-4 1,0 5,1 4,1 27,15 48,28 96,41 48,13 120,21 36,5 53,5 2,0 11,-0.5 9,-0.5 13.5,-5 4.5,-4.5 4.5,-10.5 0,-5 -3.5,-15.5 -3.5,-10.5 -12.5,-29.5 z m 88,41 q -28,-11 -39,-11 -3,0 -8,2 -5,2 -5,29 0,20 2.5,21 2.5,1 3.5,1 7,0 39,-14 l 38,-15 z m -285,23 q 0,-3 -12,-9 -12,-6 -30,-11 -21,-8 -28,-8 -2,0 -5,2 -3,2 -3,27 0,20 2.5,24 2.5,4 6.5,4 4,0 11,-2 7,-4 18.5,-8 11.5,-4 20.5,-6 7,-2 13,-6 6,-4 6,-7 z m 161,16 q -28,-5 -57,-5 -53,0 -109,17 -72,22 -72,47 0,9 9,18 11,9 31.5,17.5 20.5,8.5 48.5,15.5 28,7 62.5,13.5 34.5,6.5 73.5,10.5 25,2 35,2.5 10,0.5 15,0.5 7,0 13,-1 6,-1 8,-5 2,-4 2,-12 0,-11 -4,-18.5 -4,-7.5 -9,-8.5 -12,-6 -12,-34 0,-6 1,-13 1,-9 1,-16 0,-12 -4,-18 -4,-6 -33,-11 z m 369,86 q -6,-14 -6,-19 0,-1 0.5,-2 0.5,-1 2.5,-1 4,0 9,2 13,4 26.5,13.5 13.5,9.5 24.5,19.5 14,12 30.5,22.5 16.5,10.5 30.5,16.5 17,6 55.5,14.5 38.5,8.5 88,15 49.5,6.5 103,12.5 53.5,6 101.5,9 47,4 81,9 34,5 34,10 0,5 -16.5,6 -16.5,1 -26.5,1 -21,0 -50,-2 -36,-2 -70,-2 -51,0 -116,7 -65,7 -129.5,30 -64.5,23 -105.5,57.5 -41,34.5 -50,81.5 -5,26 -16,26 -1,0 -2,0 -9,-6 -9,-14 0,-3 1,-6 1,-7 7.5,-40.5 6.5,-33.5 10.5,-60.5 9,-49 11,-71.5 2,-22.5 2,-39.5 0,-6 -0.5,-20 -0.5,-14 -6.5,-35 -6,-21 -15,-40 z m -788,17 q 8,-11 15,-20 7,-9 7,-11 0,0 0,0 -3,0 -16.5,8.5 -13.5,8.5 -32.5,21.5 -19,13 -40.5,28.5 -21.5,15.5 -39.5,29 -18,13.5 -30.5,23 -12.5,9.5 -13.5,11.5 -1,1 -1,3 0,2 5,5 5,3 15,3 11,0 23.5,3.5 12.5,3.5 20.5,7.5 10,5 16,5 5,0 9.5,-4 4.5,-4 12.5,-27 10,-23 23.5,-45.5 13.5,-22.5 26.5,-41.5 z m 567,23 q -7,-3 -17.5,-7 -10.5,-4 -21.5,-7 -10,-4 -16,-4 -4,0 -7,3.5 -3,3.5 -3,26.5 v 33 l 39,-18 q 30,-14 30,-22 0,-3 -4,-5 z m -312,1 q -7,0 -17.5,-2 -10.5,-2 -18.5,-5 -9,-2 -15,-2 -6,0 -10,3 -4,3 -4,25 0,21 3,22 3,1 4,1 7,0 27,-7 37,-12 41,-19 4,-7 4,-10 0,-6 -14,-6 z m 729,50 q -24,-3 -53,-11 -29,-8 -48,-16 l -47,-22 v 41 q 0,17 -2,41.5 -2,24.5 -5,40.5 l -8,42 61,-31 q 24,-14 55.5,-26.5 31.5,-12.5 56.5,-20.5 13,-4 27.5,-10.5 14.5,-6.5 14.5,-10.5 0,-4 -15,-9 -15,-5 -37,-8 z m -511,-8 q -4,-3 -23,-6.5 -19,-3.5 -37,-5.5 -19,-2 -37,-2 -23,0 -55,4 -32,4 -64.5,14.5 -32.5,10.5 -46,21.5 -13.5,11 -13.5,18 0,4 4,8 8,9 35,17 27,8 61.5,15.5 34.5,7.5 71,12.5 36.5,5 60.5,5 h 49 l -12,-39 q -4,-17 -4,-29 0,-17 9,-21 4,-2 4.5,-4.5 0.5,-2.5 0.5,-3.5 0,-3 -3,-5 z m 95,101 q 0,-3 -9,-9 -9,-6 -26,-11 -14,-5 -21,-5 -2,0 -6,1.5 -4,1.5 -8,20.5 -1,12 -1,20 0,8 1,11 2,2 6,2 3,0 11.5,-2 8.5,-2 20.5,-7.5 12,-5.5 22,-11 10,-5.5 10,-9.5 z m -314,0 q -4,-1 -15.5,-6 -11.5,-5 -21.5,-7 -11,-4 -17,-4 -3,0 -6.5,2 -3.5,2 -3.5,23 0,23 3,24 3,1 4,1 8,0 38,-10 24,-10 24,-17 0,-3 -5,-6 z m 215,46 q 0,-8 -2.5,-12 -2.5,-4 -11.5,-6 -9,-2 -27.5,-3 -18.5,-1 -49.5,-1 -76,2 -117.5,12.5 -41.5,10.5 -70.5,39.5 -10,10 -10,15 0,5 9,12 20,14 75,25.5 55,11.5 121,21.5 45,6 60,6 5,0 8,-1 3,-1 3,-11 0,-5 -1,-12 -3,-9 -7,-22.5 -4,-13.5 -6,-20.5 -4,-7 -4,-12 0,-8 12,-8 19,0 19,-23 z m 62,89 q -14,-5 -26,-10 -12,-5 -15,-8 -1,0 -2,0 -3,0 -6,7 -3,7 -3,26 0,24 3,25 3,1 4,1 8,0 39,-13 l 38,-14 z m -293,22 q 1,-1 1,-2 0,-3 -7.5,-7.5 -7.5,-4.5 -24.5,-9.5 -21,-8 -29,-8 -2,0 -5.5,2 -3.5,2 -3.5,27 0,22 2.5,23.5 2.5,1.5 4.5,1.5 6,0 24,-7 12,-7 23.5,-12.5 11.5,-5.5 14.5,-7.5 z"
     id="path1" />
</svg>
