<?xml version="1.0" encoding="UTF-8" standalone="no"?>
<svg
   width="2000"
   height="2000"
   version="1.1"
   id="svg1"
   sodipodi:docname="u120B6.svg"
   inkscape:version="1.3.2 (091e20e, 2023-11-25)"
   xmlns:inkscape="http://www.inkscape.org/namespaces/inkscape"
   xmlns:sodipodi="http://sodipodi.sourceforge.net/DTD/sodipodi-0.dtd"
   xmlns="http://www.w3.org/2000/svg"
   xmlns:svg="http://www.w3.org/2000/svg">
  <defs
     id="defs1" />
  <sodipodi:namedview
     id="namedview1"
     pagecolor="#505050"
     bordercolor="#eeeeee"
     borderopacity="1"
     inkscape:showpageshadow="0"
     inkscape:pageopacity="0"
     inkscape:pagecheckerboard="0"
     inkscape:deskcolor="#505050"
     inkscape:zoom="0.379"
     inkscape:cx="1000"
     inkscape:cy="998.68074"
     inkscape:window-width="1392"
     inkscape:window-height="1212"
     inkscape:window-x="0"
     inkscape:window-y="0"
     inkscape:window-maximized="0"
     inkscape:current-layer="svg1" />
  <path
     d="m 1066,661.5 q 14,-24 19.5,-24 5.5,0 7.5,27 0,11 5.5,26 5.5,15 11.5,24 8,11 33,33.5 25,22.5 62.5,53.5 37.5,31 85.5,68 48,37 100,76 34,23 57.5,43.5 23.5,20.5 23.5,23.5 0,2 -9.5,8 -9.5,6 -26.5,14 -3,2 -6,3 l -2,1 q -2,2 -5,3 h -1 q -4,3 -9,5 l -1,1 q -3,1 -6,2 l -2,1 q -3,2 -7,4 -22,11 -52,24 -21,10 -44,21 -23,11 -41.5,20.5 -18.5,9.5 -30.5,16.5 -12,7 -16,11 -4,4 -9,6.5 -5,2.5 -7,2.5 -1,0 -2,-1 -1,-1 -3,-1 -5,0 -16.5,4 -11.5,4 -27.5,12 -12,5 -22.5,11 -10.5,6 -21.5,15 -11,9 -23.5,22 -12.5,13 -23.5,26 -28,31 -46,57 -18,26 -22,37 0,0 0,0 l -1,2 q -1,1 -2,3 v 1 q -1,2 -2,4 v 1 q 0,0 0,0 h -1 q 0,1 0,1 v 1 q -1,0 -1,0 v 1 q 0,0 0,1 h -1 q 0,1 0,2 -4,7 -5,7 -2,0 -7.5,-17 -5.5,-17 -10.5,-42 -6,-23 -12.5,-46.5 -6.5,-23.5 -13.5,-35.5 -5,-9 -5,-14 0,-3 1.5,-5.5 1.5,-2.5 4.5,-2.5 4,0 10,4 13,8 33,8 32,0 82,-20 l 53,-20 v -124 q 0,-57 -1.5,-90 -1.5,-33 -5.5,-44 -4,-11 -10,-11 -2,0 -7.5,3 -5.5,3 -19.5,20 l -24,30 v 110 q 0,51 -2,80 -2,29 -5,29 -4,0 -6,-34 -2,-34 -2,-98 0,-45 -1,-76.5 -1,-31.5 -2.5,-50.5 -1.5,-19 -4.5,-27 -3,-8 -6,-8 -3,0 -11.5,10.5 -8.5,10.5 -19.5,24.5 l -24,34 3,243 -84,-3 h -2 q -5,0 -9,0 h -2 q -2,0 -5,0 h -1 q -3,0 -5,0 h -2 q 0,0 -1,0 h -17 q 0,0 -1,0 h -1 q -1,0 -1,0 -17,0 -24.5,1.5 -7.5,1.5 -9,5 -1.5,3.5 -1.5,10.5 0,7 -2,17.5 -2,10.5 -4,18.5 -3,8 -5,8 0,0 -1,-2 -1,-2 -3,-26 l -5,-37 -87,-5 v 42 q 0,17 -2,29.5 -2,12.5 -5,12.5 -2,0 -5,-10 -3,-10 -3,-28 0,-10 -1,-19.5 -1,-9.5 -4,-9.5 -3,0 -18,11 -15,11 -31.5,25 -16.5,14 -30,27.5 -13.5,13.5 -18.5,26.5 -3,9 -6,9 0,0 -2,-0.5 -2,-0.5 -3.5,-22.5 -1.5,-22 -1.5,-66.5 0,-44.5 2,-152.5 1,-70 1,-118 0,-48 -7,-48 -2,0 -4.5,3.5 -2.5,3.5 -2.5,9.5 0,9 -4,9 -4,0 -6,-12.5 -2,-12.5 -3.5,-31.5 -1.5,-19 -3,-42 -1.5,-23 -2,-38 -0.5,-15 -0.5,-24 0,-8 0.5,-19 0.5,-11 1.5,-14 1,-1 2,-1 2,0 6.5,4 4.5,4 10.5,11 12,14 26.5,21.5 14.5,7.5 41.5,11.5 27,4 71.5,6 44.5,2 114.5,2 h 168 l 36,-43 q 16,-18 32.5,-40.5 16.5,-22.5 26.5,-39.5 z m 54,89 q -11,-13 -21,-27.5 -10,-14.5 -14,-23.5 l -9,-21 -34,45 -36,45 h 21 q 9,0 29.5,2 20.5,2 40.5,4 l 48,4 z m -507,43 q -14,-3 -28,-8 -14,-5 -22,-8 -7,-4 -11,-4 -2,0 -3.5,3.5 -1.5,3.5 -1.5,39.5 v 48 l 97,-62 z m 553,0 -79,-6 q -39,-3 -57,-3 -3,0 -13.5,0.5 -10.5,0.5 -12.5,5.5 -1,3 -10,5 -9,2 -28.5,2.5 -19.5,0.5 -51,1 -31.5,0.5 -76.5,0.5 l -164,-1 -112,76 16,18 q 6,6 19,12.5 13,6.5 27.5,11.5 14.5,5 22.5,6.5 8,1.5 11,1.5 5,0 7,-2 2,-2 2,-7 0,-1 -0.5,-5.5 -0.5,-4.5 -4,-13 -3.5,-8.5 -8.5,-17 -5,-8.5 -11,-14.5 -7,-5 -10,-10 -3,-5 -3,-6 0,-1 0,-1 1,-1 12,-1 5,0 20,0.5 15,0.5 47,4.5 66,6 101.5,9.5 35.5,3.5 48,6 12.5,2.5 12.5,5.5 0,1 -2,3.5 -2,2.5 -9,7.5 -10,6 -16.5,13.5 -6.5,7.5 -10.5,12.5 -3,6 -3,9 0,3 5,4.5 5,1.5 17,1.5 h 1 q 0,0 1,0 h 1 q 0,0 1,0 h 2 q 1,0 2,0 h 1 q 1,0 1,0 h 3 q 1,0 1,0 h 15 q 1,0 2,0 h 64 l -6,-28 q -2,-11 -7,-24 -5,-13 -17,-24 -9,-8 -9,-13 0,-5 17,-5 17,0 40,2.5 23,2.5 45.5,6 22.5,3.5 33.5,8.5 10,4 25.5,7 15.5,3 29.5,3 20,0 24,4 4,4 4,6 0,3 -7,6 -3,1 -3,2 0,2 7,3 7,1 22,1 21,0 45.5,3 24.5,3 47,6.5 22.5,3.5 37.5,7.5 15,4 15,9 0,4 -7,4 -9,0 -19,9 -10,9 -20,21 -10,11 -15,19 -5,8 -8,18 -3,10 -4.5,25.5 -1.5,15.5 -3.5,38.5 -2,33 -2.5,55.5 -0.5,22.5 -0.5,23.5 0,0 0,0 3,0 20.5,-7 17.5,-7 43.5,-18.5 26,-11.5 56.5,-26 30.5,-14.5 56,-27.5 25.5,-13 41.5,-22 16,-9 16,-11 0,0 0,0 -1,-1 -12.5,-10.5 -11.5,-9.5 -31,-24.5 -19.5,-15 -44.5,-35 -25,-20 -54,-41 z m -174,67 q -1,-3 -8.5,-5.5 -7.5,-2.5 -15.5,-3.5 -8,-1 -15,-1 -7,0 -7,2 0,1 2.5,11.5 2.5,10.5 6.5,24.5 l 10,33 15,-26 q 7,-11 10,-19 3,-8 3,-12 0,-3 -1,-4 z m -249,11 q 0,-3 -10.5,-4.5 -10.5,-1.5 -26.5,-1.5 h -38 l 11,29 q 3,11 8.5,19.5 5.5,8.5 10.5,10.5 3,0 10.5,-6.5 7.5,-6.5 15,-15.5 7.5,-9 13.5,-18.5 6,-9.5 6,-12.5 z m 314,-1 q -18,-5 -25,-5 -4,0 -4,2 0,1 3,10 3,9 8,21 l 10,29 12,-17 q 12,-16 12,-25 0,-1 -1,-5.5 -1,-4.5 -15,-9.5 z m -237,10 q -6,0 -14.5,-1 -8.5,-1 -16.5,-4 -5,-1 -7,-1 -3,0 -3.5,1 -0.5,1 -0.5,2 0,5 4,21 8,25 12.5,26 4.5,1 4.5,1 9,0 24,-26 7,-12 7,-15.5 0,-3.5 -10,-3.5 z m -50,25 q -5,-16 -13,-16 -8,0 -18,15 -7,12 -7,15 0,0 0.5,1.5 0.5,1.5 15.5,3.5 7,1 11,1 8,0 10.5,-2 2.5,-2 2.5,-7 0,-4 -2,-11 z m 393,-4 q 0,-6 -25,-6 h -24 l 7,27 9,27 17,-21 q 7,-9 11.5,-17 4.5,-8 4.5,-10 z m 83,9 q 0,-3 -7,-5 -7,-2 -18,-2 -14,0 -16,2 -2,2 -2,6 0,5 2,14 2,8 4,14.5 2,6.5 3,7.5 1,1 1,1 3,0 7.5,-4.5 4.5,-4.5 10.5,-11.5 6,-7 10.5,-13.5 4.5,-6.5 4.5,-8.5 z m -48,86 q -2,-31 -4.5,-50 -2.5,-19 -6,-23.5 -3.5,-4.5 -6.5,-4.5 -3,0 -9,4.5 -6,4.5 -18,20.5 l -28,33 v 93 q 0,31 0.5,49.5 0.5,18.5 1.5,27.5 1,9 3,9.5 2,0.5 3,0.5 3,0 8,-2 3,-1 12.5,-4.5 9.5,-3.5 13.5,-5.5 24,-8 28,-32.5 4,-24.5 4,-53.5 0,-26 -2,-62 z m -569,-63 q -10,-2 -21.5,-5.5 -11.5,-3.5 -15.5,-4.5 -5,-2 -8,-2 -4,0 -5.5,3.5 -1.5,3.5 -1.5,26.5 v 34 l 19,-10 q 8,-5 19,-12 11,-7 20,-12 l 21,-14 z m 317,7 h -63 q -21,0 -34,0.5 -13,0.5 -21,2.5 -8,2 -12,5 -4,3 -7,7 -7,9 -10,22.5 -3,13.5 -3,25.5 v 29 h 150 z m -150,4 q 0,-4 -4,-4 -4,0 -4,4 0,4 4,4 4,0 4,-4 z m -20,22 q -2,-18 -7.5,-22 -5.5,-4 -21.5,-4 -31,0 -43.5,16.5 -12.5,16.5 -12.5,39.5 0,3 0,7 1,9 2.5,14 1.5,5 5.5,7 4,2 12.5,2.5 8.5,0.5 22.5,0.5 30,0 36.5,-2.5 6.5,-2.5 8.5,-15.5 1,-4 1,-10 0,-4 -1,-13.5 -1,-9.5 -3,-19.5 z m -79,-22 q 0,-4 -4,-4 -4,0 -4,4 0,4 4,4 4,0 4,-4 z m -23,41 q 0,-16 -1,-26 -1,-10 -3,-10 0,0 0,0 -4,0 -17,7 -13,7 -26.5,16.5 -13.5,9.5 -24,18 -10.5,8.5 -10.5,13.5 0,6 17.5,13 17.5,7 37.5,7 h 27 z m -48,53 q -12,-4 -23,-8 -11,-4 -16,-7 -2,-2 -4,-2 -2,0 -4,4 -2,4 -2,28 v 39 l 78,-48 z m 320,9 H 796 v 127 h 150 z m -165,0 h -92 v 118 l 44,3 h 1 q 2,0 3,0 h 3 q 1,0 1,0 h 1 q 1,0 1,0 h 1 q 1,0 1,0 h 3 q 0,0 1,0 h 14 q 13,0 15,-1 1,-2 2,-20 1,-18 1,-42 z m -107,120 v -62 q 0,0 0,-1 v -2 q 0,-2 0,-4 v -1 q 0,-3 0,-5 v -1 q 0,-1 0,-1 v -2 q 0,0 0,-1 v -1 q 0,-1 0,-2 v -11 q 0,-1 0,-1 v -2 q 0,-1 0,-2 v -2 q 0,-1 0,-2 0,-17 -1,-17 -2,0 -15.5,9.5 -13.5,9.5 -31.5,23.5 -23,14 -34,26 -11,12 -11,20 0,6 7,13.5 7,7.5 18,13.5 11,6 24,10 13,4 25,4 z m -59,6 q -9,-2 -20.5,-5.5 -11.5,-3.5 -14.5,-5.5 -1,0 -2,0 -7,0 -7,41 l -2,46 38,-27 q 16,-11 28,-21 12,-10 13,-12 0,0 0,-1 0,-2 -7,-6 -7,-4 -26,-9 z m 428,67 q 11,-12 17,-20.5 6,-8.5 6,-10.5 0,0 0,0 -1,-1 -4,-1 -2,0 -8.5,1.5 -6.5,1.5 -13.5,4.5 -15,6 -31,8.5 -16,2.5 -29,2.5 -18,2 -21.5,3.5 -3.5,1.5 -3.5,5.5 0,2 1,5 2,5 5.5,18 3.5,13 6.5,27 l 9,33 20,-26 q 8,-10 21,-25 13,-15 25,-26 z"
     id="path1" />
</svg>
