<?xml version="1.0" encoding="UTF-8" standalone="no"?>
<svg
   width="2000"
   height="2000"
   version="1.1"
   id="svg1"
   sodipodi:docname="u12009.svg"
   inkscape:version="1.3.2 (091e20e, 2023-11-25)"
   xmlns:inkscape="http://www.inkscape.org/namespaces/inkscape"
   xmlns:sodipodi="http://sodipodi.sourceforge.net/DTD/sodipodi-0.dtd"
   xmlns="http://www.w3.org/2000/svg"
   xmlns:svg="http://www.w3.org/2000/svg">
  <defs
     id="defs1" />
  <sodipodi:namedview
     id="namedview1"
     pagecolor="#505050"
     bordercolor="#eeeeee"
     borderopacity="1"
     inkscape:showpageshadow="0"
     inkscape:pageopacity="0"
     inkscape:pagecheckerboard="0"
     inkscape:deskcolor="#505050"
     inkscape:zoom="0.379"
     inkscape:cx="1000"
     inkscape:cy="998.68074"
     inkscape:window-width="1392"
     inkscape:window-height="1212"
     inkscape:window-x="0"
     inkscape:window-y="0"
     inkscape:window-maximized="0"
     inkscape:current-layer="svg1" />
  <path
     d="m 1415.5,633.5 q 2,-4 6,-4 6,0 16,6 8,3 39,6.5 31,3.5 78,3.5 60,0 69.5,3.5 9.5,3.5 9.5,6.5 0,5 -12,13 -15,9 -28,28 -13,19 -25,40 -10,19 -16,33 -6,14 -9,39.5 -3,25.5 -4,69.5 -1,44 -2,124 l -3,215 26,33 q 23,30 27,38.5 4,8.5 4,10.5 0,2 -2,2 -3,0 -13,-6 l -11,-10 h -29 q 0,14 -0.5,29 -0.5,15 -0.5,29 -2,9 -6,9 -1,0 -5,-1.5 -4,-1.5 -7,-9.5 l -1,-57 q -121,0 -221.5,-1.5 -100.5,-1.5 -180.5,-1.5 -41,0 -81,0 l -207,1 v 43 q -1,22 -1,33.5 0,11.5 -9,11.5 -10,0 -10,-12 0,-1 0.5,-3.5 0.5,-2.5 0.5,-7.5 0,-10 -1,-21 v -43 l -112,6 q -41,2 -83.5,8 -42.5,6 -80.5,14 -38,8 -68,18 -30,10 -50,23 -6,4 -14,8 -8,4 -10,4 -2,0 -4,-18.5 -2,-18.5 -2,-43.5 0,-27 -2.5,-53.5 -2.5,-26.5 -8.5,-40.5 -3,-8 -4,-14.5 -1,-6.5 -1,-8.5 0,-3 1,-4 1,-1 6,-1 3,0 12,1 9,1 26,4 18,5 40.5,10.5 22.5,5.5 37.5,10.5 6,1 23,4.5 17,3.5 40.5,7 23.5,3.5 51.5,8 28,4.5 45,6.5 77,12 157,23 0,-14 1,-30 v -91 q -14,1 -28,1 -15,1 -34.5,1.5 -19.5,0.5 -41.5,0.5 -31,0 -50.5,1 -19.5,1 -32,3.5 -12.5,2.5 -21,7.5 -8.5,5 -19.5,14 l -30,25 -1,-48 q 0,-19 -1.5,-49 -1.5,-30 -1.5,-54 0,-20 1,-40.5 1,-20.5 7,-22.5 5,-3 5,-14 0,-2 -0.5,-10.5 -0.5,-8.5 -2.5,-21.5 -2,-15 -2,-25.5 0,-10.5 2,-12.5 1,-1 4,-1 4,0 18.5,5.5 14.5,5.5 39.5,20.5 4,2 9,5 5,3 10,5 5,2 13,4.5 8,2.5 13,4.5 16,5 32.5,6 16.5,1 34.5,1 h 72 q -1,-14 -4,-35 -1,-7 -3,-22 -2,-15 -6,-29 l -18,-69 -48,5 q -19,1 -51,8.5 -32,7.5 -64.5,17.5 -32.5,10 -58.5,19.5 -26,9.5 -33,15.5 -8,9 -13,9 -4,0 -7.5,-7.5 -3.5,-7.5 -3.5,-44.5 0,-30 -3.5,-55.5 -3.5,-25.5 -7.5,-36.5 -5,-10 -5.5,-17 -0.5,-7 -0.5,-10 0,-3 0,-4 1,-1 3,-1 5,0 23.5,4.5 18.5,4.5 40.5,11.5 34,10 70.5,18 36.5,8 71.5,14 35,7 74,13 -2,-8 -4,-15 -2,-8 -4.5,-16 -2.5,-8 -7.5,-20 -5,-12 -10,-22.5 -5,-10.5 -5,-12.5 0,-1 12,-1 h 2 q 1,0 2,0 h 1 q 0,0 1,0 1,0 1,0 h 1 q 0,0 1,0 h 1 q 0,0 1,0 1,0 1,0 h 17 q 18,0 39,1 21,1 39.5,1.5 18.5,0.5 32,1 13.5,0.5 15.5,0.5 0,2 -5,13.5 -5,11.5 -12,25.5 -5,10 -8.5,19 -3.5,9 -6.5,17 -3,10 -6,19 16,2 39,3 20,2 48,3 28,1 65,1 h 153 l 64,-50 q 27,-21 48,-35 21,-14 23,-14 1,0 1,6 0,3 -0.5,6.5 -0.5,3.5 -0.5,5.5 0,13 3,31 l 8,50 h 44 q 11,0 23.5,0.5 12.5,0.5 24,1.5 11.5,1 19.5,2 8,1 12,4 2,2 2,3 0,3 -12.5,6.5 -12.5,3.5 -41.5,3.5 h -63 q 7,9 13,17 8,10 15.5,20 7.5,10 15.5,20 11,14 21.5,26.5 10.5,12.5 18.5,23 8,10.5 10.5,16 2.5,5.5 2.5,7.5 0,2 -1,3 0,0 -1,0 -2,0 -9.5,-5.5 -7.5,-5.5 -18,-16 -10.5,-10.5 -23.5,-24.5 -13,-14 -26,-29 -18,-21 -30,-32.5 -12,-11.5 -21,-17 -9,-5.5 -16,-7 -7,-1.5 -15,-1.5 -5,0 -11.5,-0.5 -6.5,-0.5 -12.5,-0.5 -8,0 -16,-1 l 10,48 q 6,11 16,25 15,21 43,54 24,27 37.5,40.5 13.5,13.5 13.5,19.5 0,3 -2,5 -2,1 -4,1 -8,0 -27.5,-18.5 -19.5,-18.5 -42.5,-42.5 -28,-29 -37.5,-42 -9.5,-13 -16.5,-20 -7,-7 -14,-10 -7,-3 -24,-4 -6,-1 -14,-1.5 -8,-0.5 -16,-2.5 -9,-1 -18,-3 -1,6 -1,12 0,5 -0.5,9.5 -0.5,4.5 -0.5,8.5 0,28 19.5,60 19.5,32 58.5,71 0,0 0,0 l 1,1 q 0,0 0,0 0,0 0,0 l 1,1 q 1,1 1,1 1,1 1,1 0,0 1,1 l 1,1 q 0,0 0,0 l 1,1 q 0,0 0,0 l 1,1 q 0,0 1,0 7,8 13,15 8,7 16,15 h 17 q 0,0 1,0 l 1,-1 q 0,0 0,0 l 1,-1 q 0,0 1,0 l 1,-1 q 0,0 0,0 l 1,-1 q 1,0 1,0 l 1,-1 q 1,0 1,0 l 1,-1 q 0,0 0,0 l 2,-1 q 0,0 0,0 l 1,-1 q 1,0 1,0 l 1,-1 q 0,0 1,0 l 1,-1 q 0,0 0,0 l 1,-1 q 1,0 1,0 l 1,-1 q 0,0 0,0 l 2,-1 q 0,0 0,0 l 2,-1 q 0,0 0,0 l 1,-1 q 0,0 1,0 l 1,-1 q 0,0 1,0 l 1,-1 q 0,0 0,0 l 1,-1 q 1,0 1,0 l 1,-1 q 0,0 0,0 l 1,-1 q 1,0 1,0 17,-11 37,-24 20,-13 50,-34 24,-18 48.5,-34 24.5,-16 27.5,-16 0,0 0,0 0,0 0,1 0,0 0,0 0,0 0,1 0,0 0,0 0,0 0,0 v 4 q 0,0 0,0 v 1 q 0,7 -0.5,16.5 -0.5,9.5 -1,20 -0.5,10.5 -2.5,19.5 -2,19 -3,31 -1,12 -1,28 0,0 0,1 0,0 0,0 0,0 0,0 0,0 0,1 0,0 0,0 v 3 q 0,0 0,0 v 1 q 0,0 0,0 h 77 l -2,-72 q -1,-30 -7,-66 -6,-36 -16.5,-72.5 -10.5,-36.5 -24,-71.5 -13.5,-35 -28.5,-60 -12,-20 -16,-32.5 -4,-12.5 -4,-18.5 0,-3 1,-5 z m 170,38 q 0,-2 -20,-4 -20,-2 -53,-2 -24,0 -44.5,1 -20.5,1 -20.5,5 0,2 5,12 5,10 10,24 7,12 17,36 10,24 18,43 7,22 11,28.5 4,6.5 6,6.5 4,0 9,-17 4,-11 11,-30 7,-19 12,-32 5,-13 9.5,-22 4.5,-9 10.5,-18 9,-10 14,-19.5 5,-9.5 5,-11.5 z m -729,18 q 0,-5 -14,-6.5 -14,-1.5 -26.5,-2.5 -12.5,-1 -20.5,-1 -8,0 -19.5,1 -11.5,1 -13.5,3 -1,0 -1,3 0,3 1.5,10 1.5,7 5.5,16 3,5 4.5,10.5 1.5,5.5 3.5,12.5 2,6 4,13 l 54,6 q 6,-16 11,-30 5,-11 8,-22 3,-11 3,-13 z m 414,20 -59,49 q 17,0 30.5,0.5 13.5,0.5 25.5,1.5 7,1 15,2 z m -669,25 q -36,-8 -57,-13.5 -21,-5.5 -26.5,-6 -5.5,-0.5 -6.5,-0.5 -7,0 -7.5,2.5 -0.5,2.5 -0.5,3.5 0,3 1,8 3,8 5,25.5 2,17.5 2,35.5 v 44 l 38,-17 q 7,-3 19,-7 12,-4 26.5,-8.5 14.5,-4.5 30,-9.5 15.5,-5 29.5,-8 31,-8 59,-11 15,-3 29,-5 -25,-6 -41,-10 -30,-7 -54,-12.5 -24,-5.5 -46,-10.5 z m 599,96 q -4,-12 -7.5,-21 -3.5,-9 -5.5,-15 -2,-6 -4,-11 l -2,2 q 0,0 0,0 l -2,2 q -2,3 -11,10 -4,3 -8.5,7 -4.5,4 -10.5,10 -3,2 -7,6 6,0 12,1 12,0 22,3 14,2 20,4 2,1 4,2 z m -87,-19 q 5,-3 11,-7.5 6,-4.5 12,-8.5 0,0 1,-1 0,0 1,0 v -1 q 1,0 1,-1 h 1 q 0,-1 1,-1 1,-1 1,-1 l 1,-1 q 0,0 0,0 l 1,-1 q 0,0 1,-1 1,0 1,-1 h 1 q 0,-1 1,-1 v -1 q 1,0 1,0 1,-1 1,-1 h -32 q -4,1 -5,1 z m -267,-25 q -4,17 -6,28 -5,21 -7.5,38.5 -2.5,17.5 -4.5,34.5 l -3,82 52,15 q 81,24 153,35.5 72,11.5 129,11.5 h 44 l -53,-53 q -24,-24 -42,-40.5 -18,-16.5 -34.5,-27 -16.5,-10.5 -34.5,-15 -18,-4.5 -45,-4.5 -18,0 -33.5,-2 -15.5,-2 -15.5,-5 0,-4 17.5,-17.5 17.5,-13.5 41.5,-29.5 12,-8 24,-17 12,-9 25,-19 8,-7 19,-16 z m -18,-1 h -38 l 10,26 q 4,12 10,26 z m 264,66 q 0,-34 -6,-35.5 -6,-1.5 -8,-1.5 -11,0 -40,23 -6,5 -13.5,10.5 -7.5,5.5 -14.5,11.5 -8,5 -16,11 13,0 30,2 7,1 17.5,2.5 10.5,1.5 17.5,5.5 l 33,16 z m -494,78 q -2,-2 -6,-5 -3,-1 -5,-3 0,0 0,0 h -1 q 0,0 0,-1 -2,-1 -5,-3 -2,-2 -6,-5 l 1,26 -3,36 q 7,-3 16,-8 3,-2 9,-5.5 6,-3.5 9,-5.5 2,-2 5.5,-3.5 3.5,-1.5 7.5,-3.5 4,-2 9,-4 -6,-3 -12,-5 -5,-2 -9.5,-4.5 -4.5,-2.5 -9.5,-5.5 z m 820,18 -136,84 h 131 z m -662,12 q -45,0 -69,-1 -24,-1 -28,-1 -10,0 -22.5,5 -12.5,5 -23.5,11 -12,8 -24,17 15,10 34,18 18,7 42.5,13 24.5,6 55.5,8 l 86,5 v -35 q 0,-7 -0.5,-14 -0.5,-7 -0.5,-12 -1,-7 -2,-13 z m 71,142 2,-7 q 1,-3 1.5,-15 0.5,-12 0.5,-21 0,-8 -0.5,-21.5 -0.5,-13.5 -1,-29 -0.5,-15.5 -0.5,-16.5 0,-1 -0.5,-2 -0.5,-1 -3.5,-6 z m 103,-84 q -12,-4 -26.5,-8 -14.5,-4 -27.5,-7 -15,-5 -29,-9 0,9 1,18 v 29 q 0,0 0,1 0,0 0,1 0,0 0,0 v 2 q 0,0 0,1 0,0 0,1 v 1 q 0,0 0,0 v 8 q 0,8 -1,16 0,8 -1,17 13,-7 23,-11.5 10,-4.5 20,-8.5 10,-4 20.5,-7.5 10.5,-3.5 24.5,-7.5 l 54,-16 z m -337,32 q 4,-4 20,-9 8,-3 17,-7 -11,-4 -23,-9 -6,-3 -13.5,-6 -7.5,-3 -9.5,-5 -2,-2 -5.5,-3.5 -3.5,-1.5 -5.5,-3.5 -3,-2 -6,-3 0,4 1,9 v 21 l -4,28 q 7,-2 13,-5 5,-2 9.5,-3.5 4.5,-1.5 6.5,-3.5 z m 214,0 h -90 q -44,0 -71,5 -27,5 -43,11 -16,7 -23,16 17,10 37,17 21,8 48,13.5 27,5.5 62,6.5 14,0 28.5,0.5 14.5,0.5 27.5,0.5 12,1 24,1 z m 557,0 29,12 q 7,4 10.5,6 3.5,2 5.5,3.5 2,1.5 4,2.5 0,1 0,1 0,0 0,0 l 1,1 q 0,0 0,0 l 2,2 q 0,0 0,0 l 1,1 q 0,0 0,0 l -4,-28 z m -121,25 q -5,-5 -9.5,-8.5 -4.5,-3.5 -8.5,-7.5 l -10,-8 h -1 q 0,0 -1,0 h -1 q 0,0 -1,0 h -3 q -1,0 -1,0 h -4 q -1,0 -1,0 h -10 q -1,0 -1,0 h -3 q -13,-1 -28,-1 -14,0 -31,1 -83,1 -138.5,10 -55.5,9 -105.5,29 l -59,24 v 143 l 30,2 q 7,1 37.5,2 30.5,1 77.5,1.5 47,0.5 106.5,1.5 59.5,1 123.5,1 l 315,2 -1,-37 q -17,-24 -35,-48 -15,-20 -33,-43 -18,-23 -31,-37 -12,-12 -19,-15.5 -7,-3.5 -13,-7.5 -15,-10 -32.5,-15 -17.5,-5 -33.5,-8 -16,-3 -28.5,-4 -12.5,-1 -22.5,-1 -13,0 -17,-1 0,0 -1,0 0,0 0,0 h -1 q 0,0 0,0 0,0 0,0 h -1 q 0,0 0,0 h -2 q 0,0 0,0 l 27,24 q 6,7 6,11 0,5 -4,5.5 -4,0.5 -5,0.5 -11,0 -26,-16 z m 269,-21 -33,-3 q -6,-1 -13,-1 -7,0 -14,1 -1,0 -1,0 h -1 q 0,0 0,0 h -2 q 0,0 0,0 h -3 q 0,0 0,0 h -6 q 0,0 0,0 h -2 q 4,20 13,39.5 9,19.5 21,38.5 10,17 23,35 l 21,32 z m -947,43 2,25 q 0,0 0,0 v 1 q 0,0 0,0 0,0 0,1 0,0 0,0 v 3 q 0,4 -1,9 0,6 -1,12 0,0 0,0 1,0 1,-1 0,0 0,0 0,0 1,0 0,0 0,0 1,-1 1,-1 0,0 0,0 0,0 1,0 0,0 0,-1 1,0 1,0 0,0 0,0 0,0 1,-1 0,0 0,0 1,0 1,0 0,0 0,0 0,0 1,-1 0,0 0,0 1,0 1,0 0,0 0,-1 0,0 1,0 0,0 0,0 l 14,-7 q 2,-2 8,-4.5 6,-2.5 11,-4.5 7,-3 15,-6 z m -67,129 q -32,-7 -61.5,-13 -29.5,-6 -31.5,-6 -4,0 -4.5,13 -0.5,13 -0.5,23 0,9 0.5,25 0.5,16 2.5,34.5 2,18.5 5,21.5 12,-3 26,-6 2,-1 5,-1 5,-1 10,-3 6,-1 13,-3 16,-4 29,-8 23,-7 55.5,-13.5 32.5,-6.5 73.5,-13.5 28,-5 69,-12 -42,-11 -92.5,-20 -50.5,-9 -98.5,-18 z"
     id="path1" />
</svg>
