<?xml version="1.0" encoding="UTF-8" standalone="no"?>
<svg
   width="2000"
   height="2000"
   version="1.1"
   id="svg1"
   sodipodi:docname="u12016.svg"
   inkscape:version="1.3.2 (091e20e, 2023-11-25)"
   xmlns:inkscape="http://www.inkscape.org/namespaces/inkscape"
   xmlns:sodipodi="http://sodipodi.sourceforge.net/DTD/sodipodi-0.dtd"
   xmlns="http://www.w3.org/2000/svg"
   xmlns:svg="http://www.w3.org/2000/svg">
  <defs
     id="defs1" />
  <sodipodi:namedview
     id="namedview1"
     pagecolor="#505050"
     bordercolor="#eeeeee"
     borderopacity="1"
     inkscape:showpageshadow="0"
     inkscape:pageopacity="0"
     inkscape:pagecheckerboard="0"
     inkscape:deskcolor="#505050"
     inkscape:zoom="0.379"
     inkscape:cx="1000"
     inkscape:cy="998.68074"
     inkscape:window-width="1392"
     inkscape:window-height="1212"
     inkscape:window-x="0"
     inkscape:window-y="0"
     inkscape:window-maximized="0"
     inkscape:current-layer="svg1" />
  <path
     d="m 922.50002,680.99997 q 19,-37 28,-37 9,0 10,29 0,9 11,25.5 11,16.5 28.99998,34 18,17.5 39,33 21,15.5 42,24.5 6,3 31.5,13.5 25.5,10.5 61.5,24 36,13.5 79.5,29.5 43.5,16 102.5,37 31,12 71,26 40,14 70,26 4,1 8,3 h 1 q 14,6 25,10 h 1 q 5,2 10,4 h 1 q 1,0 2,1 9,3 14,5 2,1 3,1 1,0 1,0 1,2 1,3 0,3 -4,6 -2,3 -7,3 -5,0 -32,-9 -27,-9 -88,-31.5 -61,-22.5 -143,-52.5 -114,-42 -162,-59 -48,-17 -77.5,-25.5 -29.5,-8.5 -49,-10.5 -19.49998,-2 -43.49998,-2 -67,0 -94,16 -25,13 -33,13 -4,0 -4,-4 0,-8 26,-36 23,-24 40,-49.5 17,-25.5 29,-50.5 z m 29,12 q 0,-6 -3,-6 -2,0 -10,8 -8,8 -26,40 l -26,46 21,-6 q 9,-3 26.5,-4.5 17.5,-1.5 33.5,-1.5 H 1006.5 l -27.99998,-31 q -12,-14 -19.5,-26 -7.5,-12 -7.5,-19 z m -122,28 q 5,-4 14,-14 9,-10 15,-10 5,0 5,4 0,13 -43,64 -42,48 -75,97.5 -33,49.5 -51.5,88.5 -18.5,39 -20,51.50003 -1.5,12.5 -1.5,15.5 0,18 19,18 9,0 9,3 0,2 -4,6 -8,8 -8,16 0,7 9,19.5 9,12.5 48,36.5 24,17 53.5,39.5 29.5,22.5 45.5,40.5 34,31 41,31 1,0 1.5,-0.5 0.5,-0.5 0.5,-1.5 0,-10 -28,-61 -9,-16 -15,-29.5 -6,-13.5 -6,-17.5 0,-1 0,-1 0,0 1,0 4,0 16.5,5.5 12.5,5.5 29.5,15.5 27,18 47,22.5 20,4.5 56,4.5 25.99998,0 43.99998,-2 18,-2 46.5,-12 28.5,-10 75.5,-28.5 47,-18.5 128,-50.5 47,-19 89,-35.5 42,-16.5 74,-28 32,-11.50002 47.5,-17.00002 15.5,-5.5 21.5,-5.5 3,0 5,2 2,1 2,3 0,1 -2,3 -1,0 -20,8.50002 -19,8.5 -51,21 -32,12.5 -75,30 -43,17.5 -82,33.5 -57,23 -102,41.5 -45,18.5 -81,34.5 -4,2 -9,4 l -2,1 q -17,7 -31,13 l -1,1 q -9,4 -17,7 -24,11 -34,17 -25.99998,16 -48.99998,53.5 -23,37.5 -23,76.5 0,20 -5,20 -2,0 -7.5,-4.5 -5.5,-4.5 -13.5,-40.5 -4,-24 -11,-38.5 -7,-14.5 -11,-14.5 -5,0 -21.5,-12.5 -16.5,-12.5 -31.5,-27.5 -21,-21 -51.5,-44.5 -30.5,-23.5 -64.5,-46 -34,-22.5 -65.5,-41 -31.5,-18.5 -46.5,-26.5 -18,-7 -40.5,-11 -22.5,-4 -43.5,-4 -13,0 -33.5,-1.5 -20.5,-1.5 -32.5,-4.5 l -28,-6 64,-42.00002 q 35,-22 86,-61 51,-39 99.5,-78 48.5,-39 87.5,-73.5 39,-34.5 57,-57.50001 z m -97,129 q 3,-5 3,-7 0,-2 -1,-2 -10,0 -71,51 -14,11 -47,37 -33,26 -61,46 -23,13 -40,27.50003 -17,14.5 -17,17.5 0,3 13.5,5 13.5,2 32.5,2 20,0 38.5,2.5 18.5,2.5 27.5,6.5 9,3 16,3 10,0 20.5,-8 10.5,-8 10.5,-31.00002 0,-22 12.5,-50 12.5,-28 36.5,-61 8,-12 15.5,-22.5 7.5,-10.5 10.5,-16.50001 z m 232,335.00003 q -16,-3 -34,-6 -18,-3 -29,-6 l -21,-6 24,54 q 17,37 25,47 8,10 11,10 2,0 2,-5 0,-9 9,-21.5 9,-12.5 22,-27.5 L 1003.5,1189 Z"
     id="path1" />
</svg>
