<?xml version="1.0" encoding="UTF-8" standalone="no"?>
<svg
   width="2000"
   height="2000"
   version="1.1"
   id="svg1"
   sodipodi:docname="u12095.svg"
   inkscape:version="1.3.2 (091e20e, 2023-11-25)"
   xmlns:inkscape="http://www.inkscape.org/namespaces/inkscape"
   xmlns:sodipodi="http://sodipodi.sourceforge.net/DTD/sodipodi-0.dtd"
   xmlns="http://www.w3.org/2000/svg"
   xmlns:svg="http://www.w3.org/2000/svg">
  <defs
     id="defs1" />
  <sodipodi:namedview
     id="namedview1"
     pagecolor="#505050"
     bordercolor="#eeeeee"
     borderopacity="1"
     inkscape:showpageshadow="0"
     inkscape:pageopacity="0"
     inkscape:pagecheckerboard="0"
     inkscape:deskcolor="#505050"
     inkscape:zoom="0.379"
     inkscape:cx="1000"
     inkscape:cy="998.68074"
     inkscape:window-width="1392"
     inkscape:window-height="1212"
     inkscape:window-x="0"
     inkscape:window-y="0"
     inkscape:window-maximized="0"
     inkscape:current-layer="svg1" />
  <path
     d="m 845,640 q 4,-8 9,-9 5,-1 7,-1 6,0 6,7 0,6 -7,17 -7,11 -16,21 -11,13 -22,30.5 -11,17.5 -18,30.5 -6,11 -8.5,18 -2.5,7 -2.5,12.5 0,5.5 2.5,11.5 2.5,6 6.5,12 8,13 19,24.5 11,11.5 21,16.5 11,7 15.5,8 4.5,1 5.5,1 5,0 10,-5 5,-5 10.5,-18.5 Q 889,803 895,780 q 11,-36 15.5,-38 4.5,-2 5.5,-2 6,0 14,19 16,42 60,69 44,27 133,52 35,10 70.5,18 35.5,8 42.5,8 12,0 38.5,-21.5 26.5,-21.5 70.5,-67.5 36,-39 50.5,-50.5 14.5,-11.5 19.5,-11.5 4,0 4,6 0,5 -3,12.5 -3,7.5 -7,9.5 -5,3 -16.5,22.5 -11.5,19.5 -21.5,37.5 -17,34 -20.5,48 -3.5,14 -3.5,22 0,9 4.5,20 4.5,11 23,23.5 18.5,12.5 51.5,27.5 25,13 43.5,24.5 18.5,11.5 18.5,20.5 0,4 -4,4 -1,0 -3,0 -22,-12 -46,-23 -24,-11 -45.5,-20 -21.5,-9 -39.5,-15 -18,-6 -29,-7 -5,-1 -10,-1 -16,0 -26,12.5 -10,12.5 -17,59.5 -2,14 -2.5,19 -0.5,5 -0.5,7 0,7 3,13.5 3,6.5 9,13.5 6,7 13,13 10,10 21,17.5 11,7.5 25,15.5 14,8 29.5,15 15.5,7 29.5,13 56,21 80,35 24,14 24,21 0,2 -2,4 -1,1 -3,1 -5,0 -21.5,-6 -16.5,-6 -39.5,-18 -35,-17 -72.5,-31.5 -37.5,-14.5 -72.5,-25.5 -35,-11 -65,-17 -30,-6 -51,-6 h -50 l 70,-72 q 33,-33 45.5,-49.5 12.5,-16.5 12.5,-21.5 0,-2 -2,-3 -1,0 -2,0 -8,0 -35,6 -27,6 -64.5,16 -37.5,10 -75.5,21 -38,11 -57,19 -21,8 -41,21 -20,13 -33,26 -14,12 -22,16.5 -8,4.5 -12,4.5 -3,0 -4,-2 -2,-4 -8,-25.5 -6,-21.5 -12,-45.5 -6,-24 -9,-42 -3,-18 -3,-22 0,-2 0,-2 1,-1 2,-1 3,0 13.5,5 10.5,5 18.5,10 43,26 93,26 25,0 57,-6 32,-6 63,-15 31,-9 55.5,-20 24.5,-11 36.5,-23 7,-7 7,-12 0,-2 -3.5,-5.5 Q 1209,923 1153,907 1045,876 1007.5,872.5 970,869 961,869 q -37,0 -37,17 0,2 1,4 0,2 0,5 0,3 -1,7 -1,4 -3,4 -3,0 -11,-4 -8,-4 -17.5,-10 -9.5,-6 -19.5,-13 -10,-7 -16,-13 -9,-9 -29,-21.5 -20,-12.5 -41,-23.5 -18,-9 -32,-14.5 -14,-5.5 -31.5,-9 -17.5,-3.5 -42,-5 Q 657,791 617,790 q -35,-1 -59.5,-1 -24.5,0 -42,1.5 -17.5,1.5 -29.5,4.5 -12,3 -26,9 -14,7 -25.5,14.5 Q 423,826 423,829 q 0,3 28,5.5 28,2.5 68,2.5 36,0 64,2 28,2 28,4 0,2 -8.5,12.5 Q 594,866 582,876 q -11,10 -17,17.5 -6,7.5 -9,17.5 -3,10 -3.5,25.5 -0.5,15.5 -0.5,42.5 0,28 0.5,43 0.5,15 2.5,22 2,7 7.5,8.5 5.5,1.5 10.5,1.5 13,0 35.5,-10.5 22.5,-10.5 51.5,-27.5 29,-17 61,-38.5 32,-21.5 57,-42.5 23,-18 28.5,-20 5.5,-2 6.5,-2 5,0 5,7 0,6 -3,12.5 -3,6.5 -7,8.5 -5,3 -15,16.5 -10,13.5 -21,29.5 -16,26 -17.5,33.5 -1.5,7.5 -1.5,10.5 0,9 5,20 6,14 19,27 13,13 30,22 12,7 28,18 16,11 28,21.5 12,10.5 17.5,17 5.5,6.5 5.5,10.5 0,1 -1,2 -1,1 -2,1 -4,0 -14,-4.5 -10,-4.5 -34,-22.5 -25,-19 -48.5,-33.5 -23.5,-14.5 -50,-22 -26.5,-7.5 -55,-8.5 -28.5,-1 -57.5,-1 -20,0 -43,0 -60,0 -99,3 -39,3 -63.5,11 -24.5,8 -38.5,22 -14,14 -25,37 -15,31 -27,31 0,0 -6.5,-0.5 -6.5,-0.5 -6.5,-41.5 0,-18 2,-45 2,-27 6,-49.5 4,-22.5 8.5,-36.5 4.5,-14 9.5,-14 4,0 13.5,7 9.5,7 17.5,16 12,13 24.5,19.5 12.5,6.5 21.5,6.5 5,0 8.5,-2 3.5,-2 5,-8.5 1.5,-6.5 1.5,-20 0,-13.5 -2,-31.5 -2,-32 -7,-59 -5,-27 -13,-41 -5,-11 -7.5,-11.5 -2.5,-0.5 -2.5,-0.5 -5,0 -12,10 -5,7 -10.5,12 -5.5,5 -7.5,5 -3,0 -4.5,-12 -1.5,-12 -2,-30.5 Q 364,836 364,814 q 0,-22 0.5,-42.5 0.5,-20.5 2,-36.5 1.5,-16 4.5,-23 3,-6 7,-6 2,0 6.5,2 4.5,2 25.5,22 12,12 20.5,18.5 8.5,6.5 22.5,10 14,3.5 38,4.5 24,1 66,3 l 115,5 84,-57 q 17,-12 32.5,-23 15.5,-11 27.5,-21 12,-10 19.5,-17 7.5,-7 9.5,-13 z m 608,66 103,7 q 88,6 105.5,11.5 17.5,5.5 17.5,8.5 0,4 -24,8 -98,16 -98,96 0,14 2.5,25 2.5,11 10.5,16.5 8,5.5 24,7 16,1.5 39,1.5 24,0 38,2 14,2 14,5 -1,3 -13,11 -12,8 -26,15 -26,12 -40,27 -14,15 -27,40 -8,16 -12.5,30 -4.5,14 -7,36 -2.5,22 -3.5,56.5 -1,34.5 -2,92.5 0,34 -1,65 -1,31 -2.5,53.5 -1.5,22.5 -2.5,36 -1,13.5 -4,13.5 -2,0 -4,-5.5 -2,-5.5 -3,-29.5 -1,-24 -1.5,-73 -0.5,-49 -1.5,-136 l -2,-149 -31,-45 q -14,-20 -23.5,-34 -9.5,-14 -9.5,-16 0,-2 10.5,-3.5 10.5,-1.5 25.5,-1.5 h 36 l -5,-51 q -2,-17 -4.5,-28.5 -2.5,-11.5 -7,-20.5 -4.5,-9 -12,-17.5 Q 1504,751 1492,740 Z m 123,33 q 0,-5 -6.5,-7.5 -6.5,-2.5 -18.5,-2.5 -19,0 -21,4 -2,4 -2,6 0,6 7,17 7,10 9.5,10.5 2.5,0.5 2.5,0.5 5,0 14,-7 15,-13 15,-21 z m -802,6 q 2,-6 2,-10 0,-5 -6.5,-5 -6.5,0 -27.5,16 -22,13 -22,21 0,1 0.5,5 0.5,4 23.5,8 7,2 12,2 12,0 12,-10 0,-5 2,-12.5 2,-7.5 4,-14.5 z m -351,21 q -12,-7 -22,-12 -10,-5 -12,-5 -2,0 -3.5,11 -1.5,11 -1.5,28 0,17 1.5,28.5 1.5,11.5 3.5,11.5 2,0 12.5,-6.5 Q 412,815 423,806 l 30,-21 z m 541,76 -48,-55 -10,26 q -9,23 -9,33 0,5 2.5,7.5 2.5,2.5 9.5,2.5 11,0 34,-7 z m -513,27 q 1,-2 1,-4 0,-3 -3.5,-5.5 Q 445,857 438,857 q -7,0 -10.5,2.5 -3.5,2.5 -3.5,5.5 0,2 1,4 3,9 13,9 10,0 13,-9 z m 101,3 q 0,-6 -2.5,-10.5 -2.5,-4.5 -7.5,-4.5 -4,0 -7,4.5 -3,4.5 -3,10.5 0,6 3,10.5 3,4.5 7,4.5 5,0 7.5,-4.5 Q 552,878 552,872 Z m -40,11 q -12,-15 -20,-15 -1,0 -6,1 -5,1 -18,21 -7,11 -10.5,20.5 -3.5,9.5 -5.5,23 -2,13.5 -2,32.5 0,19 1,46 l 2,42 h 82 l -5,-78 Q 528,944 523,916.5 518,889 512,883 Z m 813,15 q 1,-6 2,-13 1,-7 1,-10 0,-4 -1,-5 -1,-1 -2,-1 -3,0 -10,6 -7,6 -14.5,16 -7.5,10 -11,17.5 -3.5,7.5 -3.5,11.5 0,5 2,9 5,8 11,8 4,0 12,-4.5 8,-4.5 14,-34.5 z m 271,7 q -6,-3 -20.5,-5 -14.5,-2 -27,-3 -12.5,-1 -21.5,-1 -4,0 -12,0.5 -8,0.5 -8,3.5 0,2 6.5,14.5 6.5,12.5 16.5,29.5 l 23,40 27,-35 q 17,-21 19,-27 2,-6 2,-8 0,-6 -5,-9 z m -857,94 q 0,-4 -4,-4 -2,0 -9,2.5 -7,2.5 -23,13.5 -21,15 -21.5,19 -0.5,4 -0.5,5 0,7 16,12 6,1 11,1 6,0 11,-3 5,-3 11,-16 4,-11 6.5,-19.5 2.5,-8.5 2.5,-10.5 z m 224,31 q 0,-1 -11,-4 -11,-3 -23,-6 -17,-4 -24,-4 -3,0 -5,1 -2,1 -2,6 0,3 1,7 3,6 5,15 2,9 2,15 0,14 9,14 5,0 14,-6.5 9,-6.5 17,-14 8,-7.5 13,-14 5,-6.5 5,-8.5 0,-1 -1,-1 z m 285,37 q 0,-17 -0.5,-29.5 -0.5,-12.5 -1.5,-12.5 -2,0 -13,11 -11,11 -22.5,24.5 -11.5,13.5 -19,23.5 -7.5,10 -7.5,13 0,1 0,1 1,1 11,3.5 10,2.5 25,4.5 9,2 12.5,2.5 3.5,0.5 3.5,0.5 5,0 8,-3.5 3,-3.5 3.5,-12.5 0.5,-9 0.5,-26 z m -871,-18 q -19,-12 -25,-12 -2,0 -4.5,2 -2.5,2 -2.5,36 v 39 l 29,-17 q 27,-16 27.5,-20 0.5,-4 0.5,-4 0,-8 -25,-24 z m 62,101 q 8,-38 17,-38 5,0 10,8 8,12 24.5,21 16.5,9 41,17.5 24.5,8.5 55,16.5 30.5,8 58.5,13 48,7 134,10.5 86,3.5 231,3.5 h 285 q 7,0 7,2 0,0 -1,1 -5,6 -35,8 -30,2 -80.5,4 -50.5,2 -117,3.5 -66.5,1.5 -150.5,2.5 -74,1 -134.5,2 -60.5,1 -102.5,2.5 -42,1.5 -69.5,3 -27.5,1.5 -46,4 -18.5,2.5 -31,6 -12.5,3.5 -36.5,12.5 -14,5 -33.5,11.5 -19.5,6.5 -22.5,6.5 -4,0 -6,-11.5 -2,-11.5 -2.5,-22.5 -0.5,-11 -0.5,-16 0,-13 1.5,-32 1.5,-19 4.5,-39 z m 78,21 q -3,-1 -5,-2 l -3,-1 q -9,-3 -18,-6 h -1 q -4,-1 -8,-3 h -1 q -1,0 -1,-1 -17,-5 -20,-5 -3,0 -5,12.5 -2,12.5 -2,32.5 0,18 1.5,28 1.5,10 7,11.5 5.5,1.5 9.5,1.5 7,0 22,-3.5 15,-3.5 49,-12.5 36,-11 43,-15 7,-4 7,-6 0,-3 -8,-5 -6,-2 -26.5,-10 -20.5,-8 -40.5,-16 z"
     id="path1" />
</svg>
