<?xml version="1.0" encoding="UTF-8" standalone="no"?>
<svg
   width="2000"
   height="2000"
   version="1.1"
   id="svg1"
   sodipodi:docname="u12079.svg"
   inkscape:version="1.3.2 (091e20e, 2023-11-25)"
   xmlns:inkscape="http://www.inkscape.org/namespaces/inkscape"
   xmlns:sodipodi="http://sodipodi.sourceforge.net/DTD/sodipodi-0.dtd"
   xmlns="http://www.w3.org/2000/svg"
   xmlns:svg="http://www.w3.org/2000/svg">
  <defs
     id="defs1" />
  <sodipodi:namedview
     id="namedview1"
     pagecolor="#505050"
     bordercolor="#eeeeee"
     borderopacity="1"
     inkscape:showpageshadow="0"
     inkscape:pageopacity="0"
     inkscape:pagecheckerboard="0"
     inkscape:deskcolor="#505050"
     inkscape:zoom="0.379"
     inkscape:cx="1000"
     inkscape:cy="998.68074"
     inkscape:window-width="1392"
     inkscape:window-height="1212"
     inkscape:window-x="0"
     inkscape:window-y="0"
     inkscape:window-maximized="0"
     inkscape:current-layer="svg1" />
  <path
     d="m 846.5,635.5 q 0,-1 0,-1 0,-2 3.5,-3 3.5,-1 6.5,-1 3,0 8,1 6,2 19.5,3.5 13.5,1.5 34.5,3 21,1.5 47,3 26,1.5 55,1.5 55,3 94,7 39,4 39,10 0,4 -9,4 -12,0 -25.5,11.5 -13.5,11.5 -29,31 -15.5,19.5 -30.5,46.5 -15,27 -25,53 -7,19 -10,34.5 -3,15.5 -4.5,45 -1.5,29.5 -1.5,81 0,51.5 1,112.5 2,123 2,192 0,17 -0.5,58 -0.5,41 -7.5,41 -8,0 -9,-60.5 -1,-60.5 -2,-163.5 l -3,-227 -33,-76 q 0,0 0,-1 l -2,-3 q 0,0 0,-1 l -1,-2 q -1,-1 -1,-1 l -2,-4 q 0,0 0,-1 l -1,-3 q -1,0 -1,-1 l -1,-2 q 0,-1 0,-1 l -2,-4 q 0,0 -1,-1 l -1,-3 q 0,0 0,-1 l -2,-2 q 0,-1 0,-1 l -2,-4 q 0,0 0,-1 l -2,-3 q 0,0 0,-1 l -1,-2 q 0,-1 -1,-1 l -1,-4 q -1,0 -1,-1 l -1,-3 q 0,0 -1,-1 l -1,-2 q 0,-1 0,-1 l -2,-4 q -14,-30 -28.5,-55.5 -14.5,-25.5 -27,-44.5 -12.5,-19 -23.5,-28 -13,-9 -13,-19 z m 246,33 q 0,-2 -28.5,-3.5 -28.5,-1.5 -68.5,-1.5 -40,0 -68.5,1.5 -28.5,1.5 -28.5,4.5 0,3 10.5,19 10.5,16 16.5,25 26,37 47,88 4,9 9.5,21 5.5,12 9.5,23 l 9,22 q 2,-9 4,-19 2,-9 4.5,-20.5 2.5,-11.5 4.5,-19.5 7,-23 21,-50 14,-27 31,-51 7,-9 17,-22.5 10,-13.5 10,-16.5 z"
     id="path1" />
</svg>
