<?xml version="1.0" encoding="UTF-8" standalone="no"?>
<svg
   width="2000"
   height="2000"
   version="1.1"
   id="svg1"
   sodipodi:docname="u12074.svg"
   inkscape:version="1.3.2 (091e20e, 2023-11-25)"
   xmlns:inkscape="http://www.inkscape.org/namespaces/inkscape"
   xmlns:sodipodi="http://sodipodi.sourceforge.net/DTD/sodipodi-0.dtd"
   xmlns="http://www.w3.org/2000/svg"
   xmlns:svg="http://www.w3.org/2000/svg">
  <defs
     id="defs1" />
  <sodipodi:namedview
     id="namedview1"
     pagecolor="#505050"
     bordercolor="#eeeeee"
     borderopacity="1"
     inkscape:showpageshadow="0"
     inkscape:pageopacity="0"
     inkscape:pagecheckerboard="0"
     inkscape:deskcolor="#505050"
     inkscape:zoom="0.379"
     inkscape:cx="1000"
     inkscape:cy="998.68074"
     inkscape:window-width="1392"
     inkscape:window-height="1212"
     inkscape:window-x="0"
     inkscape:window-y="0"
     inkscape:window-maximized="0"
     inkscape:current-layer="svg1" />
  <path
     d="m 691.5,662.5 q 9,-21 16,-24 7,-3 8,-3 3,0 3,6 0,7 -5,23 -9,30 -9.5,42.5 -0.5,12.5 -0.5,13.5 0,25 12,61 9,33 21.5,50 12.5,17 45.5,44 18,15 47.5,41.5 29.5,26.5 47.5,42.5 27,26 45.5,40 18.5,14 29.5,14 10,0 10,10 0,1 -0.5,7 -0.5,6 -18.5,12 -11,4 -41,17.5 -30,13.5 -49,22.5 -62,30 -110,64.5 -48,34.5 -87,72 -39,37.5 -63,73 -24,35.5 -24,57.5 0,15 -9,15 -4,0 -7,-6.5 -3,-6.5 -3,-17.5 0,-15 -7,-40.5 -7,-25.5 -16.5,-52.5 -9.5,-27 -21,-50 -11.5,-23 -26.5,-38 -7,-9 -15.5,-20.5 -8.5,-11.5 -8.5,-17.5 0,-5 6,-5 4,0 13.5,2.5 9.5,2.5 15.5,11.5 6,11 26,16 20,5 42.5,7 22.5,2 42.5,2 8,0 25.5,-0.5 17.5,-0.5 37.5,-4.5 l 33,-9 -2,-75 q 0,-32 -3,-62 -3,-30 -9,-42 -7,-21 -9.5,-22 -2.5,-1 -2.5,-1 -4,0 -10,8 -11,15 -14,39 -3,24 -3,66 0,36 -2,60 -2,24 -5,24 -5,0 -8,-21.5 -3,-21.5 -6,-51.5 -1,-30 -6.5,-59.5 -5.5,-29.5 -8.5,-41.5 -9,-21 -11,-22 -2,-1 -3,-1 -3,0 -7,7 -18,24 -18,105 0,36 -3,62 -3,26 -6,29 -1,0 -1,0 -9,0 -9,-57 0,-27 -2.5,-42.5 -2.5,-15.5 -9.5,-22 -7,-6.5 -18,-6.5 -3,0 -12,1 -9,1 -29,6 -75,18 -123.5,63 -48.5,45 -57.5,103 -5,35 -20,35 -8,0 -8,-10 0,-6 2,-14 5,-15 9.5,-43 4.5,-28 6.5,-58 2,-30 2.5,-50 0.5,-20 0.5,-29 0,-18 -1,-32 l -4,-61 33,33 q 12,12 21,18.5 9,6.5 21,9.5 12,3 31.5,4.5 19.5,1.5 53.5,3.5 l 93,3 -7,-30 q -5,-12 -11.5,-26.5 -6.5,-14.5 -18.5,-27.5 -9,-9 -9,-11 0,-1 1,-1 21,-2 43,-2.5 22,-0.5 40.5,-0.5 18.5,0 30.5,0.5 12,0.5 14,2.5 0,1 13.5,2.5 13.5,1.5 32,1.5 18.5,0 41,-1.5 22.5,-1.5 28.5,-1.5 18,-2 18,-6 0,-3 -12.5,-9.5 -12.5,-6.5 -56.5,-20.5 -43,-15 -64.5,-18.5 -21.5,-3.5 -42.5,-3.5 -13,0 -29,1 -14,1 -24,1 -23,0 -23,-6 0,-5 23,-17 21,-12 45.5,-31.5 24.5,-19.5 48.5,-43.5 24,-24 43,-46 19,-22 28,-40 z m 271,-1 q 4,-4 8,-4 4,0 9.5,5 5.5,5 5.5,15 0,14 15.5,29 15.5,15 40.5,33.5 25,18.5 56.5,38 31.5,19.5 55.5,31.5 31,17 73,32 42,15 77,27 96,28 165,49 69,21 114.5,36 45.5,15 69.5,24 24,9 33,15 8,5 15,7 7,2 10,2 3,0 5,-1 2,-2 5,-2 4,0 9,6 0,1 0,1 0,11 -47,22 -21,4 -69.5,17 -48.5,13 -100.5,25.5 -52,12.5 -101.5,24 -49.5,11.5 -76.5,17.5 -78,18 -153,41 -75,23 -138.5,48 -63.5,25 -108.5,48 -45,23 -59,46 -7,13 -14.5,13 -7.5,0 -7.5,-16 0,-21 12,-21 10,0 11.5,-10.5 1.5,-10.5 1.5,-16.5 0,-12 -5,-31 -5,-19 -16.5,-38.5 -11.5,-19.5 -32.5,-25.5 -9,-3 -9,-5 0,-3 11.5,-6 11.5,-3 38.5,-3 12,0 27,1 20,1 42,1 44,0 108,-5 64,-5 154,-18.5 90,-13.5 187.5,-34 97.5,-20.5 193.5,-44.5 l 104,-27 -147,-48 q -71,-22 -119,-37 -48,-15 -89,-25 -41,-10 -84,-18 -43,-8 -100,-17 -73,-11 -116,-14.5 -43,-3.5 -74,-3.5 -20,0 -39,1 -24,2 -46.5,2 -22.5,0 -22.5,-2 0,-3 9,-9 9,-6 22,-12 12,-7 30,-23 18,-16 35,-37 16,-22 19.5,-33 3.5,-11 3.5,-22 0,-8 -1,-18 -2,-12 -2,-19 0,-8 2,-11 z m 65,91 q -12,-9 -23,-15 -11,-6 -15,-6 -1,0 -1,0 -3,0 -13.5,13.5 -10.5,13.5 -22.5,31.5 l -30,45 81,8 q 34,3 70,5 36,2 54,5 l 42,6 -55,-34 q -24,-15 -49.5,-31.5 -25.5,-16.5 -37.5,-27.5 z m -335,8 q 0,-28 -12,-28 -1,0 -8,1 -7,1 -59,48 -33,30 -34.5,33.5 -1.5,3.5 -1.5,4.5 0,5 15,5 15,0 36,4.5 21,4.5 42,12.5 16,6 26,8 10,2 14,2 5,0 6,-1 2,-2 2,-5 0,-3 -2.5,-9.5 -2.5,-6.5 -8.5,-18.5 -7,-12 -11,-27 -4,-15 -4,-30 z m 180,220 q -19,-19 -41,-38 -22,-19 -38,-29 -14,-9 -20,-9 0,0 -3,0.5 -3,0.5 -13,12.5 -8,8 -15.5,18.5 -7.5,10.5 -10.5,17.5 -4,11 -7,39.5 -3,28.5 -3,58.5 0,30 1.5,52.5 1.5,22.5 5.5,22.5 0,0 0,0 0,0 0,0 h 1 q 0,-1 1,-1 1,0 1,0 l 1,-1 q 1,-1 3,-1 l 1,-1 q 1,0 2,-1 l 3,-2 q 8,-3 19,-9 28,-14 67,-35 l 93,-45 z m -303,-54 q 0,-7 -19,-7 -12,0 -13,2 -1,2 -1,3 0,4 5,13 7,14 13,14 4,0 8,-7 0,0 0,0 0,-1 0,-1 l 1,-1 q 0,-1 0,-1 l 1,-1 q 0,0 0,0 0,-1 0,-1 0,0 1,-1 0,0 0,-1 1,-1 1,-2 3,-6 3,-9 z m 69,17 q 1,-4 1,-6 0,-8 -10,-8 -10,0 -11.5,5.5 -1.5,5.5 -1.5,6.5 0,6 6,9 3,2 6,2 6,0 10,-9 z m 75,3 q 2,-6 2,-9 0,-8 -8,-8 -8,0 -8,8 0,5 2,12 3,9 5,9 3,0 4.5,-4.5 1.5,-4.5 2.5,-7.5 z m -340,63 q -17,-5 -30.5,-10 -13.5,-5 -16.5,-7 -1,-1 -2,-1 -9,0 -13,46 v 2 q 0,1 0,2 v 2 q 0,1 0,2 v 1 q 0,1 0,1 v 2 q 0,0 0,1 v 1 q 0,1 0,1 v 1 q 0,1 0,1 v 2 q 0,0 0,1 v 12 q 0,1 0,1 v 3 q 0,15 2,15 3,-3 17,-12.5 14,-9.5 34,-23.5 l 45,-33 z m 726,144 q 24,-10 24,-12 0,-1 -1,-1 -1,0 -2,0 -8,0 -33,4 -41,6 -76,8 -35,2 -65,2 l -72,2 15,40 q 7,17 11.5,29 4.5,12 4.5,15 11,-5 26,-11 10,-4 24.5,-10 14.5,-6 38.5,-18 25,-12 58,-26.5 33,-14.5 47,-21.5 z m -426,18 q 0,-4 -3,-4 -1,0 -3,1 -3,0 -25.5,1.5 -22.5,1.5 -46.5,2.5 -51,3 -60,5.5 -9,2.5 -9,11.5 0,3 1,7 2,3 8,19 6,16 9,26 17,48 28,48 5,0 9,-12 5,-15 19,-30.5 14,-15.5 31,-30.5 18,-14 30,-26.5 12,-12.5 12,-18.5 z"
     id="path1" />
</svg>
