<?xml version="1.0" encoding="UTF-8" standalone="no"?>
<svg
   width="2000"
   height="2000"
   version="1.1"
   id="svg1"
   sodipodi:docname="u120FC.svg"
   inkscape:version="1.3.2 (091e20e, 2023-11-25)"
   xmlns:inkscape="http://www.inkscape.org/namespaces/inkscape"
   xmlns:sodipodi="http://sodipodi.sourceforge.net/DTD/sodipodi-0.dtd"
   xmlns="http://www.w3.org/2000/svg"
   xmlns:svg="http://www.w3.org/2000/svg">
  <defs
     id="defs1" />
  <sodipodi:namedview
     id="namedview1"
     pagecolor="#505050"
     bordercolor="#eeeeee"
     borderopacity="1"
     inkscape:showpageshadow="0"
     inkscape:pageopacity="0"
     inkscape:pagecheckerboard="0"
     inkscape:deskcolor="#505050"
     inkscape:zoom="0.379"
     inkscape:cx="1000"
     inkscape:cy="998.68074"
     inkscape:window-width="1392"
     inkscape:window-height="1212"
     inkscape:window-x="0"
     inkscape:window-y="0"
     inkscape:window-maximized="0"
     inkscape:current-layer="svg1" />
  <path
     d="m 1146,674 q 9,-12 20.5,-24 11.5,-12 17.5,-12 4,0 4,4 0,4 -3,10 -3,7 -7.5,12.5 -4.5,5.5 -7.5,6.5 -4,3 -4.5,12.5 -0.5,9.5 -0.5,14.5 0,12 2,29.5 2,17.5 6.5,39 4.5,21.5 11.5,39.5 6,14 13.5,26 7.5,12 21,25.5 13.5,13.5 37.5,32 24,18.5 48,36.5 56,44 81.5,65 25.5,21 25.5,27 0,0 0,0 0,0 -1,0 -7,0 -40,-24 -13,-11 -52,-40 -39,-29 -71.5,-52.5 -32.5,-23.5 -57,-39 Q 1166,847 1149,839 q -36,-18 -56,-19 -20,-1 -22,-1 -35,0 -67,22 -12,7 -16,7 -2,0 -2,-2 0,-2 7.5,-13.5 7.5,-11.5 49.5,-47.5 34,-31 62,-60.5 28,-29.5 41,-50.5 z m 8,63 q 0,-13 -1.5,-23 -1.5,-10 -4.5,-10 -2,0 -17.5,14.5 Q 1115,733 1094,754 l -50,51 h 36 q 15,0 34.5,4.5 19.5,4.5 40.5,13.5 6,3 16,7.5 10,4.5 11,4.5 -1,-5 -3,-11 -3,-4 -5,-9.5 -2,-5.5 -4,-9.5 -7,-17 -11,-35.5 -4,-18.5 -5,-32.5 z m -599,65 q -2,-7 -2,-11 0,-8 8,-8 10,0 33,13 21,10 42,17.5 21,7.5 47.5,12 26.5,4.5 58.5,7 32,2.5 82,2.5 40,0 74,1.5 34,1.5 37,4.5 0,0 0,0 0,3 -37.5,5 -37.5,2 -108.5,4 -48,1 -78,2 -30,1 -48,3 -18,2 -27.5,5 -9.5,3 -21.5,9 -11,6 -20.5,13 -9.5,7 -9.5,10 0,12 69,31 45,14 76.5,17 31.5,3 88.5,3 h 99 l 34,-33 q 27,-26 32,-27 5,-1 5,-1 2,0 2,2 0,4 -13,21 -11,14 -24.5,34 -13.5,20 -24,39.5 -10.5,19.5 -18,36 -7.5,16.5 -7.5,25.5 0,12 9,15 9,2 9,12 0,2 -1,5 -1,2 -1,4 0,11 25,27 12,8 30,24 1,1 3,3 l 2,2 q 8,7 15,13 l 2,1 q 4,4 8,7 19,18 31,26 12,8 24.5,10.5 12.5,2.5 24.5,2.5 6,0 19,-1 13,-1 48,-7 21,-4 33.5,-7 12.5,-3 28.5,-11.5 16,-8.5 41.5,-25 25.5,-16.5 61.5,-40.5 55,-37 89,-57.5 34,-20.5 41,-20.5 3,0 3.5,1 0.5,1 0.5,1 0,2 -12.5,11.5 -12.5,9.5 -42.5,29.5 -30,20 -55,38 -86,57 -129.5,89.5 -43.5,32.5 -55.5,48.5 -4,6 -12.5,22 -8.5,16 -15,31.5 -6.5,15.5 -11,30 -4.5,14.5 -4.5,26.5 0,11 -3,11 -2,0 -8,-7 -6,-7 -21,-46 -15,-39 -30.5,-69 -15.5,-30 -36,-55 Q 993,1160 966,1137.5 939,1115 902,1091 l -41,-27 -118,3 q -42,0 -66,1 -24,1 -38.5,3 -14.5,2 -22,6 -7.5,4 -16.5,10 -17,12 -17,19 0,2 4,6.5 4,4.5 43,19.5 26,10 40,14 14,4 32,6 18,2 44.5,3.5 26.5,1.5 68.5,3.5 51,0 87.5,3 36.5,3 36.5,6 0,3 -41,4.5 -41,1.5 -103,1.5 -45,0 -74,0.5 -29,0.5 -48,2 -19,1.5 -29.5,4 -10.5,2.5 -22.5,8.5 -9,4 -20,11 -11,7 -19,16 -6,8 -10,8 -3,0 -6,-5.5 -3,-5.5 -3,-43.5 0,-21 -1.5,-37.5 -1.5,-16.5 -4.5,-20.5 -3,-3 -3,-10 0,-1 0.5,-6 0.5,-5 3.5,-11 3,-12 3,-26 0,-15 -3,-33 -5,-17 -5,-27 0,-8 4,-9 3,-1 4.5,-13 1.5,-12 1.5,-27 0,-15 -2.5,-29.5 Q 558,911 555,904 q -5,-7 -5,-12 0,-4 4,-6 4,-2 6.5,-11.5 2.5,-9.5 2.5,-22.5 0,-13 -1.5,-27 -1.5,-14 -6.5,-23 z m 63,19 q -13,-6 -25,-11 -12,-5 -15,-5 -2,0 -2.5,5.5 -0.5,5.5 -0.5,7.5 0,9 3,30 0,3 0.5,13 0.5,10 2.5,10 4,-2 9,-5 3,-3 8,-5 5,-2 11,-5 12,-6 23.5,-10.5 11.5,-4.5 17.5,-4.5 1,0 1,-1 0,-1 -6.5,-5.5 Q 638,830 618,821 Z m 2,108 q -38,-15 -44,-15 -1,0 -1,9 0,9 1,23 l 3,31 35,-16 q 15,-6 25.5,-11.5 10.5,-5.5 10.5,-6.5 0,-3 -10.5,-7 -10.5,-4 -19.5,-7 z m 271,29 H 776 q -89,0 -127,6.5 -38,6.5 -59,26.5 -6,6 -6,9 0,0 0.5,1.5 0.5,1.5 9.5,7.5 12,7 30,14.5 18,7.5 37,13.5 19,6 36,10 17,4 28,4 24,0 63.5,-21 39.5,-21 77.5,-51 z m 26,10 q 0,-4 -3,-4 -3,0 -11.5,5 -8.5,5 -33.5,25 -42,31 -47,37 -5,6 -5,8 0,4 11,4 8,0 18.5,1.5 10.5,1.5 19.5,3.5 10,2 15,2 2,0 4.5,-1 2.5,-1 2.5,-12 0,-9 4,-21 4,-12 11,-21 6,-10 10,-17.5 4,-7.5 4,-9.5 z m -305,68 q -26,-13 -34,-13 -1,0 -4.5,1 -3.5,1 -3.5,30 0,25 5,25 4,0 34,-15 l 33,-16 z m 20,112 q -21,-9 -31,-12 -10,-3 -14,-3 -2,0 -5,1 -3,1 -3.5,7.5 -0.5,6.5 -0.5,20.5 v 34 l 19,-10 q 8,-6 20.5,-11.5 12.5,-5.5 21.5,-8.5 l 21,-7 z m 529,65 q 9,-9 9,-13 0,-2 -2,-2.5 -2,-0.5 -4,-0.5 -9,0 -30,5 -18,5 -24.5,5.5 -6.5,0.5 -7.5,0.5 -10,0 -19,-3 -5,-1 -9,-1 -12,0 -13,5 -1,5 -1,6 0,13 17,52 8,16 15.5,30.5 7.5,14.5 8.5,14.5 2,0 8,-11.5 6,-11.5 9,-18.5 12,-24 22.5,-41.5 10.5,-17.5 20.5,-27.5 z"
     id="path1" />
</svg>
