<?xml version="1.0" encoding="UTF-8" standalone="no"?>
<svg
   width="2000"
   height="2000"
   version="1.1"
   id="svg1"
   sodipodi:docname="u12096.svg"
   inkscape:version="1.3.2 (091e20e, 2023-11-25)"
   xmlns:inkscape="http://www.inkscape.org/namespaces/inkscape"
   xmlns:sodipodi="http://sodipodi.sourceforge.net/DTD/sodipodi-0.dtd"
   xmlns="http://www.w3.org/2000/svg"
   xmlns:svg="http://www.w3.org/2000/svg">
  <defs
     id="defs1" />
  <sodipodi:namedview
     id="namedview1"
     pagecolor="#505050"
     bordercolor="#eeeeee"
     borderopacity="1"
     inkscape:showpageshadow="0"
     inkscape:pageopacity="0"
     inkscape:pagecheckerboard="0"
     inkscape:deskcolor="#505050"
     inkscape:zoom="0.379"
     inkscape:cx="1000"
     inkscape:cy="998.68074"
     inkscape:window-width="1392"
     inkscape:window-height="1212"
     inkscape:window-x="0"
     inkscape:window-y="0"
     inkscape:window-maximized="0"
     inkscape:current-layer="svg1" />
  <path
     d="m 1309.5,638.5 q 0,-3 5,-3 5,0 13,2 15,4 33,5 18,1 31,1 9,0 17,0 0,0 1,0 h 2 q 2,0 4,0 h 1 q 1,0 2,0 h 1 q 1,0 2,0 h 2 q 1,0 2,0 h 1 q 1,0 3,0 h 10 q 1,0 2,0 h 3 q 16,0 16,1 0,2 -7.5,18.5 -7.5,16.5 -13.5,28.5 -18,39 -25.5,71 -7.5,32 -11,73.5 -3.5,41.5 -4.5,94 -1,52.5 -1,155.5 v 2 q 0,0 0,0 v 2 q 0,0 0,0 v 1 q 0,0 0,0 v 3 q 0,0 0,1 v 1 q 0,0 0,1 v 19 q 0,1 0,3 0,27 2,47 v 6 q 0,1 0,2 v 3 q 0,1 0,1 v 2 q 0,0 0,1 v 22 h 16 q 12,0 12,8 0,7 -13,7 h -15 v 54 q 0,21 -1.5,34 -1.5,13 -6.5,13 -3,0 -5,-13.5 -2,-13.5 -2,-34.5 v -53 l -173,2 v 66 q -3,55 -10,55 -1,0 -5,-1.5 -4,-1.5 -4,-59.5 v -59 l -56,5 q -31,1 -54.5,5.5 -23.5,4.5 -42,13 -18.5,8.5 -36,21 -17.5,12.5 -36.5,33.5 -17,17 -29.5,33.5 -12.5,16.5 -15.5,20.5 -2,6 -4,8 -2,2 -3,2 -1,0 -2,-2 -3,-3 -3,-20 0,-3 0.5,-16.5 0.5,-13.5 5.5,-44.5 3,-29 6,-68.5 3,-39.5 3,-72.5 0,-18 0.5,-35.5 0.5,-17.5 2.5,-17.5 1,0 11.5,9 10.5,9 16.5,15 20,18 50,37 30,19 60,32 42,21 62,22.5 20,1.5 25,1.5 l 39,-1 v -69 q 0,-53 -10.5,-93.5 -10.5,-40.5 -40.5,-98.5 -6,-12 -10.5,-22 -4.5,-10 -4.5,-13 0,-1 11,-1 5,0 21,0.5 16,0.5 44.5,2 28.5,1.5 54,4 25.5,2.5 26.5,3.5 0,0 0,1 0,3 -6,11.5 -6,8.5 -18,22.5 -12,13 -21,26 -9,13 -15,29.5 -6,16.5 -8,40.5 -2,24 -2,64 l -2,92 173,1 -3,-160 q -2,-62 -5,-110.5 -3,-48.5 -9.5,-89 -6.5,-40.5 -16.5,-77.5 -10,-37 -26,-82 -5,-12 -10,-27 -5,-15 -5,-18 z m -318,60 q 0,-18 2,-29 2,-11 5,-11 6,0 23,16 12,14 30,26.5 18,12.5 37,21.5 11,6 22,10.5 11,4.5 25.5,6 14.5,1.5 36.5,1.5 1,0 2,0 h 6 q 3,0 7,0 h 2 q 1,0 1,0 h 6 q 1,0 1,0 h 34 q 29,-2 52,-2 11,0 31,1 20,1 20,3 0,10 -27,13 -27,3 -87,3 -57,0 -87.5,3 -30.5,3 -52.5,10 -22,7 -37,19.5 -15,12.5 -28,30.5 -8,12 -16,20.5 -8,8.5 -11,8.5 -3,0 -3.5,-11 -0.5,-11 -0.5,-17 0,-13 1,-29 3,-23 4.5,-51.5 1.5,-28.5 1.5,-43.5 z m 436,-30 q 0,-3 -13.5,-4.5 -13.5,-1.5 -32.5,-2.5 h -4 q -2,0 -3,0 h -2 q -1,0 -2,0 h -1 q 0,0 0,0 h -5 q -2,0 -3,0 h -13 q -14,0 -14,1 l 5,14 q 0,0 0,0 v 1 q 0,1 0,1 l 1,1 q 0,0 0,0 v 1 q 0,1 1,1 v 1 q 0,0 0,0 v 1 q 0,1 1,1 v 1 q 0,0 0,0 v 1 q 1,1 1,1 v 1 q 0,0 0,0 l 1,1 q 0,1 0,1 l 1,1 q 3,7 6,18 6,19 12,43 6,24 9,39 l 6,38 16,-60 q 6,-26 13.5,-47.5 7.5,-21.5 10.5,-30.5 3,-6 6,-13 3,-7 3,-10 z m -688,44 q 44,-41 57,-41 5,0 5,8 0,6 -4,19 -7,17 -7,33 0,15 9,37 9,22 57,68 16,15 44.5,40.5 28.5,25.5 48.5,40.5 18,17 29,30 11,13 11,17 0,1 0,1 -3,3 -30,7 -27,4 -60,7 -37,3 -62.5,7.5 -25.5,4.5 -44.5,13.5 -19,9 -35.5,22.5 -16.5,13.5 -34.5,35.5 -9,12 -16,19.5 -7,7.5 -10,7.5 -1,0 -2,-1 -2,-3 -3.5,-34 -1.5,-31 -2,-59 -0.5,-28 -0.5,-45 0,-17 0.5,-39.5 0.5,-22.5 2.5,-22.5 3,0 10.5,9 7.5,9 14.5,20 14,21 25,31.5 11,10.5 28.5,15.5 17.5,5 34,5.5 16.5,0.5 23.5,0.5 23,0 57,-2 32,-3 54,-5.5 22,-2.5 22,-6.5 0,-1 -1,-2 -1,-1 -23.5,-20.5 -22.5,-19.5 -36.5,-31.5 -42,-36 -62,-51 -20,-15 -40.5,-24 -20.5,-9 -45,-13.5 -24.5,-4.5 -59.5,-9.5 l -51,-6 -9,30 q -9,29 -14,57.5 -5,28.5 -8,56.5 -3,28 -3,58 0,5 0.5,25.5 0.5,20.5 2.5,65.5 l 6,123 h 34 q 18,0 34,-4 16,-4 37,-15 21,-11 50,-32 29,-21 82,-62 39,-30 65,-49.5 26,-19.5 39,-27.5 13,-8 16,-8 3,0 4,1 0,0 0,1 0,6 -28.5,30.5 -28.5,24.5 -85.5,67.5 -19,15 -41.5,32.5 -22.5,17.5 -37,32.5 -14.5,15 -25,28.5 -10.5,13.5 -23.5,35.5 -11,18 -20.5,37 -9.5,19 -9.5,25 0,9 -12,33 l -11,28 -28,-42 q -12,-16 -29.5,-38.5 -17.5,-22.5 -30.5,-37.5 -14,-15 -19,-23 -5,-8 -5,-12 0,-4 3,-6 3,-2 6,-2 3,0 6,2 1,1 2,1 7,0 7.5,-17 0.5,-17 0.5,-22 0,-32 -3,-89 -4,-122 -14,-184 -10,-62 -32,-94 -8,-10 -8,-16 0,-6 13,-7 13,-1 26,-1 8,0 18,0 26,0 41.5,-1.5 15.5,-1.5 30,-8 14.5,-6.5 32.5,-21 18,-14.5 39,-33.5 z m 327,16 q -12,-6 -24,-13.5 -12,-7.5 -18,-11.5 -5,-5 -8,-5 -3,0 -5,4.5 -2,4.5 -5,42.5 -2,19 -2.5,30 -0.5,11 -0.5,15 0,8 1,9 0,0 1,0 2,0 7.5,-4 5.5,-4 14.5,-11 7,-8 20,-17 13,-9 23,-13 l 24,-11 z m -279,60 q -5,-9 -8,-22.5 -3,-13.5 -4,-25.5 l -6,-31 -83,72 33,4 q 14,3 29.5,5.5 15.5,2.5 27.5,6.5 6,2 9,2 2,0 3,-0.5 1,-0.5 1,-2.5 0,-3 -2,-8 z m -168,21 q 2,-6 2,-10 0,-4 -2.5,-6 -2.5,-2 -23.5,-2 h -30 l 18,44 q 13,31 14.5,32.5 1.5,1.5 2.5,1.5 3,0 8,-19 2,-6 5,-19 3,-13 6,-22 z m 633,117 h -48 q 0,1 0,1 h -1 q -1,0 -1,-1 h -1 q -1,0 -1,0 h -1 q -1,0 -2,0 h -2 q -2,0 -4,0 h -3 q 0,0 -1,0 h -11 q 0,0 -1,0 h -1 q 0,0 -1,0 h -1 q -13,0 -13,2 0,1 6,15.5 6,14.5 13,35.5 l 21,49 9,-30 q 5,-12 12.5,-27 7.5,-15 14.5,-24 z m -497,50 q -9,-5 -18.5,-13 -9.5,-8 -15.5,-14 -7,-7 -10,-7 -2,0 -3.5,4 -1.5,4 -1.5,43 v 54 l 67,-55 z m 212,163 q -11,-12 -17,-12 -2,0 -5.5,3 -3.5,3 -3.5,33 0,15 -1.5,41.5 -1.5,26.5 -4.5,48.5 l -6,54 44,-40 q 19,-17 35,-27.5 16,-10.5 19,-11.5 l 52,-20 -46,-22 q -20,-11 -38,-23 -18,-12 -28,-24 z m -257,111 q 16,-28 16,-35 0,-1 -0.5,-3 -0.5,-2 -3.5,-2 -4,0 -10,4 -11,8 -28,11 -17,3 -35,3 h -44 l 35,45 q 33,43 44,43 5,0 5,-10 0,-11 6,-25 6,-14 15,-31 z"
     id="path1" />
</svg>
