<?xml version="1.0" encoding="UTF-8" standalone="no"?>
<svg
   width="2000"
   height="2000"
   version="1.1"
   id="svg1"
   sodipodi:docname="u12066.svg"
   inkscape:version="1.3.2 (091e20e, 2023-11-25)"
   xmlns:inkscape="http://www.inkscape.org/namespaces/inkscape"
   xmlns:sodipodi="http://sodipodi.sourceforge.net/DTD/sodipodi-0.dtd"
   xmlns="http://www.w3.org/2000/svg"
   xmlns:svg="http://www.w3.org/2000/svg">
  <defs
     id="defs1" />
  <sodipodi:namedview
     id="namedview1"
     pagecolor="#505050"
     bordercolor="#eeeeee"
     borderopacity="1"
     inkscape:showpageshadow="0"
     inkscape:pageopacity="0"
     inkscape:pagecheckerboard="0"
     inkscape:deskcolor="#505050"
     inkscape:zoom="0.379"
     inkscape:cx="1000"
     inkscape:cy="998.68074"
     inkscape:window-width="1392"
     inkscape:window-height="1212"
     inkscape:window-x="0"
     inkscape:window-y="0"
     inkscape:window-maximized="0"
     inkscape:current-layer="svg1" />
  <path
     d="m 1730,706.5 q 22,-27 31,-33 9,-6 12,-6 3,0 3,3 0,5 -6.5,15.5 -6.5,10.5 -17.5,26.5 -9,13 -20,31.5 -11,18.5 -20,36.5 -9,18 -14,33 -5,15 -5,26 0,10 3,10 0,0 1.5,-0.5 1.5,-0.5 14.5,-16.5 25,-28 33,-28 1,0 1.5,1 0.5,1 0.5,3 0,9 -17,35 l -24,35 43,38 q 18,16 31,31 13,15 13,22 0,3 -2,3 -8,0 -38,-28 -20,-19 -34,-29 -14,-10 -19,-10 -1,0 -2,0 -4,1 -9,16 -5,15 -10,39 -2,10 -2.5,16.5 -0.5,6.5 -0.5,10.5 0,4 1,9 1,5 7,11 6,6 17,15 10,8 16,12.5 6,4.5 8.5,5 2.5,0.5 4.5,0.5 2,0 5.5,-1.5 3.5,-1.5 8.5,-6.5 11,-11 17,-11 1,0 2.5,1.5 1.5,1.5 1.5,4.5 0,6 -7,18 -3,10 -3,17 0,1 0.5,5 0.5,4 10.5,14 9,11 9,16 0,3 -2,4.5 -2,1.5 -4,1.5 -7,0 -21,-13 -5,-4 -8,-6.5 -3,-2.5 -5,-2.5 -2,0 -5,2.5 -3,2.5 -8.5,13 -5.5,10.5 -9.5,19.5 -28,53 -28,71 0,10 8,10 3,0 4,2 1,2 1,3 0,2 -1,3 0,1 0,1 0,6 12.5,22 12.5,16 38.5,40 26,23 34,34 8,11 8,16 0,4 -2,6 -2,2 -5,2 -6,0 -14,-12 -3,-9 -15.5,-21 -12.5,-12 -28.5,-25.5 -16,-13.5 -34,-26 -18,-12.5 -31,-18.5 -14,-8 -31,-12.5 -17,-4.5 -35,-4.5 -9,0 -18,-1 -9,-1 -9,-3 0,-2 5.5,-9 5.5,-7 15.5,-15 l 22,-19 -23,-16 q -12,-7 -27,-12.5 -15,-5.5 -25,-6.5 -10,-1 -16,-1 -6,0 -13,1 -7,1 -7,6 0,4 -6,8.5 -6,4.5 -29,12 -23,7.5 -67,19.5 -44,12 -119,33 -15,3 -37.5,8 -22.5,5 -47,9.5 -24.5,4.5 -50,8.5 -25.5,4 -48.5,6 -49,7 -93.5,15.5 -44.5,8.5 -79.5,18.5 -35,10 -59.5,21.5 -24.5,11.5 -41.5,29.5 -8,9 -9.5,9.5 -1.5,0.5 -1.5,0.5 -2,0 -2,-10 0,-10 2.5,-17 2.5,-7 5.5,-8 5,-2 6.5,-14 1.5,-12 1.5,-27 0,-12 -1,-20 -1,-8 -5.5,-15.5 -4.5,-7.5 -13.5,-17 -9,-9.5 -25,-23.5 -44,-42 -75,-61 -31,-19 -59,-25 l -30,-6 -5,71 q -2,22 -2.5,31 -0.5,9 -0.5,13 0,8 1,15.5 1,7.5 3.5,12.5 2.5,5 9.5,11 5,3 5,5 0,2 -9,6 -12,5 -12,43 0,16 -2.5,27 -2.5,11 -5.5,11 -5,0 -7,-11 -2,-11 -2,-26 v -38 h -54 q -33,0 -46,2.5 -13,2.5 -18,10.5 -5,10 -6,10.5 -1,0.5 -1,0.5 -2,0 -7,-9 -3,-8 -8.5,-9.5 -5.5,-1.5 -9.5,-1.5 -8,0 -22,3 -15,1 -26,3.5 -11,2.5 -13,4.5 -2,2 -16,4 -14,2 -33,2 -20,0 -38.5,5 -18.5,5 -43.5,19 -24,13 -33,13 -1,0 -3,-0.5 -2,-0.5 -2,-4.5 0,-6 7,-19 16,-31 16,-67.5 0,-36.5 -9,-74.5 -3,-16 -3,-22 0,-2 0.5,-4 0.5,-2 2.5,-2 1,0 4,1.5 3,1.5 8.5,8.5 5.5,7 10.5,18 8,19 19,29 11,10 37,22 18,8 27.5,11 9.5,3 13.5,3 6,0 10.5,-6 4.5,-6 4.5,-28.5 0,-22.5 -2,-62.5 -3,-73 -9.5,-120.5 -6.5,-47.5 -14.5,-71.5 -2,-5 -2,-8 0,-5 3,-5.5 3,-0.5 4,-0.5 9,0 18,10 9,9 21,12 12,3 24,3 12,0 20.5,-3 8.5,-3 8.5,-13 0,-9 5,-9 5,0 17,8 16,12 27,14 11,2 20,2 4,0 7,0 10,-2 17,-2 9,0 11.5,3 2.5,3 2.5,5 0,4 -9,8 -13,7 -20.5,26 -7.5,19 -13.5,47 -6,28 -10,63.5 -4,35.5 -5,74.5 l -3,75 114,6 v -88 q 0,-79 -8,-144.5 -8,-65.5 -22,-108.5 l -14,-41 -69,5 q -79,7 -127,17 -48,10 -71,22 -12,7 -20,10.5 -8,3.5 -10,3.5 -1,0 -1,0 -1,0 -1,-2 0,-3 2.5,-10.5 2.5,-7.5 7.5,-18.5 5,-9 7.5,-16.5 2.5,-7.5 3,-13.5 0.5,-6 0.5,-9 0,-7 -1,-17 -1,-10 -3,-27 -4,-25 -4,-40 0,-10 2,-15 2,-5 4,-5 4,0 10,18 6,15 12,23 6,8 16,15 10,7 26,13.5 16,6.5 29,10.5 33,11 69.5,15.5 36.5,4.5 61.5,5.5 25,1 37,1 20,0 41.5,-2 21.5,-2 21.5,-10 0,-4 -4.5,-14 -4.5,-10 -9.5,-19.5 -5,-9.5 -11,-17 -6,-7.5 -10,-7.5 -2,0 -5,-3.5 -3,-3.5 -3,-8.5 0,-7 2.5,-7.5 2.5,-0.5 3.5,-0.5 4,0 16,4 10,5 38,7 28,2 59,2 32,2 54.5,4 22.5,2 22.5,3 0,2 -12,7.5 -12,5.5 -30,9.5 -23,8 -35,17 -12,9 -22,29 -10,15 -15.5,30.5 -5.5,15.5 -5.5,26.5 0,11 5,13 5,2 18,2 5,0 11,0 11,-1 19,-1 14,0 17.5,2.5 3.5,2.5 3.5,3.5 0,5 -17,12 -22,9 -34,44 -16,43 -18,53.5 -2,10.5 -2,14.5 0,6 3,6 4,0 16,-11 12,-11 28.5,-28.5 16.5,-17.5 36.5,-39 20,-21.5 37.5,-42 17.5,-20.5 31,-37.5 13.5,-17 18.5,-25 7,-10 13,-18.5 6,-8.5 9,-8.5 5,0 12.5,-15 7.5,-15 15.5,-35 8,-20 14,-38.5 6,-18.5 6,-26.5 0,-4 0,-8 0,-5 1,-10.5 1,-5.5 3.5,-7 2.5,-1.5 3.5,-1.5 2,0 5,3 3,3 4,9 1,10 11,20.5 10,10.5 24.5,21.5 14.5,11 33.5,22 19,11 35,17 9,4 25.5,9 16.5,5 39,10 22.5,5 48.5,10 26,5 53,10 40,7 87,17 47,10 94.5,20.5 47.5,10.5 92,21.5 44.5,11 80,20 35.5,9 58,16 22.5,7 26.5,11 3,2 6,2 4,0 11,-4 7,-4 22,-18 16,-15 22,-24.5 6,-9.5 6,-12.5 0,-1 -1,-2 -2,-3 -17,-6.5 -15,-3.5 -32,-5.5 l -43,-4 62,-51 q 14,-11 28,-23.5 14,-12.5 27.5,-25.5 13.5,-13 25.5,-24.5 12,-11.5 24,-25.5 z m -788,76 q -22,-13 -39.5,-22 -17.5,-9 -18.5,-9 -2,0 -9.5,12 -7.5,12 -15.5,29 l -17,43 39,-6 q 16,-1 38,-5 22,-4 37,-5 l 38,-5 z m 741,10 q 6,-10 6,-14 0,-1 -2,-1 0,0 -4.5,1.5 -4.5,1.5 -33.5,29.5 -12,11 -19,17 -7,6 -7.5,8 -0.5,2 -0.5,3 0,3 2.5,5 2.5,2 8.5,5 12,4 21,4 21,0 21,-23 0,-8 2.5,-18 2.5,-10 5.5,-17 z m -1034,-1 q -2,-3 -11,-5 -9,-2 -24,-2 -18,0 -19.5,2.5 -1.5,2.5 -1.5,4.5 0,6 4,20 5,12 8.5,21 3.5,9 3.5,11 0,0 1,0 2,0 7.5,-6 5.5,-6 14.5,-16 9,-10 13,-18 4,-8 4,-11 z m -273,62 q 0,-3 -14,-9.5 -14,-6.5 -32,-14.5 l -48,-18 v 35 q 0,23 3,26.5 3,3.5 7,3.5 4,0 11,-3 7,-2 20.5,-5.5 13.5,-3.5 24.5,-4.5 12,-2 20,-5 8,-3 8,-5 z m 773,-11 q -31,-5 -55,-7.5 -24,-2.5 -38.5,-3.5 -14.5,-1 -24.5,-1 -10,0 -24.5,1 -14.5,1 -44.5,4 -52,4 -83,9 -31,5 -51,19 -20,14 -35.5,40.5 -15.5,26.5 -36.5,74.5 -8,16 -13,28.5 -5,12.5 -8,23 -3,10.5 -3.5,17 -0.5,6.5 -0.5,10.5 0,7 1,14 2,15 6.5,27 4.5,12 10.5,14 7,3 7,11 0,6 5.5,14 5.5,8 13.5,16 8,8 14,12 6,4 9,4 1,0 2,-1 1,-1 3,-1 3,0 13,3 10,3 23,9 11,5 25.5,9 14.5,4 32,8 17.5,4 37,8 19.5,4 39.5,7 34,5 58,6.5 24,1.5 40,1.5 16,0 40,-1.5 24,-1.5 59,-6.5 35,-5 77,-14 l 41,-10 v -63 q 0,-62 -12,-62 -4,0 -15,5.5 -11,5.5 -24,13.5 -13,8 -24.5,17 -11.5,9 -16.5,16 -6,7 -10,7 -2,0 -4,-2.5 -2,-2.5 -2,-6.5 0,-5 4,-14 6,-9 8,-21.5 2,-12.5 2,-26.5 0,-14 -2,-28 -2,-14 -7,-28 -5,-12 -5,-17 0,-4 1.5,-4.5 1.5,-0.5 2.5,-0.5 6,0 22,11 12,10 27,17 15,7 28,8 l 28,6 -6,-28 q -9,-39 -33,-86 -22,-40 -36.5,-45.5 -14.5,-5.5 -64.5,-12.5 z m -553,44 q 0,-16 -4.5,-21 -4.5,-5 -15.5,-5 -14,0 -14,6 0,4 4.5,10.5 4.5,6.5 13.5,14.5 10,9 13,9 0,0 1.5,-0.5 1.5,-0.5 1.5,-13.5 z m 711,-13 q -8,-2 -20,-5.5 -12,-3.5 -16,-3.5 -6,-1 -10,-1 -2,0 -5,0.5 -3,0.5 -3,3.5 0,4 8.5,8.5 8.5,4.5 20,8.5 11.5,4 24.5,7 13,3 22,3 11,0 11,-4 0,-2 -4,-7.5 -4,-5.5 -28,-9.5 z m -303,0 22,9 q 9,1 29,4.5 20,3.5 41,4.5 19,2 34,4.5 15,2.5 15,4.5 0,1 -5.5,9 -5.5,8 -9.5,12 -12,19 -20.5,40.5 -8.5,21.5 -13.5,46.5 -5,25 -7,43 -2,18 -2,29 0,13 2,25 2,22 2,37 0,15 -4,17 -1,0 -1,0 -3,0 -6,-9.5 -3,-9.5 -5,-28.5 -2,-19 -3.5,-45.5 -1.5,-26.5 -1.5,-57.5 -2,-69 -43,-118 z m 479,42 q -20,-5 -39,-9.5 -19,-4.5 -33.5,-8 -14.5,-3.5 -24,-6 -9.5,-2.5 -11.5,-2.5 -2,-1 -3,-1 -7,0 -19,15.5 -12,15.5 -22.5,39.5 -10.5,24 -14,40 -3.5,16 -3.5,23 0,8 3,11 2,2 11.5,3.5 9.5,1.5 25.5,2 16,0.5 36,1 20,0.5 43,0.5 15,-1 28,-1 7,0 20,0.5 13,0.5 28,1 15,0.5 23.5,1.5 8.5,1 8.5,3 0,3 -17.5,5.5 -17.5,2.5 -42.5,5 -25,2.5 -54.5,4 -29.5,1.5 -55.5,1.5 -24,0 -37.5,1.5 -13.5,1.5 -19.5,8.5 -6,7 -7.5,22 -1.5,15 -1.5,44 0,23 1,41 1,18 2,18 4,-1 9,-2 4,-1 9,-2 5,-1 11,-4 8,-3 33,-10.5 25,-7.5 38,-10.5 38,-12 55.5,-19.5 17.5,-7.5 17.5,-13.5 0,-3 6.5,-10 6.5,-7 15.5,-13 12,-6 30.5,-22 18.5,-16 36.5,-33 18,-17 30.5,-29.5 12.5,-12.5 12.5,-16.5 0,-1 0,-1 -2,-3 -12.5,-4.5 -10.5,-1.5 -22.5,-1.5 -27,0 -27,-8 0,-6 15,-16 8,-5 12.5,-10 4.5,-5 4.5,-7 0,-2 -29.5,-11 -29.5,-9 -69.5,-20 z m -163,-2 q 0,-1 0,-1 0,-4 -5.5,-7 -5.5,-3 -16.5,-3 -8,0 -13,1 -5,1 -5.5,3.5 -0.5,2.5 -0.5,3.5 0,4 2,12 2,8 8,24 l 9,35 11,-29 q 5,-13 8,-23.5 3,-10.5 3,-15.5 z m 346,5 q 6,-10 6,-13 0,-1 -1,-1 -1,0 -7.5,2.5 -6.5,2.5 -39.5,30.5 -12,11 -19.5,18.5 -7.5,7.5 -8,9.5 -0.5,2 -0.5,3 0,2 3.5,3.5 3.5,1.5 11.5,3.5 9,2 15,2 23,0 23,-21 0,-8 4.5,-18 4.5,-10 12.5,-20 z m -565,1 q 0,-5 -6,-7 -6,-2 -14,-2 -9,0 -15.5,2 -6.5,2 -6.5,5 0,1 3,9 3,8 7.5,16 4.5,8 9,14 4.5,6 6.5,6 2,0 4.5,-5 2.5,-5 5.5,-12 3,-7 4.5,-14.5 1.5,-7.5 1.5,-11.5 z m -271,82 q -1,-22 -1,-38 0,-9 0.5,-22.5 0.5,-13.5 3,-22 2.5,-8.5 6.5,-8.5 1,0 4.5,1 3.5,1 7.5,6 9,9 35.5,12.5 26.5,3.5 68.5,5.5 35,1 57.5,4 22.5,3 26,5.5 3.5,2.5 3.5,3.5 0,2 -9.5,4 -9.5,2 -38.5,2 -47,0 -81,6.5 -34,6.5 -55,22.5 -9,7 -9,10 0,1 1,2.5 1,1.5 20,9.5 5,1 15.5,2.5 10.5,1.5 24,3 13.5,1.5 29,2.5 15.5,1 31.5,1 26,0 45,2 19,2 24,4 5,2 5,4 0,1 -5.5,2.5 -5.5,1.5 -39.5,2.5 -124,4 -142,30 -4,5 -4,9 0,9 24.5,16.5 24.5,7.5 102.5,9.5 23,1 41.5,2 18.5,1 23.5,1.5 5,0.5 5,1.5 0,0 -2,1.5 -2,1.5 -7,3.5 -10,3 -29,6 -19,3 -40,3 -42,0 -71.5,8.5 -29.5,8.5 -47.5,24.5 l -19,18 v -35 q 0,-8 -0.5,-21.5 -0.5,-13.5 -1,-31 -0.5,-17.5 -1.5,-36.5 -1,-19 -1,-39 z m -195,-71 q -2,0 -9,-1.5 -7,-1.5 -17,-4.5 l -22,-5 5,62 q 3,25 4.5,43.5 1.5,18.5 3.5,19.5 0,0 0,0 1,0 6.5,-15.5 5.5,-15.5 12.5,-38.5 7,-25 11.5,-41.5 4.5,-16.5 4.5,-18.5 z m 233,25 q 2,-3 2,-5 0,-2 -2,-4.5 -2,-2.5 -8,-4.5 -3,-1 -6,-1 -6,0 -6,9 0,10 5,11 5,1 6,1 6,0 9,-6 z m -387,21 q 2,-6 2,-11 0,-11 -11,-15 -3,-1 -5,-1 -3,0 -4.5,4 -1.5,4 -1.5,21 0,18 2.5,27.5 2.5,9.5 7.5,9.5 6,0 6,-9 0,-4 1.5,-12.5 1.5,-8.5 2.5,-13.5 z m -100,13 q 5,-19 5,-27 0,-2 -1,-5.5 -1,-3.5 -11,-5.5 -4,-2 -7,-2 -3,0 -5,3 -2,3 -2,15 0,11 2,21.5 2,10.5 4,17.5 3,7 5,7 1,0 3,-2.5 2,-2.5 7,-21.5 z m 353,-8 q 6,-13 8.5,-19 2.5,-6 2.5,-8 0,0 0,0 -2,0 -11.5,8.5 -9.5,8.5 -22.5,21.5 -13,13 -27,28 -14,15 -26,28.5 -12,13.5 -18,21.5 -6,8 -6,11 0,1 0,1 3,1 15,3 12,2 27,3 l 33,3 5,-38 q 2,-16 8,-35.5 6,-19.5 12,-28.5 z m -290,10 q -4,-31 -11.5,-33.5 -7.5,-2.5 -9.5,-2.5 -12,0 -21,23 -5,14 -10,36.5 -5,22.5 -8.5,47.5 -3.5,25 -5,47 -1.5,22 -1.5,39 0,8 0,16 l 3,63 72,5 v -103 q 0,-22 -0.5,-44 -0.5,-22 -1.5,-40.5 -1,-18.5 -2.5,-32.5 -1.5,-14 -3.5,-21 z m 1273,70 q 0,-3 -11,-12 -11,-9 -26,-20 l -35,-24 -23,40 q -18,33 -20.5,44 -2.5,11 -2.5,15 0,9 8,9 5,0 5.5,2.5 0.5,2.5 0.5,4.5 0,4 -1,9 -3,6 -3,9 0,5 5,5 3,0 13,-3.5 10,-3.5 44,-32.5 19,-16 32.5,-30 13.5,-14 13.5,-16 z m -461,-38 q -2,0 -13,-3 -11,-3 -17,-4 -4,-2 -7,-2 -4,0 -6.5,4 -2.5,4 -2.5,23 0,13 2,21 2,8 4,8 1,0 1,0 3,-2 14,-6 11,-4 16,-6 37,-14 38,-17.5 1,-3.5 1,-4.5 0,-6 -30,-13 z m -388,7 q 2,-2 2,-4 0,-2 -2,-4 -2,-2 -7,-5 -4,-1 -6,-1 -7,0 -7,9 0,10 4.5,11 4.5,1 5.5,1 7,0 10,-7 z m 727,29 q 5,-10 8,-17.5 3,-7.5 3,-9.5 -2,0 -13.5,9 -11.5,9 -25.5,22 -22,20 -25.5,26 -3.5,6 -3.5,9 0,5 7,10 8,6 17,6 3,0 11.5,-2 8.5,-2 8.5,-14 0,-7 4,-18 4,-11 9,-21 z m -718,44 q -4,-7 -10,-7 -1,0 -5.5,1 -4.5,1 -4.5,11 0,9 7,9 2,0 6,-1 8,-4 8,-9 0,-2 -1,-4 z m 803,33 q 5,-9 7.5,-15 2.5,-6 2.5,-8 0,0 0,0 -2,1 -14,12 -10,8 -17,15 l -1,1 q -1,1 -2,2 -24,20 -31.5,27.5 -7.5,7.5 -9,10.5 -1.5,3 -1.5,4 0,2 2.5,3.5 2.5,1.5 13.5,4.5 13,3 22,3 4,0 9.5,-1.5 5.5,-1.5 5.5,-13.5 0,-8 3.5,-20.5 3.5,-12.5 9.5,-24.5 z m -1388,78 q -9,-4 -24,-10.5 -15,-6.5 -16,-6.5 -2,0 -2.5,8.5 -0.5,8.5 -0.5,17.5 0,16 -1.5,27.5 -1.5,11.5 -2.5,16.5 -1,2 -1,3 0,5 8.5,5 8.5,0 43.5,-10 22,-6 39.5,-12 17.5,-6 17.5,-8 0,0 0,0 0,-4 -13.5,-11 -13.5,-7 -47.5,-20 z m 666,10 q -16,0 -36,-4 -20,-4 -38,-9 l -44,-11 v 38 q 0,23 2.5,28.5 2.5,5.5 6.5,5.5 3,0 7,-2 88,-24 104.5,-32 16.5,-8 16.5,-10 0,-4 -19,-4 z"
     id="path1" />
</svg>
