<?xml version="1.0" encoding="UTF-8" standalone="no"?>
<svg
   width="2000"
   height="2000"
   version="1.1"
   id="svg1"
   sodipodi:docname="u12049.svg"
   inkscape:version="1.3.2 (091e20e, 2023-11-25)"
   xmlns:inkscape="http://www.inkscape.org/namespaces/inkscape"
   xmlns:sodipodi="http://sodipodi.sourceforge.net/DTD/sodipodi-0.dtd"
   xmlns="http://www.w3.org/2000/svg"
   xmlns:svg="http://www.w3.org/2000/svg">
  <defs
     id="defs1" />
  <sodipodi:namedview
     id="namedview1"
     pagecolor="#505050"
     bordercolor="#eeeeee"
     borderopacity="1"
     inkscape:showpageshadow="0"
     inkscape:pageopacity="0"
     inkscape:pagecheckerboard="0"
     inkscape:deskcolor="#505050"
     inkscape:zoom="0.379"
     inkscape:cx="1000"
     inkscape:cy="998.68074"
     inkscape:window-width="1392"
     inkscape:window-height="1212"
     inkscape:window-x="0"
     inkscape:window-y="0"
     inkscape:window-maximized="0"
     inkscape:current-layer="svg1" />
  <path
     d="m 895,826 q 57,0 102.5,-0.5 45.5,-0.5 63.5,-2.5 54,4 88.5,6.5 34.5,2.5 35.5,2.5 0,2 -5.5,9 -5.5,7 -12.5,13 -13,13 -19,28 -6,15 -9,38 -3,23 -3.5,56.5 -0.5,33.5 -0.5,82.5 v 119 l 45,-17 q 9,-3 32,-15 23,-12 54.5,-28.5 31.5,-16.5 66.5,-36 35,-19.5 67.5,-38 32.5,-18.5 59,-34 26.5,-15.5 38.5,-24.5 5,-2 5,-5 0,-1 -1.5,-4 -1.5,-3 -17.5,-12.5 -16,-9.5 -48,-26 -32,-16.5 -76,-37.5 -23,-11 -44,-22 -21,-11 -48,-23.5 -27,-12.5 -57,-25 -30,-12.5 -58,-20 -28,-7.5 -40.5,-8.5 -12.5,-1 -15.5,-1 -20,0 -36,12 -9,6 -15,6 -2,0 -4,-2 -2,-2 -2,-5 0,-3 2,-7 l 7,-11 q 5,-7 5.5,-9.5 0.5,-2.5 8.5,-12.5 11,-14 21.5,-31 10.5,-17 18,-32 7.5,-15 12,-26 4.5,-11 4.5,-15 1,-3 2,-7 1,-4 5,-12 13,-13 17,-13 0,0 1,0.5 1,0.5 1,5.5 0,5 -1,13 -1,5 -1,10 0,19 14.5,47.5 14.5,28.5 47.5,63.5 13,15 26,26 13,11 32,23.5 19,12.5 47.5,28.5 28.5,16 76.5,41 56,29 95,52 39,23 41,30 0,1 0,1 0,4 -5,9.5 -5,5.5 -19.5,16 -14.5,10.5 -39.5,25.5 -25,15 -66,38 -91,52 -157.5,93.5 -66.5,41.5 -110,74.5 -43.5,33 -65,59 -21.5,26 -26.5,48 -3,20 -7.5,22 -4.5,2 -5.5,2 -6,0 -6,-19 0,-14 -3,-38 -3,-24 -8,-46.5 -5,-22.5 -10.5,-40.5 -5.5,-18 -12.5,-28 -3,-5 -4.5,-9 -1.5,-4 -6.5,-4 l -182,-1 v 68 q 0,30 -2,49.5 -2,19.5 -6,19.5 -4,0 -6,-19.5 -2,-19.5 -2,-49.5 v -68 h -82 v 68 q 0,30 -1.5,49.5 -1.5,19.5 -6.5,19.5 -4,0 -6,-16.5 -2,-16.5 -2,-36.5 0,-7 0,-16 l 1,-68 h -1 q 0,0 -1,0 h -1 q -1,0 -2,0 h -3 q 0,0 -1,0 -2,0 -3,0 h -1 q 0,0 -1,0 h -9 q -1,0 -1,0 h -2 q -1,0 -1,0 -14,0 -25,1 -17,2 -30,8 v 55 q 0,29 -2,47 -2,18 -6,18 -4,0 -6,-16 -2,-16 -2,-53 0,0 0,0 0,0 0,-1 0,0 0,0 0,0 0,-1 0,0 0,-1 0,0 0,0 v -5 q 0,0 0,-1 v -2 q 0,-9 -1,-16 0,-9 -1,-15 -21,14 -37,27 -14,11 -27,23.5 -13,12.5 -16,22.5 -1,8 -3.5,9.5 -2.5,1.5 -4.5,1.5 -1,0 -3.5,-1.5 -2.5,-1.5 -4.5,-5.5 -2,-4 -2,-7 0,-1 0,-2 l 2,-12 q 1,-15 1,-32 0,-8 -0.5,-25 -0.5,-17 -0.5,-34 0,-24 1,-34.5 1,-10.5 3,-12.5 2,-2 3,-2 2,0 4.5,3 2.5,3 5.5,9 5,7 10.5,13 5.5,6 20.5,14 14,7 21.5,7.5 7.5,0.5 26.5,2.5 v -73 q 0,-50 -6.5,-72 -6.5,-22 -15.5,-36 -7,-9 -12,-16.5 -5,-7.5 -5,-9.5 0,0 2,0 3,0 15.5,1.5 12.5,1.5 38.5,2.5 10,1 19,1 0,0 1,0 0,0 0,0 h 3 q 1,0 2,0 0,0 1,0 1,0 1,0 h 1 q 0,0 0,0 h 10 q 10,0 22.5,0.5 12.5,0.5 30.5,1.5 6,-1 14,-1 4,0 13,0.5 9,0.5 24,1.5 15,1 28.5,2 13.5,1 24.5,1 16,0 31.5,2 15.5,2 17.5,4 1,0 1,1 0,2 -2,4.5 -2,2.5 -7,5.5 -20,11 -30,42.5 -10,31.5 -10,78.5 v 59 l 100,1 q 38,1 59.5,1 21.5,0 33.5,1 14,2 15.5,4 1.5,2 1.5,3 0,3 -6,7 l 2,2 q 3,3 9,3.5 6,0.5 9,0.5 3,0 5,-1 h 4 q 0,0 0,-1 v -1 q 0,0 0,0 v -1 q 0,-1 0,-1 v -2 q 0,0 0,-1 v -1 q 0,-1 0,-2 v -1 q 0,-1 0,-1 v -1 q 0,-1 0,-1 v -13 q 0,0 0,-1 v -3 q 0,0 0,-1 0,-17 -0.5,-42.5 -0.5,-25.5 -1.5,-53.5 -1,-31 -1,-56 0,-18 0.5,-28 0.5,-10 0.5,-16 0,-27 -6,-48 -5,-18 -14,-35 -9,-17 -17,-34 -26,0 -51,-0.5 -25,-0.5 -76,-0.5 0,0 -1,0 0,0 -1,0 h -1 q 0,0 -1,0 0,0 0,0 h -1 q 0,0 0,0 h -14 q -17,0 -27.5,2 -10.5,2 -18,6 -7.5,4 -18.5,12 -11,11 -25.5,28.5 Q 732,905 722,925 q -6,12 -9.5,23 -3.5,11 -8.5,11 0,0 -1,0 -2,0 -2,-10.5 0,-10.5 0.5,-25 0.5,-14.5 1.5,-31.5 1,-17 1,-30 0,-8 0.5,-22 0.5,-14 1.5,-28 0,-17 1,-36 1,-4 2,-7 4,-6 7,-6 3,0 4.5,5 1.5,5 1.5,10 0,9 6,17.5 6,8.5 13,15.5 8,8 14,10.5 6,2.5 28,3.5 14,1 31.5,1.5 17.5,0.5 28.5,0.5 22,0 52,-1 z m 288,-50 q -12,-15 -23,-31 -11,-16 -16,-25 l -12,-24 -26,42 q -7,11 -12.5,20.5 -5.5,9.5 -12.5,18.5 -3,4 -7,10 l 17,-3 q 2,-1 6,-1 4,0 13.5,1 9.5,1 24.5,3.5 15,2.5 30,6 15,3.5 25,7.5 5,2 8,2 1,0 1,-1 0,-1 -1,-4 -1,-3 -15,-22 z M 715,913 q 8,-15 13,-22 8,-14 22,-28.5 Q 764,848 775,840 764,838 754.5,836.5 745,835 735,828 q -4,-3 -7,-5.5 -3,-2.5 -8,-8.5 z m 390,-36 q -6,-20 -17,-29 -4,-5 -9,-8 -5,4 -7,6 -12,9 -20,24 -5,10 -8,20 -3,10 -5,27.5 -2,17.5 -2.5,46.5 -0.5,29 -0.5,77 v 145 h 39 q 18,0 30,-3 7,-1 14,-2 0,-1 -0.5,-18.5 -0.5,-17.5 -1,-43.5 -0.5,-26 -1,-57.5 -0.5,-31.5 -1,-61 -0.5,-29.5 -1.5,-53.5 -1,-24 -4,-39 -1,-6 -1.5,-13.5 Q 1108,887 1105,877 Z m -104,-36 q 3,5 5,10.5 2,5.5 5,12.5 5,11 9,23 4,12 6,20 3,-11 5.5,-22.5 2.5,-11.5 7.5,-19.5 3,-5 9.5,-12 6.5,-7 11.5,-12 z m 136,36 q 2,-5 5.5,-10.5 3.5,-5.5 6.5,-10.5 4,-5 9,-11 -16,-1 -26.5,-1.5 -10.5,-0.5 -22.5,-0.5 0,0 -1,0 0,0 0,0 0,0 0,0 h -3 q 3,3 5,7 2,2 3.5,5.5 1.5,3.5 2.5,5.5 2,5 3.5,13 1.5,8 4.5,22 1,3 3,12 0,-3 2,-7 0,-1 0,-2 1,-1 1,-2 0,-1 1,-3 0,-1 1,-3 1,-6 5,-14 z m -551,163 q 4,-11 8,-25 4,-14 11,-27 3,-5 5,-8 2,-3 5,-8 -5,1 -10,1 -5,0 -9,0.5 -4,0.5 -7,0.5 -4,0 -14,-2 -5,-1 -11,-2 2,5 4,9 0,0 0,1 h 1 q 0,1 0,1 v 1 q 1,0 1,1 0,0 0,0 0,1 1,1 0,1 0,1 0,0 0,0 6,14 8.5,29 2.5,15 6.5,26 z m 99,-64 q -4,0 -8,-0.5 -4,-0.5 -9,-1.5 -4,0 -9,-1 2,5 4,9 2,4 3.5,8 1.5,4 2.5,7 4,9 7,29 2,10 4,21 3,-11 5,-21 2,-8 4,-15.5 2,-7.5 3,-10.5 0,0 0,0 0,0 0,-1 1,0 1,-1 0,0 0,-1 0,0 1,0 v -1 q 0,0 0,-1 0,0 0,0 h 1 q 0,-1 0,-1 1,-2 3,-5 0,-2 1,-3 3,-6 6,-11 -1,0 -1,0 0,0 0,0 0,0 -1,0 0,0 0,0 0,0 0,0 -1,0 -1,0 0,0 0,0 h -3 q 0,0 -1,0 0,0 0,0 -3,1 -7,1 0,0 -1,0 0,0 0,0 0,0 0,0 -1,0 -1,0 h -1 q 0,0 0,0 h -3 z m 68,25 q -3,-8 -7,-13 -4,-5 -8,-8 -4,-4 -9,-6 l -9,5 q -7,4 -10.5,17.5 -3.5,13.5 -6.5,22.5 -7,19 -10.5,42.5 -3.5,23.5 -3.5,52.5 l 1,49 h 82 l -3,-76 q -2,-34 -7,-55 -5,-21 -9,-31 z m -97,-2 q -2,-6 -5,-10.5 -3,-4.5 -6,-7.5 -4,-4 -8,-6 -3,2 -7,5 -3,2 -6.5,5.5 -3.5,3.5 -7.5,8.5 -8,13 -14,35.5 -6,22.5 -7,60.5 l -2,73 h 82 l -1,-71 q -1,-29 -7.5,-56 -6.5,-27 -10.5,-37 z m 138,-1 q 3,-4 4,-10 l 3,-6 h -19 q -1,0 -5,-0.5 -4,-0.5 -9,-1.5 -5,0 -11,-1 2,5 5.5,15 3.5,10 8.5,24 4,9 9,22 2,-9 5,-17 2,-7 4,-13.5 2,-6.5 5,-11.5 z m -301,244 77,-63 q -31,-7 -43.5,-12 -12.5,-5 -20.5,-9 l -13,-9 z m 630,-27 q 13,-9 15,-12 2,-3 2,-4 0,-2 -6,-2 -6,2 -27,3 -21,1 -44,2 -9,0 -18,0.5 -9,0.5 -18,0.5 l -18,-1 8,26 q 3,11 6.5,25.5 3.5,14.5 3.5,23.5 l 3,28 q 2,0 10.5,-11.5 8.5,-11.5 19.5,-24.5 11,-11 28.5,-26 17.5,-15 34.5,-28 z"
     id="path1" />
</svg>
