<?xml version="1.0" encoding="UTF-8" standalone="no"?>
<svg
   width="2000"
   height="2000"
   version="1.1"
   id="svg1"
   sodipodi:docname="u12041.svg"
   inkscape:version="1.3.2 (091e20e, 2023-11-25)"
   xmlns:inkscape="http://www.inkscape.org/namespaces/inkscape"
   xmlns:sodipodi="http://sodipodi.sourceforge.net/DTD/sodipodi-0.dtd"
   xmlns="http://www.w3.org/2000/svg"
   xmlns:svg="http://www.w3.org/2000/svg">
  <defs
     id="defs1" />
  <sodipodi:namedview
     id="namedview1"
     pagecolor="#505050"
     bordercolor="#eeeeee"
     borderopacity="1"
     inkscape:showpageshadow="0"
     inkscape:pageopacity="0"
     inkscape:pagecheckerboard="0"
     inkscape:deskcolor="#505050"
     inkscape:zoom="0.379"
     inkscape:cx="1000"
     inkscape:cy="998.68074"
     inkscape:window-width="1392"
     inkscape:window-height="1212"
     inkscape:window-x="0"
     inkscape:window-y="0"
     inkscape:window-maximized="0"
     inkscape:current-layer="svg1" />
  <path
     d="m 1287,744.5 q 0,-10 10,-10 9,0 9,10 0,3 -2.5,14 -2.5,11 -19.5,34 -12,17 -30,49 -18,32 -35.5,66 -17.5,34 -30,62 -12.5,28 -12.5,34 0,4 6,19.5 6,15.5 13,29.5 14,30 30,48 16,18 45,34 23,13 50.5,34 27.5,21 50,41.5 22.5,20.5 34.5,34.5 12,14 12,18 0,1 -1,2 -1,1 -2,1 -4,0 -18,-9 -14,-9 -33,-26 -19,-17 -46.5,-37.5 -27.5,-20.5 -58,-41.5 -30.5,-21 -62,-40 -31.5,-19 -48.5,-27 -25,-13 -55.5,-20.5 -30.5,-7.5 -56.5,-10.5 -26,-2 -48.5,-6 -22.5,-4 -28.5,-8 -7,-4 -23,-4 -9,0 -31.5,2.5 -22.5,2.5 -70.5,12.5 -85,19 -137,45 -52,26 -80,56 -16,21 -19.5,22.5 -3.5,1.5 -5.5,1.5 -4,0 -7,-7 -2,-5 -2,-10 0,-6 3.5,-15.5 3.5,-9.5 11.5,-20.5 9,-13 17,-34 8,-21 13.5,-48 5.5,-27 8.5,-57 3,-30 3,-55 0,-40 5.5,-46.5 5.5,-6.5 7.5,-6.5 5,0 10,14 5,15 15,27 10,12 24,24 14,12 31,22 17,10 34,17 24,9 62,16.5 38,7.5 75.5,11.5 37.5,4 54,4.5 16.5,0.5 18.5,0.5 28,0 41,-8 11,-5 36.5,-25.5 25.5,-20.5 56,-47.5 30.5,-27 61.5,-56.5 31,-29.5 56.5,-55.5 25.5,-26 42,-45 16.5,-19 16.5,-30 z m -107,195 q 12,-22 18.5,-38.5 6.5,-16.5 6.5,-19.5 0,-1 0,-1 0,0 0,0 -3,0 -15,9 -12,9 -30.5,24 -18.5,15 -39.5,33.5 -21,18.5 -39.5,35 -18.5,16.5 -31,29 -12.5,12.5 -13.5,15.5 0,1 0,2 0,4 8,6.5 8,2.5 22,2.5 14,0 29.5,3 15.5,3 26.5,7 12,4 20,4 7,0 13.5,-3.5 6.5,-3.5 6.5,-13.5 0,-4 -1,-8 -2,-6 -2,-14 0,-27 21,-73 z m -484,25 q -6,-4 -17.5,-11 -11.5,-7 -12.5,-7 -3,0 -5.5,12 -2.5,12 -5.5,30 -3,19 -6.5,41.5 -3.5,22.5 -4.5,31.5 -4,17 -4,26 0,1 0.5,3 0.5,2 4.5,2 8,0 28,-10 26,-12 58,-24 32,-12 56,-17 40,-7 40,-16 0,-8 -34,-17 -26,-7 -50,-18 -24,-11 -47,-26 z"
     id="path1" />
</svg>
