<?xml version="1.0" encoding="UTF-8" standalone="no"?>
<svg
   width="2000"
   height="2000"
   version="1.1"
   id="svg1"
   sodipodi:docname="u1209F.svg"
   inkscape:version="1.3.2 (091e20e, 2023-11-25)"
   xmlns:inkscape="http://www.inkscape.org/namespaces/inkscape"
   xmlns:sodipodi="http://sodipodi.sourceforge.net/DTD/sodipodi-0.dtd"
   xmlns="http://www.w3.org/2000/svg"
   xmlns:svg="http://www.w3.org/2000/svg">
  <defs
     id="defs1" />
  <sodipodi:namedview
     id="namedview1"
     pagecolor="#505050"
     bordercolor="#eeeeee"
     borderopacity="1"
     inkscape:showpageshadow="0"
     inkscape:pageopacity="0"
     inkscape:pagecheckerboard="0"
     inkscape:deskcolor="#505050"
     inkscape:zoom="0.379"
     inkscape:cx="1000"
     inkscape:cy="998.68074"
     inkscape:window-width="1392"
     inkscape:window-height="1212"
     inkscape:window-x="0"
     inkscape:window-y="0"
     inkscape:window-maximized="0"
     inkscape:current-layer="svg1" />
  <path
     d="m 1018,637.5 q 29,1 52.5,2.5 23.5,1.5 48.5,1.5 20,0 37.5,-1 17.5,-1 34,-1.5 16.5,-0.5 31,-0.5 14.5,0 22.5,2 7,1 7,3 0,2 -9.5,6 -9.5,4 -28.5,18 -8,6 -19,14 -11,8 -21.5,19.5 -10.5,11.5 -18.5,25.5 -8,14 -8,29 v 73 l 51,-1 q 25,-1 34,-1.5 9,-0.5 11,-0.5 13,0 13,4 0,3 -10,15 -10,12 -21,23 -29,29 -51,67 -22,38 -22,80 v 218 q 0,42 0.5,61 0.5,19 0.5,29 0,10 -0.5,20.5 -0.5,10.5 -2,15 -1.5,4.5 -6.5,4.5 -9,0 -9.5,-16.5 -0.5,-16.5 -1.5,-60.5 l -91,-68 q -57,-42 -91.5,-65.5 -34.5,-23.5 -55.5,-31 -21,-7.5 -37,-7.5 -7,0 -21.5,2.5 -14.5,2.5 -42.5,13.5 -22,8 -30.5,9.5 -8.5,1.5 -11.5,1.5 -6,0 -6,-3 0,-5 12.5,-21.5 12.5,-16.5 29.5,-36.5 18,-22 40.5,-49.5 22.5,-27.5 34.5,-46.5 15,-20 27,-33.5 12,-13.5 15,-13.5 4,0 5.5,12 1.5,12 2.5,21 2,26 7.5,54.5 5.5,28.5 14.5,53.5 8,19 14,31.5 6,12.5 14.5,23 8.5,10.5 21,20.5 12.5,10 30.5,24 13,9 26.5,18.5 13.5,9.5 25.5,18.5 8,6 15,11 l 1,1 q 2,1 4,3 l 1,1 q 0,0 1,0 10,8 16,13 l 28,23 -1,-125 v -63 q 0,-6 -1.5,-18.5 -1.5,-12.5 -3.5,-25.5 -2,-13 -5,-24 -3,-11 -6,-14 -2,-2 -10,-8.5 -8,-6.5 -16,-12.5 -42,-32 -69.5,-55 -27.5,-23 -47.5,-38.5 -20,-15.5 -36,-25 -16,-9.5 -37,-12.5 -9,-2 -20,-3 -11,-1 -16,-1 -15,0 -37,4 -16,3 -27,6.5 -11,3.5 -15,3.5 -2,0 -3,-1 0,0 0,0 0,-2 14.5,-20 14.5,-18 35.5,-40 14,-15 26,-28.5 12,-13.5 23,-25.5 11,-12 20,-21.5 9,-9.5 13,-15.5 11,-11 20,-20.5 9,-9.5 11,-9.5 2,20 2,44.5 0,24.5 2,45.5 3,35 12,64 9,29 29,45 l 114,93 -44,-75 -39,-57 105,-2 v -44 q 0,-17 -1.5,-31 -1.5,-14 -8.5,-26.5 -7,-12.5 -20,-24.5 -13,-12 -34,-24 -22,-13 -32.5,-25 -10.5,-12 -10.5,-17 z m 117,84 q 6,-11 14.5,-20 8.5,-9 13.5,-14 12,-12 21.5,-18.5 9.5,-6.5 20.5,-14.5 -17,1 -38,2.5 -21,1.5 -39,1.5 -16,0 -34,-1 -18,-1 -35,-2 11,8 21.5,14.5 10.5,6.5 18.5,12.5 13,10 20.5,19.5 7.5,9.5 15.5,19.5 z m -206,-9 q -13,15 -27,31 -14,16 -26,30 -13,14 -25.5,27.5 -12.5,13.5 -25.5,26.5 12,-1 23,-2 11,-1 18,-1 7,0 13,1 13,1 34.5,5 21.5,4 31.5,11 l -7,-28 q -3,-14 -6,-36 -3,-22 -3,-36 z m 287,136 q -19,1 -39,2.5 -20,1.5 -43,1.5 -15,0 -34.5,-0.5 -19.5,-0.5 -38.5,-0.5 l 16,30 58,102 11,-29 q 4,-9 14.5,-28.5 10.5,-19.5 24.5,-37.5 z m -304,223 q -4,-14 -7,-26 -3,-12 -4.5,-23 -1.5,-11 -2.5,-23.5 -1,-12.5 -2,-27.5 l -50,68 q -19,26 -43,51 -5,6 -15,16 0,0 6.5,-1.5 6.5,-1.5 16.5,-3.5 10,-2 22.5,-3.5 12.5,-1.5 23.5,-1.5 14,0 26,2.5 12,2.5 21.5,5.5 9.5,3 15,5 5.5,2 5.5,2 -3,-7 -5,-15 -2,-6 -4,-13 -2,-7 -4,-12 z"
     id="path1" />
</svg>
