<?xml version="1.0" encoding="UTF-8" standalone="no"?>
<svg
   width="2000"
   height="2000"
   version="1.1"
   id="svg1"
   sodipodi:docname="u120F8.svg"
   inkscape:version="1.3.2 (091e20e, 2023-11-25)"
   xmlns:inkscape="http://www.inkscape.org/namespaces/inkscape"
   xmlns:sodipodi="http://sodipodi.sourceforge.net/DTD/sodipodi-0.dtd"
   xmlns="http://www.w3.org/2000/svg"
   xmlns:svg="http://www.w3.org/2000/svg">
  <defs
     id="defs1" />
  <sodipodi:namedview
     id="namedview1"
     pagecolor="#505050"
     bordercolor="#eeeeee"
     borderopacity="1"
     inkscape:showpageshadow="0"
     inkscape:pageopacity="0"
     inkscape:pagecheckerboard="0"
     inkscape:deskcolor="#505050"
     showgrid="false"
     inkscape:zoom="0.6205"
     inkscape:cx="999.1942"
     inkscape:cy="1000"
     inkscape:window-width="2560"
     inkscape:window-height="1412"
     inkscape:window-x="0"
     inkscape:window-y="0"
     inkscape:window-maximized="1"
     inkscape:current-layer="svg1" />
  <path
     d="m 994,668.5 q 17,-31 25,-31 7,0 7,24 0,29 11.5,55 11.5,26 29.5,42 9,7 25,17.5 16,10.5 31.5,19 15.5,8.5 24.5,12 9,3.5 11,3.5 2,0 2,-1 0,-1 14,-2 14,-1 35.5,-1 21.5,0 46.5,0.5 25,0.5 46.5,1 21.5,0.5 37,1.5 15.5,1 16.5,3 0,0 -1,1 0,0 0,0 0,0 0,0 0,1 0,1 -1,0 -1,0 0,0 0,1 0,0 0,0 0,0 -1,1 0,0 0,0 0,0 0,0 0,0 -1,1 0,0 0,0 0,0 0,1 0,0 0,0 0,0 -1,0 0,0 0,0 v 1 q 0,0 0,0 0,0 -1,1 0,0 0,0 0,0 0,0 -3,4 -7,9 0,0 0,0 l -1,1 q 0,0 0,0 v 1 q -1,0 -1,0 v 1 q 0,0 0,0 l -1,1 q 0,0 0,0 l -1,1 q 0,0 0,0 l -1,1 q 0,0 0,0 l -1,1 q 0,0 0,0 v 1 q 0,0 -1,0 v 1 q 0,0 0,0 l -1,1 q 0,0 0,0 -12,12 -25,30 -13,18 -18,34 -6,12 -10,24.5 -4,12.5 -5.5,37 -1.5,24.5 -2,67.5 -0.5,43 -0.5,101 0,95 -1.5,145.5 -1.5,50.5 -3.5,67 -2,16.5 -4,16.5 -1,0 -3.5,-8.5 -2.5,-8.5 -5.5,-52.5 -2,-29 -2,-48.5 0,-19.5 -1,-20.5 0,-2 -31,-19.5 -31,-17.5 -74,-42.5 l -104,-61 -1,55 q -2,55 -9,55 -1,0 -5,-1.5 -4,-1.5 -4,-59.5 v -61 l -36,-21 -36,-23 v 68 q 0,32 -2,47.5 -2,15.5 -4,15.5 -1,0 -1,0 -3,-2 -5.5,-23 -2.5,-21 -2.5,-49 v -68 l -29,-12 q -11,-3 -21,-6.5 -10,-3.5 -13,-3.5 -5,0 -7,21.5 -2,21.5 -2,60.5 0,38 -2,61 -2,23 -6,23 -3,0 -5,-23.5 -2,-23.5 -2,-63.5 v -85 l -45,-12 q -20,-6 -50,-11 -30,-5 -55,-7 l -59,-6 36,-36 q 15,-16 33.5,-39 18.5,-23 30.5,-40 24,-33 28.5,-34.5 4.5,-1.5 5.5,-1.5 5,0 8,15 2,12 8.5,27.5 6.5,15.5 15.5,31.5 9,16 17.5,29.5 8.5,13.5 14.5,18.5 3,3 6,3 1,0 3,-3 2,-3 2,-17 0,-18 -5,-45 -5,-27 -12.5,-57.5 -7.5,-30.5 -16.5,-59.5 -9,-29 -17,-47 -6,-13 -9,-23 -3,-10 -3,-12 0,-3 19.5,-4.5 19.5,-1.5 46.5,-1.5 28,0 46.5,1.5 18.5,1.5 18.5,3.5 0,1 0,1 -1,1 -7.5,15 -6.5,14 -15.5,29 -10,18 -14.5,29 -4.5,11 -7.5,25 -3,14 -4.5,35 -1.5,21 -2.5,56 l -3,99 69,44 3,-32 q 0,-3 0,-7 0,-10 -2.5,-28 -2.5,-18 -7,-40.5 -4.5,-22.5 -11,-43.5 -6.5,-21 -15.5,-37 -6,-11 -6,-15.5 0,-4.5 11,-9.5 9,-8 9,-10 0,-1 0,-1 0,0 0,-1 0,-3 7,-16 7,-13 21,-32 14,-20 28.5,-43.5 14.5,-23.5 22.5,-37.5 z m 48,88 q -7,-7 -14.5,-20.5 -7.5,-13.5 -10.5,-25.5 l -11,-29 -28,45 q -11,20 -20,34 -9,14 -10,16 0,2 9.5,2.5 9.5,0.5 13.5,0.5 14,0 32,-2 l 56,-3 z m -153,-49 -39,-5 q -16,0 -27.5,0.5 -11.5,0.5 -11.5,2.5 1,4 7.5,22.5 6.5,18.5 14,37.5 7.5,19 13,31 5.5,12 6.5,12 0,0 0,-1 0,-5 5.5,-21 5.5,-16 12.5,-36 z m 236,107 q -13,-6 -24.5,-10.5 -11.5,-4.5 -23.5,-7 -12,-2.5 -25.5,-3.5 -13.5,-1 -33.5,-1 -51,2 -72,6 -21,4 -21,8 0,2 3,4 5,2 16,2 11,0 25,-2 11,-2 17,-2 3,0 5.5,1 2.5,1 2.5,7 0,2 -1,6 -2,5 -2,9 0,4 3.5,7 3.5,3 20.5,7 11,1 24.5,1 13.5,0 22.5,-1 9,-3 13,-3 5,0 5,5 0,5 -15,35 -8,16 -11.5,26.5 -3.5,10.5 -5.5,23 -2,12.5 -2.5,30 -0.5,17.5 -0.5,43.5 v 84 l 104,60 103,63 2,-90 q 0,-2 0,-4 v -1 q 0,-1 0,-2 v -3 q 0,-2 0,-4 v -1 q 0,-1 0,-2 v -2 q 0,0 0,-1 v -5 q 0,-1 0,-1 v -17 q 0,0 0,-1 v -5 q 0,-20 -2,-36.5 -2,-16.5 -5.5,-32.5 -3.5,-16 -11.5,-42 -10,-31 -19.5,-54.5 -9.5,-23.5 -21.5,-40 -12,-16.5 -27.5,-28.5 -15.5,-12 -41.5,-25 z m 193,13 q 0,-2 -18.5,-2.5 -18.5,-0.5 -44.5,-0.5 h -63 l 18,37 q 8,16 16.5,35.5 8.5,19.5 12.5,32.5 5,12 9.5,21 4.5,9 6.5,9 2,0 6,-10 4,-10 8,-25 5,-14 13,-32 8,-18 18,-32 7,-11 12.5,-21.5 5.5,-10.5 5.5,-11.5 z m -348,0 q -3,-1 -7,-1 0,0 -1,0 0,0 0,0 h -1 q 0,0 0,0 h -1 q 0,0 0,0 0,0 0,0 h -4 q -5,0 -10,1 -19,0 -20.5,4.5 -1.5,4.5 -1.5,7.5 0,9 7,31 l 9,26 15,-33 q 7,-14 11,-24.5 4,-10.5 4,-11.5 z m 35,91 q -8,-24 -16,-43.5 -8,-19.5 -11,-19.5 -3,0 -7.5,11.5 -4.5,11.5 -8.5,29.5 -4,18 -6,40.5 -2,22.5 -2,43.5 v 55 l 34,21 38,20 -2,-44 q -1,-21 -4,-48 -3,-27 -15,-66 z m -225,-36 q -2,-4 -5.5,-11.5 -3.5,-7.5 -5.5,-7.5 -1,0 -13,15.5 -12,15.5 -29,36.5 l -42,50 30,6 q 11,1 35.5,5.5 24.5,4.5 42.5,8.5 25,6 36.5,7.5 11.5,1.5 15.5,1.5 5,0 5,-1 0,0 0,-1 0,-2 -7,-12.5 -7,-10.5 -15,-20.5 -17,-22 -28.5,-41 -11.5,-19 -19.5,-36 z m 268,-1 q 5,-10 5,-14 0,-1 -1,-2.5 -1,-1.5 -20,-1.5 h -29 l 14,36 q 9,23 10.5,25 1.5,2 2.5,2 2,0 5,-9 1,-8 5.5,-18.5 4.5,-10.5 7.5,-17.5 z"
     id="path1" />
</svg>
