<?xml version="1.0" encoding="UTF-8" standalone="no"?>
<svg
   width="2000"
   height="2000"
   version="1.1"
   id="svg1"
   sodipodi:docname="u120E1.svg"
   inkscape:version="1.3.2 (091e20e, 2023-11-25)"
   xmlns:inkscape="http://www.inkscape.org/namespaces/inkscape"
   xmlns:sodipodi="http://sodipodi.sourceforge.net/DTD/sodipodi-0.dtd"
   xmlns="http://www.w3.org/2000/svg"
   xmlns:svg="http://www.w3.org/2000/svg">
  <defs
     id="defs1" />
  <sodipodi:namedview
     id="namedview1"
     pagecolor="#505050"
     bordercolor="#eeeeee"
     borderopacity="1"
     inkscape:showpageshadow="0"
     inkscape:pageopacity="0"
     inkscape:pagecheckerboard="0"
     inkscape:deskcolor="#505050"
     showgrid="false"
     inkscape:zoom="0.6205"
     inkscape:cx="999.1942"
     inkscape:cy="1000"
     inkscape:window-width="2560"
     inkscape:window-height="1412"
     inkscape:window-x="0"
     inkscape:window-y="0"
     inkscape:window-maximized="1"
     inkscape:current-layer="svg1" />
  <path
     d="m 1336,641.5 q 0,-4 4,-4.5 4,-0.5 5,-0.5 6,0 12,2 13,4 35.5,5.5 22.5,1.5 41.5,1.5 9,0 19,0 29,0 49.5,0.5 20.5,0.5 20.5,2.5 0,2 -6,10 -6,8 -10,12 -13,17 -25,38 -12,21 -20,41 -5,12 -8,22.5 -3,10.5 -5.5,24 -2.5,13.5 -3.5,34 -1,20.5 -2,53.5 -1,33 -1,81 v 35 q 0,2 0,3 v 11 q 0,2 0,3 v 65 q 0,58 -0.5,109.5 -0.5,51.5 -2,89.5 -1.5,38 -2.5,60.5 -1,22.5 -4,22.5 -2,0 -3,-13.5 -1,-13.5 -2,-33.5 l -2,-49 -295,7 q -62,1 -119.5,3 -57.5,2 -103.5,3.5 -46,1.5 -76.5,3.5 -30.5,2 -43.5,5 -11,2 -34.5,5 -23.5,3 -31.5,4 -18,2 -32.5,4.5 -14.5,2.5 -32.5,6 -18,3.5 -37.5,7.5 -19.5,4 -37.5,9 -43,10 -66,15 -23,5 -31,5 -8,0 -8,-4 0,-1 1,-4.5 1,-3.5 7,-15.5 5,-13 7.5,-28.5 2.5,-15.5 2.5,-30.5 0,-10 -1,-22 -1,-12 -1,-20 0,-8 1,-13.5 1,-5.5 7,-5.5 2,0 5,1 0,0 0,0 1,0 1,0 1,1 3,1 l 1,1 q 1,0 2,0 l 1,1 q 1,0 3,1 1,0 1,0 l 2,1 q 0,0 1,0 h 1 q 1,1 3,1 l 1,1 q 2,0 4,1 21,7 59,19 20,7 32,10.5 12,3.5 17,3.5 8,0 13.5,-6 5.5,-6 5.5,-29 0,-1 -0.5,-14.5 -0.5,-13.5 -1.5,-47.5 -3,-66 -8,-110.5 -5,-44.5 -16,-87.5 -5,-16 -8.5,-29 -3.5,-13 -3.5,-19 0,-7 3.5,-12 3.5,-5 18.5,-5 1,0 10.5,0.5 9.5,0.5 44.5,1.5 34,2 59.5,3 25.5,1 27.5,3 0,0 0,1 0,4 -3,14 -3,10 -8,26 -5,11 -8,23.5 -3,12.5 -4.5,31.5 -1.5,19 -2,47.5 -0.5,28.5 -0.5,64.5 0,35 0.5,61 0.5,26 1.5,46 1,20 2.5,33 1.5,13 2.5,15 2,3 20,4.5 18,1.5 44,2 26,0.5 42,0.5 31,0 84,-1 53,-1 144,-2 68,-2 127.5,-3 59.5,-1 104,-2 44.5,-1 70.5,-2 26,-1 26,-1 0,-1 -0.5,-41.5 -0.5,-40.5 -2.5,-98.5 l -4,-137 h -58 q -24,0 -42.5,2.5 -18.5,2.5 -21.5,6.5 -2,5 -5,5 -4,0 -9,-5 -10,-10 -26,-10 -1,0 -10.5,0.5 -9.5,0.5 -18.5,10.5 -5,4 -10,4 -5,0 -11,-4 -9,-10 -21,-10 -14,0 -31,15 -8,7 -12,7 -2,0 -2,-3 0,-6 -8.5,-8.5 -8.5,-2.5 -20,-2.5 -11.5,0 -22,2.5 -10.5,2.5 -18.5,10.5 -4,4 -6,4 -1,0 -1,-3 0,-10 -27,-10 -42,0 -150,25 -19,5 -36,8.5 -17,3.5 -25,3.5 -2,0 -7,-1 -5,-1 -5,-7 0,-1 0.5,-4.5 0.5,-3.5 3.5,-13.5 4,-16 4.5,-25.5 0.5,-9.5 0.5,-12.5 0,-11 -2,-19 -1,-6 -1,-11 0,-5 3,-5.5 3,-0.5 4,-0.5 5,0 17.5,4 12.5,4 21.5,7 33,12 66.5,17.5 33.5,5.5 60.5,6.5 l 66,3 -1,-44 q -1,-45 -11.5,-62 -10.5,-17 -34.5,-17 -10,0 -31.5,3 -21.5,3 -50,8.5 -28.5,5.5 -62,13 -33.5,7.5 -65.5,15.5 -7,1 -10.5,1 -3.5,0 -4.5,-4 -1,-4 -1,-9 0,-4 0.5,-11.5 0.5,-7.5 1.5,-17.5 2,-31 3.5,-47.5 1.5,-16.5 2.5,-17.5 0,0 1,0 3,0 19,5.5 16,5.5 28,9.5 34,11 50.5,15 16.5,4 42,6.5 25.5,2.5 66.5,3.5 41,1 107,1 46,0 85.5,0.5 39.5,0.5 72,1.5 32.5,1 55,2 22.5,1 30.5,3 l 38,6 -40,5 q -17,2 -31,5 -14,3 -16,5 -2,2 -4.5,20 -2.5,18 -4.5,40 l -3,56 h 65 q 23,0 36,-0.5 13,-0.5 19,-2.5 6,-2 7.5,-6 1.5,-4 1.5,-10 0,-8 -3.5,-26 -3.5,-18 -9.5,-41.5 -6,-23.5 -13,-50 -7,-26.5 -14.5,-51.5 -7.5,-25 -14.5,-46 -7,-21 -14,-37 -5,-12 -10.5,-26.5 -5.5,-14.5 -5.5,-17.5 z m 143,30 q -2,-1 -19.5,-3 -17.5,-2 -36.5,-4 -22,-2 -35,-2 -3,0 -10.5,0.5 -7.5,0.5 -10,4 -2.5,3.5 -2.5,6.5 0,5 4,14.5 4,9.5 10,22.5 9,17 14.5,37 5.5,20 10.5,41 5,20 10,34.5 5,14.5 7,14.5 3,0 6.5,-10.5 3.5,-10.5 5.5,-23.5 2,-17 10,-41 8,-24 22,-57 3,-6 8.5,-18.5 5.5,-12.5 5.5,-14.5 z m -622,137 q -17,-6 -30,-10 -13,-4 -14,-4 -1,0 -2,9 -1,9 -3,21 -1,9 -1,14 0,3 0.5,7.5 0.5,4.5 5,6 4.5,1.5 8.5,1.5 6,0 18,-2.5 12,-2.5 30,-6.5 28,-7 36,-10.5 8,-3.5 8,-5.5 0,-2 -3,-3 0,0 -1,0 0,0 0,0 -1,-1 -1,-1 -4,-1 -10,-3 h -1 q -1,-1 -1,-1 h -1 q -1,0 -2,-1 h -1 q -1,0 -1,-1 -17,-5 -34,-10 z m 343,60 q -7,-23 -15.5,-27.5 -8.5,-4.5 -11.5,-4.5 -7,0 -11,9 -3,9 -3.5,20 -0.5,11 -0.5,14 0,15 2,31 2,34 5.5,42 3.5,8 18.5,8 13,0 17,-5 4,-5 6,-21 1,-8 1,-17 0,-8 -1.5,-21.5 -1.5,-13.5 -6.5,-27.5 z m -51,-27 q 0,-4 -4,-4 -4,0 -4,4 0,4 4,4 4,0 4,-4 z m 119,17 q -7,-18 -14,-19.5 -7,-1.5 -9,-1.5 -9,0 -13,11 -3,8 -4.5,25 -1.5,17 -1.5,40 0,14 0.5,23 0.5,9 2.5,13.5 2,4.5 7.5,5.5 5.5,1 14.5,1 19,0 22.5,-5.5 3.5,-5.5 3.5,-29.5 0,-19 -2.5,-36 -2.5,-17 -6.5,-27 z m -139,8 q -9,-21 -16.5,-24.5 -7.5,-3.5 -10.5,-3.5 -6,0 -12.5,6.5 -6.5,6.5 -11,24 -4.5,17.5 -4.5,38.5 0,8 1,17 1,11 2,19 1,8 4,11.5 3,3.5 9,4.5 6,1 16,1 22,0 27,-5 5,-5 6,-27 1,-5 1,-10 0,-9 -3,-23.5 -3,-14.5 -8,-28.5 z m -458,68 q 5,-16 5,-22 0,-3 -1.5,-5 -1.5,-2 -18.5,-2 -17,0 -18,2 -1,2 -1,4 0,6 5,23 5,12 8.5,21 3.5,9 5.5,9 2,0 6,-9 4,-9 9,-21 z m 84,1 q 6,-18 6,-24 0,-2 -1.5,-4 -1.5,-2 -18.5,-2 -17,0 -18,2 -1,2 -1,4 0,6 5,23 4,12 8,21 4,9 6,9 2,0 6,-9 4,-9 8,-20 z m -39,14 q -5,-15 -9.5,-25.5 -4.5,-10.5 -8.5,-10.5 -7,0 -14,22.5 -7,22.5 -11,58.5 -4,36 -4.5,64 -0.5,28 -0.5,39 0,34 2,67 l 6,89 h 66 v -89 q 0,-32 -1.5,-59.5 -1.5,-27.5 -4.5,-53 -3,-25.5 -8,-50.5 -5,-25 -12,-52 z m 198,17 q -17,-4 -34,-8.5 -17,-4.5 -23,-6.5 -8,-3 -13,-3 -5,0 -7,3.5 -2,3.5 -2,27.5 0,10 0.5,18.5 0.5,8.5 2.5,8.5 1,0 18.5,-4.5 17.5,-4.5 40.5,-10.5 l 58,-15 z m 211,54 q 28,-1 64.5,-1 36.5,0 66,0.5 29.5,0.5 49.5,2.5 20,2 22,4 1,1 1,2 0,3 -3,10.5 -3,7.5 -9,17.5 -12,21 -12,33 0,5 4,10.5 4,5.5 23,5.5 9,0 21,-2 13,-1 24,-1 5,0 13.5,0.5 8.5,0.5 10.5,4.5 1,1 1,2 0,6 -34,6 -18,0 -32.5,1.5 -14.5,1.5 -21.5,7.5 -7,6 -9.5,18 -2.5,12 -2.5,32 l -1,48 -8,-50 q -3,-17 -5.5,-27 -2.5,-10 -5.5,-14.5 -3,-4.5 -8,-5.5 -5,-1 -14,-1 -9,0 -14,1 -5,1 -7.5,5.5 -2.5,4.5 -3,14 -0.5,9.5 -0.5,22.5 0,23 -2,36.5 -2,13.5 -6,13.5 -3,0 -6,-13.5 -3,-13.5 -3,-38.5 0,-11 -0.5,-20.5 -0.5,-9.5 -2.5,-14 -2,-4.5 -7.5,-5.5 -5.5,-1 -14.5,-1 -10,0 -15,1 -5,1 -7.5,5.5 -2.5,4.5 -3,14 -0.5,9.5 -0.5,22.5 0,23 -2,36.5 -2,13.5 -6,13.5 -3,0 -6,-13.5 -3,-13.5 -3,-32.5 v -47 h -68 l 6,47 q 2,16 2,27 0,19 -7,19 -5,0 -7,-12.5 -2,-12.5 -2,-33.5 v -47 h -29 q -12,0 -45,5 -33,5 -94,18 -28,6 -51,11 -23,5 -34,5 -3,0 -9,-1 -6,-1 -6,-10 0,-1 0.5,-6.5 0.5,-5.5 2.5,-26.5 2,-21 3.5,-36.5 1.5,-15.5 3.5,-17.5 0,0 1,0 3,0 16.5,3.5 13.5,3.5 28.5,8.5 27,10 63,17 36,7 77,10 20,1 29.5,1.5 9.5,0.5 11.5,0.5 14,0 18.5,-3.5 4.5,-3.5 4.5,-8.5 0,-2 -2,-8.5 -2,-6.5 -11,-24.5 -5,-10 -9,-19 -4,-9 -4,-11 0,-4 23.5,-7 23.5,-3 62.5,-4 z m -44,27 q 0,-8 -8,-8 -8,0 -8,8 0,9 8,9 8,0 8,-9 z m 51,16 q -5,-12 -9.5,-18 -4.5,-6 -8.5,-6 -7,0 -15,12.5 -8,12.5 -11,28.5 -1,5 -1,8 0,8 4,11.5 4,3.5 20,5.5 6,1 11,1 16,0 17.5,-5 1.5,-5 1.5,-8 0,-10 -9,-30 z m 30,-16 q 1,-2 1,-4 0,-1 -1.5,-2.5 -1.5,-1.5 -7.5,-1.5 -13,0 -13,9 0,8 8,8 9,0 13,-9 z m 72,-2 q 0,-6 -12,-6 -10,0 -10,5 0,1 1,3 3,5 9,5 2,0 7,-1 5,-1 5,-6 z m 68,3 q 0,-9 -8,-9 -3,0 -6,2 -3,2 -3,6 0,4 3,6.5 3,2.5 7,2.5 7,0 7,-8 z m -94,26 q -6,-17 -12,-21.5 -6,-4.5 -10,-4.5 -2,0 -6.5,2 -4.5,2 -9,13 -4.5,11 -4.5,22 0,22 25,22 16,0 18.5,-4.5 2.5,-4.5 2.5,-8.5 0,-7 -4,-20 z m 70,-2 q -9,-23 -15.5,-23.5 -6.5,-0.5 -7.5,-0.5 -12,0 -17,23 -2,8 -2,14 0,22 25,22 21,0 21,-17 0,-7 -4,-18 z m -371,37 q -17,-5 -35,-9 -18,-4 -26,-7 -6,-2 -10,-2 -4,0 -6.5,3 -2.5,3 -2.5,19 0,13 2,19 2,6 7,7 5,1 9,1 7,0 19,-2 12,-2 38,-8 l 46,-11 z m -334,133 q -17,-5 -36,-10 -19,-5 -21,-5 -3,0 -5.5,13.5 -2.5,13.5 -3.5,33.5 0,20 1.5,30.5 1.5,10.5 6.5,13 5,2.5 11,2.5 5,0 15.5,-2 10.5,-2 31.5,-8 13,-4 25.5,-7 12.5,-3 27.5,-6 0,0 0,0 h 1 q 0,0 0,0 l 1,-1 q 0,0 1,0 h 1 q 0,0 0,0 h 1 q 1,0 1,0 h 1 q 0,-1 0,-1 h 1 q 0,0 0,0 h 1 q 1,0 1,0 h 1 q 0,0 1,0 v -1 q 1,0 1,0 h 1 q 0,0 0,0 h 1 q 0,0 1,0 l 1,-1 q 0,0 0,0 h 1 q 0,0 1,0 h 1 q 0,0 0,0 h 1 q 0,0 0,-1 h 2 q 0,0 0,0 h 1 q 0,0 0,0 h 1 q 1,0 1,0 l 1,-1 q 0,0 0,0 h 2 q 14,-3 27,-5 l 64,-11 -54,-7 q -12,-1 -26.5,-3.5 -14.5,-2.5 -29.5,-6 -15,-3.5 -29.5,-7 -14.5,-3.5 -33.5,-9.5 z"
     id="path1" />
</svg>
