<?xml version="1.0" encoding="UTF-8" standalone="no"?>
<svg
   width="2000"
   height="2000"
   version="1.1"
   id="svg1"
   sodipodi:docname="u12087.svg"
   inkscape:version="1.3.2 (091e20e, 2023-11-25)"
   xmlns:inkscape="http://www.inkscape.org/namespaces/inkscape"
   xmlns:sodipodi="http://sodipodi.sourceforge.net/DTD/sodipodi-0.dtd"
   xmlns="http://www.w3.org/2000/svg"
   xmlns:svg="http://www.w3.org/2000/svg">
  <defs
     id="defs1" />
  <sodipodi:namedview
     id="namedview1"
     pagecolor="#505050"
     bordercolor="#eeeeee"
     borderopacity="1"
     inkscape:showpageshadow="0"
     inkscape:pageopacity="0"
     inkscape:pagecheckerboard="0"
     inkscape:deskcolor="#505050"
     inkscape:zoom="0.379"
     inkscape:cx="1000"
     inkscape:cy="998.68074"
     inkscape:window-width="1392"
     inkscape:window-height="1212"
     inkscape:window-x="0"
     inkscape:window-y="0"
     inkscape:window-maximized="0"
     inkscape:current-layer="svg1" />
  <path
     d="m 698.5,681 q 0,-19 1,-29 1,-10 3.5,-11.5 2.5,-1.5 4.5,-1.5 3,0 9.5,3 6.5,3 19.5,12 17,10 20,10.5 3,0.5 4,0.5 4,0 4,-6 0,-11 11,-13 11,-2 28,-2 15,0 35,1 28,1 47.5,3 19.5,2 27.5,5.5 8,3.5 8,8.5 0,0 -0.5,3.5 -0.5,3.5 -6.5,13.5 -5,8 -7,14 -2,6 -2,9 0,3 2,4 3,3 47.5,5.5 44.5,2.5 109.5,4.5 65,2 140,3.5 75,1.5 139,1.5 64,0 106.5,-1 42.5,-1 42.5,-6 0,-2 -5,-11.5 -5,-9.5 -12,-18.5 -7,-8 -11.5,-17.5 -4.5,-9.5 -4.5,-12.5 0,-4 18,-6 18,-2 44.5,-2.5 26.5,-0.5 58.5,-0.5 32,0 59.5,1 27.5,1 47,3 19.5,2 21.5,5 0,0 0,1 0,2 -7,13.5 -7,11.5 -22,25.5 -18,19 -30.5,33.5 -12.5,14.5 -20.5,32.5 -8,18 -12.5,41.5 -4.5,23.5 -6.5,60.5 -2,37 -2.5,89.5 -0.5,52.5 -0.5,119.5 0,65 -0.5,115 -0.5,50 -1.5,87 -1,37 -2,58.5 -1,21.5 -2,21.5 -4,0 -8,-11 -4,-11 -7,-27 l -8,-37 h -285 q -206,0 -314.5,8.5 -108.5,8.5 -114.5,24.5 -1,5 -6,5.5 -5,0.5 -7,0.5 -6,0 -12,-2 -6,-1 -13,-1 -10,0 -27.5,2.5 -17.5,2.5 -46,9 -28.5,6.5 -58,15.5 -29.5,9 -45.5,15 -13,5 -16.5,5 -3.5,0 -4.5,-5 -1,-5 -1,-11 0,-4 0.5,-13 0.5,-9 2.5,-32 l 8,-66 h -122 q -42,0 -66.5,0.5 -24.5,0.5 -39.5,3.5 -15,3 -24.5,8.5 -9.5,5.5 -23.5,16.5 -11,9 -23.5,17 -12.5,8 -16.5,8 -8,0 -9.5,-52 -1.5,-52 -1.5,-131 0,-72 1.5,-110.5 1.5,-38.5 3,-67.5 1.5,-29 3.5,-46 2,-17 5,-17 2,0 21,9.5 19,9.5 36,19.5 26,15 40.5,21.5 14.5,6.5 30,10 15.5,3.5 36,4.5 20.5,1 56.5,1 36,0 57,-1 21,-1 26,-7 5,-6 5,-14 0,-5 -3,-16.5 -3,-11.5 -14,-42.5 l -19,-56 -111,-3 q -39,-1 -61.5,-1 -22.5,0 -37,3 -14.5,3 -23.5,8.5 -9,5.5 -21,16.5 -14,11 -24.5,17.5 -10.5,6.5 -13.5,6.5 -1,0 -1,0 -3,-3 -5.5,-25.5 -2.5,-22.5 -4,-47.5 -1.5,-25 -1.5,-45.5 0,-20.5 3,-20.5 2,0 23.5,9.5 21.5,9.5 47.5,21.5 20,11 35.5,17.5 15.5,6.5 31,10 15.5,3.5 33,4.5 17.5,1 45.5,1 21,0 35.5,-0.5 14.5,-0.5 21,-2.5 6.5,-2 6.5,-6 0,0 -0.5,-2.5 -0.5,-2.5 -5.5,-12.5 -5,-9 -6.5,-13.5 -1.5,-4.5 -1.5,-5.5 0,-5 4.5,-7 4.5,-2 16.5,-2 2,0 11,0.5 9,0.5 37,3.5 l 70,8 z m 185,6 q 0,-11 -9.5,-14.5 -9.5,-3.5 -34.5,-3.5 -38,0 -38,8 0,1 2,6.5 2,5.5 42,13.5 15,3 24,3 4,0 9,-1.5 5,-1.5 5,-11.5 z m 772,-12 q 0,-4 -22.5,-5 -22.5,-1 -52.5,-1 -46,0 -60.5,2.5 -14.5,2.5 -14.5,8.5 0,1 0,2 4,6 14.5,31.5 10.5,25.5 21.5,55.5 13,29 24,48.5 11,19.5 14,19.5 1,0 1,0 2,-2 6,-13.5 4,-11.5 8,-25.5 3,-16 13,-38.5 10,-22.5 25,-45.5 7,-10 15,-23.5 8,-13.5 8,-15.5 z m -879,25 q -8,-8 -30,-13 -7,-3 -12,-3 -5,0 -7.5,5.5 -2.5,5.5 -2.5,36.5 0,21 1.5,31.5 1.5,10.5 5.5,14.5 4,4 12,4 1,0 7,-0.5 6,-0.5 18,-3.5 20,-6 22.5,-11 2.5,-5 2.5,-10 0,-6 -2,-16 -3,-11 -7,-22 -4,-11 -8,-13 z m 86,30 q -2,-2 -11,-5 -9,-3 -15,-5 -13,-5 -19,-5 -2,0 -3,1 -1,1 -1,5 0,4 2,11 2,10 5.5,17 3.5,7 7.5,7 4,0 10.5,-3.5 6.5,-3.5 12,-8 5.5,-4.5 9,-8 3.5,-3.5 3.5,-4.5 0,-1 -1,-2 z m 33,9 q 0,-6 -6,-6 -6,0 -6,6 0,6 6,6 6,0 6,-6 z m 620,16 q -2,-2 -37,-4 -35,-2 -87,-4 -52,-2 -113,-3.5 -61,-1.5 -115,-2.5 -54,-1 -92,-1 -38,0 -44,2 -4,0 -24.5,2 -20.5,2 -46.5,6 -27,3 -45.5,8.5 -18.5,5.5 -29,14.5 -10.5,9 -15,22.5 -4.5,13.5 -4.5,34.5 0,15 2,23.5 2,8.5 3,8.5 1,0 1,0 1,-1 4,-1 5,0 20,3.5 15,3.5 39,14.5 13,5 25,9 12,4 28,6.5 16,2.5 38.5,4.5 22.5,2 57,3.5 34.5,1.5 82.5,2 48,0.5 115,1.5 h 4 q 5,0 11,0 h 5 q 5,0 9,0 h 4 q 5,0 10,0 h 4 q 2,0 3,0 h 4 q 2,0 3,0 h 31 q 2,0 4,0 h 21 q 53,0 92.5,-0.5 39.5,-0.5 62.5,-1.5 23,-1 23,-5 0,-3 -7.5,-25 -7.5,-22 -16.5,-48 -9,-26 -18,-47.5 -9,-21.5 -11,-23.5 z m -1142,13 q 0,-2 -8,-8 -8,-6 -19,-12 -10,-4 -14,-5 -4,-1 -6,-1 -2,0 -4,1.5 -2,1.5 -2.5,7.5 -0.5,6 -0.5,16 0,24 2,25 2,1 3,1 6,0 20,-6 13,-6 21,-11.5 8,-5.5 8,-7.5 z m 315,-18 q 0,-2 -13,-3.5 -13,-1.5 -47,-1.5 0,0 0,0 -1,0 -1,0 0,0 -1,0 0,0 0,0 h -1 q 0,0 -1,0 0,0 -1,0 h -9 q -13,0 -13,2 0,2 6,18 6,16 15,39 l 19,54 24,-53 q 9,-21 16,-37.5 7,-16.5 7,-17.5 z m 154,46 q 3,-6 3,-11 0,-1 -0.5,-4.5 -0.5,-3.5 -5.5,-3.5 -5,0 -7.5,5.5 -2.5,5.5 -2.5,12.5 0,5 1.5,10 1.5,5 2.5,5 2,0 5,-5 0,-1 0,-1 0,-1 1,-2 0,0 0,-1 1,-1 2,-2 0,0 0,-1 0,0 0,0 0,0 0,0 l 1,-1 q 0,0 0,-1 z m -6,261 q -2,-89 -7,-150 -5,-61 -12,-81 l -15,-43 -62,15 q -35,9 -49.5,17.5 -14.5,8.5 -17.5,20.5 -1,5 -2.5,22 -1.5,17 -2.5,41.5 -1,24.5 -2,55 -1,30.5 -1,63.5 v 161 l 32,16 q 12,6 37.5,15.5 25.5,9.5 49.5,16.5 l 58,18 z m 171,-138 q -10,0 -29.5,-4.5 Q 958.5,910 938.5,903 l -43,-15 v 37 q 0,25 2.5,29.5 2.5,4.5 7.5,4.5 4,0 9,-2 9,-2 28.5,-9 19.5,-7 39.5,-12 31,-10 31,-14 0,-2 -6,-3 z m -138,24 q 2,-10 2,-22.5 0,-12.5 -2,-20.5 -1,-4 -2,-4 -1,0 -2,3 -1,3 -1,10 0,6 1,15 0,25 2,25 1,0 2,-6 z m -477,-7 q 0,0 0,-1 0,-2 -7,-7.5 -7,-5.5 -13,-9.5 -22,-15 -28,-15 0,0 -2,1 -2,1 -2,25 0,24 2,26 2,2 5,2 5,0 18,-6 9,-6 17,-10.5 8,-4.5 10,-4.5 z m 1187,-6 -225,1 q -84,0 -136,1.5 -52,1.5 -92,5.5 -40,4 -78.5,11.5 -38.5,7.5 -94.5,20.5 -30,8 -54.5,12.5 -24.5,4.5 -27.5,4.5 -1,-1 -3,-1 -3,0 -4.5,4.5 -1.5,4.5 -1.5,9.5 0,14 17.5,24 17.5,10 61.5,24 27,10 50,15.5 23,5.5 59,8.5 36,3 94.5,4.5 58.5,1.5 155.5,3.5 l 279,4 z m -941,235 q 1,-9 2,-24 1,-15 1.5,-33 0.5,-18 0.5,-37.5 0,-19.5 -1,-37.5 l -3,-87 -126,5 q -37,1 -62.5,3 -25.5,2 -42.5,5 -17,3 -26.5,7 -9.5,4 -15.5,9 -10,10 -10,20 0,6 5.5,16 5.5,10 30.5,22 25,12 65,19.5 40,7.5 93,7.5 34,0 59.5,3 25.5,3 25.5,8 0,5 -32.5,7.5 -32.5,2.5 -97.5,2.5 -31,0 -55.5,0.5 -24.5,0.5 -40,3.5 -15.5,3 -25,9 -9.5,6 -19.5,15 -16,12 -25.5,23.5 -9.5,11.5 -9.5,14.5 0,4 17,14.5 17,10.5 42,21.5 18,9 33.5,14.5 15.5,5.5 32,9 16.5,3.5 37,4.5 20.5,1 48.5,1 h 93 z m -246,-111 q -2,0 -10,-5 -8,-5 -17,-10 -13,-6 -18,-6 -3,0 -5,2 -2,2 -2,26 0,24 2,25 2,1 2,1 5,0 26,-15 8,-5 15,-10 7,-5 7,-7 z m 477,52 q 2,-10 2,-24 0,-14 -2,-25 -1,-5 -2,-5 -2,0 -2,29 0,20 0.5,25.5 0.5,5.5 1.5,5.5 1,0 2,-6 z m 107,-25 q -29,-10 -43.5,-14.5 -14.5,-4.5 -22.5,-4.5 -2,0 -6.5,0.5 -4.5,0.5 -6.5,8 -2,7.5 -2,23.5 0,23 3,26 3,3 7,3 5,0 14,-3 10,-2 29.5,-6 19.5,-4 37.5,-7 l 44,-6 z m 603,23 -242,1 q -86,0 -147,2 -61,2 -109,6.5 -48,4.5 -89,12.5 -41,8 -83,20 -20,5 -28.5,8.5 -8.5,3.5 -12.5,8.5 -4,5 -5,13.5 -1,8.5 -1,23.5 0,15 1,23.5 1,8.5 4.5,13.5 3.5,5 10,7.5 6.5,2.5 13.5,3.5 11,2 43,3 32,1 81,2 49,1 110.5,1.5 61.5,0.5 127.5,0.5 h 326 z m -1181,111 -69,-36 v 33 q 0,27 4,29 4,2 6,2 9,0 32,-13 z m 284,0 q 0,0 -1,0 -4,0 -10,13.5 -6,13.5 -9.5,32 -3.5,18.5 -4.5,30 -1,11.5 -1,15.5 0,8 2,11 2,2 9,2 4,0 13.5,-1 9.5,-1 29.5,-5 20,-4 42.5,-9.5 22.5,-5.5 42,-11 19.5,-5.5 32,-10.5 12.5,-5 12.5,-9 0,-2 -3.5,-5.5 -3.5,-3.5 -11.5,-5.5 -2,-1 -24.5,-7.5 -22.5,-6.5 -47.5,-15.5 z m 198,60 q 1,-2 1,-4 0,-4 -9,-4 -8,0 -8,4 0,2 1,4 4,2 7,2 4,0 8,-2 z"
     id="path1" />
</svg>
