<?xml version="1.0" encoding="UTF-8" standalone="no"?>
<svg
   width="2000"
   height="2000"
   version="1.1"
   id="svg1"
   sodipodi:docname="u1206C.svg"
   inkscape:version="1.3.2 (091e20e, 2023-11-25)"
   xmlns:inkscape="http://www.inkscape.org/namespaces/inkscape"
   xmlns:sodipodi="http://sodipodi.sourceforge.net/DTD/sodipodi-0.dtd"
   xmlns="http://www.w3.org/2000/svg"
   xmlns:svg="http://www.w3.org/2000/svg">
  <defs
     id="defs1" />
  <sodipodi:namedview
     id="namedview1"
     pagecolor="#505050"
     bordercolor="#eeeeee"
     borderopacity="1"
     inkscape:showpageshadow="0"
     inkscape:pageopacity="0"
     inkscape:pagecheckerboard="0"
     inkscape:deskcolor="#505050"
     inkscape:zoom="0.379"
     inkscape:cx="1000"
     inkscape:cy="998.68074"
     inkscape:window-width="1392"
     inkscape:window-height="1212"
     inkscape:window-x="0"
     inkscape:window-y="0"
     inkscape:window-maximized="0"
     inkscape:current-layer="svg1" />
  <path
     d="m 993,660 q -1,-7 -1,-13.5 0,-6.5 2,-6.5 2,0 17.5,14.5 15.5,14.5 27.5,27.5 25,28 60,56.5 35,28.5 81.5,62 46.5,33.5 102.5,70 56,36.5 116,72.5 l 78,45 57,-39 q 12,-8 26.5,-18.5 14.5,-10.5 30,-22 15.5,-11.5 30,-23 14.5,-11.5 25.5,-20.5 23,-18 40,-29.5 17,-11.5 20,-11.5 0,0 0,0 0,0 0,1 0,3 -7.5,15 -7.5,12 -24.5,29 -17,18 -35.5,40.5 -18.5,22.5 -34,43 -15.5,20.5 -25,36 -9.5,15.5 -9.5,23.5 0,8 9,13 5,4 5,9 0,4 -2,8 0,1 0,2 0,12 33,37 18,12 34.5,26 16.5,14 28,26 11.5,12 16,19.5 4.5,7.5 4.5,10.5 0,2 -1,3 -1,1 -2,1 -2,0 -7,-3 -5,-3 -9,-10 -8,-12 -32,-29.5 -24,-17.5 -51.5,-34.5 -27.5,-17 -52.5,-29.5 -25,-12.5 -35,-12.5 -8,0 -37,10 -29,10 -74,27.5 -45,17.5 -102.5,42 -57.5,24.5 -113.5,49.5 -52,23 -82.5,37.5 -30.5,14.5 -55,28 -24.5,13.5 -45,27.5 -20.5,14 -42.5,30 -39,30 -49,30 -4,0 -4,-4 0,-5 7,-17 8,-17 8,-41 0,-8 -2,-30.5 -2,-22.5 -23,-62.5 -6,-12 -12,-24.5 -6,-12.5 -6,-15.5 0,-3 3,-3 3,0 12,4 9,4 16,11 22,22 79,22 49,0 123,-16 44,-9 89.5,-22 45.5,-13 91.5,-27.5 46,-14.5 84.5,-28.5 38.5,-14 55.5,-23 12,-6 12,-9 0,-1 -2.5,-2.5 -2.5,-1.5 -21.5,-6.5 -41,-10 -67,-10.5 -26,-0.5 -33,-0.5 -39,0 -83,3 -44,3 -84,9.5 -40,6.5 -53,15.5 -22,13 -78,13 h -57 v 27 q 0,11 -2,18.5 -2,7.5 -6,7.5 -4,0 -7,-8 -3,-8 -3,-23 0,-6 -0.5,-11 -0.5,-5 -4,-7.5 -3.5,-2.5 -10.5,-2.5 -7,0 -18,1 -26,2 -33.5,6 -7.5,4 -9.5,19 -2,17 -10,17 -8,0 -8,-18 0,-8 -2,-11.5 -2,-3.5 -6,-4 -4,-0.5 -5,-0.5 -7,0 -20.5,3.5 -13.5,3.5 -38.5,9.5 l -24,6 13,-27 q 6,-11 7.5,-23 1.5,-12 1.5,-21 0,-4 -0.5,-12 -0.5,-8 -4.5,-15 -4,-7 -8,-7 0,0 -1,0 -6,2 -13.5,24.5 -7.5,22.5 -13.5,51.5 -6,29 -9.5,55 -3.5,26 -3.5,40 0,3 0,6 0,26 23,30 l 22,6 -24,6 q -9,2 -14,4.5 -5,2.5 -7,10 -2,7.5 -2.5,22.5 -0.5,15 -0.5,34 0,41 -2.5,61.5 -2.5,20.5 -6.5,20.5 -3,0 -6,-20.5 -3,-20.5 -3,-53.5 v -75 l -126,6 -1,36 q -4,36 -8,36.5 -4,0.5 -4,0.5 -8,0 -8,-35 v -35 l -91,5 -6,34 -3,36 -5,-31 q -3,-22 -7,-25 -4,-3 -14,-3 -5,0 -13,1 -13,0 -34.5,6.5 -21.5,6.5 -44.5,17.5 -13,7 -24.5,12 -11.5,5 -15.5,5 -1,0 -1,-1 -1,0 -1,-1 0,-2 5,-10 5,-8 10,-14 10,-14 13.5,-22 3.5,-8 6,-19 2.5,-11 3,-27.5 0.5,-16.5 0.5,-69.5 v -1 q 0,0 0,0 v -2 q 0,-1 0,-1 v -4 q 0,0 0,-1 v -11 q 0,-1 0,-2 v -5 q 0,-23 2,-23 1,0 5,9 4,9 6,14 9,18 18.5,30 9.5,12 21.5,21.5 12,9.5 24.5,15.5 12.5,6 17.5,6 9,0 11.5,-17.5 2.5,-17.5 2.5,-44 0,-26.5 -2.5,-57.5 -2.5,-31 -6.5,-56 -4,-23 -5,-34.5 -1,-11.5 -1,-15.5 0,-6 1,-7 0,-1 2,-1 2,0 8,3 6,3 17,8 9,7 17.5,9 8.5,2 14.5,2 6,0 11,-1 5,-1 8,-1 7,0 9,3.5 2,3.5 2,5.5 0,5 -7,9 -10,6 -17,22 -7,16 -12.5,39 -5.5,23 -9,49.5 -3.5,26.5 -3.5,56.5 0,12 0.5,22 0.5,10 3,15 2.5,5 8,7.5 5.5,2.5 23.5,5.5 16,3 23.5,4 7.5,1 9.5,1 10,0 14.5,-7 4.5,-7 4.5,-26 0,-2 -0.5,-13.5 -0.5,-11.5 -2.5,-45.5 -2,-29 -4,-49.5 -2,-20.5 -4,-38 -2,-17.5 -4,-30 -2,-12.5 -4,-23.5 -2,-6 -3,-13 -1,-7 -1,-9 0,-3 1,-4 0,-1 1,-1 2,0 9.5,3.5 7.5,3.5 17.5,9.5 13,5 23,6.5 10,1.5 15,1.5 5,0 9,-1 6,-2 10,-2 5,0 5.5,2 0.5,2 0.5,3 0,6 -8,15 -11,12 -18.5,34 -7.5,22 -13,49.5 -5.5,27.5 -8,50 -2.5,22.5 -2.5,35.5 0,9 1,17 l 1,39 56,3 q 12,1 22,1 11,0 25,-1.5 14,-1.5 17,-5.5 3,-3 3.5,-14.5 0.5,-11.5 0.5,-16.5 0,-15 -1.5,-37.5 Q 696,1096 692.5,1065 689,1034 685,1004.5 681,975 676.5,951 672,927 663,903 q -9,-22 -9,-31 0,-3 0.5,-4.5 0.5,-1.5 2.5,-1.5 6,0 24,16 17,16 23,16 0,0 3,-0.5 3,-0.5 3,-20.5 0,-30 -13,-36 -4,-1 -22,-1 -18,0 -43.5,2 -25.5,2 -54.5,5 -29,3 -56.5,6 -27.5,3 -50,6.5 -22.5,3.5 -34.5,6.5 -14,4 -31,11.5 -17,7.5 -32,18.5 -15,11 -22,11 -3,0 -4,-1.5 -1,-1.5 -1,-4.5 0,-9 10,-31 6,-14 9,-25 3,-11 4.5,-22.5 1.5,-11.5 1.5,-26 0,-14.5 -1,-35.5 -1,-17 -1,-30 0,-22 3,-26.5 3,-4.5 5,-4.5 5,0 10,21 9,31 28,47.5 19,16.5 49,28 30,11.5 70,18 40,6.5 96,6.5 17,0 33,-0.5 16,-0.5 24.5,-2 8.5,-1.5 11,-4.5 2.5,-3 2.5,-8 0,-8 -4,-19.5 Q 693,775 687,764 681,753 674.5,743.5 668,734 662,731 q -5,-2 -9,-7.5 -4,-5.5 -4,-11.5 0,-7 4.5,-7 4.5,0 16.5,4 9,3 19.5,5 10.5,2 25.5,3.5 15,1.5 32.5,3 17.5,1.5 34.5,1.5 72,2 81,4.5 9,2.5 9,3.5 0,4 -31,9 -35,5 -61,27.5 -26,22.5 -42,63.5 -11,27 -11,45 0,5 3,17 3,12 32,12 13,0 16.5,-3.5 3.5,-3.5 3.5,-10.5 0,-4 -1,-9 0,-4 0,-7 0,-15 4,-16 4,-1 5,-1 7,0 11,14 3,10 9,17.5 6,7.5 14,10.5 8,4 12,4 1,0 3,-1 2,-1 2,-10 0,-10 -4,-22.5 -4,-12.5 -10,-22.5 -10,-20 -10,-28 0,-1 1,-2.5 1,-1.5 4,-1.5 6,0 19,6 9,6 18.5,6.5 9.5,0.5 13.5,0.5 13,0 27,-2 14,-2 25,-2 3,0 11.5,0.5 8.5,0.5 13.5,5.5 6,6 17,7 11,1 21,1 6,0 13,0 16,-2 23.5,-2.5 7.5,-0.5 10.5,-0.5 5,0 5,1 0,2 -6,7.5 -6,5.5 -12,10.5 -11,9 -19,20.5 -8,11.5 -14,23 -6,11.5 -7.5,18 -1.5,6.5 -1.5,9.5 0,4 2,6 2,2 15.5,5 13.5,3 29.5,5 17,2 26,2 6,0 9.5,-1.5 3.5,-1.5 3.5,-9.5 0,-4 -1,-9 -1,-5 -1,-10 0,-11 3.5,-11.5 3.5,-0.5 3.5,-0.5 8,0 16,18 11,20 49,40.5 38,20.5 88,31.5 30,6 67,9.5 37,3.5 62.5,4.5 25.5,1 40.5,1 14,0 32,-1 18,-1 19,-5 0,0 0,-1 0,-5 -24,-21.5 -24,-16.5 -62.5,-39 -38.5,-22.5 -84,-46 Q 1229,869 1195,853 q -22,-10 -43,-18.5 -21,-8.5 -42.5,-16 -21.5,-7.5 -41,-14 Q 1049,798 1026,792 q -16,-4 -31,-7.5 -15,-3.5 -22,-4 -7,-0.5 -9,-0.5 -8,0 -16,1.5 -8,1.5 -22,5.5 -22,7 -32,7 -4,0 -6,-1 -2,-1 -2,-2 0,-5 16,-13 16,-9 32.5,-23.5 Q 951,740 967,722 q 18,-20 23,-29 5,-9 5,-18 0,-7 -2,-15 z m 46,51 q -21,-22 -28,-22 -5,0 -5,8 0,9 -7,18.5 -7,9.5 -16,20.5 l -24,24 26,4 q 10,2 39.5,11 29.5,9 62.5,19 30,11 49,15 19,4 24,4 2,0 2,-1 0,-1 -14,-12 -14,-11 -30,-22 -24,-17 -44,-34 -20,-17 -35,-33 z m -267,29 q 0,-2 -11,-4 -11,-2 -25,-2 -29,0 -31.5,5 -2.5,5 -2.5,8 0,10 11,34 l 11,25 24,-31 q 10,-13 17,-23 7,-10 7,-12 z m -380,38 q 0,0 -2,13 -2,13 -3.5,28.5 -1.5,15.5 -2.5,28.5 -1,13 -1,14 0,0 1,0 5,0 22,-3.5 17,-3.5 38.5,-10 Q 466,842 484,836 q 18,-6 18,-7 0,-8 -9,-8 -8,0 -23.5,-6 Q 454,809 436,800 Z m 501,74 q 0,-3 -5,-4 -5,-1 -11.5,-1 -6.5,0 -12.5,1 -6,1 -8,3 -2,3 -2,12.5 0,9.5 2,19 2,9.5 4.5,17.5 2.5,8 5.5,8 2,0 6.5,-7 4.5,-7 9,-17 4.5,-10 8,-19.5 Q 893,855 893,852 Z m 95,8 q 0,-2 -6,-3 -6,-1 -13,-1 -19,0 -20.5,4.5 -1.5,4.5 -1.5,7.5 0,10 6,31 l 6,23 14,-29 q 7,-11 11,-21 4,-10 4,-12 z m -57,15 q -5,-18 -11,-18 -1,0 -4.5,1.5 -3.5,1.5 -17.5,29.5 -5,10 -7,15.5 -2,5.5 -2,8.5 0,1 0.5,3.5 0.5,2.5 4.5,5 4,2.5 15,7.5 17,6 21,6 4,0 5,-6 1,-6 1,-14.5 0,-8.5 -1.5,-19 Q 933,884 931,875 Z m -221,48 q 0,-6 -5,-6 -7,0 -7.5,8.5 -0.5,8.5 -0.5,14.5 0,8 1,22.5 1,14.5 4,35.5 3,21 7,37 4,15 7,15 1,0 2.5,-2 1.5,-2 7.5,-25 6,-23 12.5,-43 6.5,-20 12.5,-31 l 13,-26 -27,5 q -7,2 -13,2 -3,0 -8.5,-1 -5.5,-1 -5.5,-6 z m 129,6 q -9,-12 -17.5,-12 -8.5,0 -13.5,12 -2,6 -2,11 0,10 11,10 6,0 15,-3 12,-3 12,-9 0,-4 -5,-9 z m 728,50 q 6,-14 12,-26.5 6,-12.5 6,-15.5 0,0 0,0 -2,0 -14.5,8 -12.5,8 -32.5,20 -17,14 -33.5,25 -16.5,11 -22.5,14 -8,5 -8,8 0,2 3.5,5 3.5,3 29.5,8 15,2 22,2 7,0 12,-3.5 5,-3.5 10,-12.5 5,-9 16,-32 z M 773,962 q 6,-8 6,-12 0,-2 -1,-4 -2,-2 -3,-2 -3,0 -7.5,5.5 -4.5,5.5 -4.5,12.5 0,5 3,5 2,0 7,-5 z m 303,17 q -4,-15 -13,-19.5 -9,-4.5 -41,-6.5 -13,-1 -22,-1 -9,0 -14.5,2.5 -5.5,2.5 -8.5,6.5 -3,4 -6,10 -5,12 -7,26.5 -2,14.5 -2,25.5 0,9 1,14 1,5 6,7.5 5,2.5 15.5,3 10.5,0.5 26.5,0.5 22,0 32.5,-1 10.5,-1 16.5,-3.5 6,-2.5 9.5,-7 3.5,-4.5 6.5,-12.5 4,-12 4,-23 0,-11 -4,-22 z m -133,11 q -1,-14 -2.5,-21 -1.5,-7 -6,-10 -4.5,-3 -12,-3 -7.5,0 -17.5,1 -19,3 -24,9.5 -5,6.5 -10,25.5 -3,13 -3.5,17.5 -0.5,4.5 -0.5,5.5 0,6 3,10 3,4 11.5,7 8.5,3 18.5,6 16,4 25,4 12,0 15.5,-6 3.5,-6 3.5,-24 0,-10 -1,-22 z M 579,961 q -4,-3 -8,-3 -5,0 -8.5,6 -3.5,6 -3.5,15 0,9 3,21 l 6,25 9,-27 q 5,-11 6,-17 1,-6 1,-8 0,-7 -5,-12 z m 543,11 q -9,-5 -17.5,-8 -8.5,-3 -10.5,-3 -2,0 -2.5,6.5 -0.5,6.5 -0.5,9.5 0,7 1,16.5 1,9.5 3,19.5 2,10 4,12 1,1 4,1 5,0 17.5,-2.5 12.5,-2.5 32.5,-7.5 l 48,-10 -26,-11 q -11,-5 -25.5,-11 -14.5,-6 -27.5,-12 z m -272,24 q 0,-29 -5.5,-31.5 -5.5,-2.5 -9.5,-2.5 -7,0 -20,5 -22,9 -22,19 0,2 2,8.5 2,6.5 29,19.5 14,6 20,6 2,0 4,-1.5 2,-1.5 2,-22.5 z M 470,976 q 1,-1 1,-3 0,-2 -3,-5.5 -3,-3.5 -7,-5.5 -1,0 -2,0 -10,0 -10,24 0,22 6,27 6,5 8,5 5,0 6,-14 0,-8 0.5,-15.5 Q 470,981 470,976 Z m 380,72 q 0,-4 -8,-8.5 -8,-4.5 -20,-8.5 -14,-5 -20,-5 0,0 -3.5,0.5 -3.5,0.5 -7.5,7.5 -1,6 -1,11 0,5 1,9 2,3 9,3.5 7,0.5 12,0.5 5,0 13,-0.5 8,-0.5 16.5,-3.5 8.5,-3 8.5,-6 z m -410,148 q 0,-7 -12,-16 -12,-9 -44,-23 -5,-2 -16,-7 -11,-5 -14,-5 -1,0 -1,0 0,2 -1.5,15.5 -1.5,13.5 -2.5,31.5 l -5,45 48,-14 q 48,-13 48,-27 z m 713,-32 q 0,-1 -0.5,-2 -0.5,-1 -3.5,-1 -1,0 -5.5,0.5 -4.5,0.5 -18.5,3.5 -14,3 -27,6 -38,8 -70,11.5 -32,3.5 -55,3.5 h -54 l 9,22 q 3,9 6,23.5 3,14.5 3,27.5 0,20 3,20.5 3,0.5 4,0.5 7,0 32,-16 10,-8 40,-24 30,-16 60,-31 34,-18 55.5,-30 21.5,-12 21.5,-15 z m -660,34 q 0,-2 -5,-2.5 -5,-0.5 -10,-0.5 -16,0 -16,6 0,1 1,3 2,2 5.5,2.5 3.5,0.5 5.5,0.5 3,0 7,-0.5 4,-0.5 8,-3 4,-2.5 4,-5.5 z"
     id="path1" />
</svg>
