<?xml version="1.0" encoding="UTF-8" standalone="no"?>
<svg
   width="2000"
   height="2000"
   version="1.1"
   id="svg1"
   sodipodi:docname="u12040.svg"
   inkscape:version="1.3.2 (091e20e, 2023-11-25)"
   xmlns:inkscape="http://www.inkscape.org/namespaces/inkscape"
   xmlns:sodipodi="http://sodipodi.sourceforge.net/DTD/sodipodi-0.dtd"
   xmlns="http://www.w3.org/2000/svg"
   xmlns:svg="http://www.w3.org/2000/svg">
  <defs
     id="defs1" />
  <sodipodi:namedview
     id="namedview1"
     pagecolor="#505050"
     bordercolor="#eeeeee"
     borderopacity="1"
     inkscape:showpageshadow="0"
     inkscape:pageopacity="0"
     inkscape:pagecheckerboard="0"
     inkscape:deskcolor="#505050"
     inkscape:zoom="0.379"
     inkscape:cx="1000"
     inkscape:cy="998.68074"
     inkscape:window-width="1392"
     inkscape:window-height="1212"
     inkscape:window-x="0"
     inkscape:window-y="0"
     inkscape:window-maximized="0"
     inkscape:current-layer="svg1" />
  <path
     d="m 1145,641.5 q 0,-1 0,-1 0,-3 3,-3 1,0 4,1 11,5 45,8 34,3 73,4 24,1 42,2 18,1 34,2 14,1 27,2 0,2 -6.5,10 -6.5,8 -12.5,14 -15,16 -29.5,38.5 -14.5,22.5 -23.5,41.5 -12,25 -19.5,54 -7.5,29 -12,71.5 -4.5,42.5 -6,103.5 -1.5,61 -1.5,150 1,39 1.5,75 0.5,36 0.5,64.5 0,28.5 -0.5,46.5 -0.5,18 -0.5,22 -2,15 -8,15 -6,0 -8,-15 v -18 l -11,-4 q -14,-5 -47.5,-16 -33.5,-11 -100.5,-35 -26,-9 -57,-20 -31,-11 -57.5,-19.5 -26.5,-8.5 -46.5,-14 -20,-5.5 -29,-6.5 -18,-4 -47.5,-6 -29.5,-2 -53.5,-2 -19,0 -39,1 -36,2 -70,6 -34,4 -42,9 -11,6 -16,6 -3,0 -3,-3 0,-1 1.5,-7 1.5,-6 24.5,-34 18,-22 38,-51 20,-29 37,-58 22,-37 26.5,-40.5 4.5,-3.5 6.5,-3.5 5,0 8,16 2,13 8,27 6,14 14.5,28 8.5,14 19,26.5 10.5,12.5 20.5,20.5 13,11 38,24.5 25,13.5 48,22.5 21,7 46,16.5 25,9.5 52,19 27,9.5 55,19.5 28,10 55,20 59,21 122,43 v -296 h -97 q -33,0 -53.5,0.5 -20.5,0.5 -35,2.5 -14.5,2 -26,5.5 -11.5,3.5 -26.5,10.5 -21,8 -40,20.5 -19,12.5 -29,20.5 -11,8 -16.5,11 -5.5,3 -6.5,3 -1,0 -1,-1 -1,-6 -1.5,-29 -0.5,-23 -0.5,-49.5 0,-26.5 0.5,-49 0.5,-22.5 0.5,-25.5 0,0 0,0 1,0 8,4.5 7,4.5 16,13.5 8,8 15,13 7,5 13,9 17,11 29,16 12,5 26,6.5 14,1.5 31,1.5 5,0 20.5,-0.5 15.5,-0.5 55.5,-0.5 h 118 l -1,-54 q -1,-11 -3,-24.5 -2,-13.5 -5,-28.5 -3,-15 -6.5,-29.5 -3.5,-14.5 -6.5,-26.5 l -20,-57 -142,4 q -51,1 -81.5,2.5 -30.5,1.5 -50,4 -19.5,2.5 -34,7.5 -14.5,5 -31.5,12 -24,10 -50.5,23.5 -26.5,13.5 -40.5,24.5 0,0 0,0 l -2,2 q -3,1 -6,3 l -2,1 q -2,2 -4,4 l -2,1 q -2,1 -4,3 h -1 q -2,2 -4,3 -11,7 -13,7 0,0 0,-1 0,0 0,0 0,-1 0,-2 0,0 0,-1 v -7 q 0,0 0,-1 v -1 q 0,-1 0,-2 0,-14 0.5,-35.5 0.5,-21.5 1.5,-47 1,-25.5 2,-47 1,-21.5 1.5,-36.5 0.5,-15 0.5,-16 0,0 0,0 3,0 11.5,9.5 8.5,9.5 30.5,24.5 21,15 42,26.5 21,11.5 48,17 27,5.5 57,6 30,0.5 56,0.5 26,0 57,0 24,-1 51,-1.5 27,-0.5 50,-1.5 27,0 53,-1 0,0 0,0 0,-1 0,-1 0,0 0,0 -1,-1 -1,-1 0,0 0,-1 0,0 0,-1 0,0 0,0 0,0 -1,-1 0,0 0,0 0,0 0,-1 -2,-8 -7,-19 -2,-5 -13.5,-30 -11.5,-25 -31.5,-70 z m 175,30 q -6,-1 -29,-2 -23,-1 -50,-2 l -64,-3 13,28 q 2,6 6.5,17 4.5,11 9.5,25 5,14 11,29.5 6,15.5 11,30.5 l 24,74 9,-47 q 5,-20 16.5,-48 11.5,-28 23.5,-49 20,-32 22.5,-38 2.5,-6 2.5,-9 0,-5 -6,-6 z m -542,64 q -9,-7 -12,-8.5 -3,-1.5 -5,-1.5 -2,0 -3,4 -1,4 -1,10 0,5 0.5,11.5 0.5,6.5 0.5,16.5 0,9 -1,22 l -2,64 20,-14 q 7,-6 21,-12.5 14,-6.5 28.5,-12.5 14.5,-6 27,-11 12.5,-5 15.5,-6 3,-2 11,-5 6,-3 11,-5 -6,-2 -11,-3 -4,-2 -8.5,-3 -4.5,-1 -8.5,-2 -4,-2 -15,-7 -11,-5 -23.5,-11.5 -12.5,-6.5 -24,-13 Q 787,741.5 778,735.5 Z m 239,283 q -11,-3 -19.5,-6 -8.5,-3 -19.5,-8 -15,-8 -26,-16 -11,-8 -22,-15 l 1,49 q 0,1 0,1 v 2 q 0,0 0,1 v 1 q 0,0 0,1 v 1 q 0,0 0,0 v 1 q 0,2 0,3 v 2 q 0,1 0,1 v 11 q 0,9 0.5,12 0.5,3 1.5,3 1,0 3,-1 2,-1 7,-5 9,-8 22.5,-14.5 13.5,-6.5 23.5,-11.5 z m -190,148 q -13,-10 -28.5,-27 -15.5,-17 -23.5,-33 l -23,-37 -42,63 q -17,26 -28,44 -11,18 -11,20 0,0 0,0 7,-1 20,-2 15,-1 53,-3 l 111,-4 z"
     id="path1" />
</svg>
