<?xml version="1.0" encoding="UTF-8" standalone="no"?>
<svg
   width="2000"
   height="2000"
   version="1.1"
   id="svg1"
   sodipodi:docname="u12018.svg"
   inkscape:version="1.3.2 (091e20e, 2023-11-25)"
   xmlns:inkscape="http://www.inkscape.org/namespaces/inkscape"
   xmlns:sodipodi="http://sodipodi.sourceforge.net/DTD/sodipodi-0.dtd"
   xmlns="http://www.w3.org/2000/svg"
   xmlns:svg="http://www.w3.org/2000/svg">
  <defs
     id="defs1" />
  <sodipodi:namedview
     id="namedview1"
     pagecolor="#505050"
     bordercolor="#eeeeee"
     borderopacity="1"
     inkscape:showpageshadow="0"
     inkscape:pageopacity="0"
     inkscape:pagecheckerboard="0"
     inkscape:deskcolor="#505050"
     inkscape:zoom="0.379"
     inkscape:cx="1000"
     inkscape:cy="998.68074"
     inkscape:window-width="1392"
     inkscape:window-height="1212"
     inkscape:window-x="0"
     inkscape:window-y="0"
     inkscape:window-maximized="0"
     inkscape:current-layer="svg1" />
  <path
     d="m 893.5,650 q 3,-16 10,-16 6,0 6,6 0,4 -3.5,14 -3.5,10 -33.5,53 -29,39 -67,100 -38,61 -55,92 -13,24 -17.5,40.5 -4.5,16.5 -5.5,27.5 -1,11 -1,18 0,6 1,14 1,8 5,8 4,0 4,8 0,4 -1,10 -1,6 -1,10 0,3 2,5.5 2,2.5 13,2.5 12,2 12.5,2.5 0.5,0.5 0.5,0.5 0,0 -6,3 -8,6 -8,12 0,3 4,9 4,6 28,30 48,51 71.5,83.5 23.5,32.5 32.5,56.5 2,8 2,12 0,3 -2,3 -1,0 -6,-2.5 -5,-2.5 -15,-23.5 -17,-33 -56.5,-80 -39.5,-47 -92.5,-95 -18,-15 -31.5,-25.5 -13.5,-10.5 -27.5,-16.5 -14,-6 -33,-9 -19,-3 -52,-8 l -43,-6 43,-30 q 17,-12 53.5,-43.5 36.5,-31.5 78.5,-69.5 42,-38 82.5,-76.5 40.5,-38.5 58.5,-56.5 23,-22 35,-38.5 12,-16.5 15,-24.5 z m 28,26 q 6,-23 13,-23 5,0 10,14 7,21 23,35 16,14 54,33 38,19 105,46 67,27 197,76 7,3 14,6 l 3,1 q 2,1 4,2 l 5,2 q 2,1 4,1 l 10,4 q 1,1 3,1 l 3,1 q 3,2 7,3 l 6,3 q 1,0 2,0 l 3,2 q 1,0 3,1 l 3,1 q 2,1 3,1 l 6,3 q 1,0 2,0 l 4,2 q 3,1 5,2 l 9,3 q 50,20 50,23 0,3 -32.5,15 -32.5,12 -71.5,25 -106,38 -106,49 0,1 1,2 2,2 18.5,11 16.5,9 31.5,18 24,13 35,21 11,8 11,12 0,0 -1,1 -1,1 -3,1 -4,0 -13.5,-3.5 -9.5,-3.5 -37.5,-19.5 -21,-12 -38.5,-22 -17.5,-10 -26,-11 -8.5,-1 -11.5,-1 -12,0 -29,5.5 -17,5.5 -47,16.5 -40,13 -65,22 -25,9 -25,12 0,2 21,14.5 21,12.5 46,27 25,14.5 46,26.5 21,12 24,12 4,0 4,-9 0,-1 -0.5,-7.5 -0.5,-6.5 -3.5,-20.5 -3,-14 -8.5,-29 -5.5,-15 -14.5,-27 -4,-5 -7.5,-10.5 -3.5,-5.5 -3.5,-7.5 0,-1 1,-2 1,-1 6,-1 2,0 9,0.5 7,0.5 21,3.5 13,3 32,5.5 19,2.5 34,2.5 24,0 26,3.5 2,3.5 2,5.5 0,4 -9,9 -10,4 -21.5,16 -11.5,12 -22,25.5 -10.5,13.5 -18.5,27 -8,13.5 -8,19.5 0,11 19,26 l 20,15 -42,-9 4,88 q 3,35 3,58 0,4 -0.5,17.5 -0.5,13.5 -3.5,13.5 -3,0 -5.5,-16.5 -2.5,-16.5 -2.5,-42.5 0,-22 -1.5,-50 -1.5,-28 -2.5,-44 l -6,-38 -72,-43 q -30,-18 -52.5,-31 -22.5,-13 -25.5,-13 -2,0 -11,8 0,0 0,0 l -1,1 q 0,0 0,0 l -1,1 q 0,0 0,0 l -2,1 q 0,0 0,0 l -1,1 q 0,0 0,0 l -1,1 q 0,0 0,0 l -1,1 q 0,0 0,0 l -1,1 q 0,0 -1,0 v 1 q -1,0 -1,0 l -1,1 q 0,0 0,0 l -1,1 q 0,0 0,0 l -1,1 q 0,0 0,0 l -1,1 q -1,0 -1,0 l -1,1 q 0,0 0,0 l -1,1 q 0,0 0,0 l -1,1 q -22,22 -26.5,32.5 -4.5,10.5 -4.5,37.5 0,15 -1.5,26.5 -1.5,11.5 -4.5,11.5 -3,0 -5.5,-10 -2.5,-10 -2.5,-25 v -33 l -19,18 q -8,8 -17,20 -9,12 -15,27 -8,16 -11,16 -1,0 -1,0 -1,-1 -5,-17 -4,-16 -10,-38 -3,-21 -9.5,-43.5 -6.5,-22.5 -11.5,-34.5 -4,-11 -6,-17 -2,-6 -2,-8 0,-3 2,-4 1,0 2,0 3,0 9.5,1.5 6.5,1.5 14.5,4.5 23,9 44,9 7,0 13,-1 13,-3 17.5,-7.5 4.5,-4.5 4.5,-15.5 0,-15 -9,-23 -9,-8 -34,-20 -53,-27 -90,-27 -9,0 -18,-1.5 -9,-1.5 -9,-3.5 1,-3 14,-19.5 13,-16.5 31,-40.5 13,-19 20.5,-29.5 7.5,-10.5 11,-12.5 3.5,-2 4.5,-2 2,0 3,2.5 1,2.5 3,7.5 3,12 13.5,33.5 10.5,21.5 23.5,44.5 l 32,55 3,-33 q 1,-11 1,-22 0,-20 -5,-39.5 -5,-19.5 -17,-37.5 -14,-17 -14,-21 0,-1 0,-1 1,-1 5,-1 4,0 14,2 10,2 26,5 20,3 26.5,4 6.5,1 9.5,1 7,0 13.5,-4 6.5,-4 13,-15.5 6.5,-11.5 12.5,-21.5 15,-27 17,-28 2,-1 2,-1 2,0 4,6 1,9 8.5,27 7.5,18 16.5,36 9,21 15,31.5 6,10.5 13.5,19 7.5,8.5 18,15 10.5,6.5 28.5,17.5 l 51,30 84,-32 q 36,-12 66,-23 30,-11 36,-14 6,-2 6,-5 0,0 -1.5,-2 -1.5,-2 -18.5,-10.5 -17,-8.5 -51.5,-22 -34.5,-13.5 -93.5,-35.5 l -180,-71 -79,5 q -35,3 -64,6.5 -29,3.5 -46,12.5 -9,4 -13,4 -2,0 -3,-1 -1,0 -1,-2 0,-4 5,-17.5 5,-13.5 12,-28.5 12,-27 19.5,-48.5 7.5,-21.5 10.5,-33.5 z m 105,81 Q 1014.5,752 998,741.5 981.5,731 966.5,719 l -34,-25 -15,40 q -15,38 -15,42 7,0 18,-1 7,0 18.5,-1 11.5,-1 29.5,-2 19,-3 40,-4.5 21,-1.5 26,-1.5 5,0 5,-1 0,-2 -13,-8 z m -243,60 q 15,-26 15,-32 0,-1 0,-1 0,0 0,0 -3,0 -25.5,19.5 -22.5,19.5 -44.5,40.5 -41,37 -73,65 -32,28 -50,41 -25,19 -25,27 0,0 1,4 1,4 34,4 8,1 22,4 14,3 26,8 15,5 25,5 8,0 15,-5 7,-5 11,-35 3,-21 11.5,-42 8.5,-21 23.5,-46 7,-14 19,-33.5 12,-19.5 15,-23.5 z m 308,66 q -12,-24 -16.5,-26.5 -4.5,-2.5 -6.5,-2.5 -4,0 -7,8 -3,6 -3,13 0,9 6.5,22.5 6.5,13.5 26.5,18.5 4,1 7,1 6,0 6.5,-2 0.5,-2 0.5,-3 0,-6 -14,-29 z m -89,12 q -15,-5 -22,-5 -4,0 -5,1.5 -1,1.5 -1,3.5 0,7 6,22 8,25 16,25 2,0 5,-2 8,-4 8,-9 0,-3 -2,-6 -1,-2 -1,-5 0,-5 5,-10 3,-4 3,-7 0,-6 -12,-8 z m -87,61 q -10,-15 -17.5,-26 -7.5,-11 -9.5,-11 -3,0 -9.5,7.5 -6.5,7.5 -14.5,17.5 l -21,26 24,4 q 1,1 1,1 h 1 q 2,1 4,2 h 1 q 2,1 4,1 l 1,1 q 0,0 1,0 h 1 q 2,1 4,2 h 1 q 2,0 4,1 13,4 24,10 14,7 19,7 1,0 2,-1 1,0 1,-2 0,-3 -6,-13 -6,-10 -15,-27 z m 233,5 q -27,-15 -52.5,-26.5 -25.5,-11.5 -39.5,-12.5 -5,-1 -9,-1 -7,0 -12.5,3.5 -5.5,3.5 -21.5,25.5 -23,35 -23,59 0,24 24,37 l 26,14 81,-27 q 2,-1 5,-2 l 2,-1 q 16,-5 29,-10 l 2,-1 q 10,-4 19,-7 25,-9 27,-12 0,0 0,0 0,-3 -16.5,-14.5 -16.5,-11.5 -40.5,-24.5 z m -137,105 q 0,-8 -10,-8 -12,0 -12,8 0,7 12,7 10,0 10,-7 z m 237,0 q -6,0 -14,-1.5 -8,-1.5 -16,-3.5 -7,-2 -10,-2 -3,0 -3.5,1 -0.5,1 -0.5,2 0,5 4,19 6,27 8.5,28 2.5,1 3.5,1 6,0 22,-20 11,-15 12,-17.5 1,-2.5 1,-3.5 0,-3 -7,-3 z m -238,34 q 7,-9 7,-10.5 0,-1.5 -6,-1.5 -12,0 -16.5,5.5 -4.5,5.5 -4.5,8.5 0,2 2,4 1,2 4,2 5,0 14,-8 z m -35,11 q 0,-9 -6.5,-11.5 -6.5,-2.5 -33.5,-2.5 -17,0 -29,1 -12,1 -12,4 0,0 0,1 1,1 2,7 3,8 6,19.5 3,11.5 6,24 3,12.5 4,15.5 2,8 7,8 2,0 9,-4.5 7,-4.5 18,-16 11,-11.5 20,-24 9,-12.5 9,-21.5 z"
     id="path1" />
</svg>
