<?xml version="1.0" encoding="UTF-8" standalone="no"?>
<svg
   width="2000"
   height="2000"
   version="1.1"
   id="svg1"
   sodipodi:docname="u12034.svg"
   inkscape:version="1.3.2 (091e20e, 2023-11-25)"
   xmlns:inkscape="http://www.inkscape.org/namespaces/inkscape"
   xmlns:sodipodi="http://sodipodi.sourceforge.net/DTD/sodipodi-0.dtd"
   xmlns="http://www.w3.org/2000/svg"
   xmlns:svg="http://www.w3.org/2000/svg">
  <defs
     id="defs1" />
  <sodipodi:namedview
     id="namedview1"
     pagecolor="#505050"
     bordercolor="#eeeeee"
     borderopacity="1"
     inkscape:showpageshadow="0"
     inkscape:pageopacity="0"
     inkscape:pagecheckerboard="0"
     inkscape:deskcolor="#505050"
     inkscape:zoom="0.379"
     inkscape:cx="1000"
     inkscape:cy="998.68074"
     inkscape:window-width="1392"
     inkscape:window-height="1212"
     inkscape:window-x="0"
     inkscape:window-y="0"
     inkscape:window-maximized="0"
     inkscape:current-layer="svg1" />
  <path
     d="m 877.99999,639.5 q 4,-3 7,-3 2,0 3,2 3,3 4,10.5 1,7.5 1,21.5 0,31 5,48 5,17 23,45 9,14 22,31.5 13,17.5 19,23.5 10,9 50.50001,34.5 40.5,25.5 85.5,55.5 54,33 119,73 51,-34 101,-72.5 50,-38.5 98,-74.5 l -45,-111 q -12,-25 -19,-40.5 -7,-15.5 -7,-20.5 0,-1 1,-2 0,0 3,0 4,0 15.5,1 11.5,1 25.5,3 23,4 42.5,5 19.5,1 28.5,1 22,0 45,-3 16,-2 29,-2 3,0 12.5,0.5 9.5,0.5 9.5,4.5 0,4 -10,14 -17,17 -29,42.5 -12,25.5 -17,34.5 -5,10 -11,26 -6,16 -11.5,34 -5.5,18 -10,36.5 -4.5,18.5 -4.5,30.5 l -1,176 q -1,64 -1,113 0,37 0.5,56.5 0.5,19.5 0.5,27.5 0,49 -8,49 -3,0 -7.5,-11.5 -4.5,-11.5 -4.5,-44.5 v -67 q -13,-12 -44,-35.5 -31,-23.5 -64.5,-46.5 -33.5,-23 -66,-41 -32.5,-18 -48.5,-18 -5,1 -20.5,7 -15.5,6 -43.5,19 -28,14 -68.5,35 -40.5,21 -79.5,43 -39.00001,22 -72.50001,41.5 -33.5,19.5 -51.5,31.5 -38,28 -62.5,62 -24.5,34 -26.5,59 1,4 1,8 0,11 -7,11 -1,0 -6.5,-1 -5.5,-1 -5.5,-12 0,-7 -3.5,-29.5 -3.5,-22.5 -11.5,-49.5 -7,-24 -16,-46 -9,-22 -19,-31 -10,-9 -12,-19 -2,-10 -2,-13 0,-8 6,-8 7,0 12,10 4,8 13,14 3,1 6,3 v -126 q -1,0 -1,0 -1,0 -1,0 h -2 q 0,0 0,0 h -3 q 0,0 0,0 h -8 q 0,0 0,0 h -4 q 0,0 0,0 h -2 q 0,0 0,0 h -4 q 0,0 -1,0 h -4 q 0,0 0,0 h -10 q -1,0 -1,0 h -4 q 0,0 -1,0 h -1 q 0,0 -1,0 h -4 q 0,0 -1,0 h -4 q 0,0 -1,0 h -10 q -1,0 -1,0 h -4 q -1,0 -1,0 h -2 q 0,0 0,0 h -4 q -1,0 -1,0 h -4 q -1,0 -1,0 h -10 q 0,0 0,0 h -3 q -45,0 -54.5,-0.5 -9.5,-0.5 -11.5,-0.5 -14,0 -25,6 -9,5 -24,18.5 -15,13.5 -29.5,29.5 -14.5,16 -25.5,32.5 -11,16.5 -14,26.5 -3,8 -7.5,14 -4.5,6 -9.5,6 -7,0 -7,-9 0,-3 1,-8 2,-10 7,-49 5,-39 10,-81 6,-54 10.5,-92.5 4.5,-38.5 6.5,-43.5 1,-2 2,-2 6,0 23,31 9,17 21.5,36.5 12.5,19.5 29.5,35.5 l 31,32 h 80 q 18,0 31.5,-1 13.5,-1 22.5,-1 6,-1 11,-1 1,0 2,0 0,0 0,0 h 1 q 0,0 0,0 1,0 1,0 h 6 q 1,0 2,0 0,0 0,0 h 1 q 0,0 1,0 0,0 0,0 h 6 v -1 q 0,0 0,0 v -4 q 0,-1 0,-2 v -1 q 0,-1 0,-1 v -7 q 0,0 0,0 v -2 q -1,-8 -2.5,-18.5 -1.5,-10.5 -6.5,-24.5 -6,-17 -18,-43.5 -12,-26.5 -24,-44.5 l -19,-30 h 124 q 53,0 89,1.5 36,1.5 36,5.5 0,2 -4.5,9 -4.5,7 -12.5,14 -10,15 -18.5,28.5 -8.5,13.5 -13.5,32.5 -5,19 -7.5,47.5 -2.5,28.5 -2.5,73.5 l 2,118 q 7,-1 15.5,-1 8.5,0 15.5,-3 3,-2 35.5,-17 32.5,-15 74.50001,-35 42,-20 83,-41 41,-21 64,-35 l 28,-15 q 0,-2 -10,-2 -3,0 -8,0 -5,0 -9,0 -10,0 -15,-1 -6,-1 -6,-3 0,-4 19,-12 13,-6 18,-10.5 5,-4.5 10,-7.5 6,-3 10,-7 -70,-47 -143,-92 -40,-25 -88.50001,-53.5 -48.5,-28.5 -76.5,-39.5 -32,-12 -62,-12 -31,0 -60,13 -12,5 -17,5 -5,0 -5,-3 0,-11 46,-57 37,-39 53,-63 16,-24 19,-30 3,-3 4.5,-7.5 1.5,-4.5 4.5,-7.5 3,-4 6,-9 z M 1523,685.5 q 0,-2 -6,-2 -6,0 -25,3 -19,3 -51,3 -28,0 -42,-2 -14,-2 -19,-2 -6,0 -6,2 0,2 6,15.5 6,13.5 14,25.5 6,13 14,35 8,22 16,40 12,37 16,38.5 4,1.5 4,1.5 8,0 18,-36 5,-19 11,-32.5 6,-13.5 17,-35.5 18,-34 25.5,-43 7.5,-9 7.5,-11 z m -646.00001,22 q -1,-3 -2,-7 -2,-5 -2,-9 0,0 0,-1 0,0 0,-1 0,0 0,-1 0,0 0,0 0,-1 0,-1 v -2 q 0,0 0,0 v -1 q -3,0 -14,13.5 -11,13.5 -23,29.5 -12,16 -22,30 -10,14 -10,18 0,5 16,5 11,0 28.5,3 17.5,3 33.5,9 17,5 24.5,6.5 7.5,1.5 10.5,1.5 4,0 4,-2 0,-3 -6.5,-14 -6.5,-11 -9.5,-16 -14,-22 -18.5,-34 -4.5,-12 -9.5,-27 z M 1434,896.5 q -1,-15 -7,-32 -3,-7 -5,-15 -24,24 -43.5,48 -19.5,24 -34.5,44 -31,43 -37,60.5 -6,17.5 -6,24.5 0,10 8,14 5,3 6.5,7.5 1.5,4.5 1.5,5.5 0,4 -3,5 -2,0 -2,1 0,3 8,10.5 8,7.5 24.5,20.5 16.5,13 35,27 18.5,14 23.5,18 12,10 18,14.5 6,4.5 10,8.5 6,3 12,8 v -27 q 0,-2 0,-3 v -4 q 0,-2 0,-4 v -11 q 0,-2 0,-4 v -3 q 0,-2 0,-4 v -52 q 0,-3 0,-5 0,-47 -2,-91 -2,-44 -7,-62 z m -535.00001,-23 q 0,0 0,-1 0,-1 -5,-1 -3,0 -14,1 -11,1 -25,1 -15,0 -24,-1.5 -9,-1.5 -12,-1.5 -1,0 -1,0 0,3 6.5,18 6.5,15 13.5,31 8,20 20,44 9,-22 16,-38 8,-19 15,-34 7,-15 10,-18 z m -108,-1 q 0,-1 -2,-1 -3,0 -12.5,2.5 -9.5,2.5 -27.5,2.5 -15,0 -23.5,-1.5 -8.5,-1.5 -10.5,-1.5 -3,0 -3,1 0,0 1,1 3,3 10.5,19.5 7.5,16.5 15,33.5 7.5,17 13.5,30 6,13 6,13 0,0 0,0 7,-45 20,-70 13,-25 13,-29 z m 43,70 q -3,-7 -7.5,-17.5 -4.5,-10.5 -6.5,-16.5 -8,-18 -16,-32 -3,8 -7,17 -2,6 -4,12.5 -2,6.5 -4,11.5 -6,13 -12.5,42.5 -6.5,29.5 -6.5,44.5 l -2,135 v 45 l 86,3 v -99 q 0,-33 -1,-54 -1,-21 -3,-36 -2,-15 -6,-28 -4,-13 -10,-28 z M 1338,917.5 q -9,6 -22.5,16.5 -13.5,10.5 -36.5,25.5 -13,9 -28.5,19.5 -15.5,10.5 -26.5,17.5 -19,14 -36,24 23,5 46,9 13,2 23,3.5 10,1.5 14,1.5 6,0 9,-2 6,-4 6,-17 0,-11 6,-24 6,-13 15,-25 z m -807.00001,91 q -12,-12 -21,-29 -9,-17 -13,-25 -6,-10 -7,-10.5 -1,-0.5 -1,-0.5 -1,0 -2.5,12.5 -1.5,12.5 -3,38 -1.5,25.5 -7.5,68.5 l -12,75 q 10,-16 23.5,-32.5 13.5,-16.5 16.5,-20.5 29,-34 57,-47 z m 341,197 -56,-3 q -22,0 -31.5,-0.5 -9.5,-0.5 -13.5,-0.5 -6,0 -7,1 -1,0 -1,3 0,4 3.5,17 3.5,13 8.5,27 7,20 9,37.5 2,17.5 5,18.5 2,0 6.5,-6 4.5,-6 10.5,-15 6,-9 12.5,-19.5 6.5,-10.5 14.5,-19.5 z"
     id="path1" />
</svg>
