<?xml version="1.0" encoding="UTF-8" standalone="no"?>
<svg
   width="2000"
   height="2000"
   version="1.1"
   id="svg1"
   sodipodi:docname="u120B0.ss01.svg"
   inkscape:version="1.3.2 (091e20e, 2023-11-25)"
   xmlns:inkscape="http://www.inkscape.org/namespaces/inkscape"
   xmlns:sodipodi="http://sodipodi.sourceforge.net/DTD/sodipodi-0.dtd"
   xmlns="http://www.w3.org/2000/svg"
   xmlns:svg="http://www.w3.org/2000/svg">
  <defs
     id="defs1" />
  <sodipodi:namedview
     id="namedview1"
     pagecolor="#505050"
     bordercolor="#eeeeee"
     borderopacity="1"
     inkscape:showpageshadow="0"
     inkscape:pageopacity="0"
     inkscape:pagecheckerboard="0"
     inkscape:deskcolor="#505050"
     inkscape:zoom="0.379"
     inkscape:cx="1000"
     inkscape:cy="998.68074"
     inkscape:window-width="1392"
     inkscape:window-height="1212"
     inkscape:window-x="0"
     inkscape:window-y="0"
     inkscape:window-maximized="0"
     inkscape:current-layer="svg1" />
  <path
     d="m 1064,638.5 q 1,-1 4,-1 4,0 12,1 8,1 19,4 18,4 32.5,4.5 14.5,0.5 20.5,0.5 17,0 34,-2 13,-2 22,-2 14,0 16.5,3 2.5,3 2.5,6 0,8 -14,26 -14,18 -23.5,38.5 -9.5,20.5 -16,48.5 -6.5,28 -10,64.5 -3.5,36.5 -5.5,86.5 l -4,124 39,21 q 33,16 61,26.5 28,10.5 59.5,16.5 31.5,6 71.5,8.5 40,2.5 101,2.5 56,0 96,2 40,2 40,4 0,2 -14,3.5 -14,1.5 -38,3 -24,1.5 -56.5,2.5 -32.5,1 -62.5,1 -70,2 -106.5,3 -36.5,1 -58,3 -21.5,2 -32.5,6 -11,4 -28,13 -16,9 -29.5,18 -13.5,9 -21,19 -7.5,10 -9.5,22 -2,12 -2,31 v 45 H 974 q -40,0 -77,0.5 -37,0.5 -67,2 -30,1.5 -50.5,3 -20.5,1.5 -28.5,3.5 -10,3 -29.5,14 -19.5,11 -42.5,27 -8,6 -19,13.5 -11,7.5 -13,7.5 0,0 0,0 -2,-2 -3.5,-26.5 -1.5,-24.5 -2.5,-56.5 -1,-28 -1,-44 0,-16 0.5,-24.5 0.5,-8.5 2.5,-10.5 2,-2 5,-2 1,0 2,0 12,0 12,-18 0,-3 -0.5,-16.5 -0.5,-13.5 -0.5,-33.5 0,-20 -0.5,-44.5 -0.5,-24.5 -0.5,-51.5 l -1,-129 H 519 q -58,0 -93.5,1.5 -35.5,1.5 -59,6 -23.5,4.5 -39,12.5 -15.5,8 -33.5,22 -12,11 -22,17 -10,6 -11,6 -1,-1 -2,-13 -1,-12 -2,-28.5 -1,-16.5 -1.5,-36 -0.5,-19.5 -0.5,-35.5 v -1 q 0,0 0,-1 v -1 q 0,-2 0,-3 v -2 q 0,-1 0,-1 v -1 q 0,-1 0,-1 v -3 q 0,-1 0,-2 v -1 q 0,0 0,0 v -10 q 0,-10 1,-10 0,0 0,0 2,1 22.5,10.5 20.5,9.5 47.5,23.5 l 64,32 131,3 h 9 q 2,0 4,0 h 1 q 3,0 5,0 h 4 q 1,0 2,0 h 32 q 2,0 4,0 h 1 q 2,0 4,0 h 4 q 1,0 1,0 h 20 q 17,0 27.5,-1 10.5,-1 10.5,-2 0,-6 -4.5,-22.5 -4.5,-16.5 -11,-36 -6.5,-19.5 -13.5,-38.5 -7,-19 -14,-32 -5,-10 -9,-20.5 -4,-10.5 -4,-12.5 0,-4 13,-5 13,-1 24,-1 11,0 23,1 l 60,5 v -21 q 0,-9 1,-15 1,-6 2,-6 2,0 23.5,9.5 21.5,9.5 51.5,23.5 l 71,34 118,3 q 51,1 77.5,1 26.5,0 34,-5 7.5,-5 7.5,-12 0,-4 -4,-13.5 -4,-9.5 -12,-27.5 -12,-27 -16.5,-39 -4.5,-12 -4.5,-16 0,-1 1,-2 z m 471,11 q 0,-1 15.5,-1.5 15.5,-0.5 40,-0.5 24.5,0 53,0.5 28.5,0.5 53.5,1.5 25,1 42,2 17,1 18,2 0,0 0,1 0,2 -5.5,8 -5.5,6 -12.5,12 -12,10 -25.5,27.5 -13.5,17.5 -21.5,34.5 -13,24 -21.5,50.5 -8.5,26.5 -12.5,66.5 -4,40 -4,99 0,59 2,148 3,89 3,140 0,13 -0.5,44 -0.5,31 -5.5,31 -3,0 -5,-23.5 -2,-23.5 -2,-65.5 0,-20 -0.5,-44.5 -0.5,-24.5 -1.5,-51 -1,-26.5 -2,-52.5 -1,-26 -2,-47 l -5,-100 h -159 q -64,0 -106,1.5 -42,1.5 -70,6 -28,4.5 -47,13 -19,8.5 -38,22.5 -10,8 -21,14 -5,4 -9,6 -1,-2 -3,-26 -2,-24 -3,-52 -1,-28 -1.5,-43.5 -0.5,-15.5 -0.5,-20.5 0,-10 1,-10 1,0 12.5,6 11.5,6 21.5,11 38,19 66,29 28,10 59.5,16 31.5,6 70.5,8 39,2 97,2 58,0 95,-2 37,-2 37,-10 0,-4 -8,-29.5 -8,-25.5 -19,-57 -11,-31.5 -23.5,-62 -12.5,-30.5 -24.5,-55.5 -8,-15 -17,-31 -9,-16 -10,-18 z m -339,19 q 0,-3 -15,-5 -15,-2 -44,-2 -15,0 -30,0.5 -15,0.5 -15,2.5 0,2 11,36 11,34 15,47 18,59 25,59 1,0 4,-6.5 3,-6.5 8,-26.5 6,-19 14,-40.5 8,-21.5 16,-37.5 3,-6 7,-15.5 4,-9.5 4,-11.5 z m 520,-3 h -75 q -32,0 -54,2 -22,2 -22,5 0,1 4.5,11 4.5,10 9.5,18 9,14 18.5,36 9.5,22 16.5,45 13,38 19.5,48.5 6.5,10.5 9.5,10.5 3,0 3,-12 0,-22 11.5,-53.5 11.5,-31.5 31.5,-65.5 z m -889,84 -44,-21 q -18,-8 -27.5,-11 -9.5,-3 -13.5,-3 -4,0 -4,3 0,0 0,1 0,0 0,0 0,0 0,0 0,1 0,2 v 5 q 0,0 0,0 v 1 q 0,1 0,1 v 3 q 0,13 1,26.5 1,13.5 2,24.5 1,11 2,12 0,0 1,0 4,0 17,-9 5,-6 16.5,-12.5 11.5,-6.5 22.5,-11.5 z m -122,-12 h -43 q -31,0 -36,2 -5,2 -5,5 0,3 2,7 2,7 8,21.5 6,14.5 11,30.5 9,29 14,34.5 5,5.5 7,5.5 3,0 3,-9 0,-11 6,-26 6,-15 14,-32 z m 18,62 q 0,-16 -2.5,-27 -2.5,-11 -4.5,-11 -2,0 -9,9 -7,9 -12,21 -5,10 -8.5,22.5 -3.5,12.5 -5.5,36 -2,23.5 -3,62.5 -1,39 -1,104 -1,56 -1.5,83.5 -0.5,27.5 -0.5,41.5 0,15 0.5,32 0.5,17 5,29 4.5,12 14.5,19.5 10,7.5 27,12.5 17,5 38,13 25,9 41,13.5 16,4.5 38.5,7 22.5,2.5 56.5,3.5 34,1 91,3 l 164,3 -5,-198 q -1,-55 -3,-95.5 -2,-40.5 -4,-69.5 -2,-29 -5,-49 -3,-20 -10,-42 -3,-11 -9,-28.5 -6,-17.5 -8,-19.5 -1,-1 -13,-2 -12,-1 -32,-2 -20,-1 -46.5,-1.5 -26.5,-0.5 -65.5,-0.5 -42,0 -71.5,0.5 -29.5,0.5 -47,2.5 -17.5,2 -27,6 -9.5,4 -22.5,12 -15,9 -27,18.5 -12,9.5 -16,19.5 -3,7 -6,7 -2,0 -6,-5.5 -4,-5.5 -4,-30.5 z m -397,75 q -17,-8 -31,-14.5 -14,-6.5 -16,-7.5 0,0 -1,0 -1,0 -3,11.5 -2,11.5 -2,31.5 0,33 3,35.5 3,2.5 4,2.5 7,0 25,-16 5,-3 16,-8.5 11,-5.5 20,-7.5 l 24,-9 z m 897,6 q -2,-2 -6,-4 -4,-2 -8,-2 -8,0 -10.5,10 -2.5,10 -2.5,39 0,14 0.5,26.5 0.5,12.5 2.5,12.5 1,0 12,-5.5 11,-5.5 25,-13.5 15,-9 29.5,-15 14.5,-6 26.5,-6 10,0 10,-4 0,-1 -5,-6.5 -5,-5.5 -32,-13.5 -16,-5 -28,-10 -12,-5 -14,-8 z m -417,1 q 1,-1 21,-1.5 20,-0.5 31,-0.5 23,0 51,1 101,2 103.5,6 2.5,4 2.5,5 0,7 -94,7 H 819 v 150 q 0,72 -2,107.5 -2,35.5 -5,35.5 -1,0 -1,0 -3,-2 -4.5,-24.5 -1.5,-22.5 -2.5,-56.5 -1,-34 -1.5,-73 -0.5,-39 -0.5,-73 0,-34 1,-57.5 1,-23.5 3,-25.5 z m 91,54 q 2,-2 15,-3.5 13,-1.5 26.5,-2 13.5,-0.5 23.5,-0.5 9,0 24.5,0.5 15.5,0.5 32.5,1.5 17,1 28.5,3 11.5,2 11.5,4 0,4 -20.5,6 -20.5,2 -55.5,2 h -75 v 108 q 0,51 -3,80 -3,29 -6,29 -2,0 -4,-16.5 -2,-16.5 -2.5,-41 -0.5,-24.5 -1,-46.5 -0.5,-22 -0.5,-35 0,-14 0.5,-32.5 0.5,-18.5 2,-36.5 1.5,-18 3.5,-20 z m -651,146 q -3,-10 -3,-15 0,-7 7,-7 7,0 35,18 26,17 49,27 23,10 50.5,16 27.5,6 63,8 35.5,2 84.5,2 50,0 84,2 34,2 34,6 0,1 -11.5,3 -11.5,2 -31.5,3.5 -20,1.5 -47.5,2.5 -27.5,1 -59.5,1 -60,1 -95,3 -35,2 -57,6.5 -22,4.5 -35,13.5 -13,9 -26,21 -11,10 -18.5,14.5 -7.5,4.5 -9.5,4.5 -2,0 -4,-15.5 -2,-15.5 -2,-37.5 0,-24 -2.5,-46 -2.5,-22 -4.5,-31 z m 977,10 q -12,-5 -25.5,-10.5 -13.5,-5.5 -15.5,-5.5 -1,0 -1,12 v 3 q 0,1 0,2 v 3 q 0,1 0,2 v 65 l 36,-20 q 16,-8 31.5,-13.5 15.5,-5.5 26.5,-5.5 8,0 8,-2 0,-2 -6,-6.5 -6,-4.5 -54,-23.5 z m -906,20 q -18,-8 -32.5,-14 -14.5,-6 -16.5,-6 -1,0 -1,13 v 1 q 0,1 0,3 v 1 q 0,3 0,5 v 3 q 0,1 0,1 v 17 q 1,18 2,30.5 1,12.5 3,12.5 1,0 8.5,-4 7.5,-4 15.5,-10 13,-9 26,-16 13,-7 22,-9 7,-2 9.5,-3.5 2.5,-1.5 2.5,-3.5 0,-1 -1.5,-2.5 -1.5,-1.5 -10.5,-6 -9,-4.5 -27,-12.5 z m 375,127 q -9,-6 -14,-8 -5,-2 -7,-2 -4,0 -7,3 -3,3 -4,14 -1,11 -1,31 0,19 1,33.5 1,14.5 4,14.5 3,0 16.5,-6 13.5,-6 28.5,-14 18,-9 34.5,-16 16.5,-7 22.5,-9 8,-3 8,-5 0,-1 -2,-3 -2,-2 -21,-9 -15,-5 -30.5,-11 -15.5,-6 -28.5,-13 z"
     id="path1" />
</svg>
