<?xml version="1.0" encoding="UTF-8" standalone="no"?>
<svg
   width="2000"
   height="2000"
   version="1.1"
   id="svg1"
   sodipodi:docname="u120F0.svg"
   inkscape:version="1.3.2 (091e20e, 2023-11-25)"
   xmlns:inkscape="http://www.inkscape.org/namespaces/inkscape"
   xmlns:sodipodi="http://sodipodi.sourceforge.net/DTD/sodipodi-0.dtd"
   xmlns="http://www.w3.org/2000/svg"
   xmlns:svg="http://www.w3.org/2000/svg">
  <defs
     id="defs1" />
  <sodipodi:namedview
     id="namedview1"
     pagecolor="#505050"
     bordercolor="#eeeeee"
     borderopacity="1"
     inkscape:showpageshadow="0"
     inkscape:pageopacity="0"
     inkscape:pagecheckerboard="0"
     inkscape:deskcolor="#505050"
     inkscape:zoom="0.379"
     inkscape:cx="1000"
     inkscape:cy="998.68074"
     inkscape:window-width="1392"
     inkscape:window-height="1212"
     inkscape:window-x="0"
     inkscape:window-y="0"
     inkscape:window-maximized="0"
     inkscape:current-layer="svg1" />
  <path
     d="m 883.5,643 q 0,-6 2.5,-8.5 2.5,-2.5 7.5,-3 5,-0.5 8,-0.5 7,0 18.5,1 11.5,1 36.5,3 14,2 31,3.5 17,1.5 33.5,2 16.5,0.5 31.5,0.5 h 1 q 1,0 2,0 h 1 q 1,0 1,0 h 3 q 0,0 1,0 h 1 q 0,0 1,0 1,0 1,0 h 11 q 0,0 1,0 h 2 q 20,0 41.5,0.5 21.5,0.5 35.5,3.5 16,4 16,9 0,2 -8,7.5 -8,5.5 -51,7.5 l -58,2 -17,49 q -8,20 -10.5,33 -2.5,13 -2.5,17 0,3 1,4 1,1 7,1 4,0 13.5,-0.5 9.5,-0.5 33,-2 23.5,-1.5 54.5,-4.5 31,-3 93,-11 44,-5 84,-9.5 40,-4.5 53.5,-5 13.5,-0.5 18.5,-0.5 10,0 14,1.5 4,1.5 4,5.5 0,1 -14.5,4 -14.5,3 -40,6.5 -25.5,3.5 -59.5,8 -34,4.5 -72,9.5 -39,4 -73.5,8.5 -34.5,4.5 -61.5,8.5 -27,4 -43,7.5 -16,3.5 -18,5.5 -2,2 -4,32 -2,30 -3.5,73.5 -1.5,43.5 -2,94 -0.5,50.5 -0.5,94 0,43.5 1.5,73.5 1.5,30 3.5,32 1,1 17,3.5 16,2.5 43.5,6 27.5,3.5 64,8 36.5,4.5 68.5,8.5 49,6 85.5,11 36.5,5 64,9 27.5,4 44,6.5 16.5,2.5 19.5,5.5 1,1 1,2 0,2 -3,3 -3,1 -14,1 -5,0 -19,-0.5 -14,-0.5 -54,-4.5 -40,-4 -119,-14 -25,-3 -60.5,-7 -35.5,-4 -62.5,-7 -27,-3 -44,-5 -17,-2 -19,-2 -7,0 -9.5,16 -2.5,16 -2.5,53 0,69 -8,69 0,0 -4.5,-0.5 -4.5,-0.5 -8.5,-71.5 l -3,-70 h -160 q -69,0 -110,2 -41,2 -63.5,8 -22.5,6 -31.5,18 -9,12 -13,32 -1,11 -4.5,27.5 -3.5,16.5 -5.5,25.5 -2,14 -6,22 -4,8 -8,8 -4,0 -6,-7.5 -2,-7.5 -2,-19.5 0,-12 3,-26.5 3,-14.5 6,-25.5 3,-11 5,-24 2,-13 5,-30 3,-17 6,-36.5 3,-19.5 5,-37.5 10,-73 16,-84 6,-11 9,-11 6,0 14,19 7,18 19,31 12,13 29.5,24.5 17.5,11.5 39.5,20.5 22,9 45,14 19,5 33.5,10.5 14.5,5.5 14.5,8.5 0,4 23.5,5.5 23.5,1.5 57.5,1.5 h 81 l -2,-194 q 0,-40 -1,-75.5 -1,-35.5 -2,-62.5 -1,-27 -2,-43.5 -1,-16.5 -2,-17.5 -1,-1 -8,-1 -7,0 -26.5,2.5 -19.5,2.5 -53.5,10 -34,7.5 -70,17.5 -36,10 -65,21 -27,10 -45.5,19.5 -18.5,9.5 -28,20.5 -9.5,11 -12,27.5 -2.5,16.5 -2.5,41.5 0,25 -2.5,41.5 -2.5,16.5 -7.5,16.5 -7,0 -12.5,-32.5 -5.5,-32.5 -5.5,-78.5 0,-19 -1,-35 -1,-16 -2,-32.5 -1,-16.5 -2.5,-32.5 -1.5,-16 -3.5,-31 -4,-21 -4.5,-32.5 -0.5,-11.5 -0.5,-14.5 0,-12 2,-14 0,0 1,0 3,0 10,6 7,6 16,20 20,25 63.5,40 43.5,15 95.5,17 7,0 14,0 19,0 41.5,-2 22.5,-2 46.5,-6.5 24,-4.5 40.5,-9.5 16.5,-5 16.5,-13 0,-8 -9.5,-29 -9.5,-21 -22,-40.5 -12.5,-19.5 -26,-34 -13.5,-14.5 -24.5,-14.5 -11,0 -11,-14 z m 148,22 q 0,-4 -13.5,-6 -13.5,-2 -31.5,-2 h -43 l 55,119 17,-51 q 7,-23 11.5,-40 4.5,-17 4.5,-20 z m -273,150 q -15,0 -32.5,-5.5 Q 708.5,804 691.5,797 l -41,-20 6,35 q 2,14 4,30 2,16 2,24 0,7 1.5,10 1.5,3 5.5,3 1,0 4,-0.5 3,-0.5 15,-6 12,-5.5 22,-10.5 56,-27 60.5,-33 4.5,-6 4.5,-8 0,-6 -17,-6 z m -25,366 q -16,-7 -35.5,-18.5 -19.5,-11.5 -32.5,-20.5 l -28,-21 -6,28 q -2,11 -4,26 -2,15 -2,25 0,15 3.5,17 3.5,2 9.5,2 7,0 18,-2 11,-2 32,-6 21,-4 39,-8 l 42,-7 z"
     id="path1" />
</svg>
