<?xml version="1.0" encoding="UTF-8" standalone="no"?>
<svg
   width="2000"
   height="2000"
   version="1.1"
   id="svg1"
   sodipodi:docname="u12070.svg"
   inkscape:version="1.3.2 (091e20e, 2023-11-25)"
   xmlns:inkscape="http://www.inkscape.org/namespaces/inkscape"
   xmlns:sodipodi="http://sodipodi.sourceforge.net/DTD/sodipodi-0.dtd"
   xmlns="http://www.w3.org/2000/svg"
   xmlns:svg="http://www.w3.org/2000/svg">
  <defs
     id="defs1" />
  <sodipodi:namedview
     id="namedview1"
     pagecolor="#505050"
     bordercolor="#eeeeee"
     borderopacity="1"
     inkscape:showpageshadow="0"
     inkscape:pageopacity="0"
     inkscape:pagecheckerboard="0"
     inkscape:deskcolor="#505050"
     inkscape:zoom="0.379"
     inkscape:cx="1000"
     inkscape:cy="998.68074"
     inkscape:window-width="1392"
     inkscape:window-height="1212"
     inkscape:window-x="0"
     inkscape:window-y="0"
     inkscape:window-maximized="0"
     inkscape:current-layer="svg1" />
  <path
     d="m 843,683 q 2,-22 7,-37.5 5,-15.5 11,-15.5 5,0 5,9 0,8 7.5,18.5 7.5,10.5 17.5,20.5 13,12 35.5,28 22.5,16 44.5,29.5 22,13.5 37.5,21.5 15.5,8 20.5,8 1,0 2,-1 1,-1 1,-4 0,-4 -3,-12.5 -3,-8.5 -9,-21 -6,-12.5 -13,-22 -7,-9.5 -13,-9.5 -3,0 -5.5,-3 -2.5,-3 -2.5,-5 0,-6 27,-8.5 27,-2.5 60,-2.5 33,0 61.5,1.5 28.5,1.5 31.5,6.5 0,1 0,3 0,7 -9,11 -5,1 -15,15 -10,14 -19,30 -9,16 -13,27.5 -4,11.5 -4,15.5 0,2 1,3 1,1 18,4 17,3 46,7.5 29,4.5 67.5,10 38.5,5.5 81.5,11.5 l 209,30 58,-34 q 24,-15 50,-31 26,-16 42,-28 24,-19 33,-19 2,0 3.5,1 1.5,1 1.5,2 0,8 -51,51 -75,63 -117,112 -42,49 -42,69 0,5 2,9 4,5 5,10 1,5 1,9 0,3 -1,7 0,1 0,1 0,6 13,22 13,16 36,36 18,15 35,32 17,17 29,31.5 12,14.5 17.5,23.5 5.5,9 5.5,12 0,1 0,1 0,0 -1,0 -5,0 -24.5,-16 -19.5,-16 -46.5,-43 l -66,-64 h -190 q -67,0 -106,0.5 -39,0.5 -60.5,2 -21.5,1.5 -31,5.5 -9.5,4 -18.5,11 l -29,20 6,196 204,-4 q 46,-1 84,-1 38,0 66,1 28,1 43.5,2.5 15.5,1.5 16.5,3.5 0,0 0,0 0,5 -84,8 -84,3 -238,7 -68,1 -131.5,3 -63.5,2 -114.5,4 -51,2 -85.5,4.5 -34.5,2.5 -49.5,6.5 -12,3 -33.5,12 -21.5,9 -32.5,19 l -29,23 v -75 q 0,-32 -2,-58.5 -2,-26.5 -7,-34.5 -4,-7 -23.5,-24 -19.5,-17 -45,-36 -25.5,-19 -51.5,-37 -26,-18 -43,-26 -13,-7 -27.5,-11 -14.5,-4 -28.5,-4 -14,0 -14.5,2 -0.5,2 -0.5,3 0,5 9,23 7,11 13,19 6,8 11,8 6,0 6,9 0,0 0,1 0,5 13.5,19.5 13.5,14.5 35.5,32.5 24,21 44.5,41.5 20.5,20.5 35,37 14.5,16.5 21,27 6.5,10.5 6.5,16.5 0,1 0,2 0,2 -2,2 -3,0 -10.5,-7 -7.5,-7 -18.5,-20 -17,-21 -50.5,-51.5 -33.5,-30.5 -71,-60 -37.5,-29.5 -71,-53 Q 394,1092 374,1085 q -11,-4 -27.5,-7.5 -16.5,-3.5 -27.5,-4.5 -22,0 -29,-2.5 -7,-2.5 -7,-7.5 0,-4 4,-12.5 4,-8.5 28,-33 24,-24.5 58,-57.5 34,-33 57,-57 23,-24 42,-44.5 19,-20.5 32.5,-37 Q 518,805 522,797 q 17,-28 21,-31 4,-3 5,-3 2,0 2,3 0,2 -1.5,9.5 -1.5,7.5 -12.5,34.5 -11,27 -31,68 -7,14 -16,33 -9,19 -16,35.5 -7,16.5 -12,28.5 -5,12 -6,18 l -8,29 27,-20 q 8,-6 22.5,-19 Q 511,970 528,952.5 545,935 563.5,916 582,897 599,879.5 616,862 628.5,847 641,832 647,824 q 10,-17 11.5,-17.5 1.5,-0.5 1.5,-0.5 2,0 2,15 0,1 0,3 0,7 -4.5,17.5 Q 653,852 647,860 q -8,9 -20,33 -12,24 -25,51 -13,27 -22.5,50 -9.5,23 -9.5,27 0,3 5.5,16.5 5.5,13.5 8.5,20.5 11,25 27,43.5 16,18.5 34,35 18,16.5 33.5,26 15.5,9.5 21.5,9.5 1,0 2,0 7,-2 8.5,-35.5 1.5,-33.5 1.5,-70.5 0,-37 -1,-88 -1,-51 -2.5,-91.5 Q 707,846 703,820 699,794 692.5,776.5 686,759 682,752 q -2,-4 -2,-6 0,-7 17,-7.5 17,-0.5 43,-0.5 26,0 49.5,0.5 23.5,0.5 27.5,1.5 2,0 2,2 0,2 -3.5,6.5 Q 812,753 808,757 796,770 781.5,794.5 767,819 755,846 l -29,66 3,146 q 1,44 2,72.5 1,28.5 3,45.5 2,17 5,25 3,8 12,14 9,5 16,5 7,0 11,-17 4,-17 4.5,-57.5 0.5,-40.5 0.5,-98.5 0,-54 0.5,-89 0.5,-35 1.5,-60.5 1,-25.5 2.5,-40.5 1.5,-15 3.5,-15 2,1 10.5,5 8.5,4 17.5,10 13,7 41.5,9.5 28.5,2.5 77.5,3.5 43,0 68.5,2 25.5,2 25.5,7 0,5 -20.5,7 -20.5,2 -49.5,2 -42,0 -73.5,4.5 -31.5,4.5 -50,12 Q 820,912 817,918 q -3,6 -3,9 0,6 7,12 12,9 38.5,11.5 26.5,2.5 74.5,2.5 47,0 72.5,2.5 25.5,2.5 25.5,6.5 0,3 -8.5,6.5 -8.5,3.5 -21.5,3.5 -23,0 -23,9 0,1 1.5,7 1.5,6 33.5,22 l 32,16 3,-76 q 0,-10 0,-21 0,-21 -1.5,-48.5 Q 1046,853 1043,837 l -8,-36 -79,-3 q -15,0 -28,0 -25,0 -45,1.5 -20,1.5 -39,11.5 -9,5 -17.5,7.5 -8.5,2.5 -11.5,2.5 -1,0 -2,0 0,-1 0,-2 0,-4 2,-15 2,-11 7,-28 6,-16 12,-43 6,-27 9,-50 z m 71,35 Q 904,712 886,700.5 868,689 866,687 q -2,0 -6.5,14.5 -4.5,14.5 -9,32 -4.5,17.5 -7,30 -2.5,12.5 -2.5,16.5 0,3 1,3 1,0 5,0 6,0 24.5,-1 18.5,-1 45,-3 26.5,-2 48,-5 21.5,-3 21.5,-4 0,-2 -17,-15 -17,-13 -55,-37 z m 204,-19 q -2,-2 -16,-3 -14,-1 -25.5,-1.5 -11.5,-0.5 -18.5,-0.5 -7,0 -16.5,0.5 -9.5,0.5 -9.5,1.5 1,9 5.5,23.5 4.5,14.5 10.5,29 6,14.5 12.5,25 6.5,10.5 9.5,11.5 5,0 14.5,-12 9.5,-12 18,-27.5 8.5,-15.5 12.5,-27 4,-11.5 4,-15.5 0,-3 -1,-4 z M 756,809 q 12,-28 12,-40 0,-4 -2,-8 -2,-4 -17,-4 -6,0 -15,1 -23,1 -23,11 0,3 2,7 2,7 5,18.5 3,11.5 5,19.5 6,27 12,27 1,0 4.5,-1.5 Q 743,838 756,809 Z m 566,32 q -48,-7 -80.5,-12 -32.5,-5 -58.5,-8.5 -26,-3.5 -43,-6.5 -17,-3 -22,-4 -3,0 -5,0 -23,0 -32.5,25 -9.5,25 -9.5,81 0,11 0,22 l 3,84 83,7 q 17,1 41.5,1.5 24.5,0.5 51.5,0.5 27,0 54,-0.5 27,-0.5 51,-1.5 l 115,-7 -28,-17 q -13,-5 -30.5,-10.5 -17.5,-5.5 -32.5,-5.5 -10,0 -27.5,-2 -17.5,-2 -28.5,-6 -9,-2 -11,-3.5 -2,-1.5 -2,-2.5 0,-2 6,-6.5 6,-4.5 25,-15 19,-10.5 43,-21.5 52,-26 77.5,-42 25.5,-16 25.5,-20 0,-1 0,-1 -2,-1 -16.5,-4 -14.5,-3 -38.5,-7 -24,-4 -55.5,-9 -31.5,-5 -54.5,-8 z m 219,47 q 11,-9 18,-18.5 7,-9.5 7,-11.5 0,-1 0,-1 0,0 0,0 -2,0 -9.5,3.5 -7.5,3.5 -22,10.5 -14.5,7 -33.5,17 -19,10 -45,24 -32,18 -52,30 -20,12 -25,17 -5,5 -5,7 0,1 3,2.5 3,1.5 16,3.5 13,2 30,6 17,4 26,7 10,3 17,3 6,0 10.5,-3.5 4.5,-3.5 13.5,-27.5 7,-14 20.5,-33.5 Q 1524,904 1541,888 Z m -720,3 q 5,-5 5,-9 0,-4 -5,-6 -3,-2 -6,-2 -6,0 -9,7 -4,5 -4,9 0,3 3,5 3,2 5,2 5,0 11,-6 z m -369,62 q 8,-16 11.5,-28 3.5,-12 3.5,-17 0,-1 0,-2 0,0 -1,0 -4,0 -25,18 -21,18 -54,50 l -75,76 56,15 q 39,10 52,10 2,0 5.5,-0.5 3.5,-0.5 3.5,-4.5 0,-3 -5,-10 -6,-7 -6,-12 0,-4 4,-6 5,-3 7.5,-11.5 2.5,-8.5 2.5,-16.5 0,-12 5.5,-29.5 Q 443,967 452,953 Z m 125,7 q 5,-9 7.5,-17.5 2.5,-8.5 2.5,-11.5 0,-1 0,-1 0,0 0,0 -3,0 -20,15 -17,15 -42,36 -25,23 -39.5,38 -14.5,15 -14.5,20 0,1 0,1 2,1 14.5,5 12.5,4 26.5,7.5 14,3.5 24,5 10,1.5 14,1.5 2,0 3,0 3,-2 5,-12 2,-10 2,-21 0,-15 4.5,-33.5 Q 569,974 577,960 Z m 247,12 q 2,-3 2,-5 0,-4 -5,-8 -3,-3 -6,-3 -1,0 -3.5,1 -2.5,1 -4.5,5 -2,2 -2,4 0,2 1,4.5 1,2.5 5,4.5 3,2 6,2 4,0 7,-5 z m 136,27 q -3,-19 -9,-23 -6,-4 -33,-4 -17,1 -35,4 -18,3 -33,8 -15,5 -25.5,11 -10.5,6 -12.5,12 0,1 0,2 0,4 5.5,9 5.5,5 16.5,8 9,4 28.5,6.5 19.5,2.5 35,3 15.5,0.5 24.5,0.5 10,0 22.5,-0.5 12.5,-0.5 15.5,-3.5 2,-2 2,-12 0,-10 -2,-21 z m 111,47 q -9,0 -24.5,-4.5 -15.5,-4.5 -29.5,-10.5 -10,-4 -21,-8 -6,-1 -10,-3 -2,3 -3,17.5 -1,14.5 -1,30.5 0,16 1,29 1,13 4,13 3,0 17.5,-7.5 14.5,-7.5 31.5,-17 17,-9.5 31,-19 14,-9.5 16,-13.5 1,-1 1,-2 0,-2 -3,-3.5 -3,-1.5 -10,-1.5 z m -247,10 q 2,-3 2,-6 0,-5 -5,-9 -3,-2 -6,-2 -4,0 -8,5 -2,3 -2,5 0,2 1,4.5 1,2.5 5,5.5 3,2 6,2 4,0 7,-5 z m 139,30 q 0,-9 -1,-14.5 -1,-5.5 -5.5,-8.5 -4.5,-3 -13.5,-4 -9,-1 -26,-1 -5,0 -10,0 -13,0 -29,2 -16,2 -32,7 -16,5 -26,11.5 -10,6.5 -10,12.5 0,6 11,11 11,5 27.5,9 16.5,4 33,5.5 16.5,1.5 29.5,1.5 6,0 13,0 12,-1 20.5,-2.5 8.5,-1.5 12.5,-4.5 4,-3 5,-9 1,-6 1,-16 z m 96,107 q 0,-69 -4.5,-80.5 -4.5,-11.5 -7.5,-11.5 -5,0 -13,13 -7,13 -14.5,18 -7.5,5 -14.5,5 -8,0 -14,5 -6,5 -8,10 -2,5 -6,9.5 -4,4.5 -9,4.5 -4,0 -6.5,-4.5 -2.5,-4.5 -2.5,-8.5 0,-8 -10,-11.5 -10,-3.5 -19.5,-4 -9.5,-0.5 -11.5,-0.5 -15,0 -33.5,3 -18.5,3 -38.5,9 -30,9 -33,14.5 -3,5.5 -3,7.5 0,7 13,14 13,7 46.5,12 33.5,5 88.5,5 70,0 70,8 0,0 0,1 -2,5 -27,7.5 -25,2.5 -64,2.5 -84,0 -91.5,6.5 -7.5,6.5 -7.5,8.5 0,11 47,28 30,11 58.5,16.5 28.5,5.5 57.5,5.5 h 58 z m -229,-65 q 0,-5 -5,-7 -5,-2 -11,-2 -13,0 -13,9 0,9 13,9 6,0 11,-2.5 5,-2.5 5,-6.5 z m 0,84 q 0,-5 -5,-7.5 -5,-2.5 -11,-2.5 -13,0 -13,10 0,9 13,9 6,0 11,-2.5 5,-2.5 5,-6.5 z m -26,41 q -26,-7 -38.5,-9.5 -12.5,-2.5 -19.5,-2.5 -7,0 -14,2.5 -7,2.5 -10,10.5 -3,8 -3,27 0,28 4.5,31.5 4.5,3.5 8.5,3.5 8,0 23,-7 15,-6 36.5,-11.5 21.5,-5.5 41.5,-7.5 34,-4 34,-11 0,-1 -3,-5.5 -3,-4.5 -60,-20.5 z"
     id="path1" />
</svg>
