<?xml version="1.0" encoding="UTF-8" standalone="no"?>
<svg
   width="2000"
   height="2000"
   version="1.1"
   id="svg1"
   sodipodi:docname="u1202F.svg"
   inkscape:version="1.3.2 (091e20e, 2023-11-25)"
   xmlns:inkscape="http://www.inkscape.org/namespaces/inkscape"
   xmlns:sodipodi="http://sodipodi.sourceforge.net/DTD/sodipodi-0.dtd"
   xmlns="http://www.w3.org/2000/svg"
   xmlns:svg="http://www.w3.org/2000/svg">
  <defs
     id="defs1" />
  <sodipodi:namedview
     id="namedview1"
     pagecolor="#505050"
     bordercolor="#eeeeee"
     borderopacity="1"
     inkscape:showpageshadow="0"
     inkscape:pageopacity="0"
     inkscape:pagecheckerboard="0"
     inkscape:deskcolor="#505050"
     inkscape:zoom="0.379"
     inkscape:cx="1000"
     inkscape:cy="998.68074"
     inkscape:window-width="1392"
     inkscape:window-height="1212"
     inkscape:window-x="0"
     inkscape:window-y="0"
     inkscape:window-maximized="0"
     inkscape:current-layer="svg1" />
  <path
     d="m 1251.5,634.5 q 2,-2 4,-2 3,0 6,2 8,3 29,5.5 21,2.5 69,5.5 3,0 20.5,1.5 17.5,1.5 17.5,3.5 0,1 -6.5,10 -6.5,9 -8.5,12 -11,14 -17,27 -6,13 -11.5,28 -5.5,15 -10.5,29 -5,14 -7,20 v 90 l 69,-69 q 12,-12 28.5,-25.5 16.5,-13.5 22.5,-16.5 6,-3 7,-3 1,0 1,1 0,2 -4.5,9 -4.5,7 -39.5,42 l -66,66 126,1 q 38,0 61,2 23,2 23,5 0,3 -25,5 -25,2 -70,2 h -122 l 62,51 q 17,15 26.5,24.5 9.5,9.5 9.5,12.5 0,1 0,1 0,0 0,0 -3,0 -18.5,-9.5 -15.5,-9.5 -42.5,-30.5 -14,-12 -29,-24.5 -15,-12.5 -18,-12.5 -1,0 -1,0 v 96 q 0,39 -4.5,61.5 -4.5,22.5 -6.5,22.5 -3,0 -5,-21.5 -2,-21.5 -2,-57.5 v -95 l -134,153 q -8,13 -15.5,19.5 -7.5,6.5 -13.5,11.5 -4,3 -21.5,18 -17.5,15 -34.5,29 l -42,33 84,2 q 84,2 84,8 0,0 -2,3.5 -2,3.5 -90,3.5 h -90 l 44,34 q 45,34 45,42 0,3 -5,3 -1,0 -14.5,-9 -13.5,-9 -31.5,-24 -17,-14 -30.5,-23.5 -13.5,-9.5 -14.5,-9.5 -3,0 -3,6 v 51 q 0,25 -2,40.5 -2,15.5 -6,15.5 -3,0 -4.5,-14.5 -1.5,-14.5 -1.5,-38.5 v -56 q 0,-2 -1,-2 -2,0 -5,3 -7,6 -20,22.5 -13,16.5 -27.5,37.5 -14.5,21 -27,43.5 -12.5,22.5 -19.5,41.5 l -8,20 -10,-17 q -5,-7 -18.5,-23 -13.5,-16 -29.5,-31 -15,-17 -24,-27 -9,-10 -9,-12 0,-1 0,-1 0,0 1,0 0,0 1,0 0,0 0,0 h 1 q 0,0 1,0 0,0 0,0 h 3 q 0,0 0,0 h 4 q 0,0 1,0 h 3 q 13,0 31,-2 35,-1 62.5,-12 27.5,-11 57.5,-37 l 25,-21 h -29 q -12,0 -37,4.5 -25,4.5 -52,11.5 -27,7 -51,14 -24,7 -34,13 -18,9 -25,11.5 -7,2.5 -10,2.5 -4,0 -7,-3.5 -3,-3.5 -3,-17 0,-13.5 1,-40.5 2,-23 3.5,-41 1.5,-18 1.5,-20 0,0 1,0 1,0 8,4 7,4 14,8 60,39 152,39 h 59 l -20,-16 q -8,-7 -24.5,-14.5 -16.5,-7.5 -36.5,-14 -20,-6.5 -40,-11 -20,-4.5 -37,-4.5 -8,0 -17,-1 -9,-1 -11,-3 0,0 0,-1 0,-3 7.5,-12 7.5,-9 22.5,-23 l 33,-32 -109,-97 -9,10 v 44 q 0,11 -2.5,11.5 -2.5,0.5 -3.5,0.5 -4,0 -4,-8 v -37 l -43,55 q -5,6 -16.5,24 -11.5,18 -23,38.5 -11.5,20.5 -20.5,38.5 -9,18 -9,28 0,6 -3,6 -2,0 -8.5,-5.5 -6.5,-5.5 -17.5,-30.5 -7,-16 -18.5,-37.5 -11.5,-21.5 -22.5,-38.5 -10,-15 -15,-25.5 -5,-10.5 -5,-13.5 0,-2 0,-2 0,0 2,0 2,0 8,1 6,1 15,3 17,6 38,6 10,0 32,-2.5 22,-2.5 62,-13.5 l 45,-53 -63,1 q -24,2 -51.5,7 -27.5,5 -56,12 -28.5,7 -56,16 -27.5,9 -51.5,21 -25,12 -34,12 0,0 -2.5,0 -2.5,0 -2.5,-4 0,-5 5,-13 2,-6 4,-27.5 2,-21.5 2,-48.5 0,-23 1.5,-40.5 1.5,-17.5 3.5,-17.5 1,0 8.5,5 7.5,5 10.5,8 22,16 39,25 17,9 37.5,14.5 20.5,5.5 46.5,8.5 26,3 62,4 14,1 31.5,1.5 17.5,0.5 32,0.5 14.5,0 23.5,-0.5 9,-0.5 9,-0.5 0,0 -5.5,-4 -5.5,-4 -13,-9 -7.5,-5 -16,-10.5 -8.5,-5.5 -14.5,-9.5 -23,-18 -64.5,-28 -41.5,-10 -88.5,-16 -11,-1 -23.5,-2.5 -12.5,-1.5 -16.5,-2.5 0,0 0,-1 0,-3 14.5,-21 14.5,-18 39.5,-44 l 60,-63 5,39 q 1,8 3.5,17.5 2.5,9.5 8,22 5.5,12.5 15.5,29 10,16.5 25,39.5 l 72,49 -1,-43 q -2,-36 -17.5,-74 -15.5,-38 -43.5,-67 -10,-11 -10,-14 0,-3 22.5,-3.5 22.5,-0.5 54.5,-0.5 80,1 80,11 0,4 -13,9 -14,6 -23.5,15.5 -9.5,9.5 -16.5,19.5 -6,9 -9,16.5 -3,7.5 -5.5,17.5 -2.5,10 -3.5,24 -1,14 -2,35 l -2,61 8,6 29,-31 q 26,-27 43,-42.5 17,-15.5 19,-16 2,-0.5 2,-0.5 0,0 0,0 0,3 -10,16.5 -10,13.5 -41,46.5 l -27,29 q 0,0 1,0 h 1 q 0,0 0,0 0,0 1,0 0,0 1,0 0,0 0,0 h 7 q 1,0 2,0 h 3 q 15,0 35,-0.5 20,-0.5 42,-1 22,-0.5 32,-1.5 19,-1 34,-1 15,0 31.5,1 16.5,1 16.5,3 0,2 -11.5,4.5 -11.5,2.5 -30,4.5 -18.5,2 -42.5,3.5 -24,1.5 -49,1.5 h -72 l 58,49 43,40 11,-14 q 12,-14 16,-14 0,0 2,1 2,1 2,21 0,34 11.5,57 11.5,23 42.5,49 l 46,35 v -29 q 0,-10 -4,-24.5 -4,-14.5 -10,-30.5 -6,-16 -14,-31.5 -8,-15.5 -20,-29.5 -12,-14 -12,-20 0,-6 14.5,-7 14.5,-1 26.5,-1 13,0 27,1 l 69,2 -14,-14 q -5,-5 -7,-8.5 -2,-3.5 -2,-4.5 0,0 0,0 0,-2 19,-2 h 4 q 1,0 1,0 h 6 q 1,0 1,0 h 4 q 1,0 1,0 h 2 q 1,0 2,0 h 15 q 1,0 2,0 h 5 q 42,-1 76,-10 34,-9 59,-27 l 44,-42 q 0,-1 -4,-1 -4,0 -10.5,0.5 -6.5,0.5 -14.5,0.5 -8,0 -17,0 -19,0 -46,4 -27,4 -56,10.5 -29,6.5 -58,16 -29,9.5 -56,21.5 -13,6 -25,10.5 -12,4.5 -14,4.5 -1,0 -1.5,-10.5 -0.5,-10.5 -1,-22 -0.5,-11.5 -0.5,-20.5 0,-9 0.5,-23 0.5,-14 1,-30 0.5,-16 1.5,-27 1,-11 2,-12 0,-1 1,-1 3,0 12,5.5 9,5.5 21,14.5 17,10 34,17.5 17,7.5 37.5,12.5 20.5,5 46,8.5 25.5,3.5 58.5,5.5 h 83 l -30,-22 q -35,-27 -82.5,-41 -47.5,-14 -89.5,-15 -14,-2 -24,-2.5 -10,-0.5 -10,-2.5 0,-1 8.5,-11 8.5,-10 22,-24 13.5,-14 28.5,-30 15,-16 28.5,-30 13.5,-14 22.5,-23 9,-9 10,-9 1,0 2.5,13.5 1.5,13.5 2.5,30.5 0,7 5.5,19.5 5.5,12.5 12,26 6.5,13.5 13,24.5 6.5,11 8.5,16 l 82,73 -2,-74 -51,-114 q -8,-15 -11.5,-24 -3.5,-9 -3.5,-13 0,-2 1,-3 z m 95,25 q -10,0 -24.5,-1.5 -14.5,-1.5 -24.5,-2.5 -10,-2 -16,-2 -7,0 -7.5,1.5 -0.5,1.5 -0.5,2.5 0,5 8,18 6,10 11,22 5,12 10.5,25.5 5.5,13.5 11,25 5.5,11.5 8.5,14.5 l 6,-22 q 2,-9 8.5,-24 6.5,-15 14.5,-27 l 21,-30 z m -133,124 q -5,-8 -13.5,-23.5 -8.5,-15.5 -13.5,-30.5 l -11,-37 -34,40 q -15,16 -25.5,28.5 -10.5,12.5 -10.5,13.5 0,2 5.5,3.5 5.5,1.5 12.5,1.5 9,0 23.5,2.5 14.5,2.5 33.5,8.5 25,7 33,7 1,0 3,0 2,0 2,-3 0,-4 -5,-11 z m -506,-64 21,36 28,57 6,-27 q 4,-11 10,-22.5 6,-11.5 12,-18.5 l 17,-19 z m -84,75 q -9,-20 -11.5,-31 -2.5,-11 -4.5,-11 -2,0 -13.5,11.5 -11.5,11.5 -25.5,28.5 l -35,38 29,4 q 11,2 28.5,6 17.5,4 31.5,8 l 39,8 -12,-17 q -4,-5 -11.5,-18 -7.5,-13 -14.5,-27 z m 438,52 q -12,-5 -21.5,-10 -9.5,-5 -11.5,-5 -1,0 -2,15 -1,15 -1,38 0,32 1.5,38 1.5,6 5.5,6 2,0 5,-1 5,-2 25.5,-9 20.5,-7 45.5,-16 l 58,-20 -39,-10 q -16,-5 -35.5,-12.5 -19.5,-7.5 -30.5,-13.5 z m -487,83 q -17,-2 -37.5,-9 -20.5,-7 -36.5,-15 l -40,-20 v 50 q 0,20 0.5,34.5 0.5,14.5 2.5,14.5 2,0 14,-4.5 12,-4.5 23,-8.5 21,-9 39.5,-15 18.5,-6 33.5,-9 22,-4 22,-9.5 0,-5.5 -21,-8.5 z m 664,33 q 0,-3 -4,-3 0,0 -3.5,0.5 -3.5,0.5 -28.5,8.5 -11,5 -29,7 -18,2 -32,2 -15,1 -25.5,2 -10.5,1 -10.5,2 0,2 8.5,14 8.5,12 19.5,26 11,14 20.5,25.5 9.5,11.5 11.5,11.5 2,0 7,-7.5 5,-7.5 11,-18.5 7,-10 16.5,-22.5 9.5,-12.5 19.5,-22.5 7,-7 13,-14.5 6,-7.5 6,-10.5 z m -172,50 q 0,-4 -12,-6 -12,-2 -29,-2 -17,0 -28,2 -11,2 -11,4 2,2 7.5,12.5 5.5,10.5 10.5,24.5 l 17,33 12,-24 q 5,-9 11,-18.5 6,-9.5 14,-15.5 8,-6 8,-10 z m 55,14 q -13,-19 -16.5,-20 -3.5,-1 -4.5,-1 -7,0 -18,8 -21,15 -32.5,41 -11.5,26 -15.5,64 -1,19 -1,32.5 0,13.5 1,13.5 4,0 21.5,-12.5 17.5,-12.5 46.5,-35.5 17,-14 30.5,-24.5 13.5,-10.5 16.5,-15.5 2,-3 2,-6 0,-6 -8,-16 -8,-10 -22,-28 z m -490,92 q 12,-27 27.5,-52.5 15.5,-25.5 32.5,-49.5 -5,1 -24.5,5 -19.5,4 -39.5,4 -6,0 -11,0 -13,0 -22.5,-1.5 -9.5,-1.5 -13.5,-1.5 -3,0 -3,1 0,1 8.5,16.5 8.5,15.5 18.5,33.5 10,18 18,31.5 8,13.5 9,13.5 z m 296,-20 q -4,-7 -9,-19 -5,-12 -8,-23 l -8,-25 -28,28 q -11,11 -20,21 -9,10 -9,12 0,2 7.5,4 7.5,2 16.5,3 12,3 25,5.5 13,2.5 20,3.5 11,2 14,2 2,0 2.5,0 0.5,0 0.5,-1 0,-3 -4,-11 z m -100,67 q -20,-8 -30,-13.5 -10,-5.5 -12,-6.5 -3,0 -4.5,11 -1.5,11 -1.5,28 v 40 l 26,-10 q 10,-5 25.5,-10.5 15.5,-5.5 26.5,-9.5 22,-5 23.5,-8 1.5,-3 1.5,-4 0,-4 -11,-4 -11,0 -23.5,-5 -12.5,-5 -20.5,-8 z m 105,124 q 8,-16 12,-25.5 4,-9.5 4,-11.5 0,-1 -1,-1 0,0 0,0 -2,0 -11,3 -9,3 -20,6 -11,5 -25,7 -14,2 -22,2 l -18,2 26,27 q 10,12 19,20 9,8 11,8 2,0 9,-10.5 7,-10.5 16,-26.5 z"
     id="path1" />
</svg>
