<?xml version="1.0" encoding="UTF-8" standalone="no"?>
<svg
   width="2000"
   height="2000"
   version="1.1"
   id="svg1"
   sodipodi:docname="u120DE.svg"
   inkscape:version="1.3.2 (091e20e, 2023-11-25)"
   xmlns:inkscape="http://www.inkscape.org/namespaces/inkscape"
   xmlns:sodipodi="http://sodipodi.sourceforge.net/DTD/sodipodi-0.dtd"
   xmlns="http://www.w3.org/2000/svg"
   xmlns:svg="http://www.w3.org/2000/svg">
  <defs
     id="defs1" />
  <sodipodi:namedview
     id="namedview1"
     pagecolor="#505050"
     bordercolor="#eeeeee"
     borderopacity="1"
     inkscape:showpageshadow="0"
     inkscape:pageopacity="0"
     inkscape:pagecheckerboard="0"
     inkscape:deskcolor="#505050"
     showgrid="false"
     inkscape:zoom="0.6205"
     inkscape:cx="999.1942"
     inkscape:cy="1000"
     inkscape:window-width="2560"
     inkscape:window-height="1412"
     inkscape:window-x="0"
     inkscape:window-y="0"
     inkscape:window-maximized="1"
     inkscape:current-layer="svg1" />
  <path
     d="m 1478,641 q 0,-4 3.5,-4.5 3.5,-0.5 4.5,-0.5 5,0 10,2 11,4 34.5,5.5 23.5,1.5 46.5,1.5 11,0 24,0 17,-1 32,-1 8,0 22.5,0.5 14.5,0.5 14.5,2.5 0,2 -8,15.5 -8,13.5 -15,25.5 -23,37 -34.5,66 -11.5,29 -17,72.5 -5.5,43.5 -6,88 -0.5,44.5 -0.5,70.5 0,52 1,120 1,64 1,112 0,95 -2,121 -2,26 -5,26 -4,0 -10,-55 l -6,-56 -414,5 q -104,1 -182.5,2 -78.5,1 -139.5,3 -61,2 -109.5,5.5 -48.5,3.5 -93.5,8.5 -45,5 -91,11.5 -46,6.5 -125,20.5 -22,4 -42.5,7.5 -20.5,3.5 -28.5,3.5 -4,0 -8,-1 -4,-1 -4,-5 0,-1 2,-5.5 2,-4.5 7,-13.5 10,-21 11,-32.5 1,-11.5 1,-19.5 0,-12 -1,-26 -3,-18 -3,-28 0,-10 3.5,-12.5 3.5,-2.5 7.5,-2.5 3,0 11,2.5 8,2.5 24,7.5 19,7 28.5,9.5 9.5,2.5 13.5,2.5 2,0 3,-1 2,-2 2,-31.5 0,-29.5 -2,-66.5 -2,-43 -5.5,-71.5 Q 429,997 422,973.5 415,950 405,929.5 395,909 380,888 q -7,-10 -12,-18 -5,-8 -5,-10 0,-1 11,-1.5 11,-0.5 30.5,-1 19.5,-0.5 45,-1 25.5,-0.5 50.5,-0.5 33,0 59,1 26,1 45.5,2.5 19.5,1.5 30.5,2.5 11,1 11,3 0,3 -7.5,14.5 Q 631,891 621,902 q -14,16 -22,33.5 -8,17.5 -12,40.5 -4,23 -4,53 0,4 0.5,23.5 0.5,19.5 3.5,69.5 l 6,104 41,5 q 9,1 21.5,2 12.5,1 26.5,2 14,1 28.5,1.5 14.5,0.5 27.5,0.5 h 61 l -4,-149 q -1,-55 -4,-96.5 -3,-41.5 -8.5,-74 Q 777,885 769,860 q -8,-25 -17,-43 -8,-15 -15,-21 -7,-6 -15,-6.5 -8,-0.5 -10,-0.5 -13,0 -37,4.5 -24,4.5 -61,13.5 -39,9 -60.5,13 -21.5,4 -28.5,4 -2,0 -3,-1 -1,-1 -1,-4 0,-2 1,-7.5 1,-5.5 4,-11.5 6,-10 7.5,-27 1.5,-17 1.5,-35 0,-8 0,-18 -1,-12 -1,-26.5 0,-14.5 2,-14.5 2,0 24.5,6.5 22.5,6.5 42.5,13.5 49,16 91,24 42,8 104,12.5 62,4.5 152.5,6 90.5,1.5 228.5,1.5 h 337 l -6,-21 q -2,-8 -8,-22 -6,-14 -9,-21 -7,-15 -11,-25 -4,-10 -4,-13 z m 156,26 q 0,-1 -18.5,-1.5 Q 1597,665 1571,664 l -64,-1 14,33 q 6,14 14.5,39 8.5,25 14.5,46 12,43 17.5,48.5 5.5,5.5 6.5,5.5 5,0 5,-17 0,-20 8,-44 8,-24 21,-52 4,-8 9,-18.5 5,-10.5 11,-24.5 0,0 0,-1 1,0 1,-1 0,0 0,0 0,0 0,-1 h 1 q 0,0 0,0 v -1 q 0,0 1,-1 v -1 q 0,0 0,0 v -1 q 1,0 1,-1 0,0 0,-1 1,-1 1,-1 v -1 q 1,0 1,-1 z M 633,727 q -15,-4 -38,-9.5 -23,-5.5 -26,-7.5 -1,0 -2,0 -9,0 -14,42 -1,20 -1,30 0,10 6.5,12 6.5,2 12.5,2 8,0 24.5,-3 16.5,-3 46.5,-10 45,-10 62,-16 17,-6 17,-10 0,0 0,-1 -3,-4 -24.5,-11.5 Q 675,737 633,727 Z m 895,39 -646,-5 -26,28 Q 846,800 835.5,819.5 825,839 817,870 q -9,36 -9,65 0,95 101,107 l 48,5 v -47 q 0,-36 4.5,-41.5 4.5,-5.5 6.5,-5.5 5,0 11,20 2,9 8.5,21.5 6.5,12.5 15.5,23.5 5,5 10.5,10 5.5,5 15.5,8 10,3 26.5,4.5 16.5,1.5 42.5,3.5 l 78,5 1,-23 q 1,-9 1,-24.5 0,-15.5 -1,-29.5 -1,-8 -1,-14 0,-8 1.5,-10 1.5,-2 5.5,-2 4,0 10,2 12,4 43.5,7 31.5,3 64.5,5 36,2 61,5 25,3 25,6 0,3 -25,6.5 -25,3.5 -65,5.5 -50,2 -77,7.5 -27,5.5 -27,11.5 0,0 0.5,3 0.5,3 29,7.5 28.5,4.5 84.5,4.5 h 89 v -49 q 0,-32 -2.5,-39.5 -2.5,-7.5 -9.5,-7.5 -2,0 -4,0 -3,1 -13.5,2 -10.5,1 -25.5,2 -15,1 -33,2.5 -18,1.5 -37,2.5 l -95,4 v -24 q 0,-15 2.5,-17 2.5,-2 5.5,-2 4,0 10,2 15,5 46,7.5 31,2.5 60,4 29,1.5 49,1.5 7,0 22.5,-0.5 15.5,-0.5 15.5,-8.5 0,-7 -14.5,-15.5 -14.5,-8.5 -36,-11.5 -21.5,-3 -44.5,-3 -6,0 -25,0.5 -19,0.5 -52,7.5 l -40,7 3,-26 q 3,-23 14,-23 2,0 3,0 9,3 35,6 26,3 53.5,6 27.5,3 44.5,3.5 17,0.5 23,0.5 6,0 6,0 1,-1 1,-3 0,-7 -11,-23 -15,-18 -15,-23 0,-5 15.5,-6.5 15.5,-1.5 31.5,-1.5 8,0 17,0 26,0 45,3 19,3 19,7 0,2 -6.5,12.5 -6.5,10.5 -15.5,20.5 -9,11 -13.5,19 -4.5,8 -7,23 -2.5,15 -3,41 -0.5,26 -0.5,72 v 126 l 60,47 q 25,19 42,35.5 17,16.5 17,23.5 0,3 -3,3 -4,0 -16,-9 -5,-4 -28.5,-20.5 -23.5,-16.5 -44.5,-32.5 -27,-20 -40.5,-29 -13.5,-9 -25,-13.5 -11.5,-4.5 -23.5,-5 -12,-0.5 -31,-0.5 -7,0 -14,0 -13,0 -26,-1.5 -13,-1.5 -13,-4.5 0,-3 12,-12.5 12,-9.5 29,-18.5 17,-11 29,-21 12,-10 12,-14 0,-5 -13,-5.5 -13,-0.5 -21,-0.5 -12,0 -30.5,1 -18.5,1 -39.5,5 -21,4 -26,9 -3,4 -3.5,11 -0.5,7 -0.5,10 0,10 2,20 2,11 5.5,20 3.5,9 11,18 7.5,9 19,19.5 11.5,10.5 23.5,19.5 30,25 47,40.5 17,15.5 17,18.5 0,3 33,5.5 33,2.5 81,2.5 h 115 l -1,-158 q 0,-50 -1,-83.5 -1,-33.5 -3,-59.5 -2,-26 -6,-47 -4,-21 -10,-45 z m -708,41 q 12,-24 12,-32 0,-3 -3,-3 -1,0 -2,0 -5,0 -17,1.5 -12,1.5 -23,3.5 l -29,3 15,41 q 14,34 19.5,41 5.5,7 7.5,7 2,0 2,-7 0,-10 5,-25.5 5,-15.5 13,-29.5 z m 588,34 q 9,-14 9,-19 0,-1 -1,-3 -1,-2 -20,-5 -10,-1 -16,-1 -8,0 -9,1.5 -1,1.5 -1,2.5 0,6 11,25 l 12,22 z m -204,16 q 0,-4 -5,-4 -4,0 -4,4 0,5 4,5 5,0 5,-5 z m -734,40 q 7,-9 7,-12 0,-2 -2.5,-3.5 Q 472,880 443,880 h -41 l 18,38 q 14,27 16,28.5 2,1.5 3,1.5 3,0 8,-13 3,-10 9.5,-21 6.5,-11 13.5,-17 z m 139,-17 h -79 l 18,37 q 8,16 13,25 5,9 6,9 0,0 0,0 2,-1 8,-12 6,-11 14,-25 z m -65,71 q -19,-46 -27,-50.5 -8,-4.5 -11,-4.5 -10,0 -23,16 -9,11 -16,27 -7,16 -9,30 -2,8 -2.5,28.5 -0.5,20.5 -0.5,46 0,25.5 1,53 1,27.5 2.5,51 1.5,23.5 3,39.5 1.5,16 3.5,18 2,2 18,4.5 16,2.5 39,5.5 l 53,6 -7,-113 q -3,-62 -9,-97.5 Q 553,975 544,951 Z m 660,-39 q 0,-4 -5,-4 -4,0 -4,4 0,5 4,5 5,0 5,-5 z m -218,116 q -1,-2 -3,-6.5 -2,-4.5 -4,-4.5 -2,0 -3,4.5 -1,4.5 -1,8.5 0,6 2.5,10.5 2.5,4.5 6.5,4.5 4,0 4.5,-2.5 0.5,-2.5 0.5,-3.5 0,-5 -3,-11 z m 218,3 q 0,-5 -5,-5 -4,0 -4,5 0,5 4,5 5,0 5,-5 z m -349,27 q -2,-3 -5,-6 -2,-2 -5,-5.5 -3,-3.5 -9,-8.5 -10,-8 -13,-8 -1,0 -2,1 -1,1 -1,21 0,22 1.5,23.5 1.5,1.5 2.5,1.5 4,0 14,-8 4,-3 9.5,-7 5.5,-4 7.5,-4 z m 533,14 q -3,-16 -6.5,-16.5 -3.5,-0.5 -3.5,-0.5 -7,0 -27,16 -14,11 -14.5,13 -0.5,2 -0.5,3 0,3 10,6 16,7 26,7 17,0 17,-18 0,-5 -1,-10 z m -431,-9 h -39 q -24,0 -39,6 -15,6 -35,23 l -35,30 6,57 8,58 h 249 q 52,0 97.5,-0.5 45.5,-0.5 79.5,-1 34,-0.5 54,-1 20,-0.5 20,-1.5 0,-2 -19.5,-17.5 -19.5,-15.5 -41.5,-32.5 -29,-21 -43.5,-30.5 -14.5,-9.5 -26.5,-14 -12,-4.5 -25,-5.5 -13,-1 -32,-1 -26,0 -42.5,-2 -16.5,-2 -16.5,-5 0,-2 10.5,-10.5 10.5,-8.5 25.5,-16.5 16,-9 26.5,-17 10.5,-8 10.5,-11 0,-3 -17,-5 -17,-2 -42,-2 -18,0 -30,1 -12,1 -20.5,4.5 -8.5,3.5 -17,11 -8.5,7.5 -20.5,20.5 -14,15 -26,25.5 -12,10.5 -14,10.5 -2,0 -3.5,-10.5 Q 957,1115 957,1100 Z m 46,4 q 0,-2 -4.5,-3 -4.5,-1 -8.5,-1 -6,0 -10.5,4 -4.5,4 -4.5,13 0,7 1.5,7.5 1.5,0.5 1.5,0.5 4,0 14,-10 2,-2 6.5,-6 4.5,-4 4.5,-5 z m 195,27 q -6,-20 -9,-20.5 -3,-0.5 -3,-0.5 -7,0 -27,17 l -22,16 31,5 q 19,3 27,3 4,0 5,-0.5 1,-0.5 1,-3.5 0,-5 -3,-16 z m -783,118 q -12,-4 -25.5,-8 -13.5,-4 -15.5,-4 -3,0 -5,15 -2,15 -3,36 0,7 0,13 0,22 2.5,27 2.5,5 10.5,5 5,0 13,-2 13,-3 44.5,-8.5 31.5,-5.5 63.5,-10 32,-4.5 59.5,-8 27.5,-3.5 39.5,-3.5 10,0 20.5,-2.5 10.5,-2.5 12.5,-6.5 1,-1 1,-2 0,-3 -5.5,-5 -5.5,-2 -19.5,-2 -15,0 -40,-3 -25,-3 -52,-7.5 -27,-4.5 -53,-10.5 -26,-6 -48,-13 z"
     id="path1" />
</svg>
