<?xml version="1.0" encoding="UTF-8" standalone="no"?>
<svg
   width="2000"
   height="2000"
   version="1.1"
   id="svg1"
   sodipodi:docname="u12076.svg"
   inkscape:version="1.3.2 (091e20e, 2023-11-25)"
   xmlns:inkscape="http://www.inkscape.org/namespaces/inkscape"
   xmlns:sodipodi="http://sodipodi.sourceforge.net/DTD/sodipodi-0.dtd"
   xmlns="http://www.w3.org/2000/svg"
   xmlns:svg="http://www.w3.org/2000/svg">
  <defs
     id="defs1" />
  <sodipodi:namedview
     id="namedview1"
     pagecolor="#505050"
     bordercolor="#eeeeee"
     borderopacity="1"
     inkscape:showpageshadow="0"
     inkscape:pageopacity="0"
     inkscape:pagecheckerboard="0"
     inkscape:deskcolor="#505050"
     inkscape:zoom="0.379"
     inkscape:cx="1000"
     inkscape:cy="998.68074"
     inkscape:window-width="1392"
     inkscape:window-height="1212"
     inkscape:window-x="0"
     inkscape:window-y="0"
     inkscape:window-maximized="0"
     inkscape:current-layer="svg1" />
  <path
     d="m 1290.5,647 q 0,-2 2,-2 2,0 9.5,3.5 7.5,3.5 19.5,11.5 12,8 21,12.5 9,4.5 21,7 12,2.5 29,3.5 17,1 36,2 42,2 66,4.5 24,2.5 24,6.5 0,2 -6.5,4 -6.5,2 -15.5,2 -22,0 -37.5,12 -15.5,12 -32.5,45 -11,22 -20,47.5 -9,25.5 -14.5,56 -5.5,30.5 -8.5,67.5 -3,37 -4,102 -1,35 -2,71.5 -1,36.5 -2,40.5 0,1 -1,1 -1,0 -3,-6 -2,-6 -4,-20 -2,-14 -4,-32.5 -2,-18.5 -2,-36.5 l -1,-57 h -95 q -110,0 -178,20 -68,20 -77,55 -6,21 -11,21 -1,0 -3,-3.5 -2,-3.5 -2,-14.5 0,-10 2,-25 l 5,-41 -41,34 q -17,15 -31,30.5 -14,15.5 -18,26.5 -2,7 -2,15 0,5 1.5,15 1.5,10 8.5,14 3,2 7,2 7,0 21,-6 14,-6 36.5,-18 22.5,-12 44,-26 21.5,-14 33.5,-25 10,-9 14,-10 4,-1 5,-1 3,0 3,3 0,0 -0.5,2.5 -0.5,2.5 -7,13 -6.5,10.5 -22.5,27.5 -10,10 -23.5,26 -13.5,16 -16.5,20 -12,14 -16,24.5 -4,10.5 -5,17 -1,6.5 -1,9.5 0,5 1.5,9.5 1.5,4.5 6.5,4.5 8,0 8,10 0,9 7.5,18.5 7.5,9.5 22.5,19.5 13,9 29.5,23 16.5,14 29.5,26.5 13,12.5 21,23.5 8,11 8,18 0,3 -2,3 -5,0 -20,-17 -21,-24 -53.5,-49 -32.5,-25 -67,-45.5 -34.5,-20.5 -66.5,-33.5 -32,-13 -54,-13 -15,0 -15,-6 0,-1 1.5,-5 1.5,-4 24.5,-12 13,-5 22.5,-10 9.5,-5 9.5,-7 0,-2 -7,-8.5 -7,-6.5 -12,-10.5 -15,-11 -46.5,-16.5 -31.5,-5.5 -60,-7 -28.5,-1.5 -47.5,-1.5 -19,0 -48,1.5 -29,1.5 -65,10.5 -39,10 -61.5,24 -22.5,14 -30.5,36 -6,16 -11.5,18.5 -5.5,2.5 -6.5,2.5 -3,0 -3,-6 0,-5 3,-16 7,-27 7.5,-45 0.5,-18 0.5,-20 0,-32 -9,-48 -8,-18 -8,-25 0,-3 1,-4 1,-1 4,-1 6,0 21,9 10,5 18.5,9.5 8.5,4.5 10.5,4.5 3,0 3,-10 0,-2 -0.5,-10 -0.5,-8 -3,-30 -2.5,-22 -6.5,-48.5 -4,-26.5 -9,-51.5 -5,-25 -10.5,-45 -5.5,-20 -10.5,-29 -3,-6 -10.5,-16 -7.5,-10 -13.5,-16 -13,-15 -13,-21 0,-3 5,-3 7,0 24,7 22,9 34,10.5 12,1.5 21,1.5 14,0 33,-2 9,-1 19.5,-2.5 10.5,-1.5 15,-5 4.5,-3.5 5.5,-9.5 1,-6 1,-12 0,-18 -9.5,-30.5 -9.5,-12.5 -23.5,-17.5 -7,-2 -7.5,-3.5 -0.5,-1.5 -0.5,-2.5 0,-1 1,-2 2,-2 13,-2 5,0 20,1 15,1 42,5 23,4 58.5,7.5 35.5,3.5 81,6.5 45.5,3 99.5,6 54,3 108.5,5 54.5,2 108,3 53.5,1 96.5,1 60,0 81.5,-2 21.5,-2 21.5,-8 0,-4 -6,-17.5 -6,-13.5 -13,-26.5 -9,-18 -14.5,-31 -5.5,-13 -5.5,-17 z m 107,53 q -17,-2 -33.5,-5 -16.5,-3 -24.5,-6 -5,-2 -7,-2 -1,0 -2,0.5 -1,0.5 -1,1.5 0,3 4,10 2,6 6,22.5 4,16.5 8.5,37.5 4.5,21 9.5,44.5 5,23.5 8,44.5 l 5,31 17,-59 q 8,-25 17.5,-50.5 9.5,-25.5 17.5,-36.5 l 17,-28 z m -629,47 q -32,-2 -60.5,-5 -28.5,-3 -38.5,-6 -5,-1 -8,-1 -3,0 -4.5,2 -1.5,2 -1.5,13 0,4 0,10 0,20 5.5,25 5.5,5 15.5,5 5,0 11,-1 3,0 28.5,-4.5 25.5,-4.5 50.5,-8.5 43,-6 65,-11.5 22,-5.5 22,-7.5 0,0 0,0 -1,-2 -26,-5 -25,-3 -59,-5 z m 568,18 -194,1 q -110,0 -200,5.5 -90,5.5 -155,15.5 -65,10 -103,23.5 -38,13.5 -44,30.5 -4,9 -11,9 -2,0 -4,-1 -2,-1 -5,-1 -10,0 -19.5,16 -9.5,16 -17,44.5 -7.5,28.5 -9.5,54.5 -2,26 -2,43 0,16 1,32 2,14 4,22 2,8 9.5,12.5 7.5,4.5 24,7.5 16.5,3 45.5,7 43,6 60.5,7.5 17.5,1.5 24.5,1.5 18,0 37,-4 19,-4 43.5,-15.5 24.5,-11.5 84.5,-45.5 24,-13 48.5,-27 24.5,-14 34,-23 9.5,-9 9.5,-16 0,-1 -1,-5 -1,-4 -10,-19 -4,-7 -7,-13 -3,-6 -3,-8 0,-2 1,-2 0,-1 2,-1 2,0 9.5,3.5 7.5,3.5 17.5,9.5 15,8 25,11 10,3 15,3 3,0 5,-1 2,-1 5,-1 3,0 7.5,1 4.5,1 7.5,4 6,6 27,10 21,4 53.5,8.5 32.5,4.5 73.5,8 41,3.5 68,5.5 29,2 44,2 9,0 15.5,-1.5 6.5,-1.5 6.5,-11.5 0,-5 -2.5,-29.5 -2.5,-24.5 -5.5,-53.5 -3,-29 -6,-56 -3,-27 -5,-39 z m -769,51 q -36,0 -36,9 0,1 0,2 1,2 4.5,14.5 3.5,12.5 8.5,26.5 8,28 14,37.5 6,9.5 7,9.5 2,0 2,-5 0,-7 5.5,-21.5 5.5,-14.5 12.5,-30.5 7,-16 13.5,-29 6.5,-13 7.5,-13 z m 453,151 q 2,-3 2,-6 0,-3 -2,-5 -1,-1 -2,-1 -3,0 -3,7 0,6 3,6 1,0 2,-1 z m 85,10 q -23,-5 -40,-5 -26,0 -38,13 -4,5 -7.5,12.5 -3.5,7.5 -4,11.5 -0.5,4 -0.5,6 0,4 1,6.5 1,2.5 3,2.5 1,0 2,-1 2,-1 12.5,-5 10.5,-4 25,-9.5 14.5,-5.5 30.5,-11.5 16,-6 20,-8 10,-3 10,-6 0,-3 -14,-6 z m -190,84 q 13,-16 16,-21 3,-5 3,-6 0,-1 0,-1 -1,0 -1,0 -3,1 -20.5,10.5 -17.5,9.5 -36.5,20.5 -19,11 -34.5,20.5 -15.5,9.5 -15.5,11.5 0,2 7.5,4.5 7.5,2.5 18.5,4.5 10,2 15.5,2 5.5,0 12,-4.5 6.5,-4.5 15.5,-16 9,-11.5 20,-25.5 z m -356,28 q 0,-3 -4.5,-6.5 -4.5,-3.5 -12.5,-5.5 -4,-1 -7,-1 -6,0 -6,5 0,2 1,4 2,5 3.5,15 1.5,10 1.5,19 v 23 l 34,-15 q 14,-7 27.5,-11.5 13.5,-4.5 22.5,-4.5 10,0 10,-6 0,-7 -13,-9.5 -13,-2.5 -24,-2.5 -7,0 -14,1 -4,0 -8,0 -11,0 -11,-5 z m 431,63 q 11,-18 11,-23 0,-1 -0.5,-1.5 -0.5,-0.5 -1.5,-0.5 -5,0 -25,14 -19,11 -20,14.5 -1,3.5 -1,4.5 0,4 6,10 5,4 9,4 3,0 7,-2.5 4,-2.5 15,-19.5 z m -39,33 q -7,-7 -12,-11.5 -5,-4.5 -8,-5 -3,-0.5 -4,-0.5 -3,0 -7,1 -4,1 -12,6 -9,6 -9,9 0,0 1,1.5 1,1.5 21,8.5 28,11 37,11 1,0 2.5,-0.5 1.5,-0.5 1.5,-2.5 0,-4 -11,-17 z"
     id="path1" />
</svg>
