<?xml version="1.0" encoding="UTF-8" standalone="no"?>
<svg
   width="2000"
   height="2000"
   version="1.1"
   id="svg1"
   sodipodi:docname="u120B0.svg"
   inkscape:version="1.3.2 (091e20e, 2023-11-25)"
   xmlns:inkscape="http://www.inkscape.org/namespaces/inkscape"
   xmlns:sodipodi="http://sodipodi.sourceforge.net/DTD/sodipodi-0.dtd"
   xmlns="http://www.w3.org/2000/svg"
   xmlns:svg="http://www.w3.org/2000/svg">
  <defs
     id="defs1" />
  <sodipodi:namedview
     id="namedview1"
     pagecolor="#505050"
     bordercolor="#eeeeee"
     borderopacity="1"
     inkscape:showpageshadow="0"
     inkscape:pageopacity="0"
     inkscape:pagecheckerboard="0"
     inkscape:deskcolor="#505050"
     inkscape:zoom="0.379"
     inkscape:cx="1000"
     inkscape:cy="998.68074"
     inkscape:window-width="1392"
     inkscape:window-height="1212"
     inkscape:window-x="0"
     inkscape:window-y="0"
     inkscape:window-maximized="0"
     inkscape:current-layer="svg1" />
  <path
     d="m 1064,639 q 2,-1 6,-1 9,0 26,4 21,5 36.5,6 15.5,1 23.5,1 16,0 33,-2 15,-2 24,-2 12,0 14.5,2 2.5,2 2.5,5 0,8 -14,26 -30,36 -43.5,85 -13.5,49 -13.5,131 0,11 0,23 l 3,126 31,19 q 33,17 61,27.5 28,10.5 60,16.5 32,6 72,8 40,2 103,2 54,0 93.5,1.5 39.5,1.5 39.5,4.5 0,3 -51,6 -51,3 -139,5 -51,1 -87,2 -36,1 -58,3 -22,2 -32.5,6 -10.5,4 -26.5,13 -18,9 -31.5,18 -13.5,9 -20.5,18.5 -7,9.5 -9,22.5 -2,13 -2,31 v 45 H 974 q -40,0 -77,0.5 -37,0.5 -67,2 -30,1.5 -50,3 -20,1.5 -28,3.5 -10,3 -29.5,13.5 -19.5,10.5 -39.5,25.5 -12,9 -22,15.5 -10,6.5 -13,6.5 -1,0 -1,0 -1,-1 -2.5,-25 -1.5,-24 -3.5,-59 0,-21 0,-36 0,-22 1,-32.5 1,-10.5 6,-10.5 1,0 2,0 12,0 12,-20 0,-6 -0.5,-48.5 Q 661,1088 661,1035 L 659,906 H 520 q -59,0 -94,1.5 -35,1.5 -59,6 -24,4.5 -39,13 -15,8.5 -36,24.5 -24,20 -30,20 -2,-2 -3.5,-26 -1.5,-24 -2,-51.5 -0.5,-27.5 -0.5,-50 0,-22.5 1,-22.5 l 134,66 130,3 q 35,1 64,1 14,0 39.5,-0.5 Q 650,890 650,884 650,881 645.5,864.5 641,848 635,828.5 629,809 621.5,790 614,771 610,761 q -15,-27 -15,-35 0,-6 11.5,-6.5 11.5,-0.5 17.5,-0.5 14,0 31,1 l 60,5 v -21 q 0,-21 3,-21 1,0 23,9.5 22,9.5 52,23.5 l 70,34 119,3 q 51,2 77,2 26,0 33.5,-5 7.5,-5 7.5,-12 0,-4 -3.5,-14 -3.5,-10 -14.5,-32 -9,-23 -13.5,-36 -4.5,-13 -4.5,-16 z m 471,11 q 0,-2 34,-2 34,0 75,1 41,1 76.5,2.5 35.5,1.5 36.5,2.5 0,1 0,1 0,5 -13,16 -17,13 -30.5,31 -13.5,18 -20.5,35 -14,24 -22,50 -8,26 -12,66.5 -4,40.5 -4,99 0,58.5 2,169.5 2,67 2,114 0,15 -0.5,47.5 -0.5,32.5 -4.5,32.5 -3,0 -5.5,-23.5 -2.5,-23.5 -2.5,-66.5 0,-38 -1.5,-94 -1.5,-56 -4.5,-100 l -4,-100 h -159 q -65,0 -107,1.5 -42,1.5 -69.5,6 -27.5,4.5 -47,13.5 -19.5,9 -39.5,22 -9,8 -18,14 -6,3 -10,6 -2,-2 -4,-26 -2,-24 -3,-51.5 -1,-27.5 -1.5,-43 -0.5,-15.5 -0.5,-21.5 0,-10 1,-10 2,0 13,6 11,6 28,14 31,15 59.5,25.5 28.5,10.5 60,16.5 31.5,6 70.5,8 39,2 96,2 59,0 95.5,-2 36.5,-2 36.5,-10 0,-4 -7.5,-29.5 -7.5,-25.5 -18.5,-57 -11,-31.5 -24,-61.5 -13,-30 -28,-60 -6,-11 -14,-26.5 -8,-15.5 -10,-18.5 z m -339,19 q 0,-3 -15,-5 -15,-2 -42,-2 -16,0 -31,0.5 -15,0.5 -15,2.5 0,3 10.5,36 10.5,33 34.5,109 1,2 2,2 3,0 6.5,-8.5 3.5,-8.5 9.5,-29.5 6,-19 13.5,-40 7.5,-21 16.5,-39 3,-6 6.5,-14.5 3.5,-8.5 3.5,-11.5 z m 521,-3 h -75 q -32,0 -54.5,1.5 -22.5,1.5 -22.5,6.5 0,1 4.5,10 4.5,9 10.5,17 9,15 18,37.5 9,22.5 17,44.5 12,39 18.5,49 6.5,10 9.5,10 3,0 3,-12 0,-21 11.5,-52.5 Q 1669,746 1690,711 Z m -890,84 -43,-21 q -18,-7 -27.5,-11 -9.5,-4 -12.5,-4 -5,0 -5,5 0,0 0,0 0,0 0,1 0,0 0,1 0,0 0,1 0,0 0,0 v 6 q 0,0 0,1 v 3 q 0,12 0.5,25.5 0.5,13.5 1.5,24 1,10.5 2,12.5 0,0 1,0 5,0 17,-9 6,-6 17.5,-13 11.5,-7 21.5,-11 z M 706,738 h -44 q -30,0 -35.5,2 -5.5,2 -5.5,7 0,3 2,8 3,4 8.5,18.5 5.5,14.5 11.5,30.5 9,29 14,34.5 5,5.5 7,5.5 3,0 3,-8 0,-12 6,-27 6,-15 13,-32 z m 18,62 q 0,-17 -2.5,-27.5 Q 719,762 716,762 q -3,0 -9,9 -6,9 -12,21 -4,11 -8,23 -4,12 -5.5,35 -1.5,23 -3,63 -1.5,40 -1.5,104 -1,84 -1.5,107.5 -0.5,23.5 -0.5,28.5 0,33 6.5,51.5 6.5,18.5 26,25 19.5,6.5 38.5,14.5 39,13 55,17.5 16,4.5 38.5,7 22.5,2.5 57,4 34.5,1.5 91.5,2.5 l 163,3 -4,-198 q -2,-55 -3.5,-95.5 -1.5,-40.5 -3.5,-70 -2,-29.5 -5,-49 -3,-19.5 -11,-43.5 -3,-10 -8,-26.5 -5,-16.5 -8,-19.5 -3,-3 -46,-4.5 -43,-1.5 -107,-1.5 -47,0 -76,0.5 -29,0.5 -46.5,3 -17.5,2.5 -27,6 -9.5,3.5 -23.5,11.5 -15,9 -27,18.5 -12,9.5 -16,18.5 -3,7 -6,7 -2,0 -5.5,-5 -3.5,-5 -3.5,-30 z m -398,75 q -16,-8 -30,-14 -1,-1 -3,-2 h -1 q -1,-1 -2,-1 l -1,-1 q -1,0 -1,0 l -1,-1 q 0,0 0,0 h -1 q 0,0 0,0 l -1,-1 q -1,0 -2,-1 -1,0 -1,0 0,0 0,0 l -1,-1 q -1,0 -1,-1 0,0 0,0 -3,0 -4.5,12 -1.5,12 -1.5,30 0,35 3,37.5 3,2.5 4,2.5 7,0 24,-16 1,0 2,0 v -1 q 1,0 2,0 l 1,-1 q 1,0 1,-1 h 2 q 0,-1 1,-1 l 1,-1 q 1,0 3,-1 h 1 q 1,-1 2,-1 l 1,-1 q 10,-5 19,-8 l 24,-9 z m 522,22 q -1,-13 -1.5,-18 -0.5,-5 -0.5,-7 0,-3 1,-3 1,0 5,2 4,2 10,4 21,10 44,13 23,3 73,3 0,0 0,0 h 1 q 0,0 1,0 0,0 1,0 1,0 2,0 h 1 q 0,0 1,0 h 15 q 18,0 28.5,1 10.5,1 15,1.5 4.5,0.5 4.5,2.5 0,4 -9.5,5 -9.5,1 -21.5,1 -7,0 -17,0 -1,0 -3,0 h -1 q -1,0 -3,0 h -1 q 0,0 -1,0 h -1 q -1,0 -2,0 h -1 q 0,0 -1,0 h -9 q 0,0 0,0 h -1 q 0,0 0,0 h -2 q -1,0 -2,0 h -1 q -1,0 -2,0 h -1 q 0,0 -1,0 -1,0 -2,0 h -1 q 0,0 -1,0 h -8 q 0,0 0,0 h -1 q 0,0 0,0 h -2 q -11,0 -20.5,0.5 -9.5,0.5 -16.5,0.5 -10,1 -17,2 -7,1 -12,2.5 -5,1.5 -9.5,3.5 -4.5,2 -8.5,5 -4,3 -7.5,4.5 -3.5,1.5 -7.5,3.5 -1,1 -3,2 -1,-1 -1.5,-9 -0.5,-8 -1.5,-20 z m 375,-15 q -3,-7 -10,-7 -17,0 -17,51 0,12 1,24.5 1,12.5 2,12.5 2,0 13,-6 11,-6 17,-9 23,-13 37,-19 14,-6 26,-6 10,0 10,-4 0,-2 -5,-7.5 -5,-5.5 -33,-12.5 -15,-5 -26.5,-9.5 Q 1226,885 1223,882 Z m -338,12 q -7,-2 -12,-5 -5,-3 -10,-5 -1,0 -2,0 -3,0 -3,2 0,2 1,11 1,11 1,11.5 0,0.5 0,0.5 1,0 4,-1 0,0 1,0 v -1 q 1,0 1,0 h 1 q 0,-1 0,-1 1,0 1,0 h 1 q 0,-1 2,-1 0,0 0,-1 5,-2 12,-4 l 12,-4 z m -109,21 q -3,-6 -3,-7 0,0 0.5,-0.5 0.5,-0.5 3.5,-1 3,-0.5 9,-0.5 0,0 1,0 0,0 0,0 h 1 q 1,0 2,0 0,0 1,0 0,0 0,0 h 1 q 0,0 0,0 h 8 q 0,0 0,0 h 3 q 10,1 19.5,1.5 9.5,0.5 9.5,1.5 0,0 0,0 0,2 -2.5,7.5 -2.5,5.5 -4.5,9.5 -7,16 -10,29 -3,13 -4.5,30.5 -1.5,17.5 -1.5,42.5 v 6 q 0,1 0,2 v 4 q 0,1 0,2 v 2 q 0,2 0,5 v 5 q 0,1 0,2 v 25 q 0,1 0,2 v 8 q 0,41 -1.5,63 -1.5,22 -2.5,22 -1,0 -1.5,-6 -0.5,-6 -1.5,-17.5 -1,-11.5 -1.5,-27 -0.5,-15.5 -1.5,-39.5 -1,-32 -2,-57 -1,-25 -3.5,-44.5 Q 791,965 786.5,948 782,931 776,915 Z m 41,5 h -26 l 11,41 6,-22 z m 129,73 q -3,3 -5.5,5 -2.5,2 -5.5,4 -3,2 -4.5,2.5 -1.5,0.5 -2.5,0.5 0,0 -1,0 v -3 q 0,-1 0,-2 v -1 q 0,0 0,-1 v -3 q 0,-1 0,-2 v -3 q 0,0 0,-1 v -20 q 0,-17 -1,-26 -1,-4 -1,-8.5 0,-4.5 1,-4.5 0,0 0,0 0,0 0,0 1,0 1,1 1,1 4,2 4,3 10,6 12,8 21.5,13 9.5,5 20.5,7.5 11,2.5 26,4 15,1.5 38,1.5 13,0 23,0.5 10,0.5 18,1 8,0.5 12.5,1 4.5,0.5 4.5,1.5 0,2 -17.5,2.5 -17.5,0.5 -44.5,0.5 -26,0 -42,0.5 -16,0.5 -26,3 -10,2.5 -16,6.5 -6,4 -13,11 z m 11,-31 q -10,-2 -13.5,-5 -3.5,-3 -4.5,-3 -1,0 -1.5,5 -0.5,5 -0.5,11.5 0,6.5 0.5,9.5 0.5,3 1.5,3 1,0 3,-1 3,-2 7.5,-6.5 4.5,-4.5 8.5,-4.5 l 14,-4 z m -101,18 q 0,0 9,-0.5 9,-0.5 20,-0.5 14,0 23,1 9,1 9,2 0,1 -1.5,3 -1.5,2 -3.5,4 -2,2 -6,8 -4,6 -7,11 -3,7 -4.5,14.5 -1.5,7.5 -2,19 -0.5,11.5 -1,28.5 -0.5,17 -0.5,43 0,12 -0.5,22.5 -0.5,10.5 -0.5,18 0,7.5 -0.5,11 -0.5,3.5 -1.5,3.5 0,0 0,0 -2,-1 -4.5,-15.5 -2.5,-14.5 -2.5,-58.5 0,0 0,-1 0,0 0,0 0,-1 0,-1 0,-1 0,-1 v -1 q 0,0 0,-1 0,0 0,-1 v -5 q 0,0 0,-1 v -4 q 0,-1 0,-2 0,-15 -1.5,-27 -1.5,-12 -4.5,-23 -3,-11 -10,-25 -2,-4 -3.5,-7.5 -1.5,-3.5 -3.5,-6.5 -1,-4 -2,-7 z m 28,46 q 2,-6 3,-12 1,-6 3,-11 2,-5 5,-8 3,-3 5,-6 -4,0 -7.5,1 -3.5,1 -7.5,1 -4,0 -7.5,-1 -3.5,-1 -7.5,-1 l 4,7 q 2,5 4,12 2,7 4,12 z m -639,53 q -2,-7 -2,-11 0,-7 3.5,-7.5 3.5,-0.5 3.5,-0.5 10,0 34,17 27,18 50.5,28 23.5,10 51,16 27.5,6 63,8 35.5,2 84.5,2 50,0 83.5,2.5 33.5,2.5 33.5,5.5 0,3 -42.5,6 -42.5,3 -114.5,4 -53,2 -88,3.5 -35,1.5 -57,6 -22,4.5 -34.5,13.5 -12.5,9 -27.5,22 -9,9 -16,13.5 -7,4.5 -10,4.5 -3,0 -4.5,-15.5 -1.5,-15.5 -1.5,-36.5 0,-24 -2,-46.5 -2,-22.5 -7,-34.5 z m 972,10 q -6,-1 -19.5,-7 -13.5,-6 -14.5,-6 -2,0 -2,13 0,1 0,2 v 1 q 0,0 0,0 v 4 q 0,1 0,2 v 2 q 0,0 0,1 v 1 q 0,0 0,1 v 60 l 36,-20 q 17,-7 32,-13 15,-6 27,-6 7,0 7,-2 0,-2 -6,-6 -6,-4 -60,-27 z m -916,17 q -2,-2 -16,-8 -14,-6 -16,-6 -1,0 -1,13 v 1 q 0,1 0,2 v 1 q 0,1 0,1 v 3 q 0,1 0,2 v 1 q 0,1 0,1 v 1 q 0,1 0,3 v 15 q 1,18 2,30.5 1,12.5 2,12.5 6,0 24,-13 14,-11 26.5,-17 12.5,-6 21.5,-9 13,-3 13,-7 0,0 -2,-2.5 -2,-2.5 -54,-24.5 z m 394,133 q -16,-9 -24,-9 -4,0 -8,4 -4,4 -4,47 0,15 1,29.5 1,14.5 4,14.5 3,0 17,-6 14,-6 29,-14 18,-9 34,-15.5 16,-6.5 23,-9.5 9,-2 9,-5 0,0 -2,-2 -2,-2 -23,-10 -14,-4 -29.5,-11 -15.5,-7 -26.5,-13 z"
     id="path1" />
</svg>
