<?xml version="1.0" encoding="UTF-8" standalone="no"?>
<svg
   width="2000"
   height="2000"
   version="1.1"
   id="svg1"
   sodipodi:docname="u12000.svg"
   inkscape:version="1.3.2 (091e20e, 2023-11-25)"
   xmlns:inkscape="http://www.inkscape.org/namespaces/inkscape"
   xmlns:sodipodi="http://sodipodi.sourceforge.net/DTD/sodipodi-0.dtd"
   xmlns="http://www.w3.org/2000/svg"
   xmlns:svg="http://www.w3.org/2000/svg">
  <defs
     id="defs1" />
  <sodipodi:namedview
     id="namedview1"
     pagecolor="#505050"
     bordercolor="#eeeeee"
     borderopacity="1"
     inkscape:showpageshadow="0"
     inkscape:pageopacity="0"
     inkscape:pagecheckerboard="0"
     inkscape:deskcolor="#505050"
     inkscape:zoom="0.379"
     inkscape:cx="1000"
     inkscape:cy="998.68074"
     inkscape:window-width="1392"
     inkscape:window-height="1212"
     inkscape:window-x="0"
     inkscape:window-y="0"
     inkscape:window-maximized="0"
     inkscape:current-layer="svg1" />
  <path
     d="m 1038,657 q 23,-1 51.5,-2 28.5,-1 51,-1.5 22.5,-0.5 37.5,-1.5 15,-1 19,-1 4,0 7,0 11,0 12,3.5 1,3.5 1,4.5 0,7 -15,13 -15,5 -37.5,24.5 -22.5,19.5 -41.5,42.5 -15,19 -21,33 -4,7 -7,15 -1,8 -1,16 -1,8 -1.5,16.5 -0.5,8.5 -0.5,17.5 v 61 h 45 q 20,0 32.5,1.5 12.5,1.5 12.5,3.5 0,2 -6.5,12.5 -6.5,10.5 -9.5,15.5 -15,23 -28.5,49 -13.5,26 -23.5,51 -7,17 -12,32.5 -5,15.5 -6,18.5 0,1 -1,12.5 -1,11.5 -1.5,28 -0.5,16.5 -1,36 -0.5,19.5 -0.5,54.5 0,136 -6,136 0,0 -3.5,-0.5 -3.5,-0.5 -6.5,-152.5 -1,-53 -2.5,-88.5 -1.5,-35.5 -4,-60 -2.5,-24.5 -6.5,-40.5 -4,-16 -12,-31 -5,-9 -13,-21 -8,-12 -20,-25 -21,-23 -21,-31 0,-1 1,-3.5 1,-2.5 14,-2.5 9,0 23,2 l 41,6 v -75 q 0,-33 -2.5,-53.5 -2.5,-20.5 -9.5,-35 -7,-14.5 -20,-24.5 -13,-10 -34,-20 l -36,-18 -20,21 q -8,10 -17.5,30.5 Q 927,747 919,767 q -6,18 -10.5,34.5 -4.5,16.5 -7,48 -2.5,31.5 -3.5,84.5 -1,53 -1,147 0,116 -1.5,181 -1.5,65 -5.5,65 0,0 0,0 -1,-2 -3,-20 -2,-18 -4,-47 -2,-29 -3.5,-67.5 -1.5,-38.5 -1.5,-81.5 -1,-47 -1,-83.5 0,-36.5 -0.5,-66 Q 876,932 874,907 q -2,-25 -7,-50 -8,-35 -23,-72 -15,-37 -35,-77 l -26,-51 50,4 q 11,1 31.5,1 20.5,0 47.5,-0.5 27,-0.5 58,-1.5 31,-1 68,-3 z m 127,18 h -152 l 24,14 q 14,8 27,20.5 13,12.5 18,20.5 8,10 9,18 2,4 2,8 2,-4 4,-8 2,-2 3.5,-4.5 1.5,-2.5 2.5,-4.5 5,-8 12.5,-17 7.5,-9 11.5,-13 z m -223,6 q -1,0 -16.5,1.5 -15.5,1.5 -26.5,1.5 -15,0 -34,-2 -12,-1 -24.5,-2.5 Q 828,678 824,678 q -6,0 -6,2 0,1 0,1 0,1 10,19 10,18 21,48 3,8 8,22 5,14 9.5,26 4.5,12 7.5,21.5 3,9.5 5,13.5 2,5 3,5 1,0 1.5,-8.5 0.5,-8.5 7.5,-35.5 7,-25 15,-45.5 8,-20.5 15,-33.5 1,-1 5,-7.5 4,-6.5 7.5,-12 3.5,-5.5 6,-9 z m 204,237 q -7,0 -17,-1 -8,0 -18,-0.5 -10,-0.5 -23,-0.5 l -55,-2 18,25 q 8,11 17,28.5 9,17.5 14,31.5 l 9,34 28,-55 q 11,-24 19,-41 8,-17 8,-19 z"
     id="path1" />
</svg>
