<?xml version="1.0" encoding="UTF-8" standalone="no"?>
<svg
   width="2000"
   height="2000"
   version="1.1"
   id="svg1"
   sodipodi:docname="u1202B.svg"
   inkscape:version="1.3.2 (091e20e, 2023-11-25)"
   xmlns:inkscape="http://www.inkscape.org/namespaces/inkscape"
   xmlns:sodipodi="http://sodipodi.sourceforge.net/DTD/sodipodi-0.dtd"
   xmlns="http://www.w3.org/2000/svg"
   xmlns:svg="http://www.w3.org/2000/svg">
  <defs
     id="defs1" />
  <sodipodi:namedview
     id="namedview1"
     pagecolor="#505050"
     bordercolor="#eeeeee"
     borderopacity="1"
     inkscape:showpageshadow="0"
     inkscape:pageopacity="0"
     inkscape:pagecheckerboard="0"
     inkscape:deskcolor="#505050"
     inkscape:zoom="0.379"
     inkscape:cx="1000"
     inkscape:cy="998.68074"
     inkscape:window-width="1392"
     inkscape:window-height="1212"
     inkscape:window-x="0"
     inkscape:window-y="0"
     inkscape:window-maximized="0"
     inkscape:current-layer="svg1" />
  <path
     d="m 783.5,648.5 q 3,-8 9,-9.5 6,-1.5 8,-1.5 5,0 5,4 0,8 -21,32.5 -21,24.5 -44,70.5 -4,8 -8.5,16.5 -4.5,8.5 -8.5,17.5 -4,6 -8,14 21,7 38,13 17,5 31.5,9.5 14.5,4.5 17.5,5.5 10,3 55,3 7,0 15.5,-0.5 8.5,-0.5 17.5,-0.5 58,0 161,3 l 291,9 67,-46 q 29,-20 57,-42 28,-22 43,-35 22,-20 30,-20 2,0 3,0.5 1,0.5 1,2.5 0,8 -25,39 -22,27 -42.5,58 -20.5,31 -31,53 -10.5,22 -10.5,35 0,0 0.5,7 0.5,7 11.5,7 6,0 7,3 1,3 1,4 0,4 -3,8 0,1 0,3 0,15 49,47 20,12 39.5,27 19.5,15 34,28 14.5,13 21,21 6.5,8 6.5,11 0,1 0,1 -1,1 -2,1 -5,0 -20,-9 -15,-9 -40,-29 -59,-47 -120,-77.5 -61,-30.5 -118,-36.5 -31,-4 -37,-8.5 -6,-4.5 -6,-6.5 0,-5 16,-10 9,-3 15.5,-6.5 6.5,-3.5 12.5,-6.5 0,0 1,0 v -1 q 0,0 1,0 0,0 0,0 l 1,-1 q 0,0 0,0 h 1 q 0,0 1,-1 0,0 0,0 h 1 q 0,0 0,-1 h 1 q 0,0 0,0 h 1 q 0,0 0,-1 1,0 1,0 1,-1 1,-1 h 1 q 0,0 0,0 1,-1 1,-1 1,0 1,0 v -1 q 0,0 1,0 -30,-1 -56,-2 -44,-1 -88.5,-1.5 -44.5,-0.5 -74.5,-0.5 -44,0 -78,-1.5 -34,-1.5 -66,-3 -32,-1.5 -58,-1.5 -8,0 -29,0.5 -21,0.5 -50,8.5 -13,3 -36,10 -23,7 -41,14 -22,7 -41,15 7,16 14.5,26.5 7.5,10.5 15,18 7.5,7.5 15,13 7.5,5.5 32.5,26.5 25,21 47.5,40.5 22.5,19.5 32,28.5 9.5,9 9.5,12 0,0 -0.5,1.5 -0.5,1.5 -1.5,3.5 -1,1 -3,1 -5,0 -15.5,-7 -10.5,-7 -26.5,-22 -15,-14 -37,-32 -22,-18 -38,-31 l -39,-27 -35,41 q -18,19 -33.5,41 -15.5,22 -26,42.5 -10.5,20.5 -15,33 -4.5,12.5 -4.5,20.5 0,5 2,10 14,33 117,52.5 103,19.5 306,19.5 1,0 1,0 h 7 q 1,0 1,0 h 21 q 26,0 43,-1 h 4 q 0,0 1,0 h 4 q 0,0 1,0 h 1 q 1,0 1,0 h 2 q 0,0 1,0 h 1 q 1,0 1,0 h 20 q 9,-5 15,-9 9,-5 16.5,-9 7.5,-4 18.5,-11 19,-11 49,-30.5 30,-19.5 59,-40 29,-20.5 53.5,-39 24.5,-18.5 38.5,-32.5 23,-22 34,-22 2,0 3.5,1 1.5,1 1.5,4 0,9 -24,35 -20,22 -39,48.5 -19,26.5 -29.5,49 -10.5,22.5 -11,31 -0.5,8.5 -0.5,10.5 0,14 9,19 5,2 7,9.5 2,7.5 2,12.5 0,9 9.5,19 9.5,10 24.5,18 15,8 36,23.5 21,15.5 38.5,31.5 17.5,16 27.5,27.5 10,11.5 10,15.5 0,1 -1,2 0,0 -1,0 -4,0 -21.5,-11.5 -17.5,-11.5 -43.5,-32.5 -12,-9 -26.5,-19.5 -14.5,-10.5 -30,-21 -15.5,-10.5 -30,-19 -14.5,-8.5 -28.5,-15.5 -16,-8 -30,-13.5 -14,-5.5 -39,-8 -25,-2.5 -69,-3 -44,-0.5 -105,-0.5 -155,0 -244,3.5 -89,3.5 -113,17.5 0,1 5,5.5 5,4.5 12.5,10.5 7.5,6 16,13 8.5,7 15.5,15 20,18 26,26.5 6,8.5 6,11.5 0,2 -0.5,2 -0.5,0 -1.5,0 -4,0 -17,-8 -13,-8 -38,-30 -15,-13 -30,-25 -15,-12 -19,-12 -3,0 -21.5,6 -18.5,6 -43.5,14 -22,8 -41,13.5 -19,5.5 -21,5.5 -3,0 -3.5,-11.5 -0.5,-11.5 -0.5,-17.5 0,-18 2,-48 1,-13 1.5,-20.5 0.5,-7.5 0.5,-8.5 0,-12 -7.5,-19 -7.5,-7 -27.5,-10 -20,-3 -58,-9 l -48,-9 57,-36 q 12,-7 28,-18 16,-11 34,-24.5 18,-13.5 37.5,-28 19.5,-14.5 43.5,-32.5 38,-30 85,-68 l -34,-18 -25,8 q -4,2 -12.5,5 -8.5,3 -17.5,5.5 -9,2.5 -16,4.5 -7,2 -8,2 -1,0 -1,-3 0,-3 1,-10 1,-7 3,-15 1,-4 1,-7 0,-3 1,-5 l 1,-7 q -4,-1 -7,-2 h -1 q -5,-1 -10,-2 -8,-2 -15.5,-3.5 -7.5,-1.5 -12.5,-1.5 l -41,-5 47,-28 q 8,-5 15.5,-9.5 7.5,-4.5 16.5,-10.5 4,-3 10,-7 v -36 q 0,-22 -1.5,-29.5 -1.5,-7.5 -1.5,-9.5 0,-6 2,-6.5 2,-0.5 3,-0.5 5,0 16.5,5.5 11.5,5.5 40.5,19.5 2,0 8,2 l 5,2 q 11,-7 22,-16 10,-7 21,-15.5 11,-8.5 27,-22.5 20,-17 40,-35.5 20,-18.5 23,-27.5 z m -83,138 29,-60 -61,47 z m -106,21 39,-27 -41,-23 z m 57,-18 -56,39 q -1,8 -1,16 0,4 0.5,7.5 0.5,3.5 0.5,7.5 0,8 -1,16 7,2 10,2.5 3,0.5 16,5.5 10,3 12.5,4 2.5,1 9.5,4 l 34,-11 q -2,-9 -2,-15 0,-2 0.5,-6.5 0.5,-4.5 2.5,-15.5 3,-17 6.5,-24 3.5,-7 6.5,-15 z m 785,21 q 5,-7 8,-12 3,-5 3,-7 0,-1 -1,-1 -1,0 -3.5,1 -2.5,1 -17.5,10.5 -15,9.5 -41,26.5 -17,11 -29.5,19 -12.5,8 -29.5,19 -6,3 -17,10 9,2 15,4 10,2 18,3 8,1 14,2 13,0 26,1 13,1 18,2 2,0 4,0 4,0 6.5,-1.5 2.5,-1.5 3,-4.5 0.5,-3 0.5,-8 0,-5 1,-8 1,-12 6.5,-25.5 5.5,-13.5 15.5,-30.5 z m -728,1 q -11,17 -13,26.5 -2,9.5 -2,19.5 0,7 1,16 l 94,-35 z m -131,60 1,-34 -41,27 z m 12,44 38,-14 -34,-10 z m 75,-14 25,12 -8,-18 z m -59,127 q 2,-3 2,-5 0,-2 -2,-2 -10,0 -72,47 -23,18 -41.5,33 -18.5,15 -19.5,20 0,0 0,1 0,2 7,5 7,3 20,4 l 57,2 q 8,-18 15,-32 10,-20 18,-38 8,-18 16,-35 z m 700,100 q 5,-6 8.5,-12.5 3.5,-6.5 3.5,-8.5 0,-1 -1,-1 0,0 -1,0 -3,0 -20,10 -17,10 -40,27 -13,8 -27.5,17 -14.5,9 -26.5,17 -15,8 -29,16 l 89,5 q 7,1 12,1 3,0 7,-0.5 4,-0.5 6,-3.5 2,-3 2,-8 0,0 0,-1 v -1 q 0,0 0,-1 v -1 q 0,0 0,-1 v -6 q 0,-9 4,-22.5 4,-13.5 13,-25.5 z m -623,65 q -19,-5 -31.5,-10.5 -12.5,-5.5 -23.5,-10.5 -15,-6 -30,-13 23,22 38,36 15,14 27,24 9,7 15,11 1,0 3,-1 1,0 2,-1 2,0 5,-1 1,-1 2,-1 6,-2 12,-3 6,-1 13,-3 10,-3 14,-5 4,-2 4,-3 0,-2 -3,-4 -3,-2 -17,-6.5 -14,-4.5 -30,-8.5 z m -34,44 q -8,-6 -16,-12 l -1,-1 q -1,0 -2,-1 l -1,-1 q -11,-8 -20,-15 -16,-12 -31,-24 -6,-5 -13,-11 -1,7 -2,15 -3,13 -3,32 0,16 2,28 2,12 9,12 4,0 17,-3.5 13,-3.5 27,-7.5 16,-5 34,-11 z"
     id="path1" />
</svg>
