<?xml version="1.0" encoding="UTF-8" standalone="no"?>
<svg
   width="2000"
   height="2000"
   version="1.1"
   id="svg1"
   sodipodi:docname="u12043.svg"
   inkscape:version="1.3.2 (091e20e, 2023-11-25)"
   xmlns:inkscape="http://www.inkscape.org/namespaces/inkscape"
   xmlns:sodipodi="http://sodipodi.sourceforge.net/DTD/sodipodi-0.dtd"
   xmlns="http://www.w3.org/2000/svg"
   xmlns:svg="http://www.w3.org/2000/svg">
  <defs
     id="defs1" />
  <sodipodi:namedview
     id="namedview1"
     pagecolor="#505050"
     bordercolor="#eeeeee"
     borderopacity="1"
     inkscape:showpageshadow="0"
     inkscape:pageopacity="0"
     inkscape:pagecheckerboard="0"
     inkscape:deskcolor="#505050"
     inkscape:zoom="0.379"
     inkscape:cx="1000"
     inkscape:cy="998.68074"
     inkscape:window-width="1392"
     inkscape:window-height="1212"
     inkscape:window-x="0"
     inkscape:window-y="0"
     inkscape:window-maximized="0"
     inkscape:current-layer="svg1" />
  <path
     d="m 1504.5,641.5 q 0,-6 6,-6 7,0 22,8 28,14 58.5,14 30.5,0 47.5,-12 5,-3 9.5,-5 4.5,-2 8.5,-2 4,0 9.5,2 5.5,2 11.5,5 25,12 37,12.5 12,0.5 14,0.5 22,0 49,-8 12,-4 19,-5 7,-1 9,-1 4,0 5,1 0,0 0,1 0,2 -3.5,8.5 -3.5,6.5 -9.5,12.5 -11,11 -22.5,35.5 -11.5,24.5 -21.5,55.5 -5,18 -9,34.5 -4,16.5 -6.5,34.5 -2.5,18 -4,40 -1.5,22 -1.5,54 -4,109 -9,109 0,0 -3,-3.5 -3,-3.5 -6,-134.5 -1,-48 -2.5,-78.5 -1.5,-30.5 -4,-49 -2.5,-18.5 -7,-30.5 -4.5,-12 -12.5,-29 l -24,-50 -16,24 q -12,16 -22.5,43.5 -10.5,27.5 -18,61.5 -7.5,34 -12,71 -4.5,37 -4.5,73 v 87 l 37,-3 q 15,-1 31.5,-3 16.5,-2 29.5,-8 8,-3 11,-3 3,0 3,2 0,1 -1,5 -1,4 -18,21 -40,41 -65,103 0,0 0,0 l -1,2 q 0,1 0,2 l -1,2 q 0,0 0,0 l -1,1 q 0,1 0,2 l -1,2 q 0,0 0,1 l -1,1 q 0,1 0,2 l -1,2 q 0,0 0,0 l -1,2 q 0,1 0,2 l -1,1 q 0,1 0,1 l -1,1 q 0,1 0,2 l -1,2 q -5,14 -7.5,29.5 -2.5,15.5 -4,35.5 -1.5,20 -2.5,54 -1,47 -4,67.5 -3,20.5 -5,20.5 0,0 -1.5,-2.5 -1.5,-2.5 -3,-31.5 -1.5,-29 -1.5,-81 1,-26 1,-45 0,-10 -0.5,-25.5 -0.5,-15.5 -2,-30.5 -1.5,-15 -4.5,-24.5 -3,-9.5 -9,-19.5 l -16,-32 h -57 q -24,0 -51.5,3 -27.5,3 -52,8 -24.5,5 -43,11.5 -18.5,6.5 -27.5,14.5 -6,6 -9,7 -3,1 -4,1 -4,0 -6.5,-8.5 -2.5,-8.5 -3.5,-29 -1,-20.5 -1,-58.5 0,-28 -0.5,-65 -0.5,-37 -1.5,-74.5 -1,-37.5 -2.5,-73 -1.5,-35.5 -2.5,-63.5 -1,-28 -2.5,-46 -1.5,-18 -3.5,-21 0,-1 0,-2 0,-3 4,-6 3,-2 5,-2 2,0 4.5,2 2.5,2 3.5,8 2,10 10.5,16 8.5,6 25.5,10.5 17,4.5 45.5,8.5 28.5,4 70.5,7 42,5 68,9 26,4 26,6 0,0 0,0 -3,2 -28.5,4 -25.5,2 -59.5,3 -69,4 -106.5,13.5 -37.5,9.5 -39.5,25.5 0,1 0,2 0,6 5.5,11 5.5,5 22,9 16.5,4 45,6.5 28.5,2.5 67.5,4.5 45,2 71,5 26,3 30.5,4.5 4.5,1.5 4.5,2.5 0,2 -11.5,3.5 -11.5,1.5 -43.5,1.5 -27,0 -52,1.5 -25,1.5 -49,4.5 -24,3 -45,6.5 -21,3.5 -33,6.5 -13,5 -13,13 0,1 1,6 1,5 12,9 6,2 17.5,3.5 11.5,1.5 28.5,2.5 17,1 38.5,2.5 21.5,1.5 45.5,2.5 42,2 73,4.5 31,2.5 31,4.5 0,2 -23.5,5.5 -23.5,3.5 -62.5,5.5 -28,1 -56.5,4 -28.5,3 -50.5,7 -22,4 -34.5,8 -12.5,4 -12.5,8 0,4 6.5,7 6.5,3 22.5,5 16,2 42.5,4.5 26.5,2.5 66.5,4.5 42,1 67.5,4 25.5,3 30,4.5 4.5,1.5 4.5,2.5 0,2 -11.5,3.5 -11.5,1.5 -41.5,1.5 -29,0 -54,2 -25,2 -49,5 -24,3 -45,6.5 -21,3.5 -30,6.5 -17,4 -17,15 0,2 1.5,9.5 1.5,7.5 17.5,14.5 10,5 31,9.5 21,4.5 47,8 26,3.5 52.5,5.5 26.5,2 46.5,2 l 34,-1 -21,-18 q -9,-8 -18.5,-13 -9.5,-5 -14.5,-5 -5,0 -7.5,-3 -2.5,-3 -2.5,-6 0,-6 12,-6 1,0 9,0.5 8,0.5 51,9.5 l 24,6 4,-112 q 1,-23 1.5,-40.5 0.5,-17.5 0.5,-27.5 0,-11 -0.5,-25 -0.5,-14 -1.5,-28 -1,-14 -4,-27 -3,-11 -9,-29 -6,-18 -13.5,-33.5 -7.5,-15.5 -15,-26.5 -7.5,-11 -14.5,-14 -5,-3 -9.5,-8 -4.5,-5 -4.5,-9 z m -369,27 q 3,-2 6,-2 1,0 4,0.5 3,0.5 11,7.5 10,10 22,13 12,3 24.5,3 12.5,0 24.5,-2.5 12,-2.5 21,-10.5 6,-5 9,-5 3,0 3,5 0,10 -11,37 -9,18 -17.5,51.5 -8.5,33.5 -15,70.5 -6.5,37 -9,67.5 -2.5,30.5 -2.5,49.5 0,6 0,11 1,11 1,21 0,7 -1,17 -1,10 -4,10 -4,0 -4.5,11.5 -0.5,11.5 -0.5,15.5 0,18 2,48 2,30 2,49 0,19 -4,19 -3,0 -5,-10 -2,-10 -3.5,-27.5 -1.5,-17.5 -2,-32 -0.5,-14.5 -0.5,-21.5 0,-14 1,-27 0,-7 0,-12 0,-14 -1.5,-16 -1.5,-2 -6.5,-2 -3,0 -7,1 -13,4 -34.5,13 -21.5,9 -43.5,20.5 -22,11.5 -41,22.5 -19,11 -31,21 -19,17 -30,39 -11,22 -11,35 0,6 2,11 1,4 1,7 0,7 -4,11 -1,0 -1,0 -4,0 -11.5,-11.5 -7.5,-11.5 -16.5,-29.5 -8,-19 -15.5,-32 -7.5,-13 -11.5,-13 -3,0 -23.5,7.5 -20.5,7.5 -44.5,18 -24,10.5 -46,20.5 -22,10 -36,19 -37,25 -43,57 -4,13 -10,13 -1,0 -5.5,-3.5 -4.5,-3.5 -10.5,-25.5 -5,-18 -13.5,-35.5 -8.5,-17.5 -18.5,-32.5 -6,-10 -11.5,-20 -5.5,-10 -5.5,-12 0,-3 9.5,-4.5 9.5,-1.5 23.5,-1.5 34,0 34,-9 0,-7 -18.5,-10.5 -18.5,-3.5 -59.5,-6.5 -42,-3 -74.5,-3 -32.5,0 -45.5,2 l -27,6 v 48 q 0,20 -2,34 -2,14 -5,14 -4,0 -6,-14 -2,-14 -2,-35 v -48 h -22 q -16,0 -25,1.5 -9,1.5 -14,6.5 -5,5 -6.5,15.5 -1.5,10.5 -1.5,28.5 0,20 -2,32.5 -2,12.5 -5,12.5 -4,0 -6,-13.5 -2,-13.5 -2,-34.5 0,-16 -1,-29 -1,-13 -5,-13 -3,0 -19.5,4 -16.5,4 -35.5,10 -19,6 -36,12 -17,6 -24,9 -9,5 -17,13 -8,8 -12,15 -2,8 -6.5,14 -4.5,6 -10.5,6 -5,0 -5,-3 1,-6 2,-14 1,-6 2,-14 1,-8 3,-17 4,-20 4,-36 0,-14 -4.5,-30.5 -4.5,-16.5 -32.5,-38.5 -10,-8 -10.5,-9 -0.5,-1 -0.5,-1 0,-2 10,-2 11,0 22,2.5 11,2.5 20,7.5 17,9 48,16 31,7 79,14 l 33,5 -4,-44 q -4,-35 -15,-64.5 -11,-29.5 -29,-41.5 -7,-5 -7,-9 0,-2 2,-3.5 2,-1.5 6,-1.5 5,0 13,4 7,4 12,4 7,0 9.5,-7 2.5,-7 2.5,-23 0,-14 -2,-36 -1,-27 -5.5,-43.5 -4.5,-16.5 -16.5,-33.5 -8,-11 -8,-15 0,-2 4.5,-2 4.5,0 38.5,18 22,11 35,16 13,5 28.5,8.5 15.5,3.5 36,7 20.5,3.5 63.5,8.5 36,4 63.5,6.5 27.5,2.5 44.5,2.5 5,0 17,-0.5 12,-0.5 21.5,-5 9.5,-4.5 16.5,-12.5 6,-8 14.5,-23.5 8.5,-15.5 14.5,-29.5 5,-14 12.5,-24 7.5,-10 13.5,-10 5,0 5,4 0,1 -1,3 -3,4 -3,10 0,3 1.5,10.5 1.5,7.5 8,20 6.5,12.5 16.5,25.5 10,13 21,23 12,10 34,24 22,14 43.5,26 21.5,12 36,19 14.5,7 18.5,7 2,0 2,-1 2,0 7.5,-10.5 5.5,-10.5 9.5,-18.5 17,-32 22.5,-34.5 5.5,-2.5 6.5,-2.5 3,0 3,5 0,3 -1,9 -2,8 -2,16 0,17 10.5,38 10.5,21 33.5,43 11,9 29.5,21 18.5,12 38,22.5 19.5,10.5 36,18 16.5,7.5 21.5,7.5 7,0 7.5,-13.5 0.5,-13.5 0.5,-21.5 0,-17 -1,-41 -3,-84 -15.5,-139 -12.5,-55 -30.5,-77 -4,-5 -6,-9.5 -2,-4.5 -2,-6.5 0,-3 2,-5 z m 615,58 q 4,-11 7,-21 3,-10 5,-20 2,-7 4,-15 0,0 0,0 h -1 q 0,0 -1,0 0,0 0,0 h -1 q 0,0 0,0 h -9 q -11,0 -25,2 l -38,1 11,21 q 5,9 10.5,24.5 5.5,15.5 8.5,29.5 l 11,33 z m -126,-38 q 6,-14 6,-17 0,-1 0,-1 0,0 0,0 h -2 q 0,0 0,0 0,0 -1,0 h -1 q 0,0 0,0 h -8 q -11,0 -26,2 -23,1 -28,3.5 -5,2.5 -5,5.5 0,3 2,6 2,5 7,21 5,16 11,33 l 13,42 12,-39 q 5,-16 10.5,-32.5 5.5,-16.5 9.5,-23.5 z m -394,28 q 1,-3 1,-5 0,-3 -2.5,-4 -2.5,-1 -12.5,-1 -5,0 -12,0 -23,0 -26,2 -3,2 -3,7 0,4 2,11 2,8 6,26.5 4,18.5 9,36.5 l 9,43 12,-51 q 5,-21 9.5,-40 4.5,-19 7.5,-25 z m 112,5 q -15,-3 -26.5,-6 -11.5,-3 -12.5,-4 -2,0 -2,6 v 2 q 0,0 0,0 v 1 q 0,1 0,2 0,1 0,1 0,1 0,1 0,1 0,1 v 8 q 0,1 0,1 v 1 q 0,9 1.5,14 1.5,5 3.5,5 0,0 1,0 2,-2 13.5,-5 11.5,-3 25.5,-8 l 33,-9 z m -518,87 q -12,-11 -23.5,-24 -11.5,-13 -16.5,-22 l -14,-20 -16,30 q -7,11 -9,16.5 -2,5.5 -2,7.5 0,5 6,5 5,0 5,3 0,2 -4,7.5 -4,5.5 -20,7.5 -4,1 -4,1 0,1 5.5,1.5 5.5,0.5 25.5,1.5 19,0 40,2 21,2 32,4 l 25,5 z m -334,-12 q -20,-3 -41.5,-8 -21.5,-5 -35.5,-10 -8,-4 -11,-4 0,0 -1,0.5 -1,0.5 -1,2.5 0,2 1,5 2,6 3.5,19 1.5,13 1.5,27 v 33 l 33,-18 q 12,-8 31.5,-16 19.5,-8 34.5,-11 l 33,-9 z m 202,30 q 0,-7 -16,-9 -16,-2 -33,-2 -9,0 -29,1 -20,1 -53,5.5 -33,4.5 -62,13.5 -37,11 -65,28 -28,17 -28,28 0,4 3.5,5.5 3.5,1.5 7.5,1.5 4,0 8,-2 4,-2 5,-5 2,-6 9,-6 7,0 20,5 16,6 26.5,6.5 10.5,0.5 13.5,0.5 14,0 25,-2 14,-1 23.5,-1 9.5,0 9.5,1 0,2 -4.5,9 -4.5,7 -7.5,12 -8,10 -16,31.5 -8,21.5 -15.5,44 -7.5,22.5 -11.5,38 -4,15.5 -4,20.5 0,2 1,3 1,1 33.5,3 32.5,2 78.5,4 l 111,6 v -55 q 0,-22 -3.5,-43.5 -3.5,-21.5 -9.5,-38.5 -6,-17 -13.5,-27.5 -7.5,-10.5 -18.5,-10.5 -7,0 -7,-4 0,-5 14.5,-6 14.5,-1 28.5,-1 7,0 22,0.5 15,0.5 36.5,2.5 21.5,2 28.5,5 6,2 14.5,2.5 8.5,0.5 10.5,0.5 13,0 30,-3 11,-1 17.5,-1.5 6.5,-0.5 7.5,-0.5 7,0 7,2 0,1 -5,7.5 -5,6.5 -9,10.5 -24,27 -38.5,69.5 -14.5,42.5 -14.5,83.5 v 45 l 42,-5 q 18,-1 30.5,-3.5 12.5,-2.5 14.5,-3.5 1,-1 1,-2 0,-3 -3,-9.5 -3,-6.5 -9,-17.5 l -15,-25 h 87 q 30,0 49.5,-1 19.5,-1 33.5,-3 14,-2 27,-7 13,-5 31,-12 l 51,-22 -37,-18 q -11,-6 -21.5,-9.5 -10.5,-3.5 -24,-6.5 -13.5,-3 -32.5,-4.5 -19,-1.5 -48,-2.5 -41,-1 -64,-4 -23,-3 -23,-7 0,-3 6.5,-12.5 6.5,-9.5 17.5,-19.5 l 24,-26 -42,-18 q -13,-6 -25,-10 -12,-4 -26,-7 -14,-3 -33.5,-4.5 -19.5,-1.5 -44.5,-2.5 -56,-3 -75.5,-6 -19.5,-3 -19.5,-9 z m 653,-3 q -12,-7 -22,-7 -1,0 -7.5,0.5 -6.5,0.5 -6.5,11.5 0,8 8,8 2,0 6,-1 3,-1 9.5,-2.5 6.5,-1.5 12.5,-1.5 7,0 7,-2 0,-2 -7,-6 z m -312,89 q -11,-11 -19.5,-22.5 -8.5,-11.5 -10.5,-19.5 -4,-11 -8,-11 -1,0 -3.5,2 -2.5,2 -17.5,24 -12,17 -21.5,26.5 -9.5,9.5 -12.5,9.5 -2,0 -5,2 -3,2 -3,4 0,5 17.5,7 17.5,2 44.5,2 h 61 z m 308,-16 q -14,-4 -21,-4 -2,0 -6.5,1 -4.5,1 -4.5,10 0,9 7,9 4,0 9,-2 7,-1 15.5,-2.5 8.5,-1.5 12.5,-1.5 4,0 4,-1 0,-1 -1.5,-3 -1.5,-2 -14.5,-6 z m -584,10 q 0,-1 0,-1 0,-3 -5.5,-5 -5.5,-2 -17.5,-2 -17,0 -17.5,2 -0.5,2 -0.5,2 0,5 9,28 l 11,25 9,-22 q 3,-9 6.5,-17 3.5,-8 5.5,-10 z m 49,121 q 1,-24 1,-39 0,-15 -1.5,-25.5 -1.5,-10.5 -4.5,-18 -3,-7.5 -8,-16.5 l -17,-25 -18,37 q -9,22 -12.5,43.5 -3.5,21.5 -3.5,58.5 l -2,63 26,3 q 9,1 15,1 11,0 15,-3 5,-4 7.5,-27 2.5,-23 2.5,-52 z m 42,-121 h -51 l 14,27 q 5,10 8.5,17 3.5,7 4.5,7 0,0 0,0 0,-2 4,-9.5 4,-7.5 10,-17.5 z m -412,12 q 0,-2 -5,-3.5 -5,-1.5 -12,-1.5 -18,0 -20,6.5 -2,6.5 -2,10.5 0,10 6,29 5,16 7,17 2,1 2,1 3,0 6,-7 2,-7 5,-16 3,-9 7,-17 2,-7 4,-12.5 2,-5.5 2,-6.5 z m 90,-5 h -27 q -17,0 -20,2 -3,2 -3,5 0,3 2,7 2,5 4.5,14 2.5,9 3.5,13 6,19 10,22 4,3 6,3 3,0 3,-9 0,-7 2.5,-17 2.5,-10 7.5,-19 z m -44,104 q 0,-17 -4.5,-37 -4.5,-20 -10.5,-32 l -15,-30 -7,19 q 0,1 -1,2 v 1 q 0,1 -1,2 v 1 q -1,3 -2,5 v 1 q -1,2 -1,3 v 1 q -1,1 -1,1 v 1 q 0,1 -1,3 v 1 q -1,3 -3,7 v 1 q -6,18 -10.5,35 -4.5,17 -7,28 -2.5,11 -2.5,14 0,1 0,1 1,2 10.5,3.5 9.5,1.5 23.5,2.5 l 33,5 z m 865,-49 q -14,-9 -24,-9 -1,0 -7.5,0.5 -6.5,0.5 -6.5,10.5 0,8 6,8 3,0 7,-1 4,-1 10.5,-2.5 6.5,-1.5 13.5,-1.5 7,0 7,-1 0,-1 -6,-4 z m 278,115 q 10,-20 15,-31.5 5,-11.5 5.5,-15 0.5,-3.5 0.5,-4.5 0,-3 -2,-4 -2,-1 -9,-1 -15,0 -19,4 -3,3 -15,4 -12,1 -27,1 -9,0 -15,0 -12,0 -13,0.5 -1,0.5 -1,1.5 0,4 6,12 6,8 15,23.5 9,15.5 16,30.5 l 16,34 z m -1311,-32 q -21,-3 -37.5,-7 -16.5,-4 -23.5,-7 -4,-2 -6,-2 -2,0 -2.5,1 -0.5,1 -0.5,2 0,3 4,12 5,16 5.5,24 0.5,8 0.5,12 0,7 -1,12 l -5,18 39,-15 q 16,-6 38.5,-12.5 22.5,-6.5 43.5,-11.5 23,-6 24,-7 1,-1 1,-1 0,-2 -12,-5 -11,-3 -31,-7 -20,-4 -37,-6 z m 1040,6 q -15,-3 -26,-7 -11,-4 -13,-6 0,0 -1,0 -5,0 -5,21 0,16 2,18.5 2,2.5 4,2.5 4,0 10,-3 7,-2 18.5,-5.5 11.5,-3.5 20.5,-5.5 l 23,-6 z m -338,12 2,-3 q 1,0 1,0 l 1,-1 q 1,-1 1,-1 l 2,-2 q 0,0 0,0 l 4,-4 q 6,-6 6,-7 0,0 0,0 0,0 0,0 -4,0 -22.5,1.5 -18.5,1.5 -30.5,2.5 -65,5 -65,11 0,1 1,2 5,2 14.5,14 9.5,12 19.5,28 9,15 13,18.5 4,3.5 5,3.5 2,0 2,-3 0,-7 10,-20.5 10,-13.5 36,-39.5 z m -595,-1 q 0,-3 -4,-3 -4,0 -4,3 0,4 4,4 4,0 4,-4 z m 406,52 -76,-1 q -27,-1 -41.5,-1 -14.5,0 -21,1 -6.5,1 -6.5,4 0,3 2,8 3,7 7.5,12 4.5,5 6.5,7 4,2 7.5,10 3.5,8 4.5,17 l 6,24 27,-27 q 11,-10 28,-21.5 17,-11.5 28,-17.5 z"
     id="path1" />
</svg>
