<?xml version="1.0" encoding="UTF-8" standalone="no"?>
<svg
   width="2000"
   height="2000"
   version="1.1"
   id="svg1"
   sodipodi:docname="u1201A.svg"
   inkscape:version="1.3.2 (091e20e, 2023-11-25)"
   xmlns:inkscape="http://www.inkscape.org/namespaces/inkscape"
   xmlns:sodipodi="http://sodipodi.sourceforge.net/DTD/sodipodi-0.dtd"
   xmlns="http://www.w3.org/2000/svg"
   xmlns:svg="http://www.w3.org/2000/svg">
  <defs
     id="defs1" />
  <sodipodi:namedview
     id="namedview1"
     pagecolor="#505050"
     bordercolor="#eeeeee"
     borderopacity="1"
     inkscape:showpageshadow="0"
     inkscape:pageopacity="0"
     inkscape:pagecheckerboard="0"
     inkscape:deskcolor="#505050"
     inkscape:zoom="0.379"
     inkscape:cx="1000"
     inkscape:cy="998.68074"
     inkscape:window-width="1392"
     inkscape:window-height="1212"
     inkscape:window-x="0"
     inkscape:window-y="0"
     inkscape:window-maximized="0"
     inkscape:current-layer="svg1" />
  <path
     d="m 1492,675.5 q 19,-39 24.5,-40.5 5.5,-1.5 6.5,-1.5 8,0 8,23 0,38 27,63 9,9 15,18 6,9 6,13 0,1 0,2 0,0 0,1 0,4 12.5,11 12.5,7 29,14 16.5,7 28,10.5 11.5,3.5 16.5,3.5 3,0 4,-1 2,-2 2,-6 0,-5 -3,-16 -3,-11 -11,-28 -8,-17 -17,-32 -9,-15 -23,-22 -9,-5 -9,-8 0,-3 5,-5.5 5,-2.5 15,-2.5 12,0 29,3 21,3 51,5 30,2 55,2 45,2 51.5,5.5 6.5,3.5 6.5,6.5 0,4 -12,9 -16,7 -28,21 -12,14 -23.5,30.5 -11.5,16.5 -20,32.5 -8.5,16 -8.5,24 0,1 0,3 0,4 6,8.5 6,4.5 15,6.5 10,2 17,8 7,6 7,13 0,6 -5,6 0,0 -3.5,-0.5 -3.5,-0.5 -24.5,-8.5 -20,-9 -27,-9 0,0 -3.5,0.5 -3.5,0.5 -6.5,7.5 -3,7 -4,24.5 -1,17.5 -2,45 -1,27.5 -1,62.5 v 2 q 0,1 0,2 v 16 q 0,1 0,2 v 2 q 0,1 0,2 v 2 q 0,2 0,3 v 2 q 0,1 0,2 v 21 q 0,1 0,2 v 3 q 0,3 0,5 v 3 q 0,2 0,4 l 3,188 36,15 q 16,7 27,13 11,6 11,12 0,5 -6,5 -10,0 -33,-11 -18,-8 -24,-8 -1,0 -4,0.5 -3,0.5 -8,9.5 -5,7 -8,7 -1,0 -2.5,-1 -1.5,-1 -3.5,-8 -3,-10 -11.5,-17.5 -8.5,-7.5 -27,-17 -18.5,-9.5 -50.5,-23 -32,-13.5 -50,-20.5 -26,-10 -35,-10 -4,0 -7,3 -3,3 -5,13 -5,14 -7,14 0,0 -1,-0.5 -1,-0.5 -7,-16.5 -4,-14 -8,-20.5 -4,-6.5 -13,-13 -9,-6.5 -24.5,-13 -15.5,-6.5 -34.5,-13.5 -22,-9 -36.5,-14 -14.5,-5 -25.5,-8.5 -11,-3.5 -17,-4.5 -6,-1 -8,-1 -2,0 -2,0 -4,2 -4.5,9 -0.5,7 -0.5,10 0,10 2,23 2,14 2,30 0,16 -4,24 -2,4 -4,4 -6,0 -9,-46 -4,-25 -8.5,-45.5 -4.5,-20.5 -8.5,-25.5 -4,-4 -21,-6 -17,-2 -32.5,-2.5 -15.5,-0.5 -24.5,-0.5 -14,0 -34,1 -20,1 -33,3 -20,3 -58.5,16 -38.5,13 -90.5,33 -52,20 -111.5,43.5 -59.5,23.5 -112.5,46 -53,22.5 -93.5,40.5 -40.5,18 -59.5,29 -18,11 -35.5,26.5 -17.5,15.5 -22.5,24.5 -9,20 -15,20 0,0 -3.5,-0.5 -3.5,-0.5 -3.5,-18.5 0,-28 -19,-28 -10,0 -10,-6 0,-6 -9.5,-18 -9.5,-12 -25.5,-27.5 -16,-15.5 -36,-32.5 -20,-17 -41,-32.5 -21,-15.5 -40.5,-28.5 -19.5,-13 -31.5,-19 -14,-6 -36,-10.5 -22,-4.5 -45,-4.5 l -56,-3 77,-61 q 16,-12 38.5,-31 22.5,-19 47.5,-41 25,-22 50.5,-45 25.5,-23 51.5,-49 17,-17 36,-35 19,-18 34,-33 16,-16 30,-29 3,0 3,4 0,11 -39,64 -38,48 -68.5,93.5 -30.5,45.5 -48.5,81 -18,35.5 -20.5,48.5 -2.5,13 -2.5,17 0,12 9,12 5,0 6,3 1,3 1,5 0,1 -1,3 0,1 0,3 0,19 69,87 16,16 29.5,28 13.5,12 23,20 9.5,8 13,9.5 3.5,1.5 4.5,1.5 2,0 2,-3 0,-1 0,-2 -1,-2 -4,-16.5 -3,-14.5 -6,-29.5 l -6,-37 31,7 q 13,4 37,5.5 24,1.5 41,1.5 16,0 33,-1 28,0 48.5,-2.5 20.5,-2.5 48,-10 27.5,-7.5 69.5,-23.5 42,-16 94,-36 59,-23 95,-37.5 36,-14.5 63,-25.5 27,-11 43,-18.5 16,-7.5 16,-8.5 0,-2 -15,-8 -15,-6 -40.5,-15.5 -25.5,-9.5 -60,-21.5 -34.5,-12 -73.5,-25 l -190,-65 -98,15 q -41,7 -66.5,11.5 -25.5,4.5 -40,9 -14.5,4.5 -20,8.5 -5.5,4 -5.5,12 0,6 -2,6 -1,0 -3,-2 -4,-4 -4,-12 0,-22 29,-77 13,-24 25,-50.5 12,-26.5 16,-41.5 4,-17 11,-17 8,0 19,24 11,24 26.5,37.5 15.5,13.5 50,30 34.5,16.5 93.5,37.5 59,21 152,53 42,13 79.5,25.5 37.5,12.5 66.5,22.5 29,10 47,16 18,6 21,6 1,0 1,0 6,0 16.5,-14.5 10.5,-14.5 26.5,-49.5 29,-62 38,-62 4,0 4,14 0,17 8.5,31.5 8.5,14.5 19.5,28.5 l 29,31 -3,-114 q -1,-38 -2.5,-61 -1.5,-23 -4,-38 -2.5,-15 -6.5,-24.5 -4,-9.5 -14,-22.5 -5,-7 -11.5,-16.5 -6.5,-9.5 -6.5,-11.5 0,-1 11.5,-1 11.5,0 28.5,0.5 17,0.5 37,2 20,1.5 38,2.5 18,1 30.5,2.5 12.5,1.5 13.5,2.5 0,0 0,1 0,2 -4.5,7 -4.5,5 -9.5,9 -11,10 -25.5,30 -14.5,20 -29.5,50 -5,11 -10.5,23.5 -5.5,12.5 -8.5,26 -3,13.5 -4,30.5 -1,17 -1,39 0,42 4,68 4,26 14.5,44 10.5,18 30,30.5 19.5,12.5 64.5,29.5 11,4 30,11.5 19,7.5 20,7.5 2,0 3,-17.5 1,-17.5 1,-32.5 0,-19 -1,-46 -1,-17 -2,-33.5 -1,-16.5 -3.5,-24.5 -2.5,-8 -8,-10 -5.5,-2 -12.5,-3 -6,-1 -12,-1 -7,0 -17,2 -10,2 -18,7 -8,3 -14,5 -6,2 -8,2 -2,0 -2,-1 0,0 0,-1 0,-5 8,-25 8,-20 20,-44 27,-57 35.5,-63.5 8.5,-6.5 10.5,-6.5 7,0 7,20 0,12 2.5,22.5 2.5,10.5 7.5,16.5 2,3 4,3 2,0 2.5,-6 0.5,-6 0.5,-12 0,-11 -1,-30 -2,-34 -6.5,-54 -4.5,-20 -8.5,-21 -10,-5 -10,-20 0,-8 -3,-15.5 -3,-7.5 -8,-9.5 -9,-6 -9,-12 0,-2 2,-5.5 2,-3.5 12,-3.5 2,0 5,0 2,0 3,0 14,0 21.5,-8 7.5,-8 21.5,-39 z m 255,26 q -6,0 -21.5,-2 -15.5,-2 -28.5,-4 -19,-4 -27,-4 -3,0 -5,1 -2,1 -2,4 0,4 3,11 2,7 7,24 5,17 11,34 3,16 8.5,27 5.5,11 9.5,11 3,-2 13,-17.5 10,-15.5 21,-35.5 20,-32 21,-36.5 1,-4.5 1,-5.5 0,-7 -11,-7 z m -222,6 q -5,-15 -13,-15 -6,0 -12.5,12.5 -6.5,12.5 -6.5,17.5 0,5 5.5,6 5.5,1 13.5,1 15,0 16.5,-2 1.5,-2 1.5,-3 0,-5 -5,-17 z m -173,40 h -33 q -25,0 -27.5,3 -2.5,3 -2.5,8 0,8 4,25 8,36 12,37.5 4,1.5 5,1.5 7,0 23,-31 z m 179,20 h -24 q -14,0 -18.5,4 -4.5,4 -4.5,21 0,26 5,28.5 5,2.5 6,2.5 9,0 19,-23 z m 87,28 q -22,-8 -35,-12.5 -13,-4.5 -17.5,-5 -4.5,-0.5 -5.5,-0.5 -6,0 -10,2.5 -4,2.5 -11,12.5 -19,24 -31.5,59.5 -12.5,35.5 -12.5,63.5 0,4 0,8 l 3,45 88,34 q 36,15 63,25.5 27,10.5 29,10.5 2,0 2.5,-15 0.5,-15 0.5,-27 0,-12 -0.5,-33 -0.5,-21 -2,-51 -1.5,-30 -3.5,-49 l -6,-48 z m -998,60 q -8,-9 -15.5,-15.5 -7.5,-6.5 -10.5,-6.5 -4,0 -12,14.5 -8,14.5 -16.5,32.5 -8.5,18 -13.5,31 -5,13 -5,16 0,2 1,2 1,1 6,1 6,0 24.5,-2 18.5,-2 46,-6 27.5,-4 50,-9 22.5,-5 22.5,-7 0,-2 -8,-7 -8,-5 -17,-10 -13,-6 -27,-15.5 -14,-9.5 -25,-18.5 z m 845,90 q 0,-3 -5,-11.5 -5,-8.5 -12,-15.5 l -16,-21 -11,29 q -6,15 -6,21 0,2 1.5,4.5 1.5,2.5 19.5,2.5 13,0 21,-2.5 8,-2.5 8,-6.5 z m -177,113 q -2,-6 -12.5,-22.5 -10.5,-16.5 -25.5,-33.5 l -37,-40 -14,33 q -5,14 -7.5,25 -2.5,11 -2.5,16 0,3 1,5 2,5 16,11.5 14,6.5 34,9.5 26,6 36,6 2,0 7,-0.5 5,-0.5 5,-9.5 z m -894,-47 q 13,-18 19,-31 6,-13 6,-15 0,0 0,0 -1,0 -1,0 -4,0 -30.5,22 -26.5,22 -62.5,54 l -86,77 42,7 q 21,3 29,3.5 8,0.5 11,0.5 9,0 15.5,-3 6.5,-3 10,-11 3.5,-8 5.5,-18 3,-17 14.5,-40.5 11.5,-23.5 27.5,-45.5 z m 1200,14 q -35,-14 -63,-23.5 -28,-9.5 -30,-9.5 -3,0 -5,22.5 -2,22.5 -2,50 0,27.5 2,52.5 2,25 4,29 2,4 15,11 13,7 31,15.5 18,8.5 39,18 21,9.5 40,17.5 19,8 33,13 14,5 16,5 3,0 5,-24.5 2,-24.5 2,-59.5 v -83 z m -936,216 q 0,0 0,0 0,-2 -16,-4 -16,-2 -47,-2 -16,0 -29,0.5 -13,0.5 -19,2.5 -6,2 -7.5,6 -1.5,4 -1.5,16 0,15 2.5,25.5 2.5,10.5 7,12 4.5,1.5 7.5,1.5 6,0 16.5,-4.5 10.5,-4.5 38.5,-22.5 12,-8 29,-18.5 17,-10.5 19,-12.5 z"
     id="path1" />
</svg>
