<?xml version="1.0" encoding="UTF-8" standalone="no"?>
<svg
   width="2000"
   height="2000"
   version="1.1"
   id="svg1"
   sodipodi:docname="u120FE.svg"
   inkscape:version="1.3.2 (091e20e, 2023-11-25)"
   xmlns:inkscape="http://www.inkscape.org/namespaces/inkscape"
   xmlns:sodipodi="http://sodipodi.sourceforge.net/DTD/sodipodi-0.dtd"
   xmlns="http://www.w3.org/2000/svg"
   xmlns:svg="http://www.w3.org/2000/svg">
  <defs
     id="defs1" />
  <sodipodi:namedview
     id="namedview1"
     pagecolor="#505050"
     bordercolor="#eeeeee"
     borderopacity="1"
     inkscape:showpageshadow="0"
     inkscape:pageopacity="0"
     inkscape:pagecheckerboard="0"
     inkscape:deskcolor="#505050"
     inkscape:zoom="0.379"
     inkscape:cx="1000"
     inkscape:cy="998.68074"
     inkscape:window-width="1392"
     inkscape:window-height="1212"
     inkscape:window-x="0"
     inkscape:window-y="0"
     inkscape:window-maximized="0"
     inkscape:current-layer="svg1" />
  <path
     d="m 1083.5,651.5 q 2,-5 6,-5.5 4,-0.5 5,-0.5 5,0 5,5 0,5 -7,15.5 -7,10.5 -18,21.5 -20,23 -32.5,39 -12.5,16 -19.5,28 -7,12 -8.5,20.5 -1.5,8.5 -1.5,16.5 0,4 0,8 2,14 5.5,18 3.5,4 10.5,4 4,0 8,-1 9,0 22.5,-9 13.5,-9 26,-22 12.5,-13 22,-27 9.5,-14 14.5,-38 4,-17 6.5,-19 2.5,-2 2.5,-2 4,0 7,17 2,11 6,23.5 4,12.5 10,22.5 7,12 21,29 14,17 32,33.5 18,16.5 38.5,32 20.5,15.5 45.5,30.5 16,10 43.5,27 27.5,17 44.5,28 17,11 33.5,21 16.5,10 22.5,12 9,4 9,9 0,2 -2.5,6.5 -2.5,4.5 -12.5,4.5 -9,0 -29.5,7 -20.5,7 -37.5,13 -18,7 -35,14 -17,7 -36.5,14.5 -19.5,7.5 -39.5,15 -20,7.5 -39,13.5 -17,6 -36,13.5 -19,7.5 -36,14.5 -17,7 -31.5,13 -14.5,6 -23.5,11 -22,10 -50.5,29 -28.5,19 -54,38.5 -25.5,19.5 -44.5,36 -19,16.5 -22,29.5 -3,10 -11,10 -5,0 -5,-6 0,-3 2,-9 3,-10 5,-27.5 2,-17.5 2,-34.5 0,-6 0,-11 0,-17 -3,-29 -3,-12 -14,-26 l -16,-23 47,4 q 10,1 21,1 12,0 32.5,-1.5 20.5,-1.5 53,-6 32.5,-4.5 68,-12 35.5,-7.5 61.5,-14.5 35,-9 75,-23 40,-14 77.5,-28.5 37.5,-14.5 65,-26 27.5,-11.5 27.5,-15.5 0,-5 -22.5,-20.5 -22.5,-15.5 -54.5,-33.5 -32,-18 -67,-34.5 -35,-16.5 -59,-23.5 l -41,-13 -20,23 q -47,56 -47,134 0,1 0,3 0,20 -2,34.5 -2,14.5 -5,14.5 -2,0 -4.5,-18.5 -2.5,-18.5 -2.5,-44.5 0,-50 -10,-79.5 -10,-29.5 -33,-43.5 -7,-5 -12,-5 -3,0 -6.5,2.5 -3.5,2.5 -20.5,26.5 -16,25 -16,39 0,6 3,10 2,3 2,5 0,2 -1,3 0,1 0,2 0,3 6,9 6,6 20,17 21,15 31.5,26.5 10.5,11.5 10.5,16.5 0,2 -1,3 0,1 -1,1 -2,0 -6.5,-3.5 -4.5,-3.5 -12.5,-9.5 -60,-54 -124,-62 l -44,-5 28,-16 q 14,-8 35.5,-24 21.5,-16 42,-32 20.5,-16 35,-28.5 14.5,-12.5 14.5,-17.5 0,-5 -14.5,-11.5 -14.5,-6.5 -37.5,-11.5 -23,-5 -51.5,-8 -28.5,-3 -47,-3.5 -18.5,-0.5 -27.5,-0.5 -18,0 -38,1.5 -20,1.5 -37,7.5 -12,5 -26.5,14 -14.5,9 -23.5,18 -10,10 -10,17 0,15 43,15 11,0 26,-1 13,-1 22,-1 21,0 21,5 0,3 -7,7 -10,7 -17.5,20 -7.5,13 -14.5,30.5 -7,17.5 -12.5,37 -5.5,19.5 -8.5,35.5 -3,16 -3,26 0,2 0.5,9 0.5,7 4.5,10 5,2 38,5 33,3 78,5 21,1 40.5,2 19.5,1 33.5,2 14,1 21.5,1.5 7.5,0.5 7.5,0.5 0,0 0,0 -1,2 -28.5,3.5 -27.5,1.5 -50.5,2.5 -84,3 -139.5,13 -55.5,10 -94.5,26 -19,8 -20,10 -1,2 -1,3 0,3 5,6 9,5 21,5.5 12,0.5 19,0.5 14,0 32,-1 18,-2 33,-2 15,0 15,2 0,2 -5.5,7.5 -5.5,5.5 -11.5,9.5 -28,22 -43,60.5 -15,38.5 -15,87.5 0,19 -2,34 -2,15 -5,15 -4,0 -6,-20.5 -2,-20.5 -2,-49.5 0,-63 -10,-92 -10,-29 -36,-42 -8,-5 -15,-5 -4,0 -10.5,4 -6.5,4 -16.5,29 -10,21 -17,21 -1,0 -3,-0.5 -2,-0.5 -2,-5.5 0,-6 3,-15 6,-16 8,-33.5 2,-17.5 2,-32.5 0,-6 -0.5,-20 -0.5,-14 -4,-32 -3.5,-18 -13.5,-33 -2,-3 -4,-6.5 -2,-3.5 -2,-4.5 0,-1 1,-1.5 1,-0.5 2,-0.5 3,0 12.5,3 9.5,3 21.5,7 12,4 15,4 1,0 2.5,-0.5 1.5,-0.5 3,-6.5 1.5,-6 2,-19.5 0.5,-13.5 0.5,-31.5 0,-45 -3.5,-65.5 -3.5,-20.5 -13.5,-41.5 -6,-12 -13.5,-22.5 -7.5,-10.5 -18.5,-15.5 -6,-2 -6,-4 0,-2 7.5,-4 7.5,-2 24.5,-2 11,0 26,1 17,1 29,1 6,0 15.5,-0.5 9.5,-0.5 16.5,-6 7,-5.5 7.5,-11 0.5,-5.5 0.5,-6.5 0,-10 -5,-27 -4,-17 -4,-24 0,-4 1,-6 0,0 1,0 2,0 9.5,4 7.5,4 14.5,9 15,10 34,16.5 19,6.5 43,11.5 24,5 50.5,8 26.5,3 46.5,3 15,0 24,-2 9,-2 21,-8.5 12,-6.5 29,-18.5 17,-12 39,-29 39,-29 63.5,-50 24.5,-21 27.5,-29 z m -83,110 q 4,-10 4,-14 0,-3 -1,-3.5 -1,-0.5 -1,-0.5 -6,0 -27,18 -25,21 -25.5,24.5 -0.5,3.5 -0.5,4.5 0,4 11,4 4,0 8,0 19,-3 32,-33 z m 176,60 q -10,-13 -21,-26 -11,-13 -16,-20 l -13,-16 -46,63 57,16 q 23,7 39,10.5 16,3.5 19,3.5 1,0 1,0 0,0 0,-1 0,-3 -5.5,-11 -5.5,-8 -14.5,-19 z m -439,-38 q -14,-5 -24.5,-7.5 -10.5,-2.5 -11.5,-2.5 -1,0 -1.5,7.5 -0.5,7.5 -0.5,16.5 0,13 1,20.5 1,7.5 3,7.5 2,0 12.5,-4.5 10.5,-4.5 23.5,-10.5 l 32,-17 z m -91,57 q 0,-3 -5,-5 -5,-2 -13,-2 -17,0 -18,4.5 -1,4.5 -1,6.5 0,8 11,27 l 10,19 8,-22 q 4,-9 6,-17 2,-8 2,-11 z m 36,26 q 1,-13 1,-21 0,-9 -1,-10 -1,-1 -2,-1 -3,0 -12,14 -18,27 -27.5,65 -9.5,38 -9.5,79 v 51 l 27,5 q 11,2 26,4 15,2 26,4 l 25,4 6,-49 q 2,-18 2,-33 0,-55 -26,-79 -7,-6 -13,-8 -6,-2 -10,-2 -3,0 -6,1 -2,1 -4,1 -2,0 -2.5,-2 -0.5,-2 -0.5,-5 0,-6 1,-18 z m 445,-17 q -10,-4 -21.5,-6 -11.5,-2 -21.5,-2 -10,0 -16.5,1.5 -6.5,1.5 -6.5,6.5 0,10 15.5,14 15.5,4 26.5,4 10,0 20,-2 l 25,-7 z m -81,10 q 0,-3 -3,-3 -4,0 -4,3 0,4 4,4 3,0 3,-4 z m 61,32 q 0,-3 -5.5,-3.5 -5.5,-0.5 -13.5,-0.5 -17,2 -17.5,4.5 -0.5,2.5 -0.5,2.5 0,5 10,18 7,11 9,11 0,0 1.5,-0.5 1.5,-0.5 7.5,-12.5 9,-14 9,-19 z m -332,8 q 0,-3 -5.5,-4.5 -5.5,-1.5 -13.5,-1.5 -16,0 -17,3 -1,3 -1,4 0,6 10,20 7,10 9,10 0,0 1.5,-0.5 1.5,-0.5 7.5,-12.5 9,-14 9,-18 z m 189,26 q 2,-6 2,-10 0,-4 -3,-4 -7,0 -28,18 -13,10 -13.5,11.5 -0.5,1.5 -0.5,2.5 0,2 9,5 5,1 9,1 8,0 14,-5 6,-5 11,-19 z m -292,139 q -21,-2 -40,-5.5 -19,-3.5 -24,-7.5 -5,-2 -8,-2 -3,0 -4.5,4 -1.5,4 -1.5,28 0,22 2,34 2,12 4,12 2,0 12.5,-4.5 10.5,-4.5 23.5,-9.5 12,-6 30,-13 18,-7 31,-10 13,-5 21,-9.5 8,-4.5 8,-6.5 0,0 0,0 -2,-2 -17.5,-5 -15.5,-3 -36.5,-5 z m 386,58 q 10,-6 10,-7 0,0 -0.5,-0.5 -0.5,-0.5 -5.5,-0.5 -3,0 -8,0 -8,0 -20,2 -12,2 -18,3 -13,3 -31.5,5 -18.5,2 -35.5,2 -26,1 -31,3 -5,2 -5,7 0,2 1,5 2,5 4.5,17 2.5,12 4.5,25 2,10 4,18.5 2,8.5 3,8.5 1,0 18,-11.5 17,-11.5 40,-28.5 23,-16 44,-30 21,-14 26,-18 z m -335,35 h -28 q -23,0 -23,9 0,1 1,3 1,2 3.5,8.5 2.5,6.5 3.5,9.5 5,13 12,13 8,0 19,-20 z"
     id="path1" />
</svg>
