<?xml version="1.0" encoding="UTF-8" standalone="no"?>
<svg
   width="2000"
   height="2000"
   version="1.1"
   id="svg1"
   sodipodi:docname="u12084.svg"
   inkscape:version="1.3.2 (091e20e, 2023-11-25)"
   xmlns:inkscape="http://www.inkscape.org/namespaces/inkscape"
   xmlns:sodipodi="http://sodipodi.sourceforge.net/DTD/sodipodi-0.dtd"
   xmlns="http://www.w3.org/2000/svg"
   xmlns:svg="http://www.w3.org/2000/svg">
  <defs
     id="defs1" />
  <sodipodi:namedview
     id="namedview1"
     pagecolor="#505050"
     bordercolor="#eeeeee"
     borderopacity="1"
     inkscape:showpageshadow="0"
     inkscape:pageopacity="0"
     inkscape:pagecheckerboard="0"
     inkscape:deskcolor="#505050"
     inkscape:zoom="0.379"
     inkscape:cx="1000"
     inkscape:cy="998.68074"
     inkscape:window-width="1392"
     inkscape:window-height="1212"
     inkscape:window-x="0"
     inkscape:window-y="0"
     inkscape:window-maximized="0"
     inkscape:current-layer="svg1" />
  <path
     d="m 592.5,648 q 0,-3 8,-3 8,0 19,2 14,2 39,3.5 25,1.5 46,2.5 23,0 40.5,2 17.5,2 21.5,6 1,1 1,2 0,2 -6,2 -9,0 -20,4.5 -11,4.5 -22,11.5 -11,7 -20.5,15.5 -9.5,8.5 -16.5,17.5 -5,8 -8.5,15.5 -3.5,7.5 -5.5,19.5 -2,12 -2.5,30.5 -0.5,18.5 -0.5,44.5 0,44 1.5,70 1.5,26 6.5,26 3,0 13.5,-5.5 10.5,-5.5 22,-13.5 11.5,-8 21,-17 9.5,-9 17.5,-26 4,-8 10,-21.5 6,-13.5 9,-26 3,-12.5 3.5,-28 0.5,-15.5 0.5,-35.5 0,-50 2.5,-59.5 2.5,-9.5 4.5,-9.5 2,0 5,9 5,14 14,21.5 9,7.5 21.5,14 12.5,6.5 27.5,12 15,5.5 30,7.5 11,2 19,2 9,0 11,-2.5 2,-2.5 2,-4.5 0,-7 -12,-19 -7,-8 -8.5,-12 -1.5,-4 -1.5,-6 0,-2 1,-3 2,-2 27.5,-3 25.5,-1 62.5,-1.5 37,-0.5 69,-1 32,-0.5 52,-0.5 19,0 46.5,0.5 27.5,0.5 52,1 24.5,0.5 24.5,5.5 0,3 -4,3 -4,0 -9,6 -5,6 -10,14.5 -5,8.5 -9,16 -4,7.5 -4,9.5 0,3 29.5,4 29.5,1 72.5,1 h 104 l -5,-19 q -13,-47 -60,-63 -16,-5 -16,-9 0,-5 28,-6.5 28,-1.5 66,-1.5 44,0 73,2 29,2 29,7 0,3 -8,3 -9,0 -20,5.5 -11,5.5 -23,13.5 -12,8 -22.5,17.5 -10.5,9.5 -15.5,16.5 -6,9 -9.5,24.5 -3.5,15.5 -3.5,32.5 v 37 l 53,-1 q 16,-1 27,-1 8,0 17,1 9,1 11,7 0,1 0,2 0,6 -13,6 -14,0 -26.5,8 -12.5,8 -32.5,28 l -36,36 -1,127 q -1,56 -2,82.5 -1,26.5 -3,26.5 0,0 -1,-2 -2,-7 -3.5,-34 -1.5,-27 -2.5,-59 l -2,-74 h -219 l -3,105 -3,-52 -1,-53 h -66 v 47 q 0,20 -2,34 -2,14 -6,14 -3,0 -5,-14 -2,-14 -2,-34 v -47 h -72 v 51 q 0,25 -2,36.5 -2,11.5 -5,11.5 0,0 -1,0 -3,-2 -5,-18 -2,-16 -2,-40 0,-25 -1.5,-31.5 -1.5,-6.5 -6.5,-6.5 -2,0 -5,1 -4,1 -12.5,3.5 -8.5,2.5 -15.5,4.5 -12,2 -15,9.5 -3,7.5 -3,31.5 0,19 -2,30.5 -2,11.5 -5,11.5 -2,0 -5,-9.5 -3,-9.5 -3,-24.5 0,-13 -2,-22.5 -2,-9.5 -5,-9.5 -4,0 -15,7.5 -11,7.5 -22,17 -11,9.5 -20.5,19.5 -9.5,10 -11.5,18 -2,4 -2,8 0,3 2,8 2,5 12,15 7,8 13,12 6,4 15,6 9,2 24.5,3 15.5,1 37.5,1 31,0 53,2 22,2 23,6 1,1 1,1 0,2 -3,3.5 -3,1.5 -8,2.5 -9,2 -23,10.5 -14,8.5 -28,21.5 l -33,30 -2,96 q -1,62 -1.5,67.5 -0.5,5.5 -0.5,5.5 -1,0 -3,-19 -3,-25 -5,-55.5 -2,-30.5 -2,-54.5 0,-17 -1,-29 -1,-12 -3.5,-20 -2.5,-8 -8,-15 -5.5,-7 -12.5,-15 -13,-14 -23.5,-21.5 -10.5,-7.5 -19.5,-7.5 -7,0 -7,-4 0,-1 1,-3 1,-2 1,-4 0,-8 -13.5,-25.5 -13.5,-17.5 -35,-41 -21.5,-23.5 -44,-45 -22.5,-21.5 -36.5,-30.5 -11,-7 -21.5,-10 -10.5,-3 -17.5,-3 -1,0 -3,0 l -18,1 15,41 q 5,13 12,25 7,12 20,28 13,16 34,38.5 21,22.5 49,50.5 27,27 45.5,47 18.5,20 32,35 13.5,15 20,23.5 6.5,8.5 6.5,10.5 0,0 0,0 0,0 0,0 -2,0 -10.5,-6 -8.5,-6 -22.5,-18.5 -14,-12.5 -31.5,-29.5 -17.5,-17 -37.5,-36 -54,-55 -92,-90.5 -38,-35.5 -67,-56 -29,-20.5 -52,-28.5 -23,-8 -50,-8 -12,0 -23.5,-1.5 -11.5,-1.5 -11.5,-3.5 0,-2 13,-8 13,-6 35,-15 36,-15 60.5,-29 24.5,-14 38,-31.5 13.5,-17.5 17.5,-41 4,-23.5 4,-58.5 -1,-54 -9,-81.5 -8,-27.5 -35,-43.5 -6,-4 -13,-9.5 -7,-5.5 -7,-8.5 z m 93,23 q -4,-2 -11.5,-4 -7.5,-2 -15.5,-2 -10,0 -10.5,1.5 -0.5,1.5 -0.5,1.5 0,4 8,20 l 12,24 13,-18 q 9,-10 9,-16 0,-4 -4,-7 z m 754,2 h -33 q -23,0 -25.5,1.5 -2.5,1.5 -2.5,3.5 0,4 3,11 4,10 9,15 5,5 7,5 2,0 9,-5 7,-5 15,-13 z m -334,53 q 1,-5 1,-8 0,-4 -2,-6.5 -2,-2.5 -13,-2.5 -11,0 -12,1.5 -1,1.5 -1,2.5 0,4 4,14 7,14 13,14 6,0 10,-15 z m -163,-1 q 4,-9 4,-12 0,-1 -0.5,-2.5 -0.5,-1.5 -11.5,-1.5 -18,0 -18,9 0,2 1,5 1,3 2,8.5 1,5.5 1,8.5 0,6 3,6 2,0 6.5,-2.5 4.5,-2.5 12.5,-18.5 z m 73,2 q 4,-10 4,-14 0,-1 -1,-2.5 -1,-1.5 -12,-1.5 -11,0 -13,2 -2,2 -2,6 0,3 1,9 4,15 10,15 6,0 13,-14 z m 169,-14 q 0,-1 -4.5,-2.5 -4.5,-1.5 -10.5,-1.5 -11,0 -12,4.5 -1,4.5 -1,6.5 0,6 6,16 4,6 6,6 2,0 8,-10 3,-6 5.5,-11.5 2.5,-5.5 2.5,-7.5 z m -117,9 q -8,-12 -16,-12 -11,0 -22,22 -5,11 -5,15 0,1 1,3 1,2 19,2 24,0 26.5,-4 2.5,-4 2.5,-7 0,-7 -6,-19 z m -87,11 q -8,-16 -11.5,-16.5 -3.5,-0.5 -4.5,-0.5 -6,0 -9,12 -4,11 -4,16 0,2 1.5,5 1.5,3 17.5,3 13,0 14,-2 1,-2 1,-3 0,-4 -5,-14 z m 163,-2 q -5,-13 -11,-13 -7,0 -16,17 -5,9 -5,12 0,1 1,3 1,2 15,2 16,0 17.5,-3 1.5,-3 1.5,-5 0,-5 -3,-13 z m -272,26 q -13,-2 -29,-7.5 -16,-5.5 -27,-10.5 -11,-5 -18,-7.5 -7,-2.5 -9,-2.5 -2,0 -3,1 -2,1 -3,14.5 -1,13.5 -1,31.5 v 42 l 19,-12 q 7,-5 24.5,-12.5 17.5,-7.5 34.5,-15.5 l 40,-17 z m 210,10 h -33 q -15,0 -23,2.5 -8,2.5 -11.5,13 -3.5,10.5 -4,25 -0.5,14.5 -0.5,23.5 0,18 1,43 l 2,73 69,3 z m 73,0 h -25 q -12,0 -19,3 -7,3 -10.5,13.5 -3.5,10.5 -3.5,32 0,21.5 1,58.5 l 3,73 54,3 z m 234,0 h -211 l -5,24 q -2,9 -2,35.5 0,26.5 1,54.5 l 1,66 h 107 q 45,0 69,-1 24,-1 32.5,-5.5 8.5,-4.5 8.5,-13.5 0,-1 -1,-7.5 -1,-6.5 -5,-20.5 -9,-34 -23.5,-50.5 -14.5,-16.5 -37.5,-19.5 -22,-5 -22,-9 0,-2 5,-5.5 5,-3.5 40,-3.5 h 43 z m -399,5 -22,-3 q -4,-1 -9,-1 -4,0 -11,1.5 -7,1.5 -9,4.5 -2,4 -3,24.5 -1,20.5 -1,38.5 0,9 0.5,28 0.5,19 2,43.5 1.5,24.5 3.5,28.5 1,2 9.5,4 8.5,2 18.5,2 h 26 z m -69,90 q 0,-32 -1,-50 -1,-18 -5,-24 -4,-6 -11,-6 -2,0 -7.5,1 -5.5,1 -20.5,6 -18,6 -35,14.5 -17,8.5 -31.5,17 -14.5,8.5 -24,16 -9.5,7.5 -9.5,16.5 0,6 -2.5,11 -2.5,5 -11.5,14 -5,8 -6.5,14 -1.5,6 -1.5,11 0,7 2,17 3,14 8.5,30.5 5.5,16.5 12.5,32 7,15.5 15,28.5 8,13 15,20 l 18,15 9,-16 q 5,-8 7,-31.5 2,-23.5 2,-52.5 2,-29 3,-49 1,-20 3,-20 2,0 7,4.5 5,4.5 9,13.5 7,14 19.5,23.5 12.5,9.5 23.5,9.5 5,0 7.5,-2 2.5,-2 3.5,-9 1,-7 1.5,-20 0.5,-13 0.5,-35 z m 519,-32 q 0,-1 -10,-2.5 -10,-1.5 -26,-1.5 -28,0 -32,3.5 -4,3.5 -4,5.5 0,4 9,12 7,5 9.5,10.5 2.5,5.5 2.5,9.5 0,4 3,7 3,3 5,3 3,0 10.5,-6 7.5,-6 14.5,-13.5 7,-7.5 12.5,-15.5 5.5,-8 5.5,-12 z m -691,119 q -7,-35 -11.5,-37 -4.5,-2 -6.5,-2 -8,0 -24,10 l -20,14 30,18 q 14,8 23.5,13 9.5,5 11.5,5 0,-5 -3,-21 z m -106,14 q -5,-22 -9,-32.5 -4,-10.5 -5,-10.5 -2,2 -14,7.5 -12,5.5 -27,13.5 l -36,20 53,27 q 32,16 39,18 7,2 8,2 3,0 3,-2 0,-1 -1,-3 -2,-5 -5.5,-18.5 -3.5,-13.5 -5.5,-21.5 z m 278,-1 q 0,-3 -8.5,-10 -8.5,-7 -19.5,-14 l -29,-15 -4,41 q -2,16 -2.5,24.5 -0.5,8.5 -0.5,11.5 0,6 1,7 0,0 1,0 3,0 12,-5 9,-5 20.5,-13 11.5,-8 20.5,-16 9,-8 9,-11 z m 27,0 q 1,-1 1,-2 0,-2 -5,-2 -6,0 -6,2 0,1 1,2 2,2 4,2 3,0 5,-2 z m 20,164 h -30 q -23,0 -24.5,1.5 -1.5,1.5 -1.5,3.5 0,4 3,12 4,9 8,14 4,5 6,5 2,0 8,-5 6,-5 14,-13 z"
     id="path1" />
</svg>
