<?xml version="1.0" encoding="UTF-8" standalone="no"?>
<svg
   width="2000"
   height="2000"
   version="1.1"
   id="svg1"
   sodipodi:docname="u1208D.svg"
   inkscape:version="1.3.2 (091e20e, 2023-11-25)"
   xmlns:inkscape="http://www.inkscape.org/namespaces/inkscape"
   xmlns:sodipodi="http://sodipodi.sourceforge.net/DTD/sodipodi-0.dtd"
   xmlns="http://www.w3.org/2000/svg"
   xmlns:svg="http://www.w3.org/2000/svg">
  <defs
     id="defs1" />
  <sodipodi:namedview
     id="namedview1"
     pagecolor="#505050"
     bordercolor="#eeeeee"
     borderopacity="1"
     inkscape:showpageshadow="0"
     inkscape:pageopacity="0"
     inkscape:pagecheckerboard="0"
     inkscape:deskcolor="#505050"
     inkscape:zoom="0.379"
     inkscape:cx="1000"
     inkscape:cy="998.68074"
     inkscape:window-width="1392"
     inkscape:window-height="1212"
     inkscape:window-x="0"
     inkscape:window-y="0"
     inkscape:window-maximized="0"
     inkscape:current-layer="svg1" />
  <path
     d="m 638.5,845.5 q -5,2 -9,2 -3,0 -6,-1 -11,-3 -11,-15 0,-1 1,-9.5 1,-8.5 4,-24.5 4,-21 5,-36.5 1,-15.5 1,-23.5 0,-15 -2,-29 -2,-11 -2,-18 0,-19 11,-19 8,0 21,10 15,12 39,22 24,10 47,17 24,8 44,11.5 20,3.5 55.5,6.5 35.5,3 94,4.5 58.5,1.5 152.5,3.5 h 287 q 0,-3 -10,-19 -10,-16 -20,-35 -11,-20 -17.5,-35 -6.5,-15 -6.5,-18 0,-2 4,-2 1,0 5,0.5 4,0.5 10,1.5 12,5 45,5.5 33,0.5 105,0.5 h 1 q 0,1 0,1 1,0 1,-1 h 2 q 0,0 1,0 h 1 q 0,0 0,0 h 1 q 1,0 1,0 h 1 q 1,0 2,0 h 13 q 1,0 2,0 h 6 q 27,0 27,3 0,3 -8,11 l -13,13 q -14,15 -29,40.5 -15,25.5 -21,42.5 -7,16 -16,48.5 -9,32.5 -12,56.5 v 121 q 0,4 0,7 v 4 q 0,2 0,3 v 8 q 0,2 0,3 v 9 q 0,1 0,3 v 3 q 0,1 0,3 v 40 q 0,2 0,4 v 8 q 0,55 -1,104 -1,49 -1.5,85.5 -0.5,36.5 -2,57.5 -1.5,21 -3.5,21 -1,0 -2,-7.5 -1,-7.5 -2.5,-18 -1.5,-10.5 -2,-21.5 -0.5,-11 -0.5,-19 0,-9 -1,-20 -1,-11 -1,-22 -1,-12 -1,-24 l -287,-1 h -7 q -4,0 -8,0 h -36 q -10,0 -20,0 h -120 q -3,0 -5,0 h -8 q -82,0 -97,3 l -62,10 v 69 q 0,30 -2,49.5 -2,19.5 -7,19.5 -4,0 -7,-18.5 -3,-18.5 -3,-47.5 v -69 l -47,9 v 38 q 0,34 -9,34 -9,0 -9,-34 v -35 q -4,2 -10,3 -6,2 -15,3 -18,5 -52.5,14 -34.5,9 -69.5,21 -34,12 -55,17 -21,5 -29,5 -4,0 -6,-1 -1,-1 -1,-2 0,-3 6,-9 18,-22 18,-109 -1,-20 -1,-36 0,-13 1,-30 1,-17 6,-17 1,0 8,4 7,4 14,10 l 39,19 v -178 q 0,-26 -6.5,-53.5 -6.5,-27.5 -16.5,-52.5 -10,-25 -18,-45 -8,-20 -11,-29 1,-10 12,-10 2,0 12,2 10,2 19,3 18,3 32,3 11,0 20,-2 9,-2 14,-2 4,0 5,1 1,1 1,3 0,4 -6.5,17 -6.5,13 -12.5,30 -18,46 -22,92.5 -4,46.5 -4,90.5 l -1,136 q 1,2 8,5 7,3 14.5,6.5 7.5,3.5 15,6.5 7.5,3 8.5,3 l 27,8 v -222 q 0,-21 -3,-35.5 -3,-14.5 -9,-27.5 l -7,-15 q -1,-2 -1,-4 0,-4 6,-4 2,0 9.5,1 7.5,1 16.5,1 6,0 15,-1 6,0 12,0 v -2 q -1,-6 -5,-11 -4,-5 -4,-8 0,-3 3,-5 3,-2 5.5,-2 2.5,0 12.5,3 15,3 24,6 9,3 22.5,5.5 13.5,2.5 40.5,3 27,0.5 83,0.5 91,2 91,3 0,11 -135,11 h -1 q 0,0 0,0 h -2 q -1,0 -2,0 -1,0 -1,0 h -1 q 0,0 0,0 h -1 q -1,0 -1,0 h -19 q -23,0 -37,1.5 -14,1.5 -27,5 -13,3.5 -34,11.5 -9,4 -15,5 -1,0 -1,0 -1,0 -2,-1 -3,8 -6,16 -9,26 -9,40 v 76 l -1,154 40,10 -1,-141 v -42 q 0,-33 -9,-57 -3,-9 -8,-19 -5,-10 -5,-13 0,-4 4,-4 2,0 4,1 3,0 9,1 6,1 14,1 7,0 15,-1 2,0 5,0 l 1,-4 q -1,-7 -2,-13 v -1 q -1,-2 -1,-4 0,-5 2,-5 1,0 2,1 l 12,3 q 20,4 28,6.5 8,2.5 21,4 13,1.5 40,1.5 0,0 1,0 h 2 q 2,0 5,0 h 1 q 1,0 2,0 h 6 q 1,0 2,0 h 2 q 1,0 2,0 h 3 q 3,0 7,0 h 33 q 2,0 4,0 h 4 q 1,0 3,0 h 5 q 92,1 92,3 0,10 -136,10 -1,0 -2,0 -1,0 -2,0 h -1 q 0,0 -1,0 h -2 q 0,0 0,0 h -11 q -2,0 -3,0 h -5 q -23,0 -37.5,1.5 -14.5,1.5 -27,5.5 -12.5,4 -33.5,11 -9,5 -15,6 -1,0 -2,0 -1,3 -2,6 -7,17 -7,38 v 208 l 47,8 v -120 q 0,-19 -1.5,-36.5 -1.5,-17.5 -5.5,-33.5 -4,-20 -9,-27 -2,-6 -4,-9 -2,-4 -2,-7 0,-2 2,-2 1,0 4.5,0.5 3.5,0.5 21.5,0.5 17,0 25,-1 -2,-3 -4,-7 -2,-3 -2,-6 0,-3 2,-5 2,-3 3,-3.5 1,-0.5 2,-0.5 3,0 15,3 15,4 23.5,7 8.5,3 22.5,4.5 14,1.5 41,2.5 27,1 81,2 51,1 74.5,1 23.5,0 23.5,4 0,4 -24,6.5 -24,2.5 -88,2.5 -31,0 -45.5,-0.5 -14.5,-0.5 -20.5,-0.5 -16,0 -29,1.5 -13,1.5 -25.5,5.5 -12.5,4 -34.5,12 -8,5 -14,6 -1,0 -1,0 -2,0 -3,-2 -2,5 -3,10 -3,15 -4,28 -1,13 -1,25 l -1,140 h 329 l 319,2 v -2 q 0,0 0,0 v -1 q 0,-1 0,-1 0,-1 0,-1 v -1 q 0,0 0,0 v -1 q 0,-1 0,-1 v -9 q 0,0 0,0 v -4 q 0,0 0,0 v -1 q 0,0 0,-1 0,0 0,-1 0,0 0,-1 0,0 0,-1 v -7 q 0,-1 0,-1 v -2 q 0,-9 -1,-15 -2,-24 -2.5,-64 -0.5,-40 -0.5,-76 -2,-24 -2,-43 -1,-17 -1,-31 0,-14 -2,-16 h -175 l -35,14 q -22,10 -32,14 -10,4 -15,4 -2,0 -5,-1 -3,-1 -3,-8 v -1 q 0,0 0,-1 v -2 q 0,0 0,0 v -1 q 0,0 0,0 v -16 q 0,-32 1.5,-38.5 1.5,-6.5 5.5,-6.5 8,0 27,10 15,9 26.5,12 11.5,3 25,4.5 13.5,1.5 31.5,1.5 h 1 q 2,0 4,0 h 3 q 0,0 1,0 h 1 q 1,0 1,0 h 4 q 1,0 1,0 h 4 q 0,0 1,0 h 1 q 1,0 2,0 h 12 q 1,0 2,0 h 3 q 0,0 1,0 h 105 q 0,0 0,-1 0,-5 -5.5,-27.5 -5.5,-22.5 -15.5,-52.5 l -18,-55 h -330 q -46,-1 -77,-1 -16,0 -39.5,0.5 -23.5,0.5 -43,2.5 -19.5,2 -31.5,6.5 -12,4.5 -36,9.5 -49,12 -90.5,23 -41.5,11 -84.5,37 z m 855,-173 q 0,0 0,-1 0,-2 -19,-3.5 -19,-1.5 -46,-1.5 -19,0 -32.5,-0.5 -13.5,-0.5 -24.5,-0.5 -12,0 -22,-2 4,8 9,17 3,7 7.5,15.5 4.5,8.5 7.5,14.5 9,13 17,36.5 8,23.5 14,42.5 3,12 7,22.5 4,10.5 7,18.5 4,9 7,18 l 8,-32 q 16,-69 60,-144 z m -722,77 q -24,-5 -50,-14 -26,-9 -49,-21 -6,-3 -18,-9.5 -12,-6.5 -13,-6.5 0,3 0.5,14.5 0.5,11.5 0.5,17.5 0,13 -1,28 -2,18 -3.5,30 -1.5,12 -1.5,16 0,7 2,8 0,0 1,0 6,0 34.5,-10 28.5,-10 84.5,-23 l 73,-18 z m -253,39 q 1,5 3,10 3,7 6,14 3,9 6,18 l 1,1 q 1,3 2,5 4,12 9.5,27 5.5,15 9.5,27 8,-36 12.5,-54 4.5,-18 16.5,-45 -5,1 -10,1 -2,0 -6,-0.5 -4,-0.5 -13,-0.5 -9,0 -18,-1 -9,-1 -19,-2 z m 159,55 q 0,1 0,1 0,0 0,0 l 1,1 q 0,0 0,0 0,0 0,0 l 1,1 q 0,0 0,0 0,0 1,0 0,2 0.5,4 0.5,2 0.5,5 0,3 -0.5,6 -0.5,3 -0.5,6 -2,3 -3,5 l 54,-17 z m -44,29 q 3,9 7.5,26 4.5,17 6.5,26 4,-16 7,-28 3,-12 11,-24 -11,0 -14.5,1 -3.5,1 -5.5,1 -5,0 -12,-2 z m 531,18 v 42 l 48,-23 z m -435,3 q 2,1 2,3 0,1 0.5,2.5 0.5,1.5 0.5,2.5 0,2 -1,4 0,4 -3,10 0,2 -2,3 l 54,-16 z m -43,24 q 9,19 15,55 1,-13 5,-28 4,-15 8,-27 -4,0 -6.5,0.5 -2.5,0.5 -6.5,0.5 -5,0 -8,-0.5 -3,-0.5 -7,-0.5 z m 109,32 q 0,0 0,0 0,0 0,0 l 1,1 q 0,0 0,0 l 1,1 q 0,0 0,0 0,0 0,0 0,2 0.5,4 0.5,2 0.5,6 0,4 -0.5,7 -0.5,3 -0.5,5 0,0 0,1 -1,1 -1,1 0,1 -1,1 0,1 0,1 l 54,-16 z m 357,14 q 2,-2 5,-2 3,0 9.5,2 6.5,2 23.5,9 15,8 27,11.5 12,3.5 23,5 11,1.5 22,1.5 4,0 14,-0.5 10,-0.5 44,-0.5 36,0 66,0.5 30,0.5 30,3.5 0,5 -24.5,8 -24.5,3 -69.5,3 -24,0 -58,0.5 -34,0.5 -68,14.5 -22,10 -33,10 -3,0 -9,-1.5 -6,-1.5 -6,-32.5 0,-9 0.5,-19 0.5,-10 3.5,-13 z m -384,59 q 3,-14 5.5,-26 2.5,-12 8.5,-26 -7,0 -15,0 -7,0 -15,0 7,14 9.5,26 2.5,12 6.5,26 z m 393,-45 v 40 q 3,-3 11.5,-6 8.5,-3 17.5,-6 9,-4 21,-9 z m -12,111 q 0,-30 3,-34.5 3,-4.5 7,-4.5 7,0 25,10 31,18 66.5,20.5 35.5,2.5 84.5,2.5 44,0 64,1.5 20,1.5 20,4.5 0,1 0,1 -1,2 -6.5,3.5 -5.5,1.5 -19.5,2 -14,0.5 -39,0.5 h -2 q -1,0 -1,0 h -3 q -2,0 -4,0 h -5 q -1,0 -2,0 h -2 q -1,0 -2,0 h -2 q -1,0 -1,0 h -41 q -9,0 -17,0 -28,0 -44,3 -16,3 -43,15 -21,11 -28,11 -1,0 -4.5,-1 -3.5,-1 -3.5,-35 z m 14,-21 v 42 l 48,-23 z m -593,97 q -19,-7 -31,-12.5 -12,-5.5 -26,-9.5 -6,-3 -15,-6 -1,0 -1,19 v 2 q 0,0 0,1 v 3 q 0,1 0,2 v 1 q 0,1 0,2 v 1 q 0,1 0,1 v 4 q 0,1 0,2 v 18 q 0,2 0,3 v 5 q 0,1 0,2 0,9 0,18 0,48 10,48 5,0 24.5,-5.5 19.5,-5.5 37.5,-11.5 15,-4 25.5,-6.5 10.5,-2.5 25.5,-6.5 6,-2 16,-5 v -46 q 0,0 -1,0 0,0 -1,0 0,0 0,-1 -1,0 -1,0 -1,0 -1,0 0,0 -1,0 0,0 -1,0 0,0 -1,-1 0,0 -1,0 0,0 -1,0 0,0 -1,0 0,0 -1,-1 0,0 0,0 -1,0 -1,0 -12,-3 -25.5,-8.5 -13.5,-5.5 -28.5,-11.5 z m 83,27 v 38 l 40,-9 v -18 z m 58,14 v 12 l 47,-6 z"
     id="path1" />
</svg>
