<?xml version="1.0" encoding="UTF-8" standalone="no"?>
<svg
   width="2000"
   height="2000"
   version="1.1"
   id="svg1"
   sodipodi:docname="u120F5.svg"
   inkscape:version="1.3.2 (091e20e, 2023-11-25)"
   xmlns:inkscape="http://www.inkscape.org/namespaces/inkscape"
   xmlns:sodipodi="http://sodipodi.sourceforge.net/DTD/sodipodi-0.dtd"
   xmlns="http://www.w3.org/2000/svg"
   xmlns:svg="http://www.w3.org/2000/svg">
  <defs
     id="defs1" />
  <sodipodi:namedview
     id="namedview1"
     pagecolor="#505050"
     bordercolor="#eeeeee"
     borderopacity="1"
     inkscape:showpageshadow="0"
     inkscape:pageopacity="0"
     inkscape:pagecheckerboard="0"
     inkscape:deskcolor="#505050"
     inkscape:zoom="0.379"
     inkscape:cx="1000"
     inkscape:cy="998.68074"
     inkscape:window-width="1392"
     inkscape:window-height="1212"
     inkscape:window-x="0"
     inkscape:window-y="0"
     inkscape:window-maximized="0"
     inkscape:current-layer="svg1" />
  <path
     d="m 1115,668.5 q 9,-13 14.5,-15 5.5,-2 7.5,-2 5,0 5,7 0,10 -13,26 -13,16 -38,40 -32,30 -68,70 -36,40 -61.5,74.5 -25.5,34.5 -36,55 -10.5,20.5 -10.5,29.5 0,4 3,7 2,2 4.5,10.5 2.5,8.5 2.5,14.5 0,11 10.5,23 10.5,12 29.5,24 l 42,25 106,-79 q 22,-17 43.5,-34.5 21.5,-17.5 39.5,-32.5 18,-15 31.5,-27.5 13.5,-12.5 21.5,-21.5 10,-11 22,-19.5 12,-8.5 16,-8.5 2,0 2,3 0,2 -2,9 -2,7 -9,19 -7,12 -15,23 -8,11 -14,13 -6,2 -19.5,17.5 -13.5,15.5 -31,38 -17.5,22.5 -36.5,48.5 -19,26 -35,49.5 -16,23.5 -26,41 -10,17.5 -10,26.5 0,5 3,12 3,7 8,9 5,2 7.5,10.5 2.5,8.5 2.5,15.5 0,15 13.5,28.5 13.5,13.5 43.5,32.5 27,17 50.5,36 23.5,19 40.5,36 17,17 25,27.5 8,10.5 8,14.5 0,2 -1,3 -1,1 -3,1 -5,0 -18.5,-8.5 -13.5,-8.5 -29.5,-25.5 -18,-18 -42.5,-36.5 -24.5,-18.5 -51.5,-36.5 -27,-18 -54,-34 -27,-16 -45,-24 -22,-9 -54.5,-15 -32.5,-6 -64.5,-9 l -76,-6 60,-36 q 26,-15 44,-28 18,-13 19,-16 0,-1 0,-1 0,-5 -13.5,-16 -13.5,-11 -36,-24.5 -22.5,-13.5 -48,-25.5 -25.5,-12 -42.5,-18 -19,-6 -34,-7.5 -15,-1.5 -24,-1.5 -14,0 -29,2 -14,2 -24,2 -18,0 -18,-8 0,0 0.5,-7 0.5,-7 53.5,-39 24,-15 59,-38.5 35,-23.5 72.5,-50 37.5,-26.5 74.5,-53 37,-26.5 67.5,-49.5 30.5,-23 51,-40 20.5,-17 29.5,-30 z m -176,193 q 11,-13 20.5,-25.5 9.5,-12.5 9.5,-15.5 0,-1 0,-1 0,0 0,0 -2,0 -16.5,8.5 -14.5,8.5 -36.5,23 -22,14.5 -47,32 -25,17.5 -47,33 -22,15.5 -37,26.5 -15,11 -16,14 0,1 0,1 0,4 14,6.5 14,2.5 31,2.5 4,0 16,-0.5 12,-0.5 32,-3.5 20,-3 27,-10 3,-4 6.5,-12 3.5,-8 3.5,-14 0,-9 10.5,-26 10.5,-17 29.5,-39 z m 185,164 q 10,-14 18.5,-27 8.5,-13 8.5,-17 0,-1 0,-1 -1,0 -10.5,6 -9.5,6 -24.5,16.5 -15,10.5 -35,24.5 -20,14 -43,30 l -108,77 60,12 q 26,3 38.5,3.5 12.5,0.5 16.5,0.5 12,0 15,-2 3,-2 8,-13 5,-11 8,-22 4,-17 16.5,-39.5 12.5,-22.5 31.5,-48.5 z"
     id="path1" />
</svg>
