<?xml version="1.0" encoding="UTF-8" standalone="no"?>
<svg
   width="2000"
   height="2000"
   version="1.1"
   id="svg1"
   sodipodi:docname="u12046.svg"
   inkscape:version="1.3.2 (091e20e, 2023-11-25)"
   xmlns:inkscape="http://www.inkscape.org/namespaces/inkscape"
   xmlns:sodipodi="http://sodipodi.sourceforge.net/DTD/sodipodi-0.dtd"
   xmlns="http://www.w3.org/2000/svg"
   xmlns:svg="http://www.w3.org/2000/svg">
  <defs
     id="defs1" />
  <sodipodi:namedview
     id="namedview1"
     pagecolor="#505050"
     bordercolor="#eeeeee"
     borderopacity="1"
     inkscape:showpageshadow="0"
     inkscape:pageopacity="0"
     inkscape:pagecheckerboard="0"
     inkscape:deskcolor="#505050"
     inkscape:zoom="0.379"
     inkscape:cx="1000"
     inkscape:cy="998.68074"
     inkscape:window-width="1392"
     inkscape:window-height="1212"
     inkscape:window-x="0"
     inkscape:window-y="0"
     inkscape:window-maximized="0"
     inkscape:current-layer="svg1" />
  <path
     d="m 391,702 q 36,-49 46.5,-56 10.5,-7 13.5,-7 4,0 4,7 0,4 -2,11 -2,9 -2,18 0,27 22.5,54 22.5,27 79.5,57 30,15 53.5,22.5 23.5,7.5 47.5,7.5 12,0 21,-1.5 9,-1.5 18,-7.5 9,-6 19.5,-18 10.5,-12 23.5,-28 26,-29 42.5,-46 16.5,-17 19.5,-17 3,0 5,7.5 2,7.5 2,14.5 0,68 200,176 40,22 74.5,43 34.5,21 36.5,24 0,1 1,1 5,0 26,-10 21,-10 51.5,-28 30.5,-18 63.5,-39 33,-21 53,-36 l 34,-26 v 27 q 0,35 27,50 27,15 93,15 26,0 44.5,-2.5 18.5,-2.5 18.5,-9.5 0,-5 -6,-19 -6,-14 -15,-28.5 -9,-14.5 -18,-26.5 -9,-12 -21,-19 -12,-8 -12,-13 0,-2 4,-6 4,-4 43,-4 31,0 37,-3.5 6,-3.5 6,-18.5 0,-15 -6.5,-30 -6.5,-15 -16.5,-30 -10,-15 -21,-27 -11,-12 -26,-17 -13,-4 -13,-9 0,-2 5,-7 5,-5 38,-5 19,0 45.5,2.5 26.5,2.5 49.5,4.5 23,2 39,5 16,3 16,6 0,3 -7.5,7.5 -7.5,4.5 -16.5,7.5 -26,9 -41.5,31.5 -15.5,22.5 -21.5,52.5 -2,10 -2,16 0,7 4,10 4,3 40,7 l 48,6 -27,26 q -20,16 -32,35 -12,19 -18.5,48 -6.5,29 -10.5,74 -4,45 -5,116 -2,70 -5.5,119 -3.5,49 -6.5,49 -3,0 -5.5,-37 -2.5,-37 -2.5,-89 v -126 l -73,6 q -24,1 -40,2.5 -16,1.5 -26.5,4.5 -10.5,3 -18,8.5 -7.5,5.5 -17.5,15.5 -15,15 -15.5,18 -0.5,3 -0.5,4 0,5 7,10 22,16 100,18 33,0 54,2 21,2 21,7 0,4 -18,6.5 -18,2.5 -39,2.5 -57,0 -92,16.5 -35,16.5 -47,46.5 -9,18 -15,18.5 -6,0.5 -6,0.5 -11,0 -17,-16 -1,-8 -17,-26 -16,-18 -37,-38 -21,-20 -43.5,-39 -22.5,-19 -37.5,-28 -9,-6 -15,-8 -6,-2 -12,-2 -1,0 -5.5,0.5 -4.5,0.5 -16,4.5 -11.5,4 -24.5,10 -15,7 -34,15 -9,3 -18,7 h -1 q -9,4 -19,8 l -1,1 q -1,0 -1,0 h -1 q -23,9 -47.5,19.5 -24.5,10.5 -47.5,19.5 -25,11 -50,21.5 -25,10.5 -47.5,20 -22.5,9.5 -40.5,18 -18,8.5 -28,14.5 -24,12 -51,31.5 -27,19.5 -51,40.5 -24,21 -41.5,39.5 -17.5,18.5 -23.5,35.5 -4,12 -9,12 -3,0 -9.5,-9 -6.5,-9 -30.5,-69 -29,-69 -30,-80 -1,-11 -1,-13 0,-7 3,-7 3,0 7,4 13,12 29,12.5 16,0.5 20,0.5 25,0 57.5,-3 32.5,-3 70,-10.5 37.5,-7.5 67.5,-16.5 26,-9 77.5,-29 51.5,-20 105,-42 53.5,-22 95.5,-39 42,-17 51,-22 7,-4 7,-7 0,-1 -3.5,-3.5 -3.5,-2.5 -29.5,-7.5 l -39,-7 41,-20 40,-18 -81,-45 Q 967,896 929.5,876.5 892,857 867.5,847 843,837 825,833.5 807,830 786,828 q -16,-2 -29,-2 -11,0 -25,2 -14,2 -27.5,8.5 -13.5,6.5 -24,20 Q 670,870 660,891 q -8,14 -12.5,26 -4.5,12 -6.5,29 -2,17 -3.5,41 -1.5,24 -3.5,50 -3,58 -6.5,92.5 -3.5,34.5 -6.5,34.5 -3,0 -5,-27 -2,-27 -2,-50 0,-19 1,-40 0,-48 -2.5,-80 Q 610,935 605,912.5 600,890 591,875 q -9,-15 -21,-26 -11,-10 -13.5,-17 -2.5,-7 -2.5,-10 0,-3 1,-4 1,-1 1,-3 0,-5 -9.5,-12.5 Q 537,795 517,788 492,776 477.5,773.5 463,771 451,771 q -12,0 -27,2 -21,3 -39,7.5 -18,4.5 -28,11.5 -6,5 -10,5 -2,0 -4,-2 -2,-2 -2,-5 0,-9 11.5,-29.5 Q 364,740 391,702 Z m 839,-10 q 67,-50 73,-50 6,0 6,2 0,8 -25,40 -37,46 -37,61 0,7 8,7 6,0 6,3 0,1 -1,3 -1,2 -1,5 0,10 20,20 18,9 30.5,21 12.5,12 12.5,17 0,2 -1,4 -2,3 -5,3 -3,0 -10,-3 -7,-3 -19,-13 -30,-23 -64.5,-37 -34.5,-14 -69.5,-14 -13,0 -14.5,-1 -1.5,-1 -1.5,-1 0,-2 12,-10 6,-5 30,-21.5 24,-16.5 51,-35.5 z m 348,-26 q -8,-3 -18.5,-4.5 -10.5,-1.5 -19.5,-1.5 -15,0 -16,2 -1,2 -1,3 0,4 5,13 15,28 30,28 12,0 23,-17 6,-11 6,-15.5 0,-4.5 -9,-7.5 z m -467,47 q 20,-17 35.5,-29.5 15.5,-12.5 21.5,-12.5 5,0 5,5 0,3 -4,13 -4,10 -17,24 -11,9 -23,25.5 -12,16.5 -21,33 -9,16.5 -12,24.5 -3,8 -3,11 0,6 5,8 5,2 5,9 0,2 -1,6 -1,2 -1,5 0,10 21,20 13,6 25,16.5 12,10.5 22,21 10,10.5 14,17.5 4,7 4,10 0,2 -1,3 0,1 -1,1 -3,0 -14.5,-7.5 Q 1159,909 1144,897 1084,845 994,830 l -34,-5 54,-36 q 21,-13 50,-36.5 29,-23.5 47,-39.5 z m -655,34 q 1,0 1,-2 0,-2 -3.5,-9 -3.5,-7 -11.5,-19 l -18,-28 -18,25 q -24,33 -24,39 0,0 0.5,1.5 0.5,1.5 12.5,1.5 7,0 19,-1 16,-3 28,-4.5 12,-1.5 14,-3.5 z m 771,-15 q 0,-7 -9,-7 -9,0 -15,9 -1,2 -1,3 0,6 10,6 15,0 15,-11 z m -395,77 q 0,-3 -6.5,-13.5 Q 819,785 807,773 l -26,-30 -25,28 q -12,11 -18,18.5 -6,7.5 -6,10.5 0,1 1,1 3,2 19,4 16,2 34,3.5 18,1.5 32,1.5 14,0 14,-1 z m 246,-24 q 2,-3 3,-8 0,0 1,-1 0,-2 1,-4 0,-1 0,-2 1,0 1,-2 0,-4 2,-7 -2,0 -11.5,8 -9.5,8 -21.5,20 -26,20 -26.5,21.5 -0.5,1.5 -0.5,1.5 0,3 18,4 12,0 19.5,-5 7.5,-5 14.5,-26 z m 524,24 q -6,0 -15,-2 h -84 l 54,111 22,-54 q 9,-21 16,-37.5 7,-16.5 7,-17.5 z m -978,36 q -19,-9 -25,-9 -2,0 -2.5,1 -0.5,1 -0.5,2 0,7 14,36 12,25 14,26 2,1 3,1 4,0 12,-15 10,-17 10,-24 0,-1 -1.5,-4.5 Q 646,855 624,845 Z m -273,78 q 6,-57 12.5,-65 6.5,-8 9.5,-8 3,0 3,10 0,12 7.5,21 7.5,9 18.5,16 16,12 37,16 21,4 66,4 41,0 65.5,3 24.5,3 24.5,6 0,3 -23,6 -23,3 -56,6 -45,1 -68.5,5 -23.5,4 -38.5,16 l -25,16 22,21 q 9,6 16.5,10.5 7.5,4.5 19,7 11.5,2.5 30,3 18.5,0.5 41.5,0.5 40,0 65.5,3 25.5,3 25.5,6 0,3 -23,6 -23,3 -56,6 -51,2 -71.5,6.5 Q 433,1049 414,1062 l -32,23 21,16 q 12,11 33,14 21,3 68,3 45,0 68,3 23,3 23,6 0,4 -20,6.5 -20,2.5 -55,2.5 -21,0 -36,0.5 -15,0.5 -27,3.5 -12,3 -22.5,9 -10.5,6 -16.5,9 -27,17 -39,29 -12,12 -12,21 0,10 -12,10 -10,0 -11.5,-6 -1.5,-6 -1.5,-12 0,-13 3,-40 3,-35 5,-65.5 2,-30.5 3,-43.5 1,-13 1,-19 0,-6 -1,-10.5 -1,-4.5 -4,-4.5 -5,0 -5,-19 0,-5 1,-23 1,-18 6,-52 z m 969,3 q 1,-11 2,-27 1,-16 1,-22 0,-3 0,-4 0,0 -1,0 -5,0 -23,18 -18,18 -42,45 -33,38 -40,51 -7,13 -7,33 0,2 0,5 2,22 11.5,38 9.5,16 42.5,46 l 51,46 5,-66 q 1,-19 1,-34 0,-8 -0.5,-22 -0.5,-14 -2.5,-17 -3,-3 -3,-24 0,-21 5,-66 z M 385,914 q -8,-5 -12,-5 -1,0 -3.5,1 -2.5,1 -2.5,16 0,24 7,26 7,2 9,2 9,0 16,-9 5,-6 5,-12 0,-10 -19,-19 z m 981,7 q -15,-12 -22,-12 -8,0 -8,12 0,12 6.5,16.5 6.5,4.5 12.5,4.5 6,0 14,-3 9,-4 9,-7 0,-3 -12,-11 z m -144,23 q 8,-8 14.5,-16.5 6.5,-8.5 6.5,-9.5 0,0 0,0 0,0 0,0 -3,0 -24,13 -21,13 -49,29 l -72,42 39,12 q 23,7 35,7 4,0 10.5,-2 6.5,-2 6.5,-15 0,-11 8.5,-25 8.5,-14 24.5,-35 z m 320,9 q -6,-15 -25.5,-16.5 -19.5,-1.5 -31.5,-1.5 -18,0 -43.5,3 -25.5,3 -52,12.5 -26.5,9.5 -26.5,21.5 0,27 119,27 40,0 52,-3 12,-3 12,-16 0,-6 -1.5,-14.5 Q 1543,957 1542,953 Z m -161,60 q 0,-3 -13,-12 -13,-7 -18,-7 -1,0 -3,2 -2,2 -2,24 0,20 1.5,21 1.5,1 1.5,1 4,0 18,-13 15,-13 15,-16 z m -976,7 q -15,-11 -21,-11 -1,0 -4.5,2 -3.5,2 -3.5,26 0,19 2,20.5 2,1.5 2,1.5 5,0 20,-10 15,-11 16,-13 1,-2 1,-2 0,-4 -12,-14 z m 949,113 q 15,-15 15,-20.5 0,-5.5 -7,-11.5 -8,-6 -13,-6 -7,0 -10,8 -3,6 -3,14 0,8 2,17 3,9 5,9 0,0 1,-0.5 1,-0.5 10,-9.5 z m -940,-2 -20,-12 q -11,-7 -16,-7 0,0 -2.5,0.5 -2.5,0.5 -5.5,9.5 -3,6 -3,13.5 0,7.5 2,15.5 3,10 6,10 3,0 18,-12 z m 247,114 q 21,-16 26.5,-23 5.5,-7 5.5,-9 0,-2 -3,-2 -8,1 -32,2.5 -24,1.5 -51,1.5 -28,3 -47.5,4.5 -19.5,1.5 -19.5,3.5 0,3 6,18 6,15 13,36 l 21,51 18,-23 q 8,-10 26,-27.5 18,-17.5 37,-32.5 z"
     id="path1" />
</svg>
