<?xml version="1.0" encoding="UTF-8" standalone="no"?>
<svg
   width="2000"
   height="2000"
   version="1.1"
   id="svg1"
   sodipodi:docname="u12047.svg"
   inkscape:version="1.3.2 (091e20e, 2023-11-25)"
   xmlns:inkscape="http://www.inkscape.org/namespaces/inkscape"
   xmlns:sodipodi="http://sodipodi.sourceforge.net/DTD/sodipodi-0.dtd"
   xmlns="http://www.w3.org/2000/svg"
   xmlns:svg="http://www.w3.org/2000/svg">
  <defs
     id="defs1" />
  <sodipodi:namedview
     id="namedview1"
     pagecolor="#505050"
     bordercolor="#eeeeee"
     borderopacity="1"
     inkscape:showpageshadow="0"
     inkscape:pageopacity="0"
     inkscape:pagecheckerboard="0"
     inkscape:deskcolor="#505050"
     inkscape:zoom="0.379"
     inkscape:cx="1000"
     inkscape:cy="998.68074"
     inkscape:window-width="1392"
     inkscape:window-height="1212"
     inkscape:window-x="0"
     inkscape:window-y="0"
     inkscape:window-maximized="0"
     inkscape:current-layer="svg1" />
  <path
     d="m 798,679 q 1,-1 19,-1.5 18,-0.5 43.5,-0.5 25.5,0 56,1 30.5,1 56,2 25.5,1 43.5,2.5 18,1.5 19,2.5 0,0 0,1 0,3 -10,15 -10,12 -21,23 -23,24 -38.5,47.5 Q 950,795 946,811 q -3,8 -4.5,28 -1.5,20 -2.5,48.5 -1,28.5 -1.5,52.5 -0.5,24 -0.5,37 0,25 1,52 l 3,183 236,3 q 109,1 172,4 63,3 63,8 0,5 -68,7.5 -68,2.5 -185,2.5 -73,0 -128,1 -55,1 -99,4 -44,3 -80,7.5 -36,4.5 -69,12 -33,7.5 -64.5,17.5 -31.5,10 -63.5,23 -27,11 -43,16 -16,5 -21,5 -1,0 -2,-1 -1,-1 -1,-6 0,-4 1,-14 1,-10 4,-24 5,-21 5.5,-38.5 0.5,-17.5 0.5,-24.5 0,-20 -2,-39 -1,-14 -1,-25 0,-6 0.5,-15.5 0.5,-9.5 5.5,-9.5 4,0 17.5,7 13.5,7 24.5,15 38,26 90.5,41 52.5,15 118.5,23 l 65,6 -4,-170 q -1,-60 -3,-96 -2,-36 -5,-58.5 -3,-22.5 -9,-39 Q 891,838 883,820 870,792 853,763.5 836,735 819,713 812,704 805,693.5 798,683 798,680 Z m 189,30 q 0,-4 -21.5,-6.5 Q 944,700 913,700 q -28,0 -46.5,2 -18.5,2 -18.5,6 0,0 0,1 1,2 11,22.5 10,20.5 23,46.5 l 31,64 17,-45 q 7,-18 17.5,-36 10.5,-18 21.5,-28 6,-5 12,-13 6,-8 6,-11 z m -326,472 q -9,-5 -19.5,-10 -10.5,-5 -12.5,-5 -2,0 -5,18 -3,18 -5,40 -2,22 -2.5,33.5 -0.5,11.5 -0.5,15.5 0,12 2,14 1,1 2,1 5,0 22,-5 17,-5 46,-14 11,-4 25,-8.5 14,-4.5 27.5,-8 13.5,-3.5 25,-7 11.5,-3.5 18.5,-4.5 l 36,-7 -61,-17 q -26,-7 -52.5,-17 -26.5,-10 -45.5,-19 z"
     id="path1" />
</svg>
