<?xml version="1.0" encoding="UTF-8" standalone="no"?>
<svg
   width="2000"
   height="2000"
   version="1.1"
   id="svg1"
   sodipodi:docname="u1208A.svg"
   inkscape:version="1.3.2 (091e20e, 2023-11-25)"
   xmlns:inkscape="http://www.inkscape.org/namespaces/inkscape"
   xmlns:sodipodi="http://sodipodi.sourceforge.net/DTD/sodipodi-0.dtd"
   xmlns="http://www.w3.org/2000/svg"
   xmlns:svg="http://www.w3.org/2000/svg">
  <defs
     id="defs1" />
  <sodipodi:namedview
     id="namedview1"
     pagecolor="#505050"
     bordercolor="#eeeeee"
     borderopacity="1"
     inkscape:showpageshadow="0"
     inkscape:pageopacity="0"
     inkscape:pagecheckerboard="0"
     inkscape:deskcolor="#505050"
     inkscape:zoom="0.379"
     inkscape:cx="1000"
     inkscape:cy="998.68074"
     inkscape:window-width="1392"
     inkscape:window-height="1212"
     inkscape:window-x="0"
     inkscape:window-y="0"
     inkscape:window-maximized="0"
     inkscape:current-layer="svg1" />
  <path
     d="m 1127,644.5 q 1,-3 23,-3.5 22,-0.5 45,-1.5 23,-1 39,-1 17,0 43.5,1 26.5,1 57,2.5 30.5,1.5 51,3.5 20.5,2 21.5,5 0,11 -31,21 -90,28 -90,113 0,16 3,34 1,8 2.5,16 1.5,8 7,11 5.5,3 15,4 9.5,1 27.5,1 20,0 34,0.5 14,0.5 14,3.5 0,3 -12.5,16 -12.5,13 -23.5,22 -30,28 -42.5,44.5 -12.5,16.5 -19.5,37.5 -7,21 -8,42 -1,21 -1,37 0,22 1,49 l 3,108 76,3 q 76,3 76,12 0,0 -1,4.5 -1,4.5 -78,4.5 h -78 l -1,72 q -2,55 -8,55 -1,0 -5,-5 -4,-5 -5,-70 l -2,-52 h -186 q -73,0 -129.5,3 -56.5,3 -104.5,9.5 -48,6.5 -93.5,18 -45.5,11.5 -95.5,27.5 -52,18 -65,19.5 -13,1.5 -16,1.5 -8,0 -8,-3 0,-2 4,-6 9,-9 12,-33.5 3,-24.5 3,-71.5 0,-25 0.5,-49 0.5,-24 3.5,-24 2,0 15.5,6.5 13.5,6.5 26.5,14.5 54,31 115,44.5 61,13.5 136,16.5 l 93,2 v -149 l -104,-3 q -3,0 -7,0 h -2 q 0,0 -1,0 h -3 q -2,0 -3,0 h -4 q -1,0 -2,0 h -2 q -1,0 -2,0 h -29 q -23,0 -41,2.5 -18,2.5 -33.5,6 -15.5,3.5 -44.5,12.5 -15,6 -36.5,13.5 -21.5,7.5 -27.5,10.5 -3,1 -6,1 -7,0 -8,-4.5 -1,-4.5 -1,-9.5 0,-12 3,-35 1,-12 2,-21 1,-9 2,-18 0,0 0,0 0,-1 0,-2 h 1 q 0,0 0,-1 0,-1 0,-2 0,0 0,-1 0,-1 1,-2 0,0 0,-1 0,-1 0,-2 0,0 0,-1 h 1 q 0,-1 0,-2 0,0 0,-1 0,0 1,0 3,0 14,4.5 11,4.5 27,13.5 14,6 26,10 12,4 30,5.5 18,1.5 45,1.5 h 5 q 1,0 1,0 h 7 q 2,0 4,0 h 2 q 0,0 1,0 h 2 q 2,0 5,0 h 45 q 48,-2 74,-2.5 26,-0.5 39,-3 13,-2.5 14.5,-6.5 1.5,-4 1.5,-8 0,-2 0,-4 -3,-8 -10.5,-23 -7.5,-15 -16.5,-27 l -24,-31 -92,6 q -40,3 -80,9 -40,6 -68,16 -15,6 -33,11.5 -18,5.5 -21,5.5 -2,0 -3.5,-13 -1.5,-13 -2,-26.5 -0.5,-13.5 -0.5,-22.5 0,-9 0.5,-22.5 0.5,-13.5 2.5,-22.5 0,-1 1,-1 3,0 11.5,5 8.5,5 20.5,13 25,15 50.5,20 25.5,5 70.5,8 35,3 62,3 5,0 22,-0.5 17,-0.5 29,-5.5 7,-3 7,-7.5 0,-4.5 -12,-16.5 -13,-13 -13,-19 0,-1 1,-2 3,-3 37,-3 34,0 73,1.5 39,1.5 71,4.5 32,3 32,6 0,3 -9,10.5 -9,7.5 -21,15.5 -21,12 -33.5,24.5 -12.5,12.5 -18.5,36.5 -6,24 -7,64.5 -1,40.5 -1,108.5 l 2,76 h 265 v -76 q 0,-24 -0.5,-41.5 -0.5,-17.5 -4.5,-32.5 -4,-15 -9,-30 -5,-15 -13,-31 -13,-29 -32.5,-60.5 -19.5,-31.5 -39.5,-53.5 -9,-11 -18.5,-24.5 -9.5,-13.5 -9.5,-16.5 0,-3 20,-3 20,0 49,3 l 69,5 v -41 q 0,-75 -105,-135 -17,-12 -28,-20.5 -11,-8.5 -11,-11.5 z m -516,-1 46,34 q 30,20 52,32 22,12 56.5,18 34.5,6 90.5,8 56,2 152,5 48,0 91,1.5 43,1.5 74.5,3 31.5,1.5 49.5,4 18,2.5 18,3.5 0,2 -15,3.5 -15,1.5 -42,3 -27,1.5 -63,2 -36,0.5 -78,0.5 -81,0 -137.5,3 -56.5,3 -100.5,10 -44,7 -81,19.5 -37,12.5 -79,32.5 -19,10 -33,15.5 -14,5.5 -17,5.5 -1,0 -1,0 -2,-1 -2,-6 0,-5 2,-17 2,-12 5,-28 4,-26 8,-56 4,-30 4,-49 z m 714,19 h -128 l 63,65 z m -599,75 q -15,-4 -33,-14 -18,-10 -30,-19 l -30,-22 -7,37 q -6,40 -6,62 0,6 1,14.5 1,8.5 17,8.5 11,0 28,-5 21,-8 54,-22 33,-14 36,-20 0,-1 0,-1 0,-3 -8,-8.5 -8,-5.5 -22,-10.5 z m 603,146 q 0,-8 -21.5,-11 -21.5,-3 -57.5,-3 -73,0 -73,12 0,4 8,9 11,8 21.5,23.5 10.5,15.5 19.5,36.5 12,20 19.5,34 7.5,14 10.5,14 1,0 8,-12.5 7,-12.5 13,-26.5 9,-21 18.5,-36.5 9.5,-15.5 23.5,-26.5 10,-7 10,-13 z m -306,6 H 915 l 26,40 q 12,17 19.5,26.5 7.5,9.5 9.5,9.5 1,0 1,0 3,-1 9.5,-11.5 6.5,-10.5 18.5,-27.5 z m -352,31 q -17,-10 -23,-10 -1,0 -4,1.5 -3,1.5 -8,16.5 -2,6 -2,11 0,12 12,12 9,0 25,-8 15,-8 15.5,-10 0.5,-2 0.5,-2 0,-3 -16,-11 z m 18,140 q 0,-11 -24,-21 -13,-6 -19,-6 -1,0 -4,1.5 -3,1.5 -3,16.5 0,22 13,22 3,0 7,-1 4,-2 11,-3.5 7,-1.5 10,-1.5 9,0 9,-7 z m 22,141 q -4,-1 -8,-3 h -2 q -2,-1 -3,-1 l -3,-1 q -10,-4 -20,-7 l -2,-1 q 0,0 0,0 l -6,-2 q -6,-2 -12,-4 -9,-3 -15,-5 h -2 q -2,-1 -4,-2 h -1 q -4,-1 -7,-2 -1,-1 -2,-1 -1,0 -2,-1 0,0 -1,0 0,0 0,0 -6,-2 -10,-2 -6,0 -8.5,7.5 -2.5,7.5 -2.5,40.5 0,66 12,66 5,0 26,-5 21,-5 52,-14 18,-6 44,-14 h 2 q 8,-2 15,-4 l 1,-1 q 3,0 5,-1 h 1 q 3,-1 5,-2 h 1 q 2,-1 4,-1 h 1 q 1,-1 2,-1 17,-4 17,-8 0,-1 -6,-5 -6,-4 -71,-26 z"
     id="path1" />
</svg>
