<?xml version="1.0" encoding="UTF-8" standalone="no"?>
<svg
   width="2000"
   height="2000"
   version="1.1"
   id="svg1"
   sodipodi:docname="u12039.svg"
   inkscape:version="1.3.2 (091e20e, 2023-11-25)"
   xmlns:inkscape="http://www.inkscape.org/namespaces/inkscape"
   xmlns:sodipodi="http://sodipodi.sourceforge.net/DTD/sodipodi-0.dtd"
   xmlns="http://www.w3.org/2000/svg"
   xmlns:svg="http://www.w3.org/2000/svg">
  <defs
     id="defs1" />
  <sodipodi:namedview
     id="namedview1"
     pagecolor="#505050"
     bordercolor="#eeeeee"
     borderopacity="1"
     inkscape:showpageshadow="0"
     inkscape:pageopacity="0"
     inkscape:pagecheckerboard="0"
     inkscape:deskcolor="#505050"
     inkscape:zoom="0.379"
     inkscape:cx="1000"
     inkscape:cy="998.68074"
     inkscape:window-width="1392"
     inkscape:window-height="1212"
     inkscape:window-x="0"
     inkscape:window-y="0"
     inkscape:window-maximized="0"
     inkscape:current-layer="svg1" />
  <path
     d="m 959,923 q 11,12 23,22.5 12,10.5 24,21.5 l 130,129 q 61,54 108.5,98.5 47.5,44.5 80.5,77.5 33,33 47,51.5 14,18.5 14,23.5 0,1 -1,2 0,0 0,0 -2,0 -12,-6 -10,-6 -25.5,-19 -15.5,-13 -36.5,-32.5 -21,-19.5 -46,-43.5 -21,-20 -49.5,-47 -28.5,-27 -58.5,-53.5 -30,-26.5 -58,-51.5 -28,-25 -50,-44 L 942,961 913,939 838,886 Q 770,838 716.5,810.5 663,783 638,783 q -10,0 -17,-4 -7,-4 -7,-9 0,-5 4.5,-8.5 4.5,-3.5 10.5,-3.5 9,0 27,-7.5 18,-7.5 39,-19 Q 716,720 736.5,706 757,692 770,680 l 31,-29 19,50 q 9,22 25,52.5 16,30.5 31,52.5 l 37,54 q 12,15 22.5,31.5 Q 946,908 959,923 Z M 879,854 Q 861,827 842.5,797 824,767 812,748 l -26,-46 -50,34 q -36,22 -38,25.5 -2,3.5 -2,4.5 0,5 11,9 6,2 16,7.5 10,5.5 24,14 14,8.5 29.5,18 15.5,9.5 48.5,32.5 24,16 45.5,31 21.5,15 25,16 3.5,1 4.5,1 2,0 2,-2 0,-3 -5,-11.5 -5,-8.5 -18,-27.5 z"
     id="path1" />
</svg>
