<?xml version="1.0" encoding="UTF-8" standalone="no"?>
<svg
   width="2000"
   height="2000"
   version="1.1"
   id="svg1"
   sodipodi:docname="u12004.svg"
   inkscape:version="1.3.2 (091e20e, 2023-11-25)"
   xmlns:inkscape="http://www.inkscape.org/namespaces/inkscape"
   xmlns:sodipodi="http://sodipodi.sourceforge.net/DTD/sodipodi-0.dtd"
   xmlns="http://www.w3.org/2000/svg"
   xmlns:svg="http://www.w3.org/2000/svg">
  <defs
     id="defs1" />
  <sodipodi:namedview
     id="namedview1"
     pagecolor="#505050"
     bordercolor="#eeeeee"
     borderopacity="1"
     inkscape:showpageshadow="0"
     inkscape:pageopacity="0"
     inkscape:pagecheckerboard="0"
     inkscape:deskcolor="#505050"
     inkscape:zoom="0.379"
     inkscape:cx="1000"
     inkscape:cy="998.68074"
     inkscape:window-width="1392"
     inkscape:window-height="1212"
     inkscape:window-x="0"
     inkscape:window-y="0"
     inkscape:window-maximized="0"
     inkscape:current-layer="svg1" />
  <path
     d="m 1276,633.5 q 6,-2 13,-2 5,0 14,1.5 9,1.5 9,11.5 0,8 -7,8 -7,0 -17.5,8.5 -10.5,8.5 -21.5,20.5 -11,12 -21.5,26 -10.5,14 -15.5,24 -6,13 -9.5,35.5 -3.5,22.5 -3.5,59.5 v 69 h 41 q 17,0 28.5,1.5 11.5,1.5 11.5,3.5 0,1 -5.5,10.5 -5.5,9.5 -8.5,14.5 -13,22 -25,48 -12,26 -22,55 -6,17 -10,32 -4,15 -6.5,34.5 -2.5,19.5 -3,49.5 -0.5,30 -0.5,71 0,78 -2,115.5 -2,37.5 -5,37.5 -4,0 -6,-40 -2,-40 -2,-112 v -150 l -25,-22 q -11,-10 -31.5,-23 -20.5,-13 -42.5,-24.5 -22,-11.5 -40.5,-19.5 -18.5,-8 -25.5,-8 -7,0 -9.5,8 -2.5,8 -2.5,34 0,12 0.5,20.5 0.5,8.5 5,15.5 4.5,7 13.5,15 9,8 21,17 19,15 31,26.5 12,11.5 20,20.5 8,9 9.5,12.5 1.5,3.5 1.5,5.5 0,2 -3,2 -1,0 -14.5,-11 -13.5,-11 -30.5,-25 -17,-16 -30.5,-27 -13.5,-11 -15.5,-11 -4,0 -6,23.5 -2,23.5 -2,56.5 0,16 -0.5,33.5 -0.5,17.5 -1.5,33 -1,15.5 -2,28.5 -1,13 -3,20 -1,10 -2,10 -1,0 -2,-14.5 -1,-14.5 -2,-82.5 v -123 l -39,-24 q -16,-11 -28,-16.5 -12,-5.5 -15,-5.5 -2,0 -2,0 -1,0 -2,11 -1,11 -1.5,29 -0.5,18 -1,41.5 -0.5,23.5 -0.5,52.5 0,58 -2,92.5 -2,34.5 -5,34.5 -4,0 -6.5,-38.5 -2.5,-38.5 -2.5,-101.5 l -3,-136 -114,-5 v 177 q 0,78 -2,128 -2,50 -4,50 -2,0 -3.5,-15.5 -1.5,-15.5 -3,-43.5 -1.5,-28 -2.5,-66.5 -1,-38.5 -2,-83.5 0,-75 -1,-118.5 -1,-43.5 -3,-71.5 -2,-28 -6.5,-48 -4.5,-20 -9.5,-40 -6,-23 -11.5,-40 -5.5,-17 -11,-33 -5.5,-16 -11,-30 -5.5,-14 -9.5,-23 l -21,-42 83,5 q 32,0 56.5,1.5 24.5,1.5 25.5,1.5 0,1 -8.5,19 -8.5,18 -19.5,44 -11,21 -17.5,35 -6.5,14 -10,27.5 -3.5,13.5 -5,30.5 -1.5,17 -2.5,43 0,17 0,31 0,14 0.5,30.5 0.5,16.5 2.5,16.5 2,0 19.5,-12.5 17.5,-12.5 37.5,-32.5 22,-20 33.5,-33 11.5,-13 13.5,-21.5 2,-8.5 2,-13.5 0,-9 -5,-22 -5,-13 -18,-40 -8,-15 -14,-28 -6,-13 -6,-14 2,0 20.5,0.5 18.5,0.5 41.5,1.5 39,3 51,6 12,3 12,11 0,4 3,4 0,0 3,-1 3,-1 10,-8 7,-7 16,-18.5 9,-11.5 20,-31.5 5,-8 11,-17.5 6,-9.5 7,-9.5 3,0 3.5,3 0.5,3 0.5,4 0,5 -2.5,13.5 -2.5,8.5 -7.5,19 -5,10.5 -13,21.5 -14,21 -14,31 0,2 2,5.5 2,3.5 15,3.5 9,0 21,-2 11,-2 19.5,-2 8.5,0 8.5,2 0,1 -4.5,12.5 -4.5,11.5 -10.5,26.5 -7,14 -9.5,23.5 -2.5,9.5 -2.5,12.5 0,1 0,1 0,0 1,0 3,0 12.5,-6 9.5,-6 25.5,-18 16,-12 34.5,-28 18.5,-16 30.5,-27 41,-39 41,-65 0,-2 -2,-16.5 -2,-14.5 -48,-41.5 l -35,-20 72,-6 q 31,-2 54.5,-4.5 23.5,-2.5 32.5,-5.5 z m -7,19 h -44 q -19,0 -32.5,1.5 -13.5,1.5 -15.5,4.5 0,0 0,1 0,2 5,10 5,8 12.5,17.5 7.5,9.5 14.5,17 7,7.5 10,7.5 2,0 8.5,-9 6.5,-9 17.5,-20 z m -443,65 q 0,-2 -15.5,-4 -15.5,-2 -36.5,-4 -21,0 -33.5,1 -12.5,1 -16,4.5 -3.5,3.5 -3.5,8.5 0,2 2,8.5 2,6.5 8,17.5 7,14 13.5,35 6.5,21 10.5,37 11,43 17,43 6,0 13,-33 3,-17 9,-36.5 6,-19.5 16,-41.5 5,-10 10.5,-22.5 5.5,-12.5 5.5,-13.5 z m 132,73 q 0,-7 -8,-9.5 -8,-2.5 -29,-2.5 -16,0 -25,1.5 -9,1.5 -9,2.5 0,1 0,1 1,2 5,14 4,12 10,26 9,23 12,26.5 3,3.5 6,3.5 3,0 8,-4 4,-4 9.5,-11.5 5.5,-7.5 10,-16.5 4.5,-9 7.5,-17.5 3,-8.5 3,-13.5 z m 240,96 q 2,-5 2.5,-15.5 0.5,-10.5 0.5,-16.5 0,-12 -1,-25 l -2,-45 -22,24 q -13,14 -28,33.5 -15,19.5 -27.5,38 -12.5,18.5 -20.5,33 -8,14.5 -8,24.5 0,9 7,14 4,4 4,9 0,2 -1,5 -1,2 -1,4 0,10 18,19 8,6 21.5,14.5 13.5,8.5 21.5,13.5 14,9 23.5,14.5 9.5,5.5 12.5,5.5 3,0 3,-5 0,-3 -2,-12 -2,-9 -10,-28 -8,-19 -19.5,-39 -11.5,-20 -23.5,-33 -7,-9 -12.5,-17 -5.5,-8 -5.5,-10 0,-2 9.5,-2 9.5,0 23.5,2 14,3 22,3 3,0 8,-1 5,-1 7,-8 z m -143,-76 q -2,-2 -8.5,-3 -6.5,-1 -11.5,-1 -5,0 -12.5,1 -7.5,1 -15.5,4 -8,3 -10,8 0,1 0,4 0,4 1.5,15 1.5,11 5.5,25 4,14 9,25.5 5,11.5 8,12.5 0,0 0,0 3,0 9.5,-13 6.5,-13 13,-29.5 6.5,-16.5 9.5,-28 3,-11.5 3,-15.5 0,-4 -1,-5 z m -92,54 q 8,-16 8,-26 0,-1 -0.5,-4 -0.5,-3 -2.5,-3 -2,0 -6,4 -5,6 -8.5,15 -3.5,9 -6,17 -2.5,8 -3,12 -0.5,4 -0.5,5 0,4 2,4 2,0 7,-7 5,-7 10,-17 z m 145,4 q 3,-6 3,-8 0,-2 -1,-2 -2,0 -9,4 -7,4 -25,20 -32,29 -35.5,41 -3.5,12 -3.5,15 0,13 17,13 11,0 15,-5 4,-5 8,-19 2,-11 6.5,-21.5 4.5,-10.5 11.5,-17.5 3,-4 7,-10 4,-6 6,-10 z m -109,26 q -4,-28 -8,-29.5 -4,-1.5 -5,-1.5 -7,0 -19,23 -11,22 -14,36 -3,14 -3,19 0,7 4,7 3,0 11,-4 8,-4 16,-9 16,-10 18,-14.5 2,-4.5 2,-9.5 0,-7 -2,-17 z m -71,-10 q 0,-4 -3,-4 -3,0 -3,4 0,4 3,4 3,0 3,-4 z m -21,56 q 0,-16 -2,-26.5 -2,-10.5 -4,-10.5 -3,0 -13.5,9.5 -10.5,9.5 -22.5,22 -12,12.5 -21.5,23.5 -9.5,11 -9.5,14 0,2 10.5,3 10.5,1 25.5,1 h 37 z m 362,-24 q 0,-2 -15.5,-4 -15.5,-2 -40.5,-2 -18,0 -33,1 -15,1 -15,2 0,2 5,11.5 5,9.5 12,19.5 8,13 15,28 7,15 10,28 4,15 9,21.5 5,6.5 6,6.5 2,0 2,-4 0,-9 6.5,-24.5 6.5,-15.5 17.5,-36.5 7,-14 14,-29.5 7,-15.5 7,-17.5 z m -269,36 q 3,-3 3,-5 0,-2 -3,-4 -1,-1 -2,-1 -2,0 -2,6 0,5 2,5 1,0 2,-1 z m -64,8 q 0,-12 -3,-12 -4,0 -6,13 -1,5 -1,8 0,7 4,7 6,0 6,-16 z m 73,36 q -2,-23 -6.5,-27.5 -4.5,-4.5 -12.5,-4.5 -5,0 -13,2 -13,3 -13.5,5.5 -0.5,2.5 -0.5,4.5 0,4 3,14 3,12 8,20 5,8 11,13.5 6,5.5 9.5,6.5 3.5,1 5.5,1 3,0 5,-2 3,-2 4,-9 1,-7 1,-12 0,-6 -1,-12 z"
     id="path1" />
</svg>
