<?xml version="1.0" encoding="UTF-8" standalone="no"?>
<svg
   width="2000"
   height="2000"
   version="1.1"
   id="svg1"
   sodipodi:docname="u120F1.svg"
   inkscape:version="1.3.2 (091e20e, 2023-11-25)"
   xmlns:inkscape="http://www.inkscape.org/namespaces/inkscape"
   xmlns:sodipodi="http://sodipodi.sourceforge.net/DTD/sodipodi-0.dtd"
   xmlns="http://www.w3.org/2000/svg"
   xmlns:svg="http://www.w3.org/2000/svg">
  <defs
     id="defs1" />
  <sodipodi:namedview
     id="namedview1"
     pagecolor="#505050"
     bordercolor="#eeeeee"
     borderopacity="1"
     inkscape:showpageshadow="0"
     inkscape:pageopacity="0"
     inkscape:pagecheckerboard="0"
     inkscape:deskcolor="#505050"
     inkscape:zoom="0.379"
     inkscape:cx="1000"
     inkscape:cy="998.68074"
     inkscape:window-width="1392"
     inkscape:window-height="1212"
     inkscape:window-x="0"
     inkscape:window-y="0"
     inkscape:window-maximized="0"
     inkscape:current-layer="svg1" />
  <path
     d="m 707,696 q -1,-17 -1,-29 0,-19 2,-27 2,-8 5,-8 2,0 5,11 9,32 36,37.5 27,5.5 75,5.5 23,0 51,-1 63,-3 77,-6.5 14,-3.5 14,-6.5 0,-5 -12,-11 -12,-7 -12,-12 0,-6 25,-6.5 25,-0.5 68.5,-0.5 43.5,0 102,0.5 58.5,0.5 125.5,2.5 41,0 47,4 6,4 6,6 0,5 -15,8 -32,6 -42.5,25.5 Q 1253,708 1247,751 l -6,47 h 41 q 37,0 37.5,4 0.5,4 0.5,4 0,8 -47,10 -48,3 -79,10.5 -31,7.5 -53,28.5 -14,13 -14,19 0,2 2,4.5 2,2.5 20,2.5 9,0 22,-1 17,-2 37,-2 7,0 25.5,0.5 18.5,0.5 44.5,3.5 26,3 45.5,6.5 19.5,3.5 21.5,11.5 0,1 0,2 0,7 -17,7 -27,0 -39,23 -12,23 -21,92 -4,36 -4,56 0,8 1.5,20.5 1.5,12.5 19.5,12.5 10,0 10,6 0,4 -9.5,7 -9.5,3 -24.5,3 -14,0 -29.5,3 -15.5,3 -24.5,8 -30,13 -52,67 -22,54 -22,126 0,35 -5,35 -1,0 -5.5,-7 -4.5,-7 -7.5,-58 -1,-22 -3.5,-36.5 -2.5,-14.5 -6,-25.5 -3.5,-11 -9.5,-22.5 -6,-11.5 -15,-24.5 -36,-51 -81,-74 -8,-3 -17.5,-9 -9.5,-6 -9.5,-9 0,-3 9.5,-5 9.5,-2 24.5,-2 h 35 l -6,-53 q -5,-33 -9.5,-52.5 Q 1022,970 1011,959 1000,948 979.5,941 959,934 916,925 844,910 803,906.5 762,903 744,903 q -35,0 -58,7 -13,4 -20,4 -4,0 -7,-1 0,-1 0,-2 0,-4 3,-16.5 3,-12.5 14,-36.5 10,-26 17.5,-47.5 Q 701,789 705,770 q 4,-19 4,-36 0,-17 -2,-38 z m 341,-33 h -26 q -21,0 -22,3 -1,3 -1,3 0,7 11,27 l 11,19 13,-27 z m 100,0 h -24 q -21,0 -22,3 -1,3 -1,3 0,7 11,27 l 11,19 z m 105,6 q 0,-3 -7.5,-4.5 Q 1238,663 1228,663 h -26 l 29,49 10,-18 q 5,-7 8,-14.5 3,-7.5 4,-10.5 z m -154,37 q -8,-15 -15.5,-25.5 Q 1076,670 1072,670 q -9,0 -20.5,24 -11.5,24 -15.5,54 l -5,41 h 42 q 32,0 38,-3 6,-3 6,-17 0,-12 -5.5,-29 -5.5,-17 -12.5,-34 z m 109,8 q -7,-17 -16,-29 -9,-12 -15,-13 -1,0 -3,0 -9,0 -19.5,21 -10.5,21 -15.5,54 -2,14 -2,24 0,15 7,21 7,6 46,6 27,0 32.5,-4 5.5,-4 5.5,-16 0,-13 -6,-31 -6,-18 -14,-33 z m -205,3 q -5,-12 -9.5,-20.5 -4.5,-8.5 -5.5,-8.5 -2,2 -23,5.5 -21,3.5 -39,6.5 -96,15 -152,44.5 -56,29.5 -56,53.5 0,21 44,44 44,23 131,52 72,24 84,25 12,1 13,1 8,0 8,-4 0,-5 -15,-16 -17,-14 -17,-20 0,-2 2,-3.5 2,-1.5 13,-1.5 10,0 26,2 18,2 32,2 7,0 18.5,-1 11.5,-1 17.5,-4 5,-3 5,-7 0,-2 -1,-5.5 -1,-3.5 -18,-15.5 -16,-15 -38,-23.5 -22,-8.5 -44,-14.5 -41,-11 -41,-18 0,-1 2.5,-4 2.5,-3 15.5,-3 10,0 26,3 12,2 19,2 6,0 10,-2 4,-2 4,-15 0,-12 -4,-27 -4,-15 -8,-27 z M 796,705 q -6,0 -19,-1.5 -13,-1.5 -23,-3.5 -11,-2 -17,-2 -5,0 -7.5,2 -2.5,2 -2.5,31 0,0 0,0 v 1 q 0,0 0,0 v 1 q 0,0 0,0 0,1 0,1 v 2 q 0,1 0,1 0,1 0,1 v 1 q 0,8 1,8 2,0 14.5,-6 12.5,-6 23.5,-12 35,-17 35,-22 0,-2 -5,-2 z m 357,106 q -3,-1 -20.5,-2.5 Q 1115,807 1093,807 h -56 l 29,21 q 27,19 31,25 2,4 7,4 9,0 29,-20 9,-8 15,-14.5 6,-6.5 6,-9.5 0,-1 -1,-2 z m -395,48 q -10,-6 -20,-11 -10,-5 -20,-10 -6,-3 -14,-6 0,1 -4,8 v 1 q -1,2 -2,5 -1,7 -4,15.5 -3,8.5 -5,9.5 -1,2 -1,4 0,8 9.5,10.5 9.5,2.5 50.5,2.5 h 63 z m 297,41 q -9,0 -18.5,-1.5 -9.5,-1.5 -17.5,-3.5 -6,-3 -9,-3 -2,0 -2,2 0,0 0.5,3 0.5,3 12.5,27 15,31 20,37.5 5,6.5 6,6.5 2,0 2,-4 0,-6 4,-17 4,-11 8,-22 10,-17 10,-21 0,0 -0.5,-2 -0.5,-2 -15.5,-2 z m 221,19 q 5,-8 5,-12 0,-2 -2.5,-4 -2.5,-2 -28.5,-5 -12,-1 -18.5,-1.5 -6.5,-0.5 -8.5,-0.5 -4,0 -4,1 0,1 1,2 0,1 1,2 v 1 q 1,2 2,4 v 1 q 1,1 1,2 h 1 q 3,6 6,13.5 3,7.5 7,19.5 12,27 14.5,28.5 2.5,1.5 2.5,1.5 3,0 6,-14 3,-9 7,-20 1,-1 1,-2 v -1 q 0,0 0,0 l 1,-1 q 1,-4 3,-8 0,-1 0,-1 2,-3 3,-6 z m -102,-18 -29,-3 q -12,-1 -21,-1 -9,0 -10,3 -1,0 -1,2 0,3 4,13 4,10 12,25 l 18,35 z m 55,62 q -4,-12 -11.5,-26.5 Q 1210,922 1205,918 q -4,-4 -8,-4 -9,0 -20,27.5 -11,27.5 -15,91.5 -2,24 -2,41.5 0,17.5 4.5,25.5 4.5,8 16.5,10.5 12,2.5 32,2.5 h 31 v -56 q 0,-24 -3.5,-49.5 Q 1237,982 1229,963 Z m -91,82 q -5,-51 -18.5,-82.5 Q 1106,931 1091,931 q -2,0 -3,0 -6,2 -10.5,6.5 -4.5,4.5 -8,15.5 -3.5,11 -5,30.5 -1.5,19.5 -4.5,49.5 l -5,71 h 89 z m -456,-4 q -3,-28 -3,-47 0,-4 0.5,-15.5 0.5,-11.5 6.5,-11.5 6,0 6,11 0,7 5.5,14 5.5,7 12.5,11 9,5 33,8.5 24,3.5 47.5,4 23.5,0.5 40.5,0.5 17,0 44,-0.5 27,-0.5 62,-3.5 33,-3 57,-3 24,0 27,5 0,0 0,1 0,1 -2.5,3 -2.5,2 -14.5,4 -12,2 -34.5,6 -22.5,4 -44.5,7 -53,6 -89.5,15 -36.5,9 -66.5,20 -30,11 -49,23 -19,12 -19,24 0,4 2,4 1,0 3,-2 1,-1 2,-1 2,0 2.5,3.5 0.5,3.5 0.5,5.5 0,5 -1,11 0,3 0,7 0,18 5.5,24.5 5.5,6.5 24.5,16.5 26,14 65,26.5 39,12.5 84.5,26 45.5,13.5 90,25 44.5,11.5 66.5,15.5 17,3 26.5,7 9.5,4 9.5,8 0,5 -14,5 -3,0 -16,-1 -13,-1 -58,-10 -54,-12 -103,-18 -49,-6 -82,-7 -33,-1 -52,-1 -19,0 -43.5,1 -24.5,1 -40.5,12 -7,4 -11,4 -5,0 -6,-4 -1,-4 -1,-7 0,-13 12,-46 7,-19 11.5,-38 4.5,-19 4.5,-29 0,-17 11,-23 4,-3 4,-5 0,-2 -1,-4 -6,-4 -10,-27.5 -4,-23.5 -5,-54.5 z m 84,-8 q -15,-3 -30,-5 -15,-2 -21,-5 -4,-1 -6,-1 -4,0 -6,3.5 -2,3.5 -2,33.5 0,0 0,0 0,1 0,1 0,1 0,1 0,0 0,1 0,0 0,0 v 5 q 0,0 0,0 v 2 q 0,0 0,0 0,9 2,9 1,0 15.5,-6 14.5,-6 35.5,-15 l 49,-19 z m 408,95 q -5,-2 -24.5,-3.5 -19.5,-1.5 -43.5,-2.5 l -58,-3 34,46 q 15,18 25,34.5 10,16.5 10,27.5 0,6 3,6 2,0 7.5,-4.5 5.5,-4.5 10.5,-24.5 1,-13 8.5,-27.5 7.5,-14.5 19.5,-26.5 12,-12 12,-18 0,-3 -4,-4 z m -428,82 q -16,-9 -29.5,-15 -13.5,-6 -16.5,-6 -6,0 -14,29 l -9,28 71,-1 q 30,0 48,-2.5 18,-2.5 18,-6.5 0,-1 0,-2 -3,-3 -11,-3 -9,0 -24.5,-6 -15.5,-6 -32.5,-15 z"
     id="path1" />
</svg>
