<?xml version="1.0" encoding="UTF-8" standalone="no"?>
<svg
   width="2000"
   height="2000"
   version="1.1"
   id="svg1"
   sodipodi:docname="u120FB.svg"
   inkscape:version="1.3.2 (091e20e, 2023-11-25)"
   xmlns:inkscape="http://www.inkscape.org/namespaces/inkscape"
   xmlns:sodipodi="http://sodipodi.sourceforge.net/DTD/sodipodi-0.dtd"
   xmlns="http://www.w3.org/2000/svg"
   xmlns:svg="http://www.w3.org/2000/svg">
  <defs
     id="defs1" />
  <sodipodi:namedview
     id="namedview1"
     pagecolor="#505050"
     bordercolor="#eeeeee"
     borderopacity="1"
     inkscape:showpageshadow="0"
     inkscape:pageopacity="0"
     inkscape:pagecheckerboard="0"
     inkscape:deskcolor="#505050"
     inkscape:zoom="0.379"
     inkscape:cx="1000"
     inkscape:cy="998.68074"
     inkscape:window-width="1392"
     inkscape:window-height="1212"
     inkscape:window-x="0"
     inkscape:window-y="0"
     inkscape:window-maximized="0"
     inkscape:current-layer="svg1" />
  <path
     d="m 1253,644 q 23,-2 47.5,-2.5 24.5,-0.5 32.5,-2.5 2,0 3,0 10,0 10,5 0,1 -2,5.5 -2,4.5 -17,12.5 -17,7 -26.5,23 -9.5,16 -16.5,49.5 -7,33.5 -13,90 -6,56.5 -10,134.5 -3,39 -3.5,50 -0.5,11 -0.5,16 0,7 1,12 1,5 4,5 1,0 3,-0.5 2,-0.5 6,-1.5 9,-2 13,-2 2,0 2.5,0.5 0.5,0.5 0.5,1.5 0,3 -2,9 -3,7 -6,23 -3,16 -5,28 -1,10 -1,19 0,15 4.5,30 4.5,15 22.5,53 12,24 24,46.5 12,22.5 21,32.5 7,9 7,13 0,2 -3,2 -2,0 -9,-1.5 -7,-1.5 -22,-17.5 -27,-32 -66.5,-38 -39.5,-6 -69.5,-6 -34,0 -91.5,7 -57.5,7 -152,31.5 Q 844,1296 739,1337 q -35,12 -56,18 -21,6 -28,6 -5,0 -6,-2 -1,-1 -1,-2 0,-1 1,-3 1,-2 12.5,-7.5 11.5,-5.5 36,-14.5 24.5,-9 39.5,-15 44,-15 66.5,-24 22.5,-9 48.5,-18.5 26,-9.5 54,-21 28,-11.5 70,-29.5 33,-15 59,-27 26,-12 37.5,-27.5 11.5,-15.5 12,-40.5 0.5,-25 0.5,-53 0,-51 -3,-85.5 -3,-34.5 -8,-65.5 -5,-31 -11,-55 -6,-24 -17,-39 -3,-3 -6.5,-9.5 -3.5,-6.5 -3.5,-8.5 0,-3 14.5,-3.5 14.5,-0.5 22.5,-0.5 17,0 38,1 37,2 54.5,5 17.5,3 17.5,10 0,8 -12,8 -23,0 -35,32 -12,32 -24,121 -10,78 -11,105 -1,27 -1,31 0,38 12,38 1,0 2,0 4,-2 17,-8.5 13,-6.5 28.5,-16.5 15.5,-10 30.5,-20.5 15,-10.5 26,-19.5 l 25,-21 -4,-139 q -5,-215 -53,-266 -9,-10 -9,-18 0,-1 20.5,-3.5 20.5,-2.5 57.5,-3.5 z m 29,39 q 3,-9 3,-13 0,-5 -4.5,-6.5 -4.5,-1.5 -31.5,-1.5 -35,0 -38,2 -3,2 -3,5 0,5 9,20 3,7 10,29 7,22 13,46 7,30 10,35 3,5 3,5 2,0 2,-7 0,-9 3,-25 3,-16 7.5,-34 4.5,-18 9.5,-34.5 5,-16.5 7,-20.5 z m -311,1 q 15,-1 40.5,-2 25.5,-1 30.5,-2 3,0 10.5,0.5 7.5,0.5 13.5,3.5 7,2 7,4 0,1 -2,3 -2,2 -22,8 -10,3 -17.5,6 -7.5,3 -12,8.5 -4.5,5.5 -9,13.5 -4.5,8 -9.5,23 -12,39 -20,114 -8,75 -14,195 -3,60 -6,93 -3,33 -6,33 0,0 0,0 -3,-3 -5.5,-47 Q 947,1094 946,1047 943,911 928,828.5 913,746 887,717 q -4,-4 -8.5,-11 -4.5,-7 -4.5,-10 0,-4 22.5,-7 22.5,-3 74.5,-5 z m 24,24 q 0,-3 -12.5,-3.5 Q 970,704 952,704 q -32,0 -37,1.5 -5,1.5 -5,5.5 0,5 4,14 6,15 16,50 10,35 17,70 l 11,49 6,-49 q 3,-21 8,-46.5 5,-25.5 13,-45.5 4,-13 7,-27.5 3,-14.5 3,-17.5 z m 126,122 q -6,-3 -16.5,-4 -10.5,-1 -19.5,-1 -18,0 -19,1.5 -1,1.5 -1,2.5 0,5 7,19 6,15 10.5,33 4.5,18 7.5,33 l 6,37 13,-49 q 6,-21 11.5,-37.5 5.5,-16.5 8.5,-21.5 2,-3 2,-5 0,-5 -10,-8 z m 158,364 q -11,-18 -16,-36 -5,-18 -7,-33 l -4,-39 -32,27 q -12,12 -47,33 -35,21 -74,39 -63,33 -68,37 -5,4 -5,5 0,2 8,2 9,0 29,-3 54,-8 88.5,-9 34.5,-1 43.5,-1 46,0 70,7 9,3 15,3 5,0 6.5,-2.5 1.5,-2.5 1.5,-4.5 0,-8 -9,-25 z"
     id="path1" />
</svg>
