<?xml version="1.0" encoding="UTF-8" standalone="no"?>
<svg
   width="2000"
   height="2000"
   version="1.1"
   id="svg1"
   sodipodi:docname="u1201E.svg"
   inkscape:version="1.3.2 (091e20e, 2023-11-25)"
   xmlns:inkscape="http://www.inkscape.org/namespaces/inkscape"
   xmlns:sodipodi="http://sodipodi.sourceforge.net/DTD/sodipodi-0.dtd"
   xmlns="http://www.w3.org/2000/svg"
   xmlns:svg="http://www.w3.org/2000/svg">
  <defs
     id="defs1" />
  <sodipodi:namedview
     id="namedview1"
     pagecolor="#505050"
     bordercolor="#eeeeee"
     borderopacity="1"
     inkscape:showpageshadow="0"
     inkscape:pageopacity="0"
     inkscape:pagecheckerboard="0"
     inkscape:deskcolor="#505050"
     inkscape:zoom="0.379"
     inkscape:cx="1000"
     inkscape:cy="998.68074"
     inkscape:window-width="1392"
     inkscape:window-height="1212"
     inkscape:window-x="0"
     inkscape:window-y="0"
     inkscape:window-maximized="0"
     inkscape:current-layer="svg1" />
  <path
     d="m 1136,647 q 0,-10 12,-10 5,0 12,2 14,4 42,6 28,2 57,2 15,-1 27,-1 12,0 27,1 15,1 15,3 0,2 -6.5,12.5 -6.5,10.5 -11.5,17.5 -29,45 -43.5,87 -14.5,42 -19.5,99 l -6,65 36,15 q 18,8 63,14 45,6 113,10 34,2 60.5,4.5 26.5,2.5 47,4 20.5,1.5 32.5,3 12,1.5 13,1.5 3,3 3,5 0,2 -3.5,4 -3.5,2 -17,2.5 -13.5,0.5 -26.5,0.5 -12,0 -36.5,-0.5 -24.5,-0.5 -68.5,-3.5 -40,-2 -70,-3 -30,-1 -54.5,-1.5 Q 1308,986 1291,986 h -1 q -1,0 -2,0 h -1 q -1,0 -2,0 h -1 q 0,0 -1,0 h -1 q 0,0 0,0 h -1 q -1,0 -1,0 h -1 q 0,0 -1,0 -1,0 -1,0 h -7 q 0,0 -1,0 h -1 l -27,5 2,117 3,115 166,3 q 75,2 120,4.5 45,2.5 45,7.5 0,5 -45,8 -45,3 -123,3 h -168 l 6,51 q 2,18 2,31 0,23 -7,27 -1,1 -2,1 -8,0 -8,-43 0,-22 -2,-36.5 -2,-14.5 -11,-21.5 -9,-7 -27.5,-8 -18.5,-1 -52.5,-1 h -81 v 57 q 0,23 -2,40 -2,17 -7,17 -5,0 -7,-17 -2,-17 -2,-42 v -58 l -31,7 q -45,8 -87.5,24 -42.5,16 -71.5,35 -19,13 -29,13 -3,0 -6.5,-2 -3.5,-2 -3.5,-13 0,-11 4,-28 l 6,-33 h -54 q -32,0 -43,2 -11,2 -11,14 0,11 -4.5,11.5 -4.5,0.5 -5.5,0.5 -6,0 -9,-8 -3,-7 -9,-7 -3,0 -10.5,3.5 -7.5,3.5 -21,13.5 -13.5,10 -25.5,23 -12,13 -15,23 -2,8 -9,14 -7,6 -13,6 -5,0 -7,-2.5 -2,-2.5 -2,-3.5 0,-2 1,-3 2,-4 4,-36.5 2,-32.5 2,-74.5 1,-42 2.5,-72 1.5,-30 3.5,-30 2,0 15,10 13,10 30,24 16,14 29.5,23.5 13.5,9.5 16.5,9.5 2,0 3.5,-8.5 1.5,-8.5 2,-23.5 0.5,-15 1,-28 0.5,-13 0.5,-20 0,-13 -1,-28 l -3,-108 -39,2 q -19,1 -46,8 -27,7 -56,16.5 -29,9.5 -57,22 -28,12.5 -49,25.5 -18,11 -30,16 -12,5 -16,5 -3,0 -4,-2 -1,-2 -1,-7 0,-4 1,-13.5 1,-9.5 4,-23.5 5,-17 7.5,-46 2.5,-29 2.5,-59 0,-20 1,-37.5 1,-17.5 3,-17.5 2,0 11.5,7.5 9.5,7.5 17.5,15.5 37,35 78,49.5 41,14.5 103,14.5 h 74 l -6,-27 Q 683,899 675.5,871.5 668,844 660.5,818.5 653,793 645.5,771 638,749 630,731 q -5,-10 -10,-22 -5,-12 -6,-15 0,-1 11.5,-2 11.5,-1 29,-1.5 17.5,-0.5 38.5,-0.5 21,0 39.5,0.5 18.5,0.5 31.5,1.5 13,1 14,3 0,0 0,1 0,3 -7,17.5 -7,14.5 -19,33.5 -11,17 -17,29.5 -6,12.5 -10,26 -4,13.5 -6,30.5 -2,17 -4,41 l -5,76 h 48 q 20,0 37.5,-3.5 Q 813,943 822,934 q 4,-4 7,-4 3,0 6,7 2,6 7,9.5 5,3.5 11,3.5 8,0 10,-5 2,-5 2,-14 0,-3 0,-7 -2,-17 -8,-22 -6,-5 -24,-7 -6,0 -12,0 -9,0 -20.5,1 -11.5,1 -25.5,9 -10,6 -15,6 -4,0 -4.5,-2.5 -0.5,-2.5 -0.5,-2.5 0,-11 32,-57 9,-14 19.5,-30.5 Q 817,802 820,792 q 3,-10 3,-16 0,-3 -1,-8.5 -1,-5.5 -7,-16.5 -5,-11 -11,-25.5 -6,-14.5 -10,-22.5 -2,-9 -2,-14 0,-3 1,-4.5 1,-1.5 4,-1.5 2,0 5,1 7,2 22,3 15,1 37.5,2.5 22.5,1.5 51.5,2.5 29,1 61,3 29,1 56.5,2.5 27.5,1.5 48,3 20.5,1.5 33,3 12.5,1.5 12.5,2.5 0,0 0,0 0,2 -8,12 -8,10 -23,24 -13,13 -20,21 -7,8 -10.5,19 -3.5,11 -4,29.5 -0.5,18.5 -0.5,51.5 v 87 h 35 q 14,0 23.5,1.5 9.5,1.5 9.5,3.5 0,1 -9.5,16.5 -9.5,15.5 -20.5,31.5 -15,22 -22,34 -7,12 -10.5,25 -3.5,13 -4.5,30.5 -1,17.5 -1,45.5 v 78 l 51,7 q 20,2 44.5,4 24.5,2 38.5,2 h 30 v -115 q 0,-24 -0.5,-45 -0.5,-21 -1.5,-36.5 -1,-15.5 -2.5,-25 -1.5,-9.5 -3.5,-9.5 -2,0 -14,7 -12,7 -26,17 -15,9 -25,14 -10,5 -14,5 -1,0 -2,-1 -2,-2 -2,-10 0,-2 0.5,-9 0.5,-7 4.5,-20 4,-16 6.5,-38.5 2.5,-22.5 2.5,-40.5 0,-16 2,-27.5 2,-11.5 5,-11.5 3,0 13.5,6.5 10.5,6.5 19.5,11.5 19,11 25,13.5 6,2.5 8,2.5 4,0 4,-4 0,-4 -4.5,-24.5 -4.5,-20.5 -12,-47 -7.5,-26.5 -16.5,-55 -9,-28.5 -17.5,-54 -8.5,-25.5 -16,-43.5 -7.5,-18 -12.5,-23 -3,-3 -5,-9 -2,-6 -2,-10 z m 153,23 q 0,-2 -17.5,-2.5 Q 1254,667 1228,665 h -62 l 15,35 q 6,14 14.5,41 8.5,27 15.5,50 l 15,59 11,-48 q 5,-20 13.5,-46 8.5,-26 21.5,-51 5,-9 11,-21.5 6,-12.5 6,-13.5 z M 989,736 Q 980,725 971.5,717.5 963,710 958,710 q -6,0 -17,16 -11,16 -21,36.5 -10,20.5 -16,38.5 -6,18 -6,25 0,2 0,4 1,8 19,21 18,13 40.5,26.5 22.5,13.5 44.5,23.5 22,10 28,10 6,0 8,-12 2,-12 2,-27 0,-37 -12.5,-68 Q 1015,773 989,736 Z m -66,-26 h -51 q -34,0 -40.5,2.5 -6.5,2.5 -6.5,9.5 0,4 2,10 4,14 7.5,15 3.5,1 4.5,1 7,0 17,-11 8,-9 12,-9 3,0 3.5,3 0.5,3 0.5,6 0,9 -6,24 -6,16 -6.5,23.5 -0.5,7.5 -0.5,9.5 0,12 5,23 3,6 4,6.5 1,0.5 1,0.5 1,0 5,-10 2,-4 9.5,-21.5 Q 891,775 901,755 Z m -181,8 q 0,-4 -14.5,-6 -14.5,-2 -37.5,-2 -29,0 -35.5,2.5 -6.5,2.5 -6.5,8.5 0,4 2,10 1,3 8,23 7,20 15,42 l 18,51 12,-42 q 5,-17 12,-35.5 7,-18.5 15,-30.5 3,-4 7.5,-11 4.5,-7 4.5,-10 z m 336,1 h -78 l 21,30 q 9,11 15,18.5 6,7.5 7,7.5 0,0 0,0 2,-2 7.5,-10 5.5,-8 10.5,-19 z M 845,853 q -2,-22 -7.5,-23 -5.5,-1 -6.5,-1 -9,0 -22,20 -9,13 -9,18 0,2 1.5,4.5 1.5,2.5 19.5,2.5 18,0 21.5,-4 3.5,-4 3.5,-10 0,-3 -1,-7 z m 153,66 Q 981,913 959,906.5 937,900 920,897 910,896 905.5,895.5 901,895 900,895 q -6,0 -9.5,2 -3.5,2 -4,8 -0.5,6 -0.5,17 v 28 h 76 q 33,0 55.5,-2 22.5,-2 22.5,-6 0,-3 -12,-9 -12,-6 -30,-14 z M 515,955 Q 492,946 471.5,934.5 451,923 439,913 q -7,-7 -10,-7 -1,0 -2.5,2 -1.5,2 -1.5,25 0,21 -2,41.5 -2,20.5 -4,32.5 l -6,32 36,-20 q 15,-8 38.5,-16.5 Q 511,994 527,989 l 42,-13 z m 685,-24 q -13,-10 -21,-10 -14,0 -14,30 0,10 -1.5,23 -1.5,13 -4.5,21 -2,4 -2,6 0,3 2,3 0,0 2.5,-0.5 2.5,-0.5 15.5,-6.5 41,-19 41,-39 0,-13 -18,-27 z m 58,36 q 1,-2 1,-4 0,-4 -8,-4 -8,0 -8,4 0,2 1,4 4,2 7,2 4,0 7,-2 z m -468,12 q 0,-4 -11,-6.5 -11,-2.5 -31,-2.5 -9,0 -16.5,0.5 -7.5,0.5 -11.5,3.5 -4,3 -6.5,9 -2.5,6 -4.5,17 -2,11 -2,25 0,3 0.5,14 0.5,11 4.5,25 l 6,33 36,-54 q 15,-23 25.5,-41 10.5,-18 10.5,-23 z m 76,27 q 0,-22 -3,-29 -3,-7 -14,-7 -13,0 -26.5,10 -13.5,10 -13.5,19 0,5 6.5,12.5 6.5,7.5 14.5,15 8,7.5 17,13.5 9,6 12,6 3,0 5,-11.5 2,-11.5 2,-28.5 z m 107,-36 h -87 v 93 l 63,27 q 25,12 43,22 18,10 18,16 0,5 -8,5 -2,0 -9.5,-1 -7.5,-1 -34.5,-13 -35,-15 -52,-15 -2,0 -11,1.5 -9,1.5 -9,26.5 0,18 7.5,25.5 7.5,7.5 34.5,17.5 16,6 39,13 23,7 39,11 l 36,9 -5,-54 q -1,-26 -10,-57.5 -9,-31.5 -23,-62.5 z m 114,0 h -44 q -18,0 -29,2 -11,2 -11,4 0,0 0,0 l 18,43 q 5,16 10.5,26 5.5,10 8.5,10 2,0 9.5,-12.5 7.5,-12.5 16.5,-29.5 z m -254,81 q -27,-23 -38,-23 -11,0 -23,25 -3,7 -4,10 -1,3 -1,5 0,3 3,4.5 3,1.5 13.5,2 10.5,0.5 28.5,0.5 h 50 z m 33,71 q 0,-10 -1,-16 -1,-6 -6,-8.5 -5,-2.5 -16,-2.5 -11,0 -31,1 -31,0 -50.5,2.5 -19.5,2.5 -30.5,9.5 -11,7 -14.5,20.5 -3.5,13.5 -3.5,37.5 0,13 1,22 1,9 4,15 3,6 9.5,9 6.5,3 15.5,6 18,6 30,7.5 12,1.5 18,1.5 7,0 11,-1 14,-1 18,-8 4,-7 4,-32 1,-21 1.5,-32.5 0.5,-11.5 2,-15.5 1.5,-4 3.5,-4 0,0 2,1 2,1 6,6 11,11 18,11 2,0 5.5,-3 3.5,-3 3.5,-27 z m -229,56 q 0,-3 -5,-5 -5,-2 -9,-2 -10,0 -12.5,12 -2.5,12 -2.5,46 v 56 l 42,-26 q 18,-10 31,-20.5 13,-10.5 13,-13.5 0,-2 -8,-9 -8,-7 -21,-14 -11,-7 -19.5,-13.5 Q 637,1182 637,1178 Z m 245,3 q -10,-5 -19,-7.5 -9,-2.5 -10,-2.5 -2,0 -5,16.5 -3,16.5 -5,37 -2,20.5 -3,35 -1,14.5 -1,19.5 0,3 0,4 0,0 2,0 5,0 22.5,-5.5 17.5,-5.5 39.5,-14.5 16,-6 29.5,-10.5 13.5,-4.5 26,-8.5 12.5,-4 22.5,-7.5 10,-3.5 20,-5.5 13,-3 13,-5 0,-1 -2.5,-2.5 Q 1009,1222 978,1213 945,1203 919.5,1194.5 894,1186 882,1181 Z"
     id="path1" />
</svg>
