<?xml version="1.0" encoding="UTF-8" standalone="no"?>
<svg
   width="2000"
   height="2000"
   version="1.1"
   id="svg1"
   sodipodi:docname="u121E7.svg"
   inkscape:version="1.3.2 (091e20e, 2023-11-25)"
   xmlns:inkscape="http://www.inkscape.org/namespaces/inkscape"
   xmlns:sodipodi="http://sodipodi.sourceforge.net/DTD/sodipodi-0.dtd"
   xmlns="http://www.w3.org/2000/svg"
   xmlns:svg="http://www.w3.org/2000/svg">
  <defs
     id="defs1" />
  <sodipodi:namedview
     id="namedview1"
     pagecolor="#505050"
     bordercolor="#eeeeee"
     borderopacity="1"
     inkscape:showpageshadow="0"
     inkscape:pageopacity="0"
     inkscape:pagecheckerboard="0"
     inkscape:deskcolor="#505050"
     inkscape:zoom="0.379"
     inkscape:cx="1000"
     inkscape:cy="998.68074"
     inkscape:window-width="1392"
     inkscape:window-height="1212"
     inkscape:window-x="0"
     inkscape:window-y="0"
     inkscape:window-maximized="0"
     inkscape:current-layer="svg1" />
  <path
     d="m 710.5,704.5 q 2,-52 5.5,-60.5 3.5,-8.5 6.5,-8.5 4,0 9,7 8,9 22.5,17 14.5,8 28.5,15 17,7 29.5,10.5 12.5,3.5 31.5,5.5 19,2 48.5,3.5 29.5,1.5 68.5,2.5 37,1 66,1 1,0 2,0 h 2 q 0,0 0,0 h 2 q 1,0 2,0 h 8 q 2,0 4,0 h 3 q 0,0 1,0 h 2 q 1,0 2,0 h 19 q 1,0 2,0 h 5 q 25,0 44,-0.5 19,-0.5 33,-1.5 12,-2 20.5,-4 8.5,-2 11,-4.5 2.5,-2.5 2.5,-6.5 0,-2 -2,-7.5 -2,-5.5 -7,-18.5 0,0 0,-1 0,-5 68,-5 10,0 22,0 38,2 66.5,4 28.5,2 29.5,2 1,1 1,1 0,3 -4.5,7.5 -4.5,4.5 -8.5,8.5 -12,12 -21.5,28.5 -9.5,16.5 -18.5,37 -9,20.5 -16,42.5 -7,22 -10,37 -5,29 -6,82 -1,53 -1,93 0,53 1,119 1,57 1,102.5 0,45.5 -0.5,79 -0.5,33.5 -1.5,53 -1,19.5 -2,19.5 -3,0 -5,-15 -2,-15 -4,-35 l -1,-49 h -200 q -73,0 -114,0.5 -41,0.5 -66.5,2.5 -25.5,2 -43.5,6.5 -18,4.5 -41,11.5 -18,6 -34.5,12 -16.5,6 -32,12 -15.5,6 -29.5,11.5 -14,5.5 -23,10.5 l -45,21 5,-91 q 1,-38 2.5,-65.5 1.5,-27.5 1.5,-29.5 0,0 1,0 2,0 14,7.5 12,7.5 26,16.5 30,20 52.5,30.5 22.5,10.5 57.5,16 35,5.5 92,6.5 57,1 153,1 h 228 l -4,-39 q -4,-21 -12,-35.5 -8,-14.5 -28,-35.5 -19,-20 -43,-40 -24,-20 -47.5,-36 -23.5,-16 -43.5,-27 -20,-11 -48,-16 -9,-1 -21,-3.5 -12,-2.5 -14.5,-4.5 -2.5,-2 -2.5,-4 0,-2 4,-5 4,-3 12,-8 18,-11 44,-32.5 26,-21.5 53,-46 27,-24.5 50,-47 23,-22.5 34,-36.5 6,-9 8.5,-10.5 2.5,-1.5 3.5,-1.5 2,0 2.5,2 0.5,2 0.5,3 0,4 -2.5,11 -2.5,7 -12.5,22 -11,18 -24,42 -13,24 -22.5,46 -9.5,22 -13,35 -3.5,13 -3.5,22 0,5 1,10 4,13 12,13 4,0 4,3 0,1 -1,3 -1,2 -1,5 0,9 13,23.5 13,14.5 38,36.5 l 55,49 v -109 q 0,-36 -1,-61 -1,-25 -3,-46 -2,-21 -6.5,-42.5 -4.5,-21.5 -13.5,-56.5 -11,-45 -19,-71 -8,-26 -24,-36.5 -16,-10.5 -48.5,-10.5 -32.5,0 -74.5,1 -77,1 -117,3.5 -40,2.5 -72.5,8 -32.5,5.5 -62,14 -29.5,8.5 -63.5,22.5 -22,8 -34.5,13 -12.5,5 -16.5,5 -1,0 -2,0 0,-1 0,-1 v -1 q 0,0 0,-1 0,-1 0,-2 v -1 q 0,-1 0,-2 v -15 q 0,-21 2,-50 z m 619,-35 q 0,-1 -18.5,-2 -18.5,-1 -44.5,-1 h -63 l 12,30 q 6,13 14.5,39 8.5,26 15.5,51 7,26 13.5,44.5 6.5,18.5 7.5,18.5 4,0 6.5,-11 2.5,-11 3.5,-20 3,-22 11.5,-48.5 8.5,-26.5 17.5,-46.5 11,-20 17.5,-36 6.5,-16 6.5,-18 z m -576,6 q -11,-7 -16,-7 -3,0 -6,3.5 -3,3.5 -3,42.5 0,26 1.5,31.5 1.5,5.5 5.5,5.5 2,0 6,-2 6,-2 23.5,-8 17.5,-6 36.5,-13 l 47,-17 -38,-12 q -16,-3 -32,-10 -16,-7 -25,-14 z m -123,117 q 0,-6 18.5,-8 18.5,-2 48.5,-2 22,0 41.5,1 19.5,1 19.5,3 0,2 -7,13 -7,11 -13,21 -10,14 -14,23 -4,9 -7,19.5 -3,10.5 -4.5,25 -1.5,14.5 -2.5,35.5 0,27 0.5,46.5 0.5,19.5 3.5,19.5 3,0 17.5,-9 14.5,-9 34.5,-24 20,-15 43,-33 23,-18 44,-36 21,-18 38.5,-34 17.5,-16 27.5,-27 9,-11 12.5,-12.5 3.5,-1.5 5.5,-1.5 2,0 2.5,1.5 0.5,1.5 0.5,1.5 0,5 -4.5,14.5 -4.5,9.5 -14.5,21.5 -9,11 -21,30 -12,19 -22.5,38.5 -10.5,19.5 -18,35.5 -7.5,16 -7.5,24 0,6 3.5,6 3.5,0 14.5,-5 10,-6 37,-26.5 27,-20.5 57,-45 30,-24.5 56,-47.5 26,-23 40,-40 12,-14 17,-14 2,0 2,1.5 0,1.5 0,2.5 0,10 -23,44 -13,20 -25.5,41.5 -12.5,21.5 -22.5,40 -10,18.5 -15.5,32.5 -5.5,14 -5.5,20 0,5 3,12 3,7 8,12 5,3 6.5,7 1.5,4 1.5,7 0,2 -1,4 0,0 0,1 0,5 14.5,20 14.5,15 40.5,36 40,32 58.5,54 18.5,22 18.5,30 0,2 -1,3 -1,1 -2,1 -3,0 -11,-6.5 -8,-6.5 -17,-17.5 -12,-15 -36,-35 -24,-20 -50.5,-40.5 -26.5,-20.5 -50.5,-37 -24,-16.5 -35,-19.5 -5,-2 -20.5,-5 -15.5,-3 -29.5,-7 -16,-2 -24,-2 -2,0 -4,0 -2,0 -2,2 0,2 4,5 9,11 9,20 0,9 9,19 9,10 23,18 15,10 33.5,27 18.5,17 34.5,33.5 16,16.5 25,28.5 9,12 9,15 0,1 0,1 0,1 -1,1 -4,0 -20,-12.5 -16,-12.5 -38,-33.5 -113,-104 -186,-117 -17,-5 -29.5,-7 -12.5,-2 -13.5,-2 -2,0 -2.5,25.5 -0.5,25.5 -0.5,53.5 0,60 -2,77.5 -2,17.5 -4,17.5 -1,0 -3,-5 -2,-5 -5,-38.5 -3,-33.5 -4,-92.5 -1,-43 -2.5,-71 -1.5,-28 -4,-47 -2.5,-19 -7,-33 -4.5,-14 -12.5,-33 -9,-23 -17.5,-40 -8.5,-17 -12.5,-18 -6,-4 -6,-8 z m 92,20 q 1,-3 1,-6 0,-4 -4,-6 -4,-2 -23,-2 -31,0 -31,7 0,1 0,2 1,5 4.5,16.5 3.5,11.5 12.5,32.5 1,4 5,13 4,9 6,9 2,0 6,-8 4,-8 9,-25 2,-5 6,-16.5 4,-11.5 8,-16.5 z m 145,93 q 0,-3 -3,-3 -3,0 -14,7 -11,7 -49,38 l -54,45 39,10 q 19,5 27.5,7 8.5,2 12.5,2 3,0 6,-1 3,-1 3.5,-7 0.5,-6 0.5,-12 0,-16 4.5,-31 4.5,-15 12.5,-28 6,-8 10,-17 4,-9 4,-10 z m 124,32 q 7,-14 10.5,-23 3.5,-9 3.5,-11 0,-1 -1,-1 -2,0 -20,13 -2,2 -4,3 l -1,1 q -9,7 -19,15 l -3,2 q -4,3 -8,6 l -4,3 q -2,1 -3,2 l -57,45 41,10 q 26,6 37,6 3,0 7.5,-1 4.5,-1 4.5,-10 0,-3 -1,-7 -1,-2 -1,-4 0,-6 4,-18.5 4,-12.5 14,-30.5 z m 155,3 q 4,-7 6,-13.5 2,-6.5 2,-8.5 0,-1 0,-1 0,0 -1,0 -3,0 -16.5,10 -13.5,10 -30.5,24 -23,19 -33,29 -10,10 -10,15.5 0,5.5 10,9 10,3.5 30,6.5 14,3 20,3 3,0 5.5,-1.5 2.5,-1.5 2.5,-16.5 0,-15 4,-29 4,-14 11,-27 z m -360,314 q -17,-5 -40.5,-14.5 -23.5,-9.5 -40.5,-19.5 l -42,-23 v 128 l 30,-14 q 13,-5 36.5,-14 23.5,-9 44.5,-16 l 53,-18 z"
     id="path1" />
</svg>
