<?xml version="1.0" encoding="UTF-8" standalone="no"?>
<svg
   width="2000"
   height="2000"
   version="1.1"
   id="svg1"
   sodipodi:docname="u1214B.svg"
   inkscape:version="1.3.2 (091e20e, 2023-11-25)"
   xmlns:inkscape="http://www.inkscape.org/namespaces/inkscape"
   xmlns:sodipodi="http://sodipodi.sourceforge.net/DTD/sodipodi-0.dtd"
   xmlns="http://www.w3.org/2000/svg"
   xmlns:svg="http://www.w3.org/2000/svg">
  <defs
     id="defs1" />
  <sodipodi:namedview
     id="namedview1"
     pagecolor="#505050"
     bordercolor="#eeeeee"
     borderopacity="1"
     inkscape:showpageshadow="0"
     inkscape:pageopacity="0"
     inkscape:pagecheckerboard="0"
     inkscape:deskcolor="#505050"
     inkscape:zoom="0.379"
     inkscape:cx="1000"
     inkscape:cy="998.68074"
     inkscape:window-width="1392"
     inkscape:window-height="1212"
     inkscape:window-x="0"
     inkscape:window-y="0"
     inkscape:window-maximized="0"
     inkscape:current-layer="svg1" />
  <path
     d="m 839,732 q 25,-26 40.5,-41 15.5,-15 28,-26.5 12.5,-11.5 20.5,-18 8,-6.5 11,-6.5 2,0 2.5,1 0.5,1 0.5,1 0,2 -3.5,8.5 -3.5,6.5 -13,20.5 -9.5,14 -15.5,23 -45,67 -53,86 -8,19 -8,26 0,7 5,9 4,2 5,5 1,3 1,6 0,1 0,3 0,1 0,2 0,6 8.5,15.5 8.5,9.5 24.5,19.5 l 36,26 27,-30 q 10,-14 19,-29.5 9,-15.5 12,-29.5 4,-16 10,-16 1,0 4.5,1 3.5,1 3.5,15 0,4 0,8 0,5 0,10 0,10 1.5,25.5 1.5,15.5 5,32 3.5,16.5 9,29 5.5,12.5 9.5,14.5 0,0 1,0 5,0 18,-9 13,-9 31.5,-25 18.5,-16 40,-37 21.5,-21 41.5,-42 20,-21 36,-39.5 16,-18.5 27,-36.5 11,-17 14,-19 3,-2 4,-2 1,0 1,2 0,2 -2,10 -2,8 -12.5,32 -10.5,24 -27.5,55 -32,59 -38.5,83.5 -6.5,24.5 -6.5,32.5 0,14 10,14 5,0 5,4 0,3 -3,8 -2,5 -2,6 0,2 1,2 1,0 6.5,-3.5 5.5,-3.5 23,-19 17.5,-15.5 41,-38.5 23.5,-23 46.5,-47 23,-24 43.5,-46.5 20.5,-22.5 32.5,-39.5 15,-20 20,-20 2,0 2.5,1 0.5,1 0.5,2 0,9 -16,36 -11,20 -25,47 -14,27 -25.5,52 -11.5,25 -18.5,43.5 -7,18.5 -7,25.5 0,5 2.5,9.5 2.5,4.5 6.5,4.5 5,0 5.5,3.5 0.5,3.5 0.5,4.5 0,4 -1,7 -1,3 -1,6 0,15 23,33 9,7 19,12.5 10,5.5 16,5.5 8,0 8,9 0,6 4,13 4,7 10,14 6,7 12,12 6,5 9,5 3,0 3,-10 0,-2 -0.5,-11.5 -0.5,-9.5 -4,-30.5 -3.5,-21 -9,-42 -5.5,-21 -13.5,-36 -2,-4 -8.5,-16.5 Q 1367,934 1362,926 q -8,-13 -8,-19 0,-4 2,-5.5 2,-1.5 5,-1.5 7,0 20,9 19,13 28,14 9,1 10,1 14,0 14,-15 0,-7 -3,-31.5 -3,-24.5 -7,-52 -4,-27.5 -8.5,-52.5 -4.5,-25 -8.5,-38 -4,-12 -12.5,-30 -8.5,-18 -19.5,-29 -18,-22 -18,-29 0,-1 0.5,-2.5 0.5,-1.5 5.5,-1.5 6,0 18,4 22,8 44,9 22,1 38,1 20,0 45,-1 23,-1 40,-1 29,0 39,2.5 10,2.5 10,4.5 0,4 -23,8 -38,8 -56.5,22 -18.5,14 -33.5,39 -11,19 -18.5,41 -7.5,22 -12,45 -4.5,23 -5.5,37.5 -1,14.5 -1,21.5 0,13 2,23 l 6,27 61,-4 q 20,-2 34,-2 17,0 23,2.5 6,2.5 6,4.5 0,5 -15,9 -61,18 -91,104.5 -30,86.5 -30,231.5 0,38 -2,63 -2,25 -7,25 -4,0 -6.5,-26.5 -2.5,-26.5 -2.5,-69.5 -2,-40 -3,-73 -1,-33 -4,-43 -3,-12 -16.5,-29 -13.5,-17 -30,-33 -16.5,-16 -33,-26.5 -16.5,-10.5 -38.5,-10.5 -32,0 -32,19 0,5 2,11 2,5 2,8 0,6 -6,6 -4,0 -6.5,-3 -2.5,-3 -2.5,-7 0,-8 -11,-8 -8,0 -23.5,6.5 -15.5,6.5 -36.5,16.5 -21,10 -44.5,21.5 -23.5,11.5 -43,22.5 -19.5,11 -32.5,19 -13,8 -13,11 0,2 8.5,9 8.5,7 24.5,15 11,6 19.5,12.5 8.5,6.5 8.5,12.5 0,4 -4,4 -2,0 -7,-1.5 -5,-1.5 -41,-19.5 l -44,-23 -54,38 q -23,14 -41,29.5 -18,15.5 -25,27.5 -6,11 -20,25 -14,14 -22,14 -4,0 -4,-3 0,-1 0.5,-4 0.5,-3 5.5,-11 8,-15 8,-35 0,-17 -8.5,-50 -8.5,-33 -37.5,-88 -15,-28 -22,-33 -7,-5 -23,-9.5 -16,-4.5 -44.5,-10.5 -28.5,-6 -63.5,-12 -31,-5 -42,-6 -11,-1 -18,-1 -4,0 -11.5,0.5 -7.5,0.5 -19,2.5 -11.5,2 -26.5,6 -42,13 -70.5,34.5 -28.5,21.5 -36.5,51.5 -3,11 -5.5,13 -2.5,2 -3.5,2 -2,0 -4,-5 -2,-5 -2,-19 0,-14 2,-34 3,-20 3,-40.5 0,-20.5 -3,-37.5 -3,-17 -8,-28.5 -5,-11.5 -14,-14.5 -3,-1 -3,-2 0,0 1.5,-1 1.5,-1 8.5,-1 2,-1 4,-1 6,0 16,4.5 10,4.5 19,12.5 9,6 29.5,12.5 20.5,6.5 46,11.5 25.5,5 53,8.5 27.5,3.5 46.5,3.5 15,0 23.5,-2.5 8.5,-2.5 18,-9 9.5,-6.5 22.5,-19 13,-12.5 30,-30.5 28,-30 47,-54.5 19,-24.5 20,-32.5 4,-9 8,-15 4,-6 7,-6 4,0 4.5,3.5 0.5,3.5 0.5,4.5 0,7 -3,16 -2,11 -5,33.5 -3,22.5 -4,45.5 -1,12 -1,22 0,32 10.5,55.5 10.5,23.5 33.5,23.5 7,0 10,2 3,2 3,4 0,1 -1,2 -1,1 -1,3 0,5 13.5,13.5 13.5,8.5 35.5,18 22,9.5 45.5,16.5 23.5,7 39.5,7 14,0 38,-5 24,-5 52.5,-13 28.5,-8 58.5,-18.5 30,-10.5 56,-20.5 l 42,-18 -21,-21 q -8,-9 -20.5,-18 -12.5,-9 -21.5,-12 -21,-9 -53.5,-17 -32.5,-8 -68,-15 -35.5,-7 -69.5,-11 -34,-4 -58,-4 h -69 l 34,-22 q 26,-17 26,-29 0,-2 -3.5,-10 -3.5,-8 -55.5,-33 -27,-14 -43,-17 -16,-3 -36,-3 -6,0 -12,0 -23,3 -32,3 -3,0 -5.5,-0.5 -2.5,-0.5 -2.5,-2.5 0,-3 4,-7 3,-4 3,-7 0,-3 -3,-4 -3,-1 -10,-1 -9,0 -25,2 -66,6 -108,27 -42,21 -65,65 -8,17 -12,17 -1,0 -2,-1 -1,-1 -1,-10 0,-14 4,-48 2,-26 2,-44 0,-8 -1,-21.5 -1,-13.5 -11,-33.5 -6,-13 -6,-18 0,-3 1.5,-3.5 1.5,-0.5 2.5,-0.5 7,0 24,10 22,13 44,19 22,6 49,11 27,5 56,8.5 29,3.5 53,3.5 17,0 26.5,-2 9.5,-2 21.5,-10 12,-8 30,-25 18,-17 41,-40 z m 657,-56 h -99 l 12,24 q 5,10 10.5,24.5 5.5,14.5 8.5,25.5 3,10 5,14 2,4 4,4 2,0 5,-2.5 3,-2.5 10.5,-14 Q 1460,740 1472,718 Z M 833,795 q 2,-9 3,-15.5 1,-6.5 1,-8.5 0,-3 -1,-4 0,0 -1,0 -3,0 -10,6 -7,6 -16,16 -9,10 -16.5,19 -7.5,9 -7.5,12 0,3 6,4.5 6,1.5 13,1.5 14,0 19.5,-6 5.5,-6 9.5,-25 z m -239,22 q -26,-8 -38,-11 -12,-3 -18,-3 -2,0 -6,1 -4,1 -4.5,7.5 Q 527,818 527,830 v 32 l 43,-21 q 27,-13 30,-15.5 3,-2.5 3,-3.5 0,-3 -9,-5 z m 562,47 q 3,-6 6,-13.5 3,-7.5 3,-9.5 0,-1 0,-1 0,0 -1,0 -3,0 -16.5,11.5 Q 1134,863 1115,883 l -48,48 28,6 q 17,3 23.5,3.5 6.5,0.5 8.5,0.5 5,0 8,-1 3,-1 4,-6 1,-5 1,-12 0,-12 4,-27 4,-15 12,-31 z m -163,8 q -2,-3 -5,-6.5 -3,-3.5 -6,-3.5 -4,0 -10,6 -6,6 -12,14.5 -6,8.5 -10.5,16.5 -4.5,8 -4.5,12 0,4 -4.5,8.5 -4.5,4.5 -9.5,8.5 -9,6 -9,9 0,1 4.5,2.5 4.5,1.5 38.5,1.5 h 49 l -9,-28 q -5,-11 -7.5,-23.5 Q 995,877 993,872 Z m 293,42 q 4,-12 7.5,-23.5 3.5,-11.5 3.5,-14.5 0,-2 -1,-2 0,0 0,0 -2,0 -14,11 -12,11 -29,29 -27,26 -31,32.5 -4,6.5 -4,9.5 0,5 6,8 14,5 23,5 9,0 17.5,-6 8.5,-6 21.5,-49 z m -498,137 q -2,-7 -5.5,-25.5 Q 779,1007 777,988 l -6,-48 -36,43 q -16,19 -22,29 -6,10 -6,16 0,3 1.5,7.5 1.5,4.5 13.5,9 12,4.5 34,10.5 24,7 31,7 0,0 1.5,-0.5 1.5,-0.5 1.5,-3.5 0,-2 -2,-7 z m 708,-105 q 0,-2 -15,-3.5 -15,-1.5 -36,-1.5 -31,0 -37.5,2.5 -6.5,2.5 -6.5,7.5 0,3 1,6 3,6 7.5,26.5 4.5,20.5 8.5,42.5 9,51 13.5,56 4.5,5 5.5,5 5,0 9,-23 4,-11 12,-32 8,-21 17,-38 8,-18 14.5,-32 6.5,-14 6.5,-16 z m -383,18 q 0,-5 -4,-5 -5,0 -5,5 0,4 5,4 4,0 4,-4 z m 138,28 q -13,-6 -26.5,-9.5 -13.5,-3.5 -20,-4 -6.5,-0.5 -9.5,-0.5 -4,0 -6,0.5 -2,0.5 -2,1.5 0,2 2,4 5,4 19,9 14,5 29.5,9 15.5,4 26.5,5.5 11,1.5 14,1.5 2,0 2,0 0,0 0,-1 0,-2 -7.5,-6.5 Q 1265,997 1251,992 Z m 14,39 q -7,-5 -14,-7 -7,-2 -12,-2 -7,0 -7,3 0,3 6,9 7,9 17,9 3,0 7,-1 8,-4 8,-5.5 0,-1.5 -5,-5.5 z m -767,2 q -19,-6 -27,-8 -8,-2 -12,-2 -4,0 -7.5,1.5 -3.5,1.5 -4,8.5 -0.5,7 -0.5,17 0,16 1.5,25 1.5,9 3.5,9 1,0 13.5,-6 12.5,-6 29.5,-14 l 41,-19 z m 383,89 q -38,-18 -43.5,-18 -5.5,0 -5.5,2 0,3 10,11 12,10 23,15 11,5 19,5 3,0 6,-1 14,0 14,-2 0,0 -1.5,-1.5 Q 901,1131 881,1122 Z m 156,31 q 2,-1 2,-2 0,-3 -13,-3 -10,0 -12.5,1 -2.5,1 -2.5,2 0,1 3,2 5,1 10,1 6,0 13,-1 z m -53,13 q -12,-6 -33.5,-8.5 -21.5,-2.5 -42.5,-2.5 -21,0 -34.5,2.5 -13.5,2.5 -13.5,6.5 0,1 0,2 1,5 5.5,19.5 4.5,14.5 9.5,28.5 9,32 13,35 4,3 6,3 6,0 13,-10 8,-11 22.5,-21.5 14.5,-10.5 33.5,-23.5 24,-16 26,-19 2,-3 2,-4 0,-4 -7,-8 z"
     id="path1" />
</svg>
