<?xml version="1.0" encoding="UTF-8" standalone="no"?>
<svg
   width="2000"
   height="2000"
   version="1.1"
   id="svg1"
   sodipodi:docname="u12119.svg"
   inkscape:version="1.3.2 (091e20e, 2023-11-25)"
   xmlns:inkscape="http://www.inkscape.org/namespaces/inkscape"
   xmlns:sodipodi="http://sodipodi.sourceforge.net/DTD/sodipodi-0.dtd"
   xmlns="http://www.w3.org/2000/svg"
   xmlns:svg="http://www.w3.org/2000/svg">
  <defs
     id="defs1" />
  <sodipodi:namedview
     id="namedview1"
     pagecolor="#505050"
     bordercolor="#eeeeee"
     borderopacity="1"
     inkscape:showpageshadow="0"
     inkscape:pageopacity="0"
     inkscape:pagecheckerboard="0"
     inkscape:deskcolor="#505050"
     inkscape:zoom="0.379"
     inkscape:cx="1000"
     inkscape:cy="998.68074"
     inkscape:window-width="1392"
     inkscape:window-height="1212"
     inkscape:window-x="0"
     inkscape:window-y="0"
     inkscape:window-maximized="0"
     inkscape:current-layer="svg1" />
  <path
     d="m 1288.5,665 q 30,-21 38.5,-23 8.5,-2 10.5,-2 4,0 4,4 0,3 -3,9 -5,9 -9,25.5 -4,16.5 -6,32.5 -2,13 -2,22.5 0,9.5 1.5,18 1.5,8.5 5.5,17.5 4,9 7,14 9,18 27,41.5 18,23.5 42,51 24,27.5 50,57 26,29.5 49,53 23,23.5 39.5,39 16.5,15.5 26.5,15.5 7,0 7,6 0,1 -1.5,6.5 -1.5,5.5 -26.5,13.5 -11,3 -40,13 -29,10 -62.5,22.5 -33.5,12.5 -68,25.5 -34.5,13 -63.5,25.5 -29,12.5 -50.5,21.5 -21.5,9 -29.5,14 -6,4 -17,13 -11,9 -24.5,20.5 -13.5,11.5 -28,24.5 -14.5,13 -29.5,28 -25,24 -45,42 -20,18 -22,18 -1,0 -2.5,-12.5 -1.5,-12.5 -3.5,-29.5 -1,-18 -5,-46 -4,-28 -9,-51 -5,-20 -7,-34.5 -2,-14.5 -2,-20.5 0,-5 1,-7 1,-2 1,-4 0,-5 -4,-14.5 -4,-9.5 -12,-20.5 l -21,-29 -192,4 q -72,1 -112,2 -40,1 -65.5,4 -25.5,3 -45,9.5 -19.5,6.5 -42.5,14.5 -49,18 -73.5,26.5 -24.5,8.5 -33,10 -8.5,1.5 -11.5,1.5 -5,0 -5.5,-1.5 -0.5,-1.5 -0.5,-2.5 0,-4 3,-13 8,-19 9,-33.5 1,-14.5 1,-19.5 0,-20 -5,-43 -4,-17 -4,-28 0,-9 2.5,-13 2.5,-4 6.5,-4 7,0 18,11 60,52 169,58 l 74,4 -5,-66 q -2,-22 -4,-35.5 -2,-13.5 -6,-23.5 -4,-10 -9.5,-17.5 -5.5,-7.5 -18.5,-18.5 -9,-9 -22.5,-20 -13.5,-11 -22.5,-16 -10,-6 -10,-9 0,-4 11,-6.5 11,-2.5 48,-2.5 18,0 43,1 l 97,2 -37,21 q -16,8 -29.5,18.5 -13.5,10.5 -17.5,17.5 -4,7 -6,21.5 -2,14.5 -2.5,26 -0.5,11.5 -0.5,17.5 0,12 1,28 1,16 4,32 l 6,27 h 277 l -30,-30 q -12,-13 -23,-22 -11,-9 -22.5,-15.5 -11.5,-6.5 -25.5,-11.5 -14,-5 -34,-10 l -39,-9 65,-31 q 37,-18 80,-42 43,-24 80,-46.5 37,-22.5 61,-39.5 24,-17 24,-22 0,0 0,0 0,0 0,-1 0,-4 16.5,-16 16.5,-12 46.5,-28 21,-12 50,-29.5 29,-17.5 46,-30.5 z m 19,35 q 1,-7 1.5,-12.5 0.5,-5.5 0.5,-7.5 0,-4 -1,-4 -1,0 -21.5,12.5 -20.5,12.5 -47.5,29.5 l -66,42 39,9 q 17,5 36.5,12 19.5,7 37.5,16 20,11 28,11 2,0 4,-1.5 2,-1.5 2,-5.5 0,-8 -6,-25 -7,-19 -8.5,-31.5 -1.5,-12.5 -1.5,-18.5 0,-13 3,-26 z m -754,-20 q 1,-3 2,-3 2,0 5,2.5 3,2.5 10,7.5 6,6 22,16 16,10 33,18 14,8 27,12.5 13,4.5 38.5,6.5 25.5,2 72,3 46.5,1 88.5,1 85,2 125.5,3 40.5,1 71,2.5 30.5,1.5 48.5,3 18,1.5 18,3.5 0,1 -15,3 -15,2 -41,3.5 -26,1.5 -60,3 -34,1.5 -87,2.5 -59,1 -105,3 -46,2 -79.5,7.5 -33.5,5.5 -62.5,16 -29,10.5 -57,22.5 -25,11 -36.5,15 -11.5,4 -13.5,4 -3,0 -4.5,-21.5 -1.5,-21.5 -2,-42.5 -0.5,-21 -0.5,-34 0,-14 0.5,-33 0.5,-19 2.5,-25 z m 124,76 q -14,0 -30.5,-6.5 Q 630.5,743 608.5,732 h -1 q -2,-1 -4,-2 l -1,-1 q -2,-1 -4,-2 -2,-1 -4,-2 -3,-1 -5,-3 h -1 q -2,-1 -4,-2 -10,-5 -12,-5 -1,0 -1,0 -1,2 -1.5,17 -0.5,15 -0.5,32 0,17 1,31 1,14 2,14 2,-1 20.5,-6.5 18.5,-5.5 37.5,-11.5 48,-17 54,-23 6,-6 6,-8 0,-4 -13,-4 z m 539,34 q -20,-6 -33,-10 -13,-4 -20.5,-4 -7.5,0 -12.5,4 -5,4 -12,10 l -5,5 q 0,0 0,0 l -9,9 q -8,8 -19.5,19 -11.5,11 -24.5,23.5 -13,12.5 -23,22.5 -29,27 -48.5,47.5 -19.5,20.5 -20.5,23.5 -3,22 -3.5,30 -0.5,8 -0.5,10 0,12 3,22.5 3,10.5 10.5,22 7.5,11.5 18.5,26.5 16,21 28,41.5 12,20.5 14,32.5 5,25 33,36.5 28,11.5 54,11.5 9,0 17,-1 19,-2 48,-10.5 29,-8.5 67,-20.5 38,-12 79.5,-26.5 41.5,-14.5 77.5,-27.5 36,-13 61,-23 25,-10 28,-13 1,-1 1,-2 0,-3 -5,-10 -5,-7 -15.5,-21 -10.5,-14 -25.5,-32 -15,-18 -37,-42 -30,-33 -54.5,-57.5 -24.5,-24.5 -48.5,-41 -24,-16.5 -51,-28.5 -27,-12 -71,-27 z m -58,71 q 8,-20 11,-20 1,0 2.5,1.5 1.5,1.5 7.5,37.5 5,36 10,46 5,10 18,14 6,2 13,5.5 7,3.5 9,5.5 2,3 26.5,11.5 24.5,8.5 56.5,17.5 32,9 55,17.5 23,8.5 23,12.5 0,4 -11,9.5 -11,5.5 -27,9.5 -22,7 -53.5,18.5 -31.5,11.5 -61.5,23.5 -30,12 -55,23.5 -25,11.5 -41,23.5 -14,10 -20,10 -1,0 -4,-1.5 -3,-1.5 -3,-23.5 0,-17 -3,-33 -3,-16 -6,-26 -5,-10 -6,-15.5 -1,-5.5 -1,-8.5 0,-3 1,-4 0,0 1,0 3,0 13,5.5 10,5.5 24,14.5 21,15 31,17.5 10,2.5 18,2.5 9,0 20,-2 15,-2 38.5,-9 23.5,-7 46,-14.5 22.5,-7.5 36.5,-13.5 14,-6 14,-9 0,-1 0,-1 -3,-3 -28.5,-9.5 -25.5,-6.5 -57.5,-13 -32,-6.5 -64,-11 -32,-4.5 -49,-4.5 h -56 l 27,-33 q 11,-14 23.5,-34 12.5,-20 21.5,-41 z m -433,-7 h -76 l 20,22 q 9,9 15,14.5 6,5.5 7,5.5 0,0 0,0 1,-1 6,-7.5 5,-6.5 11,-15.5 z m 281,41 q 12,-13 18,-20.5 6,-7.5 6,-9.5 0,-1 -1,-1 -4,0 -26.5,12 -22.5,12 -51.5,29 l -69,40 33,12 q 17,5 29,5 7,0 17,-3 10,-3 10,-15 0,-8 10,-21 10,-13 25,-28 z m 161,20 q 0,-8 -5,-8 -1,0 -6,2 -5,2 -15,19 -8,12 -8,18 0,1 1,3.5 1,2.5 17,2.5 22,0 22,-11 0,-3 -1,-6 -2,-4 -3.5,-10 -1.5,-6 -1.5,-10 z m -688,113 q -1,0 -3,-1 v -1 q -1,0 -2,0 l -1,-1 q 0,0 -1,0 v -1 q -1,0 -2,0 l -1,-1 q 0,0 -1,0 l -2,-1 q -1,-1 -2,-2 -13,-6 -14,-6 -1,0 -1.5,14.5 -0.5,14.5 -0.5,35.5 1,31 3.5,37.5 2.5,6.5 8.5,6.5 4,0 8,-1 2,-1 20,-7 18,-6 29,-10 43,-14 49.5,-20 6.5,-6 6.5,-8 0,-4 -11,-4 -13,0 -31,-6.5 -18,-6.5 -52,-23.5 z m 676,59 q 8,-5 8,-8 0,-1 -1,-3 -1,-2 -12,-8 -10,-6 -14,-6 -1,0 -3,1 -2,1 -2,13 0,15 3.5,16 3.5,1 5.5,1 5,0 15,-6 z m -539,12 q 0,-2 28.5,-3.5 28.5,-1.5 68.5,-1.5 46,0 72.5,2 26.5,2 26.5,8 0,2 -3.5,5 -3.5,3 -7.5,3 -6,0 -18,7 -12,7 -25,18 l -31,26 3,99 q 0,19 0,34 0,23 -1,43.5 -1,20.5 -6,20.5 -5,0 -7,-20.5 -2,-20.5 -2,-54.5 0,-24 -1,-40 -1,-16 -3.5,-27 -2.5,-11 -7.5,-20.5 -5,-9.5 -15,-22.5 -10,-13 -24,-28.5 -14,-15.5 -25,-25.5 -8,-6 -15,-13 -7,-7 -7,-9 z m 134,13 h -91 l 21,25 q 9,11 16.5,19 7.5,8 9.5,8 0,0 1,0 2,0 8.5,-7.5 6.5,-7.5 14.5,-18.5 z m 397,77 q -19,-2 -39,-5.5 -20,-3.5 -31,-6.5 -8,-3 -12,-3 -2,0 -3,1 -1,1 -1,3 0,2 2,6 2,7 5.5,24.5 3.5,17.5 6.5,36.5 2,18 5.5,31 3.5,13 5.5,13 2,-1 19,-14.5 17,-13.5 38,-33.5 l 51,-47 z"
     id="path1" />
</svg>
