<?xml version="1.0" encoding="UTF-8" standalone="no"?>
<svg
   width="2000"
   height="2000"
   version="1.1"
   id="svg1"
   sodipodi:docname="u1219F.svg"
   inkscape:version="1.3.2 (091e20e, 2023-11-25)"
   xmlns:inkscape="http://www.inkscape.org/namespaces/inkscape"
   xmlns:sodipodi="http://sodipodi.sourceforge.net/DTD/sodipodi-0.dtd"
   xmlns="http://www.w3.org/2000/svg"
   xmlns:svg="http://www.w3.org/2000/svg">
  <defs
     id="defs1" />
  <sodipodi:namedview
     id="namedview1"
     pagecolor="#505050"
     bordercolor="#eeeeee"
     borderopacity="1"
     inkscape:showpageshadow="0"
     inkscape:pageopacity="0"
     inkscape:pagecheckerboard="0"
     inkscape:deskcolor="#505050"
     inkscape:zoom="0.379"
     inkscape:cx="1000"
     inkscape:cy="998.68074"
     inkscape:window-width="1392"
     inkscape:window-height="1212"
     inkscape:window-x="0"
     inkscape:window-y="0"
     inkscape:window-maximized="0"
     inkscape:current-layer="svg1" />
  <path
     d="m 1462,636.5 q 0,-5 1.5,-5.5 1.5,-0.5 2.5,-0.5 3,0 8,3 12,7 37,10.5 25,3.5 54,5.5 29,2 49,5 20,3 20,9 0,4 -5,4 -8,0 -18.5,18.5 -10.5,18.5 -21.5,45 -11,26.5 -20.5,54.5 -9.5,28 -12.5,47 -1,10 -3,36.5 -2,26.5 -4,62.5 -2,36 -3.5,79 -1.5,43 -2.5,86 -1,45 -2.5,84 -1.5,39 -3.5,68.5 -2,29.5 -3.5,46.5 -1.5,17 -2.5,17 -2,0 -4,-29 -2,-29 -2,-70 v -98 h -141 q -56,0 -98.5,2.5 -42.5,2.5 -77.5,8 -35,5.5 -65.5,15.5 -30.5,10 -63.5,25 -15,7 -23.5,11.5 -8.5,4.5 -12.5,9 -4,4.5 -5,11.5 -1,7 -1,19 0,19 2.5,25.5 2.5,6.5 13.5,6.5 6,0 11,2 5,2 5,5 0,4 -5,6 -5,2 -11,2 -16,0 -16,16 0,6 -2,10.5 -2,4.5 -6,4.5 -8,0 -8,-15 0,-7 -2,-10 -2,-3 -12.5,-4.5 -10.5,-1.5 -31.5,-1.5 h -3 q -3,0 -6,0 h -2 q 0,0 -1,0 h -5 q -1,0 -2,0 h -2 q 0,0 -1,0 h -2 q -1,0 -2,0 h -35 q -22,0 -44.5,1 -22.5,1 -41.5,2 -19,1 -33.5,2.5 -14.5,1.5 -23.5,3.5 -14,4 -41.5,16 -27.5,12 -54,25 -26.5,13 -46.5,24.5 -20,11.5 -25,25.5 -2,5 -4,5 -2,0 -4,-12.5 -2,-12.5 -2,-43.5 0,-21 1,-50 1,-33 2.5,-62 1.5,-29 3.5,-31 0,0 1,0 2,0 8,6.5 6,6.5 15,15.5 9,10 17,17.5 8,7.5 10,7.5 3,0 5,-13.5 2,-13.5 2,-32.5 v -45 l -87,3 q -36,1 -61,4 -25,3 -43.5,9 -18.5,6 -34.5,16.5 -16,10.5 -33,25.5 -13,11 -20.5,16 -7.5,5 -10.5,5 0,0 -1,0 -2,-1 -2,-14 v -1 q 0,0 0,-1 v -2 q 0,-1 0,-1 v -1 q 0,0 0,-1 v -1 q 0,0 0,0 v -1 q 0,-1 0,-1 v -1 q 0,-1 0,-1 v -19 q 0,-18 1.5,-38.5 1.5,-20.5 2.5,-38 1,-17.5 3,-29 2,-11.5 3,-11.5 2,0 6.5,6 4.5,6 8.5,12 6,11 16.5,21.5 10.5,10.5 20.5,17.5 9,5 17,8 8,3 21.5,4.5 13.5,1.5 34.5,1.5 1,0 3,0 h 2 q 1,0 3,0 h 2 q 2,0 4,0 h 5 q 1,0 2,0 h 1 q 1,0 2,0 h 16 q 1,0 2,0 h 4 q 1,0 2,0 h 4 q 1,0 3,0 l 100,-3 2,-86 3,-84 h -86 q -28,0 -46,0.5 -18,0.5 -31,3 -13,2.5 -23,6.5 -10,4 -24,11 -16,9 -33.5,20 -17.5,11 -28.5,21 -6,6 -13,12 -7,6 -9,6 -1,0 -1,-23.5 0,-23.5 1,-52 1,-28.5 2.5,-53.5 1.5,-25 3.5,-27 0,0 1,0 2,0 9,7 0,0 0,0 l 3,3 q 1,1 1,1 l 4,4 q 0,0 0,0 l 4,4 q 1,1 1,1 l 4,4 q 1,1 1,1 l 5,5 q 0,0 0,0 l 33,31 h 109 q 50,0 80.5,-2 30.5,-2 30.5,-8 0,-3 -5,-30 -5,-27 -11,-58 -6,-31 -12,-58 -6,-27 -12,-42 -6,-17 -6,-28 0,-2 0.5,-7.5 0.5,-5.5 9.5,-5.5 4,0 9,2 5,1 8,1 5,0 8.5,-2 3.5,-2 3.5,-11 0,-14 6.5,-16.5 6.5,-2.5 8.5,-2.5 6,0 10,7 2,2 10.5,10 8.5,8 18.5,16 11,7 19,10.5 8,3.5 22,6 14,2.5 37.5,3 23.5,0.5 62.5,1.5 l 114,3 -6,-27 -5,-29 26,8 q 10,3 26,4.5 16,1.5 26,1.5 10,0 20,-1 7,0 14,0 9,0 19,1 10,1 10,3 0,2 -5.5,16.5 -5.5,14.5 -13.5,32.5 -9,17 -17,42.5 -8,25.5 -12,43.5 -4,19 -4,32 0,13 6,22.5 6,9.5 19,18.5 13,9 31,18 17,9 28.5,12.5 11.5,3.5 34,5.5 22.5,2 61.5,2.5 39,0.5 95,0.5 52,0 86.5,0.5 34.5,0.5 61,1 26.5,0.5 42.5,1.5 16,1 16,2 0,0 0,0 0,1 -24,3.5 -24,2.5 -61.5,4.5 -37.5,2 -80.5,3.5 -43,1.5 -67,1.5 -62,0 -111,11 -49,11 -88,27 -51,21 -51.5,32 -0.5,11 -0.5,11 0,21 30,42 15,11 33,19.5 18,8.5 46,13 28,4.5 72,5 44,0.5 117,0.5 38,-1 72,-2 34,-1 59.5,-2 25.5,-1 41,-2 15.5,-1 16.5,-2 2,-2 4,-30.5 2,-28.5 4,-66.5 0,-10 0,-21 0,-67 -12,-139 -12,-72 -39,-141 -8,-20 -13,-37 -5,-17 -5,-23 z m 118,31 q -9,0 -26.5,-1.5 -17.5,-1.5 -31.5,-3.5 l -36,-6 9,27 q 3,11 10,37 1,3 2,6 v 2 q 2,6 3,11 l 1,2 q 0,3 1,6 l 1,2 q 0,0 0,1 v 1 q 1,3 2,7 l 1,1 q 0,1 0,1 v 2 q 1,1 1,2 v 2 q 1,1 1,2 v 2 q 0,0 1,0 l 16,63 12,-46 q 6,-20 16.5,-44 10.5,-24 18.5,-40 l 22,-36 z m -511,21 q 0,-1 -15,-1.5 -15,-0.5 -32.5,-0.5 -17.5,0 -32.5,0.5 -15,0.5 -15,1.5 0,3 5,14 8,19 14.5,41 6.5,22 12.5,45 l 13,54 8,-39 q 5,-16 11.5,-38 6.5,-22 17.5,-46 3,-8 8,-19 5,-11 5,-12 z m -378,27 q 0,-9 -6,-9 -5,0 -7,6 -2,6 -2,19 0,10 0.5,11 0.5,1 1.5,1 1,0 5,-5 4,-6 6,-12 2,-6 2,-11 z m -35,3 q -1,-5 -4.5,-8.5 -3.5,-3.5 -7.5,-3.5 -8,0 -8,17 0,17 8,34 4,11 5,11 0,0 1,-0.5 1,-0.5 6,-15.5 2,-10 2,-19.5 0,-9.5 -2,-14.5 z m 86,4 q -5,0 -10.5,-2 -5.5,-2 -10.5,-4 -1,0 -1,0 -11,0 -18,15 -3,6 -3,11 0,2 1.5,3.5 1.5,1.5 4.5,1.5 6,0 17,-4 17,-7 21,-12 4,-5 4,-6 0,-3 -5,-3 z m 234,20 q -2,-8 -21,-10 -19,-2 -70,-2 -35,0 -54.5,1 -19.5,1 -34,3 -14.5,2 -27.5,6.5 -13,4.5 -30,12.5 -29,12 -41.5,20.5 -12.5,8.5 -15.5,17.5 -1,6 -2,26 -1,20 -1.5,51 -0.5,31 -1.5,71 -1,40 -1,83 v 210 l 21,9 q 11,4 39,7.5 28,3.5 63,5 35,1.5 74,1.5 39,0 73,-3 l 75,-5 v -180 h -72 q -29,0 -52,1.5 -23,1.5 -42.5,5.5 -19.5,4 -37.5,11 -18,7 -38,17 -14,5 -22.5,9 -8.5,4 -11.5,4 -1,0 -2,-1 0,0 0,0 v -1 q 0,0 0,0 0,-1 0,-1 0,0 0,-1 v -1 q 0,0 0,-1 0,0 0,-1 v -10 q 0,-1 0,-2 0,-15 2,-35 l 3,-49 28,21 q 10,7 18.5,10.5 8.5,3.5 22,5.5 13.5,2 36,2.5 22.5,0.5 61.5,0.5 h 108 l -3,-54 -1,-52 -71,-3 q -9,0 -17,0 -18,0 -39.5,1.5 -21.5,1.5 -44,6 -22.5,4.5 -41,11.5 -18.5,7 -33.5,17 -13,9 -21,9 -3,0 -7.5,-4.5 -4.5,-4.5 -4.5,-41.5 0,-20 2,-33.5 2,-13.5 6,-13.5 3,0 12,4.5 9,4.5 16,8.5 16,9 36,14 20,5 44.5,8 24.5,3 40,3.5 15.5,0.5 19.5,0.5 23,0 48,-3 16,-2 26.5,-4 10.5,-2 15.5,-4.5 5,-2.5 6.5,-6 1.5,-3.5 1.5,-8.5 0,-8 -4.5,-31.5 -4.5,-23.5 -10.5,-50.5 -6,-27 -12,-51.5 -6,-24.5 -10,-32.5 z m -312,58 q -5,-7 -9,-7 -3,0 -3,6 0,9 7,9 5,0 5,-5 0,-1 0,-3 z m 405,105 q -11,-8 -16,-8 -2,0 -5,3 -3,3 -3,41 0,26 1.5,31.5 1.5,5.5 5.5,5.5 2,0 6,-2 6,-2 20.5,-7.5 14.5,-5.5 26.5,-9.5 20,-6 31,-11.5 11,-5.5 11,-7.5 0,-2 -9,-6 -9,-4 -21,-8 -13,-3 -25.5,-8.5 -12.5,-5.5 -22.5,-12.5 z m -626,41 q 0,-2 -8.5,-8.5 -8.5,-6.5 -19.5,-14.5 l -30,-19 v 84 l 30,-20 q 11,-8 19.5,-14.5 8.5,-6.5 8.5,-7.5 z m 359,-2 q 0,-3 -6,-7.5 -6,-4.5 -13.5,-8 -7.5,-3.5 -11.5,-5 -4,-1.5 -5,-1.5 -4,0 -6,5 -1,4 -1,10 0,4 1,12.5 1,8.5 10,8.5 6,0 19,-5 13,-5 13,-9 z m 0,123 q 0,-2 -6,-6 -6,-4 -15,-7 -12,-6 -16,-6 0,0 -2,1 -2,1 -2,18 0,17 2,18 2,1 3,1 5,0 15,-4 9,-5 15,-9 6,-4 6,-6 z m 302,31 q -18,-7 -34.5,-13.5 -16.5,-6.5 -18.5,-7.5 0,0 -1,0 -1,0 -3,11 -2,11 -2,30 v 44 l 54,-21 q 21,-8 36.5,-14.5 15.5,-6.5 17.5,-6.5 0,0 0,0 0,-2 -13.5,-8 -13.5,-6 -35.5,-14 z m -661,25 q -6,0 -15,-6 -9,-6 -19,-15 l -24,-20 v 44 q 0,19 1,30.5 1,11.5 4,11.5 1,0 1,0 15,-7 27.5,-15 12.5,-8 19.5,-14.5 7,-6.5 8,-9.5 1,-3 1,-3 0,-3 -4,-3 z m 210,111 q -6,-4 -16,-11 -10,-7 -14,-9 -1,-1 -3,-1 -4,0 -5.5,10 -1.5,10 -1.5,43 0,26 1,43.5 1,17.5 5,17.5 4,0 18,-10 15,-11 29.5,-17.5 14.5,-6.5 25.5,-11.5 34,-10 34,-18 0,-5 -19,-9 -10,-4 -24,-10 -14,-6 -30,-17 z"
     id="path1" />
</svg>
