<?xml version="1.0" encoding="UTF-8" standalone="no"?>
<svg
   width="2000"
   height="2000"
   version="1.1"
   id="svg1"
   sodipodi:docname="u121E6.svg"
   inkscape:version="1.3.2 (091e20e, 2023-11-25)"
   xmlns:inkscape="http://www.inkscape.org/namespaces/inkscape"
   xmlns:sodipodi="http://sodipodi.sourceforge.net/DTD/sodipodi-0.dtd"
   xmlns="http://www.w3.org/2000/svg"
   xmlns:svg="http://www.w3.org/2000/svg">
  <defs
     id="defs1" />
  <sodipodi:namedview
     id="namedview1"
     pagecolor="#505050"
     bordercolor="#eeeeee"
     borderopacity="1"
     inkscape:showpageshadow="0"
     inkscape:pageopacity="0"
     inkscape:pagecheckerboard="0"
     inkscape:deskcolor="#505050"
     inkscape:zoom="0.379"
     inkscape:cx="1000"
     inkscape:cy="998.68074"
     inkscape:window-width="1392"
     inkscape:window-height="1212"
     inkscape:window-x="0"
     inkscape:window-y="0"
     inkscape:window-maximized="0"
     inkscape:current-layer="svg1" />
  <path
     d="m 1152,637.5 q 1,-1 6,-1 3,0 11.5,1 8.5,1 19.5,3 20,3 36.5,3.5 16.5,0.5 24.5,0.5 17,0 35,-1 15,-2 29.5,-2 14.5,0 14.5,2 0,2 -6.5,12.5 -6.5,10.5 -15.5,24.5 -13,19 -21.5,34.5 -8.5,15.5 -14,33 -5.5,17.5 -8.5,40 -3,22.5 -4.5,56.5 -1.5,34 -2,82 -0.5,48 -0.5,109 0,59 -0.5,104.5 -0.5,45.5 -1.5,80 -1,34.5 -2,54.5 -1,20 -2,20 -4,0 -6,-11 -2,-11 -2,-27 -1,-70 -4,-143 -3,-73 -6.5,-135 -3.5,-62 -7.5,-104.5 -4,-42.5 -10,-58.5 -4,-10 -8,-14 -4,-4 -10,-4 -5,0 -14,3 -26,8 -41,26 -15,18 -17,45 l -3,36 h 43 q 18,0 31,1 13,1 13,3 0,2 -9,11.5 -9,9.5 -21,20.5 -15,11 -27,27.5 -12,16.5 -17,26.5 -5,12 -8,34 -3,22 -3.5,40 -0.5,18 -0.5,27 0,19 1,44.5 1,25.5 4,53.5 l 6,47 h 42 q 17,0 29.5,2 12.5,2 12.5,5 0,4 -12,6.5 -12,2.5 -29,2.5 -100,1 -161.5,2.5 -61.5,1.5 -99,4.5 -37.5,3 -59.5,8 -22,5 -46,15 -20,8 -47.5,22 -27.5,14 -51.5,28 -12,8 -24.5,16 -12.5,8 -14.5,8 -1,0 -1,-15.5 0,-15.5 1,-39.5 1,-24 1.5,-51.5 0.5,-27.5 1.5,-51 1,-23.5 2,-39.5 1,-16 1,-16 0,0 1,0 3,0 10,6.5 7,6.5 13,13.5 16,16 23.5,22.5 7.5,6.5 10.5,6.5 1,0 1,0 2,-2 4,-20.5 2,-18.5 3,-47.5 1,-18 1,-30.5 0,-12.5 -2,-19 -2,-6.5 -6.5,-9 -4.5,-2.5 -13.5,-5.5 l -24,-7 27,-17 q 18,-11 20.5,-17 2.5,-6 2.5,-12 0,-7 -2,-18 -2,-15 -10,-42 -8,-27 -15,-48 -9,-25 -12.5,-38.5 -3.5,-13.5 -4,-23.5 -0.5,-10 -0.5,-17 0,-9 1,-23.5 1,-14.5 6,-56.5 3,-21 6.5,-46 3.5,-25 4.5,-27 0,0 1,0 2,0 12,7.5 10,7.5 19,15.5 20,18 41.5,29.5 21.5,11.5 35.5,15.5 10,2 29.5,4 19.5,2 46.5,3 27,1 60,1.5 33,0.5 67,0.5 h 164 l -18,-41 q -7,-17 -14,-32.5 -7,-15.5 -10,-21.5 -4,-5 -4.5,-9.5 -0.5,-4.5 -0.5,-6.5 0,-2 0,-3 z m 143,25 q -8,0 -17,-1 h -40 q -36,0 -44,1.5 -8,1.5 -8,6.5 0,2 1,4 2,5 8.5,26 6.5,21 13.5,42 8,25 14.5,45.5 6.5,20.5 7.5,22.5 1,4 2,4 2,0 5.5,-7 3.5,-7 6.5,-25 5,-18 13.5,-41.5 8.5,-23.5 20.5,-45.5 4,-9 10,-19.5 6,-10.5 6,-12.5 z m -480,93 q -13,-5 -29,-13 -16,-8 -27,-15 l -24,-18 -6,48 q -2,19 -2.5,28 -0.5,9 -0.5,11 0,10 2,12 0,0 1,0 3,0 20,-5.5 17,-5.5 40,-14.5 l 57,-22 z m 180,20 q 3,-1 3,-3 0,-2 -17,-2 -16,0 -16,2 0,1 4,3 6,1 13.5,1 7.5,0 12.5,-1 z m 177,0 q 8,-1 8,-2 0,0 -8.5,-0.5 -8.5,-0.5 -37.5,-0.5 -28,0 -34.5,0.5 -6.5,0.5 -6.5,0.5 0,1 8,2 16,1 36.5,1 20.5,0 34.5,-1 z m -250,36 q -6,-11 -13,-22 -7,-11 -9,-13 -1,-1 -5,-1 -5,0 -17,2.5 -12,2.5 -33,9.5 -21,7 -44.5,16.5 -23.5,9.5 -41.5,19.5 l -37,19 45,2 q 20,2 28,3 11,1 17,1 0,2 -6,14.5 -6,12.5 -10,19.5 -12,25 -17.5,45 -5.5,20 -8,37 -2.5,17 -2.5,29 0,2 0.5,9.5 0.5,7.5 5.5,7.5 1,0 8.5,-5 7.5,-5 19,-14 11.5,-9 27,-20.5 15.5,-11.5 36.5,-28.5 34,-29 55,-50 21,-21 21,-31 0,-5 -5,-19 -5,-14 -14,-31 z m 104,-11 q -1,-2 -15.5,-4.5 -14.5,-2.5 -33.5,-4.5 -15,-1 -24,-1 -7,0 -12.5,1 -5.5,1 -5.5,5 0,1 1,3 1,3 9,20.5 8,17.5 17,39.5 l 21,49 10,-33 q 5,-14 12,-29 7,-15 13,-24 4,-7 6.5,-12 2.5,-5 2.5,-8 0,-1 -1,-2 z m 105,5 q 0,-7 -8,-9 -8,-2 -19,-2 -21,0 -23,4.5 -2,4.5 -2,5.5 0,6 11,13 10,6 18,6 6,0 14.5,-4.5 8.5,-4.5 8.5,-13.5 z m -57,21 q -6,-4 -12,-8.5 -6,-4.5 -8.5,-5 -2.5,-0.5 -2.5,-0.5 -3,0 -6,2.5 -3,2.5 -8,8.5 -11,14 -18,30 -7,16 -11,42.5 -4,26.5 -5.5,68 -1.5,41.5 -1.5,106.5 v 173 h 112 l -4,-98 q -2,-39 -7,-69 -5,-30 -13,-54 -8,-24 -20,-44 -12,-20 -30,-39 -8,-8 -14,-16 -6,-8 -6,-10 0,-4 12.5,-5 12.5,-1 32.5,-1 14,0 22.5,-0.5 8.5,-0.5 12.5,-3 4,-2.5 4.5,-8.5 0.5,-6 0.5,-13 0,-21 -5.5,-31 -5.5,-10 -24.5,-25 z m -301,52 q 3,-5 3,-9 0,-2 -2.5,-4 -2.5,-2 -19.5,-2 -19,0 -20,2 -1,2 -1,4 0,6 5,22 8,28 11.5,29.5 3.5,1.5 4.5,1.5 5,0 10,-14 1,-5 4,-14 3,-9 5,-16 z m 210,221 q -2,-84 -6,-125.5 -4,-41.5 -11,-56.5 l -12,-28 -22,24 q -22,24 -41.5,53 -19.5,29 -31,54 -11.5,25 -12.5,35 -1,10 -1,12 0,12 9,12 4,0 4.5,2.5 0.5,2.5 0.5,3.5 0,2 -1,4 -1,2 -1,4 0,8 8.5,21.5 8.5,13.5 32.5,41.5 11,12 26.5,31.5 15.5,19.5 21.5,29.5 5,11 12.5,18.5 7.5,7.5 12.5,7.5 5,0 7.5,-5 2.5,-5 3.5,-21 1,-16 1,-45.5 0,-29.5 -1,-72.5 z m 174,-167 q 0,-3 -15.5,-6 -15.5,-3 -41.5,-3 -26,0 -34,2 -8,2 -8,5 0,2 2,5 3,4 10.5,16 7.5,12 15.5,26 l 21,35 11,-26 q 5,-9 11.5,-19.5 6.5,-10.5 12.5,-16.5 7,-5 11,-10.5 4,-5.5 4,-7.5 z m -302,56 q 5,-7 10,-16.5 5,-9.5 5,-11.5 0,-1 -1,-1 0,0 0,0 -3,1 -18.5,13.5 -15.5,12.5 -33,28.5 -17.5,16 -31.5,30 -14,14 -15,19 0,1 0,1 0,9 23,15 13,3 20,3 5,0 10.5,-2 5.5,-2 5.5,-14 0,-10 6,-26 6,-16 19,-39 z m -13,135 q -20,-18 -39,-31 -19,-13 -27,-13 -4,0 -7,2 -3,2 -4.5,9.5 -1.5,7.5 -1.5,21.5 0,14 1,38 l 1,70 30,11 q 13,5 39,7.5 26,2.5 50,2.5 l 58,2 -25,-38 q -10,-16 -32.5,-40 -22.5,-24 -42.5,-42 z m -114,91 q -8,-6 -16,-11 -8,-5 -12,-5 -2,0 -4.5,2 -2.5,2 -3,16 -0.5,14 -0.5,42 v 70 l 49,-25 q 20,-11 41,-20.5 21,-9.5 32,-13.5 13,-5 13,-7 0,0 -1,-1.5 -1,-1.5 -27,-10.5 -14,-5 -32,-12.5 -18,-7.5 -39,-23.5 z"
     id="path1" />
</svg>
