<?xml version="1.0" encoding="UTF-8" standalone="no"?>
<svg
   width="2000"
   height="2000"
   version="1.1"
   id="svg1"
   sodipodi:docname="u12172.svg"
   inkscape:version="1.3.2 (091e20e, 2023-11-25)"
   xmlns:inkscape="http://www.inkscape.org/namespaces/inkscape"
   xmlns:sodipodi="http://sodipodi.sourceforge.net/DTD/sodipodi-0.dtd"
   xmlns="http://www.w3.org/2000/svg"
   xmlns:svg="http://www.w3.org/2000/svg">
  <defs
     id="defs1" />
  <sodipodi:namedview
     id="namedview1"
     pagecolor="#505050"
     bordercolor="#eeeeee"
     borderopacity="1"
     inkscape:showpageshadow="0"
     inkscape:pageopacity="0"
     inkscape:pagecheckerboard="0"
     inkscape:deskcolor="#505050"
     inkscape:zoom="0.379"
     inkscape:cx="1000"
     inkscape:cy="998.68074"
     inkscape:window-width="1392"
     inkscape:window-height="1212"
     inkscape:window-x="0"
     inkscape:window-y="0"
     inkscape:window-maximized="0"
     inkscape:current-layer="svg1" />
  <path
     d="m 368,704 q 2,-32 6,-52.5 4,-20.5 7,-20.5 2,0 5,2.5 3,2.5 3,6.5 0,6 7.5,18 7.5,12 18.5,25 11,13 23.5,24.5 12.5,11.5 21.5,16.5 15,8 45,11.5 30,3.5 78,4.5 25,1 47.5,2 22.5,1 44,1.5 21.5,0.5 39.5,1.5 18,1 29,1 13,1 24,1 8,0 19,-1 11,-1 11,-4 0,-2 -7,-11.5 -7,-9.5 -15,-19.5 -10,-12 -16,-21 -6,-9 -6,-10 0,-3 31.5,-4.5 31.5,-1.5 74.5,-1.5 82,0 96,4 14,4 14,8 0,5 -16,14 -7,5 -16,14.5 -9,9.5 -16,23.5 -6,13 -6,19 0,1 0.5,4 0.5,3 10.5,10 15,10 44,17.5 29,7.5 68.5,13 39.5,5.5 85,9 45.5,3.5 90.5,3.5 23,0 43.5,-1 20.5,-1 36,-2 15.5,-1 25,-3 9.5,-2 10.5,-3 2,-3 15.5,-4 13.5,-1 24.5,-1 11,0 30,1 19,1 48.5,3 29.5,2 54.5,5 25,3 41.5,6 16.5,3 16.5,6 0,4 -13.5,6.5 -13.5,2.5 -34.5,4.5 -13,1 -22.5,2.5 -9.5,1.5 -16,5 -6.5,3.5 -11.5,11 -5,7.5 -13,20.5 -6,12 -9.5,22 -3.5,10 -5,23 -1.5,13 -1.5,31 v 4 q 0,1 0,2 v 6 q 0,0 0,1 v 1 q 0,1 0,2 v 1 q 0,1 0,1 v 2 q 0,1 0,1 v 18 q 0,1 0,2 v 7 l 1,89 140,-92 -35,-15 q -14,-6 -33.5,-11 -19.5,-5 -36.5,-5 -26,0 -27.5,-6 -1.5,-6 -1.5,-7 0,-10 23,-22 10,-5 36.5,-20.5 26.5,-15.5 63.5,-40.5 14,-9 27.5,-18.5 13.5,-9.5 20,-16 6.5,-6.5 7,-10.5 0.5,-4 0.5,-5 0,-6 -2,-13 -3,-12 -12,-34.5 -9,-22.5 -20,-44 -11,-21.5 -21,-37.5 -10,-16 -23,-21 -8,-3 -8,-6 0,-3 10,-6.5 10,-3.5 57,-3.5 26,0 56,1.5 30,1.5 53,4 23,2.5 37.5,6 14.5,3.5 14.5,7.5 0,2 -3.5,4 -3.5,2 -7.5,2 -31,0 -64,118 -7,27 -11,47 -4,20 -6,45 -2,25 -2.5,59.5 -0.5,34.5 -0.5,90.5 0,56 0.5,89 0.5,33 2,49 1.5,16 5,19.5 3.5,3.5 10.5,3.5 7,0 12,2.5 5,2.5 5,6.5 0,3 -5,6 -5,3 -12,3 -6,0 -9,2 -3,2 -4,8.5 -1,6.5 -1,15.5 0,4 0.5,14.5 0.5,10.5 1.5,30.5 1,33 1,52 0,9 -0.5,21 -0.5,12 -6.5,12 -5,0 -7,-12.5 -2,-12.5 -2,-32.5 0,-20 -2,-43 -2,-23 -4,-37 l -6,-31 h -225 q -91,0 -159.5,2 -68.5,2 -122,6 -53.5,4 -96.5,10.5 -43,6.5 -90,17.5 -22,5 -43.5,10.5 -21.5,5.5 -23.5,5.5 -2,0 -4,-16.5 -2,-16.5 -4,-38.5 -1,-16 -1,-27 0,-5 0.5,-13.5 0.5,-8.5 3.5,-13 3,-4.5 8,-4.5 1,0 5.5,1 4.5,1 12.5,5 17,9 52.5,15 35.5,6 83.5,11 48,5 105,8 57,3 113,3 h 154 v -95 h -72 q -26,0 -44,1 -18,1 -37,6 -19,5 -43,15 -24,10 -62,28 0,0 -1,0 -4,0 -6.5,-10 -2.5,-10 -2.5,-36 0,-29 -3,-42 -3,-13 -11,-20 -10,-7 -19,-7 -5,0 -13.5,4 -8.5,4 -28.5,31 l -24,32 16,15 q 8,5 22,13 14,8 20,12 25,14 28.5,18 3.5,4 3.5,6 0,1 -1.5,1.5 -1.5,0.5 -1.5,0.5 -6,0 -20.5,-5.5 -14.5,-5.5 -36.5,-15.5 -50,-25 -64,-27.5 -14,-2.5 -17,-2.5 -11,0 -11,8 0,3 1,7 1,5 1,7.5 0,2.5 -3,2.5 -1,0 -5,-1 -4,-1 -16.5,-7 -12.5,-6 -32.5,-15 -26,-13 -40.5,-19.5 -14.5,-6.5 -18.5,-6.5 -1,0 -1,0 -2,1 -4,26.5 -2,25.5 -4,48.5 -3,48 -3,68 0,20 7,30 7,10 23,14 16,4 44,8 21,2 35.5,6 14.5,4 17.5,8 1,1 1,2 0,2 -4.5,2.5 -4.5,0.5 -6.5,0.5 -12,0 -48,-5 -16,-2 -28.5,-3.5 -12.5,-1.5 -19.5,-1.5 -6,0 -11.5,1.5 -5.5,1.5 -7,7.5 -1.5,6 -2.5,17 -2,24 -8,24 -1,0 -5.5,-2.5 Q 840,1342 840,1315 v -29 l -115,-21 q -61,-11 -123,-15.5 -62,-4.5 -116,-4.5 -10,0 -47.5,0.5 -37.5,0.5 -92.5,7.5 -55,7 -92,21 -5,2 -8,2 -6,0 -6,-7 0,-9 12,-30 7,-12 11.5,-23 4.5,-11 9.5,-24.5 5,-13.5 10,-28 5,-14.5 8,-27.5 l 20,-63 39,42 q 35,43 87,65 20,8 54.5,18 34.5,10 83.5,21 49,11 110,23.5 61,12.5 117,21.5 23,4 25.5,4.5 2.5,0.5 2.5,0.5 4,0 6.5,-4 2.5,-4 3,-12.5 0.5,-8.5 0.5,-23.5 v -40 l -91,-32 q -36,-12 -59,-19 -23,-7 -40,-9.5 -17,-2.5 -32,-2.5 -3,0 -14,0.5 -11,0.5 -37,3.5 -21,4 -31,9.5 -10,5.5 -13,13.5 -1,3 -2,3 -3,0 -6,-22.5 -3,-22.5 -5,-80.5 -1,-30 -2.5,-54 -1.5,-24 -4.5,-40 -3,-16 -8,-28 -5,-12 -13,-26 l -23,-40 h 119 l -20,31 q -10,15 -16.5,28.5 -6.5,13.5 -10,31 -3.5,17.5 -4,32 -0.5,14.5 -0.5,23.5 0,16 1,37 l 3,64 27,-51 q 12,-23 26.5,-48.5 Q 599,987 608,971 q 10,-14 17,-27 7,-13 7,-16 0,-4 7.5,-21 7.5,-17 17,-36 9.5,-19 18.5,-33.5 9,-14.5 11,-14.5 0,0 1,0 2,0 7.5,8.5 5.5,8.5 9.5,18.5 9,21 22.5,31.5 13.5,10.5 52.5,28.5 19,9 38.5,17 19.5,8 23.5,8 5,0 5,-13 0,-9 -3.5,-33 Q 839,865 822,809 l -16,-52 -150,4 q -61,1 -97.5,3.5 -36.5,2.5 -62,9.5 -25.5,7 -48,20 -22.5,13 -55.5,36 l -42,29 6,-42 q 1,-9 2.5,-22.5 1.5,-13.5 3,-29 1.5,-15.5 3,-31.5 1.5,-16 2.5,-30 z m 1341,-29 q 0,-6 -18.5,-8 -18.5,-2 -47.5,-2 -29,0 -46,2 -17,2 -17,4 0,0 0,0 23,47 39,85 16,38 21,59 l 10,38 15,-60 q 8,-25 16.5,-49.5 8.5,-24.5 15.5,-37.5 4,-8 8,-18 4,-10 4,-13 z M 459,740 Q 445,733 431,722.5 417,712 404,698 394,688 392.5,687.5 391,687 391,687 q -2,0 -4,10 0,7 -2,26.5 -2,19.5 -4,32.5 -4,27 -4,40 0,4 1,11 1,7 7,7 4,0 9.5,-3 5.5,-3 7.5,-6 2,-5 15,-12.5 13,-7.5 29,-14.5 16,-7 26.5,-13 10.5,-6 10.5,-8 0,-2 -8,-7.5 -8,-5.5 -16,-9.5 z m 459,-40 q 0,-4 -17.5,-6.5 Q 883,691 857,691 q -25,0 -42.5,2.5 -17.5,2.5 -17.5,4.5 0,2 4.5,14.5 4.5,12.5 9.5,22.5 9,16 16.5,38.5 7.5,22.5 12.5,40.5 5,18 10.5,30 5.5,12 7.5,12 2,0 7,-12 5,-12 8,-29 5,-16 13,-38 8,-22 17,-38 7,-13 11,-25 4,-12 4,-14 z m 2,183 q -5,0 -7.5,-15 -2.5,-15 -4.5,-36 l -3,-50 -11,32 q -7,18 -12,38 -5,20 -7,35 -2,15 -2,24 0,2 0.5,8.5 0.5,6.5 4.5,6.5 5,0 20,-8.5 15,-8.5 31,-19 16,-10.5 26.5,-19.5 10.5,-9 10.5,-11 0,0 0,0 -1,-1 -4,-1 -1,0 -5,0.5 -4,0.5 -15,6.5 -5,2 -12,5.5 -7,3.5 -10,3.5 z m 74,-72 Q 979,809 963.5,805.5 948,802 941,799 q -4,-2 -6,-2 -4,0 -6,4.5 -2,4.5 -2,24.5 0,12 1,21 1,9 2,9 7,0 24.5,-5 17.5,-5 36,-11 18.5,-6 31.5,-11.5 13,-5.5 13,-7.5 0,0 0,0 -1,-2 -13.5,-5 -12.5,-3 -27.5,-5 z m 451,27 q 0,-1 0,-1 0,-3 -10,-5 -10,-2 -29,-2 -22,0 -27,2 -5,2 -5,5 0,2 2,5 3,4 10,16 7,12 12,25 l 12,30 17,-35 q 7,-14 12,-26 5,-12 6,-14 z m -95,-8 -114,2 q -24,0 -49,1 -25,1 -47.5,2 -22.5,1 -40.5,3 -18,2 -31,4 -16,3 -27.5,6.5 -11.5,3.5 -21,8.5 -9.5,5 -18.5,13.5 -9,8.5 -22,23.5 -14,15 -22,25.5 -8,10.5 -10,16 -2,5.5 -2,8.5 0,3 2.5,7 2.5,4 7.5,9 8,6 12.5,6.5 4.5,0.5 5.5,0.5 7,0 18,-4.5 11,-4.5 29.5,-15.5 18.5,-11 38.5,-24 29,-20 45,-28.5 16,-8.5 20,-8.5 1,0 1,0 0,0 0,1 0,3 -7,14 -7,11 -20,24 -15,16 -24,30 -9,14 -9,19 0,5 9.5,13.5 9.5,8.5 23.5,15.5 14,7 29.5,17.5 15.5,10.5 30.5,23.5 13,12 27,21.5 14,9.5 33.5,14 19.5,4.5 39,5 19.5,0.5 31.5,0.5 24,0 57,-1 l 67,-2 V 968 l -85,3 q -26,1 -44,2.5 -18,1.5 -32.5,4.5 -14.5,3 -26.5,7.5 -12,4.5 -26,11.5 -20,9 -32.5,14 -12.5,5 -16.5,5 -1,0 -2,-1 -2,-2 -3.5,-17 -1.5,-15 -1.5,-32 0,-40 5.5,-44.5 5.5,-4.5 8.5,-4.5 8,0 20,12 9,8 17,11 8,3 21.5,5 13.5,2 34,3 20.5,1 47.5,2 41,1 64,1 12,0 27.5,-0.5 15.5,-0.5 15.5,-7.5 0,-5 -8,-22.5 -8,-17.5 -19,-39.5 z m 294,117 q -1,-29 -5,-54.5 -4,-25.5 -9,-37.5 -4,-11 -8,-11 0,0 -2,0.5 -2,0.5 -28,28.5 -15,16 -26.5,29.5 -11.5,13.5 -15,20.5 -3.5,7 -3.5,11 0,3 1.5,6.5 1.5,3.5 5.5,11.5 5,7 14.5,14.5 9.5,7.5 18.5,12.5 9,2 21,8.5 12,6.5 21,13.5 l 21,17 z M 701,883 q -8,-16 -12,-16.5 -4,-0.5 -5,-0.5 -7,0 -14,17 -3,7 -3,11 0,2 1.5,3.5 1.5,1.5 18.5,1.5 16,0 17,-1.5 1,-1.5 1,-2.5 0,-4 -4,-12 z m -165,0 q 0,-5 -6,-7 -6,-2 -18,-2 -20,0 -20,5 0,2 3.5,10 3.5,8 8,16.5 4.5,8.5 8.5,14.5 4,6 6,6 3,0 6,-5 3,-5 5.5,-12 2.5,-7 4.5,-15 2,-8 2,-11 z m 995,43 q 3,-8 3,-12 0,-5 -6,-5 -6,0 -22,11 -14,11 -14,16 0,5 15,9 7,2 11,2 2,0 5,-0.5 3,-0.5 3,-4.5 0,-3 2,-8 2,-5 3,-8 z m -733,11 q -17,-7 -37,-11.5 -20,-4.5 -37,-6 -17,-1.5 -30,-1.5 -4,0 -14,0.5 -10,0.5 -18,4.5 -12,4 -12,18 0,1 1,10.5 1,9.5 11,23.5 12,16 36,28.5 24,12.5 64,27.5 26,10 50.5,18 24.5,8 27.5,8 4,0 6,-15 2,-15 2,-36 v -50 z m 129,-4 q 0,-7 -8,-7 -8,0 -14,9 -1,2 -1,4 0,4 8,4 7,0 11,-3 4,-3 4,-7 z m 269,28 q -13,-9 -22,-9 -2,0 -7.5,1.5 -5.5,1.5 -5.5,16.5 0,14 6,16 6,2 8,2 8,0 21,-9 9,-6 9,-9.5 0,-3.5 -9,-8.5 z m -153,8 q 6,-6 6,-10 0,-1 -1.5,-2.5 -1.5,-1.5 -3.5,-1.5 -5,0 -12,5 -9,5 -9,10 0,2 2,4 1,3 4,3 2,0 5,-1 3,-1 9,-7 z m -111,4 q -14,-11 -25.5,-12 -11.5,-1 -15.5,-1 -13,0 -18,5 -3,4 -5,15.5 -2,11.5 -2,25.5 v 34 l 33,-19 q 37,-21 40,-26.5 3,-5.5 3,-7.5 0,-7 -10,-14 z m -295,42 q 21,-4 22,-6 1,-2 1,-3 0,-4 -10,-18 l -15,-20 -15,23 q -12,18 -12,24 0,1 1,2 1,1 6,1 7,0 22,-3 z m 386,-2 q -5,0 -13.5,-4 -8.5,-4 -16.5,-9 -7,-5 -10.5,-6 -3.5,-1 -5.5,-1 -3,0 -7,2 -4,2 -11.5,9 -7.5,7 -16.5,16 -20,20 -31,33.5 -11,13.5 -11,18.5 0,5 8,11.5 8,6.5 19,12.5 9,5 13.5,6.5 4.5,1.5 8.5,1.5 4,0 10.5,-2 6.5,-2 20,-10 13.5,-8 30.5,-18 32,-20 50.5,-33.5 18.5,-13.5 19.5,-17.5 1,-1 1,-2 0,-2 -5.5,-6 -5.5,-4 -14.5,-9 -20,-11 -28.5,-11 -8.5,0 -8.5,4 0,2 2,5 2,3 2,6 0,3 -5,3 z m 599,7 q -8,-6 -16,-11 -8,-5 -10,-5 -2,0 -13,10 -11,10 -22,22 -25,26 -30.5,39 -5.5,13 -5.5,17 0,8 9,8 4,0 5,1.5 1,1.5 1,2.5 0,1 0,2 -1,1 -1,2 0,5 10.5,13.5 10.5,8.5 30.5,18.5 15,7 29.5,16.5 14.5,9.5 19.5,16.5 2,3 2,6 0,4 -3,5 -3,1 -5,1 -7,0 -17,-9 -9,-8 -27,-18.5 -18,-10.5 -38.5,-20 -20.5,-9.5 -40.5,-16.5 -20,-7 -34,-9 l -36,-6 v 89 h 217 v -77 q 0,-27 -0.5,-43 -0.5,-16 -2.5,-26 -2,-10 -6.5,-15.5 -4.5,-5.5 -15.5,-13.5 z m -863,27 q -23,-9 -49,-12.5 -26,-3.5 -47,-3.5 -3,0 -17,0.5 -14,0.5 -31.5,4.5 -17.5,4 -17.5,11 0,4 5.5,13 5.5,9 11.5,15 8,9 25,18.5 17,9.5 40.5,20 23.5,10.5 50.5,20.5 27,10 50,17.5 23,7.5 37,11 14,3.5 19,3.5 3,0 4,-1 4,-2 6,-14 2,-12 2,-27 0,-20 -3,-26.5 -3,-6.5 -13,-6.5 -8,0 -15,-4 -7,-4 -10,-9 -4,-7 -18.5,-16 -14.5,-9 -29.5,-15 z m -145,65 q 0,-1 -5,-10.5 -5,-9.5 -12,-20.5 l -16,-27 -14,27 q -12,23 -12,30 0,1 1.5,3.5 1.5,2.5 25.5,2.5 14,0 23,-1.5 9,-1.5 9,-3.5 z m 270,-45 q 0,-10 -10,-10 -6,0 -6,4 0,2 2,5 5,7 10,7 4,0 4,-6 z m 618,24 q 2,-3 3.5,-7.5 1.5,-4.5 1.5,-7.5 0,-3 -1,-6 -1,-9 -4,-9 0,0 -2,0.5 -2,0.5 -16,11.5 -14,11 -15,13 -1,2 -1,2 0,3 9,6 6,2 12,2 2,0 6,-0.5 4,-0.5 7,-4.5 z m -474,15 q 1,-2 1.5,-5 0.5,-3 0.5,-5 0,-3 -1,-7 -2,-6 -4,-6 -2,0 -6,6 -3,6 -3,11 0,4 1.5,6.5 1.5,2.5 4.5,2.5 3,0 6,-3 z m 168,-15 q -13,-8 -21,-8 -3,0 -8.5,1.5 -5.5,1.5 -5.5,15.5 0,14 5.5,15.5 5.5,1.5 7.5,1.5 9,0 22,-9 9,-6 9,-8.5 0,-2.5 -9,-8.5 z m -758,109 q -17,-7 -39,-21 -22,-14 -40,-28 -29,-26 -40,-26 -4,0 -6,4 -1,3 -7.5,21.5 -6.5,18.5 -14.5,38.5 -7,21 -10,34.5 -3,13.5 -3,17.5 0,3 1,3 1,3 9,3 3,0 12,-1 9,-1 27,-6 20,-5 43.5,-8 23.5,-3 43.5,-3 37,0 41.5,-5 4.5,-5 4.5,-7 0,-8 -22,-17 z m 540,-7 q -8,-1 -30,-4.5 -22,-3.5 -33,-6.5 -9,-2 -14,-2 -4,0 -7,2.5 -3,2.5 -3,22.5 0,13 1.5,23 1.5,10 3.5,12 1,1 6,1 4,0 13.5,-1 9.5,-1 29.5,-7 14,-4 36,-9 22,-5 37,-7 13,-2 20.5,-4.5 7.5,-2.5 7.5,-3.5 0,-1 0,-1 -2,-1 -17.5,-5 -15.5,-4 -50.5,-10 z"
     id="path1" />
</svg>
