<?xml version="1.0" encoding="UTF-8" standalone="no"?>
<svg
   width="2000"
   height="2000"
   version="1.1"
   id="svg1"
   sodipodi:docname="u1210A.svg"
   inkscape:version="1.3.2 (091e20e, 2023-11-25)"
   xmlns:inkscape="http://www.inkscape.org/namespaces/inkscape"
   xmlns:sodipodi="http://sodipodi.sourceforge.net/DTD/sodipodi-0.dtd"
   xmlns="http://www.w3.org/2000/svg"
   xmlns:svg="http://www.w3.org/2000/svg">
  <defs
     id="defs1" />
  <sodipodi:namedview
     id="namedview1"
     pagecolor="#505050"
     bordercolor="#eeeeee"
     borderopacity="1"
     inkscape:showpageshadow="0"
     inkscape:pageopacity="0"
     inkscape:pagecheckerboard="0"
     inkscape:deskcolor="#505050"
     inkscape:zoom="0.379"
     inkscape:cx="1000"
     inkscape:cy="998.68074"
     inkscape:window-width="1392"
     inkscape:window-height="1212"
     inkscape:window-x="0"
     inkscape:window-y="0"
     inkscape:window-maximized="0"
     inkscape:current-layer="svg1" />
  <path
     d="m 655.5,625.5 6,41 q 3,18 9,33 6,15 18,31.5 12,16.5 31,36.5 19,20 47,47 38,38 49.5,46 11.5,8 16.5,8 4,0 6,-4 3,-4 8,-4 3,0 9,2 6,2 27,18 13,12 22,18 9,6 20.5,9 11.5,3 29.5,4 18,1 42,1 39,0 63.5,2 24.5,2 27.5,7 0,0 0,1 0,8 -108,8 -33,0 -63,0.5 -30,0.5 -30,5.5 0,1 4,9.5 4,8.5 9,17.5 5,9 10.5,15.5 5.5,6.5 8.5,9.5 6,5 25,6 19,1 35,1 11,0 30,-0.5 19,-0.5 43,-2.5 24,-2 32,-10 3,-3 8,-3 6,0 16,5 9,6 24.5,9 15.5,3 23.5,3 12,0 49.5,-7.5 37.5,-7.5 88.5,-19.5 51,-12 108.5,-25.5 57.5,-13.5 107,-26.5 49.5,-13 83.5,-22 34,-9 37,-12 0,0 0,-1 0,-3 -28.5,-10.5 -28.5,-7.5 -84.5,-18.5 -13,-3 -46,-9 -33,-6 -71.5,-12.5 -38.5,-6.5 -78,-15 -39.5,-8.5 -74.5,-14.5 l -168,-33 -124,15 q -51,6 -93,13 -42,7 -57,16 -6,3 -10,3 -6,0 -7,-3.5 -1,-3.5 -1,-5.5 0,-12 13,-47 9,-25 15,-47 6,-22 6,-34 0,-21 18,-21 11,0 11,8 0,6 13.5,15 13.5,9 36.5,18.5 23,9.5 54,19.5 31,10 79,20 25,6 88,19.5 63,13.5 136,28 73,14.5 148.5,28 75.5,13.5 140,24.5 64.5,11 109.5,18.5 45,7.5 65,7.5 15,0 17.5,1.5 2.5,1.5 2.5,2.5 0,3 -20.5,11 -20.5,8 -74,22 -53.5,14 -146.5,37 l -217,54 -86,58 q -36,26 -63.5,47.5 -27.5,21.5 -30.5,29.5 -10,16 -18,16 -1,0 -5,-1 -4,-1 -4,-14 0,-4 1,-10 l 3,-26 -102,-1 q -25,-1 -44,-1 -51,0 -61.5,4.5 -10.5,4.5 -10.5,10.5 0,9 19,26 9,8 16.5,12.5 7.5,4.5 18.5,6.5 11,2 28.5,3 17.5,1 39.5,1 41,0 67,3 26,3 29,6 0,0 0,1 0,3 -24.5,6 -24.5,3 -80.5,3 -55,0 -83,3 -28,3 -40,12 -6,5 -11,6.5 -5,1.5 -8,1.5 -3,0 -5,-2 -4,-3 -5.5,-16.5 -1.5,-13.5 -1.5,-26.5 0,-4 0.5,-15 0.5,-11 3,-26 2.5,-15 5.5,-18 4,-1 6.5,-21.5 2.5,-20.5 3,-35 0.5,-14.5 0.5,-19.5 0,-17 -1.5,-33.5 -1.5,-16.5 -4.5,-16.5 -3,0 -27.5,19.5 -24.5,19.5 -44.5,34.5 -43,35 -59.5,50.5 -16.5,15.5 -28,29 -11.5,13.5 -18,28 -6.5,14.5 -14.5,30.5 -12,30 -19.5,55 -7.5,25 -7.5,46 0,21 -7,21 -1,0 -7.5,-4 -6.5,-4 -18.5,-47 l -16,-56 -89,-58 q -30,-20 -48.5,-30.5 -18.5,-10.5 -31.5,-15.5 -13,-5 -19,-5.5 -6,-0.5 -9,-0.5 -8,0 -19,2 -12,3 -27,8.5 -15,5.5 -27,12.5 -12,9 -19.5,10 -7.5,1 -8.5,1 -6,0 -6,-4 0,-3 4,-8 4,-3 14,-25.5 10,-22.5 17,-39.5 14,-34 18.5,-49 4.5,-15 6.5,-27 2,-12 2,-25 0,-3 -0.5,-12.5 -0.5,-9.5 -2.5,-31.5 l -7,-69 25,16 q 9,6 14,7.5 5,1.5 8,1.5 6,0 16,-3 10,-3 32.5,-13.5 22.5,-10.5 51.5,-23.5 58,-29 86,-44 28,-15 45,-27.5 17,-12.5 26,-25.5 9,-13 20,-32 z m 224,86 q -9,-5 -20.5,-10 -11.5,-5 -14.5,-5 -1,0 -6.5,12 -5.5,12 -11.5,30 l -15,43 72,-7 q 30,-3 58,-6 28,-3 43,-8 10,-3 10,-5 0,-1 -2,-2.5 -2,-1.5 -31,-10.5 -18,-4 -40.5,-12.5 -22.5,-8.5 -41.5,-18.5 z m -203,48 q 0,-1 0,-3 0,-9 -13,-29 l -17,-28 -19,25 -23,26 35,7 q 13,2 20,2.5 7,0.5 10,0.5 5,0 7,-1 z m -109,6 q 0,-3 -4,-3 -4,0 -14.5,3.5 -10.5,3.5 -55.5,27.5 -28,17 -41.5,26 -13.5,9 -24,19.5 -10.5,10.5 -19.5,24 -9,13.5 -21,34.5 -21,36 -28,53 -7,17 -7,29 0,8 4,20.5 4,12.5 25.5,30 21.5,17.5 62.5,44.5 52,36 67.5,43 15.5,7 22.5,7 6,0 9,-5 3,-6 11,-6 5,0 14,4 10,6 19,6 0,0 5,-0.5 5,-0.5 15,-6.5 11,-5 30.5,-19 19.5,-14 44,-33.5 24.5,-19.5 51,-41.5 26.5,-22 48,-40.5 21.5,-18.5 36.5,-33 15,-14.5 17,-17.5 0,-1 0,-2 0,-7 -16.5,-28 -16.5,-21 -46.5,-52 l -71,-72 h -66 q -28,0 -47.5,-3 -19.5,-3 -19.5,-9 z m -99,112 q -3,-10 -3.5,-16.5 -0.5,-6.5 -0.5,-8.5 0,-6 2,-6 2,0 17.5,13.5 15.5,13.5 36.5,34.5 l 51,48 111,-5 q 34,-2 60,-2 9,0 29.5,0.5 20.5,0.5 20.5,3.5 0,3 -32.5,7.5 -32.5,4.5 -105.5,8.5 -26,2 -58,4 -32,2 -51,6.5 -19,4.5 -29.5,10.5 -10.5,6 -20.5,18 l -21,23 v -50 q 0,-21 -1.5,-46.5 -1.5,-25.5 -4.5,-43.5 z m -80,-25 q 0,-3 -7.5,-3 -7.5,0 -16.5,0.5 -9,0.5 -17,3.5 -8,3 -10,6 -2,2 -2,8 0,3 1,10.5 1,7.5 4,19.5 l 8,27 21,-33 q 7,-14 13,-25 6,-11 6,-14 z m 492,60 q 1,-2 1,-4 0,-6 -10,-10 -5,-2 -8,-2 -5,0 -5,7 0,9 6,11.5 6,2.5 8,2.5 5,0 8,-5 z m -342,30 q 0,-6 -6.5,-12 -6.5,-6 -15,-12 -8.5,-6 -14.5,-9 -6,-3 -9,-3 -2,0 -3,1 -3,2 -3,10 0,8 2,17 5,21 18,21 2,0 4,-1 3,-2 10,-3.5 7,-1.5 10,-1.5 7,0 7,-7 z m 338,45 q 0,-11 -9,-11 -9,0 -9,11 0,9 9,9 9,0 9,-9 z m -525,49 q 0,-12 -12,-21 -7,-6 -12,-6 -1,0 -3.5,1 -2.5,1 -10.5,16 -8,14 -8,19 0,1 1,3.5 1,2.5 18,2.5 27,0 27,-15 z m 862,-21 q 0,-3 -16.5,-4.5 -16.5,-1.5 -38.5,-1.5 h -57 v 41 q 0,16 2,26.5 2,10.5 6,10.5 1,0 2,-1 5,-2 22,-13 17,-11 35,-23 18,-12 31.5,-22.5 13.5,-10.5 13.5,-12.5 z m -130,-1 h -108 q -44,0 -76,3 -32,3 -32,6 0,3 9,12 9,9 22,16 20,12 41.5,16 21.5,4 66.5,4 h 77 z m -207,48 q 0,-11 -9,-11 -9,0 -9,11 0,9 9,9 9,0 9,-9 z m -255,103 q 6,-18 6,-23 0,-5 -14,-5 -33,0 -33,28 0,8 3,18 5,20 13,20 10,0 25,-38 z m 243,-4 q 2,-2 2,-6 0,-4 -5,-11 -5,-5 -10,-5 -4,0 -7,5 -1,2 -1,5 0,5 5.5,10 5.5,5 9.5,5 3,0 6,-3 z m -173,37 q -1,-7 -1,-12 0,-10 3,-11 3,-1 5,-1 7,0 20,14 15,16 32.5,23.5 17.5,7.5 55,11.5 37.5,4 102,5.5 64.5,1.5 161.5,1.5 134,0 206,3 72,3 75,6 0,0 0,0 0,10 -225,10 h -230 l -85,42 q -41,21 -64,37 -23,16 -29,37 -3,9 -6,9 -2,0 -7,-12 -5,-12 -5,-63 0,-26 -1.5,-55 -1.5,-29 -6.5,-46 z m 105,45 q -19,-4 -37,-9.5 -18,-5.5 -24,-8.5 -5,-2 -9,-2 -6,0 -7.5,5.5 -1.5,5.5 -1.5,32.5 0,27 2,39 2,12 5,12 1,0 2,-1 1,0 19,-9 18,-9 42,-20 l 56,-27 z"
     id="path1" />
</svg>
