<?xml version="1.0" encoding="UTF-8" standalone="no"?>
<svg
   width="2000"
   height="2000"
   version="1.1"
   id="svg1"
   sodipodi:docname="u12164.svg"
   inkscape:version="1.3.2 (091e20e, 2023-11-25)"
   xmlns:inkscape="http://www.inkscape.org/namespaces/inkscape"
   xmlns:sodipodi="http://sodipodi.sourceforge.net/DTD/sodipodi-0.dtd"
   xmlns="http://www.w3.org/2000/svg"
   xmlns:svg="http://www.w3.org/2000/svg">
  <defs
     id="defs1" />
  <sodipodi:namedview
     id="namedview1"
     pagecolor="#505050"
     bordercolor="#eeeeee"
     borderopacity="1"
     inkscape:showpageshadow="0"
     inkscape:pageopacity="0"
     inkscape:pagecheckerboard="0"
     inkscape:deskcolor="#505050"
     inkscape:zoom="0.379"
     inkscape:cx="1000"
     inkscape:cy="998.68074"
     inkscape:window-width="1392"
     inkscape:window-height="1212"
     inkscape:window-x="0"
     inkscape:window-y="0"
     inkscape:window-maximized="0"
     inkscape:current-layer="svg1" />
  <path
     d="m 1433.5,639.5 q 0,-9 12,-9 7,0 31,2.5 24,2.5 50,6.5 1,0 2,0 h 3 q 23,4 43,6 21,3 22,5 0,0 0,1 0,1 -7,8 -18,15 -31,47 -13,32 -23,85 -5,25 -7,47 -2,22 -3.5,55 -1.5,33 -3,78.5 -1.5,45.5 -1.5,120.5 0,77 -1.5,134 -1.5,57 -3.5,70.5 -2,13.5 -3,13.5 -1,0 -3.5,-17.5 -2.5,-17.5 -3.5,-90.5 l -2,-105 -31,-3 q -10,-1 -17,-1 -11,0 -12,2 -1,2 -1,3 0,6 15,23 13,14 13,19 0,2 -6.5,2 -6.5,0 -30.5,-23 -15,-15 -26.5,-21 -11.5,-6 -32.5,-6 -16,0 -20.5,4 -4.5,4 -7.5,17 -3,18 -3,58.5 0,40.5 3,85.5 1,41 1,67 0,45 -4,45 -3,0 -5.5,-13 -2.5,-13 -2.5,-37 0,-15 -0.5,-25 -0.5,-10 -4.5,-17.5 -4,-7.5 -11.5,-15.5 -7.5,-8 -23.5,-23 -21,-20 -51,-45.5 -30,-25.5 -58,-48 -28,-22.5 -49,-37.5 -21,-15 -24,-15 -9,0 -9,96 0,47 -2,72.5 -2,25.5 -5,25.5 -3,0 -5.5,-25 -2.5,-25 -2.5,-77 0,-32 -0.5,-52 -0.5,-20 -5.5,-26.5 -5,-6.5 -13,-6.5 -3,0 -12,2.5 -9,2.5 -27,7.5 -56,16 -74,28 -18,12 -18,32 0,13 7.5,17 7.5,4 45.5,11 22,5 37,9.5 15,4.5 15,8.5 0,4 -11,4 -3,0 -14,-1 -11,-1 -54,-10 l -26,-5 v 42 q 0,17 -2,29 -2,12 -5,12 -3,0 -4.5,-12 -1.5,-12 -1.5,-30 v -44 l -128,-25 q -43,-9 -71,-13.5 -28,-4.5 -46,-6.5 -18,-2 -32,-2 -6,0 -19,0.5 -13,0.5 -43,1.5 -33,3 -72,7 -39,4 -68,10 -13,3 -25,4.5 -12,1.5 -16,1.5 -2,0 -2,0 -1,-1 -1,-3 0,-3 2.5,-10 2.5,-7 7.5,-14 9,-17 18.5,-41 9.5,-24 20.5,-52 4,-15 10,-31.5 6,-16.5 12,-16.5 3,0 3,4 0,8 11.5,20.5 11.5,12.5 27,26 15.5,13.5 33,25.5 17.5,12 26.5,17 12,6 37.5,13.5 25.5,7.5 60.5,15.5 35,8 74,17 39,9 73.5,16.5 34.5,7.5 61,12 26.5,4.5 32.5,4.5 9,0 10,-10.5 1,-10.5 1,-23.5 0,-17 -1,-45 l -3,-80 -63,-22 q -45,-15 -74,-17.5 -29,-2.5 -41,-2.5 -23,0 -36,5 -9,3 -9,6.5 0,3.5 4,11.5 11,22 37,35.5 26,13.5 82,31.5 40,14 59.5,23 19.5,9 21.5,12 0,0 0,0 0,1 -3,1 -5,0 -23,-3.5 -18,-3.5 -49,-14.5 -56,-21 -80.5,-24 -24.5,-3 -39.5,-3 -19,0 -38,3 -34,6 -39,21 -1,3 -2,3 -2,0 -3.5,-19.5 -1.5,-19.5 -4.5,-62.5 -6,-138 -45,-161 -6,-4 -6,-6 0,-9 57,-9 56,0 56,10 0,3 -7,8 -7,5 -14,14.5 -7,9.5 -11,20.5 -8,18 -12.5,44 -4.5,26 -4.5,51.5 0,25.5 2.5,40.5 2.5,15 7.5,15 1,0 2,-1 5,-3 10,-13 5,-10 10,-20 3,-11 13.5,-29 10.5,-18 20.5,-34 11,-17 17.5,-30.5 6.5,-13.5 6.5,-16.5 0,-4 7.5,-19 7.5,-15 16.5,-31 9,-16 17.5,-28 8.5,-12 11.5,-12 3,0 6.5,7.5 3.5,7.5 6.5,15.5 6,19 18,29 12,10 51,26 24,12 43,19.5 19,7.5 20,7.5 5,0 5,-19 0,-7 -1.5,-28.5 -1.5,-21.5 -12.5,-63.5 -9,-39 -21,-69.5 -12,-30.5 -27,-51.5 l -15,-21 h 86 q 63,0 75.5,2.5 12.5,2.5 12.5,6.5 0,4 -7,9 -8,4 -14.5,12.5 -6.5,8.5 -11.5,17.5 -6,10 -12.5,29.5 -6.5,19.5 -11,39 -4.5,19.5 -6.5,31 -2,11.5 -2,16.5 0,7 2,10 5,7 29,17 24,10 69,19 6,1 13,2.5 7,1.5 12,1.5 2,0 5.5,-0.5 3.5,-0.5 9,-4.5 5.5,-4 9.5,-8 12,-11 20.5,-24.5 8.5,-13.5 11.5,-22.5 l 7,-24 14,26 q 6,12 15,26 9,14 16,25 l 18,24 h 293 l -6,-47 q -2,-19 -8,-45.5 -6,-26.5 -13.5,-52.5 -7.5,-26 -15.5,-46.5 -8,-20.5 -14,-29.5 -6,-6 -9,-13.5 -3,-7.5 -3,-10.5 z m 118,20 q -6,-3 -19.5,-4.5 -13.5,-1.5 -29.5,-1.5 h -3 q -1,0 -1,0 h -2 q -1,0 -1,0 h -1 q -2,0 -3,0 h -13 q 0,0 -1,0 h -2 q -12,0 -12,4 0,3 7,24 8,20 15.5,44 7.5,24 13.5,46 l 13,57 14,-60 q 4,-25 11.5,-48.5 7.5,-23.5 15.5,-36.5 4,-9 4,-14.5 0,-5.5 -6,-9.5 z m -1047,72 q 3,-33 5.5,-52 2.5,-19 3.5,-19 3,0 10.5,9 7.5,9 18.5,20 18,19 30.5,30.5 12.5,11.5 33.5,16.5 21,5 55,7.5 34,2.5 86,3.5 62,3 101.5,5.5 39.5,2.5 39.5,5.5 0,3 -34.5,4.5 -34.5,1.5 -126.5,1.5 0,0 -1,0 h -1 q -1,0 -2,0 0,0 -1,0 h -1 q -1,0 -1,0 h -2 q -1,0 -1,0 h -19 q -26,0 -41.5,1.5 -15.5,1.5 -27,5 -11.5,3.5 -24.5,9.5 -21,9 -43.5,22 -22.5,13 -37.5,22 l -33,24 4,-29 q 3,-12 5.5,-39.5 2.5,-27.5 3.5,-48.5 z m 476,-51 q 2,-3 2,-5 0,-4 -5.5,-5.5 -5.5,-1.5 -40.5,-1.5 -19,0 -33.5,0.5 -14.5,0.5 -14.5,2.5 0,4 6,18 6,15 13,36.5 7,21.5 14,44.5 l 15,54 20,-66 q 7,-26 14,-49 7,-23 10,-29 z m -384,70 q -8,-3 -21.5,-12 -13.5,-9 -25.5,-18 l -25,-22 -5,52 q -3,21 -3,37.5 0,16.5 2,19.5 2,1 3,1 2,0 5.5,-2 3.5,-2 6.5,-5 7,-6 20.5,-13.5 13.5,-7.5 28.5,-14.5 l 33,-14 z m 571,101 q -12,-18 -17,-18 -5,0 -19,18 -10,13 -10,18 0,1 1.5,3.5 1.5,2.5 25.5,5.5 11,1 18,1 10,0 11.5,-1.5 1.5,-1.5 1.5,-3.5 0,-6 -12,-23 z m -376,12 q 0,-5 -11,-18 -7,-11 -9.5,-11 -2.5,0 -8.5,12 -8,13 -8,18 0,0 1,2.5 1,2.5 16,2.5 20,0 20,-6 z m -149,-6 q 0,-11 -22,-11 -15,0 -15,5 0,3 3,9.5 3,6.5 6.5,13.5 3.5,7 7.5,12 4,5 5,5 3,0 9,-14 6,-14 6,-20 z m 404,19 q -5,-1 -20,-5 -15,-4 -31,-8 l -41,-14 v 77 l 57,-18 q 39,-14 45.5,-20 6.5,-6 6.5,-8 0,-4 -17,-4 z m -162,30 q -38,-16 -54.5,-20.5 -16.5,-4.5 -33.5,-4.5 -9,0 -19,1 -27,3 -32,8.5 -5,5.5 -5,11.5 0,7 4,16 11,23 33.5,36.5 22.5,13.5 85.5,34.5 l 61,19 3,-36 v -1 q 0,-1 0,-2 v -3 q 0,-2 0,-3 v -15 q 0,-1 0,-1 v -3 q 0,-12 -1,-15 -3,-3 -14.5,-10 -11.5,-7 -27.5,-13 z m 622,-7 h -144 q -2,0 -4,0 h -2 q -3,0 -6,0 h -4 q -1,0 -2,0 h -3 q -1,0 -2,0 h -12 q -1,0 -2,0 h -24 q -1,0 -2,0 h -7 q -27,0 -42,1.5 -15,1.5 -19,3.5 -4,2 -4,4 0,0 0,1 3,5 19.5,21.5 16.5,16.5 39.5,37.5 16,13 26.5,22 10.5,9 18,13.5 7.5,4.5 13.5,4.5 6,0 15,-1 9,-2 14,-2 3,0 4,1 1,1 1,5 0,4 -1,9 -1,6 -1,12 0,21 20,33 20,12 65,12 h 45 z m -348,13 q -15,-6 -31.5,-9.5 -16.5,-3.5 -19.5,-3.5 -43,7 -71.5,14.5 -28.5,7.5 -28.5,13.5 0,3 9.5,18 9.5,15 21.5,31 12,16 21.5,28 9.5,12 11.5,12 0,0 0,0 1,-1 1,-3 0,-3 -2.5,-10.5 -2.5,-7.5 -5.5,-21.5 -11,-28 -11,-39 0,-3 2.5,-6.5 2.5,-3.5 20.5,-3.5 8,0 18,1 16,0 29.5,1.5 13.5,1.5 15.5,3.5 0,0 0,1 0,2 -3,10 -3,8 -8,17 -9,15 -13.5,31.5 -4.5,16.5 -5.5,33.5 l -2,36 42,4 q 17,3 47.5,4 30.5,1 56.5,2 43,0 50.5,-1.5 7.5,-1.5 7.5,-7.5 0,-2 -1,-4 -3,-5 -7.5,-18.5 -4.5,-13.5 -7.5,-23.5 -8,-36 -43,-64 -35,-28 -94,-46 z m 41,-9 q 1,-1 1,-2 0,-2 -10,-2 -8,0 -8.5,1 -0.5,1 -0.5,1 0,1 4,2 3,3 6,3 1,0 3.5,-0.5 2.5,-0.5 4.5,-2.5 z m -471,63 q 18,-3 19,-4.5 1,-1.5 1,-2.5 0,-4 -8,-17 l -14,-19 -12,22 q -12,20 -12,24 2,0 9.5,-0.5 7.5,-0.5 16.5,-2.5 z m 258,-18 q 3,-5 3,-8 0,-5 -6,-5 0,0 -5.5,0.5 -5.5,0.5 -17.5,9.5 -16,11 -18.5,22 -2.5,11 -2.5,15 0,7 5,7 7,0 21.5,-16 14.5,-16 20.5,-25 z m 124,6 q 0,-3 -5,-5 -5,-2 -12,-3 -7,-1 -13,-1 -6,0 -7,2 -2,2 -2,6 0,3 1.5,10.5 1.5,7.5 7.5,19.5 l 12,30 9,-26 q 3,-10 6,-20 3,-10 3,-13 z m -54,77 q 0,0 0,-1 0,-3 -6.5,-13 -6.5,-10 -18.5,-27 l -29,-37 -21,25 q -9,12 -13.5,19 -4.5,7 -4.5,8 0,0 0,0 3,2 17.5,7 14.5,5 31,9.5 16.5,4.5 28.5,7 12,2.5 15,2.5 z m -349,13 -27,-43 -12,24 q -6,10 -8.5,16.5 -2.5,6.5 -2.5,9.5 0,0 0,1 1,1 5,1 2,0 7,-0.5 5,-0.5 14,-3.5 z m 649,-18 -21,-3 q -6,-1 -10,-1 -9,0 -9.5,2.5 -0.5,2.5 -0.5,4.5 0,8 8,33 l 9,26 z m -339,11 q -30,-11 -33.5,-11.5 -3.5,-0.5 -3.5,-0.5 -3,0 -3,2 0,1 3,4 4,4 14.5,8.5 10.5,4.5 22,8.5 11.5,4 18.5,5 7,1 9,1 4,0 5,-1 1,-1 1,-1 0,-3 -9,-6 -9,-3 -24,-9 z m -442,82 q -20,-9 -39.5,-24 -19.5,-15 -32.5,-27 l -30,-28 -17,46 q -10,30 -16,46 -6,16 -6,21.5 0,5.5 4,5.5 1,0 4.5,-0.5 3.5,-0.5 13.5,-1.5 15,-3 58,-9 43,-6 86,-11 1,0 1,0 0,-2 -7,-7 -7,-5 -19,-11 z m 423,-64 q -8,-3 -15.5,-5.5 -7.5,-2.5 -13.5,-5.5 -6,-3 -12,-4 -1,0 -2,12.5 -1,12.5 -1,29.5 v 40 l 26,-10 q 9,-5 25.5,-11 16.5,-6 29.5,-9 24,-6 28.5,-11 4.5,-5 4.5,-7 0,-4 -12,-4 -10,0 -26,-4 -16,-4 -32,-11 z m 382,16 q 0,-6 -12,-12 -2,-1 -4,-1 -6,0 -6,9 0,10 12,10 10,0 10,-6 z m -63,30 q -4,-4 -29,-7 -25,-3 -50,-5 -25,-2 -43,-2 -7,0 -22.5,0.5 -15.5,0.5 -18.5,3.5 0,0 0,1 0,4 20,23 20,19 62,55 32,27 54.5,45 22.5,18 27,19 4.5,1 4.5,1 7,0 7,-14.5 0,-14.5 -1,-36.5 -2,-36 -5,-58 -3,-22 -6,-25 z"
     id="path1" />
</svg>
