<?xml version="1.0" encoding="UTF-8" standalone="no"?>
<svg
   width="2000"
   height="2000"
   version="1.1"
   id="svg1"
   sodipodi:docname="u12134.svg"
   inkscape:version="1.3.2 (091e20e, 2023-11-25)"
   xmlns:inkscape="http://www.inkscape.org/namespaces/inkscape"
   xmlns:sodipodi="http://sodipodi.sourceforge.net/DTD/sodipodi-0.dtd"
   xmlns="http://www.w3.org/2000/svg"
   xmlns:svg="http://www.w3.org/2000/svg">
  <defs
     id="defs1" />
  <sodipodi:namedview
     id="namedview1"
     pagecolor="#505050"
     bordercolor="#eeeeee"
     borderopacity="1"
     inkscape:showpageshadow="0"
     inkscape:pageopacity="0"
     inkscape:pagecheckerboard="0"
     inkscape:deskcolor="#505050"
     inkscape:zoom="0.379"
     inkscape:cx="1000"
     inkscape:cy="998.68074"
     inkscape:window-width="1392"
     inkscape:window-height="1212"
     inkscape:window-x="0"
     inkscape:window-y="0"
     inkscape:window-maximized="0"
     inkscape:current-layer="svg1" />
  <path
     d="m 942.5,670 q 28,-28 34.5,-31 6.5,-3 8.5,-3 5,0 5,9 0,12 10,29 10,17 26,39 16,22 35.5,44.5 19.5,22.5 35.5,37.5 10,9 26,22 16,13 37,28.5 21,15.5 45.5,32.5 24.5,17 63.5,43 31,20 55.5,36 24.5,16 36.5,21.5 12,5.5 19,5.5 1,0 5,-1 4,-1 13,-6 17,-8 25,-8 3,0 4.5,1 1.5,1 1.5,3 0,4 -15,15 -14,12 -14,21 0,2 1,4 1,3 1,5 0,4 -1.5,4.5 -1.5,0.5 -4.5,0.5 -3,0 -8,-1 -7,-2 -13,-2 -3,0 -8.5,1 -5.5,1 -18.5,6.5 -13,5.5 -31.5,16 -18.5,10.5 -46.5,26.5 -70,42 -130.5,84 -60.5,42 -106,78.5 -45.5,36.5 -73.5,65.5 -28,29 -34,52 -5,14 -11,14 -1,0 -4.5,-0.5 -3.5,-0.5 -3.5,-16.5 0,-16 -7.5,-37.5 -7.5,-21.5 -22.5,-50.5 -17,-32 -18,-38.5 -1,-6.5 -1,-7.5 0,-6 5,-6 2,0 6,2 5,2 8,2 1,0 3,-0.5 2,-0.5 2,-2.5 0,-4 -15.5,-14.5 -15.5,-10.5 -39,-23.5 -23.5,-13 -52,-26.5 -28.5,-13.5 -54.5,-23.5 -30,-11 -53.5,-16 -23.5,-5 -46.5,-5 -20,1 -32,1 -15,0 -17,-1 -2,-1 -2,-2 0,-3 18,-13 11,-7 30,-23.5 19,-16.5 37,-34.5 18,-18 31,-33 13,-15 13,-19 0,-3 -12,-20 -12,-17 -30,-37 -16,-20 -28.5,-36.5 -12.5,-16.5 -12.5,-18.5 0,-2 3,-2 1,0 4,0.5 3,0.5 11,2.5 15,5 31,5 11,0 29.5,-4 18.5,-4 59.5,-26 26,-13 49,-28.5 23,-15.5 39.5,-28.5 16.5,-13 21,-18.5 4.5,-5.5 4.5,-7.5 0,-4 -8,-4 -11,0 -11,-5 0,-1 2,-5.5 2,-4.5 18,-12.5 14,-6 32.5,-20.5 18.5,-14.5 40.5,-37.5 z m 39,2 q 0,-4 -4,-4 -1,0 -6.5,2 -5.5,2 -19.5,18 -20,19 -20,33 0,4 5,13.5 5,9.5 55,29.5 25,9 45.5,17.5 20.5,8.5 22.5,9.5 0,0 1,0 0,0 0,0 0,-1 -9.5,-15 -9.5,-14 -25.5,-35 -19,-26 -31.5,-44 -12.5,-18 -12.5,-25 z m 55,132 q -13,-6 -32.5,-15.5 -19.5,-9.5 -35,-16.5 -15.5,-7 -26.5,-12 -11,-5 -15,-6 -2,0 -4,0 -8,0 -22,6.5 -14,6.5 -40,26.5 -18,13 -31.5,25 -13.5,12 -13.5,15 0,2 6.5,4 6.5,2 18.5,2 22,0 24.5,4 2.5,4 2.5,8 0,8 -7,27 -6,13 -8.5,28.5 -2.5,15.5 -2.5,29.5 0,4 0,9 2,18 6.5,26.5 4.5,8.5 19.5,16.5 10,5 15.5,6 5.5,1 8.5,1 3,0 4,-1 2,-2 2,-10 0,-2 -0.5,-9 -0.5,-7 -3,-25 -2.5,-18 -7,-40.5 -4.5,-22.5 -9.5,-44.5 l -6,-21 83,1 q 34,2 65.5,3.5 31.5,1.5 43.5,1.5 11,0 16.5,1 5.5,1 6.5,3.5 1,2.5 1,5.5 0,3 -2,10 -2,7 -6,16 -8,21 -11,45 -3,24 -5,43 v 48 h 71 q 32,0 51,2 19,2 19,6 0,5 -20.5,7 -20.5,2 -52.5,2 h -75 v 60 q 0,32 -1.5,41 -1.5,9 -4.5,9 -1,0 -3,-2 -2,-6 -5,-24 -3,-18 -3,-44 0,-11 -0.5,-20.5 -0.5,-9.5 -2.5,-14 -2,-4.5 -7.5,-5 -5.5,-0.5 -14.5,-0.5 h -24 v 61 q 0,26 -3,46 -3,20 -6,22 0,0 -1,0 -3,0 -5.5,-14 -2.5,-14 -2.5,-43 0,-26 -2,-46 -2,-20 -6,-22 -3,-2 -11.5,-2 -8.5,0 -16.5,2 -8,2 -12,4.5 -4,2.5 -6,9 -2,6.5 -2.5,19 -0.5,12.5 -0.5,27.5 0,34 -3,51.5 -3,17.5 -6,17.5 -4,0 -6,-16.5 -2,-16.5 -2,-46.5 0,-16 -0.5,-28 -0.5,-12 -2.5,-17.5 -2,-5.5 -5.5,-7 -3.5,-1.5 -11.5,-1.5 -26,0 -36,14.5 -10,14.5 -10,47.5 0,3 0,6 1,14 2.5,23.5 1.5,9.5 6,16.5 4.5,7 12.5,12.5 8,5.5 21,13.5 16,10 24.5,14.5 8.5,4.5 14,5.5 5.5,1 9.5,1 5,0 11.5,-1 6.5,-1 20.5,-4 62,-17 127,-47 65,-30 146,-80 46,-27 78.5,-48.5 32.5,-21.5 32.5,-25.5 0,-3 -15.5,-15 -15.5,-12 -41,-29 -25.5,-17 -58,-37.5 -32.5,-20.5 -66,-40.5 -33.5,-20 -65.5,-38 -32,-18 -65,-34 z m -196,67 q 0,-9 -2,-15 -2,-6 -6,-6 -3,0 -6,6 -3,6 -3,15 0,9 3,15 3,6 6,6 4,0 6,-6 2,-6 2,-15 z m -27,25 q -5,-17 -10,-29.5 -5,-12.5 -10,-13.5 -1,0 -2,0 -5,0 -13.5,9.5 -8.5,9.5 -17.5,26.5 -9,17 -16,36.5 -7,19.5 -9,36.5 -2,13 -6,26 -4,13 -6,18 -3,3 -3,8 0,9 9,25 6,12 18.5,29.5 12.5,17.5 26.5,33.5 14,16 26,27.5 12,11.5 15,11.5 5,0 6,-25 1,-25 1,-48 0,-15 -0.5,-44 -0.5,-29 -2.5,-69.5 -2,-40.5 -6,-58.5 z m 111,-16 q 0,-9 -3,-15 -3,-6 -7,-6 -3,0 -5,4.5 -2,4.5 -2,10.5 0,7 2,13.5 2,6.5 6,8.5 1,1 2,1 2,0 4.5,-4 2.5,-4 2.5,-13 z m 75,-10 q 0,-11 -12,-11 -10,0 -10,8 0,4 2,9 2,7 2,11 0,3 2,3 2,0 5,-2 5,-3 8,-8 3,-5 3,-10 z m 68,18 q 3,-8 3,-14 0,-6 -5,-9 -4,-4 -7,-4 -3,0 -5.5,4.5 -2.5,4.5 -2.5,9.5 0,6 4,14 5,8 8,8 0,0 1,-0.5 1,-0.5 4,-8.5 z m -89,68 q -3,-22 -7,-41 -4,-19 -8.5,-32 -4.5,-13 -8,-17 -3.5,-4 -4.5,-4 -2,0 -4,3 -3,3 -7,22.5 -4,19.5 -6,43.5 -3,22 -3,38 0,15 5,26.5 5,11.5 28,11.5 15,0 16.5,-5 1.5,-5 1.5,-11 0,-11 -3,-35 z m -230,-87 q 0,-4 -6,-4 -2,0 -9,1.5 -7,1.5 -18,8.5 -5,2 -14,5 -9,3 -17,3 -7,0 -12.5,2.5 -5.5,2.5 -5.5,6.5 0,4 5.5,14 5.5,10 12.5,19.5 7,9.5 14,17 7,7.5 10,7.5 2,0 8.5,-11 6.5,-11 13.5,-25.5 7,-14.5 12.5,-27.5 5.5,-13 5.5,-17 z m 287,12 q -2,-5 -5.5,-10 -3.5,-5 -7.5,-5 -16,0 -19,93 v 3 q 0,1 0,2 v 4 q 0,1 0,1 v 6 q 0,0 0,1 v 9 q 0,1 0,1 v 2 q 0,11 2,16.5 2,5.5 6.5,7.5 4.5,2 11.5,3 4,1 8,1 16,0 18.5,-7.5 2.5,-7.5 2.5,-17.5 0,-15 -4,-42 -5,-22 -8,-42 -3,-20 -5,-26 z m -128,128 q -21,-8 -32,-11.5 -11,-3.5 -16,-3.5 -1,0 -4.5,0.5 -3.5,0.5 -4.5,5.5 -1,5 -1,15 0,18 2,20 2,2 7,2 6,0 17,-2 19,-4 37,-11 11,-5 11,-6 0,0 -0.5,-1 -0.5,-1 -15.5,-8 z m -199,25 q -7,-16 -15,-16 -1,0 -5.5,1 -4.5,1 -28.5,26 -22,22 -23.5,26.5 -1.5,4.5 -1.5,4.5 0,6 14,6 5,2 22.5,6 17.5,4 35.5,11 17,5 27,7.5 10,2.5 13,2.5 2,0 2,-1 0,-2 -4.5,-11 -4.5,-9 -11.5,-19 -7,-11 -14.5,-23.5 -7.5,-12.5 -9.5,-20.5 z m 275,219 q 33,-30 47,-45 14,-15 14,-16 0,0 0,0 0,0 0,0 -4,0 -21.5,4.5 -17.5,4.5 -33.5,9.5 -24,8 -45,12.5 -21,4.5 -32,4.5 -6,0 -14,1.5 -8,1.5 -10,2.5 -1,1 -1,2 0,4 4,14.5 4,10.5 11,25 7,14.5 13,25 6,10.5 9,10.5 0,0 0,0 2,-1 21.5,-18 19.5,-17 37.5,-33 z"
     id="path1" />
</svg>
