<?xml version="1.0" encoding="UTF-8" standalone="no"?>
<svg
   width="2000"
   height="2000"
   version="1.1"
   id="svg1"
   sodipodi:docname="u1210B.svg"
   inkscape:version="1.3.2 (091e20e, 2023-11-25)"
   xmlns:inkscape="http://www.inkscape.org/namespaces/inkscape"
   xmlns:sodipodi="http://sodipodi.sourceforge.net/DTD/sodipodi-0.dtd"
   xmlns="http://www.w3.org/2000/svg"
   xmlns:svg="http://www.w3.org/2000/svg">
  <defs
     id="defs1" />
  <sodipodi:namedview
     id="namedview1"
     pagecolor="#505050"
     bordercolor="#eeeeee"
     borderopacity="1"
     inkscape:showpageshadow="0"
     inkscape:pageopacity="0"
     inkscape:pagecheckerboard="0"
     inkscape:deskcolor="#505050"
     inkscape:zoom="0.379"
     inkscape:cx="1000"
     inkscape:cy="998.68074"
     inkscape:window-width="1392"
     inkscape:window-height="1212"
     inkscape:window-x="0"
     inkscape:window-y="0"
     inkscape:window-maximized="0"
     inkscape:current-layer="svg1" />
  <path
     d="m 835.5,643.5 q 0,-6 9,-6 3,0 5,0.5 2,0.5 2,2.5 0,1 -1,5 -1,4 -7,16 -1,1 -2,3 l -1,1 q 0,1 0,1 l -1,1 q 0,1 0,2 l -1,1 q -1,2 -2,4 l -1,2 q 0,0 -1,1 v 1 q 0,1 -1,2 l -1,1 q -1,3 -2,5 l -1,2 q 0,1 -1,2 l -1,1 q 0,2 -1,3 -19,39 -22.5,55.5 -3.5,16.5 -3.5,21.5 0,13 10,13 7,0 7,7 0,9 15,25 15,16 34,31.5 19,15.5 33,24 14,8.5 18,8.5 2,0 2,-2 2,-2 5,-2 10,0 34,23 11,11 19,17 8,6 18,9 10,3 23.5,4.5 13.5,1.5 35.5,1.5 22,2 38,2 6,0 18,-0.5 12,-0.5 13,-1.5 3,-2 4,-21.5 1,-19.5 1,-46.5 v -63 h -24 q -23,0 -53.5,3 -30.5,3 -60.5,7.5 -30,4.5 -53.5,10 -23.5,5.5 -36.5,12.5 -8,6 -12,6 -4,0 -5,-3.5 -1,-3.5 -1,-5.5 0,-12 12,-43 9,-21 13.5,-41.5 4.5,-20.5 4.5,-35.5 0,-24 11,-24 8,0 23,14 14,13 34,23.5 20,10.5 43.5,19.5 23.5,9 45,16 21.5,7 33.5,7 17,0 17,-11 0,-6 -5.5,-17 -5.5,-11 -13,-21.5 -7.5,-10.5 -15,-19 -7.5,-8.5 -14.5,-8.5 -4,0 -4,-1 0,-1 2,-3 6,-6 24.5,-6.5 18.5,-0.5 29.5,-0.5 22,0 51,1 50,3 57.5,5 7.5,2 7.5,5 0,2 -6,6 -11,6 -20.5,19 -9.5,13 -17,28 -7.5,15 -9,23 -1.5,8 -1.5,11 0,6 3,8 1,1 23,5.5 22,4.5 57,13 35,8.5 81.5,18 46.5,9.5 96.5,20.5 11,2 22,4 l 6,2 q 22,4 44,8 l 5,2 q 10,2 20,3 45,9 79,17.5 34,8.5 53.5,13 19.5,4.5 19.5,5.5 0,3 -57,14.5 -57,11.5 -138,27.5 l -197,38 -60,46 q -28,23 -45.5,38 -17.5,15 -27,26 -9.5,11 -13.5,20 -4,9 -4,18 v 21 h 215 q 103,0 159.5,2.5 56.5,2.5 56.5,5.5 0,4 -55,6.5 -55,2.5 -161,2.5 -63,0 -104.5,0.5 -41.5,0.5 -64.5,1.5 -23,1 -32,4 -9,3 -12,10 -3,9 -11.5,9 -8.5,0 -8.5,-10 0,-11 -7.5,-12.5 -7.5,-1.5 -20.5,-1.5 -6,0 -14,0 -34,3 -72.5,14.5 -38.5,11.5 -76.5,26.5 -38,15 -72,32 -34,17 -55,37 -4,4 -12.5,11 -8.5,7 -9.5,7 -3,0 -3,-10 0,-1 0.5,-8.5 0.5,-7.5 3.5,-26.5 l 6,-44 -130,6 q -54,3 -97.5,7 -43.5,4 -51.5,7 -15,10 -15,39 0,21 -6,21 -10,0 -10,-66 0,-11 0,-24 v -9 q 0,-3 0,-5 v -2 q 0,-1 0,-1 v -5 q 0,-1 0,-2 v -1 q 0,-1 0,-2 v -22 q 0,-19 -1.5,-29.5 -1.5,-10.5 -4.5,-15 -3,-4.5 -11,-10.5 -11,-9 -11,-14 0,-1 1,-2 2,-2 12,-2 4,0 17.5,1 13.5,1 37.5,3 24,2 43,5 19,3 19,9 0,5 -6,5 -8,0 -19,6.5 -11,6.5 -23,15.5 -12,9 -21,18 -9,9 -9,12 0,3 12,11.5 12,8.5 30,17.5 13,6 24.5,10.5 11.5,4.5 25.5,6 14,1.5 35,1.5 21,0 54,-2 45,-1 68.5,-3.5 23.5,-2.5 33,-10 9.5,-7.5 10,-15.5 0.5,-8 0.5,-10 0,-13 -4,-33 -3,-16 -3,-24 0,-7 1.5,-7.5 1.5,-0.5 2.5,-0.5 6,0 20,13 35,27 82,36.5 47,9.5 133,9.5 h 94 v -24 q 0,-22 -1.5,-35 -1.5,-13 -11,-19 -9.5,-6 -30,-7.5 -20.5,-1.5 -59.5,-1.5 -54,0 -77,3 -23,3 -35,15 l -5,5 q -4,4 -7,4 -3,0 -4,-16.5 -1,-16.5 -1,-34.5 0,-30 2.5,-45.5 2.5,-15.5 6.5,-15.5 8,0 8,-21 0,-9 -1.5,-16 -1.5,-7 -3.5,-7 -3,0 -31.5,19.5 -28.5,19.5 -62.5,43.5 -38,26 -57.5,41 -19.5,15 -31.5,27 -12,12 -20,25.5 -8,13.5 -19,34.5 -10,24 -20,41 -10,17 -13,17 -1,0 -8.5,-12 -7.5,-12 -15,-28.5 -7.5,-16.5 -12.5,-28.5 -5,-12 -5,-18 0,-2 1,-4 2,-6 8,-6 2,0 5,1 3,2 6,2 3,0 5,-1 1,0 1,0 0,0 0,0 l 2,-1 q 2,0 5,-1 l 1,-1 q 0,0 0,0 1,0 3,-1 4,-3 4,-6 0,-5 -9.5,-15 -9.5,-10 -48.5,-40 -45,-35 -60.5,-42.5 -15.5,-7.5 -29.5,-7.5 -10,0 -20,2 -8,2 -13,2 -6,0 -6,-4 0,-9 45,-45 22,-18 35.5,-32 13.5,-14 13.5,-23 0,-5 2.5,-21.5 2.5,-16.5 5.5,-34.5 3,-24 3,-36 0,-5 -1,-11.5 -1,-6.5 -11,-16.5 -8,-8 -15.5,-12.5 -7.5,-4.5 -13.5,-4.5 -4,0 -4,-1 0,-1 1,-2 6,-7 31.5,-7 25.5,0 55.5,2 30,2 57,5 27,3 32,6 1,1 2,1 6,0 23.5,-11 17.5,-11 40,-26.5 22.5,-15.5 40.5,-31.5 18,-16 18,-23 z m 359,60 q 1,-1 1,-1 0,-2 -10.5,-3.5 -10.5,-1.5 -29.5,-1.5 -24,0 -28.5,1.5 -4.5,1.5 -4.5,5.5 0,4 3,12 4,12 7,26 6,32 16,32 3,0 11,-6.5 8,-6.5 35,-64.5 z m -398,12 q 1,-2 1,-3 1,-1 1,-2 v -1 q 1,0 1,-1 0,0 0,-1 -3,0 -14,7.5 -11,7.5 -23,16.5 -12,9 -21,16.5 -9,7.5 -9,9.5 0,3 7.5,7.5 7.5,4.5 17.5,7.5 15,6 20,6 1,0 3.5,-1 2.5,-1 2.5,-14 0,-11 3,-22 3,-11 10,-26 z m 156,18 q -13,-9 -16,-9 -2,0 -5.5,9.5 -3.5,9.5 -8,22.5 -4.5,13 -7.5,24 -3,11 -3,16 0,1 9,1.5 9,0.5 15,0.5 9,0 25.5,-1 16.5,-1 41,-4 24.5,-3 47.5,-6 l 30,-5 -50,-16 q -21,-8 -41,-15.5 -20,-7.5 -37,-17.5 z m -319,16 q 1,-1 1,-3 0,-6 -18,-6 -9,0 -15.5,2.5 -6.5,2.5 -6.5,6.5 0,8 16,8 8,0 14,-2.5 6,-2.5 9,-5.5 z m 52,5 q 4,-2 4,-4 0,0 -0.5,-0.5 -0.5,-0.5 -3.5,-0.5 -2,0 -8.5,1 -6.5,1 -19,5.5 -12.5,4.5 -26.5,11.5 -13,6 -20,11.5 -7,5.5 -11.5,13.5 -4.5,8 -6.5,22.5 -2,14.5 -7,39.5 -6,44 -7.5,60.5 -1.5,16.5 -1.5,24.5 0,13 3,25 3,12 13.5,22.5 10.5,10.5 27.5,25.5 22,18 39.5,29 17.5,11 20.5,13 1,0 2,0 9,0 41,-19 32,-19 70,-45 38,-26 69.5,-50 31.5,-24 31.5,-29 0,-3 -21.5,-5 -21.5,-2 -51.5,-2 h -74 l -39,36 q -16,15 -26.5,28.5 -10.5,13.5 -10.5,22.5 0,7 -8,7 -9,0 -10,-13 -1,-13 -1,-17 0,-24 7,-70 3,-23 6,-38.5 3,-15.5 9,-15.5 4,0 4,10 0,14 14,21 10,6 34,9 24,3 52,4.5 28,1.5 52.5,1.5 24.5,0 33.5,-3 7,-2 7,-6 0,-2 -2,-6 -2,-4 -36,-31 -15,-12 -33,-25 -18,-13 -33,-22 -15,-9 -28,-14 -13,-5 -31,-10 -29,-6 -29,-13 0,-3 5,-6 z m 717,94 q -45,-9 -84,-16.5 -39,-7.5 -69,-14 -30,-6.5 -49.5,-10.5 -19.5,-4 -22.5,-5 -2,0 -4,0 -11,0 -20,13 -3,8 -5,28 -2,20 -2.5,35.5 -0.5,15.5 -0.5,24.5 0,13 1,28.5 1,15.5 6,23.5 6,7 18.5,10 12.5,3 34.5,3 3,0 18.5,-0.5 15.5,-0.5 57.5,-7.5 42,-7 105,-17 34,-8 66.5,-14 32.5,-6 59.5,-10.5 27,-4.5 45.5,-8 18.5,-3.5 24.5,-3.5 11,-3 19,-5.5 8,-2.5 8,-5.5 0,-1 -16.5,-5 -16.5,-4 -45,-10.5 -28.5,-6.5 -66,-15 -37.5,-8.5 -79.5,-17.5 z m -700,53 q -9,-6 -14,-6 -2,0 -5.5,2 -3.5,2 -7.5,22 -3,12 -3,18 0,4 1,4.5 1,0.5 2,0.5 5,0 21,-14 13,-11 14,-13.5 1,-2.5 1,-3.5 0,-4 -9,-10 z m 262,30 q 0,-8 -12,-14 -5,-2 -8,-2 -7,0 -7,10 0,13 15,13 12,0 12,-7 z m -405,6 q 0,-6 -2,-11.5 -2,-5.5 -7,-5.5 -7,0 -14,9.5 -7,9.5 -7,14.5 0,4 3,8 5,4 10,4 4,0 10.5,-3 6.5,-3 6.5,-16 z m 560,27 q -6,-12 -20.5,-14.5 -14.5,-2.5 -57.5,-2.5 -48,0 -65.5,3 -17.5,3 -32.5,15 l -24,18 29,29 q 0,0 0,0 l 3,4 q 1,0 1,0 l 3,4 q 0,0 1,0 l 2,3 q 1,0 1,1 l 3,2 q 0,0 0,1 l 3,2 q 0,0 0,0 7,7 16.5,9 9.5,2 25.5,3 16,1 44,1 h 77 v -32 q 0,-12 -3,-25.5 -3,-13.5 -6,-20.5 z m 138,25 q 0,-1 -16,-2 -16,-1 -37,-2 l -51,-2 v 86 l 29,-21 q 12,-8 26,-19 14,-11 22,-17 12,-9 19.5,-14.5 7.5,-5.5 7.5,-8.5 z m -324,35 q -6,-8 -9,-8 -3,0 -3,11 0,19 9,19 2,0 4,-1 7,-3 7,-8 0,-5 -8,-13 z m -257,88 q 11,-16 11,-21 0,0 -0.5,-1 -0.5,-1 -2.5,-1 -5,0 -17,5 -18,6 -19,9.5 -1,3.5 -1,4.5 0,7 7,18 2,5 5,5 1,0 4,-2 3,-2 13,-17 z m -141,-7 q 5,-6 5,-9 0,-1 -1,-2 -1,-1 -11,-1 -20,0 -20,10 0,9 5,10 5,1 6,1 8,0 16,-9 z m 318,33 q -15,-11 -21,-11 -1,0 -5,16.5 -4,16.5 -6,36 -2,19.5 -2.5,31 -0.5,11.5 -0.5,15.5 0,8 1,9 0,0 1,0 4,0 28.5,-9 24.5,-9 58.5,-24 l 84,-34 -60,-11 q -25,-4 -47.5,-10 -22.5,-6 -30.5,-9 z m -495,55 q 23,-19 41.5,-33.5 18.5,-14.5 23.5,-14.5 4,0 4,12 0,5 -1,14 -3,10 -3,25 0,15 3,27 1,9 5,16.5 4,7.5 13.5,16 9.5,8.5 26,19.5 16.5,11 48.5,29 33,20 56,36.5 23,16.5 23,20.5 0,1 0,1 0,0 -2,0 -6,0 -32.5,-14 -26.5,-14 -65.5,-36 -42,-26 -69,-40 -27,-14 -45,-21 -18,-7 -30,-7 -12,0 -29,6 -11,4 -17,4 -4,0 -4,-3 0,-11 54,-58 z m 173,-12 q -7,-2 -10,-2 -1,0 -3,0.5 -2,0.5 -2,9.5 0,16 8,16 5,0 11,-4 8,-5 8,-9 0,-6 -12,-11 z m -125,33 q -3,-24 -6,-25 -3,-1 -4,-1 -6,0 -21,17 -13,14 -13,18 0,1 1,3 1,2 22,6 13,3 18,3 3,0 4,-1 1,-1 1,-5 0,-5 -2,-15 z"
     id="path1" />
</svg>
