<?xml version="1.0" encoding="UTF-8" standalone="no"?>
<svg
   width="2000"
   height="2000"
   version="1.1"
   id="svg1"
   sodipodi:docname="u12117.svg"
   inkscape:version="1.3.2 (091e20e, 2023-11-25)"
   xmlns:inkscape="http://www.inkscape.org/namespaces/inkscape"
   xmlns:sodipodi="http://sodipodi.sourceforge.net/DTD/sodipodi-0.dtd"
   xmlns="http://www.w3.org/2000/svg"
   xmlns:svg="http://www.w3.org/2000/svg">
  <defs
     id="defs1" />
  <sodipodi:namedview
     id="namedview1"
     pagecolor="#505050"
     bordercolor="#eeeeee"
     borderopacity="1"
     inkscape:showpageshadow="0"
     inkscape:pageopacity="0"
     inkscape:pagecheckerboard="0"
     inkscape:deskcolor="#505050"
     inkscape:zoom="0.379"
     inkscape:cx="1000"
     inkscape:cy="998.68074"
     inkscape:window-width="1392"
     inkscape:window-height="1212"
     inkscape:window-x="0"
     inkscape:window-y="0"
     inkscape:window-maximized="0"
     inkscape:current-layer="svg1" />
  <path
     d="m 1363.5,632.5 q 15,-20 22.5,-29 7.5,-9 8.5,-9 2,0 2,6 0,2 -1,10.5 -1,8.5 -2,27.5 l -6,46 29,26 q 12,12 36.5,29.5 24.5,17.5 51.5,33.5 25,14 34,17.5 9,3.5 15,3.5 7,0 15,-4 5,-3 7,-3 1,0 1,2 0,1 0,2 -2,9 -27,28.5 -25,19.5 -68,47.5 -31,20 -57,38.5 -26,18.5 -42,32.5 -16,14 -24,25.5 -8,11.5 -11,27.5 -2,8 -2.5,15 -0.5,7 -0.5,12 0,4 0,8 1,3 1,5 0,4 -3,4 -4,0 -15.5,-7.5 -11.5,-7.5 -41.5,-47.5 -19,-26 -32,-39.5 -13,-13.5 -24,-13.5 -6,0 -12,3 -4,2 -38,17.5 -34,15.5 -67,31 -33,15.5 -57,27 -24,11.5 -24,13.5 0,2 10.5,10 10.5,8 29.5,19 11,6 37.5,22 26.5,16 48.5,32 l 55,36 17,-16 q 8,-7 12.5,-11 4.5,-4 5.5,-4 1,0 1,1 0,1 1,8.5 1,7.5 2,13.5 4,22 18,38 14,16 47,37 37,24 46.5,25 9.5,1 11.5,1 17,0 39,-17 l 17,-15 -57,-31 q -27,-16 -48,-24 -21,-8 -37,-8 -9,0 -17.5,-2.5 -8.5,-2.5 -8.5,-4.5 0,-3 7.5,-14 7.5,-11 16.5,-22.5 9,-11.5 18,-21 9,-9.5 13,-9.5 5,0 5,14 0,24 22,47.5 22,23.5 60,46.5 12,7 21.5,11.5 9.5,4.5 14,5.5 4.5,1 6.5,1 4,0 8.5,-2.5 4.5,-2.5 9.5,-4.5 23,-12 31,-12 2,0 3,1 1,1 1,2 0,5 -13,17 -12,8 -13,10.5 -1,2.5 -1,3.5 0,4 7,8 7,5 7,9 0,2 -2,3.5 -2,1.5 -6,1.5 -5,0 -13,-4 -9,-5 -18,-5 -1,0 -6,0.5 -5,0.5 -27,12.5 -17,9 -19,11.5 -2,2.5 -2,3.5 0,3 9,9 12,8 12,14 0,1 -1.5,3.5 -1.5,2.5 -6.5,2.5 -7,0 -21,-7 -7,-4 -12,-5.5 -5,-1.5 -9,-1.5 -1,0 -4.5,0.5 -3.5,0.5 -11.5,4.5 -8,4 -21,10 -14,9 -23,16 -9,7 -9,10 0,0 0,1 1,2 9,6.5 8,4.5 15,7.5 20,9 23.5,13.5 3.5,4.5 3.5,5.5 0,3 -7,3 -7,0 -17,-4.5 -10,-4.5 -20,-9.5 -19,-10 -22.5,-10.5 -3.5,-0.5 -4.5,-0.5 -6,0 -15,5 -13,8 -25.5,22.5 -12.5,14.5 -23.5,34.5 -7,11 -14,21 -7,10 -8,10 -3,0 -10.5,-19.5 -7.5,-19.5 -15.5,-44 -8,-24.5 -13,-42.5 -5,-18 -5,-23 0,-1 1,-2 1,-1 2,-1 2,0 6.5,1.5 4.5,1.5 9.5,5.5 9,5 22.5,8.5 13.5,3.5 21.5,4 8,0.5 12,0.5 7,0 12.5,-1 5.5,-1 5.5,-4 0,0 0,-1 -3,-5 -15,-11.5 -12,-6.5 -27,-12.5 -15,-6 -29.5,-10.5 -14.5,-4.5 -25.5,-4.5 -6,0 -13.5,-1.5 -7.5,-1.5 -7.5,-2.5 0,-4 8,-15.5 8,-11.5 18,-23.5 10,-12 18.5,-21.5 8.5,-9.5 11.5,-9.5 2,0 3,5 1,5 1,10 0,22 18.5,45 18.5,23 44.5,37 l 33,19 35,-22 q 14,-9 22,-15.5 8,-6.5 8,-9.5 0,-1 -1,-2 -3,-6 -16,-14.5 -13,-8.5 -30,-15.5 -17,-7 -35,-13 -18,-6 -30,-7 -27,-6 -30.5,-9 -3.5,-3 -3.5,-8 0,-4 2,-11 3,-5 3,-9 0,-2 -1.5,-4.5 -1.5,-2.5 -13,-11.5 -11.5,-9 -36.5,-25 -25,-16 -70,-44 -25,-16 -39.5,-24 -14.5,-8 -23.5,-12.5 -9,-4.5 -14,-4.5 -1,0 -4,0.5 -3,0.5 -11,4.5 -5,3 -8.5,5.5 -3.5,2.5 -5,13 -1.5,10.5 -1.5,31.5 v 1 q 0,2 0,3 v 1 q 0,1 0,1 v 4 q 0,1 0,1 v 2 q 0,1 0,2 v 5 q 0,0 0,1 v 2 q 0,2 0,5 v 21 q 0,1 0,2 v 2 q 0,1 0,3 v 6 q 0,2 0,5 v 3 q 0,0 0,1 v 6 q 0,1 0,3 v 2 q 0,1 0,2 v 7 q 0,1 0,2 v 3 q 0,2 0,5 v 20 q 0,1 0,1 v 2 q 0,1 0,2 v 2 q 0,25 -0.5,34 -0.5,9 -1.5,9 0,0 -1,-1 -1,-1 -2,-4 -5,-10 -7,-42 -2,-32 -2,-69 0,-37 -2,-64 -2,-27 -4,-27 -2,0 -24.5,10.5 -22.5,10.5 -52.5,25.5 l -71,36 -1,109 q -2,106 -6,108.5 -4,2.5 -4,2.5 -7,0 -7,-107 0,-51 -1.5,-73.5 -1.5,-22.5 -7.5,-22.5 -4,0 -15.5,7.5 -11.5,7.5 -25.5,18 -14,10.5 -26.5,22 -12.5,11.5 -17.5,17.5 -7,11 -24,15.5 -17,4.5 -46,8.5 -54,7 -74,27 -6,6 -8.5,6.5 -2.5,0.5 -3.5,0.5 -4,0 -6,-5 -2,-7 -5,-34.5 -3,-27.5 -4,-57 -1,-29.5 -1,-53.5 0,-24 5,-24 5,0 15,15 11,15 20.5,18.5 9.5,3.5 38.5,3.5 35,0 51,-5 16,-5 21,-19 2,-9 3.5,-10.5 1.5,-1.5 2.5,-1.5 2,0 5,3 7,6 18.5,8 11.5,2 22.5,2 9,0 21,-1 18,-2 23.5,-4 5.5,-2 5.5,-9 0,-2 0,-3 -1,-6 -5,-18 -4,-12 -10,-28 -6,-16 -13.5,-34 -7.5,-18 -16.5,-34 0,0 0,-1 0,-5 11.5,-7 11.5,-2 46.5,-2 35,0 47,2 12,2 12,10 0,3 -2,8 -2,5 -6,6 -5,3 -11,14 -6,11 -11.5,24.5 -5.5,13.5 -10,27 -4.5,13.5 -4.5,24.5 0,11 2.5,12 2.5,1 4.5,1 5,0 18,-4 11,-3 31,-11 20,-8 41.5,-16.5 21.5,-8.5 38.5,-16 17,-7.5 19,-8.5 2,-1 2,-4 0,-2 -1.5,-7 -1.5,-5 -2.5,-8 -4,-16 -16.5,-28 -12.5,-12 -49.5,-34 -61,-34 -119,-54.5 -58,-20.5 -103,-21.5 -32,0 -39,-2.5 -7,-2.5 -7,-6.5 0,-1 0,-2 0,-1 0,-2 0,-13 -43,-36 -38,-21 -55,-21 -4,0 -13,2.5 -9,2.5 -11,37.5 -1,5 -1,9 0,2 0.5,6 0.5,4 3.5,9 3,5 10.5,10 7.5,5 22.5,14 12,7 24,15 12,8 16,8 7,2 7,5 0,1 -1,2 -2,2 -7,2 -5,0 -16,-4.5 -11,-4.5 -32,-15.5 -14,-7 -24,-11.5 -10,-4.5 -16.5,-6 -6.5,-1.5 -12.5,-1.5 -2,0 -6.5,0.5 -4.5,0.5 -17.5,3.5 -12,4 -18,4 -6,0 -6,-5 0,-5 22,-33 13,-17 18.5,-27 5.5,-10 5.5,-13 0,0 0,0 0,0 0,0 0,-2 9,-16 9,-14 25,-35.5 16,-21.5 35.5,-47 19.5,-25.5 34.5,-42.5 17,-18 23,-18 1,0 2.5,1 1.5,1 1.5,5 0,7 -4,18 -5,15 -5,27 0,10 6,21.5 6,11.5 39,29.5 14,7 25,14 11,7 13,10 1,1 3,1 1,0 4.5,-0.5 3.5,-0.5 8.5,-5.5 6,-6 11,-6 3,0 7,2.5 4,2.5 19,22.5 23,30 53.5,57.5 30.5,27.5 63,51.5 32.5,24 56,37.5 23.5,13.5 29.5,13.5 2,0 3,-1 1,-1 1,-3 0,-4 -3,-12 -3,-8 -9,-23 -7,-14 -11.5,-25 -4.5,-11 -4.5,-14 0,-1 7,-1 h 1 q 1,0 2,0 h 3 q 0,0 1,0 0,0 0,0 h 9 l 23,5 -2,-61 q -1,-18 -2,-31.5 -1,-13.5 -4,-24 -3,-10.5 -7,-19.5 -4,-9 -12,-23 -7,-12 -12.5,-24 -5.5,-12 -5.5,-13 1,-2 15.5,-2.5 14.5,-0.5 36,-1 21.5,-0.5 46.5,-0.5 25,0 47,0.5 22,0.5 37,1.5 15,1 16,2 1,1 1,2 0,2 -4.5,9 -4.5,7 -13.5,15 -6,9 -9.5,15.5 -3.5,6.5 -5,17 -1.5,10.5 -2,28 -0.5,17.5 -0.5,40.5 0,47 -2.5,70.5 -2.5,23.5 -6.5,23.5 -3,0 -5,-19 -2,-19 -2,-53 0,-17 -0.5,-31.5 -0.5,-14.5 -3,-25 -2.5,-10.5 -6.5,-20 -4,-9.5 -10,-21.5 -9,-18 -17,-29.5 -8,-11.5 -12,-11.5 0,0 -1,0 -3,0 -9.5,6.5 -6.5,6.5 -14.5,17.5 -5,8 -8.5,15 -3.5,7 -5.5,17 -2,10 -2,24 0,14 1,36 l 4,69 25,-4 q 4,0 8,0 13,0 13,7 0,7 -13,31 -20,36 -21,47 -1,11 -1,13 0,18 14,24 3,4 9,4 6,0 16.5,-3.5 10.5,-3.5 27,-10.5 16.5,-7 38.5,-17 37,-17 69,-30 32,-13 42,-17 25,-11 27,-15 2,-4 2,-6 0,-6 -10,-15 -10,-9 -17.5,-11 -7.5,-2 -14.5,-2 -9,0 -23,2 -10,2 -20.5,2 -10.5,0 -10.5,-3 0,-2 10,-15.5 10,-13.5 22,-29.5 12,-16 25,-30 13,-14 17,-17 5,-3 20,-19.5 15,-16.5 30,-34.5 30,-36 40,-42.5 10,-6.5 12,-6.5 3,0 3,3 0,2 -2,7 -1,3 -1,5 0,1 0,1 3,0 18,-17 15,-17 40,-49 z m 12,31 q 0,-5 -1.5,-7 -1.5,-2 -2.5,-2 -1,0 -1,0 -2,0 -8.5,6 -6.5,6 -13,14.5 -6.5,8.5 -12,15.5 -5.5,7 -5.5,9 0,1 7,2 7,1 17,1 17,0 20.5,-2.5 3.5,-2.5 3.5,-8.5 0,-3 -1,-7 -1,-4 -2,-11 -1,-7 -1,-10 z m -403,40 q 0,-6 -6.5,-8 -6.5,-2 -16.5,-2 -8,-1 -12,-1 -8,0 -8.5,1.5 -0.5,1.5 -0.5,2.5 0,5 11,21 9,13 10.5,13.5 1.5,0.5 1.5,0.5 3,0 11,-9 10,-12 10,-19 z m 93,16 q 6,-12 6,-17 0,-1 -1,-3 -1,-2 -16,-2 -15,0 -16,2 -1,2 -1,4 0,4 4,14 4,7 7.5,12.5 3.5,5.5 5.5,5.5 3,0 6,-5.5 3,-5.5 5,-10.5 z m -492,-2 q -6,-11 -7,-11 -3,0 -6,8 -1,4 -1,6 0,7 7,7 8,0 8,-6 0,-2 -1,-4 z m 897,52 q -37,-24 -58,-33.5 -21,-9.5 -38,-14.5 -17,-5 -27,-6 -10,-1 -15,-1 -11,0 -23,3 -16,4 -16.5,12.5 -0.5,8.5 -0.5,8.5 0,16 11,32 9,14 27.5,30 18.5,16 41,30.5 22.5,14.5 42.5,26.5 20,12 26,12 5,0 19.5,-8.5 14.5,-8.5 30,-18.5 15.5,-10 28,-19 12.5,-9 12.5,-11 0,-3 -20.5,-17 -20.5,-14 -39.5,-26 z m -186,1 q 0,-4 -1.5,-10.5 -1.5,-6.5 -2.5,-11.5 -4,-15 -7,-15 0,0 -2,0.5 -2,0.5 -13,16.5 -17,18 -17,24 0,0 1,2.5 1,2.5 19,2.5 11,0 17,-2 6,-2 6,-6 z m -652,3 q -42,-25 -53.5,-27 -11.5,-2 -14.5,-2 -14,0 -19,14 -2,5 -2,10 0,10 8,21 8,11 40,27 14,9 26,16 12,7 14,9 0,1 1,1 2,0 8,-5 6,-5 14,-16 l 21,-25 z m -111,13 q 3,-3 3,-7 0,-4 -3,-12 0,-2 -0.5,-2 -0.5,0 -2.5,3 -5,8 -5,13 0,2 1.5,4.5 1.5,2.5 3.5,2.5 1,0 3,-2 z m 242,76 q -8,-8 -20,-21 -12,-13 -22,-25 l -23,-28 -23,31 q -10,12 -16.5,23 -6.5,11 -6.5,13 0,3 8,5 8,2 20,2 13,0 31,2 18,2 33,8 l 37,12 z m 591,-25 q -41,-25 -62,-33.5 -21,-8.5 -36,-8.5 -30,1 -38,6.5 -8,5.5 -8,24.5 0,24 11.5,37.5 11.5,13.5 43.5,34.5 12,8 20.5,13 8.5,5 15.5,7 7,2 14,2 2,0 7,-0.5 5,-0.5 13,-1.5 19,-2 33,-6.5 14,-4.5 25.5,-9.5 11.5,-5 17.5,-10 6,-5 6,-8 0,-1 0,-2 -1,-4 -21,-17.5 -20,-13.5 -42,-27.5 z m -158,5 q -2,-17 -7,-17 -5,0 -19,17 l -13,20 h 22 q 15,0 17.5,-3 2.5,-3 2.5,-6 0,-4 -3,-11 z m -716,15 q 0,-8 -3,-9.5 -3,-1.5 -4,-1.5 -4,0 -9,6 -6,6 -6,10 0,1 1,4 1,3 9,3 12,0 12,-12 z m 509,38 q -2,-2 -11.5,-2.5 -9.5,-0.5 -20.5,-0.5 -11,0 -20,0.5 -9,0.5 -9,1.5 0,3 5.5,16.5 5.5,13.5 12.5,26.5 7,13 11.5,21.5 4.5,8.5 6.5,8.5 0,0 0,-1 0,-5 4.5,-16.5 4.5,-11.5 9.5,-20.5 7,-14 9.5,-21 2.5,-7 2.5,-10 0,-2 -1,-3 z m 369,42 q -9,-1 -23.5,-1.5 -14.5,-0.5 -28.5,-0.5 -14,0 -24.5,0.5 -10.5,0.5 -10.5,1.5 0,1 8,11.5 8,10.5 20,24.5 l 28,33 5,-22 q 2,-10 7.5,-20 5.5,-10 14.5,-19 5,-6 5,-7 0,-1 -1,-1 z m -542,40 q 0,-1 -10,-2.5 -10,-1.5 -24,-1.5 -15,0 -23,2 -8,2 -8,4 0,1 0,1 0,2 5,13.5 5,11.5 10,26.5 l 15,36 18,-36 q 6,-15 11.5,-26.5 5.5,-11.5 5.5,-16.5 z m 165,37 q 0,-4 -5,-4 -4,0 -4,3 0,4 5,4 4,0 4,-3 z m 334,100 q 0,-5 -4,-11 -4,-6 -8,-6 -5,0 -11,11 -4,7 -4,10 0,0 0.5,2 0.5,2 10.5,2 16,0 16,-8 z m -546,6 q 1,-1 1,-2 0,-2 -12,-2.5 -12,-0.5 -30,-0.5 h -44 l -4,33 q -1,10 -1,18 0,3 0.5,9.5 0.5,6.5 2.5,6.5 1,0 13.5,-9 12.5,-9 28,-20 15.5,-11 29.5,-21 14,-10 16,-12 z m -225,6 q -3,-4 -5,-4 -1,0 -3.5,1.5 -2.5,1.5 -2.5,9.5 0,9 4,9 2,0 3,-1 6,-3 6,-8 0,-3 -2,-7 z m 120,33 q 2,-14 2,-20 0,-2 -0.5,-6 -0.5,-4 -7.5,-4 -85,9 -101.5,20.5 -16.5,11.5 -16.5,20.5 0,12 15,27 9,8 20,11.5 11,3.5 32,3.5 16,0 26.5,-2 10.5,-2 16.5,-6.5 6,-4.5 9,-14 3,-9.5 5,-30.5 z m 580,1 q -5,-15 -11,-15 -4,0 -9.5,9.5 -5.5,9.5 -5.5,13.5 0,6 16,6 11,0 11.5,-1.5 0.5,-1.5 0.5,-2.5 0,-3 -2,-10 z m -689,58 q 0,-6 -6,-6 -3,0 -6,3 -3,3 -3,8 0,4 2.5,6 2.5,2 3.5,2 2,0 3,-1 3,-2 4.5,-5.5 1.5,-3.5 1.5,-6.5 z m 618,10 q 0,-10 -4,-11.5 -4,-1.5 -6,-1.5 -6,0 -14,8 -6,6 -6,10 0,1 1,2 14,2 21,2 1,0 4.5,-0.5 3.5,-0.5 3.5,-8.5 z m 60,86 q 0,-1 -9.5,-4 -9.5,-3 -26.5,-4 -7,-1 -13,-1 -3,0 -7.5,0.5 -4.5,0.5 -5.5,3 -1,2.5 -1,4.5 0,4 2.5,12.5 2.5,8.5 9.5,27.5 l 7,18 21,-27 q 9,-10 15.5,-19 6.5,-9 7.5,-11 z"
     id="path1" />
</svg>
