<?xml version="1.0" encoding="UTF-8" standalone="no"?>
<svg
   width="2000"
   height="2000"
   version="1.1"
   id="svg1"
   sodipodi:docname="u1212D.svg"
   inkscape:version="1.3.2 (091e20e, 2023-11-25)"
   xmlns:inkscape="http://www.inkscape.org/namespaces/inkscape"
   xmlns:sodipodi="http://sodipodi.sourceforge.net/DTD/sodipodi-0.dtd"
   xmlns="http://www.w3.org/2000/svg"
   xmlns:svg="http://www.w3.org/2000/svg">
  <defs
     id="defs1" />
  <sodipodi:namedview
     id="namedview1"
     pagecolor="#505050"
     bordercolor="#eeeeee"
     borderopacity="1"
     inkscape:showpageshadow="0"
     inkscape:pageopacity="0"
     inkscape:pagecheckerboard="0"
     inkscape:deskcolor="#505050"
     inkscape:zoom="0.379"
     inkscape:cx="1000"
     inkscape:cy="998.68074"
     inkscape:window-width="1392"
     inkscape:window-height="1212"
     inkscape:window-x="0"
     inkscape:window-y="0"
     inkscape:window-maximized="0"
     inkscape:current-layer="svg1" />
  <path
     d="m 1042,665.5 q 30,-26 35,-26.5 5,-0.5 5,-0.5 9,0 9,19 0,22 12,47 12,25 32.5,52 20.5,27 48.5,53.5 28,26.5 60,47.5 1,1 2,2 h 1 q 0,0 0,1 h 1 q 8,6 17,13 l 1,1 q 0,0 1,0 v 1 q 2,1 3,1 l 2,2 q 0,0 0,0 l 1,1 q 1,0 1,0 l 1,1 q 0,1 1,1 l 1,1 q 1,0 1,0 l 1,1 q 0,0 0,1 l 2,1 q 0,0 1,0 l 1,1 q 0,0 0,1 h 2 q 0,1 0,1 l 1,1 q 1,0 1,0 l 2,1 q 0,1 0,1 l 1,1 q 0,0 1,0 l 1,1 q 0,0 0,0 l 2,2 q 0,0 1,0 l 1,1 q 0,0 0,0 l 2,1 q 0,0 0,0 14,11 26.5,20.5 12.5,9.5 21.5,17.5 l 45,36 -84,57 q -17,11 -35,23 -18,12 -35,22.5 -17,10.5 -31,19 -14,8.5 -22,13.5 -31,18 -67,48 -36,30 -68.5,63.5 -32.5,33.5 -57,66 -24.5,32.5 -32.5,56.5 -8,21 -14,21 -8,0 -13,-30 -8,-46 -32.5,-85 -24.5,-39 -72.5,-83 -51,-45 -93.5,-65.5 -42.5,-20.5 -81.5,-20.5 -2,0 -4,0 -14,2 -25,2 h -2 q 0,0 0,0 h -1 q 0,0 -1,0 h -2 q 0,0 0,0 h -1 q 0,0 0,0 h -1 q 0,0 -1,0 h -5 q 0,0 0,-1 0,-3 12.5,-17.5 12.5,-14.5 28.5,-31.5 27,-29 42.5,-48.5 15.5,-19.5 15.5,-24.5 0,-5 -10.5,-29 -10.5,-24 -29.5,-60 -12,-21 -21,-39.5 -9,-18.5 -9,-22.5 0,-1 0,-1 0,-1 2,-1 2,0 10,3 8,3 22,9 25,9 54,9 14,0 44.5,-4.5 30.5,-4.5 89.5,-34.5 27,-15 47.5,-27.5 20.5,-12.5 24.5,-16.5 3,-3 14.5,-10.5 11.5,-7.5 22.5,-13.5 17,-8 36.5,-22.5 19.5,-14.5 36.5,-29.5 z m 41,37 q -5,-14 -9.5,-22 -4.5,-8 -6.5,-8 0,0 0,0 -3,0 -15,8 -12,8 -25,18 -13,10 -23.5,19.5 -10.5,9.5 -10.5,12.5 0,3 5,5 5,2 10,2 7,0 27.5,6.5 20.5,6.5 43.5,17.5 l 54,24 -18,-26 q -7,-11 -16.5,-27.5 -9.5,-16.5 -15.5,-29.5 z m 20,92 q -29,-15 -55.5,-25.5 -26.5,-10.5 -47.5,-16.5 -21,-6 -29,-6.5 -8,-0.5 -10,-0.5 -8,0 -10,3 -1,4 -21,15.5 -20,11.5 -42,23.5 -17,9 -32.5,18 -15.5,9 -30.5,19 -15,10 -28,20 -13,10 -21,19 -16,15 -25.5,24 -9.5,9 -14,17.5 -4.5,8.5 -6,19.5 -1.5,11 -2.5,27 -1,14 -1,25 0,15 2,28 2,13 11,33 8,15 23,34.5 15,19.5 33.5,39.5 18.5,20 38,38 19.5,18 35.5,29 18,12 32,16 14,4 26,4 8,0 23,-2 15,-2 44.5,-14 29.5,-12 63.5,-29 29,-14 58.5,-30.5 29.5,-16.5 62,-36 32.5,-19.5 64.5,-39.5 32,-20 57.5,-36.5 25.5,-16.5 41.5,-28.5 16,-12 16,-14 0,-3 -14,-15 -14,-12 -36.5,-28.5 -22.5,-16.5 -51,-36 -28.5,-19.5 -57,-37.5 -28.5,-18 -54,-33.5 -25.5,-15.5 -43.5,-23.5 z m -341,51 q -6,-1 -14,-2 -6,-1 -14,-2 -8,-1 -18,-2 l -47,-3 41,72 27,-32 q 6,-6 10.5,-11.5 4.5,-5.5 6.5,-8.5 5,-7 8,-11 z m -24,229 q 1,0 1,-1 0,-3 -4.5,-12.5 -4.5,-9.5 -12.5,-26.5 l -20,-38 -49,62 42,9 q 18,3 28,5.5 10,2.5 13,2.5 2,0 2,-1 z m 286,142 q 12,-14 22,-26.5 10,-12.5 10,-13.5 0,0 0,0 0,0 0,0 -1,0 -16,6 -15,6 -27,11 -27,11 -48,16.5 -21,5.5 -34,5.5 -7,0 -12.5,1.5 -5.5,1.5 -6,4.5 -0.5,3 -0.5,4 0,5 4.5,16 4.5,11 13.5,31 l 20,42 15,-22 q 5,-9 21,-30 16,-21 38,-46 z"
     id="path1" />
</svg>
