<?xml version="1.0" encoding="UTF-8" standalone="no"?>
<svg
   width="2000"
   height="2000"
   version="1.1"
   id="svg1"
   sodipodi:docname="u1214D.svg"
   inkscape:version="1.3.2 (091e20e, 2023-11-25)"
   xmlns:inkscape="http://www.inkscape.org/namespaces/inkscape"
   xmlns:sodipodi="http://sodipodi.sourceforge.net/DTD/sodipodi-0.dtd"
   xmlns="http://www.w3.org/2000/svg"
   xmlns:svg="http://www.w3.org/2000/svg">
  <defs
     id="defs1" />
  <sodipodi:namedview
     id="namedview1"
     pagecolor="#505050"
     bordercolor="#eeeeee"
     borderopacity="1"
     inkscape:showpageshadow="0"
     inkscape:pageopacity="0"
     inkscape:pagecheckerboard="0"
     inkscape:deskcolor="#505050"
     inkscape:zoom="0.379"
     inkscape:cx="1000"
     inkscape:cy="998.68074"
     inkscape:window-width="1392"
     inkscape:window-height="1212"
     inkscape:window-x="0"
     inkscape:window-y="0"
     inkscape:window-maximized="0"
     inkscape:current-layer="svg1" />
  <path
     d="m 524,681 q 36,-35 43.5,-38 7.5,-3 9.5,-3 7,0 7,12 0,15 15.5,37 15.5,22 36.5,44 20,21 50,49.5 30,28.5 59,54 29,25.5 52.5,43 23.5,17.5 27.5,17.5 4,0 4,-14 0,-2 -0.5,-13.5 -0.5,-11.5 -3.5,-38 -3,-26.5 -8,-54 -5,-27.5 -13,-47.5 -4,-13 -8,-30.5 -4,-17.5 -4,-26.5 0,-9 3,-9 0,0 2.5,1 2.5,1 11.5,10 29,32 67,32 21,0 45,-10 16,-7 24,-7 7,0 8.5,3.5 1.5,3.5 1.5,5.5 0,9 -17,24 -20,16 -31,38 -11,22 -18.5,56.5 -7.5,34.5 -11.5,86 -4,51.5 -7,126.5 l -6,167 33,10 q 17,5 42.5,10 25.5,5 57.5,9.5 32,4.5 67.5,7.5 35.5,3 68.5,5 l 70,3 -3,-104 q -1,-66 -5,-129 -4,-63 -9,-117 -5,-54 -12,-96.5 -7,-42.5 -20,-83.5 -10,-32 -10,-41 0,-2 0.5,-3.5 0.5,-1.5 2.5,-1.5 4,0 17,12 33,28 71,28 23,0 48,-10 13,-5 21,-5 5,0 7,2 2,2 2,4 0,5 -12,14 -27,21 -42,62 -15,41 -26,109 -7,46 -11,99.5 -4,53.5 -4.5,92 -0.5,38.5 -0.5,61.5 0,24 0.5,55 0.5,31 5.5,40 1,6 9.5,9 8.5,3 31,4.5 22.5,1.5 63,2 40.5,0.5 100.5,0.5 202,0 202,9 0,0 0,0 -3,5 -66,8 -63,3 -165,3 -99,0 -173,3 -74,3 -135,8 -61,5 -109.5,14 -48.5,9 -90.5,23 -26,7 -43.5,11 -17.5,4 -22.5,4 -1,0 -2,0 -1,-1 -1,-3 0,-6 6,-17 11,-21 11,-58 0,-15 -2,-32 -2,-17 -2,-30 0,-6 1,-17 1,-11 4,-11 4,0 6.5,-12 2.5,-12 2.5,-31 0,-19 -1.5,-41.5 Q 845,1054 840,1035 l -6,-36 -75,54 q -172,123 -205,193 -8,17 -15,24 -7,7 -10,7 -2,0 -2,-5 0,-9 -9,-25 -9,-16 -23,-37 -18,-25 -21,-33 -3,-8 -3,-12 0,-6 5,-9 7,-6 7,-29 0,-23 -4,-80 -3,-47 -7,-81.5 -4,-34.5 -7,-38.5 -4,-12 -82,-12 -48,0 -72,4.5 -24,4.5 -48,16.5 -18,9 -31,19.5 -13,10.5 -13,17.5 0,14 46.5,24.5 46.5,10.5 117.5,11.5 73,0 73,8 0,0 0,1 -3,5 -27,8 -24,3 -54,3 -34,0 -63.5,4.5 -29.5,4.5 -51,11 -21.5,6.5 -33.5,14.5 -12,8 -12,16 0,1 1,3 5,15 50,25 45,10 112,10 36,1 59.5,3.5 23.5,2.5 23.5,6.5 0,5 -21,7 -21,2 -53,2 -117,3 -166,47 -12,11 -19,11 -4,0 -7.5,-4 -3.5,-4 -3.5,-26 0,-9 1,-22 3,-21 3,-34 0,-2 -0.5,-10 -0.5,-8 -5.5,-8 -6,0 -6,-34 0,-8 1,-37.5 1,-29.5 8,-102.5 2,-12 2,-22 0,-5 -1,-13.5 -1,-8.5 -4,-8.5 -3,0 -5.5,-14.5 Q 181,839 181,826 q 0,-9 1,-19 0,-48 4,-54.5 4,-6.5 8,-6.5 6,0 15,8 15,14 46.5,22 31.5,8 66.5,12.5 35,4.5 66,4.5 31,0 37,-6 2,-2 2,-7 0,-2 -0.5,-7 -0.5,-5 -3.5,-14 l -10,-23 28,20 q 17,13 27,14.5 10,1.5 17,1.5 15,0 40,-3 18,-1 34,-1 16,0 16,1 0,3 -7,10.5 -7,7.5 -14,13.5 -17,14 -25,29.5 -8,15.5 -14,40.5 -6,25 -9,61 -3,36 -5,103 -1,44 -1,74.5 0,30.5 6.5,39.5 6.5,9 17.5,9 5,0 18,-3.5 13,-3.5 39,-14.5 39,-15 81,-39.5 42,-24.5 81.5,-53 Q 783,1011 811,987 q 28,-24 28,-33 0,-8 -23.5,-31 Q 792,900 758.5,872 725,844 688,818 651,792 626,778 606,768 577.5,756.5 549,745 528,739 l -49,-15 z m 70,37 q -21,-34 -25,-35.5 -4,-1.5 -5,-1.5 -8,0 -22,16 -11,11 -11,15 0,1 1,3 1,2 23,9 8,3 21.5,8.5 13.5,5.5 17.5,6.5 9,3 12,3 2,0 2,-1 0,0 -1,-2.5 -1,-2.5 -13,-20.5 z m 1043,-16 q 0,-5 5,-5 2,0 8,1.5 6,1.5 15,9.5 12,10 28,13 16,3 27.5,3.5 11.5,0.5 16.5,0.5 13,0 27.5,-2 14.5,-2 29.5,-9 9,-5 15,-5 6,0 8,3.5 2,3.5 2,5.5 0,8 -19,18 -12,6 -20,14.5 -8,8.5 -14,24 -6,15.5 -12,42 -6,26.5 -9,41.5 -12,52 -14.5,113 -2.5,61 -2.5,130 0,23 0,48 0,43 -0.5,82 -0.5,39 -1.5,67.5 -1,28.5 -1.5,45 -0.5,16.5 -2.5,16.5 -1,0 -3.5,-15.5 -2.5,-15.5 -4.5,-42 -2,-26.5 -4.5,-62.5 -2.5,-36 -5.5,-70 -3,-47 -5,-84.5 -2,-37.5 -4.5,-66.5 -2.5,-29 -4.5,-48.5 -2,-19.5 -2,-24.5 -2,-7 -5.5,-11.5 -3.5,-4.5 -15.5,-7 -12,-2.5 -36,-2.5 -7,0 -16,0 h -2 q -1,0 -2,0 h -2 q -1,0 -2,0 h -2 q -1,0 -2,0 h -38 q -93,0 -151.5,9 -58.5,9 -111.5,35 -7,3 -19,8 -12,5 -15,5 -2,0 -2.5,-12 -0.5,-12 -0.5,-18 0,-15 1.5,-36.5 1.5,-21.5 3.5,-42.5 2,-21 4,-24 2,-1 3,-1 4,0 7,7 11,15 35.5,24 24.5,9 69.5,15 38,6 86.5,9 48.5,3 95,3 46.5,0 80.5,-1.5 34,-1.5 34,-12.5 0,-3 -4,-24 -4,-21 -9,-45 -5,-24 -10.5,-46.5 Q 1656,754 1646,730 q -9,-21 -9,-28 z m -746,39 q 1,-2 1,-4 0,-9 -32,-13 -11,-1 -18.5,-1 -7.5,0 -9,6 -1.5,6 -1.5,11 0,8 3,24 3,16 8,37 12,66 15,66 0,0 1.5,-1.5 1.5,-1.5 17.5,-69.5 6,-22 10,-35.5 4,-13.5 5,-19.5 z m 362,-14 -36,-3 q -14,-2 -23,-2 -8,0 -9.5,2 -1.5,2 -1.5,8 0,5 1,13 3,11 6.5,32 3.5,21 6.5,40 8,50 11,53 3,3 3,3 5,0 12,-35 3,-16 8,-38.5 5,-22.5 10,-36.5 z m 505,18 h -43 q -30,0 -34,2.5 -4,2.5 -4,6.5 0,4 2,11 3,10 7.5,36.5 4.5,26.5 7.5,45.5 4,38 10,56 6,18 9,18 0,0 0,0 3,-3 6,-17.5 3,-14.5 6,-30.5 3,-21 7.5,-46.5 Q 1737,801 1743,784 Z M 252,799 q -4,-4 -25,-12 -8,-2 -13,-2 -4,0 -7,2 -3,2 -3,18 0,17 2.5,18 2.5,1 3.5,1 6,0 23,-7 12,-3 16.5,-7 4.5,-4 4.5,-6 0,-3 -2,-5 z m 261,8 q 1,-2 1,-4 0,-11 -29,-11 -8,0 -14.5,0.5 -6.5,0.5 -7.5,4 -1,3.5 -1,5.5 0,6 3,16.5 3,10.5 9,34.5 l 12,48 11,-40 q 6,-17 10.5,-33.5 Q 512,811 513,807 Z m 461,3 q 0,-3 6,-3 1,0 5.5,0.5 4.5,0.5 15.5,6.5 13,9 38,13 25,4 56,4 44,0 52.5,4.5 8.5,4.5 8.5,6.5 0,4 -13,8 -49,12 -70,86.5 -21,74.5 -24,191.5 0,68 -6,68 -1,0 -5,-4 -4,-4 -6,-79 0,-35 -3.5,-72.5 -3.5,-37.5 -9,-72 -5.5,-34.5 -13,-63 Q 999,877 989,852 q -5,-9 -10,-24 -5,-15 -5,-18 z m -528,9 q -3,-3 -25.5,-5.5 Q 398,811 374,811 q -35,0 -63.5,4.5 -28.5,4.5 -50,12 -21.5,7.5 -33.5,15 -12,7.5 -12,15.5 0,1 1,3 5,15 50.5,24 45.5,9 113.5,10 l 82,2 -6,-36 q -3,-15 -6,-27 -3,-12 -4,-15 z m 642,33 q 0,-2 -11.5,-2.5 -11.5,-0.5 -26.5,-0.5 -27,0 -31,2.5 -4,2.5 -4,5.5 0,4 2,8 3,8 6,23 3,15 5,30 3,15 6.5,25.5 3.5,10.5 9.5,10.5 6,0 6,-8 0,-6 6,-21 6,-15 15,-34 6,-14 11.5,-26 5.5,-12 5.5,-13 z m -840,51 q -10,-7 -18,-7 -3,0 -9,2 -6,2 -6,18 0,11 2,12 2,1 3,1 5,0 19,-7 13,-6 14.5,-8 1.5,-2 1.5,-3 0,-3 -7,-8 z m 1101,4 q -34,-10 -47,-10 -3,0 -9,1.5 -6,1.5 -6,22.5 0,19 4,20 4,1 5,1 10,0 48,-12 l 42,-12 z M 239,1012 q -23,-11 -29,-11 -1,0 -3.5,1 -2.5,1 -2.5,21 0,22 4,23 4,1 5,1 7,0 27,-12 l 23,-12 z m 1029,29 q 0,-1 1,-1 1,0 7.5,4 6.5,4 18.5,12 25,19 97,29 72,10 171,10 54,0 88,3 34,3 34,6 0,3 -43,6.5 -43,3.5 -106,5.5 -48,1 -84,3.5 -36,2.5 -63.5,7.5 -27.5,5 -53,14 -25.5,9 -40.5,15 -17,8 -25,8 -6,0 -6.5,-3.5 -0.5,-3.5 -0.5,-10.5 0,-14 2,-43 1,-26 2,-45.5 1,-19.5 1,-20.5 z m 70,55 q -31,-10 -41,-10 -2,0 -6,1.5 -4,1.5 -4,20.5 0,21 5.5,22 5.5,1 7.5,1 11,0 44,-11 l 33,-13 z m -1092,24 q -14,-5 -21,-5 -2,0 -6,1 -4,1 -4,16 0,17 3.5,18 3.5,1 4.5,1 7,0 22,-11 13,-9 13,-13 0,-4 -12,-7 z m 320,74 q 29,-31 29,-37 0,-1 -1,-1.5 -1,-0.5 -4,-0.5 -10,0 -35,6 -40,10 -43.5,16 -3.5,6 -3.5,10 0,9 13,25 5,9 11,9 2,0 6.5,-2.5 4.5,-2.5 27.5,-24.5 z m 415,51 q -33,-5 -57,-9.5 -24,-4.5 -34,-8.5 -7,-3 -12,-3 -4,0 -7.5,3.5 -3.5,3.5 -10.5,38.5 -6,23 -6,30 0,0 0.5,2 0.5,2 5.5,2 2,0 6,-1 7,-3 36.5,-10 29.5,-7 56.5,-11 42,-9 62.5,-14.5 20.5,-5.5 20.5,-8.5 0,0 -1,-1 -3,-3 -23,-5.5 -20,-2.5 -37,-3.5 z"
     id="path1" />
</svg>
