<?xml version="1.0" encoding="UTF-8" standalone="no"?>
<svg
   width="2000"
   height="2000"
   version="1.1"
   id="svg1"
   sodipodi:docname="u1212C.svg"
   inkscape:version="1.3.2 (091e20e, 2023-11-25)"
   xmlns:inkscape="http://www.inkscape.org/namespaces/inkscape"
   xmlns:sodipodi="http://sodipodi.sourceforge.net/DTD/sodipodi-0.dtd"
   xmlns="http://www.w3.org/2000/svg"
   xmlns:svg="http://www.w3.org/2000/svg">
  <defs
     id="defs1" />
  <sodipodi:namedview
     id="namedview1"
     pagecolor="#505050"
     bordercolor="#eeeeee"
     borderopacity="1"
     inkscape:showpageshadow="0"
     inkscape:pageopacity="0"
     inkscape:pagecheckerboard="0"
     inkscape:deskcolor="#505050"
     inkscape:zoom="0.379"
     inkscape:cx="1000"
     inkscape:cy="998.68074"
     inkscape:window-width="1392"
     inkscape:window-height="1212"
     inkscape:window-x="0"
     inkscape:window-y="0"
     inkscape:window-maximized="0"
     inkscape:current-layer="svg1" />
  <path
     d="m 805.5,774 q 2,-4 5.5,-10.5 3.5,-6.5 5.5,-6.5 2,0 12.5,13.5 10.5,13.5 23.5,33.5 14,19 35,43.5 21,24.5 44,48 23,23.5 46,43.5 23,20 41,31 l 30,21 104,-64 q 21,-13 41.5,-25.5 20.5,-12.5 36.5,-22.5 16,-10 27,-16.5 11,-6.5 15,-9.5 6,-4 9.5,-4.5 3.5,-0.5 4.5,-0.5 4,0 5,2 0,0 0,0 0,2 -7.5,8 -7.5,6 -21,16 -13.5,10 -32.5,22 -19,12 -41,25 l -105,65 167,2 q 78,0 122.5,2.5 44.5,2.5 44.5,5.5 0,4 -45,6 -45,2 -132,2 -45,0 -78,0.5 -33,0.5 -51,1.5 -18,1 -22,2.5 -4,1.5 -4,2.5 0,1 2,2 2,2 12,8.5 10,6.5 25,16.5 15,10 34.5,22.5 19.5,12.5 29.5,18.5 52,34 77,52.5 25,18.5 25,21.5 0,1 0,1 -2,0 -12.5,-5 -10.5,-5 -27,-14.5 -16.5,-9.5 -38,-23 -21.5,-13.5 -60.5,-37.5 -9,-6 -30,-19 -21,-13 -37.5,-23 -16.5,-10 -26.5,-15.5 -10,-5.5 -11,-5.5 -5,0 -27.5,14 -22.5,14 -49.5,32.5 -27,18.5 -52.5,38.5 -25.5,20 -37.5,32 -14,14 -29.5,36 -15.5,22 -26.5,45 -5,11 -11.5,22.5 -6.5,11.5 -8.5,11.5 -1,0 -8,-12.5 -7,-12.5 -13,-24.5 -11,-23 -23.5,-42 -12.5,-19 -22.5,-31 -6,-8 -10.5,-14.5 -4.5,-6.5 -4.5,-8.5 0,-1 0,-1 2,-1 16,-4 14,-3 26,-5 41,-7 81.5,-19 40.5,-12 77,-25.5 36.5,-13.5 63,-26 26.5,-12.5 30.5,-18.5 0,-1 0,-2 0,-4 -10.5,-5.5 -10.5,-1.5 -23.5,-1.5 -10,0 -30,1 -20,1 -57.5,5.5 -37.5,4.5 -78.5,10.5 -41,6 -83,14.5 -42,8.5 -87,20.5 -20,5 -41.5,10 -21.5,5 -23.5,5 -1,0 -1,-1 0,-3 2.5,-10 2.5,-7 6.5,-15 8,-18 13,-39.5 5,-21.5 7,-41.5 2,-14 4,-26 2,-12 4,-12 6,2 12,5 6,2 13,5.5 7,3.5 18,8.5 23,10 46.5,18 23.5,8 51,13 27.5,5 61.5,8 34,3 80,4 l 116,4 -40,-26 q -55,-37 -108,-55.5 -53,-18.5 -118,-22.5 l -27,-2 35,-41 q 14,-17 27,-35.5 13,-18.5 20,-33.5 z m 93,110 q -13,-13 -28,-31 -15,-18 -26,-33 l -26,-34 -15,24 q -6,10 -14.5,21.5 -8.5,11.5 -15.5,16.5 -5,5 -9.5,10.5 -4.5,5.5 -4.5,7.5 0,2 12.5,5.5 12.5,3.5 28.5,5.5 18,2 41,7.5 23,5.5 47,14.5 6,2 17,6 11,4 13,4 0,0 0,0 0,-2 -5.5,-9 -5.5,-7 -14.5,-16 z m -126,108 Q 749.5,987 720,979.5 690.5,972 672.5,964 l -43,-18 -4,20 q -2,8 -5,22.5 -3,14.5 -6,28.5 -2,9 -3,16 -1,7 -1,10 0,2 0,2 0,0 1,0 3,0 17.5,-3 14.5,-3 37.5,-9 22,-6 53.5,-12.5 31.5,-6.5 53.5,-10.5 l 55,-9 z m 113,111 q 21,-20 21,-24 0,0 -0.5,-0.5 -0.5,-0.5 -2.5,-0.5 -5,0 -26,8 -18,6 -38,11.5 -20,5.5 -37,9.5 -16,2 -29,5 -13,3 -15,4 0,0 0,2 0,3 5,15 5,12 16,30 l 26,44 21,-34 q 8,-14 24,-33 16,-19 35,-37 z"
     id="path1" />
</svg>
