<?xml version="1.0" encoding="UTF-8" standalone="no"?>
<svg
   width="2000"
   height="2000"
   version="1.1"
   id="svg1"
   sodipodi:docname="u1219C.svg"
   inkscape:version="1.3.2 (091e20e, 2023-11-25)"
   xmlns:inkscape="http://www.inkscape.org/namespaces/inkscape"
   xmlns:sodipodi="http://sodipodi.sourceforge.net/DTD/sodipodi-0.dtd"
   xmlns="http://www.w3.org/2000/svg"
   xmlns:svg="http://www.w3.org/2000/svg">
  <defs
     id="defs1" />
  <sodipodi:namedview
     id="namedview1"
     pagecolor="#505050"
     bordercolor="#eeeeee"
     borderopacity="1"
     inkscape:showpageshadow="0"
     inkscape:pageopacity="0"
     inkscape:pagecheckerboard="0"
     inkscape:deskcolor="#505050"
     showgrid="false"
     inkscape:zoom="0.6205"
     inkscape:cx="999.1942"
     inkscape:cy="1000"
     inkscape:window-width="2560"
     inkscape:window-height="1412"
     inkscape:window-x="0"
     inkscape:window-y="0"
     inkscape:window-maximized="1"
     inkscape:current-layer="svg1" />
  <path
     d="m 898.5,655.5 q 4,-6 11,-11 7,-5 15,-5 5,0 5,2 0,2 -4,7 -11,17 -11,42 0,4 1,21 1,17 13,57 8,21 15,37 7,16 18,32 11,16 26.5,34 15.5,18 39.5,44 l 63,64 132,-34 q 53,-13 83,-20 30,-7 43,-9.5 13,-2.5 18,-2.5 3,0 5.5,1 2.5,1 2.5,4 0,1 -10.5,5 -10.5,4 -28.5,9 -18,5 -42.5,11.5 -24.5,6.5 -51.5,13.5 -28,7 -52.5,13 -24.5,6 -42.5,11 -18,5 -28.5,8.5 -10.5,3.5 -10.5,4.5 0,2 15.5,20 15.5,18 36.5,42 l 51,57 98,-26 q 41,-9 64,-13.5 23,-4.5 31,-4.5 8,0 10,2 1,1 1,1 0,4 -19.5,10 -19.5,6 -59.5,15 -52,13 -76.5,20 -24.5,7 -25.5,9 0,0 0,1 0,3 17,24 17,21 43,49 28,30 44.5,51 16.5,21 16.5,24 0,1 0,1 0,0 -1,0 -3,0 -24.5,-20 -21.5,-20 -50.5,-52 l -71,-75 -88,21 -89,23 87,91 q 18,19 33.5,36.5 15.5,17.5 26,30.5 10.5,13 16,20 5.5,7 5.5,8 0,1 -1,1 -1,0 -2,0 -4,0 -14.5,-8 -10.5,-8 -24.5,-24 -11,-12 -36.5,-39 -25.5,-27 -50.5,-52 l -57,-60 -79,20 q -55,13 -94.5,24 -39.5,11 -66.5,21 -27,10 -44,18.5 -17,8.5 -29,18.5 -10,9 -18,20 -8,11 -8,25 0,9 -3,9 -1,0 -6,-7 -5,-7 -10,-36 -6,-48 -14,-80 -8,-32 -17,-41 -6,-5 -6,-13 0,-4 2,-9 3,-9 3,-22 0,-2 -0.5,-11.5 -0.5,-9.5 -4,-28 -3.5,-18.5 -9,-35.5 -5.5,-17 -12.5,-27 -6,-8 -8.5,-16 -2.5,-8 -2.5,-13 0,-3 1,-6 2,-5 4,-5 1,0 3.5,1 2.5,1 10.5,10 19,21 47,33.5 28,12.5 70,20.5 27,5 45,5 3,0 13.5,-0.5 10.5,-0.5 44.5,-9.5 15,-4 29.5,-7.5 14.5,-3.5 16.5,-5.5 0,0 0,-1 0,-2 -8,-12.5 -8,-10.5 -22.5,-26.5 -14.5,-16 -32,-35 -17.5,-19 -35,-35.5 -17.5,-16.5 -31,-29.5 -13.5,-13 -21.5,-18 -9,-6 -24,-10 -15,-4 -31,-4 -21,0 -21,-6 0,-1 2.5,-6 2.5,-5 32.5,-18 22,-10 41,-22.5 19,-12.5 32,-23.5 8,-8 17.5,-15 9.5,-7 13.5,-7 5,0 5,6 0,1 -0.5,5 -0.5,4 -7.5,9 -6,3 -6.5,10.5 -0.5,7.5 -0.5,11.5 0,10 2,24.5 2,14.5 8,35 6,20.5 15,38.5 10,23 26,46 16,23 34,41 l 40,39 78,-20 q 33,-8 58.5,-14.5 25.5,-6.5 28.5,-7.5 0,0 0,-1 0,-3 -10,-17 -10,-14 -31,-38 -21,-24 -49,-54.5 -28,-30.5 -60,-62.5 -30,-32 -58.5,-46.5 -28.5,-14.5 -49.5,-14.5 -8,0 -16,2 -5,1 -8,1 -3,0 -3,-2 0,-2 8,-11 8,-9 44,-30 24,-15 43,-30 19,-15 25,-25 z m 3,57 q 0,-20 -9.5,-20 -9.5,0 -38.5,20 l -28,20 25,10 q 11,5 23,12.5 12,7.5 22,16.5 10,10 15,10 2,0 3,-1 1,-1 1,-4 0,-6 -5,-19 -2,-9 -5,-21.5 -3,-12.5 -3,-23.5 z m -129,171 q -1,-2 -3,-14 -2,-12 -7,-26 l -9,-36 -63,33 42,24 q 17,10 27,15 10,5 12,5 1,0 1,-1 z m 363,168 q -21,-22 -38,-38.5 -17,-16.5 -19,-16.5 -14,2 -41,9 -27,7 -54,15.5 -27,8.5 -47,15.5 -20,7 -20,9 1,6 17,23.5 16,17.5 36,37 20,19.5 38,34.5 18,15 24,15 4,0 29,-5.5 25,-5.5 52.5,-12.5 27.5,-7 50.5,-13.5 23,-6.5 25,-7.5 0,0 0,0 0,-3 -14,-20.5 -14,-17.5 -39,-44.5 z m -445,5 q -18,-6 -34,-11 -16,-5 -22,-7 -3,-2 -5,-2 -3,0 -3,5.5 0,5.5 5,32.5 2,16 5,28 3,12 4,14 0,0 0,0 2,0 14.5,-6 12.5,-6 32.5,-17 l 46,-25 z m 255,47 q -25,-25 -42,-39 -17,-14 -25,-14 -1,0 -2,0 -11,0 -38.5,7 -27.5,7 -57.5,16.5 -30,9.5 -56.5,19.5 -26.5,10 -40.5,19 -16,10 -28,24 -12,14 -12,22 0,8 12.5,15 12.5,7 31,13.5 18.5,6.5 40,12 21.5,5.5 40.5,7.5 13,1 26.5,1 13.5,0 29,-2 15.5,-2 34.5,-6 19,-4 40,-9 40,-9 67.5,-16.5 27.5,-7.5 29.5,-9.5 0,0 0,-1 0,-3 -13,-19.5 -13,-16.5 -36,-40.5 z m -251,102 q -15,-6 -25,-8.5 -10,-2.5 -12,-2.5 -1,0 -1,4 0,3 1,11.5 1,8.5 3,26.5 7,30 10.5,35.5 3.5,5.5 6.5,5.5 2,0 5,-5 5,-7 18,-14.5 13,-7.5 29,-14.5 28,-14 29,-15.5 1,-1.5 1,-1.5 0,-2 -12,-5 -11,-2 -26.5,-7 -15.5,-5 -26.5,-9 z"
     id="path1" />
</svg>
