<?xml version="1.0" encoding="UTF-8" standalone="no"?>
<svg
   width="2000"
   height="2000"
   version="1.1"
   id="svg1"
   sodipodi:docname="u121FA.svg"
   inkscape:version="1.3.2 (091e20e, 2023-11-25)"
   xmlns:inkscape="http://www.inkscape.org/namespaces/inkscape"
   xmlns:sodipodi="http://sodipodi.sourceforge.net/DTD/sodipodi-0.dtd"
   xmlns="http://www.w3.org/2000/svg"
   xmlns:svg="http://www.w3.org/2000/svg">
  <defs
     id="defs1" />
  <sodipodi:namedview
     id="namedview1"
     pagecolor="#505050"
     bordercolor="#eeeeee"
     borderopacity="1"
     inkscape:showpageshadow="0"
     inkscape:pageopacity="0"
     inkscape:pagecheckerboard="0"
     inkscape:deskcolor="#505050"
     inkscape:zoom="0.379"
     inkscape:cx="1000"
     inkscape:cy="998.68074"
     inkscape:window-width="1392"
     inkscape:window-height="1212"
     inkscape:window-x="0"
     inkscape:window-y="0"
     inkscape:window-maximized="0"
     inkscape:current-layer="svg1" />
  <path
     d="m 898.5,634.5 5,48 q 2,21 7.5,43 5.5,22 11.5,34 11,20 42.5,48.5 31.5,28.5 70.5,53.5 l 24,16 -18,-36 q -8,-14 -15.5,-26.5 -7.5,-12.5 -15.5,-17.5 -5,-3 -5,-5 0,-4 14,-6 14,-2 48,-2 22,0 54,1 46,2 80,4 34,2 35,2 0,0 0,1 0,3 -9,12 -9,9 -18,17 -17,16 -29,30.5 -12,14.5 -22,29.5 -10,15 -16.5,28 -6.5,13 -6.5,16 0,5 21,20.5 21,15.5 45,31.5 36,25 55.5,41 19.5,16 19.5,19 0,1 0,1 0,1 -2,1 -5,0 -24.5,-10.5 -19.5,-10.5 -57.5,-36.5 -17,-12 -31.5,-21 -14.5,-9 -20,-11 -5.5,-2 -7.5,-2 -3,0 -4.5,2.5 -1.5,2.5 -2.5,7.5 -2,7 -4,25.5 -2,18.5 -4,46.5 -2,28 -4.5,63 -2.5,35 -4.5,73 -2,38 -4.5,71.5 -2.5,33.5 -4,59 -1.5,25.5 -3,40.5 -1.5,15 -2.5,16 -2,2 -3,2 -2,0 -4.5,-4.5 -2.5,-4.5 -3,-18 -0.5,-13.5 -0.5,-19.5 0,-19 1.5,-52 1.5,-33 5.5,-88 4,-66 5.5,-98 1.5,-32 1.5,-51 0,-7 -0.5,-20.5 -0.5,-13.5 -4,-27 -3.5,-13.5 -12.5,-39.5 -5,-13 -10.5,-27.5 -5.5,-14.5 -6.5,-15.5 -2,-1 -11,-7.5 -9,-6.5 -14,-10.5 -46,-33 -111,-52 -65,-19 -157,-25 -10,-1 -28,-2.5 -18,-1.5 -20,-2.5 l 2,-2 q 0,0 0,0 l 23,-23 q 11,-11 27,-26.5 16,-15.5 34,-33.5 z m 33,168 q -15,-19 -25,-41 -10,-22 -15,-41 l -11,-45 -55,56 q -19,19 -29.5,30.5 -10.5,11.5 -13,15.5 -2.5,4 -2.5,6 0,2 2,3.5 2,1.5 9,3.5 8,2 30,5.5 22,3.5 45,7.5 23,5 42.5,9.5 19.5,4.5 25.5,6.5 3,1 5,1 2,0 2,-2 0,-3 -10,-16 z m 266,2 h -157 l 26,51 q 24,46 32,50.5 8,4.5 11,4.5 10,0 21,-20 6,-10 17.5,-26.5 11.5,-16.5 22.5,-29.5 z m -90,148 q 1,-3 1,-5 0,-3 -1.5,-7.5 -1.5,-4.5 -5.5,-8.5 -2,-2 -4,-2 -1,0 -1,2 0,4 2,11 2,9 3.5,11 1.5,2 2.5,2 2,0 3,-3 z"
     id="path1" />
</svg>
