<?xml version="1.0" encoding="UTF-8" standalone="no"?>
<svg
   width="2000"
   height="2000"
   version="1.1"
   id="svg1"
   sodipodi:docname="u12129.svg"
   inkscape:version="1.3.2 (091e20e, 2023-11-25)"
   xmlns:inkscape="http://www.inkscape.org/namespaces/inkscape"
   xmlns:sodipodi="http://sodipodi.sourceforge.net/DTD/sodipodi-0.dtd"
   xmlns="http://www.w3.org/2000/svg"
   xmlns:svg="http://www.w3.org/2000/svg">
  <defs
     id="defs1" />
  <sodipodi:namedview
     id="namedview1"
     pagecolor="#505050"
     bordercolor="#eeeeee"
     borderopacity="1"
     inkscape:showpageshadow="0"
     inkscape:pageopacity="0"
     inkscape:pagecheckerboard="0"
     inkscape:deskcolor="#505050"
     inkscape:zoom="0.379"
     inkscape:cx="1000"
     inkscape:cy="998.68074"
     inkscape:window-width="1392"
     inkscape:window-height="1212"
     inkscape:window-x="0"
     inkscape:window-y="0"
     inkscape:window-maximized="0"
     inkscape:current-layer="svg1" />
  <path
     d="m 768,636.5 q 29,-2 56,-2.5 27,-0.5 36,-2.5 8,0 13.5,1 5.5,1 5.5,2 0,4 -12.5,18 -12.5,14 -30.5,32 l -44,42 v 121 h 39 q 14,0 22,0.5 8,0.5 11,2 3,1.5 3,4.5 0,0 -0.5,2 -0.5,2 -2.5,9 -1,9 -7.5,24.5 -6.5,15.5 -14.5,29.5 -15,31 -15,42 0,4 2,5.5 2,1.5 4,1.5 12,0 48,-23 18,-12 30.5,-21.5 12.5,-9.5 18.5,-18.5 6,-9 6.5,-14.5 0.5,-5.5 0.5,-8.5 0,-7 -1,-14 -3,-7 -3,-11 0,-4 2,-5 2,-1 7,-1 7,0 20,2 l 30,5 v -78 q 0,-32 -1.5,-50 -1.5,-18 -7,-30 -5.5,-12 -17,-20 -11.5,-8 -28.5,-17 -17,-9 -19,-11 -2,-2 -2,-3 0,-3 6,-4 6,-2 20.5,-4 14.5,-2 33.5,-3 19,-1 40,-2 21,-1 34,-1.5 13,-0.5 20,-0.5 8,0 16,0.5 8,0.5 8,3.5 0,3 -12,17.5 -12,14.5 -31,32.5 l -44,44 v 123 h 41 q 28,0 33,3.5 5,3.5 5,6.5 0,4 -5,10 -5,6 -10,15.5 -5,9.5 -10,19.5 -6,15 -6,19 0,1 0.5,1 0.5,0 1.5,0 3,0 18,-7 13,-8 40.5,-24.5 27.5,-16.5 55,-35 27.5,-18.5 51,-35 23.5,-16.5 32.5,-25.5 8,-7 15.5,-11 7.5,-4 10.5,-4 1,0 2,1 0,0 0,1 0,4 -14,22.5 -14,18.5 -44,50.5 -26,28 -43.5,49 -17.5,21 -26,36 -8.5,15 -8.5,27 0,12 3,23 10,35 57,67 15,10 34,25 19,15 33,28.5 14,13.5 22,23.5 8,10 8,17 0,4 -3,4 -7,0 -33,-28 -24,-23 -56.5,-46.5 -32.5,-23.5 -64,-42.5 -31.5,-19 -58,-31 -26.5,-12 -40.5,-12 -18,0 -25,19 -7,19 -7,73 v 52 l 77,63 q 70,57 104.5,92 34.5,35 34.5,43 0,1 -1,2 0,1 -1,1 -4,0 -19.5,-11 -15.5,-11 -40.5,-36 -23,-22 -50,-46 -27,-24 -49,-41.5 -22,-17.5 -34.5,-26 -12.5,-8.5 -15.5,-8.5 -2,0 -2,1 -1,1 -2.5,9.5 -1.5,8.5 -2.5,21.5 -1,13 -2,30 -1,17 -2,33 -2,43 -6,68.5 -4,25.5 -7,25.5 -5,0 -5,-39 0,-25 2,-65 3,-43 3.5,-55.5 0.5,-12.5 0.5,-13.5 0,-21 -6,-35.5 -6,-14.5 -21.5,-27 -15.5,-12.5 -35.5,-27.5 -29,-21 -49.5,-33.5 -20.5,-12.5 -37.5,-21.5 -17,-9 -26.5,-12.5 -9.5,-3.5 -13.5,-3.5 -2,0 -3,1 -1,1 -2,14.5 -1,13.5 -1.5,35.5 -0.5,22 -1,50 -0.5,28 -0.5,61 0,73 -2.5,113.5 -2.5,40.5 -6.5,40.5 -5,0 -7,-42 -2,-42 -2,-121 0,-88 -2.5,-128 -2.5,-40 -11.5,-49 -3,-3 -3,-6 0,-3 4,-6 8,-5 8,-16 0,-1 -0.5,-8 -0.5,-7 -5.5,-23.5 -5,-16.5 -13,-35 -8,-18.5 -21,-36.5 -15,-21 -15,-30 0,0 0.5,-4 0.5,-4 17.5,-4 3,0 8,0 5,1 8,1 2,0 5,-0.5 3,-0.5 5.5,-6.5 2.5,-6 3.5,-19.5 1,-13.5 2,-31.5 0,-13 0,-24 0,-16 -1,-31 -1,-15 -7,-28 -6,-13 -16,-21.5 -10,-8.5 -29,-17.5 -8,-3 -16,-7.5 -8,-4.5 -8,-7.5 0,-3 21,-6.5 21,-3.5 51,-4.5 z m 59,19 h -35 q -29,0 -31,2.5 -2,2.5 -2,3.5 0,5 12,21 14,16 21,16 0,0 3.5,-0.5 3.5,-0.5 17.5,-19.5 z m 217,9 q 0,-3 -9.5,-6 -9.5,-3 -24.5,-3 -22,0 -24,3 -2,3 -2,5 0,6 12,22 9,13 12.5,13 3.5,0 17.5,-11 7,-7 12.5,-14 5.5,-7 5.5,-9 z m -205,215 q 2,-5 2,-8 0,-4 -5.5,-5.5 -5.5,-1.5 -33.5,-1.5 -19,0 -31.5,1 -12.5,1 -12.5,3 0,2 4.5,13.5 4.5,11.5 10.5,23.5 9,17 14,32 5,15 5,28 0,13 4,13 2,0 7,-5 5,-5 19,-44 3,-10 9,-26.5 6,-16.5 8,-23.5 z m 213,7 q 0,-13 -42,-13 h -44 l 20,43 q 8,18 15,29.5 7,11.5 11,11.5 1,0 1,0 4,-1 10.5,-10 6.5,-9 13,-21 6.5,-12 11,-24 4.5,-12 4.5,-16 z m 105,27 q 11,-12 16,-19.5 5,-7.5 5,-9.5 0,-2 -2,-2 -3,0 -14,6.5 -11,6.5 -26.5,16 -15.5,9.5 -32,20.5 -16.5,11 -31,21.5 -14.5,10.5 -23.5,17.5 -9,7 -9,9 0,2 10.5,7.5 10.5,5.5 30.5,11.5 10,3 16.5,4.5 6.5,1.5 9.5,1.5 2,0 5,-0.5 3,-0.5 5,-5 2,-4.5 5,-13.5 4,-8 6.5,-15.5 2.5,-7.5 2.5,-9.5 0,-4 7.5,-15.5 7.5,-11.5 18.5,-25.5 z m -174,41 q 0,-6 -3.5,-17 -3.5,-11 -8.5,-19 l -12,-23 -14,29 q -6,11 -9.5,29.5 -3.5,18.5 -4,30 -0.5,11.5 -0.5,15.5 0,16 2,32 2,16 9,28 3,5 11,15.5 8,10.5 16.5,19.5 8.5,9 16,15.5 7.5,6.5 9.5,6.5 3,0 4,-10.5 1,-10.5 1,-25 0,-14.5 -1.5,-31 -1.5,-16.5 -3.5,-28.5 -7,-27 -31,-27 -7,0 -7,-2 0,-2 11,-10 5,-5 10,-13 5,-8 5,-15 z m -56,112 q -5,-8 -8,-27 -3,-19 -5,-40 l -5,-53 -43,29 q -18,12 -31.5,23 -13.5,11 -15.5,13 0,2 14,11.5 14,9.5 47,26.5 13,6 26.5,13 13.5,7 17.5,8.5 4,1.5 5,1.5 1,0 1,-1 0,0 -0.5,-1.5 -0.5,-1.5 -2.5,-3.5 z"
     id="path1" />
</svg>
