<?xml version="1.0" encoding="UTF-8" standalone="no"?>
<svg
   width="2000"
   height="2000"
   version="1.1"
   id="svg1"
   sodipodi:docname="u12146.svg"
   inkscape:version="1.3.2 (091e20e, 2023-11-25)"
   xmlns:inkscape="http://www.inkscape.org/namespaces/inkscape"
   xmlns:sodipodi="http://sodipodi.sourceforge.net/DTD/sodipodi-0.dtd"
   xmlns="http://www.w3.org/2000/svg"
   xmlns:svg="http://www.w3.org/2000/svg">
  <defs
     id="defs1" />
  <sodipodi:namedview
     id="namedview1"
     pagecolor="#505050"
     bordercolor="#eeeeee"
     borderopacity="1"
     inkscape:showpageshadow="0"
     inkscape:pageopacity="0"
     inkscape:pagecheckerboard="0"
     inkscape:deskcolor="#505050"
     inkscape:zoom="0.379"
     inkscape:cx="1000"
     inkscape:cy="998.68074"
     inkscape:window-width="1392"
     inkscape:window-height="1212"
     inkscape:window-x="0"
     inkscape:window-y="0"
     inkscape:window-maximized="0"
     inkscape:current-layer="svg1" />
  <path
     d="m 829,639.5 q 1,-1 5,-1 2,0 6.5,0.5 4.5,0.5 12.5,3.5 9,2 35.5,3.5 26.5,1.5 49.5,1.5 11,0 23,0 36,0 61.5,1.5 25.5,1.5 25.5,2.5 0,2 -8.5,13.5 -8.5,11.5 -15.5,20.5 -35,43 -52.5,94 -17.5,51 -17.5,102 v 57 l 40,21 q 14,7 27,11.5 13,4.5 36,6.5 23,2 61.5,3.5 38.5,1.5 89.5,2.5 53,1 87,2.5 34,1.5 59,3 25,1.5 39.5,3 14.5,1.5 14.5,3.5 0,2 -11,4 -11,2 -30.5,3 -19.5,1 -46,1.5 -26.5,0.5 -57.5,0.5 -54,0 -91,1.5 -37,1.5 -65.5,6 -28.5,4.5 -53,12 -24.5,7.5 -54.5,20.5 l -47,20 6,87 138,96 q 28,19 53,37.5 25,18.5 44,33.5 19,15 30.5,25 11.5,10 13.5,15 0,1 0,1 0,2 -2,2 0,0 -2,-0.5 -2,-0.5 -18.5,-10.5 -16.5,-10 -48,-31.5 -31.5,-21.5 -85.5,-58.5 l -123,-85 -3,84 q -2,84 -11,84 0,0 -5,-2.5 -5,-2.5 -5,-100.5 0,-24 -0.5,-43 -0.5,-19 -2.5,-30 -2,-11 -6.5,-16 -4.5,-5 -11.5,-10 -14,-9 -43.5,-19.5 -29.5,-10.5 -65.5,-20 -36,-9.5 -73.5,-17 -37.5,-7.5 -67.5,-10.5 l -71,-7 38,-38 q 16,-16 39.5,-45 23.5,-29 41.5,-54 18,-25 31.5,-40.5 13.5,-15.5 18.5,-15.5 1,0 1,0 2,1 4.5,10.5 2.5,9.5 4.5,21.5 2,28 15,59 13,31 32.5,60 19.5,29 44.5,53 25,24 52,38 11,6 15,6 1,0 2.5,-1 1.5,-1 1.5,-15 0,-12 -2,-19 -2,-7 -4,-7 -3,0 -4,-18.5 -1,-18.5 -1,-31.5 0,-18 1,-39 1,-27 1,-47 0,-20 -2.5,-38 -2.5,-18 -7,-37 -4.5,-19 -10.5,-40 -7,-22 -14,-40 -7,-18 -14,-35.5 -7,-17.5 -14,-33 -7,-15.5 -14,-27.5 -10,-18 -15,-33 -5,-15 -5,-19 z m 173,38 q 0,-4 -21,-6.5 -21,-2.5 -50,-2.5 l -70,-2 16,35 q 7,14 17.5,39.5 10.5,25.5 17.5,48.5 l 18,56 18,-54 q 7,-24 17.5,-47.5 10.5,-23.5 18.5,-33.5 7,-11 12.5,-21 5.5,-10 5.5,-12 z m -240,276 q -7,-25 -12,-30 -5,-5 -8,-5 -4,0 -7,8 -3,9 -17.5,29 -14.5,20 -32.5,41 l -43,54 34,6 q 17,2 37,6 1,0 2,0 l 1,1 q 1,0 2,0 h 1 q 2,1 4,1 h 1 q 1,0 2,1 h 1 q 2,0 4,1 h 1 q 1,0 2,0 h 1 q 2,1 4,1 h 1 q 1,1 2,1 h 1 q 2,0 4,1 h 1 q 1,0 2,0 l 1,1 q 1,0 2,0 20,4 37.5,8 17.5,4 29.5,7 7,2 10,2 4,0 4,-2 0,0 -1,-3.5 -1,-3.5 -17,-23.5 -22,-29 -35,-55 -13,-26 -19,-50 z m 255,37 q -14,-5 -28.5,-12 -14.5,-7 -21.5,-13 -5,-4 -8,-4 -2,0 -3.5,4 -1.5,4 -1.5,32 0,36 2.5,39.5 2.5,3.5 5.5,3.5 5,0 16,-6 8,-5 21.5,-10.5 13.5,-5.5 24.5,-10.5 l 29,-11 z"
     id="path1" />
</svg>
