<?xml version="1.0" encoding="UTF-8" standalone="no"?>
<svg
   width="2000"
   height="2000"
   version="1.1"
   id="svg1"
   sodipodi:docname="u121F9.svg"
   inkscape:version="1.3.2 (091e20e, 2023-11-25)"
   xmlns:inkscape="http://www.inkscape.org/namespaces/inkscape"
   xmlns:sodipodi="http://sodipodi.sourceforge.net/DTD/sodipodi-0.dtd"
   xmlns="http://www.w3.org/2000/svg"
   xmlns:svg="http://www.w3.org/2000/svg">
  <defs
     id="defs1" />
  <sodipodi:namedview
     id="namedview1"
     pagecolor="#505050"
     bordercolor="#eeeeee"
     borderopacity="1"
     inkscape:showpageshadow="0"
     inkscape:pageopacity="0"
     inkscape:pagecheckerboard="0"
     inkscape:deskcolor="#505050"
     inkscape:zoom="0.379"
     inkscape:cx="1000"
     inkscape:cy="998.68074"
     inkscape:window-width="1392"
     inkscape:window-height="1212"
     inkscape:window-x="0"
     inkscape:window-y="0"
     inkscape:window-maximized="0"
     inkscape:current-layer="svg1" />
  <path
     d="m 829.5,806 q -1,-12 -1,-21 0,-16 2,-22.5 2,-6.5 5,-6.5 2,0 6,6 6,11 22,20 16,9 36.5,18.5 20.5,9.5 42.5,17.5 22,8 35,11 22,4 97.5,6.5 75.5,2.5 189.5,2.5 52,0 97,0.5 45,0.5 77,1.5 32,1 50,2 18,1 18,3 0,1 -16.5,2.5 -16.5,1.5 -46,3 -29.5,1.5 -70,2.5 -40.5,1 -76.5,1 -87,2 -133,3 -46,1 -75,3.5 -29,2.5 -48,6 -19,3.5 -45,10.5 -20,6 -46,14.5 -26,8.5 -48,16.5 -22,8 -37,14.5 -15,6.5 -20,10.5 -4,2 -9,4 -5,2 -9,2 -7,0 -7,-9 0,-1 0.5,-7.5 0.5,-6.5 9.5,-41.5 1,-3 1,-5 0,-1 -1,-3 -1,-2 -10,-3 -9,-1 -27,-1 -18,0 -48,2 -36,1 -56,2 -20,1 -34,3.5 -14,2.5 -25.5,8 -11.5,5.5 -28.5,14.5 -19,11 -39.5,23.5 -20.5,12.5 -32.5,24.5 -4,4 -11,10 -7,6 -9,6 -2,0 -2.5,-27.5 -0.5,-27.5 -0.5,-55.5 0,-81 3.5,-93 3.5,-12 6.5,-12 3,0 8,10 7,13 20,24.5 13,11.5 32,23.5 10,6 19,10.5 9,4.5 23.5,6.5 14.5,2 37.5,2.5 23,0.5 65,0.5 h 111 z m 68,10 q -19,-8 -33,-15 0,0 -1,0 l -1,-1 q -1,0 -2,-1 h -1 q -1,-1 -2,-1 l -1,-1 q -1,0 -2,-1 -1,0 -2,-1 0,0 -1,0 v -1 q 0,0 -1,0 -1,-1 -2,-1 0,0 0,0 0,0 0,0 -2,0 -3,17 -1,17 -2,43 v 62 l 28,-12 q 35,-15 62,-24 27,-9 49,-13 26,-5 26,-10 0,-1 -1.5,-4.5 -1.5,-3.5 -27.5,-7.5 -20,-3 -42,-10.5 -22,-7.5 -40,-17.5 z m -299,47 Q 588.5,859 574,850.5 559.5,842 548.5,834 l -26,-19 v 54 q 0,23 0.5,39 0.5,16 2.5,16 1,0 15.5,-8 14.5,-8 34.5,-19 l 47,-26 z m -104,281 q 2,-34 3.5,-60.5 1.5,-26.5 3.5,-26.5 2,0 10,8 8,8 17,18 16,18 29,28 13,10 32,15.5 19,5.5 47,7 28,1.5 71,1.5 h 104 l -2,-39 q 0,-7 0,-13 0,-8 1,-17 1,-9 3,-9 2,0 13.5,6.5 11.5,6.5 31.5,18.5 15,9 31.5,17.5 16.5,8.5 36,14 19.5,5.5 44.5,9 25,3.5 61,5 36,1.5 87,1.5 h 3 q 1,0 3,0 h 3 q 2,0 5,0 h 8 q 5,0 10,0 h 4 q 2,0 3,0 h 11 q 2,0 4,0 h 45 q 1,0 2,0 h 4 q 1,0 2,0 h 7 q 3,0 6,0 50,0 90,0 60,0 111,1 51,1 51,5 0,4 -39.5,6.5 -39.5,2.5 -110.5,2.5 -31,0 -63.5,0.5 -32.5,0.5 -62,1 -29.5,0.5 -52.5,1 -23,0.5 -36,0.5 -27,1 -63.5,7 -36.5,6 -74,15 -37.5,9 -73,20.5 -35.5,11.5 -66.5,25.5 -14,7 -26,12 -12,5 -16,5 -1,0 -1,-1 -2,-2 -2,-10 0,-2 0.5,-9 0.5,-7 2.5,-23 l 4,-38 h -77 q -26,0 -43,0.5 -17,0.5 -30,3 -13,2.5 -25.5,7 -12.5,4.5 -29.5,12.5 -20,11 -43.5,24.5 -23.5,13.5 -41.5,27.5 -8,6 -17,12 -9,6 -10,6 0,0 0,0 -1,-2 -1,-30 0,-28 1,-70 z m 369,-40 q 0,0 0,0 h -1 q 0,0 0,0 l -1,-1 q -1,0 -2,-1 l -1,-1 q 0,0 0,0 h -1 q -1,0 -2,-1 -1,0 -1,0 v -1 q -1,0 -1,0 h -1 q 0,-1 0,-1 h -1 q 0,0 -1,0 v -1 q -1,0 -1,0 h -1 q -1,-1 -2,-1 v -1 q -1,0 -1,0 h -1 q 0,-1 -1,-1 -12,-6 -14,-6 -2,0 -3,17.5 -1,17.5 -1,41.5 0,24 1,41.5 1,17.5 3,17.5 1,0 16.5,-6 15.5,-6 26.5,-11 29,-11 54,-19.5 25,-8.5 39,-11.5 l 36,-10 -45,-10 q -19,-4 -43.5,-13 -24.5,-9 -49.5,-21 z m -287,37 q -12,-7 -25.5,-16 -13.5,-9 -20.5,-16 l -18,-15 v 55 q 0,42 3,49 3,7 6,7 4,0 10,-7 7,-8 18.5,-15 11.5,-7 25.5,-13 l 32,-15 z"
     id="path1" />
</svg>
