<?xml version="1.0" encoding="UTF-8" standalone="no"?>
<svg
   width="2000"
   height="2000"
   version="1.1"
   id="svg1"
   sodipodi:docname="u121A7.svg"
   inkscape:version="1.3.2 (091e20e, 2023-11-25)"
   xmlns:inkscape="http://www.inkscape.org/namespaces/inkscape"
   xmlns:sodipodi="http://sodipodi.sourceforge.net/DTD/sodipodi-0.dtd"
   xmlns="http://www.w3.org/2000/svg"
   xmlns:svg="http://www.w3.org/2000/svg">
  <defs
     id="defs1" />
  <sodipodi:namedview
     id="namedview1"
     pagecolor="#505050"
     bordercolor="#eeeeee"
     borderopacity="1"
     inkscape:showpageshadow="0"
     inkscape:pageopacity="0"
     inkscape:pagecheckerboard="0"
     inkscape:deskcolor="#505050"
     inkscape:zoom="0.379"
     inkscape:cx="1000"
     inkscape:cy="998.68074"
     inkscape:window-width="1392"
     inkscape:window-height="1212"
     inkscape:window-x="0"
     inkscape:window-y="0"
     inkscape:window-maximized="0"
     inkscape:current-layer="svg1" />
  <path
     d="m 655.49999,625.50001 6,40 q 3,18 9,33 6,15 18,31.5 12,16.5 31,37 19,20.5 47,47.5 38,37 49.5,45 11.5,8 16.5,8 4,0 6,-4 3,-4 8,-4 3,0 9,2 6,2 27,19 13,12 22,18 9,6 20.5,9 11.5,3 29.5,3.5 18,0.5 42.00003,0.5 38.99998,0 63.49998,2.5 24.5,2.5 27.5,6.5 0,0 0,1 0,8 -108.00001,8 -33,0 -63,1 -30,1 -30,5 0,2 4,10 4,8 9,17 5,9 10.5,16 5.5,7 8.5,10 6,4 27,5.5 21,1.5 41,1.5 7.00003,0 24.00001,-0.5 17,-0.5 41,-3 24,-2.5 32,-9.5 3,-4 9,-4 6,0 15,5 9,6 24.5,9 15.5,3 23.5,3 12,0 49.5,-7.5 37.5,-7.5 88.5,-19.5 51,-12 108.5,-25.5 57.5,-13.5 107,-26 49.5,-12.5 83.5,-21.5 34,-9 37,-12 0,0 0,-1 0,-3 -28.5,-11 -28.5,-8 -84.5,-18 -13,-3 -46,-9 -33,-6 -71.5,-13 -38.5,-7 -78,-15 -39.5,-8 -74.5,-14 l -168,-33 -124.00001,15 q -51,6 -93,12.5 -42,6.5 -57,15.5 -7,4 -11,4 -5,0 -6,-3.5 -1,-3.5 -1,-5.5 0,-13 13,-47 9,-26 15,-47.5 6,-21.5 6,-33.5 0,-21 18,-21 11,0 11,7 0,6 13.5,15 13.5,9 36.5,19 23,10 54,19.5 31,9.5 79.00001,20.5 25,6 88,19.5 63,13.5 136,27.5 73,14 148.5,27.5 75.5,13.5 140,25 64.5,11.5 109.5,19 45,7.5 65,7.5 15,0 17.5,1.5 2.5,1.5 2.5,2.5 0,3 -20.5,10.5 -20.5,7.5 -74,22 -53.5,14.5 -146.5,36.5 l -217,54 -86,58.99999 q -36,25 -63.5,47 -27.5,22 -30.5,29 -10,17 -18,17 -1,0 -5,-1 -4,-1 -4,-14 0,-5 1,-11 l 3,-25 -102.00001,-2 q -23,-1 -42,-1 -53,0 -63.5,5 -10.5,5 -10.5,11 0,9 19,26 9,7 16.5,11.5 7.5,4.5 18.5,7 11,2.5 28.5,3 17.5,0.5 39.5,0.5 41.00001,0 67.00001,3 26,3 29,6 0,1 0,1 0,4 -24.5,7 -24.5,3 -80.50001,3 -55,0 -83,3 -28,3 -40,12 -6,4 -11.5,6 -5.5,2 -7.5,2 -3,0 -5,-2 -4,-3 -5.5,-17 -1.5,-14 -1.5,-27 0,-4 0.5,-14.5 0.5,-10.5 3,-25.5 2.5,-15 5.5,-18 4,-2 6.5,-22 2.5,-20 3,-34.5 0.5,-14.5 0.5,-20.5 0,-16.99998 -1.5,-32.99998 -1.5,-16 -4.5,-16 -3,0 -27.5,19.5 -24.5,19.49998 -44.5,34.49998 -43,34 -59.5,50 -16.5,16 -28,29.5 -11.5,13.5 -18,27.5 -6.5,14 -14.5,31 -12,30 -19.5,54.5 -7.5,24.5 -7.5,45.5 0,22 -7,22 -1,0 -7.5,-4 -6.5,-4 -18.5,-48 l -16,-55 -89,-59 q -30,-19 -48.5,-29.5 -18.5,-10.5 -31.5,-16 -13,-5.5 -18.5,-6 -5.5,-0.5 -6.5,-0.5 -9,0 -22,3 -12,3 -27,8 -15,5 -27,13 -12,9 -19.5,10 -7.5,1 -8.5,1 -6,0 -6,-4 0,-3 4,-9 4,-3 14,-25.5 10,-22.5 17,-38.5 14,-34.99998 18.5,-49.99998 4.5,-15 6.5,-27 2,-12 2,-24 0,-3 -0.5,-12.5 -0.5,-9.5 -2.5,-32.5 l -7,-69 25,17 q 9,6 14,7.5 5,1.5 8,1.5 6,0 16,-3 10,-3 32.5,-13.5 22.5,-10.5 51.5,-24.5 58,-28 86,-43 28,-15 45,-28 17,-13 26,-25.5 9,-12.5 20,-32.5 z m 224,85 q -9,-4 -20.5,-9.5 -11.5,-5.5 -14.5,-5.5 -1,0 -6.5,12 -5.5,12 -11.5,30 l -15,44 72,-8 q 30,-3 58,-6 28,-3 43,-7 10.00003,-4 10.00003,-6 0,-1 -2,-2 -2,-1 -31.00003,-10 -18,-5 -40.5,-13 -22.5,-8 -41.5,-19 z m -203,48 q 0,-1 0,-3 0,-8 -13,-28 l -17,-29 -19,26 -23,25 35,8 q 13,1 20,1.5 7,0.5 10,0.5 5,0 7,-1 z m -109,6 q 0,-3 -4,-3 -4,0 -14.5,4 -10.5,4 -55.5,28 -28,16 -41.5,25 -13.5,9 -24,19.5 -10.5,10.5 -19.5,24 -9,13.5 -21,34.5 -21,36 -28,53.5 -7,17.5 -7,29.5 0,8 4,20.49999 4,12.5 25.5,29.5 21.5,17 62.5,44 52,36 67.5,43.5 15.5,7.5 21.5,7.5 7,0 10,-6 3,-5 10,-5 6,0 15,4 9,5 17,5 2,0 7,-0.5 5,-0.5 15,-6.5 11,-4 30.5,-18.5 19.5,-14.5 44,-34 24.5,-19.5 51,-41 26.5,-21.5 48,-40.49999 21.5,-19 36.5,-33 15,-14 17,-17 0,-1 0,-2 0,-7 -16.5,-28 -16.5,-21 -46.5,-53 l -71,-72 h -66 q -28,0 -47.5,-3 -19.5,-3 -19.5,-9 z m -99,113 q -3,-11 -3.5,-17.5 -0.5,-6.5 -0.5,-8.5 0,-6 2,-6 2,0 17.5,13.5 15.5,13.5 36.5,34.5 l 51,48 111,-4 q 39,-3 68,-3 5,0 23.5,0.5 18.5,0.5 18.5,3.5 0,3 -32.5,7.5 -32.5,4.5 -105.5,9.5 -26,1 -58,3.5 -32,2.5 -51,7 -19,4.5 -29.5,10.5 -10.5,6 -20.5,18 l -21,21.99999 v -48.99999 q 0,-21 -1.5,-46.5 -1.5,-25.5 -4.5,-43.5 z m -80,-26 q 0,-3 -7.5,-3 -7.5,0 -16.5,1 -9,1 -17,4 -8,3 -10,6 -2,2 -2,8 0,2 1,9.5 1,7.5 4,19.5 l 8,27 21,-33 q 7,-13 13,-24.5 6,-11.5 6,-14.5 z m 492,60 q 1,-2 1,-4 0,-5 -10,-9 -5,-2 -8,-2 -5,0 -5,6 0,9 6,11.5 6,2.5 8,2.5 5,0 8,-5 z m -342,30 q 0,-6 -6.5,-12 -6.5,-6 -15,-12 -8.5,-6 -14.5,-8.5 -6,-2.5 -8,-2.5 -3,0 -4,1 -3,1 -3,9.5 0,8.5 2,17.5 5,20 17,20 2,0 5,-1 3,-1 10,-2.5 7,-1.5 10,-1.5 7,0 7,-8 z m 338,45 q 0,-10 -9,-10 -9,0 -9,10 0,9 9,9 9,0 9,-9 z m -525,49.99999 q 0,-12 -12,-21 -8,-7 -12,-7 -1,0 -3.5,1 -2.5,1 -10.5,16 -8,15 -8,20 0,1 1,3.5 1,2.5 18,2.5 27,0 27,-15 z m 862.00001,-21 q 0,-3 -16.5,-4.5 -16.5,-1.5 -38.5,-1.5 h -57 v 40 q 0,17 2,27 2,10 6,10 1,0 2,-1 5,-1 22,-12.5 17,-11.5 35,-23.5 18,-12 31.5,-22.5 13.5,-10.5 13.5,-11.5 z m -130,-2 H 975.49999 q -44,0 -76,3 -32,3 -32,6 0,3 9,12 9,9 22,17 20,12 41.5,15.5 21.5,3.5 66.50001,3.5 h 77 z m -207.00001,48 q 0,-10 -9,-10 -9,0 -9,10 0,9 9,9 9,0 9,-9 z m -255,104 q 6,-18 6,-23.5 0,-5.5 -14,-5.5 -33,0 -33,28 0,9 3,19 5,20 13,20 10,0 25,-38 z m 243,-5 q 2,-2 2,-5 0,-5 -5,-11 -5,-5 -10,-5 -4,0 -7,5 -1,2 -1,4 0,5 5.5,10 5.5,5 9.5,5 3,0 6,-3 z m -173,38 q -1,-7 -1,-12 0,-10 3,-11 3,-1 5,-1 7,0 20,13 15,17 32.5,24.5 17.5,7.5 55,11 37.5,3.5 102,5 64.5,1.5 161.50001,1.5 134,0 206,3 72,3 75,6 0,0 0,0 0,11 -225,11 H 895.49999 l -85,42 q -41,21 -64,36.5 -23,15.5 -29,37.5 -3,9 -6,9 -2,0 -7,-12.5 -5,-12.5 -5,-63.5 0,-25 -1.5,-54.5 -1.5,-29.5 -6.5,-45.5 z m 105,45 q -19,-5 -37,-10 -18,-5 -24,-8 -6,-2 -10,-2 -5,0 -6.5,5.5 -1.5,5.5 -1.5,32.5 0,27 2,38.5 2,11.5 5,11.5 1,0 2,-1 1,0 19,-9 18,-9 42,-19 l 56,-27 z"
     id="path1" />
</svg>
