<?xml version="1.0" encoding="UTF-8" standalone="no"?>
<svg
   width="2000"
   height="2000"
   version="1.1"
   id="svg1"
   sodipodi:docname="u12132.svg"
   inkscape:version="1.3.2 (091e20e, 2023-11-25)"
   xmlns:inkscape="http://www.inkscape.org/namespaces/inkscape"
   xmlns:sodipodi="http://sodipodi.sourceforge.net/DTD/sodipodi-0.dtd"
   xmlns="http://www.w3.org/2000/svg"
   xmlns:svg="http://www.w3.org/2000/svg">
  <defs
     id="defs1" />
  <sodipodi:namedview
     id="namedview1"
     pagecolor="#505050"
     bordercolor="#eeeeee"
     borderopacity="1"
     inkscape:showpageshadow="0"
     inkscape:pageopacity="0"
     inkscape:pagecheckerboard="0"
     inkscape:deskcolor="#505050"
     inkscape:zoom="0.379"
     inkscape:cx="1000"
     inkscape:cy="998.68074"
     inkscape:window-width="1392"
     inkscape:window-height="1212"
     inkscape:window-x="0"
     inkscape:window-y="0"
     inkscape:window-maximized="0"
     inkscape:current-layer="svg1" />
  <path
     d="m 1106,657.5 q 7,-6 14,-10.5 7,-4.5 14,-10.5 3,-2 8,-5 0,0 0,0 1,0 1,6 0,3 -0.5,13.5 -0.5,10.5 -3.5,33.5 -1,17 -1,31 0,33 8,48 5,8 23.5,30.5 18.5,22.5 45,51 26.5,28.5 56.5,59 30,30.5 56,57 26,26.5 45,43 19,16.5 28,16.5 3,0 3,2 0,1 -1,4 -1,3 -17.5,13.5 -16.5,10.5 -49.5,28.5 -33,18 -88,46 -48,24 -79.5,41.5 -31.5,17.5 -52.5,31.5 -21,14 -37.5,28.5 -16.5,14.5 -34.5,33.5 -27,27 -47.5,53.5 -20.5,26.5 -27.5,42.5 -3,8 -7.5,15.5 -4.5,7.5 -6.5,7.5 -3,0 -7.5,-7.5 -4.5,-7.5 -7.5,-15.5 -7,-16 -21.5,-37 -14.5,-21 -33.5,-45 -29,-35 -31,-43 -2,-8 -2,-10 0,-5 5,-5 3,0 8,2 12,5 35.5,6.5 23.5,1.5 44.5,1.5 24,0 38,-2.5 14,-2.5 29,-7 15,-4.5 33,-12.5 18,-8 47,-22 l 84,-42 -51,-3 q -3,0 -6,0 -48,0 -56,14 -2,3 -4,3 -3,0 -6,-5 -11,-16 -50,-16 -26,0 -64,7 -41,8 -61.5,15 -20.5,7 -20.5,19 0,3 1,7 1,3 1,5 0,2 -2,2 -3,0 -11.5,-5 -8.5,-5 -37.5,-32 -54,-50 -92,-71 -38,-21 -77,-27 l -41,-6 51,-55 q 38,-41 58,-63.5 20,-22.5 29,-41 9,-18.5 9,-40.5 0,-22 -1,-41 -1,-26 -1,-45 0,-42 2.5,-46 2.5,-4 5.5,-4 7,0 21,12 20,18 38.5,22.5 18.5,4.5 78.5,7.5 h 6 q 0,0 1,0 h 1 q 0,0 1,0 h 1 q 0,0 0,0 h 1 q 1,0 1,0 h 1 q 1,0 1,0 h 17 q 17,0 30.5,-3 13.5,-3 27,-9 13.5,-6 28.5,-13 32,-15 59,-31.5 27,-16.5 42,-28.5 z m 25,118 q -3,-7 -6,-25 -3,-18 -6,-35 l -4,-40 -54,31 q -39,24 -43.5,31 -4.5,7 -4.5,9 0,5 12,5 12,0 29,6 17,6 38,15 l 45,23 z m -325,-13 q 0,-8 -21,-18 l -23,-11 v 51 q 2,38 3,39.5 1,1.5 1,1.5 2,0 8,-18 6,-12 12,-21 6,-9 12,-14 8,-4 8,-10 z m 225,7 q -12,-4 -26.5,-8 -14.5,-4 -22.5,-4.5 -8,-0.5 -15,-0.5 -6,0 -16,0.5 -10,0.5 -27,2.5 -43,3 -65,7.5 -22,4.5 -36,15 -14,10.5 -24,29 -10,18.5 -22,53.5 -9,25 -18,48.5 -9,23.5 -18,32.5 -12,12 -15,27.5 -3,15.5 -3,24.5 0,15 5,30 4,11 9.5,20 5.5,9 9.5,9 5,0 8,10 0,6 13.5,19 13.5,13 30,25 16.5,12 27.5,18 11,6 15,6 3,0 4,-3 1,-3 3.5,-25.5 2.5,-22.5 3.5,-39.5 3,-37 5.5,-56.5 2.5,-19.5 3.5,-21.5 0,0 1,0 4,0 14.5,3 10.5,3 20.5,8 21,10 48,15.5 27,5.5 48,8.5 l 51,1 6,-73 h -33 q -13,0 -33.5,3 -20.5,3 -33.5,7 -15,3 -31.5,7 -16.5,4 -24.5,7 l -21,4 5,-81 q 0,-2 0,-5 v -2 q 3,-29 5,-50 2,-25 5,-27 0,0 1,0 3,0 11,4 8,4 15,8 17,11 35,16 18,5 33,7 7,1 12,1 10,0 11,-2.5 1,-2.5 1,-6.5 0,-6 -3,-18 -4,-12 -4,-18 0,-6 3,-6.5 3,-0.5 4,-0.5 10,0 36,3 23,2 37,2 19,0 19,-4 0,-1 -1,-5.5 -1,-4.5 -67,-24.5 z m 108,44 q -3,-2 -11.5,-5.5 -8.5,-3.5 -11.5,-3.5 -1,0 -6.5,6.5 -5.5,6.5 -11.5,15 -6,8.5 -10.5,16 -4.5,7.5 -4.5,8.5 0,3 16.5,4 16.5,1 36.5,1 60,0 60,7 0,1 -1.5,5 -1.5,4 -60.5,7 l -63,3 -3,27 q -1,8 -1,14 0,9 3.5,12.5 3.5,3.5 26.5,3.5 15,0 35,2.5 20,2.5 37,5.5 16,3 16,5 0,0 -3.5,1 -3.5,1 -47.5,3 h -67 v 78 h 64 q 26,0 47,3 21,3 24,6 0,0 0,1 0,8 -65,8 h -70 v 58 l 72,5 q 17,1 29,1 7,0 17.5,-0.5 10.5,-0.5 24.5,-3.5 14,-3 31.5,-11.5 17.5,-8.5 39.5,-20.5 36,-18 58.5,-31.5 22.5,-13.5 22.5,-17.5 0,-5 -13.5,-20.5 -13.5,-15.5 -35,-37.5 -21.5,-22 -47,-46.5 -25.5,-24.5 -49,-46.5 -23.5,-22 -43,-38.5 -19.5,-16.5 -35.5,-23.5 z m -65,13 q -4,-4 -21,-7 -10,-2 -16,-2 -12,0 -13.5,4.5 -1.5,4.5 -1.5,6.5 0,8 10,16 8,6 16,6 10,0 19,-9 3,-3 5.5,-6.5 2.5,-3.5 2.5,-5.5 0,-2 -1,-3 z m -138,33 q 0,-4 -18,-12 -9,-5 -13,-5 -1,0 -2,1 -1,1 -1,16 0,17 1,18 1,1 2,1 3,0 13,-5 18,-8 18,-14 z m 99,45 q -12,-30 -35,-30 0,0 -1,0 -10,0 -24.5,2.5 -14.5,2.5 -27,4.5 -12.5,2 -22.5,5 -10,3 -13,6 -3,3 -3,6 0,3 6,9 6,6 21,12 15,6 35.5,10.5 20.5,4.5 39.5,4.5 24,0 26,-4.5 2,-4.5 2,-7.5 0,-7 -4,-18 z m -99,41 q 0,-11 -21,-18 -13,-7 -18,-7 -1,0 -2.5,1 -1.5,1 -1.5,13 0,23 10,23 3,0 6,-2 5,-1 11,-2.5 6,-1.5 9,-1.5 7,0 7,-6 z m -220,13 q 4,-9 6.5,-17.5 2.5,-8.5 2.5,-11.5 0,-1 0,-1 0,0 0,0 -3,0 -15,12 -12,12 -32,36 -15,18 -25.5,32 -10.5,14 -10.5,16 0,0 0,0 2,3 11.5,4 9.5,1 18.5,2 11,1 18,1 9,0 12,-2 3,-2 3,-7 0,-3 -1,-7 -1,-3 -1,-7 0,-8 3.5,-20.5 3.5,-12.5 9.5,-29.5 z m 187,63 q -16,-9 -21,-9 -1,0 -4,1 -3,1 -3,13 0,16 6,18 6,2 9,2 8,0 16,-5 8,-5 8,-10 0,-5 -11,-10 z m 144,56 q -3,-24 -6.5,-29.5 -3.5,-5.5 -21.5,-6.5 -17,0 -40,3 -23,3 -44,7.5 -21,4.5 -36,10.5 -15,6 -15,10 0,8 31.5,17 31.5,9 79.5,13 l 55,8 z m -157,19 q -12,-6 -17,-6 -1,0 -3.5,1 -2.5,1 -2.5,14 0,17 5.5,18 5.5,1 8.5,1 7,0 15,-4 8,-4 8,-9 0,-7 -14,-15 z m 124,158 q 17,-21 19,-24.5 2,-3.5 2,-4.5 0,-3 -6,-3 -1,0 -3,0 -7,0 -30.5,1.5 -23.5,1.5 -48.5,4.5 l -65,5 29,34 q 10,15 20.5,29.5 10.5,14.5 13.5,18.5 5,8 9,8 0,0 2.5,-1 2.5,-1 12.5,-14 6,-11 19.5,-26.5 13.5,-15.5 25.5,-27.5 z"
     id="path1" />
</svg>
