<?xml version="1.0" encoding="UTF-8" standalone="no"?>
<svg
   width="2000"
   height="2000"
   version="1.1"
   id="svg1"
   sodipodi:docname="u1219D.svg"
   inkscape:version="1.3.2 (091e20e, 2023-11-25)"
   xmlns:inkscape="http://www.inkscape.org/namespaces/inkscape"
   xmlns:sodipodi="http://sodipodi.sourceforge.net/DTD/sodipodi-0.dtd"
   xmlns="http://www.w3.org/2000/svg"
   xmlns:svg="http://www.w3.org/2000/svg">
  <defs
     id="defs1" />
  <sodipodi:namedview
     id="namedview1"
     pagecolor="#505050"
     bordercolor="#eeeeee"
     borderopacity="1"
     inkscape:showpageshadow="0"
     inkscape:pageopacity="0"
     inkscape:pagecheckerboard="0"
     inkscape:deskcolor="#505050"
     inkscape:zoom="0.379"
     inkscape:cx="1000"
     inkscape:cy="998.68074"
     inkscape:window-width="1392"
     inkscape:window-height="1212"
     inkscape:window-x="0"
     inkscape:window-y="0"
     inkscape:window-maximized="0"
     inkscape:current-layer="svg1" />
  <path
     d="m 625,647 q 9,-11 15,-11 1,0 2,1 2,2 2,4 0,1 -2,4.5 -2,3.5 -5,6.5 -9,9 -9,25 0,29 26,80 9,16 16.5,29 7.5,13 18.5,24 11,11 27.5,24.5 16.5,13.5 37.5,30.5 35,27 59.5,44 24.5,17 30.5,17 5,0 26,-12 21,-12 44,-28.5 23,-16.5 42.5,-32 Q 976,838 985,820 993,803 995.5,788.5 998,774 998,769 q 0,-12 -5,-18 -4,-5 -4,-10 0,-9 10,-19 6,-6 8,-6 2,0 2,5 0,15 32.5,28.5 32.5,13.5 69.5,20.5 21,5 39,6.5 18,1.5 42,3 24,1.5 50.5,2 26.5,0.5 59.5,0.5 46,0 83.5,1.5 37.5,1.5 37.5,4.5 0,3 -34.5,6 -34.5,3 -88.5,6 -42,2 -87,5.5 -45,3.5 -82.5,9 -37.5,5.5 -64.5,10.5 -27,5 -42,11 -10,6 -36.5,22 -26.5,16 -53.5,34 -27,18 -47,33 -20,15 -20,18 0,3 14,15.5 14,12.5 34,27.5 l 48,38 24,-14 q 27,-16 31.5,-23 4.5,-7 4.5,-11 0,-6 -5,-12 -5,-7 -5,-13 0,-6 5,-11 5,-4 9,-4 3,0 5,5 4,12 41,25 37,13 121,26 55,8 73,8 3,0 6.5,-0.5 3.5,-0.5 3.5,-2.5 0,-5 -23,-18 -21,-11 -42,-19 -21,-8 -35,-13 l -30,-9 93,-63 q 39,-25 65.5,-40 26.5,-15 31.5,-15 2,0 2,0 0,1 0,1 0,4 -7.5,12 -7.5,8 -20.5,15 -12,9 -25.5,23.5 -13.5,14.5 -21.5,27.5 -8,15 -8,29 0,32 46,55 21,12 32,13 11,1 18,1 15,0 37,-2 27,-3 43.5,-6.5 16.5,-3.5 16.5,-9.5 0,-6 -21,-24 -8,-9 -14,-16 -6,-7 -6,-8 0,-3 17.5,-3 17.5,0 42.5,1 60,0 84,-12 10,-5 20,-5 7,0 13,2 8,3 8,5 0,1 -1,2.5 -1,1.5 -10,6.5 -22,12 -38.5,39 -16.5,27 -28.5,65 -12,38 -20.5,86 -8.5,48 -11.5,102 -3,35 -6,62 -3,27 -6,27 -3,0 -4.5,-37 -1.5,-37 -1.5,-97 0,-43 -0.5,-87.5 -0.5,-44.5 -3.5,-56.5 l -6,-28 -42,6 q -17,3 -53,4.5 -36,1.5 -64,1.5 -53,0 -99.5,5 -46.5,5 -84.5,12.5 -38,7.5 -62,16 -24,8.5 -24,17.5 0,7 18,18 7,6 10,10 3,4 3,6 0,1 -1,2 -1,1 -2,1 -6,0 -26,-12 -20,-12 -31,-19 -15,-11 -34,-11 -25,0 -57,21 -26,15 -42.5,26.5 -16.5,11.5 -16.5,14.5 0,3 15,15.5 15,12.5 35,27.5 39,30 47.5,39 8.5,9 8.5,12 0,2 -4,2 -7,0 -24.5,-12 -17.5,-12 -38.5,-27 -50,-39 -67,-39 -1,0 -2,0 -6,3 -31.5,18 -25.5,15 -55.5,34 -31,23 -56,37 -25,14 -28,14 -3,0 -17,10 -14,10 -32,26 -23,21 -27.5,30 -4.5,9 -4.5,18 0,8 2,18 2,8 2,13 0,5 -2,5 -8,0 -41,-46 -15,-18 -31.5,-37 -16.5,-19 -26.5,-28 -15,-13 -17.5,-20 -2.5,-7 -2.5,-9 0,-5 6,-5 9,0 15,7 8,11 25,14 17,3 39,3 22,0 45,-2.5 23,-2.5 40,-8.5 16,-4 47,-20 31,-16 62.5,-35.5 31.5,-19.5 55.5,-35 24,-15.5 24,-20.5 0,-3 -16,-15 -16,-12 -34.5,-25.5 -18.5,-13.5 -36,-24 Q 703,1046 700,1046 q -6,2 -30,17 -24,15 -52.5,33 -28.5,18 -53,35 -24.5,17 -36.5,29 -14,12 -17.5,20 -3.5,8 -3.5,15 0,5 1,10 1,6 1,11 0,3 -0.5,7.5 -0.5,4.5 -3.5,4.5 -3,0 -14,-13.5 Q 480,1201 468,1186 451,1165 435.5,1147.5 420,1130 412,1124 q -9,-4 -15,-11.5 -6,-7.5 -6,-13.5 0,-8 4.5,-9 4.5,-1 5.5,-1 6,0 10,5 4,8 17,11.5 13,3.5 26.5,4 13.5,0.5 23.5,0.5 10,0 25.5,-0.5 15.5,-0.5 34.5,-4.5 24,-5 51,-16 27,-11 48,-24 21,-13 29.5,-22 8.5,-9 8.5,-15 0,-7 -8,-15 -4,-3 -28,-22.5 Q 615,971 588.5,951 562,931 539.5,914.5 517,898 507,892 492,883 482,880.5 472,878 463,878 q -9,0 -21,2 -13,1 -23.5,1 -10.5,0 -10.5,-1 0,-2 13.5,-17 13.5,-15 30.5,-35 17,-20 35,-39 18,-19 35,-35 l 3,-3 q 0,-1 0,-1 l 15,-15 Q 558,718 574.5,700.5 591,683 605,668 q 14,-15 20,-21 z m 944,59 q 12,-4 21,-4 3,0 9,1 6,1 9,10 1,1 1,2 0,2 -6.5,5.5 -6.5,3.5 -17.5,6.5 -28,4 -73,51 -24,25 -32.5,41 -8.5,16 -11.5,46 -6,45 -11,45 -1,0 -3.5,-3.5 -2.5,-3.5 -2.5,-36.5 0,-12 1,-28 0,-57 -10.5,-78.5 Q 1431,742 1389,731 q -22,-5 -22,-9 0,-2 9,-5.5 9,-3.5 54,-3.5 8,0 16,0 19,1 38,1 14,0 37.5,-1 23.5,-1 47.5,-7 z m -947,19 q -6,-21 -10,-21.5 -4,-0.5 -4,-0.5 -7,0 -29,24 -11,12 -12,14.5 -1,2.5 -1,3.5 0,3 7,3 7,0 17.5,3.5 10.5,3.5 27.5,12.5 12,6 14,6 2,0 2,-1 0,-3 -3,-9 -3,-8 -5,-17.5 -2,-9.5 -4,-17.5 z m 908,9 q 0,-1 -13.5,-2 -13.5,-1 -31.5,-1 h -44 l 35,59 25,-27 q 12,-11 20.5,-19 8.5,-8 8.5,-10 z m -411,54 q -8,0 -24.5,-4.5 Q 1078,779 1060,773 l -40,-13 -5,19 q -3,9 -5,19.5 -2,10.5 -5,18.5 -2,6 -2,9 0,2 1,2 1,0 4,-2 6,-5 26,-11 20,-6 43,-12 25,-6 35,-9 10,-3 10,-4 0,-1 -3,-2 z m -459,24 q -48,-36 -72,-41.5 -24,-5.5 -35,-5.5 -13,0 -21,5 -9,6 -9,24 0,7 3,27 3,20 20,51 13,24 32.5,46 19.5,22 54.5,47 25,21 46,35.5 21,14.5 24,15.5 3,0 22.5,-10.5 Q 745,995 766,981.5 787,968 804.5,956 822,944 822,943 822,940 807.5,928 793,916 767.5,895.5 742,875 708.5,849 675,823 660,812 Z m -134,63 q 0,0 0,0 -1,-1 -1,-2 v -1 q -1,-1 -1,-2 v -1 q -1,-3 -2,-7 -2,-3 -3.5,-9 -1.5,-6 -4.5,-14 l -13,-34 -24,24 q -20,19 -20,26 0,0 0,1 2,1 13,5 11,4 23,7.5 12,3.5 20,5.5 8,2 11,2 2,0 2,-1 z m 713,47 q 3,-12 3,-17 1,-4 1,-7 0,-1 -1,-1 -2,0 -9.5,5 -7.5,5 -19.5,12 l -28,15 24,11 q 14,5 19,5 2,0 4,-1 2,-1 7,-22 z m 298,24 h -45 q -34,0 -39,2 -5,2 -5,5 0,2 4,6 7,8 13,24.5 6,16.5 11,37.5 l 10,48 11,-33 q 4,-14 11.5,-32 7.5,-18 13.5,-30 z m -592,87 q -2,-2 -17,-14 -15,-12 -36,-28 l -51,-38 -58,36 q -24,17 -41.5,28 -17.5,11 -17.5,14 0,2 14.5,14 14.5,12 32.5,25.5 18,13.5 34.5,25.5 16.5,12 20.5,13 3,0 22,-10.5 19,-10.5 40,-24.5 21,-14 39,-27 18,-13 18,-14 z m 171,-38 q -26,-6 -36.5,-7.5 -10.5,-1.5 -15.5,-1.5 -7,0 -13.5,2.5 -6.5,2.5 -11,10.5 -4.5,8 -9.5,20 -2,9 -2,13 0,4 1,4.5 1,0.5 1,0.5 4,0 21,-6 17,-6 36.5,-11 19.5,-5 35.5,-8 l 36,-6 z m -110,41 q 3,-9 3,-13 0,-5 -4,-5 -3,0 -8,3 -9,6 -9,12 0,5 5,10 3,4 6,4 1,0 2.5,-0.5 1.5,-0.5 4.5,-10.5 z m 287,6 q 12,-8 15.5,-8.5 3.5,-0.5 3.5,-0.5 5,0 8,4 1,2 1,4 0,4 -6,8.5 -6,4.5 -16,7.5 -15,4 -30,14 -15,10 -27,22 -12,12 -20.5,24 -8.5,12 -8.5,21 0,7 8.5,20.5 8.5,13.5 20.5,25.5 l 28,30 89,-4 q 32,-3 56,-3 4,0 19,0.5 15,0.5 15,5.5 0,6 -46,10.5 -46,4.5 -116,7.5 -212,6 -261,43 -17,14 -25,14 -1,0 -2,0 -1,-1 -1,-4 0,-5 2.5,-17 2.5,-12 10.5,-33 9,-29 10,-36 1,-7 1,-9 0,-10 -7,-18 -4,-5 -4,-9 0,-5 4,-9 6,-6 10,-6 5,0 8,6 6,9 22,16.5 16,7.5 35,11.5 12,5 36,10 24,5 48,9.5 24,4.5 38.5,5.5 14.5,1 19.5,1 3,0 4,0 0,0 0,-1 0,-3 -15,-14 -15,-11 -36,-25 -21,-14 -40.5,-25.5 -19.5,-11.5 -36.5,-11.5 -9,0 -9,-3 0,-7 84,-39 36,-13 65.5,-26 29.5,-13 44.5,-20 z m -86,63 q 4,-3 4,-5 0,-2 -2,-2 -2,0 -3,0 -7,0 -27,8 -20,9 -21,11.5 -1,2.5 -1,2.5 0,4 11,13 14,11 21,11 8,0 8,-12 0,-8 2,-14.5 2,-6.5 8,-12.5 z m -678,21 q 0,-3 -1,-3 -2,0 -13,2 -11,2 -28,4 l -37,4 37,48 21,-24 q 9,-10 15,-18.5 6,-8.5 6,-12.5 z m 537,67 q -14,-5 -19,-5 0,0 -2.5,0.5 -2.5,0.5 -6.5,15.5 0,3 -2.5,12 -2.5,9 -5.5,16 l -4,17 66,-17 q 51,-12 53.5,-13.5 2.5,-1.5 2.5,-2.5 0,-3 -20,-6 -14,-3 -30.5,-7 -16.5,-4 -31.5,-10 z m -490,81 q 6,-7 6,-10 0,-2 -2.5,-3.5 Q 577,1259 547,1259 h -42 l 21,30 q 17,20 19,21 2,1 3,1 3,0 8,-8 3,-6 9,-14.5 6,-8.5 11,-14.5 z"
     id="path1" />
</svg>
