<?xml version="1.0" encoding="UTF-8" standalone="no"?>
<svg
   width="2000"
   height="2000"
   version="1.1"
   id="svg1"
   sodipodi:docname="u121AA.svg"
   inkscape:version="1.3.2 (091e20e, 2023-11-25)"
   xmlns:inkscape="http://www.inkscape.org/namespaces/inkscape"
   xmlns:sodipodi="http://sodipodi.sourceforge.net/DTD/sodipodi-0.dtd"
   xmlns="http://www.w3.org/2000/svg"
   xmlns:svg="http://www.w3.org/2000/svg">
  <defs
     id="defs1" />
  <sodipodi:namedview
     id="namedview1"
     pagecolor="#505050"
     bordercolor="#eeeeee"
     borderopacity="1"
     inkscape:showpageshadow="0"
     inkscape:pageopacity="0"
     inkscape:pagecheckerboard="0"
     inkscape:deskcolor="#505050"
     inkscape:zoom="0.379"
     inkscape:cx="1000"
     inkscape:cy="998.68074"
     inkscape:window-width="1392"
     inkscape:window-height="1212"
     inkscape:window-x="0"
     inkscape:window-y="0"
     inkscape:window-maximized="0"
     inkscape:current-layer="svg1" />
  <path
     d="m 693.5,725 q 0,-40 2,-67.5 2,-27.5 4,-27.5 2,0 8,7.5 6,7.5 9,11.5 11,16 24.5,30 13.5,14 29.5,25 9,6 18.5,11 9.5,5 21,8.5 11.5,3.5 28,6 16.5,2.5 38.5,4.5 32,2 61,2.5 29,0.5 41,0.5 34,0 73.5,-1.5 39.5,-1.5 72,-4.5 32.5,-3 32.5,-6 0,-2 -5.5,-14 -5.5,-12 -13.5,-28 -8,-15 -12,-25 -4,-10 -4,-14 0,-1 1,-2 0,0 2,0 3,0 11.5,1.5 8.5,1.5 16.5,2.5 20,4 38.5,5 18.5,1 28.5,1 19,0 42,-2 16,-1 27,-1.5 11,-0.5 14,-0.5 12,0 12,2 0,1 -9,13 -9,12 -19,28 -14,21 -23,37.5 -9,16.5 -15,35.5 -6,19 -9.5,44 -3.5,25 -5,61.5 -1.5,36.5 -1.5,88.5 0,52 1,125 0,57 -0.5,105.5 -0.5,48.5 -1.5,83.5 -1,35 -2.5,54.5 -1.5,19.5 -3.5,19.5 -2,0 -4,-11 -2,-11 -2,-25 v -36 h -156 q -53,0 -85.5,0.5 -32.5,0.5 -54,2.5 -21.5,2 -37,5.5 -15.5,3.5 -41.5,12.5 -18,7 -42.5,17 -24.5,10 -43.5,19.5 -19,9.5 -31,17.5 -12,8 -15,17 -1,4 -4,4 -1,0 -2,-1 -4,-3 -4,-16 0,-2 0.5,-11 0.5,-9 3.5,-28 4,-21 6,-49.5 2,-28.5 2,-49.5 0,-16 1,-29.5 1,-13.5 2,-13.5 2,0 10.5,7.5 8.5,7.5 19.5,17.5 l 27,24 2,-112 q 0,-18 0,-34 0,-25 -1,-53 -1,-28 -5.5,-57 -4.5,-29 -12.5,-53.5 -8,-24.5 -20,-48.5 -11,-22 -13.5,-23.5 -2.5,-1.5 -3.5,-1.5 -5,0 -15,9 -11,10 -16,10 -1,0 -3,-0.5 -2,-0.5 -2,-6.5 0,-3 1,-8 4,-14 5.5,-47.5 1.5,-33.5 1.5,-69.5 z m 580,-56 q 0,-1 -18.5,-2.5 -18.5,-1.5 -67.5,-1.5 0,0 -1,0 0,0 -1,0 -1,0 -2,0 0,0 0,0 h -1 q 0,0 0,0 h -1 q -1,0 -2,0 h -8 q -1,0 -2,0 h -3 q -19,0 -19,1 0,4 4.5,15 4.5,11 10,22.5 5.5,11.5 11,20 5.5,8.5 8.5,8.5 3,0 5,5 2,5 2,12 0,9 4,27 4,18 9,36 l 12,42 6,-38 q 2,-16 11,-41.5 9,-25.5 22,-51.5 8,-18 14.5,-34 6.5,-16 6.5,-20 z m -532,29 q -9,-9 -16.5,-15 -7.5,-6 -9.5,-6 -3,0 -5,20.5 -2,20.5 -2,55.5 0,18 0.5,32 0.5,14 1.5,21 1,7 3,7.5 2,0.5 3,0.5 3,0 7,-1 4,-2 11.5,-6 7.5,-4 12.5,-9 5,-3 20,-11 15,-8 31,-16 l 40,-16 -40,-20 q -16,-7 -33,-17.5 -17,-10.5 -24,-19.5 z m 426,54 -132,-2 q -38,-1 -69,-1 -16,0 -44,0.5 -28,0.5 -44,6.5 -5,2 -27,11 -22,9 -41.5,18.5 -19.5,9.5 -33,17 -13.5,7.5 -13.5,9.5 0,2 13.5,4 13.5,2 32.5,2 20,0 34.5,2.5 14.5,2.5 14.5,9.5 0,4 -5,4 -5,0 -13.5,12.5 -8.5,12.5 -18.5,29.5 -8,15 -13,26 -5,11 -7.5,29.5 -2.5,18.5 -3,51 -0.5,32.5 -1.5,91.5 l -3,158 23,10 q 6,3 19.5,6 13.5,3 38,4.5 24.5,1.5 62.5,3 38,1.5 93,1.5 l 192,2 -5,-72 q -1,-15 -2,-32 -1,-17 -2,-33.5 -1,-16.5 -1.5,-31 -0.5,-14.5 -0.5,-23.5 v -48 l -106,4 q -46,2 -75.5,5 -29.5,3 -51.5,10 -22,7 -40.5,19.5 -18.5,12.5 -43.5,35.5 -10,10 -18.5,16.5 -8.5,6.5 -11.5,6.5 -1,0 -1,0 -2,-2 -2,-17.5 0,-15.5 1,-38.5 1,-23 2.5,-49 1.5,-26 3,-48 1.5,-22 3.5,-36.5 2,-14.5 4,-14.5 2,0 4,3.5 2,3.5 2,7.5 0,7 9.5,18.5 9.5,11.5 23.5,23.5 14,12 29,21.5 15,9.5 24,12.5 7,2 20.5,3.5 13.5,1.5 32,2.5 18.5,1 41,1.5 22.5,0.5 44.5,0.5 h 109 l -4,-65 q -1,-14 -3.5,-30.5 -2.5,-16.5 -5.5,-34 -3,-17.5 -7,-33.5 -4,-16 -7,-29 z m -368,82 q -11,0 -22.5,-1.5 -11.5,-1.5 -16.5,-2.5 -2,-1 -4,-1 -9,0 -9,14 0,13 6,17 5,3 9,15 4,12 9,28 l 9,38 10,-32 q 4,-14 11,-29.5 7,-15.5 12,-24.5 l 15,-21 z m 155,178 q -10,-3 -22,-11.5 -12,-8.5 -23,-17.5 l -27,-24 -3,60 q -1,12 -1,22 0,27 3,31.5 3,4.5 6,4.5 7,0 20,-15 6,-5 16.5,-12.5 10.5,-7.5 21.5,-11.5 20,-9 21,-12.5 1,-3.5 1,-3.5 0,-5 -13,-10 z m -188,223 q -9,-9 -16,-16.5 -7,-7.5 -9,-7.5 -3,0 -6.5,17.5 -3.5,17.5 -6,38.5 -2.5,21 -3,32 -0.5,11 -0.5,14 0,11 2,13 1,1 2,1 4,0 13.5,-4 9.5,-4 25.5,-12 16,-9 33.5,-16 17.5,-7 26.5,-9 9,-2 15,-6 6,-4 6,-6 0,-2 -7,-5.5 -7,-3.5 -17,-6.5 -10,-3 -17,-4 -7,-1 -11,-1 -3,0 -5,0 -2,0 -10,-6 -8,-6 -16,-16 z"
     id="path1" />
</svg>
