<?xml version="1.0" encoding="UTF-8" standalone="no"?>
<svg
   width="2000"
   height="2000"
   version="1.1"
   id="svg1"
   sodipodi:docname="u1210F.svg"
   inkscape:version="1.3.2 (091e20e, 2023-11-25)"
   xmlns:inkscape="http://www.inkscape.org/namespaces/inkscape"
   xmlns:sodipodi="http://sodipodi.sourceforge.net/DTD/sodipodi-0.dtd"
   xmlns="http://www.w3.org/2000/svg"
   xmlns:svg="http://www.w3.org/2000/svg">
  <defs
     id="defs1" />
  <sodipodi:namedview
     id="namedview1"
     pagecolor="#505050"
     bordercolor="#eeeeee"
     borderopacity="1"
     inkscape:showpageshadow="0"
     inkscape:pageopacity="0"
     inkscape:pagecheckerboard="0"
     inkscape:deskcolor="#505050"
     inkscape:zoom="0.379"
     inkscape:cx="1000"
     inkscape:cy="998.68074"
     inkscape:window-width="1392"
     inkscape:window-height="1212"
     inkscape:window-x="0"
     inkscape:window-y="0"
     inkscape:window-maximized="0"
     inkscape:current-layer="svg1" />
  <path
     d="m 860.5,654 q 10,-18 16,-18 5,0 10,11 6,15 24.5,28 18.5,13 45.5,25 38,19 58,27.5 20,8.5 28,8.5 2,0 5.5,-1 3.5,-1 3.5,-7 0,-3 -2,-10.5 -2,-7.5 -13,-30.5 l -17,-32 h 68 q 67,0 67,13 0,5 -8,8 -7,3 -14,15 -7,12 -13.5,26.5 -6.5,14.5 -9,23.5 -2.5,9 -2.5,12 0,3 1,4 0,1 21.5,8 21.5,7 57.5,18.5 36,11.5 84.5,26.5 48.5,15 82.5,25 75,23 122.5,38.5 47.5,15.5 83.5,27.5 36,12 56.5,20 20.5,8 20.5,9 0,3 -5.5,5 -5.5,2 -27,6 -21.5,4 -64,10.5 -42.5,6.5 -116.5,17.5 l -162,24 -61,40 q -26,17 -50.5,35.5 -24.5,18.5 -37.5,33.5 -3,3 -9.5,10 -6.5,7 -7.5,7 -1,0 -1.5,-9.5 -0.5,-9.5 -0.5,-17.5 0,-8 0.5,-22 0.5,-14 1.5,-36 1,-22 2.5,-41.5 1.5,-19.5 3.5,-33 2,-13.5 3,-14.5 0,-1 1,-1 1,0 3.5,2.5 2.5,2.5 5.5,7.5 11,20 36,22.5 25,2.5 40,2.5 34,0 86,-6 47,-7 100,-14.5 53,-7.5 97.5,-14 44.5,-6.5 74.5,-11.5 30,-5 31,-6 0,0 0,0 0,-1 -15,-7 -7,-2 -16,-5 l -6,-2 q -10,-3 -23,-8 -29,-9 -67.5,-21.5 -38.5,-12.5 -86.5,-27.5 -40,-12 -81,-24.5 -41,-12.5 -73.5,-23 -32.5,-10.5 -54.5,-18 -22,-7.5 -28,-9.5 -13,-4 -23,-4 -3,0 -10,1.5 -7,1.5 -12.5,24 -5.5,22.5 -7,70.5 -1.5,48 -1.5,132 v 186 h 166 q 79,0 123,2 44,2 44,5 0,4 -44,6 -44,2 -131,2 -45,0 -77.5,0.5 -32.5,0.5 -50.5,1.5 -18,1 -24,3.5 -6,2.5 -6,9.5 0,9 -8,9 -3,0 -6,-2 -3,-2 -3,-5 0,-7 -20.5,-7.5 -20.5,-0.5 -34.5,-0.5 -27,0 -70,1 -61,1 -95.5,3.5 -34.5,2.5 -57.5,6.5 -23,4 -37.5,10 -14.5,6 -25.5,16 -9,8 -15,8 -4,0 -7,-8 -3,-8 -3,-47 0,-9 0,-19 2,-30 4,-52.5 2,-22.5 5,-22.5 2,0 9,7 13,14 44.5,26.5 31.5,12.5 69.5,25.5 31,9 51.5,14.5 20.5,5.5 37.5,8.5 17,3 33.5,3.5 16.5,0.5 39.5,0.5 l 69,-3 5,-107 h -72 q -24,0 -39.5,0.5 -15.5,0.5 -26,3 -10.5,2.5 -18.5,6.5 -8,4 -18,11 -14,8 -24,17.5 -10,9.5 -13,17.5 -3,6 -6,6 -2,0 -3,-1 -5,-2 -7,-16.5 -2,-14.5 -3,-35.5 -1,-21 -1,-44.5 0,-23.5 0.5,-43.5 0.5,-20 2,-33.5 1.5,-13.5 5.5,-13.5 5,0 19,12 6,4 21.5,7 15.5,3 31,3.5 15.5,0.5 24.5,0.5 15,0 36,-1 21,-1 49,-4 l 40,-4 v -89 l -79,8 q -29,1 -46.5,3 -17.5,2 -29,5 -11.5,3 -20,8.5 -8.5,5.5 -20.5,14.5 -27,23 -31.5,24.5 -4.5,1.5 -5.5,1.5 -5,0 -5,-11 0,-5 -1,-8.5 -1,-3.5 -3,-3.5 -2,0 -24,15.5 -22,15.5 -53,35.5 -25,18 -40,29.5 -15,11.5 -24,20.5 -9,9 -13.5,18 -4.5,9 -9.5,22 -5,17 -10,35 -5,18 -5,31 0,15 -6,15 -1,0 -6,-1.5 -5,-1.5 -21,-28.5 -11,-21 -14,-23 -3,-2 -5,-2 -4,0 -11,7 -5,6 -14,18 -9,12 -17,23 l -18,27 67,-8 q 27,-2 43,-2 26,0 26,5 0,4 -20.5,8 -20.5,4 -49.5,6 l -72,6 v 76 h 75 q 73,0 73.5,4 0.5,4 0.5,4 0,8 -71,10 l -74,3 -3,41 q -2,40 -5.5,40.5 -3.5,0.5 -3.5,0.5 -7,0 -7,-40 0,-27 -3,-33 -3,-6 -14,-6 -11,0 -26,7 -15,7 -30,16.5 -15,9.5 -26.5,19 -11.5,9.5 -11.5,16.5 0,5 -4,5 -6,0 -10,-30.5 -4,-30.5 -8,-79.5 -2,-34 -2.5,-48.5 -0.5,-14.5 -0.5,-19.5 0,-14 2,-20.5 2,-6.5 6,-6.5 1,0 5,1 4,1 11,6 11,9 27.5,12.5 16.5,3.5 43.5,3.5 27,0 34,-3 7,-3 7,-15 0,-8 -3.5,-18 -3.5,-10 -11.5,-20 -8,-10 -8,-15 0,-2 3.5,-5 3.5,-3 35.5,-5 l 42,-3 -73,-65 q -23,-21 -38.5,-33.5 -15.5,-12.5 -26.5,-20 -11,-7.5 -19,-10 -8,-2.5 -20,-2.5 -8,0 -16,-1 -8,-1 -8,-4 0,-3 15,-17.5 15,-14.5 32,-29.5 30,-26 43,-42 13,-16 16,-34 1,-7 4.5,-18 3.5,-11 4.5,-13 1,-3 1,-5 0,-6 -3.5,-13 -3.5,-7 -11.5,-16 -9,-8 -12.5,-13.5 -3.5,-5.5 -3.5,-7.5 0,-1 1,-2 1,-1 3,-1 5,0 18.5,3 13.5,3 35.5,9 20,7 36,9.5 16,2.5 23,2.5 3,0 4,0 7,-2 22.5,-16.5 15.5,-14.5 36.5,-36.5 12,-13 25,-26 13,-13 15,-13 2,0 2,9 0,9 -4,20 -1,7 -1,12 0,3 0.5,7.5 0.5,4.5 8,15 7.5,10.5 23,26.5 15.5,16 30.5,32 76,78 91,78 3,0 4,-3 1,-5 7,-5 6,0 20,11 14,9 34.5,10 20.5,1 31.5,1 32,0 84,-4 l 60,-6 v -45 q 0,-18 -2,-33.5 -2,-15.5 -4,-18.5 -2,-4 -18.5,-6.5 -16.5,-2.5 -41,-4.5 -24.5,-2 -53.5,-3.5 -29,-1.5 -56,-1.5 -27,0 -48.5,1 -21.5,1 -35.5,5 -10,3 -16.5,3.5 -6.5,0.5 -9.5,0.5 -5,0 -6,-1 0,0 0,-1 0,-3 10.5,-16.5 10.5,-13.5 32.5,-35.5 16,-17 31.5,-35 15.5,-18 18.5,-25 z m 108,73 q -19,-9 -39.5,-20 -20.5,-11 -30.5,-19 l -26,-18 -28,33 -30,33 72,6 q 30,2 59.5,3.5 29.5,1.5 40.5,1.5 20,-2 20,-4 0,0 -1.5,-1 -1.5,-1 -36.5,-15 z m 153,-52 h -36 q -23,0 -27,1.5 -4,1.5 -4,5.5 0,4 2,9 1,4 4,14 3,10 4,19 4,22 13,22 1,0 7,-2.5 6,-2.5 21,-32.5 z m -463,64 q -6,-10 -9,-17 -3,-7 -5,-7 -4,3 -8,7 -4,3 -9,7.5 -5,4.5 -10,9.5 l -25,23 h 78 z m 424,30 q 0,-7 -3,-7 -4,0 -9,9 0,2 0,3 0,4 5,4 7,0 7,-9 z m -558,2 q -18,-9 -26,-9 -6,0 -6,5 0,3 2,7 2,6 5,8 3,2 6,2 3,0 8,-2 2,-1 8,-2.5 6,-1.5 9,-1.5 4,0 4,-1 0,-1 -1.5,-2.5 -1.5,-1.5 -8.5,-3.5 z m 167,7 -44,2 q -17,0 -41.5,3 -24.5,3 -48,7.5 -23.5,4.5 -41,9 -17.5,4.5 -20.5,8.5 -4,4 -11,24.5 -7,20.5 -13.5,44 -6.5,23.5 -10,43 -3.5,19.5 -3.5,27.5 0,2 0,4 2,10 16.5,28 14.5,18 55.5,53 15,12 27.5,22 12.5,10 13.5,10 1,0 1,0 0,0 -1,-1 -12,-12 -12,-20 0,-1 0.5,-4 0.5,-3 5.5,-3 4,0 10,3 9,5 17,5 2,0 7.5,-1 5.5,-1 21.5,-8 22,-10 49.5,-27.5 27.5,-17.5 52,-35 24.5,-17.5 36.5,-28 12,-10.5 12,-13.5 0,-3 -7,-3 -9,0 -38,3.5 -29,3.5 -58.5,8 -29.5,4.5 -53.5,9.5 -24,5 -33,9 -7,4 -15,12 -8,8 -12,22 -4,11 -7,11 -3,0 -7,-14.5 -4,-14.5 -4,-79.5 0,-39 2,-59 2,-20 6,-20 0,0 1,0 2,1 4,6 2,5 2,8 0,5 11,18.5 11,13.5 28,28.5 l 38,36 82,-8 q 35,-3 62.5,-6 27.5,-3 32.5,-4 2,-1 2,-3 0,-12 -53,-65 z m -113,126 q 0,0 0,0 l -3,-3 q -1,-1 -1,-1 l -3,-3 q 0,0 0,0 l -3,-3 q 0,0 0,0 l -3,-3 q 0,0 0,0 l -2,-2 q 0,0 0,-1 -7,-6 -9,-6 -1,0 -2,10 -1,10 -1,26 v 36 l 50,-27 z m 286,-9 q -4,-5 -11,-5 -2,0 -7,1 -5,1 -5,7 0,2 1,4 3,7 8,7 3,0 7,-2 6,-1 7,-3.5 1,-2.5 1,-4.5 0,-2 -1,-4 z m -424,31 q 0,-19 -3,-19.5 -3,-0.5 -4,-0.5 -6,0 -20,15 -5,7 -6,10 -1,3 -1,3 0,3 4,3 6,0 15,4 5,2 9,2 2,0 4,-2.5 2,-2.5 2,-14.5 z m 738,71 q -17,-2 -31.5,-4.5 -14.5,-2.5 -19.5,-4.5 -2,-1 -3,-1 -5,0 -7.5,7.5 -2.5,7.5 -4.5,32.5 0,18 -0.5,27 -0.5,9 -0.5,12 0,6 1,6 l 54,-36 53,-33 z m -118,-4 -26,1 q -11,0 -33.5,1 -22.5,1 -30.5,2 -30,1 -41,3 -11,2 -19.5,5 -8.5,3 -16.5,8 -8,5 -18,13 -18,14 -21,19 -3,5 -3,8 0,3 2,6 3,4 9.5,6.5 6.5,2.5 18.5,3.5 12,1 31,1 19,0 47,-1 l 96,-1 z m -194,6 q -8,-5 -13,-5 -8,0 -8,16 0,9 1.5,9.5 1.5,0.5 2.5,0.5 3,0 10,-4 12,-7 12,-12 0,-3 -5,-5 z m -232,81 q 8,-20 8,-26 0,-2 -1,-3 -1,-1 -2,-1 -6,0 -25,9 l -22,9 13,22 15,21 z m 231,4 q -12,-4 -16,-4 -1,0 -2.5,1 -1.5,1 -1.5,11 0,17 4,18 4,1 5,1 6,0 14,-10 5,-6 5,-9 0,-1 -0.5,-2.5 -0.5,-1.5 -7.5,-5.5 z m -321,27 q 0,-3 -5,-5 -5,-2 -11,-2 -13,0 -13,9 0,4 2,8 3,7 3,14 0,4 2,4 1,0 3.5,-1.5 2.5,-1.5 7,-6.5 4.5,-5 8,-11 3.5,-6 3.5,-9 z m 169,39 q -1,0 -2,12.5 -1,12.5 -1,28.5 0,27 2,32 2,5 7,5 3,0 6,-1 13,-6 41,-13 28,-7 60,-13 l 31,-4 z m -294,30 q -13,-5 -21,-5 -3,0 -8,2 -5,2 -5,20 0,11 1.5,11.5 1.5,0.5 2.5,0.5 4,0 19,-9 15,-8 16.5,-10 1.5,-2 1.5,-3 0,-3 -7,-7 z m 86,47 q 0,-17 -0.5,-25.5 -0.5,-8.5 -3,-13 -2.5,-4.5 -7,-5 -4.5,-0.5 -8.5,-0.5 -13,0 -30.5,8 -17.5,8 -33.5,21 -26,18 -29,23 -3,5 -3,7 0,4 4,8 6,6 23.5,10.5 17.5,4.5 37.5,6.5 l 50,5 z m -72,57 q 0,-2 -6,-4 -6,-2 -14,-4 -5,-1 -9,-1 -5,0 -7.5,2 -2.5,2 -2.5,14 0,7 1,12.5 1,5.5 5,5.5 3,0 8.5,-3.5 5.5,-3.5 11,-7.5 5.5,-4 9.5,-8.5 4,-4.5 4,-5.5 z"
     id="path1" />
</svg>
