<?xml version="1.0" encoding="UTF-8" standalone="no"?>
<svg
   width="2000"
   height="2000"
   version="1.1"
   id="svg1"
   sodipodi:docname="u121B0.svg"
   inkscape:version="1.3.2 (091e20e, 2023-11-25)"
   xmlns:inkscape="http://www.inkscape.org/namespaces/inkscape"
   xmlns:sodipodi="http://sodipodi.sourceforge.net/DTD/sodipodi-0.dtd"
   xmlns="http://www.w3.org/2000/svg"
   xmlns:svg="http://www.w3.org/2000/svg">
  <defs
     id="defs1" />
  <sodipodi:namedview
     id="namedview1"
     pagecolor="#505050"
     bordercolor="#eeeeee"
     borderopacity="1"
     inkscape:showpageshadow="0"
     inkscape:pageopacity="0"
     inkscape:pagecheckerboard="0"
     inkscape:deskcolor="#505050"
     inkscape:zoom="0.379"
     inkscape:cx="1000"
     inkscape:cy="998.68074"
     inkscape:window-width="1392"
     inkscape:window-height="1212"
     inkscape:window-x="0"
     inkscape:window-y="0"
     inkscape:window-maximized="0"
     inkscape:current-layer="svg1" />
  <path
     d="m 975,766 q 0,-6 8,-6 9,0 9,9 0,3 -2,12.5 -2,9.5 -22,33.5 -22,26 -45.5,64.5 -23.5,38.5 -39.5,73 -16,34.5 -19,50 -3,15.5 -3,20.5 0,12 8,12 5,0 5,4 0,3 -2,7 -4,7 -4,14 0,7 5.5,16.5 5.5,9.5 30.5,35.5 20,21 35.5,40.5 15.5,19.5 26,35.5 10.5,16 13,22.5 2.5,6.5 2.5,8.5 0,2 -2,2 0,0 -1,0 -5,-2 -18,-16.5 -13,-14.5 -26,-30.5 -46,-59 -94.5,-94 -48.5,-35 -100.5,-41 -8,-1 -30.5,-4.5 -22.5,-3.5 -35.5,-4.5 -5,-1 -10,-1 -26,0 -61.5,22.5 -35.5,22.5 -84.5,74.5 -16,17 -28,28 -12,11 -15,11 -1,0 -1,0 -1,-1 -1,-6 0,-3 1,-13.5 1,-10.5 4,-25.5 3,-12 5,-28 2,-16 4,-35 2,-19 3.5,-40 1.5,-21 2.5,-36 3,-42 6.5,-69.5 3.5,-27.5 7.5,-27.5 2,0 7,9 5,9 8,18 6,18 17.5,36 11.5,18 26.5,34 8,8 15,14 7,6 16.5,9 9.5,3 24.5,3.5 15,0.5 41,0.5 h 71 l 96,-86 Q 904,855 939.5,817 975,779 975,766 Z m 467,50 q 2,-4 7.5,-8 5.5,-4 12.5,-4 7,0 7,3.5 0,3.5 -16,28.5 -6,9 -18.5,29.5 -12.5,20.5 -22,37 -9.5,16.5 -15.5,28 -6,11.5 -6,15.5 -1,6 -1,12 0,17 12.5,38 12.5,21 48.5,48 13,10 30,24.5 17,14.5 28,26.5 11,12 15,18.5 4,6.5 4,9.5 0,3 -2,4 -1,0 -2,0 -3,0 -11.5,-5.5 -8.5,-5.5 -17.5,-15.5 -11,-11 -29,-25.5 -18,-14.5 -38.5,-29.5 -20.5,-15 -41.5,-28.5 -21,-13.5 -36,-22.5 -12,-6 -15,-6 -1,0 -1.5,0.5 -0.5,0.5 -0.5,1.5 0,3 2,8 1,3 1,5 0,8 -11,8 -20,0 -35,28 -10,19 -10,35 0,4 2,15 2,11 16,11 5,0 7,2.5 2,2.5 2,5.5 0,1 0,2 0,1 0,3 0,5 5,11.5 5,6.5 20,15.5 14,8 35,23.5 21,15.5 38,29.5 17,14 26,24.5 9,10.5 9,14.5 0,0 0,1 -1,1 -2,1 -4,0 -17,-7.5 -13,-7.5 -40,-29.5 -99,-80 -192,-111 l -56,-20 33,-10 q 14,-5 32,-13 18,-8 29,-15 l 27,-17 h -98 q -37,0 -64.5,2 -27.5,2 -50.5,7 -23,5 -45,13.5 -22,8.5 -46,20.5 -34,17 -43,17 -1,0 -3,-1 -2,-1 -2,-11 0,-9 2,-24 3,-15 5.5,-38.5 2.5,-23.5 3.5,-41.5 0,-29 4.5,-36 4.5,-7 6.5,-7 3,0 6,8 5,11 18,21.5 13,10.5 29,20.5 15,9 26.5,13.5 11.5,4.5 28.5,7.5 17,3 43.5,4.5 26.5,1.5 61.5,3.5 36,1 54.5,1.5 18.5,0.5 29.5,0.5 11,0 25.5,-0.5 14.5,-0.5 27.5,-1.5 13,-1 20,-4 4,-2 4,-4 0,-1 -2.5,-2.5 Q 1293,985 1272,982 l -36,-5 28,-15 q 14,-8 42.5,-29 28.5,-21 58,-45 29.5,-24 52.5,-44.5 23,-20.5 25,-27.5 z m -57,101 q 5,-11 9,-21 4,-10 4,-11 0,0 0,0 0,0 0,0 -3,1 -18,12.5 -15,11.5 -31.5,26 -16.5,14.5 -30,27 -13.5,12.5 -13.5,14.5 -1,1 -1,2 0,2 3.5,4 3.5,2 10.5,2 7,0 18,2 11,2 20,5 7,2 11,2 3,0 4.5,-1 1.5,-1 1.5,-5 0,-2 -1,-5 -1,-2 -1,-7 0,-5 2.5,-16.5 Q 1376,936 1385,917 Z m -511,9 q 8,-12 13,-21 5,-9 5,-11 0,-1 -1,-1 0,0 -6.5,5 -6.5,5 -16.5,14 -10,9 -23,20.5 -13,11.5 -28,24.5 l -72,65 41,6 q 17,2 27.5,2.5 10.5,0.5 14.5,0.5 5,0 6,0 2,-2 5,-12 3,-10 5,-20 2,-15 10,-34.5 8,-19.5 20,-38.5 z m -297,88 Q 566,1009 553.5,996 541,983 533,972 l -18,-28 -6,61 q -2,26 -5,51.5 -3,25.5 -5,36.5 l -5,26 29,-27 q 13,-11 29,-24.5 16,-13.5 26,-21.5 l 25,-19 z m 373,-44 q -4,-6 -7,-6 -10,0 -17,53 -1,6 -2,15.5 -1,9.5 -1,12.5 0,3 0,3 0,0 1,0 3,0 16.5,-5 13.5,-5 33.5,-13 l 49,-20 -32,-13 q -14,-5 -25,-12 -11,-7 -16,-15 z m 315,93 q 5,-14 6.5,-21.5 1.5,-7.5 1.5,-9.5 0,-1 0,-1 0,0 0,0 -2,0 -13,5.5 -11,5.5 -27,14.5 l -39,22 30,10 q 11,4 15,5 4,1 6,1 4,0 7,-2 3,-2 6,-8 3,-6 7,-16 z"
     id="path1" />
</svg>
