<?xml version="1.0" encoding="UTF-8" standalone="no"?>
<svg
   width="2000"
   height="2000"
   version="1.1"
   id="svg1"
   sodipodi:docname="u121F3.svg"
   inkscape:version="1.3.2 (091e20e, 2023-11-25)"
   xmlns:inkscape="http://www.inkscape.org/namespaces/inkscape"
   xmlns:sodipodi="http://sodipodi.sourceforge.net/DTD/sodipodi-0.dtd"
   xmlns="http://www.w3.org/2000/svg"
   xmlns:svg="http://www.w3.org/2000/svg">
  <defs
     id="defs1" />
  <sodipodi:namedview
     id="namedview1"
     pagecolor="#505050"
     bordercolor="#eeeeee"
     borderopacity="1"
     inkscape:showpageshadow="0"
     inkscape:pageopacity="0"
     inkscape:pagecheckerboard="0"
     inkscape:deskcolor="#505050"
     inkscape:zoom="0.379"
     inkscape:cx="1000"
     inkscape:cy="998.68074"
     inkscape:window-width="1392"
     inkscape:window-height="1212"
     inkscape:window-x="0"
     inkscape:window-y="0"
     inkscape:window-maximized="0"
     inkscape:current-layer="svg1" />
  <path
     d="m 786.5,707.5 q -2,-31 -2.5,-45 -0.5,-14 -0.5,-18 0,-5 0,-5 2,0 12,4.5 10,4.5 24,10.5 96,46 231,46 22,0 60.5,1 38.5,1 69.5,3 31,2 49.5,5 18.5,3 18.5,5 0,0 0,0 -1,3 -23.5,3.5 -22.5,0.5 -34.5,0.5 -25,0 -52,-1 -28,-1 -54.5,-1 -26.5,0 -52,0.5 -25.5,0.5 -48,1.5 -22.5,1 -39.5,2 -23,2 -38.5,4.5 -15.5,2.5 -27.5,5.5 -12,3 -22.5,8 -10.5,5 -22.5,13 -8,5 -15.5,9.5 -7.5,4.5 -13.5,7.5 -2,1 -5,2 v 1 q -4,1 -7,3 -1,-2 -2.5,-21.5 -1.5,-19.5 -3.5,-45.5 z m 44,-32 q -6,-6 -13,-6 -8,0 -10.5,8 -2.5,8 -2.5,29 0,29 3.5,33.5 3.5,4.5 5.5,4.5 3,0 7,-4 6,-6 20.5,-12.5 14.5,-6.5 31.5,-12.5 l 42,-13 -41,-9 q -16,-5 -29,-10 -13,-5 -14,-8 z m -213,77 q -7,-17 -7,-21 0,-1 1,-2 1,-1 7.5,-2 6.5,-1 20,-1 13.5,0 42.5,1 23,2 44.5,3.5 21.5,1.5 23.5,2.5 0,0 0,0 0,2 -6,16.5 -6,14.5 -12,26.5 -16,36 -24,65.5 -8,29.5 -12,71 -4,41.5 -4,101 0,59.5 2,151.5 2,90 2,142.5 0,52.5 -3,52.5 -2,0 -4,-14.5 -2,-14.5 -4,-41 -2,-26.5 -3.5,-63 -1.5,-36.5 -2.5,-81.5 -2,-86 -5.5,-145 -3.5,-59 -10.5,-104.5 -7,-45.5 -19,-85.5 -12,-40 -26,-73 z m 111,-7 h -48 q -1,0 -1,0 h -2 q 0,0 -1,0 h -3 q -1,0 -1,0 h -1 q -1,0 -1,0 h -3 q -1,0 -1,0 h -1 q -1,0 -1,0 h -13 q -10,0 -11,4.5 -1,4.5 -1,7.5 0,8 5,25 5,17 16,56 l 17,59 12,-47 q 5,-20 13,-42.5 8,-22.5 14,-35.5 z m 288,185 q -7,8 -13.5,13 -6.5,5 -13,9 -6.5,4 -10,5.5 -3.5,1.5 -5.5,1.5 -1,0 -2,-1 0,-45 -1,-84 -1,-39 -4,-60 -1,-10 -1,-20.5 0,-10.5 2,-10.5 1,0 11.5,6.5 10.5,6.5 24.5,14.5 28,19 50,30.5 22,11.5 48,18 26,6.5 61.5,9 35.5,2.5 85.5,3.5 33,1 57.5,2 24.5,1 43,2 18.5,1 29,2.5 10.5,1.5 10.5,2.5 0,4 -41,6 -41,2 -107,2 -58,0 -96,1.5 -38,1.5 -62,6.5 -24,5 -38.5,15 -14.5,10 -28.5,25 z m 27,-87 q -22,-11 -38.5,-19 -16.5,-8 -18.5,-10 -2,0 -2,14 0,14 0.5,32.5 0.5,18.5 2.5,35.5 2,17 3,22 1,5 5,5 1,0 4.5,-1.5 3.5,-1.5 14.5,-11.5 11,-10 25.5,-19 14.5,-9 27.5,-14 l 28,-9 z m -239,58 q 0,-1 21,-2.5 21,-1.5 47,-1.5 33,0 54.5,2.5 21.5,2.5 21.5,5.5 0,1 -4,6 -4,5 -7,8 -7,7 -15.5,20.5 -8.5,13.5 -15.5,29.5 -7,14 -10.5,25.5 -3.5,11.5 -5.5,31.5 -2,20 -2.5,55 -0.5,35 -0.5,83 0,178 -8,178 0,0 0,0 -3,-2 -5,-37 -2,-35 -2,-89 0,-54 -2,-89.5 -2,-35.5 -7,-64.5 -5,-29 -13.5,-54.5 -8.5,-25.5 -21.5,-53.5 -6,-14 -10.5,-22.5 -4.5,-8.5 -10.5,-22.5 0,-1 -3,-8 z m 114,12 h -91 l 12,24 q 5,11 12,26.5 7,15.5 10,27.5 l 9,32 6,-24 q 2,-9 9,-24.5 7,-15.5 14,-29.5 z"
     id="path1" />
</svg>
