<?xml version="1.0" encoding="UTF-8" standalone="no"?>
<svg
   width="2000"
   height="2000"
   version="1.1"
   id="svg1"
   sodipodi:docname="u12137.svg"
   inkscape:version="1.3.2 (091e20e, 2023-11-25)"
   xmlns:inkscape="http://www.inkscape.org/namespaces/inkscape"
   xmlns:sodipodi="http://sodipodi.sourceforge.net/DTD/sodipodi-0.dtd"
   xmlns="http://www.w3.org/2000/svg"
   xmlns:svg="http://www.w3.org/2000/svg">
  <defs
     id="defs1" />
  <sodipodi:namedview
     id="namedview1"
     pagecolor="#505050"
     bordercolor="#eeeeee"
     borderopacity="1"
     inkscape:showpageshadow="0"
     inkscape:pageopacity="0"
     inkscape:pagecheckerboard="0"
     inkscape:deskcolor="#505050"
     inkscape:zoom="0.379"
     inkscape:cx="1000"
     inkscape:cy="998.68074"
     inkscape:window-width="1392"
     inkscape:window-height="1212"
     inkscape:window-x="0"
     inkscape:window-y="0"
     inkscape:window-maximized="0"
     inkscape:current-layer="svg1" />
  <path
     d="m 635,644.5 q 0,-3 15,-4 15,-1 37.5,-1 22.5,0 49,0.5 26.5,0.5 49.5,1.5 23,1 39.5,2.5 16.5,1.5 18.5,3.5 0,0 0,1 0,2 -6.5,13.5 -6.5,11.5 -19.5,26.5 -17,24 -29,46 -12,22 -19,46 -7,24 -10,53 -3,29 -3,66 v 93 l 91,8 q 19,1 51,2 32,1 71,2 39,1 82.5,1.5 43.5,0.5 83.5,0.5 h 195 v -44 q 0,-19 -8,-52.5 -8,-33.5 -20,-71 -12,-37.5 -27,-74 -15,-36.5 -29,-61.5 -10,-20 -17.5,-34 -7.5,-14 -7.5,-17 0,-1 17.5,-1.5 17.5,-0.5 43.5,-0.5 26,0 56.5,1 30.5,1 57.5,2 27,1 45.5,2 18.5,1 19.5,3 0,0 0,1 0,3 -6.5,11 -6.5,8 -13.5,15 -17,18 -32.5,41.5 -15.5,23.5 -26.5,45.5 -5,12 -9,23 -4,11 -6.5,25.5 -2.5,14.5 -4,34.5 -1.5,20 -2,51.5 -0.5,31.5 -0.5,76.5 v 20 q 0,2 0,3 v 3 q 0,2 0,3 v 4 q 0,1 0,3 v 3 q 0,1 0,3 v 3 q 0,2 0,4 v 59 q 0,56 -0.5,105 -0.5,49 -2,85.5 -1.5,36.5 -3,57.5 -1.5,21 -4.5,21 -2,0 -5,-5 -3,-5 -3,-13 0,-15 -9,-15 -1,0 -9,-5 -8,-5 -20,-14 -12,-9 -27,-21 -15,-12 -23,-19 -34,-27 -51.5,-40 -17.5,-13 -32.5,-20.5 -15,-7.5 -29.5,-11.5 -14.5,-4 -33.5,-6 -16,-1 -35,-1 -10,0 -30.5,0.5 -20.5,0.5 -39.5,3.5 -20,5 -35.5,5 -15.5,0 -17.5,-3 0,0 0,-1 0,-4 15.5,-19 15.5,-15 39.5,-34 24,-20 49.5,-43 25.5,-23 39.5,-37 l 32,-33 H 991 q -28,0 -56.5,1 -28.5,1 -54,2.5 -25.5,1.5 -45,4 -19.5,2.5 -30.5,4.5 l -48,12 v 143 q 0,66 -3,105 -3,39 -8,39 -5,0 -8.5,-35.5 -3.5,-35.5 -3.5,-98.5 0,-54 -2.5,-94 -2.5,-40 -7.5,-44 -1,0 -3,0 -7,0 -32,7.5 -25,7.5 -63,22.5 -31,13 -54.5,20 -23.5,7 -30.5,7 -1,0 -2,0 -1,-1 -1,-4 0,-3 1,-8.5 1,-5.5 5,-11.5 7,-13 10,-45.5 3,-32.5 3,-69.5 v -90 l 48,31 q 18,12 36.5,23 18.5,11 34.5,19 16,8 28.5,12.5 12.5,4.5 18.5,4.5 6,0 8.5,-6 2.5,-6 2.5,-15 0,-14 -7.5,-46.5 Q 719,885.5 708,846.5 697,807.5 684.5,770 672,732.5 657,697.5 q -6,-12 -14,-31.5 -8,-19.5 -8,-21.5 z m 165,24 q 0,-2 -18.5,-3 -18.5,-1 -42.5,-1 -33,0 -50.5,2 -17.5,2 -17.5,6 0,0 0,1 1,3 9.5,25.5 8.5,22.5 14.5,37.5 24,61 33,68.5 9,7.5 12,7.5 6,0 6,-16 0,-16 8,-36.5 8,-20.5 23,-47.5 7,-12 15,-27 8,-15 8,-17 z m 609,14 q 0,-4 -20.5,-6 -20.5,-2 -48.5,-2 -33,0 -54,3 -21,3 -21,9 0,4 6.5,17.5 6.5,13.5 13.5,26.5 9,17 17.5,38 8.5,21 12.5,35 8,36 15,36 1,0 5.5,-1.5 4.5,-1.5 18.5,-44.5 5,-20 15.5,-42 10.5,-22 18.5,-35 9,-11 15,-21.5 6,-10.5 6,-12.5 z m -747,303 q -32,-14 -54,-23.5 -22,-9.5 -24,-9.5 -1,0 -2.5,18.5 -1.5,18.5 -1.5,45.5 0,38 2.5,51 2.5,13 14.5,13 5,0 11,-2 10,-3 34.5,-11.5 24.5,-8.5 44.5,-16.5 20,-8 33.5,-14 13.5,-6 13.5,-9 0,-4 -21.5,-16 -21.5,-12 -50.5,-26 z m 112,40 q 2,-2 2,-3 0,-1 -3,-2.5 -3,-1.5 -12,-1.5 -9,0 -10,1.5 -1,1.5 -1,1.5 0,2 6,4 6,2 11,2 4,0 7,-2 z m 554,3 h -81 q -29,0 -46,0.5 -17,0.5 -26,3.5 -9,3 -13,9 -4,6 -9,20 -10,27 -10,49 0,13 4,25 5,14 18.5,27 13.5,13 32,29.5 18.5,16.5 40.5,34.5 22,18 41,33 19,15 33.5,25 14.5,10 19.5,10 10,0 10.5,-24 0.5,-24 0.5,-30 0,-43 -7,-126 z m -201,92 q 0,-20 -2,-33.5 -2,-13.5 -4,-13.5 -3,0 -18.5,13 -15.5,13 -33.5,29 -18,16 -32.5,30.5 -14.5,14.5 -14.5,16.5 0,2 15.5,3 15.5,1 37.5,3 l 52,1 z"
     id="path1" />
</svg>
