<?xml version="1.0" encoding="UTF-8" standalone="no"?>
<svg
   width="2000"
   height="2000"
   version="1.1"
   id="svg1"
   sodipodi:docname="u121F7.svg"
   inkscape:version="1.3.2 (091e20e, 2023-11-25)"
   xmlns:inkscape="http://www.inkscape.org/namespaces/inkscape"
   xmlns:sodipodi="http://sodipodi.sourceforge.net/DTD/sodipodi-0.dtd"
   xmlns="http://www.w3.org/2000/svg"
   xmlns:svg="http://www.w3.org/2000/svg">
  <defs
     id="defs1" />
  <sodipodi:namedview
     id="namedview1"
     pagecolor="#505050"
     bordercolor="#eeeeee"
     borderopacity="1"
     inkscape:showpageshadow="0"
     inkscape:pageopacity="0"
     inkscape:pagecheckerboard="0"
     inkscape:deskcolor="#505050"
     inkscape:zoom="0.379"
     inkscape:cx="1000"
     inkscape:cy="998.68074"
     inkscape:window-width="1392"
     inkscape:window-height="1212"
     inkscape:window-x="0"
     inkscape:window-y="0"
     inkscape:window-maximized="0"
     inkscape:current-layer="svg1" />
  <path
     d="m 1333.5,639 q 1,0 2,0 10,0 13,30 5,27 25,62.5 20,35.5 51,71.5 31,36 70,70.5 39,34.5 81,59.5 l 60,39 -6,-42 q -5,-27 -17.5,-67.5 -12.5,-40.5 -28.5,-78.5 -16,-38 -31.5,-66.5 -15.5,-28.5 -29.5,-37.5 -5,-3 -5,-6 0,-4 13.5,-6 13.5,-2 42.5,-2 30,0 77,2 34,1 69.5,2.5 35.5,1.5 36.5,3.5 -4,4 -9,10 -4,5 -9.5,11.5 -5.5,6.5 -14.5,17.5 -36,37 -51.5,80 -15.5,43 -20.5,124 0,15 0,26 0,18 1,32 1,14 13,14 4,0 4,2 0,1 -3,4 -10,10 -12.5,48.5 -2.5,38.5 -2.5,114.5 0,147 -4,150 -4,3 -5,3 -7,0 -10,-139 l -3,-138 -107,67 q -114,72 -174.5,133.5 -60.5,61.5 -60.5,111.5 0,15 -6,15 -1,0 -6,-2.5 -5,-2.5 -17,-41.5 -13,-45 -35,-81 -22,-36 -46,-49 -16,-8 -30.5,-9.5 -14.5,-1.5 -26.5,-1.5 -16,0 -39,2 -66,3 -105.5,15 -39.5,12 -47.5,27 -1,1 -1,3 0,3 4.5,11 4.5,8 16.5,17 12,11 17.5,18.5 5.5,7.5 5.5,11.5 0,2 -1,3 -1,1 -4,1 -3,0 -9,-2.5 -6,-2.5 -18,-14.5 -41,-39 -149,-92 -30,-16 -50,-21.5 -20,-5.5 -30,-5.5 -3,0 -6.5,0.5 -3.5,0.5 -3.5,4.5 0,3 4,9 4,6 38,27 39,24 72,50 33,26 33,33 0,1 0,1 -1,1 -2,1 -5,0 -21,-8 -16,-8 -40,-25 -22,-15 -49,-31.5 -27,-16.5 -52.5,-30.5 -25.5,-14 -46.5,-24 -21,-10 -38,-13 -9,-2 -14,-2 -9,0 -9,6 0,3 8.5,16 8.5,13 61.5,48 31,21 52,38 21,17 21,23 0,2 -2,2 -4,0 -16.5,-6 -12.5,-6 -38.5,-24 -27,-20 -57.5,-38 -30.5,-18 -60,-33 -29.5,-15 -55,-24.5 -25.5,-9.5 -41.5,-11.5 -15,-3 -20.5,-3 -5.5,0 -5.5,1 0,1 2,2 4,2 7,7 3,5 3,8 0,6 11.5,16 11.5,10 33.5,23 42,26 72,49.5 30,23.5 30,31.5 0,1 0,2 -1,1 -3,1 -4,0 -17,-6.5 -13,-6.5 -34,-23.5 -25,-19 -56,-38 -31,-19 -62.5,-34 -31.5,-15 -59,-24.5 -27.5,-9.5 -48.5,-12.5 l -48,-6 43,-24 q 18,-9 40,-22.5 22,-13.5 43.5,-28.5 21.5,-15 39.5,-29.5 18,-14.5 27,-24.5 9,-9 9,-16 0,-2 -2,-6 -2,-4 -28,-22 -79,-57 -145,-57 h -36 l 48,-33 q 46,-30 92.5,-67.5 46.5,-37.5 82.5,-73.5 21,-19 33.5,-28 12.5,-9 17.5,-9 2,0 3,1 1,1 1,3 0,1 -0.5,3.5 -0.5,2.5 -8,14 -7.5,11.5 -23,31.5 -15.5,20 -29.5,37 -48,63 -55,78 -7,15 -7,20 0,5 5,5 8,0 32,-16.5 24,-16.5 54.5,-39.5 30.5,-23 63,-50 32.5,-27 54.5,-47 20,-18 31.5,-27 11.5,-9 15.5,-9 1,0 1,2 0,4 -12,22 -12,18 -28,38 -17,21 -31,40.5 -14,19.5 -24,35 -10,15.5 -13.5,22.5 -3.5,7 -3.5,10 0,1 1,1 3,0 25.5,-17 22.5,-17 51,-39.5 28.5,-22.5 57,-46 28.5,-23.5 45.5,-38.5 24,-24 33,-24 1,0 2,0.5 1,0.5 1,2.5 0,9 -27,42 -11,14 -27.5,35.5 -16.5,21.5 -29,40.5 -12.5,19 -21,31.5 -8.5,12.5 -8.5,15.5 0,1 2,1 6,0 24,-8 16,-11 48.5,-36.5 32.5,-25.5 65.5,-53 33,-27.5 58.5,-49.5 25.5,-22 26.5,-31 2,-4 6,-4 3,0 9,3 3,1 3,4 0,9 -21,35 -60,67 -78.5,103 -18.5,36 -18.5,48 0,12 12,12 5,0 5,2 0,2 -5,6 -9,5 -9,10 0,2 2,5.5 2,3.5 26,23.5 30,24 52.5,46.5 22.5,22.5 22.5,34.5 0,5 -4,5 -2,0 -5,-1 -2,-1 -5,-1 -8,0 -18,11 -10,11 -25,38 -18,35 -18,55 0,2 1,12.5 1,10.5 17,10.5 10,0 10,6 0,1 -1,3 -1,2 -1,4 0,6 9.5,14.5 9.5,8.5 26.5,19.5 l 40,24 5,-24 q 4,-21 5,-42 1,-21 1,-30 0,-17 -2,-26 -2,-5 -2,-11 0,-4 2,-11.5 2,-7.5 9,-7.5 9,0 9,9 0,17 32.5,36.5 32.5,19.5 69.5,29.5 18,6 40,10 22,4 38,5 16,1 26,1 7,0 17,-0.5 10,-0.5 13,-3.5 1,0 3,0 4,0 14,1.5 10,1.5 23,6.5 18,7 30.5,8 12.5,1 20.5,1 11,0 27.5,-1.5 16.5,-1.5 42,-8.5 25.5,-7 49.5,-16 36,-12 77,-32 41,-20 81,-43.5 40,-23.5 69,-43 29,-19.5 29,-25.5 0,-4 -28.5,-24.5 -28.5,-20.5 -66.5,-45 -38,-24.5 -78,-48.5 -40,-24 -65,-36 -18,-8 -40.5,-14.5 -22.5,-6.5 -40,-10 -17.5,-3.5 -28.5,-3.5 -3,0 -10,0.5 -7,0.5 -7,4.5 0,6 -36,9 -36,3 -99,6 -104,3 -146.5,12 -42.5,9 -50.5,32 -1,4 -3,6 -2,2 -4,2 -1,0 -3,-2 -3,-3 -3,-15 0,-2 0.5,-11.5 0.5,-9.5 3.5,-27.5 6,-28 6,-47 0,-18 -6,-27 -4,-6 -4,-13 0,-3 2,-10.5 2,-7.5 13,-7.5 10,0 10,10 0,12 19,23.5 19,11.5 48,22.5 29,11 65,19.5 36,8.5 72,11.5 l 68,4 36,-43 q 37,-47 51.5,-71 14.5,-24 14.5,-43 0,-8 3,-15.5 3,-7.5 7,-10.5 z m 383,48 h -77 q -31,0 -53.5,2.5 -22.5,2.5 -22.5,5.5 0,3 6,16.5 6,13.5 12,25.5 12,21 21.5,42.5 9.5,21.5 14.5,38.5 7,27 12.5,29.5 5.5,2.5 6.5,2.5 6,0 6,-13 0,-13 6,-29 6,-16 15,-34.5 9,-18.5 19,-37.5 10,-19 19,-29 z m -363,48 q -6,-13 -10.5,-22 -4.5,-9 -6.5,-9 -1,0 -11,12.5 -10,12.5 -21,29 -11,16.5 -21.5,31.5 -10.5,15 -12.5,18 0,0 0,1 0,2 7.5,4.5 7.5,2.5 18.5,2.5 15,0 38,4.5 23,4.5 53,16.5 8,3 22,8 14,5 16,5 1,0 1,-1 0,-1 -7.5,-9.5 -7.5,-8.5 -14.5,-19.5 -18,-22 -31,-41 -13,-19 -20,-31 z m -359,62 q -2,-1 -5,-2 h -1 q -4,-2 -9,-4 h -1 q -1,-1 -3,-2 -11,-4 -12,-4 -3,0 -8.5,15.5 -5.5,15.5 -5.5,27.5 0,6 2.5,9.5 2.5,3.5 7.5,3.5 1,0 5.5,-0.5 4.5,-0.5 20,-5 15.5,-4.5 23.5,-7.5 21,-5 21,-10 0,-2 -4.5,-5.5 -4.5,-3.5 -30.5,-15.5 z m -585,16 q 2,-1 7.5,-9 5.5,-8 5.5,-9 0,-1 -1,-1 l -16,12 q -15,13 -41,31 -37,30 -40.5,34.5 -3.5,4.5 -3.5,5.5 0,6 19,11 13,3 22,3 20,0 20,-16 0,-8 6,-22 6,-14 22,-40 z m 366,5 q 5,-6 9,-13.5 4,-7.5 4,-9.5 0,-1 -1,-1 -1,0 -17.5,12.5 -16.5,12.5 -40.5,30.5 l -54,44 33,4 q 14,3 23,3 8,0 15,-3 7,-3 7,-15 0,-9 6,-21.5 6,-12.5 16,-30.5 z m -226,-3 q 8,-9 8,-11 0,-2 -1,-2 -2,0 -11.5,4 -9.5,4 -46.5,34 -27,23 -32,29 -5,6 -5,9 0,5 8,9 8,5 17,5 7,0 19,-5 12,-5 18,-27 3,-9 9,-21 6,-12 17,-24 z m 106,0 q 9,-9 9,-11 0,-1 -1,-1 -2,0 -17.5,11 -15.5,11 -35,26 -19.5,15 -37.5,28.5 -18,13.5 -21,16.5 -1,1 -1,1 0,2 8.5,3.5 8.5,1.5 17.5,3.5 11,1 18,1 12,0 17.5,-3.5 5.5,-3.5 14.5,-24.5 4,-14 12.5,-27.5 8.5,-13.5 15.5,-23.5 z m 521,40 q 3,-3 8.5,-4 5.5,-1 10.5,-1 5,0 12,1 8,1 35,4 27,3 57,6 52,3 57,7.5 5,4.5 5,5.5 0,5 -22,10 -21,4 -30,11.5 -9,7.5 -14,25 -5,17.5 -6.5,48 -1.5,30.5 -1.5,77.5 0,112 -9,112 -9,0 -9,-72 0,-20 1,-45 0,-48 -1.5,-75.5 -1.5,-27.5 -7.5,-43.5 -6,-16 -18.5,-25 -12.5,-9 -35.5,-19 -15,-8 -23,-13.5 -8,-5.5 -8,-8.5 z m -192,17 q 0,-3 2,-3 2,0 7.5,3 5.5,3 12.5,10 26,27 70,40.5 44,13.5 104,13.5 26,0 44,2.5 18,2.5 18,5.5 0,4 -16,6.5 -16,2.5 -38,3.5 -101,2 -140.5,13 -39.5,11 -39.5,22 0,6 10,13 11,8 31,15.5 20,7.5 44,12.5 24,5 49,9 25,4 46,4 18,0 31.5,2 13.5,2 13.5,5 0,5 -22.5,7 -22.5,2 -55.5,2 -72,0 -115,11.5 -43,11.5 -53,38.5 -3,8 -5,8 -3,0 -5.5,-9.5 -2.5,-9.5 -2.5,-36.5 0,-18 1,-43 1,-18 2.5,-52.5 1.5,-34.5 3.5,-58.5 1,-14 2,-29 1,-15 1,-16 z m 304,19 q 2,-4 2,-7 0,-11 -23,-11 -10,0 -11.5,1.5 -1.5,1.5 -1.5,2.5 0,3 6,10 10,13 18,13 6,0 10,-9 z m -789,27 q -34,-16 -50.5,-17 -16.5,-1 -19.5,-1 -23,0 -23,11 0,6 10.5,17 10.5,11 27.5,20 15,11 28.5,24.5 13.5,13.5 22.5,24.5 9,11 11.5,16.5 2.5,5.5 2.5,7.5 0,4 -5,4 -11,0 -21,-14 -7,-9 -11,-9 -1,0 -3.5,1 -2.5,1 -12.5,17 -8,12 -17,29.5 -9,17.5 -13,27.5 -12,23 -12.5,26.5 -0.5,3.5 -0.5,4.5 0,5 5,5 8,0 30.5,-13.5 22.5,-13.5 49.5,-31.5 27,-18 51,-36 24,-18 34,-28 9,-10 9,-16 0,-1 -1.5,-4.5 -1.5,-3.5 -17.5,-17.5 -18,-16 -38.5,-28 -20.5,-12 -35.5,-20 z m 288,32 q -30,-21 -54,-33 -24,-12 -40,-14 -12,-2 -21,-2 -16,0 -18.5,4.5 -2.5,4.5 -2.5,6.5 0,12 33,36 39,29 51,47 12,18 12,24 0,9 -15,10 -17,0 -39,44 -9,16 -13,28.5 -4,12.5 -4,16.5 0,0 0,1 0,0 1,0 4,0 21,-10.5 17,-10.5 41,-26 24,-15.5 48,-33 24,-17.5 36,-27.5 8,-8 14,-15.5 6,-7.5 6,-10.5 0,-3 -17.5,-17 -17.5,-14 -38.5,-29 z m -172,-23 q -15,-7 -31.5,-12.5 -16.5,-5.5 -25.5,-5.5 -10,0 -10,4 0,2 4,8 4,6 37,36 29,26 42,41 13,15 13,21 0,2 -1,3 -1,1 -3,1 -5,0 -13,-6 -10,-8 -17,-8 -4,0 -7,2 -5,3 -14.5,18 -9.5,15 -18.5,33 -9,18 -13.5,30 -4.5,12 -4.5,16 0,3 1,4 0,0 1,0 4,0 22,-10 18,-10 42,-26.5 24,-16.5 46.5,-33.5 22.5,-17 32.5,-29 10,-11 10,-16 0,-1 -1,-4 -1,-3 -18,-16 -18,-18 -37.5,-30 -19.5,-12 -35.5,-20 z m 423,3 q -25,-11 -31,-11 0,0 -2.5,0.5 -2.5,0.5 -2.5,21.5 0,19 2,19.5 2,0.5 2,0.5 6,0 32,-8 l 28,-11 z m -6,101 q -26,-14 -33,-14 -1,0 -3.5,1 -2.5,1 -2.5,23 0,24 7,24 1,0 3,-1 3,-3 13.5,-6 10.5,-3 19.5,-6 l 24,-8 z m -627,43 q 3,-7 6,-13.5 3,-6.5 3,-8.5 0,0 0,0 -2,0 -16,10.5 -14,10.5 -25,17.5 -43,32 -44.5,35 -1.5,3 -1.5,3 0,5 22,9 17,3 29,7 7,3 10,3 6,0 6,-5 0,-2 -1,-5 -1,-6 -1,-11 0,-6 2,-15.5 2,-9.5 11,-26.5 z m 388,14 q 6,-12 9,-20 2,-6 3,-7 -3,1 -16.5,10 -13.5,9 -34.5,23 l -48,33 26,4 q 30,7 42,7 1,0 6,-0.5 5,-0.5 5,-5.5 0,-2 -1,-4 -1,-3 -1,-7 0,-5 2,-13 2,-8 8,-20 z m -253,-11 q 7,-11 7,-14 0,-2 -2,-2 0,0 -2.5,0.5 -2.5,0.5 -34.5,21.5 -39,27 -40,30 -1,3 -1,3 0,5 31,12 17,5 23,5 2,0 4.5,-1 2.5,-1 3.5,-16 2,-9 5,-20 3,-11 6,-19 z m 123,15 q 3,-7 5.5,-15.5 2.5,-8.5 2.5,-10.5 0,-2 -1,-2 0,0 0,0 -3,0 -15,7.5 -12,7.5 -30,19.5 -28,21 -30.5,24 -2.5,3 -2.5,4 0,4 18,8 13,3 22,3 7,0 14.5,-3 7.5,-3 16.5,-35 z m 357,69 -39,-18 q -26,-12 -34,-12 -8,0 -11,9 -3,8 -3.5,19 -0.5,11 -0.5,15 0,10 2,10 6,-2 14,-3 6,-2 13.5,-3.5 7.5,-1.5 16.5,-4.5 z m 319,57 q 21,-21 31.5,-34.5 10.5,-13.5 10.5,-15.5 0,-1 -1,-1 -3,2 -19,5 -16,3 -34,7 -18,6 -39.5,10 -21.5,4 -33.5,4 h -27 l 22,54 q 17,34 20.5,39 3.5,5 5.5,5 3,0 7,-7 5,-6 20.5,-25.5 15.5,-19.5 36.5,-40.5 z"
     id="path1" />
</svg>
