<?xml version="1.0" encoding="UTF-8" standalone="no"?>
<svg
   width="2000"
   height="2000"
   version="1.1"
   id="svg1"
   sodipodi:docname="u12136.svg"
   inkscape:version="1.3.2 (091e20e, 2023-11-25)"
   xmlns:inkscape="http://www.inkscape.org/namespaces/inkscape"
   xmlns:sodipodi="http://sodipodi.sourceforge.net/DTD/sodipodi-0.dtd"
   xmlns="http://www.w3.org/2000/svg"
   xmlns:svg="http://www.w3.org/2000/svg">
  <defs
     id="defs1" />
  <sodipodi:namedview
     id="namedview1"
     pagecolor="#505050"
     bordercolor="#eeeeee"
     borderopacity="1"
     inkscape:showpageshadow="0"
     inkscape:pageopacity="0"
     inkscape:pagecheckerboard="0"
     inkscape:deskcolor="#505050"
     inkscape:zoom="0.379"
     inkscape:cx="1000"
     inkscape:cy="998.68074"
     inkscape:window-width="1392"
     inkscape:window-height="1212"
     inkscape:window-x="0"
     inkscape:window-y="0"
     inkscape:window-maximized="0"
     inkscape:current-layer="svg1" />
  <path
     d="m 875,666.5 q 12,-28 15,-29.5 3,-1.5 4,-1.5 5,0 9,19 3,9 18.5,28.5 15.5,19.5 34,39 18.5,19.5 35.5,34.5 17,15 24,15 5,0 28.5,-6.5 23.5,-6.5 60.5,-19.5 19,-6 35,-11 16,-5 22.5,-6.5 6.5,-1.5 8.5,-1.5 2,0 3.5,1 1.5,1 1.5,3 0,6 -19.5,14 -19.5,8 -46.5,17 -29,8 -49.5,15.5 -20.5,7.5 -23.5,9.5 -1,1 -1,2 0,2 4,7 4,5 20,17 12,9 39.5,28.5 27.5,19.5 57,40 29.5,20.5 58.5,40 29,19.5 51,33.5 l 63,39 30,-19 q 23,-16 27.5,-18 4.5,-2 6.5,-2 3,0 3,4 0,6 -8,12.5 -8,6.5 -19,13.5 l -28,18 55,32 q 23,14 35.5,23.5 12.5,9.5 12.5,12.5 0,1 -1,1 -1,0 -2,0 -5,0 -20,-6.5 -15,-6.5 -40,-21.5 -17,-11 -34.5,-20 -17.5,-9 -20.5,-9 -3,0 -17,8 -14,8 -34,20.5 -20,12.5 -43.5,27.5 -23.5,15 -44,28.5 -20.5,13.5 -36,24.5 -15.5,11 -18.5,14 -4,3 -4,7 0,4 6.5,11 6.5,7 35.5,30 33,24 43,34.5 10,10.5 10,13.5 0,2 -3,2 -5,0 -21,-11 -16,-11 -39,-28 l -54,-39 -29,21 q -12,8 -27.5,21 -15.5,13 -26.5,24 l -24,25 69,45 q 29,20 46.5,33 17.5,13 17.5,17 0,1 -1,1 0,0 -1,0 -5,0 -25.5,-11 -20.5,-11 -49.5,-29 l -69,-45 -24,25 q -9,11 -18,26.5 -9,15.5 -14,26.5 -3,11 -8,19 -5,8 -7,8 -2,0 -5,-11 -3,-11 -5,-27 -4,-21 -10,-35.5 -6,-14.5 -17,-27.5 -22,-21 -22,-32.5 0,-11.5 23,-19.5 11,-4 11.5,-5.5 0.5,-1.5 0.5,-2.5 0,-3 -10,-9 -10,-7 -37.5,-22.5 -27.5,-15.5 -61,-33 -33.5,-17.5 -66,-33.5 -32.5,-16 -46.5,-22 -25,-12 -48.5,-18.5 -23.5,-6.5 -37.5,-6.5 -26,-2 -26.5,-5 -0.5,-3 -0.5,-3 0,-5 18,-20 19,-17 29,-34 10,-17 16.5,-37.5 6.5,-20.5 9.5,-39 3,-18.5 3,-35.5 0,-10 -1,-21 0,-9 0,-16 0,-10 0.5,-14.5 0.5,-4.5 4.5,-4.5 2,0 5,2 9,4 24.5,4.5 15.5,0.5 24.5,0.5 17,0 42,-1.5 25,-1.5 58.5,-6 33.5,-4.5 68.5,-12.5 26,-6 46,-12 20,-6 20,-9 0,0 0,0 -2,-2 -21.5,-11 -19.5,-9 -44.5,-19 -49,-22 -52.5,-29 -3.5,-7 -3.5,-9 0,-11 29,-19 14,-5 23.5,-14 9.5,-9 18.5,-27 z m 25,10 q 0,-5 -3,-5 -2,0 -6.5,2 -4.5,2 -7.5,11 -3,10 -13,18.5 -10,8.5 -21,13.5 l -28,12 64,28 q 43,20 62.5,25.5 19.5,5.5 26.5,5.5 10,0 10,-7 0,-1 -12.5,-15.5 Q 959,750.5 942,732.5 925,714.5 912.5,700 900,685.5 900,676.5 Z m 131,134 q -17,-12 -24.5,-14 -7.5,-2 -9.5,-2 -5,0 -5,4 0,5 8.5,10.5 8.5,5.5 19,10.5 10.5,5 19,8 8.5,3 10.5,3 1,0 1,0 1,-1 1,-1 0,-2 -5,-7 -5,-5 -15,-12 z m 18,40 q -32,-16 -60,-28 -28,-12 -34,-12 -1,0 -1,0 -11,0 -32.5,7 -21.5,7 -49.5,18.5 -28,11.5 -58.5,26 -30.5,14.5 -59,29.5 -28.5,15 -52,29 -23.5,14 -37.5,25 l -27,23 49,51 q 20,20 47.5,44 27.5,24 55.5,46.5 28,22.5 54,41.5 26,19 44,30 l 30,16 71,-27 q 30,-11 51.5,-21 21.5,-10 23.5,-12 0,0 0,-1 0,-3 -24,-19.5 -24,-16.5 -60,-37 -36,-20.5 -74.5,-40.5 -38.5,-20 -63.5,-29 l -65,-24 35,-15 q 21,-10 43,-23.5 22,-13.5 41,-27.5 19,-14 31,-26 12,-12 12,-22 0,-9 7,-9 4,0 6,5.5 2,5.5 2,13 0,7.5 -2,13.5 -2,6 -4,8 -3,2 -6,15 -3,13 -4,30 -1,9 -1,17 0,7 1,18.5 1,11.5 5,24.5 4,13 10,21 6,8 13,8 10,0 18,14 8,11 24.5,24.5 16.5,13.5 35.5,24.5 l 47,30 39,-21 q 18,-9 47.5,-26 29.5,-17 57.5,-34.5 28,-17.5 48.5,-31.5 20.5,-14 20.5,-17 0,-3 -27.5,-21.5 -27.5,-18.5 -67,-41.5 -39.5,-23 -82.5,-46.5 -43,-23.5 -78,-40.5 z m -317,34 q 35,-20 43,-26 8,-6 8,-8 0,-1 -2,-1 -1,0 -2,0 -8,0 -29.5,1.5 -21.5,1.5 -44.5,1.5 l -54,3 -3,42 q -1,17 -1,29 0,12 1,12 2,0 6.5,-3 4.5,-3 8.5,-7 7,-6 28,-19.5 21,-13.5 41,-24.5 z m 190,68 q 1,-10 1.5,-16.5 0.5,-6.5 0.5,-8.5 0,-4 -1,-4 -2,1 -16,10 -14,9 -34,23 l -48,31 44,17 q 18,7 34.5,13.5 16.5,6.5 19.5,7.5 8,3 10,3 2,0 2,-2 0,-2 -8,-16 -7,-14 -7,-35 0,-11 2,-23 z m -292,32 q -2,3 -5,7 -2,4 -4.5,8.5 -2.5,4.5 -6.5,10.5 -13,18 -13,26 0,0 0.5,4 0.5,4 10.5,4 10,0 30,8.5 20,8.5 44,18.5 l 58,27 z m 410,204 q 14,-12 26,-23 12,-11 12,-13 0,0 -1,0 0,0 0,0 -2,0 -23.5,9 -21.5,9 -48.5,20 l -67,27 18,13 q 7,6 14.5,10 7.5,4 9.5,4 2,0 18,-12 16,-12 42,-35 z m -93,47 q -19,-12 -27,-13 -8,-1 -10,-1 -12,0 -27,6 -10,4 -10,6 0,2 6,7 9,7 16.5,19.5 7.5,12.5 12.5,23.5 l 13,28 24,-31 q 11,-13 17,-22 6,-9 6,-11 0,0 0,0 -2,0 -8.5,-4.5 -6.5,-4.5 -12.5,-7.5 z"
     id="path1" />
</svg>
