<?xml version="1.0" encoding="UTF-8" standalone="no"?>
<svg
   width="2000"
   height="2000"
   version="1.1"
   id="svg1"
   sodipodi:docname="u12154.svg"
   inkscape:version="1.3.2 (091e20e, 2023-11-25)"
   xmlns:inkscape="http://www.inkscape.org/namespaces/inkscape"
   xmlns:sodipodi="http://sodipodi.sourceforge.net/DTD/sodipodi-0.dtd"
   xmlns="http://www.w3.org/2000/svg"
   xmlns:svg="http://www.w3.org/2000/svg">
  <defs
     id="defs1" />
  <sodipodi:namedview
     id="namedview1"
     pagecolor="#505050"
     bordercolor="#eeeeee"
     borderopacity="1"
     inkscape:showpageshadow="0"
     inkscape:pageopacity="0"
     inkscape:pagecheckerboard="0"
     inkscape:deskcolor="#505050"
     inkscape:zoom="0.379"
     inkscape:cx="1000"
     inkscape:cy="998.68074"
     inkscape:window-width="1392"
     inkscape:window-height="1212"
     inkscape:window-x="0"
     inkscape:window-y="0"
     inkscape:window-maximized="0"
     inkscape:current-layer="svg1" />
  <path
     d="m 939.5,643 q 0,-3 3.5,-6.5 3.5,-3.5 8.5,-3.5 8,0 8,9 0,4 -3,15.5 -3,11.5 -28,57.5 -40,73 -40,97 0,12 10,12 7,0 7,4 0,3 -2,6 -2,2 -2,5 0,3 3.5,7 3.5,4 11.5,9 7,4 10,4.5 3,0.5 4,0.5 5,0 11,-4 6,-4 14.5,-14 8.5,-10 16.5,-21 19,-24 32.5,-46 13.5,-22 16.5,-35 2,-9 7.5,-15 5.5,-6 10.5,-6 1,0 4,0.5 3,0.5 8,7.5 5,7 6,19 2,22 16.5,39.5 14.5,17.5 54,36.5 39.5,19 110,42.5 70.5,23.5 184.5,58.5 59,18 112.5,35 53.5,17 95.5,31 42,14 69,24 27,10 33,13 l 26,18 -26,6 q -6,1 -34.5,6.5 -28.5,5.5 -72.5,14.5 -44,9 -100,19.5 -56,10.5 -105,20.5 -95,18 -158,31.5 -63,13.5 -110,26 -47,12.5 -81.5,24.5 -34.5,12 -61,25.5 -26.5,13.5 -48.5,30 -22,16.5 -52,44.5 -28,27 -33,29 -5,2 -6,2 -2,0 -2,-5 0,-9 5,-28 5,-17 8,-32.5 3,-15.5 3,-24.5 0,-8 -2.5,-18 -2.5,-10 -14.5,-20.5 -12,-10.5 -36,-25.5 -11,-7 -24.5,-15.5 -13.5,-8.5 -27.5,-16.5 -14,-8 -26.5,-15.5 -12.5,-7.5 -22.5,-12.5 l -45,-22 -10,27 q -11,30 -12,42.5 -1,12.5 -1,15.5 0,18 9.5,35 9.5,17 33.5,36 24,19 81,54 14,8 33.5,20 19.5,12 29,20.5 9.5,8.5 11,12 1.5,3.5 1.5,5.5 0,3 -2,6 -2,5 -6,5 -7,0 -19,-12 -14,-13 -37,-28.5 -23,-15.5 -50.5,-31 -27.5,-15.5 -57.5,-29.5 -30,-14 -57,-25.5 -27,-11.5 -49.5,-18.5 -22.5,-7 -43.5,-7 -25,0 -25,-8 0,-1 1,-6 1,-5 33,-26 22,-14 41,-30 19,-16 34,-31 15,-15 22.5,-25 7.5,-10 7.5,-14 0,-1 -1,-2 -3,-3 -20,-7.5 -17,-4.5 -37.5,-8 -20.5,-3.5 -33,-5 -12.5,-1.5 -17.5,-1.5 -5,0 -6,1 0,0 0,1 0,4 9,18 6,7 6.5,10.5 0.5,3.5 0.5,3.5 0,5 -5,7 -2,1 -5,1 -7,0 -18,-11 -4,-6 -15,-14 -11,-8 -23,-15.5 -12,-7.5 -23.5,-12.5 -11.5,-5 -16.5,-5 -1,0 -10.5,15 -9.5,15 -22.5,35 -13,24 -17.5,37 -4.5,13 -4.5,22 0,7 3.5,17.5 3.5,10.5 17.5,24 14,13.5 39,29.5 21,15 36.5,27 15.5,12 15.5,20 0,6 -10,6 -10,0 -15,-11 -4,-5 -24.5,-17 -20.5,-12 -42.5,-23 -41,-21 -65,-28 -24,-7 -49,-7 -4,0 -7,0 -20,0 -35.5,-2 -15.5,-2 -15.5,-5 0,-4 15.5,-16 15.5,-12 35.5,-26 29,-20 53,-39.5 24,-19.5 40.5,-35.5 16.5,-16 23.5,-25.5 7,-9.5 7,-13.5 0,-2 -1,-3 -2,-5 -20.5,-8.5 -18.5,-3.5 -42.5,-3.5 -25,0 -41.5,-3.5 -16.5,-3.5 -16.5,-11.5 0,-6 7,-6 8,0 30.5,-16 22.5,-16 49.5,-40 28,-21 49,-38 21,-17 23,-19 3,-2 3,-4 0,-2 -4,-5.5 -4,-3.5 -14.5,-7 -10.5,-3.5 -24.5,-6 -14,-2.5 -28,-2.5 h -40 l 42,-29 q 9,-6 23,-16.5 14,-10.5 30,-24 16,-13.5 33,-28 17,-14.5 31,-26.5 33,-29 55.5,-45.5 22.5,-16.5 27.5,-16.5 1,0 1,0 0,0 0,1 0,4 -8,19 -8,15 -26,39 -14,18 -28.5,40 -14.5,22 -21.5,36 -6,12 -6,16 0,1 0,2 0,1 3,1 3,0 9,-3 5,-1 8,-1 3,0 5,2 2,2 2,12 0,3 0,7 -1,5 -1,10 0,11 4.5,18 4.5,7 21.5,12 7,3 15,3 21,0 53,-19.5 32,-19.5 99,-82.5 27,-27 36,-32.5 9,-5.5 12,-5.5 4,0 4,6 0,6 -4,16.5 -4,10.5 -11,18.5 -5,9 -12,27 -7,18 -10,39 -1,10 -1.5,15 -0.5,5 -0.5,7 0,7 2.5,14 2.5,7 8,14 5.5,7 13.5,15 8,7 19.5,16 11.5,9 26,19.5 14.5,10.5 30.5,21 16,10.5 37,22.5 27,15 51.5,31.5 24.5,16.5 26.5,21.5 5,8 5,12 0,4 -5,4 -1,0 -7.5,-0.5 -6.5,-0.5 -31.5,-18.5 -16,-12 -45.5,-30 -29.5,-18 -59.5,-34.5 -30,-16.5 -53.5,-28 -23.5,-11.5 -28.5,-11.5 -4,0 -10,10.5 -6,10.5 -11,24.5 -5,14 -9,29.5 -4,15.5 -4,22.5 0,11 9.5,24 9.5,13 23.5,27 14,14 31,26.5 17,12.5 34,21.5 13,7 33.5,19.5 20.5,12.5 35.5,22.5 14,11 25.5,18.5 11.5,7.5 13.5,7.5 3,0 3.5,-7.5 0.5,-7.5 0.5,-10.5 0,-10 -3,-24 -2,-18 -2,-31 0,-13 2,-13 2,0 13.5,8 11.5,8 22.5,17 16,13 32,21 16,8 30,8 7,0 18.5,2 11.5,2 16.5,4 4,1 7,1 3,0 5.5,-1.5 2.5,-1.5 4.5,-9.5 2,-8 2.5,-24.5 0.5,-16.5 0.5,-33.5 0,-73 -11.5,-106 -11.5,-33 -33.5,-33 -8,0 -13.5,-5.5 -5.5,-5.5 -7.5,-12.5 -3,-13 -22,-27 -19,-14 -45,-26 -26,-12 -55,-20 -29,-8 -53,-8 h -56 l 96,-97 q 19,-20 36.5,-39 17.5,-19 30.5,-34 13,-15 20.5,-25 7.5,-10 7.5,-14 z m -71,140 q 1,-5 2,-11.5 1,-6.5 1,-8.5 0,-2 -1,-2 l -6,6 q 0,0 0,0 l -5,5 q -3,2 -8,7 l -5,5 q 0,0 0,0 l -2,2 q -1,1 -1,1 l -35,37 h 27 q 17,0 23.5,-6 6.5,-6 9.5,-35 z m 197,23 q -13,-14 -22.5,-24.5 -9.5,-10.5 -10.5,-10.5 -2,1 -10,13 -8,12 -17,26.5 -9,14.5 -15,26 -6,11.5 -6,14.5 0,0 0,0 0,0 2,0 5,0 19,-1.5 14,-1.5 37,-3.5 l 54,-6 z m -587,-5 q 1,-6 2.5,-13 1.5,-7 1.5,-10 0,-3 -1,-4 -1,0 -10,7 -9,7 -16,12 -21,16 -25,21.5 -4,5.5 -4,7.5 0,2 4,2 4,0 12,2 8,2 12,4 3,1 6,1 14,0 18,-30 z m 231,48 q 2,-15 2.5,-28.5 0.5,-13.5 0.5,-14.5 -6,4 -12,10 -12,9 -28,22 -18,15 -25.5,22.5 -7.5,7.5 -7.5,12.5 0,1 0.5,4 0.5,3 11,6 10.5,3 31.5,8 4,0 7,0 9,0 13,-5 4,-5 7,-37 z m -151,54 Q 534.5,889 516,877.5 497.5,866 495.5,866 q -2,0 -12,16 -10,16 -23,39 -11,19 -17,30 -6,11 -6.5,14.5 -0.5,3.5 -0.5,3.5 0,5 3.5,7 3.5,2 10.5,4 12,2 18,8.5 6,6.5 6,13.5 0,8 7.5,17 7.5,9 18.5,15 12,7 22,7 2,0 9,-1 7,-1 34,-18 22,-14 44.5,-31.5 22.5,-17.5 40,-33.5 17.5,-16 26.5,-26 9,-10 9,-14 0,-1 -1,-2 -2,-3 -16.5,-7 -14.5,-4 -30.5,-6 -22,-5 -29,-5 -3,0 -4,0.5 -1,0.5 -1,2.5 0,4 9,15 10,12 10,17 0,3 -4,3 -1,0 -9,-1.5 -8,-1.5 -51,-30.5 z m 873,42 q -74,-23 -123,-37 -49,-14 -85,-22 -36,-8 -63.5,-11.5 -27.5,-3.5 -57.5,-4.5 -29,-2 -51,-2 -42,0 -54.5,5.5 -12.5,5.5 -12.5,11.5 0,10 18,24 8,7 15.5,11 7.5,4 15.5,6 8,2 17,2 3,0 10,-0.5 7,-0.5 20,-1.5 16,-1 28,-1 9,0 20.5,1 11.5,1 11.5,6 0,3 -3.5,6 -3.5,3 -7.5,3 -5,0 -16,7 -11,7 -22,19 -8,8 -13,15.5 -5,7.5 -7.5,19 -2.5,11.5 -3.5,28 -1,16.5 -1,47.5 0,23 0.5,39 0.5,16 2.5,24 2,8 6.5,10 4.5,2 9.5,2 8,0 34.5,-4.5 26.5,-4.5 67,-12 40.5,-7.5 91,-17 50.5,-9.5 103.5,-19.5 53,-10 104,-20 51,-10 92,-18 41,-8 68.5,-13.5 27.5,-5.5 37.5,-10.5 6,-2 6,-3.5 0,-1.5 -5,-4.5 -9,-6 -30,-13 -21,-7 -54.5,-18 -33.5,-11 -77,-24.5 -43.5,-13.5 -91.5,-28.5 z m -1017,14 q 4,-15 4,-21 0,-3 -1,-3.5 -1,-0.5 -1,-0.5 -6,0 -21,10 -25,17 -25.5,22.5 -0.5,5.5 -0.5,6.5 0,10 16,10 12,0 19.5,-6.5 7.5,-6.5 9.5,-17.5 z m 645,-9 q -4,-9 -9,-9 -5,0 -5,8 0,6 3,9.5 3,3.5 8,3.5 5,0 5.5,-2 0.5,-2 0.5,-3 0,-3 -3,-7 z m -394,65 q 5,-22 5,-32 0,-10 -6.5,-10 -6.5,0 -35.5,29 l -30,32 29,7 q 12,3 16,4 4,1 6,1 4,0 7.5,-3 3.5,-3 5.5,-12 2,-9 3,-16 z m -296,112 q 6,-17 6,-23 0,-2 -1,-2.5 -1,-0.5 -1,-0.5 -4,0 -23,15 -33,25 -33.5,31 -0.5,6 -0.5,7 0,7 11,7 5,0 12,-1 22,-3 30,-33 z m 267,48 q 1,-16 2,-26 1,-10 1,-13 0,-2 0,-2 -2,0 -12,8 -10,8 -19,16 -32,27 -32,36 0,4 4,5 7,1 16,4 9,3 13,4 6,2 10,2 7,0 10,-5.5 3,-5.5 7,-28.5 z m 352,-5 q -13,-2 -28,-5 -15,-3 -23,-7 -5,-2 -8,-2 -4,0 -7.5,4 -3.5,4 -8.5,24 -5,27 -5.5,35.5 -0.5,8.5 -0.5,10.5 0,11 3,13.5 3,2.5 6,2.5 5,0 15.5,-5 10.5,-5 34.5,-18 23,-15 40,-27 17,-12 18,-14 0,-3 -10,-6.5 -10,-3.5 -26,-5.5 z"
     id="path1" />
</svg>
