<?xml version="1.0" encoding="UTF-8" standalone="no"?>
<svg
   width="2000"
   height="2000"
   version="1.1"
   id="svg1"
   sodipodi:docname="u121ED.svg"
   inkscape:version="1.3.2 (091e20e, 2023-11-25)"
   xmlns:inkscape="http://www.inkscape.org/namespaces/inkscape"
   xmlns:sodipodi="http://sodipodi.sourceforge.net/DTD/sodipodi-0.dtd"
   xmlns="http://www.w3.org/2000/svg"
   xmlns:svg="http://www.w3.org/2000/svg">
  <defs
     id="defs1" />
  <sodipodi:namedview
     id="namedview1"
     pagecolor="#505050"
     bordercolor="#eeeeee"
     borderopacity="1"
     inkscape:showpageshadow="0"
     inkscape:pageopacity="0"
     inkscape:pagecheckerboard="0"
     inkscape:deskcolor="#505050"
     inkscape:zoom="0.379"
     inkscape:cx="1000"
     inkscape:cy="998.68074"
     inkscape:window-width="1392"
     inkscape:window-height="1212"
     inkscape:window-x="0"
     inkscape:window-y="0"
     inkscape:window-maximized="0"
     inkscape:current-layer="svg1" />
  <path
     d="m 1186.5,636 q 1,0 3,0 3,0 11.5,1 8.5,1 17.5,2 16,5 36.5,6 20.5,1 32.5,1 16,0 31,-1 26,-3 44.5,-3 18.5,0 18.5,2 0,1 -8,12.5 -8,11.5 -19,26.5 -12,13 -24,39.5 -12,26.5 -19,47.5 -6,18 -10,34.5 -4,16.5 -4.5,48 -0.5,31.5 -0.5,86.5 v 9 q 0,2 0,4 v 13 q 0,2 0,4 v 4 q 0,3 0,5 v 114 q 0,272 -9,272 -2,0 -4,-9 -2,-9 -2,-21 v -30 l -146,-29 q -30,-6 -63.5,-12 -33.5,-6 -65,-11 -31.5,-5 -58,-9.5 -26.5,-4.5 -44.5,-7.5 -30,-5 -48.5,-7 -18.5,-2 -31.5,-2 -13,0 -25,3 h -1 q -1,1 -3,1 -1,0 -1,0 h -1 q -1,1 -2,1 h -1 q 0,0 -1,0 l -1,1 q -1,0 -2,0 l -1,1 q 0,0 0,0 h -2 q -1,0 -2,1 h -1 q 0,0 -1,0 -2,0 -3,1 h -1 q 0,0 0,0 -24,6 -46.5,15.5 -22.5,9.5 -42,19.5 -19.5,10 -32,19 -12.5,9 -12.5,15 0,6 -14,6 -10,0 -10,-4 0,0 0.5,-2 0.5,-2 9.5,-23 12,-22 21,-46 9,-24 18,-50.5 9,-26.5 16,-50.5 7,-24 8,-37 3,-12 4.5,-24 1.5,-12 3.5,-15 1,-2 3,-2 4,0 14.5,8.5 10.5,8.5 25.5,24.5 18,20 42,40 24,20 49,38 25,18 48,31.5 23,13.5 38,18.5 11,3 60.5,13.5 49.5,10.5 109.5,20.5 58,12 107,20.5 49,8.5 59,11.5 l 27,6 -4,-192 q 0,-56 -1.5,-95 -1.5,-39 -3,-66 -1.5,-27 -4.5,-45 -3,-18 -6,-31 -8,-20 -13,-42.5 -5,-22.5 -7,-28.5 -4,-19 -8.5,-25 -4.5,-6 -17,-7 -12.5,-1 -18.5,-1 -20,0 -57.5,4.5 -37.5,4.5 -85.5,10.5 -80,9 -113,13.5 -33,4.5 -56,9 -23,4.5 -38,9 -15,4.5 -27,9.5 -17,7 -35.5,20.5 -18.5,13.5 -36,28 -17.5,14.5 -29.5,27 -12,12.5 -15,24.5 -4,12 -9,12 -8,0 -8,-36 0,-15 1,-36 2,-21 2,-46 0,-9 -0.5,-31 -0.5,-22 -4.5,-50 -2,-14 -2.5,-29 -0.5,-15 -0.5,-16 0,0 1,0 3,0 15,6 12,6 30,18 21,10 46.5,21.5 25.5,11.5 52.5,19.5 27,8 52.5,14 25.5,6 43.5,6 8,0 24.5,-0.5 16.5,-0.5 39,-3 22.5,-2.5 48.5,-4.5 26,-2 53,-5 l 129,-15 -4,-20 q -2,-7 -7,-21.5 -5,-14.5 -11,-26.5 -6,-12 -8.5,-20 -2.5,-8 -2.5,-11 0,-1 0,-2 z m 102,27 q -21,0 -39.5,-1.5 -18.5,-1.5 -26.5,-4.5 -3,-1 -5,-1 -5,0 -5,4 0,1 0.5,4.5 0.5,3.5 12.5,30.5 12,30 20.5,55.5 8.5,25.5 12.5,44.5 3,14 7.5,26.5 4.5,12.5 7.5,14.5 1,1 1,1 3,0 7,-10.5 4,-10.5 7,-25.5 3,-18 12,-44 9,-26 20,-46 l 21,-48 z m -465,96 q -19,-6 -43,-15 -24,-9 -39,-16 l -38,-20 v 170 l 48,-38 q 20,-16 41.5,-29.5 21.5,-13.5 42.5,-21.5 24,-7 24,-13 0,0 -0.5,-3 -0.5,-3 -35.5,-14 z m 192,173 q 23,-23 39.5,-38.5 16.5,-15.5 19.5,-15.5 3,0 4.5,7.5 1.5,7.5 1.5,16.5 0,34 21.5,62.5 21.5,28.5 86.5,73.5 v 1 q 3,2 6,4 3,2 6,4 v 1 q 3,1 6,3 v 1 q 3,2 6,3 v 1 q 3,2 6,3 15,11 20,15.5 5,4.5 5,5 0,0.5 -1,2.5 -1,1 -3,1 -7,0 -28.5,-12.5 -21.5,-12.5 -54.5,-35.5 l -79,-52 h -57 l -57,1 z m 65,30 q 0,-3 -3,-10.5 -3,-7.5 -6,-18.5 l -11,-24 -51,53 36,1 q 13,3 22,3 2,0 7.5,-0.5 5.5,-0.5 5.5,-3.5 z m -209,66 q 29,-30 48.5,-49 19.5,-19 23.5,-19 0,0 0,0 3,2 5.5,11 2.5,9 5.5,19 6,38 31.5,74 25.5,36 73.5,66 9,6 36.5,23 27.5,17 45.5,28 24,13 33.5,22 9.5,9 9.5,11 0,1 -1,1 0,0 -1,0 -5,0 -37,-17 -32,-17 -76,-43 -34,-21 -56.5,-33.5 -22.5,-12.5 -38.5,-20 -16,-7.5 -28,-10 -12,-2.5 -25,-3.5 -9,-1 -19,-1 -11,0 -27.5,2 -16.5,2 -33.5,6 -7,3 -14,4 -7,1 -10,1 -2,0 -3,0 0,0 0,-1 0,-5 16.5,-24.5 16.5,-19.5 40.5,-46.5 z m 71,-24 q 0,-10 -5,-10 -2,0 -8.5,3.5 -6.5,3.5 -36.5,34.5 l -37,38 57,3 q 24,1 41,1 h 3 q 1,0 3,0 h 2 q 0,0 1,0 h 2 q 0,0 1,0 1,0 1,0 h 6 q 0,0 0,-1 0,-2 -3,-8 h -1 q -1,-1 -1,-3 h -1 q 0,-1 -1,-3 -1,-1 -2,-3 -1,-1 -2,-3 -1,-1 -1,-3 -9,-15 -13.5,-26 -4.5,-11 -4.5,-20 z m -197,114 q -25,-27 -35,-27 -7,0 -7,13 0,12 -6.5,35.5 -6.5,23.5 -15.5,50.5 -11,28 -16,46.5 -5,18.5 -5,23.5 0,1 0,2 0,0 1,0 2,0 16,-6 14,-6 26,-12 30,-14 58.5,-22 28.5,-8 49.5,-11 l 50,-6 -42,-27 q -18,-12 -38.5,-28 -20.5,-16 -35.5,-32 z"
     id="path1" />
</svg>
