<?xml version="1.0" encoding="UTF-8" standalone="no"?>
<svg
   width="2000"
   height="2000"
   version="1.1"
   id="svg1"
   sodipodi:docname="u121B5.svg"
   inkscape:version="1.3.2 (091e20e, 2023-11-25)"
   xmlns:inkscape="http://www.inkscape.org/namespaces/inkscape"
   xmlns:sodipodi="http://sodipodi.sourceforge.net/DTD/sodipodi-0.dtd"
   xmlns="http://www.w3.org/2000/svg"
   xmlns:svg="http://www.w3.org/2000/svg">
  <defs
     id="defs1" />
  <sodipodi:namedview
     id="namedview1"
     pagecolor="#505050"
     bordercolor="#eeeeee"
     borderopacity="1"
     inkscape:showpageshadow="0"
     inkscape:pageopacity="0"
     inkscape:pagecheckerboard="0"
     inkscape:deskcolor="#505050"
     inkscape:zoom="0.379"
     inkscape:cx="1000"
     inkscape:cy="998.68074"
     inkscape:window-width="1392"
     inkscape:window-height="1212"
     inkscape:window-x="0"
     inkscape:window-y="0"
     inkscape:window-maximized="0"
     inkscape:current-layer="svg1" />
  <path
     d="m 1199.5,643 q 0,-1 11.5,-2 11.5,-1 22.5,-1 6,0 19.5,0.5 13.5,0.5 37.5,1 24,0.5 44.5,2 20.5,1.5 35,3 14.5,1.5 16.5,3.5 1,1 1,2 0,2 -3.5,6.5 -3.5,4.5 -9.5,10.5 -34,37 -52.5,121 -18.5,84 -25.5,232 -1,36 -1.5,52 -0.5,16 -0.5,25 0,8 0.5,17.5 0.5,9.5 3,15.5 2.5,6 8.5,10 9,8 9.5,12 0.5,4 0.5,4 0,7 -9,7 -10,0 -12,12 -2,12 -2,42 0,33 -2.5,53 -2.5,20 -6.5,22 0,0 -1,0 -6,0 -6,-78 v -83 l -33,-22 q -19,-13 -38.5,-25 -19.5,-12 -37.5,-21 -18,-9 -31.5,-14 -13.5,-5 -20.5,-5 -11,0 -37,14.5 -26,14.5 -58.5,37.5 -32.5,23 -69,52 -36.5,29 -69.5,59 -33,30 -59,57 -26,27 -46,60 -17,26 -22.5,30 -5.5,4 -7.5,4 -4,0 -4,-11 0,-17 -12,-45.5 -12,-28.5 -27.5,-59 -15.5,-30.5 -30,-55.5 -14.5,-25 -25.5,-29 -7,-3 -7,-10 0,-4 2.5,-4.5 2.5,-0.5 3.5,-0.5 4,0 10.5,2 6.5,2 13.5,7 7,5 14,13 12,13 20,13 1,0 2,-10 1,-10 2,-27 1,-17 1.5,-39.5 0.5,-22.5 0.5,-47.5 0,-61 -3,-99.5 -3,-38.5 -11.5,-63 -8.5,-24.5 -23,-38.5 -14.5,-14 -37.5,-25 -12,-5 -18,-10 -6,-5 -6,-7 0,-1 0,-1 2,-2 27,-2.5 25,-0.5 59,-0.5 l 79,3 35,-28 q 12,-11 29.5,-29.5 17.5,-18.5 33.5,-37.5 16,-19 28,-35 12,-16 15,-23 3,-6 5,-6 1,0 2,1 2,2 2,8 0,2 -0.5,7.5 -0.5,5.5 -5.5,16.5 -5,11 -10.5,32 -5.5,21 -8.5,34 -6,22 -7.5,30.5 -1.5,8.5 -1.5,14.5 0,2 0.5,6 0.5,4 3.5,9.5 3,5.5 9,13.5 7,10 12,19 5,9 5,11 0,2 14.5,15.5 14.5,13.5 34.5,27.5 20,15 43,33.5 23,18.5 34,31.5 11,11 21.5,19.5 10.5,8.5 15.5,8.5 4,0 16,-8.5 12,-8.5 29,-22 17,-13.5 36.5,-30 19.5,-16.5 36.5,-32.5 17,-16 30.5,-29 13.5,-13 20.5,-23 4,-5 7,-11 3,-6 4,-11 1,-5 1,-9 0,-4 -1,-10.5 -1,-6.5 -2,-13.5 -5,-28 -11,-47.5 -6,-19.5 -12.5,-36 -6.5,-16.5 -14,-28.5 -7.5,-12 -16.5,-19 -11,-8 -11,-18 z m 148,21 q 0,-2 -15.5,-2.5 -15.5,-0.5 -36.5,-0.5 h -56 l 18,54 q 8,21 15,50 7,29 10,54 4,31 9,31 0,0 3,-1.5 3,-1.5 9,-38.5 4,-28 11,-52.5 7,-24.5 17,-50.5 5,-13 10.5,-27.5 5.5,-14.5 5.5,-15.5 z m -460,91 q 2,-9 2,-14 0,-7 -4,-7 0,0 -5,2 -5,2 -34,36 l -34,37 30,9 q 16,4 22.5,5.5 6.5,1.5 10.5,1.5 2,0 4.5,-1 2.5,-1 3,-5 0.5,-4 0.5,-6 0,-5 -1,-10 0,-4 0,-9 0,-9 1.5,-20 1.5,-11 3.5,-19 z m -32,84 q -9,-5 -22.5,-9 -13.5,-4 -22.5,-6 -8,-2 -13,-2 -1,0 -4.5,0.5 -3.5,0.5 -9,4.5 -5.5,4 -11.5,12.5 -6,8.5 -16,23.5 l -30,44 v 279 l 23,15 q 17,12 28,12.5 11,0.5 13,0.5 18,0 44.5,-10 26.5,-10 63.5,-33.5 37,-23.5 91,-64.5 13,-9 27,-20 14,-11 24.5,-19.5 10.5,-8.5 17,-14.5 6.5,-6 6.5,-7 0,0 0,-1 0,-1 -5,-3 -5,-2 -12,-2 h -18 l 39,-32 h -78 q -37,0 -62,2.5 -25,2.5 -41.5,10.5 -16.5,8 -28,21.5 -11.5,13.5 -24.5,39.5 -7,14 -15,27.5 -8,13.5 -9,14.5 0,0 -1,0 -1,0 -2,-11 -1,-11 -1,-31 v -3 q 0,-1 0,-1 v -5 q 0,0 0,-1 v -1 q 0,-1 0,-2 v -4 q 0,0 0,-1 v -1 q 0,-1 0,-2 v -21 q 0,-1 0,-2 0,-24 1,-45 1,-21 2.5,-36.5 1.5,-15.5 2.5,-18.5 3,-4 7,-4 3,0 9,4 6,4 26,24 l 34,36 74,-3 q 32,-2 54,-4 22,-2 24,-4 1,-1 1,-2 0,-3 -8,-11.5 -8,-8.5 -24.5,-23 Q 992.5,935 972,918.5 951.5,902 930,886.5 908.5,871 889,858 869.5,845 855.5,839 Z m -99,-7 q 0,0 0,-1 0,-1 -11,-3 -11,-2 -29,-2 h -44 l 21,31 q 9,14 16.5,23 7.5,9 9.5,9 1,0 5.5,-6 4.5,-6 10.5,-15 6,-9 12,-19 6,-10 9,-17 z m 522,166 q -1,-49 -4,-83.5 -3,-34.5 -5,-40.5 -2,-3 -4,-3 -1,0 -3.5,0.5 -2.5,0.5 -9.5,8 -7,7.5 -18,23.5 -11,16 -25,39 -26,43 -29.5,54.5 -3.5,11.5 -3.5,16.5 0,9 7,14 7,5 7,15 0,10 12.5,21 12.5,11 28,21.5 15.5,10.5 27.5,16 12,5.5 16,5.5 2,0 3,-1 0,-1 0.5,-10.5 0.5,-9.5 1,-24.5 0.5,-15 0.5,-34.5 0,-19.5 -1,-37.5 z m -99,-37 q 4,-6 7,-12 3,-6 3,-8 0,-1 0,-1 0,0 -1,0 -3,0 -17.5,11 -14.5,11 -26.5,21 -33,25 -45.5,37.5 -12.5,12.5 -12.5,15.5 0,1 0,1 2,1 13,3 11,2 25,2 8,1 14,1 9,0 13.5,-2.5 4.5,-2.5 8.5,-19.5 2,-11 7,-24 5,-13 12,-25 z m -327,22 q -11,-12 -18,-17 -7,-5 -9,-5 -1,0 -2.5,14 -1.5,14 -1.5,34 v 46 l 24,-24 q 10,-11 17,-19 7,-8 7,-9 0,-2 -6,-8 -6,-6 -11,-12 z m -111,231 q -13,-6 -22,-9 -9,-3 -12,-3 -3,0 -3,2 0,3 6.5,17 6.5,14 15.5,34 11,18 17.5,35 6.5,17 6.5,22 0,3 2,6.5 2,3.5 4,3.5 2,0 12.5,-13 10.5,-13 22,-29 11.5,-16 21,-30.5 9.5,-14.5 9.5,-17.5 0,-1 -8,-2 -8,-1 -16,-1 -14,0 -28,-4 -14,-4 -28,-11 z"
     id="path1" />
</svg>
