<?xml version="1.0" encoding="UTF-8" standalone="no"?>
<svg
   width="2000"
   height="2000"
   version="1.1"
   id="svg1"
   sodipodi:docname="u1212F.svg"
   inkscape:version="1.3.2 (091e20e, 2023-11-25)"
   xmlns:inkscape="http://www.inkscape.org/namespaces/inkscape"
   xmlns:sodipodi="http://sodipodi.sourceforge.net/DTD/sodipodi-0.dtd"
   xmlns="http://www.w3.org/2000/svg"
   xmlns:svg="http://www.w3.org/2000/svg">
  <defs
     id="defs1" />
  <sodipodi:namedview
     id="namedview1"
     pagecolor="#505050"
     bordercolor="#eeeeee"
     borderopacity="1"
     inkscape:showpageshadow="0"
     inkscape:pageopacity="0"
     inkscape:pagecheckerboard="0"
     inkscape:deskcolor="#505050"
     inkscape:zoom="0.379"
     inkscape:cx="1000"
     inkscape:cy="998.68074"
     inkscape:window-width="1392"
     inkscape:window-height="1212"
     inkscape:window-x="0"
     inkscape:window-y="0"
     inkscape:window-maximized="0"
     inkscape:current-layer="svg1" />
  <path
     d="m 1000,660.5 q 11,-28 17,-30.5 6,-2.5 8,-2.5 7,0 7,16 0,29 26.5,66.5 26.5,37.5 80.5,91.5 29,28 64,60 35,32 67.5,58 32.5,26 57,43.5 24.5,17.5 34.5,17.5 5,0 5,3 0,2 -7.5,10.5 -7.5,8.5 -45.5,34.5 -21,13 -38,26.5 -17,13.5 -22,19.5 -4,4 -15.5,13.5 -11.5,9.5 -25.5,17.5 -22,15 -51,41.5 -29,26.5 -56.5,55 -27.5,28.5 -49,56 -21.5,27.5 -31.5,49.5 -7,14 -11,28.5 -4,14.5 -4,20.5 0,1 0,2 3,5 3,8 0,3 -2,5 -2,1 -4,1 -4,0 -12,-9 -8,-9 -17,-24 -25,-42 -51,-52 -27,-12 -29.5,-19 -2.5,-7 -2.5,-9 0,-9 19,-16 11,-3 17.5,-7.5 6.5,-4.5 6.5,-6.5 0,-4 -21.5,-16 -21.5,-12 -50,-25.5 -28.5,-13.5 -57.5,-26.5 -29,-13 -50,-18 -27,-7 -59,-7 -32,0 -46,11 -12,8 -17,8 -3,0 -3.5,-2 -0.5,-2 -0.5,-4 0,-8 10,-25 10,-18 17,-39.5 7,-21.5 11.5,-43.5 4.5,-22 5.5,-34 1,-12 1,-17 0,-9 -2,-12 -2,-3 -2.5,-15.5 -0.5,-12.5 -0.5,-20.5 0,-20 -4.5,-45 -4.5,-25 -11.5,-46 -10,-35 -10,-50 0,-1 0,-5 0,-4 3,-4 3,0 9,8 14,18 32.5,24 18.5,6 33.5,6 10,0 20,-2 20,-4 52.5,-17 32.5,-13 64,-28 31.5,-15 55,-29.5 23.5,-14.5 25.5,-22.5 2,-4 8.5,-11 6.5,-7 14.5,-12 8,-3 17.5,-17 9.5,-14 17.5,-31 z m 37,47 q -2,-3 -4,-6 0,-1 -1,-1 -1,-2 -2,-3 l -1,-2 q -3,-5 -6,-9 -6,-9 -9,-9 -2,0 -6,5 -4,5 -7,12 -3,7 -4,12 -1,5 -1,8 0,2 0,3 1,1 1,3 0,2 -2.5,5 -2.5,3 -7.5,7 -6,3 -8,4.5 -2,1.5 -2,2.5 0,1 5,5 5,4 21.5,12 16.5,8 48.5,24 l 72,34 -36,-39 q -14,-17 -29,-36 -15,-19 -22,-32 z m 35,101 q -21,-11 -40,-20 -19,-9 -35,-16 -16,-7 -26,-11 -10,-4 -14,-4 -5,0 -22,7 -17,7 -36,17.5 -19,10.5 -37,22 -18,11.5 -27,19.5 -9,8 -9,11.5 0,3.5 7,8.5 10,7 33,13.5 23,6.5 49,12 26,5.5 41.5,7.5 15.5,2 20.5,2 7,0 9,-2 1,-1 1,-6 0,-3 -0.5,-10 -0.5,-7 -2.5,-20 -5,-18 -5,-28 0,-7 2.5,-9.5 2.5,-2.5 6.5,-2.5 9,0 27,9 14,8 30.5,12 16.5,4 30.5,4 19,0 22.5,4.5 3.5,4.5 3.5,6.5 0,4 -10,8 -8,3 -13.5,8.5 -5.5,5.5 -8.5,11.5 -1,3 -1,5.5 0,2.5 3.5,3.5 3.5,1 12.5,1 9,0 24,-1 13,-1 22,-1 7,0 16,1 9,1 9,4 0,4 -14,7 -14,3 -31,4 -21,2 -37.5,5.5 -16.5,3.5 -19.5,6.5 -2,3 -5.5,14 -3.5,11 -5.5,25 l -6,33 h 107 q 43,0 74,2 31,2 31,5 0,3 -31,6 -31,3 -74,6 -45,1 -76,2.5 -31,1.5 -33,3.5 0,1 -1.5,13.5 -1.5,12.5 -2.5,29.5 l -5,42 h 90 q 36,0 60,1.5 24,1.5 24,3.5 0,0 0,0 -3,2 -29,6 -26,4 -60,8 l -84,7 -1,41 q -1,11 -1,21 0,4 0.5,12.5 0.5,8.5 1.5,8.5 7,0 32.5,-13 25.5,-13 57,-32 31.5,-19 64,-40.5 32.5,-21.5 53.5,-37.5 26,-22 51,-40.5 25,-18.5 32,-22.5 7,-5 8.5,-7.5 1.5,-2.5 1.5,-4.5 0,-3 -5,-9.5 -5,-6.5 -21,-20 -16,-13.5 -33,-26.5 -52,-42 -101,-73.5 -49,-31.5 -95,-55.5 z m -27,32 q -8,-2 -18.5,-6 -10.5,-4 -17.5,-8 -10,-5 -12.5,-5 -2.5,0 -2.5,2 0,2 1,4 2,4 4,13 2,9 3,12 6,26 14,27 8,1 9,1 14,0 28,-22 6,-8 6,-11 0,0 -0.5,-1.5 -0.5,-1.5 -13.5,-5.5 z m -298,50 q 20,-22 30.5,-34 10.5,-12 11,-14.5 0.5,-2.5 0.5,-2.5 0,-3 -6,-3 -2,0 -7.5,0.5 -5.5,0.5 -23.5,5.5 -11,2 -20.5,2.5 -9.5,0.5 -12.5,0.5 -12,0 -22,-2 -7,-1 -11,-1 -6,0 -7.5,1.5 -1.5,1.5 -1.5,6.5 0,5 1,12 1,3 4.5,18.5 3.5,15.5 5.5,31.5 l 6,35 z m 74,2 q 0,-15 -2.5,-24.5 -2.5,-9.5 -8.5,-9.5 0,0 -4,0.5 -4,0.5 -18,13.5 -14,13 -36,37 -27,28 -44.5,49 -17.5,21 -17.5,25 0,3 9.5,15.5 9.5,12.5 23.5,29 14,16.5 31.5,34.5 17.5,18 33,33 15.5,15 28,24.5 12.5,9.5 16.5,9.5 6,0 6,-12 0,-1 -0.5,-9 -0.5,-8 -5,-25.5 -4.5,-17.5 -11,-32.5 -6.5,-15 -13.5,-17 -5,-1 -5,-6 0,0 0.5,-3 0.5,-3 6.5,-15 10,-19 10,-28 0,-1 -0.5,-5.5 -0.5,-4.5 -12.5,-25.5 -10,-21 -10,-30 0,-6 5,-6 3,0 8,2 1,0 3,0 8,0 8,-24 z m 36,-21 q -5,-2 -9,-3 -4,-1 -7,-3 -4,-1 -7,-2 -1,0 -1,3 0,2 0,4 0,2 0,3 1,1 1,3 0,1 0,3 0,1 1,3 0,1 0,2 2,18 4.5,20.5 2.5,2.5 6.5,2.5 4,0 10,-2 7,-2 19.5,-5 12.5,-3 23.5,-6 l 28,-4 -24,-6 q -9,-2 -23,-6.5 -14,-4.5 -23,-6.5 z m 174,50 q 5,-15 5,-20 0,-1 -0.5,-4 -0.5,-3 -6.5,-3 -14,0 -14,33 0,20 4,20 0,0 2.5,-0.5 2.5,-0.5 9.5,-25.5 z m -28,17 q -4,-27 -8,-32.5 -4,-5.5 -15,-5.5 -10,0 -27,3 -13,2 -37,6.5 -24,4.5 -39.5,7.5 -15.5,3 -23.5,6 -8,3 -14,7 -6,5 -6,7 0,1 1,2.5 1,1.5 16,6.5 13,4 33,8.5 20,4.5 42.5,8 22.5,3.5 43,6.5 20.5,3 26.5,3 9,0 9.5,-4.5 0.5,-4.5 0.5,-7.5 0,-8 -2,-22 z m -93,37 q -19,-2 -37,-6 -18,-4 -26,-7 -4,-1 -7,-1 -3,0 -4.5,1.5 -1.5,1.5 -1.5,8.5 0,4 1,12 l 3,26 117,-25 z m 104,57 q -2,-13 -4,-22 -2,-9 -8,-10 -3,-1 -9,-1 -8,0 -28.5,2.5 -20.5,2.5 -48.5,7.5 -28,5 -51,10.5 -23,5.5 -25,9.5 0,1 0,1 0,3 6.5,8 6.5,5 21.5,10.5 15,5.5 35.5,11 20.5,5.5 46.5,10.5 22,4 30.5,5 8.5,1 11.5,1 9,0 15,-3.5 6,-3.5 7,-10.5 1,-7 1,-14 0,-7 -1,-16 z m -205,110 q 0,0 0,0 0,-2 -16.5,-19.5 -16.5,-17.5 -40.5,-43.5 l -59,-59 -8,36 q -4,16 -8,30.5 -4,14.5 -8,20.5 -1,3 -1,5 0,5 5,7 5,2 26,2 21,0 42,3 21,3 34,8 7,2 13,3.5 6,1.5 11,3.5 5,2 10,3 z m 98,-64 q -12,-4 -27.5,-9 -15.5,-5 -20.5,-7 -5,-2 -8,-2 -3,0 -3.5,2 -0.5,2 -0.5,6 0,7 2,22 2,7 2.5,13 0.5,6 1.5,12 1,4 2,9 2,0 21,-4 19,-4 46,-12 28,-7 39,-11.5 11,-4.5 11,-5.5 0,-1 -4,-1 -7,0 -23.5,-3 -16.5,-3 -37.5,-9 z m 102,77 q -1,-14 -2,-23 -1,-9 -3,-13 -2,-4 -6,-5 -4,-1 -12,-1 -22,1 -45.5,5.5 -23.5,4.5 -43,10.5 -19.5,6 -31,12 -11.5,6 -11.5,11 0,1 0,1 0,4 17.5,15 17.5,11 40.5,24 20,10 31.5,16 11.5,6 17.5,7.5 6,1.5 9,1.5 3,0 7,-1 4,-1 12,-5 8,-4 12,-7.5 4,-3.5 6,-9 2,-5.5 2,-14.5 0,-9 -1,-25 z m 53,67 q 8,-9 15,-17.5 7,-8.5 14,-17.5 4,-5 9,-12 -1,0 -16,7 -2,2 -4,3 h -2 q 0,1 -1,1 l -1,1 q -2,1 -4,2 l -4,2 q -3,1 -6,2 l -2,2 q -1,0 -1,0 h -1 q -2,2 -4,3 h -1 q -1,0 -1,0 l -1,1 q -26,12 -53.5,24.5 -27.5,12.5 -44.5,19.5 l -42,19 28,14 q 12,6 24,16 12,10 18,19 l 12,21 14,-30 q 6,-13 22,-36 16,-23 33,-44 z"
     id="path1" />
</svg>
