<?xml version="1.0" encoding="UTF-8" standalone="no"?>
<svg
   width="2000"
   height="2000"
   version="1.1"
   id="svg1"
   sodipodi:docname="u1218D.svg"
   inkscape:version="1.3.2 (091e20e, 2023-11-25)"
   xmlns:inkscape="http://www.inkscape.org/namespaces/inkscape"
   xmlns:sodipodi="http://sodipodi.sourceforge.net/DTD/sodipodi-0.dtd"
   xmlns="http://www.w3.org/2000/svg"
   xmlns:svg="http://www.w3.org/2000/svg">
  <defs
     id="defs1" />
  <sodipodi:namedview
     id="namedview1"
     pagecolor="#505050"
     bordercolor="#eeeeee"
     borderopacity="1"
     inkscape:showpageshadow="0"
     inkscape:pageopacity="0"
     inkscape:pagecheckerboard="0"
     inkscape:deskcolor="#505050"
     inkscape:zoom="0.379"
     inkscape:cx="1000"
     inkscape:cy="998.68074"
     inkscape:window-width="1392"
     inkscape:window-height="1212"
     inkscape:window-x="0"
     inkscape:window-y="0"
     inkscape:window-maximized="0"
     inkscape:current-layer="svg1" />
  <path
     d="m 856.5,684 q 21,-22 37.5,-37 16.5,-15 21.5,-16 1,0 2,0 2,0 2,3 0,2 -1.5,8 -1.5,6 -18.5,27 -23,29 -32,50.5 -9,21.5 -9,36.5 0,7 2,13 1,11 4.5,19 3.5,8 8.5,8 17,0 112,-89 59,-56 65.5,-58 6.5,-2 7.5,-2 2,0 2,1 0,6 -16,28 -5,9 -14,24.5 -9,15.5 -15,26.5 -11,22 -12,28.5 -1,6.5 -1,7.5 0,10 13.5,15.5 13.5,5.5 47.5,8.5 34,3 97,6 50,1 71.5,1.5 21.5,0.5 32.5,0.5 10,0 21,-0.5 11,-0.5 15,-3.5 4,-3 4,-7 0,-6 -5.5,-14.5 -5.5,-8.5 -13.5,-16.5 -8,-8 -16,-14 -8,-6 -12,-6 -3,0 -6,-3 -3,-3 -3,-5 0,-5 28.5,-7 28.5,-2 77.5,-2 49,0 78,2 29,2 29,7 0,2 -7.5,5 -7.5,3 -16.5,3 -24,0 -47,22 -23,22 -32,54 -4,19 -5.5,25.5 -1.5,6.5 -1.5,9.5 0,5 4,9 4,4 15.5,5 11.5,1 30.5,1 27,0 44.5,2 17.5,2 18.5,5 1,2 1,3 0,5 -15,5 -13,0 -23.5,4.5 -10.5,4.5 -16.5,11.5 -12,12 -23,46 -11,34 -20.5,85.5 -9.5,51.5 -16.5,118.5 -7,67 -12,141 -3,55 -6,71 -3,16 -5,16 -1,0 -2.5,-6.5 -1.5,-6.5 -3,-42 -1.5,-35.5 -1.5,-94.5 l 3,-143 -163,-3 -162,-1 -5,43 q -2,17 -2,32.5 0,15.5 2,18.5 5,9 162,9 75,0 115.5,2 40.5,2 40.5,6 0,3 -41,5 -41,2 -116,2 h -159 l 4,21 q 4,11 9,19 5,8 19,16 13,8 34,23 21,15 38.5,28.5 17.5,13.5 28.5,23 11,9.5 11,13.5 0,2 -1,2.5 -1,0.5 -2,0.5 -2,0 -8,-3 -6,-3 -19,-12 -8,-5 -18,-12 l -1,-1 q -3,-1 -5,-3 l -2,-1 q -2,-1 -5,-3 l -2,-2 q -2,-1 -5,-3 -19,-15 -41.5,-27 -22.5,-12 -31.5,-16 -12,-5 -21.5,-6 -9.5,-1 -14.5,-1 -6,0 -14,1 -8,1 -15,4.5 -7,3.5 -7,6.5 0,4 14.5,16.5 14.5,12.5 34.5,26.5 25,18 39,32 14,14 14,25 0,4 -1,4 -2,0 -4,-3 -5,-8 -23,-21.5 -18,-13.5 -38.5,-27 -20.5,-13.5 -36.5,-22.5 -16,-9 -22,-9 -1,0 -2,0 -1,1 -2,1 -4,0 -12,-8 -9,-12 -27,-12 -4,0 -17,1.5 -13,1.5 -35,19.5 -14,12 -22,12 -2,0 -4,-1 -2,-1 -2,-3 0,-6 14,-19 7,-5 18.5,-18 11.5,-13 20.5,-25 l 24,-30 -84,3 q -42,1 -73.5,5.5 -31.5,4.5 -55.5,11.5 -24,7 -41.5,18 -17.5,11 -36.5,31 -19,20 -24,21 -5,1 -5,1 -3,0 -3,-3 0,-5 6,-18 5,-8 6.5,-24 1.5,-16 1.5,-29 0,-14 -1,-31 0,-10 0,-18 0,-13 1,-26 1,-13 5,-13 3,0 17,4 14,4 35,13 21,8 35.5,13 14.5,5 20,6 5.5,1 8.5,1 3,0 4.5,-1.5 1.5,-1.5 1.5,-7.5 0,-11 -6,-11 -1,0 -2.5,-10 -1.5,-10 -2,-26.5 -0.5,-16.5 -1,-38.5 -0.5,-22 -0.5,-47 0,-36 -1,-60.5 -1,-24.5 -2.5,-40 -1.5,-15.5 -4,-25.5 -2.5,-10 -8.5,-21 -4,-7 -8,-16 -4,-9 -4,-10 0,-3 21,-4 21,-1 38,-1 18,0 38,1 h 3 q 1,0 2,0 h 6 q 0,0 1,0 h 4 q 1,0 1,0 h 2 q 0,0 1,0 h 24 q 1,0 2,0 h 6 q 1,0 2,0 h 3 q 1,0 2,0 h 1 q 1,0 1,0 h 20 q 19,0 34.5,-0.5 15.5,-0.5 24.5,-0.5 h 42 l -23,-20 q -9,-7 -15.5,-11 -6.5,-4 -15.5,-5.5 -9,-1.5 -21,-1.5 -3,0 -13.5,0.5 -10.5,0.5 -27.5,1.5 -53,2 -84,6.5 -31,4.5 -54.5,11.5 -23.5,7 -41.5,17.5 -18,10.5 -39,31.5 -6,7 -15,15 -9,8 -11,8 -1,0 -1,0 0,-1 0,-4 0,-3 0.5,-10 0.5,-7 3.5,-17 6,-18 6.5,-31 0.5,-13 0.5,-16 0,-20 -3,-46 -1,-15 -1,-24 0,-6 0.5,-9 0.5,-3 5.5,-3 9,0 31,8 25,8 69,20 44,12 75,18 31,6 48,6 2,0 11.5,-0.5 9.5,-0.5 9.5,-6.5 0,-4 -9.5,-7 -9.5,-3 -23.5,-3 h -33 l 33,-22 q 7,-5 16.5,-13.5 9.5,-8.5 20.5,-18.5 11,-10 22.5,-21 11.5,-11 20.5,-20 z m -13,53 q 2,-9 2,-13 0,-4 -1,-4 -1,0 -1,0 -4,0 -21,19 -20,20 -20.5,23.5 -0.5,3.5 -0.5,3.5 0,5 8,5 2,0 3,0 22,-3 31,-34 z m 146,9 q 2,-6 3.5,-11.5 1.5,-5.5 1.5,-7.5 0,-2 -1,-2 -2,0 -9,5 -7,5 -14.5,12 -7.5,7 -13.5,13.5 -6,6.5 -6,9.5 0,5 15,10 1,0 3,0 6,0 10,-4 4,-4 11,-25 z m 388,-4 q 1,-2 1,-3 0,-3 -7.5,-4.5 -7.5,-1.5 -30.5,-1.5 h -45 l 22,43 q 16,33 18,34.5 2,1.5 2,1.5 4,0 9,-16 3,-8 7,-17.5 4,-9.5 10,-16.5 3,-3 7.5,-9 4.5,-6 6.5,-11 z m -728,42 q -14,-4 -31.5,-9.5 -17.5,-5.5 -21.5,-6.5 -4,-2 -7,-2 -5,0 -6.5,5.5 -1.5,5.5 -1.5,34.5 0,33 1.5,35.5 1.5,2.5 4.5,2.5 3,0 11,-4 8,-6 23.5,-11.5 15.5,-5.5 29.5,-10.5 38,-10 38.5,-13 0.5,-3 0.5,-3 0,-6 -41,-18 z m 374,40 q -18,-12 -33.5,-16.5 -15.5,-4.5 -41.5,-4.5 -18,0 -32.5,2 -14.5,2 -16.5,5 -1,1 -1,2 0,3 5,8.5 5,5.5 12,11.5 14,10 31,14 17,4 46,5 12,1 23,1 7,0 19,-1 12,-1 13,-3 1,0 1,-1 0,-3 -6,-9 -6,-6 -19,-14 z m 293,-16 -140,-3 h -4 q -1,0 -2,0 h -3 q -1,0 -2,0 h -3 q -1,0 -1,0 h -2 q 0,0 -1,0 h -4 q -1,0 -2,0 h -29 q -26,0 -45,0.5 -19,0.5 -30,1 -11,0.5 -11,1.5 0,1 8,9.5 8,8.5 19,17.5 25,23 25.5,26.5 0.5,3.5 0.5,3.5 0,6 -19,6 -3,0 -6,0 -14,0 -21.5,3.5 -7.5,3.5 -14.5,17.5 -3,9 -8,23 -5,14 -7,25 l -3,24 h 288 l -1,-18 q -1,-9 -5.5,-21.5 -4.5,-12.5 -10,-23.5 -5.5,-11 -11,-19 -5.5,-8 -10.5,-8 -5,0 -5,-5 0,-6 9.5,-8 9.5,-2 24.5,-2 22,0 25,-3.5 3,-3.5 3,-11.5 0,-5 -1,-12 z m -600,63 q -2,-2 -11,-3.5 -9,-1.5 -19,-1.5 h -26 l 11,38 q 5,14 8.5,30.5 3.5,16.5 3.5,30.5 0,8 0.5,8.5 0.5,0.5 0.5,0.5 1,0 7,-12 5,-13 10.5,-29 5.5,-16 9,-29.5 3.5,-13.5 4.5,-20.5 1,-7 1,-10 z m 99,1 q 0,0 0,-1 0,-2 -8,-3.5 -8,-1.5 -20,-1.5 -17,0 -20,2 -3,2 -3,5 0,3 1,7 2,5 6,22.5 4,17.5 8,37.5 l 9,45 13,-54 q 6,-22 10,-39.5 4,-17.5 4,-19.5 z m 100,7 q 2,-4 2,-6 0,-3 -4,-5 -4,-2 -22,-2 -17,0 -21.5,2 -4.5,2 -4.5,7 0,2 1,4 1,3 5.5,20.5 4.5,17.5 7.5,38.5 l 11,50 9,-47 q 5,-20 9,-38 4,-18 7,-24 z m 91,37 q 3,-11 3,-19 0,-28 -28,-30 -3,0 -6,0 -5,0 -7,1 -2,1 -2,4 0,3 3,11 2,8 5,23 0,4 1,7 v 1 q 0,3 1,5 v 1 q 1,4 1,7 3,22 6.5,31.5 3.5,9.5 5.5,9.5 2,0 8,-19 6,-19 9,-33 z m 378,-25 q 4,-8 4,-11 0,0 -0.5,-1.5 -0.5,-1.5 -5.5,-2.5 -5,-1 -15,-1.5 -10,-0.5 -27,-0.5 h -51 l 15,37 q 5,16 12.5,45.5 7.5,29.5 12.5,55.5 l 11,63 6,-39 q 2,-13 6.5,-32.5 4.5,-19.5 10,-40.5 5.5,-21 11.5,-41 6,-20 10,-31 z m -521,53 q 0,-12 -3,-26 -3,-14 -9,-29 -6,-12 -7.5,-12.5 -1.5,-0.5 -1.5,-0.5 -2,0 -8,10 -3,7 -8,19.5 -5,12.5 -8,25.5 -4,12 -4,20 0,7 4.5,12 4.5,5 23.5,5 15,0 18,-5.5 3,-5.5 3,-18.5 z m -103,-20 q -6,-46 -11.5,-47 -5.5,-1 -5.5,-1 -10,0 -20,35 -4,14 -4,20 0,2 1,5 1,3 20,10 5,2 9.5,3.5 4.5,1.5 6.5,1.5 2,0 4,-1.5 2,-1.5 2,-6.5 0,-1 -0.5,-5.5 -0.5,-4.5 -1.5,-13.5 z m 198,-10 q -10,-35 -17,-35 -7,0 -20,39 -5,13 -7.5,22.5 -2.5,9.5 -2.5,14.5 0,3 1,6.5 1,3.5 7.5,5 6.5,1.5 16.5,1.5 25,0 27,-6.5 2,-6.5 2,-10.5 0,-12 -7,-37 z m -208,53 q -11,-7 -22,-7 -3,0 -12,1.5 -9,1.5 -9,16.5 0,8 2.5,9.5 2.5,1.5 7.5,1.5 4,0 11,-1 23,-7 26.5,-9.5 3.5,-2.5 3.5,-3.5 0,-3 -8,-8 z m 555,15 q 0,-1 -12,-2 -12,-1 -32,-2 -20,-1 -47,-1.5 -27,-0.5 -62,-0.5 -36,0 -64,0.5 -28,0.5 -45.5,2 -17.5,1.5 -25,3 -7.5,1.5 -7.5,4.5 -2,4 -4,16 -2,12 -4,26 l -6,35 h 324 l -6,-38 q -2,-16 -4.5,-28 -2.5,-12 -4.5,-15 z m -333,40 q -1,-16 -2.5,-25 -1.5,-9 -6,-13 -4.5,-4 -12,-4 -7.5,0 -20.5,3 -9,2 -14,4 -5,2 -7.5,6 -2.5,4 -3.5,11.5 -1,7.5 -1,20.5 l -3,38 h 72 z m -96,-2 q -2,-13 -4,-20 -2,-7 -5,-10.5 -3,-3.5 -9.5,-4 -6.5,-0.5 -13.5,-0.5 -27,0 -35.5,10 -8.5,10 -8.5,38 0,21 5.5,25 5.5,4 25.5,8 14,2 22,2 3,0 9,-0.5 6,-0.5 10.5,-5.5 4.5,-5 5,-11 0.5,-6 0.5,-8 0,-9 -2,-23 z m -100,8 q -2,-26 -7,-28.5 -5,-2.5 -10,-2.5 -9,0 -27,6 -27,8 -27,20 0,1 1,8 1,7 37,17 8,2 14.5,3.5 6.5,1.5 9.5,1.5 3,0 6,-1.5 3,-1.5 3.5,-6 0.5,-4.5 0.5,-6.5 0,-5 -1,-11 z m -35,35 q -26,-7 -34,-7 -2,0 -5.5,1 -3.5,1 -3.5,18 0,14 3,15.5 3,1.5 6,1.5 5,0 13,-2 40,-11 41.5,-13 1.5,-2 1.5,-3 0,-4 -22,-11 z m 233,15 h -36 q -15,0 -23,1 -8,1 -12.5,6.5 -4.5,5.5 -6.5,18 -2,12.5 -5,35.5 l -4,42 h 87 z m -95,24 q 0,-11 -7,-13 -7,-2 -30,-2 -17,0 -29.5,1 -12.5,1 -14.5,3 -2,2 -4,17.5 -2,15.5 -2,33.5 v 47 h 77 l 6,-36 q 1,-16 2.5,-31 1.5,-15 1.5,-20 z m -102,36 q 0,-19 -2,-29.5 -2,-10.5 -6,-12.5 -4,-2 -8,-2 -4,0 -12.5,2.5 -8.5,2.5 -22.5,9.5 -22,11 -26.5,18.5 -4.5,7.5 -4.5,27.5 0,7 0.5,12.5 0.5,5.5 3.5,9 3,3.5 9,5.5 6,2 16,4 18,4 28,4 10,0 15.5,-4.5 5.5,-4.5 7.5,-15.5 2,-11 2,-29 z m -152,35 q -19,-6 -36,-11 -17,-5 -19,-5 -2,0 -4,13 -2,13 -2,37 0,26 1.5,29 1.5,3 3.5,3 4,0 13,-5 8,-5 22,-11.5 14,-6.5 28,-11.5 36,-10 36,-16 0,0 -0.5,-3.5 -0.5,-3.5 -42.5,-18.5 z m 325,31 q 0,-4 -8.5,-6 -8.5,-2 -19,-2 -10.5,0 -20,2 -9.5,2 -11.5,6 -3,3 -3,11 0,1 0.5,6 0.5,5 2.5,14.5 2,9.5 5.5,16.5 3.5,7 6.5,7 3,0 10.5,-7 7.5,-7 16,-16.5 8.5,-9.5 14.5,-18.5 6,-9 6,-13 z m 34,19 q -5,-11 -12,-11 -4,0 -9,5 -6,5 -6,9 0,2 2,5.5 2,3.5 13,3.5 13,0 13,-8 0,-2 -1,-4 z m -122,27 q 11,-1 11,-11 0,-4 -2,-9 -3,-7 -4,-7.5 -1,-0.5 -1,-0.5 -2,0 -8,7 -8,10 -8,15 0,2 0.5,4.5 0.5,2.5 6.5,2.5 2,0 5,-1 z"
     id="path1" />
</svg>
