<?xml version="1.0" encoding="UTF-8" standalone="no"?>
<svg
   width="2000"
   height="2000"
   version="1.1"
   id="svg1"
   sodipodi:docname="u121E1.svg"
   inkscape:version="1.3.2 (091e20e, 2023-11-25)"
   xmlns:inkscape="http://www.inkscape.org/namespaces/inkscape"
   xmlns:sodipodi="http://sodipodi.sourceforge.net/DTD/sodipodi-0.dtd"
   xmlns="http://www.w3.org/2000/svg"
   xmlns:svg="http://www.w3.org/2000/svg">
  <defs
     id="defs1" />
  <sodipodi:namedview
     id="namedview1"
     pagecolor="#505050"
     bordercolor="#eeeeee"
     borderopacity="1"
     inkscape:showpageshadow="0"
     inkscape:pageopacity="0"
     inkscape:pagecheckerboard="0"
     inkscape:deskcolor="#505050"
     inkscape:zoom="0.379"
     inkscape:cx="1000"
     inkscape:cy="998.68074"
     inkscape:window-width="1392"
     inkscape:window-height="1212"
     inkscape:window-x="0"
     inkscape:window-y="0"
     inkscape:window-maximized="0"
     inkscape:current-layer="svg1" />
  <path
     d="m 1136,637 q 0,-3 2,-3 3,0 7,3 12,4 41.5,6.5 29.5,2.5 54.5,3.5 48,3 73.5,5.5 25.5,2.5 25.5,3.5 0,2 -6,7 -6,5 -9,8 -13,11 -23.5,27.5 -10.5,16.5 -21,36.5 -10.5,20 -18,42.5 -7.5,22.5 -10.5,36.5 -3,15 -4,40.5 -1,25.5 -2.5,62 -1.5,36.5 -2,81.5 -0.5,45 -0.5,99 0,96 -2.5,157.5 -2.5,61.5 -5.5,61.5 -3,0 -6,-61.5 -3,-61.5 -4,-169.5 -2,-61 -2.5,-106 -0.5,-45 -3,-74.5 -2.5,-29.5 -5.5,-47.5 -3,-18 -7,-34 l -15,-51 h -156 q -54,0 -87,0.5 -33,0.5 -55,3 -22,2.5 -37,6 -15,3.5 -30,8.5 -31,10 -59,22 -28,12 -46,21 -10,6 -20,11 -10,5 -13,5 -1,0 -1,-1 -1,-1 -1,-6 0,-3 0.5,-11 0.5,-8 3.5,-22 3,-19 4,-34.5 1,-15.5 1,-23.5 0,-15 -2,-29 -2,-12 -2,-25.5 0,-13.5 3,-16.5 1,-1 3,-1 3,0 10.5,5 7.5,5 19.5,16 21,18 37.5,27.5 16.5,9.5 42,15.5 25.5,6 67.5,7.5 42,1.5 105,3.5 81,1 134.5,1 53.5,0 60.5,-3 5,-2 5,-9 0,-2 -1.5,-8.5 -1.5,-6.5 -16.5,-40.5 -12,-21 -19,-38.5 -7,-17.5 -7,-18.5 z m 113,30 q -23,0 -41.5,-1.5 -18.5,-1.5 -26.5,-4.5 -4,-1 -6,-1 -5,0 -5,6 0,1 1,7.5 1,6.5 16,45.5 9,21 16.5,44.5 7.5,23.5 10.5,36.5 3,11 6,20 3,9 6,9 3,0 7.5,-11.5 4.5,-11.5 9.5,-26.5 3,-18 12.5,-41 9.5,-23 20.5,-41 l 24,-42 z m -509,63 q -7,-5 -17,-10 -10,-5 -13,-5 -1,0 -2.5,15.5 -1.5,15.5 -1.5,38.5 0,40 3,45 3,5 7,5 5,0 15,-7 11,-7 29,-14 18,-7 36,-14 l 43,-14 -33,-10 Q 791,755 774,747.5 757,740 740,730 Z m 257,82 q 15,-9 19.5,-9 4.5,0 7.5,8 4,13 17.5,15.5 13.5,2.5 52.5,2.5 36,0 55.5,2 19.5,2 19.5,10 0,4 -9,4 -6,0 -15.5,4.5 -9.5,4.5 -18.5,12.5 -14,12 -17.5,21.5 -3.5,9.5 -3.5,32.5 v 34 h 31 q 34,0 34,8 0,5 -11,12 -54,36 -54,159 v 73 h 52 q 26,0 37.5,2.5 11.5,2.5 11.5,5.5 0,0 -1,1 -1,3 -16,5.5 -15,2.5 -36,2.5 h -48 v 73 q 0,33 -2.5,53.5 -2.5,20.5 -6.5,20.5 -3,0 -5.5,-20.5 -2.5,-20.5 -2.5,-53.5 v -73 h -91 q -39,0 -69,2 -30,2 -59.5,8 -29.5,6 -60,16.5 -30.5,10.5 -69.5,27.5 -60,24 -66.5,25 -6.5,1 -7.5,1 -5,0 -5,-4 0,-2 2,-6 6,-10 10,-34 4,-24 8,-62 2,-16 4,-35.5 2,-19.5 8,-19.5 3,0 9,6 3,3 5,3 7,0 7.5,-15 0.5,-15 0.5,-24 0,-23 -2,-58 -2,-35 -7,-78 -5,-43 -16,-70 -4,-12 -7.5,-23.5 Q 678,867 678,863 q 0,-2 1,-3 1,-1 17.5,-1 16.5,0 36.5,3 16,1 26,2 h 2 q 4,0 8,0 3,0 7,0 8,0 17,-2 9,-2 20,-8 11,-6 29,-18 21,-12 39,-21.5 18,-9.5 21,-9.5 1,0 1,1 0,2 -7,13 -7,11 -24,29 -35,40 -35,54 0,8 10,8 4,0 4,2 0,1 -1,2 -2,3 -2,6 0,6 8.5,17.5 8.5,11.5 26.5,27.5 16,17 22.5,25.5 6.5,8.5 6.5,11.5 0,3 -4,4 -1,0 -3,0 -8,0 -18,-14 -6,-7 -9.5,-7 -3.5,0 -11.5,7 -19,20 -31,46 -12,26 -12,40 0,7 3,13 1,2 3.5,7 2.5,5 2.5,7 0,4 14,18.5 14,14.5 35,33.5 l 51,45 h 156 v -40 q 0,-27 -8,-59.5 -8,-32.5 -20,-60 -12,-27.5 -26.5,-47 Q 1019,976 1010,976 q -6,0 -14,12 -8,12 -16,22 -19,27 -23,36 -4,9 -4,15 0,8 5,17 2,5 2,8 0,3 -1,4 0,3 11.5,14 11.5,11 24.5,23 20,17 32,30.5 12,13.5 12,20.5 0,3 -2,3 -7,0 -30,-22 -34,-33 -69.5,-55.5 Q 902,1081 874,1076 q -20,-4 -20,-11 0,-7 21,-17 17,-8 35.5,-20.5 18.5,-12.5 36.5,-26 18,-13.5 31,-25.5 13,-12 13,-17 0,-4 -10.5,-14 Q 970,935 955,925.5 940,916 925.5,907.5 911,899 898,896 893,895 883.5,892.5 874,890 872,889 q -3,-1 -3,-2 0,-3 10.5,-10.5 Q 890,869 926,851 q 11,-6 35,-18 24,-12 36,-21 z m 28,30 q -7,-4 -13,-8.5 -6,-4.5 -9,-4.5 -3,4 -8,9 -3,3 -6.5,8 -3.5,5 -8.5,13 -12,16 -14,21.5 -2,5.5 -2,7.5 0,6 6,10 4,3 4,5 0,2 -1,4 -3,2 -3,5 0,2 3.5,6.5 3.5,4.5 15,10.5 11.5,6 26.5,10.5 15,4.5 31,7.5 l 42,6 v -24 q 0,-33 -63,-87 z m 77,21 q 7,-10 7,-14 0,-1 -2,-2.5 -2,-1.5 -23,-1.5 -23,0 -24,1.5 -1,1.5 -1,1.5 0,4 11,15 14,15 18,15 5,0 14,-15 z m -153,12 q 2,-5 2,-8 0,-3 -3,-3 -6,0 -19,8 -9,8 -9,11 0,3 8,6 3,1 5,1 11,0 16,-15 z m -126,11 q 1,-6 1,-9 0,-6 -1.5,-6.5 -1.5,-0.5 -2.5,-0.5 -5,0 -23,11 -13,8 -13.5,9 -0.5,1 -0.5,1 0,2 10,7 11,4 16,4 3,0 6,-1.5 3,-1.5 8,-14.5 z m -83,1 q 4,-4 4,-6 0,-1 -2,-2 -2,-1 -17,-1 -22,0 -23.5,2.5 -1.5,2.5 -1.5,4.5 0,5 6,17 9,21 13.5,22.5 4.5,1.5 5.5,1.5 5,0 5,-12 0,-16 10,-27 z m 66,38 q -21,-13 -36,-13 -24,0 -33,31 -3,12 -5,32 -2,20 -2,38 0,18 2,31 2,13 7,13 4,0 22,-11.5 18,-11.5 38.5,-25.5 20.5,-14 37.5,-27.5 17,-13.5 19,-18.5 1,-1 1,-3 0,-6 -15.5,-20 Q 826,937 806,925 Z m 321,55 q 5,-5 5,-8 0,-2 -4,-3.5 -4,-1.5 -37,-1.5 -33,0 -40,1.5 -7,1.5 -7,4.5 0,2 2,4 3,5 10,18 0,1 0,1 v 1 q 0,0 1,0 l 1,2 q 0,0 0,1 v 1 q 2,4 5,8 v 1 q 0,0 0,0 l 1,2 q 0,1 1,2 l 1,1 q 2,5 4,9 l 15,37 14,-33 q 6,-12 13.5,-26 7.5,-14 14.5,-22 z m -319,80 q 5,-16 5,-22 0,-3 -1,-3.5 -1,-0.5 -1,-0.5 -5,0 -30,18 l -26,20 23,7 q 11,4 16,4 3,0 6,-2 3,-2 8,-21 z m 127,-2 q 3,-10 3,-15 0,-8 -5,-8 -7,0 -23,13 l -20,15 20,4 q 12,4 17,4 1,0 3,-1 2,-1 5,-12 z m -126,60 q -19,-13 -36.5,-20.5 -17.5,-7.5 -26.5,-7.5 -10,0 -13,6.5 -3,6.5 -3,32.5 0,31 5,38.5 5,7.5 26,16.5 21,11 43,14.5 22,3.5 47,3.5 h 53 l -29,-28 Q 865,1162 844.5,1145.5 824,1129 809,1118 Z m -27,93 q 0,0 -1,0 h -1 q -2,-1 -3,-2 h -2 q 0,0 -1,-1 h -1 q -2,-1 -3,-2 h -2 q 0,0 0,-1 h -3 q -1,-1 -2,-2 h -2 q -1,0 -1,-1 h -2 q -1,-1 -3,-2 h -1 q -1,0 -1,-1 h -2 q -1,-1 -3,-2 h -1 q -1,0 -1,-1 -18,-7 -25,-13 -9,-5 -15,-6.5 -6,-1.5 -9,-1.5 -1,0 -2,0 -3,3 -4.5,18 -1.5,15 -1.5,36 v 47 l 32,-15 q 12,-6 31.5,-13.5 Q 772,1240 787,1235 l 37,-10 z"
     id="path1" />
</svg>
