<?xml version="1.0" encoding="UTF-8" standalone="no"?>
<svg
   width="2000"
   height="2000"
   version="1.1"
   id="svg1"
   sodipodi:docname="u121A1.svg"
   inkscape:version="1.3.2 (091e20e, 2023-11-25)"
   xmlns:inkscape="http://www.inkscape.org/namespaces/inkscape"
   xmlns:sodipodi="http://sodipodi.sourceforge.net/DTD/sodipodi-0.dtd"
   xmlns="http://www.w3.org/2000/svg"
   xmlns:svg="http://www.w3.org/2000/svg">
  <defs
     id="defs1" />
  <sodipodi:namedview
     id="namedview1"
     pagecolor="#505050"
     bordercolor="#eeeeee"
     borderopacity="1"
     inkscape:showpageshadow="0"
     inkscape:pageopacity="0"
     inkscape:pagecheckerboard="0"
     inkscape:deskcolor="#505050"
     inkscape:zoom="0.379"
     inkscape:cx="1000"
     inkscape:cy="998.68074"
     inkscape:window-width="1392"
     inkscape:window-height="1212"
     inkscape:window-x="0"
     inkscape:window-y="0"
     inkscape:window-maximized="0"
     inkscape:current-layer="svg1" />
  <path
     d="m 865.5,665.5 q 9,-25 13,-27 4,-2 5,-2 5,0 5,15 0,15 5,29.5 5,14.5 13,28 8,13.5 18,24.5 10,11 28,19 12,6 36,15 24,9 45.5,15.5 21.5,6.5 35,10 13.5,3.5 18.5,3.5 2,0 3,-1 2,-1 15.5,-1.5 13.5,-0.5 28,-1 14.5,-0.5 25.5,-0.5 10,0 26.5,0.5 16.5,0.5 35.5,1 19,0.5 32,1.5 13,1 14,2 1,1 1,2 0,2 -3.5,7 -3.5,5 -9.5,11 -8,9 -19.5,26.5 -11.5,17.5 -19.5,35.5 -8,15 -12.5,27.5 -4.5,12.5 -7,29 -2.5,16.5 -3.5,41.5 -1,25 -2,66 l -3,120 30,24 q 50,36 76,59.5 26,23.5 26,29.5 0,1 0,1 0,1 -2,1 -4,0 -18,-8.5 -14,-8.5 -43,-32.5 -21,-18 -35.5,-29 -14.5,-11 -20.5,-11 -2,0 -5.5,2 -3.5,2 -3.5,19 0,1 0.5,11.5 0.5,10.5 3.5,56.5 1,24 1.5,36 0.5,12 0.5,17 0,10 -1,16.5 -1,6.5 -2.5,7 -1.5,0.5 -1.5,0.5 -4,0 -43,-16 -60,-25 -126.5,-49 -66.5,-24 -114,-34.5 -47.5,-10.5 -83.5,-10.5 -4,0 -25,0.5 -21,0.5 -68,10.5 -17,4 -34.5,8.5 -17.5,4.5 -19.5,4.5 0,0 0,-1 0,-3 7.5,-22 7.5,-19 21.5,-48 l 34,-69 2,-109 q 0,-16 0,-31 0,-68 -8,-121.5 -8,-53.5 -33,-101.5 -5,-11 -9,-21 -4,-10 -4,-12 0,-1 16,-2 16,-1 37,-1 26,0 42,1.5 16,1.5 16,3.5 0,2 -4.5,14.5 -4.5,12.5 -11.5,25.5 -7,14 -10.5,25 -3.5,11 -5.5,28.5 -2,17.5 -3.5,44.5 -1.5,27 -2.5,70 l -3,129 26,51 q 11,20 25,41 14,21 24,30 20,14 94.5,45 74.5,31 183.5,69 l 69,24 v -42 q 0,-17 -1.5,-41.5 -1.5,-24.5 -3.5,-41.5 l -6,-42 -64,-39 q -27,-17 -58.5,-32 -31.5,-15 -66.5,-25 -10,-3 -23.5,-7 -13.5,-4 -16,-6 -2.5,-2 -2.5,-4 0,-2 3.5,-4.5 3.5,-2.5 13.5,-8.5 27,-16 27,-23 0,-1 -1.5,-4.5 -1.5,-3.5 -39.5,-8.5 -18,-2 -30,-2 -8,0 -18,1.5 -10,1.5 -27,12.5 -11,7 -23.5,18 -12.5,11 -19.5,20 -7,8 -12,12 -5,4 -7,4 -1,0 -2,-1 -1,-1 -1.5,-9.5 -0.5,-8.5 -0.5,-13.5 0,-10 1,-25 1,-15 2.5,-36 1.5,-21 3.5,-38.5 2,-17.5 4,-29.5 2,-12 3,-12 2,0 6.5,8 4.5,8 9.5,19 5,15 12.5,24.5 7.5,9.5 19.5,15.5 12,6 31,9.5 19,3.5 47,6.5 l 64,6 27,-29 q 11,-12 22,-29 11,-17 17,-31 9,-18 14,-18 2,0 4,2 2,2 2,9 0,9 -5,25 -4,16 -7.5,35 -3.5,19 -5,34.5 -1.5,15.5 -1.5,27.5 0,4 0.5,13 0.5,9 3.5,17 4,9 19,27 15,18 32,35 l 42,42 1,-73 q 0,-29 -1.5,-55.5 -1.5,-26.5 -7,-53.5 -5.5,-27 -14.5,-55 -9,-28 -22,-57 -7,-17 -11.5,-25 -4.5,-8 -14,-14 -9.5,-6 -26.5,-12.5 -17,-6.5 -35,-13.5 -39,-14 -56.5,-19.5 -17.5,-5.5 -28.5,-7.5 -11,-2 -19,-2 -2,0 -7.5,0.5 -5.5,0.5 -22.5,4.5 -12,3 -31.5,8.5 -19.5,5.5 -33.5,11.5 -8,4 -18,7.5 -10,3.5 -12,3.5 -2,0 -2,-3 0,-4 4.5,-17.5 4.5,-13.5 15.5,-36.5 11,-24 21.5,-49.5 10.5,-25.5 15.5,-37.5 z m 47,85 q -4,-3 -10.5,-14 -6.5,-11 -13.5,-23 l -14,-32 -16,45 q -8,20 -12,31 -4,11 -4,15 0,1 1,2 1,1 3,1 4,0 13,-2.5 9,-2.5 26,-5.5 28,-9 28,-15 0,-1 -1,-2 z m -138,17 q 1,-3 1,-6 0,-4 -4,-6 -4,-2 -24,-2 h -32 l 14,41 q 5,16 10,27.5 5,11.5 6,11.5 2,0 6,-7.5 4,-7.5 9,-21.5 2,-7 6,-19.5 4,-12.5 8,-17.5 z m 460,42 h -54 q -36,0 -45,2 -9,2 -9,16 0,13 6,17 5,3 11.5,17.5 6.5,14.5 12.5,36.5 11,36 16.5,44.5 5.5,8.5 6.5,8.5 3,0 3,-10 0,-15 7.5,-36 7.5,-21 17.5,-44 z m -174,187 q 1,-6 2,-14.5 1,-8.5 1,-10.5 0,-3 -1,-3 -2,0 -14.5,13.5 -12.5,13.5 -29.5,32.5 l -40,45 45,14 q 17,5 28,7.5 11,2.5 15,2.5 3,0 4,-1 1,-1 1,-2 0,-4 -4,-11 -9,-16 -9,-45 0,-13 2,-28 z m -199,8 -35,-35 -6,32 q -2,14 -2.5,19.5 -0.5,5.5 -0.5,7.5 0,6 2,7 0,1 1,1 1,0 6.5,-4.5 5.5,-4.5 14.5,-11.5 z m -78,164 q -8,-17 -17,-17 -3,0 -10,4.5 -7,4.5 -29,52.5 l -21,46 23,-4 q 9,-2 30.5,-5.5 21.5,-3.5 42.5,-5.5 l 54,-4 -30,-21 q -11,-9 -23.5,-21.5 -12.5,-12.5 -19.5,-24.5 z"
     id="path1" />
</svg>
