<?xml version="1.0" encoding="UTF-8" standalone="no"?>
<svg
   width="2000"
   height="2000"
   version="1.1"
   id="svg1"
   sodipodi:docname="u121B8.svg"
   inkscape:version="1.3.2 (091e20e, 2023-11-25)"
   xmlns:inkscape="http://www.inkscape.org/namespaces/inkscape"
   xmlns:sodipodi="http://sodipodi.sourceforge.net/DTD/sodipodi-0.dtd"
   xmlns="http://www.w3.org/2000/svg"
   xmlns:svg="http://www.w3.org/2000/svg">
  <defs
     id="defs1" />
  <sodipodi:namedview
     id="namedview1"
     pagecolor="#505050"
     bordercolor="#eeeeee"
     borderopacity="1"
     inkscape:showpageshadow="0"
     inkscape:pageopacity="0"
     inkscape:pagecheckerboard="0"
     inkscape:deskcolor="#505050"
     inkscape:zoom="0.379"
     inkscape:cx="1000"
     inkscape:cy="998.68074"
     inkscape:window-width="1392"
     inkscape:window-height="1212"
     inkscape:window-x="0"
     inkscape:window-y="0"
     inkscape:window-maximized="0"
     inkscape:current-layer="svg1" />
  <path
     d="m 791,688.5 q 0,-22 2,-37.5 2,-15.5 5,-15.5 2,0 10,7 8,7 19,18 15,16 28,26 13,10 34,15 21,5 56,7 35,2 113,4 35,0 53.5,0.5 18.5,0.5 24.5,0.5 19,0 30.5,-1.5 11.5,-1.5 12,-3 0.5,-1.5 0.5,-2.5 0,-3 -4,-11 0,0 0,0 0,-1 0,-1 l -1,-1 q 0,0 0,0 0,0 0,-1 0,0 0,0 -1,-1 -2,-3 0,0 0,-1 -1,0 -1,-1 0,0 0,-1 -3,-5 -3,-7 0,-1 11.5,-1 11.5,0 29,0.5 17.5,0.5 38,1.5 20.5,1 38.5,1.5 18,0.5 30,1.5 12,1 13,2 1,0 1,1 0,2 -5,10 -5,8 -9,14 -20,30 -29.5,50.5 -9.5,20.5 -14.5,55.5 -5,35 -6,92.5 -1,57.5 -1,145.5 0,60 -0.5,104 -0.5,44 -1,76.5 -0.5,32.5 -1.5,51.5 -1,19 -2,19 -6,0 -6,-8 0,-7 -6,-9 -6,-2 -25,-3.5 -19,-1.5 -53,-2 -34,-0.5 -93,-0.5 -59,0 -95.5,0.5 -36.5,0.5 -60.5,2.5 -24,2 -41,6 -17,4 -40,11 -29,9 -59.5,20.5 -30.5,11.5 -57.5,25.5 -5,3 -17.5,9.5 -12.5,6.5 -13.5,6.5 0,0 -1,0 -2,0 -2.5,-9 -0.5,-9 -0.5,-17 0,-8 0.5,-23 0.5,-15 1,-38 0.5,-23 1.5,-43.5 1,-20.5 2.5,-35 1.5,-14.5 2.5,-15.5 1,-1 2,-1 4,0 14,10 7,6 12.5,9.5 5.5,3.5 7.5,3.5 1,0 1.5,-11.5 0.5,-11.5 0.5,-31.5 v -1 q 0,-1 0,-2 v -1 q 0,-1 0,-2 v -2 q 0,-1 0,-1 v -2 q 0,0 0,-1 v -4 q 0,-1 0,-2 v -1 q 0,-1 0,-1 v -17 q 0,-1 0,-2 v -6 q 0,-26 -1,-63 -2,-50 -5,-91 -3,-41 -8.5,-73 -5.5,-32 -14,-57.5 -8.5,-25.5 -21.5,-50.5 -6,-14 -9,-24 -3,-10 -3,-14 0,-1 0,-1 2,-2 12.5,-2 10.5,0 24.5,2 13,3 23,3.5 10,0.5 13,0.5 12,0 21,-2 l 26,-4 z m 32,-10 q -3,-6 -6,-6 -3,0 -7,8 -4,8 -4,41 0,19 2,31 2,12 3,12 1,0 1,0 2,-1 17,-6.5 15,-5.5 32,-13.5 l 44,-19 -37,-17 q -15,-8 -27.5,-15 -12.5,-7 -17.5,-15 z m 474,24 q 0,0 0,0 0,-2 -13.5,-3.5 -13.5,-1.5 -38.5,-1.5 -16,0 -31,0.5 -15,0.5 -15,2.5 0,1 5.5,19 5.5,18 12.5,39 9,28 14.5,48.5 5.5,20.5 5.5,29.5 0,8 3,8 2,0 7,-4.5 5,-4.5 9,-26.5 2,-19 13.5,-49 11.5,-30 27.5,-62 z m -104,42 q -3,-5 -7.5,-8.5 -4.5,-3.5 -17,-5 -12.5,-1.5 -36.5,-2 -24,-0.5 -55,-0.5 -59,0 -90.5,2 -31.5,2 -57,7 -25.5,5 -49,15 -23.5,10 -47.5,23 -21,11 -31.5,15 -10.5,4 -15.5,4 -2,0 -4,-1 -1,-1 -2,-1 -5,0 -13,22 -8,22 -14,57 -4,27 -6,59 -2,32 -2.5,57 -0.5,25 -0.5,38 0,26 1,60 1,34 4,72 l 5,70 40,18 q 14,6 26,9.5 12,3.5 36,5 24,1.5 66.5,2.5 42.5,1 117.5,1 h 206 v -171 q -1,-57 -2,-93.5 -1,-36.5 -3,-62.5 -2,-26 -6,-46.5 -4,-20.5 -9,-40.5 -9,-40 -18,-68 -9,-28 -15,-37 z m -418,19 q 0,-1 -11,-1.5 -11,-0.5 -25,-0.5 -18,0 -29.5,1 -11.5,1 -11.5,3 1,6 7,24 6,18 13,36 7,18 11.5,28 4.5,10 6.5,10 0,0 0,-1 1,-6 6.5,-22.5 5.5,-16.5 18.5,-44.5 3,-6 8.5,-18.5 5.5,-12.5 5.5,-13.5 z m -32,473 q -5,-4 -14,-10 -9,-6 -11,-7 -2,-1 -3,-1 -5,0 -7,11.5 -2,11.5 -4,42.5 -1,19 -1,33 0,7 0.5,19 0.5,12 2.5,12 2,0 11,-4 9,-4 20,-11 11,-5 32,-13.5 21,-8.5 41,-13.5 l 46,-13 -44,-14 q -18,-5 -37,-13.5 -19,-8.5 -32,-17.5 z"
     id="path1" />
</svg>
