<?xml version="1.0" encoding="UTF-8" standalone="no"?>
<svg
   width="2000"
   height="2000"
   version="1.1"
   id="svg1"
   sodipodi:docname="u121B3.svg"
   inkscape:version="1.3.2 (091e20e, 2023-11-25)"
   xmlns:inkscape="http://www.inkscape.org/namespaces/inkscape"
   xmlns:sodipodi="http://sodipodi.sourceforge.net/DTD/sodipodi-0.dtd"
   xmlns="http://www.w3.org/2000/svg"
   xmlns:svg="http://www.w3.org/2000/svg">
  <defs
     id="defs1" />
  <sodipodi:namedview
     id="namedview1"
     pagecolor="#505050"
     bordercolor="#eeeeee"
     borderopacity="1"
     inkscape:showpageshadow="0"
     inkscape:pageopacity="0"
     inkscape:pagecheckerboard="0"
     inkscape:deskcolor="#505050"
     inkscape:zoom="0.379"
     inkscape:cx="1000"
     inkscape:cy="998.68074"
     inkscape:window-width="1392"
     inkscape:window-height="1212"
     inkscape:window-x="0"
     inkscape:window-y="0"
     inkscape:window-maximized="0"
     inkscape:current-layer="svg1" />
  <path
     d="m 1083.5,647.5 q 3,-8 9.5,-9 6.5,-1 8.5,-1 6,0 6,5 0,9 -14,28 -14,19 -53,61 -20,21 -42.5,46.5 -22.5,25.5 -33.5,42 -11,16.5 -13,26 -2,9.5 -2,17.5 0,6 1,13 0,26 8,38.5 8,12.5 40,35.5 l 46,34 84,-54 q 35,-24 69.5,-48.5 34.5,-24.5 46.5,-38.5 25,-24 35,-24 2,0 3.5,1 1.5,1 1.5,4 0,9 -22,33 -14,15 -35.5,42 -21.5,27 -30.5,39 -24,30 -32.5,43.5 -8.5,13.5 -12,22.5 -3.5,9 -3.5,18 0,1 0.5,7 0.5,6 2.5,17 4,31 17,50 13,19 49,55 48,43 63,64.5 15,21.5 15,27.5 0,4 -5,4 -6,0 -16.5,-10.5 -10.5,-10.5 -19.5,-21.5 -13,-18 -41,-44 -28,-26 -59,-52 -20,-16 -36.5,-28 -16.5,-12 -31.5,-20.5 -15,-8.5 -30.5,-13.5 -15.5,-5 -36.5,-10 l -66,-18 33,-16 q 13,-8 20.5,-14.5 7.5,-6.5 7.5,-9.5 0,-1 -1,-2 -3,-3 -19.5,-15.5 -16.5,-12.5 -33.5,-24.5 -36,-24 -63.5,-34.5 -27.5,-10.5 -65.5,-18.5 l -69,-13 45,-26 q 26,-13 70,-44.5 44,-31.5 89,-64.5 45,-33 79,-61 34,-28 38,-38 z m -132,153 q 5,-6 10,-13 5,-7 5,-9 0,-1 -1,-1 -3,0 -23.5,13.5 -20.5,13.5 -43.5,29.5 -23,16 -42,30 -19,14 -19,17 0,3 10,6 10,3 25,6 7,1 14,1 41,0 41,-28 0,-10 6,-22 6,-12 18,-30 z m 204,157 q 9,-10 12.5,-18 3.5,-8 3.5,-10 0,-2 -1,-2 -3,0 -25.5,13.5 -22.5,13.5 -49.5,31.5 -57,39 -58,45 -1,6 -1,7 0,11 52,14 10,1 17,1 8,0 12.5,-2.5 4.5,-2.5 7.5,-17.5 2,-14 10,-30.5 8,-16.5 20,-31.5 z m -250,2 q 3,-11 8.5,-12 5.5,-1 5.5,-1 8,0 8,11 0,8 -3.5,17.5 -3.5,9.5 -11.5,17.5 -4,7 -13,29 -9,22 -18,53 -5,11 -8,22 -3,11 -3,18.5 0,7.5 4,14.5 4,7 10,16 7,12 13,22.5 6,10.5 8,11.5 4,9 17.5,22 13.5,13 31.5,28 23,16 47,38 24,22 43.5,41.5 19.5,19.5 31.5,33.5 12,14 12,19 0,1 -1,1 -3,0 -18.5,-11 -15.5,-11 -43.5,-38 -30,-27 -67.5,-57 -37.5,-30 -74.5,-55 -37,-25 -70,-43.5 -33,-18.5 -55,-26.5 l -54,-18 28,-15 q 20,-9 47.5,-28.5 27.5,-19.5 54.5,-40.5 27,-21 47.5,-39 20.5,-18 23.5,-31 z m -44,100 q 3,-9 3,-15 0,-6 -2,-6 -1,0 -1,0 -4,0 -19,10 -15,10 -31.5,22 -16.5,12 -29.5,24 -13,12 -13,15 0,0 0,1 0,2 7.5,6.5 7.5,4.5 25.5,10.5 6,1 17.5,5.5 11.5,4.5 15.5,6.5 6,3 10,3 4,0 7,-4 3,-4 3,-23 0,-14 2,-30.5 2,-16.5 5,-25.5 z"
     id="path1" />
</svg>
