<?xml version="1.0" encoding="UTF-8" standalone="no"?>
<svg
   width="2000"
   height="2000"
   version="1.1"
   id="svg1"
   sodipodi:docname="u121F2.svg"
   inkscape:version="1.3.2 (091e20e, 2023-11-25)"
   xmlns:inkscape="http://www.inkscape.org/namespaces/inkscape"
   xmlns:sodipodi="http://sodipodi.sourceforge.net/DTD/sodipodi-0.dtd"
   xmlns="http://www.w3.org/2000/svg"
   xmlns:svg="http://www.w3.org/2000/svg">
  <defs
     id="defs1" />
  <sodipodi:namedview
     id="namedview1"
     pagecolor="#505050"
     bordercolor="#eeeeee"
     borderopacity="1"
     inkscape:showpageshadow="0"
     inkscape:pageopacity="0"
     inkscape:pagecheckerboard="0"
     inkscape:deskcolor="#505050"
     showgrid="false"
     inkscape:zoom="0.6205"
     inkscape:cx="999.1942"
     inkscape:cy="1000"
     inkscape:window-width="2560"
     inkscape:window-height="1412"
     inkscape:window-x="0"
     inkscape:window-y="0"
     inkscape:window-maximized="1"
     inkscape:current-layer="svg1" />
  <path
     d="m 808.5,710 q -2,-24 -2,-40 0,-39 10,-39 4,0 4,4 0,7 18,17.5 18,10.5 43.5,23 25.5,12.5 54,24.5 28.5,12 46.5,17 29,8 87.5,13 58.5,5 146.5,7 41,1 74,2.5 33,1.5 58,3.5 25,2 39,3.5 14,1.5 14,2.5 0,2 -17,3 -17,1 -47,2 -30,1 -69,1 h -8 q -1,0 -2,0 h -8 q -1,0 -2,0 h -3 q -1,0 -2,0 h -8 q -1,0 -3,0 h -2 q -1,0 -3,0 h -40 q -2,0 -4,0 -61,0 -104,0.5 -43,0.5 -74.5,2.5 -31.5,2 -52.5,5.5 -21,3.5 -37.5,9.5 -16.5,6 -31,15.5 -14.5,9.5 -29.5,21.5 -19,15 -33,23.5 -14,8.5 -16,8.5 -1,0 -2.5,-5.5 -1.5,-5.5 -1.5,-15.5 0,-13 -1.5,-13.5 -1.5,-0.5 -1.5,-0.5 -2,0 -11,9 -14,12 -25.5,30.5 -11.5,18.5 -20.5,37.5 -8,17 -12.5,31 -4.5,14 -7,39.5 -2.5,25.5 -3,70.5 -0.5,45 -0.5,105 0,125 -2.5,182 -2.5,57 -7.5,57 -4,0 -6,-44.5 -2,-44.5 -2,-126.5 0,-58 -1,-94 -1,-36 -3.5,-61 -2.5,-25 -7,-44.5 -4.5,-19.5 -12.5,-43.5 -5,-17 -11.5,-34.5 -6.5,-17.5 -13.5,-34 -7,-16.5 -13.5,-30.5 -6.5,-14 -12.5,-23 -10,-19 -19,-33 -4,-8 -8,-15 0,-1 14,-1 7,0 28,0.5 21,0.5 66,2.5 l 107,3 z m 94,-4 q -19,-8 -38,-16.5 -19,-8.5 -22,-9.5 -2,-1 -3,-1 -5,0 -7.5,11.5 -2.5,11.5 -2.5,44.5 0,26 1.5,44 1.5,18 3.5,18 2,0 11.5,-5 9.5,-5 18.5,-13 10,-7 28.5,-15 18.5,-8 35.5,-13 16,-6 25.5,-10 9.5,-4 9.5,-6 0,-1 0,-1 -2,-2 -19,-10 -17,-8 -42,-18 z m -146,106 q 0,-3 -17.5,-4.5 -17.5,-1.5 -42.5,-1.5 h -60 l 21,48 q 9,20 17.5,41 8.5,21 12.5,29 7,18 10,18 0,0 1.5,-1 1.5,-1 8.5,-24 7,-20 15.5,-39.5 8.5,-19.5 17.5,-33.5 6,-10 11,-20 5,-10 5,-12 z"
     id="path1" />
</svg>
