<?xml version="1.0" encoding="UTF-8" standalone="no"?>
<svg
   width="2000"
   height="2000"
   version="1.1"
   id="svg1"
   sodipodi:docname="u121EC.svg"
   inkscape:version="1.3.2 (091e20e, 2023-11-25)"
   xmlns:inkscape="http://www.inkscape.org/namespaces/inkscape"
   xmlns:sodipodi="http://sodipodi.sourceforge.net/DTD/sodipodi-0.dtd"
   xmlns="http://www.w3.org/2000/svg"
   xmlns:svg="http://www.w3.org/2000/svg">
  <defs
     id="defs1" />
  <sodipodi:namedview
     id="namedview1"
     pagecolor="#505050"
     bordercolor="#eeeeee"
     borderopacity="1"
     inkscape:showpageshadow="0"
     inkscape:pageopacity="0"
     inkscape:pagecheckerboard="0"
     inkscape:deskcolor="#505050"
     inkscape:zoom="0.379"
     inkscape:cx="1000"
     inkscape:cy="998.68074"
     inkscape:window-width="1392"
     inkscape:window-height="1212"
     inkscape:window-x="0"
     inkscape:window-y="0"
     inkscape:window-maximized="0"
     inkscape:current-layer="svg1" />
  <path
     d="m 1231,638.5 q 0,-6 5,-6 3,0 9,3 14,8 41.5,10 27.5,2 67.5,2 30,0 53.5,1 23.5,1 23.5,5 0,2 -5,8 -5,6 -13,11 -10,9 -21.5,28.5 -11.5,19.5 -22,44.5 -10.5,25 -19,52 -8.5,27 -11.5,51 -1,12 -3,40.5 -2,28.5 -3,68 -1,39.5 -2,86 -1,46.5 -1,110.5 0,96 -2,155 -2,59 -7,59 -2,0 -4.5,-9 -2.5,-9 -2.5,-23 v -31 l -132,-35 q -27,-7 -51.5,-13.5 -24.5,-6.5 -43.5,-11 -19,-4.5 -31.5,-7 -12.5,-2.5 -14.5,-2.5 -9,0 -9,53 0,24 -2,39.5 -2,15.5 -6,15.5 -5,0 -7,-17 -2,-17 -2,-42 v -57 l -30,-9 q -71,-18 -123.5,-29 -52.5,-11 -87.5,-15 -35,-4 -60,-4 -10,0 -31.5,1.5 -21.5,1.5 -51.5,9.5 -23,5 -37.5,8 -14.5,3 -19.5,3 -3,0 -4,-1 -1,-1 -1,-2 0,-3 3,-10 3,-7 6,-13 8,-16 13,-40 5,-24 8,-59 1,-10 3,-25.5 2,-15.5 4,-15.5 1,0 18,11 17,11 31,20 41,26 79,46.5 38,20.5 76.5,38 38.5,17.5 74.5,31 36,13.5 64,20.5 16,3 31,8 2,1 4,1 l 1,1 q 1,0 2,0 l 1,1 q 3,1 5,1 l 1,1 q 1,0 2,0 2,1 4,2 1,0 1,0 2,0 4,0 4,0 6.5,-1.5 2.5,-1.5 3.5,-11 1,-9.5 1,-22.5 0,-7 -0.5,-23 -0.5,-16 -1.5,-50 -2,-58 -4.5,-88 -2.5,-30 -8.5,-51 -6,-21 -18,-37.5 -12,-16.5 -31,-37.5 -14,-15 -20.5,-24.5 -6.5,-9.5 -6.5,-11.5 0,-1 0,-1 1,-1 16,-2 15,-1 37,-2.5 22,-1.5 47.5,-2.5 25.5,-1 47,-1.5 21.5,-0.5 31,-1 9.5,-0.5 13.5,-0.5 6,0 6,1 0,2 -6.5,13.5 -6.5,11.5 -17.5,25.5 -9,15 -22.5,42.5 -13.5,27.5 -23.5,52.5 -7,18 -11.5,32.5 -4.5,14.5 -6.5,30 -2,15.5 -2,34.5 v 2 q 0,0 0,1 v 3 q 0,1 0,2 v 1 q 0,1 0,2 v 1 q 0,1 0,2 v 4 q 0,1 0,1 v 21 q 0,2 0,4 v 4 q 0,2 0,3 l 3,92 116,30 q 24,7 47,13 23,6 42,11 19,5 32.5,8.5 13.5,3.5 17.5,4.5 l 23,5 v -192 q 0,-3 0,-7 v -6 q 0,-3 0,-6 v -3 q 0,-1 0,-3 v -7 q 0,-2 0,-3 v -2 q 0,-2 0,-3 v -37 q 0,-33 -1,-58.5 -1,-25.5 -3,-45 -2,-19.5 -5.5,-40 -3.5,-20.5 -9.5,-44 -6,-23.5 -14,-55.5 l -9,-31 -44,4 q -9,1 -28.5,3 -19.5,2 -45,4.5 -25.5,2.5 -55.5,5.5 -30,3 -60,5 -116,11 -202.5,30.5 -86.5,19.5 -156.5,53.5 -8,4 -16,7.5 -8,3.5 -16,7.5 -5,2 -11,5 -1,-10 -1,-23 -1,-10 -1.5,-23.5 -0.5,-13.5 -0.5,-31.5 0,-51 3,-60.5 3,-9.5 8,-9.5 4,0 10,5 17,16 65.5,25.5 48.5,9.5 108.5,9.5 27,0 67,-2 40,-2 86,-5.5 46,-3.5 93.5,-7.5 47.5,-4 86,-8 38.5,-4 63.5,-7.5 25,-3.5 28,-5.5 2,-1 2,-5 0,-3 -2.5,-12 -2.5,-9 -7.5,-24 -6,-14 -10,-27.5 -4,-13.5 -4,-18.5 z m 158,28 q 0,-2 -19.5,-3 -19.5,-1 -50.5,-1 -22,0 -35,0.5 -13,0.5 -19,2 -6,1.5 -6.5,3.5 -0.5,2 -0.5,3 0,3 2,9 3,8 8,18.5 5,10.5 8,17.5 5,7 10.5,25 5.5,18 11.5,41 12,49 15,50 3,1 4,1 6,0 18,-41 5,-21 15,-46.5 10,-25.5 21,-44.5 6,-10 12,-21.5 6,-11.5 6,-13.5 z m -685,97 q -15,-5 -24.5,-7.5 -9.5,-2.5 -13.5,-2.5 -5,0 -9.5,2.5 -4.5,2.5 -6,12 -1.5,9.5 -1.5,27.5 0,19 1.5,28.5 1.5,9.5 6,10.5 4.5,1 6.5,1 8,0 25,-6.5 17,-6.5 40,-15.5 58,-21 63,-26 5,-5 5,-6 0,-4 -16,-4 -14,0 -33,-3.5 -19,-3.5 -43,-10.5 z m 385,98 h -62 q -25,0 -43,1.5 -18,1.5 -18,3.5 0,2 4.5,10 4.5,8 8.5,14 10,15 19.5,31.5 9.5,16.5 16.5,32.5 13,25 14.5,26.5 1.5,1.5 1.5,1.5 3,0 7,-13 2,-9 10.5,-27.5 8.5,-18.5 17.5,-36.5 z m -405,232 q -23,-15 -40,-23.5 -17,-8.5 -19,-8.5 -2,0 -6.5,15.5 -4.5,15.5 -8,35 -3.5,19.5 -5.5,33.5 -2,14 -2,19 0,1 0,2 0,0 2,0 4,0 16.5,-1.5 12.5,-1.5 33.5,-6.5 20,-3 38.5,-4 18.5,-1 29.5,-1 13,0 26,1 10,1 16,1 13,0 15,-2 2,-2 2,-3 0,-6 -22,-14 -10,-5 -33,-17.5 -23,-12.5 -43,-25.5 z"
     id="path1" />
</svg>
