<?xml version="1.0" encoding="UTF-8" standalone="no"?>
<svg
   width="2000"
   height="2000"
   version="1.1"
   id="svg1"
   sodipodi:docname="u12195.svg"
   inkscape:version="1.3.2 (091e20e, 2023-11-25)"
   xmlns:inkscape="http://www.inkscape.org/namespaces/inkscape"
   xmlns:sodipodi="http://sodipodi.sourceforge.net/DTD/sodipodi-0.dtd"
   xmlns="http://www.w3.org/2000/svg"
   xmlns:svg="http://www.w3.org/2000/svg">
  <defs
     id="defs1" />
  <sodipodi:namedview
     id="namedview1"
     pagecolor="#505050"
     bordercolor="#eeeeee"
     borderopacity="1"
     inkscape:showpageshadow="0"
     inkscape:pageopacity="0"
     inkscape:pagecheckerboard="0"
     inkscape:deskcolor="#505050"
     inkscape:zoom="0.379"
     inkscape:cx="1000"
     inkscape:cy="998.68074"
     inkscape:window-width="1392"
     inkscape:window-height="1212"
     inkscape:window-x="0"
     inkscape:window-y="0"
     inkscape:window-maximized="0"
     inkscape:current-layer="svg1" />
  <path
     d="m 766.5,648 q 10,-6 14,-6 1,0 2,1 1,1 1,3 0,4 -3,12 -5,14 -5,26.5 0,12.5 4,24.5 4,13 15,30 11,17 24,32.5 13,15.5 25,27 12,11.5 16,11.5 4,0 27,9 23,9 62,24 39,15 90,35 51,20 123,49 43,17 95.5,37.5 52.5,20.5 93,35.5 40.5,15 66,23.5 25.5,8.5 40.5,8.5 9,0 9,2 0,1 -2.5,3.5 -2.5,2.5 -41,13 -38.5,10.5 -114.5,27.5 -76,17 -136,30 -171,37 -242.5,53 -71.5,16 -116.5,27 -45,11 -70,19.5 -25,8.5 -43,16.5 -25,13 -49.5,29 -24.5,16 -43.5,31.5 -19,15.5 -30.5,29 -11.5,13.5 -11.5,25.5 0,12 -9,17 -3,2 -5,2 -5,0 -6.5,-6.5 -1.5,-6.5 -1.5,-10.5 0,-9 4,-20 4,-13 4.5,-24.5 0.5,-11.5 0.5,-18.5 0,-11 -1,-26.5 -1,-15.5 -5,-37 -4,-21.5 -8,-35.5 -3,-10 -3,-16 0,-7 2.5,-7.5 2.5,-0.5 3.5,-0.5 9,0 22,17 13,14 38.5,18.5 25.5,4.5 45.5,4.5 17,0 35,-2 l 39,-6 v -93 q 0,-83 -9.5,-129.5 -9.5,-46.5 -32.5,-74.5 -5,-6 -11,-15 -6,-9 -6,-11 0,-1 7,-1 3,0 13,0.5 10,0.5 22,1.5 21,2 36,2 8,0 20.5,-1 12.5,-1 28.5,-7 12,-5 20,-5 4,0 7.5,1.5 3.5,1.5 3.5,3.5 0,4 -8,9 -16,12 -29,39 -13,27 -23.5,62 -10.5,35 -16.5,75 -6,40 -6,84 0,14 0.5,25.5 0.5,11.5 2,17 1.5,5.5 5,7 3.5,1.5 7.5,1.5 8,0 38,-5.5 30,-5.5 75.5,-15 45.5,-9.5 102.5,-22 57,-12.5 115.5,-25 58.5,-12.5 114.5,-25 56,-12.5 99,-22.5 43,-10 69.5,-16.5 26.5,-6.5 26.5,-7.5 0,-2 -21.5,-11.5 -21.5,-9.5 -57.5,-24 -36,-14.5 -82.5,-33 -46.5,-18.5 -96.5,-38 -50,-19.5 -99.5,-39 -49.5,-19.5 -91.5,-35 -42,-15.5 -72.5,-26.5 -30.5,-11 -46.5,-16 -21,-6 -45,-9.5 -24,-3.5 -35.5,-4 -11.5,-0.5 -14.5,-0.5 -17,0 -32,3 -15,3 -30,14 -11,8 -16,8 -3,0 -4,-1.5 -1,-1.5 -1,-2.5 0,-9 29,-43 13,-16 29.5,-37.5 16.5,-21.5 27,-36 10.5,-14.5 15,-24 4.5,-9.5 4.5,-14.5 0,-5 5,-11 5,-6 10,-10 z m 3,75 q -2,-3 -6,-11 -4,-8 -6,-8 -1,0 -10.5,12 -9.5,12 -22.5,30 l -30,40 h 39 q 17,0 34,2 17,2 26,4 10,3 14,3 2,0 2,-0.5 0,-0.5 0,-0.5 0,-3 -8,-14 -9,-11 -16,-24.5 -7,-13.5 -16,-32.5 z m -5,178 q 2,-5 2,-8 0,-4 -4,-6.5 -4,-2.5 -24,-2.5 -33,0 -33,8 0,1 1,2 l 15,45 q 5,15 9,25.5 4,10.5 6,10.5 2,0 5.5,-9.5 3.5,-9.5 8.5,-21.5 3,-13 8,-26.5 5,-13.5 6,-16.5 z m -119,313 q -11,-2 -28,-4 -17,-2 -32,-6 -10,-3 -15,-3 -2,0 -4,1.5 -2,1.5 -2,24.5 0,13 1,27.5 1,14.5 3,24.5 4,11 8,11 0,0 2.5,-1 2.5,-1 25.5,-21 11,-11 26,-23 15,-12 24,-18 l 21,-13 z"
     id="path1" />
</svg>
