<?xml version="1.0" encoding="UTF-8" standalone="no"?>
<svg
   width="2000"
   height="2000"
   version="1.1"
   id="svg1"
   sodipodi:docname="u12130.svg"
   inkscape:version="1.3.2 (091e20e, 2023-11-25)"
   xmlns:inkscape="http://www.inkscape.org/namespaces/inkscape"
   xmlns:sodipodi="http://sodipodi.sourceforge.net/DTD/sodipodi-0.dtd"
   xmlns="http://www.w3.org/2000/svg"
   xmlns:svg="http://www.w3.org/2000/svg">
  <defs
     id="defs1" />
  <sodipodi:namedview
     id="namedview1"
     pagecolor="#505050"
     bordercolor="#eeeeee"
     borderopacity="1"
     inkscape:showpageshadow="0"
     inkscape:pageopacity="0"
     inkscape:pagecheckerboard="0"
     inkscape:deskcolor="#505050"
     inkscape:zoom="0.379"
     inkscape:cx="1000"
     inkscape:cy="998.68074"
     inkscape:window-width="1392"
     inkscape:window-height="1212"
     inkscape:window-x="0"
     inkscape:window-y="0"
     inkscape:window-maximized="0"
     inkscape:current-layer="svg1" />
  <path
     d="m 1014,661 q 12,-18 19.5,-21 7.5,-3 9.5,-3 3,0 3,3 0,2 -2,6 -2,5 -2,11 0,8 4,20.5 4,12.5 10,24.5 11,24 35,53 24,29 57,63 33,34 73.5,70 40.5,36 76.5,64 36,30 54.5,47 18.5,17 18.5,21 0,1 0,1 0,0 -1,0 -5,0 -28,-16.5 -23,-16.5 -56,-43.5 -30,-24 -66,-51.5 -36,-27.5 -54,-39.5 l -47,-32 -12,17 q -7,10 -19,29.5 -12,19.5 -22.5,40 -10.5,20.5 -18,37 -7.5,16.5 -7.5,23.5 0,9 10,9 9,0 9,9 0,2 -1,5 -1,2 -1,4 0,5 7,11.5 7,6.5 31,18.5 32,17 48,31.5 16,14.5 16,20.5 0,3 -1,4 -1,1 -3,1 -7,0 -19,-10 -9,-9 -27,-20.5 -18,-11.5 -50,-26.5 -4,-3 -16,-8 -12,-5 -23.5,-7.5 -11.5,-2.5 -23.5,-4 -12,-1.5 -36,-1.5 -27,0 -34,-1 -7,-1 -7,-4 0,-2 2,-5 4,-5 4,-10 0,-2 -1,-4 0,0 -1,0 -3,0 -16,3 -13,3 -31,10 -18,7 -36.5,15 -18.5,8 -36.5,19 -6,3 -14.5,7.5 -8.5,4.5 -11.5,4.5 -3,0 -3.5,-12 -0.5,-12 -0.5,-20 0,-15 1,-36 2,-19 3.5,-36.5 1.5,-17.5 2.5,-17.5 2,0 12.5,7 10.5,7 20.5,14 23,17 37,20.5 14,3.5 53,3.5 h 57 l 69,-69 q 30,-28 50.5,-50.5 20.5,-22.5 20.5,-25.5 0,-3 -24,-18 -24,-15 -59,-32 -33,-16 -51.5,-27.5 -18.5,-11.5 -23,-17.5 -4.5,-6 -4.5,-9 0,-4 5,-9.5 5,-5.5 19,-11.5 16,-7 29.5,-20 13.5,-13 22.5,-28 z m 23,38 q -5,-18 -12,-18 -6,0 -14,15 -4,6 -13,12.5 -9,6.5 -20,9.5 -9,3 -15.5,7 -6.5,4 -6.5,5 0,2 24,16 24,14 53,29 29,15 51,25.5 22,10.5 27,10.5 1,0 1,0 0,0 0,0 0,-1 -9,-14.5 -9,-13.5 -26,-31.5 -15,-20 -26,-39.5 Q 1040,706 1037,699 Z M 854,816 q 40,-21 68.5,-35 28.5,-14 35.5,-14 1,0 2,1 1,1 1,2 0,8 -74,44 -65,33 -89.5,54 -24.5,21 -42.5,44.5 -18,23.5 -26,43.5 -8,20 -8,38 0,6 1,12 1,17 8,33.5 7,16.5 22.5,32 15.5,15.5 42,34.5 26.5,19 65.5,43 30,18 53,33.5 23,15.5 29,21.5 7,6 15,6 0,0 4.5,-0.5 4.5,-0.5 30.5,-9.5 51,-18 113,-49.5 62,-31.5 149,-87.5 20,-12 41.5,-26 21.5,-14 31,-19.5 9.5,-5.5 11.5,-5.5 1,0 1.5,1 0.5,1 0.5,2 0,5 -22.5,21.5 -22.5,16.5 -64.5,44.5 -111,72 -184.5,136 -73.5,64 -97.5,115 -6,12 -13,21.5 -7,9.5 -10,9.5 -3,0 -5,-10.5 -2,-10.5 -2,-23.5 0,-39 -20,-65 -10,-14 -10,-24 0,-10 10,-15 7,-3 7,-7 0,-4 -9.5,-12 -9.5,-8 -61.5,-42 l -84,-53 -72,-1 q -15,0 -28,-1 -13,-1 -23,-1 -11,0 -21,-1 0,-2 10.5,-19 10.5,-17 23.5,-37 17,-25 23.5,-37 6.5,-12 8.5,-19 2,-7 2,-12 0,-3 -1,-8 -1,-5 -6,-17 -4,-10 -13,-30.5 Q 668,907 659,889 651,874 646.5,862.5 642,851 642,848 q 0,-1 0,-1 1,0 1,0 3,0 11,2.5 8,2.5 15,5.5 23,9 33,10.5 10,1.5 15,1.5 12,0 28.5,-4 16.5,-4 42,-15 25.5,-11 66.5,-32 z m -107,69 q -3,-2 -14,-2.5 -11,-0.5 -25,-2.5 l -36,-3 15,36 q 1,2 1,3 l 1,1 q 0,0 0,1 1,2 2,3 l 1,2 q 0,1 1,3 1,1 1,1 v 1 q 1,1 1,2 l 1,2 q 2,3 3,6 l 1,1 q 0,0 0,0 5,10 8,10 3,0 10,-9.5 7,-9.5 14.5,-21.5 7.5,-12 11.5,-20.5 4,-8.5 4,-11.5 0,-1 -1,-1 z m 293,57 q 6,-12 9,-20 3,-8 3,-10 0,0 0,0 l -14,13 q -7,6 -14.5,14.5 -7.5,8.5 -18.5,17.5 l -45,46 h 33 q 21,0 26.5,-3 5.5,-3 5.5,-13 0,-8 3.5,-20.5 Q 1032,954 1040,942 Z m -213,40 q -12,-7 -22,-12.5 -10,-5.5 -11,-5.5 -2,0 -2.5,10 -0.5,10 -0.5,23 v 33 l 66,-30 z m -90,98 q -5,-6 -11.5,-16.5 Q 719,1053 714,1041 l -9,-26 -49,78 h 46 q 33,0 36,-1.5 3,-1.5 3,-3.5 0,-3 -4,-8 z m 300,144 q 19,-18 29.5,-28.5 10.5,-10.5 10.5,-12.5 0,0 0,0 -1,0 -17.5,6 -16.5,6 -38.5,14.5 -22,8.5 -43.5,17.5 -21.5,9 -32.5,13 -15,8 -15.5,9.5 -0.5,1.5 -0.5,1.5 0,4 6,10 6,6 10.5,16.5 4.5,10.5 7.5,19.5 l 6,21 19,-25 q 8,-11 26,-29.5 18,-18.5 33,-33.5 z"
     id="path1" />
</svg>
