<?xml version="1.0" encoding="UTF-8" standalone="no"?>
<svg
   width="2000"
   height="2000"
   version="1.1"
   id="svg1"
   sodipodi:docname="u12124.svg"
   inkscape:version="1.3.2 (091e20e, 2023-11-25)"
   xmlns:inkscape="http://www.inkscape.org/namespaces/inkscape"
   xmlns:sodipodi="http://sodipodi.sourceforge.net/DTD/sodipodi-0.dtd"
   xmlns="http://www.w3.org/2000/svg"
   xmlns:svg="http://www.w3.org/2000/svg">
  <defs
     id="defs1" />
  <sodipodi:namedview
     id="namedview1"
     pagecolor="#505050"
     bordercolor="#eeeeee"
     borderopacity="1"
     inkscape:showpageshadow="0"
     inkscape:pageopacity="0"
     inkscape:pagecheckerboard="0"
     inkscape:deskcolor="#505050"
     inkscape:zoom="0.379"
     inkscape:cx="1000"
     inkscape:cy="998.68074"
     inkscape:window-width="1392"
     inkscape:window-height="1212"
     inkscape:window-x="0"
     inkscape:window-y="0"
     inkscape:window-maximized="0"
     inkscape:current-layer="svg1" />
  <path
     d="m 1490.5,677.5 q 2,-5 3,-5 0,0 0.5,0.5 0.5,0.5 1.5,6.5 2,7 2,13 0,6 -2.5,13 -2.5,7 -7.5,13 -7,8 -15,24.5 -8,16.5 -14,34.5 -6,18 -9,31 -3,13 -3,21 0,4 1,7 2,6 6.5,13 4.5,7 9.5,9 4,2 7.5,6.5 3.5,4.5 3.5,8.5 0,6 14.5,19.5 14.5,13.5 52.5,40.5 84,61 84,74 0,1 -1,2 -1,1 -2,1 -5,0 -17,-7.5 -12,-7.5 -33,-26.5 -43,-36 -89,-66.5 -46,-30.5 -84.5,-48.5 -38.5,-18 -57,-21.5 -18.5,-3.5 -25.5,-3.5 -18,0 -29,10 -7,6 -17.5,19.5 -10.5,13.5 -17.5,26 -7,12.5 -9.5,18.5 -2.5,6 -2.5,8 0,5 5,6 7,3 7,13 0,12 10.5,17.5 10.5,5.5 19.5,5.5 6,0 13,-2 5,-1 7,-1 5,0 5,3 0,1 -1,3 -2,2 -2,4 0,2 1.5,5.5 1.5,3.5 5.5,7.5 5,5 8.5,11.5 3.5,6.5 3.5,13.5 0,6 -2,6 0,0 -1.5,-0.5 -1.5,-0.5 -10.5,-8.5 -8,-6 -11.5,-8 -3.5,-2 -6.5,-2 -3,0 -7.5,2.5 -4.5,2.5 -12,11 -7.5,8.5 -17.5,22.5 -10,13 -14,20 -4,7 -5,10.5 -1,3.5 -1,6.5 0,2 1,5 1,3 4,8 6,8 18.5,18.5 12.5,10.5 24.5,17.5 l 32,17 47,-35 q 10,-7 20.5,-16 10.5,-9 21.5,-18 11,-9 20.5,-18 9.5,-9 17.5,-16 12,-12 23,-22 11,-10 13,-10 2,0 2,3 0,1 -0.5,3.5 -0.5,2.5 -2.5,8 -2,5.5 -5.5,13 -3.5,7.5 -7.5,12.5 -6,7 -12.5,21 -6.5,14 -12,30 -5.5,16 -9,31 -3.5,15 -3.5,23 0,9 4,17.5 4,8.5 9,9.5 4,2 7.5,6.5 3.5,4.5 3.5,7.5 0,7 18.5,23 18.5,16 43.5,35 51,41 70,59 19,18 19,25 0,1 -1,2 -1,1 -3,1 -4,0 -15.5,-8 -11.5,-8 -24.5,-20 -10,-10 -21,-19 -11,-9 -22,-17.5 -11,-8.5 -22.5,-17 -11.5,-8.5 -20.5,-15.5 l -45,-29 -169,5 q -93,3 -170.5,9.5 -77.5,6.5 -136,18 -58.5,11.5 -97,26.5 -38.5,15 -61.5,41 -8,9 -10,9.5 -2,0.5 -2,0.5 -3,0 -3,-10 0,-7 1.5,-13.5 1.5,-6.5 6.5,-12.5 11,-12 11,-31 0,-19 -18,-35 -9,-9 -27,-21 -18,-12 -37.5,-21.5 -19.5,-9.5 -39.5,-17.5 -20,-8 -41,-11 -17,-3 -32.5,-8 -15.5,-5 -18.5,-8 -3,-2 -12,-2 -4,0 -15,1 -11,1 -31,7 -20,6 -41,14.5 -21,8.5 -35,17.5 -12,9 -24.5,23 -12.5,14 -19.5,30 -5,11 -11.5,20 -6.5,9 -13.5,9 -5,0 -5,-4 0,-3 3,-9 5,-11 8.5,-32 3.5,-21 5.5,-42.5 2,-21.5 2,-40 0,-18.5 -3,-25.5 -3,-7 -3,-21 0,-4 0.5,-16 0.5,-12 8.5,-57 2,-13 4,-28 2,-15 2.5,-22.5 0.5,-7.5 0.5,-11.5 0,-7 -1,-15 -1,-8 -5,-21 -3,-11 -3,-18 0,-5 1.5,-6 1.5,-1 2.5,-1 7,0 26,13 12,8 19.5,11.5 7.5,3.5 19,5.5 11.5,2 29,3 17.5,1 44.5,2 l 87,5 65,-42 q 36,-21 54.5,-33 18.5,-12 25,-18.5 6.5,-6.5 6.5,-11.5 0,-2 -2.5,-6 -2.5,-4 -11.5,-13 -13,-15 -13.5,-16.5 -0.5,-1.5 -0.5,-1.5 0,-3 8,-3 10,0 26,4.5 16,4.5 26,7.5 18,5 35.5,7.5 17.5,2.5 48,4.5 30.5,2 76.5,3.5 46,1.5 116,2.5 104,1 169,4.5 65,3.5 71,7.5 2,2 7,2 1,0 5,-0.5 4,-0.5 16.5,-7 12.5,-6.5 31,-21 18.5,-14.5 36.5,-29.5 32,-26 49.5,-43.5 17.5,-17.5 22.5,-32.5 z m -52,111 q 5,-13 6,-18.5 1,-5.5 1,-7.5 0,-3 -1,-3 -3,0 -17.5,9.5 -14.5,9.5 -30,20.5 -15.5,11 -28.5,21.5 -13,10.5 -13,12.5 0,2 8.5,6 8.5,4 20.5,8 12,4 23.5,7 11.5,3 17.5,3 6,0 6.5,-3 0.5,-3 0.5,-5 0,-3 -1,-6 -2,-4 -2,-10 0,-5 2,-15 2,-10 7,-20 z m -502,27 q -59,-13 -90.5,-13 -31.5,0 -40.5,11 -5,6 -8.5,15.5 -3.5,9.5 -3.5,19.5 0,10 2,11.5 2,1.5 4,1.5 4,0 11,-3 7,-2 32.5,-8.5 25.5,-6.5 52.5,-13.5 24,-6 37,-9 13,-3 15.5,-5 2.5,-2 2.5,-3 0,-1 -3,-2 -3,-1 -11,-2 z m 348,6 q 0,-3 -17.5,-4.5 -17.5,-1.5 -40.5,-1.5 h -57 l -41,49 q -26,30 -32.5,41 -6.5,11 -6.5,21 0,5 1,10 4,16 16,24.5 12,8.5 23,8.5 6,0 12,-2 6,-2 10,-2 4,0 4,3 0,1 -2,4 -2,3 -2,7 0,8 10,19 10,11 10,17 0,2 -1,3 -1,1 -4,1 -5,0 -16,-9 -7,-6 -11,-8.5 -4,-2.5 -7,-2.5 -3,0 -7,2.5 -4,2.5 -10,11 -6,8.5 -9,12.5 -24,35 -24,47 0,3 1,5 7,9 7,13 0,5 10.5,14 10.5,9 25.5,18 17,10 28,19.5 11,9.5 11,15.5 0,2 -0.5,3.5 -0.5,1.5 -2.5,1.5 -1,0 -4.5,-1.5 -3.5,-1.5 -13.5,-7.5 -10,-6 -27,-17 -30,-22 -61,-32.5 -31,-10.5 -54,-10.5 -18,0 -18,-7 0,-2 6,-10 6,-8 57,-42 25,-17 44,-31 19,-14 19,-17 0,-3 -10.5,-10 -10.5,-7 -25,-12.5 -14.5,-5.5 -29.5,-9.5 -15,-4 -28,-4 -9,0 -18.5,-2 -9.5,-2 -11.5,-4 0,0 0,-1 0,-5 17,-19.5 17,-14.5 44,-33.5 36,-23 54.5,-36.5 18.5,-13.5 21,-18 2.5,-4.5 2.5,-5.5 0,-4 -9,-5.5 -9,-1.5 -30,-1.5 -23,0 -36.5,2 -13.5,2 -26,10 -12.5,8 -25.5,23.5 -13,15.5 -22,27.5 -26,33 -26.5,37 -0.5,4 -0.5,6 0,7 6,21 15,29 35,29 5,0 11,-2 4,-2 7,-2 5,0 5,7 0,5 3.5,11.5 3.5,6.5 9.5,12.5 9,11 9,16 0,3 -1,4 -1,1 -4,1 -5,0 -16,-9 -13,-13 -19,-13 -1,0 -9.5,9.5 -8.5,9.5 -17.5,20.5 -15,20 -18.5,28 -3.5,8 -3.5,14 0,3 1,7 1,4 4,9.5 3,5.5 3,7.5 0,3 10.5,11.5 10.5,8.5 25.5,17.5 18,10 28.5,19.5 10.5,9.5 10.5,16.5 0,4 -3,4 -2,0 -6,-1.5 -4,-1.5 -24,-15.5 -43,-29 -73.5,-40.5 -30.5,-11.5 -54.5,-13.5 -22,0 -22,-7 0,-2 4.5,-8.5 4.5,-6.5 56.5,-39.5 28,-18 47.5,-32.5 19.5,-14.5 19.5,-17.5 0,-3 -10.5,-9.5 -10.5,-6.5 -25,-12.5 -14.5,-6 -29.5,-10 -15,-4 -27,-4 -10,0 -19.5,-3 -9.5,-3 -10.5,-4 0,0 0,-1 0,-4 16.5,-19 16.5,-15 45.5,-33 72,-48 74,-53.5 2,-5.5 2,-5.5 0,-4 -10,-4 -17,0 -59,9 -24,5 -48,11 -24,6 -40,12 -16,6 -26.5,13.5 -10.5,7.5 -20.5,17.5 -11,10 -18,14.5 -7,4.5 -10,4.5 -3,0 -4,-2 -1,-2 -1,-4 0,-5 4,-10 4,-6 7.5,-15 3.5,-9 6.5,-20 3,-11 3,-15 0,-1 0,-2 0,-1 -1,-1 -3,0 -10,5 -4,6 -12.5,15.5 -8.5,9.5 -14.5,19.5 -11,14 -11.5,17.5 -0.5,3.5 -0.5,4.5 0,7 7,19 5,8 20,23 15,15 31,27 18,11 29,23 11,12 11,21 0,4 -1.5,4 -1.5,0 -7.5,-5 -7,-6 -9.5,-6.5 -2.5,-0.5 -3.5,-0.5 -3,0 -8.5,4 -5.5,4 -14.5,13 -9,9 -16,17 -37,39 -44,54.5 -7,15.5 -7,20.5 0,7 8,7 6,0 6,6 0,2 0,4 0,0 0,1 0,4 8.5,13 8.5,9 21,18 12.5,9 21.5,14 9,5 12,5 2,0 3,-1 1,-1 1,-2 0,-2 -2.5,-7 -2.5,-5 -10.5,-11 l -15,-18 29,5 q 11,2 29.5,5.5 18.5,3.5 27.5,6.5 13,4 39.5,5.5 26.5,1.5 65.5,3.5 39,2 88.5,3.5 49.5,1.5 125.5,2.5 2,0 4,0 h 3 q 1,0 2,0 h 4 q 5,0 9,0 h 4 q 2,0 3,0 h 4 q 2,0 3,0 h 11 q 6,0 12,0 h 38 q 3,0 6,0 h 8 q 49,0 74.5,-0.5 25.5,-0.5 29,-2 3.5,-1.5 3.5,-2.5 0,-2 -3,-4 -6,-5 -21,-10.5 -15,-5.5 -30,-7.5 -15,-1 -28.5,-7 -13.5,-6 -19.5,-13 -7,-7 -23.5,-16.5 -16.5,-9.5 -35.5,-18 -19,-8.5 -37,-13.5 -18,-5 -31,-5 -10,0 -17.5,-3 -7.5,-3 -7.5,-5 0,-4 18.5,-17 18.5,-13 57.5,-39 13,-9 34,-24 21,-15 22,-17 0,-1 0,-2 0,-3 -6,-8 -6,-5 -19,-11 -13,-6 -28.5,-10.5 -15.5,-4.5 -30.5,-6.5 -15,-2 -25.5,-5.5 -10.5,-3.5 -11.5,-6.5 0,0 0,0 0,-5 19.5,-20 19.5,-15 48.5,-35 30,-19 51,-34.5 21,-15.5 21,-19.5 z m -573,78 q 4,-8 6,-14.5 2,-6.5 2,-8.5 0,-2 -1,-2 0,0 0,0 -2,0 -8.5,3 -6.5,3 -16.5,8.5 -10,5.5 -19.5,11.5 -9.5,6 -12.5,8 -3,2 -3,4 0,6 20,11 9,2 15,2 4,0 7.5,-2.5 3.5,-2.5 10.5,-20.5 z m 512,8 q 3,-10 3,-14 0,-3 -0.5,-3 -0.5,0 -1.5,0 -4,0 -19,9 -24,15 -24,21 0,5 13,5 25,0 29,-18 z m -152,6 q 3,-8 3,-14 1,-2 1,-5 -2,1 -5,3 -1,0 -1,0 -1,1 -2,1 -2,2 -6,4.5 -4,2.5 -9,5.5 -21,13 -21.5,16 -0.5,3 -0.5,3 0,6 14,6 24,0 27,-20 z m -597,4 q -7,0 -18,-1 -11,-1 -19,-3 -6,-3 -10,-3 -3,0 -5,3.5 -2,3.5 -2,26.5 v 34 l 34,-21 q 29,-17 32,-22.5 3,-5.5 3,-7.5 0,-6 -15,-6 z m 459,7 q 1,-4 1,-7 0,-7 -5,-7 -6,0 -19,10 -14,10 -14,16 0,0 0.5,2.5 0.5,2.5 7.5,2.5 3,0 6,-1 11,-1 16,-6 5,-5 7,-10 z m -237,22 q -14,-6 -35.5,-9.5 -21.5,-3.5 -43,-5 -21.5,-1.5 -38.5,-1.5 -5,0 -19,0.5 -14,0.5 -34,5.5 -40,10 -74.5,37 -34.5,27 -47.5,67 -5,13 -5,19 0,1 0.5,4.5 0.5,3.5 15.5,13.5 9,6 19,10.5 10,4.5 24,7 14,2.5 36,3.5 22,1 57,1 h 88 l 63,-39 q 33,-20 51,-32 18,-12 21,-18 3,-6 3,-9 0,-5 -4.5,-10 -4.5,-5 -29.5,-19 -5,-3 -22,-12.5 -17,-9.5 -25,-13.5 z m 524,99 q 0,-8 -5,-8 -7,0 -23,13 -9,8 -9.5,9.5 -0.5,1.5 -0.5,1.5 0,3 6,7 5,3 10.5,6 5.5,3 7.5,3 4,0 9,-12 5,-12 5,-20 z m -156,13 q 2,-5 2,-9 0,-4 -4.5,-4 -4.5,0 -22.5,15 -13,9 -13.5,11 -0.5,2 -0.5,2 0,3 8,6 6,2 10,2 16,0 21,-23 z m -135,10 q 2,-6 2,-9 0,-5 -2,-5.5 -2,-0.5 -2,-0.5 -6,0 -23,13 -12,8 -12.5,10 -0.5,2 -0.5,2 0,4 7,8 6,3 12,3 13,0 19,-21 z m 490,27 q 3,-9 4.5,-15 1.5,-6 1.5,-8 0,-1 0,-1 0,0 -1,0 -3,0 -16.5,9 -13.5,9 -31.5,23 -29,23 -33,28 -4,5 -4,7 0,4 5,6 7,2 16,5.5 9,3.5 15,5.5 19,7 27,7 2,0 5.5,-1.5 3.5,-1.5 3.5,-18.5 0,-11 2.5,-24.5 2.5,-13.5 5.5,-22.5 z m -716,4 q 5,-11 6.5,-15 1.5,-4 1.5,-6 0,-1 -1,-1 -5,2 -14,7 -8,5 -22,14 l -35,22 22,5 q 10,3 13.5,3.5 3.5,0.5 4.5,0.5 5,0 8.5,-3 3.5,-3 7,-9.5 3.5,-6.5 8.5,-17.5 z m -243,13 q -9,-4 -18.5,-6.5 -9.5,-2.5 -14.5,-2.5 -3,0 -7,1 -4,1 -6.5,7.5 -2.5,6.5 -3.5,19.5 -1,10 -1.5,16.5 -0.5,6.5 -0.5,9.5 0,4 1,4 0,1 1,1 2,0 12.5,-5 10.5,-5 25.5,-15 24,-12 26.5,-15 2.5,-3 2.5,-4 0,-5 -17,-11 z m 462,82 q -30,-2 -57,-5.5 -27,-3.5 -34,-5.5 -3,-1 -5,-1 -4,0 -6.5,5 -2.5,5 -4.5,28 -2,15 -2,26.5 0,11.5 1,13.5 0,0 1,0 2,0 9.5,-2 7.5,-2 19.5,-6 11,-6 38.5,-13 27.5,-7 56.5,-12 27,-6 45,-11 18,-5 18,-7 0,0 0,0 -1,-1 -24.5,-4 -23.5,-3 -55.5,-6 z"
     id="path1" />
</svg>
