<?xml version="1.0" encoding="UTF-8" standalone="no"?>
<svg
   width="2000"
   height="2000"
   version="1.1"
   id="svg1"
   sodipodi:docname="u12103.svg"
   inkscape:version="1.3.2 (091e20e, 2023-11-25)"
   xmlns:inkscape="http://www.inkscape.org/namespaces/inkscape"
   xmlns:sodipodi="http://sodipodi.sourceforge.net/DTD/sodipodi-0.dtd"
   xmlns="http://www.w3.org/2000/svg"
   xmlns:svg="http://www.w3.org/2000/svg">
  <defs
     id="defs1" />
  <sodipodi:namedview
     id="namedview1"
     pagecolor="#505050"
     bordercolor="#eeeeee"
     borderopacity="1"
     inkscape:showpageshadow="0"
     inkscape:pageopacity="0"
     inkscape:pagecheckerboard="0"
     inkscape:deskcolor="#505050"
     inkscape:zoom="0.379"
     inkscape:cx="1000"
     inkscape:cy="998.68074"
     inkscape:window-width="1392"
     inkscape:window-height="1212"
     inkscape:window-x="0"
     inkscape:window-y="0"
     inkscape:window-maximized="0"
     inkscape:current-layer="svg1" />
  <path
     d="m 1288,603.5 q 0,-3 2,-3.5 2,-0.5 2,-0.5 3,0 5,2 3,2 3,6 0,2 -2,7.5 -2,5.5 -12,23.5 -31,57 -36.5,82 -5.5,25 -5.5,34 0,18 13,18 8,0 8,7 0,9 12.5,19.5 12.5,10.5 39.5,26.5 31,18 49.5,33 18.5,15 18.5,21 0,1 -1,2 -1,1 -3,1 -4,0 -17,-6.5 -13,-6.5 -34,-20.5 -50,-34 -93,-53.5 -43,-19.5 -69,-19.5 -3,0 -5,0 -13,2 -21,8 -8,6 -17,26 -14,28 -14.5,40 -0.5,12 -0.5,14 0,18 9,22 5,2 5,7 0,2 -1,5 0,1 0,1 0,5 5.5,10.5 5.5,5.5 14.5,10 9,4.5 15.5,6 6.5,1.5 9.5,1.5 5,0 8,-2 2,-1 4,-1 3,0 6,6 5,14 19,16.5 14,2.5 24,2.5 13,0 34.5,-3.5 21.5,-3.5 53.5,-15.5 32,-12 64,-30 19,-11 33,-17.5 14,-6.5 19,-6.5 1,0 2,0 1,0 1,1 0,4 -18,18 -18,14 -47,31 -31,19 -58,39 -27,20 -47,39 -20,19 -31,35.5 -11,16.5 -11,30.5 0,7 -2,13.5 -2,6.5 -6,6.5 -5,0 -9.5,-15.5 -4.5,-15.5 -9.5,-49.5 -3,-28 -7,-39.5 -4,-11.5 -12.5,-21 -8.5,-9.5 -23,-18.5 -14.5,-9 -38.5,-21 l -46,-23 -83,39 q -30,14 -46.5,22 -16.5,8 -23.5,12.5 -7,4.5 -7,7.5 0,0 0.5,2 0.5,2 3.5,7 6,7 16.5,12.5 10.5,5.5 21.5,7.5 10,2 15,6 5,4 5,6 0,0 -1,1 0,0 0,1 0,1 2.5,1.5 2.5,0.5 2.5,0.5 6,0 15,-4 10,-4 15.5,-8.5 5.5,-4.5 5.5,-8.5 0,-1 -1,-2 0,-1 0,-2 0,-5 10,-8 10,-3 40,-4 22,-2 40,-7 18,-5 22,-9 2,-3 10,-5 8,-2 17,-2 9,0 9,2 0,0 -0.5,1 -0.5,1 -4.5,6 -22,26 -22,78 0,22 4,50 5,31 13.5,61.5 8.5,30.5 15.5,42.5 5,-2 11,-4 5,-2 11.5,-4 6.5,-2 14.5,-5 29,-10 34,-10.5 5,-0.5 5,-0.5 8,0 8,6 0,5 -9.5,9.5 -9.5,4.5 -23.5,9.5 -29,8 -33,14.5 -4,6.5 -4,12.5 0,9 5,23 4,11 4,16 0,6 -4,6 -4,0 -8,-7 -4,-7 -8,-17 -3,-10 -8,-17.5 -5,-7.5 -8,-7.5 -3,0 -19.5,5.5 -16.5,5.5 -37,13.5 -20.5,8 -40.5,16.5 -20,8.5 -34,15.5 -37,18 -67,43.5 -30,25.5 -40,53.5 -4,13 -8,13 -2,0 -5.5,-5.5 -3.5,-5.5 -8.5,-56.5 -2,-31 -7.5,-50.5 -5.5,-19.5 -15.5,-33.5 -10,-14 -10,-25 0,-2 1,-5.5 1,-3.5 5,-3.5 5,0 13,8 7,5 18,9.5 11,4.5 20.5,7 9.5,2.5 16.5,2.5 2,0 6.5,-0.5 4.5,-0.5 4.5,-5.5 0,-4 -7,-22 -7,-18 -16,-36 -12,-24 -24.5,-42 -12.5,-18 -26,-32 -13.5,-14 -26,-22 -12.5,-8 -26.5,-8 -12,0 -12,-4 0,-2 3.5,-6.5 3.5,-4.5 32.5,-9.5 11,-2 27.5,-6 16.5,-4 29,-8.5 12.5,-4.5 20.5,-8 8,-3.5 8,-5.5 0,-1 -5.5,-7.5 -5.5,-6.5 -14.5,-13.5 -6,-4 -11,-6.5 -5,-2.5 -9.5,-2.5 -4.5,0 -10.5,2.5 -6,2.5 -15,7.5 -20,11 -47,28 -27,17 -56,37.5 -29,20.5 -57,42 -28,21.5 -51,40.5 -23,19 -37.5,34 -14.5,15 -17.5,25 -2,6 -5,6 -3,0 -9,-6 -7,-7 -7,-11 0,0 0.5,-2.5 0.5,-2.5 9.5,-11.5 7,-7 9.5,-12 2.5,-5 3,-9 0.5,-4 0.5,-6 0,-6 -1.5,-14.5 -1.5,-8.5 -5.5,-25.5 -4,-20 -8.5,-37 -4.5,-17 -6.5,-21 -1,-2 -1,-3 0,-3 5,-4 5,-1 10,-1 7,0 17,1 9,1 19,1 14,0 33,-2.5 19,-2.5 44,-9.5 19,-6 47.5,-16.5 28.5,-10.5 54,-20.5 25.5,-10 42.5,-18.5 17,-8.5 17,-10.5 0,-3 -17,-14.5 -17,-11.5 -42.5,-26 -25.5,-14.5 -55.5,-30.5 -30,-16 -53,-27 -27,-12 -53,-20.5 -26,-8.5 -44,-10.5 -12,-1 -21.5,-5 -9.5,-4 -11,-7 -1.5,-3 -1.5,-4 0,-3 4,-6 4,-3 13,-3 35,0 69,-57 14,-22 17,-22.5 3,-0.5 3,-0.5 5,0 9,16 3,14 13,31 10,17 21,31 13,16 34,35.5 21,19.5 41.5,37 20.5,17.5 37.5,29.5 17,12 21,12 4,0 6,-17.5 2,-17.5 2,-38.5 0,-48 -11,-76 -11,-28 -39,-59 -8,-8 -10,-11.5 -2,-3.5 -2,-4.5 0,-2 2,-2 7,-1 25.5,-1 18.5,0 43,0.5 24.5,0.5 50.5,0.5 26,0 48,0.5 22,0.5 36.5,1 14.5,0.5 15.5,1.5 0,0 0,1 0,2 -6.5,9 -6.5,7 -16.5,17 -10,10 -15.5,16 -5.5,6 -8.5,14.5 -3,8.5 -4.5,22 -1.5,13.5 -2.5,33.5 -1,17 -1,31 0,34 4.5,42 4.5,8 12.5,8 8,0 22,-8 13,-8 13,-12 0,-2 -2,-3 -2,-1 -2,-4 0,-9 32,-38 23,-20 44,-44 21,-24 35,-42 11,-15 23,-26.5 12,-11.5 15,-11.5 3,0 14,-9.5 11,-9.5 25.5,-23.5 14.5,-14 31,-31 16.5,-17 30,-32.5 13.5,-15.5 22.5,-26.5 9,-11 9,-15 z m -54,114 q 2,-6 4,-10.5 2,-4.5 2,-6.5 0,-2 -1,-3 0,0 -1,0 -3,0 -13,9 -10,9 -24,24 -22,20 -24.5,25 -2.5,5 -2.5,6 0,5 9,5 4,0 14.5,1 10.5,1 19.5,3 7,2 10,2 3,0 4,-1 1,-1 1,-3 0,-3 -2,-7 -3,-8 -3,-17 0,-1 0.5,-7.5 0.5,-6.5 6.5,-19.5 z m -355,32 h -59 l 15,18 q 7,8 12,13.5 5,5.5 5,6.5 0,0 1,0 1,0 4.5,-5 3.5,-5 8.5,-13 z m 96,0 h -56 l 13,20 q 3,4 5.5,7.5 2.5,3.5 5.5,7.5 2,2 4,5 1,0 5.5,-6 4.5,-6 9.5,-14 z m -39,55 q -4,-8 -11.5,-18.5 -7.5,-10.5 -12.5,-16.5 -10,-9 -15,-9 -5,0 -14,10 -5,7 -8,13.5 -3,6.5 -4,17 -1,10.5 -1.5,27 -0.5,16.5 -0.5,36.5 0,87 -10,87 -1,0 -1,1 0,2 11,12 13,8 21,8 8,0 28,-11 l 29,-16 1,-56 q 0,-23 -3,-47 -3,-24 -9,-38 z m -259,-2 q -6,-12 -12,-12 -1,0 -5.5,1.5 -4.5,1.5 -21.5,21.5 -13,17 -13,21 0,4 10,9 7,2 26,10 19,8 40,16 l 52,26 -33,-37 q -14,-16 -26,-30.5 -12,-14.5 -17,-25.5 z m 419,48 q 2,-5 3.5,-10.5 1.5,-5.5 1.5,-7.5 0,-2 -1,-2 -1,0 -9.5,8.5 -8.5,8.5 -18,19.5 -9.5,11 -15,18.5 -5.5,7.5 -5.5,10.5 0,3 1,4 2,2 5,2 5,0 17.5,-9 12.5,-9 20.5,-34 z m 156,148 q 14,-14 19.5,-20.5 5.5,-6.5 5.5,-9.5 0,-1 -2,-1 -2,0 -11.5,1.5 -9.5,1.5 -17.5,2.5 -17,3 -21,5.5 -4,2.5 -4,7.5 0,2 1,4 1,3 1,5 0,5 -5,5 -8,0 -8.5,6.5 -0.5,6.5 -0.5,8.5 0,10 6,14 0,0 1,0 3,0 13,-8.5 10,-8.5 23,-20.5 z m -133,45 q 0,-24 -3,-30 -3,-6 -14,-6 -35,2 -37,5 -2,3 -2,5 0,6 17,26 9,13 16,22.5 7,9.5 7,15.5 0,6 6,6 6,0 8,-12.5 2,-12.5 2,-31.5 z m -47,14 q -18,-26 -28,-26 -2,0 -7.5,4 -5.5,4 -5.5,56 0,34 4.5,56.5 4.5,22.5 15.5,47.5 9,18 16,28.5 7,10.5 13.5,13.5 6.5,3 12.5,3 5,0 13,-2 8,-2 24,-9 l 22,-10 -29,-63 q -12,-26 -25.5,-53.5 -13.5,-27.5 -25.5,-45.5 z m -55,-8 q 0,-8 -3,-9 -3,-1 -4,-1 -6,0 -17,5 -6,3 -6,8 0,2 2.5,6.5 2.5,4.5 12.5,4.5 7,0 11,-3.5 4,-3.5 4,-10.5 z m -310,43 q 51,-36 51.5,-38.5 0.5,-2.5 0.5,-2.5 0,-1 -2,-1 -8,0 -35,9 -28,10 -49.5,15 -21.5,5 -35.5,6 -14,0 -24,2.5 -10,2.5 -12,4.5 -1,1 -1,5 0,4 1.5,13 1.5,9 5,22 3.5,13 8,23 4.5,10 7.5,10 2,0 5.5,-3 3.5,-3 5.5,-6 3,-5 23.5,-21 20.5,-16 50.5,-38 z m 212,3 q 0,-22 -2.5,-26.5 -2.5,-4.5 -17.5,-4.5 -3,0 -7,0 -23,2 -25,5 -2,3 -2,3 0,7 24,31 7,7 16,15.5 9,8.5 10,8.5 2,0 3,-9.5 1,-9.5 1,-22.5 z m 43,-14 q -11,-9 -18,-9 0,0 -4,0.5 -4,0.5 -8,20.5 -2,9 -2,21 0,7 1.5,23.5 1.5,16.5 7.5,41 6,24.5 14.5,44.5 8.5,20 14.5,25 5,3 17.5,3 12.5,0 26.5,-1 14,-1 26.5,-2.5 12.5,-1.5 14.5,-3.5 1,-1 1,-3 0,-6 -8.5,-25.5 -8.5,-19.5 -23.5,-47 -15,-27.5 -30,-51.5 -15,-24 -30,-36 z m 45,7 q -8,-9 -12,-9 -1,0 -1,1 0,3 3,9 3,6 5.5,9.5 2.5,3.5 6.5,3.5 4,0 4,-3.5 0,-3.5 -6,-10.5 z m -52,186 q -2,-4 -12.5,-7.5 -10.5,-3.5 -22.5,-5.5 -10,-2 -15,-2 -3,0 -5.5,1 -2.5,1 -2.5,6 0,2 1,5 2,5 5,17.5 3,12.5 5,25.5 l 4,29 35,-26 q 15,-11 30,-21 15,-10 23,-12 6,-2 11.5,-6 5.5,-4 5.5,-9 0,-5 -5,-5 -5,0 -19,6 -15,6 -24,6 -9,0 -14,-2 z"
     id="path1" />
</svg>
