<?xml version="1.0" encoding="UTF-8" standalone="no"?>
<svg
   width="2000"
   height="2000"
   version="1.1"
   id="svg1"
   sodipodi:docname="u121CB.svg"
   inkscape:version="1.3.2 (091e20e, 2023-11-25)"
   xmlns:inkscape="http://www.inkscape.org/namespaces/inkscape"
   xmlns:sodipodi="http://sodipodi.sourceforge.net/DTD/sodipodi-0.dtd"
   xmlns="http://www.w3.org/2000/svg"
   xmlns:svg="http://www.w3.org/2000/svg">
  <defs
     id="defs1" />
  <sodipodi:namedview
     id="namedview1"
     pagecolor="#505050"
     bordercolor="#eeeeee"
     borderopacity="1"
     inkscape:showpageshadow="0"
     inkscape:pageopacity="0"
     inkscape:pagecheckerboard="0"
     inkscape:deskcolor="#505050"
     inkscape:zoom="0.379"
     inkscape:cx="1000"
     inkscape:cy="998.68074"
     inkscape:window-width="1392"
     inkscape:window-height="1212"
     inkscape:window-x="0"
     inkscape:window-y="0"
     inkscape:window-maximized="0"
     inkscape:current-layer="svg1" />
  <path
     d="m 1068,634 q 1,-1 4,-1 2,0 5.5,0.5 3.5,0.5 10.5,3.5 5,4 30.5,6.5 25.5,2.5 79.5,2.5 0,0 0,0 h 1 q 0,0 1,0 0,0 1,0 0,0 0,0 0,0 1,0 0,0 1,0 h 12 q 14,0 19.5,1.5 5.5,1.5 5.5,3.5 0,0 -1,2 -1,2 -5,6 -6,8 -17,26.5 -11,18.5 -21,40.5 -7,16 -11.5,29 -4.5,13 -7.5,30 -3,17 -4,41.5 -1,24.5 -1,65.5 l -3,119 h 145 q 69,0 107.5,2.5 38.5,2.5 38.5,6.5 0,3 -38,5 -38,2 -106,2 h -146 v 248 l 69,4 q 14,1 31,2 17,1 34.5,2 17.5,1 34,1.5 16.5,0.5 28.5,0.5 25,0 42.5,2 17.5,2 17.5,4 0,2 -21.5,3 -21.5,1 -58.5,1.5 -37,0.5 -86,0.5 h -16 q -1,0 -3,0 h -9 q -2,0 -4,0 h -3 q -1,0 -3,0 h -3 q -2,0 -3,0 h -4 q -1,0 -3,0 h -55 q -84,-1 -140,-1 -56,0 -94.5,1 -38.5,1 -64.5,3.5 -26,2.5 -58,7.5 -32,6 -70.5,14.5 -38.5,8.5 -69.5,16 -31,7.5 -51.5,14 -20.5,6.5 -28.5,12.5 -3,3 -4,3 -2,0 -2,-1.5 0,-1.5 0,-3.5 0,-5 2,-15 3,-22 4,-48 1,-26 1,-47 0,-37 3,-47.5 3,-10.5 12,-10.5 8,0 9,-3.5 1,-3.5 1,-6.5 0,-7 -4,-22 -1,-12 -6,-26.5 -5,-14.5 -13,-27.5 -9,-15 -9,-22 0,-8 10,-8 12,0 13.5,-7.5 1.5,-7.5 1.5,-15.5 0,-14 -3,-43 -1,-21 -3.5,-39 Q 588,955 582,935 576,915 566,890.5 556,866 540,831 q 0,-1 0,-2 0,-4 6.5,-6 6.5,-2 17.5,-2 9,0 21,1 l 48,3 3,-78 q 2,-31 2.5,-54 0.5,-23 2.5,-23 2,0 12,9 10,9 18,17 17,17 33.5,29 16.5,12 27.5,17 12,7 44.5,12 32.5,5 75,9 42.5,4 88.5,6 46,2 84,2 38,0 63,-2.5 25,-2.5 25,-9.5 0,-4 -7,-23 -7,-19 -17,-42 -11,-23 -16,-38 -5,-15 -5,-20 0,-1 1,-2 z m 135,37 q 0,-4 -16,-6 -16,-2 -42,-2 -19,0 -31,1 -12,1 -14,5 -2,4 -2,7 0,4 4,14 4,10 14,31 5,8 10.5,27.5 5.5,19.5 9.5,38.5 l 12,45 10,-49 q 5,-20 13.5,-43 8.5,-23 17.5,-37 5,-8 9.5,-18.5 4.5,-10.5 4.5,-13.5 z m -458,93 q -16,-6 -33,-16 -17,-10 -29,-21 l -29,-25 v 58 q 0,24 2,42.5 2,18.5 4,20.5 1,1 4,1 2,0 7,-1 5,-1 12,-6 8,-5 23.5,-11 15.5,-6 26.5,-10 18,-6 28,-11 10,-5 10,-7 0,-1 -8.5,-5.5 Q 754,768 745,764 Z m 404,244 -1,-63 q 0,-26 -5,-58.5 -5,-32.5 -10,-52.5 l -14,-47 h -85 q 0,0 -1,0 h -2 q -1,0 -2,0 h -1 q -2,0 -3,0 h -3 q -1,0 -1,0 h -19 q -20,0 -39.5,-0.5 -19.5,-0.5 -37.5,-1 -18,-0.5 -37,-1.5 -21,-2 -38,-2 -17,0 -32.5,2.5 -15.5,2.5 -33,8.5 -17.5,6 -41.5,16 -24,9 -35.5,14.5 -11.5,5.5 -17,10.5 -5.5,5 -7,12 -1.5,7 -2.5,19 0,11 0.5,19 0.5,8 4,16.5 3.5,8.5 10.5,18 7,9.5 15,19.5 18,22 31.5,34.5 13.5,12.5 18.5,12.5 0,0 1,0 4,0 24.5,-13.5 20.5,-13.5 46,-33 Q 858,919 882,900 q 24,-19 33,-29 9,-10 9.5,-14 0.5,-4 0.5,-5 0,-7 -4,-14 -3,-8 -6,-14 -3,-6 -3,-8 0,-4 17.5,-5 17.5,-1 33.5,-1 8,0 25.5,0.5 17.5,0.5 39.5,2 22,1.5 25,4.5 1,1 1,2 0,2 -3,5.5 -3,3.5 -5,6.5 -11,13 -19.5,28 -8.5,15 -15.5,31.5 -7,16.5 -11.5,32.5 -4.5,16 -4.5,28 0,16 6.5,23 6.5,7 33.5,17 16,7 38.5,11 22.5,4 38.5,4 z M 1020,839 q 0,-6 -8.5,-8.5 -8.5,-2.5 -20.5,-2.5 -28,0 -31.5,9 -3.5,9 -3.5,17 0,15 7,43 l 14,43 13,-43 q 7,-18 13,-32 6,-14 12,-18 5,-3 5,-8 z m -395,16 q 2,-4 2,-7 0,-4 -4,-6 -4,-2 -21,-2 -9,-1 -15,-1 -3,0 -7.5,0.5 -4.5,0.5 -5.5,3.5 -1,3 -1,5 0,4 2.5,13 2.5,9 9.5,28 l 14,41 12,-32 q 5,-14 9,-26.5 4,-12.5 5,-16.5 z m 38,36 q 0,-9 -4,-11 -4,-2 -6,-2 -4,0 -8,4 -3,3 -3,7 0,3 3,8.5 3,5.5 10,5.5 4,0 6,-3.5 2,-3.5 2,-8.5 z m 308,169 q 0,-35 -4.5,-67.5 Q 962,960 956,933 q -6,-27 -10,-36.5 -4,-9.5 -6,-9.5 -6,0 -13,20 -5,12 -12.5,34.5 Q 907,964 904,978 q -3,14 -3,23 0,2 0.5,8.5 0.5,6.5 3.5,17.5 5,13 9,23 4,10 6,12 2,1 8,9 6,8 11,19 14,27 22,27 2,0 6,-5 4,-5 4,-52 z M 893,958 q 5,-16 7,-27.5 2,-11.5 2,-15.5 0,-2 0,-3 0,-1 -1,-1 -3,0 -12.5,6.5 -9.5,6.5 -23,18 -13.5,11.5 -25,24 Q 829,972 826,982 q -4,12 -14,12 -8,0 -8,8 0,8 12,12 4,2 16,7 12,5 25,11 l 33,13 -5,-25 q -2,-6 -2,-14 0,-7 2,-19.5 2,-12.5 8,-28.5 z M 655,920 q -14,-7 -21,-7 -2,0 -6.5,1.5 -4.5,1.5 -9.5,22.5 -3,15 -4.5,34.5 -1.5,19.5 -1.5,36.5 0,5 0.5,18.5 0.5,13.5 3,29.5 2.5,16 5.5,18 0,0 1,0 4,0 23,-7.5 19,-7.5 41.5,-19 22.5,-11.5 41,-22.5 18.5,-11 18.5,-15 0,-3 -10,-16 Q 726,981 712.5,967 699,953 684.5,940.5 670,928 655,920 Z m 379,88 q -10,-4 -22.5,-9 -12.5,-5 -13.5,-5 -2,0 -2.5,9 -0.5,9 -0.5,19 0,13 1,22 1,9 3,9 2,0 22,-7 20,-7 29,-10 19,-6 19,-10 0,-2 -5,-5 -5,-3 -30,-13 z m -224,20 q -9,-3 -20,-5.5 -11,-2.5 -14,-2.5 -6,0 -24,10.5 -18,10.5 -39,24.5 -21,14 -40.5,29.5 Q 653,1100 644,1111 l -24,29 19,3 q 2,0 5,0 8,0 21.5,-2.5 13.5,-2.5 30.5,-9.5 12,-6 36.5,-19 24.5,-13 48,-27 23.5,-14 40,-25.5 16.5,-11.5 16.5,-14.5 0,-3 -7.5,-8 -7.5,-5 -19.5,-9 z m 344,8 h -23 q -10,0 -28.5,3.5 -18.5,3.5 -37.5,8.5 -19,5 -36.5,10.5 -17.5,5.5 -24.5,9.5 -17,10 -17,41 0,11 2,19 2,8 9.5,18.5 7.5,10.5 21,25 13.5,14.5 33.5,34.5 32,31 56,50.5 24,19.5 31,19.5 4,0 6.5,-3.5 2.5,-3.5 4.5,-15.5 2,-12 2.5,-36 0.5,-24 0.5,-65 z m -261,45 q -9,-8 -18.5,-13.5 -9.5,-5.5 -14.5,-5.5 -9,0 -32,12.5 -23,12.5 -49.5,30 -26.5,17.5 -51.5,36.5 -25,19 -42,39 -9,11 -19,20.5 -10,9.5 -12,9.5 -1,0 -1,0 -2,-1 -6.5,-8.5 Q 642,1194 636,1186 l -15,-21 v 26 q 0,23 10.5,28.5 10.5,5.5 17.5,5.5 9,0 20,-6 6,-2 19.5,-6 13.5,-4 20.5,-6 10,-2 25.5,-8.5 15.5,-6.5 36,-16 20.5,-9.5 43,-21 22.5,-11.5 42.5,-22.5 20,-11 35.5,-20 15.5,-9 18.5,-12 2,-2 2,-4 0,-3 -4.5,-8.5 Q 903,1089 893,1081 Z m -263,15 q 0,-2 -2,-2 0,0 -3,1.5 -3,1.5 -7,7.5 -2,3 -2,5 0,1 1,1 1,0 3,-1 10,-7 10,-12 z m 341,117 q 0,-22 -0.5,-35.5 -0.5,-13.5 -3,-22.5 -2.5,-9 -6.5,-14.5 -4,-5.5 -10,-11.5 l -18,-18 -79,47 q -63,36 -89.5,57.5 -26.5,21.5 -26.5,31.5 0,10 32.5,15.5 32.5,5.5 119.5,10.5 l 81,6 z m -302,-43 q 1,-1 1,-3 0,-2 -3,-4 -3,-2 -9,-2 -10,0 -10,7 0,1 0,2 2,3 4.5,6 2.5,3 6.5,3 3,0 6,-3 3,-3 4,-6 z m 396,72 q -14,-15 -30,-31.5 -16,-16.5 -25,-24.5 l -24,-19 6,106 106,5 z m -346,-4 q 1,-3 1,-4 0,-3 -3,-5 -3,-2 -9,-2 -5,0 -8,2 -3,2 -3,4 0,2 1,3 1,5 4.5,7 3.5,2 6.5,2 7,0 10,-7 z m -68,7 q -18,-6 -25,-7.5 -7,-1.5 -10,-1.5 -7,0 -11.5,4 -4.5,4 -6,15.5 -1.5,11.5 -1.5,31.5 v 48 l 23,-5 q 9,-2 28,-6.5 19,-4.5 33,-8.5 20,-6 42.5,-11 22.5,-5 37.5,-7 29,-4 29,-10 0,-1 -4,-5.5 -4,-4.5 -46,-6.5 -17,-2 -33,-5.5 -16,-3.5 -21,-5.5 -5,-5 -14.5,-9.5 Q 662,1250 651,1245 Z"
     id="path1" />
</svg>
