<?xml version="1.0" encoding="UTF-8" standalone="no"?>
<svg
   width="2000"
   height="2000"
   version="1.1"
   id="svg1"
   sodipodi:docname="u1221B.svg"
   inkscape:version="1.3.2 (091e20e, 2023-11-25)"
   xmlns:inkscape="http://www.inkscape.org/namespaces/inkscape"
   xmlns:sodipodi="http://sodipodi.sourceforge.net/DTD/sodipodi-0.dtd"
   xmlns="http://www.w3.org/2000/svg"
   xmlns:svg="http://www.w3.org/2000/svg">
  <defs
     id="defs1" />
  <sodipodi:namedview
     id="namedview1"
     pagecolor="#505050"
     bordercolor="#eeeeee"
     borderopacity="1"
     inkscape:showpageshadow="0"
     inkscape:pageopacity="0"
     inkscape:pagecheckerboard="0"
     inkscape:deskcolor="#505050"
     inkscape:zoom="0.379"
     inkscape:cx="1000"
     inkscape:cy="998.68074"
     inkscape:window-width="1392"
     inkscape:window-height="1212"
     inkscape:window-x="0"
     inkscape:window-y="0"
     inkscape:window-maximized="0"
     inkscape:current-layer="svg1" />
  <path
     d="m 1411,634.5 q 4,-2 9,-2 6,0 14,3 16,8 45.5,10 29.5,2 59.5,2 h 75 l -30,39 q -20,24 -32,49 -12,25 -18.5,61.5 -6.5,36.5 -9,93 -2.5,56.5 -2.5,159.5 0,63 1,106.5 1,43.5 3,65.5 2,22 6,27 4,5 14,8 17,6 17,14 0,9 -18,9 -9,0 -16,3 -7,3 -7,9 0,5 -2,5 -3,0 -10,-7 -7,-4 -92.5,-7 -85.5,-3 -256.5,-3 -119,0 -191,1.5 -72,1.5 -123,3.5 -51,2 -88.5,5 -37.5,3 -101.5,14 -89,13 -164.5,29.5 -75.5,16.5 -92.5,30.5 -4,4 -6,4 -4,0 -6,-6 -2,-6 -2,-12 0,-10 5,-25 6,-18 8,-36.5 2,-18.5 2,-29.5 0,-14 -2,-27 -1,-12 -1,-22 0,-8 1,-19.5 1,-11.5 4,-11.5 3,0 31.5,9 28.5,9 43.5,14 101,34 205.5,45 104.5,11 199.5,11 37,0 74,-1 l 109,-3 -3,-60 q 0,-25 -1.5,-43 -1.5,-18 -2.5,-18 0,-2 -18,-2.5 -18,-0.5 -49,-0.5 -3,0 -6,0 h -2 q 0,0 -1,0 h -5 q -3,0 -6,0 h -2 q -1,0 -2,0 h -2 q -1,0 -2,0 h -3 q -1,0 -2,0 h -27 q -1,0 -2,0 h -10 q -3,0 -6,0 h -3 q 0,0 -1,0 h -6 q -4,0 -8,0 h -2 q -2,0 -3,0 h -2 q -2,0 -3,0 h -3 q -1,0 -2,0 h -32 q -2,0 -3,0 h -9 q -75,0 -125.5,0.5 -50.5,0.5 -91,3.5 -40.5,3 -78,7.5 -37.5,4.5 -88.5,13.5 l -43,8 7,-45 q 0,-1 0,-2 l 1,-3 q 1,-8 2,-15 v -1 q 1,-6 2,-11 3,-13 4,-16 1,-1 3,-1 5,0 21.5,4 16.5,4 32.5,9 27,7 52,11 25,4 61.5,6 36.5,2 88.5,3.5 52,1.5 124,3.5 l 253,6 v -102 l -148,-3 q -77,-2 -134,-2 -57,0 -102.5,2.5 -45.5,2.5 -85.5,6 -40,3.5 -80,11.5 -39,7 -63.5,9.5 -24.5,2.5 -30.5,2.5 -2,0 -2,0 -1,-1 -1,-7 0,-3 0.5,-11.5 0.5,-8.5 1.5,-22.5 3,-22 6,-32 3,-10 9,-11.5 6,-1.5 10,-1.5 7,0 21,3 14,3 25,6 51,12 123.5,17.5 72.5,5.5 203.5,8.5 l 250,6 -6,-69 q -3,-30 -6,-53.5 -3,-23.5 -4,-26.5 -8,-13 -174,-13 -83,0 -137.5,3 -54.5,3 -99.5,9.5 -45,6.5 -83.5,18 -38.5,11.5 -83.5,30.5 -9,5 -24.5,11.5 -15.5,6.5 -18.5,6.5 -5,0 -6.5,-27 -1.5,-27 -1.5,-59 0,-32 1.5,-60.5 1.5,-28.5 4.5,-33.5 2,0 13,6 11,6 28,18 22,18 45.5,29.5 23.5,11.5 60,17.5 36.5,6 93.5,7.5 57,1.5 164,1.5 78,0 126.5,-1 48.5,-1 62.5,-8 14,-7 14,-18 0,-5 -5,-18.5 -5,-13.5 -20,-47.5 -12,-29 -19,-44 -5,-10 -8,-18 0,-1 25,-1 25,0 55,1 39,2 60.5,5 21.5,3 21.5,6 0,1 0,1 -1,3 -9.5,22 -8.5,19 -20.5,41 l -27,56 v 469 l 258,6 -4,-148 q -2,-45 -4,-76.5 -2,-31.5 -5,-54 -3,-22.5 -7,-40.5 -4,-18 -11,-36 -14,-39 -20.5,-57 -6.5,-18 -6.5,-26 0,-3 1.5,-8 1.5,-5 14.5,-5 h 1 q 0,0 1,0 h 2 q 1,0 1,0 h 3 q 1,0 1,0 h 4 q 0,0 1,0 h 1 q 1,0 1,0 h 23 q 26,0 43,3 17,3 17,7 0,3 -6,16.5 -6,13.5 -15,27.5 -9,16 -13.5,28 -4.5,12 -6.5,33 -2,21 -3,57 -1,36 -1,98 l 2,175 145,6 -3,-198 q -1,-67 -2.5,-109 -1.5,-42 -5.5,-69 -4,-27 -8.5,-46.5 -4.5,-19.5 -17.5,-54.5 -8,-19 -21.5,-51.5 -13.5,-32.5 -23.5,-51.5 -6,-14 -10,-24 -4,-10 -4,-14 0,-5 3,-7 z m 152,36 q 0,-2 -18,-2 -1,0 -2,0 h -2 q 0,0 -1,0 0,0 -1,0 h -3 q 0,0 -1,0 h -1 q -1,0 -1,0 h -2 q 0,0 -1,0 h -1 q -1,0 -1,0 h -2 q 0,0 -1,0 h -16 q -1,0 -2,0 h -6 q -40,0 -47,2 -7,2 -7,8 0,5 2,11 1,3 10,25 9,22 15,38 20,50 26,54.5 6,4.5 8,4.5 5,0 5,-15 0,-15 7,-34 7,-19 20,-44 9,-17 16,-32 7,-15 7,-16 z m -479,7 q -12,0 -25.5,-1.5 -13.5,-1.5 -20.5,-4.5 -4,-2 -8,-2 -3,0 -5,2 -2,2 -2,8 0,4 1.5,14 1.5,10 10.5,36 9,26 13,37 11,32 17,32 2,0 5.5,-6.5 3.5,-6.5 15.5,-39.5 3,-10 10.5,-29.5 7.5,-19.5 11.5,-27.5 3,-6 3,-10 0,-4 -3.5,-6 -3.5,-2 -23.5,-2 z m -591,114 q -19,-12 -33,-15 -7,-4 -15,-7 -3,0 -3,16 0,1 0,2 v 5 q 0,2 0,3 v 6 q 0,1 0,1 v 15 q 0,1 0,2 v 5 q 0,38 2.5,45 2.5,7 9.5,7 3,0 6,-1 69,-24 95.5,-34.5 26.5,-10.5 26.5,-16.5 0,-6 -14,-6 -12,0 -31.5,-6.5 Q 517,805.5 493,791.5 Z m 654,38 q -1,-5 -1,-8 0,-8 7.5,-10.5 7.5,-2.5 43.5,-2.5 30,0 48,2 18,2 18,5 0,3 -7,18 -7,15 -14,30 -9,20 -13.5,33.5 -4.5,13.5 -7,34.5 -2.5,21 -2.5,54 v 2 q 0,1 0,2 v 6 q 0,1 0,2 v 8 q 0,1 0,3 v 7 q 0,2 0,3 v 3 q 0,1 0,2 v 52 q 2,40 2,74 0,22 -1.5,56.5 -1.5,34.5 -6.5,37.5 0,0 0,0 -3,0 -6.5,-38.5 -3.5,-38.5 -5.5,-101.5 -1,-40 -2.5,-71 -1.5,-31 -4.5,-53.5 -3,-22.5 -7.5,-39.5 -4.5,-17 -13.5,-41 -8,-20 -16,-42.5 -8,-22.5 -10,-26.5 z m 80,19 q 3,-7 3,-12 0,-3 -3,-5 -3,-2 -21,-2 -27,0 -29.5,4.5 -2.5,4.5 -2.5,7.5 0,9 9,28 13,26 21,26 8,0 12,-17 2,-6 5.5,-15.5 3.5,-9.5 5.5,-14.5 z m 145,-13 q 0,-6 -24,-6 -31,0 -32.5,6 -1.5,6 -1.5,8 0,11 13,34 l 14,25 16,-31 q 15,-30 15,-36 z m -870,148 q -35,-14 -48,-14 -1,0 -6,1 -5,1 -5,13 0,4 1,8 3,18 9,19 6,1 8,1 12,0 40,-7 28,-6 28,-9 0,0 -0.5,-1.5 -0.5,-1.5 -26.5,-10.5 z m -16,117 q -25,-10 -34,-10 -2,0 -6,1.5 -4,1.5 -4,22.5 0,16 3,18 3,2 7,2 9,0 29,-4 30,-7 32,-9.5 2,-2.5 2,-3.5 0,-5 -29,-17 z m -2,123 q -13,-4 -31,-9.5 -18,-5.5 -21,-5.5 -3,0 -7,17.5 -4,17.5 -6,39 -2,21.5 -2.5,34 -0.5,12.5 -0.5,17.5 0,9 1,11 0,0 1,0 5,0 31,-4 26,-4 68,-13 36,-9 76,-17 40,-8 59,-11 l 45,-9 -75,-14 q -30,-6 -68,-15 -38,-9 -70,-21 z"
     id="path1" />
</svg>
