<?xml version="1.0" encoding="UTF-8" standalone="no"?>
<svg
   width="2000"
   height="2000"
   version="1.1"
   id="svg1"
   sodipodi:docname="u122F0.svg"
   inkscape:version="1.3.2 (091e20e, 2023-11-25)"
   xmlns:inkscape="http://www.inkscape.org/namespaces/inkscape"
   xmlns:sodipodi="http://sodipodi.sourceforge.net/DTD/sodipodi-0.dtd"
   xmlns="http://www.w3.org/2000/svg"
   xmlns:svg="http://www.w3.org/2000/svg">
  <defs
     id="defs1" />
  <sodipodi:namedview
     id="namedview1"
     pagecolor="#505050"
     bordercolor="#eeeeee"
     borderopacity="1"
     inkscape:showpageshadow="0"
     inkscape:pageopacity="0"
     inkscape:pagecheckerboard="0"
     inkscape:deskcolor="#505050"
     inkscape:zoom="0.379"
     inkscape:cx="1000"
     inkscape:cy="998.68074"
     inkscape:window-width="1392"
     inkscape:window-height="1212"
     inkscape:window-x="0"
     inkscape:window-y="0"
     inkscape:window-maximized="0"
     inkscape:current-layer="svg1" />
  <path
     d="m 674.5,965 q 1,-40 2.5,-78 1.5,-38 3,-67 1.5,-29 3,-45.5 1.5,-16.5 2.5,-16.5 1,0 9,8 8,8 14,15 14,15 36,31 22,16 44,27 l 53,26 255,-1 h 11 q 4,0 8,0 h 3 q 5,0 9,0 h 10 q 4,0 9,0 h 34 q 2,0 4,0 h 10 q 46,0 80.5,1 34.5,1 54.5,2 20,1 20,2 0,3 -28,6.5 -28,3.5 -72.5,6.5 -44.5,3 -98.5,4.5 -54,1.5 -102,1.5 -38,0 -61.5,1 -23.5,1 -42.5,3.5 -19,2.5 -37,7 -18,4.5 -37,11.5 -25,8 -52,20 -27,12 -53,24.5 -26,12.5 -47,23.5 -21,11 -26,15 -3,3 -3,7 0,3 5,10 5,7 19,18 14,11 31.5,23 17.5,12 35.5,21 l 52,25 h 250 q 51,0 96.5,0.5 45.5,0.5 79.5,1 34,0.5 53.5,1.5 19.5,1 19.5,2 0,4 -23,7 -23,3 -61,5.5 -38,2.5 -87,4 -49,1.5 -102,1.5 -43,0 -71,1 -28,1 -49,3.5 -21,2.5 -39,7 -18,4.5 -38,11.5 -31,10 -61,23.5 -30,13.5 -56,26.5 -26,13 -44,24 -18,11 -20,17 -2,4 -7,5.5 -5,1.5 -10,1.5 -5,0 -9,-2.5 -4,-2.5 -4,-6.5 0,-4 2.5,-12.5 2.5,-8.5 4.5,-13.5 3,-9 5.5,-29.5 2.5,-20.5 4.5,-52 2,-31.5 4,-72 2,-40.5 3,-88.5 z m 152,-93 Q 804.5,866 780,854.5 755.5,843 739.5,832 l -41,-28 -3,79 q -1,16 -1,31 0,14 1.5,31.5 1.5,17.5 5.5,17.5 2,0 15.5,-7 13.5,-7 22.5,-12 24,-13 46.5,-23 22.5,-10 43.5,-16 13,-4 24.5,-9 11.5,-5 11.5,-8 0,-2 -13,-7 -13,-5 -26,-9 z m -5,236 q -15,-2 -39.5,-13 -24.5,-11 -44.5,-25 l -49,-33 -2,80 q -1,21 -1,36 0,12 1,27.5 1,15.5 7,15.5 4,0 14.5,-5 10.5,-5 19.5,-11 14,-8 37,-18 23,-10 40,-16 23,-9 37,-16 14,-7 14,-10 0,-2 -10,-5.5 -10,-3.5 -24,-6.5 z"
     id="path1" />
</svg>
