<?xml version="1.0" encoding="UTF-8" standalone="no"?>
<svg
   width="2000"
   height="2000"
   version="1.1"
   id="svg1"
   sodipodi:docname="u12240.svg"
   inkscape:version="1.3.2 (091e20e, 2023-11-25)"
   xmlns:inkscape="http://www.inkscape.org/namespaces/inkscape"
   xmlns:sodipodi="http://sodipodi.sourceforge.net/DTD/sodipodi-0.dtd"
   xmlns="http://www.w3.org/2000/svg"
   xmlns:svg="http://www.w3.org/2000/svg">
  <defs
     id="defs1" />
  <sodipodi:namedview
     id="namedview1"
     pagecolor="#505050"
     bordercolor="#eeeeee"
     borderopacity="1"
     inkscape:showpageshadow="0"
     inkscape:pageopacity="0"
     inkscape:pagecheckerboard="0"
     inkscape:deskcolor="#505050"
     inkscape:zoom="0.379"
     inkscape:cx="1000"
     inkscape:cy="998.68074"
     inkscape:window-width="1392"
     inkscape:window-height="1212"
     inkscape:window-x="0"
     inkscape:window-y="0"
     inkscape:window-maximized="0"
     inkscape:current-layer="svg1" />
  <path
     d="m 973.5,648.5 q 5,-5 9,-5 3,0 7.5,4 4.5,4 4.5,17 0,17 15.5,37 15.5,20 37.5,40.5 22,20.5 45,37 23,16.5 47,21.5 16,3 75.5,18.5 59.5,15.5 135.5,35.5 76,20 157.5,42 81.5,22 150.5,41 69,19 114.5,32 45.5,13 52.5,18 4,2 4,5.5 0,3.5 -7,9.5 -3,1 -34,7 -31,6 -82,14.5 -51,8.5 -118,19.5 -67,11 -189,31 -66,10 -139,22 -73,12 -118,21 -45,9 -69.5,16.5 -24.5,7.5 -44.5,18.5 -21,11 -46.5,30.5 -25.5,19.5 -46,39.5 -20.5,20 -33.5,37.5 -13,17.5 -13,35.5 0,12 -5,12 -1,0 -3,-1 -7,-3 -10,-20 -3,-17 -3,-38 -1,-20 -7,-51.5 -6,-31.5 -17,-63.5 -5,-17 -9.5,-32 -4.5,-15 -4.5,-19 0,-2 1,-2 0,-1 1,-1 3,0 12.5,5 9.5,5 16.5,10 23,13 44,19.5 21,6.5 35,6.5 h 36 l -4,-82 q -5,-57 -17,-99 -12,-42 -36,-74 -5,-8 -5,-18 0,-5 2,-15.5 2,-10.5 18,-50.5 13,-27 21,-54.5 8,-27.5 8,-42.5 0,-8 2,-19 2,-11 8,-17 z m -151,18 q 19,-11 27,-11 8,0 12,9 2,4 2,7 0,7 -11,11 -9,4 -19.5,20 -10.5,16 -19.5,37.5 -9,21.5 -16,45.5 -7,24 -9.5,40.5 -2.5,16.5 -2.5,26.5 0,6 1.5,15.5 1.5,9.5 10.5,9.5 5,0 12.5,-3.5 7.5,-3.5 12.5,-8.5 5,-5 11,-6.5 6,-1.5 9,-1.5 6,0 12,3 9,3 9,8 0,1 -1,4 -1,3 -12,13 -38,36 -54,105.5 -16,69.5 -16,188.5 0,30 -1,55.5 -1,25.5 -2,44.5 -1,19 -2.5,30 -1.5,11 -5.5,11 -3,0 -5,-6 -2,-6 -2,-14 0,-9 -3,-15.5 -3,-6.5 -6,-6.5 -5,0 -32,-17 -27,-17 -61,-42 -70,-51 -122,-78.5 -52,-27.5 -92,-36.5 -30,-7 -31,-11.5 -1,-4.5 -1,-4.5 0,-9 31,-22 14,-5 23,-11 9,-6 9,-9 0,-3 -9,-13.5 -9,-10.5 -21,-23.5 l -30,-28 -20,30 q -38,55 -42,79.5 -4,24.5 -4,32.5 0,28 21,39 8,5 14.5,12 6.5,7 6.5,11 0,7 19.5,21.5 19.5,14.5 51.5,33.5 59,35 94.5,63.5 35.5,28.5 35.5,46.5 0,6 -4,6 -5,0 -20,-15 -17,-16 -44.5,-36 -27.5,-20 -60.5,-40.5 -33,-20.5 -69,-40.5 -36,-20 -69.5,-36 -33.5,-16 -62,-27.5 -28.5,-11.5 -55.5,-15.5 -16,-3 -27.5,-6.5 -11.5,-3.5 -11.5,-8.5 0,-5 12.5,-12.5 12.5,-7.5 31.5,-16.5 34,-17 62.5,-34.5 28.5,-17.5 52.5,-35 24,-17.5 41,-32 17,-14.5 20,-23.5 1,-3 1,-5 0,-9 -12,-21 -12,-12 -35,-25 -23,-13 -52,-23.5 -29,-10.5 -58,-13.5 l -48,-6 91,-60 q 19,-13 40,-28 21,-15 40.5,-30 19.5,-15 37,-28.5 17.5,-13.5 33.5,-26.5 20,-18 31,-25.5 11,-7.5 15,-7.5 3,0 3,4 0,5 -5,14.5 -5,9.5 -12,14.5 -8,5 -25,27.5 -17,22.5 -31,42.5 -25,36 -33,55 -8,19 -8,34 0,6 2.5,19.5 2.5,13.5 21,34.5 18.5,21 51.5,51 l 66,60 43,-34 q 15,-13 22.5,-20.5 7.5,-7.5 9.5,-11.5 2,-4 2,-6 0,-3 -2.5,-7 -2.5,-4 -9.5,-11 -11,-12 -25.5,-22 -14.5,-10 -31,-17.5 -16.5,-7.5 -33.5,-11.5 -17,-4 -35,-4 -29,0 -32,-5.5 -3,-5.5 -3,-7.5 0,-8 19,-18 13,-6 37.5,-22 24.5,-16 52,-36 27.5,-20 54.5,-41.5 27,-21.5 43,-35.5 25,-24 34,-24 2,0 3,2 1,2 1,3 0,11 -30,45 -36,41 -52,72 -16,31 -16,50 0,5 1,9 4,10 21.5,31.5 17.5,21.5 40.5,41.5 21,22 34,36.5 13,14.5 13,20.5 0,1 -1,2 -1,1 -2,1 -4,0 -12,-4.5 -8,-4.5 -19,-13.5 l -25,-24 -18,27 q -7,11 -14,30 -7,19 -9,39 -1,10 -1,19 0,9 3,17 3,8 9.5,16.5 6.5,8.5 17.5,18.5 16,16 41.5,36 25.5,20 50,39 24.5,19 44.5,32 20,13 24,13 4,0 4.5,-7 0.5,-7 0.5,-10 0,-11 -2,-27 -2,-13 -5,-46.5 -3,-33.5 -4,-46.5 -4,-51 -11,-85 -7,-34 -17,-63 -10,-29 -21.5,-50 -11.5,-21 -28.5,-32 -13,-8 -13,-14 0,-2 3.5,-6.5 3.5,-4.5 39.5,-4.5 h 44 l -8,-39 q -4,-21 -11.5,-44 -7.5,-23 -16.5,-42.5 -9,-19.5 -18,-33 -9,-13.5 -17,-15.5 -16,-7 -16,-14 0,-7 12,-8 12,-1 17,-1 18,0 43,4 21,2 38,2 11,0 27.5,-1.5 16.5,-1.5 27.5,-6.5 z m -22,49 q 1,-2 1,-3 0,-14 -39,-18 -18,-1 -31.5,-1 -13.5,0 -15.5,1 0,0 0,1 0,4 5.5,21.5 5.5,17.5 14,39 8.5,21.5 17,39.5 8.5,18 10.5,18 2,0 8,-13 6,-13 11,-32 6,-18 12,-34.5 6,-16.5 7,-18.5 z m 259,72 -74,-72 -16,41 q -7,16 -11,28 -4,12 -4,14 2,0 18,-1.5 16,-1.5 36,-3.5 z m -714,54 q 7,-18 9.5,-29.5 2.5,-11.5 2.5,-14.5 0,-2 0,-2 0,0 -1,0 -3,0 -17,9 -14,9 -30.5,22 -16.5,13 -30,25.5 -13.5,12.5 -13.5,16.5 0,4 8,6.5 8,2.5 29,2.5 0,0 1,0 0,0 0,0 h 1 q 0,0 1,0 0,0 0,0 h 8 q 10,0 12,1 0,0 1,0 2,0 7.5,-10.5 5.5,-10.5 11.5,-26.5 z m 1141,70 q -150,-41 -237.5,-61.5 -87.5,-20.5 -142.5,-29 -55,-8.5 -88,-8.5 -6,0 -25.5,1 -19.5,1 -39.5,17 -10,8 -10,14 0,4 9,9.5 9,5.5 72,5.5 18,0 37,0.5 19,0.5 19,2.5 -4,5 -10,10 -7,9 -16,18 -60,59 -60,176 v 56 l 35,-6 q 7,-1 39,-6.5 32,-5.5 81.5,-13.5 49.5,-8 111.5,-18 62,-10 156,-25 60,-10 122,-20.5 62,-10.5 104,-17.5 42,-7 67,-11.5 25,-4.5 37.5,-7.5 12.5,-3 15,-5 2.5,-2 2.5,-2 0,-1 0,-1 -2,-2 -26.5,-9 -24.5,-7 -66,-18 -41.5,-11 -96.5,-26 -55,-15 -90,-24 z m -950,-71 q 2,-10 2,-15 0,-6 -1.5,-7 -1.5,-1 -2.5,-1 -7,0 -30,18 -16,14 -18,18 -2,4 -2,6 0,4 6,8 11,7 20,7 18,0 26,-34 z m 476,53 q -1,-4 -9.5,-8.5 -8.5,-4.5 -18.5,-5.5 -4,-1 -7,-1 -7,0 -9,2.5 -2,2.5 -2,7.5 0,7 3,19 3,10 6.5,20.5 3.5,10.5 5.5,12.5 1,1 3,1 2,0 6.5,-4 4.5,-4 10.5,-12.5 6,-8.5 9,-16.5 3,-8 3,-11 0,-3 -1,-4 z m -211,8 q -6,-1 -13,-2 -5,-1 -12.5,-2 -7.5,-1 -15.5,-3 -9,-1 -17,-1 -4,0 -11.5,0.5 -7.5,0.5 -14,3 -6.5,2.5 -7,4.5 -0.5,2 -0.5,3 0,3 5,6 7,5 13.5,20.5 6.5,15.5 12.5,36.5 5,19 11,33 6,14 9,14 3,0 9.5,-17 6.5,-17 14,-37.5 7.5,-20.5 12.5,-36 5,-15.5 5,-20.5 0,-1 -1,-2 z m -258,171 q 1,-11 1,-19 0,-4 -0.5,-11 -0.5,-7 -4.5,-7 -3,0 -13.5,6 -10.5,6 -21,13.5 -10.5,7.5 -19,15 -8.5,7.5 -8.5,10.5 0,3 7,7.5 7,4.5 17,9 10,4.5 19.5,8 9.5,3.5 12.5,3.5 4,0 6,-10.5 2,-10.5 4,-25.5 z m -202,3 q 5,-9 5,-13 0,-5 -6,-5 -1,0 -2,0 -7,1 -23.5,9.5 -16.5,8.5 -34.5,19.5 -18,11 -32,21 -14,10 -14,13 0,2 11.5,7.5 11.5,5.5 26.5,11 15,5.5 29.5,9.5 14.5,4 17.5,4 5,0 7,-9 2,-9 2,-19 0,-12 3.5,-25.5 3.5,-13.5 9.5,-23.5 z m 619,71 q -4,-1 -20,-4 -16,-3 -33,-7 -18,-2 -27,-2 -4,0 -6.5,0.5 -2.5,0.5 -2.5,5.5 0,4 2,10 2,8 5,21.5 3,13.5 7,24.5 2,14 4.5,22 2.5,8 4.5,8 1,0 13.5,-10.5 12.5,-10.5 28.5,-26.5 23,-20 26.5,-26.5 3.5,-6.5 3.5,-8.5 0,-5 -6,-7 z"
     id="path1" />
</svg>
