<?xml version="1.0" encoding="UTF-8" standalone="no"?>
<svg
   width="2000"
   height="2000"
   version="1.1"
   id="svg1"
   sodipodi:docname="u12200.svg"
   inkscape:version="1.3.2 (091e20e, 2023-11-25)"
   xmlns:inkscape="http://www.inkscape.org/namespaces/inkscape"
   xmlns:sodipodi="http://sodipodi.sourceforge.net/DTD/sodipodi-0.dtd"
   xmlns="http://www.w3.org/2000/svg"
   xmlns:svg="http://www.w3.org/2000/svg">
  <defs
     id="defs1" />
  <sodipodi:namedview
     id="namedview1"
     pagecolor="#505050"
     bordercolor="#eeeeee"
     borderopacity="1"
     inkscape:showpageshadow="0"
     inkscape:pageopacity="0"
     inkscape:pagecheckerboard="0"
     inkscape:deskcolor="#505050"
     inkscape:zoom="0.379"
     inkscape:cx="1000"
     inkscape:cy="998.68074"
     inkscape:window-width="1392"
     inkscape:window-height="1212"
     inkscape:window-x="0"
     inkscape:window-y="0"
     inkscape:window-maximized="0"
     inkscape:current-layer="svg1" />
  <path
     d="m 730,661 q 4,-18 11,-18 7,0 25,17 27,22 75.5,47.5 Q 890,733 945,758 q 55,25 103,42 48,17 67,17 h 33 l -15,-27 q -4,-12 -8.5,-21 -4.5,-9 -4.5,-10 0,-5 18,-7.5 18,-2.5 35,-2.5 11,0 23,1 33,0 55.5,2 22.5,2 22.5,5 0,3 -6.5,13.5 -6.5,10.5 -14.5,21.5 -10,13 -17.5,27.5 -7.5,14.5 -10.5,24.5 -1,5 -1,9 0,2 0.5,5.5 0.5,3.5 9.5,8 9,4.5 29,10.5 20,6 50,14 39,9 89.5,23 50.5,14 106.5,30 56,16 113,32.5 57,16.5 103.5,30 46.5,13.5 76,22.5 29.5,9 32.5,12 1,1 1,3 0,4 -19.5,10 -19.5,6 -59.5,9 -27,2 -73,8 -46,6 -102,12.5 -56,6.5 -116,14 -60,7.5 -110.5,13.5 -50.5,6 -84,10.5 -33.5,4.5 -39.5,6.5 -14,3 -17,13.5 -3,10.5 -3,43.5 0,31 -3,47.5 -3,16.5 -7,16.5 -3,0 -6,-16.5 -3,-16.5 -3,-41.5 v -59 l -42,6 q -18,3 -50.5,7.5 -32.5,4.5 -60.5,9.5 l -68,12 107,1 q 48,0 76.5,3 28.5,3 28.5,6 0,5 -22,7 -22,2 -52,2 -37,0 -76,4 -39,4 -80,14 -29,9 -40,9 0,0 -3.5,-0.5 -3.5,-0.5 -3.5,-7.5 0,-4 2,-10 2,-7 2,-11 0,-5 -2,-5.5 -2,-0.5 -6,-0.5 -10,0 -42,4 -28,3 -46,6 -18,3 -28.5,6.5 -10.5,3.5 -13.5,8 -3,4.5 -3,13.5 0,15 -9,15 -9,0 -9,-13 0,-16 -15,-16 -4,0 -9,1 -26,3 -39,21 -6,7 -10,7 -3,0 -5,-4 -4,-8 -22,-8 -7,0 -26.5,2.5 -19.5,2.5 -89.5,15.5 -78,15 -134.5,28.5 -56.5,13.5 -100,27 -43.5,13.5 -71,26.5 -27.5,13 -38.5,25 -4,4 -10,8.5 -6,4.5 -11,4.5 -5,0 -5,-6 0,-2 2,-10 2,-8 12,-18 12,-14 17.5,-32 5.5,-18 6,-29 0.5,-11 0.5,-13 0,-17 -3.5,-34.5 Q 196,1197 184,1179 q -3,-6 -5,-9.5 -2,-3.5 -2,-4.5 0,-3 4.5,-4 4.5,-1 9.5,-1 9,0 29.5,2 20.5,2 44.5,5 40,3 68,4.5 28,1.5 60,1.5 h 7 q 2,0 5,0 h 2 q 1,0 2,0 h 2 q 3,0 6,0 h 2 q 1,0 2,0 h 5 q 1,0 2,0 h 20 q 1,0 2,0 h 9 q 34,0 65,-2 l 146,-6 v -94 q 0,-32 -1.5,-56.5 Q 667,990 664,967.5 661,945 655.5,922.5 650,900 647,891 q -2,-8 -2,-13 0,-14 14.5,-15.5 14.5,-1.5 67.5,-4.5 17,-1 31,-1 37,0 47.5,3.5 10.5,3.5 10.5,8.5 0,5 -7,11 -10,11 -16,33.5 -6,22.5 -11.5,52.5 -5.5,30 -9,63 -3.5,33 -3.5,60 v 70 h 30 q 12,0 33.5,-1.5 21.5,-1.5 38.5,-2.5 l 42,-8 V 876 q 1,-5 1,-14 v -1 q 0,0 0,0 v -2 q 0,-1 0,-1 v -1 q 0,0 0,0 v -2 q 0,0 0,-1 0,0 0,-1 v -9 q 0,-1 0,-1 0,-9 -2,-13.5 -2,-4.5 -9.5,-8.5 -7.5,-4 -22,-6 -14.5,-2 -27.5,-5 -44,-6 -85,-8.5 -41,-2.5 -68,-2.5 -21,1 -36,1 -23,0 -30.5,-2 -7.5,-2 -7.5,-5 0,-4 14,-9 16,-7 29.5,-20.5 13.5,-13.5 25.5,-31 12,-17.5 22,-36 10,-18.5 13,-35.5 z m 40,24 Q 755,675 751.5,674.5 748,674 747,674 q -5,0 -5,10 0,12 -8.5,27 -8.5,15 -20.5,30 l -27,36 80,7 q 33,3 69.5,5.5 36.5,2.5 47.5,3.5 27,2 47,6.5 20,4.5 34,8.5 9,3 21.5,6 12.5,3 17.5,3 3,0 3,-1 0,-3 -22.5,-16.5 Q 961,786 910,762 869,742 829.5,720.5 790,699 770,685 Z m 465,95 q 1,-1 1,-1 0,-2 -12.5,-4.5 -12.5,-2.5 -40.5,-3.5 -9,-2 -18,-2.5 -9,-0.5 -12,-0.5 -6,0 -6,1 0,5 3.5,12.5 3.5,7.5 8,15.5 4.5,8 10,14 5.5,6 9.5,6 4,0 4,6 0,3 -1,8 -1,4 -1,7 0,10 7,12 1,0 3,0 7,0 15,-13.5 8,-13.5 30,-56.5 z m -786,16 q 12,-19 22,-19 0,0 3,0.5 3,0.5 3,5.5 0,4 -5,13 -8,16 -8,32 0,22 22,51.5 22,29.5 89,54.5 14,5 27.5,11 13.5,6 13.5,12 0,4 -8,4 -6,0 -21.5,-3 Q 571,955 536,937 520,930 509.5,925.5 499,921 491.5,920 484,919 479,919 q -5,0 -13,1 -8,1 -24,4 -18,6 -41.5,14 -23.5,8 -39.5,19 -8,4 -15.5,7.5 -7.5,3.5 -11.5,3.5 -2,0 -3,-1 0,-1 0,-2 0,-5 13.5,-24 13.5,-19 32.5,-47 24,-32 44.5,-59 20.5,-27 27.5,-39 z m 509,33 q 0,-3 -11,-3 -16,0 -16,9 0,5 5,5 4,0 11,-3 11,-5 11,-8 z m 198,11 q 0,-5 -5,-5 -4,0 -4,5 0,4 4,4 5,0 5,-4 z m -698,30 q -3,-6 -6,-10.5 -3,-4.5 -6,-7.5 l -4,-8 q -2,0 -8,7 -6,7 -13.5,16.5 -7.5,9.5 -14,20 -6.5,10.5 -9.5,16.5 -2,4 -2,7 0,2 1.5,2.5 1.5,0.5 3.5,0.5 7,0 24,-4 36,-6 39,-9 3,-3 3,-7 0,-7 -8,-24 z m 641,-12 q -53,-12 -71,-12.5 -18,-0.5 -20,-0.5 -30,0 -55,11 l -27,14 26,9 q 12,4 48,6.5 36,2.5 59.5,3 23.5,0.5 30.5,0.5 30,0 54.5,-2 24.5,-2 24.5,-6 0,-1 0,-1 -1,-3 -20.5,-9.5 Q 1129,864 1099,858 Z m -326,60 q 8,-23 8,-30 0,-2 -1,-5 -1,-3 -13,-3 -13,0 -14,5 -1,5 -1,7 0,9 6,29 5,18 7,18 0,0 1,-1 1,-1 7,-20 z m -69,-32 q 1,-1 1,-1 0,-2 -5.5,-3.5 Q 694,880 686,880 q -12,0 -13.5,2.5 -1.5,2.5 -1.5,5.5 0,4 3,13 2,8 3.5,19 1.5,11 2.5,19 0,6 1,6 4,0 14,-29 2,-3 5.5,-15 3.5,-12 3.5,-15 z m 701,47 q -68,-18 -119.5,-31 -51.5,-13 -59.5,-13 -4,0 -7,3 -3,3 -4.5,15 -1.5,12 -2.5,34 -1,22 -1,98 0,1 0,1 v 1 q 0,0 0,0 v 1 q 0,1 0,1 0,1 0,1 v 1 q 0,0 0,0 v 1 q 0,0 0,1 0,1 0,1 v 12 q 0,1 0,1 v 5 q 0,23 2.5,33.5 2.5,10.5 5,11 2.5,0.5 3.5,0.5 3,0 7,-1 6,-2 30,-5 24,-3 61.5,-8 37.5,-5 85.5,-10.5 48,-5.5 125,-15.5 28,-3 74.5,-9 46.5,-6 82,-10.5 35.5,-4.5 56.5,-7.5 21,-3 22,-3 0,0 0,0 0,-3 -24.5,-10.5 -24.5,-7.5 -72,-22 -47.5,-14.5 -114,-34 Q 1489,955 1405,933 Z M 749,1038 Q 746,988 742.5,948.5 739,909 730,895 q -2,-5 -4,-5 0,0 -1,1 -1,1 -6,13 -12,29 -19.5,70 -7.5,41 -10,74.5 -2.5,33.5 -2.5,56.5 0,12 1,33 1,21 10,27 4,2 11,2 8,0 21,-3 l 24,-8 z M 958,903 q 0,-2 -14,-9 -3,-1 -5,-1 -8,0 -8,10 0,8 7,8 4,0 12,-4 8,-3 8,-4 z m 223,4 -82,2 q -36,0 -71.5,3.5 Q 992,916 971,922 l -45,15 27,12 q 14,5 47.5,8 33.5,3 81.5,4 47,0 74,2.5 27,2.5 27,6.5 0,5 -24,7 -24,2 -62,2 -67,0 -112,7.5 -45,7.5 -45,19.5 0,11 27,14.5 27,3.5 96,3.5 51,0 81.5,2.5 30.5,2.5 33.5,5.5 0,0 0,1 0,2 -26,5.5 -26,3.5 -67,5.5 -67,3 -104.5,11 -37.5,8 -39,12.5 -1.5,4.5 -1.5,5.5 0,8 30.5,14 30.5,6 98.5,8 52,3 83,6 31,3 34,7 1,1 1,1 2,0 3.5,-18.5 1.5,-18.5 1.5,-48.5 0,-30 -1,-60.5 -1,-30.5 -4,-45.5 z M 410,987 Q 421,970 431.5,956.5 442,943 445,943 q 3,0 3.5,7 0.5,7 0.5,8 0,11 -3,24 -1,15 -1,24 0,9 3,16.5 3,7.5 9,14.5 0,0 0,0 l 3,3 q 0,0 0,0 l 3,3 q 0,0 1,1 l 6,6 q 0,0 1,1 l 3,3 q 0,0 1,0 13,14 35.5,27.5 22.5,13.5 42.5,19.5 18,7 31.5,14 13.5,7 13.5,13 0,5 -7,5 -4,0 -15,-2.5 -11,-2.5 -35,-14.5 -49,-23 -96,-23 -49,0 -95,26 -16,7 -27,12 -11,5 -15,5 -2,0 -3,-1 -1,-1 -1,-2 0,-4 9.5,-16.5 9.5,-12.5 39.5,-50.5 2,-3 22,-29 20,-26 35,-50 z m 543,-17 q -4,-9 -13,-9 -9,0 -9,8 0,10 15,10 9,0 9,-4 0,-2 -2,-5 z m -522,101 q 15,-5 15.5,-7.5 0.5,-2.5 0.5,-2.5 0,-6 -11,-25 l -17,-28 -58,81 27,-8 q 10,-3 23,-6 13,-3 20,-4 z m 522,-27 q 1,-2 1,-3 0,-7 -10,-11 -4,-2 -7,-2 -6,0 -6,10 0,12 4.5,13 4.5,1 5.5,1 7,0 12,-8 z m -1,58 q -4,-6 -10,-6 -2,0 -6.5,1 -4.5,1 -4.5,11 0,12 9,12 2,0 4,-1 9,-6 9,-13 0,-2 -1,-4 z m 208,14 h -76 q -51,0 -94.5,8 -43.5,8 -55.5,22 -2,1 -2,1 0,1 1,1.5 1,0.5 5,0.5 4,0 13.5,-1 9.5,-1 35.5,-4.5 26,-3.5 70,-11.5 z m -202,66 q 0,-2 -8,-5 -7,-4 -12,-4 -7,0 -7,9 0,10 8,10 2,0 5,-1 14,-8 14,-9 z m -740,120 66,-23 q 14,-4 38.5,-11 24.5,-7 54.5,-13.5 30,-6.5 64,-14 34,-7.5 58,-12.5 73,-15 120.5,-25.5 47.5,-10.5 48.5,-11.5 0,0 0,0 0,-2 -15.5,-2.5 -15.5,-0.5 -43.5,-0.5 -2,0 -3,0 h -3 q -3,0 -5,0 h -5 q -1,0 -2,0 h -6 q -1,0 -2,0 h -2 q -1,0 -2,0 h -37 q -2,0 -3,0 h -5 q -3,0 -6,0 h -7 q -1,0 -2,0 h -8 q -1,0 -2,0 h -3 q -1,0 -2,0 h -44 q -2,0 -3,0 h -5 q -4,0 -7,0 h -8 q -1,0 -2,0 h -8 q -1,0 -3,0 h -2 q -2,0 -3,0 h -41 q -40,0 -71.5,-1 -31.5,-1 -52.5,-1.5 -21,-0.5 -33,-5.5 -5,-1 -7,-1 -3,0 -3,1 0,1 1,3 5,8 6.5,23.5 1.5,15.5 1.5,28.5 0,7 0,14 z"
     id="path1" />
</svg>
