<?xml version="1.0" encoding="UTF-8" standalone="no"?>
<svg
   width="2000"
   height="2000"
   version="1.1"
   id="svg1"
   sodipodi:docname="u122BA.svg"
   inkscape:version="1.3.2 (091e20e, 2023-11-25)"
   xmlns:inkscape="http://www.inkscape.org/namespaces/inkscape"
   xmlns:sodipodi="http://sodipodi.sourceforge.net/DTD/sodipodi-0.dtd"
   xmlns="http://www.w3.org/2000/svg"
   xmlns:svg="http://www.w3.org/2000/svg">
  <defs
     id="defs1" />
  <sodipodi:namedview
     id="namedview1"
     pagecolor="#505050"
     bordercolor="#eeeeee"
     borderopacity="1"
     inkscape:showpageshadow="0"
     inkscape:pageopacity="0"
     inkscape:pagecheckerboard="0"
     inkscape:deskcolor="#505050"
     showgrid="false"
     inkscape:zoom="0.6205"
     inkscape:cx="999.1942"
     inkscape:cy="1000"
     inkscape:window-width="2560"
     inkscape:window-height="1412"
     inkscape:window-x="0"
     inkscape:window-y="0"
     inkscape:window-maximized="1"
     inkscape:current-layer="svg1" />
  <path
     d="m 1300,679.5 q 32,-32 38,-33 6,-1 6,-1 3,0 3,3 0,6 -14,25 -13,18 -25,39.5 -12,21.5 -21.5,42.5 -9.5,21 -16,39 -6.5,18 -6.5,29 0,10 4.5,23.5 4.5,13.5 16.5,30 12,16.5 32.5,37.5 20.5,21 41.5,40 42,41 61,62 19,21 19,25 0,2 -1,2 0,0 -1,0 -4,0 -18.5,-10 -14.5,-10 -32.5,-29 -21,-23 -53,-49 -32,-26 -63.5,-49 -31.5,-23 -59,-38.5 -27.5,-15.5 -49.5,-20.5 -9,-2 -17,-2 -8,0 -13,2 -5,2 -5,5 0,4 9,9 9,4 9,10 0,1 0,2 0,1 0,2 0,9 13,23.5 13,14.5 31.5,30.5 18.5,16 34,26 15.5,10 25.5,10 3,0 6,-1 3,-1 5,-1 5,0 5,8 0,1 -1,9.5 -1,8.5 -18,23.5 -11,10 -25,28.5 -14,18.5 -27,38.5 -13,20 -21.5,38 -8.5,18 -8.5,27 0,6 4,14 4,8 11,14 8,7 8,16 0,1 0,3 0,0 0,1 0,3 18.5,21.5 18.5,18.5 51.5,46.5 88,75 88,97 0,3 -2,5 -1,0 -2,0 -5,0 -18,-15 -7,-10 -29.5,-31 -22.5,-21 -51.5,-44 -29,-23 -58.5,-45 -29.5,-22 -48.5,-34 -18,-10 -40.5,-19.5 -22.5,-9.5 -43.5,-16.5 -21,-7 -33.5,-9.5 -12.5,-2.5 -16.5,-2.5 -5,0 -6,1 -1,1 -1,4 0,3 3,11 3,8 13.5,22.5 10.5,14.5 25.5,31 15,16.5 34,33.5 23,20 35,35 12,15 12,19 0,2 -1,2 0,1 -1,1 -4,0 -21,-12.5 -17,-12.5 -43,-36.5 -47,-42 -83,-62.5 -36,-20.5 -76,-26.5 -12,-2 -18,-2 -6,0 -6,1 0,0 1,1 5,2 8.5,7.5 3.5,5.5 3.5,9.5 0,7 17.5,27 17.5,20 39.5,40 28,27 41.5,44 13.5,17 13.5,24 0,2 -1,3 -1,2 -3,2 -5,0 -14,-14 -13,-18 -35,-38 -22,-20 -48.5,-39 -26.5,-19 -54.5,-35.5 -28,-16.5 -50.5,-25.5 -22.5,-9 -30.5,-9.5 -8,-0.5 -9,-0.5 -12,0 -12,9 0,4 3.5,7 3.5,3 8.5,3 10,0 10,8 0,2 -1,4 0,2 0,5 0,18 27,35 17,11 40,32 23,21 44,41.5 21,20.5 33.5,35 12.5,14.5 12.5,18.5 0,1 -1,1 0,0 -1,0 -5,0 -19,-10 -14,-10 -39,-34 -67,-64 -134.5,-106 -67.5,-42 -126.5,-54 -29,-6 -29.5,-9.5 -0.5,-3.5 -0.5,-3.5 0,-6 29,-17 10,-3 28,-12.5 18,-9.5 39.5,-22 21.5,-12.5 45,-27 23.5,-14.5 44.5,-28.5 21,-14 37.5,-26.5 16.5,-12.5 24.5,-20.5 l 26,-24 -21,-16 q -45,-34 -85.5,-58 -40.5,-24 -83.5,-35 -11,-3 -24.5,-7 -13.5,-4 -14.5,-6.5 -1,-2.5 -1,-3.5 0,-3 7.5,-7 7.5,-4 19.5,-10 30,-13 65,-34 35,-21 68.5,-42.5 33.5,-21.5 58,-39.5 24.5,-18 27.5,-27 1,-3 4,-7.5 3,-4.5 8,-4.5 8,0 8,9 0,2 -2,11 -2,9 -15,21 -10,9 -24.5,29 -14.5,20 -28,42 -13.5,22 -21,37 -7.5,15 -7.5,20 0,2 1,3 1,1 2,1 6,0 24.5,-10.5 18.5,-10.5 45.5,-30.5 27,-20 54,-44.5 27,-24.5 43,-42.5 14,-16 17,-16 2,0 2,3 0,2 -3,13 -3,11 -30,61 -14,24 -21,41 -7,17 -7,22 0,2 1,3 1,1 2,1 4,0 13.5,-5 9.5,-5 26,-16.5 16.5,-11.5 36.5,-28.5 20,-17 41,-36 18,-17 31.5,-27.5 13.5,-10.5 16.5,-10.5 0,0 0,0 0,0 0,1 0,3 -7.5,20.5 -7.5,17.5 -21.5,42.5 -14,26 -20,39.5 -6,13.5 -6,18.5 0,3 3,3 8,0 40.5,-22.5 32.5,-22.5 71.5,-58.5 20,-19 37.5,-33 17.5,-14 19.5,-14 1,0 1,2 0,2 -4.5,12.5 -4.5,10.5 -14.5,27.5 -11,17 -16,29 -5,12 -5,16 0,1 1,2 1,1 2,1 5,0 20,-10 15,-10 38,-27.5 23,-17.5 48,-39 25,-21.5 44,-40.5 z m -39,90 q 5,-11 8,-19 3,-8 3,-10 0,-2 -1,-2 0,0 -1,0 -2,0 -19,11.5 -17,11.5 -37,27.5 -20,16 -36,30 -16,14 -16,18 0,0 0,0 1,1 12,5.5 11,4.5 25,9.5 14,5 27,8.5 13,3.5 18,3.5 1,-4 1,-8 1,-4 1,-9 v -2 q 0,0 0,-1 0,0 0,0 v -1 q 0,0 0,-1 0,0 0,0 v -5 q 0,-11 4,-28 4,-17 11,-28 z m -473,-14 q 0,-3 -3,-3 -4,0 -15.5,5.5 -11.5,5.5 -56.5,34.5 l -61,37 30,11 q 26,9 40.5,13.5 14.5,4.5 21,4.5 6.5,0 7.5,-4 1,-4 1,-10 0,-12 5,-26.5 5,-14.5 15,-30.5 6,-9 11,-19 5,-10 5,-13 z m 105,40 q 4,-9 4,-12 0,-3 -2,-3 -1,0 -4.5,1.5 -3.5,1.5 -36.5,26.5 l -39,30 32,9 q 16,5 22,5 2,0 5,-1 3,-1 7,-17 2,-9 6,-20.5 4,-11.5 6,-18.5 z m 225,9 q 6,-10 6,-14 0,-2 -2,-2 -7,0 -40,26 -11,10 -17,15.5 -6,5.5 -6.5,7 -0.5,1.5 -0.5,2.5 0,2 3.5,4 3.5,2 16.5,5 16,5 23,5 0,0 3,-0.5 3,-0.5 3,-6.5 0,-2 -1,-5 0,-5 2,-14.5 2,-9.5 10,-22.5 z m -115,4 q 3,-11 3,-16 0,-3 -1,-3 0,0 -2,0.5 -2,0.5 -24,17.5 -24,20 -26,24 -2,4 -2,5 0,5 7,10 10,7 22,7 1,0 8,-0.5 7,-0.5 7,-11.5 0,-5 2,-14.5 2,-9.5 6,-18.5 z m -171,56 q -10,-4 -25,-7.5 -15,-3.5 -27,-3.5 -9,0 -9.5,1 -0.5,1 -0.5,1 0,2 11,9 5,5 8,10.5 3,5.5 3,8.5 0,0 0,1 0,1 0,2 0,4 7.5,13 7.5,9 20.5,21.5 13,12.5 29,26 16,13.5 30,24.5 14,11 23.5,16.5 9.5,5.5 13.5,5.5 1,0 1,0 2,-1 4,-1 5,0 5,11 0,9 4,18.5 4,9.5 11,16.5 6,7 8,11.5 2,4.5 2,6.5 0,2 -2,4 -1,2 -3,2 -2,0 -6,-2 -4,-2 -9,-10 -6,-7 -11,-10 -5,-3 -7,-3 -2,0 -3,1 -4,3 -13,19 -9,16 -17,34 -8,18 -12.5,30 -4.5,12 -4.5,17 0,3 2,5 1,1 4,1 19,0 104,-69 l 61,-49 -24,-29 Q 995,981.5 971,961 947,940.5 921.5,921 896,901.5 873,886 850,870.5 832,864.5 Z m 159,22 q -14,-10 -31,-17.5 -17,-7.5 -28,-9.5 -11,-3 -15,-3 -3,0 -4,1 -1,1 -1,5 0,3 1,7 3,12 13,25 10,13 24,25 10,8 29.5,26.5 19.5,18.5 27.5,26.5 33,32 37,39.5 4,7.5 4,11.5 0,8 -7,17 -5,8 -13,22.5 -8,14.5 -14,26.5 -6,12 -7.5,17 -1.5,5 -1.5,7 0,4 4,4 6,0 25,-9 19,-9 43.5,-22.5 24.5,-13.5 50,-29.5 25.5,-16 46.5,-31 21,-15 33.5,-25.5 12.5,-10.5 12.5,-14.5 0,-1 0,-1 -1,-5 -18.5,-21 -17.5,-16 -39.5,-34 -22,-18 -44,-34 -22,-16 -32,-22 -8,-4 -20,-8 -12,-4 -20,-6 -9,-2 -15,-2 -9,0 -9,5 0,3 6.5,15 6.5,12 51.5,54 28,26 41.5,42 13.5,16 13.5,20 0,1 -1,1 0,0 -1,0 -5,0 -21,-10.5 -16,-10.5 -39,-31.5 -20,-18 -45,-38 -25,-20 -37,-28 z m -117,105 q -22,-19 -30,-19 -4,1 -14.5,12.5 -10.5,11.5 -23,28.5 -12.5,17 -26,37 -13.5,20 -24,37.5 -10.5,17.5 -15.5,28.5 -5,11 -5,14 0,1 0,2 1,1 4,1 3,0 8.5,-1 5.5,-1 14.5,-6 11,-6 33.5,-22.5 22.5,-16.5 45,-35 22.5,-18.5 39.5,-33.5 17,-15 17,-19 0,-3 -7,-10.5 -7,-7.5 -17,-14.5 z m 295,86 q 8,-12 12,-21 4,-9 4,-11 0,0 -1,0 0,0 0,0 -2,0 -13,6 -11,6 -25.5,15 -14.5,9 -30.5,19 -16,10 -29.5,18.5 -13.5,8.5 -22.5,15 -9,6.5 -9,7.5 0,2 11.5,7 11.5,5 27,10 15.5,5 30.5,8.5 15,3.5 19,3.5 5,0 6,-4.5 1,-4.5 1,-6.5 0,-4 -1,-7 -1,-3 -1,-6 0,-8 4.5,-21 4.5,-13 17.5,-33 z m -417,-19 q 0,-3 -3,-3 -4,0 -15,5.5 -11,5.5 -58,34.5 l -62,39 45,15 q 22,7 32,9.5 10,2.5 15,2.5 2,0 5,-0.5 3,-0.5 3.5,-6 0.5,-5.5 0.5,-11.5 0,-17 5.5,-31 5.5,-14 16.5,-29 4,-5 9.5,-13.5 5.5,-8.5 5.5,-11.5 z m 106,37 q 3,-7 3,-10 0,-3 -2,-3 -1,0 -4.5,1.5 -3.5,1.5 -36.5,26.5 l -40,30 31,10 q 16,6 23,6 2,0 5,-1 3,-1 7,-18 3,-9 6.5,-21.5 3.5,-12.5 7.5,-20.5 z m 124,18 q 5,-10 5,-14 0,-3 -4,-3 -4,0 -33,21 -25,18 -26,20.5 -1,2.5 -1,2.5 0,4 14,9 21,5 31,5 9,0 9,-4 0,-2 -1,-4 -2,-4 -2,-9 0,-9 8,-24 z"
     id="path1" />
</svg>
