<?xml version="1.0" encoding="UTF-8" standalone="no"?>
<svg
   width="2000"
   height="2000"
   version="1.1"
   id="svg1"
   sodipodi:docname="u12229.svg"
   inkscape:version="1.3.2 (091e20e, 2023-11-25)"
   xmlns:inkscape="http://www.inkscape.org/namespaces/inkscape"
   xmlns:sodipodi="http://sodipodi.sourceforge.net/DTD/sodipodi-0.dtd"
   xmlns="http://www.w3.org/2000/svg"
   xmlns:svg="http://www.w3.org/2000/svg">
  <defs
     id="defs1" />
  <sodipodi:namedview
     id="namedview1"
     pagecolor="#505050"
     bordercolor="#eeeeee"
     borderopacity="1"
     inkscape:showpageshadow="0"
     inkscape:pageopacity="0"
     inkscape:pagecheckerboard="0"
     inkscape:deskcolor="#505050"
     inkscape:zoom="0.379"
     inkscape:cx="1000"
     inkscape:cy="998.68074"
     inkscape:window-width="1392"
     inkscape:window-height="1212"
     inkscape:window-x="0"
     inkscape:window-y="0"
     inkscape:window-maximized="0"
     inkscape:current-layer="svg1" />
  <path
     d="m 870.5,721.5 q 1,-40 4,-63 3,-23 6,-23 2,0 8.5,5 6.5,5 13.5,13 14,15 30.5,25 16.5,10 42.5,16.5 26,6.5 64,10 38,3.5 107,5.5 32,1 50,1.5 18,0.5 26,0.5 15,0 27,-1 12,-1 16.5,-4 4.5,-3 4.5,-8 0,-4 -2,-9.5 -2,-5.5 -6,-7.5 -3,-2 -6,-5.5 -3,-3.5 -3,-5.5 0,-1 15.5,-2 15.5,-1 38.5,-1 2,0 4,0 h 2 q 0,0 0,0 h 4 q 2,0 5,0 h 7 q 1,0 2,0 h 19 q 0,0 1,0 h 6 q 27,0 50.5,1 23.5,1 40,2 16.5,1 17.5,3 1,0 1,1 0,2 -5.5,7 -5.5,5 -14.5,12 -9,8 -22,27 -13,19 -24,40 l -23,48 v 475 l -162,-1 q -33,-1 -61,-1 -27,0 -58.5,1 -31.5,1 -62,6.5 -30.5,5.5 -56.5,16.5 -26,11 -61,30 l -52,28 10,-143 h -93 q -32,0 -51.5,0.5 -19.5,0.5 -34,3 -14.5,2.5 -27,7.5 -12.5,5 -30.5,13 -21,11 -41.5,23 -20.5,12 -32.5,24 -14,14 -23,14 -1,0 -4.5,-0.5 -3.5,-0.5 -3.5,-8.5 0,-5 2,-11 3,-8 6,-35 3,-27 5,-58 l 5,-74 56,64 1,-82 q 0,-61 -9,-99 -9,-38 -24,-56 -12,-13 -12.5,-27 -0.5,-14 -0.5,-24 0,-19 1,-49 2,-41 5,-66.5 3,-25.5 5,-25.5 2,0 7.5,7 5.5,7 12.5,17 9,16 20.5,26 11.5,10 31.5,16.5 20,6.5 50.5,10 30.5,3.5 79.5,5.5 34,2 58,2 6,0 22,-0.5 16,-0.5 27.5,-3.5 11.5,-3 11.5,-9 0,0 -0.5,-3.5 -0.5,-3.5 -9.5,-13.5 -6,-6 -9,-11.5 -3,-5.5 -4.5,-16 -1.5,-10.5 -1.5,-26.5 0,-16 1,-33 z m 51,-31 q -16,-10 -23,-10 -3,0 -6.5,3 -3.5,3 -3.5,41 v 46 l 45,-20 q 18,-9 35,-15.5 17,-6.5 22,-7.5 3,0 3,-1 0,-1 -4,-3.5 -4,-2.5 -18,-6.5 -13,-5 -27.5,-12.5 -14.5,-7.5 -22.5,-13.5 z m 501,-4 h -67 q -27,0 -41.5,1 -14.5,1 -18,4.5 -3.5,3.5 -3.5,6.5 0,4 3.5,11 3.5,7 9.5,16 9,15 16,33 7,18 13,36 11,35 17,40 6,5 8,5 5,0 5,-14 0,-16 8.5,-38 8.5,-22 20.5,-45 z m -135,42 -129,1 q -43,0 -70,0.5 -27,0.5 -46.5,3 -19.5,2.5 -34.5,6.5 -15,4 -37,12 -19,7 -35.5,14 -16.5,7 -18.5,9 0,0 0,1 0,2 10.5,3 10.5,1 26.5,1 21,0 32.5,2 11.5,2 11.5,3 0,1 0,1 -12,23 -20,38.5 -8,15.5 -13,30 -5,14.5 -7.5,30 -2.5,15.5 -4,38 -1.5,22.5 -2,54 -0.5,31.5 -1.5,77.5 l -2,175 19,13 q 9,5 29.5,9.5 20.5,4.5 41.5,5.5 l 51,3 2,-93 q 0,-13 0,-25 0,-24 -1.5,-51.5 -1.5,-27.5 -7,-57 -5.5,-29.5 -14.5,-56.5 -9,-27 -25,-60 -5,-11 -11.5,-23.5 -6.5,-12.5 -6.5,-13.5 0,-1 18,-1.5 18,-0.5 45,-0.5 h 4 q 3,0 5,0 h 5 q 2,0 5,0 h 3 q 0,0 1,0 h 2 q 1,0 2,0 h 16 q 1,0 2,0 h 13 q 31,0 58,0.5 27,0.5 45.5,1 18.5,0.5 19.5,1.5 0,0 0,0 0,1 -5.5,10 -5.5,9 -11.5,18 -14,21 -21,38 -7,17 -11.5,39 -4.5,22 -6,53 -1.5,31 -1.5,88 0,48 1,78.5 1,30.5 8,43.5 7,13 19.5,13.5 12.5,0.5 24.5,0.5 12,0 27,0 l 69,-3 -4,-174 q -1,-59 -2,-95.5 -1,-36.5 -3.5,-61.5 -2.5,-25 -6.5,-43.5 -4,-18.5 -12,-41.5 -8,-28 -18,-54.5 -10,-26.5 -15,-37.5 z m -323,78 q 0,-1 0,-1 0,-9 -31,-9 -20,0 -23,2.5 -3,2.5 -3,7.5 0,5 3,16 1,3 5,16.5 4,13.5 8,23.5 l 10,23 15,-34 q 6,-14 11,-27 5,-13 5,-18 z m -307,45 -73,-45 -5,43 q -3,21 -3,32 0,9 2,12.5 2,3.5 4,3.5 5,0 14,-8 8,-7 19,-14 11,-7 19,-12 z m 247,6 -99,-3 q -33,-1 -54,-1 -21,0 -36,2 -15,2 -26.5,6 -11.5,4 -26.5,11 -38,17 -41.5,22.5 -3.5,5.5 -3.5,6.5 0,3 7,3 5,0 14,-2 11,-2 18,-2 10,0 10.5,2.5 0.5,2.5 0.5,3.5 0,9 -18,36 -10,15 -14,24 -4,9 -6.5,22.5 -2.5,13.5 -3,36 -0.5,22.5 -0.5,58.5 0,36 0.5,57.5 0.5,21.5 2,34 1.5,12.5 4.5,17.5 3,5 7,7 3,1 14,1.5 11,0.5 27.5,1.5 16.5,1 38,1.5 21.5,0.5 49.5,0.5 29,0 50,-0.5 21,-0.5 33,-2 12,-1.5 16,-4 4,-2.5 4,-7.5 0,-4 3,-8 3,-4 8,-4 6,0 6,6 0,5 7,11 7,6 15,12 8,6 14.5,9.5 6.5,3.5 8.5,3.5 1,0 1,-1 1,-2 1,-25.5 0,-23.5 -1.5,-58 -1.5,-34.5 -4,-75 -2.5,-40.5 -5,-77 -2.5,-36.5 -5,-63 -2.5,-26.5 -4.5,-32.5 z m 214,46 q 0,-3 -9.5,-5.5 -9.5,-2.5 -18.5,-3.5 -9,-1 -16,-1 -4,0 -10.5,0.5 -6.5,0.5 -7.5,3.5 -1,1 -1,2 0,3 4.5,13.5 4.5,10.5 11.5,26.5 l 18,36 15,-32 q 6,-14 10,-25.5 4,-11.5 4,-14.5 z m 111,-4 q 0,-2 -9.5,-3 -9.5,-1 -18,-1.5 -8.5,-0.5 -14.5,-0.5 -5,0 -12.5,0.5 -7.5,0.5 -9.5,2.5 -1,1 -1,2 0,4 4,14.5 4,10.5 12,27.5 l 17,38 16,-38 q 7,-17 11.5,-28.5 4.5,-11.5 4.5,-13.5 z m -56,69 q -7,-18 -14.5,-33.5 -7.5,-15.5 -14.5,-17.5 -1,0 -3,0 -8,0 -17,19 -9,19 -14.5,55.5 -5.5,36.5 -6.5,68.5 -1,32 -1,46 0,37 3,76 l 6,82 87,-5 -3,-119 q -1,-35 -2.5,-60 -1.5,-25 -4,-44.5 -2.5,-19.5 -6,-34.5 -3.5,-15 -9.5,-33 z m -539,-38 q 0,-3 -7.5,-4.5 -7.5,-1.5 -18.5,-1.5 -20,0 -20,5.5 0,5.5 9,20.5 8,14 13,14 1,0 3.5,-2.5 2.5,-2.5 7.5,-8.5 5,-6 9,-13 4,-7 4,-10 z m -49,254 q -12,-13 -18,-13 -2,0 -6,4 -4,4 -4,42 0,19 1.5,32.5 1.5,13.5 4.5,13.5 2,0 14,-6 12,-6 24.5,-13.5 12.5,-7.5 22.5,-15 10,-7.5 10,-10.5 0,-5 -13,-9 -10,-3 -19,-9 -9,-6 -17,-16 z m 337,53 q -9,-7 -17.5,-11.5 -8.5,-4.5 -10.5,-4.5 -1,0 -3,16 -2,16 -3.5,36 -1.5,20 -2,31.5 -0.5,11.5 -0.5,15.5 0,9 1,10 0,1 1,1 3,0 10,-4 7,-4 12,-7 18,-11 36.5,-18.5 18.5,-7.5 32.5,-12.5 l 33,-11 -32,-11 q -14,-5 -30,-13 -16,-8 -27,-17 z"
     id="path1" />
</svg>
