<?xml version="1.0" encoding="UTF-8" standalone="no"?>
<svg
   width="2000"
   height="2000"
   version="1.1"
   id="svg1"
   sodipodi:docname="u122CB.svg"
   inkscape:version="1.3.2 (091e20e, 2023-11-25)"
   xmlns:inkscape="http://www.inkscape.org/namespaces/inkscape"
   xmlns:sodipodi="http://sodipodi.sourceforge.net/DTD/sodipodi-0.dtd"
   xmlns="http://www.w3.org/2000/svg"
   xmlns:svg="http://www.w3.org/2000/svg">
  <defs
     id="defs1" />
  <sodipodi:namedview
     id="namedview1"
     pagecolor="#505050"
     bordercolor="#eeeeee"
     borderopacity="1"
     inkscape:showpageshadow="0"
     inkscape:pageopacity="0"
     inkscape:pagecheckerboard="0"
     inkscape:deskcolor="#505050"
     inkscape:zoom="0.379"
     inkscape:cx="1000"
     inkscape:cy="998.68074"
     inkscape:window-width="1392"
     inkscape:window-height="1212"
     inkscape:window-x="0"
     inkscape:window-y="0"
     inkscape:window-maximized="0"
     inkscape:current-layer="svg1" />
  <path
     d="M 916,706 Q 929,680 940.5,660.5 952,641 955,641 q 0,0 0,0 2,2 2.5,10.5 0.5,8.5 0.5,12.5 0,9 -1,20 0,11 0.5,19 0.5,8 2.5,15 2,7 6,13.5 4,6.5 9,12.5 11,13 29.5,27.5 18.5,14.5 38,27.5 19.5,13 33.5,20 14,7 18,7 1,0 2,0 3,-2 5,-23.5 2,-21.5 2,-50.5 v -70 l 37,35 q 21,20 38,29.5 17,9.5 35,13.5 14,3 40,4.5 26,1.5 59.5,2.5 33.5,1 70,1.5 36.5,0.5 67,0.5 30.5,0 50,-1 19.5,-1 19.5,-6 0,-3 -3.5,-10.5 -3.5,-7.5 -9.5,-15 -6,-7.5 -13,-13.5 -7,-6 -13,-9 -20,-8 -20,-13 0,-9 62,-9 26,0 56,-1.5 30,-1.5 48,-3.5 14,-2 21,-2 2,0 5,0.5 3,0.5 3,3.5 0,1 -1,3 -5,8 -16,8 -14,0 -30,15.5 -16,15.5 -30.5,37 -14.5,21.5 -25,45 -10.5,23.5 -10.5,40.5 0,6 1,9.5 1,3.5 4.5,5 3.5,1.5 9.5,1.5 2,0 8,-0.5 6,-0.5 22,-1.5 21,-3 33,-3 11,0 14,2 3,2 3,3 0,5 -14,11 -16,8 -30,23 -14,15 -24,31 l -23,37 -3,153 q -1,67 -3.5,110 -2.5,43 -5.5,43 -3,0 -5,-43.5 -2,-43.5 -2,-115.5 0,-63 -1.5,-104 -1.5,-41 -6,-65.5 -4.5,-24.5 -12,-36.5 -7.5,-12 -25.5,-22 -16,-9 -16,-14 0,-1 1.5,-4 1.5,-3 28.5,-3 h 31 v -69 h -131 q -45,0 -72.5,0.5 -27.5,0.5 -45.5,2 -18,1.5 -31.5,5.5 -13.5,4 -36.5,13 -76,28 -76,40 0,4 11.5,11.5 11.5,7.5 23.5,13.5 21,11 33.5,22 12.5,11 16.5,19 2,7 5,10.5 3,3.5 10.5,5.5 7.5,2 22,2.5 14.5,0.5 33.5,0.5 36,0 55.5,2 19.5,2 19.5,6 0,3 -16,5 -16,2 -41,2 -18,0 -30,1 -12,1 -22,3 -10,2 -18.5,6.5 -8.5,4.5 -19.5,12.5 l -34,23 -2,-49 q -1,-18 -2.5,-28 -1.5,-10 -4.5,-16 -3,-6 -8.5,-10.5 Q 1161,884 1151,878 1138,871 1125.5,866.5 1113,862 1105,862 q -10,0 -10,-6 0,-5 -11,-13 -11,-8 -27,-16 -22,-11 -40.5,-15 -18.5,-4 -46.5,-4 -41,0 -67,8 -26,8 -26,19 0,1 0,2 1,1 1,3 0,2 -3,4 -3,2 -10,2 -6,0 -12.5,2.5 -6.5,2.5 -9.5,9.5 -2,4 -4,4 -2,0 -3,-3 -4,-7 -27.5,-10 -23.5,-3 -55.5,-4 h -5 q -1,0 -2,0 h -12 q -1,0 -2,0 h -21 q -17,0 -29.5,2 -12.5,2 -23.5,6 -11,4 -26,12 -18,8 -35,18.5 -17,10.5 -25,19.5 -9,12 -15.5,12.5 -6.5,0.5 -7.5,0.5 -6,0 -6,-6 0,-2 1,-6 1,-3 1,-6 0,-5 -6,-5 -1,0 -3,0 -13,3 -26,24 -13,21 -23,52.5 -10,31.5 -16.5,69 -6.5,37.5 -6.5,75.5 0,19 -1.5,33.5 -1.5,14.5 -3.5,14.5 -3,0 -5,-26.5 -2,-26.5 -3,-62.5 -2,-83 -10.5,-124 -8.5,-41 -34.5,-61 -9,-7 -9,-11 0,-5 12,-5 14,0 44,6 20,3 35,3 19,0 30,-5 7,-3 11,-3 5,0 8,3 1,1 3,1 9,0 12,-60 l 7,-70 32,35 q 12,13 19.5,20.5 7.5,7.5 16,11.5 8.5,4 20.5,6 12,2 36,4 21,2 52,4 31,2 55,2 13,0 23.5,-0.5 10.5,-0.5 17.5,-2.5 7,-2 13,-7 6,-5 11,-11 10,-11 27,-39.5 17,-28.5 34,-63.5 z m 62,65 Q 970,762 961,749.5 952,737 947,728 l -12,-24 -17,35 q -8,14 -16,29 -8,15 -13,23 -7,12 -7,14 0,0 0,0 0,0 1,0 2,0 9,-2 15,-6 32.5,-8.5 Q 942,792 959,792 h 39 z m 609,-63 h -37 q -31,0 -34,3 -3,3 -3,5 0,5 8,15 7,9 10,17.5 3,8.5 3,16.5 0,11 5,11 1,0 6,-3 5,-3 22,-31 z m -401,60 q -14,-6 -28.5,-15.5 Q 1143,743 1136,737 l -18,-16 v 55 q 0,23 2,38 2,15 5,15 1,0 1,0 1,-1 15.5,-8.5 Q 1156,813 1175,805 l 45,-22 z m -561,63 q -8,-5 -18,-11.5 -10,-6.5 -20,-16.5 -9,-8 -11.5,-8 -2.5,0 -6.5,14 -4,17 -4.5,27.5 -0.5,10.5 -0.5,14.5 0,11 2,20.5 2,9.5 5,11.5 3,2 4,2 3,0 6,-5 4,-7 14,-13.5 10,-6.5 21,-11.5 l 28,-14 z m 717,10 q 0,-2 2,-2 1,0 3.5,0.5 2.5,0.5 14.5,4.5 17,5 32,8 15,3 29,4 33,4 33,10 0,4 -14,9 -17,7 -27,18.5 -10,11.5 -16,32 -6,20.5 -8.5,51.5 -2.5,31 -2.5,75 v 102 h 62 q 27,0 44,2 17,2 17,6 0,3 -16.5,5.5 -16.5,2.5 -75.5,2.5 -44,0 -87.5,1 -43.5,1 -70,4.5 -26.5,3.5 -45,10.5 -18.5,7 -48.5,22 -26,13 -45.5,24.5 -19.5,11.5 -19.5,17.5 0,4 -5,4 -8,0 -8.5,-7.5 -0.5,-7.5 -0.5,-10.5 0,-13 2,-36 3,-23 3,-38.5 0,-15.5 -2,-15.5 -2,0 -14,7.5 -12,7.5 -20,12.5 -49,32 -73,72.5 -24,40.5 -24,90.5 0,28 -3.5,29 -3.5,1 -3.5,1 -6,0 -17,-33 -3,-12 -13,-33 -10,-21 -20.5,-42 -10.5,-21 -19.5,-36 -9,-15 -12,-15 -2,0 -2,13 v 2 q 0,0 0,0 v 1 q 0,1 0,2 v 1 q 0,1 0,2 v 5 q 0,0 0,1 v 11 q 0,0 0,1 v 4 q 1,10 1,18 0,6 -1,15 -1,9 -4,9 -3,0 -6.5,-23 -3.5,-23 -5.5,-54 -3,-34 -6,-56 -3,-22 -7.5,-36 -4.5,-14 -11.5,-22.5 -7,-8.5 -20,-15.5 -14,-7 -14,-12 0,-1 1.5,-3.5 1.5,-2.5 14.5,-2.5 5,0 11,1 l 27,2 v -57 q 0,-75 -11,-90 -11,-15 -18,-15 -10,0 -22,21 -18,34 -18,88 0,22 -2.5,37 -2.5,15 -5.5,15 -4,0 -6,-19.5 -2,-19.5 -2,-55.5 0,-19 -0.5,-33 -0.5,-14 -2,-23 -1.5,-9 -5.5,-15 -4,-6 -12,-14 -6,-6 -10,-11 -4,-5 -4,-7 0,-1 0,-1 0,-1 20,-1 h 1 q 1,0 1,0 h 2 q 2,0 4,0 h 1 q 2,0 4,0 h 2 q 0,0 1,0 h 2 q 0,0 1,0 h 1 q 1,0 2,0 h 14 q 1,0 2,0 h 3 q 1,0 2,0 h 4 q 1,0 2,0 h 2 q 1,0 2,0 h 2 q 3,0 6,0 h 1 q 3,0 6,0 h 2 q 1,0 2,0 h 2 q 1,0 2,0 h 2 q 1,0 2,0 h 18 q 1,0 3,0 h 3 q 1,0 3,0 h 4 q 2,0 4,0 35,0 66,0.5 31,0.5 54.5,0.5 23.5,0 28.5,1 2,0 2,2 0,1 -4,4.5 -4,3.5 -14,8.5 -11,7 -19.5,14 -8.5,7 -11.5,11 -4,7 -6.5,30 -2.5,23 -3.5,44 -1,21 -1,34 0,10 0.5,24.5 0.5,14.5 5.5,16.5 1,0 1,1 0,1 -4,3 -4,2 -12,4 -24,6 -43,22.5 -19,16.5 -28,39.5 -6,12 -6,19 0,1 1,4.5 1,3.5 11,12.5 22,20 50,20 6,0 27,-3 21,-3 80,-38 14,-9 25,-16.5 11,-7.5 17.5,-13.5 6.5,-6 9,-12 2.5,-6 3.5,-17 2,-18 4.5,-19.5 2.5,-1.5 2.5,-1.5 5,0 13,11 8,11 13,11 5,0 26,-12 9,-4 14.5,-8 5.5,-4 8.5,-9.5 3,-5.5 3.5,-13 0.5,-7.5 0.5,-18.5 0,-18 1.5,-28.5 1.5,-10.5 3.5,-10.5 2,0 9.5,5.5 7.5,5.5 13.5,10.5 12,9 18.5,13 6.5,4 15.5,6.5 9,2.5 22.5,3 13.5,0.5 31.5,0.5 33,0 51,2 18,2 18,5 0,4 -15,6 -15,2 -38,2 -16,0 -28.5,1 -12.5,1 -24.5,4 -12,3 -25,9 -13,6 -28,13 -30,14 -47.5,23.5 -17.5,9.5 -17.5,11.5 0,2 7.5,7 7.5,5 14.5,9 12,7 20.5,10 8.5,3 21,5 12.5,2 31.5,3.5 19,1.5 46,2.5 l 91,3 v -130 q 0,-44 -0.5,-70 -0.5,-26 -2,-42 -1.5,-16 -5,-25 -3.5,-9 -11.5,-23 -3,-6 -7.5,-14 -4.5,-8 -4.5,-11 z m 61,42 q 4,-7 4,-10 0,-1 -0.5,-2.5 -0.5,-1.5 -8.5,-1.5 -18,0 -18,15 0,10 4,10.5 4,0.5 4,0.5 7,0 15,-12 z m 178,-14 h -69 l 13,31 q 5,13 10,22 5,9 7,9 2,0 7.5,-9 5.5,-9 13.5,-22 z M 486,900 q -11,0 -27,-5 -9,-3 -13,-3 -5,0 -5,3 0,3 5,16.5 5,13.5 10.5,27.5 5.5,14 9.5,22.5 4,8.5 5,8.5 0,0 0,-1 1,-5 5,-16.5 4,-11.5 11,-26.5 9,-17 9,-21.5 0,-4.5 -10,-4.5 z m 301,7 q 0,-7 -7,-7 -8,0 -8,12 0,9 4,9 1,0 4,-2 7,-4 7,-12 z m 78,9 q 3,-6 3,-10 0,-6 -8,-6 -8,0 -8,6 0,2 2,6 6,11 6,11 2,0 5,-7 z m 96,-8 q 1,-2 1,-3 0,-5 -9,-5 -12,0 -12,8 0,7 7,7 8,0 13,-7 z m -32,3 q -5,-11 -15,-11 -3,0 -12,2.5 -9,2.5 -21,21.5 -10,15 -13.5,33 -3.5,18 -3.5,52 v 60 h 30 q 18,0 28,-2 10,-2 14.5,-9.5 4.5,-7.5 4.5,-23.5 0,-16 -2,-45 -2,-24 -4.5,-47 -2.5,-23 -5.5,-31 z m 296,32 q -1,-1 -6,-4 -5,-3 -10,-7 -7,-6 -10,-6 -1,0 -2.5,1 -1.5,1 -1.5,15 0,14 2,15 2,1 3,1 4,0 12,-4 6,-4 9.5,-6.5 3.5,-2.5 3.5,-4.5 z m -13,114 q 2,-3 2,-6 0,-6 -9,-13 -5,-4 -7,-4 -1,0 -2,0.5 -1,0.5 -1,8.5 0,15 4,17 4,2 6,2 4,0 7,-5 z m -335,26 q -18,-6 -26,-6 -3,0 -4,1 -1,1 -1,4 0,5 7,18 l 12,24 15,-18 q 11,-12 11,-15 0,0 -0.5,-1.5 Q 890,1088 877,1083 Z m -521,77 q 0,-22 2,-37 2,-15 5,-15 2,0 9.5,6 7.5,6 14.5,13 9,10 24.5,20.5 15.5,10.5 28.5,17.5 13,6 24.5,9 11.5,3 33,5 21.5,2 56.5,2.5 35,0.5 80,1.5 49,1 80,2 31,1 54.5,2.5 23.5,1.5 36.5,3 13,1.5 13,2.5 0,3 -40.5,5 -40.5,2 -112.5,2 -38,0 -68,0.5 -30,0.5 -50.5,2.5 -20.5,2 -36,6 -15.5,4 -34.5,10 -27,9 -54,19.5 -27,10.5 -45,20.5 -9,6 -18,10 -9,4 -12,4 -1,0 -1,0 -1,-1 -1,-6 0,-2 0.5,-8.5 0.5,-6.5 2.5,-14.5 4,-15 6,-38.5 2,-23.5 2,-45.5 z m 845,2 q -8,0 -21.5,-5.5 -13.5,-5.5 -30.5,-15.5 -11,-7 -17,-9.5 -6,-2.5 -9,-2.5 -3,0 -6,2.5 -3,2.5 -5,15 -2,12.5 -4,35.5 l -3,39 43,-21 q 17,-10 32,-16.5 15,-6.5 23,-6.5 8,0 8,-7 0,-8 -10,-8 z m -743,26 q -14,-4 -31,-12.5 -17,-8.5 -28,-16.5 l -26,-19 -3,51 q -2,22 -2.5,32.5 -0.5,10.5 -0.5,13.5 0,8 1,9 1,0 1,0 3,0 7.5,-2 4.5,-2 8.5,-5 11,-7 28.5,-14 17.5,-7 34.5,-13 l 42,-14 z m 522,23 q 0,-2 -2,-2 -2,0 -4,1 -2,0 -13,1.5 -11,1.5 -25,3.5 l -32,5 22,38 q 9,16 14.5,22.5 5.5,6.5 7.5,6.5 1,0 1,-2 0,-5 4.5,-17 4.5,-12 10.5,-24 7,-11 11.5,-20.5 4.5,-9.5 4.5,-12.5 z"
     id="path1" />
</svg>
