<?xml version="1.0" encoding="UTF-8" standalone="no"?>
<svg
   width="2000"
   height="2000"
   version="1.1"
   id="svg1"
   sodipodi:docname="u12228.svg"
   inkscape:version="1.3.2 (091e20e, 2023-11-25)"
   xmlns:inkscape="http://www.inkscape.org/namespaces/inkscape"
   xmlns:sodipodi="http://sodipodi.sourceforge.net/DTD/sodipodi-0.dtd"
   xmlns="http://www.w3.org/2000/svg"
   xmlns:svg="http://www.w3.org/2000/svg">
  <defs
     id="defs1" />
  <sodipodi:namedview
     id="namedview1"
     pagecolor="#505050"
     bordercolor="#eeeeee"
     borderopacity="1"
     inkscape:showpageshadow="0"
     inkscape:pageopacity="0"
     inkscape:pagecheckerboard="0"
     inkscape:deskcolor="#505050"
     showgrid="false"
     inkscape:zoom="0.6205"
     inkscape:cx="999.1942"
     inkscape:cy="1000"
     inkscape:window-width="2560"
     inkscape:window-height="1412"
     inkscape:window-x="0"
     inkscape:window-y="0"
     inkscape:window-maximized="1"
     inkscape:current-layer="svg1" />
  <path
     d="m 633.5,639 q 1,-1 5,-1 3,0 12,1 9,1 20,3 23,3 43.5,4 20.5,1 31.5,1 15,0 29,-1 23,-3 40,-3 17,0 17,2 0,1 -7.5,13.5 -7.5,12.5 -12.5,20.5 -34,50 -49,102.5 -15,52.5 -15,106.5 v 58 l 30,14 q 14,5 43,14 29,9 57,16 24,6 43.5,9.5 19.5,3.5 48,5 28.5,1.5 57.5,2 29,0.5 47,0.5 35,0 83,-1 46,0 84.5,0.5 38.5,0.5 66.5,1 28,0.5 43.5,1.5 15.5,1 15.5,3 0,2 -18,4 -18,2 -49,4 -31,2 -72.5,3.5 -41.5,1.5 -89.5,2.5 -92,2 -152,5.5 -60,3.5 -99,10 -39,6.5 -63.5,17 -24.5,10.5 -47.5,27.5 l -28,22 v 128 q 0,54 -3,90 -3,36 -6,36 -5,0 -9,-112 -4,-112 -8,-323 0,-14 -7,-45.5 -7,-31.5 -17.5,-67 -10.5,-35.5 -22.5,-70 -12,-34.5 -24,-59.5 -7,-15 -12,-28 -5,-13 -5,-17 z m 163,24 q 0,-1 -21,-1.5 -21,-0.5 -46.5,-0.5 -25.5,0 -46.5,1 -21,1 -21,2 0,2 4,11.5 4,9.5 6,13.5 9,22 19,49.5 10,27.5 18,54.5 l 18,62 10,-50 q 5,-20 14.5,-48 9.5,-28 25.5,-56 1,-2 5.5,-10 4.5,-8 9.5,-17 2,-5 5,-11 z m 92,348 q -3,-1 -26,-8 -23,-7 -49,-16 l -66,-23 v 119 l 39,-24 q 17,-9 39.5,-18.5 22.5,-9.5 43.5,-16.5 11,-3 17,-5.5 6,-2.5 6,-4.5 0,-2 -4,-3 z"
     id="path1" />
</svg>
