<?xml version="1.0" encoding="UTF-8" standalone="no"?>
<svg
   width="2000"
   height="2000"
   version="1.1"
   id="svg1"
   sodipodi:docname="u122AF.svg"
   inkscape:version="1.3.2 (091e20e, 2023-11-25)"
   xmlns:inkscape="http://www.inkscape.org/namespaces/inkscape"
   xmlns:sodipodi="http://sodipodi.sourceforge.net/DTD/sodipodi-0.dtd"
   xmlns="http://www.w3.org/2000/svg"
   xmlns:svg="http://www.w3.org/2000/svg">
  <defs
     id="defs1" />
  <sodipodi:namedview
     id="namedview1"
     pagecolor="#505050"
     bordercolor="#eeeeee"
     borderopacity="1"
     inkscape:showpageshadow="0"
     inkscape:pageopacity="0"
     inkscape:pagecheckerboard="0"
     inkscape:deskcolor="#505050"
     inkscape:zoom="0.379"
     inkscape:cx="1000"
     inkscape:cy="998.68074"
     inkscape:window-width="1392"
     inkscape:window-height="1212"
     inkscape:window-x="0"
     inkscape:window-y="0"
     inkscape:window-maximized="0"
     inkscape:current-layer="svg1" />
  <path
     d="m 1080.5,658 q 5,-11 12,-17.5 7,-6.5 15,-6.5 10,0 10,8 0,4 -2,10 -6,13 -6,32 0,7 2,25.5 2,18.5 13,45.5 7,19 20,41 13,22 26,42 13,20 24.5,34.5 11.5,14.5 14.5,14.5 4,0 4,-13 0,-4 -1,-17.5 -1,-13.5 -5,-42.5 -7,-43 -15.5,-59 -8.5,-16 -22.5,-30 -8,-8 -14,-16 -6,-8 -6,-10 0,-1 0,-1 1,0 5,0 6,0 23,1 17,1 39,4 37,5 50,5.5 13,0.5 14,0.5 22,0 34,-7 8,-4 17,-4 4,0 13,2 9,2 9,13 0,9 -11,9 -16,0 -34.5,21 -18.5,21 -36.5,49.5 -18,28.5 -31,57.5 -13,29 -13,41 0,7 7.5,16 7.5,9 21,23 13.5,14 31.5,32 0,0 1,1 l 6,6 q 0,0 1,1 l 6,6 q 1,1 1,1 l 7,7 q 0,0 1,1 l 6,6 q 1,1 2,2 l 6,6 q 1,1 1,1 20,19 37,37 17,18 29,32.5 12,14.5 18,23 6,8.5 6,11.5 0,1 0,1 0,0 -1,0 -4,0 -29.5,-21 -25.5,-21 -68.5,-63 -29,-28 -54,-51 -25,-23 -29,-23 0,0 0,0 -1,1 -2.5,13.5 -1.5,12.5 -3,33.5 -1.5,21 -3,48 -1.5,27 -3.5,57 -3,50 -3.5,70.5 -0.5,20.5 -0.5,28.5 0,18 1,32 1,14 4,22.5 3,8.5 10,15.5 6,7 7.5,11.5 1.5,4.5 1.5,6.5 0,4 -3,5 -3,3 -7,3 -1,0 -3.5,-0.5 -2.5,-0.5 -4.5,-4.5 -2,-5 -6,-6 -4,-1 -5,-1 -5,0 -9,3 -4,1 -6,1 -9,0 -9,-10 0,-13 -17.5,-34.5 -17.5,-21.5 -40.5,-46.5 l -59,-57 v 114 q 0,52 -2.5,83 -2.5,31 -10.5,31 -6,0 -6,-12 0,-8 -2,-8 -1,0 -2,1 -2,1 -4,1 -6,0 -20,-9 -14,-9 -34,-29 l -46,-46 v 46 q 0,20 -2,32.5 -2,12.5 -7,12.5 -5,0 -8,-16.5 -3,-16.5 -3,-40.5 v -57 l -171,-163 -6,43 q -3,20 -5,54 -2,34 -2,66 0,75 -11,75 -7,0 -9,-22 -2,-22 -2,-43 0,-26 2,-64 l 5,-127 -39,-23 q -18,-11 -35,-16 -17,-5 -30,-5 -4,0 -9,1 -4,0 -7,0 -7,0 -14,-1.5 -7,-1.5 -7,-3.5 0,0 0,-1 0,-4 16.5,-17 16.5,-13 34.5,-24 31,-21 51.5,-39 20.5,-18 26.5,-35 5,-15 14,-18 8,-3 8,-16 0,-1 -0.5,-8.5 -0.5,-7.5 -5.5,-26 -5,-18.5 -14,-36.5 -9,-18 -23,-31 -6,-5 -13.5,-12.5 -7.5,-7.5 -7.5,-8.5 0,-1 14.5,-1.5 14.5,-0.5 36.5,-0.5 h 2 q 1,0 2,0 h 1 q 2,0 3,0 h 4 q 1,0 2,0 h 4 q 1,0 2,0 h 28 q 26,0 50,0.5 24,0.5 42,1 18,0.5 23,1.5 0,0 0,1 0,2 -7,6 -7,4 -16,8 -25,12 -39.5,30 -14.5,18 -29.5,46 -25,47 -30,75.5 -5,28.5 -5,46.5 0,22 7,52 7,30 32.5,69.5 25.5,39.5 68.5,81.5 l 58,57 V 997 l -43,-21 q -20,-10 -36,-14 -16,-4 -30,-4 -8,0 -16,1 -7,1 -12,1 -12,0 -12,-5 0,-2 4,-9 4,-7 54,-39 33,-22 52.5,-38 19.5,-16 19.5,-22 0,-6 -14,-17 -7,-6 -11,-11.5 -4,-5.5 -4,-7.5 0,-3 21,-4.5 21,-1.5 47.5,-1.5 26.5,0 49,1.5 22.5,1.5 25.5,5.5 3,3 15,5.5 12,2.5 27,2.5 h 34 l -33,-23 q -14,-8 -34.5,-15 -20.5,-7 -37.5,-7 -14,-2 -24,-4 -10,-2 -10,-5 0,0 0,-1 1,-4 18.5,-17.5 17.5,-13.5 36.5,-25.5 28,-17 47,-35 19,-18 22,-29 z m 39,132 q -5,-11 -11,-27.5 -6,-16.5 -11,-31.5 l -11,-36 -36,24 q -16,11 -26.5,19.5 -10.5,8.5 -10.5,12.5 0,1 14.5,10 14.5,9 36.5,18 20,11 38,19.5 18,8.5 20,9.5 1,0 1,0 2,0 2,-2 0,-4 -6,-16 z m 132,-63 q -16,-4 -22.5,-4.5 -6.5,-0.5 -8.5,-0.5 -8,0 -10.5,2.5 -2.5,2.5 -2.5,7.5 0,3 2,10.5 2,7.5 8,27.5 l 15,47 13,-26 q 5,-11 13.5,-23 8.5,-12 14.5,-19 7,-7 7,-11 0,-1 -2,-3.5 -2,-2.5 -27,-7.5 z m -446,43 q 0,-1 0,-2 0,-3 -9,-5 -9,-2 -29,-2 -11,0 -18.5,0.5 -7.5,0.5 -10,2.5 -2.5,2 -2.5,6 0,1 0.5,4 0.5,3 3.5,13 4,12 7,25 3,13 5,21 1,10 4,10 1,0 4.5,-3 3.5,-3 18.5,-26 10,-16 17.5,-29.5 7.5,-13.5 8.5,-14.5 z m 153,86 q 3,-10 3,-16 0,-3 -1,-7 -1,-4 -8,-4 -17,0 -17,36 0,19 5,19 1,0 6,-3.5 5,-3.5 12,-24.5 z m 71,10 q -11,-31 -24,-31 -15,0 -32,39 -7,14 -13,31.5 -6,17.5 -6,25.5 0,9 8,28.5 8,19.5 20,41 12,21.5 25.5,40.5 13.5,19 24.5,28 l 23,19 -8,-94 q -1,-19 -3,-38.5 -2,-19.5 -4,-36 -2,-16.5 -4.5,-29.5 -2.5,-13 -6.5,-24 z m 62,-24 q 0,-1 -7,-2 -7,-1 -27,-1 0,0 0,0 0,0 -1,0 0,0 0,0 0,0 -1,0 0,0 0,0 0,0 0,0 h -4 q -6,0 -7,2.5 -1,2.5 -1,4.5 0,3 2,9.5 2,6.5 7,22.5 l 12,32 13,-32 q 5,-14 9.5,-24 4.5,-10 4.5,-12 z m 118,69 -43,-36 q -26,-22 -33,-24.5 -7,-2.5 -10,-2.5 -8,0 -16,9 -14,17 -25,65.5 -11,48.5 -11,105.5 v 80 l 59,58 q 23,23 40,38 17,15 20,15 1,0 1,0 1,-1 2.5,-14 1.5,-13 3.5,-34 2,-21 3.5,-49 1.5,-28 2.5,-59 z m -286,46 q 0,-3 0,-7 0,-7 -1.5,-18 -1.5,-11 -3.5,-24 l -7,-30 -75,53 42,21 q 29,16 32.5,16.5 3.5,0.5 4.5,0.5 6,0 8,-12 z m -194,49 q 0,-17 -2,-30.5 -2,-13.5 -5,-21.5 -5,-9 -10,-9 -1,0 -4.5,0.5 -3.5,0.5 -24.5,14.5 -14,10 -24,18.5 -10,8.5 -11,10.5 0,0 0,0 0,3 10.5,9.5 10.5,6.5 24.5,14.5 14,8 27,14.5 13,6.5 16,6.5 2,0 2.5,-9.5 0.5,-9.5 0.5,-18.5 z m 225,-16 q 0,-5 -5,-5 -5,0 -5,5 0,5 5,5 5,0 5,-5 z m 51,80 q -20,-18 -36,-32 -16,-14 -18,-14 -3,0 -5,31 -2,31 -2,74 v 106 l 108,105 v -225 z m -246,-21 q 0,-6 -5,-6 -5,0 -5,5 0,6 5,6 5,0 5,-5 z"
     id="path1" />
</svg>
