<?xml version="1.0" encoding="UTF-8" standalone="no"?>
<svg
   width="2000"
   height="2000"
   version="1.1"
   id="svg1"
   sodipodi:docname="u122DD.svg"
   inkscape:version="1.3.2 (091e20e, 2023-11-25)"
   xmlns:inkscape="http://www.inkscape.org/namespaces/inkscape"
   xmlns:sodipodi="http://sodipodi.sourceforge.net/DTD/sodipodi-0.dtd"
   xmlns="http://www.w3.org/2000/svg"
   xmlns:svg="http://www.w3.org/2000/svg">
  <defs
     id="defs1" />
  <sodipodi:namedview
     id="namedview1"
     pagecolor="#505050"
     bordercolor="#eeeeee"
     borderopacity="1"
     inkscape:showpageshadow="0"
     inkscape:pageopacity="0"
     inkscape:pagecheckerboard="0"
     inkscape:deskcolor="#505050"
     inkscape:zoom="0.379"
     inkscape:cx="1000"
     inkscape:cy="998.68074"
     inkscape:window-width="1392"
     inkscape:window-height="1212"
     inkscape:window-x="0"
     inkscape:window-y="0"
     inkscape:window-maximized="0"
     inkscape:current-layer="svg1" />
  <path
     d="m 678,646 q 0,-6 21,-7 21,-1 35,-1 27,0 67,2 31,1 64.5,1.5 33.5,0.5 35.5,0.5 2,0 2,1 0,3 -6.5,10.5 -6.5,7.5 -18.5,19.5 -17,16 -35,38 -18,22 -27,40 -9,15 -14,25.5 -5,10.5 -7,21.5 -2,11 -2,22 0,3 0.5,12.5 0.5,9.5 1.5,35.5 3,36 7,62 4,26 17,47.5 13,21.5 37,40 24,18.5 66.5,39.5 42.5,21 105.5,46.5 63,25.5 154,61.5 l 46,18 v -183 l -85,-43 q -30,-15 -49,-24 -19,-9 -35,-13.5 -16,-4.5 -30.5,-5.5 -14.5,-1 -32.5,-1 -28,0 -58,2.5 -30,2.5 -46,5.5 l -39,7 65,-81 Q 945,813 965.5,789.5 986,766 988,766 q 2,0 3.5,12 1.5,12 2.5,29 0,39 15,55 6,7 21.5,16 15.5,9 36.5,21 21,12 45,24.5 24,12.5 45.5,23 21.5,10.5 37.5,17 16,6.5 20,6.5 3,0 3,-3 0,-2 -3,-8.5 -3,-6.5 -12,-19.5 -9,-13 -22,-27 -13,-14 -28,-27 -13,-11 -21.5,-20 -8.5,-9 -8.5,-12 0,-1 0,-1 1,-1 19.5,-2.5 18.5,-1.5 45,-2.5 26.5,-1 57,-2 30.5,-1 56.5,-2 26,-1 43.5,-1 17.5,0 17.5,1 0,2 -9,14 -9,12 -17,22 -17,23 -33.5,49.5 -16.5,26.5 -26.5,47.5 -10,21 -15.5,40 -5.5,19 -8.5,51 -3,32 -4,83.5 -1,51.5 -2,137.5 0,33 -2,53.5 -2,20.5 -7,20.5 -5,0 -7,-22 -2,-22 -2,-58 v -78 l -145,-60 q -30,-12 -60.5,-23.5 Q 992,1109 965,1100 q -27,-9 -48,-15 -21,-6 -37,-9 -20,-3 -51,-5 -31,-2 -61.5,-2 -30.5,0 -56,2 -25.5,2 -43.5,7 -12,3 -19,3 -9,0 -10,-2.5 -1,-2.5 -1,-4.5 0,-8 20,-27 8,-7 16.5,-16 8.5,-9 18.5,-20.5 10,-11.5 20,-23.5 10,-12 19,-24 l 43,-57 V 723 L 744,691 Q 730,677 715.5,667 701,657 689,653 q -11,-3 -11,-7 z m 173,28 q 5,-4 6.5,-6 1.5,-2 1.5,-3 0,-2 -3.5,-3 -3.5,-1 -16,-2 -12.5,-1 -31.5,-2 -17,-1 -30,-1 -26,0 -32.5,2.5 -6.5,2.5 -6.5,4.5 0,4 12,11 6,2 14,13.5 8,11.5 16,22.5 l 18,30 17,-26 q 5,-10 15.5,-21.5 Q 842,682 851,674 Z m 128,158 q 0,-11 -6,-11 -2,0 -8.5,3.5 -6.5,3.5 -35.5,38.5 -23,27 -24,30.5 -1,3.5 -1,3.5 0,2 4,2 3,0 10,-2 9,-2 25,-4 16,-2 33,-2 22,0 24,-2 2,-2 2,-3 0,-4 -7,-14 -7,-9 -11.5,-19.5 Q 979,842 979,832 Z m 338,41 q 0,-5 -21,-7 -21,-2 -50,-2 -29,0 -49.5,2 -20.5,2 -20.5,4 0,1 7,12 7,11 17,23 12,15 21.5,32 9.5,17 11.5,27 7,26 14,26 1,0 5,-1.5 4,-1.5 19,-37.5 9,-23 18.5,-40 9.5,-17 16.5,-22 4,-3 7.5,-8.5 3.5,-5.5 3.5,-7.5 z M 832,1024 Q 821,1012 809,993.5 797,975 792,963 l -12,-30 -48,58 q -18,25 -31.5,42.5 -13.5,17.5 -13.5,19.5 0,1 25.5,2 25.5,1 62.5,1 h 89 z"
     id="path1" />
</svg>
