<?xml version="1.0" encoding="UTF-8" standalone="no"?>
<svg
   width="2000"
   height="2000"
   version="1.1"
   id="svg1"
   sodipodi:docname="u122E1.svg"
   inkscape:version="1.3.2 (091e20e, 2023-11-25)"
   xmlns:inkscape="http://www.inkscape.org/namespaces/inkscape"
   xmlns:sodipodi="http://sodipodi.sourceforge.net/DTD/sodipodi-0.dtd"
   xmlns="http://www.w3.org/2000/svg"
   xmlns:svg="http://www.w3.org/2000/svg">
  <defs
     id="defs1" />
  <sodipodi:namedview
     id="namedview1"
     pagecolor="#505050"
     bordercolor="#eeeeee"
     borderopacity="1"
     inkscape:showpageshadow="0"
     inkscape:pageopacity="0"
     inkscape:pagecheckerboard="0"
     inkscape:deskcolor="#505050"
     showgrid="false"
     inkscape:zoom="0.6205"
     inkscape:cx="999.1942"
     inkscape:cy="1000"
     inkscape:window-width="2560"
     inkscape:window-height="1412"
     inkscape:window-x="0"
     inkscape:window-y="0"
     inkscape:window-maximized="1"
     inkscape:current-layer="svg1" />
  <path
     d="m 1169.5,650.5 q 6,-11 15,-11 11,0 26,16 9,10 18.5,14.5 9.5,4.5 18,5 8.5,0.5 13.5,0.5 11,0 29,-2 18,-2 47,-6 38,-6 55,-6 14,0 14,4 0,3 -9,8 -29,16 -47.5,60.5 -18.5,44.5 -27.5,89.5 -9,45 -12,113 -3,68 -3,154 0,85 -3,136 -3,51 -8,54 0,0 -1,0 -2,0 -5,-28.5 -3,-28.5 -3,-101.5 0,-39 0.5,-58 0.5,-19 0.5,-25 0,-25 -4,-44 -4,-19 -17.5,-31.5 -13.5,-12.5 -42,-24 -28.5,-11.5 -76,-23.5 -47.5,-12 -152.5,-40 -19,-5 -38,-10 l -3,-1 q -30,-8 -61,-16 -51,-14 -81,-20 -30,-6 -44,-6 -14,0 -28,3 -16,5 -35,15.5 -19,10.5 -37,24 -18,13.5 -32,28.5 -14,15 -23,34 -9,16 -14,16 -3,0 -4,-5 -1,-2 -1,-5 0,-8 5,-21 5,-13 11,-27 9,-19 22.5,-57.5 13.5,-38.5 25.5,-78.5 10,-38 20.5,-65 10.5,-27 13.5,-27 0,0 0,0 3,0 5,5.5 2,5.5 2,9.5 0,4 -1,8 0,4 0,8 0,21 15,47 15,26 36,39 15,9 53.5,22 38.5,13 92.5,29.5 54,16.5 116,34.5 62,18 117,33.5 55,15.5 94,25.5 39,10 45,10 4,0 6,-5 2,-5 2,-9 0,-4 -2,-9 -23,-112 -47,-179 -24,-67 -48,-83 -11,-10 -11,-17 0,-3 2,-6 z m 113,39 q -39,2 -47,3.5 -8,1.5 -8,6.5 0,4 4,11 4,9 12.5,33 8.5,24 16,48 7.5,24 12.5,43 5,19 5,35 0,18 5,18 2,0 7.5,-5 5.5,-5 10.5,-41 3,-23 9.5,-52 6.5,-29 15.5,-56 6,-14 12,-28 6,-14 6,-16 z m -540,141 q 0,0 0,0 0,-2 -7.5,-12 -7.5,-10 -21.5,-22 l -33,-33 -12,48 q -4,21 -8.5,38 -4.5,17 -6.5,20 -1,1 -1,2 0,1 3,1 2,0 9,-2 7,-2 22,-9 15,-7 31,-16 16,-9 25,-15 z m 261,240 q 88,-21 141.5,-33 53.5,-12 80,-17 26.5,-5 34.5,-5 1,0 5,0.5 4,0.5 4,5.5 0,1 -36.5,11.5 -36.5,10.5 -92,24 -55.5,13.5 -121,29.5 -65.5,16 -121,28 -55.5,12 -89.5,18.5 -34,6.5 -42,6.5 -2,0 -2,0 -2,-2 -2,-4 0,-2 1,-5 1,0 20,-5 19,-5 52,-13.5 33,-8.5 75.5,-19 42.5,-10.5 92.5,-22.5 z m -404,119 q 0,-3 0,-6 v -12 q 0,-2 0,-4 v -11 q 0,-1 0,-3 v -10 q 0,-2 0,-4 v -3 q 0,-1 0,-3 v -35 q 0,-1 0,-2 v -11 q 0,-43 3,-43 3,0 8.5,9.5 5.5,9.5 9.5,21.5 11,32 30.5,43 19.5,11 50.5,11 5,0 11,0 16,0 28,2.5 12,2.5 12,5.5 0,3 -11,15 -11,12 -22,22 -43,44 -70,86 -27,42 -27,69 0,16 -7,24.5 -7,8.5 -9,8.5 -4,0 -4,-11 0,-6 -0.5,-52.5 -0.5,-46.5 -2.5,-107.5 z m 83,-47 q -14,-3 -25,-6 -11,-3 -16,-4 -6,-2 -10,-2 -6,0 -7.5,7 -1.5,7 -1.5,50 v 65 l 42,-47 q 16,-19 28,-34 12,-15 14,-18 0,-3 -7.5,-5.5 -7.5,-2.5 -16.5,-5.5 z"
     id="path1" />
</svg>
