<?xml version="1.0" encoding="UTF-8" standalone="no"?>
<svg
   width="2000"
   height="2000"
   version="1.1"
   id="svg1"
   sodipodi:docname="u12250.svg"
   inkscape:version="1.3.2 (091e20e, 2023-11-25)"
   xmlns:inkscape="http://www.inkscape.org/namespaces/inkscape"
   xmlns:sodipodi="http://sodipodi.sourceforge.net/DTD/sodipodi-0.dtd"
   xmlns="http://www.w3.org/2000/svg"
   xmlns:svg="http://www.w3.org/2000/svg">
  <defs
     id="defs1" />
  <sodipodi:namedview
     id="namedview1"
     pagecolor="#505050"
     bordercolor="#eeeeee"
     borderopacity="1"
     inkscape:showpageshadow="0"
     inkscape:pageopacity="0"
     inkscape:pagecheckerboard="0"
     inkscape:deskcolor="#505050"
     inkscape:zoom="0.379"
     inkscape:cx="1000"
     inkscape:cy="998.68074"
     inkscape:window-width="1392"
     inkscape:window-height="1212"
     inkscape:window-x="0"
     inkscape:window-y="0"
     inkscape:window-maximized="0"
     inkscape:current-layer="svg1" />
  <path
     d="m 1362,654 q 0,-6 4,-6 0,0 3.5,1 3.5,1 18.5,14 12,10 19,14.5 7,4.5 13.5,6 6.5,1.5 13.5,1.5 3,0 10.5,-0.5 7.5,-0.5 14.5,-1.5 32,-3 52.5,-7 20.5,-4 27.5,-9 7,-3 16,-4.5 9,-1.5 15,-1.5 3,0 6,0 9,2 9,5 0,1 -2,3.5 -2,2.5 -21,14.5 -20,13 -31.5,24.5 -11.5,11.5 -20.5,28 -9,16.5 -16.5,39 -7.5,22.5 -16.5,54.5 -10,39 -17,74 -7,35 -12,74 -5,39 -8,87 -3,48 -5,112 -4,114 -7,130.5 -3,16.5 -4,16.5 -3,0 -4,-54 0,-51 -11,-51 -4,0 -13.5,-10.5 -9.5,-10.5 -18.5,-23.5 -12,-17 -34,-41.5 -22,-24.5 -47,-51 -25,-26.5 -49,-49 -24,-22.5 -38,-32.5 l -24,-18 -48,19 q -43,20 -44.5,24.5 -1.5,4.5 -1.5,4.5 0,4 10,4 9,0 25,-3 16,-2 23,-2 8,0 8,2 0,0 -1.5,3 -1.5,3 -25.5,15 -58,29 -81,77 -23,48 -35,148 -4,29 -7.5,48 -3.5,19 -4.5,19 0,0 0,-2 -2,-9 -13.5,-24 -11.5,-15 -43.5,-39 -9,-7 -26.5,-20.5 Q 901,1253 881,1235 q -15,-13 -31.5,-27 -16.5,-14 -24,-18.5 -7.5,-4.5 -11.5,-4.5 -2,0 -4.5,1.5 -2.5,1.5 -6.5,8.5 -4,7 -5.5,7.5 -1.5,0.5 -1.5,0.5 -2,0 -5,-4 -4,-7 -11,-7 -4,0 -12,3 -8,3 -25.5,16 -17.5,13 -37,32 -19.5,19 -41.5,46 -13,16 -26.5,31 -13.5,15 -15.5,16 0,0 -1,0 -3,0 -6.5,-12.5 Q 611,1311 609,1292 607,1272 601.5,1248.5 596,1225 591,1210 q -8,-19 -8.5,-24 -0.5,-5 -0.5,-6 0,-9 6,-15 3,-5 3,-11 0,-3 -2,-10 -2,-7 -17,-28 -28,-41 -56,-59.5 -28,-18.5 -62,-18.5 h -39 l 27,-23 Q 573,906 656.5,816 740,726 763,676 q 11,-24 17,-24.5 6,-0.5 7,-0.5 11,0 11,18 0,19 14,43.5 14,24.5 31,40.5 14,13 42,29 28,16 68.5,36 40.5,20 88.5,41.5 48,21.5 77,33.5 30,13 34.5,14 4.5,1 6.5,1 7,0 18,-5.5 11,-5.5 32,-21.5 21,-16 54,-42 26,-21 45,-36.5 19,-15.5 34,-28.5 15,-13 24.5,-21.5 9.5,-8.5 11.5,-12.5 3,-4 3,-13 0,-1 -0.5,-7.5 -0.5,-6.5 -7.5,-20.5 -5,-13 -8.5,-25.5 Q 1362,661 1362,654 Z m -569,60 q -1,-8 -5.5,-14 -4.5,-6 -6.5,-6 -3,0 -10,8 -7,8 -17,20.5 -10,12.5 -20,28 -10,15.5 -19,29.5 -1,1 -1,2 0,5 12.5,7.5 12.5,2.5 54.5,2.5 h 72 l -27,-30 q -11,-13 -20,-27 -9,-14 -13,-21 z m 710,-8 q 0,-2 -15.5,-4.5 -15.5,-2.5 -41.5,-2.5 -28,0 -36,2 -8,2 -8,9 0,3 1,7 2,7 6,28.5 4,21.5 7,44 3,22.5 5,44 2,21.5 2,42.5 0,44 7,44 1,0 5.5,-2.5 4.5,-2.5 19.5,-66.5 9,-36 19,-68.5 10,-32.5 18,-49.5 3,-5 7,-15 4,-10 4,-12 z m -104,85 q -2,-9 -4.5,-17.5 -2.5,-8.5 -6.5,-8.5 -7,0 -28,26 -21,26 -50,70 -36,56 -44.5,77.5 -8.5,21.5 -8.5,34.5 0,11 4,20 2,5 5,14.5 3,9.5 3,15.5 1,5 16.5,26 15.5,21 35.5,42 12,13 22.5,25.5 10.5,12.5 19.5,24 9,11.5 16.5,21 7.5,9.5 11.5,17.5 6,9 13.5,18 7.5,9 9.5,9 4,0 4.5,-19 0.5,-19 0.5,-36 0,-16 -0.5,-46 -0.5,-30 -2.5,-78.5 -2,-48.5 -4.5,-94.5 -2.5,-46 -5.5,-83.5 -3,-37.5 -7,-57.5 z m -401,66 q -23,-9 -49,-20 -26,-11 -47,-16 -21,-5 -43.5,-7 -22.5,-2 -60.5,-3 l -104,-3 -33,42 q -44,56 -68.5,93.5 -24.5,37.5 -30,58.5 -5.5,21 -5.5,34 0,13 5.5,30.5 5.5,17.5 29.5,50.5 10,13 18.5,22.5 8.5,9.5 16,14.5 7.5,5 16,6.5 8.5,1.5 22.5,1.5 14,0 30.5,-1.5 16.5,-1.5 29.5,-4 13,-2.5 21,-6 8,-3.5 8,-5.5 0,-3 -19.5,-12 -19.5,-9 -47.5,-20 -26,-11 -45.5,-19.5 Q 622,1085 622,1082 q 0,-3 13,-17 13,-14 38,-37 l 8,-8 q 0,0 1,-1 l 11,-11 q 9,-9 11.5,-14.5 2.5,-5.5 2.5,-11.5 0,-1 -0.5,-5.5 Q 706,972 701,957 q -9,-30 -9,-41 0,-1 0.5,-3.5 0.5,-2.5 3.5,-2.5 3,0 10,7 9,8 19.5,12 10.5,4 18.5,4 8,0 18.5,5 10.5,5 17.5,12 19,17 49,17 13,0 21.5,3 8.5,3 8.5,9 0,6 -10,6 -10,0 -17.5,9.5 -7.5,9.5 -12.5,24.5 -5,15 -8.5,34 -3.5,19 -3.5,39 v 45 l 30,-6 q 36,-8 40.5,-17 4.5,-9 4.5,-16 0,-18 -12,-53 -10,-31 -10,-39 0,-8 3,-8 4,0 13,8 5,6 19.5,10.5 14.5,4.5 27.5,6.5 13,2 26.5,6 13.5,4 19.5,10 5,4 10.5,5.5 5.5,1.5 7.5,1.5 3,0 4,-1 4,-1 4,-4 0,-4 -9.5,-13.5 -9.5,-9.5 -31,-24 Q 933,989 908,976.5 883,964 854,957 q -7,-2 -24,-6 -17,-4 -19,-5 -3,-1 -3,-5 0,-11 27,-44 l 38,-45 12,40 q 3,13 8,23 5,10 13,20.5 8,10.5 21,22 13,11.5 33,27.5 26,23 48.5,38 22.5,15 28.5,15 4,0 22.5,-7.5 18.5,-7.5 38.5,-18.5 l 48,-25 -29,-6 q -30,-7 -31,-10.5 -1,-3.5 -1,-4.5 0,-7 23,-17 16,-7 24.5,-13.5 8.5,-6.5 8.5,-8.5 0,-2 -9.5,-7.5 -9.5,-5.5 -26,-14 Q 1089,897 1067,887 1045,877 998,857 Z m 279,25 q 9,-14 15.5,-26.5 6.5,-12.5 6.5,-15.5 0,0 0,0 0,0 -1,0 -3,0 -24,15 -21,15 -47,34 -38,28 -61.5,45 -23.5,17 -29.5,17 -4,0 -4,4 0,5 13,10.5 13,5.5 31,10.5 17,6 31.5,10.5 14.5,4.5 19.5,4.5 1,0 1,0 3,0 7.5,-7.5 4.5,-7.5 6.5,-20.5 2,-16 12,-38 10,-22 23,-43 z m -405,32 q -5,-16 -11,-16 -6,0 -16,15 -6,10 -6,15 0,1 1,3.5 1,2.5 12,5.5 8,3 13,3 10,0 10,-11 0,-6 -3,-15 z m -316,56 q 9,-17 14.5,-29.5 Q 576,928 576,927 574,927 558.5,939.5 543,952 520,972 l -52,46 31,8 q 12,2 20,2 1,0 6,-0.5 5,-0.5 7,-6.5 2,-3 8.5,-18.5 Q 547,987 556,970 Z m 170,-4 q 1,-4 1,-7 0,-4 -1,-7 -1,0 -3,0 -5,0 -5,7 0,7 5,7 2,0 3,0 z m 45,46 q -7,-36 -11.5,-40 -4.5,-4 -5.5,-4 -6,0 -12,22 -6,21 -6,43 0,11 3,32.5 3,21.5 20,41.5 l 21,24 1,-38 q 0,-14 -2.5,-38.5 Q 776,1030 771,1012 Z m 36,-17 q 0,-8 -2,-13.5 -2,-5.5 -8,-5.5 -7,0 -9,5.5 -2,5.5 -2,10.5 0,5 1,11 3,13 9,13 1,0 6,-2.5 5,-2.5 5,-18.5 z m 106,47 q -4,-4 -8,-4 -2,0 -6,2.5 -4,2.5 -4,15.5 0,8 2,13 2,5 6,5 4,0 7,-3.5 3,-3.5 5,-8.5 2,-5 2.5,-7.5 0.5,-2.5 0.5,-3.5 0,-4 -5,-9 z m -209,15 q -6,-19 -12,-19 0,0 -3.5,0.5 -3.5,0.5 -15.5,14.5 -13,14 -13,23 0,2 3.5,7.5 3.5,5.5 32.5,12.5 12,4 17,4 3,0 4,-1 1,-1 1,-3 0,-4 -4,-12 -2,-5 -5.5,-14.5 Q 705,1060 704,1057 Z m 250,14 q -4,-11 -9,-11.5 -5,-0.5 -5,-0.5 -8,0 -14,13 -3,7 -3,11 0,3 2,4.5 2,1.5 5,1.5 4,0 10,-2 14,-5 14,-14 0,-1 0,-2 z m 82,54 q 11,-20 17.5,-33 6.5,-13 6.5,-17 0,-1 0,-1 -1,-2 -6.5,-2.5 -5.5,-0.5 -7.5,-0.5 -7,0 -16,1.5 -9,1.5 -18.5,3.5 -9.5,2 -11.5,4 -3,3 -3,14 0,1 0.5,9.5 0.5,8.5 4.5,25.5 l 9,44 z m -53,-9 q -5,-17 -10.5,-19 -5.5,-2 -7.5,-2 -9,0 -26,9 -10,5 -15,9.5 -5,4.5 -7.5,12 -2.5,7.5 -3,20 -0.5,12.5 -0.5,33.5 0,22 0.5,34.5 0.5,12.5 4,20.5 3.5,8 10.5,15 7,7 23,19 17,14 25.5,19 8.5,5 12.5,5 3,0 6.5,-3 3.5,-3 3.5,-20.5 0,-17.5 -2,-47.5 -3,-35 -7,-64 -4,-29 -7,-41 z m -94,31 q -5,-11 -11,-11 -6,0 -31,14 l -25,14 30,25 q 12,11 23,18.5 11,7.5 14,7.5 2,0 3.5,-7.5 1.5,-7.5 1.5,-18 0,-10.5 -1,-22 -1,-11.5 -4,-20.5 z m -141,37 q 13,-9 13.5,-10 0.5,-1 0.5,-1 0,-1 -4,-1 -4,0 -13,1 -16,0 -38.5,2 -22.5,2 -43.5,4.5 -21,2.5 -36.5,5 -15.5,2.5 -17.5,4.5 -1,1 -1,5 0,4 1.5,15.5 1.5,11.5 4.5,30 3,18.5 7,34.5 4,16 6,18 0,0 1,0 4,0 15.5,-11 11.5,-11 26.5,-26 20,-21 40,-39.5 20,-18.5 38,-31.5 z"
     id="path1" />
</svg>
