<?xml version="1.0" encoding="UTF-8" standalone="no"?>
<svg
   width="2000"
   height="2000"
   version="1.1"
   id="svg1"
   sodipodi:docname="u12261.svg"
   inkscape:version="1.3.2 (091e20e, 2023-11-25)"
   xmlns:inkscape="http://www.inkscape.org/namespaces/inkscape"
   xmlns:sodipodi="http://sodipodi.sourceforge.net/DTD/sodipodi-0.dtd"
   xmlns="http://www.w3.org/2000/svg"
   xmlns:svg="http://www.w3.org/2000/svg">
  <defs
     id="defs1" />
  <sodipodi:namedview
     id="namedview1"
     pagecolor="#505050"
     bordercolor="#eeeeee"
     borderopacity="1"
     inkscape:showpageshadow="0"
     inkscape:pageopacity="0"
     inkscape:pagecheckerboard="0"
     inkscape:deskcolor="#505050"
     inkscape:zoom="0.379"
     inkscape:cx="1000"
     inkscape:cy="998.68074"
     inkscape:window-width="1392"
     inkscape:window-height="1212"
     inkscape:window-x="0"
     inkscape:window-y="0"
     inkscape:window-maximized="0"
     inkscape:current-layer="svg1" />
  <path
     d="m 954,745 q 5,-9 12,-9 7,0 7,7 0,3 -2.5,12 -2.5,9 -15.5,21 -8,8 -24.5,28 -16.5,20 -32,42 -15.5,22 -26,38.5 Q 862,901 862,904 q 0,1 0,1 2,2 23.5,4 21.5,2 50.5,5 l 70,6 61,-45 q 24,-19 49.5,-41 25.5,-22 40.5,-38 8,-9 16,-16 8,-7 11,-7 1,0 2,1 1,1 1,2 0,3 -4,11 -4,8 -9.5,17.5 -5.5,9.5 -12,18 -6.5,8.5 -9.5,8.5 -4,0 -13,11 -9,11 -19,24.5 -10,13.5 -18.5,26.5 -8.5,13 -8.5,17 0,1 11.5,2.5 11.5,1.5 31.5,3 20,1.5 47,2 27,0.5 60,0.5 66,0 104.5,2 38.5,2 38.5,6 0,4 -41.5,6 -41.5,2 -117.5,2 h -157 l -23,34 q -9,15 -15.5,31.5 -6.5,16.5 -8.5,28.5 -2,12 -2,20 0,3 0.5,9.5 0.5,6.5 7.5,6.5 7,0 7,10 0,3 -1,7 0,4 0,7 0,10 5.5,17 5.5,7 24.5,21 19,14 42,35 23,21 42,42.5 19,21.5 30.5,37.5 11.5,16 11.5,21 0,0 0,1 0,1 -1,1 -4,0 -16.5,-10.5 -12.5,-10.5 -28.5,-28.5 -17,-19 -40.5,-40.5 -23.5,-21.5 -47.5,-41.5 -24,-20 -45,-34 -21,-14 -32,-18 -4,-2 -11.5,-5.5 -7.5,-3.5 -10.5,-5.5 -7,-6 -29.5,-11.5 Q 906,1063 879,1060 l -66,-9 75,-45 -31,-23 q -12,-10 -28,-16 -16,-6 -27,-6 -10,0 -35.5,6 -25.5,6 -53.5,14.5 -28,8.5 -51.5,17.5 -23.5,9 -34.5,17 -6,5 -9,5 -4,0 -4,-7 0,-8 5,-24 7,-24 8,-43.5 1,-19.5 1,-33.5 0,-14 -1,-28 -1,-14 -1,-24 0,-10 1.5,-20 1.5,-10 9.5,-10 6,0 12,7 5,7 19.5,16 14.5,9 32.5,17 18,8 34.5,14 16.5,6 22.5,6 6,0 21.5,-9 15.5,-9 36.5,-23.5 21,-14.5 44,-31.5 23,-17 43,-33 20,-16 33.5,-28.5 Q 950,753 954,745 Z m -89,121 q 7,-12 13,-24 5,-9 6,-10 -3,1 -15.5,11 -12.5,10 -27.5,22 -15,12 -26.5,23 -11.5,11 -12.5,14 0,0 0,1 0,2 4.5,4 4.5,2 12.5,2 10,-1 20.5,-9.5 Q 850,891 865,866 Z M 690,884 Q 680,879 666.5,872.5 653,866 651,866 q -1,0 -3,17.5 -2,17.5 -4,39.5 -2,22 -2.5,34.5 -0.5,12.5 -0.5,17.5 0,9 1,10 0,0 1,0 3,0 20.5,-5 17.5,-5 42.5,-14 l 61,-21 -33,-6 q -24,-5 -25,-6 -1,-1 -1,-1 0,-2 10,-7 17,-10 17,-15 0,0 -2,-2.5 -2,-2.5 -43,-23.5 z m 381,20 q 2,-5 2.5,-7.5 0.5,-2.5 0.5,-3.5 0,-2 -2,-2 -1,0 -4.5,4 -3.5,4 -6.5,8 -8,9 -8,13 0,2 3,2 4,0 8,-4 4,-4 7,-10 z m -254,23 q -9,-4 -21.5,-6 -12.5,-2 -25.5,-2 -10,0 -10,1 0,0 0.5,0.5 0.5,0.5 18.5,6.5 11,2 23.5,4 12.5,2 22.5,2 8,0 8,-1 0,-1 -16,-5 z m 223,22 q 7,-9 7,-13 0,-1 -0.5,-2 -0.5,-1 -3.5,-1 -3,0 -11.5,2.5 -8.5,2.5 -26,12 Q 988,957 964,975 q -17,12 -38,26 -21,14 -30,19 -14,8 -14,14 0,2 3,7 3,5 25,5 13,0 27,3 14,3 22,7 10,4 19,4 8,0 18,-4 10,-4 10,-11 0,-2 -2,-5 -2,-3 -2,-8 0,-4 2,-12.5 2,-8.5 7.5,-22 5.5,-13.5 13.5,-27 8,-13.5 15,-21.5 z m -59,-11 q 0,-3 -14.5,-3 -14.5,0 -32,0.5 -17.5,0.5 -33.5,2 -16,1.5 -22,3.5 -9,4 -9,13 0,1 0.5,7.5 0.5,6.5 13.5,19.5 11,10 19,10 1,0 6,-1 5,-1 37,-25 12,-9 23.5,-17.5 Q 981,939 981,938 Z"
     id="path1" />
</svg>
