<?xml version="1.0" encoding="UTF-8" standalone="no"?>
<svg
   width="2000"
   height="2000"
   version="1.1"
   id="svg1"
   sodipodi:docname="u12232.svg"
   inkscape:version="1.3.2 (091e20e, 2023-11-25)"
   xmlns:inkscape="http://www.inkscape.org/namespaces/inkscape"
   xmlns:sodipodi="http://sodipodi.sourceforge.net/DTD/sodipodi-0.dtd"
   xmlns="http://www.w3.org/2000/svg"
   xmlns:svg="http://www.w3.org/2000/svg">
  <defs
     id="defs1" />
  <sodipodi:namedview
     id="namedview1"
     pagecolor="#505050"
     bordercolor="#eeeeee"
     borderopacity="1"
     inkscape:showpageshadow="0"
     inkscape:pageopacity="0"
     inkscape:pagecheckerboard="0"
     inkscape:deskcolor="#505050"
     inkscape:zoom="0.379"
     inkscape:cx="1000"
     inkscape:cy="998.68074"
     inkscape:window-width="1392"
     inkscape:window-height="1212"
     inkscape:window-x="0"
     inkscape:window-y="0"
     inkscape:window-maximized="0"
     inkscape:current-layer="svg1" />
  <path
     d="m 686,725 q 18,-38 32,-64 14,-26 17,-26 3,0 7,12 4,12 7,28 4,24 14,44.5 10,20.5 28,40 18,19.5 46.5,40.5 28.5,21 70.5,48 63,36 80.5,44.5 17.5,8.5 24.5,8.5 6,0 7,-5 3,-16 11,-16 0,0 5,1 5,1 10,19 6,18 25.5,35.5 19.5,17.5 41,27 21.5,9.5 32.5,10.5 11,1 12,1 17,0 21,-12 0,-2 0,-6 0,-6 -1,-20.5 -1,-14.5 -4,-40.5 -3,-26 -9,-58.5 -6,-32.5 -13,-65.5 -3,-13 -4.5,-17 -1.5,-4 -1.5,-6 0,-5 9,-7.5 9,-2.5 34,-2.5 h 12 q 3,0 6,0 h 6 q 2,0 3,0 h 50 q 22,0 38.5,-3 16.5,-3 19.5,-6 3,-3 15,-4.5 12,-1.5 23,-1.5 6,0 12,0 18,0 27.5,2.5 9.5,2.5 11,7 1.5,4.5 1.5,8.5 0,5 -3,16 -3,11 -12,37 -7,16 -11.5,48.5 -4.5,32.5 -4.5,60.5 0,47 3,58 3,11 19,16 6,2 14,2 4,0 12.5,-1 8.5,-1 17.5,-7 13,-8 41,-26.5 28,-18.5 58.5,-41 30.5,-22.5 59,-46 28.5,-23.5 43.5,-36.5 31,-29 43,-29 1,0 3,1 2,1 2,4 0,9 -22,34 -122,150 -122,184 0,10 11,10 6,0 6,7 0,5 -2,12 0,2 0,3 0,18 38,48 16,14 32,31 16,17 28,34.5 12,17.5 16.5,27 4.5,9.5 4.5,13.5 0,4 -2,5 -2,2 -4,2 -7,0 -20,-20 -9,-13 -30.5,-35.5 -21.5,-22.5 -46.5,-45 -25,-22.5 -48,-42 -23,-19.5 -35,-25.5 -12,-6 -34,-12 -22,-6 -40,-9 l -46,-6 v 88 q 0,39 -3,64 -3,25 -8,25 -4,0 -7,-28 -3,-28 -3,-71 v -98 l -77,6 -3,99 q -3,101 -12,101 0,0 -5,-1 -5,-1 -5,-103 V 993 l -57,6 -3,105 q -3,104 -8,105 -5,1 -5,1 -10,0 -10,-103 0,-48 -3,-75.5 -3,-27.5 -7,-27.5 -8,0 -24.5,7.5 -16.5,7.5 -35,18 -18.5,10.5 -37.5,22.5 -19,12 -29,22 -12,12 -19.5,17 -7.5,5 -10.5,5 -2,0 -3,-1 -2,-2 -2,-13 0,-5 1,-20 1,-15 4,-45 3,-33 3.5,-42 0.5,-9 0.5,-10 0,-16 -9,-29 -9,-13 -33,-27.5 Q 948,894 903,869 804,811 732,811 q -25,0 -46,7 -15,4 -21.5,4.5 -6.5,0.5 -8.5,0.5 -7,0 -9,-2 0,0 0,-1 0,-6 10.5,-32.5 Q 668,761 686,725 Z m 70,24 q -12,-20 -19.5,-34 -7.5,-14 -7.5,-16 0,0 0,0 -1,0 -8,13 -7,13 -16,30 -9,17 -15.5,32 -6.5,15 -6.5,18 6,0 15,2 h 2 q 0,0 0,0 h 2 q 0,0 1,0 0,0 1,0 0,0 1,0 0,0 0,0 h 8 q 9,0 19,1 h 50 z m -393,31 q 6,-18 11.5,-30.5 5.5,-12.5 8.5,-12.5 3,0 12,14 9,14 19,34 14,24 27.5,40.5 13.5,16.5 38,32 24.5,15.5 66,32 Q 587,906 654,932 717,954 761.5,973.5 806,993 806,996 q 0,3 -4.5,5 -4.5,2 -7.5,2 -3,0 -6,-1 -6,-1 -11,-1 -11,0 -18,4 -3,3 -41,16 -3,1 -5,2 l -4,1 q -6,2 -12,4 l -5,2 q -15,5 -31,10 l -6,2 q -7,3 -14,5 l -5,1 q -3,1 -6,2 -94,32 -153.5,68 -59.5,36 -98.5,88 -10,15 -20,25 -10,10 -13,10 -1,0 -8.5,-31 -7.5,-31 -14.5,-68.5 -7,-37.5 -11,-63.5 -4,-26 -4,-35 0,-5 1,-6 0,0 0,0 l 1,1 q 1,0 2,1 l 2,1 q 1,0 2,1 h 1 q 0,0 0,0 l 1,1 q 1,0 2,1 l 2,1 q 1,0 2,0 13,6 31,17 18,10 40,17.5 22,7.5 34,7.5 7,0 33.5,-6.5 26.5,-6.5 61.5,-17 35,-10.5 74,-22.5 39,-12 72,-22.5 33,-10.5 52.5,-18.5 19.5,-8 19.5,-10 0,0 0,0 0,-2 -30.5,-14 Q 680,963 636,947 555,915 510.5,910 466,905 443,905 q -47,0 -98,10 l -43,8 25,-50 q 9,-21 19.5,-48 10.5,-27 16.5,-45 z m 995,123 q -3,-28 -9,-61 -6,-33 -12,-54 l -14,-45 -16,45 q -8,21 -14,54 -6,33 -9,61 l -7,71 h 87 z m 21,-123 q 7,-21 7,-27 0,0 -0.5,-3 -0.5,-3 -15.5,-3 -15,0 -17,6 -2,6 -2,9 0,11 8,30 5,12 8,12 1,0 2.5,-1.5 1.5,-1.5 9.5,-22.5 z m -92,-10 q 1,-1 1,-2 0,-4 -5.5,-7 -5.5,-3 -14.5,-3 -17,0 -18,2.5 -1,2.5 -1,3.5 0,6 10,31 7,21 8.5,22 1.5,1 2.5,1 3,0 8,-14 5,-9 7,-18.5 2,-9.5 2,-15.5 z m -87,25 q 3,-10 3,-16 0,-3 -2,-7 -2,-4 -14,-4 -14,0 -15,3 -1,3 -1,5 0,6 7,24 9,25 12,25 3,0 10,-30 z m 54,104 q -3,-30 -6.5,-59.5 -3.5,-29.5 -8.5,-41.5 -6,-17 -9,-17 0,0 -1.5,1 -1.5,1 -10.5,27 -4,15 -8.5,44 -4.5,29 -7.5,56 l -6,65 h 66 z M 455,870 Q 447,866 434.5,852.5 422,839 410,822 q -17,-25 -20,-26.5 -3,-1.5 -4,-1.5 -4,0 -8,10 -3,8 -9,24.5 -6,16.5 -12,31.5 l -13,34 31,-7 q 12,-3 31.5,-4.5 19.5,-1.5 33.5,-1.5 21,-2 22,-2.5 1,-0.5 1,-0.5 0,-1 -8,-8 z m 1117,54 q 12,-15 12,-18 0,-1 -1,-1 0,0 -4.5,2 -4.5,2 -64.5,44 l -69,50 42,10 q 21,6 32,6 11,0 11,-6 20,-52 42,-87 z m -445,75 -42,-28 q -17,-11 -28,-16 -11,-5 -16,-5 -2,0 -3,1 -3,3 -4.5,17.5 -1.5,14.5 -1.5,32.5 0,31 5,38 5,7 8,7 5,0 13,-11 3,-4 14,-11 11,-7 23,-13 z m 265,0 q 0,-4 -6,-4 -4,0 -4,4 0,5 4,5 6,0 6,-5 z m -510,104 q 68,-47 87,-57 19,-10 25,-10 7,0 7,7 0,3 -28.5,24 -28.5,21 -69.5,48 -37,25 -63.5,47.5 -26.5,22.5 -46,46 -19.5,23.5 -33.5,51 -14,27.5 -28,65.5 -10,31 -16,35.5 -6,4.5 -8,4.5 -6,0 -6,-19 0,-8 -10.5,-38.5 Q 681,1277 666,1241 q -15,-35 -23,-58.5 -8,-23.5 -8,-29.5 0,-1 0,-2 1,0 14.5,5 13.5,5 30.5,14 21,11 32,13 11,2 16,2 13,0 31,-6.5 18,-6.5 48,-24.5 30,-18 75,-51 z m -456,4 q -9,0 -25.5,-3.5 Q 384,1100 369,1092 l -34,-13 6,42 q 3,28 6.5,43 3.5,15 7.5,17 4,2 6,2 5,0 14,-7 9,-7 27,-25 30,-29 32.5,-33.5 2.5,-4.5 2.5,-5.5 0,-5 -11,-5 z m 323,99 q -4,2 -10,2 -4,0 -13.5,-1.5 -9.5,-1.5 -23.5,-4.5 -12,-5 -19.5,-6.5 -7.5,-1.5 -9.5,-1.5 -1,0 -1,0 0,2 4,13 4,11 10,25 6,15 12,30.5 6,15.5 9,24.5 3,10 7,10 1,0 5,-3.5 4,-3.5 21,-34.5 21,-44 22,-48 1,-4 1,-5 0,-3 -3,-3 -4,0 -11,3 z"
     id="path1" />
</svg>
