<?xml version="1.0" encoding="UTF-8" standalone="no"?>
<svg
   width="2000"
   height="2000"
   version="1.1"
   id="svg1"
   sodipodi:docname="u122FC.svg"
   inkscape:version="1.3.2 (091e20e, 2023-11-25)"
   xmlns:inkscape="http://www.inkscape.org/namespaces/inkscape"
   xmlns:sodipodi="http://sodipodi.sourceforge.net/DTD/sodipodi-0.dtd"
   xmlns="http://www.w3.org/2000/svg"
   xmlns:svg="http://www.w3.org/2000/svg">
  <defs
     id="defs1" />
  <sodipodi:namedview
     id="namedview1"
     pagecolor="#505050"
     bordercolor="#eeeeee"
     borderopacity="1"
     inkscape:showpageshadow="0"
     inkscape:pageopacity="0"
     inkscape:pagecheckerboard="0"
     inkscape:deskcolor="#505050"
     inkscape:zoom="0.379"
     inkscape:cx="1000"
     inkscape:cy="998.68074"
     inkscape:window-width="1392"
     inkscape:window-height="1212"
     inkscape:window-x="0"
     inkscape:window-y="0"
     inkscape:window-maximized="0"
     inkscape:current-layer="svg1" />
  <path
     d="m 1020,663 q 34,-25 40.5,-25.5 6.5,-0.5 6.5,-0.5 5,0 5,5 0,5 -5,16 -6,10 -6,24.5 0,14.5 4,31 4,16.5 12,32.5 8,16 18,27 7,9 21,21.5 14,12.5 32.5,29.5 18.5,17 41,37 22.5,20 45.5,40 l 113,94 1,-37 q 1,-10 1,-21 0,-11 -1.5,-30 -1.5,-19 -6.5,-49 -5,-30 -13,-62.5 -8,-32.5 -17,-65.5 -9,-29 -15,-48 -6,-19 -6,-24 0,-2 0,-2 0,-1 8.5,-1.5 8.5,-0.5 15.5,-0.5 7,0 19.5,0.5 12.5,0.5 32,1 19.5,0.5 36.5,1 17,0.5 29,2 12,1.5 13,2.5 1,0 1,1 0,2 -4,7.5 -4,5.5 -9,10.5 -11,12 -21.5,31.5 -10.5,19.5 -17.5,39.5 -6,16 -10,33.5 -4,17.5 -7.5,48.5 -3.5,31 -6.5,82 -3,51 -6,133 -1,55 -3.5,100 -2.5,45 -4.5,75.5 -2,30.5 -4,44.5 -2,14 -3,14 -1,0 -1,0 -2,-3 -3,-14.5 -1,-11.5 -1,-29 0,-17.5 0.5,-39 0.5,-21.5 2.5,-49.5 2,-40 2,-64 0,-9 -0.5,-25 -0.5,-16 -6.5,-16 -5,0 -28.5,10.5 -23.5,10.5 -56,27 -32.5,16.5 -69.5,37 -37,20.5 -70.5,40 -33.5,19.5 -58.5,35.5 -25,16 -39,29 -10,10 -28,31 -18,21 -33.5,41 -15.5,20 -26,36.5 -10.5,16.5 -10.5,21.5 0,3 -3,6 -3,3 -6,3 -4,0 -6.5,-3 -2.5,-3 -2.5,-6 0,-5 -7,-22.5 -7,-17.5 -13,-31.5 -10,-23 -16.5,-34.5 -6.5,-11.5 -16,-22 -9.5,-10.5 -23,-21.5 -13.5,-11 -47.5,-35 -26,-18 -50.5,-34.5 -24.5,-16.5 -42,-25.5 -17.5,-9 -30.5,-12 -13,-3 -29,-3 -17,0 -31.5,3 -14.5,3 -24.5,10 -8,5 -12,5 -5,0 -6,-3.5 -1,-3.5 -1,-5.5 0,-11 17,-28 10,-11 23.5,-28 13.5,-17 24.5,-28 l 21,-28 -29,-60 q -12,-24 -18.5,-41 -6.5,-17 -6.5,-21 0,-2 0,-2 1,0 3,0 3,0 11.5,1 8.5,1 21.5,4 12,5 23.5,5.5 11.5,0.5 16.5,0.5 10,0 17,-1 13,-2 32.5,-12 19.5,-10 43.5,-24 24,-14 48.5,-30.5 24.5,-16.5 44,-31 19.5,-14.5 31,-24.5 11.5,-10 11.5,-16 0,0 0,-1 0,-1 0,-2 0,-5 11,-14.5 11,-9.5 35,-22.5 9,-5 21,-12 12,-7 24,-15 12,-8 22.5,-15.5 Q 1014,667 1020,663 Z m 31,39 q 0,-28 -11,-28 -5,0 -18,8 -13,8 -26,17.5 -13,9.5 -20,16 -7,6.5 -7,8.5 0,1 1,1 2,0 2,3 0,3 -4,6 -3,3 -3,6 0,4 8.5,9.5 8.5,5.5 47.5,18.5 17,6 34.5,11.5 17.5,5.5 19.5,5.5 -1,-3 -3,-7 -2,-8 -9,-18 -5,-11 -8.5,-27 -3.5,-16 -3.5,-31 z m 361,-28 h -48 q -17,0 -27,0.5 -10,0.5 -14.5,2 -4.5,1.5 -4.5,5 0,3.5 1,10.5 2,9 7,28 5,19 10,37 5,19 9.5,33 4.5,14 6.5,16 0,0 1,0 2,0 6.5,-7.5 4.5,-7.5 10.5,-26.5 4,-12 11.5,-32 7.5,-20 14.5,-34 z m -367,122 q -40,-15 -60,-21.5 -20,-6.5 -35,-6.5 -5,0 -16.5,1.5 -11.5,1.5 -32,14 Q 881,796 857,813 776,869 733.5,917.5 691,966 684,1003 q -2,8 -2,15 0,12 5,28 5,16 17.5,37 12.5,21 30.5,41.5 18,20.5 42,38.5 17,13 31,20 14,7 18,7 1,0 1,0 2,-3 17.5,-3 15.5,0 40.5,6 16,4 27,5 11,1 15,1 6,0 7,-1 2,-2 4,-35.5 2,-33.5 3,-88.5 1,-33 1,-56.5 0,-23.5 -2.5,-40 Q 937,961 931.5,947 926,933 916,911 903,888 895,869.5 887,851 887,850 q 0,-2 20,-2.5 20,-0.5 45,-0.5 33,0 53,1 20,1 20,3 0,2 -8,13 -8,11 -18,24 -10,11 -15.5,20.5 -5.5,9.5 -9,20.5 -3.5,11 -6,25 -2.5,14 -4.5,35 -2,14 -3.5,32.5 -1.5,18.5 -2.5,37.5 -1,19 -1.5,37 -0.5,18 -0.5,33 v 72 l 24,-5 q 7,-2 35.5,-14.5 28.5,-12.5 67,-31 38.5,-18.5 81.5,-39.5 43,-21 80,-40 37,-19 62.5,-32.5 25.5,-13.5 27.5,-16.5 1,-1 1,-2 0,-7 -20,-27 -20,-20 -73,-65 -37,-31 -66,-54 -29,-23 -50,-37.5 -21,-14.5 -39,-23.5 -18,-9 -42,-17 z m -63,76 q 0,-4 -8.5,-6 -8.5,-2 -16,-2.5 Q 950,863 947,863 q -7,0 -15.5,1 -8.5,1 -10.5,3 -1,1 -1,4 0,3 2,11 2,8 7,19.5 5,11.5 10,21 5,9.5 8,9.5 2,0 8,-8 6,-8 12,-18.5 6,-10.5 10.5,-20.5 4.5,-10 4.5,-13 z m -267,42 q 0,-3 -14,-3.5 -14,-0.5 -34,-0.5 -20,1 -33.5,2.5 -13.5,1.5 -13.5,5.5 0,3 4.5,14 4.5,11 10.5,22 6,11 11.5,20 5.5,9 6.5,9 5,0 15,-9.5 Q 678,964 688.5,952 699,940 707,928.5 715,917 715,914 Z m -36,155 q -13,-26 -20.5,-26.5 -7.5,-0.5 -7.5,-0.5 -14,0 -34,24 l -22,28 46,3 q 16,2 28,2 3,0 11.5,-0.5 8.5,-0.5 8.5,-4.5 0,-1 -3.5,-8.5 Q 682,1078 679,1069 Z m 327,142 h -72 q -56,0 -63.5,2.5 -7.5,2.5 -7.5,5.5 0,4 7,10 9,8 13,17.5 4,9.5 6,19.5 2,10 7,21.5 5,11.5 11,19.5 7,9 11,9 1,0 3.5,-1 2.5,-1 16.5,-23 9,-12 22,-27.5 13,-15.5 22,-26.5 z"
     id="path1" />
</svg>
