<?xml version="1.0" encoding="UTF-8" standalone="no"?>
<svg
   width="2000"
   height="2000"
   version="1.1"
   id="svg1"
   sodipodi:docname="u12260.svg"
   inkscape:version="1.3.2 (091e20e, 2023-11-25)"
   xmlns:inkscape="http://www.inkscape.org/namespaces/inkscape"
   xmlns:sodipodi="http://sodipodi.sourceforge.net/DTD/sodipodi-0.dtd"
   xmlns="http://www.w3.org/2000/svg"
   xmlns:svg="http://www.w3.org/2000/svg">
  <defs
     id="defs1" />
  <sodipodi:namedview
     id="namedview1"
     pagecolor="#505050"
     bordercolor="#eeeeee"
     borderopacity="1"
     inkscape:showpageshadow="0"
     inkscape:pageopacity="0"
     inkscape:pagecheckerboard="0"
     inkscape:deskcolor="#505050"
     inkscape:zoom="0.379"
     inkscape:cx="1000"
     inkscape:cy="998.68074"
     inkscape:window-width="1392"
     inkscape:window-height="1212"
     inkscape:window-x="0"
     inkscape:window-y="0"
     inkscape:window-maximized="0"
     inkscape:current-layer="svg1" />
  <path
     d="m 1337,639.5 q 0,-3 7,-3 2,0 7.5,0.5 5.5,0.5 14.5,3.5 15,3 42.5,5.5 27.5,2.5 53.5,2.5 27,0 45,2 18,2 18,10 0,4 -5,4 -7,0 -16,15 -9,15 -19,34.5 -10,19.5 -15,34 -5,14.5 -5,20.5 0,2 0,3 3,4 3,8 0,3 -3,5 -11,6 -16,45 -5,39 -7.5,97.5 -2.5,58.5 -3,98 -0.5,39.5 -0.5,49.5 0,58 3,112 l 4,135 36,9 q 15,3 25.5,8.5 10.5,5.5 10.5,9.5 0,4 -8,4 -9,0 -28,-5 -24,-6 -30.5,-6 -6.5,0 -6.5,10 0,12 -9,12 -8,0 -8,-10 0,-9 -5,-14.5 -5,-5.5 -21,-10.5 -16,-5 -43.5,-13.5 -27.5,-8.5 -71.5,-20.5 l -142,-39 -113,5 q -46,3 -83.5,4.5 -37.5,1.5 -48.5,2.5 -3,1 -5,1 -4,0 -4.5,-2.5 -0.5,-2.5 -0.5,-2.5 0,-6 4,-17 3,-8 3,-12 0,-3 -2,-5 -2,-2 -18,-3 -16,-1 -49.5,-1 -33.5,0 -95.5,2 -63,0 -98,0.5 -35,0.5 -54.5,3 -19.5,2.5 -31,7.5 -11.5,5 -27.5,14 -15,9 -26,14.5 -11,5.5 -14,5.5 -1,0 -1,0 -1,-3 -2.5,-19 -1.5,-16 -1.5,-31 0,-5 0.5,-18 0.5,-13 2,-29.5 1.5,-16.5 3.5,-16.5 3,0 23,7.5 20,7.5 47,16.5 20,7 35.5,11.5 15.5,4.5 37.5,7.5 22,3 52.5,4.5 30.5,1.5 101.5,3.5 43,1 61,1.5 18,0.5 22,0.5 25,0 37.5,-5.5 12.5,-5.5 15,-21.5 2.5,-16 5.5,-43 3,-21 5,-33.5 2,-12.5 4,-12.5 1,0 12.5,12 11.5,12 23.5,24 21,21 42,39 21,18 37,27 15,9 40.5,19.5 25.5,10.5 50.5,18 25,7.5 37.5,9.5 12.5,2 17.5,2 9,0 12,-3 4,-4 5,-31.5 1,-27.5 1,-56.5 0,-19 0,-42 l -3,-122 -27,-34 q -12,-15 -19,-25 -7,-10 -7,-11 3,-3 25,-4 22,-1 41,-1.5 19,-0.5 31,-0.5 11,0 26,0.5 15,0.5 15,2.5 0,3 -4.5,12 -4.5,9 -11.5,19 -12,18 -21,37.5 -9,19.5 -15,43.5 -6,24 -10,54 -4,30 -5,71 l -2,102 24,9 q 14,4 42.5,11.5 28.5,7.5 58.5,16 30,8.5 53,14.5 23,6 25,6 1,0 2,-16 1,-16 1,-44.5 0,-28.5 -1,-66 -1,-37.5 -1,-80.5 0,-62 -1.5,-104 -1.5,-42 -3.5,-70.5 -2,-28.5 -5,-48 -3,-19.5 -8,-38.5 -4,-17 -8,-27.5 -4,-10.5 -7,-15 -3,-4.5 -6,-5 -3,-0.5 -5,-0.5 -3,0 -8,1 -9,2 -45,7 -36,5 -66,10 -47,6 -69.5,10.5 -22.5,4.5 -41,9.5 -18.5,5 -36,12 -17.5,7 -38.5,17 -28,14 -59,32 -31,18 -56,37 -8,5 -20,14 -12,9 -15,9 -1,0 -1,-16.5 0,-16.5 3,-40.5 l 6,-57 H 769 q -59,0 -93.5,0.5 -34.5,0.5 -55.5,2 -21,1.5 -33,5.5 -12,4 -25,11 -30,12 -46.5,26.5 -16.5,14.5 -16.5,19.5 0,1 1,2 3,3 22.5,10 19.5,7 33.5,11 34,12 50.5,16 16.5,4 37,6 20.5,2 49,3 28.5,1 65.5,1 62,0 101.5,2 39.5,2 42.5,5 0,0 0,1 0,1 -10.5,2.5 -10.5,1.5 -31.5,2 -21,0.5 -50,2 -29,1.5 -64,1.5 -58,2 -92,2.5 -34,0.5 -53.5,3.5 -19.5,3 -31.5,7.5 -12,4.5 -27,12.5 -24,10 -37,15.5 -13,5.5 -16,5.5 -1,0 -1,0 -1,-3 -2.5,-27 -1.5,-24 -1.5,-54 0,-30 1.5,-56.5 1.5,-26.5 2.5,-32.5 2,-3 2,-10 0,-4 -1,-13.5 -1,-9.5 -4,-25.5 -3,-17 -3.5,-25 -0.5,-8 -0.5,-11 0,-5 1,-6 1,-1 2,-1 4,0 17.5,5.5 13.5,5.5 33.5,14.5 33,15 60,24 27,9 56,14.5 29,5.5 66,7.5 37,2 86,2 h 120 v -31 q 0,-26 5,-33.5 5,-7.5 8,-7.5 3,0 5,6 3,14 18,23 15,9 35.5,17 20.5,8 42,13.5 21.5,5.5 39.5,5.5 14,0 40,-2.5 26,-2.5 58.5,-6 32.5,-3.5 67,-8 34.5,-4.5 63.5,-9 29,-4.5 49.5,-9 20.5,-4.5 23.5,-6.5 3,-2 3,-8 0,-16 -21,-68 -8,-20 -15.5,-40 -7.5,-20 -7.5,-23 z m 102,25 q -21,0 -39.5,-1.5 -18.5,-1.5 -26.5,-4.5 -2,-1 -3,-1 -4,0 -4,5 0,2 2,9.5 2,7.5 23,63.5 16,44 29,44 1,0 8.5,-2.5 7.5,-2.5 39.5,-65.5 l 24,-47 z m -9,159 q 4,-19 4,-27 0,-3 -0.5,-5.5 -0.5,-2.5 -3.5,-2.5 -2,0 -4,2 -11,6 -11,23 0,7 2,15 l 7,27 z m -861,-12 q -16,-7 -32,-12 -5,-2 -8,-3 h -2 q -1,-1 -3,-2 h -1 q -2,0 -3,-1 -1,0 -1,0 h -1 q -1,-1 -1,-1 -5,-2 -8,-2 -4,0 -5.5,4.5 -1.5,4.5 -1.5,31.5 1,17 2,29 1,12 4,12 3,0 13.5,-4.5 10.5,-4.5 23.5,-12.5 14,-6 28,-11 14,-5 17,-7 11,-3 11,-6 0,-1 -3,-4 -3,-3 -29,-11 z m 404,-3 q -8,-4 -16,-8.5 -8,-4.5 -10,-4.5 -1,0 -2,18.5 -1,18.5 -1,39.5 0,65 8,65 1,0 1,0 2,-2 11.5,-8.5 9.5,-6.5 15.5,-11.5 15,-10 34,-20.5 19,-10.5 35,-18.5 l 41,-19 -42,-5 q -18,-3 -38.5,-9.5 Q 989,819.5 973,808.5 Z m -426,138 q -17,-6 -30,-9 l -14,-4 q -1,0 -2,9 -1,9 -1,22 v 30 l 89,-33 z m 708,-7 q 0,0 0,-1 0,-4 -10,-4.5 -10,-0.5 -26,-0.5 -23,0 -27.5,1 -4.5,1 -4.5,3 0,2 3,6 5,3 10,14.5 5,11.5 11,23.5 l 11,28 15,-33 q 7,-12 11.5,-24 4.5,-12 6.5,-13 z m -768,153 q -1,-18 -1,-30 0,-18 1.5,-22.5 1.5,-4.5 7.5,-4.5 7,0 22,6 15,6 42,15 27,9 52.5,13.5 25.5,4.5 51.5,6.5 26,2 64,2 30,0 63,1.5 33,1.5 59,4 26,2.5 42,4.5 16,2 16,5 0,3 -46.5,4.5 -46.5,1.5 -168.5,1.5 0,0 -1,0 h -3 q 0,0 -1,0 -1,0 -1,0 h -3 q -1,0 -1,0 h -29 q -33,0 -52.5,2.5 -19.5,2.5 -30.5,7 -11,4.5 -28,11.5 -18,11 -32,17.5 -14,6.5 -17,6.5 -3,0 -4,-17 -1,-17 -2,-35 z m 61,-23 q -18,-7 -30.5,-11 -12.5,-4 -14.5,-4 v 33 q 0,14 1.5,22 1.5,8 3.5,8 0,0 1,0 2,-1 14,-5.5 12,-4.5 28,-12.5 l 39,-15 z m 498,149 q -15,-8 -35,-23 -20,-15 -37,-30 -27,-23 -34,-23 -3,0 -3,2 -3,9 -7,25.5 -4,16.5 -7,33 -3,16.5 -4.5,29.5 -1.5,13 -1.5,14 2,0 26,-0.5 24,-0.5 57,-3.5 l 82,-5 z m -519,-26 q -15,-6 -23,-6 -3,0 -7,2.5 -4,2.5 -4,35.5 0,0 0,1 0,0 0,0 0,1 0,1 0,0 0,1 0,0 0,1 v 3 q 0,1 0,1 v 2 q 0,8 1,8 2,0 14.5,-4.5 12.5,-4.5 29.5,-12.5 25,-9 28,-12 3,-3 3,-4 0,-3 -12,-6 -3,-2 -12.5,-5 -9.5,-3 -17.5,-6 z"
     id="path1" />
</svg>
