<?xml version="1.0" encoding="UTF-8" standalone="no"?>
<svg
   width="2000"
   height="2000"
   version="1.1"
   id="svg1"
   sodipodi:docname="u12236.svg"
   inkscape:version="1.3.2 (091e20e, 2023-11-25)"
   xmlns:inkscape="http://www.inkscape.org/namespaces/inkscape"
   xmlns:sodipodi="http://sodipodi.sourceforge.net/DTD/sodipodi-0.dtd"
   xmlns="http://www.w3.org/2000/svg"
   xmlns:svg="http://www.w3.org/2000/svg">
  <defs
     id="defs1" />
  <sodipodi:namedview
     id="namedview1"
     pagecolor="#505050"
     bordercolor="#eeeeee"
     borderopacity="1"
     inkscape:showpageshadow="0"
     inkscape:pageopacity="0"
     inkscape:pagecheckerboard="0"
     inkscape:deskcolor="#505050"
     inkscape:zoom="0.379"
     inkscape:cx="1000"
     inkscape:cy="998.68074"
     inkscape:window-width="1392"
     inkscape:window-height="1212"
     inkscape:window-x="0"
     inkscape:window-y="0"
     inkscape:window-maximized="0"
     inkscape:current-layer="svg1" />
  <path
     d="m 1433.5,654.5 q 15,-26 24,-26 1,0 6,1 5,1 5,26 0,26 10.5,50 10.5,24 27.5,39 8,7 21,15.5 13,8.5 37.5,22 24.5,13.5 62.5,33.5 38,20 93,50 44,22 44,28 0,1 -0.5,2 -0.5,1 -3.5,1 -11,0 -47,-17 -30,-14 -42.5,-17 -12.5,-3 -17.5,-3 -4,0 -6,1 -3,3 -5.5,18 -2.5,15 -4.5,35.5 -2,20.5 -3.5,43 -1.5,22.5 -1.5,42 0,19.5 1,32 1,12.5 7,12.5 7,0 14,-11 5,-8 8,-8 2,0 3.5,3.5 1.5,3.5 1.5,6.5 0,8 -6,21 -6,14 -10,34 -4,20 -4,36 0,16 4,29 4,13 18.5,29 14.5,16 43,37.5 28.5,21.5 63.5,47.5 51,37 71.5,54 20.5,17 20.5,21 0,1 -2,1 -6,0 -32,-16 -26,-16 -58,-38 -15,-12 -30,-22.5 -15,-10.5 -27.5,-19 -12.5,-8.5 -21.5,-14.5 0,0 -1,0 v -1 q -1,0 -2,-1 0,0 -1,0 v -1 q -1,0 -1,-1 h -1 q -2,-1 -4,-3 -1,0 -1,-1 -1,0 -1,0 -9,-5 -30,-8 -21,-3 -43.5,-4.5 -22.5,-1.5 -41.5,-1.5 -6,0 -22.5,0.5 -16.5,0.5 -38.5,4.5 -18,3 -28,3.5 -10,0.5 -13,0.5 -7,0 -8,-1 0,0 0,-1 0,-3 10,-13.5 10,-10.5 27,-25.5 l 40,-36 -134,-47 q -28,-9 -53,-17 -25,-8 -43.5,-13.5 -18.5,-5.5 -28.5,-8 -10,-2.5 -12,-2.5 -1,0 -1,0 -2,0 -4,30 -2,30 -4,72 -4,47 -8,70.5 -4,23.5 -7,23.5 -1,0 -1,0 -3,-2 -3.5,-14.5 -0.5,-12.5 -0.5,-16.5 0,-19 3,-45 1,-21 1,-41 0,-10 -0.5,-29.5 -0.5,-19.5 -5.5,-34.5 -3,-12 -6,-19 -3,-7 -8,-12 -5,-5 -13,-9 -8,-4 -21,-8 -17,-6 -26.5,-7.5 -9.5,-1.5 -13.5,-1.5 -4,0 -5,1 -2,2 -4,40.5 -2,38.5 -4,91.5 -2,63 -4.5,96 -2.5,33 -7.5,33 -5,0 -5.5,-21.5 -0.5,-21.5 -0.5,-35.5 0,-30 1,-75 2,-49 2,-81 0,-10 -0.5,-32 -0.5,-22 -10,-31.5 -9.5,-9.5 -21.5,-9.5 -7,0 -24.5,5 -17.5,5 -53.5,22 -29,13 -56,28.5 -27,15.5 -56.5,33.5 -29.5,18 -58,36.5 -28.5,18.5 -50.5,34 -22,15.5 -34,26 -12,10.5 -12,13.5 0,1 0,1 2,3 16,9 14,6 23,10 25,10 38,16.5 13,6.5 13,10.5 0,3 -6,3 -3,0 -12,-1.5 -9,-1.5 -53,-19.5 -26,-9 -32,-9.5 -6,-0.5 -7,-0.5 -10,0 -20,6 -10,7 -14,7 -1,0 -2.5,-1 -1.5,-1 -4.5,-10 -3,-10 -7,-15 -4,-5 -9,-5 -7,0 -23,14.5 -16,14.5 -34,35.5 -18,21 -35.5,45.5 -17.5,24.5 -30.5,49.5 -6,12 -11.5,21.5 -5.5,9.5 -8.5,12 -3,2.5 -6,2.5 -2,0 -5,-1.5 -3,-1.5 -9,-7.5 -7,-7 -20.5,-15.5 -13.5,-8.5 -24.5,-13.5 -27,-14 -27,-22.5 0,-8.5 24,-13.5 14,-2 32.5,-9 18.5,-7 30.5,-13 16,-8 37,-23 21,-15 40.5,-31 19.5,-16 34,-30 14.5,-14 14.5,-18 0,-5 -14.5,-11 -14.5,-6 -37.5,-12 -23,-6 -50,-11 -27,-5 -53,-7 -29,-3 -49.5,-7 -20.5,-4 -20.5,-6 0,0 0,0 0,-4 3,-19 3,-15 8,-35 l 9,-48 42,39 q 17,15 42,33 25,18 44,29 15,7 25.5,11.5 10.5,4.5 16,5 5.5,0.5 8.5,0.5 5,0 11,-1 6,-1 14,-3 16,-5 30,-7.5 14,-2.5 19,-2.5 10,0 26,-9 16,-9 35,-24 24,-19 30,-20.5 6,-1.5 7,-1.5 2,0 2,1 0,3 -8,13 -8,9 -8,13 0,0 0.5,1.5 0.5,1.5 5.5,1.5 8,0 26,-7 18,-7 43,-17.5 25,-10.5 54,-23 29,-12.5 54.5,-24.5 25.5,-12 44.5,-22 19,-10 27,-16 7,-6 7,-9 0,-1 -1,-3 -1,-2 -17,-8 -15,-6 -44.5,-14.5 -29.5,-8.5 -72,-19.5 -42.5,-11 -93,-23 -50.5,-12 -63.5,-15 -25,-6 -40,-6 -11,0 -20,5.5 -9,5.5 -23.5,20.5 -14.5,15 -30,34.5 -15.5,19.5 -27.5,39.5 -16,29 -25.5,34 -9.5,5 -14.5,5 -6,0 -10,-6 -3,-6 -14.5,-15 -11.5,-9 -25.5,-19 -14,-8 -24,-16.5 -10,-8.5 -10,-10.5 0,-3 15.5,-7.5 15.5,-4.5 30.5,-7.5 27,-5 50.5,-13.5 23.5,-8.5 42,-18.5 18.5,-10 28,-18 9.5,-8 9.5,-13 0,-1 -1,-3 -2,-4 -8,-5 -6,-1 -10,-1 -4,0 -9,1 -8,2 -15,2 -12,0 -26,-7 -14,-7 -37,-34 l -25,-26 -37,25 q -15,11 -33,29 -18,18 -29,33 -15,23 -20,26.5 -5,3.5 -9,3.5 -4,0 -9,-3 -6,-4 -15,-4 -6,0 -17.5,3.5 -11.5,3.5 -29.5,16 -18,12.5 -35,30.5 -17,18 -32,44 -8,13 -17,25.5 -9,12.5 -13,13.5 -3,0 -16.5,-11.5 -13.5,-11.5 -28,-26 -14.5,-14.5 -24.5,-27 -10,-12.5 -10,-15.5 0,0 0,0 2,-2 12.5,-2 10.5,0 18.5,2 5,1 11,1 10,0 24.5,-3 14.5,-3 35.5,-11 21,-8 42.5,-19.5 21.5,-11.5 40.5,-24.5 18,-14 19.5,-16.5 1.5,-2.5 1.5,-3.5 0,-5 -9,-15 -10,-11 -10,-18 0,-3 1,-5 1,-2 1,-5 0,-8 -14.5,-22 -14.5,-14 -41,-29.5 -26.5,-15.5 -55.5,-27.5 -29,-12 -51,-12 -14,0 -14,-5 0,-4 10,-18 10,-14 22.5,-30 12.5,-16 23.5,-28.5 11,-12.5 13,-12.5 2,0 5.5,10 3.5,10 5.5,23 2,13 5.5,22.5 3.5,9.5 11,19.5 7.5,10 19.5,23 12,13 31,32 34,32 54,45.5 20,13.5 31,13.5 9,-1 27,-8 18,-7 35.5,-16.5 17.5,-9.5 30,-18 12.5,-8.5 12.5,-12.5 0,-1 0,-1 -1,-13 -26.5,-27.5 -25.5,-14.5 -59.5,-22.5 -19,-5 -32,-10 -13,-5 -13,-8 0,-3 10,-16.5 10,-13.5 22,-28 12,-14.5 23,-26.5 11,-12 14,-12 3,0 6,10.5 3,10.5 4,18.5 3,20 13,37.5 10,17.5 22.5,33.5 12.5,16 25.5,26.5 13,10.5 19,10.5 8,0 28,-16.5 20,-16.5 45,-43.5 18,-19 35,-35.5 17,-16.5 20,-16.5 2,0 3,7 1,7 1,14 0,12 3,23.5 3,11.5 6,19.5 5,7 16.5,21 11.5,14 24,27.5 12.5,13.5 23.5,23.5 11,10 14,10 2,0 22,-13.5 20,-13.5 45,-32.5 27,-21 48,-34 21,-13 28,-13 3,0 3,2 0,3 -10.5,13.5 -10.5,10.5 -49.5,39.5 -37,27 -47,38 -10,11 -10,18 0,7 9.5,17.5 9.5,10.5 52.5,27.5 43,17 117,43 42,15 65,22.5 23,7.5 36,11 13,3.5 21,3.5 1,0 6,-0.5 5,-0.5 14,-4.5 12,-6 14,-10.5 2,-4.5 2,-8.5 0,-8 -3,-21 -2,-14 -7,-36 -5,-22 -9,-36 -9,-31 -9,-44 0,-3 1.5,-7 1.5,-4 7.5,-4 5,0 12,3 8,5 20.5,7 12.5,2 23.5,2 12,0 17.5,2 5.5,2 6,6 0.5,4 0.5,5 0,7 -4.5,21.5 -4.5,14.5 -12.5,34.5 -8,22 -10,33 -2,11 -2,16 0,2 0,3 1,1 5,1 4,0 14,-2 10,-2 29,-12 22,-11 26.5,-16.5 4.5,-5.5 4.5,-12.5 0,-6 -2,-13 -1,-7 -1,-12 0,-5 2.5,-8 2.5,-3 20.5,-3 12,0 26,1.5 14,1.5 25.5,4 11.5,2.5 19,5.5 7.5,3 7.5,6 0,2 -9,8.5 -9,6.5 -22,12.5 -10,5 -16,8.5 -6,3.5 -9,9 -3,5.5 -3.5,15 -0.5,9.5 -0.5,25.5 0,15 0.5,23.5 0.5,8.5 2.5,12.5 2,4 6,4.5 4,0.5 11,0.5 11,-2 14.5,-9 3.5,-7 5.5,-23 3,-22 6,-24 3,-2 5,-2 4,0 11,6 11,10 31.5,14 20.5,4 40.5,5.5 20,1.5 36,1.5 5,0 17,-0.5 12,-0.5 18,-6.5 4,-4 9,-4 3,0 9,2 6,2 11,12 10,23 60,40 21,6 35,9.5 14,3.5 18,3.5 1,0 1,0 2,-3 4.5,-18 2.5,-15 4.5,-29 3,-24 3,-33.5 0,-9.5 -2,-15.5 -2,-6 -7,-9 -5,-3 -11,-6 -14,-5 -37,-8.5 -23,-3.5 -46,-4.5 -23,0 -41,-1.5 -18,-1.5 -20,-3.5 0,0 0,-1 0,-3 3.5,-12.5 3.5,-9.5 10,-21.5 6.5,-12 13,-22 6.5,-10 9.5,-10 2,0 6,6 4,6 6,11 5,11 18.5,20.5 13.5,9.5 29.5,16.5 16,7 27,9.5 11,2.5 16,2.5 5,0 7,-1 3,-2 3,-9 0,-2 -0.5,-7.5 -0.5,-5.5 -5.5,-17.5 -5,-17 -16,-28.5 -11,-11.5 -30.5,-18.5 -19.5,-7 -49,-10 -29.5,-3 -85.5,-3 -26,0 -53.5,-0.5 -27.5,-0.5 -27.5,-2.5 0,-2 10.5,-15 10.5,-13 23.5,-29 17,-22 34,-44.5 17,-22.5 26,-37.5 z m 22,39 q -2,-7 -5,-13 -3,-6 -7,-6 -2,1 -12,13.5 -10,12.5 -21,28 -11,15.5 -20,29 -9,13.5 -9,15.5 0,3 16.5,3.5 16.5,0.5 39.5,2.5 23,0 39,-1 16,-1 16,-2 0,-2 -4,-9.5 -4,-7.5 -10,-15.5 -8,-11 -14.5,-23.5 -6.5,-12.5 -8.5,-21.5 z m -1018,6 q 0,-7 -5,-7 -2,0 -7,1.5 -5,1.5 -15,12.5 -9,11 -9,18 0,11 25,11 13,0 15.5,-2.5 2.5,-2.5 2.5,-5.5 0,-4 -2,-9 0,0 0,-1 0,0 0,0 -1,-1 -1,-2 0,0 0,-1 0,0 0,0 -1,-1 -1,-1 v -1 q 0,-1 -1,-3 -2,-6 -2,-10 z m 220,61 q 1,-1 1,-2 0,-3 -2.5,-9 -2.5,-6 -6.5,-17 l -11,-25 -14,22 q -10,16 -10,20 0,0 0.5,2 0.5,2 15.5,6 10,3 15,3.5 5,0.5 7,0.5 4,0 5,-1 z m -426,-44 q 0,-7 -6,-7 -1,0 -5.5,1 -4.5,1 -12.5,11 -7,9 -7,16 0,3 3.5,9 3.5,6 18.5,6 15,0 15,-11 0,-3 -1,-7 -1,-2 -3,-8 -2,-6 -2,-10 z m 366,76 q 2,-9 2,-14 0,-7 -2,-7.5 -2,-0.5 -3,-0.5 -7,0 -28,16 -16,11 -16.5,13.5 -0.5,2.5 -0.5,3.5 0,5 9,14 11,10 18,10 3,0 8,-4 5,-4 13,-31 z m 101,12 q -10,-8 -18.5,-13 -8.5,-5 -13.5,-5 -3,0 -3,2 0,1 3,4.5 3,3.5 11,10.5 23,17 28,17 5,0 5,-2 0,-3 -12,-14 z m 15,47 q 0,-5 -14,-15 -14,-10 -37,-23 -16,-9 -25.5,-13.5 -9.5,-4.5 -15.5,-4.5 -1,0 -4.5,0.5 -3.5,0.5 -5.5,8.5 -2,8 -3,16 -1,7 -1,13 0,11 5,15 5,4 25,9 19,4 36,4 8,0 24,-2 16,-2 16,-8 z m 431,6 q 5,-13 6.5,-19 1.5,-6 1.5,-9 0,-1 -0.5,-3.5 -0.5,-2.5 -4,-4 -3.5,-1.5 -11.5,-3.5 -4,-1 -8,-1 -19,0 -19,17 0,11 8,29 l 13,28 z m 483,-4 q 3,-4 3,-7 0,-3 -3,-6 -1,0 -2,0 -4,0 -4,8 0,7 3,7 1,0 3,-2 z m -866,15 q -15,-11 -19.5,-12 -4.5,-1 -5.5,-1 -6,0 -11,8 -2,4 -2,7 0,3 4,3 2,0 10,1 8,1 20,4 11,2 13,2 1,0 1.5,0 0.5,0 0.5,0 0,-1 -11,-12 z m 731,-9 q 0,-3 -3,-3 -4,0 -4,3 0,4 4,4 3,0 3,-4 z m -241,20 q 1,-4 1,-7 0,-3 -1,-6 -2,-1 -4,-1 -3,0 -3,6 0,8 6,8 z m -7,63 q 0,-24 -7,-25 -7,-1 -9,-1 -13,0 -41,14 -44,22 -45.5,32 -1.5,10 -1.5,11 0,17 29,27 23,10 31,10 2,0 6,-1 4,-1 4,-13 0,-10 5,-16 5,-6 12,-8 17,-4 17,-30 z m -637,5 q 1,-2 1,-3 0,-3 -4,-3 0,0 -4.5,0.5 -4.5,0.5 -29.5,10.5 -11,2 -22,5.5 -11,3.5 -15,5.5 -7,2 -7,6 0,1 1,3.5 1,2.5 17,14.5 10,7 15.5,10.5 5.5,3.5 9.5,3.5 3,0 8,-3 5,-3 12,-15.5 7,-12.5 18,-35.5 z m 723,16 q 0,-5 -4,-5 -4,0 -4,4 0,5 4,5 4,0 4,-4 z m 117,28 q 3,-10 3,-14.5 0,-4.5 -4,-6.5 -4,-2 -12.5,-2.5 -8.5,-0.5 -23.5,-0.5 -25,1 -50.5,8.5 -25.5,7.5 -45,18 -19.5,10.5 -26.5,19 -7,8.5 -7,13.5 0,5 4,9 1,2 11.5,6.5 10.5,4.5 27,10.5 16.5,6 38,14 21.5,8 44.5,16 24,8 46,16.5 22,8.5 39.5,15 17.5,6.5 28.5,11.5 11,5 13,7 3,2 7,2 6,0 14.5,-5.5 8.5,-5.5 37.5,-34.5 11,-11 19.5,-20 8.5,-9 11.5,-14.5 3,-5.5 3,-8.5 0,-1 -0.5,-3 -0.5,-2 -4.5,-6 -9,-9 -26.5,-17 -17.5,-8 -38,-13 -20.5,-5 -35,-6.5 -14.5,-1.5 -21.5,-1.5 -11,0 -20,2 -18,2 -26,2 -5,0 -7,-1 -2,-1 -2,-5 0,-4 2,-11 z m -331,-20 q 0,-4 -5,-4 -4,0 -4,4 0,4 5,4 4,0 4,-4 z m 366,10 q 2,-2 2,-3 0,-3 -7,-3 -8,0 -8,4 0,1 0,2 4,2 7,2 4,0 6,-2 z m -1233,9 q 0,-5 -15.5,-5 -15.5,0 -30.5,7 -11,4 -11,7 0,0 0.5,1.5 0.5,1.5 12.5,12.5 14,12 17.5,12 3.5,0 13.5,-13 5,-6 9,-12.5 4,-6.5 4,-9.5 z m 1019,18 q 0,-1 0,-1 0,-6 -8,-6 -6,0 -6,3 0,2 1,4 4,1 7,1 3,0 6,-1 z m -1102,61 q 11,-26 17,-28 6,-2 7,-2 7,0 7,12 0,23 29,49.5 29,26.5 81,55.5 14,7 28,14.5 14,7.5 20,8.5 6,1 8,1 6,0 11,-3 5,-3 12,-9 13,-11 20,-11 3,0 5,2 1,1 1,3 0,6 -15,16 -12,9 -12,12 0,0 0.5,2 0.5,2 15.5,14 16,13 16.5,14.5 0.5,1.5 0.5,1.5 0,0 -2,0 -3,0 -11,-2 -5,-1 -13.5,-3.5 -8.5,-2.5 -11.5,-3.5 -4,-1 -8,-1 -8,0 -20,5.5 -12,5.5 -28,19.5 -16,14 -31.5,32.5 -15.5,18.5 -24.5,37.5 -8,20 -15.5,33 -7.5,13 -9.5,13 -3,0 -16,-9 -13,-9 -27,-20 -14,-11 -25.5,-21 -11.5,-10 -11.5,-12 0,-2 6.5,-5 6.5,-3 18.5,-3 10,0 24,-2 14,-2 23,-5 9,-4 27,-15.5 18,-11.5 35.5,-24.5 17.5,-13 31,-24 13.5,-11 13.5,-15 0,-4 -17,-13 -17,-9 -40.5,-18 -23.5,-9 -49,-16 -25.5,-7 -56.5,-9 -8,0 -25,-1 -17,-1 -21,-1 -2,-1 -2,-3 0,-4 8,-14 16,-13 16,-19 0,-3 3.5,-13.5 3.5,-10.5 7.5,-20.5 z m 324,18 q -14,-12 -22.5,-17.5 -8.5,-5.5 -11,-6 -2.5,-0.5 -3.5,-0.5 -3,0 -5.5,4 -2.5,4 -4.5,14 -3,13 -3,20 0,5 3,8.5 3,3.5 34,3.5 h 40 z m -276,36 q 0,-3 -5,-11 -5,-8 -11,-16 -11,-15 -13,-15.5 -2,-0.5 -2,-0.5 -3,0 -6,11 -6,15 -6,22 0,4 2.5,8 2.5,4 20.5,6 8,0 14,-0.5 6,-0.5 6,-3.5 z m 1418,3 q -2,-16 -4.5,-27.5 -2.5,-11.5 -4.5,-11.5 -2,0 -19.5,15.5 -17.5,15.5 -39.5,38.5 l -54,54 69,2 q 23,0 37,-0.5 14,-0.5 20.5,-2 6.5,-1.5 7,-3.5 0.5,-2 0.5,-3 0,-2 -1,-5 -2,-6 -5.5,-22.5 -3.5,-16.5 -5.5,-34.5 z m -865,17 q 27,-23 27,-28 0,-1 -0.5,-1 -0.5,0 -2.5,0 -7,0 -32,9 -40,14 -51.5,25 -11.5,11 -11.5,17 0,4 4,8 5,4 12,4 5,0 16,-5.5 11,-5.5 39,-28.5 z m -81,-1 q 0,-4 -6,-4 -5,0 -8,2.5 -3,2.5 -3,6.5 0,4 2,4.5 2,0.5 3,0.5 2,0 5,-1 7,-4 7,-9 z m -154,175 q 8,-17 10,-23 2,-6 2,-8 0,-1 -1,-1 0,0 -1,0 -5,1 -17,5.5 -12,4.5 -24,10 -12,5.5 -21,10.5 -9,5 -9,7 0,3 7,7.5 7,4.5 16,9 9,4.5 15,6.5 6,2 8,2 2,0 2,-1 2,-1 6,-10 4,-9 7,-15 z m -283,-10 q 0,-8 -5,-11 -5,-3 -9,-3.5 -4,-0.5 -6,-0.5 -4,0 -9.5,1.5 -5.5,1.5 -8.5,5.5 -1,2 -1,5 0,2 2.5,6 2.5,4 8.5,7.5 6,3.5 10.5,4.5 4.5,1 6.5,1 3,0 6,-2 5,-4 5,-14 z"
     id="path1" />
</svg>
