<?xml version="1.0" encoding="UTF-8" standalone="no"?>
<svg
   width="2000"
   height="2000"
   version="1.1"
   id="svg1"
   sodipodi:docname="u1222F.svg"
   inkscape:version="1.3.2 (091e20e, 2023-11-25)"
   xmlns:inkscape="http://www.inkscape.org/namespaces/inkscape"
   xmlns:sodipodi="http://sodipodi.sourceforge.net/DTD/sodipodi-0.dtd"
   xmlns="http://www.w3.org/2000/svg"
   xmlns:svg="http://www.w3.org/2000/svg">
  <defs
     id="defs1" />
  <sodipodi:namedview
     id="namedview1"
     pagecolor="#505050"
     bordercolor="#eeeeee"
     borderopacity="1"
     inkscape:showpageshadow="0"
     inkscape:pageopacity="0"
     inkscape:pagecheckerboard="0"
     inkscape:deskcolor="#505050"
     inkscape:zoom="0.379"
     inkscape:cx="1000"
     inkscape:cy="998.68074"
     inkscape:window-width="1392"
     inkscape:window-height="1212"
     inkscape:window-x="0"
     inkscape:window-y="0"
     inkscape:window-maximized="0"
     inkscape:current-layer="svg1" />
  <path
     d="m 1078,706 q 30,-30 52.5,-51 22.5,-21 24.5,-21 2,0 3.5,14 1.5,14 1.5,29 0,24 4,45 4,21 9,31 11,21 70,70.5 59,49.5 156,119.5 l 67,50 -26,13 q -11,5 -38,16 -27,11 -50,20 -56,22 -110,47.5 -54,25.5 -102.5,52 -48.5,26.5 -88,52.5 -39.5,26 -61.5,46 -14,12 -25.5,26 -11.5,14 -20.5,29 -9,15 -14,28.5 -5,13.5 -5,28.5 0,14 -3,14 -2,0 -8,-8.5 -6,-8.5 -17,-46.5 -5,-23 -15,-51.5 -10,-28.5 -23,-61.5 -5,-11 -9.5,-24 -4.5,-13 -4.5,-19 0,-1 0.5,-5 0.5,-4 6.5,-5 6,-1 13,-1 4,0 10,0 l 30,3 5,-154 -52,5 q -18,2 -43.5,6.5 -25.5,4.5 -55,10.5 -29.5,6 -59,13 -29.5,7 -55.5,14 -26,7 -45,13 -19,6 -30,12 -13,7 -24,7 -3,0 -7.5,-1 -4.5,-1 -4.5,-6 0,-3 4,-9 8,-10 14.5,-27.5 6.5,-17.5 11,-38.5 4.5,-21 6,-37.5 1.5,-16.5 1.5,-26.5 0,-11 -1,-20 l -5,-52 30,29 q 18,18 37,31 19,13 44,22 25,9 56,15 31,6 73,10 39,5 57,5.5 18,0.5 23,0.5 20,0 24,-3 3,-3 3,-15 0,-3 -0.5,-14 -0.5,-11 -7,-34.5 Q 898,879 887,853 876,827 860,802 854,792 848.5,782 843,772 843,770 q 0,-1 24,-1 24,0 58,2 l 81,5 z m 69,4 q 0,-10 -2.5,-19 -2.5,-9 -4.5,-11 0,0 -1,0 -4,0 -19.5,12.5 -15.5,12.5 -33,30.5 -17.5,18 -30,32.5 -12.5,14.5 -12.5,18.5 0,1 1,2 2,2 12.5,4 10.5,2 21.5,2 12,0 29.5,2.5 17.5,2.5 30.5,7.5 14,4 21.5,5 7.5,1 10.5,1 4,0 5,-1 1,-1 1,-2 0,-3 -3,-11 -3,-8 -9,-17 -9,-14 -13.5,-29.5 Q 1147,722 1147,710 Z m -190,85 q -2,-2 -15,-4 -13,-2 -27.5,-3 -14.5,-1 -26.5,-1 -12,0 -12,2 0,2 6,15.5 6,13.5 14,30.5 13,26 16,29.5 3,3.5 4,3.5 3,0 6,-8 2,-7 8.5,-18.5 Q 937,830 944,820 q 6,-10 10,-16 4,-6 4,-8 0,-1 -1,-1 z m 205,18 q -21,-5 -55,-11 -34,-6 -60,-9 l -63,-5 -24,37 q -9,14 -16.5,35 -7.5,21 -12,41.5 -4.5,20.5 -5,31 -0.5,10.5 -0.5,13.5 0,12 2,15 5,8 40.5,8.5 35.5,0.5 61.5,0.5 52,0 137,-1 30,-1 59.5,-1.5 29.5,-0.5 46.5,-0.5 17,0 39,0.5 22,0.5 39,1.5 17,1 17,2 0,3 -17.5,5.5 -17.5,2.5 -39.5,2.5 -14,0 -37.5,1 -23.5,1 -53.5,2 -30,1 -64,2 -34,1 -67,2 l -160,5 v 164 l 53,-2 q 29,-1 53,-4 24,-3 50.5,-10.5 26.5,-7.5 57.5,-20.5 31,-13 69,-31 24,-11 47,-21.5 23,-10.5 44.5,-19.5 21.5,-9 40.5,-17 19,-8 39,-16 16,-6 33.5,-13 17.5,-7 17.5,-8 0,-1 -8.5,-8 -8.5,-7 -23.5,-18 -15,-11 -34.5,-26 -19.5,-15 -43.5,-33 -31,-23 -54,-39.5 -23,-16.5 -41,-27 -18,-10.5 -33,-16.5 -15,-6 -34,-11 z M 619,926 q -17,-12 -24,-12 0,0 -3,1 -3,1 -3,21 0,16 -3.5,34.5 -3.5,18.5 -11.5,41.5 -2,6 -5,15 -3,9 -3,12 0,2 1,2 1,1 3,1 6,0 25.5,-4.5 19.5,-4.5 52.5,-12.5 15,-4 32.5,-8 17.5,-4 33,-8 15.5,-4 29,-6.5 13.5,-2.5 21.5,-3.5 41,-6 41,-12 0,0 -0.5,-3.5 Q 804,980 762,975 717,970 682,958 647,946 619,926 Z m 379,243 q -10,0 -21,0 -15,0 -38,-1 -23,-1 -45,-5 -14,-3 -20,-3 -2,0 -3.5,0.5 -1.5,0.5 -1.5,6.5 0,4 1,10 3,11 10,31.5 7,20.5 15,40.5 8,20 14.5,34.5 6.5,14.5 7.5,14.5 2,0 8.5,-8.5 6.5,-8.5 11.5,-15.5 11,-17 31,-36 20,-19 41,-35 l 50,-37 z"
     id="path1" />
</svg>
