<?xml version="1.0" encoding="UTF-8" standalone="no"?>
<svg
   width="2000"
   height="2000"
   version="1.1"
   id="svg1"
   sodipodi:docname="u122D4.svg"
   inkscape:version="1.3.2 (091e20e, 2023-11-25)"
   xmlns:inkscape="http://www.inkscape.org/namespaces/inkscape"
   xmlns:sodipodi="http://sodipodi.sourceforge.net/DTD/sodipodi-0.dtd"
   xmlns="http://www.w3.org/2000/svg"
   xmlns:svg="http://www.w3.org/2000/svg">
  <defs
     id="defs1" />
  <sodipodi:namedview
     id="namedview1"
     pagecolor="#505050"
     bordercolor="#eeeeee"
     borderopacity="1"
     inkscape:showpageshadow="0"
     inkscape:pageopacity="0"
     inkscape:pagecheckerboard="0"
     inkscape:deskcolor="#505050"
     inkscape:zoom="0.379"
     inkscape:cx="1000"
     inkscape:cy="998.68074"
     inkscape:window-width="1392"
     inkscape:window-height="1212"
     inkscape:window-x="0"
     inkscape:window-y="0"
     inkscape:window-maximized="0"
     inkscape:current-layer="svg1" />
  <path
     d="m 872,635.5 q 0,-4 8,-4 5,0 15,2 9,3 38.5,5.5 29.5,2.5 56.5,4.5 36,2 59,5.5 23,3.5 23,6.5 0,2 -11,7.5 -11,5.5 -24,9.5 -19,6 -31.5,14.5 -12.5,8.5 -20.5,21 -8,12.5 -13,30.5 -5,18 -7,43 l -4,54 60,38 q 25,16 38.5,23.5 13.5,7.5 24.5,7.5 1,0 7.5,-0.5 6.5,-0.5 18,-11 11.5,-10.5 24.5,-23.5 21,-21 31.5,-28 10.5,-7 13.5,-7 1,0 1,0 1,0 1,2 0,4 -4.5,16 -4.5,12 -16.5,34 -13,23 -17,34.5 -4,11.5 -4,20.5 0,6 2,13 2,10 9,25 7,15 17,31 10,16 22,30.5 12,14.5 21,23.5 8,8 13.5,16 5.5,8 5.5,12 0,3 -2,3 -3,0 -15,-10 -12,-10 -42,-41 -11,-11 -22.5,-22 -11.5,-11 -20.5,-17.5 -9,-6.5 -18,-9.5 -9,-3 -23,-5 -16,-2 -28.5,-2.5 -12.5,-0.5 -18.5,-0.5 -11,0 -18,1 -9,1 -14,1 -10,0 -10,-4 0,0 1,-4 1,-4 32,-29 15,-11 20,-16.5 5,-5.5 5,-9.5 0,-2 -2.5,-5 -2.5,-3 -17.5,-6.5 -15,-3.5 -38,-6.5 -22,-3 -34,-3 -6,0 -13.5,1.5 -7.5,1.5 -19.5,13.5 -7,6 -14,11 -7,5 -9,5 -4,0 -10,8.5 -6,8.5 -11,21.5 -7,14 -8.5,20 -1.5,6 -1.5,8 0,6 4,12 4,6 16,13 12,7 30,16 20,9 30.5,15.5 10.5,6.5 10.5,8.5 0,1 0,1 -2,2 -10.5,2.5 -8.5,0.5 -13.5,0.5 -10,0 -21,-1 -9,-1 -15,-1 -4,0 -9.5,0.5 -5.5,0.5 -12.5,3.5 -7,3 -13.5,9 -6.5,6 -14.5,15 -12,15 -27,39.5 -15,24.5 -28,51.5 -8,17 -16,30.5 -8,13.5 -12,13.5 -1,0 -1,0 -2,-1 -2,-5 0,-5 5.5,-21 5.5,-16 18.5,-44 17,-36 19.5,-46 2.5,-10 2.5,-15 0,-7 -3,-12 -6,-7 -6,-13 0,-4 3,-8 4,-5 4.5,-11.5 0.5,-6.5 0.5,-8.5 0,-8 -1.5,-18.5 -1.5,-10.5 -4.5,-22.5 -3,-12 -8,-20 -3,-5 -3,-8 0,-4 4,-4.5 4,-0.5 6,-0.5 8,0 18,7 6,6 13.5,10 7.5,4 10.5,4 5,0 16,-18.5 11,-18.5 23,-46.5 7,-17 11.5,-31 4.5,-14 7,-25 2.5,-11 2.5,-20 0,-9 -2,-21 -2,-11 -2,-18 0,-8 2,-9.5 2,-1.5 3,-1.5 6,0 18,11 10,10 14,10 1,0 2,-2 1,-2 1,-26 0,-23 -2,-37 -2,-14 -7.5,-26 -5.5,-12 -14,-24 -8.5,-12 -23.5,-29 -10,-12 -19,-23 -9,-11 -9,-15 z m 122,31 q 0,-2 -11,-3 h -1 q -2,0 -3,0 h -1 q -4,-1 -8,-1 h -1 q -2,0 -4,-1 -2,0 -4,0 -14,-2 -22,-2 -14,0 -15.5,3 -1.5,3 -1.5,5 0,8 16,27 l 17,20 19,-24 q 9,-9 14.5,-16 5.5,-7 5.5,-8 z m -24,194 q -13,-10 -23,-16.5 -10,-6.5 -12,-6.5 -1,0 -3,7 -2,7 -4.5,16.5 -2.5,9.5 -4,19 -1.5,9.5 -1.5,13.5 0,6 6,6 6,0 14,-3 10,-4 18.5,-4.5 8.5,-0.5 11.5,-0.5 11,0 22,2 6,1 10,1 5,0 5,-2 0,-1 -1.5,-4 -1.5,-3 -37.5,-28 z m 156,83 q 0,-16 -2,-28 -2,-12 -7,-12 -5,0 -5,11 0,7 -2.5,10.5 -2.5,3.5 -7.5,3.5 -6,0 -16,6 -10,6 -20,14 l -23,19 83,15 z m -230,95 -67,-44 6,39 q 2,17 4,29 2,12 3,12 4,-2 9,-5 4,-2 8.5,-5.5 4.5,-3.5 9.5,-6.5 z m -7,61 q 0,-3 15,-3 2,0 13.5,0.5 11.5,0.5 40.5,4.5 28,2 63,4 35,2 58,2 20,0 35,1.5 15,1.5 15,2.5 0,4 -15,10 -15,6 -26,10 -34,13 -49,23 -15,10 -23.5,26 -8.5,16 -12,41.5 -3.5,25.5 -5.5,65.5 -1,34 -4.5,57.5 -3.5,23.5 -6.5,23.5 -3,0 -5,-22.5 -2,-22.5 -2,-60.5 0,-20 -0.5,-36.5 -0.5,-16.5 -3,-28.5 -2.5,-12 -7,-21.5 -4.5,-9.5 -13.5,-22.5 -10,-15 -23.5,-31 -13.5,-16 -24.5,-25 -7,-6 -13,-12.5 -6,-6.5 -6,-8.5 z m 148,26 q -1,-2 -17,-4 -16,-2 -34,-3.5 -18,-1.5 -27,-2 -9,-0.5 -11,-0.5 -10,0 -10,2 0,2 6.5,11.5 6.5,9.5 14.5,23.5 16,23 24,29 8,6 11,6 3,0 3,-5 0,-7 6,-15 6,-8 18,-21 6,-6 11.5,-12 5.5,-6 5.5,-8 0,-1 -1,-1 z"
     id="path1" />
</svg>
