<?xml version="1.0" encoding="UTF-8" standalone="no"?>
<svg
   width="2000"
   height="2000"
   version="1.1"
   id="svg1"
   sodipodi:docname="u12226.svg"
   inkscape:version="1.3.2 (091e20e, 2023-11-25)"
   xmlns:inkscape="http://www.inkscape.org/namespaces/inkscape"
   xmlns:sodipodi="http://sodipodi.sourceforge.net/DTD/sodipodi-0.dtd"
   xmlns="http://www.w3.org/2000/svg"
   xmlns:svg="http://www.w3.org/2000/svg">
  <defs
     id="defs1" />
  <sodipodi:namedview
     id="namedview1"
     pagecolor="#505050"
     bordercolor="#eeeeee"
     borderopacity="1"
     inkscape:showpageshadow="0"
     inkscape:pageopacity="0"
     inkscape:pagecheckerboard="0"
     inkscape:deskcolor="#505050"
     inkscape:zoom="0.379"
     inkscape:cx="1000"
     inkscape:cy="998.68074"
     inkscape:window-width="1392"
     inkscape:window-height="1212"
     inkscape:window-x="0"
     inkscape:window-y="0"
     inkscape:window-maximized="0"
     inkscape:current-layer="svg1" />
  <path
     d="m 887,638 q 0,-3 6.5,-3 6.5,0 12.5,2 12,5 46.5,7 34.5,2 73.5,2 11,0 22,0 26,0 49.5,2 23.5,2 23.5,6 0,2 -7,12.5 -7,10.5 -19,22.5 -17,19 -30,40 -13,21 -21,46.5 -8,25.5 -12.5,56.5 -4.5,31 -5.5,71 l -4,100 52,2 q 11,0 26,0.5 15,0.5 26,0.5 11,0 29.5,-0.5 18.5,-0.5 46,-1 27.5,-0.5 54.5,-1.5 68,0 98.5,2 30.5,2 30.5,7 0,6 -43,7.5 -43,1.5 -137,3.5 l -182,3 v 168 q 0,79 -2,125 -2,46 -7,46 -5,0 -7.5,-46.5 Q 1004,1272 1002,1195 l -3,-166 -48,1 q -24,1 -55,6 -31,5 -65.5,13.5 -34.5,8.5 -69.5,20 -35,11.5 -68,25.5 -29,11 -47,16.5 -18,5.5 -24,5.5 -4,0 -6,-2 -1,-1 -1,-3 0,-4 5,-13 8,-15 10.5,-43.5 2.5,-28.5 2.5,-64.5 0,-56 4.5,-65 4.5,-9 8.5,-9 5,0 12,8 9,10 29.5,22 20.5,12 48.5,24 18,8 33.5,13.5 15.5,5.5 33.5,9 18,3.5 40.5,5.5 22.5,2 56.5,3 l 101,3 -2,-52 Q 998,929 990.5,896.5 983,864 971,829.5 959,795 945,761 931,727 912,692 904,677 895.5,659 887,641 887,638 Z m 195,32 q 0,-1 -23,-2 -23,-1 -55,-2 -32,0 -55,2 -23,2 -23,4 0,2 5,13.5 5,11.5 14,25.5 7,14 17.5,39.5 10.5,25.5 15.5,45.5 8,22 14,36.5 6,14.5 7,14.5 2,0 7.5,-14.5 5.5,-14.5 10.5,-36.5 7,-20 18.5,-46 11.5,-26 25.5,-46 7,-9 14,-20.5 7,-11.5 7,-13.5 z M 716,984 q -24,-11 -41.5,-20 -17.5,-9 -18.5,-9 -2,0 -2.5,18.5 -0.5,18.5 -0.5,36.5 0,34 2,52.5 2,18.5 6,18.5 3,0 25,-6.5 22,-6.5 49,-17.5 29,-9 55,-16.5 26,-7.5 38,-7.5 8,0 8.5,-1.5 0.5,-1.5 0.5,-1.5 0,-2 -9,-7 -5,-4 -15,-6.5 -10,-2.5 -16,-2.5 -12,0 -35,-9 -23,-9 -46,-21 z"
     id="path1" />
</svg>
