<?xml version="1.0" encoding="UTF-8" standalone="no"?>
<svg
   width="2000"
   height="2000"
   version="1.1"
   id="svg1"
   sodipodi:docname="u122DC.svg"
   inkscape:version="1.3.2 (091e20e, 2023-11-25)"
   xmlns:inkscape="http://www.inkscape.org/namespaces/inkscape"
   xmlns:sodipodi="http://sodipodi.sourceforge.net/DTD/sodipodi-0.dtd"
   xmlns="http://www.w3.org/2000/svg"
   xmlns:svg="http://www.w3.org/2000/svg">
  <defs
     id="defs1" />
  <sodipodi:namedview
     id="namedview1"
     pagecolor="#505050"
     bordercolor="#eeeeee"
     borderopacity="1"
     inkscape:showpageshadow="0"
     inkscape:pageopacity="0"
     inkscape:pagecheckerboard="0"
     inkscape:deskcolor="#505050"
     inkscape:zoom="0.379"
     inkscape:cx="1000"
     inkscape:cy="998.68074"
     inkscape:window-width="1392"
     inkscape:window-height="1212"
     inkscape:window-x="0"
     inkscape:window-y="0"
     inkscape:window-maximized="0"
     inkscape:current-layer="svg1" />
  <path
     d="m 1127,666 q -15,-14 -15,-21 0,-8 16,-8 10,0 25,3 29,7 59,7 3,0 21.5,-0.5 18.5,-0.5 42.5,-9.5 12,-3 21,-6 2,0 4,0 5,0 6,2 1,1 1,3 0,5 -4,15 -6,16 -18,36 -24,45 -37,69 -14,25 -18,54 -5,26 -5,62 0,7 0,13 0,46 2,105 0,52 0,92 0,60 -1,103 -1,43 -5,43 -5,0 -8,-51 -3,-49 -6,-138 0,-39 -1,-78 -2,-37 -3,-70 -3,-32 -4.5,-56 -1.5,-24 -4.5,-42 -8,-31 -26,-69 -18,-36 -42,-58 z m 26,-3 q 0,3 6,12 6,9 10,16 12,17 20,32 7,16 12,31 1,8 4,17 2,9 3,10 1,1 2,1 3,0 12.5,-14.5 9.5,-14.5 21.5,-37.5 12,-21 22.5,-42 10.5,-21 10.5,-25 0,-5 -18,-6.5 -18,-1.5 -42,-1.5 -27,0 -45,2 -19,3 -19,6 z M 692,781 q 0,-90 6,-108 2,-9 6,-9 5,0 11,11 15,21 54,40 39,21 75,32 34,10 75,13 39,3 111,3 63,0 97.5,2.5 34.5,2.5 34.5,6.5 0,3 -31.5,5.5 -31.5,2.5 -82.5,2.5 -141,0 -216,16 -77,18 -111,59 l -3,3 q 0,0 0,0 l -23,22 q -1,0 -2,-31.5 -1,-31.5 -1,-67.5 z m 21,48 27,-16 q 12,-8 33,-15 20,-6 45,-12 11,-3 24,-8 12,-3 12,-6 0,-3 -10.5,-7.5 Q 833,760 820,756 q -17,-5 -36,-14 -21,-9 -35,-16 l -36,-21 z m 47,509 q -2,-32 -2,-116 0,0 0,-1 v -2 q 0,0 0,0 v -1 q 0,-1 0,-1 v -3 q 0,0 0,-1 v -1 q 0,0 0,-1 v -26 q 0,-32 2,-32 3,3 7,6 l 17,17 q 10,9 29.5,19.5 19.5,10.5 39,19.5 19.5,9 36.5,13 9,3 14,3 3,0 4,-1 3,-3 4,-32 1,-18 1,-40 0,-11 -0.5,-35 -0.5,-24 -2.5,-60 -2,-36 -8,-63 -18,-78 -68,-100 -11,-5 -11,-10 0,-3 5,-5 12,-5 86,-8 22,-1 49,-2 27,-1 33,-2 2,0 3,0 5,0 5.5,3 0.5,3 0.5,3 0,7 -9,13 l -16,20 q 0,0 0,0 l 44,11 q 5,1 18,1.5 13,0.5 30.5,1 17.5,0.5 36.5,0.5 19,0 35,0.5 16,0.5 26.5,1.5 10.5,1 10.5,3 0,2 -16.5,2.5 -16.5,0.5 -28.5,0.5 -12,0 -32.5,-0.5 Q 1082,933 1058,933 h -1 q -1,0 -2,0 h -2 q -1,0 -1,0 h -3 q -2,0 -4,0 h -1 q 0,0 -1,0 h -1 q -2,0 -4,0 h -6 q 0,0 0,0 h -1 l -54,8 q -1,0 -1,0 -1,0 -1,-1 0,-2 1.5,-6 1.5,-4 1.5,-8 0,-4 -1,-10 -1,0 -1,-1 l -54,76 4,128 5,124 30,8 q 12,3 45,3.5 33,0.5 50,0.5 35,0 73,-1 57,0 103,1 45,2 54,5 3,1 3,2 0,3 -28,5 -38,3 -129,6 -171,3 -255,23 -86,19 -102,55 -5,18 -9,18 -6,0 -6,-31 z m 109,-441 17,22 q 7,11 13,21 5,11 8,18 2,8 6,8 1,0 3,-2 4,-3 21,-25 12,-14 19,-26 6,-10 6,-12 0,-3 -13.5,-3.5 Q 935,897 916,897 Z m 122,26 v 7 l 16,-2 z m -14,40 q -1,-1 -1,-2 0,-3 6,-3 6,0 16,2 9,3 20,6 h 1 q 2,0 5,0 h 4 q 0,0 1,0 h 2 q 0,0 1,0 h 5 q 0,0 1,0 h 2 q 1,0 1,0 h 31 q 3,0 6,0 h 4 q 1,0 2,0 h 2 q 1,0 1,0 h 6 q 0,0 1,0 h 2 q 1,0 2,0 h 29 q 3,0 5,0 h 4 q 1,0 2,0 h 1 q 1,0 1,0 h 5 q 0,0 1,0 h 1 q 1,0 2,0 h 20 q 17,1 17,4 0,2 -24,2.5 -24,0.5 -54,0.5 -2,0 -3,0 h -2 q -1,0 -2,0 h -10 q -1,0 -2,0 h -10 q -1,0 -2,0 h -28 q -27,0 -31,2 l -39,10 q -1,1 -1,1 0,0 0,-1 0,-1 1,-3 1,-2 1,-4 0,-3 -1,-6 0,-3 -2,-9 z m 21,7 -10,-1 v 6 z m -18,65 q 0,0 -1,0 -1,0 -1,-1 0,-2 1,-5 1,-6 1,-11 0,-4 -1,-7 -1,-3 -1,-4 0,-1 1,-1 0,0 1,0 l 41,11 q 7,1 34,1 h 5 q 2,0 5,0 h 4 q 1,0 2,0 h 2 q 1,0 1,0 h 2 q 1,0 2,0 h 24 q 1,0 2,0 h 4 q 1,0 2,0 h 6 q 2,0 5,0 h 4 q 1,0 3,0 h 1 q 1,0 2,0 h 2 q 0,0 1,0 h 22 q 1,0 2,0 h 3 q 1,0 2,0 23,2 23,3 0,2 -23,3 -24,2 -52,2 h -2 q -1,0 -2,0 h -6 q -1,0 -1,0 h -2 q -1,0 -2,0 h -2 q -1,0 -2,0 h -1 q -1,0 -2,0 h -2 q -1,0 -2,0 h -31 q -27,0 -35,1 z m 20,-15 -12,-2 v 6 z m -15,61 q -3,1 -5,1 -2,0 -2,-2 0,-1 2,-4.5 2,-3.5 2,-7.5 0,-6 -3,-12 -1,-2 -1,-3 0,-1 0,-1 1,0 2,1 l 42,12 q 9,1 34.5,2 25.5,1 54.5,1 h 1 q 3,0 6,0 h 7 q 3,0 6,0 h 3 q 1,0 2,0 h 17 q 1,0 1,0 h 6 q 21,0 21,3 0,1 -22.5,2.5 -22.5,1.5 -49.5,1.5 h -2 q -1,0 -2,0 h -7 q -1,0 -2,0 h -2 q 0,0 -1,0 h -8 q -1,0 -1,0 h -27 q 0,0 -1,0 h -6 q 0,0 -1,0 h -1 q 0,0 -1,0 h -5 q 0,0 0,0 h -7 q 0,0 0,0 h -1 q 0,0 -1,0 0,0 0,0 h -2 q -1,0 -1,0 h -14 q -19,2 -31,6 z m 18,-13 -12,-3 v 7 z m -24,36 q 0,-2 0,-3 0,-3 3,-3 3,0 10,3 15,7 65,7 0,0 1,0 h 3 q 1,0 1,0 h 1 q 0,0 1,0 1,0 1,0 h 23 q 4,0 8,0 h 7 q 1,0 2,0 h 1 q 1,0 2,0 h 1 q 1,0 2,0 h 25 q 3,0 7,0 h 6 q 0,0 1,0 h 1 q 1,0 1,0 h 2 q 0,0 1,0 h 17 q 14,2 14,5 0,1 -14,1 -15,2 -37.5,2.5 -22.5,0.5 -47.5,0.5 -2,0 -3,0 h -9 q -1,0 -2,0 h -1 q -1,0 -2,0 h -5 q 0,0 -1,0 h -28 q -33,0 -45,5 -9,4 -12,4 -2,0 -2,-1 0,-2 2,-9 1,-3 1,-6 0,-3 -1,-6 z m 9,4 v 8 l 12,-5 z m 7,68 q -6,4 -10,4 -3,0 -3,-5 0,-2 0,-4 1,-4 1,-7 0,-4 -1,-8 -3,-6 -3,-7 0,-1 2,-1 5,0 22.5,5 17.5,5 53.5,5 0,0 0,0 1,0 2,0 0,0 0,0 h 1 q 0,0 1,0 1,0 1,0 h 1 q 0,0 1,0 1,0 1,0 h 14 q 1,0 2,0 h 6 q 25,0 47.5,0.5 22.5,0.5 37.5,0.5 14,2 14,3 0,2 -15,3.5 -15,1.5 -38,1.5 -24,1 -51,1 h -2 q 0,0 -1,0 0,0 -1,0 h -2 q -1,0 -1,0 h -4 q -1,0 -2,0 h -11 q -2,0 -3,0 h -22 q -1,0 -2,0 -21,0 -36,8 z m 9,-14 -16,-3 v 9 z m -6,63 q -8,2 -12,2 -4,0 -4,-3 0,-1 0,-2 1,-3 1,-6 0,-3 -1,-6 -3,-4 -3,-9 0,-6 8,-6 5,0 14,3 21,9 65,9 0,0 1,0 h 1 q 1,0 1,0 h 1 q 1,0 1,0 h 1 q 2,0 4,0 h 1 q 0,0 1,0 h 1 q 1,0 1,0 h 1 q 1,0 1,0 h 23 q 22,2 40,2.5 18,0.5 30,2.5 11,1 11,3 0,4 -30,4 h -7 q -1,0 -2,0 h -8 q -2,0 -4,0 h -2 q -1,0 -2,0 h -2 q -1,0 -2,0 h -3 q -1,0 -2,0 h -43 q -61,0 -81,6 z m -219,-28 v 61 q 0,47 3,53 1,3 4,3 3,0 8,-3 11,-8 35,-15 22,-8 51,-15 22,-6 39,-12 13,-4 13,-7 0,-1 -1,-1 -3,-3 -18,-9 -15,-4 -35,-10 -18,-6 -39,-15 -21,-8 -33,-15 z m 212,10 v 11 l 16,-8 z"
     id="path1" />
</svg>
