<?xml version="1.0" encoding="UTF-8" standalone="no"?>
<svg
   width="2000"
   height="2000"
   version="1.1"
   id="svg1"
   sodipodi:docname="u122B2.svg"
   inkscape:version="1.3.2 (091e20e, 2023-11-25)"
   xmlns:inkscape="http://www.inkscape.org/namespaces/inkscape"
   xmlns:sodipodi="http://sodipodi.sourceforge.net/DTD/sodipodi-0.dtd"
   xmlns="http://www.w3.org/2000/svg"
   xmlns:svg="http://www.w3.org/2000/svg">
  <defs
     id="defs1" />
  <sodipodi:namedview
     id="namedview1"
     pagecolor="#505050"
     bordercolor="#eeeeee"
     borderopacity="1"
     inkscape:showpageshadow="0"
     inkscape:pageopacity="0"
     inkscape:pagecheckerboard="0"
     inkscape:deskcolor="#505050"
     inkscape:zoom="0.379"
     inkscape:cx="1000"
     inkscape:cy="998.68074"
     inkscape:window-width="1392"
     inkscape:window-height="1212"
     inkscape:window-x="0"
     inkscape:window-y="0"
     inkscape:window-maximized="0"
     inkscape:current-layer="svg1" />
  <path
     d="m 788,679.5 q 3,-19 5.5,-31.5 2.5,-12.5 4.5,-12.5 2,0 8,6 6,6 10,11 12,15 39,31.5 27,16.5 61,33 34,16.5 69,29 35,12.5 61,17.5 17,3 34,4 17,1 26,1 12,0 21,-1 6,-1 12,-1 4,0 11,1 7,1 8,4 2,4 23.5,10 21.5,6 50.5,11 28,6 48.5,12.5 20.5,6.5 20.5,11.5 0,1 -1,3 -1,2 -6,2 -1,0 -6,-0.5 -5,-0.5 -21.5,-4 -16.5,-3.5 -33.5,-6.5 -50,-10 -62,-10.5 -12,-0.5 -15,-0.5 -14,0 -17,4 -4,4 -12.5,23.5 -8.5,19.5 -17,42.5 -8.5,23 -14.5,44.5 -6,21.5 -6,30.5 0,10 6,20.5 6,10.5 16.5,19 10.5,8.5 24,15 13.5,6.5 32.5,10.5 12,2 19,2 3,0 7.5,-1 4.5,-1 4.5,-9 0,-7 -4,-17 -4,-10 -11,-20 -4,-6 -7,-11.5 -3,-5.5 -3,-7.5 0,-1 1,-1 0,0 2,0 4,0 16.5,1.5 12.5,1.5 30,4.5 17.5,3 33,6.5 15.5,3.5 17.5,4.5 1,1 1,2 0,3 -4,10 -4,7 -12,17 -7,11 -10.5,20 -3.5,9 -3.5,13 0,1 0,2 1,1 1,4 0,2 -1.5,7.5 -1.5,5.5 -6.5,10.5 -7,6 -10.5,21 -3.5,15 -3.5,41 0,11 0.5,20.5 0.5,9.5 3.5,15 3,5.5 8,7 5,1.5 13,3.5 26,5 26,14 0,5 -11,5 -7,0 -19,-2 -11,-2 -17,-2 -6,0 -8.5,2.5 -2.5,2.5 -2.5,18.5 0,14 -3,21.5 -3,7.5 -6,7.5 -4,0 -6.5,-9 -2.5,-9 -2.5,-21 v -32 l -54,5 q -24,1 -44,5.5 -20,4.5 -26,9.5 -4,4 -7,12.5 -3,8.5 -3.5,14 -0.5,5.5 -0.5,8.5 0,5 1.5,11 1.5,6 5.5,9 5,2 7,6 2,4 2,8 0,5 -3,5 -1,0 -2,0 -1,0 -2,0 -5,0 -8.5,14 -3.5,14 -5.5,38 -2,26 -6.5,43 -4.5,17 -8.5,17 -3,0 -3.5,-9 -0.5,-9 -0.5,-13 0,-14 3,-37 2,-25 2.5,-32 0.5,-7 0.5,-8 0,-11 -8.5,-17.5 -8.5,-6.5 -33,-11 -24.5,-4.5 -49.5,-9.5 -87,-15 -142,-19 -55,-4 -97,-4 -13,0 -46,1 -33,1 -69,8 -36,7 -51,25 -5,6 -9,6 -3,0 -3.5,-4 -0.5,-4 -0.5,-7 0,-13 8,-36 8,-22 12,-47.5 4,-25.5 6,-42.5 0,-23 2.5,-31.5 2.5,-8.5 12.5,-8.5 10,0 10,7 0,6 12,16 12,10 27,19.5 15,9.5 27,15.5 12,6 16,6 1,0 2,0 5,-3 8.5,-30 3.5,-27 5,-59 1.5,-32 1.5,-60 0,-9 -0.5,-32.5 -0.5,-23.5 -3.5,-47.5 -5,-26 -12,-49 -7,-23 -19,-40 -4,-6 -8,-12.5 -4,-6.5 -4,-8.5 0,-1 1,-1 1,-1 6,-1 5,0 17,1 12,1 34,6 32,5 44,5 12,0 18,-10 7,-11 15,-43.5 8,-32.5 13,-69.5 z m 106,49 Q 869,714.5 848.5,703 828,691.5 822,686.5 q -4,-3 -6,-3 -3,0 -6,4 -3,4 -10,29 -4,18 -5.5,27.5 -1.5,9.5 -1.5,14.5 0,2 0.5,5.5 0.5,3.5 4,4 3.5,0.5 4.5,0.5 5,0 15,-2 8,-1 31.5,-3 23.5,-2 47.5,-4 l 57,-1 z m 407,-29 q 0,-1 2,-1 2,0 5.5,0.5 3.5,0.5 11.5,3.5 8,5 23.5,6 15.5,1 28.5,1 17,0 41,-1 13,-1 25.5,-1.5 12.5,-0.5 16.5,-0.5 8,0 8,1 -3,5 -6,12 -6,10 -15,27 -62,107 -72,346 -2,31 -3.5,62 -1.5,31 -3,57 -1.5,26 -2,46 -0.5,20 -0.5,29 0,18 -2,31.5 -2,13.5 -5,13.5 -6,0 -6.5,-31 -0.5,-31 -0.5,-43 0,-47 2,-121 2,-73 2,-127 0,-14 -0.5,-51.5 -0.5,-37.5 -4.5,-84 -4,-46.5 -11,-79 -7,-32.5 -19,-57.5 -6,-12 -10.5,-24 -4.5,-12 -4.5,-14 z m 123,39 q 1,-1 1,-2 0,-4 -8.5,-6 -8.5,-2 -38.5,-2 -28,0 -34,1.5 -6,1.5 -6,5.5 0,2 2,6 2,7 6.5,27.5 4.5,20.5 6.5,43.5 11,64 14,65 3,1 3,1 6,0 23,-56 10,-32 19.5,-56 9.5,-24 11.5,-28 z m -452,41 q -5,0 -18,-1 -13,-1 -24,-2 -7,-1 -17,-1 -5,0 -17.5,0.5 -12.5,0.5 -32.5,3 -20,2.5 -38,6 -18,3.5 -27,6.5 -9,5 -9.5,6.5 -0.5,1.5 -0.5,1.5 0,2 4,5 5,4 5,7 0,2 -1.5,5 -1.5,3 -11.5,11 -33,26 -53,80 -20,54 -29,136 -2,18 -3.5,36.5 -1.5,18.5 -2,32.5 -0.5,14 -0.5,23 v 2 q 0,0 0,0 v 2 q 0,1 0,1 v 1 q 0,0 0,1 0,0 0,0 v 3 q 3,6 22.5,13.5 19.5,7.5 48.5,15.5 29,8 65,15.5 36,7.5 91,16.5 28,4 64.5,10 36.5,6 44.5,8 3,1 5,1 2,0 4,-1 2,-1 3.5,-9 1.5,-8 1.5,-26 v -1 q 0,-1 0,-3 v -2 q 0,-2 0,-4 v -1 q 0,-2 0,-3 v -4 q 0,-1 0,-2 v -14 q 0,-1 0,-2 v -8 q 0,-2 0,-3 0,-32 -0.5,-50.5 -0.5,-18.5 -2.5,-29 -2,-10.5 -6.5,-16.5 -4.5,-6 -13.5,-14 -26,-25 -42.5,-31.5 -16.5,-6.5 -31.5,-6.5 -11,0 -23,2 -13,3 -22,3 -3,0 -8,-1 -5,-1 -5,-4 0,-1 0,-2 0,0 0,-1 0,-6 -14,-8 -14,-2 -27,-2.5 -13,-0.5 -19,-0.5 -16,0 -36,1.5 -20,1.5 -36,5.5 -14,2 -14.5,4 -0.5,2 -0.5,2 0,5 8,16 11,16 24.5,26.5 13.5,10.5 31,19.5 17.5,9 37.5,15.5 20,6.5 52,9.5 5,1 11.5,1.5 6.5,0.5 9.5,0.5 6,0 12.5,-2 6.5,-2 13,-8 6.5,-6 16.5,-17 23,-23 29.5,-24 6.5,-1 7.5,-1 4,0 4,5 0,4 -5,14 -10,19 -10,37 0,7 3.5,23 3.5,16 27.5,37 9,8 14.5,15.5 5.5,7.5 5.5,10.5 0,1 0,1 -2,1 -4,1 -10,0 -29,-17 -36,-28 -71,-28 -14,0 -28,5 -10,4 -16,4 -6,0 -8,-2.5 -2,-2.5 -2,-4.5 0,-5 15,-13 13,-8 13,-13 0,-13 -77,-13 -39,0 -58,3.5 -19,3.5 -32,12.5 -6,3 -11.5,6 -5.5,3 -7.5,3 -1,0 -2,-1 -1,-1 -1,-6 0,-4 1,-13.5 1,-9.5 4,-26.5 5,-18 6.5,-33.5 1.5,-15.5 1.5,-23.5 0,-4 0,-7 0,-4 0,-9 0,-7 1,-22 1,-15 4,-33 3,-18 6.5,-31.5 3.5,-13.5 6.5,-13.5 1,0 6,5 5,5 8,11 7,10 19,18.5 12,8.5 27.5,16 15.5,7.5 33,13 17.5,5.5 41.5,7.5 8,1 13,1.5 5,0.5 6,0.5 7,0 14,-3.5 7,-3.5 16,-11.5 9,-8 21,-20 34,-34 42.5,-37.5 8.5,-3.5 9.5,-3.5 4,0 4,4 0,5 -6,16 -9,16 -9,34 0,8 3.5,25 3.5,17 23.5,34 l 24,19 v -42 q 0,-23 -3.5,-50.5 -3.5,-27.5 -8.5,-54 -5,-26.5 -11.5,-47.5 -6.5,-21 -12.5,-31 -7,-11 -16.5,-16.5 -9.5,-5.5 -21.5,-5.5 z m 138,24 q 1,-3 1,-5 0,-4 -6.5,-6.5 -6.5,-2.5 -33.5,-3.5 -13,-1 -21,-1 -11,0 -14.5,1.5 -3.5,1.5 -3.5,5.5 0,3 2,7 3,9 11,46 8,37 19,101 0,0 0,0 1,0 7,-18 6,-18 14,-45 9,-28 16.5,-52.5 7.5,-24.5 8.5,-29.5 z m -376,18 q -9,-4 -22,-5 -13,-1 -22,-3 -2,0 -3,0 -11,0 -11,4 0,3 4,7 3,5 8,20 5,15 8,32 l 6,42 54,-93 z m 244,136 q 0,-15 -1.5,-15.5 -1.5,-0.5 -1.5,-0.5 -2,0 -14,13 -13,13 -13,16 0,0 0.5,1.5 0.5,1.5 13.5,5.5 4,1 7,1 4,0 6.5,-2.5 2.5,-2.5 2.5,-18.5 z m -195,0 q 0,-7 -8,-10.5 -8,-3.5 -12,-3.5 -6,0 -10,4 -4,4 -4,8 0,2 2.5,6 2.5,4 15.5,4 16,0 16,-8 z m 449,15 q -8,-5 -14,-5 -7,0 -7,11 0,7 3,18 4,16 6,17 2,1 2,1 4,0 11,-15 7,-10 7,-16 0,0 -0.5,-3 -0.5,-3 -7.5,-8 z m -128,35 q -3,-13 -8.5,-13.5 -5.5,-0.5 -6.5,-0.5 -9,0 -9,10 0,13 13,13 6,0 9,-2.5 3,-2.5 3,-4.5 0,-1 -1,-2 z m 86,26 q -11,-5 -24,-6.5 -13,-1.5 -21,-1.5 -10,0 -24,2 -14,2 -28.5,7.5 -14.5,5.5 -19.5,13.5 -2,4 -2,9 0,8 8,21 8,13 26,28 18,15 40,26 22,11 42,11 6,0 10.5,-1 4.5,-1 7,-5.5 2.5,-4.5 3,-15 0.5,-10.5 0.5,-25.5 0,-34 -3,-45.5 -3,-11.5 -15,-17.5 z m -404,33 q -2,-4 -8,-8.5 -6,-4.5 -12,-7.5 -6,-3 -10,-3.5 -4,-0.5 -6,-0.5 -3,0 -4,1 -2,2 -3.5,8 -1.5,6 -1.5,11 0,10 4,11 4,1 7,1 5,0 12,-1 13,-1 18,-3.5 5,-2.5 5,-5.5 0,-1 -1,-2 z m 185,28 q 0,-15 -2.5,-16.5 -2.5,-1.5 -3.5,-1.5 -2,0 -5,4 -3,4 -3,8 0,6 5,13 4,7 6,7 3,0 3,-14 z m -326,48 q -11,-7 -24.5,-14.5 -13.5,-7.5 -20.5,-14.5 -7,-6 -12,-6 -2,0 -5,4 -3,4 -9,38 -4,21 -5.5,33.5 -1.5,12.5 -1.5,15.5 0,2 0,2 0,1 2,1 3,0 9.5,-1.5 6.5,-1.5 13.5,-3.5 16,-5 40.5,-7 24.5,-2 47.5,-2 39,0 39,-5 0,-2 -3,-4 -6,-4 -11,-4.5 -5,-0.5 -6,-0.5 -6,0 -10,2 -3,0 -6,0 -11,0 -11,-7 0,-6 -8,-13.5 -8,-7.5 -19,-12.5 z m 470,3 q 0,-2 -5,-9 -5,-7 -12,-13 -8,-8 -11,-8.5 -3,-0.5 -4,-0.5 -3,0 -3,4 0,3 -1.5,9 -1.5,6 -2.5,12 -1,3 -1,5 0,8 17,8 9,0 16,-2 7,-2 7,-5 z"
     id="path1" />
</svg>
