<?xml version="1.0" encoding="UTF-8" standalone="no"?>
<svg
   width="2000"
   height="2000"
   version="1.1"
   id="svg1"
   sodipodi:docname="u122E2.svg"
   inkscape:version="1.3.2 (091e20e, 2023-11-25)"
   xmlns:inkscape="http://www.inkscape.org/namespaces/inkscape"
   xmlns:sodipodi="http://sodipodi.sourceforge.net/DTD/sodipodi-0.dtd"
   xmlns="http://www.w3.org/2000/svg"
   xmlns:svg="http://www.w3.org/2000/svg">
  <defs
     id="defs1" />
  <sodipodi:namedview
     id="namedview1"
     pagecolor="#505050"
     bordercolor="#eeeeee"
     borderopacity="1"
     inkscape:showpageshadow="0"
     inkscape:pageopacity="0"
     inkscape:pagecheckerboard="0"
     inkscape:deskcolor="#505050"
     inkscape:zoom="0.36841557"
     inkscape:cx="990.72902"
     inkscape:cy="994.80051"
     inkscape:window-width="1392"
     inkscape:window-height="1212"
     inkscape:window-x="0"
     inkscape:window-y="0"
     inkscape:window-maximized="0"
     inkscape:current-layer="svg1" />
  <path
     d="m 1173.5,635 q 0,-2 4,-2 4,0 13,3 7,4 38.5,8 31.5,4 69.5,6 l 91,3 -24,27 q -12,13 -23.5,33 -11.5,20 -21.5,42 -10,22 -17.5,44.5 -7.5,22.5 -10.5,38.5 -2,13 -3.5,40 -1.5,27 -2.5,66 -1,39 -1.5,86 -0.5,47 -0.5,102 0,111 -2,173 -2,62 -6,62 -3,0 -5,-17.5 -2,-17.5 -2,-46.5 0,-63 -9,-67 -3,-1 -26,-4.5 -23,-3.5 -52,-8.5 -25,-3 -37,-5 -12,-2 -19,-2 -2,0 -6,0.5 -4,0.5 -5.5,3 -1.5,2.5 -1.5,8.5 0,13 -7,13 -4,0 -6,-5 -2,-5 -2,-9 0,-9 -9,-13.5 -9,-4.5 -45,-11.5 -19,-4 -30.5,-5.5 -11.5,-1.5 -17.5,-1.5 -4,0 -9.5,1 -5.5,1 -7,6.5 -1.5,5.5 -1.5,14.5 0,10 -2,17 -2,7 -5,7 -2,0 -5,-7.5 -3,-7.5 -3,-21.5 0,-6 -0.5,-11.5 -0.5,-5.5 -4.5,-8.5 -4,-3 -12,-5 -8,-2 -20,-3 -15,-1 -34,-1 -9,0 -30,0.5 -21,0.5 -57,4 -36,3.5 -72.5,9.5 -36.5,6 -64.5,14 -23,5 -39.5,10 -16.5,5 -17.5,5 -1,0 -1,-1 0,-3 3.5,-14 3.5,-11 10.5,-29 8,-18 16,-43.5 8,-25.5 11,-43.5 5,-19 7,-32.5 2,-13.5 4,-15.5 0,0 0,0 2,0 12,9 10,9 16,14 42,41 82.5,60.5 40.5,19.5 122.5,34.5 14,3 28,5 14,2 20,2 7,0 13,-2 6,-2 6.5,-12 0.5,-10 0.5,-23 0,-43 -4,-46.5 -4,-3.5 -7,-3.5 -8,0 -25,10 -17,10 -25,10 -4,0 -8,-5 -4,-5 -4,-57 0,-16 0.5,-32 0.5,-16 2.5,-16 1,0 11.5,5 10.5,5 24.5,13 l 33,18 4,-35 q 2,-11 2,-21 0,-3 -0.5,-10 -0.5,-7 -2.5,-11 -2,-1 -5,-1 -4,0 -11.5,1.5 -7.5,1.5 -22.5,9.5 -11,6 -22,11 -11,5 -13,5 -2,0 -3,-14 -1,-14 -1,-26 0,-7 0.5,-20.5 0.5,-13.5 2,-31 1.5,-17.5 3.5,-19.5 0,-1 2,-1 2,0 9.5,3.5 7.5,3.5 18.5,10.5 10,7 18,10 8,3 11,3 1,0 2,-1 1,-1 1,-5 0,-3 -1,-12 -1,-9 -6,-23 -3,-14 -5.5,-22 -2.5,-8 -5.5,-12 -3,-4 -8.5,-4.5 -5.5,-0.5 -10.5,-0.5 -16,0 -42,6.5 -26,6.5 -56,17 -30,10.5 -59.5,23 -29.5,12.5 -49.5,23.5 l -43,24 v -91 q -1,-21 -1,-37 0,-32 2.5,-43.5 2.5,-11.5 6.5,-11.5 4,0 8,6 3,6 14,13.5 11,7.5 25.5,15.5 14.5,8 30.5,15 16,7 29,11 19,6 45.5,9.5 26.5,3.5 55.5,3.5 13,0 24.5,-0.5 11.5,-0.5 14,-4 2.5,-3.5 2.5,-7.5 0,-4 -2,-11.5 -2,-7.5 -4,-13.5 -5,-19 -5,-25 0,-2 0.5,-2.5 0.5,-0.5 2.5,-0.5 4,0 13,3 9,2 28.5,3.5 19.5,1.5 37.5,1.5 34,0 37.5,3 3.5,3 3.5,6 0,7 -11,22 -8,12 -8,15 0,1 1,2 1,1 18,1 16,0 19,-1.5 3,-1.5 3,-4.5 0,-3 -2,-8 -1,-3 -3.5,-11.5 -2.5,-8.5 -4.5,-16.5 -2,-9 -2,-13 0,-2 0.5,-3 0.5,-1 2.5,-1 3,0 12,4 7,2 25.5,4.5 18.5,2.5 36.5,2.5 19,2 32.5,2 13.5,0 15.5,1 l -3,6 q -4,6 -8,14 l -12,18 h 42 q 18,0 27,-1 9,-1 9.5,-5 0.5,-4 0.5,-5 0,-8 -7,-24.5 -7,-16.5 -15,-34.5 -18,-39 -25.5,-58 -7.5,-19 -7.5,-22 z m 140,31 q -17,0 -39.5,-2 -22.5,-2 -35.5,-4 -19,-2 -26,-2 -4,0 -5.5,0.5 -1.5,0.5 -1.5,4.5 0,4 1,10 2,9 6,19.5 4,10.5 7,16.5 6,10 13.5,31.5 7.5,21.5 17.5,54.5 4,13 10,32.5 6,19.5 7,21.5 1,3 2,3 2,0 4.5,-8 2.5,-8 5.5,-23 9,-37 22.5,-67 13.5,-30 38.5,-68 l 13,-20 z m -170,93 q 0,-1 -10.5,-2.5 -10.5,-1.5 -27.5,-1.5 -28,0 -32,3 -4,3 -4,8 0,4 2,9 4,12 12.5,15 8.5,3 19,3 10.5,0 20,-3.5 9.5,-3.5 13.5,-10.5 2,-7 4.5,-12.5 2.5,-5.5 2.5,-7.5 z m -135,13 q 0,-17 -41,-17 -11,0 -22.5,1 -11.5,1 -11.5,3 0,2 3,8.5 3,6.5 6,14.5 6,12 10,14 4,2 8,2 6,0 16,-2 32,-7 32,-24 z m -214,32 Q 781.5,803 761,795.5 740.5,788 723.5,779 l -42,-23 2,60 q 0,24 1.5,37.5 1.5,13.5 5,17 3.5,3.5 8.5,3.5 2,0 8.5,-2 6.5,-2 17.5,-9 14,-7 32.5,-15 18.5,-8 34.5,-14 32,-11 33,-14.5 1,-3.5 1,-3.5 0,-6 -31,-12 z m 442,-4 h -46 q -18,0 -27.5,0.5 -9.5,0.5 -15.5,3 -6,2.5 -9,7 -3,4.5 -7,13.5 -3,10 -6.5,25.5 -3.5,15.5 -5.5,28.5 l -3,30 74,3 h 2 q 1,0 2,0 h 2 q 1,0 2,0 h 5 q 1,0 3,0 h 2 q 1,0 3,0 h 1 q 1,0 2,0 h 1 q 1,0 2,0 h 15 q 1,0 1,0 h 4 q 16,0 20.5,-5 4.5,-5 4.5,-12 0,-4 -2,-13.5 -2,-9.5 -10,-35.5 z m -253,31 q 2,-11 2,-16 0,-3 -1,-5.5 -1,-2.5 -10,-2.5 -14,0 -15.5,6 -1.5,6 -1.5,9 0,10 5,26 5,16 8,16 1,0 3.5,-3 2.5,-3 9.5,-30 z m 91,5 q -2,-10 -4,-16 -2,-6 -5.5,-9 -3.5,-3 -9.5,-3.5 -6,-0.5 -13,-0.5 -30,0 -39,13 -9,13 -14,55 l -5,37 h 108 l -4,-24 q -2,-10 -6,-25 -4,-15 -8,-27 z m 47,-27 q -3,-1 -6,-1 -3,-1 -11,-1 -15,0 -16,3 -1,3 -1,4 0,7 4,22 3,11 5,21 2,10 2,12 0,1 0,1 1,0 4,-7 3,-7 7,-18 4,-11 7.5,-22 3.5,-11 4.5,-14 z m -158,118 q 0,-2 -8.5,-8.5 -8.5,-6.5 -21.5,-13.5 l -28,-15 v 33 q 0,14 0.5,24 0.5,10 3.5,10 3,0 12,-4 9,-4 18.5,-9 9.5,-5 16.5,-10 7,-5 7,-7 z m 135,0 h -31 q -14,0 -29.5,3 -15.5,3 -26.5,5 -8,3 -13,5.5 -5,2.5 -8,7 -3,4.5 -4,13 -1,8.5 -3,22.5 -2,16 -2,30 0,14 1,17 2,4 19.5,6 17.5,2 41.5,2 h 55 z m 171,0 h -156 v 111 h 156 z m -331,110 q -11,-6 -20,-10 -9,-4 -10,-4 -2,0 -2.5,9 -0.5,9 -0.5,19 0,28 2.5,29.5 2.5,1.5 4.5,1.5 7,0 27,-8 24,-7 24,-17 0,-9 -25,-20 z m 160,16 -24,2 q -10,0 -27,2.5 -17,2.5 -31,6.5 l -33,9 v 51 q 0,22 1,33.5 1,11.5 8,18 7,6.5 23,9 16,2.5 46,6.5 l 37,6 z m 171,0 h -156 v 147 l 66,9 q 27,4 50,6.5 23,2.5 28,2.5 4,0 6.5,-3 2.5,-3 3.5,-12 1,-9 1.5,-25 0.5,-16 0.5,-42 z m -562,54 q -26,-21 -30.5,-21.5 -4.5,-0.5 -4.5,-0.5 -7,0 -7,13 0,10 -4,26.5 -4,16.5 -11,38.5 -4,12 -7.5,23 -3.5,11 -3.5,15 0,1 0,1 2,0 16,-2 14,-2 34,-7 19,-5 45,-10 26,-5 43,-8 l 41,-6 -41,-20 q -17,-8 -37.5,-19.5 -20.5,-11.5 -32.5,-22.5 z"
     id="path1" />
</svg>
