<?xml version="1.0" encoding="UTF-8" standalone="no"?>
<svg
   width="2000"
   height="2000"
   version="1.1"
   id="svg1"
   sodipodi:docname="u122D9.svg"
   inkscape:version="1.3.2 (091e20e, 2023-11-25)"
   xmlns:inkscape="http://www.inkscape.org/namespaces/inkscape"
   xmlns:sodipodi="http://sodipodi.sourceforge.net/DTD/sodipodi-0.dtd"
   xmlns="http://www.w3.org/2000/svg"
   xmlns:svg="http://www.w3.org/2000/svg">
  <defs
     id="defs1" />
  <sodipodi:namedview
     id="namedview1"
     pagecolor="#505050"
     bordercolor="#eeeeee"
     borderopacity="1"
     inkscape:showpageshadow="0"
     inkscape:pageopacity="0"
     inkscape:pagecheckerboard="0"
     inkscape:deskcolor="#505050"
     inkscape:zoom="0.379"
     inkscape:cx="1000"
     inkscape:cy="998.68074"
     inkscape:window-width="1392"
     inkscape:window-height="1212"
     inkscape:window-x="0"
     inkscape:window-y="0"
     inkscape:window-maximized="0"
     inkscape:current-layer="svg1" />
  <path
     d="m 739.5,645.5 q 1,-1 17,-2 16,-1 40,-1 h 5 q 1,0 2,0 h 4 q 0,0 1,0 h 2 q 0,0 1,0 h 29 q 1,0 2,0 h 6 q 28,0 52,1 24,1 41,2 17,1 18,3 0,0 0,1 0,2 -6.5,12 -6.5,10 -20.5,26 -22,25 -35.5,46 -13.5,21 -20,52.5 -6.5,31.5 -7,69.5 -0.5,38 -0.5,71 0,34 0,76 0,42 0.5,79 0.5,37 1.5,65 1,28 1.5,45 0.5,17 1.5,18 9,8 80.5,21.5 71.5,13.5 176.5,27.5 57,8 89.5,13.5 32.5,5.5 57,10 24.5,4.5 38.5,7.5 14,3 14,6 0,3 -4,4 -4,1 -9,1 -7,0 -23.5,-1.5 -16.5,-1.5 -57,-7 -40.5,-5.5 -110.5,-15.5 l -174,-24 -74,21 q -16,4 -35,10.5 -19,6.5 -38,14 -19,7.5 -36.5,15 -17.5,7.5 -38.5,18.5 -20,10 -37.5,18 -17.5,8 -22.5,8 -1,0 -1,0 0,0 0,-1 0,-2 3.5,-12.5 3.5,-10.5 9.5,-23.5 5,-11 11,-26 6,-15 12.5,-34 6.5,-19 13,-41 6.5,-22 13.5,-47 19,-71 28,-88 9,-17 12,-17 5,0 6,17 0,9 8,24.5 8,15.5 18.5,31 10.5,15.5 21,28 10.5,12.5 15.5,14.5 1,0 1,0 3,0 5,-5.5 2,-5.5 3.5,-21.5 1.5,-16 2,-43 0.5,-27 0.5,-72 0,-46 -0.5,-76.5 -0.5,-30.5 -3.5,-52 -3,-21.5 -8.5,-41 -5.5,-19.5 -13.5,-43.5 -11,-33 -23,-61.5 -12,-28.5 -23.5,-51.5 -11.5,-23 -21.5,-39 -10,-16 -17,-20 -4,-3 -4,-7 0,-1 1,-3 z m 177,22 q 0,-3 -21.5,-4.5 -21.5,-1.5 -52.5,-1.5 h -72 l 23,42 q 9,18 20.5,41.5 11.5,23.5 16.5,38.5 l 15,36 15,-41 q 7,-17 17,-38.5 10,-21.5 22,-40.5 5,-8 11,-19 6,-11 6,-13 z m -106,511 q -4,-4 -14.5,-17.5 -10.5,-13.5 -16.5,-22.5 l -15,-22 -10,40 q -4,17 -12.5,46.5 -8.5,29.5 -16.5,52.5 -8,24 -12,39 -4,15 -4,19 0,2 1,2 1,1 2,1 3,0 11.5,-3.5 8.5,-3.5 19.5,-9.5 16,-9 44,-20 28,-11 55,-19 l 66,-18 -37,-19 q -15,-8 -31.5,-20 -16.5,-12 -29.5,-29 z"
     id="path1" />
</svg>
