<?xml version="1.0" encoding="UTF-8" standalone="no"?>
<svg
   width="2000"
   height="2000"
   version="1.1"
   id="svg1"
   sodipodi:docname="u1227F.svg"
   inkscape:version="1.3.2 (091e20e, 2023-11-25)"
   xmlns:inkscape="http://www.inkscape.org/namespaces/inkscape"
   xmlns:sodipodi="http://sodipodi.sourceforge.net/DTD/sodipodi-0.dtd"
   xmlns="http://www.w3.org/2000/svg"
   xmlns:svg="http://www.w3.org/2000/svg">
  <defs
     id="defs1" />
  <sodipodi:namedview
     id="namedview1"
     pagecolor="#505050"
     bordercolor="#eeeeee"
     borderopacity="1"
     inkscape:showpageshadow="0"
     inkscape:pageopacity="0"
     inkscape:pagecheckerboard="0"
     inkscape:deskcolor="#505050"
     inkscape:zoom="0.379"
     inkscape:cx="1000"
     inkscape:cy="1001.3193"
     inkscape:window-width="1392"
     inkscape:window-height="1212"
     inkscape:window-x="0"
     inkscape:window-y="0"
     inkscape:window-maximized="0"
     inkscape:current-layer="svg1" />
  <path
     d="m 847.5,645 q -1,-6 -1,-10 0,-3 1,-4 1,-1 2,-1 4,0 12,5 8,3 38,6 30,3 77,3 21,0 45,0.5 24,0.5 24,2.5 0,1 -10,18.5 -10,17.5 -15,24.5 -62,105 -65,200 0,31 25.5,59.5 25.5,28.5 63.5,39.5 6,1 26.5,3.5 20.5,2.5 50,4.5 29.5,2 66,4 36.5,2 84.5,5 29,1 63,3 34,2 59,4 25,2 39,4.5 14,2.5 14,4.5 0,5 -42,5 -42,0 -117,-2 -58,-3 -81.5,-3.5 -23.5,-0.5 -35.5,-0.5 -17,0 -36,1 -19,1 -38,6.5 -19,5.5 -46,14.5 -28,9 -44,15 -16,6 -26.5,12 -10.5,6 -16.5,12.5 -6,6.5 -9,12.5 -2,6 -3.5,20 -1.5,14 -3,34.5 -1.5,20.5 -2,45 -0.5,24.5 -0.5,52.5 0,56 -2,89.5 -2,33.5 -9,33.5 -3,0 -6,-5 -3,-5 -3,-9 0,-10 -17,-26 -17,-16 -44.5,-34 -27.5,-18 -62,-37 -34.5,-19 -69.5,-35 -35,-16 -66.5,-27 -31.5,-11 -53.5,-13 l -59,-8 35,-25 q 17,-14 43.5,-40 26.5,-26 51.5,-53 25,-27 43.5,-49 18.5,-22 18.5,-30 0,-3 3,-6.5 3,-3.5 8,-3.5 9,0 9,11 0,3 -2,14 -2,11 -22,61 -11,25 -18.5,48.5 -7.5,23.5 -7.5,33.5 0,22 38.5,58.5 38.5,36.5 104.5,79.5 l 67,42 v -109 q 0,-36 -0.5,-57.5 -0.5,-21.5 -2,-32 -1.5,-10.5 -3.5,-12 -2,-1.5 -4,-1.5 -3,0 -7,2 -4,2 -7,2 -4,0 -4.5,-2.5 -0.5,-2.5 -0.5,-5.5 0,-5 2,-16 2,-11 2,-19 0,-9 -3.5,-17.5 -3.5,-8.5 -25.5,-26.5 -41,-35 -94.5,-56 -53.5,-21 -99.5,-21 -2,0 -4,0 -11,1 -22,1 -10,0 -23,-1.5 -13,-1.5 -13,-3.5 0,-2 18,-19.5 18,-17.5 43,-37.5 35,-28 69,-61 34,-33 60.5,-62 26.5,-29 40,-49 13.5,-20 13.5,-31 0,-3 -1,-6 -1,-2 -5,-12.5 -4,-10.5 -6,-17.5 z m 158,24 h -54 q -24,0 -37,2 -13,2 -16,9 -3,7 -3,13 0,8 3.5,22 3.5,14 14.5,52 8,26 13.5,42.5 5.5,16.5 7.5,19.5 2,3 3,3 2,0 4,-5.5 2,-5.5 4,-14.5 5,-21 15,-47 10,-26 21,-46 z m -101,139 q -9,-34 -17.5,-56.5 -8.5,-22.5 -12.5,-22.5 -2,0 -7.5,4 -5.5,4 -12.5,14.5 -7,10.5 -17,28 -10,17.5 -26,47.5 -10,20 -17,34.5 -7,14.5 -9,22.5 -2,8 -2,14 0,3 1,9 1,6 5,18 5,20 18,33 13,13 45,31 15,9 31,17 16,8 19,8 4,0 8,-18.5 4,-18.5 7,-40.5 3,-22 3.5,-31.5 0.5,-9.5 0.5,-13.5 0,-12 -1.5,-26.5 -1.5,-14.5 -5.5,-32.5 -4,-18 -10,-39 z m -118,16 q 5,-7 6.5,-11.5 1.5,-4.5 1.5,-6.5 0,-1 0,-1 0,0 -1,0 -3,0 -21,15 -18,15 -42,40 l -58,60 h 33 q 0,0 1,0 1,0 2,0 h 1 q 1,0 2,0 h 4 q 1,0 1,0 h 9 q 0,0 0,0 h 3 q 11,0 14,1 1,0 1,0 4,0 9,-11 5,-11 10,-29 5,-18 12,-35 7,-17 12,-22 z m 263,186 q -11,0 -27,-7.5 -16,-7.5 -31,-18.5 l -36,-24 v 98 l 45,-18 q 38,-14 46.5,-20 8.5,-6 8.5,-8 0,-2 -6,-2 z m -343,85 q 4,-11 5.5,-18.5 1.5,-7.5 1.5,-10.5 0,-2 -1,-2 0,0 0,0 -3,0 -17.5,12.5 -14.5,12.5 -32.5,30.5 -22,22 -34,37 -12,15 -12,18 0,1 0,1 2,1 15.5,4 13.5,3 34.5,6 13,2 18.5,2.5 5.5,0.5 8.5,0.5 4,0 6.5,-1.5 2.5,-1.5 2.5,-5.5 0,0 -0.5,-3 -0.5,-3 -1.5,-9 -2,-8 -2,-18 0,-5 1,-16.5 1,-11.5 7,-27.5 z"
     id="path1" />
</svg>
