<?xml version="1.0" encoding="UTF-8" standalone="no"?>
<svg
   width="2000"
   height="2000"
   version="1.1"
   id="svg1"
   sodipodi:docname="u122E7.svg"
   inkscape:version="1.3.2 (091e20e, 2023-11-25)"
   xmlns:inkscape="http://www.inkscape.org/namespaces/inkscape"
   xmlns:sodipodi="http://sodipodi.sourceforge.net/DTD/sodipodi-0.dtd"
   xmlns="http://www.w3.org/2000/svg"
   xmlns:svg="http://www.w3.org/2000/svg">
  <defs
     id="defs1" />
  <sodipodi:namedview
     id="namedview1"
     pagecolor="#505050"
     bordercolor="#eeeeee"
     borderopacity="1"
     inkscape:showpageshadow="0"
     inkscape:pageopacity="0"
     inkscape:pagecheckerboard="0"
     inkscape:deskcolor="#505050"
     inkscape:zoom="0.379"
     inkscape:cx="1000"
     inkscape:cy="998.68074"
     inkscape:window-width="1392"
     inkscape:window-height="1212"
     inkscape:window-x="0"
     inkscape:window-y="0"
     inkscape:window-maximized="0"
     inkscape:current-layer="svg1" />
  <path
     d="m 1150,647 q 6,-12 9,-12 2,0 2.5,4 0.5,4 0.5,6 0,14 -11,38 -13,25 -20,48 -7,23 -7,30 0,4 2,4 3,2 30,3.5 27,1.5 61,2.5 62,3 69,4.5 7,1.5 7,3.5 0,3 -17,10 -26,12 -40,26.5 -14,14.5 -14,39.5 0,18 6.5,25.5 6.5,7.5 35.5,22.5 42,23 42,28 0,5 -3,5 -9,0 -47,-18 -6,-3 -17,-8 -11,-5 -13,-5 -4,0 -4,25 v 26 h 40 q 17,0 29,0.5 12,0.5 12,2.5 0,1 -7,8.5 -7,7.5 -13,15.5 -21,21 -30,34.5 -9,13.5 -13.5,34.5 -4.5,21 -5,57.5 -0.5,36.5 -0.5,99.5 0,65 -1,110.5 -1,45.5 -4,45.5 -3,0 -5,-17 -2,-17 -5,-41 l -5,-57 -87,-48 q -33,-20 -60,-32.5 -27,-12.5 -51.5,-21 -24.5,-8.5 -50,-13.5 -25.5,-5 -55.5,-8 -20,-3 -33.5,-4.5 -13.5,-1.5 -13.5,-3.5 0,-3 15,-18 15,-15 33,-31.5 18,-16.5 33,-29 15,-12.5 17,-12.5 1,0 1,0 2,1 3.5,9.5 1.5,8.5 4.5,17.5 6,25 32,48.5 26,23.5 95,63.5 17,9 46,25.5 29,16.5 41,24.5 l 32,18 -2,-68 q -1,-22 -2.5,-38 -1.5,-16 -4.5,-28.5 -3,-12.5 -7.5,-24.5 -4.5,-12 -15.5,-32 -10,-21 -18.5,-33.5 Q 1157,998 1152,998 q -1,0 -2,0 0,0 -1,0 -4,0 -18,-5.5 -14,-5.5 -29,-14.5 -38,-22 -57.5,-23.5 -19.5,-1.5 -23.5,-1.5 -26,0 -26,15 0,9 13.5,21.5 13.5,12.5 52.5,38.5 57,36 57,43 0,2 -4,2 -8,0 -23.5,-9 -15.5,-9 -33.5,-20 -36,-21 -49.5,-25.5 -13.5,-4.5 -34.5,-4.5 -4,0 -8,0 h -45 q -1,0 -1,-1 0,-2 6,-9 0,0 0,0 v -1 q 1,0 1,-1 v -1 q 0,0 1,0 v -1 q 0,0 1,-1 1,-1 1,-1 v -1 q 0,0 1,0 v -1 q 0,0 1,-1 v -1 q 1,0 1,0 v -1 q 0,0 1,0 v -1 q 0,-1 1,-1 v -1 q 1,0 1,0 v -1 q 0,0 1,-1 0,-1 1,-1 v -1 q 1,0 1,0 v -1 q 0,-1 1,-1 v -1 q 0,0 1,0 16,-23 23.5,-35 7.5,-12 7.5,-16 0,-1 0,-2 -1,-3 -11.5,-12 -10.5,-9 -25.5,-16 -21,-15 -36,-18 -15,-3 -42,-3 l -44,1 47,-40 q 19,-17 42.5,-39.5 23.5,-22.5 44.5,-44 21,-21.5 35,-39 14,-17.5 14,-23.5 0,-4 8,-4 7,0 7,6 0,3 -3,12 -3,9 -21,31 -12,17 -24.5,35.5 -12.5,18.5 -21,35 -8.5,16.5 -11,25 -2.5,8.5 -2.5,12.5 0,4 2,6 4,4 4,9 0,3 -1,6 0,2 0,4 0,9 14,16 7,3 16,9.5 9,6.5 17,12.5 8,9 13,9 1,0 3.5,-1.5 2.5,-1.5 19.5,-22.5 9,-12 16.5,-21 7.5,-9 10.5,-9 3,0 3.5,8.5 0.5,8.5 0.5,15.5 0,29 13,42.5 13,13.5 59,35.5 18,9 21.5,10 3.5,1 4.5,1 2,0 2,-2 0,-2 -1,-4 -4,-11 -13,-11 -4,0 -4,-1 0,-1 2,-3 3,-6 10.5,-6.5 7.5,-0.5 12.5,-0.5 8,0 19,1 l 36,4 -1,-31 -3,-33 -47,-17 q -30,-12 -53,-15.5 -23,-3.5 -65,-3.5 h -69 l 28,-26 q 14,-12 36.5,-37.5 22.5,-25.5 45.5,-53 23,-27.5 42.5,-52.5 19.5,-25 27.5,-41 z m -45,115 q 7,-18 7,-26 0,-3 -1,-4 -6,8 -15,15 -6,8 -14.5,17 -8.5,9 -18.5,21 l -47,54 h 90 l -6,-26 q 0,-4 0,-9 0,-7 1,-19 1,-12 4,-23 z m 58,53 q -30,-27 -36.5,-30.5 -6.5,-3.5 -7.5,-3.5 -7,0 -7,19 0,31 20,31 10,0 10,9 0,8 7.5,14 7.5,6 24.5,12 19,8 28,8 6,0 6,-8 0,-8 -45,-51 z m 72,-20 q 5,-2 5,-4 0,-1 -4.5,-2 -4.5,-1 -31.5,-1 h -44 l 23,21 q 15,16 17.5,17 2.5,1 3.5,1 4,0 12,-11 7,-10 19,-21 z m -316,26 q 3,-5 3.5,-8 0.5,-3 2.5,-6 l 3,-6 q -2,2 -11.5,10 -9.5,8 -23.5,20 l -31,29 h 24 q 9,0 15.5,-2.5 6.5,-2.5 6.5,-8.5 0,-7 11,-28 z m 115,99 q -3,-15 -6,-15 -1,3 -4,4 -5,5 -9,14 -9,11 -9,15 0,0 0.5,1.5 0.5,1.5 12.5,1.5 12,0 14.5,-2.5 2.5,-2.5 2.5,-6.5 0,-5 -2,-12 z m -46,73 q 0,-3 -3,-12 -6,-16 -8.5,-16 -2.5,0 -12.5,10 -12,14 -12,19 0,0 0.5,2.5 0.5,2.5 17.5,2.5 18,0 18,-6 z M 841,974 q 2,-8 6,-8 2,0 4,2 4,4 4,11 0,8 -5,19 -6,10 -11.5,29 -5.5,19 -9,38.5 -3.5,19.5 -4,29 -0.5,9.5 -0.5,13.5 0,11 2,19 6,15 27,37.5 21,22.5 50,37.5 13,7 39.5,23 26.5,16 49,31.5 22.5,15.5 36.5,26.5 14,11 14,14 0,1 0,1 0,1 -2,1 -4,0 -19,-7.5 -15,-7.5 -36,-22.5 -30,-19 -64.5,-38.5 Q 887,1211 855,1195 q -32,-16 -59,-26.5 -27,-10.5 -57,-13.5 -11,-1 -25,-3.5 -14,-2.5 -17,-4.5 -3,-2 -3,-4 0,-2 3.5,-6 3.5,-4 12.5,-10 17,-14 38,-35 21,-21 40.5,-43.5 19.5,-22.5 34.5,-42 15,-19.5 18,-32.5 z m 426,0 q 0,-2 -15,-3.5 -15,-1.5 -36,-1.5 -39,0 -45.5,4 -6.5,4 -6.5,7 0,4 5,9 9,6 15,18 6,12 12,25 12,29 15.5,30.5 3.5,1.5 4.5,1.5 4,0 7,-15 3,-14 10,-26.5 7,-12.5 17,-24.5 5,-6 11,-13.5 6,-7.5 6,-10.5 z m -455,106 q 3,-12 5,-20 2,-8 2,-11 0,-3 -1,-3 0,0 0,0 -3,0 -15.5,12 -12.5,12 -30.5,31 l -44,47 44,9 q 18,3 27.5,4 9.5,1 13.5,1 4,0 5,-1 1,0 1,-1 0,-3 -4,-11 -7,-16 -7,-26 0,-10 4,-31 z m 147,-15 q 0,-7 -4,-7 -8,0 -30,22 -19,19 -19,26 0,2 3.5,4.5 3.5,2.5 52.5,8.5 l 36,6 -19,-24 q -8,-9 -14,-18.5 -6,-9.5 -6,-17.5 z"
     id="path1" />
</svg>
