<?xml version="1.0" encoding="UTF-8" standalone="no"?>
<svg
   width="2000"
   height="2000"
   version="1.1"
   id="svg1"
   sodipodi:docname="u122DB.svg"
   inkscape:version="1.3.2 (091e20e, 2023-11-25)"
   xmlns:inkscape="http://www.inkscape.org/namespaces/inkscape"
   xmlns:sodipodi="http://sodipodi.sourceforge.net/DTD/sodipodi-0.dtd"
   xmlns="http://www.w3.org/2000/svg"
   xmlns:svg="http://www.w3.org/2000/svg">
  <defs
     id="defs1" />
  <sodipodi:namedview
     id="namedview1"
     pagecolor="#505050"
     bordercolor="#eeeeee"
     borderopacity="1"
     inkscape:showpageshadow="0"
     inkscape:pageopacity="0"
     inkscape:pagecheckerboard="0"
     inkscape:deskcolor="#505050"
     inkscape:zoom="0.379"
     inkscape:cx="1000"
     inkscape:cy="998.68074"
     inkscape:window-width="1392"
     inkscape:window-height="1212"
     inkscape:window-x="0"
     inkscape:window-y="0"
     inkscape:window-maximized="0"
     inkscape:current-layer="svg1" />
  <path
     d="m 1108.5,638.5 q -1,-2 -1,-2 0,-2 2,-2 3,0 9,3 7,2 37.5,5 30.5,3 67.5,4 39,2 65,4 26,2 26,4 0,1 -6,7 -6,6 -15,14 -8,9 -20.5,29.5 -12.5,20.5 -22.5,42.5 l -24,52 -5,473 h 35 q 14,0 24,2 10,2 10,5 0,4 -10,6.5 -10,2.5 -28,2.5 -18,0 -24.5,2.5 -6.5,2.5 -6.5,12.5 0,6 -2,10.5 -2,4.5 -6,4.5 -7,0 -7,-14 0,-8 -2.5,-11.5 -2.5,-3.5 -15,-4.5 -12.5,-1 -29.5,-1 -9,0 -30,0.5 -21,0.5 -62,1.5 -92,3 -149.5,7.5 -57.5,4.5 -90.5,10.5 -22,4 -44.5,10.5 -22.5,6.5 -39.5,13.5 -17,7 -27.5,13.5 -10.5,6.5 -10.5,15.5 0,5 -3,5 -5,0 -5.5,-11.5 -0.5,-11.5 -0.5,-21.5 0,-9 0,-20 1,-12 1,-25 0,-10 -1,-27.5 -1,-17.5 -6,-28.5 -3,-14 -4,-21 -1,-7 -1,-9 0,-3 1,-4 0,-1 2,-1 2,0 9.5,3.5 7.5,3.5 14.5,8.5 15,9 44.5,19.5 29.5,10.5 58.5,17.5 l 72,18 1,-104 q 1,-36 1,-58 0,-22 -1.5,-36.5 -1.5,-14.5 -5,-26 -3.5,-11.5 -12.5,-29.5 -7,-15 -18,-35 -11,-20 -22,-33 -5,-7 -11,-15 -6,-8 -6,-10 0,-1 25,-2 25,-1 55,-1 40,0 65,2 25,2 25,4 0,2 -9.5,13.5 -9.5,11.5 -20.5,22.5 -18,18 -29,35 -11,17 -13,28 -1,5 -2,18.5 -1,13.5 -1.5,32 -0.5,18.5 -1,40 -0.5,21.5 -0.5,44.5 v 111 l 33,5 q 7,0 22,0.5 15,0.5 35,1 20,0.5 43,0.5 23,0 47,-1 l 116,-1 v -186 q 0,-59 -0.5,-97 -0.5,-38 -2,-63.5 -1.5,-25.5 -4,-42.5 -2.5,-17 -10.5,-45 -3,-12 -6.5,-23.5 -3.5,-11.5 -16.5,-16 -13,-4.5 -38,-4.5 -3,0 -19,0.5 -16,0.5 -73,1.5 -53,2 -102.5,8 -49.5,6 -88.5,15 -39,9 -64,20 -25,11 -33,31 -3,8 -5,8 -2,0 -4.5,-6 -2.5,-6 -2.5,-19 0,-11 2,-27 1,-10 1,-21 0,-11 -1,-28.5 -1,-17.5 -3,-29.5 -4,-14 -4.5,-22.5 -0.5,-8.5 -0.5,-11.5 0,-3 0,-4 0,0 1,0 3,0 11.5,4.5 8.5,4.5 17.5,10.5 13,10 37,20.5 24,10.5 47,17.5 18,6 33,9 15,3 35,4.5 20,1.5 48.5,2 28.5,0.5 124.5,0.5 h 1 q 0,0 1,0 h 3 q 0,0 1,0 h 5 q 0,0 1,0 h 24 q 29,0 36,-5 7,-5 7,-12 0,-5 -5.5,-17 -5.5,-12 -18.5,-39 -12,-26 -19.5,-43.5 -7.5,-17.5 -8.5,-20.5 z m 166,29 q -2,0 -21.5,-1.5 -19.5,-1.5 -47.5,-2.5 l -66,-3 6,16 q 3,8 8,20 5,12 9,20 6,10 13.5,31.5 7.5,21.5 13.5,48.5 4,16 8,29 4,13 6,13 0,0 0,0 2,-1 6,-15.5 4,-14.5 6,-22.5 8,-29 17.5,-53.5 9.5,-24.5 22.5,-44.5 7,-10 13,-20.5 6,-10.5 6,-13.5 z m -461,98 q -17,-6 -33,-12 -16,-6 -20,-7 -3,-1 -4,-1 -5,0 -5.5,4.5 -0.5,4.5 -0.5,13.5 0,8 0,22 1,19 2,28 1,9 3,11.5 2,2.5 4,2.5 1,0 3,-0.5 2,-0.5 7,-3.5 9,-6 26.5,-12.5 17.5,-6.5 37.5,-11.5 19,-5 27,-8.5 8,-3.5 8,-5.5 0,-1 -2,-2 -4,-1 -20,-6 -16,-5 -33,-12 z m 132,169 -49,-3 q -9,0 -17,0 -23,0 -29.5,1.5 -6.5,1.5 -6.5,4.5 0,2 6,6 7,5 14.5,16.5 7.5,11.5 12.5,25.5 l 15,35 12,-26 q 5,-11 12.5,-23.5 7.5,-12.5 14.5,-19.5 z m -177,314 q -12,-4 -27,-9.5 -15,-5.5 -18,-6.5 -3,-1 -6,-1 -4,0 -5,5 -1,5 -1,18 0,9 0,21 l 3,49 36,-13 q 15,-6 38.5,-12 23.5,-6 49.5,-9 35,-4 37.5,-7.5 2.5,-3.5 2.5,-4.5 0,-5 -27,-9 -18,-2 -39.5,-8 -21.5,-6 -43.5,-13 z"
     id="path1" />
</svg>
