<?xml version="1.0" encoding="UTF-8" standalone="no"?>
<svg
   width="2000"
   height="2000"
   version="1.1"
   id="svg1"
   sodipodi:docname="u122D6.svg"
   inkscape:version="1.3.2 (091e20e, 2023-11-25)"
   xmlns:inkscape="http://www.inkscape.org/namespaces/inkscape"
   xmlns:sodipodi="http://sodipodi.sourceforge.net/DTD/sodipodi-0.dtd"
   xmlns="http://www.w3.org/2000/svg"
   xmlns:svg="http://www.w3.org/2000/svg">
  <defs
     id="defs1" />
  <sodipodi:namedview
     id="namedview1"
     pagecolor="#505050"
     bordercolor="#eeeeee"
     borderopacity="1"
     inkscape:showpageshadow="0"
     inkscape:pageopacity="0"
     inkscape:pagecheckerboard="0"
     inkscape:deskcolor="#505050"
     inkscape:zoom="0.379"
     inkscape:cx="1000"
     inkscape:cy="998.68074"
     inkscape:window-width="1392"
     inkscape:window-height="1212"
     inkscape:window-x="0"
     inkscape:window-y="0"
     inkscape:window-maximized="0"
     inkscape:current-layer="svg1" />
  <path
     d="m 1203.5,678.5 q -11,-21 -11,-31 0,-10 9,-10 2,0 5,1 9,2 40,3.5 31,1.5 65,1.5 h 58 q 14,1 25,1 0,2 -8,12.5 -8,10.5 -13,16.5 -17,23 -29.5,45 -12.5,22 -20.5,40 -6,16 -9.5,30.5 -3.5,14.5 -5.5,45.5 -2,31 -3,88 -1,57 -1,159 -1,57 -1.5,108 -0.5,51 -0.5,89 v 2 q 0,1 0,3 v 6 q 0,1 0,3 v 2 q 0,1 0,2 v 2 q 0,1 0,2 v 10 q 0,1 0,2 v 28 q 0,1 0,1 v 4 q 0,0 0,1 v 1 q 0,1 0,1 v 1 q 0,1 0,1 v 4 q 0,1 0,1 v 6 q 0,1 -1,1 0,0 -2,-1 -4,-4 -5.5,-17.5 -1.5,-13.5 -2.5,-35 -1,-21.5 -2,-50 -1,-28.5 -2,-60.5 l -4,-153 -209,78 q -68,26 -117.5,45 -49.5,19 -85.5,34.5 -36,15.5 -61.5,28 -25.5,12.5 -44.5,24.5 -19,12 -34,25 -15,13 -43,41 -12,11 -27,25 -15,14 -17,14 0,0 0,0 0,-2 -3.5,-14.5 -3.5,-12.5 -7.5,-30.5 -3,-18 -8,-38 -5,-20 -12,-36 -8,-20 -8,-27 0,-1 0.5,-5 0.5,-4 20.5,-4 6,0 19.5,-0.5 13.5,-0.5 23.5,-0.5 l 24,-2 v -111 q 0,-36 -0.5,-59.5 -0.5,-23.5 -3,-40 -2.5,-16.5 -6,-29.5 -3.5,-13 -8.5,-26 -8,-24 -19.5,-46.5 -11.5,-22.5 -20.5,-33.5 -11,-16 -12.5,-21 -1.5,-5 -1.5,-7 0,-4 3,-5 5,-3 12,-17 7,-14 13,-31.5 6,-17.5 10,-36 4,-18.5 4,-33.5 0,-10 1.5,-19 1.5,-9 3.5,-9 3,0 20,13.5 17,13.5 36,30.5 39,34 72.5,59 33.5,25 73,49 39.5,24 90.5,49.5 51,25.5 127,59.5 34,16 68.5,31.5 34.5,15.5 61,27.5 26.5,12 43,19.5 16.5,7.5 19.5,8.5 1,0 2,0 4,0 5,-5.5 1,-5.5 1,-10.5 0,-14 -3,-44 -5,-70 -31,-154.5 -26,-84.5 -50,-132.5 z m 150,-13 q -1,0 -22,-1.5 -21,-1.5 -50,-2.5 l -70,-3 13,27 q 5,11 15.5,40.5 10.5,29.5 20.5,58.5 l 24,72 11,-45 q 4,-19 7.5,-33.5 3.5,-14.5 8.5,-27 5,-12.5 11.5,-25 6.5,-12.5 15.5,-27.5 8,-12 12,-20 4,-8 4,-11 0,-1 -1,-2 z m -620,86 q -5,-6 -14.5,-14.5 -9.5,-8.5 -17.5,-14.5 l -20,-13 -9,36 q -3,14 -7,28.5 -4,14.5 -6,19.5 -1,3 -1,5 0,5 6.5,6.5 6.5,1.5 32.5,1.5 30,0 54,3 24,3 39,7 10,3 17,3.5 7,0.5 9,0.5 3,0 3,0 0,0 0,-1 0,-2 -8.5,-9.5 -8.5,-7.5 -24.5,-16.5 -16,-11 -31.5,-22.5 -15.5,-11.5 -21.5,-19.5 z m 213,142 q -71,-31 -100.5,-43 -29.5,-12 -41,-14.5 -11.5,-2.5 -16.5,-2.5 -7,0 -13,3.5 -6,3.5 -17,14.5 -16,15 -26,30 -10,15 -15.5,38 -5.5,23 -7,57.5 -1.5,34.5 -1.5,96.5 0,37 0.5,64 0.5,27 2,41 1.5,14 3.5,19 2,5 10,5 8,0 36,-4 28,-4 59.5,-10 31.5,-6 60.5,-13 29,-7 76,-24 19,-7 77.5,-29 58.5,-22 108,-41 49.5,-19 82,-32.5 32.5,-13.5 32.5,-14.5 0,-1 -26,-13.5 -26,-12.5 -70.5,-32.5 -44.5,-20 -104,-46.5 -59.5,-26.5 -109.5,-48.5 z m -208,-46 q 0,-5 -12.5,-8 -12.5,-3 -36.5,-3 -15,0 -28,1 -13,1 -13,2 0,2 6,14.5 6,12.5 15,32.5 l 23,45 15,-35 q 7,-14 13.5,-25.5 6.5,-11.5 12.5,-15.5 5,-3 5,-8 z m 77,357 q 0,-2 -2,-2 -3,2 -16.5,4.5 -13.5,2.5 -30.5,5 -17,2.5 -35,4 -18,1.5 -30,1.5 -45,2 -59,6.5 -14,4.5 -14,12.5 0,2 1,5 2,4 6,17.5 4,13.5 8,28.5 3,13 5.5,24 2.5,11 3.5,12 0,0 1,0 3,0 14,-9.5 11,-9.5 20,-17.5 25,-21 48.5,-38.5 23.5,-17.5 44.5,-29.5 12,-6 23.5,-13.5 11.5,-7.5 11.5,-10.5 z"
     id="path1" />
</svg>
