<?xml version="1.0" encoding="UTF-8" standalone="no"?>
<svg
   width="2000"
   height="2000"
   version="1.1"
   id="svg1"
   sodipodi:docname="u1227A.svg"
   inkscape:version="1.3.2 (091e20e, 2023-11-25)"
   xmlns:inkscape="http://www.inkscape.org/namespaces/inkscape"
   xmlns:sodipodi="http://sodipodi.sourceforge.net/DTD/sodipodi-0.dtd"
   xmlns="http://www.w3.org/2000/svg"
   xmlns:svg="http://www.w3.org/2000/svg">
  <defs
     id="defs1" />
  <sodipodi:namedview
     id="namedview1"
     pagecolor="#505050"
     bordercolor="#eeeeee"
     borderopacity="1"
     inkscape:showpageshadow="0"
     inkscape:pageopacity="0"
     inkscape:pagecheckerboard="0"
     inkscape:deskcolor="#505050"
     inkscape:zoom="0.379"
     inkscape:cx="1000"
     inkscape:cy="998.68074"
     inkscape:window-width="1392"
     inkscape:window-height="1212"
     inkscape:window-x="0"
     inkscape:window-y="0"
     inkscape:window-maximized="0"
     inkscape:current-layer="svg1" />
  <path
     d="m 849,638.5 q 1,-1 6,-1 2,0 8,0.5 6,0.5 16,2.5 5,2 16,3 11,1 27,2 16,1 34,1 h 3 q 1,0 2,0 h 5 q 1,0 1,0 h 1 q 1,0 1,0 h 1 q 1,0 2,0 h 1 q 0,0 1,0 h 13 q 1,0 2,0 h 3 q 12,0 22,0 22,0 43.5,1.5 21.5,1.5 21.5,4.5 0,2 -7,10 -7,8 -14,14 -12,12 -23,28 -11,16 -20.5,35.5 -9.5,19.5 -17,40 -7.5,20.5 -11.5,39.5 l -9,42 h 235 q 113,0 174.5,2 61.5,2 61.5,7 0,5 -61.5,7 -61.5,2 -175.5,2 H 976 l -2,51 v 204 h 237 q 114,0 175.5,2.5 61.5,2.5 61.5,7.5 0,5 -61.5,7 -61.5,2 -175.5,2 H 974 v 104 q 0,48 -2,76.5 -2,28.5 -7,28.5 -5,0 -7,-28.5 -2,-28.5 -2,-76.5 v -104 h -32 q -17,0 -55,6 -38,6 -83,14.5 -45,8.5 -89.5,18.5 -44.5,10 -73.5,18 -27,9 -45,13.5 -18,4.5 -23,4.5 -2,0 -3,-1 0,-1 0,-2 0,-3 1.5,-11.5 1.5,-8.5 4.5,-17.5 5,-16 6.5,-33.5 1.5,-17.5 1.5,-32.5 0,-14 -1,-31 0,-11 -0.5,-17 -0.5,-6 -0.5,-6 0,-10 4.5,-11 4.5,-1 6.5,-1 7,0 21,5 2,1 4,2 h 1 q 6,3 14,6 h 1 q 14,6 32,13 22,10 53,18 31,8 65.5,14 34.5,6 70,9 35.5,3 68.5,3 h 51 v -98 q 0,-20 -1,-40.5 -1,-20.5 -2,-38.5 -1,-18 -2.5,-31 -1.5,-13 -2.5,-20 -1,-4 -2,-8.5 -1,-4.5 -2,-8.5 0,-4 -1,-8 -6,0 -12,1 -11,0 -26,3 -38,5 -77.5,11 -39.5,6 -75.5,13 -36,7 -66.5,14 -30.5,7 -50.5,14 -30,9 -46.5,13 -16.5,4 -24.5,4 -1,0 -5.5,-0.5 -4.5,-0.5 -4.5,-6.5 0,-6 3,-14 6,-14 8,-38.5 2,-24.5 2,-50.5 0,-25 1.5,-38 1.5,-13 10.5,-13 10,0 28,9 43,22 112.5,40.5 69.5,18.5 147.5,18.5 h 68 l -14,-51 q -3,-10 -8.5,-23.5 -5.5,-13.5 -12,-28 -6.5,-14.5 -13,-29.5 -6.5,-15 -14.5,-30 -11,-21 -17.5,-38 -6.5,-17 -6.5,-21 z m 182,29 q 0,-1 -22,-1 h -7 q -1,0 -2,0 h -2 q 0,0 -1,0 h -2 q -1,0 -2,0 h -28 q -1,0 -2,0 h -7 l -75,-2 21,44 q 10,18 18.5,44 8.5,26 15.5,44 l 22,59 q 5,-22 12,-44 5,-19 12.5,-40.5 7.5,-21.5 15.5,-38.5 l 23,-46 q 5,-10 10,-19 z m -371,176 q -23,-8 -45,-14.5 -22,-6.5 -24,-6.5 -1,0 -3,15.5 -2,15.5 -3,26.5 -2,20 -2,33 0,9 1.5,19.5 1.5,10.5 7.5,10.5 4,0 27,-6 23,-6 34,-9 33,-9 56,-13.5 23,-4.5 46,-9.5 26,-6 54,-11 -20,-5 -37,-7.5 -17,-2.5 -33.5,-5.5 -16.5,-3 -34,-7.5 Q 687,853.5 660,843.5 Z m 75,294 q -13,-2 -27,-6 -1,0 -1,0 l -2,-1 q 0,0 -1,0 h -2 q 0,-1 -1,-1 h -2 q 0,0 0,0 l -3,-1 q 0,0 -1,0 l -2,-1 q 0,0 0,0 l -2,-1 q -1,0 -1,0 l -3,-1 q 0,0 0,0 h -2 q -1,0 -1,-1 h -2 q -1,0 -1,0 l -2,-1 q 0,0 0,0 -15,-4 -27.5,-8.5 -12.5,-4.5 -21.5,-7.5 l -42,-18 -4,55 q -1,24 -1,35.5 0,11.5 5,13.5 5,2 10,2 8,0 24,-4 16,-4 35,-9 39,-10 64,-16 25,-6 40,-8 l 39,-8 z"
     id="path1" />
</svg>
