<?xml version="1.0" encoding="UTF-8" standalone="no"?>
<svg
   width="2000"
   height="2000"
   version="1.1"
   id="svg1"
   sodipodi:docname="u1223A.svg"
   inkscape:version="1.3.2 (091e20e, 2023-11-25)"
   xmlns:inkscape="http://www.inkscape.org/namespaces/inkscape"
   xmlns:sodipodi="http://sodipodi.sourceforge.net/DTD/sodipodi-0.dtd"
   xmlns="http://www.w3.org/2000/svg"
   xmlns:svg="http://www.w3.org/2000/svg">
  <defs
     id="defs1" />
  <sodipodi:namedview
     id="namedview1"
     pagecolor="#505050"
     bordercolor="#eeeeee"
     borderopacity="1"
     inkscape:showpageshadow="0"
     inkscape:pageopacity="0"
     inkscape:pagecheckerboard="0"
     inkscape:deskcolor="#505050"
     inkscape:zoom="0.379"
     inkscape:cx="1000"
     inkscape:cy="998.68074"
     inkscape:window-width="1392"
     inkscape:window-height="1212"
     inkscape:window-x="0"
     inkscape:window-y="0"
     inkscape:window-maximized="0"
     inkscape:current-layer="svg1" />
  <path
     d="m 1273.5,638.5 q 0,-3 13,-3 2,0 12.5,0.5 10.5,0.5 33.5,3.5 15,1 30.5,2.5 15.5,1.5 31.5,2.5 16,1 31,1.5 15,0.5 27,0.5 6,0 11,0 29,0 37.5,3.5 8.5,3.5 8.5,6.5 0,3 -5,6 -12,8 -21.5,35 -9.5,27 -18,63.5 -8.5,36.5 -14,76 -5.5,39.5 -5.5,70.5 -1,36 -3,61 -2,25 -5,25 -2,0 -3.5,14.5 -1.5,14.5 -2.5,39.5 -1,25 -1.5,59 -0.5,34 -0.5,72 0,38 -0.5,72 -0.5,34 -1.5,59.5 -1,25.5 -2.5,40 -1.5,14.5 -3.5,14.5 -2,0 -4,-12.5 -2,-12.5 -4,-34 -2,-21.5 -4,-50.5 -2,-29 -3,-62 -1,-33 -3,-63.5 -2,-30.5 -3.5,-56 -1.5,-25.5 -3,-43 -1.5,-17.5 -2.5,-23.5 l -6,-26 -269,-2 q -55,-1 -110.5,-1.5 -55.5,-0.5 -103,-0.5 -47.5,0 -83,0.5 -35.5,0.5 -51.5,1.5 -34,1 -72.5,5.5 -38.5,4.5 -73,11.5 -34.5,7 -62,15 -27.5,8 -42.5,18 -6,4 -12,7 -6,3 -9,3 -1,0 -2,-1 -1,-2 -3,-29 -2,-27 -4,-64 -1,-36 -1,-55.5 0,-19.5 3,-27 3,-7.5 8,-7.5 1,0 5,1.5 4,1.5 11,7.5 11,11 41.5,23.5 30.5,12.5 66.5,24.5 36,12 68.5,21 32.5,9 45.5,9 6,0 9.5,-1.5 3.5,-1.5 5,-7 1.5,-5.5 1.5,-14.5 0,-3 -0.5,-11 -0.5,-8 -2.5,-30 -16,-170 -72,-170 -11,0 -11,-6 0,-9 39.5,-11 39.5,-2 111.5,-2 73,0 112,2 39,2 39,9 0,3 -4.5,12.5 -4.5,9.5 -8.5,14.5 -6,10 -10.5,27 -4.5,17 -8.5,39 -4,22 -7.5,46.5 -3.5,24.5 -5.5,46.5 -2,22 -2,38.5 0,16.5 2,21.5 2,6 11.5,9 9.5,3 34.5,4.5 25,1.5 70.5,2 45.5,0.5 115.5,0.5 69,0 94,0.5 25,0.5 32,0.5 33,0 57,-2.5 24,-2.5 35.5,-8 11.5,-5.5 13,-14 1.5,-8.5 1.5,-14.5 0,-9 -3,-25.5 -3,-16.5 -7,-39.5 -12,-80 -32.5,-130.5 -20.5,-50.5 -52.5,-78.5 -6,-5 -14.5,-13.5 -8.5,-8.5 -8.5,-10.5 z m 193,37 q -1,-1 -21,-3.5 -20,-2.5 -47,-5.5 l -64,-6 23,49 q 5,10 10.5,27 5.5,17 11,37 5.5,20 10.5,42.5 5,22.5 8,43.5 l 17,100 12,-93 q 2,-19 5.5,-39.5 3.5,-20.5 7.5,-39.5 4,-19 7.5,-35.5 3.5,-16.5 9.5,-36.5 3,-10 6.5,-23 3.5,-13 3.5,-16 z m -680,57 q 0,-5 -8,-8.5 -8,-3.5 -21,-3.5 h -29 l 33,78 12,-27 q 5,-11 8.5,-22.5 3.5,-11.5 4.5,-16.5 z m 66,-4 q -6,-3 -14,-5.5 -8,-2.5 -12,-2.5 -8,0 -15.5,11.5 -7.5,11.5 -13.5,32.5 -6,21 -10.5,49.5 -4.5,28.5 -7.5,62.5 l -6,88 h 28 q 12,0 31.5,2 19.5,2 35.5,5 l 38,6 -6,-87 q -5,-75 -16,-112.5 -11,-37.5 -32,-49.5 z m 90,-6 q 0,-1 -8.5,-1.5 -8.5,-0.5 -21.5,-0.5 -13,0 -19.5,0.5 -6.5,0.5 -7,2.5 -0.5,2 -0.5,3 0,4 3.5,12.5 3.5,8.5 10.5,26.5 l 15,37 14,-38 q 5,-17 9.5,-28.5 4.5,-11.5 4.5,-13.5 z m -385,200 q -15,-8 -27,-12.5 -12,-4.5 -14,-4.5 -1,0 -2,16 -1,16 -1,41 0,18 0.5,29 0.5,11 2.5,15.5 2,4.5 6.5,4.5 4.5,0 12.5,-2 9,-3 38,-9.5 29,-6.5 61,-13.5 l 77,-15 -58,-17 q -23,-7 -51,-16 -28,-9 -45,-16 z m 482,108 q 0,-4 27.5,-6 27.5,-2 65.5,-2 38,0 65.5,2 27.5,2 27.5,4 0,2 -7,13 -7,11 -13,19 -24,31 -36.5,83 -12.5,52 -12.5,107 0,24 -2.5,39.5 -2.5,15.5 -7.5,15.5 -3,0 -6,-5 -3,-5 -4,-12 -4,-113 -21,-169 -17,-56 -54,-72 -9,-4 -15.5,-9 -6.5,-5 -6.5,-8 z m 148,12 h -40 q -32,0 -35,3.5 -3,3.5 -3,6.5 0,7 11,21 8,10 12.5,20.5 4.5,10.5 4.5,19.5 0,7 3,12 3,5 7,5 4,0 6.5,-4.5 2.5,-4.5 2.5,-10.5 0,-7 4.5,-19.5 4.5,-12.5 10.5,-24.5 z m -528,10 q 0,-1 11,-2.5 11,-1.5 30,-2.5 19,-1 45,-2 26,-1 81,-1 h 1 q 0,0 1,0 1,0 1,0 1,0 1,0 h 1 q 0,0 0,0 h 3 q 0,0 1,0 h 13 q 2,0 3,0 h 4 q 26,0 45.5,1 19.5,1 30.5,2.5 11,1.5 11,6.5 0,6 -13,15 -11,9 -18.5,21 -7.5,12 -13.5,26 -6,14 -10,28 -4,14 -4,24 0,12 6,16 6,4 24,4 29,0 29,10 0,7 -17,20 -7,7 -14.5,19 -7.5,12 -13.5,26.5 -6,14.5 -10,29.5 -4,15 -4,28 0,10 -2.5,16.5 -2.5,6.5 -6.5,6.5 -4,0 -7,-12 -3,-12 -3,-36 0,-40 -8,-60 -8,-20 -27,-24 -24,-6 -24,-14 0,-1 1.5,-5.5 1.5,-4.5 28.5,-4.5 10,0 16,-1 6,-1 9,-5 3,-4 3.5,-13 0.5,-9 0.5,-17 0,-48 -24,-78 -9,-11 -11.5,-11.5 -2.5,-0.5 -2.5,-0.5 -4,0 -13,12 -19,25 -29,66 -10,41 -15,114 -2,37 -6,63.5 -4,26.5 -7,26.5 -2,0 -6,-27.5 -4,-27.5 -7,-64.5 -6,-83 -20.5,-125 -14.5,-42 -42.5,-57 -7,-4 -14,-9.5 -7,-5.5 -7,-8.5 z m 234,24 q 7,-8 7,-12 0,0 -1,-1.5 -1,-1.5 -10,-1.5 -20,0 -20,12 0,3 2,7 1,2 3,6.5 2,4.5 4,4.5 1,0 5.5,-4.5 4.5,-4.5 9.5,-10.5 z m -110,-1 q -1,-1 -11,-3 -10,-2 -15,-3 -19,-3 -28,-3 -8,0 -9,1.5 -1,1.5 -1,3.5 0,6 10,20 9,12 13.5,22.5 4.5,10.5 4.5,22.5 0,13 5,13 1,0 6,-3.5 5,-3.5 16,-34.5 4,-13 6.5,-22.5 2.5,-9.5 2.5,-12.5 z m 108,149 q 9,-10 9,-13 0,0 -1,-1.5 -1,-1.5 -11,-1.5 -18,0 -18,11 0,3 2,8 0,1 2,5.5 2,4.5 4,4.5 1,0 5.5,-4.5 4.5,-4.5 7.5,-8.5 z"
     id="path1" />
</svg>
