<?xml version="1.0" encoding="UTF-8" standalone="no"?>
<svg
   width="2000"
   height="2000"
   version="1.1"
   id="svg1"
   sodipodi:docname="u1223F.svg"
   inkscape:version="1.3.2 (091e20e, 2023-11-25)"
   xmlns:inkscape="http://www.inkscape.org/namespaces/inkscape"
   xmlns:sodipodi="http://sodipodi.sourceforge.net/DTD/sodipodi-0.dtd"
   xmlns="http://www.w3.org/2000/svg"
   xmlns:svg="http://www.w3.org/2000/svg">
  <defs
     id="defs1" />
  <sodipodi:namedview
     id="namedview1"
     pagecolor="#505050"
     bordercolor="#eeeeee"
     borderopacity="1"
     inkscape:showpageshadow="0"
     inkscape:pageopacity="0"
     inkscape:pagecheckerboard="0"
     inkscape:deskcolor="#505050"
     inkscape:zoom="0.379"
     inkscape:cx="1000"
     inkscape:cy="998.68074"
     inkscape:window-width="1392"
     inkscape:window-height="1212"
     inkscape:window-x="0"
     inkscape:window-y="0"
     inkscape:window-maximized="0"
     inkscape:current-layer="svg1" />
  <path
     d="m 406.5,652.5 q 21,-17 27.5,-19 6.5,-2 7.5,-2 4,0 4,4 0,3 -3,9 -2,5 -5,8.5 -3,3.5 -6,3.5 -5,0 -6.5,9 -1.5,9 -1.5,22.5 0,13.5 2.5,27.5 2.5,14 5.5,22 4,14 15.5,31 11.5,17 25.5,29 22,24 22,30 0,3 -3,3 -6,0 -19.5,-10 -13.5,-10 -27.5,-26 -15,-14 -31.5,-27.5 -16.5,-13.5 -27.5,-18.5 -16,-9 -21,-9 -5,0 -8,7 -2,6 -2,12 0,5 1.5,13.5 1.5,8.5 7.5,23.5 6,15 15,30.5 9,15.5 22,29.5 9,11 17,17.5 8,6.5 12.5,7.5 4.5,1 6.5,1 5,0 11.5,-3.5 6.5,-3.5 16.5,-11.5 24,-18 32,-18 2,0 3.5,1 1.5,1 1.5,7 0,9 -6,28 -6,15 -7.5,27.5 -1.5,12.5 -1.5,18.5 0,5 1,9 2,10 20,33.5 18,23.5 45,51.5 20,21 37.5,36.5 17.5,15.5 37,25 19.5,9.5 43.5,15.5 24,6 59,11 l 40,6 v -52 q 0,-34 -3,-43.5 -3,-9.5 -13,-9.5 -6,0 -15.5,3.5 -9.5,3.5 -20.5,11.5 -13,10 -19.5,10 -6.5,0 -6.5,-11 0,-11 -5,-12 -5,-1 -11,-1 -9,0 -23,1 -15,3 -25,3 -1,0 -7.5,-0.5 -6.5,-0.5 -6.5,-3.5 0,-3 7.5,-12 7.5,-9 16.5,-17 21,-21 24.5,-33.5 3.5,-12.5 3.5,-16.5 0,-9 -8,-9 -9,0 -9,-13 0,-13 9,-13 1,0 6.5,0.5 5.5,0.5 24.5,16.5 20,16 26,17 6,1 6,1 4,0 4,-2 0,-3 -6,-10 -8,-9 -8,-16 0,-5 4,-8.5 4,-3.5 10,-3.5 8,0 19,7 9,6 15,6 5,0 7.5,-4 2.5,-4 2.5,-17 0,-13 -3,-34 l -6,-48 h -59 q -21,0 -44,1.5 -23,1.5 -44.5,4.5 -21.5,3 -40,6.5 -18.5,3.5 -30.5,8.5 -6,3 -10,3 -5,0 -5,-5 0,-2 2.5,-10.5 2.5,-8.5 28.5,-36.5 25,-28 27,-35.5 2,-7.5 2,-9.5 0,-10 -13,-20 -11,-6 -11.5,-8.5 -0.5,-2.5 -0.5,-3.5 0,-4 7,-11 6,-6 10,-6 0,0 2,0.5 2,0.5 9,7.5 5,7 27.5,16 22.5,9 56.5,18 20,6 33.5,9 13.5,3 20,3 6.5,0 7.5,-3 1,-3 1,-10 0,-11 3,-11 0,0 2,0.5 2,0.5 22,16.5 20,18 29.5,19.5 9.5,1.5 15.5,1.5 13,0 30,-3 19,-8 19,-28 0,-8 3,-8 0,0 2,0.5 2,0.5 16,17.5 8,8 13.5,13 5.5,5 12,6.5 6.5,1.5 13.5,1.5 3,0 9,-0.5 6,-0.5 23,-2.5 18,-3 30,-3 3,0 10.5,0.5 7.5,0.5 7.5,5.5 0,3 -6,7 -6,4 -16,6 -13,3 -13,7 0,9 85.5,22 85.5,13 312.5,30 l 148,10 35,-33 q 14,-14 25,-28.5 11,-14.5 13,-24.5 1,-6 5.5,-11.5 4.5,-5.5 10.5,-7.5 3,0 5,0 5,0 6,1 1,1 1,2 0,3 -2,8 -1,4 -1,8 0,12 11.5,30.5 11.5,18.5 37.5,43 26,24.5 63,50.5 37,26 83,49 24,13 44,25 20,12 20,19 0,1 -0.5,2.5 -0.5,1.5 -1.5,1.5 -2,0 -9,-3 -7,-3 -27,-13 -20,-10 -59,-30 -79,-40 -124.5,-55.5 -45.5,-15.5 -62.5,-15.5 -9,0 -13,3 -3,3 -3,8 0,9 11.5,26.5 11.5,17.5 39.5,44 28,26.5 65,53.5 37,27 75,45 29,15 45,23 16,8 23,13 7,5 7,7 0,2 -1,3 -1,1 -4,1 -7,0 -30.5,-10 -23.5,-10 -63.5,-30 -50,-25 -95,-43.5 -45,-18.5 -74,-26 -29,-7.5 -46,-7.5 -4,0 -14.5,1 -10.5,1 -10.5,13 0,11 19,33.5 19,22.5 47.5,47.5 28.5,25 61.5,48.5 33,23.5 67,40.5 23,12 43.5,25.5 20.5,13.5 20.5,16.5 0,1 -2,1 -5,0 -28,-10 -23,-10 -56,-26 -114,-57 -155,-67.5 -41,-10.5 -56,-10.5 -25,0 -31,16 0,1 0,2 0,8 17.5,28 17.5,20 46,45.5 28.5,25.5 63,50 34.5,24.5 86.5,51.5 8,4 25,13 17,9 24,13.5 7,4.5 7,6.5 0,2 -1,3 -1,1 -2,1 -7,0 -33.5,-11.5 -26.5,-11.5 -66.5,-31.5 -86,-43 -134,-58 -48,-15 -83,-15 -13,0 -25,2 -9,1 -15,1 -5,0 -8,-1 -3,-1 -3,-5 0,-3 1,-6 1,-3 1,-6 0,-4 -3,-7.5 -3,-3.5 -25,-4.5 -22,-1 -50,-1 -19,0 -60.5,0.5 -41.5,0.5 -104.5,1.5 -198,3 -289.5,7.5 -91.5,4.5 -152.5,14.5 -45,8 -78,18.5 -33,10.5 -33,20.5 0,4 -5,5.5 -5,1.5 -9,1.5 -1,0 -5,-0.5 -4,-0.5 -9.5,-3.5 -5.5,-3 -5.5,-7 -2,-5 -17.5,-25.5 -15.5,-20.5 -38.5,-45.5 l -54,-58 -58,55 q -45,45 -52,60.5 -7,15.5 -7,20.5 0,12 18,12 20,0 52,-14.5 32,-14.5 62,-38.5 13,-10 24.5,-17.5 11.5,-7.5 16.5,-7.5 3,0 3,2 0,4 -8.5,15 -8.5,11 -36.5,32 -25,20 -42,37.5 -17,17.5 -29,35 -12,17.5 -18.5,34 -6.5,16.5 -6.5,35.5 0,17 -5,17 -1,0 -5.5,-2.5 -4.5,-2.5 -13.5,-34.5 -4,-16 -10,-30.5 -6,-14.5 -11,-20.5 -6,-5 -12.5,-18.5 -6.5,-13.5 -11.5,-27.5 -8,-27 -14.5,-37 -6.5,-10 -8.5,-10 -3,0 -3,9 0,10 -3,10 -2,0 -9,-9 -7,-9 -18,-41 -5,-20 -13,-37.5 -8,-17.5 -15,-23.5 -4,-4 -8,-11.5 -4,-7.5 -4,-17.5 0,-8 2.5,-8 2.5,0 10.5,7 15,13 23,15 8,2 14,2 8,0 18,-2 15,-3 31.5,-9.5 16.5,-6.5 31,-14 14.5,-7.5 24.5,-15.5 10,-8 10,-13 0,-7 -27,-20.5 -27,-13.5 -65,-23.5 -26,-6 -40.5,-13 -14.5,-7 -14.5,-9 0,-2 14.5,-11.5 14.5,-9.5 32.5,-18.5 22,-12 37.5,-23 15.5,-11 17.5,-14 0,-1 0,-2 0,-5 -8.5,-11.5 -8.5,-6.5 -22.5,-12 -14,-5.5 -25,-7.5 -11,-2 -18,-2 -9,0 -19,2 -7,2 -12,2 -6,0 -6,-4 0,-1 3.5,-7 3.5,-6 39.5,-26 18,-10 31,-19 13,-9 13,-12 0,-4 10.5,-11.5 10.5,-7.5 25.5,-14.5 30,-18 30,-29 0,-1 0,-2 -1,-1 -1,-3 0,-12 36,-32 18,-10 38.5,-24.5 20.5,-14.5 35.5,-27.5 z m -1,62 q 0,-20 -4,-21 -4,-1 -5,-1 -7,0 -18,14 -5,5 -5,10 0,8 10,14 8,4 13,4 2,0 5.5,-1.5 3.5,-1.5 3.5,-18.5 z m 270,29 q -20,-6 -41,-11 -21,-5 -22,-5 -2,0 -8.5,10 -6.5,10 -14.5,24 l -19,38 46,-6 q 18,-2 45,-4 27,-2 47,-2 46,0 46,-10 0,-1 -4,-8 -4,-7 -75,-26 z m -336,29 q -5,-17 -8,-18 -3,-1 -4,-1 -6,0 -21,13 -13,9 -13,13 0,0 1,2 1,2 21,10 19,8 25,8 2,0 2.5,-1 0.5,-1 0.5,-3 0,-7 -4,-23 z m 601,3 q 1,-1 1,-2 0,-3 -10,-3 -9,0 -10,1 -1,1 -1,2 0,1 4,3 5,2 9,2 4,0 7,-3 z m -127,3 q 0,-4 -7,-6 -7,-2 -16,-2 -9,0 -13,1.5 -4,1.5 -4,4.5 0,1 1,2 2,3 8.5,6 6.5,3 13.5,3 7,0 12,-3 5,-3 5,-6 z m 834,64 q -2,-3 -10,-14 -8,-11 -19,-25 l -28,-30 -48,56 40,6 q 17,2 32.5,5 15.5,3 20.5,5 4,2 7,2 1,0 3,-0.5 2,-0.5 2,-4.5 z m -1343,-37 q -20,-8 -24.5,-8 -4.5,0 -8.5,6 -3,6 -3,15.5 0,9.5 2.5,20 2.5,10.5 5.5,20 3,9.5 7,12.5 3,0 5,0 3,0 7,-0.5 4,-0.5 11,-6.5 6,-5 9,-5 2,0 3,3 1,3 1,13 0,4 0,9 0,5 0,9 0,42 24,42 15,0 38,-15 11,-7 22,-16 11,-9 11,-12 0,-4 -13.5,-17 -13.5,-13 -31.5,-27.5 -18,-14.5 -36.5,-27 -18.5,-12.5 -28.5,-15.5 z m 496,22 q 3,-10 3,-15 0,-2 -1.5,-4.5 -1.5,-2.5 -7.5,-2.5 -8,0 -11.5,7.5 -3.5,7.5 -4,14 -0.5,6.5 -0.5,9.5 0,6 1.5,13.5 1.5,7.5 7.5,10.5 3,2 4,2 4,0 4,-8 0,-5 2,-13.5 2,-8.5 3,-13.5 z m 83,29 q -2,-17 -4,-26.5 -2,-9.5 -5,-14.5 -3,-5 -8.5,-6.5 -5.5,-1.5 -14.5,-2.5 -7,-1 -11,-1 -3,0 -6.5,0.5 -3.5,0.5 -7.5,4.5 -4,4 -6.5,13 -2.5,9 -4.5,19 -9,33 -9,49 0,9 4.5,17.5 4.5,8.5 37.5,8.5 13,0 24,-2 11,-2 13,-5 1,-1 1,-9 0,-4 -0.5,-14.5 -0.5,-10.5 -2.5,-30.5 z m 36,-24 q 0,-9 -2,-16.5 -2,-7.5 -7,-9.5 -1,0 -1,0 -4,0 -6.5,7.5 -2.5,7.5 -2.5,26.5 0,27 6,27 0,0 4,-1.5 4,-1.5 9,-33.5 z m 332,0 q -52,-4 -98.5,-8 -46.5,-4 -83.5,-7 -37,-3 -62,-5 -25,-2 -31,-3 -9,-1 -15,-1 -3,0 -8,0.5 -5,0.5 -10,8 -5,7.5 -9.5,25.5 -4.5,18 -12.5,53 l -5,25 116,-6 q 24,-1 58,-4 34,-3 72.5,-6.5 38.5,-3.5 78,-8.5 39.5,-5 74.5,-9 56,-8 92,-12 36,-4 48.5,-4.5 12.5,-0.5 16.5,-0.5 12,0 15.5,1 3.5,1 3.5,3 0,2 -2,4 0,1 -19.5,4.5 -19.5,3.5 -52.5,8 -33,4.5 -76.5,10.5 -43.5,6 -119.5,17 -85,11 -151.5,20 -66.5,9 -101,16.5 -34.5,7.5 -45,13.5 -10.5,6 -10.5,15 0,11 12,18.5 12,7.5 44,17.5 20,6 54.5,15 34.5,9 76.5,18.5 42,9.5 88,19.5 46,10 85.5,18.5 39.5,8.5 68,13.5 28.5,5 35.5,5 7,0 11.5,-3.5 4.5,-3.5 5.5,-7 1,-3.5 1,-5.5 0,-3 -2,-7 -2,-4 -6,-5 -4,-1 -4,-4 0,-4 8,-14.5 8,-10.5 29,-30.5 24,-23 32.5,-36 8.5,-13 8.5,-21 0,-2 0,-3 -1,-2 -1,-4 0,-15 37,-52 36,-36 36,-52 0,-13 -22,-13 -6,0 -29,-1 -23,-1 -59,-3.5 -36,-2.5 -81,-6 -45,-3.5 -91,-7.5 z m -999,8 q -2,-10 -4,-16.5 -2,-6.5 -4,-6.5 0,0 -1,0 -1,0 -6.5,2 -5.5,2 -12.5,5.5 -7,3.5 -13,7.5 -6,4 -6,6 0,3 7.5,7 7.5,4 18.5,9 16,6 20,6 1,0 2,-0.5 1,-0.5 1,-4.5 0,-5 -2,-15 z m 219,43 q -3,0 -15.5,8 -12.5,8 -25.5,18.5 -13,10.5 -23,19.5 -10,9 -10,11 2,3 12.5,8 10.5,5 25.5,8 l 36,9 z m 1137,76 q 0,0 0,0 0,-2 -8,-12.5 -8,-10.5 -21,-26.5 l -33,-34 -21,24 q -8,11 -12.5,18 -4.5,7 -4.5,9 0,1 1,1 2,1 17.5,5 15.5,4 33.5,7.5 18,3.5 30.5,6 12.5,2.5 16.5,2.5 z m -1311,-1 q -5,-20 -10.5,-32.5 -5.5,-12.5 -9.5,-14.5 -1,0 -1,0 -5,0 -17,6 -12,6 -26,15 -14,9 -25.5,17.5 -11.5,8.5 -11.5,12.5 0,2 5,5 5,3 10,3 7,0 22.5,4.5 15.5,4.5 35.5,13.5 12,6 23.5,10.5 11.5,4.5 13.5,4.5 0,-2 -2,-15 -2,-13 -7,-30 z m 472,-19 q 0,-6 -2,-9.5 -2,-3.5 -6,-3.5 -4,0 -7,3.5 -3,3.5 -3,8.5 0,6 3,10 3,4 7,4 8,0 8,-13 z m 95,-4 q -13,0 -26.5,-2 -13.5,-2 -19.5,-4 -7,-1 -12,-1 -6,0 -8.5,2.5 -2.5,2.5 -2.5,13.5 0,21 7.5,22.5 7.5,1.5 11.5,1.5 13,0 39,-7 35,-10 36,-14 1,-4 1,-5 0,-7 -26,-7 z m 67,6 q 2,-2 2,-3 0,-3 -8,-3 -7,0 -7,3 0,1 1,3 4,1 7,1 3,0 5,-1 z m -217,8 q -8,-5 -15,-5 -3,0 -9,3 -6,3 -18,23 l -15,25 h 25 q 11,0 20.5,-5 9.5,-5 15,-12 5.5,-7 6,-11 0.5,-4 0.5,-4 0,-7 -10,-14 z m -352,12 q -15,0 -26.5,-3.5 -11.5,-3.5 -19.5,-9.5 -4,-4 -5,-4 0,0 -0.5,0.5 -0.5,0.5 -0.5,1.5 0,3 3,15 7,20 44.5,68.5 37.5,48.5 93.5,109.5 l 56,60 18,-36 q 17,-34 17.5,-44.5 0.5,-10.5 0.5,-11.5 0,-19 -17,-32 -8,-6 -8.5,-8 -0.5,-2 -0.5,-2 0,-3 11,-11 8,-8 8,-13 0,-1 -1,-4 -1,-3 -14,-15 -18,-18 -36.5,-27.5 -18.5,-9.5 -39.5,-17 -21,-7.5 -43,-12 -22,-4.5 -40,-4.5 z m 407,17 q 0,-5 -4.5,-8 -4.5,-3 -7.5,-3.5 -3,-0.5 -4,-0.5 -4,0 -8.5,1.5 -4.5,1.5 -7.5,9.5 -2,5 -2,9 0,3 1,6 1,1 4,1 2,0 5.5,-0.5 3.5,-0.5 9,-2.5 5.5,-2 10,-5 4.5,-3 4.5,-7 z m 122,6 q 0,-12 -6.5,-13 -6.5,-1 -8.5,-1 -9,0 -15,9 -2,2 -2.5,3.5 -0.5,1.5 -0.5,2.5 0,1 1,1 2,0 7.5,2 5.5,2 7.5,3 5,2 9,2 8,0 8,-9 z m -51,11 q -4,0 -10,-1.5 -6,-1.5 -11,-2.5 -5,-2 -9,-2 -6,0 -8,4 -1,1 -1,3 0,2 5,5 5,3 16,5 8,2 14,2 11,0 11,-7 0,-6 -7,-6 z m 694,74 q -1,-4 -10,-15.5 -9,-11.5 -20,-25.5 l -28,-33 -23,24 q -10,11 -17,19.5 -7,8.5 -7,10.5 0,2 11,5 11,3 27,4 14,2 29.5,5.5 15.5,3.5 22.5,5.5 5,3 9,3 1,0 3.5,-0.5 2.5,-0.5 2.5,-2.5 z m -684,-42 q -25,-3 -33.5,-4 -8.5,-1 -11.5,-1 -8,0 -12.5,3 -4.5,3 -5,13.5 -0.5,10.5 -0.5,27.5 0,23 1,34 1,11 6.5,16.5 5.5,5.5 18.5,8 13,2.5 37,5.5 l 41,5 v -102 z m 309,56 q -64,-12 -101.5,-19.5 -37.5,-7.5 -66.5,-13 -29,-5.5 -47.5,-8.5 -18.5,-3 -22.5,-3 -8,0 -10,9 -2,9 -2,39 0,15 0.5,24.5 0.5,9.5 3,15 2.5,5.5 8,7.5 5.5,2 11.5,3 15,3 50.5,4.5 35.5,1.5 71,2 35.5,0.5 59.5,0.5 25,0 64.5,-0.5 39.5,-0.5 83.5,-1.5 44,-1 73.5,-3 29.5,-2 31.5,-6 0,-1 0,-1 0,-2 -2,-4.5 -2,-2.5 -23.5,-8 -21.5,-5.5 -69,-14.5 -47.5,-9 -112.5,-22 z m -805,-26 q -9,-9 -14.5,-13 -5.5,-4 -11.5,-4 0,0 -3.5,0.5 -3.5,0.5 -11.5,6 -8,5.5 -20,14.5 -36,28 -51.5,47.5 -15.5,19.5 -15.5,29.5 0,4 3,7 4,4 13,4 3,0 13,-1.5 10,-1.5 28,-8.5 18,-7 36,-17.5 18,-10.5 29,-21.5 l 24,-25 z m 207,4 q 0,-4 -5,-4 -4,0 -4,4 0,3 4,3 5,0 5,-3 z m 42,45 q -17,-14 -25.5,-14 -8.5,0 -14.5,16 -1,4 -6,18.5 -5,14.5 -10,29.5 -8,21 -8,26 0,1 0.5,2.5 0.5,1.5 3.5,1.5 3,0 8,-2 12,-3 47,-9 35,-6 78,-12 42,-5 70,-11 28,-6 28,-10 0,0 0,0 -2,-3 -22,-8 -20,-5 -43.5,-8.5 -23.5,-3.5 -38,-5 -14.5,-1.5 -19.5,-1.5 -9,0 -12,2 -1,1 -4,1 -3,0 -11,-3 -8,-3 -21,-13 z m -389,11 q 7,-12 7,-17 0,-1 -1.5,-2.5 -1.5,-1.5 -8.5,-1.5 -5,0 -12,1 -18,4 -19,6 -1,2 -1,3 0,4 11,15 9,9 13,9 0,0 2,-0.5 2,-0.5 9,-12.5 z m 1238,43 q -11,-11 -23,-17.5 -12,-6.5 -18,-7.5 -6,-1 -8,-1 -7,0 -12,3.5 -5,3.5 -5,12.5 0,10 8.5,15.5 8.5,5.5 39.5,13.5 26,6 33,6 1,0 1.5,0 0.5,0 0.5,-1 0,-4 -17,-24 z m -651,-10 q 1,-2 1,-3 0,-3 -6,-3 -7,0 -7,4 0,1 0,2 4,1 7,1 3,0 5,-1 z m -527,16 q 0,-6 -9,-6 -1,0 -7.5,0.5 -6.5,0.5 -14.5,6.5 -10,6 -10,17 0,5 2,11 l 6,21 17,-21 q 7,-9 11.5,-17 4.5,-8 4.5,-12 z m 30,111 q 12,-17 12,-22 0,0 -0.5,-1 -0.5,-1 -5.5,-1 -5,0 -16,2 -20,3 -20,15 0,6 6,16 6,8 9,8 1,0 3.5,-1.5 2.5,-1.5 11.5,-15.5 z"
     id="path1" />
</svg>
