<?xml version="1.0" encoding="UTF-8" standalone="no"?>
<svg
   width="2000"
   height="2000"
   version="1.1"
   id="svg1"
   sodipodi:docname="u12248.svg"
   inkscape:version="1.3.2 (091e20e, 2023-11-25)"
   xmlns:inkscape="http://www.inkscape.org/namespaces/inkscape"
   xmlns:sodipodi="http://sodipodi.sourceforge.net/DTD/sodipodi-0.dtd"
   xmlns="http://www.w3.org/2000/svg"
   xmlns:svg="http://www.w3.org/2000/svg">
  <defs
     id="defs1" />
  <sodipodi:namedview
     id="namedview1"
     pagecolor="#505050"
     bordercolor="#eeeeee"
     borderopacity="1"
     inkscape:showpageshadow="0"
     inkscape:pageopacity="0"
     inkscape:pagecheckerboard="0"
     inkscape:deskcolor="#505050"
     inkscape:zoom="0.379"
     inkscape:cx="1000"
     inkscape:cy="998.68074"
     inkscape:window-width="1392"
     inkscape:window-height="1212"
     inkscape:window-x="0"
     inkscape:window-y="0"
     inkscape:window-maximized="0"
     inkscape:current-layer="svg1" />
  <path
     d="m 1591,649.5 q 13,-17 25,-20 12,0 12,12 0,2 -1.5,11.5 -1.5,9.5 -13.5,20.5 -10,9 -23,33.5 -13,24.5 -22,54.5 -36,107 -54,230 -18,123 -18,270 0,52 -2,80.5 -2,28.5 -8,28.5 -6,0 -7,-28 -1,-28 -1,-45 0,-45 3,-126 2,-59 2,-112 0,-135 -13.5,-239.5 -13.5,-104.5 -55.5,-131.5 -11,-6 -11,-11 0,-4 20,-5 20,-1 39,-1 13,0 27,0 28,0 45.5,-0.5 17.5,-0.5 28,-2 10.5,-1.5 16.5,-6 6,-4.5 12,-13.5 z m -783,105 q 31,-35 52,-56.5 21,-21.5 25,-21.5 1,0 1,0 0,0 0,1 0,4 -9,25.5 -9,21.5 -26,51.5 -18,33 -24,50 -6,17 -6,28 0,6 3,16.5 3,10.5 19,22.5 16,12 46,25 22,11 38.5,21.5 16.5,10.5 16.5,16.5 0,3 -4,3 -12,0 -54,-20 Q 854,902.5 825.5,893 797,883.5 782,880.5 l -36,-6 6,30 q 12,54 41,54 9,0 12,4 1,6 20.5,15 19.5,9 46.5,20 29,9 48.5,19.5 19.5,10.5 20.5,16.5 2,3 2,5 0,2 -3,2 -4,0 -14,-4 -15,-6 -48.5,-18 -33.5,-12 -67.5,-23.5 -34,-11.5 -58.5,-17.5 -24.5,-6 -28.5,-6 -1,0 -1,0 -3,2 -3,6 0,4 2,9 6,20 38,38 32,18 103,46 33,12 41.5,17.5 8.5,5.5 8.5,7.5 0,2 -2,2.5 -2,0.5 -4,0.5 -8,0 -27.5,-5.5 -19.5,-5.5 -70.5,-23.5 -66,-26 -85.5,-30 -19.5,-4 -25.5,-4 -15,0 -15,10 0,7 8,17 8,10 21,19.5 13,9.5 27,18 14,8.5 34,14.5 13,4 32.5,11.5 19.5,7.5 35.5,16 16,8.5 24,14 8,5.5 8,8.5 0,0 0,1 -1,3 -6,3 -8,0 -24,-8 -15,-7 -46.5,-18.5 -31.5,-11.5 -63.5,-21 -32,-9.5 -51,-15 -19,-5.5 -27,-5.5 -7,0 -10,3 -1,2 -1,3 0,5 7.5,12.5 7.5,7.5 22.5,7.5 14,0 14,9 0,3 -1,7 0,3 0,5 0,5 1.5,9 1.5,4 10.5,11 9,7 27,16.5 18,9.5 39,20.5 47,24 83.5,40.5 36.5,16.5 48.5,22.5 23,9 23,13 0,1 -3,2 -2,1 -6,1 -10,0 -31.5,-7.5 -21.5,-7.5 -64.5,-26.5 -15,-8 -33,-15.5 -18,-7.5 -25,-7.5 -4,0 -5,2 -2,1 -4,1 -5,0 -13,-6 -16,-12 -38,-12 -16,0 -48,10 -32,10 -80,53 -18,17 -28.5,21 -10.5,4 -15.5,4 -2,0 -4,-1 -2,-2 -2,-5 0,-1 1,-4 1,-3 8,-6 6,-6 20.5,-26 14.5,-20 29.5,-46 l 37,-61 -34,-6 q -14,-3 -37,-5.5 -23,-2.5 -40,-2.5 -21,0 -34.5,4.5 -13.5,4.5 -24.5,15 -11,10.5 -21,28.5 -10,18 -20,47 -14,39 -20,42.5 -6,3.5 -8,3.5 -3,0 -3,-7 0,-5 2,-15 5,-20 6.5,-54.5 1.5,-34.5 1.5,-68.5 0,-41 2,-65.5 2,-24.5 8,-24.5 8,0 8,22 0,17 4.5,28 4.5,11 18,17 13.5,6 37.5,9 24,3 67,5 32,2 53,2 17,0 31,-2 14,-2 14,-14 0,-10 -15,-15 -9,-3 -9,-7 0,-1 0.5,-3.5 0.5,-2.5 12.5,-19.5 20,-22 20,-33 0,-4 6,-14.5 6,-10.5 13,-22.5 9,-12 12,-18 3,-6 3,-8 0,-1 -1,-1 -1,0 -1,-1 0,-2 5.5,-11 5.5,-9 17.5,-24 26,-33 27,-37 1,-4 1,-5 0,-6 -14,-6 -11,0 -15,-2.5 -4,-2.5 -4,-4.5 0,-1 1,-2 0,0 0,-1 0,-2 -26.5,-6 -26.5,-4 -66.5,-5 l -99,-6 -27,30 q -12,12 -24,32 -12,20 -21,41 -14,30 -19.5,32.5 -5.5,2.5 -6.5,2.5 -3,0 -3,-7 0,-7 3,-20 2,-12 3.5,-47.5 1.5,-35.5 1.5,-66.5 0,-44 3,-68 3,-24 7,-24 3,0 6,7 3,7 3,16 0,10 5.5,22 5.5,12 12.5,20 6,6 13.5,9 7.5,3 23.5,5 16,2 44,2 h 4 q 2,0 3,0 h 2 q 1,0 2,0 h 6 q 1,0 2,0 h 7 q 1,0 2,0 h 2 q 1,0 2,0 h 43 l 138,-1 z m 762,-54 q 0,-3 -16.5,-5.5 -16.5,-2.5 -33.5,-3.5 -17,-1 -28,-1 -8,0 -21.5,0.5 -13.5,0.5 -16.5,4.5 -1,1 -1,3 0,6 7,20 9,15 15,36 6,21 10.5,45.5 4.5,24.5 8.5,50 4,25.5 4,46.5 v 38 l 13,-47 q 6,-19 16,-52 10,-33 19,-59 9,-28 15.5,-50.5 6.5,-22.5 8.5,-25.5 z m -618,186 q 1,-51 4,-83.5 3,-32.5 11,-32.5 4,0 4,11 0,10 7,20.5 7,10.5 17,19.5 l 23,24 h 220 q 107,0 164,2.5 57,2.5 57,6.5 0,5 -51,7 -51,2 -146,2 h -198 l -40,42 q -41,41 -54,92 -6,21 -11,21 -3,0 -5.5,-14.5 -2.5,-14.5 -2.5,-57.5 0,-25 1,-60 z m -152,-65 q 3,-7 4.5,-13 1.5,-6 3.5,-11 0,-4 1,-9 -1,0 -11,10 l -55,56 h 24 q 15,0 21,-6 6,-6 12,-27 z m -355,32 q -11,-8 -17,-8 -2,0 -5.5,3 -3.5,3 -3.5,27 v 30 l 21,-21 q 14,-13 15,-16 1,-3 1,-4 0,-5 -11,-11 z m 576,10 q -3,-3 -11.5,-6.5 -8.5,-3.5 -15.5,-6.5 -7,-2 -12,-2 -5,0 -8,4 -3,4 -3,32 v 39 l 29,-27 q 12,-12 17,-19.5 5,-7.5 5,-10.5 0,-2 -1,-3 z m -288,84 q 4,-4 4,-11 0,-8 -4,-19 -2,-6 -2.5,-6 -0.5,0 -5.5,8 -4,10 -4,17 0,4 2,8.5 2,4.5 5,4.5 3,0 5,-2 z m -35,66 q 5,-3 5,-10 0,-5 -3,-12 -5,-14 -7,-14 -2,0 -7,9 -4,9 -4,15 0,4 2.5,8.5 2.5,4.5 8.5,4.5 2,0 5,-1 z m -36,41 q -3,-12 -6,-12 -1,0 -5,6 -4,6 -7,13 -6,10 -6,14 0,0 1,2 1,2 10,2 16,0 16,-13 0,-5 -3,-12 z m 270,160 q 3,-94 7,-110.5 4,-16.5 7,-16.5 5,0 10,22 6,26 14.5,36.5 8.5,10.5 35.5,15 27,4.5 62,5 35,0.5 56,0.5 41,0 95,-1 57,-1 100,-1 54,0 97.5,2 43.5,2 46.5,6 0,0 0,1 0,5 -45,7.5 -45,2.5 -154,2.5 h -207 l -53,51 q -51,48 -51,73 0,8 -3,17.5 -3,9.5 -6,15.5 -3,5 -5,5 -5,0 -6.5,-16.5 -1.5,-16.5 -1.5,-44.5 0,-28 1,-70 z m -514,-58 q 4,-8 4,-13 0,-8 -7,-11 -2,-1 -4,-1 -11,0 -11,26 0,17 4,17 5,0 14,-18 z m 249,7 q -15,-18 -23,-18 -4,0 -11.5,10.5 -7.5,10.5 -15,24 -7.5,13.5 -13.5,26.5 -6,13 -6,17 0,1 1,1 2,0 9.5,-3.5 7.5,-3.5 21,-9.5 13.5,-6 27.5,-13.5 14,-7.5 23,-11.5 0,-1 0,-2 0,-7 -13,-21 z m 327,15 q -18,-4 -26,-9 -3,-1 -6,-1 -5,0 -7,6.5 -2,6.5 -2,32.5 v 45 l 29,-27 q 24,-24 25,-28 1,-4 1,-5 0,-7 -14,-14 z"
     id="path1" />
</svg>
