<?xml version="1.0" encoding="UTF-8" standalone="no"?>
<svg
   width="2000"
   height="2000"
   version="1.1"
   id="svg1"
   sodipodi:docname="u122DC.ss01.svg"
   inkscape:version="1.3.2 (091e20e, 2023-11-25)"
   xmlns:inkscape="http://www.inkscape.org/namespaces/inkscape"
   xmlns:sodipodi="http://sodipodi.sourceforge.net/DTD/sodipodi-0.dtd"
   xmlns="http://www.w3.org/2000/svg"
   xmlns:svg="http://www.w3.org/2000/svg">
  <defs
     id="defs1" />
  <sodipodi:namedview
     id="namedview1"
     pagecolor="#505050"
     bordercolor="#eeeeee"
     borderopacity="1"
     inkscape:showpageshadow="0"
     inkscape:pageopacity="0"
     inkscape:pagecheckerboard="0"
     inkscape:deskcolor="#505050"
     inkscape:zoom="0.379"
     inkscape:cx="1000"
     inkscape:cy="998.68074"
     inkscape:window-width="1392"
     inkscape:window-height="1212"
     inkscape:window-x="0"
     inkscape:window-y="0"
     inkscape:window-maximized="0"
     inkscape:current-layer="svg1" />
  <path
     d="m 1112,645 q 0,-8 16,-8 10,0 25,3 29,7 59,7 3,0 21.5,-0.5 18.5,-0.5 42.5,-9.5 0,0 1,0 h 2 q 5,-2 9,-3 h 1 q 0,0 1,0 4,-1 7,-2 4,-1 6,-1 3,0 4,2 1,1 1,3 0,5 -5,18 -5,13 -17,33 -24,45 -37.5,69.5 -13.5,24.5 -18.5,52.5 -5,28 -5,68 0,4 0.5,29 0.5,25 2.5,84 0,52 0,92 0,60 -1,103 -1,43 -5,43 -5,0 -8,-50 -3,-50 -6,-139 0,-39 -1.5,-77 -1.5,-38 -3.5,-70.5 -2,-32.5 -3.5,-56.5 -1.5,-24 -4.5,-42 -8,-31 -26,-68 -18,-37 -42,-59 -15,-14 -15,-21 z m 165,18 q 0,-5 -18,-6.5 -18,-1.5 -42,-1.5 -27,0 -45.5,2.5 -18.5,2.5 -18.5,5.5 0,3 6,12 6,9 10,16 12,17 19.5,32.5 7.5,15.5 12.5,30.5 1,8 3.5,17 2.5,9 3.5,10 1,1 2,1 3,0 12.5,-14.5 9.5,-14.5 21.5,-36.5 12,-22 22.5,-43 10.5,-21 10.5,-25 z M 692,781 q 0,-90 4,-103.5 4,-13.5 8,-13.5 5,0 11,11 15,21 54,41 39,20 75,31 34,10 74,13 40,3 112,3 63,0 97.5,2.5 34.5,2.5 34.5,6.5 0,3 -31.5,5.5 -31.5,2.5 -82.5,2.5 -141,0 -217,17 -76,17 -110,58 l -12,12 q -1,0 -1,0 l -13,13 q -1,0 -2,-31.5 -1,-31.5 -1,-67.5 z m 128,-25 q -17,-5 -37,-14 -20,-9 -34,-16 l -36,-21 v 124 l 27,-16 q 12,-8 32.5,-14.5 Q 793,792 818,786 q 11,-3 23.5,-7 12.5,-4 12.5,-7 0,-3 -10.5,-7.5 Q 833,760 820,756 Z m 93,121 q 22,-1 49,-2 27,-1 33,-2 2,0 3,0 5,0 5.5,3 0.5,3 0.5,3 0,7 -10,15 -8,4 -8,8 0,4 16.5,7.5 16.5,3.5 85.5,3.5 98,0 98,9 0,7 -62,7 -20,0 -48,-1 l -109,-1 -45,64 4,128 5,124 30,8 q 12,3 45,3.5 33,0.5 50,0.5 35,0 73,-1 57,0 102.5,1.5 45.5,1.5 54.5,4.5 3,1 3,2 0,3 -33,5.5 -33,2.5 -124,5.5 -171,3 -256,22.5 -85,19.5 -101,55.5 -5,18 -9,18 -6,0 -7,-31.5 -1,-31.5 -1,-115.5 0,0 0,-1 v -2 q 0,0 0,0 v -1 q 0,0 0,-1 v -3 q 0,0 0,-1 v -1 q 0,0 0,-1 v -25 q 0,-33 2,-33 3,3 7,6 l 17,17 q 10,9 29.5,19.5 19.5,10.5 39,19.5 19.5,9 32.5,12.5 13,3.5 18,3.5 3,0 4,-1 3,-3 4,-25.5 1,-22.5 1,-41.5 0,-14 -0.5,-39 -0.5,-25 -2.5,-61 -2,-36 -8,-63 -18,-78 -68,-100 -11,-5 -11,-10 0,-2 8.5,-6 8.5,-4 82.5,-7 z m 49,24 q 0,-3 -13.5,-3.5 Q 935,897 916,897 h -47 l 17,22 q 7,11 12.5,21.5 5.5,10.5 8.5,17.5 2,8 5,8 2,0 5,-2.5 3,-2.5 20,-24.5 12,-14 18.5,-25 6.5,-11 6.5,-13 z m 17,71 q 0,-5 27.5,-7 27.5,-2 75.5,-2 48,0 76,2 28,2 28,7 0,3 -28,5 -28,2 -76,2 -48,0 -75.5,-2 -27.5,-2 -27.5,-5 z m 0,49 q 0,-3 27.5,-6 27.5,-3 75.5,-3 48,0 76,3 28,3 28,6 0,3 -28,5.5 -28,2.5 -76,2.5 -48,0 -75.5,-2.5 Q 979,1024 979,1021 Z m 0,50 q -8,0 -8,-1 0,-1 4.5,-2.5 4.5,-1.5 21,-3 16.5,-1.5 40,-3 23.5,-1.5 45.5,-1.5 23,0 44.5,1.5 21.5,1.5 36,3 14.5,1.5 18,2.5 3.5,1 3.5,1 0,1 -7,1 -11,2 -38,4 -27,2 -61,2 -29,0 -58,-1.5 -29,-1.5 -41,-2.5 z m 0,42 q 0,-5 27.5,-7 27.5,-2 75.5,-2 48,0 76,2 28,2 28,7 0,3 -28,5 -28,2 -76,2 -48,0 -75.5,-2 -27.5,-2 -27.5,-5 z m 0,49 q 0,-3 27.5,-6 27.5,-3 75.5,-3 48,0 76,3 28,3 28,6 0,3 -28,6 -28,3 -76,3 -48,0 -75.5,-3 -27.5,-3 -27.5,-6 z m -101,80 q -18,-6 -39,-14.5 -21,-8.5 -33,-15.5 l -27,-15 v 61 q 0,47 2,52 2,5 5,5 3,0 8,-4 11,-8 34,-15.5 23,-7.5 52,-14.5 22,-6 36.5,-11 14.5,-5 14.5,-8 0,-1 0,-1 -3,-3 -18,-8 -15,-5 -35,-11 z m 101,-30 q 0,-3 27.5,-5.5 27.5,-2.5 75.5,-2.5 48,0 76,2.5 28,2.5 28,5.5 0,4 -28,6.5 -28,2.5 -76,2.5 -48,0 -75.5,-2.5 Q 979,1216 979,1212 Z"
     id="path1" />
</svg>
