<?xml version="1.0" encoding="UTF-8" standalone="no"?>
<svg
   width="2000"
   height="2000"
   version="1.1"
   id="svg1"
   sodipodi:docname="u1228D.svg"
   inkscape:version="1.3.2 (091e20e, 2023-11-25)"
   xmlns:inkscape="http://www.inkscape.org/namespaces/inkscape"
   xmlns:sodipodi="http://sodipodi.sourceforge.net/DTD/sodipodi-0.dtd"
   xmlns="http://www.w3.org/2000/svg"
   xmlns:svg="http://www.w3.org/2000/svg">
  <defs
     id="defs1" />
  <sodipodi:namedview
     id="namedview1"
     pagecolor="#505050"
     bordercolor="#eeeeee"
     borderopacity="1"
     inkscape:showpageshadow="0"
     inkscape:pageopacity="0"
     inkscape:pagecheckerboard="0"
     inkscape:deskcolor="#505050"
     inkscape:zoom="0.379"
     inkscape:cx="1000"
     inkscape:cy="998.68074"
     inkscape:window-width="1392"
     inkscape:window-height="1212"
     inkscape:window-x="0"
     inkscape:window-y="0"
     inkscape:window-maximized="0"
     inkscape:current-layer="svg1" />
  <path
     d="m 875,665.5 q 3,-27 9,-31 6,-4 9,-4 6,0 9,10 6,24 42,47 36,23 81,38 15,6 46.5,15 31.5,9 75.5,22 44,13 96.5,27 52.5,14 129.5,35 84,23 144.5,39.5 60.5,16.5 90,26 29.5,9.5 34.5,13 5,3.5 5,6.5 0,1 -1,2 -3,3 -17.5,9 -14.5,6 -37,15 -22.5,9 -52.5,19.5 -30,10.5 -49,18.5 -77,27 -122,45.5 -45,18.5 -78.5,39 -33.5,20.5 -62,43.5 -28.5,23 -61.5,56 -14,15 -26.5,26.5 -12.5,11.5 -15.5,11.5 -3,0 -4.5,-16 -1.5,-16 -1.5,-34 0,-25 -3,-53 -3,-28 -8,-56 -1,-9 -2,-20 -1,-11 -1,-15 0,-2 0,-3 1,-2 3,-2 2,0 7,2.5 5,2.5 11,7.5 30,19 57,23 27,4 42,4 23,0 45,-5 12,-3 41.5,-12 29.5,-9 65.5,-21 36,-12 75,-25.5 39,-13.5 72,-25.5 33,-12 54.5,-21 21.5,-9 24.5,-12 2,-2 2,-3 0,-1 -2.5,-2.5 -2.5,-1.5 -28.5,-10 -26,-8.5 -85.5,-25 -59.5,-16.5 -123.5,-34.5 -89,-24 -128.5,-33.5 -39.5,-9.5 -71,-16.5 -31.5,-7 -53.5,-11.5 -22,-4.5 -40,-4.5 -16,0 -53.5,3 -37.5,3 -71.5,7.5 -34,4.5 -59.5,10 -25.5,5.5 -34.5,11.5 -4,3 -9,5 -5,2 -7,2 -2,0 -3,-1 -1,-1 -1,-3 0,-4 5,-18 5,-14 11,-30 10,-26 17,-51.5 7,-25.5 10,-40.5 z m 112,65 Q 968,721.5 947.5,711 927,700.5 918,692.5 l -22,-19 -15,43 q -6,18 -11.5,33 -5.5,15 -6.5,18 0,1 0,2 0,4 6,4 6,0 21,-3 21,-3 44,-4.5 23,-1.5 44,-2.5 20,0 34,-2.5 14,-2.5 17,-5.5 1,-1 1,-1 0,-3 -11.5,-10 -11.5,-7 -31.5,-14 z m -535,30 q 1,-30 2,-51 1,-21 2,-21 3,0 14.5,8 11.5,8 27.5,19 l 39,27 153,3 q 68,1 110.5,4 42.5,3 42.5,6 0,3 -33,5.5 -33,2.5 -82,2.5 -48,0 -82,2 -34,2 -61,8 -27,6 -50,17.5 -23,11.5 -46,24.5 -16,11 -24.5,15 -8.5,4 -11.5,4 -1,0 -1,-1 -2,-1 -2.5,-13 -0.5,-12 -0.5,-15 0,-19 3,-45 z m 64,-17 q -13,-7 -25,-12.5 -12,-5.5 -14,-6.5 -1,0 -1,0 -3,0 -4.5,11 -1.5,11 -1.5,28 0,18 1.5,29 1.5,11 3.5,11 0,0 1,-1 3,-2 15,-6.5 12,-4.5 31,-13.5 11,-6 20.5,-11 9.5,-5 9.5,-7 0,-3 -9.5,-9 -9.5,-6 -26.5,-12 z m 468,51 q 0,-1 24,-1 24,0 53.5,1.5 29.5,1.5 54,3.5 24.5,2 26.5,4 0,0 0,1 0,1 -4.5,8 -4.5,7 -13.5,16 -18,20 -28.5,35.5 -10.5,15.5 -15,39 -4.5,23.5 -6,61.5 -1.5,38 -1.5,103 l -2,159 158,3 159,6 -155,1 q -115,2 -189.5,5 -74.5,3 -126,9.5 -51.5,6.5 -91.5,18 -40,11.5 -83,27.5 -26,11 -39.5,15 -13.5,4 -17.5,4 -3,0 -3,-1 -2,-1 -2,-5 0,-2 1,-7.5 1,-5.5 2,-14.5 5,-15 7,-38 2,-23 2,-52 0,-18 1,-34.5 1,-16.5 4,-16.5 1,0 11.5,6 10.5,6 19.5,12 84,57 231,57 h 90 v -133 q 0,-74 -2,-110 -2,-36 -10,-55 -3,-8 -6.5,-14 -3.5,-6 -9.5,-8 -6,-2 -17.5,-3 -11.5,-1 -26.5,-1 -34,0 -54.5,4.5 -20.5,4.5 -47.5,18.5 -1,0 -1,1 h -1 q -1,0 -1,0 l -1,1 q -1,0 -3,1 -1,1 -2,1 h -1 q -1,1 -2,1 l -1,1 q -1,0 -1,0 l -1,1 q -1,0 -2,1 h -1 q -1,0 -2,1 -2,1 -3,1 l -1,1 q 0,0 -1,0 h -1 q 0,1 -1,1 -13,6 -15,6 -1,0 -1.5,-9.5 -0.5,-9.5 -0.5,-15.5 0,-8 1,-21 1,-13 3.5,-28 2.5,-15 3.5,-16 0,-1 1,-1 4,0 14,10 20,16 36.5,20 16.5,4 62.5,4 h 72 l -21,-42 q -9,-17 -15,-29.5 -6,-12.5 -6,-14.5 z m 117,26 q 0,-3 -12.5,-5.5 -12.5,-2.5 -30.5,-2.5 -23,0 -32,3 -9,3 -9,14 0,9 8,12 3,3 8,15 5,12 10,28 l 12,39 9,-30 q 4,-13 11,-27.5 7,-14.5 14,-23.5 5,-6 8.5,-12.5 3.5,-6.5 3.5,-9.5 z m -591,4 q 0,-1 29.5,-2 29.5,-1 65.5,-1 46,0 75.5,1.5 29.5,1.5 29.5,6.5 0,3 -14,18 -10,12 -14,18.5 -4,6.5 -6,17 -2,10.5 -3,26.5 -1,16 -1,43 v 81 l 74,3 q 30,0 49.5,3 19.5,3 19.5,6 0,0 0,0 -3,3 -29.5,3.5 -26.5,0.5 -43.5,0.5 -32,0 -76,-1 -30,-2 -48,-2.5 -18,-0.5 -24,-0.5 -20,0 -37.5,1.5 -17.5,1.5 -35,5 -17.5,3.5 -38.5,9.5 -27,8 -55.5,17.5 -28.5,9.5 -43.5,18.5 -12,6 -18,8 -6,2 -8,2 -5,0 -5,-7 0,0 0,-1 v -1 q 0,0 0,0 v -1 q 0,0 0,0 v -1 q 0,0 0,-1 0,-1 0,-1 v -11 q 0,-1 0,-1 v -6 q 0,-22 0.5,-47 0.5,-25 1.5,-44.5 1,-19.5 2,-20.5 1,-1 1,-1 3,0 11.5,5.5 8.5,5.5 16.5,11.5 63,48 132,48 h 34 v -64 q 0,-39 -4.5,-58.5 -4.5,-19.5 -17.5,-46.5 -6,-11 -13,-22 -7,-11 -7,-13 z m 60,29 q 4,-8 4,-11 0,-1 -0.5,-2.5 -0.5,-1.5 -10.5,-1.5 -17,0 -17,9 0,6 6,15 2,4 5,4 5,0 13,-13 z m 98,3 q 6,-10 6,-14 0,0 -1,-2 -1,-2 -11,-2 -17,0 -17,9 0,5 5,13 5,8 8,8 1,0 2.5,-1 1.5,-1 7.5,-11 z m -33,15 q -14,-29 -18.5,-30 -4.5,-1 -5.5,-1 -8,0 -18,11 -14,15 -17.5,34 -3.5,19 -5.5,65 l -3,78 h 86 v -61 q 0,-35 -4,-56.5 -4,-21.5 -14,-39.5 z m 241,24 q 0,-5 -12,-11 -3,-1 -5,-1 -8,0 -8,13 0,13 8,13 2,0 5,-1 12,-9 12,-13 z m -43,102 q 1,-17 3.5,-29.5 2.5,-12.5 5.5,-12.5 1,0 7,4.5 6,4.5 9,7.5 15,12 36,17 21,5 65,10 l 79,7 -58,2 q -35,1 -56,5.5 -21,4.5 -52,19.5 -12,6 -24.5,11.5 -12.5,5.5 -15.5,5.5 -1,0 -1,0 0,0 0,0 0,-1 0,-1 0,0 0,-1 0,0 0,0 0,-1 0,-1 v -1 q 0,-1 0,-1 v -7 q 0,0 0,-1 v -3 q 0,-14 2,-32 z m 43,6 q 0,-5 -12,-11 -3,-1 -5,-1 -8,0 -8,13 0,13 8,13 2,0 5,-1 12,-9 12,-13 z m -457,16 q -17,-9 -31,-16.5 -14,-7.5 -16,-7.5 -1,0 -2,13.5 -1,13.5 -1,31.5 v 47 l 36,-15 q 15,-8 29.5,-13 14.5,-5 17.5,-7 9,-3 9,-6 0,-2 -4.5,-6 -4.5,-4 -37.5,-21 z m 771,27 q -15,-3 -29.5,-6.5 -14.5,-3.5 -20.5,-6.5 -4,-2 -6,-2 -5,0 -5.5,4.5 -0.5,4.5 -0.5,11.5 0,13 2,40 3,27 5,45.5 2,18.5 4,20.5 0,0 0,0 2,0 13,-8.5 11,-8.5 26,-21.5 15,-14 32,-28 17,-14 29,-22 17,-10 18,-15.5 1,-5.5 1,-6.5 0,-5 -4,-5 -3,0 -7,2 -8,3 -18,3 -4,0 -13.5,-1 -9.5,-1 -25.5,-4 z m -357,71 q 1,-20 2.5,-33.5 1.5,-13.5 3.5,-13.5 1,0 8,6 7,6 13,12 10,11 16,14.5 6,3.5 16,6 10,2.5 25.5,3 15.5,0.5 38.5,0.5 37,0 57.5,2.5 20.5,2.5 20.5,5.5 0,4 -16.5,6.5 -16.5,2.5 -42.5,2.5 -43,0 -69.5,7.5 -26.5,7.5 -45.5,22.5 -11,9 -18,9 -3,0 -6.5,-5 -3.5,-5 -3.5,-27 0,-9 1,-19 z m 37,7 q 0,-7 -9,-10 -2,-1 -3,-1 -7,0 -7,11 0,12 7,12 1,0 3,-1 9,-3 9,-11 z m -360,12 q 0,-3 17.5,-5 17.5,-2 48.5,-2 33,0 39.5,1.5 6.5,1.5 6.5,4.5 0,2 -4,6 -3,6 -10.5,10.5 -7.5,4.5 -14.5,5.5 -15,6 -15,38 0,16 3.5,20.5 3.5,4.5 21.5,4.5 23,0 23,6 0,6 -21,18 -12,6 -16.5,10.5 -4.5,4.5 -7,11.5 -2.5,7 -3,18 -0.5,11 -0.5,28 0,27 -2.5,42 -2.5,15 -6.5,15 -3,0 -5.5,-13 -2.5,-13 -2.5,-31 0,-30 -5,-42 -5,-12 -26,-31 -23,-22 -23,-30 0,0 0.5,-2.5 0.5,-2.5 10.5,-2.5 7,0 18,2 8,1 13,1 7,0 9,-2.5 2,-2.5 2,-15.5 0,-4 0,-9 -3,-33 -9,-34.5 -6,-1.5 -7,-1.5 -11,0 -32,18 -9,9 -14.5,15 -5.5,6 -9,16.5 -3.5,10.5 -5,26.5 -1.5,16 -3.5,38 -4,72 -8,73.5 -4,1.5 -4,1.5 -6,0 -6,-49 0,-7 0,-15 v -1 q 0,-2 0,-4 v -2 q 0,-1 0,-3 v -1 q 0,-2 0,-3 v -1 q 0,-1 0,-2 v -1 q 0,0 0,-1 v -8 q 0,-1 0,-1 v -6 q 0,-13 -3,-23.5 -3,-10.5 -8,-19.5 -5,-9 -14,-22 l -27,-38 h 51 q 21,0 35,-2 14,-2 14,-7 z m -24,33 q 0,-7 -13,-7 -16,0 -16,10 0,3 2,8 2,6 2,9 0,3 2,3 4,0 11,-5 12,-12 12,-18 z m 267,26 q -9,-5 -22.5,-11 -13.5,-6 -14.5,-6 -2,0 -4,16 -2,16 -3.5,35.5 -1.5,19.5 -1.5,36.5 0,17 1,19 1,1 4,1 4,0 16.5,-3.5 12.5,-3.5 32.5,-11.5 22,-7 45.5,-13 23.5,-6 35.5,-9 25,-5 25,-12 0,0 -1.5,-4 -1.5,-4 -26.5,-8 -18,-3 -40,-10.5 -22,-7.5 -46,-19.5 z m -181,51 q 2,-3 2,-5 0,-4 -8,-4 -14,0 -14,9 0,7 8,7 7,0 12,-7 z"
     id="path1" />
</svg>
