<?xml version="1.0" encoding="UTF-8" standalone="no"?>
<svg
   width="2000"
   height="2000"
   version="1.1"
   id="svg1"
   sodipodi:docname="u122AE.svg"
   inkscape:version="1.3.2 (091e20e, 2023-11-25)"
   xmlns:inkscape="http://www.inkscape.org/namespaces/inkscape"
   xmlns:sodipodi="http://sodipodi.sourceforge.net/DTD/sodipodi-0.dtd"
   xmlns="http://www.w3.org/2000/svg"
   xmlns:svg="http://www.w3.org/2000/svg">
  <defs
     id="defs1" />
  <sodipodi:namedview
     id="namedview1"
     pagecolor="#505050"
     bordercolor="#eeeeee"
     borderopacity="1"
     inkscape:showpageshadow="0"
     inkscape:pageopacity="0"
     inkscape:pagecheckerboard="0"
     inkscape:deskcolor="#505050"
     inkscape:zoom="0.379"
     inkscape:cx="1000"
     inkscape:cy="998.68074"
     inkscape:window-width="1392"
     inkscape:window-height="1212"
     inkscape:window-x="0"
     inkscape:window-y="0"
     inkscape:window-maximized="0"
     inkscape:current-layer="svg1" />
  <path
     d="m 959,643 q 0,-7 3,-7 1,0 4.5,2 3.5,2 18.5,17 42,42 87.5,64.5 45.5,22.5 115.5,38.5 52,12 79,12 18,0 25,-6 3,-4 7,-4 7,0 19,10 5,5 5,6 0,0 -0.5,0.5 -0.5,0.5 -7.5,0.5 -18,0 -21.5,4.5 -3.5,4.5 -3.5,6.5 0,4 6,8 6,4 6,7 0,2 -1.5,4.5 -1.5,2.5 -6.5,2.5 -2,0 -5,-1 -2,0 -4,0 -7,0 -12,6 -5,6 -15,33 -10,28 -17.5,56.5 -7.5,28.5 -9.5,45.5 -2,17 -2,26 0,9 2,20.5 2,11.5 12,15.5 8,3 8,9 0,0 -0.5,3.5 -0.5,3.5 -8.5,3.5 -7,0 -9,5 -2,5 -2.5,16.5 -0.5,11.5 -0.5,18.5 0,15 1,43 1,28 2,85 3,73 3,112 0,10 -0.5,33 -0.5,23 -5.5,23 -7,0 -7,-59 -2,-25 -2,-47 v -3 q 0,-1 0,-1 v -1 q 0,0 0,-1 v -3 q 0,-2 0,-3 v -1 q 0,-2 0,-3 v -1 q 0,-1 0,-2 v -10 q 0,-6 -3,-10 -3,-4 -11.5,-8.5 -8.5,-4.5 -25,-11 -16.5,-6.5 -52.5,-18.5 -26,-8 -51.5,-16 -25.5,-8 -27.5,-8 -2,0 -4,6 -2,6 -2,17 0,19 -6,19 0,0 -4,-1 -4,-1 -6,-25 l -2,-25 -69,-24 q -29,-11 -55.5,-19 -26.5,-8 -35.5,-10 l -23,-4 v 51 q 0,47 -5,47 0,0 -2.5,-1 -2.5,-1 -4.5,-50 -1,-21 -2.5,-35.5 -1.5,-14.5 -3.5,-16.5 0,-1 -16,-2 -16,-1 -38,-1 -8,0 -16,0 -18,0 -31.5,2 -13.5,2 -29.5,13 -9,6 -13,6 -4,0 -4,-3 0,-1 1,-7 1,-6 31,-42 25,-30 36,-49 11,-19 11,-28 0,-4 -1,-6 -1,-2 -1,-5 0,-1 0.5,-4 0.5,-3 4,-7.5 3.5,-4.5 7.5,-7.5 4,-3 8,-3 4,0 4.5,5 0.5,5 0.5,12 -1,3 -1,7 0,6 3.5,14.5 3.5,8.5 19.5,23.5 l 29,27 v -48 q 0,-20 -1.5,-33.5 Q 827,936 825,936 q -3,1 -6,1 -5,0 -6,-2 -1,-2 -1,-4 0,-4 5,-12 11,-16 11.5,-30.5 Q 829,874 829,872 829,848 823.5,822 818,796 807.5,774.5 797,753 784,750 q -4,-1 -7.5,-4 -3.5,-3 -3.5,-5 0,-3 8.5,-3.5 8.5,-0.5 13.5,-0.5 10,0 23,1 19,2 41.5,2 22.5,0 36.5,-2 18,-3 26,-9.5 8,-6.5 19,-32.5 7,-14 12.5,-29 5.5,-15 5.5,-24 z m 42,47 q -11,-8 -20,-13.5 -9,-5.5 -10,-5.5 -2,0 -5.5,7 -3.5,7 -6.5,15 -3,8 -4.5,14 -1.5,6 -1.5,9 0,1 0,1 1,0 16.5,2 15.5,2 37.5,4 22,2 31,2 2,0 4.5,-0.5 2.5,-0.5 2.5,-1.5 0,-1 -5,-4 -6,-4 -17.5,-12 -11.5,-8 -21.5,-17 z m 58,55 q -24,-4 -48.5,-7 -24.5,-3 -33.5,-3 -27,2 -55.5,14.5 Q 893,762 881,782 q -13,18 -14.5,23.5 -1.5,5.5 -1.5,6.5 0,1 1,1 2,0 7,-6 9,-7 14,-7 2,0 3.5,0.5 1.5,0.5 1.5,4.5 0,3 -2,8 0,1 0,3 0,6 8.5,19 8.5,13 24,29.5 15.5,16.5 34.5,31.5 19,15 36,24 l 30,15 v -29 q 0,-34 -9.5,-64.5 Q 1004,811 985,797 q -3,-3 -8,-7.5 -5,-4.5 -5,-6.5 0,-1 15.5,-1.5 15.5,-0.5 26.5,-0.5 12,0 31,0.5 19,0.5 42,1.5 23,1 29,2 1,0 1,0 0,1 -4.5,4 -4.5,3 -12.5,8 -9,4 -18.5,16 -9.5,12 -18,28 -8.5,16 -15,33.5 -6.5,17.5 -8.5,33.5 l -5,31 84,30 q 17,6 32.5,11.5 15.5,5.5 28,9.5 12.5,4 20.5,6.5 8,2.5 9,2.5 3,0 4.5,-14.5 1.5,-14.5 1.5,-36 0,-21.5 -2,-45.5 -2,-24 -6,-45 -5,-28 -12.5,-47 -7.5,-19 -23,-31 Q 1156,768 1130,760.5 1104,753 1059,745 Z m -181,11 h -32 q -28,0 -28,6 0,1 1,2 2,5 6,15 4,10 8,21 l 7,27 z m 385,44 q -5,-2 -10,-4 -5,-2 -11.5,-4 -6.5,-2 -14.5,-4 l -33,-9 12,21 q 4,9 9.5,23.5 5.5,14.5 7.5,27.5 l 4,30 9,-21 q 4,-9 8.5,-21 4.5,-12 12.5,-27 6,-11 6,-12 z m -198,1 q 0,-1 -25,-1 h -24 q 0,1 2.5,10 2.5,9 6.5,20 l 10,28 15,-27 q 6,-11 10.5,-19.5 4.5,-8.5 4.5,-10.5 z m -193,26 q 0,-6 -4,-6 -5,0 -9,8 -4,8 -7,18 -3,10 -4,16 -1,6 -1,9 0,3 1,4 0,0 0,0 2,0 5.5,-5.5 3.5,-5.5 7.5,-13.5 4,-8 7.5,-16.5 Q 872,832 872,827 Z m 45,54 q -14,-14 -23.5,-23 -9.5,-9 -11.5,-9 -1,0 -6,8.5 -5,8.5 -10.5,18.5 -5.5,10 -9.5,18.5 -4,8.5 -4,8.5 2,0 16,1.5 14,1.5 34,3.5 l 49,4 z m 61,57 q -19,-5 -40.5,-9 -21.5,-4 -40,-6 -18.5,-2 -32,-2 -13.5,0 -16.5,3 -2,2 -4,20.5 -2,18.5 -2,41.5 v 57 l 35,24 q 11,8 34.5,19.5 23.5,11.5 48,21 24.5,9.5 40.5,15 16,5.5 21,5.5 2,0 3,-1 v -89 l -3,-87 z m 234,79 -175,-60 v 84 q 0,45 2,66.5 2,21.5 7,25.5 3,3 28.5,12.5 25.5,9.5 55,20 29.5,10.5 55,19 25.5,8.5 27.5,8.5 4,0 4.5,-15.5 0.5,-15.5 0.5,-21.5 0,-22 -2,-50 z m -407,10 q -16,-18 -25,-26.5 -9,-8.5 -10,-8.5 0,1 -7.5,12 -7.5,11 -18.5,25 l -27,38 57,1 q 56,0 56,-8 0,-3 -9,-13.5 -9,-10.5 -16,-19.5 z m 50,49 q 1,-1 1,-2 0,-1 -1,-2 -1,-1 -5,-1 -6,0 -6,2 0,1 2,3 4,1 6,1 2,0 3,-1 z"
     id="path1" />
</svg>
