<?xml version="1.0" encoding="UTF-8" standalone="no"?>
<svg
   width="2000"
   height="2000"
   version="1.1"
   id="svg1"
   sodipodi:docname="u122E0.svg"
   inkscape:version="1.3.2 (091e20e, 2023-11-25)"
   xmlns:inkscape="http://www.inkscape.org/namespaces/inkscape"
   xmlns:sodipodi="http://sodipodi.sourceforge.net/DTD/sodipodi-0.dtd"
   xmlns="http://www.w3.org/2000/svg"
   xmlns:svg="http://www.w3.org/2000/svg">
  <defs
     id="defs1" />
  <sodipodi:namedview
     id="namedview1"
     pagecolor="#505050"
     bordercolor="#eeeeee"
     borderopacity="1"
     inkscape:showpageshadow="0"
     inkscape:pageopacity="0"
     inkscape:pagecheckerboard="0"
     inkscape:deskcolor="#505050"
     inkscape:zoom="0.379"
     inkscape:cx="1000"
     inkscape:cy="998.68074"
     inkscape:window-width="1392"
     inkscape:window-height="1212"
     inkscape:window-x="0"
     inkscape:window-y="0"
     inkscape:window-maximized="0"
     inkscape:current-layer="svg1" />
  <path
     d="m 1281.5,640 q 16,0 46,-1 30,-1 38,-4 2,-1 3,-1 4,0 4,6 0,3 -2,12.5 -2,9.5 -20,41.5 -26,42 -31.5,63 -5.5,21 -5.5,29 0,13 10,13 7,0 7,9 0,9 -13,9 -24,0 -32,31 -5,16 -5,23 0,4 2.5,6.5 2.5,2.5 29.5,5.5 37,3 37,12 0,0 -0.5,4.5 -0.5,4.5 -37.5,4.5 h -38 v 39 q 0,27 4,32 4,5 25,5 28,0 28,11 0,9 -28,9 -21,0 -25,5 -4,5 -4,34 0,27 4,32 4,5 25,5 28,0 28,11 0,9 -27,9 -18,0 -25.5,4.5 -7.5,4.5 -11.5,22.5 -2,10 -2,19 0,12 7.5,21 7.5,9 39.5,9 16,0 27.5,3 11.5,3 11.5,8 0,4 -9,6 -9,2 -19,2 -8,0 -19,-1 -9,-1 -17,-1 -8,0 -12.5,3 -4.5,3 -5.5,10.5 -1,7.5 -2,20.5 l -3,35 100,3 q 114,3 114,17 0,2 -3,4 h -2 q -1,0 -1,0 h -3 q 0,0 -1,0 h -15 q -1,0 -2,0 -22,0 -60.5,-1 -38.5,-1 -89.5,-2.5 -51,-1.5 -114,-2.5 -84,-3 -127,-4 -43,-1 -68,-1 -24,0 -54,1 -30,1 -57.5,4 -27.5,3 -53.5,7 -42,6 -87.5,16.5 -45.5,10.5 -86,22 -40.5,11.5 -70,21 -29.5,9.5 -41.5,19.5 -5,4 -9,4 -5,0 -7.5,-5 -2.5,-5 -2.5,-10 0,-9 6,-21 7,-15 12.5,-43.5 5.5,-28.5 9.5,-82.5 2,-12 4,-31.5 2,-19.5 4.5,-27 2.5,-7.5 6.5,-7.5 1,0 5,2 4,2 12,10 10,9 35,24 25,15 47,25 32,15 63.5,23.5 31.5,8.5 75.5,14.5 44,6 107,10.5 63,4.5 155,7.5 l 180,6 v -78 h -68 q -51,0 -58.5,3.5 -7.5,3.5 -7.5,7.5 0,5 8,13 6,6 7.5,9.5 1.5,3.5 1.5,5.5 0,2 -2,4 -1,1 -3,1 -3,0 -9.5,-5 -6.5,-5 -15.5,-17 l -24,-27 -104,18 q -43,6 -69,9.5 -26,3.5 -33,3.5 -4,0 -4,-1 -2,-1 -2,-6 0,-3 1,-9 1,-5 2,-11 v -1 q 1,-7 2,-14 l 1,-3 q 0,-1 0,-2 5,-18 5,-30 0,-15 -8,-20 -4,-3 -4,-7 0,-2 1,-5 0,-10 -28,-15 -8,-2 -12,-3 h -1 q -2,-1 -3,-1 -2,-1 -2,-2 0,0 3,-1 6,-2 18.5,-8.5 12.5,-6.5 24,-15 11.5,-8.5 17,-14.5 5.5,-6 5.5,-8 0,-2 -2,-2 -5,-3 -6,-12.5 -1,-9.5 -1,-14.5 0,-9 2,-22 2,-13 5.5,-25.5 3.5,-12.5 9.5,-12.5 3,0 19,3.5 16,3.5 32,11.5 l 42,16 47,-33 q 31,-21 34,-25 3,-4 3,-5 0,-4 -7,-6 -3,0 -6,0 -12,0 -36,3 -24,3 -66,12 -18,5 -34,7.5 -16,2.5 -22,2.5 -5,0 -6,-1 -1,0 -1,-6 0,-2 0.5,-10.5 0.5,-8.5 2.5,-22.5 6,-36 13,-40 7,-4 12,-4 10,0 29,11 9,3 33.5,9 24.5,6 56.5,9 26,4 42,4 4,0 14,-0.5 10,-0.5 28,-13.5 15,-9 21,-9 6,0 6,10 0,12 11,15 11,3 41,3 h 54 l -3,-31 q -1,-12 -2.5,-18 -1.5,-6 -8.5,-10 -7,-4 -20.5,-6 -13.5,-2 -32.5,-5 -30,-3 -44.5,-3.5 -14.5,-0.5 -21.5,-0.5 -18,0 -44.5,2 -26.5,2 -70,7 -43.5,5 -106.5,14 l -30,5 11,-39 q 7,-30 15.5,-34 8.5,-4 13.5,-4 9,0 20,6 14,8 37,11 23,3 54.5,6 31.5,3 67.5,5 36,2 67,3.5 31,1.5 53.5,1.5 22.5,0 25.5,-1 3,-2 3,-8 0,-2 -1,-8.5 -1,-6.5 -7.5,-20.5 -6.5,-14 -16.5,-30.5 -10,-16.5 -26,-34.5 -11,-14 -20.5,-26 -9.5,-12 -9.5,-15 0,-3 28.5,-5 28.5,-2 94.5,-5 z m -570,12 q 1,-2 27.5,-2.5 26.5,-0.5 50,-1.5 23.5,-1 38.5,-1 14,0 33,1 19,1 19,2 0,6 -18,47 -33,75 -46,129.5 -13,54.5 -13,128.5 0,33 -2,84 -2,51 -5,93 -3,42 -6,67.5 -3,25.5 -6,25.5 0,0 0,0 -2,0 -2.5,-16 -0.5,-16 -0.5,-42 v -1 q 0,-1 0,-2 v -12 q 0,-1 0,-3 v -4 q 0,-1 0,-2 v -2 q 0,-1 0,-2 v -33 q 0,-34 1,-64 1,-59 1,-102 0,-21 -0.5,-55.5 Q 781.5,850 777,814 772.5,778 762,751.5 751.5,725 733.5,695 q -9,-13 -15.5,-26 -6.5,-13 -6.5,-16 z m 622,28 q 2,-4 2,-7 0,-6 -8.5,-7.5 -8.5,-1.5 -50.5,-1.5 -33,0 -47.5,1 -14.5,1 -14.5,12 0,9 7,24 9,18 30,58 21,40 25,40 3,0 7,-5.5 4,-5.5 7,-14.5 3,-10 12.5,-32.5 9.5,-22.5 30.5,-66.5 z m -484,-7 h -105 l 15,27 q 6,12 14,30 8,18 16,40 6,18 8,20.5 2,2.5 3,2.5 3,0 8,-12 2,-5 8.5,-23.5 6.5,-18.5 14.5,-39.5 z m 108,126 q -8,-3 -18.5,-7.5 -10.5,-4.5 -17.5,-6.5 -9,-3 -14,-3 -3,0 -6,1.5 -3,1.5 -3,15.5 0,12 3.5,14 3.5,2 7.5,2 5,0 12,-1 7,-3 17.5,-4.5 10.5,-1.5 18.5,-1.5 9,-2 9,-2.5 0,-0.5 -9,-6.5 z m -8,81 q -17,-5 -23,-5 -2,0 -5,1 -3,1 -3,10 0,15 9,16 9,1 11,1 13,0 25,-7 7,-5 7,-8 0,0 -1.5,-2 -1.5,-2 -19.5,-6 z m 305,24 h -71 q -24,0 -39,0.5 -15,0.5 -24.5,3 -9.5,2.5 -16.5,8.5 -7,6 -14,13 -26,26 -26,37 0,4 7.5,9 7.5,5 87.5,5 h 96 z m -323,72 q -17,-5 -24,-5 -2,0 -5.5,1 -3.5,1 -3.5,10 0,15 9,16 9,1 11,1 13,0 25,-7 7,-5 7,-8 0,0 -1,-2 -1,-2 -18,-6 z m 323,24 h -113 q -40,0 -63.5,0.5 -23.5,0.5 -36,3 -12.5,2.5 -18,7 -5.5,4.5 -11.5,13.5 -18,21 -18,27 0,9 37,12.5 37,3.5 82.5,6.5 45.5,3 70.5,3.5 25,0.5 33,0.5 24,0 28,-2 3,-3 6,-14.5 3,-11.5 3,-24.5 z m -272,33 q 6,-11 6,-17 0,-5 -3,-6 -3,-1 -4,-1 -11,0 -38,19 -16,11 -17.5,13.5 -1.5,2.5 -1.5,3.5 0,4 7,7 14,5 24,5 5,0 12.5,-2.5 7.5,-2.5 14.5,-21.5 z m -55,40 q 0,-3 -14,-10 -6,-2 -10,-2 -5,0 -5,5 0,10 18,10 11,0 11,-3 z m 292,23 q -10,0 -40,-1 -30,-1 -60,-4 -31,-2 -53,-2 -61,0 -61,14 0,5 10.5,14.5 10.5,9.5 26.5,20.5 14,9 23.5,13.5 9.5,4.5 23,7.5 13.5,3 31.5,3.5 18,0.5 47,0.5 h 87 v -34 q 0,-24 -4.5,-28.5 -4.5,-4.5 -30.5,-4.5 z m -217,39 q -18,-12 -29.5,-18 -11.5,-6 -18.5,-7 -7,-1 -12,-1 -5,0 -12.5,1 -7.5,1 -19.5,4 -20,6 -20,9 0,0 1,1.5 1,1.5 18,8.5 22,11 46,17 24,6 44,9 l 48,6 z m -60,37 q -2,-1 -12.5,-5.5 -10.5,-4.5 -17.5,-7.5 -9,-3 -14,-3 -3,0 -6,2 -3,2 -3,14 0,12 2.5,15 2.5,3 6.5,3 3,0 8,-1 6,-3 15.5,-4.5 9.5,-1.5 18.5,-1.5 11,-1 11,-4 0,-3 -9,-7 z m -317,32 q -32,-20 -43,-20 0,0 -5.5,1 -5.5,1 -5.5,28 0,13 -3,33.5 -3,20.5 -6,39.5 -3,14 -4.5,21.5 -1.5,7.5 -1.5,11.5 0,4 2,6 1,1 3,1 5,0 20.5,-5 15.5,-5 33.5,-11 25,-7 50,-14 25,-7 51,-12 11,-2 22,-4 l 2,-1 q 1,0 2,0 h 2 q 10,-2 21,-5 22,-4 36,-6 0,0 0,0 0,-1 -18,-7 -18,-6 -48,-14 -30,-10 -61.5,-23 -31.5,-13 -48.5,-20 z"
     id="path1" />
</svg>
