<?xml version="1.0" encoding="UTF-8" standalone="no"?>
<svg
   width="2000"
   height="2000"
   version="1.1"
   id="svg1"
   sodipodi:docname="u122C3.svg"
   inkscape:version="1.3.2 (091e20e, 2023-11-25)"
   xmlns:inkscape="http://www.inkscape.org/namespaces/inkscape"
   xmlns:sodipodi="http://sodipodi.sourceforge.net/DTD/sodipodi-0.dtd"
   xmlns="http://www.w3.org/2000/svg"
   xmlns:svg="http://www.w3.org/2000/svg">
  <defs
     id="defs1" />
  <sodipodi:namedview
     id="namedview1"
     pagecolor="#505050"
     bordercolor="#eeeeee"
     borderopacity="1"
     inkscape:showpageshadow="0"
     inkscape:pageopacity="0"
     inkscape:pagecheckerboard="0"
     inkscape:deskcolor="#505050"
     showgrid="false"
     inkscape:zoom="0.6205"
     inkscape:cx="999.1942"
     inkscape:cy="1000"
     inkscape:window-width="2560"
     inkscape:window-height="1412"
     inkscape:window-x="0"
     inkscape:window-y="0"
     inkscape:window-maximized="1"
     inkscape:current-layer="svg1" />
  <path
     d="m 1405,639 q 1,-1 14,-1 13,0 31.5,0.5 18.5,0.5 40,1.5 21.5,1 39.5,2 18,1 30,2 12,1 12,2 0,2 -6,12 -6,10 -17,24 -16,24 -25.5,47 -9.5,23 -15,58.5 -5.5,35.5 -7,88.5 -1.5,53 -1.5,136 v 206 h 63 q 27,0 45,2.5 18,2.5 18,6.5 0,7 -37.5,9 -37.5,2 -85.5,2 -38,0 -89,-1 -18,0 -38.5,0.5 -20.5,0.5 -39.5,1.5 -19,1 -35,2.5 -16,1.5 -27,3.5 -20,4 -51.5,15.5 -31.5,11.5 -63.5,26.5 -32,15 -59,30.5 -27,15.5 -40,27.5 -7,7 -14.5,12 -7.5,5 -9.5,5 -1,0 -1,-23 v -1 q 0,-3 0,-5 v -1 q 0,-1 0,-2 v -1 q 0,-1 0,-2 v -1 q 0,-1 0,-2 v -5 q 0,-1 0,-1 v -2 q 0,-1 0,-2 v -15 q 0,-1 0,-2 v -3 q 0,-1 0,-2 v -8 l 1,-80 H 906 q -47,0 -64,-0.5 -17,-0.5 -23,-0.5 -17,0 -29,1.5 -12,1.5 -15,5.5 -3,4 -3,17 0,23 -4,23.5 -4,0.5 -4,0.5 -7,0 -8,-21 0,-12 -1.5,-17.5 -1.5,-5.5 -7.5,-8 -6,-2.5 -19.5,-2.5 -13.5,0 -39.5,-1 -25,0 -53,1.5 -28,1.5 -54,5 -26,3.5 -48.5,8.5 -22.5,5 -37.5,12 -13,6 -21.5,15 -8.5,9 -8.5,26 0,8 -2,16.5 -2,8.5 -7,9.5 -1,1 -2,1 -2,0 -6.5,-4.5 -4.5,-4.5 -4.5,-16.5 0,-14 -6,-14 -6,0 -17,13 -9,11 -15,11 -3,0 -5.5,-9 -2.5,-9 -3.5,-70 -2,-31 -4,-58.5 -2,-27.5 -4,-36.5 -4,-11 -4,-15 0,-1 0.5,-2 0.5,-1 2.5,-1 3,0 13,5 8,4 19.5,8 11.5,4 22.5,7 v -54 q -3,0 -11,2 -8,2 -13,2 -4,0 -6.5,-3.5 -2.5,-3.5 -2.5,-21.5 0,-14 -2,-29.5 -2,-15.5 -4,-24.5 -2,-8 -2,-12 0,-3 1,-4 1,-1 3,-1 4,0 12,3 6,2 11,2 8,0 8,-7 0,-8 -10,-8 -17,0 -17,-32 0,-12 -2,-21.5 -2,-9.5 -6,-9.5 -6,0 -8,-21.5 -2,-21.5 -2,-53.5 0,-31 -2,-56.5 -2,-25.5 -11,-39.5 -4,-6 -4,-10 0,-4 6,-4 12,0 47,15 29,13 66,25 37,12 75,22 38,10 71,17 33,7 48,7 h 28 L 697,753 Q 690,736 684.5,723.5 679,711 679,709 q 0,-1 5,-1 2,0 9.5,0.5 7.5,0.5 24,1 16.5,0.5 36,1.5 19.5,1 36.5,2.5 17,1.5 28.5,2.5 11.5,1 12.5,2 1,1 1,2 0,3 -4,11 -4,8 -12,19 -8,14 -17.5,28.5 Q 789,793 789,795 h 121 q 48,0 73,-1 25,-1 31.5,-7 6.5,-6 6.5,-14 0,-5 -4,-17 -4,-12 -16,-42 Q 981,666 979.5,657.5 978,649 978,647 q 0,-4 2,-4 1,0 3,1 7,4 30.5,5.5 23.5,1.5 56.5,1.5 27,0 48.5,1 21.5,1 21.5,3 0,2 -7,13 -7,11 -10,16 -20,31 -29.5,56 -9.5,25 -15,59 -5.5,34 -8,79.5 -2.5,45.5 -2.5,125.5 0,39 0.5,70 0.5,31 2.5,47.5 2,16.5 6.5,23.5 4.5,7 12.5,16 25,25 65,41 40,16 78,16 h 43 l -4,-147 q -2,-56 -4,-92 -2,-36 -7.5,-63 -5.5,-27 -14.5,-50.5 -9,-23.5 -25,-53.5 -8,-15 -13,-26.5 -5,-11.5 -5,-13.5 0,0 4,0 5,0 22.5,1 17.5,1 49.5,1 11,0 20,0 20,0 35,-1 15,-1 20,-1 2,0 2,0 0,2 -9,16 -9,14 -18,30 -6,11 -11,21.5 -5,10.5 -9.5,22 -4.5,11.5 -8,22.5 -3.5,11 -3.5,19 l -6,315 h 195 l -3,-173 q 0,-58 -1,-95 -1,-37 -3.5,-63.5 -2.5,-26.5 -7,-48 Q 1467,817 1458,785 q -4,-12 -9.5,-29.5 -5.5,-17.5 -11,-33 -5.5,-15.5 -10.5,-28 -5,-12.5 -9,-21.5 -6,-12 -9.5,-22 -3.5,-10 -3.5,-12 z m 131,22 q 0,-1 -15,-1 h -4 q -1,0 -2,0 h -1 q 0,0 -1,0 h -1 q -1,0 -1,0 h -19 q -1,0 -1,0 h -5 q -39,0 -43,4 -4,4 -4,8 0,9 11,30 5,11 10.5,28 5.5,17 7.5,32 7,30 11,30.5 4,0.5 4,0.5 7,0 11,-24 3,-17 10,-36 7,-19 18,-41 4,-8 9,-18.5 5,-10.5 5,-12.5 z m -432,12 q 0,-2 -15,-3 -15,-1 -36,-1 -27,0 -36,1.5 -9,1.5 -9,7.5 0,1 0,3 1,3 6.5,21.5 5.5,18.5 12.5,39.5 15,43 19,47 4,4 6,4 5,0 11,-24 4,-10 10,-27 6,-17 16,-36 5,-9 10,-20 5,-11 5,-13 z M 808,732 H 706 l 17,31 q 3,6 7,16.5 4,10.5 7,14.5 h 33 q 5,-4 9.5,-15 4.5,-11 9.5,-19 z m -303,40 q -33,-11 -53.5,-18 -20.5,-7 -25.5,-9 -5,-2 -8,-2 -4,0 -6.5,5.5 Q 409,754 409,786 v 48 l 39,-6 q 23,-3 45.5,-8.5 22.5,-5.5 39.5,-11 17,-5.5 24,-9.5 7,-4 7,-6 0,-2 -2,-3 -5,-1 -24.5,-7.5 Q 518,776 505,772 Z m 815,18 q -11,1 -21.5,1.5 -10.5,0.5 -21.5,0.5 -11,0 -22,-0.5 -11,-0.5 -22,-1.5 l 43,91 z m -554,22 -25,1 12,34 z m -43,1 h -74 q -41,1 -65,2.5 -24,1.5 -38,5.5 -14,4 -20.5,10.5 -6.5,6.5 -13.5,19.5 -5,10 -8,18 -3,8 -3,11 0,1 1,2 3,2 23,5.5 20,3.5 47.5,7 27.5,3.5 57,6 29.5,2.5 58.5,2.5 19,0 32.5,-1 13.5,-1 17.5,-5 4,-4 4,-11 0,-3 -1.5,-10.5 Q 739,868 732,847 Z m 315,15 q -2,-7 -7.5,-9.5 -5.5,-2.5 -20,-3.5 -14.5,-1 -39,-1.5 Q 947,813 906,813 H 781 l -7,40 q -2,17 -2.5,26.5 -0.5,9.5 -0.5,12.5 0,10 2,11 l 135,4 h 137 l -1,-33 q 0,-14 -2,-27.5 -2,-13.5 -4,-18.5 z m -613,26 6,18 46,6 15,-38 z m 11,39 15,47 19,-43 z m 58,9 -11,25 47,-18 z m 253,23 -68,-1 q -11,0 -22,0 -18,0 -43.5,1 -25.5,1 -54,4 -28.5,3 -50.5,6.5 -22,3.5 -28,7.5 -3,2 -5,8.5 -2,6.5 -3,14 -1,7.5 -1,13 0,5.5 3,5.5 2,0 33.5,4 31.5,4 70.5,9 28,3 50,5.5 22,2.5 40.5,4.5 18.5,2 33,3 14.5,1 20.5,1 h 26 z m 298,0 -136,2 -138,-1 v 80 l 274,6 z m -620,65 2,53 15,-13 v -33 z m 42,10 v 26 l 52,-15 z m 284,29 -105,1 q -44,0 -80,1.5 -36,1.5 -47,3.5 -4,1 -15.5,4 -11.5,3 -14.5,4 -10,2 -16,5.5 -6,3.5 -8,5.5 l -1,69 q 26,14 54,25 32,12 69.5,21 37.5,9 82.5,11 l 83,4 -2,-100 z m 297,19 q -2,-7 -5,-11 -3,-4 -15.5,-5.5 -12.5,-1.5 -40,-2 Q 960,1029 909,1029 H 772 v 156 l 269,-3 v -36 q 0,-15 1.5,-25 1.5,-10 5.5,-10 z m -605,188 v -11 q 0,-1 0,-2 v -1 q 0,0 0,-1 v -2 q 0,-1 0,-2 v -1 q 0,0 0,-1 v -1 q 0,0 0,-1 v -1 q 0,-1 0,-1 v -22 q 0,-20 -0.5,-37 -0.5,-17 -0.5,-17 -11,-5 -18,-5 -1,0 -4.5,0.5 -3.5,0.5 -4.5,6 -1,5.5 -1,11.5 0,4 0.5,12.5 0.5,8.5 1.5,19.5 1,20 1,34 0,8 0,12.5 0,4.5 0,7.5 0,11 3,11 2,0 17,-6 3,-1 6,-3 z m 21,-90 q 0,0 0,0 0,0 0,1 0,0 0,1 0,0 0,1 0,0 0,0 v 6 q 0,1 0,1 v 3 q 0,13 0.5,29 0.5,16 0.5,29 0,0 0,1 v 1 q 0,0 0,1 v 2 q 0,1 0,2 2,-1 4,-2 17,-9 40,-17 23,-8 37,-10 l 39,-7 q -6,-2 -23,-7 -17,-5 -36,-11.5 -19,-6.5 -36.5,-13 Q 472,1150 464,1146 Z m 636,46 q -9,-9 -15,-9 -2,0 -5,3 -3,3 -3,28 0,18 -3,29 -3,11 -6,11 -4,0 -6.5,9.5 -2.5,9.5 -4.5,21.5 -1,9 -1,15 0,14 2.5,15 2.5,1 3.5,1 8,0 39,-20 15,-9 35.5,-20 20.5,-11 37.5,-18 l 39,-16 -46,-15 q -18,-6 -36.5,-14.5 Q 1112,1204 1100,1192 Z"
     id="path1" />
</svg>
