<?xml version="1.0" encoding="UTF-8" standalone="no"?>
<svg
   width="2000"
   height="2000"
   version="1.1"
   id="svg1"
   sodipodi:docname="u1226D.svg"
   inkscape:version="1.3.2 (091e20e, 2023-11-25)"
   xmlns:inkscape="http://www.inkscape.org/namespaces/inkscape"
   xmlns:sodipodi="http://sodipodi.sourceforge.net/DTD/sodipodi-0.dtd"
   xmlns="http://www.w3.org/2000/svg"
   xmlns:svg="http://www.w3.org/2000/svg">
  <defs
     id="defs1" />
  <sodipodi:namedview
     id="namedview1"
     pagecolor="#505050"
     bordercolor="#eeeeee"
     borderopacity="1"
     inkscape:showpageshadow="0"
     inkscape:pageopacity="0"
     inkscape:pagecheckerboard="0"
     inkscape:deskcolor="#505050"
     inkscape:zoom="0.379"
     inkscape:cx="1000"
     inkscape:cy="998.68074"
     inkscape:window-width="1392"
     inkscape:window-height="1212"
     inkscape:window-x="0"
     inkscape:window-y="0"
     inkscape:window-maximized="0"
     inkscape:current-layer="svg1" />
  <path
     d="m 1251,634 3,20 q 0,2 0,4 0,5 -2.5,14 -2.5,9 -9.5,16 -6,8 -16,25 -10,17 -18,36 -8,19 -13.5,36 -5.5,17 -5.5,29 0,23 15,32 8,6 11,13 4,11 25,27.5 21,16.5 56,40.5 91,61 91,78 0,3 -1,4 -1,0 -2,0 -3,0 -15,-7.5 -12,-7.5 -27,-20.5 -21,-18 -51,-38.5 -30,-20.5 -60,-38.5 -30,-18 -57.5,-33 -27.5,-15 -51.5,-22 -35,-12 -66,-12 -43,0 -80,21 -52,33 -52,61 0,12 9,15 9,3 37,3 48,0 48,7 0,5 -15,11 -18,9 -28.5,21 -10.5,12 -20,28 -9.5,16 -17,33 -7.5,17 -10.5,34 -1,8 -1,14 0,9 3.5,17.5 3.5,8.5 28.5,29.5 14,12 26.5,20.5 12.5,8.5 15.5,8.5 3,0 19,-12 16,-12 38,-33 39,-38 51,-38 6,0 6,8 0,9 -6,12 -7,4 -8.5,16 -1.5,12 -1.5,24 0,4 0.5,15 0.5,11 3,27.5 2.5,16.5 5.5,22.5 4,9 23.5,24 19.5,15 37.5,27 30,21 53.5,39 23.5,18 40.5,33 17,15 26,24.5 9,9.5 9,12.5 0,1 -1,2 -1,1 -2,1 -5,0 -23.5,-13.5 -18.5,-13.5 -48.5,-37.5 -33,-27 -59,-45.5 -26,-18.5 -50,-28.5 -24,-10 -47.5,-13 -23.5,-3 -76.5,-3 0,0 0,0 0,0 -1,0 0,0 -1,0 0,0 0,0 -1,0 -1,0 -1,0 -1,0 h -1 q 0,0 0,0 h -1 q 0,0 0,0 h -10 q -1,0 -1,0 h -5 q -19,0 -19,-3 0,-1 5,-6 l 4,-4 q 0,0 0,0 l 2,-2 q 0,0 0,0 l 4,-4 q 16,-15 16,-27 0,-2 -2,-9.5 -2,-7.5 -28,-23.5 l -18,-11 v 86 q 0,31 1,48.5 1,17.5 3,28 2,10.5 7,14.5 0,1 0,1 l 1,1 q 0,0 1,1 l 4,4 q 0,0 0,0 l 2,2 q 1,1 1,1 l 2,2 q 0,0 1,0 19,15 19,23 0,2 -1,3 -2,1 -4,1 -8,0 -19,-9 -12,-15 -19,-15 -2,0 -13,-9 -11,-9 -23,-22 -14,-12 -40,-30 -26,-18 -49,-32 -18,-9 -30,-14 -12,-5 -24.5,-8 -12.5,-3 -27.5,-4 -15,-1 -39,-1 l -71,3 78,-75 q 63,-58 75.5,-65.5 12.5,-7.5 15.5,-7.5 3,0 3,4 0,4 -5,15 -12,22 -12,46 0,5 1.5,21.5 1.5,16.5 10.5,33.5 6,12 24,26 18,14 39.5,30 21.5,16 40.5,28 19,12 22,12 4,0 6.5,-22.5 2.5,-22.5 2.5,-61.5 0,-23 -1,-39.5 -1,-16.5 -3,-26 -2,-9.5 -6.5,-15 -4.5,-5.5 -10.5,-9.5 -42,-36 -79,-49 -37,-13 -85,-13 -3,0 -7,0 -27,0 -46.5,-0.5 -19.5,-0.5 -19.5,-3.5 0,-3 23,-26.5 23,-23.5 51.5,-49 28.5,-25.5 54,-46.5 25.5,-21 30.5,-21 3,0 3,4 0,6 -8,23 -7,19 -7,41 0,7 2,26 2,19 17,38 8,9 21.5,19.5 13.5,10.5 27.5,19.5 14,9 21,12.5 7,3.5 9,3.5 5,0 5,-7 0,-15 -15.5,-46.5 Q 876,997 855,973 l -33,-36 h 42 q 27,0 35,-3 8,-3 8,-13 0,-15 -18.5,-37 -18.5,-22 -44.5,-35 -19,-11 -19,-17 0,-4 11,-8 11,-4 100,-4 33,0 55.5,-0.5 22.5,-0.5 36,-3 13.5,-2.5 24,-7.5 10.5,-5 23.5,-13 27,-16 55,-37 28,-21 52.5,-42 24.5,-21 42,-39 17.5,-18 18.5,-26 z m -65,125 q 5,-8 7.5,-14.5 2.5,-6.5 2.5,-8.5 0,-2 -1,-3 0,-1 -1,-1 -3,0 -19,11 -16,11 -35.5,27 -19.5,16 -36,30 -16.5,14 -16.5,17 0,2 9,6.5 9,4.5 22,8 13,3.5 28,7.5 15,4 25,7 0,-5 2,-9 v -20 q 0,-12 3.5,-28.5 3.5,-16.5 9.5,-29.5 z m -217,79 -50,-1 h -48 l 18,21 q 9,9 15,14 6,5 10.5,5 4.5,0 10.5,-5 6,-5 18,-14 z m 129,140 q 51,-48 63.5,-56.5 12.5,-8.5 15.5,-8.5 2,0 2,3 0,2 -2,8 -4,9 -6.5,23 -2.5,14 -5.5,26 0,5 0,11 0,28 15,54.5 15,26.5 57,51.5 20,12 43,29.5 23,17.5 42.5,34 19.5,16.5 30.5,27.5 11,11 11,14 0,1 -1,2 -1,1 -2,1 -4,0 -21,-12.5 -17,-12.5 -32,-24.5 -45,-36 -73,-55 -28,-19 -52.5,-29.5 -24.5,-10.5 -48.5,-14 -24,-3.5 -56,-3.5 -21,0 -38,-1.5 -17,-1.5 -17,-4.5 0,-3 21,-24 21,-21 54,-51 z m -306,1 q -2,-12 -4,-23 -2,-11 -5,-11 -3,0 -16,11 -13,11 -29,26 l -42,36 49,5 q 21,3 30.5,3.5 9.5,0.5 13.5,0.5 6,0 6,-1 v -1 q 0,-1 0,-1 v -1 q 0,-1 0,-1 v -1 q 0,0 0,-1 0,0 0,0 v -6 q -2,-8 -2,-15.5 0,-7.5 -1,-19.5 z m 169,-15 q 1,-1 1,-3 0,-4 -11.5,-5.5 Q 939,954 919,954 q -19,0 -31.5,1.5 -12.5,1.5 -12.5,3.5 0,0 1,1 15,33 25.5,51 10.5,18 14.5,18 2,0 8,-7.5 6,-7.5 13,-18.5 0,0 0,-1 l 1,-1 q 0,0 1,-1 l 1,-1 q 0,-1 0,-1 l 1,-1 q 0,-1 1,-2 l 1,-1 q 0,0 0,0 l 1,-2 q 0,0 1,-1 l 1,-1 q 0,-1 0,-1 l 1,-1 q 0,-1 1,-2 l 1,-1 q 0,0 0,-1 l 1,-1 q 0,0 1,-1 l 1,-1 q 0,-1 0,-1 8,-11 9,-16 z m 186,14 q 0,-15 -6,-15 -3,0 -15,10.5 -12,10.5 -25,23.5 l -25,25 q -11,11 -11,14 0,3 13.5,4.5 13.5,1.5 32.5,1.5 l 47,2 -6,-26 q -2,-10 -3.5,-21.5 Q 1147,985 1147,978 Z m -390,180 q -3,-17 -5,-29 -2,-12 -5,-13 0,-1 -2,-1 -3,0 -15,8.5 -12,8.5 -34,31.5 -23,19 -24.5,22 -1.5,3 -1.5,4 0,4 12,5 9,0 24,1.5 15,1.5 27,3.5 l 30,6 z m 324,0 q 0,-14 -1.5,-22 -1.5,-8 -4.5,-8 -1,0 -15.5,12 -14.5,12 -29.5,25.5 -15,13.5 -26,24.5 -11,11 -11,13 0,0 0,0 0,1 14,2 14,1 35,2 21,2 32,2 5,0 9,-1 4,-1 4,-5 0,-2 -1,-5 -3,-6 -4,-18 -1,-12 -1,-22 z"
     id="path1" />
</svg>
