<?xml version="1.0" encoding="UTF-8" standalone="no"?>
<svg
   width="2000"
   height="2000"
   version="1.1"
   id="svg1"
   sodipodi:docname="u1221D.svg"
   inkscape:version="1.3.2 (091e20e, 2023-11-25)"
   xmlns:inkscape="http://www.inkscape.org/namespaces/inkscape"
   xmlns:sodipodi="http://sodipodi.sourceforge.net/DTD/sodipodi-0.dtd"
   xmlns="http://www.w3.org/2000/svg"
   xmlns:svg="http://www.w3.org/2000/svg">
  <defs
     id="defs1" />
  <sodipodi:namedview
     id="namedview1"
     pagecolor="#505050"
     bordercolor="#eeeeee"
     borderopacity="1"
     inkscape:showpageshadow="0"
     inkscape:pageopacity="0"
     inkscape:pagecheckerboard="0"
     inkscape:deskcolor="#505050"
     inkscape:zoom="0.379"
     inkscape:cx="1000"
     inkscape:cy="998.68074"
     inkscape:window-width="1392"
     inkscape:window-height="1212"
     inkscape:window-x="0"
     inkscape:window-y="0"
     inkscape:window-maximized="0"
     inkscape:current-layer="svg1" />
  <path
     d="m 825,646.5 q 0,-7 13,-7 11,0 11,6 0,1 -0.5,5 -0.5,4 -11.5,26 -11,20 -19,42.5 -8,22.5 -10,41.5 -1,8 -1,14 0,9 3,15.5 3,6.5 21,17.5 17,9 24,9 7,0 9,-8 4,-12 11,-12 1,0 6.5,2 5.5,2 9.5,19 9,36 48,49 39,13 135,13 43,0 67.5,2.5 24.5,2.5 24.5,6.5 0,0 -1,1 -3,6 -39,8.5 -36,2.5 -100,2.5 -31,0 -55.5,0.5 -24.5,0.5 -38.5,3 -14,2.5 -22,8 -8,5.5 -17,14.5 -24,24 -24,41 0,3 2.5,13.5 2.5,10.5 35.5,27.5 13,6 25,9.5 12,3.5 27.5,5 15.5,1.5 30,2 14.5,0.5 23.5,0.5 16,0 37,-1 l 105,-4 -3,-39 q -1,-10 -1,-17 0,-10 2,-16 2,-6 10,-6 11,0 14,-15 3,-15 3,-62 v -75 l 24,29 q 16,19 34,31 18,12 47.5,18.5 29.5,6.5 75.5,8.5 46,2 118,2 36,0 67.5,0.5 31.5,0.5 54.5,2 23,1.5 36.5,3.5 13.5,2 13.5,4 0,2 -15.5,4 -15.5,2 -42,4 -26.5,2 -62,3.5 -35.5,1.5 -87.5,2.5 -65,1 -112,3.5 -47,2.5 -74.5,8 -27.5,5.5 -41,15 -13.5,9.5 -22.5,24.5 -6,10 -6,16 0,2 2,5.5 2,3.5 21,13.5 19,9 35.5,12.5 16.5,3.5 42,6 25.5,2.5 62.5,4 37,1.5 89,3.5 39,1 71,2.5 32,1.5 55,3.5 23,2 33.5,3.5 10.5,1.5 10.5,2.5 0,0 -1,0 -3,2 -21.5,4 -18.5,2 -47,3.5 -28.5,1.5 -65,2.5 -36.5,1 -76.5,1 -55,1 -93,2.5 -38,1.5 -63,3.5 -25,2 -37.5,4.5 -12.5,2.5 -21.5,11.5 -12,10 -12,20 0,3 3,11.5 3,8.5 32,23.5 15,7 29.5,11 14.5,4 38.5,6.5 24,2.5 61,4 37,1.5 93,1.5 37,1 69.5,2.5 32.5,1.5 57,3.5 24.5,2 39,4 14.5,2 14.5,4 0,1 -15.5,3 -15.5,2 -42,3.5 -26.5,1.5 -62,3 -35.5,1.5 -113.5,3.5 -27,0 -67,1 -40,1 -64.5,3.5 -24.5,2.5 -37.5,6.5 -13,4 -28,14 -10,7 -18.5,15 -8.5,8 -8.5,12 0,1 0,2 2,4 16,14 14,10 33,19 17,9 31,13.5 14,4.5 36,7 22,2.5 57.5,3 35.5,0.5 81.5,0.5 96,0 135.5,2.5 39.5,2.5 39.5,7.5 0,0 0,1 -2,5 -51.5,7.5 -49.5,2.5 -123.5,2.5 -138,0 -198,9 -60,9 -68,29 -4,15 -12,15 -1,0 -6.5,-1.5 -5.5,-1.5 -5.5,-20.5 0,-9 -2.5,-13 -2.5,-4 -13.5,-6 -11,-2 -30,-2 -5,0 -20.5,0.5 -15.5,0.5 -53.5,1.5 -57,1 -84,2.5 -27,1.5 -42,4 -15,2.5 -21.5,7.5 -6.5,5 -12.5,15 -13,20 -18.5,21 -5.5,1 -6.5,1 -6,0 -6,-7 0,-4 2,-9 2,-6 2,-11 0,-4 -2.5,-9 -2.5,-5 -17,-14.5 -14.5,-9.5 -42.5,-24 -28,-14.5 -73,-36.5 -50,-25 -80,-39 -30,-14 -51.5,-21 -21.5,-7 -35,-8.5 -13.5,-1.5 -25.5,-1.5 -6,0 -12,0 -24,0 -50,2 -26,2 -40,5 l -32,9 38,-30 q 14,-12 35.5,-30.5 21.5,-18.5 33.5,-29.5 29,-26 29.5,-28.5 0.5,-2.5 0.5,-2.5 0,-3 -4,-3 -4,0 -13,3 -4,1 -6,1 -5,0 -5,-3 0,-2 4,-8 4,-6 30,-30 33,-30 59.5,-59.5 26.5,-29.5 50,-57 23.5,-27.5 40,-49.5 16.5,-22 16.5,-27 0,-1 6.5,-9 6.5,-8 18,-21 11.5,-13 27,-29.5 15.5,-16.5 27.5,-28.5 22,-24 37,-41 15,-17 26.5,-30.5 11.5,-13.5 18,-22.5 6.5,-9 6.5,-13 z m -37,111 q 2,-5 2,-8 0,-4 -3,-4.5 -3,-0.5 -3,-0.5 -8,0 -19,12 -6,5 -9,11 -3,6 -3,10 0,4 4.5,4 4.5,0 10.5,-3 6,-3 11.5,-8 5.5,-5 8.5,-13 z m 39,70 q -14,-8 -28,-15 -14,-7 -21.5,-8 -7.5,-1 -11.5,-1 -7,0 -14.5,2 -7.5,2 -19.5,8 -31,16 -36.5,32 -5.5,16 -5.5,25 0,12 6,23 7,14 28.5,29 21.5,15 46.5,29.5 25,14.5 42.5,22.5 17.5,8 23.5,8 4,0 5,-2 2,-3 6.5,-16 4.5,-13 8.5,-29 4,-16 7,-31 3,-15 3,-24 0,-14 -7.5,-25.5 Q 852,843.5 827,827.5 Z m 406,44 q -15,-11 -22,-11 -1,0 -5.5,1 -4.5,1 -4.5,18 0,24 17,24 5,0 13,-3 13,-5 14.5,-8 1.5,-3 1.5,-4 0,-6 -14,-17 z m -327,15 q 1,-2 1,-3 0,-4 -9,-4 -8,0 -8,3 0,2 1,4 4,2 7,2 4,0 8,-2 z m -227,14 q 0,-9 -6.5,-13 -6.5,-4 -10.5,-4 -4,0 -8,3 -6,6 -6,12 0,2 2,7 2,5 14,5 15,0 15,-10 z m 83,73 q -63,-29 -85.5,-34.5 -22.5,-5.5 -32.5,-5.5 -14,0 -20,6 -4,4 -6,13.5 -2,9.5 -2,19.5 0,3 0.5,11 0.5,8 3.5,21.5 3,13.5 7,22.5 3,4 18.5,14.5 15.5,10.5 37.5,23.5 22,13 47,27 25,14 47,25 22,11 35,16 13,5 17,5 2,0 2,0 0,-1 3.5,-19.5 3.5,-18.5 5.5,-43.5 l 7,-60 z m -167,20 q 0,-10 -7,-10 -1,0 -6,1 -5,1 -15,12 -13,13 -13,23 0,3 2.5,10 2.5,7 25.5,7 21,0 21,-10 0,-2 -2,-6 -2,-8 -4,-15 -2,-7 -2,-12 z m 632,25 -24,-12 q -13,-8 -19,-8 0,0 -3,0.5 -3,0.5 -8,12.5 -3,8 -3,13 0,5 3,6.5 3,1.5 7,1.5 8,0 23,-5 z m -350,13 q 0,-5 -5,-5 -5,0 -5,5 0,5 5,5 5,0 5,-5 z m 269,63 q 0,-14 -1,-29 -1,-15 -12.5,-20 -11.5,-5 -33.5,-5 -6,0 -25,1 -19,1 -43,2 -92,3 -118.5,7 -26.5,4 -36.5,15 -17,15 -17,24 0,2 1.5,7.5 1.5,5.5 28.5,21.5 12,8 23,12.5 11,4.5 26.5,6.5 15.5,2 38,3 22.5,1 55.5,1 52,0 77,2.5 25,2.5 25,7.5 0,0 0,1 -4,5 -40,7 -36,2 -90,2 -38,0 -61,1 -23,1 -34.5,2.5 -11.5,1.5 -12,3 -0.5,1.5 -0.5,2.5 0,3 7,9 11,8 11,13 0,3 -2,5 -2,2 -6,2 -7,0 -17,-6 -11,-6 -19,-6 -2,0 -8,1 -6,1 -12.5,7 -6.5,6 -8.5,13 -2,7 -2,11 0,6 2,13 9,31 47,42 38,11 106,11 12,0 24,0 l 105,-3 -3,-42 q 0,-4 0,-8 0,-14 3,-26 3,-12 11,-17 9,-7 11.5,-20 2.5,-13 2.5,-30 0,-18 -2,-45 z m -422,20 q -80,-37 -118.5,-47 -38.5,-10 -54.5,-10 -18,0 -23,9 -3,6 -3,17 0,11 2.5,24 2.5,13 7.5,25.5 5,12.5 9,17.5 6,7 26,18.5 20,11.5 49,26.5 29,15 62,31.5 33,16.5 61,30 28,13.5 46.5,21 18.5,7.5 21.5,7.5 0,0 0,0 1,-2 3,-20.5 2,-18.5 6,-42.5 l 6,-60 z m -210,17 q -5,-24 -9.5,-25 -4.5,-1 -5.5,-1 -9,0 -30,17 -19,17 -19,23 0,1 1,4 1,3 31,3 25,0 29.5,-3.5 4.5,-3.5 4.5,-8.5 0,-4 -2,-9 z m 696,9 q -14,-9 -24,-9 -2,0 -9,1 -7,1 -7,15 0,12 10,12 4,0 9,-2 5,-1 13,-3 8,-2 13,-2 5,0 5,-2 0,-1 -0.5,-2.5 -0.5,-1.5 -9.5,-7.5 z m -337,1 q -2,-5 -6,-7.5 -4,-2.5 -6,-2.5 -5,0 -5,8 0,6 3.5,9.5 3.5,3.5 8.5,3.5 4,0 5,-2.5 1,-2.5 1,-4.5 0,-2 -1,-4 z m 307,131 q -25,-15 -34,-15 0,0 -4,0.5 -4,0.5 -4,19.5 0,15 3.5,17 3.5,2 6.5,2 5,0 14,-3 11,-2 20.5,-4 9.5,-2 13.5,-2 3,0 3,-1 0,-2 -4,-5.5 -4,-3.5 -15,-8.5 z m -318,14 q -5,-10 -16,-10 -11,0 -11,10 0,6 5,8.5 5,2.5 12,2.5 11,0 11,-6 0,-2 -1,-5 z"
     id="path1" />
</svg>
