<?xml version="1.0" encoding="UTF-8" standalone="no"?>
<svg
   width="2000"
   height="2000"
   version="1.1"
   id="svg1"
   sodipodi:docname="u122D3.svg"
   inkscape:version="1.3.2 (091e20e, 2023-11-25)"
   xmlns:inkscape="http://www.inkscape.org/namespaces/inkscape"
   xmlns:sodipodi="http://sodipodi.sourceforge.net/DTD/sodipodi-0.dtd"
   xmlns="http://www.w3.org/2000/svg"
   xmlns:svg="http://www.w3.org/2000/svg">
  <defs
     id="defs1" />
  <sodipodi:namedview
     id="namedview1"
     pagecolor="#505050"
     bordercolor="#eeeeee"
     borderopacity="1"
     inkscape:showpageshadow="0"
     inkscape:pageopacity="0"
     inkscape:pagecheckerboard="0"
     inkscape:deskcolor="#505050"
     inkscape:zoom="0.379"
     inkscape:cx="1000"
     inkscape:cy="998.68074"
     inkscape:window-width="1392"
     inkscape:window-height="1212"
     inkscape:window-x="0"
     inkscape:window-y="0"
     inkscape:window-maximized="0"
     inkscape:current-layer="svg1" />
  <path
     d="m 1208.5,679 q 19,-19 30.5,-27.5 11.5,-8.5 15.5,-8.5 2,0 2,2 1,1 1,2 0,5 -5.5,14.5 -5.5,9.5 -15.5,19.5 -11,11 -28,34 -17,23 -33,49 -9,14 -15.5,25.5 -6.5,11.5 -9.5,20.5 -3,9 -3.5,14 -0.5,5 -0.5,8 0,5 1,12 3,12 8.5,23 5.5,11 14.5,17 7,4 21.5,16.5 14.5,12.5 27.5,26.5 13,14 22,26 9,12 9,20 0,18 37,27.5 37,9.5 112,9.5 41,0 72.5,3 31.5,3 37.5,7 1,1 1,2 0,2 -13.5,3.5 -13.5,1.5 -49.5,1.5 -57,0 -93,4 -36,4 -63.5,16.5 -27.5,12.5 -51,36 -23.5,23.5 -53.5,61.5 -12,16 -19,26.5 -7,10.5 -10.5,19 -3.5,8.5 -3.5,16 0,7.5 1,18.5 4,19 13,30 9,11 35,29 15,11 29.5,23 14.5,12 24.5,22 10,10 14.5,16.5 4.5,6.5 4.5,8.5 0,1 -1,2 -1,1 -2,1 -4,0 -14,-6.5 -10,-6.5 -28,-22.5 -92,-81 -180,-95 -12,-2 -23.5,-5 -11.5,-3 -22,-8.5 -10.5,-5.5 -22,-15.5 -11.5,-10 -23.5,-22 -104,-97 -195,-97 -25,0 -25,-6 0,-2 1,-3 1,-1 1,-2 0,-3 -8.5,-4 -8.5,-1 -20.5,-1 -12,0 -30,1 -21,2 -35,4 -14,2 -25.5,5.5 -11.5,3.5 -22.5,9.5 -11,6 -28,18 -18,13 -35.5,27.5 -17.5,14.5 -23.5,22.5 -9,16 -16,16 -2,0 -4.5,-4.5 -2.5,-4.5 -2.5,-12.5 0,-11 4,-26 3,-12 5,-25.5 2,-13.5 3.5,-30 1.5,-16.5 2.5,-34.5 1,-18 1,-36 1,-35 3,-60 2,-25 4,-25 2,0 8,11.5 6,11.5 12,27.5 5,17 12,32.5 7,15.5 13,23.5 15,19 50.5,28.5 35.5,9.5 96.5,9.5 h 80 l 73,-64 q 15,-13 32.5,-28.5 17.5,-15.5 33.5,-30.5 16,-15 30.5,-28.5 14.5,-13.5 25.5,-23.5 8,-8 21.5,-20.5 13.5,-12.5 28.5,-25.5 15,-13 30.5,-25.5 15.5,-12.5 28.5,-21.5 13,-11 29,-24.5 16,-13.5 31.5,-27 15.5,-13.5 30,-26.5 14.5,-13 29.5,-27 z m -67,111 q 10,-19 11.5,-25.5 1.5,-6.5 1.5,-8.5 0,-2 -1,-2 -4,0 -20.5,13 -16.5,13 -33.5,28.5 -17,15.5 -29.5,27.5 -12.5,12 -12.5,15 0,1 0,1 2,2 12,4 10,2 21,2 29,0 33,-15 1,-5 7.5,-18.5 6.5,-13.5 10.5,-21.5 z m -27,80 q -27,-13 -40,-15.5 -13,-2.5 -18,-2.5 -14,0 -30,8.5 -16,8.5 -37,34.5 -21,26 -54,76 -14,21 -23,35.5 -9,14.5 -13,24.5 -4,10 -4,18 0,1 0.5,6 0.5,5 1.5,12 3,33 9.5,44 6.5,11 24.5,24 12,8 27.5,21.5 15.5,13.5 26.5,24.5 10,13 19,21 9,8 12,8 4,0 30.5,-15.5 26.5,-15.5 60.5,-37.5 30,-20 46,-32 16,-12 25,-20.5 9,-8.5 12,-16 3,-7.5 5,-18.5 1,-12 1,-23 0,-11 -1,-14 -2,-3 -15.5,-4 -13.5,-1 -27.5,-1 -7,0 -22,0.5 -15,0.5 -39,2.5 -24,2 -40,5 -38,9 -52,23.5 -14,14.5 -14,45.5 0,12 -2,21 -2,9 -6,9 -5,0 -7,-24 -2,-24 -2,-63 0,-66 4,-77 4,-11 8,-11 4,0 11,14 13,28 39,36.5 26,8.5 89,8.5 27,0 45.5,-1.5 18.5,-1.5 28,-6.5 9.5,-5 12.5,-14.5 3,-9.5 3,-21.5 0,-30 -24,-56.5 -24,-26.5 -70,-48.5 z m -213,122 q 8,-10 12,-17 4,-7 4,-9 0,-1 -1,-2 0,0 -1,0 -3,0 -20,14 -17,14 -42,34 -26,23 -39.5,37.5 -13.5,14.5 -13.5,20.5 0,1 0,2 4,2 12,3 8,1 14,1 8,0 17,-1 19,-2 24.5,-6.5 5.5,-4.5 9.5,-20.5 3,-14 10,-29.5 7,-15.5 14,-26.5 z m 373,24 q -9,-5 -19,-10.5 -10,-5.5 -15,-10.5 -7,-5 -11,-5 -3,0 -6.5,4 -3.5,4 -6.5,31 -1,12 -1,18 0,6 3,7 3,1 5,1 4,0 12,-2.5 8,-2.5 26,-9.5 l 36,-14 z m -687,36 q -11,0 -20,-7.5 -9,-7.5 -18,-17.5 -14,-17 -21,-17 -3,0 -5,4 -2,6 -3.5,23.5 -1.5,17.5 -2,31 -0.5,13.5 -0.5,21.5 0,8 0.5,18 0.5,10 3.5,10 2,0 15,-7 13,-7 29,-18 26,-20 29,-26.5 3,-6.5 3,-8.5 0,-6 -10,-6 z m 422,-25 q 0,-7 -5,-10 -5,-3 -8,-3 -4,0 -8,3 -4,4 -4,8 0,2 2,6.5 2,4.5 11,4.5 12,0 12,-9 z m 142,138 q 8,-9 12,-15 4,-6 4,-8 0,-1 -1,-1 0,0 -1,0 -3,0 -18.5,9 -15.5,9 -35,21.5 -19.5,12.5 -35.5,24.5 -16,12 -16,15 0,2 9,5 9,3 21,5 12,2 18.5,2.5 6.5,0.5 8.5,0.5 8,0 10,-2 2,-2 5,-7.5 3,-5.5 3,-11.5 0,-6 4.5,-17 4.5,-11 11.5,-21 z"
     id="path1" />
</svg>
