<?xml version="1.0" encoding="UTF-8" standalone="no"?>
<svg
   width="2000"
   height="2000"
   version="1.1"
   id="svg1"
   sodipodi:docname="u122AB.svg"
   inkscape:version="1.3.2 (091e20e, 2023-11-25)"
   xmlns:inkscape="http://www.inkscape.org/namespaces/inkscape"
   xmlns:sodipodi="http://sodipodi.sourceforge.net/DTD/sodipodi-0.dtd"
   xmlns="http://www.w3.org/2000/svg"
   xmlns:svg="http://www.w3.org/2000/svg">
  <defs
     id="defs1" />
  <sodipodi:namedview
     id="namedview1"
     pagecolor="#505050"
     bordercolor="#eeeeee"
     borderopacity="1"
     inkscape:showpageshadow="0"
     inkscape:pageopacity="0"
     inkscape:pagecheckerboard="0"
     inkscape:deskcolor="#505050"
     inkscape:zoom="0.379"
     inkscape:cx="1000"
     inkscape:cy="998.68074"
     inkscape:window-width="1392"
     inkscape:window-height="1212"
     inkscape:window-x="0"
     inkscape:window-y="0"
     inkscape:window-maximized="0"
     inkscape:current-layer="svg1" />
  <path
     d="m 1614.5,710.5 q 27,-29 49.5,-52 22.5,-23 23.5,-25 1,0 1,5 0,3 -0.5,11 -0.5,8 -1.5,19 -2,13 -2,26 0,66 62,116 10,8 18.5,14 8.5,6 19,8 10.5,2 26,3 15.5,1 35.5,1 39,0 54,2.5 15,2.5 15,6.5 0,1 -2,3 -6,6 -19,9 -12,1 -21,8.5 -9,7.5 -17,21.5 -8,12 -8,19 0,0 0.5,4 0.5,4 10.5,16 13,15 13,24 0,2 -1,4.5 -1,2.5 -4,2.5 -4,0 -12,-9 -11,-10 -17,-10 -6,0 -11,19.5 -5,19.5 -9,49.5 -4,30 -5,55.5 -1,25.5 -1,40.5 0,21 1,40 l 3,98 -36,6 q -8,1 -37,2 -29,1 -74,1.5 -45,0.5 -102,0.5 h -24 q -2,0 -4,0 h -3 q -2,0 -4,0 h -10 q -2,0 -4,0 h -3 q -2,0 -4,0 h -60 q -126,0 -228,3 -102,3 -183.5,10.5 -81.5,7.5 -147.5,19 -66,11.5 -129,30.5 -33,10 -42,10 -1,0 -2.5,-0.5 -1.5,-0.5 -1.5,-2.5 0,-5 7,-17 13,-27 14.5,-49.5 1.5,-22.5 1.5,-30.5 0,-28 -6,-55 -2,-16 -2,-22 0,-2 0,-3 0,-1 1,-1 2,0 9,9 15,18 23,18 10,0 10,-28 0,-11 -2,-27 -3,-20 -6,-37 -3,-17 -4,-19 -1,-1 -2,-1 -5,0 -16.5,7.5 -11.5,7.5 -31.5,19.5 -201,144 -216,262 -1,12 -2.5,15.5 -1.5,3.5 -2.5,3.5 -3,0 -7,-8 -3,-8 -17,-32 -14,-24 -31,-49 l -40,-62 -62,-1 q -17,-1 -33,-1 -8,0 -24,0.5 -16,0.5 -25,1.5 -23,3 -60.5,24 -37.5,21 -64.5,48 -15,14 -24.5,20.5 -9.5,6.5 -13.5,6.5 -1,0 -2,-1 -2,-1 -2,-8 0,-3 1,-12.5 1,-9.5 5,-27.5 11,-38 11,-77 0,-39 -12,-61 -4,-7 -4,-10 0,-4 5,-4 1,0 9,1.5 8,1.5 27,24.5 24,25 34.5,27.5 10.5,2.5 13.5,2.5 8,0 8,-7 0,-3 -2,-8 -3,-11 -5,-36.5 -2,-25.5 -2,-54.5 0,-29 1.5,-55.5 1.5,-26.5 4.5,-42.5 2,-9 2,-15 0,-11 -7,-11 -12,0 -43,30 -30,32 -35,32.5 -5,0.5 -5,0.5 -6,0 -6,-10 0,-6 2,-15 5,-17 7,-47 2,-30 2,-87 0,0 0,0 0,-1 0,-1 v -1 q 0,-1 0,-1 v -1 q 0,0 0,0 v -2 q 0,-1 0,-2 v -1 q 0,0 0,0 v -14 q 0,-20 3,-20 5,3 12,10 0,1 0,1 0,0 0,0 h 1 q 0,0 0,0 l 1,1 q 0,0 0,0 l 1,2 q 0,0 0,0 l 2,2 q 0,0 0,0 6,5 9,9 27,29 78.5,42.5 51.5,13.5 106.5,13.5 12,0 23,0 l 68,-3 102,-153 4,36 q 8,45 51.5,91.5 43.5,46.5 125.5,97.5 36,22 51.5,28 15.5,6 21.5,6 3,0 4,-1 2,-3 2,-17 0,-6 -1,-24.5 -1,-18.5 -5.5,-52.5 -4.5,-34 -11.5,-66 -7,-32 -17,-59 -9,-23 -9,-31 0,-5 3,-5 4,0 13,9 23,21 40.5,23 17.5,2 23.5,2 23,0 47,-10 14,-5 21,-5 5,0 5.5,1.5 0.5,1.5 0.5,2.5 0,7 -13,20 -15,14 -26.5,34 -11.5,20 -17.5,41 -6,23 -12.5,69.5 -6.5,46.5 -11,97.5 -4.5,51 -5.5,79 -1,28 -1,39 0,21 2,30 3,11 12,18.5 9,7.5 30,13.5 21,6 57,10.5 36,4.5 90,8.5 42,5 61,5 5,0 16,-1 11,-1 14,-7 2,-4 2,-26 0,-15 -1.5,-54.5 -1.5,-39.5 -6.5,-109.5 -3,-54 -6,-91.5 -3,-37.5 -6,-64.5 -3,-27 -7.5,-46 -4.5,-19 -8.5,-34 -16,-40 -16,-51 0,-1 0.5,-4 0.5,-3 3.5,-3 4,0 12,7 21,18 40.5,19.5 19.5,1.5 25.5,1.5 26,0 48,-9 11,-5 17,-5 6,0 6,2.5 0,2.5 0,3.5 0,9 -20,28 l -21,16 21,20 q 12,9 26,15.5 14,6.5 35,12 21,5.5 52,9 31,3.5 56,6.5 62,6 129.5,9 67.5,3 115,3.5 47.5,0.5 74.5,0.5 28,0 63,-0.5 35,-0.5 41,-6.5 2,-2 2,-4 0,-6 -10.5,-15 -10.5,-9 -35.5,-18 -25,-9 -54,-14.5 -29,-5.5 -54,-5.5 -4,0 -8,0 -3,0 -5,0 h -6 q -1,0 -2,0 h -6 q 0,0 -1,0 h -15 q -1,0 -1,0 -15,0 -15,-1 0,-3 22.5,-28 22.5,-25 58.5,-62 z m 66,45 q -11,-24 -18.5,-36 -7.5,-12 -10.5,-12 -3,0 -13.5,9.5 -10.5,9.5 -22.5,22.5 -12,13 -19.5,23 -7.5,10 -7.5,12 0,0 0,0 3,2 19.5,5.5 16.5,3.5 34.5,6.5 18,3 30.5,5 12.5,2 16.5,2 3,0 3,-1 1,0 1,-2 0,-4 -4.5,-14.5 -4.5,-10.5 -8.5,-20.5 z m -566,31 q 1,-3 1,-5 0,-10 -31,-10 -29,0 -29,10 0,2 1,4 3,6 6,24 2,12 3,20 v 1 q 1,4 1,6 8,47 14,47 0,0 3,-1 3,-1 16,-49 3,-12 7.5,-27 4.5,-15 7.5,-20 z m -297,14 q 2,-7 2,-11 0,-4 -4,-6.5 -4,-2.5 -22,-2.5 -34,0 -34,11 0,2 1,4 3,5 6,22 3,17 5,31 7,46 11.5,46 4.5,0 16.5,-42 5,-16 10,-32 5,-16 8,-20 z m -313,7 q -8,-18 -14,-18 -3,0 -12.5,11.5 -9.5,11.5 -19.5,25.5 -10,14 -16,25 -6,11 -6,13 0,0 0,0 2,0 18.5,1.5 16.5,1.5 37.5,4.5 14,1 25,1 20,0 23.5,-3 3.5,-3 3.5,-5 0,-7 -16,-21 -9,-9 -16,-18 -7,-9 -8,-17 z m 636,36 q -3,-9 -7,-17 -4,-8 -7,-8 -7,0 -15.5,35 -8.5,35 -14.5,87 -6,52 -8.5,99 -2.5,47 -2.5,77 0,21 1,39 l 3,65 85,4 q 32,2 83.5,4 51.5,2 111,3 59.5,1 120,1 60.5,0 109.5,-1 49,-1 79.5,-2.5 30.5,-1.5 30.5,-2.5 0,-3 -18.5,-10.5 -18.5,-7.5 -48.5,-19 -30,-11.5 -68,-23.5 -1,0 -1,0 l -4,-1 q -3,-1 -5,-2 l -5,-1 q -1,0 -1,-1 l -4,-1 q -3,-1 -5,-2 l -5,-1 q -1,0 -1,0 l -4,-2 q -3,0 -5,-1 l -4,-2 q -1,0 -2,0 l -4,-1 q -3,-1 -5,-2 l -5,-2 q -1,0 -1,0 l -4,-1 q -3,-1 -5,-2 l -5,-2 q -37,-12 -71,-22.5 -34,-10.5 -67,-17.5 -28,-6 -54.5,-10.5 -26.5,-4.5 -45.5,-4.5 -2,0 -13,0.5 -11,0.5 -26,6.5 -15,6 -35,21 -19,17 -25,17 -6,0 -6,-18 0,-17 -5.5,-21.5 -5.5,-4.5 -20.5,-4.5 -19,0 -20,-4.5 -1,-4.5 -1,-5.5 0,-7 8,-18 11,-16 11,-32 0,-11 -5,-22 -5,-7 -5,-12 0,-1 1,-3 1,-2 8,-2 1,0 3,0 2,0 4,0 17,0 19,-24 1,-7 1,-12 0,-13 -7,-13 -8,0 -8,-16 0,-7 2,-19 3,-16 3,-35 0,-19 -3,-34 z m 100,17 q -19,-3 -35.5,-7.5 -16.5,-4.5 -25.5,-9.5 -6,-3 -11,-3 -5,0 -9,6 -4,6 -4,35 0,21 2,24.5 2,3.5 7,3.5 4,0 12,-3 7,-3 26,-7.5 19,-4.5 28,-5.5 28,-8 41,-13 13,-5 13,-8 0,-3 -13,-6 -13,-3 -31,-6 z m 602,3 q -3,-3 -13,-5.5 -10,-2.5 -22,-2.5 h -28 l 19,20 q 12,12 15.5,13 3.5,1 4.5,1 6,0 13,-7 12,-8 12,-16 0,-1 -1,-3 z m -1638,30 q 0,-3 -13,-8.5 -13,-5.5 -29,-12.5 l -41,-15 -7,40 q -2,17 -2.5,24.5 -0.5,7.5 -0.5,9.5 0,10 3,13 0,0 1,0 4,0 17,-5.5 13,-5.5 29,-14.5 16,-9 29.5,-18.5 13.5,-9.5 13.5,-12.5 z m 678,-5 q -12,-20 -12,-24 0,0 0.5,-1 0.5,-1 1.5,-1 3,0 11,5 8,3 29.5,5.5 21.5,2.5 45.5,2.5 11,-1 20,-1 27,0 33,3.5 6,3.5 6,5.5 0,4 -11,7 -34,10 -51.5,60.5 -17.5,50.5 -26.5,135.5 l -10,102 -11,-135 q -4,-69 -11,-108.5 -7,-39.5 -14,-56.5 z m 793,-4 -136,-3 h -2 q -4,0 -8,0 h -3 q -3,0 -5,0 h -2 q -1,0 -2,0 h -2 q -1,0 -1,0 h -2 q -2,0 -3,0 h -16 q -1,0 -2,0 h -3 q -1,0 -2,0 h -4 q -1,0 -3,0 -30,0 -58.5,0.5 -28.5,0.5 -52.5,2 -24,1.5 -48,6.5 -21,3 -50.5,9.5 -29.5,6.5 -53.5,13.5 -24,7 -38,14.5 -14,7.5 -14,11.5 0,3 9.5,16 9.5,13 21.5,25 23,24 31,26.5 8,2.5 17,2.5 9,0 23,-2 21,-3 66.5,-15 45.5,-12 99,-28 53.5,-16 104.5,-31.5 51,-15.5 79,-26.5 z m 92,18 q -3,-8 -8,-13.5 -5,-5.5 -10,-5.5 -1,0 -3,1 -6,0 -59.5,16.5 -53.5,16.5 -134.5,44.5 -109,39 -175,67 -66,28 -66,35 0,6 40.5,24 40.5,18 99.5,40.5 59,22.5 125,46 66,23.5 108,35.5 38,12 60.5,21 22.5,9 28.5,18 2,3 5,3 3,0 7,-9 4,-9 5,-31 1,-22 1,-38 0,-22 -1.5,-58.5 -1.5,-36.5 -9.5,-102.5 -3,-21 -6,-48 l -1,-4 q 0,-1 0,-2 -3,-30 -6,-40 z m -1235,-6 q -24,-6 -38,-9 -14,-3 -23,-3 -9,0 -17.5,1.5 -8.5,1.5 -14.5,4.5 -15,4 -45,6.5 -30,2.5 -63,3.5 -40,0 -65,2.5 -25,2.5 -38.5,7.5 -13.5,5 -18.5,15 -5,10 -5,26 0,26 10.5,34 10.5,8 40.5,8 24,0 27.5,-5 3.5,-5 3.5,-31 0,-37 9,-37 0,0 4.5,0.5 4.5,0.5 7.5,39.5 2,26 6,30.5 4,4.5 24,4.5 4,0 9,0 10,-1 18,-1 19,0 21.5,3.5 2.5,3.5 2.5,4.5 0,6 -33,9 l -46,5 v 73 l 51,6 q 36,3 37.5,4 1.5,1 1.5,1 0,2 -18,6 -14,3 -29.5,5 -15.5,2 -26.5,2 -15,0 -17,4.5 -2,4.5 -2,12.5 0,8 1,22 l 2,39 93,-1 q 39,-2 78,-5.5 39,-3.5 55,-8.5 l 41,-10 -8,-98 q -3,-40 -6.5,-71.5 -3.5,-31.5 -8.5,-34.5 -3,-3 -5,-3 -8,0 -16.5,28.5 -8.5,28.5 -12.5,91.5 -5,63 -9,64 -4,1 -4,1 -7,0 -7,-64 0,-57 -6,-90.5 -6,-33.5 -13,-33.5 -5,0 -10,11 -5,11 -9,30 -4,19 -6,43 -2,24 -2,48 0,27 -3,44 -3,17 -6,17 -3,0 -7,-15.5 -4,-15.5 -4,-41.5 0,-36 -6.5,-84.5 -6.5,-48.5 -15.5,-77.5 l -6,-21 28,17 q 21,12 27,12 6,0 15,-12 8,-11 12.5,-11 4.5,0 11.5,8 11,13 23.5,13 12.5,0 21.5,-16 5,-8 8,-8 3,0 9,8 12,15 23,17 11,2 13,2 12,0 12,-10 0,-11 -16,-17.5 -16,-6.5 -61,-15.5 z m 419,12 q 0,-11 -17,-11 -13,0 -16,7 -3,7 -3,26 0,14 1.5,23.5 1.5,9.5 4.5,9.5 3,0 8,-6.5 5,-6.5 9.5,-15.5 4.5,-9 8.5,-19 4,-10 4,-14 z m 852,-2 q -6,-6 -10,-6 -2,0 -4.5,1.5 -2.5,1.5 -2.5,10.5 0,9 3,26 6,25 8.5,28.5 2.5,3.5 4.5,3.5 3,0 8,-16 3,-11 3,-20 0,-17 -10,-28 z m -1098,75 q -26,-13 -47.5,-23.5 -21.5,-10.5 -29.5,-10.5 -13,0 -25,38 -12,38 -12,107 0,18 0.5,37.5 0.5,19.5 3.5,19.5 3,0 20.5,-12.5 17.5,-12.5 32.5,-23.5 34,-25 58,-43 24,-18 39,-27 21,-12 21,-18 0,-5 -18,-17 -18,-12 -43,-27 z m -117,-18 q 1,-2 1,-3 0,-4 -7,-4 -8,0 -8,3 0,2 2,4 3,1 6,1 3,0 6,-1 z m -71,-3 q 0,-4 -4,-4 -5,0 -5,4 0,5 5,5 4,0 4,-5 z m -64,0 q 0,-4 -5,-4 -4,0 -4,4 0,5 4,5 5,0 5,-5 z m 736,51 q -3,-13 -16,-16 -2,-2 -4,-2 -2,0 -3.5,1.5 -1.5,1.5 -1.5,4.5 0,2 1,5 3,12 15,15 3,1 5,1 3,0 4.5,-1.5 1.5,-1.5 1.5,-3.5 0,-2 -2,-4 z m -976,-4 q 0,-5 -5,-5 -4,0 -4,5 0,4 4,4 5,0 5,-4 z m 1084,22 q 2,-3 2,-5 0,-4 -9,-4 -15,0 -15,11 0,9 9,9 9,0 13,-11 z m -1011,24 q 0,-21 -3,-26.5 -3,-5.5 -12,-5.5 -2,0 -6,1 -28,0 -43,10.5 -15,10.5 -16.5,17 -1.5,6.5 -1.5,8.5 0,9 12,18 12,9 40,9 21,0 25.5,-4.5 4.5,-4.5 4.5,-27.5 z m 968,-10 q -5,-5 -19,-6.5 -14,-1.5 -28,-2.5 -11,-1 -19,-1 -12,0 -18,2.5 -6,2.5 -6,13.5 0,12 6.5,15 6.5,3 26.5,3 30,0 44.5,-7.5 14.5,-7.5 14.5,-12.5 0,-2 -2,-4 z m 48,24 q -13,-8 -21,-8 -7,0 -11,6 -1,2 -1,3 0,8 25,8 12,0 13,-1 1,-1 1,-1 0,-2 -6,-7 z m -123,34 q 2,-4 2,-7 0,-3 -2,-6 -2,-2 -3,-2 -3,0 -3,9 0,8 3,8 1,0 3,-2 z m -957,3 q 0,-9 -9,-9 -9,0 -9,9 0,9 9,9 9,0 9,-9 z m 64,47 q 0,-23 -3.5,-30.5 -3.5,-7.5 -17.5,-7.5 -19,0 -38,14.5 -19,14.5 -19,33.5 0,12 6,18 6,6 26,9 17,4 26,4 9,0 14.5,-5 5.5,-5 5.5,-36 z m -145,22 q -6,-6 -11,-6 -5,0 -10,5 -6,6 -7.5,20 -1.5,14 -1.5,30 0,16 1.5,25.5 1.5,9.5 7.5,9.5 2,0 4,-1 3,-2 17.5,-10 14.5,-8 28.5,-17 14,-9 24,-16.5 10,-7.5 10,-9.5 0,-4 -23,-10 -18,-5 -27,-9.5 -9,-4.5 -13,-10.5 z m 678,33 q -12,-3 -29.5,-6.5 -17.5,-3.5 -18.5,-3.5 -11,0 -17,61 -2,17 -2,26 0,5 0.5,8.5 0.5,3.5 4.5,3.5 2,0 6,-2 8,-3 33.5,-8 25.5,-5 57,-11 31.5,-6 63.5,-11.5 32,-5.5 53,-6.5 27,-3 46,-7 19,-4 19,-7 0,-3 -22.5,-6.5 -22.5,-3.5 -54.5,-6.5 -31,-3 -69.5,-8.5 -38.5,-5.5 -69.5,-14.5 z m -276,0 q 1,-2 1,-3 0,-5 -8,-5 -1,0 -7.5,0.5 -6.5,0.5 -59.5,9.5 l -52,9 28,40 q 12,17 22,29 10,12 13,12 1,0 10,-13 9,-13 19.5,-28.5 10.5,-15.5 20.5,-30.5 10,-15 13,-20 z"
     id="path1" />
</svg>
