<?xml version="1.0" encoding="UTF-8" standalone="no"?>
<svg
   width="2000"
   height="2000"
   version="1.1"
   id="svg1"
   sodipodi:docname="u1222B.svg"
   inkscape:version="1.3.2 (091e20e, 2023-11-25)"
   xmlns:inkscape="http://www.inkscape.org/namespaces/inkscape"
   xmlns:sodipodi="http://sodipodi.sourceforge.net/DTD/sodipodi-0.dtd"
   xmlns="http://www.w3.org/2000/svg"
   xmlns:svg="http://www.w3.org/2000/svg">
  <defs
     id="defs1" />
  <sodipodi:namedview
     id="namedview1"
     pagecolor="#505050"
     bordercolor="#eeeeee"
     borderopacity="1"
     inkscape:showpageshadow="0"
     inkscape:pageopacity="0"
     inkscape:pagecheckerboard="0"
     inkscape:deskcolor="#505050"
     inkscape:zoom="0.379"
     inkscape:cx="1000"
     inkscape:cy="998.68074"
     inkscape:window-width="1392"
     inkscape:window-height="1212"
     inkscape:window-x="0"
     inkscape:window-y="0"
     inkscape:window-maximized="0"
     inkscape:current-layer="svg1" />
  <path
     d="m 1009,642 q 0,-4 3.5,-4.5 3.5,-0.5 4.5,-0.5 6,0 12,2 10,3 37,6.5 27,3.5 72,3.5 20,0 44.5,0.5 24.5,0.5 24.5,4.5 0,2 -5.5,8.5 -5.5,6.5 -9.5,10.5 -11,10 -22.5,29 -11.5,19 -19.5,38 -7,16 -13,35 -6,19 -10,45 -4,26 -5.5,55 -1.5,29 -1.5,58 0,15 0,31 v 273 q 0,47 -1,72.5 -1,25.5 -2.5,37.5 -1.5,12 -3,14 -1.5,2 -3.5,2 -2,0 -4,-2 -2,-2 -3.5,-14 -1.5,-12 -3,-37.5 -1.5,-25.5 -1.5,-72.5 v -131 l -1,-140 q -1,-29 -3,-49.5 -2,-20.5 -5,-37.5 -3,-17 -7.5,-33 -4.5,-16 -8.5,-29 -7,-25 -13,-43.5 -6,-18.5 -12,-35 -6,-16.5 -11.5,-30 Q 1031,695 1025,684 q -6,-12 -11,-25.5 -5,-13.5 -5,-16.5 z m -216,10 q 0,-1 7.5,-1 7.5,0 20.5,0.5 13,0.5 29.5,1 16.5,0.5 29.5,1.5 21,1 37.5,1 16.5,0 29.5,0.5 13,0.5 21.5,1 8.5,0.5 9.5,1.5 0,0 0,1 0,4 -5.5,13.5 Q 967,682 961,691 928,739 916.5,804 905,869 905,942 v 293 q 0,45 -1,70 -1,25 -2.5,36 -1.5,11 -3.5,13 -2,2 -4,2 -2,0 -3.5,-2 -1.5,-2 -3,-13.5 -1.5,-11.5 -2.5,-36 -1,-24.5 -2,-69.5 l -4,-277 q -3,-53 -9,-93.5 -6,-40.5 -16,-75 Q 844,755 829,722 814,689 793,652 Z m 371,21 q 0,-2 -11,-2 -4,0 -9.5,0 -5.5,0 -12.5,0 -14,0 -31,-1 l -62,-6 15,36 q 5,14 13,37 8,23 14,43 5,19 12.5,37.5 7.5,18.5 9.5,20.5 l 11,-45 q 5,-17 13,-40.5 8,-23.5 20,-45.5 3,-6 10.5,-19 7.5,-13 7.5,-15 z m -224,11 q 0,-1 0,-2 0,-5 -10.5,-7.5 Q 919,672 885,672 q -38,0 -45,2.5 -7,2.5 -7,7.5 0,2 2,6 2,7 12.5,29 10.5,22 19.5,47 l 19,57 q 9,-38 24.5,-75.5 Q 926,708 940,684 Z"
     id="path1" />
</svg>
