<?xml version="1.0" encoding="UTF-8" standalone="no"?>
<svg
   width="2000"
   height="2000"
   version="1.1"
   id="svg1"
   sodipodi:docname="u12290.svg"
   inkscape:version="1.3.2 (091e20e, 2023-11-25)"
   xmlns:inkscape="http://www.inkscape.org/namespaces/inkscape"
   xmlns:sodipodi="http://sodipodi.sourceforge.net/DTD/sodipodi-0.dtd"
   xmlns="http://www.w3.org/2000/svg"
   xmlns:svg="http://www.w3.org/2000/svg">
  <defs
     id="defs1" />
  <sodipodi:namedview
     id="namedview1"
     pagecolor="#505050"
     bordercolor="#eeeeee"
     borderopacity="1"
     inkscape:showpageshadow="0"
     inkscape:pageopacity="0"
     inkscape:pagecheckerboard="0"
     inkscape:deskcolor="#505050"
     inkscape:zoom="0.379"
     inkscape:cx="1000"
     inkscape:cy="998.68074"
     inkscape:window-width="1392"
     inkscape:window-height="1212"
     inkscape:window-x="0"
     inkscape:window-y="0"
     inkscape:window-maximized="0"
     inkscape:current-layer="svg1" />
  <path
     d="m 611.5,639.5 q 1,-1 15,-1 14,0 34.5,0.5 20.5,0.5 44.5,1 24,0.5 44.5,2 20.5,1.5 34.5,2.5 14,1 15,2 0,0 0,1 0,3 -6,14 -6,11 -14,22 -14,21 -26,47.5 -12,26.5 -18,44.5 -6,19 -10,42.5 -4,23.5 -7,50.5 -3,27 -5.5,54.5 -2.5,27.5 -3,41 -0.5,13.5 -0.5,18.5 0,15 1.5,27.5 1.5,12.5 4.5,12.5 4,0 23,-16.5 19,-16.5 40,-37 21,-20.5 37.5,-39 16.5,-18.5 16.5,-22.5 0,-4 -15,-6.5 -15,-2.5 -37,-2.5 h -54 l 53,-41 q 22,-17 37.5,-31.5 15.5,-14.5 17.5,-20.5 2,-5 17,-22 15,-17 32.5,-34.5 17.5,-17.5 31,-29.5 13.5,-12 16.5,-12 1,0 1,0 0,0 0,2 0,4 -6.5,22.5 -6.5,18.5 -20.5,44.5 -26,53 -28,64 -2,11 -2,14 0,13 13,13 7,0 9.5,3.5 2.5,3.5 2.5,6.5 0,1 0,2 0,1 0,2 0,7 15,18 15,11 44,25 26,12 45.5,25.5 19.5,13.5 22.5,19.5 0,2 0,3 0,4 -3,4 -8,0 -29,-14 -21,-13 -43,-23 -22,-10 -41,-16 -19,-6 -27.5,-7 -8.5,-1 -11.5,-1 -10,0 -15,5 -4,4 -13,20.5 -9,16.5 -18,39.5 -5,13 -8,23 -3,10 -3.5,13.5 -0.5,3.5 -0.5,4.5 0,5 2.5,8 2.5,3 7.5,7 6,5 11,11 5,6 5,9 1,4 19.5,15 18.5,11 41.5,23 29,14 47,26 18,12 18,19 0,2 -1,3.5 -1,1.5 -3,1.5 -2,0 -8,-2 -6,-2 -23,-10 -17,-8 -48,-23 -33,-14 -68,-25.5 -35,-11.5 -55,-12.5 l -46,-3 -3,43 q -3,42 -8,43 -5,1 -6,1 -9,0 -9,-37 0,-21 -3,-33 -3,-12 -11,-12 -5,0 -5,-3 0,-2 4,-7 12,-14 13,-37 1,-23 1,-42 0,-25 -1,-60 -2,-62 -6,-102.5 -4,-40.5 -10.5,-70 -6.5,-29.5 -16,-50 -9.5,-20.5 -25.5,-37.5 -7,-7 -12,-14.5 -5,-7.5 -5,-9.5 z m 472,27 q 7,-23 11.5,-23.5 4.5,-0.5 4.5,-0.5 8,0 21,26 14,25 52.5,58.5 38.5,33.5 91.5,68.5 53,35 114,68 61,33 146,67 42,16 100.5,41 58.5,25 102,45 43.5,20 71,35 27.5,15 37.5,25 6,6 10,13 4,7 4,8 0,1 0,1 -1,1 -14,3 -13,2 -35.5,4.5 -22.5,2.5 -51.5,6 -29,3.5 -52,5.5 -43,5 -79,9.5 -36,4.5 -69,8 -33,3.5 -61,7 -28,3.5 -45,5.5 l -85,11 v 73 q 0,31 -3.5,57 -3.5,26 -8.5,35 -3,4 -4.5,5 -1.5,1 -1.5,1 -2,0 -3,-7 -1,-7 -1,-26.5 0,-19.5 1,-55.5 0,-31 -0.5,-47.5 -0.5,-16.5 -6.5,-22 -6,-5.5 -17,-5.5 -2,0 -11.5,1 -9.5,1 -38.5,6 l -39,7 v 75 q 0,33 -2.5,54.5 -2.5,21.5 -7.5,21.5 -5,0 -8,-20.5 -3,-20.5 -3,-58.5 0,-23 -1,-38.5 -1,-15.5 -7.5,-21.5 -6.5,-6 -16.5,-6 -3,0 -11.5,1 -8.5,1 -34.5,6 -11,3 -17,5.5 -6,2.5 -9,8 -3,5.5 -4,15.5 -1,10 -1,26 0,23 -2,43.5 -2,20.5 -5,36.5 -3,16 -6.5,25 -3.5,9 -6.5,9 -5,0 -5.5,-13 -0.5,-13 -0.5,-16 0,-21 3,-54 2,-29 2,-46.5 0,-17.5 -9,-21 -9,-3.5 -18,-3.5 -12,0 -35.5,4.5 -23.5,4.5 -67.5,13.5 -136,27 -215,48.5 -79,21.5 -121,41.5 -21,9 -37.5,13 -16.5,4 -25.5,4 -6,0 -10,-1 -5,-1 -9.5,-4 -4.5,-3 -5.5,-11.5 -1,-8.5 -1,-18.5 0,-6 0.5,-20 0.5,-14 2.5,-36 3,-37 3,-70 0,-33 -1.5,-70 -1.5,-37 -3.5,-75.5 -2,-38.5 -4.5,-74 -2.5,-35.5 -6,-65 -3.5,-29.5 -7.5,-47.5 l -6,-33 h -90 q -84,0 -143,10.5 -59,10.5 -91,34.5 -3,2 -8,5 l -1,1 q -3,2 -6,4 -9,6 -11,6 -1,0 -1,-10 0,-10 0.5,-25.5 0.5,-15.5 1.5,-33.5 1,-18 2,-33.5 1,-15.5 2.5,-26.5 1.5,-11 2.5,-12 0,0 0,0 3,0 18.5,7 15.5,7 32.5,16 23,11 38,17 15,6 32.5,9.5 17.5,3.5 42,5 24.5,1.5 61.5,3.5 l 112,3 -23,-38 q -9,-16 -14,-26.5 -5,-10.5 -5,-13.5 0,-1 0,-1 1,-1 6,-1 4,0 16,1.5 12,1.5 26,4.5 28,5 44.5,5.5 16.5,0.5 22.5,0.5 18,0 33,-2 12,-2 19,-2.5 7,-0.5 9,-0.5 7,0 7,2 0,2 -8,17.5 -8,15.5 -14,25.5 -68,120 -69,399 v 3 q 0,3 0,5 v 3 q 0,3 0,5 v 3 q 0,1 0,3 v 2 q 0,2 0,3 v 2 q 0,2 0,3 v 2 q 0,2 0,3 v 2 q 0,1 0,3 v 35 q 0,31 1.5,49.5 1.5,18.5 4,25.5 2.5,7 5.5,7 1,0 1,0 7,-2 14,-18.5 7,-16.5 11.5,-38 4.5,-21.5 5,-34.5 0.5,-13 0.5,-16 0,-17 -4,-27 l -9,-29 59,9 q 12,1 37.5,2.5 25.5,1.5 59.5,3 34,1.5 73.5,2 39.5,0.5 78.5,0.5 h 190 l -2,-46 q -2,-35 -6.5,-67 -4.5,-32 -11.5,-58.5 -7,-26.5 -15.5,-46 -8.5,-19.5 -22.5,-34.5 -5,-6 -12,-14.5 -7,-8.5 -7,-10.5 0,-1 27,-1.5 27,-0.5 65,-0.5 49,1 69,3.5 20,2.5 20,7.5 0,0 0,1 0,1 0,1 0,7 20,9 20,2 56,2 15,0 32,0 46,0 79,-2.5 33,-2.5 33,-5.5 0,-2 -16,-8.5 -16,-6.5 -42,-15 -26,-8.5 -58,-17.5 -32,-9 -65,-17.5 -33,-8.5 -63,-15.5 -30,-7 -57,-11 -36,-6 -58,-6 -22,0 -37,7 -9,5 -17.5,5 -8.5,0 -12,-2 -3.5,-2 -3.5,-5 0,-2 1,-5 1,-3 8,-7 11,-6 26,-23 15,-17 30.5,-38 15.5,-21 29,-42.5 13.5,-21.5 19.5,-40.5 z m -334,17 q 5,-9 5,-14 0,-3 -3.5,-5 -3.5,-2 -39.5,-2 h -50 l 18,53 q 8,23 14,45 6,22 6,30 0,4 2,4 2,0 6,-7 4,-7 15,-36 5,-14 13.5,-36 8.5,-22 13.5,-32 z m 482,116 q -33,-25 -61.5,-49 -28.5,-24 -40.5,-37 l -25,-31 -73,111 52,7 q 17,2 42,6.5 25,4.5 52,10.5 27,6 53.5,13 26.5,7 48.5,14 1,0 2,0 1,0 1,-1 0,-2 -12.5,-13.5 -12.5,-11.5 -38.5,-30.5 z m -660,-55 q -9,0 -22.5,-2 -13.5,-2 -25.5,-5 -9,-3 -14,-3 -3,0 -4,1 -1,1 -1,4 0,5 3,16 3,11 9,36 6,25 11,51 l 12,61 27,-80 q 10,-29 15,-45 5,-16 5.5,-20 0.5,-4 0.5,-5 0,-6 -4,-7.5 -4,-1.5 -12,-1.5 z m -329,54 q 3,-2 3,-4 0,-3 -6.5,-8 -6.5,-5 -24.5,-13 l -40,-18 v 31 q 0,21 3,23.5 3,2.5 8,2.5 7,0 24,-4 5,-1 17,-4.5 12,-3.5 16,-5.5 z m 615,42 v -1 q 0,-1 0,-2 v -1 q 0,0 0,0 v -1 q 1,-1 1,-2 v -1 q 0,0 0,0 v -1 q 0,-1 0,-2 v -1 q 0,0 0,0 v -1 q 0,-1 1,-2 v -1 q 0,0 0,0 v -1 q 0,-1 0,-2 v -1 q 0,0 0,0 1,-5 1,-8 0,-3 -1,-3 0,0 -1,0 -2,0 -10.5,7.5 -8.5,7.5 -19,18.5 -10.5,11 -19,22 -8.5,11 -8.5,14 0,3 7.5,5 7.5,2 16.5,2 16,0 22,-6.5 6,-6.5 10,-31.5 z m -694,91 q 1,-42 4.5,-46.5 3.5,-4.5 5.5,-4.5 6,0 18,10 29,25 85.5,37 56.5,12 136.5,12 40,0 70.5,3 30.5,3 30.5,7 0,2 -10.5,4 -10.5,2 -28,3.5 -17.5,1.5 -41.5,3 -24,1.5 -48,2.5 -111,5 -151.5,14.5 -40.5,9.5 -40.5,21.5 0,6 6,12 19,18 76.5,30.5 57.5,12.5 138.5,12.5 38,0 68.5,2.5 30.5,2.5 30.5,6.5 0,2 -10.5,4 -10.5,2 -28,3.5 -17.5,1.5 -41.5,3 -24,1.5 -54,2.5 -43,1 -75,4 -32,3 -57,8.5 -25,5.5 -44.5,13.5 -19.5,8 -39.5,20 0,0 0,0 -2,0 -2.5,-13.5 -0.5,-13.5 -0.5,-25.5 0,-12 0,-26 0,-15 1,-32 0,-1 0,-2 v -1 q 0,0 0,-1 v -1 q 0,0 0,-1 v -1 q 0,-1 0,-1 v -1 q 0,-1 0,-2 v -1 q 0,0 0,-1 v -1 q 0,0 0,-1 v -1 q 0,-1 0,-2 v -1 q 0,0 0,0 v -1 q 0,-1 0,-2 v -1 q 0,-1 0,-2 v -1 q 0,0 0,0 v -1 q 0,-1 0,-2 v -1 q 0,-1 0,-1 v -1 q 0,-1 0,-1 l 1,-1 q 0,-17 0,-33 0,-1 0,-2 v -1 q 0,-1 0,-2 v -3 q 0,0 0,-1 0,-1 0,-1 v -1 q 0,-1 0,-1 v -1 q 0,0 0,-1 v -9 q 0,0 0,0 z m 961,12 q 2,-8 2,-13 0,-6 -4,-8.5 -4,-2.5 -30,-2.5 -39,0 -39,8 0,1 1,3 3,5 9,22.5 6,17.5 11,37.5 l 12,47 16,-37 q 7,-15 13.5,-32 6.5,-17 8.5,-25 z m 562,78 q -31,-13 -60,-25.5 -29,-12.5 -54.5,-23.5 -25.5,-11 -46,-19.5 -20.5,-8.5 -31.5,-12.5 l -53,-20 -22,24 q -16,17 -30.5,49 -14.5,32 -23,63.5 -8.5,31.5 -9,44 -0.5,12.5 -0.5,12.5 0,22 11,22 3,0 23,-2 20,-2 51,-6 31,-4 70,-8.5 39,-4.5 80,-9.5 41,-5 79.5,-10 38.5,-5 69.5,-9 31,-4 50.5,-6.5 19.5,-2.5 21.5,-3.5 0,0 0,0 0,-1 -8.5,-5.5 -8.5,-4.5 -26,-13 -17.5,-8.5 -41.5,-19 -24,-10.5 -50,-21.5 z m -1457,-86 q -18,-8 -26,-11 -8,-3 -12,-3 -1,0 -3,0.5 -2,0.5 -2.5,6 -0.5,5.5 -0.5,12.5 0,21 3,22.5 3,1.5 5,1.5 8,0 26,-5 12,-4 23.5,-6.5 11.5,-2.5 13.5,-2.5 1,0 1,-1 0,-1 -8,-4.5 -8,-3.5 -20,-9.5 z m 1156,14 q 0,-1 0,-1 0,-3 -9,-6 -9,-3 -27,-5 -12,-2 -19,-2 -7,0 -9.5,1.5 -2.5,1.5 -2.5,5.5 0,5 3,12 2,9 5.5,23.5 3.5,14.5 5.5,22.5 7,30 13,30 1,0 4.5,-1 3.5,-1 19.5,-43 4,-9 9,-22 5,-13 7,-15 z m -123,-10 h -40 q -17,0 -28.5,0.5 -11.5,0.5 -11.5,2.5 0,2 5,16.5 5,14.5 13,34.5 l 19,49 z m -82,57 q -5,-16 -12.5,-28.5 -7.5,-12.5 -12.5,-14.5 -1,0 -2,0 -7,0 -17.5,21 -10.5,21 -20.5,52.5 -10,31.5 -14.5,58.5 -4.5,27 -4.5,43 0,8 1,15 2,7 4,11.5 2,4.5 8,7 6,2.5 16.5,3.5 10.5,1 27.5,1 h 52 l -6,-65 q -1,-13 -3,-28 -2,-15 -5,-29 -3,-14 -5.5,-26.5 -2.5,-12.5 -5.5,-21.5 z m 137,30 q -8,-38 -13.5,-54 -5.5,-16 -9.5,-18 -1,0 -2,0 -5,0 -14.5,14 -9.5,14 -20,38.5 -10.5,24.5 -19.5,52.5 -9,28 -12,50 l -6,49 50,-8 q 21,-3 38.5,-6.5 17.5,-3.5 20.5,-5.5 4,-2 4,-14 0,-8 -3,-29.5 -3,-21.5 -13,-68.5 z m -523,-22 q 1,-6 2,-12.5 1,-6.5 1,-8.5 0,-2 -1,-2 -1,0 -9,8 l -51,53 h 26 q 17,0 23,-6 6,-6 9,-32 z m -565,44 q -18,-8 -26,-11 -8,-3 -12,-3 -1,0 -3,0.5 -2,0.5 -2.5,6 -0.5,5.5 -0.5,12.5 0,21 3,22.5 3,1.5 5,1.5 8,0 26,-5 12,-4 23.5,-6.5 11.5,-2.5 13.5,-2.5 1,0 1,-1 0,-1 -8,-4.5 -8,-3.5 -20,-9.5 z m -67,154 q 3,-51 7.5,-58.5 4.5,-7.5 8.5,-7.5 5,0 13,10 12,14 32.5,22.5 20.5,8.5 49,14.5 28.5,6 64.5,9.5 36,3.5 80,3.5 41,0 69,3 28,3 28,8 0,5 -27,7.5 -27,2.5 -68,2.5 -81,0 -142.5,10 -61.5,10 -88.5,29 -7,4 -14.5,8 -7.5,4 -9.5,4 -2,0 -2.5,-12.5 -0.5,-12.5 -0.5,-20.5 0,-14 1,-33 z m 639,-8 q -33,-1 -63,-2.5 -30,-1.5 -54.5,-3.5 -24.5,-2 -40.5,-4 -16,-2 -21,-3 -7,-3 -11,-3 -2,0 -3,1 -1,1 -1,3 0,3 2,7 2,8 2,20 0,4 -0.5,14.5 -0.5,10.5 -5.5,33.5 -2,9 -2.5,14 -0.5,5 -0.5,7 0,6 3,7.5 3,1.5 6,1.5 5,0 15,-3 10,-3 24,-8 17,-6 35.5,-11.5 18.5,-5.5 42,-11.5 23.5,-6 50.5,-12.5 27,-6.5 54,-12.5 l 129,-28 z m -575,-4 q -16,-7 -23.5,-9.5 -7.5,-2.5 -10.5,-2.5 -2,0 -4,0.5 -2,0.5 -2.5,6.5 -0.5,6 -0.5,27 0,0 0,1 0,0 0,0 v 1 q 0,0 0,0 v 4 q 0,6 2.5,6.5 2.5,0.5 4.5,0.5 3,0 10.5,-2 7.5,-2 23.5,-7 l 33,-12 z"
     id="path1" />
</svg>
