<?xml version="1.0" encoding="UTF-8" standalone="no"?>
<svg
   width="2000"
   height="2000"
   version="1.1"
   id="svg1"
   sodipodi:docname="u1227D.svg"
   inkscape:version="1.3.2 (091e20e, 2023-11-25)"
   xmlns:inkscape="http://www.inkscape.org/namespaces/inkscape"
   xmlns:sodipodi="http://sodipodi.sourceforge.net/DTD/sodipodi-0.dtd"
   xmlns="http://www.w3.org/2000/svg"
   xmlns:svg="http://www.w3.org/2000/svg">
  <defs
     id="defs1" />
  <sodipodi:namedview
     id="namedview1"
     pagecolor="#505050"
     bordercolor="#eeeeee"
     borderopacity="1"
     inkscape:showpageshadow="0"
     inkscape:pageopacity="0"
     inkscape:pagecheckerboard="0"
     inkscape:deskcolor="#505050"
     inkscape:zoom="0.379"
     inkscape:cx="1000"
     inkscape:cy="998.68074"
     inkscape:window-width="1392"
     inkscape:window-height="1212"
     inkscape:window-x="0"
     inkscape:window-y="0"
     inkscape:window-maximized="0"
     inkscape:current-layer="svg1" />
  <path
     d="m 766,714 q 68,-64 77,-67.5 9,-3.5 11,-3.5 3,0 3,4 0,8 -12,31 -13,25 -13.5,32.5 -0.5,7.5 -0.5,9.5 0,11 5,26 6,18 21,39.5 15,21.5 36.5,45.5 21.5,24 47,48 25.5,24 50.5,43 l 36,27 176,-107 q 36,-22 68.5,-41 32.5,-19 58,-33.5 25.5,-14.5 41.5,-23 16,-8.5 22,-8.5 3,0 3,2 0,1 -2.5,5 -2.5,4 -23,18 -20.5,14 -59.5,38.5 -39,24.5 -88,54.5 -46,28 -75,46.5 -29,18.5 -51,33 -22,14.5 -34,23.5 -12,9 -12,11 1,2 12.5,12.5 11.5,10.5 31,28 19.5,17.5 45.5,39.5 26,22 43,36 59,49 88.5,75 29.5,26 45,42.5 15.5,16.5 17,21 1.5,4.5 1.5,5.5 0,4 -6,4 -1,0 -13.5,-10 -12.5,-10 -33.5,-27.5 -21,-17.5 -48.5,-40.5 -27.5,-23 -57.5,-49 -30,-26 -57.5,-49 -27.5,-23 -48.5,-40 -21,-17 -33.5,-27 -12.5,-10 -13.5,-10 -2,0 -26.5,14 -24.5,14 -49.5,29 -39,24 -64.5,37.5 -25.5,13.5 -30.5,13.5 -5,0 -18.5,16 -13.5,16 -28.5,40 -15,24 -29.5,51.5 -14.5,27.5 -23.5,53.5 -10,26 -13,42 -3,16 -3,26 0,12 3,23 4,22 4,29 0,1 0,2 0,1 -2,1 -2,0 -8,-5 -12,-9 -17,-23 -5,-14 -5,-26 0,-16 -9.5,-51 -9.5,-35 -28.5,-87 -33,-91 -34,-104 -1,-13 -1,-15 0,-7 3,-7 5,0 17,15 32,40 77,40 12,0 49,-8.5 37,-8.5 137,-71.5 35,-22 53.5,-37 18.5,-15 18.5,-19 0,-1 0,-1 -1,-3 -19,-21 -18,-18 -39,-37 -21,-19 -35,-30 -14,-11 -27,-18.5 -13,-7.5 -26,-12 -13,-4.5 -29,-8.5 -25,-5 -43.5,-6 -18.5,-1 -28.5,-1 -17,0 -37.5,2 -20.5,2 -42,8 -21.5,6 -37.5,17 -13,8 -19,8 -3,0 -4.5,-1.5 -1.5,-1.5 -1.5,-3.5 0,-5 5,-13 7,-10 19,-18.5 12,-8.5 23,-13.5 10,-5 22.5,-14.5 Q 686,784 702,771 718,758 735.5,742 753,726 766,714 Z m 66,74 Q 826,781 820.5,768.5 815,756 810,745 l -9,-29 -45,41 -47,39 62,6 q 31,3 47,3 10,0 14.5,-1.5 4.5,-1.5 4.5,-5.5 0,-4 -5,-10 z m -77,383 q 12,-22 20,-39.5 8,-17.5 8,-19.5 0,0 0,0 -1,-1 -9,-1 -3,0 -13.5,0.5 -10.5,0.5 -30.5,2.5 l -49,3 15,45 q 7,18 13,35.5 6,17.5 7,18.5 1,4 4,4 3,0 11,-10 8,-10 24,-39 z"
     id="path1" />
</svg>
