<?xml version="1.0" encoding="UTF-8" standalone="no"?>
<svg
   width="2000"
   height="2000"
   version="1.1"
   id="svg1"
   sodipodi:docname="u122BF.svg"
   inkscape:version="1.3.2 (091e20e, 2023-11-25)"
   xmlns:inkscape="http://www.inkscape.org/namespaces/inkscape"
   xmlns:sodipodi="http://sodipodi.sourceforge.net/DTD/sodipodi-0.dtd"
   xmlns="http://www.w3.org/2000/svg"
   xmlns:svg="http://www.w3.org/2000/svg">
  <defs
     id="defs1" />
  <sodipodi:namedview
     id="namedview1"
     pagecolor="#505050"
     bordercolor="#eeeeee"
     borderopacity="1"
     inkscape:showpageshadow="0"
     inkscape:pageopacity="0"
     inkscape:pagecheckerboard="0"
     inkscape:deskcolor="#505050"
     inkscape:zoom="0.379"
     inkscape:cx="1000"
     inkscape:cy="998.68074"
     inkscape:window-width="1392"
     inkscape:window-height="1212"
     inkscape:window-x="0"
     inkscape:window-y="0"
     inkscape:window-maximized="0"
     inkscape:current-layer="svg1" />
  <path
     d="m 1388.5,639 q 1,-1 6,-1 2,0 9,0.5 7,0.5 19,3.5 17,3 43,5.5 26,2.5 49,2.5 h 54 l -21,25 q -23,26 -35.5,53 -12.5,27 -20,66.5 -7.5,39.5 -10,99 -2.5,59.5 -2.5,150.5 v 183 h 51 q 23,0 38,2.5 15,2.5 15,5.5 0,1 -15,3.5 -15,2.5 -41.5,4 -26.5,1.5 -61.5,3 -35,1.5 -85,2.5 -60,2 -101,4 -41,2 -66.5,5 -25.5,3 -43.5,7.5 -18,4.5 -44,12.5 -45,16 -89,38 -44,22 -65,40 -8,7 -12,7 -2,0 -3,-2 -1,-2 -1,-11 0,-10 2,-30 v -32 l -94,-25 q -83,-23 -125,-33.5 -42,-10.5 -63,-13.5 -21,-3 -36,-3 -7,0 -20.5,1 -13.5,1 -57.5,5 -34,5 -70,9 -7,1 -13,2 h -2 q -15,2 -24,3 l -2,1 q -1,0 -3,0 h -1 q -2,0 -3,0 l -27,5 21,-23 q 9,-10 24.5,-35 15.5,-25 32.5,-55 22,-43 30.5,-50.5 8.5,-7.5 11.5,-7.5 4,0 4,10 0,14 7.5,26.5 7.5,12.5 19,25.5 11.5,13 25,24 13.5,11 25.5,17 10,5 37,14 27,9 63,20 36,11 76,22.5 40,11.5 75,20.5 35,9 60.5,15 25.5,6 30.5,6 6,0 6,-19.5 0,-19.5 -3,-48.5 -3,-28 -3,-48.5 0,-20.5 3,-20.5 3,0 12,7.5 9,7.5 18,16.5 10,11 19,17.5 9,6.5 12,6.5 3,0 4,-11 1,-11 1,-22 0,-7 0,-16 -2,-18 -4,-32.5 -2,-14.5 -5,-14.5 h -191 v 54 q -1,41 -5,41 -1,0 -4.5,-4.5 -3.5,-4.5 -5.5,-49.5 -1,-20 -2,-30.5 -1,-10.5 -2,-10.5 -5,0 -20,6 -15,6 -33,13.5 -18,7.5 -36,16.5 -18,9 -30,18 -12,8 -21.5,12.5 -9.5,4.5 -11.5,4.5 -1,0 -1,0 -2,-2 -2.5,-23 -0.5,-21 -1.5,-51.5 -1,-30.5 -1,-67.5 0,-37 1,-67.5 1,-30.5 1.5,-52.5 0.5,-22 2.5,-23 0,-1 1,-1 2,0 9.5,5 7.5,5 17.5,14 54,45 107,45 21,0 21,-8 0,-4 -7.5,-23 -7.5,-19 -16.5,-40.5 -9,-21.5 -19,-39 -10,-17.5 -16,-20.5 -6,-4 -19,-4 -6,0 -22,2 -16,2 -47.5,12 -31.5,10 -66.5,25.5 -35,15.5 -67,33.5 l -45,27 3,-97 q 2,-41 4,-69.5 2,-28.5 2,-31.5 0,0 1,0 2,0 9.5,6 7.5,6 13.5,12 36,33 68.5,45 32.5,12 86.5,15 26,3 41,3 14,0 20,-2.5 6,-2.5 6,-6.5 0,-5 -7,-12 -6,-6 -6,-9 0,-4 10,-4 0,0 1,0 0,0 0,0 h 1 q 0,0 0,0 h 1 q 0,0 0,0 h 3 q 0,0 0,0 h 1 q 1,0 1,0 h 22 q 29,0 59.5,0.5 30.5,0.5 54.5,2 24,1.5 26,1.5 0,1 0,1 0,5 -6,13 -5,5 -5,8 0,3 6,5 6,2 44,2 h 57 l -6,-23 Q 995.5,747 987,728.5 978.5,710 972.5,696 962.5,674 957,661.5 951.5,649 951.5,647 q 0,0 0,0 0,0 0,0 1,0 1,0 h 1 q 0,0 1,0 0,0 0,0 h 2 q 1,0 2,0 h 13 q 1,0 2,0 h 5 q 26,0 68,1 45,3 62,5.5 17,2.5 17,14.5 0,6 -4,6 -6,0 -16,14 -10,14 -20.5,33.5 -10.5,19.5 -19.5,41.5 -9,22 -13,46 -3,16 -5.5,39.5 -2.5,23.5 -2.5,42 0,18.5 4,30 4,11.5 13,11.5 9,0 9,7 0,8 -9,8 -8,0 -10,4.5 -2,4.5 -3,18.5 -1,14 -1.5,39 -0.5,25 -0.5,65 v 128 l 37,13 q 18,6 52,10.5 34,4.5 76.5,7 42.5,2.5 87.5,2.5 45,0 86,-3 l 78,-6 v -183 q 0,-75 -2.5,-126 -2.5,-51 -8.5,-89.5 -6,-38.5 -17,-70 -11,-31.5 -28,-65.5 -10,-23 -15,-35 -5,-12 -5,-16 0,-1 1,-2 z m 138,32 q -2,-2 -20,-4 -18,-2 -38,-3.5 -20,-1.5 -36.5,-1.5 -16.5,0 -16.5,1 0,6 10,29 8,16 14.5,35.5 6.5,19.5 9.5,31.5 8,21 11.5,32.5 3.5,11.5 5.5,11.5 1,0 5.5,-13 4.5,-13 10.5,-28 6,-18 14.5,-37.5 8.5,-19.5 17.5,-29.5 6,-8 9,-14.5 3,-6.5 3,-8.5 z m -432,0 q 0,-3 -16.5,-4 -16.5,-1 -40.5,-1 -39,0 -46,2 -7,2 -7,9 0,6 3,15 3,7 10.5,29 7.5,22 14.5,40.5 7,18.5 12,31.5 5,13 7,14 1,1 2,1 2,0 3,-4 0,-1 0,-1 0,0 0,0 l 1,-2 q 0,-2 1,-5 l 1,-1 q 0,0 0,0 0,-1 1,-3 4,-18 12.5,-38 8.5,-20 23.5,-47 4,-8 11,-21.5 7,-13.5 7,-14.5 z m -555,82 q -9,-6 -16.5,-10.5 -7.5,-4.5 -10.5,-4.5 -2,0 -3.5,17.5 -1.5,17.5 -2.5,35.5 -1,18 -1,31 0,27 3,31.5 3,4.5 7,4.5 7,0 18,-9 10,-7 29,-15.5 19,-8.5 38,-15.5 l 45,-17 -42,-15 q -16,-6 -35,-15 -19,-9 -29,-18 z m 330,18 q 0,-4 -16,-6.5 -16,-2.5 -44,-2.5 -48,0 -48,7 0,0 0,1 1,4 17.5,6.5 16.5,2.5 39.5,2.5 21,0 36,-2.5 15,-2.5 15,-5.5 z m 145,45 q -3,-7 -6,-11.5 -3,-4.5 -10.5,-7 -7.5,-2.5 -20.5,-2.5 h -2 q -1,0 -1,0 h -1 q 0,0 -1,0 h -3 q 0,0 -1,0 h -3 q 0,0 -1,0 h -23 q -39,0 -54,2.5 -15,2.5 -26,12.5 -13,14 -23,44 -10,30 -10,55 v 23 h 203 l -5,-48 q -1,-18 -5,-37.5 -4,-19.5 -7,-30.5 z m -171,-16 q 0,-1 0,-1 0,-2 -7.5,-3 -7.5,-1 -17,-1 -9.5,0 -19.5,1 -10,1 -13,4 0,0 0,1 0,3 2.5,12 2.5,9 7,22 4.5,13 9,22.5 4.5,9.5 7.5,9.5 3,0 7.5,-9 4.5,-9 8.5,-22 z m 278,19 q 1,-1 10,-1 5,0 19,0.5 14,0.5 39.5,3 25.5,2.5 47.5,5.5 22,3 25,4 0,0 0,1 0,2 -6,10.5 -6,8.5 -15,18.5 -15,17 -23.5,32 -8.5,15 -13,36 -4.5,21 -6,52.5 -1.5,31.5 -1.5,77.5 -1,45 -2.5,83.5 -1.5,38.5 -4.5,48.5 -1,4 -2,4 -1,0 -2.5,-23.5 -1.5,-23.5 -3.5,-80.5 0,-50 -2,-85 -2,-35 -7.5,-61.5 -5.5,-26.5 -14.5,-48 -9,-21.5 -24,-45.5 -13,-22 -13,-30 0,-1 0,-2 z m 93,24 q -6,0 -17.5,-1.5 -11.5,-1.5 -21.5,-4.5 -11,-3 -18.5,-3 -7.5,0 -7.5,2 0,3 5.5,15.5 5.5,12.5 12.5,29.5 l 18,42 21,-41 q 15,-27 16,-30.5 1,-3.5 1,-3.5 0,-5 -9,-5 z m 37,45 q 2,-1 20,-1 18,0 40.5,1.5 22.5,1.5 41,3.5 18.5,2 20.5,4 1,1 1,2 0,4 -13,17 -15,15 -23.5,30 -8.5,15 -13,36 -4.5,21 -6,51 -1.5,30 -1.5,77 0,46 -1.5,78.5 -1.5,32.5 -4.5,32.5 -3,0 -6,-33 -3,-33 -4,-89 -2,-33 -2.5,-57.5 -0.5,-24.5 -3,-40.5 -2.5,-16 -7.5,-28.5 -5,-12.5 -17,-35.5 -9,-16 -14.5,-30 -5.5,-14 -5.5,-17 z m -487,62 -48,-26 -48,-24 v 48 q 0,20 0.5,33.5 0.5,13.5 2.5,13.5 l 15,-8 q 7,-3 15.5,-6.5 8.5,-3.5 17.5,-8.5 z m 579,-44 h -33 q -14,0 -23,1 -9,1 -9,2 0,2 4,11 4,9 10,21 l 13,30 z m -314,41 h -201 v 120 h 83 q 45,0 69,-1 24,-1 35,-7 11,-6 12.5,-19.5 1.5,-13.5 1.5,-37.5 z m -217,66 q 0,-32 -2.5,-44.5 -2.5,-12.5 -8.5,-12.5 -4,0 -19,6 -15,6 -32.5,13.5 -17.5,7.5 -34,15.5 -16.5,8 -23.5,13 l -20,13 33,21 q 14,9 33.5,16.5 19.5,7.5 35.5,9.5 l 38,6 z m -126,25 q -5,-7 -9,-7 -9,0 -9,46 0,21 2,34 2,13 5,13 3,0 16,-6 13,-6 28,-15 l 39,-21 -32,-15 q -13,-6 -23.5,-13 -10.5,-7 -16.5,-16 z m -137,96 q -9,-10 -16.5,-18.5 -7.5,-8.5 -8.5,-8.5 -2,0 -9.5,13 -7.5,13 -17,29.5 -9.5,16.5 -18.5,32.5 v 2 q -1,1 -2,3 v 1 q -2,3 -3,6 l -1,1 q 0,1 -1,1 v 1 q -1,2 -2,4 0,0 0,1 -1,2 -1,3 0,4 4.5,5 4.5,1 7.5,1 7,0 16,-2 12,-1 34.5,-4 22.5,-3 43.5,-5 l 46,-6 -24,-15 q -10,-6 -23.5,-18.5 -13.5,-12.5 -24.5,-26.5 z m 458,57 q -11,-7 -18.5,-13 -7.5,-6 -8.5,-6 -2,0 -2.5,22.5 -0.5,22.5 -0.5,53.5 -1,21 -1,38 0,9 0.5,24 0.5,15 3.5,15 1,0 12.5,-6 11.5,-6 20.5,-11 18,-10 39.5,-20 21.5,-10 42.5,-17 30,-11 37,-16.5 7,-5.5 7,-7.5 0,-3 -12,-3 -12,0 -26.5,-4.5 -14.5,-4.5 -31,-12 -16.5,-7.5 -33,-17.5 -16.5,-10 -29.5,-19 z"
     id="path1" />
</svg>
