<?xml version="1.0" encoding="UTF-8" standalone="no"?>
<svg
   width="2000"
   height="2000"
   version="1.1"
   id="svg1"
   sodipodi:docname="u1222A.svg"
   inkscape:version="1.3.2 (091e20e, 2023-11-25)"
   xmlns:inkscape="http://www.inkscape.org/namespaces/inkscape"
   xmlns:sodipodi="http://sodipodi.sourceforge.net/DTD/sodipodi-0.dtd"
   xmlns="http://www.w3.org/2000/svg"
   xmlns:svg="http://www.w3.org/2000/svg">
  <defs
     id="defs1" />
  <sodipodi:namedview
     id="namedview1"
     pagecolor="#505050"
     bordercolor="#eeeeee"
     borderopacity="1"
     inkscape:showpageshadow="0"
     inkscape:pageopacity="0"
     inkscape:pagecheckerboard="0"
     inkscape:deskcolor="#505050"
     inkscape:zoom="0.379"
     inkscape:cx="1000"
     inkscape:cy="998.68074"
     inkscape:window-width="1392"
     inkscape:window-height="1212"
     inkscape:window-x="0"
     inkscape:window-y="0"
     inkscape:window-maximized="0"
     inkscape:current-layer="svg1" />
  <path
     d="m 1173,647 q 1,-2 2,-2 3,0 8,4.5 5,4.5 11,15.5 12,24 42.5,44.5 30.5,20.5 73.5,35.5 43,15 95.5,23.5 52.5,8.5 125.5,8.5 46,0 66.5,2.5 20.5,2.5 20.5,5.5 0,1 -6.5,4 -6.5,3 -47,6.5 -40.5,3.5 -120.5,5.5 -41,1 -75,2.5 -34,1.5 -56,4.5 -22,3 -37,8 -15,5 -35,15 -53,27 -53,48 0,7 13.5,23 13.5,16 125.5,37 24,5 45.5,8 21.5,3 43.5,5.5 22,2.5 42.5,3.5 20.5,1 36.5,1 29,0 50,3 21,3 21,8 0,5 -38,7 -38,2 -106,2 -20,0 -38,0 -87,0 -137,8.5 -50,8.5 -50,27.5 0,11 17.5,19.5 17.5,8.5 49,16.5 31.5,8 75.5,15 44,7 102,12 49,4 84.5,9.5 35.5,5.5 35.5,6.5 0,0 0,0 -1,1 -11,2 -10,1 -26.5,1.5 -16.5,0.5 -37.5,0.5 -21,0 -45,-1 -43,0 -83,2 -40,2 -72,6 -32,4 -54.5,10 -22.5,6 -29.5,13 -4,4 -4,8 0,4 5,11.5 5,7.5 20,18.5 15,11 36.5,22 21.5,11 46.5,19 23,9 68.5,15.5 45.5,6.5 101.5,9.5 37,2 68.5,5.5 31.5,3.5 31.5,7.5 0,4 -37.5,7 -37.5,3 -90.5,3 -114,0 -175.5,14 -61.5,14 -91.5,52 -12,16 -19,16 0,0 -3.5,-0.5 -3.5,-0.5 -3.5,-29.5 v -31 h -77 q -45,0 -78,4 -33,4 -56.5,13.5 -23.5,9.5 -40,25 -16.5,15.5 -25.5,29.5 -6,9 -9,9 -4,0 -5,-11 -1,-11 -1,-29 0,-28 2,-76 1,-24 2,-49.5 1,-25.5 2,-45.5 1,-20 1,-34 0,0 0,-1 v -1 q 0,0 0,0 v -1 q 0,0 0,0 v -3 q 0,0 0,-1 0,-1 0,-1 v -2 q 0,0 0,0 V 980 q 0,-18 -1,-37.5 -1,-19.5 -1,-30.5 0,-13 0,-29 0,-16 0.5,-46.5 0.5,-30.5 3,-69.5 2.5,-39 5.5,-67 3,-28 8,-28 4,0 4,10 0,11 8.5,22 8.5,11 22.5,23.5 14,12.5 31,24.5 17,12 30,18 20,11 53,18 33,7 67,9 l 78,4 -8,-75 q -2,-30 -2,-53.5 0,-23.5 4,-25.5 z m 150,130 q 0,-3 -18,-13 -18,-10 -40.5,-20 -22.5,-10 -39,-16 -16.5,-6 -22.5,-6 -2,0 -3,1 -2,2 -3,11.5 -1,9.5 -1,18.5 0,4 0.5,13 0.5,9 2.5,21.5 2,12.5 5,18.5 4,6 14,6 3,0 11,-1 8,-1 38,-10 23,-8 39.5,-15 16.5,-7 16.5,-9 z M 779,765 q 7,-11 16,-17.5 9,-6.5 12,-6.5 1,0 1,0 2,1 2,5 0,2 -2,9.5 -2,7.5 -8,20 -6,12.5 -14.5,25 Q 777,813 770,819 q -9,7 -28,33 -19,26 -41.5,59 -22.5,33 -43.5,66.5 -21,33.5 -32,53.5 -5,11 -6,23.5 -1,12.5 -1,18.5 0,15 3,33 2,18 5,29.5 3,11.5 10,21.5 7,10 20,20 13,10 28,20 30,22 51.5,41 21.5,19 37,36.5 15.5,17.5 21,27 5.5,9.5 5.5,13.5 0,4 -3,5 0,0 -1,0 -3,0 -13.5,-7.5 Q 771,1305 762,1293 q -8,-10 -20,-21 -12,-11 -27.5,-24.5 Q 699,1234 680,1220 661,1206 642,1194 609,1171 588.5,1158.5 568,1146 551,1140 q -17,-6 -36,-8.5 -19,-2.5 -49,-4.5 l -84,-6 57,-42 q 21,-15 52.5,-42 31.5,-27 67,-58.5 35.5,-31.5 72,-65 Q 667,880 698,850.5 729,821 750.5,799 772,777 779,765 Z m 206,36 q 0,-3 -12.5,-12 Q 960,780 943,771 l -40,-22 -6,22 q -2,9 -5,23 -3,14 -3,24 0,20 12,20 3,0 8,-2 7,-4 21,-9.5 14,-5.5 27,-8.5 11,-5 19.5,-10 8.5,-5 8.5,-7 z m 183,18 -78,2 q -78,1 -125.5,16.5 Q 917,853 893,884 q -9,10 -9,17 0,1 1,4.5 1,3.5 11,13.5 15,14 37,24 22,10 50,17.5 28,7.5 57,12.5 29,5 55,5 20,0 34,3 14,3 14,7 0,6 -28.5,8.5 -28.5,2.5 -82.5,2.5 -25,0 -46.5,0.5 -21.5,0.5 -35.5,3 -14,2.5 -23,6.5 -9,4 -17,10 l -24,19 29,20 q 13,8 36,16.5 23,8.5 50,15 27,6.5 54.5,10.5 27.5,4 47.5,4 17,0 28.5,3 11.5,3 11.5,5 0,5 -28.5,7 -28.5,2 -69.5,2 -28,0 -48.5,1 -20.5,1 -35,3 -14.5,2 -25,5.5 -10.5,3.5 -23.5,12.5 -6,4 -11.5,8 -5.5,4 -6,6.5 -0.5,2.5 -0.5,3.5 0,3 2.5,7.5 2.5,4.5 9.5,12.5 27,29 73.5,47 46.5,18 105.5,23 l 75,3 6,-34 q 1,-9 1,-19 0,-7 -1,-21 -1,-14 -6,-25 -4,-13 -4,-23 0,-13 7,-20 6,-6 8.5,-16.5 2.5,-10.5 2.5,-22.5 0,-12 -3.5,-22.5 -3.5,-10.5 -10.5,-17.5 -6,-7 -6,-12.5 0,-5.5 6,-11.5 7,-7 10,-21.5 3,-14.5 3.5,-24 0.5,-9.5 0.5,-12.5 0,-13 -2.5,-25 -2.5,-12 -6.5,-15 -4,-2 -5,-12.5 -1,-10.5 -1,-17.5 0,-10 1,-20 z M 636,976 q 11,-18 20.5,-36 9.5,-18 9.5,-21 0,-1 0,-1 -1,0 -10,7 -9,7 -23.5,19.5 -14.5,12.5 -34,29 Q 579,990 558,1008 l -105,92 58,7 q 19,2 33,2 21,0 35.5,-7 14.5,-7 14.5,-28 0,-15 10.5,-39.5 Q 615,1010 636,976 Z m 601,-40 q -16,-5 -23,-7 -7,-2 -10,-2 -2,0 -4.5,1 -2.5,1 -2.5,6 v 2 q 0,0 0,0 v 1 q 0,0 0,1 0,0 0,1 0,0 0,0 v 11 q 0,0 0,1 0,20 3,22 3,2 7,2 6,0 18,-3 38,-8 38,-18 0,-8 -26,-18 z m -318,25 q -9,-4 -13,-4 -1,0 -3.5,0.5 -2.5,0.5 -2.5,10.5 0,11 4.5,16 4.5,5 14.5,5 14,0 16,-5.5 2,-5.5 2,-7.5 0,-8 -18,-15 z m 314,101 q -12,-4 -19.5,-6 -7.5,-2 -10.5,-2 -1,0 -3.5,0.5 -2.5,0.5 -2.5,4.5 v 1 q 0,1 0,1 v 1 q 0,0 0,0 0,1 0,1 0,0 0,0 v 9 q 0,1 0,1 0,8 5.5,13.5 5.5,5.5 12.5,7 7,1.5 12,1.5 5,0 13,-1.5 8,-1.5 16,-7.5 7,-4 7,-8 0,-1 -3,-4 -3,-3 -27,-12 z m -297,32 q -3,-5 -10.5,-8 -7.5,-3 -16,-3 -8.5,0 -14.5,3 -6,3 -6,9 0,8 9,13 6,4 12,4 1,0 5,-0.5 4,-0.5 10.5,-3 6.5,-2.5 9,-5.5 2.5,-3 2.5,-5 0,-2 -1,-4 z m 315,108 q -22,-9 -39.5,-16 -17.5,-7 -19.5,-7 -2,0 -4,14.5 -2,14.5 -2,34.5 0,25 2.5,33.5 2.5,8.5 7.5,8.5 2,0 4,-1 5,-2 22,-7 17,-5 25,-8 29,-8 42,-14 13,-6 13,-8 0,-2 -15,-11 -15,-9 -36,-19 z m -276,55 q 0,-5 -12.5,-14 -12.5,-9 -29.5,-17 l -41,-23 -4,41 q -2,17 -2,30.5 0,13.5 2,15.5 1,0 10.5,-2.5 9.5,-2.5 20.5,-9.5 13,-7 25,-11 12,-4 20,-4 11,0 11,-6 z"
     id="path1" />
</svg>
