<?xml version="1.0" encoding="UTF-8" standalone="no"?>
<svg
   width="2000"
   height="2000"
   version="1.1"
   id="svg1"
   sodipodi:docname="u122BD.svg"
   inkscape:version="1.3.2 (091e20e, 2023-11-25)"
   xmlns:inkscape="http://www.inkscape.org/namespaces/inkscape"
   xmlns:sodipodi="http://sodipodi.sourceforge.net/DTD/sodipodi-0.dtd"
   xmlns="http://www.w3.org/2000/svg"
   xmlns:svg="http://www.w3.org/2000/svg">
  <defs
     id="defs1" />
  <sodipodi:namedview
     id="namedview1"
     pagecolor="#505050"
     bordercolor="#eeeeee"
     borderopacity="1"
     inkscape:showpageshadow="0"
     inkscape:pageopacity="0"
     inkscape:pagecheckerboard="0"
     inkscape:deskcolor="#505050"
     inkscape:zoom="0.379"
     inkscape:cx="1000"
     inkscape:cy="998.68074"
     inkscape:window-width="1392"
     inkscape:window-height="1212"
     inkscape:window-x="0"
     inkscape:window-y="0"
     inkscape:window-maximized="0"
     inkscape:current-layer="svg1" />
  <path
     d="m 1182.5,644 q 0,-4 38,-5.5 38,-1.5 130,-1.5 1,0 1,0 h 1 q 1,0 2,0 h 1 q 0,0 1,0 h 2 q 1,0 1,0 h 21 q 25,0 39.5,1.5 14.5,1.5 19,3.5 4.5,2 4.5,7 0,10 -15,10 -20,0 -35.5,17.5 -15.5,17.5 -26.5,59.5 -1,4 -2.5,10.5 -1.5,6.5 -1.5,9.5 0,5 4.5,9 4.5,4 18.5,5.5 14,1.5 43,1.5 49,0 49,4 0,1 -5,4.5 -5,3.5 -67,10.5 -45,6 -72.5,11.5 -27.5,5.5 -42.5,11.5 -12,6 -15,10 -3,4 -3,11 0,5 1,12 3,9 4,18.5 1,9.5 1,11.5 0,9 18.5,11 18.5,2 69.5,2 50,0 74.5,2.5 24.5,2.5 24.5,8.5 0,4 -13,4 -23,0 -40,21 -17,21 -26,65 -3,15 -4,24 -1,9 -1,12 0,7 2,9 3,1 9,1 9,0 25,-3 14,-2 20,-2 3,0 5,0 2,0 2,2 0,1 -4.5,3.5 -4.5,2.5 -19.5,8.5 -15,6 -43,12 -20,5 -35.5,9.5 -15.5,4.5 -25.5,9.5 -10,5 -15,12 -5,7 -11,20 -6,12 -6.5,15 -0.5,3 -0.5,4 0,5 7,11 7,5 7,10 0,3 -3,5 -4,3 -6.5,14.5 -2.5,11.5 -2.5,27.5 0,17 -2,27.5 -2,10.5 -5,10.5 -3,0 -5.5,-11.5 -2.5,-11.5 -2.5,-26.5 v -37 h -82 q -36,0 -75,3.5 -39,3.5 -73.5,9.5 -34.5,6 -60,13.5 -25.5,7.5 -39.5,19.5 -6,5 -11.5,7 -5.5,2 -7.5,2 -2,0 -3,-1 -3,-3 -3,-19.5 0,-16.5 6,-94.5 3,-51 7.5,-112 4.5,-61 5,-79.5 0.5,-18.5 0.5,-23.5 0,-21 -2,-29 -2,-8 -8,-11 -6,-3 -7,-10.5 -1,-7.5 -1,-13.5 0,-11 2,-30 1,-21 4,-36 3,-15 5.5,-21.5 2.5,-6.5 5.5,-6.5 0,0 1.5,1 1.5,1 1.5,10 0,17 6.5,23.5 6.5,6.5 24,11 17.5,4.5 48,7 30.5,2.5 68.5,5.5 42,1 61.5,1 19.5,0 30.5,-0.5 11,-0.5 15.5,-3 4.5,-2.5 7.5,-6.5 6,-9 15,-9 3,0 6,1 4,1 7,1 8,0 11,-7.5 3,-7.5 3,-16.5 0,-7 -2,-19 -2,-12 -11,-30.5 -9,-18.5 -26,-30.5 -7,-6 -13,-12 -6,-6 -6,-8 z m 130,21 q -7,-6 -12,-6 -1,0 -3.5,1 -2.5,1 -8.5,8 -9,9 -15.5,24 -6.5,15 -11,31 -4.5,16 -6.5,25.5 -2,9.5 -2,13.5 0,3 1,4 3,3 16.5,3.5 13.5,0.5 31.5,0.5 h 43 v -31 q 0,-21 -9,-43 -9,-22 -24,-31 z m -42,0 q 0,-4 -6.5,-5 -6.5,-1 -15.5,-1 -17,0 -18,1.5 -1,1.5 -1,2.5 0,4 8,19 0,1 3,6.5 3,5.5 5,6.5 1,1 1,1 4,0 14,-12.5 10,-12.5 10,-18.5 z m 113,-6 h -23 q -18,0 -20,2.5 -2,2.5 -2,4.5 0,5 10,17 7,10 10,10 1,0 2.5,-0.5 1.5,-0.5 10.5,-13.5 z m -681,35 q 3,-3 5,-3 2,0 4,1 2,2 2,5 0,7 -11,22 -3,3 -10.5,13.5 -7.5,10.5 -13,21 -5.5,10.5 -6.5,15 -1,4.5 -1,6.5 0,3 2,3 3,0 23.5,-13 20.5,-13 39.5,-26 36,-24 50,-32 14,-8 18,-8 4,0 4,4 0,6 -12,16 -7,8 -14.5,20.5 -7.5,12.5 -15.5,24.5 -9,21 -9,28.5 0,7.5 6,18.5 11,21 26,21 2,0 4,0 3,-1 5,-1 2,0 2,2 0,1 -1,5 -1,4 -16,22 -36,46 -36,76 0,12 7,22 10,13 23,13 3,0 7,-1 3,-1 5,-1 3,0 3,2 0,0 -1,3 -1,3 -16,24 -30,44 -32,56 -2,12 -2,15 0,17 12,33 8,13 8,26 0,6 -1,11 0,3 0,6 0,5 1,11.5 1,6.5 5,12.5 7,9 13,9 2,0 6.5,-1.5 4.5,-1.5 36.5,-17.5 24,-14 36.5,-19.5 12.5,-5.5 17.5,-5.5 2,0 3,1 0,0 0,1 0,1 -4,8 -4,7 -10,13 -14,17 -14,27 0,6 4,9 6,6 6,15 0,6 -4,6 -5,0 -16,-10 -16,-12 -25,-13.5 -9,-1.5 -11,-1.5 -10,0 -15,7 -2,4 -2,6 0,1 0.5,3 0.5,2 6.5,8.5 6,6.5 18.5,18 12.5,11.5 30.5,26.5 32,25 32,30 0,1 -2,1 -1,0 -8,-1.5 -7,-1.5 -47,-32.5 -44,-33 -71,-46 -27,-13 -52,-13 h -24 l 34,-36 q 15,-15 25,-27 10,-12 10,-18 0,-9 -19.5,-24 -19.5,-15 -43.5,-15 -23,0 -23,13 0,8 9,22 8,13 8,20 0,2 -2,4 -1,1 -2,1 -4,0 -13,-15 -26,-43 -69,-43 -17,0 -37,7 -17,6 -24,6 -2,0 -3,-1 0,0 0,0 0,-3 18.5,-16.5 18.5,-13.5 54.5,-39.5 23,-15 44,-30 21,-15 21,-19 0,-3 -6,-10 -6,-7 -14.5,-14.5 -8.5,-7.5 -17.5,-14 -9,-6.5 -15,-8.5 -2,0 -5,0 -5,0 -15,1.5 -10,1.5 -31,10.5 -15,6 -18,6.5 -3,0.5 -3,0.5 -3,0 -3,-2 0,-6 19,-21 19,-15 44,-32 27,-18 47.5,-33.5 20.5,-15.5 21.5,-21.5 1,-2 1,-4 0,-4 -4,-10.5 -4,-6.5 -14,-14 -10,-7.5 -21,-13 -11,-5.5 -22,-5.5 -9,0 -18.5,3 -9.5,3 -18.5,8 -9,4 -14,4 -2,0 -3,0 -2,-1 -2,-2 0,-5 17.5,-19.5 17.5,-14.5 56.5,-41.5 29,-18 53,-36 24,-18 27,-22 z m 135,40 q 3,-1 6,-3 3,-1 6,-3 3,-1 6,-3 3,-1 6,-3 3,-1 6,-3 15,-7 19,-7 5,0 5,4 0,2 -1.5,6.5 -1.5,4.5 -13.5,14.5 -17,14 -17,28 0,9 9,19 5,4 5,7 0,2 -5,2 -9,0 -18,-9 -12,-13 -36,-13 -5,0 -10,1 -6,1 -10,1 -9,0 -9,-4 0,-1 3.5,-6.5 3.5,-5.5 48.5,-28.5 z m -81,18 q 0,-4 -3,-4 -7,0 -26,15 -13,10 -14,12.5 -1,2.5 -1,2.5 0,4 9,10 8,5 11,5 6,0 15,-17.5 9,-17.5 9,-23.5 z m -96,5 q 0,-8 -3,-8 -3,0 -20,11 -19,13 -20.5,16.5 -1.5,3.5 -1.5,3.5 0,5 9,8 4,2 8,2 9,0 18.5,-9 9.5,-9 9.5,-24 z m 321,33 q -14,-5 -24.5,-7 -10.5,-2 -13.5,-2 -7,0 -7,4 0,3 -1.5,8.5 -1.5,5.5 -3.5,8.5 -1,4 -1,7 0,6 8,6 8,0 38,-7 18,-6 19.5,-7.5 1.5,-1.5 1.5,-2.5 0,-3 -16,-8 z m 319,-2 q 0,0 0,0 0,-1 -6.5,-2 -6.5,-1 -18.5,-1 -18,0 -21,1.5 -3,1.5 -3,3.5 0,2 4,6 6,7 14,7 6,0 12,-4 7,-3 12.5,-6 5.5,-3 6.5,-5 z m -550,35 q -18,-17 -35.5,-20.5 -17.5,-3.5 -24.5,-3.5 -12,0 -18,6 -2,3 -2,6 0,6 6,13.5 6,7.5 14,7.5 4,0 9,-2 3,-1 5,-1 3,0 3,3 0,7 -20,33 -23,27 -25.5,36 -2.5,9 -2.5,11 0,4 3,4 4,0 13,-5 9,-4 25.5,-15.5 16.5,-11.5 30.5,-22 14,-10.5 23,-18.5 9,-8 9,-10 0,-10 -13,-22 z m 492,-23 -77,2 q -33,0 -60.5,0.5 -27.5,0.5 -57.5,6.5 -21,3 -55.5,10.5 -34.5,7.5 -46.5,13.5 -6,5 -6,8 0,3 7,13 14,18 25,24 11,6 47,12 23,3 55,7 32,4 52.5,4.5 20.5,0.5 31.5,0.5 12,0 26.5,-0.5 14.5,-0.5 16.5,-3.5 3,-3 13.5,-5.5 10.5,-2.5 25.5,-2.5 18,0 20.5,-2.5 2.5,-2.5 2.5,-8.5 0,-5 -1,-13 -3,-10 -6,-23 -3,-13 -6,-22 z m -413,90 q 41,-21 47.5,-22 6.5,-1 7.5,-1 4,0 4,3 0,3 -11,14 -12,14 -13.5,19 -1.5,5 -1.5,10 0,6 2,15 l 6,24 -21,-17 q -12,-9 -19,-11 -7,-2 -12,-2 -8,0 -20,3 -7,1 -12,1 -7,0 -7,-3 0,-1 4,-6.5 4,-5.5 46,-26.5 z m -88,3 q 0,-4 -3,-4 -6,0 -20,10 -19,14 -19,22 0,6 9,8 4,1 7,1 14,0 21,-17 2,-5 3.5,-11.5 1.5,-6.5 1.5,-8.5 z m -95,11 q 1,-5 1,-9 0,-5 -4,-5 -4,0 -24,14 -15,10 -16,12.5 -1,2.5 -1,2.5 0,3 8,6 7,2 13,2 18,0 23,-23 z m 353,-2 q -12,-3 -22.5,-5 -10.5,-2 -13.5,-4 -2,-1 -3,-1 -9,0 -12,21 -2,6 -2.5,10.5 -0.5,4.5 -0.5,5.5 0,4 1,5 1,0 2,0 4,0 12.5,-1.5 8.5,-1.5 21,-5.5 12.5,-4 24,-8.5 11.5,-4.5 14.5,-5.5 1,-1 1,-2 0,-2 -5,-4.5 -5,-2.5 -17,-4.5 z m 399,8 q 0,-3 -5.5,-4 -5.5,-1 -11.5,-1 -18,0 -19,4 -1,4 -1,6 0,7 8,22 6,11 8,11 0,0 1.5,-0.5 1.5,-0.5 8.5,-13.5 8,-15 11,-24 z m -105,0 q 0,-5 -21,-5 -20,0 -21,2.5 -1,2.5 -1,3.5 0,6 8,23 l 11,18 12,-20 q 4,-7 8,-14 4,-7 4,-8 z m 61,30 q -14,-28 -30,-28 -4,0 -17.5,7 -13.5,7 -30.5,76 -1,6 -2.5,13 -1.5,7 -1.5,10 0,5 3,8.5 3,3.5 14,4 11,0.5 31,0.5 h 48 v -31 q 0,-12 -4,-29.5 -4,-17.5 -10,-30.5 z m -111,-5 q -3,-4 -6.5,-7 -3.5,-3 -13.5,-5.5 -10,-2.5 -28,-2.5 h -3 q -1,0 -2,0 h -3 q -1,0 -2,0 h -1 q -1,0 -1,0 h -2 q 0,0 -1,0 h -2 q 0,0 -1,0 h -1 q -1,0 -2,0 h -28 q -87,2 -145,15.5 -58,13.5 -58,31.5 0,15 46,25.5 46,10.5 127,13.5 40,3 70,5 30,2 33,7 2,1 7,3.5 5,2.5 10,3.5 3,1 6,1 5,0 7.5,-5 2.5,-5 4.5,-23 1,-7 1,-14 0,-32 -12,-49 z m -534,8 q -18,-8 -23,-8 -5,0 -11,3 -15,5 -15,15.5 0,10.5 10,17.5 7,5 11,5 3,0 4,-3 4,-6 8,-6 1,0 3,1 2,2 2,5 0,7 -11,21 -12,13 -23.5,30.5 -11.5,17.5 -11.5,24.5 0,5 4,5 4,0 13.5,-4.5 9.5,-4.5 42.5,-28.5 15,-12 24,-19.5 9,-7.5 12.5,-11.5 3.5,-4 3.5,-7 0,-1 -1,-4 -1,-3 -6,-9 -6,-8 -15.5,-16 -9.5,-8 -20.5,-11 z m 120,78 q 21,-11 37,-18.5 16,-7.5 20,-7.5 5,0 5,4 0,2 -1.5,6.5 -1.5,4.5 -12.5,13.5 -13,12 -14.5,21 -1.5,9 -1.5,11 0,10 7,15 5,2 5,6 0,2 -2,4 -2,3 -5,3 -6,0 -14,-10 -11,-11 -16.5,-12.5 -5.5,-1.5 -10.5,-1.5 -6,0 -15,2 -9,1 -16,1 -4,0 -10,-0.5 -6,-0.5 -6,-3.5 0,-3 15,-12 15,-9 36,-21 z m 164,-14 q -11,-1 -21.5,-3.5 -10.5,-2.5 -14.5,-5.5 -2,-1 -5,-1 -10,0 -13,16 -4,12 -4,17 0,3 1,4 2,2 7,2 4,0 12.5,-1.5 8.5,-1.5 23,-4.5 14.5,-3 26.5,-7.5 12,-4.5 12,-6.5 0,-6 -24,-9 z m -348,21 q 0,-4 -3,-4 -7,0 -26,15 -13,10 -14,12.5 -1,2.5 -1,2.5 0,4 9,10 8,5 11,5 6,0 15,-17.5 9,-17.5 9,-23.5 z m 585,20 q -9,-11 -14.5,-14.5 -5.5,-3.5 -14.5,-6 -9,-2.5 -25,-2.5 h -9 q -1,0 -2,0 h -3 q -1,0 -1,0 h -2 q 0,0 -1,0 h -24 q -27,0 -55.5,2.5 -28.5,2.5 -53.5,6 -25,3.5 -44.5,9 -19.5,5.5 -29.5,11.5 -16,8 -16,25 0,1 0.5,10.5 0.5,9.5 15.5,19.5 18,12 75.5,19.5 57.5,7.5 143.5,9.5 l 97,3 -3,-23 q -3,-21 -11,-37.5 -8,-16.5 -23,-32.5 z m -500,-5 q 3,-8 3,-12 0,-3 -1,-3.5 -1,-0.5 -1,-0.5 -5,0 -20,13 -12,11 -15,15 -3,4 -3,5 0,1 1,1 3,0 9,1.5 6,1.5 8,3.5 2,1 3,1 11,0 16,-24 z m 600,6 q 0,-1 -10.5,-2 -10.5,-1 -23.5,-1 -33,0 -36,3 -3,3 -3,5 0,6 7,16 9,11 14.5,11 5.5,0 29.5,-15 7,-5 14.5,-10 7.5,-5 7.5,-7 z m -705,68 5,30 q 7,39 29,73.5 22,34.5 70,80.5 22,21 39.5,39.5 17.5,18.5 17.5,21.5 0,1 -1,1 -2,0 -18.5,-13 -16.5,-13 -43.5,-35 -57,-50 -94,-70 -37,-20 -66,-20 -2,0 -5,0 h -33 l 49,-54 z m 378,22 q -16,-3 -32,-6.5 -16,-3.5 -20,-6.5 -2,-1 -4,-1 -11,0 -14,28 -2,10 -2,17 0,8 2.5,10.5 2.5,2.5 7.5,2.5 7,0 19,-5 9,-4 25.5,-8.5 16.5,-4.5 26.5,-6.5 17,-4 26,-6.5 9,-2.5 9,-5.5 0,-1 -13,-5 -13,-4 -31,-7 z m -252,38 q -6,-21 -15,-21 -5,0 -10,7 -6,7 -6,12 0,10 21,15 6,2 9,2 2,0 2.5,-1 0.5,-1 0.5,-2 0,-4 -2,-12 z m -120,21 q -6,-18 -10.5,-28.5 -4.5,-10.5 -7.5,-10.5 -1,0 -8.5,6.5 -7.5,6.5 -16,15 -8.5,8.5 -13.5,15 -5,6.5 -5,8.5 0,1 0,1 1,2 8.5,5 7.5,3 16.5,6 11,3 20.5,6.5 9.5,3.5 14.5,5.5 5,2 7,2 3,0 3,-3.5 0,-3.5 -9,-28.5 z"
     id="path1" />
</svg>
