<?xml version="1.0" encoding="UTF-8" standalone="no"?>
<svg
   width="2000"
   height="2000"
   version="1.1"
   id="svg1"
   sodipodi:docname="u122FB.svg"
   inkscape:version="1.3.2 (091e20e, 2023-11-25)"
   xmlns:inkscape="http://www.inkscape.org/namespaces/inkscape"
   xmlns:sodipodi="http://sodipodi.sourceforge.net/DTD/sodipodi-0.dtd"
   xmlns="http://www.w3.org/2000/svg"
   xmlns:svg="http://www.w3.org/2000/svg">
  <defs
     id="defs1" />
  <sodipodi:namedview
     id="namedview1"
     pagecolor="#505050"
     bordercolor="#eeeeee"
     borderopacity="1"
     inkscape:showpageshadow="0"
     inkscape:pageopacity="0"
     inkscape:pagecheckerboard="0"
     inkscape:deskcolor="#505050"
     inkscape:zoom="0.379"
     inkscape:cx="1000"
     inkscape:cy="998.68074"
     inkscape:window-width="1392"
     inkscape:window-height="1212"
     inkscape:window-x="0"
     inkscape:window-y="0"
     inkscape:window-maximized="0"
     inkscape:current-layer="svg1" />
  <path
     d="m 831,704.5 q 46,-57 56,-62 10,-5 12,-5 4,0 4,4 0,6 -9,23 -10,21 -13.5,39 -3.5,18 -3.5,32 0,8 1,15 2,12 4.5,22 2.5,10 8.5,19.5 6,9.5 17.5,20 11.5,10.5 30.5,25.5 l 56,47 50,-55 q 20,-23 34,-34 14,-11 18,-11 2,0 3,1 1,2 1,6 0,2 -0.5,6.5 -0.5,4.5 -4.5,10.5 -7,9 -9,25.5 -2,16.5 -2,32.5 0,4 0.5,16 0.5,12 4.5,30 4,18 10,26 3,5 13,14.5 10,9.5 26,22 16,12.5 35.5,28 19.5,15.5 37.5,28.5 24,17 41,30.5 17,13.5 29,24 12,10.5 17,16 5,5.5 5,7.5 0,1 -1,1 -1,0 -2,0 -5,0 -20.5,-8 -15.5,-8 -63.5,-42 -23,-16 -51,-35.5 -28,-19.5 -45.5,-28.5 -17.5,-9 -32,-10.5 -14.5,-1.5 -39.5,-2.5 -13,0 -28,0.5 -15,0.5 -30,1.5 -15,1 -28.5,2 -13.5,1 -23.5,3 l -47,8 45,-46 q 18,-19 31,-34 13,-15 13,-17 0,-2 -13.5,-14 -13.5,-12 -37.5,-28 -12,-9 -22.5,-15.5 -10.5,-6.5 -20,-9.5 -9.5,-3 -18.5,-3 -1,0 -7.5,0.5 -6.5,0.5 -21.5,2.5 -24,4 -50,10.5 -26,6.5 -43,11.5 -35,13 -46,13 -4,0 -4.5,-1 -0.5,-1 -0.5,-2 0,-8 36,-47 8,-9 21,-23.5 13,-14.5 27,-30.5 14,-16 27.5,-32.5 13.5,-16.5 23.5,-28.5 z m 26,63 q -2,-18 -5,-30.5 -3,-12.5 -6,-12.5 -2,0 -15.5,14.5 -13.5,14.5 -29,31.5 -15.5,17 -28,32.5 -12.5,15.5 -12.5,18.5 0,2 8.5,2 8.5,0 32.5,-3 16,-3 30.5,-5.5 14.5,-2.5 20.5,-7.5 6,-5 6,-14.5 0,-9.5 -2,-25.5 z m 211,142 q -3,-23 -5.5,-39 -2.5,-16 -3.5,-17 0,0 0,0 -1,0 -9,7.5 -8,7.5 -20,20.5 -12,13 -26,28.5 -14,15.5 -25,28.5 -8,10 -10,13.5 -2,3.5 -2,4.5 0,2 2.5,4 2.5,2 14,2.5 11.5,0.5 32.5,0.5 h 58 z m -265,114 q 0,-4 8.5,-4.5 8.5,-0.5 11.5,-0.5 12,0 26,2 12,2 28.5,3 16.5,1 36.5,2 20,1 42,1.5 22,0.5 42,0.5 41,0 69.5,2 28.5,2 28.5,6 0,4 -13.5,11.5 -13.5,7.5 -32.5,15.5 -31,13 -50,25 -19,12 -29.5,31.5 -10.5,19.5 -14,50 -3.5,30.5 -4.5,74.5 -2,53 -6,86 -4,33 -8,33 -4,0 -6.5,-30 -2.5,-30 -2.5,-76 0,-30 -1,-51 -1,-21 -3.5,-35.5 -2.5,-14.5 -8,-24.5 -5.5,-10 -12.5,-20 -13,-18 -31,-36.5 -18,-18.5 -35,-30.5 -13,-10 -24,-20.5 -11,-10.5 -11,-14.5 z m 207,25 H 861 l 37,38 38,36 z"
     id="path1" />
</svg>
