<?xml version="1.0" encoding="UTF-8" standalone="no"?>
<svg
   width="2000"
   height="2000"
   version="1.1"
   id="svg1"
   sodipodi:docname="u1230B.svg"
   inkscape:version="1.3.2 (091e20e, 2023-11-25)"
   xmlns:inkscape="http://www.inkscape.org/namespaces/inkscape"
   xmlns:sodipodi="http://sodipodi.sourceforge.net/DTD/sodipodi-0.dtd"
   xmlns="http://www.w3.org/2000/svg"
   xmlns:svg="http://www.w3.org/2000/svg">
  <defs
     id="defs1" />
  <sodipodi:namedview
     id="namedview1"
     pagecolor="#505050"
     bordercolor="#eeeeee"
     borderopacity="1"
     inkscape:showpageshadow="0"
     inkscape:pageopacity="0"
     inkscape:pagecheckerboard="0"
     inkscape:deskcolor="#505050"
     inkscape:zoom="0.379"
     inkscape:cx="1000"
     inkscape:cy="998.68074"
     inkscape:window-width="1392"
     inkscape:window-height="1212"
     inkscape:window-x="0"
     inkscape:window-y="0"
     inkscape:window-maximized="0"
     inkscape:current-layer="svg1" />
  <path
     d="m 1167,796 q 41,-35 50,-35 2,0 2,7 0,7 -49,52 -27,26 -43,45 -16,19 -26,38.5 -10,19.5 -14,41.5 -4,22 -6,60 -1,15 -1.5,23 -0.5,8 -0.5,11 0,11 2.5,21 2.5,10 7.5,20 5,10 14,24 7,11 15,22 8,11 17.5,22 9.5,11 19,21 9.5,10 20.5,20 14,13 26.5,28 12.5,15 12.5,20 0,2 -2,2 -3,0 -15,-8 -12,-8 -41,-35 -164,-152 -293,-152 -17,0 -33,2 -15,2 -28,2 -13,0 -17,-2 -4,-2 -4,-4 0,-2 3,-5 3,-3 20,-9 27,-10 73,-34.5 46,-24.5 97,-57.5 51,-33 102.5,-70 51.5,-37 90.5,-70 z m -89,115 q 2,-6 5,-16 3,-10 3,-12 0,-1 0,-1 -2,0 -23.5,14 -21.5,14 -42.5,28 -23,16 -38.5,27 -15.5,11 -30,20 -14.5,9 -26.5,16 -12,7 -26,14 -33,16 -33,22 0,6 21,6 31,0 68.5,14.5 37.5,14.5 75.5,37.5 34,20 41,20 7,0 7,-4 0,-4 -4,-11 -8,-14 -10,-32 -2,-18 -2,-35 0,-6 0.5,-21.5 0.5,-15.5 3.5,-39 3,-23.5 11,-47.5 z"
     id="path1" />
</svg>
