<?xml version="1.0" encoding="UTF-8" standalone="no"?>
<svg
   width="2000"
   height="2000"
   version="1.1"
   id="svg1"
   sodipodi:docname="u12362.svg"
   inkscape:version="1.3.2 (091e20e, 2023-11-25)"
   xmlns:inkscape="http://www.inkscape.org/namespaces/inkscape"
   xmlns:sodipodi="http://sodipodi.sourceforge.net/DTD/sodipodi-0.dtd"
   xmlns="http://www.w3.org/2000/svg"
   xmlns:svg="http://www.w3.org/2000/svg">
  <defs
     id="defs1" />
  <sodipodi:namedview
     id="namedview1"
     pagecolor="#505050"
     bordercolor="#eeeeee"
     borderopacity="1"
     inkscape:showpageshadow="0"
     inkscape:pageopacity="0"
     inkscape:pagecheckerboard="0"
     inkscape:deskcolor="#505050"
     showgrid="false"
     inkscape:zoom="0.6205"
     inkscape:cx="999.1942"
     inkscape:cy="1000"
     inkscape:window-width="2560"
     inkscape:window-height="1412"
     inkscape:window-x="0"
     inkscape:window-y="0"
     inkscape:window-maximized="1"
     inkscape:current-layer="svg1" />
  <path
     d="m 1464,640 q 2,-2 31.5,-2 29.5,0 67.5,1 105,5 105,15 0,3 -9,6 -16,6 -28,24 -12,18 -23,42 l -28,87 v 32 l -2,196 q 0,53 -1,100 -1,47 -2,82 -1,35 -2,54.5 -1,19.5 -2,19.5 0,0 0,0 -5,-3 -13.5,-5 -8.5,-2 -23.5,-5 -15,-3 -40,-6.5 -25,-3.5 -54,-7.5 -72,-10 -97,-12.5 -25,-2.5 -37,-2.5 -11,0 -21,2 -10,2 -10.5,10 -0.5,8 -0.5,13 0,11 1,26 2,17 2,28 0,25 -8,25 -5,0 -7.5,-15 -2.5,-15 -2.5,-41 v -57 l -101,-15 q -79,-12 -114.5,-13.5 -35.5,-1.5 -48.5,-1.5 -34,0 -48,5 -11,3 -12,10.5 -1,7.5 -1,11.5 0,13 4,41 2,20 2,33 0,24 -7,24 -5,0 -8.5,-16 -3.5,-16 -3.5,-43 v -57 h -45 q -19,0 -51.5,4 -32.5,4 -60.5,10 -29,5 -46.5,7 -17.5,2 -22.5,2 -2,0 -3,0 -1,-1 -1,-2 0,-4 3.5,-13.5 3.5,-9.5 9.5,-25.5 l 15,-37 -44,-6 q -18,-2 -54,-4 -36,-2 -69,-2 h -79 l 6,52 q 1,14 1,24 0,29 -8,29 -6,0 -8.5,-14 -2.5,-14 -2.5,-39 0,-52 -11,-52 -5,0 -20,12.5 -15,12.5 -30,27.5 -20,19 -32.5,28.5 -12.5,9.5 -15.5,9.5 -1,0 -1,0 0,-1 -0.5,-8 -0.5,-7 -0.5,-13 0,-7 0.5,-18 0.5,-11 1,-30.5 0.5,-19.5 1.5,-40.5 l 6,-103 42,39 q 35,32 49,32 2,0 6,-2 4,-2 4,-16 0,-16 -8,-46 -5,-23 -14.5,-49 Q 428,958 418,935 408,912 399.5,897 391,882 384,882 q -3,0 -8,2.5 -5,2.5 -7,7.5 -6,10 -11,10 -3,0 -8,-8.5 -5,-8.5 -5,-46.5 0,-20 -2,-42 -2,-22 -7,-33 -3,-10 -3.5,-15 -0.5,-5 -0.5,-7 0,-5 2,-6 1,0 2,0 5,0 23.5,6.5 Q 378,757 404,769 l 61,32 137,-3 q 29,-1 54,-1 25,0 43.5,0.5 18.5,0.5 29.5,1.5 11,1 11,3 0,2 -11.5,4.5 -11.5,2.5 -32,5 -20.5,2.5 -47.5,4.5 -27,2 -61,4 -41,3 -71,6 -30,3 -49.5,6 -19.5,3 -31,7 -11.5,4 -19.5,10 l -28,19 70,2 q 29,2 49,4.5 20,2.5 20,5.5 0,2 -7.5,15 -7.5,13 -16.5,25 -10,14 -15,24 -5,10 -8,22 -3,12 -4,29 -1,17 -1,48 0,23 0.5,39 0.5,16 2.5,25 2,9 7,13 5,4 10,7 14,6 49.5,10.5 35.5,4.5 77.5,6.5 l 97,5 v -38 q 0,-32 5.5,-33.5 5.5,-1.5 6.5,-1.5 10,0 34,18 18,14 42,27.5 24,13.5 47,24.5 l 53,24 3,-65 q 0,-9 0,-17 0,-97 -50,-205 l -22,-46 -32,22 q -14,9 -25.5,16 -11.5,7 -14.5,7 -1,0 -3,-13 -2,-13 -3.5,-32.5 Q 759,817 757,794 q -2,-23 -3,-39.5 -1,-16.5 -1,-27.5 0,-6 0.5,-15.5 0.5,-9.5 1.5,-11.5 0,0 0,0 2,0 13,7.5 11,7.5 21,14.5 21,16 42.5,27.5 21.5,11.5 37.5,13.5 9,2 32,3 23,1 45,1 11,0 35,-0.5 24,-0.5 63.5,-2 39.5,-1.5 73,-3 33.5,-1.5 56.5,-4 23,-2.5 25,-4.5 1,-1 1,-3 0,-4 -4,-17 -4,-13 -12,-33 l -20,-46 92,3 q 39,2 66.5,3 27.5,1 29.5,1 0,0 0,0 0,2 -5.5,12 -5.5,10 -12.5,20 -28,42 -41.5,84 -13.5,42 -20.5,103 l -6,69 h 293 l -6,-42 q -4,-22 -12,-51.5 -8,-29.5 -17.5,-60.5 -9.5,-31 -20,-59.5 Q 1493,707 1482,683 1475,669 1469.5,655.5 1464,642 1464,640 Z m 147,33 q 0,-1 0,-2 0,-5 -10.5,-7.5 Q 1590,661 1534,661 h -1 q 0,0 0,0 0,0 0,0 h -1 q 0,0 0,0 -1,0 -1,0 h -2 q 0,0 0,0 h -8 q 0,0 0,0 h -3 q -13,0 -14,5 -1,5 -1,8 0,8 6,26 6,18 18,49 18,46 22,52 4,6 6,6 3,0 5,-7 2,-5 8,-21 6,-16 13.5,-35 7.5,-19 15.5,-38.5 8,-19.5 14,-32.5 z m -295,9 -57,-4 q -12,-1 -21,-1 -10,0 -20,1 -10,1 -13.5,5 -3.5,4 -3.5,9 0,3 2,10 2,7 8,19 8,16 14,34.5 6,18.5 10,33.5 7,40 16,40 8,0 18,-36 5,-17 13,-39.5 8,-22.5 16,-36.5 z m -512,77 q -9,-10 -15,-10 -3,0 -7.5,5 -4.5,5 -4.5,42 0,26 3.5,37 3.5,11 12.5,11 5,0 11,-3.5 6,-3.5 8,-7.5 2,-4 14,-11.5 12,-7.5 26,-13.5 l 35,-15 -36,-12 Q 836,776 822.5,769 809,762 804,759 Z m -397,34 q -15,-7 -27,-11.5 -12,-4.5 -14,-4.5 -3,0 -3.5,7 -0.5,7 -0.5,11 0,9 1,21 1,6 2,13 1,7 2,12 1,7 2,12 2,0 13.5,-6 11.5,-6 25.5,-15 l 36,-21 z m 807,-12 -44,-1 q -13,0 -26,0 -26,0 -62.5,1.5 -36.5,1.5 -76,6 Q 966,792 935,798 q -31,6 -44,12 -14,8 -25,15 -11,7 -11,10 0,4 21,6.5 21,2.5 54,2.5 26,0 47.5,1.5 21.5,1.5 21.5,3.5 0,1 -6.5,12.5 Q 986,873 978,883 q -13,19 -22.5,40 -9.5,21 -14.5,35 -5,18 -7.5,50 -2.5,32 -2.5,62 0,6 0.5,26.5 0.5,20.5 3,48.5 2.5,28 8.5,32 4,2 28,7 24,5 58,10.5 34,5.5 72,11 38,5.5 70.5,9 32.5,3.5 48.5,4.5 16,1 22,1 8,0 10,-1 3,-3 4,-16.5 1,-13.5 1,-22.5 0,-12 -1,-25 l -3,-57 -48,3 q -15,1 -31.5,3 -16.5,2 -39.5,6 -23,4 -56,10.5 -33,6.5 -74,14.5 -17,4 -20,4.5 -3,0.5 -3,0.5 -4,0 -6.5,-3.5 -2.5,-3.5 -2.5,-11.5 0,-2 0.5,-8 0.5,-6 1.5,-27 2,-19 3,-30 1,-11 6.5,-13 5.5,-2 9.5,-2 7,0 19.5,3 12.5,3 24.5,7 41,11 76.5,15 35.5,4 64.5,4 h 69 l 4,-48 q 1,-10 1,-18 0,-33 -10,-36 -3,-1 -10,-1 -7,0 -23.5,1.5 -16.5,1.5 -46.5,6 -30,4.5 -64,11 -34,6.5 -64,13.5 -24,7 -37.5,10 -13.5,3 -18.5,3 -2,0 -3,-1 0,-2 0.5,-18 0.5,-16 2.5,-36 2,-36 5,-41.5 3,-5.5 9,-5.5 4,0 10,2 54,16 100.5,24.5 46.5,8.5 91.5,8.5 22,0 35.5,-2 13.5,-2 16.5,-9.5 3,-7.5 3,-15.5 0,-8 -3,-24 -3,-16 -14,-54 z m -255,89 q 0,0 0,-1 0,-3 -11.5,-5 -11.5,-2 -32.5,-2 -27,0 -32.5,2.5 -5.5,2.5 -5.5,6.5 0,3 3,9 3,7 7.5,20.5 4.5,13.5 7.5,21.5 7,19 12,27.5 5,8.5 7,8.5 2,0 8.5,-11.5 Q 929,935 936,918 q 8,-17 14.5,-31 6.5,-14 8.5,-17 z m -470,29 q 0,-4 -9.5,-5.5 Q 470,892 456,892 q -14,0 -24,1.5 -10,1.5 -10,3.5 0,1 5.5,12 5.5,11 10.5,25 l 17,35 18,-32 q 7,-12 11.5,-23.5 Q 489,902 489,899 Z m 572,55 q -24,-6 -35,-9 -11,-3 -17,-3 -1,0 -4.5,0.5 -3.5,0.5 -4.5,5.5 -1,5 -1,15 0,11 1.5,16.5 1.5,5.5 5.5,6 4,0.5 7,0.5 6,0 17,-2 11,-2 34,-8 l 43,-10 z m 495,15 h -137 q -28,0 -54,0.5 -26,0.5 -45.5,1.5 -19.5,1 -31.5,2 -12,1 -13,2 -3,2 -5,17.5 -2,15.5 -2,34.5 v 47 h 288 z m -497,111 q -11,-2 -25,-5.5 -14,-3.5 -21,-5.5 -10,-3 -15,-3 -3,0 -6,2 -3,2 -3,19 0,10 1.5,15.5 1.5,5.5 6.5,7.5 5,2 11,2 4,0 12.5,-1 8.5,-1 29.5,-4 32,-6 33,-9.5 1,-3.5 1,-4.5 0,-6 -25,-13 z m -607,54 q -2,-4 -12.5,-13 -10.5,-9 -26.5,-20 l -39,-27 v 117 l 30,-24 q 12,-11 23.5,-18.5 11.5,-7.5 15.5,-7.5 3,0 6,-2 3,-2 3,-5 z m 1104,-41 h -137 q -28,0 -54,0.5 -26,0.5 -45.5,1.5 -19.5,1 -31.5,2.5 -12,1.5 -13,3.5 -3,1 -5,21 -2,20 -2,68 v 2 q 0,1 0,1 0,1 0,2 0,0 0,0 v 10 q 0,0 0,1 0,13 12.5,20.5 12.5,7.5 43,12 30.5,4.5 93.5,13.5 57,8 77.5,11 20.5,3 28.5,3 14,0 23.5,-5 9.5,-5 9.5,-24 v -9 q 0,-1 0,-3 v -1 q 0,-4 0,-7 v -2 q 0,0 0,-1 z m -767,39 q -12,-8 -23,-13.5 -11,-5.5 -13,-5.5 -3,0 -8.5,16.5 -5.5,16.5 -10.5,37 -5,20.5 -7.5,34.5 -2.5,14 -2.5,19 0,4 1,5 1,1 5,1 4,0 15.5,-1.5 11.5,-1.5 31.5,-6.5 22,-4 49.5,-6.5 27.5,-2.5 46.5,-2.5 37,0 37,-9 0,-1 -1.5,-6.5 Q 907,1188 863,1170 845,1163 822.5,1152 800,1141 789,1132 Z"
     id="path1" />
</svg>
