<?xml version="1.0" encoding="UTF-8" standalone="no"?>
<svg
   width="2000"
   height="2000"
   version="1.1"
   id="svg1"
   sodipodi:docname="u1235D.svg"
   inkscape:version="1.3.2 (091e20e, 2023-11-25)"
   xmlns:inkscape="http://www.inkscape.org/namespaces/inkscape"
   xmlns:sodipodi="http://sodipodi.sourceforge.net/DTD/sodipodi-0.dtd"
   xmlns="http://www.w3.org/2000/svg"
   xmlns:svg="http://www.w3.org/2000/svg">
  <defs
     id="defs1" />
  <sodipodi:namedview
     id="namedview1"
     pagecolor="#505050"
     bordercolor="#eeeeee"
     borderopacity="1"
     inkscape:showpageshadow="0"
     inkscape:pageopacity="0"
     inkscape:pagecheckerboard="0"
     inkscape:deskcolor="#505050"
     inkscape:zoom="0.379"
     inkscape:cx="1000"
     inkscape:cy="998.68074"
     inkscape:window-width="1392"
     inkscape:window-height="1212"
     inkscape:window-x="0"
     inkscape:window-y="0"
     inkscape:window-maximized="0"
     inkscape:current-layer="svg1" />
  <path
     d="m 863,640.5 q 59,-2 113.5,-3 54.5,-1 93.5,-1 20,0 56.5,0.5 36.5,0.5 72.5,1.5 36,1 36,3 0,2 -9,10 -9,8 -19,14 -16,10 -35,27.5 -19,17.5 -36,42.5 -6,8 -12.5,18.5 -6.5,10.5 -9.5,22.5 -3,12 -3,28 0,16 1,41 l 3,74 45,-2 q 3,0 7,0 31,0 33,5 2,5 2,7 0,11 -23,41 -20,27 -33.5,53.5 -13.5,26.5 -21.5,57 -8,30.5 -11,68 -3,37.5 -3,92.5 0,51 -2.5,86.5 -2.5,35.5 -7.5,35.5 -5,0 -6.5,-38 -1.5,-38 -1.5,-95 0,-28 0,-63 1,-33 1,-67.5 0,-34.5 -2.5,-54 -2.5,-19.5 -8.5,-30.5 -6,-11 -16,-26 -13,-19 -26,-34 -13,-15 -18,-18 -17,-6 -17,-12 0,-2 5,-7 5,-5 37,-5 h 42 l 2,-56 q 1,-28 1,-50 0,-16 -1,-37.5 -1,-21.5 -7,-40.5 -6,-19 -18,-30.5 -12,-11.5 -28,-19.5 -20,-11 -37,-11 -11,0 -28.5,8 -17.5,8 -47.5,50 -10,13 -15.5,23.5 -5.5,10.5 -8.5,22.5 -3,12 -4,28 -1,16 -1,41 v 78 h 42 q 17,1 31.5,2 14.5,1 17.5,2 2,0 2,2 0,3 -4,11 -4,8 -18,28 -17,22 -30.5,45 -13.5,23 -21.5,51 -8,28 -12,65 -4,37 -7,92 -2,32 -4,58 -2,26 -4.5,45.5 -2.5,19.5 -4.5,31 -2,11.5 -4,11.5 -1,0 -2.5,-11 -1.5,-11 -2,-25.5 -0.5,-14.5 -0.5,-25.5 0,-11 0.5,-30 0.5,-19 1.5,-53 2,-42 2,-76 0,-12 -0.5,-38 -0.5,-26 -6.5,-55.5 -6,-29.5 -18,-50.5 -12,-21 -32,-40 -15,-16 -25,-27.5 -10,-11.5 -10,-13.5 0,-1 12,-2.5 12,-1.5 28,-1.5 28,0 35.5,-5 7.5,-5 14.5,-39 7,-36 7,-66 0,-102 -85,-133 -11,-4 -22,-10 -11,-6 -11,-9 0,-4 28.5,-7.5 28.5,-3.5 69.5,-3.5 z m 90,22 H 843 l 57,57 z m 210,0 h -96 l 19,26 q 18,25 31,25 13,0 28,-25 z m -243,282 q -15,0 -32.5,-2 -17.5,-2 -27.5,-5 l -24,-6 28,51 q 13,21 22.5,37.5 9.5,16.5 10.5,17.5 1,1 1,1 2,0 5,-4 3,-4 5,-11 2,-9 10.5,-23.5 8.5,-14.5 16.5,-26.5 l 19,-29 z m 211,0 q -17,0 -33.5,-2 -16.5,-2 -24.5,-4 -4,-2 -7,-2 -7,0 -7.5,4 -0.5,4 -0.5,6 0,8 10,15 5,2 14,15.5 9,13.5 18,31.5 8,14 12.5,20.5 4.5,6.5 6.5,6.5 1,0 2,-2 0,-5 7,-20 7,-15 18,-31 l 26,-38 z"
     id="path1" />
</svg>
