<?xml version="1.0" encoding="UTF-8" standalone="no"?>
<svg
   width="2000"
   height="2000"
   version="1.1"
   id="svg1"
   sodipodi:docname="u1230D.svg"
   inkscape:version="1.3.2 (091e20e, 2023-11-25)"
   xmlns:inkscape="http://www.inkscape.org/namespaces/inkscape"
   xmlns:sodipodi="http://sodipodi.sourceforge.net/DTD/sodipodi-0.dtd"
   xmlns="http://www.w3.org/2000/svg"
   xmlns:svg="http://www.w3.org/2000/svg">
  <defs
     id="defs1" />
  <sodipodi:namedview
     id="namedview1"
     pagecolor="#505050"
     bordercolor="#eeeeee"
     borderopacity="1"
     inkscape:showpageshadow="0"
     inkscape:pageopacity="0"
     inkscape:pagecheckerboard="0"
     inkscape:deskcolor="#505050"
     inkscape:zoom="0.379"
     inkscape:cx="1000"
     inkscape:cy="998.68074"
     inkscape:window-width="1392"
     inkscape:window-height="1212"
     inkscape:window-x="0"
     inkscape:window-y="0"
     inkscape:window-maximized="0"
     inkscape:current-layer="svg1" />
  <path
     d="m 1376,772.5 q 4,-9 11,-10.5 7,-1.5 9,-1.5 7,0 7,6 0,7 -11,22 -11,15 -27,35 -6,7 -16.5,20.5 -10.5,13.5 -22.5,29 -12,15.5 -24,32.5 -12,17 -23,33 -50,74 -50,96 0,8 8,8 7,0 7.5,4.5 0.5,4.5 0.5,6.5 0,4 -1,8 -1,4 -1,8 0,11 10,28 10,17 40,49 39,42 48,60 9,18 9,24 0,7 -8,7 -8,0 -12.5,-6.5 -4.5,-6.5 -8.5,-14.5 -1,-5 -8,-14 -7,-9 -18.5,-21.5 -11.5,-12.5 -25.5,-27 -14,-14.5 -34,-33.5 -23,-22 -39,-36 -16,-14 -29,-21 -13,-7 -25.5,-8.5 -12.5,-1.5 -31.5,-1.5 -23,0 -38.5,-2 -15.5,-2 -15.5,-7 1,-3 14.5,-13.5 13.5,-10.5 31.5,-22.5 16,-11 42,-30.5 26,-19.5 55.5,-43.5 29.5,-24 60,-50 30.5,-26 55.5,-48 25,-22 41.5,-38.5 16.5,-16.5 19.5,-25.5 z m -471,17 q 8,-13 15.5,-15.5 7.5,-2.5 10.5,-2.5 6,0 6,7 0,8 -11,23 -11,15 -27,34 -5,7 -15.5,19.5 -10.5,12.5 -21.5,26.5 -11,14 -22,29 -11,15 -15,21 -49,71 -50.5,94.5 -1.5,23.5 -1.5,25.5 0,41 38,76 13,12 26.5,29 13.5,17 24,33.5 10.5,16.5 15,27.5 4.5,11 4.5,16 0,3 -1,4 -1,2 -2,2 -4,0 -13,-9.5 -9,-9.5 -20,-25.5 -10,-14 -20.5,-26 -10.5,-12 -22.5,-24.5 -12,-12.5 -25,-24.5 -13,-12 -27,-23 -15,-12 -28,-20.5 -13,-8.5 -24,-13 -11,-4.5 -22,-6.5 -11,-2 -27,-2 -18,0 -33.5,-2.5 -15.5,-2.5 -17.5,-4.5 -1,-1 -1,-2 0,-4 14,-16.5 14,-12.5 43,-33.5 24,-17 65.5,-49.5 41.5,-32.5 79.5,-65.5 38,-33 67.5,-60 29.5,-27 38.5,-41 z m 238,-11 q 0,-7 17,-7 11,0 11.5,1.5 0.5,1.5 0.5,2.5 0,3 -8,14 -4,5 -12,16.5 -8,11.5 -19,26.5 -11,15 -25,33 -14,18 -24,32 -82,109 -82,141 0,10 8,13 8,2 8,9 0,3 -1,6 -1,3 -1,6 0,9 8,23.5 8,14.5 34,43.5 29,32 44.5,56 15.5,24 15.5,34 0,4 -2,6 -1,1 -3,1 -3,0 -9,-4.5 -6,-4.5 -13,-16.5 -10,-16 -32.5,-40 -22.5,-24 -47,-47 -24.5,-23 -47,-40 -22.5,-17 -36.5,-19 -5,-1 -24.5,-5.5 -19.5,-4.5 -36.5,-7.5 l -42,-9 45,-30 q 16,-10 42,-30.5 26,-20.5 56.5,-46 30.5,-25.5 61.5,-52 31,-26.5 56,-49.5 25,-23 41,-38.5 16,-15.5 16,-22.5 z m 130,126 q 0,-2 -1,-2 -1,0 -2,0.5 -1,0.5 -8.5,6.5 -7.5,6 -23.5,19 -16,13 -42,35 -25,22 -38.5,34.5 -13.5,12.5 -18,18.5 -4.5,6 -4.5,9 0,1 1.5,3.5 1.5,2.5 16.5,6.5 19,5 31,5 6,0 15,-2.5 9,-2.5 14,-26.5 2,-14 12.5,-33 10.5,-19 25.5,-40 7,-9 14.5,-20.5 7.5,-11.5 7.5,-13.5 z m -486,43 q 20,-33 20,-38 0,-1 -1,-1 -3,0 -17,15 -18,21 -40,39 -22,18 -44,34 l -54,39 38,9 q 21,5 34,5 9,0 19,-3.5 10,-3.5 10,-18.5 0,-10 8,-29.5 8,-19.5 27,-50.5 z m 236,-3 q 8,-11 14,-20.5 6,-9.5 6,-10.5 0,-1 0,-1 -2,0 -18.5,13 -16.5,13 -38.5,31 -23,19 -45,36 -22,17 -30,24 -16,11 -16,17 0,1 3,4 3,3 32,6 12,1 20,1 13,0 19.5,-3.5 6.5,-3.5 13.5,-24.5 5,-15 15.5,-35 10.5,-20 24.5,-37 z"
     id="path1" />
</svg>
