<?xml version="1.0" encoding="UTF-8" standalone="no"?>
<svg
   width="2000"
   height="2000"
   version="1.1"
   id="svg1"
   sodipodi:docname="u12313.svg"
   inkscape:version="1.3.2 (091e20e, 2023-11-25)"
   xmlns:inkscape="http://www.inkscape.org/namespaces/inkscape"
   xmlns:sodipodi="http://sodipodi.sourceforge.net/DTD/sodipodi-0.dtd"
   xmlns="http://www.w3.org/2000/svg"
   xmlns:svg="http://www.w3.org/2000/svg">
  <defs
     id="defs1" />
  <sodipodi:namedview
     id="namedview1"
     pagecolor="#505050"
     bordercolor="#eeeeee"
     borderopacity="1"
     inkscape:showpageshadow="0"
     inkscape:pageopacity="0"
     inkscape:pagecheckerboard="0"
     inkscape:deskcolor="#505050"
     inkscape:zoom="0.379"
     inkscape:cx="1000"
     inkscape:cy="998.68074"
     inkscape:window-width="1392"
     inkscape:window-height="1212"
     inkscape:window-x="0"
     inkscape:window-y="0"
     inkscape:window-maximized="0"
     inkscape:current-layer="svg1" />
  <path
     d="m 1107.5,636.5 q 1,-2 13.5,-3 12.5,-1 31.5,-1 h 1 q 1,0 1,0 h 2 q 2,0 3,0 h 1 q 2,0 4,0 h 3 q 1,0 2,0 h 19 q 0,0 1,0 h 6 q 1,0 2,0 h 2 q 2,0 3,0 h 2 q 2,0 4,0 h 4 q 1,0 2,0 h 19 q 1,0 1,0 h 5 q 39,0 54.5,-0.5 15.5,-0.5 21.5,-0.5 13,0 22,1 9,1 12,2.5 3,1.5 3,6.5 0,5 -4.5,9.5 -4.5,4.5 -9.5,4.5 -5,0 -16.5,6.5 -11.5,6.5 -24,15.5 -12.5,9 -24,19 -11.5,10 -16.5,16 -5,7 -7.5,14.5 -2.5,7.5 -4.5,14.5 0,4 0,8 0,4 0,8 0,0 0,0 1,0 1,0 h 1 q 0,0 0,0 h 1 q 0,0 0,0 0,0 0,0 h 3 q 1,0 1,0 2,1 5,1 0,0 1,0 0,0 0,0 0,0 1,0 0,0 0,0 0,0 0,0 h 3 q 7,0 12.5,2.5 5.5,2.5 5.5,6.5 0,4 -5.5,6.5 -5.5,2.5 -12.5,3.5 -3,0 -6,0.5 -3,0.5 -8,0.5 0,0 0,0 0,0 0,0 0,0 0,0 0,0 0,0 h -2 q -3,46 -3,68 0,1 0,2 v 1 q 0,0 0,1 v 1 q 0,1 0,3 0,1 0,1 v 1 q 0,0 0,0 v 1 q 0,0 0,1 v 7 q 0,0 0,0 v 2 h 1 q 0,0 0,0 1,0 2,0 0,0 0,0 1,0 1,0 h 1 q 0,0 1,0 h 4 q 0,0 1,0 h 1 q 11,-1 24,-2 20,-3 31,-3 2,0 9,0.5 7,0.5 7,4.5 0,2 -8,13.5 -8,11.5 -20,25.5 -19,22 -30,40 -11,18 -17,46 -6,28 -7.5,73 -1.5,45 -1.5,120 0,87 -2,135 -2,48 -7,48 -3,0 -6,-12.5 -3,-12.5 -3,-29.5 v -30 q -1,-9 -1,-18 -19,-8 -48,-19 -47,-20 -135,-53 -92,-34 -139.5,-48.5 -47.5,-14.5 -73,-17.5 -25.5,-3 -39.5,-3 -19,0 -41,4.5 -22,4.5 -53,20.5 -16,8 -29.5,12.5 -13.5,4.5 -16.5,4.5 -1,0 -1,0 0,0 0,-1 0,-5 7,-23 l 3,-8 q 0,0 1,-1 l 3,-8 q 0,0 0,-1 l 4,-8 q 0,0 0,0 l 3,-9 q 0,0 0,0 l 4,-8 q 0,-1 0,-1 9,-22 15.5,-38 6.5,-16 12.5,-31 6,-15 10.5,-27.5 4.5,-12.5 6.5,-20.5 5,-16 10,-27.5 5,-11.5 7,-11.5 3,0 14,13 11,13 19,26 15,22 35,43.5 20,21.5 41.5,41.5 21.5,20 42.5,36.5 21,16.5 30,21.5 9,6 33,16 24,10 57,22.5 33,12.5 70.5,27 37.5,14.5 69,26 31.5,11.5 53.5,19.5 22,8 24,8 2,0 2,-17 0,-4 -0.5,-20 -0.5,-16 -0.5,-35 0,-94 -17.5,-154 -17.5,-60 -57.5,-117 l -30,-42 105,-3 1,-37 q 1,-10 1,-18 0,-9 -1,-19 -1,-10 -3,-14 -1,-1 -12,-1.5 -11,-0.5 -28,-1 -17,-0.5 -39,-0.5 h -3 q -1,0 -2,0 h -5 q 0,0 -1,0 h -1 q -1,0 -2,0 h -32 q -39,0 -65,1 -26,1 -46,3.5 -20,2.5 -38,7 -18,4.5 -42,12.5 -15,6 -30.5,12.5 -15.5,6.5 -30,13 -14.5,6.5 -26.5,12.5 -12,6 -21,13 -13,9 -23.5,13.5 -10.5,4.5 -12.5,4.5 -1,0 -1,0 -1,-2 -2.5,-17 -1.5,-15 -3,-36.5 -1.5,-21.5 -2.5,-46.5 -1,-25 -1.5,-41 -0.5,-16 -0.5,-24 0,-9 0.5,-19.5 0.5,-10.5 1.5,-10.5 2,0 12.5,8 10.5,8 25.5,20 21,19 39,30 18,11 44.5,17 26.5,6 68.5,7.5 42,1.5 143,1.5 0,0 1,0 0,0 0,0 h 3 q 1,0 1,0 h 1 q 0,0 0,0 h 3 q 1,0 1,0 h 24 q 30,0 51.5,-0.5 21.5,-0.5 34,-1.5 12.5,-1 12.5,-2 0,-6 -6,-17.5 -6,-11.5 -16,-24 -10,-12.5 -24,-24.5 -14,-12 -29,-20 -17,-11 -26.5,-19.5 -9.5,-8.5 -9.5,-12.5 z m 200,15 q 0,-1 -4,-1 -2,0 -8.5,0.5 -6.5,0.5 -19.5,1.5 -13,1 -27,2 -14,1 -25,1 -8,0 -20.5,-0.5 -12.5,-0.5 -23,-1.5 -10.5,-1 -18,-1 -7.5,0 -7.5,1 0,1 5.5,5 5.5,4 12.5,9 7,5 15,10.5 8,5.5 12,10.5 l 28,35 21,-27 q 6,-7 15.5,-15 9.5,-8 19.5,-14.5 10,-6.5 17,-11 z m -441,118 q -13,-5 -31,-14 -18,-9 -31,-17 l -30,-20 v 123 l 60,-30 72,-29 z m 377,122 q -5,1 -19,1 h -1 q -1,0 -3,0 -1,0 -1,0 h -1 q -1,0 -1,0 h -1 q -1,0 -2,0 h -2 q -1,0 -1,0 h -1 q -1,0 -1,0 h -13 q -1,0 -1,0 h -37 l 33,59 35,67 10,-43 q 3,-14 11,-31 8,-17 15,-28 8,-10 16,-18.5 8,-8.5 8,-10.5 z m -422,195 q -16,-15 -31.5,-33.5 -15.5,-18.5 -25.5,-31.5 l -24,-30 -29,77 q -17,44 -19,53 -2,9 -2,11 0,6 5,6 3,0 7,-2 9,-4 26.5,-8.5 17.5,-4.5 35,-7.5 17.5,-3 29,-4 11.5,-1 17.5,-1 7,0 13,1 6,1 12.5,2 6.5,1 11.5,2 l 11,2 q 0,0 0,0 l -2,-2 q 0,0 -1,-1 l -2,-2 q 0,0 0,0 l -2,-2 q 0,0 0,0 l -2,-2 q -1,-1 -1,-1 l -2,-2 q 0,0 0,0 0,0 0,0 l -2,-2 q 0,0 -1,-1 l -2,-2 q 0,0 0,0 l -2,-2 q -1,-1 -1,-1 l -2,-2 q 0,0 0,0 l -3,-3 q 0,0 0,0 -7,-7 -12,-11 z"
     id="path1" />
</svg>
