<?xml version="1.0" encoding="UTF-8" standalone="no"?>
<svg
   width="2000"
   height="2000"
   version="1.1"
   id="svg1"
   sodipodi:docname="u12312.svg"
   inkscape:version="1.3.2 (091e20e, 2023-11-25)"
   xmlns:inkscape="http://www.inkscape.org/namespaces/inkscape"
   xmlns:sodipodi="http://sodipodi.sourceforge.net/DTD/sodipodi-0.dtd"
   xmlns="http://www.w3.org/2000/svg"
   xmlns:svg="http://www.w3.org/2000/svg">
  <defs
     id="defs1" />
  <sodipodi:namedview
     id="namedview1"
     pagecolor="#505050"
     bordercolor="#eeeeee"
     borderopacity="1"
     inkscape:showpageshadow="0"
     inkscape:pageopacity="0"
     inkscape:pagecheckerboard="0"
     inkscape:deskcolor="#505050"
     inkscape:zoom="0.379"
     inkscape:cx="1000"
     inkscape:cy="998.68074"
     inkscape:window-width="1392"
     inkscape:window-height="1212"
     inkscape:window-x="0"
     inkscape:window-y="0"
     inkscape:window-maximized="0"
     inkscape:current-layer="svg1" />
  <path
     d="m 1021.5,657 q 9,-21 14,-21 1,0 4,0.5 3,0.5 3,17.5 0,25 16.5,54 16.5,29 47,64.5 30.5,35.5 73,74.5 42.5,39 95.5,81 22,17 35.5,27 13.5,10 21.5,14.5 8,4.5 13,4.5 1,0 4,-0.5 3,-0.5 8,-3.5 5,-3 9.5,-3.5 4.5,-0.5 6.5,-0.5 4,0 5,1 1,0 1,1 0,7 -48,38 -48,31 -138,84 -54,32 -81,49.5 -27,17.5 -47.5,32.5 -20.5,15 -32,25.5 -11.5,10.5 -11.5,14.5 0,3 8.5,9 8.5,6 21.5,12 12,5 21,11 9,6 9,10 0,2 -2,2.5 -2,0.5 -3,0.5 -2,0 -7,-2 -1,0 -13,-5 -12,-5 -26,-10 l -35,-13 -39,39 q -17,17 -33.5,37.5 -16.5,20.5 -24.5,31.5 -16,26 -20,27.5 -4,1.5 -5,1.5 -5,0 -5,-14 0,-11 -3,-24.5 -3,-13.5 -8,-28 -5,-14.5 -11.5,-28.5 -6.5,-14 -13.5,-25 -8,-12 -8,-18 0,-2 2.5,-4.5 2.5,-2.5 35.5,-3.5 17,-2 35.5,-4.5 18.5,-2.5 27.5,-7.5 l 21,-9 -44,-26 q -27,-16 -64,-29.5 -37,-13.5 -74,-22 -37,-8.5 -56.5,-10 -19.5,-1.5 -26.5,-1.5 -21,0 -34,5 -13,5 -20,5 -5,0 -5,-4 0,-7 15,-26 12,-15 22.5,-32.5 10.5,-17.5 14.5,-26.5 18,-33 18,-71 0,-2 -0.5,-23.5 -0.5,-21.5 -20.5,-75.5 -11,-34 -11,-44 0,0 0,-2 0,-2 3,-2 4,0 12,7 18,15 31,17.5 13,2.5 21,2.5 17,0 43,-6 20,-3 46.5,-11.5 26.5,-8.5 50.5,-17.5 24,-9 41,-17 17,-8 17,-11 0,-3 12.5,-18 12.5,-15 27.5,-31 21,-21 36.5,-40.5 15.5,-19.5 20.5,-28.5 z m 14,41 q 0,-3 -2,-7 -2,-4 -7,-7 -3,-2 -4,-2 -2,0 -2,2 0,5 -9.5,16.5 -9.5,11.5 -22.5,25.5 -21,23 -22,25.5 -1,2.5 -1,2.5 0,2 3,2 2,0 8,-2 8,-2 14,-2 6,0 7,4 2,2 17.5,9 15.5,7 36.5,16 33,12 41,12 2,0 2.5,-0.5 0.5,-0.5 0.5,-0.5 0,-6 -25,-37 -19,-24 -27,-37.5 -8,-13.5 -8,-19.5 z m 55,116 q -16,-8 -38,-16 -22,-8 -38,-14 -14,-4 -21,-5 -7,-1 -12,-1 -4,0 -9.5,0.5 -5.5,0.5 -15.5,4.5 -10,4 -24,10 -20,10 -41.5,18.5 -21.5,8.5 -32.5,13.5 -13,4 -34,19 -21,15 -42,33.5 -21,18.5 -37.5,37.5 -16.5,19 -22.5,34 -6,13 -6,25 0,9 4.5,23.5 4.5,14.5 29.5,40.5 20,22 54.5,48.5 34.5,26.5 70,50 35.5,23.5 62,37 26.5,13.5 37.5,13.5 2,0 4,-1 4,-2 5.5,-4.5 1.5,-2.5 1.5,-4.5 0,-2 -3,-4 -2,-4 -4.5,-39 -2.5,-35 -4.5,-95 -1,-24 -2,-47.5 -1,-23.5 -4,-38.5 -3,-15 -7.5,-25.5 Q 955.5,917 946.5,903 937.5,886 926,871.5 914.5,857 904.5,852 q -7,-4 -8.5,-7 -1.5,-3 -1.5,-4 0,-3 3,-5 4,-2 8,-2 6,0 13,4 10,6 21.5,7 11.5,1 22.5,1 6,0 19.5,-0.5 13.5,-0.5 32.5,-3.5 19,-3 34,-7 l 20,-4 -21,27 q -12,17 -23,42 -11,25 -19,55 -8,30 -12.5,63 -4.5,33 -4.5,69 0,26 2,50.5 2,24.5 5,29.5 2,2 7,2 5,0 17.5,-4 12.5,-4 55.5,-27 32,-17 73,-40.5 41,-23.5 78.5,-45.5 37.5,-22 64.5,-39 27,-17 29,-20 0,0 0,-1 0,-2 -6,-8.5 -6,-6.5 -24.5,-22.5 -18.5,-16 -50.5,-42 -32,-26 -53,-43 -41,-32 -60,-43.5 -19,-11.5 -36,-18.5 z m -307,36 -50,2 q -18,0 -27.5,0.5 -9.5,0.5 -13.5,2 -4,1.5 -4,5.5 0,4 5,24 6,23 9,32 3,9 6,9 1,0 1,0 2,0 14,-11.5 12,-11.5 27,-27.5 z m 237,17 q 4,-5 4,-8 0,-2 -2,-2 -2,0 -4,1 -5,0 -17,0.5 -12,0.5 -26,2.5 l -33,3 13,19 q 5,8 11.5,22 6.5,14 11.5,25 l 9,28 12,-40 q 5,-17 11,-32.5 6,-15.5 10,-18.5 z m -248,216 q -14,-13 -29,-28.5 -15,-15.5 -22,-24.5 l -18,-21 -48,83 h 24 q 11,0 33,2.5 22,2.5 44,7.5 l 52,11 z m 241,109 q 5,-6 5,-8 0,-1 -2.5,-1 -2.5,0 -14.5,9 -8,7 -9.5,9.5 -1.5,2.5 -1.5,2.5 0,2 3,2 3,0 8.5,-3.5 5.5,-3.5 11.5,-10.5 z m -79,74 q 38,-41 38,-51 0,-1 -0.5,-2.5 -0.5,-1.5 -6.5,-1.5 -10,0 -37,10 -19,7 -36,11 -17,4 -25,4 -12,0 -12,9 0,3 2,8 1,2 5,14.5 4,12.5 7,20.5 4,14 7,22 3,8 5,8 1,0 1,0 2,-1 17,-16.5 15,-15.5 35,-35.5 z"
     id="path1" />
</svg>
