<?xml version="1.0" encoding="UTF-8" standalone="no"?>
<svg
   width="2000"
   height="2000"
   version="1.1"
   id="svg1"
   sodipodi:docname="u12334.svg"
   inkscape:version="1.3.2 (091e20e, 2023-11-25)"
   xmlns:inkscape="http://www.inkscape.org/namespaces/inkscape"
   xmlns:sodipodi="http://sodipodi.sourceforge.net/DTD/sodipodi-0.dtd"
   xmlns="http://www.w3.org/2000/svg"
   xmlns:svg="http://www.w3.org/2000/svg">
  <defs
     id="defs1" />
  <sodipodi:namedview
     id="namedview1"
     pagecolor="#505050"
     bordercolor="#eeeeee"
     borderopacity="1"
     inkscape:showpageshadow="0"
     inkscape:pageopacity="0"
     inkscape:pagecheckerboard="0"
     inkscape:deskcolor="#505050"
     inkscape:zoom="0.379"
     inkscape:cx="1000"
     inkscape:cy="998.68074"
     inkscape:window-width="1392"
     inkscape:window-height="1212"
     inkscape:window-x="0"
     inkscape:window-y="0"
     inkscape:window-maximized="0"
     inkscape:current-layer="svg1" />
  <path
     d="m 460.5,644.5 q 24,-1 50,-2.5 26,-1.5 30,-1.5 2,-1 3,-1 3,0 3,5 0,3 -2,12 -2,9 -18,41 -15,30 -26.5,62.5 -11.5,32.5 -19,72.5 -7.5,40 -11.5,91 -4,51 -6,122 l -7,177 67,6 q 29,3 53,3 24,0 30,-2 5,-2 7.5,-9 2.5,-7 4,-25 1.5,-18 1.5,-43 0,-9 -0.5,-33 -0.5,-24 -2.5,-92 -1,-61 -2,-100.5 -1,-39.5 -3.5,-63.5 -2.5,-24 -6,-38 -3.5,-14 -12.5,-34 -7,-13 -11,-25.5 -4,-12.5 -4,-16.5 0,-1 0,-1 2,-2 34,-4.5 32,-2.5 76,-3.5 l 105,-4 -5,19 q -2,9 -9,39.5 -7,30.5 -12,52.5 -8,36 -11.5,58 -3.5,22 -5.5,47.5 -2,25.5 -3,56.5 -1,31 -1,73 v 143 l 65,-6 q 27,-2 49.5,-5 22.5,-3 25.5,-4 6,-1 8,-11.5 2,-10.5 3,-35.5 1,-25 1,-68 v -2 q 0,-1 0,-3 v -3 q 0,-2 0,-4 v -7 q 0,-4 0,-9 v -3 q 0,-1 0,-3 v -10 q 0,-1 0,-3 v -41 q 0,0 0,-1 v -4 q 0,-1 0,-2 v -6 q 0,-3 0,-6 -1,-77 -2.5,-122 -1.5,-45 -3.5,-70.5 -2,-25.5 -6,-38.5 -4,-13 -11,-26 -9,-14 -19,-28.5 -10,-14.5 -15,-19.5 -15,-12 -15,-19 0,-4 11,-9 11,-5 79,-6 h 90 l -26,51 q -14,27 -25.5,58 -11.5,31 -20,61 -8.5,30 -12,53.5 -3.5,23.5 -3.5,38.5 0,4 0,8 l 3,39 60,-123 30,34 q 15,18 32,32.5 17,14.5 44,29 27,14.5 68,30 41,15.5 104,36 63,20.5 153,47 90,26.5 143,42.5 98,28 117.5,36 19.5,8 19.5,16 0,4 -3,4 -1,0 -27,3 -26,3 -70.5,8 -44.5,5 -103.5,11.5 -59,6.5 -120,12.5 -73,8 -137,15 -64,7 -116.5,12.5 -52.5,5.5 -89.5,9.5 -37,4 -51,5 -45,4 -110.5,15.5 -65.5,11.5 -138.5,26.5 -73,15 -147,33 -74,18 -145,39 -28,8 -57.5,17 -29.5,9 -33.5,10 -1,0 -2,0 -7,0 -9.5,-12 -2.5,-12 -3.5,-48 -2,-29 -5,-51 -3,-22 -11,-32 -4,-5 -4,-9 0,-4 4.5,-5.5 4.5,-1.5 10.5,-1.5 10,0 27,4 13,5 30.5,7 17.5,2 30.5,2 9,0 15,-1 6,-1 9,-5.5 3,-4.5 5,-14 2,-9.5 3,-27.5 2,-10 3,-32 1,-22 1,-51 v -3 q 0,-4 0,-8 v -2 q 0,-3 0,-5 v -6 q 0,-1 0,-2 v -2 q 0,-1 0,-2 v -33 q 0,-34 -1,-92 -1,-32 -2,-66 -1,-34 -3.5,-56 -2.5,-22 -6.5,-36 -4,-14 -12,-30 -8,-19 -19,-37.5 -11,-18.5 -18,-25.5 -7,-5 -12.5,-12.5 -5.5,-7.5 -5.5,-9.5 0,-4 24.5,-6.5 24.5,-2.5 69.5,-4.5 z m 59,26 q 0,-2 -17,-3.5 -17,-1.5 -42,-1.5 h -58 l 22,42 q 9,18 18,37.5 9,19.5 12,35.5 4,19 10,19 1,0 5,-1 4,-1 9,-28 4,-11 10.5,-29.5 6.5,-18.5 13.5,-33.5 8,-14 12.5,-25 4.5,-11 4.5,-12 z m 450,4 q 0,-2 -11,-3.5 -11,-1.5 -21,-1.5 -9,0 -21,1 h -2 q -3,0 -6,0 h -4 q 0,0 -1,0 h -7 q 0,0 -1,0 h -17 q -16,0 -16,1 0,2 6,15.5 6,13.5 17,32.5 9,18 15.5,35 6.5,17 6.5,29 0,10 4,10 2,0 10,-9 8,-9 22,-50 9,-23 16.5,-40.5 7.5,-17.5 9.5,-19.5 z m -197,84 q 0,-1 -8,-2 -8,-1 -16,-1 -26,0 -28,6 -2,6 -2,9 0,13 11,41 7,20 9.5,23 2.5,3 3.5,3 5,0 12,-21 5,-14 11.5,-35 6.5,-21 6.5,-23 z m -60,54 q -5,-18 -12,-33.5 -7,-15.5 -10,-18.5 -2,-2 -4,-2 -6,0 -15,25 -9,25 -17,70 -7,34 -10,67.5 -3,33.5 -6,73 -3,39.5 -4.5,80.5 -1.5,41 -1.5,75 0,34 1,56 1,22 5,24 2,2 12,2 3,0 11.5,-0.5 8.5,-0.5 25.5,-2.5 l 40,-6 v -185 q 0,-54 -0.5,-91.5 -0.5,-37.5 -2.5,-63 -2,-25.5 -4.5,-42 -2.5,-16.5 -7.5,-28.5 z m -58,-37 q 0,-1 0,-1 0,-4 -7.5,-7 -7.5,-3 -18.5,-3 h -27 l 29,84 12,-30 q 5,-14 8.5,-26 3.5,-12 3.5,-17 z m 366,131 q -9,-7 -20.5,-16 -11.5,-9 -12.5,-9 -2,0 -10.5,13.5 -8.5,13.5 -18,30.5 -9.5,17 -17,32 -7.5,15 -7.5,17 0,2 29.5,2.5 29.5,0.5 71.5,0.5 l 102,2 -36,-18 q -15,-8 -36.5,-22.5 -21.5,-14.5 -44.5,-32.5 z m 175,103 q -24,-5 -56,-8 -32,-3 -65,-4.5 -33,-1.5 -53.5,-2 -20.5,-0.5 -29.5,-0.5 -18,0 -31,1 l -42,5 -3,100 q -2,42 -2.5,62.5 -0.5,20.5 -0.5,27.5 0,14 1,15 0,0 2,0 6,0 41.5,-3.5 35.5,-3.5 97.5,-9.5 62,-6 138.5,-13.5 76.5,-7.5 152,-15.5 75.5,-8 141.5,-15.5 66,-7.5 107,-12.5 l 49,-6 -199,-57 q -40,-11 -80.5,-22 -40.5,-11 -74,-19.5 -33.5,-8.5 -58.5,-14.5 -25,-6 -35,-7 z m -765,230 q -10,-2 -27,-5.5 -17,-3.5 -31,-5.5 l -33,-5 6,51 q 2,23 4.5,39.5 2.5,16.5 4.5,17.5 1,1 4,1 3,0 12.5,-1.5 9.5,-1.5 23.5,-6.5 9,-2 25.5,-6.5 16.5,-4.5 37.5,-10 21,-5.5 45,-12 24,-6.5 48,-13.5 l 119,-30 -78,-2 q -45,-2 -72,-3 -27,-1 -44,-2.5 -17,-1.5 -27,-3 -10,-1.5 -18,-2.5 z"
     id="path1" />
</svg>
