<?xml version="1.0" encoding="UTF-8" standalone="no"?>
<svg
   width="2000"
   height="2000"
   version="1.1"
   id="svg1"
   sodipodi:docname="u1233F.svg"
   inkscape:version="1.3.2 (091e20e, 2023-11-25)"
   xmlns:inkscape="http://www.inkscape.org/namespaces/inkscape"
   xmlns:sodipodi="http://sodipodi.sourceforge.net/DTD/sodipodi-0.dtd"
   xmlns="http://www.w3.org/2000/svg"
   xmlns:svg="http://www.w3.org/2000/svg">
  <defs
     id="defs1" />
  <sodipodi:namedview
     id="namedview1"
     pagecolor="#505050"
     bordercolor="#eeeeee"
     borderopacity="1"
     inkscape:showpageshadow="0"
     inkscape:pageopacity="0"
     inkscape:pagecheckerboard="0"
     inkscape:deskcolor="#505050"
     inkscape:zoom="0.379"
     inkscape:cx="1000"
     inkscape:cy="998.68074"
     inkscape:window-width="1392"
     inkscape:window-height="1212"
     inkscape:window-x="0"
     inkscape:window-y="0"
     inkscape:window-maximized="0"
     inkscape:current-layer="svg1" />
  <path
     d="m 1297,638 q 1,-1 4,-1 2,0 7,0.5 5,0.5 14,5.5 8,3 30,5 22,2 45,2 23,0 35,1.5 12,1.5 12,9.5 0,7 -5,17 -5,10 -17,35.5 -12,25.5 -19,50 -7,24.5 -11.5,52 -4.5,27.5 -5.5,57.5 -1,30 -1,59 0,15 0.5,46.5 0.5,31.5 2.5,98.5 1,62 2,103 1,41 3,64.5 2,23.5 5,33 3,9.5 8,11.5 4,2 6,6.5 2,4.5 2,6.5 0,1 0,2 0,0 -3,0 -7,0 -36,-5 -29,-5 -70,-15 -26,-6 -47,-10.5 -21,-4.5 -37.5,-8 -16.5,-3.5 -27,-5.5 -10.5,-2 -17.5,-2 -11,0 -31.5,3 -20.5,3 -41.5,7.5 -21,4.5 -41,9.5 -20,5 -39,12 -20,8 -28,9.5 -8,1.5 -11,1.5 -5,0 -6,-3 -2,-6 -31.5,-9 -29.5,-3 -88.5,-3 -53,0 -88,2.5 -35,2.5 -63.5,8.5 -28.5,6 -54.5,17 -26,11 -55,28 -9,5 -16,8 -1,1 -2,1 v 1 q 0,0 0,0 h -1 q 0,0 0,0 h -1 q 0,0 0,1 h -1 q 0,0 -1,1 h -1 q -2,1 -4,2 h -1 q -2,1 -3,2 l -2,1 q -2,1 -7,4 -1,0 -1,-12 0,-12 1,-30.5 1,-18.5 2,-40 1,-21.5 2,-40.5 1,-19 2,-31.5 1,-12.5 2,-13.5 0,-1 1,-1 2,0 10,5 8,5 21,14 22,17 39.5,27.5 17.5,10.5 41.5,16 24,5.5 60.5,7.5 36.5,2 97.5,4 l 155,5 21,-29 q 9,-12 23,-34.5 14,-22.5 25,-41.5 9,-17 14.5,-28.5 5.5,-11.5 8,-24 2.5,-12.5 3.5,-28.5 1,-16 1,-41 0,-24 -1,-40 -1,-16 -3,-29.5 -2,-13.5 -6.5,-25 Q 1072,940 1064,925 1055,905 1046.5,892.5 1038,880 1034,880 q -5,0 -12,12.5 -7,12.5 -14,29.5 -7,17 -10.5,32.5 -3.5,15.5 -3.5,29.5 0,7 1,15 1,13 1,34 0,11 -0.5,36.5 -0.5,25.5 -2,60 -1.5,34.5 -3.5,58 -2,23.5 -6,23.5 -4,0 -6,-25.5 -2,-25.5 -2,-68.5 v -93 H 857 q -48,0 -80.5,2 -32.5,2 -58,8 -25.5,6 -48.5,17 -23,11 -53,29 -12,8 -22.5,14 -10.5,6 -11.5,6 -1,0 -1.5,-9 -0.5,-9 -0.5,-17 0,-7 0.5,-21 0.5,-14 1.5,-35.5 1,-21.5 2,-40 1,-18.5 2.5,-31.5 1.5,-13 2.5,-14 0,0 1,0 2,0 9,5.5 7,5.5 14,12.5 21,19 36,29 15,10 37,15.5 22,5.5 56.5,7.5 34.5,2 91.5,4 l 144,3 -6,-24 q -2,-11 -10,-31 -8,-20 -18,-42 -8,-16 -14,-31.5 -6,-15.5 -6,-17.5 0,-5 42,-5 7,0 40,0.5 33,0.5 162,7.5 l 104,6 -24,35 q -8,13 -12.5,23 -4.5,10 -7.5,28 -3,18 -4,49 -1,31 -3,86 l -3,153 33,7 q 14,5 33,9 19,4 31,9 24,6 31,7 7,1 8,1 10,0 14,-14 4,-14 4,-45 0,-7 -0.5,-32 -0.5,-25 -1.5,-56 -7,-249 -20,-308 l -14,-60 -144,-1 q -30,-1 -56,-1 -26,0 -57,1 -31,1 -64,6.5 -33,5.5 -63.5,16.5 -30.5,11 -80.5,35 0,0 0,0 l -1,1 q -1,0 -3,1 -2,1 -3,1 l -2,1 q -1,1 -3,2 l -2,1 q -5,3 -10,5 l -2,1 q -3,1 -5,3 h -1 q -1,0 -1,0 -19,10 -22,10 0,0 0,0 -1,0 -1.5,-12 -0.5,-12 -0.5,-32 v -1 q 0,0 0,-1 v -1 q 0,-1 0,-2 v -3 q 0,-1 0,-1 v -2 q 0,0 0,-1 v -4 q 0,0 0,-1 v -1 q 0,-1 0,-2 v -22 q 0,-23 0.5,-43 0.5,-20 1,-34.5 0.5,-14.5 1.5,-15.5 2,0 15.5,8 13.5,8 31.5,19 18,14 40,25 22,11 35,16 10,2 43,4 33,2 75.5,2.5 42.5,0.5 74,1 31.5,0.5 45.5,0.5 30,0 62.5,-1 32.5,-1 58,-3 25.5,-2 25.5,-6 0,-2 -4,-17 -4,-15 -11,-32 -7,-18 -10,-29 -3,-11 -3,-15 0,-2 1,-3 z m 121,40 q 0,-4 -14,-7.5 -14,-3.5 -34,-5.5 -9,-1 -17,-1 -7,0 -15.5,1 -8.5,1 -10.5,5 -2,4 -2,7 0,4 3.5,13 3.5,9 9.5,22 11,22 15.5,38.5 4.5,16.5 4.5,32.5 0,24 4.5,26 4.5,2 5.5,2 7,0 11,-25 2,-15 8,-34.5 6,-19.5 17,-41.5 3,-6 8.5,-17.5 5.5,-11.5 5.5,-14.5 z m -551,41 q -9,-6 -19,-12 -10,-6 -12,-6 -2,0 -3,17 -1,17 -1,42 0,24 1,37 1,13 4,15.5 3,2.5 6,2.5 4,0 11,-3.5 7,-3.5 17,-9.5 14,-10 29.5,-15.5 15.5,-5.5 25.5,-8.5 35,-11 35,-17 0,-6 -23,-11 -20,-4 -37.5,-12 Q 883,730 867,719 Z m 322,252 q -8,-21 -16.5,-43 -8.5,-22 -13.5,-30 l -11,-20 -18,23 q -9,12 -15,25 -6,13 -8.5,32.5 -2.5,19.5 -2.5,48.5 0,29 2,71 2,40 4.5,65 2.5,25 7.5,40.5 5,15.5 13.5,24 8.5,8.5 27.5,18.5 14,7 20.5,9 6.5,2 8.5,2 6,0 10.5,-8 4.5,-8 5.5,-32 1,-24 1,-67 0,-31 -0.5,-53.5 -0.5,-22.5 -2.5,-41 -2,-18.5 -5,-33.5 -3,-15 -8,-31 z m -182,-91 h -28 q -20,0 -21.5,1.5 -1.5,1.5 -1.5,3.5 0,5 6,20 10,24 13,25 3,1 3,1 6,0 16,-23 z m 106,11 q 4,-5 4,-7 0,-2 -3,-3 -3,-1 -23,-1 h -30 l 14,30 q 10,21 12,22 2,1 2,1 3,0 8,-13 2,-8 7.5,-16.5 5.5,-8.5 8.5,-12.5 z m 125,-4 h -66 l 12,24 q 5,11 8.5,20.5 3.5,9.5 3.5,16.5 0,8 4,8 2,0 7.5,-4.5 Q 1213,947 1223,922 Z M 670,1010 Q 659,1005 644.5,996 630,987 622,980 l -20,-18 v 105 l 24,-13 q 9,-6 23.5,-12.5 Q 664,1035 674,1031 l 26,-9 z m 429,179 q -6,-11 -10,-20 -4,-9 -5,-9 -2,0 -11.5,16.5 -9.5,16.5 -19.5,36 -10,19.5 -17.5,35 -7.5,15.5 -7.5,17.5 0,0 0,0 1,1 4,1 4,0 18.5,-3 14.5,-3 37.5,-10 40,-9 44,-11.5 4,-2.5 4,-4.5 0,-3 -6,-7 -9,-6 -17.5,-17.5 Q 1104,1201 1099,1189 Z m -503,43 q -4,-6 -7,-6 -3,0 -7.5,8.5 -4.5,8.5 -4.5,47.5 0,36 3.5,41 3.5,5 6.5,5 6,0 17,-8 10,-7 24.5,-13.5 Q 643,1300 658,1295 l 33,-10 -44,-20 q -18,-8 -32,-16.5 -14,-8.5 -19,-16.5 z"
     id="path1" />
</svg>
