<?xml version="1.0" encoding="UTF-8" standalone="no"?>
<svg
   width="2000"
   height="2000"
   version="1.1"
   id="svg1"
   sodipodi:docname="u1236E.svg"
   inkscape:version="1.3.2 (091e20e, 2023-11-25)"
   xmlns:inkscape="http://www.inkscape.org/namespaces/inkscape"
   xmlns:sodipodi="http://sodipodi.sourceforge.net/DTD/sodipodi-0.dtd"
   xmlns="http://www.w3.org/2000/svg"
   xmlns:svg="http://www.w3.org/2000/svg">
  <defs
     id="defs1" />
  <sodipodi:namedview
     id="namedview1"
     pagecolor="#505050"
     bordercolor="#eeeeee"
     borderopacity="1"
     inkscape:showpageshadow="0"
     inkscape:pageopacity="0"
     inkscape:pagecheckerboard="0"
     inkscape:deskcolor="#505050"
     showgrid="false"
     inkscape:zoom="0.6205"
     inkscape:cx="999.1942"
     inkscape:cy="1000"
     inkscape:window-width="2560"
     inkscape:window-height="1412"
     inkscape:window-x="0"
     inkscape:window-y="0"
     inkscape:window-maximized="1"
     inkscape:current-layer="svg1" />
  <path
     d="m 621,693.5 q 14,-12 27,-22.5 13,-10.5 23,-18 10,-7.5 16,-11 6,-3.5 7,-3.5 1,0 1,0 3,1 3,8 0,1 -0.5,6 -0.5,5 -5.5,16 -7,21 -7.5,29.5 -0.5,8.5 -0.5,9.5 0,16 10.5,34.5 10.5,18.5 33,43.5 22.5,25 60.5,61 20,19 37,36 17,17 29.5,30.5 12.5,13.5 20,22 7.5,8.5 7.5,10.5 0,3 -12,6.5 -12,3.5 -30.5,6.5 -18.5,3 -41.5,5 -23,2 -37,2 -42,0 -78.5,21 -36.5,21 -65.5,60 -5,8 -13,17.5 -8,9.5 -10,9.5 -2,0 -4,-15 -2,-15 -3.5,-37.5 -1.5,-22.5 -3,-49 -1.5,-26.5 -2.5,-45.5 -1,-19 -1,-32 0,-6 0.5,-16.5 0.5,-10.5 1.5,-11.5 1,-1 1,-1 2,0 7,5 5,5 10,14 16,22 27,34.5 11,12.5 24.5,18.5 13.5,6 29,7 15.5,1 31.5,1 11,0 23,0 48,0 73,-1.5 25,-1.5 28,-6 3,-4.5 3,-6.5 0,-7 -12,-20 -12,-13 -41,-41 -55,-50 -103.5,-72 -48.5,-22 -112.5,-22 -10,0 -18.5,0.5 -8.5,0.5 -13.5,4 -5,3.5 -7.5,11 -2.5,7.5 -6.5,21.5 -7,27 -12,53.5 -5,26.5 -7,57.5 -2,31 -2,68 0,37 1,85 l 5,126 24,3 q 3,1 7,1 9,0 25,-4 16,-4 31,-12 15,-7 48.5,-29 33.5,-22 71.5,-50.5 38,-28.5 74.5,-58.5 36.5,-30 54.5,-47 18,-17 28.5,-32 10.5,-15 17,-29.5 6.5,-14.5 7,-21.5 0.5,-7 0.5,-9 0,-9 -4,-15 -3,-5 -6,-17.5 -3,-12.5 -4,-25.5 -2,-13 -4.5,-32 -2.5,-19 -6.5,-35 -5,-14 -6,-22 -1,-8 -1,-11 0,-3 1,-4 1,-1 3,-1 4,0 15,3 11,3 20,6 39,11 61,12 22,1 32,1 30,0 77,-5 47,-5 127,-21 80,-16 164,-35 106,-24 120.5,-25 14.5,-1 18.5,-1 9,0 9,2 0,1 -2,3 -5,4 -20.5,8.5 -15.5,4.5 -40.5,10.5 -25,6 -57.5,13.5 -32.5,7.5 -52.5,11.5 -144,30 -230,59.5 -86,29.5 -149,65.5 l -35,19 30,29 30,27 287,-78 q 59,-17 111.5,-30.5 52.5,-13.5 92,-23 39.5,-9.5 57,-13.5 17.5,-4 24.5,-4 7,0 8,3 0,0 0,0 0,0 0,0 0,0 0,1 0,0 0,0 0,0 0,0 0,0 0,0 0,0 0.5,0.5 0.5,0.5 0.5,0.5 0,1 -6,4 -6,3 -22,8 -16,5 -46.5,13 -30.5,8 -79,21 -48.5,13 -115.5,31 -58,16 -105.5,29 -47.5,13 -84,23 -36.5,10 -60,16.5 -23.5,6.5 -30.5,10.5 -5,3 -5,6 0,1 3,4.5 3,3.5 33,19.5 10,4 34.5,14 24.5,10 59,23 34.5,13 75.5,28.5 41,15.5 105,38.5 21,7 59,20.5 38,13.5 66.5,24 28.5,10.5 45.5,17.5 17,7 17,8 4,3 4,5 0,2 -5,2 -7,0 -39,-8.5 -32,-8.5 -135,-44.5 -152,-54 -236.5,-74 -84.5,-20 -131.5,-20 -6,0 -12,0 l -34,3 55,38 q 19,12 47,26 28,14 77,33 49,19 123.5,46 74.5,27 186.5,66 32,10 53.5,19.5 21.5,9.5 21.5,13.5 0,3 -3,3.5 -3,0.5 -4,0.5 -6,0 -25,-5 -19,-5 -59,-18.5 -40,-13.5 -85,-29.5 -94,-33 -149.5,-50 -55.5,-17 -102,-27.5 -46.5,-10.5 -87,-15.5 -40.5,-5 -81.5,-5 -30,0 -40.5,-2 -10.5,-2 -10.5,-9 0,-1 1,-3 1,-2 6.5,-15.5 5.5,-13.5 12.5,-27.5 5,-14 7.5,-21.5 2.5,-7.5 2.5,-9.5 0,-2 -1,-2 -1,0 -10,6 -9,6 -23,16.5 -14,10.5 -32.5,24.5 -18.5,14 -38.5,31 -40,31 -67,56 -27,25 -45.5,49 -18.5,24 -31.5,50.5 -13,26.5 -24,61.5 -5,20 -12,33.5 -7,13.5 -9,13.5 -2,0 -6.5,-6 -4.5,-6 -7.5,-11 -6,-12 -22,-35.5 -16,-23.5 -36,-46.5 -26,-33 -31.5,-43 -5.5,-10 -5.5,-14 0,-4 4,-5 5,0 8,-4.5 3,-4.5 4.5,-16.5 1.5,-12 2,-33 0.5,-21 0.5,-50 0,-115 -8.5,-191.5 -8.5,-76.5 -25.5,-110.5 -9,-15 -14.5,-27 -5.5,-12 -5.5,-14 0,-3 11.5,-3.5 11.5,-0.5 18.5,-0.5 13,0 30,1 l 60,3 z m 59,68 q -2,-7 -6,-20.5 -4,-13.5 -6,-27.5 l -6,-30 -80,72 36,6 q 16,2 31.5,6 15.5,4 22.5,6 5,2 8,2 2,0 3,-1 1,-1 1,-2 0,-3 -4,-11 z m -172,39 q 4,-16 4,-23 0,-5 -2.5,-7.5 -2.5,-2.5 -21.5,-2.5 h -27 l 15,40 q 10,29 17,29 0,0 4,-1.5 4,-1.5 11,-34.5 z m 493,-6 q -20,0 -44.5,-3 -24.5,-3 -35.5,-6 l -28,-8 6,42 q 1,17 4,31 3,14 5,16 0,0 1,0 2,0 10.5,-3.5 8.5,-3.5 19.5,-9.5 13,-8 33.5,-18.5 20.5,-10.5 37.5,-19.5 l 40,-21 z m -57,127 q -10,-10 -16,-10 -5,0 -9.5,10 -4.5,10 -8.5,23 -4,13 -5,20.5 -1,7.5 -1,10.5 0,6 2,8 4,2 25.5,6 21.5,4 48.5,6 l 66,3 -36,-21 q -16,-9 -26.5,-13 -10.5,-4 -15.5,-4 -3,0 -5,1 -1,0 -2,0 -5,0 -5,-12 0,-18 -12,-28 z m -278,47 q 0,0 0,0 0,0 -1,-1 0,0 0,0 0,0 0,0 -1,0 -1,0 0,-1 0,-1 0,0 -1,0 0,0 0,0 0,0 -1,-1 0,0 0,0 0,0 0,0 0,0 -1,-1 0,0 0,0 0,0 -1,0 0,0 0,0 0,0 0,-1 0,0 -1,0 0,0 0,0 0,0 -1,-1 0,0 0,0 0,0 0,0 -8,-6 -23,-14 l -32,-18 v 101 l 32,-30 q 14,-13 22.5,-22.5 8.5,-9.5 8.5,-10.5 z m 330,117 q -11,-6 -30.5,-19.5 -19.5,-13.5 -35.5,-25.5 l -36,-30 -13,40 -15,41 h 42 q 18,0 40.5,2 22.5,2 38.5,4 l 36,4 z m -388,155 q 6,-12 6,-19 0,-8 -9,-8 -5,0 -13,3 -9,4 -24.5,7 -15.5,3 -30.5,3 h -34 l 18,24 q 20,27 30.5,41.5 10.5,14.5 15.5,18.5 5,4 7,4 2,0 3.5,-2 1.5,-2 3.5,-10 3,-11 12.5,-31.5 9.5,-20.5 14.5,-30.5 z"
     id="path1" />
</svg>
