<?xml version="1.0" encoding="UTF-8" standalone="no"?>
<svg
   width="2000"
   height="2000"
   version="1.1"
   id="svg1"
   sodipodi:docname="u1236A.svg"
   inkscape:version="1.3.2 (091e20e, 2023-11-25)"
   xmlns:inkscape="http://www.inkscape.org/namespaces/inkscape"
   xmlns:sodipodi="http://sodipodi.sourceforge.net/DTD/sodipodi-0.dtd"
   xmlns="http://www.w3.org/2000/svg"
   xmlns:svg="http://www.w3.org/2000/svg">
  <defs
     id="defs1" />
  <sodipodi:namedview
     id="namedview1"
     pagecolor="#505050"
     bordercolor="#eeeeee"
     borderopacity="1"
     inkscape:showpageshadow="0"
     inkscape:pageopacity="0"
     inkscape:pagecheckerboard="0"
     inkscape:deskcolor="#505050"
     inkscape:zoom="0.379"
     inkscape:cx="1000"
     inkscape:cy="998.68074"
     inkscape:window-width="1392"
     inkscape:window-height="1212"
     inkscape:window-x="0"
     inkscape:window-y="0"
     inkscape:window-maximized="0"
     inkscape:current-layer="svg1" />
  <path
     d="m 1152,639 q 0,0 0,-1 0,-2 3,-2 3,0 9,3 7,2 40.5,5 33.5,3 72.5,4 24,1 42.5,2 18.5,1 34.5,2 0,0 0,0 h 2 q 0,0 0,0 h 1 q 1,0 1,0 h 1 q 1,0 1,0 l 1,1 q 1,0 1,0 h 1 q 0,0 0,0 h 2 q 0,0 1,0 h 1 q 0,0 0,0 h 2 q 0,0 0,0 h 1 q 1,0 1,0 h 2 q 0,0 0,0 h 1 q 0,0 1,0 l 1,1 q 0,0 1,0 h 1 q 0,0 1,0 h 1 q 0,0 0,0 h 2 q 0,0 0,0 0,2 -7.5,10 -7.5,8 -11.5,12 -17,18 -31.5,40.5 -14.5,22.5 -23.5,41.5 -12,25 -19,54 -7,29 -11,73 -4,44 -5.5,108.5 -1.5,64.5 -1.5,157.5 0,105 -2,159 -2,54 -7,54 -2,0 -5,-5 -3,-5 -3,-10 0,-9 -13,-16.5 -13,-7.5 -55,-21.5 -10,-3 -30.5,-10 -20.5,-7 -44,-15.5 -23.5,-8.5 -48,-18 Q 1039,1258 1017,1250 l -108,-41 -126,2 q -61,0 -98.5,2 -37.5,2 -45.5,7 -12,6 -17,6 -4,0 -4,-4 0,0 1.5,-6 1.5,-6 26.5,-36 10,-11 19,-23.5 9,-12.5 18,-26 9,-13.5 17.5,-27 8.5,-13.5 14.5,-22.5 14,-23 22,-35 8,-12 11,-14.5 3,-2.5 5,-2.5 2,0 4,3.5 2,3.5 4,13.5 2,12 7.5,26 5.5,14 14.5,28 9,14 19.5,26.5 10.5,12.5 19.5,20.5 8,6 20.5,13 12.5,7 29.5,15.5 17,8.5 37,16.5 20,8 39,16 25,9 57,20.5 32,11.5 65.5,23.5 33.5,12 65.5,23.5 32,11.5 57,20.5 25,9 41,14.5 16,5.5 17,5.5 1,0 1.5,-12 0.5,-12 1,-32.5 0.5,-20.5 0.5,-47.5 0,-2 0,-3 v -3 q 0,-2 0,-4 v -2 q 0,-2 0,-5 v -5 q 0,-1 0,-2 v -2 q 0,-1 0,-2 v -16 q 0,-1 0,-2 v -3 q 0,-1 0,-2 v -4 q 0,-1 0,-2 v -151 h -87 v 63 q 0,28 -2,45.5 -2,17.5 -6,17.5 -4,0 -6,-18 -2,-18 -2,-47 v -61 h -47 l -1,66 q -1,61 -8.5,61 -7.5,0 -8.5,-61 l -1,-66 h -53 v 63 q 0,28 -2,45.5 -2,17.5 -5,17.5 -4,0 -6,-17 -2,-17 -2,-43 v -63 l -54,18 -1,54 q 0,21 -3,36 -3,15 -6,15 -4,0 -6,-14 -2,-14 -2,-34 v -50 l -57,27 q -16,9 -25,13.5 -9,4.5 -12,4.5 -1,0 -2,-1 0,-7 0.5,-31 0.5,-24 1,-50.5 0.5,-26.5 1.5,-47.5 1,-21 2,-21 0,0 1,0 2,0 12.5,7 10.5,7 22.5,15 19,14 36,23.5 17,9.5 19,9.5 v -51 q 0,-20 -3,-41 -3,-21 -7.5,-39.5 -4.5,-18.5 -9.5,-33 -5,-14.5 -8,-20.5 -37,8 -78,25 -41,17 -74,41 -11,8 -22.5,15 -11.5,7 -13.5,7 0,0 0,0 0,0 0,-1 0,0 0,0 0,0 0,-1 0,0 0,0 v -1 q 0,0 0,-1 v -6 q 0,-1 0,-1 v -4 q 0,-14 0.5,-35.5 0.5,-21.5 1,-47 0.5,-25.5 1,-47 0.5,-21.5 1.5,-36.5 1,-15 1,-16 2,0 11,8 9,8 22,19 27,26 49.5,38 22.5,12 52.5,17 10,2 16.5,2.5 6.5,0.5 11.5,1.5 h 1 q 0,0 1,0 h 1 q 1,0 1,0 h 2 q 0,0 0,0 h 6 q 0,-1 -1,-2 0,-1 -1,-2 0,-2 -1,-5 -1,-3 -1,-6 0,-3 2.5,-5.5 2.5,-2.5 17.5,-4 15,-1.5 46,-1.5 h 1 q 1,0 2,0 h 15 q 1,0 2,0 h 64 q 31,1 58.5,1.5 27.5,0.5 48.5,0.5 21,0 33,-0.5 12,-0.5 12,-0.5 0,-2 -14.5,-33.5 Q 1178,695 1152,639 Z m 175,30 q -6,-1 -29,-2 -23,-1 -50,-2 l -63,-3 12,28 q 2,6 6.5,17 4.5,11 9.5,25 5,14 11,29.5 6,15.5 11,30.5 l 24,74 10,-47 q 4,-20 15.5,-48 11.5,-28 25.5,-49 18,-32 20.5,-38 2.5,-6 2.5,-9 0,-5 -6,-6 z m -536,97 q -7,-6 -15,-11 -8,-5 -14,-10 -8,-5 -14,-9 v 1 q 0,1 0,2 v 2 q 0,0 0,1 v 1 q 0,1 0,1 v 1 q 0,0 0,1 v 6 q 0,1 0,1 v 2 q -1,9 -1,20 v 4 q 0,1 0,2 v 1 q 0,1 0,2 v 3 q 0,0 0,0 v 79 l 23,-14 q 11,-7 27.5,-16 16.5,-9 34,-16.5 17.5,-7.5 31.5,-13 14,-5.5 19,-6.5 l -41,-8 Q 831,790 816,782.5 801,775 791,766 Z m 259,9 h -52 l 3,9 h 45 z m -121,0 4,11 h 46 l 4,-11 z m 189,1 h -54 l 3,9 h 47 z m 75,0 h -60 l 3,9 h 53 z m -9,27 q -5,0 -12.5,1 -7.5,1 -12.5,1 -5,-1 -10,-1 -5,0 -10,-1 l 14,49 q 2,3 2.5,7 0.5,4 1.5,8 1,5 2,9 1,-4 3,-10 1,-4 2.5,-9.5 1.5,-5.5 3.5,-10.5 z m -150,25 q 2,-5 3.5,-9 1.5,-4 3.5,-9 0,0 0,0 0,0 0,-1 1,0 1,-1 0,0 0,-1 0,0 1,0 v -1 q 0,0 0,-1 0,0 0,0 h 1 q 0,-1 0,-1 0,0 -1,0 0,0 0,0 0,0 0,0 h -2 q 0,0 0,0 h -4 q -3,1 -11,1 -5,0 -8.5,-0.5 -3.5,-0.5 -6.5,-0.5 -4,0 -8,-1 1,3 2,7 1,3 2,7.5 1,4.5 3,9.5 2,5 4,12.5 2,7.5 5,21.5 1,3 3,12 z m 77,-24 q -5,0 -10,0.5 -5,0.5 -11,0.5 -7,0 -11,-0.5 -4,-0.5 -9,-0.5 l 6,15 q 2,4 4.5,13 2.5,9 4.5,15 4,15 7,28 3,-15 6,-28 3,-12 6.5,-24 3.5,-12 6.5,-19 z m 124,44 q -11,-41 -17,-44 h -17 q -5,9 -10,19 -5,9 -9,20 -4,11 -7,22 -4,18 -6,43 -2,25 -2,45 v 46 h 87 v -40 q 0,-17 -4.5,-47 -4.5,-30 -14.5,-64 z M 937,805 q 0,3 3,13 3,10 6,21 3,11 5.5,21 2.5,10 2.5,12 l 21,-67 z m 77,133 q -1,-25 -5.5,-53.5 Q 1004,856 999,842 997,834 995.5,827.5 994,821 992,816 q -2,-5 -3,-10 -1,3 -3,7 -1,3 -2,6.5 -1,3.5 -2,6.5 -2,6 -4.5,15.5 -2.5,9.5 -5,22.5 -2.5,13 -4.5,28 -2,15 -3,31 l -4,73 55,3 z m 45,-130 q -7,19 -15,37.5 -8,18.5 -11,42.5 -3,18 -3,38 0,8 1,26 1,18 1,47 l 54,1 v -55 q 0,-21 -5,-47.5 -5,-26.5 -10,-43.5 z m 78,38 q -2,-6 -6.5,-21 -4.5,-15 -6.5,-16 -5,16 -10.5,35.5 -5.5,19.5 -8.5,34.5 -2,12 -2,21 0,2 0.5,5 0.5,3 0.5,7 0,8 -1,17 l 1,70 h 47 v -49 q 0,-20 -3,-47.5 -3,-27.5 -11,-56.5 z M 906,990 866,968 v 94 l 77,-34 v -21 z m -88,174 q -13,-9 -28.5,-26.5 Q 774,1120 765,1104 l -22,-37 -42,63 q -17,26 -28,43 -11,17 -11,20 0,1 0,1 1,0 28.5,-0.5 27.5,-0.5 65.5,-2.5 l 93,-4 z"
     id="path1" />
</svg>
