<?xml version="1.0" encoding="UTF-8" standalone="no"?>
<svg
   width="2000"
   height="2000"
   version="1.1"
   id="svg1"
   sodipodi:docname="u12308.svg"
   inkscape:version="1.3.2 (091e20e, 2023-11-25)"
   xmlns:inkscape="http://www.inkscape.org/namespaces/inkscape"
   xmlns:sodipodi="http://sodipodi.sourceforge.net/DTD/sodipodi-0.dtd"
   xmlns="http://www.w3.org/2000/svg"
   xmlns:svg="http://www.w3.org/2000/svg">
  <defs
     id="defs1" />
  <sodipodi:namedview
     id="namedview1"
     pagecolor="#505050"
     bordercolor="#eeeeee"
     borderopacity="1"
     inkscape:showpageshadow="0"
     inkscape:pageopacity="0"
     inkscape:pagecheckerboard="0"
     inkscape:deskcolor="#505050"
     inkscape:zoom="0.379"
     inkscape:cx="1000"
     inkscape:cy="998.68074"
     inkscape:window-width="1392"
     inkscape:window-height="1212"
     inkscape:window-x="0"
     inkscape:window-y="0"
     inkscape:window-maximized="0"
     inkscape:current-layer="svg1" />
  <path
     d="m 969.5,712.5 q 14,-14 28,-27 14,-13 16,-13 0,0 0,0 3,0 9,9.5 6,9.5 10,18.5 15,26 30,37.5 15,11.5 45,23.5 61,24 156.5,37 95.5,13 221.5,13 56,0 93,2.5 37,2.5 37,7.5 0,4 -27.5,6.5 -27.5,2.5 -81.5,2.5 -61,0 -132.5,3 -71.5,3 -133.5,8.5 -62,5.5 -110,12 -48,6.5 -89,20.5 -31,11 -42,11 -3,0 -5,-0.5 -2,-0.5 -2,-3.5 0,-6 11,-19 28,-33 28,-74 0,-13 -2.5,-28.5 -2.5,-15.5 -6.5,-27 -4,-11.5 -8,-16.5 -4,-5 -8,-5 -1,0 -3,1 -7,4 -24,25.5 -17,21.5 -34.5,46.5 -17.5,25 -31,47 -13.5,22 -13.5,30 0,5 4,13 4,8 10,15 6,7 13,11.5 7,4.5 13,4.5 6,0 17.5,7 11.5,7 22,16 10.5,9 17,16.5 6.5,7.5 6.5,10.5 0,1 -1,2 -1,1 -2,1 -4,0 -14.5,-4.5 -10.5,-4.5 -24.5,-15.5 -15,-10 -27.5,-16.5 -12.5,-6.5 -14.5,-6.5 -3,0 -15.5,17.5 -12.5,17.5 -27,40.5 -14.5,23 -27.5,47 -13,24 -19,39 -6,15 -6,22.5 0,7.5 8,9.5 4,2 5.5,4.5 1.5,2.5 1.5,4.5 0,1 -1,3 0,1 0,1 0,4 9.5,12 9.5,8 30.5,19 29,14 49,29.5 20,15.5 20,23.5 0,3 -3,3 -2,0 -8,-2 -6,-2 -18,-11 -16,-11 -36.5,-21.5 -20.5,-10.5 -42,-19 -21.5,-8.5 -41.5,-13 -20,-4.5 -41,-4.5 -23,0 -69,5 -46,5 -93.5,12.5 -47.5,7.5 -88.5,15.5 -41,8 -69,19 -24,9 -40,20.5 -16,11.5 -28,31.5 -6,10 -13.5,18 -7.5,8 -11,10 -3.5,2 -5.5,2 -2,0 -2.5,-1.5 -0.5,-1.5 -0.5,-3.5 0,-4 3,-12 5,-13 8,-32.5 3,-19.5 3.5,-32.5 0.5,-13 0.5,-19 0,-13 -1.5,-27 -1.5,-14 -8.5,-28 -5,-9 -5,-14 0,-4 2,-5 2,-1 4,-1 9,0 36,15 36,19 52,19 2,0 10,-1.5 8,-1.5 8,-34.5 0,-17 -3.5,-39.5 -3.5,-22.5 -9,-43.5 -5.5,-21 -12.5,-37.5 -7,-16.5 -20,-29.5 -10,-10 -10,-15 0,-1 1,-3.5 1,-2.5 21,-2.5 48,0 60,-22.5 12,-22.5 12,-46.5 0,-18 -5,-42 -4,-15 -4,-23 0,-9 5,-9 5,0 14,9 16,15 39,21 23,6 54,10.5 31,4.5 60,5.5 29,1 52,1 15,0 31,0 16,-1 28,-1 37,0 38,2.5 1,2.5 1,2.5 0,6 -56,11 -45,4 -78,10.5 -33,6.5 -61,15 -28,8.5 -48.5,18 -20.5,9.5 -33.5,23.5 -7,8 -7,11 0,0 1,1.5 1,1.5 15,1.5 37,0 50,-22 4,-7 7,-7 2,0 3.5,3 1.5,3 1.5,7 0,8 -4,19 -7,19 -11,52.5 -4,33.5 -5.5,60.5 -1.5,27 -1.5,44 0,13 1,32.5 1,19.5 7,22.5 4,3 22.5,3 18.5,0 42.5,-3 19,-3 31.5,-6 12.5,-3 26.5,-12.5 14,-9.5 34.5,-29 20.5,-19.5 55.5,-54.5 20,-19 38,-37 18,-18 31,-32.5 13,-14.5 20.5,-24 7.5,-9.5 7.5,-14.5 0,-10 -19,-14 -19,-4 -34,-4 -15,0 -32,3 -19,4 -28,4 -8,0 -8,-4 0,0 0,-1 2,-6 24.5,-26.5 22.5,-20.5 47.5,-39.5 22,-17 39,-32 17,-15 33,-29 16,-14 30,-26.5 14,-12.5 26,-25.5 z m 130,67 q -13,-5 -28,-10 -15,-5 -17,-5 -1,0 -2.5,12.5 -1.5,12.5 -3.5,28.5 -1,14 -1,23 0,11 1.5,14.5 1.5,3.5 6.5,3.5 3,0 9,-2 8,-2 34,-6 26,-4 64,-10 20,-3 41.5,-6 21.5,-3 23.5,-5 0,0 0,-1 0,-2 -8.5,-5 -8.5,-3 -23.5,-6 -15,-2 -40.5,-9 -25.5,-7 -55.5,-17 z m -209,54 q 3,-8 5.5,-15.5 2.5,-7.5 2.5,-10.5 0,-2 -1,-2 0,0 0,0 -2,0 -13,8.5 -11,8.5 -27,22.5 l -37,32 h 28 q 17,0 25,-6 8,-6 17,-29 z m -330,-16 q -18,-4 -24.5,-4.5 -6.5,-0.5 -9.5,-0.5 -6,0 -10.5,1.5 -4.5,1.5 -6,8 -1.5,6.5 -2.5,16.5 0,6 0,10 0,7 1,12.5 1,5.5 3,5.5 0,0 1,0 2,-2 14.5,-7 12.5,-5 23.5,-9 36,-13 37,-17 1,-4 1,-4 0,-7 -28,-12 z m 960,79 q 52,-17 77.5,-24 25.5,-7 33.5,-7 3,0 4,1 1,1 1,1 0,2 -4.5,5.5 -4.5,3.5 -21.5,11 -17,7.5 -47.5,18 -30.5,10.5 -69.5,23.5 -65,21 -121,42 -56,21 -101,40 -45,19 -74,33.5 -29,14.5 -31,19.5 0,0 0,0 0,5 25,16.5 25,11.5 73.5,28 48.5,16.5 116.5,38 68,21.5 142,43.5 35,10 57.5,16.5 22.5,6.5 40,12 17.5,5.5 28,9.5 10.5,4 13.5,7 1,1 1,2 0,2 -7,2 -6,0 -25.5,-2.5 -19.5,-2.5 -92.5,-23.5 -66,-20 -149,-40.5 -83,-20.5 -148.5,-33 -65.5,-12.5 -92.5,-15 -27,-2.5 -37,-2.5 -23,0 -32,7 -3,3 -6,3 -1,0 -3.5,-0.5 -2.5,-0.5 -5.5,-7.5 -6,-15 -15.5,-16 -9.5,-1 -11.5,-1 -17,0 -37,11 -11,6 -16,6 -4,0 -4.5,-2 -0.5,-2 -0.5,-2 0,-9 15,-38 8,-14 15.5,-33.5 7.5,-19.5 10.5,-29.5 8,-26 14.5,-29.5 6.5,-3.5 8.5,-3.5 7,0 7,16 0,16 4.5,17.5 4.5,1.5 9.5,1.5 11,0 32,-3 18,-2 63,-13.5 45,-11.5 106,-28.5 61,-17 130,-37.5 69,-20.5 125,-38.5 z m -1063,43 q 0,-6 -2.5,-10.5 -2.5,-4.5 -8.5,-4.5 -8,0 -8,8 0,5 3,9.5 3,4.5 7,6.5 2,1 4,1 5,0 5,-10 z m 104,0 q 0,-6 -2.5,-10.5 -2.5,-4.5 -7.5,-4.5 -3,0 -6,2.5 -3,2.5 -3,6.5 0,4 3,8.5 3,4.5 6,6.5 2,1 4,1 6,0 6,-10 z m -33,11 q -9,-18 -15,-20 -6,-2 -9,-2 -7,0 -16,9 -13,13 -17.5,40.5 -4.5,27.5 -5,44.5 -0.5,17 -0.5,20 0,26 3.5,48 3.5,22 13.5,22 3,0 15.5,2 12.5,2 25.5,4 l 30,7 -4,-70 q -2,-29 -6.5,-57.5 -4.5,-28.5 -14.5,-47.5 z m 654,71 q 0,-3 -6,-3 -3,0 -12.5,1.5 -9.5,1.5 -32.5,6.5 -43,10 -47,14.5 -4,4.5 -4,7.5 0,5 4,11 6,10 13,10 2,0 8.5,-2 6.5,-2 36.5,-19 14,-8 27,-16 13,-8 13,-11 z m -376,44 q 3,-14 4,-22 1,-8 1,-11 0,-2 0,-2 0,0 0,0 -2,0 -11.5,8.5 -9.5,8.5 -21,20.5 -11.5,12 -20.5,23 -9,11 -9,13 0,3 5.5,4 5.5,1 11.5,1 4,0 8,0 16,-2 22.5,-8.5 6.5,-6.5 9.5,-26.5 z m 252,-6 q -10,-12 -18,-12 0,0 -4.5,0.5 -4.5,0.5 -15.5,20.5 -6,13 -6,18 0,2 1,4.5 1,2.5 18,2.5 23,0 28,-6.5 5,-6.5 5,-10.5 0,-7 -8,-17 z m 116,42 q 3,-1 3,-3 0,-1 -4,-4 -4,-3 -16,-8 -14,-5 -19.5,-5.5 -5.5,-0.5 -6.5,-0.5 -8,0 -10,4 -1,1 -1,3 0,2 5,5.5 5,3.5 14,6 9,2.5 15.5,3 6.5,0.5 9.5,0.5 6,0 10,-1 z m -717,39 q 0,-2 -12.5,-6.5 -12.5,-4.5 -29.5,-8.5 l -43,-10 v 70 l 43,-20 q 17,-8 29,-15.5 12,-7.5 13,-9.5 z m 256,41 q -7,-22 -7,-32 0,-7 2.5,-8 2.5,-1 3.5,-1 6,0 10,10 10,27 67.5,45 57.5,18 152.5,31 95,13 221,20.5 126,7.5 289,7.5 88,0 144.5,2 56.5,2 56.5,7 0,5 -51,7 -51,2 -152,2 -136,0 -258.5,3.5 -122.5,3.5 -220,10 -97.5,6.5 -167.5,16.5 -70,10 -109,22 -9,3 -14,3 -7,0 -7,-5 0,-1 1.5,-8 1.5,-7 28.5,-31 12,-11 18,-18 6,-7 6.5,-13 0.5,-6 0.5,-7 0,-11 -5.5,-29.5 -5.5,-18.5 -10.5,-34.5 z m 213,60 q -22,-4 -43,-7 -21,-3 -39.5,-7 -18.5,-4 -33.5,-7.5 -15,-3.5 -24,-6.5 l -43,-13 v 46 q 0,28 2.5,34.5 2.5,6.5 6.5,6.5 2,0 4,-1 5,-1 22.5,-3 17.5,-2 42.5,-4.5 25,-2.5 54,-5.5 29,-3 55.5,-5 26.5,-2 47,-3.5 20.5,-1.5 32.5,-1.5 14,0 14,-2 0,-1 -16.5,-5.5 -16.5,-4.5 -81.5,-14.5 z"
     id="path1" />
</svg>
