<?xml version="1.0" encoding="UTF-8" standalone="no"?>
<svg
   width="2000"
   height="2000"
   version="1.1"
   id="svg1"
   sodipodi:docname="u1238C.svg"
   inkscape:version="1.3.2 (091e20e, 2023-11-25)"
   xmlns:inkscape="http://www.inkscape.org/namespaces/inkscape"
   xmlns:sodipodi="http://sodipodi.sourceforge.net/DTD/sodipodi-0.dtd"
   xmlns="http://www.w3.org/2000/svg"
   xmlns:svg="http://www.w3.org/2000/svg">
  <defs
     id="defs1" />
  <sodipodi:namedview
     id="namedview1"
     pagecolor="#505050"
     bordercolor="#eeeeee"
     borderopacity="1"
     inkscape:showpageshadow="0"
     inkscape:pageopacity="0"
     inkscape:pagecheckerboard="0"
     inkscape:deskcolor="#505050"
     inkscape:zoom="0.379"
     inkscape:cx="1000"
     inkscape:cy="998.68074"
     inkscape:window-width="1392"
     inkscape:window-height="1212"
     inkscape:window-x="0"
     inkscape:window-y="0"
     inkscape:window-maximized="0"
     inkscape:current-layer="svg1" />
  <path
     d="m 438.5,642 q 4,-5 12,-5 5,0 12,2 13,4 41.5,5.5 28.5,1.5 58.5,1.5 30,0 52.5,1.5 22.5,1.5 22.5,4.5 0,3 -6.5,13.5 -6.5,10.5 -11.5,16.5 -30,41 -45.5,87.5 Q 558.5,816 555.5,874 l -3,72 48,17 q 70,24 124,36 54,12 120,12 26,0 50.5,1.5 24.5,1.5 29.5,7.5 1,1 1,2 0,2 -9,2 -73,3 -127,7.5 -54,4.5 -93,12 -39,7.5 -67.5,19.5 -28.5,12 -52.5,30 l -23,17 3,127 q 1,29 1,51 0,75 -8,75 -6,0 -9,-51.5 -3,-51.5 -6,-143.5 l -9,-240 q -2,-27 -11.5,-71 -9.5,-44 -23,-87 -13.5,-43 -27,-76.5 -13.5,-33.5 -22.5,-38.5 -5,-4 -5,-8 0,-3 2,-5 z m 166,28 q -1,-1 -21.5,-2 -20.5,-1 -42.5,-2 -15,-2 -28,-2 -13,0 -23,-1 -11,0 -21,-2 l 24,56 q 6,12 13.5,35 7.5,23 10.5,32 4,17 6.5,28 2.5,11 6.5,31 2,3 5,15 l 6,-26 q 3,-12 5,-24 2,-12 5,-24 5,-13 13,-35 8,-22 20,-43 6,-10 13.5,-22 7.5,-12 7.5,-14 z m 752,141 q 9,-12 15.5,-14.5 6.5,-2.5 8.5,-2.5 4,0 4,5 0,6 -8,17.5 -8,11.5 -29,36.5 -53,63 -71.5,97.5 -18.5,34.5 -18.5,57.5 0,13 4,24 9,27 48,69 40,42 40,54 0,6 -8,6 -8,0 -13,-5.5 -5,-5.5 -8,-11.5 -2,-7 -19,-26.5 -17,-19.5 -41,-42.5 -17,-15 -29.5,-25.5 -12.5,-10.5 -22.5,-16.5 -10,-6 -21,-9 -11,-3 -28,-4 l -49,-6 33,-21 q 18,-12 50,-37.5 32,-25.5 66,-54 34,-28.5 61,-52.5 27,-24 36,-38 z m -183,3 q 15,-16 21,-17.5 6,-1.5 7,-1.5 2,0 2,2 0,3 -6,13 -6,7 -25,32.5 -19,25.5 -31,42.5 -69,92 -69,119 0,8 6,10 4,1 4,5 0,3 -4,8 -4,5 -4,11 0,4 3.5,11.5 3.5,7.5 24.5,28.5 17,17 28,31 11,14 19.5,25.5 8.5,11.5 11,17 2.5,5.5 2.5,7.5 0,2 -2,2 -3,0 -24,-20 0,-1 0,-1 l -8,-7 q 0,-1 -1,-1 l -17,-18 q -1,-1 -2,-1 l -9,-9 q 0,-1 -1,-2 l -10,-9 q 0,-1 0,-1 -24,-24 -39,-37.5 -15,-13.5 -25.5,-20.5 -10.5,-7 -19.5,-8.5 -9,-1.5 -24,-1.5 -42,0 -42,-11 0,-7 19,-19 15,-9 45,-32 30,-23 63,-51 33,-28 63,-54 30,-26 44,-43 z m 333,21 q 30,-27 40,-33 10,-6 13,-6 4,0 4,5 0,1 -10,14 -10,13 -23,28 -41,48 -62.5,81 -21.5,33 -26.5,51.5 -5,18.5 -5,29.5 0,12 6.5,28.5 6.5,16.5 30.5,43.5 10,12 21.5,27 11.5,15 19,27.5 7.5,12.5 9,18 1.5,5.5 1.5,7.5 0,4 -3,4 -9,0 -20,-18 -6,-14 -20,-30.5 -14,-16.5 -30.5,-33.5 -16.5,-17 -33,-31.5 -16.5,-14.5 -27.5,-18.5 -10,-6 -29,-10 -19,-4 -35,-4 h -39 l 21,-15 q 15,-10 41,-30.5 26,-20.5 54,-43.5 28,-23 55,-46.5 27,-23.5 48,-44.5 z m -60,93 q 0,0 0,-1 l 1,-1 q 0,0 0,0 l 1,-1 q 2,-3 4,-6 0,-1 1,-1 v -1 q 2,-2 3,-4 4,-5 4,-6 0,-1 -1,-1 -3,0 -19.5,12.5 -16.5,12.5 -40.5,32.5 l -57,46 30,5 q 18,4 28,4 6,0 11,-3 5,-3 11,-24 3,-13 9,-26 6,-13 15,-25 z m -377,35 q 12,-23 17,-35 0,0 0,-1 l 1,-2 q 1,-1 1,-2 l 1,-1 q 0,0 0,0 v -1 q 1,-1 1,-2 l 1,-2 q 1,-1 1,-2 l 1,-1 q 0,0 0,0 v -1 q -1,0 -17.5,13.5 -16.5,13.5 -39.5,31.5 l -54,45 29,6 q 12,2 22.5,4 10.5,2 11.5,2 0,-1 6,-16 6,-15 18,-36 z m 200,-33 q 6,-8 6,-10 0,-1 -1,-1 -2,0 -9.5,4 -7.5,4 -42.5,31 -42,34 -44.5,40 -2.5,6 -2.5,7 0,7 17,7 9,1 19.5,2 10.5,1 15.5,2 3,0 7.5,-9.5 4.5,-9.5 8.5,-23.5 5,-12 11,-25.5 6,-13.5 15,-23.5 z m -614,69 q -46,-15 -75,-20 -15,-3 -25,-6 1,14 1,24 0,0 0,0 v 1 q 0,0 0,0 v 2 q 0,0 0,1 v 2 q 0,0 0,0 v 4 q 0,1 0,1 v 12 q 0,0 0,1 v 59 l 42,-21 q 12,-8 33,-16 21,-8 50,-16 10,-3 21.5,-6.5 11.5,-3.5 11.5,-5.5 0,0 0,0 -3,0 -21,-5 -18,-5 -38,-11 z"
     id="path1" />
</svg>
