<?xml version="1.0" encoding="UTF-8" standalone="no"?>
<svg
   width="2000"
   height="2000"
   version="1.1"
   id="svg1"
   sodipodi:docname="u12377.svg"
   inkscape:version="1.3.2 (091e20e, 2023-11-25)"
   xmlns:inkscape="http://www.inkscape.org/namespaces/inkscape"
   xmlns:sodipodi="http://sodipodi.sourceforge.net/DTD/sodipodi-0.dtd"
   xmlns="http://www.w3.org/2000/svg"
   xmlns:svg="http://www.w3.org/2000/svg">
  <defs
     id="defs1" />
  <sodipodi:namedview
     id="namedview1"
     pagecolor="#505050"
     bordercolor="#eeeeee"
     borderopacity="1"
     inkscape:showpageshadow="0"
     inkscape:pageopacity="0"
     inkscape:pagecheckerboard="0"
     inkscape:deskcolor="#505050"
     showgrid="false"
     inkscape:zoom="0.6205"
     inkscape:cx="999.1942"
     inkscape:cy="1000"
     inkscape:window-width="2560"
     inkscape:window-height="1412"
     inkscape:window-x="0"
     inkscape:window-y="0"
     inkscape:window-maximized="1"
     inkscape:current-layer="svg1" />
  <path
     d="m 691.5,681.5 q -3,-18 -3,-32 0,-2 0.5,-10.5 0.5,-8.5 3.5,-8.5 3,0 11.5,8.5 8.5,8.5 17.5,18.5 15,18 28.5,28.5 13.5,10.5 34.5,16 21,5.5 55.5,7 34.5,1.5 89.5,1.5 h 138 l -15,-35 q -10,-25 -10,-35 0,-2 1,-4.5 1,-2.5 5,-2.5 4,0 10,3 14,6 39.5,9 25.5,3 58.5,3 65,0 65,11 0,4 -7,9 -10,6 -20,20 -10,14 -20,34 l -24,45 -2,244 q -1,90 -1,139.5 0,49.5 1.5,73 1.5,23.5 5,28 3.5,4.5 14.5,4.5 13,0 13,4 0,6 -26,10 -26,4 -66,7 -40,3 -88.5,4.5 -48.5,1.5 -75.5,1.5 -80,0 -141.5,16.5 -61.5,16.5 -118.5,47.5 l -37,22 v -92 q 0,-38 1.5,-65 1.5,-27 5.5,-27 2,0 8.5,5.5 6.5,5.5 14.5,12.5 7,8 14,13 7,5 10,5 4,0 4.5,-25.5 0.5,-25.5 0.5,-37.5 0,-30 -2,-73.5 -2,-43.5 -5.5,-90 -3.5,-46.5 -8.5,-58.5 l -9,-24 h -124 q -53,0 -86.5,2.5 -33.5,2.5 -55.5,8.5 -22,6 -35.5,18 -13.5,12 -29.5,34 -5,8 -12.5,17 -7.5,9 -10.5,9 -1,0 -4,-31 -3,-31 -4.5,-67.5 -1.5,-36.5 -2,-58 -0.5,-21.5 -0.5,-29.5 0,-14 1,-15 0,-1 1,-1 3,0 10.5,5.5 7.5,5.5 15.5,13.5 16,15 36.5,29 20.5,14 38.5,25 13,7 24.5,12.5 11.5,5.5 25.5,7.5 14,2 36.5,3 22.5,1 58.5,1 62,0 85,-2.5 23,-2.5 23,-9.5 0,-5 -6.5,-20.5 -6.5,-15.5 -17.5,-38.5 -7,-13 -14,-27.5 -7,-14.5 -7,-17.5 0,-3 7.5,-3.5 7.5,-0.5 12.5,-0.5 10,0 24,1 13,2 21,2 5,0 9,-1.5 4,-1.5 9,-18.5 3,-15 3,-36 0,-21 -3,-42 z m 490,-12 q 0,-1 -16.5,-2 -16.5,-1 -37.5,-1 -36,0 -42.5,2 -6.5,2 -6.5,8 0,4 3,11 0,2 7.5,24.5 7.5,22.5 16.5,47.5 l 19,62 12,-45 q 5,-18 13,-39 8,-21 17,-35 6,-10 10.5,-20 4.5,-10 4.5,-13 z m 359,18 q -3,-6 -3,-10 0,0 0.5,-2.5 0.5,-2.5 9,-4 8.5,-1.5 25.5,-2 17,-0.5 43,-0.5 25,0 41,0.5 16,0.5 40,0.5 0,0 0,0 0,0 0,0 0,0 0,0 h 1 q 0,0 0,0 h 1 q 1,0 1,0 h 7 q 0,0 1,0 h 2 q 0,2 -9,16 -9,14 -18,29 -19,35 -29.5,63.5 -10.5,28.5 -15,69.5 -4.5,41 -5,78.5 -0.5,37.5 -0.5,54.5 0,52 2,126 3,82 3,129 0,8 -0.5,35.5 -0.5,27.5 -6.5,27.5 -3,0 -6,-17.5 -3,-17.5 -3,-53.5 0,-19 -1,-47 -1,-28 -4,-40 l -6,-27 h -147 q -60,0 -112.5,3 -52.5,3 -67.5,8 -13,3 -34,15.5 -21,12.5 -38,27.5 l -36,35 -4,-95 q -3,-39 -3,-67 0,-1 0,-3 v -3 q 0,-1 0,-1 v -4 q 0,-2 0,-4 v -3 q 0,-1 0,-2 v -1 q 0,0 0,-1 v -8 q 0,-1 1,-1 3,0 12,5.5 9,5.5 21,11.5 18,11 44.5,24.5 26.5,13.5 50.5,22.5 16,7 30.5,11.5 14.5,4.5 33,7 18.5,2.5 46.5,3 28,0.5 74,0.5 h 132 v -94 q 0,-29 -0.5,-50.5 -0.5,-21.5 -3.5,-41 -3,-19.5 -7.5,-39 -4.5,-19.5 -13.5,-49.5 -8,-26 -17.5,-56 -9.5,-30 -15.5,-40 -5,-8 -9.5,-20 -4.5,-12 -5.5,-18 z m 91,3 q -18,0 -34.5,-0.5 -16.5,-0.5 -25.5,-5.5 -4,-2 -6,-2 -4,0 -4,5.5 0,5.5 10,29.5 9,20 16.5,42.5 7.5,22.5 13.5,41.5 l 14,44 12,-48 q 6,-20 15,-42.5 9,-22.5 16,-34.5 l 18,-30 z m -874,18 q -18,-10 -30,-16 -11,-5 -17,-8 -1,0 -1,13 0,13 1.5,28.5 1.5,15.5 4.5,29 3,13.5 4,13.5 1,1 2,1 5,0 16.5,-5 11.5,-5 26.5,-12 l 39,-18 z m 321,24 -105,-1 q -25,-1 -46,-1 -25,0 -49.5,2 -24.5,2 -53.5,14 -6,1 -20,6.5 -14,5.5 -20,8.5 -17,3 -17,13 0,8 -7.5,22 -7.5,14 -16.5,26 -16,24 -24.5,47.5 -8.5,23.5 -13,55.5 -4.5,32 -5,57 -0.5,25 -0.5,30 0,44 4,115 2,30 3.5,56 1.5,26 3.5,39 2,13 6.5,17.5 4.5,4.5 9.5,7.5 10,4 38,7 28,3 66,5.5 38,2.5 82.5,4 44.5,1.5 84,1.5 39.5,0 69.5,-1 30,-1 41,-2 l 22,-6 -4,-197 q -2,-66 -3.5,-106.5 -1.5,-40.5 -3.5,-67.5 -2,-27 -6.5,-45.5 -4.5,-18.5 -12.5,-41.5 z m 85,152 q 0,-50 2.5,-82 2.5,-32 5.5,-32 3,0 11,6.5 8,6.5 13,12.5 13,14 37,29.5 24,15.5 57,30.5 15,8 30,14.5 15,6.5 32.5,9 17.5,2.5 43,3 25.5,0.5 62.5,0.5 60,0 94.5,2.5 34.5,2.5 34.5,5.5 0,3 -45.5,6 -45.5,3 -117.5,6 l -164,1 -43,47 q -17,19 -31,32.5 -14,13.5 -16,13.5 -3,0 -4.5,-32 -1.5,-32 -1.5,-74 z m -472,-74 q -2,-6 -9.5,-9 -7.5,-3 -12.5,-3.5 -5,-0.5 -7,-0.5 -6,0 -12,1.5 -6,1.5 -6,5.5 0,5 7,23 7,18 15,36.5 8,18.5 14,29.5 6,11 7,11 1,0 1,-1 0,-4 6.5,-21.5 6.5,-17.5 15.5,-36.5 15,-33 15,-43 0,-4 -2,-4 -5,0 -16,11 -7,5 -11,5 -4,0 -5,-4 z m 556,35 q -7,-3 -23,-12 -16,-9 -23,-15 l -20,-14 v 66 q 0,29 1.5,48.5 1.5,19.5 3.5,19.5 3,0 13.5,-7.5 10.5,-7.5 20.5,-18.5 15,-13 27,-20 12,-7 23,-7 13,0 13,-8 0,-1 -2,-7.5 -2,-6.5 -34,-24.5 z m -277,37 q 24,-45 30,-51 6,-6 8,-6 5,0 5,20 0,30 10.5,46.5 10.5,16.5 37.5,29.5 15,8 21,13.5 6,5.5 6,7.5 0,1 -1,2 -1,0 -2,0 -4,0 -14,-2.5 -10,-2.5 -25,-9.5 -21,-12 -39,-12 0,0 -9.5,0.5 -9.5,0.5 -36.5,21.5 -5,3 -11.5,8 -6.5,5 -8.5,5 -1,0 -1,-1 -1,-1 -1,-3 0,-5 7,-22 7,-17 24,-47 z m -609,-16 q -11,-6 -22,-13.5 -11,-7.5 -14,-7.5 0,0 -1,0 -2,0 -3.5,15 -1.5,15 -1.5,39 v 60 l 30,-27 q 13,-12 25,-20.5 12,-8.5 20,-8.5 4,0 4,-3 0,-2 -4.5,-8.5 -4.5,-6.5 -32.5,-25.5 z m 376,9 q 1,-1 4,-1 3,0 11.5,3.5 8.5,3.5 20.5,10.5 11,8 19,12.5 8,4.5 18.5,6.5 10.5,2 25,3 14.5,1 30.5,1 32,0 50.5,3 18.5,3 18.5,6 0,4 -20,6.5 -20,2.5 -53,2.5 -20,0 -35,0.5 -15,0.5 -24.5,3 -9.5,2.5 -17,7 -7.5,4.5 -15.5,10.5 -12,9 -19.5,13 -7.5,4 -10.5,4 -2,0 -3,-1 -3,-3 -4.5,-16.5 -1.5,-13.5 -1.5,-29 0,-15.5 1.5,-30 1.5,-14.5 4.5,-15.5 z m 269,18 q 0,-8 -9,-8 -9,0 -9,8 0,9 9,9 9,0 9,-9 z m -231,24 q -5,-11 -11,-12 -6,-1 -7,-1 -8,0 -8,11 0,14 15,14 12,0 12,-8 0,-2 -1,-4 z m 63,43 q 0,-8 22,-8 6,0 15,1 27,3 29,6 2,3 2,5 0,5 -8,16 -9,12 -13,27 -4,15 -4,33 0,21 4.5,25.5 4.5,4.5 30.5,5.5 l 31,2 -66,6 v 45 q 0,16 -2,29 -2,13 -7,13 -3,0 -5,-13 -2,-13 -2,-32 v -45 l -36,4 q -17,3 -32.5,10 -15.5,7 -29.5,20 -15,12 -19,12 -3,0 -5.5,-14 -2.5,-14 -2.5,-35 0,-26 3,-37 3,-11 14,-11 9,0 15,9 3,6 14,12 11,6 23,10.5 12,4.5 20.5,6 8.5,1.5 12.5,1.5 6,0 11,-2 10,-3 10,-11 0,-8 -12,-43 -6,-16 -9.5,-29.5 -3.5,-13.5 -3.5,-18.5 z m 34,23 q 0,-11 -9,-11 -5,0 -5,3 0,2 2,6 3,9 8,9 4,0 4,-7 z m 107,45 q 24,-42 30,-48.5 6,-6.5 8,-6.5 5,0 5,22 0,27 9,42 9,15 32,27 12,6 21,12.5 9,6.5 9,11.5 0,3 -4,3 -7,0 -25,-9 -13,-6 -26,-11.5 -13,-5.5 -22,-5.5 -9,0 -17,4.5 -8,4.5 -23,16.5 -20,17 -26,17 0,0 -1,0 -2,-1 -2,-4 0,-6 7,-22 7,-16 25,-49 z m 34,6 q 0,-9 -7,-9 -9,0 -9,15 0,9 4,9 2,0 5,-2 7,-4 7,-13 z m 234,34 q -16,-7 -32,-14 -16,-7 -19,-8 0,0 -1,0 -2,0 -3.5,15 -1.5,15 -1.5,39 v 57 l 33,-23 q 12,-7 28,-15.5 16,-8.5 25,-9.5 18,-7 18,-12 0,-1 -3,-5 -3,-4 -44,-24 z m -957,-19 q 1,-1 3,-1 2,0 8.5,3.5 6.5,3.5 20.5,13.5 42,32 78,44.5 36,12.5 90,12.5 21,0 51,1.5 30,1.5 54.5,4.5 24.5,3 41,5.5 16.5,2.5 16.5,5.5 0,3 -22,3.5 -22,0.5 -34,0.5 -24,0 -53,-1 -32,-1 -57,-1 -19,0 -43.5,1 -24.5,1 -47.5,6.5 -23,5.5 -39,15 -16,9.5 -34,29.5 -7,9 -15,17 -8,8 -11,8 -1,0 -1,0 -1,-1 -2,-25 -1,-24 -2.5,-54 -1.5,-30 -1.5,-57 v -2 q 0,0 0,-1 v -5 q 0,-1 0,-1 v -2 q 0,0 0,-1 v -1 q 0,-1 0,-2 v -1 q 0,0 0,-1 v -1 q 0,-1 0,-1 z m 495,16 q 0,-1 -4,-4 -7,-3 -12,-3 -11,0 -11,16 0,9 1.5,10 1.5,1 2.5,1 3,0 10,-5 7,-6 9,-10 l 2,-2 q 0,0 0,0 z m -418,48 q -11,-3 -23,-10.5 -12,-7.5 -18,-11.5 -9,-7 -12,-7 -2,0 -3,3.5 -1,3.5 -1,39.5 0,36 1,39.5 1,3.5 3,3.5 3,0 12,-7 6,-5 18,-12.5 12,-7.5 23,-13.5 l 27,-13 z m 316,141 q -7,-19 -24,-22 -2,-1 -5,-1 -6,0 -8,8 -2,8 -2,36 0,48 4.5,52 4.5,4 8.5,4 7,0 20,-9 11,-8 23.5,-12.5 12.5,-4.5 21.5,-7.5 44,-13 45,-16.5 1,-3.5 1,-4.5 0,-6 -28,-13 -15,-3 -20.5,-3.5 -5.5,-0.5 -5.5,-0.5 -8,0 -8,7 0,4 -3,4 -2,0 -7,-3 -5,-3 -13,-18 z"
     id="path1" />
</svg>
