<?xml version="1.0" encoding="UTF-8" standalone="no"?>
<svg
   width="2000"
   height="2000"
   version="1.1"
   id="svg1"
   sodipodi:docname="u12336.svg"
   inkscape:version="1.3.2 (091e20e, 2023-11-25)"
   xmlns:inkscape="http://www.inkscape.org/namespaces/inkscape"
   xmlns:sodipodi="http://sodipodi.sourceforge.net/DTD/sodipodi-0.dtd"
   xmlns="http://www.w3.org/2000/svg"
   xmlns:svg="http://www.w3.org/2000/svg">
  <defs
     id="defs1" />
  <sodipodi:namedview
     id="namedview1"
     pagecolor="#505050"
     bordercolor="#eeeeee"
     borderopacity="1"
     inkscape:showpageshadow="0"
     inkscape:pageopacity="0"
     inkscape:pagecheckerboard="0"
     inkscape:deskcolor="#505050"
     showgrid="false"
     inkscape:zoom="0.6205"
     inkscape:cx="999.1942"
     inkscape:cy="1000"
     inkscape:window-width="2560"
     inkscape:window-height="1412"
     inkscape:window-x="0"
     inkscape:window-y="0"
     inkscape:window-maximized="1"
     inkscape:current-layer="svg1" />
  <path
     d="m 822,775.5 q 12,-13 19,-13 2,0 3.5,2 1.5,2 1.5,7 0,9 -6,25 -8,18 -8.5,25 -0.5,7 -0.5,9 0,12 4,26 4,15 11,27 7,12 16,22 9,10 18,16.5 9,6.5 14,6.5 6,0 17.5,-9 11.5,-9 23.5,-20 16,-14 24.5,-19 8.5,-5 12.5,-5 4,0 6,3 1,2 1,3 0,3 -4,6 -9,6 -11.5,25 -2.5,19 -2.5,36 0,6 0.5,20.5 0.5,14.5 5,33.5 4.5,19 10.5,19 5,0 21.5,13 16.5,13 36.5,31 17,15 28,24 11,9 19,12.5 8,3.5 16.5,3.5 8.5,0 19.5,-1 13,-2 22,-5 9,-3 19.5,-10 10.5,-7 23.5,-20 13,-13 32,-33 26,-28 44.5,-47 18.5,-19 19.5,-19 2,0 3,11.5 1,11.5 1,23.5 0,52 24.5,89.5 24.5,37.5 75.5,64.5 17,9 36.5,22 19.5,13 34.5,24.5 15,11.5 22,19 7,7.5 7,10.5 0,1 -1,2 0,0 -1,0 -4,0 -17,-6.5 -13,-6.5 -32,-18.5 -85,-58 -139.5,-75 -54.5,-17 -87.5,-17 -25,0 -45,7 -13,4 -21,5 -8,1 -11,1 -6,0 -9,-2 -1,-1 -16.5,-2.5 -15.5,-1.5 -41.5,-2.5 -26,-1 -59.5,-2 -33.5,-1 -117.5,-1 -1,0 -2,0 h -2 q -1,0 -2,0 h -1 q 0,0 0,0 h -3 q -1,0 -1,0 h -3 q -1,0 -2,0 h -28 q -39,0 -68.5,1.5 -29.5,1.5 -52,4 -22.5,2.5 -48.5,7.5 -22,5 -49.5,12 -27.5,7 -51.5,14.5 -24,7.5 -43,15 -19,7.5 -33,16.5 -12,7 -17,7 -6,0 -6,-6 0,-6 5,-18 7,-18 9,-38 2,-20 2,-41 0,-9 0,-18 -1,-14 -1,-32 0,-1 0,-2 v -2 q 0,-1 0,-2 v -3 q 0,0 0,-1 v -2 q 0,-1 0,-1 v -1 q 0,0 0,0 v -8 q 1,-2 2,-2 2,0 6.5,2.5 4.5,2.5 11.5,8.5 10,10 27,19 17,9 32,14 14,4 41.5,9 27.5,5 60.5,9.5 33,4.5 67.5,8 34.5,3.5 62.5,6 28,2.5 46,2.5 18,0 18,-4 0,-4 -13,-14 -13,-10 -31.5,-21 -18.5,-11 -38.5,-21 -20,-10 -38,-14 -16,-4 -29.5,-4 -13.5,0 -33.5,9 -10,4 -18,6.5 -8,2.5 -11,2.5 0,0 -1,0 0,0 0,0 0,-3 9,-13.5 9,-10.5 23.5,-27 14.5,-16.5 33,-35 18.5,-18.5 34,-33.5 15.5,-15 26.5,-24.5 11,-9.5 14,-9.5 0,0 0,0 1,1 1,5 0,2 -0.5,7.5 -0.5,5.5 -2.5,14.5 -4,12 -4,25 0,1 0.5,9.5 0.5,8.5 3.5,23.5 3,15 8,27 5,12 11,18 34,28 54,43.5 20,15.5 36.5,22.5 16.5,7 34.5,8.5 18,1.5 48,1.5 h 75 l -25,-26 q -15,-15 -36.5,-29 -21.5,-14 -45,-24.5 -23.5,-10.5 -41.5,-15.5 -18,-5 -32,-5 -7,0 -14,1 -8,1 -21.5,4 -13.5,3 -23.5,7 -7,3 -10,3 -2,0 -2,-2 0,-2 5,-10 5,-8 32,-29 18,-13 28,-23 10,-10 10,-15 0,0 0,-1 -2,-4 -16,-13.5 -14,-9.5 -28,-16.5 -40,-22 -59,-23.5 -19,-1.5 -24,-1.5 -27,0 -52,11 -10,4 -13,4 -3,0 -3,-1 0,-3 10,-15 10,-12 56,-47 24,-18 46.5,-36.5 22.5,-18.5 28.5,-26.5 z m 491,39 q 0,-5 5,-5 6,0 8,9.5 2,9.5 2,19.5 0,4 0,8 0,18 5,38.5 5,20.5 14,39 9,18.5 20.5,33 11.5,14.5 34.5,26.5 13,7 37.5,22.5 24.5,15.5 45,30 20.5,14.5 32.5,24.5 12,10 12,13 0,1 0,1 -1,2 -5,2 -2,0 -8,-1.5 -6,-1.5 -15,-8.5 -107,-70 -166,-88.5 -59,-18.5 -91,-18.5 -29,0 -51,11 -14,8 -19,8 -2,0 -2,-2 0,-2 7,-13 7,-11 60,-64 30,-30 52,-54 22,-24 22,-31 z m -499,22 q -3,-9 -5,-13 -2,-4 -5,-4 -1,0 -3.5,0.5 -2.5,0.5 -10,5.5 -7.5,5 -20.5,16 l -27,24 38,8 q 17,4 26,4 8,0 10,-2.5 2,-2.5 2,-8.5 0,-10 -5,-30 z m 499,38 q 0,-13 -7,-13 -1,0 -7,2 -6,2 -36,33 -24,25 -31.5,36 -7.5,11 -7.5,13 0,1 1,1 1,0 3,-1 7,-5 18,-5 4,0 15,1.5 11,1.5 32,6.5 l 53,10 -17,-31 q -7,-14 -11.5,-28 -4.5,-14 -4.5,-25 z m -367,112 q -1,-4 -3,-15 -2,-11 -4,-20 l -5,-24 -32,24 q -14,9 -22.5,17.5 -8.5,8.5 -9.5,10.5 0,2 11,5.5 11,3.5 26,7.5 22,5 31,5 1,0 4.5,-0.5 3.5,-0.5 3.5,-8.5 0,-1 0,-2 z m -178,4 q -3,-12 -6,-21.5 -3,-9.5 -4,-11.5 0,0 -1,0 -3,0 -10,5.5 -7,5.5 -17,16.5 l -24,24 24,6 q 11,2 20.5,4 9.5,2 13.5,4 1,0 2,0 4,0 4,-9 0,-7 -2,-18 z m 520,110 q -7,-11 -12,-26 -3,-10 -6,-19 l -1,-2 q 0,-1 -1,-3 v -1 q 0,0 0,0 l -1,-1 q 0,0 0,-1 l -10,-30 -72,78 36,6 q 15,3 32,6 17,3 27,6 7,2 10,2 3,0 3,-1 0,-1 0,-1 0,-4 -5,-13 z m -755,-26 q -5,-2 -14,-6 -9,-4 -11,-4 -2,0 -3,15 -1,15 -1,37 0,35 2,41 2,6 7,6 2,0 5,-1 7,-4 36,-12 29,-8 64,-17 l 84,-22 -67,-11 q -28,-5 -56,-11.5 -28,-6.5 -46,-14.5 z"
     id="path1" />
</svg>
