<?xml version="1.0" encoding="UTF-8" standalone="no"?>
<svg
   width="2000"
   height="2000"
   version="1.1"
   id="svg1"
   sodipodi:docname="u1237C.svg"
   inkscape:version="1.3.2 (091e20e, 2023-11-25)"
   xmlns:inkscape="http://www.inkscape.org/namespaces/inkscape"
   xmlns:sodipodi="http://sodipodi.sourceforge.net/DTD/sodipodi-0.dtd"
   xmlns="http://www.w3.org/2000/svg"
   xmlns:svg="http://www.w3.org/2000/svg">
  <defs
     id="defs1" />
  <sodipodi:namedview
     id="namedview1"
     pagecolor="#505050"
     bordercolor="#eeeeee"
     borderopacity="1"
     inkscape:showpageshadow="0"
     inkscape:pageopacity="0"
     inkscape:pagecheckerboard="0"
     inkscape:deskcolor="#505050"
     inkscape:zoom="0.379"
     inkscape:cx="1000"
     inkscape:cy="998.68074"
     inkscape:window-width="1392"
     inkscape:window-height="1212"
     inkscape:window-x="0"
     inkscape:window-y="0"
     inkscape:window-maximized="0"
     inkscape:current-layer="svg1" />
  <path
     d="m 1772,638 q 3,-8 12,-8 7,0 7,7 0,3 -3.5,13 -3.5,10 -27.5,40 -27,35 -32.5,48 -5.5,13 -5.5,22 0,12 6,25 3,6 7.5,12.5 4.5,6.5 7.5,6.5 5,0 21.5,10 16.5,10 33,22.5 16.5,12.5 30,24 13.5,11.5 13.5,15.5 0,1 -2,1 -3,0 -13.5,-4 -10.5,-4 -29.5,-18 -15,-10 -30,-18.5 -15,-8.5 -18,-8.5 -3,0 -14.5,13.5 -11.5,13.5 -24.5,33.5 -9,15 -14.5,24.5 -5.5,9.5 -7,15.5 -1.5,6 -1.5,10 0,2 1,6.5 1,4.5 4,12.5 12,25 30,31 9,2 23,12.5 14,10.5 28.5,21.5 14.5,11 25,22.5 10.5,11.5 10.5,15.5 0,1 -1,1 -3,0 -11.5,-4 -8.5,-4 -23.5,-16 l -35,-26 -19,24 q -8,9 -17,22.5 -9,13.5 -13,21.5 -10,18 -10,34 0,37 49,65 33,16 51.5,31.5 18.5,15.5 18.5,21.5 0,1 -1,2 -1,1 -2,1 -4,0 -13,-5 -9,-5 -27,-17 -44,-30 -88,-49.5 -44,-19.5 -80,-23.5 l -45,-6 64,-44 q 27,-18 52.5,-36.5 25.5,-18.5 36.5,-26.5 l 24,-19 -29,-18 q -10,-8 -34,-14.5 -24,-6.5 -49.5,-11 -25.5,-4.5 -39.5,-5.5 -14,-1 -19,-1 -11,0 -15,2 -3,3 -10.5,14 -7.5,11 -13.5,26 -5,11 -8.5,23 -3.5,12 -5,30 -1.5,18 -2.5,46.5 -1,28.5 -1,68.5 0,71 -2,107.5 -2,36.5 -5,36.5 -5,0 -7,-31.5 -2,-31.5 -2,-88.5 0,-48 -1.5,-77 -1.5,-29 -5.5,-48.5 -4,-19.5 -11.5,-31.5 -7.5,-12 -20.5,-23 -11,-11 -15,-11 -1,0 -3.5,1 -2.5,1 -23.5,24 -42,46 -57.5,74 -15.5,28 -15.5,39 0,9 7,13 6,4 6,13 0,11 9.5,21.5 9.5,10.5 26.5,19.5 16,10 31,22 15,12 26.5,24 11.5,12 16.5,19.5 5,7.5 5,10.5 0,2 -1,3 -1,1 -2,1 -4,0 -13,-6.5 -9,-6.5 -23,-19.5 -43,-41 -91,-67 -48,-26 -96,-34 l -57,-9 40,-24 q 27,-16 61,-38.5 34,-22.5 63,-44.5 29,-22 49.5,-38.5 20.5,-16.5 20.5,-20.5 0,-6 -18,-20.5 Q 1364,939 1339,924 1314,909 1289.5,896.5 1265,884 1251,882 q -12,-3 -31.5,-6.5 -19.5,-3.5 -37.5,-8.5 -24,-4 -43.5,-7 -19.5,-3 -31.5,-3.5 -12,-0.5 -19,-0.5 -10,0 -24,1 -14,1 -35,6 -72,12 -112.5,40.5 Q 876,932 857,983 q -2,7 -5,7 -2,0 -3,-1 -2,-3 -2,-10 0,-6 2,-19 2,-13 6,-33 13,-53 13,-99 0,-10 -1,-19 -3,-23 -3.5,-33.5 Q 863,765 863,762 q 0,-7 1,-7 2,0 8.5,6 6.5,6 15.5,13 11,11 23.5,20 12.5,9 24.5,13 11,3 33.5,8.5 22.5,5.5 50,10 27.5,4.5 58.5,9 31,4.5 56,7.5 30,3 47,3 9,0 19.5,-1.5 10.5,-1.5 37.5,-18.5 13,-9 38.5,-26 25.5,-17 51,-36 25.5,-19 47.5,-35.5 22,-16.5 34,-28.5 15,-15 21,-15 3,0 3.5,2 0.5,2 0.5,3 0,9 -22,33 l -21,24 28,4 q 12,3 33,3.5 21,0.5 32,0.5 21,0 42,-1 19,-1 35,-1 8,0 23,0.5 15,0.5 15,8.5 0,3 3,3 5,0 22,-9 17,-9 62,-41 38,-28 60.5,-47.5 Q 1769,647 1772,638 Z m -66,106 q 3,-9 5.5,-16.5 2.5,-7.5 2.5,-9.5 0,-2 -1,-2 -3,0 -19,13 -11,9 -20.5,16 -9.5,7 -15.5,10 -9,5 -9,8 0,1 2,3 2,2 23,7 7,2 11,2 5,0 9,-3.5 4,-3.5 12,-27.5 z M 525,780 q -2,-8 -2,-14 0,-11 4.5,-11.5 4.5,-0.5 5.5,-0.5 10,0 16,11 9,17 36,29 27,12 64.5,21.5 37.5,9.5 81,15.5 43.5,6 75.5,6 18,0 27.5,2.5 9.5,2.5 9.5,5.5 0,4 -24,6.5 -24,2.5 -54,2.5 -195,0 -237,105 -9,21 -14.5,24.5 -5.5,3.5 -7.5,3.5 -2,0 -2,-5 0,-5 2,-14 4,-12 8.5,-37 4.5,-25 9,-51 4.5,-26 7,-47 2.5,-21 2.5,-24 -2,-3 -4,-13 -2,-10 -4,-16 z m 894,0 q -25,-17 -35,-17 0,0 -5,1 -5,1 -27,31 -21,29 -26,40.5 -5,11.5 -5,17.5 0,9 7,16 6,7 6,16 0,9 9.5,19.5 9.5,10.5 27.5,22.5 23,15 29,15 6,0 6,-2 0,-4 -9,-13 -12,-11 -12,-17 0,-2 4.5,-4.5 4.5,-2.5 43.5,-2.5 h 51 v -34 q 0,-29 -15,-48.5 -15,-19.5 -50,-40.5 z m 96,0 q 5,-3 5,-5 0,-2 -4.5,-3 -4.5,-1 -27.5,-1 h -40 l 19,21 q 12,12 14.5,13.5 2.5,1.5 4.5,1.5 3,0 8,-7 8,-12 21,-20 z m 120,6 q -12,-1 -29,-4 -17,-3 -23,-5 -3,-2 -8,-2 -4,0 -12.5,2 -8.5,2 -19.5,7 -11,5 -20,12.5 -9,7.5 -14,15.5 -4,7 -6.5,22 -2.5,15 -2.5,32 v 37 h 38 q 30,0 32.5,3.5 2.5,3.5 2.5,4.5 0,6 -13,15 -10,7 -10,9 0,1 3,1 7,0 33.5,-15.5 26.5,-15.5 55.5,-36 29,-20.5 54,-38.5 25,-18 26,-25 0,-1 0,-2 0,-19 -87,-33 z m -313,23 q 7,-12 10.5,-19 3.5,-7 3.5,-10 0,-1 -1,-1 -3,1 -17,10 -14,9 -32,23 -18,13 -34.5,23.5 -16.5,10.5 -24.5,13.5 -5,2 -5,4 0,6 43,13 17,3 25,3 3,0 7,-1 4,-1 4,-10 0,-9 6,-23 6,-14 15,-26 z M 626,825 Q 614,824 599.5,819.5 585,815 578,809 q -13,-6 -18,-6 -2,0 -4,1.5 -2,1.5 -7,28.5 -4,21 -4.5,29 -0.5,8 -0.5,10 0,10 2.5,11.5 2.5,1.5 5.5,1.5 4,0 14,-4.5 10,-4.5 19,-8.5 35,-15 51.5,-24 16.5,-9 16.5,-12 0,-3 -7.5,-5.5 Q 638,828 626,825 Z M 459,815 q 5,-11 14,-11 6,0 6,6 0,5 -4.5,17 -4.5,12 -28.5,43 -18,23 -37.5,53.5 -19.5,30.5 -36,60.5 -16.5,30 -27,54 -10.5,24 -10.5,47 0,25 12,53 12,28 54,65 6,6 18,16.5 12,10.5 21,19.5 9,9 16.5,18 7.5,9 16.5,23 10,12 15.5,23 5.5,11 5.5,16 0,0 0,1 -1,2 -2,2 -3,0 -11,-8.5 -8,-8.5 -19,-21.5 -16,-21 -41.5,-46.5 -25.5,-25.5 -55,-50.5 -29.5,-25 -55.5,-45 -26,-20 -44,-28 -11,-3 -27.5,-6.5 -16.5,-3.5 -38.5,-3.5 -39,0 -40,-5 -1,-5 -1,-6 0,-10 42,-40 32,-24 74,-61 42,-37 81.5,-74.5 Q 396,888 425.5,858 455,828 459,815 Z m 482,9 q -9,-3 -22,-7.5 -13,-4.5 -16,-6.5 -7,-3 -11,-3 -3,0 -5,4 -2,4 -2,28 0,18 -1.5,31.5 -1.5,13.5 -2.5,19.5 -1,2 -1,3 0,2 4,2 1,0 7,-1 6,-1 33,-15 21,-10 39,-17.5 18,-7.5 27,-7.5 11,0 11,-8 0,-9 -14,-9 -6,-1 -18.5,-4 -12.5,-3 -27.5,-9 z m 739,69 q 6,-6 6,-8 0,-2 -2,-2 -2,0 -9,2 -7,2 -41,27 -20,14 -21.5,16 -1.5,2 -1.5,2 0,4 20,9 15,5 23,5 2,0 6.5,-1 4.5,-1 4.5,-16 0,-19 15,-34 z m -147,27 h -54 q -31,0 -42.5,2 -11.5,2 -11.5,11 0,5 2.5,9.5 2.5,4.5 5.5,7.5 4,3 11.5,14 7.5,11 15.5,25 l 18,36 6,-24 q 3,-11 11,-26 8,-15 17,-27 z m -955,13 q 0,-5 4,-5 1,0 5,1 4,1 15,6 16,9 41.5,14 25.5,5 58,9.5 32.5,4.5 64,8.5 31.5,4 44.5,4 17,0 17,7 0,6 -13,6 -6,0 -14,-1 -14,-2 -31,-2 -8,0 -26,1 -18,1 -46,4.5 -28,3.5 -52,9.5 -24,6 -33,14 l -22,13 28,11 q 12,6 46,10.5 34,4.5 73,5.5 72,5 79.5,9.5 7.5,4.5 7.5,5.5 0,5 -51,5 -66,0 -114,9 -48,9 -72,31 -9,9 -13,9 -4,0 -4,-7 0,-9 6,-29 9,-24 9,-36 0,-8 -4,-12 -5,-3 -5,-12 0,-9 6,-24 8,-18 8,-33 0,-11 -5,-19 -1,-2 -4,-7 -3,-5 -3,-7 z m 396,15 q -3,-9 -3,-13 0,-4 1.5,-4.5 1.5,-0.5 1.5,-0.5 5,0 16,8 14,9 32.5,14 18.5,5 42.5,9.5 24,4.5 51,7 27,2.5 47,2.5 19,0 33.5,2 14.5,2 17.5,5 0,0 0,1 0,2 -17.5,5 -17.5,3 -48.5,3 -32,0 -59.5,3 -27.5,3 -49.5,7 -22,4 -34.5,9 -12.5,5 -12.5,10 0,1 0,1 0,24 136,38 36,3 62.5,7.5 26.5,4.5 26.5,7.5 0,3 -21,4.5 -21,1.5 -48,1.5 -68,0 -114.5,9.5 -46.5,9.5 -65.5,30.5 -8,9 -12,9 -3,0 -4.5,-2 -1.5,-2 -1.5,-5 0,-9 10,-26 8,-12 12.5,-24.5 4.5,-12.5 4.5,-23.5 0,-9 -2,-11.5 -2,-2.5 -6,-2.5 -4,0 -10,2 l -17,6 18,-34 q 14,-30 14,-49 0,-4 0,-7 z m -626,47 q 11,-21 18,-37.5 7,-16.5 7,-20.5 0,-1 -1,-1 -3,0 -13.5,9 -10.5,9 -20.5,20 -14,13 -38.5,35.5 Q 275,1023 251,1043 l -57,46 48,11 q 25,6 38,8 13,2 20,2 1,0 5,-0.5 4,-0.5 5.5,-6.5 1.5,-6 1.5,-12 0,-15 10,-40.5 10,-25.5 26,-55.5 z m 279,-30 q -8,-4 -11,-4 -1,0 -3,1 -2,1 -2,10 0,15 8,15 4,0 10,-4 8,-5 8,-9 0,-5 -10,-9 z m 401,6 q -6,0 -15,-3 -7,-3 -12,-3 -8,0 -8,9 0,12 8.5,13 8.5,1 9.5,1 13,0 20,-10 1,-3 1,-4 0,-3 -4,-3 z m 298,105 q 5,-6 10,-14.5 5,-8.5 5,-10.5 0,-2 -1,-2 0,0 -1,0 -3,0 -15.5,9 -12.5,9 -27.5,19 -22,17 -39.5,28 -17.5,11 -21.5,14 -10,6 -10,9 0,1 4,3.5 4,2.5 33,7.5 20,3 28,3 3,0 7,-1 4,-1 4,-10 0,-9 6,-22.5 6,-13.5 19,-32.5 z m -295,-14 q -7,-9 -19,-9 -2,0 -10.5,1 -8.5,1 -8.5,13 0,9 7,9 3,0 7,-2 0,0 0,0 1,0 1,0 1,0 2,0 0,0 1,-1 0,0 1,0 0,0 1,0 1,0 2,-1 0,0 1,0 0,0 1,0 0,0 1,0 0,0 1,-1 6,-1 10,-1 5,0 5,-3 0,-2 -3,-5 z m -395,-1 q 0,-8 -15,-8 -18,0 -18,12 0,9 10,9 3,0 7,-1 16,-6 16,-12 z m 1035,7 q 4,-4 4,-5 0,-1 -2,-1 -1,0 -9,2.5 -8,2.5 -33,18.5 -30,21 -30,28.5 0,7.5 28,7.5 18,0 23.5,-3 5.5,-3 5.5,-15 0,-19 13,-33 z m -828,83 q 0,-6 6,-6 9,0 30,12 50,28 127,41.5 77,13.5 206,22.5 59,3 98.5,8.5 39.5,5.5 39.5,8.5 0,3 -16,3.5 -16,0.5 -25,0.5 -19,0 -43,-1 -29,-3 -61,-3 -5,0 -26.5,0.5 -21.5,0.5 -59,3.5 -37.5,3 -71.5,9 -34,6 -61,14 -91,28 -106,87 -4,18 -11,18 -1,0 -3.5,-1.5 -2.5,-1.5 -2.5,-13.5 0,-10 3,-27 3,-18 5,-38.5 2,-20.5 2,-35.5 0,-9 -1,-24.5 -1,-15.5 -5,-33.5 -4,-18 -13,-29 -3,-3 -7.5,-9 -4.5,-6 -4.5,-7 z m -307,6 q 0,-4 3,-4 8,0 31,20 11,8 30.5,17 19.5,9 43.5,13 10,2 39.5,6.5 29.5,4.5 60,8 30.5,3.5 57,6.5 26.5,3 35.5,3 13,0 13,6 0,1 -1,3 -3,3 -13.5,3.5 -10.5,0.5 -16.5,0.5 -12,0 -26,-1 -18,-2 -36,-2 -21,0 -50,3.5 -29,3.5 -62,14 -33,10.5 -57,26 -24,15.5 -35,33.5 -12,26 -13.5,28.5 -1.5,2.5 -3.5,2.5 -1,0 -2,-1 -3,-3 -3,-12 0,-5 2,-19.5 2,-14.5 7,-34.5 9,-43 9.5,-54 0.5,-11 0.5,-13 0,-18 -6,-35 -1,-3 -4,-10.5 -3,-7.5 -3,-8.5 z m 438,52 q -30,-6 -49,-11 -19,-5 -23,-8 -3,-1 -5,-1 -5,0 -6,4 -1,4 -1,9 0,11 3,34 1,18 2,32.5 1,14.5 2,14.5 0,0 1,0 1,0 10.5,-3 9.5,-3 17.5,-8 19,-10 42.5,-17.5 23.5,-7.5 45.5,-12.5 36,-7 41.5,-11.5 5.5,-4.5 5.5,-6.5 0,-4 -18,-4 -17,0 -37,-4 -20,-4 -32,-7 z m -329,11 q -9,0 -21.5,-4 -12.5,-4 -24.5,-8 l -29,-12 -4,33 q -3,13 -3.5,20 -0.5,7 -0.5,10 0,5 1,7 1,1 3,1 4,0 12.5,-3.5 8.5,-3.5 23.5,-10.5 13,-8 26.5,-12.5 13.5,-4.5 21.5,-4.5 10,0 10,-7 0,-9 -15,-9 z"
     id="path1" />
</svg>
