<?xml version="1.0" encoding="UTF-8" standalone="no"?>
<svg
   width="2000"
   height="2000"
   version="1.1"
   id="svg1"
   sodipodi:docname="u12360.svg"
   inkscape:version="1.3.2 (091e20e, 2023-11-25)"
   xmlns:inkscape="http://www.inkscape.org/namespaces/inkscape"
   xmlns:sodipodi="http://sodipodi.sourceforge.net/DTD/sodipodi-0.dtd"
   xmlns="http://www.w3.org/2000/svg"
   xmlns:svg="http://www.w3.org/2000/svg">
  <defs
     id="defs1" />
  <sodipodi:namedview
     id="namedview1"
     pagecolor="#505050"
     bordercolor="#eeeeee"
     borderopacity="1"
     inkscape:showpageshadow="0"
     inkscape:pageopacity="0"
     inkscape:pagecheckerboard="0"
     inkscape:deskcolor="#505050"
     inkscape:zoom="0.379"
     inkscape:cx="1000"
     inkscape:cy="998.68074"
     inkscape:window-width="1392"
     inkscape:window-height="1212"
     inkscape:window-x="0"
     inkscape:window-y="0"
     inkscape:window-maximized="0"
     inkscape:current-layer="svg1" />
  <path
     d="m 823,647.5 q 0,-12 6,-12 1,0 5.5,1 4.5,1 32.5,22 33,24 66.5,42 33.5,18 74.5,32.5 41,14.5 90,25.5 49,11 111,19 31,4 60.5,9 29.5,5 52.5,9.5 23,4.5 38,8 15,3.5 18,5.5 2,1 6,1 7,0 22.5,-7 15.5,-7 34.5,-20 19,-13 34,-27.5 15,-14.5 15,-25.5 0,-5 3.5,-9 3.5,-4 8.5,-4 9,0 9,9 0,4 -3.5,16 -3.5,12 -24.5,38 -6,7 -14.5,18.5 -8.5,11.5 -18,25.5 -9.5,14 -18.5,29.5 -9,15.5 -14,23.5 -26,46 -31,62 -5,16 -5,27 0,11 3,22 2,9 6,17.5 4,8.5 9,8.5 4,0 9.5,9 5.5,9 10.5,20 3,12 23.5,33 20.5,21 55.5,46 23,17 55,43 32,26 56.5,49.5 24.5,23.5 40,40.5 15.5,17 15.5,24 0,3 -2,3 -4,0 -17.5,-9 -13.5,-9 -49.5,-42 -21,-20 -48,-43 -27,-23 -46.5,-38.5 -19.5,-15.5 -29,-21 -9.5,-5.5 -11.5,-5.5 -2,0 -2,1 0,6 -26,12.5 -26,6.5 -94,15.5 -75,10 -156,23 -81,13 -143,25.5 -62,12.5 -107,25.5 -45,13 -78,27.5 -33,14.5 -56.5,31.5 -23.5,17 -48.5,44 -10,11 -22,23 -12,12 -14,12 -2,0 -4,-15 -2,-15 -2,-35 0,-21 -2,-44.5 -2,-23.5 -4,-37.5 l -6,-32 H 578 q -46,0 -77.5,2 -31.5,2 -54,8.5 -22.5,6.5 -40.5,18 -18,11.5 -37,29.5 -13,12 -21.5,17.5 -8.5,5.5 -11.5,5.5 -1,0 -1,0 -1,-1 -1,-6 0,-4 1,-14.5 1,-10.5 5,-26.5 6,-23 9.5,-53.5 3.5,-30.5 5.5,-60.5 2,-20 4.5,-54 2.5,-34 4.5,-56 1,-27 5,-57 4,-30 10,-48 3,-20 3.5,-26 0.5,-6 0.5,-7 0,-5 -3,-5 -1,0 -3,1 -2,1 -4,1 -7,0 -7.5,-9 -0.5,-9 -0.5,-10 0,-24 14,-95 5,-31 11,-59 6,-28 8,-30 0,0 1,0 3,0 11.5,5.5 8.5,5.5 22.5,18.5 20,19 40,33 20,14 44.5,21.5 24.5,7.5 56,10.5 31.5,3 80.5,3 46,0 76.5,2.5 30.5,2.5 30.5,7.5 0,5 -36,8 -36,3 -94,3 -110,0 -160,11.5 -50,11.5 -50,31.5 0,10 12.5,23 12.5,13 34.5,29 11,7 22,13.5 11,6.5 25.5,9.5 14.5,3 37,4 22.5,1 56.5,1 53,0 81.5,2.5 28.5,2.5 28.5,7.5 0,5 -30,8 -30,3 -78,3 -89,0 -139.5,10.5 -50.5,10.5 -50.5,26.5 0,7 11.5,17.5 11.5,10.5 26.5,21.5 14,9 24.5,14 10.5,5 25.5,8 15,3 37,3.5 22,0.5 49,0.5 57,0 85.5,2.5 28.5,2.5 28.5,7.5 0,5 -30,8 -30,3 -85,3 -39,0 -69.5,1.5 -30.5,1.5 -52.5,5.5 -22,4 -37,11.5 -15,7.5 -28,18.5 -12,13 -12,18 0,5 12,20 29,30 75,44 46,14 122,14 h 94 l -9,-31 q -4,-14 -4.5,-17.5 -0.5,-3.5 -0.5,-4.5 0,-5 3.5,-6 3.5,-1 5.5,-1 5,0 16,3.5 11,3.5 23,7.5 33,12 66,20 33,8 67.5,14.5 34.5,6.5 66.5,10.5 32,4 49,4 15,0 45.5,-3 30.5,-3 71.5,-8.5 41,-5.5 88.5,-12 47.5,-6.5 92,-13 44.5,-6.5 81.5,-13 37,-6.5 57,-10.5 l 33,-7 -48,-36 q -28,-20 -49.5,-34.5 -21.5,-14.5 -42,-24 -20.5,-9.5 -42.5,-15.5 -22,-6 -51,-8.5 -29,-2.5 -67.5,-3.5 -38.5,-1 -97.5,-1 -73,0 -119,1.5 -46,1.5 -75,8.5 -29,7 -48.5,21 -19.5,14 -41.5,35 -18,17 -28.5,24 -10.5,7 -13.5,7 -1,0 -1,0 0,-1 0,-4 0,-6 1.5,-26 1.5,-20 4.5,-52 5,-32 5.5,-52.5 0.5,-20.5 0.5,-28.5 0,-16 -1,-24 -2,-9 -2,-15 0,-11 3.5,-11.5 3.5,-0.5 4.5,-0.5 11,0 40,21 13,8 39.5,21.5 26.5,13.5 45.5,21.5 34,14 72.5,20.5 38.5,6.5 64.5,7.5 26,1 36,1 30,0 63,-3.5 33,-3.5 60,-13.5 18,-7 52,-25 34,-18 68,-37.5 34,-19.5 59,-35.5 25,-16 25,-20 0,-3 -23.5,-8.5 -23.5,-5.5 -61,-11.5 -37.5,-6 -83,-13 -45.5,-7 -90,-12 -44.5,-5 -82.5,-8.5 -38,-3.5 -69,-3.5 -18,0 -37,1 -19,1 -34,3.5 -15,2.5 -27.5,6.5 -12.5,4 -29.5,13 -16,9 -29.5,13.5 -13.5,4.5 -17.5,4.5 -1,0 -1,0 0,0 0,-1 0,-5 4,-25.5 4,-20.5 14,-48.5 9,-29 16,-55 7,-26 7,-38 z m 84,62 q -22,-13 -35.5,-21 -13.5,-8 -18.5,-9.5 -5,-1.5 -7,-1.5 -3,0 -4,2 -1,2 -4,12 -1,2 -5.5,16.5 -4.5,14.5 -8.5,25.5 -6,18 -7.5,27.5 -1.5,9.5 -1.5,13.5 0,1 0,2 0,0 1,0 4,0 16.5,-3.5 12.5,-3.5 30.5,-10.5 18,-5 39.5,-10 21.5,-5 39.5,-5 16,0 16,-3 0,-1 -2.5,-4 -2.5,-3 -48.5,-31 z m -425,49 q 0,-2 -10.5,-10 -10.5,-8 -25.5,-19 -15,-9 -21,-12 -6,-3 -9,-3 -3,0 -6.5,3 -3.5,3 -6,16 -2.5,13 -5.5,37 l -6,37 45,-22 q 18,-9 31.5,-17 13.5,-8 13.5,-10 z m 929,90 q 3,-8 3,-12 0,-5 -4,-5 -1,0 -7.5,2 -6.5,2 -46.5,31 -14,10 -27.5,19 -13.5,9 -28,17.5 -14.5,8.5 -27.5,16 -13,7.5 -24,12.5 l -51,28 30,6 q 14,4 36.5,12 22.5,8 53.5,21 11,5 23.5,10 12.5,5 15.5,5 1,0 1,0 1,-6 1,-13 1,-5 1.5,-13 0.5,-8 0.5,-17 2,-17 8,-38.5 6,-21.5 18,-37.5 6,-9 14,-23 8,-14 10,-21 z m -938,55 -31,-22 q -13,-9 -20.5,-14 -7.5,-5 -8.5,-5 -1,0 -1,1 0,1 -3,11.5 -3,10.5 -8,24.5 -5,17 -5,26 0,8 3,9.5 3,1.5 5,1.5 11,0 36,-13 z m 351,38 q -25,-13 -38.5,-19.5 -13.5,-6.5 -17,-7 -3.5,-0.5 -4.5,-0.5 -3,0 -3,2 v 1 q 0,0 0,1 v 1 q 0,0 0,0 v 1 q 0,0 0,1 v 3 q 0,0 0,1 v 1 q 0,5 -2.5,24 -2.5,19 -4.5,39 l -6,48 39,-26 q 17,-10 37.5,-20.5 20.5,-10.5 32.5,-12.5 11,-3 15,-4 4,-1 4,-3 0,-1 -2,-3.5 -2,-2.5 -13.5,-8.5 -11.5,-6 -36.5,-18 z m -382,96 q 15,-6 15,-9 0,0 -0.5,-2 -0.5,-2 -22.5,-18 -14,-11 -19.5,-14 -5.5,-3 -9.5,-3 -2,0 -5.5,2.5 -3.5,2.5 -6.5,14 -3,11.5 -8,32.5 -4,21 -4,28 0,3 0.5,4 0.5,1 2.5,1 3,0 13,-8 8,-8 20.5,-15.5 12.5,-7.5 24.5,-12.5 z m 9,142 q 0,-2 -9.5,-10 -9.5,-8 -23.5,-17 l -36,-22 -9,49 -11,48 45,-21 q 18,-9 31,-17 13,-8 13,-10 z m 300,-20 q -29,-10 -38,-10 -2,0 -3.5,0.5 -1.5,0.5 -1.5,1.5 0,6 19,24 8,9 9,12.5 1,3.5 1,4.5 0,4 -4,6 -9,5 -9,28 0,14 3,33 l 6,52 43,-34 q 18,-15 45.5,-32.5 27.5,-17.5 47.5,-26.5 l 51,-22 -55,-9 q -24,-4 -53.5,-10.5 -29.5,-6.5 -60.5,-17.5 z"
     id="path1" />
</svg>
