<?xml version="1.0" encoding="UTF-8" standalone="no"?>
<svg
   width="2000"
   height="2000"
   version="1.1"
   id="svg1"
   sodipodi:docname="u1235E.svg"
   inkscape:version="1.3.2 (091e20e, 2023-11-25)"
   xmlns:inkscape="http://www.inkscape.org/namespaces/inkscape"
   xmlns:sodipodi="http://sodipodi.sourceforge.net/DTD/sodipodi-0.dtd"
   xmlns="http://www.w3.org/2000/svg"
   xmlns:svg="http://www.w3.org/2000/svg">
  <defs
     id="defs1" />
  <sodipodi:namedview
     id="namedview1"
     pagecolor="#505050"
     bordercolor="#eeeeee"
     borderopacity="1"
     inkscape:showpageshadow="0"
     inkscape:pageopacity="0"
     inkscape:pagecheckerboard="0"
     inkscape:deskcolor="#505050"
     inkscape:zoom="0.379"
     inkscape:cx="1000"
     inkscape:cy="998.68074"
     inkscape:window-width="1392"
     inkscape:window-height="1212"
     inkscape:window-x="0"
     inkscape:window-y="0"
     inkscape:window-maximized="0"
     inkscape:current-layer="svg1" />
  <path
     d="m 879.5,685 q 19,-19 33,-31.5 14,-12.5 17,-12.5 1,0 1,0 4,1 4.5,13 0.5,12 0.5,16 0,17 -2,38 l -4,63 55,53 q 12,10 25.5,22 13.5,12 27,22.5 13.5,10.5 25,19.5 11.5,9 20.5,15 l 40,29 33,-33 q 15,-15 27.5,-25 12.5,-10 15.5,-10 3,0 3,14.5 0,14.5 -3,36.5 -2,19 -2,35 0,6 0.5,18 0.5,12 12,31 11.5,19 36,41.5 24.5,22.5 67.5,57.5 68,57 86.5,76.5 18.5,19.5 18.5,25.5 0,3 -5,3 -1,0 -8.5,-5.5 -7.5,-5.5 -20.5,-15 -13,-9.5 -29,-22 -16,-12.5 -29,-22.5 -40,-33 -69,-52 -29,-19 -57,-30.5 -28,-11.5 -56,-16.5 -28,-5 -58,-5 -22,0 -34,3 -12,3 -18.5,11 -6.5,8 -8.5,23 -2,15 -2,39 0,3 0,5 0,15 5,29 5,14 20.5,32.5 15.5,18.5 44,43 28.5,24.5 63.5,51.5 45,36 69,58.5 24,22.5 24,28.5 0,1 -2,1 -2,0 -8,-2.5 -6,-2.5 -19.5,-11.5 -13.5,-9 -31.5,-22.5 -18,-13.5 -37,-28.5 -34,-27 -55.5,-43 -21.5,-16 -39,-26 -17.5,-10 -33,-15 -15.5,-5 -35.5,-8 -25,-5 -46.5,-6.5 -21.5,-1.5 -33.5,-1.5 -12,0 -22,1 -6,0 -12,0 -8,0 -17.5,-1 -9.5,-1 -9.5,-6 0,-5 12,-17.5 12,-12.5 29,-27.5 l 39,-36 -42,-37 q -33,-29 -56.5,-47 -23.5,-18 -45.5,-28 -22,-10 -47,-14 -25,-4 -61,-7 -38,-2 -65,-7 -27,-5 -27,-9 0,-3 7,-9.5 7,-6.5 14,-11.5 8,-6 26,-21.5 18,-15.5 42,-37 24,-21.5 53,-47.5 29,-26 57,-52.5 28,-26.5 53.5,-50.5 25.5,-24 44.5,-43 z m 38,113 q 0,-1 -2,-16.5 -2,-15.5 -4,-37.5 l -6,-51 -105,93 58,8 q 23,2 36,3.5 13,1.5 17,1.5 5,0 6,-1 z m 1,24 q -19,-3 -46.5,-6.5 -27.5,-3.5 -52.5,-3.5 -14,0 -24.5,1 -10.5,1 -16.5,4 -6,3 -9.5,8.5 -3.5,5.5 -6.5,14.5 -11,25 -11,46 0,6 2.5,21.5 2.5,15.5 23.5,39.5 12,15 38.5,38.5 26.5,23.5 54.5,46 28,22.5 51,38.5 23,16 29,16 5,0 16.5,-10 11.5,-10 25.5,-24 12,-15 32,-33.5 20,-18.5 37,-30.5 17,-13 27,-24 10,-11 10,-14 -4,-10 -26.5,-30 -22.5,-20 -51.5,-40 -29,-20 -58,-37 -29,-17 -44,-21 z m -171,129 q -3,-5 -7,-21 -4,-16 -8,-33 l -7,-43 -48,48 q -17,17 -25.5,27 -8.5,10 -10,13 -1.5,3 -1.5,4 0,2 4.5,3 4.5,1 13.5,1 12,0 30,2 18,2 31,5 12,2 19,2 10,0 10,-4 0,-2 -1,-4 z m 429,23 q -1,-11 -2,-20 -1,-9 -2,-17 l -2,-16 q -7,5 -14,12 -7,5 -15.5,12.5 -8.5,7.5 -16.5,14.5 -21,19 -32.5,31 -11.5,12 -11.5,15 0,1 0,1 2,1 17.5,4 15.5,3 35.5,6 l 49,8 z m -165,205 q 1,0 1,-4 0,-3 -2,-14.5 -2,-11.5 -8,-29.5 l -15,-43 -93,81 57,7 q 23,2 36,3 13,1 17,1 6,0 7,-1 z"
     id="path1" />
</svg>
