<?xml version="1.0" encoding="UTF-8" standalone="no"?>
<svg
   width="2000"
   height="2000"
   version="1.1"
   id="svg1"
   sodipodi:docname="u1240A.svg"
   inkscape:version="1.3.2 (091e20e, 2023-11-25)"
   xmlns:inkscape="http://www.inkscape.org/namespaces/inkscape"
   xmlns:sodipodi="http://sodipodi.sourceforge.net/DTD/sodipodi-0.dtd"
   xmlns="http://www.w3.org/2000/svg"
   xmlns:svg="http://www.w3.org/2000/svg">
  <defs
     id="defs1" />
  <sodipodi:namedview
     id="namedview1"
     pagecolor="#505050"
     bordercolor="#eeeeee"
     borderopacity="1"
     inkscape:showpageshadow="0"
     inkscape:pageopacity="0"
     inkscape:pagecheckerboard="0"
     inkscape:deskcolor="#505050"
     inkscape:zoom="0.379"
     inkscape:cx="1000"
     inkscape:cy="998.68074"
     inkscape:window-width="1392"
     inkscape:window-height="1212"
     inkscape:window-x="0"
     inkscape:window-y="0"
     inkscape:window-maximized="0"
     inkscape:current-layer="svg1" />
  <path
     d="m 710.5,639.5 q 2,-4 16.5,-5.5 14.5,-1.5 30,-2 15.5,-0.5 26.5,-0.5 11,0 28.5,0.5 17.5,0.5 37.5,2.5 20,2 33,4.5 13,2.5 13,7.5 0,4 -7,12.5 -7,8.5 -16,16.5 -34,32 -48.5,75.5 -14.5,43.5 -14.5,123.5 0,34 -2.5,64 -2.5,30 -7.5,32 -1,1 -1,1 -4,0 -7,-26 -3,-26 -3,-79 0,-48 -2.5,-80.5 -2.5,-32.5 -9,-55 -6.5,-22.5 -17.5,-37.5 -11,-15 -28,-26 -11,-9 -16.5,-15.5 -5.5,-6.5 -5.5,-10.5 0,-1 1,-2 z m 195,13 q 0,-1 26.5,-2 26.5,-1 57.5,-1 74,0 84,4.5 10,4.5 10,8.5 0,6 -10,14 -11,10 -24,29 -13,19 -24,40 -8,16 -13,29.5 -5,13.5 -7.5,29 -2.5,15.5 -3.5,36 -1,20.5 -1,49.5 v 95 l 33,7 q 14,2 41.5,4 27.5,2 52.5,2 h 63 v -121 q 0,-50 -2,-83 -2,-33 -8.5,-55.5 -6.5,-22.5 -18.5,-37.5 -12,-15 -31,-30 l -30,-21 h 99 q 40,0 68,2 28,2 28,8 0,3 -6,11 -6,8 -17,18 -15,14 -26.5,31.5 -11.5,17.5 -19,41 -7.5,23.5 -11,54.5 -3.5,31 -5.5,74 l -3,108 h 28 q 28,0 28,8 0,1 -1,5.5 -1,4.5 -30,24.5 -14,8 -32,28 -18,20 -33,42 -9,13 -15.5,25 -6.5,12 -9.5,27.5 -3,15.5 -3.5,38.5 -0.5,23 -0.5,50 0,62 -3,92 -3,30 -8,30 -5,0 -7.5,-35 -2.5,-35 -2.5,-88 0,-32 -1,-57 -1,-25 -2.5,-45.5 -1.5,-20.5 -4,-34.5 -2.5,-14 -5.5,-21 -5,-9 -21,-26 -16,-17 -46,-37 -15,-10 -29.5,-21 -14.5,-11 -20.5,-27.5 -6,-16.5 -7,-43.5 -1,-27 -1,-77 v -125 l -36,-36 q -16,-16 -27,-28 -11,-12 -11,-14 z m -54,8 h -42 q -29,0 -35.5,5 -6.5,5 -6.5,8 0,5 12,12 5,4 10.5,12 5.5,8 9.5,17 4,13 8,13 1,0 3.5,-2 2.5,-2 18.5,-28 z m 191,19 q 0,-5 -13,-7 -13,-2 -37,-2 -26,0 -28,1 -2,1 -2,2 0,4 9,15 8,8 13,17.5 5,9.5 5,18.5 0,9 5,9 4,0 12,-7 8,-7 16,-16.5 8,-9.5 14,-18.5 6,-9 6,-12 z m 211,-9 h -43 q -18,0 -27,2.5 -9,2.5 -9,6.5 0,1 0,2 3,5 9,15 6,10 12,21 l 15,28 21,-39 z m -549,323 q 0,-4 7,-4.5 7,-0.5 10,-0.5 10,0 22,2 18,3 56,5 38,2 77,2 39,0 65.5,2 26.5,2 26.5,6 0,3 -9.5,12 -9.5,9 -21.5,18 -14,8 -32.5,28 -18.5,20 -33.5,43 -8,12 -14.5,24 -6.5,12 -9.5,27.5 -3,15.5 -4,38.5 -1,23 -1,58 0,54 -2.5,84 -2.5,30 -7.5,30 -6,0 -9,-35.5 -3,-35.5 -3,-95.5 0,-55 -2.5,-90 -2.5,-35 -11,-58 -8.5,-23 -23.5,-37.5 -15,-14.5 -40,-27.5 -17,-9 -28,-17.5 -11,-8.5 -11,-13.5 z m 510,25 h -142 l 34,39 q 15,17 26,28 11,11 13,11 2,-2 12,-14 10,-12 24,-26 z m -309,13 q 0,-7 -19.5,-10 -19.5,-3 -46.5,-3 -40,1 -47,3 -7,2 -7,4 0,3 5,7 7,5 17,17 10,12 17,25 l 20,28 22,-28 q 9,-13 18,-22.5 9,-9.5 12,-9.5 9,-5 9,-11 z"
     id="path1" />
</svg>
