<?xml version="1.0" encoding="UTF-8" standalone="no"?>
<svg
   width="2000"
   height="2000"
   version="1.1"
   id="svg1"
   sodipodi:docname="u1240C.svg"
   inkscape:version="1.3.2 (091e20e, 2023-11-25)"
   xmlns:inkscape="http://www.inkscape.org/namespaces/inkscape"
   xmlns:sodipodi="http://sodipodi.sourceforge.net/DTD/sodipodi-0.dtd"
   xmlns="http://www.w3.org/2000/svg"
   xmlns:svg="http://www.w3.org/2000/svg">
  <defs
     id="defs1" />
  <sodipodi:namedview
     id="namedview1"
     pagecolor="#505050"
     bordercolor="#eeeeee"
     borderopacity="1"
     inkscape:showpageshadow="0"
     inkscape:pageopacity="0"
     inkscape:pagecheckerboard="0"
     inkscape:deskcolor="#505050"
     inkscape:zoom="0.379"
     inkscape:cx="1000"
     inkscape:cy="998.68074"
     inkscape:window-width="1392"
     inkscape:window-height="1212"
     inkscape:window-x="0"
     inkscape:window-y="0"
     inkscape:window-maximized="0"
     inkscape:current-layer="svg1" />
  <path
     d="m 625.5,644 q 0,-3 13.5,-5 13.5,-2 29,-2.5 15.5,-0.5 26.5,-0.5 11,0 29.5,0.5 18.5,0.5 39.5,2 21,1.5 36,3.5 15,2 17,5 3,4 17.5,6 14.5,2 53.5,2 39,0 107.5,-1 68.5,-1 178.5,-4 43,-2 81.5,-2.5 38.5,-0.5 67,-0.5 28.5,0 45,1 16.5,1 16.5,2 0,3 -8,12 -8,9 -19,19 -20,19 -33.5,36 -13.5,17 -21,37.5 -7.5,20.5 -10.5,46 -3,25.5 -3,63.5 0,35 -2.5,59 -2.5,24 -6.5,24 -5,0 -7.5,-29 -2.5,-29 -2.5,-79 V 729 l -32,-36 q -15,-15 -23.5,-20.5 -8.5,-5.5 -15.5,-5.5 -3,0 -9.5,1.5 -6.5,1.5 -18.5,14 -12,12.5 -34,41.5 -8,11 -15,21 -7,10 -10,27.5 -3,17.5 -4,47.5 -1,30 -2,85 l -1,46 121,3 q 25,1 46.5,2 21.5,1 38,2 16.5,1 26,2 9.5,1 9.5,2 0,2 -9.5,12 -9.5,10 -23.5,21 -13,12 -31.5,35.5 -18.5,23.5 -34.5,52.5 -5,9 -11,21 -6,12 -9,26.5 -3,14.5 -3.5,33.5 -0.5,19 -0.5,44 0,75 -5,115.5 -5,40.5 -13,40.5 -1,0 -2,-10.5 -1,-10.5 -1,-28 0,-17.5 0.5,-41.5 0.5,-24 1.5,-45 0,-19 0,-35 0,-43 -2,-80.5 -2,-37.5 -7,-53.5 -3,-14 -14.5,-30.5 -11.5,-16.5 -26,-30.5 -14.5,-14 -28.5,-24 -14,-10 -21,-10 -8,0 -20.5,12 -12.5,12 -27.5,30 -15,18 -29,38.5 -14,20.5 -23,38.5 -5,12 -9,24.5 -4,12.5 -6.5,29 -2.5,16.5 -3,40.5 -0.5,24 -0.5,55 0,59 -2,90 -2,31 -7,31 -5,0 -7.5,-38 -2.5,-38 -2.5,-111 0,-34 -0.5,-62.5 -0.5,-28.5 -2,-48 -1.5,-19.5 -4.5,-32 -3,-12.5 -8,-21.5 -5,-10 -16,-23.5 -11,-13.5 -24,-25 -13,-11.5 -24.5,-19.5 -11.5,-8 -18.5,-8 -6,0 -17.5,9 -11.5,9 -25,24 -13.5,15 -27,34 -13.5,19 -24.5,37 -9,16 -14,28 -5,12 -7.5,27 -2.5,15 -3.5,37 -1,22 -1,60 0,73 -3.5,103 -3.5,30 -14.5,30 -1,0 -2,-11 -1,-11 -1,-30 0,-1 0,-3 v -1 q 0,0 0,-1 v -3 q 0,-2 0,-4 v -1 q 0,0 0,-1 v -1 q 0,-1 0,-2 v -1 q 0,-1 0,-1 v -17 q 0,-1 0,-2 v -6 q 0,-2 0,-4 v -1 q 0,-1 0,-1 v -4 q 0,-2 0,-5 v -1 q 0,-1 0,-2 v -1 q 0,-1 0,-2 v -2 q 0,-1 0,-1 v -20 q 0,-1 0,-2 v -6 q 1,-35 1,-62 0,-20 -1,-47 -1,-27 -8,-51.5 -7,-24.5 -21,-40.5 -14,-16 -42,-35 -14,-10 -27,-21 -13,-11 -13,-13 0,-1 11,-2 11,-1 30,-2 19,-1 44.5,-1.5 25.5,-0.5 54.5,-0.5 h 139 v -91 q -1,-45 -3,-72 -2,-27 -7.5,-44 -5.5,-17 -16,-28 -10.5,-11 -36.5,-28 -10,-7 -18,-12 -8,-5 -14,-5 -3,0 -9.5,3 -6.5,3 -16,17 -9.5,14 -26.5,41 -7,13 -11,23 -4,10 -5.5,20.5 -1.5,10.5 -1.5,22.5 0,4 0.5,15.5 0.5,11.5 2.5,40.5 3,30 3,51 0,5 -0.5,19 -0.5,14 -4.5,14 -4,0 -8,-28.5 -4,-28.5 -8,-69.5 -3,-44 -6,-72 -3,-28 -9,-46 -6,-18 -16,-29 -10,-11 -28,-22 -12,-7 -21.5,-15.5 -9.5,-8.5 -9.5,-11.5 z m 152,10 h -47 q -19,0 -33.5,2 -14.5,2 -14.5,8 0,3 3,5.5 3,2.5 5,2.5 3,0 9.5,7 6.5,7 11.5,18 5,10 10.5,16.5 5.5,6.5 7.5,6.5 2,0 10,-9.5 8,-9.5 17,-23.5 z m 261,26 q -7,-5 -17,-11 -10,-6 -12,-6 -4,0 -16,11 -12,11 -25,26.5 -13,15.5 -25,32.5 -12,17 -17,27 -9,18 -10,36 -1,18 -1,32 0,19 1,45 l 6,84 h 162 l 3,-96 q 1,-23 1,-43 0,-15 -1,-35.5 -1,-20.5 -6.5,-41 -5.5,-20.5 -15,-34.5 -9.5,-14 -27.5,-27 z m 118,-17 h -49 q -34,0 -37.5,2 -3.5,2 -3.5,4 0,4 7,13 5,5 11.5,14.5 6.5,9.5 9.5,14.5 5,10 10,10 1,0 5,-1.5 4,-1.5 22,-23.5 z m 179,14 q 0,-8 -13.5,-11 -13.5,-3 -33.5,-3 h -48 l 53,66 15,-24 q 5,-9 11,-15.5 6,-6.5 11,-6.5 5,0 5,-6 z m -378,6 q 0,-2 -13.5,-3.5 -13.5,-1.5 -51.5,-1.5 0,0 -1,0 0,0 0,0 h -1 q 0,0 0,0 h -1 q 0,0 0,0 h -13 q -14,0 -14,2 0,1 5,7 5,6 12,13 8,8 15,16.5 7,8.5 9,13.5 2,6 6,6 2,0 6,-2 4,-2 21,-22 0,0 1,-1 0,-1 1,-1 v -1 q 1,-1 1,-1 l 1,-1 q 0,0 1,-1 1,-1 1,-2 l 1,-1 q 0,0 0,0 l 1,-1 q 0,-1 1,-2 1,-1 1,-1 l 1,-1 q 0,0 1,-1 v -1 q 1,0 1,-1 1,-1 1,-1 7,-9 7,-11 z m -132,292 h -149 l 32,35 q 14,14 22.5,27.5 8.5,13.5 8.5,24.5 0,8 4,8 3,0 11,-6 8,-6 36,-44 z m 237,12 q 0,-6 -21,-9 -21,-3 -51,-3 h -72 l 28,33 q 11,14 21,29.5 10,15.5 14,25.5 4,10 8,10 1,0 4,-2 3,-2 18,-27 15,-24 26,-36.5 11,-12.5 16,-12.5 3,0 6,-3 3,-3 3,-5 z m 240,-12 h -153 l 31,35 q 14,14 23,27.5 9,13.5 9,22.5 0,10 7,10 2,0 8,-1.5 6,-1.5 15,-18.5 5,-10 15,-24 10,-14 19,-25 z"
     id="path1" />
</svg>
