<?xml version="1.0" encoding="UTF-8" standalone="no"?>
<svg
   width="2000"
   height="2000"
   version="1.1"
   id="svg1"
   sodipodi:docname="u1240F.svg"
   inkscape:version="1.3.2 (091e20e, 2023-11-25)"
   xmlns:inkscape="http://www.inkscape.org/namespaces/inkscape"
   xmlns:sodipodi="http://sodipodi.sourceforge.net/DTD/sodipodi-0.dtd"
   xmlns="http://www.w3.org/2000/svg"
   xmlns:svg="http://www.w3.org/2000/svg">
  <defs
     id="defs1" />
  <sodipodi:namedview
     id="namedview1"
     pagecolor="#505050"
     bordercolor="#eeeeee"
     borderopacity="1"
     inkscape:showpageshadow="0"
     inkscape:pageopacity="0"
     inkscape:pagecheckerboard="0"
     inkscape:deskcolor="#505050"
     inkscape:zoom="0.379"
     inkscape:cx="1000"
     inkscape:cy="998.68074"
     inkscape:window-width="1392"
     inkscape:window-height="1212"
     inkscape:window-x="0"
     inkscape:window-y="0"
     inkscape:window-maximized="0"
     inkscape:current-layer="svg1" />
  <path
     d="m 1259,683.5 q 3,-6 8,-7.5 5,-1.5 7,-1.5 4,0 4,5 0,7 -7.5,18.5 -7.5,11.5 -18.5,23.5 -13,16 -29.5,38.5 -16.5,22.5 -30.5,43.5 -14,21 -23.5,38 -9.5,17 -9.5,23 0,11 17,18 7,3 7,5 0,2 -4,6 -7,4 -7,9 0,2 2,7 2,5 21,20 14,12 29,21 15,9 21,12 10,2 19.5,13 9.5,11 16,23 6.5,12 7.5,17.5 1,5.5 1,6.5 0,7 -7,7 -12,0 -16,-15 -4,-10 -8,-10 0,0 -2.5,0.5 -2.5,0.5 -10.5,8.5 -13,11 -28,30.5 -15,19.5 -30,41.5 -15,22 -25.5,41 -10.5,19 -10.5,25 0,5 7,10 5,3 7.5,8.5 2.5,5.5 2.5,9.5 0,9 17.5,28 17.5,19 38.5,38 28,27 42,44 14,17 14,23 0,2 -1,3 -1,2 -3,2 -6,0 -20,-15 -9,-12 -28.5,-29 -19.5,-17 -41.5,-34 -22,-17 -41.5,-30.5 -19.5,-13.5 -31.5,-17.5 -9,-4 -30,-8 -21,-4 -42,-7 l -49,-5 49,-34 q 25,-16 58,-40.5 33,-24.5 62.5,-48 29.5,-23.5 50,-41.5 20.5,-18 20.5,-22 0,-3 -15.5,-16.5 -15.5,-13.5 -35.5,-27.5 -34,-24 -59,-34 -25,-10 -60,-17 l -62,-11 41,-24 q 22,-12 57,-38 35,-26 69.5,-53 34.5,-27 61,-49 26.5,-22 30.5,-32 z m -290,6 q 0,-6 8,-6 9,0 9,7 0,10 -24,38 -14,16 -27.5,35 -13.5,19 -26,37 -12.5,18 -22,34 -9.5,16 -12.5,24 -1,5 -1,9 0,11 8,19 9,6 9,15 0,2 -1,5 0,1 0,2 0,10 9.5,21 9.5,11 23.5,21 14,10 26,15 12,5 18,5 2,0 3,0 1,-2 3,-2 1,0 3.5,2 2.5,2 2.5,9 0,7 3.5,17 3.5,10 10.5,20 8,12 8,18 0,3 -1.5,4 -1.5,1 -3.5,1 -6,0 -16,-13 -8,-11 -14,-11 0,0 -3,0.5 -3,0.5 -15,10.5 -18,17 -35.5,42.5 -17.5,25.5 -28,49 -10.5,23.5 -12.5,34 -2,10.5 -2,13.5 0,10 8,10 5,0 5,5 0,3 -1,7 -1,4 -1,8 0,10 8,19 8,9 31,26 37,29 55,50 18,21 18,29 0,4 -3,6 -1,0 -2,0 -4,0 -10.5,-5.5 -6.5,-5.5 -13.5,-13.5 -11,-14 -36.5,-35.5 -25.5,-21.5 -57.5,-42.5 -37,-25 -59,-34.5 -22,-9.5 -56,-9.5 -34,0 -36.5,-4.5 -2.5,-4.5 -2.5,-5.5 0,-8 32,-27 20,-13 53.5,-36.5 33.5,-23.5 64.5,-47.5 31,-24 54,-44.5 23,-20.5 23,-24.5 0,-4 -13.5,-16 Q 915,966.5 895,953 875,939.5 855.5,927 836,914.5 824,909.5 813,906.5 793.5,902 774,897.5 755,894.5 l -44,-5 46,-29 q 23,-15 59,-41 36,-26 70,-53 34,-27 58.5,-48.5 24.5,-21.5 24.5,-28.5 z m 198,120 q 7,-11 12.5,-21.5 5.5,-10.5 5.5,-12.5 0,0 0,0 0,0 0,0 -2,0 -14,9.5 -12,9.5 -30,23.5 -17,13 -34,26 -17,13 -21,16 -16,12 -16,16 0,1 2.5,3.5 2.5,2.5 32.5,7.5 17,3 25,3 3,0 7,-1 4,-1 4,-9 0,-8 6.5,-23.5 6.5,-15.5 19.5,-37.5 z m -292,9 q 7,-10 13,-21 6,-11 6,-12 0,0 0,0 0,0 0,0 -5,1 -24,14.5 -19,13.5 -38.5,29.5 -19.5,16 -32.5,29.5 -13,13.5 -13,17.5 0,1 0,1 2,1 12,3.5 10,2.5 17,4.5 16,4 24,4 3,0 7,-1.5 4,-1.5 4,-9.5 0,-7 6.5,-23 6.5,-16 18.5,-37 z m 289,268 q 4,-6 8.5,-12 4.5,-6 4.5,-7 0,-1 -1,-1 -2,0 -19.5,12 -17.5,12 -47.5,35 -15,11 -25.5,19.5 -10.5,8.5 -13.5,12.5 -3,4 -3,6 0,1 2,2.5 2,1.5 14,5.5 18,6 29,6 5,0 12.5,-2.5 7.5,-2.5 12.5,-21.5 3,-11 10,-25 7,-14 17,-30 z m -293,12 q 6,-7 10,-14.5 4,-7.5 4,-8.5 0,0 0,0 -3,0 -20.5,12 -17.5,12 -41.5,31 l -58,43 31,7 q 18,4 30,4 8,0 16,-3.5 8,-3.5 8,-19.5 0,-9 5.5,-22.5 5.5,-13.5 15.5,-28.5 z"
     id="path1" />
</svg>
