<?xml version="1.0" encoding="UTF-8" standalone="no"?>
<svg
   width="2000"
   height="2000"
   version="1.1"
   id="svg1"
   sodipodi:docname="u12408.svg"
   inkscape:version="1.3.2 (091e20e, 2023-11-25)"
   xmlns:inkscape="http://www.inkscape.org/namespaces/inkscape"
   xmlns:sodipodi="http://sodipodi.sourceforge.net/DTD/sodipodi-0.dtd"
   xmlns="http://www.w3.org/2000/svg"
   xmlns:svg="http://www.w3.org/2000/svg">
  <defs
     id="defs1" />
  <sodipodi:namedview
     id="namedview1"
     pagecolor="#505050"
     bordercolor="#eeeeee"
     borderopacity="1"
     inkscape:showpageshadow="0"
     inkscape:pageopacity="0"
     inkscape:pagecheckerboard="0"
     inkscape:deskcolor="#505050"
     inkscape:zoom="0.379"
     inkscape:cx="1000"
     inkscape:cy="998.68074"
     inkscape:window-width="1392"
     inkscape:window-height="1212"
     inkscape:window-x="0"
     inkscape:window-y="0"
     inkscape:window-maximized="0"
     inkscape:current-layer="svg1" />
  <path
     d="m 671.5,642 q 0,-2 16.5,-2.5 16.5,-0.5 54.5,-0.5 38,0 100,0.5 62,0.5 159,2.5 49,1 91,2 42,1 66.5,1.5 24.5,0.5 38.5,0.5 15,0 33.5,-0.5 18.5,-0.5 40.5,-1.5 24,0 40.5,2 16.5,2 16.5,10 0,6 -5,6 -10,0 -29.5,40 -19.5,40 -39.5,97 -13,35 -18,55.5 -5,20.5 -8,51 -3,30.5 -4.5,80 -1.5,49.5 -3.5,132.5 -1,52 -2.5,96.5 -1.5,44.5 -3.5,77 -2,32.5 -3.5,51 -1.5,18.5 -3.5,18.5 -2,0 -4,-18.5 -2,-18.5 -3,-52.5 -1,-34 -1.5,-80.5 -0.5,-46.5 -0.5,-92.5 0,-62 -1,-112 -1,-50 -2.5,-90.5 -1.5,-40.5 -4,-69.5 -2.5,-29 -4.5,-40 -3,-18 -13.5,-43 -10.5,-25 -23,-47 -12.5,-22 -24,-37.5 -11.5,-15.5 -16.5,-15.5 -5,0 -15,18 -10,18 -22,45.5 -12,27.5 -24,62 -12,34.5 -20,64.5 -8,28 -12,50.5 -4,22.5 -6,53 -2,30.5 -3,75.5 -1,45 -1,109 0,109 -3,165 -3,56 -8,56 -5,0 -7.5,-66 -2.5,-66 -2.5,-174 0,-66 -1,-116 -1,-50 -2.5,-90.5 -1.5,-40.5 -3.5,-69.5 -2,-29 -5,-43 -3,-15 -13,-40 -10,-25 -22,-47 -12,-22 -24,-37.5 -12,-15.5 -18,-15.5 -5,0 -15,18 -10,18 -22,45.5 -12,27.5 -24,62 -12,34.5 -21,64.5 -7,28 -11,50 -4,22 -6,52.5 -2,30.5 -3,74 -1,43.5 -1,101.5 0,55 -1,94 -1,39 -2,67.5 -1,28.5 -2.5,45.5 -1.5,17 -3.5,18 0,0 0,0 -5,0 -8.5,-72 -3.5,-72 -5.5,-233 -1,-40 -1.5,-88.5 -0.5,-48.5 -1.5,-81.5 -1,-33 -3,-53.5 -2,-20.5 -5,-34.5 -3,-14 -7.5,-25.5 -4.5,-11.5 -11.5,-25.5 -11,-23 -25,-45.5 -14,-22.5 -26,-32.5 -6,-5 -12,-12 -6,-7 -6,-9 z m 351,26 q -42,-5 -56,-5.5 -14,-0.5 -17,-0.5 -15,0 -15,3 0,1 9.5,19.5 9.5,18.5 21.5,43.5 13,23 21.5,47.5 8.5,24.5 8.5,42.5 0,16 6,16 2,0 8,-3.5 6,-3.5 16,-39.5 6,-17 15,-40.5 9,-23.5 17,-39.5 l 18,-36 z m 213,0 q -42,-5 -56,-5.5 -14,-0.5 -17,-0.5 -15,0 -15,3 0,1 8.5,19.5 8.5,18.5 21.5,43.5 14,23 22,47.5 8,24.5 8,42.5 0,16 6,16 2,0 8,-3.5 6,-3.5 17,-39.5 5,-17 14.5,-40.5 9.5,-23.5 17.5,-39.5 l 18,-36 z m -379,0 q -2,-2 -22.5,-4 -20.5,-2 -46.5,-2 h -65 l 30,63 q 13,27 21.5,51.5 8.5,24.5 8.5,42.5 0,16 6,16 2,0 8,-4.5 6,-4.5 16,-39.5 6,-17 15.5,-40.5 9.5,-23.5 16.5,-39.5 8,-14 10.5,-24.5 2.5,-10.5 2.5,-14.5 0,-3 -1,-4 z"
     id="path1" />
</svg>
