<?xml version="1.0" encoding="UTF-8" standalone="no"?>
<svg
   width="2000"
   height="2000"
   version="1.1"
   id="svg1"
   sodipodi:docname="u1245A.svg"
   inkscape:version="1.3.2 (091e20e, 2023-11-25)"
   xmlns:inkscape="http://www.inkscape.org/namespaces/inkscape"
   xmlns:sodipodi="http://sodipodi.sourceforge.net/DTD/sodipodi-0.dtd"
   xmlns="http://www.w3.org/2000/svg"
   xmlns:svg="http://www.w3.org/2000/svg">
  <defs
     id="defs1" />
  <sodipodi:namedview
     id="namedview1"
     pagecolor="#505050"
     bordercolor="#eeeeee"
     borderopacity="1"
     inkscape:showpageshadow="0"
     inkscape:pageopacity="0"
     inkscape:pagecheckerboard="0"
     inkscape:deskcolor="#505050"
     inkscape:zoom="0.379"
     inkscape:cx="1000"
     inkscape:cy="998.68074"
     inkscape:window-width="1392"
     inkscape:window-height="1212"
     inkscape:window-x="0"
     inkscape:window-y="0"
     inkscape:window-maximized="0"
     inkscape:current-layer="svg1" />
  <path
     d="m 871.49999,643.99998 q 0,-11 4,-12 4,-1 6,-1 8,0 23,5 6,1 18.5,2 12.5,1 28.5,2 16,1 33.5,1.5 17.50001,0.5 42.50001,0.5 27,0 51,0.5 24,0.5 24,2.5 0,1 -11.5,14.5 -11.5,13.5 -23.5,25.5 -22,22 -36.5,44.5 -14.5,22.5 -19.5,38.5 -4,15 -6.5,49.5 -2.5,34.5 -2.5,79 0,44.5 1.5,93 1.5,48.50002 4.5,91.50002 l 6,75 97,24 q 40,10 71.5,17.5 31.5,7.5 35.5,9.5 1,0 1,0 7,0 9.5,-27 2.5,-27 2.5,-102 0,-47 -1,-76.5 -1,-29.50002 -3.5,-52.50002 -2.5,-23 -7.5,-44 -5,-21 -12,-43 -6,-21 -13,-40 -7,-19 -14.5,-38 -7.5,-19 -15.5,-35.5 -8,-16.5 -18,-34.5 -7,-14 -15.5,-30.5 -8.5,-16.5 -8.5,-17.5 0,-1 16.5,-1 16.5,0 41.5,0.5 25,0.5 54.5,1.5 29.5,1 55,2.5 25.5,1.5 43,3 17.5,1.5 18.5,2.5 0,0 0,1 0,3 -5.5,11 -5.5,8 -13.5,16 -14,14 -28,37 -14,23 -23,42 -10,19 -14.5,34 -4.5,15 -6.5,39 -2,24 -3,63 -1,39 -3,103.00002 -1,53 -1.5,77.5 -0.5,24.5 -0.5,36.5 0,18 1,36 1,18 6.5,30 5.5,12 17,19 11.5,7 30.5,12 19,5 47,13 29,7 48.5,14.5 19.5,7.5 19.5,12.5 0,2 -1.5,4 -1.5,2 -6.5,2 -2,0 -7.5,-0.5 -5.5,-0.5 -22.5,-4.5 -17,-4 -43,-12 -32,-9 -50.5,-13 -18.5,-4 -24.5,-4 -2,0 -3,1 -2,2 -3,16 -1,14 -1,23 0,13 1,27 1,15 1,26 0,32 -7,32 0,0 -5,-1.5 -5,-1.5 -10,-64.5 -2,-27 -5.5,-48.5 -3.5,-21.5 -5.5,-23.5 -1,-1 -16,-5.5 -15,-4.5 -40,-11 -25,-6.5 -58,-15 -33,-8.5 -75,-18.5 -53.00001,-13 -91.00001,-21.5 -38,-8.5 -65.5,-13 -27.5,-4.5 -44,-5.5 -16.5,-1 -28.5,-1 -13,0 -27,1 -24,1 -42.5,3 -18.5,2 -34,5.5 -15.5,3.5 -31,9.5 -15.5,6 -38.5,18 -20,11 -37,17.5 -17,6.5 -21,6.5 -2,0 -2,0 0,0 0,-1 0,-5 8,-27.5 8,-22.5 21,-54.5 8,-19 15,-38 7,-19 13,-38 6,-19 10.5,-35.5 4.5,-16.50002 8.5,-32.50002 4,-18 9,-35.5 5,-17.5 7,-19.5 0,0 0,0 1,0 13.5,12 12.5,12 24.5,26 25,29 65.5,61.50002 40.5,32.5 83.5,61.5 43,29 79.5,49 36.5,20 51.5,20 0,0 0,0 0,0 0,-1 0,0 0,0 0,0 0,-1 0,0 0,-1 0,0 0,0 0,-1 0,-1 v -9 q 0,0 0,-1 0,-1 0,-2 v -2 q 0,-1 0,-2 v -1 q 0,-1 0,-1 v -1 q 0,-1 0,-1 v -1 q 0,0 0,-1 v -2 q 0,0 0,-1 v -16 q 0,-21 -1,-49 -1,-28 -2,-58.00002 -1,-45 -3,-76.5 -2,-31.5 -4.5,-55 -2.5,-23.5 -6.5,-40.5 -4,-17 -10,-33 -7,-17 -18.5,-39.5 -11.5,-22.5 -23.5,-42 -12,-19.5 -22.5,-34 -10.5,-14.5 -16.5,-16.5 -8,-3 -8,-16 z m 173.00001,20 q -3,-3 -20.5,-4.5 -17.5,-1.5 -33.50001,-1.5 -5,0 -19,0.5 -14,0.5 -32,2.5 -18,2 -18,6 0,3 8.5,21.5 8.5,18.5 19.5,38 11,19.5 21,35.5 10,16 13,16 3,0 7,-6.5 4.00003,-6.5 6.00003,-15.5 2,-12 10.49998,-27.5 8.5,-15.5 19.5,-28.5 10,-12 14.5,-20 4.5,-8 4.5,-12 0,-3 -1,-4 z m 258,29 q 0,-2 -21,-3.5 -21,-1.5 -50,-1.5 -28,0 -48.5,1.5 -20.5,1.5 -20.5,3.5 0,2 5,14.5 5,12.5 13,27.5 8,16 17.5,40 9.5,24 14.5,41 11,35 17,39 6,4 7,4 6,0 6,-16 0,-18 8.5,-42.5 8.5,-24.5 25.5,-56.5 8,-14 17,-32 9,-18 9,-19 z M 728.49999,1005 q -16,-16.00002 -30,-26.00002 -14,-10 -17,-10 -2,0 -7,10 -5,10 -7,23.00002 -3,15 -11,42.5 -8,27.5 -19,53.5 -10,25 -14,39 -4,14 -4,18 0,4 2,4 3,0 16.5,-4.5 13.5,-4.5 22.5,-8.5 24,-10 58.5,-17 34.5,-7 67.5,-9 l 81,-6 -50,-36 q -20,-14 -46,-35 -26,-21 -43,-38 z"
     id="path1" />
</svg>
