<?xml version="1.0" encoding="UTF-8" standalone="no"?>
<svg
   width="2000"
   height="2000"
   version="1.1"
   id="svg1"
   sodipodi:docname="u1246A.svg"
   inkscape:version="1.3.2 (091e20e, 2023-11-25)"
   xmlns:inkscape="http://www.inkscape.org/namespaces/inkscape"
   xmlns:sodipodi="http://sodipodi.sourceforge.net/DTD/sodipodi-0.dtd"
   xmlns="http://www.w3.org/2000/svg"
   xmlns:svg="http://www.w3.org/2000/svg">
  <defs
     id="defs1" />
  <sodipodi:namedview
     id="namedview1"
     pagecolor="#505050"
     bordercolor="#eeeeee"
     borderopacity="1"
     inkscape:showpageshadow="0"
     inkscape:pageopacity="0"
     inkscape:pagecheckerboard="0"
     inkscape:deskcolor="#505050"
     inkscape:zoom="0.379"
     inkscape:cx="1000"
     inkscape:cy="998.68074"
     inkscape:window-width="1392"
     inkscape:window-height="1212"
     inkscape:window-x="0"
     inkscape:window-y="0"
     inkscape:window-maximized="0"
     inkscape:current-layer="svg1" />
  <path
     d="m 1118,645.5 q 1,-4 3,-5 2,-1 10,-1 8,0 9,0.5 1,0.5 1,2.5 0,1 -1,4 -2,8 -6,16 -4,8 -12,18 -5,5 -10,13 -5,8 -11,21 -3,7 -6.5,14.5 -3.5,7.5 -5.5,11.5 -15,27 -15,42 0,2 1,10.5 1,8.5 15,8.5 6,0 6,2 0,2 -3,5 -4,4 -4,9 0,8 15,18 10,7 29.5,22 19.5,15 33.5,28 7,7 9,7.5 2,0.5 2,0.5 3,0 8,-4 2,-2 12.5,-11 10.5,-9 22,-19 11.5,-10 21.5,-19 10,-9 13,-12 9,-8 14,-15 5,-7 6,-8 0,-7 12,-7 5,0 6.5,1 1.5,1 1.5,5 0,11 -16,32 -7,9 -12,18 -5,9 -7,14 -3,6 -8,15.5 -5,9.5 -9,17.5 -11,19 -12.5,24.5 -1.5,5.5 -1.5,9.5 0,5 2,12 2,8 5,10 3,2 9,2 7,0 7.5,1.5 0.5,1.5 0.5,1.5 0,2 -4,5 -5,3 -5,8 0,4 4,8.5 4,4.5 24,19.5 18,13 35.5,27.5 17.5,14.5 32.5,30.5 l 18,19 -7,5 q -7,6 -9,6 -1,0 -9,-8 0,0 0,0 l -3,-3 q 0,0 0,0 l -3,-3 q 0,0 0,0 l -3,-3 q 0,0 0,0 l -3,-3 q 0,0 0,0 l -3,-3 q 0,0 0,0 -16,-15 -33.5,-29 -17.5,-14 -35,-27 -17.5,-13 -32.5,-23 -15,-10 -22,-12 -10,-4 -10,-5 0,0 0,0 0,0 0,0 0,-1 -11,-5 -16,-4 -21,-4 0,0 -2,0.5 -2,0.5 -7,5.5 -2,3 -6,8.5 -4,5.5 -7,12 -3,6.5 -6.5,13 -3.5,6.5 -4.5,9.5 -2,6 -10,20 -11,17 -12,23 -1,6 -1,9 0,7 2,14 2,7 4,9 2,2 10,3 7,1 7.5,1.5 0.5,0.5 0.5,1.5 0,0 -2,2 -7,4 -7,10 0,5 6,10.5 6,5.5 23,18.5 14,11 26,21 12,10 23,19.5 11,9.5 19,17.5 8,8 12,13 2,3 2,4 0,1 -0.5,1.5 -0.5,0.5 -6.5,5.5 -6,5 -7,5 -2,0 -5,-4 -3,-4 -5,-6 -11,-13 -30,-29 -19,-16 -40.5,-32 -21.5,-16 -40,-28 -18.5,-12 -30.5,-16 -7,-3 -7,-5 0,0 0,0 0,0 0,0 0,-2 -6.5,-3.5 -6.5,-1.5 -30.5,-4.5 -13,-2 -24,-3.5 -11,-1.5 -17,-3.5 l -13,-2 15,-10 q 6,-3 14.5,-8 8.5,-5 13.5,-8 l 13,-7 -9,-8 q -17,-14 -35.5,-28.5 -18.5,-14.5 -35,-26 -16.5,-11.5 -29,-19 -12.5,-7.5 -21.5,-10.5 -4,-1 -4,-1 0,0 0,0 0,0 0,-1 0,-3 -15,-6 -6,-1 -10,-1 -3,0 -5,1 -2,1 -6,7 -10,16 -16,50 0,7 -2.5,18.5 -2.5,11.5 -4.5,20.5 -6,17 -6,30 0,1 0.5,8.5 0.5,7.5 8.5,24.5 3,6 5,12 2,6 3,7 0,5 15,10 6,2 7.5,3 1.5,1 1.5,2 0,1 -1,2 -1,1 -1,4 0,3 2.5,9.5 2.5,6.5 5.5,6.5 1,0 1,2 0,4 10.5,12.5 10.5,8.5 28.5,21.5 26,19 52.5,39.5 26.5,20.5 50,40 23.5,19.5 40.5,35.5 17,16 23,23 l 4,7 -5,8 -7,5 -26,-24 q -21,-20 -42.5,-38.5 -21.5,-18.5 -40.5,-33.5 -21,-17 -45.5,-35 -24.5,-18 -48.5,-35 -24,-17 -42.5,-29.5 -18.5,-12.5 -27.5,-15.5 -5,-2 -5,-4 0,-3 -11.5,-8.5 -11.5,-5.5 -24.5,-9.5 -3,-1 -13,-4.5 -10,-3.5 -24.5,-7.5 -14.5,-4 -30,-8.5 -15.5,-4.5 -23.5,-6.5 -15,-5 -15,-7 0,-2 10,-4 13,-6 32,-18 19,-12 31,-21 10,-8 27,-23.5 17,-15.5 35.5,-32.5 18.5,-17 33.5,-32 l 15,-15 q 0,-2 -18,-5 l -19,-3 23,-14 q 10,-5 18,-10.5 8,-5.5 10,-7.5 1,-1 2,-1.5 1,-0.5 2,-1.5 l 2,-2 q 2,0 20.5,-14.5 18.5,-14.5 40,-33 21.5,-18.5 38,-33.5 16.5,-15 16.5,-18 0,0 0,0 0,-2 -12,-6 l -12,-2 21,-12 q 10,-6 19.5,-12 9.5,-6 20.5,-14 11,-8 24.5,-19 13.5,-11 27.5,-23 41,-35 54,-48.5 13,-13.5 14,-21.5 z m -41,75 q 0,0 0,0 0,0 0,0 0,0 0,0 0,0 0,0 0,0 0,0 -1,0 -1,0 0,0 0,-1 0,0 -1,0 0,0 0,0 -1,0 -1,1 0,1 1,1 2,0 2,-1 z m -11,19 q 3,-7 5.5,-11.5 2.5,-4.5 2.5,-5.5 l -12,9 q -5,5 -15.5,13.5 -10.5,8.5 -22.5,17.5 -8,7 -15.5,13.5 -7.5,6.5 -7.5,7.5 0,1 16,4 7,1 14,3 7,2 14,5 2,1 4.5,1.5 2.5,0.5 3.5,0.5 2,0 2,0 1,-1 1,-3 0,-3 -1,-6 -2,-5 -2,-11 0,-17 13,-38 z m -51,69 q -5,-1 -11.5,-2 -6.5,-1 -8.5,-2 -7,0 -12,8 -1,1 -4,5.5 -3,4.5 -6,7.5 -4,4 -8,11.5 -4,7.5 -6,12.5 -3,6 -9,17.5 -6,11.5 -11,21.5 -8,15 -9.5,20 -1.5,5 -1.5,11 0,3 0,7 1,12 4,15 3,3 11,3 7,0 7,2.5 0,2.5 -5,5.5 -6,3 -6,7 0,2 2.5,6 2.5,4 26.5,22 11,8 24.5,18.5 13.5,10.5 21.5,18.5 12,10 14,11 2,1 3,1 2,0 4,-1 3,-2 17.5,-14 14.5,-12 29.5,-25.5 15,-13.5 26.5,-24 11.5,-10.5 11.5,-11.5 0,0 0,0 -1,-1 -4.5,-1.5 -3.5,-0.5 -9.5,-2.5 l -13,-2 18,-10 q 8,-5 17,-10.5 9,-5.5 16,-10.5 7,-5 12,-9 5,-4 5,-5 0,-3 -17,-17 -17,-14 -38.5,-30 -21.5,-16 -41.5,-29 -20,-13 -30,-16 -6,-2 -6,-4 0,0 0,-1 0,-1 -3.5,-2 -3.5,-1 -9.5,-2 z m -87,58 q 0,-1 -2,-1 -1,0 -1,1 0,2 1,2 2,0 2,-2 z m -3,4 q 0,-1 0,-1 0,-1 -1,-1 0,0 -2,0.5 -2,0.5 -4,2.5 -2,3 -10.5,10.5 -8.5,7.5 -20.5,17.5 -27,22 -27,29 0,2 4,2 3,0 9,1.5 6,1.5 12,3.5 8,2 13,3 5,1 6,2 2,0 2,-5 0,0 0,-1 0,-1 0,-1 0,0 0,-1 0,0 0,-1 0,0 0,0 v -8 q 0,-10 1.5,-16.5 1.5,-6.5 7.5,-17.5 4,-7 6.5,-12.5 2.5,-5.5 3.5,-6.5 z m 295,31 q 2,-5 4,-9 2,-4 2,-6 0,0 0,-1 h 1 q 0,-1 0,-1 v -1 q 1,0 1,-1 0,0 0,0 0,-1 0,-1 h 1 q 0,-1 0,-1 0,0 0,0 -3,2 -5,4 -2,2 -5.5,5 -3.5,3 -8.5,7 -12,10 -13,12 -1,2 -1,4 0,2 1,5 3,3 3,4 0,0 -0.5,1 -0.5,1 -5.5,5 -6,5 -7,5.5 -1,0.5 -1,0.5 -2,0 -5,-4 -4,-4 -5,-4 0,0 -1,0.5 -1,0.5 -3,2.5 -9,7 -9,12 0,4 11,6 4,1 10.5,2.5 6.5,1.5 11.5,3.5 6,1 9,3 2,1 3,1 1,-1 1,-7 v -2 q 0,0 0,-1 0,0 0,0 0,-1 0,-1 0,0 0,-1 v -6 q 0,-1 0,-1 1,-11 2,-17 1,-6 9,-19 z m -411,108 q 2,-8 2.5,-11.5 0.5,-3.5 0.5,-5.5 0,-2 -1,-2 -4,5 -10,10 -5,4 -11.5,10 -6.5,6 -20.5,19 -9,9 -25.5,24 -16.5,15 -26.5,20 l -21,17 28,8 q 25,8 40,13 15,5 28,12 7,4 10.5,5 3.5,1 5.5,1 1,0 1,0 0,0 0,-1 0,-2 -1,-5.5 -1,-3.5 -4,-8.5 -7,-15 -7.5,-26 -0.5,-11 -0.5,-14 0,-16 5,-30 2,-7 4.5,-17.5 2.5,-10.5 3.5,-17.5 z m 274,32 q 7,-14 8.5,-18.5 1.5,-4.5 3.5,-7.5 l 3,-6 q 0,0 -7,5.5 -7,5.5 -15.5,13 -8.5,7.5 -16,14.5 -7.5,7 -8.5,8 -2,1 -2,4 0,3 3,8 2,2 2,4 0,0 -0.5,0.5 -0.5,0.5 -6.5,4.5 l -6,3 17,7 q 8,2 11.5,3 3.5,1 5.5,1 1,0 1,0 1,0 1,-5 0,0 0,-1 0,-1 0,-2 0,0 0,-1 0,0 0,0 v -1 q 0,0 0,0 v -5 q 0,0 0,-1 0,0 0,0 v -1 q 0,-4 0,-7 0,-6 1.5,-10.5 1.5,-4.5 4.5,-9.5 z m -53,32 q 4,0 4,-1 0,-1 -1,-2 -2,-2 -4,-2 -2,0 -5,2 -2,1 -2,2 0,1 1,1 1,0 3,0 2,0 4,0 z"
     id="path1" />
</svg>
