<?xml version="1.0" encoding="UTF-8" standalone="no"?>
<svg
   width="2000"
   height="2000"
   version="1.1"
   id="svg1"
   sodipodi:docname="u1243C.svg"
   inkscape:version="1.3.2 (091e20e, 2023-11-25)"
   xmlns:inkscape="http://www.inkscape.org/namespaces/inkscape"
   xmlns:sodipodi="http://sodipodi.sourceforge.net/DTD/sodipodi-0.dtd"
   xmlns="http://www.w3.org/2000/svg"
   xmlns:svg="http://www.w3.org/2000/svg">
  <defs
     id="defs1" />
  <sodipodi:namedview
     id="namedview1"
     pagecolor="#505050"
     bordercolor="#eeeeee"
     borderopacity="1"
     inkscape:showpageshadow="0"
     inkscape:pageopacity="0"
     inkscape:pagecheckerboard="0"
     inkscape:deskcolor="#505050"
     inkscape:zoom="0.379"
     inkscape:cx="1000"
     inkscape:cy="998.68074"
     inkscape:window-width="1392"
     inkscape:window-height="1212"
     inkscape:window-x="0"
     inkscape:window-y="0"
     inkscape:window-maximized="0"
     inkscape:current-layer="svg1" />
  <path
     d="m 752,638 q 0,-4 16,-5 16,-1 26,-1 21,0 50,2 18,0 45,1.5 27,1.5 57,2 30,0.5 60.5,2 30.5,1.5 57.5,1.5 54,2 94,3.5 40,1.5 43,4.5 0,1 0,2 0,5 -14,23 -27,29 -41,68 -14,39 -19,111 -1,20 -1,37 0,8 0.5,23 0.5,15 5.5,18 2,2 10,2 4,0 15,-1 11,-1 32,-6 29,-5 44,-5 4,0 9.5,0.5 5.5,0.5 5.5,3.5 0,3 -8,9 -9,4 -19.5,7 -10.5,3 -24.5,3 -55,0 -113,48 -58,48 -91,116 -12,25 -19.5,53 -7.5,28 -13.5,60 -6,32 -9.5,66 -3.5,34 -3.5,55 0,26 -8,26 -6,0 -6,-25 0,-15 2,-39 2,-28 2,-55 0,-14 -1,-41 -1,-27 -5.5,-67.5 Q 925,1100 919,1065.5 913,1031 905,1013 899,998 888.5,984 878,970 863,958 853,949 850.5,948.5 848,948 848,948 q -5,0 -12,8 -3,7 -6,7 0,0 -1.5,-1 -1.5,-1 -3,-12.5 -1.5,-11.5 -2,-34.5 -0.5,-23 -0.5,-61 0,-51 -1.5,-81.5 -1.5,-30.5 -7,-51 Q 809,701 800,688.5 791,676 775,664 766,656 759,648.5 752,641 752,638 Z m 131,21 q 0,0 0,0 0,-3 -12,-4.5 -12,-1.5 -30,-1.5 h -45 l 18,23 q 7,10 12.5,20.5 5.5,10.5 5.5,21.5 0,9 4,9 7,0 26,-30 9,-14 14,-24 1,-3 2,-5 l 1,-1 q 0,-1 1,-3 1,-1 1,-1 0,-1 0,-1 l 1,-1 q 0,0 0,0 0,-1 0,-1 z m 142,8 q 0,-2 -11,-3.5 -11,-1.5 -26,-2.5 -18,-2 -28.5,-2 -10.5,0 -10.5,3 0,1 1,2 0,1 5.5,11.5 Q 961,686 967,700 l 18,31 19,-30 q 9,-12 15,-21.5 6,-9.5 6,-12.5 z m 141,0 q 0,-3 -11,-4 -11,-1 -28,-1 h -39 l 38,68 21,-30 q 7,-12 13,-22 6,-10 6,-11 z m -234,12 q -13,-15 -21.5,-15 -8.5,0 -24.5,22 -26,39 -35.5,72 -9.5,33 -9.5,87 v 71 l 28,9 q 12,3 29.5,6.5 17.5,3.5 30.5,6.5 l 33,5 5,-69 q 3,-30 3,-56 0,-96 -38,-139 z m 177,85 q -3,-28 -9.5,-45.5 Q 1093,701 1075,682 q -12,-14 -15,-15 -3,-1 -4,-1 -5,0 -16,13 -24,27 -36.5,66.5 Q 991,785 986,850 q -2,25 -2,46 0,6 0.5,22.5 0.5,16.5 3.5,19.5 3,2 21,2 18,0 40,-2 l 54,-6 6,-55 q 3,-26 3,-57.5 0,-31.5 -3,-55.5 z m -22,191 q 0,-2 -29,-2 h -5 q -2,0 -3,0 h -5 q -2,1 -4,1 h -2 q 0,0 -1,-1 h -4 q -1,0 -3,0 h -2 q -1,0 -2,0 H 893 l 18,35 q 8,15 17,42.5 9,27.5 13,53.5 l 9,61 30,-52 q 12,-21 31.5,-49 19.5,-28 45.5,-55 7,-7 18.5,-19 11.5,-12 11.5,-15 z"
     id="path1" />
</svg>
