<?xml version="1.0" encoding="UTF-8" standalone="no"?>
<svg
   width="2000"
   height="2000"
   version="1.1"
   id="svg1"
   sodipodi:docname="u12469.svg"
   inkscape:version="1.3.2 (091e20e, 2023-11-25)"
   xmlns:inkscape="http://www.inkscape.org/namespaces/inkscape"
   xmlns:sodipodi="http://sodipodi.sourceforge.net/DTD/sodipodi-0.dtd"
   xmlns="http://www.w3.org/2000/svg"
   xmlns:svg="http://www.w3.org/2000/svg">
  <defs
     id="defs1" />
  <sodipodi:namedview
     id="namedview1"
     pagecolor="#505050"
     bordercolor="#eeeeee"
     borderopacity="1"
     inkscape:showpageshadow="0"
     inkscape:pageopacity="0"
     inkscape:pagecheckerboard="0"
     inkscape:deskcolor="#505050"
     inkscape:zoom="0.379"
     inkscape:cx="1000"
     inkscape:cy="998.68074"
     inkscape:window-width="1392"
     inkscape:window-height="1212"
     inkscape:window-x="0"
     inkscape:window-y="0"
     inkscape:window-maximized="0"
     inkscape:current-layer="svg1" />
  <path
     d="m 1144.5,656.5 h 21 l -9,13 q -3,5 -9,11 l -14,14 q -21,20 -39.5,42.5 -18.5,22.5 -30.5,38.5 -8,11 -14,17 -20,26 -28,39 -8,13 -10,28 l -1,11 h 10 l 12,1 -10,7 q -8,5 -8,9 v 3 q 0,3 -2,5 0,0 0,0 0,0 0,0 0,0 0,0 0,0 0,0 0,0 0,0 0,0 0,0 0,1 0,1 0,0 -1,0 0,0 0,1 0,0 0,0 0,5 20,20 17,12 32,26.5 15,14.5 23,25.5 6,8 13.5,21 7.5,13 7.5,15 4,-1 12,-5 8,-4 17,-9.5 9,-5.5 16,-11.5 7,-6 8,-10 1,-5 7,-6 4,-2 8,-2 l 1,-1 q 3,0 3,7 0,12 -11,23.5 -11,11.5 -29,21.5 -11,5 -24,17.5 -13,12.5 -21,24.5 -6,7 -14,16.5 -8,9.5 -18,19.5 -13,13 -18,20.5 -5,7.5 -5,13.5 v 6 q 1,3 2.5,7 1.5,4 4.5,10 3,5 3,8 v 2 q -1,2 -1,4 12,0 12,10 v 2 q 0,-2 2,-2 3,0 5,2 5,2 7,9 0,3 4,5 5,2 5,5 0,3 10,8.5 10,5.5 45,22.5 44,23 75,39.5 31,16.5 56,32.5 14,9 32,21.5 18,12.5 25,19.5 l 8,7 h -27 l -19,-13 q -16,-11 -33,-22 -17,-11 -40,-24 -23,-13 -54,-29 -31,-16 -84,-42 -33,-16 -58,-28 -25,-12 -46,-19.5 -21,-7.5 -44,-12.5 -23,-5 -60,-11 l -11,-2 q -29,-5 -37,-7 -8,-2 -8,-6 v -11 l 24,-6 q 15,-4 37,-11.5 22,-7.5 45.5,-16 23.5,-8.5 46.5,-17.5 23,-9 39,-16 6,-4 20.5,-10.5 14.5,-6.5 28.5,-11.5 5,-2 8.5,-3 3.5,-1 7.5,-3 8,-4 13.5,-6 5.5,-2 5.5,-3 h 1 q 0,-2 -3,-8.5 -3,-6.5 -7,-13.5 -9,-14 -21,-25.5 -12,-11.5 -27,-25.5 -8,-5 -15.5,-11 -7.5,-6 -11.5,-9 -2,-2 -8,-6.5 -6,-4.5 -13,-9.5 -7,-6 -10,-7 -3,-1 -8,-1 -5,0 -8.5,-1.5 -3.5,-1.5 -4.5,-2.5 0,-2 3,-2 l 2,-1 q 0,-2 -12,-2 h -2 q 0,0 -1,0 -1,0 -2,0 h -2 q 0,0 -1,0 h -1 q 0,0 -1,0 h -1 q -1,0 -1,0 h -4 q 0,0 -1,0 h -18 q -1,0 -2,0 h -1 q -1,0 -2,0 h -3 l -56,-2 20,-10 q 13,-8 30.5,-20 17.5,-12 35.5,-25 18,-13 34.5,-26 16.5,-13 28.5,-23 5,-2 13.5,-9 8.5,-7 17.5,-14 18,-15 37,-29.5 19,-14.5 27,-21.5 9,-7 19,-16.5 10,-9.5 18,-15.5 z m -147,16 q 4,-7 7,-7 1,0 3,1 2,1 4,2 l 5,2 -6,12 q -10,20 -42,47 -18,15 -33,32.5 -15,17.5 -26,31.5 -8,10 -17,20.5 -9,10.5 -13,14.5 -27,30 -35.5,44 -8.5,14 -10.5,30 l -1,12 h 26 l -21,14 v 20 l 21,14 q 26,15 50.5,35 24.5,20 40.5,45 l 7,13 -8,3 q -4,2 -5,3 -2,1 -3,1 0,0 0,0 0,0 0,0 0,0 -1,-1 l -1,-1 q 0,0 0,0 l -1,-1 q 0,0 0,0 -18,-32 -48,-54 -30,-22 -61,-41 -16,-8 -28,-17 -9,-6 -11.5,-6.5 -2.5,-0.5 -10.5,-0.5 h -17 l 10,-7 -12,-1 h -9 q -1,0 -2,0 h -1 q -1,0 -2,0 h -9 q 0,0 0,0 h -2 q -9,0 -19,1 -12,0 -23,1 -11,1 -15,1 -5,0 -6.5,-1.5 -1.5,-1.5 -3.5,-7.5 0,-1 -0.5,-2 -0.5,-1 -0.5,-2 l -1,-3 q 3,-1 6,-3 2,-2 5.5,-4 3.5,-2 8.5,-5 12,-7 28.5,-17.5 16.5,-10.5 36.5,-24.5 20,-14 45.5,-32.5 25.5,-18.5 57.5,-42.5 17,-11 34,-24.5 17,-13.5 29,-21.5 8,-5 19.5,-14 11.5,-9 23.5,-19.5 12,-10.5 22.5,-20 10.5,-9.5 15.5,-18.5 z m 236,44 q 3,-4 6,-4 h 4 q 8,2 9,3 l 1,1 q 0,8 -12,19 -12,11 -17,16 -5,3 -13,11.5 -8,8.5 -13,13.5 -10,11 -18.5,21.5 -8.5,10.5 -15.5,18.5 -17,18 -19,29 0,6 2,7.5 2,1.5 8,1.5 l 12,1 -11,6 q -3,3 -5.5,5 -2.5,2 -2.5,3 0,3 -1,5 1,3 16,13 14,11 27,25 13,14 21,23 2,5 4.5,8.5 2.5,3.5 2.5,4.5 0,1 -7,4.5 -7,3.5 -9,3.5 -1,-1 -1,-3 -1,-1 -1.5,-2 -0.5,-1 -2.5,-3 -4,-8 -16,-20 -12,-12 -26.5,-24 -14.5,-12 -28.5,-21.5 -14,-9.5 -22,-10.5 -11,0 -11,-2 0,0 0,0 0,0 0,0.5 0,0.5 0,0.5 0,0 2,-4 -2,0 -4,-1 h -10 l -13,-1 q -7,-1 -14,-1 -1,0 -2,0 0,0 -1,0 h -1 q 0,0 -1,0 0,0 0,0 -1,0 -1,0 0,0 -1,0 0,0 -1,0 h -4 q 0,0 -1,0 h -1 l -25,-3 28,-15 q 9,-5 25.5,-14.5 16.5,-9.5 36,-22 19.5,-12.5 41,-27 21.5,-14.5 39.5,-27 18,-12.5 31,-23.5 13,-11 17,-16 z m -177,41 q 0,-1 1,-2 -2,1 -4,2 v 1 q -1,0 -2,1 -8,6 -17.5,14 -9.5,8 -18,15 -8.5,7 -11.5,9 -3,3 -13.5,11.5 -10.5,8.5 -23,17.5 -12.5,9 -24.5,17.5 -12,8.5 -25,18.5 -8,5 -8,6 h 1 q 4,0 7,-1 10,0 27.5,1 17.5,1 25.5,5 0,0 1,1 0,0 0,0 0,0 0,0 0,0 1,0 0,0 0,0 0,0 1,0 0,0 0,0 0,0 0.5,0.5 0.5,0.5 2.5,0.5 5,0 11,-8.5 6,-8.5 8,-14.5 0,-4 1.5,-9.5 1.5,-5.5 6.5,-17.5 0,0 0,0 0,-1 0,-1 1,0 1,0 0,0 0,-1 0,0 0,0 0,0 0,0 0,0 0,0 0,0 0,0 0,0 0,0 0,0 0,0 0,-3 9,-15 9,-12 23,-29 7,-7 12,-13.5 5,-6.5 7,-8.5 z m -168,32 q 4,-4 5,-6 l 2,-2 q -6,4 -12,10 -6,4 -14,9.5 -8,5.5 -16,11.5 -18,14 -37,28 -19,14 -37,26.5 -18,12.5 -32.5,22.5 -14.5,10 -26.5,18 -4,2 -8.5,5 -4.5,3 -4.5,4 4,0 10,-1 h 22 q 20,0 29,1 9,1 15,3 l 10,3 10,-8 q 8,-6 9.5,-8 1.5,-2 2.5,-9 3,-17 13,-33 10,-16 33,-42 8,-9 16.5,-18.5 8.5,-9.5 10.5,-14.5 z m 261,17 q 5,-6 7,-7 1,-2 2,-3 -8,4 -19,12 -9,7 -21.5,14.5 -12.5,7.5 -20.5,12.5 l -16,11 5,2 q 3,0 6,0.5 3,0.5 7,0.5 2,2 9,3 7,1 10,1 8,0 11,-13 3,-16 20,-34 z m -64,228 q 1,-1 1,-1 -3,1 -10,4 -12,5 -26.5,11 -14.5,6 -28.5,12 -14,6 -27,12 -3,1 -18,7.5 -15,6.5 -31.5,13 -16.5,6.5 -34,12.5 -17.5,6 -31.5,11 l -6,2 q -9,4 -15,4 11,1 31,4.5 20,3.5 41.5,8.5 21.5,5 41,10.5 19.5,5.5 32.5,10.5 4,2 5,2 2,0 4,-0.5 2,-0.5 4,-0.5 11,-3 11,-6 0,-2 -2,-5 -4,-9 -4,-24 0,0 0,0 0,0 0,0 0,0 0,0 0,-1 0,-1 0,0 0,0 v -2 q 0,0 0,0 0,0 0,-1 0,-3 2,-5 5,-16 28,-38 7,-6 13.5,-13.5 6.5,-7.5 10.5,-14.5 2,-3 4.5,-7 2.5,-4 4.5,-6 z"
     id="path1" />
</svg>
