<?xml version="1.0" encoding="UTF-8" standalone="no"?>
<svg
   width="2000"
   height="2000"
   version="1.1"
   id="svg1"
   sodipodi:docname="u12410.svg"
   inkscape:version="1.3.2 (091e20e, 2023-11-25)"
   xmlns:inkscape="http://www.inkscape.org/namespaces/inkscape"
   xmlns:sodipodi="http://sodipodi.sourceforge.net/DTD/sodipodi-0.dtd"
   xmlns="http://www.w3.org/2000/svg"
   xmlns:svg="http://www.w3.org/2000/svg">
  <defs
     id="defs1" />
  <sodipodi:namedview
     id="namedview1"
     pagecolor="#505050"
     bordercolor="#eeeeee"
     borderopacity="1"
     inkscape:showpageshadow="0"
     inkscape:pageopacity="0"
     inkscape:pagecheckerboard="0"
     inkscape:deskcolor="#505050"
     inkscape:zoom="0.379"
     inkscape:cx="1000"
     inkscape:cy="998.68074"
     inkscape:window-width="1392"
     inkscape:window-height="1212"
     inkscape:window-x="0"
     inkscape:window-y="0"
     inkscape:window-maximized="0"
     inkscape:current-layer="svg1" />
  <path
     d="m 1353,662.5 q 0,-6 10,-6 11,0 11,8 0,2 -3,11 -3,9 -27,33 -14,15 -33.5,37.5 -19.5,22.5 -36,45 -16.5,22.5 -27.5,40.5 -11,18 -11,25 0,4 3.5,8.5 3.5,4.5 8.5,4.5 9,0 9,11 0,11 13.5,24 13.5,13 32.5,24 39,25 66,48 27,23 27,31 0,3 -3,3 -4,0 -15.5,-6 -11.5,-6 -33.5,-22 -26,-18 -34,-21 -8,-3 -11,-3 -5,0 -8,5 -2,7 -12,19.5 -10,12.5 -22,23.5 -16,16 -33,36 -17,20 -30.5,39 -13.5,19 -22.5,34.5 -9,15.5 -9,26.5 0,12 10,19 5,2 6,6.5 1,4.5 1,6.5 0,3 -1,5 -1,1 -1,3 0,6 11,15.5 11,9.5 34,21.5 16,9 36,22 20,13 34.5,25 14.5,12 21.5,20 7,8 7,11 0,1 0,1 -1,1 -2,1 -5,0 -25.5,-11 -20.5,-11 -46.5,-29 -32,-21 -63.5,-37.5 -31.5,-16.5 -61,-29 -29.5,-12.5 -55,-19.5 -25.5,-7 -47.5,-7 -27,0 -27,-10 0,0 0.5,-5.5 0.5,-5.5 31.5,-21.5 13,-7 33.5,-19.5 20.5,-12.5 44.5,-28 24,-15.5 50,-33 26,-17.5 48,-33 22,-15.5 38.5,-28 16.5,-12.5 22.5,-17.5 7,-8 12,-14.5 5,-6.5 5,-10.5 0,-7 -15.5,-16.5 -15.5,-9.5 -37.5,-19 -22,-9.5 -47,-17 -25,-7.5 -51,-10.5 -18,-2 -36.5,-6.5 -18.5,-4.5 -21.5,-7.5 0,-1 0,-2 0,-3 8,-10 8,-7 24,-16 12,-6 36.5,-21 24.5,-15 52.5,-34 28,-19 57,-39 29,-20 52.5,-37 23.5,-17 38,-29 14.5,-12 14.5,-18 z m -234,6 q 2,-5 4,-5 0,0 1.5,0.5 1.5,0.5 3.5,9.5 1,4 1,7 0,10 -5,20 -5,10 -16,21 -16,13 -34.5,34 -18.5,21 -34.5,41.5 -16,20.5 -26.5,37.5 -10.5,17 -10.5,25 0,5 3.5,12 3.5,7 9.5,11 6,4 6,8 0,1 -1,3 -1,1 -1,3 0,7 18.5,22.5 18.5,15.5 49.5,35.5 31,21 53,38.5 22,17.5 22,24.5 0,3 -1.5,4.5 -1.5,1.5 -2.5,1.5 -3,0 -8,-2.5 -5,-2.5 -17.5,-11 -12.5,-8.5 -26.5,-18.5 -32,-24 -61,-40 -29,-16 -57.5,-29 -28.5,-13 -55,-21 -26.5,-8 -49.5,-11 -21,-4 -36,-8 -15,-4 -15,-6 0,-3 13,-12.5 13,-9.5 36,-22.5 27,-15 67.5,-41 40.5,-26 77,-52 36.5,-26 63,-47 26.5,-21 30.5,-33 z m -249,29 q 7,-7 15.5,-13.5 8.5,-6.5 14.5,-6.5 6,0 6,6 0,2 -2,9 -2,7 -17,21 -12,11 -32,34.5 -20,23.5 -40,48.5 -33,44 -40,61 -7,17 -7,23 0,10 11,10 11,0 11,11 0,12 18,27 18,15 41,29 23,14 42.5,22.5 19.5,8.5 32.5,8.5 5,0 9,-1 3,-1 5,-1 4,0 4.5,1.5 0.5,1.5 0.5,2.5 0,5 -6,17 -7,15 -14,23.5 -7,8.5 -12,8.5 -6,0 -22.5,17.5 -16.5,17.5 -34,40 -17.5,22.5 -30.5,44 -13,21.5 -13,32.5 0,5 2.5,10 2.5,5 7.5,5 7,0 7,10 0,2 0,5 0,5 19.5,23 19.5,18 46.5,36 31,21 51.5,40.5 20.5,19.5 23.5,33.5 1,2 1,4 0,3 -2,3 -1,0 -5,-2 -4,-2 -20,-17 -28,-26 -61.5,-47.5 -33.5,-21.5 -69.5,-39 -36,-17.5 -69.5,-28.5 -33.5,-11 -60.5,-11 -14,0 -27.5,-2.5 -13.5,-2.5 -13.5,-5.5 0,-5 29,-24.5 29,-19.5 89,-57.5 35,-22 65.5,-41.5 30.5,-19.5 44,-31 13.5,-11.5 13.5,-18.5 0,-7 -7,-15 -10,-12 -36,-28.5 -26,-16.5 -57,-31.5 -31,-15 -62.5,-25.5 -31.5,-10.5 -58.5,-12.5 -18,-2 -36.5,-6.5 -18.5,-4.5 -20.5,-7.5 0,0 0,-1 0,-4 16.5,-17.5 16.5,-13.5 57.5,-38.5 24,-15 57.5,-36.5 33.5,-21.5 60.5,-40.5 27,-19 46,-33.5 19,-14.5 28,-25.5 z m 370,100 q 12,-16 12,-20 0,-2 -2,-2 -1,0 -7.5,1.5 -6.5,1.5 -53.5,33.5 -40,27 -44.5,32.5 -4.5,5.5 -4.5,7.5 0,6 15,12 16,6 31,6 5,0 17,-1.5 12,-1.5 12,-16.5 0,-9 6.5,-23 6.5,-14 18.5,-30 z m -243,21 q 7,-12 8.5,-17.5 1.5,-5.5 1.5,-6.5 0,-3 -2,-3 -1,0 -1,0 -4,0 -21,10 -17,10 -35.5,22.5 -18.5,12.5 -33.5,24 -15,11.5 -16,15.5 0,1 0,1 0,4 10,7.5 10,3.5 28,5.5 9,1 16,1 8,0 15.5,-2 7.5,-2 10.5,-13 2,-5 7.5,-18.5 5.5,-13.5 11.5,-26.5 z m -225,1 q 12,-16 12,-21 0,-2 -2,-2 -1,0 -7,1.5 -6,1.5 -59,35.5 -22,15 -33,23 -11,8 -13,11 -2,3 -2,5 0,2 3,3.5 3,1.5 11,3.5 30,10 45,10 3,0 11.5,-1.5 8.5,-1.5 8.5,-16.5 0,-9 6.5,-23 6.5,-14 18.5,-29 z m 385,280 q 7,-14 10,-22.5 3,-8.5 3,-10.5 0,-1 0,-1 0,0 -1,0 -4,0 -19.5,10 -15.5,10 -36,24 -20.5,14 -37.5,27.5 -17,13.5 -18,17.5 0,1 0,1 0,4 10,7.5 10,3.5 27,5.5 9,1 16,1 8,0 15.5,-2 7.5,-2 10.5,-13 2,-5 8,-19 6,-14 12,-26 z m -350,27 q 7,-11 10.5,-18 3.5,-7 3.5,-9 0,-1 0,-1 0,0 -1,0 -4,0 -21,9.5 -17,9.5 -41,24.5 -37,25 -41,30 -4,5 -4,7 0,6 15,12 17,6 32,6 5,0 17.5,-1.5 12.5,-1.5 12.5,-17.5 0,-8 4.5,-20 4.5,-12 12.5,-22 z"
     id="path1" />
</svg>
