<?xml version="1.0" encoding="UTF-8" standalone="no"?>
<svg
   width="2000"
   height="2000"
   version="1.1"
   id="svg1"
   sodipodi:docname="u12401.svg"
   inkscape:version="1.3.2 (091e20e, 2023-11-25)"
   xmlns:inkscape="http://www.inkscape.org/namespaces/inkscape"
   xmlns:sodipodi="http://sodipodi.sourceforge.net/DTD/sodipodi-0.dtd"
   xmlns="http://www.w3.org/2000/svg"
   xmlns:svg="http://www.w3.org/2000/svg">
  <defs
     id="defs1" />
  <sodipodi:namedview
     id="namedview1"
     pagecolor="#505050"
     bordercolor="#eeeeee"
     borderopacity="1"
     inkscape:showpageshadow="0"
     inkscape:pageopacity="0"
     inkscape:pagecheckerboard="0"
     inkscape:deskcolor="#505050"
     inkscape:zoom="0.379"
     inkscape:cx="1000"
     inkscape:cy="998.68074"
     inkscape:window-width="1392"
     inkscape:window-height="1212"
     inkscape:window-x="0"
     inkscape:window-y="0"
     inkscape:window-maximized="0"
     inkscape:current-layer="svg1" />
  <path
     d="m 542.5,826 q 5,-22 12,-22 1,0 5.5,2.5 4.5,2.5 4.5,27.5 0,22 7,45.5 7,23.5 20,44.5 10,16 21.5,27 11.5,11 27,16.5 15.5,5.5 36.5,9 21,3.5 50,5.5 l 43,5 11,-91 q 7,-59 11,-59.5 4,-0.5 4,-0.5 7,0 13,36 5,27 12,45 7,18 32,43 10,10 17,15.5 7,5.5 18,8.5 11,3 27.5,4 16.5,1 44.5,1 h 80 l 5,-35 q 2,-7 3.5,-17 1.5,-10 3,-22 1.5,-12 3.5,-25 2,-13 4,-25 6,-48 10,-50 4,-2 5,-2 7,0 14,40 1,17 10.5,37.5 9.5,20.5 24.5,37.5 14,17 31,29.5 17,12.5 43,19.5 26,7 63.5,9.5 37.5,2.5 104.5,2.5 68,0 100.5,2.5 32.5,2.5 32.5,7.5 0,4 -28,7.5 -28,3.5 -66,3.5 -20,0 -43,-1 -22,-1 -40,-1 -18,0 -40,1 -22,1 -42,3.5 -20,2.5 -33.5,6 -13.5,3.5 -26.5,9.5 -18,8 -39,23 -21,15 -39.5,32.5 -18.5,17.5 -33,36 -14.5,18.5 -25.5,42.5 -15,33 -20,33.5 -5,0.5 -5,0.5 -6,0 -6,-13 0,-9 3,-25 2,-10 3.5,-21.5 1.5,-11.5 3.5,-24 2,-12.5 3.5,-25.5 1.5,-13 2.5,-24 l 7,-54 h -78 q -29,0 -45.5,0.5 -16.5,0.5 -27.5,4.5 -11,4 -19.5,12.5 -8.5,8.5 -20.5,21.5 -34,39 -52.5,71.5 -18.5,32.5 -18.5,55.5 0,10 -3,14.5 -3,4.5 -6,4.5 -2,0 -5,-2 -3,-1 -7,-4 -4,-3 -4,-6 0,-1 1,-2 1,-5 3,-32 2,-27 5,-62 l 8,-82 -54,-6 q -22,-4 -38,-4 -5,0 -16.5,1 -11.5,1 -25.5,10 -11,7 -25,22 -14,15 -26.5,32.5 -12.5,17.5 -23.5,36 -11,18.5 -19,40.5 -13,38 -19,38.5 -6,0.5 -6,0.5 -8,0 -8,-20 0,-9 2,-22 2,-10 4.5,-28 2.5,-18 4.5,-41 2,-23 4.5,-49.5 2.5,-26.5 4.5,-47.5 5,-56 11.5,-93 6.5,-37 8.5,-48 z m 44,121 q -10,-12 -15,-22.5 -5,-10.5 -9.5,-20.5 -4.5,-10 -7.5,-17 -3,-7 -4,-7 -1,0 -2,8.5 -1,8.5 -2.5,20.5 -1.5,12 -3,24.5 -1.5,12.5 -2.5,19.5 -2,19 -2.5,41.5 -0.5,22.5 -5.5,40.5 l -7,74 40,-68 q 7,-11 15,-20.5 8,-9.5 15.5,-17.5 7.5,-8 12.5,-13.5 5,-5.5 5,-7.5 0,-3 -10.5,-15.5 Q 592.5,954 586.5,947 Z m 574,40 q -10,-5 -24.5,-16 -14.5,-11 -28.5,-26 l -35,-50 -11,86 q -1,16 -5,38.5 -4,22.5 -8,44.5 -4,22 -7,39.5 -3,17.5 -5,21.5 l 60,-67 q 12,-10 26.5,-20 14.5,-10 27.5,-18 13,-8 23,-14 10,-6 13,-7 z m -327,-17 q -12,-16 -18.5,-25 -6.5,-9 -10,-14.5 -3.5,-5.5 -4.5,-9 -1,-3.5 -3,-3.5 -1,-1 -1,-1 -2,0 -4,12 -2,12 -3.5,33.5 -1.5,21.5 -3,46 -1.5,24.5 -4.5,43.5 l -7,54 44,-65 39,-43 z"
     id="path1" />
</svg>
