<?xml version="1.0" encoding="UTF-8" standalone="no"?>
<svg
   width="2000"
   height="2000"
   version="1.1"
   id="svg1"
   sodipodi:docname="u1242D.svg"
   inkscape:version="1.3.2 (091e20e, 2023-11-25)"
   xmlns:inkscape="http://www.inkscape.org/namespaces/inkscape"
   xmlns:sodipodi="http://sodipodi.sourceforge.net/DTD/sodipodi-0.dtd"
   xmlns="http://www.w3.org/2000/svg"
   xmlns:svg="http://www.w3.org/2000/svg">
  <defs
     id="defs1" />
  <sodipodi:namedview
     id="namedview1"
     pagecolor="#505050"
     bordercolor="#eeeeee"
     borderopacity="1"
     inkscape:showpageshadow="0"
     inkscape:pageopacity="0"
     inkscape:pagecheckerboard="0"
     inkscape:deskcolor="#505050"
     inkscape:zoom="0.379"
     inkscape:cx="1000"
     inkscape:cy="998.68074"
     inkscape:window-width="1392"
     inkscape:window-height="1212"
     inkscape:window-x="0"
     inkscape:window-y="0"
     inkscape:window-maximized="0"
     inkscape:current-layer="svg1" />
  <path
     d="m 1091.5,659 q 8,-11 14.5,-20.5 6.5,-9.5 8.5,-9.5 2,0 2,11 v 1 q 0,0 0,1 v 1 q 0,0 0,0 v 2 q 0,0 0,1 v 1 q 0,1 0,2 v 1 q 0,0 0,1 0,1 0,1 v 11 q 0,0 0,1 v 4 q 0,39 12,68 8,14 32,42 24,28 55.5,59 31.5,31 66,62 34.5,31 77.5,63 9,7 27,21 18,14 21,15 5,8 12,8 0,0 0,0 0,3 -29.5,26 -29.5,23 -70.5,50 -41,28 -68,48 -27,20 -52.5,41 -25.5,21 -52,45 -26.5,24 -55.5,52 -53,53 -82,78 -29,25 -37,25 -1,0 -2,-1 -2,-1 -4,-13 -2,-12 -5,-24 -4,-34 -23,-56.5 -19,-22.5 -66,-50.5 -28,-17 -62,-32.5 -34,-15.5 -70.5,-28.5 -36.5,-13 -71,-23.5 -34.5,-10.5 -58.5,-14.5 -29,-5 -29.5,-9.5 -0.5,-4.5 -0.5,-4.5 0,-9 18,-22 14,-12 25.5,-27.5 11.5,-15.5 20.5,-35.5 10,-22 11,-30.5 1,-8.5 1,-12.5 0,-14 -4,-36 -3,-21 -9,-48 -6,-27 -14,-47 -8,-19 -10.5,-31.5 -2.5,-12.5 -2.5,-16.5 0,-2 0,-2 1,-2 6,-2 4,0 14.5,2 10.5,2 28.5,5 53,12 95,12 8,0 36,-1.5 28,-1.5 106,-27.5 42,-14 54,-14 5,0 5,2 0,3 -5,7 -8,7 -20.5,11.5 -12.5,4.5 -26.5,7.5 -20,5 -42.5,13.5 -22.5,8.5 -45,18.5 -22.5,10 -43,21.5 -20.5,11.5 -34.5,22.5 -52,37 -61,71.5 -9,34.5 -9,51.5 0,32 18,60 16,23 50,52.5 34,29.5 73.5,56.5 39.5,27 77.5,45.5 38,18.5 63,20.5 4,0 9,0 30,0 77,-17 47,-17 115,-56 36,-20 75,-45 39,-25 76,-49 37,-24 64,-43 27,-19 27,-21 -4,-3 -9,-8 -5,-3 -11,-7.5 -6,-4.5 -14,-9.5 -15,-11 -40,-29.5 -25,-18.5 -40,-30.5 -45,-37 -106.5,-68 -61.5,-31 -129.5,-53 -33,-9 -52,-18.5 -19,-9.5 -19,-15.5 0,-8 20,-19 59,-43 93,-91 z m 15,51 q -6,-20 -9,-22 -3,-2 -4,-2 -6,0 -16,15 -9,12 -22.5,24.5 -13.5,12.5 -25.5,19.5 l -30,21 20,9 q 10,3 35.5,13 25.5,10 50.5,21 29,12 51.5,20.5 22.5,8.5 25.5,10.5 1,1 2,1 0,0 0,-1 0,-2 -6.5,-12 -6.5,-10 -15.5,-22 -22,-28 -36,-50.5 -14,-22.5 -20,-45.5 z m -378,124 q -22,-2 -42.5,-4 -20.5,-2 -30.5,-4 -6,-2 -10,-2 -6,0 -6.5,3 -0.5,3 -0.5,4 0,10 11,38 3,13 7.5,27.5 4.5,14.5 8.5,22.5 l 3,22 31,-33 q 12,-14 27.5,-28.5 15.5,-14.5 27.5,-22.5 l 28,-17 z m 398,49 q 7,-7 12,-9.5 5,-2.5 6,-2.5 4,0 4,6 0,2 -8.5,12.5 -8.5,10.5 -20.5,24.5 -39,45 -58,74.5 -19,29.5 -19,40.5 0,6 4,9 2,3 2,7 0,3 -1,6 0,1 0,2 0,5 5.5,11.5 5.5,6.5 15.5,14.5 23,14 39.5,31 16.5,17 16.5,23 0,2 -1,3 -1,1 -3,1 -3,0 -10.5,-5 -7.5,-5 -18.5,-16 -34,-31 -61.5,-42.5 -27.5,-11.5 -78.5,-14.5 -16,-2 -27,-2 -13,0 -16,2 -3,2 -3,4 0,6 17,17 12,8 23,17.5 11,9.5 20.5,18.5 9.5,9 13,14 3.5,5 3.5,7 0,2 -3,2 -9,0 -31,-20 -60,-57 -136,-57 -14,0 -27.5,-1.5 -13.5,-1.5 -13.5,-6.5 0,-3 4,-3 6,0 30,-17 24,-17 53.5,-40.5 29.5,-23.5 58,-46.5 28.5,-23 45.5,-40 9,-10 19.5,-18.5 10.5,-8.5 17.5,-8.5 5,0 5,3 0,7 -19,27 -15,15 -30,34.5 -15,19.5 -28,37.5 -13,18 -21.5,31 -8.5,13 -8.5,22 0,12 13,12 2,0 11,-1 9,-1 41,-25 14,-10 40.5,-31 26.5,-21 52,-42 25.5,-21 45.5,-39 20,-18 26,-26 z m -91,117 q 8,-17 8,-20 0,0 0,0 0,0 0,0 -1,0 -11.5,6.5 -10.5,6.5 -23.5,17.5 -13,11 -26.5,21 -13.5,10 -16.5,13 -1,1 -1,2 0,2 7.5,2.5 7.5,0.5 16.5,0.5 35,0 35,-11 0,-8 12,-32 z m -140,0 q 7,-10 7,-13 0,-2 -2,-2 -7,0 -43,29 l -36,29 h 31 q 17,0 23.5,-3 6.5,-3 6.5,-11 0,-6 3.5,-14 3.5,-8 9.5,-15 z m -223,57 q -3,-11 -8.5,-13 -5.5,-2 -7.5,-2 -4,0 -4,4 0,6 -7,16.5 -7,10.5 -18,20.5 l -23,27 30,7 q 12,4 34.5,10 22.5,6 42.5,11 l 45,14 -39,-38 q -17,-17 -29.5,-32.5 -12.5,-15.5 -15.5,-24.5 z m 389,219 q 33,-33 53,-54 20,-21 20,-24 0,0 0,0 -3,0 -20,8 -17,8 -31,14 -29,15 -56.5,23.5 -27.5,8.5 -42.5,11.5 -28,4 -32,6.5 -4,2.5 -4,4.5 0,3 6,8 7,6 11.5,18.5 4.5,12.5 7.5,26.5 l 9,32 z"
     id="path1" />
</svg>
