<?xml version="1.0" encoding="UTF-8" standalone="no"?>
<svg
   width="2000"
   height="2000"
   version="1.1"
   id="svg1"
   sodipodi:docname="U6.liga.svg"
   inkscape:version="1.3.2 (091e20e, 2023-11-25)"
   xmlns:inkscape="http://www.inkscape.org/namespaces/inkscape"
   xmlns:sodipodi="http://sodipodi.sourceforge.net/DTD/sodipodi-0.dtd"
   xmlns="http://www.w3.org/2000/svg"
   xmlns:svg="http://www.w3.org/2000/svg">
  <defs
     id="defs1" />
  <sodipodi:namedview
     id="namedview1"
     pagecolor="#505050"
     bordercolor="#eeeeee"
     borderopacity="1"
     inkscape:showpageshadow="0"
     inkscape:pageopacity="0"
     inkscape:pagecheckerboard="0"
     inkscape:deskcolor="#505050"
     inkscape:zoom="0.379"
     inkscape:cx="1000"
     inkscape:cy="998.68074"
     inkscape:window-width="1392"
     inkscape:window-height="1212"
     inkscape:window-x="0"
     inkscape:window-y="0"
     inkscape:window-maximized="0"
     inkscape:current-layer="svg1" />
  <path
     d="m 1670.9894,633.69921 q 4,-2 8,-2 6,0 10,4 4,4 4,9 0,5 -5,11 -8,11 -23.5,53.5 -15.5,42.5 -29.5,90.5 -9,34 -13,55 -4,21 -6,52 -2,31 -3.5,78 -1.5,46.99999 -2.5,106.99999 -1,62 -2.5,103 -1.5,41 -3.5,71.5 -2,30.5 -4,48 -2,17.5 -4,17.5 -3,0 -5,-23.5 -2,-23.5 -2,-57.5 v -79 l -138,4 q -29,2 -60.5,3 -31.5,1 -60.5,2 -29,1 -54,1 h -5 q -2,0 -4,0 h -1 q -1,0 -2,0 h -1 q -1,0 -2,0 h -4 q 0,0 -1,0 h -1 q -1,0 -1,0 h -18 q 0,0 -1,0 h -78 v 50 q 0,23 -2,33 -2,10 -5,10 0,0 -1,0 -3,-2 -6,-15 -3,-13 -3,-30 v -44 l -37,7 q -12,1 -18.5,2.5 -6.5,1.5 -9,5.5 -2.5,4 -3,12.5 -0.5,8.5 -1.5,18.5 -2,42 -10,42 0,0 -4.5,-0.5 -4.5,-0.5 -4.5,-38.5 0,-25 -2.5,-27.5 -2.5,-2.5 -10.5,-2.5 -6,0 -16,1 l -39.99995,9 -1,34 q 0,16 -2.5,25.5 -2.5,9.5 -4.5,10 -2,0.5 -2,0.5 -3,0 -5.5,-7.5 -2.5,-7.5 -2.5,-26.5 l -1,-32 -58,17 q -25,7 -38.5,11 -13.5,4 -19.5,4 -6,0 -6,-4 0,-4 2,-10 3,-10 5,-29.5 2,-19.5 2,-42.5 0,-16 1,-30 1,-14 5,-14 2,0 18,4.5 16,4.5 36,11.5 l 55,18 v -88 q 0,-26 -2,-48.5 -2,-22.49999 -6,-44.99999 -4,-22.5 -10.5,-47.5 -6.5,-25 -10.5,-38 -5,-20 -5,-29 0,-6 4,-8 4,-2 32,-2 22,0 35.49995,2 13.5,2 13.5,6 0,2 -4.5,14 -4.5,12 -7.5,19 -6.99995,17 -10.49995,26.5 -3.5,9.5 -6,23.5 -2.5,14 -4,34.5 -1.5,20.5 -1.5,52.49999 v 133 l 68.99995,9 v -77 q 0,-15 -1,-33 -1,-18 -3,-36 -2,-18 -4.5,-34.99999 -2.5,-17 -6.5,-33 -4,-22 -8,-42 -4,-20 -4,-23 0,-4 10.5,-5 10.5,-1 25.5,-1 14,0 24,1 10,1 10,3 0,2 -3.5,17.5 -3.5,15.5 -4.5,20.5 -9,38 -13,77.49999 -4,39.5 -4,75.5 v 87 h 70 v -60 q 0,-25 -4,-58 -4,-33 -12,-66.99999 -4,-16 -6.5,-28.5 -2.5,-12.5 -2.5,-18.5 0,-4 1.5,-9 1.5,-5 9.5,-6 8,-1 23,-1 26,0 29,2 3,2 3,6 0,6 -4,18 -5,16 -9,33.5 -4,17.5 -6.5,34.49999 -2.5,17 -3.5,36 -1,19 -1,44 v 74 h 105 q 21,0 48.5,-0.5 27.5,-0.5 56.5,-1.5 29,-1 58,-2.5 29,-1.5 53,-3.5 l 111,-4 V 985.69921 q 0,-35 -0.5,-66.5 -0.5,-31.5 -1.5,-55.5 -1,-24 -2.5,-39.5 -1.5,-15.5 -3.5,-17.5 -3,-5 -51.5,-9.5 -48.5,-4.5 -142.5,-8.5 -72,-2 -114.5,-2 -42.5,0 -74,1 -31.5,1 -56.5,4 -25,3 -54,8 -30,4 -60,10 -29.99995,6 -56.49995,12 -26.5,6 -48.5,12 -22,6 -28,8 -3,1 -6,1 -7,0 -8,-8 -1,-8 -1,-17 0,-17 2,-48 2,-25 4,-47 2,-22 4,-24 0,0 1,0 2,0 15.5,5.5 13.5,5.5 29.5,13.5 31,15 62,24.5 30.99995,9.5 75.99995,15.5 45,6 109,9.5 64,3.5 213,7.5 44,1 73,1.5 29,0.5 35,0.5 40,0 54.5,-5 14.5,-5 14.5,-15 0,-4 -5,-14.5 -5,-10.5 -25,-47.5 -9,-16 -17,-30.5 -8,-14.5 -8,-16.5 0,-1 20.5,-2 20.5,-1 48.5,-1 29,0 52.5,-2.5 23.5,-2.5 31.5,-8.5 z m -12,35 q 0,-3 -15.5,-4.5 -15.5,-1.5 -36.5,-1.5 -23,0 -38,2 -15,2 -15,6 0,3 3.5,13 3.5,10 8.5,21 7,9 13,23.5 6,14.5 8,21.5 9,26 20,26 15,0 34,-50 7,-21 12.5,-38 5.5,-17 5.5,-19 z m -1100.99995,45 q 0,-1 11.5,-1 11.5,0 28.5,0.5 17,0.5 37,1.5 20,1 37.5,1.5 17.5,0.5 30,1.5 12.5,1 13.5,2 0,2 -7.5,15.5 -7.5,13.5 -15.5,25.5 -13,22 -18.5,33.5 -5.5,11.5 -9,23.5 -3.5,12 -5.5,26 -2,14 -3,36 0,8 0,15 0,25 3,40.5 3,15.5 14,33.5 11,18 24,29 13,10.99999 33,16.49999 20,5.5 38,6 18,0.5 27,0.5 25,0 62,-2 33,-3 53,-3 8,0 22,1 14,1 14,6 0,9 -88,9 -29,0 -47,1 -18,1 -31,3.5 -13,2.5 -23,8 -10,5.5 -24,14.5 -22,14 -37,26 -15,12 -24,25 -9,13 -13.5,28 -4.5,15 -6.5,35 l -5,50 66,61 q 29,27 45.5,47 16.5,20 16.5,24 0,1 0,1 0,1 -1,1 -5,0 -26,-17 -21,-17 -55,-49 -29,-28 -65.5,-59.5 -36.5,-31.5 -70.5,-58.5 -34,-27 -62.5,-47 -28.5,-20 -46.5,-29 -15,-8 -36.5,-15 -21.5,-7 -36.5,-9 -13,-2 -24,-6 -11,-4 -16,-7.5 -5,-3.5 -5,-5.5 0,-1 1,-2.5 1,-1.5 10,-1.5 27,0 70,-27.5 43,-27.49999 98,-82.49999 25,-25 46.5,-43.5 21.5,-18.5 24.5,-18.5 1,0 1,0 1,0 1,1 0,3 -5.5,12.5 -5.5,9.5 -14.5,23.5 -7,11 -11.5,19.5 -4.5,8.5 -7,17 -2.5,8.5 -2.5,19 0,10.5 1,20.5 2,22.99999 11,50.49999 9,27.5 20,55 11,27.5 23.5,50 12.5,22.5 22.5,31.5 4,3 6,3 1,0 2.5,-0.5 1.5,-0.5 2.5,-12 1,-11.5 1,-28.5 0,-8 -0.5,-28 -0.5,-20 -0.5,-52 -2,-78.99999 -4.5,-119.99999 -2.5,-41 -8.5,-73 -6,-32 -16.5,-59 -10.5,-27 -26.5,-58 -6,-14 -11.5,-24 -5.5,-10 -5.5,-12 z m 440,44 q -27,-8 -50.5,-16.5 -23.5,-8.5 -29.5,-10.5 -5,-3 -8,-3 -4,0 -6,5.5 -2,5.5 -2,39.5 0,34 2,39.5 2,5.5 8,5.5 3,0 8,-1 5,-1 27.5,-6.5 22.5,-5.5 47.5,-10.5 24.99995,-5 42.99995,-10 18,-5 20,-7 0,0 0,0 0,-1 -17,-8 -17,-7 -42.99995,-17 z m -317,-17 q 0,-3 -14,-5 -14,-2 -34,-2 h -48 l 23,45 q 9,19 15,37 6,18 6,23 0,2 1,2 2,0 6,-7 4,-7 12,-26 6,-16 13.5,-31.5 7.5,-15.5 12.5,-20.5 3,-3 5,-8 2,-5 2,-7 z m 931.99995,83 q 1,-5 1,-11.5 0,-6.5 -1,-11.5 -1,-2 -2,-2 -3,0 -3,13 0,10 1,12.5 1,2.5 2,2.5 1,0 2,-3 z m -622.99995,51 q 0,-9 -15,-9 -17,0 -18,7.5 -1,7.5 -1,9.5 0,12 7,29 5,14 8,14 0,0 1.5,-0.5 1.5,-0.5 9.5,-20.5 8,-22 8,-30 z m 79.99995,40 q 0,-10 -4.5,-12.5 -4.5,-2.5 -7.5,-2.5 -3,0 -6,3 -4,4 -4,12 0,8 2,18 2,13 3.5,14 1.5,1 2.5,1 2,0 5,-4 3,-6 6,-14 3,-8 3,-15 z m 87,33 q 0,-12 -13,-12 -11,0 -11,9 0,3 2,8 1,4 3,10.5 2,6.5 2,10.5 0,5 2,5 0,0 1.5,-1 1.5,-1 5,-6 3.5,-5 6,-12 2.5,-7 2.5,-12 z M 538.98945,1054.6992 q -6,-18 -10.5,-39.5 -4.5,-21.49999 -6.5,-34.49999 l -3,-28 -31,31 q -13,14 -30.5,28.49999 -17.5,14.5 -29.5,22.5 l -29,17 50,25 q 20,11 44,25.5 24,14.5 50,34.5 28,22 31,22.5 3,0.5 3,0.5 2,0 2,-2 0,-6 -9,-24 -8,-16 -17,-38.5 -9,-22.5 -14,-40.5 z m 162,-32 q -11,-7 -21,-15.5 -10,-8.49999 -15,-15.49999 -3,-5 -4,-5 -2,0 -3.5,6.5 -1.5,6.5 -1.5,41.49999 v 60 l 34,-28 36,-27 z m 223,137 q -20,-7 -28.5,-9 -8.5,-2 -12.5,-2 -5,0 -9,2 -4,2 -5.5,11 -1.5,9 -1.5,26 v 41 l 29,-6 68,-18 1,-31 z m 59,18 v 21 l 33.99995,-11 z"
     id="path1" />
</svg>
