<?xml version="1.0" encoding="UTF-8" standalone="no"?>
<svg
   width="2000"
   height="2000"
   version="1.1"
   id="svg1"
   sodipodi:docname="UKU2.liga.svg"
   inkscape:version="1.3.2 (091e20e, 2023-11-25)"
   xmlns:inkscape="http://www.inkscape.org/namespaces/inkscape"
   xmlns:sodipodi="http://sodipodi.sourceforge.net/DTD/sodipodi-0.dtd"
   xmlns="http://www.w3.org/2000/svg"
   xmlns:svg="http://www.w3.org/2000/svg">
  <defs
     id="defs1" />
  <sodipodi:namedview
     id="namedview1"
     pagecolor="#505050"
     bordercolor="#eeeeee"
     borderopacity="1"
     inkscape:showpageshadow="0"
     inkscape:pageopacity="0"
     inkscape:pagecheckerboard="0"
     inkscape:deskcolor="#505050"
     inkscape:zoom="0.379"
     inkscape:cx="1000"
     inkscape:cy="998.68074"
     inkscape:window-width="1392"
     inkscape:window-height="1212"
     inkscape:window-x="0"
     inkscape:window-y="0"
     inkscape:window-maximized="0"
     inkscape:current-layer="svg1" />
  <path
     d="m 712,677 q 0,-21 2,-33.5 2,-12.5 9,-12.5 4,0 4,4 0,5 12.5,12.5 12.5,7.5 30,16 17.5,8.5 37,15.5 19.5,7 30.5,9 10,2 35,4 25,2 62.5,3 37.5,1 85,2 47.5,1 107.5,1 43,0 87,0.5 44,0.5 76.5,1 32.5,0.5 50.5,1.5 18,1 18,2 0,0 0,0 -1,1 -18.5,2.5 -17.5,1.5 -46.5,3 -29,1.5 -67,2.5 -38,1 -84,2 -58,1 -100.5,2.5 -42.5,1.5 -71.5,3.5 -29,2 -48.5,5 -19.5,3 -34.5,7 -25,5 -40.5,11.5 -15.5,6.5 -15.5,8.5 0,2 13,8 13,6 25,11 21,9 34,12.5 13,3.5 38.5,5.5 25.5,2 71,2.5 45.5,0.5 110.5,0.5 61,0 101.5,0.5 40.5,0.5 71,1 30.5,0.5 48,1.5 17.5,1 17.5,2 0,1 -32,3.5 -32,2.5 -77.5,4.5 -45.5,2 -96,3.5 -50.5,1.5 -74.5,1.5 -32,0 -61,3.5 -29,3.5 -59,9 -30,5.5 -56.5,12.5 -26.5,7 -38.5,12 -10,4 -15,9 -5,5 -5,8 0,4 5.5,12 5.5,8 14,16.5 8.5,8.5 18,16 9.5,7.5 15.5,10.5 10,5 36,9.5 26,4.5 59,8 33,3.5 68,6 35,2.5 60,2.5 15,0 24.5,-1 9.5,-1 18.5,-5.5 9,-4.5 20,-14.5 11,-10 24,-22 28,-26 44,-40 16,-14 18,-14 1,0 1,1 0,2 -1,6 -1,4 -2,9 -2,7 -2,11 0,4 2.5,7 2.5,3 16.5,6 14,2 34.5,2 20.5,0 40.5,-2 15,-2 26,-2 13,0 17,3 4,3 4,5 0,5 -11,11 -13,7 -23.5,19.5 -10.5,12.5 -19.5,28.5 -6,10 -10,19 -4,9 -6.5,19.5 -2.5,10.5 -3,24.5 -0.5,14 -0.5,37 v 68 l 27,4 q 16,3 16,6 0,1 -1.5,3.5 -1.5,2.5 -21.5,5.5 -10,1 -13,3 -3,2 -4,9 -1,7 -1,19.5 0,12.5 1,28.5 1,16 1,29 0,37 -7,37 -4,0 -6,-11 -2,-11 -2,-30 0,-16 -1.5,-34.5 -1.5,-18.5 -2.5,-29.5 l -5,-22 h -103 q -42,0 -74.5,2.5 -32.5,2.5 -59.5,9 -27,6.5 -52,17 -25,10.5 -53,26.5 -14,8 -25.5,14 -11.5,6 -13.5,6 -3,0 -3.5,-6.5 -0.5,-6.5 -0.5,-10.5 0,-8 1,-18 l 6,-33 h -24 q -23,0 -49.5,17.5 -26.5,17.5 -44.5,44.5 -5,7 -10.5,14 -5.5,7 -7.5,7 -2,0 -3.5,-12 -1.5,-12 -3,-29.5 -1.5,-17.5 -2,-39 -0.5,-21.5 -0.5,-40 0,-18.5 1,-32 1,-13.5 2,-15.5 1,-1 2,-1 2,0 5.5,2.5 3.5,2.5 7.5,10.5 3,7 11.5,18 8.5,11 15.5,18 14,15 24.5,18.5 10.5,3.5 35.5,3.5 h 39 v -40 q 0,-33 3.5,-37 3.5,-4 4.5,-4 5,0 10,9 6,10 19.5,21 13.5,11 28.5,20 13,8 22.5,12 9.5,4 26,6 16.5,2 45.5,2.5 29,0.5 64,1.5 67,1 95.5,1 28.5,0 42,-1 13.5,-1 16.5,-3.5 3,-2.5 3,-8.5 0,-12 -17,-27 -17,-15 -43.5,-29.5 -26.5,-14.5 -59,-26.5 -32.5,-12 -62.5,-17 l -57,-9 29,-18 27,-20 -41,-4 q -41,-4 -77,-4 -35,0 -79.5,6 -44.5,6 -95.5,37 -11,5 -18.5,8.5 -7.5,3.5 -10.5,3.5 -1,0 -1,0 0,-1 0,-2 0,-3 1.5,-11.5 1.5,-8.5 3.5,-21.5 3,-15 6,-35.5 3,-20.5 3,-41.5 0,-10 -0.5,-18 -0.5,-8 -3,-11.5 -2.5,-3.5 -6.5,-4 -4,-0.5 -11,-0.5 -14,1 -22.5,9.5 -8.5,8.5 -13,37 -4.5,28.5 -6.5,83.5 -2,55 -3,137 -1,59 -2,100.5 -1,41.5 -2,72 -1,30.5 -2.5,48.5 -1.5,18 -2.5,18 -1,0 -2.5,-15 -1.5,-15 -2.5,-41.5 -1,-26.5 -2,-61.5 -1,-35 -2,-76 -1,-71 -4,-120 -3,-49 -7.5,-84.5 Q 725,935 717,907.5 709,880 697,851 l -9,-22 -7,22 q -1,4 -2.5,26 -1.5,22 -3,55 -1.5,33 -3,75 -1.5,42 -2.5,87 -1,46 -2.5,86.5 -1.5,40.5 -3,70.5 -1.5,30 -3,47.5 -1.5,17.5 -3.5,17.5 -1,0 -2,-15 -1,-15 -2,-41 -1,-26 -1.5,-61 -0.5,-35 -0.5,-87 0,-55 -0.5,-95 -0.5,-40 -2,-66.5 -1.5,-26.5 -5,-46 Q 641,885 634,857 627,831 617.5,799.5 608,768 601,752 q -6,-12 -8,-20 -2,-8 -2,-11 0,-3 1,-3 1,-1 6,-1 4,0 14,1 10,1 32,4 23,4 31.5,4.5 8.5,0.5 10.5,0.5 10,0 16.5,-4 6.5,-4 8,-15.5 Q 712,696 712,677 Z m 135,29 Q 830,702 806,694.5 782,687 766,679 l -39,-18 v 30 q 0,11 2,21 2,10 6,12 2,1 2,6 0,1 -0.5,5 -0.5,4 -8.5,16 -7,9 -7.5,10.5 -0.5,1.5 -0.5,1.5 0,1 2,1 2,0 6,-1 6,-2 24,-7.5 18,-5.5 39,-12 21,-6.5 41,-12.5 20,-6 30,-9 l 26,-7 z m -142,37 q 0,-5 -13,-7 -13,-2 -32,-2 -18,0 -31.5,2 -13.5,2 -13.5,4 0,2 4.5,16 4.5,14 8.5,26 7,22 12.5,43 5.5,21 8.5,34 l 6,28 9,-28 q 5,-13 8,-27.5 3,-14.5 3,-24.5 0,-8 2,-14 2,-6 4,-6 3,0 7,-5.5 4,-5.5 7.5,-12.5 3.5,-7 6.5,-15 3,-8 3,-11 z m 97,32 q 0,-15 -4.5,-15.5 -4.5,-0.5 -5.5,-0.5 -10,0 -39,10 -36,14 -36,19 0,0 0.5,3 0.5,3 42.5,3 28,0 35,-2.5 7,-2.5 7,-16.5 z m 84,14 q -16,-5 -33,-11.5 -17,-6.5 -22,-8.5 -3,-2 -6,-2 -3,0 -4.5,4.5 -1.5,4.5 -1.5,22.5 0,18 -2,30 -2,12 -5,16 -1,2 -1,3 0,4 6,4 0,0 5.5,-0.5 5.5,-0.5 34.5,-11.5 24,-9 41,-13.5 17,-4.5 28,-4.5 10,0 10,-3 0,-2 -6,-7 -6,-5 -44,-18 z m -93,20 h -94 l 18,51 q 8,20 13,40 5,20 5,30 0,11 5,11 1,0 2,-1 8,-5 8,-18 0,-10 6,-28.5 6,-18.5 16,-37.5 z m 120,135 q 0,-2 -11,-9.5 Q 891,927 877,917 l -36,-24 -4,42 q -2,17 -2.5,26 -0.5,9 -0.5,12 0,6 1,6 0,0 1,0 2,0 13.5,-4 11.5,-4 25.5,-10.5 14,-6.5 26,-12.5 12,-6 12,-8 z m 456,-40 q 0,-2 -14.5,-3.5 -14.5,-1.5 -34.5,-1.5 -20,0 -33.5,1.5 -13.5,1.5 -13.5,4.5 0,1 0,1 1,1 8,15 0,1 1,1 v 2 q 0,0 1,0 v 1 q 1,1 1,3 l 1,1 q 0,0 0,1 h 1 q 0,1 0,1 l 2,3 q 0,1 0,1 l 1,1 q 0,1 0,1 l 1,1 q 0,2 1,3 l 1,1 q 0,1 0,1 l 1,1 q 1,3 2,5 l 1,2 q 0,0 0,0 l 22,46 11,-27 q 3,-11 10.5,-24 7.5,-13 15.5,-22 5,-5 9.5,-11.5 4.5,-6.5 4.5,-8.5 z m -81,67 q -7,-15 -17.5,-34.5 Q 1260,917 1254,910 q -5,-7 -9,-7 -1,0 -3.5,2 -2.5,2 -14.5,22 -18,32 -20.5,44 -2.5,12 -2.5,16 0,10 8,10 6,0 8,7 2,8 16.5,19 14.5,11 33.5,22 l 47,27 v -21 q 0,-9 -7.5,-30.5 Q 1302,999 1288,971 Z m -85,-31 q 7,-12 7,-16 0,-1 0,-1 0,0 -1,0 -3,0 -11,9 -8,9 -9.5,13 -1.5,4 -1.5,6 0,1 1,2 0,1 0,2 0,4 -8,4 -7,0 -15,3.5 -8,3.5 -15.5,8 -7.5,4.5 -13,10 -5.5,5.5 -5.5,8.5 0,4 8.5,6 8.5,2 22.5,2 17,0 22,-3 5,-3 5,-12 0,-7 3.5,-18 3.5,-11 10.5,-24 z m -222,162 q -7,-5 -15.5,-11 -8.5,-6 -10.5,-6 -1,0 -3,15 -2,15 -3,29 -1,12 -1,21 0,12 2,22.5 2,10.5 6,10.5 3,0 15.5,-6 12.5,-6 24.5,-13 17,-9 30.5,-14 13.5,-5 22.5,-5 7,0 7,-3 0,-2 -2.5,-6 -2.5,-4 -16.5,-7 -11,-2 -25,-9 -14,-7 -31,-18 z m -128,43 q 0,-1 -6,-7 -6,-6 -16,-14 l -21,-18 v 87 l 22,-22 q 9,-9 15,-15.5 6,-6.5 6,-9.5 z"
     id="path1" />
</svg>
