<svg xmlns="http://www.w3.org/2000/svg" width="958.0" height="452.5" viewBox="0 0 958.0 452.5"><path d="M146.5 208.5V204.0Q146.5 193.0 144.5 192.5Q142.5 193.0 133.5 198.75Q124.5 204.5 112.25 213.0Q100.0 221.5 88.0 229.75Q76.0 238.0 67.75 244.25Q59.5 250.5 59.0 252.0Q60.0 254.5 78.0 254.5Q88.0 254.5 102.0 257.75Q116.0 261.0 128.0 266.5L153.0 279.5L149.5 255.5Q147.5 244.0 147.0 232.25Q146.5 220.5 146.5 208.5ZM244.5 238.0Q242.0 238.0 235.5 234.25Q229.0 230.5 222.0 224.5L207.0 214.5L206.5 235.5Q204.5 241.5 204.0 246.75Q203.5 252.0 203.5 256.0Q203.5 258.0 204.0 259.0Q206.5 259.0 211.5 257.0Q216.5 255.0 222.0 252.0Q229.0 248.5 236.5 246.5Q244.0 244.5 246.0 244.5Q247.0 244.5 248.5 243.5Q250.0 242.5 250.0 240.5Q250.0 238.0 244.5 238.0ZM443.0 313.0Q439.5 310.0 432.5 305.5Q425.5 301.0 420.0 296.5Q416.5 294.0 412.0 291.0Q407.5 288.0 405.5 288.0H405.0Q403.5 290.0 402.25 298.25Q401.0 306.5 401.0 317.0V341.5Q407.0 338.5 413.0 335.25Q419.0 332.0 425.0 329.0Q435.5 324.0 439.75 320.75Q444.0 317.5 444.5 315.5Q444.0 315.5 443.75 314.25Q443.5 313.0 443.0 313.0ZM500.5 228.5Q497.0 216.0 492.75 207.25Q488.5 198.5 486.5 198.5Q481.0 198.5 475.5 209.75Q470.0 221.0 466.5 238.5Q463.0 256.0 463.0 275.5Q463.0 288.0 463.5 293.5Q464.0 299.0 467.25 300.75Q470.5 302.5 477.5 304.0Q485.5 305.0 490.25 306.25Q495.0 307.5 500.0 307.5Q508.0 307.5 509.75 302.25Q511.5 297.0 511.5 284.5Q511.5 274.5 508.25 258.25Q505.0 242.0 500.5 228.5ZM707.0 102.5Q703.5 92.5 699.75 86.25Q696.0 80.0 694.5 79.0Q674.0 83.0 674.0 88.0Q674.0 88.0 674.0 88.25Q674.0 88.5 674.5 89.0V91.5Q674.5 95.0 671.75 105.0Q669.0 115.0 663.0 124.5Q658.5 134.5 655.75 142.25Q653.0 150.0 651.25 161.75Q649.5 173.5 648.75 195.25Q648.0 217.0 647.5 255.0L645.5 356.0Q651.0 358.0 655.5 359.0Q660.0 360.0 665.0 361.0Q672.0 364.0 685.0 365.25Q698.0 366.5 708.5 366.5H731.0V282.5Q731.0 249.5 730.0 224.75Q729.0 200.0 726.25 180.0Q723.5 160.0 719.0 141.5Q714.5 123.0 707.0 102.5ZM776.5 120.5Q774.5 114.0 772.0 109.0Q769.5 104.0 767.5 104.0Q767.0 104.0 763.5 109.75Q760.0 115.5 756.5 123.0Q753.5 129.0 751.5 136.75Q749.5 144.5 748.25 158.25Q747.0 172.0 746.5 195.25Q746.0 218.5 745.5 255.5L742.5 367.0H791.5L793.0 288.0Q793.0 279.5 793.25 271.5Q793.5 263.5 793.5 255.5Q793.5 211.0 789.25 179.25Q785.0 147.5 776.5 120.5ZM219.0 60.5Q219.0 60.0 210.5 59.25Q202.0 58.5 188.5 58.5Q161.5 58.5 161.5 61.0Q162.5 63.0 164.25 68.0Q166.0 73.0 168.0 79.0Q170.0 84.5 172.5 91.25Q175.0 98.0 177.0 105.0Q181.0 120.0 184.75 130.75Q188.5 141.5 190.0 141.5Q191.0 141.5 192.25 136.0Q193.5 130.5 195.5 123.5Q196.5 116.0 200.5 104.5Q204.5 93.0 208.0 84.5Q210.5 80.5 212.0 77.5Q213.5 74.5 214.5 71.5Q216.5 66.5 217.75 63.5Q219.0 60.5 219.0 60.5ZM424.0 119.0V120.0Q423.5 119.5 419.75 117.25Q416.0 115.0 412.5 113.0Q409.0 111.0 408.0 111.0Q406.0 111.0 404.0 121.0Q402.0 131.0 402.0 139.5Q402.0 145.5 403.0 149.5H405.0Q409.0 149.5 416.75 146.0Q424.5 142.5 431.0 138.5Q437.5 134.5 438.0 132.5V132.0Q437.5 130.0 433.5 126.25Q429.5 122.5 424.0 119.0ZM471.0 186.5Q471.0 185.5 465.75 184.0Q460.5 182.5 453.5 182.5Q447.0 182.5 442.0 184.0Q437.0 185.5 437.0 186.5Q437.0 188.5 439.25 194.75Q441.5 201.0 444.5 208.0Q447.5 215.0 450.0 220.0Q452.5 225.0 453.5 225.0Q455.0 225.0 457.75 220.0Q460.5 215.0 463.5 208.0Q466.5 201.0 468.75 194.75Q471.0 188.5 471.0 186.5ZM533.0 185.5Q532.5 184.0 528.0 183.5Q523.5 183.0 517.5 183.0Q511.0 183.0 505.25 183.5Q499.5 184.0 499.5 186.5Q499.5 188.0 501.75 194.5Q504.0 201.0 507.0 208.5L514.5 225.0L524.5 207.5Q528.5 201.0 530.5 194.75Q532.5 188.5 533.0 185.5ZM654.5 107.5Q654.5 106.5 648.75 105.5Q643.0 104.5 637.0 104.0Q633.5 104.5 629.75 105.5Q626.0 106.5 624.5 107.0V107.5Q624.5 111.0 626.5 118.5Q628.5 126.0 631.5 133.5Q634.5 141.0 637.0 145.0Q639.5 144.0 643.5 136.25Q647.5 128.5 651.0 119.75Q654.5 111.0 654.5 107.5ZM751.5 96.5Q751.5 95.5 746.75 94.5Q742.0 93.5 735.0 93.5Q728.5 93.5 723.25 94.0Q718.0 94.5 718.0 95.0Q718.0 96.5 720.25 104.5Q722.5 112.5 727.0 123.5L734.5 145.0L742.5 124.0Q751.5 102.0 751.5 96.5ZM881.0 92.0Q874.5 78.5 871.0 73.75Q867.5 69.0 857.5 69.0Q856.5 69.0 854.25 69.75Q852.0 70.5 849.5 70.5Q843.0 70.5 830.0 71.0Q817.0 71.5 801.0 71.75Q785.0 72.0 770.0 72.0Q747.0 72.5 730.0 74.25Q713.0 76.0 713.0 77.0Q713.0 77.5 730.0 78.25Q747.0 79.0 771.0 79.0Q796.0 79.0 814.75 80.25Q833.5 81.5 834.5 84.0V85.0Q834.5 88.0 831.25 98.0Q828.0 108.0 824.0 120.0Q818.5 131.5 815.5 140.5Q812.5 149.5 810.75 162.5Q809.0 175.5 808.0 198.0Q807.0 220.5 806.0 259.5L804.0 365.5L848.0 368.0Q852.5 368.0 857.0 368.5Q861.5 369.0 865.0 369.0Q879.0 369.0 885.75 367.25Q892.5 365.5 893.0 363.5Q893.5 363.0 893.5 353.0Q893.5 343.0 893.5 326.5Q893.5 309.0 893.5 286.25Q893.5 263.5 893.0 238.0Q893.0 195.5 892.5 170.25Q892.0 145.0 890.75 131.0Q889.5 117.0 887.25 108.75Q885.0 100.5 881.0 92.0ZM670.5 71.5Q669.5 70.5 661.75 66.5Q654.0 62.5 644.0 57.5L616.0 44.5V64.0Q616.0 72.5 616.75 78.75Q617.5 85.0 619.0 87.5H619.5Q624.5 87.5 635.75 84.5Q647.0 81.5 657.5 77.5Q668.0 73.5 670.5 71.5ZM815.0 100.0Q816.0 99.0 816.25 98.0Q816.5 97.0 816.5 96.5Q816.5 95.0 812.75 94.25Q809.0 93.5 799.5 93.5H781.5L789.0 120.0Q795.5 141.5 799.0 141.5Q802.0 141.5 807.0 125.0L809.0 119.0Q813.0 107.5 815.0 100.0ZM928.5 60.0V56.5Q928.5 54.5 916.5 54.5Q902.0 54.5 896.0 57.0Q890.0 59.5 890.0 68.0V72.0Q891.5 82.0 894.75 94.75Q898.0 107.5 901.5 117.0Q905.0 126.5 907.0 127.5Q908.0 123.5 911.0 113.5Q914.0 103.5 917.5 93.5Q920.5 83.5 923.75 73.25Q927.0 63.0 928.5 60.0ZM640.5 365.0Q628.0 358.5 618.5 354.75Q609.0 351.0 608.0 351.0Q607.0 351.0 606.25 358.75Q605.5 366.5 605.5 377.0Q605.5 391.0 606.0 396.0Q606.5 401.0 609.0 401.0L621.5 396.5Q626.0 395.5 632.5 393.0Q639.0 390.5 645.0 388.5L648.5 387.0Q664.0 380.0 668.5 380.0Q669.0 380.0 669.0 380.0Q669.0 380.0 669.0 380.0Q669.0 378.5 660.75 374.0Q652.5 369.5 640.5 365.0ZM142.5 47.0Q142.5 45.0 153.25 44.0Q164.0 43.0 178.0 43.0Q191.5 43.0 205.25 43.5Q219.0 44.0 228.75 44.75Q238.5 45.5 239.5 47.0Q240.5 47.5 238.0 53.75Q235.5 60.0 231.5 70.5Q229.5 74.0 227.75 78.0Q226.0 82.0 224.0 86.0Q214.5 106.0 207.75 127.5Q201.0 149.0 201.0 171.5Q201.0 182.0 208.0 191.75Q215.0 201.5 224.75 209.0Q234.5 216.5 243.0 221.5Q247.5 224.0 265.25 226.75Q283.0 229.5 307.0 232.25Q331.0 235.0 355.5 236.75Q380.0 238.5 398.5 239.0Q405.5 239.0 410.75 241.25Q416.0 243.5 416.0 244.5Q416.0 246.5 405.25 248.0Q394.5 249.5 376.75 250.25Q359.0 251.0 338.0 251.0Q310.0 251.0 293.0 251.25Q276.0 251.5 265.75 252.75Q255.5 254.0 247.75 256.75Q240.0 259.5 230.0 264.5L201.0 277.0V305.0Q201.0 315.0 201.75 321.5Q202.5 328.0 206.5 334.75Q210.5 341.5 219.25 352.0Q228.0 362.5 244.5 380.5Q268.0 408.0 278.0 420.75Q288.0 433.5 288.0 437.5Q288.0 442.5 284.0 442.5H283.5Q281.5 442.5 268.25 429.0Q255.0 415.5 239.0 397.5L203.5 356.0L202.5 391.0Q201.5 411.0 199.25 420.0Q197.0 429.0 195.5 429.0Q193.0 429.0 190.5 416.25Q188.0 403.5 188.0 380.0V337.0Q175.5 323.5 162.5 311.5Q145.0 293.5 130.5 284.25Q116.0 275.0 98.0 271.75Q80.0 268.5 52.5 268.5Q37.0 268.5 25.0 265.75Q13.0 263.0 11.0 262.5Q10.5 263.0 10.25 263.25Q10.0 263.5 10.0 263.5L11.0 262.5Q15.0 260.0 29.75 250.25Q44.5 240.5 63.5 228.5Q78.0 220.0 92.5 210.5Q107.0 201.0 118.5 192.75Q130.0 184.5 135.0 180.0Q143.5 173.5 150.25 169.0Q157.0 164.5 159.0 164.5L160.0 165.0Q160.5 166.5 161.0 168.25Q161.5 170.0 161.5 172.5Q161.5 177.0 161.0 183.0Q160.5 189.0 160.0 196.0Q159.5 199.5 159.5 204.5Q159.5 209.5 159.5 214.5Q159.5 230.5 162.0 248.25Q164.5 266.0 168.75 281.0Q173.0 296.0 178.0 304.0Q184.5 314.5 186.5 314.5Q186.5 314.5 186.75 313.25Q187.0 312.0 187.0 309.0Q187.5 308.0 187.5 301.0Q187.5 294.0 187.5 284.5Q187.5 230.5 181.0 177.5Q174.5 124.5 151.5 74.5Q148.0 64.5 145.25 56.75Q142.5 49.0 142.5 47.0ZM419.5 175.5Q419.5 172.5 437.0 170.5Q454.5 168.5 486.5 168.5Q554.5 168.5 554.5 176.0Q554.5 179.0 552.0 185.0Q549.5 191.0 545.5 197.0Q533.0 213.5 529.0 237.25Q525.0 261.0 525.0 281.0L527.5 304.0L571.5 305.5Q615.5 308.5 615.5 314.5Q615.5 317.5 603.75 320.0Q592.0 322.5 568.5 322.5H524.5V369.5Q524.5 389.5 522.5 399.5Q520.5 409.5 519.0 409.5Q516.5 409.5 514.0 396.0Q511.5 382.5 511.5 356.5Q511.5 340.5 511.0 333.25Q510.5 326.0 508.5 323.75Q506.5 321.5 502.0 321.0Q498.5 319.5 491.5 319.5Q488.0 319.5 484.25 320.0Q480.5 320.5 477.0 322.5Q472.0 323.0 469.5 326.0Q467.0 329.0 466.0 338.75Q465.0 348.5 463.0 370.0Q461.0 387.0 460.0 397.0Q459.0 407.0 457.0 407.0Q457.0 407.0 456.5 405.5Q456.0 404.0 456.0 401.5Q456.0 394.0 454.5 380.75Q453.0 367.5 452.0 356.5Q450.5 344.5 449.25 339.75Q448.0 335.0 444.5 335.0Q444.0 335.0 442.25 335.75Q440.5 336.5 438.0 337.5Q433.5 339.5 424.5 344.5Q415.5 349.5 408.0 355.0Q402.0 359.5 397.75 362.25Q393.5 365.0 391.0 365.0Q390.0 365.0 388.0 363.0Q388.0 346.5 388.75 330.25Q389.5 314.0 391.5 297.5L395.5 254.5L416.5 276.5Q425.0 284.5 432.75 290.5Q440.5 296.5 443.5 296.5Q450.0 296.5 450.0 280.5Q450.0 264.5 443.75 241.0Q437.5 217.5 427.0 197.5Q424.0 191.0 421.75 185.0Q419.5 179.0 419.5 175.5ZM391.5 125.0 395.5 80.5 415.5 98.5Q425.5 106.0 435.25 111.0Q445.0 116.0 458.25 118.5Q471.5 121.0 491.5 122.0Q511.5 123.0 542.5 123.0Q577.0 123.0 596.5 124.25Q616.0 125.5 616.0 129.5Q616.0 133.0 596.75 134.5Q577.5 136.0 543.5 136.0Q516.0 136.0 498.25 137.0Q480.5 138.0 467.75 140.75Q455.0 143.5 443.0 148.75Q431.0 154.0 415.0 163.0Q408.0 166.5 401.75 169.0Q395.5 171.5 392.5 171.5H391.0Q390.5 170.5 389.75 168.0Q389.0 165.5 389.0 162.0Q389.0 155.5 390.0 145.75Q391.0 136.0 391.5 125.0ZM603.5 50.0V10.0L619.0 25.0Q631.0 36.0 641.0 42.5Q651.0 49.0 664.75 52.0Q678.5 55.0 701.5 56.25Q724.5 57.5 762.5 58.5Q781.5 59.0 795.5 59.25Q809.5 59.5 819.0 59.5Q836.5 59.5 844.25 58.75Q852.0 58.0 854.0 56.25Q856.0 54.5 857.0 51.5Q859.5 45.0 861.75 42.75Q864.0 40.5 869.0 40.5Q873.5 40.5 880.0 42.0Q882.5 42.0 885.75 42.25Q889.0 42.5 892.5 42.5Q899.0 42.0 906.5 41.75Q914.0 41.5 919.0 39.5Q926.0 38.0 930.75 37.5Q935.5 37.0 939.0 37.0Q948.0 37.0 948.0 45.0Q948.0 50.0 943.0 61.0Q939.0 69.0 932.5 89.75Q926.0 110.5 921.0 131.5Q916.5 148.5 914.0 161.75Q911.5 175.0 910.0 190.5Q908.5 206.0 908.25 229.5Q908.0 253.0 908.0 290.5Q908.0 343.5 906.0 373.0Q904.0 402.5 901.5 402.5Q899.0 402.5 897.0 398.25Q895.0 394.0 895.0 389.5Q895.0 386.5 892.75 385.0Q890.5 383.5 882.0 382.5Q873.5 381.5 855.0 381.25Q836.5 381.0 803.5 381.0Q766.5 381.0 740.75 382.25Q715.0 383.5 696.0 387.0Q677.0 390.5 659.5 396.5Q642.0 402.5 621.5 411.5Q612.0 416.0 605.0 418.75Q598.0 421.5 597.0 421.5Q595.5 421.5 595.0 414.75Q594.5 408.0 594.5 397.5Q594.5 383.5 595.0 367.0Q595.5 350.5 596.75 338.0Q598.0 325.5 599.5 324.0H598.5Q600.5 323.0 601.0 323.0Q607.0 323.0 615.5 334.0Q620.0 339.0 624.75 342.5Q629.5 346.0 631.0 346.0Q632.5 346.0 633.25 329.0Q634.0 312.0 634.0 287.5Q634.0 264.0 633.0 238.75Q632.0 213.5 630.5 193.0Q629.0 172.5 626.5 164.5Q621.5 145.0 618.5 135.75Q615.5 126.5 613.0 123.5Q610.5 120.5 605.5 120.5Q600.0 120.5 598.5 112.0Q599.5 110.0 600.25 101.0Q601.0 92.0 601.75 81.0Q602.5 70.0 603.0 61.0Q603.5 52.0 603.5 50.0Z" fill="black" /></svg>