<svg xmlns="http://www.w3.org/2000/svg" width="908.5" height="396.0" viewBox="0 0 908.5 396.0"><path d="M79.0 294.0Q79.0 293.5 75.25 289.5Q71.5 285.5 67.0 280.0L54.5 267.0L49.0 277.5Q47.5 282.0 46.0 285.75Q44.5 289.5 44.5 291.0Q45.5 292.0 53.75 292.75Q62.0 293.5 69.5 293.5Q73.5 293.5 76.25 293.5Q79.0 293.5 79.0 294.0ZM365.0 320.0 360.0 318.5Q355.0 317.5 346.75 315.0Q338.5 312.5 329.0 309.5Q325.0 308.0 320.75 306.75Q316.5 305.5 312.5 304.5L282.5 295.5L278.0 319.5Q276.5 327.5 275.5 334.25Q274.5 341.0 274.5 344.0Q277.0 343.5 286.25 340.5Q295.5 337.5 306.5 334.0Q320.5 330.0 335.5 326.25Q350.5 322.5 358.0 321.5ZM86.5 120.0Q82.0 117.5 79.0 116.25Q76.0 115.0 74.5 115.0Q73.0 115.5 73.0 123.0Q73.0 131.0 76.5 131.0Q79.0 131.0 87.0 129.0Q95.0 127.0 96.0 126.0Q95.0 123.0 86.5 120.0ZM257.5 83.5H230.0L232.0 97.0Q235.5 115.5 239.5 115.5Q242.0 115.5 246.25 108.25Q250.5 101.0 254.0 93.25Q257.5 85.5 257.5 83.5ZM317.0 158.5Q321.0 151.5 322.5 147.5Q320.5 149.0 314.5 153.25Q308.5 157.5 300.0 163.0Q291.5 169.5 287.0 173.25Q282.5 177.0 282.5 179.5Q282.5 181.0 287.5 182.75Q292.5 184.5 298.5 185.75Q304.5 187.0 306.5 187.0Q310.0 187.0 310.0 181.5Q310.0 171.5 317.0 158.5ZM438.0 164.5 420.0 151.0Q413.0 146.5 402.0 140.0Q391.0 133.5 379.25 128.25Q367.5 123.0 358.5 123.0Q352.0 123.0 349.5 127.5Q345.0 134.0 338.5 145.25Q332.0 156.5 327.0 166.25Q322.0 176.0 322.0 178.5Q322.0 197.0 362.0 231.0L389.0 252.5V227.0Q389.0 214.0 388.0 207.75Q387.0 201.5 384.0 197.0Q381.0 192.5 374.0 185.5L354.0 167.0L401.5 166.0ZM415.0 83.0Q421.5 72.0 422.5 67.0Q420.5 67.5 414.5 72.25Q408.5 77.0 400.0 83.0Q390.5 91.0 381.75 97.25Q373.0 103.5 369.5 105.0Q366.5 106.5 366.5 108.0Q366.5 113.0 380.0 115.5Q385.5 116.5 391.0 118.0Q396.5 119.5 400.0 120.5Q402.5 122.0 404.0 122.0Q406.0 122.0 406.0 113.5Q406.0 108.0 408.75 99.0Q411.5 90.0 415.0 83.0ZM424.0 181.0Q424.0 181.0 419.25 180.5Q414.5 180.0 407.5 180.0Q401.5 180.0 397.0 180.0Q392.5 180.0 392.0 179.5L401.0 205.5L412.0 195.0Q416.5 190.5 420.25 186.25Q424.0 182.0 424.0 181.0ZM497.5 220.5 477.5 199.5Q469.5 191.5 462.0 185.75Q454.5 180.0 452.0 180.0Q450.0 180.0 441.5 186.5Q433.0 193.0 423.0 202.0L400.0 225.0L402.5 309.0L423.0 312.0Q428.5 313.0 435.25 313.25Q442.0 313.5 449.0 313.5Q454.5 313.5 460.75 313.25Q467.0 313.0 472.5 312.5L497.5 309.5ZM667.0 287.5Q649.0 282.0 630.75 275.25Q612.5 268.5 595.5 260.5Q589.0 256.0 585.0 254.25Q581.0 252.5 579.5 252.5Q578.0 252.5 578.0 253.0Q576.0 260.5 573.5 272.0Q571.0 283.5 569.25 294.0Q567.5 304.5 567.5 309.0V310.5H568.0Q571.0 310.5 575.5 308.75Q580.0 307.0 585.5 305.0Q592.5 302.5 608.25 298.75Q624.0 295.0 638.0 292.5Q648.0 291.0 655.75 289.5Q663.5 288.0 667.0 287.5ZM527.5 103.5 543.5 79.0H518.5Q504.0 79.0 499.0 79.75Q494.0 80.5 494.0 81.5L494.5 83.5Q495.5 87.0 498.25 94.75Q501.0 102.5 503.0 110.5Q504.5 116.5 506.25 121.75Q508.0 127.0 508.5 129.0Q509.5 129.0 514.75 121.75Q520.0 114.5 527.5 103.5ZM661.0 71.0Q652.5 67.5 644.5 64.5Q636.5 61.5 633.5 60.5Q633.0 60.0 631.5 60.0Q628.5 60.0 626.5 66.5Q624.5 73.0 623.25 80.5Q622.0 88.0 622.0 91.0Q622.0 95.5 624.0 95.5Q625.5 95.5 629.0 93.0Q632.0 91.5 642.0 88.5Q652.0 85.5 662.0 83.5Q670.0 82.0 676.0 80.5Q682.0 79.0 683.0 78.5Q682.0 77.5 675.5 75.25Q669.0 73.0 661.0 71.0ZM761.0 138.0Q758.0 136.5 746.0 136.5Q740.5 136.5 736.0 136.75Q731.5 137.0 730.5 138.0H731.0Q731.0 140.5 732.75 147.0Q734.5 153.5 736.75 159.75Q739.0 166.0 740.5 169.0Q743.5 168.0 748.5 161.5Q753.5 155.0 757.25 147.75Q761.0 140.5 761.0 138.0ZM864.0 26.5Q864.0 27.0 856.5 27.0Q849.0 27.0 837.5 27.0Q822.5 27.0 817.25 27.25Q812.0 27.5 812.0 29.5Q812.0 31.0 813.0 31.5Q817.0 40.0 822.0 59.0Q824.0 67.0 826.5 72.0Q829.0 77.0 830.0 77.0Q831.5 77.0 837.0 70.25Q842.5 63.5 848.75 54.0Q855.0 44.5 859.5 36.5Q864.0 28.5 864.0 26.5ZM205.5 75.5Q205.5 73.0 216.75 72.0Q228.0 71.0 244.0 71.0Q261.0 71.0 271.75 72.5Q282.5 74.0 282.5 77.0Q282.5 83.5 276.5 83.5Q274.5 83.5 269.75 91.5Q265.0 99.5 260.75 108.75Q256.5 118.0 256.5 122.0Q256.5 125.5 253.75 130.0Q251.0 134.5 247.0 138.0Q244.0 141.0 242.5 144.75Q241.0 148.5 240.25 157.5Q239.5 166.5 239.25 184.25Q239.0 202.0 239.0 233.0Q239.0 275.5 237.25 299.5Q235.5 323.5 233.0 323.5Q231.0 323.5 229.0 297.5Q227.0 271.5 226.0 226.5L224.5 134.0L176.5 132.5H157.0Q111.0 132.5 92.0 141.0Q73.0 149.5 73.0 168.5Q73.0 178.0 69.75 187.25Q66.5 196.5 64.0 197.5Q61.0 197.5 61.0 190.5Q60.5 187.0 60.5 181.75Q60.5 176.5 60.5 170.0Q60.5 158.0 61.0 143.5Q61.5 129.0 62.25 115.5Q63.0 102.0 64.25 92.75Q65.5 83.5 66.5 82.0H68.0Q70.5 82.0 74.0 85.5Q77.5 89.0 81.0 94.5Q86.0 103.5 94.0 108.5Q102.0 113.5 116.5 115.75Q131.0 118.0 155.0 118.0H175.0Q196.5 117.0 207.0 116.5Q217.5 116.0 220.75 115.0Q224.0 114.0 224.0 112.0V110.5Q223.5 107.0 220.5 101.25Q217.5 95.5 213.5 91.0Q210.0 85.5 207.75 80.75Q205.5 76.0 205.5 75.5ZM781.5 15.0Q781.5 10.0 787.0 10.0Q789.5 10.0 794.5 10.5Q799.5 11.0 808.5 13.5Q817.0 16.0 833.0 16.0Q840.0 16.0 847.0 15.5Q854.0 15.0 861.0 14.5Q877.0 13.0 885.0 13.0Q893.0 13.0 895.75 14.5Q898.5 16.0 898.5 19.0Q898.5 22.5 896.0 24.75Q893.5 27.0 891.0 27.0Q884.5 27.0 873.25 40.0Q862.0 53.0 853.0 71.5Q848.0 81.0 842.25 89.5Q836.5 98.0 833.5 100.5H834.5Q831.0 104.0 830.0 115.5Q829.0 127.0 829.0 158.0V198.0L830.5 286.5L845.5 288.0Q854.5 288.5 858.5 290.75Q862.5 293.0 862.5 295.5Q862.5 302.0 844.0 302.0Q833.5 302.0 831.0 303.5Q828.5 305.0 828.5 311.0Q828.5 315.5 827.0 319.0Q825.5 322.5 824.0 322.5Q823.5 322.5 822.0 321.0V321.5Q820.0 321.0 818.25 316.75Q816.5 312.5 816.5 309.0Q816.5 305.0 809.5 302.75Q802.5 300.5 792.5 299.5Q782.5 298.5 773.5 298.0Q764.5 297.5 761.0 297.5Q748.5 297.5 745.5 302.25Q742.5 307.0 741.5 318.5Q741.0 329.0 738.75 335.0Q736.5 341.0 735.0 341.0Q729.0 341.0 729.0 319.5Q729.0 301.0 723.0 299.0Q722.5 298.5 719.5 298.5Q716.5 298.5 713.0 298.5Q697.5 298.5 677.25 300.0Q657.0 301.5 636.25 305.5Q615.5 309.5 596.5 315.75Q577.5 322.0 564.0 332.0Q550.5 345.5 546.0 345.5Q543.0 343.5 543.0 340.0Q543.0 337.0 544.5 332.0Q545.0 330.0 545.0 328.75Q545.0 327.5 545.0 326.5Q545.0 324.0 541.5 323.75Q538.0 323.5 528.0 323.5Q515.5 323.5 512.5 325.0Q509.5 326.5 509.5 332.5Q509.5 338.0 507.75 342.0Q506.0 346.0 503.5 346.0Q501.5 346.0 499.5 342.0Q497.5 338.0 497.5 332.0V323.5L453.0 326.5Q433.0 327.5 418.25 329.5Q403.5 331.5 401.0 332.5Q398.5 335.0 396.5 335.0Q393.5 335.0 391.0 332.5Q391.0 332.0 385.5 332.0Q374.5 332.0 355.0 335.25Q335.5 338.5 315.5 344.5Q303.0 347.5 298.0 349.5Q293.0 351.5 293.0 354.0Q293.0 355.5 294.0 356.5Q294.5 357.5 294.5 359.0Q294.5 360.5 294.5 361.5Q294.5 366.0 291.0 366.0Q287.0 366.0 282.5 364.5Q280.5 364.0 279.0 364.0Q277.5 364.0 276.0 364.0Q269.5 364.0 264.0 371.5L252.0 386.0L254.5 367.5V363.0Q254.5 358.5 243.0 352.5Q231.5 346.5 212.5 340.25Q193.5 334.0 171.25 328.0Q149.0 322.0 127.75 317.0Q106.5 312.0 89.75 309.25Q73.0 306.5 65.0 306.5H38.0L28.5 323.5V323.0Q24.5 332.0 19.75 337.25Q15.0 342.5 13.5 342.5Q12.0 341.5 11.0 340.75Q10.0 340.0 10.0 338.0Q10.0 334.5 14.5 323.5Q19.0 312.5 25.5 298.75Q32.0 285.0 39.0 271.75Q46.0 258.5 51.25 249.75Q56.5 241.0 58.0 241.0Q60.5 241.0 62.0 245.0Q66.0 256.0 69.25 262.5Q72.5 269.0 78.0 273.75Q83.5 278.5 93.0 284.5Q101.5 290.0 112.25 295.25Q123.0 300.5 130.5 302.0Q137.5 304.0 158.0 310.75Q178.5 317.5 201.0 324.5L213.0 328.0Q230.5 333.5 243.5 337.5Q256.5 341.5 258.0 341.5Q260.5 341.5 263.0 333.0Q265.5 324.5 267.5 314.75Q269.5 305.0 269.5 301.5Q269.5 295.0 266.5 287.5Q265.5 284.0 264.5 280.75Q263.5 277.5 263.5 274.5Q263.5 264.5 269.5 264.5Q273.5 264.5 277.5 271.5Q280.0 277.5 290.5 282.75Q301.0 288.0 315.75 292.5Q330.5 297.0 346.0 300.5Q361.5 304.0 373.75 305.75Q386.0 307.5 391.0 307.5Q391.0 302.0 390.75 297.25Q390.5 292.5 390.0 287.5Q388.0 274.0 374.0 258.25Q360.0 242.5 341.0 228.25Q322.0 214.0 303.25 204.0Q284.5 194.0 272.5 191.5L242.5 184.5L260.5 174.5Q267.5 171.0 280.0 162.5Q292.5 154.0 305.5 144.25Q318.5 134.5 327.0 127.25Q335.5 120.0 334.5 119.5V118.0Q334.5 115.5 345.5 106.75Q356.5 98.0 372.0 88.0Q382.5 81.0 394.5 72.25Q406.5 63.5 417.75 54.5Q429.0 45.5 436.0 39.0Q446.5 28.5 454.75 21.0Q463.0 13.5 463.5 13.5Q466.5 13.5 466.5 18.0Q466.5 21.5 462.75 29.0Q459.0 36.5 453.5 44.0Q450.5 48.5 444.75 57.0Q439.0 65.5 433.0 75.75Q427.0 86.0 423.0 95.0Q419.0 104.0 419.0 109.5Q419.0 116.0 422.5 124.5Q427.5 141.0 447.0 156.5Q455.5 162.0 465.0 170.5Q474.5 179.0 479.5 184.5Q485.0 189.5 489.75 193.5Q494.5 197.5 496.0 197.5Q497.0 197.5 497.25 191.75Q497.5 186.0 497.5 178.0Q497.5 165.0 496.5 149.75Q495.5 134.5 493.75 121.5Q492.0 108.5 490.0 103.5Q488.0 99.0 483.5 92.5Q479.0 86.0 474.0 81.5Q467.5 76.0 465.25 71.25Q463.0 66.5 463.5 65.5Q465.0 65.0 468.25 65.0Q471.5 65.0 476.0 65.0Q484.0 65.0 496.75 65.25Q509.5 65.5 523.5 66.5Q552.0 67.5 563.5 68.5Q575.0 69.5 575.0 73.0Q575.0 75.5 567.5 79.0Q562.5 82.0 552.0 93.25Q541.5 104.5 532.5 118.0L510.0 149.5L509.5 231.0V310.5H529.5Q544.0 310.5 548.5 308.75Q553.0 307.0 555.5 300.0Q558.0 295.0 559.5 282.25Q561.0 269.5 561.0 255.5Q561.0 241.0 562.75 229.75Q564.5 218.5 566.5 218.0H567.5Q573.0 218.0 574.0 228.5Q575.0 234.0 587.75 241.75Q600.5 249.5 620.75 257.25Q641.0 265.0 665.0 271.75Q689.0 278.5 712.5 282.0L729.0 285.0V228.5Q729.0 183.5 725.25 164.25Q721.5 145.0 711.5 140.0Q704.5 136.5 704.5 132.0Q704.5 129.5 706.0 129.0Q708.5 126.5 722.25 125.5Q736.0 124.5 751.0 124.5Q765.5 124.5 777.25 126.0Q789.0 127.5 789.0 130.5Q789.0 132.0 786.75 134.75Q784.5 137.5 781.5 138.5Q779.0 139.5 772.25 148.25Q765.5 157.0 758.5 168.5L740.5 194.5L741.5 241.0L743.0 286.5L816.5 289.5L814.5 94.5L772.0 92.5Q763.0 92.0 754.25 92.0Q745.5 92.0 737.0 92.0Q693.0 92.0 659.5 98.25Q626.0 104.5 613.0 117.0Q606.0 123.0 604.0 123.0Q601.0 123.0 601.0 118.0Q601.0 111.0 607.5 92.0Q611.5 81.0 613.0 71.5Q614.5 62.0 614.5 51.0Q614.0 48.0 613.75 45.25Q613.5 42.5 613.5 40.5Q613.5 28.5 619.5 28.5Q622.5 28.5 627.0 36.0Q631.0 43.5 647.25 51.0Q663.5 58.5 687.0 64.75Q710.5 71.0 736.5 75.0Q762.5 79.0 785.5 79.0Q805.0 79.0 808.5 78.0Q812.0 77.0 812.0 71.0Q812.0 61.0 806.0 49.0Q800.0 37.0 791.5 30.0Q781.5 20.0 781.5 15.0Z" fill="black" /></svg>