<svg xmlns="http://www.w3.org/2000/svg" width="397.0" height="380.5" viewBox="0 0 397.0 380.5"><path d="M109.0 269.0Q99.5 271.0 90.0 272.75Q80.5 274.5 70.5 274.5Q64.5 274.5 58.75 274.0Q53.0 273.5 49.0 271.5L40.0 268.5L50.5 288.0Q55.5 297.0 60.0 306.0Q64.5 315.0 65.5 317.5Q65.5 318.0 65.75 318.5Q66.0 319.0 66.0 319.0Q68.5 319.0 72.5 312.0Q76.0 307.5 84.25 298.25Q92.5 289.0 99.5 281.5H98.5Q102.5 277.0 105.0 274.0Q107.5 271.0 109.0 269.0ZM246.0 313.5 249.5 307.5Q253.0 301.0 256.0 296.25Q259.0 291.5 261.0 289.5Q260.0 290.0 258.5 291.0Q255.0 292.0 250.5 295.5Q246.0 298.0 235.5 300.0Q225.0 302.0 215.5 302.0H196.0L212.5 326.5Q221.5 341.5 226.0 341.5Q230.0 341.5 246.0 313.5ZM119.5 100.5H119.0Q114.0 94.5 109.0 85.75Q104.0 77.0 102.5 71.0L99.5 59.5L62.5 96.0L86.0 100.5Q89.5 101.0 92.75 101.75Q96.0 102.5 99.5 103.5Q108.0 105.5 114.75 106.5Q121.5 107.5 124.0 108.0Q125.0 108.5 125.75 108.5Q126.5 108.5 127.0 109.0Q126.0 108.0 124.0 105.75Q122.0 103.5 119.5 100.5ZM271.0 54.0Q272.0 49.5 272.25 44.5Q272.5 39.5 272.5 39.5Q269.5 41.5 262.75 45.75Q256.0 50.0 248.0 55.5L223.5 69.5L251.0 82.0Q261.5 87.0 270.0 90.75Q278.5 94.5 282.0 96.0Q276.5 84.5 273.75 76.0Q271.0 67.5 271.0 54.0ZM101.0 34.5Q101.0 25.5 107.0 25.5Q109.5 25.5 111.25 31.75Q113.0 38.0 113.0 48.0Q113.0 56.0 115.25 65.75Q117.5 75.5 120.5 80.5V80.0Q127.5 92.5 153.75 112.75Q180.0 133.0 225.0 161.0Q244.0 173.5 257.5 184.5Q271.0 195.5 271.0 198.0V199.5Q269.0 202.5 265.5 202.5Q263.0 202.5 262.5 201.5Q258.5 201.5 241.0 209.25Q223.5 217.0 201.5 228.5Q154.0 252.5 126.25 274.5Q98.5 296.5 81.0 324.5L65.5 348.0L47.5 311.0Q41.0 297.0 32.25 282.5Q23.5 268.0 18.5 262.0Q15.0 257.5 12.5 254.0Q10.0 250.5 10.0 248.5Q10.0 245.5 13.0 245.5Q16.0 245.5 24.0 247.75Q32.0 250.0 46.0 255.5Q63.0 261.0 73.5 261.0Q78.0 261.0 83.25 260.5Q88.5 260.0 96.0 258.0Q102.5 256.5 116.75 251.0Q131.0 245.5 149.25 237.25Q167.5 229.0 185.0 220.5L246.0 190.0Q236.0 183.5 226.0 177.5Q216.0 171.5 206.0 165.5Q187.5 153.5 170.5 143.75Q153.5 134.0 148.0 132.0Q136.0 127.0 117.75 122.0Q99.5 117.0 82.5 113.75Q65.5 110.5 57.0 110.5Q49.0 110.5 43.75 108.75Q38.5 107.0 38.5 105.0Q38.5 103.5 47.75 93.0Q57.0 82.5 70.5 70.0Q83.0 57.0 92.0 46.75Q101.0 36.5 101.0 34.5ZM273.5 22.0Q278.0 16.5 282.5 13.25Q287.0 10.0 290.0 10.0H290.5Q293.0 11.0 293.0 14.5Q293.0 18.0 292.0 23.5Q291.0 29.0 288.5 35.0Q284.0 47.5 284.0 61.0Q284.0 63.0 284.0 65.25Q284.0 67.5 284.5 69.5Q286.0 77.0 294.75 91.25Q303.5 105.5 316.0 122.5Q328.5 139.5 341.75 155.0Q355.0 170.5 365.5 180.5Q376.0 190.5 380.5 190.5Q387.0 190.5 387.0 198.0Q387.0 199.0 386.75 200.25Q386.5 201.5 386.5 202.5Q384.0 213.0 376.0 213.0Q373.0 213.0 361.5 221.0Q350.0 229.0 334.75 240.5Q319.5 252.0 305.25 264.0Q291.0 276.0 283.0 284.5Q277.0 291.5 269.25 302.5Q261.5 313.5 254.5 325.0Q247.5 336.5 242.75 345.75Q238.0 355.0 238.0 358.5Q238.0 370.5 232.5 370.5Q225.0 370.5 209.5 346.0Q203.0 334.5 194.0 321.75Q185.0 309.0 179.0 303.0Q172.0 296.5 168.0 290.75Q164.0 285.0 164.0 283.0Q165.5 281.5 168.0 281.5Q170.5 281.5 174.75 282.5Q179.0 283.5 184.0 284.5Q198.5 288.5 212.5 288.5Q235.0 288.5 256.5 277.5Q264.0 273.5 277.0 265.0Q290.0 256.5 305.0 246.0Q320.0 235.5 333.5 225.75Q347.0 216.0 355.5 209.25Q364.0 202.5 364.0 201.0Q364.0 198.5 357.0 189.75Q350.0 181.0 339.0 169.25Q328.0 157.5 315.75 145.25Q303.5 133.0 293.0 123.5Q282.5 114.0 276.5 110.5Q262.5 101.5 242.5 92.5Q222.5 83.5 202.0 77.0Q198.5 75.0 198.5 72.5Q198.5 69.0 205.0 64.25Q211.5 59.5 226.5 51.5Q240.5 44.5 254.25 35.75Q268.0 27.0 273.5 22.0Z" fill="black" /></svg>