<svg xmlns="http://www.w3.org/2000/svg" width="473.0" height="453.0" viewBox="0 0 473.0 453.0"><path d="M128.5 320.5Q118.0 324.5 106.0 326.0Q94.0 327.5 82.5 327.5Q75.5 327.5 68.25 326.75Q61.0 326.0 57.0 324.0L46.0 320.0L58.5 343.5Q64.5 354.5 70.0 365.25Q75.5 376.0 77.0 379.5V381.0Q80.0 381.0 85.5 372.5Q89.5 367.0 99.25 356.0Q109.0 345.0 117.5 335.5H116.5Q120.5 330.0 123.75 326.25Q127.0 322.5 128.5 320.5ZM142.0 118.5H141.0Q135.0 111.0 129.25 100.5Q123.5 90.0 121.5 83.0L117.5 69.0L73.0 113.0L101.5 118.5Q105.5 119.0 109.75 119.75Q114.0 120.5 117.5 122.0Q127.5 124.0 135.75 125.25Q144.0 126.5 147.0 127.0Q148.5 127.5 150.5 128.5Q148.5 125.5 142.0 118.5ZM324.0 62.5Q325.0 57.0 325.25 51.25Q325.5 45.5 325.5 45.5Q322.0 47.5 314.0 52.75Q306.0 58.0 296.0 64.0L266.5 80.5L300.0 96.0Q313.0 102.0 323.25 107.0Q333.5 112.0 337.0 113.5Q336.5 111.0 334.75 107.5Q333.0 104.0 331.0 100.0Q326.5 92.5 325.25 82.0Q324.0 71.5 324.0 62.5ZM294.0 374.5 297.5 367.0Q301.5 359.0 305.75 353.5Q310.0 348.0 312.0 345.5Q310.5 346.0 309.0 347.0Q304.5 348.5 299.0 352.5Q294.0 355.5 281.5 358.0Q269.0 360.5 257.5 360.5H233.5L253.5 390.5Q264.0 408.0 269.5 408.0Q273.0 408.0 278.5 399.75Q284.0 391.5 294.0 374.5ZM119.5 39.0Q119.5 33.5 121.75 30.75Q124.0 28.0 126.5 28.0Q129.0 28.0 131.5 35.75Q134.0 43.5 134.0 55.5Q134.0 65.0 136.75 77.0Q139.5 89.0 143.0 94.5V94.0Q151.5 109.5 183.0 133.5Q214.5 157.5 268.5 191.5Q291.5 206.0 307.75 219.0Q324.0 232.0 324.0 235.5V237.5Q321.0 240.5 317.0 240.5Q314.5 240.5 313.5 239.5Q308.5 239.5 287.75 249.0Q267.0 258.5 240.0 272.0Q202.0 291.0 174.75 309.0Q147.5 327.0 128.5 346.0Q109.5 365.0 96.0 387.5L77.0 416.0L55.5 371.5Q47.5 354.5 37.0 337.25Q26.5 320.0 20.0 312.5Q16.0 307.0 13.0 302.75Q10.0 298.5 10.0 296.0Q10.0 292.5 13.5 292.5Q17.5 292.5 27.0 295.25Q36.5 298.0 53.5 304.5Q65.0 308.0 72.25 309.75Q79.5 311.5 86.5 311.5Q92.0 311.5 98.25 310.5Q104.5 309.5 113.5 307.5Q121.5 306.0 138.5 299.25Q155.5 292.5 177.25 282.75Q199.0 273.0 220.5 262.5L294.0 226.0Q281.5 218.0 269.25 210.75Q257.0 203.5 245.5 196.5Q231.0 186.5 216.5 178.25Q202.0 170.0 191.25 164.0Q180.5 158.0 176.0 156.0Q165.0 151.5 149.5 147.0Q134.0 142.5 117.75 138.75Q101.5 135.0 87.75 132.75Q74.0 130.5 66.5 130.5Q57.0 130.5 50.75 128.25Q44.5 126.0 44.5 124.0Q44.5 122.0 55.5 109.25Q66.5 96.5 82.5 82.0Q97.5 66.5 108.5 54.0Q119.5 41.5 119.5 39.0ZM326.5 24.0Q338.0 10.0 346.5 10.0H347.0Q350.0 10.5 350.0 15.0Q350.0 19.0 348.75 25.75Q347.5 32.5 344.5 39.5Q342.5 47.5 340.75 55.75Q339.0 64.0 339.0 71.0Q339.0 73.5 339.25 76.0Q339.5 78.5 340.5 80.5Q342.0 88.0 349.5 101.5Q357.0 115.0 368.5 131.5Q380.0 148.0 393.25 164.75Q406.5 181.5 419.0 195.5Q431.5 209.5 441.25 218.0Q451.0 226.5 455.5 226.5Q463.0 226.5 463.0 235.5Q463.0 237.0 462.75 238.25Q462.5 239.5 462.5 240.5Q461.5 246.0 457.75 250.0Q454.0 254.0 450.0 254.0Q447.5 254.0 437.5 260.25Q427.5 266.5 413.75 276.5Q400.0 286.5 385.5 298.0Q371.0 309.5 358.25 320.5Q345.5 331.5 338.0 339.5Q330.5 348.0 321.5 361.0Q312.5 374.0 304.0 388.0Q295.5 402.0 290.0 413.0Q284.5 424.0 284.5 428.5Q284.5 443.0 277.5 443.0Q269.0 443.0 249.5 413.0Q241.5 400.0 230.75 384.5Q220.0 369.0 213.0 362.0Q204.5 354.0 199.75 347.0Q195.0 340.0 195.0 338.0Q197.0 335.5 200.5 335.5Q203.0 335.5 208.0 337.0Q213.0 338.5 219.0 339.5Q227.0 342.0 236.0 343.0Q245.0 344.0 253.5 344.0Q281.5 344.0 306.0 331.0Q315.0 326.0 330.75 316.0Q346.5 306.0 364.5 293.5Q382.5 281.0 398.75 269.25Q415.0 257.5 425.25 249.0Q435.5 240.5 435.5 239.0Q435.5 236.5 427.0 226.0Q418.5 215.5 405.25 201.0Q392.0 186.5 377.25 171.75Q362.5 157.0 350.0 145.75Q337.5 134.5 330.5 130.5Q313.5 119.0 289.75 108.25Q266.0 97.5 241.0 90.0Q237.0 87.5 237.0 84.5Q237.0 80.5 244.75 74.75Q252.5 69.0 270.0 59.0Q287.0 50.5 303.5 40.25Q320.0 30.0 326.5 24.0Z" fill="black" /></svg>