<svg xmlns="http://www.w3.org/2000/svg" width="903.5" height="456.5" viewBox="0 0 903.5 456.5"><path d="M182.5 189.5Q190.5 178.0 196.5 169.0Q202.5 160.0 204.5 156.5Q200.0 160.0 185.75 171.75Q171.5 183.5 153.0 199.5Q137.5 213.0 120.0 227.25Q102.5 241.5 88.0 252.5Q83.5 256.5 79.25 260.25Q75.0 264.0 72.0 265.5L48.5 284.0L80.0 286.5Q96.0 288.0 108.25 289.75Q120.5 291.5 122.0 294.0Q123.0 294.5 125.5 294.5Q131.0 294.5 136.75 288.5Q142.5 282.5 142.5 274.5Q142.5 259.0 152.25 238.75Q162.0 218.5 182.5 189.5ZM263.5 252.0H263.0Q250.5 248.5 242.25 246.5Q234.0 244.5 230.0 244.5Q225.0 244.5 223.75 248.25Q222.5 252.0 222.5 259.5Q222.5 274.0 226.5 274.0Q229.0 274.0 234.5 271.25Q240.0 268.5 248.5 264.0Q257.0 261.0 263.75 258.25Q270.5 255.5 275.0 254.5Q273.0 254.0 270.25 253.25Q267.5 252.5 263.5 252.0ZM336.0 125.5Q333.5 122.0 327.0 122.0Q324.5 122.0 324.5 124.0Q324.5 125.5 326.25 130.75Q328.0 136.0 330.5 144.5Q333.5 154.5 336.5 162.0Q339.5 169.5 339.5 169.5Q340.5 169.5 344.75 163.5Q349.0 157.5 352.5 149.5L362.5 132.0H353.0Q348.5 132.0 343.25 129.75Q338.0 127.5 336.0 125.5ZM481.0 197.5Q474.5 191.5 463.5 181.0Q452.5 170.5 439.25 160.0Q426.0 149.5 413.0 142.25Q400.0 135.0 390.0 135.0Q385.0 135.0 380.75 138.0Q376.5 141.0 370.5 147.5H371.0Q350.0 173.0 347.0 222.0L344.5 241.0L376.0 243.0Q393.5 243.5 402.25 246.5Q411.0 249.5 411.0 252.0Q411.0 259.5 374.5 259.5H341.0L344.5 292.0L347.0 301.5Q348.0 312.5 348.5 320.0Q349.0 327.5 349.5 327.5Q351.5 329.5 353.0 329.5Q361.0 329.5 376.0 323.75Q391.0 318.0 410.25 308.0Q429.5 298.0 449.0 285.5Q470.5 271.5 489.5 259.75Q508.5 248.0 513.5 245.0V246.5Q519.5 241.5 519.5 241.0Q519.5 237.5 510.75 228.25Q502.0 219.0 481.0 197.5ZM423.0 95.5Q423.0 91.5 421.0 90.0Q418.5 90.5 410.75 96.0Q403.0 101.5 396.5 107.5Q390.0 113.5 390.0 115.5Q390.0 116.5 396.0 119.5Q402.0 122.5 410.75 126.0Q419.5 129.5 427.25 132.25Q435.0 135.0 438.0 135.0Q436.5 129.5 431.5 120.5Q428.0 114.5 425.5 106.75Q423.0 99.0 423.0 95.5ZM556.0 129.5Q550.5 128.5 543.75 126.75Q537.0 125.0 532.5 124.0Q531.0 123.5 528.5 123.5Q527.5 123.5 527.5 124.0Q527.5 126.5 529.75 132.0Q532.0 137.5 536.0 147.5L543.0 164.0L554.0 151.0Q559.0 144.0 562.0 140.0Q565.0 136.0 565.0 134.5Q565.0 133.5 556.0 129.5ZM759.5 180.5 740.0 171.5Q711.5 157.5 680.25 144.25Q649.0 131.0 616.25 122.0Q583.5 113.0 551.0 113.0H550.5Q560.5 117.0 574.5 119.5Q584.0 121.0 590.0 123.25Q596.0 125.5 596.0 128.0Q596.0 130.5 591.5 134.75Q587.0 139.0 581.5 144.5L578.5 145.5Q571.5 151.5 565.25 160.75Q559.0 170.0 556.5 176.5Q552.5 184.5 550.5 201.75Q548.5 219.0 548.5 239.5Q548.5 253.0 549.75 265.75Q551.0 278.5 552.0 290.5L556.0 314.5L589.0 309.5Q600.0 309.0 610.0 307.5Q620.0 306.0 632.5 302.75Q645.0 299.5 664.0 293.25Q683.0 287.0 712.0 277.25Q741.0 267.5 784.0 252.5L860.5 226.5L836.5 217.0Q827.0 212.0 805.25 201.75Q783.5 191.5 759.5 180.5ZM587.5 56.0V56.5Q582.0 48.5 577.0 48.5Q575.0 48.5 575.0 49.5Q575.0 51.5 571.0 59.25Q567.0 67.0 561.5 76.0Q553.0 87.0 551.0 94.0Q555.0 95.0 564.75 96.75Q574.5 98.5 587.0 100.5Q602.5 102.5 617.75 105.75Q633.0 109.0 639.5 111.5Q651.0 115.5 655.5 116.0Q653.5 113.5 646.75 108.25Q640.0 103.0 628.5 94.5Q614.0 83.0 602.0 72.25Q590.0 61.5 587.5 56.0ZM368.0 356.5Q373.5 351.0 376.75 346.5Q380.0 342.0 381.5 339.5Q376.0 340.5 365.25 342.75Q354.5 345.0 344.75 347.25Q335.0 349.5 332.5 350.5V351.0Q332.5 354.0 335.0 361.0Q337.5 368.0 340.5 374.25Q343.5 380.5 344.5 380.5H345.0Q348.0 378.0 354.5 371.5Q361.0 365.0 368.0 356.5ZM587.5 341.0Q598.0 335.0 604.5 330.75Q611.0 326.5 614.0 324.5Q609.0 325.0 595.25 325.5Q581.5 326.0 566.5 327.0H559.5L520.0 328.5L520.5 354.0Q523.0 381.5 530.5 381.5Q534.0 381.5 541.0 373.0Q544.0 369.5 558.0 360.0Q572.0 350.5 587.5 341.0ZM278.5 58.5Q279.5 54.0 283.5 50.75Q287.5 47.5 290.5 47.5Q291.5 47.5 293.0 48.75Q294.5 50.0 294.5 53.5Q294.5 59.0 284.25 74.75Q274.0 90.5 256.5 110.5Q250.0 118.5 238.25 134.0Q226.5 149.5 213.25 168.75Q200.0 188.0 187.75 207.5Q175.5 227.0 167.5 243.25Q159.5 259.5 158.5 269.0Q157.0 274.0 156.75 277.25Q156.5 280.5 156.5 283.5Q156.5 290.5 163.5 290.5Q172.0 290.5 172.0 294.5Q172.0 297.0 167.0 300.5Q162.0 303.0 162.0 307.5Q162.0 315.0 171.5 326.75Q181.0 338.5 198.0 353.0Q210.5 362.5 223.5 375.5Q236.5 388.5 247.5 401.75Q258.5 415.0 265.25 425.75Q272.0 436.5 272.0 441.5V445.0L270.5 446.5Q267.5 446.5 260.5 439.75Q253.5 433.0 244.5 422.0Q237.0 410.5 220.75 394.5Q204.5 378.5 185.0 361.75Q165.5 345.0 146.75 331.5Q128.0 318.0 115.5 311.5Q106.0 306.0 92.25 303.75Q78.5 301.5 54.5 301.5Q36.0 301.5 23.0 299.5Q10.0 297.5 10.0 294.5Q10.0 292.5 20.25 284.5Q30.5 276.5 44.5 267.0Q60.5 256.0 83.25 238.0Q106.0 220.0 131.75 198.25Q157.5 176.5 182.75 154.0Q208.0 131.5 229.0 111.5Q250.0 91.5 263.5 77.5Q277.0 63.5 278.5 58.5ZM566.5 28.5Q566.5 21.5 568.25 15.75Q570.0 10.0 573.0 10.0Q580.0 10.0 580.0 19.5Q580.0 25.0 590.25 37.25Q600.5 49.5 619.0 65.75Q637.5 82.0 661.0 100.5Q698.0 127.5 749.75 155.5Q801.5 183.5 861.0 208.5Q875.5 215.0 884.5 222.0Q893.5 229.0 893.5 232.0V233.5Q891.5 236.5 887.0 236.5Q885.5 236.5 884.0 236.5Q882.5 236.5 881.0 236.0Q880.5 234.5 879.0 234.25Q877.5 234.0 877.0 234.0Q875.0 234.0 873.25 235.0Q871.5 236.0 871.5 236.5V236.0Q871.5 237.5 860.25 242.5Q849.0 247.5 830.75 254.0Q812.5 260.5 791.5 268.0Q770.0 274.5 749.0 281.75Q728.0 289.0 711.75 295.5Q695.5 302.0 688.0 306.0Q656.5 321.5 625.25 339.25Q594.0 357.0 570.0 372.75Q546.0 388.5 534.5 399.0Q508.5 423.5 503.0 423.5Q499.5 423.5 499.5 419.0Q499.5 415.5 501.0 410.5Q506.5 402.0 508.5 390.5Q510.5 379.0 510.5 368.0Q510.5 351.0 506.75 337.5Q503.0 324.0 496.0 320.5Q492.5 318.5 489.5 314.75Q486.5 311.0 486.5 306.0Q486.5 302.5 488.0 299.75Q489.5 297.0 491.5 297.0H492.5L495.5 298.5Q498.5 299.5 502.5 302.0Q506.5 304.5 511.5 306.0Q517.5 308.5 521.25 310.0Q525.0 311.5 528.5 311.5Q537.5 311.5 537.5 296.5Q537.5 285.0 536.0 274.75Q534.5 264.5 532.0 254.0Q511.5 266.5 485.5 283.0Q459.5 299.5 433.5 318.75Q407.5 338.0 386.25 358.75Q365.0 379.5 354.5 400.5Q344.0 423.5 338.5 423.5Q332.5 423.5 332.5 406.5Q332.5 398.0 328.5 385.25Q324.5 372.5 318.5 362.0Q312.5 351.5 307.0 349.0Q302.5 346.5 299.25 341.5Q296.0 336.5 296.0 333.0Q296.0 325.0 301.0 325.0Q301.5 325.0 303.5 326.25Q305.5 327.5 308.5 328.5Q319.5 333.5 327.5 333.5Q330.0 333.5 331.25 332.0Q332.5 330.5 332.5 325.0Q332.5 321.5 332.0 311.75Q331.5 302.0 330.5 290.5Q329.5 279.0 328.75 270.0Q328.0 261.0 327.0 259.5Q317.0 259.5 299.75 264.0Q282.5 268.5 266.0 274.75Q249.5 281.0 240.5 286.5V285.5Q234.0 291.0 227.75 298.5Q221.5 306.0 219.0 310.5Q213.0 327.5 207.0 327.5Q202.5 327.5 202.5 318.0Q202.5 317.0 202.75 314.5Q203.0 312.0 203.5 309.5Q206.5 292.0 208.0 280.0Q209.5 268.0 209.5 259.5Q209.5 252.0 208.0 246.25Q206.5 240.5 204.0 234.0Q201.5 228.0 200.0 222.0Q198.5 216.0 198.5 213.5L200.0 211.5Q202.5 211.5 210.75 215.0Q219.0 218.5 228.0 223.0Q252.0 232.5 292.0 236.5L334.5 239.5L332.0 211.5Q331.5 199.5 326.5 180.25Q321.5 161.0 316.0 147.5Q310.5 134.0 307.5 123.25Q304.5 112.5 304.5 109.0V107.5Q305.5 104.0 312.0 104.0Q315.5 104.0 321.0 105.0Q326.5 106.0 332.5 107.0Q342.0 109.0 349.5 109.0Q365.5 109.0 379.75 100.5Q394.0 92.0 411.5 74.0H411.0Q418.0 64.5 425.0 59.25Q432.0 54.0 433.0 55.5V61.5Q433.5 65.5 433.75 70.0Q434.0 74.5 435.0 80.0Q436.0 96.0 445.25 117.0Q454.5 138.0 469.25 159.5Q484.0 181.0 501.0 199.5L531.0 228.5L532.5 210.0Q532.5 202.0 530.5 189.25Q528.5 176.5 525.0 162.5Q521.5 148.5 516.5 137.0Q511.5 125.5 505.0 120.5Q497.0 114.0 497.0 109.0Q497.0 102.0 517.0 95.5Q528.5 91.5 539.75 79.75Q551.0 68.0 558.75 53.75Q566.5 39.5 566.5 28.5Z" fill="black" /></svg>