<svg xmlns="http://www.w3.org/2000/svg" width="857.0" height="380.0" viewBox="0 0 857.0 380.0"><path d="M122.0 267.0 111.0 255.5Q104.5 249.0 96.75 238.0Q89.0 227.0 85.0 217.5L77.0 199.0L59.5 227.0Q51.5 239.5 44.5 250.25Q37.5 261.0 36.0 262.0Q32.0 263.0 32.0 264.0Q32.0 266.5 79.0 267.0ZM311.0 260.0Q308.5 258.5 300.25 252.75Q292.0 247.0 282.0 240.75Q272.0 234.5 264.5 229.75Q257.0 225.0 256.0 225.0V236.0Q256.0 240.5 256.25 246.0Q256.5 251.5 256.5 257.0Q258.5 287.0 262.5 288.0H263.5Q266.0 287.0 273.5 283.0Q281.0 279.0 289.75 274.0Q298.5 269.0 304.75 265.0Q311.0 261.0 311.0 260.0ZM384.0 265.0Q381.0 265.0 372.25 261.25Q363.5 257.5 355.5 252.5L337.0 239.5L335.5 266.5Q335.0 275.5 334.5 283.0Q334.0 290.5 334.0 294.0Q337.0 293.0 346.0 289.0Q355.0 285.0 365.25 280.0Q375.5 275.0 383.0 270.75Q390.5 266.5 390.5 265.5Q390.5 265.5 388.5 265.25Q386.5 265.0 384.0 265.0ZM287.0 153.5 314.0 138.0Q305.0 132.5 296.75 126.75Q288.5 121.0 280.0 115.0Q274.5 111.5 270.0 108.75Q265.5 106.0 262.5 104.5L253.0 97.5L255.0 133.5Q256.0 146.5 256.75 157.25Q257.5 168.0 258.0 170.5Q261.0 169.0 269.25 164.5Q277.5 160.0 287.0 153.5ZM335.0 158.0H334.0V158.5Q334.0 158.5 334.25 158.25Q334.5 158.0 335.0 158.0ZM341.0 109.5V110.5Q339.0 106.5 337.0 106.5Q334.5 106.5 333.5 132.5Q333.5 142.5 333.75 150.25Q334.0 158.0 335.0 158.0Q336.0 157.0 338.0 156.25Q340.0 155.5 343.0 153.5Q347.0 151.5 351.75 149.0Q356.5 146.5 361.5 144.0L382.5 133.5L365.5 126.0Q356.5 121.5 349.0 117.0Q341.5 112.5 341.0 109.5ZM457.0 188.5 463.5 181.0H409.0L438.0 219.0L442.5 210.0Q445.0 205.0 449.25 199.0Q453.5 193.0 457.0 188.5ZM168.5 76.0 178.0 65.5H145.0Q128.0 65.5 121.25 65.5Q114.5 65.5 114.0 66.5L117.0 69.5Q119.5 73.0 124.5 81.0Q129.5 89.0 134.0 97.5L142.0 115.0L146.5 103.5Q150.5 98.0 156.75 90.25Q163.0 82.5 168.5 76.0ZM571.5 149.5 570.0 147.5Q560.5 140.5 554.5 137.0Q548.5 133.5 545.0 133.5Q541.5 133.5 541.5 145.5Q541.5 148.5 542.0 156.75Q542.5 165.0 543.25 174.25Q544.0 183.5 544.75 190.5Q545.5 197.5 546.0 198.0Q547.0 198.0 553.25 193.5Q559.5 189.0 567.25 183.0Q575.0 177.0 581.25 171.5Q587.5 166.0 589.0 164.5Q585.5 161.0 571.5 149.5ZM620.5 135.0Q616.0 129.0 613.5 129.0Q609.0 129.0 609.0 158.5V188.5Q616.5 184.5 623.75 180.5Q631.0 176.5 638.0 173.0L664.0 160.0L648.0 152.5Q639.5 148.5 631.75 143.5Q624.0 138.5 620.5 135.0ZM439.0 36.5H438.0L446.5 27.0H398.0L407.0 36.5Q410.5 40.5 413.75 44.75Q417.0 49.0 419.0 51.5Q422.0 57.0 423.5 57.0Q425.0 57.0 425.0 55.5V56.0Q425.5 53.5 429.5 47.5Q433.5 41.5 439.0 36.5ZM729.0 31.5H680.5Q687.0 41.0 691.25 52.5Q695.5 64.0 699.0 74.5Q703.0 86.5 704.5 86.5Q704.5 86.5 705.0 85.5Q705.5 84.5 706.0 83.5Q707.0 79.5 710.5 71.0Q714.0 62.5 718.0 54.5Q722.0 46.5 725.25 39.75Q728.5 33.0 729.0 31.5ZM90.0 52.5 91.0 51.0V50.0Q92.0 50.0 93.75 49.75Q95.5 49.5 97.5 49.5Q99.5 49.5 101.0 49.5Q102.5 49.5 104.5 50.0Q108.0 51.0 123.5 51.75Q139.0 52.5 158.0 52.5Q187.0 52.5 195.5 54.25Q204.0 56.0 204.0 61.0Q204.0 70.0 197.5 70.0Q194.5 70.0 188.5 74.75Q182.5 79.5 175.5 86.5Q166.5 96.5 161.25 109.0Q156.0 121.5 154.0 142.0Q152.0 162.5 152.0 196.0V211.5L153.5 271.5Q173.0 281.5 197.75 294.0Q222.5 306.5 242.0 316.5Q267.0 329.0 287.0 340.25Q307.0 351.5 318.5 359.0Q330.0 366.5 329.5 368.5Q328.0 370.0 327.5 370.0Q322.5 370.0 299.0 359.5Q275.5 349.0 245.0 333.5Q223.0 322.0 203.25 312.5Q183.5 303.0 170.0 296.75Q156.5 290.5 153.5 289.5Q144.0 286.5 128.75 284.5Q113.5 282.5 96.5 281.25Q79.5 280.0 64.0 280.0Q58.0 280.0 52.5 280.0Q47.0 280.0 42.5 280.5Q34.5 281.5 26.5 282.25Q18.5 283.0 10.5 283.0L10.0 280.5Q10.0 278.0 13.5 271.75Q17.0 265.5 22.5 258.5Q28.0 251.0 38.75 235.0Q49.5 219.0 58.0 204.5Q66.5 189.5 73.5 179.25Q80.5 169.0 82.5 169.0H83.5Q86.5 174.0 88.0 185.5Q89.0 194.5 95.75 208.75Q102.5 223.0 111.25 236.0Q120.0 249.0 127.5 255.5L139.5 264.0V202.0Q139.5 178.5 139.25 164.75Q139.0 151.0 137.75 142.5Q136.5 134.0 134.0 127.0Q131.5 120.0 126.5 110.5Q121.5 100.5 114.25 88.75Q107.0 77.0 101.5 71.0Q90.0 59.5 90.0 52.5ZM369.0 15.0Q369.0 10.0 378.0 10.0Q379.5 10.0 381.75 10.0Q384.0 10.0 387.0 10.5Q394.0 11.5 410.0 12.5Q426.0 13.5 442.0 13.5Q459.5 13.5 470.75 15.25Q482.0 17.0 482.0 20.5Q482.0 27.0 474.5 27.0Q472.0 27.0 465.75 31.25Q459.5 35.5 452.5 41.0Q444.5 48.0 441.0 52.75Q437.5 57.5 436.5 64.5Q435.5 71.5 434.5 86.0Q434.0 89.5 433.75 93.0Q433.5 96.5 433.5 100.0Q433.5 108.0 434.5 113.75Q435.5 119.5 436.0 120.5Q438.5 122.0 458.0 122.0Q463.5 122.0 475.0 121.75Q486.5 121.5 498.5 120.5Q510.5 119.5 519.0 117.75Q527.5 116.0 527.5 112.5Q527.5 101.5 532.5 101.5Q533.5 102.0 544.0 109.75Q554.5 117.5 567.0 129.0L596.0 152.5L596.5 130.5Q597.5 118.0 599.25 109.75Q601.0 101.5 602.5 101.5Q604.0 101.5 610.5 106.75Q617.0 112.0 624.0 120.0Q638.5 134.0 658.25 141.75Q678.0 149.5 698.5 149.5Q702.0 149.5 702.75 148.0Q703.5 146.5 703.5 143.0Q703.5 134.0 699.75 118.25Q696.0 102.5 690.0 84.75Q684.0 67.0 677.0 52.5Q671.5 40.5 667.5 31.75Q663.5 23.0 663.5 21.0Q663.5 18.5 671.75 18.0Q680.0 17.5 691.0 17.5Q703.5 17.5 716.5 18.0Q729.5 18.5 739.0 19.25Q748.5 20.0 749.5 21.0V22.5Q749.5 24.5 746.75 29.25Q744.0 34.0 740.0 40.5Q727.5 56.0 721.5 76.5Q715.5 97.0 715.5 122.0V150.5H780.0Q811.5 150.5 829.25 152.0Q847.0 153.5 847.0 157.0Q847.0 160.0 829.25 162.0Q811.5 164.0 780.0 164.0H715.5V222.5Q715.5 252.5 713.75 269.5Q712.0 286.5 709.5 286.5Q707.0 286.5 705.25 269.5Q703.5 252.5 703.5 222.5Q703.5 197.5 703.25 185.0Q703.0 172.5 702.0 168.25Q701.0 164.0 698.5 164.0Q694.5 164.0 684.5 167.5Q674.5 171.0 662.25 176.5Q650.0 182.0 638.25 188.0Q626.5 194.0 619.0 199.5L614.5 202.5Q608.0 206.0 603.25 209.0Q598.5 212.0 597.5 212.0Q594.5 212.0 594.5 204.5Q594.5 199.0 596.0 191.5Q596.5 187.5 597.0 183.75Q597.5 180.0 597.5 176.5Q595.5 176.5 586.25 183.5Q577.0 190.5 564.0 200.5Q552.0 210.0 542.5 216.0Q533.0 222.0 529.0 222.0Q526.5 222.0 526.5 221.0V222.0Q524.5 220.0 524.5 217.5Q524.5 215.5 525.25 213.5Q526.0 211.5 528.0 210.0Q532.5 207.5 532.5 191.5Q532.5 184.0 531.5 173.5Q530.5 163.0 529.0 149.0L526.5 132.5H505.0Q495.5 132.5 482.0 133.5Q468.5 134.5 459.5 135.5L437.5 138.5V170.0L465.0 169.0Q468.5 168.5 471.25 168.5Q474.0 168.5 477.0 168.5Q484.5 168.5 489.5 169.75Q494.5 171.0 494.5 173.5Q494.5 175.0 489.0 180.75Q483.5 186.5 474.5 193.0V192.0Q446.5 213.0 446.5 248.5Q446.5 252.0 449.5 253.75Q452.5 255.5 465.5 255.75Q478.5 256.0 508.0 256.0H554.0Q568.5 256.0 573.5 256.75Q578.5 257.5 578.5 260.0Q578.5 261.0 577.25 262.0Q576.0 263.0 575.0 264.0L573.5 265.0Q571.0 266.5 551.25 268.0Q531.5 269.5 506.5 269.5H448.5L450.0 306.5Q451.0 313.0 451.0 318.0Q451.0 323.0 451.0 327.5Q451.0 348.5 445.5 348.5Q443.5 348.5 441.5 337.5Q439.5 326.5 439.0 309.5Q438.5 294.5 437.0 283.25Q435.5 272.0 434.5 271.5Q433.5 271.0 431.5 271.0Q425.5 271.0 412.5 275.25Q399.5 279.5 384.0 286.0Q368.5 292.5 355.0 300.5Q343.5 308.0 333.5 313.0Q323.5 318.0 323.0 318.0Q320.5 318.0 320.5 309.5Q320.5 306.0 320.75 301.0Q321.0 296.0 322.0 291.0V289.0Q323.0 283.5 323.0 279.25Q323.0 275.0 323.0 272.5Q323.0 270.0 323.5 269.5Q322.5 270.0 316.25 273.25Q310.0 276.5 301.5 282.0Q297.0 285.0 288.5 290.0Q280.0 295.0 270.25 300.5Q260.5 306.0 252.25 309.75Q244.0 313.5 241.0 313.5H239.5Q239.0 312.5 238.5 311.25Q238.0 310.0 238.0 309.5Q238.0 305.0 243.5 301.5Q245.0 300.5 246.0 298.0Q247.0 295.5 247.0 289.0Q247.0 283.5 246.5 275.25Q246.0 267.0 245.0 254.5Q244.0 242.0 243.25 231.5Q242.5 221.0 242.5 214.5Q242.5 210.5 243.0 207.75Q243.5 205.0 244.0 204.0H245.0Q247.5 204.0 254.5 208.0Q261.5 212.0 270.25 217.5Q279.0 223.0 286.5 228.0Q294.0 233.0 297.5 235.0Q304.5 239.0 309.75 242.25Q315.0 245.5 317.0 246.5Q319.5 248.0 321.0 249.0Q322.5 250.0 323.5 250.0V248.5Q323.5 245.5 322.0 234.5Q321.5 231.0 321.5 227.75Q321.5 224.5 321.5 222.5Q321.5 212.0 326.0 212.0Q330.0 212.0 341.0 224.0Q349.5 233.0 363.5 240.25Q377.5 247.5 392.5 251.75Q407.5 256.0 419.0 256.0Q426.0 256.0 430.25 254.25Q434.5 252.5 434.5 248.5Q434.5 242.5 428.75 231.5Q423.0 220.5 414.5 208.75Q406.0 197.0 397.5 190.0Q391.0 184.5 386.25 179.25Q381.5 174.0 381.5 172.0Q381.5 171.0 388.75 169.25Q396.0 167.5 405.5 167.5H426.5V155.0Q426.5 141.0 420.5 138.5Q410.5 138.5 396.0 143.75Q381.5 149.0 368.0 156.25Q354.5 163.5 346.0 169.0Q338.0 174.0 331.75 177.5Q325.5 181.0 324.5 181.0Q322.5 181.0 321.25 176.0Q320.0 171.0 320.0 163.0Q320.0 158.0 320.0 154.25Q320.0 150.5 319.0 150.5Q318.5 150.5 308.25 156.75Q298.0 163.0 283.5 172.0Q266.5 182.5 254.5 188.75Q242.5 195.0 239.0 195.0Q236.0 195.0 236.0 192.0Q236.0 189.0 240.5 185.5Q242.0 182.5 243.5 173.75Q245.0 165.0 245.0 152.5Q245.0 131.5 241.0 105.0Q240.5 98.0 240.0 92.25Q239.5 86.5 239.5 83.0Q239.5 79.0 240.5 77.5Q242.5 77.5 254.25 83.75Q266.0 90.0 280.0 99.0Q283.5 101.0 292.75 107.25Q302.0 113.5 310.75 119.0Q319.5 124.5 321.5 125.0L322.0 126.0Q322.0 120.5 322.0 115.75Q322.0 111.0 321.5 106.0Q321.0 102.0 320.75 98.5Q320.5 95.0 320.5 92.5Q320.5 80.5 326.0 80.5Q331.5 80.5 342.0 94.0Q354.0 105.0 368.25 111.75Q382.5 118.5 402.5 121.5L422.0 124.5V103.0Q422.0 89.5 416.0 75.0Q410.0 60.5 400.25 48.0Q390.5 35.5 380.0 28.0V28.5Q369.0 21.0 369.0 15.0Z" fill="black" /></svg>