<svg xmlns="http://www.w3.org/2000/svg" width="947.5" height="383.5" viewBox="0 0 947.5 383.5"><path d="M433.0 343.0 417.0 337.0Q395.5 329.5 390.0 329.5Q386.5 329.5 386.5 333.0Q386.5 335.0 387.0 340.25Q387.5 345.5 388.75 349.75Q390.0 354.0 392.5 354.0H393.0Q393.5 354.0 399.5 352.25Q405.5 350.5 411.75 348.75Q418.0 347.0 419.0 346.5ZM120.0 175.0Q124.5 169.5 127.5 164.75Q130.5 160.0 132.0 157.0Q126.5 160.5 113.25 171.25Q100.0 182.0 84.0 195.0L39.0 233.0L63.5 235.0Q71.0 236.0 77.75 236.75Q84.5 237.5 89.5 237.5Q92.0 237.5 93.5 237.0Q95.0 236.5 95.5 236.5Q96.5 235.0 98.25 229.75Q100.0 224.5 101.0 219.5Q102.0 211.0 107.75 197.75Q113.5 184.5 120.0 175.0ZM223.0 227.0 205.0 217.0Q201.5 215.5 198.25 214.0Q195.0 212.5 192.5 211.5Q188.0 209.0 185.0 207.5Q182.0 206.0 182.0 206.0V224.5Q182.0 232.5 182.0 238.25Q182.0 244.0 182.5 244.0Q183.5 244.0 190.25 241.0Q197.0 238.0 205.5 233.5ZM251.0 139.0 257.0 131.0H226.5L231.5 139.0Q238.0 149.0 240.5 149.0Q244.5 149.0 251.0 139.0ZM319.5 147.5Q322.0 147.5 326.75 140.75Q331.5 134.0 331.5 131.5Q331.5 131.0 318.5 131.0H306.0L311.5 139.0Q316.0 147.5 319.5 147.5ZM411.5 185.5Q409.0 184.5 407.0 183.5Q405.0 182.5 404.0 182.5Q402.5 182.5 402.5 187.5Q402.5 192.0 407.0 192.0Q411.0 192.0 413.25 190.5Q415.5 189.0 415.5 188.0Q415.5 186.0 411.5 185.5ZM411.5 232.0Q409.0 231.0 407.0 230.0Q405.0 229.0 404.0 229.0Q402.5 229.0 402.5 234.5Q402.5 239.0 407.0 239.0Q415.5 239.0 415.5 235.0Q415.5 233.5 411.5 232.0ZM414.0 280.5Q408.5 276.5 405.5 276.5Q402.5 276.5 402.5 283.5Q402.5 288.5 403.5 288.5Q404.5 288.5 406.25 287.5Q408.0 286.5 410.0 285.5Q416.0 283.0 416.0 282.0Q416.0 281.0 414.0 280.5ZM412.5 138.5H411.5Q409.0 137.5 407.0 136.5Q405.0 135.5 404.0 135.5Q402.5 135.5 402.5 140.5Q402.5 145.0 405.0 145.0Q408.0 145.0 413.0 140.5Q415.5 139.5 416.0 139.0Q416.0 139.0 415.0 139.0Q414.0 139.0 412.5 138.5ZM624.5 218.0H593.0L562.0 217.0V233.0Q562.0 239.0 562.0 243.75Q562.0 248.5 562.5 248.5Q564.5 248.5 574.25 244.25Q584.0 240.0 595.5 234.0Q607.0 228.0 615.75 223.25Q624.5 218.5 624.5 218.0ZM317.0 72.5 325.5 71.0Q323.5 69.0 314.75 64.25Q306.0 59.5 297.75 55.5Q289.5 51.5 288.0 51.5Q286.5 51.5 286.0 56.25Q285.5 61.0 285.5 68.0Q285.5 84.0 290.5 84.0Q296.0 84.0 298.5 80.5Q300.5 78.5 305.5 75.75Q310.5 73.0 317.0 72.5ZM533.0 47.0Q526.5 43.0 521.5 40.25Q516.5 37.5 516.0 37.5Q515.5 37.5 512.5 43.5Q509.5 49.5 505.75 57.25Q502.0 65.0 499.25 71.5Q496.5 78.0 496.5 79.5H504.0Q507.5 79.5 509.75 77.75Q512.0 76.0 512.0 74.5Q512.0 69.5 518.0 67.5Q524.0 65.5 541.0 65.0H560.0Q559.0 65.0 558.0 64.0Q556.0 62.5 552.75 60.25Q549.5 58.0 545.5 56.0Q543.0 53.5 539.25 51.25Q535.5 49.0 533.0 47.0ZM562.0 96.0Q562.5 94.5 563.0 93.0Q563.5 91.5 563.5 91.0Q563.5 88.5 550.5 88.5Q540.0 88.5 539.0 91.0Q539.0 93.0 540.5 96.0Q542.0 99.5 543.25 106.0Q544.5 112.5 546.5 117.5V119.0Q548.0 131.0 550.5 131.0Q553.5 131.0 556.0 119.0V117.5Q557.5 112.5 558.75 106.0Q560.0 99.5 562.0 96.0ZM639.0 88.5H640.0Q627.0 85.0 618.5 85.0H617.0Q594.5 87.0 586.75 89.25Q579.0 91.5 576.5 95.5Q574.5 100.0 571.25 110.75Q568.0 121.5 564.75 135.0Q561.5 148.5 559.0 160.75Q556.5 173.0 556.0 180.0Q556.0 195.5 568.5 200.5Q581.0 205.5 594.5 205.5Q602.5 205.5 614.0 204.25Q625.5 203.0 644.5 200.0Q662.0 197.0 687.0 193.25Q712.0 189.5 739.75 185.0Q767.5 180.5 794.25 176.0Q821.0 171.5 842.75 168.0Q864.5 164.5 877.5 162.25Q890.5 160.0 890.0 160.0Q890.0 159.0 874.0 154.25Q858.0 149.5 831.5 142.25Q805.0 135.0 772.5 126.5Q740.5 117.5 711.75 109.25Q683.0 101.0 663.25 95.5Q643.5 90.0 639.0 88.5ZM175.0 94.5Q182.0 86.5 188.25 80.5Q194.5 74.5 195.5 74.5Q199.0 74.5 199.0 79.0Q199.0 83.5 192.75 93.75Q186.5 104.0 176.5 117.0Q159.0 138.0 144.0 161.5Q129.0 185.0 120.25 204.5Q111.5 224.0 111.5 233.5Q111.5 239.0 115.0 239.0Q119.5 239.0 119.5 244.0V246.0Q118.0 248.0 118.0 250.5Q118.0 255.5 125.25 263.25Q132.5 271.0 149.0 284.0Q162.5 294.5 174.0 306.0Q185.5 317.5 192.5 326.75Q199.5 336.0 199.5 340.5Q199.5 341.5 198.75 343.75Q198.0 346.0 196.0 346.0Q194.0 346.0 189.25 341.5Q184.5 337.0 178.0 330.5Q173.5 324.5 161.5 313.75Q149.5 303.0 134.75 291.25Q120.0 279.5 105.75 269.25Q91.5 259.0 82.5 253.5Q78.0 251.0 67.5 249.75Q57.0 248.5 46.0 248.5Q10.0 248.5 10.0 239.5Q10.0 233.0 28.0 221.0Q37.0 215.0 53.0 202.75Q69.0 190.5 87.75 174.75Q106.5 159.0 124.5 143.0Q142.5 127.0 156.25 114.0Q170.0 101.0 175.0 94.5ZM286.5 120.5Q286.5 118.0 293.25 117.0Q300.0 116.0 310.0 116.0H323.0Q360.5 117.5 360.5 125.0Q360.5 128.5 352.0 132.5Q341.5 136.0 334.5 153.0Q327.5 170.0 327.5 190.5V216.0H388.5L389.5 168.0Q389.5 147.5 390.75 131.5Q392.0 115.5 392.5 114.0H393.0Q395.0 114.0 400.75 116.25Q406.5 118.5 413.0 122.0Q420.5 125.5 428.5 127.5Q436.5 129.5 448.25 130.25Q460.0 131.0 479.5 131.0Q501.5 131.0 515.25 133.0Q529.0 135.0 529.0 137.5Q529.0 141.0 517.0 143.0Q505.0 145.0 486.0 145.0Q462.0 145.0 448.5 147.0Q435.0 149.0 423.5 154.0Q414.5 157.5 408.5 160.25Q402.5 163.0 402.5 163.5Q402.5 163.5 406.5 166.0Q410.5 168.5 415.5 171.0Q422.5 175.0 437.25 176.5Q452.0 178.0 478.5 178.0Q501.0 178.0 515.0 180.0Q529.0 182.0 529.0 185.5Q529.0 188.0 517.75 190.0Q506.5 192.0 489.0 192.0Q470.5 192.0 452.0 194.5Q433.5 197.0 420.5 201.0Q407.5 205.0 405.0 210.0Q405.0 215.5 415.25 218.5Q425.5 221.5 439.5 222.75Q453.5 224.0 465.0 224.25Q476.5 224.5 478.5 224.5Q499.0 224.5 514.0 226.5Q529.0 228.5 529.0 231.5Q529.0 233.5 515.25 236.25Q501.5 239.0 482.5 239.5Q459.5 240.0 443.25 243.0Q427.0 246.0 418.5 250.0L402.0 256.5L411.0 262.5Q415.5 266.5 421.25 268.5Q427.0 270.5 439.0 271.0Q451.0 271.5 474.0 271.5Q499.0 271.5 514.0 273.5Q529.0 275.5 529.0 279.0Q529.0 281.5 517.75 283.5Q506.5 285.5 489.0 285.5Q466.0 285.5 452.75 288.0Q439.5 290.5 423.5 297.5Q400.5 306.5 393.0 306.5H391.5Q390.5 305.5 390.0 298.25Q389.5 291.0 389.5 280.5V229.0H327.5V246.0Q327.5 254.5 326.0 259.75Q324.5 265.0 321.5 265.0H321.0Q319.0 263.0 317.0 256.75Q315.0 250.5 315.0 243.5V229.0H289.0Q271.0 229.0 262.0 230.25Q253.0 231.5 250.25 235.75Q247.5 240.0 247.5 249.0Q247.5 265.0 242.0 265.0H241.5Q235.5 260.0 235.5 247.5Q235.5 240.5 230.0 240.5Q222.0 240.5 194.5 256.0Q186.5 259.5 180.5 261.75Q174.5 264.0 172.0 264.0Q169.5 264.0 169.5 261.0V222.5Q170.0 200.0 171.5 189.75Q173.0 179.5 176.5 179.5Q179.0 179.5 181.0 182.5Q183.5 186.5 193.0 193.25Q202.5 200.0 213.0 205.25Q223.5 210.5 227.5 210.5Q232.5 210.5 235.0 205.5Q237.5 200.5 237.5 192.5Q237.5 186.0 235.75 177.75Q234.0 169.5 230.0 161.5Q226.0 153.0 221.75 144.75Q217.5 136.5 214.5 135.5Q208.0 129.5 208.0 126.0Q208.0 117.0 243.5 117.0Q258.5 117.0 269.75 118.5Q281.0 120.0 281.0 123.0Q281.0 125.0 276.5 130.25Q272.0 135.5 266.0 140.5Q255.5 152.5 251.75 168.5Q248.0 184.5 248.0 200.0Q248.0 211.0 255.25 213.5Q262.5 216.0 284.0 216.0H315.0V195.5Q315.0 184.5 311.5 173.75Q308.0 163.0 301.0 149.5Q295.5 139.5 291.0 131.0Q286.5 122.5 286.5 120.5ZM492.0 62.0 500.0 36.5Q509.0 10.0 515.0 10.0Q518.5 10.0 521.5 18.5Q524.0 26.5 537.5 35.0Q551.0 43.5 581.75 54.75Q612.5 66.0 665.75 81.75Q719.0 97.5 801.5 120.0Q838.5 130.0 869.5 139.0Q900.5 148.0 919.0 154.0Q937.5 160.0 937.5 161.5Q937.5 163.0 926.5 166.25Q915.5 169.5 899.5 172.0Q889.5 173.5 868.0 177.0Q846.5 180.5 819.0 184.75Q791.5 189.0 764.0 193.5Q730.5 199.5 709.75 203.5Q689.0 207.5 675.75 211.25Q662.5 215.0 652.25 219.5Q642.0 224.0 629.5 230.5Q614.0 238.0 597.0 248.0Q580.0 258.0 572.5 263.5Q563.0 270.5 558.75 275.0Q554.5 279.5 553.5 285.75Q552.5 292.0 552.0 305.5V332.5H603.0Q627.5 332.5 640.5 334.5Q653.5 336.5 653.5 340.0V341.5Q651.5 344.0 636.75 345.25Q622.0 346.5 600.5 346.5Q552.0 346.5 550.5 352.0Q548.5 356.5 546.5 356.5Q545.0 356.5 542.0 352.0Q541.0 349.0 534.0 347.5Q527.0 346.0 516.0 346.0Q500.5 346.0 479.75 348.75Q459.0 351.5 437.75 356.25Q416.5 361.0 398.5 367.5Q390.5 369.5 384.75 371.5Q379.0 373.5 377.5 373.5H376.0Q375.5 372.0 375.0 363.5Q374.5 355.0 374.0 344.25Q373.5 333.5 373.5 325.0Q373.5 319.0 373.75 314.75Q374.0 310.5 374.5 309.5V310.0Q375.5 309.0 377.5 308.0Q381.0 308.0 388.25 310.75Q395.5 313.5 405.0 317.5Q416.0 322.5 425.5 325.5Q435.0 328.5 448.75 329.75Q462.5 331.0 486.0 332.0L540.5 334.0V236.0Q540.5 195.5 540.0 172.0Q539.5 148.5 537.75 135.25Q536.0 122.0 533.0 113.0Q529.0 101.5 526.5 97.75Q524.0 94.0 518.5 94.0Q510.5 94.0 501.5 96.0Q492.5 98.0 484.5 100.5Q482.5 101.0 480.75 101.5Q479.0 102.0 478.0 102.0Q475.0 102.0 475.0 98.5Q475.0 95.5 476.5 92.5L478.0 89.5Q479.5 85.5 480.5 82.5Q481.5 79.5 481.5 77.5Q481.5 74.5 475.0 73.75Q468.5 73.0 451.0 73.0H420.5Q395.0 73.0 377.5 74.0Q360.0 75.0 347.25 77.25Q334.5 79.5 323.0 84.0Q311.5 88.5 298.5 96.0L295.0 97.5Q288.0 101.0 282.5 104.0Q277.0 107.0 276.5 107.0Q274.0 107.0 274.0 94.5Q274.0 87.0 274.75 76.25Q275.5 65.5 276.25 54.75Q277.0 44.0 278.25 36.75Q279.5 29.5 280.0 29.0H281.0Q287.0 29.0 301.5 41.0Q310.5 47.5 327.0 51.75Q343.5 56.0 372.0 58.0Q400.5 60.0 446.0 61.0ZM591.0 74.5H590.0L591.0 73.5Q591.0 74.5 588.5 74.5Q586.5 74.5 585.5 73.5L586.5 75.0V74.5H588.5Q589.5 74.5 590.25 74.5Q591.0 74.5 591.0 74.5Z" fill="black" /></svg>