<svg xmlns="http://www.w3.org/2000/svg" width="498.0" height="382.5" viewBox="0 0 498.0 382.5"><path d="M100.0 327.0 88.0 323.0Q82.0 321.0 74.25 316.25Q66.5 311.5 62.5 306.5L52.0 297.5V323.5Q52.0 346.5 54.0 349.5Q55.5 348.5 62.75 344.75Q70.0 341.0 79.0 337.0ZM316.0 312.5H315.5Q312.0 311.5 305.5 307.5Q299.0 303.5 294.5 299.0L284.0 290.0V341.5L295.0 332.5Q301.0 328.0 306.25 325.5Q311.5 323.0 313.0 323.0Q317.0 323.0 320.5 317.5Q322.5 315.5 322.5 314.5Q322.5 314.0 316.0 312.5ZM65.0 117.5H48.0Q40.0 117.5 34.25 117.25Q28.5 117.0 28.5 116.5Q28.5 120.0 37.5 139.5L45.5 160.0L54.5 141.5Q57.0 136.0 59.0 131.0Q61.0 126.0 63.0 122.5Q64.0 120.5 64.25 119.25Q64.5 118.0 65.0 117.5ZM121.0 94.0Q115.5 94.0 103.0 83.0L91.0 74.5V94.5Q91.0 102.0 91.75 107.25Q92.5 112.5 93.0 113.5Q125.0 100.0 125.0 94.5Q125.0 94.0 121.0 94.0ZM274.0 43.5H246.0L214.0 42.5L219.0 53.0Q220.5 56.0 222.0 59.5Q223.5 63.0 225.0 67.0Q227.5 73.5 229.5 77.0Q231.0 81.0 233.75 84.0Q236.5 87.0 238.5 87.0Q244.5 87.0 244.5 93.0Q244.5 97.0 239.5 98.5Q239.5 98.5 239.25 99.25Q239.0 100.0 239.0 101.5Q239.0 106.0 240.5 113.0L244.5 125.5L249.5 105.5L251.5 100.5Q254.5 91.5 257.75 82.5Q261.0 73.5 263.0 69.5Q270.0 56.5 270.0 51.5Q270.0 46.5 274.0 43.5ZM310.5 98.5 319.5 95.5 308.0 89.0Q303.5 86.0 298.5 82.0Q293.5 78.0 290.0 74.5L280.0 65.5V91.5Q280.0 102.5 280.75 110.25Q281.5 118.0 282.0 118.0Q284.0 118.0 286.75 115.75Q289.5 113.5 291.5 111.0Q295.0 108.0 300.25 104.25Q305.5 100.5 310.5 98.5ZM438.5 95.5Q438.5 94.0 433.5 94.0Q430.0 94.0 430.0 95.5Q430.0 96.0 431.0 98.0Q431.0 99.5 432.0 102.5Q432.5 104.5 432.75 106.25Q433.0 108.0 433.0 109.5Q433.5 109.0 435.75 104.0Q438.0 99.0 438.5 95.5ZM465.0 27.5Q461.5 27.0 449.0 26.5Q436.5 26.0 425.0 26.0H406.0Q406.0 27.5 408.75 34.75Q411.5 42.0 415.0 51.0Q419.0 59.5 422.0 67.5Q425.0 75.5 425.0 78.0Q425.0 82.5 431.5 82.5Q435.0 82.5 440.5 75.0Q446.0 67.5 451.5 57.25Q457.0 47.0 461.0 38.25Q465.0 29.5 465.0 27.5ZM388.0 12.5Q388.0 10.0 393.0 10.0Q395.0 10.0 397.25 10.0Q399.5 10.0 402.0 11.0Q407.0 12.0 421.25 13.0Q435.5 14.0 451.0 14.0H459.0Q471.0 14.0 479.5 15.25Q488.0 16.5 488.0 18.0Q488.0 20.0 486.0 22.25Q484.0 24.5 481.5 27.0Q477.0 30.5 471.0 40.0Q465.0 49.5 459.75 61.5Q454.5 73.5 451.0 84.5Q449.0 92.0 447.5 102.75Q446.0 113.5 445.5 131.75Q445.0 150.0 445.0 181.5V293.5Q445.0 320.5 444.75 332.0Q444.5 343.5 443.25 346.0Q442.0 348.5 439.5 348.5Q438.0 348.5 436.5 343.5Q435.0 338.5 435.0 331.0V315.5L390.0 317.0Q369.5 317.5 358.25 318.75Q347.0 320.0 339.5 322.25Q332.0 324.5 322.5 329.5Q313.5 334.0 304.5 339.75Q295.5 345.5 291.5 349.5H292.0Q282.5 360.5 278.5 360.5Q277.0 360.5 275.25 347.25Q273.5 334.0 273.5 314.0Q273.5 294.5 274.75 281.25Q276.0 268.0 277.5 268.0Q278.5 268.0 283.5 272.25Q288.5 276.5 294.5 283.5Q305.0 296.0 317.75 301.0Q330.5 306.0 358.0 306.0Q364.0 306.0 370.5 306.0Q377.0 306.0 384.5 305.5L432.5 305.0V220.5Q432.5 183.5 432.25 163.5Q432.0 143.5 430.5 132.5Q429.0 121.5 426.0 112.5L419.0 94.0H381.5Q365.0 94.0 355.75 94.75Q346.5 95.5 340.0 97.75Q333.5 100.0 325.0 104.5Q316.5 108.5 305.75 115.25Q295.0 122.0 288.5 127.5L270.0 142.5V107.5L269.0 81.0L264.5 96.5Q262.0 103.5 260.5 112.0Q259.0 120.5 258.25 135.25Q257.5 150.0 257.25 175.0Q257.0 200.0 257.0 240.0Q256.5 277.0 255.75 305.0Q255.0 333.0 254.0 348.75Q253.0 364.5 251.5 364.5Q250.0 364.5 248.75 350.75Q247.5 337.0 246.5 313.0Q245.5 289.0 245.0 258.0Q244.5 222.0 244.0 200.0Q243.5 178.0 242.5 165.25Q241.5 152.5 239.75 143.5Q238.0 134.5 235.0 124.5L226.0 97.5H186.5Q165.0 97.5 150.5 99.75Q136.0 102.0 124.25 108.0Q112.5 114.0 99.0 124.5Q84.0 136.5 80.5 136.5Q77.5 136.5 77.5 132.5Q77.5 130.5 78.5 126.5Q79.0 125.0 79.25 123.75Q79.5 122.5 79.5 122.0Q79.5 121.5 79.0 121.5Q73.5 121.5 65.5 139.5Q62.5 145.5 60.5 150.75Q58.5 156.0 57.75 164.0Q57.0 172.0 56.75 185.75Q56.5 199.5 56.5 222.5V286.5Q58.5 288.0 63.0 292.5Q67.5 297.0 69.0 298.5Q79.0 307.0 90.0 311.25Q101.0 315.5 121.25 317.0Q141.5 318.5 178.0 318.5Q209.0 318.5 226.5 320.0Q244.0 321.5 244.0 324.5Q244.0 326.5 227.75 328.0Q211.5 329.5 182.0 329.5Q160.5 329.5 145.0 330.25Q129.5 331.0 116.5 333.75Q103.5 336.5 89.75 343.0Q76.0 349.5 58.0 361.0Q52.5 366.0 47.75 369.25Q43.0 372.5 42.0 372.5Q40.5 371.0 40.5 364.5Q40.5 356.0 41.25 340.0Q42.0 324.0 43.0 304.0Q44.0 285.5 44.75 269.75Q45.5 254.0 45.5 240.0Q45.5 212.5 42.75 193.0Q40.0 173.5 34.25 157.5Q28.5 141.5 19.0 126.0Q10.0 113.0 10.0 109.5Q10.0 108.5 21.0 107.5Q32.0 106.5 47.0 106.5H81.5V80.5Q81.5 67.5 82.75 59.5Q84.0 51.5 85.5 51.5Q86.5 51.5 90.75 55.0Q95.0 58.5 98.5 63.5Q105.5 73.0 114.25 78.0Q123.0 83.0 138.25 85.0Q153.5 87.0 179.0 87.0H223.0Q223.0 85.5 220.0 78.75Q217.0 72.0 212.75 64.0Q208.5 56.0 204.5 49.25Q200.5 42.5 199.0 40.5Q196.5 36.5 196.5 34.5Q196.5 32.0 198.5 31.5Q201.5 31.5 212.5 31.75Q223.5 32.0 237.75 32.25Q252.0 32.5 265.75 32.75Q279.5 33.0 288.75 33.25Q298.0 33.5 298.5 34.0V35.0Q298.5 39.5 291.5 46.5L284.0 53.5Q287.0 57.0 290.5 60.5Q294.0 64.0 297.0 67.5L310.5 81.0L363.5 82.0L415.5 83.5L414.0 75.0Q413.5 73.0 412.5 70.0Q411.5 67.0 410.0 63.5Q408.5 60.5 405.0 52.75Q401.5 45.0 397.5 36.25Q393.5 27.5 390.75 20.75Q388.0 14.0 388.0 12.5Z" fill="black" /></svg>