<svg xmlns="http://www.w3.org/2000/svg" width="512.0" height="380.0" viewBox="0 0 512.0 380.0"><path d="M202.0 290.0Q198.0 287.5 194.5 285.5Q191.0 283.5 189.0 283.5Q186.5 283.5 186.5 288.0Q186.5 291.0 187.75 294.5Q189.0 298.0 191.0 299.5Q194.0 302.5 194.0 305.0Q194.0 308.0 191.0 309.5Q189.0 310.5 187.75 317.0Q186.5 323.5 186.5 332.0V350.5Q201.0 342.0 217.25 335.5Q233.5 329.0 249.5 323.5L269.5 317.5L254.5 314.5Q237.0 310.5 225.25 305.0Q213.5 299.5 202.0 290.0ZM89.0 178.5Q89.0 171.0 87.0 171.0Q85.5 171.0 79.0 176.25Q72.5 181.5 64.5 188.75Q56.5 196.0 50.5 202.25Q44.5 208.5 44.5 210.0H46.5Q51.5 210.0 61.75 214.0Q72.0 218.0 82.25 223.0Q92.5 228.0 97.5 231.0Q101.5 233.0 104.0 234.25Q106.5 235.5 108.5 236.5Q107.0 233.0 104.75 227.0Q102.5 221.0 99.0 214.0Q95.5 203.5 92.25 193.0Q89.0 182.5 89.0 178.5ZM176.5 219.0 187.0 212.5 172.5 206.0Q167.5 203.5 164.25 202.25Q161.0 201.0 159.5 201.0Q157.0 201.0 157.0 211.0V213.5Q157.0 226.0 161.5 226.0Q165.0 226.0 176.5 219.0ZM163.0 56.5H161.5Q152.5 54.0 141.0 53.5Q129.5 53.0 119.5 53.0Q113.0 53.0 113.0 54.0Q113.0 54.0 114.0 56.0Q115.5 59.5 118.5 69.25Q121.5 79.0 125.0 90.5Q126.5 94.5 127.75 98.5Q129.0 102.5 130.0 106.5Q132.5 112.0 134.0 116.5Q135.5 121.0 136.0 123.0Q137.0 122.0 139.0 117.75Q141.0 113.5 143.0 107.0Q146.5 97.0 150.5 86.0Q154.5 75.0 157.5 69.5V70.0Q160.0 65.5 161.25 62.0Q162.5 58.5 163.0 56.5ZM254.5 148.5Q255.5 144.5 256.0 140.0Q256.5 135.5 256.5 131.5Q255.0 131.5 248.25 136.25Q241.5 141.0 233.0 147.25Q224.5 153.5 218.5 159.0Q212.5 164.5 212.5 166.0Q212.5 166.0 218.25 168.5Q224.0 171.0 233.5 174.0Q242.0 177.0 249.25 179.75Q256.5 182.5 258.0 183.5Q257.5 183.0 256.75 181.0Q256.0 179.0 255.0 176.5Q252.5 171.5 252.5 164.0Q252.5 156.5 254.5 148.5ZM293.0 148.5Q291.0 142.5 287.25 135.25Q283.5 128.0 280.0 123.5L273.5 115.0L270.0 124.0Q263.5 144.5 263.5 162.0Q263.5 172.5 266.0 177.0Q270.5 186.5 278.5 194.0Q286.5 201.5 291.5 201.5Q294.0 201.5 295.5 195.25Q297.0 189.0 297.0 179.5Q297.0 172.5 296.25 164.25Q295.5 156.0 293.0 148.5ZM330.0 107.5Q330.0 106.5 322.25 105.5Q314.5 104.5 303.5 104.5Q290.5 104.5 285.5 104.5Q280.5 104.5 280.0 105.5Q281.0 107.5 283.5 110.0H283.0Q286.0 112.5 290.5 119.75Q295.0 127.0 298.5 135.5L305.0 151.5L314.0 135.0Q317.5 126.0 321.5 119.25Q325.5 112.5 327.0 112.0Q330.0 110.0 330.0 107.5ZM388.0 143.5Q388.0 142.0 381.75 137.25Q375.5 132.5 366.75 127.0Q358.0 121.5 350.5 117.25Q343.0 113.0 340.5 113.0Q338.5 113.0 333.0 121.75Q327.5 130.5 322.0 143.5Q313.5 162.0 310.25 172.75Q307.0 183.5 307.0 198.0V221.5Q316.0 228.5 324.75 236.0Q333.5 243.5 342.0 251.0L375.5 279.5V244.5Q375.5 229.0 374.75 219.5Q374.0 210.0 371.75 202.25Q369.5 194.5 365.0 185.0Q360.5 175.5 356.0 167.75Q351.5 160.0 349.0 158.0Q342.0 152.5 342.0 148.0Q342.0 141.5 357.0 141.5Q359.0 141.5 361.25 141.5Q363.5 141.5 366.0 142.0Q371.0 142.5 375.25 142.5Q379.5 142.5 382.5 142.5Q388.0 142.5 388.0 143.5ZM393.5 161.5 399.5 155.0H361.0Q361.5 155.5 362.0 156.25Q362.5 157.0 363.0 158.5Q366.0 163.0 370.0 171.0V170.5Q376.5 182.0 378.5 182.0Q380.0 182.0 381.5 178.5Q382.5 174.5 386.25 169.75Q390.0 165.0 393.5 161.5ZM344.0 55.0Q345.5 51.0 345.5 48.5Q345.5 48.0 345.25 47.75Q345.0 47.5 345.0 47.5Q343.0 47.5 337.0 51.5Q331.0 55.5 320.0 63.5L300.0 80.0Q302.5 80.5 305.0 81.5Q307.5 82.5 309.5 83.5Q314.0 85.5 320.5 87.0Q327.0 88.5 331.0 89.5Q336.5 89.5 338.5 87.25Q340.5 85.0 340.5 79.0Q340.5 74.5 341.5 67.25Q342.5 60.0 344.0 55.0ZM479.5 53.0Q479.5 52.0 472.25 51.5Q465.0 51.0 455.0 51.0Q434.0 51.0 434.0 52.0Q434.0 52.5 434.75 53.0Q435.5 53.5 436.0 54.5Q438.5 56.5 441.5 64.0Q444.5 71.5 448.0 80.0L450.0 84.5Q457.0 103.0 459.5 103.0Q460.5 103.0 461.0 101.0Q462.5 98.0 465.0 90.5Q466.5 86.5 468.25 82.0Q470.0 77.5 471.5 74.0Q479.5 58.0 479.5 53.0ZM357.0 18.0Q359.5 10.0 365.0 10.0Q369.5 10.0 369.5 17.0Q369.5 19.5 368.0 23.5Q366.5 27.5 364.0 31.5Q361.0 36.0 357.75 45.0Q354.5 54.0 352.25 63.75Q350.0 73.5 350.0 79.5Q350.0 85.0 353.0 91.0V90.5Q356.5 97.0 366.0 107.0Q375.5 117.0 386.25 126.0Q397.0 135.0 404.5 139.0Q409.5 141.0 417.25 147.5Q425.0 154.0 430.5 159.0Q437.5 164.0 442.0 167.75Q446.5 171.5 448.5 171.5Q449.5 171.5 450.0 166.25Q450.5 161.0 450.5 153.0Q450.5 129.5 446.5 105.75Q442.5 82.0 428.5 62.5L412.5 40.5L455.0 38.0Q472.0 37.0 484.5 36.75Q497.0 36.5 497.5 36.5V38.0Q497.5 40.0 495.0 46.0Q492.5 52.0 488.5 60.0Q480.5 78.0 474.0 98.0Q467.5 118.0 464.0 136.25Q460.5 154.5 460.5 168.5Q460.5 184.5 466.0 189.5Q471.0 193.0 471.0 198.5Q471.0 203.5 466.5 203.5Q466.0 203.5 463.0 202.5Q462.0 203.0 461.25 210.0Q460.5 217.0 460.5 228.0Q460.0 241.0 459.25 257.25Q458.5 273.5 457.0 283.5Q455.5 295.0 454.0 295.0Q452.5 295.0 452.0 283.75Q451.5 272.5 450.5 247.5V188.5L432.0 173.5Q424.0 168.0 419.25 165.0Q414.5 162.0 410.5 162.0Q405.0 162.0 396.5 173.5Q393.0 178.5 391.0 185.0Q389.0 191.5 388.25 205.25Q387.5 219.0 387.0 245.5Q386.5 271.5 384.5 289.75Q382.5 308.0 380.5 308.0Q379.0 308.0 377.25 306.0Q375.5 304.0 375.5 300.5Q375.5 298.5 369.75 292.0Q364.0 285.5 355.0 277.0Q346.0 268.5 336.0 260.0Q326.0 251.5 318.0 245.5L307.0 238.0V245.5Q307.0 249.0 306.25 260.0Q305.5 271.0 304.5 283.0L301.5 309.5H401.0Q449.5 309.5 475.75 310.75Q502.0 312.0 502.0 314.5Q502.0 317.5 476.0 319.0Q450.0 320.5 402.5 320.5Q367.5 320.5 346.5 320.75Q325.5 321.0 313.0 322.0Q300.5 323.0 290.75 325.25Q281.0 327.5 268.5 331.0Q250.5 336.0 233.25 342.5Q216.0 349.0 203.0 355.0Q190.0 361.0 184.5 365.5Q180.0 370.0 177.5 370.0Q173.5 370.0 173.5 361.5Q173.5 357.5 174.25 351.75Q175.0 346.0 176.0 338.5Q177.0 330.0 177.75 324.5Q178.5 319.0 178.5 315.0Q178.5 306.5 175.25 302.75Q172.0 299.0 164.5 292.5L142.5 274.5L139.5 322.0Q139.0 325.5 139.0 330.25Q139.0 335.0 139.0 340.5Q138.5 350.5 138.25 359.25Q138.0 368.0 135.5 368.0Q133.5 368.0 133.0 362.75Q132.5 357.5 132.5 349.5V322.0L132.0 268.0L117.5 257.5Q106.0 249.0 89.75 240.0Q73.5 231.0 56.5 224.75Q39.5 218.5 24.5 218.5Q14.5 217.5 12.25 216.5Q10.0 215.5 10.0 213.0Q10.0 207.5 15.25 205.5Q20.5 203.5 24.5 203.0Q36.5 201.0 74.5 164.5Q110.0 128.0 116.5 128.0Q118.0 128.0 118.0 130.0Q118.0 134.0 109.5 145.5Q99.0 159.0 99.0 174.5Q99.0 184.0 103.0 196.0Q107.0 208.0 113.0 218.75Q119.0 229.5 125.0 236.5L133.0 247.5V245.5Q133.0 239.0 133.0 232.75Q133.0 226.5 133.5 220.5Q134.0 213.5 134.0 207.25Q134.0 201.0 134.0 194.5Q134.0 168.0 128.25 143.75Q122.5 119.5 114.5 95.0Q112.5 87.0 110.0 79.0Q107.5 71.0 105.0 63.0Q101.5 55.0 99.5 47.75Q97.5 40.5 97.5 39.0V38.5Q98.5 37.0 101.5 37.0Q105.5 37.0 115.5 39.5Q121.0 41.0 133.0 42.25Q145.0 43.5 155.5 43.5Q166.5 43.5 174.5 44.25Q182.5 45.0 182.5 47.0Q182.5 48.0 179.0 54.25Q175.5 60.5 170.0 69.5Q160.5 85.0 155.5 102.0Q150.5 119.0 148.75 142.25Q147.0 165.5 145.5 201.0L143.5 260.0L161.0 276.5L176.0 287.5V275.5Q176.0 269.0 177.25 264.25Q178.5 259.5 180.0 259.5Q181.0 259.5 186.25 263.5Q191.5 267.5 198.0 273.0Q208.5 282.0 223.75 290.0Q239.0 298.0 255.5 303.0Q272.0 308.0 286.0 308.0Q290.5 308.0 292.0 306.25Q293.5 304.5 294.5 300.5Q295.5 296.5 296.0 285.25Q296.5 274.0 296.5 261.0Q296.5 240.0 293.75 230.75Q291.0 221.5 280.25 219.0Q269.5 216.5 245.0 216.5Q226.0 216.5 216.25 217.25Q206.5 218.0 199.0 221.0Q191.5 224.0 179.0 231.0L161.0 240.0Q151.5 245.5 150.5 245.5Q148.5 245.5 148.0 235.5Q147.5 225.5 147.5 211.5Q147.5 196.5 148.75 186.25Q150.0 176.0 152.0 176.0Q155.5 176.0 165.5 187.0Q175.5 196.5 191.25 201.0Q207.0 205.5 235.0 205.5H262.5L254.0 198.0Q249.0 195.0 237.25 189.0Q225.5 183.0 213.0 178.5L181.0 167.5L206.5 152.5Q209.0 151.0 217.75 145.0Q226.5 139.0 236.75 131.5Q247.0 124.0 254.5 117.25Q262.0 110.5 262.0 107.5Q262.0 106.5 260.0 104.5Q255.5 102.0 255.5 99.0Q255.5 92.5 275.0 92.5H281.0Q289.5 92.5 295.25 92.5Q301.0 92.5 301.0 93.0Q301.0 92.0 296.0 90.75Q291.0 89.5 284.0 88.0L263.5 81.0L285.0 72.0Q294.0 68.0 305.5 60.5Q317.0 53.0 328.5 44.5Q340.0 36.0 347.75 28.75Q355.5 21.5 357.0 18.0Z" fill="black" /></svg>