<svg xmlns="http://www.w3.org/2000/svg" width="611.0" height="452.5" viewBox="0 0 611.0 452.5"><path d="M104.5 211.5Q104.5 203.0 102.5 203.0Q101.0 203.0 93.0 209.25Q85.0 215.5 75.5 224.25Q66.0 233.0 58.75 240.5Q51.5 248.0 51.5 250.0H54.5Q60.5 250.0 72.5 254.75Q84.5 259.5 96.75 265.5Q109.0 271.5 115.0 275.5Q119.5 277.5 123.25 279.25Q127.0 281.0 129.0 282.0Q127.0 278.0 124.0 270.75Q121.0 263.5 117.0 255.0Q113.0 242.0 108.75 229.5Q104.5 217.0 104.5 211.5ZM210.5 260.5 223.0 252.5 205.5 245.0Q194.0 239.5 190.0 239.5Q187.0 239.5 187.0 251.0V254.5Q187.0 261.5 187.75 265.0Q188.5 268.5 192.0 268.5Q195.0 268.5 199.25 266.75Q203.5 265.0 210.5 260.5ZM194.0 65.0H192.0Q181.5 62.5 167.5 61.75Q153.5 61.0 141.5 61.0Q134.0 61.0 134.0 62.5Q134.0 62.5 135.0 64.5Q137.5 68.5 141.0 80.5Q144.5 92.5 148.5 106.5Q150.0 111.0 151.25 116.0Q152.5 121.0 154.5 125.5Q157.5 132.0 159.0 137.25Q160.5 142.5 161.0 144.5Q165.0 141.5 170.0 126.0Q174.0 114.5 179.0 101.0Q184.0 87.5 187.5 80.5V81.0Q190.0 76.0 191.75 71.5Q193.5 67.0 194.0 65.0ZM303.5 176.0Q305.5 170.5 306.0 165.5Q306.5 160.5 306.5 155.5Q304.5 155.5 296.25 161.0Q288.0 166.5 278.25 174.25Q268.5 182.0 261.25 188.5Q254.0 195.0 254.0 197.0Q254.0 197.0 260.75 200.0Q267.5 203.0 279.0 206.5Q289.0 210.0 297.75 213.5Q306.5 217.0 308.0 218.5Q307.5 217.5 306.75 215.25Q306.0 213.0 304.5 209.5Q301.5 203.5 301.5 194.5Q301.5 190.5 302.0 185.75Q302.5 181.0 303.5 176.0ZM355.0 213.0Q355.0 194.0 350.5 177.75Q346.0 161.5 334.5 146.0L327.0 135.5L322.5 146.5Q319.0 157.5 317.0 169.75Q315.0 182.0 315.0 192.0Q315.0 198.0 315.5 202.5Q316.0 207.0 318.0 210.5Q323.0 221.5 332.5 230.5Q342.0 239.5 348.5 239.5Q351.5 239.5 353.25 232.0Q355.0 224.5 355.0 213.0ZM395.0 126.5Q395.0 125.5 385.5 124.25Q376.0 123.0 363.0 123.0Q347.5 123.0 341.25 123.25Q335.0 123.5 334.5 124.5Q335.0 125.5 339.0 129.5H338.5Q342.0 133.0 347.5 141.75Q353.0 150.5 357.0 160.5L364.5 179.5L375.5 159.5Q379.5 148.5 384.25 140.5Q389.0 132.5 391.0 132.0Q392.0 131.0 393.5 129.25Q395.0 127.5 395.0 126.5ZM464.0 169.5Q463.5 167.5 455.75 161.75Q448.0 156.0 438.0 149.25Q428.0 142.5 419.0 137.75Q410.0 133.0 407.0 133.0Q405.0 133.0 398.5 143.5Q392.0 154.0 385.0 170.0Q378.0 184.5 374.25 195.0Q370.5 205.5 369.0 214.75Q367.5 224.0 367.5 235.5V263.5Q377.5 272.5 388.25 281.25Q399.0 290.0 409.0 299.0L449.0 333.5V291.5Q449.0 273.0 448.25 261.5Q447.5 250.0 444.75 240.75Q442.0 231.5 436.5 220.0Q431.0 208.5 425.5 199.0Q420.0 189.5 417.0 187.5Q409.0 180.5 409.0 175.0Q409.0 167.5 427.0 167.5Q429.5 167.5 432.0 167.5Q434.5 167.5 438.0 168.0Q443.5 168.5 448.75 168.5Q454.0 168.5 457.5 168.5Q463.0 168.5 464.0 169.5ZM471.0 192.0 478.5 183.5H432.0Q433.0 184.5 434.5 188.0Q436.0 191.0 438.25 194.75Q440.5 198.5 443.0 203.0V202.5Q450.5 216.0 453.0 216.0Q454.5 216.0 456.5 211.5Q458.0 207.5 462.0 201.75Q466.0 196.0 471.0 192.0ZM411.5 63.5Q413.0 58.0 413.0 56.0Q413.0 55.0 412.75 54.75Q412.5 54.5 412.5 54.5Q408.5 54.5 383.0 74.0L358.5 93.5Q361.5 94.5 364.5 95.75Q367.5 97.0 370.0 98.0Q375.5 100.0 383.25 102.0Q391.0 104.0 396.0 105.0Q403.0 105.0 405.0 102.25Q407.0 99.5 407.0 92.5Q407.0 87.0 408.25 78.5Q409.5 70.0 411.5 63.5ZM574.5 61.0Q574.5 60.0 565.5 59.5Q556.5 59.0 545.0 59.0Q531.5 59.0 525.75 59.0Q520.0 59.0 520.0 59.5Q520.0 60.5 522.0 63.0Q524.5 65.5 528.5 74.25Q532.5 83.0 536.5 93.5L539.0 99.0Q543.5 111.0 546.25 116.0Q549.0 121.0 550.5 121.0Q551.5 121.0 554.0 114.25Q556.5 107.5 557.0 106.5Q558.5 101.5 560.75 96.25Q563.0 91.0 564.5 86.5Q569.5 77.5 572.0 70.25Q574.5 63.0 574.5 61.0ZM240.5 346.0Q230.5 338.5 225.0 338.5Q222.5 338.5 222.5 344.0Q222.5 347.5 223.75 351.5Q225.0 355.5 227.5 357.0Q231.5 362.0 231.5 364.0Q231.5 367.0 227.5 369.5Q225.5 371.0 224.0 378.75Q222.5 386.5 222.5 396.5V419.0Q227.5 415.5 233.25 412.75Q239.0 410.0 244.5 407.5Q254.5 402.5 270.5 396.5Q286.5 390.5 298.0 386.5L322.0 379.0L303.5 375.5Q282.5 371.0 268.75 364.25Q255.0 357.5 240.5 346.0ZM427.0 19.5Q428.0 14.0 431.0 12.0Q434.0 10.0 436.5 10.0Q442.5 10.0 442.5 18.0Q442.5 21.0 440.25 25.75Q438.0 30.5 435.5 35.5Q432.0 41.0 428.0 52.0Q424.0 63.0 421.25 74.25Q418.5 85.5 418.5 93.0Q418.5 101.0 426.25 112.0Q434.0 123.0 445.0 133.75Q456.0 144.5 467.0 152.75Q478.0 161.0 484.0 164.0Q489.5 167.0 499.25 174.75Q509.0 182.5 515.5 188.5Q524.0 195.0 529.5 199.25Q535.0 203.5 537.0 203.5Q538.5 203.5 539.0 197.25Q539.5 191.0 539.5 181.5Q539.5 153.5 534.75 124.75Q530.0 96.0 512.5 72.5L493.5 46.5L545.0 43.0Q565.5 41.5 580.5 41.25Q595.5 41.0 596.0 41.0V43.0Q596.0 45.5 592.75 52.75Q589.5 60.0 585.0 69.5Q575.0 91.0 567.5 115.0Q560.0 139.0 555.75 161.25Q551.5 183.5 551.5 200.0Q551.5 208.5 553.0 215.0Q554.5 221.5 558.0 225.0Q564.0 229.5 564.0 236.0Q564.0 242.0 558.5 242.0Q558.0 242.0 557.0 241.5Q556.0 241.0 554.5 240.5Q553.0 241.0 552.25 249.75Q551.5 258.5 551.5 271.5Q551.0 287.0 549.75 306.25Q548.5 325.5 547.5 338.5Q546.0 352.0 543.5 352.0Q541.5 352.0 541.0 338.5Q540.5 325.0 539.5 295.0V224.0L517.0 206.0Q507.5 199.0 501.5 195.5Q495.5 192.0 491.5 192.0Q484.5 192.0 474.5 206.0Q470.0 212.0 467.5 220.0Q465.0 228.0 464.25 244.25Q463.5 260.5 463.0 292.5Q463.0 324.0 460.25 345.75Q457.5 367.5 455.0 367.5Q453.5 367.5 451.25 365.0Q449.0 362.5 449.0 359.0Q449.0 356.5 442.0 348.75Q435.0 341.0 424.25 330.75Q413.5 320.5 401.75 310.25Q390.0 300.0 380.0 292.5L367.5 283.5V292.5Q367.5 297.0 366.5 310.0Q365.5 323.0 364.0 337.0L360.0 369.5H480.0Q538.0 369.5 569.5 371.25Q601.0 373.0 601.0 375.5Q601.0 379.0 570.0 380.75Q539.0 382.5 481.5 382.5Q439.5 382.5 414.5 382.75Q389.5 383.0 374.0 384.5Q358.5 386.0 347.0 388.5Q335.5 391.0 320.5 395.5Q298.5 401.5 278.0 409.5Q257.5 417.5 242.0 424.75Q226.5 432.0 219.5 437.0Q217.0 439.0 214.75 440.75Q212.5 442.5 211.5 442.5Q206.5 442.5 206.5 432.0Q206.5 422.5 209.5 404.0Q212.5 385.0 212.5 376.0Q212.5 366.0 208.5 361.5Q204.5 357.0 196.0 349.0L169.5 327.5L166.0 384.0Q165.5 389.0 165.25 394.75Q165.0 400.5 165.0 407.0Q164.5 419.0 164.0 429.25Q163.5 439.5 160.5 439.5Q159.0 439.5 158.25 433.25Q157.5 427.0 157.5 417.5V384.0L156.5 319.5L139.5 307.0Q125.5 297.0 106.0 286.0Q86.5 275.0 66.0 267.5Q45.5 260.0 27.5 260.0Q15.0 259.0 12.5 257.75Q10.0 256.5 10.0 253.0Q10.0 247.0 16.25 244.5Q22.5 242.0 27.5 241.0Q42.0 239.0 87.5 195.0Q130.0 151.5 138.5 151.5Q140.0 151.5 140.0 153.5Q140.0 158.0 130.0 172.5Q117.0 188.5 117.0 207.5Q117.0 218.5 121.75 232.75Q126.5 247.0 134.0 260.25Q141.5 273.5 148.5 281.5L158.5 295.0V292.5Q158.5 285.0 158.5 277.25Q158.5 269.5 159.0 262.5V231.0Q159.0 199.5 152.25 170.5Q145.5 141.5 135.5 111.5Q133.0 102.0 130.0 92.25Q127.0 82.5 124.0 73.0Q120.5 63.0 117.75 54.5Q115.0 46.0 115.0 44.0V43.5Q116.5 42.0 120.0 42.0Q125.5 42.0 136.5 44.5Q143.5 46.5 158.0 48.0Q172.5 49.5 185.0 49.5Q198.0 49.5 207.5 50.5Q217.0 51.5 217.0 54.0Q217.0 55.5 213.0 63.0Q209.0 70.5 202.5 80.5Q191.0 99.5 185.0 119.75Q179.0 140.0 176.75 168.25Q174.5 196.5 172.5 239.5L170.5 309.5L191.5 329.5L209.5 343.5V328.5Q209.5 321.0 211.0 315.0Q212.5 309.0 214.5 309.0Q215.5 309.0 222.0 313.5Q228.5 318.0 235.5 325.0Q248.5 336.0 266.75 345.75Q285.0 355.5 305.0 361.5Q325.0 367.5 342.0 367.5Q347.5 367.5 349.0 365.5Q350.5 363.5 352.0 359.0Q353.5 354.0 354.0 340.25Q354.5 326.5 354.5 311.0Q354.5 292.0 352.75 281.25Q351.0 270.5 345.0 265.5Q339.0 260.5 326.5 259.0Q314.0 257.5 292.0 257.5Q275.0 257.5 264.75 258.0Q254.5 258.5 247.0 260.25Q239.5 262.0 232.0 265.5Q224.5 269.0 213.0 275.5Q206.5 278.0 201.25 280.75Q196.0 283.5 191.5 286.0Q180.0 292.5 179.0 292.5Q177.0 292.5 176.25 280.25Q175.5 268.0 175.5 251.5Q175.5 233.5 177.0 221.25Q178.5 209.0 180.5 209.0Q182.0 209.0 187.0 212.75Q192.0 216.5 197.0 222.0Q208.5 234.0 227.5 239.25Q246.5 244.5 280.5 244.5H313.5L303.0 235.5Q297.5 231.5 283.25 224.5Q269.0 217.5 254.0 211.5L216.0 199.0L246.0 180.5Q249.0 178.5 259.5 171.25Q270.0 164.0 282.25 155.0Q294.5 146.0 303.5 138.0Q312.5 130.0 312.5 126.5Q312.5 126.0 311.0 123.0Q305.0 120.0 305.0 116.0Q305.0 112.5 311.25 110.5Q317.5 108.5 328.5 108.5H336.0Q346.0 108.5 352.75 108.5Q359.5 108.5 359.5 109.0Q359.5 108.0 353.75 106.5Q348.0 105.0 339.5 103.5L315.0 95.0L340.0 84.0Q350.5 79.5 364.75 70.5Q379.0 61.5 392.75 51.25Q406.5 41.0 416.0 32.25Q425.5 23.5 427.0 19.5Z" fill="black" /></svg>