<svg xmlns="http://www.w3.org/2000/svg" width="946.0" height="457.0" viewBox="0 0 946.0 457.0"><path d="M380.5 352.5 356.0 338.0Q343.0 331.0 330.5 321.25Q318.0 311.5 314.0 307.0Q311.5 301.5 308.5 301.5Q306.5 301.5 303.25 309.0Q300.0 316.5 294.5 334.0Q290.0 346.0 286.5 356.0Q283.0 366.0 281.0 370.5Q283.0 370.5 285.75 370.0Q288.5 369.5 292.0 369.0Q309.5 363.5 331.5 358.5Q353.5 353.5 370.5 353.5ZM668.0 319.0 650.5 314.0Q639.5 311.5 627.5 307.0Q615.5 302.5 611.0 299.5Q605.0 296.0 603.0 296.0Q601.0 296.0 600.75 301.0Q600.5 306.0 600.5 319.5Q600.5 333.5 601.75 339.5Q603.0 345.5 604.5 345.5H605.5Q614.0 341.0 624.25 336.75Q634.5 332.5 644.0 329.0ZM218.5 146.0Q220.5 142.5 222.0 140.0Q223.5 137.5 224.0 136.0Q218.5 139.5 203.75 152.0Q189.0 164.5 170.0 181.0Q156.0 193.5 139.75 206.75Q123.5 220.0 109.5 231.25Q95.5 242.5 87.0 250.0Q75.0 259.0 65.75 266.5Q56.5 274.0 56.5 274.5Q56.5 275.0 65.75 275.5Q75.0 276.0 88.0 276.0Q101.5 276.0 114.25 277.5Q127.0 279.0 131.0 281.5Q133.5 282.5 135.5 282.75Q137.5 283.0 140.0 283.0Q148.5 283.0 155.25 274.25Q162.0 265.5 163.5 250.5Q164.5 237.5 170.5 223.0Q176.5 208.5 187.5 193.5Q196.0 179.5 204.75 166.0Q213.5 152.5 218.5 146.0ZM307.0 101.5Q307.5 89.5 308.0 79.5Q308.5 69.5 308.5 63.0Q308.5 58.0 309.0 58.0Q305.0 58.0 293.5 70.25Q282.0 82.5 267.0 102.5Q252.0 122.5 236.25 145.5Q220.5 168.5 207.0 190.25Q193.5 212.0 185.0 228.5Q176.5 245.0 176.5 251.0Q176.5 258.0 175.5 265.25Q174.5 272.5 172.5 276.0Q171.5 277.5 171.5 279.0Q171.5 280.5 173.0 281.0Q174.5 281.5 175.5 281.5Q183.5 281.5 183.5 293.5Q183.5 295.0 183.5 296.75Q183.5 298.5 182.5 300.0Q182.5 302.0 182.25 304.0Q182.0 306.0 182.0 307.0Q182.0 312.5 185.25 317.0Q188.5 321.5 195.5 328.5Q201.0 332.0 209.5 339.0Q218.0 346.0 226.5 354.5L234.5 361.5Q253.5 376.5 256.5 376.5Q259.5 376.5 260.5 374.5Q263.5 370.0 268.25 359.25Q273.0 348.5 278.0 334.5Q283.0 320.5 287.5 306.5Q292.0 292.5 294.5 281.5Q298.5 268.5 300.75 261.75Q303.0 255.0 306.0 255.0Q309.5 255.0 314.0 271.5Q318.0 291.5 347.0 313.0Q376.0 334.5 423.0 352.5L435.0 357.0V313.0Q435.0 274.0 426.5 249.25Q418.0 224.5 399.0 207.5Q393.0 201.0 389.25 196.5Q385.5 192.0 385.5 190.0V187.5Q387.0 186.5 396.75 185.5Q406.5 184.5 420.5 183.75Q434.5 183.0 449.25 182.75Q464.0 182.5 475.5 182.5Q485.5 182.5 492.0 183.25Q498.5 184.0 498.5 186.0Q498.5 188.0 494.5 191.5Q490.5 195.0 485.0 198.5Q473.0 205.5 465.75 223.5Q458.5 241.5 454.75 263.75Q451.0 286.0 449.75 307.25Q448.5 328.5 448.5 342.5Q448.5 353.5 450.5 356.75Q452.5 360.0 457.0 362.5Q459.5 363.5 471.0 366.75Q482.5 370.0 498.75 374.25Q515.0 378.5 531.5 382.25Q548.0 386.0 560.5 388.5Q573.0 391.0 576.5 391.0Q576.5 381.0 576.25 360.75Q576.0 340.5 575.75 315.0Q575.5 289.5 574.5 262.25Q573.5 235.0 572.25 210.25Q571.0 185.5 569.25 167.25Q567.5 149.0 565.0 142.0L559.5 125.0L497.0 123.0Q464.5 123.0 433.0 125.75Q401.5 128.5 372.75 139.0Q344.0 149.5 318.5 173.5Q303.5 187.5 299.5 187.5Q296.0 187.0 294.5 181.0Q299.5 161.5 302.0 141.25Q304.5 121.0 307.0 101.5ZM454.0 213.5 459.5 199.0H438.5Q420.5 199.0 416.5 201.5Q421.0 209.5 426.5 218.0Q432.0 226.5 437.0 232.25Q442.0 238.0 444.0 239.0Q445.0 234.5 448.0 227.25Q451.0 220.0 454.0 213.5ZM339.5 93.0V94.0Q334.5 90.5 330.75 88.0Q327.0 85.5 326.0 85.5Q324.5 85.5 322.75 95.0Q321.0 104.5 319.5 117.0Q318.0 129.5 318.0 138.0V149.0L390.0 114.0L375.0 109.0Q365.5 106.5 355.5 102.0Q345.5 97.5 339.5 93.0ZM668.0 194.0 650.5 190.0Q639.5 187.0 627.5 182.25Q615.5 177.5 611.0 174.5Q608.5 172.0 606.25 171.5Q604.0 171.0 603.0 171.0Q601.0 171.0 600.75 176.25Q600.5 181.5 600.5 195.0Q600.5 221.5 604.5 221.5L605.5 220.5Q614.0 216.0 624.25 211.5Q634.5 207.0 644.0 203.5ZM611.0 39.0 611.5 37.0Q611.5 34.5 604.5 34.0Q597.5 33.5 578.0 33.5H543.0Q548.0 41.0 553.75 55.0Q559.5 69.0 565.0 85.25Q570.5 101.5 574.5 117.0L582.5 147.0L586.5 123.0Q590.5 100.5 597.5 78.0Q604.5 55.5 611.0 39.0ZM901.5 38.5Q898.0 38.0 888.75 37.25Q879.5 36.5 868.5 35.75Q857.5 35.0 847.5 34.25Q837.5 33.5 832.0 33.5Q850.0 70.5 861.0 109.0Q865.0 124.5 868.0 135.25Q871.0 146.0 871.5 146.0Q872.0 146.0 874.5 135.0Q877.0 124.0 880.0 108.5Q883.5 92.5 887.5 76.5Q891.5 60.5 895.0 54.0Q897.0 48.5 899.0 44.5Q901.0 40.5 901.5 38.5ZM804.5 19.0Q804.5 10.0 809.5 10.0Q811.5 10.0 813.25 10.5Q815.0 11.0 817.0 11.5Q825.5 15.0 843.5 17.0Q861.5 19.0 880.0 19.0Q891.5 19.0 900.75 18.25Q910.0 17.5 913.5 15.0Q918.0 14.0 922.0 13.5Q926.0 13.0 928.0 13.0Q936.0 13.0 936.0 19.0Q936.0 26.5 923.0 41.0Q900.0 63.0 890.0 132.75Q880.0 202.5 879.5 318.0Q879.5 369.0 877.25 398.5Q875.0 428.0 871.5 428.0Q869.0 428.0 866.75 396.5Q864.5 365.0 864.5 307.5Q864.5 266.5 864.0 239.75Q863.5 213.0 861.5 194.0Q858.0 198.5 841.25 201.5Q824.5 204.5 793.5 204.5Q786.5 204.5 779.25 204.0Q772.0 203.5 762.5 203.5Q733.5 203.5 707.0 205.5Q680.5 207.5 655.75 215.5Q631.0 223.5 606.0 241.0Q598.5 248.0 595.75 251.5Q593.0 255.0 593.0 258.0Q593.0 270.0 605.0 278.75Q617.0 287.5 636.25 293.25Q655.5 299.0 677.75 302.5Q700.0 306.0 721.75 307.75Q743.5 309.5 760.0 310.25Q776.5 311.0 783.5 311.0Q804.5 311.0 822.5 312.0Q840.5 313.0 851.5 314.5Q862.5 316.0 862.5 318.0Q862.5 321.5 848.75 324.25Q835.0 327.0 812.25 328.5Q789.5 330.0 761.5 330.0H747.0Q720.5 330.0 697.0 332.0Q673.5 334.0 651.75 341.5Q630.0 349.0 608.0 365.0Q597.0 374.5 593.5 381.25Q590.0 388.0 590.0 402.5Q590.0 413.5 588.25 420.75Q586.5 428.0 583.0 428.0Q576.5 428.0 576.5 415.5Q576.5 412.5 571.0 410.0Q565.5 407.5 551.0 403.5Q536.5 399.5 509.0 393.5Q478.5 387.5 456.75 380.5Q435.0 373.5 433.0 371.5Q430.0 370.0 422.5 368.75Q415.0 367.5 404.0 367.5Q386.5 367.5 364.75 370.25Q343.0 373.0 322.75 377.5Q302.5 382.0 289.0 388.0L271.0 396.0L285.0 417.0Q296.5 434.0 298.0 442.5Q298.0 443.0 297.5 444.75Q297.0 446.5 296.0 447.0H294.5Q292.0 447.0 287.25 443.25Q282.5 439.5 279.5 433.5V435.0Q271.0 421.5 253.5 403.0Q236.0 384.5 214.25 365.0Q192.5 345.5 171.25 329.0Q150.0 312.5 133.5 303.0Q125.5 299.0 114.25 295.5Q103.0 292.0 94.0 292.0Q86.0 292.0 71.75 291.0Q57.5 290.0 45.0 289.0L10.0 285.0L55.5 254.0Q77.0 239.0 103.5 217.75Q130.0 196.5 157.75 172.75Q185.5 149.0 211.5 125.5Q237.5 102.0 258.0 81.75Q278.5 61.5 290.75 47.75Q303.0 34.0 303.0 30.0Q303.0 26.0 306.25 23.25Q309.5 20.5 312.5 20.5Q321.0 20.5 321.0 26.0Q321.0 28.0 320.0 30.25Q319.0 32.5 318.0 35.5V35.0Q315.0 41.0 315.0 42.0H316.0Q323.5 42.0 323.5 52.0Q323.5 63.0 341.0 75.0Q358.5 87.0 383.0 94.0Q417.5 102.5 454.5 105.0Q491.5 107.5 527.0 107.5Q545.0 107.5 549.75 106.75Q554.5 106.0 554.5 103.0Q554.5 98.5 550.75 88.0Q547.0 77.5 541.5 65.5Q536.0 53.5 531.0 44.5Q526.0 35.5 523.0 34.0Q516.0 29.5 516.0 19.0Q516.0 11.0 522.0 11.0Q525.5 11.0 527.5 11.5Q536.5 15.0 552.75 17.0Q569.0 19.0 584.5 19.0Q595.0 19.0 603.75 18.25Q612.5 17.5 617.0 15.0Q622.5 14.0 627.0 13.5Q631.5 13.0 635.0 13.0Q641.0 13.5 645.75 15.5Q650.5 17.5 650.5 21.0Q650.5 24.0 642.5 29.0Q634.5 31.5 627.25 44.5Q620.0 57.5 614.5 75.0Q609.0 92.5 605.75 109.0Q602.5 125.5 602.5 134.5Q602.5 146.5 614.75 155.25Q627.0 164.0 646.75 170.0Q666.5 176.0 689.75 179.5Q713.0 183.0 735.25 184.75Q757.5 186.5 775.0 187.0Q792.5 187.5 800.0 187.5Q807.0 187.5 814.0 187.5Q821.0 187.5 827.0 187.0H841.0Q857.0 187.0 861.5 190.0Q860.0 176.5 858.0 165.25Q856.0 154.0 853.5 142.0Q848.5 117.0 841.0 94.75Q833.5 72.5 826.25 56.5Q819.0 40.5 813.5 35.0Q809.5 32.5 807.0 27.75Q804.5 23.0 804.5 19.0Z" fill="black" /></svg>