<svg xmlns="http://www.w3.org/2000/svg" width="790.5" height="383.5" viewBox="0 0 790.5 383.5"><path d="M318.5 295.0 298.0 283.0Q287.0 277.0 276.75 268.75Q266.5 260.5 263.0 257.0Q261.0 252.5 258.5 252.5Q256.5 252.5 254.0 258.75Q251.5 265.0 246.5 279.5Q243.0 290.5 239.75 298.5Q236.5 306.5 235.5 310.0Q237.0 310.0 239.25 309.5Q241.5 309.0 245.0 308.5Q259.0 304.0 277.25 299.75Q295.5 295.5 310.0 295.5ZM183.5 123.0Q185.0 120.5 186.25 118.25Q187.5 116.0 188.0 114.5Q183.5 117.0 171.25 127.75Q159.0 138.5 143.0 152.0Q131.5 162.5 118.0 173.5Q104.5 184.5 92.75 194.0Q81.0 203.5 74.0 209.5Q64.0 217.5 56.5 223.5Q49.0 229.5 49.0 230.0Q49.0 230.5 56.5 231.0Q64.0 231.5 75.0 231.5Q86.0 231.5 96.75 232.5Q107.5 233.5 111.0 236.0Q113.0 237.0 114.5 237.25Q116.0 237.5 118.0 237.5Q125.0 237.5 130.75 230.0Q136.5 222.5 137.5 210.0Q139.0 188.5 157.5 162.5Q164.5 151.0 172.0 139.75Q179.5 128.5 183.5 123.0ZM284.5 79.0V80.0Q280.0 77.5 276.75 75.0Q273.5 72.5 272.5 72.5Q271.5 72.5 270.0 80.5Q268.5 88.5 267.25 99.0Q266.0 109.5 266.0 116.5V125.5L326.0 96.5L313.5 92.5Q305.5 90.0 297.25 86.5Q289.0 83.0 284.5 79.0ZM257.0 86.0Q257.5 76.0 258.0 67.75Q258.5 59.5 258.5 54.5Q258.5 50.0 259.0 50.0Q255.5 50.0 246.0 60.25Q236.5 70.5 224.0 87.0Q211.5 103.5 198.5 122.75Q185.5 142.0 174.0 160.25Q162.5 178.5 155.5 192.0Q148.5 205.5 148.5 211.0Q148.5 224.5 145.5 231.5Q144.5 232.5 144.5 234.0Q144.5 236.0 147.5 236.0Q154.5 236.0 154.5 246.0Q154.5 247.0 154.5 248.5Q154.5 250.0 153.5 251.5Q153.5 253.5 153.25 254.75Q153.0 256.0 153.0 257.0Q153.0 265.5 164.0 275.0Q168.5 277.5 175.75 283.5Q183.0 289.5 190.0 296.5L196.5 302.5Q212.0 315.0 215.5 315.0Q218.5 315.0 223.5 304.5Q228.5 294.0 233.5 279.5Q238.5 265.0 242.25 252.5Q246.0 240.0 246.5 236.0Q252.5 214.0 256.0 214.0Q259.0 214.0 263.0 228.0Q266.5 245.0 290.5 262.5Q314.5 280.0 353.5 295.0L363.5 298.5V262.0Q363.5 229.5 356.5 209.0Q349.5 188.5 333.5 174.5Q328.5 169.0 325.5 165.25Q322.5 161.5 322.5 159.5V158.0Q324.5 156.5 337.75 155.5Q351.0 154.5 368.0 154.0Q385.0 153.5 397.5 153.5Q406.0 153.5 411.0 154.25Q416.0 155.0 416.0 156.5Q416.0 161.0 405.5 167.0Q395.5 173.0 389.5 187.75Q383.5 202.5 380.25 221.0Q377.0 239.5 376.0 257.25Q375.0 275.0 375.0 286.5Q375.0 295.5 376.5 298.5Q378.0 301.5 382.0 303.0Q384.0 304.0 393.75 307.0Q403.5 310.0 416.75 313.25Q430.0 316.5 443.75 319.75Q457.5 323.0 467.75 325.0Q478.0 327.0 481.0 327.0Q481.0 317.0 480.75 295.25Q480.5 273.5 480.0 246.75Q479.5 220.0 478.5 193.5Q477.5 167.0 476.0 147.0Q474.5 127.0 472.0 120.0L467.5 105.5L415.5 104.0Q388.0 104.0 362.0 106.25Q336.0 108.5 312.0 117.25Q288.0 126.0 266.5 146.0Q254.5 158.0 250.5 158.0Q248.5 157.0 246.5 152.0Q250.5 136.0 252.75 119.25Q255.0 102.5 257.0 86.0ZM379.5 179.5 384.0 167.5H366.5Q360.0 167.5 354.75 168.0Q349.5 168.5 348.5 169.0Q353.5 179.5 361.0 189.5Q368.5 199.5 371.5 200.5Q372.5 196.5 374.75 190.5Q377.0 184.5 379.5 179.5ZM557.5 267.5 542.5 263.0Q533.5 260.5 523.75 257.0Q514.0 253.5 510.0 251.0Q505.5 248.0 503.0 248.0Q502.0 248.0 501.75 252.25Q501.5 256.5 501.5 268.0Q501.5 289.5 504.5 289.5L505.5 289.0Q512.5 285.5 521.0 282.0Q529.5 278.5 537.5 275.5ZM510.0 34.0 510.5 32.5Q510.5 30.5 504.5 30.0Q498.5 29.5 482.5 29.5H453.5Q459.5 39.0 467.0 59.25Q474.5 79.5 479.5 98.5L486.0 124.5L489.5 104.0Q493.0 85.0 498.75 66.5Q504.5 48.0 510.0 34.0ZM557.5 163.5 542.5 159.5Q533.5 157.0 523.75 153.25Q514.0 149.5 510.0 147.0Q508.0 145.0 506.0 144.5Q504.0 144.0 503.0 144.0Q502.0 144.0 501.75 148.25Q501.5 152.5 501.5 164.0Q501.5 185.5 504.5 185.5L505.5 185.0Q512.5 181.5 521.0 177.75Q529.5 174.0 537.5 171.5ZM752.0 33.5Q748.5 33.0 736.5 32.25Q724.5 31.5 712.25 30.5Q700.0 29.5 694.0 29.5Q695.0 32.0 697.0 35.75Q699.0 39.5 701.0 44.5Q705.0 51.5 709.75 65.5Q714.5 79.5 718.0 92.5Q721.5 105.0 724.0 114.0Q726.5 123.0 727.0 123.0Q727.5 123.0 729.5 113.75Q731.5 104.5 733.5 92.0Q736.5 78.5 740.0 65.25Q743.5 52.0 746.0 46.5Q748.0 42.5 749.75 39.0Q751.5 35.5 752.0 33.5ZM671.0 17.5Q671.0 10.0 675.5 10.0Q676.5 10.0 678.25 10.5Q680.0 11.0 681.5 11.5Q688.5 14.5 703.5 16.0Q718.5 17.5 733.5 17.5Q743.0 17.5 750.75 17.0Q758.5 16.5 762.0 14.5Q766.0 13.5 769.0 13.0Q772.0 12.5 773.5 12.5Q780.5 12.5 780.5 17.5Q780.5 23.5 769.5 35.5Q751.0 54.0 742.25 112.0Q733.5 170.0 733.0 266.5Q733.0 309.0 731.25 333.5Q729.5 358.0 727.0 358.0Q725.0 358.0 723.0 331.75Q721.0 305.5 721.0 257.5Q721.0 223.5 720.5 201.25Q720.0 179.0 719.0 163.0Q716.0 167.0 702.0 169.5Q688.0 172.0 662.0 172.0Q656.0 172.0 649.75 171.75Q643.5 171.5 636.0 171.5Q612.0 171.5 590.0 173.0Q568.0 174.5 547.25 181.0Q526.5 187.5 506.0 202.5Q495.0 213.0 495.0 216.0Q495.0 228.0 508.75 236.0Q522.5 244.0 543.75 249.0Q565.0 254.0 587.75 256.5Q610.5 259.0 628.5 259.75Q646.5 260.5 653.5 260.5Q680.0 260.5 699.75 262.25Q719.5 264.0 719.5 266.5Q719.5 269.0 708.0 271.5Q696.5 274.0 677.5 275.25Q658.5 276.5 635.5 276.5H623.0Q590.0 276.5 562.5 280.75Q535.0 285.0 507.5 305.5Q498.0 313.0 495.25 318.5Q492.5 324.0 492.5 336.5Q492.5 345.5 491.0 351.75Q489.5 358.0 486.5 358.0Q484.5 358.0 482.75 355.25Q481.0 352.5 481.0 347.5Q481.0 345.0 476.5 342.75Q472.0 340.5 460.0 337.25Q448.0 334.0 425.0 329.0Q400.0 324.0 381.75 318.5Q363.5 313.0 362.0 311.0Q357.0 307.5 337.5 307.5Q323.5 307.5 305.5 309.75Q287.5 312.0 270.5 315.75Q253.5 319.5 242.0 324.5L227.0 331.5L239.0 348.5Q248.5 363.0 249.5 370.0Q249.5 370.5 249.25 371.75Q249.0 373.0 248.0 373.5H246.5Q244.5 373.5 240.5 370.5Q236.5 367.5 234.0 362.5V363.5Q227.0 352.0 212.5 336.75Q198.0 321.5 180.0 305.5Q162.0 289.5 144.0 275.75Q126.0 262.0 112.5 254.0Q106.0 250.5 96.5 247.75Q87.0 245.0 80.0 245.0Q73.5 245.0 61.25 244.0Q49.0 243.0 39.0 242.0L10.0 238.5L48.0 213.0Q66.0 200.5 88.0 182.75Q110.0 165.0 133.25 145.25Q156.5 125.5 178.0 106.0Q199.5 86.5 216.75 69.75Q234.0 53.0 244.0 41.5Q254.0 30.0 254.0 26.5Q254.0 23.0 256.75 20.75Q259.5 18.5 262.0 18.5Q269.0 18.5 269.0 23.5Q269.0 24.5 268.0 26.75Q267.0 29.0 266.0 31.5V31.0Q263.5 36.0 263.5 37.0H264.5Q271.0 37.0 271.0 45.0Q271.0 54.0 285.5 64.0Q300.0 74.0 320.0 80.0Q349.5 87.0 380.0 89.0Q410.5 91.0 440.0 91.0Q455.0 91.0 459.0 90.25Q463.0 89.5 463.0 87.5Q463.0 84.0 459.75 75.25Q456.5 66.5 452.25 56.5Q448.0 46.5 443.75 38.75Q439.5 31.0 437.0 30.0Q434.0 28.5 432.5 24.75Q431.0 21.0 431.0 17.5Q431.0 11.0 436.0 11.0Q439.0 11.0 440.5 11.5Q448.0 14.5 461.5 16.0Q475.0 17.5 488.0 17.5Q496.5 17.5 504.0 17.0Q511.5 16.5 515.5 14.5Q519.5 13.5 523.25 13.0Q527.0 12.5 530.0 12.5Q535.0 13.0 538.75 14.75Q542.5 16.5 542.5 19.0Q542.5 22.5 536.0 25.5Q529.5 27.5 523.5 38.5Q517.5 49.5 512.75 64.25Q508.0 79.0 505.25 92.5Q502.5 106.0 502.5 113.5Q502.5 123.5 512.75 131.0Q523.0 138.5 539.5 143.25Q556.0 148.0 575.5 151.0Q595.0 154.0 613.5 155.5Q632.0 157.0 646.5 157.5Q661.0 158.0 667.5 158.0Q673.5 158.0 679.0 158.0Q684.5 158.0 689.5 157.5H701.5Q714.5 157.5 718.5 160.0Q717.5 148.0 713.75 129.25Q710.0 110.5 704.5 90.5Q699.0 70.5 692.25 54.25Q685.5 38.0 678.5 31.0Q671.0 26.0 671.0 17.5Z" fill="black" /></svg>