<svg xmlns="http://www.w3.org/2000/svg" width="730.5" height="382.5" viewBox="0 0 730.5 382.5"><path d="M93.0 259.5Q79.0 257.0 64.75 253.25Q50.5 249.5 45.0 246.0Q35.5 241.5 33.5 241.5Q32.0 241.5 32.0 245.0Q32.0 246.5 31.75 249.5Q31.5 252.5 31.5 256.5Q31.0 261.0 30.75 266.25Q30.5 271.5 30.0 277.0L26.5 298.0Q49.5 287.0 73.0 279.75Q96.5 272.5 120.5 266.0Q121.5 265.5 122.25 265.5Q123.0 265.5 123.5 265.0Q121.5 264.5 118.5 264.0Q115.5 263.5 112.0 263.0Q108.0 262.0 103.0 261.25Q98.0 260.5 93.0 259.5ZM174.0 208.5Q174.0 199.5 173.0 199.5Q172.0 199.5 170.0 201.25Q168.0 203.0 164.0 205.5L162.5 206.5Q154.0 215.0 154.0 216.5Q154.0 218.0 163.5 218.0Q169.5 218.0 171.75 216.25Q174.0 214.5 174.0 208.5ZM247.5 158.0V157.5Q247.0 155.5 241.75 154.75Q236.5 154.0 230.5 154.0Q223.0 154.0 217.5 156.25Q212.0 158.5 207.5 165.5Q186.5 194.5 186.0 211.0L199.5 201.5Q210.0 195.0 221.0 186.0Q232.0 177.0 239.75 169.0Q247.5 161.0 247.5 158.0ZM225.5 209.0Q233.0 209.0 235.5 204.0Q238.0 199.0 238.0 193.0Q238.0 191.0 236.5 190.5Q234.5 191.0 225.0 198.0Q216.5 205.5 216.5 207.5Q216.5 209.0 225.5 209.0ZM213.0 221.0 186.0 213.0Q186.5 230.5 208.5 245.5Q220.5 253.5 229.0 255.75Q237.5 258.0 255.0 258.0Q268.0 258.0 273.25 257.75Q278.5 257.5 278.5 257.0Q278.5 256.5 276.5 254.5Q269.5 245.5 251.5 236.0Q233.5 226.5 213.0 221.0ZM255.5 145.5Q259.5 145.5 262.25 140.0Q265.0 134.5 266.5 128.0Q268.0 121.5 268.0 118.5Q265.0 119.0 258.5 123.75Q252.0 128.5 245.75 134.0Q239.5 139.5 238.0 142.0Q240.5 142.0 245.0 143.0Q249.5 144.0 253.0 145.0H252.5Q253.5 145.0 254.25 145.25Q255.0 145.5 255.5 145.5ZM315.5 192.5Q309.0 188.5 299.5 182.5Q290.0 176.5 283.0 173.0L264.5 163.5Q262.5 167.5 260.25 172.25Q258.0 177.0 256.0 181.0Q248.5 194.5 248.5 204.5Q248.5 220.5 266.0 231.0Q272.0 234.5 279.0 240.25Q286.0 246.0 289.5 250.0Q294.5 256.5 297.0 256.5Q299.0 256.5 305.5 251.5Q308.5 248.5 314.0 241.5Q319.5 234.5 325.25 226.75Q331.0 219.0 335.0 212.5Q339.0 206.0 339.0 204.5Q339.0 203.0 334.5 203.0Q333.0 203.0 327.0 200.0Q321.0 197.0 315.5 192.5ZM363.0 232.5Q358.5 224.0 354.25 218.0Q350.0 212.0 349.0 212.0Q348.0 212.0 343.25 218.5Q338.5 225.0 333.75 232.75Q329.0 240.5 328.0 243.5Q331.0 244.5 340.25 246.5Q349.5 248.5 359.25 250.25Q369.0 252.0 373.0 252.0Q371.0 245.5 363.0 232.5ZM418.0 189.5Q415.5 183.5 406.5 166.5V167.0L394.0 145.0Q391.5 149.0 389.0 153.0Q386.5 157.0 384.0 161.0L373.0 176.5L394.5 183.5Q402.5 185.5 409.0 187.0Q415.5 188.5 418.0 189.5ZM430.0 208.5Q393.5 192.0 373.0 192.0Q360.5 192.0 360.5 199.0Q360.5 206.5 367.25 219.0Q374.0 231.5 384.5 244.25Q395.0 257.0 405.75 265.75Q416.5 274.5 424.0 275.0Q425.5 275.0 427.5 274.0Q430.0 272.5 435.25 265.75Q440.5 259.0 446.0 250.25Q451.5 241.5 455.5 234.0Q459.5 226.5 459.5 223.5Q459.5 223.0 451.0 218.25Q442.5 213.5 430.0 208.5ZM477.5 228.5Q477.5 225.0 476.5 225.0Q474.5 225.0 470.5 230.5Q466.5 236.0 462.5 243.5Q458.5 251.0 455.5 257.5Q452.5 264.0 452.5 266.5Q452.5 266.5 463.75 266.75Q475.0 267.0 490.0 267.0Q503.0 267.0 514.25 267.5Q525.5 268.0 530.5 269.0Q526.5 266.0 519.75 261.75Q513.0 257.5 505.0 252.5Q493.5 245.0 485.5 238.0Q477.5 231.0 477.5 228.5ZM491.0 114.5 498.0 96.0H467.5L473.5 110.5Q477.5 120.0 479.5 124.5Q481.5 129.0 483.5 129.0Q485.5 129.0 491.0 114.5ZM573.0 210.0Q573.5 209.5 573.5 208.5Q573.5 207.5 570.5 207.5Q564.0 207.5 564.0 210.5Q564.0 213.5 567.5 213.5Q572.0 213.5 573.0 210.0ZM573.0 251.5Q572.0 248.0 567.5 248.0Q564.0 248.0 564.0 251.0Q564.0 254.0 570.5 254.0Q573.0 254.0 573.5 252.5Q573.5 252.5 573.25 252.25Q573.0 252.0 573.0 251.5ZM665.0 284.5V257.0L631.5 257.5Q602.0 258.0 584.25 261.75Q566.5 265.5 566.5 270.5Q566.5 273.0 572.5 276.0Q576.5 278.0 586.0 282.25Q595.5 286.5 607.75 291.5Q620.0 296.5 631.75 301.25Q643.5 306.0 651.75 309.0Q660.0 312.0 661.5 312.0Q663.0 312.0 664.0 304.0Q665.0 296.0 665.0 284.5ZM575.5 123.0H569.5Q566.0 123.0 566.0 125.0Q567.5 126.5 570.0 126.5Q575.5 126.5 575.5 123.0ZM575.0 163.5Q575.0 163.0 572.0 163.0Q569.5 163.0 569.5 163.5Q570.5 164.0 572.5 164.0Q574.0 164.0 575.0 163.5ZM610.5 99.0Q590.0 89.5 577.0 86.25Q564.0 83.0 549.5 83.0Q533.5 83.0 527.5 85.0Q521.5 87.0 513.5 96.5Q503.5 109.0 498.25 130.75Q493.0 152.5 489.5 191.0L486.5 226.0Q490.0 228.5 499.0 234.25Q508.0 240.0 518.75 246.5Q529.5 253.0 538.0 257.75Q546.5 262.5 548.5 262.5Q553.0 262.5 553.0 249.0Q553.0 240.0 554.0 236.5Q555.0 233.0 558.0 233.0Q559.0 233.0 560.0 233.25Q561.0 233.5 562.5 234.0Q588.0 245.0 633.5 245.0H665.0L663.5 230.0L663.0 215.0L627.0 216.0Q610.5 216.5 596.25 218.25Q582.0 220.0 574.5 223.5Q567.5 226.0 561.5 228.0Q555.5 230.0 554.5 230.0Q552.0 230.0 552.0 216.5V208.5Q553.0 199.5 554.25 193.25Q555.5 187.0 556.0 187.0Q559.0 187.0 571.5 194.5Q576.5 196.5 588.5 198.5Q600.5 200.5 615.0 201.5Q629.5 202.5 641.5 202.5Q650.0 202.5 656.25 201.75Q662.5 201.0 663.5 200.0Q664.0 199.0 664.25 198.0Q664.5 197.0 664.5 195.0Q664.5 189.0 663.0 182.5L660.0 167.5H629.0Q612.0 167.5 600.25 169.75Q588.5 172.0 578.5 176.5L575.0 178.0Q569.0 180.5 564.5 182.25Q560.0 184.0 558.5 184.0L558.0 183.5Q557.5 182.0 556.75 171.25Q556.0 160.5 555.75 146.5Q555.5 132.5 555.5 122.0Q555.5 115.5 555.75 111.25Q556.0 107.0 556.0 106.5Q558.0 105.5 559.0 105.5Q563.0 105.5 571.5 109.0Q577.0 111.5 588.75 114.0Q600.5 116.5 614.0 117.75Q627.5 119.0 637.0 119.0Q647.5 119.0 647.5 118.5Q647.5 117.5 636.75 111.5Q626.0 105.5 610.5 99.0ZM560.5 69.0 547.5 56.5Q541.5 51.0 536.75 46.75Q532.0 42.5 531.0 42.5Q530.0 42.5 526.5 48.75Q523.0 55.0 519.75 62.5Q516.5 70.0 515.5 73.5Q517.0 73.0 520.5 73.0Q524.5 72.5 529.5 72.0Q534.5 71.5 539.5 71.0ZM657.0 143.5V144.0L654.5 132.0H621.5Q597.0 132.0 583.5 135.0Q570.0 138.0 570.0 143.0V144.0Q572.0 149.0 585.0 151.75Q598.0 154.5 626.0 155.0L658.5 155.5ZM685.5 78.0 690.0 66.0 667.5 64.5Q664.5 64.0 662.0 64.0Q659.5 64.0 657.0 64.0Q652.0 64.0 648.5 64.25Q645.0 64.5 645.0 64.5Q645.0 65.5 647.25 73.25Q649.5 81.0 653.0 90.5Q655.5 98.0 658.5 107.5Q661.5 117.0 663.5 124.0L665.0 129.5Q667.0 140.5 669.0 140.5Q672.5 140.5 675.5 116.5Q676.5 106.5 679.5 95.25Q682.5 84.0 685.5 78.0ZM528.0 18.5Q529.5 10.0 535.0 10.0Q539.0 10.0 539.0 17.5Q541.0 35.0 556.75 50.5Q572.5 66.0 607.0 83.5Q633.0 96.5 639.5 96.5Q643.0 96.5 643.0 94.0Q643.0 88.5 636.5 76.0V76.5Q625.0 56.0 625.0 50.0Q625.0 47.5 630.0 47.5Q632.5 47.5 637.0 48.0Q641.5 48.5 646.5 50.0Q651.5 51.0 656.25 51.5Q661.0 52.0 666.0 52.0Q671.0 52.0 676.25 51.5Q681.5 51.0 687.0 50.0Q700.0 47.0 706.0 47.0Q712.5 47.0 712.5 51.5Q712.5 56.0 705.5 64.5Q697.0 74.5 690.25 99.75Q683.5 125.0 680.0 160.75Q676.5 196.5 676.5 238.0Q676.5 244.0 676.75 250.0Q677.0 256.0 677.0 262.0L678.5 319.0L699.0 325.0H698.5Q707.5 327.0 714.0 331.0Q720.5 335.0 720.5 337.0Q720.5 341.0 714.5 341.0Q707.0 341.0 684.5 335.0Q680.5 334.0 679.5 334.0Q677.0 334.0 676.5 337.75Q676.0 341.5 676.0 351.5Q676.0 372.5 671.0 372.5Q666.0 372.5 663.5 348.5L663.0 326.0L620.5 309.0Q594.5 298.0 572.25 291.5Q550.0 285.0 528.5 282.0Q507.0 279.0 482.5 279.0Q439.5 279.0 439.5 284.0Q439.5 288.0 459.5 301.0Q469.5 307.5 475.25 312.5Q481.0 317.5 481.0 320.0Q481.0 321.0 479.5 322.0H479.0Q476.0 322.0 464.75 316.5Q453.5 311.0 440.5 302.5Q424.0 291.0 407.5 282.25Q391.0 273.5 378.0 268.5Q365.0 263.5 358.5 263.5Q355.0 263.5 355.0 264.5Q353.0 267.0 325.5 268.75Q298.0 270.5 246.5 271.5Q202.5 272.5 171.25 274.5Q140.0 276.5 117.25 280.25Q94.5 284.0 76.25 290.75Q58.0 297.5 39.0 307.5Q29.5 312.5 21.75 315.75Q14.0 319.0 11.5 319.0H10.0V317.0Q10.0 311.5 15.5 295.0Q18.0 288.0 19.25 279.25Q20.5 270.5 20.5 260.5Q20.5 257.0 20.25 253.25Q20.0 249.5 19.5 245.0V234.5Q19.5 225.0 20.25 219.25Q21.0 213.5 23.0 213.5Q27.5 213.5 27.5 219.0Q27.5 226.5 47.0 234.75Q66.5 243.0 98.75 249.0Q131.0 255.0 168.0 257.0L207.5 258.5L192.0 249.0Q184.0 243.5 173.5 238.5Q163.0 233.5 157.0 231.5Q155.0 231.5 147.5 230.25Q140.0 229.0 133.25 226.75Q126.5 224.5 126.5 221.5Q126.5 218.0 137.0 210.5Q143.0 207.0 154.75 197.25Q166.5 187.5 180.25 174.25Q194.0 161.0 205.5 148.5Q208.0 146.0 216.0 140.25Q224.0 134.5 232.5 129.0Q241.0 123.5 255.0 113.25Q269.0 103.0 280.5 93.5Q305.5 73.5 310.0 73.0Q312.0 74.0 312.0 75.5Q312.0 78.5 304.0 89.0Q299.5 94.5 292.75 103.75Q286.0 113.0 281.0 123.0Q276.0 133.0 276.0 140.5Q279.0 146.5 282.0 146.5Q285.5 146.5 285.5 151.5Q285.5 153.0 285.0 154.0Q286.5 156.5 294.0 163.0Q301.5 169.5 311.0 176.5L340.0 195.5Q343.5 191.5 347.0 187.5Q350.5 183.5 354.0 180.0Q360.5 173.0 368.25 162.25Q376.0 151.5 381.0 143.5Q387.0 135.0 392.25 128.25Q397.5 121.5 399.5 121.0Q401.5 121.0 403.75 125.0Q406.0 129.0 406.5 136.0Q407.5 144.5 415.0 158.5Q422.5 172.5 432.5 185.25Q442.5 198.0 450.5 203.0Q458.0 208.5 460.5 208.5Q462.5 208.5 464.5 204.0Q467.0 200.0 469.0 199.25Q471.0 198.5 474.5 198.5L475.0 199.0Q477.0 198.5 478.0 192.5Q479.0 186.5 479.0 178.5Q479.0 171.0 476.75 159.0Q474.5 147.0 470.5 134.25Q466.5 121.5 461.5 111.5Q456.5 101.5 451.0 98.5Q446.0 95.0 446.0 91.5Q446.0 85.0 472.5 83.5L497.5 82.5L510.5 56.5Q516.0 45.0 521.5 34.0Q527.0 23.0 528.0 18.5Z" fill="black" /></svg>