<svg xmlns="http://www.w3.org/2000/svg" width="620.5" height="388.0" viewBox="0 0 620.5 388.0"><path d="M62.0 249.5V250.0Q63.0 249.0 63.5 248.0Q64.0 247.0 64.5 246.5Q62.5 246.5 55.5 251.0Q54.0 252.5 51.5 254.0Q49.0 255.5 46.5 257.5Q45.0 259.0 43.25 260.0Q41.5 261.0 40.5 262.0Q37.0 265.5 37.0 266.5Q37.0 267.5 41.25 269.25Q45.5 271.0 50.5 272.5Q55.5 274.0 57.0 274.0Q58.5 274.0 58.5 268.0Q58.5 263.5 59.75 258.0Q61.0 252.5 62.0 249.5ZM128.5 265.0V265.5Q130.5 261.5 130.5 259.5Q130.5 259.5 130.25 259.25Q130.0 259.0 129.0 259.0Q126.0 259.0 115.0 266.5L104.5 274.0L111.5 277.0Q120.0 281.5 125.5 281.5Q127.0 281.5 127.0 280.5V280.0Q127.0 279.0 126.5 277.5Q126.0 276.0 126.0 275.5Q126.0 270.0 128.5 265.0ZM197.0 265.0Q195.5 261.5 191.5 260.5Q188.5 261.5 182.0 266.0Q175.5 270.5 173.5 273.0Q176.0 274.5 181.75 277.5Q187.5 280.5 193.0 283.0Q198.5 285.5 199.0 285.5V280.5Q199.0 276.5 198.5 272.0Q198.0 267.5 197.0 265.0ZM304.0 363.0Q305.0 363.0 313.25 355.0Q321.5 347.0 332.5 336.0Q343.5 325.0 352.5 315.5Q361.5 306.0 364.5 303.0Q362.5 303.5 359.5 305.0Q356.5 306.5 353.0 307.5L347.0 310.5Q340.0 314.0 328.75 317.5Q317.5 321.0 310.5 322.0Q302.5 322.5 299.5 323.75Q296.5 325.0 295.5 326.0L296.5 326.5Q297.5 330.0 299.0 336.25Q300.5 342.5 301.0 349.5Q301.5 355.0 302.5 359.0Q303.5 363.0 304.0 363.0ZM69.5 157.0V156.5Q71.0 155.0 71.0 152.5Q69.5 153.0 63.0 157.5Q56.5 162.0 50.25 167.0Q44.0 172.0 43.0 173.5Q43.5 175.0 47.5 177.0Q51.5 179.0 56.5 180.75Q61.5 182.5 63.5 182.5Q64.5 182.5 65.25 180.0Q66.0 177.5 66.0 175.0Q66.0 165.0 69.5 157.0ZM124.5 138.5H125.5Q110.5 123.5 104.5 123.5Q101.0 123.5 96.25 130.25Q91.5 137.0 87.0 146.5Q82.5 156.0 79.5 164.5Q76.5 173.0 76.5 176.5Q76.5 186.0 84.5 196.0Q92.5 206.0 108.5 221.0L130.5 242.0L141.0 231.5Q150.0 222.5 150.0 221.0Q150.0 217.5 143.0 212.5Q136.0 207.5 126.25 202.5Q116.5 197.5 108.0 194.0Q99.5 190.5 96.5 190.5Q88.0 190.5 88.0 185.5Q88.0 180.0 97.0 175.5Q100.5 174.0 107.75 169.5Q115.0 165.0 121.5 161.0L135.0 150.5ZM104.5 63.5V64.0Q105.5 62.0 105.5 61.0Q103.0 61.5 96.25 67.0Q89.5 72.5 82.75 78.5Q76.0 84.5 73.5 88.0Q77.5 90.0 86.0 93.5Q94.5 97.0 96.5 97.0Q97.5 97.0 98.5 93.5Q99.5 90.0 100.0 85.0Q101.0 79.0 102.25 73.0Q103.5 67.0 104.5 63.5ZM138.0 169.5Q141.0 164.0 141.0 161.5Q140.0 161.5 136.0 164.25Q132.0 167.0 124.5 172.0L112.0 181.5L118.5 184.5Q127.5 189.0 133.0 189.0Q136.0 189.0 136.0 188.5L135.0 187.5V185.5Q135.0 182.5 136.0 178.25Q137.0 174.0 138.0 169.5ZM171.0 78.5Q173.0 73.0 174.0 68.5Q171.5 69.5 163.75 75.75Q156.0 82.0 149.25 88.25Q142.5 94.5 142.5 96.0Q142.5 96.5 147.0 98.25Q151.5 100.0 157.0 101.5Q162.5 103.0 165.5 103.5H166.5V97.5Q166.5 93.5 167.75 88.5Q169.0 83.5 171.0 78.5ZM209.5 162.5Q209.0 161.5 203.25 155.0Q197.5 148.5 190.0 142.0L171.5 128.0L165.5 138.5Q162.0 145.0 160.0 149.0Q158.0 153.0 158.0 155.5Q158.0 159.0 165.5 166.5Q171.0 174.5 171.5 178.0Q171.0 178.5 171.0 179.75Q171.0 181.0 170.0 181.0H171.0Q170.5 181.5 169.5 182.0Q168.5 182.5 168.0 182.5Q165.0 182.5 157.5 175.0Q153.5 169.0 151.5 169.0Q149.5 169.0 147.5 172.5Q142.5 178.0 142.5 182.5Q142.5 184.5 144.25 187.0Q146.0 189.5 148.5 193.0Q152.0 200.0 152.0 203.0V204.0Q152.0 205.0 158.0 210.5Q164.0 216.0 172.5 223.5L194.0 242.0L207.0 229.0Q217.5 219.0 217.5 214.5Q217.5 210.0 194.0 202.5Q185.5 200.0 179.25 196.5Q173.0 193.0 173.0 192.0Q173.0 190.5 179.0 185.5Q185.0 180.5 193.0 175.0Q207.5 165.5 209.5 162.5ZM204.0 250.0Q205.0 249.0 205.0 248.25Q205.0 247.5 205.5 247.0Q202.0 247.0 202.0 252.5Q202.0 252.0 204.0 250.0ZM247.5 149.5Q243.0 149.5 236.0 156.5H237.0Q234.0 159.0 226.75 165.0Q219.5 171.0 211.5 175.5Q205.0 180.5 199.75 184.5Q194.5 188.5 194.5 189.0Q194.5 190.0 204.0 193.5Q208.0 195.0 213.0 197.0Q218.0 199.0 220.5 200.0Q224.5 202.5 227.5 202.5Q232.5 202.5 232.5 191.5Q232.5 179.0 240.0 165.5L243.0 158.5Q244.0 155.5 245.5 153.0Q247.0 150.5 247.5 149.5ZM231.0 80.5Q233.5 73.5 234.0 70.0Q230.5 72.0 222.0 77.5L211.5 85.5L217.5 88.0Q223.0 90.0 225.0 90.0Q227.0 90.0 228.25 88.0Q229.5 86.0 231.0 80.5ZM317.5 158.5Q317.5 157.0 315.0 157.0Q313.0 157.0 313.0 158.5Q313.0 160.0 315.0 160.0Q317.5 160.0 317.5 158.5ZM339.5 238.0H322.5Q311.0 238.0 308.25 239.25Q305.5 240.5 305.5 245.5Q305.5 252.5 307.5 252.5Q310.5 252.5 318.25 249.5Q326.0 246.5 332.75 242.75Q339.5 239.0 339.5 238.0ZM333.5 167.5V166.5Q333.5 164.5 330.0 164.5Q329.0 164.5 327.5 165.0Q326.0 165.5 326.0 166.5Q326.0 167.5 330.0 167.5Q331.0 167.5 332.0 167.5Q333.0 167.5 333.5 167.5ZM334.5 166.5 334.0 167.0Q334.0 167.0 334.25 167.0Q334.5 167.0 334.5 166.5ZM405.0 190.5Q386.5 185.5 367.0 182.75Q347.5 180.0 334.5 180.0Q328.0 180.0 324.0 180.25Q320.0 180.5 320.0 181.5Q319.5 182.5 319.0 186.0Q318.5 189.5 318.5 193.5Q318.5 196.0 319.0 199.75Q319.5 203.5 319.5 207.0Q320.5 221.0 322.0 223.5Q323.5 226.0 331.5 226.0Q336.0 226.0 348.75 223.75Q361.5 221.5 377.25 217.75Q393.0 214.0 407.75 210.0Q422.5 206.0 431.0 203.0Q435.5 201.5 438.0 200.75Q440.5 200.0 440.5 200.0Q440.5 199.5 432.5 197.5Q424.5 195.5 405.0 190.5ZM542.5 164.5Q540.5 164.5 523.0 178.0Q516.0 183.5 508.25 189.5Q500.5 195.5 497.0 198.0L492.5 201.0L507.5 205.5Q522.0 210.5 526.0 210.5Q528.5 210.5 528.5 204.0V201.5Q528.5 196.5 530.5 189.0Q532.5 181.5 536.0 177.0Q538.5 172.5 540.5 169.0Q542.5 165.5 542.5 164.5ZM370.5 100.0Q368.5 98.0 362.5 92.0Q356.5 86.0 349.0 77.5L327.5 54.5L317.5 68.0Q306.0 82.0 306.0 82.0H311.5Q314.0 82.0 324.25 84.75Q334.5 87.5 345.5 91.5Q354.0 94.5 361.25 96.75Q368.5 99.0 370.5 100.0ZM124.0 23.0 129.0 10.0 131.5 24.0Q131.5 27.5 130.5 32.75Q129.5 38.0 127.0 42.5Q125.0 46.0 121.0 53.75Q117.0 61.5 113.5 69.5L106.0 88.0L113.5 105.0Q117.0 111.5 122.75 119.75Q128.5 128.0 133.5 132.5L145.5 142.0Q148.0 139.5 151.0 136.75Q154.0 134.0 156.5 132.0Q165.0 122.5 165.0 121.5L161.0 117.5V118.5Q157.5 116.0 151.75 113.25Q146.0 110.5 140.5 108.5Q124.5 103.0 124.5 97.5Q124.5 92.5 136.0 85.5Q142.5 81.0 151.75 73.0Q161.0 65.0 170.0 56.25Q179.0 47.5 185.25 40.75Q191.5 34.0 192.5 32.0Q194.5 28.0 197.5 27.0Q198.5 27.0 200.0 29.0L199.0 27.5Q199.5 28.0 199.5 28.25Q199.5 28.5 200.0 29.0Q200.5 30.0 200.5 32.0Q200.5 35.5 198.5 41.25Q196.5 47.0 194.0 53.0Q185.0 70.0 181.25 80.0Q177.5 90.0 177.5 96.0Q177.5 103.0 180.5 106.5Q183.0 110.0 185.0 115.0Q187.0 120.0 187.0 123.0Q187.0 124.5 191.75 130.0Q196.5 135.5 203.0 141.5L219.0 156.5L232.5 146.0Q251.0 132.0 251.0 128.0Q251.0 125.5 246.75 122.5Q242.5 119.5 234.5 113.0Q226.5 107.5 217.0 102.25Q207.5 97.0 202.0 96.0Q188.5 93.5 188.5 88.0Q188.5 83.5 198.5 79.0Q203.0 76.5 212.0 70.25Q221.0 64.0 230.75 56.75Q240.5 49.5 247.75 43.0Q255.0 36.5 255.5 34.5Q257.0 30.5 260.0 30.5H262.0L263.0 33.5Q263.0 36.5 259.75 44.5Q256.5 52.5 251.0 62.5V62.0L237.5 86.5L243.5 100.0Q246.0 105.0 250.25 109.75Q254.5 114.5 258.0 116.0Q259.5 117.5 262.0 117.5Q265.5 117.5 268.5 113.75Q271.5 110.0 277.0 101.5Q279.0 98.0 282.5 97.0Q284.5 97.0 284.5 98.5Q286.0 99.0 286.0 101.5Q286.0 107.0 280.0 116.0V115.5L275.5 123.0Q272.0 129.5 267.0 138.25Q262.0 147.0 258.0 155.5Q249.5 170.5 246.25 177.75Q243.0 185.0 243.0 193.0Q243.0 194.5 243.25 196.5Q243.5 198.5 243.5 201.0Q246.0 217.0 252.0 222.5V222.0Q256.0 224.5 257.0 227.5Q256.0 230.5 255.0 230.5Q255.5 230.5 261.0 236.5Q266.5 242.5 274.25 251.5Q282.0 260.5 290.0 270.25Q298.0 280.0 303.25 288.0Q308.5 296.0 308.5 300.0Q308.5 301.0 307.5 303.0Q306.5 305.0 304.5 305.0Q303.5 305.0 302.5 303.5Q292.5 289.0 277.25 271.25Q262.0 253.5 250.5 241.0Q241.0 232.0 236.75 228.75Q232.5 225.5 230.5 225.5Q228.0 225.5 226.0 228.5Q222.5 233.0 218.75 242.25Q215.0 251.5 212.25 260.5Q209.5 269.5 209.5 274.5Q209.5 279.5 213.0 288.25Q216.5 297.0 220.75 304.25Q225.0 311.5 228.0 312.5Q230.5 313.5 237.5 321.25Q244.5 329.0 252.5 338.75Q260.5 348.5 266.0 356.5Q271.5 364.5 271.5 366.5Q269.5 366.5 258.5 357.5Q247.5 348.5 233.0 334.0Q216.0 317.0 204.75 307.25Q193.5 297.5 183.0 291.75Q172.5 286.0 157.5 281.5Q152.0 278.5 152.0 276.0Q152.0 273.0 159.5 268.0Q163.0 265.5 168.25 261.75Q173.5 258.0 176.5 256.0L183.5 249.5L175.0 240.5Q171.0 237.0 167.25 233.75Q163.5 230.5 162.0 230.5Q160.0 230.5 155.75 236.25Q151.5 242.0 147.5 249.75Q143.5 257.5 140.5 264.5Q137.5 271.5 137.5 274.5Q137.5 279.0 139.5 282.5Q140.5 286.0 142.0 289.5Q143.5 293.0 144.0 295.5Q145.0 296.5 153.0 304.75Q161.0 313.0 171.5 323.5Q183.0 333.5 189.5 342.25Q196.0 351.0 196.0 353.5L195.5 355.5H194.0Q191.0 355.5 187.25 352.5Q183.5 349.5 179.0 345.0Q172.5 337.5 161.5 328.0Q150.5 318.5 138.25 309.25Q126.0 300.0 115.25 293.5Q104.5 287.0 98.5 285.5Q81.5 282.5 81.5 276.0Q81.5 272.0 92.0 267.0Q96.0 265.5 101.75 262.0Q107.5 258.5 112.0 256.0L120.0 248.5L107.5 236.0Q98.0 225.5 92.0 225.5Q88.5 225.5 84.5 231.0Q80.5 236.5 75.0 248.0Q72.0 254.5 69.75 260.25Q67.5 266.0 66.5 267.0Q66.5 272.5 77.25 287.25Q88.0 302.0 103.0 317.0Q113.5 326.5 120.25 334.5Q127.0 342.5 127.0 345.0L125.5 347.5Q123.5 347.5 115.0 341.0Q106.5 334.5 95.5 324.5Q49.5 281.5 24.5 277.0Q19.0 276.0 14.5 273.75Q10.0 271.5 10.0 269.5Q10.0 267.5 15.0 264.25Q20.0 261.0 27.5 256.5Q33.5 253.5 44.25 245.75Q55.0 238.0 63.0 230.5L81.0 213.5L68.0 203.0Q62.5 197.5 53.5 192.75Q44.5 188.0 38.5 186.0Q20.0 181.0 20.0 175.5Q20.0 172.5 28.0 167.5Q32.0 166.0 42.25 159.0Q52.5 152.0 64.5 142.75Q76.5 133.5 85.0 125.25Q93.5 117.0 93.5 113.0Q93.5 110.5 88.0 107.5Q82.5 104.5 69.5 100.0L46.5 91.5L59.0 82.5Q66.5 78.0 77.0 69.5Q87.5 61.0 97.75 51.5Q108.0 42.0 115.5 34.0Q123.0 26.0 124.0 23.0ZM291.0 140.5Q291.0 137.0 298.0 137.0Q303.0 137.0 311.75 138.0Q320.5 139.0 327.75 142.0Q335.0 145.0 335.0 151.0Q335.0 161.0 418.5 181.5Q438.0 186.5 450.5 191.25Q463.0 196.0 463.0 199.5Q463.0 201.5 451.0 207.25Q439.0 213.0 421.5 218.0Q411.0 221.0 396.25 226.75Q381.5 232.5 367.0 238.75Q352.5 245.0 341.0 251.0Q306.5 268.0 301.0 268.0Q297.5 268.0 296.5 265.0Q296.5 264.0 296.0 262.0Q295.5 260.0 295.5 258.0Q295.5 257.0 295.75 255.5Q296.0 254.0 296.5 253.0V252.5Q296.5 246.5 292.5 239.5Q291.5 237.0 290.5 234.75Q289.5 232.5 289.5 230.5Q289.5 226.0 297.0 226.0H305.5Q308.0 226.0 309.0 223.0Q310.0 220.0 310.0 210.5Q310.0 194.5 307.75 188.75Q305.5 183.0 300.0 183.0Q292.0 183.0 292.0 178.5Q292.0 174.5 297.0 166.0Q301.5 160.5 301.5 158.5Q301.5 157.0 297.0 152.5H298.0Q295.0 150.0 293.0 146.25Q291.0 142.5 291.0 140.5ZM324.5 38.0Q324.5 30.5 328.5 30.5Q333.5 30.5 336.5 42.0Q339.5 51.5 356.5 69.25Q373.5 87.0 402.0 109.25Q430.5 131.5 466.5 155.5Q481.0 165.0 491.25 171.75Q501.5 178.5 502.5 178.5Q504.5 178.5 513.0 172.25Q521.5 166.0 532.5 157.25Q543.5 148.5 553.0 139.75Q562.5 131.0 566.5 126.5Q574.5 118.5 577.0 118.5Q579.0 118.5 579.0 122.0Q579.0 124.0 576.75 129.25Q574.5 134.5 569.5 141.5Q556.0 159.5 547.5 178.25Q539.0 197.0 539.0 207.5Q539.0 213.0 541.0 213.5Q545.5 216.0 545.5 223.5Q545.5 225.0 555.25 235.75Q565.0 246.5 578.5 259.5Q593.0 272.5 601.75 284.0Q610.5 295.5 609.5 298.5H608.5Q606.5 298.5 596.75 290.5Q587.0 282.5 574.0 270.0Q560.0 257.0 545.25 244.5Q530.5 232.0 519.75 224.0Q509.0 216.0 506.0 216.0Q505.5 216.0 490.5 226.0Q475.5 236.0 455.0 250.0Q435.5 262.5 419.5 274.5Q403.5 286.5 387.75 300.5Q372.0 314.5 352.0 333.5Q329.0 356.5 317.5 367.25Q306.0 378.0 301.0 378.0Q296.5 378.0 295.25 371.5Q294.0 365.0 293.5 354.0Q293.5 349.0 290.75 342.25Q288.0 335.5 284.5 331.0Q281.0 325.5 279.0 321.75Q277.0 318.0 277.0 315.5Q277.0 309.5 287.0 309.5Q317.0 309.5 338.75 301.0Q360.5 292.5 386.5 277.5Q401.0 269.5 418.25 259.25Q435.5 249.0 451.25 238.75Q467.0 228.5 477.25 221.5Q487.5 214.5 487.5 213.5Q487.5 213.5 485.0 212.5Q482.5 211.5 478.0 210.0L463.0 204.5L479.5 195.0Q484.0 192.5 487.75 190.25Q491.5 188.0 491.5 187.5Q491.5 186.5 484.0 181.0Q476.5 175.5 464.5 167.5Q452.5 159.5 439.0 151.0Q425.5 142.5 413.5 135.5Q401.5 128.5 394.0 125.0Q379.0 117.5 362.0 110.5Q345.0 103.5 329.5 98.75Q314.0 94.0 303.0 92.5Q295.0 91.5 289.5 89.5Q284.0 87.5 284.0 85.5Q284.0 85.5 290.5 78.5Q297.0 71.5 305.5 63.5Q313.5 55.0 319.0 47.5Q324.5 40.0 324.5 38.0Z" fill="black" /></svg>