<svg xmlns="http://www.w3.org/2000/svg" width="705.5" height="382.0" viewBox="0 0 705.5 382.0"><path d="M53.0 240.5Q48.0 238.0 43.75 236.25Q39.5 234.5 36.0 232.5Q33.5 231.5 31.25 230.5Q29.0 229.5 28.0 229.0Q27.5 229.5 26.75 235.5Q26.0 241.5 25.0 250.0V262.5Q25.0 272.5 27.0 272.5L28.0 272.0Q49.5 264.5 61.75 259.5Q74.0 254.5 74.5 252.5Q74.5 252.0 68.0 248.5Q61.5 245.0 53.0 240.5ZM261.5 228.5 257.5 217.5Q253.0 205.0 251.0 205.0Q250.0 205.0 246.25 208.75Q242.5 212.5 239.0 216.75Q235.5 221.0 234.5 223.5Q236.0 224.0 239.75 224.75Q243.5 225.5 248.5 226.5ZM338.5 293.0Q337.0 291.5 334.5 291.5Q330.5 292.5 319.75 295.25Q309.0 298.0 299.5 300.5Q290.0 303.0 288.5 304.0Q289.5 305.5 292.25 310.5Q295.0 315.5 300.0 322.0L312.5 340.0L317.0 329.5Q319.5 324.0 323.5 317.0Q327.5 310.0 331.0 305.0Q338.5 296.0 338.5 293.0ZM471.0 257.0Q466.5 254.0 463.75 252.0Q461.0 250.0 460.0 250.0Q460.0 250.0 459.75 256.5Q459.5 263.0 459.0 272.5V294.0L502.0 272.5L493.0 269.5Q488.0 267.0 481.5 263.25Q475.0 259.5 471.0 257.0ZM94.5 147.0Q94.5 146.5 91.5 146.0Q88.5 145.5 84.5 145.5Q76.5 145.5 76.5 147.5Q76.5 149.0 77.25 151.5Q78.0 154.0 78.5 157.5Q79.5 161.0 80.75 164.75Q82.0 168.5 82.5 171.5Q83.5 175.5 84.0 176.5Q85.5 175.5 88.0 169.75Q90.5 164.0 92.5 157.25Q94.5 150.5 94.5 147.0ZM122.0 243.5 119.5 206.5Q119.0 191.0 117.25 176.25Q115.5 161.5 113.5 156.5L109.0 145.5L103.5 157.0Q101.0 162.0 98.25 173.0Q95.5 184.0 92.75 196.75Q90.0 209.5 88.25 220.5Q86.5 231.5 86.5 237.0Q86.5 240.0 87.0 240.0Q88.0 241.5 93.75 242.5Q99.5 243.5 106.0 243.5ZM127.0 95.0Q114.5 86.5 112.5 86.5Q111.5 86.5 111.5 89.5Q111.5 91.5 111.0 98.25Q110.5 105.0 109.5 112.0L107.5 127.0Q113.0 124.5 118.25 122.0Q123.5 119.5 128.5 117.5Q149.5 109.5 150.5 105.0Q150.0 104.5 146.0 104.5Q144.5 104.5 138.5 102.0Q132.5 99.5 127.0 95.0ZM139.0 147.0Q139.0 145.5 129.5 145.5H120.5L124.0 162.0Q125.5 169.0 126.75 173.5Q128.0 178.0 128.5 178.0Q130.0 176.0 132.5 169.25Q135.0 162.5 137.0 155.75Q139.0 149.0 139.0 147.0ZM165.5 162.5Q161.0 146.5 156.0 146.5Q152.0 146.5 148.25 154.5Q144.5 162.5 141.25 174.75Q138.0 187.0 135.75 200.5Q133.5 214.0 132.0 225.0Q130.5 236.0 130.5 241.5Q131.5 242.0 137.5 242.75Q143.5 243.5 151.5 244.0L171.5 245.0L170.5 213.0Q170.5 199.0 169.25 184.0Q168.0 169.0 165.5 162.5ZM191.0 145.5H181.0Q172.5 145.5 172.5 148.0Q172.5 149.0 172.75 150.5Q173.0 152.0 173.0 154.0L174.0 157.5Q179.0 177.5 180.0 177.5Q180.5 177.5 184.5 166.0L185.0 164.5Q186.0 160.5 187.25 157.25Q188.5 154.0 189.0 151.0Q190.0 148.5 190.5 147.0Q191.0 145.5 191.0 145.5ZM264.0 154.0Q265.0 151.0 265.0 151.0Q265.0 150.0 262.25 149.5Q259.5 149.0 252.5 149.0H239.0L246.5 160.0Q253.5 171.5 256.5 172.0Q258.0 171.0 259.5 166.5Q260.5 164.0 261.75 160.25Q263.0 156.5 264.0 154.0ZM339.5 188.0 333.0 186.0Q321.5 183.5 314.5 176.5Q311.0 173.5 309.5 173.5Q309.0 173.5 309.0 186.0Q309.0 192.5 309.5 197.0Q310.0 201.5 311.0 202.0Q312.0 201.5 313.25 200.75Q314.5 200.0 316.5 199.0Q322.5 196.5 328.0 193.0ZM333.5 140.0Q333.5 138.0 330.5 138.0Q328.0 138.0 328.0 140.0Q328.0 142.5 330.5 142.5Q333.5 142.5 333.5 140.0ZM374.5 103.0Q365.5 98.0 359.75 95.5Q354.0 93.0 349.0 93.0Q342.5 93.0 335.25 98.0Q328.0 103.0 314.0 114.0Q301.5 123.5 294.5 130.5Q287.5 137.5 283.25 144.25Q279.0 151.0 274.5 160.0Q263.5 182.5 263.5 202.0Q263.5 214.0 268.5 220.5Q271.5 224.5 281.5 233.75Q291.5 243.0 303.5 253.0Q315.5 263.0 325.5 270.0Q335.5 277.0 337.5 277.0Q340.0 277.0 350.5 271.5Q361.0 266.0 376.25 257.25Q391.5 248.5 408.0 238.5Q424.5 228.5 439.25 219.25Q454.0 210.0 464.0 203.25Q474.0 196.5 475.5 195.0Q476.5 194.5 478.0 189.0Q479.5 183.5 480.5 177.0Q481.0 173.0 481.25 170.25Q481.5 167.5 481.5 165.5Q481.5 160.5 479.0 160.5Q477.0 160.5 463.25 153.0Q449.5 145.5 432.5 135.5Q415.5 125.5 398.5 116.0Q381.5 106.5 374.5 103.0ZM393.0 138.0H385.0Q378.0 138.0 378.0 140.5Q378.0 142.5 378.5 143.5Q380.0 148.0 380.5 148.5Q382.5 147.5 386.0 144.0Q393.0 139.5 393.0 138.0ZM499.5 209.0Q499.0 208.5 498.0 207.5Q497.0 206.5 495.5 206.0L494.5 205.0V205.5Q491.0 203.5 489.0 203.5Q487.5 203.5 487.5 210.0Q487.5 216.0 488.5 216.0Q490.0 216.0 493.0 213.0Q495.0 212.0 497.0 210.75Q499.0 209.5 499.5 209.0ZM506.5 91.0 496.0 87.5Q490.5 85.5 483.75 81.5Q477.0 77.5 473.5 74.0L466.0 68.0L464.5 89.0Q464.0 96.5 463.75 102.25Q463.5 108.0 463.5 111.0V112.0Q466.0 111.0 472.25 108.0Q478.5 105.0 486.0 101.5ZM497.0 165.0H497.5Q493.5 161.0 492.5 161.0Q491.5 161.0 491.5 166.5Q491.5 170.5 494.0 170.5Q495.5 170.5 496.0 170.0Q499.0 169.0 499.0 168.5Q499.0 167.0 497.0 165.0ZM364.5 86.5Q360.0 79.0 356.25 71.5Q352.5 64.0 350.0 56.0L346.5 43.0L319.0 74.5L337.5 79.0Q346.0 81.0 353.75 83.0Q361.5 85.0 363.5 86.0Q364.0 86.5 364.25 86.5Q364.5 86.5 364.5 86.5ZM591.0 142.0Q595.0 137.5 595.0 135.0Q595.0 134.0 589.0 133.5Q587.0 133.0 584.5 133.0Q581.5 133.0 581.5 135.0Q581.5 137.5 584.0 145.0Q585.5 148.5 586.0 148.5Q586.5 148.5 591.0 142.0ZM657.5 104.5H630.0L634.5 113.0Q635.5 115.5 636.75 118.0Q638.0 120.5 639.0 123.0Q641.0 127.0 641.5 128.5Q643.0 128.5 646.75 123.0Q650.5 117.5 654.0 111.5Q657.5 105.5 657.5 104.5ZM650.5 60.0 660.0 45.0H645.0Q631.5 45.0 631.5 46.5Q631.5 47.0 632.25 48.25Q633.0 49.5 633.5 51.5Q635.0 55.0 637.25 59.5Q639.5 64.0 640.0 68.0Q641.0 72.0 641.5 72.0Q643.5 72.0 650.5 60.0ZM100.5 98.5Q101.5 84.0 103.0 74.0Q104.5 64.0 105.5 64.0Q106.0 64.0 110.0 67.5Q114.0 71.0 119.0 76.5Q126.5 83.5 133.25 87.75Q140.0 92.0 150.5 94.0Q161.0 96.0 178.5 97.0Q196.0 98.0 225.0 98.5Q255.0 99.0 276.5 100.5Q298.0 102.0 298.0 104.0Q298.0 106.0 280.5 107.25Q263.0 108.5 239.5 108.5Q214.5 108.5 200.75 109.25Q187.0 110.0 177.0 112.25Q167.0 114.5 154.0 119.0Q122.5 129.0 122.5 133.5Q122.5 134.0 127.5 134.0Q129.5 134.0 131.75 134.0Q134.0 134.0 137.0 133.5Q144.0 132.5 149.75 132.25Q155.5 132.0 157.5 132.0Q162.0 132.0 171.5 132.5Q181.0 133.0 191.0 133.5Q201.0 134.0 206.0 134.5L210.5 135.0L211.0 136.0Q211.0 139.5 205.0 147.0Q197.0 157.0 191.5 177.0Q186.0 197.0 183.5 221.5L181.0 247.0H227.5Q273.5 247.0 273.5 252.5V253.5Q272.0 255.0 258.5 256.25Q245.0 257.5 226.0 257.5H182.0V272.5Q182.0 280.5 180.75 286.0Q179.5 291.5 177.0 291.5Q175.5 291.5 174.25 286.25Q173.0 281.0 173.0 273.5Q173.0 262.5 171.5 260.25Q170.0 258.0 160.5 256.0Q153.5 255.0 148.5 254.25Q143.5 253.5 139.5 253.5Q133.0 253.5 131.5 257.25Q130.0 261.0 130.0 271.0Q130.0 279.0 128.75 285.25Q127.5 291.5 125.0 291.5Q123.5 291.5 122.0 286.0Q120.5 280.5 120.5 272.5Q120.5 262.5 119.25 260.0Q118.0 257.5 113.0 257.5Q109.0 257.5 103.75 258.5Q98.5 259.5 94.5 261.5Q89.0 263.5 87.25 266.5Q85.5 269.5 85.5 276.5Q85.5 283.0 84.25 287.25Q83.0 291.5 80.5 291.5Q78.5 291.5 77.25 287.5Q76.0 283.5 76.0 278.0Q76.0 272.5 75.25 270.75Q74.5 269.0 71.5 269.0Q70.5 269.0 69.0 269.0Q67.5 269.0 65.5 269.5H66.0Q62.5 270.5 53.0 274.25Q43.5 278.0 35.0 282.5Q27.0 286.0 20.5 288.25Q14.0 290.5 12.0 290.5H11.5Q10.0 289.5 10.0 287.5Q10.0 282.5 12.5 273.5Q14.5 268.5 15.5 257.5Q16.5 246.5 16.5 236.5Q16.5 221.0 17.5 215.5Q18.5 210.0 22.5 210.0Q25.0 210.0 27.25 211.0Q29.5 212.0 29.5 214.0Q29.5 215.5 37.0 220.75Q44.5 226.0 54.0 231.0Q63.5 236.0 69.0 237.5Q70.0 238.0 72.5 238.0Q75.0 238.0 75.5 233.75Q76.0 229.5 76.0 214.0Q76.0 189.0 72.25 169.25Q68.5 149.5 63.0 145.0Q57.0 140.5 57.0 135.5Q57.0 130.5 63.5 130.5Q66.0 130.5 68.5 131.0Q71.0 131.5 74.5 132.5Q79.0 133.0 82.5 133.75Q86.0 134.5 88.5 134.5Q93.5 134.5 95.0 132.5Q97.0 131.5 98.5 121.5Q100.0 111.5 100.5 98.5ZM329.5 123.5Q334.5 117.0 339.0 117.0Q342.0 117.0 342.0 120.5Q342.0 122.5 341.5 123.5Q341.0 124.0 341.0 125.5Q341.0 130.0 344.5 137.75Q348.0 145.5 353.5 153.25Q359.0 161.0 364.5 165.5Q371.5 170.5 373.5 170.5Q374.0 170.5 374.0 167.0Q374.0 158.0 369.5 148.0Q365.0 138.0 359.5 136.5Q351.5 134.0 351.5 127.5Q351.5 122.5 356.5 122.5Q360.0 122.5 367.5 124.5H367.0Q373.0 125.5 382.5 126.75Q392.0 128.0 399.0 128.0Q407.5 128.5 413.0 131.25Q418.5 134.0 418.5 136.5Q418.5 140.0 410.0 141.0Q404.5 141.5 398.25 147.25Q392.0 153.0 387.75 160.0Q383.5 167.0 383.5 173.0V180.0Q392.0 179.5 400.5 179.0Q409.0 178.5 417.5 178.0Q424.5 177.5 430.25 177.25Q436.0 177.0 440.5 177.0Q454.0 177.0 456.0 180.5L455.5 180.0Q456.5 181.0 456.5 182.0Q456.5 186.0 443.0 186.0Q436.5 186.0 427.5 186.75Q418.5 187.5 411.5 188.5L397.5 191.0Q401.0 193.5 408.5 200.0Q416.0 206.5 422.75 213.25Q429.5 220.0 429.5 223.0V223.5Q429.0 225.0 428.0 225.0Q426.0 225.0 419.5 221.0Q413.0 217.0 405.0 210.5Q390.0 197.5 385.0 196.5Q384.5 199.5 383.5 208.5Q382.5 217.5 381.5 227.5Q380.5 238.5 378.5 247.0Q376.5 255.5 375.0 255.5H374.5Q372.0 254.0 372.0 236.5Q372.0 233.0 372.25 228.75Q372.5 224.5 372.5 220.5Q374.0 204.0 374.0 197.5Q374.0 192.0 372.75 191.0Q371.5 190.0 368.5 190.0Q363.5 190.0 353.5 193.75Q343.5 197.5 333.25 202.75Q323.0 208.0 316.0 212.5Q311.5 216.0 307.25 218.25Q303.0 220.5 301.5 220.5Q300.5 220.5 299.75 213.0Q299.0 205.5 299.0 195.5Q299.0 182.5 299.75 169.5Q300.5 156.5 301.5 154.5H302.5Q305.0 154.5 314.5 163.0Q322.5 170.0 333.75 174.5Q345.0 179.0 354.5 179.0Q358.0 179.0 360.0 178.5Q364.0 178.5 364.0 178.5Q362.5 174.5 353.25 168.25Q344.0 162.0 334.0 156.75Q324.0 151.5 320.0 150.5Q307.5 148.5 307.5 144.0Q307.5 140.5 317.5 135.0Q321.5 132.5 325.25 129.25Q329.0 126.0 329.5 123.5ZM353.0 15.0Q359.5 10.0 362.0 10.0Q364.0 10.0 364.0 12.5Q364.0 15.0 359.5 22.0Q356.5 26.5 356.5 34.5Q356.5 42.5 360.0 53.25Q363.5 64.0 371.0 75.0Q375.5 82.0 381.0 88.0Q386.5 94.0 396.25 100.5Q406.0 107.0 422.5 117.5L432.5 123.5Q456.5 138.5 466.0 144.0Q475.5 149.5 479.0 149.5Q480.5 149.5 482.0 146.5Q484.5 143.5 486.5 143.5Q489.5 143.5 497.0 150.5Q503.0 156.0 510.5 157.75Q518.0 159.5 539.5 160.5Q571.5 162.0 571.5 167.0Q571.5 171.5 542.5 171.5Q521.5 171.5 509.75 175.75Q498.0 180.0 497.5 187.0V188.5Q498.0 197.0 505.75 199.75Q513.5 202.5 538.0 202.5Q552.0 202.5 561.25 204.0Q570.5 205.5 570.5 208.0Q570.5 210.0 562.25 211.5Q554.0 213.0 541.5 213.0Q525.0 213.0 517.0 214.75Q509.0 216.5 500.5 222.0V221.5Q494.5 226.0 488.75 229.0Q483.0 232.0 482.0 232.0Q480.5 232.0 479.25 227.75Q478.0 223.5 477.5 217.5L476.5 207.0Q465.5 214.5 453.5 222.0Q441.5 229.5 430.0 236.5Q415.0 245.5 396.25 258.75Q377.5 272.0 359.75 288.0Q342.0 304.0 330.5 322.5Q319.0 341.0 319.0 361.0Q319.5 363.0 319.5 364.5Q319.5 366.0 319.5 367.0Q319.5 372.0 317.0 372.0Q312.0 372.0 309.5 367.25Q307.0 362.5 307.0 358.5Q307.0 352.0 299.25 338.75Q291.5 325.5 277.0 308.5Q262.5 290.0 262.5 286.5Q262.5 283.5 265.5 283.5Q268.5 283.5 275.5 287.0Q284.5 291.0 294.0 291.0Q297.0 291.0 303.5 290.25Q310.0 289.5 315.5 288.0Q321.0 286.5 321.0 284.5Q321.0 282.0 316.0 277.25Q311.0 272.5 301.0 264.5Q280.5 248.0 266.25 241.75Q252.0 235.5 234.5 235.5Q228.5 235.5 223.25 234.5Q218.0 233.5 217.0 233.0L216.5 231.5Q216.5 229.0 221.25 222.25Q226.0 215.5 232.5 207.5Q240.0 199.0 245.75 192.5Q251.5 186.0 251.5 185.5Q251.5 184.5 247.0 177.75Q242.5 171.0 236.0 163.0Q231.0 154.5 227.25 148.25Q223.5 142.0 223.5 140.0L224.5 138.5H251.0Q260.0 138.5 266.75 135.5Q273.5 132.5 286.5 123.5Q289.0 121.0 291.75 119.0Q294.5 117.0 297.5 114.5Q305.0 109.0 311.75 103.5Q318.5 98.0 322.5 94.5L331.5 86.5L320.0 88.0Q313.5 88.5 306.75 90.5Q300.0 92.5 297.5 94.0Q291.0 98.0 289.0 98.0Q288.5 97.5 288.0 97.0Q287.5 96.5 287.5 95.5Q287.5 89.5 315.0 62.0Q327.0 49.5 335.75 39.0Q344.5 28.5 344.5 26.5Q344.5 20.0 353.0 15.0ZM676.5 31.0Q679.0 29.5 680.75 28.5Q682.5 27.5 684.5 27.5Q686.0 27.5 687.75 28.5Q689.5 29.5 692.5 31.0Q695.5 33.0 695.5 35.5Q695.5 37.5 692.25 38.75Q689.0 40.0 680.0 43.0Q676.5 44.0 670.75 50.25Q665.0 56.5 659.25 65.25Q653.5 74.0 649.5 82.5L644.5 95.0L665.0 92.5Q669.0 92.0 672.25 92.0Q675.5 92.0 678.0 92.0Q689.5 92.0 689.5 95.5Q689.5 98.0 687.25 99.5Q685.0 101.0 682.5 101.0Q677.0 101.0 667.0 111.75Q657.0 122.5 651.0 135.5Q648.0 141.5 646.75 149.25Q645.5 157.0 645.0 171.5Q644.5 186.0 644.5 213.0Q644.5 239.5 643.0 260.25Q641.5 281.0 640.5 283.5Q637.5 287.5 636.5 287.5Q635.5 287.5 635.5 281.5Q635.5 279.0 632.0 278.0Q628.5 277.0 617.75 276.5Q607.0 276.0 584.5 275.5H568.0Q544.0 275.5 526.75 278.0Q509.5 280.5 495.25 286.5Q481.0 292.5 464.0 303.5L449.5 313.5L450.0 271.0Q450.0 253.5 451.5 241.25Q453.0 229.0 455.0 229.0Q456.0 229.0 459.5 231.5Q463.0 234.0 466.0 238.0Q476.0 251.0 492.5 256.5Q509.0 262.0 539.5 263.0L577.5 263.5L578.5 219.0Q578.5 212.0 578.75 205.75Q579.0 199.5 579.0 194.0Q579.0 164.5 576.25 151.25Q573.5 138.0 566.5 131.5Q562.5 127.5 560.5 124.75Q558.5 122.0 558.0 120.5Q559.0 117.5 562.0 117.5Q564.5 117.5 567.75 118.25Q571.0 119.0 575.5 120.0Q581.0 121.5 589.75 122.5Q598.5 123.5 605.0 123.5Q622.5 123.5 623.5 130.0Q623.5 134.0 614.5 138.0Q604.5 142.0 599.0 149.5Q593.5 157.0 591.25 172.25Q589.0 187.5 588.0 215.5L587.0 263.5H633.0V196.5Q633.0 167.0 632.75 151.5Q632.5 136.0 631.25 129.0Q630.0 122.0 627.0 118.5Q625.0 114.5 620.5 111.25Q616.0 108.0 613.5 107.0Q605.5 104.0 605.5 100.5Q605.5 97.5 612.5 95.0Q608.5 95.0 603.0 94.75Q597.5 94.5 590.5 94.0H584.5Q562.0 94.0 544.75 95.25Q527.5 96.5 511.25 101.75Q495.0 107.0 475.0 119.5Q467.0 124.5 461.75 127.5Q456.5 130.5 455.5 130.5Q454.5 130.5 454.25 118.5Q454.0 106.5 454.0 88.0Q454.0 70.5 455.25 58.25Q456.5 46.0 458.0 46.0Q460.0 46.0 471.0 58.5H470.5Q478.5 66.5 486.0 71.5Q493.5 76.5 504.0 79.0Q514.5 81.5 531.25 82.25Q548.0 83.0 574.0 83.0H634.0L630.0 69.0Q626.0 54.5 614.0 49.0Q609.0 46.5 605.25 43.5Q601.5 40.5 601.5 39.0Q601.5 37.0 612.0 35.75Q622.5 34.5 636.5 34.5Q651.0 34.5 662.75 33.5Q674.5 32.5 676.5 31.0ZM343.0 287.5H344.5Q344.5 288.5 343.5 288.5Q343.0 288.5 343.0 287.5Z" fill="black" /></svg>