<svg xmlns="http://www.w3.org/2000/svg" width="652.0" height="380.0" viewBox="0 0 652.0 380.0"><path d="M89.5 300.0Q89.5 301.0 78.5 301.0Q67.5 301.0 67.5 301.5Q67.5 304.0 74.0 316.5L79.0 327.0L83.5 315.5Q86.5 309.5 88.0 305.0Q89.5 300.5 89.5 300.0ZM359.5 266.0Q359.5 266.0 351.5 263.25Q343.5 260.5 332.0 257.0L306.0 248.5V278.5L333.0 272.5Q344.0 270.0 351.75 268.0Q359.5 266.0 359.5 266.0ZM57.5 112.5Q58.5 112.0 58.5 110.5Q58.5 109.0 46.0 109.0Q41.5 109.0 37.5 108.75Q33.5 108.5 32.5 108.0L34.0 112.5Q35.0 116.5 36.75 121.5Q38.5 126.5 40.5 132.0Q45.0 148.5 47.5 148.5Q48.5 148.5 52.5 131.5Q53.5 126.0 55.0 120.75Q56.5 115.5 57.5 112.5ZM118.5 185.5Q113.5 184.5 107.0 183.0Q100.5 181.5 96.5 180.5Q94.5 179.0 91.0 179.0Q88.0 179.5 88.0 189.5Q88.0 199.0 91.0 199.0Q92.5 199.0 94.0 198.0Q96.5 197.0 101.25 195.75Q106.0 194.5 111.0 193.5L116.5 193.0Q122.0 192.0 125.0 191.0Q128.0 190.0 128.5 189.5Q126.5 187.5 118.5 185.5ZM151.5 121.5Q131.5 109.0 114.75 100.5Q98.0 92.0 94.0 92.0H93.5Q82.5 92.0 75.25 103.5Q68.0 115.0 64.0 132.5Q60.0 150.0 58.25 169.0Q56.5 188.0 56.25 203.5Q56.0 219.0 56.0 225.5Q56.0 232.0 56.25 238.25Q56.5 244.5 57.0 250.0L60.0 285.0L75.5 286.5Q88.0 286.5 94.75 284.25Q101.5 282.0 112.0 275.5Q117.5 271.5 130.75 264.25Q144.0 257.0 161.5 248.0Q179.0 239.0 196.5 230.0Q223.0 217.0 241.5 207.5Q260.0 198.0 260.0 197.5Q260.0 196.5 250.0 196.25Q240.0 196.0 225.5 196.0Q207.0 196.0 181.25 197.25Q155.5 198.5 130.25 202.5Q105.0 206.5 87.5 215.5Q78.0 219.5 73.5 219.5Q68.0 219.5 68.0 215.5Q68.0 212.0 72.0 205.5Q74.5 202.0 75.75 194.0Q77.0 186.0 77.0 178.0Q77.0 156.5 83.5 156.5Q87.0 156.5 90.5 161.5Q93.5 166.5 107.75 170.5Q122.0 174.5 142.25 177.0Q162.5 179.5 183.75 181.0Q205.0 182.5 223.0 183.0Q241.0 183.5 250.0 183.5Q257.5 183.5 259.5 184.5Q258.0 183.0 250.25 178.25Q242.5 173.5 231.5 167.5Q212.0 156.0 192.0 144.0Q172.0 132.0 151.5 121.5ZM108.0 81.5H111.0V80.0Q111.0 78.0 109.0 72.25Q107.0 66.5 106.0 66.5Q105.0 66.5 103.5 68.0Q102.0 69.5 99.5 72.0H100.0Q95.0 77.0 95.0 78.5Q95.0 78.0 100.0 80.0Q102.5 81.0 104.5 81.25Q106.5 81.5 108.0 81.5ZM316.5 60.0H288.0Q281.5 60.0 279.0 60.5Q276.5 61.0 276.5 63.0Q276.5 64.5 277.5 67.25Q278.5 70.0 280.0 74.0Q281.5 77.5 284.25 86.0Q287.0 94.5 289.0 103.0Q290.5 109.5 292.5 114.0Q294.5 118.5 296.5 118.5Q298.0 117.5 301.0 110.25Q304.0 103.0 307.25 93.0Q310.5 83.0 313.25 73.75Q316.0 64.5 316.5 60.0ZM335.0 160.5 356.0 154.5 309.5 139.5 307.5 152.0Q307.0 155.0 307.0 157.5Q307.0 160.0 307.0 162.5V165.5Q307.0 165.5 307.25 165.75Q307.5 166.0 308.0 166.0Q316.0 166.0 335.0 160.5ZM478.0 254.5H587.0V159.0L493.5 159.5Q458.0 159.5 435.5 160.0Q413.0 160.5 397.25 162.0Q381.5 163.5 366.75 166.5Q352.0 169.5 332.0 174.5Q318.5 178.0 312.0 181.75Q305.5 185.5 303.5 192.5Q301.5 199.5 301.5 214.5Q301.5 227.0 309.75 233.5Q318.0 240.0 344.0 248.0Q353.5 250.5 367.75 252.0Q382.0 253.5 408.0 254.0Q434.0 254.5 478.0 254.5ZM615.5 46.0Q615.5 45.0 615.75 44.25Q616.0 43.5 616.0 43.5Q616.0 42.5 612.0 42.0Q608.0 41.5 597.0 41.5Q586.0 41.5 582.0 41.75Q578.0 42.0 578.0 43.0Q578.0 44.5 579.0 46.0Q581.0 51.0 583.75 62.0Q586.5 73.0 589.0 85.75Q591.5 98.5 593.0 109.75Q594.5 121.0 594.5 126.5Q595.5 123.0 596.0 118.5Q600.0 103.0 603.75 87.75Q607.5 72.5 610.75 61.0Q614.0 49.5 615.5 46.0ZM106.5 47.0Q112.0 41.5 116.75 38.0Q121.5 34.5 123.0 34.5Q127.5 34.5 127.5 40.5Q127.5 45.5 122.5 49.5Q119.5 52.5 119.5 57.5Q119.5 68.5 126.0 82.0Q129.0 87.5 136.25 94.0Q143.5 100.5 160.25 110.75Q177.0 121.0 208.5 139.5Q230.0 151.5 247.25 162.5Q264.5 173.5 274.75 181.0Q285.0 188.5 285.0 190.5Q285.0 196.0 252.5 215.25Q220.0 234.5 163.5 263.0Q141.0 274.0 125.75 283.5Q110.5 293.0 106.5 298.5Q99.0 309.5 94.25 323.25Q89.5 337.0 89.5 348.5Q89.5 350.0 89.75 352.0Q90.0 354.0 90.5 355.0Q91.0 357.0 91.0 359.0Q91.0 361.0 91.0 362.0Q91.0 370.0 86.5 370.0Q80.5 370.0 76.5 354.5Q75.5 349.0 70.0 338.0Q64.5 327.0 59.0 316.5Q53.5 304.0 50.5 295.5Q47.5 287.0 46.5 274.75Q45.5 262.5 44.5 239.0Q42.5 195.0 35.75 162.25Q29.0 129.5 18.5 114.0Q10.0 104.0 10.0 98.5Q10.0 96.0 12.5 95.0Q13.5 95.0 20.0 95.0Q26.5 95.0 34.5 95.5Q43.0 95.5 48.75 94.5Q54.5 93.5 60.5 89.5Q66.5 85.5 75.5 77.5Q84.5 70.0 93.75 61.0Q103.0 52.0 106.5 47.0ZM623.0 20.5H622.0Q625.5 16.5 628.75 13.25Q632.0 10.0 634.5 10.0Q638.0 10.0 639.75 13.5Q641.5 17.0 642.0 21.0Q641.5 25.0 640.5 28.5Q639.5 32.0 637.0 33.0Q633.5 34.5 628.5 47.0Q623.5 59.5 618.5 79.0Q613.5 98.5 609.5 121.5Q604.5 150.0 601.75 195.0Q599.0 240.0 598.0 297.0Q598.0 311.0 596.5 320.0Q595.0 329.0 592.5 329.0Q590.5 329.0 588.75 319.75Q587.0 310.5 587.0 296.5V268.0H504.0Q472.0 268.0 449.25 269.0Q426.5 270.0 408.75 271.75Q391.0 273.5 373.5 276.5Q349.5 281.0 335.75 284.25Q322.0 287.5 315.75 290.5Q309.5 293.5 307.75 298.5Q306.0 303.5 306.0 312.0Q306.0 321.0 304.5 327.25Q303.0 333.5 300.0 333.5Q298.0 333.5 296.0 328.25Q294.0 323.0 294.0 315.0Q294.0 308.0 293.75 303.0Q293.5 298.0 292.5 296.5Q291.0 295.5 290.25 286.5Q289.5 277.5 289.5 265.0V247.5Q289.5 230.5 288.75 204.75Q288.0 179.0 285.0 151.25Q282.0 123.5 275.25 99.5Q268.5 75.5 257.0 62.0L243.0 45.0L281.5 46.5H296.5Q309.5 46.5 315.0 45.0Q320.5 43.5 325.5 40.0Q332.5 33.0 336.0 33.0Q339.0 33.0 341.5 36.75Q344.0 40.5 344.0 43.0Q344.0 47.0 338.5 50.0Q335.5 52.5 331.5 60.75Q327.5 69.0 323.75 79.75Q320.0 90.5 317.5 100.5Q315.0 110.5 315.0 117.0Q315.0 124.5 318.25 127.5Q321.5 130.5 335.0 135.0Q341.0 137.5 349.75 139.0Q358.5 140.5 373.0 141.5Q387.5 142.5 411.0 143.25Q434.5 144.0 470.5 144.5L585.5 147.0L581.0 116.5Q577.5 90.5 571.75 68.25Q566.0 46.0 559.0 40.0Q552.0 35.5 552.0 31.0Q552.0 25.0 566.5 25.0Q574.5 25.0 585.5 26.5Q593.0 27.0 598.25 27.5Q603.5 28.0 607.0 28.0Q614.5 28.0 617.25 26.0Q620.0 24.0 623.0 20.5Z" fill="black" /></svg>