<svg xmlns="http://www.w3.org/2000/svg" width="628.0" height="380.5" viewBox="0 0 628.0 380.5"><path d="M230.0 298.0Q230.0 287.5 227.75 283.75Q225.5 280.0 216.5 276.0L203.5 269.5L202.0 295.0Q201.5 304.0 201.0 311.5Q200.5 319.0 200.5 322.5Q202.5 321.5 206.5 320.75Q210.5 320.0 215.5 319.0H215.0Q226.0 316.0 228.0 312.75Q230.0 309.5 230.0 298.0ZM295.5 298.5 281.0 295.5Q271.5 293.0 261.75 290.75Q252.0 288.5 248.5 287.5Q245.0 286.0 243.0 286.0Q240.5 286.0 240.5 295.5Q240.5 301.0 241.25 303.5Q242.0 306.0 247.0 306.0Q253.5 306.0 276.5 301.5ZM109.5 160.0Q119.0 140.0 121.0 133.5Q118.5 134.5 111.5 140.0Q104.5 145.5 96.0 153.5Q85.5 162.5 72.5 173.25Q59.5 184.0 51.5 190.5L34.0 204.5L42.5 207.5Q46.5 209.0 51.0 210.5Q55.5 212.0 57.0 212.0Q59.0 212.0 65.0 214.25Q71.0 216.5 77.5 220.0Q82.0 222.0 86.75 223.5Q91.5 225.0 94.0 225.5H95.0Q97.0 221.5 97.0 206.0Q97.0 187.5 109.5 160.0ZM252.5 168.5H244.0Q233.0 168.5 223.0 166.0H222.0Q218.0 165.0 216.5 165.0Q216.5 167.0 223.0 184.5L233.5 208.5Q238.5 198.5 243.0 188.0ZM260.0 112.0Q251.5 109.5 240.5 105.5Q229.5 101.5 224.0 98.0L212.0 90.5L210.5 113.5Q210.0 116.0 210.0 118.5Q210.0 121.0 210.0 123.5Q210.0 129.0 210.5 132.75Q211.0 136.5 211.5 136.5Q212.5 136.5 221.75 134.0Q231.0 131.5 242.0 127.5Q247.0 126.0 251.25 124.5Q255.5 123.0 259.5 122.0Q265.0 120.5 269.25 119.0Q273.5 117.5 275.5 117.0Q273.5 116.0 269.5 115.0Q265.5 114.0 260.0 112.0ZM303.0 286.5 302.5 231.0Q302.5 227.5 302.25 216.0Q302.0 204.5 301.0 189.75Q300.0 175.0 297.75 160.75Q295.5 146.5 291.25 137.25Q287.0 128.0 280.5 128.0Q279.5 128.0 277.75 128.0Q276.0 128.0 274.5 129.0Q274.0 129.5 270.5 130.5Q267.0 131.5 261.5 133.5Q250.5 137.0 238.75 140.5Q227.0 144.0 216.0 148.5L208.0 152.0L216.0 154.0Q221.5 155.0 231.5 156.0Q241.5 157.0 251.0 157.5Q259.5 157.5 266.5 158.5Q273.5 159.5 273.5 161.5Q273.5 163.0 271.5 165.25Q269.5 167.5 267.0 170.5L264.0 174.0Q254.0 184.5 249.25 199.25Q244.5 214.0 242.0 240.5L239.0 273.5L251.5 277.5Q257.0 279.0 266.5 281.25Q276.0 283.5 284.0 284.5ZM349.5 234.5Q340.5 232.0 332.25 229.0Q324.0 226.0 321.0 225.0Q319.0 224.0 317.5 224.0Q316.0 224.0 315.25 227.5Q314.5 231.0 314.5 240.0Q314.5 249.0 315.25 252.5Q316.0 256.0 318.0 256.0Q319.0 256.0 324.75 254.25Q330.5 252.5 331.0 252.0Q335.0 250.5 340.0 249.0Q345.0 247.5 349.5 246.0L367.0 240.5Q363.0 239.0 358.5 237.5Q354.0 236.0 349.5 234.5ZM392.0 292.0V270.0Q392.0 258.5 391.0 253.25Q390.0 248.0 384.0 248.0Q380.0 248.0 373.0 250.0Q366.0 252.0 356.0 255.5Q332.0 263.0 323.25 268.25Q314.5 273.5 314.5 279.5Q314.5 283.5 318.5 284.75Q322.5 286.0 338.0 286.0Q348.0 286.0 359.5 287.0Q371.0 288.0 377.5 289.0ZM308.0 156.0 315.5 137.5Q321.0 124.0 322.0 120.0Q321.5 120.0 321.25 119.75Q321.0 119.5 320.5 119.5H318.5Q313.5 119.5 306.25 120.75Q299.0 122.0 298.5 123.0Q299.0 124.0 300.5 129.25Q302.0 134.5 303.5 141.5ZM386.0 139.5 381.5 121.0 335.0 118.5Q328.5 134.0 323.75 149.25Q319.0 164.5 316.5 181.0L313.5 208.0Q316.5 209.0 325.0 213.0Q333.5 217.0 336.5 218.0Q345.5 221.5 356.75 225.0Q368.0 228.5 375.0 229.5L392.0 232.5V202.0L383.0 208.0Q372.5 215.0 368.5 215.0Q366.5 215.0 365.25 204.75Q364.0 194.5 364.0 179.5Q364.0 144.5 371.5 144.5Q375.0 144.5 381.5 152.0Q385.5 157.5 388.0 157.5Q389.0 157.5 389.0 155.0Q389.0 150.0 386.0 139.5ZM384.5 168.5Q378.5 165.5 376.5 165.5Q374.5 165.5 374.25 169.0Q374.0 172.5 374.0 182.0Q374.0 189.0 374.25 194.0Q374.5 199.0 375.0 199.0Q380.5 199.0 386.25 193.25Q392.0 187.5 392.0 182.0Q392.0 173.0 384.5 168.5ZM483.5 265.5V243.5H401.5L404.5 288.0L434.0 289.5Q441.5 290.0 447.25 290.25Q453.0 290.5 458.0 290.5Q476.0 290.5 479.75 285.5Q483.5 280.5 483.5 265.5ZM397.5 125.0Q398.0 124.0 398.0 122.0Q398.0 118.5 394.5 118.5Q392.0 118.5 392.0 122.0Q392.0 124.0 392.5 125.0Q393.5 128.5 394.25 130.5Q395.0 132.5 395.0 132.5Q396.0 131.0 397.5 125.0ZM483.5 232.5V206.5Q483.5 182.0 479.5 182.0Q447.0 185.5 430.5 188.75Q414.0 192.0 408.5 196.75Q403.0 201.5 403.0 210.5V215.0L404.5 230.0L443.5 231.5ZM493.5 286.0H567.0L564.0 241.5L538.0 240.5H525.5Q510.0 240.5 503.25 242.0Q496.5 243.5 495.0 248.75Q493.5 254.0 493.5 265.5ZM406.5 90.0Q395.5 90.0 385.0 86.5Q381.5 87.5 381.5 90.0Q381.5 93.5 385.0 100.5V100.0Q389.0 107.5 396.0 107.5Q401.5 107.5 406.0 101.75Q410.5 96.0 410.5 91.0Q410.5 90.0 406.5 90.0ZM479.0 145.0 473.0 121.0 442.0 119.5Q439.0 119.5 436.0 119.25Q433.0 119.0 430.5 119.0Q413.0 119.0 409.0 121.0Q407.0 125.5 405.25 136.75Q403.5 148.0 403.5 157.5Q403.5 166.0 405.0 167.5Q407.5 168.0 419.25 170.0Q431.0 172.0 446.5 173.0H448.5Q455.5 173.5 460.75 173.75Q466.0 174.0 469.5 174.0Q477.0 174.0 480.0 172.5Q483.0 171.0 483.0 166.5Q483.0 163.5 481.75 158.25Q480.5 153.0 479.0 145.0ZM488.5 125.0Q488.5 124.0 488.75 123.5Q489.0 123.0 489.0 122.5Q489.0 118.5 486.0 118.5Q483.5 118.5 483.5 122.0Q483.5 124.0 484.0 125.0Q485.0 128.5 485.75 130.25Q486.5 132.0 486.5 132.0Q486.5 131.0 487.25 129.0Q488.0 127.0 488.5 125.0ZM497.0 90.0Q494.5 90.0 489.75 89.0Q485.0 88.0 481.5 87.5Q480.0 87.0 479.0 86.75Q478.0 86.5 477.0 86.5Q473.0 86.5 473.0 90.0Q473.0 95.0 477.25 101.25Q481.5 107.5 487.0 107.5Q494.5 107.5 499.0 98.5Q500.0 95.5 500.75 93.75Q501.5 92.0 501.5 91.0Q501.5 90.0 497.0 90.0ZM594.5 26.0H563.5Q549.5 26.0 540.25 26.5Q531.0 27.0 531.0 28.0Q531.0 28.5 533.5 33.5Q536.0 38.5 539.0 44.0Q541.5 49.0 546.25 59.75Q551.0 70.5 554.0 80.5Q561.0 103.0 564.5 103.0Q566.0 103.0 566.0 93.0Q566.0 86.0 571.25 73.25Q576.5 60.5 583.0 47.75Q589.5 35.0 593.5 28.0Q594.5 26.0 594.5 26.0Q594.5 26.0 594.5 26.0ZM512.5 12.5Q512.5 10.0 516.5 10.0Q518.0 10.0 520.25 10.0Q522.5 10.0 525.0 11.0Q530.0 12.0 545.25 13.0Q560.5 14.0 577.0 14.0Q581.5 13.5 586.25 13.5Q591.0 13.5 594.5 13.5Q604.5 13.5 611.25 14.5Q618.0 15.5 618.0 17.0Q618.0 17.5 614.5 22.75Q611.0 28.0 606.0 34.5Q594.0 49.0 586.75 65.0Q579.5 81.0 576.25 102.75Q573.0 124.5 573.0 157.0Q573.0 171.0 573.5 187.25Q574.0 203.5 575.0 223.0Q576.5 261.0 578.0 273.5Q579.5 286.0 582.0 286.0Q589.0 286.0 589.0 292.0Q589.0 294.0 586.75 295.5Q584.5 297.0 582.0 297.0Q579.0 297.0 577.75 301.25Q576.5 305.5 576.5 316.5Q576.5 326.0 575.25 332.5Q574.0 339.0 571.5 339.0Q569.5 339.0 567.75 332.5Q566.0 326.0 566.0 316.5V297.0H532.5Q511.0 297.0 503.25 298.25Q495.5 299.5 494.5 303.0Q492.5 309.0 490.5 309.0Q489.0 309.0 485.0 303.5Q483.0 300.5 478.75 299.25Q474.5 298.0 463.5 298.0Q459.0 298.0 449.75 298.25Q440.5 298.5 430.0 299.25Q419.5 300.0 411.5 301.5Q403.5 303.0 402.5 305.5Q400.0 309.0 398.0 309.0Q396.0 309.0 393.5 303.0Q393.0 300.5 390.75 299.25Q388.5 298.0 382.0 298.0Q374.5 298.0 358.5 299.5Q337.5 301.0 328.25 302.75Q319.0 304.5 316.75 308.0Q314.5 311.5 314.5 319.5Q314.5 333.5 310.5 333.5L309.0 333.0Q307.5 331.5 306.0 326.75Q304.5 322.0 304.5 316.5Q304.5 312.0 304.0 310.25Q303.5 308.5 301.0 308.5Q296.5 308.5 288.5 310.5L279.0 313.0Q260.0 317.5 251.75 320.0Q243.5 322.5 242.0 326.5Q240.5 330.5 240.0 339.0Q239.5 340.5 239.5 344.5L238.0 369.5H236.0L232.5 347.0Q231.0 336.5 229.5 332.5Q228.0 328.5 225.0 328.5Q224.0 328.5 221.0 329.5Q217.5 330.5 212.75 331.5Q208.0 332.5 205.0 333.0Q199.5 335.5 198.5 338.5Q198.5 342.5 206.5 353.5Q212.5 363.0 212.5 367.0Q212.5 368.5 211.5 370.5H211.0Q209.0 370.5 202.25 363.5Q195.5 356.5 188.5 346.5Q184.0 340.0 173.5 328.0Q163.0 316.0 149.75 302.0Q136.5 288.0 123.0 275.5Q105.0 258.5 94.5 248.75Q84.0 239.0 76.75 233.75Q69.5 228.5 62.0 225.75Q54.5 223.0 42.5 219.5Q29.0 215.5 19.5 212.0Q10.0 208.5 10.0 208.5Q10.0 206.5 16.75 201.0Q23.5 195.5 33.5 189.0Q43.5 182.0 58.0 170.25Q72.5 158.5 88.25 144.5Q104.0 130.5 118.0 117.0Q132.0 103.5 141.5 93.25Q151.0 83.0 152.5 79.0Q155.0 73.5 157.25 69.75Q159.5 66.0 161.0 66.0Q164.5 66.0 164.5 72.0Q164.5 77.5 160.5 87.25Q156.5 97.0 151.0 104.5Q144.0 114.0 136.25 128.25Q128.5 142.5 121.75 158.25Q115.0 174.0 111.0 187.75Q107.0 201.5 107.0 209.5Q107.0 228.0 112.5 230.0Q117.5 233.0 117.5 239.0Q117.5 241.5 117.0 242.5Q116.5 243.5 116.5 245.0Q116.5 249.0 124.0 251.0Q129.5 252.5 130.5 256.5Q130.0 257.0 129.75 258.0Q129.5 259.0 128.5 260.0Q131.5 268.0 156.5 293.0L189.0 325.5L190.5 313.0Q192.0 307.0 192.0 295.5Q192.0 291.0 191.75 286.25Q191.5 281.5 191.0 277.5V269.5Q191.0 263.0 191.75 258.25Q192.5 253.5 194.5 253.5Q195.5 253.5 201.75 255.75Q208.0 258.0 214.5 261.5L230.0 269.5V252.0Q230.0 236.0 224.5 217.75Q219.0 199.5 208.5 178.5Q205.0 171.5 202.75 164.75Q200.5 158.0 199.5 147.25Q198.5 136.5 198.5 118.5Q198.5 100.0 199.75 87.0Q201.0 74.0 202.0 74.0Q203.0 74.0 211.0 78.0Q219.0 82.0 228.5 87.5Q238.5 92.5 246.0 95.5Q253.5 98.5 262.25 100.0Q271.0 101.5 284.0 102.0Q297.5 102.5 316.0 104.0Q334.5 105.5 347.0 106.5Q354.5 107.0 359.75 107.25Q365.0 107.5 368.0 107.5Q374.5 107.5 374.5 106.5Q374.5 106.0 373.5 103.0L373.0 100.5Q369.5 92.5 368.0 83.0V83.5L365.5 70.5L385.0 75.0Q393.5 77.0 401.75 77.25Q410.0 77.5 418.5 77.5Q426.0 77.5 426.0 83.5Q426.0 85.5 424.75 89.0Q423.5 92.5 421.0 97.0L415.5 108.0H440.5Q455.0 108.0 460.25 107.5Q465.5 107.0 465.5 105.0Q465.5 104.5 465.25 104.0Q465.0 103.5 464.5 102.5Q464.5 101.5 463.5 98.5Q461.0 91.0 460.0 83.5L457.0 70.5L476.5 75.0Q491.0 78.0 506.0 78.0Q507.5 77.5 509.0 77.5Q510.5 77.5 511.5 77.5Q518.0 77.5 518.0 82.5Q518.0 86.0 512.5 97.0Q510.5 101.0 509.5 104.25Q508.5 107.5 508.5 109.0V109.5Q509.5 110.5 509.5 112.0Q509.5 116.0 504.5 119.5Q502.0 121.5 499.5 129.5Q497.0 137.5 495.0 147.5L493.0 170.0H525.5Q559.0 170.0 559.0 175.5Q559.0 181.5 527.0 182.0L495.0 183.5L494.5 204.5Q494.0 207.0 494.0 209.25Q494.0 211.5 494.0 214.0Q494.0 226.0 496.0 229.0Q498.0 230.0 513.5 230.0Q517.5 230.0 522.5 229.75Q527.5 229.5 532.5 229.5L564.0 227.0L563.0 182.0Q562.0 143.5 552.25 108.0Q542.5 72.5 525.5 40.5Q520.0 30.5 516.25 22.25Q512.5 14.0 512.5 12.5ZM412.0 181.5V180.5Q411.5 182.0 408.5 182.0Q407.0 182.0 405.0 181.0Q403.5 180.0 403.5 181.0Q403.5 182.0 407.5 182.0Q408.5 182.0 409.0 181.75Q409.5 181.5 410.0 181.5Q411.0 181.5 411.5 181.5Q412.0 181.5 412.0 181.5Z" fill="black" /></svg>