<svg xmlns="http://www.w3.org/2000/svg" width="494.5" height="389.5" viewBox="0 0 494.5 389.5"><path d="M49.5 250.5Q49.5 249.0 44.5 246.25Q39.5 243.5 33.75 241.0Q28.0 238.5 25.5 238.5L25.0 238.0Q24.5 239.0 23.5 242.5Q22.5 246.0 22.5 250.5Q22.5 254.5 23.5 258.0Q24.5 261.5 25.0 262.0Q25.0 262.5 26.0 262.5Q29.0 262.5 34.5 260.0Q40.0 257.5 44.75 254.75Q49.5 252.0 49.5 250.5ZM43.0 300.5Q41.0 299.5 37.5 298.25Q34.0 297.0 31.0 296.0L28.5 295.5Q27.5 295.0 25.5 295.0Q23.5 295.0 23.0 297.25Q22.5 299.5 22.5 306.5Q22.5 317.5 25.0 318.5H25.5Q50.0 306.0 50.0 303.0Q50.0 302.0 43.0 300.5ZM196.5 320.0Q188.5 315.5 181.25 312.5Q174.0 309.5 173.0 309.5Q172.0 309.5 171.5 317.0Q171.0 324.5 171.0 335.0V359.5L185.5 353.5Q195.0 349.5 200.0 347.75Q205.0 346.0 209.75 344.75Q214.5 343.5 222.5 341.5L227.0 340.0Q240.5 336.5 240.5 335.0Q240.5 335.0 240.25 334.75Q240.0 334.5 239.0 334.0Q234.0 330.5 226.0 330.5Q222.0 330.5 213.75 327.0Q205.5 323.5 196.5 320.0ZM42.5 139.0Q33.0 133.0 29.5 133.0Q27.0 133.0 27.0 146.0Q27.0 158.5 32.0 158.5Q36.5 158.5 45.5 151.0L53.0 144.5Q50.5 143.5 47.75 141.75Q45.0 140.0 42.5 139.0ZM47.0 197.0H47.5Q44.5 196.5 40.25 195.0Q36.0 193.5 33.0 192.0Q31.0 191.0 30.0 191.0Q27.0 191.0 27.0 203.0Q27.0 213.5 28.5 215.0Q54.0 202.5 54.0 200.0Q54.0 199.5 47.0 197.0ZM191.0 145.5 197.5 132.5H184.5Q171.5 132.5 171.5 136.5Q171.5 139.5 175.5 149.0Q180.0 157.5 182.5 157.5Q185.0 157.5 191.0 145.5ZM421.5 121.5 414.5 94.0 392.5 93.0H385.5Q354.5 93.0 324.5 94.75Q294.5 96.5 270.25 99.75Q246.0 103.0 231.5 107.5Q200.5 118.0 200.5 120.5Q200.5 121.5 207.5 122.5Q214.0 123.5 214.0 126.5Q214.0 128.5 211.75 131.75Q209.5 135.0 205.5 141.5Q201.5 147.5 199.0 152.25Q196.5 157.0 195.25 164.75Q194.0 172.5 193.25 187.25Q192.5 202.0 192.0 228.0Q189.5 291.5 186.0 291.5Q182.0 291.5 180.5 232.5Q180.0 211.0 179.0 198.5Q178.0 186.0 176.25 178.25Q174.5 170.5 171.5 165.0L164.5 152.5L110.5 154.0Q86.0 154.5 73.75 155.5Q61.5 156.5 55.5 158.5Q49.5 160.5 43.5 165.0Q33.5 173.0 33.5 174.0Q33.5 175.5 38.0 180.0Q49.5 190.5 69.75 195.0Q90.0 199.5 125.0 199.5Q146.0 199.5 158.5 201.25Q171.0 203.0 171.0 205.5Q171.0 207.5 156.25 209.0Q141.5 210.5 116.5 210.5Q37.0 210.5 37.0 224.5Q37.0 230.5 54.0 238.5Q63.0 243.5 76.25 245.5Q89.5 247.5 119.5 248.5Q141.0 249.0 156.0 251.0Q171.0 253.0 171.0 254.5Q171.0 256.5 153.0 258.5Q135.0 260.5 108.5 261.0Q80.5 261.5 67.0 262.5Q53.5 263.5 48.0 265.25Q42.5 267.0 38.5 270.5Q33.0 277.0 33.0 279.5Q33.0 285.0 54.0 295.0Q64.0 298.5 83.75 300.75Q103.5 303.0 122.0 303.0Q138.0 303.0 149.5 301.75Q161.0 300.5 161.0 297.5Q161.0 291.0 164.0 291.0Q166.0 291.0 170.0 293.25Q174.0 295.5 182.0 299.5Q202.5 313.0 223.5 318.0Q244.5 323.0 277.0 323.0H317.5V281.5Q317.5 264.0 316.75 251.75Q316.0 239.5 314.5 239.5Q312.5 239.5 302.75 246.0Q293.0 252.5 279.25 263.25Q265.5 274.0 250.5 287.0Q230.0 304.5 226.0 304.5Q222.5 304.5 222.5 296.0Q222.5 293.5 220.75 287.0Q219.0 280.5 216.5 274.5Q215.0 270.5 214.0 267.25Q213.0 264.0 213.0 262.0Q213.0 256.5 219.25 255.0Q225.5 253.5 242.5 252.0Q250.0 251.0 261.75 248.0Q273.5 245.0 285.25 240.75Q297.0 236.5 305.25 232.5Q313.5 228.5 313.5 226.5Q313.5 224.5 305.0 220.25Q296.5 216.0 283.0 210.75Q269.5 205.5 254.75 200.5Q240.0 195.5 227.5 192.0Q218.0 189.0 210.0 185.75Q202.0 182.5 202.0 180.5Q202.0 179.5 207.0 173.75Q212.0 168.0 218.5 161.5L235.0 145.5L261.5 172.5Q272.5 183.0 284.25 192.5Q296.0 202.0 301.5 205.5Q310.5 210.0 312.5 210.0Q313.5 210.0 313.5 206.0Q313.5 198.0 306.5 179.0Q299.5 160.0 290.5 142.5L279.0 121.5H318.5Q333.5 121.5 345.0 122.25Q356.5 123.0 356.5 125.0Q356.5 125.5 352.5 132.0Q348.5 138.5 343.0 147.0Q334.5 158.0 331.5 166.75Q328.5 175.5 328.5 193.5V216.0L375.5 193.5Q387.0 188.0 399.75 182.5Q412.5 177.0 425.0 171.5L425.5 136.5Q424.0 129.0 421.5 121.5ZM193.5 76.5Q185.5 72.5 179.25 69.75Q173.0 67.0 172.5 67.0Q172.0 67.0 171.5 74.5Q171.0 82.0 171.0 92.5Q171.0 106.5 171.5 111.5Q172.0 116.5 174.0 116.5Q174.5 116.5 177.5 115.5Q211.0 104.5 225.0 99.5Q239.0 94.5 239.0 92.5Q239.0 92.0 226.5 89.5Q221.0 88.5 211.25 84.5Q201.5 80.5 193.5 76.5ZM248.0 174.5Q243.0 169.0 239.25 165.25Q235.5 161.5 235.0 161.5Q232.5 161.5 227.0 168.25Q221.5 175.0 221.0 178.5Q223.5 179.5 231.5 182.0Q239.5 184.5 247.75 186.25Q256.0 188.0 259.5 188.5Q258.5 186.5 255.25 182.75Q252.0 179.0 248.0 174.5ZM234.5 284.0Q237.5 284.0 243.5 279.5Q249.5 275.0 255.0 269.25Q260.5 263.5 261.5 260.5Q238.5 264.0 233.0 265.75Q227.5 267.5 227.5 271.0V273.0Q230.0 284.0 234.5 284.0ZM425.5 288.0 377.5 262.0Q376.0 261.0 368.75 257.0Q361.5 253.0 352.75 248.0Q344.0 243.0 337.25 239.5Q330.5 236.0 330.0 236.0Q329.0 236.0 328.25 248.75Q327.5 261.5 327.5 280.0V323.0H425.0ZM337.0 134.0Q335.5 132.5 319.0 132.5H298.5Q304.0 143.0 309.0 156.0L317.5 175.5L326.5 157.5Q327.0 156.0 329.25 150.75Q331.5 145.5 334.0 140.0Q336.5 134.5 337.0 134.0ZM425.5 231.0V208.5Q426.0 204.5 426.0 201.0Q426.0 197.5 426.0 194.5Q426.0 190.5 425.75 188.0Q425.5 185.5 425.5 184.5Q422.5 185.0 410.25 190.0Q398.0 195.0 382.25 202.0Q366.5 209.0 353.5 215.25Q340.5 221.5 336.5 224.5Q338.0 226.5 348.5 233.25Q359.0 240.0 373.25 248.25Q387.5 256.5 400.5 263.5Q413.5 270.5 420.0 273.0Q423.0 274.5 426.0 275.5V256.0Q425.5 251.0 425.5 244.75Q425.5 238.5 425.5 231.0ZM432.5 98.5Q432.5 96.0 431.75 93.75Q431.0 91.5 430.0 91.5Q428.5 91.5 427.5 93.75Q426.5 96.0 426.5 98.5Q426.5 105.0 430.0 105.0Q432.5 105.0 432.5 98.5ZM460.5 31.0Q460.5 30.0 452.75 30.0Q445.0 30.0 434.5 30.0Q419.5 30.0 413.0 30.75Q406.5 31.5 406.5 36.0Q406.5 39.0 409.0 46.0Q411.5 53.0 415.25 61.0Q419.0 69.0 423.0 74.75Q427.0 80.5 430.0 80.5Q434.0 80.5 442.75 66.5Q451.5 52.5 460.5 31.0ZM387.5 15.5Q387.5 10.0 392.0 10.0Q396.5 10.0 399.5 14.5Q400.5 16.5 413.0 17.5Q425.5 18.5 442.5 18.5Q461.5 18.5 473.0 20.0Q484.5 21.5 484.5 24.0Q484.5 27.0 482.25 29.0Q480.0 31.0 477.5 32.0Q475.5 33.0 471.0 39.25Q466.5 45.5 461.5 54.0Q456.5 62.5 453.0 69.5Q449.5 76.5 449.5 79.0Q449.5 80.0 453.0 82.0Q458.5 84.5 458.5 86.5Q458.5 88.5 451.5 91.5Q448.0 93.0 445.5 97.5Q443.0 102.0 441.5 113.75Q440.0 125.5 439.0 147.5Q438.0 169.5 437.0 205.5L437.5 280.5Q445.0 284.5 445.0 288.0Q445.0 290.0 443.5 290.75Q442.0 291.5 440.5 292.0Q439.5 291.5 437.5 291.5L437.0 323.5Q442.5 323.5 451.75 324.25Q461.0 325.0 468.5 326.0Q476.0 327.0 476.0 329.0Q476.0 331.0 470.0 332.5Q464.0 334.0 456.5 334.0Q446.5 334.0 442.0 335.5Q437.5 337.0 436.0 340.0Q434.0 346.0 432.0 346.0Q430.5 346.0 426.5 340.5Q424.5 337.0 418.75 335.75Q413.0 334.5 395.0 334.5Q387.0 334.5 375.0 334.75Q363.0 335.0 346.5 335.5Q316.0 336.0 297.25 337.25Q278.5 338.5 265.75 340.75Q253.0 343.0 240.5 347.0Q221.0 352.0 204.0 357.75Q187.0 363.5 176.75 368.25Q166.5 373.0 166.5 375.0Q166.5 379.5 162.0 379.5Q161.0 379.5 159.5 372.25Q158.0 365.0 158.0 354.0V346.0L158.5 316.0H47.5Q46.0 317.0 40.75 321.25Q35.5 325.5 29.25 330.5Q23.0 335.5 18.0 339.25Q13.0 343.0 12.0 343.0Q10.0 343.0 10.0 330.0Q10.0 324.5 10.25 317.5Q10.5 310.5 11.0 302.5Q12.5 283.0 13.25 267.75Q14.0 252.5 14.75 238.5Q15.5 224.5 16.0 208.25Q16.5 192.0 17.0 170.5Q17.5 149.5 18.5 134.25Q19.5 119.0 20.0 117.5Q21.0 116.0 22.5 116.0Q24.0 116.0 27.25 117.5Q30.5 119.0 34.0 122.0V121.5Q57.5 137.0 86.0 140.75Q114.5 144.5 142.0 144.5Q161.5 144.5 161.5 140.5Q161.5 138.5 156.5 132.5Q153.5 129.5 153.5 126.5Q153.5 123.5 156.5 121.5Q158.0 119.0 159.5 108.75Q161.0 98.5 161.0 82.5Q161.0 68.0 161.5 57.5Q162.0 47.0 164.0 47.0Q165.0 47.0 169.75 49.75Q174.5 52.5 179.0 56.5Q191.5 65.0 201.75 70.25Q212.0 75.5 225.5 78.0Q239.0 80.5 260.75 81.75Q282.5 83.0 317.5 83.5Q328.5 84.0 338.75 84.0Q349.0 84.0 358.0 84.0Q381.0 84.0 394.5 83.25Q408.0 82.5 409.0 81.0Q409.0 81.0 409.25 80.25Q409.5 79.5 409.5 79.0Q409.5 71.5 399.5 49.0L397.5 43.0Q393.0 32.5 390.25 24.5Q387.5 16.5 387.5 15.5Z" fill="black" /></svg>