<svg xmlns="http://www.w3.org/2000/svg" width="584.0" height="382.0" viewBox="0 0 584.0 382.0"><path d="M104.5 318.5Q92.0 316.0 76.25 312.25Q60.5 308.5 51.5 305.0L31.0 297.0L29.0 320.5Q28.5 327.0 28.25 332.75Q28.0 338.5 28.0 342.5V347.0H30.0Q34.0 347.0 41.5 345.75Q49.0 344.5 58.0 342.5Q60.5 342.0 64.25 341.25Q68.0 340.5 71.5 340.0Q82.5 337.5 95.25 335.25Q108.0 333.0 117.5 331.0Q140.5 327.0 140.5 326.0Q140.5 324.5 104.5 318.5ZM108.0 146.0 116.5 127.5H99.0Q79.5 127.5 79.5 132.0Q79.5 133.5 83.5 136.5Q85.0 137.5 87.5 142.5Q90.0 147.5 91.0 153.0Q93.5 164.5 96.0 165.5Q97.5 164.5 101.0 159.0Q104.5 153.5 108.0 146.0ZM149.5 148.0Q145.0 137.0 142.25 132.5Q139.5 128.0 136.5 128.0Q134.5 128.0 132.75 129.25Q131.0 130.5 128.0 132.5Q120.5 139.0 115.75 150.5Q111.0 162.0 109.0 183.0Q107.0 204.0 107.0 239.0Q107.0 266.5 107.75 286.5Q108.5 306.5 110.5 307.0Q111.5 308.0 120.75 309.75Q130.0 311.5 141.5 312.5L168.5 316.0V261.0Q168.5 232.5 167.0 214.5Q165.5 196.5 161.5 181.5Q157.5 166.5 149.5 148.0ZM306.0 245.0Q299.0 241.5 294.0 241.5Q288.5 241.5 288.5 253.0Q288.5 259.0 289.75 261.75Q291.0 264.5 295.5 264.5Q298.5 264.5 303.5 263.0Q308.5 261.5 316.5 259.0Q329.5 254.5 329.5 253.5Q329.5 253.0 325.5 252.0Q320.5 250.0 315.75 248.25Q311.0 246.5 306.0 245.0ZM186.0 130.0Q185.0 129.5 180.5 129.5Q176.0 129.5 169.5 129.5H153.5Q154.5 131.5 156.75 137.0Q159.0 142.5 161.5 149.5Q164.0 156.0 166.5 160.75Q169.0 165.5 169.5 165.5Q170.5 165.5 173.0 160.75Q175.5 156.0 178.0 149.5Q180.5 142.5 182.75 137.0Q185.0 131.5 186.0 130.0ZM333.0 183.0 315.5 177.0Q310.5 175.0 306.5 173.5Q302.5 172.0 299.5 170.5Q297.0 169.5 295.25 169.0Q293.5 168.5 293.5 168.5Q293.0 168.5 293.0 172.5Q293.0 176.5 293.0 182.0V195.5ZM500.0 103.0 495.5 91.5 379.5 92.0Q340.5 92.0 315.5 92.5Q290.5 93.0 274.5 94.0Q258.5 95.0 245.75 97.0Q233.0 99.0 218.0 102.5Q195.0 108.0 181.0 112.5Q167.0 117.0 167.0 119.0Q167.0 119.0 168.0 118.75Q169.0 118.5 171.0 118.5Q173.5 118.5 176.75 118.25Q180.0 118.0 185.0 117.5Q193.5 116.0 198.0 116.0Q207.0 116.0 207.0 123.0Q207.0 126.5 205.25 129.75Q203.5 133.0 201.5 135.0Q199.5 135.5 195.5 141.75Q191.5 148.0 188.5 156.0Q185.0 163.5 183.25 172.75Q181.5 182.0 180.75 198.5Q180.0 215.0 180.0 245.0V315.0H518.0L515.5 257.0L402.0 254.0V282.5Q402.0 312.5 396.5 312.5Q391.5 312.5 390.0 283.5L388.5 257.0L371.0 258.5Q364.0 259.0 347.75 263.25Q331.5 267.5 316.5 273.0L277.5 285.5V252.5Q277.5 239.0 278.5 229.5Q279.5 220.0 280.5 220.0Q281.0 220.0 289.0 223.25Q297.0 226.5 307.0 231.5Q323.5 239.0 336.75 240.75Q350.0 242.5 367.5 242.5Q381.0 242.5 385.75 241.0Q390.5 239.5 390.5 232.5Q390.5 228.5 389.75 223.0Q389.0 217.5 388.0 209.5L385.0 185.5L365.5 188.5Q357.5 189.0 342.0 193.25Q326.5 197.5 313.5 202.5Q301.0 206.5 291.5 209.5Q282.0 212.5 280.5 212.5H279.5V208.0Q279.5 204.0 279.75 196.5Q280.0 189.0 280.5 180.0L283.5 148.0L307.5 159.0Q317.5 163.0 331.25 167.0Q345.0 171.0 355.0 172.5Q359.0 173.0 362.0 173.25Q365.0 173.5 367.5 173.5Q377.0 173.5 377.0 169.5Q377.0 163.5 361.5 140.5Q360.0 138.0 358.5 135.25Q357.0 132.5 355.5 130.5Q351.0 124.0 348.25 120.0Q345.5 116.0 345.5 115.0Q345.5 113.0 356.5 113.0Q365.0 113.0 377.75 113.5Q390.5 114.0 403.25 114.5Q416.0 115.0 425.25 115.75Q434.5 116.5 435.5 117.5Q436.5 118.5 436.5 119.5Q435.5 124.0 429.5 127.0Q424.5 129.5 418.0 137.75Q411.5 146.0 406.75 155.0Q402.0 164.0 402.0 169.5Q402.0 172.5 404.75 173.75Q407.5 175.0 418.5 175.0Q422.5 175.0 433.0 174.5Q443.5 174.0 457.0 173.25Q470.5 172.5 483.0 171.5Q495.5 170.5 504.25 169.5Q513.0 168.5 513.5 168.0Q514.0 168.0 514.0 165.0Q514.0 159.0 512.0 147.75Q510.0 136.5 506.75 124.25Q503.5 112.0 500.0 103.0ZM515.0 195.0Q513.5 187.5 511.25 185.25Q509.0 183.0 502.0 182.5Q500.0 182.5 497.25 182.75Q494.5 183.0 492.0 183.0Q487.5 183.0 480.25 183.25Q473.0 183.5 464.0 184.0Q456.5 184.5 448.75 184.75Q441.0 185.0 434.0 185.0L397.5 187.0V242.5H518.0V226.5Q518.0 219.5 517.0 210.0Q516.0 200.5 515.0 195.0ZM163.5 69.0Q154.5 65.0 147.5 62.5Q140.5 60.0 139.5 60.0Q139.0 60.0 138.75 67.5Q138.5 75.0 138.5 85.5Q138.5 96.0 139.5 103.75Q140.5 111.5 141.5 111.5Q143.0 111.5 151.5 108.75Q160.0 106.0 169.5 102.5Q181.0 99.0 194.0 95.5Q207.0 92.0 215.5 90.5L228.0 88.5L210.5 84.0Q200.0 81.5 186.0 77.0Q172.0 72.5 163.5 69.0ZM407.5 133.5Q410.5 130.5 410.5 129.5Q410.5 128.5 406.25 128.0Q402.0 127.5 392.0 127.0Q385.5 126.5 380.5 126.25Q375.5 126.0 371.5 126.0H367.5Q368.0 128.0 371.0 133.75Q374.0 139.5 378.0 147.0L388.5 166.0L394.5 155.0Q397.0 149.0 401.0 143.0Q405.0 137.0 407.5 133.5ZM549.0 26.0Q545.5 26.0 536.75 25.75Q528.0 25.5 516.5 25.0H507.0Q496.0 25.0 490.75 25.75Q485.5 26.5 485.5 30.0Q485.5 33.5 488.25 39.75Q491.0 46.0 496.0 56.0L498.5 61.5Q502.5 70.0 505.75 79.5Q509.0 89.0 509.5 94.0Q510.5 107.5 514.5 107.5Q518.0 107.5 520.0 94.0Q523.5 76.5 531.75 59.0Q540.0 41.5 549.0 26.0ZM466.5 10.0Q479.0 10.0 490.5 12.0Q496.0 13.0 503.75 13.5Q511.5 14.0 519.5 14.0Q525.5 14.0 531.5 13.75Q537.5 13.5 542.5 13.0Q554.5 11.5 561.5 11.5Q574.0 11.5 574.0 17.0Q574.0 22.5 567.5 26.0Q561.5 28.0 553.25 42.5Q545.0 57.0 538.25 76.5Q531.5 96.0 528.5 113.0Q526.5 124.5 525.75 145.25Q525.0 166.0 525.0 190.0Q525.0 211.5 525.5 233.0Q526.0 254.5 527.25 273.0Q528.5 291.5 530.0 303.5Q531.5 315.5 533.5 318.0Q536.5 322.5 536.5 324.0Q536.5 327.0 533.0 327.0Q531.0 327.0 530.0 333.0Q529.0 339.0 529.0 348.5Q529.0 372.0 523.5 372.0Q518.5 372.0 517.0 349.5L515.5 329.5H358.0Q316.5 329.5 287.0 329.75Q257.5 330.0 236.25 330.75Q215.0 331.5 199.0 332.5Q183.0 333.5 168.5 335.5Q154.0 337.5 137.5 340.0Q90.5 348.0 58.75 354.75Q27.0 361.5 21.0 365.5Q17.5 367.5 15.5 367.5Q10.0 367.5 10.0 360.0Q10.0 354.5 13.5 348.0Q18.5 336.5 18.5 319.5Q18.5 317.0 18.5 314.75Q18.5 312.5 18.0 310.5Q18.0 308.0 17.75 306.25Q17.5 304.5 17.5 302.5Q17.5 286.5 22.0 284.5H22.5Q26.0 284.5 37.75 287.75Q49.5 291.0 64.5 295.5Q79.5 300.0 92.0 305.0H92.5Q94.0 305.0 94.75 299.75Q95.5 294.5 95.5 281.0Q95.5 274.5 95.5 266.25Q95.5 258.0 95.0 248.0Q94.5 227.5 94.0 214.5Q93.5 201.5 92.0 192.75Q90.5 184.0 88.0 176.25Q85.5 168.5 81.0 158.5L77.5 150.5Q72.5 139.0 69.75 131.75Q67.0 124.5 67.0 121.0Q67.0 115.5 71.25 114.5Q75.5 113.5 85.0 113.5H126.0L127.0 77.0Q128.0 61.5 129.5 50.5Q131.0 39.5 132.5 39.5Q153.5 50.5 170.5 57.75Q187.5 65.0 205.5 69.25Q223.5 73.5 246.5 75.75Q269.5 78.0 302.0 78.75Q334.5 79.5 381.5 79.5Q428.5 79.5 451.75 79.0Q475.0 78.5 482.75 77.25Q490.5 76.0 490.5 74.0Q490.5 71.5 486.75 61.75Q483.0 52.0 477.5 41.0Q472.5 29.5 469.25 20.0Q466.0 10.5 466.5 10.0Z" fill="black" /></svg>