<svg xmlns="http://www.w3.org/2000/svg" width="206.0" height="465.0" viewBox="0 0 206.0 465.0"><path d="M156.0 35.5H100.0Q77.5 35.5 60.75 35.75Q44.0 36.0 44.0 36.0Q44.0 36.0 48.0 41.5Q52.0 47.0 57.5 53.5Q58.5 56.5 60.5 59.5Q62.5 62.5 64.0 65.0Q70.5 74.5 76.25 86.5Q82.0 98.5 88.5 113.0Q94.0 125.5 98.25 136.5Q102.5 147.5 102.5 147.5Q104.0 142.0 106.0 133.75Q108.0 125.5 110.0 116.5Q113.5 104.0 121.75 87.5Q130.0 71.0 137.5 61.5Q145.0 51.5 150.5 43.75Q156.0 36.0 156.0 35.5ZM10.0 15.5V15.0Q10.0 12.5 12.0 11.25Q14.0 10.0 16.0 10.0Q17.5 10.0 20.0 10.25Q22.5 10.5 23.0 11.5Q26.5 12.5 39.75 13.75Q53.0 15.0 73.0 15.75Q93.0 16.5 115.5 17.0Q137.5 18.0 155.75 20.0Q174.0 22.0 185.0 24.0Q196.0 26.0 196.0 28.5Q196.0 32.0 193.5 33.75Q191.0 35.5 187.5 35.5Q181.0 35.5 169.5 46.75Q158.0 58.0 146.0 77.0Q134.0 96.0 125.5 120.0Q122.0 129.0 120.0 138.0Q118.0 147.0 117.0 163.25Q116.0 179.5 116.0 209.5Q116.0 226.0 116.25 247.5Q116.5 269.0 117.5 296.5Q117.5 319.5 117.75 339.25Q118.0 359.0 118.0 376.0Q118.0 414.0 116.5 434.5Q115.0 455.0 111.5 455.0Q106.0 455.0 104.75 428.5Q103.5 402.0 102.5 355.0V319.5L101.0 185.5L81.0 140.0Q71.0 116.0 59.5 93.25Q48.0 70.5 37.25 53.25Q26.5 36.0 18.5 30.0Q10.0 23.0 10.0 15.5Z" fill="black" /></svg>