<svg xmlns="http://www.w3.org/2000/svg" width="508.0" height="388.0" viewBox="0 0 508.0 388.0"><path d="M27.0 206.5Q27.0 206.5 27.0 206.25Q27.0 206.0 27.0 205.5Q27.0 206.0 27.0 206.0Q27.0 206.0 27.0 206.5ZM44.0 149.5Q40.5 147.0 37.25 145.25Q34.0 143.5 31.5 142.0Q30.0 141.0 29.25 140.5Q28.5 140.0 28.5 140.0Q27.5 140.0 26.5 151.5Q25.5 163.0 25.5 173.0Q25.5 184.0 27.0 185.5Q28.0 186.5 29.0 186.5Q33.0 186.5 38.5 181.0Q41.5 180.0 44.5 178.25Q47.5 176.5 50.5 174.5Q53.5 173.0 56.25 171.5Q59.0 170.0 61.0 169.0Q69.0 166.0 69.0 163.5Q69.0 161.5 62.5 159.5Q57.0 157.0 55.5 156.5Q54.0 156.0 51.5 154.0Q49.5 152.5 44.0 149.5ZM58.0 229.5Q56.5 229.0 53.5 227.0Q53.0 226.5 52.25 226.25Q51.5 226.0 50.5 225.5Q47.0 223.5 43.5 220.75Q40.0 218.0 37.5 216.0Q36.5 215.0 36.0 214.5Q35.5 214.0 34.5 213.5Q32.0 211.0 30.0 209.0Q28.0 207.0 27.0 206.5Q26.5 212.0 26.0 220.75Q25.5 229.5 25.5 238.0Q25.5 246.0 25.5 252.0Q25.5 258.0 26.0 258.0H26.5Q28.5 258.0 35.0 254.5Q41.5 251.0 50.0 246.5Q50.0 246.5 55.75 244.0Q61.5 241.5 67.5 238.75Q73.5 236.0 73.5 235.0Q73.0 234.0 69.5 232.75Q66.0 231.5 62.5 230.5Q61.0 230.0 60.0 230.0Q59.0 230.0 58.0 229.5ZM63.0 302.5H62.5Q56.5 300.0 48.75 295.25Q41.0 290.5 35.5 286.0L22.5 277.0V304.0Q22.5 315.0 23.0 323.5Q23.5 332.0 24.0 332.0Q24.5 332.0 32.25 328.0Q40.0 324.0 50.5 317.5Q50.5 317.5 56.75 315.0Q63.0 312.5 69.5 309.5Q76.0 306.5 76.5 305.0Q76.0 304.0 69.5 303.25Q63.0 302.5 63.0 302.5ZM223.5 292.0V164.0H162.5Q146.0 164.0 130.75 164.5Q115.5 165.0 105.25 165.5Q95.0 166.0 93.0 167.0Q86.0 169.0 75.0 174.25Q64.0 179.5 54.25 184.75Q44.5 190.0 40.5 193.5Q36.5 197.5 36.5 198.5Q36.5 199.5 41.0 205.0H40.5Q48.0 212.5 55.5 216.75Q63.0 221.0 77.5 222.5Q92.0 224.0 120.0 224.0H180.5Q223.0 224.0 223.0 228.5Q223.0 232.5 206.0 233.25Q189.0 234.0 161.0 234.0Q140.0 234.0 127.25 234.25Q114.5 234.5 106.75 235.5Q99.0 236.5 92.25 239.0Q85.5 241.5 75.5 246.0Q64.0 250.5 53.5 256.0Q43.0 261.5 39.5 265.0Q35.0 270.0 35.0 271.0Q35.0 272.5 43.5 280.5Q48.5 284.0 56.0 287.75Q63.5 291.5 69.0 293.5H68.5Q75.5 295.0 98.5 296.0Q121.5 297.0 147.5 297.0Q164.0 297.0 179.25 296.5Q194.5 296.0 204.0 295.0ZM41.5 85.0Q35.0 80.0 30.25 77.0Q25.5 74.0 25.5 74.0V80.5Q25.5 87.0 26.0 96.0Q26.5 105.0 27.25 112.5Q28.0 120.0 28.5 122.0Q29.0 124.0 30.5 124.0Q33.5 124.0 39.5 119.5V120.0Q44.0 116.0 50.25 112.25Q56.5 108.5 61.0 106.5Q70.0 103.0 70.0 100.5Q70.0 98.0 62.5 96.0H63.0Q61.0 95.5 54.5 92.75Q48.0 90.0 41.5 85.0ZM213.0 123.0 207.0 101.5H154.5Q133.0 101.5 114.5 102.75Q96.0 104.0 93.0 105.0Q86.0 107.0 73.75 112.75Q61.5 118.5 51.5 124.0Q41.5 129.5 40.0 131.5Q40.0 133.5 43.0 136.25Q46.0 139.0 50.0 142.5V142.0Q54.5 145.0 59.0 147.0Q63.5 149.0 72.0 150.0Q80.5 151.0 97.0 151.25Q113.5 151.5 142.0 152.0H173.0Q199.5 152.0 209.25 151.5Q219.0 151.0 219.0 149.5Q219.0 148.0 217.25 140.25Q215.5 132.5 213.0 123.0ZM235.5 195.5Q235.5 179.0 234.75 176.75Q234.0 174.5 234.0 174.5V176.0Q234.5 177.5 234.5 185.5V218.5Q235.0 216.5 235.25 211.5Q235.5 206.5 235.5 195.5ZM287.5 191.5Q281.5 190.0 273.0 185.75Q264.5 181.5 258.5 178.0L245.5 168.5L244.0 193.0Q243.5 198.5 243.25 203.75Q243.0 209.0 243.0 212.5V218.0Q247.5 218.0 260.5 211.5Q267.5 208.0 276.5 205.0Q285.5 202.0 290.5 201.0Q301.0 198.5 301.0 196.5Q301.0 193.5 287.5 191.5ZM258.5 27.5Q258.5 27.0 247.75 27.0Q237.0 27.0 222.0 27.0H187.0L191.5 36.0Q193.0 40.0 195.75 45.5Q198.5 51.0 200.5 54.5Q202.0 57.0 204.75 64.0Q207.5 71.0 209.5 77.5Q213.5 88.5 216.0 89.5Q217.0 91.0 218.5 92.75Q220.0 94.5 220.0 97.0Q220.0 98.5 219.5 99.5Q219.0 100.5 219.0 103.0Q219.0 107.0 220.5 111.5L221.0 113.0Q222.5 119.5 224.5 119.5H225.0Q225.5 119.5 227.5 110.5Q228.0 108.5 228.5 106.25Q229.0 104.0 229.5 101.5V102.0Q231.0 91.5 235.25 77.5Q239.5 63.5 245.0 53.5Q250.5 43.5 254.5 35.75Q258.5 28.0 258.5 27.5ZM168.5 15.5Q168.5 10.0 172.5 10.0Q174.5 10.0 177.5 11.5Q180.0 12.5 195.5 14.0Q211.0 15.5 231.0 16.0Q279.0 16.5 280.0 23.5Q280.0 26.0 274.5 28.5Q270.5 30.0 263.5 41.5Q256.5 53.0 250.0 67.75Q243.5 82.5 240.5 94.5Q237.0 106.0 235.0 120.0Q233.0 134.0 233.0 142.5Q233.0 151.0 234.5 152.0H235.5Q237.5 152.0 243.25 155.25Q249.0 158.5 256.5 163.0Q267.5 171.0 276.5 175.75Q285.5 180.5 299.0 182.75Q312.5 185.0 335.75 185.75Q359.0 186.5 398.5 187.0Q426.5 187.5 449.0 188.5Q471.5 189.5 484.75 190.75Q498.0 192.0 498.0 193.5Q498.0 195.5 473.75 197.0Q449.5 198.5 413.5 198.5Q384.0 198.5 366.25 198.75Q348.5 199.0 337.5 199.75Q326.5 200.5 318.5 202.5Q310.5 204.5 300.0 208.5Q287.5 212.0 273.25 217.75Q259.0 223.5 252.0 227.0L235.0 235.5V305.5Q235.0 335.5 234.25 356.75Q233.5 378.0 232.0 378.0Q228.0 377.5 226.25 368.5Q224.5 359.5 224.0 346.25Q223.5 333.0 223.5 320.5V304.0L159.0 306.0Q136.5 307.0 122.75 308.0Q109.0 309.0 100.25 310.25Q91.5 311.5 84.75 313.75Q78.0 316.0 69.5 320.0Q59.0 324.5 47.5 331.25Q36.0 338.0 30.5 342.5Q20.0 350.5 14.0 351.5Q10.0 349.5 10.0 345.5Q10.0 343.5 11.0 340.5Q12.0 339.5 12.5 319.25Q13.0 299.0 13.75 265.75Q14.5 232.5 14.5 194.0Q14.5 154.5 15.5 122.0Q16.5 89.5 17.75 70.0Q19.0 50.5 20.0 51.0Q21.0 51.5 25.25 55.75Q29.5 60.0 34.5 65.5H34.0Q41.5 74.0 48.75 79.0Q56.0 84.0 66.0 86.25Q76.0 88.5 92.5 89.25Q109.0 90.0 136.0 90.0H169.0Q173.5 90.5 177.25 90.5Q181.0 90.5 184.0 90.5Q199.5 90.5 201.5 88.5L201.0 88.0Q201.0 87.0 200.75 86.25Q200.5 85.5 200.0 84.0V84.5Q199.0 82.0 195.5 73.25Q192.0 64.5 187.5 53.75Q183.0 43.0 179.0 34.75Q175.0 26.5 172.5 24.5Q168.5 22.5 168.5 15.5Z" fill="black" /></svg>