<svg xmlns="http://www.w3.org/2000/svg" width="574.0" height="388.0" viewBox="0 0 574.0 388.0"><path d="M52.5 294.5V293.0Q52.5 294.0 48.0 293.0Q46.0 292.0 42.5 291.25Q39.0 290.5 36.5 290.5Q34.0 290.5 34.0 291.5Q34.0 294.0 38.5 300.0Q41.5 304.5 43.0 304.5Q44.5 304.5 48.0 299.5Q49.5 297.5 51.0 296.0Q52.5 294.5 52.5 294.5ZM67.5 221.5Q62.0 218.0 58.75 216.25Q55.5 214.5 53.0 214.5Q48.5 214.5 46.5 231.5Q46.0 240.5 44.5 249.5Q43.0 258.5 42.0 262.0L40.5 267.5L54.5 259.5Q61.5 255.5 72.5 250.75Q83.5 246.0 92.0 243.5Q101.0 241.0 107.0 239.5Q113.0 238.0 113.0 238.0Q113.0 237.5 107.5 235.75Q102.0 234.0 94.0 232.0Q86.0 229.0 78.25 226.0Q70.5 223.0 67.5 221.5ZM133.0 145.5Q134.0 143.0 135.0 140.75Q136.0 138.5 136.5 136.5Q132.0 139.5 123.25 146.5Q114.5 153.5 107.5 159.5Q100.5 165.5 100.5 166.5Q105.0 168.5 112.5 170.5Q120.0 172.5 125.0 172.5Q128.0 172.5 128.0 168.0Q128.0 164.5 129.5 157.75Q131.0 151.0 133.0 145.5ZM197.5 171.5Q197.5 171.5 195.25 171.25Q193.0 171.0 190.0 171.0Q182.0 171.0 182.0 173.0Q182.0 176.0 187.0 181.5Q189.5 185.5 190.0 185.5Q191.0 185.5 193.5 180.0Q197.5 174.5 197.5 171.5ZM227.0 187.5Q220.0 175.0 217.0 175.0Q215.5 175.0 213.5 176.25Q211.5 177.5 208.0 179.5Q203.0 183.0 200.0 193.25Q197.0 203.5 197.0 214.0Q197.0 227.0 201.0 232.5Q205.0 238.0 219.0 238.0H235.0V220.0Q235.0 200.0 227.0 187.5ZM275.5 173.0Q272.5 168.0 268.0 168.0Q262.5 168.0 253.0 176.0Q249.0 180.0 247.25 183.5Q245.5 187.0 245.0 193.25Q244.5 199.5 244.5 212.0V238.0H279.5V210.0Q279.5 198.0 278.25 187.0Q277.0 176.0 275.5 173.0ZM336.0 249.0V249.5Q336.0 247.5 336.25 246.0Q336.5 244.5 336.5 243.0Q337.0 241.0 337.0 239.75Q337.0 238.5 337.0 238.0Q336.0 238.0 330.5 243.25Q325.0 248.5 319.75 253.75Q314.5 259.0 314.5 260.0Q314.5 260.0 317.25 260.25Q320.0 260.5 324.0 260.5Q330.5 260.5 332.75 258.25Q335.0 256.0 336.0 249.0ZM401.5 278.5Q401.5 271.5 401.0 271.5Q399.5 271.5 394.5 280.0Q389.0 287.0 389.0 288.5Q394.0 288.0 397.75 285.75Q401.5 283.5 401.5 278.5ZM404.5 212.5Q401.0 208.0 398.0 208.0Q394.5 208.0 394.5 212.5Q394.5 214.0 395.0 215.0Q396.5 221.0 398.0 221.0Q399.5 221.0 402.0 219.0Q406.0 217.0 406.0 215.0Q406.0 214.0 404.5 212.5ZM437.0 288.5Q437.5 288.5 437.5 287.75Q437.5 287.0 438.0 286.5Q437.5 285.5 437.5 284.5L436.5 282.5Q436.0 282.5 435.0 285.0Q433.5 285.5 433.5 288.0Q434.0 288.5 434.25 289.0Q434.5 289.5 435.0 290.0Q435.5 289.5 436.0 289.25Q436.5 289.0 437.0 288.5ZM471.5 310.0Q471.5 307.5 467.5 307.5Q463.0 307.5 460.5 311.0Q460.5 312.0 465.0 312.0Q471.5 312.0 471.5 310.0ZM478.0 301.0Q480.5 301.0 481.75 296.75Q483.0 292.5 483.75 287.75Q484.5 283.0 484.5 281.0V279.5Q483.5 279.5 480.75 283.75Q478.0 288.0 476.0 292.5Q474.0 297.0 474.0 298.5Q474.0 301.0 478.0 301.0ZM232.5 81.0Q233.5 77.0 233.5 76.0Q233.5 75.0 232.5 75.0Q229.0 75.0 223.5 82.0Q220.5 85.0 215.25 89.5Q210.0 94.0 206.0 96.5Q202.0 98.5 199.0 100.75Q196.0 103.0 196.0 104.0Q196.0 104.5 201.25 107.5Q206.5 110.5 213.5 113.0L230.0 121.5V103.0Q230.0 88.5 232.5 81.0ZM242.5 172.5V173.0Q244.5 169.5 244.5 168.5Q244.5 167.5 238.0 167.5Q231.0 167.5 230.0 170.0Q230.0 170.5 230.25 170.75Q230.5 171.0 230.5 171.5Q231.5 178.0 236.0 178.0Q239.5 178.0 242.5 172.5ZM294.0 142.5Q294.0 142.0 290.5 141.75Q287.0 141.5 282.0 141.5Q270.5 141.5 270.5 144.0Q270.5 145.5 276.0 153.5L281.5 161.5L287.0 153.5Q294.0 144.5 294.0 142.5ZM357.5 90.0 363.5 82.5H345.0Q338.0 82.5 332.75 82.75Q327.5 83.0 326.5 83.5Q328.0 86.5 331.25 95.25Q334.5 104.0 338.0 111.5Q341.5 119.0 343.5 119.0Q345.5 119.0 348.0 111.0Q349.0 107.0 351.75 100.75Q354.5 94.5 357.5 90.0ZM399.5 66.0Q395.0 64.0 392.5 64.0Q390.5 64.0 390.5 66.0Q390.5 69.0 391.0 70.5Q391.5 76.5 394.0 76.5Q396.0 76.5 398.5 74.5Q404.5 70.5 404.5 69.0Q404.5 67.5 399.5 66.0ZM405.0 115.5 398.0 111.5Q395.0 110.0 393.5 110.0Q392.0 110.0 392.0 115.5Q392.0 122.0 393.5 122.0Q394.5 122.0 395.5 121.25Q396.5 120.5 398.0 120.0Q400.5 118.5 402.75 117.0Q405.0 115.5 405.0 115.5ZM409.0 169.5Q409.0 168.5 406.75 166.75Q404.5 165.0 402.0 164.0Q398.5 162.0 397.0 162.0Q396.0 162.0 396.0 165.5Q396.0 171.0 398.0 173.0H397.5Q398.0 173.5 400.0 173.5Q403.0 173.5 406.0 172.25Q409.0 171.0 409.0 169.5ZM478.0 84.0 472.5 71.0H447.5Q431.5 71.0 424.25 72.75Q417.0 74.5 407.5 81.0Q401.0 84.5 396.5 88.0Q392.0 91.5 392.0 92.5Q392.0 93.0 394.25 95.25Q396.5 97.5 399.5 100.5Q404.5 104.0 413.0 105.75Q421.5 107.5 444.0 108.5Q477.5 110.0 477.5 114.0Q477.5 119.0 445.5 119.0Q426.5 119.0 414.75 123.0Q403.0 127.0 396.0 135.5Q393.0 138.5 393.0 140.0Q393.0 141.5 402.0 150.5Q408.0 155.5 412.25 157.75Q416.5 160.0 424.75 160.5Q433.0 161.0 451.0 161.0H487.0L485.5 129.5Q485.0 116.5 482.5 103.0Q480.0 89.5 478.0 84.0ZM502.5 39.5 510.5 27.5 489.0 26.0Q485.0 26.0 482.0 25.75Q479.0 25.5 477.0 25.5Q470.5 25.5 468.25 26.5Q466.0 27.5 466.0 30.0Q466.0 35.0 469.5 37.0Q471.0 37.5 474.0 44.25Q477.0 51.0 479.0 59.5Q485.0 76.5 487.0 76.5Q489.0 76.5 491.0 65.5Q494.0 54.5 502.5 39.5ZM449.5 14.0Q449.5 10.0 452.5 10.0Q454.0 10.0 457.0 11.0Q459.5 12.5 471.0 13.75Q482.5 15.0 495.5 15.5Q509.5 16.0 519.25 17.25Q529.0 18.5 529.0 20.0Q529.0 21.0 525.75 25.5Q522.5 30.0 518.0 36.0L516.0 39.5Q511.0 46.0 506.0 54.75Q501.0 63.5 499.5 69.5Q498.5 73.0 497.5 87.25Q496.5 101.5 496.0 122.0Q495.5 142.5 495.5 166.0V246.0L501.0 238.5Q507.0 232.0 508.5 232.0Q510.5 232.0 510.5 237.0Q510.5 239.5 509.25 244.75Q508.0 250.0 505.5 254.5Q503.5 258.5 500.5 266.5Q497.5 274.5 495.5 282.5Q492.5 291.5 492.5 295.5Q492.5 298.5 494.0 300.5Q495.5 302.5 499.0 306.5Q503.0 310.0 509.75 313.0Q516.5 316.0 523.0 317.0Q537.5 319.5 550.75 325.5Q564.0 331.5 564.0 335.5V337.0Q562.5 339.0 559.5 339.0Q556.0 339.0 550.5 336.0Q538.5 330.0 519.5 326.5Q500.5 323.0 481.5 323.0Q473.0 323.0 465.0 323.75Q457.0 324.5 451.0 326.5Q447.0 327.5 444.0 328.0Q441.0 328.5 439.0 329.0Q435.5 328.0 435.5 326.0Q435.5 322.5 442.5 316.5Q447.5 311.5 447.5 307.5Q447.5 306.5 444.5 306.5Q441.0 306.5 433.5 308.0Q426.0 309.5 412.0 313.5L397.0 317.5L406.5 305.5Q411.5 300.5 411.5 298.5Q411.5 297.5 408.0 297.5Q405.0 297.5 399.75 298.25Q394.5 299.0 387.5 301.0Q375.0 304.0 368.5 304.0Q363.5 304.0 363.5 301.0Q363.5 299.0 368.5 295.5Q371.5 294.0 371.5 292.5Q371.5 288.0 352.0 280.0Q332.0 271.0 310.5 271.0L285.5 270.5L299.5 260.0Q303.5 256.0 306.0 253.25Q308.5 250.5 308.5 250.0Q308.5 249.5 295.25 249.5Q282.0 249.5 259.75 249.25Q237.5 249.0 210.5 249.0H179.0Q152.0 249.0 135.25 249.5Q118.5 250.0 108.75 251.0Q99.0 252.0 92.5 254.5Q83.0 257.5 70.75 263.0Q58.5 268.5 49.75 273.75Q41.0 279.0 41.0 281.5Q41.0 282.0 46.75 282.5Q52.5 283.0 60.5 283.0Q69.0 283.0 75.25 284.25Q81.5 285.5 81.5 287.5Q81.5 293.0 75.0 293.0Q73.0 293.0 68.75 295.5Q64.5 298.0 61.0 301.5Q57.0 305.5 55.0 309.5Q53.0 313.5 52.5 320.75Q52.0 328.0 52.0 343.0Q52.0 358.5 50.75 368.25Q49.5 378.0 47.5 378.0Q45.5 378.0 44.0 370.25Q42.5 362.5 42.5 350.0Q42.5 329.0 37.0 316.0Q31.5 303.0 19.0 295.0Q10.0 288.0 10.0 283.5Q10.0 279.5 15.5 279.5Q17.5 279.5 19.0 280.0Q20.0 280.0 21.0 280.25Q22.0 280.5 23.0 280.5Q28.0 280.5 29.0 278.0Q31.0 273.5 33.0 260.5Q35.0 247.5 36.5 233.25Q38.0 219.0 38.0 211.5Q38.0 207.5 37.5 207.0Q37.0 205.5 37.0 203.0Q37.0 199.0 41.0 198.0Q46.0 198.0 62.5 207.0Q86.0 220.0 117.5 228.75Q149.0 237.5 176.5 237.5Q186.5 237.5 186.5 236.0Q186.5 232.5 171.5 220.5Q148.5 201.5 129.0 189.75Q109.5 178.0 97.0 176.0Q80.0 174.0 80.0 169.0Q80.0 165.0 88.5 160.5Q92.5 158.0 101.0 151.75Q109.5 145.5 119.25 137.25Q129.0 129.0 137.5 121.0Q146.0 113.0 150.5 108.0Q159.0 99.5 160.5 99.5Q162.5 99.5 162.5 102.0Q162.5 104.5 159.25 111.75Q156.0 119.0 150.0 132.0Q145.0 143.0 141.0 151.75Q137.0 160.5 137.0 162.0Q137.0 166.5 141.75 174.75Q146.5 183.0 154.25 191.5Q162.0 200.0 170.0 206.5L187.0 219.0V208.5Q187.0 201.0 184.0 195.75Q181.0 190.5 172.5 182.0Q166.0 176.0 161.5 171.0Q157.0 166.0 157.0 165.0Q157.0 163.5 172.5 161.75Q188.0 160.0 209.0 159.0L256.0 156.0Q249.0 151.0 245.0 146.0Q238.5 141.0 225.75 133.25Q213.0 125.5 201.0 120.0L170.0 104.5L185.0 97.0Q191.5 94.0 201.0 87.0Q210.5 80.0 220.0 72.0Q229.5 64.0 236.5 57.0Q243.5 50.0 244.5 47.0Q246.5 40.5 249.0 40.5Q251.0 40.5 252.5 43.25Q254.0 46.0 254.0 47.5Q254.0 51.0 250.0 59.0Q245.0 71.5 241.75 83.25Q238.5 95.0 238.5 104.0Q238.5 111.0 241.0 117.0Q243.5 123.5 247.5 126.5Q251.5 129.5 260.5 130.5Q269.5 131.5 287.5 131.5Q300.5 131.5 309.25 133.0Q318.0 134.5 318.0 135.5Q318.0 137.0 314.25 141.25Q310.5 145.5 305.0 149.5Q300.0 153.5 296.25 158.25Q292.5 163.0 292.5 165.5Q292.5 167.5 299.0 175.25Q305.5 183.0 314.0 193.0Q323.0 201.5 328.75 208.75Q334.5 216.0 334.5 218.5Q334.5 219.5 333.5 220.5H332.5Q330.0 220.5 323.75 215.75Q317.5 211.0 311.0 204.0Q304.0 196.5 297.75 191.0Q291.5 185.5 290.5 185.5Q290.0 185.5 289.5 190.0Q289.0 194.5 289.0 201.5Q289.0 203.5 289.25 206.0Q289.5 208.5 289.5 211.0L290.5 236.5L304.5 239.0Q307.0 239.5 309.25 239.75Q311.5 240.0 313.0 240.0Q318.0 240.0 321.25 237.75Q324.5 235.5 330.5 229.5Q336.5 223.5 338.75 219.5Q341.0 215.5 341.5 207.75Q342.0 200.0 342.0 184.0Q342.0 157.5 336.0 134.25Q330.0 111.0 317.0 92.0Q313.5 86.0 311.0 81.0Q308.5 76.0 308.5 74.5Q308.5 72.5 316.5 71.75Q324.5 71.0 335.5 71.0Q350.0 71.0 364.25 72.0Q378.5 73.0 380.5 74.5V75.5Q380.5 81.0 372.0 88.5Q364.0 97.5 359.5 106.75Q355.0 116.0 353.25 130.25Q351.5 144.5 351.5 168.5V208.5L358.0 199.0Q366.5 186.5 370.5 186.5Q373.5 186.5 373.5 191.5Q373.5 193.5 370.25 199.75Q367.0 206.0 363.0 214.0Q356.5 223.5 354.0 230.75Q351.5 238.0 351.5 249.5Q351.5 263.0 353.5 266.5Q355.5 270.0 365.0 275.5L379.5 283.0L385.5 274.5Q388.0 270.5 393.25 262.75Q398.5 255.0 403.0 247.0Q415.5 227.5 419.5 227.5Q421.5 227.5 421.5 230.0Q421.5 232.5 420.0 237.0Q412.0 263.0 412.0 274.5Q412.0 281.0 415.0 285.0Q418.0 287.0 419.0 287.0Q420.5 287.0 425.25 281.0Q430.0 275.0 435.5 266.75Q441.0 258.5 445.25 251.25Q449.5 244.0 450.5 241.5Q453.5 234.0 459.5 234.0Q462.5 234.0 462.5 238.0Q462.5 238.5 460.25 246.0Q458.0 253.5 454.5 263.0Q449.0 278.0 449.0 283.0Q449.0 285.0 453.0 289.5Q457.0 294.0 459.5 294.0Q461.0 294.0 465.25 289.0Q469.5 284.0 474.75 277.0Q480.0 270.0 483.5 264.25Q487.0 258.5 487.0 257.0V211.0L486.0 171.0H458.0Q434.5 171.0 422.75 174.5Q411.0 178.0 401.5 188.0Q397.5 193.0 397.5 194.0Q397.5 195.0 403.5 199.5Q408.5 202.5 418.0 203.75Q427.5 205.0 447.5 205.0Q464.5 205.0 474.5 206.5Q484.5 208.0 484.5 210.5Q484.5 212.5 476.25 214.0Q468.0 215.5 455.0 215.5Q442.0 215.5 434.5 216.25Q427.0 217.0 421.75 219.25Q416.5 221.5 409.0 226.5L405.0 228.5Q399.0 232.0 394.75 234.75Q390.5 237.5 389.5 237.5Q389.0 237.5 387.5 230.75Q386.0 224.0 385.0 213.5Q384.5 209.5 384.25 206.0Q384.0 202.5 384.0 199.5Q384.0 189.0 386.5 185.0Q388.0 183.5 388.5 182.0Q389.0 180.5 389.5 179.5L389.0 179.0Q387.5 176.5 386.0 162.25Q384.5 148.0 383.25 128.5Q382.0 109.0 381.25 89.75Q380.5 70.5 380.5 58.0Q380.5 42.5 382.5 42.5Q386.0 42.5 396.0 52.5Q401.0 56.0 405.25 57.75Q409.5 59.5 416.75 60.0Q424.0 60.5 437.5 60.5Q451.5 60.5 459.75 59.75Q468.0 59.0 468.0 58.5Q468.0 56.5 465.25 50.5Q462.5 44.5 458.5 37.0Q455.0 29.5 452.25 22.75Q449.5 16.0 449.5 14.0Z" fill="black" /></svg>