<svg xmlns="http://www.w3.org/2000/svg" width="699.5" height="443.5" viewBox="0 0 699.5 443.5"><path d="M95.0 251.0Q93.0 250.0 87.5 248.75Q82.0 247.5 75.0 246.5Q64.0 244.0 56.75 242.5Q49.5 241.0 49.5 241.0Q48.5 248.0 48.5 258.5Q48.5 267.5 49.0 267.5Q51.0 267.5 60.5 264.25Q70.0 261.0 80.5 257.0Q91.0 253.0 95.0 251.0ZM117.5 320.0 88.5 316.0Q74.5 313.5 61.5 310.75Q48.5 308.0 45.5 307.5Q45.0 307.0 43.0 307.0Q40.0 307.0 40.0 308.0Q39.0 310.0 38.5 317.5Q38.0 325.0 38.0 332.0Q38.0 338.5 38.25 344.0Q38.5 349.5 39.0 350.5Q49.0 345.5 61.5 340.0Q74.0 334.5 86.0 330.0Q98.0 325.5 105.5 323.0ZM94.0 188.5Q89.5 188.5 82.0 187.75Q74.5 187.0 67.5 185.5Q59.5 183.5 56.0 183.5Q51.5 183.5 50.75 186.25Q50.0 189.0 50.0 196.0Q50.0 207.5 54.0 207.5H55.5Q58.0 207.0 65.5 205.0Q73.0 203.0 81.75 200.0Q90.5 197.0 96.75 194.25Q103.0 191.5 103.0 190.0Q103.0 188.5 94.0 188.5ZM117.0 108.0Q106.0 105.5 95.25 104.25Q84.5 103.0 74.5 101.5Q68.0 99.5 64.0 99.5Q59.0 98.0 57.0 98.0Q54.5 98.0 53.75 102.5Q53.0 107.0 53.0 119.5Q53.0 129.0 53.25 136.25Q53.5 143.5 53.5 144.0Q55.0 143.0 61.5 140.0Q68.0 137.0 76.0 132.0Q79.0 130.5 87.25 127.25Q95.5 124.0 105.0 120.5Q114.5 117.0 122.75 114.5Q131.0 112.0 134.5 112.0Q134.0 111.0 129.0 109.75Q124.0 108.5 117.0 108.0ZM164.0 197.0Q165.0 196.0 165.5 194.5Q166.0 193.0 166.0 193.0Q154.5 193.0 139.0 195.75Q123.5 198.5 108.25 203.0Q93.0 207.5 82.0 212.0Q71.0 215.5 63.5 220.75Q56.0 226.0 56.0 229.0L56.5 230.5Q58.5 232.0 73.0 233.75Q87.5 235.5 108.0 236.75Q128.5 238.0 149.5 238.75Q170.5 239.5 185.0 239.5Q190.5 239.5 194.75 239.5Q199.0 239.5 201.5 239.0L219.0 236.0Q217.0 233.5 214.5 231.5Q212.0 229.5 210.0 227.5Q204.0 223.0 198.5 219.75Q193.0 216.5 190.5 216.5Q183.5 216.5 172.0 212.0Q166.5 209.5 164.0 207.75Q161.5 206.0 161.5 203.0Q161.5 199.5 164.0 197.0ZM254.0 275.0 233.0 248.5 207.0 250.0Q178.5 250.5 150.25 254.5Q122.0 258.5 98.0 264.75Q74.0 271.0 58.5 280.0Q46.0 285.0 46.0 289.5Q46.0 305.5 189.5 305.5Q213.5 305.5 232.75 305.0Q252.0 304.5 263.5 304.0Q275.0 303.5 275.0 303.5Q275.0 303.0 269.0 294.75Q263.0 286.5 254.0 275.0ZM311.0 98.5Q311.0 96.5 305.0 96.5Q301.5 96.5 297.5 97.75Q293.5 99.0 291.0 101.5H292.0Q286.5 109.5 228.5 112.5Q188.5 113.5 154.0 120.25Q119.5 127.0 94.5 137.25Q69.5 147.5 57.5 160.0H58.0Q53.5 165.5 53.5 168.0Q53.5 168.5 53.75 169.0Q54.0 169.5 54.0 169.5Q58.0 171.0 69.75 172.75Q81.5 174.5 97.75 176.25Q114.0 178.0 131.0 179.25Q148.0 180.5 162.0 180.5H198.0Q202.0 178.0 211.75 171.75Q221.5 165.5 231.5 159.25Q241.5 153.0 245.0 150.5Q280.5 127.0 295.75 115.0Q311.0 103.0 311.0 98.5ZM252.5 170.5Q263.5 158.0 265.0 153.0Q263.0 154.0 254.25 159.25Q245.5 164.5 234.0 171.5Q222.0 179.5 209.5 187.0Q197.0 194.5 193.0 196.5V196.0Q191.0 198.0 189.0 199.25Q187.0 200.5 187.0 201.0Q187.0 201.5 202.0 208.5Q218.5 217.0 225.5 217.0Q229.5 217.0 231.5 213.75Q233.5 210.5 235.0 204.0Q237.0 198.0 241.75 188.0Q246.5 178.0 252.5 170.5ZM487.5 182.0 481.5 176.5Q473.5 171.0 459.5 161.75Q445.5 152.5 428.25 142.0Q411.0 131.5 393.25 122.0Q375.5 112.5 360.5 106.25Q345.5 100.0 336.0 100.0Q329.5 100.0 324.75 103.75Q320.0 107.5 313.0 116.0L311.0 118.5Q297.0 134.5 284.5 150.0Q272.0 165.5 262.75 177.5Q253.5 189.5 250.0 195.5Q248.0 199.5 246.75 206.5Q245.5 213.5 245.5 220.5Q245.5 227.5 246.5 232.75Q247.5 238.0 249.5 239.0Q254.0 242.5 254.0 250.5Q254.0 252.5 258.75 260.25Q263.5 268.0 270.5 276.5Q277.5 286.0 285.5 298.5Q293.5 311.0 296.5 319.5Q300.5 326.5 305.0 332.0Q309.5 337.5 310.5 337.5Q315.5 337.5 329.25 333.25Q343.0 329.0 359.75 322.25Q376.5 315.5 390.0 308.5Q414.5 296.5 440.5 280.25Q466.5 264.0 496.0 242.5L501.0 237.0Q511.5 230.0 517.5 224.5Q523.5 219.0 523.5 215.5Q523.5 210.0 515.0 203.0Q506.5 196.0 487.5 182.0ZM369.5 53.0Q367.5 47.5 364.75 44.25Q362.0 41.0 362.0 41.0Q362.0 41.0 359.5 43.75Q357.0 46.5 354.0 51.0V50.5Q351.0 55.5 344.75 61.75Q338.5 68.0 332.5 71.5Q327.5 74.5 323.0 77.5Q318.5 80.5 318.5 80.5Q318.5 81.0 324.75 82.75Q331.0 84.5 339.0 87.0Q348.5 90.0 365.0 96.0Q381.5 102.0 395.0 109.0Q406.0 113.0 414.5 117.0Q423.0 121.0 426.5 122.0Q424.5 119.5 418.0 112.0Q411.5 104.5 402.0 95.0Q392.5 83.5 382.25 71.25Q372.0 59.0 369.5 53.0ZM624.5 135.5Q628.0 131.0 628.5 129.5Q626.0 130.0 617.5 134.75Q609.0 139.5 593.5 150.5Q586.5 154.0 579.5 158.25Q572.5 162.5 567.5 166.5Q563.0 169.5 559.25 172.0Q555.5 174.5 554.5 175.0Q553.0 175.5 552.25 176.0Q551.5 176.5 551.5 176.5Q551.5 178.0 561.0 180.0Q565.0 182.0 570.0 184.0Q575.0 186.0 578.5 187.5L582.5 189.0Q585.0 191.0 587.25 191.5Q589.5 192.0 591.0 192.0Q598.5 192.0 598.5 183.0Q598.5 177.5 604.5 166.0Q610.5 154.5 624.5 135.5ZM400.0 318.5Q397.5 319.0 392.25 321.25Q387.0 323.5 378.5 327.0Q370.5 331.0 356.5 336.25Q342.5 341.5 326.75 346.0Q311.0 350.5 297.0 353.0L286.5 355.0L298.5 368.5Q304.5 374.0 311.0 381.0Q317.5 388.0 321.0 391.5L326.5 399.5L331.0 391.5Q333.5 388.0 344.75 376.0Q356.0 364.0 368.5 350.5Q381.5 337.0 390.75 328.0Q400.0 319.0 400.0 318.5ZM352.5 29.0Q356.0 21.0 359.0 15.5Q362.0 10.0 362.0 10.0Q363.5 10.0 367.25 17.5Q371.0 25.0 375.0 35.5Q379.5 44.0 390.0 59.5Q400.5 75.0 411.0 86.5Q419.0 96.0 434.0 111.25Q449.0 126.5 466.5 143.25Q484.0 160.0 500.5 174.75Q517.0 189.5 528.5 199.0Q540.0 208.5 542.5 208.5Q545.5 208.5 551.5 215.0Q557.5 221.5 562.5 229.0Q567.5 236.5 567.5 240.0Q567.5 240.5 566.75 242.25Q566.0 244.0 565.0 244.0Q562.5 244.0 558.5 241.25Q554.5 238.5 551.0 235.0L541.0 224.5Q538.5 226.5 532.0 231.25Q525.5 236.0 523.5 237.0Q472.5 275.0 432.75 308.75Q393.0 342.5 367.5 369.0Q342.0 395.5 334.0 411.0Q330.0 420.5 325.25 427.0Q320.5 433.5 318.5 433.5Q316.0 433.5 315.25 429.25Q314.5 425.0 313.5 418.5L313.0 416.0Q313.0 401.5 302.75 387.5Q292.5 373.5 269.0 355.0Q245.5 337.5 245.5 331.5Q245.5 328.0 249.0 328.0Q251.5 328.0 256.25 329.25Q261.0 330.5 268.0 334.0Q274.0 337.5 278.25 338.75Q282.5 340.0 286.0 340.0Q292.5 340.0 292.5 335.0Q292.5 333.0 291.5 330.75Q290.5 328.5 289.5 325.0V326.5Q287.0 322.5 283.5 320.75Q280.0 319.0 266.0 319.0Q249.5 319.0 223.0 320.25Q196.5 321.5 166.5 325.25Q136.5 329.0 108.5 335.75Q80.5 342.5 60.25 353.25Q40.0 364.0 34.0 380.0Q27.0 395.0 21.5 395.0Q18.0 395.0 18.0 389.0Q18.0 384.5 20.0 380.0Q24.0 368.0 26.0 354.75Q28.0 341.5 28.0 329.0Q28.0 321.5 26.0 315.75Q24.0 310.0 20.0 302.5L10.0 281.0L22.0 283.5H24.0Q29.0 283.5 32.75 277.75Q36.5 272.0 36.5 263.5Q36.5 258.0 35.25 253.0Q34.0 248.0 32.0 242.5Q29.0 234.0 27.0 229.25Q25.0 224.5 25.0 222.5Q25.0 218.5 27.25 218.0Q29.5 217.5 33.0 217.5Q39.0 217.5 39.0 203.0Q39.0 197.5 38.0 193.0Q37.0 188.5 34.5 188.5Q30.0 188.5 30.0 182.5V180.0Q30.5 179.0 31.25 177.75Q32.0 176.5 32.0 176.0Q32.0 175.0 31.0 174.0Q30.0 173.0 29.5 172.5Q28.0 170.0 28.0 168.0Q28.0 163.5 32.5 161.0Q37.5 157.0 40.0 145.5Q42.5 134.0 42.5 120.5Q42.5 103.0 37.5 91.5Q34.5 86.0 32.5 81.75Q30.5 77.5 30.5 75.5Q30.5 71.0 35.5 71.0Q41.0 71.0 51.5 78.0Q67.5 88.0 101.25 93.0Q135.0 98.0 192.5 98.0Q221.5 98.0 239.5 97.0Q257.5 96.0 270.25 92.75Q283.0 89.5 294.25 82.75Q305.5 76.0 321.0 65.0Q346.5 45.5 352.5 29.0ZM671.0 84.0Q674.5 80.0 679.5 77.25Q684.5 74.5 687.0 74.5Q689.5 74.5 689.5 77.0Q689.5 82.5 671.5 101.5Q662.0 111.0 649.5 125.5Q637.0 140.0 628.5 151.5Q618.0 165.0 614.25 171.0Q610.5 177.0 610.5 184.0Q610.5 190.0 612.5 198.5Q614.0 207.5 616.25 214.0Q618.5 220.5 623.5 227.5Q628.5 234.5 638.0 245.0Q655.0 263.5 664.5 278.75Q674.0 294.0 674.0 301.5V305.0L673.0 305.5Q671.0 305.5 665.25 299.75Q659.5 294.0 652.5 284.5Q646.5 274.5 632.75 258.25Q619.0 242.0 607.0 228.0Q593.5 215.5 584.75 208.5Q576.0 201.5 568.0 197.5Q560.0 193.5 548.0 190.5Q537.0 186.5 528.25 182.75Q519.5 179.0 519.5 177.0Q519.5 175.5 524.25 172.5Q529.0 169.5 535.0 167.5Q541.0 165.5 555.5 157.5Q570.0 149.5 588.25 138.75Q606.5 128.0 624.0 116.75Q641.5 105.5 654.5 96.5Q667.5 87.5 671.0 84.0Z" fill="black" /></svg>