<svg xmlns="http://www.w3.org/2000/svg" width="387.5" height="383.0" viewBox="0 0 387.5 383.0"><path d="M64.0 238.5Q62.0 238.5 56.0 236.25Q50.0 234.0 44.0 231.0L31.0 224.0V233.0Q31.0 237.5 30.25 244.5Q29.5 251.5 28.5 257.0L26.0 266.0L38.5 257.5Q45.0 253.5 51.75 249.75Q58.5 246.0 61.5 245.5H61.0Q67.5 243.5 67.5 240.0Q67.5 238.5 64.0 238.5ZM71.0 324.5 69.0 308.5Q68.5 306.5 68.5 304.75Q68.5 303.0 68.0 301.5Q66.5 291.0 67.0 291.0H66.5Q65.0 291.0 59.25 295.0Q53.5 299.0 48.0 303.0Q42.5 307.0 42.5 308.0Q42.5 309.0 47.0 312.0Q51.5 315.0 58.0 317.5ZM122.5 306.0V291.5Q122.5 285.5 122.25 282.0Q122.0 278.5 122.0 278.5Q119.5 279.0 114.25 282.25Q109.0 285.5 105.0 288.5Q101.0 291.5 101.0 292.5Q101.0 293.0 104.5 295.25Q108.0 297.5 112.5 300.0ZM184.5 233.0Q184.5 232.0 173.5 228.0L163.5 224.5V242.5L164.0 259.5L173.0 248.0Q178.0 242.5 181.25 238.0Q184.5 233.5 184.5 233.0ZM60.0 136.5Q60.0 135.5 57.25 133.25Q54.5 131.0 51.0 128.0Q44.5 123.5 43.0 123.5Q42.5 123.5 42.5 127.5Q42.5 130.5 41.75 136.75Q41.0 143.0 40.0 148.5L38.0 158.0L48.5 149.0Q53.0 144.0 56.5 140.5Q60.0 137.0 60.0 136.5ZM116.0 74.0Q117.5 70.0 117.5 68.0Q117.5 67.5 117.25 67.25Q117.0 67.0 117.0 67.0Q115.0 67.5 108.25 72.75Q101.5 78.0 95.5 83.5Q89.5 89.0 89.5 90.5Q89.5 91.5 94.5 94.75Q99.5 98.0 105.25 100.75Q111.0 103.5 113.0 103.5Q113.0 96.0 113.5 88.5Q114.0 81.0 116.0 74.0ZM140.5 134.0H140.0ZM180.0 85.5V71.0Q179.0 71.0 173.75 75.0Q168.5 79.0 164.0 83.25Q159.5 87.5 159.5 89.0Q159.5 90.0 163.75 92.75Q168.0 95.5 172.75 97.75Q177.5 100.0 179.0 100.0Q179.0 100.0 179.25 96.0Q179.5 92.0 180.0 85.5ZM209.5 154.5 147.5 146.0Q122.5 142.5 102.75 140.0Q83.0 137.5 81.0 137.5Q79.0 137.5 71.25 144.25Q63.5 151.0 53.5 160.0Q30.0 183.5 30.0 196.5Q30.0 201.5 32.5 205.75Q35.0 210.0 39.5 215.0Q48.5 223.5 64.25 227.25Q80.0 231.0 106.0 231.0H116.5L151.5 230.0L153.5 206.0Q156.0 185.5 158.0 185.5Q160.0 185.5 166.0 204.0Q168.0 211.0 172.25 214.75Q176.5 218.5 186.75 220.0Q197.0 221.5 217.0 221.5Q225.0 221.5 234.5 221.5Q244.0 221.5 255.5 221.0L319.5 218.5Q316.0 216.0 313.0 214.0Q310.0 212.0 306.0 210.0Q299.0 205.5 282.0 195.5Q265.0 185.5 248.5 176.5ZM247.0 140.5Q245.0 133.0 243.25 127.5Q241.5 122.0 241.0 122.0Q239.0 122.0 232.5 127.0Q226.0 132.0 220.0 137.5Q214.0 143.0 214.0 144.5Q214.0 146.5 223.0 146.5Q233.5 146.5 233.5 153.0Q233.5 154.5 237.5 157.5Q241.5 160.5 246.5 163.0Q253.5 167.0 258.0 167.0L258.5 167.5Q258.5 164.0 255.5 163.5Q254.0 162.0 251.5 155.25Q249.0 148.5 247.0 140.5ZM350.5 80.0Q351.0 79.0 351.25 78.5Q351.5 78.0 351.5 77.5Q351.5 76.0 347.5 75.5Q343.5 75.0 333.0 75.0Q320.5 75.0 315.0 75.75Q309.5 76.5 309.5 79.0Q309.5 80.5 313.0 86.0Q315.5 89.5 319.0 99.0Q322.5 108.5 324.5 117.5Q331.5 141.5 332.5 141.5Q333.0 141.5 333.0 135.5Q333.0 131.5 335.5 122.0Q338.0 112.5 342.0 101.25Q346.0 90.0 350.5 80.0ZM88.0 260.5Q99.0 250.5 105.0 250.5H106.0Q107.0 252.5 107.0 253.5Q107.0 258.0 100.0 263.5Q90.5 272.0 84.75 280.25Q79.0 288.5 78.0 296.0L108.0 274.5Q120.0 265.5 129.75 257.5Q139.5 249.5 142.0 247.0H141.5Q143.5 245.0 143.5 244.0Q143.5 243.0 139.0 242.75Q134.5 242.5 122.5 242.5Q101.0 242.5 79.5 249.5Q58.0 256.5 42.0 267.5Q26.0 278.5 20.5 291.5Q17.0 300.0 15.0 300.0Q13.5 300.0 11.0 294.5Q10.0 291.5 10.0 289.0Q10.0 283.0 13.5 278.0Q15.5 275.0 17.75 259.0Q20.0 243.0 21.0 224.5Q22.5 203.5 25.0 179.0Q27.5 154.5 31.0 133.0Q34.5 111.5 37.5 97.75Q40.5 84.0 42.5 84.0Q44.0 84.0 45.25 87.75Q46.5 91.5 46.5 97.0Q46.5 125.0 84.5 128.0Q90.0 128.5 96.5 129.0Q103.0 129.5 109.5 130.5Q114.0 131.0 118.0 131.5Q122.0 132.0 125.0 132.5Q132.5 134.0 140.0 134.0Q138.5 131.5 130.75 126.5Q123.0 121.5 112.25 115.5Q101.5 109.5 92.0 105.0Q82.5 100.5 77.5 99.0Q71.0 97.5 71.0 94.5Q71.0 91.0 78.25 84.5Q85.5 78.0 104.0 64.0Q119.0 52.0 133.75 39.25Q148.5 26.5 154.0 21.0Q164.0 11.0 171.0 10.0Q171.5 10.5 171.75 10.5Q172.0 10.5 172.5 11.0Q173.5 11.0 173.5 12.5Q173.5 15.0 168.5 20.75Q163.5 26.5 156.0 33.5Q145.5 43.0 134.5 59.0Q123.5 75.0 122.5 90.0Q123.5 100.0 129.75 108.5Q136.0 117.0 144.5 122.5Q157.5 129.5 160.5 135.0Q161.0 136.0 166.25 137.25Q171.5 138.5 178.0 139.5Q180.5 140.0 182.25 140.0Q184.0 140.0 186.0 140.0Q195.0 140.0 201.25 137.5Q207.5 135.0 207.5 131.5Q207.5 130.5 206.5 129.5Q205.0 127.0 197.0 121.75Q189.0 116.5 178.75 111.25Q168.5 106.0 159.5 102.25Q150.5 98.5 147.5 98.5Q144.0 98.5 141.0 97.25Q138.0 96.0 138.0 94.0Q138.0 91.5 156.0 76.25Q174.0 61.0 217.0 26.5Q222.0 22.0 225.25 20.25Q228.5 18.5 230.0 18.5Q232.0 18.5 232.0 20.5Q232.0 25.5 218.0 38.0Q213.0 42.0 206.0 51.0Q199.0 60.0 193.5 70.0Q188.0 80.0 188.0 87.5Q188.0 94.0 193.75 102.25Q199.5 110.5 207.0 116.5Q214.5 122.5 220.5 122.5Q222.5 122.5 230.75 116.25Q239.0 110.0 249.0 102.0Q258.5 94.0 266.25 88.75Q274.0 83.5 276.5 83.0Q277.0 83.5 277.5 83.5Q278.0 83.5 278.5 84.0V85.5Q278.5 91.0 270.5 97.5Q254.0 111.0 254.0 127.0Q254.0 149.5 282.0 176.0Q291.0 184.0 300.75 192.0Q310.5 200.0 315.5 203.0L326.0 209.0L324.0 176.5Q322.0 150.5 317.25 129.25Q312.5 108.0 306.25 94.25Q300.0 80.5 293.0 78.0Q290.5 77.0 288.25 74.25Q286.0 71.5 286.0 69.5Q286.0 64.5 295.0 64.5Q297.0 64.5 299.5 64.75Q302.0 65.0 305.5 65.5Q308.5 66.0 311.5 66.0Q314.5 66.0 318.0 66.0Q332.5 66.0 345.25 63.75Q358.0 61.5 359.0 58.0Q360.0 55.5 363.25 54.25Q366.5 53.0 369.5 52.5Q372.5 53.0 375.0 54.25Q377.5 55.5 377.5 58.0Q377.5 63.5 371.5 65.5Q366.5 67.5 360.25 82.0Q354.0 96.5 348.25 117.25Q342.5 138.0 338.75 159.5Q335.0 181.0 335.0 197.0Q335.0 212.0 338.75 216.25Q342.5 220.5 355.5 220.5Q365.5 220.5 365.5 225.0Q365.5 228.0 361.0 231.75Q356.5 235.5 353.5 235.5Q351.5 235.5 348.5 234.5Q343.0 230.5 340.0 230.5Q335.0 230.5 335.0 248.5V269.5Q335.0 278.0 334.5 281.5Q334.0 285.0 332.5 285.0Q331.5 285.0 329.0 281.5Q325.0 273.5 325.0 251.5V231.0H266.0Q243.5 231.0 231.0 231.25Q218.5 231.5 212.0 232.25Q205.5 233.0 202.0 235.0Q198.5 237.0 194.0 240.5Q187.5 246.5 179.5 258.0Q171.5 269.5 165.5 280.5Q159.5 291.5 159.5 296.5Q159.5 305.0 154.0 305.0Q151.0 305.0 151.0 294.0Q151.0 290.0 151.25 285.75Q151.5 281.5 152.0 275.5L154.0 250.0L143.5 259.5Q137.0 266.5 134.5 271.75Q132.0 277.0 132.0 286.0Q132.0 296.5 134.5 301.25Q137.0 306.0 146.5 314.5Q152.5 319.5 161.0 325.5Q169.5 331.5 175.0 335.0Q183.5 340.0 184.5 344.0Q184.5 345.5 182.5 346.5H182.0Q180.0 346.5 169.25 342.0Q158.5 337.5 145.5 330.0Q132.0 322.5 117.5 315.0Q103.0 307.5 96.0 305.0L77.5 298.0Q77.5 313.5 90.25 327.0Q103.0 340.5 116.0 347.5Q131.0 356.5 136.5 360.75Q142.0 365.0 142.0 368.5Q142.0 370.5 141.0 371.5Q140.5 373.0 138.0 373.0Q135.0 373.0 131.5 369.5Q128.0 366.5 115.0 359.0Q102.0 351.5 85.5 343.0Q69.0 334.5 54.5 327.5Q40.0 320.5 34.0 318.5L18.0 313.0L48.0 292.0Q59.0 284.0 70.75 274.75Q82.5 265.5 88.0 260.5Z" fill="black" /></svg>