<svg xmlns="http://www.w3.org/2000/svg" width="1020.5" height="449.5" viewBox="0 0 1020.5 449.5"><path d="M66.5 315.0Q57.5 312.0 49.75 309.75Q42.0 307.5 40.0 307.5Q39.5 307.5 38.5 312.75Q37.5 318.0 36.0 326.0Q35.5 329.0 35.5 331.0Q35.5 333.0 35.5 335.0Q35.5 343.5 36.5 345.5Q41.0 344.5 50.0 342.0Q59.0 339.5 69.0 336.25Q79.0 333.0 86.75 330.0Q94.5 327.0 96.5 325.5Q95.0 324.5 92.0 323.75Q89.0 323.0 86.0 322.5Q82.0 320.5 76.75 318.75Q71.5 317.0 66.5 315.0ZM85.0 251.0V250.5Q80.5 247.5 73.75 244.75Q67.0 242.0 61.5 242.0Q58.0 242.0 58.0 243.0Q58.0 247.5 54.5 256.5Q53.5 259.5 53.5 260.0Q53.5 262.5 57.5 262.5Q60.0 262.5 66.5 260.75Q73.0 259.0 79.0 256.25Q85.0 253.5 85.0 251.0ZM91.0 193.5Q91.0 191.5 86.0 188.75Q81.0 186.0 74.5 183.75Q68.0 181.5 64.0 181.5Q61.5 181.5 60.5 182.5Q60.0 183.0 59.0 186.25Q58.0 189.5 58.0 193.5Q58.0 199.5 62.5 199.5Q64.0 199.5 65.5 199.5Q67.0 199.5 68.5 199.0Q73.5 198.0 79.0 196.5Q84.5 195.0 86.5 195.0Q91.0 195.0 91.0 193.5ZM192.5 201.5Q192.0 200.5 184.5 200.0Q177.0 199.5 165.5 199.5Q162.0 199.5 150.0 200.25Q138.0 201.0 122.5 202.75Q107.0 204.5 92.5 207.0Q78.0 209.5 68.25 213.0Q58.5 216.5 58.5 221.0Q58.5 225.5 67.0 229.25Q75.5 233.0 88.0 235.75Q100.5 238.5 114.0 240.25Q127.5 242.0 137.75 243.0Q148.0 244.0 151.5 244.0Q169.0 244.0 178.0 243.0Q187.0 242.0 192.0 239.25Q197.0 236.5 202.5 231.5Q216.0 220.5 216.0 214.5Q216.0 209.5 203.5 209.5Q193.0 209.5 192.0 203.5Q192.0 203.0 192.25 202.5Q192.5 202.0 192.5 201.5ZM177.5 260.5H177.0Q175.5 257.0 171.0 256.0Q169.5 256.5 156.5 257.5Q151.5 258.0 144.25 259.25Q137.0 260.5 128.5 261.5Q107.5 263.0 89.5 267.75Q71.5 272.5 60.75 278.25Q50.0 284.0 50.0 290.0Q50.0 293.5 57.75 297.0Q65.5 300.5 78.0 305.5Q86.5 308.5 102.75 311.0Q119.0 313.5 139.0 315.25Q159.0 317.0 179.75 318.0Q200.5 319.0 218.0 319.0Q234.0 319.0 245.75 318.0Q257.5 317.0 259.5 315.0H258.5Q259.5 314.5 260.5 313.5Q260.0 313.5 259.75 313.5Q259.5 313.5 258.5 313.5Q253.5 312.0 253.5 308.5Q253.5 306.5 260.0 300.0Q267.0 297.0 267.0 294.5Q267.0 293.5 264.5 290.75Q262.0 288.0 256.0 283.0Q243.5 274.0 229.25 268.0Q215.0 262.0 202.5 262.0Q199.5 262.0 194.5 263.0Q192.0 263.5 187.0 263.5Q180.0 263.5 177.5 260.5ZM228.5 242.0Q225.5 235.5 221.5 235.5Q218.5 235.5 217.0 239.0L216.5 239.5Q216.5 243.0 221.0 247.0Q225.5 251.0 228.5 251.5H229.0V248.0Q229.0 247.0 229.0 245.5Q229.0 244.0 228.5 242.0ZM312.0 259.5H311.0Q309.0 256.5 299.5 249.75Q290.0 243.0 278.0 235.25Q266.0 227.5 255.75 221.25Q245.5 215.0 241.5 213.5Q238.5 211.5 238.0 211.5Q233.5 211.5 233.5 218.0Q233.5 224.0 239.0 234.5Q244.5 245.0 252.5 256.0Q260.5 267.0 268.5 274.5Q276.5 282.0 282.0 282.0Q285.5 282.0 289.75 279.75Q294.0 277.5 298.5 274.5Q310.0 265.5 312.0 259.5ZM317.5 282.5V276.0Q315.0 277.0 306.75 283.75Q298.5 290.5 290.75 297.5Q283.0 304.5 281.5 307.0Q281.5 307.0 287.25 310.0Q293.0 313.0 300.0 316.0L314.5 323.5V308.0Q314.5 291.5 317.5 282.5ZM366.5 219.5Q370.0 211.0 370.0 206.5L369.5 206.0Q367.5 206.0 362.5 211.25Q357.5 216.5 353.25 222.0Q349.0 227.5 349.0 229.5Q349.0 231.0 354.5 231.0Q361.0 231.0 366.5 219.5ZM416.5 219.5V220.0Q417.5 216.0 417.5 209.5Q417.5 208.5 417.5 207.25Q417.5 206.0 417.0 205.5Q417.0 202.0 415.5 202.0Q412.5 202.0 405.5 209.5L396.0 220.0L404.5 223.0Q405.5 223.5 409.0 223.5Q413.5 223.5 416.5 219.5ZM516.0 208.0Q516.0 199.0 511.5 199.0Q507.5 199.0 507.5 208.0Q507.5 210.5 508.75 213.0Q510.0 215.5 511.5 215.5Q514.0 215.5 515.0 213.0Q516.0 210.5 516.0 208.0ZM514.0 271.5H514.5Q515.0 271.0 515.0 269.0Q515.0 267.0 514.5 266.5H514.0Q514.0 266.5 513.75 267.25Q513.5 268.0 513.5 269.0Q513.5 270.0 513.75 270.75Q514.0 271.5 514.0 271.5ZM561.5 340.5Q552.0 338.5 536.5 335.25Q521.0 332.0 506.0 327.75Q491.0 323.5 482.0 320.0Q480.0 319.5 478.5 319.25Q477.0 319.0 475.5 319.0Q471.0 319.0 469.25 325.0Q467.5 331.0 465.0 349.0Q464.0 354.0 463.5 357.25Q463.0 360.5 463.0 362.0Q463.0 365.5 466.0 365.5Q468.5 365.5 475.0 363.0Q489.5 361.0 504.0 357.75Q518.5 354.5 532.5 351.0Q551.0 347.0 559.0 344.75Q567.0 342.5 567.0 342.0Q567.0 342.0 565.5 341.75Q564.0 341.5 561.5 340.5ZM547.0 269.0Q547.0 266.0 537.5 266.0Q531.0 266.0 531.0 267.5H531.5Q532.5 269.5 535.5 271.0Q538.5 272.5 541.5 272.5Q547.0 272.5 547.0 269.0ZM552.5 208.0Q552.5 206.0 549.0 205.0Q545.5 204.0 541.0 204.0Q529.5 204.0 529.5 208.0Q529.5 211.0 541.0 211.0Q545.5 211.0 549.0 210.0Q552.5 209.0 552.5 208.0ZM603.5 304.0V282.0H574.5Q547.0 282.5 538.25 284.75Q529.5 287.0 529.5 296.5Q529.5 298.0 529.5 300.25Q529.5 302.5 530.0 304.0L531.5 322.5L565.0 327.5Q574.0 329.5 583.25 330.25Q592.5 331.0 602.0 331.0Q603.0 328.5 603.25 320.75Q603.5 313.0 603.5 304.0ZM602.0 260.0 602.5 239.5 604.5 219.0 578.0 220.0Q552.0 220.0 540.75 224.5Q529.5 229.0 529.5 237.5Q529.5 247.0 540.25 251.25Q551.0 255.5 577.0 257.5ZM806.0 266.5Q806.0 257.0 803.0 256.0Q796.0 256.5 787.0 260.75Q778.0 265.0 778.0 269.0Q778.0 272.5 755.75 275.0Q733.5 277.5 698.0 277.5L619.0 279.0L615.5 333.5L639.5 337.0Q649.5 338.5 669.0 339.25Q688.5 340.0 706.0 340.0H748.0Q751.0 337.0 757.0 330.5Q763.0 324.0 769.25 317.5Q775.5 311.0 778.0 308.5Q791.0 293.5 798.5 282.75Q806.0 272.0 806.0 266.5ZM838.5 320.0Q833.5 313.0 827.25 305.0Q821.0 297.0 818.5 293.5Q817.5 290.0 815.0 290.0Q811.5 290.0 797.5 307.5L780.5 328.5L814.0 333.5Q825.5 335.0 836.0 336.5Q846.5 338.0 850.0 338.0H853.0Q853.0 337.0 849.0 332.25Q845.0 327.5 838.5 320.0ZM842.5 211.5Q842.5 210.0 841.0 210.0Q839.0 210.0 833.75 214.0Q828.5 218.0 822.25 223.75Q816.0 229.5 811.25 234.5Q806.5 239.5 805.5 241.5Q825.0 241.5 846.5 245.5L867.0 247.5Q865.0 244.0 861.75 241.0Q858.5 238.0 855.5 234.5Q850.5 228.0 846.5 221.25Q842.5 214.5 842.5 211.5ZM69.0 89.5H68.5Q65.5 84.5 62.0 84.5Q58.5 84.5 55.75 90.25Q53.0 96.0 53.0 106.0V121.5L77.0 114.0Q87.5 109.5 94.75 106.5Q102.0 103.5 102.0 103.0Q102.0 103.0 98.75 101.75Q95.5 100.5 91.0 98.5L87.5 97.5H88.0Q81.5 95.5 75.75 93.25Q70.0 91.0 69.0 89.5ZM236.5 108.0Q236.5 107.0 233.5 106.5Q230.5 106.0 226.5 106.0Q184.5 109.0 158.25 111.25Q132.0 113.5 116.0 116.25Q100.0 119.0 89.0 122.75Q78.0 126.5 66.5 132.5Q49.5 140.5 48.5 145.5Q48.5 147.5 51.5 150.5Q54.5 153.5 59.5 159.0Q72.5 170.0 101.5 177.5Q130.5 185.0 166.5 185.0Q185.0 185.0 194.25 184.0Q203.5 183.0 209.0 180.25Q214.5 177.5 220.5 172.0Q229.0 163.5 229.0 156.5Q229.0 150.0 214.0 147.0L196.0 143.0L218.5 126.5Q226.0 121.0 231.25 115.5Q236.5 110.0 236.5 108.0ZM244.5 194.0Q244.5 191.5 240.0 185.0Q235.5 178.5 233.0 178.5Q229.5 178.5 227.0 185.0Q226.0 188.5 225.25 190.5Q224.5 192.5 224.5 194.0Q224.5 195.0 235.0 195.0Q244.5 195.0 244.5 194.0ZM274.0 102.0Q275.5 98.0 276.5 96.25Q277.5 94.5 278.0 93.5Q276.0 94.0 269.75 98.75Q263.5 103.5 254.0 113.5L234.0 133.0L244.5 136.0Q250.5 137.5 254.5 137.5Q268.0 137.5 268.0 124.0Q268.0 119.0 269.5 113.0Q271.0 107.0 274.0 102.0ZM330.5 223.0Q330.5 219.5 324.0 211.5Q317.5 203.5 307.5 194.0Q297.5 184.5 286.25 175.5Q275.0 166.5 265.5 160.25Q256.0 154.0 250.5 153.0Q248.5 153.5 247.0 157.5Q245.5 159.0 245.5 160.5Q245.5 167.5 251.75 178.5Q258.0 189.5 268.0 201.25Q278.0 213.0 289.25 223.5Q300.5 234.0 311.0 240.75Q321.5 247.5 328.5 247.5H329.0Q329.0 245.5 325.0 241.5H325.5Q321.5 238.0 321.5 235.0Q321.5 231.0 325.5 229.0V229.5Q326.5 228.5 328.5 226.75Q330.5 225.0 330.5 223.0ZM516.0 111.5Q516.0 101.0 510.0 101.0Q506.5 101.0 499.5 104.0Q492.5 107.0 485.0 111.5Q477.5 116.0 472.0 121.0Q466.5 126.0 466.5 130.0Q466.5 135.0 463.5 143.0Q460.5 151.0 456.5 157.5Q452.0 162.0 446.25 172.5Q440.5 183.0 436.5 192.0L435.0 194.0Q428.5 210.0 428.5 215.5Q428.5 219.5 430.0 224.0Q431.5 228.5 435.0 235.5V235.0Q440.0 243.0 446.25 252.5Q452.5 262.0 457.5 267.5Q465.5 274.5 466.75 280.25Q468.0 286.0 468.0 296.0Q468.0 300.0 477.0 304.0Q486.0 308.0 496.25 310.75Q506.5 313.5 510.0 313.5Q516.0 313.5 516.0 302.5Q516.0 296.5 513.75 294.25Q511.5 292.0 505.0 292.0Q503.0 292.5 500.25 292.5Q497.5 292.5 495.0 292.5Q488.5 292.5 488.5 287.5Q488.5 284.0 494.0 276.0Q499.0 268.0 499.0 258.5Q499.0 255.5 498.5 253.5Q497.0 248.0 497.0 246.0Q497.0 242.0 500.5 242.0Q501.5 242.0 503.0 242.0Q504.5 242.0 506.5 243.0H506.0Q508.5 243.5 509.5 243.75Q510.5 244.0 511.5 244.0Q516.0 244.0 516.0 237.5Q516.0 230.0 509.0 230.0Q504.0 230.0 497.5 234.5Q492.5 237.5 488.5 237.5Q483.0 237.5 483.0 231.0Q483.0 227.0 488.5 218.5Q494.5 209.0 494.5 203.0Q494.5 197.0 491.0 187.0Q489.5 181.0 488.25 176.25Q487.0 171.5 487.0 167.5Q487.0 163.0 488.5 159.25Q490.0 155.5 492.5 150.5Q494.5 146.0 495.75 142.75Q497.0 139.5 497.0 136.0Q497.0 133.5 495.0 130.5Q494.5 128.0 493.75 125.75Q493.0 123.5 493.0 122.0Q493.0 118.0 495.5 116.0Q498.0 114.0 501.0 114.0Q502.5 114.0 504.75 114.5Q507.0 115.0 509.5 117.5Q511.0 119.0 512.5 119.5Q514.0 120.0 514.5 120.0Q516.0 120.0 516.0 111.5ZM516.0 176.0Q516.0 167.5 510.5 167.5Q507.0 167.5 505.5 171.0Q504.5 173.0 504.5 176.0Q504.5 179.0 506.75 182.0Q509.0 185.0 513.0 185.0Q514.0 185.0 515.0 182.0Q516.0 179.0 516.0 176.0ZM514.0 153.5Q514.5 152.5 514.75 151.25Q515.0 150.0 515.0 147.5Q515.0 144.5 514.0 142.5Q514.0 139.5 513.75 138.25Q513.5 137.0 513.5 137.0Q511.5 140.5 510.25 142.75Q509.0 145.0 509.0 149.0Q509.0 154.0 511.5 154.0Q512.5 154.0 513.0 153.75Q513.5 153.5 514.0 153.5ZM534.5 62.0H535.0Q520.0 58.5 507.0 55.0Q494.0 51.5 490.5 50.5Q490.5 50.5 490.25 50.0Q490.0 49.5 489.5 49.5Q486.5 49.5 484.0 55.0Q481.5 60.5 478.0 73.5V72.5L474.5 96.0L485.5 94.0Q500.0 91.5 514.25 88.25Q528.5 85.0 542.5 82.0Q556.5 79.5 565.5 77.0Q574.5 74.5 577.5 73.5Q568.5 69.5 556.5 66.75Q544.5 64.0 534.5 62.0ZM550.5 146.0V146.5Q550.0 144.0 545.75 143.0Q541.5 142.0 537.5 142.0Q529.5 142.0 529.5 145.5Q529.5 149.0 541.5 149.0Q550.0 149.0 551.0 146.5ZM602.0 198.0V179.0Q602.0 169.0 601.25 165.0Q600.5 161.0 596.25 160.0Q592.0 159.0 581.5 159.0H571.0Q531.5 159.0 530.0 175.0V178.5Q530.0 186.0 540.5 190.0Q551.0 194.0 577.0 195.5ZM602.0 136.0 602.5 114.5Q603.0 112.0 603.0 109.5Q603.0 107.0 603.0 105.0Q603.0 99.5 602.25 95.0Q601.5 90.5 600.5 90.0Q600.0 90.0 598.0 89.75Q596.0 89.5 592.5 89.5Q585.0 89.5 573.5 90.5Q562.0 91.5 551.75 93.25Q541.5 95.0 536.0 97.5Q533.5 98.0 531.5 102.25Q529.5 106.5 529.5 111.5Q529.5 122.5 539.75 127.0Q550.0 131.5 577.0 133.0ZM806.0 83.0Q806.0 82.0 796.5 81.5Q787.0 81.0 775.0 81.0Q766.0 81.5 749.75 82.0Q733.5 82.5 714.75 82.75Q696.0 83.0 678.5 83.5L617.5 85.5V111.0Q617.5 123.5 618.25 129.0Q619.0 134.5 622.0 136.5Q625.0 138.5 632.0 140.5Q639.0 142.0 661.5 142.5Q684.0 143.0 709.0 143.5Q732.0 143.5 745.25 145.25Q758.5 147.0 759.0 150.0Q758.0 152.0 755.5 152.0Q752.5 153.0 740.75 154.0Q729.0 155.0 712.5 155.75Q696.0 156.5 678.5 156.5L617.5 158.0V199.5L645.0 203.0Q653.5 203.5 667.0 204.5Q680.5 205.5 694.5 205.5Q701.0 205.5 706.25 205.5Q711.5 205.5 716.5 205.0H733.5Q746.0 205.0 754.5 205.5Q763.0 206.0 765.0 207.5L765.5 208.5Q765.5 211.5 749.5 213.25Q733.5 215.0 711.5 215.0Q696.0 215.0 680.5 215.25Q665.0 215.5 653.0 216.0Q641.0 216.5 635.5 218.0Q622.5 219.5 620.0 223.25Q617.5 227.0 617.5 241.5V262.0H759.0L795.5 231.5Q810.0 218.5 820.75 208.5Q831.5 198.5 831.5 197.5Q831.5 194.5 834.75 189.25Q838.0 184.0 843.0 180.0Q849.5 172.0 849.5 171.5L842.0 170.0Q840.5 169.5 836.0 169.5Q823.5 169.5 807.0 175.0Q800.0 177.5 793.75 178.75Q787.5 180.0 783.5 180.0Q782.0 180.0 781.0 179.0Q780.5 178.0 790.5 166.25Q800.5 154.5 816.0 140.5Q831.0 125.5 841.25 113.25Q851.5 101.0 851.5 99.0Q851.5 95.0 837.5 95.0Q822.5 95.0 811.5 101.0Q805.5 104.0 801.5 104.0Q796.0 104.0 796.0 98.5Q796.0 96.0 796.75 94.5Q797.5 93.0 799.0 90.5Q801.5 88.0 803.75 85.75Q806.0 83.5 806.0 83.0ZM866.5 141.5Q863.0 134.5 859.0 130.25Q855.0 126.0 854.0 126.0Q852.0 126.0 846.75 130.5Q841.5 135.0 834.5 141.5Q829.5 147.0 826.25 150.5Q823.0 154.0 823.0 156.0L824.0 156.5Q830.0 158.5 841.75 159.0Q853.5 159.5 863.0 159.5Q869.0 159.5 873.25 159.5Q877.5 159.5 877.5 159.0Q877.5 158.0 874.75 153.0Q872.0 148.0 866.5 141.5ZM899.0 84.5Q898.0 82.0 893.5 76.25Q889.0 70.5 883.5 64.0Q878.0 57.5 873.5 53.0Q869.0 48.5 868.0 48.5Q867.0 48.5 860.5 54.75Q854.0 61.0 847.75 68.25Q841.5 75.5 840.5 78.5Q842.0 79.5 853.0 81.0Q864.0 82.5 876.75 83.25Q889.5 84.0 896.0 84.0Q898.5 84.0 899.0 84.5ZM292.5 54.5Q310.0 35.0 324.25 22.5Q338.5 10.0 341.0 10.0L342.0 10.5V11.5Q342.0 15.0 336.0 26.0Q330.0 37.0 320.5 52.0Q301.0 81.0 291.25 99.75Q281.5 118.5 281.5 131.5Q281.5 143.5 289.5 154.75Q297.5 166.0 313.0 182.0L344.0 211.0L366.5 187.5Q376.5 176.5 386.5 165.0Q396.5 153.5 401.5 147.5Q413.0 134.5 415.5 134.0Q417.5 134.5 417.5 137.5Q417.5 145.5 401.0 174.0Q395.5 185.5 391.0 195.25Q386.5 205.0 385.5 208.5Q389.0 207.5 397.0 199.75Q405.0 192.0 414.5 181.0Q424.0 170.0 433.25 158.0Q442.5 146.0 448.75 136.25Q455.0 126.5 455.5 122.0Q456.5 115.5 459.5 102.0Q462.5 88.5 465.0 77.0Q467.5 68.5 468.25 62.5Q469.0 56.5 469.0 53.0Q469.0 48.5 467.25 45.0Q465.5 41.5 462.5 38.0H463.0Q457.0 32.0 457.0 26.5Q457.0 20.0 463.5 20.0Q469.0 20.0 475.5 26.5Q481.0 31.0 499.5 37.75Q518.0 44.5 543.25 51.0Q568.5 57.5 594.5 62.0Q605.5 63.5 627.5 65.0Q649.5 66.5 676.75 67.25Q704.0 68.0 731.5 68.0H828.5Q831.0 65.5 836.75 59.25Q842.5 53.0 848.0 46.75Q853.5 40.5 856.0 38.0Q867.5 24.5 876.25 17.75Q885.0 11.0 887.5 11.0Q890.5 11.0 890.5 15.0Q890.5 18.5 886.5 25.0Q885.0 28.5 885.0 33.0Q885.0 36.5 886.5 41.25Q888.0 46.0 893.0 53.0Q904.5 72.0 925.25 86.75Q946.0 101.5 979.5 114.5Q993.5 121.0 1002.0 125.75Q1010.5 130.5 1010.5 133.0Q1010.5 135.0 1009.0 136.0H1008.0Q1003.0 136.0 987.75 130.75Q972.5 125.5 953.5 119.0Q925.5 107.5 908.75 101.75Q892.0 96.0 883.0 96.0Q878.0 96.0 872.25 100.0Q866.5 104.0 866.5 109.5Q866.5 112.5 868.25 116.5Q870.0 120.5 873.5 126.5Q882.0 144.5 902.75 160.0Q923.5 175.5 954.0 188.0Q973.0 196.0 983.5 202.25Q994.0 208.5 994.0 211.0Q994.0 215.0 989.0 215.0Q987.0 215.0 971.75 209.25Q956.5 203.5 937.5 195.5Q910.5 184.5 894.75 179.25Q879.0 174.0 870.5 174.0Q861.0 174.0 857.0 181.75Q853.0 189.5 853.0 198.0Q853.0 213.5 877.0 238.5Q887.0 247.5 894.5 253.0Q902.0 258.5 914.25 264.5Q926.5 270.5 949.5 281.5Q978.0 293.0 979.0 298.0Q979.0 299.5 975.5 299.5Q971.5 299.5 956.75 295.5Q942.0 291.5 919.5 283.0Q886.0 270.0 868.0 264.25Q850.0 258.5 840.5 258.5Q832.0 258.5 827.5 263.0H828.5Q827.0 265.0 826.25 266.75Q825.5 268.5 825.5 271.0Q825.5 275.5 828.5 284.5Q832.0 291.5 840.75 302.25Q849.5 313.0 861.0 324.25Q872.5 335.5 883.75 344.75Q895.0 354.0 903.0 358.0Q905.5 359.5 910.0 361.25Q914.5 363.0 919.0 365.5Q922.0 367.0 931.0 370.75Q940.0 374.5 950.25 379.5Q960.5 384.5 968.0 389.0Q975.5 393.5 975.5 396.0Q975.5 398.0 974.0 399.0Q971.0 399.0 952.75 392.75Q934.5 386.5 912.0 376.0Q889.0 364.5 871.0 359.5Q853.0 354.5 834.0 353.25Q815.0 352.0 788.0 352.0H716.5Q708.0 353.0 699.25 353.25Q690.5 353.5 680.5 353.5Q638.0 354.0 599.75 356.75Q561.5 359.5 531.0 364.5Q500.5 369.5 481.5 376.0Q462.5 382.5 458.0 390.0V388.5Q457.5 390.5 454.0 393.0Q450.5 395.5 446.5 395.5Q440.5 395.5 440.5 390.5Q440.5 388.5 441.0 387.5V388.0L442.0 384.5Q443.5 380.0 446.0 371.75Q448.5 363.5 451.5 354.5Q454.0 345.0 455.25 338.75Q456.5 332.5 456.5 328.0Q456.5 324.0 454.75 320.0Q453.0 316.0 450.5 310.5V311.0Q445.0 301.5 445.0 296.0Q445.0 291.5 447.5 288.5Q448.5 287.0 449.75 285.25Q451.0 283.5 451.0 282.0Q451.0 276.5 443.75 268.75Q436.5 261.0 426.25 253.25Q416.0 245.5 406.0 240.25Q396.0 235.0 390.5 235.0Q385.5 235.0 385.5 239.0Q385.5 243.0 390.0 250.75Q394.5 258.5 404.5 269.0Q421.0 287.5 421.0 292.0Q421.0 294.5 418.0 294.5Q412.0 294.5 390.0 273.5Q377.5 262.0 367.0 253.75Q356.5 245.5 352.5 245.5Q346.0 245.5 340.0 255.75Q334.0 266.0 330.5 280.25Q327.0 294.5 327.0 307.0Q327.0 323.5 333.5 330.0Q337.5 332.5 340.0 336.5Q342.5 340.5 342.5 342.0Q342.5 344.5 355.75 358.5Q369.0 372.5 387.5 390.0Q405.0 407.0 417.25 420.25Q429.5 433.5 429.5 437.5L429.0 439.5H427.5Q425.5 439.5 412.5 429.75Q399.5 420.0 383.0 404.0Q340.5 364.0 312.75 342.0Q285.0 320.0 274.0 320.0Q269.5 320.0 268.5 323.0Q265.5 330.0 189.0 334.5Q167.5 335.0 146.0 337.0Q124.5 339.0 108.25 341.5Q92.0 344.0 85.0 346.0Q73.0 349.0 64.0 352.5Q55.0 356.0 46.0 361.5Q37.0 367.0 23.5 376.5Q21.5 378.0 19.75 379.0Q18.0 380.0 16.5 380.0Q10.0 380.0 10.0 372.0Q10.0 368.5 13.5 366.0H13.0Q16.5 362.0 19.25 352.0Q22.0 342.0 23.5 330.5Q25.0 319.0 25.0 310.0Q25.0 300.5 23.5 298.5Q20.5 293.0 20.5 288.0Q20.5 283.0 23.0 278.75Q25.5 274.5 29.0 274.5Q29.5 274.5 30.0 275.0Q30.5 275.5 32.0 276.0Q36.5 276.0 38.75 269.25Q41.0 262.5 42.0 254.5Q43.0 246.5 43.0 243.0Q43.0 240.5 43.0 238.0Q43.0 235.5 42.5 233.5Q42.0 231.0 41.75 229.0Q41.5 227.0 41.5 224.5Q41.5 210.0 45.0 198.5Q46.5 191.0 46.5 181.5Q46.5 170.0 44.25 160.75Q42.0 151.5 39.0 151.0H38.5Q33.0 151.0 33.0 147.0Q33.0 146.5 33.25 146.0Q33.5 145.5 33.5 145.5Q37.5 129.0 39.5 112.25Q41.5 95.5 41.5 85.5Q41.5 76.0 40.5 74.5Q38.5 69.0 38.5 63.5Q38.5 58.0 40.75 54.25Q43.0 50.5 48.0 50.5Q49.5 50.5 51.25 53.0Q53.0 55.5 53.0 59.5Q53.0 66.5 64.75 73.0Q76.5 79.5 96.25 84.5Q116.0 89.5 139.5 92.75Q163.0 96.0 186.0 96.0H194.0Q200.5 95.5 207.5 95.25Q214.5 95.0 220.5 95.0Q228.0 95.0 233.75 95.5Q239.5 96.0 241.5 97.5L242.0 98.0Q246.5 98.0 259.75 86.25Q273.0 74.5 292.5 54.5Z" fill="black" /></svg>