<svg xmlns="http://www.w3.org/2000/svg" width="763.0" height="448.5" viewBox="0 0 763.0 448.5"><path d="M77.0 293.0Q72.0 291.0 63.75 287.25Q55.5 283.5 50.0 281.5L39.5 274.5L38.0 299.5Q38.0 302.5 37.75 305.5Q37.5 308.5 37.5 311.0Q37.5 314.5 37.0 317.5Q36.5 320.5 36.5 323.0Q36.5 323.5 36.5 323.75Q36.5 324.0 36.5 324.0Q38.0 323.5 41.5 322.25Q45.0 321.0 49.5 319.5Q56.0 317.0 64.0 314.75Q72.0 312.5 77.5 311.5Q88.5 310.0 88.5 303.0Q88.5 297.0 77.0 293.0ZM110.5 308.5Q111.5 308.5 114.5 306.25Q117.5 304.0 117.5 303.0H103.0Q103.0 303.0 103.75 303.5Q104.5 304.0 105.5 305.0Q108.5 308.5 110.5 308.5ZM144.5 171.5Q142.5 158.0 135.5 158.0Q130.5 158.0 126.5 164.0Q123.5 167.5 120.0 179.0Q116.5 190.5 113.5 205.75Q110.5 221.0 108.5 236.25Q106.5 251.5 106.5 263.5Q106.5 275.5 107.0 281.0Q107.5 286.5 110.75 288.25Q114.0 290.0 121.0 292.0H124.5Q136.5 295.0 143.0 295.0Q148.5 295.0 150.75 291.0Q153.0 287.0 153.0 276.0Q153.0 265.5 151.5 245.5V242.0Q150.0 219.0 147.75 198.5Q145.5 178.0 144.5 171.5ZM305.0 216.0Q307.0 205.0 314.0 192.75Q321.0 180.5 327.5 171.0Q321.5 175.5 310.75 184.25Q300.0 193.0 289.0 202.0Q278.0 211.0 270.0 217.5Q262.0 224.0 262.0 224.5Q263.0 224.5 264.75 224.75Q266.5 225.0 268.5 225.5Q272.0 226.0 275.75 226.5Q279.5 227.0 284.0 227.5Q288.0 228.0 290.5 228.5Q293.0 229.0 295.0 229.0Q300.5 229.0 301.75 226.25Q303.0 223.5 305.0 216.0ZM403.5 231.0H404.5Q401.0 227.5 396.0 220.0Q391.0 212.5 386.5 204.5L378.0 188.5L354.0 207.0L378.5 220.5Q390.0 227.5 397.25 231.0Q404.5 234.5 407.5 235.5Q407.0 234.5 405.75 233.75Q404.5 233.0 403.5 231.0ZM360.5 227.5Q348.0 221.5 338.5 218.75Q329.0 216.0 323.0 216.0Q316.5 216.0 316.5 219.5Q316.5 223.0 320.0 226.5Q321.0 230.0 321.5 232.75Q322.0 235.5 322.0 236.5Q322.0 239.5 321.5 240.5Q322.0 242.5 327.75 249.25Q333.5 256.0 342.25 264.75Q351.0 273.5 360.0 282.0Q369.0 290.5 376.0 296.25Q383.0 302.0 385.0 302.5Q386.0 302.5 392.0 306.25Q398.0 310.0 403.0 316.0Q410.0 322.5 414.0 325.0Q418.0 327.5 425.5 327.5Q428.0 327.5 431.75 327.25Q435.5 327.0 440.5 326.5Q451.0 324.5 462.5 321.5Q474.0 318.5 479.0 316.5L490.5 312.5Q487.5 310.0 478.0 303.25Q468.5 296.5 457.5 288.25Q446.5 280.0 438.0 274.25Q429.5 268.5 428.5 268.5Q427.5 268.5 426.75 272.25Q426.0 276.0 426.0 281.5Q426.0 288.5 424.25 293.25Q422.5 298.0 420.5 298.0Q418.0 298.0 416.25 292.0Q414.5 286.0 414.5 277.0Q414.5 267.0 410.25 259.75Q406.0 252.5 394.5 245.25Q383.0 238.0 360.5 227.5ZM501.0 327.5H499.0Q495.5 327.5 486.75 329.25Q478.0 331.0 462.0 334.5Q452.0 337.0 441.75 338.5Q431.5 340.0 425.0 340.0Q420.0 340.0 419.0 339.5H412.0Q409.0 339.5 409.0 342.5Q409.0 344.5 409.25 347.25Q409.5 350.0 409.5 354.5V353.5Q410.5 361.0 412.0 370.0Q413.5 379.0 413.5 384.5V395.0Q417.5 391.5 421.75 387.25Q426.0 383.0 429.5 379.5Q437.0 373.0 450.0 362.5Q463.0 352.0 475.0 345.0Q486.0 338.0 493.5 332.75Q501.0 327.5 501.0 327.5ZM497.0 225.0Q494.5 224.0 490.25 221.5Q486.0 219.0 480.5 216.0L459.0 206.5V219.0Q459.0 230.5 466.5 230.5Q471.0 230.5 480.0 229.0H479.0Q484.5 227.5 489.25 226.5Q494.0 225.5 497.0 225.0ZM500.5 224.5H499.5Q500.0 224.5 500.25 224.5Q500.5 224.5 500.5 224.5ZM685.5 193.0Q687.5 191.0 689.0 189.0Q690.5 187.0 691.5 185.5Q685.5 189.0 675.5 195.75Q665.5 202.5 655.25 210.25Q645.0 218.0 637.75 224.0Q630.5 230.0 630.5 231.5Q630.5 235.0 653.0 236.0Q660.0 236.0 663.5 233.0Q667.0 230.0 670.0 223.0Q672.5 217.0 677.25 207.75Q682.0 198.5 685.5 193.0ZM93.0 91.0 88.5 90.0Q77.5 86.0 67.0 81.5Q56.5 77.0 54.0 75.0Q52.0 73.0 50.0 73.0Q48.5 73.0 48.5 90.0Q48.5 110.0 52.0 110.0Q53.0 110.0 53.75 109.25Q54.5 108.5 56.0 108.0Q57.5 107.5 60.5 106.75Q63.5 106.0 67.5 105.5Q70.0 104.5 72.75 103.75Q75.5 103.0 77.5 102.5Q94.5 100.0 101.75 98.25Q109.0 96.5 109.0 96.0Q109.0 96.0 104.75 94.75Q100.5 93.5 93.0 91.0ZM112.0 163.0Q112.5 161.5 112.75 160.5Q113.0 159.5 113.0 159.0Q113.0 158.0 105.5 158.0Q100.0 158.0 98.25 160.0Q96.5 162.0 96.5 170.5Q96.5 181.0 98.5 187.5Q100.5 194.0 102.0 194.0Q104.0 194.0 105.5 186.0Q106.5 180.5 108.25 173.75Q110.0 167.0 112.0 163.0ZM161.0 198.0 168.0 179.0Q170.0 171.0 171.0 166.75Q172.0 162.5 172.0 159.5Q172.0 157.0 164.5 156.5Q163.0 156.0 162.0 156.0Q161.0 156.0 160.0 156.0Q155.5 156.0 155.5 162.0Q155.5 168.5 158.5 186.0ZM237.5 114.0Q234.0 104.5 226.0 104.5Q219.0 104.5 219.0 107.0Q219.0 109.0 226.5 118.0Q232.5 123.5 237.5 123.5Q238.5 123.5 238.5 121.5Q238.5 120.5 238.5 118.5Q238.5 116.5 237.5 114.0ZM257.0 143.0Q247.0 143.0 238.0 139.5Q235.0 138.5 233.5 138.5Q233.0 138.5 233.0 141.5Q233.0 142.5 233.0 145.25Q233.0 148.0 233.5 151.0V150.5Q234.5 157.0 236.25 167.75Q238.0 178.5 238.5 188.0L242.5 210.5L249.0 186.5L262.0 148.5Q262.5 147.5 262.75 146.75Q263.0 146.0 263.0 144.5Q263.0 143.0 257.0 143.0ZM273.0 60.5H265.0Q260.0 60.5 253.5 59.5Q247.0 58.5 242.0 58.0Q240.0 57.5 238.75 56.5Q237.5 55.5 236.5 55.5H235.0Q235.0 58.5 238.0 67.0Q241.0 75.5 244.25 83.0Q247.5 90.5 248.5 90.5Q249.5 90.5 250.5 88.0Q253.0 84.0 257.5 78.5Q262.0 73.0 265.5 68.5ZM431.0 139.0Q432.0 138.5 432.0 137.0Q432.0 136.0 430.75 133.75Q429.5 131.5 427.5 131.0Q427.0 131.0 426.5 130.75Q426.0 130.5 425.5 130.5Q421.5 130.5 421.5 141.5Q421.5 146.5 422.5 150.25Q423.5 154.0 425.0 154.0Q429.0 154.0 429.0 151.0Q429.0 147.0 431.0 139.0ZM512.5 110.5Q510.5 108.0 501.25 98.75Q492.0 89.5 480.5 78.5L446.0 47.5L422.5 76.0L448.0 84.0H447.5Q459.0 87.0 473.0 92.5Q487.0 98.0 495.0 102.0Q500.5 105.0 505.5 107.25Q510.5 109.5 512.5 110.5ZM432.0 29.0Q432.0 26.5 431.5 24.5Q431.0 22.5 431.0 21.5Q431.0 10.0 436.5 10.0Q441.0 10.0 452.5 27.5Q466.5 50.5 512.25 90.5Q558.0 130.5 627.0 179.5L652.5 197.5L688.5 171.5Q703.5 160.0 717.25 149.25Q731.0 138.5 734.5 135.0Q738.5 131.0 742.75 128.5Q747.0 126.0 750.5 126.0H751.0Q751.5 126.5 752.25 127.0Q753.0 127.5 753.0 128.5Q753.0 131.0 748.0 138.5Q743.0 146.0 735.5 155.0Q681.0 214.5 681.0 230.5Q681.0 235.0 684.5 235.0Q689.5 236.5 689.5 242.0Q689.5 244.0 687.0 246.5H687.5L686.5 247.5Q686.5 250.5 692.5 256.25Q698.5 262.0 712.0 272.5Q731.0 286.0 742.0 296.75Q753.0 307.5 753.0 312.5Q753.0 317.0 747.0 317.0Q740.5 317.0 737.5 309.0Q736.5 306.5 728.5 300.25Q720.5 294.0 709.0 286.25Q697.5 278.5 685.75 271.5Q674.0 264.5 665.0 259.75Q656.0 255.0 653.0 255.0Q649.5 255.0 633.25 263.5Q617.0 272.0 593.75 285.5Q570.5 299.0 544.75 315.0Q519.0 331.0 496.0 346.0Q485.5 353.0 472.0 363.5Q458.5 374.0 446.25 385.0Q434.0 396.0 425.5 405.0Q411.5 419.0 400.75 428.75Q390.0 438.5 389.0 438.5Q386.5 438.5 386.5 435.0Q386.5 431.5 392.5 420.5V421.0Q395.0 416.0 397.5 406.5Q400.0 397.0 400.0 390.5V386.5Q400.0 373.0 397.0 357.75Q394.0 342.5 390.0 331.25Q386.0 320.0 382.0 319.0Q378.5 317.0 372.0 311.25Q365.5 305.5 359.0 298.5Q352.5 290.0 341.25 280.0Q330.0 270.0 316.75 260.75Q303.5 251.5 290.25 245.75Q277.0 240.0 265.5 240.0Q254.0 240.0 250.5 247.25Q247.0 254.5 247.0 275.0Q247.0 292.0 248.25 295.75Q249.5 299.5 257.5 299.5Q263.5 299.5 267.5 301.25Q271.5 303.0 271.5 306.0Q271.5 308.0 267.5 310.5Q263.5 313.0 257.5 313.0Q252.5 313.0 250.25 314.5Q248.0 316.0 247.5 323.25Q247.0 330.5 247.0 347.0Q247.0 363.0 245.25 374.25Q243.5 385.5 240.0 385.5Q238.0 385.5 236.25 374.25Q234.5 363.0 234.5 347.0V311.5L166.0 315.0L165.5 332.5Q164.0 355.5 158.5 355.5Q153.0 355.5 153.0 335.0Q153.0 323.0 151.0 320.0Q149.0 317.0 138.5 317.0Q132.0 317.0 123.75 318.25Q115.5 319.5 111.0 320.5Q102.5 323.0 102.5 328.5Q102.5 332.5 104.0 337.0Q104.5 340.5 105.0 342.75Q105.5 345.0 105.5 347.5Q105.5 356.0 101.0 356.0Q98.5 356.0 96.25 350.75Q94.0 345.5 93.5 338.0Q93.0 331.0 91.25 328.5Q89.5 326.0 85.5 326.0Q75.5 326.0 62.0 330.25Q48.5 334.5 40.0 339.0Q29.5 344.0 21.25 347.5Q13.0 351.0 12.0 351.0Q10.0 351.0 10.0 348.5Q10.0 343.5 17.5 330.0Q21.5 322.0 23.5 313.25Q25.5 304.5 25.5 292.5Q25.5 283.0 24.25 270.75Q23.0 258.5 20.0 243.5V244.0V243.5Q20.0 240.5 20.75 237.0Q21.5 233.5 24.5 231.5Q25.0 231.5 25.5 231.25Q26.0 231.0 26.0 231.0Q28.5 231.0 30.25 234.25Q32.0 237.5 32.5 242.0V241.0Q37.0 261.5 74.5 277.0L90.5 284.0L88.0 227.0Q87.0 202.0 84.5 180.75Q82.0 159.5 80.5 152.5Q78.5 148.0 77.75 143.75Q77.0 139.5 77.0 137.0Q77.0 131.0 81.0 131.0Q82.0 131.0 85.0 132.5Q88.0 134.0 92.5 136.5Q97.0 139.5 104.5 141.25Q112.0 143.0 118.5 143.0Q124.5 143.0 129.0 141.75Q133.5 140.5 134.0 138.5V137.0Q134.0 133.0 136.25 131.75Q138.5 130.5 141.0 130.0Q144.0 130.5 148.25 131.75Q152.5 133.0 154.5 137.0Q157.0 140.5 164.25 142.0Q171.5 143.5 181.0 143.5Q191.5 143.5 197.5 146.0Q203.5 148.5 203.5 151.5Q203.5 153.5 201.0 155.75Q198.5 158.0 193.0 159.0Q187.0 159.5 182.5 170.25Q178.0 181.0 174.5 197.0Q171.0 213.0 168.75 230.0Q166.5 247.0 165.5 260.25Q164.5 273.5 164.5 278.0V299.5H199.5Q218.5 299.5 226.5 298.5Q234.5 297.5 234.5 295.0Q234.5 284.5 233.25 267.25Q232.0 250.0 230.0 230.0Q228.0 210.0 225.75 191.25Q223.5 172.5 221.5 158.75Q219.5 145.0 218.0 140.0Q215.0 132.5 212.75 123.5Q210.5 114.5 210.5 111.5Q210.5 107.5 206.25 106.0Q202.0 104.5 189.0 104.5Q165.5 104.5 139.25 107.5Q113.0 110.5 90.25 115.5Q67.5 120.5 54.5 126.0Q31.0 137.0 24.0 137.0Q20.0 137.0 20.0 133.5Q20.0 129.5 25.5 122.5Q31.0 116.5 33.75 106.0Q36.5 95.5 36.5 83.0Q36.5 75.5 35.25 67.5Q34.0 59.5 32.0 52.0Q30.5 48.0 30.0 45.0Q29.5 42.0 29.5 39.5Q29.5 29.5 34.5 29.5Q39.5 29.5 43.0 41.5Q48.5 55.5 63.5 64.75Q78.5 74.0 98.5 79.25Q118.5 84.5 140.0 87.0Q161.5 89.5 180.25 90.25Q199.0 91.0 211.0 91.0Q218.0 91.0 221.5 90.75Q225.0 90.5 227.0 90.0Q232.0 88.0 232.0 83.0Q232.0 78.0 228.25 71.5Q224.5 65.0 218.5 58.5Q206.0 49.0 206.0 42.5Q206.0 37.5 212.5 37.5Q216.5 37.5 221.0 38.5Q225.5 39.5 232.5 42.0Q247.0 45.0 261.75 46.0Q276.5 47.0 290.5 47.0Q295.0 46.5 299.0 46.5Q303.0 46.5 306.0 46.5Q316.5 46.5 320.75 48.0Q325.0 49.5 325.0 53.5Q325.0 56.5 320.0 58.5Q315.0 60.5 308.0 60.5Q295.0 60.5 282.25 71.25Q269.5 82.0 261.25 97.0Q253.0 112.0 253.0 125.0Q253.0 130.5 262.0 130.5Q264.5 130.5 267.0 130.25Q269.5 130.0 273.0 130.0Q275.5 130.0 278.0 129.25Q280.5 128.5 282.0 128.5Q298.5 128.5 298.5 134.0Q298.5 138.5 289.0 142.0Q283.5 144.0 277.75 152.25Q272.0 160.5 267.5 171.0Q263.0 181.5 260.25 191.25Q257.5 201.0 257.5 206.5Q260.0 206.5 271.0 198.75Q282.0 191.0 297.25 178.75Q312.5 166.5 328.0 153.0Q343.5 139.5 355.25 128.25Q367.0 117.0 370.5 111.0Q376.5 102.5 381.0 102.5Q382.0 102.5 384.0 105.5Q384.0 106.0 384.25 106.25Q384.5 106.5 384.5 107.5Q384.5 111.0 381.0 117.25Q377.5 123.5 372.0 130.5Q363.0 142.5 352.25 157.5Q341.5 172.5 334.0 185.0Q326.5 197.5 325.5 201.5Q338.5 201.0 351.75 191.75Q365.0 182.5 373.0 172.5Q386.5 154.5 392.5 154.5Q396.0 154.5 396.0 162.5Q396.0 164.0 395.5 166.75Q395.0 169.5 394.5 173.0Q394.0 176.0 393.75 178.25Q393.5 180.5 393.5 183.0Q393.5 192.5 402.0 206.5L412.0 222.0L412.5 194.0Q412.5 180.0 411.75 166.0Q411.0 152.0 407.0 138.5Q405.5 132.0 404.5 126.5Q403.5 121.0 403.5 117.5Q403.5 106.5 409.5 106.5Q413.0 106.5 419.0 114.0Q425.0 120.0 435.0 120.0Q437.0 120.0 438.5 119.75Q440.0 119.5 442.0 119.5Q448.0 118.0 451.5 118.0Q458.5 118.0 458.5 122.5Q458.5 124.5 456.75 127.75Q455.0 131.0 450.0 134.0Q445.0 139.0 441.25 151.0Q437.5 163.0 435.0 177.5Q432.5 192.0 431.25 205.25Q430.0 218.5 430.0 225.5Q430.0 236.0 433.75 244.25Q437.5 252.5 448.5 262.5Q459.5 272.5 480.5 289.0L508.5 310.5Q521.5 304.0 534.25 297.25Q547.0 290.5 560.5 284.0Q574.5 277.5 587.75 270.5Q601.0 263.5 610.75 258.25Q620.5 253.0 623.5 251.0V251.5L630.5 245.5H609.5Q586.0 245.5 586.0 238.0V236.0Q585.5 235.0 579.5 235.0Q573.5 235.0 564.0 235.0Q552.0 235.0 536.75 236.0Q521.5 237.0 507.0 238.5Q492.5 240.0 481.5 242.25Q470.5 244.5 466.0 247.0Q451.5 254.0 446.0 254.0Q441.5 254.0 441.5 248.5Q441.5 245.0 445.0 238.0Q447.0 230.5 447.0 220.0Q447.0 216.0 446.5 210.25Q446.0 204.5 445.0 198.0Q443.0 190.5 442.25 185.0Q441.5 179.5 441.5 177.0Q441.5 168.5 446.0 168.5Q448.5 168.5 452.0 172.25Q455.5 176.0 457.5 180.0Q463.0 192.0 479.0 201.5Q495.0 211.0 518.75 216.5Q542.5 222.0 570.5 222.0Q581.5 222.0 590.75 223.5Q600.0 225.0 602.0 226.5Q604.5 226.5 609.75 224.0Q615.0 221.5 621.5 216.5L640.5 206.0L613.0 186.0Q601.5 178.0 582.75 166.25Q564.0 154.5 541.75 141.5Q519.5 128.5 496.75 117.0Q474.0 105.5 453.75 98.5Q433.5 91.5 419.0 91.5Q409.0 91.5 400.5 95.0Q396.5 96.0 392.75 97.25Q389.0 98.5 386.0 98.5Q383.5 98.5 381.0 96.0H382.0Q380.5 95.0 380.5 92.5Q380.5 89.5 385.0 86.5Q388.5 86.0 396.5 79.5Q404.5 73.0 413.5 65.5Q425.0 55.5 428.75 50.0Q432.5 44.5 432.5 36.5Q432.5 35.5 432.5 33.25Q432.5 31.0 432.0 29.0Z" fill="black" /></svg>