<svg xmlns="http://www.w3.org/2000/svg" width="538.0" height="452.5" viewBox="0 0 538.0 452.5"><path d="M66.5 358.5 58.0 356.5Q52.5 355.5 46.25 353.0Q40.0 350.5 34.5 348.5Q29.5 346.0 26.0 346.0H24.0Q23.5 347.5 23.0 352.0Q22.5 356.5 22.5 362.0Q22.5 369.5 23.25 376.5Q24.0 383.5 26.0 383.5Q27.5 383.5 34.5 379.25Q41.5 375.0 50.0 369.0ZM60.0 205.5H59.5Q59.5 205.5 55.0 204.5Q51.5 203.5 47.25 202.0Q43.0 200.5 39.5 199.5L27.0 195.5V210.0Q27.0 215.5 27.0 220.5Q27.0 225.5 27.5 225.5Q29.0 225.5 36.25 221.25Q43.5 217.0 51.0 212.25Q58.5 207.5 60.0 205.5ZM53.0 280.5Q51.0 280.5 48.25 280.0Q45.5 279.5 43.0 279.0Q37.5 276.5 33.0 275.5Q30.0 274.5 29.0 274.5Q27.5 274.5 27.25 277.5Q27.0 280.5 27.0 288.5V304.0Q31.5 301.5 36.0 299.5Q40.5 297.5 44.0 295.5Q62.5 285.5 62.5 284.0Q62.5 282.0 53.0 280.5ZM248.0 286.0H184.5Q167.0 286.0 150.0 285.75Q133.0 285.5 120.75 285.0Q108.5 284.5 104.5 284.5Q102.5 284.0 100.75 284.0Q99.0 284.0 98.0 284.0Q91.5 284.0 80.0 288.5Q68.5 293.0 56.25 300.0Q44.0 307.0 35.5 314.0Q27.0 321.0 26.5 326.0Q27.5 331.5 41.5 337.5Q46.5 340.5 56.5 342.5Q66.5 344.5 88.75 345.5Q111.0 346.5 151.5 347.5L248.0 349.0ZM151.5 272.5 248.0 275.5V207.5H84.5L56.0 223.5Q39.5 233.0 34.25 238.25Q29.0 243.5 29.0 249.0Q29.0 256.0 33.25 260.25Q37.5 264.5 50.25 267.0Q63.0 269.5 87.25 270.75Q111.5 272.0 151.5 272.5ZM302.5 169.0Q300.5 163.0 299.5 159.0Q298.5 155.0 298.0 155.0Q296.0 155.0 290.0 161.5Q284.0 168.0 277.5 178.0L259.0 201.0V280.0Q259.0 313.5 259.25 331.5Q259.5 349.5 259.5 349.5Q262.0 349.0 269.0 347.75Q276.0 346.5 287.0 343.0L305.5 337.5L306.0 264.5Q306.0 243.0 305.25 222.5Q304.5 202.0 304.0 187.5Q303.5 173.0 302.5 169.0ZM68.0 122.5Q68.0 121.5 61.5 119.25Q55.0 117.0 46.5 114.5L27.0 108.0V127.5Q27.0 135.0 27.25 141.25Q27.5 147.5 28.0 147.5Q29.5 147.5 35.75 144.0Q42.0 140.5 49.5 136.0Q57.0 131.5 62.5 127.5Q68.0 123.5 68.0 122.5ZM178.0 123.5Q159.0 123.5 139.5 122.75Q120.0 122.0 112.0 121.5Q109.0 121.0 106.5 120.75Q104.0 120.5 101.5 120.5Q95.0 120.5 83.0 126.75Q71.0 133.0 58.0 142.0Q45.0 151.0 36.0 159.75Q27.0 168.5 27.0 174.0Q27.0 174.5 27.25 175.25Q27.5 176.0 27.5 176.5Q28.5 183.0 39.25 187.0Q50.0 191.0 77.25 192.5Q104.5 194.0 154.5 194.0L248.0 195.0V183.5Q248.0 174.5 245.25 164.5Q242.5 154.5 238.25 147.25Q234.0 140.0 230.0 138.5Q226.5 137.5 224.25 134.25Q222.0 131.0 222.0 128.0Q222.0 125.5 212.75 124.5Q203.5 123.5 178.0 123.5ZM287.5 142.0Q287.5 141.5 276.5 140.75Q265.5 140.0 256.5 140.0H248.5Q249.5 142.5 250.75 149.0Q252.0 155.5 254.0 163.0L260.0 180.0L277.5 157.0Q281.5 150.5 284.5 146.25Q287.5 142.0 287.5 142.0ZM283.5 49.0Q283.5 45.0 282.5 45.0Q277.0 45.0 262.5 69.5L247.5 91.5L279.5 93.0H316.5Q316.5 92.5 312.25 87.5Q308.0 82.5 301.0 75.5Q293.0 67.0 288.25 59.5Q283.5 52.0 283.5 49.0ZM362.0 121.5 338.0 105.5H289.0Q267.5 105.5 254.5 106.25Q241.5 107.0 241.5 108.0Q241.5 109.0 244.0 110.0Q246.5 111.0 249.5 111.0Q259.0 111.0 259.0 116.5Q259.0 118.5 254.75 121.0Q250.5 123.5 243.5 124.0Q243.0 124.0 242.5 124.0Q242.0 124.0 241.5 124.0Q246.0 125.5 262.5 126.5Q279.0 127.5 298.0 128.0Q316.0 128.0 333.0 129.75Q350.0 131.5 355.5 133.0Q359.5 135.0 364.25 136.0Q369.0 137.0 372.5 137.5Q373.5 137.5 374.75 137.25Q376.0 137.0 376.5 137.0Q378.5 136.5 379.25 136.5Q380.0 136.5 380.0 136.5Q380.0 136.0 362.0 121.5ZM331.5 142.0Q331.5 141.5 329.0 141.0Q326.5 140.5 323.5 140.5Q320.0 140.5 315.75 141.5Q311.5 142.5 311.0 144.5Q310.5 145.0 310.25 146.25Q310.0 147.5 310.0 148.5Q310.0 154.5 312.0 161.25Q314.0 168.0 314.5 168.0Q316.5 168.0 320.5 162.5Q324.5 157.0 328.0 150.75Q331.5 144.5 331.5 142.0ZM356.5 157.0Q353.5 152.0 350.25 148.75Q347.0 145.5 346.0 145.5Q345.0 145.5 340.25 152.0Q335.5 158.5 330.5 166.5Q326.0 175.0 323.25 181.5Q320.5 188.0 319.25 196.75Q318.0 205.5 317.25 221.0Q316.5 236.5 315.5 263.0Q315.0 281.0 314.75 298.75Q314.5 316.5 314.5 335.5Q315.5 335.5 323.0 331.0Q330.5 326.5 340.0 320.5L364.0 307.0V237.5Q364.0 207.5 363.5 191.75Q363.0 176.0 361.5 168.5Q360.0 161.0 356.5 157.0ZM390.5 153.5H390.0V153.0Q389.5 152.0 386.0 151.25Q382.5 150.5 378.5 150.5Q371.0 150.5 371.0 153.0Q371.0 153.5 371.25 155.25Q371.5 157.0 372.0 159.5Q375.5 171.0 375.5 173.0H376.0Q378.0 173.0 381.25 169.25Q384.5 165.5 387.5 160.75Q390.5 156.0 390.5 153.5ZM458.0 185.5Q438.0 172.5 422.5 163.75Q407.0 155.0 406.0 155.0Q405.0 155.0 400.75 160.5Q396.5 166.0 391.5 175.0Q385.5 184.5 382.5 191.75Q379.5 199.0 378.75 211.0Q378.0 223.0 377.5 247.0Q377.5 296.5 380.0 297.0Q382.5 296.0 392.75 290.25Q403.0 284.5 417.5 276.0Q432.0 267.5 447.75 258.0Q463.5 248.5 477.0 240.0Q490.5 231.5 499.0 225.75Q507.5 220.0 507.5 219.0Q507.5 218.5 492.5 208.75Q477.5 199.0 458.0 185.5ZM296.0 369.0 310.0 352.5 273.5 362.0 245.5 367.5 258.0 396.0Q258.5 398.5 259.0 400.25Q259.5 402.0 260.0 404.5Q262.0 409.5 262.75 411.75Q263.5 414.0 263.5 414.0Q264.5 414.0 266.0 411.0L267.5 408.5Q270.5 403.0 278.5 391.5Q286.5 380.0 296.5 369.0ZM279.0 18.5Q279.0 10.0 284.5 10.0Q287.0 10.0 288.25 14.75Q289.5 19.5 289.5 25.0Q289.5 36.5 295.25 47.5Q301.0 58.5 316.75 72.75Q332.5 87.0 362.75 108.25Q393.0 129.5 442.5 161.5Q462.5 174.5 480.25 185.75Q498.0 197.0 510.25 204.0Q522.5 211.0 525.0 212.0H524.5Q528.0 212.5 528.0 215.5Q528.0 219.5 512.5 230.0Q497.0 240.5 457.0 265.0Q435.0 278.0 416.75 290.0Q398.5 302.0 387.75 309.75Q377.0 317.5 376.0 319.0Q373.0 325.0 368.5 325.0Q362.0 325.0 357.0 327.0Q352.0 329.0 346.0 332.5Q340.5 335.5 331.25 345.5Q322.0 355.5 311.5 368.5Q301.0 381.5 291.5 395.0Q282.0 408.5 276.0 419.0Q270.0 429.5 270.0 433.5Q270.0 442.5 265.0 442.5Q259.5 442.5 254.5 426.0Q252.5 417.0 247.0 404.5Q241.5 392.0 237.5 382.5L227.0 363.0L89.5 358.5Q84.0 362.0 74.25 368.25Q64.5 374.5 53.75 381.75Q43.0 389.0 34.75 396.25Q26.5 403.5 23.5 408.5Q22.0 418.0 18.0 418.0Q12.0 418.0 10.5 368.5Q10.0 359.5 10.0 351.5Q10.0 343.5 10.0 337.0Q10.0 319.0 11.0 316.0Q12.0 314.0 12.75 297.75Q13.5 281.5 13.75 255.5Q14.0 229.5 14.0 199.5Q14.0 168.0 14.75 141.5Q15.5 115.0 16.5 98.5Q17.5 82.0 18.0 81.0Q22.0 81.0 23.5 81.75Q25.0 82.5 27.0 87.5Q31.5 95.5 41.5 100.0Q51.5 104.5 74.0 106.5Q96.5 108.5 138.5 109.5L220.5 112.5Q223.0 108.5 229.75 98.5Q236.5 88.5 245.0 76.0Q253.5 63.5 261.25 51.0Q269.0 38.5 274.0 29.5Q279.0 20.5 279.0 18.5Z" fill="black" /></svg>