<svg xmlns="http://www.w3.org/2000/svg" width="456.0" height="382.5" viewBox="0 0 456.0 382.5"><path d="M87.5 295.0Q75.0 291.0 63.5 287.0Q52.0 283.0 45.0 280.0Q42.5 279.5 40.5 278.75Q38.5 278.0 37.5 278.0Q37.0 277.0 34.5 277.0Q32.0 277.0 31.5 282.5Q31.0 288.0 31.0 302.5Q31.0 330.0 35.5 330.0Q38.0 330.0 48.25 327.25Q58.5 324.5 69.5 321.0Q83.0 317.0 96.25 313.25Q109.5 309.5 115.0 308.5Q121.0 307.0 121.0 307.5Q121.0 306.5 113.5 303.75Q106.0 301.0 87.5 295.0ZM63.5 154.5Q60.0 152.0 57.5 150.75Q55.0 149.5 53.0 149.0Q50.5 150.0 49.25 155.0Q48.0 160.0 48.0 162.5Q48.0 164.5 49.0 165.0Q50.0 165.5 51.0 166.5Q53.5 165.5 56.25 164.75Q59.0 164.0 63.0 162.0Q67.0 160.0 68.75 159.0Q70.5 158.0 70.5 158.0Q70.5 157.5 63.5 154.5ZM72.0 220.5Q72.0 217.0 60.5 213.0Q55.5 210.0 52.5 210.0Q50.0 210.0 50.0 218.5Q50.0 226.5 53.0 226.5Q55.5 226.5 56.0 226.0Q60.0 225.0 63.5 224.0Q67.0 223.0 69.0 223.0Q72.0 223.0 72.0 220.5ZM91.0 63.5Q84.0 61.0 74.75 56.25Q65.5 51.5 60.0 46.5L46.5 37.0L43.5 53.5V52.5Q40.5 72.5 40.5 82.5Q40.5 95.0 45.5 95.0Q46.5 95.0 46.5 94.5Q46.5 94.0 47.0 94.0Q72.0 85.5 88.25 79.0Q104.5 72.5 105.0 70.5Q104.5 69.5 100.5 67.5Q96.5 65.5 91.0 63.5ZM225.5 153.5 235.5 139.0H189.0L199.5 155.0Q205.0 162.0 208.5 167.25Q212.0 172.5 212.5 172.5Q213.0 172.5 215.0 169.75Q217.0 167.0 219.5 163.5Q220.5 161.0 222.25 158.75Q224.0 156.5 225.5 153.5ZM389.5 131.5Q389.5 130.5 379.25 129.75Q369.0 129.0 354.5 129.0Q320.0 129.0 318.5 133.5Q319.5 134.0 320.5 135.25Q321.5 136.5 323.0 137.5Q325.5 138.5 331.0 147.0Q336.5 155.5 341.0 166.5V165.5Q343.5 172.0 346.0 174.5Q349.5 180.5 351.75 184.5Q354.0 188.5 354.5 188.5Q355.0 188.5 358.25 182.5Q361.5 176.5 364.0 168.5Q368.0 159.5 373.25 151.5Q378.5 143.5 382.0 141.0Q389.5 135.0 389.5 131.5ZM371.5 38.5 383.5 26.5H330.5L356.5 53.5Q360.5 49.5 364.0 45.75Q367.5 42.0 371.5 38.5ZM289.0 14.0Q290.5 12.0 303.5 11.0Q316.5 10.0 334.0 10.0Q349.0 10.0 365.75 10.5Q382.5 11.0 397.0 12.0Q411.5 13.0 421.0 14.5Q430.5 16.0 431.0 17.5Q431.0 21.0 425.5 25.0Q420.0 29.0 411.5 31.5Q370.0 44.0 370.0 83.0Q370.0 89.5 371.5 98.5Q373.0 106.5 374.5 110.0Q376.0 113.5 380.75 114.25Q385.5 115.0 396.5 115.0Q406.5 115.0 414.25 116.0Q422.0 117.0 422.0 119.5Q422.0 121.0 415.75 128.25Q409.5 135.5 399.5 143.5Q387.0 155.0 380.5 164.5Q374.0 174.0 371.5 186.5Q369.0 199.0 369.0 220.5V242.0L370.5 293.5L407.0 295.0Q446.0 297.5 446.0 303.0Q446.0 310.0 405.5 310.0H368.5L367.5 343.5Q367.5 358.5 365.75 365.5Q364.0 372.5 362.5 372.5Q357.0 372.5 356.0 333.5L355.0 310.0H264.5Q228.0 310.0 200.0 311.5Q172.0 313.0 148.5 316.25Q125.0 319.5 102.5 325.25Q80.0 331.0 54.0 339.5Q39.5 344.0 30.0 346.5Q20.5 349.0 15.0 349.0Q10.0 349.0 10.0 345.0Q10.0 343.0 13.0 339.5Q15.5 337.0 16.75 324.75Q18.0 312.5 18.0 295.0Q18.0 276.5 19.0 264.25Q20.0 252.0 22.0 252.0Q22.5 252.0 29.75 255.25Q37.0 258.5 45.5 263.5Q70.5 277.5 100.5 284.5Q130.5 291.5 167.0 292.5L211.5 293.5V224.5L161.5 223.0Q141.5 223.0 125.5 224.5Q109.5 226.0 93.75 229.25Q78.0 232.5 59.0 239.0Q53.5 241.0 49.25 242.75Q45.0 244.5 43.5 245.0Q43.0 246.0 40.5 246.0Q34.5 246.0 34.5 235.5Q34.5 232.5 35.0 228.5Q35.5 224.5 36.0 219.0Q37.0 208.5 38.5 199.25Q40.0 190.0 40.0 190.0H41.5Q43.0 190.0 49.0 192.5Q55.0 195.0 63.0 199.0Q69.5 202.0 76.25 203.75Q83.0 205.5 93.25 206.25Q103.5 207.0 121.0 207.0H147.5Q175.0 206.0 188.25 205.5Q201.5 205.0 205.75 203.75Q210.0 202.5 210.0 200.5V199.0Q209.0 194.5 205.0 187.25Q201.0 180.0 196.5 174.5L185.5 159.5L141.0 162.5Q121.0 163.5 101.25 166.75Q81.5 170.0 71.0 174.5Q60.0 178.0 51.25 180.75Q42.5 183.5 40.5 183.5Q39.0 183.5 38.0 172.25Q37.0 161.0 37.0 148.5Q37.0 142.5 37.0 136.5Q37.0 130.5 37.5 127.0L39.0 126.0Q41.0 126.0 46.0 128.5Q51.0 131.0 58.5 135.0Q69.0 141.5 81.0 144.5Q93.0 147.5 118.5 148.5Q125.5 149.0 132.0 149.0Q138.5 149.0 144.0 149.0Q153.5 149.0 160.0 148.5Q166.5 148.0 168.5 147.5Q173.5 145.5 173.5 145.5Q173.5 144.0 168.5 139.0Q165.0 136.0 163.25 132.25Q161.5 128.5 161.5 127.0V125.5Q162.5 124.5 168.75 123.75Q175.0 123.0 183.5 123.0Q195.0 123.0 210.0 123.75Q225.0 124.5 238.75 125.75Q252.5 127.0 261.5 128.5Q270.5 130.0 270.5 131.5Q270.5 133.0 266.0 137.5Q261.5 142.0 254.5 146.0Q245.0 151.5 239.25 157.0Q233.5 162.5 230.5 171.5Q227.5 180.5 226.5 196.0Q225.5 211.5 225.5 237.0V260.0L226.5 295.5H355.0V260.0Q355.0 224.5 343.0 196.0Q331.0 167.5 309.0 141.0Q302.0 132.5 297.0 125.25Q292.0 118.0 292.0 116.5Q292.0 113.0 304.0 113.0Q308.0 113.0 314.5 113.25Q321.0 113.5 327.5 114.5L360.5 116.5V98.5Q360.5 81.0 347.0 64.5Q333.5 48.0 309.0 34.0Q300.0 28.0 294.25 22.0Q288.5 16.0 289.0 14.0ZM33.0 38.5V11.0L58.5 30.0Q70.0 38.0 79.25 43.25Q88.5 48.5 99.5 51.5Q110.5 54.5 126.75 56.25Q143.0 58.0 168.25 58.75Q193.5 59.5 231.5 60.5Q264.0 61.0 290.5 62.5Q317.0 64.0 332.75 65.75Q348.5 67.5 348.5 69.0Q348.5 70.5 335.25 72.0Q322.0 73.5 299.25 74.5Q276.5 75.5 248.5 75.5Q208.5 75.5 180.25 77.0Q152.0 78.5 131.0 81.75Q110.0 85.0 91.5 91.25Q73.0 97.5 52.5 107.5Q43.5 112.0 35.75 115.0Q28.0 118.0 26.5 118.0Q24.0 116.5 24.0 113.0Q24.0 104.5 28.0 87.5V88.0Q29.5 77.5 31.25 62.75Q33.0 48.0 33.0 38.5Z" fill="black" /></svg>