<svg xmlns="http://www.w3.org/2000/svg" width="462.0" height="456.0" viewBox="0 0 462.0 456.0"><path d="M75.0 284.5Q72.5 284.5 65.25 281.75Q58.0 279.0 51.0 275.5L35.5 267.5V278.0Q35.5 283.0 34.5 291.5Q33.5 300.0 32.0 306.5L29.5 317.0L44.5 307.5Q52.0 302.0 60.25 297.75Q68.5 293.5 72.0 293.0H71.5Q79.0 290.0 79.0 286.0Q79.0 284.5 75.0 284.5ZM83.0 388.0 81.0 368.5Q80.5 366.0 80.5 364.0Q80.5 362.0 80.0 360.5Q77.5 347.5 78.5 347.5H78.0Q76.5 347.5 69.25 352.25Q62.0 357.0 55.5 362.0Q49.0 367.0 49.0 368.0Q49.0 369.0 54.5 372.75Q60.0 376.5 67.5 379.5ZM145.5 365.5V348.0Q145.5 340.5 145.0 336.5Q144.5 332.5 144.5 332.5Q141.5 333.5 135.5 337.25Q129.5 341.0 124.5 344.5Q119.5 348.0 119.5 349.5Q119.5 350.0 123.75 352.75Q128.0 355.5 133.5 358.0ZM219.5 278.0Q219.5 276.0 206.5 272.0L195.0 268.0V289.0L195.5 309.5L206.5 296.0Q212.0 289.0 215.75 283.75Q219.5 278.5 219.5 278.0ZM70.5 162.0Q70.5 161.0 67.0 158.25Q63.5 155.5 59.5 152.0Q52.0 146.0 50.0 146.0Q49.0 146.0 49.0 151.5Q49.0 155.0 48.0 162.5Q47.0 170.0 46.0 176.0L44.0 188.0L56.0 177.0Q61.5 171.0 66.0 166.75Q70.5 162.5 70.5 162.0ZM250.0 183.5 175.5 173.5Q155.5 170.5 137.75 168.25Q120.0 166.0 108.5 164.75Q97.0 163.5 95.5 163.5Q93.0 163.5 83.5 171.25Q74.0 179.0 62.5 190.0Q48.5 204.0 41.5 214.5Q34.5 225.0 34.5 233.5Q34.5 239.5 37.5 245.0Q40.5 250.5 45.5 256.5Q56.5 266.0 75.0 270.75Q93.5 275.5 125.5 275.5H138.5L180.0 274.0L182.5 245.5Q185.5 221.0 187.5 221.0Q190.0 221.0 192.0 226.5Q194.0 232.0 197.5 243.0Q200.0 251.0 205.25 255.75Q210.5 260.5 222.75 262.25Q235.0 264.0 259.0 264.0Q268.5 264.0 279.75 264.0Q291.0 264.0 305.0 263.5L382.0 260.5Q377.5 258.0 373.75 255.25Q370.0 252.5 366.0 250.0Q360.5 246.5 349.0 239.75Q337.5 233.0 323.75 225.0Q310.0 217.0 296.5 210.0ZM138.0 87.0Q139.5 82.5 139.5 79.5Q139.5 79.0 139.25 78.75Q139.0 78.5 139.0 78.5Q137.0 79.0 131.75 82.75Q126.5 86.5 120.5 91.5Q114.5 96.5 110.25 100.75Q106.0 105.0 106.0 106.5Q106.0 107.5 112.0 111.5Q118.0 115.5 124.75 118.75Q131.5 122.0 134.0 122.0Q134.0 113.0 134.5 104.0Q135.0 95.0 138.0 87.0ZM167.0 159.0H166.5ZM214.5 100.5V83.5Q213.0 83.5 207.0 88.25Q201.0 93.0 195.5 98.0Q190.0 103.0 190.0 105.0Q190.0 106.0 194.75 109.25Q199.5 112.5 205.25 115.0Q211.0 117.5 213.0 117.5Q213.0 117.5 213.5 113.0Q214.0 108.5 214.5 100.5ZM295.0 166.5Q292.5 157.5 290.25 151.0Q288.0 144.5 287.5 144.5Q285.5 144.5 280.5 148.0Q275.5 151.5 269.5 156.75Q263.5 162.0 259.25 166.25Q255.0 170.5 255.0 172.0Q255.0 172.5 258.25 173.25Q261.5 174.0 266.0 174.0Q271.5 174.0 275.25 176.0Q279.0 178.0 279.0 181.5Q279.0 183.5 283.5 187.25Q288.0 191.0 294.5 193.5Q303.5 198.5 308.0 198.5L308.5 199.5Q308.5 195.5 305.0 194.0Q303.0 192.5 300.25 184.5Q297.5 176.5 295.0 166.5ZM419.5 94.0Q420.0 92.5 420.25 92.0Q420.5 91.5 420.5 91.0Q420.5 89.0 416.0 88.75Q411.5 88.5 398.5 88.5Q383.0 88.5 376.5 89.0Q370.0 89.5 370.0 92.5Q370.0 95.5 374.5 101.0Q377.5 105.0 381.5 116.75Q385.5 128.5 388.0 139.0Q396.5 168.0 397.0 168.0Q398.5 168.0 398.5 160.5Q398.5 156.0 401.25 144.75Q404.0 133.5 409.0 119.5Q414.0 105.5 419.5 94.0ZM103.5 310.5Q109.5 305.5 115.5 302.0Q121.5 298.5 124.0 298.5H125.5Q126.0 299.5 126.5 300.5Q127.0 301.5 127.0 302.5Q127.0 307.0 118.5 314.5Q95.0 335.0 92.0 353.5L128.0 327.5Q142.5 317.0 154.0 307.25Q165.5 297.5 168.5 294.5H168.0Q170.5 292.5 170.5 291.0Q170.5 289.5 165.25 289.25Q160.0 289.0 145.5 289.0Q119.5 289.0 93.75 297.25Q68.0 305.5 48.75 319.0Q29.5 332.5 23.0 348.0Q18.5 358.0 16.0 358.0Q14.0 358.0 11.0 352.0Q10.0 348.0 10.0 345.0Q10.0 341.5 11.0 338.25Q12.0 335.0 14.5 332.0Q17.0 328.0 19.5 309.0Q22.0 290.0 23.5 268.0Q25.0 242.5 28.25 213.25Q31.5 184.0 35.25 158.0Q39.0 132.0 42.75 115.5Q46.5 99.0 49.0 99.0Q51.0 99.0 52.75 103.25Q54.5 107.5 54.5 114.5Q54.5 147.5 99.5 152.0Q106.5 152.5 114.25 153.0Q122.0 153.5 130.0 154.5Q135.0 155.5 140.0 156.0Q145.0 156.5 148.5 157.0Q153.0 157.5 157.25 158.25Q161.5 159.0 166.5 159.0Q165.0 156.5 155.5 150.25Q146.0 144.0 133.25 137.0Q120.5 130.0 109.0 124.25Q97.5 118.5 91.5 117.0Q83.0 115.5 83.0 111.5Q83.0 107.5 92.0 99.75Q101.0 92.0 123.0 75.0Q135.0 65.0 147.25 54.75Q159.5 44.5 169.25 36.0Q179.0 27.5 183.0 23.0Q189.0 17.5 194.5 14.0Q200.0 10.5 203.5 10.0Q204.0 10.5 205.5 11.5Q206.5 11.5 206.5 12.0Q206.5 12.5 206.5 12.5Q206.5 16.0 200.5 23.0Q194.5 30.0 186.0 38.0Q177.5 45.5 168.25 56.75Q159.0 68.0 152.75 80.75Q146.5 93.5 145.5 106.0Q146.5 118.0 154.25 128.25Q162.0 138.5 171.5 145.0Q178.5 148.5 183.75 153.0Q189.0 157.5 191.0 160.0Q191.5 161.5 197.75 163.0Q204.0 164.5 212.0 165.0Q215.0 165.5 217.25 165.5Q219.5 165.5 222.0 165.5Q232.0 165.5 239.75 163.0Q247.5 160.5 247.5 156.0Q247.5 154.0 246.0 153.5Q244.0 150.5 234.5 144.25Q225.0 138.0 212.75 131.75Q200.5 125.5 190.0 121.0Q179.5 116.5 175.5 116.5Q171.0 116.5 167.5 115.0Q164.0 113.5 164.0 111.0Q164.0 108.5 185.75 89.75Q207.5 71.0 259.0 29.5Q264.5 24.0 268.5 22.25Q272.5 20.5 274.5 20.5Q276.5 20.5 276.5 22.5Q276.5 28.5 260.0 43.5Q254.0 48.5 245.5 59.25Q237.0 70.0 230.5 82.0Q224.0 94.0 224.0 103.0Q224.0 110.5 230.75 120.5Q237.5 130.5 246.75 137.75Q256.0 145.0 263.5 145.0Q265.5 145.0 275.25 137.5Q285.0 130.0 297.0 120.5Q308.5 110.5 318.0 104.25Q327.5 98.0 330.5 97.5Q331.0 98.0 331.5 98.0Q332.0 98.0 332.5 99.0V100.5Q332.5 107.0 323.0 115.5Q313.5 123.5 308.25 131.75Q303.0 140.0 303.0 150.0Q303.0 164.0 311.75 178.75Q320.5 193.5 337.0 209.5Q348.0 218.5 359.5 228.25Q371.0 238.0 377.0 241.5L390.0 249.0L387.0 210.0Q385.0 179.0 379.25 153.25Q373.5 127.5 366.0 111.0Q358.5 94.5 350.0 91.5Q347.5 90.0 344.75 86.75Q342.0 83.5 342.0 81.0Q342.0 75.5 352.5 75.5Q355.0 75.5 358.0 75.75Q361.0 76.0 365.0 76.5Q369.0 77.0 372.75 77.0Q376.5 77.0 380.0 77.0Q397.5 77.0 412.75 74.25Q428.0 71.5 429.0 68.0Q432.5 61.5 442.5 60.5Q446.0 61.0 449.0 62.75Q452.0 64.5 452.0 68.0Q452.0 70.0 449.5 72.75Q447.0 75.5 444.0 76.5Q439.0 78.5 433.25 90.5Q427.5 102.5 421.75 120.5Q416.0 138.5 411.25 159.0Q406.5 179.5 403.5 199.25Q400.5 219.0 400.5 234.5Q400.5 252.5 405.0 257.75Q409.5 263.0 425.0 263.0Q437.0 263.0 437.0 268.5Q437.0 272.0 431.75 276.25Q426.5 280.5 423.0 280.5Q420.5 280.5 416.5 279.5Q413.5 277.5 411.0 276.0Q408.5 274.5 406.5 274.5Q400.5 274.5 400.5 296.5V321.5Q400.5 332.0 400.0 336.25Q399.5 340.5 397.0 340.5Q396.5 340.5 395.75 339.0Q395.0 337.5 393.5 336.0Q391.5 332.5 390.0 322.5Q388.5 312.5 388.5 300.0V275.5H318.0Q291.0 275.5 275.75 275.75Q260.5 276.0 252.75 277.0Q245.0 278.0 240.75 280.25Q236.5 282.5 231.5 287.0Q225.5 292.0 218.5 301.5Q211.5 311.0 205.0 321.25Q198.5 331.5 194.25 340.5Q190.0 349.5 190.0 354.0Q190.0 364.0 183.0 364.0Q179.5 364.0 179.5 351.5Q179.5 346.5 179.75 341.0Q180.0 335.5 180.5 329.0L183.0 298.0L170.5 309.5Q162.5 318.0 159.5 324.25Q156.5 330.5 156.5 341.5Q156.5 354.0 159.75 359.75Q163.0 365.5 174.5 376.0Q181.5 382.0 191.5 389.25Q201.5 396.5 208.0 400.5Q214.0 403.5 216.5 406.5Q219.0 409.5 219.5 412.0Q219.5 413.0 217.0 414.0H216.5Q214.0 414.0 201.0 408.75Q188.0 403.5 172.5 394.0Q156.5 385.5 139.25 376.5Q122.0 367.5 113.5 364.0L91.5 356.5Q91.5 369.0 98.75 380.5Q106.0 392.0 116.75 401.0Q127.5 410.0 138.0 415.5Q155.5 426.5 162.0 431.5Q168.5 436.5 168.5 440.5Q168.5 441.0 168.5 442.25Q168.5 443.5 167.5 444.5Q167.0 446.0 164.0 446.0Q160.0 446.0 156.0 441.5Q153.0 439.0 142.0 432.5Q131.0 426.0 116.0 418.25Q101.0 410.5 85.75 402.5Q70.5 394.5 57.75 388.75Q45.0 383.0 39.0 381.0L19.5 374.0L55.5 348.5Q69.0 339.0 83.0 327.75Q97.0 316.5 103.5 310.5Z" fill="black" /></svg>