<svg xmlns="http://www.w3.org/2000/svg" width="368.5" height="381.0" viewBox="0 0 368.5 381.0"><path d="M64.0 325.0Q60.0 323.0 56.0 321.5Q52.0 320.0 48.0 318.5Q41.5 316.0 36.5 313.75Q31.5 311.5 29.5 311.0Q26.5 310.0 26.0 310.0Q23.5 310.0 22.75 314.25Q22.0 318.5 22.0 330.5Q22.0 351.0 26.5 351.0H27.0Q30.0 350.0 40.5 347.0Q45.0 346.0 50.75 344.5Q56.5 343.0 62.0 341.0L88.0 333.5Q82.0 331.0 76.0 329.0Q70.0 327.0 64.0 325.0ZM92.5 63.5 89.5 62.5H89.0L84.0 60.0Q79.0 57.5 71.75 54.75Q64.5 52.0 57.5 48.5L36.0 38.0V61.5Q36.0 74.0 37.0 78.75Q38.0 83.5 40.0 83.5Q41.5 83.5 43.5 82.5Q46.0 81.0 55.5 77.5Q65.0 74.0 74.5 70.5Q92.5 64.5 92.5 63.5ZM65.5 139.0 75.0 120.5 83.5 102.0H67.5Q59.0 102.0 55.25 102.5Q51.5 103.0 51.5 105.5Q51.5 109.0 59.0 123.5ZM130.0 161.5Q127.5 161.0 123.75 159.75Q120.0 158.5 116.5 157.5L113.5 156.5Q110.5 155.0 109.0 155.0Q106.5 155.0 106.5 165.5Q106.5 175.5 109.5 175.5Q112.0 175.5 118.75 173.75Q125.5 172.0 131.25 169.5Q137.0 167.0 137.0 165.5Q137.0 164.0 130.0 161.5ZM128.0 238.0 139.5 233.5 106.5 221.0V232.0Q106.5 243.5 111.0 243.5Q113.5 243.5 117.5 242.0Q121.5 240.5 128.0 238.0ZM212.5 66.0Q212.5 65.0 208.75 64.75Q205.0 64.5 199.5 64.5Q194.5 64.5 190.25 64.5Q186.0 64.5 186.0 64.0Q186.0 64.5 187.75 69.0Q189.5 73.5 191.5 79.5Q192.5 81.5 193.25 83.5Q194.0 85.5 194.5 88.0L201.0 108.5L206.0 90.5Q208.5 82.0 210.5 75.0Q212.5 68.0 212.5 66.0ZM226.5 49.5Q226.5 48.0 219.25 46.75Q212.0 45.5 201.5 45.5Q191.5 45.5 184.25 46.75Q177.0 48.0 177.0 49.5Q177.0 50.5 184.25 51.5Q191.5 52.5 201.5 52.5Q212.0 52.5 219.25 51.5Q226.5 50.5 226.5 49.5ZM300.0 108.0 290.0 67.0 227.0 64.0Q221.5 79.5 217.25 94.25Q213.0 109.0 211.5 126.5L208.5 155.5H255.0Q303.0 155.5 303.0 161.5Q303.0 167.5 257.5 169.0L212.5 170.0L209.5 225.5H311.5V188.0Q311.5 170.0 308.5 149.0Q305.5 128.0 300.0 108.0ZM338.0 27.5Q335.5 27.5 328.5 27.25Q321.5 27.0 312.5 27.0H285.5L290.0 39.0Q292.0 44.0 294.0 48.25Q296.0 52.5 298.0 52.5Q299.5 52.5 302.25 60.25Q305.0 68.0 306.0 79.5Q307.5 90.5 309.75 97.25Q312.0 104.0 314.0 104.0Q316.0 104.0 316.0 94.5Q316.0 90.0 319.5 78.5Q323.0 67.0 328.0 55.5Q332.0 45.5 334.75 38.0Q337.5 30.5 338.0 27.5ZM269.0 12.5Q269.0 10.0 271.5 10.0Q273.5 10.0 278.5 12.0Q281.5 13.0 294.5 14.0Q307.5 15.0 323.0 15.0Q337.5 15.0 348.0 16.5Q358.5 18.0 358.5 20.0Q357.5 22.5 351.5 34.0Q349.5 39.0 346.5 44.75Q343.5 50.5 340.5 56.5L324.5 89.0V225.5Q324.5 263.5 324.0 295.25Q323.5 327.0 322.5 345.75Q321.5 364.5 320.5 364.5Q316.0 364.5 316.0 354.0Q316.0 345.5 314.25 341.5Q312.5 337.5 303.5 336.0Q294.5 334.5 272.5 334.5Q264.5 334.5 254.0 334.5Q243.5 334.5 230.5 335.0H219.5Q182.5 335.5 155.75 337.0Q129.0 338.5 108.75 341.75Q88.5 345.0 71.5 350.25Q54.5 355.5 37.0 363.0Q18.5 371.0 12.5 371.0Q11.0 371.0 10.0 369.5Q10.0 367.0 10.25 358.25Q10.5 349.5 10.75 337.75Q11.0 326.0 11.5 314.75Q12.0 303.5 12.5 295.75Q13.0 288.0 13.5 287.5Q13.5 287.5 23.75 292.0Q34.0 296.5 48.0 303.5L80.5 320.0L164.0 323.0Q179.5 323.5 195.0 323.75Q210.5 324.0 224.5 324.0Q243.0 324.0 258.0 323.5Q273.0 323.0 280.0 322.0L311.5 318.5V238.0H209.5L212.5 271.5Q213.0 278.0 213.25 283.25Q213.5 288.5 213.5 292.5Q213.5 308.5 209.5 310.0V309.5Q209.0 310.5 207.5 310.5Q203.0 310.5 203.0 291.5Q203.0 283.0 202.25 272.25Q201.5 261.5 200.5 253.5Q199.0 245.5 196.5 241.75Q194.0 238.0 187.0 238.0Q181.0 238.0 171.25 240.5Q161.5 243.0 146.5 247.5Q142.5 248.5 139.0 249.5Q135.5 250.5 132.0 251.5Q108.0 259.5 101.0 259.5Q93.5 259.5 93.5 249.0Q93.5 247.0 93.75 244.75Q94.0 242.5 94.0 240.0Q94.0 238.0 94.25 236.0Q94.5 234.0 94.5 232.0Q95.0 219.5 96.75 211.0Q98.5 202.5 99.0 202.5Q100.0 202.5 106.5 205.25Q113.0 208.0 121.5 212.0Q129.0 216.5 143.25 220.25Q157.5 224.0 169.5 225.0L198.5 227.0V167.0L180.0 170.0Q163.0 172.5 146.0 178.0Q129.0 183.5 112.5 189.5Q109.0 190.5 106.75 191.25Q104.5 192.0 103.5 192.5Q100.5 192.5 98.25 179.75Q96.0 167.0 95.5 154.5Q96.0 150.0 96.5 146.0Q97.0 142.0 97.5 140.0Q99.0 136.0 102.5 136.0Q107.0 136.0 123.0 144.5Q134.5 150.0 149.0 153.0Q163.5 156.0 175.0 156.0Q185.0 156.0 191.75 154.0Q198.5 152.0 198.5 148.0Q198.5 144.5 196.0 134.25Q193.5 124.0 189.5 111.5Q185.5 99.0 181.5 88.25Q177.5 77.5 175.0 72.5Q173.0 68.5 169.0 66.5Q165.0 64.5 158.0 64.5Q150.0 64.5 138.0 67.0Q126.0 69.5 108.0 74.5Q62.5 86.0 62.5 89.0Q62.5 88.5 68.0 88.5Q70.0 88.5 72.75 88.5Q75.5 88.5 79.0 88.0Q82.0 87.5 85.0 87.5Q88.0 87.5 90.0 87.5Q101.5 87.5 101.5 94.0Q101.5 98.5 93.5 110.5Q83.0 124.5 78.5 146.75Q74.0 169.0 74.0 207.5Q74.0 214.0 74.0 221.5Q74.0 229.0 74.5 237.0Q75.0 248.0 75.25 257.75Q75.5 267.5 75.5 276.0Q75.5 290.5 74.5 299.5Q73.5 308.5 72.0 308.5Q68.0 308.5 66.5 298.0Q65.0 255.0 63.25 227.25Q61.5 199.5 59.5 182.0Q57.5 164.5 54.75 153.0Q52.0 141.5 48.0 131.5Q43.5 119.5 38.5 112.0Q33.5 104.5 30.5 104.5Q27.0 104.5 25.5 100.75Q24.0 97.0 24.0 86.0Q24.0 81.5 24.25 71.5Q24.5 61.5 25.0 50.25Q25.5 39.0 26.25 30.25Q27.0 21.5 28.0 19.5H29.0Q30.0 19.5 34.75 22.0Q39.5 24.5 44.5 29.0Q78.5 52.5 131.5 52.5Q149.5 52.5 157.0 51.5Q164.5 50.5 164.5 48.5Q164.5 46.5 160.5 41.5Q157.0 38.0 157.0 36.0Q157.0 33.5 160.0 33.0Q162.5 33.0 171.75 33.0Q181.0 33.0 193.25 33.5Q205.5 34.0 217.5 34.25Q229.5 34.5 237.75 35.0Q246.0 35.5 247.0 36.5V38.0Q247.0 41.0 242.5 47.5Q240.0 50.0 240.0 51.0Q240.0 51.5 244.75 52.0Q249.5 52.5 260.5 52.5Q269.5 52.5 276.25 52.25Q283.0 52.0 283.0 51.5Q283.0 51.0 282.0 48.75Q281.0 46.5 280.0 43.0Q279.0 40.5 278.0 37.75Q277.0 35.0 276.0 32.0Q273.0 25.0 271.0 19.0Q269.0 13.0 269.0 12.5Z" fill="black" /></svg>