<svg xmlns="http://www.w3.org/2000/svg" width="789.5" height="456.0" viewBox="0 0 789.5 456.0"><path d="M26.0 390.0Q37.5 380.0 54.75 370.5Q72.0 361.0 86.0 355.5Q71.0 347.0 56.25 339.25Q41.5 331.5 26.5 324.0Q26.5 333.0 26.75 341.25Q27.0 349.5 27.0 358.0Q27.0 366.0 26.75 374.0Q26.5 382.0 26.0 390.0ZM311.5 375.0Q323.5 369.5 337.75 366.0Q352.0 362.5 366.0 360.5Q380.5 358.0 394.25 357.0Q408.0 356.0 420.0 354.0Q395.0 342.0 372.5 328.5Q350.0 315.0 327.0 297.0Q324.0 317.0 320.0 336.5Q316.0 356.0 311.5 375.0ZM442.5 253.0 423.0 265.5Q429.0 266.0 436.75 267.75Q444.5 269.5 452.5 271.0Q462.5 273.0 471.25 274.5Q480.0 276.0 486.0 276.0Q485.0 273.5 482.5 267.5Q480.0 261.5 476.0 254.5Q474.5 250.5 472.5 247.0Q470.5 243.5 469.0 240.5Q466.5 237.0 466.0 237.0Q466.0 236.5 465.75 236.25Q465.5 236.0 465.5 235.5Q465.5 235.5 465.0 235.5Q464.5 235.5 464.5 236.5Q464.5 236.5 462.5 237.5Q460.5 238.0 459.0 240.0Q457.5 242.0 455.0 243.0Q450.5 246.5 447.0 249.5Q443.5 252.5 442.5 253.0ZM411.5 280.5V333.5L444.0 348.5Q452.5 352.0 463.5 355.75Q474.5 359.5 486.0 362.0Q497.0 365.0 508.0 367.75Q519.0 370.5 528.0 373.0Q567.5 382.5 607.25 390.75Q647.0 399.0 686.5 407.0L702.5 410.0L702.0 264.5Q678.5 248.0 654.0 232.0Q629.5 216.0 603.5 202.0Q592.0 195.5 576.25 191.0Q560.5 186.5 547.5 186.5Q546.5 186.5 544.25 186.5Q542.0 186.5 540.0 187.0Q535.5 188.5 535.5 190.5Q535.5 193.5 538.25 199.5Q541.0 205.5 544.25 211.5Q547.5 217.5 549.0 221.0Q556.5 235.0 578.25 251.5Q600.0 268.0 623.5 283.5Q635.0 291.5 645.75 298.25Q656.5 305.0 664.5 311.0Q672.0 316.0 677.5 321.0Q683.0 326.0 683.0 329.0Q683.0 332.5 679.5 332.5Q679.0 333.0 677.5 333.0H676.5Q674.5 333.0 664.0 326.5Q653.5 320.0 640.5 313.0Q628.5 305.5 617.75 298.75Q607.0 292.0 604.0 290.0Q595.0 284.0 580.25 275.0Q565.5 266.0 548.75 257.25Q532.0 248.5 516.75 242.75Q501.5 237.0 491.0 237.0Q488.0 237.0 487.5 237.5Q486.0 237.5 486.0 239.5Q486.0 244.5 492.0 254.5Q498.0 264.5 501.5 268.5Q508.0 278.5 517.25 287.5Q526.5 296.5 537.5 305.0Q549.0 312.5 560.25 319.25Q571.5 326.0 582.5 332.5Q585.0 334.0 594.75 340.0Q604.5 346.0 615.5 353.0Q621.0 356.5 626.25 360.25Q631.5 364.0 635.5 367.0Q638.0 369.0 639.5 370.0Q641.0 371.0 642.0 372.5Q643.5 374.0 644.5 374.5Q644.5 375.0 645.0 375.75Q645.5 376.5 645.5 377.5Q645.5 379.0 644.0 379.25Q642.5 379.5 642.0 379.5Q638.0 379.5 629.0 375.5Q620.0 371.5 609.5 365.5Q599.0 359.5 590.25 354.25Q581.5 349.0 578.0 347.0Q566.5 340.5 552.75 332.0Q539.0 323.5 525.0 315.0Q511.0 307.0 496.75 300.25Q482.5 293.5 469.5 290.0Q462.0 287.5 455.25 286.25Q448.5 285.0 441.5 284.5ZM123.5 139.0 93.0 124.0Q84.0 119.5 75.5 114.0Q67.0 108.5 58.5 104.5Q59.5 113.5 60.0 122.25Q60.5 131.0 60.5 140.0Q60.5 146.0 60.0 151.75Q59.5 157.5 59.5 163.0Q66.5 160.0 73.0 156.5Q79.5 153.0 86.0 150.5Q95.0 147.0 104.5 144.25Q114.0 141.5 123.5 139.0ZM99.0 232.5Q104.5 216.0 110.0 205.0Q115.5 194.0 126.0 180.0Q119.5 180.0 112.75 180.5Q106.0 181.0 99.0 181.0Q93.5 181.0 87.5 180.5Q81.5 180.0 76.0 180.0Q80.0 186.0 83.5 192.75Q87.0 199.5 89.0 206.5Q92.0 212.5 94.5 219.25Q97.0 226.0 99.0 232.5ZM391.5 133.5 381.5 137.5Q367.5 141.5 354.0 150.0Q351.5 151.0 344.25 155.75Q337.0 160.5 329.0 165.5Q321.0 170.5 313.5 174.75Q306.0 179.0 303.5 179.0Q301.5 179.0 300.5 177.5Q299.5 176.0 298.5 174.5Q298.0 173.0 298.0 171.5Q298.0 170.0 298.0 169.5Q298.0 164.0 298.75 159.5Q299.5 155.0 300.0 150.0Q278.5 149.5 257.25 149.0Q236.0 148.5 214.0 148.5Q181.0 148.5 147.75 151.0Q114.5 153.5 83.5 166.5H92.0Q105.0 166.5 117.5 164.75Q130.0 163.0 143.0 163.0H147.0Q149.0 163.5 150.75 164.5Q152.5 165.5 152.5 168.5Q152.5 169.0 151.75 170.5Q151.0 172.0 150.0 174.0Q149.5 174.5 145.5 179.25Q141.5 184.0 138.0 188.25Q134.5 192.5 134.5 192.5Q125.0 204.5 118.75 220.75Q112.5 237.0 109.75 254.25Q107.0 271.5 106.5 286.0L105.5 346.0Q118.5 349.0 133.75 350.5Q149.0 352.0 163.0 352.5Q178.0 353.0 192.75 353.0Q207.5 353.0 221.0 353.5L301.5 356.5Q303.0 348.0 304.75 339.75Q306.5 331.5 307.5 323.5Q310.0 315.0 310.75 306.5Q311.5 298.0 311.5 289.0V280.5Q311.5 277.0 313.0 275.5Q314.5 273.0 317.0 273.0Q321.0 273.0 333.0 281.0Q338.0 284.5 344.75 289.25Q351.5 294.0 358.0 299.0Q369.5 308.0 380.5 315.5Q391.5 323.0 396.0 325.5Q396.0 288.5 396.5 252.0Q397.0 215.5 397.0 180.0Q397.0 168.0 395.75 156.5Q394.5 145.0 391.5 133.5ZM375.0 125.5 386.5 122.0 382.0 110.0Q345.5 100.5 312.0 88.0Q313.5 102.0 315.25 115.5Q317.0 129.0 317.0 143.5Q317.0 145.0 317.0 147.75Q317.0 150.5 316.0 153.5V159.0Q329.0 147.5 344.25 139.75Q359.5 132.0 375.0 125.5ZM398.0 113.5 400.0 117.5 406.5 116.0ZM411.5 257.5 433.0 242.0Q437.5 238.0 442.5 233.75Q447.5 229.5 451.5 226.0Q456.5 222.0 461.0 217.75Q465.5 213.5 470.5 210.5Q473.5 209.0 479.75 204.75Q486.0 200.5 492.0 196.0Q498.5 190.5 502.75 186.0Q507.0 181.5 507.0 180.0Q507.0 179.0 506.0 179.0Q506.0 178.0 505.5 178.0V177.5Q504.0 176.5 504.0 175.0Q504.0 172.0 507.0 169.0Q509.0 167.0 510.75 165.5Q512.5 164.0 514.5 162.0Q524.5 154.0 535.75 146.5Q547.0 139.0 558.0 132.5Q560.5 130.0 562.5 127.5Q564.5 125.0 567.5 123.5Q571.5 121.5 575.0 118.0Q551.0 119.5 527.0 120.75Q503.0 122.0 478.5 122.5Q463.5 123.0 449.0 123.75Q434.5 124.5 420.0 128.0L414.5 159.0Q413.5 164.0 412.75 169.25Q412.0 174.5 412.0 180.0V201.0Q412.0 215.5 412.0 229.25Q412.0 243.0 411.5 257.5ZM481.0 219.5Q486.0 221.0 492.75 222.75Q499.5 224.5 507.0 226.5Q515.5 228.0 522.75 229.5Q530.0 231.0 536.0 231.0Q534.0 224.0 529.0 213.25Q524.0 202.5 520.0 196.5Q519.0 193.0 517.5 191.5Q517.0 191.5 517.0 191.75Q517.0 192.0 516.0 192.0L512.0 196.0Q509.5 197.5 506.25 200.0Q503.0 202.5 499.0 205.5Q493.5 209.0 488.5 213.25Q483.5 217.5 481.0 219.5ZM394.0 98.5 413.5 102.5Q418.5 93.5 424.0 84.5Q429.5 75.5 435.5 67.5Q428.0 68.0 420.25 68.5Q412.5 69.0 404.5 69.0Q397.0 69.0 389.0 68.0Q381.0 67.0 373.5 66.0Q379.0 74.0 384.0 82.25Q389.0 90.5 394.0 98.5ZM402.5 130.5 404.5 137.0 407.0 129.5ZM532.0 169.5 555.5 172.0Q557.5 172.0 565.5 173.5Q573.5 175.0 581.5 176.75Q589.5 178.5 591.0 180.0Q591.0 180.0 591.5 180.25Q592.0 180.5 592.5 180.5H594.0Q594.0 180.5 594.25 180.5Q594.5 180.5 594.5 180.0Q594.5 175.0 591.0 172.0Q589.0 169.5 586.75 164.25Q584.5 159.0 582.0 154.0Q580.0 149.5 578.5 145.0Q577.0 140.5 575.5 138.0Q565.0 146.0 554.0 153.5Q543.0 161.0 532.0 169.5ZM592.5 134.5Q597.5 156.0 606.0 170.0Q614.5 184.0 627.5 194.75Q640.5 205.5 659.0 218.0L702.5 245.5Q702.0 234.0 701.75 221.0Q701.5 208.0 700.5 195.0Q700.0 181.0 698.75 167.5Q697.5 154.0 694.0 142.0L685.5 113.0Q666.5 113.5 647.0 114.0Q627.5 114.5 608.0 117.0L596.0 118.0Q590.5 119.0 590.5 123.5Q590.5 125.0 591.25 129.0Q592.0 133.0 592.5 134.5ZM708.0 138.0Q710.0 128.0 712.5 118.75Q715.0 109.5 718.0 100.5Q721.0 89.0 725.0 77.75Q729.0 66.5 735.5 56.5Q736.5 54.5 738.5 51.5Q740.5 48.5 742.5 45.5Q743.5 42.0 744.75 39.75Q746.0 37.5 746.5 36.0H746.0Q745.5 36.0 744.25 36.0Q743.0 36.0 742.0 35.5Q739.5 35.5 736.25 35.0Q733.0 34.5 729.5 34.0Q722.0 33.5 715.5 33.25Q709.0 33.0 708.0 33.0Q701.5 32.5 694.25 31.25Q687.0 30.0 680.0 30.0Q679.0 30.0 678.0 31.0H676.0Q674.0 31.5 674.0 33.5V36.0Q674.5 36.5 674.5 37.0Q674.5 37.5 675.0 38.5Q677.0 45.5 680.0 52.0Q683.0 58.5 686.0 65.5Q689.5 73.0 692.75 83.5Q696.0 94.0 699.0 105.5Q702.0 114.0 704.0 122.5Q706.0 131.0 708.0 138.0ZM43.5 90.0V83.5L44.0 82.5Q45.0 82.0 46.0 82.0Q48.5 82.0 52.0 83.75Q55.5 85.5 58.0 86.5Q84.0 106.5 110.0 116.75Q136.0 127.0 163.75 130.75Q191.5 134.5 223.5 135.5L300.0 137.5V124.0Q300.0 115.5 298.75 107.25Q297.5 99.0 295.5 91.0Q295.0 88.5 294.25 86.5Q293.5 84.5 293.0 82.5Q292.5 80.5 292.25 78.0Q292.0 75.5 292.0 73.5V70.5Q293.0 69.5 294.0 68.5Q295.0 67.5 296.0 67.5Q299.5 67.5 307.25 69.75Q315.0 72.0 322.75 74.75Q330.5 77.5 333.5 78.5Q335.5 80.0 342.25 82.75Q349.0 85.5 357.0 88.0Q366.5 92.5 373.5 94.5Q371.0 90.0 368.25 85.25Q365.5 80.5 363.0 76.0Q363.0 75.0 361.0 72.5Q360.0 71.0 359.0 69.75Q358.0 68.5 357.0 67.0Q353.5 65.0 353.5 61.5Q351.0 59.0 351.0 56.5Q351.0 53.5 352.75 53.0Q354.5 52.5 355.0 52.5Q367.0 52.5 379.0 54.0Q391.0 55.5 403.0 56.0Q415.0 56.5 426.75 56.25Q438.5 56.0 449.5 56.0H459.5Q459.5 56.5 459.75 56.25Q460.0 56.0 460.0 56.5Q462.5 56.5 462.5 57.5Q462.5 59.5 462.0 59.5Q462.0 60.0 461.5 60.5Q461.5 61.0 459.0 62.5Q458.5 64.5 457.25 66.0Q456.0 67.5 454.0 69.5Q450.5 73.0 448.0 76.0Q445.5 79.0 444.0 80.5Q439.5 86.0 435.25 92.0Q431.0 98.0 427.5 104.5Q450.0 105.5 472.0 106.5Q494.0 107.5 516.0 106.5Q557.5 105.0 599.25 104.0Q641.0 103.0 682.0 99.5L676.5 81.5Q676.0 77.5 673.25 70.5Q670.5 63.5 667.5 56.5Q664.5 49.5 662.5 46.0Q658.0 36.0 654.25 27.0Q650.5 18.0 650.5 13.5Q650.5 12.5 651.5 11.5Q652.0 10.0 654.0 10.0H657.5Q661.5 10.0 665.25 10.75Q669.0 11.5 673.5 12.5Q684.0 15.0 697.0 16.0Q710.0 17.0 724.0 17.5Q738.5 17.5 752.25 17.25Q766.0 17.0 778.0 18.0H779.5V19.5Q779.5 20.5 779.0 20.5Q779.0 22.0 778.5 22.0Q778.0 23.0 777.5 23.75Q777.0 24.5 776.5 25.5Q775.5 27.5 773.75 29.5Q772.0 31.5 771.0 34.0Q767.5 38.5 764.25 42.75Q761.0 47.0 760.0 48.5Q736.5 82.0 729.0 117.0Q721.5 152.0 719.5 192.0Q719.0 207.5 717.75 223.5Q716.5 239.5 717.5 255.0Q719.0 256.5 725.5 261.0Q732.0 265.5 734.0 266.0Q735.0 268.0 736.25 269.25Q737.5 270.5 737.5 272.0Q737.5 274.0 735.5 276.5Q733.5 279.0 730.5 279.0Q728.5 279.0 726.0 277.75Q723.5 276.5 722.0 275.5Q720.5 274.5 719.5 274.0Q718.5 273.5 717.5 273.0V414.0L726.5 415.5Q731.0 416.5 733.0 417.75Q735.0 419.0 735.0 422.5Q735.0 426.0 732.75 427.75Q730.5 429.5 728.0 429.5Q726.0 429.5 722.5 428.75Q719.0 428.0 717.5 427.5V437.0Q717.5 440.0 715.5 443.0Q713.5 446.0 710.0 446.0Q705.5 446.0 704.25 442.5Q703.0 439.0 702.5 435.5Q702.0 433.0 702.25 430.0Q702.5 427.0 702.5 425.0Q669.0 419.0 635.75 412.5Q602.5 406.0 568.5 399.0Q548.5 395.0 528.25 390.0Q508.0 385.0 486.5 381.0Q466.0 377.0 445.25 374.75Q424.5 372.5 403.0 372.5Q383.0 372.5 365.0 375.75Q347.0 379.0 328.0 386.5Q326.0 388.0 321.5 389.5Q317.0 391.0 313.0 393.5Q308.0 394.5 303.25 396.25Q298.5 398.0 296.0 398.0Q290.5 398.0 290.5 393.0Q290.5 390.5 291.5 386.75Q292.5 383.0 293.5 379.5Q295.0 376.0 296.0 373.0Q297.0 370.0 297.5 368.5Q263.0 367.0 227.0 367.0Q196.5 367.0 166.25 367.25Q136.0 367.5 105.5 367.5L105.0 379.0Q105.0 386.0 103.25 388.25Q101.5 390.5 97.5 390.5Q93.0 390.5 91.75 388.0Q90.5 385.5 90.5 380.0V369.5Q84.0 370.5 74.0 376.75Q64.0 383.0 54.25 390.0Q44.5 397.0 39.5 401.0Q38.0 402.5 35.5 405.0Q33.0 407.5 30.0 410.0Q28.5 411.5 27.0 412.75Q25.5 414.0 24.5 415.0Q21.0 417.5 19.0 417.5Q15.0 417.5 13.5 415.0Q13.0 414.0 12.75 412.25Q12.5 410.5 11.5 409.0Q11.0 406.5 11.0 403.5Q11.0 400.5 11.0 399.0Q11.0 389.0 11.75 378.0Q12.5 367.0 12.5 357.5Q12.5 345.0 11.25 332.75Q10.0 320.5 10.0 308.0V305.5Q10.0 304.0 10.5 303.0Q11.5 300.0 15.0 300.0Q18.0 300.0 22.5 302.0Q27.0 304.0 31.0 306.5Q36.5 309.5 40.75 312.25Q45.0 315.0 47.0 316.0Q57.5 322.5 68.75 328.25Q80.0 334.0 91.0 340.0Q90.5 322.5 90.5 309.75Q90.5 297.0 90.5 286.0Q90.5 275.5 90.0 267.75Q89.5 260.0 88.5 253.0Q86.5 238.0 79.75 222.0Q73.0 206.0 58.5 177.0L54.5 179.0Q53.0 180.0 50.5 180.0Q50.0 180.5 49.75 180.5Q49.5 180.5 49.0 181.0Q47.0 181.0 46.5 180.5Q46.0 180.0 45.5 180.0Q45.5 179.0 45.25 178.25Q45.0 177.5 45.0 177.0V156.5Q45.0 139.5 44.25 123.25Q43.5 107.0 43.5 90.0Z" fill="black" /></svg>