<svg xmlns="http://www.w3.org/2000/svg" width="640.0" height="446.5" viewBox="0 0 640.0 446.5"><path d="M56.5 276.5Q56.5 274.0 50.75 272.25Q45.0 270.5 42.5 270.5Q40.5 270.5 40.5 271.0Q40.5 272.5 41.0 273.5Q42.5 275.5 43.5 282.25Q44.5 289.0 44.5 294.5V305.5L62.5 297.0Q71.0 293.0 79.25 290.25Q87.5 287.5 91.0 287.5Q97.5 287.5 97.5 284.5Q97.5 282.5 90.5 281.5Q83.5 280.5 75.0 280.5H64.0Q56.5 280.5 56.5 276.5ZM271.5 254.5Q273.5 252.0 275.25 249.75Q277.0 247.5 278.0 246.0Q273.0 248.5 263.0 253.75Q253.0 259.0 242.75 264.75Q232.5 270.5 225.25 274.75Q218.0 279.0 218.0 280.0Q218.0 280.5 222.0 281.75Q226.0 283.0 232.0 284.0H233.0Q235.5 284.5 237.25 284.75Q239.0 285.0 241.0 285.0Q246.5 285.0 252.0 279.0Q257.5 273.0 271.5 254.5ZM290.5 336.0Q281.5 325.0 276.5 325.0Q275.0 325.0 266.0 329.0Q264.0 331.0 262.5 331.75Q261.0 332.5 261.0 332.5Q261.0 333.0 273.5 337.0Q289.5 343.5 295.0 343.5L296.0 344.0Q296.0 341.0 290.5 336.0ZM301.0 326.5Q303.0 326.5 307.5 320.5Q312.0 314.5 316.0 308.0Q320.0 301.5 320.0 300.5Q318.0 300.5 314.5 302.75Q311.0 305.0 305.0 309.0Q298.5 312.5 296.0 315.0Q293.5 317.5 293.5 318.5Q293.5 319.5 297.5 325.0Q298.5 325.5 299.5 326.0Q300.5 326.5 301.0 326.5ZM82.5 116.0H62.0Q41.0 116.0 41.0 118.5Q42.0 119.5 43.25 123.75Q44.5 128.0 45.5 132.0Q47.0 135.5 50.0 144.5Q53.0 153.5 56.0 161.5Q59.0 169.5 61.0 169.5V167.0Q61.0 165.0 65.0 155.0Q69.0 145.0 74.0 133.5Q79.0 122.0 82.5 116.0ZM522.0 98.5 519.5 85.0 405.0 85.5Q317.5 86.0 252.25 91.5Q187.0 97.0 149.25 106.75Q111.5 116.5 106.5 130.0Q104.5 135.5 97.0 135.5Q96.5 135.5 96.0 135.25Q95.5 135.0 94.0 135.0Q87.5 135.0 83.0 143.0Q78.5 151.0 75.25 163.0Q72.0 175.0 70.0 188.25Q68.0 201.5 67.0 212.0Q66.0 222.5 66.0 227.0Q66.0 236.5 67.5 246.5Q68.5 257.0 70.75 261.5Q73.0 266.0 83.0 268.25Q93.0 270.5 116.0 273.5Q132.5 275.5 144.5 277.25Q156.5 279.0 166.0 279.0Q179.5 279.0 191.0 276.0Q202.5 273.0 216.5 266.0Q230.5 259.0 250.5 247.5Q276.5 233.0 291.0 224.75Q305.5 216.5 311.25 211.75Q317.0 207.0 317.0 203.0Q317.0 200.5 315.75 197.5Q314.5 194.5 312.5 191.0V191.5Q305.5 180.0 305.5 174.5L306.0 172.5H307.5Q312.0 172.5 326.5 180.5Q332.0 184.0 338.5 185.75Q345.0 187.5 349.0 187.5H350.0Q351.5 187.0 354.0 187.0Q360.5 187.0 364.5 192.0Q367.5 194.5 387.75 198.0Q408.0 201.5 439.25 204.5Q470.5 207.5 505.5 209.0Q509.5 209.0 512.75 209.75Q516.0 210.5 519.0 210.5Q528.0 210.5 530.75 209.25Q533.5 208.0 533.5 206.0Q533.5 202.0 532.0 187.5Q530.5 173.0 528.5 155.0Q526.5 137.0 524.75 121.25Q523.0 105.5 522.0 98.5ZM331.0 203.0Q332.0 202.5 332.0 200.5V198.5H331.0Q330.5 198.5 330.5 201.0Q330.5 203.0 331.0 203.0ZM382.5 211.5Q375.0 209.0 368.75 208.25Q362.5 207.5 358.0 207.5Q347.0 207.5 338.75 214.25Q330.5 221.0 330.5 233.0Q330.5 236.0 332.0 236.0L332.5 235.0Q333.5 234.5 344.25 230.75Q355.0 227.0 366.5 222.0Q372.5 219.5 378.5 217.25Q384.5 215.0 389.5 213.0H390.5Q390.5 213.0 382.5 211.5ZM182.0 74.5Q162.5 72.5 145.5 71.0Q128.5 69.5 124.0 68.0Q122.0 68.0 120.5 67.75Q119.0 67.5 118.0 67.5Q116.0 67.5 116.0 73.0V80.0Q116.0 89.0 118.0 92.75Q120.0 96.5 126.5 96.5Q128.0 96.5 129.75 96.5Q131.5 96.5 134.0 96.0Q134.5 96.0 140.0 95.25Q145.5 94.5 153.0 92.5Q160.0 91.5 168.25 90.0Q176.5 88.5 186.0 87.5Q205.0 84.0 218.5 81.75Q232.0 79.5 231.0 79.5Q231.0 78.5 216.5 76.75Q202.0 75.0 182.0 74.5ZM579.0 50.0 557.0 46.5Q546.5 45.0 537.0 43.5Q527.5 42.0 523.5 40.5Q520.0 39.0 518.0 39.0Q518.0 40.5 519.5 43.5Q521.5 48.0 525.0 63.0Q528.5 78.0 532.5 97.0Q536.5 116.0 539.0 133.0L541.5 145.5L550.0 116.0Q554.0 101.0 560.25 85.25Q566.5 69.5 570.5 63.5ZM492.5 13.0Q492.5 10.0 494.5 10.0Q497.0 10.0 501.75 12.75Q506.5 15.5 513.0 20.0V19.5Q521.5 25.0 528.5 28.0Q535.5 31.0 547.0 32.0Q558.5 33.0 579.5 34.0Q600.5 34.5 615.25 36.75Q630.0 39.0 630.0 41.5Q630.0 44.0 626.0 46.0Q622.0 48.0 616.5 48.0Q603.0 48.0 594.0 54.75Q585.0 61.5 576.5 78.5Q566.0 98.5 560.0 119.5Q554.0 140.5 551.25 167.25Q548.5 194.0 547.0 233.0Q546.5 262.0 546.0 283.75Q545.5 305.5 545.0 308.0Q544.0 311.0 542.5 311.0Q541.0 311.0 539.0 302.0Q537.0 293.0 535.75 279.5Q534.5 266.0 534.0 253.0L533.5 221.0H478.0Q413.0 221.0 372.75 232.5Q332.5 244.0 327.0 264.5Q325.5 271.0 323.5 273.75Q321.5 276.5 320.0 277.0Q315.0 276.0 315.0 264.5Q315.0 261.0 315.5 257.5Q316.0 254.0 316.5 250.5L318.5 230.0L296.5 248.0Q287.5 257.0 279.25 266.25Q271.0 275.5 269.0 279.0Q268.5 282.0 267.75 284.5Q267.0 287.0 267.0 289.5Q267.0 295.0 269.0 299.75Q271.0 304.5 275.0 307.0H276.0Q279.5 307.0 289.75 302.25Q300.0 297.5 312.75 290.25Q325.5 283.0 337.0 275.75Q348.5 268.5 354.5 263.5Q364.5 255.0 367.5 255.0Q370.0 255.0 370.0 259.0Q370.0 266.5 354.5 283.0Q348.5 289.5 339.25 299.5Q330.0 309.5 323.0 320.75Q316.0 332.0 316.0 342.5Q316.0 348.0 320.0 348.0Q322.5 348.0 324.0 350.75Q325.5 353.5 325.5 357.5Q325.5 361.0 330.0 366.0Q334.5 371.0 341.0 376.0V375.5Q354.5 385.0 367.0 396.25Q379.5 407.5 387.75 417.25Q396.0 427.0 396.0 431.5Q396.0 436.5 393.0 436.5Q390.0 436.5 379.5 425.0Q368.0 411.5 349.25 397.0Q330.5 382.5 309.5 370.25Q288.5 358.0 269.75 350.5Q251.0 343.0 239.5 343.0Q229.0 343.0 228.0 337.0Q228.5 334.5 232.25 331.0Q236.0 327.5 244.0 325.5Q251.5 322.5 257.0 320.0Q262.5 317.5 262.5 317.0Q262.5 316.0 258.5 312.5Q254.5 309.0 249.5 305.5Q244.0 301.0 230.25 298.0Q216.5 295.0 198.5 293.5Q180.5 292.0 161.5 292.0Q150.0 292.0 131.25 293.5Q112.5 295.0 93.0 299.5Q73.5 304.0 58.75 312.0Q44.0 320.0 40.0 333.0Q37.5 340.0 33.75 343.75Q30.0 347.5 28.0 347.5Q24.0 347.5 24.0 343.0Q24.0 341.5 24.25 340.0Q24.5 338.5 25.0 336.5Q28.0 326.5 29.25 315.5Q30.5 304.5 30.5 295.0Q30.5 286.0 29.5 278.75Q28.5 271.5 25.5 266.5Q23.5 261.0 22.0 257.25Q20.5 253.5 20.5 250.5Q20.5 246.5 25.0 246.5Q29.0 246.5 38.5 251.5Q44.0 254.5 49.0 257.25Q54.0 260.0 55.5 260.0Q55.5 260.0 55.75 258.75Q56.0 257.5 56.0 254.5Q56.0 244.5 53.5 226.5Q51.0 208.5 47.25 188.25Q43.5 168.0 39.5 151.75Q35.5 135.5 32.5 129.0Q30.5 125.5 26.0 119.5Q21.5 113.5 17.5 109.0Q13.5 105.0 11.75 101.75Q10.0 98.5 10.0 97.0Q10.0 92.5 13.5 92.5Q16.5 92.5 21.25 94.25Q26.0 96.0 32.5 98.5Q44.0 104.0 62.5 104.0Q65.5 104.0 68.75 104.0Q72.0 104.0 76.0 103.5Q89.5 102.0 95.5 100.5Q101.5 99.0 102.75 95.75Q104.0 92.5 104.0 85.0Q104.0 67.5 82.5 60.5H83.5Q80.0 60.0 80.0 55.5Q80.0 54.5 80.5 53.25Q81.0 52.0 81.5 51.5L81.0 52.0Q82.0 51.0 87.5 51.0Q94.0 51.0 104.75 52.0Q115.5 53.0 128.5 55.5Q142.0 58.0 169.0 60.25Q196.0 62.5 231.75 64.5Q267.5 66.5 307.25 68.0Q347.0 69.5 385.75 70.5Q424.5 71.5 457.0 71.5Q489.0 71.5 501.75 70.75Q514.5 70.0 514.5 68.0Q514.5 66.5 511.25 58.25Q508.0 50.0 503.0 41.0Q498.5 31.5 495.5 23.5Q492.5 15.5 492.5 13.0Z" fill="black" /></svg>