<svg xmlns="http://www.w3.org/2000/svg" width="839.0" height="464.0" viewBox="0 0 839.0 464.0"><path d="M49.0 264.0Q37.5 256.0 34.0 256.0Q31.0 256.0 30.5 260.75Q30.0 265.5 30.0 277.0V298.0L46.0 289.0Q62.0 279.0 62.0 276.0Q62.0 272.0 49.0 264.0ZM132.0 336.5Q127.5 334.5 123.75 333.25Q120.0 332.0 116.0 330.5Q108.5 328.5 103.5 327.0Q98.5 325.5 97.5 325.5Q96.5 325.5 95.75 332.5Q95.0 339.5 95.0 349.5V352.0Q95.0 363.0 96.5 368.0Q98.0 373.0 104.5 373.0Q110.0 373.0 120.0 370.25Q130.0 367.5 145.5 364.0Q175.0 354.5 175.0 353.0Q175.0 353.0 174.5 352.75Q174.0 352.5 172.0 352.0Q167.5 350.0 155.5 345.5Q143.5 341.0 132.0 336.5ZM263.0 232.0Q263.0 232.0 262.75 231.25Q262.5 230.5 262.0 230.5Q259.0 231.5 251.5 235.5Q244.0 239.5 237.25 244.5Q230.5 249.5 230.5 253.0Q230.5 255.5 241.5 258.5Q242.5 259.0 246.5 259.0Q252.5 259.0 257.5 249.0Q260.0 242.5 261.5 237.75Q263.0 233.0 263.0 232.0ZM396.5 251.5V250.0Q396.5 250.0 390.25 248.75Q384.0 247.5 376.0 245.5Q366.5 244.0 362.5 244.0Q360.0 244.0 360.0 245.0Q360.0 245.5 360.0 247.0Q360.0 248.5 360.5 249.5Q362.0 253.0 363.25 258.75Q364.5 264.5 364.5 268.5Q364.5 274.5 369.5 274.5Q372.5 274.5 379.0 269.5Q385.5 264.5 391.0 259.0Q396.5 253.5 396.5 251.5ZM566.0 273.0V249.0Q564.5 249.0 559.25 254.25Q554.0 259.5 547.75 266.75Q541.5 274.0 536.25 280.5Q531.0 287.0 530.0 289.5Q532.5 290.0 538.75 291.75Q545.0 293.5 551.5 294.75Q558.0 296.0 560.5 296.0Q564.5 296.0 565.25 291.25Q566.0 286.5 566.0 273.0ZM90.5 104.0 75.0 94.0Q68.5 90.5 62.75 87.75Q57.0 85.0 56.0 85.0Q55.0 85.0 54.5 90.75Q54.0 96.5 54.0 106.0Q54.0 115.0 54.5 121.75Q55.0 128.5 56.0 128.5Q57.0 128.5 62.75 124.5Q68.5 120.5 75.0 115.5ZM91.0 153.5V153.0Q91.0 149.0 85.0 149.0Q77.5 149.0 77.5 153.0V153.5Q80.0 158.0 85.0 158.0Q86.0 158.0 88.25 156.75Q90.5 155.5 91.0 153.5ZM128.5 164.0H128.0Q122.0 156.0 117.0 156.0Q111.5 156.0 103.0 169.0Q98.0 177.0 95.5 186.75Q93.0 196.5 93.0 214.5Q93.0 220.0 93.0 226.0Q93.0 232.0 93.5 239.5L95.0 262.5H141.0L138.0 218.0Q137.0 199.0 134.5 183.25Q132.0 167.5 128.5 164.0ZM151.5 156.5Q151.5 154.0 150.0 151.5Q148.5 149.0 146.0 149.0Q144.5 149.0 143.25 151.5Q142.0 154.0 142.0 156.5Q142.0 162.5 146.0 162.5Q151.5 162.5 151.5 156.5ZM776.0 181.0Q776.0 178.0 770.5 176.0Q765.0 174.0 757.25 173.25Q749.5 172.5 743.0 172.25Q736.5 172.0 734.5 172.0Q730.0 172.0 726.5 172.25Q723.0 172.5 723.0 172.5Q723.0 173.5 727.0 181.0Q731.0 188.5 736.5 197.5L749.5 221.0Q753.0 215.5 756.75 210.75Q760.5 206.0 763.5 201.0Q776.0 186.5 776.0 181.0ZM284.0 80.5Q285.0 78.0 285.0 76.75Q285.0 75.5 285.0 74.5Q285.0 73.0 284.0 73.0Q281.0 73.0 273.75 77.25Q266.5 81.5 260.25 86.25Q254.0 91.0 254.0 93.5Q254.0 95.5 258.25 97.25Q262.5 99.0 267.5 100.0Q272.5 101.0 274.5 101.0Q280.0 101.0 280.0 96.5Q280.0 88.5 284.0 80.5ZM385.0 140.5 395.0 137.5 382.5 123.5 370.0 108.0 364.5 121.5Q362.5 128.0 360.75 132.75Q359.0 137.5 359.0 140.0Q359.0 145.0 365.0 145.0Q368.5 145.0 373.5 143.75Q378.5 142.5 385.0 140.5ZM599.0 192.5Q604.5 192.5 607.75 185.75Q611.0 179.0 612.5 170.5Q614.0 162.0 614.0 158.0Q614.0 156.5 613.5 156.5Q610.5 156.5 605.0 162.25Q599.5 168.0 594.75 174.75Q590.0 181.5 590.0 186.0V186.5Q594.5 192.5 599.0 192.5ZM761.0 76.5Q761.0 72.5 749.0 72.5Q735.0 72.5 735.0 76.5Q735.0 79.5 738.75 85.25Q742.5 91.0 745.5 91.0Q746.5 91.0 748.75 90.0Q751.0 89.0 753.5 88.5Q761.0 81.0 761.0 76.5ZM84.5 321.0Q87.5 298.0 96.0 298.0Q100.0 298.0 104.5 305.0Q108.5 311.0 124.0 318.25Q139.5 325.5 162.25 331.75Q185.0 338.0 210.0 342.5Q236.5 347.0 288.0 348.75Q339.5 350.5 425.5 350.5H595.0Q599.0 350.5 599.0 354.5Q599.0 357.0 597.5 358.0H598.0Q596.5 359.5 578.75 361.0Q561.0 362.5 530.25 363.5Q499.5 364.5 460.25 365.5Q421.0 366.5 377.0 367.0Q316.5 367.5 276.25 368.25Q236.0 369.0 210.75 370.0Q185.5 371.0 170.5 372.5Q155.5 374.0 146.25 376.25Q137.0 378.5 127.5 382.0Q112.5 387.5 100.75 391.5Q89.0 395.5 86.5 395.5Q83.5 395.5 82.0 386.75Q80.5 378.0 80.5 365.5Q80.5 355.5 81.5 344.0Q82.5 332.5 84.5 321.0ZM325.5 19.5Q329.5 10.0 336.0 10.0Q342.0 10.0 342.0 17.5Q342.0 19.5 337.5 26.75Q333.0 34.0 327.0 41.0Q323.5 45.0 316.25 55.25Q309.0 65.5 303.0 76.5Q297.0 87.5 297.0 93.0Q297.0 96.5 298.5 99.5Q300.0 102.5 303.0 107.0Q307.0 113.5 313.5 120.0Q320.0 126.5 326.0 129.5Q333.5 135.5 338.0 135.5Q343.0 135.5 347.0 127.5Q351.0 119.5 356.0 101.0Q362.5 76.0 369.0 76.0Q373.5 76.0 380.5 92.0Q388.0 113.0 414.25 128.5Q440.5 144.0 489.0 158.0Q505.5 162.5 520.75 166.25Q536.0 170.0 547.0 172.25Q558.0 174.5 561.0 174.5Q567.0 174.5 582.5 161.75Q598.0 149.0 621.0 125.5Q640.5 104.0 652.0 94.0Q663.5 84.0 667.0 84.0Q670.5 84.0 670.5 89.0Q670.5 92.5 668.25 97.5Q666.0 102.5 663.5 104.5Q660.0 106.5 654.0 116.5Q648.0 126.5 641.75 139.5Q635.5 152.5 631.25 164.25Q627.0 176.0 627.0 181.0Q627.0 192.5 638.25 201.25Q649.5 210.0 674.0 221.5Q688.5 229.5 700.0 236.75Q711.5 244.0 711.5 247.0Q711.5 251.0 710.25 252.25Q709.0 253.5 707.0 253.5H706.0Q698.5 249.5 685.25 243.25Q672.0 237.0 656.25 230.25Q640.5 223.5 626.75 219.0Q613.0 214.5 605.0 214.5Q594.0 214.5 589.0 223.25Q584.0 232.0 580.5 255.5Q578.5 263.5 578.5 270.0Q578.5 280.0 587.5 289.25Q596.5 298.5 609.75 306.5Q623.0 314.5 635.75 320.25Q648.5 326.0 655.5 329.0Q685.0 341.0 701.5 350.5Q718.0 360.0 718.0 365.5Q718.0 366.5 716.5 368.0H717.0Q716.0 369.0 713.5 369.0Q710.0 369.0 699.5 365.25Q689.0 361.5 677.0 355.0Q649.0 341.5 619.5 330.75Q590.0 320.0 564.25 313.5Q538.5 307.0 522.0 307.0H488.5L533.5 261.5Q549.5 245.0 558.25 234.25Q567.0 223.5 567.0 221.0H566.0Q560.5 221.0 543.25 225.0Q526.0 229.0 503.75 234.75Q481.5 240.5 460.5 246.75Q439.5 253.0 426.0 258.0Q416.5 262.0 404.25 270.0Q392.0 278.0 384.5 285.0Q369.0 298.0 363.0 298.0Q362.5 298.0 360.5 297.0Q359.0 294.0 356.0 282.75Q353.0 271.5 349.5 257.25Q346.0 243.0 343.75 231.0Q341.5 219.0 341.5 214.5Q341.5 212.5 342.0 212.0H343.0Q345.5 212.0 352.25 214.75Q359.0 217.5 366.5 222.5Q388.5 234.5 418.0 234.5Q432.5 234.5 451.5 231.25Q470.5 228.0 489.25 222.75Q508.0 217.5 522.5 211.5Q537.0 205.5 542.0 200.0Q547.0 193.5 547.0 192.0Q547.0 190.0 541.25 187.5Q535.5 185.0 520.5 181.5Q476.5 168.5 445.25 162.5Q414.0 156.5 396.5 156.5Q375.0 156.5 375.0 164.5V165.5Q375.0 166.5 375.5 167.75Q376.0 169.0 376.0 170.0Q376.0 177.5 372.5 177.5Q370.0 177.5 362.5 173.75Q355.0 170.0 347.0 164.5Q339.0 159.0 333.5 153.5Q328.5 149.5 316.5 141.75Q304.5 134.0 291.0 128.0Q281.5 122.5 273.25 119.0Q265.0 115.5 255.0 113.5Q245.0 111.5 230.0 110.5Q215.0 109.5 192.0 109.0Q181.0 108.5 171.75 108.5Q162.5 108.5 154.5 108.5Q133.0 108.5 121.5 110.25Q110.0 112.0 100.0 117.0Q90.0 120.5 83.5 125.0Q77.0 129.5 77.0 130.5Q77.0 132.0 93.25 132.75Q109.5 133.5 132.5 133.5Q155.0 133.5 172.25 135.0Q189.5 136.5 189.5 139.0Q189.5 140.5 184.25 147.0Q179.0 153.5 170.5 160.0Q162.5 167.5 159.0 173.0Q155.5 178.5 154.5 188.75Q153.5 199.0 153.5 220.0Q153.5 241.0 154.0 249.75Q154.5 258.5 157.75 260.5Q161.0 262.5 168.0 262.5Q173.5 262.5 186.5 256.25Q199.5 250.0 217.0 240.0Q234.5 230.0 253.25 217.25Q272.0 204.5 288.5 192.0Q303.0 178.0 309.0 178.0Q312.5 178.0 312.5 185.0Q312.5 188.5 310.5 192.75Q308.5 197.0 305.5 198.5Q302.5 200.5 297.25 207.5Q292.0 214.5 286.75 223.0Q281.5 231.5 277.75 239.0Q274.0 246.5 274.0 250.5Q274.0 261.5 283.75 272.75Q293.5 284.0 302.0 289.5Q314.5 295.5 326.0 304.25Q337.5 313.0 345.0 320.5Q352.5 328.0 352.5 332.0Q352.5 333.5 351.5 334.5H349.5Q347.0 334.5 340.5 331.5Q334.0 328.5 326.5 322.5Q308.0 309.0 294.5 300.75Q281.0 292.5 268.25 288.25Q255.5 284.0 238.75 282.5Q222.0 281.0 196.0 281.0H170.0Q134.0 281.0 111.0 283.0Q88.0 285.0 74.0 289.5Q60.0 294.0 51.5 301.75Q43.0 309.5 36.5 322.0Q25.5 342.0 19.5 342.0Q10.0 342.0 10.0 321.0Q10.0 299.5 12.5 278.25Q15.0 257.0 18.75 242.5Q22.5 228.0 26.0 228.0Q28.5 228.0 35.0 232.0Q41.5 236.0 48.0 243.0Q53.5 248.5 60.5 252.5Q67.5 256.5 72.0 256.5Q76.0 256.5 78.25 254.5Q80.5 252.5 80.5 243.5Q80.5 237.0 79.25 223.0Q78.0 209.0 75.75 193.75Q73.5 178.5 70.0 167.75Q66.5 157.0 62.0 157.0Q61.0 157.0 57.0 161.5Q53.5 165.5 49.75 169.0Q46.0 172.5 44.5 172.5Q42.0 172.5 40.75 157.0Q39.5 141.5 39.5 121.5Q39.5 101.0 40.25 83.75Q41.0 66.5 43.0 61.5Q45.5 55.5 49.0 55.5Q52.0 55.5 56.25 59.25Q60.5 63.0 68.5 70.5Q75.5 77.5 80.75 81.25Q86.0 85.0 94.0 87.0Q102.0 89.0 116.25 89.5Q130.5 90.0 155.5 91.0L224.0 93.5L274.0 60.5Q294.5 46.5 309.5 34.5Q324.5 22.5 325.5 19.5ZM712.0 78.5 685.0 54.5 751.0 60.0Q787.0 62.0 805.5 65.5Q824.0 69.0 824.0 73.0Q824.0 77.0 806.0 81.0Q778.5 85.0 765.75 97.5Q753.0 110.0 753.0 132.5Q753.0 146.0 755.75 152.5Q758.5 159.0 768.5 160.75Q778.5 162.5 799.0 162.5Q811.0 162.5 820.0 164.5Q829.0 166.5 829.0 169.0Q828.5 171.5 821.0 176.75Q813.5 182.0 803.0 186.5Q790.0 193.5 781.25 202.0Q772.5 210.5 765.5 225.0Q761.0 234.5 758.25 243.0Q755.5 251.5 754.0 264.25Q752.5 277.0 751.75 297.75Q751.0 318.5 751.0 353.0Q751.0 381.0 749.75 404.0Q748.5 427.0 747.25 440.5Q746.0 454.0 744.5 454.0Q742.0 454.0 740.75 450.5Q739.5 447.0 738.75 433.0Q738.0 419.0 737.5 389.25Q737.0 359.5 736.5 307.0L735.0 219.5L717.0 193.0Q709.0 181.0 703.0 172.25Q697.0 163.5 697.0 161.5Q697.0 159.0 703.5 158.25Q710.0 157.5 719.5 157.5H740.5L737.5 129.0Q736.0 115.5 733.5 107.75Q731.0 100.0 726.25 93.5Q721.5 87.0 712.0 78.5Z" fill="black" /></svg>