<svg xmlns="http://www.w3.org/2000/svg" width="577.0" height="384.0" viewBox="0 0 577.0 384.0"><path d="M33.5 306.0Q36.5 302.0 36.5 300.5Q36.5 299.0 34.0 296.5Q32.5 294.5 31.5 294.5Q30.5 294.5 30.5 301.0Q30.5 308.0 31.5 308.0Q32.0 308.0 33.5 306.0ZM59.0 221.0Q57.0 221.0 53.0 220.5Q49.0 220.0 45.5 219.0Q43.5 218.0 42.0 218.0Q39.0 218.0 39.0 224.0Q39.0 233.0 42.5 233.0Q46.5 233.0 53.0 228.0Q59.5 223.0 59.5 220.5Q59.5 221.0 59.25 221.0Q59.0 221.0 59.0 221.0ZM130.0 287.0Q128.5 283.5 123.5 283.5Q120.0 283.5 120.0 286.5Q120.0 289.5 127.5 289.5Q130.5 289.5 130.5 288.5Q130.5 287.5 130.0 287.0ZM134.5 309.0 145.5 302.5H132.5Q122.0 302.5 118.75 304.0Q115.5 305.5 115.5 310.5Q115.5 318.0 117.5 318.0Q120.5 318.0 134.5 309.0ZM53.0 157.5Q56.0 154.5 56.0 153.0Q56.0 152.0 53.5 149.5Q51.0 147.0 49.5 147.0Q48.5 147.0 48.5 153.5Q48.5 159.5 49.0 159.5Q50.0 159.5 50.75 158.75Q51.5 158.0 53.0 157.5ZM126.5 178.0 129.5 150.0H72.0L58.5 171.5Q45.0 192.5 45.0 199.0Q45.0 205.0 57.0 208.0Q62.0 209.5 72.25 210.0Q82.5 210.5 93.0 210.5Q103.5 210.5 111.75 210.0Q120.0 209.5 121.0 208.5Q122.0 207.5 123.75 198.75Q125.5 190.0 126.5 178.0ZM84.5 73.5Q74.5 70.0 67.5 70.0Q58.5 70.0 58.5 82.5Q58.5 87.0 60.0 87.0Q62.0 87.0 66.0 85.5Q70.0 84.0 76.5 81.5Q90.0 76.0 90.0 75.0Q90.0 75.0 88.5 74.5Q87.0 74.0 84.5 73.5ZM156.5 152.5Q156.5 150.0 153.0 150.0Q148.0 150.0 144.0 154.75Q140.0 159.5 140.0 164.5Q142.0 164.5 148.0 160.0Q151.5 158.0 154.0 155.5Q156.5 153.0 156.5 152.5ZM297.0 226.0 296.5 225.5Q296.0 224.0 273.25 222.5Q250.5 221.0 211.5 221.0H199.0Q161.0 221.0 136.5 222.25Q112.0 223.5 96.25 226.0Q80.5 228.5 69.5 233.5Q58.5 238.5 47.5 246.0Q41.0 250.5 37.75 257.5Q34.5 264.5 34.5 271.0Q34.5 280.5 40.5 283.5Q43.0 285.0 49.5 285.75Q56.0 286.5 65.5 286.5Q68.5 286.5 71.75 286.25Q75.0 286.0 78.5 286.0L108.5 284.5V269.5Q108.5 252.5 114.0 252.5Q118.0 252.5 124.0 265.0Q127.5 271.0 135.0 274.75Q142.5 278.5 160.0 280.25Q177.5 282.0 211.0 282.0Q245.0 282.0 300.5 280.5L429.0 277.5L377.0 256.5Q353.0 246.5 333.25 238.75Q313.5 231.0 309.5 231.0Q306.0 231.0 302.0 229.25Q298.0 227.5 297.0 226.0ZM363.0 234.0Q361.0 231.5 359.0 224.5Q357.0 217.5 356.0 210.5L354.0 194.5L339.5 204.5Q334.0 208.5 329.5 212.75Q325.0 217.0 325.0 218.0Q325.0 219.5 333.0 223.5Q341.0 227.5 350.0 230.75Q359.0 234.0 362.5 234.0ZM439.5 182.0Q435.5 179.5 427.0 174.5Q418.5 169.5 410.5 165.0Q402.5 160.5 398.5 159.5Q398.0 160.0 395.0 162.5Q392.0 165.0 388.0 168.0Q379.0 176.0 373.5 186.5Q368.0 197.0 368.0 209.5Q368.0 222.0 384.5 237.5Q401.0 253.0 425.5 263.0Q435.0 267.0 441.75 271.25Q448.5 275.5 448.5 277.5Q448.5 278.5 455.0 279.5Q461.5 280.5 470.0 280.5H491.0L488.5 246.0Q487.5 231.0 485.5 219.75Q483.5 208.5 482.5 207.0Q480.5 205.5 468.0 198.25Q455.5 191.0 439.5 182.0ZM266.0 133.5 356.5 132.0 418.5 75.0H279.0Q230.0 75.0 200.5 75.25Q171.0 75.5 154.0 76.25Q137.0 77.0 126.75 79.0Q116.5 81.0 106.0 84.0Q76.0 93.5 65.25 100.25Q54.5 107.0 54.5 118.5V122.5L56.0 135.0L132.5 138.0V122.5Q132.5 104.5 139.0 104.5Q143.5 104.5 146.5 116.5Q149.5 127.5 161.0 131.5Q165.0 132.5 181.0 133.25Q197.0 134.0 220.0 134.0Q230.5 134.0 242.25 134.0Q254.0 134.0 266.0 133.5ZM377.0 149.5V150.0Q373.5 148.5 351.5 147.5Q329.5 146.5 296.5 146.5H280.5Q251.5 146.5 233.5 147.0Q215.5 147.5 205.0 148.25Q194.5 149.0 188.5 150.75Q182.5 152.5 177.0 155.0Q167.5 160.0 158.0 168.75Q148.5 177.5 141.75 186.5Q135.0 195.5 133.5 202.0Q133.0 203.0 133.0 204.5Q133.0 206.5 139.25 207.75Q145.5 209.0 164.5 209.25Q183.5 209.5 221.0 209.5H313.5Q316.0 207.5 323.5 202.0Q331.0 196.5 333.5 194.5Q336.0 192.5 338.75 190.25Q341.5 188.0 344.5 186.0Q346.0 184.5 352.0 180.0Q358.0 175.5 365.0 170.0Q372.0 164.5 377.0 159.75Q382.0 155.0 382.0 153.5Q382.0 152.5 380.75 152.0Q379.5 151.5 377.0 149.5ZM412.0 118.5Q412.0 117.5 412.25 112.75Q412.5 108.0 412.75 103.0Q413.0 98.0 413.0 97.5Q411.0 99.0 404.75 104.75Q398.5 110.5 391.0 117.5Q383.5 124.5 378.25 130.0Q373.0 135.5 373.0 136.5Q373.0 138.0 378.0 138.0Q380.5 138.0 387.75 140.75Q395.0 143.5 403.0 148.0Q415.5 154.5 417.5 154.5Q417.0 153.5 416.75 152.5Q416.5 151.5 415.5 150.5Q414.0 147.0 413.0 137.5Q412.0 128.0 412.0 118.5ZM479.5 81.0Q479.5 74.0 478.75 65.75Q478.0 57.5 474.5 51.5L468.5 40.0L452.5 58.0Q442.0 70.0 436.5 78.0Q431.0 86.0 428.25 94.0Q425.5 102.0 423.0 114.0Q422.5 117.5 422.25 120.25Q422.0 123.0 422.0 125.5Q422.0 133.5 428.25 144.25Q434.5 155.0 443.75 165.25Q453.0 175.5 462.75 182.0Q472.5 188.5 479.0 188.5Q480.5 188.5 480.5 182.5Q480.5 173.0 475.75 159.0Q471.0 145.0 464.25 132.0Q457.5 119.0 451.0 113.5Q445.5 109.0 441.5 104.5Q437.5 100.0 437.5 98.5Q437.5 97.0 441.25 96.0Q445.0 95.0 450.0 95.0Q452.0 95.0 454.5 95.0Q457.0 95.0 459.0 95.5Q462.5 96.0 465.0 96.0Q467.5 96.0 469.5 96.0Q476.0 96.0 477.5 93.25Q479.0 90.5 479.5 81.0ZM521.0 118.0 523.5 112.5Q523.5 112.0 515.25 112.0Q507.0 112.0 496.5 112.0H469.0L478.0 131.0Q482.0 139.0 485.25 150.75Q488.5 162.5 490.0 171.5Q493.0 192.0 496.5 192.0Q499.0 192.0 501.5 176.5Q503.5 161.5 509.0 146.5Q514.5 131.5 521.0 118.0ZM509.0 41.5 523.0 26.5H473.5Q476.0 30.5 478.5 34.75Q481.0 39.0 483.0 43.0Q486.0 49.0 489.25 54.5Q492.5 60.0 492.5 60.0Q493.5 58.5 495.5 56.5Q497.5 54.5 500.0 51.5Q501.5 49.0 504.0 46.5Q506.5 44.0 509.0 41.5ZM490.5 12.5Q515.0 11.5 535.25 11.0Q555.5 10.5 558.5 10.0H561.0Q567.0 10.0 567.0 15.0Q567.0 18.0 563.5 21.5Q560.0 25.0 554.5 26.0Q546.5 27.5 535.75 35.25Q525.0 43.0 515.0 54.0Q505.0 65.0 498.5 76.0Q492.0 87.0 492.0 94.5Q492.0 96.5 496.0 98.0Q500.0 99.5 505.5 99.5Q512.5 99.5 520.0 97.75Q527.5 96.0 533.0 92.5Q539.0 87.0 544.5 87.0Q547.5 87.0 551.0 90.5Q553.5 94.0 553.5 95.5Q553.5 99.0 547.5 103.0Q541.5 106.5 535.0 119.25Q528.5 132.0 522.5 150.25Q516.5 168.5 511.5 188.75Q506.5 209.0 503.75 228.0Q501.0 247.0 501.0 261.0Q501.0 279.5 507.0 282.0Q510.0 283.5 511.0 286.0Q510.0 289.0 506.0 292.0Q504.0 293.0 502.75 296.75Q501.5 300.5 501.5 309.0Q501.5 317.5 503.0 333.5Q503.5 338.5 503.75 343.75Q504.0 349.0 504.0 353.5Q504.0 362.5 503.0 368.25Q502.0 374.0 500.5 374.0Q498.0 374.0 495.5 365.5Q493.0 357.0 491.5 343.25Q490.0 329.5 490.0 314.5V292.5H204.0L173.0 306.0Q143.0 319.0 125.0 330.0Q107.0 341.0 103.5 350.5Q101.0 359.0 99.5 359.0Q97.0 359.0 95.5 354.0V354.5Q95.0 353.0 94.25 351.0Q93.5 349.0 93.5 347.0Q93.5 344.0 94.5 340.25Q95.5 336.5 97.0 333.0Q104.0 320.5 104.0 308.5Q104.0 301.0 100.75 299.5Q97.5 298.0 81.5 298.0Q66.5 298.0 60.0 300.0Q53.5 302.0 46.5 310.0Q42.0 315.5 36.5 324.5Q31.0 333.5 27.5 340.5Q18.5 359.5 13.0 359.5Q10.0 359.5 10.0 353.0Q10.0 351.5 10.25 349.25Q10.5 347.0 11.0 344.0Q12.0 338.0 14.5 322.0Q17.0 306.0 18.5 289.0Q20.5 271.5 23.0 249.75Q25.5 228.0 27.5 215.0Q29.5 202.5 32.0 181.5Q34.5 160.5 36.0 144.0Q37.0 126.5 38.75 112.75Q40.5 99.0 42.5 97.5H42.0Q44.0 95.0 46.0 86.75Q48.0 78.5 49.5 69.0Q50.5 58.0 53.0 50.0Q55.5 42.0 58.0 42.0Q60.5 42.0 61.75 44.25Q63.0 46.5 63.0 48.5Q63.0 52.5 69.25 55.0Q75.5 57.5 92.25 59.0Q109.0 60.5 139.75 61.0Q170.5 61.5 219.0 61.5H430.5Q433.0 59.5 438.75 53.75Q444.5 48.0 449.75 42.0Q455.0 36.0 455.0 34.0Q455.0 30.0 443.0 28.0Q428.0 25.0 428.0 21.0Q428.0 14.0 490.5 12.5Z" fill="black" /></svg>