<svg xmlns="http://www.w3.org/2000/svg" width="425.5" height="450.0" viewBox="0 0 425.5 450.0"><path d="M96.0 272.5 91.0 257.5Q89.0 260.5 84.25 267.0Q79.5 273.5 74.75 280.5Q70.0 287.5 67.0 292.0Q65.0 294.5 59.25 301.75Q53.5 309.0 47.5 316.0Q41.5 323.0 38.5 324.5Q42.5 324.5 50.75 324.0Q59.0 323.5 70.0 323.5Q75.5 323.5 82.0 323.75Q88.5 324.0 94.0 324.5L136.5 329.0Q124.0 316.0 113.0 303.0Q102.0 290.0 96.0 272.5ZM217.0 276.5 203.0 269.0Q199.5 267.0 195.5 264.0Q191.5 261.0 188.0 258.0Q185.0 254.0 183.5 254.0L181.0 300.5Q186.5 296.5 191.75 293.5Q197.0 290.5 202.0 286.5ZM216.5 203.0Q214.0 201.0 209.75 198.5Q205.5 196.0 200.5 191.5L183.5 179.0L185.0 224.5Q193.5 217.5 201.5 212.25Q209.5 207.0 214.5 204.5Q215.5 203.5 216.5 203.0ZM303.5 125.0Q298.0 122.5 293.25 120.25Q288.5 118.0 283.5 116.0Q273.5 111.5 264.75 108.0Q256.0 104.5 244.0 102.5L239.0 102.0Q234.0 102.0 225.75 101.25Q217.5 100.5 206.5 100.5Q195.5 100.5 187.5 100.75Q179.5 101.0 174.0 102.0Q168.0 103.0 163.25 105.0Q158.5 107.0 152.0 111.5H153.0Q143.5 124.0 137.0 135.25Q130.5 146.5 130.5 159.5Q130.5 167.0 130.5 178.0Q130.5 189.0 130.0 200.5Q130.0 214.5 129.5 228.5Q129.0 242.5 129.0 254.0V295.5Q129.0 299.0 126.5 300.0L149.0 320.0Q153.5 324.0 169.5 332.75Q185.5 341.5 207.75 353.0Q230.0 364.5 254.0 376.0Q278.0 387.5 299.5 397.5Q321.0 407.5 335.0 413.75Q349.0 420.0 350.5 420.0Q350.0 420.0 350.0 412.0V391.5Q349.5 382.0 349.5 371.0Q349.5 360.0 349.5 348.5V279.5H270.0Q257.0 279.5 249.75 280.0Q242.5 280.5 237.75 281.75Q233.0 283.0 227.0 286.5L211.5 295.0Q209.5 295.5 206.5 298.25Q203.5 301.0 200.0 303.5Q192.5 309.5 184.0 315.75Q175.5 322.0 171.5 322.0H171.0Q168.5 322.0 168.5 315.0Q168.5 312.0 169.0 307.0Q169.5 302.0 170.0 295.5Q171.0 285.0 171.5 272.5V268.5Q172.0 265.0 172.25 262.0Q172.5 259.0 172.5 255.5Q172.5 253.0 172.25 249.75Q172.0 246.5 171.5 243.0Q171.0 241.5 171.0 239.25Q171.0 237.0 171.0 235.0Q171.0 232.5 171.0 230.5Q171.0 228.5 171.5 226.5Q172.5 220.5 172.5 213.25Q172.5 206.0 172.5 199.5Q172.5 192.5 172.5 186.25Q172.5 180.0 172.0 175.0V162.5Q172.0 149.5 176.5 149.5Q177.5 149.5 183.5 156.5Q189.5 162.5 197.75 170.5Q206.0 178.5 214.25 184.5Q222.5 190.5 228.0 191.0L259.0 192.5H280.5Q316.5 192.5 332.0 191.75Q347.5 191.0 347.5 191.0Q347.0 187.0 344.75 176.5Q342.5 166.0 340.0 159.0Q338.0 150.5 336.0 144.75Q334.0 139.0 334.0 139.0Q331.5 137.5 325.25 134.75Q319.0 132.0 312.75 129.0Q306.5 126.0 303.5 125.0ZM259.0 264.5H349.5L348.5 206.0H270.5Q252.5 206.0 239.0 208.25Q225.5 210.5 213.75 217.25Q202.0 224.0 188.0 238.0L204.0 253.0Q222.0 266.0 245.5 266.0Q249.0 266.0 252.25 265.75Q255.5 265.5 259.0 264.5ZM130.5 119.5 143.0 103.5H102.0L108.0 112.5L120.5 141.5Q122.0 137.5 124.5 130.5Q127.0 123.5 130.5 119.5ZM216.0 54.5Q216.0 53.0 215.5 48.5Q215.0 44.0 214.5 40.25Q214.0 36.5 214.0 36.5Q212.0 38.5 205.75 45.75Q199.5 53.0 187.5 70.5L175.0 90.0Q177.5 90.0 179.5 89.75Q181.5 89.5 183.5 89.0H228.0Q232.5 89.5 234.5 89.75Q236.5 90.0 240.5 90.0Q237.5 85.0 233.0 82.0Q226.5 76.0 222.75 70.5Q219.0 65.0 216.0 54.5ZM348.5 146.0 352.0 154.0 354.0 148.0ZM388.0 54.5H353.0Q337.5 54.5 328.25 55.25Q319.0 56.0 319.0 58.5Q319.0 59.5 321.75 66.5Q324.5 73.5 328.5 82.0Q333.5 92.0 336.0 103.25Q338.5 114.5 340.0 126.0L356.0 132.5Q358.0 121.0 363.0 108.0Q368.0 95.0 373.0 84.5Q380.0 73.0 384.0 64.0Q388.0 55.0 388.0 54.5ZM194.0 39.5Q202.5 27.5 209.5 18.75Q216.5 10.0 218.0 10.0Q225.0 10.0 225.0 27.5V31.0Q228.5 47.5 232.5 58.5Q236.5 69.5 247.75 78.75Q259.0 88.0 283.5 100.0Q294.5 105.0 304.75 110.0Q315.0 115.0 321.75 118.0Q328.5 121.0 328.5 121.0Q327.5 115.5 323.0 102.5Q318.5 89.5 311.0 74.0Q310.0 72.0 306.25 64.25Q302.5 56.5 299.25 49.25Q296.0 42.0 296.0 41.5Q296.0 39.5 299.5 39.0Q303.0 38.5 308.0 38.5Q319.5 38.5 337.0 39.0Q354.5 39.5 372.25 40.5Q390.0 41.5 402.25 42.25Q414.5 43.0 415.5 43.5V44.5Q415.5 46.5 412.5 50.75Q409.5 55.0 405.5 58.5Q400.5 63.5 394.25 74.0Q388.0 84.5 381.75 97.25Q375.5 110.0 371.25 121.5Q367.0 133.0 366.5 139.0Q369.0 140.0 377.25 144.25Q385.5 148.5 388.0 149.5Q391.0 152.0 394.5 152.5Q399.5 155.0 402.75 157.25Q406.0 159.5 406.0 162.5V164.0Q406.0 167.0 405.5 168.5Q405.0 170.0 402.5 170.0Q400.5 170.0 396.0 168.25Q391.5 166.5 383.0 162.0L366.0 152.5L363.5 187.5L364.5 439.5L363.5 440.0Q360.5 440.0 334.5 428.5Q308.5 417.0 271.5 398.5Q247.0 385.5 223.0 374.25Q199.0 363.0 181.25 355.75Q163.5 348.5 156.0 346.5Q133.0 341.0 108.25 340.25Q83.5 339.5 60.0 339.5Q49.0 339.5 42.0 339.5Q35.0 339.5 30.5 340.5Q27.0 340.5 24.75 341.0Q22.5 341.5 20.0 341.5H18.0Q13.0 340.5 11.5 339.25Q10.0 338.0 10.0 336.0Q10.0 335.5 10.25 335.0Q10.5 334.5 10.5 334.5V332.5Q10.5 332.5 18.25 326.5Q26.0 320.5 34.5 311.0L36.0 308.5Q46.5 297.0 55.0 286.5Q63.5 276.0 76.0 255.5Q91.5 231.5 96.0 231.5Q98.5 231.5 99.5 236.0Q101.5 243.0 103.25 252.0Q105.0 261.0 108.0 267.5Q110.5 273.0 113.75 280.25Q117.0 287.5 117.0 287.5Q116.5 281.0 116.5 268.5Q116.5 256.0 116.5 240.5V208.0Q116.5 186.0 115.5 174.75Q114.5 163.5 112.25 156.75Q110.0 150.0 106.5 142.0Q104.5 139.0 103.0 135.0Q101.5 131.0 99.5 127.0Q97.5 121.5 94.25 115.75Q91.0 110.0 88.5 106.0Q85.0 101.0 83.75 97.25Q82.5 93.5 82.5 91.0V89.0Q83.0 86.0 89.5 86.0Q92.5 86.0 96.75 86.25Q101.0 86.5 106.0 87.0Q109.0 87.5 112.5 88.0Q116.0 88.5 119.5 89.0Q122.5 89.0 126.0 89.5Q129.5 90.0 132.5 90.0Q142.5 90.0 150.5 89.25Q158.5 88.5 158.5 88.5Q160.0 85.5 171.0 71.75Q182.0 58.0 194.0 39.5Z" fill="black" /></svg>