<svg xmlns="http://www.w3.org/2000/svg" width="807.5" height="352.0" viewBox="0 0 807.5 352.0"><path d="M82.0 297.0Q81.5 296.0 76.0 293.25Q70.5 290.5 62.75 287.25Q55.0 284.0 48.5 281.25Q42.0 278.5 39.5 278.0Q36.5 276.5 34.75 275.75Q33.0 275.0 33.0 275.0Q32.5 275.0 32.5 278.75Q32.5 282.5 32.5 288.0Q32.5 294.0 31.75 300.25Q31.0 306.5 30.0 308.5V310.0Q30.0 311.0 32.5 311.0Q35.0 311.0 40.25 309.5Q45.5 308.0 54.5 306.0Q65.5 303.0 73.75 300.5Q82.0 298.0 82.0 297.5ZM127.5 172.0V171.5Q124.5 155.0 117.5 155.0Q113.0 155.0 109.0 164.5Q101.0 186.0 98.5 210.0Q96.0 234.0 96.0 257.5L97.0 287.5L131.0 289.5V240.0Q131.0 218.0 130.0 198.25Q129.0 178.5 127.5 172.0ZM379.5 288.0Q375.5 288.0 365.25 286.25Q355.0 284.5 346.0 282.0L325.5 277.0V294.0Q325.5 302.5 326.25 306.0Q327.0 309.5 329.0 309.5Q330.0 309.5 332.0 308.5Q390.5 293.0 390.5 289.0Q390.5 288.0 379.5 288.0ZM93.5 102.5Q93.5 101.5 87.0 98.75Q80.5 96.0 71.5 93.0L49.0 84.5V99.5Q49.0 113.0 53.0 113.0Q56.0 113.0 58.0 112.0Q62.0 110.5 68.75 109.0Q75.5 107.5 81.0 106.5Q86.5 105.5 90.0 104.5Q93.5 103.5 93.5 102.5ZM92.0 180.5Q93.0 180.5 94.5 175.75Q96.0 171.0 97.25 165.25Q98.5 159.5 98.5 157.5Q98.5 154.5 93.5 153.0Q91.5 152.0 90.0 152.0Q87.5 152.0 87.5 160.0Q87.5 161.0 88.0 166.25Q88.5 171.5 89.5 176.0Q90.5 180.5 92.0 180.5ZM146.0 162.5Q146.5 161.5 146.5 160.5Q146.5 159.5 146.5 159.0Q146.5 154.5 142.5 153.0Q141.5 152.0 140.0 152.0Q137.5 152.0 137.5 165.0Q137.5 171.5 138.5 175.75Q139.5 180.0 140.5 180.0Q143.5 180.0 143.5 176.0Q143.5 175.0 144.5 170.5Q145.5 166.0 146.0 162.5ZM202.5 118.0Q202.5 112.0 200.75 110.0Q199.0 108.0 195.0 108.0Q187.5 108.0 187.5 110.0Q187.5 111.5 190.5 115.25Q193.5 119.0 197.0 122.0Q200.5 125.0 202.0 125.0Q202.5 125.0 202.5 118.0ZM222.0 142.5Q220.0 142.0 216.75 141.25Q213.5 140.5 209.5 139.5H210.0L200.0 138.0L203.5 174.5Q204.5 184.0 205.0 190.25Q205.5 196.5 206.0 196.5Q206.0 196.5 208.25 188.75Q210.5 181.0 214.0 170.5L217.0 159.5Q219.0 153.0 220.25 148.5Q221.5 144.0 222.0 142.5ZM271.0 165.5V166.0Q273.0 162.5 274.25 159.75Q275.5 157.0 276.0 155.5Q272.5 158.0 264.5 165.75Q256.5 173.5 247.25 183.25Q238.0 193.0 231.25 201.0Q224.5 209.0 223.0 211.5Q225.5 212.0 231.0 212.75Q236.5 213.5 243.0 214.5L258.5 216.0L261.5 198.5Q262.5 190.0 265.25 180.25Q268.0 170.5 271.0 165.5ZM338.0 152.0 338.5 151.5Q338.5 150.0 334.5 148.0Q334.0 147.5 332.5 147.5Q329.5 147.5 329.5 151.0Q329.5 155.0 333.5 155.0Q336.0 155.0 338.0 152.0ZM338.0 189.5 338.5 189.0Q338.5 188.0 337.25 187.25Q336.0 186.5 334.5 185.0V185.5Q334.0 185.0 332.5 185.0Q329.5 185.0 329.5 188.0Q329.5 192.5 333.5 192.5Q336.0 192.5 338.0 189.5ZM342.0 227.5V228.0Q341.0 225.5 337.5 225.5Q333.5 225.5 333.5 229.5Q333.5 233.0 336.5 233.0Q338.0 233.0 340.25 231.75Q342.5 230.5 342.5 229.0Q342.5 229.0 342.5 228.5Q342.5 228.0 342.0 227.5ZM519.0 112.5Q516.5 107.5 503.25 103.75Q490.0 100.0 473.0 97.75Q456.0 95.5 441.0 94.25Q426.0 93.0 419.5 93.0Q413.0 93.0 404.75 93.75Q396.5 94.5 385.0 95.5Q359.5 97.5 344.0 100.25Q328.5 103.0 319.25 109.5Q310.0 116.0 302.0 129.25Q294.0 142.5 283.5 165.5Q277.0 179.5 274.5 187.75Q272.0 196.0 272.0 211.0Q273.0 218.0 275.0 223.75Q277.0 229.5 278.5 229.5Q283.5 231.5 283.5 237.5Q283.5 240.0 287.5 245.0Q291.5 250.0 296.5 254.0Q301.5 258.0 303.5 258.5H304.0Q305.0 257.5 306.0 257.5Q311.5 257.5 326.0 264.0Q340.5 270.0 361.0 274.25Q381.5 278.5 402.5 281.0Q423.5 283.5 439.5 283.5Q459.0 283.5 479.75 280.5Q500.5 277.5 526.5 272.0L545.5 267.0V237.5Q545.5 208.5 541.5 208.5Q538.5 208.5 530.0 213.0Q521.5 217.5 513.5 223.25Q505.5 229.0 502.5 233.0Q498.0 237.5 495.5 237.5Q492.5 237.5 492.5 232.5Q492.5 228.0 494.5 224.0Q497.0 220.0 498.0 213.5Q499.0 207.0 499.0 200.5Q499.0 194.0 498.25 187.25Q497.5 180.5 495.0 175.5Q492.5 167.0 492.5 164.5Q492.5 161.0 495.0 161.0Q499.5 161.0 508.0 168.0Q512.5 171.0 519.75 174.5Q527.0 178.0 533.0 179.0L545.5 181.0L543.5 169.5Q538.5 150.5 519.0 112.5ZM229.0 73.5V73.0Q228.5 72.0 223.75 71.25Q219.0 70.5 213.5 70.5Q203.0 70.5 203.0 72.5Q203.0 74.0 203.75 76.25Q204.5 78.5 205.0 82.0Q206.0 84.5 207.0 87.0Q208.0 89.5 208.5 92.0Q209.5 93.5 210.0 94.5Q210.5 95.5 210.5 96.5Q214.5 94.5 221.0 86.5H220.5Q229.0 76.5 229.0 73.5ZM382.5 84.5 397.5 83.0Q394.5 81.5 386.75 76.75Q379.0 72.0 370.25 66.75Q361.5 61.5 354.5 57.75Q347.5 54.0 346.0 54.0Q345.5 54.0 342.25 59.75Q339.0 65.5 335.0 73.5L327.5 92.5L345.0 90.0Q349.5 89.0 355.5 88.25Q361.5 87.5 367.5 87.0Q371.5 86.0 375.25 85.5Q379.0 85.0 382.5 84.5ZM453.0 134.5Q453.0 134.0 450.25 133.5Q447.5 133.0 444.0 133.0Q440.0 133.0 437.0 133.5Q434.0 134.0 434.0 134.0Q434.0 136.0 436.5 141.25Q439.0 146.5 442.0 151.0Q445.0 155.5 446.0 155.5Q448.0 155.5 450.5 148.0Q453.0 140.5 453.0 134.5ZM535.0 189.5Q530.0 188.5 524.25 187.25Q518.5 186.0 515.5 185.0Q513.5 184.0 512.5 184.0Q509.0 184.0 509.0 196.5Q509.0 208.0 511.0 209.0H511.5Q514.0 208.5 522.0 205.25Q530.0 202.0 537.25 198.5Q544.5 195.0 544.5 193.5Q544.5 191.5 535.0 189.5ZM557.5 114.0Q552.5 113.0 546.25 111.5Q540.0 110.0 536.5 109.5H534.5Q530.5 109.5 530.5 110.5Q530.5 112.0 537.0 114.75Q543.5 117.5 552.25 119.75Q561.0 122.0 566.5 122.0Q571.0 122.0 571.0 121.5Q571.0 117.5 557.5 114.0ZM561.5 133.0V132.5Q561.5 129.0 552.0 129.0Q543.5 129.0 543.5 131.5Q543.5 134.5 548.0 149.0L552.0 163.0L556.0 151.5Q558.5 145.5 560.0 140.0Q561.5 134.5 561.5 133.0ZM643.0 135.5Q635.5 133.5 628.0 131.75Q620.5 130.0 614.0 128.5Q604.5 126.0 597.5 124.25Q590.5 122.5 589.5 122.0Q584.5 122.0 579.25 128.75Q574.0 135.5 569.75 145.5Q565.5 155.5 563.0 164.75Q560.5 174.0 560.5 178.5Q560.5 183.0 561.5 184.0Q562.5 185.0 579.25 185.75Q596.0 186.5 618.0 186.5Q622.5 186.5 627.25 186.25Q632.0 186.0 635.5 186.0Q651.5 186.0 661.75 187.25Q672.0 188.5 672.0 190.5Q672.0 192.0 663.75 193.5Q655.5 195.0 642.5 196.5Q629.5 198.0 615.0 199.0Q600.5 200.0 588.0 200.0Q572.0 200.0 565.25 201.75Q558.5 203.5 557.0 210.5Q555.5 217.5 555.5 234.5Q555.5 247.0 555.75 255.25Q556.0 263.5 556.0 264.0Q557.0 263.5 561.0 262.75Q565.0 262.0 569.0 260.5Q572.5 259.0 579.0 257.0Q585.5 255.0 593.5 253.0Q598.0 251.5 602.75 250.0Q607.5 248.5 611.5 247.0Q624.0 243.5 632.5 240.25Q641.0 237.0 641.0 235.0Q641.0 232.5 644.25 228.75Q647.5 225.0 651.5 222.5Q657.5 219.0 666.25 211.75Q675.0 204.5 683.75 196.75Q692.5 189.0 699.0 182.5Q705.5 176.0 706.0 174.0Q705.5 172.0 700.5 171.5Q695.5 171.0 690.0 171.0Q675.5 171.0 675.5 165.5Q675.5 162.0 684.0 156.0Q691.5 152.0 691.5 149.5Q691.5 148.5 677.25 144.5Q663.0 140.5 643.0 135.5ZM698.0 204.5Q700.5 199.5 701.75 197.25Q703.0 195.0 703.0 194.0Q700.0 196.0 692.25 202.25Q684.5 208.5 678.0 215.25Q671.5 222.0 671.0 225.5Q671.0 225.5 672.5 227.0Q678.0 230.5 683.0 230.5Q691.5 230.5 691.5 224.5Q691.5 221.0 693.5 215.25Q695.5 209.5 698.0 204.5ZM739.5 244.0Q741.0 241.5 742.25 239.25Q743.5 237.0 744.0 235.5Q739.5 239.0 731.25 246.25Q723.0 253.5 716.25 260.0Q709.5 266.5 709.5 267.5Q709.5 268.0 714.0 270.0Q718.5 270.5 721.75 271.25Q725.0 272.0 727.0 272.0Q733.5 272.0 733.5 265.5Q733.5 255.0 739.5 244.0ZM731.5 136.0Q733.5 133.5 734.25 131.75Q735.0 130.0 735.5 129.5Q733.5 130.0 727.75 134.5Q722.0 139.0 715.5 144.25Q709.0 149.5 704.5 154.0Q700.0 158.5 700.0 160.0Q700.0 161.5 706.0 162.25Q712.0 163.0 714.0 163.0Q725.0 163.0 725.0 153.5Q725.0 150.0 727.0 144.75Q729.0 139.5 731.5 136.0ZM758.5 206.5Q758.5 205.0 753.25 200.75Q748.0 196.5 740.5 191.5L724.0 180.0L713.5 199.0Q702.0 218.5 702.0 226.5Q702.0 230.5 705.5 230.5Q707.0 230.5 708.0 232.25Q709.0 234.0 709.0 236.0Q709.0 238.0 708.5 239.0Q707.0 242.5 707.0 243.5Q707.0 245.5 709.0 245.5Q712.0 245.5 720.0 240.25Q728.0 235.0 736.75 227.75Q745.5 220.5 752.0 214.25Q758.5 208.0 758.5 206.5ZM741.5 72.0Q742.5 69.5 743.5 68.0Q744.5 66.5 744.5 66.0Q743.5 66.0 738.75 70.25Q734.0 74.5 728.0 80.0Q722.0 85.5 717.5 90.0Q713.0 94.5 713.0 95.5Q713.0 97.0 719.75 98.5Q726.5 100.0 728.0 100.0Q737.5 100.0 737.5 90.0Q737.5 86.0 738.75 80.75Q740.0 75.5 741.5 72.0ZM318.5 177.0Q318.0 171.5 318.0 166.5Q318.0 161.5 318.0 158.0Q318.0 130.0 324.5 130.0Q326.5 130.0 332.5 136.0Q335.0 138.0 348.0 139.75Q361.0 141.5 381.0 142.5Q402.5 143.0 414.25 145.25Q426.0 147.5 426.0 150.0Q426.0 154.5 399.0 154.5Q354.0 154.5 335.5 167.5Q333.5 169.5 332.0 170.5Q330.5 171.5 330.5 172.5Q330.5 173.5 340.0 177.0Q344.5 178.5 359.0 180.0Q373.5 181.5 388.5 181.5Q406.0 181.5 416.25 183.5Q426.5 185.5 426.5 188.0Q426.5 191.5 407.0 192.0Q343.0 193.5 333.5 206.0Q332.0 208.0 332.0 209.0Q332.0 219.5 387.0 221.0Q411.5 221.5 420.5 222.25Q429.5 223.0 429.5 225.0Q429.5 226.5 424.0 229.0L423.0 229.5Q420.0 230.5 410.25 232.0Q400.5 233.5 391.5 233.5Q369.5 233.5 355.0 237.5Q340.5 241.5 331.5 249.5L320.5 259.5V240.0Q320.5 224.0 320.0 208.25Q319.5 192.5 318.5 177.0ZM763.0 31.5Q781.0 10.0 787.0 10.0Q789.5 10.0 789.5 14.0Q789.5 15.5 786.25 20.75Q783.0 26.0 779.0 32.5Q771.0 43.0 764.0 55.5Q757.0 68.0 752.5 78.75Q748.0 89.5 748.0 94.5Q748.0 100.0 748.5 100.0Q750.0 100.0 758.5 89.5Q769.0 77.5 773.0 77.5Q775.5 77.5 775.5 80.5Q775.5 85.0 767.0 99.0L755.0 115.0L775.5 133.5Q785.0 141.5 791.25 149.0Q797.5 156.5 797.5 159.5Q797.5 163.0 795.5 163.0Q791.0 163.0 775.5 147.5Q767.5 140.5 760.5 135.25Q753.5 130.0 751.0 130.0H750.0Q748.0 130.5 745.5 138.75Q743.0 147.0 741.25 156.25Q739.5 165.5 739.5 169.0Q739.5 173.0 744.75 179.25Q750.0 185.5 756.25 190.25Q762.5 195.0 766.0 195.0Q767.0 195.0 768.5 193.75Q770.0 192.5 772.0 191.0Q777.5 185.5 781.0 185.5Q784.0 185.5 784.0 189.5Q784.0 193.0 780.5 199.5V199.0Q779.0 203.5 779.0 206.0Q779.0 210.5 783.5 215.0H783.0Q788.5 220.5 788.5 225.0Q788.5 228.0 785.0 228.0Q781.0 228.0 775.5 222.5L773.5 221.0Q769.0 217.5 768.0 217.5Q766.0 217.5 764.0 221.75Q762.0 226.0 756.5 236.0L755.0 239.5Q743.5 261.0 743.5 269.0Q743.5 272.5 747.0 272.5Q750.5 272.5 750.5 276.0Q750.5 277.5 749.5 279.5Q750.0 282.5 756.5 289.75Q763.0 297.0 773.0 306.5Q796.5 327.5 796.5 334.0Q796.5 337.0 795.0 337.0Q792.5 339.5 791.5 339.5Q788.5 339.5 784.0 332.0Q780.5 325.0 770.5 316.25Q760.5 307.5 747.75 298.75Q735.0 290.0 722.25 284.5Q709.5 279.0 700.5 279.0Q693.0 279.0 688.25 278.5Q683.5 278.0 683.5 276.0Q683.5 272.5 694.5 263.0L704.0 254.5L693.5 248.5Q686.5 243.5 676.5 240.75Q666.5 238.0 659.5 238.0Q651.5 238.0 651.5 240.5Q651.5 243.0 648.25 245.5Q645.0 248.0 634.0 251.75Q623.0 255.5 601.0 261.75Q579.0 268.0 541.5 278.0Q531.5 280.5 515.75 283.75Q500.0 287.0 482.75 289.75Q465.5 292.5 450.5 294.0Q418.0 298.0 390.5 304.25Q363.0 310.5 344.25 317.75Q325.5 325.0 318.5 332.0Q314.5 336.0 312.5 338.5Q310.5 341.0 309.0 341.0Q307.5 341.0 307.5 333.0Q307.5 329.5 308.75 325.25Q310.0 321.0 312.0 320.5Q313.5 320.0 314.5 314.25Q315.5 308.5 315.5 302.0Q315.5 294.5 314.0 289.75Q312.5 285.0 308.25 279.75Q304.0 274.5 294.5 265.5Q271.5 244.5 256.25 235.0Q241.0 225.5 227.5 223.0L213.5 220.0L211.0 254.0Q209.5 268.0 209.5 276.0Q209.5 283.5 210.75 287.0Q212.0 290.5 214.0 292.5Q219.0 296.0 219.0 297.5Q219.0 299.0 217.5 299.75Q216.0 300.5 213.5 302.0Q208.5 304.0 208.5 322.0Q208.5 330.0 207.0 336.0Q205.5 342.0 203.5 342.0Q201.0 342.0 199.5 336.0Q198.0 330.0 198.0 322.0V304.5H172.0Q156.5 304.5 150.25 305.75Q144.0 307.0 141.5 311.0V310.5Q138.5 316.5 137.0 316.5Q134.5 316.5 133.0 311.5Q131.5 307.0 125.0 307.0Q120.0 307.0 109.5 308.5Q99.0 310.0 95.0 312.5V312.0Q94.0 313.0 87.0 314.0Q80.0 315.0 70.5 315.5Q60.5 315.5 51.25 318.0Q42.0 320.5 34.5 324.5Q19.0 333.5 13.5 333.5Q10.0 333.5 10.0 329.5Q10.0 326.5 15.0 316.5Q18.0 310.0 19.75 302.5Q21.5 295.0 21.5 286.0Q21.5 269.5 16.0 246.0Q15.5 244.0 15.25 242.5Q15.0 241.0 15.0 240.0Q15.0 235.0 18.0 235.0Q23.5 235.0 30.0 250.0Q33.5 258.0 39.0 263.0Q44.5 268.0 54.0 272.5Q70.5 280.5 77.0 281.0Q81.0 280.5 82.5 276.25Q84.0 272.0 84.0 262.5Q84.0 245.5 82.75 222.25Q81.5 199.0 78.75 176.25Q76.0 153.5 71.0 139.0Q70.5 138.0 70.25 136.75Q70.0 135.5 70.0 135.0Q70.0 130.5 74.0 130.5Q78.5 130.5 84.5 137.5Q88.0 140.0 93.75 141.25Q99.5 142.5 105.0 142.5Q111.0 142.5 115.0 141.5Q119.0 140.5 119.0 138.5Q119.0 130.5 122.0 130.5Q124.0 130.5 126.75 132.25Q129.5 134.0 134.0 137.0Q139.5 140.5 145.5 141.5Q151.5 142.5 157.5 142.5Q159.5 142.0 161.25 141.75Q163.0 141.5 164.5 141.5Q173.0 141.5 173.0 146.5Q173.0 150.0 166.5 153.5Q161.5 156.0 156.75 170.75Q152.0 185.5 148.75 207.5Q145.5 229.5 145.0 255.0L143.5 291.5L198.0 294.0V252.0Q198.0 213.5 194.25 180.75Q190.5 148.0 183.5 126.5L177.0 107.5L143.0 110.0Q104.0 113.0 80.5 118.0Q57.0 123.0 45.5 129.5Q35.5 135.5 30.0 136.5Q30.0 136.5 29.5 136.25Q29.0 136.0 29.0 135.5V136.0Q28.0 135.0 28.0 134.0Q28.0 131.5 29.75 127.5Q31.5 123.5 33.5 119.0Q38.5 109.0 38.5 99.0Q38.5 90.5 36.5 78.5Q35.5 73.0 35.0 68.0Q34.5 63.0 34.5 59.5Q34.5 48.0 38.5 48.0Q41.5 48.0 45.0 59.0Q49.5 70.0 58.25 75.5Q67.0 81.0 90.0 88.5Q103.0 93.0 125.75 95.25Q148.5 97.5 168.0 97.5Q181.0 97.5 189.5 96.75Q198.0 96.0 198.0 94.0Q198.0 90.5 195.0 83.75Q192.0 77.0 188.25 71.5Q184.5 66.0 182.0 66.0Q177.0 66.0 177.0 58.5Q177.0 53.5 180.5 53.5Q184.0 53.5 188.5 55.5Q193.5 57.5 207.5 58.5Q221.5 59.5 237.0 59.5Q253.0 60.0 264.25 61.5Q275.5 63.0 275.5 64.5Q275.5 66.0 269.5 69.0Q263.5 72.0 254.5 74.5Q243.5 78.0 237.5 82.5Q231.5 87.0 226.5 97.0Q222.0 103.5 219.25 111.0Q216.5 118.5 216.5 122.5Q216.5 127.5 218.25 128.75Q220.0 130.0 226.5 130.0H241.5Q252.5 130.0 252.5 134.0Q252.5 137.0 244.0 141.0Q234.0 145.5 228.0 162.0Q222.5 176.0 220.0 183.75Q217.5 191.5 217.5 195.0Q217.5 197.0 219.0 197.0Q220.5 197.0 228.5 189.25Q236.5 181.5 247.25 169.75Q258.0 158.0 269.25 145.25Q280.5 132.5 289.0 122.0Q297.5 111.5 300.5 106.5Q304.5 101.5 307.75 97.25Q311.0 93.0 312.5 93.0Q314.5 93.0 318.0 86.25Q321.5 79.5 325.5 69.75Q329.5 60.0 332.5 51.0Q335.5 42.0 335.5 37.5V34.0Q335.5 22.5 341.0 22.5Q345.0 22.5 345.5 31.5Q346.5 35.5 354.25 42.75Q362.0 50.0 374.0 57.0Q386.0 64.0 398.5 69.0Q403.0 71.0 415.25 74.25Q427.5 77.5 444.25 81.25Q461.0 85.0 478.5 88.0Q502.5 92.5 531.0 98.5Q559.5 104.5 587.5 111.0Q615.5 117.5 639.5 123.5Q663.5 129.5 678.75 134.0Q694.0 138.5 696.0 140.5Q698.0 141.5 699.0 141.5Q702.0 141.5 706.0 138.5Q710.0 135.5 716.5 130.0Q721.5 124.5 724.75 120.0Q728.0 115.5 728.0 113.5V113.0Q726.5 112.0 719.5 110.5Q712.5 109.0 704.5 108.0L680.0 105.5L713.5 78.5Q726.5 67.5 740.75 54.0Q755.0 40.5 763.0 31.5ZM416.0 127.5 405.0 113.5 406.0 112.0 417.0 116.0H416.5Q421.0 117.0 431.25 118.5Q441.5 120.0 451.5 121.0Q461.5 121.5 469.0 122.75Q476.5 124.0 476.5 126.0Q476.5 127.5 474.25 131.0Q472.0 134.5 468.5 138.5L467.5 140.5Q459.5 151.5 454.0 173.75Q448.5 196.0 448.5 216.5V228.0Q449.0 232.0 449.25 236.25Q449.5 240.5 449.5 244.0Q449.5 254.5 446.5 256.0H446.0Q442.5 256.0 440.0 235.0Q437.5 214.0 437.5 185.0Q437.0 169.0 431.5 153.75Q426.0 138.5 416.0 127.5Z" fill="black" /></svg>