<svg xmlns="http://www.w3.org/2000/svg" width="461.0" height="468.5" viewBox="0 0 461.0 468.5"><path d="M87.5 288.0Q76.0 287.0 65.25 284.5Q54.5 282.0 48.0 279.75Q41.5 277.5 41.5 277.5V294.5Q41.5 298.0 40.25 303.5Q39.0 309.0 39.0 309.0Q41.5 308.0 44.75 307.5Q48.0 307.0 50.0 306.5Q54.0 304.5 63.25 303.25Q72.5 302.0 80.0 301.0Q85.5 300.0 95.0 299.0Q104.5 298.0 114.5 297.0Q124.5 296.0 131.25 295.25Q138.0 294.5 138.0 294.5Q129.5 292.5 116.0 291.0Q102.5 289.5 87.5 288.0ZM105.5 111.0Q87.0 107.0 71.0 102.75Q55.0 98.5 51.0 96.5Q46.0 94.0 43.5 94.0Q39.5 94.0 39.5 103.5Q39.5 107.0 40.0 111.0Q40.5 115.0 41.5 120.5Q42.5 130.5 43.5 134.75Q44.5 139.0 48.0 139.0Q49.0 139.0 50.25 138.75Q51.5 138.5 53.5 138.0Q58.0 137.0 71.5 134.25Q85.0 131.5 99.0 129.5Q119.0 126.0 132.75 124.0Q146.5 122.0 146.5 122.0Q139.0 120.0 127.5 117.0Q116.0 114.0 105.5 111.0ZM139.5 209.5 152.0 211.0Q140.5 209.0 130.25 207.75Q120.0 206.5 105.75 204.75Q91.5 203.0 68.0 201.0Q59.0 200.0 49.5 197.75Q40.0 195.5 40.0 195.5Q40.0 197.5 39.75 202.0Q39.5 206.5 39.0 210.0Q38.5 215.0 37.25 220.5Q36.0 226.0 36.0 226.0Q40.5 225.0 54.75 223.0Q69.0 221.0 85.5 217.5Q91.0 216.5 99.75 215.25Q108.5 214.0 117.75 212.75Q127.0 211.5 133.25 210.5Q139.5 209.5 139.5 209.5ZM236.5 43.0Q238.0 40.0 238.0 37.5Q238.0 35.0 232.5 34.5Q227.0 34.0 211.0 34.0H180.5Q184.5 43.5 187.75 52.75Q191.0 62.0 194.5 72.0Q197.5 80.0 200.75 90.0Q204.0 100.0 206.25 107.25Q208.5 114.5 208.5 114.5L222.0 115.5Q222.5 111.5 224.5 102.0Q226.5 92.5 227.5 85.5Q230.0 73.5 232.75 60.75Q235.5 48.0 236.5 43.0ZM221.5 133.0H212.5L219.0 155.0ZM73.5 365.5H72.5Q55.5 360.0 42.0 357.25Q28.5 354.5 27.0 354.5Q27.5 358.5 28.5 367.0Q29.5 375.5 31.0 382.75Q32.5 390.0 33.0 391.0H34.0Q40.5 391.0 51.5 386.5Q73.5 381.0 96.5 379.0Q119.5 377.0 142.0 377.0Q137.5 376.0 131.25 375.25Q125.0 374.5 118.0 373.5Q105.5 371.0 93.25 369.0Q81.0 367.0 73.5 365.5ZM151.0 379.0Q151.5 379.0 151.75 379.25Q152.0 379.5 152.5 379.5Q152.5 379.5 152.25 379.25Q152.0 379.0 151.0 379.0ZM155.5 15.0Q155.5 10.0 163.0 10.0Q166.0 10.0 170.25 11.25Q174.5 12.5 175.0 15.5Q177.0 17.5 187.75 19.0Q198.5 20.5 211.0 20.5Q225.5 20.5 238.75 18.75Q252.0 17.0 254.5 14.5Q259.0 10.0 262.0 10.0Q267.5 10.0 267.5 16.5Q267.5 18.5 266.75 21.25Q266.0 24.0 263.5 26.5Q254.5 39.5 247.75 59.0Q241.0 78.5 238.5 94.5L235.5 116.5H342.5Q395.0 116.5 423.0 117.0Q451.0 117.5 451.0 121.5Q451.0 124.0 422.5 127.0Q394.0 130.0 343.5 130.0L233.5 132.5L228.5 168.5L226.0 203.0L334.0 205.0Q386.5 205.5 413.25 208.0Q440.0 210.5 440.0 213.5Q440.0 215.0 416.75 217.0Q393.5 219.0 347.0 219.0H334.5L226.0 218.5V286.5Q258.0 287.0 289.25 287.25Q320.5 287.5 352.5 287.5Q388.5 287.5 412.0 288.5Q435.5 289.5 436.5 291.0L438.5 292.0Q438.5 294.0 432.0 295.5Q425.5 297.0 408.5 298.0Q391.5 299.0 360.75 299.5Q330.0 300.0 281.5 300.0H226.0V371.5L319.0 373.5Q359.5 374.0 382.25 374.75Q405.0 375.5 415.25 376.0Q425.5 376.5 428.0 377.75Q430.5 379.0 430.5 381.0V381.5Q430.5 385.0 412.0 385.5Q393.5 386.0 364.5 386.5H226.0V423.5Q226.0 440.5 223.75 449.5Q221.5 458.5 219.0 458.5Q211.0 458.5 211.0 423.5V387.5L161.5 390.0Q116.0 391.0 87.25 397.5Q58.5 404.0 41.5 409.0Q34.0 411.0 29.5 412.0Q27.0 412.5 26.0 413.5Q24.0 414.0 22.75 414.5Q21.5 415.0 19.5 415.0Q18.5 415.0 17.5 413.5Q15.5 411.0 15.5 406.5Q15.5 402.5 17.0 397.5V395.5Q17.0 386.5 16.0 378.75Q15.0 371.0 13.5 363.0Q13.5 357.5 12.0 352.5Q12.0 351.5 11.75 350.25Q11.5 349.0 11.0 347.5Q10.5 346.0 10.25 344.5Q10.0 343.0 10.0 341.0Q10.0 338.5 10.5 337.0Q11.0 335.5 12.0 335.0Q13.0 334.5 13.5 334.5Q13.5 334.5 14.75 334.75Q16.0 335.0 17.0 335.5Q17.5 335.5 18.0 335.75Q18.5 336.0 19.0 336.0Q24.5 338.0 38.0 341.0Q51.5 344.0 65.5 347.5L74.0 349.5Q92.0 354.5 115.25 358.5Q138.5 362.5 160.5 365.25Q182.5 368.0 196.75 369.5Q211.0 371.0 211.0 371.0V301.0L162.5 304.0Q129.0 306.0 94.75 311.5Q60.5 317.0 31.5 325.5Q28.0 326.0 26.0 326.75Q24.0 327.5 23.0 327.5Q19.5 327.5 19.5 323.5Q19.5 322.0 22.0 316.0Q23.0 312.0 24.5 301.5Q26.0 291.0 26.0 279.5Q26.0 266.5 26.75 260.5Q27.5 254.5 31.0 254.5Q32.0 254.5 33.0 255.75Q34.0 257.0 36.0 258.5Q46.0 266.5 75.0 270.75Q104.0 275.0 153.5 279.5L211.0 285.5V219.0L174.0 220.5Q154.5 221.0 128.0 224.75Q101.5 228.5 76.25 233.25Q51.0 238.0 34.0 241.5Q26.5 243.0 23.5 243.0Q19.5 243.0 19.5 239.5Q19.5 236.0 22.0 233.5Q24.5 222.5 25.0 212.5Q25.5 202.5 25.5 191.5Q25.5 190.0 24.75 188.0Q24.0 186.0 24.0 184.0Q24.0 182.5 25.5 179.25Q27.0 176.0 29.5 176.0Q33.5 176.0 42.0 181.5Q42.5 182.0 45.5 183.0Q50.0 185.0 63.75 187.25Q77.5 189.5 96.25 191.75Q115.0 194.0 135.0 196.0Q155.0 198.0 172.25 199.5Q189.5 201.0 200.25 202.0Q211.0 203.0 211.0 203.0Q210.5 199.0 208.75 188.75Q207.0 178.5 206.0 167.0V167.5L199.0 133.0Q191.0 134.0 182.0 134.5Q173.0 135.0 164.5 135.5Q135.5 137.0 104.75 140.5Q74.0 144.0 50.5 157.0L27.0 168.5L26.0 131.0Q26.0 117.5 24.5 104.25Q23.0 91.0 22.0 85.5L21.5 83.5Q19.0 80.5 19.0 77.0Q19.0 73.0 23.0 73.0Q26.0 73.0 34.5 76.0Q43.0 79.0 59.0 84.5L68.5 88.0Q84.0 93.5 106.75 99.5Q129.5 105.5 153.25 109.5Q177.0 113.5 194.0 113.5Q192.5 109.0 189.5 99.0Q186.5 89.0 182.5 76.5Q178.5 64.0 174.0 52.75Q169.5 41.5 165.5 35.0Q160.5 28.0 158.0 22.0Q155.5 16.0 155.5 15.0Z" fill="black" /></svg>