<svg xmlns="http://www.w3.org/2000/svg" width="703.0" height="382.0" viewBox="0 0 703.0 382.0"><path d="M65.5 263.5Q64.5 262.5 62.75 261.75Q61.0 261.0 59.5 260.0Q56.0 258.0 51.75 255.5Q47.5 253.0 43.0 251.0L21.5 239.0V262.5Q21.5 286.5 25.5 286.5Q28.0 286.5 30.0 282.5V283.0Q30.5 281.0 38.0 276.5Q45.5 272.0 54.0 268.0Q62.5 264.0 65.5 263.5ZM195.5 322.5Q195.5 320.0 190.25 315.75Q185.0 311.5 178.0 307.5Q171.0 303.5 164.75 300.75Q158.5 298.0 156.0 298.0Q155.5 298.0 155.5 305.75Q155.5 313.5 155.5 323.5Q155.5 334.0 156.0 341.25Q156.5 348.5 157.0 349.0Q195.5 330.0 195.5 322.5ZM213.5 323.0Q214.0 322.0 214.0 321.75Q214.0 321.5 214.0 321.5Q214.0 320.5 211.5 320.5Q206.0 320.5 206.0 323.5Q206.0 326.0 208.5 326.0Q212.0 326.0 213.5 323.0ZM35.0 130.0Q31.0 125.0 29.0 125.0Q25.0 125.0 25.0 144.5Q25.0 164.5 28.5 164.5Q30.5 164.5 34.0 161.5Q36.0 159.0 41.25 156.0Q46.5 153.0 53.0 149.5L65.0 144.0L54.5 140.5Q49.0 138.5 43.25 135.5Q37.5 132.5 35.0 130.0ZM212.0 86.5Q212.0 86.0 207.0 85.5Q202.0 85.0 195.0 85.0Q188.5 85.0 183.5 85.5Q178.5 86.0 178.5 86.5Q178.5 87.5 180.25 92.5Q182.0 97.5 184.5 104.5Q187.0 111.0 189.25 119.0Q191.5 127.0 192.5 132.5Q193.5 138.5 194.0 138.5Q195.5 138.5 202.5 116.5Q206.5 105.0 209.25 96.25Q212.0 87.5 212.0 86.5ZM281.5 153.5Q281.5 152.0 272.5 152.0H268.5Q262.0 152.0 262.0 153.5Q262.0 155.0 266.5 165.0L271.0 177.5L274.5 167.5Q275.5 166.0 276.5 164.25Q277.5 162.5 278.0 160.5Q279.0 158.0 280.0 156.25Q281.0 154.5 281.5 153.5ZM372.0 80.0H371.5Q363.5 78.0 335.0 78.0Q315.5 78.0 295.75 79.0Q276.0 80.0 268.0 81.5Q260.0 82.5 254.75 84.75Q249.5 87.0 243.25 91.25Q237.0 95.5 226.5 104.5Q219.5 111.0 215.75 115.75Q212.0 120.5 210.25 127.25Q208.5 134.0 206.0 147.0Q204.5 156.0 203.75 174.0Q203.0 192.0 203.0 212.5Q203.0 234.0 203.75 255.25Q204.5 276.5 205.75 291.0Q207.0 305.5 208.5 307.5Q211.0 309.5 222.0 312.75Q233.0 316.0 245.25 318.5Q257.5 321.0 263.5 321.0Q265.5 321.0 266.0 320.5Q268.5 319.5 269.5 315.75Q270.5 312.0 270.5 301.5Q270.5 284.0 270.0 262.25Q269.5 240.5 267.25 219.25Q265.0 198.0 260.5 182.5Q256.5 168.5 254.25 160.25Q252.0 152.0 252.0 147.5Q252.0 140.0 259.5 140.0Q261.5 140.0 264.0 140.25Q266.5 140.5 270.0 141.0L272.0 141.5Q280.5 142.0 286.75 143.25Q293.0 144.5 293.0 146.5Q293.0 147.0 291.25 152.5Q289.5 158.0 286.5 165.0Q284.0 171.5 281.75 186.0Q279.5 200.5 278.25 218.75Q277.0 237.0 277.0 256.0Q277.0 267.0 277.5 278.0Q278.0 289.0 279.0 298.0L282.0 322.0L301.0 321.5L320.0 320.0L319.0 278.5Q318.5 258.0 317.5 247.75Q316.5 237.5 313.5 230.0Q310.5 222.5 304.0 210.5Q299.0 201.0 295.0 192.75Q291.0 184.5 291.0 184.0Q291.0 182.0 295.25 181.25Q299.5 180.5 305.0 180.5Q314.0 180.5 315.75 178.75Q317.5 177.0 317.5 170.5Q317.5 164.0 314.5 154.75Q311.5 145.5 306.75 137.25Q302.0 129.0 297.5 125.0Q291.0 120.0 291.0 117.0Q291.0 109.5 323.0 109.5Q336.5 109.5 346.0 110.5Q355.5 111.5 355.5 112.5Q355.5 114.0 351.5 119.0Q347.5 124.0 341.5 129.5Q332.5 138.0 330.25 143.5Q328.0 149.0 328.0 161.5V180.5H341.0Q347.0 180.5 351.25 181.75Q355.5 183.0 355.5 185.0Q355.5 186.5 351.75 191.5Q348.0 196.5 342.5 202.0L330.0 214.5V320.0L363.0 321.5L397.5 322.0L396.0 230.0Q395.5 192.5 394.5 170.25Q393.5 148.0 391.75 134.25Q390.0 120.5 387.0 109.5Q383.0 93.5 380.0 87.25Q377.0 81.0 372.0 80.0ZM331.5 196.0 333.5 192.5Q331.5 191.5 319.5 191.5H305.0L311.5 202.0Q316.5 216.0 319.5 216.0Q320.5 216.0 323.0 211.5Q325.5 207.0 331.5 196.0ZM456.5 250.5 437.0 245.0Q428.0 242.5 420.25 239.75Q412.5 237.0 410.5 236.0L410.0 235.5Q407.0 235.5 407.0 251.0V258.0Q407.0 265.5 410.5 265.5Q414.5 265.5 432.5 258.5ZM258.5 70.5Q256.0 68.5 247.5 63.75Q239.0 59.0 231.25 54.5Q223.5 50.0 222.0 50.0Q222.0 50.0 221.75 51.0Q221.5 52.0 221.5 54.0Q221.5 59.0 222.75 65.25Q224.0 71.5 225.5 72.5Q228.5 74.5 228.5 79.5Q228.5 81.0 228.25 82.0Q228.0 83.0 227.5 84.5Q227.0 85.5 227.0 87.5Q229.0 87.5 239.0 81.0V81.5Q244.5 77.0 249.75 74.0Q255.0 71.0 258.5 70.5ZM327.5 128.0 332.5 121.0H305.5L310.5 128.0Q316.5 136.5 319.5 136.5Q322.0 136.5 327.5 128.0ZM424.0 28.0Q422.0 27.0 414.0 26.5Q406.0 26.0 395.5 25.5L368.5 23.5L380.0 57.0Q384.0 68.5 387.0 78.25Q390.0 88.0 392.0 93.5Q392.5 97.0 393.5 98.5Q394.0 100.0 394.25 100.75Q394.5 101.5 394.5 101.5Q397.0 101.5 403.5 77.5Q406.0 67.5 410.0 56.75Q414.0 46.0 417.5 41.0V41.5Q420.0 37.0 421.75 33.25Q423.5 29.5 424.0 28.0ZM435.5 136.5Q430.5 134.0 425.5 132.5Q420.5 131.0 417.5 130.0Q414.0 129.0 413.0 128.0L413.5 128.5Q413.0 128.5 412.5 133.25Q412.0 138.0 412.0 144.5L412.5 151.0Q413.0 155.0 413.25 158.0Q413.5 161.0 413.5 161.0Q415.0 161.0 420.0 158.0Q422.0 157.0 424.75 155.5Q427.5 154.0 430.5 152.5Q437.5 149.5 444.25 147.25Q451.0 145.0 459.0 145.0Q459.0 143.5 435.5 136.5ZM640.5 247.5 640.0 200.0 638.5 154.0 553.0 153.5H524.5Q499.5 153.5 484.0 154.0Q468.5 154.5 458.5 156.0Q448.5 157.5 441.25 160.5Q434.0 163.5 425.5 168.5Q417.0 173.0 413.5 176.0Q410.0 179.0 409.0 183.75Q408.0 188.5 407.5 200.0L406.0 223.0Q410.0 224.5 414.25 225.75Q418.5 227.0 422.5 228.5Q438.0 234.5 451.25 238.25Q464.5 242.0 479.5 244.0Q494.5 246.0 514.75 246.75Q535.0 247.5 564.0 247.5ZM668.0 45.0Q668.0 44.5 659.0 44.0Q650.0 43.5 638.0 43.5H633.5Q630.0 43.0 627.25 43.0Q624.5 43.0 622.0 43.0Q610.0 43.0 610.0 46.5Q610.0 49.0 612.5 54.0Q615.0 59.0 619.5 67.5L622.5 73.5Q626.0 80.0 628.25 86.0Q630.5 92.0 630.5 95.5Q630.5 101.0 636.0 108.5Q638.5 112.5 639.5 112.5Q640.5 112.5 642.0 102.5Q643.0 97.0 647.5 87.25Q652.0 77.5 656.0 68.5Q661.0 59.5 664.5 52.5Q668.0 45.5 668.0 45.0ZM353.5 13.0Q353.5 10.0 358.0 10.0Q360.5 10.0 365.5 11.0Q369.5 11.5 378.0 12.5Q386.5 13.5 397.0 13.5Q400.0 13.5 403.0 13.25Q406.0 13.0 409.0 13.0Q442.5 13.0 442.5 21.0Q442.5 24.5 436.0 29.5Q432.0 32.5 426.0 45.0Q420.0 57.5 415.0 72.0Q410.0 86.5 408.5 96.0L406.0 113.0L427.5 121.0Q448.5 128.5 464.5 133.0Q480.5 137.5 497.75 139.0Q515.0 140.5 539.5 141.0Q546.0 141.0 553.25 140.75Q560.5 140.5 568.0 140.5L635.0 139.5L625.0 110.0Q620.5 96.5 613.75 81.0Q607.0 65.5 601.5 56.0Q597.0 47.5 594.25 40.0Q591.5 32.5 591.5 31.5V30.5Q593.5 29.5 594.5 29.5Q597.5 29.5 602.75 30.0Q608.0 30.5 614.5 31.5Q619.5 32.0 626.25 32.25Q633.0 32.5 640.5 32.5Q646.5 32.5 652.5 32.5Q658.5 32.5 663.5 32.0Q667.5 31.5 671.25 31.25Q675.0 31.0 678.5 31.0Q693.0 31.0 693.0 34.5Q693.0 39.0 683.5 46.0Q673.5 54.0 663.5 74.75Q653.5 95.5 650.0 117.5Q647.0 133.0 647.0 169.0Q647.0 196.0 648.5 236.0Q649.5 256.0 649.5 271.0Q649.5 286.0 649.5 297.0Q649.5 314.0 648.75 321.5Q648.0 329.0 646.0 329.0Q643.0 329.0 642.0 319.25Q641.0 309.5 640.0 292.5L638.5 259.5L561.0 259.0H543.0Q508.5 259.0 486.5 260.25Q464.5 261.5 449.75 264.75Q435.0 268.0 422.5 274.0L406.0 282.5L407.0 305.5Q407.5 311.5 407.5 316.75Q407.5 322.0 407.5 326.0Q407.5 339.5 406.0 344.0Q404.5 348.5 401.5 348.5Q400.0 348.5 398.25 346.0Q396.5 343.5 396.5 339.5Q396.5 337.0 394.5 335.75Q392.5 334.5 384.25 333.75Q376.0 333.0 358.0 332.75Q340.0 332.5 307.5 332.5Q283.0 332.5 261.75 333.0Q240.5 333.5 227.0 334.0Q213.5 334.5 212.0 335.0Q206.0 336.5 206.0 344.0Q206.0 347.0 204.75 350.0Q203.5 353.0 201.0 353.0Q196.5 353.0 196.5 345.5Q196.5 341.0 193.5 341.0Q192.0 341.0 186.0 344.5Q180.0 348.0 173.0 352.75Q166.0 357.5 160.75 361.5Q155.5 365.5 155.5 367.0Q155.5 369.5 153.75 370.75Q152.0 372.0 150.5 372.0Q149.5 372.0 148.0 362.5Q146.5 353.0 145.25 339.0Q144.0 325.0 143.25 311.25Q142.5 297.5 142.5 289.5Q142.5 281.0 143.5 280.0H144.5Q149.0 280.0 167.0 290.5Q186.0 301.5 191.5 301.5Q196.5 301.5 196.5 290.5Q196.5 282.5 194.0 280.25Q191.5 278.0 183.0 276.0Q176.5 275.5 157.0 274.75Q137.5 274.0 117.5 274.0Q89.5 274.0 74.25 275.75Q59.0 277.5 50.0 282.25Q41.0 287.0 31.5 296.5Q26.5 302.0 21.5 306.0Q16.5 310.0 15.5 310.0Q13.0 310.0 11.5 298.0Q10.0 286.0 10.0 264.0Q10.0 245.5 11.25 232.5Q12.5 219.5 14.0 219.5Q15.5 219.5 21.0 223.0Q26.5 226.5 32.0 232.0Q44.0 241.0 53.75 246.5Q63.5 252.0 74.0 255.25Q84.5 258.5 99.25 260.0Q114.0 261.5 136.5 262.5H143.5Q157.5 263.0 169.25 263.5Q181.0 264.0 188.0 264.0Q194.5 264.0 195.0 263.5Q195.0 263.5 195.25 257.75Q195.5 252.0 195.5 242.5Q195.5 229.0 194.75 212.5Q194.0 196.0 193.0 182.5Q192.0 169.0 190.5 164.5Q189.5 159.5 183.25 157.75Q177.0 156.0 155.0 154.0Q148.5 153.5 141.0 153.25Q133.5 153.0 126.5 153.0Q108.0 153.0 90.25 154.5Q72.5 156.0 61.0 158.5Q58.0 159.0 50.5 163.75Q43.0 168.5 36.5 174.0Q30.0 179.5 25.5 183.25Q21.0 187.0 19.5 187.0H18.5Q17.5 186.0 16.5 174.0Q15.5 162.0 15.0 146.75Q14.5 131.5 14.5 121.0Q14.5 106.0 16.0 106.0Q16.5 106.0 22.5 109.5Q28.5 113.0 36.5 118.0Q48.5 125.5 58.0 130.25Q67.5 135.0 77.5 137.75Q87.5 140.5 101.0 141.5Q114.5 142.5 135.0 143.5L143.0 144.0Q150.0 144.0 155.75 144.25Q161.5 144.5 166.0 144.5Q184.5 144.5 184.5 137.5Q184.5 134.0 182.5 128.0Q180.5 122.0 177.0 112.5L175.0 107.0Q171.0 95.5 167.75 86.25Q164.5 77.0 164.5 75.5Q164.5 73.0 174.5 73.0Q178.0 73.0 182.0 73.0Q186.0 73.0 190.0 73.5L213.0 75.5L211.5 55.5Q211.0 51.5 210.75 47.5Q210.5 43.5 210.5 40.5Q210.5 31.5 212.5 31.5Q213.5 31.5 218.75 34.0Q224.0 36.5 229.5 40.5Q244.5 50.5 257.75 56.25Q271.0 62.0 287.5 64.5Q304.0 67.0 328.5 67.5H347.5Q361.5 67.5 367.0 67.0Q372.5 66.5 372.5 66.0Q372.5 63.5 370.0 55.5Q367.5 47.5 363.0 38.5Q359.5 29.5 356.5 21.75Q353.5 14.0 353.5 13.0Z" fill="black" /></svg>