<svg xmlns="http://www.w3.org/2000/svg" width="274.5" height="382.5" viewBox="0 0 274.5 382.5"><path d="M98.0 244.5Q92.5 228.5 89.0 212.75Q85.5 197.0 84.5 180.0L62.0 212.0Q55.0 221.0 47.25 229.5Q39.5 238.0 35.5 242.0Q40.0 241.0 49.0 239.25Q58.0 237.5 67.0 237.5Q77.0 237.5 85.5 240.0Q94.0 242.5 98.0 244.5ZM101.0 63.0V52.0Q95.0 58.0 89.5 65.0Q86.0 69.0 82.5 72.75Q79.0 76.5 75.5 80.5Q70.5 87.0 65.25 92.75Q60.0 98.5 54.0 104.0H55.0Q59.0 104.0 63.75 103.75Q68.5 103.5 72.5 103.5H77.5Q83.0 104.0 92.75 105.75Q102.5 107.5 108.5 110.5L105.5 99.5Q104.0 92.5 102.5 81.25Q101.0 70.0 101.0 63.0ZM228.0 135.0 241.5 117.5Q238.5 118.0 235.5 118.0Q232.5 118.0 229.5 118.5Q218.5 119.0 207.75 119.25Q197.0 119.5 186.5 119.5Q182.0 119.0 178.0 119.0Q174.0 119.0 169.5 119.0Q171.0 122.0 172.75 125.25Q174.5 128.5 176.5 132.0L204.0 180.5L208.5 168.5Q210.5 164.0 216.0 154.0Q221.5 144.0 228.0 135.0ZM204.0 51.5Q207.0 46.0 211.25 41.75Q215.5 37.5 219.0 34.0Q222.5 30.0 226.25 27.25Q230.0 24.5 234.0 22.0Q232.0 22.0 229.75 22.0Q227.5 22.0 225.0 22.5Q219.0 23.0 212.75 23.25Q206.5 23.5 201.0 23.5Q195.5 23.5 189.5 23.25Q183.5 23.0 178.0 22.5H171.5L174.0 23.5Q183.5 30.0 190.25 36.0Q197.0 42.0 204.0 51.5ZM145.0 10.0H146.0Q152.0 10.0 157.75 10.25Q163.5 10.5 168.5 11.0Q175.5 11.5 182.75 11.75Q190.0 12.0 198.0 12.0Q204.0 12.0 210.25 11.75Q216.5 11.5 222.5 11.0Q228.5 11.0 234.0 10.75Q239.5 10.5 244.5 10.5Q248.5 10.5 252.25 10.75Q256.0 11.0 258.5 11.5Q262.0 12.0 262.0 14.5Q262.0 16.5 255.5 20.0Q253.0 21.5 249.5 23.75Q246.0 26.0 242.0 28.5Q238.5 31.0 231.0 37.25Q223.5 43.5 217.0 52.0Q210.5 60.5 210.5 70.0V105.0L235.0 104.5Q237.5 104.5 240.0 104.5Q242.5 104.5 244.5 104.0H256.5Q264.5 104.0 264.5 106.5Q264.5 108.5 259.5 114.75Q254.5 121.0 247.5 128.0Q235.0 140.5 224.0 159.25Q213.0 178.0 213.0 198.5V339.0Q213.5 342.5 213.5 346.25Q213.5 350.0 213.5 353.0Q213.5 365.0 212.5 368.75Q211.5 372.5 208.0 372.5Q203.5 372.5 202.75 366.25Q202.0 360.0 201.5 344.5V334.0L157.0 300.0Q132.0 281.5 115.5 270.25Q99.0 259.0 87.75 254.0Q76.5 249.0 66.5 249.0Q59.0 249.0 51.0 251.25Q43.0 253.5 33.0 257.5Q20.5 262.0 14.0 262.0Q10.0 262.0 10.0 259.5Q10.0 257.0 16.25 248.25Q22.5 239.5 30.5 229.5Q40.0 219.0 51.25 205.25Q62.5 191.5 68.5 182.0Q75.5 172.0 81.75 165.25Q88.0 158.5 89.5 158.5Q92.0 158.5 93.25 164.75Q94.5 171.0 95.0 180.5Q95.5 189.0 98.25 203.0Q101.0 217.0 105.5 229.0Q110.5 241.5 114.5 248.75Q118.5 256.0 125.5 262.25Q132.5 268.5 145.0 278.0Q157.5 286.5 170.75 296.25Q184.0 306.0 189.5 310.5L201.5 320.5L201.0 261.0V229.5Q201.0 225.5 199.75 217.0Q198.5 208.5 196.75 200.25Q195.0 192.0 193.0 190.0H193.5Q192.5 189.0 188.75 185.75Q185.0 182.5 180.5 179.0Q166.5 169.0 155.5 160.25Q144.5 151.5 136.0 144.5Q120.5 131.5 110.25 124.25Q100.0 117.0 88.5 115.0Q82.0 113.5 71.0 113.5Q54.0 113.5 37.5 118.0Q31.5 119.5 29.0 119.5H28.0Q27.5 118.5 34.75 108.5Q42.0 98.5 54.5 86.0Q57.0 83.5 59.5 80.5Q62.0 77.5 64.5 75.0Q73.5 65.0 81.5 56.0Q89.5 47.0 93.0 42.5Q98.5 36.5 103.5 31.75Q108.5 27.0 110.5 27.0Q111.5 33.0 111.5 39.0Q111.5 45.0 111.5 51.0Q111.5 62.5 113.0 77.0Q114.5 91.5 119.0 104.75Q123.5 118.0 132.5 126.0L184.0 168.0L165.5 137.0L144.5 106.5L198.0 105.5V85.0Q198.0 74.0 196.25 65.5Q194.5 57.0 187.75 49.5Q181.0 42.0 166.0 33.5Q155.5 27.0 150.25 20.25Q145.0 13.5 145.0 10.0Z" fill="black" /></svg>