<svg xmlns="http://www.w3.org/2000/svg" width="451.0" height="455.0" viewBox="0 0 451.0 455.0"><path d="M96.0 161.0Q93.5 155.5 91.5 151.75Q89.5 148.0 89.0 148.0Q89.0 148.0 87.0 150.25Q85.0 152.5 81.0 156.5Q78.0 160.0 74.0 165.75Q70.0 171.5 64.5 177.5L42.0 205.5L56.0 208.5Q63.0 208.5 78.0 211.5Q93.0 214.5 105.0 217.5Q112.5 219.5 120.25 220.75Q128.0 222.0 135.5 222.0Q134.0 219.5 129.5 213.5Q125.0 207.5 119.5 200.5Q112.5 191.0 105.75 179.5Q99.0 168.0 96.0 161.0ZM206.0 125.5Q204.5 125.0 201.0 125.0Q199.5 125.0 197.5 125.0Q195.5 125.0 194.0 125.5Q181.5 125.5 181.5 132.5Q181.5 136.0 185.5 149.5L190.0 161.0L198.0 145.0Q201.5 138.0 203.5 132.75Q205.5 127.5 206.0 125.5ZM228.5 181.5Q223.5 165.5 219.0 154.0Q214.5 142.5 214.0 142.5Q210.5 142.5 207.25 153.75Q204.0 165.0 202.0 181.75Q200.0 198.5 200.0 216.0V246.5L220.0 258.5L241.0 270.0L239.0 246.0Q238.5 233.0 236.75 217.25Q235.0 201.5 228.5 181.5ZM252.0 158.5 253.0 156.0Q254.0 152.5 255.25 151.0Q256.5 149.5 256.5 149.0Q256.5 148.0 245.5 148.0H230.0L237.5 166.0Q243.5 181.0 244.0 181.0Q245.5 181.0 246.0 177.0Q246.5 172.0 248.75 167.0Q251.0 162.0 252.0 158.5ZM301.5 119.5Q289.5 113.0 280.75 109.75Q272.0 106.5 262.0 105.5Q252.0 104.5 237.0 104.5Q212.5 105.5 197.5 107.5Q182.5 109.5 182.5 112.0L184.0 112.5Q185.0 113.5 193.0 113.5Q195.5 113.5 199.0 113.25Q202.5 113.0 206.0 112.5Q210.0 112.0 212.75 111.5Q215.5 111.0 217.5 111.0Q224.0 111.0 224.0 116.5Q224.0 117.5 224.0 118.75Q224.0 120.0 223.0 122.0Q222.0 125.0 222.0 125.5Q222.0 131.5 235.0 133.0H262.5Q265.5 132.5 267.75 132.25Q270.0 132.0 271.0 132.0Q274.5 132.0 274.5 135.5Q274.5 138.0 272.0 144.0Q269.5 150.0 264.5 160.5Q260.5 169.0 258.0 177.25Q255.5 185.5 254.5 197.5Q253.5 209.5 253.5 229.5V279.0Q269.0 288.0 284.75 296.5Q300.5 305.0 316.0 313.5L375.0 351.0L376.5 300.0V280.5Q376.5 265.0 375.75 254.25Q375.0 243.5 372.75 233.0Q370.5 222.5 366.0 208.0Q357.0 180.5 349.25 164.25Q341.5 148.0 330.5 138.0Q319.5 128.0 301.5 119.5ZM146.0 84.0 147.5 77.5 157.5 54.5 137.0 51.5Q128.0 51.5 121.25 50.75Q114.5 50.0 114.5 51.5Q115.5 54.5 118.25 62.75Q121.0 71.0 125.0 81.0Q129.0 91.0 132.25 99.25Q135.5 107.5 137.0 110.0Q138.5 102.0 146.0 84.0ZM251.0 83.5Q246.5 79.0 241.75 70.75Q237.0 62.5 235.0 55.5L230.0 40.0Q226.0 46.5 222.0 52.5Q218.0 58.5 214.0 65.5Q210.5 71.0 207.0 76.5Q203.5 82.0 201.0 86.0Q196.5 92.5 196.5 93.5Q204.0 93.5 212.0 93.25Q220.0 93.0 228.0 92.5L257.5 90.5Q255.5 89.5 253.75 87.25Q252.0 85.0 251.0 83.5ZM414.0 124.0H342.5Q345.5 130.0 347.5 134.25Q349.5 138.5 352.5 144.0Q357.0 153.5 362.25 165.0Q367.5 176.5 369.5 184.5Q372.0 191.0 374.75 196.0Q377.5 201.0 378.0 201.0Q379.0 201.0 381.0 195.25Q383.0 189.5 385.0 181.0Q388.0 173.0 392.5 162.0Q397.0 151.0 403.0 143.5Q407.5 136.5 410.75 130.5Q414.0 124.5 414.0 124.0ZM221.5 28.5Q226.5 20.0 230.25 15.0Q234.0 10.0 237.0 10.0Q242.5 10.0 242.5 28.0Q242.5 42.0 249.5 57.25Q256.5 72.5 266.0 81.0Q273.0 87.0 284.75 94.25Q296.5 101.5 307.0 107.0Q317.5 112.5 321.0 112.5V113.5Q321.0 111.5 332.25 110.5Q343.5 109.5 360.5 109.5Q377.0 109.5 395.0 110.25Q413.0 111.0 426.25 112.0Q439.5 113.0 441.0 114.5Q441.0 114.5 436.5 120.25Q432.0 126.0 426.0 133.0Q420.0 139.5 412.25 150.5Q404.5 161.5 402.0 170.5Q398.0 177.5 395.75 185.5Q393.5 193.5 392.25 207.75Q391.0 222.0 390.75 247.75Q390.5 273.5 390.5 316.0V332.5Q390.5 387.0 389.0 416.0Q387.5 445.0 385.0 445.0Q381.0 445.0 378.0 405.0Q377.5 395.5 377.25 386.75Q377.0 378.0 377.0 373.0Q376.5 370.0 376.5 368.5Q376.5 367.0 376.5 367.0Q376.5 366.0 365.75 359.75Q355.0 353.5 337.5 343.5Q332.0 340.0 326.0 336.5Q320.0 333.0 314.5 330.5L253.5 294.5L253.0 325.0Q251.5 359.0 246.5 359.0Q241.0 359.0 241.0 321.5V286.0Q235.0 283.0 230.0 280.0Q225.0 277.0 220.0 274.5L200.0 261.5V299.0Q200.0 317.5 198.5 328.0Q197.0 338.5 194.5 338.5H193.5Q191.5 337.5 190.0 324.25Q188.5 311.0 188.5 294.0V254.5L172.5 248.0Q171.0 247.5 166.25 246.25Q161.5 245.0 157.25 243.5Q153.0 242.0 152.5 242.0Q150.0 242.0 149.0 254.5Q148.0 267.0 148.0 289.5Q148.0 313.0 146.5 327.25Q145.0 341.5 142.0 341.5Q139.5 341.5 138.25 326.75Q137.0 312.0 137.0 287.5V238.0Q115.5 232.0 93.5 227.5Q71.5 223.0 48.5 221.0L10.0 217.0L34.0 192.5Q42.5 183.0 53.75 169.25Q65.0 155.5 72.5 145.0Q88.0 123.5 93.5 123.5Q98.5 123.5 100.0 137.5Q100.5 142.0 104.25 150.5Q108.0 159.0 113.0 168.75Q118.0 178.5 123.25 186.25Q128.5 194.0 132.0 196.5Q133.5 198.0 134.5 198.0Q137.0 198.0 137.0 185.0Q137.0 177.0 134.0 161.5Q131.0 146.0 126.25 127.5Q121.5 109.0 116.25 92.0Q111.0 75.0 106.5 64.5Q103.0 56.5 101.5 50.0Q100.0 43.5 100.0 41.5Q100.0 40.5 111.5 38.75Q123.0 37.0 139.5 37.0Q157.0 37.0 169.25 38.75Q181.5 40.5 180.5 43.5Q180.0 44.0 179.25 45.0Q178.5 46.0 177.5 48.0Q175.5 52.0 172.25 58.25Q169.0 64.5 165.0 72.0V71.5Q160.5 80.0 157.5 86.75Q154.5 93.5 152.75 101.5Q151.0 109.5 150.0 122.25Q149.0 135.0 148.5 155.5L147.0 213.0L185.5 237.5L186.5 221.5V218.0Q186.5 207.0 183.75 190.5Q181.0 174.0 176.75 157.25Q172.5 140.5 167.5 130.5V132.0Q165.5 127.0 164.0 124.25Q162.5 121.5 162.5 119.5Q162.5 114.5 169.5 112.0V112.5L175.0 107.5L174.5 106.5Q174.5 104.5 179.0 95.75Q183.5 87.0 190.5 76.5Q199.0 64.5 207.75 50.25Q216.5 36.0 221.5 28.5Z" fill="black" /></svg>