<svg xmlns="http://www.w3.org/2000/svg" width="453.5" height="378.0" viewBox="0 0 453.5 378.0"><path d="M41.5 304.5Q35.5 302.0 31.0 300.0Q29.5 299.0 28.0 298.75Q26.5 298.5 26.5 298.5V326.5L38.5 318.5Q42.5 315.0 45.75 312.75Q49.0 310.5 51.0 309.0Q52.0 308.0 52.5 308.0Q53.0 308.0 53.5 307.5Q52.0 308.0 48.75 307.0Q45.5 306.0 41.5 304.5ZM123.0 88.5Q112.0 86.0 100.75 82.0Q89.5 78.0 80.0 72.5L72.5 66.5L71.0 88.5Q71.0 93.0 70.75 97.25Q70.5 101.5 70.5 105.0V113.0Q71.0 113.0 77.5 109.75Q84.0 106.5 92.5 102.0Q101.0 97.5 110.0 93.5Q119.0 89.5 122.5 88.5ZM138.0 140.0V140.5Q139.5 137.5 140.75 135.0Q142.0 132.5 142.5 131.0Q141.0 131.0 139.25 131.0Q137.5 131.0 135.0 132.0H132.0Q123.0 132.5 123.0 134.0Q123.0 135.0 125.5 141.5Q128.0 150.5 130.5 150.5Q133.0 150.5 138.0 140.0ZM150.5 117.0Q157.5 115.0 162.0 114.0Q166.5 113.0 170.0 113.0Q176.5 113.0 179.0 118.5L179.5 120.0Q179.5 121.5 177.5 123.25Q175.5 125.0 173.0 125.0Q168.5 125.0 161.5 131.0Q154.5 137.0 148.0 145.75Q141.5 154.5 137.5 163.0Q134.5 170.0 133.25 187.0Q132.0 204.0 132.0 236.0Q132.0 289.5 128.0 297.5H158.0L159.0 287.0Q159.5 284.5 159.75 278.0Q160.0 271.5 160.5 263.5Q160.5 247.0 162.0 229.0Q162.5 181.5 169.5 181.5Q173.0 181.5 176.0 194.0Q178.5 204.0 188.0 211.25Q197.5 218.5 211.0 221.0L223.5 223.0V91.0H192.5Q175.0 91.0 162.25 92.25Q149.5 93.5 137.75 97.0Q126.0 100.5 111.5 106.5Q100.0 111.0 98.5 113.5Q100.0 115.0 100.0 117.0Q100.0 121.0 92.5 123.0H93.5Q83.0 126.5 75.75 133.5Q68.5 140.5 62.0 155.5Q58.0 164.0 56.0 171.5Q54.0 179.0 53.25 192.5Q52.5 206.0 52.5 233.0Q52.5 259.0 51.5 275.0Q50.5 291.0 48.5 294.0Q64.5 297.5 107.5 297.5H126.0Q121.5 287.5 121.5 225.5Q121.5 188.5 120.5 170.25Q119.5 152.0 115.75 144.5Q112.0 137.0 104.5 134.0Q95.5 129.5 95.5 126.5Q95.5 120.5 118.5 120.0Q127.0 120.0 137.0 119.0Q147.0 118.0 150.5 117.0ZM195.5 241.0 205.5 233.5 174.0 217.5V239.0Q174.0 257.5 174.5 257.5Q174.5 257.5 174.75 257.0Q175.0 256.5 175.0 256.0Q177.5 253.5 183.25 249.0Q189.0 244.5 195.5 241.0ZM51.0 137.5V138.5Q51.0 136.5 51.5 135.0Q52.0 133.5 52.0 132.5Q52.0 129.0 46.5 129.0H43.0Q43.5 129.5 43.75 130.25Q44.0 131.0 44.5 132.0V131.0Q46.0 134.0 47.5 137.75Q49.0 141.5 49.5 144.5Q49.5 144.5 50.0 142.5Q50.5 140.5 51.0 137.5ZM229.0 62.5 231.0 70.0 247.5 45.5H233.0Q221.5 45.5 220.5 46.5H221.5Q224.5 51.5 229.0 62.5ZM234.0 222.5H374.5V91.0H234.0ZM408.0 24.0Q408.0 24.0 402.0 23.5Q396.0 23.0 387.0 23.0H368.0L374.0 34.5Q376.5 40.0 378.75 45.75Q381.0 51.5 381.0 55.0Q381.0 59.5 382.5 59.5Q386.0 59.5 389.5 50.5Q391.0 45.5 394.75 40.25Q398.5 35.0 402.0 32.0Q404.5 29.5 406.25 27.0Q408.0 24.5 408.0 24.0ZM336.5 13.5Q336.5 11.0 347.5 10.5Q358.5 10.0 374.0 10.0Q389.0 10.0 404.5 10.5Q420.0 11.0 431.25 11.5Q442.5 12.0 443.5 13.0V14.5Q443.5 18.5 436.0 21.0Q429.5 23.0 421.5 29.75Q413.5 36.5 406.25 45.5Q399.0 54.5 394.25 63.0Q389.5 71.5 389.5 76.0Q389.5 78.5 391.0 78.5Q396.0 80.0 396.0 85.0Q396.0 91.0 388.5 91.0Q387.0 91.0 386.25 96.5Q385.5 102.0 385.25 118.75Q385.0 135.5 385.0 169.5Q385.0 207.5 383.5 230.5Q382.0 253.5 380.5 255.0H379.0Q374.5 255.0 374.5 244.0V234.5H232.0L210.0 246.5Q203.5 249.5 193.25 257.25Q183.0 265.0 175.0 274.5Q167.0 284.0 167.0 292.5Q167.0 293.5 171.5 293.75Q176.0 294.0 188.5 294.0Q199.5 294.0 207.5 295.25Q215.5 296.5 215.5 299.0Q215.5 300.5 205.75 302.5Q196.0 304.5 180.0 306.0Q164.0 307.5 145.5 308.5Q127.0 309.5 109.0 309.5Q90.5 309.5 80.75 311.25Q71.0 313.0 62.0 317.5Q46.0 325.5 34.5 337.0Q23.0 348.5 20.5 358.5Q18.5 368.0 16.0 368.0Q13.5 368.0 11.5 364.5Q11.0 363.0 10.5 360.75Q10.0 358.5 10.0 355.5Q10.0 348.0 12.5 336.5Q14.0 331.0 14.75 323.5Q15.5 316.0 15.5 308.0Q15.5 304.0 15.5 299.75Q15.5 295.5 14.5 291.5Q14.0 287.0 14.0 283.25Q14.0 279.5 14.0 276.0Q14.0 264.0 17.5 264.0Q21.5 264.0 26.5 277.0Q29.0 283.5 33.5 287.25Q38.0 291.0 46.5 293.5Q42.0 283.5 42.0 222.5Q42.0 186.0 40.75 167.0Q39.5 148.0 35.75 140.25Q32.0 132.5 24.5 130.5Q16.0 126.5 16.0 123.5Q16.0 121.0 22.0 119.0Q28.0 117.0 37.5 117.0Q49.0 117.0 54.0 115.0Q59.0 113.0 60.25 103.75Q61.5 94.5 61.5 73.0Q61.5 38.0 66.5 37.5Q70.0 38.5 73.5 47.0Q87.5 79.0 186.5 79.0H222.0L220.0 69.5Q218.0 65.5 214.0 58.75Q210.0 52.0 205.0 48.5Q200.0 44.5 196.5 40.75Q193.0 37.0 193.0 36.0Q193.0 33.5 200.0 32.75Q207.0 32.0 217.5 32.0Q230.5 32.0 245.0 32.5Q259.5 33.0 270.0 33.75Q280.5 34.5 281.0 36.0L282.5 37.5Q282.5 42.0 276.5 42.0Q273.0 42.0 266.0 46.5Q259.0 51.0 252.5 57.75Q246.0 64.5 243.0 71.0L239.0 79.0H375.5L373.0 66.5Q370.5 50.5 364.25 39.5Q358.0 28.5 348.5 24.0Q343.5 20.5 340.0 17.5Q336.5 14.5 336.5 13.5Z" fill="black" /></svg>