<svg xmlns="http://www.w3.org/2000/svg" width="631.5" height="447.0" viewBox="0 0 631.5 447.0"><path d="M286.0 308.5 292.5 300.5H279.0Q270.0 300.5 266.75 300.75Q263.5 301.0 263.5 302.5Q263.5 303.5 265.5 307.5Q267.5 311.5 269.75 315.0Q272.0 318.5 273.0 318.5Q274.5 318.5 278.0 315.25Q281.5 312.0 286.0 308.5ZM100.0 197.0Q98.5 189.0 96.5 183.75Q94.5 178.5 94.0 178.0Q93.0 178.5 91.75 179.5Q90.5 180.5 88.0 181.0Q84.5 183.0 80.25 185.0Q76.0 187.0 71.0 190.0L52.0 200.0L81.0 214.5Q104.0 226.5 108.5 227.0L108.0 226.0Q107.0 223.0 104.75 214.75Q102.5 206.5 100.0 197.0ZM163.5 188.5Q160.5 172.0 155.5 172.0Q152.5 172.0 149.5 173.5Q146.5 175.0 141.5 178.0V177.5L132.0 184.5L148.0 193.0Q154.5 197.0 159.5 199.5Q164.5 202.0 166.5 203.0Q166.0 200.5 165.25 196.5Q164.5 192.5 163.5 188.5ZM128.0 28.5V29.0Q125.5 28.0 121.25 27.0Q117.0 26.0 112.5 26.0Q107.0 26.0 107.0 26.5Q107.0 27.5 108.25 29.75Q109.5 32.0 111.5 37.5L118.0 49.0L124.5 40.0Q130.0 35.5 130.0 32.0Q130.0 30.5 128.0 28.5ZM249.0 81.5 239.0 80.5Q231.0 79.5 221.5 76.25Q212.0 73.0 205.5 69.5Q200.5 67.0 196.25 65.5Q192.0 64.0 190.0 64.0Q189.0 64.0 188.5 64.25Q188.0 64.5 188.0 64.5Q187.5 65.0 187.25 72.25Q187.0 79.5 187.0 90.0V112.5L196.5 106.0Q200.5 103.5 211.0 98.75Q221.5 94.0 231.5 89.5ZM267.0 142.0Q266.5 115.0 265.5 105.25Q264.5 95.5 258.0 95.5Q252.5 95.5 240.5 100.0Q228.5 104.5 215.25 111.25Q202.0 118.0 192.5 124.0Q183.0 130.0 183.0 133.0Q183.0 140.0 181.5 143.25Q180.0 146.5 174.5 152.0H175.0Q170.0 158.5 170.0 165.5Q170.0 175.0 175.0 190.25Q180.0 205.5 187.25 220.0Q194.5 234.5 201.0 241.0L211.5 248.5L216.0 241.0Q218.5 236.0 219.75 222.0Q221.0 208.0 221.0 190.5L222.0 181.0Q222.5 166.5 223.25 157.5Q224.0 148.5 226.0 148.5Q227.0 148.5 230.0 151.5Q233.0 154.5 235.0 159.0Q239.5 168.5 247.0 173.75Q254.5 179.0 261.0 179.0Q265.0 179.0 266.0 172.25Q267.0 165.5 267.0 142.0ZM267.0 200.5Q267.0 199.5 262.25 195.75Q257.5 192.0 251.0 188.5L235.0 180.5L233.0 201.5Q232.5 209.0 232.25 215.25Q232.0 221.5 232.0 225.0V226.0Q235.0 225.0 243.5 219.75Q252.0 214.5 259.5 208.5Q267.0 202.5 267.0 200.5ZM280.0 60.0Q281.5 57.0 282.0 55.0Q282.5 53.0 282.5 52.5Q282.5 52.0 275.0 52.0Q266.5 52.0 266.5 54.0Q266.5 54.0 266.5 55.0Q266.5 56.0 267.0 57.0Q270.0 63.0 270.0 68.0Q270.0 69.0 271.0 70.0Q274.5 69.0 280.0 60.0ZM296.5 188.0H311.0L308.0 89.5L296.5 88.0Q295.5 88.0 294.5 87.25Q293.5 86.5 292.0 86.5Q288.0 86.5 284.75 88.0Q281.5 89.5 280.5 90.5Q279.5 92.0 279.0 102.5Q278.5 113.0 278.5 126.0Q278.5 139.0 278.75 151.75Q279.0 164.5 280.0 173.5Q281.0 182.5 282.0 184.5Q282.0 185.5 287.0 186.75Q292.0 188.0 296.5 188.0ZM306.0 73.0Q306.0 70.0 302.5 63.5Q299.0 57.0 295.5 57.0Q291.5 57.0 291.0 62.0Q288.0 68.0 288.0 70.5Q288.0 74.0 296.5 74.0Q306.0 74.0 306.0 73.0ZM317.0 67.5Q320.0 67.5 323.25 61.75Q326.5 56.0 326.5 53.0Q326.5 52.0 319.5 52.0Q311.0 52.0 311.0 54.5Q311.0 57.0 311.5 58.0Q314.5 67.5 317.0 67.5ZM324.0 190.0 363.5 191.5V86.0H344.5Q336.0 86.0 331.0 88.0Q326.0 90.0 324.25 97.0Q322.5 104.0 322.5 120.0Q322.5 125.5 322.5 132.75Q322.5 140.0 323.0 148.5ZM355.0 58.0V58.5Q351.0 52.5 346.5 52.5Q341.5 52.5 336.25 60.5Q331.0 68.5 331.0 72.5Q331.0 74.0 344.5 74.0Q358.5 74.0 358.5 69.0Q358.5 65.0 355.0 58.0ZM377.0 58.0Q378.0 57.0 378.0 54.5Q378.0 52.0 370.0 52.0Q364.0 52.0 364.0 53.0Q364.0 56.0 366.5 61.75Q369.0 67.5 372.5 67.5Q375.5 67.5 377.0 58.0ZM376.5 190.0 406.5 191.5V86.0H392.5Q382.0 86.0 378.25 91.25Q374.5 96.5 374.5 118.5Q374.5 124.5 374.5 132.0Q374.5 139.5 375.0 148.5ZM399.5 62.0Q398.5 57.0 395.0 57.0Q391.0 57.0 387.0 63.0Q384.0 71.0 384.0 73.0Q384.0 74.0 392.5 74.0Q402.0 74.0 402.0 70.5Q402.0 68.5 399.5 62.0ZM425.0 52.5Q425.0 52.5 422.5 52.25Q420.0 52.0 416.5 52.0Q409.5 52.0 409.5 57.0Q409.5 57.5 410.75 60.25Q412.0 63.0 414.5 65.5Q415.0 68.0 416.0 68.0Q417.0 68.0 419.5 64.0Q422.0 59.5 423.5 56.25Q425.0 53.0 425.0 52.5ZM521.0 109.5H546.5V86.0H422.5L420.0 100.0V99.0Q419.5 102.5 419.0 109.5Q418.5 116.5 418.5 125.0Q418.5 131.0 419.0 138.25Q419.5 145.5 419.5 152.5L420.0 190.0H482.5Q520.0 190.0 533.5 188.75Q547.0 187.5 547.0 180.0Q547.0 176.5 545.75 172.0Q544.5 167.5 542.5 161.5L542.0 160.0Q533.5 126.5 507.5 123.0Q494.5 120.5 494.5 115.5Q494.5 113.0 501.5 111.25Q508.5 109.5 521.0 109.5ZM576.5 122.0Q576.5 122.0 570.75 121.75Q565.0 121.5 556.5 121.5Q536.0 121.5 536.0 125.0Q536.0 125.5 537.75 127.25Q539.5 129.0 542.0 132.0Q545.5 133.5 547.0 137.5Q548.5 141.5 548.5 143.5Q548.5 145.5 550.0 147.0Q551.5 148.5 552.0 148.5Q555.0 148.5 560.75 143.0Q566.5 137.5 571.5 131.25Q576.5 125.0 576.5 122.0ZM567.0 38.0 573.5 30.5H558.0Q542.5 30.5 542.5 32.5Q542.5 33.0 543.0 34.75Q543.5 36.5 545.0 39.0Q546.5 43.0 549.0 45.5Q551.5 48.0 552.5 48.0Q556.0 48.0 567.0 38.0ZM72.0 14.0Q72.0 10.0 79.0 10.0Q84.5 10.0 91.0 11.5Q97.5 12.5 112.5 13.5Q127.5 14.5 140.0 15.5Q153.0 15.5 164.0 16.5Q175.0 17.5 176.0 19.0Q177.0 19.5 177.25 20.5Q177.5 21.5 178.0 22.0Q177.5 23.5 176.25 24.75Q175.0 26.0 172.5 26.0Q166.5 26.0 157.5 30.25Q148.5 34.5 140.5 40.75Q132.5 47.0 128.5 53.5Q124.0 60.5 121.75 66.75Q119.5 73.0 118.75 85.25Q118.0 97.5 118.0 122.0Q118.0 143.5 118.5 158.75Q119.0 174.0 119.5 174.0Q124.0 174.0 133.0 168.5Q142.0 163.0 150.25 156.0Q158.5 149.0 160.5 144.5Q169.0 128.5 172.5 118.75Q176.0 109.0 177.0 98.5Q178.0 88.0 178.0 70.0Q178.0 30.5 183.0 30.5Q186.5 30.5 188.5 41.0Q192.0 48.0 204.0 54.5Q216.0 61.0 230.0 65.0Q244.0 69.0 252.5 69.0Q259.0 69.0 259.0 66.5Q259.0 63.5 251.0 54.5H251.5Q249.0 52.5 247.5 49.75Q246.0 47.0 246.0 45.0Q246.0 42.5 247.5 42.0Q248.5 41.0 260.0 40.25Q271.5 39.5 290.0 39.0Q308.5 38.5 330.0 38.25Q351.5 38.0 372.5 38.0Q404.0 38.0 426.0 38.75Q448.0 39.5 448.0 42.0Q448.0 45.5 446.5 46.25Q445.0 47.0 443.5 47.0Q441.5 47.0 437.5 52.75Q433.5 58.5 430.25 64.75Q427.0 71.0 427.0 73.5Q427.0 74.0 444.25 74.0Q461.5 74.0 486.5 74.0H547.0L544.0 65.0Q540.5 50.5 533.5 42.75Q526.5 35.0 514.5 30.5Q507.5 28.5 503.5 25.0Q499.5 21.5 499.5 20.0Q499.5 17.5 516.5 16.5Q533.5 15.5 558.0 15.5Q582.5 15.5 600.5 16.75Q618.5 18.0 618.5 20.5Q618.5 26.0 611.0 26.0Q605.5 26.0 596.0 31.25Q586.5 36.5 577.75 43.75Q569.0 51.0 564.5 57.0Q557.5 67.5 557.5 89.5V110.0L587.5 109.5Q591.5 109.0 595.75 109.0Q600.0 109.0 603.0 109.0Q619.5 109.0 621.5 114.0V115.5Q621.5 121.5 611.0 121.5Q605.0 121.5 597.25 126.25Q589.5 131.0 578.0 142.5L557.5 164.0L557.0 238.0Q556.5 268.5 555.75 286.75Q555.0 305.0 552.5 305.5L551.0 304.0Q549.0 299.0 548.5 282.25Q548.0 265.5 547.5 247.0L546.5 204.5H418.0L416.0 265.0H414.5L412.0 234.5L411.5 204.5H374.5V230.5Q374.5 243.5 372.5 252.25Q370.5 261.0 368.0 261.0Q366.5 261.0 365.0 252.25Q363.5 243.5 363.5 230.5V204.5H322.5V233.0Q322.5 263.0 317.0 263.0H316.0Q314.0 261.5 312.5 251.75Q311.0 242.0 311.0 229.5Q311.0 216.5 310.5 211.0Q310.0 205.5 307.5 205.5Q306.5 205.5 306.0 206.0Q303.5 206.5 298.5 209.0Q294.0 209.0 288.0 211.5Q282.0 213.0 280.5 217.0Q279.0 221.0 279.0 236.5Q279.0 246.5 277.25 253.75Q275.5 261.0 273.0 261.0Q271.5 261.0 269.25 255.0Q267.0 249.0 267.0 240.0Q267.0 232.5 266.25 227.0Q265.5 221.5 264.5 221.5Q261.0 221.5 254.5 226.0Q248.0 230.5 240.75 237.25Q233.5 244.0 228.5 250.5Q223.5 257.0 223.5 261.0Q223.5 264.0 225.75 267.0Q228.0 270.0 231.5 274.5Q236.0 279.5 241.25 282.0Q246.5 284.5 256.5 285.25Q266.5 286.0 286.0 286.5Q302.0 286.5 316.0 288.25Q330.0 290.0 330.5 293.0L330.0 292.5Q331.0 293.5 331.0 294.5Q331.0 298.0 322.0 299.0Q318.0 300.0 310.0 305.5Q302.0 311.0 294.0 318.0L274.5 335.0L273.0 392.0Q273.0 397.5 272.75 402.75Q272.5 408.0 272.5 412.5Q272.5 437.0 271.0 437.0Q269.5 437.0 267.0 420.5Q266.0 409.0 264.75 391.0Q263.5 373.0 263.5 359.5Q263.5 345.0 262.75 337.0Q262.0 329.0 258.75 323.5Q255.5 318.0 248.0 311.0Q241.5 304.5 235.5 300.0Q229.5 295.5 227.0 295.5Q220.0 295.5 220.0 290.0Q220.0 289.5 220.5 288.5Q221.0 287.5 221.0 287.0Q220.5 283.0 211.5 271.75Q202.5 260.5 189.75 246.75Q177.0 233.0 164.25 221.25Q151.5 209.5 144.0 204.5Q138.5 200.5 132.0 198.5Q125.5 196.5 121.5 196.5H119.5L110.5 197.0L119.0 219.5Q122.5 229.0 129.25 239.0Q136.0 249.0 150.25 264.25Q164.5 279.5 190.0 306.0Q215.5 332.0 232.25 351.5Q249.0 371.0 249.0 373.5L248.5 376.0H248.0Q246.5 376.0 237.5 368.5Q228.5 361.0 215.25 348.75Q202.0 336.5 187.0 321.5Q155.0 289.0 132.0 267.75Q109.0 246.5 92.25 234.5Q75.5 222.5 61.75 217.5Q48.0 212.5 34.0 212.5Q24.0 212.5 17.0 211.25Q10.0 210.0 10.0 208.5Q10.0 206.0 18.0 201.75Q26.0 197.5 36.0 193.0Q66.5 181.0 82.25 169.75Q98.0 158.5 104.0 143.25Q110.0 128.0 110.0 104.0V99.0Q109.5 68.0 104.75 51.75Q100.0 35.5 87.0 28.0Q80.5 23.5 76.25 19.75Q72.0 16.0 72.0 14.0ZM284.0 199.5Q283.5 200.0 282.0 200.0Q280.0 200.0 279.5 199.5H280.0H279.5Q279.5 200.0 282.5 200.0Q284.0 200.0 284.0 199.5Z" fill="black" /></svg>