<svg xmlns="http://www.w3.org/2000/svg" width="575.5" height="384.5" viewBox="0 0 575.5 384.5"><path d="M204.0 313.0 219.5 296.5 196.5 295.0H171.5Q172.0 296.5 174.0 303.25Q176.0 310.0 178.0 317.0Q179.0 321.5 180.25 326.25Q181.5 331.0 182.5 335.0Q183.5 341.5 184.0 342.0Q184.0 341.0 186.0 338.5Q188.0 336.0 190.0 332.0Q193.5 327.5 197.0 322.0Q200.5 316.5 204.0 313.0ZM66.5 210.0 54.5 198.0Q51.0 194.0 47.0 188.0Q43.0 182.0 40.5 177.5Q38.5 173.5 36.5 171.5Q35.5 169.0 35.0 168.0Q34.5 167.0 34.5 167.0Q34.5 181.0 32.75 195.5Q31.0 210.0 29.5 223.5L25.0 253.5Q29.5 246.5 35.25 239.5Q41.0 232.5 47.0 226.5H46.5Q53.5 217.0 66.5 210.0ZM181.0 131.5Q181.0 132.0 180.0 132.0Q177.5 132.0 173.25 132.75Q169.0 133.5 164.0 133.5Q154.0 133.5 148.0 132.0Q151.5 137.5 156.0 148.0Q160.5 158.5 164.0 167.0Q166.0 169.5 166.0 178.0Q169.0 162.0 173.25 150.75Q177.5 139.5 180.0 134.5Q181.0 132.5 181.0 131.5ZM204.0 165.0Q203.0 162.0 199.75 155.0Q196.5 148.0 193.5 142.0Q190.5 136.0 190.5 136.0Q189.5 139.0 187.5 144.25Q185.5 149.5 184.0 153.0Q182.5 156.5 180.5 164.75Q178.5 173.0 176.75 181.25Q175.0 189.5 175.0 194.5L174.5 261.5V281.5L213.5 283.0V236.0Q213.5 215.0 212.75 203.25Q212.0 191.5 210.0 183.25Q208.0 175.0 204.0 165.0ZM236.5 128.5Q233.0 131.5 234.5 131.5Q233.0 131.5 231.0 131.5Q229.0 131.5 226.5 132.0H215.0Q211.5 132.0 208.0 131.5Q204.5 131.0 202.0 130.5H199.5Q201.0 134.5 205.5 144.25Q210.0 154.0 213.75 162.25Q217.5 170.5 217.5 170.5Q219.5 165.5 223.25 156.5Q227.0 147.5 230.75 139.0Q234.5 130.5 236.5 128.5ZM438.0 174.5 448.5 158.0Q444.0 162.5 438.0 166.75Q432.0 171.0 426.5 174.5Q418.5 180.0 409.0 186.25Q399.5 192.5 392.75 196.75Q386.0 201.0 386.0 201.0Q393.0 203.0 404.25 205.0Q415.5 207.0 422.0 207.0Q425.0 207.0 425.0 206.5Q428.0 204.5 428.0 198.0Q428.0 194.0 431.0 187.0Q434.0 180.0 438.0 174.5ZM501.5 141.5Q500.5 135.5 498.25 128.25Q496.0 121.0 496.0 121.0Q485.0 132.5 475.75 144.25Q466.5 156.0 457.0 169.0Q448.0 180.0 443.5 189.75Q439.0 199.5 439.0 205.0Q439.0 210.0 442.5 211.0Q443.5 211.5 445.0 214.0Q446.5 216.5 446.5 219.0Q446.5 222.5 444.5 223.0Q447.0 226.0 456.75 233.5Q466.5 241.0 476.0 249.0Q480.5 252.5 484.75 255.5Q489.0 258.5 492.0 261.5Q495.0 263.5 500.5 267.25Q506.0 271.0 506.0 271.0V246.0Q506.0 228.5 505.5 207.25Q505.0 186.0 504.25 167.75Q503.5 149.5 501.5 141.5ZM227.0 52.5 225.5 49.5Q225.5 49.5 224.75 46.25Q224.0 43.0 223.5 39.5Q221.0 41.5 216.0 47.75Q211.0 54.0 205.5 61.25Q200.0 68.5 196.0 74.0Q192.0 79.5 192.0 81.0Q192.0 81.0 194.5 81.25Q197.0 81.5 200.5 81.5Q204.5 81.5 213.25 83.0Q222.0 84.5 230.0 87.5Q240.5 91.0 246.5 91.0Q245.0 88.5 242.5 84.0Q240.0 79.5 236.5 75.0Q233.0 68.5 231.0 63.25Q229.0 58.0 227.0 52.5ZM544.0 37.5Q542.5 37.5 540.5 38.0Q538.5 38.5 535.0 38.5Q529.5 39.0 522.5 39.75Q515.5 40.5 507.5 40.5Q492.0 40.5 483.0 39.0Q480.0 38.5 478.25 38.5Q476.5 38.5 475.5 38.5Q476.0 40.5 478.75 46.0Q481.5 51.5 484.5 56.0Q487.0 62.5 491.25 73.75Q495.5 85.0 499.0 94.0Q505.0 112.0 507.5 112.0Q511.5 112.0 515.5 95.0Q519.5 80.5 526.75 66.0Q534.0 51.5 543.0 39.0Q544.0 38.0 544.0 37.5ZM226.5 11.5Q228.0 11.0 229.25 10.5Q230.5 10.0 231.0 10.0Q232.0 10.0 232.5 10.75Q233.0 11.5 233.0 11.5Q236.0 13.5 236.0 31.0Q236.0 43.5 238.5 51.75Q241.0 60.0 249.5 72.5Q254.0 80.5 260.25 89.25Q266.5 98.0 270.0 101.5Q272.5 103.5 282.75 110.25Q293.0 117.0 307.0 126.0Q321.0 135.0 336.25 144.5Q351.5 154.0 365.0 162.25Q378.5 170.5 386.75 175.75Q395.0 181.0 395.0 181.0Q431.0 155.5 466.5 128.5Q473.5 123.0 479.5 118.5Q485.5 114.0 492.0 110.0L468.0 51.0Q463.5 41.5 460.5 34.25Q457.5 27.0 457.5 24.0L458.5 22.0Q464.5 22.0 470.5 22.5Q476.5 23.0 483.0 24.0Q496.5 26.5 516.5 26.5Q521.5 26.5 526.25 26.25Q531.0 26.0 535.5 25.5Q540.0 25.0 544.25 25.0Q548.5 25.0 552.0 25.0Q565.5 25.0 565.5 28.5Q565.5 33.0 557.0 40.0Q553.0 45.0 547.75 54.75Q542.5 64.5 538.5 72.0L536.5 77.0Q534.5 81.5 530.25 93.0Q526.0 104.5 522.75 117.0Q519.5 129.5 519.5 137.5L518.5 224.5V307.5Q518.5 327.0 517.75 337.75Q517.0 348.5 513.5 348.5Q511.5 348.5 508.75 342.25Q506.0 336.0 506.0 318.5V286.5Q498.5 280.5 484.0 269.5Q469.5 258.5 452.5 246.75Q435.5 235.0 420.25 226.5Q405.0 218.0 396.5 217.5Q388.5 219.5 371.5 227.5Q354.5 235.5 333.75 246.5Q313.0 257.5 292.25 269.0Q271.5 280.5 255.0 290.0Q238.5 299.5 231.0 304.5Q213.0 318.5 200.75 335.0Q188.5 351.5 187.5 363.5V366.5Q187.5 374.5 182.5 374.5Q180.5 374.5 178.25 372.5Q176.0 370.5 176.0 367.0Q176.0 361.5 173.75 350.75Q171.5 340.0 168.0 327.75Q164.5 315.5 160.5 305.5Q156.5 295.5 152.5 292.0Q149.0 288.5 146.5 283.25Q144.0 278.0 144.0 274.0Q144.0 271.5 145.5 269.0Q147.0 266.5 149.0 266.5Q151.5 266.5 153.0 269.0Q154.5 271.5 156.5 274.0Q157.5 276.0 160.0 277.75Q162.5 279.5 162.5 279.5V222.0H86.0Q80.5 222.0 77.0 222.25Q73.5 222.5 71.0 224.5Q64.0 228.0 54.0 238.0Q44.0 248.0 35.75 258.75Q27.5 269.5 25.0 276.5Q24.0 280.0 21.0 283.75Q18.0 287.5 15.0 287.5Q10.0 287.5 10.0 281.5Q10.0 280.5 10.0 279.0Q10.0 277.5 10.5 275.5Q11.5 272.0 14.25 252.25Q17.0 232.5 19.0 209.5Q21.5 184.5 24.0 165.5Q26.5 146.5 27.0 144.5Q28.0 143.5 28.75 142.75Q29.5 142.0 30.0 141.5Q33.5 143.0 42.5 159.0Q47.0 166.5 53.0 176.0Q59.0 185.5 67.0 194.0L83.0 208.5H121.5Q126.5 208.5 131.0 208.5Q135.5 208.5 139.5 208.0H148.0Q152.5 207.0 157.5 207.0Q162.5 207.0 162.5 207.0Q162.5 203.0 162.0 196.0Q161.5 189.0 158.5 182.5Q155.0 171.5 149.25 158.75Q143.5 146.0 137.0 137.5L125.0 118.5H190.5Q217.0 118.5 235.5 120.0Q254.0 121.5 254.0 124.0Q254.0 126.0 251.5 129.75Q249.0 133.5 245.5 137.5Q239.0 146.5 234.5 155.5Q230.0 164.5 227.5 178.5Q225.0 192.5 225.0 217.5V226.0L225.5 282.5Q227.0 281.5 229.5 281.5Q234.5 281.5 239.0 280.0Q240.5 279.5 251.0 274.5Q261.5 269.5 277.25 262.0Q293.0 254.5 310.25 246.0Q327.5 237.5 342.5 229.75Q357.5 222.0 366.0 217.0L374.5 213.0H370.0Q367.0 213.0 364.5 212.75Q362.0 212.5 361.0 212.5Q357.5 211.0 356.5 208.5Q357.5 204.0 368.5 199.0Q373.0 196.5 377.25 193.25Q381.5 190.0 381.5 190.0Q376.5 186.5 362.25 177.25Q348.0 168.0 329.5 156.25Q311.0 144.5 292.0 133.25Q273.0 122.0 258.0 113.5Q243.0 105.0 236.0 102.5Q215.0 94.0 200.5 94.0Q186.5 94.0 177.0 99.5Q169.5 102.5 167.0 102.5Q162.5 102.5 162.5 98.5Q162.5 91.0 190.0 63.5Q201.5 50.5 209.0 38.75Q216.5 27.0 218.0 24.0V25.0Q220.0 21.0 223.25 16.25Q226.5 11.5 226.5 11.5Z" fill="black" /></svg>