<svg xmlns="http://www.w3.org/2000/svg" width="852.5" height="377.5" viewBox="0 0 852.5 377.5"><path d="M57.0 264.0Q49.5 261.5 43.0 259.5Q36.5 257.5 35.0 257.5Q34.5 257.5 33.5 262.0Q32.5 266.5 31.5 273.0Q31.0 275.0 31.0 277.0Q31.0 279.0 31.0 280.5Q31.0 288.0 32.0 289.0Q37.0 288.0 48.0 284.75Q59.0 281.5 69.25 277.75Q79.5 274.0 82.0 272.5Q80.5 272.0 78.0 271.25Q75.5 270.5 73.0 269.5Q69.5 268.5 65.25 267.0Q61.0 265.5 57.0 264.0ZM72.0 210.5V210.0Q68.5 207.5 62.75 205.25Q57.0 203.0 53.0 203.0Q50.0 203.0 50.0 204.0Q50.0 206.0 49.0 209.0Q48.0 212.0 47.0 215.0Q46.0 218.0 46.0 218.0Q46.0 220.0 49.5 220.0Q51.5 220.0 57.0 218.5Q62.5 217.0 67.25 214.75Q72.0 212.5 72.0 210.5ZM77.5 162.5Q77.5 160.0 68.75 156.25Q60.0 152.5 54.5 152.5Q53.0 152.5 52.0 153.5Q51.5 154.0 50.75 156.75Q50.0 159.5 50.0 162.5Q50.0 167.0 54.0 168.0Q55.5 168.0 58.5 167.0Q62.5 166.0 67.0 165.0Q71.5 164.0 73.5 164.0Q77.5 164.0 77.5 162.5ZM149.5 218.5H149.0Q147.5 215.5 144.0 214.5Q142.5 215.0 132.0 216.0Q123.5 217.5 108.5 219.0Q82.0 221.0 62.75 228.5Q43.5 236.0 43.5 243.0Q43.5 245.5 49.75 248.75Q56.0 252.0 67.0 256.0Q76.5 259.0 96.5 261.5Q116.5 264.0 140.0 265.5Q163.5 267.0 183.0 267.0Q196.5 267.0 206.0 266.25Q215.5 265.5 217.5 264.0H217.0L219.0 262.0Q218.5 262.0 218.25 262.0Q218.0 262.0 217.0 262.0Q212.5 261.0 212.5 258.5Q212.5 256.0 218.0 251.5Q224.0 248.5 224.0 247.0Q224.0 245.0 214.5 237.0Q204.5 229.5 192.5 224.5Q180.5 219.5 170.5 219.5Q167.5 219.5 163.5 220.5Q162.0 221.0 160.5 221.0Q159.0 221.0 157.5 221.0Q151.0 221.0 149.5 218.5ZM191.5 203.0Q189.0 197.5 186.0 197.5Q183.5 197.5 182.0 200.5L181.5 201.0Q181.5 204.0 185.5 207.25Q189.5 210.5 191.5 211.0H192.0Q192.5 210.5 192.5 208.5Q192.5 207.5 192.5 206.0Q192.5 204.5 191.5 203.0ZM261.0 217.5H260.5Q259.0 215.0 251.0 209.5Q243.0 204.0 233.0 197.25Q223.0 190.5 214.25 185.5Q205.5 180.5 202.5 179.0Q200.5 178.0 199.5 178.0Q196.0 178.0 196.0 182.5Q196.0 187.5 199.75 195.5Q203.5 203.5 210.5 212.0Q220.0 224.5 225.75 230.25Q231.5 236.0 236.5 236.0Q240.0 236.0 245.5 232.75Q251.0 229.5 255.75 225.0Q260.5 220.5 261.0 217.5ZM266.0 236.5V231.5Q263.5 232.0 256.75 237.5Q250.0 243.0 243.5 249.0Q237.0 255.0 236.0 257.0L263.0 271.0V258.0Q263.0 244.5 266.0 236.5ZM59.0 76.0H58.5Q56.0 72.0 53.5 72.0Q50.5 72.0 48.0 76.75Q45.5 81.5 45.5 90.0V102.5L66.0 96.0Q74.5 92.5 80.5 90.0Q86.5 87.5 86.5 87.0Q86.5 87.0 84.0 86.0Q81.5 85.0 77.5 83.5L74.5 82.5H75.0Q62.0 80.0 59.0 76.0ZM162.0 169.5Q160.0 167.5 139.5 167.5Q136.5 167.5 126.5 168.25Q116.5 169.0 103.75 170.25Q91.0 171.5 78.75 173.75Q66.5 176.0 58.5 178.75Q50.5 181.5 50.5 185.5Q50.5 190.0 61.0 193.75Q71.5 197.5 85.75 199.75Q100.0 202.0 112.0 203.25Q124.0 204.5 127.5 204.5Q142.5 204.5 150.0 203.75Q157.5 203.0 161.75 200.75Q166.0 198.5 170.5 194.5Q181.0 185.5 181.0 180.0Q181.0 176.0 171.0 176.0Q162.5 176.0 161.5 171.0Q161.5 170.5 161.75 170.25Q162.0 170.0 162.0 169.5ZM198.0 91.5Q198.0 90.0 190.0 90.0Q155.0 92.5 133.25 94.5Q111.5 96.5 98.25 98.5Q85.0 100.5 76.0 103.75Q67.0 107.0 57.0 112.0Q43.0 118.5 42.0 122.5Q42.0 124.5 44.5 127.25Q47.0 130.0 51.0 134.0Q62.0 143.0 86.25 149.25Q110.5 155.5 140.5 155.5Q156.0 155.5 163.5 154.75Q171.0 154.0 175.5 151.75Q180.0 149.5 185.0 145.0Q192.5 136.5 192.5 132.0Q192.5 126.0 180.0 124.0L164.5 121.0L183.5 107.0Q189.5 102.0 193.75 97.75Q198.0 93.5 198.0 91.5ZM205.0 163.0Q205.0 160.5 201.5 155.25Q198.0 150.0 195.5 150.0Q192.0 150.0 190.5 155.5Q188.5 161.0 188.5 163.0Q188.5 164.0 197.5 164.0Q205.0 164.0 205.0 163.0ZM229.5 86.5Q231.0 83.5 231.75 81.5Q232.5 79.5 233.0 79.0Q229.5 79.0 213.0 95.5L196.5 112.5L205.0 115.0Q207.5 115.5 209.5 115.75Q211.5 116.0 213.5 116.0Q224.5 116.0 224.5 105.0Q224.5 95.5 229.5 86.5ZM276.5 187.0Q276.5 183.5 268.5 174.5Q260.5 165.5 248.75 155.25Q237.0 145.0 226.5 137.5Q216.0 130.0 210.5 129.0Q208.5 129.5 207.0 132.5Q206.0 133.5 206.0 135.0Q206.0 142.5 213.75 154.5Q221.5 166.5 233.0 179.0Q244.5 191.5 256.0 199.75Q267.5 208.0 275.0 208.0H275.5Q275.5 206.0 272.0 202.5H272.5Q269.0 199.5 269.0 197.0Q269.0 194.0 272.5 192.0V192.5Q273.5 191.5 275.0 190.0Q276.5 188.5 276.5 187.0ZM306.5 184.5Q309.5 176.0 309.5 173.5L309.0 173.0Q307.5 173.0 303.25 177.25Q299.0 181.5 295.5 186.25Q292.0 191.0 292.0 192.5Q292.0 194.0 297.0 194.0Q302.0 194.0 306.5 184.5ZM348.0 184.5V185.0Q348.5 183.0 348.75 180.75Q349.0 178.5 349.0 176.0Q349.0 173.5 348.5 172.5Q348.5 169.5 347.5 169.5Q345.5 169.5 339.0 176.0L331.0 185.0L338.0 187.0Q339.0 187.5 341.5 187.5Q346.0 187.5 348.0 184.5ZM431.0 94.5Q431.0 85.5 426.0 85.5Q422.5 85.5 413.75 89.5Q405.0 93.5 397.5 99.25Q390.0 105.0 390.0 109.5Q390.0 114.0 387.5 120.5Q385.0 127.0 381.0 132.5Q377.5 136.5 373.0 145.25Q368.5 154.0 364.5 161.5L363.5 163.0Q361.0 169.5 359.5 173.75Q358.0 178.0 358.0 181.0Q358.0 184.5 359.5 188.0Q361.0 191.5 363.5 197.5V197.0Q367.5 203.5 372.75 211.75Q378.0 220.0 382.5 224.5Q389.0 231.0 390.0 235.25Q391.0 239.5 391.0 248.0Q391.0 251.5 398.5 254.75Q406.0 258.0 414.5 260.25Q423.0 262.5 426.0 262.5Q429.5 262.5 430.25 260.25Q431.0 258.0 431.0 253.0Q431.0 244.5 422.0 244.5Q420.0 245.0 417.75 245.0Q415.5 245.0 414.0 245.0Q408.0 245.0 408.0 241.0Q408.0 238.0 412.5 231.5Q417.0 224.0 417.0 217.0Q417.0 214.0 416.5 212.5Q415.0 208.0 415.0 206.0Q415.0 203.0 418.0 203.0Q419.0 203.0 420.25 203.0Q421.5 203.0 423.5 204.0H423.0Q425.0 204.5 427.5 204.5Q431.0 204.5 431.0 199.5Q431.0 193.0 425.0 193.0Q421.0 193.0 415.5 196.5Q412.0 199.0 408.0 199.0Q403.5 199.0 403.5 194.0Q403.5 190.5 408.0 183.0Q413.0 176.0 413.0 170.5Q413.0 168.0 412.25 164.75Q411.5 161.5 410.5 157.0Q409.0 152.0 408.0 148.25Q407.0 144.5 407.0 141.0Q407.0 137.0 408.0 134.0Q409.0 131.0 411.0 126.5Q415.0 120.5 415.0 115.0Q415.0 113.0 414.0 110.0Q411.5 106.0 411.5 103.0Q411.5 100.0 413.75 98.25Q416.0 96.5 418.5 96.0Q422.0 96.0 425.5 99.5Q428.0 101.5 430.0 101.5Q431.0 101.5 431.0 94.5ZM431.0 148.0Q431.0 141.0 426.5 141.0Q424.0 141.0 422.5 144.0Q421.5 145.5 421.5 148.0Q421.5 150.5 423.25 153.0Q425.0 155.5 428.0 155.5Q429.5 155.5 430.25 153.0Q431.0 150.5 431.0 148.0ZM431.0 174.5Q431.0 167.0 427.5 167.0Q424.0 167.0 424.0 174.5Q424.0 181.0 427.5 181.0Q431.0 181.0 431.0 174.5ZM429.5 227.5H430.0Q430.5 227.0 430.5 225.5Q430.5 224.0 430.0 223.5H429.5Q428.5 223.5 428.5 225.5Q428.5 227.5 429.5 227.5ZM468.5 285.0Q452.0 281.0 435.25 277.0Q418.5 273.0 402.5 268.0Q401.0 267.5 399.75 267.25Q398.5 267.0 397.5 267.0Q394.0 267.0 392.25 272.0Q390.5 277.0 388.5 292.0Q387.0 300.0 387.0 303.0Q387.0 305.5 389.0 305.5Q392.0 305.5 397.0 304.0Q409.0 302.0 421.0 299.25Q433.0 296.5 444.5 293.5Q460.0 290.0 466.75 288.5Q473.5 287.0 473.5 286.5Q473.5 286.5 472.25 286.0Q471.0 285.5 468.5 285.0ZM457.0 225.5Q457.0 222.5 449.0 222.5Q443.5 222.5 443.5 224.5H444.0Q444.5 226.0 447.25 227.25Q450.0 228.5 452.0 228.5Q457.0 228.5 457.0 225.5ZM429.5 129.0Q430.5 127.0 430.5 124.5Q430.5 123.0 429.5 120.0Q429.0 117.5 428.75 116.5Q428.5 115.5 428.5 115.5Q427.0 118.0 426.0 120.25Q425.0 122.5 425.0 125.5Q425.0 130.0 427.5 130.0Q428.5 130.0 429.5 129.0ZM461.5 174.5Q461.5 173.0 458.5 172.25Q455.5 171.5 451.5 171.5Q442.0 171.5 442.0 174.5Q442.0 177.5 451.5 177.5Q455.5 177.5 458.5 176.5Q461.5 175.5 461.5 174.5ZM504.0 255.0V236.0H480.0Q457.0 236.5 449.5 238.5Q442.0 240.5 442.0 248.5Q442.0 249.5 442.0 251.25Q442.0 253.0 442.5 255.0L444.0 269.5L471.5 274.0Q486.5 277.0 502.5 277.0Q503.5 274.5 503.75 268.5Q504.0 262.5 504.0 255.0ZM502.5 218.0 503.0 201.0 504.5 184.0 482.5 185.0Q461.0 185.0 451.5 188.5Q442.0 192.0 442.0 199.5Q442.0 207.0 451.0 210.5Q460.0 214.0 481.5 216.0ZM672.0 223.5Q672.0 215.5 670.0 214.5Q664.0 215.0 656.5 218.75Q649.0 222.5 649.0 225.5Q649.0 228.5 630.5 230.5Q612.0 232.5 582.5 232.5L517.0 234.0L514.0 279.0L534.0 282.0Q542.5 283.0 558.5 283.75Q574.5 284.5 589.0 284.5H624.0Q626.5 282.0 631.5 276.75Q636.5 271.5 641.75 266.0Q647.0 260.5 649.0 258.5Q660.0 246.0 666.0 237.0Q672.0 228.0 672.0 223.5ZM699.5 268.0Q695.0 262.0 690.0 255.5Q685.0 249.0 683.0 245.5Q681.5 243.0 680.0 243.0Q677.5 243.0 665.0 257.5L651.0 275.0L679.0 279.0Q689.0 280.5 697.25 281.5Q705.5 282.5 709.0 282.5H711.0Q711.0 281.0 699.5 268.0ZM702.5 178.0Q702.5 176.5 701.5 176.5Q699.5 176.5 692.75 182.0Q686.0 187.5 679.5 193.75Q673.0 200.0 671.5 202.5Q680.0 202.5 688.75 203.5Q697.5 204.5 706.0 205.5L723.5 208.0Q721.5 205.0 718.75 202.25Q716.0 199.5 713.5 196.5Q709.5 191.0 706.0 185.5Q702.5 180.0 702.5 178.0ZM446.5 53.0H447.0Q434.5 50.5 423.75 47.5Q413.0 44.5 410.0 43.5Q410.0 43.5 409.75 43.25Q409.5 43.0 409.0 43.0Q406.5 43.0 404.25 47.25Q402.0 51.5 399.5 62.5V62.0L396.5 82.0L405.5 79.5Q417.0 77.5 429.25 75.0Q441.5 72.5 453.5 69.5Q464.5 67.5 472.25 65.5Q480.0 63.5 482.5 62.5Q480.0 61.5 475.25 60.25Q470.5 59.0 463.5 57.5Q460.0 56.5 455.5 55.25Q451.0 54.0 446.5 53.0ZM459.5 123.0V123.5Q459.0 121.5 455.75 120.5Q452.5 119.5 449.0 119.5Q442.0 119.5 442.0 122.5Q442.0 123.5 445.0 124.5Q448.0 125.5 452.0 125.5Q459.5 125.5 460.0 123.5ZM502.5 166.0V150.5Q502.5 138.5 500.5 136.5Q498.5 134.5 485.5 134.0H477.0Q444.0 134.0 442.5 147.5V150.0Q442.5 156.5 451.5 159.75Q460.5 163.0 481.5 164.5ZM502.5 115.0 503.0 97.0Q503.5 94.5 503.5 92.75Q503.5 91.0 503.5 89.0Q503.5 77.5 501.5 76.5Q501.0 76.5 499.0 76.25Q497.0 76.0 494.5 76.0Q488.0 76.0 478.75 76.75Q469.5 77.5 460.75 79.0Q452.0 80.5 447.5 82.5Q445.5 83.0 443.75 86.75Q442.0 90.5 442.0 94.5Q442.0 103.5 450.5 107.25Q459.0 111.0 481.5 112.5ZM672.0 70.5Q672.0 69.5 664.25 69.25Q656.5 69.0 646.5 69.0Q639.0 69.0 625.5 69.5Q612.0 70.0 596.5 70.25Q581.0 70.5 566.5 71.0L515.0 72.5V94.0Q515.0 109.5 516.75 112.75Q518.5 116.0 527.5 118.5Q533.0 119.5 552.0 120.25Q571.0 121.0 591.5 121.5Q610.5 121.5 621.5 122.5Q632.5 123.5 633.0 126.0Q632.0 128.0 630.5 128.5Q626.0 129.5 607.0 130.75Q588.0 132.0 566.5 132.0L515.0 133.0V167.5L538.0 170.5Q545.0 171.0 556.5 171.75Q568.0 172.5 580.0 172.5Q585.0 172.5 589.5 172.5Q594.0 172.5 597.5 172.0H612.0Q622.0 172.0 629.25 172.5Q636.5 173.0 638.0 174.0L638.5 175.0Q638.5 177.5 625.25 179.0Q612.0 180.5 593.5 180.5Q574.0 180.5 555.5 181.0Q537.0 181.5 530.5 182.5Q519.5 184.5 517.25 187.5Q515.0 190.5 515.0 202.5V219.5H633.0L663.5 194.5Q676.0 183.5 684.75 175.0Q693.5 166.5 693.5 165.5Q693.5 159.5 703.0 151.5Q708.5 145.0 708.5 144.5Q708.5 144.5 707.0 144.0Q705.5 143.5 702.0 143.0Q701.0 142.5 697.5 142.5Q687.0 142.5 673.0 147.5Q660.0 151.5 654.0 151.5Q652.5 151.5 651.5 150.5Q651.0 149.5 659.25 139.75Q667.5 130.0 680.5 118.5Q693.5 106.0 702.0 96.0Q710.5 86.0 710.5 84.0Q710.5 81.0 698.5 81.0Q693.0 81.0 687.0 82.0Q681.0 83.0 677.0 85.5Q671.0 88.0 668.5 88.0Q664.0 88.0 664.0 83.5Q664.0 80.0 667.0 77.0Q669.0 75.0 670.5 73.0Q672.0 71.0 672.0 70.5ZM723.0 119.0Q719.5 113.5 716.25 110.0Q713.0 106.5 712.0 106.5Q711.0 106.5 706.5 110.25Q702.0 114.0 696.0 119.0Q686.5 129.5 686.5 131.5L687.5 132.0Q692.5 133.5 702.0 134.0Q711.5 134.5 719.5 134.5Q725.0 134.5 728.5 134.5Q732.0 134.5 732.0 134.0Q732.0 130.5 723.0 119.0ZM750.0 72.0Q749.0 69.5 743.0 62.25Q737.0 55.0 731.0 48.5Q725.0 42.0 724.0 42.0Q723.0 42.0 717.5 47.25Q712.0 52.5 707.0 58.5Q702.0 64.5 701.0 67.0Q702.5 68.0 711.5 69.0Q720.5 70.0 731.25 70.75Q742.0 71.5 747.5 71.5Q749.5 71.5 750.0 72.0ZM245.0 47.0Q259.5 31.0 271.25 20.5Q283.0 10.0 285.0 10.0L286.0 10.5V11.5Q286.0 14.0 281.0 23.25Q276.0 32.5 268.0 45.0Q252.0 69.5 244.0 84.5Q236.0 99.5 236.0 111.0Q236.0 121.0 242.75 130.25Q249.5 139.5 262.0 153.0L288.0 177.5L306.5 157.5Q315.0 148.5 323.5 139.0Q332.0 129.5 336.0 124.5Q344.5 113.5 347.5 113.0Q349.0 113.5 349.0 116.0Q349.0 122.5 335.5 146.5Q330.5 156.0 326.75 164.0Q323.0 172.0 322.0 175.0Q326.0 174.0 335.0 164.5Q344.0 155.0 354.5 142.5Q365.0 130.0 372.5 119.0Q380.0 108.0 380.5 103.0Q381.5 97.5 384.0 86.25Q386.5 75.0 388.5 65.5Q392.0 52.0 392.0 45.5Q392.0 41.5 390.5 39.0Q389.0 36.5 386.5 33.0H387.0Q382.0 28.0 382.0 23.5Q382.0 18.5 387.5 18.5Q392.0 18.5 397.5 23.5Q402.0 27.5 417.5 33.0Q433.0 38.5 454.0 43.75Q475.0 49.0 496.5 53.0Q505.5 54.5 523.75 55.75Q542.0 57.0 564.75 57.75Q587.5 58.5 610.5 58.5H691.0Q693.0 56.0 697.75 51.0Q702.5 46.0 707.25 40.75Q712.0 35.5 714.0 33.5Q724.0 22.0 731.0 16.5Q738.0 11.0 740.5 11.0Q742.5 11.0 742.5 14.0Q742.5 16.5 739.5 22.0Q738.0 25.5 738.0 29.0Q738.0 32.5 739.5 36.25Q741.0 40.0 744.5 45.5Q763.0 76.0 816.5 97.0Q828.0 102.0 835.25 106.0Q842.5 110.0 842.5 112.5Q842.5 114.0 841.0 115.0H840.5Q836.5 115.0 823.5 110.75Q810.5 106.5 795.0 100.5Q772.0 90.5 758.0 86.25Q744.0 82.0 736.5 82.0Q729.0 82.0 726.0 86.0Q723.0 89.0 723.0 92.5Q723.0 97.0 728.0 107.0Q735.0 121.5 752.5 134.75Q770.0 148.0 795.5 158.0Q811.5 164.5 820.0 169.75Q828.5 175.0 828.5 177.5Q828.5 180.5 824.5 180.5Q822.5 180.5 810.0 175.75Q797.5 171.0 781.5 164.5Q738.5 146.5 726.0 146.5Q721.0 146.5 718.25 148.5Q715.5 150.5 714.0 154.5Q711.0 160.5 711.0 166.0Q711.0 179.5 731.5 200.0Q740.0 207.5 746.25 212.0Q752.5 216.5 762.5 221.5Q772.5 226.5 791.5 235.5Q804.0 240.5 809.75 244.25Q815.5 248.0 816.0 249.5Q816.0 251.0 813.5 251.0Q810.0 251.0 797.75 247.5Q785.5 244.0 767.0 237.0Q739.5 226.5 724.0 221.75Q708.5 217.0 701.0 217.0Q694.0 217.0 690.5 220.5H691.0Q688.5 223.0 688.5 227.0Q688.5 229.0 689.0 231.75Q689.5 234.5 691.0 238.5Q694.0 244.5 701.25 253.25Q708.5 262.0 718.0 271.5Q727.5 281.0 737.0 288.5Q746.5 296.0 753.0 299.5Q755.5 300.5 759.0 302.0Q762.5 303.5 766.5 305.5Q769.0 306.5 776.5 309.75Q784.0 313.0 792.5 317.0Q801.0 321.0 807.25 324.75Q813.5 328.5 813.5 331.0Q813.5 332.5 812.0 333.5Q809.5 333.5 794.5 328.0Q779.5 322.5 760.5 314.5Q741.0 305.0 726.25 301.0Q711.5 297.0 695.75 296.0Q680.0 295.0 657.5 295.0H597.5Q591.0 295.5 583.5 295.5Q576.0 295.5 567.5 295.5Q520.5 296.0 480.25 300.0Q440.0 304.0 414.0 310.5Q388.0 317.0 383.0 325.5V325.0Q382.5 327.0 379.5 328.75Q376.5 330.5 373.0 330.5Q368.0 330.5 368.0 326.5Q368.0 325.0 368.5 324.0V324.5L369.5 321.5Q370.5 317.5 372.75 310.75Q375.0 304.0 377.5 296.5Q381.0 282.0 381.0 274.5Q381.0 270.5 380.0 267.5Q379.0 264.5 376.5 260.0V260.5Q371.5 252.5 371.5 248.0Q371.5 244.0 374.0 242.0Q375.0 240.5 376.0 239.0Q377.0 237.5 377.0 236.0Q377.0 231.5 371.0 225.0Q365.0 218.5 356.25 212.0Q347.5 205.5 339.25 201.25Q331.0 197.0 326.5 197.0Q322.5 197.0 322.5 200.5Q322.5 208.0 338.0 225.5Q352.0 240.0 352.0 244.5Q352.0 247.0 349.5 247.0Q344.0 247.0 326.0 229.0Q316.0 219.5 307.0 212.5Q298.0 205.5 294.5 205.5Q289.5 205.5 284.75 214.0Q280.0 222.5 277.0 234.5Q274.0 246.5 274.0 257.0Q274.0 263.5 275.25 268.5Q276.5 273.5 279.5 276.0Q282.5 278.0 284.5 281.5Q286.5 285.0 286.5 286.5Q286.5 288.5 297.75 299.75Q309.0 311.0 324.0 325.5Q339.0 340.0 349.0 351.25Q359.0 362.5 359.0 365.5L358.5 367.5H357.5Q355.5 367.5 344.75 359.25Q334.0 351.0 320.5 338.0Q285.0 304.0 261.75 286.0Q238.5 268.0 229.5 268.0Q226.0 268.0 225.0 270.5Q222.5 276.0 158.5 280.0Q141.0 280.5 123.25 282.25Q105.5 284.0 91.75 285.75Q78.0 287.5 72.0 289.5Q62.0 292.0 54.75 295.0Q47.5 298.0 40.0 302.5Q32.5 307.0 21.0 315.0Q17.5 317.5 15.0 317.5Q10.0 317.5 10.0 311.5Q10.0 308.0 13.0 306.0H12.5Q15.5 302.5 17.75 294.5Q20.0 286.5 21.25 276.75Q22.5 267.0 22.5 259.5Q22.5 252.0 21.0 250.0Q19.0 246.5 19.0 241.5Q19.0 237.0 20.75 233.5Q22.5 230.0 25.5 230.0Q26.5 230.0 28.0 231.5Q32.0 231.5 34.0 225.75Q36.0 220.0 36.75 213.25Q37.5 206.5 37.5 204.0Q37.5 202.0 37.5 199.75Q37.5 197.5 37.0 195.5Q36.5 193.5 36.5 188.5Q36.5 175.5 39.0 166.5Q40.5 160.5 40.5 152.5Q40.5 143.0 38.5 135.25Q36.5 127.5 34.0 127.0H33.5Q29.0 127.0 29.0 124.0Q29.0 123.5 29.25 123.0Q29.5 122.5 29.5 122.5Q33.0 109.0 34.75 95.0Q36.5 81.0 36.5 72.5Q36.5 65.0 35.5 63.5Q33.5 59.5 33.5 54.5Q33.5 50.0 35.5 46.75Q37.5 43.5 41.0 43.5Q45.5 43.5 45.5 51.5Q45.5 57.0 55.25 62.5Q65.0 68.0 81.5 72.25Q98.0 76.5 117.5 79.25Q137.0 82.0 156.5 82.0H163.0Q168.5 81.5 174.25 81.25Q180.0 81.0 185.0 81.0Q191.5 81.0 196.25 81.25Q201.0 81.5 202.5 82.5L203.0 83.0Q206.5 83.0 217.75 73.25Q229.0 63.5 245.0 47.0Z" fill="black" /></svg>