<svg xmlns="http://www.w3.org/2000/svg" width="690.5" height="386.0" viewBox="0 0 690.5 386.0"><path d="M56.5 286.0 25.5 270.0V289.5Q25.5 306.0 28.0 306.0Q30.0 306.0 32.5 304.0Q41.0 299.5 48.25 294.0Q55.5 288.5 56.5 286.0ZM235.5 287.0Q226.0 286.0 216.5 284.5Q207.0 283.0 203.5 281.0Q200.5 279.5 198.5 279.5H197.5Q198.0 280.0 198.0 280.75Q198.0 281.5 198.5 282.5Q199.5 284.5 201.5 292.0Q203.5 299.5 205.5 309.0L207.0 315.0Q209.5 326.0 212.25 333.75Q215.0 341.5 215.5 341.5Q217.0 341.5 220.0 337.75Q223.0 334.0 225.5 329.0Q228.0 323.5 233.75 316.5Q239.5 309.5 244.5 304.5Q249.0 299.5 252.5 295.75Q256.0 292.0 256.0 291.5Q256.0 290.5 250.0 289.25Q244.0 288.0 235.5 287.0ZM455.0 298.5 442.0 293.5Q435.5 291.0 427.25 286.5Q419.0 282.0 413.5 277.5V278.0L402.0 270.5V295.5Q402.0 306.5 402.75 314.5Q403.5 322.5 404.5 322.5Q405.5 322.5 413.75 318.75Q422.0 315.0 432.0 310.0ZM44.5 140.0 56.0 130.0 41.5 122.0Q36.0 119.0 31.25 117.0Q26.5 115.0 24.0 115.0H23.0Q22.5 116.5 22.0 122.0Q21.5 127.5 21.5 134.5Q21.5 150.0 26.5 150.0Q31.5 150.0 44.5 140.0ZM163.0 143.5Q163.0 139.5 152.5 139.5Q142.5 139.5 142.5 142.5Q142.5 144.0 145.0 148.25Q147.5 152.5 150.5 156.0Q153.5 159.5 155.0 159.5Q156.5 159.5 158.5 156.0Q163.0 149.5 163.0 143.5ZM247.0 141.0Q247.0 140.5 243.25 140.0Q239.5 139.5 234.0 139.5Q224.0 139.5 223.0 141.0Q223.5 141.5 224.0 143.0Q224.5 144.5 225.5 146.5Q231.5 157.5 236.0 157.5Q239.0 157.5 242.0 152.0Q244.0 148.0 245.5 144.75Q247.0 141.5 247.0 141.0ZM251.5 49.0Q251.5 46.5 251.0 44.25Q250.5 42.0 249.5 42.0Q248.0 42.0 242.75 49.25Q237.5 56.5 230.75 66.5Q224.0 76.5 218.75 85.25Q213.5 94.0 212.5 97.5Q215.0 98.0 223.25 99.0Q231.5 100.0 241.5 100.75Q251.5 101.5 260.5 102.25Q269.5 103.0 273.5 103.0H274.0Q273.0 100.5 270.0 94.5Q267.0 88.5 263.0 81.0Q258.0 71.5 254.75 62.25Q251.5 53.0 251.5 49.0ZM440.0 145.5Q436.5 143.0 433.5 141.75Q430.5 140.5 428.5 140.0Q425.5 140.5 425.5 150.0Q425.5 159.5 428.0 159.5Q429.5 159.5 433.75 157.5Q438.0 155.5 441.75 153.25Q445.5 151.0 445.5 150.5Q445.5 150.0 440.0 145.5ZM440.0 211.0Q431.5 205.5 428.5 205.5Q425.5 205.5 425.5 215.0Q425.5 224.5 428.0 224.5Q430.5 224.5 438.5 220.0Q445.5 216.5 445.5 216.0Q445.5 215.5 440.0 211.0ZM449.5 73.0Q447.0 72.0 444.5 70.75Q442.0 69.5 439.5 68.5Q431.5 65.0 431.0 65.0Q430.5 65.0 430.0 70.25Q429.5 75.5 429.5 83.0Q429.5 89.5 430.25 93.75Q431.0 98.0 432.0 98.5Q433.5 97.5 439.0 95.0Q444.5 92.5 450.5 90.5Q456.5 88.0 460.75 85.5Q465.0 83.0 465.0 82.5Q465.0 81.5 460.25 78.75Q455.5 76.0 449.5 73.0ZM525.5 156.5Q525.5 155.5 517.25 154.5Q509.0 153.5 497.5 153.5Q480.5 153.5 470.0 156.25Q459.5 159.0 447.0 166.5Q438.0 171.0 431.75 175.25Q425.5 179.5 425.5 180.5Q425.5 183.5 433.0 189.75Q440.5 196.0 449.5 201.25Q458.5 206.5 463.5 206.5Q467.5 206.5 477.25 200.0Q487.0 193.5 498.25 184.5Q509.5 175.5 517.5 167.5Q525.5 159.5 525.5 156.5ZM544.5 168.5Q546.0 163.0 547.0 158.0Q548.0 153.0 548.0 151.0Q546.0 152.0 539.25 158.75Q532.5 165.5 523.5 175.0Q514.0 185.0 507.25 192.75Q500.5 200.5 500.5 200.5Q500.5 200.5 505.25 201.25Q510.0 202.0 517.0 203.0L524.0 204.0Q530.0 205.0 534.0 205.75Q538.0 206.5 540.0 206.5Q543.5 206.5 543.5 204.0Q543.5 203.0 543.25 201.5Q543.0 200.0 542.5 198.0Q542.5 196.0 542.25 193.75Q542.0 191.5 542.0 189.0Q542.0 184.0 542.5 178.75Q543.0 173.5 544.5 168.5ZM641.0 167.0V166.5Q641.0 163.0 621.5 163.0Q613.5 163.0 607.5 163.25Q601.5 163.5 601.5 163.5Q601.5 164.0 605.25 170.75Q609.0 177.5 614.0 186.5L626.0 207.5L633.0 190.5Q636.5 183.0 638.75 176.25Q641.0 169.5 641.0 167.0ZM641.5 51.5H625.5Q612.5 51.5 612.5 52.0Q612.5 52.5 615.25 55.75Q618.0 59.0 621.5 61.75Q625.0 64.5 626.0 64.5Q627.0 64.5 629.0 63.25Q631.0 62.0 633.5 60.5Q637.0 56.5 639.25 54.25Q641.5 52.0 641.5 51.5ZM10.0 289.5Q10.0 261.5 11.5 250.0Q13.0 238.5 17.0 238.5Q20.0 238.5 23.0 242.0Q26.0 245.5 28.0 250.0Q30.0 253.5 36.0 259.25Q42.0 265.0 48.5 269.0Q55.0 272.5 61.25 274.5Q67.5 276.5 78.25 277.25Q89.0 278.0 107.5 278.0H139.0Q157.0 278.0 169.25 279.0Q181.5 280.0 181.5 282.5V283.5Q180.5 284.5 164.75 286.5Q149.0 288.5 128.5 289.5Q86.5 291.5 65.0 299.0Q43.5 306.5 30.5 325.0Q25.5 330.5 21.25 335.0Q17.0 339.5 15.5 339.5Q13.5 339.5 11.75 324.75Q10.0 310.0 10.0 289.5ZM10.0 131.0Q10.0 81.0 17.5 81.0Q20.5 81.0 26.5 93.5Q28.5 98.0 36.0 104.0Q43.5 110.0 52.0 114.0Q62.0 118.5 70.0 120.5Q78.0 122.5 93.5 122.5Q99.5 122.5 107.0 122.25Q114.5 122.0 124.0 121.5Q134.0 121.0 141.25 121.0Q148.5 121.0 154.0 121.0Q169.0 121.0 175.25 122.5Q181.5 124.0 185.5 128.0Q191.5 134.0 191.5 136.5Q191.5 139.5 184.0 144.0Q171.0 150.5 165.75 167.75Q160.5 185.0 160.5 222.0Q160.5 243.5 159.0 256.75Q157.5 270.0 155.0 270.0Q152.5 270.0 150.75 258.0Q149.0 246.0 149.0 227.0Q149.0 204.0 147.25 190.0Q145.5 176.0 141.0 166.25Q136.5 156.5 127.5 147.0Q120.5 140.0 114.25 137.5Q108.0 135.0 97.0 135.0Q86.0 135.0 72.5 139.5Q59.0 144.0 47.25 151.5Q35.5 159.0 29.5 167.5Q24.5 173.0 20.5 177.25Q16.5 181.5 15.0 181.5Q13.0 181.5 11.5 167.0Q10.0 152.5 10.0 131.0ZM236.0 36.5V36.0Q244.5 22.0 248.25 16.0Q252.0 10.0 253.5 10.0Q256.0 10.0 257.0 19.5Q259.5 44.0 267.75 64.0Q276.0 84.0 287.5 94.5Q292.0 98.5 305.5 108.0Q319.0 117.5 336.5 129.5Q354.0 141.5 370.75 152.75Q387.5 164.0 399.25 171.25Q411.0 178.5 412.5 178.5Q413.0 178.5 414.0 158.25Q415.0 138.0 416.5 110.5Q418.0 80.5 420.25 59.75Q422.5 39.0 424.5 39.0Q426.0 39.0 429.5 42.0Q433.0 45.0 436.5 49.5Q443.5 56.5 450.5 61.0Q457.5 65.5 467.75 67.75Q478.0 70.0 494.75 70.75Q511.5 71.5 538.0 71.5Q567.5 71.5 587.0 73.0Q606.5 74.5 608.5 76.5V77.5Q608.5 84.0 554.5 84.0Q510.0 84.0 482.5 90.75Q455.0 97.5 437.5 112.0L428.5 119.5L440.0 130.0Q446.0 135.0 451.25 137.5Q456.5 140.0 466.5 140.75Q476.5 141.5 496.0 141.5Q517.5 141.5 527.0 141.0Q536.5 140.5 540.75 137.25Q545.0 134.0 551.0 127.0Q556.5 121.0 561.5 113.25Q566.5 105.5 568.5 101.0L575.5 86.0L577.5 100.0Q577.5 100.5 577.75 101.75Q578.0 103.0 578.0 104.5Q578.0 113.5 574.5 118.0Q572.5 120.0 568.5 129.75Q564.5 139.5 560.5 151.5Q556.5 163.5 553.5 174.0Q550.5 184.5 550.5 188.0Q550.5 193.0 559.0 201.5Q562.5 205.0 565.75 209.75Q569.0 214.5 569.5 217.0V216.5Q570.5 218.0 578.25 223.5Q586.0 229.0 596.0 234.5L618.5 247.5V234.5Q618.5 228.0 615.25 217.75Q612.0 207.5 606.75 196.75Q601.5 186.0 596.0 177.75Q590.5 169.5 586.0 166.5Q577.5 160.5 577.5 157.0Q577.5 153.0 587.75 151.75Q598.0 150.5 621.0 150.5Q669.5 150.5 669.5 159.5Q669.5 163.5 662.5 167.5Q656.5 170.5 650.75 180.0Q645.0 189.5 640.5 201.75Q636.0 214.0 633.25 225.5Q630.5 237.0 630.5 244.0Q630.5 249.5 633.75 253.5Q637.0 257.5 646.0 265.5Q653.5 272.0 657.0 276.75Q660.5 281.5 661.0 284.0Q661.0 286.5 659.0 286.5Q658.0 286.5 654.75 284.75Q651.5 283.0 646.0 278.5Q637.5 272.5 633.0 272.5H632.0Q631.5 274.0 630.5 288.0Q629.5 302.0 629.5 321.0Q629.5 342.5 628.5 352.75Q627.5 363.0 625.0 363.5Q624.5 363.0 624.0 362.75Q623.5 362.5 623.0 362.0Q621.0 358.5 619.75 348.0Q618.5 337.5 618.5 325.0V297.0L558.0 298.0Q522.5 298.5 498.5 301.75Q474.5 305.0 455.75 312.25Q437.0 319.5 417.0 333.0L390.5 350.0V240.5L407.5 256.5Q420.5 268.5 432.5 275.25Q444.5 282.0 461.75 285.0Q479.0 288.0 506.0 289.5Q514.0 289.5 522.75 289.75Q531.5 290.0 539.5 290.0Q554.0 290.0 567.25 289.5Q580.5 289.0 588.5 288.5Q603.5 286.5 609.75 285.25Q616.0 284.0 617.25 281.25Q618.5 278.5 618.5 272.5Q618.5 266.5 616.0 262.75Q613.5 259.0 604.5 253.75Q595.5 248.5 576.0 239.5Q557.5 230.0 546.5 225.75Q535.5 221.5 526.25 220.25Q517.0 219.0 502.5 219.0Q479.0 219.0 464.75 222.75Q450.5 226.5 433.5 238.0Q425.0 243.5 421.5 243.5Q414.0 243.5 414.0 223.5Q414.0 210.5 410.5 210.5H409.5Q406.5 211.5 387.25 221.0Q368.0 230.5 344.5 243.0Q325.0 253.5 312.25 261.0Q299.5 268.5 290.75 275.0Q282.0 281.5 274.5 288.75Q267.0 296.0 258.5 306.0Q247.5 318.5 237.0 333.5Q226.5 348.5 222.5 356.0Q213.5 376.0 209.0 376.0Q205.0 376.0 205.0 364.5Q205.0 360.0 201.5 343.75Q198.0 327.5 194.0 308.0Q189.5 290.0 186.75 276.25Q184.0 262.5 184.0 260.0V258.5H185.5Q190.0 258.5 206.0 266.5Q213.5 270.5 220.0 273.25Q226.5 276.0 228.0 276.0Q229.0 276.0 229.75 267.0Q230.5 258.0 230.5 245.5Q230.5 230.5 229.5 213.75Q228.5 197.0 227.0 183.75Q225.5 170.5 223.5 166.5Q221.5 162.0 216.25 155.0Q211.0 148.0 206.0 142.5H206.5Q197.5 134.5 197.5 129.5Q197.5 127.0 199.5 127.0Q204.0 127.0 215.0 127.0Q226.0 127.0 238.75 127.5Q251.5 128.0 260.75 128.5Q270.0 129.0 270.5 130.0L271.0 131.0Q271.0 135.0 260.0 145.0Q249.0 157.0 244.25 177.0Q239.5 197.0 239.5 234.5Q239.5 260.5 241.0 268.25Q242.5 276.0 246.0 276.0Q249.0 276.0 262.0 270.5Q275.0 265.0 293.5 256.0Q312.0 247.0 332.0 236.75Q352.0 226.5 369.75 217.0Q387.5 207.5 398.5 201.0Q409.5 194.5 409.5 193.0Q409.5 192.0 393.0 181.25Q376.5 170.5 354.5 156.0Q336.0 144.0 321.75 135.75Q307.5 127.5 294.0 122.5Q280.5 117.5 265.0 115.25Q249.5 113.0 227.5 113.0Q223.0 113.0 219.0 113.0Q215.0 113.0 212.0 113.5Q200.0 115.0 193.0 115.0Q186.5 115.0 186.5 112.5Q186.5 111.5 191.25 104.25Q196.0 97.0 202.5 88.5Q209.5 79.5 219.5 64.25Q229.5 49.0 236.0 36.5ZM583.5 48.5V48.0Q581.0 46.5 581.0 44.5Q581.0 41.5 591.75 40.5Q602.5 39.5 627.5 39.5H637.0Q657.0 39.5 668.75 41.25Q680.5 43.0 680.5 45.5Q680.5 51.5 670.0 51.5Q665.5 51.5 658.75 56.0Q652.0 60.5 645.0 66.5Q638.0 74.0 634.5 79.0Q631.0 84.0 630.25 91.0Q629.5 98.0 629.5 112.5Q629.5 125.5 628.0 135.0Q626.5 144.5 624.0 144.5Q621.5 144.5 620.0 134.25Q618.5 124.0 618.5 108.5Q618.5 90.5 616.5 81.25Q614.5 72.0 607.0 65.25Q599.5 58.5 583.5 48.5Z" fill="black" /></svg>