<svg xmlns="http://www.w3.org/2000/svg" width="541.0" height="450.5" viewBox="0 0 541.0 450.5"><path d="M233.0 288.0 245.0 278.5 207.0 259.5V285.5Q207.0 307.5 208.0 307.5L208.5 306.0Q211.0 303.0 218.0 297.5Q225.0 292.0 233.0 288.0ZM59.5 163.5V164.5Q59.5 162.0 60.0 160.5Q60.5 159.0 60.5 157.5Q60.5 153.5 54.0 153.5H49.5Q50.0 154.0 50.25 154.75Q50.5 155.5 51.5 157.0V155.5Q53.5 159.0 55.25 163.75Q57.0 168.5 57.5 172.0Q57.5 172.0 58.25 169.5Q59.0 167.0 59.5 163.5ZM133.0 100.5Q122.0 98.0 110.75 93.25Q99.5 88.5 94.0 85.5L85.5 78.0L83.5 105.0Q83.5 110.0 83.0 115.25Q82.5 120.5 82.5 124.5V134.0Q83.5 134.0 91.5 130.0Q99.5 126.0 109.0 121.0Q119.5 115.5 130.5 110.75Q141.5 106.0 145.0 105.0Q146.0 105.0 146.5 104.5Q144.5 104.0 141.0 103.0Q137.5 102.0 133.0 100.5ZM164.0 166.0V167.5Q166.0 163.5 167.5 160.5Q169.0 157.5 169.5 155.5Q167.5 155.5 165.5 155.75Q163.5 156.0 160.5 157.0H156.5Q145.5 157.5 145.5 159.5Q145.5 160.0 146.5 162.25Q147.5 164.5 149.0 168.5Q150.0 172.5 152.0 176.0Q154.0 179.5 154.5 179.5Q155.5 179.5 158.5 175.5Q161.5 171.5 164.0 166.0ZM179.0 139.0Q187.5 136.5 193.0 135.25Q198.5 134.0 202.0 134.0Q206.5 134.0 209.0 136.0Q211.5 138.0 213.0 140.5L213.5 142.5Q213.5 144.0 211.25 146.25Q209.0 148.5 206.0 148.5Q200.5 148.5 192.0 155.75Q183.5 163.0 175.75 173.5Q168.0 184.0 163.5 194.0Q160.0 202.5 158.25 223.0Q156.5 243.5 156.5 281.5Q156.5 347.0 151.5 356.0H188.0L189.5 343.5Q190.0 340.0 190.25 332.5Q190.5 325.0 191.0 315.5Q191.0 295.0 192.5 273.5Q193.0 244.0 195.5 230.25Q198.0 216.5 201.5 216.5Q205.5 216.5 210.0 231.5Q212.5 244.0 223.75 252.5Q235.0 261.0 252.0 264.0L266.5 266.0V107.5H229.0Q208.0 107.5 192.75 109.25Q177.5 111.0 163.5 115.0Q149.5 119.0 132.5 126.0Q119.0 131.0 116.5 134.5Q118.0 136.0 118.0 139.0Q118.0 141.0 116.25 142.75Q114.5 144.5 109.0 145.5H110.5Q98.0 150.5 89.0 158.75Q80.0 167.0 72.5 185.0Q69.0 192.5 66.5 199.25Q64.0 206.0 63.0 215.0Q62.0 224.0 61.5 239.0Q61.0 254.0 61.0 278.0Q61.0 343.5 56.5 351.5Q67.0 354.0 84.25 355.0Q101.5 356.0 127.5 356.0H149.5Q147.5 351.5 145.75 329.25Q144.0 307.0 144.0 269.0Q144.0 236.0 143.25 215.75Q142.5 195.5 140.75 184.25Q139.0 173.0 135.0 167.75Q131.0 162.5 124.0 159.5Q113.0 153.5 113.0 150.0Q113.0 146.0 119.75 144.5Q126.5 143.0 140.5 142.5Q150.5 142.5 162.5 141.25Q174.5 140.0 179.0 139.0ZM279.0 265.5H448.0V107.5H279.0ZM273.5 73.5 276.0 82.0 295.5 53.0H278.0Q264.5 53.0 263.0 54.0H264.5Q268.5 61.5 273.5 73.5ZM488.5 27.5Q488.5 27.5 481.25 26.5Q474.0 25.5 463.0 25.5H440.5L447.5 40.0Q450.5 46.5 453.5 53.5Q456.5 60.5 456.5 64.5Q456.5 69.5 457.5 69.5Q461.5 69.5 466.5 59.0Q468.0 53.0 472.5 46.5Q477.0 40.0 481.5 37.0Q484.0 33.5 486.25 30.75Q488.5 28.0 488.5 27.5ZM48.5 364.0Q40.0 361.5 35.5 358.5Q33.5 357.5 31.5 357.25Q29.5 357.0 29.5 357.0V390.5Q34.0 388.0 37.25 385.75Q40.5 383.5 44.5 381.5Q48.5 377.5 52.75 374.5Q57.0 371.5 59.5 369.5Q61.0 368.0 62.0 368.0Q59.0 368.0 48.5 364.0ZM402.0 14.5Q402.0 12.0 415.5 11.0Q429.0 10.0 447.5 10.0Q465.5 10.0 484.25 10.5Q503.0 11.0 516.5 11.75Q530.0 12.5 531.0 13.5V16.0Q531.0 18.5 528.5 20.25Q526.0 22.0 522.0 23.5Q514.0 25.5 504.5 34.0Q495.0 42.5 486.25 53.25Q477.5 64.0 472.0 74.0Q466.5 84.0 466.5 89.5Q466.5 92.5 468.0 92.5Q474.0 94.0 474.0 100.5Q474.0 103.0 472.0 105.25Q470.0 107.5 465.0 107.5Q463.5 107.5 462.5 114.25Q461.5 121.0 461.25 141.0Q461.0 161.0 461.0 201.5Q461.0 248.0 459.0 275.25Q457.0 302.5 455.5 305.0H453.5Q448.0 305.0 448.0 291.5V280.0H276.5L250.0 294.5Q242.5 298.0 230.25 307.5Q218.0 317.0 208.25 328.25Q198.5 339.5 198.5 349.5Q198.5 351.5 204.0 351.75Q209.5 352.0 224.5 352.0Q237.5 352.0 247.5 353.5Q257.5 355.0 257.5 357.5Q257.5 359.5 245.75 361.75Q234.0 364.0 214.75 365.75Q195.5 367.5 173.0 368.75Q150.5 370.0 129.0 370.0Q107.5 370.0 95.25 372.25Q83.0 374.5 72.5 380.0Q53.0 389.5 39.0 403.25Q25.0 417.0 22.5 429.5Q20.0 440.5 17.5 440.5Q14.0 440.5 12.0 436.5Q11.5 434.5 10.75 431.75Q10.0 429.0 10.0 425.5Q10.0 421.5 11.0 415.25Q12.0 409.0 13.0 402.5Q17.0 389.0 17.0 368.5Q17.0 364.0 16.75 358.75Q16.5 353.5 15.5 348.5Q15.0 343.0 14.75 338.5Q14.5 334.0 14.5 330.0Q14.5 315.5 19.5 315.5Q23.5 315.5 29.5 331.5Q33.0 339.0 38.5 343.75Q44.0 348.5 54.0 351.0Q52.0 346.0 50.25 324.0Q48.5 302.0 48.5 265.5Q48.5 221.5 47.0 198.75Q45.5 176.0 41.0 166.75Q36.5 157.5 28.0 155.0Q17.5 151.5 17.5 146.5Q17.5 143.5 24.75 141.25Q32.0 139.0 43.0 139.0Q57.0 139.0 63.0 136.5Q69.0 134.0 70.5 122.75Q72.0 111.5 72.0 86.0Q72.0 44.5 77.5 43.5Q82.0 44.5 86.5 55.0Q103.0 93.0 222.0 93.0H265.0L262.5 81.5Q260.5 77.0 255.5 68.75Q250.5 60.5 244.5 56.5Q239.0 52.0 234.25 47.5Q229.5 43.0 229.5 41.0Q229.5 38.5 238.25 37.75Q247.0 37.0 259.5 37.0Q275.0 37.0 292.25 37.5Q309.5 38.0 322.25 39.0Q335.0 40.0 336.0 41.0L337.5 43.5Q337.5 46.5 335.25 47.75Q333.0 49.0 330.5 49.0Q326.0 49.0 317.75 54.5Q309.5 60.0 301.5 68.0Q293.5 76.0 290.0 84.0L285.5 93.0H449.0L446.5 78.0Q443.0 59.0 435.75 45.75Q428.5 32.5 417.0 27.5Q411.5 23.0 406.75 19.5Q402.0 16.0 402.0 14.5Z" fill="black" /></svg>