<svg xmlns="http://www.w3.org/2000/svg" width="645.5" height="459.0" viewBox="0 0 645.5 459.0"><path d="M30.0 327.0 22.0 322.0V371.0L62.5 338.0Q48.0 334.0 41.25 331.5Q34.5 329.0 30.0 327.0ZM76.5 249.5Q76.5 248.5 76.75 247.5Q77.0 246.5 77.0 245.5Q80.0 237.0 83.0 229.75Q86.0 222.5 90.5 215.0Q87.5 215.0 83.75 215.75Q80.0 216.5 77.5 216.5Q76.5 216.5 71.0 215.25Q65.5 214.0 65.5 214.0Q71.0 225.5 74.0 240.0Q74.5 242.5 75.25 244.75Q76.0 247.0 76.5 249.5ZM116.5 229.5Q114.5 224.0 110.25 220.5Q106.0 217.0 106.0 217.0Q96.0 223.5 91.0 234.75Q86.0 246.0 84.5 258.75Q83.0 271.5 82.5 283.0L81.5 325.5H128.0L127.5 285.0Q127.0 268.5 123.0 252.0Q119.0 235.5 116.5 229.5ZM134.5 217.5Q131.5 217.5 126.75 217.0Q122.0 216.5 122.0 216.5Q123.0 218.0 124.25 221.5Q125.5 225.0 126.5 227.5Q127.5 229.5 129.0 235.5Q130.5 241.5 131.5 247.0Q132.5 252.5 132.5 252.5Q133.5 247.0 135.5 239.25Q137.5 231.5 138.0 229.0Q139.0 227.5 141.5 222.25Q144.0 217.0 144.0 217.0Q142.5 217.5 139.75 217.5Q137.0 217.5 134.5 217.5ZM174.0 230.5Q172.0 223.5 166.75 220.0Q161.5 216.5 161.5 216.5L156.5 218.5Q154.0 220.5 152.5 225.0Q151.0 229.5 149.5 234.0Q149.0 236.0 148.5 237.75Q148.0 239.5 147.0 240.5Q143.5 252.5 141.0 267.0Q138.5 281.5 138.5 297.5L139.5 325.5H185.5L184.0 282.0Q182.5 262.0 179.5 249.25Q176.5 236.5 174.0 230.5ZM157.5 123.0 154.0 172.5Q158.0 167.0 161.5 160.5Q164.0 156.0 171.0 148.5Q178.0 141.0 184.5 136.0L181.5 135.0Q176.5 134.0 173.0 133.25Q169.5 132.5 166.0 130.0L164.0 128.5Q162.0 126.5 160.75 125.5Q159.5 124.5 157.5 123.0ZM198.0 228.5Q200.0 226.0 200.75 223.5Q201.5 221.0 201.5 221.0H192.5Q192.0 221.0 186.25 220.0Q180.5 219.0 180.5 219.0Q182.5 224.0 185.0 231.25Q187.5 238.5 189.5 244.0Q191.5 249.5 191.5 249.5Q192.5 245.0 194.75 238.5Q197.0 232.0 198.0 228.5ZM149.0 206.0Q154.5 206.5 160.25 206.5Q166.0 206.5 172.0 207.0Q178.5 207.5 184.5 208.0Q190.5 208.5 194.5 208.5Q205.5 208.5 215.0 210.0Q224.5 211.5 226.0 212.5Q227.0 213.5 227.0 213.5Q227.0 216.5 220.0 222.0Q209.5 227.0 203.5 245.75Q197.5 264.5 197.5 291.5V325.5L256.0 326.0Q264.0 326.0 271.0 326.25Q278.0 326.5 283.0 326.5Q293.0 326.5 300.0 326.5Q307.0 326.5 311.0 327.0Q316.5 327.5 319.5 329.5Q322.5 331.5 322.5 333.0Q322.5 335.0 320.0 337.5Q321.5 338.5 324.75 338.75Q328.0 339.0 330.0 339.0Q330.5 339.0 332.0 338.75Q333.5 338.5 333.5 338.5Q333.5 334.0 333.5 314.75Q333.5 295.5 333.0 260.0V211.0Q333.0 196.0 331.75 186.75Q330.5 177.5 327.0 168.5Q323.5 159.5 316.5 146.5Q315.0 144.0 313.75 142.0Q312.5 140.0 311.0 136.5H281.5Q274.0 136.0 266.25 136.0Q258.5 136.0 250.5 136.0H241.0Q224.5 136.0 215.5 136.5Q206.5 137.0 200.5 139.25Q194.5 141.5 187.0 146.5Q176.0 157.5 168.5 170.0Q161.0 182.5 153.5 197.0Q151.0 204.0 149.0 206.0ZM354.0 137.5H326.0Q327.0 139.0 327.5 140.5Q328.0 142.0 328.5 144.0L331.0 149.5Q333.0 153.5 335.0 159.25Q337.0 165.0 338.0 170.0L339.0 166.0Q340.5 161.0 341.75 156.5Q343.0 152.0 344.0 149.5V150.0Q346.0 146.0 349.0 143.0Q352.0 140.0 354.0 137.5ZM382.5 154.0Q381.0 146.5 375.5 141.5Q370.0 136.5 370.0 136.5Q368.0 138.0 363.0 142.25Q358.0 146.5 354.5 153.0Q351.5 159.0 349.75 165.0Q348.0 171.0 347.0 181.25Q346.0 191.5 345.75 208.75Q345.5 226.0 345.5 254.5V339.0H367.5Q376.0 339.0 384.25 337.75Q392.5 336.5 392.5 336.5Q392.5 333.5 391.75 326.0Q391.0 318.5 391.0 307.5Q391.0 292.0 390.75 272.75Q390.5 253.5 390.0 234.25Q389.5 215.0 389.0 199.75Q388.5 184.5 387.5 177.5Q387.5 176.5 387.0 175.25Q386.5 174.0 386.5 173.0Q386.0 169.0 385.5 164.75Q385.0 160.5 382.5 154.0ZM403.0 156.0Q405.0 152.0 409.5 145.75Q414.0 139.5 414.0 139.5Q396.5 138.5 392.5 138.5Q388.5 138.5 388.5 138.5Q389.5 140.5 391.0 142.5Q392.5 144.5 393.0 146.0Q394.0 148.5 395.25 154.25Q396.5 160.0 397.5 164.75Q398.5 169.5 398.5 169.5Q399.5 166.5 400.25 163.25Q401.0 160.0 403.0 156.0ZM429.5 97.0Q423.5 88.5 416.5 79.25Q409.5 70.0 407.0 64.5L401.0 52.0L386.5 75.0Q378.5 89.0 374.5 95.0Q370.5 101.0 370.5 101.0L377.5 99.0Q389.0 99.0 407.25 102.0Q425.5 105.0 437.0 109.5Q439.0 110.5 440.0 110.5Q439.0 108.5 436.25 105.25Q433.5 102.0 429.5 97.0ZM393.5 358.0Q398.5 354.0 401.5 351.75Q404.5 349.5 405.0 349.0Q404.5 349.5 402.0 349.5Q398.5 350.0 386.25 350.75Q374.0 351.5 360.5 351.5Q358.0 351.5 355.0 351.5Q352.0 351.5 349.5 352.5H338.5L330.0 351.5L333.5 365.0Q336.0 371.5 338.25 380.25Q340.5 389.0 340.5 395.0L342.0 409.0Q342.5 409.0 343.5 407.25Q344.5 405.5 346.0 403.5Q355.5 390.5 368.25 379.0Q381.0 367.5 393.5 358.0ZM233.0 124.5H260.0Q294.0 124.5 321.0 124.0Q348.0 123.5 359.0 123.0Q381.5 124.0 398.5 125.25Q415.5 126.5 425.0 127.5Q429.0 128.0 431.75 128.25Q434.5 128.5 434.5 128.5Q434.5 129.5 431.0 135.25Q427.5 141.0 422.0 145.0Q413.5 153.5 409.75 166.75Q406.0 180.0 405.25 203.25Q404.5 226.5 404.5 265.5V333.5L429.5 324.0Q434.5 322.0 448.25 315.25Q462.0 308.5 481.0 298.5Q500.0 288.5 520.75 276.75Q541.5 265.0 561.0 253.75Q580.5 242.5 595.75 233.25Q611.0 224.0 618.5 218.5Q619.5 218.5 620.0 218.25Q620.5 218.0 620.5 218.0Q620.5 216.0 611.75 210.75Q603.0 205.5 589.5 198.25Q576.0 191.0 561.5 183.5Q547.0 176.0 535.25 170.25Q523.5 164.5 519.0 162.5Q507.5 156.5 490.25 148.25Q473.0 140.0 453.25 132.0Q433.5 124.0 414.75 118.75Q396.0 113.5 381.0 113.5Q375.5 113.5 370.75 114.25Q366.0 115.0 362.0 118.0Q358.5 121.0 355.25 122.0Q352.0 123.0 350.0 123.0Q344.5 123.0 344.5 117.5Q344.5 115.5 345.25 114.5Q346.0 113.5 346.5 112.5L351.0 105.0Q352.0 104.0 352.5 103.0Q353.0 102.0 353.5 101.5Q354.0 99.0 355.25 97.5Q356.5 96.0 358.0 94.0Q374.0 74.0 382.75 54.75Q391.5 35.5 392.5 30.5Q393.0 29.0 393.75 26.5Q394.5 24.0 397.0 19.0Q401.0 15.0 403.75 12.5Q406.5 10.0 408.5 10.0Q410.0 10.0 410.0 16.0Q410.0 17.5 410.0 19.5Q410.0 21.5 409.5 24.5V29.5Q409.5 42.0 419.0 59.25Q428.5 76.5 447.0 96.5Q456.0 105.5 467.0 114.25Q478.0 123.0 497.5 134.25Q517.0 145.5 550.5 162.5Q587.0 182.5 610.75 196.5Q634.5 210.5 635.5 214.5V216.5Q635.5 220.0 628.75 226.25Q622.0 232.5 605.5 242.75Q589.0 253.0 559.0 270.5Q484.0 312.0 438.25 342.25Q392.5 372.5 370.25 394.5Q348.0 416.5 344.0 433.5V433.0Q343.0 440.5 340.25 444.75Q337.5 449.0 335.0 449.0Q330.5 449.0 330.5 438.0Q330.5 414.5 324.75 389.25Q319.0 364.0 309.0 342.5Q306.5 339.0 305.0 339.0L197.5 338.5V377.0Q197.5 395.5 195.75 408.0Q194.0 420.5 191.0 420.5Q189.0 420.5 187.25 408.0Q185.5 395.5 185.5 377.0V338.5H139.5V377.0Q139.5 395.5 138.25 408.0Q137.0 420.5 133.5 420.5Q130.5 420.5 129.0 410.5Q127.5 400.5 127.5 384.5V377.0L128.0 338.5Q120.0 338.5 112.0 338.5Q104.0 338.5 96.5 339.0Q93.0 339.5 89.0 340.75Q85.0 342.0 81.5 343.0V374.5Q81.5 393.0 79.75 404.25Q78.0 415.5 75.0 415.5Q73.0 415.5 71.25 405.25Q69.5 395.0 69.5 379.5Q69.5 364.5 69.0 357.25Q68.5 350.0 68.5 350.0Q65.5 351.5 58.75 356.5Q52.0 361.5 44.25 367.75Q36.5 374.0 30.75 380.25Q25.0 386.5 23.5 391.0V390.5Q23.0 395.5 21.25 397.25Q19.5 399.0 17.5 399.5Q15.0 399.0 12.5 396.0Q10.0 393.0 10.0 389.5V388.0L11.5 380.5V324.0Q11.5 308.0 12.5 301.5Q13.5 295.0 16.5 295.0Q19.5 295.0 25.0 304.5Q29.0 314.5 41.5 318.75Q54.0 323.0 64.5 324.0L68.5 324.5V282.5Q68.5 254.0 64.5 240.5Q60.5 227.0 55.5 219.0Q51.0 214.5 48.0 209.0Q45.0 203.5 45.0 201.5H46.5Q49.0 201.5 51.5 202.0Q63.5 203.5 76.0 204.0Q88.5 204.5 100.5 204.5Q106.5 204.5 114.25 204.75Q122.0 205.0 134.0 206.0Q136.5 206.0 139.25 206.0Q142.0 206.0 144.5 206.0Q144.0 204.5 143.75 201.75Q143.5 199.0 143.5 195.5Q143.5 190.0 143.75 182.75Q144.0 175.5 144.0 168.0Q144.5 162.5 144.75 157.25Q145.0 152.0 145.0 147.0Q145.0 143.0 145.25 134.75Q145.5 126.5 146.0 117.5Q146.5 108.5 146.75 102.25Q147.0 96.0 147.0 96.0Q147.0 96.0 148.75 91.25Q150.5 86.5 153.0 86.5Q155.5 86.5 157.0 90.25Q158.5 94.0 158.5 98.5Q158.5 102.0 162.25 106.75Q166.0 111.5 170.0 117.0Q173.5 120.5 177.25 122.0Q181.0 123.5 192.0 124.0Q199.0 124.5 208.75 124.5Q218.5 124.5 233.0 124.5Z" fill="black" /></svg>