<svg xmlns="http://www.w3.org/2000/svg" width="696.5" height="386.5" viewBox="0 0 696.5 386.5"><path d="M189.5 317.0Q189.5 311.5 188.5 311.5Q188.0 311.5 187.5 315.5Q187.0 319.5 187.0 325.0V333.5Q188.0 341.5 188.75 347.5Q189.5 353.5 189.5 353.5Q192.0 352.5 197.0 349.75Q202.0 347.0 207.5 343.5Q215.5 339.5 224.0 336.5Q232.5 333.5 241.5 333.5Q241.5 330.5 217.5 323.0Q212.5 321.0 208.75 320.25Q205.0 319.5 202.5 319.5Q201.5 319.5 200.75 319.25Q200.0 319.0 200.0 319.0Q200.0 324.5 195.0 324.5Q193.0 324.5 191.25 322.25Q189.5 320.0 189.5 317.0ZM53.5 232.5Q53.0 231.5 45.5 227.0Q38.0 222.5 30.5 218.5Q23.0 214.5 22.0 214.5Q21.5 214.5 21.5 220.25Q21.5 226.0 21.5 233.5Q21.5 243.0 21.75 246.75Q22.0 250.5 23.0 250.5Q24.0 250.5 29.0 247.0L32.0 245.0Q36.0 242.5 40.25 240.0Q44.5 237.5 47.0 236.5Q49.5 235.0 51.25 234.0Q53.0 233.0 53.5 232.5ZM295.0 278.5Q295.0 275.0 292.5 274.0Q291.5 273.5 290.5 273.5Q289.5 273.5 289.5 275.5Q289.5 280.5 292.5 280.5Q295.0 280.5 295.0 278.5ZM39.5 116.5Q26.0 109.0 22.5 109.0Q22.5 111.0 22.75 118.5Q23.0 126.0 23.75 133.25Q24.5 140.5 26.0 141.5Q28.5 141.0 35.75 137.5Q43.0 134.0 49.25 130.0Q55.5 126.0 55.5 125.0Q55.5 124.5 50.75 122.0Q46.0 119.5 39.5 116.5ZM222.0 209.0Q222.0 206.0 218.5 206.0Q217.5 206.0 217.5 207.0Q217.5 207.0 217.5 207.25Q217.5 207.5 218.0 208.0Q219.0 211.5 221.5 211.5Q222.0 211.5 222.0 209.0ZM322.5 170.0H323.0Q323.5 169.5 323.5 168.5Q323.5 168.0 323.25 167.5Q323.0 167.0 323.0 166.5H322.5Q321.5 166.5 321.5 168.5Q321.5 170.0 322.5 170.0ZM322.5 206.5H323.0Q323.5 206.0 323.5 205.0Q323.5 204.0 323.0 203.5H322.5Q321.5 203.5 321.5 204.5Q321.5 206.5 322.5 206.5ZM322.5 243.0H323.0Q323.5 242.5 323.5 241.0Q323.5 240.0 323.0 239.5H322.5Q321.5 239.5 321.5 241.5Q321.5 243.0 322.5 243.0ZM196.5 50.5Q197.0 48.0 197.25 46.25Q197.5 44.5 197.5 43.0Q197.5 39.5 192.0 39.5Q186.5 39.5 186.5 43.5Q186.5 48.0 188.0 57.0V56.5Q192.0 76.0 194.0 77.0Q194.0 70.0 194.75 63.5Q195.5 57.0 196.5 50.5ZM244.5 48.0Q241.0 47.0 237.75 45.5Q234.5 44.0 231.5 43.0Q226.5 40.5 225.5 40.5H225.0V41.0Q225.0 42.5 225.5 43.5Q226.5 46.5 227.5 51.75Q228.5 57.0 228.5 62.5V71.5L244.5 63.5Q250.5 59.5 254.75 57.0Q259.0 54.5 259.0 54.0Q259.0 53.5 254.75 51.75Q250.5 50.0 244.5 48.0ZM436.0 32.5V30.0Q436.0 28.5 431.75 28.0Q427.5 27.5 414.5 27.5H390.5Q390.5 28.0 391.0 29.5Q391.5 31.0 392.0 32.5Q393.0 34.0 393.75 36.25Q394.5 38.5 395.0 40.5Q397.5 45.0 401.0 55.5Q404.5 66.0 407.0 76.0Q409.5 84.0 411.75 89.25Q414.0 94.5 414.5 94.5Q416.0 89.5 419.0 80.25Q422.0 71.0 425.5 61.0Q429.0 51.0 432.0 43.0Q435.0 35.0 436.0 32.5ZM439.5 137.0Q433.0 133.5 428.5 131.5Q424.0 129.5 424.0 129.5Q423.5 130.0 423.5 135.25Q423.5 140.5 423.5 147.5V165.5L444.0 157.0Q465.5 149.5 466.5 145.5Q466.0 145.0 462.0 145.0Q460.0 145.0 453.25 142.75Q446.5 140.5 439.5 137.0ZM455.5 232.5Q448.0 229.0 442.0 226.5Q436.0 224.0 434.0 223.5Q432.0 225.5 432.0 238.5Q432.0 245.5 432.25 250.75Q432.5 256.0 433.0 256.0Q435.0 256.0 441.5 254.0Q448.0 252.0 455.75 249.25Q463.5 246.5 469.0 244.25Q474.5 242.0 474.5 241.5Q474.5 241.0 469.0 238.25Q463.5 235.5 455.5 232.5ZM249.5 139.0Q249.0 138.0 242.5 136.0Q236.0 134.0 234.5 133.5Q231.5 134.5 230.0 137.0Q229.0 138.0 229.0 140.0Q229.0 142.5 235.0 143.5Q237.0 143.5 239.0 142.75Q241.0 142.0 243.0 141.5Q249.5 139.0 249.5 139.0ZM669.0 48.0H634.5Q624.0 48.0 624.0 52.0Q624.0 54.5 626.25 60.5Q628.5 66.5 632.0 76.5Q633.0 78.5 634.0 81.25Q635.0 84.0 636.0 86.5L644.5 110.0L647.0 98.5Q648.0 93.0 652.0 83.25Q656.0 73.5 659.5 66.5L661.0 63.5Q669.0 50.0 669.0 48.0ZM15.0 275.5H14.0Q13.0 274.0 12.25 265.5Q11.5 257.0 11.0 245.75Q10.5 234.5 10.25 224.5Q10.0 214.5 10.0 210.0Q10.0 195.0 12.0 195.0Q16.0 195.0 26.0 203.5Q46.0 216.5 60.0 222.5Q74.0 228.5 89.5 230.25Q105.0 232.0 129.0 232.0Q152.0 232.0 165.75 233.25Q179.5 234.5 179.5 237.0Q179.5 239.5 163.0 241.25Q146.5 243.0 117.0 243.0Q89.5 243.0 75.75 243.5Q62.0 244.0 55.25 245.75Q48.5 247.5 42.0 251.5Q36.5 255.0 31.0 259.5Q25.5 264.0 23.0 268.0Q17.0 275.5 15.0 275.5ZM12.5 128.5V120.5Q12.5 107.5 13.5 98.5Q14.5 89.5 16.0 89.5Q17.0 89.5 21.25 91.75Q25.5 94.0 29.0 98.0Q43.5 108.5 55.5 114.25Q67.5 120.0 84.25 122.0Q101.0 124.0 129.0 125.0Q155.0 126.0 169.25 128.0Q183.5 130.0 183.5 132.5Q183.5 137.0 168.5 137.0Q164.5 137.0 159.25 136.75Q154.0 136.5 148.0 136.0Q141.5 135.5 132.75 135.25Q124.0 135.0 115.0 135.0Q106.0 135.0 97.5 135.25Q89.0 135.5 83.0 136.0Q68.5 137.0 60.75 138.5Q53.0 140.0 47.75 143.5Q42.5 147.0 34.0 154.5Q27.0 161.0 21.75 164.75Q16.5 168.5 15.5 169.0L15.0 168.5Q14.5 167.0 14.25 159.75Q14.0 152.5 13.0 142.5Q13.0 139.0 12.75 135.5Q12.5 132.0 12.5 128.5ZM205.5 209.0Q205.5 200.0 206.5 196.0Q207.5 192.0 212.0 192.0Q214.5 192.0 218.5 193.25Q222.5 194.5 229.0 197.0Q235.5 200.0 248.0 201.5Q260.5 203.0 273.5 203.0Q287.5 203.0 296.5 205.0Q305.5 207.0 305.5 209.0Q305.5 211.5 295.25 213.0Q285.0 214.5 268.5 214.5Q250.0 214.5 239.75 216.0Q229.5 217.5 225.0 220.5Q217.5 226.5 213.0 226.5Q205.5 226.5 205.5 209.0ZM308.0 167.5Q308.0 161.0 309.0 158.25Q310.0 155.5 313.5 155.5Q314.5 155.5 316.25 155.75Q318.0 156.0 320.0 156.5Q324.0 157.5 338.25 159.5Q352.5 161.5 367.0 162.5Q382.0 164.0 393.5 166.0Q405.0 168.0 405.5 169.0H406.0Q406.0 171.0 396.25 172.5Q386.5 174.0 373.5 174.0Q356.5 174.0 344.75 175.25Q333.0 176.5 327.5 180.0Q319.5 184.0 316.0 184.0Q308.0 184.0 308.0 167.5ZM310.5 191.0H310.0Q311.0 190.0 313.0 190.0Q315.5 190.0 319.5 191.0Q323.5 192.0 328.5 193.5Q334.0 195.5 347.75 197.0Q361.5 198.5 375.0 199.5Q388.0 199.5 397.5 200.75Q407.0 202.0 407.0 204.5Q407.0 207.5 397.25 209.0Q387.5 210.5 373.0 210.5Q339.5 210.5 327.5 216.5Q318.5 221.0 314.0 221.0Q313.0 221.0 312.0 220.0V220.5Q310.0 219.0 308.75 214.0Q307.5 209.0 307.5 203.5Q307.5 199.5 308.25 195.75Q309.0 192.0 310.5 191.0ZM311.5 227.0Q314.0 224.5 315.0 224.5Q316.5 224.5 325.5 227.5L330.5 229.5Q337.0 232.5 349.5 234.0Q362.0 235.5 376.0 235.5Q389.5 235.5 398.25 237.0Q407.0 238.5 407.0 241.5Q407.0 244.0 397.25 245.5Q387.5 247.0 372.0 247.0Q337.0 247.0 325.5 253.0Q318.0 256.5 310.5 256.5Q308.0 253.0 308.0 242.5Q308.0 237.5 308.75 232.75Q309.5 228.0 311.5 227.0ZM377.0 15.5Q377.0 10.0 379.5 10.0Q380.5 10.0 385.5 12.5Q388.5 13.5 400.25 15.0Q412.0 16.5 425.0 16.5Q437.0 16.5 445.75 18.0Q454.5 19.5 454.5 21.0V21.5Q444.0 42.5 438.0 56.25Q432.0 70.0 429.5 79.25Q427.0 88.5 426.5 97.5V105.0Q426.5 113.0 429.25 116.25Q432.0 119.5 443.0 126.5Q449.5 130.0 455.25 132.0Q461.0 134.0 470.75 135.0Q480.5 136.0 499.0 136.5Q517.5 137.0 550.0 137.5Q588.5 138.0 613.75 140.0Q639.0 142.0 639.0 144.5Q639.0 146.5 619.25 148.0Q599.5 149.5 569.0 149.5Q539.5 149.5 522.75 150.25Q506.0 151.0 495.5 152.75Q485.0 154.5 473.5 158.0Q452.0 164.5 441.25 168.75Q430.5 173.0 427.0 177.5Q423.5 182.0 423.5 189.5Q423.5 197.5 426.75 201.75Q430.0 206.0 440.0 213.0Q452.0 220.0 463.0 224.0Q474.0 228.0 491.0 229.5Q508.0 231.0 538.0 231.0H565.0L643.0 229.5L642.5 184.5Q642.5 147.5 635.75 117.75Q629.0 88.0 613.0 57.5Q607.0 44.5 607.0 39.0Q607.0 36.5 608.5 36.5Q611.5 36.5 623.5 36.75Q635.5 37.0 649.5 37.25Q663.5 37.5 674.5 38.0Q685.5 38.5 686.0 39.5L686.5 40.5Q686.5 45.0 677.5 56.5Q670.0 66.5 665.5 76.0Q661.0 85.5 658.75 100.0Q656.5 114.5 655.75 139.5Q655.0 164.5 655.0 205.5Q655.0 254.5 653.75 281.25Q652.5 308.0 650.0 308.0Q648.0 308.0 646.25 298.5Q644.5 289.0 644.5 274.0V243.0H577.0Q541.0 243.0 517.5 245.0Q494.0 247.0 476.0 252.25Q458.0 257.5 438.5 268.0Q431.0 271.5 428.0 274.0Q425.0 276.5 424.25 282.0Q423.5 287.5 423.5 300.5Q423.5 310.0 424.75 318.0Q426.0 326.0 427.0 327.5Q431.5 331.0 431.5 333.0Q431.5 337.5 411.0 339.25Q390.5 341.0 340.0 341.0Q302.0 341.0 277.5 341.75Q253.0 342.5 237.75 345.0Q222.5 347.5 213.25 352.25Q204.0 357.0 195.5 364.5Q190.0 370.0 185.5 373.25Q181.0 376.5 181.0 376.5Q179.5 375.5 178.5 366.5Q177.5 357.5 176.75 345.25Q176.0 333.0 175.5 322.25Q175.0 311.5 175.0 307.5Q175.0 299.5 176.25 296.75Q177.5 294.0 179.5 294.0Q180.5 294.0 181.25 294.25Q182.0 294.5 183.5 295.0Q184.5 295.5 186.0 295.5Q188.5 295.5 189.25 290.75Q190.0 286.0 190.0 269.0Q190.0 258.0 189.75 241.75Q189.5 225.5 189.0 202.5Q188.5 175.5 187.25 150.5Q186.0 125.5 184.75 107.25Q183.5 89.0 182.0 83.0L172.0 25.5L191.5 27.5Q200.5 28.0 206.5 30.0Q208.0 30.0 209.25 30.25Q210.5 30.5 211.5 30.5Q211.5 31.5 209.75 40.25Q208.0 49.0 205.5 59.0Q203.5 69.0 202.25 84.75Q201.0 100.5 200.5 126.75Q200.0 153.0 200.0 195.0V304.5L214.5 310.0Q230.0 316.5 242.5 320.5Q255.0 324.5 268.25 326.5Q281.5 328.5 299.25 329.0Q317.0 329.5 343.5 329.5H413.5V283.0L358.5 284.5Q335.5 285.0 315.75 286.5Q296.0 288.0 291.5 289.0H292.0Q287.0 290.5 285.0 290.5Q281.5 290.5 280.25 287.75Q279.0 285.0 278.0 278.5Q277.5 277.0 277.5 275.5Q277.5 274.0 277.5 272.5Q277.5 264.5 280.0 262.0H282.0Q284.5 262.0 291.75 263.25Q299.0 264.5 307.5 266.5Q317.5 269.0 336.0 270.75Q354.5 272.5 373.0 272.5H413.5L412.0 145.0H346.0Q328.0 145.5 310.25 146.25Q292.5 147.0 279.5 147.5Q266.5 148.0 262.0 149.0Q255.5 150.5 246.75 152.5Q238.0 154.5 233.0 155.5L218.5 158.5V140.0Q218.5 132.5 219.25 127.25Q220.0 122.0 222.5 122.0Q224.0 122.0 235.5 124.5Q263.5 129.5 291.0 131.75Q318.5 134.0 346.5 134.0H365.0Q391.5 134.0 400.75 132.75Q410.0 131.5 410.0 126.0Q410.0 122.0 406.0 111.5L405.0 109.5Q403.5 105.0 401.0 96.25Q398.5 87.5 397.0 80.0L393.0 64.0H330.0Q297.0 64.0 278.75 65.5Q260.5 67.0 250.5 71.0Q240.5 75.0 232.0 83.5Q225.0 91.5 221.0 91.5Q219.0 91.5 218.0 86.0Q217.0 80.5 216.5 73.0Q216.0 65.5 216.0 59.0Q216.0 52.5 216.0 50.5Q216.0 40.0 216.75 32.25Q217.5 24.5 219.5 24.5Q220.5 24.5 229.0 28.25Q237.5 32.0 248.5 37.5Q257.5 42.5 264.0 45.25Q270.5 48.0 278.5 49.5Q286.5 51.0 299.0 51.5Q311.5 52.0 332.5 52.5Q344.5 52.5 354.75 52.75Q365.0 53.0 373.0 53.0Q388.5 53.0 388.5 53.5Q388.5 53.0 386.75 48.25Q385.0 43.5 382.5 38.0Q380.5 31.5 378.75 25.25Q377.0 19.0 377.0 15.5Z" fill="black" /></svg>