<svg xmlns="http://www.w3.org/2000/svg" width="282.0" height="439.0" viewBox="0 0 282.0 439.0"><path d="M226.5 172.5Q223.5 172.5 214.75 172.25Q206.0 172.0 194.0 171.5L164.0 170.5L173.5 182.5Q178.0 189.0 183.5 199.5Q189.0 210.0 191.5 218.5L196.0 236.0Q200.0 228.0 203.75 220.75Q207.5 213.5 211.5 206.5L215.5 198.0Q219.5 188.5 222.5 181.75Q225.5 175.0 226.5 172.5ZM107.0 31.5H106.0Q103.0 32.0 95.25 32.5Q87.5 33.0 79.0 33.0Q67.5 33.0 57.5 31.5Q56.5 31.5 51.0 31.0Q45.5 30.5 40.25 30.0Q35.0 29.5 34.5 29.5Q34.5 30.5 35.0 31.5Q46.5 53.0 54.5 74.25Q62.5 95.5 70.5 118.0V119.5Q70.5 119.5 70.5 118.5Q70.5 117.5 71.0 115.0Q72.0 111.5 73.5 105.75Q75.0 100.0 77.0 92.0Q79.5 80.0 84.0 67.75Q88.5 55.5 91.5 50.5V51.0Q94.0 46.0 97.25 41.5Q100.5 37.0 102.5 33.0Q103.5 32.0 104.25 31.75Q105.0 31.5 107.0 31.5ZM216.0 45.0 235.5 28.0H155.5L164.0 32.5Q172.5 37.5 180.25 45.25Q188.0 53.0 191.5 58.5Q194.0 61.5 196.0 66.0Q198.0 70.5 198.0 70.5Q199.0 68.5 200.25 66.5Q201.5 64.5 202.0 63.5Q205.5 58.5 210.0 53.0Q214.5 47.5 216.0 45.0ZM159.5 14.0Q180.0 13.0 198.5 12.5Q217.0 12.0 231.0 11.5Q253.5 10.0 259.0 10.0H261.5Q272.0 10.0 272.0 16.5Q272.0 22.0 262.0 26.0Q254.0 29.0 240.5 40.25Q227.0 51.5 213.5 69.0Q207.5 75.5 203.5 84.25Q199.5 93.0 199.5 93.0Q199.0 95.0 198.5 104.25Q198.0 113.5 198.0 123.0V156.5H222.5Q235.0 156.5 243.0 158.0Q251.0 159.5 251.0 162.0Q251.0 164.0 247.25 170.5Q243.5 177.0 238.0 185.0Q226.5 202.0 215.75 225.5Q205.0 249.0 200.0 269.5Q200.0 270.5 199.5 281.25Q199.0 292.0 198.5 307.0Q198.0 322.0 198.0 337.0Q198.0 383.0 196.25 406.0Q194.5 429.0 193.0 429.0Q187.0 429.0 185.5 336.0Q185.0 295.0 183.75 270.5Q182.5 246.0 179.75 231.5Q177.0 217.0 171.0 207.0Q167.5 201.5 163.25 194.25Q159.0 187.0 152.0 180.0Q138.5 165.5 138.5 160.0Q138.5 154.5 148.0 154.5Q151.0 154.5 154.75 154.75Q158.5 155.0 162.5 155.5L185.5 159.0V116.5Q185.5 91.0 182.75 77.25Q180.0 63.5 171.75 55.25Q163.5 47.0 146.5 39.0L126.5 28.0L115.0 40.0H115.5Q111.0 46.0 104.75 58.0Q98.5 70.0 94.5 82.0Q91.5 90.0 89.25 97.75Q87.0 105.5 85.25 117.0Q83.5 128.5 82.75 147.0Q82.0 165.5 81.5 194.25Q81.0 223.0 81.0 265.5Q81.0 336.0 79.75 376.0Q78.5 416.0 76.0 416.0H75.5Q74.0 413.5 72.75 398.0Q71.5 382.5 70.5 359.75Q69.5 337.0 68.75 312.75Q68.0 288.5 67.75 268.75Q67.5 249.0 67.5 239.5Q67.5 208.0 66.5 184.25Q65.5 160.5 61.75 140.0Q58.0 119.5 49.75 97.5Q41.5 75.5 26.5 46.5L10.0 13.5L42.0 15.5Q46.0 16.0 53.25 16.25Q60.5 16.5 70.0 16.5Q87.5 16.5 111.5 15.75Q135.5 15.0 159.5 14.0Z" fill="black" /></svg>