<svg xmlns="http://www.w3.org/2000/svg" width="966.0" height="419.0" viewBox="0 0 966.0 419.0"><path d="M151.5 205.0V204.5Q148.0 184.5 139.5 184.5Q136.5 184.5 134.0 187.5Q131.5 190.5 129.0 195.5Q119.5 221.5 116.5 250.5Q113.5 279.5 113.5 307.5L114.5 343.5L155.5 346.0V286.5Q155.5 269.0 155.0 252.25Q154.5 235.5 153.5 222.75Q152.5 210.0 151.5 205.0ZM324.0 197.5V198.0Q328.0 189.5 329.5 184.5Q325.0 187.5 315.5 197.0Q306.0 206.5 295.25 218.0Q284.5 229.5 276.25 239.0Q268.0 248.5 266.5 252.0Q269.0 253.5 275.5 254.25Q282.0 255.0 290.0 256.0L309.0 257.5L312.5 237.0Q313.5 227.0 316.75 215.25Q320.0 203.5 324.0 197.5ZM110.5 121.5Q110.5 120.5 102.5 117.0Q94.5 113.5 84.5 110.0L57.0 99.5V118.0Q57.0 127.0 57.75 130.5Q58.5 134.0 61.5 134.0Q65.5 134.0 67.5 132.5Q72.5 131.0 80.75 129.0Q89.0 127.0 96.0 126.0Q102.0 125.0 106.25 123.75Q110.5 122.5 110.5 121.5ZM108.5 215.0Q109.5 215.0 111.5 209.25Q113.5 203.5 115.0 196.75Q116.5 190.0 116.5 187.5Q116.5 184.5 115.0 183.5Q113.5 182.5 110.5 182.0Q107.5 181.0 106.0 181.0Q103.0 181.0 103.0 190.0Q103.0 196.5 104.5 202.75Q106.0 209.0 106.5 213.0Q108.0 215.0 108.5 215.0ZM173.5 193.5Q174.0 192.0 174.0 190.75Q174.0 189.5 174.0 189.5Q174.0 183.5 169.5 182.0Q168.5 181.0 166.0 181.0Q164.5 181.0 164.0 184.5Q163.5 188.0 163.5 197.0Q163.5 204.5 164.5 209.5Q165.5 214.5 166.5 214.5Q170.5 214.5 170.5 209.5Q170.5 208.5 171.5 203.0Q172.5 197.5 173.5 193.5ZM241.5 140.0Q241.5 133.0 239.25 130.25Q237.0 127.5 232.5 127.5Q223.0 127.5 223.0 130.5Q223.0 132.5 226.75 136.75Q230.5 141.0 235.0 144.75Q239.5 148.5 241.0 148.5Q241.5 148.5 241.5 140.0ZM264.5 169.5Q262.5 169.0 258.75 168.0Q255.0 167.0 249.5 166.0H250.0L238.5 163.5L242.5 208.0Q243.5 219.0 244.25 226.75Q245.0 234.5 245.5 234.5Q245.5 234.5 248.25 225.0Q251.0 215.5 255.0 203.0L258.5 189.5Q261.0 182.5 262.5 177.0Q264.0 171.5 264.5 169.5ZM404.5 181.0 405.0 180.5Q405.0 179.5 403.25 178.25Q401.5 177.0 400.0 176.0Q399.5 175.5 398.0 175.5Q394.0 175.5 394.0 179.5Q394.0 184.5 399.0 184.5Q401.0 184.5 404.5 181.0ZM404.5 226.0 405.0 225.5Q405.0 224.5 403.25 223.5Q401.5 222.5 400.0 220.5V221.0Q399.5 220.5 398.0 220.5Q394.0 220.5 394.0 224.0Q394.0 229.5 399.0 229.5Q401.5 229.5 404.5 226.0ZM409.5 273.5V272.0Q408.5 269.5 403.5 269.5Q399.0 269.5 399.0 274.0Q399.0 278.0 402.0 278.0Q404.0 278.0 406.75 276.75Q409.5 275.5 409.5 273.5ZM621.5 133.5Q619.0 128.5 608.25 124.75Q597.5 121.0 582.0 118.25Q566.5 115.5 550.5 113.5Q534.5 111.5 521.5 110.75Q508.5 110.0 502.5 110.0Q485.5 110.0 461.0 113.5Q430.0 115.5 411.5 118.75Q393.0 122.0 381.75 129.75Q370.5 137.5 361.0 153.5Q351.5 169.5 338.5 197.5Q333.5 208.0 330.5 215.75Q327.5 223.5 326.25 231.5Q325.0 239.5 325.0 251.5Q326.0 260.0 328.5 267.0Q331.0 274.0 333.0 274.0Q335.5 274.5 337.0 277.75Q338.5 281.0 338.5 283.5Q338.5 287.0 343.5 292.75Q348.5 298.5 354.25 303.5Q360.0 308.5 362.5 309.0H363.0Q364.5 307.5 365.5 307.5Q368.5 307.5 375.25 309.5Q382.0 311.5 390.0 315.0Q407.5 322.5 432.0 327.75Q456.5 333.0 481.5 336.0Q506.5 339.0 526.0 339.0Q549.5 339.0 574.5 335.25Q599.5 331.5 630.5 325.0L654.0 319.0V283.5Q654.0 249.0 649.0 249.0Q645.0 249.0 635.0 254.25Q625.0 259.5 615.25 266.25Q605.5 273.0 602.0 278.0Q597.0 283.5 593.5 283.5Q590.0 283.5 590.0 277.5Q590.0 275.5 590.25 272.75Q590.5 270.0 592.5 267.0Q596.0 262.5 597.0 254.75Q598.0 247.0 598.0 239.0Q598.0 231.5 597.0 223.5Q596.0 215.5 593.0 209.0Q590.0 200.0 590.0 195.5Q590.0 191.5 593.0 191.5Q598.0 191.5 609.0 199.5Q614.0 203.5 622.75 207.5Q631.5 211.5 638.5 213.5L654.0 215.5L651.0 202.0Q648.0 190.5 640.75 173.25Q633.5 156.0 621.5 133.5ZM273.5 86.5V85.5Q273.0 84.5 267.25 83.75Q261.5 83.0 254.5 83.0Q242.0 83.0 242.0 85.0Q242.0 87.0 242.75 89.75Q243.5 92.5 244.5 97.0Q248.0 103.5 248.5 109.0Q250.0 112.5 251.5 114.0Q253.5 113.0 256.75 110.0Q260.0 107.0 264.0 102.5H263.0Q267.5 96.5 270.5 92.5Q273.5 88.5 273.5 86.5ZM457.5 99.5 475.5 98.0Q472.0 96.0 462.75 90.5Q453.5 85.0 442.75 78.5Q432.0 72.0 423.75 67.5Q415.5 63.0 414.0 63.0Q413.0 63.0 409.0 70.0Q405.0 77.0 400.5 86.5L391.0 109.5L412.5 106.0Q418.0 105.0 425.25 104.25Q432.5 103.5 439.5 103.0Q445.0 102.0 449.5 101.0Q454.0 100.0 457.5 99.5ZM542.5 160.0Q542.5 159.0 539.0 158.5Q535.5 158.0 531.5 158.0Q526.5 158.0 523.0 158.5Q519.5 159.0 519.5 159.0Q519.5 161.0 522.5 167.5Q525.5 174.0 529.0 179.5Q532.5 185.0 534.0 185.0Q536.5 185.0 539.5 176.0Q542.5 167.0 542.5 160.0ZM641.0 226.0Q635.0 224.5 628.25 223.25Q621.5 222.0 618.0 220.5Q616.0 219.0 614.0 219.0Q609.5 219.0 609.5 234.5Q609.5 248.5 612.5 249.5H613.0Q615.0 249.0 621.25 246.75Q627.5 244.5 634.75 241.25Q642.0 238.0 647.25 235.0Q652.5 232.0 652.5 230.5Q652.5 228.0 641.0 226.0ZM668.0 135.0Q661.5 134.0 654.25 132.25Q647.0 130.5 642.5 130.0H640.5Q635.5 130.0 635.5 131.0Q635.5 132.5 643.5 136.0Q651.5 139.5 661.75 142.25Q672.0 145.0 678.5 145.0Q684.5 145.0 684.5 144.0Q684.5 142.0 679.75 139.5Q675.0 137.0 668.0 135.0ZM673.0 158.0V157.5Q673.0 155.5 669.75 154.25Q666.5 153.0 661.5 153.0Q651.0 153.0 651.0 156.0Q651.0 159.5 656.5 177.5L661.5 194.0L666.0 180.5Q669.0 173.0 671.0 166.5Q673.0 160.0 673.0 158.0ZM770.5 161.0Q762.0 158.5 752.75 156.5Q743.5 154.5 735.5 152.5Q724.5 149.5 716.25 147.5Q708.0 145.5 706.5 145.0Q700.0 145.0 693.75 153.25Q687.5 161.5 682.5 173.25Q677.5 185.0 674.5 196.25Q671.5 207.5 671.5 213.0Q671.5 218.0 673.0 219.0Q674.5 220.5 694.25 221.5Q714.0 222.5 741.0 222.5Q746.5 222.5 751.75 222.0Q757.0 221.5 761.5 221.5Q781.0 221.5 793.5 223.0Q806.0 224.5 806.0 227.0Q806.0 228.5 796.0 230.5Q786.0 232.5 770.25 234.25Q754.5 236.0 737.0 237.25Q719.5 238.5 704.5 238.5Q685.5 238.5 677.25 240.5Q669.0 242.5 667.5 251.0Q666.0 259.5 666.0 280.0V315.0Q667.0 314.5 672.0 313.75Q677.0 313.0 682.0 311.5Q686.0 309.5 694.0 307.25Q702.0 305.0 711.5 302.5Q717.0 300.0 722.5 298.25Q728.0 296.5 733.0 294.5Q748.0 290.5 758.5 286.75Q769.0 283.0 769.0 281.0Q769.0 277.0 772.5 273.0Q776.0 269.0 781.0 265.5Q788.0 261.5 798.5 252.75Q809.0 244.0 819.75 234.5Q830.5 225.0 838.25 217.25Q846.0 209.5 846.5 207.5Q846.0 205.0 840.0 204.25Q834.0 203.5 827.5 203.5Q809.5 203.5 809.5 197.5Q809.5 192.5 819.5 186.0Q829.0 181.0 829.0 178.0Q829.0 177.0 811.75 172.25Q794.5 167.5 770.5 161.0ZM877.0 161.5Q879.5 158.5 880.5 156.5Q881.5 154.5 882.0 153.5Q879.5 154.0 872.5 159.25Q865.5 164.5 857.75 171.25Q850.0 178.0 844.5 183.25Q839.0 188.5 839.0 190.0Q839.0 192.0 846.5 193.0Q854.0 194.0 856.0 194.0Q869.5 194.0 869.5 182.5Q869.5 178.5 872.0 172.0Q874.5 165.5 877.0 161.5ZM889.5 85.0Q890.5 81.5 891.75 79.75Q893.0 78.0 893.0 77.5Q892.0 77.5 886.0 82.5Q880.0 87.5 872.75 94.25Q865.5 101.0 860.25 106.5Q855.0 112.0 855.0 113.5Q855.0 114.0 859.0 115.25Q863.0 116.5 867.5 117.5Q872.0 118.5 873.5 118.5Q884.5 118.5 884.5 106.0Q884.5 101.0 886.0 94.75Q887.5 88.5 889.5 85.0ZM96.5 355.0Q96.0 354.0 89.25 350.75Q82.5 347.5 73.5 343.5Q64.5 339.5 56.5 336.25Q48.5 333.0 45.5 332.0L38.0 329.0Q37.5 329.0 37.5 333.25Q37.5 337.5 37.5 344.0Q37.5 351.5 36.5 359.25Q35.5 367.0 34.0 369.5V370.5Q34.0 371.5 37.5 371.5Q40.0 371.5 46.5 370.25Q53.0 369.0 64.0 366.0Q77.0 362.0 86.75 359.0Q96.5 356.0 96.5 355.5ZM454.0 344.0Q449.0 344.0 437.0 342.25Q425.0 340.5 414.0 337.5L389.5 331.0V351.5Q389.5 362.0 390.5 366.25Q391.5 370.5 393.5 370.5Q395.0 370.5 397.0 369.5Q433.0 359.5 450.0 353.5Q467.0 347.5 467.0 345.5Q467.0 344.0 454.0 344.0ZM837.0 244.0Q839.5 238.0 841.25 235.5Q843.0 233.0 843.0 231.0Q839.0 233.5 830.0 241.25Q821.0 249.0 813.25 257.0Q805.5 265.0 804.5 269.5Q805.0 269.5 806.5 271.0Q812.5 275.0 818.5 275.0Q829.0 275.0 829.0 267.5Q829.0 263.5 831.5 256.75Q834.0 250.0 837.0 244.0ZM886.5 291.5Q888.5 288.0 890.0 285.5Q891.5 283.0 892.0 281.0Q888.0 284.0 881.25 290.0Q874.5 296.0 867.25 302.5Q860.0 309.0 855.25 313.75Q850.5 318.5 850.5 319.5Q850.5 320.0 852.25 321.0Q854.0 322.0 856.0 322.5Q861.5 323.0 865.25 324.0Q869.0 325.0 871.5 325.0Q879.5 325.0 879.5 317.5Q879.5 312.0 881.5 304.5Q883.5 297.0 886.5 291.5ZM910.0 246.5Q910.0 244.5 903.5 239.75Q897.0 235.0 887.5 228.5L868.0 214.5L855.5 237.0Q848.5 249.5 845.25 257.75Q842.0 266.0 842.0 270.5Q842.0 275.0 846.0 275.0Q847.5 275.0 848.75 277.25Q850.0 279.5 850.0 282.0Q850.0 284.0 849.5 285.5Q847.5 289.0 847.5 291.0Q847.5 293.5 850.0 293.5Q853.5 293.5 863.0 287.0Q872.5 280.5 883.5 271.75Q894.5 263.0 902.25 255.75Q910.0 248.5 910.0 246.5ZM381.0 210.5Q380.5 204.0 380.5 198.25Q380.5 192.5 380.5 188.0Q380.5 154.5 388.5 154.5Q390.0 154.5 392.25 156.5Q394.5 158.5 398.0 161.5Q400.5 164.0 416.0 166.25Q431.5 168.5 456.5 169.5Q481.5 170.0 495.75 172.75Q510.0 175.5 510.0 178.5Q510.0 183.5 477.5 183.5Q451.5 183.5 431.75 187.75Q412.0 192.0 401.0 199.0Q399.0 202.0 397.0 203.25Q395.0 204.5 395.0 205.5Q395.0 207.0 406.5 210.5Q412.0 212.5 429.5 214.5Q447.0 216.5 465.0 216.5Q486.0 216.5 498.25 218.5Q510.5 220.5 510.5 224.0Q510.5 228.5 487.0 229.0Q410.0 230.5 399.0 246.0Q397.0 248.0 397.0 249.5Q397.0 262.0 463.0 263.5Q492.5 265.0 503.25 265.5Q514.0 266.0 514.0 268.5Q514.0 270.0 507.5 273.5L506.0 274.0Q502.5 275.0 491.0 276.75Q479.5 278.5 468.5 278.5Q442.0 278.5 424.5 283.5Q407.0 288.5 396.5 298.0L383.0 310.0V286.5Q383.0 267.5 382.5 248.5Q382.0 229.5 381.0 210.5ZM915.0 36.5Q926.5 22.5 933.5 16.25Q940.5 10.0 943.5 10.0Q947.0 10.0 947.0 15.0Q947.0 17.0 942.75 23.25Q938.5 29.5 934.0 37.5Q924.5 50.0 916.0 65.0Q907.5 80.0 902.25 92.75Q897.0 105.5 897.0 111.5Q897.0 118.5 897.5 118.5Q899.0 118.5 910.0 105.5Q916.5 97.5 920.75 94.25Q925.0 91.0 927.0 91.0Q930.0 91.0 930.0 94.5Q930.0 100.5 919.5 117.0L905.5 136.5L930.0 158.5Q941.5 168.0 948.75 177.0Q956.0 186.0 956.0 189.5Q956.0 194.0 954.0 194.0Q948.5 194.0 930.0 175.5Q920.5 167.5 912.25 161.0Q904.0 154.5 901.0 154.5H899.5Q897.5 155.0 895.25 161.0Q893.0 167.0 891.0 175.25Q889.0 183.5 887.75 191.0Q886.5 198.5 886.5 201.5Q886.5 206.0 892.75 213.5Q899.0 221.0 906.75 227.0Q914.5 233.0 918.5 233.0Q920.0 233.0 921.75 231.25Q923.5 229.5 926.0 227.5Q932.5 221.0 937.0 221.0Q940.0 221.0 940.0 226.0Q940.0 231.5 936.0 238.0V237.0Q934.0 242.5 934.0 246.0Q934.0 248.0 935.0 250.5Q936.0 253.0 939.5 256.5H939.0Q945.5 263.5 945.5 268.5Q945.5 272.0 941.5 272.0Q939.5 272.0 936.5 270.5Q933.5 269.0 930.0 265.5L927.5 263.5Q925.5 262.0 924.0 260.75Q922.5 259.5 921.5 259.5Q919.0 259.5 916.25 264.5Q913.5 269.5 907.0 282.0L905.5 286.0Q898.0 299.0 894.75 307.75Q891.5 316.5 891.5 322.0Q891.5 325.5 895.5 325.5Q900.0 325.5 900.0 330.0Q900.0 332.5 898.5 334.0Q899.5 337.5 907.25 346.25Q915.0 355.0 927.0 366.5Q955.0 391.5 955.0 399.5Q955.0 403.0 953.5 403.0Q950.5 406.5 949.5 406.5Q945.5 406.5 940.0 397.5Q937.0 391.0 925.75 380.75Q914.5 370.5 900.5 360.0Q886.5 349.5 874.0 343.0Q867.5 339.5 857.25 336.5Q847.0 333.5 839.5 333.5Q830.5 333.5 824.75 332.75Q819.0 332.0 819.0 330.0Q819.0 328.5 823.0 323.75Q827.0 319.0 833.0 314.0L844.0 303.5L831.5 297.0Q822.5 291.0 810.75 287.5Q799.0 284.0 790.5 284.0Q787.0 284.0 784.0 284.75Q781.0 285.5 781.0 287.0Q781.0 290.0 777.0 293.0Q773.0 296.0 760.0 300.5Q747.0 305.0 720.5 312.5Q694.0 320.0 649.0 332.0Q637.0 335.5 617.75 339.25Q598.5 343.0 577.75 346.25Q557.0 349.5 539.5 351.5Q500.5 356.0 467.25 363.5Q434.0 371.0 411.5 379.75Q389.0 388.5 381.0 397.5Q376.0 402.0 373.75 405.0Q371.5 408.0 369.5 408.0Q367.5 408.0 367.5 398.5Q367.5 394.5 369.25 389.5Q371.0 384.5 373.0 383.0Q374.5 382.5 376.0 375.75Q377.5 369.0 377.5 361.0Q377.5 352.0 375.75 346.5Q374.0 341.0 368.75 334.5Q363.5 328.0 352.5 317.5Q324.5 292.0 306.25 280.75Q288.0 269.5 271.5 266.0L254.5 262.5L252.0 303.5Q250.5 311.5 250.0 318.25Q249.5 325.0 249.5 330.0Q249.5 338.5 251.25 343.0Q253.0 347.5 255.0 350.0Q261.0 352.5 261.0 355.5Q261.0 357.5 259.25 358.5Q257.5 359.5 254.5 361.0Q248.5 363.0 248.5 385.5Q248.5 395.0 246.75 402.0Q245.0 409.0 242.5 409.0Q239.5 409.0 238.0 402.0Q236.5 395.0 236.5 385.5V364.0H205.0Q186.5 364.0 178.75 365.75Q171.0 367.5 168.5 371.5V371.0Q163.5 379.0 162.5 379.0Q159.5 379.0 158.0 372.5Q156.0 367.0 148.5 367.0Q144.0 367.0 134.0 368.5Q126.5 369.0 120.0 371.0Q113.5 373.0 112.5 374.0V373.5Q111.0 374.5 102.5 375.75Q94.0 377.0 82.5 377.5Q70.5 377.5 59.5 380.25Q48.5 383.0 39.5 388.0Q21.0 399.0 14.0 399.0Q10.0 399.0 10.0 394.5Q10.0 392.0 11.75 388.0Q13.5 384.0 16.5 379.0Q19.5 371.0 21.75 361.75Q24.0 352.5 24.0 341.5Q24.0 331.5 22.25 319.5Q20.5 307.5 17.5 294.0Q17.0 291.5 16.75 289.5Q16.5 287.5 16.5 286.5Q16.5 281.0 20.0 281.0Q27.0 281.0 34.0 298.5Q38.0 308.5 45.0 314.25Q52.0 320.0 62.5 325.5Q72.5 330.0 79.5 332.5Q86.5 335.0 90.5 335.5Q95.0 335.0 96.75 330.25Q98.5 325.5 98.5 313.5Q98.5 298.5 97.75 278.5Q97.0 258.5 95.25 237.25Q93.5 216.0 90.75 197.0Q88.0 178.0 83.5 165.5Q82.5 164.0 82.25 162.75Q82.0 161.5 82.0 161.0Q82.0 155.0 86.5 155.0Q92.0 155.0 100.0 163.0Q104.0 166.5 111.0 168.0Q118.0 169.5 124.5 169.5Q131.5 169.5 136.25 168.25Q141.0 167.0 141.0 165.0Q141.0 155.0 144.5 155.0Q147.0 155.0 150.5 157.0Q154.0 159.0 159.0 162.5Q166.0 167.5 173.0 168.5Q180.0 169.5 187.0 169.5Q189.5 169.0 191.75 168.5Q194.0 168.0 196.0 168.0Q206.0 168.0 206.0 174.0Q206.0 178.0 198.0 182.5Q192.0 186.0 186.25 203.5Q180.5 221.0 176.75 247.5Q173.0 274.0 172.0 304.5L170.5 348.5L236.5 351.5V301.5Q236.5 254.5 231.5 215.25Q226.5 176.0 218.5 150.5L210.5 127.0L170.0 130.5Q123.0 134.0 94.5 139.75Q66.0 145.5 53.0 153.5Q41.0 161.0 34.0 162.0Q34.0 162.0 33.5 161.75Q33.0 161.5 33.0 161.0V161.5Q32.0 160.5 32.0 159.0Q32.0 153.0 38.5 141.5Q41.5 134.5 43.0 129.0Q44.5 123.5 44.5 117.0Q44.5 112.0 44.0 106.5Q43.5 101.0 41.5 93.0Q40.5 86.0 40.0 79.75Q39.5 73.5 39.5 69.5Q39.5 56.0 44.5 56.0Q48.0 56.0 52.0 69.0Q56.0 77.5 61.25 83.25Q66.5 89.0 77.0 93.75Q87.5 98.5 106.0 104.5Q117.0 108.0 133.0 110.25Q149.0 112.5 167.0 113.75Q185.0 115.0 200.5 115.0Q215.5 115.0 226.0 114.0Q236.5 113.0 236.5 111.0Q236.5 107.0 232.75 99.0Q229.0 91.0 224.25 84.25Q219.5 77.5 217.0 77.5Q210.5 77.5 210.5 68.5Q210.5 62.5 215.0 62.5Q219.5 62.5 224.5 65.0Q230.5 67.0 247.5 68.25Q264.5 69.5 283.0 69.5Q302.0 70.5 315.5 72.25Q329.0 74.0 329.0 75.5Q329.0 77.5 321.75 81.25Q314.5 85.0 304.5 87.5Q290.5 92.5 283.25 97.75Q276.0 103.0 270.0 114.5Q265.0 122.5 261.5 131.75Q258.0 141.0 258.0 145.5Q258.0 151.0 260.0 152.75Q262.0 154.5 270.0 154.5H288.5Q301.5 154.5 301.5 159.0Q301.5 163.5 291.0 167.5Q278.0 173.0 272.5 193.0Q265.5 209.5 262.5 219.0Q259.5 228.5 259.5 233.0Q259.5 235.0 261.0 235.0Q263.0 235.0 272.5 225.75Q282.0 216.5 295.25 202.5Q308.5 188.5 321.75 173.0Q335.0 157.5 345.25 144.75Q355.5 132.0 359.0 126.0Q363.5 120.5 367.5 115.25Q371.5 110.0 373.5 110.0Q376.0 110.0 380.25 101.75Q384.5 93.5 389.25 81.75Q394.0 70.0 397.5 59.0Q401.0 48.0 401.0 43.0V38.5Q401.0 25.5 408.5 25.5Q409.5 25.5 411.25 28.25Q413.0 31.0 413.5 36.5Q414.5 41.5 423.75 49.75Q433.0 58.0 447.5 66.75Q462.0 75.5 477.0 81.5Q482.0 83.5 496.75 87.5Q511.5 91.5 531.75 96.0Q552.0 100.5 573.0 104.0Q602.0 109.0 636.25 116.25Q670.5 123.5 704.5 131.25Q738.5 139.0 767.0 146.25Q795.5 153.5 813.75 159.0Q832.0 164.5 834.5 167.0Q836.5 168.0 838.0 168.0Q842.0 168.0 846.5 164.5Q851.0 161.0 859.0 154.5Q864.5 147.5 869.0 142.0Q873.5 136.5 873.5 134.5V134.0Q871.5 132.5 863.0 131.0Q854.5 129.5 845.0 127.5L815.0 125.0L855.5 93.0Q865.5 84.0 877.0 73.5Q888.5 63.0 898.75 53.25Q909.0 43.5 915.0 36.5ZM498.0 151.5 485.0 134.5 485.5 132.5 499.0 137.5H498.5Q504.0 139.0 516.25 140.5Q528.5 142.0 541.0 143.0Q552.5 144.5 561.75 146.0Q571.0 147.5 571.0 150.0Q571.0 151.0 568.25 155.25Q565.5 159.5 561.5 165.0L560.5 167.0Q554.0 176.0 548.5 191.25Q543.0 206.5 540.0 224.25Q537.0 242.0 537.0 258.0V272.0Q537.5 277.0 537.75 282.25Q538.0 287.5 538.0 291.5Q538.0 304.0 534.5 306.0H534.0Q531.5 306.0 529.25 294.25Q527.0 282.5 525.5 263.0Q524.0 243.5 524.0 220.5Q523.0 180.0 498.0 151.5Z" fill="black" /></svg>