<svg xmlns="http://www.w3.org/2000/svg" width="701.5" height="389.5" viewBox="0 0 701.5 389.5"><path d="M42.5 221.0Q33.0 214.5 30.0 214.5Q27.0 214.5 27.0 232.0V249.5L40.0 241.5Q53.5 234.0 53.5 231.0Q53.5 227.5 42.5 221.0ZM111.0 281.0Q107.5 280.0 104.25 278.75Q101.0 277.5 98.0 276.5Q92.0 274.5 88.0 273.25Q84.0 272.0 83.0 272.0Q82.0 272.0 81.25 278.0Q80.5 284.0 80.5 292.5V294.0Q80.5 303.5 81.75 307.5Q83.0 311.5 88.5 311.5Q93.0 311.5 101.5 309.5Q110.0 307.5 123.0 304.0Q147.5 297.0 147.5 295.0Q147.5 295.0 147.0 294.75Q146.5 294.5 145.0 294.0Q141.5 293.0 131.25 289.0Q121.0 285.0 111.0 281.0ZM220.5 194.0Q220.5 194.0 220.25 193.75Q220.0 193.5 219.5 193.5Q217.0 194.0 210.75 197.5Q204.5 201.0 199.0 205.0Q193.5 209.0 193.5 211.5Q193.5 214.0 202.5 216.5Q203.5 217.0 206.5 217.0Q212.0 217.0 216.0 208.5Q218.0 203.0 219.25 199.0Q220.5 195.0 220.5 194.0ZM331.5 210.5V209.5Q331.5 209.5 326.5 208.5Q321.5 207.5 314.5 206.0Q306.5 204.5 303.5 204.5Q301.0 204.5 301.0 205.5Q301.0 206.0 301.0 207.0Q301.0 208.0 301.5 209.0Q303.0 212.0 304.0 216.75Q305.0 221.5 305.0 224.5Q305.0 230.0 309.0 230.0Q311.5 230.0 317.0 225.75Q322.5 221.5 327.0 216.75Q331.5 212.0 331.5 210.5ZM472.5 228.5V208.5Q471.5 208.5 467.25 212.75Q463.0 217.0 457.5 223.25Q452.0 229.5 447.75 234.75Q443.5 240.0 442.5 242.5Q444.5 243.0 449.25 244.0Q454.0 245.0 459.0 246.0Q464.5 247.5 467.5 247.5Q471.5 247.5 472.0 243.5Q472.5 239.5 472.5 228.5ZM77.0 88.0 64.0 80.0Q58.5 77.0 53.75 74.5Q49.0 72.0 48.0 72.0Q47.5 72.0 47.0 77.0Q46.5 82.0 46.5 89.5Q46.5 97.0 47.0 102.5Q47.5 108.0 48.0 108.0Q49.0 108.0 54.0 104.75Q59.0 101.5 64.0 97.5ZM77.5 129.0V128.5Q77.5 125.5 72.0 125.5Q66.5 125.5 66.5 128.5V129.0Q68.5 133.0 72.0 133.0Q76.5 133.0 77.5 129.0ZM108.5 137.5H108.0Q102.5 131.0 99.0 131.0Q95.0 131.0 87.5 142.0Q82.5 148.5 80.75 156.75Q79.0 165.0 79.0 180.0Q79.0 184.5 79.0 189.5Q79.0 194.5 79.5 200.5L80.5 220.0H119.0L116.5 183.0Q115.5 167.0 113.25 153.75Q111.0 140.5 108.5 137.5ZM127.5 131.5Q127.5 125.5 123.5 125.5Q119.5 125.5 119.5 131.5Q119.5 133.5 120.75 135.25Q122.0 137.0 123.5 137.0Q125.5 137.0 126.5 135.25Q127.5 133.5 127.5 131.5ZM237.5 68.0Q238.5 66.5 238.5 65.25Q238.5 64.0 238.5 63.5Q238.5 62.5 237.5 62.5Q235.5 62.5 229.5 66.0Q223.5 69.5 218.25 73.5Q213.0 77.5 213.0 79.5Q213.0 82.5 224.0 84.0Q226.0 84.5 227.25 84.75Q228.5 85.0 230.0 85.0Q234.5 85.0 234.5 81.5Q234.5 78.5 235.5 75.0Q236.5 71.5 237.5 68.0ZM322.0 118.5 330.5 115.5 320.0 104.0 309.5 91.0 305.0 102.5Q300.5 113.5 300.5 118.0Q300.5 122.0 305.5 122.0Q308.0 122.0 312.25 121.0Q316.5 120.0 322.0 118.5ZM500.0 161.5Q504.5 161.5 507.25 155.75Q510.0 150.0 511.25 143.25Q512.5 136.5 512.5 133.0Q512.5 131.5 512.0 131.5Q509.5 131.5 505.0 136.25Q500.5 141.0 496.75 146.75Q493.0 152.5 493.0 156.0V156.5Q496.0 161.5 500.0 161.5ZM635.0 65.0Q635.0 62.0 624.5 62.0Q613.5 62.0 613.5 65.0Q613.5 67.0 616.5 72.0Q619.5 77.0 622.0 77.0Q623.0 77.0 624.75 76.25Q626.5 75.5 628.5 75.0Q635.0 68.5 635.0 65.0ZM645.0 149.0Q641.5 147.0 631.5 145.75Q621.5 144.5 613.0 144.5Q609.0 144.5 606.0 144.75Q603.0 145.0 603.0 145.0Q603.0 145.5 606.25 151.75Q609.5 158.0 614.5 166.0L625.0 185.0Q628.0 181.0 631.25 176.75Q634.5 172.5 637.0 168.5Q647.5 156.5 647.5 152.0Q647.5 150.5 645.0 149.0ZM68.5 305.5Q68.5 302.5 69.0 293.5Q69.5 284.5 70.75 274.25Q72.0 264.0 74.5 256.75Q77.0 249.5 81.5 249.5Q84.5 249.5 88.5 255.0Q91.5 260.0 104.5 266.0Q117.5 272.0 136.5 277.5Q155.5 283.0 176.5 286.5Q198.5 290.0 241.25 291.75Q284.0 293.5 355.5 293.5H497.0Q500.0 293.5 500.0 296.5Q500.0 298.0 498.5 299.5H499.0Q498.0 300.5 483.0 301.75Q468.0 303.0 442.75 304.0Q417.5 305.0 384.75 305.75Q352.0 306.5 315.0 307.0Q265.0 307.5 231.5 308.0Q198.0 308.5 177.0 309.5Q156.0 310.5 143.5 311.75Q131.0 313.0 123.25 314.75Q115.5 316.5 107.5 319.5Q95.0 324.0 85.25 327.25Q75.5 330.5 73.5 330.5Q71.5 330.5 70.0 323.25Q68.5 316.0 68.5 305.5ZM272.5 17.5Q275.5 10.0 281.0 10.0Q286.0 10.0 286.0 16.0Q286.0 18.0 282.5 23.75Q279.0 29.5 274.0 35.5Q271.0 38.5 265.0 47.25Q259.0 56.0 254.0 65.0Q249.0 74.0 249.0 79.0Q249.0 83.5 254.0 90.5Q257.0 95.5 262.5 101.25Q268.0 107.0 273.0 109.5Q279.0 114.0 283.0 114.0Q287.0 114.0 290.25 107.25Q293.5 100.5 297.5 85.0Q303.5 64.5 308.5 64.5Q312.5 64.5 318.0 78.0Q324.5 95.0 346.25 108.25Q368.0 121.5 408.5 133.0Q429.0 138.5 446.75 142.5Q464.5 146.5 468.0 146.5Q473.5 146.5 486.5 136.0Q499.5 125.5 518.5 106.0Q534.5 88.0 544.0 79.75Q553.5 71.5 557.0 71.5Q559.5 71.5 559.5 75.5Q559.5 79.0 558.0 83.0Q556.5 87.0 554.0 88.5Q551.0 90.0 546.0 98.25Q541.0 106.5 535.75 117.5Q530.5 128.5 527.0 138.25Q523.5 148.0 523.5 152.0Q523.5 161.5 532.75 168.75Q542.0 176.0 562.5 185.5Q574.5 192.0 584.0 198.25Q593.5 204.5 593.5 207.0Q593.5 212.5 590.0 212.5H589.0Q583.0 209.5 571.75 204.0Q560.5 198.5 547.75 193.0Q535.0 187.5 523.5 183.75Q512.0 180.0 505.0 180.0Q496.0 180.0 491.75 187.25Q487.5 194.5 484.5 214.0Q483.0 221.5 483.0 226.0Q483.0 234.0 490.5 242.0Q498.0 250.0 509.0 256.5Q520.0 263.0 530.5 268.0Q541.0 273.0 547.0 275.5Q572.0 285.0 585.5 293.0Q599.0 301.0 599.0 305.5Q599.0 306.5 597.5 307.5H598.0Q597.0 308.5 595.5 308.5Q592.0 308.5 583.5 305.25Q575.0 302.0 565.0 297.0Q542.0 285.5 517.25 276.5Q492.5 267.5 471.25 262.25Q450.0 257.0 436.0 257.0H408.0L445.5 219.0Q458.5 205.0 466.0 196.25Q473.5 187.5 473.5 185.0H472.5Q468.0 185.0 453.5 188.25Q439.0 191.5 420.5 196.5Q402.0 201.5 384.5 206.75Q367.0 212.0 356.0 216.0Q348.0 219.5 338.0 226.0Q328.0 232.5 321.5 238.5Q309.5 249.5 304.0 249.5Q302.5 249.5 301.5 248.5Q300.0 246.0 297.5 236.5Q295.0 227.0 292.25 215.25Q289.5 203.5 287.5 193.5Q285.5 183.5 285.5 180.0Q285.5 178.0 286.0 177.5H287.0Q292.5 177.5 306.5 186.5Q325.5 197.0 349.5 197.0Q361.5 197.0 377.25 194.25Q393.0 191.5 408.5 187.0Q424.0 182.5 436.0 177.25Q448.0 172.0 452.5 167.5Q457.0 162.0 457.0 161.0Q457.0 159.5 452.0 157.75Q447.0 156.0 434.5 152.5Q398.0 141.5 372.0 136.5Q346.0 131.5 331.5 131.5Q314.0 131.5 314.0 138.0V139.0Q314.0 140.0 314.25 141.0Q314.5 142.0 314.5 143.0Q314.5 149.5 311.5 149.5Q309.5 149.5 303.25 146.25Q297.0 143.0 290.25 138.25Q283.5 133.5 279.0 129.0Q275.5 125.0 265.25 118.75Q255.0 112.5 244.0 107.5Q233.0 101.5 224.0 98.5Q215.0 95.5 201.0 94.0Q187.0 92.5 161.5 92.0Q152.0 91.5 144.5 91.5Q137.0 91.5 130.5 91.5Q112.5 91.5 102.75 93.0Q93.0 94.5 84.5 98.5Q76.5 102.0 71.0 105.5Q65.5 109.0 65.5 110.5Q65.5 111.0 79.25 111.75Q93.0 112.5 111.5 112.5Q130.5 112.5 144.75 113.75Q159.0 115.0 159.0 117.0Q159.0 118.5 154.75 123.75Q150.5 129.0 143.5 134.5Q137.0 141.0 134.0 145.75Q131.0 150.5 130.25 158.75Q129.5 167.0 129.5 184.5Q129.5 202.0 130.0 209.5Q130.5 217.0 133.0 218.5Q135.5 220.0 141.0 220.0Q147.5 220.0 164.25 211.25Q181.0 202.5 202.0 188.75Q223.0 175.0 241.5 161.0Q254.0 150.0 258.5 150.0Q261.5 150.0 261.5 155.0Q261.5 163.5 256.0 167.0Q252.5 169.0 246.25 177.75Q240.0 186.5 234.75 196.0Q229.5 205.5 229.5 210.0Q229.5 219.0 237.75 228.5Q246.0 238.0 253.0 242.0Q263.5 247.5 273.0 254.75Q282.5 262.0 288.75 268.25Q295.0 274.5 295.0 277.5Q295.0 278.0 294.0 280.0H292.5Q290.5 280.0 285.0 277.5Q279.5 275.0 273.5 270.0Q258.0 258.5 246.75 251.75Q235.5 245.0 225.0 241.25Q214.5 237.5 200.25 236.25Q186.0 235.0 164.5 235.0H143.0Q103.5 235.0 82.0 238.0Q60.5 241.0 50.0 248.25Q39.5 255.5 32.0 269.5Q24.0 286.0 17.5 286.0Q10.0 286.0 10.0 268.5Q10.0 250.5 12.0 232.75Q14.0 215.0 17.25 203.0Q20.5 191.0 23.5 191.0Q26.0 191.0 31.0 194.5Q36.0 198.0 41.0 203.5Q46.0 208.5 52.0 211.75Q58.0 215.0 61.5 215.0Q65.5 215.0 67.0 213.25Q68.5 211.5 68.5 204.0Q68.5 198.5 67.5 187.0Q66.5 175.5 64.75 162.75Q63.0 150.0 60.25 141.0Q57.5 132.0 53.5 132.0Q52.0 132.0 49.0 136.0Q46.0 139.5 43.0 142.25Q40.0 145.0 38.5 145.0Q36.5 145.0 35.5 132.0Q34.5 119.0 34.5 102.5Q34.5 86.0 35.25 71.25Q36.0 56.5 37.5 52.5Q39.5 47.5 42.5 47.5Q46.0 47.5 58.5 60.0Q64.5 66.0 69.0 69.0Q73.5 72.0 80.0 73.75Q86.5 75.5 98.25 76.0Q110.0 76.5 131.0 77.0L188.0 79.5L229.5 51.5Q246.5 40.0 259.0 29.75Q271.5 19.5 272.5 17.5ZM594.0 67.0 571.5 47.0 626.5 51.0Q687.5 55.0 687.5 62.5Q687.5 66.5 672.0 68.5Q649.0 72.0 638.5 82.5Q628.0 93.0 628.0 111.5Q628.0 123.0 630.5 128.5Q633.0 134.0 641.25 135.5Q649.5 137.0 666.5 137.0Q676.5 137.0 684.0 138.25Q691.5 139.5 691.5 142.0Q691.0 144.0 684.75 148.5Q678.5 153.0 670.0 157.0Q659.0 162.5 651.75 169.75Q644.5 177.0 638.5 189.0Q635.0 197.0 632.75 204.0Q630.5 211.0 629.25 221.25Q628.0 231.5 627.5 249.0Q627.0 266.5 626.5 295.0Q626.5 318.0 625.5 337.25Q624.5 356.5 623.5 368.0Q622.5 379.5 621.0 379.5Q619.0 379.5 617.75 376.5Q616.5 373.5 616.0 362.0Q615.5 350.5 615.25 325.5Q615.0 300.5 614.5 257.0L613.5 184.0L598.0 162.0Q591.5 152.0 586.5 144.5Q581.5 137.0 581.5 136.0Q581.5 134.0 587.0 133.25Q592.5 132.5 600.5 132.5H617.5L615.0 108.5Q613.0 92.5 609.25 85.0Q605.5 77.5 594.0 67.0Z" fill="black" /></svg>