<svg xmlns="http://www.w3.org/2000/svg" width="523.5" height="463.5" viewBox="0 0 523.5 463.5"><path d="M117.5 347.5 102.0 341.5Q92.5 337.0 81.0 330.5Q69.5 324.0 61.5 317.5L46.0 306.5L43.0 321.5Q41.5 327.5 40.5 336.25Q39.5 345.0 39.5 350.5Q39.5 356.0 40.5 358.25Q41.5 360.5 45.5 360.5Q48.0 360.5 50.5 360.0Q53.0 359.5 56.5 359.0Q63.5 358.0 76.0 355.5Q88.5 353.0 98.5 350.5ZM113.5 123.5Q108.5 123.5 97.75 120.0Q87.0 116.5 77.0 113.0L55.5 102.0L58.0 120.0Q59.5 128.0 60.5 137.5Q61.5 147.0 61.5 152.0Q61.5 154.0 62.0 156.0Q62.5 158.0 64.5 158.0Q67.5 158.0 77.5 153.75Q87.5 149.5 98.75 143.5Q110.0 137.5 118.25 132.25Q126.5 127.0 126.5 125.5Q126.5 123.5 113.5 123.5ZM279.0 32.5Q279.0 31.0 271.25 30.25Q263.5 29.5 253.5 29.5H229.5L260.5 94.5Q262.0 91.0 265.0 82.0Q268.0 73.0 271.25 62.25Q274.5 51.5 276.75 43.0Q279.0 34.5 279.0 32.5ZM191.0 18.5Q191.0 14.5 193.5 12.25Q196.0 10.0 205.0 10.0Q209.0 10.0 216.5 10.75Q224.0 11.5 234.5 12.5Q249.0 14.5 265.5 15.25Q282.0 16.0 295.0 16.0H308.0Q320.5 16.0 333.25 16.25Q346.0 16.5 351.5 18.0Q364.0 21.0 364.0 25.5Q364.0 34.0 328.5 36.5L294.5 38.0L285.5 65.5Q282.0 75.0 279.75 83.0Q277.5 91.0 277.5 94.5V96.5H281.5Q291.5 96.5 318.5 93.75Q345.5 91.0 380.5 87.5Q430.0 81.0 455.0 78.75Q480.0 76.5 489.5 76.5Q497.0 76.5 499.0 78.0Q501.0 79.5 501.0 82.0Q501.0 83.5 485.75 86.5Q470.5 89.5 445.25 93.25Q420.0 97.0 389.5 101.0Q359.0 104.5 333.0 107.75Q307.0 111.0 291.0 113.75Q275.0 116.5 273.5 118.0Q272.0 119.5 271.0 135.0Q270.0 150.5 269.25 174.75Q268.5 199.0 268.25 226.5Q268.0 254.0 268.0 279.5Q268.0 309.0 268.75 330.5Q269.5 352.0 270.0 353.5Q271.0 354.0 287.25 356.25Q303.5 358.5 330.5 362.0Q357.5 365.5 389.5 369.0Q422.0 373.0 449.25 376.75Q476.5 380.5 493.25 383.0Q510.0 385.5 510.5 386.0Q511.5 388.0 512.5 388.75Q513.5 389.5 513.5 390.5Q513.5 395.0 501.0 395.0Q490.5 395.0 465.5 392.25Q440.5 389.5 396.0 384.5Q379.0 383.0 363.5 380.75Q348.0 378.5 333.5 377.5Q309.0 374.5 293.5 372.5Q278.0 370.5 276.5 370.5Q274.0 370.5 272.25 380.0Q270.5 389.5 270.5 410.0Q270.5 452.5 265.0 452.5Q258.0 452.5 256.0 407.5L254.0 368.5H160.0Q120.0 368.5 95.75 369.75Q71.5 371.0 58.25 374.75Q45.0 378.5 39.25 385.25Q33.5 392.0 30.5 403.0Q30.0 408.0 29.0 415.0Q28.0 422.0 26.0 428.5Q26.0 430.5 25.75 432.0Q25.5 433.5 25.0 435.5Q24.0 443.5 21.25 448.5Q18.5 453.5 15.5 453.5Q10.0 453.5 10.0 438.0Q10.0 421.0 15.5 402.0Q17.5 393.5 21.25 372.0Q25.0 350.5 28.5 328.0Q35.0 270.0 44.0 270.0Q48.0 270.0 54.5 285.5Q58.0 295.5 69.5 305.25Q81.0 315.0 97.25 323.0Q113.5 331.0 132.0 335.0Q143.5 337.0 152.25 341.25Q161.0 345.5 161.0 347.0Q161.0 349.0 174.75 349.5Q188.5 350.0 208.5 350.0H255.0L254.0 237.0Q254.0 205.5 253.25 179.25Q252.5 153.0 251.75 136.5Q251.0 120.0 250.0 119.0Q239.0 119.0 221.75 122.0Q204.5 125.0 185.25 129.75Q166.0 134.5 149.0 139.5Q132.0 144.5 121.5 148.5Q97.0 157.5 85.5 164.75Q74.0 172.0 70.75 182.5Q67.5 193.0 67.5 213.0Q67.5 228.5 65.5 239.0Q63.5 249.5 60.5 249.5Q55.5 249.5 52.0 229.25Q48.5 209.0 48.5 177.0Q48.5 162.0 46.5 141.0Q44.5 120.0 42.5 104.5Q41.0 96.0 40.25 87.75Q39.5 79.5 39.5 74.5Q39.5 66.5 41.0 65.0L42.5 64.5Q47.5 64.5 59.5 81.0Q70.5 94.5 88.5 101.75Q106.5 109.0 126.5 111.75Q146.5 114.5 162.5 114.5Q174.5 114.5 189.0 113.0Q203.5 111.5 216.5 109.25Q229.5 107.0 238.0 104.5Q246.5 102.0 246.5 100.5Q246.5 93.0 241.25 81.25Q236.0 69.5 228.25 57.75Q220.5 46.0 212.75 37.75Q205.0 29.5 200.5 29.5Q191.0 29.5 191.0 18.5Z" fill="black" /></svg>