<svg xmlns="http://www.w3.org/2000/svg" width="551.0" height="446.0" viewBox="0 0 551.0 446.0"><path d="M80.5 263.5Q68.0 262.5 56.25 260.0Q44.5 257.5 41.0 255.5V256.0Q39.0 254.5 37.5 254.5Q35.5 254.5 35.0 258.5Q34.5 262.5 34.5 274.5Q34.5 283.5 35.5 290.5Q36.5 297.5 37.5 297.5Q38.5 297.5 42.5 295.75Q46.5 294.0 52.0 292.0L58.0 288.5Q65.0 285.0 76.25 281.0Q87.5 277.0 95.0 275.5H94.0Q107.0 271.0 110.5 267.5Q108.5 266.5 99.75 265.5Q91.0 264.5 80.5 263.5ZM102.0 330.5 108.0 319.0H93.5Q81.0 319.0 81.0 321.5L81.5 322.5Q82.0 323.0 82.25 324.5Q82.5 326.0 83.5 327.5Q86.0 332.5 86.5 335.0Q88.0 342.0 92.0 342.0Q95.0 342.0 102.0 330.5ZM309.5 294.5Q310.0 294.0 310.5 294.0Q311.0 294.0 311.5 293.5Q296.5 293.5 283.0 296.5Q278.0 298.0 266.5 299.0Q255.0 300.0 245.0 300.0Q233.5 300.5 229.0 301.5Q224.5 302.5 224.5 304.0Q224.5 304.0 224.75 304.75Q225.0 305.5 225.5 306.5Q226.5 310.0 228.0 317.5Q229.5 325.0 230.5 332.0V331.5Q232.0 337.5 232.75 342.0Q233.5 346.5 233.5 346.5Q233.5 346.5 240.5 341.75Q247.5 337.0 258.25 329.75Q269.0 322.5 279.75 315.0Q290.5 307.5 299.0 301.75Q307.5 296.0 309.5 294.5ZM64.0 127.5Q64.0 126.5 61.0 126.0Q58.0 125.5 54.0 125.5Q44.5 125.5 44.5 130.5Q44.5 132.5 45.75 136.5Q47.0 140.5 50.0 146.0L55.5 155.0L58.5 143.5Q61.0 138.5 62.5 134.0Q64.0 129.5 64.0 127.5ZM85.0 142.5Q85.5 138.5 85.5 135.5Q85.5 132.5 85.5 130.5Q85.5 126.0 85.0 126.0Q84.0 126.0 82.25 128.75Q80.5 131.5 77.0 136.0Q68.5 149.0 62.75 172.0Q57.0 195.0 57.0 218.5V247.0Q59.5 247.5 64.75 248.75Q70.0 250.0 72.0 250.5L77.0 251.0Q83.5 251.5 90.5 253.0Q97.5 254.5 102.5 255.5L116.5 257.5L120.0 230.0Q121.5 220.0 121.5 211.0Q121.5 203.0 119.0 190.75Q116.5 178.5 110.5 168.75Q104.5 159.0 93.0 159.0Q91.0 159.0 90.5 159.5Q89.5 160.5 86.5 160.5Q83.5 160.5 83.5 153.5Q83.5 151.5 84.0 148.75Q84.5 146.0 85.0 142.5ZM134.0 101.0 118.0 95.5Q110.0 93.0 103.75 91.5Q97.5 90.0 97.0 90.0V104.0Q97.0 109.0 97.25 113.25Q97.5 117.5 98.0 117.5Q102.5 117.5 119.5 108.5ZM140.5 162.5Q140.5 162.0 137.25 161.75Q134.0 161.5 130.0 161.5Q121.0 161.5 121.0 164.0Q121.0 168.5 126.5 174.5Q129.0 179.5 130.5 179.5Q133.0 179.5 134.5 173.0Q140.5 165.5 140.5 162.5ZM239.5 191.5Q245.0 191.5 250.0 184.0Q255.0 176.5 255.0 171.5Q255.0 171.0 254.5 171.0Q252.5 171.0 246.25 175.25Q240.0 179.5 234.5 184.0Q229.0 188.5 229.0 190.0Q229.0 190.0 230.5 190.0Q232.0 190.0 234.5 190.5Q237.0 191.5 239.5 191.5ZM273.0 84.0Q274.5 80.0 275.5 77.0Q276.5 74.0 276.5 72.5Q274.5 72.5 267.25 78.25Q260.0 84.0 253.25 90.25Q246.5 96.5 246.5 98.5Q246.5 99.5 250.5 99.5Q252.5 99.5 253.75 99.25Q255.0 99.0 257.0 99.0Q267.5 97.5 273.0 84.0ZM338.0 158.0H328.0Q324.0 158.5 321.0 159.25Q318.0 160.0 318.0 161.5Q318.0 162.0 320.25 165.25Q322.5 168.5 325.0 171.75Q327.5 175.0 328.5 175.0Q330.5 175.0 333.0 168.5Q338.0 161.0 338.0 158.0ZM358.5 138.0 351.0 135.0Q345.0 132.5 338.25 131.5Q331.5 130.5 325.0 130.5Q313.0 130.5 313.0 132.5Q313.0 137.0 320.25 139.75Q327.5 142.5 337.0 142.5Q340.0 142.5 342.75 142.25Q345.5 142.0 348.5 141.5ZM378.5 117.5Q373.5 110.5 368.25 103.5Q363.0 96.5 357.5 90.5L351.0 82.5Q347.5 86.0 344.5 90.75Q341.5 95.5 338.0 99.5L325.5 116.0L358.0 125.0Q369.0 128.5 378.0 130.5Q387.0 132.5 390.0 133.0Q387.5 128.5 378.5 117.5ZM323.0 17.0Q326.0 10.0 331.0 10.0Q336.0 10.0 336.0 16.0Q336.0 18.0 331.5 24.75Q327.0 31.5 321.0 38.0Q299.5 62.5 292.0 75.0Q284.5 87.5 284.5 98.0V102.0Q285.0 109.0 286.25 111.75Q287.5 114.5 292.0 114.5Q302.5 114.5 314.0 106.25Q325.5 98.0 334.5 86.5Q343.5 75.0 345.5 65.5Q350.0 45.5 353.0 45.5Q357.0 45.5 358.5 56.5Q359.5 62.0 361.75 69.75Q364.0 77.5 367.0 82.5Q373.0 93.5 385.5 106.75Q398.0 120.0 414.0 132.75Q430.0 145.5 445.5 154.0Q448.0 156.5 451.5 158.75Q455.0 161.0 458.5 163.0Q470.5 169.5 482.0 177.0Q493.5 184.5 501.0 190.0Q511.0 196.5 521.0 202.25Q531.0 208.0 534.0 209.0Q541.0 211.5 541.0 216.0Q541.0 219.0 537.5 221.75Q534.0 224.5 528.5 224.5Q525.0 224.5 512.75 228.75Q500.5 233.0 487.5 238.5L481.5 241.0Q466.5 246.0 444.25 255.0Q422.0 264.0 402.0 270.5Q388.0 275.5 373.25 281.25Q358.5 287.0 346.0 292.25Q333.5 297.5 326.0 300.5Q313.0 307.5 296.25 318.5Q279.5 329.5 264.0 341.25Q248.5 353.0 237.75 362.5Q227.0 372.0 225.5 376.0Q224.5 380.5 222.0 383.75Q219.5 387.0 217.0 387.0Q213.0 387.0 213.0 381.5Q213.0 378.5 215.0 374.0Q217.5 365.5 218.0 353.5Q218.5 341.5 218.5 333.5Q218.5 322.0 216.5 315.0Q214.5 308.0 208.5 300.5L197.0 284.0L228.0 286.5Q231.0 287.0 234.25 287.0Q237.5 287.0 241.0 287.0Q266.0 287.0 301.5 281.25Q337.0 275.5 373.5 266.0Q385.5 263.0 403.25 257.0Q421.0 251.0 440.25 244.25Q459.5 237.5 476.0 231.0Q492.5 224.5 503.0 219.75Q513.5 215.0 513.5 214.0Q513.5 211.5 504.75 205.0Q496.0 198.5 482.0 190.5Q468.0 182.5 451.75 174.0Q435.5 165.5 420.0 158.5Q404.5 151.5 393.0 148.0L369.0 140.5Q367.5 142.0 363.5 147.0Q359.5 152.0 358.5 153.5Q344.0 170.5 337.25 189.5Q330.5 208.5 330.5 231.0V234.5Q330.5 247.0 329.0 256.0Q327.5 265.0 325.0 265.0Q323.0 265.0 321.5 253.5Q320.0 242.0 320.0 226.0Q320.0 197.0 314.0 179.75Q308.0 162.5 294.5 154.0Q291.5 151.5 289.0 151.5Q285.5 151.5 279.0 159.75Q272.5 168.0 267.5 177.25Q262.5 186.5 262.5 190.0Q262.5 191.5 264.0 193.0Q265.0 194.0 265.5 196.25Q266.0 198.5 266.5 199.5Q266.5 199.5 266.25 200.5Q266.0 201.5 266.0 202.0Q267.0 205.0 280.0 215.0Q292.0 224.0 299.0 231.75Q306.0 239.5 306.0 243.0Q306.0 245.0 305.75 245.5Q305.5 246.0 305.0 247.0H304.5Q300.0 247.0 292.0 239.0Q274.5 223.5 256.25 214.0Q238.0 204.5 219.0 202.5L187.0 199.0L209.0 187.0Q217.0 182.0 229.5 173.0Q242.0 164.0 254.75 154.25Q267.5 144.5 276.0 137.0Q284.5 129.5 284.5 128.0Q284.5 124.0 275.0 120.5Q265.5 117.0 250.0 114.25Q234.5 111.5 216.5 110.0Q198.5 108.5 181.5 108.5Q150.5 108.5 136.5 114.0Q132.5 115.5 123.75 120.0Q115.0 124.5 107.75 130.25Q100.5 136.0 100.5 141.5Q100.5 149.0 124.5 149.0Q127.5 149.0 130.5 148.5Q133.5 148.0 137.0 148.0Q141.0 147.5 143.75 147.5Q146.5 147.5 149.5 147.5Q164.5 147.5 164.5 153.0Q164.5 157.0 160.0 159.5Q155.0 162.5 149.75 172.75Q144.5 183.0 140.0 196.5Q135.5 210.0 132.5 223.25Q129.5 236.5 129.5 245.5Q129.5 253.0 132.5 255.0Q135.0 255.5 154.25 257.25Q173.5 259.0 199.5 260.5Q222.0 261.5 239.5 263.75Q257.0 266.0 260.5 267.0Q255.5 267.5 240.25 269.0Q225.0 270.5 206.0 271.0Q164.5 273.0 131.5 279.0Q98.5 285.0 76.5 294.5Q64.0 299.5 64.0 300.0Q64.0 301.5 67.5 303.0Q70.0 304.5 75.25 305.0Q80.5 305.5 88.5 305.5Q92.5 305.5 97.0 305.5Q101.5 305.5 105.5 305.0Q112.0 304.0 118.0 304.0Q124.0 304.0 128.0 304.0Q138.0 304.0 138.0 307.0Q138.0 308.0 134.75 311.75Q131.5 315.5 126.0 319.5Q111.0 331.0 102.0 353.5Q93.0 376.0 93.0 402.5Q93.0 417.0 91.25 426.5Q89.5 436.0 86.5 436.0Q85.0 436.0 83.5 423.5Q82.0 411.0 82.0 390.5Q82.0 355.5 76.0 339.0Q70.0 322.5 55.5 314.5Q53.0 313.5 50.75 312.75Q48.5 312.0 46.5 312.0Q38.5 312.0 32.0 330.5Q29.0 337.0 25.5 340.25Q22.0 343.5 20.0 343.5Q16.5 343.5 16.5 338.0Q16.5 333.5 18.5 328.0Q21.0 321.0 22.5 310.75Q24.0 300.5 24.0 289.5Q24.0 275.0 21.75 262.25Q19.5 249.5 15.5 244.5L13.5 241.0Q12.5 238.5 11.25 236.5Q10.0 234.5 10.0 233.5Q10.0 230.0 12.5 230.0Q15.5 230.0 30.0 235.0L38.5 237.5Q39.5 237.5 40.25 238.0Q41.0 238.5 41.5 238.5Q44.0 238.5 44.75 231.0Q45.5 223.5 45.5 202.0Q45.5 179.0 43.5 167.0Q41.5 155.0 36.0 143.0Q32.0 135.5 27.5 129.5Q23.0 123.5 20.5 123.0Q13.5 120.5 13.5 116.0Q13.5 111.5 33.0 111.5Q36.5 111.5 40.25 111.5Q44.0 111.5 48.5 112.0Q53.0 113.0 57.25 113.25Q61.5 113.5 65.0 113.5Q77.5 113.5 82.5 110.25Q87.5 107.0 87.5 100.0Q87.5 97.0 87.0 93.5Q86.5 90.0 86.0 86.0Q83.5 73.5 83.5 67.5Q83.5 65.5 84.5 64.0H85.0Q86.0 64.0 91.5 66.75Q97.0 69.5 102.5 74.0Q111.0 79.5 128.0 84.5Q145.0 89.5 165.75 92.25Q186.5 95.0 206.0 95.0Q214.5 95.0 221.5 92.75Q228.5 90.5 240.0 82.5Q251.5 74.5 273.5 58.5Q293.5 44.0 308.0 31.5Q322.5 19.0 323.0 17.0ZM300.0 139.5H301.5Q301.5 140.0 301.0 140.0Q300.0 140.0 300.0 139.5Z" fill="black" /></svg>