<svg xmlns="http://www.w3.org/2000/svg" width="528.5" height="387.0" viewBox="0 0 528.5 387.0"><path d="M62.5 286.5Q62.0 274.0 60.0 271.25Q58.0 268.5 50.5 267.0Q47.0 266.0 43.5 265.5Q40.0 265.0 39.0 265.0Q38.5 273.5 38.25 281.75Q38.0 290.0 38.0 298.5Q38.0 311.5 42.5 311.5Q46.5 311.5 54.5 307.0Q59.5 304.5 61.25 302.75Q63.0 301.0 63.0 295.5Q63.0 293.5 62.75 291.5Q62.5 289.5 62.5 286.5ZM124.5 287.0Q123.5 285.5 117.25 283.5Q111.0 281.5 102.75 279.75Q94.5 278.0 87.5 276.75Q80.5 275.5 78.0 275.5Q73.5 275.5 72.75 278.25Q72.0 281.0 72.0 288.0Q72.0 299.5 75.0 300.0L76.0 299.5Q78.5 298.5 86.75 296.75Q95.0 295.0 104.0 293.5Q112.5 291.5 118.25 289.75Q124.0 288.0 124.5 287.0ZM85.0 135.5Q85.0 133.5 80.75 132.75Q76.5 132.0 66.0 132.0Q58.0 132.0 52.5 132.0Q47.0 132.0 47.0 131.5Q47.0 132.0 49.0 138.25Q51.0 144.5 54.0 153.0Q57.5 161.5 59.5 169.5Q61.5 177.5 61.5 180.0Q61.5 184.0 62.5 184.0Q66.0 184.0 71.5 165.0Q74.0 156.5 77.25 149.75Q80.5 143.0 81.5 141.5Q85.0 140.5 85.0 135.5ZM107.5 159.0Q104.5 151.0 100.75 145.0Q97.0 139.0 96.0 139.0Q95.5 139.0 91.75 145.0Q88.0 151.0 84.0 159.0Q75.5 179.0 74.0 200.0Q72.5 221.0 72.5 242.5Q72.5 254.0 75.0 259.5Q77.5 265.0 84.75 266.75Q92.0 268.5 106.0 270.0L125.5 272.5L126.0 256.0Q126.0 236.0 125.0 221.5Q124.0 207.0 120.0 192.5Q116.0 178.0 107.5 159.0ZM117.0 93.5Q99.0 91.0 79.25 86.75Q59.5 82.5 41.5 77.5Q31.5 75.0 30.5 75.0Q29.5 74.5 28.0 74.5Q26.0 74.5 25.25 79.5Q24.5 84.5 24.5 97.5V122.0L34.0 120.0H33.5Q38.0 119.0 44.0 116.75Q50.0 114.5 54.5 112.5Q59.5 110.5 71.75 107.25Q84.0 104.0 97.0 102.0Q110.0 99.5 118.25 97.75Q126.5 96.0 127.0 95.5Q126.0 95.0 123.25 94.5Q120.5 94.0 117.0 93.5ZM146.5 148.0H147.0Q145.0 147.0 136.0 146.0Q127.0 145.0 120.5 145.0Q118.0 145.0 116.5 145.25Q115.0 145.5 114.5 145.5Q115.0 148.0 116.75 154.25Q118.5 160.5 122.0 169.0L129.0 187.5L132.0 179.5Q133.5 175.0 136.5 168.25Q139.5 161.5 141.5 158.0Q144.0 154.0 145.0 151.5Q146.0 149.0 146.5 148.0ZM371.0 106.5Q367.5 104.5 348.25 103.75Q329.0 103.0 301.0 103.0Q272.0 103.0 238.25 103.75Q204.5 104.5 172.75 106.0Q141.0 107.5 117.25 109.5Q93.5 111.5 84.5 114.0Q64.0 119.0 64.0 121.0Q64.0 122.0 79.5 122.0Q91.5 122.0 96.5 123.25Q101.5 124.5 101.5 128.0Q101.5 131.5 112.5 133.75Q123.5 136.0 143.0 136.0Q163.5 136.0 163.5 142.0Q163.5 145.0 158.0 149.5Q150.5 156.0 145.75 170.0Q141.0 184.0 138.75 201.25Q136.5 218.5 135.5 234.5Q134.5 250.5 134.5 261.0Q134.5 268.5 135.75 270.75Q137.0 273.0 140.0 274.5Q145.0 277.5 157.25 279.5Q169.5 281.5 185.75 282.5Q202.0 283.5 218.5 284.25Q235.0 285.0 248.5 285.25Q262.0 285.5 268.5 285.5L309.5 284.5L312.0 238.0H299.0Q289.5 238.0 268.0 243.25Q246.5 248.5 217.5 258.5Q216.0 259.0 214.5 259.0Q211.0 259.0 210.0 253.75Q209.0 248.5 209.0 233.5Q209.0 222.0 209.75 213.75Q210.5 205.5 211.5 205.5L234.5 217.0Q247.5 223.5 256.25 225.75Q265.0 228.0 282.5 228.0H308.0L306.0 217.5Q305.0 213.0 302.25 206.0Q299.5 199.0 296.5 194.0Q291.5 186.5 291.5 182.0Q291.5 180.0 293.5 180.0Q294.5 180.0 296.25 179.75Q298.0 179.5 300.0 179.5Q307.0 179.5 316.5 180.0Q326.0 180.5 334.0 181.0Q342.0 181.5 342.5 182.5V183.5Q342.5 188.5 335.5 194.5H336.0Q331.0 200.0 327.0 209.25Q323.0 218.5 322.5 224.0Q322.5 224.5 322.75 225.0Q323.0 225.5 323.0 226.0Q324.0 227.0 332.75 227.5Q341.5 228.0 352.5 228.0Q362.5 228.0 372.25 227.75Q382.0 227.5 388.75 227.0Q395.5 226.5 395.5 226.0Q395.5 223.0 391.25 213.5Q387.0 204.0 381.75 193.5Q376.5 183.0 373.0 178.0Q370.0 173.0 366.75 171.25Q363.5 169.5 354.75 169.0Q346.0 168.5 326.0 168.5Q309.5 168.5 298.25 169.25Q287.0 170.0 277.5 172.0Q268.0 174.0 255.0 178.5Q246.5 180.5 239.25 182.75Q232.0 185.0 227.0 186.5Q224.5 187.0 222.5 187.75Q220.5 188.5 220.0 188.5Q218.0 188.5 217.25 179.25Q216.5 170.0 216.5 159.5Q216.5 151.5 217.0 145.0Q217.5 138.5 218.5 137.0H219.0Q220.5 137.0 226.5 139.5Q232.5 142.0 240.5 146.0Q247.5 149.5 252.75 151.75Q258.0 154.0 266.0 155.0Q274.0 156.0 288.5 156.5Q303.0 157.0 328.0 157.5L395.5 159.0V149.0Q395.5 142.5 391.5 133.75Q387.5 125.0 382.0 117.0Q376.5 109.0 371.0 106.5ZM237.5 230.5Q234.0 229.0 230.5 227.75Q227.0 226.5 224.5 225.5Q222.0 224.5 220.25 224.0Q218.5 223.5 218.5 223.5V235.0Q218.5 245.5 222.5 245.5Q225.5 245.5 233.0 242.5Q240.5 239.5 244.0 238.0L248.0 237.0Q249.5 236.5 250.0 236.5Q250.5 236.5 250.5 236.5Q250.5 235.5 237.5 230.5ZM259.0 165.5 248.0 161.0Q241.5 158.0 237.25 156.25Q233.0 154.5 230.5 154.5Q226.0 154.5 226.0 165.5Q226.0 175.5 228.5 175.5Q230.0 175.5 231.0 175.0Q237.5 172.0 249.5 168.5ZM311.0 202.0 315.5 210.0 325.5 190.5H316.0Q306.5 190.5 306.5 192.5Q306.5 195.0 311.0 202.0ZM322.5 284.5H394.0L396.0 238.0H360.0Q335.5 238.0 328.25 239.75Q321.0 241.5 321.0 252.5Q321.0 255.0 321.0 258.5Q321.0 262.0 321.5 266.0ZM410.5 104.0Q410.5 103.5 407.0 103.25Q403.5 103.0 398.5 103.0Q387.0 103.0 387.0 107.0Q387.0 110.0 392.5 117.0Q396.0 122.0 397.0 122.0Q398.5 122.0 403.0 115.0Q406.0 111.0 408.25 108.0Q410.5 105.0 410.5 104.0ZM417.5 170.5Q417.5 169.5 411.0 169.0Q404.5 168.5 397.0 168.5Q391.5 168.5 387.25 169.0Q383.0 169.5 382.0 170.5Q382.0 174.5 389.5 187.0L398.0 202.0L404.0 191.0Q410.0 177.0 414.5 175.0Q417.5 174.0 417.5 170.5ZM461.0 122.0Q458.0 110.5 455.5 107.25Q453.0 104.0 446.0 103.5H444.5Q427.5 103.5 416.5 115.5Q405.5 127.5 405.5 143.5Q405.5 144.5 405.75 146.0Q406.0 147.5 406.0 148.5Q406.5 155.0 407.5 157.25Q408.5 159.5 413.5 159.5Q415.5 159.5 417.25 159.25Q419.0 159.0 421.5 159.0H427.0Q437.5 159.0 437.5 162.0Q437.5 163.5 433.25 169.0Q429.0 174.5 423.0 180.5Q413.5 191.5 409.5 203.25Q405.5 215.0 405.5 237.0Q405.5 241.0 405.5 246.0Q405.5 251.0 406.0 256.5L407.0 284.5H463.5L464.5 213.0V194.5Q464.5 165.5 463.5 147.5Q462.5 129.5 461.0 122.0ZM498.0 29.5H497.5Q495.5 29.0 486.25 28.5Q477.0 28.0 466.0 27.5Q455.0 27.0 447.5 27.0Q442.0 27.0 441.5 26.0Q442.0 27.5 444.5 34.25Q447.0 41.0 450.5 50.0Q454.0 59.5 457.25 70.75Q460.5 82.0 461.5 88.5Q464.5 104.5 466.5 104.5Q468.5 104.5 472.5 88.5Q473.0 85.5 476.25 76.25Q479.5 67.0 484.0 56.25Q488.5 45.5 492.5 37.5Q496.5 29.5 498.0 29.5ZM428.5 14.0Q428.5 10.0 431.0 10.0Q432.0 10.0 433.75 10.75Q435.5 11.5 438.5 12.5Q441.5 14.5 453.5 16.0Q465.5 17.5 481.5 17.5Q496.5 17.5 507.5 18.25Q518.5 19.0 518.5 20.5Q518.5 22.0 512.5 29.5Q510.5 31.5 508.5 34.5Q497.5 47.0 489.5 67.0Q481.5 87.0 478.0 110.0Q477.0 117.5 476.0 138.0Q475.0 158.5 474.5 186.0Q474.0 213.5 474.0 242.0Q474.0 293.0 473.0 320.5Q472.0 348.0 470.0 348.0Q468.0 348.0 466.5 340.25Q465.0 332.5 465.0 320.5V296.0H405.0V309.5Q405.0 316.0 403.75 320.75Q402.5 325.5 400.5 325.5Q398.5 325.5 397.0 320.75Q395.5 316.0 395.5 309.5Q395.5 300.0 394.0 297.75Q392.5 295.5 385.0 295.0Q381.5 294.5 374.75 294.0Q368.0 293.5 360.0 293.5Q357.0 293.5 354.0 293.5Q351.0 293.5 347.5 294.0L322.5 295.0L321.5 304.5Q320.0 318.0 316.0 318.0Q312.0 318.0 310.5 304.5L309.5 295.0L225.0 296.0Q201.5 296.0 181.75 296.5Q162.0 297.0 149.75 297.5Q137.5 298.0 136.5 299.0Q135.5 299.5 135.0 306.25Q134.5 313.0 134.5 322.5Q134.5 346.0 130.0 346.0H129.0Q128.0 345.0 126.75 337.25Q125.5 329.5 125.5 320.0V299.0L113.0 301.5Q107.0 302.0 99.0 304.0Q91.0 306.0 85.5 307.5L72.0 311.0V342.5Q72.0 357.5 70.75 367.25Q69.5 377.0 68.0 377.0Q66.0 377.0 64.75 368.25Q63.5 359.5 63.5 346.5Q63.5 335.0 62.75 326.25Q62.0 317.5 61.0 317.0H60.5Q54.5 317.0 45.0 322.5Q39.0 324.5 34.5 327.0Q28.5 329.5 27.5 329.5Q27.5 329.5 27.25 328.25Q27.0 327.0 27.0 326.0Q27.0 323.0 27.25 316.75Q27.5 310.5 28.0 303.0Q28.5 299.0 28.75 294.75Q29.0 290.5 29.0 286.5Q29.0 281.0 28.5 275.75Q28.0 270.5 27.0 267.5Q24.5 260.0 24.5 255.5Q24.5 253.5 25.5 252.5Q25.5 252.0 26.25 252.0Q27.0 252.0 27.5 251.5Q30.0 252.0 34.75 252.75Q39.5 253.5 44.5 255.0Q49.5 257.0 53.75 257.75Q58.0 258.5 60.0 258.5H61.5Q63.5 256.5 63.5 245.0Q63.5 239.0 61.75 226.0Q60.0 213.0 56.75 197.25Q53.5 181.5 49.5 167.0Q45.5 152.5 41.25 143.0Q37.0 133.5 32.5 133.0H32.0Q21.0 136.0 18.0 136.0Q14.5 136.0 14.5 132.5V130.0Q15.5 126.0 16.0 120.25Q16.5 114.5 16.5 108.0Q16.5 96.0 15.25 85.0Q14.0 74.0 12.5 72.0Q10.0 68.0 10.0 66.0Q10.0 62.5 15.5 62.5Q23.5 62.5 48.0 68.5Q57.0 71.0 70.5 74.0Q84.0 77.0 99.0 80.0Q114.0 83.0 126.5 85.5Q139.5 87.5 150.5 89.0Q161.5 90.5 174.5 91.5Q187.5 92.5 206.75 92.75Q226.0 93.0 256.0 93.0H312.5L452.0 92.5L451.0 84.5Q450.5 80.5 447.25 70.0Q444.0 59.5 439.5 48.0Q434.5 36.5 431.5 26.25Q428.5 16.0 428.5 14.0ZM139.5 286.0Q139.5 286.0 139.5 286.25Q139.5 286.5 139.0 286.5Q138.5 286.5 138.25 286.25Q138.0 286.0 138.0 286.0Q138.0 286.0 138.25 285.75Q138.5 285.5 139.0 285.5Q139.5 285.5 139.5 285.75Q139.5 286.0 139.5 286.0Z" fill="black" /></svg>