<svg xmlns="http://www.w3.org/2000/svg" width="608.0" height="384.0" viewBox="0 0 608.0 384.0"><path d="M118.5 333.5Q97.0 331.0 74.5 325.75Q52.0 320.5 31.0 313.5Q30.5 313.0 29.5 313.0Q27.5 313.0 27.0 317.5Q26.5 322.0 26.5 333.5L26.0 355.5L39.0 354.0Q44.5 353.0 58.25 350.25Q72.0 347.5 84.5 345.5Q97.5 343.0 110.5 341.5Q123.5 340.0 128.5 339.5Q141.5 339.5 141.5 338.5Q141.5 336.0 118.5 333.5ZM100.5 185.5V186.0L107.5 173.5H77.5L84.5 187.0Q90.0 198.0 92.0 201.0Q92.0 200.5 94.0 196.75Q96.0 193.0 98.25 189.5Q100.5 186.0 100.5 185.5ZM149.0 325.0Q147.0 321.0 145.0 307.0Q143.0 293.0 141.5 275.25Q140.0 257.5 140.0 241.5Q140.0 234.5 137.5 224.5Q135.0 214.5 131.5 204.5Q128.0 194.5 124.5 187.75Q121.0 181.0 118.5 181.0Q114.0 181.0 108.5 191.5Q105.5 195.5 104.0 202.25Q102.5 209.0 101.75 222.25Q101.0 235.5 101.0 259.0Q101.5 282.5 102.25 300.0Q103.0 317.5 104.0 318.5Q109.0 323.5 149.0 325.0ZM153.0 183.5 159.5 173.5H128.5L135.5 189.0Q141.5 201.5 144.0 201.5Q144.5 200.0 147.0 194.25Q149.5 188.5 153.0 183.5ZM177.5 105.5Q168.0 104.5 152.5 101.0Q137.0 97.5 124.0 93.5L96.0 84.5L93.0 127.5L104.0 125.5Q109.5 124.5 120.75 122.5Q132.0 120.5 143.0 118.0Q154.5 115.5 166.5 113.5Q178.5 111.5 183.5 111.5Q196.5 111.5 196.5 110.0Q196.5 108.0 177.5 105.5ZM342.0 151.0 346.5 143.0Q353.5 130.5 356.5 126.5L354.5 128.5Q350.5 132.0 341.75 139.5Q333.0 147.0 322.5 156.0Q309.0 168.5 292.5 181.75Q276.0 195.0 266.5 201.5L247.0 216.5L268.5 223.0Q281.5 226.5 289.75 228.75Q298.0 231.0 303.0 231.0Q308.5 231.0 310.25 227.25Q312.0 223.5 313.0 215.5Q314.0 207.5 317.75 197.0Q321.5 186.5 325.5 179.0Q329.0 173.5 333.5 165.75Q338.0 158.0 342.0 151.0ZM380.0 203.5Q380.0 201.5 374.5 199.5Q374.0 199.0 372.5 199.0Q370.0 199.0 370.0 203.5Q370.0 207.0 372.5 208.0Q374.0 208.0 374.5 207.5Q380.0 205.5 380.0 203.5ZM380.0 278.0Q380.0 276.0 374.5 274.0Q374.0 273.5 372.5 273.5Q370.0 273.5 370.0 278.0Q370.0 282.5 372.5 282.5Q374.0 282.5 374.5 282.0Q380.0 280.0 380.0 278.0ZM380.0 239.5Q375.0 237.0 373.0 237.0Q370.0 237.0 370.0 242.5Q370.0 247.0 371.0 247.0Q372.0 247.0 377.0 244.5Q382.5 242.0 382.5 241.0Q382.5 241.0 381.75 240.5Q381.0 240.0 380.0 239.5ZM469.5 278.0V277.5Q468.0 273.0 464.5 273.0Q460.5 273.0 460.5 278.0Q460.5 282.5 463.0 282.5Q464.5 282.5 465.0 282.0Q469.5 280.0 469.5 278.0ZM378.5 169.5V170.0L383.0 165.5Q382.5 165.5 381.75 165.25Q381.0 165.0 379.0 164.5Q378.5 164.5 378.25 164.25Q378.0 164.0 377.5 164.0Q373.5 164.0 372.5 167.5Q371.0 171.0 371.0 173.0L371.5 173.5Q373.0 173.5 378.5 169.5ZM452.0 237.5Q452.5 215.5 453.0 193.5Q453.5 171.5 454.5 156.5Q455.5 141.5 456.5 140.5H457.5Q461.0 140.5 469.5 149.0Q474.5 153.5 478.25 155.5Q482.0 157.5 489.25 158.25Q496.5 159.0 510.5 159.0H540.5L538.5 147.5Q538.0 142.5 536.25 135.0Q534.5 127.5 532.5 122.5L529.0 111.0L452.5 111.5L376.0 113.0Q374.0 116.0 369.0 124.5Q364.0 133.0 362.5 136.0Q357.0 145.5 349.5 158.25Q342.0 171.0 337.5 178.5Q331.0 188.5 326.25 204.5Q321.5 220.5 321.5 230.5Q321.5 237.5 324.0 237.5Q328.5 237.5 328.5 244.5Q328.5 245.0 328.5 246.25Q328.5 247.5 328.0 249.0Q327.5 250.5 327.5 253.0Q327.5 257.0 332.5 257.0Q338.0 257.0 338.0 259.5Q338.0 261.0 335.0 263.5Q333.5 264.0 333.5 265.0Q333.5 269.0 345.5 281.5L360.0 296.5L361.5 235.0Q361.5 223.5 361.75 212.75Q362.0 202.0 362.0 192.5Q362.0 179.5 361.75 170.25Q361.5 161.0 361.0 157.5V154.0Q361.0 141.5 366.0 141.5Q371.0 141.5 377.5 149.5Q382.0 153.5 386.0 155.75Q390.0 158.0 397.5 158.5Q405.0 159.0 419.5 159.0Q434.0 159.0 443.5 160.5Q453.0 162.0 453.0 164.5Q453.0 166.5 445.25 168.0Q437.5 169.5 426.5 169.5Q412.5 169.5 404.0 171.5Q395.5 173.5 387.5 178.0Q376.5 183.0 376.5 187.5Q376.5 194.0 415.0 194.0Q429.5 194.0 439.25 195.5Q449.0 197.0 449.0 199.5Q449.0 201.5 442.25 203.25Q435.5 205.0 426.0 205.0Q415.5 205.0 406.0 207.0Q396.5 209.0 389.0 213.0Q376.5 219.0 376.0 221.0Q377.0 223.0 380.5 226.5Q384.5 231.0 391.75 232.25Q399.0 233.5 419.5 233.5Q432.0 233.5 440.75 234.5Q449.5 235.5 452.0 237.5ZM470.5 203.5Q470.5 201.5 465.0 199.5Q464.5 199.0 463.0 199.0Q460.5 199.0 460.5 203.5Q460.5 207.0 463.0 208.0Q464.5 208.0 465.0 207.5Q470.5 205.5 470.5 203.5ZM472.5 167.5H472.0L472.5 167.0Q472.5 165.5 469.0 164.0Q468.5 164.0 468.25 163.75Q468.0 163.5 467.0 163.5Q464.5 163.5 464.5 166.0Q464.5 170.5 468.0 170.5Q470.5 170.5 472.5 167.5ZM472.5 242.0H472.0L472.5 241.5Q472.5 239.5 469.0 239.0Q468.5 239.0 468.25 238.75Q468.0 238.5 467.0 238.5Q464.5 238.5 464.5 240.5Q464.5 245.0 468.0 245.0Q470.5 245.0 472.5 242.0ZM511.5 233.5H541.0V205.0H518.0Q501.0 205.0 487.75 209.0Q474.5 213.0 467.0 220.0V220.5Q467.0 223.5 472.5 227.5Q477.5 230.5 486.25 232.0Q495.0 233.5 511.5 233.5ZM511.0 194.0H541.0V169.5H516.0Q496.0 170.0 482.25 174.75Q468.5 179.5 468.5 186.0Q468.5 191.0 477.75 192.5Q487.0 194.0 511.0 194.0ZM511.0 268.5H541.0V244.0H516.0Q495.5 244.5 482.0 249.0Q468.5 253.5 468.5 260.0Q468.5 265.0 477.25 266.75Q486.0 268.5 511.0 268.5ZM579.0 28.0H552.0Q540.5 28.0 530.0 27.25Q519.5 26.5 516.5 25.5Q513.5 24.5 512.5 24.5H512.0Q512.0 26.5 514.25 32.25Q516.5 38.0 521.0 49.0Q525.0 58.5 528.75 69.25Q532.5 80.0 533.5 86.0Q534.5 91.5 536.25 95.75Q538.0 100.0 538.5 100.0Q542.0 100.0 542.0 104.0Q542.0 106.0 541.5 107.0Q541.5 107.5 541.25 108.0Q541.0 108.5 541.0 109.5Q541.0 113.0 543.5 116.5L544.5 118.5Q545.0 118.5 545.0 113.0Q545.0 100.0 551.75 79.75Q558.5 59.5 568.0 44.0ZM494.0 12.5Q494.0 10.0 496.5 10.0Q499.0 10.0 502.5 11.5Q505.0 12.5 520.0 14.0Q535.0 15.5 553.0 16.5Q598.0 18.0 598.0 24.0Q598.0 27.0 592.5 29.5Q589.0 31.0 583.5 39.5Q578.0 48.0 572.0 60.5Q566.0 73.0 561.25 85.75Q556.5 98.5 555.0 107.5V107.0Q554.0 114.0 553.0 134.75Q552.0 155.5 551.5 185.0Q551.0 214.5 551.0 249.0Q551.0 307.5 549.5 338.75Q548.0 370.0 546.0 370.0Q544.0 370.0 542.5 357.25Q541.0 344.5 541.0 323.0V279.5H516.5Q478.5 279.5 465.0 296.5Q458.5 303.0 455.0 303.0Q453.5 303.0 452.75 287.5Q452.0 272.0 452.0 249.5Q452.0 247.0 452.0 244.75Q452.0 242.5 452.0 240.5Q447.0 244.0 425.0 244.0Q410.5 244.0 401.75 245.75Q393.0 247.5 386.0 252.0Q376.0 257.5 376.0 260.0Q376.0 261.5 378.0 263.5Q380.5 266.0 388.75 267.5Q397.0 269.0 415.0 269.0Q429.5 269.0 439.25 270.25Q449.0 271.5 449.0 274.0Q449.0 276.5 441.25 278.0Q433.5 279.5 423.0 279.5Q407.0 279.5 399.75 281.75Q392.5 284.0 382.0 291.0Q375.5 295.5 372.25 298.5Q369.0 301.5 369.0 304.5Q369.0 308.5 379.0 321.0Q381.5 324.0 387.5 325.5Q393.5 327.0 409.75 327.25Q426.0 327.5 459.5 327.5Q495.0 327.5 515.25 329.0Q535.5 330.5 535.5 333.0Q535.5 335.5 516.5 337.0Q497.5 338.5 463.5 338.5Q434.5 338.5 414.25 339.0Q394.0 339.5 394.0 340.0Q394.0 343.5 400.0 352.0Q402.5 356.0 404.0 360.25Q405.5 364.5 405.5 367.0Q405.5 373.0 402.5 374.0Q398.0 373.0 388.5 354.5L380.0 338.0L283.5 340.0Q235.0 341.0 197.5 343.5Q160.0 346.0 126.0 350.25Q92.0 354.5 53.5 362.0Q47.0 363.0 40.75 364.25Q34.5 365.5 29.0 366.5Q21.5 368.0 17.0 369.0Q12.5 370.0 11.5 370.0Q10.0 370.0 10.0 367.0Q10.0 364.5 10.75 360.75Q11.5 357.0 13.5 353.5Q17.5 344.0 17.5 331.5Q17.5 328.5 17.25 325.0Q17.0 321.5 17.0 318.0Q15.5 307.5 15.5 303.0Q15.5 297.0 18.5 297.0Q19.5 297.0 20.25 297.25Q21.0 297.5 22.5 298.0Q32.0 301.5 44.75 305.75Q57.5 310.0 69.0 313.0Q80.5 316.0 84.5 316.0H93.0L90.5 269.0Q89.5 247.0 88.25 235.5Q87.0 224.0 84.0 215.0Q81.0 206.0 75.0 193.0Q70.0 181.5 66.0 173.0Q62.0 164.5 62.0 163.5Q62.0 162.5 66.75 161.75Q71.5 161.0 79.5 161.0Q87.0 161.0 97.5 161.25Q108.0 161.5 120.0 162.0Q143.5 162.5 160.75 164.0Q178.0 165.5 178.0 167.0Q178.0 168.0 175.0 172.25Q172.0 176.5 168.0 181.5Q158.5 192.5 154.75 206.5Q151.0 220.5 151.0 246.5Q151.0 253.0 151.0 259.75Q151.0 266.5 151.5 275.0Q153.0 293.5 153.0 307.0Q153.0 313.5 152.5 318.5Q152.0 323.5 151.0 325.5Q170.5 326.0 198.25 326.75Q226.0 327.5 262.5 327.5H371.0L365.0 319.0Q362.5 314.5 350.0 301.0Q337.5 287.5 323.0 272.5Q306.5 255.5 298.0 248.0Q289.5 240.5 282.75 237.5Q276.0 234.5 265.0 232.5Q244.5 228.5 235.5 226.0Q226.5 223.5 226.5 220.0Q226.5 217.5 230.0 214.75Q233.5 212.0 239.5 208.0Q251.0 200.5 267.75 187.5Q284.5 174.5 302.75 159.25Q321.0 144.0 335.5 130.0L356.0 110.5L295.0 112.5Q261.5 113.5 233.5 116.0Q205.5 118.5 178.0 123.0Q150.5 127.5 118.5 134.5Q90.0 141.0 81.0 141.0H79.5Q78.5 139.0 78.5 137.5Q78.5 134.0 81.0 129.0Q83.0 125.0 84.25 115.5Q85.5 106.0 85.5 96.0Q85.5 84.5 86.25 76.25Q87.0 68.0 87.5 68.0Q88.0 68.0 92.25 69.75Q96.5 71.5 101.5 74.0Q106.5 76.5 119.0 80.75Q131.5 85.0 144.0 89.0Q154.5 92.0 163.75 93.5Q173.0 95.0 186.25 95.75Q199.5 96.5 220.5 97.0Q241.5 97.5 274.5 97.5L374.0 98.0L386.5 81.5Q392.0 74.5 396.0 68.5Q400.0 62.5 401.0 60.5V61.5Q402.0 57.0 405.0 57.0Q406.5 57.0 407.0 58.0Q409.0 59.5 409.0 63.0Q409.0 67.5 405.5 75.0Q402.0 82.5 395.0 90.5L387.0 100.0H526.0L524.0 88.0Q523.0 81.5 518.25 69.0Q513.5 56.5 508.0 43.25Q502.5 30.0 498.0 22.5V23.0Q494.0 16.0 494.0 12.5Z" fill="black" /></svg>