<svg xmlns="http://www.w3.org/2000/svg" width="631.0" height="460.5" viewBox="0 0 631.0 460.5"><path d="M73.0 342.5Q72.5 327.5 70.0 323.75Q67.5 320.0 58.5 318.5Q54.5 317.5 50.25 316.75Q46.0 316.0 45.0 316.0Q44.5 326.0 44.25 336.25Q44.0 346.5 44.0 356.0Q44.0 372.0 49.0 372.0Q54.5 372.0 64.0 366.5Q69.5 364.0 71.75 361.75Q74.0 359.5 74.0 352.5Q74.0 350.5 73.5 348.0Q73.0 345.5 73.0 342.5ZM148.0 342.5Q146.5 340.5 139.0 338.25Q131.5 336.0 121.5 333.75Q111.5 331.5 103.25 330.0Q95.0 328.5 92.0 328.5Q87.0 328.5 86.0 332.25Q85.0 336.0 85.0 343.5Q85.0 358.0 88.0 358.5L89.5 358.0Q92.0 356.5 102.0 354.25Q112.0 352.0 123.0 350.5Q145.0 345.5 148.0 342.5ZM100.5 160.5Q100.5 158.0 95.25 157.0Q90.0 156.0 77.0 156.0Q68.0 156.0 61.25 156.0Q54.5 156.0 54.5 155.5Q54.5 156.0 56.75 163.5Q59.0 171.0 62.5 181.5Q67.0 191.5 69.5 201.25Q72.0 211.0 72.0 214.0Q72.0 219.0 73.0 219.0Q75.5 219.0 78.25 212.75Q81.0 206.5 84.5 196.0Q87.0 185.5 90.75 177.5Q94.5 169.5 96.0 167.5Q97.5 167.0 99.0 164.75Q100.5 162.5 100.5 160.5ZM127.5 188.5Q124.0 179.0 119.5 171.75Q115.0 164.5 113.5 164.5Q113.0 164.5 108.5 171.75Q104.0 179.0 98.5 188.5Q94.0 199.5 91.25 208.75Q88.5 218.0 87.5 230.25Q86.5 242.5 86.0 263.0Q85.5 271.5 85.5 277.75Q85.5 284.0 85.5 289.0Q85.5 303.0 88.25 309.5Q91.0 316.0 99.5 318.25Q108.0 320.5 125.0 322.5L149.0 325.0L149.5 305.5Q149.5 281.5 148.25 264.0Q147.0 246.5 142.5 229.0Q138.0 211.5 127.5 188.5ZM174.0 175.5H174.5Q172.5 174.0 161.5 173.0Q150.5 172.0 143.0 172.0H135.5Q135.5 174.5 138.25 182.5Q141.0 190.5 144.5 201.0L153.0 223.0L156.5 213.5Q158.5 208.0 162.0 200.0Q165.5 192.0 168.5 187.5Q171.0 183.0 172.25 180.0Q173.5 177.0 174.0 175.5ZM444.0 125.5Q439.5 123.5 416.75 122.5Q394.0 121.5 360.0 121.5Q332.0 121.5 300.0 122.0Q268.0 122.5 236.25 123.75Q204.5 125.0 176.75 126.5Q149.0 128.0 128.75 130.0Q108.5 132.0 100.0 134.5Q75.0 141.0 75.0 143.0Q75.0 144.0 93.5 144.0Q108.0 144.0 114.0 145.75Q120.0 147.5 120.0 151.5Q120.0 156.0 133.25 158.75Q146.5 161.5 170.0 161.5Q182.5 161.5 188.5 162.75Q194.5 164.0 194.5 168.0Q194.5 170.0 192.75 172.25Q191.0 174.5 188.0 177.5Q179.0 185.5 173.5 202.25Q168.0 219.0 165.0 239.5Q162.0 260.0 161.0 279.25Q160.0 298.5 160.0 311.5Q160.0 320.5 161.25 323.0Q162.5 325.5 166.0 327.5Q172.0 331.0 187.0 333.25Q202.0 335.5 221.5 337.0Q241.0 338.5 261.0 339.25Q281.0 340.0 297.0 340.25Q313.0 340.5 321.0 340.5L370.0 339.5L373.0 283.5H357.5Q346.5 283.5 320.25 290.0Q294.0 296.5 259.5 308.0Q257.5 308.5 256.0 308.5Q251.5 308.5 250.25 302.5Q249.0 296.5 249.0 278.0Q249.0 264.0 249.75 254.25Q250.5 244.5 252.5 244.5Q252.5 244.5 260.75 248.75Q269.0 253.0 280.0 258.5Q290.5 264.0 298.0 266.75Q305.5 269.5 314.5 270.5Q323.5 271.5 337.5 271.5H368.5L365.5 259.0Q364.5 253.5 361.25 245.0Q358.0 236.5 354.0 230.5Q352.0 226.5 350.25 222.5Q348.5 218.5 348.5 216.0Q348.5 214.0 351.0 214.0Q352.0 214.0 353.75 213.75Q355.5 213.5 358.5 213.5Q366.5 213.5 378.5 214.0Q390.5 214.5 399.75 215.25Q409.0 216.0 409.5 217.5V218.5Q409.5 220.5 407.25 224.0Q405.0 227.5 401.0 231.0H401.5Q396.0 237.5 391.0 249.0Q386.0 260.5 385.5 267.0Q385.5 267.0 385.75 267.75Q386.0 268.5 386.0 269.5Q388.0 270.5 398.0 271.0Q408.0 271.5 421.5 271.5Q433.5 271.5 445.5 271.25Q457.5 271.0 465.5 270.5Q473.5 270.0 473.5 269.5Q473.5 267.0 470.5 259.5Q467.5 252.0 463.0 242.5Q458.5 233.0 454.0 224.5Q449.5 216.0 446.5 211.5Q442.5 205.5 438.5 203.25Q434.5 201.0 424.25 200.5Q414.0 200.0 390.0 200.0Q370.0 200.0 356.5 201.0Q343.0 202.0 331.5 204.5Q320.0 207.0 305.0 212.0Q294.0 214.5 285.25 217.25Q276.5 220.0 270.5 222.0Q267.5 222.5 265.25 223.25Q263.0 224.0 262.5 224.0Q260.5 224.0 259.25 213.0Q258.0 202.0 258.0 189.5Q258.0 179.5 258.5 171.75Q259.0 164.0 260.5 162.5H261.0Q263.5 162.5 270.5 165.5Q277.5 168.5 286.5 173.0Q295.0 177.5 301.5 180.25Q308.0 183.0 317.75 184.25Q327.5 185.5 345.0 186.0Q362.5 186.5 392.5 187.0L473.5 188.5V176.5Q473.5 169.0 468.75 158.25Q464.0 147.5 457.25 138.0Q450.5 128.5 444.0 125.5ZM284.0 275.0Q279.0 272.5 275.25 271.25Q271.5 270.0 268.0 268.0Q265.0 267.0 262.75 266.75Q260.5 266.5 260.5 266.5V280.0Q260.5 286.0 261.25 289.25Q262.0 292.5 265.5 292.5Q269.0 292.5 278.25 289.0Q287.5 285.5 291.0 283.5L296.0 282.5Q298.0 282.0 298.5 282.0Q299.0 282.0 299.0 282.0Q299.0 280.0 284.0 275.0ZM385.5 339.5H471.5L474.0 283.5H430.5Q410.5 283.5 400.5 284.25Q390.5 285.0 387.25 288.75Q384.0 292.5 384.0 301.5Q384.0 304.5 384.0 308.5Q384.0 312.5 384.5 317.5ZM138.5 110.0Q117.0 107.0 93.5 101.75Q70.0 96.5 48.5 90.5Q42.5 89.5 39.0 88.5Q35.5 87.5 34.5 87.5Q33.5 87.0 32.0 87.0Q29.5 87.0 28.75 93.0Q28.0 99.0 28.0 115.0V144.0L39.0 142.0H38.5Q44.0 140.5 51.25 137.75Q58.5 135.0 64.0 133.5Q69.5 131.0 84.25 127.0Q99.0 123.0 114.5 120.0Q129.5 116.5 139.75 115.0Q150.0 113.5 150.5 112.5Q149.5 111.5 146.0 111.0Q142.5 110.5 138.5 110.0ZM309.5 196.5 296.0 191.0Q288.5 187.5 283.25 185.25Q278.0 183.0 275.0 183.0Q271.5 183.0 270.5 186.25Q269.5 189.5 269.5 196.5Q269.5 208.5 273.0 208.5Q274.5 208.5 276.0 208.0Q279.0 207.0 285.5 204.5Q292.0 202.0 297.5 200.0ZM372.0 240.0 377.5 250.0 389.5 226.5H378.0Q366.5 226.5 366.5 229.0Q366.5 232.0 372.0 240.0ZM491.0 123.0Q491.0 122.0 487.0 121.75Q483.0 121.5 477.0 121.5Q463.0 121.5 463.0 126.0Q463.0 128.0 465.0 131.25Q467.0 134.5 469.5 138.5Q474.0 144.0 475.0 144.0Q477.0 144.0 482.5 135.5Q486.0 131.5 488.5 127.75Q491.0 124.0 491.0 123.0ZM499.5 202.5Q499.5 201.5 491.75 200.75Q484.0 200.0 475.0 200.0Q468.5 200.0 463.25 200.75Q458.0 201.5 457.0 202.5Q457.0 204.5 459.75 210.0Q462.5 215.5 466.5 222.5L476.5 240.0L483.5 227.5Q486.5 220.5 490.5 214.75Q494.5 209.0 496.0 208.0Q498.0 207.5 498.75 205.5Q499.5 203.5 499.5 202.5ZM552.0 144.0Q548.5 130.0 545.5 126.5Q542.5 123.0 534.0 122.0H532.5Q511.5 122.0 498.5 136.25Q485.5 150.5 485.5 170.5V176.0Q486.5 184.0 487.75 186.75Q489.0 189.5 495.0 189.5Q497.5 189.5 499.5 189.0Q501.5 188.5 504.5 188.5H511.0Q516.5 188.5 520.25 189.5Q524.0 190.5 524.0 192.0Q524.0 194.0 518.75 200.75Q513.5 207.5 506.0 214.5Q494.5 228.0 490.0 242.0Q485.5 256.0 485.5 282.5V306.0L487.0 339.5H555.0L556.5 254.0V231.0Q556.5 197.0 555.25 175.0Q554.0 153.0 552.0 144.0ZM597.0 33.0H596.5Q594.0 32.0 582.5 31.5Q571.0 31.0 557.75 30.5Q544.5 30.0 536.0 30.0Q529.5 30.0 529.0 29.5Q529.5 30.5 532.5 38.5Q535.5 46.5 539.5 58.0Q543.5 69.5 547.5 83.0Q551.5 96.5 552.5 104.0Q556.5 123.5 558.5 123.5Q561.0 123.5 562.25 118.25Q563.5 113.0 566.0 104.0Q566.5 100.5 570.5 89.25Q574.5 78.0 579.75 65.0Q585.0 52.0 590.0 42.5Q595.0 33.0 597.0 33.0ZM513.5 14.5Q513.5 10.0 516.0 10.0Q517.5 10.0 519.5 10.5Q521.5 11.0 525.0 13.0Q529.0 15.0 543.25 17.0Q557.5 19.0 577.0 19.0Q594.5 19.0 607.75 19.75Q621.0 20.5 621.0 22.0Q621.0 24.5 614.0 33.0Q613.0 34.5 611.5 36.25Q610.0 38.0 609.0 39.0Q595.5 54.0 586.0 78.25Q576.5 102.5 572.5 130.0Q571.5 139.0 570.25 163.5Q569.0 188.0 568.25 220.75Q567.5 253.5 567.5 288.0Q567.5 350.0 566.25 383.0Q565.0 416.0 562.5 416.0Q560.0 416.0 558.5 406.5Q557.0 397.0 557.0 382.5V353.5H485.0V370.0Q485.0 378.0 483.25 383.5Q481.5 389.0 479.0 389.0Q477.0 389.0 475.25 383.5Q473.5 378.0 473.5 370.0Q473.5 358.5 471.75 355.75Q470.0 353.0 461.0 352.0Q457.0 351.5 448.5 351.0Q440.0 350.5 430.5 350.5Q427.0 350.5 423.25 350.5Q419.5 350.5 415.5 351.0L385.5 352.0L384.5 363.5Q382.5 380.0 378.0 380.0Q373.5 380.0 371.0 363.5L370.0 352.0L268.5 353.5Q240.5 353.5 216.5 354.0Q192.5 354.5 177.75 355.25Q163.0 356.0 162.0 357.0Q161.0 357.5 160.5 365.75Q160.0 374.0 160.0 385.5Q160.0 398.5 158.5 406.0Q157.0 413.5 154.0 413.5H153.0Q152.0 412.0 150.5 403.0Q149.0 394.0 149.0 382.0V357.0L134.0 360.0Q127.0 361.0 117.0 363.0Q107.0 365.0 101.0 367.0L85.0 371.5V410.0Q85.0 427.5 83.25 439.0Q81.5 450.5 80.0 450.5Q77.5 450.5 76.0 440.0Q74.5 429.5 74.5 414.0Q74.5 400.0 73.5 389.75Q72.5 379.5 71.5 379.0H70.5Q68.5 379.0 63.0 380.5Q57.5 382.0 52.0 385.5Q49.0 386.5 45.5 388.0Q42.0 389.5 39.5 391.0Q36.5 391.5 34.25 392.75Q32.0 394.0 30.5 394.0Q30.5 394.0 30.25 392.25Q30.0 390.5 30.0 390.0Q30.0 386.0 30.5 378.5Q31.0 371.0 32.0 362.0Q32.5 356.5 32.75 351.75Q33.0 347.0 33.0 342.5Q33.0 335.5 32.25 329.0Q31.5 322.5 30.0 319.0Q29.5 315.0 28.75 310.75Q28.0 306.5 28.0 304.5Q28.0 302.5 29.0 301.5Q29.0 300.5 29.5 300.25Q30.0 300.0 30.5 299.5Q33.5 300.0 39.25 301.25Q45.0 302.5 51.5 304.0Q57.5 306.0 62.5 307.0Q67.5 308.0 70.0 308.0H72.0Q74.5 306.0 74.5 292.0Q74.5 284.5 72.25 269.0Q70.0 253.5 66.25 234.5Q62.5 215.5 57.75 198.0Q53.0 180.5 47.75 169.25Q42.5 158.0 37.5 157.5H36.5Q23.0 161.5 20.0 161.5Q15.5 161.5 15.5 157.0V154.0Q17.0 149.0 17.5 142.25Q18.0 135.5 18.0 127.0Q18.0 112.5 16.5 99.5Q15.0 86.5 13.0 84.0Q10.0 79.0 10.0 77.0Q10.0 73.0 17.0 73.0Q27.0 73.0 56.0 79.5Q66.5 83.0 82.75 86.75Q99.0 90.5 117.0 94.0Q135.0 97.5 150.0 100.0Q166.0 103.0 179.0 104.75Q192.0 106.5 207.75 107.5Q223.5 108.5 246.5 109.0Q269.5 109.5 305.5 109.5H373.5L541.5 109.0L540.5 99.0Q540.0 95.0 535.75 82.25Q531.5 69.5 526.0 55.5Q520.5 41.5 517.0 29.5Q513.5 17.5 513.5 14.5ZM165.5 341.5Q165.5 341.5 165.5 342.0Q165.5 342.5 165.0 342.5Q164.5 342.5 164.25 342.0Q164.0 341.5 164.0 341.5Q164.0 341.5 164.25 341.0Q164.5 340.5 165.0 340.5Q165.5 340.5 165.5 341.0Q165.5 341.5 165.5 341.5Z" fill="black" /></svg>