<svg xmlns="http://www.w3.org/2000/svg" width="726.5" height="457.5" viewBox="0 0 726.5 457.5"><path d="M119.0 221.5V222.0L127.5 207.0H91.5L99.5 223.0Q106.0 237.0 108.5 239.5Q108.5 238.5 110.5 236.5Q112.5 231.5 119.0 221.5ZM177.0 389.0Q175.0 384.0 172.5 367.5Q170.0 351.0 168.25 329.5Q166.5 308.0 166.5 288.5Q166.5 280.0 163.75 267.75Q161.0 255.5 156.5 243.75Q152.0 232.0 147.5 224.0Q143.0 216.0 140.0 216.0Q138.5 216.0 134.75 219.5Q131.0 223.0 128.5 228.0Q125.0 233.0 123.0 241.25Q121.0 249.5 120.25 265.5Q119.5 281.5 119.5 310.0Q120.0 328.5 120.5 344.5Q121.0 360.5 121.75 370.25Q122.5 380.0 123.0 380.5Q126.0 383.5 139.25 385.75Q152.5 388.0 177.0 389.0ZM182.0 218.5 190.0 207.0H152.0L160.5 226.0Q168.0 240.0 171.0 240.0Q171.5 238.5 174.75 231.75Q178.0 225.0 182.0 218.5ZM409.0 180.0 415.0 170.5Q419.0 163.0 422.25 157.5Q425.5 152.0 426.5 150.5L424.0 152.5Q419.0 157.0 408.75 165.75Q398.5 174.5 385.5 186.0Q375.0 196.0 362.0 206.75Q349.0 217.5 337.5 226.25Q326.0 235.0 318.5 240.0L295.0 258.5L320.5 266.0Q352.0 275.5 362.5 275.5Q369.0 275.5 371.0 271.25Q373.0 267.0 374.5 257.5Q375.5 247.5 380.0 235.25Q384.5 223.0 389.0 213.5Q393.5 206.5 398.75 197.25Q404.0 188.0 409.0 180.0ZM454.5 243.0Q454.5 242.0 452.75 240.25Q451.0 238.5 448.0 238.0Q447.5 237.5 445.5 237.5Q443.0 237.5 443.0 243.0Q443.0 247.0 445.5 248.0Q447.5 248.0 448.0 247.5Q451.0 247.0 452.75 245.25Q454.5 243.5 454.5 243.0ZM457.5 288.0Q453.0 283.5 446.5 283.5Q443.0 283.5 443.0 290.0Q443.0 295.0 444.0 295.0Q446.5 295.0 451.5 292.0Q457.5 289.5 457.5 288.0ZM453.0 202.0V202.5L458.5 197.0Q458.0 197.0 457.0 196.75Q456.0 196.5 453.5 196.0Q453.0 196.0 452.75 195.75Q452.5 195.5 452.0 195.5Q447.0 195.5 445.5 199.5Q444.5 201.5 444.25 203.5Q444.0 205.5 444.0 206.5V207.0Q445.5 207.0 453.0 202.0ZM541.0 283.5Q541.0 264.0 541.75 244.0Q542.5 224.0 543.25 207.0Q544.0 190.0 545.0 179.25Q546.0 168.5 547.0 167.0H548.0Q553.0 167.0 562.5 177.5Q568.0 182.5 572.5 185.25Q577.0 188.0 585.75 189.0Q594.5 190.0 611.5 190.0H647.5L645.0 175.5Q644.5 170.0 642.5 160.75Q640.5 151.5 638.0 145.5L634.0 132.0L542.0 132.5L450.0 134.0Q448.5 136.5 445.0 142.25Q441.5 148.0 438.25 153.5Q435.0 159.0 433.5 161.5Q427.0 173.5 418.25 188.5Q409.5 203.5 404.0 212.5Q398.5 220.5 394.0 232.25Q389.5 244.0 387.0 255.75Q384.5 267.5 384.5 275.5Q384.5 284.0 387.0 284.0Q392.5 284.0 392.5 292.0Q392.5 293.0 392.5 294.25Q392.5 295.5 392.0 297.5Q391.5 299.5 391.5 302.5Q391.5 304.5 393.25 305.75Q395.0 307.0 397.0 307.0Q404.5 307.0 404.5 310.5Q404.5 312.0 400.5 315.0Q399.0 315.5 399.0 316.5Q399.0 322.0 413.0 336.5L431.0 354.5L432.5 280.5Q432.5 267.5 432.75 254.5Q433.0 241.5 433.0 229.5Q433.0 214.5 432.75 202.75Q432.5 191.0 432.0 187.5V183.5Q432.0 168.5 438.0 168.5Q440.5 168.5 444.25 170.75Q448.0 173.0 452.0 178.5Q457.5 183.0 462.25 185.5Q467.0 188.0 475.75 189.0Q484.5 190.0 502.0 190.0Q519.5 190.0 531.0 191.25Q542.5 192.5 542.5 196.0Q542.5 198.5 533.0 200.25Q523.5 202.0 510.5 202.0Q494.0 202.0 483.5 204.25Q473.0 206.5 463.5 212.0Q451.0 218.0 451.0 223.5Q451.0 227.0 462.0 229.25Q473.0 231.5 496.5 231.5Q514.0 231.5 525.75 233.25Q537.5 235.0 537.5 238.0Q537.5 241.0 529.5 242.75Q521.5 244.5 510.5 244.5Q497.5 244.5 486.0 246.75Q474.5 249.0 465.0 254.5Q457.0 258.0 454.0 260.5Q451.0 263.0 450.0 264.0Q451.0 264.5 452.0 266.25Q453.0 268.0 455.0 270.5Q460.0 276.0 468.75 277.5Q477.5 279.0 502.0 279.0Q516.5 279.0 527.0 280.0Q537.5 281.0 541.0 283.5ZM563.5 243.0Q563.5 240.0 557.0 238.0Q556.5 237.5 554.5 237.5Q551.5 237.5 551.5 243.0Q551.5 247.0 554.5 248.0Q556.5 248.0 557.0 247.5Q559.5 247.0 561.5 245.25Q563.5 243.5 563.5 243.0ZM566.5 289.0H565.0L566.5 288.5Q566.5 286.5 561.5 285.5Q561.0 285.5 560.5 285.25Q560.0 285.0 559.0 285.0Q556.5 285.0 556.5 287.0Q556.5 292.5 560.5 292.5Q563.0 292.5 566.5 289.0ZM613.0 279.0H648.0V244.5H620.5Q600.5 244.5 584.5 249.5Q568.5 254.5 559.0 263.0V263.5Q559.0 267.0 566.5 271.5Q572.0 275.0 582.5 277.0Q593.0 279.0 613.0 279.0ZM211.5 124.5Q200.0 123.5 181.25 119.75Q162.5 116.0 147.0 111.0L113.5 100.0L110.0 151.5L123.0 149.0Q129.0 148.0 142.75 145.5Q156.5 143.0 170.0 140.0Q183.5 136.5 198.0 134.5Q212.5 132.5 218.5 132.5Q234.5 132.5 234.5 130.5Q234.5 128.5 211.5 124.5ZM566.5 199.5Q566.5 197.0 561.5 195.5Q561.0 195.5 560.5 195.25Q560.0 195.0 559.0 195.0Q556.5 195.0 556.5 198.0Q556.5 203.0 560.5 203.0Q563.0 203.0 566.5 199.5ZM612.0 231.5H648.0V202.0H618.5Q594.5 202.5 577.75 208.25Q561.0 214.0 561.0 222.0Q561.0 227.5 572.0 229.5Q583.0 231.5 612.0 231.5ZM693.5 32.0H661.5Q647.5 32.0 635.25 31.0Q623.0 30.0 619.0 29.0Q617.0 28.5 616.0 28.25Q615.0 28.0 614.5 28.0H613.5Q613.5 30.0 616.0 37.0Q618.5 44.0 624.5 57.0Q629.5 68.0 633.5 81.25Q637.5 94.5 639.5 102.0Q640.5 108.5 642.5 113.5Q644.5 118.5 645.0 118.5Q649.5 118.5 649.5 123.5Q649.5 124.0 649.5 125.0Q649.5 126.0 648.5 127.0Q648.5 127.5 648.25 128.25Q648.0 129.0 648.0 130.0Q648.0 133.0 651.5 138.5L652.5 140.5Q653.0 140.5 653.0 134.0Q653.0 123.5 656.75 108.75Q660.5 94.0 667.0 78.75Q673.5 63.5 681.0 51.0ZM140.0 399.5Q114.5 396.5 87.5 390.0Q60.5 383.5 35.5 375.0Q35.0 374.5 34.0 374.5Q31.5 374.5 30.75 379.75Q30.0 385.0 30.0 399.5L29.5 425.5L45.0 424.0Q52.0 422.5 68.0 419.25Q84.0 416.0 99.5 414.0Q115.0 411.0 130.5 409.0Q146.0 407.0 152.0 406.5Q168.0 406.5 168.0 405.0Q168.0 404.0 161.0 402.0Q154.0 400.0 140.0 399.5ZM454.5 332.5Q454.5 331.5 452.75 329.75Q451.0 328.0 448.0 327.5Q447.5 327.0 445.5 327.0Q443.0 327.0 443.0 332.5Q443.0 338.0 445.5 338.0Q447.5 338.0 448.0 337.0Q454.5 335.5 454.5 332.5ZM562.5 332.5V332.0Q560.5 326.5 556.5 326.5Q551.5 326.5 551.5 332.5Q551.5 338.0 554.5 338.0Q556.5 338.0 557.0 337.0Q559.0 336.0 560.75 334.5Q562.5 333.0 562.5 332.5ZM612.0 321.0H648.0V291.5H618.5Q593.5 292.0 577.25 297.5Q561.0 303.0 561.0 311.0Q561.0 317.5 571.5 319.25Q582.0 321.0 612.0 321.0ZM592.0 13.5Q592.0 10.0 595.0 10.0Q596.0 10.0 598.0 10.5Q600.0 11.0 602.5 12.0Q605.0 13.5 623.0 15.25Q641.0 17.0 662.5 18.5Q716.5 19.0 716.5 27.5Q716.5 31.0 710.0 34.0Q706.0 35.5 699.5 46.0Q693.0 56.5 685.75 71.25Q678.5 86.0 673.0 101.25Q667.5 116.5 665.0 127.5V127.0Q664.0 135.0 662.75 160.0Q661.5 185.0 661.0 220.75Q660.5 256.5 660.5 297.5Q660.5 367.5 658.5 405.25Q656.5 443.0 654.5 443.0Q652.0 443.0 650.0 427.75Q648.0 412.5 648.0 386.5V334.0H619.0Q573.0 334.0 557.0 354.5Q549.0 362.5 545.0 362.5Q543.0 362.5 542.0 343.75Q541.0 325.0 541.0 298.5Q541.0 296.0 541.0 293.0Q541.0 290.0 541.0 287.5Q538.0 289.5 529.25 290.5Q520.5 291.5 509.0 291.5Q491.0 291.5 480.75 293.75Q470.5 296.0 462.5 301.0Q450.0 308.0 450.0 311.0Q450.0 311.5 452.5 315.0Q455.0 318.5 465.0 320.25Q475.0 322.0 496.5 322.0Q514.0 322.0 525.75 323.25Q537.5 324.5 537.5 327.5Q537.5 331.0 528.25 332.5Q519.0 334.0 506.5 334.0Q493.5 334.0 485.75 335.0Q478.0 336.0 471.75 339.0Q465.5 342.0 457.0 348.0Q449.5 353.0 445.5 356.75Q441.5 360.5 441.5 364.0Q441.5 369.5 453.5 384.0Q456.0 386.5 460.0 388.0Q464.0 389.5 473.75 390.25Q483.5 391.0 501.75 391.25Q520.0 391.5 550.5 391.5Q593.5 391.5 617.5 393.75Q641.5 396.0 641.5 399.0Q641.5 402.0 618.5 403.5Q595.5 405.0 555.5 405.0Q532.5 405.0 513.5 405.5Q494.5 406.0 483.25 406.25Q472.0 406.5 472.0 407.0Q472.0 408.5 473.75 412.75Q475.5 417.0 479.0 421.0Q485.0 433.0 485.0 439.5Q485.0 446.5 481.5 447.5Q477.0 446.5 464.5 424.5L454.5 404.5L339.0 407.0Q295.5 407.5 259.5 409.5Q223.5 411.5 191.5 414.5Q159.5 417.5 128.25 422.0Q97.0 426.5 62.5 433.0Q54.5 435.0 47.0 436.5Q39.5 438.0 33.0 439.0Q23.5 440.5 18.25 441.75Q13.0 443.0 12.0 443.0Q10.0 443.0 10.0 439.5Q10.0 437.0 11.0 432.25Q12.0 427.5 14.5 423.5Q17.0 417.0 18.0 410.75Q19.0 404.5 19.0 396.5Q19.0 392.5 18.75 388.75Q18.5 385.0 18.5 380.5Q18.0 374.0 17.25 370.0Q16.5 366.0 16.5 362.5Q16.5 355.0 20.0 355.0Q21.0 355.0 22.25 355.5Q23.5 356.0 25.5 356.5Q36.5 361.0 52.0 366.25Q67.5 371.5 81.0 375.0Q94.5 378.5 99.5 378.5H110.0L107.0 322.0Q106.0 302.5 104.75 290.0Q103.5 277.5 101.75 268.5Q100.0 259.5 96.75 251.0Q93.5 242.5 88.0 230.5Q82.0 216.5 77.25 206.25Q72.5 196.0 72.5 195.0Q72.5 193.0 78.25 192.25Q84.0 191.5 93.5 191.5Q103.0 191.5 115.5 191.75Q128.0 192.0 142.5 192.5Q170.5 194.0 191.25 195.5Q212.0 197.0 212.0 199.5Q212.0 200.0 208.5 205.25Q205.0 210.5 200.0 216.5Q189.0 229.5 184.25 246.5Q179.5 263.5 179.5 294.5Q179.5 302.0 179.5 310.25Q179.5 318.5 180.0 328.5Q181.0 339.5 181.5 349.5Q182.0 359.5 182.0 367.5Q182.0 384.0 179.5 389.0Q203.0 390.0 236.25 390.75Q269.5 391.5 313.5 391.5H444.0L436.5 382.0Q433.5 376.5 418.5 360.25Q403.5 344.0 386.5 326.0Q371.5 311.0 362.5 302.25Q353.5 293.5 346.75 289.0Q340.0 284.5 333.25 282.25Q326.5 280.0 316.5 278.0Q292.0 273.0 281.25 270.0Q270.5 267.0 270.5 263.0Q270.5 260.0 274.5 256.5Q278.5 253.0 286.0 248.0Q299.5 239.0 319.75 223.5Q340.0 208.0 361.75 189.5Q383.5 171.0 401.0 154.5L426.0 131.5L352.5 133.5Q312.5 134.5 278.5 137.5Q244.5 140.5 211.5 146.0Q178.5 151.5 140.0 160.0Q124.5 163.5 112.0 165.75Q99.5 168.0 95.5 168.0H93.5Q93.0 167.0 92.75 165.5Q92.5 164.0 92.5 163.5Q92.5 158.0 95.5 153.5Q98.0 149.0 99.5 137.5Q101.0 126.0 101.0 114.0Q101.0 99.5 101.75 89.75Q102.5 80.0 103.0 80.0Q103.5 80.0 108.75 82.25Q114.0 84.5 120.0 87.0Q126.0 90.5 141.0 95.5Q156.0 100.5 171.0 105.5Q183.5 108.5 195.0 110.5Q206.5 112.5 222.25 113.5Q238.0 114.5 263.25 114.75Q288.5 115.0 328.0 115.5L447.5 116.0L463.0 96.0Q470.0 88.0 474.5 80.75Q479.0 73.5 480.0 71.0V72.0Q481.0 66.5 484.5 66.5Q486.5 66.5 487.5 67.5Q489.5 70.0 489.5 74.5Q489.5 79.5 485.25 88.75Q481.0 98.0 472.5 107.0L463.0 118.5H630.5L627.5 104.0Q626.0 96.0 620.5 81.0Q615.0 66.0 608.25 50.25Q601.5 34.5 596.0 25.5V26.0Q592.0 16.5 592.0 13.5Z" fill="black" /></svg>