<svg xmlns="http://www.w3.org/2000/svg" width="729.0" height="380.0" viewBox="0 0 729.0 380.0"><path d="M49.5 259.0Q48.5 258.0 44.0 256.25Q39.5 254.5 34.0 253.5Q29.0 252.0 26.0 252.0Q23.5 252.0 23.0 255.0Q22.5 258.0 22.5 265.5V279.0L36.5 270.5Q48.5 263.5 49.5 259.0ZM350.0 236.5Q355.5 229.5 356.0 226.5Q348.5 228.5 324.5 245.5L297.5 265.5L315.0 270.0Q334.0 274.5 338.0 274.5Q342.5 274.5 342.5 266.5V264.0Q342.5 249.0 350.0 236.5ZM41.0 133.5 51.5 124.5 40.5 121.0Q33.0 118.5 31.0 118.5Q28.5 118.5 27.25 122.75Q26.0 127.0 25.75 132.0Q25.5 137.0 25.5 139.5Q25.5 143.0 26.5 143.0Q28.5 143.0 31.75 140.5Q35.0 138.0 41.0 133.5ZM440.0 209.5Q438.5 207.5 432.25 202.5Q426.0 197.5 418.25 192.25Q410.5 187.0 404.0 183.0Q397.5 179.0 396.0 179.0Q394.5 179.0 394.5 183.5Q394.5 186.5 391.5 192.5Q388.5 198.5 384.0 204.0Q371.5 218.5 363.25 236.5Q355.0 254.5 354.5 263.5Q354.5 267.0 357.0 267.0Q359.0 267.0 367.75 262.0Q376.5 257.0 388.0 249.25Q399.5 241.5 411.0 233.25Q422.5 225.0 430.5 218.5Q438.5 212.0 440.0 209.5ZM431.5 244.0V244.5Q436.0 235.0 437.0 231.0Q434.5 232.0 426.0 237.5Q417.5 243.0 406.5 250.5L379.0 270.0L399.5 274.0Q403.5 274.5 407.0 275.5Q410.5 276.5 414.0 277.0Q417.0 277.5 419.5 278.25Q422.0 279.0 423.5 279.5Q424.0 278.0 424.0 275.5Q424.0 273.0 424.0 270.5Q424.0 265.0 426.0 257.25Q428.0 249.5 431.5 244.0ZM513.0 240.0Q515.0 235.5 516.5 232.0Q518.0 228.5 518.5 226.5Q516.0 227.5 507.5 233.0Q499.0 238.5 488.0 246.0L461.0 266.0L472.5 268.5Q480.5 270.5 489.0 272.25Q497.5 274.0 505.5 274.0Q508.0 274.0 508.0 272.5Q508.0 271.5 508.0 270.25Q508.0 269.0 507.5 267.0V267.5Q507.0 266.0 507.0 263.0Q507.0 252.0 513.0 240.0ZM361.0 92.0 363.0 89.0Q364.5 86.5 366.0 84.25Q367.5 82.0 368.0 80.5Q364.5 82.5 356.0 88.0Q347.5 93.5 336.5 100.5L307.0 121.0L351.5 133.0V121.5Q351.5 115.5 354.5 107.0Q357.5 98.5 361.0 92.0ZM456.5 72.0Q456.5 71.0 455.5 71.0Q452.5 71.0 444.75 75.5Q437.0 80.0 422.5 91.5L397.0 110.5L417.5 116.0Q425.5 118.0 430.25 119.25Q435.0 120.5 437.5 120.5Q442.0 120.5 442.0 112.0Q442.0 104.5 443.5 97.0Q445.0 89.5 449.5 83.0Q452.0 79.5 454.25 76.25Q456.5 73.0 456.5 72.0ZM365.5 114.5Q365.0 117.0 364.75 119.25Q364.5 121.5 364.5 123.5Q364.5 135.0 373.0 135.0Q378.5 135.0 378.5 140.5Q378.5 142.5 378.0 143.0Q379.0 150.0 414.0 175.0L451.5 201.5L463.0 190.5H462.5Q470.0 182.5 474.0 182.5Q476.0 182.5 476.0 185.5Q476.0 188.5 472.5 196.75Q469.0 205.0 464.75 213.0Q460.5 221.0 458.0 224.0Q455.5 226.0 450.5 234.0Q445.5 242.0 441.5 250.25Q437.5 258.5 437.5 261.5Q442.5 261.5 459.75 251.0Q477.0 240.5 500.5 224.0L532.0 201.5Q530.0 199.0 527.5 196.75Q525.0 194.5 523.0 192.5Q518.5 188.5 507.25 180.75Q496.0 173.0 481.75 164.0Q467.5 155.0 453.75 147.0Q440.0 139.0 430.5 134.5Q422.5 130.5 411.0 126.5Q399.5 122.5 389.5 121.5Q380.5 120.0 373.5 118.25Q366.5 116.5 365.5 114.5ZM531.5 77.5Q533.5 74.5 534.75 72.0Q536.0 69.5 536.5 67.5Q533.5 68.0 525.25 73.5Q517.0 79.0 506.0 87.0L477.5 106.0L496.5 111.0Q505.5 113.0 511.0 114.5Q516.5 116.0 519.0 116.0Q522.5 116.0 523.25 113.5Q524.0 111.0 524.0 106.0V103.0Q524.0 96.5 526.0 89.0Q528.0 81.5 531.5 77.5ZM518.0 133.5Q502.0 126.0 485.75 121.0Q469.5 116.0 460.5 116.0Q454.0 116.0 454.0 118.0Q454.0 121.5 460.0 124.5Q466.5 129.0 466.5 135.5Q466.0 136.5 474.75 143.5Q483.5 150.5 496.0 159.75Q508.5 169.0 520.25 177.0Q532.0 185.0 538.0 188.0Q538.5 188.5 539.5 188.5Q544.5 188.5 549.0 182.5Q554.5 175.5 555.5 175.5Q557.0 175.5 558.0 184.0Q558.0 188.5 557.0 192.75Q556.0 197.0 553.5 198.5Q551.0 201.0 551.0 205.0Q551.0 210.5 545.5 210.5Q543.5 211.0 539.75 216.25Q536.0 221.5 532.0 229.0Q528.0 236.5 525.25 243.0Q522.5 249.5 522.5 252.5H523.0Q526.5 252.5 535.75 247.5Q545.0 242.5 557.25 235.0Q569.5 227.5 581.0 219.25Q592.5 211.0 600.25 204.25Q608.0 197.5 608.5 194.5Q608.0 191.5 598.25 184.0Q588.5 176.5 574.25 166.75Q560.0 157.0 545.0 148.0Q530.0 139.0 518.0 133.5ZM605.5 229.0Q609.0 223.0 610.75 218.25Q612.5 213.5 613.0 212.0V211.5Q613.0 211.5 603.75 217.5Q594.5 223.5 583.0 232.0L554.0 251.5L569.5 256.5Q578.0 259.0 584.25 260.25Q590.5 261.5 594.0 261.5Q599.5 261.5 599.5 258.5Q599.5 257.0 599.0 256.0Q598.5 255.0 598.5 252.5Q598.5 247.5 600.5 241.25Q602.5 235.0 605.5 229.0ZM614.0 72.0Q620.0 61.0 620.5 57.0Q617.5 58.0 608.5 63.5Q599.5 69.0 588.75 76.25Q578.0 83.5 570.25 89.25Q562.5 95.0 562.5 96.5Q562.5 97.0 566.5 98.25Q570.5 99.5 576.5 100.5L581.0 101.0Q592.5 102.5 602.0 106.0H601.5Q604.0 106.5 605.5 106.75Q607.0 107.0 608.0 107.0Q609.5 107.0 609.5 106.5Q609.5 104.5 608.0 101.0Q607.0 98.0 607.0 95.0Q607.0 86.0 614.0 72.0ZM646.0 18.0H645.5Q651.5 10.0 653.5 10.0Q655.0 10.0 656.5 15.5Q656.5 20.5 654.75 25.75Q653.0 31.0 648.5 34.5H649.0Q645.0 39.5 637.75 51.5Q630.5 63.5 624.5 75.75Q618.5 88.0 618.5 95.0Q618.5 98.5 622.0 105.25Q625.5 112.0 629.0 112.0Q634.0 112.0 634.0 117.5V119.0Q634.5 121.0 643.5 129.0Q652.5 137.0 665.0 147.0Q694.0 166.5 706.5 178.0Q719.0 189.5 719.0 194.5Q719.0 196.0 718.0 197.0Q717.5 198.5 715.5 198.5Q712.5 198.5 708.5 195.5Q704.5 192.5 699.5 188.0Q693.5 182.0 679.0 171.75Q664.5 161.5 647.25 150.25Q630.0 139.0 614.75 130.25Q599.5 121.5 591.0 118.0Q586.0 115.0 575.25 112.5Q564.5 110.0 556.0 108.0Q551.0 107.5 547.25 107.25Q543.5 107.0 541.0 107.0Q534.5 107.0 534.5 110.5Q534.5 113.5 536.75 116.25Q539.0 119.0 541.5 120.0Q548.0 124.0 548.0 130.5Q548.0 131.5 559.0 140.25Q570.0 149.0 586.0 160.5L624.0 188.5L635.5 177.0Q644.5 167.0 648.0 167.0Q650.5 167.0 650.5 170.5Q650.5 173.5 646.5 183.0Q644.0 187.5 641.0 192.75Q638.0 198.0 637.0 201.0L635.5 203.0Q633.5 205.0 632.0 207.25Q630.5 209.5 629.5 210.5V210.0Q625.5 213.5 621.0 222.25Q616.5 231.0 613.5 240.0Q610.5 249.0 610.5 255.0Q610.5 267.0 618.5 267.0Q624.5 267.0 624.5 270.5Q624.5 272.5 624.0 273.0Q623.0 274.0 623.0 274.5Q623.0 277.5 629.25 282.75Q635.5 288.0 650.0 298.0Q676.0 315.0 692.25 329.25Q708.5 343.5 709.0 349.0Q709.0 349.5 708.75 350.0Q708.5 350.5 708.5 351.0V350.5Q708.0 352.0 706.5 352.0Q701.5 352.0 689.0 341.0Q683.0 335.5 669.5 326.25Q656.0 317.0 640.25 306.75Q624.5 296.5 610.25 287.75Q596.0 279.0 588.0 274.5Q584.5 273.0 575.5 270.25Q566.5 267.5 555.75 265.0Q545.0 262.5 535.75 260.75Q526.5 259.0 522.0 259.0Q517.0 260.0 517.0 261.0Q517.0 268.5 520.25 274.25Q523.5 280.0 528.0 280.0Q532.5 280.0 532.5 286.5V289.5Q532.5 295.0 542.5 301.0Q554.0 308.5 566.75 318.0Q579.5 327.5 590.75 336.75Q602.0 346.0 609.25 352.75Q616.5 359.5 616.5 362.0Q616.5 364.5 614.5 364.5Q608.0 364.5 589.5 348.5Q576.5 339.0 558.25 326.5Q540.0 314.0 519.25 302.25Q498.5 290.5 478.25 282.75Q458.0 275.0 441.0 275.0Q437.0 275.0 437.0 275.5Q437.0 276.5 441.5 282.0Q444.0 284.5 446.25 288.25Q448.5 292.0 448.5 294.0Q448.5 295.5 454.5 300.0Q460.5 304.5 468.5 310.0Q487.0 322.0 501.75 333.5Q516.5 345.0 525.5 353.75Q534.5 362.5 534.5 366.5Q534.5 370.0 532.5 370.0Q528.0 370.0 512.5 356.0Q503.0 348.5 488.5 338.25Q474.0 328.0 458.5 318.0Q443.0 308.0 429.75 300.25Q416.5 292.5 409.5 289.5Q400.0 285.5 385.75 282.5Q371.5 279.5 361.0 279.5Q366.5 283.5 366.5 289.5Q366.5 290.5 376.0 298.0Q385.5 305.5 398.5 315.5Q412.5 325.0 425.5 335.0Q438.5 345.0 443.5 350.5Q449.0 355.5 451.0 359.0Q453.0 362.5 453.0 364.0Q453.0 367.0 450.5 367.0Q444.5 367.0 429.0 353.0Q421.0 346.0 408.0 336.5Q395.0 327.0 380.0 317.25Q365.0 307.5 351.25 299.25Q337.5 291.0 327.5 286.5Q320.0 283.0 307.75 280.0Q295.5 277.0 285.5 275.5Q264.5 273.5 264.0 270.0Q264.5 267.0 271.0 264.0L273.0 263.0Q273.0 261.5 252.25 261.0Q231.5 260.5 178.0 260.0H73.5L53.5 273.5Q18.0 295.0 18.0 316.0Q18.0 323.0 16.0 323.0Q14.5 323.0 12.0 318.5Q11.5 316.0 11.0 308.75Q10.5 301.5 10.5 291.0Q10.5 276.0 11.5 258.5Q12.5 241.0 14.0 228.75Q15.5 216.5 17.0 216.5Q18.0 216.5 21.25 220.0Q24.5 223.5 26.0 229.0V228.5Q28.5 233.0 33.0 237.5Q37.5 242.0 42.5 243.5Q46.0 245.0 65.0 246.0Q84.0 247.0 113.75 247.5Q143.5 248.0 178.5 248.0H301.5Q310.0 241.0 319.0 234.5Q328.0 228.0 337.0 221.5Q352.5 211.0 365.5 200.0Q378.5 189.0 383.0 184.5H382.5L392.0 174.0Q382.5 168.0 372.0 162.5Q352.0 150.5 334.5 143.0Q317.0 135.5 295.75 131.5Q274.5 127.5 244.75 126.0Q215.0 124.5 170.5 124.5Q140.5 124.5 121.75 124.75Q103.0 125.0 92.5 126.0Q82.0 127.0 75.75 128.5Q69.5 130.0 64.0 133.0Q54.0 138.0 43.25 147.25Q32.5 156.5 25.25 165.75Q18.0 175.0 18.0 181.0Q18.0 188.0 16.5 188.0Q13.0 188.0 11.5 180.5Q10.0 173.0 10.0 170.5Q10.0 166.5 10.75 161.25Q11.5 156.0 12.0 149.5Q13.0 144.0 13.75 136.0Q14.5 128.0 15.0 121.0Q14.5 117.0 14.5 113.25Q14.5 109.5 13.5 107.0Q13.0 102.5 12.75 99.0Q12.5 95.5 12.5 93.0Q12.5 85.5 14.5 85.5Q16.5 85.5 21.25 89.5Q26.0 93.5 31.5 99.5L44.5 112.0H222.0Q252.0 112.0 269.5 111.25Q287.0 110.5 298.0 107.75Q309.0 105.0 318.75 99.0Q328.5 93.0 342.5 83.0Q345.5 80.5 349.0 78.0Q352.5 75.5 356.0 73.0Q369.5 62.5 380.0 53.5Q390.5 44.5 391.0 42.5Q394.0 36.0 399.0 36.0Q403.5 36.0 403.5 41.5Q403.5 43.5 400.5 49.75Q397.5 56.0 393.0 61.5Q382.5 75.5 375.5 89.0Q368.5 102.5 366.0 113.0Q370.0 107.0 385.5 100.5Q393.0 97.0 404.5 89.5Q416.0 82.0 429.0 72.75Q442.0 63.5 453.5 54.75Q465.0 46.0 472.75 39.25Q480.5 32.5 481.5 30.0Q483.0 26.5 485.0 24.0Q487.0 21.5 489.0 21.5Q494.0 21.5 494.0 27.0Q494.0 35.0 483.5 48.0Q477.0 56.5 470.5 67.75Q464.0 79.0 459.75 88.5Q455.5 98.0 455.0 101.5V102.0H456.0Q460.0 102.0 471.75 95.25Q483.5 88.5 499.25 77.75Q515.0 67.0 530.75 54.75Q546.5 42.5 558.0 31.5Q569.5 21.0 573.5 21.0Q577.0 21.0 577.0 25.0Q577.0 31.0 565.5 45.0Q559.5 52.5 553.0 62.75Q546.5 73.0 542.25 81.75Q538.0 90.5 538.0 94.0V94.5Q540.5 94.5 551.5 87.75Q562.5 81.0 577.5 70.75Q592.5 60.5 607.5 49.75Q622.5 39.0 633.25 30.25Q644.0 21.5 646.0 18.0Z" fill="black" /></svg>