<svg xmlns="http://www.w3.org/2000/svg" width="479.5" height="387.5" viewBox="0 0 479.5 387.5"><path d="M94.5 316.5Q98.5 309.5 100.0 305.75Q101.5 302.0 102.0 300.0Q100.5 300.0 94.5 303.0Q92.5 305.0 83.5 306.75Q74.5 308.5 65.5 308.5H48.0L62.5 327.0Q77.5 346.0 82.5 346.0Q84.0 346.0 84.0 342.0Q84.0 339.0 87.0 331.75Q90.0 324.5 94.5 316.5ZM224.0 266.0H224.5Q218.0 258.5 215.0 258.5Q212.0 258.5 212.0 274.0Q212.0 281.5 211.0 294.5Q210.0 307.5 209.0 318.5L207.0 341.0L225.5 324.0Q235.0 315.0 242.75 309.75Q250.5 304.5 252.5 304.0L274.0 296.5L255.0 287.5Q245.5 282.5 236.5 276.0Q227.5 269.5 224.0 266.0ZM49.5 98.0Q50.0 96.0 50.25 95.0Q50.5 94.0 50.5 93.5Q50.5 92.5 48.25 92.25Q46.0 92.0 39.0 92.0H27.0Q27.5 94.0 30.5 101.0Q33.5 108.0 34.5 110.5Q41.0 126.0 42.0 126.0Q42.0 126.0 42.5 124.5Q43.0 123.0 43.5 119.5Q44.0 117.0 45.0 114.5Q46.0 112.0 46.5 109.0Q47.5 105.5 48.25 102.75Q49.0 100.0 49.5 98.0ZM124.5 187.0 117.5 183.5Q113.0 181.0 108.25 176.5Q103.5 172.0 100.5 169.5Q99.0 168.5 98.25 167.5Q97.5 166.5 97.0 166.5Q96.0 166.5 95.75 171.25Q95.5 176.0 95.5 188.0V211.0L110.0 200.0ZM355.0 165.5 361.0 159.0H341.5Q333.0 159.0 327.0 158.75Q321.0 158.5 320.0 158.0L338.5 202.5L341.5 191.5Q344.0 185.5 347.75 177.75Q351.5 170.0 355.0 165.5ZM133.0 91.0Q132.5 90.0 131.0 84.0Q129.5 78.0 128.25 71.75Q127.0 65.5 126.5 64.5V65.0L124.5 52.5L88.5 83.0L100.5 84.5Q107.5 85.5 115.25 87.0Q123.0 88.5 127.5 89.5Q131.5 91.0 133.0 91.0ZM281.5 66.0 271.5 60.5Q265.5 58.0 259.5 53.75Q253.5 49.5 251.0 46.5Q250.0 46.0 249.25 45.5Q248.5 45.0 248.0 45.0Q245.5 45.0 244.0 66.0V69.5Q243.5 74.5 243.5 79.75Q243.5 85.0 243.5 90.0Q244.5 89.5 245.75 88.5Q247.0 87.5 248.5 86.5L252.5 84.5Q256.5 80.5 262.75 75.75Q269.0 71.0 274.0 69.0ZM450.0 28.5Q450.0 28.5 443.5 28.0Q437.0 27.5 428.5 27.0Q420.5 27.0 414.5 27.0Q408.5 27.0 407.0 26.5Q413.0 39.0 418.25 57.75Q423.5 76.5 425.5 89.5L427.5 101.0L433.5 78.0Q436.5 65.5 440.25 54.5Q444.0 43.5 445.5 40.0Q450.0 32.0 450.0 28.5ZM112.5 46.5Q131.0 28.0 138.5 28.0Q143.0 28.0 143.0 34.0Q143.0 38.0 140.5 44.5Q139.0 48.0 138.0 52.0Q137.0 56.0 137.0 60.0Q137.0 70.5 146.0 83.5Q155.0 96.5 168.25 109.5Q181.5 122.5 194.5 133.5Q207.5 144.5 215.0 150.5Q224.0 158.0 230.0 165.5Q236.0 173.0 236.0 176.0V177.5Q234.0 179.0 220.25 181.5Q206.5 184.0 189.0 185.0Q165.5 186.5 151.0 190.25Q136.5 194.0 125.75 201.75Q115.0 209.5 103.5 223.5Q99.0 229.0 94.75 233.0Q90.5 237.0 88.5 237.0H87.0Q86.5 235.5 85.5 223.0Q84.5 210.5 84.0 193.75Q83.5 177.0 83.5 162.5Q83.5 150.0 84.0 141.75Q84.5 133.5 86.5 133.5Q87.5 133.5 92.0 138.25Q96.5 143.0 101.5 150.0Q110.0 164.0 119.75 169.25Q129.5 174.5 151.0 174.5Q157.5 174.5 164.25 174.0Q171.0 173.5 179.5 173.0Q195.0 171.5 206.0 170.75Q217.0 170.0 219.0 171.0Q218.0 170.0 215.25 167.75Q212.5 165.5 208.5 162.0Q189.0 142.5 172.0 129.0Q155.0 115.5 135.25 107.5Q115.5 99.5 87.0 96.5L62.5 93.5L59.0 107.0Q52.5 128.0 49.5 148.5Q46.5 169.0 46.5 195.5Q46.5 212.5 48.0 236.0L50.5 295.0H66.5Q78.0 295.0 88.75 291.25Q99.5 287.5 116.0 276.25Q132.5 265.0 161.5 243.5Q186.0 224.5 199.25 214.5Q212.5 204.5 218.25 200.75Q224.0 197.0 226.0 197.0Q227.0 197.0 227.75 197.75Q228.5 198.5 229.0 199.0H230.0Q230.5 201.5 216.0 215.25Q201.5 229.0 179.5 245.0Q157.5 261.5 145.0 272.0Q132.5 282.5 125.5 291.25Q118.5 300.0 111.5 312.0Q105.0 322.5 100.25 331.75Q95.5 341.0 95.5 342.0Q95.5 347.5 89.5 360.5L82.5 377.5L67.0 354.5Q62.0 346.0 53.5 334.75Q45.0 323.5 38.0 316.5Q25.5 304.0 25.5 297.0Q25.5 296.5 26.0 295.25Q26.5 294.0 27.0 293.5Q28.0 293.5 29.5 292.75Q31.0 292.0 32.0 292.0Q33.0 292.0 34.0 292.25Q35.0 292.5 37.0 293.0Q37.5 292.0 37.5 274.0Q37.5 261.5 37.25 242.75Q37.0 224.0 35.75 202.5Q34.5 181.0 32.25 160.25Q30.0 139.5 26.0 123.0Q22.0 106.5 16.0 98.5Q10.0 89.5 10.0 84.5Q10.0 82.0 15.25 81.0Q20.5 80.0 28.5 80.0H48.0Q60.5 80.0 68.75 77.75Q77.0 75.5 86.5 68.25Q96.0 61.0 112.5 46.5ZM391.5 14.0Q391.5 10.0 396.5 10.0Q398.0 10.0 400.25 10.5Q402.5 11.0 404.5 11.5Q408.0 12.5 415.5 13.25Q423.0 14.0 430.5 14.0H442.0Q453.0 14.0 461.25 14.25Q469.5 14.5 469.5 17.0Q469.5 18.0 467.75 21.75Q466.0 25.5 463.5 31.5Q461.5 35.0 460.0 38.5Q458.5 42.0 456.5 46.0Q448.0 64.5 444.0 87.25Q440.0 110.0 439.0 141.5Q438.0 173.0 438.0 219.0Q438.0 255.5 438.5 273.25Q439.0 291.0 439.0 291.0H445.5Q453.0 291.0 453.0 297.0Q453.0 303.0 445.0 303.0H439.0V327.5Q439.0 338.5 438.0 345.75Q437.0 353.0 433.5 353.0Q431.5 353.0 430.0 345.5Q428.5 338.0 428.5 327.0V303.0L346.0 304.0V334.5Q344.0 364.0 339.5 364.0Q333.5 364.0 333.5 331.5V304.5L307.5 307.0Q270.0 309.0 246.25 323.75Q222.5 338.5 202.5 368.5Q201.0 374.5 197.0 374.5Q195.5 374.5 195.0 372.5L195.5 374.0Q193.5 371.0 193.5 362.0Q193.5 356.5 194.25 348.5Q195.0 340.5 195.5 332.0Q198.0 317.0 199.5 297.25Q201.0 277.5 201.0 265.0Q201.0 252.0 202.0 242.5Q203.0 233.0 204.0 233.0Q204.5 233.0 210.25 237.5Q216.0 242.0 222.5 249.0Q232.5 257.5 249.25 267.25Q266.0 277.0 284.0 284.0Q302.0 291.0 315.5 291.0L333.5 290.5V258.5Q333.5 233.5 328.25 213.0Q323.0 192.5 309.0 165.0Q305.5 158.0 303.0 153.0Q300.5 148.0 300.5 146.0Q300.5 143.0 309.5 143.0Q316.5 143.0 328.0 143.75Q339.5 144.5 351.25 145.25Q363.0 146.0 371.5 147.0Q380.0 148.0 381.0 148.5Q382.0 150.0 379.0 155.75Q376.0 161.5 370.5 168.5Q361.5 179.0 356.25 187.0Q351.0 195.0 349.0 208.25Q347.0 221.5 346.5 247.5L346.0 290.5L428.5 291.0L427.0 214.0Q426.5 173.5 423.5 144.0Q420.5 114.5 414.75 90.0Q409.0 65.5 400.0 40.5Q396.5 31.0 394.0 23.0Q391.5 15.0 391.5 14.0ZM233.5 43.0Q233.5 34.0 235.25 27.75Q237.0 21.5 239.0 21.5Q243.0 21.5 253.0 32.5Q257.0 37.0 266.0 43.0Q275.0 49.0 282.5 53.5Q290.0 57.0 295.75 58.75Q301.5 60.5 309.75 61.25Q318.0 62.0 332.0 62.0H354.0Q361.0 61.5 367.0 61.5Q373.0 61.5 378.5 61.5Q391.0 61.5 399.0 62.75Q407.0 64.0 407.0 65.0Q407.0 71.5 393.25 73.5Q379.5 75.5 342.0 75.5Q313.5 75.5 296.0 78.25Q278.5 81.0 267.75 87.5Q257.0 94.0 248.5 106.0Q244.0 111.5 239.75 116.25Q235.5 121.0 233.5 121.0Q230.0 121.0 230.0 106.0Q230.0 102.5 230.25 98.25Q230.5 94.0 230.5 90.5Q232.5 79.0 233.0 65.0Q233.5 51.0 233.5 43.0Z" fill="black" /></svg>