<svg xmlns="http://www.w3.org/2000/svg" width="681.0" height="386.0" viewBox="0 0 681.0 386.0"><path d="M79.0 285.0H77.5Q71.0 284.0 60.0 279.0Q49.0 274.0 40.25 269.5Q31.5 265.0 31.5 265.0V274.0Q31.5 279.5 31.25 285.75Q31.0 292.0 30.0 297.0L27.0 310.5L30.0 309.0Q40.5 303.5 50.25 298.25Q60.0 293.0 71.0 289.0Q75.0 287.0 75.25 287.0Q75.5 287.0 79.0 285.0ZM254.0 293.0Q274.0 284.5 294.0 276.5Q314.0 268.5 334.0 260.5Q332.0 260.5 330.0 260.75Q328.0 261.0 325.5 261.5Q316.5 261.5 304.75 261.75Q293.0 262.0 281.5 262.0L240.5 264.0L243.0 280.0Q244.5 297.0 247.0 297.0Q250.0 297.0 254.0 293.0ZM399.5 328.0 396.5 327.5Q380.5 326.5 364.5 323.25Q348.5 320.0 333.5 314.0Q330.5 313.5 327.5 312.0Q327.5 313.5 327.75 315.25Q328.0 317.0 328.5 318.5V328.0Q328.5 333.0 328.0 337.75Q327.5 342.5 327.0 347.0Q326.5 349.0 326.25 349.0Q326.0 349.0 326.0 351.0L339.5 344.0Q347.5 340.0 360.5 336.5Q373.5 333.0 383.5 331.0ZM141.5 156.5 129.0 152.5Q123.5 151.0 115.75 147.25Q108.0 143.5 103.5 141.0V159.5Q103.5 167.0 101.0 177.0ZM344.5 186.0Q329.0 174.5 317.0 163.75Q305.0 153.0 292.0 138.5Q291.5 139.5 291.0 140.75Q290.5 142.0 289.5 143.0Q287.5 146.5 285.5 149.75Q283.5 153.0 280.5 155.5Q276.0 162.0 269.0 167.5Q267.5 169.0 267.5 169.0Q267.5 169.5 266.5 170.0Q273.5 171.0 284.5 172.5Q295.5 174.0 305.0 176.5ZM382.0 118.5 360.0 117.5 370.5 133.5ZM364.0 48.5Q358.0 44.0 353.25 40.75Q348.5 37.5 348.5 37.5Q348.5 37.5 344.75 43.25Q341.0 49.0 337.0 57.5L327.0 75.5H343.0Q355.0 75.5 376.5 79.25Q398.0 83.0 422.0 89.5Q417.0 85.5 407.0 80.0L402.5 76.0Q392.0 69.0 380.75 61.25Q369.5 53.5 364.0 48.5ZM19.0 238.0V238.5Q21.0 238.0 25.25 241.25Q29.5 244.5 34.5 250.0Q54.0 269.5 118.0 275.5L211.5 278.5Q229.5 279.0 229.5 285.0Q229.5 291.0 214.0 291.0H211.5L124.0 290.5Q106.0 291.0 88.75 297.0Q71.5 303.0 57.25 310.5Q43.0 318.0 33.0 323.5Q23.5 330.0 18.0 332.0Q14.5 332.0 12.25 331.25Q10.0 330.5 10.0 326.0Q10.0 325.0 10.5 323.25Q11.0 321.5 11.5 319.5Q13.0 315.5 15.5 304.0Q18.0 292.5 18.0 280.0Q18.0 277.0 17.75 274.5Q17.5 272.0 17.5 269.5V267.0Q16.0 255.0 16.0 248.0Q16.0 241.0 18.0 239.0V238.5Q18.5 238.5 18.5 238.25Q18.5 238.0 19.0 238.0ZM312.0 320.5Q312.0 307.5 313.25 298.25Q314.5 289.0 316.5 289.0Q317.5 289.0 318.0 290.5Q318.0 290.5 323.0 291.5Q354.0 307.0 385.5 311.75Q417.0 316.5 451.5 316.5Q458.5 316.5 465.75 316.0Q473.0 315.5 480.5 315.5L582.0 309.5H588.5Q606.5 309.5 606.5 315.0Q606.5 317.0 599.75 319.5Q593.0 322.0 582.5 323.0L481.5 329.5Q446.5 333.5 412.75 339.25Q379.0 345.0 358.5 351.0Q350.0 354.0 340.25 358.75Q330.5 363.5 325.5 367.5Q315.5 376.0 310.5 376.0Q306.0 376.0 306.0 370.5Q306.0 369.0 306.5 366.25Q307.0 363.5 308.0 360.0Q310.5 354.5 311.25 347.0Q312.0 339.5 312.0 320.5ZM337.0 25.0 343.0 10.0 364.0 30.5Q372.5 38.5 390.0 51.0Q407.5 63.5 428.5 76.25Q449.5 89.0 468.0 98.5Q473.5 101.0 491.75 108.25Q510.0 115.5 530.0 122.0Q555.0 130.5 580.0 139.75Q605.0 149.0 625.5 157.5Q646.0 166.0 658.5 172.0Q671.0 178.0 671.0 179.5Q671.0 182.0 651.25 188.0Q631.5 194.0 604.0 201.0Q578.5 206.5 552.25 212.75Q526.0 219.0 501.0 227.0L468.0 235.0L504.5 251.5Q522.0 259.5 533.25 266.75Q544.5 274.0 544.5 277.5V278.5Q544.0 280.5 541.0 280.5Q537.0 280.5 524.75 276.0Q512.5 271.5 496.5 263.5Q478.5 254.5 463.75 248.25Q449.0 242.0 446.5 242.0Q442.0 242.0 426.25 246.25Q410.5 250.5 388.25 257.75Q366.0 265.0 341.75 273.5Q317.5 282.0 295.5 291.25Q273.5 300.5 257.75 308.75Q242.0 317.0 237.5 323.0Q232.0 331.0 228.0 331.0Q223.5 331.0 223.5 325.0Q223.5 320.5 227.0 312.0Q228.0 308.0 229.0 302.5Q230.0 297.0 230.0 291.0Q230.0 283.0 228.75 275.25Q227.5 267.5 225.0 261.5Q225.0 260.5 224.5 260.0Q224.0 259.5 224.0 259.0Q224.0 255.5 229.0 254.0Q234.0 252.5 247.75 251.25Q261.5 250.0 287.5 248.5Q305.0 247.5 325.0 246.0Q345.0 244.5 363.0 242.25Q381.0 240.0 392.0 238.0L428.0 231.5L418.0 228.0Q400.0 220.0 377.75 212.0Q355.5 204.0 333.5 197.25Q311.5 190.5 293.5 186.5Q275.5 182.5 266.5 182.5Q254.0 182.5 248.5 180.0Q243.0 177.5 243.0 174.5Q243.0 169.5 249.5 167.5Q252.5 167.0 257.0 164.0H208.0Q187.5 164.0 172.25 165.25Q157.0 166.5 143.0 171.5Q129.0 176.5 112.0 188.5Q106.5 192.0 101.75 195.0Q97.0 198.0 94.0 198.0H93.5Q86.5 197.5 86.5 187.0Q86.5 184.5 86.75 181.5Q87.0 178.5 87.5 175.0Q87.5 171.0 87.75 166.5Q88.0 162.0 88.0 156.5V151.0Q88.0 146.0 87.75 141.5Q87.5 137.0 87.5 133.5V126.0Q87.5 117.0 93.5 116.5Q94.0 116.5 98.5 118.25Q103.0 120.0 106.5 125.0Q118.0 137.5 143.5 143.0Q169.0 148.5 213.0 150.5H268.0L274.0 143.0Q276.5 139.0 279.5 134.25Q282.5 129.5 283.5 126.5Q287.5 118.5 292.0 118.5Q298.0 118.5 303.5 131.0Q306.0 135.5 315.25 144.5Q324.5 153.5 336.0 163.0Q347.5 172.5 356.5 179.5L369.0 187.5L364.5 164.0Q362.5 147.0 357.0 134.25Q351.5 121.5 345.5 120.0Q342.5 118.0 340.25 115.5Q338.0 113.0 338.0 111.0Q338.0 108.5 344.25 107.5Q350.5 106.5 359.5 106.5Q371.0 106.5 382.5 107.5Q394.0 108.5 400.5 109.5H399.5Q401.5 109.5 400.25 113.5Q399.0 117.5 393.5 123.0Q385.0 132.5 381.5 140.75Q378.0 149.0 378.0 159.5Q378.0 163.0 378.25 166.75Q378.5 170.5 379.0 174.5L382.0 195.0L411.5 210.0Q424.0 216.0 434.5 220.5Q445.0 225.0 447.0 225.0Q448.5 225.0 462.75 221.5Q477.0 218.0 500.0 212.5Q523.0 207.0 550.0 200.5L641.5 178.0L628.5 173.0Q608.5 164.5 579.25 153.5Q550.0 142.5 516.5 131.25Q483.0 120.0 449.0 110.5Q415.0 101.0 384.25 95.25Q353.5 89.5 330.5 89.5H318.0Q299.5 89.5 299.5 86.5Q299.5 82.0 309.5 73.0Q317.5 66.0 324.5 53.0Q331.5 40.0 337.0 25.0Z" fill="black" /></svg>