<svg xmlns="http://www.w3.org/2000/svg" width="625.5" height="382.5" viewBox="0 0 625.5 382.5"><path d="M132.0 279.5Q132.0 278.5 130.0 278.0Q128.0 277.5 125.5 277.5Q122.0 277.5 120.75 283.25Q119.5 289.0 119.5 305.0V330.5Q124.5 327.0 129.25 324.0Q134.0 321.0 139.0 318.0Q147.5 313.5 154.0 308.75Q160.5 304.0 160.5 303.5Q160.5 302.5 156.5 299.25Q152.5 296.0 146.5 293.0Q140.5 289.0 136.25 285.25Q132.0 281.5 132.0 279.5ZM95.0 179.5 72.0 170.5Q61.0 166.0 50.75 160.0Q40.5 154.0 36.5 150.5Q31.0 146.0 30.0 146.0Q29.0 146.0 29.0 160.5Q29.0 168.5 28.0 178.75Q27.0 189.0 26.0 195.0L23.5 208.0L39.5 199.0Q47.0 195.0 58.5 190.75Q70.0 186.5 78.0 184.5ZM208.0 181.0Q208.0 180.0 202.75 179.0Q197.5 178.0 190.0 178.0Q177.5 178.0 174.75 179.75Q172.0 181.5 170.0 191.5V191.0Q169.5 193.5 169.25 196.5Q169.0 199.5 169.0 202.5Q169.0 213.5 171.5 222.5L173.5 236.5L190.0 211.5Q197.5 200.5 202.75 191.75Q208.0 183.0 208.0 181.0ZM245.5 252.0Q245.5 245.0 244.0 242.5Q242.5 240.0 233.0 240.0Q231.0 240.0 227.5 240.25Q224.0 240.5 220.0 240.5Q199.5 240.5 189.25 242.75Q179.0 245.0 175.5 251.75Q172.0 258.5 172.0 272.0Q172.0 287.0 174.25 291.0Q176.5 295.0 187.5 298.5Q198.5 302.5 209.0 302.5Q213.5 302.5 215.0 302.0Q221.0 301.5 223.0 298.25Q225.0 295.0 225.0 283.5Q225.5 268.0 226.5 262.0Q227.5 256.0 229.5 256.0Q230.0 256.0 234.0 260.0H233.5Q239.0 264.5 242.0 264.5Q245.5 264.5 245.5 252.0ZM240.5 227.0 230.0 217.5Q216.5 207.0 211.5 207.0Q206.0 207.0 201.5 217.0Q198.5 223.0 198.5 224.5Q198.5 226.5 203.25 226.75Q208.0 227.0 220.0 227.0ZM254.5 282.5Q249.5 280.0 245.0 278.75Q240.5 277.5 240.0 277.5Q239.5 277.5 238.25 283.75Q237.0 290.0 236.25 299.0Q235.5 308.0 234.75 316.5Q234.0 325.0 234.0 329.0V330.0Q242.5 329.0 266.5 319.5Q270.5 318.0 281.5 314.0Q292.5 310.0 303.5 306.75Q314.5 303.5 318.5 303.5Q317.5 303.0 304.0 299.0L296.5 297.0Q285.5 293.5 272.75 289.25Q260.0 285.0 254.5 282.5ZM245.5 194.5Q245.5 184.5 244.0 181.25Q242.5 178.0 238.5 178.0Q232.5 178.0 226.0 182.25Q219.5 186.5 219.5 191.5Q219.5 193.5 224.25 198.25Q229.0 203.0 234.75 207.5Q240.5 212.0 243.5 212.5Q244.5 212.0 245.0 206.75Q245.5 201.5 245.5 194.5ZM314.0 208.5 299.0 178.0H257.5V221.5Q265.5 225.0 273.0 228.0Q280.5 231.0 288.5 234.5Q300.5 241.0 309.75 246.0Q319.0 251.0 319.0 253.5Q319.0 258.0 314.0 258.0Q306.5 258.0 290.5 251.0Q283.0 248.0 277.0 246.25Q271.0 244.5 267.0 244.5Q257.5 244.5 257.5 256.5Q257.5 264.5 261.25 268.25Q265.0 272.0 278.0 276.5Q286.0 279.5 297.0 283.0Q308.0 286.5 316.0 288.5L333.0 292.5Q332.5 286.0 332.0 280.0Q331.5 274.0 330.5 267.5Q330.0 255.0 325.5 239.5Q321.0 224.0 314.0 208.5ZM345.0 197.0 354.0 178.0H334.5Q326.5 178.0 321.0 178.25Q315.5 178.5 315.5 179.0L324.5 200.0Q327.0 207.5 329.5 212.25Q332.0 217.0 333.0 217.0Q334.0 217.0 337.5 211.0Q341.0 205.0 345.0 197.0ZM184.0 51.5Q184.0 50.5 177.25 49.75Q170.5 49.0 161.5 49.0Q149.0 49.0 144.25 49.5Q139.5 50.0 139.5 52.5Q139.5 54.0 140.0 55.5Q140.5 57.5 141.75 61.0Q143.0 64.5 144.5 69.0Q146.5 73.5 148.25 78.75Q150.0 84.0 152.0 89.5L160.0 112.0L165.0 94.0Q167.5 85.5 171.0 76.25Q174.5 67.0 177.0 63.0Q179.5 59.5 181.75 56.0Q184.0 52.5 184.0 51.5ZM235.0 119.0V118.5Q234.5 108.0 229.5 108.0Q225.0 108.0 220.5 115.5Q215.0 123.5 215.0 125.5Q215.0 127.5 226.0 127.5Q235.0 127.5 235.5 122.5Q235.5 121.5 235.25 120.5Q235.0 119.5 235.0 119.0ZM263.0 69.5 273.0 49.0H249.5Q236.0 49.0 231.5 49.75Q227.0 50.5 227.0 53.0Q227.0 55.5 229.0 59.75Q231.0 64.0 233.0 65.0Q236.0 65.0 241.0 60.0Q245.0 55.5 247.5 55.5Q250.5 55.5 250.5 60.5Q250.5 63.0 249.5 66.75Q248.5 70.5 247.0 75.0Q244.0 81.5 244.0 90.0Q244.0 94.5 245.5 97.5Q247.0 102.0 248.0 102.0Q248.0 102.0 248.5 101.25Q249.0 100.5 249.5 99.0L250.5 97.0Q252.0 93.0 255.5 85.25Q259.0 77.5 263.0 69.5ZM332.0 163.0Q332.0 161.0 323.5 157.25Q315.0 153.5 303.0 149.75Q291.0 146.0 279.75 143.25Q268.5 140.5 263.0 140.5Q259.0 140.5 258.25 143.0Q257.5 145.5 257.5 152.5V165.0H294.0Q310.0 165.0 321.0 164.25Q332.0 163.5 332.0 163.0ZM306.5 61.5Q302.5 56.5 298.5 52.75Q294.5 49.0 292.0 49.0Q288.5 49.0 283.5 56.5Q278.5 64.0 274.0 74.5Q269.5 85.0 266.5 94.25Q263.5 103.5 263.5 107.5Q264.0 110.5 272.5 116.5Q281.0 122.5 292.5 129.25Q304.0 136.0 314.5 140.75Q325.0 145.5 329.5 145.5Q330.5 145.5 331.25 140.0Q332.0 134.5 332.0 126.5Q332.0 110.0 325.75 94.5Q319.5 79.0 306.5 61.5ZM421.5 171.0Q421.5 166.0 414.0 160.0Q406.5 154.0 402.0 154.0Q396.0 154.0 396.0 166.0Q396.0 168.0 395.75 173.5Q395.5 179.0 394.5 184.25Q393.5 189.5 392.0 191.0Q396.0 191.0 403.0 187.5Q410.0 184.0 415.75 179.25Q421.5 174.5 421.5 171.0ZM440.0 173.5 440.5 173.0Q440.5 173.0 439.75 172.75Q439.0 172.5 438.0 172.5Q434.5 172.5 434.5 173.5V174.0Q435.5 174.0 436.25 174.25Q437.0 174.5 437.5 174.5Q439.0 174.5 440.0 173.5ZM342.5 64.5 349.0 53.5H315.5L329.0 72.0Q334.0 78.0 334.5 78.0Q335.5 76.5 338.0 73.0Q340.5 69.5 342.5 64.5ZM455.5 27.5Q455.5 28.0 449.75 27.75Q444.0 27.5 435.5 27.0Q433.5 27.0 431.0 26.75Q428.5 26.5 426.0 26.5H397.5L404.0 42.0Q406.5 49.0 410.75 62.25Q415.0 75.5 418.5 87.0L425.0 112.5L429.5 92.5Q432.0 82.5 436.25 69.75Q440.5 57.0 445.0 48.5Q449.5 40.0 452.5 34.0Q455.5 28.0 455.5 27.5ZM379.5 16.0Q379.5 10.0 386.0 10.0Q388.5 10.0 394.5 11.5Q399.5 13.0 413.25 14.0Q427.0 15.0 441.5 15.0H455.0Q464.5 15.0 470.5 15.75Q476.5 16.5 476.5 17.5Q476.5 18.5 473.25 24.0Q470.0 29.5 464.5 38.0Q453.5 55.5 446.25 76.25Q439.0 97.0 436.5 125.0L433.5 156.0L451.0 163.0Q459.5 166.5 481.75 169.75Q504.0 173.0 539.5 175.0Q569.0 177.0 591.0 179.0Q613.0 181.0 614.0 181.5Q615.5 183.5 615.5 185.5Q615.5 188.0 610.5 189.25Q605.5 190.5 593.5 190.5Q584.0 190.5 569.75 190.0Q555.5 189.5 535.0 188.5Q513.0 187.5 490.5 186.75Q468.0 186.0 446.0 186.0L433.5 188.5L434.5 245.0L436.0 300.5L517.5 302.0Q554.5 302.5 577.25 304.5Q600.0 306.5 600.0 309.0Q600.0 312.0 577.5 314.0Q555.0 316.0 516.0 316.0H433.5L436.5 340.0Q437.0 344.5 437.25 348.75Q437.5 353.0 437.5 356.5Q437.5 368.0 434.0 370.0Q433.0 370.5 432.0 370.5Q427.0 370.5 427.0 350.5Q427.0 333.0 424.75 326.0Q422.5 319.0 413.25 317.5Q404.0 316.0 382.0 316.0H343.0V343.0Q343.0 355.5 341.5 364.0Q340.0 372.5 337.5 372.5Q335.0 372.5 333.5 363.75Q332.0 355.0 332.0 342.0V315.0L317.5 318.0Q295.5 322.0 274.5 330.0Q253.5 338.0 240.5 346.0Q229.5 354.0 224.5 354.0Q218.5 354.0 218.5 344.5Q218.5 342.0 219.25 338.5Q220.0 335.0 220.5 330.5L223.0 316.0H197.5Q182.5 316.0 177.25 316.75Q172.0 317.5 172.0 321.0Q172.0 330.0 166.5 330.0Q162.0 330.0 159.5 323.0Q159.5 322.5 158.0 322.5Q154.0 322.5 145.75 327.75Q137.5 333.0 130.5 340.0Q123.5 347.0 122.0 353.0Q121.0 357.5 117.5 360.75Q114.0 364.0 111.0 364.0Q105.0 364.0 105.0 359.5Q105.0 357.5 105.5 357.0Q106.5 355.5 107.5 339.25Q108.5 323.0 108.5 303.0Q109.0 281.0 110.0 265.75Q111.0 250.5 112.5 250.5Q113.5 250.5 120.0 255.5Q126.5 260.5 135.0 268.0Q143.0 274.5 149.5 279.25Q156.0 284.0 157.5 284.0Q158.5 284.0 159.25 274.0Q160.0 264.0 160.0 249.5Q160.0 245.5 159.75 241.0Q159.5 236.5 159.5 232.0L158.0 180.0L139.5 181.0Q127.0 182.0 108.25 187.25Q89.5 192.5 70.25 200.0Q51.0 207.5 37.0 216.5Q20.5 226.5 13.5 226.5Q11.5 226.5 10.5 225.5Q10.0 224.5 10.0 221.0Q10.0 213.0 13.0 201.0Q15.0 193.5 16.25 179.5Q17.5 165.5 17.5 153.0Q17.5 140.0 18.0 131.0Q18.5 122.0 20.5 122.0Q21.5 122.0 26.5 125.75Q31.5 129.5 37.0 135.0Q53.5 150.5 73.75 157.75Q94.0 165.0 124.5 165.0H160.0L157.5 153.5Q154.0 137.5 148.75 119.25Q143.5 101.0 138.5 85.25Q133.5 69.5 129.5 61.5L126.5 54.5Q124.5 49.0 122.75 45.25Q121.0 41.5 120.5 40.0Q120.0 37.5 131.0 36.75Q142.0 36.0 156.0 36.0Q172.0 36.0 187.25 36.75Q202.5 37.5 204.0 39.0V40.0Q204.0 41.5 200.25 49.5Q196.5 57.5 190.5 67.5Q184.0 77.5 180.5 85.25Q177.0 93.0 175.5 103.0Q174.0 113.0 173.0 129.0L170.5 165.0H193.0Q203.0 165.0 211.5 163.25Q220.0 161.5 222.5 159.5Q227.0 155.0 228.5 155.0Q230.5 155.0 232.0 160.0Q234.0 165.0 240.0 165.0Q245.0 165.0 245.0 156.5V153.0Q244.5 146.0 241.5 143.5Q238.5 141.0 230.0 140.5H225.5Q219.5 140.5 213.75 141.25Q208.0 142.0 205.0 144.0Q197.0 148.0 194.5 148.0Q191.0 148.0 191.0 144.0Q191.0 138.0 202.0 122.0Q214.5 104.5 219.5 95.5Q224.5 86.5 224.5 80.5Q224.5 77.5 223.5 74.75Q222.5 72.0 220.5 68.5Q219.5 66.0 218.0 62.75Q216.5 59.5 215.0 56.0Q213.5 52.5 212.25 49.5Q211.0 46.5 210.0 44.5Q209.5 42.0 209.25 40.0Q209.0 38.0 209.0 37.0Q209.0 32.5 212.5 32.5Q213.5 32.5 217.5 33.5Q220.5 34.0 238.0 35.25Q255.5 36.5 279.5 37.5Q284.5 38.0 289.5 38.0Q294.5 38.0 299.5 38.5Q328.5 40.0 350.0 41.5Q371.5 43.0 375.0 44.5Q374.5 46.5 370.75 52.0Q367.0 57.5 359.5 64.5Q351.5 72.5 348.0 77.75Q344.5 83.0 343.75 92.5Q343.0 102.0 343.0 123.5V165.0H359.0Q366.0 165.0 371.25 166.0Q376.5 167.0 376.5 169.0Q376.5 169.5 371.75 177.5Q367.0 185.5 360.0 195.5Q352.5 207.0 348.75 214.5Q345.0 222.0 344.0 231.5Q343.0 241.0 343.0 259.5V297.0L367.0 300.5Q377.0 301.5 389.25 302.5Q401.5 303.5 408.0 303.5H422.0V248.0Q422.0 225.0 421.25 208.25Q420.5 191.5 419.0 191.5Q418.0 191.5 412.25 195.0Q406.5 198.5 400.0 203.5Q393.5 207.0 388.0 210.0Q382.5 213.0 380.0 213.0Q379.0 213.0 378.0 211.5V212.0Q377.5 211.0 377.5 206.5Q377.5 203.5 378.0 199.25Q378.5 195.0 379.5 191.0Q381.5 183.5 382.75 172.5Q384.0 161.5 384.0 153.0Q384.0 144.0 385.25 138.0Q386.5 132.0 388.0 132.0Q390.0 132.0 395.0 134.5Q400.0 137.0 406.0 141.0L407.5 142.0Q417.5 148.0 422.0 149.0Q421.5 143.5 418.25 130.25Q415.0 117.0 410.25 100.5Q405.5 84.0 400.25 68.25Q395.0 52.5 390.5 41.0Q386.0 29.5 383.5 27.0H384.0Q382.0 25.0 380.75 21.5Q379.5 18.0 379.5 16.0Z" fill="black" /></svg>