<svg xmlns="http://www.w3.org/2000/svg" width="438.5" height="453.5" viewBox="0 0 438.5 453.5"><path d="M109.0 74.0 105.5 73.0H104.5Q103.5 72.0 102.0 71.0Q100.5 70.0 99.0 69.5Q92.5 67.0 84.0 63.25Q75.5 59.5 66.5 55.5L41.5 43.0V71.0Q41.5 86.5 42.25 92.0Q43.0 97.5 45.5 97.5Q46.5 97.5 48.0 97.25Q49.5 97.0 50.0 97.0Q53.0 95.0 64.25 90.5Q75.5 86.0 87.0 82.0Q109.0 76.0 109.0 74.0ZM76.0 164.5 87.5 142.5 98.0 120.0H79.0Q68.5 120.0 64.0 120.5Q59.5 121.0 59.5 125.0Q59.5 128.5 68.5 146.0ZM154.0 191.5Q146.5 190.5 137.5 186.5L134.0 185.5Q132.0 184.5 130.75 184.0Q129.5 183.5 128.0 183.5Q126.0 183.5 126.0 196.5Q126.0 209.0 129.0 209.0Q132.5 209.0 140.5 206.75Q148.5 204.5 155.5 201.5Q162.5 198.5 162.5 196.5Q162.5 195.5 160.0 194.25Q157.5 193.0 154.0 191.5ZM151.5 283.5 165.5 278.0 126.0 263.0V276.5Q126.0 283.5 126.75 286.75Q127.5 290.0 131.0 290.0Q134.5 290.0 139.25 288.25Q144.0 286.5 151.5 283.5ZM253.0 77.0Q253.0 76.0 248.75 75.5Q244.5 75.0 237.5 75.0Q231.0 75.0 226.25 75.0Q221.5 75.0 221.5 74.5Q221.5 75.0 223.25 80.5Q225.0 86.0 227.5 93.5Q228.5 95.5 229.75 98.0Q231.0 100.5 231.5 103.0L239.0 127.5L245.5 106.5Q248.5 96.0 250.75 87.5Q253.0 79.0 253.0 77.0ZM358.0 127.0 346.0 78.0 270.0 74.5Q268.5 79.5 267.0 84.0Q265.5 88.5 263.0 94.0Q260.0 102.0 256.5 118.75Q253.0 135.5 251.5 149.5L248.0 184.5H304.0Q332.5 184.5 347.25 186.75Q362.0 189.0 362.0 191.5Q362.0 198.5 307.0 201.0L253.0 201.5L249.5 268.5H372.0V223.0Q372.0 201.5 368.25 176.25Q364.5 151.0 358.0 127.0ZM270.0 57.5Q270.0 55.0 261.25 53.75Q252.5 52.5 240.0 52.5Q227.5 52.5 219.0 53.75Q210.5 55.0 210.5 57.5Q210.5 58.5 219.0 59.5Q227.5 60.5 240.0 60.5Q252.5 60.5 261.25 59.5Q270.0 58.5 270.0 57.5ZM403.5 30.5Q400.5 30.5 392.25 30.25Q384.0 30.0 373.0 30.0H340.5L346.0 44.5Q348.5 51.0 351.0 55.75Q353.5 60.5 355.5 60.5Q357.5 60.5 360.75 70.0Q364.0 79.5 365.5 93.5Q367.0 106.5 369.75 114.5Q372.5 122.5 374.5 122.5Q377.5 122.5 377.5 111.0Q377.5 105.5 381.5 92.0Q385.5 78.5 392.0 64.5Q401.5 38.5 403.5 30.5ZM74.5 388.0Q69.5 386.0 64.5 384.0Q59.5 382.0 55.0 380.5Q53.5 379.5 47.75 377.25Q42.0 375.0 36.5 372.75Q31.0 370.5 29.0 370.5Q25.5 370.5 24.5 375.25Q23.5 380.0 23.5 394.5Q23.5 419.5 29.5 419.5H30.0Q31.5 419.0 35.75 417.75Q40.0 416.5 46.5 414.5Q52.0 413.5 58.5 411.5Q65.0 409.5 71.5 407.5L103.0 398.5Q96.5 395.5 89.0 393.0Q81.5 390.5 74.5 388.0ZM320.5 12.5Q320.5 10.0 324.0 10.0Q327.0 10.0 332.0 12.0Q336.0 13.0 351.75 14.25Q367.5 15.5 386.0 15.5Q403.0 15.5 415.75 17.25Q428.5 19.0 428.5 21.5Q428.0 22.5 425.75 27.0Q423.5 31.5 420.0 38.5Q417.0 44.5 413.75 51.25Q410.5 58.0 407.0 65.5L387.5 105.0V268.5Q387.5 314.5 386.75 352.5Q386.0 390.5 385.0 413.0Q384.0 435.5 383.0 435.5Q380.5 435.5 379.0 431.75Q377.5 428.0 377.5 423.0Q377.5 413.0 375.25 408.0Q373.0 403.0 362.25 401.25Q351.5 399.5 325.5 399.5Q315.0 399.5 302.5 399.5Q290.0 399.5 274.5 400.0H261.5Q217.0 400.5 184.75 402.5Q152.5 404.5 128.25 408.5Q104.0 412.5 83.5 418.75Q63.0 425.0 42.0 434.0Q31.5 438.0 23.75 440.75Q16.0 443.5 13.0 443.5Q10.5 443.5 10.0 441.5Q10.0 439.0 10.25 428.5Q10.5 418.0 10.75 403.75Q11.0 389.5 11.5 376.0Q12.0 362.5 12.5 353.0Q13.0 343.5 13.5 343.0Q13.5 343.0 26.0 348.5Q38.5 354.0 55.0 362.5L94.5 382.5L194.5 386.0Q213.5 386.5 231.75 386.75Q250.0 387.0 267.5 387.0Q289.5 387.0 307.5 386.5Q325.5 386.0 334.5 384.5L372.0 380.5V283.5H249.5L253.0 324.0Q253.5 332.0 253.75 338.25Q254.0 344.5 254.0 349.5Q254.0 368.5 249.5 370.5V369.5Q248.5 371.0 247.0 371.0Q241.5 371.0 241.5 347.5Q241.5 337.5 240.75 324.75Q240.0 312.0 238.5 302.5Q236.5 292.5 233.75 288.0Q231.0 283.5 222.5 283.5Q215.0 283.5 203.5 286.5Q192.0 289.5 174.0 295.0Q169.0 296.5 164.75 297.5Q160.5 298.5 156.0 299.5Q141.5 304.5 132.75 307.0Q124.0 309.5 118.5 309.5Q113.5 309.5 111.75 306.5Q110.0 303.5 110.0 297.0Q110.0 294.5 110.25 291.75Q110.5 289.0 110.5 286.0Q110.5 283.5 110.75 281.0Q111.0 278.5 111.0 276.5Q111.5 262.0 113.75 251.5Q116.0 241.0 116.5 241.0Q117.5 241.0 125.5 244.5Q133.5 248.0 143.5 252.5Q152.5 257.5 170.0 262.25Q187.5 267.0 201.5 268.0L236.0 270.0V198.5L214.0 201.5Q193.5 205.0 173.0 211.5Q152.5 218.0 133.0 225.5Q123.5 228.0 122.0 229.5Q120.0 229.5 117.75 222.0Q115.5 214.5 114.0 203.75Q112.5 193.0 112.0 183.0Q113.0 177.5 113.5 172.75Q114.0 168.0 115.0 165.5Q116.5 161.5 121.0 161.5Q127.0 161.5 146.0 171.0Q159.0 177.5 176.5 181.25Q194.0 185.0 207.5 185.0Q220.0 185.0 228.0 182.75Q236.0 180.5 236.0 175.0Q236.0 170.5 232.75 158.5Q229.5 146.5 224.75 131.5Q220.0 116.5 215.25 103.75Q210.5 91.0 207.5 85.0Q205.0 80.0 200.5 77.5Q196.0 75.0 187.5 75.0Q170.5 75.0 127.5 87.0Q72.5 100.5 72.5 105.0Q72.5 104.0 79.5 104.0Q81.5 104.0 85.0 103.75Q88.5 103.5 92.0 103.0Q96.0 102.5 99.5 102.5Q103.0 102.5 106.0 102.5Q119.5 102.5 119.5 110.5Q119.5 116.0 110.0 130.5Q97.5 147.5 92.0 174.0Q86.5 200.5 86.5 247.0Q86.5 255.0 86.5 263.75Q86.5 272.5 87.0 282.5Q87.5 295.0 88.0 307.0Q88.5 319.0 88.5 329.5Q88.5 347.0 87.25 357.5Q86.0 368.0 84.0 368.0Q79.5 368.0 78.0 355.5Q75.5 304.5 73.5 271.0Q71.5 237.5 69.25 216.5Q67.0 195.5 63.5 181.5Q60.0 167.5 55.0 155.0Q50.0 141.0 44.0 132.0Q38.0 123.0 34.0 123.0Q29.5 123.0 28.0 118.5Q26.5 114.0 26.5 101.0Q26.5 95.5 26.75 83.5Q27.0 71.5 27.75 58.0Q28.5 44.5 29.25 34.0Q30.0 23.5 31.5 21.0H32.5Q33.5 21.0 39.0 24.0Q44.5 27.0 51.0 32.5Q72.0 46.5 97.5 53.5Q123.0 60.5 155.5 60.5Q177.5 60.5 186.25 59.25Q195.0 58.0 195.0 55.5Q195.0 54.5 194.0 52.0Q193.0 49.5 190.5 47.5Q186.0 43.0 186.0 41.0Q186.0 38.5 190.0 37.5Q193.0 37.5 204.25 37.75Q215.5 38.0 230.0 38.25Q244.5 38.5 258.75 39.0Q273.0 39.5 283.0 40.0Q293.0 40.5 294.5 41.5V43.0Q294.5 45.5 293.0 48.25Q291.5 51.0 289.0 54.5Q288.0 56.5 287.0 57.25Q286.0 58.0 286.0 59.0Q286.0 59.5 291.5 60.0Q297.0 60.5 310.5 60.5Q322.0 60.5 329.75 60.0Q337.5 59.5 337.5 59.0Q337.5 59.0 336.5 56.0Q335.5 53.0 334.5 49.5Q331.0 43.0 329.5 36.5Q326.0 28.0 323.25 20.5Q320.5 13.0 320.5 12.5Z" fill="black" /></svg>