<svg xmlns="http://www.w3.org/2000/svg" width="430.5" height="343.0" viewBox="0 0 430.5 343.0"><path d="M49.0 264.0Q45.5 262.0 42.0 260.5Q32.0 255.5 31.0 255.5Q30.0 255.5 28.75 265.25Q27.5 275.0 26.75 287.0Q26.0 299.0 26.0 307.0V313.0Q30.0 313.0 38.75 310.0Q47.5 307.0 59.0 303.5Q72.0 299.5 86.5 295.25Q101.0 291.0 108.0 289.5L119.5 287.0L95.0 281.0Q82.5 277.5 69.25 272.5Q56.0 267.5 49.0 264.0ZM207.5 27.0Q207.5 26.0 197.25 25.25Q187.0 24.5 173.0 24.5Q159.5 24.5 150.25 25.0Q141.0 25.5 140.0 26.5Q141.0 28.5 146.25 38.75Q151.5 49.0 157.5 61.0L172.0 91.0L179.5 70.5Q183.0 61.0 188.5 52.25Q194.0 43.5 197.5 40.0Q201.5 36.0 204.5 32.25Q207.5 28.5 207.5 27.0ZM114.0 12.5V11.5H114.5Q115.0 10.5 121.25 10.25Q127.5 10.0 136.0 10.0Q149.0 10.0 165.25 10.5Q181.5 11.0 196.75 11.5Q212.0 12.0 222.25 12.75Q232.5 13.5 233.5 14.5V15.5Q233.5 17.5 228.25 24.0Q223.0 30.5 214.5 39.0Q206.5 47.5 198.75 59.25Q191.0 71.0 189.5 78.5Q187.5 85.0 186.25 105.25Q185.0 125.5 185.0 155.0Q185.0 162.5 185.25 170.0Q185.5 177.5 185.5 186.0L187.0 275.5L303.0 277.0Q357.0 277.5 388.75 279.5Q420.5 281.5 420.5 284.0Q420.5 287.0 386.25 288.75Q352.0 290.5 292.0 290.5Q240.5 290.5 204.5 291.75Q168.5 293.0 141.75 296.5Q115.0 300.0 92.0 306.5Q69.0 313.0 43.0 323.5Q32.0 328.0 23.25 330.5Q14.5 333.0 12.0 333.0H11.0Q10.0 331.0 10.0 328.5Q10.0 320.5 13.0 307.0Q15.5 294.5 15.5 276.0Q15.5 272.0 15.5 267.75Q15.5 263.5 15.0 260.0Q14.5 256.0 14.25 252.25Q14.0 248.5 14.0 245.0Q14.0 232.5 17.0 232.5Q19.5 232.5 26.5 236.0Q33.5 239.5 41.0 245.0Q75.0 268.0 142.0 275.5L173.5 278.5L171.5 195.5Q171.0 165.5 170.0 147.75Q169.0 130.0 167.5 119.25Q166.0 108.5 163.0 100.25Q160.0 92.0 155.0 81.5Q149.5 69.5 141.0 55.5Q132.5 41.5 127.0 33.5Q121.5 26.5 117.75 20.5Q114.0 14.5 114.0 12.5Z" fill="black" /></svg>