<svg xmlns="http://www.w3.org/2000/svg" width="734.0" height="443.5" viewBox="0 0 734.0 443.5"><path d="M39.5 308.5H40.0Q35.5 304.0 31.0 299.25Q26.5 294.5 26.5 294.5Q27.5 299.0 27.5 306.0Q27.5 313.0 27.5 321.0V334.5L26.5 366.5L34.0 361.5V362.5Q39.5 358.0 48.75 351.25Q58.0 344.5 64.0 340.0L69.0 338.0Q74.0 335.0 76.25 333.5Q78.5 332.0 78.5 332.0Q78.5 332.0 76.25 330.75Q74.0 329.5 69.0 327.5L65.5 327.0Q59.0 324.0 51.5 318.5Q44.0 313.0 39.5 308.5ZM307.0 306.0H307.5Q303.0 302.0 299.0 298.25Q295.0 294.5 294.5 294.5Q293.5 294.5 289.75 304.0Q286.0 313.5 281.5 327.5L271.0 358.0L282.5 356.0H281.5Q287.0 353.5 298.0 352.25Q309.0 351.0 320.5 350.5L326.0 349.5Q329.0 349.0 335.75 348.5Q342.5 348.0 348.0 347.75Q353.5 347.5 353.5 347.5L353.0 338.0Q352.5 337.0 347.25 333.75Q342.0 330.5 338.0 328.5Q330.5 324.5 321.5 317.75Q312.5 311.0 307.0 306.0ZM369.5 345.0V347.5H373.0ZM53.0 105.5Q45.0 100.0 38.75 95.0Q32.5 90.0 32.5 90.0Q32.0 94.5 31.0 103.75Q30.0 113.0 30.0 123.0V154.5L91.5 122.0Q89.5 121.0 87.0 120.5Q84.5 120.0 82.0 119.5Q78.5 119.5 70.0 115.75Q61.5 112.0 53.0 105.5ZM74.5 219.0 84.0 240.5Q87.5 231.0 89.5 224.0Q92.0 216.5 94.5 209.5Q97.0 202.5 104.0 192.5L80.5 194.5H74.5Q70.0 194.5 64.0 193.75Q58.0 193.0 58.0 193.0Q59.5 195.0 60.75 196.5Q62.0 198.0 63.5 198.5ZM378.5 180.0 384.5 172.5H324.5L337.0 193.0Q346.5 209.0 351.25 219.25Q356.0 229.5 356.0 229.5Q357.0 225.5 358.0 219.75Q359.0 214.0 361.0 211.5Q363.5 203.0 368.5 194.0Q373.5 185.0 378.5 180.0ZM371.5 92.0 350.5 86.5H349.5Q336.0 80.0 321.75 74.0Q307.5 68.0 294.5 61.5Q295.0 61.5 295.25 69.0Q295.5 76.5 295.75 84.25Q296.0 92.0 296.0 93.5Q296.5 107.5 297.5 118.75Q298.5 130.0 298.5 130.0Q302.5 127.5 309.25 122.75Q316.0 118.0 321.0 114.5Q323.5 113.0 331.5 109.5Q339.5 106.0 348.75 101.75Q358.0 97.5 364.75 94.75Q371.5 92.0 371.5 92.0ZM695.0 35.0H661.5Q647.5 35.0 642.0 34.75Q636.5 34.5 626.5 34.0Q624.0 32.5 616.25 30.5Q608.5 28.5 608.5 28.5Q611.5 33.5 615.25 41.75Q619.0 50.0 621.0 55.5Q621.0 56.0 621.75 57.0Q622.5 58.0 623.0 59.5Q625.0 63.0 625.5 66.5Q631.0 67.0 634.25 69.25Q637.5 71.5 637.5 74.0Q637.5 76.5 636.25 78.25Q635.0 80.0 630.5 81.0L637.5 102.0Q641.5 116.0 645.25 126.25Q649.0 136.5 649.0 136.5Q650.0 133.5 651.25 128.5Q652.5 123.5 654.5 118.0L656.0 110.5Q660.0 100.0 664.75 86.25Q669.5 72.5 676.0 63.0ZM38.0 182.0Q38.0 179.0 51.25 177.25Q64.5 175.5 84.5 175.5Q131.5 175.5 131.5 183.5Q131.5 186.5 128.25 190.0Q125.0 193.5 121.0 195.5Q113.5 198.0 107.5 210.25Q101.5 222.5 98.0 240.0Q94.5 257.5 94.5 277.0V318.0L109.0 318.5Q131.0 318.5 151.75 318.0Q172.5 317.5 194.0 316.5Q205.5 316.0 214.75 316.0Q224.0 316.0 232.0 316.0Q263.5 316.0 263.5 323.0Q263.5 332.0 207.5 332.5Q173.5 333.0 154.0 333.75Q134.5 334.5 124.0 335.5Q113.5 336.5 105.5 338.5L94.5 342.0V375.0Q94.5 388.0 92.0 395.0Q89.5 402.0 87.0 402.0Q85.0 402.0 82.5 393.5Q80.0 385.0 80.0 373.5V347.5Q69.0 355.5 58.25 363.5Q47.5 371.5 37.0 380.0Q31.5 384.0 27.25 387.75Q23.0 391.5 21.0 392.5V391.5Q16.0 395.0 16.0 395.0Q10.0 395.0 10.0 380.5Q10.0 377.5 10.25 372.0Q10.5 366.5 11.0 360.0Q12.0 344.0 12.0 328.75Q12.0 313.5 12.0 298.0Q12.0 292.5 11.5 287.75Q11.0 283.0 11.0 279.5Q11.0 266.0 14.0 266.0Q16.5 266.0 23.75 269.75Q31.0 273.5 37.0 281.5Q42.5 289.0 51.5 296.5Q60.5 304.0 67.0 307.5L80.0 314.5V290.5Q80.0 270.0 71.75 247.0Q63.5 224.0 48.0 203.0Q38.0 189.0 38.0 182.0ZM588.5 15.0Q588.5 10.0 593.5 10.0Q597.5 10.0 599.5 11.0Q603.5 13.0 622.75 14.75Q642.0 16.5 665.5 18.5Q689.0 19.0 706.5 21.75Q724.0 24.5 724.0 25.5Q724.0 29.0 717.0 34.0Q715.0 34.5 713.75 36.0Q712.5 37.5 711.0 39.0Q702.5 45.0 694.5 58.0Q686.5 71.0 679.5 86.75Q672.5 102.5 668.25 117.25Q664.0 132.0 663.0 142.0Q661.0 159.0 660.75 175.25Q660.5 191.5 660.5 207.5V283.0Q660.0 295.0 660.0 305.5Q660.0 316.0 660.0 327.5Q660.0 340.0 660.25 351.75Q660.5 363.5 660.5 375.0V419.5Q660.0 433.5 654.5 433.5Q649.5 433.5 646.5 417.0V407.5L566.0 391.5Q537.5 385.5 514.0 382.0Q460.5 371.0 431.25 366.25Q402.0 361.5 389.0 361.5H382.5Q379.0 362.0 374.25 362.25Q369.5 362.5 369.5 362.5V395.0Q369.5 409.5 367.25 417.25Q365.0 425.0 362.0 426.0Q359.5 425.0 357.5 417.0Q355.5 409.0 355.5 393.5Q355.5 378.5 354.5 371.0Q353.5 363.5 353.5 363.5Q353.5 363.5 348.75 363.75Q344.0 364.0 338.5 364.0H335.5Q327.5 365.5 314.25 367.0Q301.0 368.5 288.0 371.0Q274.0 374.0 263.0 375.25Q252.0 376.5 250.0 376.5V373.5Q250.0 371.0 252.75 363.75Q255.5 356.5 259.5 347.5Q263.5 338.5 268.5 322.75Q273.5 307.0 276.0 294.5Q278.0 281.5 281.25 271.75Q284.5 262.0 285.5 262.0Q285.5 262.0 295.0 271.0Q304.5 280.0 316.5 292.0L353.0 319.5V318.5Q353.0 316.0 353.0 307.5Q353.0 299.0 353.0 288.5Q353.0 278.0 352.75 269.5Q352.5 261.0 352.0 259.5Q352.0 259.0 348.0 250.0Q344.0 241.0 337.75 227.75Q331.5 214.5 324.25 201.0Q317.0 187.5 310.5 178.5Q301.0 166.5 300.0 159.5Q300.5 158.5 301.0 157.5Q301.5 156.5 302.0 156.0Q306.0 156.0 317.75 156.25Q329.5 156.5 345.0 156.75Q360.5 157.0 375.25 157.75Q390.0 158.5 400.25 159.5Q410.5 160.5 411.5 161.5L412.0 163.0Q412.0 168.5 404.5 172.5Q400.5 174.5 394.0 183.0Q387.5 191.5 382.5 201.0Q377.5 210.0 374.25 216.75Q371.0 223.5 369.75 233.25Q368.5 243.0 368.5 260.5V275.5L369.5 328.5Q372.0 329.5 380.0 332.5Q388.0 335.5 390.0 336.5Q393.5 337.5 409.25 341.0Q425.0 344.5 448.0 349.5Q471.0 354.5 497.25 360.0Q523.5 365.5 549.25 371.0Q575.0 376.5 596.0 380.75Q617.0 385.0 628.5 387.0L646.5 391.0L645.5 281.0Q645.0 244.0 644.0 220.0Q643.0 196.0 641.5 180.0Q640.0 164.0 637.25 151.25Q634.5 138.5 630.0 124.5L618.5 82.5H588.0L572.0 83.0Q555.5 83.5 532.25 85.25Q509.0 87.0 486.0 88.0Q450.0 90.0 422.25 95.0Q394.5 100.0 369.75 109.75Q345.0 119.5 317.0 136.0Q311.0 139.0 307.0 141.75Q303.0 144.5 300.0 146.0Q294.5 149.5 293.5 149.5Q292.0 149.5 288.0 146.0Q284.0 142.5 284.0 136.0V124.5H208.5Q174.0 124.5 151.25 126.0Q128.5 127.5 112.25 131.5Q96.0 135.5 81.5 143.0Q67.0 150.5 49.0 162.0Q38.5 168.5 29.5 173.25Q20.5 178.0 19.5 178.0Q17.5 178.0 16.75 167.0Q16.0 156.0 16.0 140.0Q16.0 124.0 16.5 106.5Q17.0 89.0 17.75 76.0Q18.5 63.0 19.5 62.0H21.0Q23.0 62.0 30.0 66.5Q37.0 71.0 45.0 79.5Q58.0 91.0 70.25 97.25Q82.5 103.5 101.75 105.5Q121.0 107.5 155.0 107.5H195.5L284.0 107.0L281.5 72.0V61.5Q281.5 34.0 289.0 34.0Q293.0 34.0 298.0 41.5Q299.5 44.5 307.75 49.5Q316.0 54.5 327.0 59.5Q338.0 64.5 349.25 68.5Q360.5 72.5 368.0 74.0Q370.5 75.0 376.75 75.25Q383.0 75.5 390.0 75.5Q409.5 75.5 437.5 74.5Q465.5 73.5 495.75 71.75Q526.0 70.0 551.0 68.5L610.0 66.5Q609.0 62.0 604.75 54.0Q600.5 46.0 598.0 42.5Q594.0 33.0 591.25 25.25Q588.5 17.5 588.5 15.0Z" fill="black" /></svg>