<svg xmlns="http://www.w3.org/2000/svg" width="238.5" height="368.5" viewBox="0 0 238.5 368.5"><path d="M190.5 145.5Q188.0 145.5 180.75 145.25Q173.5 145.0 163.5 144.5L138.5 143.5L146.0 153.5Q150.0 158.5 154.75 167.5Q159.5 176.5 161.5 183.5L165.5 198.0Q168.5 191.5 171.5 185.5Q174.5 179.5 178.0 173.5L181.5 166.5Q187.5 151.5 190.5 145.5ZM91.0 28.0H90.0Q88.0 28.5 81.5 29.0Q75.0 29.5 67.5 29.5Q58.5 29.5 49.5 28.0Q44.5 27.5 40.25 27.0Q36.0 26.5 33.0 26.5Q32.5 26.5 31.75 26.5Q31.0 26.5 30.5 26.5Q31.0 26.5 31.5 28.0Q40.5 45.5 47.25 63.25Q54.0 81.0 60.5 100.0Q61.0 100.5 61.0 101.0Q61.0 101.5 61.0 101.5Q61.0 101.5 61.0 100.5Q61.0 99.5 61.5 97.5Q62.5 94.5 63.25 89.75Q64.0 85.0 66.0 78.5Q68.5 68.5 72.25 58.25Q76.0 48.0 78.5 43.5V44.0Q80.5 40.0 83.0 36.25Q85.5 32.5 87.5 29.5Q88.5 28.5 88.75 28.25Q89.0 28.0 91.0 28.0ZM170.0 54.5 182.0 39.5 198.0 25.0H131.5L138.5 29.0Q145.5 33.0 152.0 39.5Q158.5 46.0 161.5 50.0Q163.5 53.0 165.0 56.75Q166.5 60.5 166.5 60.5Q167.5 59.0 168.5 57.25Q169.5 55.5 170.0 54.5ZM135.0 13.5Q152.0 12.5 167.5 12.0Q183.0 11.5 194.0 11.0Q203.5 10.5 209.5 10.25Q215.5 10.0 217.5 10.0H219.5Q228.5 10.0 228.5 15.5Q228.5 20.0 220.0 23.5Q213.0 25.5 202.0 35.0Q191.0 44.5 179.5 59.0Q174.5 64.5 171.25 72.0Q168.0 79.5 168.0 79.5Q167.5 81.0 167.0 88.5Q166.5 96.0 166.5 104.0V132.5H187.5Q197.5 132.5 204.25 133.5Q211.0 134.5 211.0 136.5Q211.0 138.0 207.75 143.5Q204.5 149.0 200.0 156.0Q190.5 170.0 181.5 189.25Q172.5 208.5 168.5 226.0Q168.5 227.0 168.0 235.75Q167.5 244.5 167.0 257.25Q166.5 270.0 166.5 282.5Q166.5 358.5 162.5 358.5Q158.0 358.5 156.5 281.5Q156.0 247.5 154.75 227.0Q153.5 206.5 151.25 194.5Q149.0 182.5 144.5 174.0Q141.5 169.0 137.75 163.25Q134.0 157.5 128.5 151.5Q117.5 139.5 117.5 135.0Q117.5 130.0 125.5 130.0Q128.0 130.0 130.75 130.25Q133.5 130.5 137.0 131.0L156.5 134.0V98.5Q156.5 77.5 154.25 66.0Q152.0 54.5 145.0 47.5Q138.0 40.5 124.0 34.0L107.0 25.0L97.5 35.0H98.0Q94.5 40.0 89.5 50.0Q84.5 60.0 80.5 70.0Q77.5 78.5 75.25 87.0Q73.0 95.5 71.75 110.5Q70.5 125.5 70.0 152.0Q69.5 178.5 69.5 223.0Q69.5 281.5 68.5 314.75Q67.5 348.0 65.5 348.0H65.0Q63.5 346.0 62.25 333.0Q61.0 320.0 60.25 301.0Q59.5 282.0 59.0 262.0Q58.5 242.0 58.25 225.5Q58.0 209.0 58.0 201.0Q58.0 174.5 57.25 155.0Q56.5 135.5 53.5 118.5Q50.5 101.5 43.5 83.0Q36.5 64.5 24.0 40.5L10.0 13.0L37.0 15.0Q40.5 15.5 46.25 15.5Q52.0 15.5 60.0 15.5Q74.5 15.5 94.75 15.0Q115.0 14.5 135.0 13.5Z" fill="black" /></svg>