<svg xmlns="http://www.w3.org/2000/svg" width="939.0" height="462.0" viewBox="0 0 939.0 462.0"><path d="M68.5 271.5Q65.0 269.5 58.5 263.75Q52.0 258.0 45.5 252.0L32.0 239.0L30.0 253.0Q28.5 259.5 27.5 270.75Q26.5 282.0 26.5 291.5V311.0L51.5 293.0Q63.0 284.5 67.75 280.25Q72.5 276.0 72.5 274.5Q72.5 273.0 68.5 271.5ZM254.5 257.0 251.0 255.0Q246.0 252.5 243.0 251.0Q240.0 249.5 238.5 249.5Q236.5 249.5 236.5 258.5V263.5Q236.5 283.0 243.0 283.0Q245.5 283.0 252.0 279.75Q258.5 276.5 264.5 272.75Q270.5 269.0 270.5 267.5Q270.5 265.0 266.25 262.75Q262.0 260.5 254.5 257.0ZM249.0 112.5Q245.5 111.5 242.25 109.5Q239.0 107.5 236.5 106.5Q234.0 104.0 232.0 103.0Q230.0 102.0 230.0 102.0V102.5Q230.0 104.5 230.0 109.0Q230.0 113.5 230.5 119.0V126.5Q232.0 136.0 233.5 142.5Q235.0 149.0 236.5 150.0Q240.5 149.5 248.75 144.25Q257.0 139.0 264.0 133.0Q271.0 127.0 271.0 124.5Q268.0 123.5 263.5 120.5Q257.0 118.0 249.0 112.5ZM275.5 202.5 260.5 195.5Q254.0 191.5 247.75 189.0Q241.5 186.5 239.0 185.5V191.0Q239.0 198.5 240.25 208.5Q241.5 218.5 243.5 222.5Q244.5 221.5 249.75 218.5Q255.0 215.5 260.5 212.0ZM509.5 195.0Q502.5 191.0 496.25 188.25Q490.0 185.5 487.5 185.5Q485.5 185.5 484.5 195.5Q483.5 205.5 483.5 223.0Q483.5 238.5 484.0 249.5Q484.5 260.5 485.0 260.5Q487.0 260.5 492.25 257.0Q497.5 253.5 504.0 249.5Q510.0 245.0 521.75 239.0Q533.5 233.0 543.0 228.5Q552.5 225.0 559.25 221.75Q566.0 218.5 567.0 217.0Q566.0 215.5 560.25 213.25Q554.5 211.0 547.5 208.0H548.0Q539.0 206.0 527.75 202.25Q516.5 198.5 509.5 195.0ZM475.0 33.0H444.0Q430.0 33.0 417.5 32.25Q405.0 31.5 401.0 30.0Q399.0 28.5 396.5 28.5Q392.0 28.5 392.0 33.0Q392.0 38.0 399.0 46.5Q403.0 51.5 409.5 62.0Q416.0 72.5 420.5 82.5L431.0 103.0L440.5 82.5Q443.5 72.5 451.0 61.75Q458.5 51.0 464.0 44.5ZM888.5 54.5H853.0Q838.0 54.5 823.0 53.5Q808.0 52.5 803.0 51.0Q801.0 50.5 797.5 50.5Q793.0 50.5 793.0 54.0Q793.0 61.0 803.5 73.0Q807.5 79.0 814.0 91.75Q820.5 104.5 824.5 117.0Q828.5 128.0 833.25 136.25Q838.0 144.5 839.0 144.5Q840.0 144.5 842.25 138.0Q844.5 131.5 847.0 123.0Q850.0 114.0 856.75 99.5Q863.5 85.0 871.5 75.0ZM236.5 360.0Q215.5 354.5 199.75 351.25Q184.0 348.0 183.0 348.0Q182.5 348.0 181.5 359.75Q180.5 371.5 180.5 387.5L180.0 425.5L226.0 411.0Q239.5 407.0 255.75 403.0Q272.0 399.0 288.0 395.5Q304.0 392.0 315.5 390.5Q347.5 386.0 347.5 384.0Q347.5 380.5 315.5 377.0Q308.0 376.0 294.5 373.5Q281.0 371.0 265.75 367.25Q250.5 363.5 236.5 360.0ZM18.0 255.0Q19.0 231.0 21.5 214.0Q24.0 197.0 26.0 197.0Q26.5 197.5 31.0 204.0Q35.5 210.5 40.0 220.5Q46.5 234.0 53.0 242.25Q59.5 250.5 70.25 254.75Q81.0 259.0 99.75 261.0Q118.5 263.0 149.5 264.5Q182.0 265.5 196.5 267.25Q211.0 269.0 211.5 271.5Q211.5 274.0 205.25 275.5Q199.0 277.0 190.25 277.75Q181.5 278.5 174.0 278.75Q166.5 279.0 164.5 279.0Q160.5 279.0 155.5 279.0Q150.5 279.0 146.5 278.5Q141.0 277.5 135.75 277.0Q130.5 276.5 125.5 276.5Q109.5 276.5 97.25 280.5Q85.0 284.5 73.0 293.25Q61.0 302.0 45.0 317.0Q32.5 329.5 25.0 335.25Q17.5 341.0 14.0 341.0Q10.0 341.0 10.0 335.5Q10.0 333.0 10.25 330.75Q10.5 328.5 11.0 325.5Q12.5 319.5 14.5 299.0Q16.5 278.5 18.0 255.0ZM364.0 14.0V12.0H364.5Q367.5 10.0 370.0 10.0Q372.0 10.0 373.5 10.5Q375.0 11.0 376.5 11.5Q380.0 13.5 400.5 15.0Q421.0 16.5 447.0 18.0L512.0 20.0L485.0 44.5Q471.5 56.5 463.25 66.0Q455.0 75.5 450.75 88.0Q446.5 100.5 445.25 120.5Q444.0 140.5 444.0 173.5V205.5Q444.0 236.5 443.5 261.75Q443.0 287.0 442.0 301.75Q441.0 316.5 439.0 316.5Q437.0 316.5 435.25 298.5Q433.5 280.5 433.0 255.0Q432.5 213.5 432.0 189.0Q431.5 164.5 430.75 152.0Q430.0 139.5 429.0 134.75Q428.0 130.0 426.5 128.5Q425.5 125.0 410.5 123.75Q395.5 122.5 368.0 122.5Q348.0 122.5 335.75 123.0Q323.5 123.5 315.0 124.75Q306.5 126.0 299.25 129.0Q292.0 132.0 282.5 137.5Q249.0 154.5 248.0 165.0Q248.5 170.5 256.5 178.5Q262.5 183.5 270.75 185.25Q279.0 187.0 300.5 187.0Q308.5 187.0 319.5 187.0Q330.5 187.0 344.0 186.5H375.0Q395.5 186.5 408.0 187.0Q420.5 187.5 420.5 189.0Q420.5 192.5 409.75 195.25Q399.0 198.0 381.75 199.5Q364.5 201.0 345.0 201.0Q325.0 201.0 312.25 203.75Q299.5 206.5 283.5 215.5Q254.0 229.5 254.0 238.0Q254.0 250.5 332.0 250.5H339.0Q365.5 249.5 386.25 248.75Q407.0 248.0 408.0 247.5V248.0Q409.0 247.0 410.0 247.0Q411.0 247.0 411.5 247.0Q415.0 247.0 416.5 249.5Q418.0 251.5 418.0 253.0Q418.0 264.0 354.0 264.0Q331.0 264.0 313.75 267.25Q296.5 270.5 281.5 277.5Q266.5 284.5 250.0 297.0L232.0 311.5L225.0 267.0Q222.0 242.0 222.0 231.5Q222.0 221.0 225.0 218.0Q228.0 215.5 228.0 207.5Q228.0 205.0 227.75 202.5Q227.5 200.0 227.0 196.5Q225.5 188.0 224.25 175.75Q223.0 163.5 222.5 154.5L221.0 145.0Q220.0 135.5 218.75 123.25Q217.5 111.0 216.0 100.0L212.0 62.5L234.5 83.0Q245.5 94.0 254.75 100.5Q264.0 107.0 276.0 109.5Q288.0 112.0 306.5 112.0Q315.5 112.0 326.0 111.75Q336.5 111.5 349.5 111.0Q376.0 109.0 389.5 108.0Q403.0 107.0 407.75 105.25Q412.5 103.5 412.5 100.5Q412.5 93.5 402.0 75.25Q391.5 57.0 375.5 37.0Q364.0 21.5 364.0 14.0ZM784.5 67.0 761.5 33.0 792.5 36.0Q800.0 37.0 813.5 38.0Q827.0 39.0 842.5 39.5Q858.0 40.0 872.0 40.0H929.0L900.5 63.5Q891.0 72.5 880.5 86.25Q870.0 100.0 865.0 110.5Q860.5 118.5 858.25 126.25Q856.0 134.0 854.75 148.0Q853.5 162.0 853.0 187.5Q852.5 213.0 852.0 256.5Q852.0 271.0 851.75 284.25Q851.5 297.5 851.5 309.5Q851.5 343.5 852.25 362.25Q853.0 381.0 855.0 383.5Q857.5 386.0 857.5 390.5Q857.5 394.5 855.0 401.0V400.5Q851.0 409.0 848.5 409.0Q845.0 409.0 843.0 405.0Q842.0 403.0 820.75 401.75Q799.5 400.5 764.25 399.5Q729.0 398.5 684.75 398.0Q640.5 397.5 593.0 397.5Q545.5 397.5 498.75 398.0Q452.0 398.5 411.75 399.5Q371.5 400.5 343.0 402.0Q314.5 403.5 303.5 405.5Q281.5 409.0 256.25 416.25Q231.0 423.5 210.0 431.25Q189.0 439.0 179.5 445.5Q168.0 452.0 165.0 452.0Q165.0 452.0 164.75 452.0Q164.5 452.0 164.5 451.5V452.0Q163.5 451.0 163.5 446.5Q163.5 442.0 164.5 432.75Q165.5 423.5 167.0 413.0Q169.0 403.0 169.5 394.5Q170.0 386.0 170.0 379.0Q170.0 371.5 169.5 365.5Q169.0 359.5 167.5 353.5Q166.5 346.5 165.75 341.5Q165.0 336.5 165.0 333.0Q165.0 328.5 166.5 328.5Q167.5 328.5 173.0 330.0Q178.5 331.5 187.5 334.0Q225.5 344.5 264.75 352.75Q304.0 361.0 343.0 367.5Q365.0 371.0 383.0 373.25Q401.0 375.5 421.0 377.0Q441.0 378.5 468.25 379.5Q495.5 380.5 535.0 381.0Q574.5 381.5 632.0 382.5L840.5 384.0L838.0 304.0Q837.5 273.0 837.0 250.0Q836.5 227.0 836.0 223.5H833.5Q827.0 223.5 808.5 224.0Q790.0 224.5 763.0 225.25Q736.0 226.0 704.5 227.0Q660.5 228.5 630.25 230.25Q600.0 232.0 580.25 234.75Q560.5 237.5 547.0 241.75Q533.5 246.0 523.0 252.75Q512.5 259.5 501.0 269.5Q491.5 277.5 484.0 283.5Q476.5 289.5 474.0 289.5H473.0Q472.0 288.0 471.0 273.0Q470.0 258.0 469.5 237.75Q469.0 217.5 469.0 199.5Q469.0 183.5 470.0 172.0Q471.0 160.5 472.5 160.5Q473.5 160.5 482.25 164.75Q491.0 169.0 500.5 174.5Q510.5 180.0 529.25 187.5Q548.0 195.0 565.0 200.5Q576.5 204.5 585.75 206.75Q595.0 209.0 605.75 210.25Q616.5 211.5 632.25 212.0Q648.0 212.5 672.0 212.5H722.5L837.5 212.0V199.0Q837.5 190.5 832.5 174.0Q827.5 157.5 819.5 137.75Q811.5 118.0 802.25 99.0Q793.0 80.0 784.5 67.0Z" fill="black" /></svg>