<svg xmlns="http://www.w3.org/2000/svg" width="641.5" height="385.0" viewBox="0 0 641.5 385.0"><path d="M42.0 318.0H41.5Q47.5 311.0 47.5 308.5Q47.5 306.5 43.0 300.5Q38.5 294.0 37.5 294.0Q36.5 294.0 34.5 307.5Q32.0 318.5 32.0 322.5Q32.0 325.0 33.0 325.0Q35.0 325.0 42.0 318.0ZM47.0 183.5Q49.5 183.5 51.25 179.25Q53.0 175.0 53.0 173.0Q53.0 168.0 51.0 166.0Q50.5 164.5 49.0 164.5Q47.0 164.5 45.75 170.0Q44.5 175.5 44.5 178.0Q44.5 183.5 47.0 183.5ZM59.0 240.0Q59.0 238.5 56.75 235.75Q54.5 233.0 52.0 230.5Q48.5 228.0 48.0 228.0Q46.5 228.0 46.5 236.0Q46.5 246.0 49.5 246.0Q50.0 246.0 52.0 245.0Q59.0 242.5 59.0 240.0ZM178.0 189.5V189.0Q177.5 188.5 165.25 187.5Q153.0 186.5 135.5 185.0L125.0 184.0Q114.0 183.5 105.5 183.25Q97.0 183.0 90.5 183.0Q78.0 183.0 72.0 184.25Q66.0 185.5 62.0 189.5Q51.5 195.5 51.5 202.5Q51.5 208.5 63.5 223.0Q69.5 230.5 74.25 233.75Q79.0 237.0 89.25 237.75Q99.5 238.5 122.0 238.5H167.5L173.0 214.0Q178.0 196.5 178.0 189.5ZM163.5 257.5Q163.5 253.5 154.5 252.25Q145.5 251.0 119.5 250.0H88.5Q73.0 250.0 67.0 251.75Q61.0 253.5 54.5 259.0Q46.5 267.0 46.5 275.5Q46.5 287.0 58.5 297.5Q64.0 301.5 70.5 303.75Q77.0 306.0 90.0 306.75Q103.0 307.5 128.0 307.5H183.5V277.5Q183.0 253.0 181.0 253.0Q180.5 253.0 178.0 256.0Q171.5 265.5 167.5 265.5Q163.5 265.5 163.5 257.5ZM403.5 287.5 398.5 286.5Q394.5 285.5 390.25 284.5Q386.0 283.5 384.0 283.0Q382.0 282.0 380.5 282.0Q380.0 282.0 379.5 281.75Q379.0 281.5 379.0 281.5Q379.0 283.5 381.5 289.25Q384.0 295.0 387.25 301.5Q390.5 308.0 393.5 312.75Q396.5 317.5 397.5 317.5Q398.0 317.5 401.0 313.0Q404.0 308.5 407.0 303.0Q410.0 298.0 411.75 295.25Q413.5 292.5 413.5 291.0Q413.5 290.0 403.5 287.5ZM49.0 117.0Q50.0 117.0 53.5 114.75Q57.0 112.5 60.25 109.75Q63.5 107.0 63.5 106.0Q63.5 105.0 58.0 98.5Q52.5 93.0 51.0 93.0Q50.0 93.0 49.0 97.5Q47.0 101.5 47.0 107.5Q47.0 111.5 47.5 113.0Q48.5 117.0 49.0 117.0ZM181.0 124.0V123.5Q180.0 119.5 169.0 118.25Q158.0 117.0 125.0 117.0Q102.5 117.0 90.0 117.75Q77.5 118.5 71.25 120.5Q65.0 122.5 60.0 126.5Q51.5 133.5 51.5 136.5Q51.5 140.5 55.0 147.5Q58.5 154.5 63.25 160.5Q68.0 166.5 71.0 168.5Q74.0 170.5 91.5 172.0Q109.0 173.5 129.5 173.5H177.5L181.0 152.5Q182.5 142.0 182.5 133.0Q182.5 126.0 181.0 124.0ZM213.5 200.0Q213.5 199.0 210.5 195.5Q207.5 192.0 203.5 189.5Q197.5 183.5 196.0 183.5Q195.0 183.5 195.0 196.5Q195.0 211.0 197.5 211.0Q199.5 211.0 203.5 208.5Q207.5 206.5 210.5 204.0Q213.5 201.5 213.5 200.0ZM367.0 213.0Q367.0 212.5 363.0 212.0Q359.0 211.5 353.0 211.5Q340.0 211.5 340.0 215.0Q340.0 219.0 346.5 228.5L354.5 239.5L359.5 229.0Q366.0 217.5 367.0 213.0ZM430.0 275.5Q429.0 272.5 422.0 264.5Q415.0 256.5 406.0 247.0L379.0 220.0L370.5 237.5Q364.0 250.0 364.0 253.0Q364.0 255.0 366.25 257.0Q368.5 259.0 372.5 263.0Q377.0 266.5 386.25 270.0Q395.5 273.5 405.5 275.5Q415.5 277.5 422.5 277.5Q428.0 277.5 430.0 275.5ZM499.5 246.0V246.5Q501.5 244.5 502.75 243.25Q504.0 242.0 504.0 240.5Q504.0 237.5 498.25 231.25Q492.5 225.0 479.0 211.0L450.0 182.0Q447.5 183.5 440.25 188.0Q433.0 192.5 430.5 193.5Q422.0 199.0 413.75 203.5Q405.5 208.0 402.0 209.0Q394.0 212.5 394.0 214.5Q394.0 215.0 401.5 223.5Q409.0 232.0 420.0 243.5L447.0 269.5Q452.5 267.0 457.75 264.75Q463.0 262.5 468.0 260.5Q477.0 257.0 486.25 252.75Q495.5 248.5 499.5 246.0ZM200.0 83.0 207.0 67.5H173.0L179.5 83.0Q182.5 89.0 185.5 93.5Q188.5 98.0 189.5 99.0Q190.5 98.5 193.75 93.75Q197.0 89.0 200.0 83.0ZM333.0 147.5Q332.5 141.5 331.25 136.75Q330.0 132.0 329.0 132.0Q328.0 132.0 320.25 136.5Q312.5 141.0 305.5 146.0Q298.5 151.0 298.5 152.5Q298.5 154.5 305.25 156.75Q312.0 159.0 320.0 160.75Q328.0 162.5 331.0 162.5Q334.0 162.5 334.0 159.0Q334.0 157.0 333.75 154.25Q333.5 151.5 333.0 147.5ZM397.0 94.0Q397.0 88.0 394.5 88.0Q389.5 88.0 377.0 97.0Q362.5 106.0 362.5 108.0Q362.5 110.0 381.5 116.5L402.0 123.5L399.5 114.5Q398.5 110.0 397.75 103.75Q397.0 97.5 397.0 94.0ZM438.5 169.0Q435.5 162.0 425.5 154.0Q415.5 146.0 402.0 139.0Q388.5 132.0 375.75 127.5Q363.0 123.0 354.5 123.0Q348.0 123.0 345.75 127.75Q343.5 132.5 343.5 143.0Q343.5 158.5 359.5 178.5Q366.0 188.0 371.0 192.0Q376.0 196.0 382.5 196.0Q388.5 196.0 397.5 193.0Q406.5 190.0 420.5 183.5Q430.5 179.5 434.5 176.25Q438.5 173.0 438.5 170.0ZM575.0 196.0Q572.0 191.0 563.75 182.0Q555.5 173.0 547.5 165.0L528.5 146.5Q525.5 148.0 516.0 152.5Q506.5 157.0 495.5 162.75Q484.5 168.5 476.5 173.0Q468.5 177.5 468.5 179.0Q469.5 181.0 477.5 190.0Q485.5 199.0 496.5 210.5L522.0 237.5Q525.0 236.0 531.5 232.75Q538.0 229.5 544.5 226.25Q551.0 223.0 553.5 222.0L584.0 207.0Q582.0 204.0 579.75 201.25Q577.5 198.5 575.0 196.0ZM465.0 59.0Q464.5 51.0 463.25 47.25Q462.0 43.5 458.5 43.5Q456.5 43.5 449.25 47.25Q442.0 51.0 435.5 55.25Q429.0 59.5 429.0 61.5Q429.0 63.5 439.5 66.5Q444.0 67.5 450.0 69.5Q456.0 71.5 459.0 72.5Q461.0 73.5 462.5 73.5Q465.5 73.5 465.5 66.0Q465.5 64.5 465.25 62.75Q465.0 61.0 465.0 59.0ZM455.5 85.0Q439.0 77.5 425.5 77.5Q412.0 77.5 410.5 84.0Q408.5 88.0 408.5 94.0Q408.5 105.0 415.5 119.25Q422.5 133.5 434.0 146.5L454.5 169.0Q462.0 165.0 469.5 161.25Q477.0 157.5 485.0 154.0Q498.0 148.5 506.75 143.0Q515.5 137.5 515.5 137.0Q515.5 134.0 508.75 126.75Q502.0 119.5 492.0 110.75Q482.0 102.0 472.0 95.0Q462.0 88.0 455.5 85.0ZM467.0 20.0Q479.5 10.0 484.0 10.0Q487.5 10.0 487.5 14.5Q487.5 17.0 483.5 26.0Q478.0 36.0 478.0 50.5Q478.0 66.5 485.0 79.0Q487.5 83.5 494.0 91.75Q500.5 100.0 508.5 108.75Q516.5 117.5 524.5 123.75Q532.5 130.0 537.5 130.5Q539.0 130.5 541.0 129.5Q545.0 126.5 548.75 125.25Q552.5 124.0 554.5 124.0Q559.0 124.0 559.0 127.5Q559.0 131.5 553.0 135.0L542.5 143.0L586.5 190.0Q605.5 208.5 618.5 224.75Q631.5 241.0 631.5 244.5Q631.5 248.0 629.5 248.0Q625.5 248.0 612.5 235.0L593.5 217.5Q591.0 218.5 584.75 221.25Q578.5 224.0 572.25 226.75Q566.0 229.5 563.5 231.0Q550.0 236.5 541.25 241.5Q532.5 246.5 532.5 247.5Q532.5 249.5 538.0 255.25Q543.5 261.0 550.0 269.0Q554.5 273.0 560.0 279.75Q565.5 286.5 565.5 293.5Q563.5 294.5 563.5 294.5Q560.5 294.5 554.0 289.5Q547.5 284.5 540.0 276.5Q532.0 268.0 524.5 262.0Q517.0 256.0 513.5 256.0Q510.0 256.0 501.25 259.5Q492.5 263.0 482.5 267.75Q472.5 272.5 465.25 277.0Q458.0 281.5 458.0 283.0Q458.0 283.5 464.75 291.25Q471.5 299.0 481.0 309.0Q489.5 318.0 495.5 325.75Q501.5 333.5 501.5 336.5Q501.5 337.0 501.25 337.25Q501.0 337.5 501.0 338.0Q500.5 338.5 499.75 338.75Q499.0 339.0 499.0 339.0Q495.5 338.5 487.0 331.0Q478.5 323.5 468.5 312.5L442.0 284.0L426.5 299.0Q418.5 307.0 415.0 315.0Q411.5 323.0 410.5 334.0Q410.0 342.0 408.25 348.5Q406.5 355.0 405.0 356.0Q403.5 356.0 399.0 348.25Q394.5 340.5 389.0 329.5Q384.0 319.0 377.0 307.0Q370.0 295.0 365.5 288.5Q361.0 282.0 353.25 268.5Q345.5 255.0 340.0 242.5L325.5 213.5H268.5Q242.5 213.5 227.5 215.5Q212.5 217.5 205.5 225.0Q198.5 232.5 196.75 248.25Q195.0 264.0 195.0 292.0V295.0Q195.0 322.5 193.5 341.5Q192.0 360.5 189.5 360.5Q187.0 360.5 185.0 354.5Q183.0 348.5 182.0 340.0L180.5 323.0L122.0 321.5Q114.5 321.5 108.25 321.25Q102.0 321.0 96.5 321.0Q74.0 321.0 62.0 323.5Q50.0 326.0 43.5 332.75Q37.0 339.5 30.0 352.5Q18.0 375.0 12.5 375.0Q10.0 375.0 10.0 370.5Q10.0 367.0 11.5 362.0Q12.5 357.5 15.25 343.0Q18.0 328.5 20.0 314.0Q22.5 298.5 25.25 282.0Q28.0 265.5 29.5 258.5Q34.0 241.0 34.0 233.0Q34.0 228.0 32.5 228.0Q31.5 228.0 31.0 228.5Q29.0 229.5 28.5 229.5Q25.0 229.5 25.0 221.0Q25.0 216.5 26.0 209.0Q27.0 201.5 29.0 191.0Q30.5 183.5 30.5 175.5Q30.5 169.5 29.5 168.5Q28.0 166.0 28.0 159.0Q28.0 145.5 32.0 124.0L33.0 116.5Q35.5 101.5 37.5 88.5Q39.5 75.5 39.5 70.5Q39.5 55.0 45.0 55.0Q50.5 55.0 58.0 73.0Q63.5 85.5 71.0 92.5Q78.5 99.5 92.5 102.0Q106.5 104.5 131.0 104.5Q153.0 104.5 163.25 103.0Q173.5 101.5 173.5 96.5Q173.5 93.0 169.0 87.25Q164.5 81.5 156.5 73.5Q149.0 66.5 144.0 60.0Q139.0 53.5 139.0 52.5Q139.0 52.5 154.25 52.0Q169.5 51.5 190.5 51.5H245.0L223.0 73.5Q206.5 90.0 206.5 98.5Q206.5 101.5 207.0 102.5Q208.0 104.5 208.0 106.25Q208.0 108.0 208.0 109.5Q208.0 116.5 201.5 119.5Q195.5 121.0 195.5 131.5Q195.5 147.0 200.0 159.0Q204.5 171.0 216.5 182.5Q225.0 190.0 230.5 193.25Q236.0 196.5 245.5 197.25Q255.0 198.0 274.0 198.0Q296.5 198.0 303.75 197.5Q311.0 197.0 311.0 194.0Q311.0 193.5 310.0 190.5Q308.5 186.5 308.5 184.0Q308.5 179.5 312.5 179.5Q317.5 179.5 328.5 186.5Q335.0 190.0 339.75 191.5Q344.5 193.0 347.5 193.0Q350.0 193.0 350.0 192.5Q350.0 192.5 347.5 189.0H348.0Q344.0 184.0 331.5 179.0Q319.0 174.0 304.0 170.5Q289.0 167.0 277.5 167.0Q269.5 167.0 263.75 165.0Q258.0 163.0 258.0 160.0Q258.0 158.0 267.0 151.75Q276.0 145.5 287.0 138.5Q299.5 133.0 309.25 126.75Q319.0 120.5 320.5 118.5V119.0Q322.5 115.0 333.25 107.75Q344.0 100.5 357.0 94.0Q370.0 87.0 380.0 80.25Q390.0 73.5 390.5 70.5V71.0Q391.0 67.0 400.25 60.25Q409.5 53.5 421.0 48.0Q433.5 42.5 446.75 34.0Q460.0 25.5 467.0 20.0Z" fill="black" /></svg>