<svg xmlns="http://www.w3.org/2000/svg" width="451.0" height="388.5" viewBox="0 0 451.0 388.5"><path d="M99.5 326.0Q110.5 310.0 112.5 303.5Q112.0 303.5 111.75 303.5Q111.5 303.5 111.0 303.5Q105.0 305.0 92.5 307.5H93.0Q84.5 310.5 73.5 312.0Q62.5 313.5 55.5 313.5L42.5 314.5L62.0 333.5Q70.5 341.5 76.5 346.75Q82.5 352.0 83.5 352.0Q84.5 351.5 89.25 344.25Q94.0 337.0 99.5 326.0ZM333.0 239.0Q335.5 236.5 336.5 234.0Q337.5 231.5 338.0 230.0Q335.5 231.5 327.5 237.25Q319.5 243.0 310.25 250.0Q301.0 257.0 294.25 262.5Q287.5 268.0 287.5 269.0L291.0 269.5Q294.5 270.0 299.0 270.5Q303.5 271.0 308.5 272.0Q318.5 273.5 323.0 273.5Q328.0 273.5 328.0 268.0Q328.0 260.5 329.5 253.25Q331.0 246.0 333.0 239.0ZM64.0 96.0Q63.0 96.0 58.0 95.25Q53.0 94.5 45.5 93.5H42.0Q40.0 93.0 38.25 93.0Q36.5 93.0 35.5 93.0Q31.0 93.0 31.0 95.0Q31.0 100.0 37.5 116.5L45.5 137.5Q48.0 132.5 50.25 127.5Q52.5 122.5 54.5 118.0Q58.0 110.0 60.75 103.75Q63.5 97.5 64.0 96.0ZM172.0 198.5H171.5Q170.0 197.5 167.25 196.25Q164.5 195.0 161.0 193.5Q156.5 191.0 151.5 188.5Q146.5 186.0 141.5 184.0L122.0 174.5L119.5 198.5Q118.0 211.0 118.0 224.0Q120.0 223.0 125.75 221.0Q131.5 219.0 138.5 215.5L142.0 214.0Q143.0 213.5 148.25 211.5Q153.5 209.5 160.25 206.75Q167.0 204.0 172.0 202.0Q177.0 200.0 177.5 199.5Q177.0 199.5 175.75 199.25Q174.5 199.0 172.0 198.5ZM138.0 53.0Q137.5 46.0 136.5 40.75Q135.5 35.5 134.5 35.5Q132.5 35.5 125.75 39.5Q119.0 43.5 111.25 49.0Q103.5 54.5 97.75 59.5Q92.0 64.5 92.0 66.5Q92.0 69.0 100.5 69.0Q103.5 69.0 111.75 71.5Q120.0 74.0 129.0 78.0L131.0 79.0Q137.0 81.5 140.0 83.0Q143.0 84.5 144.5 84.5Q144.5 84.0 143.5 81.0Q141.5 78.0 140.25 69.5Q139.0 61.0 138.0 53.0ZM325.0 64.5Q325.0 63.5 324.0 63.5Q321.0 63.5 311.5 68.75Q302.0 74.0 290.75 81.5Q279.5 89.0 271.5 95.75Q263.5 102.5 263.5 105.0Q263.5 108.5 290.5 112.5L311.0 115.5V102.0Q311.0 95.0 313.0 87.0Q315.0 79.0 317.5 75.5Q320.0 72.0 322.5 68.75Q325.0 65.5 325.0 64.5ZM116.5 31.5 145.5 10.0 147.5 40.0Q148.5 51.5 151.25 62.0Q154.0 72.5 156.0 76.0Q157.5 78.5 165.75 87.75Q174.0 97.0 186.75 110.25Q199.5 123.5 214.0 138.0L267.0 188.5L313.5 185.5Q331.0 184.5 346.5 182.75Q362.0 181.0 367.0 180.5H368.0Q369.5 180.0 371.5 180.0Q377.0 180.0 377.0 186.5Q377.0 193.0 370.5 199.5Q364.0 205.0 357.5 218.5Q351.0 232.0 346.5 246.25Q342.0 260.5 341.5 269.5Q341.5 275.0 344.0 275.0Q349.5 275.0 349.5 282.5Q349.5 285.0 358.5 291.25Q367.5 297.5 380.0 304.5Q403.5 317.0 420.0 329.5Q436.5 342.0 436.5 346.5Q436.5 347.0 435.5 349.0H434.5Q431.5 349.0 424.25 344.75Q417.0 340.5 407.5 334.5Q387.0 320.0 364.0 308.25Q341.0 296.5 321.5 289.5Q302.0 282.5 291.0 282.5Q262.0 282.5 261.5 275.5Q262.0 269.5 282.5 256.0Q300.0 244.0 316.0 231.5Q332.0 219.0 342.0 209.25Q352.0 199.5 352.0 197.0Q352.0 196.0 347.25 195.75Q342.5 195.5 335.0 195.5Q314.0 195.5 300.5 198.25Q287.0 201.0 274.75 207.5Q262.5 214.0 244.0 225.5Q232.0 232.5 218.5 240.75Q205.0 249.0 193.25 256.25Q181.5 263.5 174.0 267.5Q159.0 276.5 142.75 292.25Q126.5 308.0 113.5 325.5Q100.5 343.0 94.0 358.0Q85.5 378.5 81.0 378.5Q77.5 378.5 77.5 371.0Q77.5 369.0 68.75 358.75Q60.0 348.5 48.0 337.0Q35.5 324.5 26.75 314.5Q18.0 304.5 18.0 302.5Q18.0 299.0 25.0 299.0Q26.5 299.0 28.75 299.0Q31.0 299.0 33.0 300.0L45.5 303.0V240.5Q45.5 207.0 43.25 185.0Q41.0 163.0 35.5 144.75Q30.0 126.5 19.5 106.0Q15.5 97.5 12.75 90.75Q10.0 84.0 10.0 82.0L10.5 80.0Q11.0 80.0 22.5 80.25Q34.0 80.5 49.5 81.5L89.5 84.0L78.0 100.5Q71.0 109.5 66.75 118.5Q62.5 127.5 60.25 140.25Q58.0 153.0 57.25 172.5Q56.5 192.0 56.5 222.5Q56.5 265.0 57.75 282.0Q59.0 299.0 62.0 300.0Q63.0 300.5 64.25 300.75Q65.5 301.0 67.5 301.0Q77.5 301.0 95.5 293.75Q113.5 286.5 135.5 275.25Q157.5 264.0 179.25 251.0Q201.0 238.0 219.0 226.5Q237.0 215.0 247.0 208.0L255.5 200.5L237.5 200.0Q219.0 200.5 190.0 209.0Q161.0 217.5 132.5 233.0Q122.5 237.5 114.5 241.0Q106.5 244.5 104.0 244.5Q103.0 244.5 102.5 243.5V242.5Q102.5 237.5 104.0 229.5Q109.5 203.0 109.5 177.0Q109.5 166.0 110.0 158.75Q110.5 151.5 112.5 151.5Q113.5 151.5 117.75 154.5Q122.0 157.5 126.5 162.0Q141.0 175.0 160.5 181.5Q180.0 188.0 210.0 188.0Q225.0 188.0 235.5 187.25Q246.0 186.5 246.5 186.0Q245.5 184.5 233.5 172.5Q221.5 160.5 205.0 145.0Q184.5 126.5 166.5 113.75Q148.5 101.0 129.25 92.0Q110.0 83.0 86.0 76.5Q65.0 70.5 65.0 65.0Q65.0 61.5 77.5 56.0Q82.0 53.5 93.75 46.25Q105.5 39.0 116.5 31.5ZM352.5 23.0Q356.5 16.5 361.0 15.5Q362.0 15.5 363.0 16.5V16.0Q366.0 18.0 366.0 21.5Q366.0 27.0 354.0 42.0Q348.0 48.5 340.25 61.0Q332.5 73.5 327.0 84.75Q321.5 96.0 321.5 100.5Q321.5 111.5 337.25 125.5Q353.0 139.5 380.5 154.0Q383.5 155.5 393.0 160.25Q402.5 165.0 413.5 171.5Q424.5 178.0 432.75 184.25Q441.0 190.5 441.0 194.5Q441.0 197.5 438.0 197.5Q431.0 197.5 415.5 186.5Q396.5 173.5 373.0 161.25Q349.5 149.0 325.5 139.25Q301.5 129.5 281.0 123.5Q260.5 117.5 248.0 117.5Q223.0 117.5 223.0 110.0Q223.0 105.5 233.5 102.0Q240.0 100.0 253.25 92.25Q266.5 84.5 282.75 74.0Q299.0 63.5 314.5 53.0Q330.0 42.5 340.5 34.25Q351.0 26.0 352.5 23.0Z" fill="black" /></svg>