<svg xmlns="http://www.w3.org/2000/svg" width="710.5" height="383.5" viewBox="0 0 710.5 383.5"><path d="M59.5 305.0Q59.5 302.5 58.5 295.25Q57.5 288.0 55.0 288.0Q53.5 288.0 50.0 291.0Q46.5 294.0 43.5 297.5Q40.5 301.0 40.5 302.0Q40.5 302.5 51.5 306.0Q54.0 306.5 55.5 306.5Q57.0 306.5 58.0 306.5Q59.5 306.5 59.5 305.0ZM122.0 243.5Q125.0 240.5 125.0 240.0Q125.0 240.5 120.0 240.5Q112.5 240.5 112.5 242.0Q112.5 246.5 116.0 246.5Q120.0 246.5 122.0 243.5ZM125.0 286.0Q119.0 283.5 117.0 283.5Q116.0 283.5 116.0 287.5Q116.0 291.0 118.5 291.0Q119.5 291.0 121.75 290.5Q124.0 290.0 126.0 288.0Q127.0 287.5 127.5 287.5Q128.0 287.5 128.5 287.0Q128.0 287.0 125.0 286.0ZM134.5 161.5Q134.5 159.0 134.0 157.0Q133.5 155.0 132.5 155.0Q129.0 155.0 126.0 158.5Q123.0 162.0 123.0 164.5Q125.5 167.5 129.0 167.5Q131.0 167.5 132.75 166.0Q134.5 164.5 134.5 161.5ZM186.0 254.5Q187.5 254.5 192.0 248.0Q196.5 241.5 197.5 238.5Q195.5 239.0 188.25 241.75Q181.0 244.5 181.0 246.5Q181.0 247.5 184.5 253.0Q184.5 254.5 186.0 254.5ZM281.0 263.0Q277.5 260.5 275.0 259.0Q272.5 257.5 271.5 257.5Q270.5 257.5 269.0 266.75Q267.5 276.0 266.5 287.25Q265.5 298.5 265.5 305.0V307.5Q266.5 307.5 278.75 302.5Q291.0 297.5 308.0 290.5L342.0 276.0L320.5 272.5Q308.0 270.0 296.75 267.25Q285.5 264.5 281.0 263.0ZM323.0 208.0H322.0Q319.5 202.5 317.0 202.5V208.5Q317.0 213.0 319.0 213.0Q320.0 213.0 320.5 212.5Q321.0 212.0 321.5 212.0Q323.0 211.5 323.75 211.25Q324.5 211.0 324.5 211.0Q324.5 210.0 324.0 209.5Q323.5 209.0 323.0 208.0ZM412.0 175.0Q410.0 170.5 402.75 169.5Q395.5 168.5 373.5 168.5Q358.5 168.5 350.25 169.0Q342.0 169.5 337.25 171.0Q332.5 172.5 327.5 176.5L317.5 184.0Q320.5 187.5 323.75 190.25Q327.0 193.0 329.5 196.5Q336.5 203.5 340.75 206.75Q345.0 210.0 353.5 210.5Q362.0 211.0 380.0 211.0H416.5V197.5Q416.5 192.0 415.25 185.25Q414.0 178.5 412.0 175.0ZM480.0 187.5Q478.0 188.0 471.25 187.75Q464.5 187.5 456.0 187.0L432.0 186.0V222.5L444.0 214.5Q446.5 212.0 449.5 209.75Q452.5 207.5 455.0 205.5Q459.0 203.0 462.75 200.0Q466.5 197.0 469.5 195.0V196.0Q472.5 193.5 475.5 191.0Q478.5 188.5 480.0 187.5ZM171.0 66.5Q171.0 66.0 164.5 66.0Q155.0 66.0 155.0 68.0Q155.0 69.5 161.5 69.5Q168.0 69.5 171.0 66.5ZM207.5 145.5V146.0Q202.5 142.5 200.0 142.5Q197.5 142.5 195.5 150.25Q193.5 158.0 193.5 161.0Q194.5 161.0 198.5 158.25Q202.5 155.5 206.25 152.25Q210.0 149.0 210.0 148.5Q210.0 148.0 207.5 145.5ZM195.0 70.5Q185.0 72.5 172.5 79.0Q164.5 83.0 161.0 86.25Q157.5 89.5 155.75 96.75Q154.0 104.0 151.0 121.0Q149.0 136.0 147.75 145.75Q146.5 155.5 146.5 162.5Q146.5 175.0 151.5 181.25Q156.5 187.5 169.0 197.5Q178.5 204.5 186.75 210.5Q195.0 216.5 198.0 217.5H198.5Q201.5 217.0 213.0 210.5Q224.5 204.0 239.25 194.25Q254.0 184.5 268.25 174.75Q282.5 165.0 292.0 157.5Q301.5 150.0 301.5 148.5Q301.5 147.5 291.25 147.25Q281.0 147.0 266.5 147.0H230.0L211.5 164.0Q204.0 171.0 198.75 177.25Q193.5 183.5 193.5 185.5Q193.5 193.5 187.5 193.5Q181.5 193.5 181.5 177.5Q181.5 165.0 184.5 141.0Q185.5 129.0 187.75 120.75Q190.0 112.5 192.0 112.5Q194.5 112.5 195.75 115.0Q197.0 117.5 197.0 121.0Q197.0 123.0 199.5 125.5Q202.0 128.0 204.5 129.0Q207.5 130.5 218.5 132.0Q229.5 133.5 243.25 134.5Q257.0 135.5 268.0 135.5Q274.5 135.5 279.5 135.0Q284.5 134.5 286.5 134.0Q288.0 133.5 288.75 133.5Q289.5 133.5 289.5 133.5Q289.5 131.5 276.0 120.0Q260.0 107.5 249.25 100.25Q238.5 93.0 229.75 89.0Q221.0 85.0 210.5 82.0H211.5Q193.5 79.0 193.5 73.0Q193.5 72.0 195.0 70.5ZM250.0 54.0Q250.0 53.5 250.25 53.0Q250.5 52.5 250.5 52.0Q245.5 55.0 239.0 59.25Q232.5 63.5 227.75 67.0Q223.0 70.5 223.0 71.5Q223.0 72.0 226.5 73.5Q230.0 75.0 234.5 77.0Q242.0 80.0 244.0 80.0Q245.5 80.0 245.5 73.0Q245.5 69.0 246.75 63.25Q248.0 57.5 250.0 54.0ZM335.5 158.0Q335.5 156.0 329.5 153.5Q329.0 153.0 327.5 153.0Q325.0 153.0 325.0 155.0Q325.0 159.5 330.5 159.5Q335.5 159.5 335.5 158.0ZM334.0 64.5Q329.5 61.5 326.5 59.5Q323.5 57.5 323.0 57.5Q322.0 57.5 319.25 64.75Q316.5 72.0 314.5 80.25Q312.5 88.5 312.5 91.0Q312.5 90.5 319.0 90.5Q329.0 90.5 345.75 88.5Q362.5 86.5 379.5 84.5L384.5 83.5L369.0 78.5Q359.0 75.0 348.75 71.0Q338.5 67.0 334.0 64.5ZM448.5 44.5Q448.0 44.0 443.75 44.0Q439.5 44.0 433.0 44.0Q423.5 44.0 420.0 44.25Q416.5 44.5 416.5 45.5Q416.5 47.0 417.5 48.5Q418.5 52.0 420.0 57.5Q421.5 63.0 422.5 68.0Q425.0 78.5 427.0 78.5Q434.5 78.5 448.5 44.5ZM553.5 119.5Q525.0 113.5 500.5 108.5Q476.0 103.5 460.25 100.0Q444.5 96.5 442.0 96.0H441.0Q436.5 96.0 432.0 102.0V101.5Q430.5 106.0 429.5 117.5Q428.5 129.0 428.5 141.0Q428.5 150.0 429.0 157.5Q429.5 165.0 431.5 167.5Q434.5 174.5 453.5 174.5Q466.5 174.5 488.75 171.25Q511.0 168.0 546.0 161.5Q569.0 157.0 589.5 153.25Q610.0 149.5 624.75 146.75Q639.5 144.0 643.5 144.0Q648.0 143.0 651.5 142.0Q655.0 141.0 655.0 141.0Q655.0 141.0 641.25 138.0Q627.5 135.0 604.5 130.0Q581.5 125.0 553.5 119.5ZM10.0 315.5Q10.0 312.5 17.75 304.0Q25.5 295.5 36.25 285.75Q47.0 276.0 56.25 269.0Q65.5 262.0 68.0 262.0Q71.5 262.0 71.5 271.5V277.5Q70.5 279.5 70.25 282.75Q70.0 286.0 70.0 289.5Q70.0 293.0 70.25 296.25Q70.5 299.5 71.5 302.0Q73.0 310.0 78.75 315.75Q84.5 321.5 104.0 333.5Q101.0 329.0 101.0 306.0V268.0Q101.0 252.0 100.0 246.75Q99.0 241.5 95.5 238.5Q92.0 236.0 89.5 233.25Q87.0 230.5 87.0 228.5L88.5 226.5Q89.5 225.0 97.0 225.0Q103.5 225.0 113.25 226.0Q123.0 227.0 132.5 228.5Q142.0 230.0 148.5 231.5Q155.0 233.0 155.0 234.5Q155.0 240.5 149.0 240.5Q146.0 240.5 138.0 245.75Q130.0 251.0 123.0 256.75Q116.0 262.5 116.0 264.5Q116.0 265.5 122.0 268.75Q128.0 272.0 136.0 276.0Q146.0 281.0 154.0 283.0Q162.0 285.0 178.0 285.0Q183.0 285.0 189.75 284.75Q196.5 284.5 205.5 284.5Q237.0 283.5 247.75 280.5Q258.5 277.5 259.0 268.0Q259.0 264.5 258.25 260.25Q257.5 256.0 256.5 251.5Q256.0 247.0 255.5 244.0Q255.0 241.0 255.0 239.0Q255.0 232.5 259.0 232.5Q262.5 232.5 274.0 242.5Q286.0 252.5 309.5 257.25Q333.0 262.0 375.0 262.0H420.0V252.5Q420.0 238.0 418.0 232.0Q416.0 226.0 405.75 224.75Q395.5 223.5 371.0 223.5Q344.5 223.5 333.5 225.0Q322.5 226.5 318.5 229.5Q316.5 232.0 313.75 234.5Q311.0 237.0 309.5 237.0Q307.5 237.0 306.5 228.0Q305.5 219.0 305.5 206.5Q305.5 193.5 307.25 185.0Q309.0 176.5 311.0 176.5Q314.0 176.5 314.0 168.5Q314.0 165.0 313.5 162.25Q313.0 159.5 313.0 159.5Q312.0 159.5 298.0 169.0Q284.0 178.5 265.0 191.5Q248.5 203.0 238.75 210.25Q229.0 217.5 223.25 223.25Q217.5 229.0 213.75 235.75Q210.0 242.5 205.5 252.5Q199.0 264.0 194.0 273.0Q189.0 282.0 187.0 283.0Q186.0 283.0 182.5 277.0Q179.0 271.0 175.0 262.75Q171.0 254.5 168.0 247.0Q165.0 239.5 165.0 237.0V235.5Q166.5 231.0 172.0 231.0H173.5Q174.0 231.5 176.5 231.5Q180.5 231.5 184.5 228.5H185.5Q185.5 225.0 176.25 217.0Q167.0 209.0 153.75 200.0Q140.5 191.0 128.75 184.5Q117.0 178.0 112.5 178.0H109.5Q105.0 179.5 101.0 179.5Q95.5 179.5 95.5 174.5Q95.5 171.5 100.75 165.5Q106.0 159.5 117.0 151.5Q126.0 144.0 132.5 137.0Q139.0 130.0 139.0 128.0Q139.0 125.5 139.5 122.0Q140.0 118.5 140.5 114.0Q141.5 110.0 142.0 105.75Q142.5 101.5 143.0 97.5Q143.5 92.0 144.0 88.5Q144.5 85.0 144.5 82.0Q144.5 74.0 139.0 68.5Q135.5 66.0 132.25 63.75Q129.0 61.5 126.5 61.5Q123.0 61.5 123.0 58.5Q123.0 56.0 124.5 54.0Q127.0 51.5 141.5 51.5Q153.0 51.5 168.75 52.75Q184.5 54.0 197.25 55.75Q210.0 57.5 213.0 60.0L212.0 59.0H213.0Q216.0 59.0 225.25 53.25Q234.5 47.5 245.25 39.75Q256.0 32.0 263.75 25.25Q271.5 18.5 271.5 16.5Q271.5 10.0 276.5 10.0Q279.0 10.0 280.5 10.5Q282.0 11.0 282.0 13.5Q282.0 16.5 279.0 22.25Q276.0 28.0 270.0 41.0Q264.0 53.5 260.25 63.25Q256.5 73.0 256.5 78.5Q256.5 83.0 259.5 83.0Q265.5 83.0 265.5 90.5Q265.5 93.5 271.75 100.0Q278.0 106.5 286.5 113.5Q295.0 120.5 302.5 125.5Q310.0 130.5 313.0 130.5H314.0Q314.5 129.0 317.0 129.0Q322.5 129.0 334.5 141.0Q342.0 147.0 347.0 150.0Q352.0 153.0 359.5 154.0Q367.0 155.0 381.5 155.5Q388.0 156.0 393.0 156.25Q398.0 156.5 402.5 156.5Q415.0 156.5 415.0 155.5Q416.0 155.5 416.25 146.25Q416.5 137.0 416.5 124.5V95.5H406.0Q395.0 95.5 380.0 97.0Q365.0 98.5 349.75 101.0Q334.5 103.5 323.25 106.0Q312.0 108.5 308.5 110.5Q305.0 112.0 303.0 113.0Q301.0 114.0 299.0 114.0Q295.5 114.0 295.5 108.0Q295.5 104.0 296.75 98.25Q298.0 92.5 301.5 84.5Q304.5 75.5 307.0 65.75Q309.5 56.0 309.5 51.0Q309.5 36.0 317.0 36.0Q322.5 36.0 332.0 45.5Q335.5 49.0 345.25 53.75Q355.0 58.5 366.75 63.25Q378.5 68.0 389.0 71.0Q399.5 74.0 404.5 74.0Q412.0 74.0 412.0 71.0Q412.0 67.0 408.0 59.75Q404.0 52.5 399.0 46.5Q394.0 40.5 391.0 40.5Q387.5 40.5 387.5 37.0Q387.5 35.5 390.0 33.0Q391.0 31.5 397.5 30.75Q404.0 30.0 413.0 30.0Q418.5 30.0 424.75 30.5Q431.0 31.0 437.5 31.0Q458.5 32.0 467.0 33.75Q475.5 35.5 475.5 38.5Q475.5 41.0 471.0 43.5Q466.0 46.5 460.5 53.5Q455.0 60.5 451.25 68.0Q447.5 75.5 447.5 80.5Q447.5 83.0 448.5 83.0Q449.5 83.5 467.25 87.75Q485.0 92.0 513.75 98.0Q542.5 104.0 576.5 111.0Q611.0 117.5 639.0 124.0Q667.0 130.5 683.75 135.0Q700.5 139.5 700.5 141.0Q700.5 142.5 687.25 146.0Q674.0 149.5 651.75 154.0Q629.5 158.5 602.5 164.0L505.5 182.5L476.0 205.0Q458.0 219.5 448.5 228.0Q439.0 236.5 435.5 242.25Q432.0 248.0 432.0 254.0V262.0H537.0Q589.0 262.0 617.25 263.75Q645.5 265.5 645.5 268.0Q645.5 271.5 617.75 273.0Q590.0 274.5 539.0 274.5Q495.0 274.5 472.5 275.0Q450.0 275.5 442.25 276.5Q434.5 277.5 433.5 280.0Q430.5 287.5 426.0 287.5Q420.0 287.5 420.0 278.5Q420.0 276.5 418.5 276.0Q417.0 275.5 410.5 275.5Q396.5 275.5 376.5 280.0Q356.5 284.5 335.25 292.0Q314.0 299.5 296.0 308.5Q278.0 317.5 268.0 326.0Q263.0 331.5 258.25 335.0Q253.5 338.5 253.0 338.5Q250.5 338.5 250.5 331.0Q250.5 328.0 250.75 323.5Q251.0 319.0 252.0 313.5V314.0L255.0 295.0L192.0 298.0Q165.5 298.5 144.0 300.5Q122.5 302.5 119.0 304.5Q112.5 308.0 112.5 319.5Q112.5 326.0 110.5 330.0Q108.5 334.0 105.5 334.0Q108.0 335.5 110.5 337.0Q113.0 338.5 115.5 340.0Q133.0 351.0 145.0 359.75Q157.0 368.5 157.0 371.5L156.5 373.5H155.0Q152.0 373.5 137.5 366.5Q123.0 359.5 104.0 348.5Q73.5 330.5 58.0 323.0Q42.5 315.5 33.5 315.5Q29.0 315.5 24.0 318.0Q18.0 320.0 14.0 320.0Q10.0 320.0 10.0 315.5Z" fill="black" /></svg>