<svg xmlns="http://www.w3.org/2000/svg" width="760.0" height="395.5" viewBox="0 0 760.0 395.5"><path d="M170.0 273.5 180.5 303.0Q184.0 293.5 187.0 284.0Q190.0 274.5 194.0 265.0Q190.5 267.0 188.0 268.25Q185.5 269.5 183.0 270.5Q177.0 273.5 170.0 273.5ZM242.5 353.5V353.0Q243.5 353.0 244.5 352.5Q245.5 352.0 246.5 351.5Q249.0 350.5 251.5 349.25Q254.0 348.0 256.5 347.0Q263.0 344.0 267.75 341.75Q272.5 339.5 273.0 339.0Q280.0 335.5 286.5 332.0Q293.0 328.5 299.5 324.5Q290.5 323.5 282.0 322.5Q273.5 321.5 265.0 319.5Q263.0 318.5 259.75 317.5Q256.5 316.5 253.0 315.5Q249.5 314.0 246.75 313.25Q244.0 312.5 243.5 312.5Q242.0 312.5 241.0 314.0Q241.0 315.0 240.75 317.0Q240.5 319.0 240.5 321.0V333.0Q240.5 334.0 240.5 337.25Q240.5 340.5 241.0 344.5Q241.0 350.0 242.0 351.5Q242.0 352.0 242.25 352.5Q242.5 353.0 242.5 353.5ZM44.5 201.0 30.5 231.0Q34.0 230.0 37.25 228.25Q40.5 226.5 44.0 225.5Q48.5 224.5 52.5 223.75Q56.5 223.0 60.0 222.5Q56.5 218.0 52.25 212.0Q48.0 206.0 44.5 201.0ZM303.0 284.5Q307.0 282.5 310.75 281.0Q314.5 279.5 318.0 278.5Q316.0 276.0 312.0 274.0L306.0 268.0Q305.5 267.0 304.75 266.25Q304.0 265.5 303.0 264.5Q303.0 267.0 303.5 270.0Q304.0 273.0 304.0 275.5Q304.0 277.5 303.5 279.75Q303.0 282.0 303.0 284.5ZM54.5 160.0Q56.0 157.5 58.5 153.5Q61.0 149.5 64.0 146.0Q71.5 134.0 73.5 128.0Q70.0 128.0 66.75 128.5Q63.5 129.0 60.0 129.0Q58.0 129.0 56.75 128.5Q55.5 128.0 53.5 127.5Q51.5 127.5 50.0 126.0V128.0Q50.0 136.0 51.25 144.25Q52.5 152.5 54.5 160.0ZM126.5 184.0Q130.5 181.5 134.5 180.0Q138.5 178.5 142.5 176.5Q146.5 175.5 150.5 174.75Q154.5 174.0 159.0 173.0Q149.0 167.5 141.25 161.5Q133.5 155.5 125.0 147.5Q126.0 152.5 126.75 157.75Q127.5 163.0 127.5 168.5Q127.5 172.0 127.5 176.0Q127.5 180.0 126.5 184.0ZM166.5 79.0 167.0 78.5 125.0 101.5Q110.5 109.0 103.0 114.75Q95.5 120.5 90.0 128.0Q84.5 135.5 76.0 149.5Q74.0 153.5 70.75 159.0Q67.5 164.5 64.5 170.0Q62.0 175.5 60.0 180.75Q58.0 186.0 58.0 190.5Q58.0 197.0 63.0 203.75Q68.0 210.5 75.0 216.5Q79.0 219.5 83.0 222.0Q87.0 224.5 91.0 227.0Q94.5 230.0 97.75 231.75Q101.0 233.5 103.5 235.5L153.0 267.5Q153.0 266.5 152.0 266.0Q151.5 265.0 151.0 263.75Q150.5 262.5 150.5 262.0Q150.0 261.5 150.0 260.0Q149.0 260.0 149.0 258.5Q149.0 255.5 152.0 255.5Q153.5 254.5 156.0 254.5Q159.0 254.5 161.0 255.5Q162.0 256.0 163.25 256.0Q164.5 256.0 165.5 257.0Q169.0 259.0 173.0 259.0Q176.0 259.0 178.75 258.0Q181.5 257.0 184.5 256.0Q188.5 254.0 200.75 245.0Q213.0 236.0 229.0 223.25Q245.0 210.5 260.25 197.75Q275.5 185.0 285.5 176.0Q295.5 167.0 295.5 165.5Q295.5 162.0 287.0 151.25Q278.5 140.5 267.0 129.0Q256.0 117.5 246.5 107.75Q237.0 98.0 236.0 96.0Q233.0 94.0 225.25 92.75Q217.5 91.5 209.5 90.5Q201.5 89.5 197.5 89.5Q196.5 89.5 191.25 89.0Q186.0 88.5 180.5 88.0Q178.0 87.0 175.25 86.5Q172.5 86.0 171.0 85.5Q170.0 85.0 169.0 85.0Q168.0 85.0 167.0 84.5Q166.5 83.5 165.75 83.0Q165.0 82.5 165.0 81.5Q165.0 81.5 165.25 81.0Q165.5 80.5 165.5 80.0Q165.5 80.0 166.0 79.75Q166.5 79.5 166.5 79.0ZM310.0 240.5 324.5 237.0Q324.5 237.0 324.25 236.75Q324.0 236.5 323.0 236.0Q321.5 235.5 319.75 235.0Q318.0 234.5 317.0 234.0L313.0 230.0Q312.0 230.0 310.5 228.5V235.5Q310.5 237.0 310.25 238.25Q310.0 239.5 310.0 240.5ZM312.0 216.0Q322.0 225.0 331.25 227.5Q340.5 230.0 354.5 231.5Q371.0 233.5 386.75 233.25Q402.5 233.0 419.0 234.0Q419.0 227.5 419.0 221.25Q419.0 215.0 419.0 208.5Q406.0 208.5 393.25 208.25Q380.5 208.0 367.5 208.0Q361.0 208.0 354.25 208.0Q347.5 208.0 340.5 208.5Q335.0 208.5 326.0 211.0Q317.0 213.5 312.0 216.0ZM430.0 246.5Q434.0 244.0 442.0 238.0Q450.0 232.0 459.0 225.5Q467.0 219.5 473.25 214.75Q479.5 210.0 483.0 207.0Q473.5 208.5 463.0 208.5Q455.0 208.5 447.25 207.5Q439.5 206.5 431.5 205.5Q432.5 215.5 431.75 226.0Q431.0 236.5 430.0 246.5ZM183.0 77.0Q193.0 78.0 203.0 78.75Q213.0 79.5 223.0 80.5Q221.0 77.5 218.0 75.5Q214.5 71.5 211.75 67.75Q209.0 64.0 206.5 59.0Q206.0 57.0 203.5 53.5Q203.0 54.5 202.25 55.75Q201.5 57.0 200.5 58.0Q199.5 60.0 198.25 61.5Q197.0 63.0 196.0 65.0Q194.0 67.0 192.25 68.75Q190.5 70.5 188.0 72.5Q187.0 73.5 186.0 74.25Q185.0 75.0 184.5 76.0Q184.0 76.0 183.5 76.5Q183.0 77.0 183.0 77.0ZM313.0 156.5V166.0L327.5 159.5L311.5 149.0Q311.5 149.5 311.75 150.0Q312.0 150.5 312.0 150.5Q312.0 152.0 312.5 153.25Q313.0 154.5 313.0 156.5ZM313.0 203.5 327.0 199.0 313.0 188.5V190.0Q313.5 192.0 313.5 196.0Q313.5 197.5 313.25 199.5Q313.0 201.5 313.0 203.5ZM295.0 71.0 288.0 90.0 321.5 86.5Q326.0 85.5 332.5 85.25Q339.0 85.0 345.5 84.5Q362.0 83.0 369.0 80.5Q370.5 80.5 372.5 79.0Q374.0 79.0 374.0 78.5H373.5Q372.5 77.5 371.25 77.0Q370.0 76.5 369.0 76.0Q366.0 75.5 363.5 74.75Q361.0 74.0 360.0 74.0Q350.5 71.0 340.5 67.5Q330.5 64.0 321.0 59.5Q320.0 59.0 317.25 57.5Q314.5 56.0 311.5 54.5Q308.0 53.0 305.5 51.5Q304.0 51.5 303.0 51.0Q302.5 51.5 302.5 52.0Q302.5 52.5 301.5 53.0Q301.0 55.0 298.5 59.0Q297.5 62.5 296.25 66.25Q295.0 70.0 295.0 71.0ZM232.0 384.0Q232.0 381.5 230.5 379.5Q230.0 377.0 230.0 374.5Q230.0 372.0 229.0 368.5Q228.5 362.5 228.5 357.0Q228.5 351.5 228.5 350.0Q228.5 338.5 228.25 325.75Q228.0 313.0 225.5 301.0Q225.5 300.0 225.0 299.0Q224.5 298.0 224.5 297.0V288.0Q226.5 285.0 229.0 285.0Q231.0 285.0 233.0 286.5Q235.0 288.0 236.5 289.0Q237.5 290.0 238.25 290.5Q239.0 291.0 239.5 292.0Q242.0 294.5 242.0 295.0Q249.0 302.0 259.0 305.5Q270.5 308.5 292.0 310.25Q313.5 312.0 337.5 312.5Q361.0 313.0 383.0 312.75Q405.0 312.5 417.5 312.5Q448.5 312.5 479.25 312.75Q510.0 313.0 540.5 315.5H547.5Q548.5 316.0 550.0 316.25Q551.5 316.5 552.0 316.5Q553.5 316.5 554.0 317.0H555.0L555.5 318.0V319.5Q555.0 321.5 552.5 321.5Q551.0 322.0 547.5 322.5Q544.0 323.0 540.5 323.0Q537.0 323.5 534.0 323.75Q531.0 324.0 528.5 324.0Q507.5 325.0 485.75 325.25Q464.0 325.5 442.0 325.5H338.0Q331.0 325.5 324.25 327.5Q317.5 329.5 311.5 332.0Q305.0 335.5 298.5 339.0Q292.0 342.5 286.0 346.0Q282.5 348.0 275.5 351.5Q268.5 355.0 261.0 359.5Q254.0 364.0 248.5 368.25Q243.0 372.5 242.0 376.0Q242.0 376.0 241.5 377.25Q241.0 378.5 240.5 380.5Q239.0 382.5 239.0 384.0Q237.5 385.5 235.0 385.5Q233.5 385.5 232.0 384.0ZM129.0 198.0 116.5 212.5V174.5Q116.5 157.5 113.5 141.0Q113.0 139.0 112.75 137.75Q112.5 136.5 112.0 135.0V123.5L112.5 123.0Q112.5 123.0 113.0 122.5Q113.5 122.0 114.0 122.0Q114.0 122.0 114.5 122.0Q115.0 122.0 115.5 123.0Q115.5 123.0 116.0 123.0Q116.5 123.0 116.5 123.5Q117.0 124.0 118.0 124.5Q119.0 125.0 119.5 126.0Q121.0 127.0 126.5 132.0Q132.0 137.0 136.75 141.75Q141.5 146.5 141.5 147.0Q145.0 149.5 151.75 154.75Q158.5 160.0 165.5 164.5Q172.5 169.0 176.0 169.0Q196.5 169.0 216.5 168.0Q236.5 167.0 256.5 167.0H265.5Q268.0 167.0 270.25 167.0Q272.5 167.0 274.5 167.5H276.0Q276.0 168.0 276.5 168.25Q277.0 168.5 277.0 168.5Q277.0 168.5 277.25 168.75Q277.5 169.0 277.5 170.0Q277.5 170.5 277.25 171.0Q277.0 171.5 277.0 171.5Q276.5 172.0 276.0 172.0Q275.5 172.0 275.5 172.0Q274.5 172.5 273.5 172.75Q272.5 173.0 271.5 173.5Q269.5 173.5 267.5 174.0Q265.5 174.5 265.5 174.5Q243.5 177.5 221.5 179.0Q215.0 179.5 203.5 179.75Q192.0 180.0 180.5 181.0Q168.0 182.0 157.5 183.75Q147.0 185.5 141.0 188.5Q133.5 193.5 129.0 198.0ZM161.0 287.5 118.0 259.0Q112.5 254.5 103.0 248.75Q93.5 243.0 83.5 238.5Q73.5 234.0 66.0 234.0Q59.0 234.0 47.75 236.75Q36.5 239.5 31.0 243.5Q28.0 245.5 23.5 248.0Q21.0 250.0 14.5 250.0Q13.5 250.0 11.75 249.25Q10.0 248.5 10.0 246.5Q10.0 245.5 10.5 244.0Q11.0 242.5 11.5 242.0Q17.0 236.0 22.25 224.0Q27.5 212.0 29.5 204.0Q34.0 192.5 37.0 182.25Q40.0 172.0 40.0 159.5Q40.0 145.5 38.75 132.0Q37.5 118.5 35.5 104.5V101.5L38.0 103.0Q40.5 104.5 43.5 106.5Q46.5 108.5 49.0 111.0Q52.5 113.0 55.75 114.25Q59.0 115.5 61.0 115.5Q65.5 115.5 77.0 111.0Q88.5 106.5 99.75 100.75Q111.0 95.0 115.5 92.5Q122.5 89.0 132.25 84.5Q142.0 80.0 152.0 74.5Q162.0 69.0 170.75 63.25Q179.5 57.5 184.5 52.5Q188.5 48.0 191.25 42.75Q194.0 37.5 197.0 32.0L209.0 10.0L212.5 34.5Q214.5 45.5 219.75 55.5Q225.0 65.5 233.0 74.5Q236.5 79.0 240.75 83.5Q245.0 88.0 248.5 92.5Q253.0 96.0 257.0 100.5Q261.0 105.0 265.0 109.0Q267.5 111.0 272.75 116.5Q278.0 122.0 283.5 128.0Q288.0 132.5 292.25 136.5Q296.5 140.5 299.5 143.0L298.0 133.5V132.5Q299.0 129.0 303.0 129.0Q308.5 129.0 313.5 134.0Q316.0 136.0 318.25 138.0Q320.5 140.0 321.5 141.0Q331.5 149.0 340.5 152.0Q349.5 155.0 362.0 155.0H380.0Q389.5 155.0 398.5 155.5Q407.5 156.0 416.5 157.0Q418.5 157.0 419.75 157.5Q421.0 158.0 422.0 158.0Q423.0 159.0 425.0 160.0V161.5Q425.0 162.0 424.5 162.5Q424.0 163.0 424.0 163.0Q423.5 163.5 423.0 163.75Q422.5 164.0 422.5 164.0Q421.0 164.5 418.0 164.5Q416.5 165.0 414.75 165.25Q413.0 165.5 412.0 165.5Q402.5 166.5 393.5 166.75Q384.5 167.0 375.0 167.0Q365.5 167.0 354.0 168.5Q353.0 168.5 346.25 169.5Q339.5 170.5 332.0 172.0Q328.5 172.5 325.0 173.5Q321.5 174.5 318.5 175.0Q317.5 175.5 316.5 175.75Q315.5 176.0 315.0 176.5Q314.5 176.5 314.0 177.0Q313.5 177.5 313.5 177.5Q316.0 178.0 319.0 179.5Q322.0 181.0 324.0 183.0Q326.5 185.0 328.75 186.5Q331.0 188.0 333.0 189.0Q337.5 192.0 343.25 194.0Q349.0 196.0 359.0 196.0Q374.0 196.0 388.75 196.25Q403.5 196.5 419.0 196.5L418.0 196.0V193.0Q418.0 190.5 420.5 189.0Q421.0 188.5 424.0 188.5Q426.5 188.5 429.25 189.5Q432.0 190.5 434.5 191.5Q437.0 192.0 439.25 192.75Q441.5 193.5 443.5 194.5Q447.5 195.5 451.0 195.75Q454.5 196.0 458.5 196.0H474.0Q478.0 196.0 493.75 192.5Q509.5 189.0 532.75 183.5Q556.0 178.0 581.5 171.75Q607.0 165.5 630.25 159.25Q653.5 153.0 670.0 148.25Q686.5 143.5 691.0 141.5Q689.5 141.5 689.5 141.0Q684.0 139.0 677.75 137.5Q671.5 136.0 665.5 134.0Q624.5 127.0 583.75 119.25Q543.0 111.5 502.5 103.5Q499.0 103.0 486.0 100.25Q473.0 97.5 458.5 94.5Q444.0 92.0 432.0 89.5Q420.0 87.0 419.0 87.0Q418.5 87.0 406.0 88.25Q393.5 89.5 375.25 91.75Q357.0 94.0 338.0 96.75Q319.0 99.5 304.75 102.0Q290.5 104.5 286.5 106.5Q285.5 107.0 284.25 107.5Q283.0 108.0 282.0 109.0Q281.0 109.5 279.5 110.0Q278.0 110.5 276.0 110.5Q273.5 110.5 272.5 108.25Q271.5 106.0 271.5 104.5Q271.5 101.5 272.5 98.0Q273.5 94.5 274.5 91.0Q275.5 87.5 277.25 83.25Q279.0 79.0 280.5 74.5Q283.5 66.0 286.25 57.5Q289.0 49.0 289.0 42.5Q289.0 41.0 289.25 38.75Q289.5 36.5 290.5 34.5Q291.0 32.5 292.75 30.75Q294.5 29.0 297.0 29.0Q298.0 29.0 299.25 29.5Q300.5 30.0 302.5 30.0Q304.0 31.5 304.5 31.5Q306.0 32.0 306.0 34.5Q306.0 38.0 317.0 43.75Q328.0 49.5 343.5 54.5Q358.0 59.5 371.5 63.25Q385.0 67.0 389.0 68.0Q445.5 81.0 502.5 91.75Q559.5 102.5 617.0 113.5Q634.5 116.0 652.5 119.25Q670.5 122.5 688.5 125.0Q700.0 127.0 711.25 129.0Q722.5 131.0 733.5 132.0Q734.0 132.0 736.5 132.0Q739.0 132.0 741.5 132.5H746.0Q747.0 133.5 748.5 133.5Q748.5 134.0 749.25 134.5Q750.0 135.0 750.0 135.5Q750.0 136.0 749.0 137.0Q748.0 138.0 747.5 138.0Q746.0 139.5 745.5 139.5Q743.5 140.5 741.25 141.25Q739.0 142.0 736.5 143.0Q732.0 144.0 728.0 145.5Q724.0 147.0 723.0 147.0Q699.5 153.5 676.0 159.0Q652.5 164.5 629.0 171.5Q602.0 178.5 575.0 186.25Q548.0 194.0 521.0 201.0Q516.0 202.0 506.0 208.0Q496.0 214.0 484.0 222.25Q472.0 230.5 460.75 239.0Q449.5 247.5 441.5 254.5Q433.5 261.5 431.5 264.5Q430.0 266.0 430.0 266.5Q429.5 268.5 426.5 271.0Q423.5 273.5 421.0 273.5Q419.0 273.5 417.75 272.0Q416.5 270.5 416.0 269.5Q416.0 268.0 415.5 266.5Q415.0 265.0 415.0 264.5Q415.0 261.5 415.5 259.0Q416.0 256.5 416.5 254.0Q416.5 252.0 417.0 250.0Q417.5 248.0 418.0 246.5Q405.5 246.5 393.0 246.0Q380.5 245.5 367.5 245.5Q363.5 245.5 355.0 245.75Q346.5 246.0 336.5 246.75Q326.5 247.5 318.75 249.0Q311.0 250.5 308.5 253.0Q319.0 263.5 327.5 269.5Q336.0 275.5 351.0 275.5H374.0Q383.5 275.5 393.0 276.0Q402.5 276.5 411.5 277.5Q413.0 277.5 414.5 278.0Q416.0 278.5 416.5 278.5Q417.5 279.0 419.0 279.0Q419.0 279.5 420.5 280.5V282.0Q420.5 282.5 419.5 283.5Q418.5 284.5 418.0 284.5Q417.5 285.0 414.5 285.0Q411.0 286.5 408.5 286.5Q399.0 287.5 389.0 287.75Q379.0 288.0 369.0 288.0H336.5Q327.0 288.5 319.25 290.25Q311.5 292.0 307.0 295.0Q305.0 296.0 301.75 297.75Q298.5 299.5 295.5 299.5Q293.0 299.5 291.0 296.5V292.5Q291.0 288.0 291.5 283.25Q292.0 278.5 292.0 274.0Q292.0 269.0 291.5 264.25Q291.0 259.5 291.0 254.5V250.0Q292.0 249.0 292.0 247.75Q292.0 246.5 292.5 245.5Q295.5 241.5 296.5 232.75Q297.5 224.0 297.75 214.75Q298.0 205.5 298.0 200.5V190.5Q298.0 189.5 298.0 188.0Q298.0 186.5 297.0 185.5V183.0Q295.5 184.0 289.75 188.25Q284.0 192.5 277.0 199.0Q266.5 207.0 256.25 215.5Q246.0 224.0 236.0 233.0Q232.0 236.5 228.5 239.5Q225.0 242.5 222.5 246.5Q216.0 253.0 211.25 261.0Q206.5 269.0 201.5 282.0Q199.5 287.0 196.5 295.25Q193.5 303.5 191.0 311.5Q188.5 319.5 188.5 324.5Q188.5 325.0 188.5 327.75Q188.5 330.5 188.0 333.0Q188.0 334.5 187.5 335.75Q187.0 337.0 187.0 338.0Q186.0 341.0 183.5 341.0Q181.0 341.0 179.0 338.0Q178.5 337.0 177.5 335.5Q176.5 334.0 175.5 332.0Q174.5 328.5 172.5 324.25Q170.5 320.0 169.5 315.0Q166.5 306.0 164.25 297.75Q162.0 289.5 161.0 287.5Z" fill="black" /></svg>