<svg xmlns="http://www.w3.org/2000/svg" width="566.5" height="459.0" viewBox="0 0 566.5 459.0"><path d="M47.5 319.5 35.0 313.5Q35.0 317.0 35.25 320.0Q35.5 323.0 36.0 326.5V343.0Q36.0 347.0 35.5 351.75Q35.0 356.5 35.0 361.5Q34.5 365.5 34.25 368.0Q34.0 370.5 34.0 374.5Q37.5 372.0 42.75 366.25Q48.0 360.5 48.0 360.5Q48.0 360.5 48.0 352.5Q48.0 344.5 47.75 334.5Q47.5 324.5 47.5 319.5ZM116.5 338.5Q84.5 329.5 72.25 327.25Q60.0 325.0 60.0 325.0Q60.0 325.0 60.5 328.5Q61.0 332.0 61.0 337.5L62.0 353.5L86.5 345.5Q92.0 344.0 102.25 341.5Q112.5 339.0 116.5 338.5ZM69.5 163.5V163.0Q69.0 162.5 61.5 160.75Q54.0 159.0 46.25 157.0Q38.5 155.0 36.5 155.0Q35.0 155.0 34.5 155.5Q34.0 156.0 34.0 156.0Q34.0 157.5 36.0 161.5Q38.0 166.0 40.75 176.5Q43.5 187.0 45.5 198.5V198.0Q51.5 222.0 56.0 222.0Q59.0 222.0 59.0 211.0Q59.0 206.0 60.5 197.0Q62.0 188.0 64.0 180.0Q69.5 169.0 69.5 163.5ZM230.0 111.0Q228.5 106.5 226.5 101.0Q224.5 95.5 224.5 95.5H202.0Q148.5 97.5 109.25 105.5Q70.0 113.5 51.5 127.5Q48.0 131.5 45.5 134.25Q43.0 137.0 43.0 138.5Q43.0 146.5 78.5 146.5Q90.0 146.5 97.0 148.25Q104.0 150.0 104.0 154.0Q104.0 156.0 101.5 158.75Q99.0 161.5 95.0 161.5Q85.5 161.5 77.25 184.75Q69.0 208.0 65.0 250.0Q64.0 263.5 63.25 276.5Q62.5 289.5 62.25 297.75Q62.0 306.0 62.0 306.0L71.0 309.0Q94.0 315.5 113.0 320.0Q132.0 324.5 151.75 326.75Q171.5 329.0 195.0 329.0Q219.0 329.0 233.75 328.0Q248.5 327.0 248.5 327.0V270.0Q248.5 234.5 244.25 197.5Q240.0 160.5 230.0 111.0ZM268.5 110.0Q269.5 103.5 270.75 99.5Q272.0 95.5 272.0 95.5H240.0L258.0 182.0Q259.0 179.5 259.75 172.75Q260.5 166.0 261.5 158.0Q262.5 145.5 264.75 131.25Q267.0 117.0 268.5 110.0ZM460.0 107.0V102.0Q460.0 98.5 458.5 96.5Q457.0 94.5 450.0 93.5Q443.0 92.5 426.0 92.5Q414.5 92.5 397.0 93.0Q379.5 93.5 355.5 94.0L286.0 95.5L279.5 125.5Q278.0 134.0 276.25 148.5Q274.5 163.0 272.75 180.0Q271.0 197.0 270.0 213.5Q270.0 224.5 269.25 235.75Q268.5 247.0 267.5 258.5Q267.0 271.0 266.5 281.5Q266.0 292.0 265.0 298.5V327.0L472.0 325.5V315.0Q472.0 301.5 469.0 281.25Q466.0 261.0 461.25 238.25Q456.5 215.5 450.5 194.5Q444.5 173.5 438.75 158.5Q433.0 143.5 428.5 138.5Q418.5 127.5 418.5 122.0Q418.5 113.0 441.5 113.0Q452.5 113.0 456.25 112.0Q460.0 111.0 460.0 107.0ZM78.0 81.0Q64.0 76.5 51.25 71.75Q38.5 67.0 34.5 65.0Q32.0 63.0 29.5 63.0H29.0Q29.0 63.5 29.25 64.75Q29.5 66.0 30.0 68.0Q31.5 72.0 32.25 82.25Q33.0 92.5 33.0 101.5V123.5L47.0 115.0Q52.5 109.0 63.75 104.25Q75.0 99.5 85.5 97.0L103.0 91.0Q97.0 88.5 90.75 86.25Q84.5 84.0 78.0 81.0ZM503.5 133.0H489.5Q486.0 133.0 481.25 132.5Q476.5 132.0 471.0 131.5Q467.5 131.0 464.0 130.75Q460.5 130.5 457.0 130.5Q449.5 128.5 446.5 128.5Q442.5 128.5 442.5 130.0Q442.5 132.0 450.0 142.5Q451.0 147.5 456.5 165.5Q462.0 183.5 467.0 203.5Q472.0 223.5 474.5 232.5Q477.0 241.5 479.0 241.5V239.5Q480.5 234.0 481.75 226.0Q483.0 218.0 483.0 211.0Q483.0 206.0 486.5 191.75Q490.0 177.5 494.0 163.5ZM236.0 81.5H276.0Q278.0 79.0 282.0 73.5Q286.0 68.0 286.0 68.0Q282.0 67.0 271.25 66.0Q260.5 65.0 248.75 64.25Q237.0 63.5 230.0 63.5Q223.0 63.5 222.5 63.0Q223.0 64.5 228.0 71.75Q233.0 79.0 236.0 81.5ZM496.0 28.5H495.0Q496.5 27.0 496.5 26.5Q496.5 25.0 489.75 24.5Q483.0 24.0 466.5 24.0H434.0Q438.5 30.5 443.0 37.25Q447.5 44.0 451.0 50.5L471.0 79.5L479.0 59.0Q483.0 49.0 488.25 40.25Q493.5 31.5 496.0 28.5ZM396.5 15.0Q396.5 12.5 419.75 11.25Q443.0 10.0 476.5 10.0Q515.0 10.0 535.75 12.25Q556.5 14.5 556.5 18.5Q556.5 23.5 534.5 27.0Q514.5 30.0 503.25 44.75Q492.0 59.5 486.0 89.0Q483.0 100.0 481.5 108.5Q480.0 117.0 480.0 118.0H512.5Q528.0 118.0 537.0 120.75Q546.0 123.5 546.0 127.0Q546.0 132.5 532.5 134.0Q519.0 136.0 510.25 157.0Q501.5 178.0 496.25 223.75Q491.0 269.5 487.5 347.0Q485.5 395.5 482.5 422.25Q479.5 449.0 477.0 449.0Q472.0 449.0 472.0 393.0V340.0L265.0 343.0V362.0Q265.0 370.5 263.5 377.0Q262.0 383.5 260.5 383.5Q255.5 383.5 252.0 373.5Q248.5 363.5 248.5 352.0V343.0H247.0Q240.0 343.0 223.75 343.75Q207.5 344.5 186.5 346.25Q165.5 348.0 143.5 350.75Q121.5 353.5 102.75 357.25Q84.0 361.0 72.5 365.5Q61.0 370.0 61.0 376.0Q61.0 378.0 57.25 381.0Q53.5 384.0 48.0 386.0Q44.0 386.5 39.25 391.5Q34.5 396.5 32.0 403.0Q30.0 411.0 26.5 416.5Q23.0 422.0 22.0 422.0Q20.0 422.0 19.25 414.5Q18.5 407.0 18.5 394.5Q18.5 386.0 18.75 376.5Q19.0 367.0 19.5 355.5Q19.5 328.5 21.75 309.75Q24.0 291.0 26.5 291.0L46.5 299.0Q46.0 293.5 45.5 280.75Q45.0 268.0 44.5 255.5Q44.0 243.0 43.0 239.0Q31.0 168.0 19.5 166.5Q19.0 167.0 18.75 167.0Q18.5 167.0 18.5 167.0Q17.5 167.5 15.5 167.5Q10.0 167.5 10.0 157.0Q10.0 155.0 10.25 154.0Q10.5 153.0 10.5 151.5Q11.0 145.5 12.25 143.25Q13.5 141.0 15.0 139.0Q15.5 138.5 16.25 138.0Q17.0 137.5 17.0 137.0Q18.0 135.5 18.5 129.75Q19.0 124.0 19.0 116.0Q19.0 109.5 19.0 102.5Q19.0 95.5 18.0 87.5Q17.5 79.0 17.25 71.0Q17.0 63.0 17.0 57.5Q17.0 42.5 19.0 42.5Q21.5 42.5 30.75 46.25Q40.0 50.0 51.5 55.0Q80.0 69.0 108.0 76.0Q136.0 83.0 162.5 83.0Q166.5 83.0 171.0 82.75Q175.5 82.5 179.5 82.0L218.0 81.5L209.5 68.0H210.0Q203.5 61.5 203.5 57.5Q203.5 49.5 217.5 49.5Q223.5 49.5 231.75 50.25Q240.0 51.0 251.0 53.5Q262.5 54.5 273.25 55.0Q284.0 55.5 291.0 55.5Q295.0 55.5 297.75 55.5Q300.5 55.5 302.5 55.0Q314.0 55.0 324.0 60.5Q331.0 67.5 331.5 69.5Q331.0 72.5 327.0 73.0Q323.0 73.5 314.5 73.5Q299.0 73.5 296.0 76.5L292.5 81.0Q298.0 81.0 308.75 81.0Q319.5 81.0 332.25 80.75Q345.0 80.5 356.25 80.5Q367.5 80.5 373.0 80.5Q394.5 80.5 412.0 80.25Q429.5 80.0 440.0 79.5Q450.5 79.0 450.5 78.5Q450.5 73.5 444.25 63.5Q438.0 53.5 429.5 44.0Q421.0 34.5 413.5 31.0Q406.0 27.0 401.25 22.25Q396.5 17.5 396.5 15.0Z" fill="black" /></svg>