<svg xmlns="http://www.w3.org/2000/svg" width="530.0" height="419.0" viewBox="0 0 530.0 419.0"><path d="M79.5 275.5Q76.0 275.5 66.25 272.25Q56.5 269.0 46.5 264.0L23.5 253.5V276.5Q23.5 289.5 24.25 293.75Q25.0 298.0 27.0 298.0Q28.0 298.0 29.25 298.0Q30.5 298.0 31.5 297.5H31.0Q35.0 296.0 40.0 293.75Q45.0 291.5 49.0 289.5Q53.0 287.5 60.25 285.25Q67.5 283.0 74.0 282.0Q85.5 279.5 86.5 276.5Q85.5 275.5 79.5 275.5ZM158.0 310.0 165.0 302.5H129.5L138.0 311.0Q142.0 316.0 145.0 319.25Q148.0 322.5 148.0 322.5Q149.0 320.5 153.0 316.5Q154.0 315.0 155.5 313.5Q157.0 312.0 158.0 310.0ZM351.5 289.0Q351.0 289.5 356.0 285.0Q361.0 280.5 361.5 280.0Q357.5 280.0 346.5 284.0Q336.5 286.5 321.0 286.5Q318.0 286.5 315.5 286.5Q313.0 286.5 311.0 286.0Q306.0 285.5 300.75 285.25Q295.5 285.0 290.5 285.0Q293.0 289.0 299.5 305.5Q300.5 307.5 301.5 310.0Q302.5 312.5 303.5 315.0Q312.0 337.5 314.5 337.5Q315.0 337.5 316.0 336.5Q320.0 329.5 330.75 315.5Q341.5 301.5 351.5 289.0ZM54.5 152.0Q42.5 149.0 31.0 139.5L20.5 131.5V181.0L29.5 174.5Q33.5 172.0 41.0 168.25Q48.5 164.5 53.5 162.5Q65.0 158.0 65.0 156.5Q65.0 155.0 54.5 152.0ZM121.5 212.0 130.0 205.0 135.5 199.5H106.0ZM257.5 128.0Q259.5 125.0 259.5 124.0L259.0 123.5Q256.0 124.5 254.0 127.5Q252.0 129.0 241.75 135.25Q231.5 141.5 218.5 149.5L190.5 166.5L207.5 171.5Q216.0 174.0 221.5 175.5Q227.0 177.0 230.0 177.0Q234.5 177.0 234.5 168.5Q234.5 163.0 237.25 156.25Q240.0 149.5 243.5 145.0Q246.0 142.5 248.75 139.25Q251.5 136.0 254.0 133.0Q255.0 131.0 256.0 130.0Q257.0 129.0 257.5 128.0ZM343.5 141.0 351.0 131.0H330.5Q321.5 131.0 315.75 131.0Q310.0 131.0 309.5 131.5Q310.5 133.5 313.25 138.0Q316.0 142.5 320.0 148.0Q328.0 161.5 332.5 162.5Q333.5 161.5 333.5 159.5Q333.5 157.0 336.25 151.5Q339.0 146.0 343.5 141.0ZM290.5 124.5V123.5H291.0Q292.0 122.5 304.5 121.75Q317.0 121.0 331.5 121.0Q346.5 121.0 359.0 121.75Q371.5 122.5 373.5 123.5L374.5 125.0Q374.5 129.5 362.0 138.5Q353.0 145.0 348.0 152.5Q343.0 160.0 341.0 172.25Q339.0 184.5 339.0 205.0Q339.0 209.5 339.25 214.75Q339.5 220.0 339.5 225.5Q340.0 233.5 340.0 240.5Q340.0 247.5 340.0 252.5Q340.0 270.0 338.5 274.0Q354.0 271.5 373.0 261.5Q384.5 256.0 400.0 247.5Q415.5 239.0 432.0 229.5Q448.5 220.0 463.25 211.5Q478.0 203.0 487.5 197.0Q497.0 191.0 498.5 189.5Q497.0 187.0 480.0 171.5Q463.0 156.0 421.0 120.5Q410.5 112.0 399.5 106.5Q388.5 101.0 370.5 95.5Q352.0 89.5 340.5 86.5Q329.0 83.5 321.5 83.5Q313.5 83.5 305.0 89.5Q296.5 95.5 288.75 104.25Q281.0 113.0 274.5 122.0Q268.0 131.0 264.0 136.5Q253.0 151.0 249.25 157.0Q245.5 163.0 245.5 170.0Q245.5 172.0 245.75 174.75Q246.0 177.5 246.5 181.0Q248.0 188.5 250.0 194.0Q252.0 199.5 257.5 206.5Q263.0 213.5 273.5 226.0Q292.0 244.5 300.0 255.0Q308.0 265.5 308.0 271.0Q308.0 272.5 307.75 273.5Q307.5 274.5 307.0 275.5H306.5Q307.0 276.0 313.5 276.0Q326.0 276.0 335.5 274.5Q335.0 273.5 334.0 271.25Q333.0 269.0 332.0 266.0Q331.0 262.5 330.25 249.25Q329.5 236.0 329.5 220.5Q329.5 201.0 327.25 188.25Q325.0 175.5 318.75 164.5Q312.5 153.5 301.0 140.5Q296.5 135.0 293.5 130.75Q290.5 126.5 290.5 124.5ZM385.5 83.5 385.0 83.0Q379.5 73.0 374.5 53.0L370.5 33.5Q364.5 39.0 358.75 44.25Q353.0 49.5 347.0 55.0Q336.0 64.5 331.5 69.0Q327.0 73.5 327.0 74.5Q327.0 74.5 328.25 74.75Q329.5 75.0 331.5 75.0Q336.0 75.0 346.25 77.25Q356.5 79.5 366.5 82.5L383.0 88.0Q385.5 88.5 387.0 89.0Q388.5 89.5 389.5 90.0Q388.5 87.5 385.5 83.5ZM126.5 315.0 102.0 292.0H149.5Q170.5 292.0 182.75 293.25Q195.0 294.5 195.0 297.0Q195.0 302.5 188.0 302.5Q185.0 302.5 179.5 306.0Q174.0 309.5 168.5 315.0L155.5 328.0L157.5 367.0Q158.0 374.5 158.0 381.0Q158.0 387.5 158.0 393.0Q158.0 409.0 156.0 409.0Q154.0 409.0 151.75 400.5Q149.5 392.0 148.25 379.25Q147.0 366.5 147.0 354.0Q147.0 345.0 145.75 340.25Q144.5 335.5 140.25 330.0Q136.0 324.5 126.5 315.0ZM362.5 26.5Q378.5 10.0 384.5 10.0Q387.0 10.0 387.0 13.0Q387.0 15.5 384.0 21.0Q382.0 24.5 382.0 33.0Q382.0 42.0 384.5 53.5Q387.0 65.0 391.0 72.5Q393.0 76.0 402.0 85.5Q411.0 95.0 423.75 107.25Q436.5 119.5 450.75 132.5Q465.0 145.5 478.25 157.0Q491.5 168.5 501.0 175.75Q510.5 183.0 513.0 183.5Q514.0 183.0 515.0 183.0Q518.0 183.0 519.0 185.0Q520.0 186.5 511.25 193.0Q502.5 199.5 487.25 209.25Q472.0 219.0 453.0 230.0Q430.0 243.0 415.5 251.5Q401.0 260.0 391.75 266.5Q382.5 273.0 375.75 279.75Q369.0 286.5 361.0 295.5Q349.0 309.0 339.0 322.25Q329.0 335.5 322.75 345.0Q316.5 354.5 316.5 358.0Q316.5 363.0 314.0 363.0Q309.0 363.0 304.0 345.5Q302.0 339.0 297.0 326.5Q292.0 314.0 287.0 304.0L275.5 278.5L191.0 280.5Q157.0 281.0 135.25 282.25Q113.5 283.5 98.25 286.0Q83.0 288.5 68.25 293.5Q53.5 298.5 34.0 307.0Q30.5 308.5 27.5 309.75Q24.5 311.0 22.5 312.0Q18.5 313.5 17.5 314.5Q16.0 314.5 15.25 304.75Q14.5 295.0 14.5 282.0Q14.5 266.0 15.25 251.5Q16.0 237.0 17.0 235.5H17.5Q19.0 235.5 24.0 238.5Q29.0 241.5 35.5 245.5Q50.0 256.0 71.75 262.0Q93.5 268.0 111.5 268.0L122.5 266.5L121.5 247.0Q120.5 230.0 114.25 221.25Q108.0 212.5 91.0 204.5Q84.5 202.0 80.0 198.5Q75.5 195.0 75.5 193.0Q75.5 191.0 89.75 190.0Q104.0 189.0 124.0 189.0Q146.0 189.0 159.25 190.25Q172.5 191.5 172.5 194.5Q172.5 196.0 170.5 197.75Q168.5 199.5 166.0 199.5Q162.0 199.5 154.75 202.25Q147.5 205.0 141.25 208.75Q135.0 212.5 133.5 215.5Q132.5 217.5 131.75 225.0Q131.0 232.5 131.0 241.0Q131.0 248.0 131.5 254.75Q132.0 261.5 133.0 264.5Q134.0 266.0 137.75 267.0Q141.5 268.0 153.0 268.5Q164.5 269.0 187.5 269.0H208.5Q229.5 269.0 247.75 269.25Q266.0 269.5 278.25 269.75Q290.5 270.0 293.0 271.0H292.5Q294.5 271.5 297.5 271.5H299.5Q299.5 269.0 292.5 260.25Q285.5 251.5 274.5 240.0Q263.5 228.5 251.5 217.0Q239.5 205.5 229.25 196.75Q219.0 188.0 213.5 185.5Q211.5 184.5 206.0 182.75Q200.5 181.0 195.0 179.0Q193.0 178.5 191.25 178.0Q189.5 177.5 187.5 177.0H188.0Q167.5 172.5 167.5 167.0Q167.5 163.0 176.0 159.0H176.5Q173.5 158.5 140.5 158.5H136.5Q103.0 158.5 79.0 165.0Q55.0 171.5 31.0 186.5Q24.5 190.0 18.75 193.0Q13.0 196.0 11.5 196.0Q11.0 194.0 10.5 177.75Q10.0 161.5 10.0 144.0Q10.0 133.0 10.0 123.5Q10.0 114.0 10.5 110.5L11.5 110.0Q14.0 110.0 26.5 122.5Q35.5 131.0 43.25 136.0Q51.0 141.0 61.75 143.25Q72.5 145.5 90.25 146.25Q108.0 147.0 136.5 147.0H204.0Q207.5 144.5 215.75 139.5Q224.0 134.5 232.25 129.25Q240.5 124.0 243.5 122.0Q259.5 110.5 274.0 100.25Q288.5 90.0 292.5 86.5Q296.5 82.0 305.5 75.0Q314.5 68.0 322.5 61.5Q331.5 54.5 343.0 44.5Q354.5 34.5 362.5 26.5Z" fill="black" /></svg>