<svg xmlns="http://www.w3.org/2000/svg" width="436.5" height="264.0" viewBox="0 0 436.5 264.0"><path d="M124.0 132.5 105.5 129.5Q94.0 127.0 79.5 123.0Q65.0 119.0 55.5 115.5L35.0 107.0L33.5 115.5Q33.0 117.5 32.5 120.75Q32.0 124.0 31.0 128.0Q30.5 131.0 29.75 134.0Q29.0 137.0 28.5 139.5Q26.0 149.5 26.0 153.0Q28.5 152.5 36.0 151.0Q43.5 149.5 52.5 147.0Q64.0 144.0 79.5 140.75Q95.0 137.5 106.0 135.5ZM158.5 184.5Q163.5 179.5 166.5 176.5Q169.5 173.5 170.5 172.0Q169.0 172.0 165.25 173.25Q161.5 174.5 155.0 177.0Q149.0 179.0 138.75 181.75Q128.5 184.5 120.5 186.5Q113.0 187.5 106.75 189.0Q100.5 190.5 99.0 191.5Q101.0 197.5 110.0 211.5L122.0 232.5L131.0 216.5Q135.5 210.0 143.75 200.5Q152.0 191.0 158.5 184.5ZM171.0 171.0 170.5 172.0Q171.0 171.5 171.0 171.25Q171.0 171.0 171.0 171.0ZM166.5 74.5Q161.0 69.0 153.25 60.0Q145.5 51.0 140.0 43.5L128.5 28.0L122.0 38.5Q118.5 43.5 114.25 49.25Q110.0 55.0 106.5 57.5Q104.5 60.0 102.25 62.25Q100.0 64.5 100.0 65.5Q100.0 66.0 106.0 67.25Q112.0 68.5 120.0 69.5Q128.0 70.5 139.5 73.25Q151.0 76.0 159.0 79.0L160.5 79.5Q170.5 83.0 175.5 85.0Q172.5 81.0 166.5 74.5ZM119.5 22.5Q122.0 17.0 124.0 13.5Q126.0 10.0 127.5 10.0Q128.5 10.0 134.0 17.0Q139.5 24.0 146.0 34.0Q155.0 46.5 169.75 62.75Q184.5 79.0 200.5 93.5Q216.5 108.0 228.0 115.5L242.5 126.0L293.5 94.5Q303.5 88.5 312.75 82.75Q322.0 77.0 329.5 72.0Q349.0 60.5 352.5 58.0Q357.0 55.0 360.5 55.0Q363.0 55.0 363.5 57.0Q364.5 59.0 349.5 70.0Q334.5 81.0 312.5 94.5L265.0 123.5L343.0 124.5Q381.5 124.5 404.0 126.25Q426.5 128.0 426.5 130.0Q426.5 132.5 403.75 134.0Q381.0 135.5 341.0 135.5Q296.0 135.5 278.75 136.0Q261.5 136.5 261.5 137.5Q265.5 139.5 277.0 146.5Q288.5 153.5 303.0 163.25Q317.5 173.0 331.5 182.5Q345.5 192.0 354.5 199.25Q363.5 206.5 363.5 209.0L363.0 210.0Q361.0 210.5 343.0 200.25Q325.0 190.0 301.5 174.5Q278.0 159.5 260.75 149.25Q243.5 139.0 242.5 139.0Q240.0 139.0 229.25 145.5Q218.5 152.0 204.5 161.75Q190.5 171.5 178.25 181.0Q166.0 190.5 160.0 196.5Q153.5 203.5 145.75 214.0Q138.0 224.5 134.0 233.0Q130.0 241.5 126.5 247.75Q123.0 254.0 122.0 254.0Q121.5 254.0 117.75 247.5Q114.0 241.0 109.0 231.5Q105.0 223.0 98.75 214.0Q92.5 205.0 88.5 200.0Q85.0 195.0 82.5 191.25Q80.0 187.5 80.0 186.0V185.0Q81.0 184.0 88.75 182.5Q96.5 181.0 106.0 179.5Q122.0 176.5 141.75 170.75Q161.5 165.0 180.0 158.25Q198.5 151.5 211.25 145.5Q224.0 139.5 226.0 136.0Q226.0 134.5 211.0 134.5Q199.0 134.5 179.5 136.25Q160.0 138.0 137.25 141.25Q114.5 144.5 91.5 149.0Q68.5 153.5 48.5 158.5Q34.0 162.0 23.25 164.75Q12.5 167.5 11.5 167.5Q11.0 167.5 10.0 165.5Q11.0 161.5 15.0 150.5Q18.0 144.0 20.75 133.25Q23.5 122.5 24.0 114.5Q25.0 105.5 26.5 99.25Q28.0 93.0 29.0 93.0Q29.0 93.0 35.25 95.25Q41.5 97.5 49.5 101.5Q66.0 109.0 82.0 113.5Q98.0 118.0 118.5 120.25Q139.0 122.5 169.0 123.5L221.5 125.5L206.0 115.5Q179.0 97.5 152.75 88.25Q126.5 79.0 94.5 77.0L78.5 76.0L97.5 53.0Q104.5 44.5 111.0 35.5Q117.5 26.5 119.5 22.5Z" fill="black" /></svg>