<svg xmlns="http://www.w3.org/2000/svg" width="654.0" height="384.0" viewBox="0 0 654.0 384.0"><path d="M41.5 284.0 38.5 282.5Q32.0 280.0 28.5 280.0Q23.0 280.0 23.0 288.0Q23.0 294.0 24.0 294.0Q25.5 294.0 29.75 291.75Q34.0 289.5 37.75 287.0Q41.5 284.5 41.5 284.0ZM45.0 333.0Q45.0 332.5 36.0 330.5Q34.0 330.0 31.0 330.0Q27.5 330.0 27.5 335.5Q27.5 338.5 28.0 341.0Q28.5 343.5 29.5 343.5Q32.0 343.5 38.5 339.0Q45.0 334.5 45.0 333.0ZM80.5 325.5V304.5Q80.5 289.0 79.0 286.5Q77.5 284.0 70.5 284.0Q67.5 284.0 60.25 287.25Q53.0 290.5 45.0 295.5Q37.0 300.5 31.25 305.0Q25.5 309.5 25.5 312.5Q25.5 312.5 27.5 315.5Q30.0 317.5 38.5 319.75Q47.0 322.0 57.0 323.0ZM48.5 155.0Q48.5 147.0 46.0 147.0Q43.5 147.0 36.5 154.0H37.0Q33.5 158.0 33.0 159.5Q37.5 159.5 44.0 162.0H46.0Q48.5 162.0 48.5 155.0ZM100.0 246.5Q100.0 245.0 92.5 245.0Q87.0 245.0 87.0 247.0Q87.0 248.0 87.5 249.0Q90.0 255.0 90.0 260.0V259.5Q92.0 259.5 96.0 254.5Q100.0 249.5 100.0 246.5ZM138.5 244.5 144.5 231.0Q148.5 220.5 148.5 219.0Q148.5 218.5 147.5 218.5Q145.5 218.5 136.0 222.5L127.0 226.5L132.0 235.5ZM241.0 290.0 249.0 289.0 185.0 268.0Q185.0 268.5 184.75 274.0Q184.5 279.5 184.5 286.5Q184.5 296.5 185.0 300.0Q185.5 303.5 187.5 303.5Q189.0 303.5 190.0 303.0Q197.0 300.0 211.25 296.5Q225.5 293.0 241.0 290.0ZM260.0 193.0V192.5Q255.0 190.0 253.5 190.0Q251.0 190.0 251.0 196.0Q251.0 200.5 252.0 200.5Q254.0 200.5 257.0 198.0Q261.0 196.0 262.0 194.0Q262.0 194.0 260.0 193.0ZM259.5 235.0Q255.0 233.0 252.5 233.0Q251.0 233.0 251.0 239.0Q251.0 244.5 254.5 245.5Q257.5 245.5 260.5 241.0Q263.0 238.5 263.0 237.5Q263.0 236.5 259.5 235.0ZM306.5 224.5 353.5 224.0 356.0 190.0 344.0 190.5Q340.5 190.5 335.0 190.75Q329.5 191.0 323.0 191.5Q318.5 191.5 314.0 191.75Q309.5 192.0 305.0 192.0Q289.5 193.0 282.5 195.75Q275.5 198.5 265.5 206.0Q254.0 216.0 254.0 218.5Q254.0 219.5 255.5 220.5Q257.0 222.5 263.25 223.75Q269.5 225.0 283.5 225.0Q288.5 225.0 294.25 225.0Q300.0 225.0 306.5 224.5ZM431.5 194.5 415.5 192.0Q407.5 191.0 400.0 189.5Q392.5 188.0 390.0 187.5Q389.5 187.0 389.0 187.0Q388.5 187.0 388.5 187.0Q385.0 187.0 383.5 205.5V224.5L383.0 225.5Q389.5 221.5 396.0 217.25Q402.5 213.0 409.0 208.5ZM91.0 80.0H90.5Q83.0 76.0 78.5 76.0Q76.0 76.0 76.0 77.0Q76.0 77.5 76.25 78.25Q76.5 79.0 77.0 80.0Q78.0 83.5 81.5 83.5L87.0 82.0Q91.0 81.0 92.5 80.5Q92.0 80.5 91.75 80.25Q91.5 80.0 91.0 80.0ZM127.5 155.5 117.5 145.5Q113.0 141.5 109.75 138.25Q106.5 135.0 106.0 135.0Q106.0 135.0 105.75 139.75Q105.5 144.5 105.5 151.5V167.0ZM156.5 63.0V63.5L152.5 55.5Q151.0 52.5 150.5 52.0Q149.5 53.0 145.75 56.25Q142.0 59.5 137.5 63.5L128.0 72.5H161.5ZM204.5 114.0 173.5 83.5 152.0 84.5Q143.5 84.5 131.5 85.75Q119.5 87.0 107.75 89.25Q96.0 91.5 87.5 93.75Q79.0 96.0 77.5 98.0Q75.0 100.5 71.75 110.0Q68.5 119.5 65.75 131.25Q63.0 143.0 61.25 153.0Q59.5 163.0 59.5 167.5Q60.0 170.5 66.0 177.5Q72.0 184.5 80.25 192.75Q88.5 201.0 96.75 208.25Q105.0 215.5 110.0 219.5Q107.5 216.5 107.5 213.5Q107.5 208.5 112.0 208.5Q114.0 208.5 117.0 210.0Q121.0 212.5 124.5 212.5Q129.5 212.5 139.25 207.75Q149.0 203.0 161.0 196.0Q173.0 189.0 184.25 181.25Q195.5 173.5 203.5 167.0Q211.5 160.5 213.5 158.0Q205.0 158.0 190.75 159.5Q176.5 161.0 161.75 163.25Q147.0 165.5 135.5 168.0Q124.0 170.5 121.0 172.0Q116.5 174.0 112.75 178.0Q109.0 182.0 108.0 184.5Q105.0 194.0 102.0 194.0Q96.0 194.0 96.0 148.5Q96.0 128.0 97.25 116.75Q98.5 105.5 100.5 105.5H101.5Q105.5 109.5 105.5 114.5Q105.5 116.5 111.0 123.0Q116.5 129.5 124.5 137.0L142.5 154.5L183.5 150.5Q201.0 149.0 214.75 147.5Q228.5 146.0 230.5 145.5Q229.5 140.0 204.5 114.0ZM259.0 142.0Q257.5 139.0 253.0 139.0Q250.0 139.0 249.0 141.0Q249.5 141.0 249.5 141.5Q249.5 142.0 249.5 142.0Q250.5 145.0 253.5 145.0Q255.0 145.0 256.0 144.5Q259.0 143.5 259.0 142.0ZM311.0 58.0H310.5Q301.5 53.5 291.25 48.25Q281.0 43.0 276.0 38.5L263.5 30.0Q260.0 34.0 257.0 38.0Q254.0 42.0 250.5 46.0L238.0 59.5L270.5 62.5Q276.0 63.0 281.5 63.25Q287.0 63.5 292.0 63.5Q301.0 64.0 308.75 64.5Q316.5 65.0 320.0 65.0Q322.5 64.5 325.0 64.5Q327.5 64.5 328.0 64.5Q327.0 64.0 322.75 62.5Q318.5 61.0 311.0 58.0ZM366.5 78.5Q366.5 75.5 366.0 75.5Q365.0 75.5 362.5 79.0V79.5Q362.5 80.5 364.0 80.5Q366.5 80.5 366.5 78.5ZM378.0 48.0 385.0 32.5H369.0Q361.0 32.5 358.0 32.75Q355.0 33.0 355.0 34.5Q355.0 36.0 355.5 37.0Q356.0 38.5 357.0 42.5Q359.5 49.0 359.5 55.0V54.5Q361.0 64.0 365.0 64.0Q369.5 64.0 378.0 48.0ZM256.5 19.5V20.0Q262.5 10.0 265.0 10.0Q268.0 10.0 273.0 20.0Q274.5 24.0 284.75 30.5Q295.0 37.0 308.25 43.5Q321.5 50.0 333.0 54.5Q344.5 59.0 348.5 59.0Q351.5 59.0 351.5 56.5Q351.5 51.0 344.0 37.5L334.5 19.5H370.0Q404.5 19.5 404.5 25.5Q404.5 32.0 398.0 34.0Q396.0 34.5 392.0 42.0Q388.0 49.5 384.5 57.75Q381.0 66.0 381.0 70.0Q381.5 70.5 399.25 76.5Q417.0 82.5 447.25 91.75Q477.5 101.0 513.5 111.5Q549.5 122.5 579.0 132.75Q608.5 143.0 626.25 149.75Q644.0 156.5 644.0 157.5Q644.0 159.0 641.0 160.5Q638.0 162.0 627.75 163.75Q617.5 165.5 596.0 169.0Q574.5 172.5 537.0 178.0L457.0 190.0L427.0 210.0Q414.5 218.0 402.25 227.0Q390.0 236.0 386.0 240.5H386.5Q382.5 245.5 378.75 249.0Q375.0 252.5 374.5 252.5Q372.5 252.5 372.5 239.5Q372.5 231.0 373.0 218.5Q373.5 206.0 374.5 193.75Q375.5 181.5 376.5 173.0Q377.5 164.5 378.5 163.5L378.0 164.0Q379.0 162.5 379.5 162.5Q380.5 162.5 382.0 164.25Q383.5 166.0 384.5 168.0Q391.5 180.0 421.5 180.0Q438.5 180.0 464.5 177.0Q487.5 173.5 513.0 170.0Q538.5 166.5 560.75 163.25Q583.0 160.0 597.5 157.75Q612.0 155.5 613.5 155.0Q612.0 154.5 597.5 150.0Q583.0 145.5 560.25 138.5Q537.5 131.5 510.0 123.0Q481.0 114.0 455.25 105.75Q429.5 97.5 412.0 92.0Q394.5 86.5 390.5 85.0Q385.0 83.0 380.0 83.0Q373.5 83.0 370.25 92.0Q367.0 101.0 366.0 125.0Q365.0 149.0 365.0 194.5V285.0H446.5Q486.0 285.0 508.25 286.25Q530.5 287.5 530.5 290.0Q530.5 292.5 508.25 294.0Q486.0 295.5 446.5 295.5Q412.0 295.5 394.5 295.75Q377.0 296.0 371.0 297.0Q365.0 298.0 365.0 300.0Q365.0 307.5 360.0 307.5Q358.5 307.5 356.75 306.0Q355.0 304.5 355.0 301.5Q355.0 300.5 348.25 300.25Q341.5 300.0 325.5 300.0Q318.5 300.0 309.25 300.0Q300.0 300.0 289.0 300.5Q255.5 301.0 235.75 303.0Q216.0 305.0 205.25 308.5Q194.5 312.0 187.5 317.5Q183.0 322.5 179.5 322.5Q176.0 322.5 174.75 316.0Q173.5 309.5 173.5 294.5V284.0Q174.5 268.5 175.75 257.0Q177.0 245.5 178.5 245.5Q181.0 245.5 187.5 253.5Q190.0 256.0 205.75 262.25Q221.5 268.5 240.5 275.0Q262.5 281.5 279.75 284.75Q297.0 288.0 320.0 288.0L353.5 286.5L356.0 236.5H321.0Q305.0 236.5 296.5 237.25Q288.0 238.0 282.75 240.25Q277.5 242.5 271.0 247.0Q264.5 250.5 259.5 255.25Q254.5 260.0 253.5 262.0Q251.5 267.0 248.0 267.0Q247.5 267.0 247.0 266.75Q246.5 266.5 246.0 266.5Q244.5 265.5 243.5 257.0Q242.5 248.5 242.0 236.0Q241.5 223.5 241.5 211.0Q241.5 195.0 242.5 183.0Q243.5 171.0 245.0 171.0Q249.5 171.0 256.0 177.5Q259.5 179.5 270.0 181.0Q280.5 182.5 295.0 182.5Q304.0 182.5 314.5 182.0Q325.0 181.5 336.0 180.0L355.0 178.0V137.0L316.5 141.0Q297.5 142.0 288.0 143.25Q278.5 144.5 273.0 147.25Q267.5 150.0 259.5 156.0Q244.0 168.5 241.0 169.0Q237.5 168.5 237.5 162.0Q237.5 161.0 237.25 159.5Q237.0 158.0 236.5 158.0Q236.0 158.0 232.25 160.5Q228.5 163.0 222.0 167.0Q217.0 170.5 211.25 174.5Q205.5 178.5 198.5 182.5Q182.5 194.0 174.25 200.75Q166.0 207.5 162.5 213.0Q159.0 218.5 156.0 226.5Q153.5 235.0 151.0 244.0Q148.5 253.0 148.5 257.0Q148.5 268.0 144.0 268.0Q140.0 268.0 130.0 252.0Q124.5 240.5 122.0 240.5Q120.0 240.5 117.0 243.5H117.5Q114.5 246.5 110.0 252.5Q105.5 258.5 102.0 264.0L94.5 274.5L125.5 271.0Q131.0 270.5 135.75 270.5Q140.5 270.5 144.0 270.5Q160.5 270.5 160.5 274.0Q160.5 276.5 150.0 278.75Q139.5 281.0 125.0 282.0L90.0 285.0V320.0H126.5Q164.0 320.0 164.0 325.5Q164.0 331.0 128.0 332.0L92.0 333.5L90.5 352.0Q89.0 374.0 85.0 374.0Q80.5 374.0 80.5 353.5Q80.5 340.5 79.0 337.75Q77.5 335.0 71.5 335.0Q68.0 335.0 60.75 338.25Q53.5 341.5 45.75 346.0Q38.0 350.5 32.75 354.75Q27.5 359.0 27.5 361.5Q27.5 363.0 26.25 364.75Q25.0 366.5 22.5 366.5Q21.0 366.5 18.75 351.0Q16.5 335.5 15.0 314.0Q14.0 301.5 13.5 292.25Q13.0 283.0 13.0 277.5Q13.0 262.0 18.5 262.0Q21.0 262.0 28.5 268.0Q37.0 273.5 58.5 273.5Q74.0 273.5 77.25 272.25Q80.5 271.0 80.5 266.0Q80.5 262.0 78.75 257.25Q77.0 252.5 74.5 249.5Q70.0 242.5 70.0 240.0Q70.0 236.0 74.25 234.75Q78.5 233.5 89.5 233.0L107.0 231.5L73.5 202.0Q58.5 188.5 49.75 181.5Q41.0 174.5 35.5 172.0Q30.0 169.5 24.0 169.5Q18.0 169.5 14.0 168.75Q10.0 168.0 10.0 165.0Q10.0 163.5 17.25 156.25Q24.5 149.0 35.5 140.0Q60.0 118.5 62.0 106.0Q63.0 101.5 64.75 96.5Q66.5 91.5 67.0 88.5L67.5 87.5Q67.5 82.0 60.0 73.5H60.5Q53.0 66.5 52.0 62.0Q52.0 60.0 53.0 60.0Q54.0 59.0 55.5 59.0Q58.5 59.0 66.0 60.75Q73.5 62.5 82.0 65.0Q90.5 68.0 99.0 69.5Q107.5 71.0 111.5 71.0H113.0Q116.5 69.5 123.75 62.5Q131.0 55.5 139.0 47.5Q147.5 38.5 154.25 32.0Q161.0 25.5 162.0 25.5Q164.0 25.5 164.0 30.5Q164.0 32.5 163.5 35.75Q163.0 39.0 162.0 42.0Q161.5 43.5 161.5 44.75Q161.5 46.0 161.5 47.0Q161.5 51.0 164.25 55.5Q167.0 60.0 175.0 68.5Q183.0 77.0 198.0 93.0Q232.0 127.0 237.0 127.0Q238.5 120.5 242.0 120.5Q244.5 120.5 252.0 126.5V126.0Q259.5 131.5 284.5 131.5Q293.0 131.5 303.0 131.0Q313.0 130.5 326.0 129.5L355.0 126.5V105.5Q355.0 97.0 354.25 89.75Q353.5 82.5 352.5 81.0Q351.5 78.5 337.75 77.0Q324.0 75.5 304.75 74.5Q285.5 73.5 267.5 73.5Q240.0 73.5 230.0 76.0Q220.0 78.5 215.5 78.5Q212.0 78.5 211.0 77.0L210.5 76.0Q210.5 74.0 216.25 66.5Q222.0 59.0 230.5 50.5Q240.5 41.0 247.75 32.0Q255.0 23.0 256.5 19.5Z" fill="black" /></svg>