<svg xmlns="http://www.w3.org/2000/svg" width="675.5" height="377.0" viewBox="0 0 675.5 377.0"><path d="M137.0 270.0 112.0 263.5Q99.5 260.0 82.75 253.5Q66.0 247.0 55.5 242.0L30.5 228.5V306.0Q49.0 298.5 67.25 291.75Q85.5 285.0 105.0 280.0H104.5ZM155.0 190.0 151.0 180.5V188.0Q150.5 191.5 150.25 195.75Q150.0 200.0 150.0 200.0Q152.0 197.0 153.5 193.5Q155.0 190.0 155.0 190.0ZM223.5 221.0Q215.5 216.5 204.25 211.5Q193.0 206.5 184.5 203.0Q176.0 199.5 176.0 199.5L167.5 206.0V232.5L168.0 258.5L199.5 259.5Q216.0 260.0 227.25 260.0Q238.5 260.0 238.5 260.0V230.5Q237.0 229.5 232.5 226.25Q228.0 223.0 223.5 221.0ZM238.0 202.5 236.5 192.5H207.5L191.5 193.0L238.5 217.0Q238.5 214.0 238.5 209.0Q238.5 204.0 238.0 202.5ZM237.5 171.5V157.0Q235.5 158.0 231.5 160.5Q227.5 163.0 222.0 167.0V166.5Q219.0 168.5 212.5 172.0Q206.0 175.5 200.75 178.0Q195.5 180.5 195.5 180.5Q204.0 180.0 216.0 179.75Q228.0 179.5 232.0 179.5H236.5Q237.0 177.5 237.25 174.75Q237.5 172.0 237.5 171.5ZM286.5 260.5 277.5 255.5 254.5 241.0V260.0H270.5ZM326.0 146.0Q324.5 136.0 323.0 131.75Q321.5 127.5 317.0 126.75Q312.5 126.0 302.0 126.0H290.5L254.5 148.0Q254.5 151.0 254.25 160.75Q254.0 170.5 254.0 182.0V195.0L254.5 225.0Q257.0 226.5 262.75 230.25Q268.5 234.0 274.25 237.75Q280.0 241.5 282.5 243.0Q287.5 245.5 293.5 250.0Q299.5 254.5 304.0 257.75Q308.5 261.0 308.5 261.0L326.5 262.0Q326.5 257.5 326.75 243.75Q327.0 230.0 327.5 213.5Q328.0 208.0 328.0 202.75Q328.0 197.5 328.0 192.5Q328.0 178.5 327.5 165.75Q327.0 153.0 326.0 146.0ZM499.0 242.5Q501.5 238.0 502.5 234.25Q503.5 230.5 504.0 228.5Q502.0 229.0 493.5 234.25Q485.0 239.5 475.0 246.0Q465.0 252.5 457.5 257.25Q450.0 262.0 450.0 262.0Q452.5 263.0 457.25 264.5Q462.0 266.0 466.5 267.0Q473.0 268.0 480.0 270.0Q487.0 272.0 493.0 275.0Q493.5 274.5 494.0 274.5Q494.5 274.5 494.5 274.0Q494.5 272.5 493.0 269.0V266.5Q493.0 261.5 494.5 254.5Q496.0 247.5 499.0 242.5ZM153.0 109.0 150.5 106.0V134.0L153.5 132.0V119.0Q153.5 114.0 153.25 111.5Q153.0 109.0 153.0 109.0ZM182.5 27.5V26.5Q177.5 24.0 157.0 24.0Q146.5 24.0 142.25 24.75Q138.0 25.5 138.0 28.0Q138.0 28.0 139.0 31.0Q140.5 34.5 144.0 44.5Q147.5 54.5 151.0 65.5Q156.5 84.0 158.5 84.0Q159.5 84.0 162.0 77.5Q164.5 72.5 168.5 63.75Q172.5 55.0 176.0 46.5Q179.5 40.0 181.0 35.0Q182.5 30.0 182.5 27.5ZM192.0 121.5 166.5 114.5V128.5Q169.0 128.0 175.25 126.25Q181.5 124.5 186.75 123.0Q192.0 121.5 192.0 121.5ZM165.5 172.0 174.5 180.5Q191.0 169.5 205.25 161.0Q219.5 152.5 228.25 147.5Q237.0 142.5 237.0 142.5V128.5Q225.0 128.5 213.75 129.25Q202.5 130.0 191.0 134.0Q183.0 136.0 174.5 139.5Q166.0 143.0 166.0 143.0Q166.0 145.0 165.75 150.25Q165.5 155.5 165.5 161.5ZM262.5 30.5Q262.5 30.0 257.5 29.5Q252.5 29.0 245.5 29.0Q239.0 29.0 233.75 29.5Q228.5 30.0 228.5 30.5Q228.5 34.0 231.5 44.5Q234.5 55.0 238.0 65.25Q241.5 75.5 243.0 79.0Q245.0 78.0 248.25 72.0Q251.5 66.0 254.75 57.5Q258.0 49.0 260.25 41.5Q262.5 34.0 262.5 30.5ZM254.5 126.5V132.5L266.5 126.5ZM351.0 31.0Q352.0 30.0 352.0 29.0Q352.0 28.0 352.0 27.5Q352.0 25.0 347.5 24.5Q343.0 24.0 330.0 24.0H306.5L317.5 55.5Q322.0 68.0 325.5 77.5Q329.0 87.0 329.5 87.0Q330.5 87.0 333.0 80.25Q335.5 73.5 339.0 64.0L341.5 57.5Q347.5 38.5 351.0 31.0ZM552.5 108.0Q552.5 106.5 551.5 106.5Q548.5 106.5 540.5 111.25Q532.5 116.0 516.5 127.0L489.0 146.0L508.5 152.0Q527.5 158.0 532.5 158.0Q536.5 158.0 537.0 155.25Q537.5 152.5 537.5 146.0Q537.5 139.0 540.0 132.0Q542.5 125.0 545.5 120.5Q552.5 111.5 552.5 108.0ZM119.5 13.0Q119.5 11.5 125.25 10.75Q131.0 10.0 139.5 10.0Q151.0 10.0 165.0 10.5Q179.0 11.0 190.0 11.75Q201.0 12.5 202.5 13.5Q203.5 14.0 199.25 25.0Q195.0 36.0 188.5 49.0Q182.5 61.0 177.5 72.5Q172.5 84.0 169.5 91.5Q166.5 99.0 166.5 99.0Q169.0 101.0 171.75 102.25Q174.5 103.5 177.5 104.5L180.0 105.5Q186.5 108.0 199.75 110.75Q213.0 113.5 220.5 114.0L236.0 114.5L233.5 98.5Q232.5 91.5 228.5 77.75Q224.5 64.0 220.5 51.5Q217.5 41.5 215.5 32.5Q213.5 23.5 213.5 20.0Q213.5 17.5 214.5 16.5Q215.5 15.5 220.5 15.5Q225.5 15.5 232.0 15.5Q241.5 15.5 251.75 16.0Q262.0 16.5 270.0 17.5Q278.0 18.5 279.0 20.0V21.0Q279.0 23.0 276.5 30.75Q274.0 38.5 270.0 47.0Q266.5 57.0 262.25 70.25Q258.0 83.5 257.0 91.5L254.5 114.5L287.5 115.0L320.0 114.5L316.0 96.0Q314.0 88.0 310.25 74.0Q306.5 60.0 302.5 49.0Q298.0 37.5 295.0 27.75Q292.0 18.0 291.5 16.0Q291.0 13.5 302.75 12.0Q314.5 10.5 329.0 10.5Q343.5 10.5 356.5 11.5Q369.5 12.5 372.0 14.5V14.0Q373.5 14.5 373.5 17.5Q373.5 20.5 371.25 25.0Q369.0 29.5 365.5 34.5Q355.5 48.5 350.25 65.0Q345.0 81.5 343.0 108.25Q341.0 135.0 341.0 179.5V262.0L387.5 259.5Q405.5 259.0 416.0 258.25Q426.5 257.5 434.0 255.0Q441.5 252.5 449.5 247.5Q457.5 242.5 471.0 233.0Q474.0 231.0 484.0 224.0Q494.0 217.0 506.0 208.25Q518.0 199.5 526.75 191.75Q535.5 184.0 535.5 180.5Q535.5 179.0 530.0 174.5V175.0Q525.5 172.5 512.5 168.0Q499.5 163.5 485.0 161.0L444.5 152.5L472.0 139.0Q484.0 133.0 501.25 122.0Q518.5 111.0 535.25 98.75Q552.0 86.5 564.75 76.5Q577.5 66.5 580.5 62.0Q587.0 52.5 592.0 52.5Q593.0 52.5 593.75 54.0Q594.5 55.5 594.5 56.5Q594.5 64.0 587.0 73.0Q579.5 83.5 571.25 96.75Q563.0 110.0 557.25 124.0Q551.5 138.0 551.5 151.5Q552.5 156.5 555.5 160.25Q558.5 164.0 561.5 164.0Q567.5 164.0 567.5 170.0Q567.5 170.5 567.25 171.25Q567.0 172.0 567.0 172.5V173.0Q567.5 176.5 578.0 185.0Q588.5 193.5 607.0 206.0Q634.5 224.5 650.0 238.0Q665.5 251.5 665.5 256.0Q665.5 259.0 662.0 259.0Q660.0 259.0 647.5 250.5Q635.0 242.0 619.5 231.0Q605.5 221.0 589.5 209.75Q573.5 198.5 566.0 195.0L547.5 185.5Q543.0 191.5 536.0 201.5Q529.0 211.5 522.0 222.75Q515.0 234.0 510.25 244.0Q505.5 254.0 505.5 259.5Q505.5 267.0 512.0 277.25Q518.5 287.5 527.0 296.0Q535.5 304.5 541.5 308.0Q556.5 317.5 570.5 329.0Q584.5 340.5 593.75 350.0Q603.0 359.5 603.5 363.5Q603.0 364.0 603.0 365.5V365.0Q602.5 367.0 600.5 367.0Q597.5 367.0 591.75 363.25Q586.0 359.5 579.5 354.0Q568.5 344.0 553.25 333.0Q538.0 322.0 521.5 311.5Q505.0 301.0 490.0 293.25Q475.0 285.5 465.0 282.0Q454.0 278.0 434.75 276.0Q415.5 274.0 389.5 274.0H341.0V283.5Q341.5 287.5 341.5 292.25Q341.5 297.0 341.5 301.0Q341.5 316.5 339.5 328.25Q337.5 340.0 334.5 340.0Q332.0 340.0 330.25 332.75Q328.5 325.5 328.5 316.0Q328.5 314.0 328.0 308.0Q327.5 302.0 327.25 296.5Q327.0 291.0 327.0 291.0L306.0 274.5Q304.5 274.5 296.5 274.25Q288.5 274.0 278.0 274.0H254.5L252.5 302.5Q252.0 316.5 250.75 325.75Q249.5 335.0 246.5 335.0Q244.0 335.0 242.5 325.75Q241.0 316.5 240.0 302.5L238.0 273.5L206.5 274.5L170.0 277.0L166.5 319.0Q165.0 340.5 161.5 340.5Q159.5 340.5 158.25 333.5Q157.0 326.5 156.5 315.5Q156.0 301.0 155.0 290.5Q154.0 280.0 154.0 280.0Q151.0 281.0 139.5 284.0Q128.0 287.0 113.5 291.0Q96.5 296.0 77.25 302.25Q58.0 308.5 47.5 314.0Q23.5 324.5 15.5 324.5Q10.0 324.5 10.0 320.0Q10.0 318.0 12.5 313.0V313.5Q14.5 309.0 16.25 292.0Q18.0 275.0 18.0 255.0Q18.0 234.0 18.5 219.25Q19.0 204.5 21.0 204.5Q22.0 204.5 25.5 206.75Q29.0 209.0 34.5 213.0Q58.0 228.5 86.0 241.25Q114.0 254.0 142.5 256.0Q151.0 256.5 152.75 256.5Q154.5 256.5 154.5 256.5Q154.5 254.0 154.75 248.25Q155.0 242.5 155.0 234.5V212.5Q151.5 214.5 147.5 216.0Q143.5 217.5 139.0 217.5Q135.5 217.5 135.5 214.0Q135.5 212.0 137.0 208.5Q138.0 204.5 139.0 196.0Q140.0 187.5 140.0 179.5Q140.0 168.5 141.0 164.25Q142.0 160.0 145.5 160.0Q147.0 160.0 149.0 161.0Q150.5 161.5 152.75 163.0Q155.0 164.5 155.0 164.5V147.5Q154.0 148.0 152.25 148.75Q150.5 149.5 149.0 150.5Q148.5 150.5 148.0 150.75Q147.5 151.0 147.0 151.0Q143.5 151.0 142.0 144.5Q140.5 138.0 140.5 120.5V88.0L141.5 87.5Q142.5 87.5 146.25 89.75Q150.0 92.0 150.0 92.0L148.0 87.0Q148.0 87.0 144.75 78.75Q141.5 70.5 137.5 60.0Q133.5 49.5 130.0 43.0Q128.5 38.0 126.75 33.5Q125.0 29.0 124.0 25.5Q122.0 21.0 120.75 17.25Q119.5 13.5 119.5 13.0ZM327.0 274.5V275.0H326.5Q326.0 274.5 324.75 273.75Q323.5 273.0 321.5 270.5L321.0 272.5Q321.0 272.5 321.25 272.75Q321.5 273.0 322.0 273.0Q323.0 273.0 324.0 273.0Q325.0 273.0 325.5 273.0H326.5L327.0 272.5Q327.0 273.0 327.0 273.25Q327.0 273.5 327.0 274.5Z" fill="black" /></svg>