<svg xmlns="http://www.w3.org/2000/svg" width="650.0" height="378.5" viewBox="0 0 650.0 378.5"><path d="M61.0 274.5Q52.0 270.5 45.0 267.25Q38.0 264.0 37.0 264.0Q36.5 264.0 35.5 274.25Q34.5 284.5 33.75 298.75Q33.0 313.0 32.25 326.25Q31.5 339.5 31.5 345.5V347.5Q35.5 346.5 47.25 343.5Q59.0 340.5 74.5 336.0Q93.0 330.5 108.5 326.5Q124.0 322.5 127.5 322.5Q136.0 322.5 136.0 316.5Q136.0 315.5 135.75 314.75Q135.5 314.0 135.5 313.5Q134.5 307.5 128.5 303.5Q122.5 299.5 108.5 294.5Q97.5 290.5 83.75 285.0Q70.0 279.5 61.0 274.5ZM181.0 310.5Q177.5 310.0 170.75 309.0Q164.0 308.0 159.5 307.0Q157.5 306.0 156.0 306.0Q154.5 306.0 153.5 306.0Q149.0 306.0 149.0 310.5Q149.0 316.5 157.5 316.5Q164.5 316.5 178.5 312.0L180.0 311.5Q181.0 311.0 181.5 311.0Q182.0 311.0 182.5 310.5Q182.0 310.5 181.75 310.5Q181.5 310.5 181.0 310.5ZM228.0 172.0H227.5Q216.5 166.0 212.0 166.0Q208.5 166.0 207.25 170.75Q206.0 175.5 206.0 187.0V207.5L220.5 203.0Q227.5 201.0 233.0 199.75Q238.5 198.5 239.0 198.5Q239.5 198.5 239.5 195.0Q239.5 191.5 239.5 188.0Q239.5 176.5 228.0 172.0ZM279.5 186.0Q269.0 181.5 260.5 181.5Q253.5 181.5 253.5 184.0V185.0Q255.5 188.5 258.0 188.5Q259.0 188.5 260.5 188.25Q262.0 188.0 264.0 188.0Q266.5 188.0 269.75 187.75Q273.0 187.5 276.5 187.5H283.0Q282.5 187.0 279.5 186.0ZM307.5 302.0V249.0Q307.5 216.5 306.25 206.75Q305.0 197.0 301.0 197.0H299.5Q264.5 200.0 259.0 207.5Q257.5 209.5 256.75 217.25Q256.0 225.0 256.0 236.5Q256.0 241.5 256.0 246.75Q256.0 252.0 256.5 258.0L259.0 302.0ZM369.0 302.0V217.0Q369.0 198.5 367.25 192.75Q365.5 187.0 357.5 187.0Q351.0 187.0 341.0 188.5Q339.0 188.5 337.0 188.75Q335.0 189.0 333.0 189.5L320.0 191.5V302.0ZM164.5 34.0V34.5L165.0 33.5Q165.0 32.0 158.25 31.25Q151.5 30.5 135.0 30.5Q121.5 30.5 111.75 30.75Q102.0 31.0 102.0 32.0Q102.0 32.5 104.75 38.5Q107.5 44.5 111.5 53.0V52.5Q116.0 60.5 121.0 70.75Q126.0 81.0 128.5 88.0L133.5 100.5L137.0 85.5Q141.0 71.5 148.75 58.75Q156.5 46.0 164.5 34.0ZM259.0 61.5V62.0Q259.5 61.0 259.5 60.0Q259.5 56.5 246.5 56.5H242.5Q232.5 56.5 232.5 61.0Q232.5 64.0 234.0 69.5Q235.5 75.0 238.0 85.0L243.5 109.5L250.0 91.0Q252.5 82.0 255.25 73.5Q258.0 65.0 259.0 61.5ZM294.0 110.0Q291.0 97.0 287.75 84.0Q284.5 71.0 282.0 66.0L278.5 55.0L271.0 70.0Q267.0 77.5 263.25 92.75Q259.5 108.0 257.25 124.75Q255.0 141.5 255.0 153.0Q255.0 162.0 257.0 165.0Q258.5 166.5 266.75 168.5Q275.0 170.5 284.5 171.0L307.0 174.0L304.5 158.5Q304.0 154.0 302.25 146.25Q300.5 138.5 298.5 130.0Q297.5 125.0 296.25 120.0Q295.0 115.0 294.0 110.0ZM323.0 57.5Q323.0 57.0 319.0 56.75Q315.0 56.5 308.5 56.5Q301.5 56.5 298.0 57.0Q294.5 57.5 294.5 61.0Q294.5 63.5 296.25 70.0Q298.0 76.5 300.25 84.0Q302.5 91.5 304.75 96.75Q307.0 102.0 308.5 102.0L309.0 101.5Q312.0 92.5 315.25 82.75Q318.5 73.0 320.75 65.5Q323.0 58.0 323.0 57.5ZM362.5 127.5 361.5 123.5Q358.0 109.0 353.75 92.75Q349.5 76.5 346.5 70.0L340.0 55.0L332.5 73.0Q329.0 82.0 325.25 99.5Q321.5 117.0 320.5 133.5L318.5 172.5H348.5Q359.0 172.5 363.75 171.0Q368.5 169.5 368.5 163.0Q368.5 153.5 362.5 127.5ZM382.5 76.0 389.5 56.5H358.0Q359.0 60.5 361.75 71.5Q364.5 82.5 367.75 92.75Q371.0 103.0 373.5 105.5Q374.5 103.5 375.25 100.5Q376.0 97.5 377.0 94.0Q380.0 86.0 382.5 76.0ZM613.0 26.5Q613.0 25.5 601.75 25.25Q590.5 25.0 575.0 25.0H538.0L552.5 53.0Q559.0 65.0 564.0 77.25Q569.0 89.5 571.0 94.5Q573.0 102.5 576.0 102.5Q580.0 102.5 584.0 83.5Q585.5 76.0 590.0 65.25Q594.5 54.5 599.5 46.5Q605.0 39.0 609.0 33.0Q613.0 27.0 613.0 26.5ZM514.5 12.0Q514.5 10.0 522.0 10.0Q529.5 10.0 543.5 10.5Q557.5 11.0 573.75 11.5Q590.0 12.0 604.75 12.75Q619.5 13.5 629.0 14.0Q638.5 14.5 639.0 15.0L640.0 16.0Q640.0 18.0 636.5 22.0Q633.0 26.0 627.5 31.5Q614.0 45.5 605.75 62.0Q597.5 78.5 593.5 102.25Q589.5 126.0 589.5 162.0Q589.5 177.5 590.25 195.0Q591.0 212.5 592.0 233.5Q593.5 262.5 594.75 278.5Q596.0 294.5 597.75 300.75Q599.5 307.0 601.5 307.0Q610.0 307.0 610.0 313.5Q610.0 316.5 607.25 318.5Q604.5 320.5 600.5 320.5Q594.0 320.5 594.0 337.5Q594.0 354.5 589.5 354.5Q588.0 354.5 587.5 353.5V354.0Q585.5 352.5 583.5 347.0Q581.5 341.5 581.5 335.5V322.0L533.0 319.0Q519.0 317.5 500.5 316.75Q482.0 316.0 463.75 315.5Q445.5 315.0 432.0 315.0H381.5V330.0Q381.5 345.0 376.5 345.0Q376.0 345.0 375.75 344.75Q375.5 344.5 375.0 344.5Q373.0 342.0 371.0 337.25Q369.0 332.5 369.0 326.5Q369.0 319.0 365.5 317.0Q362.0 315.0 344.5 315.0Q332.5 315.0 327.25 315.75Q322.0 316.5 321.0 319.5Q320.0 322.5 320.0 329.5Q320.0 336.0 318.0 341.25Q316.0 346.5 313.5 346.5Q311.0 346.5 309.25 341.25Q307.5 336.0 307.5 329.5Q307.5 319.5 304.0 317.25Q300.5 315.0 282.0 315.0Q264.0 315.0 260.75 317.25Q257.5 319.5 257.5 329.5Q257.5 336.0 255.5 341.25Q253.5 346.5 251.0 346.5Q249.0 346.5 247.0 341.25Q245.0 336.0 245.0 329.5Q245.0 323.5 244.0 319.25Q243.0 315.0 242.0 315.0Q236.0 315.0 218.25 318.25Q200.5 321.5 176.5 326.5Q152.5 331.5 128.0 337.5Q103.5 343.5 83.5 348.5Q63.5 353.5 53.5 357.0Q38.0 362.0 26.25 365.25Q14.5 368.5 11.5 368.5H11.0Q10.0 368.0 10.0 366.0Q10.0 363.5 11.5 356.5Q13.0 349.5 15.0 341.0Q18.0 331.0 20.25 313.0Q22.5 295.0 22.5 279.5Q22.5 263.0 24.0 252.0Q25.5 241.0 27.5 241.0Q64.5 259.5 89.75 270.75Q115.0 282.0 123.0 285.0H122.5L136.5 288.0L133.5 212.5Q133.0 191.5 131.5 171.75Q130.0 152.0 128.25 137.25Q126.5 122.5 125.0 117.5Q122.0 108.0 115.5 92.5Q109.0 77.0 101.25 61.5Q93.5 46.0 87.5 35.5Q81.5 25.0 79.5 25.0Q75.5 25.0 75.5 21.0Q75.5 19.0 76.5 18.0Q77.5 17.0 87.5 16.5Q97.5 16.0 111.5 16.0Q128.5 16.0 146.75 16.5Q165.0 17.0 178.5 18.0Q192.0 19.0 193.5 20.5L193.0 20.0Q196.0 20.0 190.5 26.75Q185.0 33.5 176.5 42.5Q164.5 55.5 157.5 70.25Q150.5 85.0 147.25 106.25Q144.0 127.5 144.0 160.5Q144.0 167.0 144.5 181.5Q145.0 196.0 145.5 214.25Q146.0 232.5 147.0 249.75Q148.0 267.0 148.75 278.75Q149.5 290.5 150.5 291.5Q151.5 292.5 165.75 294.0Q180.0 295.5 200.0 296.0L245.0 298.5V255.0Q245.0 237.5 243.75 224.75Q242.5 212.0 241.5 212.0Q239.5 212.0 231.75 214.25Q224.0 216.5 215.5 219.5Q206.0 223.0 198.75 225.25Q191.5 227.5 190.5 227.5V225.5Q190.5 223.0 191.0 214.0Q191.5 205.0 192.25 193.25Q193.0 181.5 193.75 170.0Q194.5 158.5 195.0 150.75Q195.5 143.0 195.5 142.5H196.0Q198.0 142.5 209.0 147.5Q211.5 148.0 213.75 149.25Q216.0 150.5 219.0 151.5Q229.5 158.0 234.5 158.0Q239.0 158.0 239.0 151.0Q239.0 145.5 236.5 134.5Q234.0 123.5 229.0 106.0L216.0 52.5Q216.0 51.5 215.75 50.5Q215.5 49.5 215.5 49.0Q215.5 45.0 221.75 43.0Q228.0 41.0 248.25 40.5Q268.5 40.0 310.5 40.0Q337.5 40.0 359.5 40.75Q381.5 41.5 394.5 42.5Q407.5 43.5 407.5 45.5Q407.5 46.5 404.5 54.75Q401.5 63.0 397.0 73.0Q392.0 84.0 388.5 102.0Q385.0 120.0 383.0 136.0L380.0 174.0L475.5 171.0Q492.5 170.0 507.5 170.0Q522.5 170.0 534.5 170.0Q552.5 170.0 562.75 170.75Q573.0 171.5 573.0 173.5Q573.0 175.5 559.75 177.75Q546.5 180.0 525.0 181.75Q503.5 183.5 477.75 184.75Q452.0 186.0 426.5 186.0H381.5V302.0H423.5Q435.5 302.0 453.25 302.25Q471.0 302.5 490.0 303.25Q509.0 304.0 524.5 305.5L583.0 308.5L579.5 228.5Q578.0 194.5 574.75 169.0Q571.5 143.5 566.25 122.5Q561.0 101.5 552.25 82.0Q543.5 62.5 530.5 41.0Q524.0 29.5 519.25 21.25Q514.5 13.0 514.5 12.0Z" fill="black" /></svg>