<svg xmlns="http://www.w3.org/2000/svg" width="748.5" height="455.0" viewBox="0 0 748.5 455.0"><path d="M92.5 305.0H91.0Q87.5 305.5 82.0 306.5Q76.5 307.5 69.0 308.0L51.5 310.0L69.0 333.5L80.0 320.5Q85.0 315.0 88.75 310.5Q92.5 306.0 92.5 305.0ZM196.0 259.5H196.5ZM271.0 291.0H270.5Q270.5 291.0 270.5 291.0Q270.5 291.0 271.0 291.0ZM417.0 348.0 415.0 347.5Q410.5 345.5 407.5 344.25Q404.5 343.0 402.0 343.0Q401.0 343.0 400.0 347.5V349.5Q399.5 351.0 398.75 354.5Q398.0 358.0 396.5 361.0Q395.5 363.0 395.25 364.75Q395.0 366.5 394.5 367.5L393.0 373.5L429.5 364.5Q441.0 361.5 448.0 360.0Q455.0 358.5 458.5 358.0Q454.5 357.0 450.5 357.0Q442.5 355.5 432.75 352.75Q423.0 350.0 417.0 348.0ZM340.0 249.5Q338.0 247.0 329.5 240.25Q321.0 233.5 309.5 225.0L280.0 203.5Q277.0 205.0 270.25 209.5Q263.5 214.0 256.5 218.5Q249.5 223.0 246.5 225.0Q233.0 233.5 222.5 240.25Q212.0 247.0 212.0 247.0Q212.0 248.5 219.75 254.75Q227.5 261.0 238.5 269.0Q249.5 277.0 259.0 283.25Q268.5 289.5 272.0 291.0Q275.5 289.5 285.75 283.75Q296.0 278.0 307.75 271.0Q319.5 264.0 328.75 257.75Q338.0 251.5 340.0 249.5ZM373.5 254.0Q374.5 254.0 376.5 249.5Q378.5 245.0 378.5 243.5Q378.5 243.0 378.0 243.0Q377.5 243.0 377.5 243.0Q374.0 243.0 371.0 245.5Q368.5 247.0 367.5 249.0Q369.5 250.0 370.0 252.0Q371.5 252.5 372.25 253.25Q373.0 254.0 373.5 254.0ZM456.5 231.5 443.0 229.0Q432.0 226.0 424.75 224.75Q417.5 223.5 412.0 223.5Q403.5 223.5 398.25 232.0Q393.0 240.5 393.0 249.0Q394.5 249.0 398.0 247.25Q401.5 245.5 406.5 243.5Q414.5 241.0 426.5 237.75Q438.5 234.5 448.0 234.0ZM89.0 151.5Q88.0 148.5 86.5 143.75Q85.0 139.0 83.5 134.0L76.5 116.5L64.0 129.5Q56.0 137.0 53.5 141.5Q56.5 142.5 63.25 144.75Q70.0 147.0 77.5 148.75Q85.0 150.5 89.0 151.5ZM148.0 65.0V66.0Q144.5 55.5 142.0 55.5Q139.5 55.5 134.0 59.75Q128.5 64.0 123.75 69.0Q119.0 74.0 118.0 76.5Q118.5 75.5 121.5 75.5Q124.0 75.5 131.25 78.0Q138.5 80.5 145.0 83.5Q148.0 85.5 150.25 86.75Q152.5 88.0 153.5 88.5Q153.5 87.5 153.0 87.0Q152.0 83.0 150.5 76.75Q149.0 70.5 148.0 65.0ZM156.5 108.0Q147.0 101.0 133.75 96.75Q120.5 92.5 109.0 92.5Q105.5 92.5 101.5 93.0Q97.5 93.5 96.0 95.5Q94.0 96.0 93.25 99.0Q92.5 102.0 92.5 105.5Q92.5 125.0 102.75 145.0Q113.0 165.0 129.25 182.5Q145.5 200.0 163.75 214.0Q182.0 228.0 197.5 235.5Q200.5 235.5 211.25 229.75Q222.0 224.0 234.75 216.5Q247.5 209.0 257.0 202.75Q266.5 196.5 266.5 195.0Q266.5 193.5 251.75 181.25Q237.0 169.0 212.0 149.75Q187.0 130.5 156.5 108.0ZM439.5 105.0Q434.5 104.0 426.25 101.5Q418.0 99.0 409.5 96.5L387.5 89.5L385.5 98.5Q384.5 103.5 382.5 110.0Q380.5 116.5 379.0 120.5Q379.0 122.0 378.0 123.0Q379.0 123.0 380.5 121.5Q382.0 120.5 394.5 116.5Q407.0 112.5 421.0 109.5Q427.0 108.0 431.75 106.75Q436.5 105.5 439.5 105.0ZM514.5 183.0Q515.5 179.0 516.0 176.25Q516.5 173.5 517.0 171.5Q515.0 172.5 511.0 175.0Q507.0 177.5 503.0 181.0L490.5 186.5L499.5 190.0Q503.5 191.5 505.75 192.75Q508.0 194.0 509.5 194.0Q512.0 194.0 513.0 191.75Q514.0 189.5 514.5 183.0ZM683.5 213.0 691.0 199.0H668.0Q655.0 199.0 649.25 199.25Q643.5 199.5 643.5 201.0Q643.5 201.0 644.75 202.25Q646.0 203.5 647.0 205.5Q649.5 207.5 653.5 218.0Q657.5 228.5 659.5 240.0L665.0 262.5L668.5 249.5Q671.5 241.0 675.75 230.75Q680.0 220.5 683.5 213.0ZM122.0 390.5H121.5Q122.5 389.0 123.5 387.75Q124.5 386.5 124.5 386.5H85.0L94.0 399.0Q104.0 412.0 105.5 412.0Q107.0 412.0 108.5 407.5Q110.5 404.0 114.5 399.0Q118.5 394.0 122.0 390.5ZM496.0 291.0Q494.0 291.0 490.5 291.5Q487.0 292.0 483.0 294.5Q470.0 300.5 469.5 301.5Q471.0 301.5 475.5 306.5Q480.5 309.5 483.5 311.25Q486.5 313.0 488.5 313.0Q490.0 313.0 490.0 307.5Q490.0 303.0 491.75 298.0Q493.5 293.0 496.0 291.0ZM688.5 70.5Q687.0 71.0 680.0 71.25Q673.0 71.5 663.0 71.5H641.0L649.0 85.5V85.0L657.5 100.0L672.5 85.0Q678.5 80.0 683.0 75.75Q687.5 71.5 688.5 70.5ZM149.0 17.5Q155.0 10.0 160.5 10.0H162.0Q162.5 11.0 163.25 12.0Q164.0 13.0 164.0 14.5Q164.0 20.5 159.0 23.0Q157.0 25.5 155.75 29.0Q154.5 32.5 154.5 36.5Q154.5 44.5 158.75 56.25Q163.0 68.0 170.0 83.0Q176.0 96.0 182.5 105.0Q189.0 114.0 200.0 123.5Q211.0 133.0 230.5 148.0Q249.5 162.0 264.0 172.25Q278.5 182.5 280.0 182.5Q284.0 182.5 296.0 175.5Q308.0 168.5 322.25 158.75Q336.5 149.0 347.75 140.0Q359.0 131.0 362.0 127.0Q366.0 116.5 368.5 107.0Q371.0 97.5 371.0 91.0Q371.0 88.5 370.75 85.75Q370.5 83.0 368.5 82.0H369.5Q365.0 78.0 365.0 74.0Q365.0 68.5 371.0 63.0Q376.5 57.5 379.0 57.5Q382.0 57.5 382.0 64.0Q382.0 70.5 400.5 77.75Q419.0 85.0 448.0 91.0Q455.5 92.5 471.75 93.75Q488.0 95.0 509.0 95.75Q530.0 96.5 551.0 96.5Q572.5 96.5 590.0 97.25Q607.5 98.0 618.0 99.25Q628.5 100.5 628.5 102.5Q628.5 104.5 607.75 107.75Q587.0 111.0 556.5 113.0Q519.0 114.0 485.0 117.5Q451.0 121.0 426.0 125.25Q401.0 129.5 390.5 134.0Q384.5 136.5 373.25 143.0Q362.0 149.5 349.0 157.75Q336.0 166.0 324.0 174.0Q312.0 182.0 304.25 187.75Q296.5 193.5 296.5 195.0Q296.5 195.5 305.25 202.75Q314.0 210.0 325.0 219.0L352.5 240.0Q354.0 239.0 358.75 236.25Q363.5 233.5 365.5 232.5Q387.5 221.0 387.5 214.5Q387.5 213.5 386.25 211.75Q385.0 210.0 384.0 209.0Q379.0 203.0 379.0 200.5Q379.0 196.5 384.5 190.0Q389.5 187.5 390.0 187.5Q392.5 187.5 393.25 189.0Q394.0 190.5 395.0 193.5Q396.5 198.0 408.75 202.75Q421.0 207.5 439.0 211.75Q457.0 216.0 476.0 219.25Q495.0 222.5 510.5 224.25Q526.0 226.0 533.0 226.0H537.5Q536.5 225.0 532.75 223.25Q529.0 221.5 522.0 218.0Q512.5 212.5 500.0 207.5Q487.5 202.5 479.0 200.5L457.0 193.5L516.5 151.5Q538.5 136.5 556.0 127.75Q573.5 119.0 577.0 119.0H578.5V121.5Q578.5 125.0 573.5 130.75Q568.5 136.5 561.0 141.0V140.5Q553.5 145.5 545.25 154.25Q537.0 163.0 534.0 169.5V168.5Q529.0 179.0 529.0 186.5Q529.0 197.5 539.25 206.25Q549.5 215.0 563.25 219.75Q577.0 224.5 586.5 224.5Q590.5 224.5 596.0 224.25Q601.5 224.0 608.5 223.5Q621.5 222.0 631.0 220.25Q640.5 218.5 640.5 218.0Q640.5 216.0 637.0 212.25Q633.5 208.5 628.5 205.0Q623.0 199.0 619.25 194.0Q615.5 189.0 615.5 187.5Q615.5 185.5 620.0 184.25Q624.5 183.0 631.0 183.0Q636.0 183.0 641.75 183.5Q647.5 184.0 654.0 184.0Q670.0 184.0 682.25 182.5Q694.5 181.0 699.5 177.5Q703.5 175.5 708.25 174.75Q713.0 174.0 716.5 174.0Q719.0 174.0 724.25 175.5Q729.5 177.0 729.5 181.0Q729.5 183.0 726.75 185.25Q724.0 187.5 719.5 190.0Q706.0 197.5 694.0 222.25Q682.0 247.0 674.25 282.5Q666.5 318.0 665.0 358.5Q663.0 382.0 660.5 398.75Q658.0 415.5 655.5 415.5Q653.5 415.5 651.75 393.0Q650.0 370.5 650.0 338.5Q650.0 318.0 649.75 299.0Q649.5 280.0 648.75 266.25Q648.0 252.5 647.0 249.0L645.0 234.0L620.5 236.5Q614.0 237.5 601.75 238.25Q589.5 239.0 575.0 239.5Q560.5 240.0 547.0 240.0Q520.0 240.5 492.5 243.25Q465.0 246.0 442.0 250.25Q419.0 254.5 405.0 259.0Q391.0 263.5 391.0 268.0Q391.0 271.0 401.0 276.0Q405.0 279.5 407.5 283.25Q410.0 287.0 410.0 289.5L409.0 291.0Q409.0 291.5 407.75 292.25Q406.5 293.0 406.0 293.0Q401.5 293.0 388.75 284.75Q376.0 276.5 358.0 262.5V263.0Q358.0 262.5 356.5 262.5Q346.5 262.5 320.0 280.5Q305.5 288.5 295.5 295.0Q285.5 301.5 285.5 302.0Q285.5 302.5 294.25 309.75Q303.0 317.0 316.0 327.5Q347.0 350.0 348.0 357.5Q348.0 362.0 342.0 362.0Q341.0 362.0 329.75 354.75Q318.5 347.5 305.0 337.0Q291.0 327.0 281.0 321.0Q271.0 315.0 266.5 315.0H265.5Q262.0 317.0 247.25 326.0Q232.5 335.0 215.0 347.5Q196.5 360.0 181.0 368.5Q165.5 377.0 164.0 377.0Q162.0 377.0 154.25 383.0Q146.5 389.0 136.5 397.0Q125.5 407.5 121.0 413.5Q116.5 419.5 116.5 424.5Q116.5 425.0 117.0 426.0Q117.5 427.0 117.5 428.0Q118.0 431.5 118.75 434.0Q119.5 436.5 119.5 439.0Q119.5 445.0 116.0 445.0Q112.5 445.0 106.25 439.0Q100.0 433.0 90.5 419.5Q82.5 409.5 72.75 398.25Q63.0 387.0 57.5 383.0Q45.5 371.5 44.5 362.5Q45.5 357.0 50.0 357.0Q52.5 357.0 55.75 359.5Q59.0 362.0 61.5 364.5Q64.5 368.0 74.5 369.5Q84.5 371.0 97.5 371.0Q110.0 371.0 123.5 369.5Q137.0 368.0 148.0 364.5Q154.0 362.5 167.0 356.25Q180.0 350.0 195.25 341.5Q210.5 333.0 224.75 324.5Q239.0 316.0 248.25 309.75Q257.5 303.5 257.5 301.5Q257.5 300.0 249.5 293.5Q241.5 287.0 230.5 279.5Q219.5 272.0 209.75 266.0Q200.0 260.0 197.0 259.5Q193.5 260.5 183.75 266.0Q174.0 271.5 160.75 279.75Q147.5 288.0 134.25 296.5Q121.0 305.0 110.75 312.5Q100.5 320.0 96.0 324.0Q88.0 332.0 85.75 336.25Q83.5 340.5 83.5 351.0V357.0Q83.5 361.0 82.75 364.25Q82.0 367.5 80.0 367.5Q78.0 367.5 70.75 359.0Q63.5 350.5 54.5 339.5Q47.0 329.0 37.5 318.75Q28.0 308.5 23.5 305.0V305.5Q17.5 302.5 13.75 297.25Q10.0 292.0 10.0 289.0Q10.0 279.5 18.0 279.5Q22.5 279.5 26.0 283.5Q28.0 288.0 39.0 290.0Q50.0 292.0 64.0 292.0Q81.5 292.0 100.0 289.0Q112.5 286.5 126.25 281.25Q140.0 276.0 152.25 269.0Q164.5 262.0 172.5 255.25Q180.5 248.5 181.0 243.5L180.5 243.0Q173.0 236.5 158.75 225.25Q144.5 214.0 128.5 201.75Q112.5 189.5 99.5 179.75Q86.5 170.0 81.0 167.0Q74.5 163.0 68.0 160.75Q61.5 158.5 54.0 158.5Q51.0 158.5 48.25 159.25Q45.5 160.0 43.0 160.0Q39.5 160.5 35.5 160.75Q31.5 161.0 28.5 161.0Q20.0 161.0 20.0 157.5Q20.0 156.5 27.75 147.25Q35.5 138.0 46.5 125.5Q57.5 113.0 68.25 101.5Q79.0 90.0 85.0 85.0Q90.5 79.0 100.0 69.25Q109.5 59.5 120.0 48.75Q130.5 38.0 138.5 29.25Q146.5 20.5 149.0 17.5ZM543.0 253.0Q550.0 250.0 554.0 247.75Q558.0 245.5 561.0 245.5Q565.0 245.5 569.0 251.0V253.0Q569.0 255.0 564.25 259.0Q559.5 263.0 552.5 265.5Q542.0 269.0 530.5 277.25Q519.0 285.5 511.25 294.75Q503.5 304.0 503.5 310.5Q503.5 314.5 508.25 322.25Q513.0 330.0 519.5 337.0L536.5 354.0L588.5 351.0Q596.5 350.0 604.25 350.0Q612.0 350.0 618.5 350.0Q630.0 350.0 636.75 351.25Q643.5 352.5 643.5 355.0Q643.5 360.0 615.75 363.5Q588.0 367.0 525.5 369.5Q471.5 371.0 438.75 377.0Q406.0 383.0 390.5 394.0Q386.0 399.0 381.5 401.0Q377.0 403.0 374.5 403.0H372.0V399.0Q372.0 396.5 373.75 387.25Q375.5 378.0 379.0 367.5Q383.0 357.5 384.25 351.0Q385.5 344.5 385.5 340.5Q385.5 335.5 382.5 333.5H384.0Q379.0 328.5 379.0 325.5Q379.0 321.5 382.5 318.0Q386.0 314.5 389.5 314.5Q390.5 314.5 392.75 315.75Q395.0 317.0 397.0 319.5Q400.5 324.5 411.5 329.0Q422.5 333.5 437.25 337.25Q452.0 341.0 467.25 343.75Q482.5 346.5 494.75 348.0Q507.0 349.5 512.0 349.5Q508.5 346.0 499.0 339.5Q489.5 333.0 478.25 326.0Q467.0 319.0 458.0 314.25Q449.0 309.5 446.5 309.5Q436.5 309.5 436.5 303.5Q436.5 297.5 485.0 278.0Q504.0 270.5 521.5 263.0Q539.0 255.5 543.0 253.0ZM707.0 53.0Q714.0 51.0 718.75 50.0Q723.5 49.0 727.0 49.0Q732.5 49.0 734.75 51.25Q737.0 53.5 738.5 57.5V58.0Q738.5 61.5 733.75 64.5Q729.0 67.5 723.0 69.0Q708.0 71.5 683.0 96.5Q672.5 108.0 666.75 115.5Q661.0 123.0 658.75 130.0Q656.5 137.0 655.5 148.0Q651.0 177.5 647.0 177.5Q642.0 177.5 642.0 145.0V135.0Q642.0 103.0 635.5 90.25Q629.0 77.5 610.0 72.5Q593.0 68.0 593.0 63.0Q593.0 55.5 630.0 55.5H659.5Q675.5 55.5 688.25 54.5Q701.0 53.5 707.0 53.0Z" fill="black" /></svg>