<svg xmlns="http://www.w3.org/2000/svg" width="398.5" height="453.0" viewBox="0 0 398.5 453.0"><path d="M105.5 251.5V251.0Q96.5 244.5 93.0 244.5Q88.5 244.5 88.5 266.0V286.5Q95.5 283.5 102.25 281.25Q109.0 279.0 116.5 276.5Q129.5 271.5 134.75 269.25Q140.0 267.0 140.0 266.5Q140.0 266.5 138.0 265.25Q136.0 264.0 132.5 263.5Q126.0 261.0 118.5 257.5Q111.0 254.0 105.5 251.5ZM88.5 99.0 62.0 84.5Q49.5 77.5 39.75 73.5Q30.0 69.5 29.5 69.5Q29.5 69.5 29.25 78.25Q29.0 87.0 29.0 99.0Q29.0 111.5 29.25 117.0Q29.5 122.5 30.0 122.5Q32.0 122.5 34.0 119.5Q42.5 110.0 50.0 110.0Q53.5 110.0 61.25 107.75Q69.0 105.5 76.0 102.5ZM93.5 144.0 102.0 130.0H58.5Q61.0 136.5 64.0 142.75Q67.0 149.0 69.5 156.0Q77.5 178.0 80.0 178.0Q81.0 178.0 81.5 174.0Q82.5 169.5 86.25 160.5Q90.0 151.5 93.5 144.0ZM182.5 130.5 171.0 102.0H145.0Q133.5 102.0 121.0 104.5Q108.5 107.0 101.5 110.5L93.0 114.0H105.5Q114.0 114.5 120.75 116.25Q127.5 118.0 127.5 120.5Q127.5 122.0 123.5 128.25Q119.5 134.5 113.0 141.5Q108.0 148.0 102.5 160.5Q97.0 173.0 93.5 186.25Q90.0 199.5 90.0 208.5Q90.0 213.5 92.0 217.25Q94.0 221.0 97.5 225.0Q108.5 237.5 127.25 244.25Q146.0 251.0 177.0 254.0L212.0 258.0V238.0Q212.0 220.0 204.0 190.25Q196.0 160.5 182.5 130.5ZM238.5 118.5H216.0Q205.5 118.5 199.0 119.0Q192.5 119.5 192.5 119.5Q193.5 123.5 196.75 131.75Q200.0 140.0 204.25 148.75Q208.5 157.5 212.25 164.0Q216.0 170.5 217.5 172.0Q218.0 166.5 221.0 157.5Q224.0 148.5 228.0 140.5Q230.0 136.5 232.0 132.5Q234.0 128.5 235.0 125.0Q237.5 122.0 238.0 120.25Q238.5 118.5 238.5 118.5ZM323.0 254.0 322.5 206.5Q322.0 184.5 318.75 162.75Q315.5 141.0 310.0 119.5Q306.5 106.5 303.25 102.0Q300.0 97.5 285.5 97.5Q277.5 97.5 266.25 98.5Q255.0 99.5 238.5 100.5Q235.0 101.0 231.25 101.5Q227.5 102.0 223.0 102.0L218.0 102.5H222.0Q264.0 104.0 264.0 112.0Q264.0 114.5 262.0 116.5Q260.0 118.5 257.5 121.0Q249.5 125.5 243.0 139.0Q236.5 152.5 232.5 171.5Q228.5 190.5 228.5 211.5L227.0 254.0ZM350.0 47.5 362.5 26.0H327.0Q310.5 26.0 300.25 26.75Q290.0 27.5 290.0 29.5Q290.0 31.5 293.25 39.25Q296.5 47.0 300.5 55.0Q304.5 63.0 310.0 76.25Q315.5 89.5 317.5 100.0L324.0 120.0L328.5 99.0Q331.5 87.5 338.0 72.25Q344.5 57.0 350.0 47.5ZM84.5 394.5Q79.5 392.5 69.0 387.5Q58.5 382.5 48.5 377.5L23.5 363.5V392.0Q23.5 407.5 24.75 413.25Q26.0 419.0 29.5 419.0Q32.0 419.0 35.25 418.75Q38.5 418.5 39.5 416.5Q42.0 414.0 50.5 410.5Q59.0 407.0 69.5 403.5Q88.0 396.0 88.0 396.0Q88.0 396.0 87.0 395.5Q86.0 395.0 84.5 394.5ZM212.0 301.0V271.5H190.0Q176.0 272.0 159.0 275.75Q142.0 279.5 126.75 285.75Q111.5 292.0 101.5 300.0Q95.0 305.5 92.5 309.5Q90.0 313.5 90.0 323.0Q90.0 327.0 90.25 332.5Q90.5 338.0 91.0 346.5L96.0 382.0H219.0L216.0 358.5Q214.0 348.0 213.0 331.25Q212.0 314.5 212.0 301.0ZM326.5 382.0 325.0 326.0Q324.5 301.0 322.75 284.75Q321.0 268.5 318.5 268.5Q317.0 268.5 302.25 268.75Q287.5 269.0 269.0 271.0L224.5 271.5V306.0Q224.5 321.5 225.75 337.75Q227.0 354.0 228.5 362.5L232.0 382.0ZM266.0 12.5Q266.0 11.0 273.25 10.5Q280.5 10.0 292.0 10.0Q305.0 10.0 321.0 10.25Q337.0 10.5 352.0 11.25Q367.0 12.0 377.0 12.5Q387.0 13.0 388.5 14.0Q388.5 16.0 384.0 23.5Q379.5 31.0 371.0 39.5H372.0Q363.0 51.0 357.0 60.75Q351.0 70.5 347.25 82.25Q343.5 94.0 341.5 110.75Q339.5 127.5 338.75 152.75Q338.0 178.0 338.0 215.0V251.5L339.0 396.5L283.0 397.0H189.0Q152.5 397.0 111.75 405.75Q71.0 414.5 38.5 431.5Q29.0 436.5 21.5 439.25Q14.0 442.0 12.0 443.0Q11.5 442.0 10.75 441.25Q10.0 440.5 10.0 440.0Q10.0 434.5 10.0 419.75Q10.0 405.0 10.5 387.75Q11.0 370.5 11.5 357.0Q12.0 343.5 13.0 340.0Q14.0 339.0 14.5 339.0Q19.5 339.0 29.5 347.5Q35.5 353.0 46.0 359.75Q56.5 366.5 66.5 371.5Q76.5 376.5 80.0 376.5Q81.0 376.5 81.0 368.0Q81.0 358.0 78.0 344.0Q77.5 335.0 76.75 319.75Q76.0 304.5 75.25 287.25Q74.5 270.0 74.5 256.0Q74.0 234.0 72.5 219.75Q71.0 205.5 67.75 193.75Q64.5 182.0 58.5 168.5Q52.0 155.0 47.5 147.5Q43.0 140.0 39.0 140.0H38.0Q34.5 140.5 30.25 141.5Q26.0 142.5 22.0 143.5H20.0Q16.0 143.5 14.75 137.5Q13.5 131.5 13.5 112.0V92.0Q15.0 70.0 17.5 54.25Q20.0 38.5 21.5 38.5Q26.0 38.5 38.0 51.5H37.5Q49.5 64.0 64.5 71.0Q79.5 78.0 104.75 81.25Q130.0 84.5 172.0 86.0H202.0Q228.0 86.0 248.5 85.5Q269.0 85.0 276.5 83.0L297.5 79.5L282.0 50.0Q279.5 43.5 277.0 37.5Q274.5 31.5 272.5 26.5Q266.0 14.5 266.0 12.5Z" fill="black" /></svg>