<svg xmlns="http://www.w3.org/2000/svg" width="541.5" height="385.5" viewBox="0 0 541.5 385.5"><path d="M131.5 297.0 90.0 283.0Q76.5 278.0 64.25 273.5Q52.0 269.0 44.5 266.0Q41.0 264.5 38.5 263.75Q36.0 263.0 35.0 262.5Q34.0 262.0 32.0 262.0Q29.5 262.0 28.75 267.0Q28.0 272.0 28.0 288.0Q28.0 299.5 28.75 308.5Q29.5 317.5 30.0 317.5Q32.5 317.5 40.0 312.5L41.0 312.0Q45.0 309.5 60.5 306.5Q76.0 303.5 94.0 301.5ZM95.5 157.0Q95.5 155.0 91.0 152.5H90.5Q87.0 153.5 87.0 157.0Q87.0 161.5 89.5 161.5H91.0Q95.5 160.5 95.5 157.0ZM96.5 241.0H96.0L96.5 240.5Q96.5 239.0 94.25 237.75Q92.0 236.5 90.5 236.5Q87.0 236.5 87.0 239.0Q87.0 244.0 91.5 244.0Q94.5 244.0 96.5 241.0ZM97.0 201.5Q95.0 197.5 90.5 197.5Q87.0 197.5 87.0 200.5Q87.0 203.5 93.5 203.5Q97.0 203.5 97.0 201.5ZM99.0 124.0Q99.0 122.5 97.25 121.25Q95.5 120.0 93.5 120.0Q87.0 120.0 87.0 124.0Q87.0 127.0 93.5 127.0Q95.5 127.0 97.25 126.0Q99.0 125.0 99.0 124.0ZM152.0 199.0H189.5V170.5H143.0Q115.5 170.5 102.75 172.25Q90.0 174.0 90.0 178.5Q90.0 181.5 100.5 190.0Q106.0 193.5 111.5 195.5Q117.0 197.5 126.25 198.25Q135.5 199.0 152.0 199.0ZM190.5 224.0 188.0 210.5 147.5 211.5Q118.0 212.0 104.75 213.25Q91.5 214.5 91.5 218.0Q91.5 221.5 104.5 230.5Q112.5 236.5 121.75 238.25Q131.0 240.0 153.0 240.0Q167.5 240.0 178.5 239.25Q189.5 238.5 190.5 238.0Q191.5 236.0 191.5 231.5Q191.5 229.0 190.5 224.0ZM156.0 158.0H189.5V134.5H149.0Q131.0 134.5 116.25 135.75Q101.5 137.0 98.5 138.0Q94.0 140.5 94.0 140.5Q94.0 141.0 105.5 148.0Q114.5 154.5 124.75 156.25Q135.0 158.0 156.0 158.0ZM233.5 191.5Q233.5 190.0 228.0 185.0Q222.5 180.0 216.5 175.75Q210.5 171.5 208.5 171.5Q205.0 171.5 205.0 186.5V202.5L218.5 197.5Q233.5 193.0 233.5 191.5ZM383.0 218.0Q371.0 211.0 363.25 207.75Q355.5 204.5 347.5 203.5Q339.5 202.5 325.5 202.5Q320.5 202.5 314.25 202.75Q308.0 203.0 300.0 203.0Q265.0 203.5 245.5 204.75Q226.0 206.0 217.25 211.0Q208.5 216.0 206.75 227.75Q205.0 239.5 205.0 261.0V298.5L327.5 298.0L450.0 296.5L451.5 281.5Q451.5 279.5 451.75 278.0Q452.0 276.5 452.0 275.0Q452.0 268.0 448.25 263.25Q444.5 258.5 433.5 250.0Q425.0 243.5 410.25 234.0Q395.5 224.5 383.0 218.0ZM384.5 157.0Q390.5 150.5 391.0 148.5Q388.0 148.5 379.25 154.25Q370.5 160.0 360.25 167.5Q350.0 175.0 342.5 181.25Q335.0 187.5 335.0 189.0Q335.0 190.0 352.5 190.0Q368.5 190.0 372.0 188.5Q375.5 187.0 375.5 180.5Q375.5 175.5 378.25 168.75Q381.0 162.0 384.5 157.0ZM452.5 185.5Q452.0 160.5 450.75 139.75Q449.5 119.0 448.5 114.0L446.0 102.5Q440.0 109.0 430.75 119.5Q421.5 130.0 412.0 141.5Q402.5 153.0 395.0 163.0Q387.5 173.0 385.0 179.5Q384.5 180.5 384.5 182.0Q384.5 187.5 388.5 190.5Q393.0 193.5 393.0 199.5Q393.0 202.0 392.5 202.5Q393.0 204.5 400.75 211.25Q408.5 218.0 419.25 225.75Q430.0 233.5 439.0 239.0Q448.0 244.5 451.0 244.5Q451.5 244.5 452.0 227.0Q452.5 209.5 452.5 185.5ZM219.5 64.0 233.0 39.0H188.0L194.0 48.5Q196.5 54.5 198.5 62.0Q200.5 69.5 200.5 75.0Q200.5 86.5 203.0 86.5Q207.5 86.5 219.5 64.0ZM482.0 59.5 499.5 25.0H441.0L447.5 37.0V36.5Q451.0 42.5 453.75 53.25Q456.5 64.0 457.0 74.0Q458.0 83.0 459.75 88.75Q461.5 94.5 462.0 94.5Q463.0 94.5 468.75 84.25Q474.5 74.0 482.0 59.5ZM419.5 12.0 420.0 11.5Q421.0 11.0 422.25 10.5Q423.5 10.0 425.0 10.0Q427.0 10.0 430.0 11.0Q432.5 12.0 448.25 12.5Q464.0 13.0 483.0 13.0Q505.0 13.0 518.25 15.0Q531.5 17.0 531.5 19.0Q531.5 21.5 529.25 23.25Q527.0 25.0 524.5 25.0Q517.0 25.0 506.75 39.5Q496.5 54.0 481.0 86.0L460.5 126.5L462.0 296.5L495.5 298.0Q530.0 299.5 530.0 305.5Q530.0 311.5 494.0 311.5H458.5L457.5 341.5L457.0 375.5H455.0L452.5 311.5H279.5Q224.0 311.5 185.5 312.0Q147.0 312.5 121.0 313.5Q95.0 314.5 78.75 316.75Q62.5 319.0 52.5 322.75Q42.5 326.5 34.5 332.0Q22.0 340.0 15.0 340.0Q10.0 340.0 10.0 334.5Q10.0 332.0 12.5 325.5Q14.5 323.0 15.5 313.5Q16.5 304.0 16.5 291.0Q16.5 287.5 16.25 284.0Q16.0 280.5 16.0 277.0V269.0Q16.0 231.0 21.5 231.0Q23.5 231.0 26.5 238.0Q29.0 244.5 44.25 252.25Q59.5 260.0 81.0 267.75Q102.5 275.5 124.75 282.25Q147.0 289.0 164.25 293.0Q181.5 297.0 187.0 297.0Q194.0 295.0 194.0 273.0V252.0H145.5Q116.0 252.0 104.5 253.5Q93.0 255.0 88.5 259.0Q86.5 261.0 83.75 262.75Q81.0 264.5 80.0 264.5Q79.0 264.5 78.0 263.5H78.5Q77.5 262.5 76.75 251.25Q76.0 240.0 75.75 222.0Q75.5 204.0 75.5 184.5Q75.5 163.5 75.75 143.5Q76.0 123.5 76.75 110.0Q77.5 96.5 78.5 95.5H79.5Q81.0 95.5 86.75 99.25Q92.5 103.0 99.0 108.5Q107.0 115.0 112.25 118.0Q117.5 121.0 127.0 121.75Q136.5 122.5 156.0 122.5H195.5L192.5 94.0Q190.5 71.0 184.0 55.25Q177.5 39.5 168.5 34.5Q163.0 31.5 163.0 29.0Q163.0 27.0 165.0 26.5Q166.0 26.5 174.75 26.25Q183.5 26.0 196.0 26.0Q209.5 26.0 224.75 26.25Q240.0 26.5 251.0 26.75Q262.0 27.0 263.5 27.5L264.5 28.5Q264.5 32.0 253.0 40.0Q245.5 46.0 237.25 57.75Q229.0 69.5 221.5 83.0Q214.0 96.5 209.5 109.0Q205.0 121.5 205.0 129.0Q205.0 137.0 206.5 142.25Q208.0 147.5 212.5 153.5Q217.0 159.5 226.0 169.0Q236.5 179.0 242.25 183.5Q248.0 188.0 255.0 189.0Q262.0 190.0 276.5 190.0Q288.5 190.0 296.5 189.0Q304.5 188.0 311.5 185.0Q318.5 182.0 328.0 176.0Q335.0 171.5 350.25 161.0Q365.5 150.5 383.5 137.25Q401.5 124.0 417.75 111.75Q434.0 99.5 443.0 92.0Q447.5 87.5 447.5 78.0Q447.5 67.5 442.75 54.25Q438.0 41.0 430.0 31.5H430.5Q425.5 27.0 422.25 22.0Q419.0 17.0 419.0 14.5Q419.0 13.5 419.25 13.0Q419.5 12.5 419.5 12.0Z" fill="black" /></svg>