<svg xmlns="http://www.w3.org/2000/svg" width="722.5" height="463.5" viewBox="0 0 722.5 463.5"><path d="M183.5 325.5Q178.0 321.5 175.0 321.5Q171.5 321.5 170.75 328.0Q170.0 334.5 170.0 348.0V389.0L184.5 385.0Q187.5 384.0 193.25 381.75Q199.0 379.5 204.5 377.5Q220.0 371.5 235.5 366.75Q251.0 362.0 267.0 358.5L282.5 356.5L252.5 347.0Q247.5 346.0 243.0 344.25Q238.5 342.5 234.0 341.0Q225.0 338.5 216.5 335.75Q208.0 333.0 203.5 333.0Q198.5 333.0 193.5 330.5Q188.5 328.0 183.5 325.5ZM126.0 195.5Q130.0 189.5 132.75 186.0Q135.5 182.5 136.0 181.5Q133.5 181.5 125.5 186.25Q117.5 191.0 107.0 197.75Q96.5 204.5 86.5 211.5Q76.5 218.5 70.0 223.75Q63.5 229.0 63.5 230.0Q63.5 230.5 72.0 233.0Q89.0 236.5 99.0 236.5Q106.0 236.5 108.75 234.25Q111.5 232.0 111.5 227.0Q111.5 222.0 115.75 212.75Q120.0 203.5 126.0 195.5ZM232.5 157.0Q221.5 149.0 210.75 144.5Q200.0 140.0 196.0 140.0Q192.0 140.0 181.0 150.5Q170.0 161.0 157.0 177.0Q144.0 193.0 132.5 210.0Q129.0 215.5 128.25 225.25Q127.5 235.0 127.5 241.5Q128.5 253.5 133.75 261.0Q139.0 268.5 154.0 279.5Q176.0 296.0 194.75 307.25Q213.5 318.5 233.0 325.5Q252.5 332.5 275.75 336.5Q299.0 340.5 330.0 343.0L382.0 347.0V237.5L368.0 243.5Q361.0 245.5 346.75 251.5Q332.5 257.5 318.0 264.5Q304.0 271.5 293.0 276.0Q282.0 280.5 281.0 280.5Q279.5 280.5 279.5 270.5Q279.5 264.5 279.5 256.75Q279.5 249.0 280.0 240.5V228.5Q280.0 218.5 279.75 208.75Q279.5 199.0 279.25 192.25Q279.0 185.5 279.0 185.5Q277.0 183.5 265.0 175.5Q253.0 167.5 232.5 157.0ZM339.5 210.0 314.0 196.5Q314.0 198.0 312.25 199.75Q310.5 201.5 308.0 201.5Q304.5 201.5 301.0 199.5Q299.5 198.0 298.0 198.0Q296.0 198.0 295.25 202.5Q294.5 207.0 294.5 213.5Q294.5 216.0 294.5 218.75Q294.5 221.5 295.0 224.0V233.5Q295.0 244.5 296.0 249.0Q297.0 253.5 301.0 253.5Q306.5 253.5 324.5 244.5Q333.5 239.5 345.25 235.75Q357.0 232.0 363.5 230.0Q371.5 228.0 371.5 228.0Q371.5 226.0 364.5 222.0Q357.5 218.0 339.5 210.0ZM466.5 345.5V229.0H445.5Q437.5 229.0 428.75 229.0Q420.0 229.0 414.5 230.0H412.5Q405.5 230.5 398.5 233.0V342.0ZM244.5 98.5Q249.5 92.0 250.0 90.0Q246.5 91.5 228.0 103.5L221.0 109.5Q211.5 116.0 207.75 118.75Q204.0 121.5 204.0 122.5Q204.0 122.5 205.0 123.25Q206.0 124.0 207.5 125.0L208.5 125.5Q217.0 130.5 225.0 130.5Q229.0 130.5 232.0 128.75Q235.0 127.0 235.0 123.0Q235.0 117.5 237.75 110.75Q240.5 104.0 244.5 98.5ZM411.5 74.5Q410.0 74.0 400.75 72.5Q391.5 71.0 379.0 69.5L352.0 66.5Q362.5 83.0 371.5 102.25Q380.5 121.5 387.0 140.0Q387.0 137.5 388.75 132.0Q390.5 126.5 391.5 124.5V125.0Q394.0 119.5 396.75 113.5Q399.5 107.5 402.0 101.5Q405.5 92.5 408.5 85.0Q411.5 77.5 411.5 74.5ZM434.5 107.0Q431.5 101.5 427.25 94.25Q423.0 87.0 423.0 87.0Q421.0 89.5 418.25 94.5Q415.5 99.5 414.5 102.5Q408.0 112.5 402.25 130.75Q396.5 149.0 396.5 170.0V210.0L419.5 210.5Q426.5 211.0 436.5 211.75Q446.5 212.5 455.0 212.75Q463.5 213.0 466.5 213.0L465.0 199.5V197.0Q465.0 190.5 462.0 178.75Q459.0 167.0 454.25 153.0Q449.5 139.0 444.25 126.75Q439.0 114.5 434.5 107.0ZM495.0 97.0 504.5 83.5H437.0L469.0 147.0L475.0 133.5Q479.0 124.5 484.75 114.0Q490.5 103.5 495.0 97.0ZM679.5 32.5H652.5Q640.5 32.5 627.75 31.5Q615.0 30.5 610.5 30.0Q608.5 29.5 606.5 29.25Q604.5 29.0 603.5 29.0Q599.0 29.0 599.0 32.0Q599.0 35.0 601.75 41.5Q604.5 48.0 609.5 58.0Q613.5 67.5 619.25 81.0Q625.0 94.5 627.0 106.0Q633.0 129.5 637.0 129.5Q642.0 129.5 644.0 110.5Q645.0 102.0 651.25 87.0Q657.5 72.0 664.0 60.5ZM577.0 11.5Q578.0 10.0 582.5 10.0Q586.0 10.0 591.0 10.5Q596.0 11.0 601.0 13.0Q610.5 15.0 629.75 16.5Q649.0 18.0 667.0 18.0Q688.5 18.0 700.5 20.25Q712.5 22.5 712.5 26.0Q712.5 31.0 702.5 34.0Q696.0 37.0 687.5 49.0Q679.0 61.0 671.0 77.5Q663.0 94.0 657.5 110.5Q655.0 119.5 653.5 132.25Q652.0 145.0 651.0 164.75Q650.0 184.5 649.5 215.0Q649.0 245.5 648.5 291.0V411.5Q648.5 430.5 648.25 439.5Q648.0 448.5 646.75 451.0Q645.5 453.5 643.0 453.5Q639.5 453.5 638.0 450.75Q636.5 448.0 636.0 438.5Q635.5 429.0 635.5 410.0V230.0H480.5V345.5H552.5Q586.5 345.5 606.75 347.25Q627.0 349.0 627.0 352.5Q627.0 360.0 503.0 360.0Q482.0 360.0 457.5 359.75Q433.0 359.5 405.0 359.0Q347.5 359.5 295.25 369.0Q243.0 378.5 192.5 398.0Q179.5 403.0 169.0 406.75Q158.5 410.5 156.0 410.5Q154.5 410.5 154.0 408.5V407.0Q154.0 405.0 155.0 396.25Q156.0 387.5 157.5 376.5Q158.5 370.0 159.0 360.75Q159.5 351.5 159.5 343.0Q159.5 326.5 157.5 316.25Q155.5 306.0 149.0 297.5Q142.5 289.0 129.0 279.5Q115.0 269.0 105.5 263.0Q96.0 257.0 87.75 253.5Q79.5 250.0 70.25 248.0Q61.0 246.0 47.0 244.5L10.0 240.5L48.5 218.0Q57.0 213.5 70.75 205.0Q84.5 196.5 99.75 186.25Q115.0 176.0 129.5 166.25Q144.0 156.5 154.25 148.75Q164.5 141.0 167.5 138.0Q166.5 137.0 164.0 136.5Q162.5 135.0 162.5 133.5Q162.5 130.0 174.5 121.25Q186.5 112.5 204.0 101.5Q217.0 93.5 231.75 84.25Q246.5 75.0 259.75 66.5Q273.0 58.0 281.0 52.5Q292.0 43.5 300.5 38.5Q309.0 33.5 311.5 33.5Q313.0 33.5 314.0 34.5V36.0Q314.0 39.5 305.5 50.5Q297.0 61.5 284.0 76.0Q249.0 113.5 249.0 128.0Q249.0 130.5 254.0 130.5Q258.5 130.5 258.5 134.5Q258.5 136.0 257.25 137.5Q256.0 139.0 254.5 141.5Q254.0 143.5 253.25 144.5Q252.5 145.5 252.5 146.5Q253.5 150.5 262.0 156.5L264.5 157.5Q268.5 160.5 272.5 163.0Q276.5 165.5 279.5 166.0Q279.5 166.0 280.0 165.5Q280.5 165.0 280.5 164.5Q280.5 161.0 283.5 161.0Q286.5 161.0 294.75 165.25Q303.0 169.5 310.5 176.0Q319.5 182.5 334.25 190.5Q349.0 198.5 363.0 204.25Q377.0 210.0 383.0 210.0Q382.5 210.0 382.25 204.0Q382.0 198.0 382.0 189.0Q382.0 177.0 377.0 159.25Q372.0 141.5 363.25 121.0Q354.5 100.5 342.5 81.5Q336.5 72.0 332.25 64.0Q328.0 56.0 328.0 53.0Q328.0 52.5 329.0 51.5Q330.0 50.0 334.5 50.0Q339.5 50.0 348.5 51.0Q357.5 52.0 368.0 53.0Q376.5 54.0 385.75 55.0Q395.0 56.0 404.0 56.0Q409.5 56.0 414.75 55.5Q420.0 55.0 424.0 53.5Q426.0 53.0 428.0 53.0Q430.0 53.0 432.0 53.0Q437.5 53.0 440.75 55.25Q444.0 57.5 444.0 60.0Q444.0 62.0 442.5 63.5Q442.0 64.5 441.5 65.0Q441.0 65.5 441.0 65.5Q441.0 68.5 453.5 69.0Q466.0 69.5 483.0 69.5H493.5Q511.0 69.5 523.75 70.0Q536.5 70.5 536.5 70.5Q536.5 72.5 530.0 80.5Q523.5 88.5 513.5 99.0Q495.0 119.0 488.0 141.5Q481.0 164.0 481.0 191.0L481.5 213.0L560.5 214.0L635.5 215.5L634.0 188.0Q633.0 173.5 628.5 154.75Q624.0 136.0 617.5 116.0Q611.0 96.0 603.25 77.5Q595.5 59.0 588.5 45.0Q583.5 35.0 580.0 26.0Q576.5 17.0 576.5 14.0Q576.5 13.0 576.75 12.5Q577.0 12.0 577.0 11.5Z" fill="black" /></svg>