<svg xmlns="http://www.w3.org/2000/svg" width="484.0" height="452.0" viewBox="0 0 484.0 452.0"><path d="M96.0 125.0Q95.5 124.0 89.25 123.5Q83.0 123.0 74.0 123.0H50.0L61.0 138.5Q66.0 146.5 70.25 152.0Q74.5 157.5 76.0 157.5Q76.5 157.5 80.25 151.5Q84.0 145.5 88.75 137.75Q93.5 130.0 96.0 125.0ZM156.0 219.5 152.5 214.5Q142.0 204.0 138.5 204.0Q138.5 204.0 138.0 211.75Q137.5 219.5 137.5 231.0V254.0L150.0 242.5H149.5Q152.0 240.5 153.25 238.5Q154.5 236.5 156.0 234.5Q159.0 232.0 161.0 229.5Q163.0 227.0 163.5 227.0Q163.0 226.5 161.0 224.75Q159.0 223.0 156.0 219.5ZM155.5 131.0Q150.5 128.5 142.75 125.5Q135.0 122.5 129.0 122.0Q127.0 121.5 125.25 121.5Q123.5 121.5 122.0 121.5Q116.5 121.5 111.5 126.25Q106.5 131.0 98.0 145.5L81.0 170.5V335.0L93.5 343.0Q99.0 347.5 105.0 349.25Q111.0 351.0 118.0 351.0Q136.5 351.0 163.0 336.25Q189.5 321.5 233.5 289.5Q252.0 275.5 266.0 264.25Q280.0 253.0 280.0 252.5V252.0Q278.0 251.0 270.5 251.0H255.0L278.5 231.5H237.0Q207.5 231.5 190.75 234.5Q174.0 237.5 164.5 246.25Q155.0 255.0 146.0 272.0Q141.0 283.0 136.25 291.25Q131.5 299.5 129.5 301.0H129.0Q127.0 301.0 126.5 291.25Q126.0 281.5 126.0 266.5Q126.0 250.5 126.5 232.75Q127.0 215.0 127.75 201.75Q128.5 188.5 129.5 186.0Q131.5 185.0 132.5 184.25Q133.5 183.5 134.0 183.5Q139.0 183.5 156.0 201.0L176.5 222.0L220.5 220.0Q237.5 219.0 250.25 217.75Q263.0 216.5 265.5 215.5Q265.0 212.5 256.5 204.5Q248.0 196.5 235.0 186.0Q222.0 175.5 207.0 164.5Q192.0 153.5 178.25 144.5Q164.5 135.5 155.5 131.0ZM348.0 203.0Q353.0 195.0 353.5 191.5Q350.5 193.0 341.75 199.5Q333.0 206.0 323.0 214.5Q313.0 223.0 305.25 230.25Q297.5 237.5 295.5 240.0Q300.5 242.5 316.5 242.5H326.0Q331.5 242.5 333.5 240.5Q335.5 238.5 337.0 231.0Q338.0 224.0 341.25 216.0Q344.5 208.0 348.0 203.0ZM407.0 222.0Q406.5 195.0 404.75 174.5Q403.0 154.0 401.5 151.5Q400.5 150.5 400.0 150.5Q397.5 150.5 391.5 157.5Q385.5 164.5 378.25 175.5Q371.0 186.5 364.25 198.25Q357.5 210.0 353.25 219.75Q349.0 229.5 349.0 234.0Q349.0 237.5 352.5 241.0V240.0Q357.5 243.5 357.5 253.0Q357.5 256.0 363.5 261.5Q369.5 267.0 378.0 272.75Q386.5 278.5 394.5 282.75Q402.5 287.0 406.0 287.0Q407.0 284.5 407.75 275.0Q408.5 265.5 408.5 252.0Q408.5 245.0 408.25 237.5Q408.0 230.0 407.0 222.0ZM174.0 78.5Q174.5 75.5 174.75 73.75Q175.0 72.0 175.0 70.5Q175.0 69.0 174.5 69.0Q172.5 69.0 167.0 74.0Q161.5 79.0 152.5 90.5L134.0 110.5L149.5 115.0Q156.5 117.0 160.75 118.0Q165.0 119.0 168.0 119.0Q172.0 119.0 172.0 114.0Q172.0 113.0 171.5 111.0Q171.0 109.0 171.0 106.5Q171.0 91.0 174.0 78.5ZM448.0 25.5H386.5L397.0 54.5Q402.0 67.0 406.0 85.0Q410.0 103.0 411.0 114.5Q415.0 134.0 415.5 134.0Q419.0 134.0 422.5 106.0Q426.0 89.0 432.0 69.25Q438.0 49.5 445.0 33.5Q446.5 30.0 447.25 27.75Q448.0 25.5 448.0 25.5ZM89.5 356.0Q76.0 347.5 69.0 347.5H67.5Q67.5 347.5 71.75 356.5Q76.0 365.5 81.0 377.0V376.0Q86.5 387.5 90.75 397.75Q95.0 408.0 95.0 410.0Q95.0 414.0 97.0 415.0Q98.5 414.5 104.5 407.5Q110.5 400.5 117.5 390.75Q124.5 381.0 129.5 373.25Q134.5 365.5 134.5 363.5Q122.0 363.5 111.75 362.5Q101.5 361.5 89.5 356.0ZM360.5 13.0Q360.5 11.0 366.75 10.5Q373.0 10.0 382.5 10.0Q394.5 10.0 409.75 10.5Q425.0 11.0 439.0 11.75Q453.0 12.5 462.75 13.5Q472.5 14.5 474.0 15.5V17.0Q474.0 22.0 466.0 31.0Q454.0 44.0 445.5 67.25Q437.0 90.5 431.75 119.25Q426.5 148.0 423.75 178.0Q421.0 208.0 420.0 235.0Q419.0 262.0 419.0 281.5Q419.0 295.0 420.5 300.5Q422.0 306.0 425.0 309.0Q432.0 313.0 432.0 319.5Q432.0 325.5 424.5 325.5Q421.0 325.5 420.0 332.0Q419.0 338.5 419.0 360.0Q419.0 376.5 417.0 389.0Q415.0 401.5 412.5 402.5H412.0Q410.0 402.5 408.25 390.25Q406.5 378.0 406.5 354.5V306.0Q401.5 303.0 397.0 299.75Q392.5 296.5 387.5 293.0Q373.0 282.5 357.5 273.5Q342.0 264.5 329.75 259.25Q317.5 254.0 312.0 254.0Q305.5 254.0 290.5 262.5Q275.5 271.0 255.75 285.0Q236.0 299.0 214.5 316.25Q193.0 333.5 173.25 351.5Q153.5 369.5 138.25 385.5Q123.0 401.5 116.0 413.5Q96.5 442.0 92.5 442.0Q88.0 442.0 88.0 429.5Q88.0 425.0 83.5 413.25Q79.0 401.5 72.25 386.75Q65.5 372.0 58.0 357.75Q50.5 343.5 44.25 334.0Q38.0 324.5 35.5 323.5Q31.0 322.5 29.5 319.75Q28.0 317.0 28.0 315.0Q28.0 310.0 33.0 310.0Q37.0 310.0 44.0 313.5Q51.0 317.0 56.0 322.0Q63.0 330.5 67.5 330.5Q68.5 330.5 69.0 309.25Q69.5 288.0 69.5 258.0Q69.5 212.5 65.75 186.75Q62.0 161.0 52.5 147.75Q43.0 134.5 24.5 126.0Q18.5 122.5 14.25 119.25Q10.0 116.0 10.0 114.0L11.5 112.5Q12.5 110.5 27.5 110.25Q42.5 110.0 62.5 110.0L109.5 111.5L130.0 95.5Q137.5 89.0 147.5 78.25Q157.5 67.5 167.25 56.0Q177.0 44.5 184.0 35.0Q191.0 25.5 192.5 21.5Q195.0 17.5 197.0 17.5Q199.5 17.5 200.0 19.25Q200.5 21.0 200.5 23.0Q200.5 26.0 199.75 30.5Q199.0 35.0 197.0 39.0Q195.5 43.0 192.75 52.0Q190.0 61.0 187.25 71.5Q184.5 82.0 182.5 91.25Q180.5 100.5 180.5 105.0Q180.5 109.0 182.0 112.25Q183.5 115.5 188.0 120.5Q192.0 126.5 195.0 132.25Q198.0 138.0 198.0 139.0Q198.0 140.5 206.5 148.0Q215.0 155.5 226.5 164.0Q238.5 172.5 252.5 184.0Q266.5 195.5 273.5 203.0H273.0Q279.5 209.0 285.5 214.0Q291.5 219.0 294.0 219.0Q296.0 219.0 307.5 211.0Q319.0 203.0 334.25 190.5Q349.5 178.0 364.75 163.75Q380.0 149.5 390.0 136.75Q400.0 124.0 400.0 116.0Q400.0 107.5 397.25 94.5Q394.5 81.5 390.0 67.5Q385.5 53.5 380.0 42.0Q374.5 30.5 368.5 25.5V26.0Q363.5 23.0 362.0 19.5Q360.5 16.0 360.5 13.0Z" fill="black" /></svg>