<svg xmlns="http://www.w3.org/2000/svg" width="429.0" height="457.5" viewBox="0 0 429.0 457.5"><path d="M71.5 150.0 79.0 139.0H62.5Q51.5 139.0 47.25 140.0Q43.0 141.0 43.0 143.5Q43.0 148.5 46.5 151.5Q48.5 152.0 50.5 157.25Q52.5 162.5 54.0 168.0Q56.5 180.5 61.0 180.5Q63.0 180.5 63.0 173.5Q63.0 171.0 66.0 164.0Q69.0 157.0 71.5 150.0ZM187.5 180.5Q187.5 180.5 181.5 180.0Q175.5 179.5 167.0 179.5Q159.0 179.5 153.5 180.0Q148.0 180.5 147.0 181.0Q148.0 182.5 150.75 188.25Q153.5 194.0 156.0 201.0L157.5 203.0Q160.5 210.0 163.25 215.0Q166.0 220.0 167.0 220.0Q167.5 220.0 170.5 215.0Q173.5 210.0 176.0 203.0Q178.5 199.0 180.25 195.25Q182.0 191.5 183.5 188.5Q187.0 181.0 187.5 180.5ZM88.5 53.5Q83.0 49.0 78.75 44.75Q74.5 40.5 73.5 40.5Q72.0 40.5 71.25 52.25Q70.5 64.0 70.5 79.5V117.5L79.0 112.5Q83.0 109.0 93.5 103.0Q104.0 97.0 115.0 92.0L137.5 81.0L121.5 76.0Q113.0 72.0 103.5 65.5Q94.0 59.0 88.5 53.5ZM261.5 156.5H260.5L268.0 147.5H247.5Q239.0 147.5 233.25 146.5Q227.5 145.5 226.5 145.0Q226.5 145.5 228.5 147.5Q231.0 149.5 234.0 151.75Q237.0 154.0 240.0 157.0L251.0 167.0ZM268.5 233.5 278.5 224.0H223.0L236.0 241.0Q245.5 256.0 250.5 257.0Q251.5 256.0 252.0 254.0Q254.5 250.5 259.25 244.5Q264.0 238.5 268.5 233.5ZM395.5 40.5H367.5Q356.0 40.5 345.25 39.5Q334.5 38.5 330.5 38.0Q328.5 37.0 327.0 37.0Q327.5 40.0 335.0 57.0Q340.0 69.0 342.75 78.25Q345.5 87.5 348.5 98.5Q351.5 109.5 356.0 128.0L360.5 143.5L366.0 119.0Q368.5 107.0 373.75 91.0Q379.0 75.0 384.0 64.5ZM52.0 367.0Q44.5 361.5 37.75 357.75Q31.0 354.0 30.0 354.0Q30.0 354.0 29.75 359.75Q29.5 365.5 29.5 372.5Q29.5 382.0 28.25 393.5Q27.0 405.0 26.0 412.0L23.5 426.5Q41.0 418.5 57.0 411.0Q73.0 403.5 90.0 397.5L114.5 390.0Q106.0 388.0 97.5 385.5Q88.0 384.0 75.0 378.0Q62.0 372.0 52.0 367.0ZM59.0 47.5Q58.5 43.0 58.5 39.25Q58.5 35.5 58.5 32.0Q58.5 22.0 59.5 16.0Q60.5 10.0 62.5 10.0Q63.5 10.0 70.5 16.5Q77.5 23.0 85.5 32.0Q97.0 44.5 107.0 52.0Q117.0 59.5 131.5 63.25Q146.0 67.0 170.5 68.75Q195.0 70.5 235.5 72.0Q249.0 72.5 261.25 72.5Q273.5 72.5 283.5 72.5Q303.5 72.5 315.25 72.5Q327.0 72.5 327.0 72.0Q327.0 71.0 323.75 63.5Q320.5 56.0 316.5 47.5Q312.5 39.5 310.25 32.75Q308.0 26.0 308.0 24.0V22.5Q309.5 21.0 311.0 21.0Q314.0 21.0 318.75 22.0Q323.5 23.0 328.5 24.5Q334.0 26.5 344.5 27.0Q355.0 27.5 366.5 27.5H380.0Q388.0 27.0 394.0 27.0Q400.0 27.0 403.5 27.0Q419.0 27.0 419.0 31.5Q419.0 33.5 417.0 35.25Q415.0 37.0 412.5 39.5Q410.0 42.0 404.25 52.5Q398.5 63.0 392.5 74.5Q384.5 92.0 379.75 110.75Q375.0 129.5 373.0 156.0Q371.0 182.5 371.0 224.5Q371.0 242.5 371.25 263.0Q371.5 283.5 372.0 308.5Q373.0 339.0 373.5 361.75Q374.0 384.5 374.0 399.5Q374.0 420.5 372.5 429.75Q371.0 439.0 368.5 439.0Q363.0 439.0 363.0 412.0V389.5L253.5 391.0Q213.5 391.5 190.25 392.25Q167.0 393.0 153.5 394.5Q140.0 396.0 130.25 398.5Q120.5 401.0 107.5 405.5Q92.5 410.5 73.75 418.5Q55.0 426.5 42.5 433.0Q30.5 439.0 21.25 443.25Q12.0 447.5 11.0 447.5Q10.0 446.5 10.0 443.5Q10.0 440.0 11.0 432.5Q12.0 425.0 13.5 417.0Q15.0 409.0 16.0 397.5Q17.0 386.0 17.0 375.0Q17.0 371.0 17.0 367.25Q17.0 363.5 16.0 360.0Q15.5 355.0 15.5 351.0Q15.5 347.0 15.5 343.5Q15.5 328.5 18.5 328.5Q21.0 328.5 26.25 332.0Q31.5 335.5 36.0 341.0Q55.0 356.5 77.75 365.5Q100.5 374.5 130.5 376.5L166.5 378.5L164.5 312.0L164.0 243.5Q163.0 240.0 159.0 232.5Q155.0 225.0 151.5 217.5Q148.0 210.0 146.5 207.5Q139.0 193.0 133.5 181.5Q128.0 170.0 127.5 168.5V170.0Q127.5 170.0 127.5 168.5Q129.0 165.5 146.0 165.5Q157.0 165.5 172.25 166.25Q187.5 167.0 199.25 168.0Q211.0 169.0 211.5 170.0L212.0 171.0Q212.0 172.0 208.75 177.25Q205.5 182.5 200.0 188.0Q192.5 195.5 188.25 203.75Q184.0 212.0 181.5 224.25Q179.0 236.5 178.25 256.0Q177.5 275.5 177.5 306.0V377.5H252.0L251.0 328.5Q250.0 304.5 248.75 293.0Q247.5 281.5 244.25 275.0Q241.0 268.5 233.5 259.5Q228.0 250.0 221.0 241.25Q214.0 232.5 210.0 228.5Q204.5 225.0 200.75 221.25Q197.0 217.5 197.0 215.5Q197.0 214.5 205.5 213.0Q214.0 211.5 224.5 211.5H251.5V199.5Q251.5 187.5 241.75 176.25Q232.0 165.0 213.5 154.0Q206.5 150.0 201.75 146.0Q197.0 142.0 197.0 140.5Q197.0 138.0 213.5 136.5Q230.0 135.0 253.0 135.0Q275.5 135.0 291.75 136.5Q308.0 138.0 308.0 140.5Q308.0 142.0 300.75 146.75Q293.5 151.5 284.5 156.0L263.0 166.0V211.5H284.0Q293.5 211.5 300.75 213.0Q308.0 214.5 308.0 217.5Q308.0 224.0 301.5 224.0Q299.5 224.0 293.25 228.75Q287.0 233.5 280.0 240.0L263.0 256.5V376.5L364.0 380.0L360.5 281.0Q359.5 244.5 358.0 218.25Q356.5 192.0 354.0 172.0Q351.5 152.0 347.25 134.0Q343.0 116.0 336.5 95.5L332.5 83.5L246.5 84.5Q214.0 84.5 195.75 84.75Q177.5 85.0 167.25 86.25Q157.0 87.5 149.5 90.5Q142.0 93.5 131.0 99.0Q118.5 104.0 106.0 110.75Q93.5 117.5 89.5 120.5Q82.0 125.5 80.5 126.5Q81.0 126.5 85.0 126.75Q89.0 127.0 92.75 127.5Q96.5 128.0 96.5 130.0Q96.5 131.0 92.75 139.5Q89.0 148.0 83.0 159.5V158.5L70.5 183.5V271.0Q70.5 312.0 68.75 335.25Q67.0 358.5 64.0 358.5Q62.0 358.5 60.5 340.5Q59.0 322.5 59.0 291.0Q59.0 255.5 56.5 231.0Q54.0 206.5 48.0 187.0Q42.0 167.5 32.0 147.5Q28.5 141.5 26.25 136.5Q24.0 131.5 24.0 129.5Q24.0 128.5 25.0 127.5Q26.0 126.5 26.5 126.5H45.5L59.0 128.0L59.5 104.5Q59.5 95.5 59.5 78.25Q59.5 61.0 59.0 47.5Z" fill="black" /></svg>