<svg xmlns="http://www.w3.org/2000/svg" width="572.5" height="453.5" viewBox="0 0 572.5 453.5"><path d="M126.5 243.5Q126.5 241.5 118.75 237.0Q111.0 232.5 100.25 227.25Q89.5 222.0 79.75 217.5Q70.0 213.0 65.5 211.0Q53.5 206.0 46.25 203.0Q39.0 200.0 38.5 200.0Q38.5 200.0 38.0 210.75Q37.5 221.5 37.5 237.5Q37.5 256.0 38.75 264.75Q40.0 273.5 44.0 273.5H44.5Q62.5 268.0 81.5 261.5Q100.5 255.0 113.5 250.0Q126.5 245.0 126.5 243.5ZM153.0 240.0Q153.0 240.0 150.5 239.75Q148.0 239.5 144.0 239.5H138.5Q138.5 239.5 139.25 239.5Q140.0 239.5 141.0 240.0Q142.5 240.5 143.75 240.75Q145.0 241.0 146.0 241.0Q150.0 241.0 153.0 240.0ZM361.5 325.5V298.0Q361.5 287.5 360.5 279.75Q359.5 272.0 358.5 272.0Q357.0 272.0 350.75 277.0Q344.5 282.0 336.0 289.25Q327.5 296.5 319.5 304.0Q311.5 311.5 306.0 317.0Q300.5 322.5 300.5 323.5Q300.5 323.5 307.0 323.75Q313.5 324.0 323.0 324.5L331.0 325.0ZM485.5 294.5 480.5 245.5H433.5Q410.5 245.5 400.0 246.25Q389.5 247.0 385.75 250.25Q382.0 253.5 379.0 261.0Q375.5 269.0 374.25 276.75Q373.0 284.5 373.0 291.5Q373.0 296.5 374.0 301.75Q375.0 307.0 377.0 312.5Q378.5 316.0 388.75 325.75Q399.0 335.5 413.75 348.0Q428.5 360.5 443.5 372.5Q458.5 384.5 469.5 392.25Q480.5 400.0 483.5 400.0Q489.5 400.0 489.5 369.0Q489.5 356.0 488.25 337.5Q487.0 319.0 485.5 294.5ZM165.5 29.0Q165.5 28.5 155.0 28.5Q144.5 28.5 128.0 28.5Q113.0 28.5 103.0 29.0Q93.0 29.5 91.5 30.5Q92.5 33.5 95.75 42.5Q99.0 51.5 103.0 63.0L108.5 76.5Q122.5 112.0 130.0 112.0Q134.0 112.0 134.0 100.0Q134.0 96.0 138.75 83.25Q143.5 70.5 150.0 57.5Q157.0 47.5 161.25 38.5Q165.5 29.5 165.5 29.0ZM529.0 37.5Q529.0 36.5 516.75 35.75Q504.5 35.0 487.0 35.0Q469.5 35.0 457.5 36.25Q445.5 37.5 445.5 39.5Q445.5 41.0 447.75 46.5Q450.0 52.0 453.5 58.5Q457.0 63.5 457.5 67.0V66.5Q463.0 74.5 468.0 87.5Q473.0 100.5 475.0 109.0Q479.0 128.5 483.0 128.5Q487.5 128.5 496.0 103.5Q499.5 91.5 505.5 77.75Q511.5 64.0 516.5 56.5Q522.0 50.0 525.5 44.0Q529.0 38.0 529.0 37.5ZM67.5 14.0Q67.5 11.5 78.75 10.75Q90.0 10.0 105.5 10.0Q123.5 10.0 143.5 10.75Q163.5 11.5 178.25 12.5Q193.0 13.5 194.5 15.5V16.5Q194.5 18.5 190.5 26.0Q186.5 33.5 179.0 42.0Q166.0 60.5 158.0 78.0Q150.0 95.5 146.5 116.5Q143.0 137.5 143.0 166.5V220.0L196.0 225.0Q211.0 226.0 239.0 226.75Q267.0 227.5 301.0 228.0Q335.0 228.5 367.5 228.5H482.5V204.0Q482.5 189.0 476.75 166.25Q471.0 143.5 462.0 119.0Q453.0 94.5 443.25 72.5Q433.5 50.5 425.5 36.5Q417.5 23.0 417.5 19.5Q417.5 17.5 425.75 17.0Q434.0 16.5 446.5 16.5Q462.0 16.5 481.5 17.0Q501.0 17.5 519.25 18.25Q537.5 19.0 549.75 19.75Q562.0 20.5 562.5 21.5V24.0Q562.5 30.5 546.5 44.0Q540.0 50.5 531.0 64.75Q522.0 79.0 516.0 92.0Q511.5 101.0 509.0 109.5Q506.5 118.0 505.25 130.75Q504.0 143.5 503.5 165.5Q503.0 187.5 503.0 224.0V281.0Q503.0 326.0 502.0 362.75Q501.0 399.5 499.5 421.5Q498.0 443.5 496.0 443.5Q494.0 443.5 491.75 440.0Q489.5 436.5 489.5 431.5Q489.5 423.5 485.5 423.5Q484.5 423.5 476.5 418.25Q468.5 413.0 457.0 404.0Q445.5 395.0 433.0 384.5Q412.0 368.0 399.5 359.5Q387.0 351.0 376.5 347.0Q366.0 343.0 351.0 341.5Q346.0 341.0 340.5 341.0Q335.0 341.0 329.0 341.0Q318.0 341.0 307.0 341.5Q296.0 342.0 288.5 343.5Q274.5 346.0 265.5 346.0Q258.5 346.0 255.0 343.5V342.5Q255.0 339.5 264.75 330.0Q274.5 320.5 288.5 309.5Q303.0 297.5 318.5 283.5Q334.0 269.5 342.0 261.5L358.0 245.5H281.0Q259.0 245.5 236.5 246.5Q214.0 247.5 196.25 249.0Q178.5 250.5 170.0 252.5L143.0 259.5V342.5Q143.0 383.5 140.75 406.75Q138.5 430.0 134.5 430.0Q131.0 430.0 128.75 408.75Q126.5 387.5 126.5 350.0Q126.5 318.0 125.25 294.5Q124.0 271.0 121.5 268.0H120.0Q115.0 268.0 100.0 273.25Q85.0 278.5 66.0 285.5Q47.5 293.5 33.0 298.0Q18.5 302.5 14.0 302.5Q12.5 302.5 12.5 302.0V302.5Q12.0 301.5 11.0 300.25Q10.0 299.0 10.0 297.0Q10.0 294.5 11.25 290.75Q12.5 287.0 14.0 283.5Q18.0 278.0 19.75 258.75Q21.5 239.5 21.5 218.0V161.5L51.5 181.0Q73.5 195.0 93.75 205.5Q114.0 216.0 122.0 216.0Q124.0 216.0 125.25 212.75Q126.5 209.5 126.5 205.0Q126.5 197.0 122.25 178.0Q118.0 159.0 111.25 135.25Q104.5 111.5 97.5 89.25Q90.5 67.0 84.5 53.5Q77.5 40.0 72.5 28.0Q67.5 16.0 67.5 14.0Z" fill="black" /></svg>