<svg xmlns="http://www.w3.org/2000/svg" width="449.5" height="462.0" viewBox="0 0 449.5 462.0"><path d="M101.0 267.0Q94.5 255.5 89.5 247.75Q84.5 240.0 83.0 240.0Q82.5 240.0 76.25 248.5Q70.0 257.0 62.0 269.0Q54.0 281.0 47.25 291.75Q40.5 302.5 38.0 307.0Q39.0 307.5 52.25 308.25Q65.5 309.0 84.0 309.0Q104.5 309.0 117.5 308.0Q130.5 307.0 132.5 306.5L125.5 298.5Q123.0 296.0 115.5 287.25Q108.0 278.5 101.0 267.0ZM256.5 287.0Q254.5 286.0 254.0 285.5Q252.0 284.0 249.75 283.0Q247.5 282.0 246.0 281.5Q244.5 280.0 242.5 278.75Q240.5 277.5 239.5 276.0Q238.5 275.0 237.0 273.75Q235.5 272.5 235.0 271.5Q234.5 275.0 234.25 278.75Q234.0 282.5 234.0 286.0Q233.5 288.5 232.75 291.75Q232.0 295.0 232.0 298.0Q234.5 296.0 236.5 295.5Q238.0 294.5 239.75 293.25Q241.5 292.0 243.5 291.5Q245.5 290.5 247.5 289.75Q249.5 289.0 251.5 288.5Q252.5 288.0 254.0 287.75Q255.5 287.5 256.5 287.0ZM258.5 228.0 262.0 229.5Q253.0 225.5 245.5 217.5Q238.0 209.5 238.0 209.5Q237.5 213.0 237.25 218.5Q237.0 224.0 237.0 227.5Q237.0 230.5 236.75 236.0Q236.5 241.5 236.5 241.5Q245.0 235.0 251.75 231.5Q258.5 228.0 258.5 228.0ZM358.5 243.0Q356.0 242.0 348.0 241.0Q340.0 240.0 330.0 239.25Q320.0 238.5 311.0 238.0Q302.0 237.5 298.0 237.5Q271.0 237.5 257.25 242.75Q243.5 248.0 243.5 255.0Q243.5 263.0 258.75 271.0Q274.0 279.0 306.0 283.0L315.5 284.5Q339.5 287.5 349.0 287.5Q357.5 287.5 359.0 284.25Q360.5 281.0 360.5 274.0Q360.5 272.0 360.5 265.0Q360.5 258.0 360.0 251.25Q359.5 244.5 358.5 243.0ZM356.0 175.5V175.0Q354.5 174.0 347.25 173.0Q340.0 172.0 330.75 171.25Q321.5 170.5 313.0 170.25Q304.5 170.0 300.5 170.0Q276.5 170.0 262.0 176.0Q247.5 182.0 247.0 192.0Q247.0 196.0 250.0 201.5Q257.0 211.0 271.75 216.25Q286.5 221.5 320.5 224.0L360.5 228.0V203.0Q360.5 192.5 359.25 184.5Q358.0 176.5 356.0 175.5ZM155.0 79.0 164.0 61.0Q161.5 61.0 159.0 61.25Q156.5 61.5 153.0 61.5Q149.5 62.0 146.25 62.0Q143.0 62.0 139.5 62.0H126.0Q123.0 61.5 120.75 61.5Q118.5 61.5 115.0 61.5Q117.5 65.0 120.75 73.0Q124.0 81.0 127.5 89.5L139.5 123.0Q140.0 121.5 140.0 120.0Q140.0 118.5 140.0 118.0Q140.5 115.0 141.5 112.25Q142.5 109.5 143.0 108.0Q145.5 101.0 148.5 93.25Q151.5 85.5 155.0 79.0ZM244.5 80.0 234.0 66.0Q225.0 52.0 221.0 48.0Q219.0 48.5 214.5 57.25Q210.0 66.0 206.25 75.25Q202.5 84.5 202.5 88.0Q202.5 88.0 203.25 87.75Q204.0 87.5 205.5 87.5Q208.5 87.5 213.25 86.75Q218.0 86.0 224.0 84.0ZM267.0 158.0Q265.5 157.0 264.0 156.0Q262.5 155.0 261.0 154.5Q259.5 152.5 257.5 151.0Q255.5 149.5 254.0 147.5Q251.5 146.0 249.0 143.0Q246.5 140.0 244.0 137.0V142.5Q244.0 149.0 244.0 155.0Q244.0 161.0 243.0 166.5Q242.5 169.0 242.5 168.75Q242.5 168.5 242.5 171.0Q243.5 170.0 244.25 169.5Q245.0 169.0 247.0 167.5Q248.5 166.5 250.75 165.25Q253.0 164.0 254.0 163.0Q255.5 162.0 257.75 161.25Q260.0 160.5 262.0 160.0Q263.5 159.5 264.25 159.25Q265.0 159.0 267.0 158.0ZM401.0 43.0Q396.0 43.0 383.0 42.25Q370.0 41.5 357.0 40.0Q349.5 39.0 344.0 38.5Q338.5 38.0 334.5 38.0Q327.5 38.0 327.5 40.0Q327.5 40.5 330.75 50.5Q334.0 60.5 339.0 74.75Q344.0 89.0 349.0 103.5Q354.0 118.0 358.25 128.75Q362.5 139.5 364.0 141.5Q365.0 141.5 366.75 136.25Q368.5 131.0 369.0 123.0Q377.0 96.5 392.0 70.5Q407.0 47.5 407.0 44.0Q407.0 43.0 401.0 43.0ZM214.0 23.0Q217.0 10.0 222.0 10.0Q227.0 10.0 230.5 29.0V27.5Q232.0 35.0 236.25 44.0Q240.5 53.0 244.5 58.5Q248.5 63.0 260.5 69.75Q272.5 76.5 287.25 83.0Q302.0 89.5 314.75 94.0Q327.5 98.5 332.5 98.5H334.0Q333.5 95.5 329.5 85.0Q325.5 74.5 319.0 60.5Q313.0 47.0 309.0 36.0Q305.0 25.0 305.0 23.0V22.0Q306.5 21.5 310.5 21.5Q314.5 21.5 322.25 22.0Q330.0 22.5 339.0 23.5Q352.0 26.0 371.0 27.75Q390.0 29.5 405.0 29.5Q420.0 29.5 429.75 30.75Q439.5 32.0 439.5 34.5Q439.5 35.5 435.75 40.5Q432.0 45.5 425.0 50.5Q401.5 72.0 390.5 103.5Q379.5 135.0 376.5 170.25Q373.5 205.5 373.5 239.5V297.5Q373.5 339.5 372.25 374.75Q371.0 410.0 369.75 431.0Q368.5 452.0 367.5 452.0Q365.5 452.0 362.75 445.25Q360.0 438.5 359.0 429.5L358.5 410.0L290.0 379.0Q270.5 370.5 250.75 362.0Q231.0 353.5 215.5 347.0Q200.0 340.5 192.5 338.0Q180.5 332.5 161.75 328.5Q143.0 324.5 121.25 322.25Q99.5 320.0 79.0 320.0Q70.0 320.0 61.5 320.75Q53.0 321.5 45.5 322.5Q37.5 323.5 28.5 324.5Q19.5 325.5 10.5 325.5L10.0 323.5Q10.0 320.5 16.75 311.0Q23.5 301.5 34.0 287.5Q44.0 274.5 55.0 257.75Q66.0 241.0 71.5 231.5Q78.0 221.5 81.5 216.75Q85.0 212.0 88.0 212.0Q91.0 212.0 92.5 216.0Q94.0 220.0 96.0 227.5Q97.5 234.5 102.25 244.5Q107.0 254.5 113.0 264.0Q119.0 273.5 124.75 280.0Q130.5 286.5 133.5 286.5H134.0Q134.5 285.0 134.5 280.25Q134.5 275.5 134.5 269.0V227.0Q134.5 195.5 132.75 171.0Q131.0 146.5 125.75 124.5Q120.5 102.5 110.0 79.5Q105.0 69.0 102.25 60.5Q99.5 52.0 99.5 47.5Q99.5 45.0 101.0 43.25Q102.5 41.5 103.5 41.5Q105.5 41.5 108.5 42.5H108.0Q121.0 44.5 133.75 45.25Q146.5 46.0 159.0 46.0Q167.5 46.5 174.0 46.75Q180.5 47.0 182.0 48.0Q183.0 51.0 183.0 51.5Q183.0 59.0 170.0 80.0Q160.5 95.0 156.75 108.5Q153.0 122.0 150.0 145.5Q148.5 165.0 147.5 190.75Q146.5 216.5 146.5 239.0Q146.5 262.0 147.5 278.75Q148.5 295.5 150.0 298.0Q151.5 300.0 166.0 307.75Q180.5 315.5 202.75 326.0Q225.0 336.5 250.25 348.0Q275.5 359.5 298.75 369.75Q322.0 380.0 338.5 386.5Q355.0 393.0 359.0 394.0L360.5 347.5V302.5L337.0 299.0Q327.0 298.5 314.25 297.0Q301.5 295.5 294.5 294.0H291.5Q283.0 294.0 273.0 296.75Q263.0 299.5 251.0 304.0Q239.0 310.0 232.5 313.25Q226.0 316.5 222.5 316.5Q216.5 316.5 216.5 309.0Q216.5 304.5 218.0 298.5Q219.0 294.0 220.25 279.75Q221.5 265.5 223.25 245.5Q225.0 225.5 226.5 204.0Q228.5 182.5 230.0 164.0Q231.5 145.5 232.5 133.5Q233.5 121.5 234.0 119.5Q234.5 117.5 237.0 117.5Q243.5 117.5 256.5 133.5Q266.0 142.0 272.5 146.5Q279.0 151.0 287.5 152.75Q296.0 154.5 311.5 156.0Q328.0 157.5 339.5 157.5Q349.5 157.5 350.0 156.0Q350.0 153.0 349.0 147.5Q348.0 142.0 346.5 135.5Q344.0 126.5 340.75 122.0Q337.5 117.5 330.5 114.25Q323.5 111.0 309.0 106.0Q281.5 95.0 251.0 95.0Q239.0 95.0 228.0 97.0Q217.0 99.0 207.0 102.5Q199.0 106.0 192.0 107.5Q185.0 109.0 182.0 109.0H180.0V107.5Q180.0 104.5 184.25 94.0Q188.5 83.5 195.0 70.5Q201.0 56.0 206.75 42.25Q212.5 28.5 214.0 23.0Z" fill="black" /></svg>