<svg xmlns="http://www.w3.org/2000/svg" width="745.5" height="386.5" viewBox="0 0 745.5 386.5"><path d="M105.0 295.5 125.5 294.0Q110.5 287.0 95.75 278.0Q81.0 269.0 68.5 256.5L52.0 240.5L40.5 272.5Q31.0 297.5 30.0 305.5H31.5Q34.5 305.5 40.75 305.0Q47.0 304.5 55.0 303.0Q58.5 302.0 63.0 301.5Q67.5 301.0 72.5 300.5Q81.0 299.5 89.5 298.0Q98.0 296.5 105.0 295.5ZM174.5 243.0 186.0 240.5 173.0 219.0 167.0 230.5Q165.0 235.0 163.25 238.75Q161.5 242.5 161.0 244.5Q168.0 244.5 174.5 243.0ZM201.5 194.0 213.0 192.0 200.0 174.0 192.5 185.0Q190.0 189.0 188.25 191.75Q186.5 194.5 186.5 195.5Q186.5 195.5 187.25 195.75Q188.0 196.0 189.0 196.0Q191.0 196.0 194.0 195.25Q197.0 194.5 201.5 194.0ZM282.0 158.5Q271.0 154.0 255.75 151.5Q240.5 149.0 228.5 149.0Q214.0 149.0 211.0 152.5Q208.5 154.5 208.5 159.0Q208.5 167.0 216.5 178.0Q219.5 181.5 232.0 187.75Q244.5 194.0 260.25 200.0Q276.0 206.0 289.75 210.5Q303.5 215.0 309.0 215.0Q309.5 214.0 309.5 211.0Q309.5 203.0 308.0 189.5L305.0 167.0Q299.5 165.0 293.5 162.75Q287.5 160.5 282.0 158.5ZM378.5 269.0Q372.0 268.0 361.25 264.75Q350.5 261.5 343.0 258.0L326.0 250.0V270.0Q326.0 280.5 327.0 285.0Q328.0 289.5 333.0 289.5Q336.5 289.5 341.75 287.75Q347.0 286.0 354.5 283.5Q363.0 281.0 371.5 279.25Q380.0 277.5 384.5 277.5Q393.5 277.5 393.5 276.0Q393.5 272.0 378.5 269.0ZM121.0 70.5Q116.0 68.0 108.0 62.5Q100.0 57.0 94.5 51.5L82.0 39.5L79.0 69.0Q77.5 83.0 77.5 91.5Q77.5 101.5 80.5 101.5Q83.0 101.5 86.5 98.5Q89.0 96.0 97.0 91.5Q105.0 87.0 114.0 82.5L131.5 74.0Q129.0 73.0 126.25 72.0Q123.5 71.0 121.0 70.5ZM149.0 128.5Q149.0 127.0 139.5 127.0Q129.5 127.0 129.5 127.5Q129.5 129.5 132.0 135.0Q134.5 140.5 137.5 145.25Q140.5 150.0 142.0 150.0Q144.0 150.0 146.5 142.0Q149.0 134.0 149.0 128.5ZM228.5 136.5Q233.5 136.0 233.5 134.5Q233.5 133.0 230.5 126.5V127.0L226.0 117.5L221.0 125.5V125.0Q218.0 131.0 218.0 134.0Q218.0 137.0 223.5 137.0Q224.5 137.0 225.75 136.75Q227.0 136.5 228.5 136.5ZM336.0 50.0Q337.0 47.0 337.0 47.0Q337.0 45.0 330.0 45.0Q326.5 45.0 320.25 45.75Q314.0 46.5 304.5 47.5Q293.5 49.0 293.5 50.5Q293.5 52.0 297.5 61.0Q300.0 66.5 303.25 78.25Q306.5 90.0 308.5 100.5L313.0 122.0L322.5 91.5Q324.5 85.5 326.5 79.5Q328.5 73.5 330.0 68.0Q332.5 61.0 334.0 56.25Q335.5 51.5 336.0 50.0ZM346.0 145.5Q346.0 140.5 343.0 140.5Q339.5 140.5 339.5 142.5Q339.5 146.5 343.5 148.0Q343.5 148.5 344.5 148.5Q346.0 148.5 346.0 145.5ZM376.5 132.0Q376.5 127.0 373.0 127.0Q369.5 127.0 369.5 132.0Q369.5 137.5 373.0 137.5Q376.5 137.5 376.5 132.0ZM379.5 158.0H379.0Q373.0 151.0 367.0 146.75Q361.0 142.5 358.0 142.5Q356.0 142.5 356.0 144.0Q356.0 147.0 359.75 156.5Q363.5 166.0 368.75 176.75Q374.0 187.5 378.75 195.25Q383.5 203.0 385.0 203.0Q387.0 203.0 390.0 201.25Q393.0 199.5 396.0 197.5Q401.5 193.0 401.5 191.0Q401.5 188.5 395.5 180.5Q393.0 175.0 388.25 168.25Q383.5 161.5 379.5 158.0ZM344.5 167.0H344.0Q339.5 161.5 334.5 157.25Q329.5 153.0 327.0 153.0Q323.5 153.0 321.75 161.75Q320.0 170.5 320.0 186.0Q320.0 191.0 320.0 196.75Q320.0 202.5 320.5 209.0L323.0 237.5Q326.5 238.5 334.0 241.75Q341.5 245.0 345.0 246.0Q367.5 254.5 387.0 259.0Q406.5 263.5 430.5 263.5Q439.0 263.5 444.75 263.0Q450.5 262.5 450.5 261.5Q450.5 259.0 444.0 253.5Q437.5 248.0 427.75 241.25Q418.0 234.5 408.0 230.0Q402.5 227.0 393.25 224.75Q384.0 222.5 377.0 222.5Q370.0 222.5 364.25 221.0Q358.5 219.5 358.5 217.0Q358.5 215.0 360.75 213.0Q363.0 211.0 366.5 211.0Q371.0 211.0 371.0 207.5Q371.0 195.0 344.5 167.0ZM405.0 118.5V117.5H404.5Q403.0 113.5 401.0 113.5Q400.5 113.5 400.5 116.5Q400.5 119.5 403.5 119.5Q405.0 119.5 405.0 118.5ZM407.5 139.0Q398.5 127.0 390.5 127.0Q387.0 127.0 387.0 130.5Q387.0 134.0 390.25 142.75Q393.5 151.5 398.25 161.25Q403.0 171.0 407.5 178.0Q412.0 185.0 414.0 185.0Q415.5 185.0 418.75 184.0Q422.0 183.0 424.5 181.0Q428.0 179.0 428.0 176.5Q428.0 172.5 424.0 164.75Q420.0 157.0 415.0 149.5Q410.0 142.0 407.5 139.0ZM452.5 196.0Q452.5 189.5 452.25 184.5Q452.0 179.5 451.5 179.5Q449.5 179.5 442.25 183.75Q435.0 188.0 428.25 192.75Q421.5 197.5 420.0 199.5Q416.5 206.0 408.0 206.0Q398.5 206.0 398.5 209.5Q398.5 213.0 406.0 215.5Q411.5 217.5 421.25 223.25Q431.0 229.0 440.0 236.0L459.5 249.5L456.5 234.0Q455.5 226.5 454.0 215.25Q452.5 204.0 452.5 196.0ZM516.0 213.0Q515.5 210.5 512.0 208.0Q508.5 205.5 506.0 203.5Q506.0 203.5 505.5 203.25Q505.0 203.0 504.5 203.0Q502.5 203.0 501.5 207.25Q500.5 211.5 500.5 221.5V240.0L518.5 231.0Q527.0 227.5 532.25 224.0Q537.5 220.5 537.5 219.0Q535.5 219.0 534.0 219.0Q532.5 219.0 530.5 220.0Q528.5 220.5 526.0 220.5Q519.5 220.5 516.0 213.0ZM431.0 94.0V93.5Q432.5 91.0 432.5 90.5Q432.5 89.5 431.5 89.5Q430.0 89.5 426.5 92.0Q423.5 93.5 423.5 94.5Q423.5 94.5 424.0 94.5Q424.5 94.5 425.0 95.0Q427.0 96.0 427.5 96.0Q430.0 96.0 431.0 94.0ZM459.0 156.5Q459.0 153.0 453.5 145.0Q448.0 137.0 440.5 128.5Q433.0 120.0 426.25 113.75Q419.5 107.5 416.5 107.5H416.0Q416.0 108.0 415.75 108.25Q415.5 108.5 415.5 109.5Q415.5 114.0 418.75 123.5Q422.0 133.0 426.5 143.25Q431.0 153.5 435.25 160.75Q439.5 168.0 441.5 168.0Q443.5 168.0 446.5 166.25Q449.5 164.5 453.0 162.5Q459.0 158.0 459.0 156.5ZM485.0 130.5Q485.0 128.5 480.25 126.75Q475.5 125.0 471.5 125.0Q469.5 125.0 467.5 126.0Q465.5 127.0 465.5 129.5Q466.5 133.0 475.5 133.0Q485.0 133.0 485.0 130.5ZM537.5 62.0Q535.5 62.0 531.75 61.75Q528.0 61.5 523.0 61.5H509.5Q509.5 62.0 511.5 68.25Q513.5 74.5 516.5 83.5L522.5 102.0L531.5 79.0Q535.5 67.0 537.5 62.0ZM669.5 140.0V140.5Q669.0 139.0 659.0 138.0Q649.0 137.0 634.0 136.0Q619.0 135.0 602.0 134.5Q585.0 134.0 570.0 134.0Q561.0 134.0 553.5 134.25Q546.0 134.5 540.5 135.0L527.0 136.0L529.5 170.5Q530.5 184.5 532.75 195.75Q535.0 207.0 536.5 208.5V208.0Q539.0 209.0 559.75 210.0Q580.5 211.0 608.0 211.0H673.5V179.0Q673.5 165.0 672.0 154.0Q670.5 143.0 669.5 140.0ZM700.0 64.0 707.5 53.0H646.5Q650.0 59.5 653.5 66.0Q657.0 72.5 660.5 79.5Q666.5 92.0 671.0 102.25Q675.5 112.5 675.5 115.5Q675.5 119.0 676.0 119.0Q677.5 119.0 680.25 113.0Q683.0 107.0 686.0 97.0Q689.0 89.5 692.75 80.0Q696.5 70.5 700.0 64.0ZM38.5 246.0Q41.0 235.0 44.75 227.5Q48.5 220.0 50.5 220.0Q53.0 220.0 54.25 222.0Q55.5 224.0 55.5 226.0Q55.5 229.0 61.5 235.5Q67.5 242.0 77.0 249.75Q86.5 257.5 96.25 264.5Q106.0 271.5 113.5 275.0Q124.5 279.5 156.5 287.75Q188.5 296.0 234.5 305.75Q280.5 315.5 333.0 325.5Q355.0 329.5 371.0 333.75Q387.0 338.0 387.0 340.5Q387.0 342.0 386.25 343.25Q385.5 344.5 381.5 344.5Q377.5 344.5 366.25 342.75Q355.0 341.0 333.5 336.75Q312.0 332.5 276.0 325.5Q239.0 318.0 216.75 313.75Q194.5 309.5 180.25 308.0Q166.0 306.5 151.5 306.5Q135.0 306.5 114.75 307.25Q94.5 308.0 74.75 310.25Q55.0 312.5 40.0 316.5Q30.5 318.5 23.25 320.0Q16.0 321.5 12.5 321.5Q11.0 321.5 10.0 320.0V319.5Q10.0 317.0 12.5 309.75Q15.0 302.5 19.0 294.5Q24.0 285.0 29.5 270.5Q35.0 256.0 38.5 246.0ZM71.0 33.5Q71.0 10.0 77.0 10.0Q80.0 10.0 83.5 19.5Q84.5 23.0 89.75 29.75Q95.0 36.5 102.5 42.5Q113.0 52.5 126.0 58.0Q139.0 63.5 162.5 65.5Q186.0 67.5 227.5 67.5H288.5L282.5 56.0Q280.0 51.0 277.0 47.75Q274.0 44.5 273.0 44.5Q267.5 44.5 267.5 38.5Q267.5 35.0 280.5 35.0Q283.0 35.0 285.75 35.0Q288.5 35.0 292.0 35.5Q294.5 36.0 297.5 36.0Q300.5 36.0 303.5 36.0Q322.5 36.0 335.5 32.5Q347.0 29.5 358.5 29.5Q359.5 31.5 359.5 32.0Q359.5 34.0 357.5 38.0Q355.5 42.0 352.5 46.5Q349.0 51.0 344.0 62.75Q339.0 74.5 334.25 89.25Q329.5 104.0 326.25 116.75Q323.0 129.5 323.0 135.5Q323.0 137.5 323.5 137.5Q324.5 137.5 328.75 134.5Q333.0 131.5 338.5 128.0Q342.5 125.0 346.5 123.0Q350.5 121.0 352.5 121.0Q354.0 121.0 354.0 121.5H354.5Q356.5 121.5 360.75 120.0Q365.0 118.5 369.5 115.5Q375.0 112.0 380.25 109.5Q385.5 107.0 387.5 107.0Q389.0 107.0 395.25 104.0Q401.5 101.0 403.0 99.5Q402.5 99.0 401.75 98.25Q401.0 97.5 399.0 96.5Q393.5 93.5 393.5 91.0Q393.5 89.0 395.0 89.0Q396.0 89.0 405.5 85.75Q415.0 82.5 427.0 78.0Q445.5 71.0 455.0 67.75Q464.5 64.5 467.5 64.5Q470.0 64.5 470.0 67.0Q470.0 69.0 466.75 72.75Q463.5 76.5 458.0 82.0Q450.0 90.0 446.25 94.75Q442.5 99.5 442.5 104.0Q442.5 110.0 451.5 122.0Q453.0 125.0 454.0 126.25Q455.0 127.5 455.0 127.5V121.5Q455.0 111.5 461.0 111.5Q462.0 111.5 463.25 111.75Q464.5 112.0 466.5 112.5Q470.0 113.5 478.75 115.25Q487.5 117.0 496.0 118.0L514.5 121.0L511.5 104.5Q507.0 86.5 500.75 74.25Q494.5 62.0 487.0 58.5Q485.5 57.5 485.5 56.0Q485.5 52.5 519.0 50.0Q529.0 49.0 537.75 48.5Q546.5 48.0 552.0 48.0Q560.5 48.0 561.0 49.0L561.5 50.0Q561.5 53.5 556.0 60.0Q551.5 65.0 545.5 76.25Q539.5 87.5 535.25 98.75Q531.0 110.0 531.0 115.5Q531.0 118.5 532.25 120.25Q533.5 122.0 539.5 122.75Q545.5 123.5 559.25 123.75Q573.0 124.0 597.5 124.0Q626.5 124.0 640.75 123.5Q655.0 123.0 659.75 121.75Q664.5 120.5 664.5 118.5Q664.5 114.5 661.0 105.75Q657.5 97.0 652.25 87.0Q647.0 77.0 641.25 68.75Q635.5 60.5 631.5 57.5Q628.0 54.0 624.25 50.75Q620.5 47.5 620.5 45.5Q620.5 43.5 637.75 42.5Q655.0 41.5 679.0 41.5Q708.5 41.5 722.0 42.75Q735.5 44.0 735.5 47.5Q735.5 51.5 726.0 54.5Q721.5 56.5 716.25 62.75Q711.0 69.0 707.0 76.0Q700.5 88.5 696.0 101.75Q691.5 115.0 688.75 132.25Q686.0 149.5 684.75 173.75Q683.5 198.0 683.0 233.0Q682.5 258.0 681.75 278.75Q681.0 299.5 680.0 311.5Q679.0 323.5 677.5 323.5Q676.0 323.5 674.25 312.5Q672.5 301.5 671.25 286.0Q670.0 270.5 670.0 257.0Q670.0 253.0 670.0 248.75Q670.0 244.5 670.5 241.5L671.0 225.5L622.5 224.0Q601.5 224.0 583.0 225.0Q564.5 226.0 547.25 230.75Q530.0 235.5 512.0 247.5Q505.5 252.0 499.75 255.0Q494.0 258.0 493.0 258.0Q491.5 258.0 490.5 246.75Q489.5 235.5 489.5 219.5Q489.5 203.5 491.25 192.0Q493.0 180.5 494.5 180.5Q496.0 180.5 499.75 183.25Q503.5 186.0 507.0 190.0Q514.0 197.5 517.0 197.5Q520.0 197.5 520.0 183.5Q520.0 162.0 517.5 150.25Q515.0 138.5 509.5 138.0H509.0Q506.0 138.5 499.25 140.0Q492.5 141.5 485.5 142.5Q476.5 144.5 473.25 146.25Q470.0 148.0 470.0 151.0V152.5Q470.0 156.0 469.0 163.0Q468.0 170.0 465.5 177.0Q462.0 187.5 462.0 196.5Q462.0 206.5 465.5 222.0Q466.0 224.5 466.25 226.5Q466.5 228.5 467.0 231.0Q470.0 246.0 474.25 253.0Q478.5 260.0 491.5 262.0Q504.5 264.0 533.0 264.0H567.5Q610.5 264.0 634.0 265.5Q657.5 267.0 657.5 270.0Q657.5 272.0 635.0 274.0Q612.5 276.0 572.0 276.0Q548.5 276.0 529.25 276.0Q510.0 276.0 498.5 276.0Q487.0 276.0 487.0 276.5Q487.0 277.0 491.5 282.75Q496.0 288.5 502.5 297.5Q508.5 307.0 517.0 318.0Q537.5 345.5 544.5 356.0Q551.5 366.5 552.0 370.5Q552.0 372.0 551.5 373.5Q551.0 375.0 550.0 376.5H549.5Q547.5 376.5 540.0 368.0Q532.5 359.5 524.5 347.0Q516.5 334.0 504.25 318.25Q492.0 302.5 484.0 293.5L465.0 273.5L422.0 281.0Q326.5 296.0 322.0 310.5Q320.0 320.0 317.0 320.0Q314.5 320.0 312.5 307.75Q310.5 295.5 309.5 273.0L309.0 229.5Q306.5 228.5 299.75 226.25Q293.0 224.0 286.5 221.75Q280.0 219.5 277.0 218.5Q260.5 212.5 245.75 209.25Q231.0 206.0 218.0 206.0Q199.5 206.0 191.25 207.75Q183.0 209.5 183.0 214.0Q183.0 215.0 183.75 216.25Q184.5 217.5 185.0 219.5Q189.0 226.0 194.75 230.75Q200.5 235.5 213.25 240.75Q226.0 246.0 251.5 255.0Q272.5 262.0 287.25 268.25Q302.0 274.5 303.5 277.0Q303.5 280.5 299.5 280.5Q293.0 280.5 275.25 275.25Q257.5 270.0 232.5 261.0Q223.0 257.0 211.75 255.25Q200.5 253.5 189.5 253.5Q173.0 253.5 160.0 257.0Q147.0 260.5 144.5 267.5Q144.0 268.5 143.0 269.5Q141.5 269.0 139.5 255.75Q137.5 242.5 136.5 219.5Q134.5 178.5 129.0 156.75Q123.5 135.0 115.0 130.0Q110.0 126.0 110.0 123.0Q110.0 115.0 139.0 115.0Q172.0 115.0 172.0 124.0Q172.0 127.5 168.0 130.0Q159.5 135.0 153.0 156.0Q146.5 177.0 146.5 204.5V238.5Q148.5 236.0 150.25 233.5Q152.0 231.0 153.5 229.0Q157.5 225.0 161.0 219.5Q164.5 214.0 165.0 210.5Q166.5 207.0 171.25 197.5Q176.0 188.0 182.5 178.5Q188.5 170.0 193.0 162.0Q197.5 154.0 197.5 153.0V152.5Q197.5 149.0 201.5 140.25Q205.5 131.5 210.75 121.75Q216.0 112.0 220.75 105.0Q225.5 98.0 227.0 98.0Q229.5 98.0 232.0 102.75Q234.5 107.5 236.5 113.0Q239.0 121.0 244.5 125.75Q250.0 130.5 264.5 137.5Q274.5 142.5 284.25 147.0Q294.0 151.5 298.5 152.5L299.0 153.0Q303.0 154.0 304.0 154.0Q306.0 154.0 306.0 150.5Q306.0 142.5 298.0 105.5L292.5 78.5H150.0Q145.0 81.0 134.5 86.0Q124.0 91.0 118.5 93.5Q106.0 100.0 93.75 107.0Q81.5 114.0 77.5 118.0Q73.5 121.0 70.0 123.5Q66.5 126.0 65.0 126.0Q64.5 126.0 63.5 124.5L64.0 125.0Q63.0 124.0 63.0 120.0Q63.0 115.5 63.75 107.0Q64.5 98.5 65.5 88.5Q68.0 75.0 69.5 58.75Q71.0 42.5 71.0 33.5Z" fill="black" /></svg>