<svg xmlns="http://www.w3.org/2000/svg" width="568.0" height="456.0" viewBox="0 0 568.0 456.0"><path d="M169.5 350.0 134.0 342.0Q122.0 339.0 107.75 334.5Q93.5 330.0 80.5 325.5Q67.5 321.0 59.5 317.5L30.5 303.0L32.0 344.0Q34.0 360.0 34.75 372.0Q35.5 384.0 35.5 386.5H36.0Q42.0 386.5 55.5 379.0Q64.0 375.0 84.75 369.0Q105.5 363.0 127.0 358.5ZM114.5 127.0Q110.5 121.5 106.0 121.5Q102.5 121.5 101.0 131.5Q99.5 141.5 99.5 164.0V206.5Q104.5 204.0 108.75 201.0Q113.0 198.0 118.0 195.0Q126.0 191.0 144.75 184.25Q163.5 177.5 182.0 173.0L220.0 164.0Q215.0 162.5 203.25 159.0Q191.5 155.5 177.5 151.0Q163.5 146.5 149.75 142.0Q136.0 137.5 126.5 133.5Q117.0 129.5 114.5 127.0ZM269.0 339.5H472.5L468.0 171.5L382.0 171.0Q373.5 171.0 366.0 171.0Q358.5 171.0 351.5 170.5H322.5Q298.5 170.5 287.0 173.5Q275.5 176.5 272.0 186.25Q268.5 196.0 268.5 216.0Q268.5 220.0 268.75 224.0Q269.0 228.0 269.0 233.0ZM298.0 59.5 307.0 50.0 262.0 46.5Q257.5 46.5 253.5 46.25Q249.5 46.0 245.5 46.0Q232.0 46.0 223.5 46.75Q215.0 47.5 215.0 49.5Q215.0 51.0 218.25 57.75Q221.5 64.5 226.5 71.5Q230.5 79.0 235.75 92.0Q241.0 105.0 244.5 115.0Q253.5 144.5 259.0 144.5Q260.0 144.5 260.0 139.0Q260.0 133.0 263.75 122.0Q267.5 111.0 273.25 98.75Q279.0 86.5 285.5 76.0Q292.0 65.5 298.0 59.5ZM524.0 33.5Q519.0 33.0 505.75 32.5Q492.5 32.0 476.0 32.0H472.0Q465.5 32.0 461.0 31.75Q456.5 31.5 452.5 31.5Q440.0 31.5 435.5 33.0Q431.0 34.5 431.0 38.0Q431.0 41.0 434.25 47.5Q437.5 54.0 442.5 64.0L444.0 67.0Q448.0 73.5 453.0 86.25Q458.0 99.0 461.5 109.5Q470.5 136.0 474.0 136.0Q478.0 136.0 480.0 119.0V119.5Q481.0 109.5 488.5 92.75Q496.0 76.0 504.5 63.0Q508.0 58.5 510.5 54.0Q513.0 49.5 516.0 45.5Q519.0 41.5 521.0 38.25Q523.0 35.0 524.0 33.5ZM399.0 13.0Q399.0 10.0 402.5 10.0Q405.0 10.0 408.75 10.5Q412.5 11.0 416.5 13.0Q424.0 14.0 446.75 15.5Q469.5 17.0 495.5 17.0Q521.5 17.0 539.75 18.5Q558.0 20.0 558.0 22.5Q558.0 24.0 551.75 31.0Q545.5 38.0 537.0 46.5Q524.5 59.0 514.5 75.75Q504.5 92.5 498.75 109.25Q493.0 126.0 493.0 139.5Q493.0 144.0 493.5 146.5Q495.0 151.5 495.0 157.0Q495.0 168.5 490.5 168.5Q489.5 168.5 488.25 185.75Q487.0 203.0 486.5 234.0Q486.0 265.0 486.0 306.0Q486.0 372.5 484.0 409.25Q482.0 446.0 479.0 446.0Q475.5 446.0 473.75 432.5Q472.0 419.0 472.0 399.0V355.0H269.0V393.0Q269.0 410.5 267.0 422.0Q265.0 433.5 261.0 433.5Q257.5 433.5 255.75 422.0Q254.0 410.5 254.0 393.0V355.5L224.5 359.0Q186.5 363.0 151.0 370.0Q115.5 377.0 87.75 385.75Q60.0 394.5 43.75 403.5Q27.5 412.5 27.5 420.5Q27.5 427.5 21.5 427.5Q19.5 427.5 18.75 420.0Q18.0 412.5 18.0 400.0Q18.0 394.5 18.0 388.5Q18.0 382.5 18.5 376.0V358.0Q18.5 342.0 17.75 326.25Q17.0 310.5 14.5 302.5Q12.5 295.5 11.25 289.25Q10.0 283.0 10.0 280.0Q10.0 276.0 11.0 275.0H12.5Q15.0 275.0 20.25 278.0Q25.5 281.0 32.0 285.5Q45.5 294.5 70.0 304.0Q94.5 313.5 123.5 321.5Q152.5 329.5 180.5 334.5Q208.5 339.5 228.5 339.5H254.0V261.5Q254.0 239.5 253.75 221.25Q253.5 203.0 253.0 191.5Q252.5 180.0 251.5 179.0Q242.0 179.0 227.5 181.0Q213.0 183.0 197.25 185.75Q181.5 188.5 167.25 192.0Q153.0 195.5 144.0 198.5Q136.5 201.5 126.0 208.75Q115.5 216.0 107.5 222.5Q100.5 230.0 94.25 235.5Q88.0 241.0 87.0 241.0Q85.5 241.0 84.5 233.75Q83.5 226.5 83.5 215.5Q83.5 210.0 83.5 203.25Q83.5 196.5 84.0 190.0Q84.0 185.0 84.5 180.5Q85.0 176.0 85.0 171.0Q85.0 153.5 83.75 138.0Q82.5 122.5 81.0 114.5Q79.5 109.0 79.0 105.0Q78.5 101.0 78.5 97.5Q78.5 86.0 85.0 86.0Q90.0 86.0 102.0 99.0Q107.0 104.5 119.75 111.25Q132.5 118.0 148.75 124.75Q165.0 131.5 182.0 137.0Q199.0 142.5 213.75 145.75Q228.5 149.0 237.0 149.0Q240.0 149.0 240.0 147.5Q240.0 146.5 239.0 141.5Q237.5 136.0 229.75 118.25Q222.0 100.5 212.5 80.5Q201.5 60.0 196.0 44.75Q190.5 29.5 191.0 29.5Q228.0 29.5 266.0 31.0L343.5 33.5L319.5 59.5Q307.5 71.0 297.5 86.75Q287.5 102.5 281.25 117.75Q275.0 133.0 275.0 143.5V156.0L365.0 154.5Q390.5 154.0 411.25 153.25Q432.0 152.5 444.75 151.5Q457.5 150.5 458.5 150.5Q459.0 150.5 459.0 149.5Q459.0 145.0 455.25 133.75Q451.5 122.5 445.75 107.5Q440.0 92.5 433.0 77.75Q426.0 63.0 420.0 52.0Q410.5 36.5 404.75 25.25Q399.0 14.0 399.0 13.0Z" fill="black" /></svg>