<svg xmlns="http://www.w3.org/2000/svg" width="916.0" height="458.0" viewBox="0 0 916.0 458.0"><path d="M86.5 325.0 108.5 303.0 53.5 299.0 57.0 323.0Q58.0 332.5 58.75 339.5Q59.5 346.5 60.5 346.5Q61.5 346.5 68.75 340.0Q76.0 333.5 86.5 325.0ZM229.5 297.5V291.5Q231.5 289.0 231.5 287.0H231.0Q229.0 287.0 222.75 290.75Q216.5 294.5 211.0 298.75Q205.5 303.0 205.5 305.0Q205.5 307.5 216.5 307.5Q220.5 307.5 224.0 307.0Q227.5 306.5 227.5 306.0Q227.5 304.5 228.25 302.0Q229.0 299.5 229.5 297.5ZM308.0 380.0Q315.0 380.0 319.0 373.25Q323.0 366.5 323.0 360.0Q324.0 357.0 324.5 356.0Q321.5 357.5 316.0 361.5Q310.5 365.5 306.25 369.5Q302.0 373.5 301.5 376.0Q303.0 380.0 308.0 380.0ZM440.0 356.5 432.5 353.0Q421.0 349.0 413.0 346.25Q405.0 343.5 402.5 343.5Q402.5 343.5 402.0 350.25Q401.5 357.0 401.5 365.0Q401.5 375.5 401.75 379.75Q402.0 384.0 404.0 385.0Q405.5 385.0 407.75 384.25Q410.0 383.5 410.5 383.0Q414.0 382.0 420.0 380.0Q426.0 378.0 432.5 376.0Q436.0 375.5 439.0 374.5Q442.0 373.5 444.5 373.0Q453.0 370.5 459.0 368.75Q465.0 367.0 465.5 366.5Q461.0 366.5 440.0 356.5ZM463.5 273.0Q458.5 270.0 453.75 268.25Q449.0 266.5 448.0 266.5Q446.5 266.5 445.0 270.75Q443.5 275.0 443.5 279.5Q443.5 282.0 444.5 285.25Q445.5 288.5 449.0 288.5Q451.0 288.5 453.75 287.75Q456.5 287.0 461.0 285.0Q475.0 280.0 475.0 278.5Q475.0 276.5 463.5 273.0ZM695.0 354.5 688.0 342.5Q682.0 330.5 678.5 329.0Q676.5 329.5 674.5 332.5Q672.5 335.5 669.0 341.0Q661.0 350.0 661.0 353.0Q661.0 354.5 678.5 354.5ZM109.5 187.0 121.5 189.0 105.0 170.0Q98.5 161.5 92.25 153.75Q86.0 146.0 85.0 143.0V143.5Q84.0 141.0 81.0 141.0Q79.0 141.0 75.0 145.5Q71.0 150.0 62.5 161.5L46.0 183.5H68.0Q78.0 183.5 90.5 184.5Q103.0 185.5 109.5 187.0ZM313.5 156.5Q315.0 155.0 316.0 153.5Q317.0 152.0 317.5 151.5Q312.0 153.5 302.75 158.75Q293.5 164.0 283.75 170.25Q274.0 176.5 267.25 181.5Q260.5 186.5 260.5 187.5Q260.5 187.5 261.75 187.75Q263.0 188.0 265.0 189.0Q272.5 190.5 278.0 191.75Q283.5 193.0 287.0 193.0Q298.5 193.0 301.5 180.5V182.0Q302.5 175.0 306.75 167.75Q311.0 160.5 313.5 156.5ZM436.0 148.5 432.5 146.5Q421.0 142.5 413.0 139.75Q405.0 137.0 402.5 137.0Q402.5 137.0 402.0 143.25Q401.5 149.5 401.5 158.0Q401.5 169.0 401.75 173.0Q402.0 177.0 404.0 177.0Q405.5 177.0 407.0 176.25Q408.5 175.5 410.5 175.0L413.0 174.0Q418.5 173.0 427.75 170.75Q437.0 168.5 446.0 166.5Q454.5 164.0 460.0 162.5Q465.5 161.0 465.5 159.5Q465.5 159.5 456.5 156.25Q447.5 153.0 436.0 148.5ZM480.5 232.5Q474.0 228.5 462.75 224.25Q451.5 220.0 444.5 220.0Q444.0 220.0 443.25 223.5Q442.5 227.0 442.5 231.0Q442.5 235.0 443.25 237.75Q444.0 240.5 444.5 242.0L446.5 241.5Q450.5 241.5 458.75 239.75Q467.0 238.0 473.75 235.75Q480.5 233.5 480.5 232.5ZM718.0 282.5Q713.5 271.5 708.0 271.5Q703.0 271.5 695.0 282.5L689.5 291.5L704.5 293.5Q706.0 293.5 714.0 293.75Q722.0 294.0 723.5 295.0Q722.5 289.5 718.0 282.5ZM747.5 211.0Q741.0 199.5 735.5 199.5Q732.5 199.5 726.0 210.5Q721.0 217.0 721.0 218.5Q721.0 219.5 734.0 221.5Q739.5 222.0 743.0 222.75Q746.5 223.5 748.5 223.5Q750.5 223.5 751.5 222.75Q752.5 222.0 754.0 222.0Q752.5 220.5 751.25 217.75Q750.0 215.0 747.5 211.0ZM803.5 106.5Q808.5 97.0 810.0 92.0Q807.0 94.5 798.25 103.25Q789.5 112.0 778.0 122.5L750.0 152.0H771.0Q788.5 152.0 792.25 150.5Q796.0 149.0 796.0 139.5Q796.0 132.5 798.25 122.75Q800.5 113.0 803.5 106.5ZM78.5 97.0H78.0Q80.5 95.5 81.5 94.5Q82.5 93.5 84.0 93.5Q88.5 93.5 90.5 111.5Q93.0 131.0 104.75 148.0Q116.5 165.0 133.5 179.0Q150.5 193.0 169.0 203.5Q187.5 214.0 204.0 221.0Q221.5 228.5 233.5 235.75Q245.5 243.0 246.0 246.5Q245.5 249.0 241.25 252.25Q237.0 255.5 231.0 257.0Q225.5 258.0 207.5 267.25Q189.5 276.5 169.0 287.0Q141.5 301.0 118.0 318.5Q94.5 336.0 79.5 351.75Q64.5 367.5 62.5 378.0Q60.5 393.0 57.0 393.0Q53.5 393.0 50.0 381.0Q46.5 369.0 44.5 347.5Q42.5 331.0 39.25 315.75Q36.0 300.5 33.0 295.0Q31.0 291.0 29.75 286.5Q28.5 282.0 28.5 279.5Q28.5 278.0 28.75 276.0Q29.0 274.0 29.5 273.0Q31.5 267.5 35.0 267.5Q39.0 267.5 42.0 277.0Q44.0 279.5 48.25 281.25Q52.5 283.0 62.5 283.5Q72.5 284.0 91.5 284.0Q107.5 284.0 118.0 283.25Q128.5 282.5 137.0 280.5Q145.5 278.5 154.75 274.75Q164.0 271.0 177.5 265.0Q193.5 258.0 205.0 251.75Q216.5 245.5 216.5 244.0Q216.5 243.0 202.5 236.75Q188.5 230.5 169.0 222.0Q112.5 199.5 69.5 199.5Q58.5 199.5 49.25 201.0Q40.0 202.5 33.0 206.5Q27.5 209.5 22.5 210.75Q17.5 212.0 14.0 213.0Q13.5 212.0 12.25 211.75Q11.0 211.5 11.0 211.0Q10.0 210.5 14.5 200.75Q19.0 191.0 28.5 180.5Q48.0 158.0 59.5 139.0Q71.0 120.0 71.0 112.5Q71.0 109.5 73.5 104.5Q76.0 99.5 78.5 97.0ZM275.0 233.5Q280.5 226.5 285.5 223.0Q290.5 219.5 293.0 219.0Q298.0 220.5 298.0 227.0Q298.0 229.0 293.75 235.5Q289.5 242.0 282.5 247.5Q263.0 268.5 253.25 282.75Q243.5 297.0 243.5 307.5Q243.5 323.5 266.5 343.5L288.5 363.0Q294.0 359.0 299.5 354.75Q305.0 350.5 310.5 346.5Q320.0 341.0 334.5 329.75Q349.0 318.5 361.0 310.0Q371.0 301.5 378.75 295.75Q386.5 290.0 389.5 290.0L391.0 292.0Q391.0 296.0 382.75 309.0Q374.5 322.0 362.0 335.5H362.5Q347.0 354.0 341.75 362.25Q336.5 370.5 336.5 377.5V383.0Q338.5 389.0 345.5 398.75Q352.5 408.5 359.5 416.0Q368.0 423.0 374.75 431.25Q381.5 439.5 381.5 443.5Q381.5 448.0 378.0 448.0Q372.0 448.0 357.5 431.5Q339.0 413.5 316.25 402.25Q293.5 391.0 275.5 391.0Q260.0 391.0 260.0 385.5Q260.0 382.5 266.5 376.0Q270.0 371.5 270.0 370.5Q270.0 367.0 257.5 354.5Q239.5 339.5 222.75 330.75Q206.0 322.0 187.0 319.0L160.5 315.0L214.0 278.5Q234.0 265.0 251.75 251.75Q269.5 238.5 275.0 233.5ZM371.0 88.5Q376.5 82.5 380.0 82.5Q383.0 82.5 383.5 86.0V86.5Q383.5 90.0 377.5 99.5Q371.5 109.0 362.5 119.0Q340.0 143.0 327.5 162.0Q315.0 181.0 314.0 190.5Q314.0 191.0 314.5 192.0Q315.0 193.0 315.0 194.0Q317.0 197.5 317.75 202.25Q318.5 207.0 318.5 209.5V210.5Q319.0 212.5 327.0 219.75Q335.0 227.0 345.0 235.0Q363.0 247.5 373.5 259.75Q384.0 272.0 385.0 278.5Q384.0 280.5 383.25 282.0Q382.5 283.5 381.5 285.0H380.0Q378.5 285.0 373.5 280.75Q368.5 276.5 362.5 270.0Q354.0 259.5 339.25 248.0Q324.5 236.5 308.25 226.25Q292.0 216.0 277.5 209.75Q263.0 203.5 254.5 203.5Q240.0 203.5 233.5 201.0Q227.0 198.5 226.0 194.5Q227.5 187.0 244.5 176.0Q254.5 170.5 269.25 161.0Q284.0 151.5 300.75 140.5Q317.5 129.5 332.5 118.75Q347.5 108.0 358.0 99.75Q368.5 91.5 371.0 88.5ZM387.0 141.5Q387.0 110.5 397.5 110.5Q400.0 110.5 404.0 113.25Q408.0 116.0 414.5 121.5Q425.0 129.0 437.5 134.0Q450.0 139.0 469.25 141.75Q488.5 144.5 518.75 145.5Q549.0 146.5 594.5 146.5Q650.5 146.5 681.25 149.0Q712.0 151.5 712.0 154.5Q712.0 158.0 686.0 160.5Q660.0 163.0 613.5 163.0Q575.0 163.0 547.25 164.25Q519.5 165.5 497.75 168.75Q476.0 172.0 455.5 178.0Q435.0 184.0 411.0 193.0L380.0 205.0L385.0 183.5Q386.0 178.0 386.5 165.25Q387.0 152.5 387.0 141.5ZM427.5 231.0Q429.0 217.5 430.75 208.0Q432.5 198.5 436.0 198.5Q438.0 198.5 446.0 201.5Q454.0 204.5 463.5 209.5Q470.5 213.0 478.25 214.75Q486.0 216.5 498.0 217.5Q510.0 218.5 530.0 218.75Q550.0 219.0 582.0 219.0Q629.5 219.0 655.25 221.0Q681.0 223.0 681.0 227.0Q681.0 231.0 661.25 233.0Q641.5 235.0 607.5 235.0Q581.5 235.0 555.75 236.75Q530.0 238.5 509.25 241.25Q488.5 244.0 476.0 247.25Q463.5 250.5 463.5 253.5Q463.5 259.0 474.0 262.25Q484.5 265.5 509.5 267.25Q534.5 269.0 577.0 270.0Q603.0 270.5 624.25 272.0Q645.5 273.5 658.25 275.5Q671.0 277.5 671.0 279.5Q671.0 281.5 660.25 283.25Q649.5 285.0 631.25 286.0Q613.0 287.0 590.5 287.0H569.0Q535.5 287.0 516.0 288.75Q496.5 290.5 482.5 294.0H483.0L477.0 295.5Q460.0 301.0 450.5 304.0Q441.0 307.0 437.0 307.0Q429.0 307.0 429.0 297.5Q429.0 295.5 429.25 293.0Q429.5 290.5 429.5 287.0L430.5 284.0Q431.0 280.5 431.0 277.0Q431.0 273.5 431.0 271.0V262.5Q428.5 261.0 428.0 251.75Q427.5 242.5 427.5 231.0ZM666.0 301.5Q666.0 297.0 672.25 287.75Q678.5 278.5 686.75 268.75Q695.0 259.0 702.25 252.25Q709.5 245.5 711.0 245.5Q713.5 245.5 716.5 250.5Q719.5 255.5 723.0 262.5Q727.0 273.0 734.75 280.75Q742.5 288.5 760.5 297.75Q778.5 307.0 812.5 323.0Q840.0 334.5 854.0 341.25Q868.0 348.0 873.0 351.25Q878.0 354.5 878.0 357.5Q878.0 361.0 876.0 362.0L875.5 363.0H874.0Q869.0 363.0 852.0 356.25Q835.0 349.5 812.0 339.5Q785.0 327.5 756.5 317.75Q728.0 308.0 698.5 308.0Q693.5 308.0 692.5 309.75Q691.5 311.5 691.5 315.5Q691.5 342.5 787.5 385.5Q805.0 392.5 819.75 400.0Q834.5 407.5 843.25 413.0Q852.0 418.5 852.0 420.0Q852.0 425.5 847.5 425.5Q842.0 425.5 826.5 419.0Q811.0 412.5 778.0 397.0L729.0 373.0L626.0 371.0Q613.5 371.0 601.0 370.75Q588.5 370.5 578.0 370.5Q540.5 370.5 514.25 373.0Q488.0 375.5 465.5 381.5Q443.0 387.5 417.0 398.0L383.5 411.5L386.5 365.0Q387.0 347.5 389.0 333.25Q391.0 319.0 391.5 317.5H394.0Q395.0 317.5 398.5 318.75Q402.0 320.0 404.0 323.0V321.5Q408.5 324.5 417.75 330.0Q427.0 335.5 437.0 339.5Q444.5 343.5 452.0 345.75Q459.5 348.0 470.5 349.25Q481.5 350.5 499.5 351.25Q517.5 352.0 546.5 353.0L633.5 354.5Q638.0 351.0 647.0 342.0Q656.0 333.0 663.5 324.0Q671.0 315.0 671.0 311.0Q671.0 308.0 667.5 307.5Q666.0 305.0 666.0 301.5ZM714.0 200.0Q738.0 174.0 743.0 174.0Q748.5 174.0 748.5 183.5Q748.5 210.5 846.0 253.5Q872.0 266.0 889.0 274.75Q906.0 283.5 906.0 287.0Q906.0 290.0 903.0 290.0H901.5Q895.5 290.0 878.0 284.0Q860.5 278.0 841.5 269.0Q821.5 259.5 806.5 253.75Q791.5 248.0 777.25 244.5Q763.0 241.0 744.0 239.0Q742.0 238.5 734.25 237.5Q726.5 236.5 717.5 235.25Q708.5 234.0 701.5 232.75Q694.5 231.5 694.0 231.0Q692.5 230.0 698.5 220.5Q704.5 211.0 714.0 200.0ZM848.5 23.0Q858.5 10.0 862.0 10.0Q864.0 10.0 866.0 16.5V18.0Q866.0 23.0 862.75 29.5Q859.5 36.0 855.5 42.5Q842.5 60.5 832.25 80.5Q822.0 100.5 816.0 116.75Q810.0 133.0 810.0 141.5Q810.0 146.5 812.5 146.5Q816.5 146.5 818.0 150.0Q819.5 153.5 819.5 159.0Q819.5 167.0 855.0 182.5Q878.0 193.5 892.0 204.0Q906.0 214.5 906.0 219.0Q906.0 224.5 899.0 224.5Q896.0 224.5 892.25 222.5Q888.5 220.5 886.0 218.5Q885.0 215.5 870.75 208.25Q856.5 201.0 838.5 193.0Q824.5 186.0 815.0 181.75Q805.5 177.5 797.0 175.5Q788.5 173.5 778.25 172.75Q768.0 172.0 752.0 172.0H705.5L774.5 105.0Q792.0 87.0 808.0 70.5Q824.0 54.0 835.0 41.25Q846.0 28.5 848.5 23.0Z" fill="black" /></svg>