<svg xmlns="http://www.w3.org/2000/svg" width="630.5" height="389.5" viewBox="0 0 630.5 389.5"><path d="M88.0 224.0Q78.5 214.5 73.0 209.5Q67.5 204.5 64.0 204.5Q62.0 204.5 58.0 210.0Q54.0 215.5 49.5 223.0Q45.0 230.5 41.5 237.75Q38.0 245.0 36.5 249.0Q42.5 249.0 58.5 246.5Q65.0 245.5 73.75 244.5Q82.5 243.5 90.5 243.5Q93.0 243.5 96.0 243.5Q99.0 243.5 100.5 244.0Q103.5 244.5 105.75 244.75Q108.0 245.0 109.5 245.0Q118.5 245.0 118.5 243.5Q118.5 241.5 109.5 239.5Q106.0 238.5 99.75 234.0Q93.5 229.5 88.0 224.0ZM192.0 162.0Q192.0 160.0 191.5 160.0Q188.5 160.0 188.5 163.5L187.5 164.5H188.5Q192.0 164.5 192.0 162.0ZM399.0 250.5 379.5 232.0Q369.5 223.5 362.0 217.0Q354.5 210.5 353.5 210.5Q352.0 210.0 345.5 217.25Q339.0 224.5 332.5 232.75Q326.0 241.0 324.0 245.0Q327.0 245.5 338.5 246.5Q350.0 247.5 364.0 248.5ZM153.5 63.5H154.0Q152.0 62.5 142.25 60.5Q132.5 58.5 119.5 56.5L92.0 53.5L102.0 73.0Q106.5 81.0 110.5 88.25Q114.5 95.5 115.0 96.0Q115.0 96.0 119.5 91.75Q124.0 87.5 130.5 81.0H129.5Q133.5 77.0 140.75 70.5Q148.0 64.0 154.0 64.0ZM366.0 71.0Q358.0 65.5 348.75 60.25Q339.5 55.0 330.5 51.5L329.0 50.5Q329.5 51.0 329.5 56.0Q329.5 65.0 331.0 77.0Q332.5 89.0 334.0 91.0V90.0Q336.5 90.0 344.25 86.0Q352.0 82.0 359.0 77.25Q366.0 72.5 366.0 71.0ZM553.5 31.5H525.5Q511.0 31.5 504.25 32.25Q497.5 33.0 497.5 36.5Q497.5 38.5 499.25 42.0Q501.0 45.5 503.5 50.5Q506.0 55.5 509.5 66.25Q513.0 77.0 515.5 87.0Q518.5 96.0 520.75 102.75Q523.0 109.5 524.0 109.5Q524.5 109.5 525.75 105.0Q527.0 100.5 528.0 94.0Q530.0 87.0 534.0 75.75Q538.0 64.5 542.5 55.0Q547.0 46.5 550.25 39.25Q553.5 32.0 553.5 31.5ZM77.0 56.5 58.5 34.5 81.5 38.0Q94.0 40.0 114.75 43.0Q135.5 46.0 159.75 48.75Q184.0 51.5 207.0 53.75Q230.0 56.0 247.5 57.5Q265.0 59.0 272.5 59.0Q285.0 59.0 292.5 61.0Q300.0 63.0 300.0 66.5Q300.0 72.5 274.0 72.5Q267.0 72.5 257.0 72.0Q247.0 71.5 234.0 71.0Q218.5 70.0 207.5 69.75Q196.5 69.5 188.5 69.5Q174.0 69.5 167.5 71.0Q161.0 72.5 154.0 76.5Q143.5 83.0 137.25 91.75Q131.0 100.5 126.75 117.0Q122.5 133.5 117.0 164.5Q113.5 186.0 111.5 198.25Q109.5 210.5 109.5 216.5Q109.5 221.0 110.75 222.75Q112.0 224.5 115.0 227.0Q132.5 240.5 166.75 254.0Q201.0 267.5 259.0 284.0Q283.0 290.5 302.75 297.0Q322.5 303.5 334.25 308.0Q346.0 312.5 346.0 314.0Q346.0 316.0 345.25 317.5Q344.5 319.0 341.0 319.0Q335.5 319.0 317.5 314.0Q299.5 309.0 257.5 297.0Q206.0 281.5 173.25 272.75Q140.5 264.0 120.25 260.25Q100.0 256.5 84.5 256.5Q81.0 256.5 77.75 257.0Q74.5 257.5 71.0 257.5Q60.0 259.0 47.5 261.0Q35.0 263.0 29.5 265.5Q25.0 267.5 20.5 268.0Q16.0 268.5 13.5 268.5Q11.5 268.5 10.0 268.0V266.5Q10.0 263.5 14.0 256.0Q18.0 248.5 24.0 239.5Q34.0 226.5 42.5 212.0Q51.0 197.5 58.5 183.0H60.0Q61.5 183.0 66.5 187.0Q71.5 191.0 77.5 197.0Q83.0 202.0 87.5 205.25Q92.0 208.5 94.5 208.5H95.5Q97.0 206.0 99.25 195.0Q101.5 184.0 103.5 169.75Q105.5 155.5 106.75 143.0Q108.0 130.5 108.0 126.0Q108.0 114.5 102.75 101.75Q97.5 89.0 90.5 77.0Q83.5 65.0 77.0 56.5ZM475.5 15.0Q475.5 10.0 480.5 10.0Q483.5 10.0 486.5 11.5Q489.5 13.5 503.0 15.0Q516.5 16.5 533.5 17.5Q575.0 18.5 575.0 27.0Q575.0 30.0 570.0 33.5Q565.0 36.0 558.75 48.25Q552.5 60.5 546.75 76.25Q541.0 92.0 538.0 105.5V105.0Q537.0 114.5 535.5 135.75Q534.0 157.0 534.0 184.5Q534.0 192.5 534.5 201.25Q535.0 210.0 535.0 219.0L535.5 304.5Q545.5 308.0 555.25 312.0Q565.0 316.0 575.0 320.0L582.0 323.0Q596.5 329.0 606.75 334.0Q617.0 339.0 619.0 340.5H618.0Q620.5 343.0 620.5 344.5Q620.5 348.0 616.5 348.0Q606.5 348.0 573.0 334.0Q561.0 328.5 551.5 325.25Q542.0 322.0 539.5 322.0H538.5Q538.0 323.0 538.0 327.75Q538.0 332.5 538.0 338.5V349.5Q538.0 379.5 532.5 379.5Q530.0 379.5 528.0 370.25Q526.0 361.0 526.0 345.0V314.0L506.5 306.5Q474.0 292.5 451.75 284.0Q429.5 275.5 413.25 271.0Q397.0 266.5 382.0 264.75Q367.0 263.0 348.5 262.5Q328.0 262.5 312.5 262.0Q297.0 261.5 297.0 258.0Q297.0 258.0 304.75 248.25Q312.5 238.5 322.5 226.0Q333.0 213.0 340.25 203.0Q347.5 193.0 347.5 191.0L349.0 190.5Q351.0 190.5 360.5 197.75Q370.0 205.0 381.5 217.5Q395.0 229.5 409.75 241.5Q424.5 253.5 432.5 258.0Q438.5 262.0 451.75 268.5Q465.0 275.0 480.0 281.75Q495.0 288.5 506.75 293.0Q518.5 297.5 521.5 297.5Q521.5 297.5 521.25 285.25Q521.0 273.0 521.0 253.5V216.0Q520.0 189.0 519.0 171.25Q518.0 153.5 516.75 141.75Q515.5 130.0 513.25 121.0Q511.0 112.0 507.5 101.5L497.0 71.0L445.0 72.5Q424.5 73.0 410.25 74.5Q396.0 76.0 385.0 79.5Q374.0 83.0 362.75 89.5Q351.5 96.0 336.5 106.5Q330.5 111.0 325.25 113.25Q320.0 115.5 311.5 116.5Q303.0 117.5 288.0 117.5H265.0Q242.0 117.5 223.25 118.5Q204.5 119.5 202.0 122.0Q200.0 123.0 198.75 123.75Q197.5 124.5 196.5 125.0Q197.5 127.0 212.25 129.0Q227.0 131.0 257.5 132.0Q286.0 132.5 300.75 135.0Q315.5 137.5 315.5 140.0Q315.5 146.5 266.5 146.5Q199.0 148.0 199.0 152.0Q199.0 157.5 260.5 159.5Q282.5 160.5 298.25 162.5Q314.0 164.5 314.0 167.5Q314.0 170.0 299.75 171.75Q285.5 173.5 265.0 173.5Q245.5 173.5 227.25 174.5Q209.0 175.5 203.5 176.5Q190.5 179.0 190.5 181.0Q191.5 184.5 212.25 188.25Q233.0 192.0 265.0 192.0Q310.5 192.0 310.5 198.0Q310.5 200.5 295.5 203.0Q280.5 205.5 253.0 206.0Q225.5 207.0 208.75 208.75Q192.0 210.5 189.0 213.0L188.5 213.5Q188.5 218.0 209.25 221.0Q230.0 224.0 263.5 224.0Q282.5 224.0 296.0 226.0Q309.5 228.0 309.5 230.5Q309.5 233.5 292.25 235.75Q275.0 238.0 250.0 239.0Q225.5 240.0 204.75 241.5Q184.0 243.0 178.5 245.0Q175.5 245.5 173.25 246.0Q171.0 246.5 170.0 246.5Q165.5 246.5 165.5 242.0Q165.5 241.0 165.5 239.75Q165.5 238.5 166.0 236.5Q167.0 232.5 168.75 221.5Q170.5 210.5 171.5 198.5Q175.0 154.5 177.0 132.0Q179.0 109.5 181.75 101.25Q184.5 93.0 189.0 93.0Q192.0 93.0 193.5 94.0Q201.0 97.0 216.25 99.5Q231.5 102.0 250.25 103.5Q269.0 105.0 286.5 105.0H320.0V88.0Q320.0 79.5 318.75 67.25Q317.5 55.0 316.5 46.5V47.0Q315.5 41.0 314.75 36.0Q314.0 31.0 314.0 27.5Q314.0 25.0 314.5 23.0Q315.0 21.0 315.5 20.0H316.5Q319.0 20.0 324.25 24.5Q329.5 29.0 335.5 35.0Q349.0 48.5 363.5 53.75Q378.0 59.0 406.5 59.0Q413.0 59.0 420.0 58.75Q427.0 58.5 435.5 58.0Q455.5 57.0 471.25 55.5Q487.0 54.0 489.5 53.5Q489.5 51.0 487.75 46.75Q486.0 42.5 483.5 37.5Q480.0 30.0 477.75 23.5Q475.5 17.0 475.5 15.0ZM195.0 109.5H196.5ZM190.5 137.0H192.0ZM186.0 196.5H187.5Z" fill="black" /></svg>