<svg xmlns="http://www.w3.org/2000/svg" width="850.0" height="456.5" viewBox="0 0 850.0 456.5"><path d="M247.5 173.0V173.5Q241.0 169.0 238.5 169.0Q236.5 169.0 234.75 173.5Q233.0 178.0 232.0 183.25Q231.0 188.5 231.0 191.0Q232.0 191.0 234.75 189.25Q237.5 187.5 242.5 184.5Q250.5 177.5 250.5 176.5Q250.5 175.0 247.5 173.0ZM401.5 188.0Q401.5 186.0 399.5 185.0Q397.5 184.0 394.5 182.5Q394.0 182.0 393.0 182.0Q392.0 182.0 391.5 182.0Q388.5 182.0 388.5 184.5Q388.5 186.0 390.5 187.75Q392.5 189.5 395.5 189.5Q401.5 189.5 401.5 188.0ZM203.5 78.0Q203.5 77.5 196.0 77.5Q191.0 77.5 187.75 78.0Q184.5 78.5 184.5 79.5Q184.5 81.0 192.0 81.0Q200.5 81.0 203.5 78.0ZM232.5 82.5Q228.0 83.5 220.75 86.0Q213.5 88.5 206.0 93.0Q196.5 98.0 192.0 101.75Q187.5 105.5 185.25 114.25Q183.0 123.0 179.5 143.0Q174.5 177.5 174.5 193.5Q174.5 208.5 180.5 215.75Q186.5 223.0 201.5 235.0Q212.5 243.5 222.5 250.75Q232.5 258.0 236.0 259.0H236.5Q240.5 258.5 254.0 250.75Q267.5 243.0 285.5 231.25Q303.5 219.5 320.5 207.75Q337.5 196.0 348.75 187.25Q360.0 178.5 360.0 176.5Q360.0 175.5 348.0 175.0Q336.0 174.5 318.5 174.5H274.5L252.5 194.5Q243.0 203.0 237.0 210.75Q231.0 218.5 231.0 221.0Q231.0 225.0 228.5 227.75Q226.0 230.5 223.5 230.5Q216.0 230.5 216.0 211.0Q216.0 203.5 217.0 192.5Q218.0 181.5 219.5 167.0Q221.5 152.5 224.0 142.75Q226.5 133.0 228.5 133.0Q231.5 133.0 233.0 136.0Q234.5 139.0 234.5 143.0Q234.5 146.0 237.5 148.75Q240.5 151.5 244.0 153.0Q247.5 155.0 260.75 156.75Q274.0 158.5 290.5 159.75Q307.0 161.0 320.0 161.0Q328.0 161.0 334.0 160.5Q340.0 160.0 342.5 158.5Q344.0 158.0 345.25 158.0Q346.5 158.0 346.5 158.0Q346.5 155.5 330.0 142.0Q310.5 127.0 297.5 118.25Q284.5 109.5 274.0 104.75Q263.5 100.0 251.0 96.5H252.5Q231.0 93.0 231.0 85.5Q231.0 84.5 232.5 82.5ZM299.0 62.5Q299.0 62.0 299.25 61.5Q299.5 61.0 299.5 60.5Q293.5 63.5 285.5 68.75Q277.5 74.0 271.75 78.25Q266.0 82.5 266.0 84.0Q266.0 84.5 270.25 86.25Q274.5 88.0 280.0 90.0Q288.0 94.0 291.5 94.0Q293.5 94.0 293.5 85.5Q293.5 81.0 295.0 74.0Q296.5 67.0 299.0 62.5ZM399.5 75.0Q394.0 71.5 390.25 69.25Q386.5 67.0 386.5 67.0Q385.5 67.0 383.5 72.25Q381.5 77.5 379.25 84.75Q377.0 92.0 375.5 98.25Q374.0 104.5 374.0 107.0Q374.0 106.5 381.5 106.5Q393.0 106.5 413.5 104.25Q434.0 102.0 454.0 99.5L460.0 98.5L442.0 92.5Q429.5 88.0 417.25 83.25Q405.0 78.5 399.5 75.0ZM537.5 51.5Q536.5 51.0 531.5 51.0Q526.5 51.0 519.0 51.0Q507.0 51.0 503.0 51.25Q499.0 51.5 499.0 52.5Q499.0 54.0 500.0 56.5Q501.0 60.0 502.75 67.0Q504.5 74.0 506.0 79.5Q509.5 92.5 511.0 92.5Q520.5 92.5 537.5 51.5ZM663.0 141.5Q629.0 134.5 599.5 128.5Q570.0 122.5 551.25 118.25Q532.5 114.0 529.5 113.5H528.0Q522.5 113.5 517.0 120.5V120.0Q515.5 125.0 514.25 138.75Q513.0 152.5 513.0 167.0Q513.0 178.0 513.75 187.0Q514.5 196.0 516.5 199.0Q521.0 207.5 543.0 207.5Q559.0 207.5 585.5 203.75Q612.0 200.0 654.5 192.5Q682.0 187.0 706.75 182.25Q731.5 177.5 749.0 174.25Q766.5 171.0 771.5 171.0L785.5 167.0Q785.5 167.0 768.75 163.5Q752.0 160.0 724.25 154.25Q696.5 148.5 663.0 141.5ZM69.5 356.5Q66.0 344.0 64.0 344.0Q62.5 344.0 58.25 347.5Q54.0 351.0 50.25 355.25Q46.5 359.5 46.5 361.0Q46.5 361.5 50.0 362.5Q53.5 363.5 60.0 366.0H67.5Q70.0 366.0 70.0 365.0Q70.0 363.0 70.0 361.25Q70.0 359.5 69.5 356.5ZM145.0 290.0Q148.5 287.0 148.5 286.5Q148.5 287.0 142.5 287.0Q133.5 287.0 133.5 289.0Q133.5 294.0 138.0 294.0Q142.5 294.0 145.0 290.0ZM148.5 341.5Q142.0 338.5 139.0 338.5Q138.0 338.5 138.0 343.5Q138.0 347.0 140.0 347.0Q142.0 347.0 144.5 346.5Q147.0 346.0 149.5 344.0Q150.5 343.5 151.25 343.25Q152.0 343.0 152.5 342.5Q151.5 342.5 148.5 341.5ZM222.0 303.5Q223.5 303.5 228.75 296.0Q234.0 288.5 235.5 284.5Q233.5 284.5 228.75 286.25Q224.0 288.0 219.75 290.25Q215.5 292.5 215.5 294.0Q215.5 295.0 216.75 297.25Q218.0 299.5 219.5 302.0Q219.5 303.0 220.5 303.25Q221.5 303.5 222.0 303.5ZM336.0 314.0Q327.0 307.5 324.0 307.5Q323.5 307.5 322.25 314.25Q321.0 321.0 320.0 330.5Q319.0 340.0 318.25 349.5Q317.5 359.0 317.5 365.0V367.0Q318.5 367.0 333.25 361.0Q348.0 355.0 368.0 347.0L409.0 329.5L383.5 325.5Q368.5 322.5 355.0 319.25Q341.5 316.0 336.0 314.0ZM159.5 192.5Q159.5 189.5 159.25 187.0Q159.0 184.5 158.0 184.5Q153.0 184.5 149.5 188.25Q146.0 192.0 146.0 195.0Q149.0 199.0 153.5 199.0Q155.5 199.0 157.5 197.5Q159.5 196.0 159.5 192.5ZM386.5 247.5H385.0Q383.5 243.5 381.75 242.5Q380.0 241.5 379.0 241.5V248.5Q379.0 253.5 381.5 253.5Q382.5 253.5 383.25 253.0Q384.0 252.5 384.5 252.5Q386.0 252.0 387.0 251.75Q388.0 251.5 388.0 251.5Q388.0 250.5 387.25 250.0Q386.5 249.5 386.5 247.5ZM493.0 208.5Q491.0 203.0 482.25 201.75Q473.5 200.5 447.0 200.5Q429.0 200.5 419.25 201.0Q409.5 201.5 403.5 203.5Q397.5 205.5 391.5 210.0L379.5 219.0Q383.5 223.0 387.25 226.5Q391.0 230.0 394.5 234.0Q402.5 242.5 407.75 246.25Q413.0 250.0 423.0 250.75Q433.0 251.5 454.5 251.5H499.0V235.0Q499.0 228.0 497.25 220.0Q495.5 212.0 493.0 208.5ZM575.0 223.0Q573.0 223.5 564.75 223.25Q556.5 223.0 546.5 222.5L517.0 221.5V265.5L531.5 255.5Q534.5 253.0 538.0 250.25Q541.5 247.5 545.0 245.0Q550.0 242.0 554.5 238.5Q559.0 235.0 562.5 232.5V233.5Q566.0 230.5 569.75 227.5Q573.5 224.5 575.0 223.0ZM324.0 17.5Q324.0 13.5 326.25 11.75Q328.5 10.0 330.5 10.0Q333.0 10.0 335.25 10.5Q337.5 11.0 337.5 14.0Q337.5 17.5 333.5 24.5Q329.5 31.5 322.5 47.0Q315.5 62.0 311.0 74.0Q306.5 86.0 306.5 92.5Q306.5 98.0 310.5 98.0Q317.5 98.0 317.5 106.5Q317.5 110.0 325.0 118.0Q332.5 126.0 342.75 134.25Q353.0 142.5 362.0 148.5Q371.0 154.5 374.5 154.5H375.5Q376.0 153.0 379.0 153.0Q386.0 153.0 400.0 167.0Q409.0 174.5 414.75 178.25Q420.5 182.0 429.75 183.25Q439.0 184.5 456.5 185.0Q464.5 185.5 470.5 185.5Q476.5 185.5 482.0 185.5Q496.5 185.5 496.5 185.0Q498.0 185.0 498.5 173.75Q499.0 162.5 499.0 147.0V112.5H486.0Q473.0 112.5 454.75 114.5Q436.5 116.5 418.25 119.25Q400.0 122.0 386.25 125.0Q372.5 128.0 368.5 130.5Q365.0 132.5 362.25 133.75Q359.5 135.0 358.0 135.0Q353.5 135.0 353.5 127.5Q353.5 123.0 355.0 116.0Q356.5 109.0 360.0 99.5Q364.0 88.5 367.0 76.75Q370.0 65.0 370.0 59.0Q370.0 41.5 379.0 41.5Q386.5 41.5 396.5 52.5Q401.0 56.5 412.75 62.25Q424.5 68.0 438.75 73.5Q453.0 79.0 465.5 82.75Q478.0 86.5 484.0 86.5Q493.0 86.5 493.0 83.0Q493.0 78.5 488.0 69.75Q483.0 61.0 477.25 53.75Q471.5 46.5 468.0 46.5Q463.5 46.5 463.5 42.5Q463.5 39.5 467.0 37.5Q468.0 35.5 475.75 34.5Q483.5 33.5 494.5 33.5Q501.0 33.5 508.5 34.25Q516.0 35.0 524.0 35.0Q549.0 36.5 559.25 38.25Q569.5 40.0 569.5 44.0Q569.5 47.5 564.0 50.0Q558.0 53.5 551.5 62.0Q545.0 70.5 540.5 79.5Q536.0 88.5 536.0 94.5Q536.0 98.0 537.0 98.0Q538.5 98.5 559.5 103.25Q580.5 108.0 615.25 115.25Q650.0 122.5 691.0 131.0Q732.0 139.0 765.75 146.75Q799.5 154.5 819.75 160.0Q840.0 165.5 840.0 167.0Q840.0 169.0 824.0 173.25Q808.0 177.5 781.5 183.0Q755.0 188.5 722.5 194.5L605.5 217.0L570.5 244.5Q548.5 261.5 537.0 272.0Q525.5 282.5 521.25 289.25Q517.0 296.0 517.0 303.0V313.0H643.5Q706.0 313.0 740.25 314.75Q774.5 316.5 774.5 320.0Q774.5 324.0 741.0 325.75Q707.5 327.5 646.0 327.5Q606.0 327.5 581.25 327.75Q556.5 328.0 543.25 328.75Q530.0 329.5 525.0 331.0Q520.0 332.5 519.5 334.5Q515.0 343.5 510.0 343.5Q507.5 343.5 505.25 340.75Q503.0 338.0 503.0 333.0Q503.0 330.5 501.0 329.75Q499.0 329.0 491.0 329.0Q474.5 329.0 450.5 334.5Q426.5 340.0 401.0 349.0Q375.5 358.0 353.75 368.75Q332.0 379.5 320.0 390.0Q313.5 396.5 308.0 400.5Q302.5 404.5 302.0 404.5Q299.5 404.5 299.5 395.5Q299.5 392.0 299.75 386.75Q300.0 381.5 301.0 375.0V375.5L304.5 352.5L228.5 356.0Q207.5 356.5 188.5 357.75Q169.5 359.0 156.75 360.75Q144.0 362.5 141.0 364.0Q138.5 365.5 136.0 370.25Q133.5 375.0 133.5 382.0Q133.5 389.5 131.25 394.25Q129.0 399.0 125.0 399.0Q119.5 399.0 119.5 366.0V320.0Q119.5 300.5 118.25 294.25Q117.0 288.0 113.0 284.5Q109.0 282.0 105.75 278.75Q102.5 275.5 102.5 272.5L104.0 270.5Q105.5 269.0 108.25 268.75Q111.0 268.5 114.5 268.5Q122.0 268.5 133.75 269.75Q145.5 271.0 157.25 272.5Q169.0 274.0 176.75 276.0Q184.5 278.0 184.5 279.5Q184.5 283.0 182.25 285.0Q180.0 287.0 177.5 287.0Q174.5 287.0 168.25 290.75Q162.0 294.5 155.0 299.5Q148.0 304.5 143.0 309.0Q138.0 313.5 138.0 315.5Q138.0 317.5 145.0 321.25Q152.0 325.0 161.5 329.5Q173.5 336.0 183.25 338.25Q193.0 340.5 212.0 340.5Q217.5 340.5 226.0 340.0Q234.5 339.5 245.0 339.5Q270.5 338.5 284.0 337.0Q297.5 335.5 303.25 331.5Q309.0 327.5 310.0 320.0Q310.0 316.0 308.75 310.75Q307.5 305.5 306.5 300.0Q306.0 294.5 305.25 291.25Q304.5 288.0 304.5 285.0Q304.5 277.5 310.0 277.5Q314.0 277.5 327.5 289.5Q342.0 301.5 370.25 307.25Q398.5 313.0 448.5 313.0H503.0V301.5Q503.0 288.5 502.0 281.25Q501.0 274.0 495.75 271.0Q490.5 268.0 478.25 267.25Q466.0 266.5 443.5 266.5Q412.0 266.5 398.5 268.25Q385.0 270.0 380.5 273.5Q378.5 277.0 375.25 279.75Q372.0 282.5 370.0 282.5Q368.0 282.5 366.75 272.0Q365.5 261.5 365.5 246.0Q365.5 230.0 367.25 220.0Q369.0 210.0 372.0 210.0Q374.0 210.0 374.75 207.0Q375.5 204.0 375.5 200.5Q375.5 196.0 375.0 192.75Q374.5 189.5 374.5 189.5Q373.0 189.5 356.25 201.0Q339.5 212.5 316.5 228.5Q297.0 242.0 285.0 250.75Q273.0 259.5 266.25 266.5Q259.5 273.5 255.0 281.5Q250.5 289.5 245.0 301.5Q237.0 315.5 231.25 326.25Q225.5 337.0 223.0 338.0Q221.5 338.0 217.25 330.75Q213.0 323.5 208.25 313.5Q203.5 303.5 200.0 294.5Q196.5 285.5 196.5 282.5V281.0Q198.0 275.5 205.0 275.5H206.5Q207.0 276.5 210.5 276.5Q213.0 276.5 215.5 275.0Q218.0 273.5 219.5 272.5H221.5Q221.5 269.0 214.0 262.0Q206.5 255.0 195.0 246.5Q183.5 238.0 171.0 230.0Q158.5 222.0 148.25 217.0Q138.0 212.0 133.5 212.0H130.0Q127.5 213.0 124.75 213.25Q122.0 213.5 119.5 213.5Q113.0 213.5 113.0 207.5Q113.0 204.0 119.25 197.0Q125.5 190.0 139.0 180.0Q150.0 171.0 157.75 162.75Q165.5 154.5 165.5 151.5Q165.5 149.0 166.0 144.5Q166.5 140.0 167.0 135.0Q168.0 130.5 168.75 125.25Q169.5 120.0 170.0 115.0Q170.5 108.5 171.0 104.25Q171.5 100.0 171.5 96.5Q171.5 86.5 165.5 80.5Q161.0 77.0 157.0 74.5Q153.0 72.0 150.0 72.0Q146.0 72.0 146.0 68.5Q146.0 65.0 148.0 62.5Q152.0 60.0 168.0 60.0Q178.5 60.0 192.0 60.75Q205.5 61.5 218.75 63.0Q232.0 64.5 241.75 66.25Q251.5 68.0 254.0 70.0L253.5 69.0H254.0Q257.0 69.0 264.75 64.25Q272.5 59.5 282.5 52.75Q292.5 46.0 302.0 38.5Q311.5 31.0 317.75 25.25Q324.0 19.5 324.0 17.5ZM10.0 377.0Q10.0 374.0 16.25 366.75Q22.5 359.5 32.0 350.25Q41.5 341.0 51.75 332.5Q62.0 324.0 69.75 318.5Q77.5 313.0 80.0 313.0Q82.5 313.0 83.0 316.25Q83.5 319.5 83.5 324.5V331.0Q83.0 334.0 82.75 338.0Q82.5 342.0 82.5 346.0Q82.5 349.5 82.75 353.5Q83.0 357.5 83.5 361.0Q85.0 368.0 89.0 373.5Q93.0 379.0 104.25 386.25Q115.5 393.5 137.5 406.5Q158.0 419.0 172.5 429.75Q187.0 440.5 187.0 444.5L186.5 446.5H184.5Q181.0 446.5 163.75 438.0Q146.5 429.5 123.0 417.0Q86.5 395.0 68.25 386.0Q50.0 377.0 38.5 377.0Q32.0 377.0 27.0 380.5Q20.5 382.5 15.0 382.5Q10.0 382.5 10.0 377.0Z" fill="black" /></svg>