<svg xmlns="http://www.w3.org/2000/svg" width="850.5" height="457.0" viewBox="0 0 850.5 457.0"><path d="M248.0 172.5V173.5Q243.0 169.0 239.0 169.0Q237.0 169.0 235.0 173.75Q233.0 178.5 231.75 183.75Q230.5 189.0 230.5 191.0Q232.0 191.0 243.0 184.5Q250.5 177.0 250.5 176.0Q250.5 174.5 248.0 172.5ZM401.0 188.0Q401.0 187.0 398.75 185.5Q396.5 184.0 394.5 182.5Q394.5 182.5 393.5 182.0Q392.5 181.5 391.5 181.5Q389.0 181.5 389.0 184.5Q389.0 189.5 395.5 189.5Q401.0 189.5 401.0 188.0ZM204.0 78.0Q204.0 77.0 196.0 77.0Q191.5 77.0 188.0 77.75Q184.5 78.5 184.5 79.5Q184.5 82.0 192.0 82.0Q196.0 82.0 199.5 80.5Q203.0 79.0 204.0 78.0ZM232.5 83.0Q227.5 83.5 220.5 86.25Q213.5 89.0 206.5 93.5Q196.5 98.0 192.0 101.75Q187.5 105.5 185.5 114.0Q183.5 122.5 180.0 142.5Q175.0 177.5 175.0 193.0Q175.0 208.0 181.0 215.5Q187.0 223.0 201.0 235.0Q212.5 243.5 222.75 250.75Q233.0 258.0 235.5 259.0H237.0Q241.0 258.5 254.5 250.75Q268.0 243.0 285.75 231.25Q303.5 219.5 320.5 207.75Q337.5 196.0 348.75 187.0Q360.0 178.0 360.0 176.0Q360.0 175.5 348.0 174.75Q336.0 174.0 318.5 174.0H274.5L252.5 194.5Q243.5 204.0 237.0 211.25Q230.5 218.5 230.5 221.0Q230.5 225.5 228.25 228.0Q226.0 230.5 223.5 230.5Q220.0 230.5 218.25 226.0Q216.5 221.5 216.5 210.5Q216.5 203.5 217.0 192.75Q217.5 182.0 219.5 167.0Q221.5 153.0 224.25 143.25Q227.0 133.5 228.5 133.5Q235.0 133.5 235.0 142.5Q235.0 145.5 238.0 148.75Q241.0 152.0 244.5 153.0Q248.0 155.0 261.0 157.0Q274.0 159.0 290.25 160.0Q306.5 161.0 320.5 161.0Q336.5 161.0 342.5 159.0Q344.5 158.0 345.5 158.0Q346.5 158.0 346.5 158.0Q346.5 156.5 342.75 152.75Q339.0 149.0 330.0 142.0Q310.5 126.5 297.5 118.0Q284.5 109.5 274.25 105.0Q264.0 100.5 251.5 97.0H252.5Q230.5 92.5 230.5 85.5Q230.5 85.0 232.5 83.0ZM298.5 62.5Q299.0 62.0 299.0 61.75Q299.0 61.5 299.5 61.0Q293.5 64.5 285.75 69.75Q278.0 75.0 272.25 79.0Q266.5 83.0 266.5 84.0Q266.5 84.5 270.5 86.25Q274.5 88.0 280.0 90.0Q285.0 92.5 287.25 93.25Q289.5 94.0 291.5 94.0Q292.5 94.0 292.5 85.5Q292.5 81.0 294.5 73.5Q296.5 66.0 298.5 62.5ZM399.5 75.0Q394.5 72.0 390.75 69.5Q387.0 67.0 386.5 67.0Q385.5 67.0 383.5 72.25Q381.5 77.5 379.25 84.75Q377.0 92.0 375.25 98.5Q373.5 105.0 373.5 107.5Q373.5 106.0 382.0 106.0Q393.0 106.0 413.5 104.0Q434.0 102.0 454.0 99.0L460.5 98.5L441.5 92.0Q430.0 88.0 417.5 83.25Q405.0 78.5 399.5 75.0ZM538.5 51.5Q537.5 51.0 532.25 51.0Q527.0 51.0 519.0 51.0Q507.5 51.0 503.25 51.25Q499.0 51.5 499.0 53.0Q499.0 54.5 500.0 56.5Q501.0 60.5 502.75 67.0Q504.5 73.5 505.5 79.5Q508.5 92.0 511.0 92.0Q519.0 92.0 538.5 51.5ZM663.0 141.5Q629.0 134.5 599.75 128.5Q570.5 122.5 551.5 118.25Q532.5 114.0 529.5 113.5H528.5Q521.5 113.5 517.5 121.0V119.5Q515.5 124.5 514.0 138.5Q512.5 152.5 512.5 167.0Q512.5 192.0 516.5 199.0Q519.0 203.5 525.25 205.5Q531.5 207.5 543.5 207.5Q559.0 207.5 585.75 203.5Q612.5 199.5 654.5 192.5Q682.0 187.0 706.75 182.25Q731.5 177.5 749.0 174.25Q766.5 171.0 771.5 170.5Q777.0 169.5 781.5 168.25Q786.0 167.0 786.0 167.0Q786.0 167.0 769.25 163.5Q752.5 160.0 724.75 154.25Q697.0 148.5 663.0 141.5ZM68.5 357.0Q68.0 345.5 64.5 344.0Q62.5 344.0 59.5 346.75Q56.5 349.5 52.5 353.5Q46.5 360.5 46.5 361.0Q46.5 361.0 60.0 365.5Q62.5 366.0 64.75 366.25Q67.0 366.5 68.0 366.5Q68.0 366.5 69.25 366.0Q70.5 365.5 70.5 365.0Q70.5 363.0 69.5 361.25Q68.5 359.5 68.5 357.0ZM145.5 291.0Q146.5 289.5 147.5 288.0Q148.5 286.5 149.0 286.0Q148.0 287.0 142.5 287.0Q133.5 287.0 133.5 289.0Q133.5 294.0 138.5 294.0Q139.5 294.0 141.75 293.5Q144.0 293.0 145.5 291.0ZM149.0 341.5Q143.0 339.0 139.0 339.0Q139.0 339.0 138.75 340.25Q138.5 341.5 138.5 343.0Q138.5 348.0 140.0 348.0Q144.0 348.0 149.5 344.0Q152.0 343.0 152.5 342.5Q152.0 342.5 149.0 341.5ZM222.0 303.5Q223.5 303.5 226.5 299.5Q229.5 295.5 232.25 290.75Q235.0 286.0 235.5 284.0Q234.0 284.0 229.25 286.0Q224.5 288.0 220.25 290.25Q216.0 292.5 216.0 294.0Q216.0 297.0 219.5 302.5Q219.5 303.5 222.0 303.5ZM336.5 313.5Q327.0 307.5 324.0 307.5Q323.5 307.5 322.25 314.25Q321.0 321.0 320.25 330.75Q319.5 340.5 318.75 350.0Q318.0 359.5 318.0 365.0V367.0Q319.0 367.0 333.75 361.5Q348.5 356.0 368.0 346.5L409.5 330.0L384.0 325.5Q369.0 323.0 355.5 319.5Q342.0 316.0 336.5 313.5ZM160.0 192.5Q160.0 190.0 159.25 187.25Q158.5 184.5 157.5 184.5Q153.0 184.5 149.5 188.25Q146.0 192.0 146.0 195.5Q149.5 199.0 153.0 199.0Q155.5 199.0 157.75 197.5Q160.0 196.0 160.0 192.5ZM386.5 247.0H385.5Q381.5 241.5 379.0 241.5V249.0Q379.0 254.5 382.0 254.5Q383.0 254.5 383.5 253.75Q384.0 253.0 384.5 253.0Q386.5 252.0 387.25 251.5Q388.0 251.0 388.0 251.0Q388.0 250.5 387.5 249.75Q387.0 249.0 386.5 247.0ZM493.5 208.5Q491.5 203.0 482.75 201.25Q474.0 199.5 447.0 199.5Q429.5 199.5 419.25 200.25Q409.0 201.0 403.25 203.25Q397.5 205.5 391.5 210.0L380.0 219.0Q383.5 222.5 387.25 226.5Q391.0 230.5 394.5 234.5Q402.5 242.5 408.0 246.0Q413.5 249.5 423.5 250.25Q433.5 251.0 455.0 251.0H499.0V235.0Q499.0 228.0 497.25 220.25Q495.5 212.5 493.5 208.5ZM575.0 223.5Q573.0 224.0 565.25 223.75Q557.5 223.5 546.5 223.0L517.5 221.5V265.5L532.0 256.0Q534.5 253.0 538.25 250.5Q542.0 248.0 545.5 245.5Q550.0 241.5 554.5 238.25Q559.0 235.0 562.5 233.0V233.5Q566.0 229.5 570.0 226.75Q574.0 224.0 575.0 223.5ZM324.0 18.0Q324.0 14.0 326.25 12.0Q328.5 10.0 331.0 10.0Q333.5 10.0 335.25 10.5Q337.0 11.0 337.0 14.5Q337.0 17.5 333.5 24.75Q330.0 32.0 323.0 47.0Q315.0 62.0 311.0 74.0Q307.0 86.0 307.0 92.0Q307.0 97.5 311.0 97.5Q318.0 97.5 318.0 106.0Q318.0 110.0 325.5 117.75Q333.0 125.5 343.25 134.0Q353.5 142.5 362.5 148.5Q371.5 154.5 375.0 154.5H375.5Q375.5 153.5 377.0 153.25Q378.5 153.0 379.0 153.0Q386.5 153.0 400.5 167.0Q409.0 174.5 414.75 178.25Q420.5 182.0 429.75 183.25Q439.0 184.5 457.0 185.0Q464.5 186.0 470.5 186.25Q476.5 186.5 481.5 186.5Q497.0 186.5 497.0 185.0Q498.0 185.0 498.5 174.0Q499.0 163.0 499.0 147.5V113.5H486.5Q473.5 113.5 455.25 115.25Q437.0 117.0 418.75 119.75Q400.5 122.5 386.75 125.25Q373.0 128.0 369.0 130.5Q361.5 135.0 358.5 135.0Q353.0 135.0 353.0 127.5Q353.0 119.5 360.0 99.0Q364.5 88.5 367.25 76.75Q370.0 65.0 370.0 58.5Q370.0 41.5 379.0 41.5Q386.0 41.5 396.5 53.0Q401.0 57.0 412.75 62.5Q424.5 68.0 438.75 73.5Q453.0 79.0 465.75 82.75Q478.5 86.5 484.5 86.5Q493.5 86.5 493.5 83.5Q493.5 79.0 488.5 70.25Q483.5 61.5 477.5 54.25Q471.5 47.0 468.5 47.0Q463.5 47.0 463.5 42.0Q463.5 40.5 467.0 37.5Q468.0 35.5 475.75 35.0Q483.5 34.5 494.5 34.5Q501.5 34.5 508.5 34.75Q515.5 35.0 524.0 35.0Q549.0 36.5 558.75 38.5Q568.5 40.5 569.0 43.5Q568.5 45.5 567.5 47.25Q566.5 49.0 564.0 50.5Q558.0 53.5 551.5 62.0Q545.0 70.5 540.75 79.75Q536.5 89.0 536.5 94.5Q536.5 95.0 536.5 96.25Q536.5 97.5 537.0 97.5Q538.5 98.0 559.75 103.0Q581.0 108.0 615.5 115.5Q650.0 123.0 691.0 131.5Q732.0 139.5 766.0 147.25Q800.0 155.0 820.25 160.5Q840.5 166.0 840.5 167.0Q840.5 168.5 824.5 172.75Q808.5 177.0 781.75 182.75Q755.0 188.5 722.5 194.5L606.0 218.0L570.0 244.0Q548.5 261.0 537.25 271.5Q526.0 282.0 521.75 289.0Q517.5 296.0 517.5 303.0V313.0H643.5Q706.0 313.0 740.5 314.5Q775.0 316.0 775.0 320.0Q775.0 324.0 741.25 326.0Q707.5 328.0 646.5 328.0Q606.5 328.0 581.75 328.25Q557.0 328.5 543.75 329.25Q530.5 330.0 525.5 331.0Q520.5 332.0 520.0 334.0Q517.5 339.0 514.75 341.0Q512.0 343.0 510.5 343.0Q508.0 343.0 505.75 340.25Q503.5 337.5 503.5 332.0Q503.5 330.5 501.0 329.75Q498.5 329.0 491.5 329.0Q475.0 329.0 451.0 334.5Q427.0 340.0 401.5 349.0Q376.0 358.0 354.25 368.75Q332.5 379.5 320.5 390.0Q314.0 396.5 308.5 401.0Q303.0 405.5 302.0 405.5Q300.0 405.5 300.0 396.0Q300.0 392.0 300.25 386.5Q300.5 381.0 301.5 374.5V375.5L305.0 351.5L228.5 355.5Q207.5 356.5 188.75 358.0Q170.0 359.5 157.25 360.75Q144.5 362.0 141.5 363.5Q133.5 368.5 133.5 381.5Q133.5 389.5 131.25 394.5Q129.0 399.5 125.5 399.5Q120.0 399.5 120.0 365.5V320.0Q120.0 300.5 118.5 294.25Q117.0 288.0 112.5 284.0Q109.0 281.5 106.0 278.25Q103.0 275.0 103.0 273.0L104.5 270.0Q106.0 267.5 114.5 267.5Q122.0 267.5 133.75 268.75Q145.5 270.0 157.25 272.0Q169.0 274.0 176.75 276.0Q184.5 278.0 184.5 280.0Q184.5 283.0 182.0 285.0Q179.5 287.0 177.0 287.0Q174.5 287.0 168.25 290.75Q162.0 294.5 155.25 299.75Q148.5 305.0 143.5 309.25Q138.5 313.5 138.5 315.0Q138.5 317.0 145.5 321.0Q152.5 325.0 162.0 330.0Q174.0 336.0 183.5 338.5Q193.0 341.0 212.0 341.0Q217.5 341.0 225.75 340.25Q234.0 339.5 244.5 339.5Q270.5 338.5 284.25 337.0Q298.0 335.5 303.5 331.5Q309.0 327.5 309.0 320.0Q309.0 316.0 308.25 310.75Q307.5 305.5 307.0 300.0Q306.5 295.0 305.75 291.5Q305.0 288.0 305.0 285.5Q305.0 277.0 309.0 277.0Q311.5 277.0 316.25 280.5Q321.0 284.0 327.5 289.5Q342.5 302.0 370.5 307.5Q398.5 313.0 448.5 313.0H503.5V301.5Q503.5 288.5 502.5 281.25Q501.5 274.0 496.25 270.75Q491.0 267.5 478.75 266.75Q466.5 266.0 444.0 266.0Q412.0 266.0 398.75 268.25Q385.5 270.5 380.5 273.5Q378.0 277.0 375.25 279.75Q372.5 282.5 370.0 282.5Q368.5 282.5 367.25 271.75Q366.0 261.0 366.0 246.0Q366.0 230.5 367.5 220.25Q369.0 210.0 371.5 210.0Q375.5 210.0 375.5 199.5Q375.5 195.5 375.25 192.5Q375.0 189.5 375.0 189.5Q373.5 189.5 356.75 201.0Q340.0 212.5 316.5 227.5Q297.0 241.5 285.25 250.5Q273.5 259.5 266.5 266.5Q259.5 273.5 254.75 281.5Q250.0 289.5 244.5 301.5Q237.5 315.5 231.5 325.75Q225.5 336.0 223.0 338.0Q221.5 338.0 217.25 330.75Q213.0 323.5 208.5 313.5Q204.0 303.5 200.5 294.75Q197.0 286.0 197.0 282.5V281.0Q198.0 275.0 204.5 275.0H206.5Q207.5 275.5 208.75 275.75Q210.0 276.0 210.5 276.0Q216.0 276.0 219.5 273.0H221.0Q221.0 269.5 213.5 262.5Q206.0 255.5 194.75 246.75Q183.5 238.0 171.0 230.25Q158.5 222.5 148.25 217.25Q138.0 212.0 133.5 212.0H130.0Q127.0 212.5 124.5 213.25Q122.0 214.0 120.0 214.0Q112.5 214.0 112.5 207.5Q112.5 204.0 118.75 196.75Q125.0 189.5 139.0 179.5Q149.5 171.0 157.75 162.75Q166.0 154.5 166.0 151.5Q166.0 145.5 167.5 135.0Q168.0 130.5 168.75 125.25Q169.5 120.0 170.0 115.0Q171.5 101.5 171.5 97.0Q171.5 86.5 166.0 80.5Q161.5 77.5 157.25 74.5Q153.0 71.5 150.0 71.5Q146.0 71.5 146.0 67.5Q146.0 66.5 146.75 65.25Q147.5 64.0 148.0 62.5Q151.0 59.5 168.0 59.5Q178.5 59.5 192.0 60.25Q205.5 61.0 218.75 62.5Q232.0 64.0 241.75 65.75Q251.5 67.5 254.0 69.5V69.0Q257.0 68.5 264.75 63.75Q272.5 59.0 282.5 52.25Q292.5 45.5 302.0 38.25Q311.5 31.0 317.75 25.5Q324.0 20.0 324.0 18.0ZM10.0 377.5Q10.0 374.5 16.5 367.0Q23.0 359.5 32.75 350.25Q42.5 341.0 52.5 332.5Q62.5 324.0 70.25 318.5Q78.0 313.0 80.0 313.0Q83.5 313.0 83.5 324.5V331.5Q83.0 334.0 82.75 338.0Q82.5 342.0 82.5 346.0Q82.5 350.0 82.75 354.0Q83.0 358.0 83.5 361.0Q85.5 368.0 89.25 373.5Q93.0 379.0 103.75 386.5Q114.5 394.0 136.5 407.0Q157.5 419.5 172.25 430.0Q187.0 440.5 187.0 444.0L186.5 447.0H184.5Q181.0 447.0 163.75 438.5Q146.5 430.0 123.5 416.5Q87.0 395.0 68.0 386.25Q49.0 377.5 39.0 377.5Q31.5 377.5 26.5 380.0Q18.0 382.5 15.5 382.5Q10.0 382.5 10.0 377.5Z" fill="black" /></svg>