<svg xmlns="http://www.w3.org/2000/svg" width="766.5" height="413.0" viewBox="0 0 766.5 413.0"><path d="M67.5 276.5Q49.5 269.0 42.5 269.0Q37.5 269.0 36.0 272.25Q34.5 275.5 34.0 284.0Q32.5 291.5 32.5 300.0L33.0 300.5V300.0Q34.0 300.0 40.25 297.0Q46.5 294.0 54.5 289.0Q71.5 280.5 71.5 277.5Q71.5 277.5 70.5 277.25Q69.5 277.0 67.5 276.5ZM70.5 158.0Q66.5 158.0 59.75 157.25Q53.0 156.5 48.5 156.0Q46.5 155.0 45.25 154.75Q44.0 154.5 43.0 154.5Q40.5 154.5 40.0 157.75Q39.5 161.0 39.5 170.0V188.0Q48.0 182.5 58.0 176.5Q78.0 165.0 78.0 160.0Q78.0 158.0 70.5 158.0ZM236.5 193.5Q221.0 185.0 209.5 179.5Q198.0 174.0 187.5 171.0Q177.0 168.0 164.25 167.0Q151.5 166.0 133.0 166.0Q113.0 166.0 91.75 173.0Q70.5 180.0 53.75 193.75Q37.0 207.5 30.0 227.5Q29.5 231.5 28.75 234.75Q28.0 238.0 28.0 240.5Q28.0 244.5 34.5 249.0Q43.0 255.0 51.75 258.0Q60.5 261.0 75.5 261.75Q90.5 262.5 116.5 263.0H169.0L206.0 240.5Q230.0 226.0 240.0 218.5Q250.0 211.0 250.0 206.5Q250.0 202.0 236.5 193.5ZM206.5 263.5Q208.0 260.0 209.0 257.25Q210.0 254.5 210.5 253.5Q208.5 255.0 202.75 258.5Q197.0 262.0 190.5 266.5L173.0 277.0L182.0 279.0Q186.0 279.5 188.5 279.75Q191.0 280.0 193.0 280.0Q197.0 280.0 199.75 276.75Q202.5 273.5 206.5 263.5ZM210.0 146.5Q212.0 142.0 213.25 138.5Q214.5 135.0 215.0 133.0Q212.0 134.0 205.25 137.75Q198.5 141.5 191.75 145.5Q185.0 149.5 181.0 152.5Q181.0 153.0 185.25 154.25Q189.5 155.5 194.25 156.75Q199.0 158.0 201.0 158.0Q204.5 158.0 206.25 155.5Q208.0 153.0 210.0 146.5ZM343.0 159.5Q343.5 158.5 343.5 156.5Q343.5 154.5 342.5 154.5Q340.0 154.5 335.25 157.0Q330.5 159.5 326.75 162.5Q323.0 165.5 323.0 168.0Q323.0 168.0 324.25 168.25Q325.5 168.5 327.0 168.5Q331.5 168.5 337.0 166.75Q342.5 165.0 343.0 159.5ZM552.0 99.0Q552.0 99.0 542.0 98.0Q532.0 97.0 518.5 97.0H485.5Q479.0 104.5 473.0 111.75Q467.0 119.0 461.5 126.5Q449.0 140.5 443.5 148.25Q438.0 156.0 438.0 161.5V166.0Q443.5 185.0 461.5 185.0Q462.5 185.0 464.5 184.75Q466.5 184.5 467.0 184.5Q469.5 184.0 471.0 184.0Q472.5 184.0 473.0 184.0Q477.0 184.0 477.0 187.5Q477.0 189.0 476.5 190.5Q475.5 191.0 475.5 193.0Q475.5 194.5 476.75 197.5Q478.0 200.5 481.5 203.5H480.5Q484.5 207.0 485.75 209.75Q487.0 212.5 487.0 214.5Q487.0 219.0 483.0 219.0Q482.0 219.0 479.0 217.5Q476.0 216.0 473.0 212.5Q469.5 210.0 467.5 209.0Q465.5 208.0 462.5 208.0Q459.5 208.0 454.75 213.0Q450.0 218.0 445.0 225.25Q440.0 232.5 436.75 239.25Q433.5 246.0 433.5 249.0Q433.5 251.0 434.5 251.0Q436.5 253.0 437.25 256.5Q438.0 260.0 438.0 261.5Q438.0 262.0 444.75 267.0Q451.5 272.0 461.0 277.5Q470.0 283.5 476.75 289.75Q483.5 296.0 483.5 298.5Q483.5 304.0 481.5 304.0Q478.5 304.0 472.5 300.25Q466.5 296.5 453.0 288.0Q435.5 275.5 417.25 269.0Q399.0 262.5 384.5 262.5Q373.0 262.5 373.0 257.5Q373.0 251.0 411.0 224.5Q425.5 215.0 436.75 207.0Q448.0 199.0 448.0 198.5Q448.0 195.0 438.25 190.25Q428.5 185.5 416.0 181.75Q403.5 178.0 396.0 178.0Q389.0 178.0 383.0 176.25Q377.0 174.5 375.0 173.0V172.0Q375.0 169.0 385.75 159.25Q396.5 149.5 412.0 138.5Q436.0 123.0 447.0 115.25Q458.0 107.5 458.0 104.5Q458.0 102.0 434.5 102.0Q422.0 102.0 414.0 103.25Q406.0 104.5 399.25 109.0Q392.5 113.5 384.5 122.5Q376.5 131.5 364.5 147.5Q359.5 154.0 357.75 157.5Q356.0 161.0 356.0 164.0Q356.0 172.0 363.0 181.75Q370.0 191.5 378.5 191.5Q380.5 191.5 381.75 191.25Q383.0 191.0 384.5 190.5Q386.0 190.0 387.0 189.5Q388.0 189.0 389.5 189.0Q393.5 189.0 393.5 195.0Q393.5 197.0 395.75 200.75Q398.0 204.5 401.0 208.5Q406.5 214.0 406.5 219.0Q406.5 222.5 402.0 222.5Q401.0 222.5 398.5 221.5Q396.0 220.5 392.5 217.0Q384.5 210.5 382.0 210.5Q381.5 210.5 376.75 216.0Q372.0 221.5 366.5 229.0Q353.0 245.5 353.0 251.5Q353.0 253.0 353.5 255.0Q354.5 257.5 356.5 259.0Q358.0 262.5 358.0 267.0Q358.0 267.5 364.5 272.25Q371.0 277.0 380.5 282.5Q390.5 288.5 396.75 294.5Q403.0 300.5 403.0 303.0Q403.0 308.5 400.5 308.5Q398.0 308.5 392.25 305.0Q386.5 301.5 374.5 293.5Q357.0 281.5 338.75 274.5Q320.5 267.5 306.0 267.0Q292.0 267.0 292.0 261.0Q292.0 257.0 300.5 250.0Q309.0 243.0 328.0 231.0Q344.5 220.0 356.0 212.0Q367.5 204.0 367.5 203.5Q367.5 199.5 357.75 194.75Q348.0 190.0 335.5 186.5Q323.0 183.0 315.0 183.0Q308.5 183.0 302.5 180.75Q296.5 178.5 295.0 177.0V175.5Q295.0 173.5 305.75 164.0Q316.5 154.5 333.0 143.5Q355.0 128.5 366.25 120.0Q377.5 111.5 377.5 109.0Q377.5 109.0 376.5 108.75Q375.5 108.5 373.0 108.5Q369.0 108.5 361.75 109.75Q354.5 111.0 344.5 112.5Q316.5 118.5 300.25 123.5Q284.0 128.5 274.75 133.75Q265.5 139.0 257.5 147.0Q251.5 152.0 246.75 155.25Q242.0 158.5 239.5 158.5Q239.0 158.5 238.5 158.25Q238.0 158.0 238.0 158.0Q237.5 156.0 237.5 153.0Q237.5 148.0 239.5 144.5Q242.0 141.0 245.25 131.5Q248.5 122.0 248.5 117.5Q248.0 117.5 244.0 119.5H244.5Q241.0 122.5 236.5 128.5Q232.0 134.5 228.5 140.0Q221.5 148.5 221.5 152.5Q221.5 158.5 228.25 166.75Q235.0 175.0 243.0 182.25Q251.0 189.5 255.0 193.0V192.5Q266.0 199.0 273.0 206.25Q280.0 213.5 280.0 217.0Q280.0 223.5 278.0 223.5Q275.5 223.5 271.5 219.0Q268.5 216.5 266.0 216.5Q262.0 216.5 253.5 224.5Q245.0 232.5 235.75 243.5Q226.5 254.5 220.0 264.75Q213.5 275.0 213.5 279.5Q213.5 282.5 218.0 282.5Q221.5 282.5 221.5 288.0V291.5Q222.0 294.5 229.5 301.0Q237.0 307.5 245.75 313.0Q254.5 318.5 258.0 318.5Q258.0 317.5 257.0 314.75Q256.0 312.0 252.5 308.5L239.5 295.0L260.5 298.5Q263.5 299.0 267.0 299.5Q270.5 300.0 274.5 301.0Q280.0 302.5 286.25 303.75Q292.5 305.0 297.5 307.5Q303.5 308.0 329.0 309.5Q354.5 311.0 391.75 312.25Q429.0 313.5 470.0 314.5Q498.0 315.0 519.75 315.0Q541.5 315.0 557.0 315.0Q589.5 315.0 601.5 314.5Q613.5 314.0 613.5 313.0Q613.5 313.0 613.25 312.75Q613.0 312.5 612.5 312.5Q609.0 309.0 600.0 306.0Q591.0 303.0 582.5 302.5Q574.0 300.5 565.25 297.0Q556.5 293.5 553.0 289.0Q549.0 284.5 539.5 279.0Q530.0 273.5 518.25 268.75Q506.5 264.0 496.0 260.75Q485.5 257.5 479.0 257.5Q472.0 257.5 467.0 255.5Q462.0 253.5 462.0 251.5Q462.0 248.5 473.0 240.5Q484.0 232.5 500.5 221.5Q516.5 211.5 528.25 202.75Q540.0 194.0 541.5 193.0Q541.5 190.0 533.5 185.75Q525.5 181.5 514.25 177.75Q503.0 174.0 492.5 173.0Q482.5 172.0 475.75 169.25Q469.0 166.5 468.5 164.0V163.5Q468.5 161.0 480.75 151.25Q493.0 141.5 510.0 129.5Q527.5 119.0 539.75 109.75Q552.0 100.5 552.0 99.0ZM344.5 97.0Q310.0 89.5 291.0 89.5Q282.0 89.5 276.75 91.0Q271.5 92.5 268.0 95.5H268.5Q266.0 99.0 264.0 104.25Q262.0 109.5 262.0 113.0Q262.0 121.0 264.5 121.0Q267.0 121.0 270.5 119.5Q275.0 118.5 290.25 114.5Q305.5 110.5 321.5 107.0L327.0 105.0Q341.5 101.0 347.25 100.0Q353.0 99.0 353.0 99.0Q353.0 99.0 350.75 98.75Q348.5 98.5 344.5 97.0ZM425.5 153.0Q426.5 148.5 426.75 147.0Q427.0 145.5 427.0 145.5Q425.5 146.5 422.25 148.25Q419.0 150.0 415.5 152.5Q403.0 160.5 403.0 163.0Q403.0 164.5 413.5 164.5Q419.0 164.5 422.0 162.25Q425.0 160.0 425.5 153.0ZM516.0 150.5Q516.5 147.5 516.75 145.25Q517.0 143.0 517.0 142.5Q515.0 142.5 509.5 145.75Q504.0 149.0 499.0 152.5Q494.0 156.0 493.5 158.0Q494.5 159.5 503.5 159.5Q513.0 159.5 516.0 150.5ZM644.5 79.0Q646.0 73.5 647.25 69.75Q648.5 66.0 648.5 63.5Q646.5 63.5 638.5 68.5Q630.5 73.5 620.75 80.5Q611.0 87.5 604.0 93.25Q597.0 99.0 597.0 100.5Q597.0 102.0 605.25 104.75Q613.5 107.5 623.25 110.0Q633.0 112.5 637.5 112.5Q640.5 112.5 640.5 110.5Q640.5 109.5 640.0 108.25Q639.5 107.0 639.0 105.5Q639.0 98.5 640.0 92.25Q641.0 86.0 644.5 79.0ZM346.5 324.0 337.5 323.0Q319.5 321.5 303.25 319.25Q287.0 317.0 283.0 316.5Q282.0 316.0 280.5 316.0Q277.5 316.0 276.0 323.25Q274.5 330.5 274.25 338.75Q274.0 347.0 274.0 350.5V356.0Q276.0 356.0 280.5 354.75Q285.0 353.5 290.5 351.5Q297.0 348.0 314.0 343.75Q331.0 339.5 348.0 337.0Q360.5 333.5 370.5 331.0Q380.5 328.5 383.0 327.5Q380.0 327.0 370.0 326.25Q360.0 325.5 346.5 324.0ZM341.0 246.5Q341.5 244.0 341.75 242.75Q342.0 241.5 342.0 241.0Q342.0 239.5 341.0 239.5Q339.5 239.5 334.5 242.5Q329.5 245.5 325.0 248.5Q320.5 251.5 320.5 252.0Q320.5 254.0 324.75 255.75Q329.0 257.5 331.0 257.5Q335.0 257.5 337.0 254.5Q339.0 251.5 341.0 246.5ZM410.5 252.5Q416.0 252.5 419.0 246.5Q422.0 240.5 422.0 235.5Q422.0 235.0 421.75 234.75Q421.5 234.5 421.5 234.5Q420.0 234.5 414.75 237.75Q409.5 241.0 405.0 244.5Q400.5 248.0 400.5 249.0Q400.5 250.5 405.0 251.5Q409.0 252.5 410.5 252.5ZM514.0 232.0Q514.0 229.5 511.5 229.5Q510.0 229.5 505.75 232.25Q501.5 235.0 497.5 238.0Q493.5 241.0 493.5 242.5Q494.0 242.5 497.0 245.5V245.0L499.0 247.0Q501.5 247.5 503.75 248.75Q506.0 250.0 506.5 250.0Q509.0 250.0 511.5 243.5Q514.0 237.0 514.0 232.0ZM633.0 262.5Q634.0 258.5 635.0 255.25Q636.0 252.0 636.5 250.0Q634.0 250.0 626.25 255.25Q618.5 260.5 609.25 267.75Q600.0 275.0 593.5 281.0Q587.0 287.0 587.0 289.0Q587.0 289.0 587.5 289.0Q588.0 289.0 589.5 290.0Q591.0 291.0 594.5 291.75Q598.0 292.5 600.0 293.5Q602.0 294.5 604.5 295.75Q607.0 297.0 609.0 297.5Q613.5 298.5 617.0 299.5Q620.5 300.5 622.5 300.5Q628.0 300.5 628.0 289.0Q628.0 284.0 629.5 275.75Q631.0 267.5 633.0 262.5ZM673.5 18.0Q675.0 14.0 675.5 12.0Q676.0 10.0 677.5 10.0Q678.0 10.0 681.0 18.5Q681.0 24.0 680.25 29.0Q679.5 34.0 675.5 38.5Q671.0 44.5 665.25 57.0Q659.5 69.5 655.25 82.75Q651.0 96.0 651.0 103.5V107.0Q652.0 110.5 654.75 114.5Q657.5 118.5 660.5 119.5Q663.0 121.5 665.0 124.5Q667.0 127.5 667.0 131.0Q667.0 132.5 676.0 141.0Q685.0 149.5 697.0 158.0Q755.0 200.0 756.5 210.5Q756.5 211.0 756.0 211.75Q755.5 212.5 755.5 213.0H754.5Q752.0 213.0 744.0 208.0Q736.0 203.0 726.0 194.5Q696.0 168.5 666.0 149.5Q636.0 130.5 611.25 119.75Q586.5 109.0 571.0 109.0Q567.0 109.0 563.75 110.25Q560.5 111.5 557.5 112.5Q550.5 119.0 543.75 128.25Q537.0 137.5 532.75 145.75Q528.5 154.0 528.5 158.0L529.0 158.5Q531.0 159.5 533.0 162.5Q535.0 165.5 535.0 168.0Q535.0 173.0 540.25 176.5Q545.5 180.0 552.5 180.0Q556.5 180.0 558.0 179.5Q561.0 179.0 563.0 179.0Q566.5 179.0 567.5 183.0Q567.5 183.0 567.25 183.75Q567.0 184.5 566.5 184.5V186.0Q566.5 190.5 570.5 193.0Q573.0 195.0 575.25 199.75Q577.5 204.5 577.5 208.0Q577.5 213.0 574.5 213.0Q572.0 213.0 567.0 208.0Q562.0 203.5 557.5 203.5Q553.5 203.5 548.5 208.25Q543.5 213.0 535.0 225.0Q528.5 233.0 526.5 237.0Q524.5 241.0 524.5 243.5Q524.5 245.5 525.25 247.5Q526.0 249.5 527.0 252.0Q530.5 256.0 537.75 262.25Q545.0 268.5 552.5 272.5L571.0 282.5Q574.0 280.5 579.5 276.5Q585.0 272.5 590.5 268.25Q596.0 264.0 598.5 262.5Q610.0 254.0 623.75 241.75Q637.5 229.5 645.5 222.5L651.0 216.5Q657.5 210.5 662.0 206.75Q666.5 203.0 668.0 203.0Q670.5 203.0 670.5 205.0Q670.5 209.0 667.75 215.75Q665.0 222.5 661.0 228.0Q656.0 234.0 650.75 246.25Q645.5 258.5 642.0 271.0Q638.5 283.5 638.5 290.5Q638.5 295.5 640.75 299.5Q643.0 303.5 646.0 304.5Q648.5 306.5 650.75 309.25Q653.0 312.0 653.0 316.0Q653.0 318.0 664.25 327.25Q675.5 336.5 689.5 348.0Q742.5 389.0 742.5 399.0Q742.5 401.5 741.0 403.0H740.5Q737.0 403.0 729.75 397.75Q722.5 392.5 714.0 383.5Q704.5 375.0 689.75 364.0Q675.0 353.0 665.0 345.0L637.5 327.0L537.0 330.5Q425.5 333.0 355.0 346.25Q284.5 359.5 265.5 381.5Q254.0 392.5 253.0 392.5Q249.5 392.5 249.5 385.5Q249.5 381.5 251.0 376.75Q252.5 372.0 254.0 370.5Q262.0 360.5 262.0 351.5Q262.0 341.0 250.75 330.5Q239.5 320.0 223.25 311.25Q207.0 302.5 191.75 297.0Q176.5 291.5 168.5 290.0Q156.0 288.0 146.25 284.75Q136.5 281.5 134.0 279.5Q133.5 279.5 132.25 279.25Q131.0 279.0 128.5 279.0Q120.5 279.0 106.75 282.25Q93.0 285.5 79.0 291.0Q65.0 296.5 56.0 302.5Q48.0 307.5 41.0 316.0Q34.0 324.5 30.0 332.0Q26.5 340.0 22.5 346.0Q18.5 352.0 14.5 352.0Q10.0 352.0 10.0 347.0Q10.0 345.0 12.0 341.5Q15.0 334.5 17.0 322.75Q19.0 311.0 20.25 297.75Q21.5 284.5 21.5 274.5Q21.5 269.5 21.0 265.75Q20.5 262.0 20.0 260.5Q19.5 258.0 18.75 254.25Q18.0 250.5 18.0 245.5Q18.0 239.0 19.0 229.25Q20.0 219.5 22.0 206.5Q24.5 193.0 25.75 183.5Q27.0 174.0 27.0 166.5Q27.0 161.0 26.25 156.25Q25.5 151.5 24.5 147.5Q24.0 142.5 23.0 139.25Q22.0 136.0 22.0 133.0Q22.0 127.5 25.5 127.5Q28.0 127.5 32.5 130.25Q37.0 133.0 44.0 138.0Q50.0 142.0 56.5 144.25Q63.0 146.5 74.75 147.25Q86.5 148.0 108.0 148.5L159.0 152.0Q169.0 145.0 178.75 139.25Q188.5 133.5 198.0 127.0Q225.5 110.5 236.75 103.0Q248.0 95.5 248.0 91.0Q248.0 89.0 246.0 86.25Q244.0 83.5 241.0 80.0Q236.0 76.0 234.25 73.25Q232.5 70.5 232.5 68.5Q232.5 65.0 239.5 65.0Q243.5 65.0 253.25 67.75Q263.0 70.5 273.0 73.0Q280.0 75.5 290.25 77.0Q300.5 78.5 318.25 79.75Q336.0 81.0 363.75 81.75Q391.5 82.5 432.5 83.5Q474.0 83.5 505.5 84.75Q537.0 86.0 555.5 87.5Q574.0 89.0 575.5 90.0Q576.5 90.5 577.5 91.0Q578.5 91.5 580.5 91.5Q584.5 91.5 594.5 85.5Q604.5 79.5 617.0 70.25Q629.5 61.0 641.5 50.5Q653.5 40.0 662.5 31.25Q671.5 22.5 673.5 18.0Z" fill="black" /></svg>