<svg xmlns="http://www.w3.org/2000/svg" width="593.5" height="425.5" viewBox="0 0 593.5 425.5"><path d="M71.0 279.0 70.5 278.0Q69.0 275.5 67.5 275.5Q66.5 275.5 66.5 280.0Q66.5 281.5 68.5 281.5Q69.5 280.5 70.0 280.0Q70.5 279.5 71.0 279.0ZM75.5 321.5Q75.5 319.5 73.0 319.5Q72.5 319.5 71.25 321.0Q70.0 322.5 70.0 324.0Q70.0 325.5 72.5 325.5Q75.5 324.0 75.5 321.5ZM129.5 294.5Q130.0 290.5 130.25 287.5Q130.5 284.5 130.5 282.5Q130.5 279.0 127.5 279.0Q70.0 285.0 70.0 297.5Q70.0 302.0 77.0 310.0Q81.0 313.0 86.5 314.75Q92.0 316.5 101.5 316.5Q118.5 316.5 123.0 312.5Q127.5 308.5 129.5 294.5ZM182.0 271.5H141.5L139.5 286.5Q139.0 288.5 139.0 290.75Q139.0 293.0 139.0 294.5V301.5Q140.0 301.5 145.5 298.0Q151.0 294.5 158.25 289.25Q165.5 284.0 172.25 279.0Q179.0 274.0 182.0 271.5ZM183.0 270.5 182.0 271.0V271.5Q182.5 271.0 182.5 271.0Q182.5 271.0 183.0 270.5ZM382.0 327.5Q382.0 321.5 377.5 321.5Q374.5 321.5 372.0 324.0Q370.0 327.0 369.5 328.0Q373.0 328.5 375.0 328.75Q377.0 329.0 378.5 329.0Q382.0 329.0 382.0 327.5ZM411.0 368.5Q408.5 367.5 396.0 366.5H395.0Q392.5 366.5 390.75 366.25Q389.0 366.0 388.0 366.0Q382.5 366.0 382.5 368.0Q382.5 371.5 387.0 384.5L391.0 394.5L400.5 382.5Q409.0 373.0 411.0 368.5ZM416.5 292.5 416.0 291.0Q415.5 286.5 412.5 286.5Q411.0 286.5 408.75 290.75Q406.5 295.0 406.5 298.0H412.5Q418.0 298.0 418.0 297.5Q418.0 297.0 417.5 295.75Q417.0 294.5 416.5 292.5ZM38.5 142.5Q38.5 138.5 36.0 138.5Q34.0 138.5 31.5 141.5Q29.5 143.0 29.5 144.5Q29.5 146.5 34.0 146.5Q38.5 146.5 38.5 142.5ZM204.5 202.0Q204.5 202.0 199.75 201.75Q195.0 201.5 188.0 201.5Q175.5 201.5 174.5 203.0Q174.5 203.0 177.0 209.0Q178.0 212.0 179.5 215.25Q181.0 218.5 182.0 222.5L188.0 238.0L196.5 222.5Q197.5 220.0 198.5 217.5Q199.5 215.0 201.0 213.0Q204.5 203.5 204.5 202.0ZM59.5 105.0Q60.0 105.0 60.0 103.5Q60.0 101.5 59.5 100.5Q59.5 100.0 59.25 99.75Q59.0 99.5 59.0 99.0Q59.0 99.0 58.0 101.0V100.5Q57.5 101.5 57.25 102.5Q57.0 103.5 57.0 104.5Q57.0 106.0 58.0 106.0Q59.0 106.0 59.5 105.0ZM290.5 162.0Q290.0 161.5 284.75 161.25Q279.5 161.0 274.0 161.0Q269.5 161.0 266.0 161.0Q262.5 161.0 262.5 160.5Q262.5 162.5 265.5 169.5Q268.5 176.5 272.25 183.75Q276.0 191.0 278.0 194.0Q280.0 185.5 285.5 176.0Q288.0 171.5 289.0 167.75Q290.0 164.0 290.5 162.0ZM452.0 270.5Q452.0 269.5 451.25 267.5Q450.5 265.5 449.0 263.5Q448.5 261.5 447.0 261.5Q445.0 261.5 443.0 267.0Q440.5 269.5 440.5 271.0Q440.5 271.5 446.0 271.5Q452.0 271.5 452.0 270.5ZM473.0 183.5Q468.0 183.0 461.25 182.5Q454.5 182.0 448.5 182.0Q442.0 182.0 437.25 182.0Q432.5 182.0 432.5 181.5Q432.5 182.0 436.25 186.75Q440.0 191.5 446.0 198.5L458.5 213.5L460.5 205.0Q461.5 198.0 465.0 193.25Q468.5 188.5 473.0 183.5ZM84.5 75.0Q84.5 72.5 83.0 71.0Q82.5 70.0 82.25 69.5Q82.0 69.0 82.0 69.0Q81.0 69.0 79.5 73.0Q79.0 73.5 79.0 75.0Q79.0 76.0 82.0 76.0Q84.5 76.0 84.5 75.0ZM133.5 112.5 114.0 102.0Q90.5 88.0 80.5 88.0Q71.5 88.0 71.5 98.5Q71.5 109.5 95.0 120.0Q99.0 122.5 102.75 124.75Q106.5 127.0 109.0 129.5Q114.0 132.0 115.0 133.0Q118.5 132.0 125.0 123.5ZM178.5 145.5H179.0Q175.5 142.0 169.0 135.25Q162.5 128.5 157.5 123.0L147.5 110.5Q145.0 113.5 142.25 117.0Q139.5 120.5 137.0 124.5Q132.0 130.5 128.75 135.5Q125.5 140.5 125.5 141.5Q125.5 142.0 129.5 142.5Q133.5 143.0 138.5 143.0Q145.0 143.0 154.0 144.25Q163.0 145.5 171.0 148.0L184.0 152.5ZM282.0 64.5Q282.0 62.5 271.5 62.5H266.5Q263.0 62.5 263.0 63.0Q263.0 65.0 268.0 71.5Q270.5 77.5 273.5 77.5Q274.5 77.5 277.5 74.5H277.0Q282.0 68.5 282.0 64.5ZM329.0 72.0Q331.5 67.0 331.5 65.5Q331.5 64.5 324.0 64.5Q316.5 64.5 316.5 66.0Q316.5 68.0 318.5 72.0Q319.5 75.5 321.5 78.0Q323.5 80.5 324.0 80.5Q324.5 80.5 326.25 78.0Q328.0 75.5 329.0 72.0ZM393.0 135.5V135.0Q392.0 127.5 390.5 127.5Q388.0 127.5 382.5 136.0L377.5 143.0H385.5Q394.5 143.0 394.5 140.5Q394.5 138.5 393.0 135.5ZM437.0 99.5V99.0Q437.0 97.0 436.0 93.0Q435.5 91.5 435.0 90.0Q434.5 88.5 434.0 87.5Q433.5 83.0 432.0 83.0Q431.5 83.0 428.0 87.0Q424.5 91.0 421.25 95.5Q418.0 100.0 418.0 101.0Q418.0 102.0 427.0 102.0Q436.0 102.0 437.0 99.5ZM469.0 132.5Q452.0 122.0 441.5 117.5Q431.0 113.0 424.0 113.0Q410.5 113.5 406.25 116.25Q402.0 119.0 402.0 126.0Q402.0 137.5 407.5 144.25Q413.0 151.0 428.5 161.0Q437.5 166.5 443.0 169.25Q448.5 172.0 455.0 172.0Q460.0 172.0 471.5 169.5Q483.0 167.0 492.75 163.0Q502.5 159.0 503.0 155.0Q502.5 154.0 492.5 147.25Q482.5 140.5 469.0 132.5ZM481.5 46.0Q481.5 44.0 480.5 43.0Q479.5 43.0 474.75 47.5Q470.0 52.0 466.0 57.25Q462.0 62.5 462.0 64.0H474.0Q484.0 64.0 484.0 60.5Q484.0 59.0 483.0 58.0L482.5 55.5Q481.5 49.5 481.5 46.0ZM524.0 96.5Q503.5 83.5 489.75 78.25Q476.0 73.0 463.0 73.0Q457.0 73.0 450.0 74.5H450.5Q443.5 76.0 443.5 83.0Q443.5 91.0 450.5 101.0Q452.5 105.0 461.25 112.5Q470.0 120.0 481.5 127.75Q493.0 135.5 502.5 141.0Q512.0 146.5 515.5 146.5Q518.0 146.5 524.75 143.0Q531.5 139.5 539.25 134.5Q547.0 129.5 552.75 125.25Q558.5 121.0 558.5 119.5Q558.5 118.5 548.5 111.75Q538.5 105.0 524.0 96.5ZM478.5 25.5Q484.0 19.5 488.0 14.75Q492.0 10.0 492.5 10.0Q494.0 10.0 494.0 14.5Q494.0 16.0 493.75 18.5Q493.5 21.0 493.5 23.5Q493.5 25.5 493.25 28.25Q493.0 31.0 493.0 33.5L490.0 55.5Q493.5 58.5 497.0 61.75Q500.5 65.0 504.0 68.5Q508.0 72.0 517.0 78.5Q526.0 85.0 537.0 92.25Q548.0 99.5 557.75 104.5Q567.5 109.5 572.0 109.5Q573.5 109.5 575.5 108.5Q577.5 107.5 578.75 107.0Q580.0 106.5 581.0 106.5Q583.5 106.5 583.5 109.5Q583.5 110.5 583.25 111.0Q583.0 111.5 583.0 112.5Q582.5 114.5 570.0 124.25Q557.5 134.0 540.5 145.5Q514.5 162.5 499.75 173.25Q485.0 184.0 478.5 191.75Q472.0 199.5 470.0 207.5V208.5Q468.5 217.5 468.5 222.0V223.5Q468.5 224.5 468.75 225.5Q469.0 226.5 469.0 227.5Q469.0 232.0 466.0 232.0Q458.0 232.0 437.5 204.0Q428.5 192.5 421.5 184.75Q414.5 177.0 413.0 177.0Q403.0 181.5 386.5 188.75Q370.0 196.0 353.25 203.5Q336.5 211.0 325.0 216.5Q313.5 222.0 313.5 222.5Q313.5 223.0 319.0 226.5Q324.5 230.0 331.0 234.0Q338.0 238.0 351.25 246.25Q364.5 254.5 375.5 262.0L402.0 280.0L410.0 272.0Q418.0 265.0 420.0 265.0L421.0 265.5Q421.0 268.0 421.5 269.0Q421.5 286.5 432.0 296.25Q442.5 306.0 456.5 315.0Q473.0 325.5 482.0 325.5Q490.5 325.5 501.0 318.0L507.0 312.0L481.5 298.0Q468.0 290.5 458.0 286.25Q448.0 282.0 441.0 282.0Q435.0 282.0 430.5 280.5Q426.0 279.0 426.0 277.0Q426.0 275.0 429.75 269.5Q433.5 264.0 438.5 257.5Q443.5 251.0 447.75 246.5Q452.0 242.0 453.0 242.0Q457.5 242.0 457.5 252.5Q457.5 259.0 464.5 268.0Q471.5 277.0 481.75 285.25Q492.0 293.5 502.0 299.0Q512.0 304.5 517.5 304.5Q521.5 304.5 529.0 300.0Q533.5 298.0 537.0 296.75Q540.5 295.5 542.0 295.5Q545.5 295.5 545.5 298.5Q545.5 302.0 538.5 307.5Q535.5 310.0 534.25 311.5Q533.0 313.0 532.5 314.0Q533.0 314.0 533.5 314.75Q534.0 315.5 535.0 316.0Q539.0 319.0 539.0 322.0Q539.0 326.0 534.0 326.0Q533.0 326.0 531.0 325.25Q529.0 324.5 526.5 324.0Q523.0 322.5 519.0 322.5Q517.0 322.5 513.5 323.5Q510.0 324.5 504.5 327.5Q493.0 332.5 493.0 334.0Q493.0 334.5 496.0 336.0Q503.0 342.0 503.0 346.0Q503.0 349.5 498.0 349.5Q495.5 349.5 488.0 347.0Q482.5 343.0 478.0 343.0Q475.0 343.0 471.5 344.75Q468.0 346.5 462.0 349.5L460.0 350.5Q453.5 354.0 449.25 357.25Q445.0 360.5 444.5 361.5Q445.5 363.5 457.0 368.0Q469.0 374.0 469.0 378.0Q469.0 382.0 463.0 382.0Q461.5 382.0 456.25 379.75Q451.0 377.5 445.5 374.5L444.5 373.5Q440.5 371.5 438.25 370.5Q436.0 369.5 433.5 369.5Q430.0 369.5 424.5 373.0V372.5Q420.5 375.5 414.0 382.75Q407.5 390.0 403.5 397.0V396.5Q399.0 404.5 395.0 410.0Q391.0 415.5 390.5 415.5Q389.0 415.5 385.5 406.75Q382.0 398.0 378.0 386.0Q374.0 374.0 371.0 363.5Q368.0 353.0 368.0 350.0Q368.0 349.5 368.0 349.25Q368.0 349.0 368.0 348.5Q368.0 348.0 368.25 347.75Q368.5 347.5 368.5 347.5L368.0 348.5Q369.0 347.0 370.5 347.0Q375.0 347.0 380.0 351.5Q384.0 353.5 392.0 355.0Q400.0 356.5 406.5 356.5Q413.0 356.5 414.0 356.0Q411.5 352.5 402.5 348.25Q393.5 344.0 383.5 340.75Q373.5 337.5 368.0 337.5Q363.5 337.5 359.5 336.0Q355.5 334.5 355.5 334.0Q355.5 332.0 359.25 326.25Q363.0 320.5 368.25 314.0Q373.5 307.5 378.0 302.75Q382.5 298.0 384.0 298.0Q387.0 298.0 387.0 307.5Q387.0 317.0 396.5 328.0Q406.0 339.0 418.0 346.0L433.5 355.0Q436.0 353.5 442.25 349.75Q448.5 346.0 450.5 344.0Q456.0 340.5 460.25 337.5Q464.5 334.5 464.5 334.0V333.5Q463.0 329.5 453.0 324.25Q443.0 319.0 431.0 314.5Q419.0 310.0 410.5 309.5Q400.5 307.5 396.25 305.75Q392.0 304.0 392.0 299.5Q392.0 296.5 394.5 291.5Q395.0 291.0 395.0 289.5Q395.0 288.0 390.75 284.5Q386.5 281.0 373.5 272.75Q360.5 264.5 335.0 249.0Q318.0 238.0 310.25 233.5Q302.5 229.0 297.5 229.0Q294.0 229.0 292.0 231.0Q289.0 232.0 287.25 234.0Q285.5 236.0 284.75 242.0Q284.0 248.0 284.0 262.5V313.0Q284.0 328.5 283.5 334.5Q283.0 340.5 282.0 340.5Q281.0 340.5 280.25 338.75Q279.5 337.0 278.0 335.0Q277.0 332.0 276.0 316.0Q275.0 300.0 275.0 281.5Q275.0 264.0 274.75 251.0Q274.5 238.0 273.5 238.0Q272.0 238.0 261.25 243.25Q250.5 248.5 235.5 256.0L201.0 273.5L200.0 326.0Q199.0 382.5 195.0 382.5Q190.0 382.5 190.0 330.5Q190.0 303.5 189.25 292.75Q188.5 282.0 186.5 282.0Q184.0 282.0 175.5 288.0Q167.0 294.0 158.0 302.0Q149.0 310.0 144.5 315.5Q138.5 322.5 109.5 326.0Q83.5 329.5 75.5 337.0Q70.0 343.0 66.5 343.0Q65.0 343.0 63.0 339.5Q62.0 336.0 60.75 323.25Q59.5 310.5 58.75 295.25Q58.0 280.0 58.0 269.0Q58.0 253.5 60.0 253.5Q64.0 253.5 71.0 263.0Q75.0 268.0 80.0 269.75Q85.0 271.5 96.0 271.5Q115.0 271.5 123.0 269.25Q131.0 267.0 132.5 261.5Q134.0 254.0 136.5 254.0Q137.0 254.0 141.5 257.5Q145.0 260.0 161.5 260.0H166.5Q177.0 259.0 180.25 258.25Q183.5 257.5 183.5 255.5V253.5Q182.5 248.5 176.0 231.5Q169.5 214.5 161.0 197.5V197.0Q161.0 193.5 167.5 192.0Q174.0 190.5 191.0 190.5Q209.5 190.5 215.5 192.0Q221.5 193.5 221.5 197.0Q221.5 204.5 216.5 207.0Q214.0 209.0 209.75 217.25Q205.5 225.5 202.25 234.5Q199.0 243.5 199.0 249.0Q199.0 255.0 202.0 255.0Q205.0 255.0 215.75 251.0Q226.5 247.0 239.5 241.75Q252.5 236.5 262.75 232.0Q273.0 227.5 274.5 226.5Q274.5 224.5 272.5 219.5L272.0 217.0Q270.5 212.0 264.5 206.0Q258.5 200.0 242.5 191.5Q177.0 154.0 131.0 152.5Q117.0 152.5 111.75 151.0Q106.5 149.5 106.5 146.5Q106.5 145.5 106.75 145.0Q107.0 144.5 107.0 144.0V143.5Q107.0 141.0 101.0 136.75Q95.0 132.5 86.5 128.25Q78.0 124.0 70.5 121.0Q63.0 118.0 59.5 117.5Q51.5 118.0 49.75 125.75Q48.0 133.5 48.0 139.5Q48.0 145.0 51.5 148.0Q55.0 151.0 64.5 157.0L69.5 160.5Q82.5 169.0 85.0 169.0Q89.0 170.5 89.0 173.5Q89.0 174.5 88.0 176.25Q87.0 178.0 85.5 178.0Q83.5 178.0 76.5 174.75Q69.5 171.5 61.0 167.5Q51.0 162.0 45.5 159.75Q40.0 157.5 35.0 157.5Q33.0 157.5 30.5 158.0Q28.0 158.5 25.0 159.5Q21.0 160.0 18.5 160.75Q16.0 161.5 14.5 161.5Q10.0 161.5 10.0 157.5Q10.0 155.0 13.25 150.5Q16.5 146.0 22.0 138.0Q33.0 124.5 33.0 121.0Q33.0 119.0 38.75 110.25Q44.5 101.5 53.25 89.75Q62.0 78.0 71.0 66.75Q80.0 55.5 87.25 48.0Q94.5 40.5 96.5 40.5Q99.5 40.5 99.5 45.5Q99.5 47.5 99.0 50.0Q98.5 52.5 97.0 56.5Q95.0 61.0 95.0 67.0Q95.0 79.5 116.0 90.5Q124.0 94.5 129.75 98.5Q135.5 102.5 136.5 103.5L137.0 104.5Q140.0 104.5 143.0 100.5Q147.0 97.5 148.5 97.5Q151.0 97.5 154.75 101.5Q158.5 105.5 166.5 115.5Q173.5 124.5 187.25 137.0Q201.0 149.5 216.75 161.5Q232.5 173.5 245.0 181.5Q257.5 189.5 262.0 189.5H262.5Q261.5 184.0 257.0 172.5Q248.5 156.5 248.5 153.0Q248.5 151.0 252.5 150.75Q256.5 150.5 261.5 150.5L271.5 153.0L270.5 124.5Q270.0 106.5 267.75 97.75Q265.5 89.0 259.0 78.0Q255.0 71.0 252.25 64.25Q249.5 57.5 249.5 57.0Q250.5 55.0 264.5 54.25Q278.5 53.5 295.5 53.5Q314.5 53.5 331.25 54.25Q348.0 55.0 349.5 56.5V58.0Q349.5 59.5 347.25 63.5Q345.0 67.5 341.0 71.5H341.5Q337.0 77.0 335.0 81.5Q333.0 86.0 332.75 95.25Q332.5 104.5 332.5 124.5Q332.5 144.0 331.25 156.25Q330.0 168.5 327.5 168.5Q325.5 168.5 324.25 158.5Q323.0 148.5 323.0 133.0Q323.0 119.5 322.25 111.5Q321.5 103.5 319.25 97.25Q317.0 91.0 312.5 82.5Q308.5 74.5 304.75 69.25Q301.0 64.0 299.5 64.0H299.0Q298.0 64.0 294.75 67.5Q291.5 71.0 288.5 75.5Q284.0 81.5 282.25 86.75Q280.5 92.0 280.5 103.0Q280.5 106.5 280.5 110.75Q280.5 115.0 281.0 120.0L282.5 152.5L294.0 150.5H298.5Q305.5 150.5 305.5 155.5Q305.5 158.5 303.5 163.0Q301.5 167.5 297.5 174.5Q288.5 191.0 288.5 200.0Q288.5 208.5 294.5 211.0Q296.5 213.0 299.0 213.0Q303.5 213.0 312.75 209.25Q322.0 205.5 340.0 197.0Q356.5 189.0 372.5 182.5Q388.5 176.0 395.0 173.5Q407.0 168.5 407.5 165.5Q407.0 163.5 402.0 158.5Q399.0 156.0 395.75 154.75Q392.5 153.5 386.5 153.5Q384.5 153.5 382.5 153.75Q380.5 154.0 378.0 154.0Q374.5 154.5 371.75 154.75Q369.0 155.0 366.5 155.0Q360.0 155.0 360.0 152.5Q360.0 151.0 364.75 144.25Q369.5 137.5 376.0 129.0Q382.5 120.5 388.5 113.5Q394.5 106.5 397.0 105.0Q399.5 103.0 407.0 95.0Q414.5 87.0 422.0 77.5Q431.5 66.5 438.25 60.25Q445.0 54.0 448.0 54.0Q450.0 54.0 450.0 57.5Q450.0 58.0 449.75 59.25Q449.5 60.5 449.5 61.5Q452.0 59.0 460.0 49.25Q468.0 39.5 478.5 25.5ZM284.0 220.0H286.5Z" fill="black" /></svg>