<svg xmlns="http://www.w3.org/2000/svg" width="538.5" height="462.5" viewBox="0 0 538.5 462.5"><path d="M205.0 236.0H204.5Q202.5 235.0 199.0 233.5Q195.5 232.0 191.5 230.5Q186.5 227.5 180.25 224.5Q174.0 221.5 168.5 219.0L144.5 207.0L142.0 236.0Q141.0 244.0 140.5 251.5Q140.0 259.0 140.0 267.0Q142.5 266.0 149.25 263.5Q156.0 261.0 164.5 256.5L169.0 255.0Q170.0 254.5 176.5 252.0Q183.0 249.5 190.75 246.25Q198.5 243.0 204.5 240.5Q210.5 238.0 211.0 237.5Q210.5 237.5 209.0 237.0Q207.5 236.5 205.0 236.0ZM75.0 112.5Q74.0 112.5 68.0 111.75Q62.0 111.0 53.0 110.5H48.5Q46.5 110.0 44.25 110.0Q42.0 110.0 40.5 110.0Q35.5 110.0 35.5 111.5Q35.5 115.0 37.5 121.0Q39.5 127.0 43.0 138.0L53.0 163.0Q55.5 157.0 58.25 151.0Q61.0 145.0 64.0 139.5Q68.0 129.5 71.25 122.0Q74.5 114.5 75.0 112.5ZM164.0 62.0Q163.0 53.0 162.0 46.5Q161.0 40.0 160.0 40.0Q157.5 40.0 149.5 44.75Q141.5 49.5 132.0 56.25Q122.5 63.0 115.5 69.25Q108.5 75.5 108.5 78.0Q108.5 80.5 118.5 80.5Q122.5 80.5 132.25 83.25Q142.0 86.0 153.0 91.5L155.5 92.5Q162.5 95.5 166.25 97.5Q170.0 99.5 172.0 99.5Q172.0 99.0 171.5 97.5Q171.0 96.0 170.5 95.0Q168.5 91.5 166.75 81.25Q165.0 71.0 164.0 62.0ZM389.0 75.0Q389.0 74.0 387.5 74.0Q384.5 74.0 376.25 78.25Q368.0 82.5 357.75 89.0Q347.5 95.5 337.5 102.5Q327.5 109.5 321.0 115.25Q314.5 121.0 314.5 123.5Q314.5 129.5 347.0 132.5L372.0 136.5V120.5Q372.0 112.0 374.0 102.5Q376.0 93.0 379.5 88.5Q383.0 84.5 386.0 80.25Q389.0 76.0 389.0 75.0ZM117.5 389.5Q130.5 371.0 133.5 362.5Q133.0 362.5 132.75 362.5Q132.5 362.5 132.0 362.5Q128.0 363.0 122.0 364.5Q116.0 366.0 109.0 367.5H109.5Q99.5 371.0 86.5 372.75Q73.5 374.5 65.0 374.5L49.0 376.0L72.5 398.5Q82.5 408.0 89.75 414.25Q97.0 420.5 98.0 420.5Q99.5 420.0 105.25 411.25Q111.0 402.5 117.5 389.5ZM398.5 284.5Q403.5 277.5 404.5 274.0Q402.0 275.0 392.75 281.25Q383.5 287.5 372.0 297.0Q359.0 307.5 351.25 313.75Q343.5 320.0 343.5 320.5L348.0 321.5Q352.0 322.0 357.25 322.75Q362.5 323.5 369.0 324.5Q379.5 326.5 386.0 326.5Q392.5 326.5 392.5 320.0Q392.5 301.5 398.5 284.5ZM138.0 35.5 173.0 10.0 175.0 46.0Q176.5 59.5 179.5 72.25Q182.5 85.0 185.5 89.0Q187.5 92.0 197.5 103.25Q207.5 114.5 222.5 130.25Q237.5 146.0 255.0 163.5L318.5 224.5L374.5 220.5Q395.0 219.5 413.75 217.5Q432.5 215.5 438.5 215.0H440.5Q442.0 214.5 445.0 214.5Q451.0 214.5 451.0 222.0Q451.0 229.5 443.0 237.5Q437.0 242.5 431.25 253.25Q425.5 264.0 420.5 276.75Q415.5 289.5 412.25 301.5Q409.0 313.5 409.0 321.5Q409.0 324.0 409.5 326.25Q410.0 328.5 411.0 328.5Q418.0 328.5 418.0 337.0Q418.0 340.5 429.0 347.75Q440.0 355.0 454.5 363.5Q474.0 373.5 489.25 384.0Q504.5 394.5 513.5 402.5Q522.5 410.5 522.5 414.5Q522.5 415.0 521.5 417.0H520.5Q516.5 417.0 507.75 411.75Q499.0 406.5 487.5 399.5Q463.0 382.5 435.5 368.25Q408.0 354.0 384.5 345.5Q361.0 337.0 348.0 337.0Q313.0 337.0 312.5 329.0Q313.0 321.5 337.5 305.0Q358.5 290.5 377.75 275.5Q397.0 260.5 409.0 249.25Q421.0 238.0 421.0 235.0Q421.0 234.0 415.25 233.25Q409.5 232.5 400.5 232.5Q381.5 232.5 368.0 234.25Q354.5 236.0 343.25 240.25Q332.0 244.5 319.75 251.25Q307.5 258.0 291.0 268.5Q277.0 277.5 260.75 287.5Q244.5 297.5 230.25 306.0Q216.0 314.5 207.0 319.5Q189.0 330.5 169.5 349.25Q150.0 368.0 134.5 389.0Q119.0 410.0 111.0 428.0Q106.0 440.5 101.75 446.5Q97.5 452.5 96.0 452.5Q91.0 452.5 91.0 444.0Q91.0 441.5 80.75 429.0Q70.5 416.5 56.0 403.0Q40.5 388.0 30.25 375.5Q20.0 363.0 20.0 361.0Q20.0 357.0 28.5 357.0Q29.5 357.0 32.25 357.25Q35.0 357.5 38.0 358.5L53.0 362.0V287.0Q53.0 257.0 51.5 234.75Q50.0 212.5 46.5 194.75Q43.0 177.0 36.75 160.25Q30.5 143.5 21.5 125.0Q16.5 115.0 13.25 107.0Q10.0 99.0 10.0 96.0L10.5 94.0Q11.5 94.0 25.25 94.25Q39.0 94.5 57.5 95.5L105.5 99.0L92.0 118.5Q83.5 129.5 78.25 140.25Q73.0 151.0 70.5 166.25Q68.0 181.5 67.0 205.0Q66.0 228.5 66.0 264.5Q66.0 316.5 67.5 336.75Q69.0 357.0 72.5 358.5Q74.0 358.5 75.5 359.0Q77.0 359.5 79.0 359.5Q91.0 359.5 112.75 350.75Q134.5 342.0 160.75 328.5Q187.0 315.0 213.25 299.5Q239.5 284.0 261.25 270.0Q283.0 256.0 295.0 247.5L305.0 238.5L284.0 238.0Q269.0 238.0 248.0 243.0Q227.0 248.0 203.5 256.75Q180.0 265.5 157.5 278.0Q145.0 283.0 135.25 287.5Q125.5 292.0 123.0 292.0Q122.0 292.0 121.5 290.5V289.0Q121.5 287.0 122.0 282.75Q122.5 278.5 123.0 273.5Q126.5 258.0 128.0 241.75Q129.5 225.5 129.5 210.5Q129.5 197.5 130.25 188.5Q131.0 179.5 133.5 179.5Q134.5 179.5 139.75 183.25Q145.0 187.0 150.0 192.5Q167.5 208.5 190.75 216.25Q214.0 224.0 250.0 224.0Q268.5 224.0 281.25 223.0Q294.0 222.0 294.5 221.5Q293.0 219.5 278.5 205.25Q264.0 191.0 244.5 172.0Q220.0 149.5 198.25 134.25Q176.5 119.0 153.5 108.5Q130.5 98.0 101.5 90.0Q76.5 81.5 76.5 75.5Q76.5 72.0 91.0 65.0Q96.5 62.5 110.5 53.5Q124.5 44.5 138.0 35.5ZM421.5 26.0Q427.0 17.5 432.0 16.5Q432.5 16.5 434.5 17.5V17.0Q438.0 19.0 438.0 23.5Q438.0 27.5 434.25 33.25Q430.5 39.0 423.0 48.0Q418.0 54.0 411.5 64.25Q405.0 74.5 398.75 85.5Q392.5 96.5 388.5 105.5Q384.5 114.5 384.5 118.5Q384.5 132.0 403.25 148.75Q422.0 165.5 455.5 183.0Q459.0 184.5 470.5 190.5Q482.0 196.5 495.5 204.25Q509.0 212.0 518.75 219.5Q528.5 227.0 528.5 231.5Q528.5 235.0 524.5 235.0Q521.0 235.0 514.0 231.75Q507.0 228.5 497.5 222.0Q475.0 206.5 446.5 191.75Q418.0 177.0 389.25 165.0Q360.5 153.0 335.75 146.0Q311.0 139.0 296.0 139.0Q266.0 139.0 266.0 130.5Q266.0 124.0 278.5 120.5Q286.5 118.0 302.5 108.5Q318.5 99.0 338.25 86.5Q358.0 74.0 376.25 61.5Q394.5 49.0 407.0 39.25Q419.5 29.5 421.5 26.0Z" fill="black" /></svg>