<svg xmlns="http://www.w3.org/2000/svg" width="909.5" height="471.5" viewBox="0 0 909.5 471.5"><path d="M51.5 240.0 34.5 276.0Q38.5 274.5 42.75 272.5Q47.0 270.5 50.5 269.5Q56.0 268.0 61.0 267.0Q66.0 266.0 70.0 265.5Q66.0 260.0 60.75 253.25Q55.5 246.5 51.5 240.0ZM202.0 327.5 215.0 362.5Q219.0 351.0 222.5 339.5Q226.0 328.0 231.0 317.0Q227.5 319.0 224.25 320.75Q221.0 322.5 218.0 323.5Q214.5 325.5 211.0 326.5Q207.5 327.5 202.0 327.5ZM362.0 340.0Q367.5 337.5 371.5 335.75Q375.5 334.0 380.5 333.0Q379.0 332.0 377.25 330.25Q375.5 328.5 373.0 327.5Q371.0 325.5 369.0 323.5Q367.0 321.5 365.5 320.5Q365.0 318.5 364.0 318.0Q363.0 317.5 362.0 316.5Q362.0 319.5 362.5 322.75Q363.0 326.0 363.0 329.0Q363.0 332.0 362.5 334.75Q362.0 337.5 362.0 340.0ZM370.5 287.5 388.5 283.0Q388.5 283.0 387.75 282.75Q387.0 282.5 386.0 281.5Q384.5 281.0 382.5 280.5Q380.5 280.0 379.0 280.0Q378.0 278.0 376.75 277.0Q375.5 276.0 374.0 274.5Q373.0 274.5 371.0 272.5V281.0Q371.0 283.0 370.75 284.5Q370.5 286.0 370.5 287.5ZM64.0 190.5Q67.0 184.0 75.0 173.5Q84.0 159.5 86.5 152.0Q82.5 152.0 78.5 152.75Q74.5 153.5 70.0 153.5Q68.0 153.5 66.25 152.75Q64.5 152.0 62.0 151.5Q61.5 151.5 61.0 150.75Q60.5 150.0 60.0 150.0Q60.0 150.0 59.25 150.0Q58.5 150.0 58.0 149.5V152.0Q58.0 157.0 58.5 162.5Q59.0 168.0 60.5 173.5Q61.5 178.0 62.0 182.25Q62.5 186.5 64.0 190.5ZM150.0 219.5Q155.0 217.0 159.75 214.75Q164.5 212.5 169.5 210.0Q173.5 209.0 178.5 208.25Q183.5 207.5 189.5 206.0Q177.0 199.0 167.75 192.0Q158.5 185.0 148.5 175.5Q149.5 181.5 150.5 188.0Q151.5 194.5 151.5 201.0Q151.5 205.5 151.25 210.25Q151.0 215.0 150.0 219.5ZM198.0 93.0 198.5 92.5 148.5 120.0Q131.0 129.5 121.75 136.25Q112.5 143.0 106.0 152.0Q99.5 161.0 89.5 177.5Q87.0 183.0 83.25 189.25Q79.5 195.5 76.0 202.5Q72.5 209.5 70.0 215.75Q67.5 222.0 67.5 227.5Q67.5 235.5 73.75 243.5Q80.0 251.5 88.0 258.5Q93.5 262.0 98.0 265.25Q102.5 268.5 107.5 271.0Q111.5 274.5 115.25 276.5Q119.0 278.5 122.5 281.0L181.5 319.5Q181.5 318.0 181.0 318.0Q180.5 317.0 179.75 315.25Q179.0 313.5 179.0 313.0Q178.5 312.5 178.5 310.5Q177.0 310.5 177.0 308.5Q177.0 305.5 181.0 305.5Q182.0 304.5 183.5 304.25Q185.0 304.0 185.5 304.0Q186.5 304.0 188.25 304.25Q190.0 304.5 191.5 305.5Q192.5 306.0 194.0 306.25Q195.5 306.5 197.0 307.5Q202.5 309.0 206.0 309.0Q212.5 309.0 220.0 306.0Q224.0 304.0 235.0 295.75Q246.0 287.5 261.0 275.75Q276.0 264.0 292.0 251.0Q308.0 238.0 322.0 226.25Q336.0 214.5 344.5 206.5Q353.0 198.5 353.0 197.0Q353.0 193.0 342.75 180.25Q332.5 167.5 318.5 153.5Q305.5 139.0 294.5 127.5Q283.5 116.0 281.5 113.5Q279.5 112.5 273.25 110.75Q267.0 109.0 260.0 108.5Q249.0 106.0 237.75 105.25Q226.5 104.5 215.0 104.0Q211.5 103.0 208.5 102.25Q205.5 101.5 203.5 101.0Q202.0 100.0 201.0 100.0Q200.0 100.0 198.5 99.5Q198.0 98.5 197.25 98.0Q196.5 97.5 196.5 96.5Q196.5 96.5 196.75 95.5Q197.0 94.5 197.0 94.0Q197.0 94.0 197.5 93.75Q198.0 93.5 198.0 93.0ZM374.0 186.0V197.5L391.0 190.0L372.5 177.0Q372.5 177.5 372.75 178.5Q373.0 179.5 373.0 179.5Q373.0 181.0 373.5 182.5Q374.0 184.0 374.0 186.0ZM374.0 243.0 390.5 237.5 374.0 224.5V226.5Q374.5 228.5 374.5 230.0Q374.5 231.5 374.5 233.5Q374.5 235.5 374.25 238.0Q374.0 240.5 374.0 243.0ZM373.0 258.0Q385.5 268.5 396.5 271.5Q407.5 274.5 424.5 276.5Q444.0 279.0 462.75 278.75Q481.5 278.5 501.5 280.0Q501.5 275.5 502.0 271.75Q502.5 268.0 502.5 264.0Q502.5 260.0 502.0 256.25Q501.5 252.5 501.5 249.0Q486.0 249.0 470.75 248.75Q455.5 248.5 439.5 248.5Q431.5 248.5 423.5 248.5Q415.5 248.5 407.0 249.0Q401.0 249.0 396.75 250.0Q392.5 251.0 388.5 252.5Q385.0 253.0 381.0 254.25Q377.0 255.5 373.0 258.0ZM514.5 294.5Q520.0 291.0 529.5 284.25Q539.0 277.5 550.0 269.5Q559.0 262.5 566.75 256.5Q574.5 250.5 578.5 247.5Q567.5 249.0 554.5 249.0Q545.0 249.0 535.75 248.0Q526.5 247.0 516.5 245.0Q517.5 257.0 516.75 269.5Q516.0 282.0 514.5 294.5ZM218.0 91.0Q229.5 92.0 241.5 92.75Q253.5 93.5 266.0 95.0Q265.0 93.0 263.5 91.75Q262.0 90.5 260.0 89.0Q258.0 86.5 256.0 83.75Q254.0 81.0 252.0 79.0Q250.0 77.0 248.75 74.25Q247.5 71.5 246.5 69.0Q246.0 68.0 244.75 66.0Q243.5 64.0 242.5 62.5Q242.0 64.0 240.75 65.25Q239.5 66.5 238.5 68.0Q238.0 70.0 236.25 72.0Q234.5 74.0 233.5 76.5Q230.5 79.5 228.75 81.25Q227.0 83.0 224.0 85.5Q222.5 87.0 221.5 87.75Q220.5 88.5 220.0 89.5Q219.0 89.5 218.5 90.25Q218.0 91.0 218.0 91.0ZM352.5 83.5 344.0 106.5 384.5 102.0Q395.5 100.5 413.5 99.5Q422.5 98.5 430.25 97.5Q438.0 96.5 441.5 95.0Q442.0 95.0 446.0 93.0Q447.5 93.0 447.5 92.5H447.0Q446.0 91.5 444.25 91.0Q442.5 90.5 441.5 89.5Q438.0 89.0 435.0 88.25Q432.0 87.5 430.5 87.5Q419.0 83.5 407.25 79.25Q395.5 75.0 384.0 70.0Q382.5 69.0 379.5 67.25Q376.5 65.5 372.5 63.5Q368.0 62.0 365.0 60.5Q363.0 60.5 362.0 60.0Q362.0 61.5 360.5 61.5Q360.0 63.0 359.0 64.75Q358.0 66.5 357.0 69.0Q355.0 74.0 353.75 78.0Q352.5 82.0 352.5 83.5ZM289.5 423.0V422.5Q290.5 422.5 291.75 422.0Q293.0 421.5 294.5 421.0Q297.0 419.0 300.0 417.75Q303.0 416.5 306.0 415.5Q314.0 411.5 319.75 408.75Q325.5 406.0 326.0 405.5Q334.5 401.5 342.25 397.25Q350.0 393.0 358.0 388.5Q347.0 386.5 336.75 385.5Q326.5 384.5 316.5 382.0Q314.5 381.0 310.25 380.0Q306.0 379.0 302.0 377.0Q298.0 375.5 294.5 374.75Q291.0 374.0 290.5 374.0Q289.0 374.0 288.0 375.5Q288.0 376.5 287.25 379.25Q286.5 382.0 286.5 384.5V398.5Q286.5 400.0 286.75 403.75Q287.0 407.5 288.0 412.5Q288.0 415.0 288.25 417.0Q288.5 419.0 289.0 421.0Q289.0 421.5 289.25 422.0Q289.5 422.5 289.5 423.0ZM153.0 236.0 138.0 253.5V208.0Q138.0 196.0 136.75 184.0Q135.5 172.0 133.0 160.5V146.5L133.5 146.0Q133.5 146.0 133.75 145.5Q134.0 145.0 134.5 145.0Q134.5 145.0 135.5 145.0Q136.5 145.0 137.0 146.0Q137.0 146.0 137.5 146.0Q138.0 146.0 138.0 146.5Q138.5 147.5 139.75 148.0Q141.0 148.5 142.0 149.5Q144.5 151.5 147.0 154.25Q149.5 157.0 152.5 159.5Q157.5 164.5 162.75 169.0Q168.0 173.5 168.5 175.5Q172.5 178.0 180.5 184.5Q188.5 191.0 197.0 196.25Q205.5 201.5 210.0 201.5Q234.0 201.5 258.25 200.25Q282.5 199.0 306.0 199.0H317.0Q320.0 199.0 322.75 199.0Q325.5 199.0 328.0 199.5H330.0Q330.0 200.5 330.5 200.75Q331.0 201.0 331.0 201.0Q331.0 201.0 331.5 201.25Q332.0 201.5 332.0 202.5Q332.0 203.0 331.5 203.5Q331.0 204.0 331.0 204.0Q330.5 204.5 329.75 204.5Q329.0 204.5 329.0 204.5Q327.5 205.5 326.5 205.75Q325.5 206.0 324.5 207.0Q322.0 207.0 319.5 207.5Q317.0 208.0 317.0 208.0Q304.5 209.5 291.0 211.0Q277.5 212.5 264.5 213.5Q256.5 213.5 242.75 213.75Q229.0 214.0 215.0 216.0Q200.0 217.0 187.5 219.0Q175.0 221.0 168.0 224.5Q163.5 227.5 160.0 230.5Q156.5 233.5 153.0 236.0ZM191.5 344.0 140.0 309.0Q135.0 305.0 126.5 300.0Q118.0 295.0 109.0 290.0Q100.0 285.5 92.0 282.75Q84.0 280.0 77.0 280.0Q69.0 280.0 55.75 283.25Q42.5 286.5 35.5 290.5Q33.5 292.0 31.0 293.5Q28.5 295.0 26.0 296.5Q23.5 298.5 15.5 298.5Q14.0 298.5 12.0 297.75Q10.0 297.0 10.0 294.5Q10.0 293.0 10.75 291.5Q11.5 290.0 12.0 289.5Q16.0 284.5 18.75 278.5Q21.5 272.5 24.5 267.5Q27.5 262.0 29.5 255.75Q31.5 249.5 33.5 243.5Q39.0 229.5 42.5 217.0Q46.0 204.5 46.0 190.0Q46.0 173.0 44.5 156.75Q43.0 140.5 40.5 124.0V120.0L44.0 122.0Q47.0 124.0 50.5 126.5Q54.0 129.0 57.0 131.5Q61.0 133.5 64.75 135.25Q68.5 137.0 71.5 137.0Q75.5 137.0 84.5 133.5Q93.5 130.0 104.5 125.5Q114.5 120.5 123.25 116.25Q132.0 112.0 137.0 109.0Q157.5 100.5 180.75 88.5Q204.0 76.5 220.0 61.5Q224.5 56.0 227.75 49.5Q231.0 43.0 234.5 36.5L249.0 10.0L253.5 40.0Q256.0 53.0 262.25 64.75Q268.5 76.5 278.0 88.0Q282.5 93.0 287.25 98.25Q292.0 103.5 296.5 109.0Q302.5 114.0 307.0 119.0Q311.5 124.0 316.5 129.0Q320.0 132.0 326.0 138.25Q332.0 144.5 338.5 152.0Q350.5 164.0 358.0 170.0L356.5 158.5V157.0Q357.0 156.0 358.75 154.75Q360.5 153.5 362.0 153.5Q368.5 153.5 374.5 159.5Q378.0 161.5 380.5 164.0Q383.0 166.5 384.5 167.5Q394.0 174.5 401.75 178.25Q409.5 182.0 417.0 183.5Q421.0 184.5 425.0 184.75Q429.0 185.0 433.0 185.0H482.0Q486.0 185.0 490.75 185.5Q495.5 186.0 498.5 187.0Q501.0 187.0 502.5 187.5Q504.0 188.0 505.0 188.0Q507.0 189.5 509.0 190.5V192.5Q509.0 193.0 508.25 193.5Q507.5 194.0 507.5 194.0Q507.0 195.0 506.25 195.25Q505.5 195.5 505.5 195.5Q504.5 196.0 500.5 196.0Q498.5 196.5 496.5 196.75Q494.5 197.0 493.5 197.0Q482.0 198.5 471.0 198.75Q460.0 199.0 448.5 199.0Q442.5 199.0 436.25 199.5Q430.0 200.0 423.0 201.0Q422.0 201.0 414.25 202.0Q406.5 203.0 397.0 204.5Q392.5 205.5 388.5 206.75Q384.5 208.0 381.0 208.5Q379.5 209.0 378.5 209.25Q377.5 209.5 377.0 210.0Q376.5 210.0 375.5 211.0Q374.5 212.0 374.5 212.0Q381.5 213.0 387.5 218.0Q392.0 222.5 398.5 225.0Q404.0 228.5 410.75 231.0Q417.5 233.5 429.5 233.5Q447.5 233.5 465.25 233.75Q483.0 234.0 501.5 234.0L500.5 233.5V230.0Q500.5 227.0 503.5 225.0Q504.5 224.5 507.5 224.5Q510.0 224.5 513.5 225.75Q517.0 227.0 520.5 228.5Q523.0 229.0 525.5 230.25Q528.0 231.5 531.0 232.5Q535.5 233.0 540.0 233.25Q544.5 233.5 549.5 233.5H567.5Q572.0 233.5 591.25 229.5Q610.5 225.5 638.25 218.75Q666.0 212.0 696.75 204.25Q727.5 196.5 755.5 189.0Q783.5 181.5 803.25 176.0Q823.0 170.5 828.5 168.0Q827.0 168.0 827.0 167.5Q820.5 165.5 812.75 163.5Q805.0 161.5 798.0 159.5Q790.0 157.5 783.0 156.5Q776.0 155.5 769.5 154.0Q727.5 146.0 685.5 138.25Q643.5 130.5 602.0 122.5Q598.5 122.0 582.75 118.75Q567.0 115.5 549.5 112.0Q531.5 109.0 517.25 106.0Q503.0 103.0 501.5 103.0Q501.0 103.0 490.25 104.25Q479.5 105.5 462.75 107.25Q446.0 109.0 426.75 111.5Q407.5 114.0 389.75 116.75Q372.0 119.5 359.25 121.75Q346.5 124.0 342.5 126.0Q341.5 127.5 339.75 127.75Q338.0 128.0 337.0 129.0Q335.5 129.5 334.0 130.25Q332.5 131.0 330.0 131.0Q326.5 131.0 325.5 128.25Q324.5 125.5 324.5 124.0Q324.5 120.0 325.5 116.0Q326.5 112.0 328.0 108.0Q329.5 103.5 331.5 98.25Q333.5 93.0 335.0 88.0Q339.0 77.5 342.25 67.5Q345.5 57.5 345.5 49.5Q345.5 47.5 345.75 45.0Q346.0 42.5 347.0 40.0Q348.0 37.5 350.0 35.25Q352.0 33.0 354.5 33.0Q356.0 33.0 357.75 33.5Q359.5 34.0 362.0 34.0Q362.0 36.0 364.0 36.0Q365.5 36.5 365.5 40.0Q365.5 44.0 378.75 51.0Q392.0 58.0 410.5 63.5Q428.5 69.5 444.5 74.0Q460.5 78.5 466.0 80.5Q534.0 96.0 602.0 108.75Q670.0 121.5 739.5 134.5Q760.5 138.0 782.25 141.75Q804.0 145.5 825.5 148.5Q839.0 151.0 852.5 153.5Q866.0 156.0 879.5 156.5Q880.0 156.5 883.0 156.5Q886.0 156.5 889.5 157.0H894.5Q895.5 158.5 897.5 158.5Q897.5 159.0 898.5 159.75Q899.5 160.5 899.5 161.0Q899.5 161.5 898.25 163.0Q897.0 164.5 896.0 164.5Q894.5 166.0 894.0 166.0Q892.0 167.0 889.0 167.75Q886.0 168.5 883.0 170.0Q877.5 171.5 873.0 173.5Q868.5 175.5 866.5 175.5Q838.5 182.5 810.25 189.25Q782.0 196.0 754.0 204.0Q721.5 213.0 689.0 222.25Q656.5 231.5 624.5 240.0Q618.5 241.0 608.0 247.0Q597.5 253.0 587.5 260.0Q577.5 267.0 572.5 271.0Q567.0 275.5 555.0 284.25Q543.0 293.0 531.75 302.0Q520.5 311.0 516.5 316.5Q516.0 317.0 515.25 317.5Q514.5 318.0 514.5 318.0Q514.0 321.0 513.0 322.0Q510.5 324.0 508.25 325.75Q506.0 327.5 504.5 327.5Q501.5 327.5 500.0 325.5Q498.5 323.5 498.0 322.0Q498.0 320.0 497.5 318.5Q497.0 317.0 497.0 316.5Q497.0 312.5 497.5 309.75Q498.0 307.0 498.5 303.5Q498.5 299.5 500.5 294.5Q485.0 294.5 470.25 293.75Q455.5 293.0 439.5 293.0Q436.0 293.0 424.5 293.25Q413.0 293.5 400.5 295.5Q389.5 296.0 380.5 297.75Q371.5 299.5 369.0 302.0Q380.5 314.0 387.75 319.5Q395.0 325.0 401.5 327.5Q410.0 329.0 420.0 329.0H447.5Q450.0 329.0 458.25 329.0Q466.5 329.0 475.0 330.0Q480.5 331.0 484.75 331.25Q489.0 331.5 493.0 332.0Q494.5 332.0 496.25 332.5Q498.0 333.0 498.5 333.0Q499.5 333.5 501.5 333.5Q501.5 334.0 502.25 334.25Q503.0 334.5 503.5 335.5V337.0Q503.5 337.5 502.5 338.75Q501.5 340.0 500.5 340.0Q499.5 340.5 496.0 340.5Q494.0 341.5 491.75 342.0Q489.5 342.5 489.0 342.5Q477.5 344.0 465.25 344.25Q453.0 344.5 441.5 344.5H402.0Q391.0 345.0 381.75 347.0Q372.5 349.0 367.0 353.0Q364.0 354.0 360.5 356.0Q357.0 358.0 353.0 358.0Q350.5 358.0 348.0 354.5V349.5Q348.0 344.0 348.5 338.25Q349.0 332.5 349.0 327.5Q349.0 321.5 348.5 316.0Q348.0 310.5 348.0 304.0V298.5Q349.0 297.5 349.0 296.25Q349.0 295.0 349.5 293.0Q353.0 288.5 354.5 278.0Q356.0 267.5 356.25 256.5Q356.5 245.5 356.5 239.5V227.5Q356.5 223.0 354.5 221.5V218.0Q353.0 219.5 346.25 224.75Q339.5 230.0 331.0 237.5Q318.5 247.0 306.25 257.25Q294.0 267.5 281.5 278.0Q276.5 282.5 272.5 286.25Q268.5 290.0 265.5 294.5Q257.5 302.5 251.75 312.25Q246.0 322.0 240.0 337.0Q237.5 343.0 233.75 352.75Q230.0 362.5 227.25 372.5Q224.5 382.5 224.5 388.5Q224.5 389.0 224.5 392.25Q224.5 395.5 224.0 398.5Q224.0 400.5 223.25 401.75Q222.5 403.0 222.5 404.5Q221.5 408.0 218.5 408.0Q215.5 408.0 213.0 404.5Q212.5 403.0 211.25 401.5Q210.0 400.0 209.0 397.0Q207.5 393.0 205.25 388.0Q203.0 383.0 201.5 376.5Q198.0 366.0 195.25 356.25Q192.5 346.5 191.5 344.0ZM276.5 460.0Q276.5 458.5 276.25 457.25Q276.0 456.0 275.0 454.0Q274.5 451.5 274.5 448.25Q274.5 445.0 273.5 441.5Q273.0 434.5 273.0 427.5Q273.0 420.5 273.0 418.5Q273.0 405.0 272.5 389.75Q272.0 374.5 269.0 360.0Q269.0 358.5 268.5 357.5Q268.0 356.5 268.0 355.5V344.5Q270.0 340.5 273.5 340.5Q275.0 340.5 280.25 344.0Q285.5 347.5 286.0 349.0Q289.0 352.0 289.0 353.0Q293.5 357.0 298.25 360.0Q303.0 363.0 309.5 365.5Q323.5 369.0 349.0 371.25Q374.5 373.5 403.5 374.0Q432.0 374.5 458.5 374.25Q485.0 374.0 499.5 374.0Q537.0 374.0 573.75 374.25Q610.5 374.5 647.0 377.0H656.5Q657.5 378.0 659.25 378.25Q661.0 378.5 661.5 378.5Q663.0 378.5 663.5 379.5H665.5L666.0 380.5V382.0Q666.0 382.5 665.75 382.75Q665.5 383.0 665.5 383.0Q665.5 383.5 664.25 384.25Q663.0 385.0 662.0 385.0Q657.0 386.0 647.0 386.0Q643.5 387.5 639.75 387.75Q636.0 388.0 633.5 388.0Q608.0 389.0 581.75 389.25Q555.5 389.5 529.5 389.5H404.5Q396.0 389.5 387.75 392.0Q379.5 394.5 372.5 397.0Q364.5 401.0 356.75 405.5Q349.0 410.0 342.0 414.0Q338.0 416.0 329.5 420.5Q321.0 425.0 312.0 430.5Q303.5 435.5 296.75 440.75Q290.0 446.0 289.0 450.0Q289.0 450.0 288.25 451.75Q287.5 453.5 286.5 456.0Q286.0 457.0 285.75 457.75Q285.5 458.5 285.5 460.0Q284.0 461.5 280.5 461.5Q279.0 461.5 276.5 460.0Z" fill="black" /></svg>