<svg xmlns="http://www.w3.org/2000/svg" width="436.0" height="458.5" viewBox="0 0 436.0 458.5"><path d="M124.0 234.5 123.0 234.0Q123.0 234.0 118.75 230.25Q114.5 226.5 109.0 220.5L97.5 211.5V256.5L110.0 245.0Q114.0 241.0 118.5 237.75Q123.0 234.5 124.0 234.5ZM219.0 238.0V237.5Q218.5 238.0 218.0 238.0ZM68.5 81.5Q68.5 80.5 62.5 80.0Q56.5 79.5 48.0 79.5H29.0L47.5 126.0L51.5 112.5Q54.0 104.5 58.25 97.5Q62.5 90.5 64.0 88.5H63.5Q65.5 86.0 67.0 84.0Q68.5 82.0 68.5 81.5ZM274.0 178.0Q277.0 173.5 279.75 168.75Q282.5 164.0 282.5 164.0Q277.0 169.0 268.0 179.0Q259.0 189.0 250.0 199.75Q241.0 210.5 234.75 218.5Q228.5 226.5 228.5 228.0Q228.5 232.0 223.0 235.5Q225.0 235.5 228.25 235.5Q231.5 235.5 235.0 235.5Q251.0 234.5 255.0 232.25Q259.0 230.0 260.5 218.5Q262.0 211.0 266.25 199.25Q270.5 187.5 274.0 178.0ZM143.0 81.5H143.5Q135.0 79.0 126.75 74.5Q118.5 70.0 114.5 67.0Q111.0 63.0 109.0 63.0Q108.0 63.5 107.25 72.0Q106.5 80.5 106.0 89.75Q105.5 99.0 105.5 102.0V110.0Q105.5 110.0 109.0 108.0Q112.5 106.0 118.0 104.0Q121.5 102.5 125.25 100.25Q129.0 98.0 133.5 96.0L155.5 86.0ZM396.5 29.0H361.0Q342.5 29.0 334.0 30.25Q325.5 31.5 325.5 34.5Q325.5 39.0 334.5 52.0Q338.5 58.5 343.75 71.75Q349.0 85.0 352.5 96.0L360.0 119.0L364.5 100.0Q367.0 90.5 373.0 76.25Q379.0 62.0 384.0 52.5Q389.5 44.0 393.0 37.0Q396.5 30.0 396.5 29.0ZM60.0 358.5Q52.0 353.0 47.0 349.75Q42.0 346.5 40.0 346.5Q37.5 346.5 37.0 353.0Q36.5 359.5 36.5 372.5V380.0Q36.5 395.5 37.25 407.0Q38.0 418.5 38.5 418.5Q41.0 418.5 45.5 415.75Q50.0 413.0 56.0 409.5Q63.0 405.5 75.75 400.0Q88.5 394.5 99.5 390.5L119.5 384.0L99.5 378.0Q89.5 374.0 77.25 368.5Q65.0 363.0 60.0 358.5ZM10.0 66.0V64.0L11.0 63.5Q12.5 63.5 15.5 63.25Q18.5 63.0 23.5 63.0Q29.5 63.0 36.75 63.0Q44.0 63.0 51.5 63.5Q87.0 64.0 91.0 72.5Q91.5 58.5 92.0 47.0Q92.5 35.5 93.5 30.5L95.0 29.0Q99.0 29.0 113.5 43.5Q124.0 53.5 133.75 59.75Q143.5 66.0 157.25 69.25Q171.0 72.5 192.5 73.5Q214.0 74.5 247.5 74.5Q292.0 74.5 309.25 73.5Q326.5 72.5 326.5 70.5Q326.5 68.0 322.75 60.25Q319.0 52.5 314.0 43.5Q308.5 34.0 304.75 25.75Q301.0 17.5 301.0 15.5Q301.0 10.0 306.5 10.0Q307.5 10.0 309.0 10.0Q310.5 10.0 312.0 10.5Q315.0 11.5 332.75 13.0Q350.5 14.5 372.0 14.5Q395.0 14.5 410.5 15.75Q426.0 17.0 426.0 19.5Q426.0 21.0 421.0 28.25Q416.0 35.5 408.5 44.5Q397.5 56.5 390.75 67.5Q384.0 78.5 380.5 93.5Q377.0 108.5 375.75 131.75Q374.5 155.0 374.5 191.0V247.5L375.5 382.5L262.0 384.0Q228.0 384.5 206.25 385.25Q184.5 386.0 170.75 387.0Q157.0 388.0 147.75 389.75Q138.5 391.5 130.25 394.5Q122.0 397.5 110.5 402.5Q95.0 408.0 76.5 417.5Q58.0 427.0 48.0 434.0Q38.5 439.0 30.5 443.75Q22.5 448.5 20.5 448.5Q20.5 443.5 20.75 428.75Q21.0 414.0 21.75 395.0Q22.5 376.0 23.25 357.5Q24.0 339.0 25.0 326.5Q26.0 314.0 27.0 313.0H27.5Q31.5 313.0 42.0 324.0Q45.5 329.5 57.5 337.25Q69.5 345.0 82.0 352.0L112.0 367.5H363.0L361.0 270.5Q360.5 236.0 359.5 211.5Q358.5 187.0 356.5 169.5Q354.5 152.0 351.0 138.25Q347.5 124.5 342.5 111.5L339.0 100.5L327.5 116.0Q313.0 137.0 301.0 159.5Q289.0 182.0 282.0 200.5Q275.0 219.0 275.0 228.0Q275.0 231.5 277.5 231.5Q279.5 231.5 281.0 234.0Q282.5 236.5 282.5 240.0V242.0Q283.0 245.0 289.25 251.0Q295.5 257.0 306.5 263.0Q328.5 275.5 343.0 289.25Q357.5 303.0 357.5 310.0V313.0Q355.5 314.5 354.0 314.5Q351.5 314.5 346.25 311.0Q341.0 307.5 335.5 302.5Q328.0 295.0 315.0 286.25Q302.0 277.5 287.0 270.0Q272.0 262.5 257.25 257.5Q242.5 252.5 232.0 252.5Q228.5 252.5 223.5 253.25Q218.5 254.0 212.5 254.0L166.5 257.5L192.0 236.5H172.5Q150.5 236.5 135.5 244.25Q120.5 252.0 101.0 273.0L84.0 292.5V232.0Q84.0 204.5 86.0 189.75Q88.0 175.0 91.5 175.0Q96.5 175.0 99.5 188.0Q100.5 190.0 106.25 196.75Q112.0 203.5 118.0 209.0Q125.0 216.0 131.5 218.25Q138.0 220.5 151.0 220.5Q155.0 220.5 160.5 220.0Q166.0 219.5 172.5 219.5L212.5 219.0Q216.0 215.5 225.75 205.0Q235.5 194.5 248.25 180.25Q261.0 166.0 274.75 151.0Q288.5 136.0 300.25 122.75Q312.0 109.5 319.25 100.75Q326.5 92.0 326.5 91.0Q326.5 91.0 316.0 90.75Q305.5 90.5 288.0 90.5Q280.5 90.5 272.0 90.5Q263.5 90.5 253.5 91.0L178.5 92.0Q174.0 94.5 161.75 101.0Q149.5 107.5 135.5 114.75Q121.5 122.0 110.0 127.25Q98.5 132.5 95.5 133.5Q94.0 133.5 92.5 119.5Q91.0 105.5 91.0 87.5Q91.0 85.0 91.0 82.25Q91.0 79.5 91.0 77.5Q90.5 80.0 84.5 83.5Q83.5 84.0 79.0 90.75Q74.5 97.5 71.0 105.5Q68.0 112.0 66.25 119.75Q64.5 127.5 63.5 140.0Q62.5 152.5 62.25 173.25Q62.0 194.0 62.0 227.0Q62.0 277.5 60.0 305.0Q58.0 332.5 55.0 332.5Q52.0 332.5 50.0 312.5Q48.0 292.5 48.0 257.5Q48.0 220.0 45.5 192.5Q43.0 165.0 36.5 141.25Q30.0 117.5 18.5 92.0Q15.0 83.0 12.5 75.75Q10.0 68.5 10.0 66.0Z" fill="black" /></svg>