<svg xmlns="http://www.w3.org/2000/svg" width="550.5" height="458.0" viewBox="0 0 550.5 458.0"><path d="M88.5 270.0 114.5 283.0 54.5 222.5Q54.0 224.5 51.25 228.25Q48.5 232.0 46.0 237.0Q39.0 246.0 39.0 251.5Q39.0 254.5 46.5 254.5Q48.5 254.5 55.75 257.25Q63.0 260.0 72.5 264.0Q76.0 265.5 80.5 267.0Q85.0 268.5 88.5 270.0ZM118.0 157.5Q128.5 151.0 135.0 147.25Q141.5 143.5 143.5 141.5Q141.5 141.5 138.75 141.5Q136.0 141.5 132.0 142.0Q125.0 142.5 116.25 142.75Q107.5 143.0 98.5 143.0L68.5 145.0L66.5 169.0Q66.5 174.0 66.25 178.25Q66.0 182.5 66.0 186.0Q66.0 191.0 65.5 191.0Q67.5 191.0 72.5 186.5L75.0 185.5Q78.0 182.5 90.25 174.25Q102.5 166.0 118.0 157.5ZM227.0 203.0Q228.0 198.5 228.5 194.0Q229.0 189.5 229.0 187.0V186.5Q226.5 188.5 218.25 193.5Q210.0 198.5 200.5 205.5L174.0 221.5L197.5 230.5Q204.5 233.0 211.25 235.5Q218.0 238.0 222.5 239.5Q228.5 243.0 231.0 243.5Q233.5 245.0 234.5 245.0Q234.0 244.0 232.75 241.75Q231.5 239.5 229.5 236.5Q228.5 232.0 227.5 226.5Q226.5 221.0 226.5 215.0Q226.5 212.0 226.5 209.0Q226.5 206.0 227.0 203.0ZM305.5 143.0Q285.5 133.0 268.75 125.75Q252.0 118.5 248.0 118.5Q240.0 118.5 223.25 124.25Q206.5 130.0 185.5 139.25Q164.5 148.5 143.0 159.5Q121.5 170.5 103.75 180.5Q86.0 190.5 76.5 198.0L61.5 210.5Q69.0 218.5 76.0 225.25Q83.0 232.0 89.5 239.5Q101.5 251.5 117.5 265.5Q133.5 279.5 150.5 293.25Q167.5 307.0 183.0 318.25Q198.5 329.5 209.0 336.0L226.5 345.5L268.0 330.0Q285.5 323.5 298.0 317.5Q310.5 311.5 312.0 310.5Q310.5 307.5 300.25 300.75Q290.0 294.0 274.5 285.0Q259.0 276.0 241.5 266.75Q224.0 257.5 208.0 249.75Q192.0 242.0 180.5 237.5L137.5 221.5L162.0 210.5Q178.5 203.0 196.0 192.0Q213.5 181.0 225.5 170.75Q237.5 160.5 237.5 155.5Q237.5 146.0 243.0 146.0Q246.0 146.0 247.25 149.75Q248.5 153.5 248.5 159.0Q248.5 170.0 244.0 174.0Q242.5 175.5 241.0 182.5Q239.5 189.5 238.5 198.0V208.5Q238.5 224.0 243.25 237.0Q248.0 250.0 254.5 250.0Q257.0 250.0 261.0 253.25Q265.0 256.5 268.5 262.0Q271.0 265.5 280.75 273.0Q290.5 280.5 301.5 287.0L329.0 305.5Q335.0 302.5 340.5 299.25Q346.0 296.0 352.5 293.0Q361.0 288.5 373.75 281.25Q386.5 274.0 400.5 265.75Q414.5 257.5 426.75 249.75Q439.0 242.0 446.75 236.75Q454.5 231.5 454.5 230.5Q454.5 228.5 444.0 221.5Q433.5 214.5 416.5 204.0Q399.5 193.5 379.5 182.25Q359.5 171.0 340.0 160.5Q320.5 150.0 305.5 143.0ZM214.0 39.0Q214.0 36.0 212.5 36.0Q209.0 36.0 206.0 45.5Q205.0 49.0 198.75 54.25Q192.5 59.5 185.5 62.0L172.0 67.0Q181.0 71.0 190.0 74.75Q199.0 78.5 207.0 82.5Q224.5 90.5 238.25 95.75Q252.0 101.0 259.5 101.0Q264.5 101.0 264.5 98.5Q264.5 98.0 257.0 90.0Q249.5 82.0 239.5 71.0Q230.0 60.5 222.0 51.5Q214.0 42.5 214.0 39.0ZM294.0 118.0V118.5Q280.0 109.0 274.0 109.0Q271.5 109.0 271.5 111.0Q271.5 112.5 277.5 116.0Q283.5 119.5 290.75 122.75Q298.0 126.0 302.5 127.0Q301.0 124.0 294.0 118.0ZM250.0 375.5Q244.0 371.0 236.5 367.25Q229.0 363.5 221.0 363.5Q217.5 363.5 213.75 364.0Q210.0 364.5 206.5 367.0L200.5 368.5Q200.5 368.5 205.5 373.0Q209.0 375.5 214.0 383.0Q219.0 390.5 221.5 398.0L228.5 412.0Q231.5 408.0 234.75 404.0Q238.0 400.0 241.0 395.5Q246.5 389.5 250.25 384.25Q254.0 379.0 254.5 378.5Q254.0 378.5 250.0 375.5ZM263.0 368.0Q264.5 368.0 272.0 362.0Q279.5 356.0 289.5 347.75Q299.5 339.5 307.75 332.25Q316.0 325.0 319.0 322.5Q315.5 324.0 306.75 327.5Q298.0 331.0 288.0 335.5L241.5 354.0L249.0 359.5Q253.0 363.0 257.25 365.5Q261.5 368.0 263.0 368.0ZM199.5 30.0Q208.5 10.0 212.0 10.0Q216.0 10.0 218.5 23.0Q220.0 28.5 229.0 39.5Q238.0 50.5 249.25 62.5Q260.5 74.5 270.5 83.0Q280.5 91.5 284.0 91.5Q287.5 91.5 301.25 87.5Q315.0 83.5 331.0 78.0Q352.0 71.0 361.75 67.75Q371.5 64.5 375.0 64.5Q380.5 64.5 380.5 70.0Q380.5 73.0 368.75 78.5Q357.0 84.0 341.0 89.5Q324.0 93.5 311.5 98.0Q299.0 102.5 296.5 103.5Q297.5 106.0 306.75 113.25Q316.0 120.5 330.25 130.75Q344.5 141.0 360.75 152.0Q377.0 163.0 392.25 173.25Q407.5 183.5 418.5 190.75Q429.5 198.0 433.5 200.5L470.0 223.5Q472.5 222.5 479.0 218.5Q485.5 214.5 487.5 212.5Q496.5 207.0 501.5 203.75Q506.5 200.5 508.5 200.5Q511.0 200.5 511.0 206.0Q511.0 208.5 506.5 213.0Q502.0 217.5 495.0 222.0L480.5 231.0L510.5 248.5Q523.0 256.0 531.75 262.5Q540.5 269.0 540.5 271.5L539.0 273.5H537.0Q533.5 273.5 524.0 269.25Q514.5 265.0 503.0 258.0Q490.5 251.0 480.5 245.25Q470.5 239.5 468.5 239.5Q466.5 239.5 455.25 246.0Q444.0 252.5 428.25 262.5Q412.5 272.5 396.5 283.0Q380.5 293.5 368.5 302.0Q356.5 310.5 353.0 314.0Q352.5 314.5 352.5 315.5Q352.5 317.5 358.0 323.0Q363.5 328.5 377.0 338.5Q408.5 361.0 408.5 368.0Q408.5 371.5 404.5 371.5Q403.5 371.5 393.25 364.75Q383.0 358.0 369.5 347.5L338.0 325.5Q334.5 329.0 330.0 331.75Q325.5 334.5 321.5 338.0Q314.5 341.5 305.0 349.0Q295.5 356.5 289.5 363.5L276.5 377.5Q286.5 384.0 296.25 390.25Q306.0 396.5 316.0 403.0Q332.5 413.5 343.5 422.5Q354.5 431.5 354.5 435.0L353.5 436.0H352.5Q349.5 436.0 336.5 429.25Q323.5 422.5 306.5 412.0L266.5 386.0L253.0 400.0H253.5Q248.5 406.5 242.75 416.0Q237.0 425.5 234.0 431.0Q232.5 438.5 229.5 443.25Q226.5 448.0 224.5 448.0Q222.5 448.0 220.5 441.0Q218.5 434.0 217.5 424.0V424.5Q215.0 411.5 211.5 403.5Q208.0 395.5 201.0 388.0H201.5Q188.0 375.0 188.0 367.0Q188.0 359.0 200.5 354.0Q209.0 351.0 209.0 350.5Q209.0 350.0 203.5 347.0Q197.5 343.0 181.5 334.25Q165.5 325.5 145.0 314.5Q124.5 303.5 105.5 293.75Q86.5 284.0 75.0 279.0Q63.5 273.5 49.5 269.75Q35.5 266.0 27.0 266.0Q19.0 265.5 14.5 264.25Q10.0 263.0 10.0 259.5Q10.0 256.5 14.0 252.5Q18.0 248.5 25.0 242.5Q37.0 232.5 43.5 217.0Q50.0 201.5 52.75 184.5Q55.5 167.5 55.5 153.5Q55.0 148.5 54.75 144.0Q54.5 139.5 54.5 137.5Q54.5 126.0 58.5 126.0Q60.0 126.0 62.0 127.0Q65.5 129.0 73.0 129.5Q80.5 130.0 90.0 130.0Q110.0 130.0 137.25 127.0Q164.5 124.0 188.0 118.5Q204.0 115.0 215.25 112.0Q226.5 109.0 228.5 107.5Q225.5 105.0 214.75 100.5Q204.0 96.0 191.0 91.0Q157.5 76.0 157.5 65.5Q157.5 58.0 174.5 54.0Q183.0 51.0 188.75 46.0Q194.5 41.0 199.5 30.0Z" fill="black" /></svg>