<svg xmlns="http://www.w3.org/2000/svg" width="604.5" height="389.0" viewBox="0 0 604.5 389.0"><path d="M154.5 272.5Q149.5 269.0 147.0 269.0Q144.0 269.0 143.5 274.5Q143.0 280.0 143.0 291.0V325.0L155.0 321.5Q158.0 320.5 162.5 319.0Q167.0 317.5 172.0 316.0Q185.0 310.5 197.75 306.5Q210.5 302.5 224.0 300.0L236.5 298.0L211.5 290.5Q208.0 289.5 204.0 288.0Q200.0 286.5 196.0 285.5Q188.5 283.0 181.75 280.75Q175.0 278.5 171.0 278.5Q166.5 278.5 162.5 276.5Q158.5 274.5 154.5 272.5ZM106.5 164.0Q110.5 159.5 112.5 156.5Q114.5 153.5 115.0 152.5Q112.5 152.5 103.0 158.25Q93.5 164.0 82.25 171.75Q71.0 179.5 62.75 185.75Q54.5 192.0 54.5 193.0Q54.5 193.5 61.5 195.0Q76.0 198.5 84.0 198.5Q94.5 198.5 94.5 190.5Q94.5 186.5 98.0 178.5Q101.5 170.5 106.5 164.0ZM195.0 132.0Q186.0 125.5 177.0 121.75Q168.0 118.0 164.5 118.0Q161.5 118.0 152.5 126.75Q143.5 135.5 132.5 148.75Q121.5 162.0 112.0 176.5Q109.0 181.0 108.25 189.0Q107.5 197.0 107.5 202.5Q108.5 212.5 112.75 218.75Q117.0 225.0 129.5 234.0Q154.0 252.5 174.25 263.0Q194.5 273.5 218.25 278.75Q242.0 284.0 276.0 287.0L319.5 290.5V199.0L308.0 204.0Q302.0 206.0 290.0 211.0Q278.0 216.0 266.0 221.5Q254.5 227.5 245.5 231.25Q236.5 235.0 235.5 235.0Q234.0 235.0 234.0 226.5Q234.0 222.0 234.0 215.5Q234.0 209.0 234.5 201.5V191.5Q234.5 179.5 234.0 167.5Q233.5 155.5 233.5 155.5Q232.0 154.5 222.0 147.75Q212.0 141.0 195.0 132.0ZM205.0 83.5Q208.5 79.0 209.5 76.5Q208.0 77.0 203.5 79.75Q199.0 82.5 191.5 87.5L185.5 92.5Q177.5 97.5 174.5 100.0Q171.5 102.5 171.5 103.5Q171.5 103.5 172.25 104.0Q173.0 104.5 174.5 105.5L175.5 106.0Q182.5 110.5 189.0 110.5Q192.5 110.5 195.0 109.0Q197.5 107.5 197.5 104.0Q197.5 94.5 205.0 83.5ZM284.5 176.5 263.0 165.0Q263.0 169.0 258.0 169.0Q256.0 169.0 252.0 167.5Q250.0 166.5 249.5 166.5Q247.5 166.5 247.0 170.25Q246.5 174.0 246.5 179.0Q246.5 181.0 246.5 183.25Q246.5 185.5 247.0 188.0V196.0Q247.0 204.5 247.75 208.5Q248.5 212.5 252.0 212.5Q257.0 212.5 272.0 205.0Q279.0 201.0 288.75 197.5Q298.5 194.0 304.0 193.0Q311.0 191.0 311.0 191.0Q311.0 190.0 305.0 186.5Q299.0 183.0 284.5 176.5ZM389.5 289.0V192.0H372.5Q365.5 192.0 358.25 192.0Q351.0 192.0 346.0 193.0H345.0Q342.0 193.5 339.0 193.75Q336.0 194.0 333.0 195.0V286.0ZM344.0 64.0Q343.0 63.5 335.0 62.0Q327.0 60.5 317.0 59.5L294.5 57.0Q303.0 70.5 310.75 86.5Q318.5 102.5 323.5 118.0Q323.5 118.0 324.0 116.0Q324.5 114.0 325.0 112.0Q326.0 110.0 326.5 107.75Q327.0 105.5 327.5 105.0V105.5Q329.5 101.0 331.75 96.0Q334.0 91.0 336.0 86.0Q339.0 78.5 341.5 72.25Q344.0 66.0 344.0 64.0ZM363.0 90.5Q360.5 86.0 357.0 80.0Q353.5 74.0 353.5 74.0Q352.0 76.0 349.5 80.25Q347.0 84.5 346.0 87.0Q341.0 95.0 336.5 110.25Q332.0 125.5 332.0 143.0V176.5L350.5 177.0Q356.5 177.0 364.75 177.5Q373.0 178.0 380.25 178.25Q387.5 178.5 389.5 178.5L389.0 167.5V165.5Q389.0 158.0 384.5 143.5Q380.0 129.0 374.25 113.75Q368.5 98.5 363.0 90.5ZM413.5 82.0 421.5 71.0H365.5L392.0 124.0L397.0 112.5Q400.0 105.5 405.0 96.75Q410.0 88.0 413.5 82.0ZM567.0 28.5H544.5Q535.0 28.5 524.25 27.75Q513.5 27.0 509.5 26.5Q507.5 26.0 506.0 25.75Q504.5 25.5 503.5 25.5Q500.0 25.5 500.0 28.0Q500.0 32.5 509.0 50.0Q512.5 58.0 517.0 69.0Q521.5 80.0 523.5 90.0Q528.0 109.5 532.0 109.5Q535.5 109.5 537.5 94.0Q538.5 86.5 543.75 73.75Q549.0 61.0 554.5 51.5ZM482.0 11.0Q482.5 10.0 486.0 10.0Q489.0 10.0 493.25 10.5Q497.5 11.0 502.0 12.0Q509.5 14.0 525.5 15.25Q541.5 16.5 556.5 16.5Q574.5 16.5 584.5 18.5Q594.5 20.5 594.5 23.5Q594.5 27.0 586.0 30.0Q581.0 32.0 574.0 42.0Q567.0 52.0 560.25 66.0Q553.5 80.0 549.0 94.0Q546.0 104.0 544.5 119.75Q543.0 135.5 542.5 164.5Q542.0 193.5 541.5 244.0V344.0Q541.5 367.5 540.75 373.25Q540.0 379.0 536.5 379.0Q532.5 379.0 531.5 372.75Q530.5 366.5 530.5 342.5V193.0H401.5V289.0H461.5Q489.5 289.0 506.5 290.5Q523.5 292.0 523.5 294.5Q523.5 301.0 420.0 301.0Q403.0 301.0 382.5 301.0Q362.0 301.0 338.5 300.5Q291.0 301.0 247.25 308.75Q203.5 316.5 162.0 333.0Q151.0 336.5 142.5 339.75Q134.0 343.0 131.5 343.0Q130.5 343.0 129.5 341.5V340.5Q129.5 338.0 130.5 331.0Q131.5 324.0 132.5 315.0Q133.5 309.5 134.0 301.75Q134.5 294.0 134.5 287.0Q134.5 273.5 132.75 264.75Q131.0 256.0 125.75 249.0Q120.5 242.0 109.0 234.0Q93.5 222.5 84.25 217.0Q75.0 211.5 65.75 209.0Q56.5 206.5 41.0 205.0L10.0 201.5L42.0 183.0Q51.0 178.0 66.0 168.5Q81.0 159.0 97.0 148.25Q113.0 137.5 125.25 128.75Q137.5 120.0 141.0 116.5Q140.5 115.5 138.0 115.0Q137.0 114.0 137.0 112.5Q137.0 110.0 147.0 102.75Q157.0 95.5 171.5 86.0Q182.5 79.5 194.75 71.75Q207.0 64.0 218.0 56.75Q229.0 49.5 235.5 45.0Q244.5 37.5 251.75 33.5Q259.0 29.5 261.0 29.5Q262.0 29.5 263.0 30.5V31.5Q263.0 34.0 255.75 43.25Q248.5 52.5 238.0 64.5Q209.0 96.5 209.0 107.5Q209.0 110.5 213.0 110.5Q216.5 110.5 216.5 113.5Q216.5 115.5 213.5 119.5Q211.5 122.5 211.5 123.5Q212.0 126.5 219.5 131.5L222.0 133.0Q225.0 135.0 228.5 137.0Q232.0 139.0 234.0 139.5Q234.0 139.5 234.5 139.0Q235.0 138.5 235.0 138.0Q235.0 135.5 237.5 135.5Q240.0 135.5 246.75 139.0Q253.5 142.5 259.5 148.0Q267.0 153.5 279.5 160.25Q292.0 167.0 303.5 171.75Q315.0 176.5 320.0 176.5Q319.5 176.5 319.5 171.25Q319.5 166.0 319.5 159.0Q319.5 143.5 310.25 118.5Q301.0 93.5 286.5 69.5Q281.5 61.5 278.0 54.75Q274.5 48.0 274.5 46.0Q274.5 45.0 275.5 44.0Q276.0 43.0 280.0 43.0Q284.0 43.0 291.5 43.75Q299.0 44.5 308.0 46.0Q315.0 46.5 322.75 47.25Q330.5 48.0 337.5 48.0Q348.0 48.0 354.5 46.5Q356.0 46.0 357.75 46.0Q359.5 46.0 361.0 46.0Q371.5 46.0 371.5 51.0Q371.5 53.0 369.5 54.5Q369.0 55.0 368.75 55.5Q368.5 56.0 368.5 56.0Q368.5 58.5 379.0 59.0Q389.5 59.5 403.5 59.5H412.5Q427.0 59.5 437.5 59.75Q448.0 60.0 448.0 60.0Q448.0 62.0 442.75 68.75Q437.5 75.5 429.0 84.0Q413.5 101.0 407.75 119.5Q402.0 138.0 402.0 160.5L402.5 178.5L468.0 179.5L530.5 181.0L529.0 158.0Q528.0 142.0 522.0 120.25Q516.0 98.5 507.75 76.5Q499.5 54.5 491.5 39.0Q487.0 30.5 484.0 23.0Q481.0 15.5 481.0 13.0Q481.0 12.0 482.0 11.0Z" fill="black" /></svg>