<svg xmlns="http://www.w3.org/2000/svg" width="406.0" height="379.5" viewBox="0 0 406.0 379.5"><path d="M76.0 298.0Q65.5 291.5 59.0 291.5Q58.5 291.5 58.25 291.25Q58.0 291.0 58.0 291.0Q58.0 291.5 61.25 298.5Q64.5 305.5 69.0 315.5V315.0Q74.0 324.5 77.25 333.0Q80.5 341.5 80.5 343.0Q80.5 346.5 82.5 347.5Q84.0 347.0 88.75 341.0Q93.5 335.0 99.5 327.0Q105.5 319.0 109.75 312.5Q114.0 306.0 114.0 304.5Q103.5 304.5 94.75 303.75Q86.0 303.0 76.0 298.0ZM81.5 106.0Q81.0 105.0 75.5 104.75Q70.0 104.5 63.0 104.5H43.5L52.5 117.5Q56.5 124.0 60.0 128.5Q63.5 133.0 64.5 133.0Q65.5 133.0 68.75 128.0Q72.0 123.0 75.75 116.75Q79.5 110.5 81.5 106.0ZM131.5 184.5 128.0 180.5Q120.5 171.5 117.0 171.5Q117.0 171.5 116.5 178.0Q116.0 184.5 116.0 194.0V213.5L126.5 204.0H126.0Q127.5 202.0 129.0 200.25Q130.5 198.5 131.5 197.0Q134.0 194.5 135.5 192.75Q137.0 191.0 137.5 191.0Q137.0 190.5 135.5 188.75Q134.0 187.0 131.5 184.5ZM131.0 111.0Q127.0 108.5 120.5 106.25Q114.0 104.0 109.0 103.5Q107.5 103.0 105.75 103.0Q104.0 103.0 103.0 103.0Q98.5 103.0 94.5 107.0Q90.5 111.0 83.5 122.5L69.0 144.0V280.5L79.5 287.5Q88.0 294.0 100.0 294.0Q115.0 294.0 137.25 281.75Q159.5 269.5 196.0 242.5Q211.5 231.0 223.0 221.75Q234.5 212.5 234.5 212.0V211.5Q233.5 210.5 227.0 210.5H214.0L233.5 194.5H198.5Q174.0 194.5 160.25 197.0Q146.5 199.5 138.5 206.75Q130.5 214.0 123.5 228.5Q119.0 237.0 114.75 244.0Q110.5 251.0 109.5 252.5H109.0Q107.5 252.5 107.0 244.25Q106.5 236.0 106.5 223.5Q106.5 210.5 106.75 195.75Q107.0 181.0 107.75 170.0Q108.5 159.0 109.5 157.0Q112.0 154.5 113.5 154.5Q117.5 154.5 131.5 169.0L148.5 186.5L185.0 185.0Q199.5 184.0 210.0 183.0Q220.5 182.0 222.5 181.5Q222.0 178.5 211.5 169.0Q201.0 159.5 185.75 147.75Q170.5 136.0 155.5 125.75Q140.5 115.5 131.0 111.0ZM291.0 170.5Q293.0 167.5 294.25 165.25Q295.5 163.0 296.0 161.5Q293.0 163.0 285.75 168.5Q278.5 174.0 270.0 180.75Q261.5 187.5 255.25 193.5Q249.0 199.5 247.5 201.5Q252.5 203.5 265.0 203.5Q267.5 204.0 269.5 204.0Q271.5 204.0 273.0 204.0Q277.5 204.0 279.25 202.0Q281.0 200.0 282.0 194.0Q283.0 188.5 285.5 181.75Q288.0 175.0 291.0 170.5ZM341.0 211.5Q341.0 205.5 340.75 193.0Q340.5 180.5 339.75 166.5Q339.0 152.5 338.25 141.5Q337.5 130.5 336.0 128.0Q335.0 127.0 334.5 127.0Q332.0 127.0 325.25 135.75Q318.5 144.5 310.75 157.0Q303.0 169.5 297.5 180.75Q292.0 192.0 292.0 196.5Q292.0 199.5 294.5 202.0V201.5Q299.0 204.5 299.0 212.5Q299.0 214.5 304.0 219.25Q309.0 224.0 316.0 228.75Q323.0 233.5 329.75 237.0Q336.5 240.5 339.5 240.5Q340.5 238.5 340.75 230.5Q341.0 222.5 341.0 211.5ZM146.5 67.0Q147.0 64.5 147.25 63.0Q147.5 61.5 147.5 60.5Q147.5 59.0 147.0 59.0Q143.5 59.0 128.0 77.5L113.0 94.0L126.0 97.5Q136.5 101.0 141.0 101.0Q144.5 101.0 144.5 96.5Q144.5 95.5 144.25 94.0Q144.0 92.5 144.0 90.5Q144.0 84.5 144.5 78.5Q145.0 72.5 146.5 67.0ZM374.5 23.0H323.5L332.0 47.5Q336.0 58.0 339.5 72.5Q343.0 87.0 344.0 97.0Q346.5 113.5 347.5 113.5Q349.5 113.5 353.5 90.0Q355.0 81.0 358.5 68.5Q362.0 56.0 365.5 46.5Q369.5 36.5 371.5 30.0Q373.0 27.0 373.75 25.0Q374.5 23.0 374.5 23.0ZM301.5 12.5Q301.5 11.0 306.75 10.5Q312.0 10.0 320.0 10.0Q333.5 10.0 350.75 10.5Q368.0 11.0 381.25 12.25Q394.5 13.5 396.0 15.0V16.0Q396.0 20.5 389.0 27.5Q379.0 38.5 372.0 57.75Q365.0 77.0 360.75 101.0Q356.5 125.0 354.25 150.0Q352.0 175.0 351.25 197.5Q350.5 220.0 350.5 236.0Q350.5 247.0 351.75 251.5Q353.0 256.0 355.0 258.5Q361.0 263.0 361.0 268.0Q361.0 272.5 354.5 272.5Q352.0 272.5 351.0 278.25Q350.0 284.0 350.0 301.5Q350.0 315.0 348.5 325.25Q347.0 335.5 345.0 336.5H344.5Q340.0 336.5 340.0 296.5V256.5Q336.0 254.0 332.0 251.25Q328.0 248.5 324.0 245.5Q312.0 237.0 299.0 229.75Q286.0 222.5 275.75 218.0Q265.5 213.5 261.0 213.5Q254.5 213.5 238.0 223.25Q221.5 233.0 200.75 248.75Q180.0 264.5 159.25 282.5Q138.5 300.5 121.75 317.25Q105.0 334.0 98.0 345.5Q82.5 369.5 78.5 369.5Q75.0 369.5 75.0 359.0Q75.0 355.0 71.25 345.25Q67.5 335.5 61.75 323.25Q56.0 311.0 49.75 299.5Q43.5 288.0 38.5 280.0Q33.5 272.0 31.0 271.0Q27.5 270.0 26.0 267.75Q24.5 265.5 24.5 264.0Q24.5 260.0 29.0 260.0Q32.5 260.0 38.25 263.0Q44.0 266.0 48.0 270.0Q54.0 277.0 57.5 277.0Q58.5 277.0 59.0 259.0Q59.5 241.0 59.5 216.5Q59.5 178.5 56.25 157.25Q53.0 136.0 45.25 124.75Q37.5 113.5 22.0 106.5Q10.0 100.5 10.0 96.5L11.0 95.5Q12.0 94.0 24.5 93.75Q37.0 93.5 54.0 93.5L93.0 95.0L110.0 81.5Q116.0 76.0 124.5 67.0Q133.0 58.0 141.0 48.25Q149.0 38.5 154.75 30.75Q160.5 23.0 162.0 19.5Q164.0 16.5 165.5 16.5Q166.5 16.5 167.5 17.5Q168.5 18.0 168.5 21.0Q168.5 27.0 165.5 34.5Q164.0 38.5 160.5 49.75Q157.0 61.0 154.25 72.5Q151.5 84.0 151.5 89.0Q151.5 92.5 153.0 95.25Q154.5 98.0 158.0 102.0Q161.5 107.0 164.0 111.75Q166.5 116.5 166.5 118.0Q166.5 118.5 173.5 125.0Q180.5 131.5 190.0 138.5Q200.0 145.5 211.5 154.75Q223.0 164.0 229.0 170.5H228.5Q234.0 175.5 239.0 179.75Q244.0 184.0 246.0 184.0Q248.0 184.0 257.25 177.5Q266.5 171.0 279.5 160.5Q292.5 150.0 305.0 138.25Q317.5 126.5 326.0 115.75Q334.5 105.0 334.5 98.5Q334.5 89.0 330.5 73.25Q326.5 57.5 320.5 43.0Q314.5 28.5 308.0 23.0V23.5Q304.5 21.0 303.0 18.0Q301.5 15.0 301.5 12.5Z" fill="black" /></svg>