<svg xmlns="http://www.w3.org/2000/svg" width="750.5" height="383.5" viewBox="0 0 750.5 383.5"><path d="M30.5 308.0H31.5Q33.5 308.0 35.0 307.0Q36.0 307.0 37.25 306.75Q38.5 306.5 39.5 306.5Q82.5 297.5 126.5 296.0Q123.0 294.5 119.25 293.25Q115.5 292.0 111.5 290.0Q101.5 285.5 91.75 278.25Q82.0 271.0 73.5 264.0Q64.0 257.0 57.0 248.5V247.5L56.0 248.5Q56.0 249.5 55.75 250.5Q55.5 251.5 55.5 252.0Q53.5 257.5 51.5 263.25Q49.5 269.0 47.0 274.5Q44.0 283.5 38.0 292.5Q37.5 294.0 36.75 295.25Q36.0 296.5 35.0 298.0Q33.5 299.5 32.0 303.5Q31.5 304.0 31.5 305.5Q30.5 306.5 30.5 308.0ZM140.5 158.5Q142.5 153.5 144.5 149.5Q145.5 145.5 146.5 142.25Q147.5 139.0 148.0 137.5Q147.5 137.5 146.75 137.25Q146.0 137.0 145.0 137.0H134.0Q131.5 137.5 131.5 139.0Q131.5 142.5 136.0 150.0Q137.0 152.0 138.25 154.25Q139.5 156.5 140.5 158.5ZM156.5 249.0H158.5Q163.0 247.5 167.75 246.5Q172.5 245.5 177.0 245.5H184.0V244.5Q184.0 243.0 181.25 239.0Q178.5 235.0 175.5 231.75Q172.5 228.5 170.5 228.5Q169.0 228.5 166.0 232.75Q163.0 237.0 160.25 241.75Q157.5 246.5 156.5 249.0ZM185.5 198.5 186.0 199.5Q187.0 199.5 188.0 199.75Q189.0 200.0 190.0 200.0H210.0Q208.0 197.0 204.0 191.0Q203.0 189.5 201.75 187.75Q200.5 186.0 199.5 185.0Q197.0 183.0 196.0 183.0Q194.0 183.0 189.75 189.5Q185.5 196.0 185.5 198.5ZM298.0 273.5V233.5Q287.0 229.5 276.0 225.5Q265.0 221.5 253.5 218.5Q242.5 215.0 230.5 213.0Q218.5 211.0 206.5 211.0Q204.5 211.0 200.25 211.25Q196.0 211.5 191.5 212.5Q189.5 213.0 187.25 213.5Q185.0 214.0 184.0 215.0Q181.0 217.0 181.0 218.5Q181.0 221.0 183.0 223.0Q184.0 225.0 185.0 226.25Q186.0 227.5 187.0 228.5Q191.5 235.0 205.5 241.75Q219.5 248.5 237.25 255.0Q255.0 261.5 271.5 266.25Q288.0 271.0 298.0 273.5ZM361.0 285.5V270.0Q356.5 269.0 347.75 267.75Q339.0 266.5 330.0 264.5Q321.0 262.5 315.5 260.5Q316.0 265.5 316.5 270.25Q317.0 275.0 317.0 280.5Q317.0 285.0 316.25 289.5Q315.5 294.0 314.5 298.0Q321.0 296.5 327.0 294.25Q333.0 292.0 339.5 290.0Q345.0 289.0 350.25 287.75Q355.5 286.5 361.0 285.5ZM415.5 266.0V247.0Q415.5 241.5 415.5 237.0Q415.5 232.5 414.5 227.5Q414.0 216.0 413.5 207.75Q413.0 199.5 412.0 192.5Q410.0 184.5 407.5 176.75Q405.0 169.0 400.0 159.0Q399.5 158.0 397.0 153.5Q394.5 149.0 391.5 144.0Q389.0 138.5 386.5 135.5L383.5 132.5Q382.5 132.5 380.5 134.5Q380.0 136.5 379.0 138.25Q378.0 140.0 377.5 142.5Q374.0 159.0 373.0 175.75Q372.0 192.5 372.0 209.5V259.5Q383.0 261.5 394.0 263.25Q405.0 265.0 415.5 266.0ZM372.0 271.5V284.0L415.5 278.0V276.0ZM69.5 97.5V104.0Q71.5 104.0 73.5 102.5Q74.5 101.5 75.5 100.75Q76.5 100.0 77.0 99.5Q80.5 96.0 87.25 92.5Q94.0 89.0 101.0 85.5Q107.0 83.0 113.0 80.5Q119.0 78.0 122.5 76.5Q118.0 74.0 113.25 71.75Q108.5 69.5 104.0 67.5Q98.5 64.0 91.0 58.5Q83.5 53.0 79.5 48.0Q77.5 47.0 76.5 46.0Q76.0 46.0 75.75 45.5Q75.5 45.0 75.5 45.0Q75.0 45.0 75.0 45.5Q75.0 46.0 75.0 46.0Q75.0 47.0 74.5 48.25Q74.0 49.5 74.0 50.5Q73.5 52.5 73.0 54.5Q72.5 56.5 72.5 57.0Q71.5 67.0 70.5 77.25Q69.5 87.5 69.5 97.5ZM214.0 145.5H219.0Q220.0 145.5 221.5 145.5Q223.0 145.5 224.0 145.0Q227.0 144.0 227.0 142.0Q227.0 139.0 224.5 135.0Q222.0 131.0 220.0 131.0Q218.0 131.0 214.75 136.25Q211.5 141.5 211.5 144.0Q211.5 144.5 214.0 145.5ZM228.0 195.5Q233.0 197.5 238.5 199.75Q244.0 202.0 249.0 203.5Q254.5 205.5 259.5 207.5Q264.5 209.5 269.0 210.5Q270.0 211.0 275.0 212.5Q280.0 214.0 285.0 216.5Q289.0 218.0 292.5 219.0Q296.0 220.0 298.0 221.0V174.5Q291.5 172.0 283.75 168.75Q276.0 165.5 267.5 162.0Q259.5 159.5 251.0 157.5Q242.5 155.5 234.5 155.5Q232.5 155.5 227.25 155.75Q222.0 156.0 217.0 157.0Q211.0 157.5 208.0 160.0Q205.0 162.0 205.0 164.5Q205.0 175.0 211.5 182.5Q218.0 190.0 228.0 195.5ZM317.5 37.0H283.5L292.0 67.0Q295.0 76.5 298.0 86.25Q301.0 96.0 305.0 105.0V105.5Q305.5 105.0 305.75 104.0Q306.0 103.0 306.5 102.5Q307.0 101.0 307.5 99.0Q308.0 97.0 308.0 96.5Q312.0 82.5 316.5 69.0Q321.0 55.5 326.0 41.5Q326.5 41.0 326.5 39.5Q326.5 39.5 326.25 39.0Q326.0 38.5 324.5 38.0Q323.5 38.0 321.75 37.5Q320.0 37.0 317.5 37.0ZM347.5 86.0Q352.5 85.0 357.75 83.75Q363.0 82.5 368.5 81.0Q366.5 80.0 365.25 80.0Q364.0 80.0 362.5 79.5Q359.5 78.5 357.0 77.25Q354.5 76.0 352.0 75.5L347.5 75.0Q347.5 76.0 348.0 77.5Q348.5 79.0 348.5 80.0Q348.5 82.0 348.0 83.5Q347.5 85.0 347.5 86.0ZM380.5 111.5H344.0Q346.5 115.0 349.25 120.5Q352.0 126.0 355.0 132.5Q357.5 137.5 360.25 142.25Q363.0 147.0 364.0 151.0Q366.5 142.0 371.25 130.75Q376.0 119.5 380.5 111.5ZM417.5 171.5V172.5Q419.0 165.5 421.0 158.0Q423.0 150.5 426.5 144.0Q427.5 141.5 428.75 139.75Q430.0 138.0 430.5 136.0L429.5 135.5Q426.5 135.5 424.5 134.5H408.0Q405.5 134.5 403.25 134.5Q401.0 134.5 400.0 135.5Q400.0 136.0 400.5 137.0Q401.5 138.5 402.25 140.0Q403.0 141.5 403.5 143.5Q408.5 151.0 409.5 154.0Q410.5 155.0 411.5 158.25Q412.5 161.5 414.0 165.0Q415.0 167.0 415.75 168.75Q416.5 170.5 417.5 171.5ZM427.5 221.5V267.0L469.5 269.0V240.0Q469.5 219.5 463.5 197.25Q457.5 175.0 443.0 159.0Q443.0 158.5 440.0 155.5Q439.5 154.0 438.0 154.0Q437.5 153.0 437.0 153.0Q436.5 153.0 436.5 153.0Q435.5 153.0 434.0 155.5Q433.5 156.5 432.75 158.0Q432.0 159.5 431.0 162.0Q430.0 166.5 429.5 172.0Q429.0 177.5 428.0 184.5Q427.5 197.0 427.5 208.0Q427.5 219.0 427.5 221.5ZM471.5 186.5Q474.0 179.5 476.0 173.0Q478.0 166.5 480.5 160.0V159.0H479.5Q479.0 158.5 478.0 158.25Q477.0 158.0 476.0 157.5H457.5Q461.5 164.0 464.75 171.75Q468.0 179.5 471.5 186.5ZM680.0 93.5Q680.5 94.5 681.0 96.25Q681.5 98.0 682.0 99.0Q682.0 98.0 682.5 97.25Q683.0 96.5 683.0 96.0Q684.5 91.5 686.25 86.75Q688.0 82.0 689.0 77.0Q693.0 63.0 698.5 50.0Q704.0 37.0 710.5 24.5Q693.5 24.5 679.75 23.25Q666.0 22.0 648.5 19.0Q657.0 34.5 664.0 50.5Q671.0 66.5 677.0 83.0Q677.0 84.0 678.0 87.0Q679.0 90.0 680.0 93.5ZM298.0 353.5V333.0L232.5 319.0Q222.5 316.5 212.25 314.5Q202.0 312.5 192.0 311.0Q182.5 309.0 172.5 308.0Q162.5 307.0 152.5 307.0Q128.5 307.0 98.5 309.75Q68.5 312.5 44.0 317.5Q40.5 318.0 37.25 319.0Q34.0 320.0 30.0 320.5Q21.5 323.0 15.0 323.0H12.0Q11.5 322.0 10.75 321.5Q10.0 321.0 10.0 319.0Q10.0 318.5 10.25 317.5Q10.5 316.5 10.5 316.0Q11.5 315.0 12.0 314.25Q12.5 313.5 13.0 312.5Q14.0 310.5 15.0 308.75Q16.0 307.0 16.5 306.5Q24.0 296.0 28.75 284.0Q33.5 272.0 37.5 259.5Q38.0 258.0 40.0 252.25Q42.0 246.5 45.0 241.0Q46.5 237.5 50.25 231.5Q54.0 225.5 58.5 225.5Q62.0 225.5 62.0 229.0Q63.0 230.5 63.0 233.0Q63.0 235.5 68.0 240.25Q73.0 245.0 79.5 250.5Q91.0 259.0 102.75 266.25Q114.5 273.5 127.0 279.0Q135.0 282.5 143.0 285.5Q151.0 288.5 159.0 290.0L298.0 321.5V285.0Q278.0 279.5 258.25 273.75Q238.5 268.0 218.5 262.0Q210.5 260.0 202.25 258.75Q194.0 257.5 185.5 257.5Q175.5 257.5 165.25 258.75Q155.0 260.0 145.0 262.5V271.5Q144.5 273.0 144.5 274.25Q144.5 275.5 143.5 277.5Q142.5 280.5 139.0 280.5Q138.0 280.5 137.5 279.5Q137.0 278.5 136.0 278.0Q135.5 277.0 135.0 276.0Q134.5 275.0 134.5 274.5Q134.0 272.0 134.0 270.0Q134.0 268.0 134.0 267.5Q134.0 251.0 134.25 234.25Q134.5 217.5 134.5 201.0Q134.5 184.5 132.75 174.75Q131.0 165.0 122.5 151.0Q122.0 150.0 120.25 146.75Q118.5 143.5 116.5 139.5Q115.5 138.0 114.25 136.0Q113.0 134.0 112.0 133.0Q112.0 132.5 111.75 131.75Q111.5 131.0 111.5 131.0Q111.5 130.0 111.0 130.0Q110.5 130.0 110.5 129.5V128.5Q110.5 127.0 112.0 127.0Q113.0 126.5 115.0 126.5Q117.5 126.5 119.0 125.5Q124.0 125.0 129.5 125.0Q135.0 125.0 140.0 125.0Q144.5 125.0 152.25 125.25Q160.0 125.5 164.5 127.0H166.0Q166.0 127.0 166.75 127.75Q167.5 128.5 167.5 129.5Q167.5 130.5 167.0 131.75Q166.5 133.0 166.0 134.0Q166.0 134.0 165.5 134.25Q165.0 134.5 165.0 135.5Q165.0 135.5 163.5 137.0Q161.0 142.0 158.5 148.25Q156.0 154.5 154.0 161.5Q150.5 172.0 148.5 184.0Q146.5 196.0 146.0 207.5Q145.5 217.5 145.25 227.5Q145.0 237.5 144.5 247.5Q153.5 231.0 162.25 214.25Q171.0 197.5 181.0 182.0Q182.5 180.0 185.75 174.75Q189.0 169.5 191.75 164.5Q194.5 159.5 194.5 157.5Q194.5 156.0 196.5 151.5Q198.5 147.0 200.5 142.5Q203.0 137.5 205.25 133.5Q207.5 129.5 208.0 128.0L222.5 100.5L224.0 103.5Q226.5 109.5 228.25 114.0Q230.0 118.5 231.5 122.0Q233.5 125.5 235.0 128.0Q236.5 130.5 238.5 133.0Q244.5 139.0 267.0 149.5Q268.0 150.0 273.0 152.25Q278.0 154.5 283.5 157.0Q289.0 159.0 293.25 161.0Q297.5 163.0 298.0 163.0Q298.0 162.0 298.5 161.5Q299.0 161.0 299.0 160.5V156.0Q299.0 147.5 296.5 131.5Q294.0 115.5 289.75 97.5Q285.5 79.5 280.75 64.25Q276.0 49.0 271.5 42.0Q269.5 41.0 268.5 37.0Q268.0 36.0 267.5 35.0Q267.0 34.0 266.0 33.5Q266.0 32.5 265.75 31.75Q265.5 31.0 265.5 30.5Q265.5 29.5 265.75 29.25Q266.0 29.0 266.0 29.0Q267.0 28.0 267.25 28.0Q267.5 28.0 267.5 28.0Q268.5 27.5 271.5 27.5Q273.0 26.5 274.5 26.5Q276.0 26.5 276.5 26.5Q284.0 25.5 291.5 25.25Q299.0 25.0 306.5 25.0Q314.5 25.0 322.25 25.0Q330.0 25.0 338.0 26.0Q338.5 26.0 340.0 26.0Q341.5 26.0 342.5 26.5H345.5Q345.5 26.5 346.0 27.0Q346.5 27.5 347.0 27.5Q347.5 27.5 347.5 29.0V29.5Q347.5 29.5 347.5 30.0Q347.5 30.5 347.0 30.5Q347.0 31.0 346.5 31.5Q346.0 32.0 346.0 32.5Q345.5 33.5 344.75 34.75Q344.0 36.0 343.0 37.0Q341.5 40.0 339.75 42.25Q338.0 44.5 338.0 45.0Q330.0 56.5 325.0 74.25Q320.0 92.0 317.25 112.5Q314.5 133.0 313.5 152.0Q312.5 171.0 312.5 184.5V242.5Q321.0 248.5 335.5 252.0Q350.0 255.5 361.0 257.5V221.5Q361.0 200.5 358.75 184.75Q356.5 169.0 351.25 153.5Q346.0 138.0 336.5 119.5Q336.0 118.5 334.75 116.0Q333.5 113.5 332.0 110.0Q331.0 107.0 330.0 104.5Q329.0 102.0 329.0 100.5V98.0H330.5Q341.0 98.0 351.5 98.75Q362.0 99.5 373.0 100.5Q412.0 103.0 451.75 103.5Q491.5 104.0 530.5 104.0Q553.5 104.0 576.0 104.25Q598.5 104.5 621.5 105.5Q626.0 106.0 630.75 106.0Q635.5 106.0 640.5 107.0Q640.5 107.0 641.5 107.0Q642.5 107.0 643.5 107.5H645.5Q646.5 108.5 647.0 108.5Q647.0 108.5 647.5 108.75Q648.0 109.0 648.0 110.0Q648.0 110.5 647.5 111.0Q647.0 111.5 647.0 111.5H646.5Q645.5 112.0 644.0 112.0H641.0Q630.0 113.5 618.0 113.5Q568.5 115.0 518.0 115.0H394.5Q394.5 115.5 393.0 118.0Q393.0 118.5 392.75 118.75Q392.5 119.0 392.5 119.5H394.0Q395.0 120.0 396.0 120.25Q397.0 120.5 397.5 120.5Q403.0 121.0 408.0 121.0Q413.0 121.0 418.5 122.0Q444.5 123.0 470.5 123.5Q496.5 124.0 522.5 124.0Q548.0 124.0 574.25 124.75Q600.5 125.5 626.0 126.5Q631.5 127.0 636.75 127.0Q642.0 127.0 647.0 128.0Q648.0 128.0 649.25 128.0Q650.5 128.0 651.5 128.5H654.0Q654.5 129.5 655.5 129.5Q656.0 129.5 656.0 131.0Q656.0 131.5 655.75 132.0Q655.5 132.5 655.5 132.5Q654.5 132.5 654.5 133.0H652.5Q651.5 133.0 650.5 133.5Q649.5 134.0 649.5 134.0Q645.0 134.0 640.75 134.25Q636.5 134.5 632.0 134.5Q612.0 135.0 591.5 135.25Q571.0 135.5 550.5 135.5H447.5L441.5 142.0Q444.0 143.0 447.75 143.5Q451.5 144.0 456.5 145.0Q462.0 145.5 467.5 145.5Q473.0 145.5 474.5 145.5Q480.5 145.5 486.0 144.75Q491.5 144.0 497.0 144.0Q499.5 144.0 502.5 144.25Q505.5 144.5 508.0 146.5Q510.0 147.5 521.0 148.5Q532.0 149.5 546.0 149.5Q560.5 150.0 572.5 150.0Q584.5 150.0 588.0 150.0Q604.0 150.0 619.75 150.25Q635.5 150.5 651.0 151.5Q652.0 151.5 654.5 151.5Q657.0 151.5 660.0 152.5Q661.5 152.5 663.0 152.75Q664.5 153.0 665.0 153.0Q666.0 154.0 667.5 154.0Q668.0 154.5 668.5 154.75Q669.0 155.0 669.0 156.0Q669.0 157.5 667.5 157.5Q667.5 158.0 667.0 158.25Q666.5 158.5 666.5 158.5Q664.5 159.0 662.25 159.0Q660.0 159.0 658.5 160.0H649.5Q632.5 161.0 615.75 161.25Q599.0 161.5 582.0 161.5H497.5L489.5 171.5Q485.5 176.5 483.75 183.5Q482.0 190.5 481.0 198.5Q480.5 206.5 480.75 214.0Q481.0 221.5 481.0 227.5V269.0H575.5Q594.0 269.0 612.75 269.0Q631.5 269.0 650.0 270.0H660.0Q662.5 270.5 665.0 270.5Q667.5 270.5 670.5 271.5Q670.5 271.5 670.75 271.75Q671.0 272.0 671.5 272.0Q671.5 272.0 672.0 272.0Q672.5 272.0 672.5 273.0Q672.5 273.0 672.75 273.25Q673.0 273.5 673.0 274.5Q673.0 276.5 671.5 276.5Q671.0 277.5 669.0 277.5Q668.0 278.0 666.0 278.0Q664.0 278.0 662.0 279.0Q658.5 279.5 654.75 279.5Q651.0 279.5 650.0 279.5Q631.5 280.0 612.75 280.25Q594.0 280.5 575.5 280.5Q552.0 280.5 528.25 280.75Q504.5 281.0 481.0 281.0Q481.0 282.0 480.75 283.25Q480.5 284.5 480.5 285.5Q480.0 286.5 479.75 287.5Q479.5 288.5 479.0 289.5Q478.5 290.0 477.5 290.75Q476.5 291.5 475.5 291.5Q473.5 291.5 472.25 289.25Q471.0 287.0 471.0 285.5Q469.5 283.0 469.5 281.0L427.5 284.0Q427.5 287.0 426.5 288.5Q426.5 291.0 425.0 292.5Q424.5 294.5 421.5 294.5Q419.5 294.5 418.25 292.75Q417.0 291.0 416.0 290.0Q416.0 289.0 415.75 287.75Q415.5 286.5 415.5 285.5L372.0 294.0Q372.0 294.5 372.0 296.0Q372.0 297.5 371.5 299.0Q371.5 300.0 371.0 300.75Q370.5 301.5 370.0 302.5Q369.5 303.0 368.75 304.0Q368.0 305.0 367.0 305.0Q366.0 305.0 365.0 304.5Q364.0 304.0 363.0 303.5Q362.5 302.5 362.5 301.5Q362.5 300.5 361.5 299.5Q361.5 299.0 361.25 298.0Q361.0 297.0 361.0 296.0Q348.5 299.5 336.25 303.75Q324.0 308.0 312.5 313.0V323.5Q322.5 325.5 332.75 327.75Q343.0 330.0 352.5 332.5Q354.5 333.0 358.75 333.75Q363.0 334.5 367.5 335.5Q370.0 336.0 372.0 336.5Q374.0 337.0 376.0 337.5Q376.5 338.0 377.5 338.25Q378.5 338.5 379.0 339.0L379.5 340.0Q379.5 340.0 380.0 340.25Q380.5 340.5 380.5 341.5Q380.5 344.0 378.25 345.0Q376.0 346.0 374.5 346.0Q369.0 346.0 360.5 344.5Q352.0 343.0 343.0 341.5Q335.0 339.5 326.75 337.5Q318.5 335.5 312.5 334.5V354.0Q312.0 357.5 311.75 360.75Q311.5 364.0 311.0 366.5Q310.5 367.5 310.0 368.75Q309.5 370.0 308.5 371.0Q308.5 373.5 305.5 373.5Q303.0 373.5 302.0 371.0Q300.5 368.5 300.5 366.5Q300.0 364.0 299.5 360.5Q299.0 357.0 298.0 353.5ZM351.0 95.0Q346.0 96.5 341.5 96.5Q340.5 96.5 338.75 95.75Q337.0 95.0 337.0 93.0Q337.0 89.5 337.5 86.5Q338.0 83.5 338.0 80.0Q338.0 76.5 337.25 73.5Q336.5 70.5 336.5 67.0Q336.5 63.0 340.0 63.0Q345.0 63.0 350.0 65.5Q352.5 66.5 355.0 67.0Q357.5 67.5 358.5 68.5Q366.5 71.0 374.0 73.0Q381.5 75.0 389.5 75.0L488.0 76.5Q518.5 77.0 548.5 77.0Q578.5 77.0 608.0 78.0Q622.0 78.0 634.5 79.5H639.0Q639.5 80.0 641.0 80.0Q642.0 80.0 642.0 80.5Q642.0 81.0 642.5 81.0Q642.5 81.0 643.0 81.25Q643.5 81.5 643.5 82.5Q643.5 83.0 642.0 84.5Q642.0 84.5 641.5 84.5Q641.0 84.5 640.5 85.5Q639.5 85.5 637.75 85.75Q636.0 86.0 635.0 86.0Q632.5 86.0 630.0 86.5Q627.5 87.0 627.0 87.0Q613.5 87.5 600.5 87.5Q587.5 87.5 574.0 87.5Q553.0 87.5 532.0 87.25Q511.0 87.0 490.0 87.0H389.5Q383.0 87.0 376.5 88.25Q370.0 89.5 363.0 91.5Q360.5 92.5 357.25 93.25Q354.0 94.0 351.0 95.0ZM679.0 335.5Q678.5 332.0 678.5 329.25Q678.5 326.5 678.5 326.0Q676.5 310.0 676.0 294.0Q675.5 278.0 675.5 262.5Q675.5 239.0 677.0 216.0Q678.5 193.0 678.5 170.0Q678.5 156.0 676.75 142.25Q675.0 128.5 672.5 114.5Q671.0 106.5 667.25 93.75Q663.5 81.0 658.5 67.0Q653.5 53.0 647.75 41.25Q642.0 29.5 636.0 23.5Q635.0 23.5 633.5 22.0L631.5 20.0Q628.5 17.0 628.5 14.0Q628.5 13.0 628.75 12.75Q629.0 12.5 629.0 12.5Q630.0 12.5 630.0 12.0Q630.0 11.5 630.0 11.5H632.0Q634.5 11.0 637.25 10.5Q640.0 10.0 643.5 10.0H654.0Q661.0 10.0 668.25 10.0Q675.5 10.0 683.0 11.0Q705.0 12.0 726.5 14.0Q727.0 14.5 729.0 14.5Q731.0 14.5 733.0 15.5Q735.0 15.5 736.0 15.75Q737.0 16.0 737.5 16.0Q738.0 17.0 739.5 17.0Q739.5 17.5 740.0 18.0Q740.5 18.5 740.5 19.0Q740.5 19.5 740.0 20.0Q739.5 20.5 739.5 21.5Q738.0 21.5 738.0 22.0Q737.0 22.0 736.5 22.5Q736.0 23.0 736.0 23.0Q725.0 27.0 717.0 38.75Q709.0 50.5 703.75 66.0Q698.5 81.5 695.75 96.75Q693.0 112.0 692.0 122.5Q691.0 136.5 690.25 150.75Q689.5 165.0 689.0 178.5Q688.0 202.5 687.0 226.25Q686.0 250.0 686.0 273.5Q686.0 286.0 686.75 298.5Q687.5 311.0 687.5 323.5V331.5Q687.0 333.5 686.75 335.75Q686.5 338.0 686.0 340.5V342.0Q686.0 343.0 685.0 343.5Q685.0 343.5 684.75 344.0Q684.5 344.5 683.5 344.5Q682.5 344.5 682.25 344.0Q682.0 343.5 681.5 343.0Q681.5 342.0 681.0 341.5Q680.5 341.0 680.5 340.5Q680.0 339.5 680.0 338.0Q680.0 336.5 679.0 335.5ZM62.0 121.0Q61.5 121.0 59.5 122.25Q57.5 123.5 57.5 123.5H57.0Q54.5 123.5 54.5 121.0V119.5Q54.5 114.0 55.25 108.5Q56.0 103.0 57.0 97.5Q59.5 84.5 60.75 71.75Q62.0 59.0 63.0 46.5Q63.0 45.5 63.5 40.75Q64.0 36.0 65.0 31.0Q66.0 28.5 66.5 26.25Q67.0 24.0 67.5 22.0Q67.5 20.5 69.0 18.5Q69.0 18.5 69.5 17.75Q70.0 17.0 71.0 17.0Q74.0 17.0 75.25 19.5Q76.5 22.0 76.5 23.5Q76.5 27.0 81.5 32.75Q86.5 38.5 93.75 44.75Q101.0 51.0 107.75 56.0Q114.5 61.0 118.0 62.5Q121.0 63.5 132.75 64.75Q144.5 66.0 159.25 67.0Q174.0 68.0 186.5 68.75Q199.0 69.5 203.5 70.0Q218.5 70.5 233.25 71.25Q248.0 72.0 263.0 73.5Q265.0 73.5 267.25 73.5Q269.5 73.5 271.5 74.0Q273.0 74.0 275.0 74.5Q277.0 75.0 279.0 75.5Q279.0 75.5 279.25 75.5Q279.5 75.5 279.5 76.5Q281.0 76.5 281.0 78.0Q281.0 79.5 279.25 80.25Q277.5 81.0 276.5 81.0Q275.0 81.5 273.25 81.5Q271.5 81.5 269.0 81.5Q264.5 82.0 260.5 82.25Q256.5 82.5 255.5 82.5Q237.5 82.5 220.0 81.25Q202.5 80.0 184.5 80.0Q161.5 80.0 146.0 82.5Q130.5 85.0 116.25 91.5Q102.0 98.0 82.5 110.0Q79.0 111.0 69.5 117.5Q67.5 118.5 65.75 119.5Q64.0 120.5 62.0 121.0Z" fill="black" /></svg>