<svg xmlns="http://www.w3.org/2000/svg" width="454.5" height="461.0" viewBox="0 0 454.5 461.0"><path d="M115.0 216.5V215.5Q110.5 212.5 106.25 210.25Q102.0 208.0 101.5 208.0Q101.0 208.0 100.25 215.25Q99.5 222.5 99.5 232.5Q99.5 246.0 100.5 251.0Q101.5 256.0 103.5 256.0Q107.5 256.0 113.0 251.0L116.0 250.5Q120.5 247.5 127.0 244.25Q133.5 241.0 140.0 239.5Q153.5 234.0 153.5 234.0Q153.5 232.5 141.0 228.5Q135.5 227.0 128.0 223.5Q120.5 220.0 115.0 216.5ZM195.0 290.5Q194.5 290.5 194.25 290.5Q194.0 290.5 193.5 290.5Q186.5 290.5 184.5 293.0Q185.0 293.5 187.5 293.5Q191.0 293.5 195.0 290.5ZM258.0 289.0Q262.0 289.0 264.0 287.75Q266.0 286.5 266.0 281.5Q265.0 281.5 257.5 287.5Q257.0 288.0 256.5 288.25Q256.0 288.5 255.5 289.0Q256.0 289.0 256.75 289.0Q257.5 289.0 258.0 289.0ZM59.5 112.0Q59.5 111.0 55.5 111.0Q51.5 111.0 45.0 111.0Q32.0 111.0 32.0 116.0Q32.0 118.5 33.75 123.75Q35.5 129.0 39.5 137.0L46.5 151.0L52.5 135.0Q54.5 127.5 55.5 122.0Q58.0 118.0 58.75 115.25Q59.5 112.5 59.5 112.0ZM81.5 40.0V39.0Q76.5 34.5 72.0 34.5Q67.5 34.5 67.5 56.0Q67.5 68.0 68.5 72.25Q69.5 76.5 70.0 76.5Q70.5 76.5 72.0 76.25Q73.5 76.0 74.0 75.5Q76.0 74.5 82.0 72.5Q88.0 70.5 96.0 67.5Q98.5 67.0 102.0 65.5Q105.5 64.0 109.0 63.0L127.0 56.0L114.5 52.5Q105.0 51.0 95.25 46.5Q85.5 42.0 81.5 40.0ZM191.0 153.0H190.0Q191.5 151.5 191.5 147.5V144.5Q191.5 143.0 191.25 142.5Q191.0 142.0 191.0 142.0Q187.5 142.0 180.0 147.5L173.5 152.5L178.5 153.0Q179.5 154.5 181.25 154.75Q183.0 155.0 184.0 155.0Q190.0 155.0 191.0 153.0ZM262.5 145.5Q263.0 143.5 263.25 142.25Q263.5 141.0 263.5 140.0Q261.5 140.0 248.0 148.5Q245.5 150.0 243.75 151.0Q242.0 152.0 241.0 152.5H241.5Q244.0 152.5 246.0 152.5Q248.0 152.5 250.5 153.0H255.5Q259.5 153.0 262.5 145.5ZM418.0 47.0Q418.0 47.0 408.5 47.0Q399.0 47.0 387.5 46.5H357.0Q357.0 47.5 360.5 58.5Q364.0 69.5 368.0 84.5Q372.0 94.0 376.25 108.75Q380.5 123.5 382.5 133.0V132.5Q383.0 140.5 384.0 140.5Q385.5 140.5 387.5 134.0Q389.5 127.5 393.0 113.0Q395.5 100.5 400.0 87.25Q404.5 74.0 408.5 67.0Q410.0 63.0 411.75 59.5Q413.5 56.0 414.0 54.0Q416.5 51.5 417.25 49.25Q418.0 47.0 418.0 47.0ZM125.5 386.5H126.0Q117.5 385.0 103.75 379.25Q90.0 373.5 79.5 367.5L58.5 355.5V423.0L70.5 415.5Q77.5 412.0 90.25 406.75Q103.0 401.5 116.0 397.0L137.0 390.5ZM138.0 305.0 180.0 279.5Q197.5 268.5 207.25 264.0Q217.0 259.5 221.0 259.5Q224.0 259.5 224.0 263.0Q224.0 267.5 217.0 280.5L205.0 296.5L217.0 313.0Q221.0 321.0 224.5 328.5Q228.0 336.0 228.0 339.0Q228.0 343.0 226.0 343.0Q224.0 343.0 218.5 338.0Q213.0 333.0 207.75 326.75Q202.5 320.5 201.0 316.0Q200.0 313.5 192.25 311.75Q184.5 310.0 174.0 309.0ZM86.5 229.5 89.0 178.5 111.0 195.5Q120.0 202.0 130.5 208.0Q141.0 214.0 149.0 215.5Q153.0 217.0 169.25 218.25Q185.5 219.5 209.0 220.0Q232.5 220.5 258.0 220.5Q284.5 220.5 306.0 221.5Q327.5 222.5 340.25 224.0Q353.0 225.5 353.0 228.0Q353.0 229.0 341.25 231.0Q329.5 233.0 309.5 234.25Q289.5 235.5 265.5 236.0Q235.0 237.0 216.75 237.75Q198.5 238.5 187.5 240.0Q176.5 241.5 168.25 244.0Q160.0 246.5 149.5 251.0Q137.5 255.5 125.0 261.75Q112.5 268.0 105.5 272.0Q99.0 275.5 94.25 278.0Q89.5 280.5 87.0 280.5L85.5 279.5Q85.5 278.5 85.75 263.75Q86.0 249.0 86.5 229.5ZM221.0 297.5Q221.0 295.0 230.25 287.75Q239.5 280.5 252.5 272.25Q265.5 264.0 276.75 258.0Q288.0 252.0 292.0 252.0Q298.0 252.0 298.0 259.5Q298.0 261.5 295.25 265.5Q292.5 269.5 287.5 272.5Q283.5 277.0 281.25 280.75Q279.0 284.5 279.0 289.0Q279.0 298.0 290.5 315.0Q299.5 329.0 299.5 336.5Q299.5 337.0 299.5 338.0Q299.5 339.0 298.5 340.0L298.0 340.5Q291.5 340.5 285.0 330.5Q274.5 314.5 266.25 309.25Q258.0 304.0 242.5 304.0Q233.5 304.0 227.25 302.25Q221.0 300.5 221.0 297.5ZM178.5 130.0Q197.0 118.5 207.0 112.75Q217.0 107.0 221.5 107.0Q222.5 107.0 223.75 108.25Q225.0 109.5 225.0 111.0Q225.0 113.5 222.75 117.5Q220.5 121.5 217.0 127.5Q212.0 135.5 208.5 142.75Q205.0 150.0 205.0 155.0Q205.0 156.5 206.5 156.5Q207.5 156.5 219.5 149.25Q231.5 142.0 247.0 131.0Q267.5 119.0 279.0 112.5Q290.5 106.0 294.5 106.0Q297.0 106.0 297.5 107.25Q298.0 108.5 298.0 110.5Q298.0 115.5 285.5 130.0Q280.5 136.0 277.5 140.75Q274.5 145.5 274.5 151.0Q274.5 156.5 278.0 164.25Q281.5 172.0 288.5 184.5Q298.0 202.0 298.0 208.0Q298.0 212.5 294.5 212.5Q292.5 212.5 288.0 206.75Q283.5 201.0 277.0 191.5Q266.5 174.0 255.5 170.25Q244.5 166.5 226.0 166.5Q219.5 166.5 215.0 167.0Q210.5 167.5 210.5 167.5Q210.5 168.0 213.5 174.5Q216.5 181.0 221.5 188.0Q229.5 202.5 229.5 208.0Q229.5 212.5 226.5 212.5Q224.5 212.5 219.0 206.0Q213.5 199.5 208.0 190.0V191.5Q198.5 175.5 188.5 171.0Q178.5 166.5 161.0 166.5Q158.0 166.5 155.5 167.0Q153.0 167.5 151.5 167.5H147.5Q142.5 167.5 142.5 163.0Q142.5 155.5 178.5 130.0ZM57.0 36.0Q56.0 32.0 55.5 27.25Q55.0 22.5 55.0 19.5Q55.0 10.0 58.5 10.0Q59.5 10.0 67.25 13.75Q75.0 17.5 83.5 24.5V23.5Q98.0 32.5 114.75 37.5Q131.5 42.5 156.25 44.5Q181.0 46.5 219.5 46.5Q278.5 46.5 307.25 44.0Q336.0 41.5 336.5 38.0V37.0Q336.5 33.0 341.5 31.75Q346.5 30.5 358.0 30.5Q363.5 30.5 376.5 30.75Q389.5 31.0 404.5 31.75Q419.5 32.5 430.5 33.5Q441.5 34.5 443.0 36.0L444.5 38.0Q444.5 43.0 438.5 47.0Q435.0 49.5 428.75 59.5Q422.5 69.5 415.5 83.0L401.5 116.5L399.0 281.0Q399.0 332.5 397.75 370.75Q396.5 409.0 395.0 430.0Q393.5 451.0 391.5 451.0Q389.0 451.0 387.5 441.0Q386.0 431.0 386.0 417.5V390.5L278.5 393.0Q242.5 393.5 217.25 394.5Q192.0 395.5 173.25 397.75Q154.5 400.0 139.25 404.25Q124.0 408.5 108.75 415.25Q93.5 422.0 74.0 432.0L43.0 445.0V314.5Q43.0 278.0 42.75 254.25Q42.5 230.5 41.75 215.0Q41.0 199.5 39.75 189.0Q38.5 178.5 36.25 169.25Q34.0 160.0 30.5 148.5Q24.5 133.0 20.5 122.0Q16.5 111.0 15.5 111.0Q13.5 111.0 11.75 108.5Q10.0 106.0 10.0 104.0Q10.0 101.0 20.0 98.75Q30.0 96.5 45.0 96.5Q60.0 96.5 70.75 98.0Q81.5 99.5 81.5 101.0Q81.5 102.0 78.25 110.0Q75.0 118.0 69.5 128.0Q65.0 137.0 62.25 143.75Q59.5 150.5 58.5 161.0Q57.5 171.5 57.25 190.5Q57.0 209.5 57.0 243.5V334.5L75.5 349.0Q85.5 356.5 95.0 361.5Q104.5 366.5 117.0 369.5Q129.5 372.5 148.25 374.0Q167.0 375.5 195.5 376.0Q224.0 376.5 265.5 376.5H386.5L384.0 279.5Q383.5 225.0 377.75 174.0Q372.0 123.0 351.5 72.0L345.5 57.0L253.5 59.5Q223.0 60.5 201.75 61.75Q180.5 63.0 162.75 65.75Q145.0 68.5 125.5 74.25Q106.0 80.0 78.5 90.5Q72.0 92.0 67.25 93.5Q62.5 95.0 60.5 96.0Q60.0 96.0 59.25 96.25Q58.5 96.5 58.0 96.5Q53.5 96.5 53.5 90.5Q53.5 87.0 55.5 77.5Q56.5 73.5 57.25 66.75Q58.0 60.0 58.0 53.5Q58.0 49.5 58.0 45.0Q58.0 40.5 57.0 36.0Z" fill="black" /></svg>