<svg xmlns="http://www.w3.org/2000/svg" width="504.5" height="384.0" viewBox="0 0 504.5 384.0"><path d="M54.0 306.0 65.0 301.5 48.5 296.5 30.0 289.0V300.0Q30.0 311.0 36.0 311.0Q42.5 311.0 54.0 306.0ZM42.5 174.0Q35.5 170.5 32.5 170.5Q30.0 170.5 30.0 182.0Q30.0 192.5 32.5 192.5Q35.0 192.5 36.5 191.5Q39.5 190.5 46.0 188.25Q52.5 186.0 57.5 185.0Q62.0 184.0 64.25 183.25Q66.5 182.5 66.5 182.5Q60.0 180.0 54.0 178.25Q48.0 176.5 42.5 174.0ZM65.5 245.0H64.0L57.0 242.5Q41.0 236.0 36.5 236.0Q34.5 236.0 34.5 239.5V245.0Q34.5 256.5 35.0 257.0Q36.5 256.5 41.75 254.75Q47.0 253.0 52.5 251.0Q65.5 246.5 65.5 245.0ZM66.5 126.5Q66.0 126.0 59.25 123.75Q52.5 121.5 45.75 119.25Q39.0 117.0 38.0 117.0Q35.5 117.0 35.0 119.5Q34.5 122.0 34.5 127.5Q34.5 137.0 37.0 137.0Q39.5 137.0 43.5 135.0Q47.5 133.5 52.75 131.5Q58.0 129.5 61.5 128.5Q66.0 127.0 66.5 126.5ZM172.0 155.0 167.0 138.0H117.0Q80.5 138.0 59.5 142.0Q38.5 146.0 36.0 153.5V154.0Q36.5 158.5 47.0 163.0Q57.5 167.5 74.0 171.5Q90.5 175.5 109.25 178.0Q128.0 180.5 145.5 180.5Q163.0 180.5 169.75 179.5Q176.5 178.5 176.5 173.5Q176.5 171.0 175.25 166.25Q174.0 161.5 172.0 155.0ZM181.5 188.5Q181.5 188.0 180.5 188.0Q179.0 188.0 179.0 188.5Q179.0 189.5 180.5 189.5Q181.5 189.5 181.5 188.5ZM193.5 126.5Q190.0 123.0 185.25 121.5Q180.5 120.0 176.5 120.0Q170.0 120.0 170.0 123.0Q170.0 126.0 176.0 126.0Q182.0 126.0 182.0 131.5Q182.0 134.0 181.5 135.5Q181.0 136.5 181.0 139.5Q181.0 146.0 183.25 155.75Q185.5 165.5 188.5 173.0Q191.5 180.5 194.0 180.5Q196.5 180.5 202.25 164.0Q208.0 147.5 211.5 127.0Q212.5 122.0 213.0 121.0Q212.5 121.5 211.25 122.5Q210.0 123.5 209.0 125.5Q206.5 128.5 204.75 130.25Q203.0 132.0 201.0 132.0Q198.0 132.0 193.5 126.5ZM256.0 185.0Q258.5 179.5 260.25 174.5Q262.0 169.5 262.5 167.5Q260.5 167.5 251.5 171.5Q242.5 175.5 232.0 180.75Q221.5 186.0 213.75 190.5Q206.0 195.0 206.0 196.0Q206.0 197.0 212.75 201.75Q219.5 206.5 228.25 212.0Q237.0 217.5 244.5 221.75Q252.0 226.0 253.5 226.0Q252.5 222.0 251.75 218.0Q251.0 214.0 251.0 210.0Q251.0 204.5 252.25 197.75Q253.5 191.0 256.0 185.0ZM288.0 164.0Q285.5 157.0 283.5 157.0Q280.5 157.0 270.0 180.0Q266.5 189.0 264.75 197.5Q263.0 206.0 263.0 213.0Q263.0 229.5 272.0 233.5Q274.5 234.0 277.0 238.0Q279.5 242.0 280.0 247.5V247.0Q281.0 251.0 285.25 255.75Q289.5 260.5 294.0 263.0L303.0 269.5L301.5 255.5Q301.0 251.0 300.25 243.5Q299.5 236.0 298.5 228.5L297.0 212.5Q296.0 202.5 294.0 194.25Q292.0 186.0 290.5 184.5Q287.5 183.0 287.5 178.5Q287.5 177.0 288.5 176.0Q289.0 175.5 289.0 174.25Q289.0 173.0 289.5 172.0Q289.0 170.5 289.0 168.25Q289.0 166.0 288.0 164.0ZM307.5 199.5V200.0Q308.0 199.0 308.0 197.5Q308.0 195.5 307.0 193.5L306.5 193.0V198.5Q306.5 201.5 307.0 201.5Q307.0 201.5 307.0 201.0Q307.0 200.5 307.5 199.5ZM330.0 129.0H317.5Q308.0 129.0 299.0 127.5Q298.5 127.5 294.5 127.25Q290.5 127.0 289.5 126.5Q292.0 131.5 292.0 136.0Q292.0 147.0 297.5 158.5Q303.0 170.0 308.0 170.5H308.5Q311.0 169.5 315.25 163.25Q319.5 157.0 322.5 148.0ZM370.0 172.5V173.0Q372.5 167.5 374.25 162.5Q376.0 157.5 376.0 156.0Q372.5 156.0 364.0 159.75Q355.5 163.5 346.5 168.5Q337.5 173.5 331.0 177.75Q324.5 182.0 324.5 184.0Q324.5 185.5 331.75 190.75Q339.0 196.0 348.5 201.75Q358.0 207.5 365.5 211.0Q365.5 208.5 365.25 206.0Q365.0 203.5 364.5 201.0Q364.0 199.5 364.0 197.75Q364.0 196.0 364.0 194.5Q364.0 182.0 370.0 172.5ZM211.5 45.0 221.5 29.5H184.5L191.0 43.5Q194.0 49.0 197.0 53.5Q200.0 58.0 200.5 58.0Q201.5 58.0 204.5 54.0Q207.5 50.0 211.5 45.0ZM304.5 100.5Q304.5 92.0 302.75 79.75Q301.0 67.5 296.75 55.75Q292.5 44.0 285.0 36.0Q277.5 28.0 266.0 28.0Q257.0 28.0 247.25 31.5Q237.5 35.0 230.0 42.0Q219.5 52.0 211.5 69.25Q203.5 86.5 203.5 98.5Q203.5 101.5 204.5 104.5Q207.5 110.5 209.5 110.5Q212.5 110.5 220.5 105.5Q229.5 101.0 233.5 101.0Q237.0 101.0 239.5 103.75Q242.0 106.5 242.0 110.0Q242.0 113.0 238.0 114.5Q234.5 116.0 229.25 124.5Q224.0 133.0 219.5 144.25Q215.0 155.5 213.0 166.0L210.5 181.0Q214.5 179.0 224.5 173.5Q234.5 168.0 246.0 161.5Q257.5 155.0 266.0 149.25Q274.5 143.5 275.5 141.5Q276.0 141.0 276.0 140.0Q276.0 135.0 268.5 126.5Q259.0 116.0 259.0 113.0Q259.0 109.0 265.0 109.0Q266.5 109.0 268.75 109.25Q271.0 109.5 273.0 110.0Q275.5 110.5 277.25 111.0Q279.0 111.5 280.5 112.0Q287.5 113.5 292.0 114.5Q296.5 115.5 299.0 115.5Q303.0 115.5 303.75 112.75Q304.5 110.0 304.5 104.5ZM333.5 30.0Q332.5 30.0 330.0 30.0Q327.5 30.0 323.5 29.5L294.5 26.0Q296.5 29.5 298.5 33.25Q300.5 37.0 302.5 40.5L312.0 57.5Q315.0 54.0 317.75 50.5Q320.5 47.0 323.0 43.5Q327.0 39.0 329.75 35.5Q332.5 32.0 333.5 30.0ZM142.5 15.0V13.5Q144.0 11.5 152.0 11.5Q159.5 11.5 167.5 13.0Q179.5 15.0 194.25 16.0Q209.0 17.0 222.0 17.0Q235.5 17.0 245.25 16.25Q255.0 15.5 255.5 13.5V14.0Q256.0 10.0 264.0 10.0Q273.0 10.0 291.0 13.0Q305.0 15.0 318.0 15.5Q331.0 16.0 344.5 16.0Q347.0 15.5 349.25 15.5Q351.5 15.5 353.5 15.5Q366.5 15.5 372.0 20.5V20.0Q377.5 24.0 377.5 26.0Q377.5 29.0 365.5 29.5Q357.5 29.5 351.5 33.0Q345.5 36.5 337.5 45.0Q325.0 59.5 320.25 71.5Q315.5 83.5 315.5 101.0Q315.5 117.0 321.5 117.0Q326.0 117.0 335.5 110.5Q338.5 107.5 342.25 106.25Q346.0 105.0 349.5 105.0Q352.0 105.0 356.0 106.25Q360.0 107.5 360.0 110.5Q360.0 113.0 353.5 117.5V117.0Q349.5 120.0 344.0 129.5Q338.5 139.0 334.25 148.25Q330.0 157.5 330.0 161.5V162.0H330.5Q333.5 162.0 342.5 157.5Q351.5 153.0 362.0 146.5Q372.5 140.0 381.5 133.5Q390.5 127.0 394.0 123.0Q402.0 113.5 403.5 113.5Q406.0 113.5 406.0 121.0Q406.0 125.0 403.5 131.75Q401.0 138.5 397.5 143.0Q387.5 156.0 382.0 171.5Q376.5 187.0 376.5 200.0Q376.5 207.5 378.5 213.0Q380.5 218.5 385.5 220.0Q389.0 221.0 390.5 224.0Q392.0 227.0 392.0 229.0Q392.0 231.0 407.5 248.0Q423.0 265.0 444.5 287.0Q458.5 300.5 469.75 313.0Q481.0 325.5 487.75 334.0Q494.5 342.5 494.5 344.5L494.0 346.0H493.5Q490.5 346.0 472.25 330.0Q454.0 314.0 430.5 290.5Q404.5 264.5 381.75 244.5Q359.0 224.5 343.75 213.0Q328.5 201.5 323.5 201.5Q321.5 201.5 319.75 209.75Q318.0 218.0 316.75 231.0Q315.5 244.0 315.5 258.5Q315.5 267.5 316.0 273.0Q316.5 278.5 319.5 284.0Q322.5 289.5 329.5 297.25Q336.5 305.0 349.0 318.5Q362.5 332.5 371.25 343.25Q380.0 354.0 380.0 357.0Q380.0 358.0 378.5 359.0H378.0Q375.0 359.0 364.5 350.5Q354.0 342.0 342.5 329.5L314.5 300.0L317.0 334.5Q317.0 339.5 317.25 344.5Q317.5 349.5 317.5 353.5Q317.5 362.5 316.75 368.25Q316.0 374.0 314.5 374.0Q310.0 374.0 307.25 357.25Q304.5 340.5 304.5 316.0V289.0Q301.5 286.0 294.25 279.5Q287.0 273.0 280.0 266.5Q273.0 260.0 270.0 257.5Q246.5 238.0 229.75 226.75Q213.0 215.5 206.0 215.5Q204.0 215.5 203.5 216.5Q202.5 217.0 202.0 227.75Q201.5 238.5 201.25 255.75Q201.0 273.0 201.0 293.0V309.5Q201.0 338.0 199.75 353.75Q198.5 369.5 196.0 369.5Q194.0 369.5 192.25 358.75Q190.5 348.0 190.5 332.5Q190.5 323.0 190.0 308.75Q189.5 294.5 188.75 279.0Q188.0 263.5 187.0 250.5Q185.5 229.0 183.5 217.0Q181.5 205.0 175.75 199.75Q170.0 194.5 157.5 193.5Q145.0 192.5 122.5 192.5Q81.0 192.5 55.75 198.25Q30.5 204.0 30.5 212.5Q30.5 215.5 36.0 220.0Q48.0 229.0 75.0 235.0Q102.0 241.0 136.5 242.0Q156.0 243.0 169.75 245.5Q183.5 248.0 183.5 249.5Q183.5 252.0 165.5 254.0Q147.5 256.0 122.5 257.0Q38.5 258.5 37.5 274.0V275.0Q37.5 278.0 46.75 282.0Q56.0 286.0 69.5 289.5Q83.0 293.0 97.0 295.5Q111.0 298.0 121.5 298.0Q145.0 298.0 162.0 301.25Q179.0 304.5 179.0 308.5Q179.0 310.5 162.5 311.75Q146.0 313.0 122.5 313.0Q39.5 313.0 32.0 330.0Q28.0 338.5 25.5 338.5Q22.0 338.5 20.0 330.75Q18.0 323.0 18.0 310.0Q18.0 299.0 16.75 290.25Q15.5 281.5 14.0 280.5Q10.0 275.5 10.0 270.0Q10.0 266.0 11.5 264.0Q14.0 258.0 15.5 258.0Q17.0 258.0 21.0 263.0L21.5 264.0Q22.0 264.0 22.0 261.0Q22.0 258.5 21.75 255.25Q21.5 252.0 21.0 247.5Q19.5 234.5 19.25 221.0Q19.0 207.5 19.0 194.0Q19.0 181.5 17.5 171.0Q16.0 160.5 13.5 158.0Q12.5 156.0 11.5 153.75Q10.5 151.5 10.5 149.5Q10.5 146.0 12.25 143.5Q14.0 141.0 17.0 141.0Q17.5 141.0 20.5 142.0Q21.5 142.0 22.5 138.0Q23.5 134.0 23.5 127.5Q23.5 121.0 22.25 115.0Q21.0 109.0 18.5 108.5Q17.0 107.0 15.25 103.25Q13.5 99.5 13.5 95.0Q13.5 91.0 15.25 88.25Q17.0 85.5 19.0 85.5Q25.5 85.5 25.5 91.5Q25.5 96.0 37.25 101.75Q49.0 107.5 67.0 113.0Q85.0 118.5 104.75 122.0Q124.5 125.5 140.5 125.5H158.0L151.0 119.5Q144.0 114.0 144.0 110.5Q144.0 106.0 152.0 106.0Q155.5 106.0 160.0 106.5Q164.5 107.0 170.0 108.0Q178.0 109.0 184.25 109.5Q190.5 110.0 192.5 110.0Q192.5 94.5 190.25 77.75Q188.0 61.0 180.5 47.0Q173.0 33.0 157.0 26.5Q150.5 24.0 146.5 20.5Q142.5 17.0 142.5 15.0Z" fill="black" /></svg>