<svg xmlns="http://www.w3.org/2000/svg" width="377.5" height="388.0" viewBox="0 0 377.5 388.0"><path d="M85.5 224.0Q80.5 214.5 76.25 208.0Q72.0 201.5 71.0 201.5Q70.5 201.5 65.25 208.5Q60.0 215.5 53.25 225.5Q46.5 235.5 40.75 244.5Q35.0 253.5 33.0 257.0Q34.0 257.5 45.25 258.25Q56.5 259.0 72.0 259.0Q88.5 259.0 99.25 258.0Q110.0 257.0 112.0 256.5L106.0 250.5Q104.0 248.0 97.75 240.75Q91.5 233.5 85.5 224.0ZM215.0 240.5Q214.5 240.0 212.5 239.0Q211.0 238.0 209.25 237.25Q207.5 236.5 206.5 236.0Q205.0 235.0 203.5 233.75Q202.0 232.5 201.0 231.5Q200.0 230.5 199.0 229.5Q198.0 228.5 197.0 228.0Q196.5 230.5 196.25 233.75Q196.0 237.0 196.0 239.5Q195.5 241.5 195.0 244.25Q194.5 247.0 194.5 249.5Q196.5 248.0 198.5 247.5Q199.5 246.5 201.0 245.75Q202.5 245.0 204.0 244.5Q206.0 243.5 207.75 243.0Q209.5 242.5 211.0 242.0Q214.0 241.0 215.0 240.5ZM216.5 191.5 220.0 193.0Q213.0 190.0 206.25 183.0Q199.5 176.0 199.5 176.0Q199.0 179.0 199.0 183.75Q199.0 188.5 199.0 191.0Q199.0 193.5 198.75 198.25Q198.5 203.0 198.5 203.0Q205.5 197.5 211.0 194.5Q216.5 191.5 216.5 191.5ZM299.5 204.0Q297.0 202.5 286.75 201.5Q276.5 200.5 265.5 199.75Q254.5 199.0 249.5 199.0Q227.0 199.0 215.5 203.5Q204.0 208.0 204.0 214.0Q204.0 220.5 217.0 227.0Q230.0 233.5 256.0 237.5L264.0 238.5Q274.0 239.5 280.75 240.25Q287.5 241.0 292.0 241.0Q299.0 241.0 300.5 238.5Q302.0 236.0 302.0 229.5Q302.0 227.5 302.0 222.0Q302.0 216.5 301.5 210.75Q301.0 205.0 299.5 204.0ZM130.5 67.5 138.0 52.5Q136.0 52.5 133.75 52.75Q131.5 53.0 129.0 53.0Q126.0 53.5 123.25 53.5Q120.5 53.5 117.5 53.5H106.5Q104.0 53.0 102.0 53.0Q100.0 53.0 97.5 53.0Q99.0 56.0 101.75 62.75Q104.5 69.5 107.5 76.5L117.5 104.0Q118.0 103.0 118.0 101.75Q118.0 100.5 118.5 99.5Q119.0 97.0 119.5 95.0Q120.0 93.0 120.5 91.5Q122.5 85.5 125.25 79.25Q128.0 73.0 130.5 67.5ZM298.0 148.0V147.5Q296.5 146.0 286.75 145.0Q277.0 144.0 266.5 143.5Q256.0 143.0 251.5 143.0Q231.5 143.0 219.5 148.0Q207.5 153.0 207.0 161.5Q207.0 165.0 209.5 169.0Q215.0 177.5 227.5 181.75Q240.0 186.0 268.0 188.5L302.0 191.5V170.5Q302.0 162.0 300.75 155.25Q299.5 148.5 298.0 148.0ZM205.0 68.5 196.0 56.5Q189.0 44.5 185.5 42.0Q184.0 42.0 180.25 49.25Q176.5 56.5 173.25 64.25Q170.0 72.0 170.0 75.0Q170.0 75.0 170.75 74.75Q171.5 74.5 172.5 74.5Q175.0 74.5 179.0 74.0Q183.0 73.5 188.0 72.0ZM224.0 133.5Q223.0 132.5 221.5 131.75Q220.0 131.0 219.0 130.0Q217.5 129.0 216.0 127.75Q214.5 126.5 213.0 125.0Q211.0 123.0 208.75 120.5Q206.5 118.0 204.5 116.0V120.5Q204.5 125.5 204.5 130.5Q204.5 135.5 203.5 140.5Q203.0 143.0 203.0 144.0Q204.0 143.0 205.0 142.5Q206.0 142.0 207.0 141.5Q208.5 140.5 210.25 139.25Q212.0 138.0 213.0 137.5Q214.5 136.5 216.0 136.0Q217.5 135.5 219.5 135.0Q222.5 134.0 224.0 133.5ZM335.5 38.0Q331.0 38.0 320.25 37.0Q309.5 36.0 298.5 35.0Q286.0 33.5 280.0 33.5Q274.0 33.5 274.0 35.0Q274.0 35.5 276.75 43.75Q279.5 52.0 283.5 64.0Q287.5 76.0 292.0 88.0Q296.5 100.0 300.0 108.75Q303.5 117.5 304.5 119.5Q305.5 119.5 306.75 115.0Q308.0 110.5 309.0 104.0Q312.0 92.5 316.75 82.0Q321.5 71.5 328.0 60.5Q340.5 40.5 340.5 38.5Q340.5 38.0 335.5 38.0ZM179.5 21.0Q182.5 10.0 186.0 10.0Q190.5 10.0 193.5 25.5V25.0Q194.5 31.0 198.25 38.5Q202.0 46.0 205.5 50.5H205.0Q208.5 54.0 218.5 59.75Q228.5 65.5 240.75 70.75Q253.0 76.0 263.5 79.75Q274.0 83.5 278.5 83.5H279.5Q279.0 81.0 275.75 72.25Q272.5 63.5 267.0 52.0Q262.0 41.0 258.75 31.75Q255.5 22.5 255.5 21.0V20.0Q256.5 19.5 259.5 19.5Q263.0 19.5 269.5 20.0Q276.0 20.5 283.5 21.5Q294.5 23.5 310.25 24.75Q326.0 26.0 338.5 26.0Q351.0 26.0 359.25 27.25Q367.5 28.5 367.5 30.5Q367.5 31.5 364.25 35.5Q361.0 39.5 355.5 43.5Q336.0 61.5 326.75 87.75Q317.5 114.0 315.0 143.5Q312.5 173.0 312.5 201.0V249.0Q312.5 284.0 311.5 313.5Q310.5 343.0 309.25 360.5Q308.0 378.0 307.0 378.0Q305.5 378.0 303.5 372.25Q301.5 366.5 300.5 359.0L300.0 342.5L242.5 317.0Q226.5 310.0 210.25 303.0Q194.0 296.0 181.25 290.5Q168.5 285.0 162.0 283.0Q152.0 278.5 136.25 275.25Q120.5 272.0 102.5 270.25Q84.5 268.5 67.5 268.5Q52.5 268.5 39.5 270.0Q32.5 271.0 25.0 271.75Q17.5 272.5 10.5 272.5L10.0 271.0Q10.0 268.5 15.75 260.25Q21.5 252.0 29.5 241.0Q38.0 229.5 47.25 216.0Q56.5 202.5 61.0 194.5Q71.5 178.0 75.0 178.0Q78.5 178.0 81.5 191.0Q83.0 199.0 89.25 210.5Q95.5 222.0 102.5 230.75Q109.5 239.5 112.5 240.0H113.0Q113.5 239.0 113.5 235.0Q113.5 231.0 113.5 225.5V190.5Q113.5 164.5 112.25 144.0Q111.0 123.5 106.5 105.25Q102.0 87.0 93.0 68.0Q84.5 49.5 84.5 41.5Q84.5 36.0 88.0 36.0Q90.0 36.0 92.0 37.5H91.5Q93.5 38.0 102.5 38.75Q111.5 39.5 123.0 39.5Q126.0 39.5 128.75 39.75Q131.5 40.0 134.0 40.0Q141.0 40.5 146.5 40.75Q152.0 41.0 153.0 42.0Q154.0 43.0 154.0 44.5Q154.0 47.0 151.0 53.5Q148.0 60.0 143.0 68.5Q135.0 81.0 132.0 92.0Q129.0 103.0 126.5 122.5Q125.0 139.0 124.25 160.25Q123.5 181.5 123.5 200.5Q123.5 219.5 124.25 233.5Q125.0 247.5 126.5 249.5Q127.5 251.0 139.75 257.5Q152.0 264.0 170.5 272.75Q189.0 281.5 210.0 291.0Q231.0 300.5 250.25 309.0Q269.5 317.5 283.25 323.0Q297.0 328.5 300.5 329.0L302.0 291.0V253.5L282.0 251.0Q274.0 250.5 263.25 249.0Q252.5 247.5 246.5 246.5H244.0Q237.0 246.5 228.75 248.75Q220.5 251.0 210.5 255.0Q200.5 260.0 195.0 262.5Q189.5 265.0 186.5 265.0Q182.0 265.0 182.0 259.0Q182.0 257.0 182.25 254.75Q182.5 252.5 183.0 250.0Q184.0 246.5 185.0 234.75Q186.0 223.0 187.5 206.25Q189.0 189.5 190.0 172.0Q192.5 145.0 194.0 124.25Q195.5 103.5 196.0 101.5Q197.0 99.0 199.0 99.0Q203.5 99.0 215.5 112.5Q223.0 120.0 228.25 123.5Q233.5 127.0 240.75 128.5Q248.0 130.0 261.0 131.5Q274.5 133.0 284.0 133.0Q292.0 133.0 293.0 132.0V131.5Q293.0 129.0 292.0 124.25Q291.0 119.5 289.5 114.5Q287.5 107.0 285.0 103.5Q282.5 100.0 276.75 97.0Q271.0 94.0 259.0 90.0Q236.5 81.0 210.5 81.0Q190.5 81.0 174.0 87.0Q159.0 92.5 153.0 92.5H151.5V91.0Q151.5 88.5 155.0 79.75Q158.5 71.0 163.5 60.0Q169.0 48.5 173.75 37.0Q178.5 25.5 179.5 21.0Z" fill="black" /></svg>