<svg xmlns="http://www.w3.org/2000/svg" width="815.0" height="443.5" viewBox="0 0 815.0 443.5"><path d="M56.0 299.0V298.5Q48.0 293.0 40.75 288.25Q33.5 283.5 31.0 283.0Q30.0 283.5 29.0 291.5Q28.0 299.5 28.0 311.5Q28.0 326.0 29.0 332.5Q30.0 339.0 32.0 339.0Q34.0 339.0 34.5 338.0V339.0Q35.5 337.5 38.25 335.5Q41.0 333.5 44.5 331.0Q48.0 329.0 52.0 326.25Q56.0 323.5 59.5 321.5L76.0 310.5Q67.0 304.5 56.0 299.0ZM340.0 342.0 339.5 341.5Q339.5 340.5 331.25 339.75Q323.0 339.0 311.5 337.0L287.5 335.0L291.5 346.0Q304.5 382.0 312.5 382.0Q315.0 382.0 316.5 380.25Q318.0 378.5 318.0 376.5Q318.0 373.5 321.75 367.0Q325.5 360.5 331.0 355.5Q335.0 350.0 337.5 346.75Q340.0 343.5 340.0 342.0ZM523.0 305.0Q522.5 303.5 516.0 299.5Q509.5 295.5 500.5 291.0Q491.5 286.5 483.75 283.0Q476.0 279.5 473.0 278.0L471.0 276.5Q470.5 276.5 470.0 276.25Q469.5 276.0 469.0 276.0Q468.5 276.0 468.0 280.5Q467.5 285.0 466.5 300.0L465.0 307.5Q464.5 311.5 464.5 315.75Q464.5 320.0 464.5 323.5Q464.5 336.0 465.0 336.0Q467.0 336.0 472.0 332.75Q477.0 329.5 483.5 326.0Q489.5 321.0 498.0 316.5Q506.5 312.0 512.0 311.0H511.5Q522.0 307.5 523.0 305.0ZM109.0 147.0 94.5 135.0Q88.5 130.0 83.25 126.0Q78.0 122.0 76.5 122.0Q76.0 122.0 75.25 128.75Q74.5 135.5 74.5 146.0Q74.5 155.5 75.0 162.75Q75.5 170.0 76.0 170.0Q77.5 170.0 82.75 166.25Q88.0 162.5 94.5 158.5ZM295.0 142.0Q295.0 140.0 292.0 140.0Q291.0 140.0 286.0 141.0Q281.0 142.0 276.25 143.5Q271.5 145.0 271.5 147.0Q271.5 149.0 275.0 156.0V155.0Q277.5 158.5 278.75 160.75Q280.0 163.0 281.0 163.0Q282.5 163.0 287.0 156.5Q295.0 146.0 295.0 142.0ZM355.0 100.0Q354.0 94.0 350.0 79.0L344.0 59.5L311.0 94.5L331.0 98.5Q343.0 100.0 355.0 100.0ZM488.0 152.5Q479.0 146.5 472.75 142.75Q466.5 139.0 465.0 139.0V172.0Q466.0 183.5 466.75 192.25Q467.5 201.0 468.0 202.0Q471.0 201.0 479.75 196.5Q488.5 192.0 498.5 186.5Q508.5 181.0 515.75 176.0Q523.0 171.0 523.0 168.5Q523.0 168.5 521.5 168.25Q520.0 168.0 516.5 168.0Q513.5 168.0 505.25 163.5Q497.0 159.0 488.0 152.5ZM740.5 99.0 751.0 82.0H707.0L714.5 99.5Q718.5 107.5 721.5 112.5Q724.5 117.5 726.5 118.5Q728.0 118.0 732.0 112.5Q736.0 107.0 740.5 99.0ZM14.5 292.5Q14.5 273.0 15.5 258.5Q16.5 244.0 18.5 244.0Q19.5 244.0 27.25 251.25Q35.0 258.5 44.5 268.5L67.0 292.5L155.0 294.5Q198.0 295.0 220.25 298.25Q242.5 301.5 242.5 304.0Q242.5 307.0 226.0 309.0Q209.5 311.0 174.5 311.0Q148.5 311.0 131.25 312.25Q114.0 313.5 100.5 317.75Q87.0 322.0 73.0 330.5Q59.0 339.0 38.5 353.5Q23.0 368.0 15.5 368.0Q10.0 368.0 10.0 359.5Q10.0 358.5 10.25 356.5Q10.5 354.5 11.0 352.0Q12.5 347.5 13.5 330.0Q14.5 312.5 14.5 292.5ZM60.5 210.0V146.5Q60.5 120.5 62.5 102.0Q64.5 83.5 66.5 83.5Q69.0 83.5 74.5 90.0Q80.0 96.5 85.0 104.5Q91.5 114.5 99.5 120.75Q107.5 127.0 121.0 129.5Q134.5 132.0 157.5 132.0Q170.5 132.0 187.25 131.25Q204.0 130.5 224.5 130.0Q248.5 128.5 270.0 126.75Q291.5 125.0 306.75 123.25Q322.0 121.5 326.5 121.0Q329.0 120.5 331.0 120.25Q333.0 120.0 335.0 120.0Q343.0 120.0 343.0 126.0Q343.0 132.5 334.5 132.5Q331.5 132.5 325.0 137.25Q318.5 142.0 312.0 148.0Q299.5 162.5 292.75 175.75Q286.0 189.0 283.25 206.0Q280.5 223.0 280.5 248.5Q280.5 271.0 278.5 285.25Q276.5 299.5 273.0 299.5Q271.0 299.5 269.0 285.25Q267.0 271.0 267.0 247.0V232.0Q267.0 205.0 265.25 183.0Q263.5 161.0 260.5 156.5Q257.0 150.0 249.0 147.25Q241.0 144.5 222.0 144.5Q211.0 144.5 196.5 145.5Q182.0 146.5 163.5 148.0Q146.0 149.5 136.0 152.0Q126.0 154.5 117.25 160.5Q108.5 166.5 93.5 179.5ZM354.0 28.0Q369.0 10.0 376.0 10.0Q379.0 10.0 379.0 14.0Q379.0 18.5 373.5 27.0Q369.0 33.5 366.5 44.25Q364.0 55.0 364.0 65.0Q364.0 73.5 365.5 83.0Q367.0 92.5 370.5 100.0Q373.5 106.0 384.0 116.75Q394.5 127.5 408.25 138.25Q422.0 149.0 434.0 156.5Q446.0 164.0 451.5 164.0Q454.5 164.0 454.5 155.0Q454.5 148.0 453.0 137.0Q451.5 126.5 451.5 117.5Q451.5 107.0 454.0 107.0Q455.5 107.0 464.25 113.75Q473.0 120.5 484.0 130.5Q497.0 141.0 508.5 147.0Q520.0 153.0 537.75 155.5Q555.5 158.0 587.0 158.0Q597.0 158.0 608.5 157.75Q620.0 157.5 634.0 157.0L709.5 156.0L708.5 132.5Q708.0 113.5 699.5 98.0Q691.0 82.5 679.0 79.0Q674.0 76.5 670.5 74.25Q667.0 72.0 667.0 70.0Q667.0 68.0 675.75 66.75Q684.5 65.5 698.75 64.75Q713.0 64.0 728.5 64.0Q746.0 64.0 762.75 64.75Q779.5 65.5 791.0 66.5Q802.5 67.5 804.0 69.5Q805.0 70.0 805.0 71.5Q805.0 75.5 795.5 75.5Q782.0 75.5 767.25 89.75Q752.5 104.0 741.0 126.0Q736.5 135.0 733.75 143.25Q731.0 151.5 729.75 164.0Q728.5 176.5 728.0 198.75Q727.5 221.0 727.0 258.0Q727.0 288.5 726.0 313.25Q725.0 338.0 723.5 353.0Q722.0 368.0 719.5 370.0H720.0Q719.5 371.5 718.0 371.5Q715.5 371.5 714.0 363.0Q712.5 354.5 712.5 339.0V304.5H639.5Q614.5 304.5 598.5 305.0Q582.5 305.5 571.5 307.0Q560.5 308.5 551.25 311.5Q542.0 314.5 530.5 319.5Q516.0 325.5 500.0 333.5Q484.0 341.5 476.0 347.5Q469.0 354.0 461.75 358.25Q454.5 362.5 453.5 362.5Q451.0 362.5 451.0 351.0Q451.0 347.0 451.5 341.0Q452.0 335.0 452.5 330.0Q454.0 315.0 454.0 304.0Q454.0 294.5 452.5 292.5H452.0Q447.5 292.5 436.0 298.25Q424.5 304.0 409.5 313.25Q394.5 322.5 380.0 332.75Q365.5 343.0 354.25 352.5Q343.0 362.0 339.0 368.0Q330.5 379.0 328.75 387.5Q327.0 396.0 327.0 408.5V416.5Q327.0 433.5 321.0 433.5Q315.5 433.5 302.5 405.0Q295.0 386.0 286.5 367.75Q278.0 349.5 270.25 335.5Q262.5 321.5 258.0 316.0Q255.0 312.0 251.5 305.25Q248.0 298.5 247.0 292.0Q246.0 288.5 245.0 284.75Q244.0 281.0 243.0 277.0L244.5 275.0L258.5 292.0Q271.0 306.0 292.75 315.25Q314.5 324.5 338.5 324.5Q353.0 324.5 367.25 319.0Q381.5 313.5 407.5 297.0Q425.5 286.0 435.0 279.75Q444.5 273.5 448.0 269.25Q451.5 265.0 451.5 260.5Q451.5 259.5 451.25 258.5Q451.0 257.5 451.0 256.0Q450.5 254.5 450.25 252.75Q450.0 251.0 450.0 250.0Q450.0 239.5 455.0 239.5Q461.0 239.5 477.0 256.5Q489.0 269.5 502.75 276.5Q516.5 283.5 538.0 286.25Q559.5 289.0 594.5 289.0Q601.5 289.0 609.25 288.75Q617.0 288.5 625.0 288.5L709.5 287.0L713.0 174.0H639.5Q614.5 174.0 598.5 174.5Q582.5 175.0 571.5 176.25Q560.5 177.5 551.25 180.25Q542.0 183.0 530.5 188.0Q516.0 194.0 500.0 202.0Q484.0 210.0 476.0 216.0Q469.0 222.5 461.75 226.75Q454.5 231.0 453.5 231.0Q450.0 231.0 450.0 219.0Q450.0 216.5 450.25 213.5Q450.5 210.5 451.0 208.0Q451.5 205.0 451.5 202.5Q451.5 200.0 451.5 198.5Q451.5 190.0 444.5 183.75Q437.5 177.5 417.0 162.0Q380.5 135.5 356.75 123.5Q333.0 111.5 314.0 111.5Q299.0 111.5 285.0 119.5Q277.5 123.0 270.0 123.0Q261.0 123.0 261.0 118.0Q261.0 112.5 269.0 109.0Q273.5 106.5 284.25 96.75Q295.0 87.0 308.5 74.25Q322.0 61.5 334.5 49.0Q347.0 36.5 354.0 28.0Z" fill="black" /></svg>