<svg xmlns="http://www.w3.org/2000/svg" width="334.5" height="380.0" viewBox="0 0 334.5 380.0"><path d="M71.5 330.0Q68.0 328.5 59.25 324.5Q50.5 320.5 41.5 316.0L21.0 304.5V328.0Q21.0 340.5 22.25 345.5Q23.5 350.5 26.0 350.5Q28.5 350.5 31.0 350.25Q33.5 350.0 34.5 348.5Q36.5 346.5 43.5 343.5Q50.5 340.5 59.5 337.5Q75.0 331.5 75.0 331.0Q75.0 331.0 74.25 330.75Q73.5 330.5 71.5 330.0ZM178.0 252.5V227.5H159.5Q148.0 228.0 133.75 231.25Q119.5 234.5 106.75 239.75Q94.0 245.0 86.0 251.5Q80.5 256.0 78.5 259.25Q76.5 262.5 76.5 270.5Q76.5 274.0 76.75 278.5Q77.0 283.0 77.5 290.0L81.5 319.5H184.0L181.0 300.0Q180.0 291.5 179.0 277.5Q178.0 263.5 178.0 252.5ZM273.5 319.5 272.0 273.0Q271.5 252.5 270.25 239.0Q269.0 225.5 267.0 225.5Q265.5 225.5 253.0 225.75Q240.5 226.0 225.5 227.0L188.5 227.5V256.5Q188.5 269.0 189.5 282.75Q190.5 296.5 191.5 303.5L194.5 319.5ZM75.5 84.0 53.5 72.5Q42.5 67.0 34.75 63.25Q27.0 59.5 26.0 59.5Q26.0 59.5 25.75 66.75Q25.5 74.0 25.5 84.0Q25.5 95.0 26.0 99.5Q26.5 104.0 27.0 104.0Q28.0 104.0 30.0 101.0Q37.0 93.0 43.5 93.0Q46.0 93.0 52.5 91.25Q59.0 89.5 64.5 87.5ZM79.5 122.0 86.5 109.5H50.5Q53.0 115.0 55.25 120.5Q57.5 126.0 59.5 131.5Q66.0 150.0 68.0 150.0Q69.0 150.0 69.5 146.5Q70.5 142.5 73.5 135.25Q76.5 128.0 79.5 122.0ZM89.5 211.0V210.5Q86.0 208.0 83.5 206.75Q81.0 205.5 79.0 205.5Q75.5 205.5 75.5 223.0V240.0Q81.5 237.5 87.0 235.75Q92.5 234.0 98.5 232.0Q118.0 224.5 118.0 223.5Q118.0 223.5 116.25 222.75Q114.5 222.0 111.5 221.0Q106.5 219.0 100.0 216.0Q93.5 213.0 89.5 211.0ZM154.0 110.0 144.0 87.0H122.5Q113.0 87.0 102.25 89.0Q91.5 91.0 86.0 93.5L79.0 96.5H89.5Q96.5 97.0 102.0 98.5Q107.5 100.0 107.5 102.0Q107.5 103.5 104.25 108.75Q101.0 114.0 95.5 119.5Q91.5 125.0 87.0 135.5Q82.5 146.0 79.5 157.0Q76.5 168.0 76.5 175.5Q76.5 182.5 83.0 189.0Q91.5 199.5 107.25 205.0Q123.0 210.5 149.0 213.5L178.0 216.5V200.0Q178.0 184.5 171.25 160.0Q164.5 135.5 154.0 110.0ZM200.5 100.5H181.0Q173.0 100.5 167.5 100.75Q162.0 101.0 162.0 101.0Q163.0 105.5 167.25 115.5Q171.5 125.5 176.25 134.25Q181.0 143.0 182.5 145.0Q183.0 140.5 185.5 133.0Q188.0 125.5 191.0 119.0Q193.0 115.0 194.75 111.75Q196.5 108.5 197.5 106.0Q199.0 103.5 199.75 102.0Q200.5 100.5 200.5 100.5ZM270.5 213.5 270.0 174.0Q268.5 137.0 259.5 101.0Q256.5 91.0 253.5 87.0Q250.5 83.0 239.0 83.0Q232.5 83.0 223.25 83.75Q214.0 84.5 200.5 85.5Q197.5 86.0 194.5 86.25Q191.5 86.5 187.5 87.0L183.0 87.5H186.5Q221.0 88.5 221.0 95.5Q221.0 98.5 215.5 102.5Q206.0 108.5 198.75 130.0Q191.5 151.5 191.5 178.0L190.5 213.5ZM293.0 41.5 303.5 23.0H274.0Q260.0 23.0 251.5 24.0Q243.0 25.0 243.0 26.5Q243.0 28.0 245.5 34.5Q248.0 41.0 251.5 48.0Q255.0 54.5 259.5 65.5Q264.0 76.5 266.0 85.0L271.0 101.5L275.0 84.0Q277.5 75.0 282.75 62.25Q288.0 49.5 293.0 41.5ZM223.0 12.5Q223.0 11.0 229.0 10.5Q235.0 10.0 244.5 10.0Q255.5 10.0 268.75 10.25Q282.0 10.5 294.5 11.0Q307.0 11.5 315.25 12.25Q323.5 13.0 324.5 13.5Q324.5 15.0 321.0 21.5Q317.5 28.0 310.5 35.0H311.0Q302.0 47.0 296.25 57.0Q290.5 67.0 287.75 81.25Q285.0 95.5 284.0 118.75Q283.0 142.0 283.0 180.5V211.0L284.0 331.5L237.0 332.5H158.5Q128.0 332.5 94.25 339.75Q60.5 347.0 33.5 361.0Q17.0 369.0 11.5 370.0Q10.0 368.5 10.0 368.0Q10.0 363.5 10.0 351.25Q10.0 339.0 10.5 324.75Q11.0 310.5 11.5 299.25Q12.0 288.0 12.5 285.0Q14.0 283.5 14.0 283.5Q15.5 283.5 19.0 285.75Q22.5 288.0 26.5 291.0Q31.5 295.5 40.25 301.25Q49.0 307.0 57.0 311.0Q65.0 315.0 68.0 315.0Q69.0 315.0 69.0 308.0Q69.0 304.0 68.5 299.0Q68.0 294.0 67.0 288.0Q66.5 280.5 65.5 268.0Q64.5 255.5 64.0 241.25Q63.5 227.0 63.5 215.0Q63.0 197.0 62.0 185.0Q61.0 173.0 58.25 163.25Q55.5 153.5 50.5 142.5Q39.5 118.5 34.0 118.5H33.0Q30.0 119.0 26.5 119.75Q23.0 120.5 20.0 121.5H18.5Q15.0 121.5 14.0 116.25Q13.0 111.0 13.0 95.5V78.5Q14.0 60.0 16.0 47.0Q18.0 34.0 19.5 34.0Q24.0 34.0 33.0 44.5H32.5Q42.5 55.0 55.0 61.0Q67.5 67.0 88.5 69.5Q109.5 72.0 144.5 73.5H170.0Q191.0 73.5 208.25 73.0Q225.5 72.5 231.5 71.0L249.5 68.0L236.5 43.5Q234.5 38.0 232.25 33.0Q230.0 28.0 228.0 24.0Q223.0 14.0 223.0 12.5Z" fill="black" /></svg>