<svg xmlns="http://www.w3.org/2000/svg" width="478.0" height="387.0" viewBox="0 0 478.0 387.0"><path d="M55.0 242.0V241.5Q53.5 241.5 51.0 245.0Q55.0 243.5 55.0 242.0ZM74.0 277.5V277.0Q74.0 275.0 70.0 275.0Q65.5 275.0 65.5 277.0V277.5Q66.5 278.5 67.5 279.75Q68.5 281.0 70.0 281.0Q73.0 281.0 74.0 277.5ZM83.0 326.0Q80.5 323.0 73.75 319.75Q67.0 316.5 60.0 314.25Q53.0 312.0 49.0 312.0Q43.5 312.0 42.0 317.5Q40.5 323.0 40.5 336.0V358.0L51.0 355.5Q53.5 354.5 57.5 354.0Q73.0 349.5 89.0 345.5Q105.0 341.5 120.5 339.5Q133.5 337.5 133.5 336.0Q133.5 333.0 110.5 331.5Q102.0 330.5 93.75 328.75Q85.5 327.0 83.0 326.0ZM99.5 310.0V309.5Q99.5 307.5 94.5 307.5Q90.5 307.5 90.5 309.5V310.0Q91.0 312.0 92.5 312.75Q94.0 313.5 94.5 313.5Q98.0 313.5 99.5 310.0ZM53.0 120.0Q53.5 119.0 53.5 118.0Q53.5 116.5 49.5 115.75Q45.5 115.0 41.0 115.0Q36.5 115.0 34.5 115.0Q28.5 116.0 28.5 118.0Q28.5 122.0 34.5 138.0L40.5 156.0L45.5 142.5Q46.5 140.0 47.25 137.5Q48.0 135.0 49.0 133.0Q50.0 129.0 51.25 125.5Q52.5 122.0 53.0 120.0ZM71.0 139.5Q71.0 134.5 67.0 134.5Q66.0 134.5 63.0 136.5Q63.0 137.0 62.75 137.5Q62.5 138.0 62.5 138.5Q62.5 140.5 64.25 142.25Q66.0 144.0 68.5 144.0Q71.0 144.0 71.0 139.5ZM71.0 157.5Q61.0 152.0 57.5 152.0Q53.0 152.0 51.0 163.0Q49.5 169.5 49.0 178.0Q48.5 186.5 48.5 196.0Q48.5 207.5 49.25 217.25Q50.0 227.0 52.0 229.0Q55.0 229.0 64.75 225.0Q74.5 221.0 85.5 215.5Q96.5 210.0 104.5 205.25Q112.5 200.5 112.5 199.0Q112.5 197.0 107.75 191.0Q103.0 185.0 96.0 178.0Q89.0 171.0 82.0 165.25Q75.0 159.5 71.0 157.5ZM157.5 216.0Q157.5 214.0 151.0 211.5Q144.5 209.0 137.25 207.0Q130.0 205.0 128.0 205.0Q125.0 205.0 116.25 209.75Q107.5 214.5 97.0 222.0Q86.5 229.5 77.25 236.75Q68.0 244.0 63.5 249.5L53.5 262.0L60.5 263.0H62.0Q67.0 263.0 74.0 261.5Q81.0 260.0 86.0 257.5Q94.0 254.0 106.0 247.75Q118.0 241.5 129.75 234.75Q141.5 228.0 149.5 222.75Q157.5 217.5 157.5 216.0ZM185.5 234.5Q181.0 231.0 176.75 228.5Q172.5 226.0 170.0 226.0Q165.5 226.0 154.5 232.0Q143.5 238.0 130.0 246.75Q116.5 255.5 104.25 264.75Q92.0 274.0 86.0 281.0H86.5Q79.5 289.0 73.75 294.0Q68.0 299.0 67.0 299.0H66.5Q66.0 298.5 64.75 296.75Q63.5 295.0 62.5 293.0Q61.5 291.5 60.5 289.75Q59.5 288.0 58.0 287.0L52.5 279.0V288.0Q52.5 295.5 56.25 299.5Q60.0 303.5 65.0 303.5Q70.0 303.5 74.5 300.5Q78.0 299.5 84.75 297.5Q91.5 295.5 97.0 294.0Q100.5 293.5 110.5 289.25Q120.5 285.0 133.5 278.75Q146.5 272.5 159.25 265.75Q172.0 259.0 181.75 253.25Q191.5 247.5 195.0 244.5Q195.0 243.5 192.25 240.75Q189.5 238.0 185.5 234.5ZM224.0 330.5V299.0Q224.0 278.0 222.25 271.0Q220.5 264.0 214.5 258.5L206.0 250.0Q196.5 256.0 186.75 261.75Q177.0 267.5 167.5 273.5Q137.0 290.5 123.75 301.0Q110.5 311.5 110.5 317.0Q110.5 320.5 126.25 322.75Q142.0 325.0 184.5 327.5ZM185.0 172.0Q187.5 165.5 188.5 159.5Q189.5 153.5 189.5 151.0Q187.0 151.0 179.0 157.5Q171.0 164.0 163.5 171.75Q156.0 179.5 154.5 183.5Q151.0 192.0 146.5 192.0Q143.0 192.0 143.0 194.5Q143.0 197.5 147.5 199.0Q150.5 200.0 154.5 202.0Q157.5 203.0 161.5 204.75Q165.5 206.5 169.0 208.0L183.0 214.0L181.0 204.0Q180.5 202.5 180.25 200.5Q180.0 198.5 180.0 196.5Q180.0 185.5 185.0 172.0ZM224.0 219.0Q224.0 207.5 222.25 193.25Q220.5 179.0 218.0 166.25Q215.5 153.5 213.0 145.25Q210.5 137.0 208.5 137.0Q199.0 161.0 195.0 173.5Q191.0 186.0 191.0 194.5Q191.0 200.5 193.75 209.5Q196.5 218.5 200.0 223.0Q201.0 223.5 204.25 227.75Q207.5 232.0 210.0 237.5Q217.0 250.0 220.0 250.0Q224.0 250.0 224.0 219.0ZM274.0 207.5Q274.0 207.0 268.75 204.5Q263.5 202.0 256.5 199.25Q249.5 196.5 244.25 194.25Q239.0 192.0 238.0 192.0Q237.5 192.0 237.5 196.0Q237.5 200.0 237.5 205.5Q237.5 210.5 237.75 214.5Q238.0 218.5 238.5 218.5Q239.0 218.5 241.75 217.5Q244.5 216.5 249.0 215.0Q254.0 213.5 260.25 211.25Q266.5 209.0 273.5 207.0ZM285.0 330.0 271.0 314.5Q264.5 307.0 256.25 298.75Q248.0 290.5 243.5 287.0L233.5 279.0L236.0 327.5L261.0 328.5ZM314.5 271.0V213.0H304.0Q297.5 213.0 284.5 215.75Q271.5 218.5 259.0 222.5Q246.5 226.5 240.5 229.5Q234.0 232.5 234.0 248.0Q234.0 254.5 236.0 259.5Q238.0 264.5 245.25 272.5Q252.5 280.5 267.5 296.0Q282.0 309.5 293.5 319.25Q305.0 329.0 308.0 329.0Q310.5 329.0 312.0 325.5Q313.5 322.0 314.0 309.75Q314.5 297.5 314.5 271.0ZM110.5 77.5Q104.5 75.0 96.0 69.75Q87.5 64.5 81.5 59.0L68.5 48.5V74.5Q68.5 86.0 69.5 95.0Q70.5 104.0 71.0 105.0Q77.0 105.0 82.0 101.5V102.0Q85.5 99.0 93.25 95.75Q101.0 92.5 108.5 90.5Q115.5 88.0 120.0 86.0Q124.5 84.0 124.5 83.5Q124.5 83.5 120.5 81.5Q116.5 79.5 110.5 77.5ZM297.5 89.5H258.0Q241.0 89.5 220.25 89.0Q199.5 88.5 186.5 88.0Q180.0 87.5 174.75 87.25Q169.5 87.0 164.5 87.0Q151.5 87.0 141.25 89.75Q131.0 92.5 111.0 101.0Q97.5 106.0 91.5 109.25Q85.5 112.5 84.25 116.0Q83.0 119.5 82.0 126.5V130.0Q82.0 139.0 85.0 145.0Q88.0 151.0 98.5 164.0Q105.5 172.0 112.0 178.25Q118.5 184.5 120.5 184.5Q123.5 184.0 133.75 177.25Q144.0 170.5 156.75 160.75Q169.5 151.0 180.75 142.0Q192.0 133.0 196.5 128.5Q201.0 123.0 201.0 119.5Q201.0 116.5 199.0 114.0Q198.0 111.0 197.0 109.5Q194.5 104.5 194.5 101.5Q194.5 99.5 202.0 98.75Q209.5 98.0 220.0 98.0Q229.5 98.0 239.75 98.5Q250.0 99.0 257.75 99.75Q265.5 100.5 266.5 102.0V103.5Q266.5 106.5 261.5 113.0Q256.5 118.5 250.75 129.25Q245.0 140.0 241.25 151.0Q237.5 162.0 237.5 168.5Q237.5 176.5 240.75 179.75Q244.0 183.0 257.0 187.5Q264.5 191.0 275.75 193.0Q287.0 195.0 294.5 195.0L312.0 196.0L311.5 166.5Q311.5 153.5 309.0 137.5Q306.5 121.5 304.0 112.0ZM248.0 112.0Q248.0 111.0 244.25 110.5Q240.5 110.0 235.0 110.0Q226.5 110.0 222.25 112.25Q218.0 114.5 218.0 121.5Q218.0 127.5 222.0 142.0L228.0 160.5Q229.5 156.0 230.75 151.25Q232.0 146.5 233.5 142.0Q236.5 132.5 239.75 125.5Q243.0 118.5 245.0 117.0V117.5Q248.0 114.5 248.0 112.0ZM339.0 30.0Q339.0 29.0 331.25 28.5Q323.5 28.0 312.5 28.0Q300.0 28.0 294.5 28.5Q289.0 29.0 289.0 33.0Q289.0 37.0 297.5 55.0Q300.0 58.5 302.75 68.25Q305.5 78.0 307.5 87.5L312.5 106.0L316.5 85.5Q319.0 75.5 323.25 64.0Q327.5 52.5 331.0 47.0Q334.5 41.5 336.75 36.5Q339.0 31.5 339.0 30.0ZM272.0 11.0Q273.0 10.0 275.0 10.0Q279.0 10.0 283.5 12.0Q286.0 14.0 298.25 15.25Q310.5 16.5 326.0 16.5Q344.5 16.5 351.75 17.0Q359.0 17.5 359.0 20.5Q359.0 22.0 358.0 23.25Q357.0 24.5 355.5 26.5Q353.0 29.5 347.75 38.5Q342.5 47.5 338.0 57.0Q334.0 66.0 331.75 72.75Q329.5 79.5 328.0 87.5Q326.5 95.5 326.0 107.75Q325.5 120.0 325.5 140.0L324.0 197.5H395.0Q429.5 197.5 448.75 199.25Q468.0 201.0 468.0 203.5Q468.0 205.5 449.0 207.0Q430.0 208.5 396.0 208.5H324.5V328.5L357.5 330.5Q371.0 331.5 390.0 332.5Q409.0 333.5 421.0 333.5Q434.0 333.5 443.0 334.75Q452.0 336.0 452.0 338.0Q452.0 340.0 427.0 341.0Q402.0 342.0 363.5 342.0H316.0Q296.0 341.5 279.0 341.5Q262.0 341.5 248.0 341.5Q219.5 341.5 200.5 342.0Q181.5 342.5 168.25 343.5Q155.0 344.5 143.0 346.5Q116.5 351.5 92.25 357.0Q68.0 362.5 51.75 367.25Q35.5 372.0 32.0 375.0Q30.5 375.5 29.75 376.25Q29.0 377.0 28.0 377.0Q26.0 377.0 26.0 373.0Q26.0 369.5 27.5 361.5Q28.5 354.5 29.0 341.75Q29.5 329.0 29.5 317.0Q29.5 299.5 31.0 293.75Q32.5 288.0 37.5 288.0Q41.5 288.0 42.0 285.0Q41.5 283.0 41.25 280.5Q41.0 278.0 40.0 274.5Q39.5 268.5 37.0 261.25Q34.5 254.0 32.0 250.5Q26.5 240.5 26.5 236.5Q26.5 230.5 33.5 230.5Q36.0 230.5 37.25 228.75Q38.5 227.0 38.5 220.5Q38.5 189.0 30.75 164.0Q23.0 139.0 10.0 110.5V109.0Q10.0 106.5 13.0 105.0Q16.0 103.5 24.0 103.5Q26.0 103.5 28.5 103.75Q31.0 104.0 33.5 104.0L56.5 105.5L58.0 68.0Q58.0 64.0 58.25 60.75Q58.5 57.5 58.5 55.0Q59.5 43.5 60.0 36.0Q60.5 28.5 61.0 28.5Q62.0 28.5 67.25 33.0Q72.5 37.5 78.5 44.0Q85.0 50.5 93.25 56.0Q101.5 61.5 107.0 64.0Q112.5 67.0 127.75 69.75Q143.0 72.5 164.0 74.5Q185.0 76.5 207.25 77.5Q229.5 78.5 248.5 78.5Q268.0 78.5 280.75 77.5Q293.5 76.5 293.5 74.5Q293.5 72.0 290.25 62.75Q287.0 53.5 282.0 42.5Q277.5 32.5 274.5 24.25Q271.5 16.0 271.5 13.0Q271.5 12.5 271.75 12.0Q272.0 11.5 272.0 11.0Z" fill="black" /></svg>