<svg xmlns="http://www.w3.org/2000/svg" width="545.0" height="261.0" viewBox="0 0 545.0 261.0"><path d="M73.0 144.5 62.5 139.0Q57.5 136.5 50.75 129.75Q44.0 123.0 40.0 117.5L32.5 105.5L30.0 133.0Q29.0 145.5 27.5 158.25Q26.0 171.0 25.0 176.5L23.0 186.0L35.5 175.0Q42.0 169.5 50.0 162.75Q58.0 156.0 63.0 152.5ZM208.0 95.0Q211.0 90.0 213.5 86.0Q216.0 82.0 217.0 80.0Q213.5 82.5 204.0 91.0Q194.5 99.5 182.5 110.0L149.0 140.5L166.5 143.0Q178.5 144.5 189.5 144.5Q190.5 143.0 192.0 138.25Q193.5 133.5 194.0 128.5Q195.0 122.0 199.0 112.25Q203.0 102.5 208.0 95.0ZM248.0 118.5Q246.0 114.0 244.5 114.0Q241.5 114.0 239.5 122.25Q237.5 130.5 236.5 139.75Q235.5 149.0 235.5 153.0Q237.0 152.5 240.5 151.25Q244.0 150.0 249.0 148.0Q251.5 147.0 254.0 146.0Q256.5 145.0 259.0 144.0L280.0 135.5L267.5 130.5Q261.0 128.0 255.25 124.25Q249.5 120.5 248.0 118.5ZM394.5 173.0Q397.5 173.0 400.5 167.5Q403.5 162.0 405.25 155.5Q407.0 149.0 407.0 146.5Q407.0 146.5 401.25 150.0Q395.5 153.5 388.5 157.5L372.0 166.0L384.0 170.0Q391.5 173.0 394.5 173.0ZM461.5 91.5Q466.5 79.0 470.5 75.0Q469.0 75.5 462.0 81.0Q455.0 86.5 446.25 93.5Q437.5 100.5 431.0 106.5Q424.5 112.5 424.5 113.5V114.0Q424.5 115.5 430.0 115.5Q433.5 115.5 439.0 116.5Q444.5 117.5 449.0 118.5Q453.0 120.0 455.0 120.0Q456.5 120.0 456.5 119.0Q456.5 118.5 456.25 117.75Q456.0 117.0 456.0 116.5Q455.5 116.0 455.5 112.5Q455.5 104.5 461.5 91.5ZM259.0 15.5Q259.0 10.0 264.5 10.0Q269.5 10.0 269.5 16.0Q269.5 19.5 267.0 25.5Q264.5 31.5 259.0 38.0Q245.5 54.0 233.0 75.0Q220.5 96.0 212.5 114.5Q204.5 133.0 204.5 142.0Q204.5 146.5 207.0 146.5Q210.5 146.5 210.5 150.0Q210.5 152.5 208.5 156.5V156.0Q207.5 157.5 207.5 160.0Q207.5 163.0 212.0 169.0Q216.5 175.0 227.0 186.5Q236.5 196.0 245.0 207.0Q253.5 218.0 258.75 226.5Q264.0 235.0 264.0 238.5Q264.0 241.5 261.5 241.5Q261.5 241.5 261.25 241.25Q261.0 241.0 260.0 241.0H260.5Q258.5 240.5 252.0 233.0Q245.5 225.5 237.5 216.0Q216.5 189.0 192.0 171.25Q167.5 153.5 133.0 150.0Q126.5 149.0 120.5 148.25Q114.5 147.5 110.5 147.0Q109.5 147.0 108.25 146.75Q107.0 146.5 106.0 146.5Q92.0 146.5 74.0 158.5Q56.0 170.5 34.0 193.5Q26.0 202.0 19.25 208.0Q12.5 214.0 11.5 214.0Q10.0 213.0 10.0 210.0Q10.0 207.0 10.75 200.75Q11.5 194.5 13.0 188.0Q14.5 178.5 16.5 158.5Q18.5 138.5 19.5 119.0Q21.0 99.5 23.25 85.5Q25.5 71.5 27.5 71.5Q29.0 71.5 31.75 76.25Q34.5 81.0 36.5 88.0Q39.0 94.5 44.75 103.25Q50.5 112.0 56.0 118.0Q63.5 125.5 68.0 128.75Q72.5 132.0 80.25 132.5Q88.0 133.0 105.0 133.0H140.0Q146.5 127.5 160.25 115.25Q174.0 103.0 190.75 87.75Q207.5 72.5 223.25 57.5Q239.0 42.5 249.0 31.0Q259.0 19.5 259.0 15.5ZM490.5 39.5Q494.5 32.0 500.5 32.0Q506.0 32.0 506.0 35.5Q506.0 37.5 502.0 44.5Q488.0 65.0 478.0 82.75Q468.0 100.5 467.5 104.5Q467.0 105.5 467.0 109.0Q467.0 129.0 493.0 149.0Q511.0 161.5 523.0 174.0Q535.0 186.5 535.0 191.5Q535.0 193.5 533.5 195.0V194.5Q533.5 194.5 532.5 195.5Q526.5 194.5 516.5 183.5Q513.5 180.0 502.5 171.25Q491.5 162.5 478.0 152.75Q464.5 143.0 453.25 136.0Q442.0 129.0 438.5 129.0Q438.5 129.0 439.5 132.0Q440.0 133.0 440.0 135.0Q440.0 140.5 432.0 140.5Q423.0 140.5 417.5 154.0Q412.5 162.5 412.5 170.5Q412.5 181.5 420.0 181.5Q425.5 181.5 425.5 186.5Q425.5 192.0 428.0 194.75Q430.5 197.5 435.5 200.5Q447.5 207.0 460.5 217.25Q473.5 227.5 482.5 236.5Q491.5 245.5 491.5 248.5V249.5Q491.0 251.0 489.5 251.0Q487.5 251.0 480.25 246.5Q473.0 242.0 465.0 235.5Q410.5 192.0 365.5 177.5L334.0 166.0L354.5 160.0Q361.5 157.5 370.25 153.5Q379.0 149.5 384.5 146.0L393.5 140.5H350.0Q325.5 140.5 309.0 142.5Q292.5 144.5 278.25 149.25Q264.0 154.0 246.5 163.0Q239.0 166.5 234.25 168.5Q229.5 170.5 227.0 170.5Q222.5 170.5 222.5 164.0Q222.5 161.5 223.25 158.25Q224.0 155.0 224.5 151.0Q225.5 143.5 226.75 131.75Q228.0 120.0 228.5 111.0Q228.5 101.0 230.25 95.0Q232.0 89.0 234.5 89.0Q237.5 89.0 240.5 96.5Q241.5 98.5 247.75 103.5Q254.0 108.5 262.0 113.5Q271.0 118.5 279.0 121.25Q287.0 124.0 301.5 125.0Q316.0 126.0 345.0 127.5Q355.5 128.0 365.25 128.25Q375.0 128.5 383.5 128.5Q411.0 128.5 416.0 126.5L419.0 125.0Q419.0 125.0 416.25 124.25Q413.5 123.5 407.5 123.0L385.0 120.0L403.0 110.0Q408.5 107.0 418.5 99.75Q428.5 92.5 440.5 83.25Q452.5 74.0 463.5 64.75Q474.5 55.5 482.0 48.5Q489.5 41.5 490.5 39.5Z" fill="black" /></svg>