<svg xmlns="http://www.w3.org/2000/svg" width="892.0" height="461.0" viewBox="0 0 892.0 461.0"><path d="M124.5 353.5 149.0 351.5Q130.5 343.0 113.0 332.25Q95.5 321.5 80.5 306.5L60.5 287.0L46.5 326.0Q41.5 340.0 38.0 350.5Q34.5 361.0 34.0 365.5H36.0Q47.5 365.5 60.75 363.5Q74.0 361.5 85.5 359.5Q95.0 358.5 105.5 356.5Q116.0 354.5 124.5 353.5ZM208.0 290.5 221.5 287.0 206.0 262.0 198.5 275.0Q196.0 280.0 194.0 284.75Q192.0 289.5 191.5 292.0Q199.0 292.0 208.0 290.5ZM453.0 321.5Q445.0 320.5 432.0 316.5Q419.0 312.5 410.0 308.0L390.0 299.0V322.5Q390.0 335.0 391.25 340.75Q392.5 346.5 398.5 346.5Q402.5 346.5 408.75 344.25Q415.0 342.0 424.5 339.0Q434.5 336.5 444.75 334.0Q455.0 331.5 460.5 331.5Q471.0 331.5 471.0 330.5Q471.0 324.5 453.0 321.5ZM240.0 231.5 254.0 229.0 238.5 207.0 229.0 221.0Q226.5 225.5 224.25 228.75Q222.0 232.0 222.0 233.5Q222.0 233.5 222.75 233.75Q223.5 234.0 225.5 234.0Q228.0 234.0 231.5 233.25Q235.0 232.5 240.0 231.5ZM337.0 189.0Q324.5 183.5 306.0 180.5Q287.5 177.5 273.0 177.5Q265.0 177.5 259.25 178.25Q253.5 179.0 252.0 181.5Q248.5 184.0 248.5 189.5Q248.5 194.0 251.25 199.75Q254.0 205.5 258.0 212.5Q261.0 216.0 271.5 221.5Q282.0 227.0 296.5 233.0Q311.0 239.0 325.75 244.5Q340.5 250.0 352.5 253.5Q364.5 257.0 369.5 257.0Q370.0 256.0 370.0 252.0Q370.0 242.5 368.5 226.0L364.5 199.0Q358.0 196.5 351.0 194.0Q344.0 191.5 337.0 189.0ZM143.5 83.0Q137.5 80.5 128.25 73.75Q119.0 67.0 112.0 60.5L96.5 45.5L93.0 81.5Q92.5 90.0 91.75 96.75Q91.0 103.5 91.0 108.5Q91.0 121.0 95.0 121.0Q96.0 121.0 97.75 119.75Q99.5 118.5 102.0 117.0Q104.5 113.5 114.5 108.25Q124.5 103.0 134.5 97.5L156.0 87.0Q153.5 86.0 150.25 85.0Q147.0 84.0 143.5 83.0ZM177.0 153.0Q177.0 152.0 173.75 151.25Q170.5 150.5 165.5 150.5Q153.5 150.5 153.5 151.0Q153.5 153.5 156.5 160.25Q159.5 167.0 163.25 172.75Q167.0 178.5 169.0 178.5Q171.5 178.5 174.25 169.0Q177.0 159.5 177.0 153.0ZM273.0 162.5Q278.5 161.0 278.5 159.5Q278.5 157.5 275.0 150.0V150.5L269.5 139.5L264.0 149.5V149.0Q262.0 152.5 261.0 155.25Q260.0 158.0 260.0 159.5Q260.0 163.0 266.5 163.0Q268.0 163.0 269.5 162.75Q271.0 162.5 273.0 162.5ZM401.5 58.5Q402.0 57.0 402.5 56.0Q403.0 55.0 403.0 55.0Q403.0 53.0 394.5 53.0Q390.5 53.0 383.0 53.5Q375.5 54.0 364.0 55.0Q357.0 56.0 354.0 56.5Q351.0 57.0 351.0 59.0Q351.0 62.0 356.0 71.5Q358.5 78.5 362.25 92.5Q366.0 106.5 369.0 119.0L374.0 145.0L385.5 108.5Q388.0 101.0 390.5 94.0Q393.0 87.0 394.5 80.0Q397.5 72.0 399.25 66.25Q401.0 60.5 401.5 58.5ZM414.0 173.5Q414.0 167.0 410.0 167.0Q409.0 167.0 407.5 168.0Q406.0 169.0 406.0 169.5Q406.0 173.5 410.5 176.0Q410.5 177.0 412.0 177.0Q414.0 177.0 414.0 173.5ZM450.5 157.5Q450.5 155.0 449.25 152.75Q448.0 150.5 446.5 150.5Q445.5 150.5 443.75 152.75Q442.0 155.0 442.0 157.5Q442.0 159.5 443.75 161.5Q445.5 163.5 446.5 163.5Q450.5 163.5 450.5 157.5ZM454.0 188.5H453.5Q446.5 180.0 439.25 174.75Q432.0 169.5 428.5 169.5Q426.0 169.5 426.0 171.0Q426.0 175.0 430.5 186.25Q435.0 197.5 441.5 210.5Q448.0 223.5 453.5 233.0Q459.0 242.5 461.0 242.5Q463.0 242.5 466.75 240.0Q470.5 237.5 474.0 235.5Q477.0 233.0 478.75 231.25Q480.5 229.5 480.5 227.5Q480.5 225.5 473.5 215.5Q470.0 208.5 464.5 200.75Q459.0 193.0 454.0 188.5ZM412.0 199.0H411.0Q406.0 192.5 399.75 187.25Q393.5 182.0 390.5 182.0Q386.5 182.0 384.5 192.75Q382.5 203.5 382.5 222.0Q382.5 228.5 382.5 235.0Q382.5 241.5 383.0 249.5L386.0 283.5Q419.0 296.5 448.5 305.75Q478.0 315.0 515.0 315.0Q526.0 315.0 532.75 314.5Q539.5 314.0 539.5 312.5Q539.5 309.5 531.5 302.75Q523.5 296.0 511.75 288.0Q500.0 280.0 488.5 274.5Q481.5 271.0 470.5 268.25Q459.5 265.5 451.0 265.5Q442.5 265.5 435.75 264.0Q429.0 262.5 429.0 259.0Q429.0 256.5 431.75 254.25Q434.5 252.0 438.0 252.0Q444.0 252.0 444.0 247.5Q444.0 233.5 412.0 199.0ZM485.0 140.5V139.5H484.5Q483.5 137.5 482.25 136.0Q481.0 134.5 480.0 134.5Q479.5 134.5 479.25 136.0Q479.0 137.5 479.0 138.5Q479.0 139.5 480.5 140.75Q482.0 142.0 483.0 142.0Q485.0 142.0 485.0 140.5ZM487.5 165.5Q477.5 150.5 467.0 150.5Q463.0 150.5 463.0 155.0Q463.0 159.0 467.0 169.75Q471.0 180.5 476.75 192.25Q482.5 204.0 487.75 212.5Q493.0 221.0 495.0 221.0Q497.5 221.0 501.5 219.5Q505.5 218.0 508.5 216.0Q510.5 214.5 511.75 213.5Q513.0 212.5 513.0 210.5Q513.0 206.0 508.0 196.75Q503.0 187.5 497.0 178.25Q491.0 169.0 487.5 165.5ZM542.0 234.0Q542.0 226.0 541.75 220.0Q541.5 214.0 541.0 214.0Q538.5 214.0 529.75 219.0Q521.0 224.0 512.75 229.75Q504.5 235.5 503.0 238.0Q498.5 246.0 488.5 246.0Q483.5 246.0 480.25 247.5Q477.0 249.0 477.0 250.0Q477.0 252.0 479.5 253.75Q482.0 255.5 485.5 257.5Q492.5 260.0 504.5 266.75Q516.5 273.5 526.5 282.0L550.5 298.5L546.5 279.5Q545.5 270.5 543.75 257.0Q542.0 243.5 542.0 234.0ZM618.5 254.5Q618.0 251.5 613.5 248.25Q609.0 245.0 606.0 243.0Q606.0 243.0 605.5 242.75Q605.0 242.5 604.5 242.5Q601.5 242.5 600.5 247.5Q599.5 252.5 599.5 264.5V286.5Q605.0 284.0 610.5 281.25Q616.0 278.5 621.0 275.5Q631.5 271.5 638.0 267.5Q644.5 263.5 644.5 262.0Q642.0 262.0 640.0 262.0Q638.0 262.0 635.5 263.0Q633.5 263.5 630.0 263.5Q622.0 263.5 618.5 254.5ZM516.0 111.5V111.0Q518.0 107.0 518.0 107.0Q518.0 106.0 516.5 106.0Q515.0 106.0 510.5 109.0Q506.5 112.0 506.5 112.0Q506.5 112.0 507.25 112.0Q508.0 112.0 509.0 112.5Q511.0 113.5 511.5 113.5Q514.0 113.5 516.0 111.5ZM550.0 186.5Q550.0 182.0 543.5 172.5Q537.0 163.0 527.75 152.75Q518.5 142.5 510.25 135.0Q502.0 127.5 498.5 127.5H498.0Q498.0 128.0 497.75 128.5Q497.5 129.0 497.5 130.0Q497.5 135.5 501.25 147.0Q505.0 158.5 510.5 170.75Q516.0 183.0 521.25 191.75Q526.5 200.5 529.0 200.5Q531.0 200.5 534.75 198.25Q538.5 196.0 542.5 194.0Q546.0 191.0 548.0 189.5Q550.0 188.0 550.0 186.5ZM581.0 155.0Q581.0 152.5 575.25 150.75Q569.5 149.0 565.0 149.0Q562.5 149.0 560.0 150.0Q557.5 151.0 557.5 154.0Q558.5 158.5 569.5 158.5Q581.0 158.5 581.0 155.0ZM802.5 166.5V167.0Q801.5 165.5 789.75 164.25Q778.0 163.0 760.0 161.75Q742.0 160.5 721.5 160.0Q701.0 159.5 683.0 159.5Q672.0 159.5 663.0 159.5Q654.0 159.5 647.0 160.5L631.0 161.5L634.5 203.0Q636.0 220.0 638.5 233.5Q641.0 247.0 642.5 249.0V248.5Q644.5 249.0 656.75 250.0Q669.0 251.0 688.0 251.5Q707.0 252.0 729.0 252.0H807.5V213.5Q807.5 196.5 805.75 183.25Q804.0 170.0 802.5 166.5ZM644.5 73.0Q642.5 73.0 637.5 72.75Q632.5 72.5 626.5 72.5H610.0Q610.0 73.0 612.5 80.5Q615.0 88.0 618.5 98.5L626.0 121.5L637.0 93.0Q642.0 79.0 644.5 73.0ZM839.0 75.0 848.0 62.0H775.0Q779.0 70.0 783.5 77.75Q788.0 85.5 791.5 93.5Q799.0 108.5 804.25 121.0Q809.5 133.5 809.5 137.5Q809.5 141.5 810.5 141.5Q812.5 141.5 815.75 134.25Q819.0 127.0 822.5 114.5Q826.5 105.5 831.0 94.25Q835.5 83.0 839.0 75.0ZM44.5 294.0Q47.5 281.0 52.0 272.0Q56.5 263.0 58.5 263.0Q61.0 263.0 63.0 265.25Q65.0 267.5 65.0 270.0Q65.0 273.5 72.25 281.25Q79.5 289.0 90.75 298.5Q102.0 308.0 113.5 316.25Q125.0 324.5 134.0 329.0Q144.0 333.0 168.5 339.75Q193.0 346.5 228.5 354.75Q264.0 363.0 307.5 372.0Q351.0 381.0 398.5 389.5Q425.0 394.5 444.0 399.75Q463.0 405.0 463.0 407.5Q463.0 409.5 462.25 410.75Q461.5 412.0 457.0 412.0Q452.0 412.0 438.5 410.0Q425.0 408.0 399.25 403.0Q373.5 398.0 330.0 389.5Q296.5 382.5 273.25 378.25Q250.0 374.0 234.0 371.5Q218.0 369.0 205.5 368.0Q193.0 367.0 180.5 367.0Q160.5 367.0 136.0 368.0Q111.5 369.0 87.75 371.25Q64.0 373.5 46.0 378.5Q34.5 381.5 25.75 383.25Q17.0 385.0 13.0 385.0Q11.0 385.0 10.0 383.0V382.5Q10.0 379.5 12.75 370.5Q15.5 361.5 20.5 352.0Q27.0 341.0 33.75 323.75Q40.5 306.5 44.5 294.0ZM83.5 38.5Q83.5 10.0 90.5 10.0Q95.0 10.0 98.0 22.0Q100.0 25.5 106.0 33.75Q112.0 42.0 121.5 49.5Q130.5 58.5 141.0 64.5Q151.5 70.5 167.75 73.75Q184.0 77.0 209.0 78.25Q234.0 79.5 271.5 79.5H344.5L337.5 65.5Q334.5 60.0 331.0 55.75Q327.5 51.5 326.0 51.5Q320.0 51.5 320.0 45.0Q320.0 40.5 335.0 40.5Q338.0 40.5 341.5 40.5Q345.0 40.5 349.0 41.0Q352.0 41.5 355.5 41.5Q359.0 41.5 362.5 41.5Q373.5 41.5 384.0 40.25Q394.5 39.0 401.0 37.5Q413.5 34.0 429.0 34.0Q430.0 36.0 430.0 37.0Q430.0 39.5 427.75 44.0Q425.5 48.5 421.5 54.5Q417.0 59.5 411.0 73.75Q405.0 88.0 399.25 105.5Q393.5 123.0 389.75 138.5Q386.0 154.0 386.0 161.0Q386.0 163.5 386.5 163.5Q388.5 163.5 393.5 160.25Q398.5 157.0 405.0 152.0Q409.5 148.5 414.25 146.0Q419.0 143.5 421.5 143.5Q423.0 143.5 423.0 144.5H424.5Q426.5 144.5 431.75 142.75Q437.0 141.0 442.0 137.5Q449.0 133.0 455.25 130.0Q461.5 127.0 463.5 127.0Q466.0 127.0 473.25 123.5Q480.5 120.0 482.5 118.0Q482.0 117.5 481.0 116.5Q480.0 115.5 477.5 114.0Q471.0 110.5 471.0 107.5Q471.0 105.5 473.0 105.5Q474.0 105.5 485.5 101.25Q497.0 97.0 511.0 92.0Q533.5 84.0 545.0 79.75Q556.5 75.5 560.5 75.5Q562.5 75.5 562.5 79.0Q562.5 81.0 558.75 85.5Q555.0 90.0 548.5 97.0Q539.0 106.5 534.5 112.0Q530.0 117.5 530.0 123.0Q530.0 128.0 532.75 132.75Q535.5 137.5 541.0 145.0Q542.0 148.5 543.5 149.75Q545.0 151.0 545.0 151.0V144.5Q545.0 132.5 552.0 132.5Q553.0 132.5 554.75 132.75Q556.5 133.0 558.5 133.5Q562.5 134.5 573.25 136.75Q584.0 139.0 594.0 140.0L616.5 143.5L613.0 123.5Q607.5 102.0 599.75 87.25Q592.0 72.5 583.0 69.0Q581.5 66.5 581.5 65.5Q581.5 61.5 621.5 58.5Q633.5 57.0 644.25 56.5Q655.0 56.0 661.5 56.0Q665.5 56.0 668.75 56.0Q672.0 56.0 672.5 57.0L673.0 58.5Q673.0 62.5 666.0 70.5Q660.5 76.5 653.5 90.0Q646.5 103.5 641.5 117.0Q636.5 130.5 636.5 137.5Q636.5 141.0 638.0 143.25Q639.5 145.5 646.75 146.25Q654.0 147.0 670.25 147.25Q686.5 147.5 716.5 147.5Q751.5 147.5 768.5 147.0Q785.5 146.5 791.25 144.75Q797.0 143.0 797.0 140.5Q797.0 135.5 792.75 125.0Q788.5 114.5 782.0 102.5Q775.5 90.5 768.75 80.5Q762.0 70.5 757.0 67.0Q752.5 63.0 748.0 59.25Q743.5 55.5 743.5 53.5Q743.5 51.0 764.25 49.75Q785.0 48.5 814.0 48.5Q849.5 48.5 865.75 49.75Q882.0 51.0 882.0 55.0Q882.0 60.0 870.5 64.0Q865.5 66.0 859.0 73.75Q852.5 81.5 847.5 90.0Q839.5 105.0 834.25 121.0Q829.0 137.0 826.0 157.5Q823.0 178.0 821.25 207.25Q819.5 236.5 818.5 278.5Q818.5 308.5 817.5 333.25Q816.5 358.0 815.0 372.75Q813.5 387.5 812.0 387.5Q810.5 387.5 808.25 374.25Q806.0 361.0 804.5 342.25Q803.0 323.5 803.0 307.0Q803.0 302.5 803.0 297.5Q803.0 292.5 803.5 289.0L804.5 269.5L746.0 267.5Q720.5 267.5 698.25 268.75Q676.0 270.0 655.5 275.75Q635.0 281.5 613.5 295.5Q605.5 300.5 598.75 304.25Q592.0 308.0 590.0 308.0Q589.0 308.0 587.75 294.75Q586.5 281.5 586.5 262.5Q586.5 243.0 588.5 229.25Q590.5 215.5 592.5 215.5Q594.0 215.5 598.75 219.0Q603.5 222.5 607.5 226.5Q611.5 231.5 614.75 233.5Q618.0 235.5 619.0 235.5Q623.0 235.5 623.0 218.5Q623.0 193.5 619.75 179.0Q616.5 164.5 610.0 164.0H609.5Q606.0 165.0 598.0 166.75Q590.0 168.5 581.5 169.5Q570.5 172.0 566.5 174.0Q562.5 176.0 562.5 179.5V181.5Q562.5 186.0 561.5 194.5Q560.5 203.0 557.5 211.0Q555.5 217.5 554.25 223.0Q553.0 228.5 553.0 234.5Q553.0 241.0 554.25 248.0Q555.5 255.0 557.5 265.0Q558.0 268.5 558.25 270.75Q558.5 273.0 559.0 275.5Q561.5 289.5 564.75 297.5Q568.0 305.5 575.5 309.25Q583.0 313.0 597.75 314.25Q612.5 315.5 638.5 315.5H680.5Q732.0 315.5 760.0 317.25Q788.0 319.0 788.0 322.5Q788.0 325.0 761.25 327.75Q734.5 330.5 685.5 330.5H583.0Q583.0 331.0 588.5 338.0Q594.0 345.0 602.0 356.0Q606.0 361.5 610.25 367.75Q614.5 374.0 619.0 380.5Q636.0 403.0 645.0 415.5Q654.0 428.0 657.75 434.0Q661.5 440.0 661.5 443.5Q661.5 446.0 659.0 451.0H658.0Q656.0 451.0 647.0 440.75Q638.0 430.5 628.5 415.5Q622.0 405.0 613.0 392.75Q604.0 380.5 595.0 369.25Q586.0 358.0 579.5 351.0L557.0 327.0L505.0 336.0Q391.0 354.0 385.0 371.5Q382.0 383.0 379.0 383.0Q375.5 383.0 373.25 368.25Q371.0 353.5 370.0 326.5L369.5 274.0Q366.0 272.5 358.0 270.0Q350.0 267.5 342.25 264.75Q334.5 262.0 331.0 261.0Q311.5 254.0 293.75 250.0Q276.0 246.0 260.0 246.0Q238.0 246.0 228.0 248.0Q218.0 250.0 218.0 255.0Q218.0 257.0 218.75 258.5Q219.5 260.0 220.5 262.5Q225.0 270.5 231.75 276.0Q238.5 281.5 254.0 287.75Q269.5 294.0 300.5 305.0Q325.5 313.0 343.25 320.75Q361.0 328.5 362.5 331.0Q362.5 335.5 358.0 335.5Q350.5 335.5 328.75 329.0Q307.0 322.5 277.5 311.5Q253.0 302.5 226.0 302.5Q206.0 302.5 190.5 307.25Q175.0 312.0 172.0 320.0L170.0 322.0Q168.5 321.5 166.0 305.75Q163.5 290.0 162.0 262.5Q159.5 213.5 153.0 187.25Q146.5 161.0 136.5 154.5Q134.0 152.0 132.0 150.0Q130.0 148.0 130.0 146.0Q130.0 137.0 165.0 137.0Q184.0 137.0 194.5 139.5Q205.0 142.0 205.0 147.5Q205.0 150.5 200.5 154.5Q189.5 161.0 181.75 186.25Q174.0 211.5 174.0 244.0V285.0Q176.5 282.0 178.75 279.25Q181.0 276.5 182.0 273.5Q187.5 268.5 191.5 262.0Q195.5 255.5 196.5 251.5Q198.0 247.5 203.75 236.0Q209.5 224.5 217.5 213.0Q224.5 202.5 229.75 193.0Q235.0 183.5 235.0 182.0V181.5Q235.0 177.5 239.75 167.0Q244.5 156.5 251.0 144.75Q257.5 133.0 263.25 124.5Q269.0 116.0 270.5 116.0Q273.5 116.0 276.75 121.5Q280.0 127.0 282.0 134.0Q285.0 143.5 291.75 149.5Q298.5 155.5 316.0 163.5Q328.5 169.0 340.0 174.5Q351.5 180.0 357.0 181.5L357.5 182.0Q359.5 182.5 361.0 183.0Q362.5 183.5 363.0 183.5Q365.5 183.5 365.5 179.0Q365.5 173.5 363.25 160.75Q361.0 148.0 356.5 125.0L349.5 93.0H178.5Q174.5 95.0 167.0 98.5Q159.5 102.0 152.25 105.25Q145.0 108.5 140.5 111.0Q125.0 119.0 110.5 127.0Q96.0 135.0 91.0 140.0Q86.5 143.5 82.0 146.75Q77.5 150.0 76.5 150.0Q75.0 150.0 74.5 148.0L75.0 149.0Q74.0 147.0 74.0 142.5Q74.0 129.5 77.0 105.0Q79.5 88.5 81.5 69.0Q83.5 49.5 83.5 38.5Z" fill="black" /></svg>