<svg xmlns="http://www.w3.org/2000/svg" width="493.0" height="380.0" viewBox="0 0 493.0 380.0"><path d="M87.0 226.0 60.5 214.0Q48.5 208.0 40.5 204.0Q32.5 200.0 31.5 200.0Q31.0 202.5 30.75 208.75Q30.5 215.0 29.5 222.0V227.5Q29.0 230.0 29.0 232.25Q29.0 234.5 29.0 236.5Q29.0 243.0 33.0 243.0Q36.0 243.0 42.25 241.25Q48.5 239.5 58.0 236.5Q60.0 235.5 62.75 234.5Q65.5 233.5 67.5 232.5ZM162.5 284.0V264.5Q161.5 261.0 161.0 261.0Q159.0 261.0 154.75 264.25Q150.5 267.5 142.0 273.5L124.5 288.5L141.0 290.0Q145.0 290.5 148.75 290.5Q152.5 290.5 154.5 290.5Q162.0 290.5 162.5 284.0ZM284.0 296.5H286.0V292.0Q286.0 289.5 285.75 286.0Q285.5 282.5 285.5 278.5L284.0 263.0L247.5 293.0L263.5 295.0Q270.0 295.5 275.5 296.0Q281.0 296.5 284.0 296.5ZM55.0 112.0Q50.0 108.5 45.75 106.25Q41.5 104.0 40.5 104.0Q40.0 104.0 39.5 110.75Q39.0 117.5 39.0 127.0Q39.0 136.0 39.75 142.75Q40.5 149.5 41.5 149.5Q42.5 149.5 46.25 148.0Q50.0 146.5 56.5 145.0Q60.5 143.0 64.75 141.75Q69.0 140.5 73.5 139.0L96.5 130.0L85.5 127.0Q78.0 124.5 69.0 120.25Q60.0 116.0 55.0 112.0ZM217.5 217.5H254.0V136.0H217.5Q197.0 136.0 188.0 137.75Q179.0 139.5 177.25 148.0Q175.5 156.5 175.5 177.0Q175.5 197.0 177.25 205.5Q179.0 214.0 188.0 215.75Q197.0 217.5 217.5 217.5ZM367.0 173.0Q367.0 173.0 366.75 172.75Q366.5 172.5 365.5 172.5Q363.0 173.0 356.0 177.25Q349.0 181.5 340.75 187.0Q332.5 192.5 326.75 197.25Q321.0 202.0 321.0 203.0Q320.5 203.5 327.25 205.0Q334.0 206.5 342.25 207.75Q350.5 209.0 354.5 209.0H355.0Q355.0 209.0 355.5 205.75Q356.0 202.5 356.5 199.0Q357.5 193.0 359.5 187.5Q361.5 182.0 363.5 180.5H362.5Q367.0 175.0 367.0 173.0ZM194.0 27.0Q192.5 26.5 185.75 26.5Q179.0 26.5 170.0 26.5H144.0Q144.0 27.0 146.25 32.5Q148.5 38.0 152.0 45.0L154.5 49.5Q155.5 51.5 158.25 58.5Q161.0 65.5 164.25 72.0Q167.5 78.5 168.0 78.5Q170.0 78.5 179.0 58.0Q184.5 46.5 188.5 38.25Q192.5 30.0 194.0 27.0ZM229.0 42.0Q226.0 36.0 223.0 31.25Q220.0 26.5 219.0 26.5Q216.0 26.5 209.75 33.5Q203.5 40.5 197.0 50.0Q190.5 59.5 187.0 67.5Q184.5 74.0 182.0 84.75Q179.5 95.5 179.5 104.0V122.5H217.0Q237.0 122.5 245.5 121.75Q254.0 121.0 254.0 119.0Q254.0 115.5 251.25 106.0Q248.5 96.5 244.5 84.5Q240.5 72.5 236.25 61.0Q232.0 49.5 229.0 42.0ZM275.5 32.0Q272.0 32.0 264.75 31.0Q257.5 30.0 250.5 29.0Q246.5 28.0 243.0 27.75Q239.5 27.5 237.0 27.5Q234.5 27.5 234.5 26.0Q234.5 27.0 237.0 33.25Q239.5 39.5 243.0 47.5Q247.0 55.5 250.5 64.0Q254.0 72.5 255.0 76.5Q255.5 78.0 256.0 78.75Q256.5 79.5 256.5 79.5Q257.5 79.5 261.0 68.0Q263.0 61.5 267.25 52.75Q271.5 44.0 275.0 39.0Q280.0 33.5 280.0 31.0Q280.0 32.0 275.5 32.0ZM391.5 122.5 402.0 101.5V101.0Q406.5 93.0 408.0 90.25Q409.5 87.5 409.5 87.5Q403.5 90.5 393.0 97.0Q382.5 103.5 374.0 109.25Q365.5 115.0 365.5 116.0Q365.5 116.5 370.75 118.0Q376.0 119.5 382.25 120.75Q388.5 122.0 391.5 122.5ZM127.0 12.5H126.0Q128.5 10.0 132.0 10.0Q133.0 10.0 134.75 10.0Q136.5 10.0 138.0 11.0H137.5Q139.5 11.0 151.5 11.75Q163.5 12.5 182.5 13.0Q201.5 13.5 223.0 14.0Q266.5 14.5 284.25 16.75Q302.0 19.0 302.5 25.0Q302.0 27.0 300.0 30.0Q298.0 33.0 294.0 35.5Q288.5 40.5 282.75 51.25Q277.0 62.0 272.75 74.75Q268.5 87.5 267.5 100.0L264.5 122.5H281.5Q304.0 122.5 304.0 130.0Q304.0 136.0 287.0 136.5L268.0 138.0L266.0 217.5H278.0Q284.0 217.5 289.0 218.75Q294.0 220.0 295.5 223.5V224.5Q295.5 231.0 281.0 231.0Q270.0 231.0 268.0 233.0Q266.0 235.0 266.0 244.5Q266.0 257.0 268.0 257.0Q271.0 257.0 283.0 246.5Q294.0 236.5 297.0 236.5Q301.0 236.5 301.0 243.0Q301.0 245.0 300.25 248.75Q299.5 252.5 298.5 258.0Q297.5 261.5 297.0 266.0Q296.5 270.5 296.5 275.0Q296.5 288.5 300.0 300.75Q303.5 313.0 310.0 318.0Q331.0 335.0 345.25 349.25Q359.5 363.5 359.5 368.0L359.0 370.0H357.5Q355.5 370.0 348.75 365.75Q342.0 361.5 333.5 354.5Q313.5 337.5 300.0 327.5Q286.5 317.5 276.5 313.0Q266.5 308.5 256.5 308.5Q251.0 308.5 245.25 309.75Q239.5 311.0 232.5 313.0Q219.0 316.0 214.0 316.0Q209.0 316.0 208.0 312.0Q208.5 306.0 229.0 291.5Q241.5 281.5 246.5 276.5Q251.5 271.5 252.75 266.0Q254.0 260.5 254.0 251.0V231.0H217.0Q199.5 231.0 191.5 231.25Q183.5 231.5 181.5 233.0Q179.5 234.5 179.5 238.5Q179.5 243.0 179.0 253.25Q178.5 263.5 176.5 273.5L174.5 296.0L209.5 329.0Q223.5 342.0 232.5 352.5Q241.5 363.0 241.5 365.5L240.5 367.0Q238.5 367.0 225.25 357.25Q212.0 347.5 196.0 333.5L158.0 302.5L130.5 304.5Q119.5 305.5 109.25 307.25Q99.0 309.0 95.5 310.5Q91.0 312.0 89.0 312.0Q86.0 312.0 86.0 309.0Q86.0 301.5 127.5 269.0Q143.5 256.5 155.0 246.0Q166.5 235.5 167.0 233.5Q167.0 231.0 145.0 231.0Q100.0 231.0 42.0 257.0Q22.5 266.0 15.5 266.0Q10.0 266.0 10.0 260.0Q10.0 258.5 11.0 256.25Q12.0 254.0 13.0 251.0Q15.5 247.0 17.0 235.25Q18.5 223.5 18.5 211.0Q18.5 196.5 19.75 186.75Q21.0 177.0 23.0 177.0Q24.0 177.0 28.75 179.75Q33.5 182.5 40.0 186.5L44.5 189.5Q57.5 198.5 69.25 203.5Q81.0 208.5 95.25 210.75Q109.5 213.0 130.5 214.0L165.5 215.5L168.5 136.0H150.5Q139.5 136.0 122.5 139.5Q105.5 143.0 86.5 149.0Q67.5 155.0 51.0 162.5Q41.5 166.5 34.5 169.5Q27.5 172.5 27.5 172.5Q26.0 172.5 26.0 164.0Q26.0 157.0 26.5 143.75Q27.0 130.5 27.75 116.5Q28.5 102.5 29.5 92.5Q30.5 82.5 31.0 81.5Q35.0 81.5 49.0 93.0Q66.5 105.5 84.5 111.75Q102.5 118.0 132.0 120.5L167.0 123.5L163.5 111.5Q159.5 93.0 151.5 72.5Q143.5 52.0 134.5 36.5Q126.0 21.0 126.0 15.5Q126.0 14.5 126.5 13.5Q127.0 12.5 127.0 12.5ZM445.0 47.5Q449.5 43.0 452.0 43.0Q455.0 43.0 455.5 46.0V47.5Q455.5 55.5 438.5 73.5Q431.5 81.5 423.75 90.75Q416.0 100.0 413.0 105.5Q408.0 112.5 408.0 115.0Q408.0 117.0 412.5 122.5Q418.5 127.5 418.5 133.0Q418.5 133.5 418.0 134.25Q417.5 135.0 417.5 135.0Q417.5 136.0 426.0 142.75Q434.5 149.5 446.5 159.0Q459.5 168.5 469.75 176.5Q480.0 184.5 481.5 186.5Q483.0 189.5 483.0 191.5Q483.0 194.5 479.5 194.5Q472.0 194.5 452.5 179.0Q450.0 177.0 443.25 172.0Q436.5 167.0 428.25 161.5Q420.0 156.0 413.0 152.0Q406.0 148.0 403.0 148.0Q399.5 148.0 397.0 152.0Q384.5 166.0 377.0 181.75Q369.5 197.5 369.5 206.5Q369.5 212.5 374.0 212.5Q379.5 212.5 379.5 223.0Q379.5 225.5 386.75 232.5Q394.0 239.5 403.5 247.5Q424.0 261.5 436.5 273.5Q449.0 285.5 449.0 290.5Q449.0 294.5 445.0 294.5Q438.0 294.5 429.0 284.0Q423.0 277.0 408.75 266.0Q394.5 255.0 377.25 244.0Q360.0 233.0 343.5 224.5Q327.0 216.0 316.0 214.5Q303.5 212.0 295.25 208.75Q287.0 205.5 287.0 203.0Q287.0 199.0 292.5 199.0Q295.0 199.0 305.5 193.25Q316.0 187.5 330.25 179.0Q344.5 170.5 358.25 161.75Q372.0 153.0 381.0 146.25Q390.0 139.5 390.0 137.5Q390.0 136.0 380.75 133.5Q371.5 131.0 360.25 129.0Q349.0 127.0 342.5 127.0Q332.0 127.0 332.0 122.0Q332.0 115.0 353.5 104.5Q364.5 99.0 379.0 90.75Q393.5 82.5 407.75 73.75Q422.0 65.0 432.5 57.75Q443.0 50.5 445.0 47.5Z" fill="black" /></svg>