<svg xmlns="http://www.w3.org/2000/svg" width="898.5" height="464.0" viewBox="0 0 898.5 464.0"><path d="M76.5 303.0Q69.5 297.0 64.25 292.5Q59.0 288.0 58.0 288.0Q58.0 288.0 55.0 295.0Q52.0 302.0 48.0 312.5Q46.0 319.0 43.75 325.25Q41.5 331.5 39.5 336.0Q38.5 340.0 37.25 343.0Q36.0 346.0 35.0 347.5Q34.5 349.5 33.75 350.5Q33.0 351.5 33.0 352.5L34.0 351.0Q37.5 351.0 45.0 349.5Q46.0 349.5 48.25 349.25Q50.5 349.0 53.5 349.0Q62.5 347.0 74.75 345.75Q87.0 344.5 99.5 344.0Q114.0 342.5 124.5 341.75Q135.0 341.0 135.0 341.0Q135.0 340.0 129.25 336.5Q123.5 333.0 115.5 330.0Q107.5 326.0 95.5 318.25Q83.5 310.5 76.5 303.0ZM196.0 273.5Q193.0 270.0 190.25 267.5Q187.5 265.0 186.5 265.0Q183.5 265.0 179.5 276.5L172.5 286.5H185.0Q201.5 286.5 201.5 283.0Q201.5 282.0 200.25 279.25Q199.0 276.5 196.0 273.5ZM399.5 340.0Q398.0 339.0 392.75 337.0Q387.5 335.0 380.0 333.0H380.5Q372.0 330.5 364.5 329.5Q357.0 328.5 353.5 328.5H353.0Q352.5 330.0 352.25 335.75Q352.0 341.5 352.0 346.5V356.0Q353.5 356.0 359.75 354.0Q366.0 352.0 374.0 349.25Q382.0 346.5 389.25 344.0Q396.5 341.5 399.5 340.0ZM163.0 167.0H153.5Q145.0 167.0 144.0 169.0Q144.0 170.5 148.25 176.5Q152.5 182.5 154.0 184.0Q155.0 183.5 155.75 182.0Q156.5 180.5 158.0 178.0V178.5Q163.0 169.5 163.0 167.0ZM221.5 220.5Q218.0 213.5 216.0 213.5Q213.5 213.5 209.5 224.0Q207.5 227.5 206.5 230.25Q205.5 233.0 205.0 234.5Q207.0 234.5 212.25 234.0Q217.5 233.5 222.5 232.25Q227.5 231.0 227.5 229.0Q227.5 226.5 221.5 220.5ZM489.5 282.5H489.0V281.5Q487.5 278.0 478.0 273.5Q475.5 271.0 473.0 271.0Q472.0 271.0 472.0 282.5Q472.0 287.5 472.5 291.75Q473.0 296.0 473.5 296.0Q477.5 296.0 483.25 290.75Q489.0 285.5 489.5 282.5ZM589.0 303.0V299.0L588.5 288.0H554.0Q526.0 288.0 509.25 294.5Q492.5 301.0 480.0 315.5Q472.0 324.0 472.0 326.5Q472.0 331.5 485.0 332.25Q498.0 333.0 530.0 333.0H539.0Q570.0 333.0 580.25 330.75Q590.5 328.5 590.5 319.0Q590.5 315.5 590.0 311.5Q589.5 307.5 589.0 303.0ZM608.0 296.0Q606.5 292.5 604.0 292.5Q602.5 292.5 602.0 298.0Q601.5 303.5 601.5 310.0Q601.5 316.5 602.25 322.75Q603.0 329.0 605.0 330.0H605.5Q611.0 330.0 621.25 326.75Q631.5 323.5 640.25 319.25Q649.0 315.0 649.0 313.0Q649.0 310.0 638.0 307.5Q627.0 305.0 618.0 304.5Q615.0 304.5 612.25 302.0Q609.5 299.5 608.0 296.0ZM99.5 78.5Q94.5 74.5 90.0 71.25Q85.5 68.0 83.0 66.5L81.0 65.0Q80.0 66.5 78.75 77.25Q77.5 88.0 77.0 100.5Q76.5 113.0 76.5 121.0V125.0Q77.5 125.0 79.75 124.0Q82.0 123.0 84.5 121.0Q87.0 118.5 95.5 114.5Q104.0 110.5 113.0 106.0Q128.0 99.0 128.0 95.0Q128.0 93.5 121.5 93.5Q119.5 93.5 112.75 89.0Q106.0 84.5 99.5 78.5ZM243.5 171.0H250.0Q250.0 168.0 248.25 163.0Q246.5 158.0 243.5 158.0Q242.0 158.0 239.25 163.0Q236.5 168.0 236.5 172.0Q236.5 171.0 243.5 171.0ZM341.5 211.5 309.5 200.0Q294.5 193.0 279.0 189.25Q263.5 185.5 250.0 185.5Q238.5 185.5 229.0 189.0Q226.5 189.5 224.25 190.0Q222.0 190.5 222.0 191.5Q222.0 193.5 224.25 197.25Q226.5 201.0 228.5 208.0Q232.5 214.5 237.75 219.25Q243.0 224.0 256.25 229.75Q269.5 235.5 296.5 246.0Q327.5 257.5 337.0 258.0Q342.0 257.5 343.0 248.0Q343.0 245.5 342.75 242.5Q342.5 239.5 342.5 236.5ZM380.5 56.0Q380.5 56.5 371.5 56.75Q362.5 57.0 349.5 57.0Q332.5 57.0 326.75 57.0Q321.0 57.0 321.0 58.0L322.0 61.0Q326.0 70.0 330.25 82.0Q334.5 94.0 338.25 106.25Q342.0 118.5 344.25 128.0Q346.5 137.5 346.5 140.5Q346.5 147.5 348.0 147.5Q350.0 147.5 352.25 141.0Q354.5 134.5 357.5 124.0Q359.5 112.5 364.0 99.0Q368.5 85.5 372.0 77.0Q380.5 58.5 380.5 56.0ZM396.0 146.5 388.5 142.0Q379.0 136.0 376.5 136.0Q374.0 136.0 374.0 148.5Q374.0 161.5 376.5 161.5Q378.5 161.5 381.25 159.25Q384.0 157.0 389.0 153.5ZM512.5 140.0Q504.0 137.5 496.0 135.0Q488.0 132.5 485.0 132.0H484.5Q482.5 132.0 481.75 135.5Q481.0 139.0 481.0 148.5Q481.0 165.5 484.0 165.5H484.5L489.5 163.5Q495.0 162.5 501.5 159.75Q508.0 157.0 514.5 154.0Q533.5 150.0 533.5 147.5Q533.5 145.5 512.5 140.0ZM468.0 169.0V153.0L444.5 153.5Q427.5 153.5 417.5 155.25Q407.5 157.0 400.5 162.0Q393.5 167.0 385.0 177.0Q378.5 185.0 372.75 189.75Q367.0 194.5 366.5 194.5Q363.5 194.5 362.5 189.5Q361.5 184.5 361.5 177.0V172.5Q359.5 177.0 358.25 192.0Q357.0 207.0 356.25 226.25Q355.5 245.5 355.5 264.0Q355.5 282.5 356.0 295.75Q356.5 309.0 357.5 310.5Q361.0 313.0 374.25 316.75Q387.5 320.5 404.75 324.25Q422.0 328.0 437.0 330.5L460.0 333.5V288.0Q460.0 237.0 466.0 237.0Q470.5 237.0 475.0 249.5Q482.0 262.0 498.25 267.75Q514.5 273.5 546.5 273.5H561.0Q586.5 273.5 589.0 269.0V270.0Q591.5 264.0 596.0 264.0Q597.0 264.0 598.5 265.25Q600.0 266.5 602.0 268.0Q603.5 268.5 605.5 269.75Q607.5 271.0 608.0 271.0Q610.5 269.5 610.5 249.5Q610.5 239.0 607.25 227.25Q604.0 215.5 599.0 205.25Q594.0 195.0 588.5 189.5Q585.0 186.5 582.5 183.75Q580.0 181.0 580.0 178.5Q581.5 171.0 618.0 171.0Q633.5 171.0 645.0 172.25Q656.5 173.5 656.5 176.5Q656.5 180.5 641.5 193.0Q631.0 202.5 626.0 220.75Q621.0 239.0 620.0 270.0Q621.0 284.0 635.0 292.25Q649.0 300.5 675.0 300.5H700.5V235.0Q700.5 207.5 699.0 186.0Q697.5 164.5 696.5 162.5Q694.5 160.0 678.75 158.5Q663.0 157.0 627.5 156.5Q599.0 156.5 582.25 157.0Q565.5 157.5 553.25 159.75Q541.0 162.0 525.5 166.5Q510.5 171.0 498.5 176.0Q486.5 181.0 485.0 183.5Q479.5 189.5 475.0 189.5Q468.0 189.5 468.0 169.0ZM625.5 185.5H613.0Q602.0 185.5 602.0 187.0Q602.0 188.0 604.25 192.0Q606.5 196.0 609.25 199.25Q612.0 202.5 613.0 202.5Q615.5 202.5 618.0 197.0Q621.0 193.5 623.25 190.5Q625.5 187.5 625.5 185.5ZM722.5 74.0H702.0Q693.0 74.0 686.75 74.75Q680.5 75.5 680.5 76.0Q680.5 78.0 683.0 84.75Q685.5 91.5 689.0 99.75Q692.5 108.0 695.25 114.0Q698.0 120.0 698.5 120.0Q699.5 120.0 702.25 115.0Q705.0 110.0 708.5 102.75Q712.0 95.5 715.0 89.25Q718.0 83.0 719.0 80.5Q720.0 78.0 721.25 76.5Q722.5 75.0 722.5 74.0ZM854.5 32.0 855.0 30.0Q855.0 29.0 849.5 29.0Q844.0 29.0 829.0 29.0Q817.0 29.0 809.0 28.75Q801.0 28.5 801.0 28.0Q801.0 28.5 804.0 35.5Q807.0 42.5 811.0 53.0Q816.0 63.5 820.0 75.25Q824.0 87.0 826.0 93.5Q827.0 98.5 828.25 102.25Q829.5 106.0 830.0 106.0Q831.0 106.0 834.0 97.0Q837.0 88.0 841.5 74.0Q845.0 61.0 849.25 48.5Q853.5 36.0 854.5 32.0ZM790.5 12.5Q795.0 11.5 810.75 10.75Q826.5 10.0 843.5 10.0H858.0Q874.0 10.0 881.25 12.0Q888.5 14.0 888.5 18.0Q888.5 21.0 884.75 25.0Q881.0 29.0 876.5 30.0Q871.5 32.5 867.0 40.75Q862.5 49.0 857.0 65.0Q850.0 85.5 845.75 107.0Q841.5 128.5 839.5 155.75Q837.5 183.0 837.5 220.5Q837.5 233.0 837.5 246.25Q837.5 259.5 838.0 274.0Q839.0 286.0 839.0 298.0Q839.0 310.0 839.0 320.0Q839.0 347.0 837.5 363.75Q836.0 380.5 834.5 380.5Q833.0 380.5 831.0 370.5Q829.0 360.5 828.5 345.5L827.0 317.5L762.0 316.0H741.0Q652.5 316.0 644.0 336.0Q640.0 341.0 635.5 344.25Q631.0 347.5 625.0 347.5Q620.0 347.5 614.0 348.75Q608.0 350.0 604.0 352.5Q602.0 353.5 599.5 354.75Q597.0 356.0 596.0 356.0Q591.5 356.0 589.0 351.0Q588.5 349.5 579.0 348.5Q569.5 347.5 549.0 347.5Q539.0 347.5 526.25 347.75Q513.5 348.0 497.5 349.0Q461.0 349.5 439.75 350.75Q418.5 352.0 406.5 354.0Q394.5 356.0 384.5 359.5Q374.0 363.0 367.5 366.5Q361.0 370.0 360.0 371.0Q361.0 371.5 368.0 373.25Q375.0 375.0 383.5 377.0Q399.0 380.0 407.5 383.25Q416.0 386.5 416.0 389.0Q416.0 392.5 409.0 392.5Q406.0 392.5 402.25 392.25Q398.5 392.0 394.0 391.0H383.5Q376.5 389.5 372.0 389.25Q367.5 389.0 363.5 389.0Q355.5 389.0 354.25 393.0Q353.0 397.0 353.0 409.0V417.5Q352.5 433.0 350.5 443.5Q348.5 454.0 345.0 454.0Q343.0 454.0 340.75 443.0Q338.5 432.0 337.5 415.0L337.0 382.0L264.5 367.0Q239.0 362.0 222.5 359.25Q206.0 356.5 193.5 355.25Q181.0 354.0 167.5 354.0Q138.5 354.0 108.25 356.0Q78.0 358.0 49.5 364.0Q37.0 366.0 28.75 368.25Q20.5 370.5 16.5 370.5Q10.0 370.5 10.0 365.0Q10.0 360.0 17.0 350.5Q25.0 339.5 32.0 321.25Q39.0 303.0 51.0 266.0L53.0 264.0Q55.0 264.0 63.25 270.0Q71.5 276.0 81.0 286.5Q95.0 300.5 107.75 309.0Q120.5 317.5 133.5 323.0Q140.0 325.0 155.5 329.0Q171.0 333.0 191.75 338.0Q212.5 343.0 234.75 347.75Q257.0 352.5 277.0 356.5Q297.0 360.5 311.5 363.0Q326.0 365.5 330.5 365.5H333.0Q336.0 365.5 337.0 362.25Q338.0 359.0 339.0 346.0Q340.0 333.0 341.0 304.5V284.5Q341.0 279.0 333.0 274.75Q325.0 270.5 298.5 261.0Q280.0 254.0 264.5 250.25Q249.0 246.5 228.5 246.5Q218.0 247.5 209.5 249.0Q201.0 250.5 200.0 251.5V252.0Q200.0 256.5 204.0 262.5Q207.0 268.0 215.0 273.5Q223.0 279.0 240.5 285.75Q258.0 292.5 288.0 303.0Q301.5 308.0 312.5 313.5Q323.5 319.0 323.5 323.0Q323.5 328.5 318.0 328.5H316.5Q285.0 316.5 264.5 309.75Q244.0 303.0 230.5 300.25Q217.0 297.5 205.0 297.5Q201.5 297.5 198.0 298.0Q194.5 298.5 190.5 298.5Q171.5 301.5 165.5 303.75Q159.5 306.0 157.5 310.0Q152.5 318.0 151.0 318.0Q149.0 318.0 146.75 310.0Q144.5 302.0 144.5 288.0Q144.5 281.5 144.75 275.0Q145.0 268.5 145.5 261.0Q145.5 255.5 146.0 250.75Q146.5 246.0 146.5 241.0Q146.5 216.0 142.25 197.0Q138.0 178.0 129.5 171.0Q121.5 165.0 121.5 161.5Q121.5 156.0 129.5 154.5Q137.5 153.0 153.5 153.0Q166.5 153.0 175.75 154.0Q185.0 155.0 185.0 157.5Q185.0 159.5 182.5 164.5Q180.0 169.5 176.0 174.0Q168.0 185.0 162.75 209.25Q157.5 233.5 157.5 257.5Q157.5 277.0 161.0 277.0Q165.5 277.0 171.5 262.0Q175.0 254.0 181.0 243.25Q187.0 232.5 192.0 225.5Q196.5 217.0 205.5 200.75Q214.5 184.5 221.5 169.0Q229.0 153.0 235.75 141.5Q242.5 130.0 244.0 130.0Q250.5 130.0 253.0 142.0Q255.0 150.5 265.5 159.5Q276.0 168.5 290.25 176.0Q304.5 183.5 317.75 188.25Q331.0 193.0 337.5 193.0Q342.5 193.0 342.5 187.0Q342.5 177.0 339.25 160.0Q336.0 143.0 330.75 124.25Q325.5 105.5 319.75 89.75Q314.0 74.0 308.5 66.5Q303.5 59.5 300.25 53.5Q297.0 47.5 297.0 46.5Q297.0 43.5 308.0 42.25Q319.0 41.0 333.0 41.0Q347.5 41.0 362.25 41.5Q377.0 42.0 387.75 43.25Q398.5 44.5 400.0 46.5V46.0Q404.0 48.5 404.0 52.0Q404.0 55.0 402.25 57.0Q400.5 59.0 398.0 62.0Q395.0 64.5 389.75 74.0Q384.5 83.5 380.0 93.25Q375.5 103.0 375.5 106.5Q375.5 109.0 377.25 111.25Q379.0 113.5 381.5 117.0Q392.5 128.5 406.5 133.25Q420.5 138.0 442.0 138.0H468.0V125.0Q468.0 106.5 474.5 106.0Q478.0 107.0 484.5 114.0Q492.0 120.0 512.75 125.75Q533.5 131.5 563.25 135.75Q593.0 140.0 627.5 142.0L691.0 145.0L688.0 134.5Q686.5 129.5 681.75 117.5Q677.0 105.5 672.0 95.0Q666.5 84.0 662.0 75.0Q657.5 66.0 657.5 65.0Q657.5 62.5 670.5 61.25Q683.5 60.0 702.0 60.0Q719.5 60.0 732.0 61.25Q744.5 62.5 744.5 65.0Q744.5 66.5 740.5 73.25Q736.5 80.0 730.0 89.5Q724.5 97.5 719.5 108.5Q714.5 119.5 713.5 126.5L711.5 143.0H740.5Q753.5 143.0 762.75 144.75Q772.0 146.5 772.0 150.5Q772.0 154.5 763.25 156.25Q754.5 158.0 741.0 158.0H731.0Q718.5 158.0 714.25 162.25Q710.0 166.5 710.0 185.5Q710.0 194.0 710.75 204.0Q711.5 214.0 711.5 227.5L714.5 303.0L770.0 304.5H825.0L826.0 267.5Q826.0 256.5 826.5 246.25Q827.0 236.0 827.0 226.0Q827.0 187.5 824.25 158.5Q821.5 129.5 817.5 110.5Q814.5 99.0 810.0 85.5Q805.5 72.0 800.25 60.0Q795.0 48.0 790.25 40.5Q785.5 33.0 783.0 33.0Q780.5 33.0 779.0 31.25Q777.5 29.5 777.5 27.5Q777.5 23.0 781.0 18.0Q784.5 13.0 790.5 12.5ZM69.0 62.0Q69.5 47.5 72.5 39.75Q75.5 32.0 77.5 32.0Q81.0 32.0 86.0 42.5Q88.0 49.0 96.25 57.5Q104.5 66.0 115.5 73.0Q126.5 80.0 136.0 82.5Q143.0 85.0 160.0 86.5Q177.0 88.0 192.5 88.0Q211.0 88.0 230.75 89.25Q250.5 90.5 267.5 92.25Q284.5 94.0 295.0 96.0Q305.5 98.0 305.5 99.5Q305.5 101.0 293.25 102.5Q281.0 104.0 260.5 104.0H230.5L157.5 101.5L126.0 116.0Q112.5 122.5 98.25 130.0Q84.0 137.5 78.5 142.0Q67.0 152.5 60.5 152.5H60.0Q60.0 152.5 59.5 150.25Q59.0 148.0 59.0 146.5Q59.0 142.5 59.75 134.75Q60.5 127.0 61.5 117.5Q63.5 109.0 64.75 97.5Q66.0 86.0 67.0 76.0Q68.0 71.5 68.25 67.75Q68.5 64.0 69.0 62.0Z" fill="black" /></svg>