<svg xmlns="http://www.w3.org/2000/svg" width="533.5" height="387.5" viewBox="0 0 533.5 387.5"><path d="M43.0 344.5 59.0 321.0Q72.0 302.0 72.0 298.0H70.5Q67.0 298.0 60.0 298.5Q53.0 299.0 46.0 300.0Q38.0 300.5 34.5 301.5Q31.0 302.5 31.0 306.5Q31.0 311.5 36.5 328.0ZM45.0 208.5Q46.0 206.0 46.75 204.0Q47.5 202.0 48.0 200.5Q48.5 199.5 49.0 198.25Q49.5 197.0 49.5 196.5H47.0Q46.0 196.5 44.25 196.5Q42.5 196.5 40.0 197.0H39.0Q33.0 197.0 33.0 199.5Q33.0 201.0 35.0 205.0Q35.5 206.0 35.75 207.0Q36.0 208.0 36.5 209.0Q38.0 216.0 40.5 216.0Q43.0 216.0 45.0 208.5ZM167.5 231.5Q157.0 231.5 146.5 235.5Q143.0 236.5 139.25 237.0Q135.5 237.5 132.5 237.5Q129.0 237.5 128.0 237.0Q127.5 236.5 126.0 236.5Q125.0 236.5 125.0 238.0Q125.0 243.0 134.0 264.0L142.0 282.0L146.5 271.5Q148.0 266.0 151.75 258.0Q155.5 250.0 160.0 245.5H159.5Q167.5 235.0 167.5 231.5ZM90.5 175.0Q88.0 170.5 84.0 162.25Q80.0 154.0 78.5 147.5L76.0 135.0Q68.5 141.5 60.25 148.0Q52.0 154.5 42.5 158.5Q43.5 158.5 44.25 158.75Q45.0 159.0 45.5 159.0Q56.0 160.0 65.75 163.75Q75.5 167.5 85.0 172.5Q87.0 173.0 88.25 173.75Q89.5 174.5 90.5 175.0ZM55.5 131.5 85.0 100.5Q83.0 101.0 78.5 101.5Q74.0 102.0 69.0 102.0Q61.5 102.0 54.0 100.5Q54.5 102.0 54.5 103.0Q54.5 104.0 55.0 105.5Q55.5 108.0 55.75 110.75Q56.0 113.5 56.0 116.5Q56.0 120.0 55.75 123.75Q55.5 127.5 55.5 131.5ZM156.5 134.5 157.0 133.0Q158.5 130.0 158.5 128.5Q158.5 128.0 154.5 128.0H152.0Q145.5 128.5 145.5 129.0Q145.5 130.5 147.0 133.5L147.5 134.5Q148.5 137.5 150.0 140.5Q150.5 143.0 151.25 145.25Q152.0 147.5 152.0 147.5L154.0 141.5Q155.0 139.5 155.5 137.5Q156.0 135.5 156.5 134.5ZM260.5 185.0Q260.5 177.5 253.5 170.75Q246.5 164.0 239.0 164.0Q235.0 164.0 235.0 178.0V186.5Q235.0 195.0 235.5 201.25Q236.0 207.5 236.5 207.5Q239.5 207.5 250.0 201.5Q255.5 199.0 258.0 194.5Q260.5 190.0 260.5 185.0ZM315.5 182.0Q307.0 179.0 298.25 178.5Q289.5 178.0 280.5 178.0Q277.0 178.0 276.25 178.5Q275.5 179.0 275.5 181.0Q275.5 185.0 276.5 187.5Q277.5 190.0 282.5 190.0Q286.0 190.0 291.0 189.0Q296.0 188.0 303.0 186.0Q315.5 182.5 315.5 182.0ZM194.5 71.0Q193.0 67.5 190.5 61.5Q188.0 55.5 186.5 50.0L181.5 37.5L168.5 48.5Q154.0 57.5 151.0 60.5Q153.5 60.0 158.5 57.75Q163.5 55.5 168.5 53.0Q175.5 50.0 178.5 50.0Q183.0 50.0 183.0 53.5Q183.0 57.5 176.0 61.0Q171.5 63.0 171.5 64.0Q171.5 65.0 176.5 67.5Q181.5 70.0 187.25 72.0Q193.0 74.0 195.0 74.0L195.5 74.5Q195.5 74.0 194.5 71.0ZM188.5 85.5Q177.5 79.5 165.5 76.0Q153.5 72.5 153.5 72.5Q152.0 73.0 144.75 76.25Q137.5 79.5 128.5 84.5Q108.5 95.0 99.75 103.5Q91.0 112.0 91.0 115.0H91.5Q93.0 115.0 93.0 118.5Q93.0 120.5 92.25 123.75Q91.5 127.0 89.5 130.5Q88.5 132.5 88.5 135.0Q88.5 141.0 93.25 151.75Q98.0 162.5 105.25 175.0Q112.5 187.5 120.25 198.5Q128.0 209.5 134.25 216.75Q140.5 224.0 143.5 224.0Q145.5 224.0 146.25 217.25Q147.0 210.5 147.0 200.5Q147.0 192.5 145.75 178.5Q144.5 164.5 141.5 150.75Q138.5 137.0 132.0 131.0Q127.0 125.0 127.0 121.0L127.5 120.0Q129.0 118.5 136.75 117.25Q144.5 116.0 154.0 115.25Q163.5 114.5 169.5 114.5Q178.5 114.5 177.0 117.5Q169.0 133.5 164.75 145.75Q160.5 158.0 159.0 170.75Q157.5 183.5 157.5 201.5V219.5Q161.0 219.5 169.5 215.75Q178.0 212.0 188.75 206.25Q199.5 200.5 208.0 195.0L225.5 181.5L224.0 163.0Q223.5 160.0 223.25 156.5Q223.0 153.0 223.0 151.0Q223.0 142.0 226.0 142.0Q231.5 142.0 231.5 147.0Q231.5 149.0 240.25 152.75Q249.0 156.5 255.0 157.0Q257.5 157.0 258.5 156.0Q258.0 152.0 250.0 142.25Q242.0 132.5 230.25 120.5Q218.5 108.5 207.25 98.75Q196.0 89.0 188.5 85.5ZM280.0 100.5 289.0 75.0H274.0Q261.0 75.0 261.0 77.0Q261.0 79.5 263.0 84.0Q263.5 86.0 264.25 89.0Q265.0 92.0 265.5 96.0Q266.5 100.5 267.0 105.0Q267.5 109.5 268.5 113.5Q269.0 117.0 269.5 122.0Q270.0 127.0 270.5 131.5Q270.5 133.5 270.75 135.25Q271.0 137.0 271.0 138.5Q272.0 131.5 274.5 120.25Q277.0 109.0 280.0 100.5ZM331.0 169.5Q331.0 166.0 330.25 154.5Q329.5 143.0 327.75 128.5Q326.0 114.0 323.5 100.25Q321.0 86.5 317.5 77.5Q314.0 68.5 309.0 68.5Q298.5 68.5 284.0 121.5L282.5 127.0Q280.0 138.0 278.5 145.25Q277.0 152.5 277.0 156.5Q277.0 163.0 282.75 164.75Q288.5 166.5 302.5 168.5Q316.0 170.0 324.5 170.0Q330.5 170.0 331.0 169.5ZM355.0 73.5 356.5 69.5Q356.0 70.0 350.5 70.0Q344.0 70.0 336.75 70.5Q329.5 71.0 328.0 72.0Q328.0 76.0 329.5 80.5V80.0Q331.0 83.0 333.0 91.75Q335.0 100.5 336.0 109.5L339.5 134.0L347.0 101.5Q349.5 93.0 351.75 85.5Q354.0 78.0 355.0 73.5ZM181.5 24.0Q187.0 18.0 191.75 14.0Q196.5 10.0 196.5 10.0Q198.0 10.0 198.0 14.0Q198.0 19.5 196.5 28.5Q196.0 31.0 195.75 33.25Q195.5 35.5 195.5 38.0Q195.5 46.0 201.0 58.0Q206.5 70.0 215.0 83.25Q223.5 96.5 232.5 107.75Q241.5 119.0 248.75 126.25Q256.0 133.5 259.0 133.5Q259.5 133.5 259.5 129.5Q259.5 123.0 257.75 112.75Q256.0 102.5 253.5 92.5Q251.0 82.5 248.0 77.5Q245.5 72.5 243.5 68.75Q241.5 65.0 241.5 63.5Q241.5 61.5 250.0 61.5Q253.5 61.0 257.5 61.0Q261.5 61.0 266.5 60.5Q276.5 60.5 295.5 60.0Q314.5 59.5 332.0 58.5Q340.5 58.0 348.5 57.75Q356.5 57.5 362.5 57.5Q376.0 57.5 376.0 60.5Q376.0 60.5 373.5 65.25Q371.0 70.0 367.5 77.0Q364.0 84.0 359.75 97.25Q355.5 110.5 351.75 125.0Q348.0 139.5 345.75 151.5Q343.5 163.5 343.5 168.5V170.0Q344.5 172.0 350.25 173.0Q356.0 174.0 373.0 174.0Q383.0 174.0 398.0 173.75Q413.0 173.5 434.5 173.0Q448.5 172.5 461.25 172.5Q474.0 172.5 485.0 172.5Q502.5 172.5 513.0 173.25Q523.5 174.0 523.5 176.0Q523.5 177.5 511.5 179.25Q499.5 181.0 479.5 182.25Q459.5 183.5 435.5 184.5Q411.5 185.5 388.0 185.5H342.0V206.5Q342.0 221.5 341.0 238.75Q340.0 256.0 338.5 271.25Q337.0 286.5 335.25 296.0Q333.5 305.5 332.0 305.5Q329.0 305.5 329.0 282.5Q329.0 267.5 330.5 246.0L333.5 189.5L320.5 191.5H321.0Q317.0 192.5 311.25 194.25Q305.5 196.0 300.0 197.5Q297.5 198.0 295.0 198.5Q292.5 199.0 290.5 200.0L274.5 204.5L272.0 252.5Q270.5 277.5 269.75 288.75Q269.0 300.0 268.0 302.75Q267.0 305.5 265.0 305.5H264.0Q262.5 305.5 261.75 298.25Q261.0 291.0 261.0 280.0Q261.0 275.0 261.25 269.0Q261.5 263.0 261.5 256.5Q262.0 248.0 262.25 241.25Q262.5 234.5 262.5 229.5Q262.5 210.5 257.0 210.5Q252.5 210.5 241.5 218.5Q235.5 222.0 232.0 223.75Q228.5 225.5 226.0 225.5Q222.5 225.5 222.5 219.5Q222.5 218.5 222.75 216.0Q223.0 213.5 223.5 210.5Q224.5 208.0 224.5 205.5Q224.5 203.0 224.5 201.0V198.5Q221.0 198.5 212.25 204.5Q203.5 210.5 194.5 218.5Q185.5 226.5 181.0 233.5Q173.0 244.0 165.75 257.25Q158.5 270.5 153.75 281.75Q149.0 293.0 149.0 298.5Q149.0 311.5 143.5 311.5Q139.5 311.5 136.5 303.5Q135.5 299.0 133.5 293.0Q131.5 287.0 130.0 282.5L126.0 273.5L111.0 280.5Q100.0 286.5 86.75 301.5Q73.5 316.5 63.0 334.5Q52.5 352.5 48.5 367.5Q46.0 377.5 43.0 377.5Q39.0 377.5 31.0 346.0Q28.5 334.5 24.0 320.75Q19.5 307.0 16.0 300.5Q10.0 287.5 10.0 283.0Q10.0 279.0 13.0 279.0Q16.5 279.0 23.0 283.5Q29.5 289.0 32.0 289.0Q35.0 289.0 35.0 269.0Q35.0 254.5 33.25 240.0Q31.5 225.5 28.25 214.5Q25.0 203.5 21.0 199.5Q15.5 195.0 15.5 191.0L16.0 190.0Q17.0 188.5 26.75 187.0Q36.5 185.5 47.75 184.25Q59.0 183.0 63.5 183.0Q66.5 183.0 66.5 185.0Q66.5 185.5 63.5 192.0Q60.5 198.5 56.0 207.0Q49.5 219.0 47.75 229.25Q46.0 239.5 46.0 259.5Q46.0 278.0 47.0 283.75Q48.0 289.5 51.0 289.5Q54.5 289.5 62.75 287.25Q71.0 285.0 81.0 281.5Q91.0 278.0 99.75 274.25Q108.5 270.5 112.5 267.5L122.0 262.0Q119.5 257.0 116.5 252.0Q113.5 247.0 111.0 242.0Q107.5 233.5 105.25 228.0Q103.0 222.5 103.0 219.5Q103.0 216.5 105.5 216.5Q107.5 216.5 112.5 220.0V219.5Q117.0 223.0 121.5 223.0Q123.5 223.0 124.0 222.5Q122.0 218.0 108.0 203.0Q92.0 187.0 72.75 178.0Q53.5 169.0 34.5 169.0Q20.0 169.0 20.0 164.0Q20.0 160.0 32.5 152.5Q39.5 148.0 41.5 144.5Q43.5 141.0 43.5 128.5V115.5Q43.5 111.0 43.25 107.5Q43.0 104.0 43.0 101.0Q43.0 82.0 47.5 81.5Q50.0 82.0 54.5 86.5Q58.5 92.0 66.5 92.0Q73.0 92.0 85.75 88.25Q98.5 84.5 112.0 79.5Q125.5 74.5 133.5 70.5Q132.0 71.0 130.5 71.0Q129.0 71.0 128.0 71.0H126.5Q125.5 70.0 125.5 68.5Q125.5 65.5 132.75 59.5Q140.0 53.5 147.5 48.5Q156.0 44.0 166.0 36.75Q176.0 29.5 181.5 24.0Z" fill="black" /></svg>