<svg xmlns="http://www.w3.org/2000/svg" width="831.5" height="456.5" viewBox="0 0 831.5 456.5"><path d="M111.0 362.5 143.5 360.5Q125.5 352.0 107.5 341.75Q89.5 331.5 76.0 317.5L58.0 300.5Q55.0 308.0 52.0 315.75Q49.0 323.5 46.5 331.0Q41.5 344.0 37.5 355.0Q33.5 366.0 32.5 369.5Q32.0 370.0 32.0 370.5Q32.0 371.0 32.0 371.0Q32.0 371.5 35.5 371.5Q41.0 371.5 50.5 370.0Q59.5 368.5 77.5 366.25Q95.5 364.0 111.0 362.5ZM216.5 300.5Q216.5 299.5 213.75 295.5Q211.0 291.5 207.0 287.0L197.5 274.5L179.0 302.0H197.0Q205.5 302.0 211.0 301.5Q216.5 301.0 216.5 300.5ZM300.0 266.5Q286.0 262.5 273.75 259.25Q261.5 256.0 257.5 256.0Q232.5 257.5 221.25 259.5Q210.0 261.5 210.0 265.5Q210.0 272.0 220.75 280.0Q231.5 288.0 247.75 296.25Q264.0 304.5 281.5 311.25Q299.0 318.0 313.0 322.25Q327.0 326.5 332.0 326.5Q335.0 326.5 336.0 323.75Q337.0 321.0 337.0 313.0V302.5L335.0 277.0Q332.0 276.0 324.75 273.75Q317.5 271.5 310.25 269.25Q303.0 267.0 300.0 266.5ZM384.5 330.5 410.5 320.0 356.0 302.5V321.5Q356.0 330.5 356.0 336.0Q356.0 341.5 356.5 342.0Q357.5 341.5 365.5 338.0Q373.5 334.5 384.5 330.5ZM143.0 94.5 130.0 89.0Q122.5 86.5 113.75 80.25Q105.0 74.0 100.0 69.0L97.0 67.5Q88.5 59.5 86.5 59.5Q86.5 59.5 86.5 61.0Q86.5 62.5 86.0 64.5Q86.0 68.0 85.0 79.25Q84.0 90.5 82.5 102.0Q81.0 116.0 81.0 122.5Q81.0 129.5 82.5 129.5Q84.5 129.5 88.5 124.5Q91.5 121.0 100.75 115.25Q110.0 109.5 120.0 104.5ZM168.0 178.0Q169.0 175.5 169.0 174.0Q169.0 172.5 169.0 172.0Q169.0 168.5 160.0 168.5Q150.5 168.5 150.5 171.0Q150.5 172.0 151.75 174.75Q153.0 177.5 153.5 181.5Q157.0 191.5 160.5 191.5Q163.0 191.5 168.0 178.0ZM246.5 245.0Q246.5 244.5 243.75 240.0Q241.0 235.5 237.0 230.0H237.5L228.0 220.0L221.5 231.5Q218.0 236.5 216.0 239.5Q214.0 242.5 214.0 244.5Q214.0 246.5 229.0 246.5Q236.0 246.5 241.25 246.0Q246.5 245.5 246.5 245.0ZM268.5 173.5Q268.5 171.5 264.0 165.0Q259.5 158.5 257.5 158.5Q254.0 158.5 251.5 165.5Q249.0 172.5 249.0 174.5Q249.0 177.5 253.5 177.5Q256.0 177.5 262.25 176.5Q268.5 175.5 268.5 173.5ZM337.5 209.0Q329.5 203.5 317.0 199.25Q304.5 195.0 291.5 192.25Q278.5 189.5 269.0 189.5Q267.0 189.5 259.25 190.25Q251.5 191.0 244.25 193.0Q237.0 195.0 237.0 198.0Q237.0 202.0 241.0 210.0Q245.0 219.5 251.5 226.0Q258.0 232.5 270.5 238.75Q283.0 245.0 305.0 253.5L337.5 266.0ZM360.5 219.5V218.0Q358.0 214.5 357.0 214.5Q356.0 214.5 356.0 220.0Q356.0 224.0 357.5 224.0Q360.0 222.5 360.25 221.25Q360.5 220.0 360.5 219.5ZM396.5 188.5 387.5 182.5Q382.5 181.0 376.0 175.5Q369.5 170.0 364.0 163.5L356.0 153.0L356.5 177.0Q358.0 205.5 368.5 205.5Q375.0 205.5 386.0 197.5ZM505.0 184.5Q501.5 183.0 495.25 177.5Q489.0 172.0 483.5 166.0H484.5L471.5 153.5V222.0L491.0 205.0Q499.5 196.5 503.0 192.0Q506.5 187.5 506.5 185.5Q506.5 184.5 505.0 184.5ZM630.5 167.0Q637.5 153.0 637.5 148.0Q636.0 148.0 634.25 149.5Q632.5 151.0 630.5 153.0Q629.5 153.5 619.75 161.25Q610.0 169.0 598.0 177.0L571.0 195.5L591.5 200.5Q603.5 202.5 610.25 203.75Q617.0 205.0 620.5 205.0Q623.5 205.0 623.5 204.0Q623.5 203.0 623.5 201.5Q623.5 200.0 623.0 199.0Q622.5 198.0 622.5 194.5Q622.5 189.5 624.75 182.0Q627.0 174.5 630.5 167.0ZM378.0 32.5Q378.0 32.0 368.25 32.0Q358.5 32.0 346.0 32.0Q328.5 32.0 322.5 32.5Q316.5 33.0 316.5 36.0Q316.5 36.5 316.75 37.75Q317.0 39.0 317.5 41.0Q318.0 43.0 319.25 46.25Q320.5 49.5 321.5 53.5Q324.0 61.0 326.75 70.5Q329.5 80.0 332.5 88.5Q340.0 117.0 345.5 117.0Q350.0 117.0 357.5 88.5Q360.0 78.5 364.0 67.0Q368.0 55.5 370.5 49.0Q373.0 43.5 375.5 38.25Q378.0 33.0 378.0 32.5ZM778.0 58.0 786.0 47.5H701.0L713.0 67.5Q718.0 76.5 724.25 92.0Q730.5 107.5 734.0 119.0Q741.0 141.0 742.5 141.0Q745.0 141.0 757.0 105.0Q761.0 90.5 767.75 76.75Q774.5 63.0 778.0 58.0ZM286.5 12.0Q286.5 10.0 289.5 10.0Q290.5 10.0 293.75 11.25Q297.0 12.5 301.0 16.5V16.0Q308.0 19.5 321.0 21.5Q334.0 23.5 358.5 23.5Q377.5 23.5 391.5 24.75Q405.5 26.0 405.5 28.5Q405.5 30.0 402.0 34.0Q398.5 38.0 393.0 42.0Q388.5 45.5 383.25 56.5Q378.0 67.5 373.0 81.75Q368.0 96.0 365.0 109.0Q362.0 122.0 362.0 130.5V136.0Q363.5 140.0 368.25 147.25Q373.0 154.5 379.5 160.5Q386.5 167.0 391.25 170.0Q396.0 173.0 403.75 173.75Q411.5 174.5 426.5 174.5H458.5V146.5Q458.5 114.5 466.5 114.5Q470.0 114.5 473.5 128.0Q474.5 133.5 480.75 142.0Q487.0 150.5 493.5 157.5Q501.5 166.0 506.5 169.5Q511.5 173.0 519.5 173.75Q527.5 174.5 544.5 174.5H579.0L623.5 143.5Q641.0 129.0 654.25 117.0Q667.5 105.0 669.5 103.0Q671.0 99.5 673.5 97.0Q676.0 94.5 678.0 94.5Q683.5 94.5 683.5 101.5Q683.5 105.0 681.5 109.75Q679.5 114.5 675.5 117.0Q670.5 122.0 663.75 132.75Q657.0 143.5 650.75 156.5Q644.5 169.5 640.25 181.25Q636.0 193.0 635.5 200.5Q636.5 204.5 638.25 207.5Q640.0 210.5 644.5 210.5Q650.5 210.5 650.5 217.0Q650.5 219.0 650.0 220.5V221.0Q650.0 228.0 671.0 241.5Q681.0 248.0 693.5 258.75Q706.0 269.5 713.5 276.5Q720.5 281.5 726.25 285.0Q732.0 288.5 734.0 288.5H734.5Q736.0 286.5 736.75 276.0Q737.5 265.5 737.5 251.5Q737.5 234.0 736.5 213.75Q735.5 193.5 734.0 175.75Q732.5 158.0 730.0 148.5Q725.0 129.0 716.25 108.0Q707.5 87.0 698.25 71.25Q689.0 55.5 682.5 52.0Q678.0 49.0 674.5 45.0Q671.0 41.0 671.0 39.0Q671.0 37.0 693.0 35.25Q715.0 33.5 746.0 33.5Q783.0 33.5 802.25 35.75Q821.5 38.0 821.5 41.5Q821.5 45.5 808.5 48.5Q798.5 51.5 787.25 70.25Q776.0 89.0 765.0 120.5Q759.0 136.5 754.5 173.25Q750.0 210.0 747.5 260.25Q745.0 310.5 745.0 368.0Q745.0 395.0 743.0 411.0Q741.0 427.0 738.5 427.0Q735.5 427.0 733.5 410.5Q731.5 394.0 731.5 366.5Q731.5 345.5 731.25 333.75Q731.0 322.0 729.75 315.75Q728.5 309.5 726.0 305.5Q723.5 301.5 718.5 296.5Q711.0 289.5 698.5 279.75Q686.0 270.0 671.75 260.0Q657.5 250.0 643.75 241.0Q630.0 232.0 620.0 226.5Q613.5 223.0 602.0 219.25Q590.5 215.5 577.75 212.0Q565.0 208.5 553.75 206.5Q542.5 204.5 536.5 204.5L534.5 203.5Q534.5 200.5 543.0 193.5L545.0 192.5Q548.0 189.5 548.0 189.5Q541.5 189.5 531.5 194.5Q521.5 199.5 511.0 206.75Q500.5 214.0 491.75 221.5Q483.0 229.0 479.0 234.0Q473.5 240.0 468.75 245.0Q464.0 250.0 462.0 250.5Q460.0 250.5 458.75 244.75Q457.5 239.0 457.5 229.5Q457.5 227.0 457.75 224.0Q458.0 221.0 458.0 218.5L458.5 189.5H440.5Q427.0 189.5 411.5 197.5Q396.0 205.5 382.0 217.5Q368.0 229.5 359.0 241.75Q350.0 254.0 350.0 263.0Q350.0 271.0 358.5 273.5Q363.5 274.0 366.75 276.75Q370.0 279.5 370.0 283.0Q370.0 286.5 368.0 287.25Q366.0 288.0 363.5 288.0Q367.5 290.0 379.0 294.25Q390.5 298.5 403.0 302.0Q413.5 305.0 424.25 307.0Q435.0 309.0 449.75 309.75Q464.5 310.5 486.75 310.75Q509.0 311.0 542.0 311.0Q572.0 311.0 596.25 312.0Q620.5 313.0 634.5 314.5Q648.5 316.0 648.5 318.0Q648.5 319.5 634.0 321.25Q619.5 323.0 595.5 324.5Q571.5 326.0 542.5 326.5Q508.0 327.5 486.0 328.5Q464.0 329.5 449.75 330.75Q435.5 332.0 425.5 334.25Q415.5 336.5 405.0 340.0Q351.0 358.5 351.0 377.5V380.5Q352.0 384.5 355.0 387.25Q358.0 390.0 367.25 392.0Q376.5 394.0 395.0 397.5Q422.0 402.5 434.25 406.5Q446.5 410.5 446.5 414.5Q446.5 417.5 445.0 419.0H442.5Q439.0 419.0 425.5 417.25Q412.0 415.5 396.0 412.0L350.0 402.5V424.0Q350.0 433.0 348.5 439.75Q347.0 446.5 344.0 446.5Q342.0 446.5 339.75 439.5Q337.5 432.5 337.5 422.5Q337.5 408.5 335.75 404.5Q334.0 400.5 327.0 399.0Q269.5 386.0 230.25 379.75Q191.0 373.5 158.5 373.5Q124.0 373.5 86.75 378.5Q49.5 383.5 15.5 393.0H13.0Q10.0 393.0 10.0 389.0Q10.0 385.0 13.0 376.25Q16.0 367.5 22.5 352.5Q28.5 339.5 35.0 323.0Q41.5 306.5 44.5 296.5L50.0 271.0L75.0 297.0Q86.5 309.5 99.25 319.0Q112.0 328.5 129.5 336.25Q147.0 344.0 172.0 350.75Q197.0 357.5 233.0 365.0Q255.5 370.0 275.75 374.5Q296.0 379.0 310.0 381.75Q324.0 384.5 327.0 385.0Q329.5 385.5 331.25 385.75Q333.0 386.0 333.5 386.0Q337.0 386.0 337.0 376.5V366.0L335.0 343.0Q303.0 332.5 271.25 323.5Q239.5 314.5 206.0 314.5Q188.5 314.5 178.25 317.5Q168.0 320.5 168.0 326.5Q168.0 331.5 166.0 333.5Q164.0 335.5 161.5 335.5Q159.5 335.5 157.0 332.75Q154.5 330.0 154.0 325.0Q154.0 321.5 154.0 306.0Q154.0 290.5 154.5 272.5Q154.5 256.5 153.75 239.5Q153.0 222.5 148.75 206.0Q144.5 189.5 134.5 177.0Q131.0 171.5 127.75 166.5Q124.5 161.5 124.5 159.5Q124.5 157.0 135.75 156.0Q147.0 155.0 161.5 155.0Q176.5 155.0 187.25 156.75Q198.0 158.5 198.0 161.5Q198.0 168.5 191.5 168.5Q190.0 168.5 185.25 174.75Q180.5 181.0 177.0 190.5Q172.5 201.0 170.75 210.75Q169.0 220.5 169.0 235.0Q169.0 239.5 169.0 244.75Q169.0 250.0 169.5 256.5L170.0 295.0L180.5 275.5Q185.5 265.5 194.5 250.25Q203.5 235.0 210.0 224.5Q217.0 214.0 221.5 205.5Q226.0 197.0 226.0 194.5Q226.0 191.5 230.75 181.0Q235.5 170.5 242.0 159.5V160.5Q255.0 133.5 264.0 133.5Q269.5 133.5 269.5 146.5Q269.5 155.0 280.5 162.5Q286.5 168.0 297.5 174.5Q308.5 181.0 319.5 185.25Q330.5 189.5 335.0 190.0H336.5Q336.5 178.5 335.0 167.75Q333.5 157.0 332.5 146.0L325.0 105.5L249.0 101.5Q228.5 100.5 214.5 99.5Q200.5 98.5 191.0 98.5Q175.0 98.5 156.5 104.75Q138.0 111.0 120.75 120.0Q103.5 129.0 90.5 138.5Q73.0 153.0 67.5 153.0Q64.0 153.0 64.0 146.0Q64.0 140.5 65.5 132.5V133.0Q67.0 124.5 69.0 106.25Q71.0 88.0 72.5 69.5Q74.0 50.5 76.5 37.0Q79.0 23.5 81.5 23.5Q86.5 23.5 86.5 30.0Q86.5 34.0 92.5 41.5Q98.5 49.0 107.75 56.75Q117.0 64.5 126.25 70.75Q135.5 77.0 142.0 78.5Q147.0 79.5 161.75 81.25Q176.5 83.0 197.75 84.75Q219.0 86.5 241.5 87.5L321.5 90.5L314.5 72.5Q311.5 62.5 306.25 51.25Q301.0 40.0 297.0 33.5Q292.5 26.5 289.5 20.5Q286.5 14.5 286.5 12.0Z" fill="black" /></svg>