<svg xmlns="http://www.w3.org/2000/svg" width="651.0" height="310.5" viewBox="0 0 651.0 310.5"><path d="M86.0 172.0 73.5 165.5Q67.0 162.0 59.0 154.25Q51.0 146.5 46.0 139.5L36.5 125.0L34.5 158.0Q32.5 173.0 30.75 188.25Q29.0 203.5 28.0 210.0L26.0 222.0L40.5 208.5Q48.5 201.5 58.25 193.75Q68.0 186.0 73.5 181.5ZM248.0 112.5Q252.0 106.5 254.75 101.5Q257.5 96.5 259.0 94.0Q255.5 97.5 243.5 107.5Q231.5 117.5 217.0 130.0L177.0 167.0L198.0 170.0Q205.0 171.0 212.0 171.5Q219.0 172.0 226.0 172.0Q227.0 170.0 228.75 164.5Q230.5 159.0 231.5 152.5Q232.5 144.5 237.25 133.0Q242.0 121.5 248.0 112.5ZM296.0 140.5Q295.0 138.0 293.5 136.75Q292.0 135.5 292.0 135.5Q289.0 135.5 287.0 141.5Q285.0 147.5 283.75 155.75Q282.5 164.0 281.75 171.5Q281.0 179.0 281.0 182.0Q285.5 181.0 297.0 176.5Q300.0 175.5 303.0 174.0Q306.0 172.5 309.0 171.5L334.5 161.0L319.5 155.0Q301.0 147.5 296.0 140.5ZM472.5 206.0Q476.0 206.0 479.5 199.5Q483.0 193.0 485.25 185.25Q487.5 177.5 487.5 174.5L464.5 187.5L444.5 197.5L459.5 202.5Q467.0 206.0 472.5 206.0ZM545.5 133.5Q545.5 128.5 548.5 119.0Q551.5 109.5 555.75 100.75Q560.0 92.0 563.5 88.5Q561.5 89.0 553.0 95.5Q544.5 102.0 534.25 110.5Q524.0 119.0 516.25 126.0Q508.5 133.0 508.5 134.5V135.5Q508.5 137.0 515.0 137.0Q519.0 137.0 525.75 138.25Q532.5 139.5 537.5 140.5Q542.0 142.0 545.0 142.0Q547.0 142.0 547.0 141.0Q547.0 140.5 546.75 139.75Q546.5 139.0 546.5 138.5Q545.5 138.0 545.5 133.5ZM309.0 16.5Q309.0 14.0 311.0 12.0Q313.0 10.0 316.0 10.0Q322.0 10.0 322.0 17.5Q322.0 22.5 319.0 29.5Q316.0 36.5 309.0 44.5Q296.5 58.5 285.0 76.75Q273.5 95.0 264.25 113.25Q255.0 131.5 249.5 146.5Q244.0 161.5 244.0 169.0Q244.0 174.5 247.0 174.5Q251.0 174.5 251.0 178.0Q251.0 181.5 248.5 186.5V186.0Q247.5 187.5 247.5 190.5Q247.5 194.0 253.0 201.5Q258.5 209.0 271.0 222.5Q282.5 234.0 292.75 247.0Q303.0 260.0 309.25 270.5Q315.5 281.0 315.5 285.0Q315.5 288.5 312.0 288.5Q312.0 288.5 311.75 288.25Q311.5 288.0 311.0 288.0Q309.0 287.0 301.0 278.0Q293.0 269.0 283.5 258.0Q258.5 225.5 229.0 204.0Q199.5 182.5 158.5 178.0Q150.5 177.0 143.25 176.25Q136.0 175.5 130.5 175.0Q129.5 175.0 128.25 174.75Q127.0 174.5 125.5 174.5Q108.5 174.5 86.75 188.75Q65.0 203.0 39.0 230.5Q29.5 241.0 21.5 248.25Q13.5 255.5 12.0 255.5Q10.0 254.0 10.0 250.5Q10.0 246.5 11.0 239.25Q12.0 232.0 14.0 224.5Q15.5 213.0 17.75 188.75Q20.0 164.5 21.5 141.0Q23.5 117.5 26.0 100.75Q28.5 84.0 31.0 84.0Q33.5 84.0 36.75 89.75Q40.0 95.5 42.0 104.0Q44.5 111.5 51.5 122.0Q58.5 132.5 65.5 140.0Q74.5 149.0 79.75 152.75Q85.0 156.5 94.25 157.25Q103.5 158.0 124.0 158.0H166.5Q173.0 152.5 185.75 141.25Q198.5 130.0 214.5 115.5Q230.5 101.0 247.0 85.5Q263.5 70.0 277.75 55.75Q292.0 41.5 300.5 31.0Q309.0 20.5 309.0 16.5ZM587.5 45.5Q589.5 42.0 592.75 39.25Q596.0 36.5 599.5 36.5Q606.0 36.5 606.0 41.0Q606.0 43.0 604.75 45.25Q603.5 47.5 601.0 52.0Q590.0 68.0 580.75 83.5Q571.5 99.0 565.75 109.75Q560.0 120.5 559.5 124.0Q559.0 124.5 559.0 126.5Q559.0 128.5 559.0 129.5Q559.0 153.0 590.5 177.5Q612.5 192.5 626.75 207.5Q641.0 222.5 641.0 228.5Q641.0 230.0 639.5 233.0V232.5Q639.5 232.5 638.0 233.5Q635.5 233.0 630.0 228.75Q624.5 224.5 619.0 218.5Q616.0 215.5 606.75 208.0Q597.5 200.5 585.0 191.25Q572.5 182.0 560.0 173.25Q547.5 164.5 538.0 159.0Q528.5 153.5 525.0 153.5Q525.0 154.0 526.5 157.0Q527.0 158.0 527.0 160.5Q527.0 167.0 517.0 167.0Q506.5 167.0 500.0 183.0Q493.5 194.0 493.5 203.0Q493.5 216.5 503.0 216.5Q509.5 216.5 509.5 222.5Q509.5 229.0 512.0 232.25Q514.5 235.5 521.0 239.0Q531.5 245.0 543.25 253.75Q555.0 262.5 565.25 271.5Q575.5 280.5 582.0 287.5Q588.5 294.5 588.5 297.0V298.0Q587.5 300.5 586.5 300.5Q584.0 300.5 575.0 295.0Q566.0 289.5 557.0 281.5Q524.5 255.0 494.75 238.0Q465.0 221.0 437.0 212.0L399.5 197.5L424.0 190.5Q432.5 187.5 443.0 182.25Q453.5 177.0 460.0 173.5L471.0 167.0H418.5Q389.0 167.0 369.25 169.25Q349.5 171.5 332.5 177.25Q315.5 183.0 294.5 194.0Q285.5 198.0 279.75 200.5Q274.0 203.0 271.0 203.0Q265.5 203.0 265.5 195.5Q265.5 191.0 268.0 180.0Q269.5 171.0 270.75 156.75Q272.0 142.5 272.5 131.5Q272.5 120.0 274.5 112.5Q276.5 105.0 280.0 105.0Q283.0 105.0 287.0 114.0Q288.5 117.0 295.75 122.75Q303.0 128.5 312.5 134.5Q321.0 139.5 328.0 142.5Q335.0 145.5 344.75 147.0Q354.5 148.5 370.5 149.5Q386.5 150.5 412.5 151.5Q425.0 152.0 436.5 152.25Q448.0 152.5 459.0 152.5Q475.0 152.5 485.5 151.75Q496.0 151.0 498.5 150.0L501.0 149.0Q501.0 149.0 498.0 148.0Q495.0 147.0 488.0 146.0L460.5 142.0L482.5 130.0Q489.0 126.5 501.25 118.0Q513.5 109.5 527.75 98.25Q542.0 87.0 555.25 76.0Q568.5 65.0 577.5 56.5Q586.5 48.0 587.5 45.5Z" fill="black" /></svg>