<svg xmlns="http://www.w3.org/2000/svg" width="465.5" height="454.0" viewBox="0 0 465.5 454.0"><path d="M81.5 325.0V325.5Q77.5 323.0 74.5 320.5Q71.5 318.0 68.5 316.0Q65.0 314.0 63.0 312.25Q61.0 310.5 60.0 310.5Q60.5 310.5 58.5 317.5Q56.5 321.5 55.0 326.0Q53.5 330.5 51.5 336.0Q49.5 344.0 47.0 352.25Q44.5 360.5 42.0 368.5Q46.0 371.5 86.5 371.5Q100.0 371.5 115.25 372.5Q130.5 373.5 144.0 374.75Q157.5 376.0 165.5 377.5Q175.0 379.5 183.0 380.5Q191.0 381.5 194.5 381.5H195.5Q185.0 378.0 169.0 371.25Q153.0 364.5 135.5 356.25Q118.0 348.0 103.5 339.75Q89.0 331.5 81.5 325.0ZM110.0 212.5 94.5 203.5Q85.0 198.0 76.0 191.75Q67.0 185.5 63.0 181.5L53.5 173.0L51.5 182.5Q49.0 196.5 47.75 206.75Q46.5 217.0 46.5 222.0Q46.5 226.5 47.0 226.5Q49.0 226.5 55.25 224.25Q61.5 222.0 68.0 219.5Q75.5 217.0 84.5 214.75Q93.5 212.5 100.0 212.5ZM184.0 210.5H183.5ZM252.0 206.0 238.0 204.0Q230.0 202.5 220.75 201.0Q211.5 199.5 204.5 198.5Q202.5 198.0 200.5 197.75Q198.5 197.5 196.0 197.5Q191.5 197.5 191.5 199.0Q191.5 201.0 198.5 209.5Q199.5 210.0 200.25 211.25Q201.0 212.5 201.5 213.5Q203.5 217.0 205.25 219.75Q207.0 222.5 207.5 225.5Q207.5 228.0 209.5 233.5Q211.5 239.0 213.5 246.0Q214.5 248.5 215.0 251.25Q215.5 254.0 216.0 257.0Q222.0 273.5 226.5 273.5Q230.5 273.5 230.5 257.5Q230.5 251.5 233.75 241.75Q237.0 232.0 242.0 224.0ZM288.0 286.0H287.5Q281.0 282.5 275.75 280.5Q270.5 278.5 267.0 278.5Q257.5 278.5 257.5 289.0Q257.5 291.0 262.0 291.0Q264.5 291.0 268.0 290.25Q271.5 289.5 276.5 289.0Q288.0 287.5 288.0 286.0ZM288.0 333.5H287.5Q275.0 326.5 267.5 326.5Q261.5 326.5 259.5 330.5Q258.0 335.0 258.0 336.5Q258.0 338.0 261.5 338.0Q263.5 338.0 267.5 337.25Q271.5 336.5 276.5 336.0Q282.5 335.0 285.25 334.25Q288.0 333.5 288.0 333.5ZM364.0 309.5 362.0 296.5H329.5Q312.0 296.5 296.5 298.5Q281.0 300.5 271.25 303.25Q261.5 306.0 261.5 309.0Q261.5 311.5 271.75 314.75Q282.0 318.0 297.0 321.0Q312.0 324.0 327.5 326.0Q343.0 328.0 353.5 328.0Q357.5 328.0 360.5 327.75Q363.5 327.5 364.5 326.0Q364.5 325.5 365.0 324.5Q365.5 323.5 365.5 322.5Q365.5 319.5 365.0 316.25Q364.5 313.0 364.0 309.5ZM109.0 69.0 101.5 64.5Q93.0 59.5 85.25 54.75Q77.5 50.0 75.0 48.0Q72.0 45.5 70.5 44.0Q69.0 42.5 68.0 42.5Q68.0 50.5 66.75 58.5Q65.5 66.5 64.0 74.0Q63.5 79.0 62.75 84.0Q62.0 89.0 62.0 92.5V94.5Q63.0 94.5 69.5 92.0Q76.0 89.5 81.5 87.5Q88.5 85.0 99.25 82.5Q110.0 80.0 117.5 80.0H128.0Q123.5 77.5 118.75 74.75Q114.0 72.0 109.0 69.0ZM243.5 69.5Q240.5 69.5 234.25 69.25Q228.0 69.0 220.0 69.0H197.0L224.0 111.5L233.5 92.5Q237.5 84.5 240.25 78.25Q243.0 72.0 243.5 69.5ZM302.5 108.0Q296.5 105.5 292.25 104.75Q288.0 104.0 285.5 104.0Q280.5 104.0 279.5 108.5Q278.5 111.5 278.5 113.5Q278.5 115.5 283.0 115.5Q285.0 115.5 288.25 115.0Q291.5 114.5 296.5 112.5Q307.0 109.5 309.0 109.0Q308.0 109.0 306.5 108.75Q305.0 108.5 302.5 108.0ZM309.5 153.5Q299.5 153.5 289.5 152.0Q288.0 151.0 285.5 151.0Q281.5 151.0 280.0 155.0Q278.5 159.0 278.5 162.5L279.5 163.5Q281.5 163.5 283.5 163.0Q285.5 162.5 288.0 162.5Q300.0 160.0 307.0 155.0Q309.0 154.0 309.5 153.5ZM403.5 216.5 379.0 214.0Q368.0 213.0 358.25 211.25Q348.5 209.5 344.5 209.0Q343.0 208.5 341.75 208.5Q340.5 208.5 339.5 208.5Q337.0 208.5 337.0 209.0Q337.0 211.0 343.5 220.0H343.0Q346.5 223.5 351.75 235.0Q357.0 246.5 360.5 260.0Q370.5 293.5 374.5 293.5Q377.0 293.5 379.5 278.5Q381.5 270.0 385.25 257.5Q389.0 245.0 394.0 236.5V237.0ZM367.5 152.0 366.0 135.5Q365.5 123.0 362.5 121.0Q359.5 119.0 347.5 118.5Q339.5 118.5 331.25 118.75Q323.0 119.0 319.0 120.0Q283.0 127.0 283.0 133.0V133.5Q284.0 137.0 302.0 141.25Q320.0 145.5 344.5 148.0ZM390.0 46.5Q384.0 46.5 374.5 45.25Q365.0 44.0 358.0 43.5L343.0 41.5L374.5 99.5L379.5 85.0Q382.5 78.0 386.75 69.25Q391.0 60.5 394.0 56.0Q399.5 50.0 399.5 47.5Q399.5 46.5 390.0 46.5ZM58.5 30.5V30.0Q62.5 10.0 66.5 10.0Q69.5 10.0 75.5 24.5Q78.5 32.5 89.0 41.25Q99.5 50.0 114.0 57.5Q128.5 65.0 143.75 69.75Q159.0 74.5 171.0 74.5H179.0L171.0 70.5Q155.5 62.5 155.5 58.0Q155.5 55.0 159.5 53.75Q163.5 52.5 169.5 52.5Q173.5 52.5 178.5 52.75Q183.5 53.0 188.5 53.5Q201.5 54.0 222.5 56.0Q243.5 58.0 259.5 59.0Q276.5 60.5 287.5 63.0Q298.5 65.5 298.5 68.0Q298.5 71.5 294.75 73.0Q291.0 74.5 286.0 74.5Q278.5 74.5 278.5 77.5Q278.5 83.5 289.25 88.0Q300.0 92.5 314.75 96.0Q329.5 99.5 342.25 101.25Q355.0 103.0 359.0 103.0Q362.5 103.0 362.5 104.0Q362.5 100.0 358.25 91.5Q354.0 83.0 348.0 73.5Q342.0 64.0 335.75 56.75Q329.5 49.5 325.5 47.5Q319.5 43.5 315.0 39.5Q310.5 35.5 310.5 32.5Q310.5 30.5 315.75 30.0Q321.0 29.5 329.5 29.5Q341.5 29.5 358.5 30.0Q375.5 30.5 392.75 31.5Q410.0 32.5 423.25 33.75Q436.5 35.0 441.0 36.5Q448.0 38.0 448.0 42.0Q448.0 45.5 442.5 47.5Q437.0 49.5 428.0 49.5Q417.0 49.5 408.25 57.75Q399.5 66.0 394.75 77.75Q390.0 89.5 390.0 100.0Q390.0 104.5 399.0 104.5Q412.5 104.5 412.5 110.0Q412.5 116.0 399.0 117.5Q391.0 118.5 388.5 121.5Q386.0 124.5 384.0 134.0V141.5Q384.0 148.0 386.25 149.25Q388.5 150.5 394.0 150.5Q410.0 150.5 410.0 157.0Q410.0 163.0 395.5 164.5Q386.5 166.0 383.5 168.75Q380.5 171.5 379.0 181.5L376.5 198.5L374.5 199.0L367.5 162.5L337.0 166.0Q324.5 167.5 310.5 170.25Q296.5 173.0 290.0 176.0Q283.5 178.0 277.5 180.25Q271.5 182.5 270.0 182.5Q268.0 182.5 267.0 173.5Q266.0 164.5 266.0 150.0Q266.0 144.5 266.0 138.5Q266.0 132.5 266.5 126.0L269.5 74.0L260.0 80.0Q248.0 87.5 242.5 102.75Q237.0 118.0 234.5 146.0Q232.5 161.5 231.0 172.0Q229.5 182.5 227.0 182.5Q225.0 182.5 223.0 173.5Q221.0 164.5 219.5 152.0Q218.0 140.5 214.75 127.75Q211.5 115.0 208.5 110.0Q204.5 102.5 200.75 99.5Q197.0 96.5 187.5 95.75Q178.0 95.0 155.5 94.5H143.5Q112.0 94.5 92.25 99.0Q72.5 103.5 64.0 114.0Q58.0 119.0 54.75 127.0Q51.5 135.0 51.5 140.0Q51.5 141.5 53.0 141.5Q59.0 141.5 59.0 152.0Q59.0 160.0 72.0 171.75Q85.0 183.5 103.0 192.5Q112.5 197.0 127.25 201.25Q142.0 205.5 157.5 208.0Q173.0 210.5 183.5 210.5Q183.5 208.5 177.0 203.0Q170.5 197.5 163.5 194.5Q159.5 192.5 159.5 190.0Q159.5 186.5 165.0 185.75Q170.5 185.0 172.5 185.0Q180.0 185.0 191.25 186.0Q202.5 187.0 215.0 188.5L228.5 189.0Q245.5 191.0 259.5 192.0Q273.5 193.0 278.5 193.0Q294.5 193.0 294.5 202.0Q294.5 209.5 289.5 209.5Q288.0 209.5 287.5 208.5V209.0Q285.0 206.0 280.0 206.0Q266.5 206.0 257.75 218.5Q249.0 231.0 243.75 250.5Q238.5 270.0 236.0 290.75Q233.5 311.5 232.75 328.75Q232.0 346.0 232.0 354.0V382.5L257.5 390.0Q300.5 401.5 330.0 409.25Q359.5 417.0 367.5 417.0Q368.5 417.0 368.5 417.5Q369.5 416.5 369.5 413.0Q369.5 409.5 369.5 404.5Q369.5 399.0 369.0 392.25Q368.5 385.5 368.5 377.5L366.0 342.5L324.5 344.5Q304.5 345.0 289.5 347.5Q274.5 350.0 267.5 353.5Q254.0 359.0 250.5 359.0H248.5Q248.0 357.0 247.25 350.0Q246.5 343.0 246.5 330.5Q246.5 310.0 248.0 272.0Q248.5 262.0 250.75 256.0Q253.0 250.0 256.0 250.0Q258.5 250.0 260.0 252.75Q261.5 255.5 261.5 258.0Q261.5 263.5 271.5 267.25Q281.5 271.0 295.75 273.25Q310.0 275.5 323.0 276.5Q336.0 277.5 342.0 277.5Q354.0 277.5 354.0 274.5Q354.0 270.0 350.25 261.0Q346.5 252.0 341.0 242.0Q335.5 232.0 329.25 223.5Q323.0 215.0 318.5 211.5Q313.0 207.5 310.0 203.25Q307.0 199.0 307.0 197.0V195.5Q308.5 194.0 315.0 194.0Q330.5 194.0 360.0 198.0Q371.5 198.5 383.25 200.0Q395.0 201.5 404.0 202.5Q412.0 203.5 417.75 204.25Q423.5 205.0 425.5 205.0Q440.0 206.5 446.25 207.25Q452.5 208.0 454.0 209.5Q455.5 211.0 455.5 214.0Q455.5 217.0 449.25 218.5Q443.0 220.0 433.0 221.0Q420.5 222.5 415.75 225.5Q411.0 228.5 404.0 240.5Q400.0 248.5 396.5 261.75Q393.0 275.0 392.0 284.5L391.5 288.0Q390.5 298.0 389.0 307.25Q387.5 316.5 386.0 320.5Q384.5 321.5 384.5 324.0Q384.5 328.5 388.5 330.5Q394.0 334.5 394.0 336.5Q394.0 339.5 389.5 342.5Q387.0 344.0 384.5 354.5Q382.0 365.0 381.0 382.5L380.0 390.0Q379.5 395.5 379.25 400.0Q379.0 404.5 379.0 408.5Q379.0 418.0 384.0 420.75Q389.0 423.5 403.5 427.5L411.0 429.0Q418.5 431.5 423.75 435.0Q429.0 438.5 429.0 440.5V442.0Q427.0 444.0 423.5 444.0Q418.0 444.0 409.5 442.0Q401.0 440.0 392.0 438.0Q373.5 433.0 344.75 427.0Q316.0 421.0 282.75 414.25Q249.5 407.5 217.0 401.75Q184.5 396.0 158.25 391.75Q132.0 387.5 118.0 386.0Q104.0 385.0 93.25 384.25Q82.5 383.5 74.0 383.5Q52.5 383.5 41.75 388.0Q31.0 392.5 24.0 403.0Q19.5 410.0 17.25 413.75Q15.0 417.5 13.5 417.5Q12.0 417.5 10.0 409.5Q10.0 402.5 11.5 396.5Q13.0 390.5 17.5 385.0Q21.5 379.5 28.75 363.5Q36.0 347.5 42.0 329.5Q59.5 279.5 65.0 279.5Q68.0 279.5 68.0 289.0Q68.0 292.0 71.75 297.5Q75.5 303.0 80.0 308.5Q84.5 313.0 98.0 320.75Q111.5 328.5 129.5 337.5Q147.5 346.5 165.25 354.5Q183.0 362.5 196.5 367.75Q210.0 373.0 214.0 373.0Q218.0 373.0 219.75 369.75Q221.5 366.5 221.5 357.0Q221.0 341.0 218.25 321.25Q215.5 301.5 211.25 282.5Q207.0 263.5 202.0 250.5L193.0 225.5H139.5Q91.0 225.5 68.25 232.75Q45.5 240.0 41.5 257.5Q39.5 264.0 36.0 268.5Q32.5 273.0 31.5 273.0Q29.0 272.0 27.75 270.0Q26.5 268.0 26.5 266.0V264.0Q28.0 260.0 30.0 248.25Q32.0 236.5 34.5 221.0Q37.0 205.5 39.0 189.75Q41.0 174.0 42.25 161.5Q43.5 149.0 43.5 143.5V142.5Q43.5 129.5 44.75 118.0Q46.0 106.5 48.0 94.0Q52.0 76.0 55.0 57.75Q58.0 39.5 58.5 30.5ZM207.0 386.5Q207.0 388.0 206.0 388.0Q205.5 388.0 205.5 386.5Q205.5 386.0 206.0 386.0Q207.0 386.0 207.0 386.5Z" fill="black" /></svg>