<svg xmlns="http://www.w3.org/2000/svg" width="1001.0" height="460.5" viewBox="0 0 1001.0 460.5"><path d="M159.5 254.5Q157.5 252.0 151.25 248.5Q145.0 245.0 142.5 244.0L128.0 234.5V272.0L144.0 262.0Q149.5 259.5 154.0 257.25Q158.5 255.0 159.5 254.5ZM160.5 255.0V255.5ZM148.5 131.5Q142.0 127.5 138.0 125.75Q134.0 124.0 132.5 124.0Q128.0 124.0 128.0 138.0Q128.0 152.5 130.5 152.5Q134.5 152.5 146.0 144.5L160.0 136.5Q157.0 135.5 154.25 134.0Q151.5 132.5 148.5 131.5ZM160.5 192.0Q160.5 188.5 153.75 185.75Q147.0 183.0 139.5 181.25Q132.0 179.5 129.5 179.5Q129.0 181.0 128.25 185.75Q127.5 190.5 127.5 195.5Q127.5 200.0 128.0 203.75Q128.5 207.5 129.0 207.5Q132.5 207.5 140.0 204.0Q147.5 200.5 154.0 196.75Q160.5 193.0 160.5 192.0ZM317.0 222.5V223.5L313.0 204.5H239.5Q210.5 204.5 193.0 205.25Q175.5 206.0 166.25 207.75Q157.0 209.5 151.5 213.5Q143.0 219.0 143.0 224.0Q143.0 231.0 156.25 235.75Q169.5 240.5 189.75 243.25Q210.0 246.0 231.0 247.25Q252.0 248.5 268.0 249.0Q284.0 249.5 288.5 249.5Q300.5 249.5 308.0 249.0Q315.5 248.5 316.5 247.5Q318.0 245.0 318.0 237.5Q318.0 234.5 317.75 230.75Q317.5 227.0 317.0 222.5ZM252.5 188.5 314.5 191.0 310.5 148.5 250.0 147.5H232.0Q203.0 147.5 186.75 148.75Q170.5 150.0 163.0 152.75Q155.5 155.5 151.5 161.0Q149.0 162.0 149.0 165.0Q149.0 173.5 177.25 180.0Q205.5 186.5 252.5 188.5ZM498.0 160.5Q490.5 156.0 479.0 149.0Q467.5 142.0 455.75 133.75Q444.0 125.5 434.5 118.5L399.5 94.0L389.5 123.5Q387.5 127.0 386.0 131.0Q384.5 135.0 383.0 139.5Q380.5 145.5 378.5 150.25Q376.5 155.0 375.0 157.0Q376.5 157.5 387.0 158.75Q397.5 160.0 412.5 160.0Q429.0 160.0 451.0 162.25Q473.0 164.5 487.5 168.5Q509.0 173.0 520.5 174.0Q517.0 171.5 511.0 167.75Q505.0 164.0 498.0 160.5ZM340.5 74.0Q341.0 72.0 341.25 70.25Q341.5 68.5 341.5 67.5Q341.5 65.0 336.5 64.5Q331.5 64.0 317.0 64.0Q295.0 64.0 295.0 66.0Q295.0 66.5 297.5 69.0Q300.5 72.5 305.75 84.25Q311.0 96.0 314.5 108.0L325.0 135.5L329.0 113.5Q330.5 108.0 332.25 102.75Q334.0 97.5 335.0 92.5Q336.5 86.5 337.75 81.5Q339.0 76.5 340.5 74.0ZM676.0 36.5Q665.5 35.5 654.25 34.0Q643.0 32.5 632.0 32.5Q618.5 32.5 616.5 35.0Q617.5 36.0 618.25 39.5Q619.0 43.0 620.5 48.0Q623.0 54.5 625.25 62.0Q627.5 69.5 630.0 76.5Q641.5 112.5 646.5 113.5Q647.0 113.0 647.0 104.5Q647.0 99.0 652.0 87.0Q657.0 75.0 662.5 63.5Q668.0 53.5 671.5 46.25Q675.0 39.0 676.0 36.5ZM87.5 383.0Q84.0 381.5 74.25 377.75Q64.5 374.0 55.5 370.5L28.5 358.5V388.5Q28.5 401.0 28.5 410.0Q28.5 419.0 29.0 419.0Q29.0 419.0 30.0 418.25Q31.0 417.5 33.5 417.0Q38.5 414.0 46.25 409.75Q54.0 405.5 64.5 401.0Q92.0 387.0 92.0 385.0Q92.0 384.5 87.5 383.0ZM159.5 319.0Q158.0 318.0 156.25 316.75Q154.5 315.5 152.5 314.0Q150.0 313.0 147.5 311.25Q145.0 309.5 142.5 308.5L128.0 299.5V336.0L144.0 328.0Q149.5 325.5 153.5 322.75Q157.5 320.0 159.5 319.0ZM257.5 314.0 320.0 317.5 316.0 266.0 247.0 265.5H232.0Q188.0 265.5 163.25 270.5Q138.5 275.5 138.5 284.5Q138.5 287.0 145.5 294.0Q157.0 302.0 183.75 307.25Q210.5 312.5 257.5 314.0ZM422.5 365.5Q402.5 359.5 387.0 355.75Q371.5 352.0 370.5 352.0Q370.0 352.0 369.25 360.25Q368.5 368.5 367.5 380.0Q367.0 385.0 367.0 389.0Q367.0 393.0 367.0 396.0Q367.0 401.5 368.25 403.5Q369.5 405.5 372.0 405.5Q373.0 405.5 375.0 405.5Q377.0 405.5 379.0 405.0Q384.5 403.0 405.0 400.0Q425.5 397.0 448.5 393.5Q470.0 390.5 485.5 387.5Q501.0 384.5 501.0 384.0Q501.0 382.5 497.0 381.75Q493.0 381.0 487.5 381.0Q482.5 381.0 463.25 376.5Q444.0 372.0 422.5 365.5ZM496.0 276.0Q514.0 265.0 514.0 263.5H510.0Q506.0 263.5 501.5 264.0Q497.0 264.5 496.0 265.5Q495.5 266.0 488.0 267.75Q480.5 269.5 470.25 271.25Q460.0 273.0 451.0 274.25Q442.0 275.5 438.0 276.0Q416.5 279.0 401.25 281.75Q386.0 284.5 386.0 285.5Q386.0 285.5 392.5 291.75Q399.0 298.0 408.5 305.0L429.5 324.0L450.0 307.5Q458.5 300.0 471.5 291.0Q484.5 282.0 496.0 276.0ZM593.5 11.5Q594.5 10.0 598.5 10.0Q602.5 10.0 609.0 12.5Q613.5 15.5 628.25 17.5Q643.0 19.5 660.5 19.5Q678.0 19.5 690.75 20.75Q703.5 22.0 703.5 24.5Q703.5 26.5 699.0 33.5Q694.5 40.5 687.5 48.0Q656.5 90.0 656.5 168.5Q656.5 187.0 656.75 200.25Q657.0 213.5 657.5 213.5Q658.5 213.5 678.75 207.0Q699.0 200.5 732.25 189.5Q765.5 178.5 804.5 165.5Q845.0 153.0 879.0 142.25Q913.0 131.5 934.5 125.0Q956.0 118.5 958.5 118.5Q966.5 118.5 966.5 122.0Q966.5 126.0 932.25 138.75Q898.0 151.5 817.5 177.5Q780.0 189.5 748.0 199.75Q716.0 210.0 695.75 217.0Q675.5 224.0 672.5 225.5Q674.0 227.0 694.5 235.75Q715.0 244.5 748.25 257.5Q781.5 270.5 821.0 285.5Q862.5 301.5 897.0 315.75Q931.5 330.0 952.5 339.5Q973.5 349.0 973.5 350.0Q973.5 353.5 972.0 355.0Q970.5 356.5 969.5 356.5Q968.5 356.5 947.0 348.75Q925.5 341.0 890.25 328.0Q855.0 315.0 813.0 298.5Q773.0 282.5 738.5 270.25Q704.0 258.0 681.75 250.25Q659.5 242.5 655.0 242.0Q652.5 245.5 651.5 262.75Q650.5 280.0 650.5 301.0Q650.5 318.0 651.25 334.5Q652.0 351.0 653.25 361.75Q654.5 372.5 656.5 374.0Q658.5 375.0 681.5 376.75Q704.5 378.5 741.75 380.25Q779.0 382.0 823.5 384.0Q890.0 385.0 926.25 387.0Q962.5 389.0 976.75 391.5Q991.0 394.0 991.0 397.5Q991.0 399.5 989.5 401.0H985.0Q975.5 401.0 948.75 400.5Q922.0 400.0 883.25 399.0Q844.5 398.0 799.0 396.5Q751.5 395.0 714.5 394.25Q677.5 393.5 648.5 393.5Q612.5 393.5 585.25 394.75Q558.0 396.0 534.5 398.0Q509.0 400.5 481.5 404.0Q454.0 407.5 428.5 411.5Q403.0 415.5 383.25 419.25Q363.5 423.0 353.0 426.0Q351.5 426.5 350.0 426.75Q348.5 427.0 347.0 427.0Q343.0 427.0 343.0 421.5Q343.0 419.5 343.25 417.5Q343.5 415.5 344.0 412.0L347.0 400.0H208.0Q169.5 400.0 143.25 401.25Q117.0 402.5 98.75 405.75Q80.5 409.0 67.25 415.0Q54.0 421.0 41.5 430.0Q31.5 439.5 22.5 445.0Q13.5 450.5 12.0 450.5Q10.0 450.5 10.0 433.0Q10.0 426.0 10.0 415.75Q10.0 405.5 10.5 394.5Q12.5 372.5 13.0 356.25Q13.5 340.0 13.5 339.5Q13.5 338.5 20.75 340.5Q28.0 342.5 38.5 348.0Q65.5 361.0 91.25 368.75Q117.0 376.5 149.75 379.75Q182.5 383.0 229.0 383.0Q254.0 383.0 274.25 382.5Q294.5 382.0 307.5 381.0Q320.5 380.0 322.0 379.0Q322.5 378.0 322.5 375.5Q322.5 373.0 322.5 369.5Q322.5 365.5 322.25 360.5Q322.0 355.5 321.5 351.5L317.5 328.0H254.0Q218.0 328.0 194.75 330.0Q171.5 332.0 157.75 337.25Q144.0 342.5 136.5 351.5Q131.5 356.0 126.5 359.75Q121.5 363.5 119.5 363.5Q118.0 363.5 116.75 345.75Q115.5 328.0 114.75 298.0Q114.0 268.0 114.0 231.5Q114.0 180.0 114.5 151.75Q115.0 123.5 117.25 112.25Q119.5 101.0 125.0 101.0Q128.5 101.0 132.5 103.25Q136.5 105.5 142.0 108.5Q159.5 120.5 184.0 126.25Q208.5 132.0 234.25 133.75Q260.0 135.5 281.0 135.5Q294.5 135.5 300.25 133.75Q306.0 132.0 306.0 127.5Q306.0 122.0 302.0 112.75Q298.0 103.5 290.0 88.5Q282.5 74.0 277.5 63.0Q272.5 52.0 272.5 51.0Q272.5 48.5 285.5 47.0Q298.5 45.5 317.0 45.5Q343.5 45.5 352.0 46.5Q360.5 47.5 360.5 53.0Q360.5 56.0 359.0 59.0Q350.0 90.5 344.75 112.75Q339.5 135.0 336.75 154.5Q334.0 174.0 333.25 197.0Q332.5 220.0 332.5 252.5Q333.0 304.5 334.5 333.0Q336.0 361.5 339.0 372.25Q342.0 383.0 347.0 383.0Q351.0 383.0 352.5 377.5Q354.0 372.0 354.0 358.5Q354.0 346.5 356.0 338.25Q358.0 330.0 360.0 330.0Q362.0 330.0 372.75 333.5Q383.5 337.0 396.0 342.0Q430.5 355.5 474.5 363.5Q518.5 371.5 572.0 374.5L635.5 380.0L637.5 308.5Q637.5 301.0 637.75 294.75Q638.0 288.5 638.0 283.5Q638.0 240.0 633.5 240.0Q629.0 240.0 614.5 244.5Q600.0 249.0 580.75 256.0Q561.5 263.0 543.0 270.75Q524.5 278.5 511.5 285.5Q497.5 293.0 480.25 304.0Q463.0 315.0 453.0 323.5L429.0 344.5L399.5 318.0Q388.5 308.0 375.75 299.0Q363.0 290.0 358.0 288.5Q343.0 284.5 343.0 281.5Q343.0 272.5 400.5 266.0Q423.5 263.0 450.25 258.75Q477.0 254.5 503.5 249.75Q530.0 245.0 552.75 240.25Q575.5 235.5 590.5 231.5Q605.5 227.5 608.5 225.5V225.0Q608.0 222.5 597.0 217.75Q586.0 213.0 568.25 207.0Q550.5 201.0 530.0 194.75Q509.5 188.5 490.0 183.5Q479.5 181.5 464.5 179.75Q449.5 178.0 434.0 176.5Q418.5 175.0 405.5 174.0Q386.0 173.5 371.0 172.75Q356.0 172.0 353.5 171.5Q352.5 169.5 352.5 168.0Q352.5 165.0 356.5 155.75Q360.5 146.5 367.0 135.5V136.0Q374.0 124.0 379.0 110.0Q384.0 96.0 384.0 89.5Q384.0 82.0 385.5 77.25Q387.0 72.5 389.0 72.5Q390.0 72.5 402.5 80.5Q415.0 88.5 432.0 100.0Q438.5 104.5 454.0 114.5Q469.5 124.5 489.75 137.25Q510.0 150.0 532.25 163.0Q554.5 176.0 575.0 187.25Q595.5 198.5 611.0 205.5Q626.5 212.5 633.0 212.5Q642.0 212.5 642.0 195.5Q642.0 185.5 638.5 166.75Q635.0 148.0 629.25 125.75Q623.5 103.5 616.75 82.75Q610.0 62.0 603.5 48.0Q599.5 36.5 596.0 27.25Q592.5 18.0 592.5 14.0Q592.5 12.5 593.5 11.5Z" fill="black" /></svg>