<svg xmlns="http://www.w3.org/2000/svg" width="484.0" height="461.0" viewBox="0 0 484.0 461.0"><path d="M147.0 306.5Q134.5 298.5 121.75 289.0Q109.0 279.5 97.0 269.5L66.0 247.5L63.0 260.5Q60.5 267.0 56.5 275.5Q52.5 284.0 50.0 287.0Q49.0 289.0 48.0 289.75Q47.0 290.5 47.0 290.5Q47.0 290.5 52.25 291.25Q57.5 292.0 70.0 293.0Q76.0 295.0 86.0 296.0Q96.5 298.0 108.0 300.25Q119.5 302.5 130.0 305.5Q137.0 307.0 143.75 309.0Q150.5 311.0 155.0 312.0Q156.0 312.0 156.75 312.25Q157.5 312.5 158.0 312.5Q155.5 311.5 152.25 310.0Q149.0 308.5 147.0 306.5ZM149.0 251.5Q147.5 247.5 142.5 247.5Q142.5 247.5 142.0 248.25Q141.5 249.0 141.5 250.0H139.5L147.0 251.5ZM240.0 344.5Q240.0 345.0 241.0 345.0Q243.0 345.5 245.0 345.75Q247.0 346.0 248.5 346.0Q252.5 346.0 260.5 341.25Q268.5 336.5 271.0 332.0Q269.0 332.0 265.75 333.0Q262.5 334.0 257.5 337.0Q252.0 339.5 247.5 341.5Q243.0 343.5 240.0 344.5ZM119.5 152.5Q123.5 149.5 126.5 147.5Q129.5 145.5 131.5 144.0H131.0Q125.0 144.0 115.25 146.0Q105.5 148.0 95.0 151.5Q87.0 153.5 76.5 155.25Q66.0 157.0 57.5 157.0Q52.5 157.0 49.0 157.0Q45.5 157.0 44.5 157.5Q51.5 172.0 57.25 184.25Q63.0 196.5 63.5 197.5Q65.0 197.5 68.0 195.5Q71.0 193.5 74.0 191.0Q75.0 189.0 77.5 187.5Q80.0 186.0 82.0 184.0Q83.5 182.5 88.75 178.0Q94.0 173.5 100.5 168.0Q107.0 162.5 112.25 158.0Q117.5 153.5 119.5 152.5ZM160.0 196.0Q158.0 191.5 153.0 191.5Q150.0 191.5 149.0 192.5Q148.5 194.0 147.75 195.0Q147.0 196.0 147.0 197.0Q147.0 199.0 155.0 199.0Q157.0 199.0 158.25 197.75Q159.5 196.5 160.0 196.0ZM241.5 239.5H244.0Q247.5 238.5 248.0 239.0L243.5 234.5Q239.0 231.0 236.5 231.0Q233.0 231.0 230.5 234.5L231.0 233.5Q230.0 235.0 228.5 236.0Q227.0 237.0 227.0 237.0Q227.0 237.0 228.5 237.25Q230.0 237.5 231.0 238.5Q233.5 239.0 236.25 239.25Q239.0 239.5 241.5 239.5ZM314.5 135.5Q293.5 123.0 267.5 116.0L244.0 107.5Q241.0 108.0 234.0 111.0Q227.0 114.0 220.25 117.25Q213.5 120.5 211.0 122.5Q185.0 133.0 164.25 143.75Q143.5 154.5 126.0 166.5Q108.5 178.5 91.0 194.5Q78.0 208.5 70.5 216.75Q63.0 225.0 63.0 229.0Q63.0 230.0 65.5 230.0Q67.0 230.0 77.5 237.25Q88.0 244.5 99.5 255.0Q113.5 265.5 132.0 278.0Q150.5 290.5 169.75 303.25Q189.0 316.0 205.5 326.0Q222.0 336.0 232.0 341.0Q231.0 339.0 231.0 337.0Q231.0 333.0 233.5 330.75Q236.0 328.5 237.0 328.5Q240.0 328.5 250.25 324.5Q260.5 320.5 273.75 314.5Q287.0 308.5 300.0 302.25Q313.0 296.0 321.5 291.0Q330.0 286.0 330.0 284.5Q330.0 281.0 317.5 276.25Q305.0 271.5 286.0 266.25Q267.0 261.0 247.0 257.0Q232.5 254.5 220.5 252.25Q208.5 250.0 205.5 248.0L206.0 248.5Q202.5 248.5 204.5 243.5Q206.5 238.5 211.5 234.5Q213.0 233.0 215.25 231.5Q217.5 230.0 217.5 230.0Q214.0 226.0 202.75 222.5Q191.5 219.0 177.75 216.5Q164.0 214.0 153.0 214.0Q142.0 214.0 132.5 211.75Q123.0 209.5 123.0 208.0Q123.0 206.0 127.25 198.75Q131.5 191.5 137.5 182.75Q143.5 174.0 148.75 167.5Q154.0 161.0 156.0 161.0Q156.0 161.0 159.0 165.25Q162.0 169.5 163.0 176.5Q166.5 183.5 178.25 192.0Q190.0 200.5 203.25 206.25Q216.5 212.0 224.0 212.0Q227.0 212.0 227.0 211.0Q234.0 203.0 238.0 203.0Q244.0 203.0 244.0 212.0Q244.0 220.0 262.0 232.25Q280.0 244.5 304.0 256.0Q317.0 261.5 327.25 267.0Q337.5 272.5 339.0 274.0Q343.0 273.0 353.75 267.0Q364.5 261.0 378.75 252.25Q393.0 243.5 407.0 234.5Q421.0 225.5 431.25 218.25Q441.5 211.0 444.5 208.0Q440.5 205.0 428.0 197.5Q415.5 190.0 398.75 180.5Q382.0 171.0 365.0 161.75Q348.0 152.5 334.25 145.25Q320.5 138.0 314.5 135.5ZM286.5 191.5Q285.0 189.0 281.75 185.25Q278.5 181.5 274.5 177.5L263.0 163.0L254.5 176.5Q248.5 183.0 248.5 185.5Q256.0 187.5 268.0 189.5Q280.0 191.5 286.5 191.5ZM229.5 46.0V47.0Q226.5 40.0 225.5 40.0Q221.0 40.0 215.0 47.0H216.0Q212.5 50.5 206.75 55.75Q201.0 61.0 195.5 63.5L185.5 68.5L193.0 72.0Q203.0 76.0 220.25 82.25Q237.5 88.5 254.75 94.25Q272.0 100.0 282.0 103.0Q278.5 100.0 274.5 96.0Q270.5 92.0 265.0 88.0L261.0 83.0Q248.5 72.5 239.5 61.75Q230.5 51.0 229.5 46.0ZM231.0 358.0Q226.0 355.0 222.0 355.0Q219.0 355.0 207.0 359.0Q195.0 363.0 180.75 368.25Q166.5 373.5 156.25 378.0Q146.0 382.5 146.0 384.0Q146.0 386.0 158.5 388.5Q163.5 389.0 171.75 394.0Q180.0 399.0 186.5 406.0Q198.5 416.5 199.5 416.5Q201.0 416.5 201.5 413.0Q202.5 409.0 208.25 398.75Q214.0 388.5 221.0 380.0Q233.5 363.0 233.5 359.5Q233.5 359.5 232.75 358.75Q232.0 358.0 231.0 358.0ZM130.0 234.5Q135.5 227.5 139.0 222.5Q142.5 217.5 143.5 217.5Q148.5 217.5 153.0 227.0Q154.0 227.5 154.75 228.5Q155.5 229.5 157.5 231.0Q159.5 237.5 169.75 245.0Q180.0 252.5 194.5 260.0Q210.0 266.5 218.5 273.5Q227.0 280.5 227.0 283.0Q227.0 285.5 223.0 285.5Q221.5 285.5 217.25 284.5Q213.0 283.5 206.0 280.0Q199.5 277.0 184.5 273.5Q169.5 270.0 155.0 267.5Q140.5 266.5 130.0 262.75Q119.5 259.0 119.5 256.0Q119.5 256.0 122.25 249.25Q125.0 242.5 130.0 234.5ZM213.5 26.5Q218.5 18.0 222.25 14.0Q226.0 10.0 227.5 10.0Q235.0 10.0 237.0 28.0Q238.0 33.5 243.75 42.0Q249.5 50.5 257.5 58.5L274.0 78.0Q284.5 72.5 294.75 67.75Q305.0 63.0 314.5 57.5Q329.0 52.0 339.25 48.25Q349.5 44.5 353.0 44.5Q357.5 44.5 357.5 48.0Q357.5 51.5 346.5 58.25Q335.5 65.0 322.0 72.0Q308.0 77.5 297.5 82.75Q287.0 88.0 287.0 88.0Q287.0 89.5 299.75 99.0Q312.5 108.5 332.75 122.0Q353.0 135.5 376.0 149.5Q399.0 163.5 419.0 175.0Q474.0 207.0 474.0 215.0Q474.0 219.0 471.0 219.0Q470.0 219.0 468.25 218.75Q466.5 218.5 464.0 218.0Q459.0 219.0 443.0 228.75Q427.0 238.5 404.75 252.75Q382.5 267.0 358.75 283.5Q335.0 300.0 314.25 315.0Q293.5 330.0 280.25 340.75Q267.0 351.5 266.0 355.0Q266.0 355.5 278.75 361.75Q291.5 368.0 310.5 376.5Q329.0 385.5 342.75 392.75Q356.5 400.0 357.5 400.5Q357.5 405.5 356.25 407.25Q355.0 409.0 351.5 409.0Q348.0 409.0 336.0 404.25Q324.0 399.5 300.0 389.0Q263.5 371.0 253.5 371.0Q253.0 371.0 251.5 371.0Q250.0 371.0 250.0 372.0Q245.0 375.0 238.5 382.75Q232.0 390.5 225.75 399.75Q219.5 409.0 215.5 417.75Q211.5 426.5 211.5 431.5Q211.5 440.5 209.0 445.75Q206.5 451.0 204.0 451.0Q200.5 451.0 198.5 443.0Q196.0 437.0 188.0 428.5Q180.0 420.0 169.25 412.0Q158.5 404.0 147.0 399.0Q137.0 393.5 130.0 386.75Q123.0 380.0 123.0 376.5Q123.0 370.5 131.0 370.5Q134.0 370.5 144.75 367.25Q155.5 364.0 168.0 359.25Q180.5 354.5 189.5 350.5Q198.5 346.5 198.5 345.0Q198.5 344.0 185.0 339.25Q171.5 334.5 151.0 328.0Q130.5 321.5 109.5 315.5H110.5Q91.5 312.0 77.0 309.75Q62.5 307.5 51.5 307.5Q44.0 307.5 38.0 308.5Q32.0 309.5 27.5 312.0Q22.5 312.5 20.0 313.5Q17.5 314.5 15.0 314.5Q10.0 314.5 10.0 309.0Q10.0 303.0 27.5 285.5Q39.0 275.5 46.25 263.0Q53.5 250.5 53.5 243.5Q53.5 243.0 53.0 242.0Q52.5 241.0 51.5 241.0Q46.5 241.0 46.5 230.0Q46.5 228.0 46.75 224.75Q47.0 221.5 47.0 218.0Q47.0 200.5 43.0 184.75Q39.0 169.0 23.5 157.0Q18.0 153.0 14.25 150.25Q10.5 147.5 10.5 144.0Q10.5 140.0 22.0 140.0Q26.0 140.0 31.0 140.0Q36.0 140.0 42.5 141.0H53.0Q68.5 141.0 86.25 137.0Q104.0 133.0 133.5 126.5Q167.5 117.5 186.75 112.25Q206.0 107.0 214.0 104.0Q222.0 101.0 222.0 98.5Q222.0 98.5 214.5 95.25Q207.0 92.0 194.5 89.0Q182.5 85.0 173.5 80.25Q164.5 75.5 162.0 72.0V71.0Q162.0 68.5 168.25 62.5Q174.5 56.5 182.5 53.0Q191.5 48.5 200.25 41.25Q209.0 34.0 213.5 26.5ZM253.5 149.0Q257.5 141.5 261.0 137.0Q264.5 132.5 267.5 132.5Q274.0 132.5 274.0 146.0Q274.0 153.0 285.5 165.75Q297.0 178.5 315.5 192.0Q334.0 205.5 354.5 215.0Q369.0 222.5 380.0 229.75Q391.0 237.0 391.0 239.5Q391.0 245.5 387.0 245.5Q383.5 245.5 375.75 241.75Q368.0 238.0 351.0 230.0Q328.0 218.5 305.5 212.0Q283.0 205.5 251.5 200.5Q240.5 199.5 233.5 196.5Q226.5 193.5 226.5 191.5Q226.5 190.5 229.5 185.0Q232.5 179.5 236.5 175.5Q242.0 170.0 246.5 162.0Q251.0 154.0 253.5 149.0Z" fill="black" /></svg>