<svg xmlns="http://www.w3.org/2000/svg" width="553.0" height="389.0" viewBox="0 0 553.0 389.0"><path d="M141.5 168.0Q143.0 165.5 143.75 163.5Q144.5 161.5 145.0 161.0Q145.0 161.0 137.75 167.0Q130.5 173.0 120.0 181.5L114.0 186.0Q101.5 196.5 86.75 209.0Q72.0 221.5 63.0 227.5Q55.0 234.0 48.75 239.25Q42.5 244.5 42.5 245.5Q42.5 246.0 46.75 246.75Q51.0 247.5 57.0 247.5Q63.5 247.5 71.5 248.75Q79.5 250.0 84.5 252.0Q90.0 254.0 94.0 254.0Q99.5 254.0 102.25 249.0Q105.0 244.0 107.5 231.5Q109.0 223.0 114.0 212.25Q119.0 201.5 124.5 194.0Q130.0 186.0 135.0 178.5Q140.0 171.0 141.5 168.0ZM216.5 275.5 214.5 274.0Q208.5 270.5 204.25 268.25Q200.0 266.0 199.0 266.0Q198.5 266.0 198.5 272.25Q198.5 278.5 198.5 287.0V306.0L206.0 300.0Q209.5 296.5 215.0 292.75Q220.5 289.0 224.0 287.0Q229.5 284.0 229.5 283.5Q229.5 282.5 216.5 275.5ZM335.0 310.0Q333.5 309.0 330.75 307.5Q328.0 306.0 325.0 304.0L315.5 298.0V333.5L324.5 322.0Q332.0 313.0 335.0 310.0ZM226.0 163.0Q229.0 161.5 229.0 161.0Q229.0 159.5 215.0 152.0L198.5 142.5V185.5L208.0 177.0Q212.5 173.0 217.5 168.75Q222.5 164.5 226.0 163.0ZM324.5 223.0 347.5 205.0 324.5 188.0ZM486.0 203.0Q481.0 204.5 469.0 205.5Q457.0 206.5 438.5 206.5L385.5 207.5L367.0 209.5Q364.0 210.0 358.25 213.75Q352.5 217.5 347.5 221.0Q345.5 222.5 343.75 223.5Q342.0 224.5 341.0 225.5Q326.5 233.5 320.25 244.75Q314.0 256.0 314.0 266.5Q314.0 280.5 322.5 290.0Q325.5 293.0 329.0 294.5Q332.5 296.0 340.25 296.75Q348.0 297.5 364.0 297.75Q380.0 298.0 408.0 298.0H485.0L485.5 259.5Q486.0 244.5 486.0 230.0Q486.0 215.5 486.0 203.0ZM330.0 91.5Q324.5 87.5 322.0 87.5Q319.0 87.5 319.0 102.0V116.0L326.5 106.0Q333.5 98.5 333.5 96.0Q333.5 94.5 330.0 91.5ZM518.0 45.0Q519.0 43.0 519.0 42.5Q519.0 41.0 515.0 40.75Q511.0 40.5 499.5 40.5Q488.5 40.5 484.5 40.75Q480.5 41.0 480.5 42.5Q480.5 43.0 481.5 45.0Q483.0 49.5 485.25 60.0Q487.5 70.5 489.5 83.75Q491.5 97.0 493.0 109.0Q494.5 121.0 495.0 128.0L495.5 138.0L497.5 127.5Q501.0 112.0 505.25 94.25Q509.5 76.5 513.25 62.5Q517.0 48.5 518.0 45.0ZM187.5 104.0Q195.0 92.5 198.0 92.5Q201.0 92.5 201.0 98.5Q201.0 100.5 200.75 102.5Q200.5 104.5 200.0 107.5Q199.5 109.5 199.25 111.25Q199.0 113.0 199.0 115.0Q199.0 132.0 216.5 141.25Q234.0 150.5 267.0 150.5Q280.5 150.5 290.75 151.75Q301.0 153.0 302.0 155.0V156.0Q302.0 161.0 279.5 161.0Q259.5 161.0 240.5 169.0Q221.5 177.0 208.25 189.75Q195.0 202.5 192.5 218.0Q190.5 229.0 188.0 229.0Q187.0 229.0 184.0 224.5Q182.0 220.5 182.0 214.5Q182.0 211.0 182.75 206.5Q183.5 202.0 184.5 197.0Q187.0 187.0 188.0 174.75Q189.0 162.5 189.0 151.5Q189.0 141.0 188.25 134.0Q187.5 127.0 186.0 126.5H185.5Q183.5 127.5 172.75 141.75Q162.0 156.0 149.5 175.5Q131.5 201.5 124.25 215.0Q117.0 228.5 116.0 237.0V244.0Q116.0 253.5 117.0 254.0Q118.0 255.0 119.5 259.0Q121.0 263.0 121.0 268.0Q121.0 273.5 126.5 280.75Q132.0 288.0 146.5 301.0Q151.0 305.0 159.0 312.75Q167.0 320.5 175.0 329.5Q183.0 338.5 188.5 347.5Q194.0 356.5 194.0 363.0Q193.5 364.5 192.5 364.5Q188.5 364.5 178.0 350.5Q173.0 343.5 163.25 332.75Q153.5 322.0 141.5 310.5Q129.5 299.0 117.5 288.5Q105.5 278.0 95.5 271.5Q86.0 265.0 76.25 261.75Q66.5 258.5 47.0 256.5L10.0 252.0L38.0 233.5Q48.5 226.5 66.0 212.75Q83.5 199.0 103.25 182.25Q123.0 165.5 141.25 149.25Q159.5 133.0 172.25 120.75Q185.0 108.5 187.5 104.0ZM525.0 21.0Q529.5 10.0 536.5 10.0Q541.0 10.0 543.0 15.5V17.0Q543.0 22.5 538.0 30.0Q532.5 36.5 526.5 55.0Q520.5 73.5 514.75 99.5Q509.0 125.5 504.5 155.25Q500.0 185.0 497.25 214.25Q494.5 243.5 494.5 267.5Q494.5 288.5 495.75 293.25Q497.0 298.0 501.5 298.0Q505.0 298.0 507.75 299.5Q510.5 301.0 510.5 303.5Q510.5 305.5 507.75 307.25Q505.0 309.0 501.5 309.0Q497.0 309.0 495.75 312.75Q494.5 316.5 494.5 331.0Q494.5 341.5 493.25 348.5Q492.0 355.5 489.5 355.5Q487.5 355.5 486.25 348.5Q485.0 341.5 485.0 331.0V309.0H420.5Q396.0 309.0 382.25 309.25Q368.5 309.5 361.25 310.25Q354.0 311.0 350.5 313.0Q347.0 315.0 342.5 318.5Q336.5 324.0 329.25 334.25Q322.0 344.5 317.0 354.5Q312.0 364.5 312.0 370.0Q312.0 379.0 307.5 379.0Q305.5 379.0 304.25 365.5Q303.0 352.0 303.0 332.0L304.0 288.0H273.0Q259.5 288.0 251.5 288.75Q243.5 289.5 237.5 291.75Q231.5 294.0 223.0 299.0Q203.5 310.5 197.0 325.0Q194.5 331.0 192.0 335.25Q189.5 339.5 188.0 339.5H187.5Q186.5 338.5 186.5 328.5Q186.5 318.5 187.25 302.5Q188.0 286.5 189.0 270.5Q190.0 254.5 191.25 243.5Q192.5 232.5 193.5 232.5Q195.0 232.5 197.25 236.5Q199.5 240.5 202.0 246.5Q207.0 260.5 221.0 266.75Q235.0 273.0 267.0 274.0Q275.0 274.5 280.75 274.75Q286.5 275.0 290.5 275.0Q298.5 275.0 300.25 273.75Q302.0 272.5 302.0 269.5Q302.0 260.5 307.0 258.5Q309.0 258.0 310.0 249.25Q311.0 240.5 311.75 228.25Q312.5 216.0 312.75 205.25Q313.0 194.5 313.0 189.5V172.5Q313.0 161.5 315.0 163.5V163.0Q315.0 163.5 317.0 163.5Q319.5 164.0 321.75 165.0Q324.0 166.0 324.5 168.5L331.5 175.5Q337.5 182.0 346.75 188.5Q356.0 195.0 365.5 195.0H438.5Q457.5 195.0 469.25 196.0Q481.0 197.0 486.0 198.5Q486.0 196.5 486.0 194.75Q486.0 193.0 486.0 191.0Q486.0 157.0 485.25 135.25Q484.5 113.5 483.0 107.0L481.0 95.0H351.0Q347.5 99.0 344.25 103.0Q341.0 107.0 337.5 111.0Q331.5 117.5 326.25 125.5Q321.0 133.5 320.0 138.0Q319.0 143.0 316.25 147.25Q313.5 151.5 311.5 152.5Q311.0 152.5 310.75 152.75Q310.5 153.0 310.0 153.0Q306.5 153.0 306.5 148.0Q306.5 147.0 306.5 145.75Q306.5 144.5 307.0 143.0Q308.0 139.0 309.0 125.0Q310.0 111.0 310.0 94.0Q310.0 52.5 315.5 52.5Q318.0 52.5 321.0 63.0Q322.5 70.5 325.5 74.75Q328.5 79.0 336.75 81.0Q345.0 83.0 361.75 83.5Q378.5 84.0 408.5 84.0H481.0L479.0 75.0Q475.5 62.0 471.5 53.0Q467.5 44.0 463.0 39.0H463.5L462.5 38.5Q461.0 36.5 460.0 35.25Q459.0 34.0 459.0 32.5Q459.0 29.0 471.0 29.0Q475.0 29.0 480.25 29.0Q485.5 29.0 492.5 29.5H503.5Q515.5 29.5 518.75 27.75Q522.0 26.0 525.0 21.0Z" fill="black" /></svg>