<svg xmlns="http://www.w3.org/2000/svg" width="781.5" height="457.5" viewBox="0 0 781.5 457.5"><path d="M56.5 184.0Q56.5 174.5 53.5 174.5Q51.5 174.5 49.0 176.75Q46.5 179.0 41.5 183.0H42.5Q38.5 187.5 38.0 189.5Q40.0 189.5 43.5 190.25Q47.0 191.0 50.5 192.5H53.5Q56.5 192.5 56.5 184.0ZM107.5 94.0H106.5Q102.0 91.0 98.5 90.0Q95.0 89.0 92.5 89.0Q89.5 89.0 89.5 90.0Q89.5 92.5 91.25 95.5Q93.0 98.5 96.0 98.5L102.5 96.0Q104.5 95.5 106.0 95.25Q107.5 95.0 109.0 94.5Q108.5 94.5 108.25 94.25Q108.0 94.0 107.5 94.0ZM151.5 184.0 139.5 172.5Q134.5 167.5 130.25 163.5Q126.0 159.5 125.0 159.5Q125.0 159.5 124.75 165.25Q124.5 171.0 124.5 179.5V198.5ZM244.0 135.0 206.5 98.5 181.0 99.0Q170.5 99.0 156.0 100.75Q141.5 102.5 127.5 105.0Q113.5 107.5 103.25 110.25Q93.0 113.0 91.0 115.5Q88.0 118.5 84.25 129.75Q80.5 141.0 77.0 155.0Q73.5 169.0 71.5 181.25Q69.5 193.5 69.5 199.0Q70.0 202.5 77.0 211.0Q84.0 219.5 94.0 229.25Q104.0 239.0 113.75 247.5Q123.5 256.0 129.5 260.5Q127.5 257.0 127.5 254.5Q127.5 248.0 133.0 248.0Q134.0 248.0 135.5 248.5Q137.0 249.0 138.5 250.5Q141.0 251.0 143.25 251.75Q145.5 252.5 148.0 252.5Q154.0 252.5 165.75 246.75Q177.5 241.0 192.0 232.5Q206.5 224.0 220.0 214.75Q233.5 205.5 243.0 198.0Q252.5 190.5 254.5 187.5Q244.5 187.5 227.75 189.25Q211.0 191.0 193.0 193.75Q175.0 196.5 161.25 199.25Q147.5 202.0 143.5 204.0Q138.5 207.0 133.75 211.5Q129.0 216.0 128.0 219.5Q123.5 231.0 121.0 231.0Q117.5 231.0 115.5 216.75Q113.5 202.5 113.5 176.0Q113.5 151.0 115.0 137.75Q116.5 124.5 118.5 124.5H120.0Q124.5 129.0 124.5 135.5Q124.5 137.5 131.25 145.5Q138.0 153.5 148.0 162.5L169.5 183.5L218.5 178.5Q239.5 176.5 256.0 174.75Q272.5 173.0 275.0 172.5Q274.0 165.0 244.0 135.0ZM186.0 73.5V74.0Q185.0 71.0 183.5 68.5Q182.0 66.0 181.5 64.0Q179.5 60.5 179.0 60.0Q177.5 61.5 173.25 65.5Q169.0 69.5 163.5 74.0L152.5 84.5H192.0ZM309.5 168.0Q307.0 164.5 302.0 164.5Q298.5 164.5 297.0 167.0Q297.5 167.0 297.5 167.5Q297.5 168.0 297.5 168.0Q299.0 172.0 302.5 172.0Q305.0 172.0 305.5 171.5Q309.5 170.5 309.5 168.0ZM372.0 67.5H371.0Q360.5 62.0 348.0 55.5Q335.5 49.0 330.0 43.5L314.5 33.5Q311.0 38.5 307.25 43.25Q303.5 48.0 299.0 52.5L284.5 69.0L323.0 72.5Q336.5 74.0 349.0 74.0Q359.5 74.5 369.0 75.0Q378.5 75.5 382.5 75.5Q386.0 75.0 388.75 75.0Q391.5 75.0 392.5 75.0Q390.0 74.5 372.0 67.5ZM438.0 91.5V88.5Q436.5 88.5 433.5 92.5V93.0Q433.5 94.5 435.5 94.5Q438.0 94.5 438.0 91.5ZM452.5 55.0 461.0 36.5H441.5Q432.0 36.5 428.5 36.75Q425.0 37.0 425.0 39.0Q425.0 41.0 425.5 42.0Q426.0 43.0 426.25 45.0Q426.5 47.0 427.0 48.5Q430.0 56.0 430.0 63.5V63.0Q431.5 74.5 437.0 74.5Q443.0 74.5 452.5 55.0ZM44.5 336.5Q41.0 335.5 38.0 335.0Q35.0 334.5 32.5 334.5Q29.0 334.5 27.25 336.5Q25.5 338.5 25.5 344.0Q25.5 351.0 27.0 351.0Q28.5 351.0 33.75 348.25Q39.0 345.5 43.75 342.5Q48.5 339.5 48.5 339.0Q48.5 339.0 47.25 338.5Q46.0 338.0 44.5 336.5ZM118.0 294.0Q118.0 292.0 109.0 292.0Q102.5 292.0 102.5 294.5Q102.5 295.5 103.0 297.0Q105.0 299.5 105.5 303.5Q106.0 307.5 106.0 310.0V309.5Q108.5 309.5 113.25 303.5Q118.0 297.5 118.0 294.0ZM164.5 291.5 172.0 275.5Q174.0 269.5 175.25 265.75Q176.5 262.0 176.5 260.5Q176.5 260.0 175.0 260.0Q173.5 260.0 170.25 261.25Q167.0 262.5 161.5 265.0L150.5 270.0L156.5 280.5ZM310.5 230.0V229.0Q307.5 227.5 306.0 226.75Q304.5 226.0 302.5 226.0Q300.0 226.0 300.0 232.5Q300.0 239.0 301.0 239.0Q303.5 239.0 306.5 235.5Q309.5 234.5 311.0 233.0Q312.5 231.5 313.0 231.0Q312.5 231.0 312.0 230.75Q311.5 230.5 310.5 230.0ZM310.0 279.5Q303.5 278.0 301.5 278.0Q300.5 278.0 300.25 279.25Q300.0 280.5 300.0 284.5Q300.0 291.5 304.5 292.5Q305.5 292.5 307.5 291.25Q309.5 290.0 311.0 287.5Q314.5 283.0 314.5 283.0Q314.5 282.0 310.0 279.5ZM366.5 267.5 422.5 267.0 426.0 226.0 411.0 226.5Q407.5 226.5 400.75 226.75Q394.0 227.0 386.0 227.5Q381.0 227.5 375.5 228.0Q370.0 228.5 364.5 228.5Q352.5 229.5 345.0 231.0Q337.5 232.5 331.25 235.5Q325.0 238.5 317.0 245.0Q310.0 251.5 306.5 254.5Q303.0 257.5 303.0 260.0Q303.0 260.5 303.75 261.25Q304.5 262.0 305.0 262.5Q307.0 265.5 314.25 266.75Q321.5 268.0 338.5 268.0Q344.5 268.0 351.5 268.0Q358.5 268.0 366.5 267.5ZM516.5 231.5 497.5 228.5Q488.0 227.0 478.5 225.25Q469.0 223.5 466.5 223.0Q466.0 222.0 465.5 222.0Q465.0 222.0 465.0 222.0Q461.5 222.0 458.5 244.5V267.5L458.0 268.5Q466.0 263.5 473.75 258.5Q481.5 253.5 489.5 248.0ZM52.0 398.0Q52.0 396.5 41.0 395.0Q39.0 394.0 35.5 394.0Q30.5 394.0 30.5 401.0Q30.5 404.5 31.5 407.75Q32.5 411.0 33.5 411.0Q36.0 411.0 40.25 408.25Q44.5 405.5 48.25 402.25Q52.0 399.0 52.0 398.0ZM95.0 388.5V364.0Q95.0 345.0 93.0 342.0Q91.0 339.0 82.5 339.0Q79.0 339.0 70.25 343.0Q61.5 347.0 52.0 352.75Q42.5 358.5 35.75 364.25Q29.0 370.0 29.0 373.0Q29.0 374.0 30.5 376.5Q33.5 379.5 43.75 382.0Q54.0 384.5 66.5 386.0ZM288.0 346.0 297.0 345.0 220.5 319.5Q220.5 320.0 220.25 326.75Q220.0 333.5 220.0 342.0Q220.0 354.5 220.5 358.5Q221.0 362.5 223.0 362.5Q225.5 362.5 226.5 362.0Q235.0 358.0 252.0 353.75Q269.0 349.5 288.0 346.0ZM306.0 21.5V22.0Q313.0 10.0 316.5 10.0Q320.5 10.0 326.0 22.0Q328.5 26.5 340.75 34.25Q353.0 42.0 368.75 49.75Q384.5 57.5 398.25 63.0Q412.0 68.5 417.0 68.5Q420.5 68.5 420.5 65.5Q420.5 58.5 411.0 42.5L400.0 21.5H442.5Q484.5 21.5 484.5 28.0Q484.5 35.5 476.5 38.5Q474.0 39.5 469.25 48.25Q464.5 57.0 460.5 67.0Q456.5 77.0 456.5 82.0Q457.0 82.5 478.5 89.5Q500.0 96.5 536.0 107.75Q572.0 119.0 615.0 131.5Q658.5 145.0 694.0 157.0Q729.5 169.0 750.5 177.25Q771.5 185.5 771.5 187.0Q771.5 189.0 768.0 190.75Q764.5 192.5 752.25 194.75Q740.0 197.0 714.0 200.75Q688.0 204.5 643.5 211.5L547.0 226.0L511.0 250.5Q495.5 260.0 481.25 270.5Q467.0 281.0 462.0 287.0H462.5Q458.0 292.5 453.25 296.5Q448.5 300.5 448.0 300.5Q446.0 300.5 446.0 285.0Q446.0 275.0 446.75 260.0Q447.5 245.0 448.5 230.5Q449.5 216.0 450.75 205.5Q452.0 195.0 453.0 194.0L452.5 194.5Q453.5 193.0 454.0 193.0Q456.0 193.0 460.5 199.5Q469.0 214.0 504.5 214.0Q515.0 214.0 527.75 213.0Q540.5 212.0 556.5 210.5Q584.0 206.5 614.5 202.0Q645.0 197.5 671.75 193.75Q698.5 190.0 716.0 187.25Q733.5 184.5 735.0 184.0Q733.0 183.5 716.0 178.25Q699.0 173.0 671.5 164.5Q644.0 156.0 610.5 146.0Q576.0 135.0 545.0 125.0Q514.0 115.0 493.0 108.25Q472.0 101.5 467.0 99.5Q460.5 98.0 454.5 98.0Q446.5 98.0 442.75 108.75Q439.0 119.5 438.0 148.25Q437.0 177.0 437.0 231.5V340.0H534.5Q582.0 340.0 608.75 341.75Q635.5 343.5 635.5 346.0Q635.5 349.5 608.75 351.0Q582.0 352.5 534.5 352.5Q493.0 352.5 472.0 353.0Q451.0 353.5 444.0 354.75Q437.0 356.0 437.0 358.5Q437.0 367.0 430.5 367.0Q429.0 367.0 427.0 365.25Q425.0 363.5 425.0 360.0Q425.0 359.0 416.75 358.75Q408.5 358.5 389.5 358.5Q381.0 358.5 369.75 358.5Q358.5 358.5 345.5 359.0Q305.5 359.5 281.5 361.75Q257.5 364.0 244.5 368.25Q231.5 372.5 223.0 379.5Q219.0 385.0 213.5 385.0Q209.5 385.0 208.0 377.25Q206.5 369.5 206.5 351.5V339.0Q207.5 320.5 209.0 306.5Q210.5 292.5 212.5 292.5Q213.0 292.5 216.25 295.25Q219.5 298.0 223.0 302.5Q227.0 306.0 245.75 313.25Q264.5 320.5 286.5 328.0Q313.0 336.0 334.0 340.0Q355.0 344.0 382.5 344.0L422.5 342.0L426.0 282.0H384.0Q365.0 282.0 354.5 282.75Q344.0 283.5 337.75 286.25Q331.5 289.0 324.0 294.5Q316.0 298.5 310.25 304.25Q304.5 310.0 302.5 312.5Q300.5 318.5 296.0 318.5Q295.5 318.5 295.0 318.25Q294.5 318.0 294.0 318.0Q292.0 316.5 290.75 306.25Q289.5 296.0 289.0 281.0Q288.5 266.0 288.5 251.0Q288.5 232.0 289.5 217.5Q290.5 203.0 292.5 203.0Q294.5 203.0 298.25 205.0Q302.0 207.0 305.5 211.0Q309.5 213.5 322.25 215.0Q335.0 216.5 352.5 216.5Q363.5 216.5 376.25 216.0Q389.0 215.5 401.5 214.0L425.0 211.5V162.5L378.5 167.0Q355.5 168.0 344.25 169.5Q333.0 171.0 326.25 174.25Q319.5 177.5 310.0 184.5Q291.0 200.0 288.0 200.5Q284.0 200.0 284.0 192.5Q284.0 191.0 283.5 189.25Q283.0 187.5 282.0 187.5Q281.5 187.5 277.0 190.75Q272.5 194.0 265.0 198.5Q259.5 202.0 252.5 207.0Q245.5 212.0 237.0 216.5Q217.5 230.5 207.5 238.75Q197.5 247.0 193.25 253.5Q189.0 260.0 185.5 270.0Q182.5 280.0 179.5 290.75Q176.5 301.5 176.5 307.0Q176.5 319.5 171.0 319.5Q166.0 319.5 154.0 300.0Q147.5 287.0 144.5 287.0Q142.5 287.0 138.5 290.0H139.5Q135.5 293.5 130.25 300.75Q125.0 308.0 121.0 315.0L112.0 327.5L149.0 323.5Q155.5 323.0 161.0 323.0Q166.5 323.0 171.0 323.0Q191.0 323.0 191.0 326.5Q191.0 330.0 178.5 332.75Q166.0 335.5 148.5 336.5L106.0 340.0V382.5H150.0Q195.0 382.5 195.0 388.5Q195.0 396.0 152.5 396.5L108.5 398.5L106.5 420.5Q105.0 447.5 100.5 447.5Q95.0 447.5 95.0 422.5Q95.0 406.5 93.25 403.5Q91.5 400.5 84.5 400.5Q80.0 400.5 71.0 404.25Q62.0 408.0 52.75 413.5Q43.5 419.0 37.0 424.0Q30.5 429.0 30.5 432.0Q30.5 434.0 29.25 436.25Q28.0 438.5 25.0 438.5Q23.0 438.5 20.5 419.5Q18.0 400.5 16.5 375.0Q14.5 360.5 14.0 349.0Q13.5 337.5 13.5 331.0Q13.5 312.5 20.0 312.5Q22.0 312.5 25.25 314.5Q28.5 316.5 32.5 319.5Q42.0 326.5 68.5 326.5Q87.0 326.5 91.0 324.75Q95.0 323.0 95.0 317.0Q95.0 312.5 92.5 307.0Q90.0 301.5 87.5 298.0Q85.5 293.5 83.75 290.75Q82.0 288.0 82.0 286.5Q82.0 281.0 87.25 279.75Q92.5 278.5 105.5 278.0L126.5 276.0L86.5 240.5Q68.0 224.0 57.5 215.75Q47.0 207.5 40.5 204.5Q34.0 201.5 27.0 201.5Q20.0 201.5 15.0 200.25Q10.0 199.0 10.0 195.5Q10.0 194.0 19.0 185.25Q28.0 176.5 40.5 166.0Q70.0 139.5 72.5 125.0Q74.0 119.5 75.75 113.5Q77.5 107.5 78.0 104.0L79.0 103.0Q79.0 100.0 76.75 95.0Q74.5 90.0 70.0 86.0H70.5Q66.5 81.5 63.75 77.75Q61.0 74.0 60.5 72.0Q60.5 70.0 61.5 70.0Q62.5 68.5 65.0 68.5Q68.5 68.5 77.25 70.5Q86.0 72.5 96.5 75.5Q107.0 79.0 117.0 81.0Q127.0 83.0 132.5 83.0H134.0Q138.0 80.5 147.0 72.25Q156.0 64.0 165.0 54.5Q175.0 44.0 183.25 36.0Q191.5 28.0 192.5 28.0Q195.0 28.0 195.0 34.0Q195.0 36.5 194.5 40.25Q194.0 44.0 192.5 48.0Q192.0 50.0 192.0 51.5Q192.0 53.0 192.0 54.0Q192.0 58.5 195.5 64.25Q199.0 70.0 208.5 80.25Q218.0 90.5 236.5 109.5Q276.5 150.5 283.0 150.5Q285.0 142.5 289.0 142.5Q292.0 142.5 301.0 150.0V148.5Q309.5 155.5 340.5 155.5Q350.0 155.5 362.25 155.25Q374.5 155.0 390.0 153.0L425.0 150.0V124.5Q425.0 114.5 423.75 105.75Q422.5 97.0 421.5 95.0Q420.5 93.0 410.75 91.25Q401.0 89.5 385.75 88.5Q370.5 87.5 353.25 86.75Q336.0 86.0 320.0 86.0Q304.0 86.0 292.0 87.0Q280.0 88.0 274.5 89.0Q269.0 90.0 264.5 90.75Q260.0 91.5 257.5 91.5Q253.0 91.5 252.0 90.0L250.5 89.0Q250.5 86.5 257.5 77.5Q264.5 68.5 275.0 58.5Q286.5 47.0 295.75 36.0Q305.0 25.0 306.0 21.5Z" fill="black" /></svg>