<svg xmlns="http://www.w3.org/2000/svg" width="808.0" height="449.0" viewBox="0 0 808.0 449.0"><path d="M162.5 323.0 133.0 314.5Q117.5 310.5 97.5 302.75Q77.5 295.0 65.0 288.5L34.5 272.5V366.0Q57.0 357.0 79.0 348.75Q101.0 340.5 124.5 334.5H124.0ZM184.5 226.5 180.0 215.0V224.0Q179.5 228.5 179.0 233.25Q178.5 238.0 178.5 238.0Q181.0 235.0 182.75 230.75Q184.5 226.5 184.5 226.5ZM266.5 263.5Q257.0 258.0 243.5 252.0Q230.0 246.0 220.0 242.0Q210.0 238.0 210.0 238.0L199.5 246.0V277.0L200.5 308.5L238.0 310.0Q258.0 310.5 271.5 310.5Q285.0 310.5 285.0 310.5V275.0Q283.0 273.5 277.5 269.75Q272.0 266.0 266.5 263.5ZM284.5 241.5Q284.5 240.5 283.25 235.0Q282.0 229.5 282.0 229.5H248.0L228.5 230.0L285.0 258.5Q285.0 255.0 285.0 249.0Q285.0 243.0 284.5 241.5ZM284.0 204.0V187.0Q278.0 189.5 265.0 199.0V198.5Q261.5 201.0 253.75 205.0Q246.0 209.0 239.5 212.0Q233.0 215.0 233.0 215.0Q240.0 214.5 248.75 214.5Q257.5 214.5 265.5 214.25Q273.5 214.0 276.5 214.0H282.0Q284.0 207.0 284.0 204.0ZM342.5 311.0 304.5 287.5V310.5H323.0ZM390.0 173.5Q388.0 161.5 386.25 156.5Q384.5 151.5 379.25 150.5Q374.0 149.5 361.5 149.5H347.0L304.5 175.5Q304.5 179.0 303.75 191.0Q303.0 203.0 303.0 216.5V232.0L304.5 268.0Q307.5 270.0 314.25 274.5Q321.0 279.0 328.0 283.5Q335.0 288.0 337.5 290.0Q343.5 293.0 350.75 298.25Q358.0 303.5 363.5 307.5Q369.0 311.5 369.0 311.5L390.5 313.0Q390.5 307.5 390.5 291.0Q390.5 274.5 391.0 255.0Q392.0 248.5 392.25 242.25Q392.5 236.0 392.5 229.5Q392.5 212.5 391.5 197.0Q390.5 181.5 390.0 173.5ZM598.0 289.0Q603.5 279.0 603.5 272.5Q601.5 273.0 591.25 279.25Q581.0 285.5 569.0 293.5Q557.0 301.5 548.0 307.25Q539.0 313.0 539.0 313.0Q541.5 314.0 547.5 316.0Q553.5 318.0 558.5 319.0Q566.5 320.0 575.0 322.25Q583.5 324.5 590.0 328.5Q591.0 328.0 591.75 327.75Q592.5 327.5 592.5 327.0Q592.5 326.0 590.0 321.0V318.5Q590.0 312.5 592.25 303.75Q594.5 295.0 598.0 289.0ZM181.5 128.5 179.0 125.5V159.0L182.0 156.5V141.0Q182.0 135.0 181.75 131.75Q181.5 128.5 181.5 128.5ZM217.5 31.0V30.0Q215.5 29.0 206.75 28.0Q198.0 27.0 186.5 27.0Q174.0 27.0 169.0 27.75Q164.0 28.5 164.0 31.5Q164.0 31.5 165.0 35.5Q167.5 39.0 171.5 51.25Q175.5 63.5 180.0 76.5Q186.5 99.0 189.0 99.0Q190.0 99.0 192.5 91.0Q194.5 87.0 198.5 78.75Q202.5 70.5 207.0 61.0Q211.5 51.5 214.5 43.25Q217.5 35.0 217.5 31.0ZM229.0 143.5 198.0 135.5V152.5Q201.0 152.0 208.5 149.75Q216.0 147.5 222.5 145.5Q229.0 143.5 229.0 143.5ZM197.0 204.5 207.5 214.5Q228.0 201.5 245.25 191.25Q262.5 181.0 272.75 175.0Q283.0 169.0 283.0 169.0V152.5Q269.0 152.5 255.0 153.25Q241.0 154.0 228.0 159.0Q218.5 161.5 208.0 165.75Q197.5 170.0 197.5 170.0Q197.5 172.5 197.25 178.75Q197.0 185.0 197.0 192.0ZM313.5 34.5Q313.5 34.0 307.75 33.25Q302.0 32.5 293.5 32.5Q285.0 32.5 279.0 33.25Q273.0 34.0 273.0 34.5Q273.0 38.0 275.0 46.5Q277.0 55.0 280.25 65.25Q283.5 75.5 286.25 83.5Q289.0 91.5 290.5 94.0L290.0 93.0Q292.0 92.5 296.0 85.25Q300.0 78.0 304.0 67.75Q308.0 57.5 310.75 48.25Q313.5 39.0 313.5 34.5ZM304.5 150.5V157.0L318.0 150.5ZM420.0 35.5Q421.0 34.0 421.0 32.75Q421.0 31.5 421.0 31.0Q421.0 28.5 415.5 27.75Q410.0 27.0 394.5 27.0H366.5L379.5 64.5Q385.0 80.0 389.25 91.25Q393.5 102.5 394.0 102.5Q395.0 102.5 398.25 94.25Q401.5 86.0 405.5 75.0L409.0 67.0Q411.5 57.0 414.75 47.75Q418.0 38.5 420.0 35.5ZM662.0 127.5Q662.0 126.0 661.0 126.0Q657.5 126.0 648.0 131.75Q638.5 137.5 618.5 151.0L586.0 173.5L609.0 180.5Q632.5 188.0 638.0 188.0Q643.0 188.0 643.75 184.5Q644.5 181.0 644.5 173.5Q644.5 165.0 647.5 156.75Q650.5 148.5 654.0 143.0Q657.0 138.0 659.5 133.75Q662.0 129.5 662.0 127.5ZM142.0 13.5Q142.0 11.5 149.0 10.75Q156.0 10.0 165.5 10.0Q179.0 10.0 196.0 10.5Q213.0 11.0 226.25 12.0Q239.5 13.0 241.5 14.5Q242.5 15.0 237.25 28.0Q232.0 41.0 224.5 57.0Q217.5 71.5 211.25 85.25Q205.0 99.0 201.5 107.75Q198.0 116.5 198.0 116.5Q201.0 119.0 204.25 120.75Q207.5 122.5 211.0 123.5L214.0 124.5Q219.5 126.5 228.5 128.75Q237.5 131.0 247.25 132.75Q257.0 134.5 263.0 135.0L281.5 135.5L278.5 116.0Q277.0 107.5 272.5 91.25Q268.0 75.0 263.0 59.5Q259.5 47.5 257.0 37.0Q254.5 26.5 254.5 22.0Q254.5 18.5 256.0 18.0Q257.0 17.0 262.75 16.75Q268.5 16.5 276.5 16.5Q288.0 16.5 300.5 17.25Q313.0 18.0 322.5 19.0Q332.0 20.0 333.5 22.0V23.0Q333.5 26.0 330.5 35.0Q327.5 44.0 322.5 54.5Q318.5 66.5 313.5 82.5Q308.5 98.5 306.5 107.5L304.5 135.5L343.5 136.0L382.5 135.5L378.0 114.0Q375.5 104.0 371.25 87.25Q367.0 70.5 362.0 57.0Q356.0 43.0 352.5 31.25Q349.0 19.5 348.5 17.5Q348.0 14.0 362.0 12.25Q376.0 10.5 393.5 10.5Q411.0 10.5 426.5 11.75Q442.0 13.0 445.5 15.5V15.0Q447.0 15.5 447.0 19.0Q447.0 22.5 444.25 28.0Q441.5 33.5 437.5 39.0Q428.5 51.5 422.75 65.75Q417.0 80.0 414.0 99.0Q411.0 118.0 409.75 145.75Q408.5 173.5 408.5 214.0V313.0L463.5 310.0Q485.5 309.0 498.0 308.25Q510.5 307.5 519.5 304.5Q528.5 301.5 538.25 295.25Q548.0 289.0 564.0 278.0Q566.5 276.5 575.25 270.5Q584.0 264.5 595.25 256.5Q606.5 248.5 617.0 240.25Q627.5 232.0 634.5 225.25Q641.5 218.5 641.5 215.0Q641.5 213.0 635.0 208.0V208.5Q630.0 205.0 614.0 199.75Q598.0 194.5 581.0 191.0L532.5 181.5L565.5 164.5Q577.0 158.5 592.75 148.75Q608.5 139.0 625.25 127.75Q642.0 116.5 656.75 105.25Q671.5 94.0 682.0 85.25Q692.5 76.5 695.5 72.5Q699.5 67.0 703.5 63.75Q707.5 60.5 709.5 60.5Q711.0 60.5 712.0 62.75Q713.0 65.0 713.0 66.0Q713.0 74.0 703.5 86.0Q694.5 98.5 684.75 114.25Q675.0 130.0 668.0 147.0Q661.0 164.0 661.0 180.0Q662.0 186.5 665.75 190.75Q669.5 195.0 673.0 195.0Q676.0 195.0 678.25 197.25Q680.5 199.5 680.5 202.5Q680.5 203.0 679.75 203.75Q679.0 204.5 679.0 205.5V206.0Q681.5 215.0 727.5 246.0Q760.0 268.5 779.0 284.25Q798.0 300.0 798.0 305.5Q798.0 309.0 793.5 309.0Q791.0 309.0 776.0 299.25Q761.0 289.5 742.5 276.0Q731.0 267.5 718.5 258.5Q706.0 249.5 695.25 242.25Q684.5 235.0 678.0 232.0L656.5 220.5Q651.0 227.5 642.5 239.75Q634.0 252.0 625.5 265.75Q617.0 279.5 611.25 291.25Q605.5 303.0 605.5 310.0Q605.5 319.0 613.25 331.25Q621.0 343.5 631.5 353.75Q642.0 364.0 649.0 368.0Q667.0 379.5 683.75 393.25Q700.5 407.0 711.75 418.5Q723.0 430.0 723.0 435.0V436.5Q722.5 439.0 719.5 439.0Q716.0 439.0 709.0 434.5Q702.0 430.0 694.5 423.5Q681.0 411.5 662.75 398.25Q644.5 385.0 624.75 372.25Q605.0 359.5 587.0 350.0Q569.0 340.5 557.0 336.5Q543.5 332.5 520.5 329.75Q497.5 327.0 466.5 327.0H408.5V339.0Q409.0 343.5 409.0 349.0Q409.0 354.5 409.0 360.0Q409.0 378.5 406.5 392.75Q404.0 407.0 400.0 407.0Q397.0 407.0 395.0 398.0Q393.0 389.0 393.0 378.0Q393.0 375.0 392.5 367.75Q392.0 360.5 391.25 354.0Q390.5 347.5 390.5 347.5L365.5 328.0Q363.5 328.0 354.25 327.5Q345.0 327.0 332.5 327.0H304.5L301.5 361.5Q301.0 378.0 299.5 389.25Q298.0 400.5 294.5 400.5Q291.0 400.5 289.25 389.25Q287.5 378.0 286.0 361.5L284.5 326.5L246.5 328.0L202.0 331.0L198.0 381.0Q196.5 407.5 192.0 407.5Q190.0 407.5 188.25 398.75Q186.5 390.0 186.0 377.0Q185.5 359.5 184.0 347.0Q182.5 334.5 182.5 334.5Q179.5 335.5 165.5 339.5Q151.5 343.5 134.0 347.5Q121.0 351.5 105.75 356.5Q90.5 361.5 77.25 366.25Q64.0 371.0 55.5 375.5Q41.0 381.5 31.5 384.75Q22.0 388.0 17.0 388.0Q10.0 388.0 10.0 382.5Q10.0 381.5 11.0 379.25Q12.0 377.0 13.0 374.5V375.0Q15.5 369.5 17.75 348.75Q20.0 328.0 20.0 304.5Q20.0 279.5 20.5 261.5Q21.0 243.5 23.5 243.5Q24.5 243.5 28.5 246.25Q32.5 249.0 39.5 254.0Q67.5 272.5 101.5 288.0Q135.5 303.5 169.5 305.5Q179.5 306.0 181.75 306.0Q184.0 306.0 184.0 306.0Q184.0 303.5 184.25 296.25Q184.5 289.0 184.5 279.5V253.0Q175.0 259.0 165.0 259.0Q161.0 259.0 161.0 255.5Q161.0 253.0 162.5 248.0Q164.0 244.0 165.0 233.75Q166.0 223.5 166.0 214.0Q166.0 200.5 167.75 195.5Q169.5 190.5 173.0 190.5Q174.0 190.5 175.25 190.5Q176.5 190.5 177.0 191.0Q179.5 192.0 182.0 193.75Q184.5 195.5 184.5 195.5V175.0Q182.5 176.0 181.0 177.0Q179.5 178.0 177.0 179.0Q176.5 179.0 175.75 179.25Q175.0 179.5 174.5 179.5Q170.5 179.5 168.5 172.0Q166.5 164.5 166.5 143.0V104.0L168.5 103.5Q169.5 103.5 174.0 106.0Q178.5 108.5 178.5 108.5Q177.5 106.0 176.75 104.25Q176.0 102.5 176.0 102.5Q176.0 102.5 172.25 92.5Q168.5 82.5 163.25 70.0Q158.0 57.5 154.0 49.5Q153.0 44.0 150.75 38.5Q148.5 33.0 147.0 28.5Q142.0 17.0 142.0 13.5ZM390.5 328.0V328.5Q390.0 328.0 388.5 327.0Q387.0 326.0 384.5 323.5L384.0 325.5Q384.0 325.5 384.25 325.75Q384.5 326.0 385.0 326.0Q386.0 326.0 387.5 326.0Q389.0 326.0 389.5 326.0H390.5V325.5Q390.5 326.0 390.5 326.5Q390.5 327.0 390.5 328.0Z" fill="black" /></svg>