<svg xmlns="http://www.w3.org/2000/svg" width="461.0" height="384.5" viewBox="0 0 461.0 384.5"><path d="M202.5 309.5Q193.5 304.0 185.5 304.0Q182.5 304.0 179.5 304.5Q176.5 305.0 173.5 306.5L168.5 308.0Q168.5 308.5 172.5 311.5Q175.5 313.5 179.75 320.0Q184.0 326.5 186.0 332.5L191.5 344.5Q194.0 341.0 196.75 337.5Q199.5 334.0 202.0 330.5Q212.0 318.5 213.5 316.0Q213.0 316.0 210.0 314.0Q207.0 311.5 202.5 309.5ZM75.5 226.0 97.0 236.5 47.0 186.5Q46.5 188.0 44.5 191.25Q42.5 194.5 40.0 198.5Q34.0 206.5 34.0 210.5Q34.0 213.0 40.5 213.0Q42.0 213.0 48.0 215.25Q54.0 217.5 62.0 221.0Q65.0 222.5 68.5 223.75Q72.0 225.0 75.5 226.0ZM256.0 120.5Q239.0 112.0 225.0 106.0Q211.0 100.0 208.0 100.0H207.5Q201.0 100.0 187.25 104.75Q173.5 109.5 156.0 117.25Q138.5 125.0 120.5 134.0Q102.5 143.0 87.75 151.5Q73.0 160.0 65.0 166.5L53.0 176.5Q59.0 183.0 64.75 188.75Q70.5 194.5 76.0 201.0Q89.5 214.0 108.25 230.0Q127.0 246.0 145.25 259.75Q163.5 273.5 175.5 281.0L190.0 288.5L224.5 275.5Q239.0 270.0 249.25 265.5Q259.5 261.0 261.0 259.5Q259.5 257.0 247.0 249.0Q234.5 241.0 216.75 231.0Q199.0 221.0 181.25 212.25Q163.5 203.5 151.5 199.0L116.0 185.5L136.5 176.5Q150.5 170.5 164.75 161.25Q179.0 152.0 189.0 143.5Q199.0 135.0 199.0 131.0Q199.0 123.0 204.0 123.0Q206.5 123.0 207.5 126.25Q208.5 129.5 208.5 133.5Q208.5 137.5 207.5 141.25Q206.5 145.0 204.5 146.0Q201.5 150.0 200.5 166.5Q200.0 168.5 200.0 170.5Q200.0 172.5 200.0 175.0Q200.0 187.5 204.0 198.5Q208.0 209.5 213.5 209.5Q218.0 209.5 225.0 219.0Q227.0 222.5 235.25 228.75Q243.5 235.0 252.5 240.5L275.5 255.5Q280.5 253.0 285.0 250.25Q289.5 247.5 294.5 245.0Q303.5 240.5 317.5 232.25Q331.5 224.0 346.0 215.25Q360.5 206.5 370.25 200.25Q380.0 194.0 380.0 193.0Q380.0 191.5 371.25 185.5Q362.5 179.5 348.25 171.0Q334.0 162.5 317.5 153.0Q301.0 143.5 284.75 135.0Q268.5 126.5 256.0 120.5ZM247.0 287.0Q253.5 281.5 258.5 277.0Q263.5 272.5 266.0 270.5Q262.5 271.5 256.0 274.25Q249.5 277.0 241.0 280.5L202.5 296.0L209.0 300.5Q217.0 307.5 220.5 307.5Q221.5 307.5 229.25 301.5Q237.0 295.5 247.0 287.0ZM100.0 132.0Q108.5 126.5 114.0 123.5Q119.5 120.5 121.0 119.0Q119.5 119.0 117.0 119.0Q114.5 119.0 111.0 119.5Q105.5 120.0 98.25 120.25Q91.0 120.5 84.0 120.5L58.5 122.0L57.0 141.5Q57.0 146.0 56.75 149.75Q56.5 153.5 56.5 156.0Q56.5 160.5 56.0 160.5Q57.0 160.5 62.0 156.5L64.0 155.5Q66.5 153.0 77.0 146.0Q87.5 139.0 100.0 132.0ZM190.5 170.5Q192.0 162.0 192.0 157.0V156.5Q190.0 158.0 183.25 162.25Q176.5 166.5 168.0 172.0L146.5 185.5L166.0 193.0Q171.5 195.0 177.25 197.25Q183.0 199.5 187.0 201.0Q189.5 202.0 191.25 202.75Q193.0 203.5 194.0 204.0Q196.0 205.0 196.5 205.0Q196.0 203.0 193.0 198.0Q190.0 190.5 190.0 180.0Q190.0 177.5 190.0 175.0Q190.0 172.5 190.5 170.5ZM180.0 34.0Q180.0 31.5 178.5 31.5Q175.5 31.5 173.0 39.0Q172.0 42.0 166.75 46.5Q161.5 51.0 156.0 53.0L145.0 57.5Q152.0 60.5 159.5 63.75Q167.0 67.0 174.0 70.0Q205.0 85.0 217.5 85.0Q221.5 85.0 221.5 83.5Q221.5 83.0 215.5 76.25Q209.5 69.5 201.0 60.5Q193.0 52.0 186.5 44.25Q180.0 36.5 180.0 34.0ZM192.5 91.0 193.0 91.5Q193.0 91.5 193.0 91.5Q193.0 91.5 192.5 91.0ZM246.0 99.5V100.0Q234.0 92.0 229.5 92.0Q227.5 92.0 227.5 93.5Q227.5 95.0 232.75 98.0Q238.0 101.0 244.25 103.75Q250.5 106.5 253.5 107.0Q252.0 104.5 246.0 99.5ZM167.5 26.5Q175.0 10.0 178.0 10.0Q181.5 10.0 183.5 20.5Q185.0 25.0 192.25 34.25Q199.5 43.5 209.0 53.5Q218.5 63.5 226.5 70.5Q234.5 77.5 237.5 77.5Q240.5 77.5 252.0 74.25Q263.5 71.0 277.0 66.5Q294.5 60.5 302.75 57.75Q311.0 55.0 314.0 55.0Q318.0 55.0 318.0 59.5Q318.0 62.0 308.25 66.5Q298.5 71.0 285.0 75.5Q271.0 79.0 260.75 83.0Q250.5 87.0 248.5 88.0Q249.5 90.5 260.25 98.5Q271.0 106.5 286.5 117.25Q302.0 128.0 318.0 138.75Q334.0 149.5 346.25 157.5Q358.5 165.5 362.5 168.0L393.0 187.5Q395.0 186.5 400.25 183.0Q405.5 179.5 407.5 178.0Q423.0 168.0 424.5 168.0Q427.0 168.0 427.0 172.5Q427.0 177.5 413.5 186.0L401.5 193.5L426.5 208.0Q437.0 214.5 444.0 219.75Q451.0 225.0 451.0 227.5L450.0 228.5Q449.5 229.0 448.5 229.0Q440.5 229.0 420.0 216.0Q410.0 210.0 401.5 205.5Q393.0 201.0 391.5 201.0Q390.0 201.0 380.5 206.5Q371.0 212.0 358.0 220.0Q345.0 228.0 331.75 237.0Q318.5 246.0 308.5 253.0Q298.5 260.0 295.5 262.5Q294.5 263.5 294.5 264.0Q294.5 267.5 315.0 283.0Q341.0 301.5 341.0 307.5Q341.0 310.5 338.0 310.5Q337.5 310.5 329.0 304.75Q320.5 299.0 309.0 290.5L283.0 272.0Q279.5 274.5 276.0 277.25Q272.5 280.0 269.0 282.5Q263.0 286.0 255.5 292.25Q248.0 298.5 242.5 304.0L232.0 315.0Q240.5 320.5 248.5 325.75Q256.5 331.0 264.5 336.5Q278.5 345.5 287.75 353.0Q297.0 360.5 297.0 363.0L296.0 364.5H295.0Q292.5 364.5 281.75 358.75Q271.0 353.0 257.0 344.5L223.5 322.5L212.0 334.5H212.5Q208.0 339.5 203.5 347.25Q199.0 355.0 196.5 360.0Q195.0 366.0 192.5 370.25Q190.0 374.5 188.5 374.5Q187.0 374.5 185.25 368.5Q183.5 362.5 182.5 354.0V354.5Q179.0 335.5 169.0 324.0H169.5Q158.0 314.0 158.0 306.5Q158.0 299.5 168.5 296.0Q175.5 293.5 175.5 293.0Q175.5 292.0 171.0 290.0Q166.0 287.0 152.5 279.5Q139.0 272.0 122.0 263.0Q105.0 254.0 89.25 246.0Q73.5 238.0 64.0 233.5Q54.5 229.0 42.75 226.0Q31.0 223.0 24.0 223.0Q10.0 222.0 10.0 217.5Q10.0 214.0 22.5 203.0Q32.0 194.5 37.5 181.75Q43.0 169.0 45.25 155.0Q47.5 141.0 47.5 129.0Q47.0 125.0 47.0 121.25Q47.0 117.5 47.0 115.5Q47.0 106.0 50.5 106.0Q51.5 106.0 53.5 107.0Q56.0 108.5 62.25 109.0Q68.5 109.5 76.5 109.5Q93.0 109.5 115.75 107.0Q138.5 104.5 158.0 100.0Q171.5 97.5 181.0 94.75Q190.5 92.0 192.0 91.0Q189.5 89.0 180.5 85.25Q171.5 81.5 160.5 77.0Q132.5 64.5 132.5 56.0Q132.5 50.5 147.0 46.0Q154.0 43.5 158.75 39.25Q163.5 35.0 167.5 26.5Z" fill="black" /></svg>