<svg xmlns="http://www.w3.org/2000/svg" width="750.5" height="389.5" viewBox="0 0 750.5 389.5"><path d="M65.5 254.0Q59.5 249.0 55.0 245.25Q50.5 241.5 50.0 241.5Q50.0 241.5 47.25 247.25Q44.5 253.0 41.5 261.5Q39.5 267.0 37.75 272.25Q36.0 277.5 34.5 281.5Q32.0 288.5 30.5 291.0Q30.0 293.0 29.5 293.5Q29.0 294.0 29.0 295.0L30.0 294.0Q33.0 294.0 39.0 292.5Q40.0 292.5 42.0 292.25Q44.0 292.0 46.0 292.0Q53.5 291.0 63.75 289.75Q74.0 288.5 84.0 288.0Q96.5 287.0 105.25 286.25Q114.0 285.5 114.0 285.5Q114.0 284.5 109.25 281.75Q104.5 279.0 97.5 276.5Q91.0 273.0 81.25 266.5Q71.5 260.0 65.5 254.0ZM137.0 141.0H129.5Q122.5 141.0 121.5 142.5Q121.5 144.5 126.5 150.5Q127.5 152.5 128.5 153.5Q129.5 154.5 130.0 155.0Q130.5 154.5 133.0 150.0V150.5Q137.0 143.5 137.0 141.0ZM164.5 229.5Q162.5 227.0 160.0 224.5Q157.5 222.0 157.0 222.0Q155.5 222.0 150.5 231.5L145.0 240.5H155.5Q169.5 240.5 169.5 237.5Q169.5 234.5 164.5 229.5ZM186.0 185.5Q182.5 179.5 181.0 179.5Q180.0 179.5 178.0 183.25Q176.0 187.0 174.25 191.25Q172.5 195.5 172.0 197.0Q173.5 197.0 178.0 196.5Q182.5 196.0 186.5 195.0Q190.5 194.0 190.5 192.5Q190.5 190.0 186.0 185.5ZM334.5 284.5Q334.0 284.0 329.25 282.25Q324.5 280.5 317.5 278.5H318.5Q311.0 277.0 304.75 276.0Q298.5 275.0 296.0 275.0H295.5Q295.0 276.5 294.5 281.25Q294.0 286.0 294.0 290.5V298.0Q296.0 298.0 304.5 295.25Q313.0 292.5 322.25 289.0Q331.5 285.5 334.5 284.5ZM204.0 144.0H210.0Q210.0 141.5 208.25 137.5Q206.5 133.5 204.0 133.5Q203.0 133.5 200.5 137.75Q198.0 142.0 198.0 144.5Q198.0 144.0 204.0 144.0ZM285.5 178.0 259.0 168.0Q246.5 162.5 233.75 159.5Q221.0 156.5 210.0 156.5Q200.0 156.5 192.5 159.0Q186.5 160.0 186.5 161.0Q186.5 163.0 188.25 166.0Q190.0 169.0 192.0 174.5Q195.0 180.5 199.5 184.5Q204.0 188.5 215.0 193.25Q226.0 198.0 248.5 206.5Q261.5 211.5 269.5 213.75Q277.5 216.0 282.0 217.0Q286.0 215.5 287.0 208.5Q287.0 206.0 286.75 203.5Q286.5 201.0 286.5 198.5ZM409.0 237.0H408.5V236.0Q406.0 232.5 399.5 229.5Q397.5 227.5 395.0 227.5Q394.0 227.5 394.0 237.0Q394.0 241.5 394.5 244.75Q395.0 248.0 395.5 248.0Q399.0 248.0 403.75 243.75Q408.5 239.5 409.0 237.0ZM491.5 254.0V251.0L491.0 241.5H462.5Q439.5 241.5 425.25 246.75Q411.0 252.0 401.0 264.5Q394.0 272.5 394.0 274.0Q394.0 277.5 405.0 278.0Q416.0 278.5 442.5 278.5H450.0Q475.5 278.5 484.25 277.0Q493.0 275.5 493.0 267.5Q493.0 261.5 491.5 254.0ZM318.5 48.0Q318.5 48.5 310.75 48.75Q303.0 49.0 292.5 49.0Q278.5 49.0 273.5 49.25Q268.5 49.5 268.5 50.5L269.5 52.5Q274.0 62.0 278.75 76.25Q283.5 90.5 286.75 102.75Q290.0 115.0 290.0 118.5Q290.0 124.5 291.0 124.5Q294.0 124.5 299.0 104.5Q300.5 95.5 304.25 84.25Q308.0 73.0 311.0 66.0Q314.5 58.5 316.5 53.5Q318.5 48.5 318.5 48.0ZM331.0 124.0 324.5 120.0Q316.5 115.0 314.5 115.0Q313.0 115.0 313.0 125.5Q313.0 136.0 314.5 136.0Q316.5 136.0 319.0 134.25Q321.5 132.5 325.0 130.0ZM427.5 118.0Q421.0 116.0 414.5 114.0Q408.0 112.0 405.5 111.5H404.5Q403.0 111.5 402.25 114.5Q401.5 117.5 401.5 125.5Q401.5 139.5 404.0 139.5H404.5L409.0 138.0Q413.0 137.0 418.75 134.75Q424.5 132.5 430.0 130.5Q445.5 126.0 445.5 124.5Q445.5 123.0 427.5 118.0ZM391.0 142.5V129.0L371.0 130.0Q357.5 130.0 349.25 131.5Q341.0 133.0 335.0 137.0Q329.0 141.0 322.0 149.0Q316.5 155.5 311.75 159.75Q307.0 164.0 306.5 164.0Q304.5 164.0 303.5 159.75Q302.5 155.5 302.0 149.0Q302.0 148.0 302.0 147.0Q302.0 146.0 302.0 145.5Q300.5 149.0 299.5 161.5Q298.5 174.0 297.75 190.0Q297.0 206.0 297.0 221.5Q297.0 237.0 297.5 248.0Q298.0 259.0 299.0 260.5Q302.0 262.5 313.0 265.75Q324.0 269.0 338.25 272.0Q352.5 275.0 365.0 277.0L384.0 279.5V241.5Q384.0 199.0 389.5 199.0Q392.5 199.0 397.0 209.5Q402.5 219.5 416.25 224.5Q430.0 229.5 456.5 229.5H468.0Q479.5 229.5 485.0 228.75Q490.5 228.0 491.5 226.0V226.5Q493.5 221.5 497.0 221.5Q499.0 221.5 502.5 225.0Q503.5 225.5 505.0 226.5Q506.5 227.5 507.0 227.5Q510.0 226.5 510.0 209.5Q510.0 196.5 504.0 181.25Q498.0 166.0 491.0 159.5Q484.0 154.0 484.0 150.5Q485.5 144.0 516.0 144.0Q529.0 144.0 538.5 145.0Q548.0 146.0 548.0 148.5Q548.0 152.5 535.5 162.5Q526.5 170.5 522.5 185.75Q518.5 201.0 517.5 226.5Q518.5 238.0 530.0 245.0Q541.5 252.0 563.0 252.0H584.0V197.5Q584.0 174.5 583.0 156.75Q582.0 139.0 581.0 137.5Q579.0 135.0 566.0 133.75Q553.0 132.5 523.5 132.0Q500.0 132.0 486.0 132.5Q472.0 133.0 461.75 134.75Q451.5 136.5 439.0 140.5Q426.5 144.0 416.5 148.0Q406.5 152.0 405.5 154.5Q400.0 159.5 397.0 159.5Q391.0 159.5 391.0 142.5ZM522.0 156.5H511.5Q502.5 156.5 502.5 157.5Q502.5 159.0 506.5 164.75Q510.5 170.5 511.5 170.5Q513.5 170.5 516.0 165.5Q518.5 163.0 520.25 160.25Q522.0 157.5 522.0 156.5ZM507.0 248.0Q506.0 245.0 504.0 245.0Q503.0 245.0 502.5 249.75Q502.0 254.5 502.0 260.0Q502.0 265.5 502.5 270.5Q503.0 275.5 505.0 276.5H505.5Q510.0 276.5 518.5 273.75Q527.0 271.0 534.25 267.5Q541.5 264.0 541.5 262.0Q541.5 259.5 532.5 257.5Q523.5 255.5 516.0 255.0Q511.5 255.0 507.0 248.0ZM84.0 67.5Q80.5 64.0 76.5 61.25Q72.5 58.5 70.5 57.0L69.0 56.0Q68.0 57.5 67.25 64.25Q66.5 71.0 66.0 79.75Q65.5 88.5 65.25 95.75Q65.0 103.0 65.0 106.0Q67.0 106.0 71.5 102.5Q74.0 100.5 81.0 97.25Q88.0 94.0 95.5 90.5Q108.0 84.0 108.0 81.0Q108.0 79.5 102.5 79.5Q101.0 79.5 95.25 76.0Q89.5 72.5 84.0 67.5ZM602.5 63.5H585.5Q578.0 63.5 572.75 64.0Q567.5 64.5 567.5 65.0Q567.5 66.5 569.75 72.25Q572.0 78.0 574.75 84.75Q577.5 91.5 580.0 96.5Q582.5 101.5 583.0 101.5Q584.5 101.5 592.0 85.0Q594.5 80.0 596.5 76.25Q598.5 72.5 600.0 69.0Q601.0 66.5 601.75 65.25Q602.5 64.0 602.5 63.5ZM712.5 28.5 713.0 27.0Q713.0 26.0 708.5 26.0Q704.0 26.0 691.5 26.0Q681.5 26.0 674.75 25.75Q668.0 25.5 668.0 25.0Q668.0 25.5 670.5 31.5Q673.0 37.5 676.5 46.0Q680.5 54.5 684.0 64.25Q687.5 74.0 688.5 79.5Q689.5 83.5 690.75 87.0Q692.0 90.5 692.5 90.5Q693.0 90.5 695.5 82.5Q698.0 74.5 701.5 63.5Q704.5 52.5 708.0 42.25Q711.5 32.0 712.5 28.5ZM659.5 12.5Q663.0 11.5 676.0 10.75Q689.0 10.0 703.5 10.0H715.5Q729.0 10.0 734.75 11.75Q740.5 13.5 740.5 17.0Q740.5 19.5 737.75 22.75Q735.0 26.0 731.0 27.0Q723.0 31.0 714.5 56.0Q709.0 73.0 705.25 91.0Q701.5 109.0 700.0 131.5Q698.5 154.0 698.5 185.5Q698.5 195.5 698.5 206.75Q698.5 218.0 699.0 230.0Q700.0 240.0 700.0 249.75Q700.0 259.5 700.0 268.0Q700.0 290.5 698.5 304.25Q697.0 318.0 696.0 318.0Q694.5 318.0 693.0 310.0Q691.5 302.0 691.0 289.5L689.5 266.0L636.0 265.0H618.0Q544.5 265.0 537.0 281.5Q530.5 291.0 521.5 291.0Q517.5 291.0 512.5 292.0Q507.5 293.0 504.0 295.0Q499.0 298.0 497.0 298.0Q494.0 298.0 491.5 294.0Q491.0 292.5 483.25 291.75Q475.5 291.0 458.0 291.0Q450.0 291.0 439.25 291.0Q428.5 291.0 415.5 292.0Q385.0 292.5 367.25 293.5Q349.5 294.5 339.5 296.25Q329.5 298.0 321.5 301.0Q313.0 303.5 307.5 306.5Q302.0 309.5 301.0 310.5Q302.0 311.0 307.75 312.5Q313.5 314.0 320.5 315.5Q347.5 320.5 347.5 325.5Q347.5 328.5 341.5 328.5Q339.5 328.5 336.5 328.25Q333.5 328.0 329.5 327.5L320.5 327.0Q315.0 326.0 311.0 325.75Q307.0 325.5 304.0 325.5Q297.5 325.5 296.5 328.75Q295.5 332.0 295.5 342.0V349.0Q294.5 362.0 293.0 370.75Q291.5 379.5 288.5 379.5Q287.0 379.5 285.25 370.25Q283.5 361.0 282.5 347.5L282.0 320.0L221.5 307.5Q200.5 303.5 186.75 301.0Q173.0 298.5 162.5 297.5Q152.0 296.5 140.5 296.5Q116.5 296.5 91.5 298.0Q66.5 299.5 43.0 304.5Q32.0 306.5 25.25 308.25Q18.5 310.0 15.0 310.0Q10.0 310.0 10.0 305.5Q10.0 301.5 15.5 293.5Q22.0 284.5 28.0 269.25Q34.0 254.0 44.0 223.0L45.5 221.5Q47.0 221.5 54.0 226.5Q61.0 231.5 69.0 240.5Q80.5 251.5 91.0 258.75Q101.5 266.0 112.5 270.5Q119.0 273.0 136.0 277.0Q153.0 281.0 175.0 286.0Q197.0 291.0 218.5 295.5Q240.0 300.0 256.0 303.0Q272.0 306.0 276.5 306.0H279.0Q281.5 306.0 282.5 303.25Q283.5 300.5 284.0 289.75Q284.5 279.0 285.0 255.0V238.5Q285.0 234.0 278.5 230.5Q272.0 227.0 250.0 219.0Q234.5 213.5 221.5 210.25Q208.5 207.0 192.0 207.0Q183.0 208.0 176.0 209.0Q169.0 210.0 168.0 211.0V211.5Q168.0 215.0 171.0 220.5Q173.5 225.0 180.25 229.5Q187.0 234.0 201.5 239.75Q216.0 245.5 241.0 254.0Q252.5 258.5 261.5 263.0Q270.5 267.5 270.5 270.5Q270.5 275.0 266.5 275.0H265.0Q238.5 265.0 221.75 259.5Q205.0 254.0 193.5 251.75Q182.0 249.5 172.0 249.5Q169.0 249.5 166.25 250.0Q163.5 250.5 160.0 250.5Q144.5 252.5 139.25 254.25Q134.0 256.0 132.5 260.0Q129.0 266.5 127.0 266.5Q122.0 266.5 122.0 241.5Q122.0 236.0 122.25 230.75Q122.5 225.5 123.0 219.0Q123.0 214.5 123.25 210.5Q123.5 206.5 123.5 202.5Q123.5 181.5 120.0 165.75Q116.5 150.0 109.5 144.0Q102.5 139.5 102.5 136.0Q102.5 129.0 129.5 129.0Q140.0 129.0 147.75 130.0Q155.5 131.0 155.5 133.0Q155.5 138.0 148.0 147.0Q141.5 156.0 137.0 176.0Q132.5 196.0 132.5 216.0Q132.5 232.5 135.5 232.5Q138.5 232.5 144.5 220.0Q147.0 213.0 152.0 204.25Q157.0 195.5 161.5 189.5Q165.5 182.5 172.75 168.75Q180.0 155.0 186.0 142.5Q192.0 129.0 197.75 119.5Q203.5 110.0 204.5 110.0Q209.5 110.0 212.0 120.0Q213.5 127.0 222.5 134.5Q231.5 142.0 243.25 148.25Q255.0 154.5 265.75 158.5Q276.5 162.5 282.5 162.5Q286.5 162.5 286.5 157.5Q286.5 149.0 283.75 135.0Q281.0 121.0 276.75 105.25Q272.5 89.5 267.5 76.5Q262.5 63.5 258.0 57.0Q254.5 51.0 251.75 46.0Q249.0 41.0 249.0 40.5Q249.0 38.0 257.75 37.0Q266.5 36.0 279.0 36.0Q290.5 36.0 302.75 36.5Q315.0 37.0 324.0 38.0Q333.0 39.0 334.5 40.5V40.0Q337.5 42.0 337.5 45.0Q337.5 49.0 332.5 53.5Q330.0 55.5 325.5 63.25Q321.0 71.0 317.5 79.25Q314.0 87.5 314.0 91.0Q314.0 93.0 315.5 94.75Q317.0 96.5 319.0 99.5Q328.0 109.0 339.5 113.0Q351.0 117.0 369.5 117.0H391.0V106.0Q391.0 91.0 396.5 90.5Q397.5 91.0 399.75 92.25Q402.0 93.5 404.5 96.5Q411.0 102.0 428.25 106.75Q445.5 111.5 470.25 115.0Q495.0 118.5 523.5 120.0L576.5 122.5L574.0 114.0Q573.0 110.0 569.0 99.75Q565.0 89.5 560.5 81.0Q555.5 72.0 552.25 64.25Q549.0 56.5 549.0 56.0Q549.0 54.0 559.5 53.0Q570.0 52.0 585.5 52.0Q600.5 52.0 610.75 53.0Q621.0 54.0 621.0 56.0Q621.0 57.0 617.75 62.75Q614.5 68.5 609.0 76.5Q604.5 83.0 600.5 92.25Q596.5 101.5 595.5 107.5L593.5 121.0H617.5Q628.5 121.0 636.25 122.5Q644.0 124.0 644.0 127.0Q644.0 130.5 636.75 132.0Q629.5 133.5 618.0 133.5H610.0Q600.0 133.5 596.25 137.0Q592.5 140.5 592.5 156.5Q592.5 163.0 593.0 171.25Q593.5 179.5 593.5 191.0L596.5 254.0L642.0 255.0H688.0L688.5 224.5Q688.5 215.5 689.0 206.75Q689.5 198.0 689.5 190.0Q689.5 158.0 687.5 133.75Q685.5 109.5 682.0 94.0Q679.0 81.0 673.25 66.0Q667.5 51.0 662.0 40.25Q656.5 29.5 653.5 29.5Q648.5 29.5 648.5 24.5Q648.5 21.0 651.5 17.0Q654.5 13.0 659.5 12.5ZM59.0 53.5Q59.5 41.5 62.0 35.0Q64.5 28.5 66.5 28.5Q69.5 28.5 73.0 37.5Q75.0 42.5 82.0 49.5Q89.0 56.5 98.0 62.5Q107.0 68.5 114.5 70.5Q121.0 72.5 135.0 73.75Q149.0 75.0 162.0 75.0Q177.5 75.0 194.0 76.0Q210.5 77.0 224.5 78.5Q238.5 80.0 247.25 81.5Q256.0 83.0 256.0 84.5Q256.0 86.0 245.5 87.0Q235.0 88.0 218.5 88.0H193.5L132.5 86.5L106.5 98.5Q95.5 103.5 83.75 109.75Q72.0 116.0 67.0 120.0Q62.5 124.0 58.25 126.25Q54.0 128.5 52.0 128.5H51.5Q51.5 128.5 51.0 126.75Q50.5 125.0 50.5 124.0Q50.5 116.5 53.0 100.0Q54.0 93.0 55.25 83.25Q56.5 73.5 57.5 65.0Q58.0 61.5 58.25 58.5Q58.5 55.5 59.0 53.5Z" fill="black" /></svg>