<svg xmlns="http://www.w3.org/2000/svg" width="681.5" height="372.5" viewBox="0 0 681.5 372.5"><path d="M48.5 250.5V250.0Q41.5 245.5 35.25 241.75Q29.0 238.0 27.5 237.5Q26.5 238.0 25.75 244.75Q25.0 251.5 25.0 261.5Q25.0 273.5 25.75 278.5Q26.5 283.5 28.5 283.5Q29.5 283.5 30.0 283.0V283.5Q31.0 282.5 33.25 281.0Q35.5 279.5 38.5 277.5Q41.5 275.5 44.75 273.5Q48.0 271.5 51.0 269.5L65.0 260.0Q61.0 257.5 56.75 255.0Q52.5 252.5 48.5 250.5ZM285.0 286.5 284.5 286.0Q284.5 285.5 277.25 284.5Q270.0 283.5 261.0 282.5L241.0 280.5L244.0 289.5Q254.5 319.5 262.0 319.5Q266.0 319.5 266.0 315.0Q266.0 312.5 269.25 307.25Q272.5 302.0 277.0 297.5Q280.5 293.5 282.75 290.5Q285.0 287.5 285.0 286.5ZM417.5 244.0Q401.5 236.5 395.5 233.0L393.5 232.0Q393.0 232.0 392.75 231.75Q392.5 231.5 392.0 231.5Q391.5 231.5 391.0 235.25Q390.5 239.0 389.5 251.5L389.0 257.5Q388.5 261.0 388.5 264.5Q388.5 268.0 388.5 271.0Q388.5 281.5 389.0 281.5Q390.0 281.5 394.5 279.0Q399.0 276.5 404.0 273.0Q409.5 269.0 416.25 265.25Q423.0 261.5 428.0 260.5H427.5Q436.0 257.5 437.0 256.0Q436.5 252.5 417.5 244.0ZM92.5 124.0 80.5 114.0Q75.5 110.0 71.0 106.75Q66.5 103.5 65.5 103.5Q65.0 103.5 64.25 109.0Q63.5 114.5 63.5 123.0Q63.5 131.0 64.0 137.25Q64.5 143.5 65.0 143.5Q66.0 143.5 70.5 140.25Q75.0 137.0 80.5 133.5ZM247.0 120.0Q247.0 118.5 245.0 118.5Q244.0 118.5 239.5 119.25Q235.0 120.0 231.25 121.25Q227.5 122.5 227.5 124.0Q227.5 125.5 230.5 131.5V131.0Q234.0 137.5 235.5 137.5Q237.0 137.5 239.75 133.75Q242.5 130.0 244.75 125.5Q247.0 121.0 247.0 120.0ZM297.0 85.0Q296.5 82.5 295.5 77.75Q294.5 73.0 293.0 67.5L288.0 51.5L260.0 80.5L277.0 83.5Q287.0 85.0 297.0 85.0ZM407.5 129.0Q400.5 124.0 395.25 120.75Q390.0 117.5 389.0 117.5V145.0Q389.5 154.5 390.0 161.75Q390.5 169.0 391.0 170.0Q394.0 169.0 401.25 165.5Q408.5 162.0 416.75 157.25Q425.0 152.5 431.0 148.5Q437.0 144.5 437.0 142.5Q437.0 141.5 431.5 141.5Q429.5 141.5 422.25 137.75Q415.0 134.0 407.5 129.0ZM618.0 84.0 626.5 70.0H589.5L596.0 84.5Q599.0 91.0 601.75 95.25Q604.5 99.5 606.0 100.5Q607.0 100.0 610.5 95.25Q614.0 90.5 618.0 84.0ZM13.5 245.5Q13.5 229.0 14.5 217.0Q15.5 205.0 17.0 205.0Q18.0 205.0 24.25 211.0Q30.5 217.0 38.5 225.5L57.5 245.5L130.5 247.0Q166.0 247.5 184.5 250.0Q203.0 252.5 203.0 255.0Q203.0 257.0 189.5 258.75Q176.0 260.5 146.5 260.5Q125.0 260.5 110.75 261.5Q96.5 262.5 85.25 266.0Q74.0 269.5 62.25 276.75Q50.5 284.0 33.5 296.0Q21.5 308.0 14.5 308.0Q10.0 308.0 10.0 301.0Q10.0 300.0 10.25 298.5Q10.5 297.0 11.0 295.0Q12.0 291.0 12.75 276.5Q13.5 262.0 13.5 245.5ZM52.0 176.5V123.5Q52.0 102.5 53.5 87.0Q55.0 71.5 57.0 71.5Q59.0 71.5 63.75 76.75Q68.5 82.0 72.5 89.0Q80.5 101.5 92.25 106.75Q104.0 112.0 132.5 112.0Q143.5 112.0 157.5 111.25Q171.5 110.5 188.5 109.5Q208.5 108.5 226.25 107.25Q244.0 106.0 256.75 104.5Q269.5 103.0 273.0 102.5Q275.5 102.0 277.25 101.75Q279.0 101.5 280.5 101.5Q287.0 101.5 287.0 106.5Q287.0 112.5 280.0 112.5Q277.5 112.5 272.25 116.25Q267.0 120.0 261.5 125.0Q251.0 137.0 245.25 148.0Q239.5 159.0 237.25 173.25Q235.0 187.5 235.0 209.0Q235.0 227.5 233.25 239.25Q231.5 251.0 229.0 251.0Q227.0 251.0 225.5 239.25Q224.0 227.5 224.0 207.5V195.0Q224.0 172.5 222.5 154.0Q221.0 135.5 218.5 132.0Q216.0 126.5 209.0 124.5Q202.0 122.5 186.0 122.5Q177.5 122.5 165.5 123.0Q153.5 123.5 137.5 125.0Q123.0 126.5 114.75 128.5Q106.5 130.5 99.25 135.5Q92.0 140.5 79.5 151.5ZM296.0 25.5Q308.5 10.0 314.5 10.0Q317.0 10.0 317.0 13.5Q317.0 17.0 312.5 24.5Q308.5 30.0 306.5 38.75Q304.5 47.5 304.5 56.0Q304.5 63.5 305.75 71.0Q307.0 78.5 310.0 85.0Q312.5 90.0 321.25 99.0Q330.0 108.0 341.25 117.0Q352.5 126.0 362.5 132.25Q372.5 138.5 377.0 138.5Q380.0 138.5 380.0 131.0Q380.0 125.5 378.5 116.0Q377.0 106.0 377.0 99.5Q377.0 91.0 379.5 91.0Q380.5 91.0 388.0 96.5Q395.5 102.0 404.5 110.0Q415.0 119.0 424.5 124.0Q434.0 129.0 449.0 131.0Q464.0 133.0 490.0 133.0Q498.5 133.0 508.25 133.0Q518.0 133.0 529.0 132.5L592.0 131.5L591.0 112.5Q590.5 96.5 583.5 83.75Q576.5 71.0 566.5 67.5Q563.0 66.0 559.75 64.0Q556.5 62.0 556.5 60.0Q556.5 57.5 572.25 56.5Q588.0 55.5 607.5 55.5Q622.5 55.5 636.5 56.0Q650.5 56.5 660.0 57.25Q669.5 58.0 670.5 59.5Q671.5 60.0 671.5 61.5Q671.5 65.0 663.5 65.0Q652.5 65.0 640.0 76.75Q627.5 88.5 618.5 106.5Q614.5 114.0 612.25 120.75Q610.0 127.5 608.75 138.25Q607.5 149.0 607.0 167.25Q606.5 185.5 606.5 216.5Q606.0 254.5 604.5 280.75Q603.0 307.0 600.5 309.5H601.0Q599.5 311.0 599.0 311.0Q594.5 311.0 594.5 283.5V255.5H533.5Q506.0 255.5 491.0 256.25Q476.0 257.0 466.0 259.5Q456.0 262.0 443.0 267.5Q431.0 272.5 417.75 279.25Q404.5 286.0 398.0 291.0Q391.5 296.0 385.75 299.75Q380.0 303.5 379.0 303.5Q376.5 303.5 376.5 294.0Q376.5 285.5 378.0 276.0Q379.5 264.0 379.5 255.0Q379.5 247.0 378.0 245.5H377.5Q374.0 245.5 364.25 250.25Q354.5 255.0 342.25 262.5Q330.0 270.0 317.75 278.75Q305.5 287.5 296.25 295.25Q287.0 303.0 283.5 308.0Q276.5 317.0 275.0 324.25Q273.5 331.5 273.5 342.0V348.5Q273.5 362.5 269.0 362.5Q263.5 362.5 253.5 339.0Q247.5 323.0 240.25 307.75Q233.0 292.5 226.5 281.0Q220.0 269.5 216.0 265.0Q213.5 262.0 210.75 256.0Q208.0 250.0 207.0 245.0Q206.5 242.0 205.5 238.75Q204.5 235.5 203.5 232.5L205.0 231.0L216.5 244.5Q227.0 257.0 245.0 264.5Q263.0 272.0 283.0 272.0Q295.0 272.0 307.0 267.25Q319.0 262.5 341.0 249.0Q363.0 235.5 370.0 230.0Q377.0 224.5 377.0 218.5Q377.0 217.5 376.75 216.75Q376.5 216.0 376.5 215.0Q376.0 213.5 376.0 212.0Q376.0 210.5 376.0 209.5Q376.0 201.0 380.5 201.0Q385.0 201.0 398.5 215.5Q408.5 226.0 419.75 231.75Q431.0 237.5 449.0 240.0Q467.0 242.5 496.0 242.5Q502.0 242.5 508.5 242.25Q515.0 242.0 522.0 242.0L592.0 240.5L595.0 146.5H533.5Q506.0 146.5 491.0 147.25Q476.0 148.0 466.0 150.5Q456.0 153.0 443.0 158.5Q431.0 163.5 417.75 170.0Q404.5 176.5 398.0 181.5Q391.5 186.5 385.75 190.25Q380.0 194.0 379.0 194.0Q376.0 194.0 376.0 184.0Q376.0 181.5 376.0 179.25Q376.0 177.0 376.5 175.0Q377.0 172.5 377.0 170.5Q377.0 168.5 377.0 167.0Q377.0 160.0 371.75 154.75Q366.5 149.5 349.0 136.5Q318.0 114.5 298.25 104.5Q278.5 94.5 263.0 94.5Q250.0 94.5 239.0 101.0Q232.0 104.5 226.0 104.5Q219.0 104.5 219.0 100.0Q219.0 96.0 225.5 92.5Q229.0 90.5 238.25 82.5Q247.5 74.5 258.5 63.75Q269.5 53.0 279.75 42.75Q290.0 32.5 296.0 25.5Z" fill="black" /></svg>