<svg xmlns="http://www.w3.org/2000/svg" width="711.0" height="383.5" viewBox="0 0 711.0 383.5"><path d="M59.0 298.5Q58.5 289.0 55.5 288.0Q53.5 288.0 51.25 290.0Q49.0 292.0 45.5 295.5Q40.5 301.5 40.5 302.0Q40.5 302.5 51.5 305.5Q54.0 306.0 55.75 306.25Q57.5 306.5 58.5 306.5Q58.5 306.5 59.25 306.0Q60.0 305.5 60.0 305.0Q60.0 304.0 59.5 302.25Q59.0 300.5 59.0 298.5ZM122.5 243.5Q123.5 242.5 124.25 241.25Q125.0 240.0 125.5 239.5Q124.5 240.5 120.0 240.5Q112.5 240.5 112.5 242.0Q112.5 246.0 116.5 246.0Q120.5 246.0 122.5 243.5ZM125.5 285.5Q120.0 283.5 117.0 283.5Q117.0 283.5 116.75 284.5Q116.5 285.5 116.5 287.0Q116.5 291.0 118.5 291.0Q121.5 291.0 126.0 288.0L128.5 286.5Q128.5 286.5 125.5 285.5ZM281.5 262.5Q274.0 257.5 271.5 257.5Q270.5 257.5 269.25 266.75Q268.0 276.0 267.0 287.25Q266.0 298.5 266.0 305.0V307.0Q267.0 307.0 279.25 302.25Q291.5 297.5 308.0 290.0L342.5 276.0L321.0 272.5Q308.5 270.0 297.25 267.25Q286.0 264.5 281.5 262.5ZM135.0 161.5Q135.0 159.0 134.25 157.0Q133.5 155.0 132.5 155.0Q129.0 155.0 126.0 158.25Q123.0 161.5 123.0 164.5Q127.0 167.5 129.0 167.5Q135.0 167.5 135.0 161.5ZM186.0 254.5Q188.0 254.5 192.75 247.5Q197.5 240.5 198.0 238.0Q195.5 238.0 188.25 241.25Q181.0 244.5 181.0 246.0Q181.0 247.5 184.5 253.0Q184.5 254.5 186.0 254.5ZM323.0 207.5H322.5Q319.0 202.5 317.0 202.5V208.5Q317.0 213.0 319.5 213.0Q320.0 213.0 320.5 212.5Q321.0 212.0 321.5 212.0Q323.5 211.5 324.0 211.0Q324.5 210.5 324.5 210.5Q324.5 209.5 323.0 207.5ZM412.5 175.0Q410.5 170.5 403.25 169.25Q396.0 168.0 373.5 168.0Q351.5 168.0 343.0 169.5Q334.5 171.0 327.5 176.5L318.0 184.0Q320.5 187.0 323.75 190.0Q327.0 193.0 329.5 196.5Q336.5 203.5 341.0 206.5Q345.5 209.5 354.0 210.0Q362.5 210.5 380.5 210.5H416.5V197.0Q416.5 191.5 415.25 185.0Q414.0 178.5 412.5 175.0ZM480.0 187.5Q478.5 188.0 471.75 187.75Q465.0 187.5 456.0 187.0L432.5 186.0V222.5L444.5 214.5Q446.5 212.0 449.5 209.75Q452.5 207.5 455.5 205.5Q459.5 202.5 463.25 199.75Q467.0 197.0 469.5 195.0V195.5Q472.5 192.5 475.75 190.25Q479.0 188.0 480.0 187.5ZM171.5 66.5Q171.5 65.5 164.5 65.5Q161.0 65.5 158.0 66.25Q155.0 67.0 155.0 68.0Q155.0 69.5 161.5 69.5Q168.5 69.5 171.5 66.5ZM208.0 145.0V146.0Q203.0 142.0 200.5 142.0Q197.5 142.0 195.5 150.0Q193.5 158.0 193.5 160.5Q195.0 160.5 203.5 155.0Q210.0 149.0 210.0 148.0Q210.0 147.0 208.0 145.0ZM195.0 70.5Q186.0 72.0 173.0 79.0Q165.0 83.0 161.25 86.0Q157.5 89.0 155.75 96.25Q154.0 103.5 151.5 120.5Q147.0 150.5 147.0 162.0Q147.0 174.5 152.0 180.75Q157.0 187.0 169.0 197.0Q179.0 204.5 187.25 210.25Q195.5 216.0 198.0 217.0H199.0Q202.0 216.5 213.25 210.0Q224.5 203.5 239.5 194.0Q254.5 184.5 268.5 174.5Q282.5 164.5 292.0 157.25Q301.5 150.0 301.5 148.0Q301.5 147.5 291.25 147.0Q281.0 146.5 266.5 146.5H230.0L211.5 163.5Q204.5 171.0 199.0 177.25Q193.5 183.5 193.5 185.5Q193.5 193.5 187.5 193.5Q182.0 193.5 182.0 177.0Q182.0 171.0 182.5 162.0Q183.0 153.0 184.5 140.5Q185.5 129.0 188.0 120.75Q190.5 112.5 192.0 112.5Q197.5 112.5 197.5 120.5Q197.5 126.0 205.0 129.0Q208.0 130.5 218.75 132.0Q229.5 133.5 243.25 134.5Q257.0 135.5 268.0 135.5Q275.0 135.5 280.0 135.0Q285.0 134.5 286.5 134.0Q288.5 133.0 289.0 133.0Q289.5 133.0 289.5 133.0Q289.5 132.0 286.5 129.0Q283.5 126.0 276.0 120.0Q260.0 107.0 249.25 100.0Q238.5 93.0 230.0 89.0Q221.5 85.0 211.0 82.0H211.5Q193.5 78.0 193.5 73.0Q193.5 72.0 195.0 70.5ZM250.0 53.5Q250.0 53.0 250.25 52.75Q250.5 52.5 250.5 52.0Q245.5 55.0 239.25 59.25Q233.0 63.5 228.25 67.0Q223.5 70.5 223.5 71.5Q223.5 72.0 226.75 73.5Q230.0 75.0 234.5 76.5Q238.5 78.5 240.5 79.0Q242.5 79.5 244.0 79.5Q245.5 79.5 245.5 73.0Q245.5 69.0 247.0 63.0Q248.5 57.0 250.0 53.5ZM335.5 158.0Q335.5 157.0 333.75 155.75Q332.0 154.5 329.5 153.5Q329.5 153.5 329.0 153.0Q328.5 152.5 327.5 152.5Q325.5 152.5 325.5 155.0Q325.5 159.0 330.5 159.0Q335.5 159.0 335.5 158.0ZM334.0 64.0Q330.0 61.5 327.0 59.5Q324.0 57.5 323.0 57.5Q322.0 57.5 319.5 64.75Q317.0 72.0 314.75 80.0Q312.5 88.0 312.5 91.0Q312.5 90.0 319.5 90.0Q329.0 90.0 346.0 88.0Q363.0 86.0 379.5 84.0L385.0 83.5L369.0 78.0Q359.5 74.5 349.0 70.75Q338.5 67.0 334.0 64.0ZM449.5 44.5Q448.5 44.0 444.25 44.0Q440.0 44.0 433.0 44.0Q423.5 44.0 420.0 44.25Q416.5 44.5 416.5 45.5Q416.5 47.0 417.5 48.5Q418.5 52.0 420.0 57.25Q421.5 62.5 422.5 68.0Q425.0 78.0 427.0 78.0Q434.0 78.0 449.5 44.5ZM553.5 119.0Q525.0 113.5 500.5 108.5Q476.0 103.5 460.25 100.0Q444.5 96.5 442.0 96.0H441.5Q436.0 96.0 432.5 102.0V101.0Q430.5 105.5 429.5 117.0Q428.5 128.5 428.5 140.5Q428.5 150.0 429.25 157.5Q430.0 165.0 431.5 167.5Q435.0 174.0 454.0 174.0Q467.0 174.0 489.0 170.75Q511.0 167.5 546.0 161.5Q569.0 157.0 589.75 153.0Q610.5 149.0 625.0 146.5Q639.5 144.0 643.5 143.5L655.5 140.5Q655.5 140.5 641.75 137.75Q628.0 135.0 604.75 130.0Q581.5 125.0 553.5 119.0ZM10.0 315.5Q10.0 312.5 18.0 304.0Q26.0 295.5 36.75 285.75Q47.5 276.0 56.5 269.0Q65.5 262.0 68.0 262.0Q71.5 262.0 71.5 271.5V277.5Q70.5 279.5 70.25 282.75Q70.0 286.0 70.0 289.5Q70.0 293.0 70.25 296.25Q70.5 299.5 71.5 302.0Q73.0 308.0 76.25 312.5Q79.5 317.0 88.5 323.0Q97.5 329.0 115.5 340.0Q133.0 350.5 145.0 359.5Q157.0 368.5 157.0 371.0L156.5 373.5H155.0Q152.5 373.5 138.0 366.25Q123.5 359.0 104.5 348.0Q74.0 330.5 58.25 323.0Q42.5 315.5 34.0 315.5Q28.0 315.5 24.0 317.5Q16.5 320.0 14.5 320.0Q10.0 320.0 10.0 315.5ZM271.5 16.5Q271.5 10.0 277.0 10.0Q279.5 10.0 280.75 10.5Q282.0 11.0 282.0 13.5Q282.0 16.0 279.25 22.0Q276.5 28.0 270.5 41.0Q257.0 67.0 257.0 78.0Q257.0 82.5 260.0 82.5Q266.0 82.5 266.0 90.0Q266.0 93.0 272.25 99.5Q278.5 106.0 287.0 113.0Q295.5 120.0 303.0 125.0Q310.5 130.0 313.5 130.0H314.0Q314.0 129.5 315.25 129.25Q316.5 129.0 317.0 129.0Q323.5 129.0 335.0 140.5Q342.0 147.0 347.0 150.0Q352.0 153.0 359.5 154.0Q367.0 155.0 382.0 155.5Q388.0 156.0 393.0 156.25Q398.0 156.5 402.5 156.5Q408.0 156.5 411.75 156.25Q415.5 156.0 415.5 155.5Q416.0 155.5 416.25 146.25Q416.5 137.0 416.5 124.5V95.5H406.5Q395.5 95.5 380.5 97.0Q365.5 98.5 350.25 100.75Q335.0 103.0 323.75 105.5Q312.5 108.0 309.0 110.0Q302.0 114.0 299.5 114.0Q295.5 114.0 295.5 108.0Q295.5 104.0 296.75 98.25Q298.0 92.5 301.5 84.0Q305.0 75.5 307.25 65.5Q309.5 55.5 309.5 50.5Q309.5 36.0 317.0 36.0Q322.5 36.0 332.0 45.5Q335.5 49.0 345.25 53.75Q355.0 58.5 367.0 63.0Q379.0 67.5 389.5 70.5Q400.0 73.5 405.0 73.5Q412.5 73.5 412.5 71.0Q412.5 67.0 408.25 59.75Q404.0 52.5 399.0 46.5Q394.0 40.5 391.5 40.5Q387.5 40.5 387.5 36.5Q387.5 35.5 390.0 33.0Q391.0 31.0 397.5 30.5Q404.0 30.0 413.0 30.0Q418.5 30.0 424.75 30.25Q431.0 30.5 437.5 30.5Q458.0 31.5 466.5 33.5Q475.0 35.5 475.5 38.0Q475.0 39.0 474.0 40.75Q473.0 42.5 471.0 43.5Q466.0 46.0 460.5 53.25Q455.0 60.5 451.5 68.0Q448.0 75.5 448.0 80.5Q448.0 82.5 448.5 82.5Q450.0 83.0 467.5 87.25Q485.0 91.5 513.75 97.75Q542.5 104.0 576.5 111.0Q611.0 117.5 639.25 124.0Q667.5 130.5 684.25 135.0Q701.0 139.5 701.0 140.5Q701.0 142.0 687.75 145.5Q674.5 149.0 652.25 153.75Q630.0 158.5 602.5 163.5L506.0 182.5L476.0 204.5Q458.0 219.0 448.75 227.75Q439.5 236.5 436.0 242.0Q432.5 247.5 432.5 253.5V262.0H537.0Q589.0 262.0 617.5 263.5Q646.0 265.0 646.0 268.0Q646.0 271.5 618.0 273.0Q590.0 274.5 539.5 274.5Q495.5 274.5 473.0 274.75Q450.5 275.0 442.75 276.0Q435.0 277.0 434.0 279.5Q430.5 287.0 426.5 287.0Q420.5 287.0 420.5 278.0Q420.5 276.5 418.75 275.75Q417.0 275.0 411.0 275.0Q397.0 275.0 377.0 279.75Q357.0 284.5 335.75 292.0Q314.5 299.5 296.25 308.5Q278.0 317.5 268.0 326.0Q263.0 331.0 258.5 334.75Q254.0 338.5 253.0 338.5Q251.0 338.5 251.0 331.0Q251.0 327.5 251.25 323.0Q251.5 318.5 252.5 313.0V314.0L255.5 294.5L192.0 297.5Q165.5 298.5 144.25 300.5Q123.0 302.5 119.5 304.0Q112.5 308.5 112.5 319.0Q112.5 334.0 106.0 334.0Q101.5 334.0 101.5 305.5V268.0Q101.5 251.5 100.25 246.5Q99.0 241.5 95.5 238.0Q87.5 232.5 87.5 228.5L89.0 226.0Q89.5 224.5 97.0 224.5Q103.5 224.5 113.25 225.5Q123.0 226.5 132.5 228.0Q142.0 229.5 148.5 231.25Q155.0 233.0 155.0 234.5Q155.0 240.5 149.0 240.5Q146.0 240.5 138.25 245.75Q130.5 251.0 123.5 256.5Q116.5 262.0 116.5 264.0Q116.5 265.0 122.5 268.5Q128.5 272.0 136.5 276.0Q146.5 281.0 154.25 283.0Q162.0 285.0 178.0 285.0Q183.0 285.0 189.75 284.5Q196.5 284.0 205.5 284.0Q237.5 283.0 248.0 280.25Q258.5 277.5 259.0 268.0Q259.0 264.5 258.25 260.25Q257.5 256.0 257.0 251.5Q255.5 242.5 255.5 239.0Q255.5 232.0 259.0 232.0Q261.5 232.0 265.0 234.75Q268.5 237.5 274.0 242.5Q286.5 252.5 310.0 257.25Q333.5 262.0 375.0 262.0H420.5V252.0Q420.5 238.0 418.5 232.0Q416.5 226.0 406.25 224.5Q396.0 223.0 371.5 223.0Q344.5 223.0 333.5 224.75Q322.5 226.5 318.5 229.0Q316.5 232.0 314.0 234.25Q311.5 236.5 309.5 236.5Q308.0 236.5 307.0 227.5Q306.0 218.5 306.0 206.0Q306.0 193.0 307.5 184.75Q309.0 176.5 311.0 176.5Q313.0 176.5 313.5 174.0Q314.0 171.5 314.0 168.0Q314.0 164.5 313.75 161.75Q313.5 159.0 313.5 159.0Q312.5 159.0 298.25 168.5Q284.0 178.0 265.0 191.0Q249.0 202.5 239.25 209.75Q229.5 217.0 223.75 223.0Q218.0 229.0 214.0 235.5Q210.0 242.0 205.5 252.0Q199.5 264.0 194.5 272.75Q189.5 281.5 187.0 282.5Q186.0 282.5 182.5 276.5Q179.0 270.5 175.0 262.25Q171.0 254.0 168.25 246.75Q165.5 239.5 165.5 236.5V235.0Q166.5 230.5 172.0 230.5H173.5Q174.5 231.5 176.5 231.5Q180.5 231.5 184.5 228.5H185.5Q185.5 225.0 176.25 217.0Q167.0 209.0 154.0 200.0Q141.0 191.0 129.25 184.5Q117.5 178.0 112.5 178.0H109.5Q107.5 178.5 105.25 179.0Q103.0 179.5 101.5 179.5Q95.5 179.5 95.5 174.0Q95.5 171.5 100.75 165.25Q106.0 159.0 117.0 151.0Q126.0 144.0 132.75 137.0Q139.5 130.0 139.5 128.0Q139.5 123.0 141.0 114.0Q141.5 110.0 142.0 105.5Q142.5 101.0 143.0 97.5Q144.5 86.0 144.5 82.0Q144.5 74.0 139.5 68.5Q136.0 66.0 132.5 63.5Q129.0 61.0 126.5 61.0Q123.0 61.0 123.0 58.0Q123.0 57.0 123.5 55.75Q124.0 54.5 124.5 53.5Q126.5 51.5 141.5 51.5Q153.0 51.5 168.75 52.5Q184.5 53.5 197.25 55.25Q210.0 57.0 213.0 59.5L212.5 59.0H213.0Q216.0 58.5 225.25 52.75Q234.5 47.0 245.25 39.25Q256.0 31.5 263.75 25.0Q271.5 18.5 271.5 16.5Z" fill="black" /></svg>