<svg xmlns="http://www.w3.org/2000/svg" width="637.0" height="462.0" viewBox="0 0 637.0 462.0"><path d="M52.0 249.0Q53.0 246.5 54.0 243.75Q55.0 241.0 56.0 239.0Q57.5 236.0 57.5 234.5H54.5Q53.5 234.5 51.0 234.5Q48.5 234.5 46.0 235.0H45.0Q38.0 235.0 38.0 238.0Q38.0 240.0 40.0 245.0Q40.5 246.0 40.75 247.0Q41.0 248.0 41.5 249.5Q44.0 258.0 46.5 258.0Q49.0 258.0 52.0 249.0ZM106.5 208.5Q103.5 203.0 99.0 193.0Q94.5 183.0 92.5 175.5L89.5 161.0Q80.0 169.0 70.25 176.5Q60.5 184.0 49.0 189.0Q50.0 189.0 51.0 189.25Q52.0 189.5 53.0 189.5Q65.5 190.5 77.5 195.25Q89.5 200.0 100.5 206.0Q102.5 206.5 104.0 207.25Q105.5 208.0 106.5 208.5ZM65.0 156.5 99.5 119.0Q96.5 119.5 91.5 120.25Q86.5 121.0 81.0 121.0Q77.5 121.0 72.5 120.5Q67.5 120.0 62.5 119.0Q63.5 121.0 63.75 122.25Q64.0 123.5 64.5 125.0Q65.0 128.5 65.25 131.5Q65.5 134.5 65.5 138.5Q65.5 143.0 65.25 147.5Q65.0 152.0 65.0 156.5ZM186.0 160.0 186.5 158.0Q189.0 154.0 189.0 152.5Q189.0 152.0 184.0 152.0H181.0Q176.0 152.5 174.5 152.5Q173.0 152.5 173.0 153.5Q173.0 155.0 174.5 159.0L175.0 160.0Q176.0 161.5 176.75 163.5Q177.5 165.5 178.5 167.0Q179.0 170.5 180.0 173.0Q181.0 175.5 181.0 175.5Q181.0 175.5 181.5 173.0Q182.0 170.5 182.5 168.5Q184.0 166.0 184.75 163.75Q185.5 161.5 186.0 160.0ZM224.5 101.5Q215.5 96.5 205.75 93.0Q196.0 89.5 189.0 87.75Q182.0 86.0 182.0 86.0Q176.0 88.0 163.75 94.0Q151.5 100.0 138.75 108.0Q126.0 116.0 116.75 123.5Q107.5 131.0 107.5 136.5H108.0Q109.5 136.5 109.5 141.0Q109.5 143.0 108.75 147.0Q108.0 151.0 105.5 155.0Q105.5 156.0 105.0 157.25Q104.5 158.5 104.5 161.0Q104.5 168.0 110.0 181.0Q115.5 194.0 124.25 208.75Q133.0 223.5 142.25 236.75Q151.5 250.0 159.25 258.5Q167.0 267.0 170.5 267.0Q173.0 267.0 173.75 259.25Q174.5 251.5 174.5 239.0Q174.5 229.0 173.25 212.25Q172.0 195.5 168.25 179.25Q164.5 163.0 156.5 155.5Q150.5 148.5 150.5 143.5L151.5 142.5Q153.0 141.0 162.25 139.25Q171.5 137.5 182.75 136.5Q194.0 135.5 201.5 135.5Q213.0 135.5 210.5 139.5Q201.0 158.5 196.0 173.25Q191.0 188.0 189.0 203.5Q187.0 219.0 187.0 240.5V262.0Q191.0 262.0 201.5 257.5Q212.0 253.0 224.75 246.25Q237.5 239.5 248.0 233.0L269.0 217.0L267.0 194.0Q266.5 190.5 266.25 186.25Q266.0 182.0 266.0 180.0Q266.0 169.5 269.5 169.5Q276.5 169.5 276.5 175.0Q276.5 176.5 281.5 179.5Q286.5 182.5 293.25 184.5Q300.0 186.5 305.0 187.0Q307.0 187.0 309.0 186.0Q308.5 182.5 302.0 174.0Q295.5 165.5 285.5 154.5Q275.5 143.5 264.0 132.75Q252.5 122.0 242.0 113.5Q231.5 105.0 224.5 101.5ZM311.0 220.5Q311.0 212.0 302.5 203.75Q294.0 195.5 285.5 195.5Q282.0 195.5 281.25 199.75Q280.5 204.0 280.5 212.5V222.5Q280.5 233.0 281.0 240.25Q281.5 247.5 282.0 247.5Q287.0 247.5 298.5 240.5Q305.5 237.5 308.25 232.0Q311.0 226.5 311.0 220.5ZM377.5 217.5Q366.5 213.5 356.25 213.0Q346.0 212.5 335.0 212.5Q329.0 212.5 329.0 215.5Q329.0 220.5 330.5 223.75Q332.0 227.0 337.5 227.0Q341.5 227.0 347.75 225.5Q354.0 224.0 362.0 222.0Q377.5 217.5 377.5 217.5ZM232.0 83.5Q230.0 79.5 227.0 72.0Q224.0 64.5 222.0 58.0L216.5 43.0L200.5 57.0Q183.0 68.0 180.0 71.0Q182.5 70.0 188.5 67.75Q194.5 65.5 200.5 62.0Q209.5 58.0 212.5 58.0Q218.0 58.0 218.0 62.5Q218.0 67.5 210.0 71.5Q204.5 74.0 204.5 75.5Q204.5 76.5 210.25 79.25Q216.0 82.0 223.0 84.5Q230.0 87.0 232.5 87.0L233.0 87.5Q233.0 87.0 232.75 86.25Q232.5 85.5 232.0 83.5ZM334.0 119.0 345.5 88.5H327.0Q312.0 88.5 312.0 91.0Q312.0 94.0 314.5 99.0Q314.5 101.5 315.75 109.25Q317.0 117.0 318.5 124.5Q320.0 132.0 321.0 134.5Q321.5 139.5 322.0 145.25Q322.5 151.0 323.0 156.5Q323.0 158.5 323.5 160.5Q324.0 162.5 324.0 165.0Q325.0 156.5 328.0 143.25Q331.0 130.0 334.0 119.0ZM396.0 202.0Q396.0 197.5 395.0 184.0Q394.0 170.5 392.25 153.0Q390.5 135.5 387.25 119.0Q384.0 102.5 379.75 91.75Q375.5 81.0 369.5 81.0Q357.0 81.0 339.0 144.5L337.5 151.0Q334.5 164.0 332.75 172.75Q331.0 181.5 331.0 186.5Q331.0 194.5 338.0 196.5Q345.0 198.5 362.0 201.0Q378.0 202.5 388.5 202.5Q395.0 202.5 396.0 202.0ZM425.0 86.5 426.5 82.0Q426.0 82.5 419.0 82.5Q412.0 82.5 403.0 83.25Q394.0 84.0 392.5 85.0Q392.5 89.5 394.0 95.0V94.5Q396.0 98.0 398.25 108.25Q400.5 118.5 401.5 130.0L406.0 159.5L415.0 120.5Q418.0 110.0 420.5 101.0Q423.0 92.0 425.0 86.5ZM49.5 412.0 69.0 384.0Q85.0 361.5 85.0 356.5H82.5Q72.5 356.5 53.5 359.0Q43.5 359.5 39.5 361.0Q35.5 362.5 35.5 366.5Q35.5 370.0 37.25 376.5Q39.0 383.0 41.5 392.5ZM199.5 276.5Q184.5 276.5 174.0 281.5Q170.0 282.5 165.5 283.0Q161.0 283.5 157.5 283.5Q153.0 283.5 152.5 283.0Q151.5 282.5 149.5 282.5Q148.5 282.5 148.5 284.5Q148.5 288.0 151.25 295.25Q154.0 302.5 159.0 315.5L169.0 337.5L174.0 324.5Q176.0 317.5 180.25 308.25Q184.5 299.0 190.5 293.5H190.0Q194.0 288.0 196.75 282.5Q199.5 277.0 199.5 276.5ZM216.5 27.0Q222.5 20.0 228.25 15.0Q234.0 10.0 234.0 10.0Q234.5 10.0 235.5 11.5Q236.5 13.0 236.5 15.0Q236.5 18.5 235.75 22.75Q235.0 27.0 234.0 32.5Q233.5 36.0 233.25 38.75Q233.0 41.5 233.0 44.5Q233.0 54.0 239.5 68.5Q246.0 83.0 256.25 98.5Q266.5 114.0 277.25 127.75Q288.0 141.5 297.0 150.25Q306.0 159.0 309.5 159.0Q310.0 159.0 310.0 154.0Q310.0 146.5 307.75 134.0Q305.5 121.5 302.5 109.5Q299.5 97.5 296.0 91.5Q293.0 85.5 290.75 81.0Q288.5 76.5 288.5 74.5Q288.5 72.5 298.5 72.5Q303.0 71.5 307.75 71.5Q312.5 71.5 318.0 71.0Q326.0 71.0 339.25 70.75Q352.5 70.5 367.75 70.0Q383.0 69.5 397.0 68.5Q407.0 68.0 417.0 67.5Q427.0 67.0 433.5 67.0Q440.5 67.0 445.25 68.0Q450.0 69.0 450.0 71.0Q450.0 71.0 447.0 76.75Q444.0 82.5 439.5 91.0Q435.0 99.5 430.0 115.5Q425.0 131.5 420.5 149.0Q416.0 166.5 413.25 180.75Q410.5 195.0 410.5 201.0V202.5Q412.0 205.5 419.0 206.5Q426.0 207.5 446.5 207.5Q458.0 207.5 476.25 207.25Q494.5 207.0 520.5 206.5Q537.0 206.0 552.25 206.0Q567.5 206.0 581.0 206.0Q602.0 206.0 614.5 206.75Q627.0 207.5 627.0 209.5Q627.0 211.5 612.5 213.5Q598.0 215.5 574.25 217.25Q550.5 219.0 521.75 220.25Q493.0 221.5 464.5 221.5H409.5V246.5Q409.5 264.5 408.25 285.25Q407.0 306.0 405.0 324.25Q403.0 342.5 401.0 354.0Q399.0 365.5 397.0 365.5Q395.5 365.5 394.5 358.0Q393.5 350.5 393.5 338.0Q393.5 320.0 395.0 294.0L399.0 226.0L383.0 228.5H384.0Q379.0 229.5 372.25 231.75Q365.5 234.0 358.5 235.5Q355.0 237.0 352.25 237.5Q349.5 238.0 347.0 238.5L328.0 244.0L325.0 302.0Q323.5 332.0 322.5 345.5Q321.5 359.0 320.25 362.25Q319.0 365.5 316.5 365.5H315.0Q313.5 365.5 312.75 357.0Q312.0 348.5 312.0 334.5Q312.0 329.0 312.25 321.75Q312.5 314.5 312.5 306.5Q313.0 296.5 313.25 288.5Q313.5 280.5 313.5 274.5Q313.5 251.0 306.5 251.0Q303.5 251.0 299.0 253.75Q294.5 256.5 288.5 261.0Q281.0 265.0 276.75 267.25Q272.5 269.5 269.5 269.5Q265.5 269.5 265.5 262.0Q265.5 261.0 265.75 257.75Q266.0 254.5 266.5 251.0Q267.5 248.0 267.75 245.0Q268.0 242.0 268.0 239.5V237.5Q264.0 237.5 253.5 244.5Q243.0 251.5 232.25 261.0Q221.5 270.5 216.0 279.0Q206.5 292.0 197.5 307.75Q188.5 323.5 182.75 337.25Q177.0 351.0 177.0 357.5Q177.0 373.0 170.5 373.0Q165.5 373.0 162.0 363.0Q161.0 357.5 158.5 350.25Q156.0 343.0 154.0 338.0L149.5 327.0L132.0 335.0Q121.5 340.5 110.0 352.5Q98.5 364.5 87.5 379.5Q76.5 394.5 68.25 410.25Q60.0 426.0 56.5 439.5Q53.5 452.0 49.5 452.0Q47.0 452.0 43.5 443.25Q40.0 434.5 35.5 414.5Q32.0 400.0 26.75 383.75Q21.5 367.5 17.5 359.5Q10.0 344.5 10.0 338.5Q10.0 333.5 13.5 333.5Q18.0 333.5 25.5 339.0Q33.0 345.5 36.5 345.5Q39.0 345.5 39.5 340.0Q40.0 334.5 40.0 322.0Q40.0 304.5 37.75 287.0Q35.5 269.5 32.0 256.0Q28.5 242.5 23.5 238.0Q17.0 232.5 17.0 228.0L17.5 227.0Q18.5 225.5 25.5 224.0Q32.5 222.5 42.25 221.25Q52.0 220.0 61.0 219.25Q70.0 218.5 74.5 218.5Q77.5 218.5 77.5 220.5Q77.5 221.0 74.25 229.0Q71.0 237.0 65.5 247.0Q60.5 256.5 58.0 265.0Q55.5 273.5 54.5 283.75Q53.5 294.0 53.5 310.5Q53.5 332.0 54.75 339.0Q56.0 346.0 59.5 346.0Q63.5 346.0 73.5 343.25Q83.5 340.5 95.75 336.25Q108.0 332.0 118.5 327.5Q129.0 323.0 133.5 319.5L144.5 313.5Q141.5 307.5 138.0 301.25Q134.5 295.0 132.0 289.5Q127.0 279.5 124.5 272.5Q122.0 265.5 122.0 262.0Q122.0 261.0 123.0 259.75Q124.0 258.5 124.5 258.5Q126.0 258.5 128.25 259.75Q130.5 261.0 133.5 262.5V262.0Q138.0 266.5 144.0 266.5Q146.0 266.5 147.0 266.0Q145.0 260.5 128.0 242.5Q108.5 223.5 85.25 212.5Q62.0 201.5 39.5 201.5Q22.0 201.5 22.0 195.5Q22.0 190.5 37.5 181.5Q46.0 176.0 48.0 172.0Q50.0 168.0 50.0 152.5V137.0Q50.0 131.5 49.75 127.25Q49.5 123.0 49.5 119.5Q49.5 107.5 51.0 102.25Q52.5 97.0 55.5 96.5Q59.0 97.5 64.0 102.5Q68.0 109.0 77.5 109.0Q86.0 109.0 101.0 104.75Q116.0 100.5 131.75 94.25Q147.5 88.0 157.5 83.0Q156.0 83.5 154.5 83.5Q153.0 83.5 152.5 83.5H150.0Q149.0 82.5 149.0 81.0Q149.0 77.0 157.75 70.25Q166.5 63.5 175.0 57.0Q185.5 51.5 197.5 42.75Q209.5 34.0 216.5 27.0Z" fill="black" /></svg>