<svg xmlns="http://www.w3.org/2000/svg" width="491.5" height="386.0" viewBox="0 0 491.5 386.0"><path d="M44.5 208.0V207.5Q31.0 198.5 28.0 198.5Q26.5 198.5 26.5 207.0Q26.5 212.0 25.75 222.0Q25.0 232.0 23.5 240.5V240.0L21.5 259.0L34.5 251.0Q44.5 244.0 54.5 239.25Q64.5 234.5 79.0 229.5Q84.0 228.0 84.0 226.5Q84.0 223.5 72.0 220.5Q67.0 219.5 58.75 215.5Q50.5 211.5 44.5 208.0ZM230.5 305.0Q230.0 304.5 223.25 301.25Q216.5 298.0 210.0 294.75Q203.5 291.5 202.5 291.5Q201.0 291.5 200.0 300.5Q199.0 309.5 198.0 323.0Q197.5 329.5 197.5 334.0Q197.5 338.5 197.5 342.5Q197.5 351.5 198.5 351.5Q199.0 351.5 202.5 349.0Q208.0 344.0 219.0 339.5Q230.0 335.0 242.25 331.5Q254.5 328.0 262.5 326.0Q266.5 325.0 271.25 323.75Q276.0 322.5 276.0 322.5Q271.0 320.5 262.5 317.25Q254.0 314.0 245.25 310.5Q236.5 307.0 230.5 305.0ZM300.0 219.5 296.0 215.5Q292.5 213.0 290.0 211.75Q287.5 210.5 285.5 210.5Q282.5 210.5 282.5 219.0Q282.5 227.0 285.0 227.0Q286.5 227.0 293.25 223.5Q300.0 220.0 300.0 219.5ZM301.0 179.5 300.5 179.0Q300.0 178.5 297.5 177.0Q295.0 175.5 291.0 174.0Q286.0 171.5 284.5 171.5Q282.5 171.5 282.5 180.5Q282.5 184.0 283.25 187.25Q284.0 190.5 285.0 191.0Q288.0 190.0 294.25 185.75Q300.5 181.5 301.0 179.5ZM299.0 259.0Q303.0 255.0 303.0 254.5Q303.0 253.5 296.0 248.5V249.0Q289.5 245.0 288.0 245.0Q287.0 245.0 287.0 253.0Q287.0 263.5 290.0 263.5Q292.5 263.5 299.0 259.0ZM362.0 215.5H398.5V190.5H354.5Q321.5 190.5 308.25 192.75Q295.0 195.0 295.0 200.5Q295.0 206.5 314.75 211.0Q334.5 215.5 362.0 215.5ZM401.0 235.5Q400.0 231.0 397.5 229.25Q395.0 227.5 385.5 227.0Q376.0 226.5 353.5 226.5Q296.5 226.5 296.5 235.0Q296.5 239.5 313.5 246.0Q320.5 249.0 336.25 250.25Q352.0 251.5 367.0 251.5Q380.0 251.5 390.0 250.75Q400.0 250.0 401.0 248.0Q402.0 247.5 402.0 243.0Q402.0 241.0 402.0 239.25Q402.0 237.5 401.0 235.5ZM135.5 61.5Q127.0 57.5 119.5 54.75Q112.0 52.0 111.0 52.0Q110.0 52.0 109.0 60.5Q108.0 69.0 107.25 80.25Q106.5 91.5 106.5 99.0Q106.5 105.5 107.0 106.5Q107.0 105.0 113.5 101.25Q120.0 97.5 128.75 93.5Q137.5 89.5 144.75 86.5Q152.0 83.5 153.5 83.0Q173.0 77.0 173.0 73.5Q173.0 72.0 164.5 72.0Q162.0 72.0 153.25 69.0Q144.5 66.0 135.5 61.5ZM151.0 117.5Q151.0 116.5 141.5 116.5Q133.0 116.5 133.0 119.5Q133.0 121.5 136.75 127.5Q140.5 133.5 142.5 133.5Q143.5 133.5 146.5 128.0L148.0 124.5Q151.0 118.5 151.0 117.5ZM195.5 122.0Q195.5 121.5 193.25 121.25Q191.0 121.0 188.5 121.0Q181.5 121.0 181.5 123.5Q181.5 125.5 185.0 130.5Q187.0 134.0 188.5 134.0Q189.5 134.0 192.5 128.5Q195.5 123.0 195.5 122.0ZM244.0 119.0Q244.0 118.0 241.5 117.25Q239.0 116.5 235.5 116.5Q228.0 116.5 228.0 118.0Q228.0 119.0 229.5 123.5V123.0Q232.5 128.0 234.5 128.0Q235.5 128.0 236.75 127.25Q238.0 126.5 239.5 126.0Q244.0 122.5 244.0 119.0ZM435.0 27.0H368.5L378.0 48.5Q382.5 58.5 387.5 71.5Q392.5 84.5 394.5 94.5Q399.5 109.5 401.0 115.5L401.5 117.0Q405.0 100.0 409.25 85.0Q413.5 70.0 422.0 54.5V55.0Q427.5 43.5 431.25 35.5Q435.0 27.5 435.0 27.0ZM352.5 12.0V11.0L353.0 10.5Q353.5 10.5 354.25 10.25Q355.0 10.0 355.5 10.0Q359.0 10.0 364.0 12.5Q367.0 14.5 381.5 15.5Q396.0 16.5 414.0 16.5Q431.5 16.5 444.25 17.25Q457.0 18.0 457.0 19.5Q457.0 23.0 447.5 32.5Q444.0 36.5 437.75 46.25Q431.5 56.0 427.0 66.0Q422.0 76.0 419.5 84.75Q417.0 93.5 415.5 107.0Q414.0 120.5 412.5 145.5Q412.0 157.5 411.75 172.5Q411.5 187.5 411.5 203.0Q411.5 219.0 411.75 234.5Q412.0 250.0 412.0 262.0L412.5 318.5H445.5Q481.5 318.5 481.5 324.5Q481.5 328.0 473.5 329.25Q465.5 330.5 446.5 330.5H412.5V342.5Q412.5 362.5 407.5 362.5Q403.0 362.5 401.5 346.5L401.0 330.5L320.0 331.0Q293.5 332.5 268.75 336.75Q244.0 341.0 225.0 348.25Q206.0 355.5 197.5 367.0Q190.0 376.0 187.5 376.0Q185.0 376.0 184.0 368.0Q186.5 352.0 187.0 335.0Q187.5 318.0 187.5 302.0Q187.5 289.5 188.75 281.0Q190.0 272.5 191.5 272.5Q192.5 273.0 198.5 276.25Q204.5 279.5 211.25 282.75Q218.0 286.0 219.5 287.0Q242.5 298.5 261.0 305.25Q279.5 312.0 300.0 314.75Q320.5 317.5 349.0 318.0L401.0 318.5V265.0L356.5 263.5H337.0Q325.0 263.5 318.25 264.25Q311.5 265.0 307.25 267.0Q303.0 269.0 297.0 273.5L292.0 276.0Q287.0 279.0 283.75 281.0Q280.5 283.0 280.0 283.0Q278.5 283.0 277.5 278.75Q276.5 274.5 276.5 268.0Q276.5 264.5 276.0 260.0Q275.5 255.5 275.0 251.5Q275.0 250.5 274.75 249.0Q274.5 247.5 274.5 246.5L272.0 238.5L172.0 239.5Q134.5 240.0 113.75 240.5Q93.0 241.0 82.75 242.0Q72.5 243.0 67.0 245.25Q61.5 247.5 54.5 251.5Q47.0 255.5 38.25 262.0Q29.5 268.5 25.0 273.0Q21.0 277.0 17.75 279.75Q14.5 282.5 12.5 283.0Q12.0 282.5 11.5 282.5Q11.0 282.5 11.0 282.0V282.5Q10.0 282.0 10.0 277.0Q10.0 272.0 10.75 263.5Q11.5 255.0 13.0 245.5Q14.5 236.0 15.25 226.25Q16.0 216.5 16.0 209.0Q16.0 204.5 15.75 201.0Q15.5 197.5 15.0 195.5Q14.5 192.5 14.25 189.25Q14.0 186.0 14.0 184.0Q14.0 179.0 15.5 179.0Q16.5 179.0 24.0 183.0Q31.5 187.0 41.5 193.5Q51.5 199.0 67.0 206.0Q82.5 213.0 93.5 217.5Q103.0 221.0 110.75 223.0Q118.5 225.0 128.5 226.0Q138.5 227.0 154.75 227.25Q171.0 227.5 197.0 227.5H272.0V193.5Q272.0 179.0 272.75 167.75Q273.5 156.5 274.0 156.0H275.0Q281.5 156.0 301.5 166.5Q312.0 172.0 319.0 174.75Q326.0 177.5 335.75 178.25Q345.5 179.0 362.5 179.0Q383.0 179.0 391.75 177.75Q400.5 176.5 401.0 174.0Q401.5 173.5 401.5 171.0Q401.5 164.0 398.0 147.25Q394.5 130.5 388.0 108.0L382.0 87.5L270.0 89.0Q231.5 89.5 208.5 90.0Q185.5 90.5 173.25 91.5Q161.0 92.5 154.75 94.0Q148.5 95.5 144.0 98.5L134.0 103.5L152.0 106.0Q158.0 106.5 168.75 107.0Q179.5 107.5 191.5 107.5Q198.0 107.5 204.75 107.5Q211.5 107.5 218.0 107.0Q225.5 106.5 232.0 106.25Q238.5 106.0 243.5 106.0Q262.0 106.0 262.0 110.0Q262.0 112.0 258.75 118.0Q255.5 124.0 250.0 131.0Q245.0 137.5 242.5 143.0Q240.0 148.5 239.25 156.0Q238.5 163.5 238.0 177.0Q238.0 191.0 236.75 200.5Q235.5 210.0 233.0 210.0Q231.0 210.0 229.25 200.0Q227.5 190.0 227.5 174.5Q227.5 127.5 214.5 122.0H214.0Q212.0 122.0 208.25 126.5Q204.5 131.0 200.5 137.5Q193.5 147.5 191.5 155.75Q189.5 164.0 189.5 183.0Q189.5 196.0 188.0 205.0Q186.5 214.0 184.0 214.0Q182.0 214.0 180.75 203.25Q179.5 192.5 179.5 174.5Q179.5 151.0 178.0 143.0Q176.5 135.0 171.5 131.0Q166.0 126.5 163.5 126.5Q157.0 127.0 148.5 146.5Q144.0 154.5 142.0 165.5Q140.0 176.5 140.0 191.0Q140.0 204.5 138.75 213.25Q137.5 222.0 135.5 222.0Q133.5 222.0 132.0 209.75Q130.5 197.5 130.5 177.0Q130.5 156.5 130.0 147.0Q129.5 137.5 127.75 133.25Q126.0 129.0 121.0 124.5Q113.0 118.0 111.0 118.0Q109.0 118.0 103.5 122.0Q99.5 126.0 97.5 126.0Q94.5 126.0 94.5 116.5Q94.5 111.5 95.25 103.0Q96.0 94.5 96.5 82.0Q97.5 69.5 98.0 59.25Q98.5 49.0 99.0 42.5Q99.5 38.5 99.5 36.0Q99.5 33.5 99.5 33.0H100.5Q102.0 33.0 108.0 36.0Q114.0 39.0 121.5 43.0Q129.5 47.5 144.0 53.5Q158.5 59.5 171.0 64.0Q182.0 67.5 190.75 69.75Q199.5 72.0 211.0 73.0Q222.5 74.0 241.5 74.75Q260.5 75.5 291.0 76.0Q305.5 76.5 317.75 76.5Q330.0 76.5 339.5 76.5Q378.5 76.5 378.5 75.0Q378.5 73.5 375.5 67.0Q372.5 60.5 368.5 52.0Q367.0 47.5 363.0 39.25Q359.0 31.0 355.75 23.0Q352.5 15.0 352.5 12.0Z" fill="black" /></svg>