<svg xmlns="http://www.w3.org/2000/svg" width="354.0" height="461.0" viewBox="0 0 354.0 461.0"><path d="M240.5 202.5V202.0Q240.5 201.5 240.75 201.25Q241.0 201.0 241.0 200.5Q241.0 195.5 237.5 192.0Q236.5 190.0 236.5 190.0Q236.5 191.0 236.5 192.75Q236.5 194.5 237.0 197.0Q239.5 202.5 240.5 202.5ZM132.5 110.0Q127.0 103.0 121.0 89.75Q115.0 76.5 112.0 65.5L105.5 40.5L74.5 72.5Q48.0 99.5 48.0 102.5Q48.0 104.0 53.5 104.0Q58.5 105.0 71.75 107.5Q85.0 110.0 98.0 112.5Q118.5 115.0 140.0 122.0Q140.5 122.5 141.5 122.5Q141.0 121.5 138.75 118.25Q136.5 115.0 132.5 110.0ZM278.0 132.0 292.5 116.5H204.5L218.5 144.5Q235.0 176.0 243.0 176.0Q248.0 176.0 254.5 165.0Q257.5 159.0 264.75 149.0Q272.0 139.0 278.0 132.0ZM51.0 75.0 118.5 10.0 121.5 41.5Q123.0 53.5 126.0 66.75Q129.0 80.0 132.5 87.5Q139.0 98.5 157.75 115.5Q176.5 132.5 199.5 146.5L209.5 154.0L201.0 137.5Q197.5 129.0 192.75 122.25Q188.0 115.5 185.5 113.5Q180.0 111.0 180.0 107.5Q180.0 103.5 188.0 102.25Q196.0 101.0 214.5 101.0Q239.5 101.0 265.25 102.0Q291.0 103.0 316.0 104.5H319.0L320.0 106.5Q320.0 108.5 314.0 115.25Q308.0 122.0 299.0 129.5Q291.0 137.0 282.0 149.25Q273.0 161.5 266.5 172.5Q260.0 183.5 260.0 188.5Q260.0 189.0 272.25 197.75Q284.5 206.5 302.5 218.5Q319.5 230.0 331.75 240.5Q344.0 251.0 344.0 254.0V255.0Q343.5 255.5 342.5 255.75Q341.5 256.0 341.5 256.0Q338.0 256.0 325.5 249.0Q313.0 242.0 297.5 232.0Q279.0 219.0 270.0 213.75Q261.0 208.5 257.5 208.5Q256.0 208.5 253.5 214.5Q253.0 218.0 251.25 235.75Q249.5 253.5 247.75 279.75Q246.0 306.0 244.5 336.5Q242.5 366.5 240.75 391.5Q239.0 416.5 237.75 432.0Q236.5 447.5 236.0 448.5Q233.5 451.0 232.0 451.0Q228.0 451.0 228.0 423.0Q228.0 410.0 228.75 389.0Q229.5 368.0 230.5 338.5Q233.0 306.5 233.75 286.25Q234.5 266.0 234.5 253.5Q234.5 235.0 232.75 226.25Q231.0 217.5 227.0 205.5Q223.0 193.5 220.0 185.25Q217.0 177.0 216.0 176.0Q215.0 175.0 211.0 172.0Q207.0 169.0 201.0 165.5L196.0 161.0Q173.0 145.5 134.5 134.0Q96.0 122.5 50.5 120.0Q45.5 119.5 41.0 119.0Q36.5 118.5 32.5 118.0Q14.5 117.0 12.5 116.5H13.0Q10.0 116.5 21.25 104.25Q32.5 92.0 51.0 75.0Z" fill="black" /></svg>