<svg xmlns="http://www.w3.org/2000/svg" width="391.0" height="384.5" viewBox="0 0 391.0 384.5"><path d="M66.5 236.0 63.5 233.0Q61.5 230.5 58.25 225.0Q55.0 219.5 52.5 213.0L49.5 203.5L29.0 236.0ZM176.0 343.5 183.5 333.0Q185.5 330.5 192.25 323.5Q199.0 316.5 207.75 308.0Q216.5 299.5 223.75 293.0Q231.0 286.5 233.5 285.5Q231.5 286.0 223.25 289.0Q215.0 292.0 204.5 296.25Q194.0 300.5 184.0 304.75Q174.0 309.0 168.0 311.5Q162.0 313.5 162.0 314.5L165.5 318.0H165.0Q167.5 320.0 170.25 325.75Q173.0 331.5 174.0 336.0ZM69.0 137.0Q67.0 136.5 61.75 136.0Q56.5 135.5 51.0 135.0L36.0 133.5L42.0 148.5Q45.0 155.0 47.75 160.0Q50.5 165.0 51.0 165.0Q52.5 165.0 56.25 159.25Q60.0 153.5 64.0 146.75Q68.0 140.0 69.0 137.0ZM120.0 192.5 109.0 185.5Q103.0 181.5 98.5 179.0Q94.0 176.5 93.5 176.5V204.0ZM214.0 162.5Q215.0 160.0 216.0 158.0Q217.0 156.0 217.5 154.0Q214.5 157.5 209.5 162.0Q204.5 166.5 199.0 172.0L180.5 191.5H192.5Q201.0 191.5 203.75 190.5Q206.5 189.5 206.5 185.5Q206.5 176.5 214.0 162.5ZM212.5 43.5Q210.5 36.5 208.5 35.5Q206.5 36.0 202.0 43.0Q200.0 45.5 195.5 49.25Q191.0 53.0 185.5 55.0L175.0 58.5Q175.0 59.5 182.0 63.5Q189.0 67.5 199.5 73.0Q210.0 78.5 221.0 83.75Q232.0 89.0 240.25 92.5Q248.5 96.0 250.5 96.5H251.0Q250.5 96.5 245.0 90.25Q239.5 84.0 232.5 77.0Q225.5 67.5 219.5 57.5Q213.5 47.5 212.5 43.5ZM122.5 98.5Q141.5 88.5 156.75 81.75Q172.0 75.0 174.5 75.0H176.0L177.5 77.0Q177.5 84.0 122.5 112.0Q107.5 119.0 92.75 131.25Q78.0 143.5 68.25 159.5Q58.5 175.5 58.5 193.0Q60.5 206.0 66.25 216.0Q72.0 226.0 86.5 237.0Q101.0 248.0 127.5 264.5Q141.5 272.5 153.25 280.5Q165.0 288.5 168.0 291.0Q171.5 293.5 174.5 293.5Q180.0 293.5 188.5 289.5Q226.0 276.5 260.5 257.25Q295.0 238.0 328.5 217.0Q347.5 204.5 354.5 200.25Q361.5 196.0 363.5 196.0Q365.5 196.0 365.5 200.0V200.5Q365.5 202.5 354.25 211.5Q343.0 220.5 327.0 231.0Q267.5 269.5 230.75 301.25Q194.0 333.0 183.5 356.0Q179.0 364.0 175.0 369.25Q171.0 374.5 170.0 374.5Q168.0 374.5 166.5 368.5Q165.0 362.5 165.0 354.5Q165.0 336.5 157.5 327.5Q150.5 317.5 150.5 312.0Q150.5 305.5 158.0 301.0H159.5Q159.5 299.0 151.75 293.5Q144.0 288.0 124.0 275.5L83.0 249.5L47.5 249.0Q33.5 249.0 21.75 248.25Q10.0 247.5 10.0 247.5Q10.0 245.5 15.5 235.75Q21.0 226.0 29.0 214.0Q37.5 200.5 40.5 194.5Q43.5 188.5 43.5 184.0Q43.5 181.5 43.0 179.0Q42.5 176.5 40.5 173.0Q38.5 167.0 34.25 156.75Q30.0 146.5 26.0 139.0Q22.0 131.0 19.5 124.5Q17.0 118.0 17.0 116.5L17.5 114.0H19.0Q21.0 114.0 25.25 115.5Q29.5 117.0 34.5 118.5Q41.0 120.5 46.25 122.25Q51.5 124.0 57.0 124.0Q67.5 124.0 82.0 118.0Q96.5 112.0 122.5 98.5ZM200.5 24.5Q210.0 10.0 216.0 10.0Q219.0 10.0 219.0 14.5Q219.0 17.5 217.5 20.5V21.5Q217.5 25.0 220.0 31.75Q222.5 38.5 226.0 46.5Q232.5 58.5 250.5 79.0Q268.5 99.5 293.75 123.5Q319.0 147.5 347.0 169.5Q361.5 181.0 371.25 190.75Q381.0 200.5 381.0 202.5L380.5 205.0Q378.5 205.5 365.75 197.0Q353.0 188.5 337.5 175.0Q327.0 167.0 315.25 158.0Q303.5 149.0 293.25 141.5Q283.0 134.0 277.0 130.0L255.0 115.0L250.5 121.5Q246.5 127.0 241.0 136.25Q235.5 145.5 230.0 155.5Q224.5 165.5 220.75 173.25Q217.0 181.0 217.0 183.5Q217.0 187.0 220.5 187.0Q226.0 187.0 226.0 194.5V197.5Q226.0 200.0 230.0 203.25Q234.0 206.5 243.5 211.0Q257.5 219.0 266.5 226.75Q275.5 234.5 275.5 239.0Q275.5 241.0 274.0 242.0Q274.0 243.5 272.0 243.5Q270.0 243.5 267.5 241.5Q265.0 239.5 261.5 237.0Q258.0 233.5 248.75 228.0Q239.5 222.5 229.5 217.5Q219.5 212.0 212.5 209.5Q205.5 207.0 198.0 206.0Q190.5 205.0 179.0 205.0Q153.5 205.0 153.5 200.0Q153.5 197.5 154.5 197.0Q156.5 195.0 156.5 193.0Q153.0 193.0 142.5 196.5Q132.0 200.0 120.5 205.0Q109.0 210.0 101.5 214.5L95.5 217.5Q92.0 219.5 89.25 220.75Q86.5 222.0 85.5 222.0Q83.5 222.0 83.0 216.5Q82.5 211.0 82.5 202.0V189.5Q83.0 176.0 84.5 166.75Q86.0 157.5 87.0 157.5Q87.5 157.5 93.0 160.75Q98.5 164.0 104.5 169.5Q111.5 174.0 116.25 176.25Q121.0 178.5 127.75 179.0Q134.5 179.5 147.5 179.5H175.0Q177.5 177.0 185.25 169.5Q193.0 162.0 203.0 152.5Q213.0 143.0 222.25 133.5Q231.5 124.0 237.5 117.5Q243.5 111.0 243.5 110.0Q243.5 109.0 231.5 102.25Q219.5 95.5 203.5 87.5Q183.0 77.0 173.25 70.5Q163.5 64.0 163.5 58.5Q163.5 52.0 178.0 45.0Q184.5 42.5 190.75 36.5Q197.0 30.5 200.5 24.5Z" fill="black" /></svg>