<svg xmlns="http://www.w3.org/2000/svg" width="767.0" height="458.5" viewBox="0 0 767.0 458.5"><path d="M48.5 380.5H47.5Q55.0 372.0 55.0 369.0Q55.0 368.0 54.0 365.5Q53.0 363.0 50.0 359.5Q44.0 351.5 43.5 351.5Q42.5 351.5 39.5 368.0Q38.5 373.5 37.25 378.5Q36.0 383.5 36.0 386.0Q36.0 389.0 38.0 389.0Q41.0 389.0 48.5 380.5ZM61.5 211.0Q62.0 209.5 62.0 206.5Q62.0 203.5 61.25 201.25Q60.5 199.0 59.5 198.0Q59.0 196.0 56.5 196.0Q54.5 196.0 53.0 202.75Q51.5 209.5 51.5 212.0Q51.5 218.5 54.5 218.5Q55.5 218.5 57.75 216.5Q60.0 214.5 61.5 211.0ZM68.5 286.5Q68.5 285.0 66.0 281.75Q63.5 278.5 60.5 275.5Q58.5 274.5 57.25 273.5Q56.0 272.5 55.5 272.5Q54.5 272.5 54.5 282.0Q54.5 294.5 57.5 294.5Q58.5 294.5 60.5 292.5Q68.5 290.0 68.5 286.5ZM212.0 226.5V226.0Q211.5 225.0 196.5 223.75Q181.5 222.5 160.5 220.5L148.5 219.0Q135.0 218.5 124.75 218.5Q114.5 218.5 107.0 218.5Q92.0 218.5 84.75 220.0Q77.5 221.5 72.5 226.5Q60.0 233.0 60.0 242.0Q60.0 250.0 74.5 266.0Q80.0 273.0 84.0 277.0Q88.0 281.0 94.5 282.75Q101.0 284.5 112.75 284.75Q124.5 285.0 144.5 285.0H199.0L206.5 255.5Q209.0 246.0 210.5 237.75Q212.0 229.5 212.0 226.5ZM195.0 307.5Q195.0 303.5 183.75 301.75Q172.5 300.0 141.5 299.0H104.0Q86.0 299.0 78.5 301.0Q71.0 303.0 63.5 310.0Q59.0 314.0 56.75 319.25Q54.5 324.5 54.5 329.0Q54.5 343.5 68.0 356.0Q75.0 361.0 83.0 363.75Q91.0 366.5 106.5 367.25Q122.0 368.0 151.5 368.0H218.5V332.0Q218.0 302.5 216.0 302.5Q215.5 302.5 212.0 306.0Q204.5 317.0 199.0 317.0Q195.0 317.0 195.0 307.5ZM483.0 343.5 477.0 342.5Q472.0 342.0 467.0 340.5Q462.0 339.0 459.5 338.5Q459.0 338.0 457.5 337.5Q456.0 337.0 455.0 337.0Q454.5 337.0 454.0 336.75Q453.5 336.5 453.5 336.5Q453.5 338.5 456.5 345.5Q459.5 352.5 463.5 360.5Q467.5 368.5 471.0 374.25Q474.5 380.0 475.5 380.0Q476.0 380.0 480.0 374.5Q484.0 369.0 487.5 362.5Q490.5 356.5 492.75 353.25Q495.0 350.0 495.0 348.0Q495.0 347.0 483.0 343.5ZM254.5 238.5Q254.5 237.5 251.0 233.5Q247.5 229.5 243.0 226.5Q235.0 218.5 234.0 218.5Q232.5 218.5 232.5 234.5Q232.5 252.0 235.0 252.0Q236.5 252.0 238.5 251.0Q240.5 250.0 243.0 248.5Q247.5 247.0 251.0 243.75Q254.5 240.5 254.5 238.5ZM439.0 254.5Q439.0 254.0 434.25 253.25Q429.5 252.5 422.5 252.5Q406.5 252.5 406.5 256.5Q406.5 261.5 415.0 273.0L424.0 286.0L430.5 274.0Q434.0 267.0 436.25 261.75Q438.5 256.5 439.0 254.5ZM514.5 329.5Q513.0 325.5 504.5 315.75Q496.0 306.0 486.0 295.0L453.5 263.0L443.5 284.0Q439.5 292.0 437.5 296.0Q435.5 300.0 435.5 302.5Q435.5 305.0 438.0 307.25Q440.5 309.5 445.5 314.5Q451.0 318.5 462.0 322.75Q473.0 327.0 485.25 329.5Q497.5 332.0 505.5 332.0Q512.5 332.0 514.5 329.5ZM598.5 294.5Q600.5 292.0 602.25 290.5Q604.0 289.0 604.0 287.0Q604.0 284.0 597.0 276.5Q590.0 269.0 573.5 252.0L539.0 217.0Q536.0 218.5 527.5 223.75Q519.0 229.0 515.5 231.0Q504.5 237.5 494.75 242.75Q485.0 248.0 481.0 249.5Q472.0 253.5 472.0 256.0Q472.0 257.0 480.75 267.25Q489.5 277.5 503.0 291.0L535.5 322.5Q547.5 317.0 560.5 311.5Q571.5 307.5 582.5 302.5Q593.5 297.5 598.5 294.5ZM56.5 139.0Q58.0 139.0 62.5 136.25Q67.0 133.5 70.75 130.25Q74.5 127.0 74.5 126.0Q74.5 124.0 72.75 122.25Q71.0 120.5 67.5 116.5Q61.5 110.5 59.5 110.5Q58.0 110.5 56.5 115.5Q54.5 120.0 54.5 127.5Q54.5 129.5 54.5 131.25Q54.5 133.0 55.0 134.0Q56.0 139.0 56.5 139.0ZM216.0 147.5V147.0Q215.0 143.5 209.25 142.0Q203.5 140.5 189.25 139.75Q175.0 139.0 148.5 139.0Q121.0 139.0 106.25 139.75Q91.5 140.5 84.0 143.0Q76.5 145.5 70.5 150.5Q60.0 158.0 60.0 162.5Q60.0 167.0 64.25 175.25Q68.5 183.5 74.0 191.0Q79.5 198.5 83.0 200.5Q87.0 203.5 108.0 205.25Q129.0 207.0 154.0 207.0H211.5L216.0 181.5Q216.5 175.0 216.75 168.75Q217.0 162.5 217.0 158.5Q217.0 150.5 216.0 147.5ZM238.5 98.0 247.0 79.5H206.5L214.0 98.0Q217.5 105.0 221.0 110.75Q224.5 116.5 226.0 117.5Q227.0 116.5 231.0 110.75Q235.0 105.0 238.5 98.0ZM398.5 175.5Q397.5 168.5 396.0 162.5Q394.5 156.5 393.5 156.5Q392.5 156.5 386.75 160.0Q381.0 163.5 374.0 168.0Q367.0 172.5 362.0 176.5Q357.0 180.5 357.0 181.5Q357.0 184.0 365.0 187.0Q373.0 190.0 382.5 192.0Q392.0 194.0 396.0 194.0Q399.5 194.0 399.5 190.0Q399.5 187.5 399.25 184.0Q399.0 180.5 398.5 175.5ZM475.0 111.5Q475.0 104.0 472.5 104.0Q470.0 104.0 463.75 107.25Q457.5 110.5 450.5 115.0Q443.5 119.5 438.5 123.25Q433.5 127.0 433.5 128.0Q433.5 130.5 456.5 138.5L481.0 147.0L478.5 135.5Q476.5 130.0 475.75 123.0Q475.0 116.0 475.0 111.5ZM525.0 201.5Q522.0 193.0 509.75 183.5Q497.5 174.0 481.25 165.5Q465.0 157.0 449.5 151.5Q434.0 146.0 424.0 146.0Q416.0 146.0 413.5 151.75Q411.0 157.5 411.0 170.5Q411.0 178.0 416.0 189.75Q421.0 201.5 430.5 212.5Q438.0 224.0 443.75 229.0Q449.5 234.0 457.5 234.0Q465.0 234.0 475.75 230.0Q486.5 226.0 503.5 218.5Q515.5 214.0 520.25 210.0Q525.0 206.0 525.0 202.5ZM689.0 234.0Q685.5 228.5 675.5 217.25Q665.5 206.0 656.0 196.5L633.0 174.5Q629.5 176.5 618.0 182.0Q606.5 187.5 593.25 194.0Q580.0 200.5 570.5 206.0Q561.0 211.5 561.0 213.5Q562.0 215.5 571.75 226.75Q581.5 238.0 595.0 251.5L625.0 284.0Q628.5 282.0 636.25 278.25Q644.0 274.5 652.0 270.5Q660.0 266.5 663.0 265.0L700.0 247.0Q697.5 243.5 694.5 240.25Q691.5 237.0 689.0 234.0ZM557.0 69.5Q556.5 59.5 554.75 55.0Q553.0 50.5 548.5 50.5Q546.0 50.5 537.5 54.75Q529.0 59.0 521.25 64.25Q513.5 69.5 513.5 72.0Q513.5 74.0 517.25 75.25Q521.0 76.5 526.5 78.0Q531.5 79.5 538.75 81.75Q546.0 84.0 549.0 85.5Q550.5 86.0 551.75 86.25Q553.0 86.5 554.0 86.5Q557.5 86.5 557.5 77.5Q557.5 76.0 557.25 73.75Q557.0 71.5 557.0 69.5ZM545.5 100.5Q535.5 96.5 526.25 94.0Q517.0 91.5 509.5 91.5Q502.5 91.5 497.5 93.25Q492.5 95.0 491.5 99.0Q489.0 104.0 489.0 111.5Q489.0 125.0 497.5 141.75Q506.0 158.5 520.0 174.5L544.0 201.5Q553.5 197.0 562.25 192.75Q571.0 188.5 580.5 183.5Q597.0 176.5 607.0 170.0Q617.0 163.5 617.0 163.0Q617.0 159.5 609.0 150.75Q601.0 142.0 589.25 131.5Q577.5 121.0 565.5 112.5Q553.5 104.0 545.5 100.5ZM559.0 22.5Q574.0 10.0 579.5 10.0Q584.0 10.0 584.0 15.5Q584.0 20.0 579.0 29.5Q572.5 43.5 572.5 59.0Q572.5 77.5 580.5 93.5Q583.5 99.0 591.5 108.75Q599.5 118.5 609.25 129.0Q619.0 139.5 628.25 147.0Q637.5 154.5 644.0 155.0Q646.0 155.0 648.0 154.0Q653.5 150.0 657.75 148.75Q662.0 147.5 664.0 147.5Q669.5 147.5 669.5 151.5Q669.5 153.5 668.0 156.0Q666.5 158.5 662.5 160.5L650.5 170.5L703.0 227.0Q718.0 241.5 730.25 255.5Q742.5 269.5 749.75 279.25Q757.0 289.0 757.0 292.0Q757.0 296.0 755.0 296.0Q749.0 296.0 734.5 280.5L711.0 259.5Q708.0 261.0 700.5 264.5Q693.0 268.0 685.75 271.0Q678.5 274.0 675.5 275.5Q658.5 282.5 648.25 288.5Q638.0 294.5 638.0 295.5Q638.0 298.0 644.5 305.0Q651.0 312.0 659.0 322.0Q664.5 326.5 671.0 334.75Q677.5 343.0 677.5 351.5Q677.0 351.5 676.5 351.75Q676.0 352.0 675.5 352.0Q672.0 352.0 664.0 346.25Q656.0 340.5 647.0 331.0Q637.5 320.0 628.25 313.0Q619.0 306.0 615.0 306.0Q611.0 306.0 600.5 310.0Q590.0 314.0 578.0 320.0Q566.0 326.0 557.25 331.0Q548.5 336.0 548.5 338.5Q548.5 339.0 556.75 348.5Q565.0 358.0 576.5 370.0Q586.5 380.5 593.5 390.0Q600.5 399.5 600.5 403.0Q600.5 403.5 600.25 403.75Q600.0 404.0 600.0 404.5Q599.5 405.0 598.5 405.5Q597.5 406.0 597.5 406.0Q594.0 405.0 583.5 396.0Q573.0 387.0 561.0 374.0L529.5 339.5L510.5 358.0Q500.5 367.5 496.5 377.0Q492.5 386.5 491.5 399.5Q491.0 409.5 489.0 417.5Q487.0 425.5 484.5 426.5Q483.0 426.5 477.5 416.75Q472.0 407.0 465.0 394.5Q459.0 381.5 450.75 367.25Q442.5 353.0 437.0 344.5Q432.0 337.5 422.75 321.25Q413.5 305.0 406.5 290.0L389.0 255.0H320.5Q289.0 255.0 271.25 257.5Q253.5 260.0 245.25 268.75Q237.0 277.5 234.75 296.5Q232.5 315.5 232.5 349.0V352.5Q232.5 386.0 230.5 408.75Q228.5 431.5 226.0 431.5Q223.0 431.5 220.5 424.25Q218.0 417.0 216.5 407.0L215.0 386.5L144.5 384.5Q135.5 384.5 128.25 384.25Q121.0 384.0 114.0 384.0Q87.0 384.0 72.5 387.0Q58.0 390.0 50.25 398.0Q42.5 406.0 34.5 422.0Q28.0 434.5 21.75 441.5Q15.5 448.5 13.0 448.5Q10.0 448.5 10.0 443.5Q10.0 439.0 12.0 433.0Q13.5 428.0 16.5 410.75Q19.5 393.5 22.5 375.5Q25.0 357.5 28.5 337.5Q32.0 317.5 34.0 309.0Q36.0 298.5 37.5 291.0Q39.0 283.5 39.0 278.5Q39.0 272.5 36.5 272.5Q35.5 272.5 35.5 273.0Q34.0 274.5 32.0 274.5Q28.0 274.5 28.0 264.0Q28.0 258.5 29.5 249.5Q31.0 240.5 33.0 228.0Q34.0 223.5 34.5 218.5Q35.0 213.5 35.0 209.5Q35.0 202.5 34.0 200.5Q32.5 199.5 32.0 196.5Q31.5 193.5 31.5 190.0Q31.5 182.0 33.0 170.75Q34.5 159.5 36.0 147.5L38.0 138.5Q41.0 120.0 43.25 104.5Q45.5 89.0 45.5 83.0Q45.5 64.5 52.0 64.5Q59.5 64.5 67.5 86.0Q74.5 101.0 83.5 109.25Q92.5 117.5 109.25 120.5Q126.0 123.5 155.5 123.5Q182.0 123.5 194.25 122.0Q206.5 120.5 206.5 114.0Q206.5 110.0 201.0 103.25Q195.5 96.5 186.5 86.5Q177.5 78.0 171.25 70.5Q165.0 63.0 165.0 61.5Q165.0 61.5 183.25 60.75Q201.5 60.0 227.0 60.0H292.0L266.0 86.5Q256.0 97.0 251.0 103.75Q246.0 110.5 246.0 116.5Q246.0 120.0 247.0 122.0Q248.0 123.5 248.0 125.75Q248.0 128.0 248.0 130.0Q248.0 138.0 240.0 142.5Q233.0 143.0 233.0 156.0Q233.0 175.0 238.5 189.5Q244.0 204.0 258.5 218.0Q266.0 225.0 271.25 228.75Q276.5 232.5 283.0 234.25Q289.5 236.0 299.75 236.25Q310.0 236.5 327.5 236.5Q354.5 236.5 363.0 235.75Q371.5 235.0 371.5 231.5Q371.5 229.5 370.5 227.5Q368.5 223.0 368.5 219.0Q368.5 214.0 373.5 214.0Q376.0 214.0 381.0 216.0Q386.0 218.0 392.5 222.5Q408.0 230.5 415.5 230.5Q418.5 230.5 418.5 229.5Q418.5 228.5 417.5 228.0Q416.5 227.5 415.5 226.0H416.0Q411.0 219.5 396.0 213.5Q381.0 207.5 363.25 203.5Q345.5 199.5 331.5 199.5Q322.0 199.5 315.0 196.75Q308.0 194.0 308.0 190.5Q308.0 188.0 318.5 180.5Q329.0 173.0 343.0 164.5Q358.0 158.0 369.75 150.5Q381.5 143.0 383.5 140.5V142.0Q386.0 136.5 398.75 128.0Q411.5 119.5 427.0 111.5Q443.0 103.0 455.0 94.75Q467.0 86.5 467.5 83.0V83.5Q468.0 78.5 479.0 70.75Q490.0 63.0 504.0 56.0Q519.0 49.0 535.0 39.0Q551.0 29.0 559.0 22.5Z" fill="black" /></svg>