<svg xmlns="http://www.w3.org/2000/svg" width="656.0" height="390.5" viewBox="0 0 656.0 390.5"><path d="M71.0 274.0Q50.5 260.0 47.5 260.0Q46.0 260.0 46.0 266.0Q46.0 270.5 44.0 283.25Q42.0 296.0 39.0 308.5Q37.5 317.0 36.5 324.5Q35.5 332.0 35.5 336.0Q35.5 337.5 34.5 337.5Q36.5 337.0 42.75 334.75Q49.0 332.5 55.5 330.0Q62.5 326.5 80.5 322.5Q98.5 318.5 115.5 316.0L147.5 310.5Q141.0 308.0 134.5 305.0Q128.0 302.0 121.0 299.5Q106.5 294.0 91.75 286.5Q77.0 279.0 71.0 274.0ZM191.0 172.5Q191.0 171.5 191.25 171.25Q191.5 171.0 191.5 171.0Q191.0 170.0 190.5 168.75Q190.0 167.5 189.5 166.5Q187.5 165.0 185.0 165.0Q182.5 165.0 182.5 166.5L182.0 167.0Q182.0 169.0 184.25 170.75Q186.5 172.5 188.5 173.0Q188.5 173.0 189.5 172.75Q190.5 172.5 191.0 172.5ZM196.5 235.5Q196.5 234.5 194.5 232.75Q192.5 231.0 190.0 230.5Q189.5 229.5 188.0 229.5Q185.0 229.5 185.0 232.5Q185.0 234.0 187.0 235.75Q189.0 237.5 191.0 237.5Q196.5 237.5 196.5 235.5ZM450.5 203.5Q452.0 199.5 453.0 197.25Q454.0 195.0 454.0 194.5Q452.0 194.5 441.5 206.5Q436.0 213.0 430.25 217.5Q424.5 222.0 423.0 222.0Q418.5 222.0 413.0 229.0Q412.0 231.5 411.0 231.5Q412.0 234.0 418.5 234.5Q423.5 235.5 429.5 237.5Q435.5 239.5 439.0 240.5Q440.0 241.5 442.0 241.5Q445.0 241.5 445.0 230.5Q445.0 223.0 446.75 215.5Q448.5 208.0 450.5 203.5ZM112.0 60.5 121.0 49.0H104.5Q96.5 49.0 90.75 48.75Q85.0 48.5 85.0 48.0Q85.0 49.5 88.5 57.0Q92.0 64.5 95.75 71.5Q99.5 78.5 100.0 78.5Q101.0 78.0 104.75 72.5Q108.5 67.0 112.0 60.5ZM191.5 107.0Q191.5 102.0 188.0 101.0L187.0 100.0Q185.0 100.0 185.0 103.0Q185.0 109.0 188.5 109.0Q191.5 109.0 191.5 107.0ZM355.0 113.5H354.5Q358.0 110.0 358.5 109.0Q355.0 109.5 347.5 113.25Q340.0 117.0 331.75 122.25Q323.5 127.5 317.75 132.25Q312.0 137.0 312.0 139.5Q312.0 143.0 325.5 144.5Q327.0 145.0 328.75 145.25Q330.5 145.5 331.5 145.5Q337.5 145.5 341.0 136.0Q343.5 129.5 347.5 123.25Q351.5 117.0 355.0 113.5ZM424.5 139.0Q425.5 123.0 426.0 109.0Q426.5 95.0 426.5 84.5Q426.5 77.5 426.5 72.5Q426.5 67.5 425.5 66.0Q424.5 62.0 423.0 62.0Q419.5 62.0 411.75 68.75Q404.0 75.5 394.5 86.25Q385.0 97.0 376.0 108.75Q367.0 120.5 361.25 131.0Q355.5 141.5 355.0 147.5V150.0Q356.0 155.5 362.5 166.0Q369.0 176.5 378.0 187.25Q387.0 198.0 395.0 205.5Q403.0 213.0 406.5 213.0Q413.5 213.0 417.25 197.75Q421.0 182.5 424.5 139.0ZM434.5 49.5 440.0 59.0 457.5 34.0H444.5Q428.5 34.0 428.5 37.0Q428.5 38.5 430.25 41.75Q432.0 45.0 434.5 50.5ZM602.5 34.0H585.5Q575.5 34.0 571.75 34.25Q568.0 34.5 568.0 36.0Q568.0 37.5 569.5 41.5Q570.5 47.0 572.0 52.75Q573.5 58.5 575.0 63.5Q577.5 74.0 579.5 74.0Q581.5 74.0 588.0 63.25Q594.5 52.5 602.5 34.0ZM483.0 14.5H482.5Q486.5 10.0 494.0 10.0Q507.0 10.0 511.5 19.0V21.5Q511.5 29.0 501.0 29.0Q490.0 29.0 475.0 41.0Q460.0 53.0 450.5 70.5Q444.0 81.5 441.0 95.75Q438.0 110.0 436.0 139.5Q435.5 150.0 435.5 159.25Q435.5 168.5 435.5 175.0Q435.5 181.5 435.0 184.75Q434.5 188.0 434.5 188.0Q436.5 188.0 444.25 181.25Q452.0 174.5 461.5 165.5Q470.0 156.5 477.0 151.0Q484.0 145.5 486.0 145.5L487.5 147.0Q487.5 150.5 483.25 161.5Q479.0 172.5 472.5 184.0Q465.5 198.0 461.5 209.0Q457.5 220.0 457.5 229.0Q457.5 243.0 467.25 255.0Q477.0 267.0 497.0 283.0Q508.5 291.0 520.25 301.75Q532.0 312.5 538.0 318.5Q543.5 325.0 548.5 328.25Q553.5 331.5 563.25 333.0Q573.0 334.5 592.5 336.0Q610.0 337.0 623.0 339.5Q636.0 342.0 636.0 345.0V346.5Q636.0 348.5 634.0 349.5Q632.0 350.5 623.5 350.5Q614.0 350.5 591.5 349.5Q569.0 348.5 527.0 345.75Q485.0 343.0 417.0 339.0Q337.0 333.5 278.25 331.0Q219.5 328.5 178.0 328.5Q131.0 328.5 102.25 332.25Q73.5 336.0 57.25 344.0Q41.0 352.0 31.0 365.0Q24.5 371.5 19.75 376.0Q15.0 380.5 13.0 380.5H11.5Q11.0 379.5 10.5 378.25Q10.0 377.0 10.0 375.5Q10.0 371.5 11.75 365.0Q13.5 358.5 15.5 352.0Q23.0 328.5 27.25 307.5Q31.5 286.5 31.5 269.5Q31.5 262.5 30.5 256.75Q29.5 251.0 28.0 246.0Q26.0 240.5 25.5 235.25Q25.0 230.0 25.0 226.5Q25.0 214.0 31.0 214.0Q33.5 214.0 35.5 215.5Q40.5 220.0 40.5 229.5Q40.5 232.5 46.0 238.25Q51.5 244.0 59.5 250.5Q67.5 257.0 74.75 261.5Q82.0 266.0 85.0 266.0H86.5Q87.5 264.5 88.0 252.5Q88.5 240.5 88.75 223.0Q89.0 205.5 89.25 188.0Q89.5 170.5 89.5 158.25Q89.5 146.0 89.5 144.0Q89.5 119.5 88.75 105.0Q88.0 90.5 86.25 82.25Q84.5 74.0 81.5 68.0V69.0Q78.0 62.5 72.75 57.75Q67.5 53.0 63.5 51.0Q52.5 46.5 52.5 42.0Q52.5 38.5 61.0 36.25Q69.5 34.0 85.0 34.0Q98.0 34.0 112.5 32.5Q127.0 31.0 135.0 29.0Q140.5 28.0 144.5 27.0Q148.5 26.0 151.5 26.0Q155.5 26.0 159.75 28.0Q164.0 30.0 164.0 34.5Q164.0 38.5 157.5 38.5Q149.0 38.5 135.75 53.5Q122.5 68.5 112.5 89.5Q108.5 98.0 106.0 105.25Q103.5 112.5 102.5 122.5Q101.5 132.5 101.25 149.25Q101.0 166.0 101.0 194.0V223.0Q101.0 243.5 102.25 255.5Q103.5 267.5 108.5 274.25Q113.5 281.0 123.5 285.5Q133.5 290.0 150.5 295.5Q153.0 296.5 155.75 297.5Q158.5 298.5 162.0 299.5Q175.0 303.5 188.0 306.5Q201.0 309.5 221.5 311.75Q242.0 314.0 275.75 316.5Q309.5 319.0 364.0 322.5Q402.5 324.5 435.25 326.25Q468.0 328.0 491.5 329.0Q515.0 330.0 524.5 330.0Q528.0 330.0 528.5 330.5L529.0 330.0Q529.0 327.0 519.5 318.75Q510.0 310.5 486.0 292.0Q464.0 275.5 449.75 266.25Q435.5 257.0 424.25 252.0Q413.0 247.0 400.5 245.0Q392.5 243.5 386.5 240.75Q380.5 238.0 380.5 234.5Q380.5 228.0 387.0 228.0Q391.0 228.0 391.0 226.5Q391.0 218.5 365.5 194.0Q341.0 171.0 326.5 162.0Q312.0 153.0 298.5 153.0Q276.5 153.0 276.5 144.5Q276.5 138.0 289.0 132.0Q304.5 125.5 304.5 122.5Q304.5 118.0 252.5 118.0Q228.0 118.0 216.25 118.75Q204.5 119.5 199.0 121.5Q193.5 123.5 188.5 127.5Q182.0 135.5 182.0 136.5Q182.0 139.0 188.5 145.5Q197.0 154.5 206.25 159.5Q215.5 164.5 231.0 166.5Q246.5 168.5 272.0 168.5Q294.0 168.5 309.25 169.75Q324.5 171.0 326.0 173.5V175.0Q326.0 182.5 261.5 182.5Q232.0 182.5 217.25 183.0Q202.5 183.5 196.5 185.5Q190.5 187.5 186.5 191.5H187.0Q181.0 197.5 181.0 200.0Q181.0 201.5 182.75 203.5Q184.5 205.5 188.0 209.5Q196.0 218.5 206.5 223.5Q217.0 228.5 234.75 230.5Q252.5 232.5 281.0 232.5Q303.0 232.5 321.25 234.25Q339.5 236.0 343.0 237.5Q344.5 239.0 344.5 240.5Q344.5 247.5 276.5 247.5Q250.0 247.5 234.75 247.75Q219.5 248.0 211.5 249.0Q203.5 250.0 199.25 252.5Q195.0 255.0 189.5 259.5L172.0 274.0L171.5 239.0Q171.0 211.0 170.5 184.25Q170.0 157.5 170.0 135.0Q170.0 103.0 171.0 82.75Q172.0 62.5 173.0 60.5H174.5Q176.0 60.5 178.5 64.0Q181.0 67.5 182.0 72.5Q185.0 84.0 194.5 90.75Q204.0 97.5 223.5 100.5Q243.0 103.5 275.5 104.5H300.0Q317.0 104.5 326.0 103.75Q335.0 103.0 340.5 101.0Q346.0 99.0 352.0 95.0Q382.5 73.0 399.0 60.0Q415.5 47.0 415.5 43.5Q415.5 41.0 411.0 38.5Q406.5 36.0 399.5 33.0Q395.5 30.5 393.25 29.25Q391.0 28.0 391.0 26.0Q391.0 23.0 400.25 22.0Q409.5 21.0 431.5 20.5Q450.5 20.0 465.75 18.25Q481.0 16.5 483.0 14.5ZM623.5 16.0Q623.5 10.0 630.0 10.0Q634.0 10.0 638.75 12.5Q643.5 15.0 645.0 19.0Q645.0 19.5 645.5 20.25Q646.0 21.0 646.0 22.0Q646.0 25.0 643.75 27.0Q641.5 29.0 639.0 29.0Q633.5 29.0 624.5 37.25Q615.5 45.5 606.5 57.75Q597.5 70.0 592.5 82.5Q588.5 91.0 585.75 104.25Q583.0 117.5 581.0 141.0Q579.0 164.5 576.5 205.5Q575.0 233.5 573.5 257.25Q572.0 281.0 570.75 295.25Q569.5 309.5 568.5 310.5Q567.5 313.0 565.5 313.0Q563.5 313.0 562.25 307.25Q561.0 301.5 561.0 288.5Q561.0 276.0 562.0 255.25Q563.0 234.5 565.0 203.5Q568.0 145.5 568.0 115.0Q568.0 92.0 566.0 78.5Q564.0 65.0 560.0 56.75Q556.0 48.5 549.0 42.0Q542.5 36.0 538.5 30.75Q534.5 25.5 534.5 23.5Q534.5 22.5 548.0 20.75Q561.5 19.0 580.5 19.0Q601.0 19.0 612.25 18.5Q623.5 18.0 623.5 16.0Z" fill="black" /></svg>