<svg xmlns="http://www.w3.org/2000/svg" width="570.0" height="461.0" viewBox="0 0 570.0 461.0"><path d="M86.5 331.5V331.0Q86.5 328.0 81.5 328.0Q79.5 328.0 77.75 329.0Q76.0 330.0 76.0 331.0V331.5Q77.5 332.5 78.75 334.0Q80.0 335.5 81.5 335.5Q83.0 335.5 84.5 334.0Q86.0 332.5 86.5 331.5ZM172.5 250.0Q166.0 247.5 159.75 245.75Q153.5 244.0 151.5 244.0Q148.0 244.0 137.5 249.75Q127.0 255.5 114.25 264.25Q101.5 273.0 90.25 282.25Q79.0 291.5 74.0 298.0L62.0 312.5L70.5 314.5H71.5Q86.0 314.5 101.0 307.0Q111.0 303.0 125.25 295.5Q139.5 288.0 153.5 280.0Q167.5 272.0 177.0 265.75Q186.5 259.5 186.5 258.0Q186.5 256.0 182.25 253.75Q178.0 251.5 172.5 250.0ZM61.0 142.5Q62.0 140.5 62.0 139.5Q62.0 137.5 57.0 137.0Q52.0 136.5 46.5 136.25Q41.0 136.0 39.0 136.0Q32.0 137.0 32.0 139.5Q32.0 146.0 39.0 164.0L46.5 185.5L52.0 169.0Q53.0 166.5 54.0 163.5Q55.0 160.5 56.0 158.0Q58.0 152.5 59.5 148.5Q61.0 144.5 61.0 142.5ZM83.0 165.5Q83.0 159.5 78.5 159.5Q76.0 159.5 73.5 162.5Q73.5 163.0 73.0 163.5Q72.5 164.0 72.5 164.5Q72.5 166.5 74.5 168.75Q76.5 171.0 80.0 171.0Q81.0 171.0 82.0 169.25Q83.0 167.5 83.0 165.5ZM83.0 187.0Q77.0 184.5 73.25 182.5Q69.5 180.5 66.5 180.5Q62.0 180.5 59.0 194.0Q57.0 201.5 56.25 211.75Q55.5 222.0 55.5 233.5Q55.5 247.5 56.75 259.0Q58.0 270.5 60.0 273.0Q64.0 273.0 75.5 268.0Q87.0 263.0 100.25 256.5Q113.5 250.0 123.25 244.5Q133.0 239.0 133.0 237.0Q133.0 234.5 127.25 227.5Q121.5 220.5 113.0 212.0Q104.5 203.5 96.25 196.5Q88.0 189.5 83.0 187.0ZM220.0 204.5Q222.5 197.0 224.0 189.75Q225.5 182.5 225.5 179.5Q223.5 179.5 217.0 184.0Q210.5 188.5 203.25 195.25Q196.0 202.0 190.25 208.25Q184.5 214.5 183.5 218.5Q181.5 222.5 179.0 225.5Q176.5 228.5 174.0 228.5Q169.5 228.5 169.5 231.5Q169.5 235.5 175.0 237.0Q176.0 237.5 178.25 238.5Q180.5 239.5 183.5 240.5Q187.0 242.0 191.5 244.25Q196.0 246.5 200.5 248.0L217.5 255.0L215.0 243.0Q214.5 241.0 214.25 239.0Q214.0 237.0 214.0 234.0Q214.0 228.0 215.5 220.0Q217.0 212.0 220.0 204.5ZM267.0 260.5Q267.0 246.5 265.0 229.75Q263.0 213.0 259.75 197.75Q256.5 182.5 253.5 172.75Q250.5 163.0 248.0 163.0Q236.0 191.5 231.5 206.5Q227.0 221.5 227.0 231.5Q227.0 239.0 230.25 249.75Q233.5 260.5 238.0 266.0Q239.5 267.0 243.25 271.75Q247.0 276.5 250.5 283.5Q258.5 298.5 262.0 298.5Q267.0 298.5 267.0 260.5ZM130.5 91.0Q123.5 88.5 113.25 82.0Q103.0 75.5 95.5 69.0L80.0 56.0V87.5Q80.0 101.5 81.0 112.25Q82.0 123.0 83.0 124.0Q90.0 124.0 96.0 119.5V120.5Q100.0 117.0 109.5 113.25Q119.0 109.5 127.5 107.0Q136.0 104.0 141.5 101.5Q147.0 99.0 147.0 98.0Q147.0 98.0 142.25 96.0Q137.5 94.0 130.5 91.0ZM355.5 106.0H308.0Q287.0 106.0 262.25 105.25Q237.5 104.5 222.0 103.5Q214.0 103.0 207.75 102.75Q201.5 102.5 195.0 102.5Q185.0 102.5 176.5 104.0Q168.0 105.5 157.5 109.0Q147.0 112.5 131.0 119.0Q114.5 125.5 107.5 129.25Q100.5 133.0 98.75 137.5Q97.0 142.0 96.0 150.0V154.5Q96.0 165.0 99.75 172.25Q103.5 179.5 116.0 195.0Q124.5 204.5 132.25 212.25Q140.0 220.0 142.5 220.0Q145.0 219.5 153.75 214.0Q162.5 208.5 174.25 200.0Q186.0 191.5 198.0 182.25Q210.0 173.0 219.75 165.0Q229.5 157.0 233.5 152.5Q239.0 146.5 239.0 142.0Q239.0 138.0 236.5 135.0Q236.0 132.0 234.5 129.5Q232.5 127.0 232.0 124.25Q231.5 121.5 231.5 119.5Q231.5 117.5 240.5 116.75Q249.5 116.0 262.0 116.0Q273.5 116.0 285.75 116.5Q298.0 117.0 307.25 118.0Q316.5 119.0 318.0 120.5V122.5Q318.0 125.0 311.5 134.0Q305.5 140.5 298.75 153.25Q292.0 166.0 287.5 179.25Q283.0 192.5 283.0 200.5Q283.0 209.5 287.0 213.5Q291.0 217.5 306.5 223.0Q315.5 227.0 329.0 229.5Q342.5 232.0 351.5 232.0L372.5 233.5L372.0 198.0Q372.0 182.0 369.0 163.0Q366.0 144.0 363.0 132.5ZM295.5 132.5Q295.5 131.5 291.0 130.75Q286.5 130.0 279.5 130.0Q270.0 130.0 264.75 132.75Q259.5 135.5 259.5 144.0Q259.5 148.0 260.75 154.25Q262.0 160.5 264.0 168.5L271.5 191.0Q273.5 185.5 275.0 179.5Q276.5 173.5 278.5 168.5Q282.0 157.5 286.0 148.75Q290.0 140.0 292.0 138.5V139.0Q295.5 136.5 295.5 132.5ZM404.5 34.0Q404.5 33.0 395.25 32.25Q386.0 31.5 373.0 31.5Q357.5 31.5 351.25 32.25Q345.0 33.0 345.0 38.0Q345.0 41.0 347.5 47.5Q350.0 54.0 355.5 64.0Q358.0 68.5 361.5 80.0Q365.0 91.5 367.0 103.0L373.0 126.0L378.0 100.5Q381.0 88.5 386.25 74.75Q391.5 61.0 395.0 54.5Q399.0 48.0 401.75 41.75Q404.5 35.5 404.5 34.0ZM97.5 390.0Q94.0 386.5 86.0 382.75Q78.0 379.0 69.5 376.0Q61.0 373.0 56.0 373.0Q49.5 373.0 48.0 379.75Q46.5 386.5 46.5 402.5V428.5L59.0 425.0Q60.5 424.5 62.25 424.25Q64.0 424.0 66.5 423.5Q85.0 418.0 104.5 413.25Q124.0 408.5 142.5 406.0Q158.0 403.0 158.0 402.5Q158.0 399.0 130.5 396.0Q120.0 395.0 110.25 393.25Q100.5 391.5 97.5 390.0ZM117.5 370.5V370.0Q117.5 367.5 111.0 367.5Q106.5 367.5 106.5 370.0V370.5Q107.0 372.5 108.75 373.5Q110.5 374.5 111.0 374.5Q115.0 374.5 117.5 370.5ZM220.5 279.5Q215.5 275.5 210.0 272.5Q204.5 269.5 202.0 269.5Q197.0 269.5 183.5 276.75Q170.0 284.0 153.75 294.75Q137.5 305.5 123.0 316.5Q108.5 327.5 101.0 335.5H101.5Q93.0 345.0 86.25 351.0Q79.5 357.0 78.5 357.0H78.0Q75.5 355.5 72.5 350.5Q71.0 348.0 70.25 346.0Q69.5 344.0 67.5 343.0L61.0 333.0V344.0Q61.0 353.0 65.25 358.0Q69.5 363.0 75.5 363.0Q81.5 363.0 87.0 359.0Q91.0 357.5 99.5 355.5Q108.0 353.5 114.5 351.5Q118.5 351.0 130.5 345.75Q142.5 340.5 158.0 333.0Q173.5 325.5 189.0 317.25Q204.5 309.0 216.25 302.0Q228.0 295.0 232.0 291.5Q232.0 290.5 228.75 287.5Q225.5 284.5 220.5 279.5ZM267.0 395.0V357.0Q267.0 340.0 266.0 331.25Q265.0 322.5 262.75 317.75Q260.5 313.0 255.5 308.5L245.5 298.5Q234.0 305.0 222.25 312.0Q210.5 319.0 199.0 326.5Q162.0 347.5 146.25 359.75Q130.5 372.0 130.5 379.0Q130.5 382.5 149.5 385.5Q168.5 388.5 219.5 392.0ZM308.5 239.0Q299.0 235.0 291.5 231.75Q284.0 228.5 283.5 228.5Q283.0 228.5 283.0 233.5Q283.0 238.5 283.0 244.5Q283.0 250.5 283.25 255.25Q283.5 260.0 284.0 260.0Q284.5 260.0 288.0 259.25Q291.5 258.5 296.5 256.5Q302.5 254.5 310.25 251.75Q318.0 249.0 326.5 247.0Q323.0 244.5 308.5 239.0ZM326.5 247.0 327.0 247.5Q327.0 247.5 327.0 247.25Q327.0 247.0 326.5 247.0ZM340.0 394.5 323.5 375.5Q315.0 367.0 305.5 357.0Q296.0 347.0 290.0 343.0L278.5 333.0L281.5 392.0ZM375.5 323.5V254.0H363.0Q355.0 254.0 339.5 257.5Q324.0 261.0 309.0 265.75Q294.0 270.5 287.0 274.0Q279.0 277.0 279.0 296.0Q279.0 303.5 281.5 309.75Q284.0 316.0 292.5 325.5Q301.0 335.0 319.0 354.0Q336.5 369.5 350.25 381.25Q364.0 393.0 367.5 393.0Q371.0 393.0 372.5 389.0Q374.0 385.0 374.75 370.25Q375.5 355.5 375.5 323.5ZM324.5 11.5Q326.0 10.0 327.5 10.0Q332.0 10.0 338.0 12.5Q341.0 14.5 356.0 16.25Q371.0 18.0 389.5 18.0Q411.5 18.0 420.25 18.5Q429.0 19.0 429.0 22.5Q429.0 24.5 427.75 26.0Q426.5 27.5 424.5 30.0Q421.5 33.5 415.25 44.25Q409.0 55.0 403.5 66.5Q399.0 77.0 396.25 85.25Q393.5 93.5 392.0 103.25Q390.5 113.0 389.75 127.5Q389.0 142.0 388.5 166.0L387.0 235.5H472.0Q513.5 235.5 536.75 237.5Q560.0 239.5 560.0 242.5Q560.0 245.5 537.0 247.0Q514.0 248.5 473.5 248.5H387.5V393.0L427.0 395.0Q438.0 396.0 452.25 397.0Q466.5 398.0 480.25 398.5Q494.0 399.0 503.5 399.0Q519.0 399.0 529.75 400.25Q540.5 401.5 540.5 404.0Q540.5 407.0 510.75 408.0Q481.0 409.0 434.5 409.0H377.5Q353.0 408.5 332.75 408.5Q312.5 408.5 295.5 408.5Q261.0 408.5 238.5 409.25Q216.0 410.0 200.0 411.25Q184.0 412.5 169.5 414.5Q138.0 420.5 108.75 427.0Q79.5 433.5 59.75 439.0Q40.0 444.5 36.0 448.5Q32.0 451.0 31.5 451.0Q29.0 451.0 29.0 446.5Q29.0 444.5 29.5 441.0Q30.0 437.5 31.0 432.0Q32.0 424.0 32.5 408.75Q33.0 393.5 33.0 379.0Q33.0 358.0 34.75 351.0Q36.5 344.0 42.5 344.0Q47.5 344.0 48.0 340.5Q47.5 338.0 47.0 334.75Q46.5 331.5 45.5 327.5Q45.0 320.5 41.75 311.75Q38.5 303.0 36.0 299.0Q33.0 293.0 31.25 289.0Q29.5 285.0 29.5 282.5Q29.5 275.0 38.0 275.0Q41.0 275.0 42.25 272.75Q43.5 270.5 43.5 263.0Q43.5 224.5 34.75 194.5Q26.0 164.5 10.0 131.0V128.5Q10.0 125.5 13.5 124.0Q17.0 122.5 26.5 122.5Q29.0 122.5 31.75 122.75Q34.5 123.0 38.0 123.0L65.5 124.5L67.5 79.5Q67.5 75.5 67.75 71.5Q68.0 67.5 68.0 64.0Q69.0 50.5 69.5 41.25Q70.0 32.0 70.5 32.0Q72.0 32.0 78.25 37.5Q84.5 43.0 91.5 50.5Q99.5 58.5 109.75 65.0Q120.0 71.5 126.5 75.0Q133.0 78.5 151.25 81.75Q169.5 85.0 194.75 87.25Q220.0 89.5 246.5 90.75Q273.0 92.0 296.0 92.0Q319.5 92.0 335.0 91.0Q350.5 90.0 350.5 87.5Q350.5 85.0 346.5 73.5Q342.5 62.0 336.5 49.5Q331.5 36.5 327.75 26.75Q324.0 17.0 324.0 13.5Q324.0 13.0 324.25 12.5Q324.5 12.0 324.5 11.5ZM63.5 288.0V288.5Q63.5 289.0 58.5 293.0Q58.0 293.5 57.0 294.0Q56.0 294.5 56.0 294.5Q57.5 294.5 57.5 295.5L58.5 293.0V294.0Q61.0 288.0 63.5 288.0Z" fill="black" /></svg>