<svg xmlns="http://www.w3.org/2000/svg" width="854.5" height="451.0" viewBox="0 0 854.5 451.0"><path d="M33.5 321.5Q33.5 320.0 32.0 319.25Q30.5 318.5 29.5 318.5Q25.0 318.5 25.0 325.0Q25.0 326.5 27.5 329.0Q27.5 329.0 28.25 328.75Q29.0 328.5 29.0 327.5Q33.5 325.0 33.5 321.5ZM208.5 322.5 209.5 299.0V277.5Q205.0 280.0 196.0 286.0Q187.0 292.0 178.5 298.5Q170.0 305.0 166.0 309.0Q168.0 309.5 173.5 311.0Q179.0 312.5 186.5 315.5ZM49.5 195.0Q49.5 195.0 47.5 194.75Q45.5 194.5 42.0 194.5Q40.0 194.5 38.0 196.75Q36.0 199.0 36.0 201.5Q36.0 205.5 36.5 205.5Q39.0 205.5 41.5 201.5Q49.5 197.0 49.5 195.0ZM296.5 289.0Q296.5 287.0 292.5 287.0Q289.0 287.0 289.0 293.0Q289.0 296.0 290.5 296.0Q291.0 296.0 291.5 295.5Q294.0 294.5 295.25 292.5Q296.5 290.5 296.5 289.0ZM245.5 207.0V182.5Q245.5 171.5 245.0 164.5Q244.5 157.5 243.5 157.0Q241.5 158.5 235.5 163.25Q229.5 168.0 222.5 174.25Q215.5 180.5 210.5 185.75Q205.5 191.0 205.5 192.5Q205.5 193.0 210.5 194.5Q212.5 195.0 215.25 196.25Q218.0 197.5 220.5 198.5Q223.0 199.0 226.5 200.25Q230.0 201.5 232.5 202.0Q237.5 204.5 241.25 205.75Q245.0 207.0 245.5 207.0ZM275.5 180.0Q275.5 166.5 275.5 156.5Q275.5 146.5 275.0 146.5Q275.0 146.5 271.75 151.5Q268.5 156.5 264.5 164.5V163.5Q258.0 177.0 258.0 189.0Q258.0 197.0 261.25 203.5Q264.5 210.0 270.0 211.5H270.5Q273.5 211.5 274.5 204.25Q275.5 197.0 275.5 180.0ZM296.5 175.5Q296.5 173.0 292.5 173.0Q291.0 173.0 290.0 175.25Q289.0 177.5 289.0 180.0Q289.0 183.5 290.5 183.5Q291.0 183.5 291.5 183.0Q296.5 182.0 296.5 175.5ZM474.0 190.5Q466.0 185.0 457.5 182.5Q449.0 180.0 433.5 179.25Q418.0 178.5 389.0 178.5Q361.5 178.5 344.5 179.5Q327.5 180.5 318.0 183.75Q308.5 187.0 302.25 194.0Q296.0 201.0 289.5 212.5L279.0 229.5Q288.0 235.0 298.0 241.0Q308.0 247.0 317.0 252.5Q333.5 263.0 343.25 268.5Q353.0 274.0 361.25 275.75Q369.5 277.5 381.5 277.5H390.0Q415.5 277.5 415.5 276.5Q415.0 276.5 413.75 275.75Q412.5 275.0 410.0 274.5L391.5 267.5L412.5 259.0Q423.0 256.0 437.0 248.5Q451.0 241.0 464.25 232.0Q477.5 223.0 486.25 215.25Q495.0 207.5 495.5 203.5Q495.0 203.0 492.25 201.5Q489.5 200.0 485.5 197.0Q483.0 195.5 480.0 194.0Q477.0 192.5 474.0 190.5ZM468.5 251.0V251.5L469.0 250.0Q470.0 248.0 471.0 246.25Q472.0 244.5 472.5 243.5Q470.5 244.0 466.5 247.0Q462.5 250.0 455.0 254.0L435.0 267.0L450.5 272.0Q457.0 274.0 461.0 275.75Q465.0 277.5 467.0 277.5Q467.0 276.5 467.0 275.5Q467.0 274.5 466.5 273.0L465.5 272.0Q465.0 271.0 465.0 269.5Q465.0 268.0 465.0 267.0Q465.0 259.0 468.5 251.0ZM561.5 254.5Q560.0 252.0 551.75 245.0Q543.5 238.0 533.25 230.25Q523.0 222.5 515.0 216.75Q507.0 211.0 505.5 211.0Q505.0 211.0 500.0 220.5Q495.0 230.0 485.0 251.5Q479.0 262.0 479.0 271.0Q479.0 283.0 489.5 283.0Q495.5 283.0 495.5 287.5Q495.5 289.0 495.0 290.0Q496.0 294.5 502.75 300.25Q509.5 306.0 514.0 306.0Q517.0 306.0 518.5 300.0Q520.0 294.0 520.5 285.75Q521.0 277.5 521.25 270.5Q521.5 263.5 521.5 261.5Q522.0 247.5 524.25 238.5Q526.5 229.5 529.0 229.5Q535.0 229.5 535.0 238.5Q535.0 245.0 545.0 249.5Q555.0 254.0 561.5 254.5ZM547.5 269.0V268.5Q547.5 266.5 544.25 264.25Q541.0 262.0 538.5 262.0Q535.0 262.0 535.0 269.0Q535.0 275.5 541.0 275.5Q545.5 275.5 547.5 269.0ZM318.0 87.0Q313.0 87.0 304.5 84.75Q296.0 82.5 290.5 79.5L278.0 73.0V121.0L302.5 106.5Q327.5 92.0 327.5 89.0Q327.5 87.0 318.0 87.0ZM468.5 158.5Q468.5 146.0 478.0 136.5Q472.5 137.5 455.0 148.5L440.0 159.0L453.5 163.5Q457.5 164.5 460.5 165.5Q463.5 166.5 465.5 166.5Q468.5 166.5 468.5 158.5ZM657.5 143.0H753.5V87.0H568.0Q515.0 87.0 479.75 87.25Q444.5 87.5 422.75 88.25Q401.0 89.0 388.0 90.5Q375.0 92.0 366.25 94.5Q357.5 97.0 347.5 101.0Q344.0 102.0 334.25 106.0Q324.5 110.0 313.5 115.5Q302.5 121.0 294.5 127.0Q286.5 133.0 286.5 137.5Q286.5 139.0 287.0 141.25Q287.5 143.5 289.5 146.0Q291.0 150.0 294.5 154.25Q298.0 158.5 300.5 159.5Q304.0 162.0 320.25 162.75Q336.5 163.5 355.0 163.5Q374.0 163.5 389.25 163.0Q404.5 162.5 405.5 161.5Q406.0 159.0 413.75 154.25Q421.5 149.5 431.0 145.5Q441.0 140.0 456.0 131.5Q471.0 123.0 482.0 115.0Q491.5 107.5 497.0 103.5Q502.5 99.5 505.0 99.5Q506.5 99.5 506.5 103.0Q506.5 109.5 495.5 130.0Q488.5 141.5 485.5 149.25Q482.5 157.0 482.5 163.0Q482.5 170.0 489.5 173.0Q493.0 174.0 495.5 177.5Q498.0 181.0 498.0 184.5Q498.0 188.5 506.5 195.5V195.0Q509.0 196.5 510.75 197.5Q512.5 198.5 514.0 198.5Q516.0 198.5 519.0 186.0Q520.0 179.0 521.0 166.75Q522.0 154.5 522.0 144.0Q522.0 132.5 524.25 124.25Q526.5 116.0 529.0 116.0Q532.0 116.0 533.5 119.0Q535.0 122.0 535.0 126.0Q535.0 132.5 545.75 136.25Q556.5 140.0 583.25 141.5Q610.0 143.0 657.5 143.0ZM549.0 154.5Q549.0 152.0 542.0 149.5Q541.0 149.0 538.5 149.0Q535.0 149.0 535.0 154.5Q535.0 162.0 538.5 162.0Q541.5 162.0 542.0 161.5Q544.5 159.5 546.75 158.0Q549.0 156.5 549.0 154.5ZM662.5 256.0H753.5V157.0H573.0L552.0 173.0Q530.5 188.0 530.5 199.5Q530.5 211.5 553.5 229.5Q563.5 236.0 569.0 242.25Q574.5 248.5 574.5 251.5V252.5Q574.5 253.5 599.5 254.75Q624.5 256.0 662.5 256.0ZM781.5 53.0 794.0 33.5H751.0L757.0 45.5Q760.5 52.0 763.5 58.75Q766.5 65.5 767.5 68.5Q771.5 68.5 781.5 53.0ZM286.5 391.5Q286.5 388.0 282.0 388.0Q280.0 388.0 279.0 390.0Q278.0 392.0 278.0 394.5Q278.0 398.5 279.5 398.5Q281.0 398.5 281.5 398.0Q284.0 397.0 285.25 395.0Q286.5 393.0 286.5 391.5ZM306.0 360.5Q301.0 358.0 295.75 356.5Q290.5 355.0 286.5 353.5Q283.0 352.5 280.5 351.75Q278.0 351.0 277.0 350.5L278.0 351.0Q277.0 351.0 277.0 352.0Q277.0 355.5 279.75 361.25Q282.5 367.0 286.0 371.0Q293.0 378.5 301.0 378.5Q305.0 378.5 310.0 377.25Q315.0 376.0 321.0 372.5Q325.0 371.0 327.0 370.0Q329.0 369.0 329.0 369.0Q329.0 368.0 323.75 366.0Q318.5 364.0 306.0 360.5ZM510.5 325.0Q490.5 311.0 478.25 303.5Q466.0 296.0 456.75 293.0Q447.5 290.0 435.0 290.0Q428.0 290.0 416.0 290.5Q404.0 291.0 392.5 291.75Q381.0 292.5 375.0 294.5Q379.0 296.5 382.0 300.5Q385.0 304.5 385.0 308.0Q385.0 315.0 381.5 315.0Q379.5 315.0 375.5 312.25Q371.5 309.5 365.0 305.0Q357.5 299.5 348.75 295.25Q340.0 291.0 333.5 291.0Q325.0 291.0 314.75 297.75Q304.5 304.5 297.25 313.5Q290.0 322.5 289.5 329.5V330.5Q291.5 339.0 301.25 344.0Q311.0 349.0 336.75 351.0Q362.5 353.0 411.0 353.0H433.0Q462.0 353.0 486.75 352.75Q511.5 352.5 528.0 352.0Q544.5 351.5 547.5 351.0Q546.0 350.0 535.5 342.25Q525.0 334.5 510.5 325.0ZM807.5 14.0Q815.0 11.5 820.5 10.75Q826.0 10.0 830.5 10.0Q840.5 10.0 844.5 14.0V16.5Q844.5 18.5 841.25 21.5Q838.0 24.5 833.5 26.0Q825.0 28.0 814.0 37.5Q803.0 47.0 792.75 60.5Q782.5 74.0 776.5 88.5Q773.0 95.5 771.0 104.75Q769.0 114.0 768.0 131.25Q767.0 148.5 766.75 179.5Q766.5 210.5 766.5 261.5Q766.5 335.5 764.5 375.25Q762.5 415.0 760.0 415.0Q756.5 415.0 755.0 395.0Q753.5 375.0 753.5 341.0V270.0H573.0L552.0 286.0Q543.0 292.5 536.5 299.5Q530.0 306.5 530.0 310.0Q530.0 313.5 536.25 321.0Q542.5 328.5 550.5 335.5L571.0 353.0H659.5Q700.0 353.0 725.25 354.5Q750.5 356.0 750.5 359.0Q750.5 361.0 726.75 362.75Q703.0 364.5 659.5 365.75Q616.0 367.0 557.5 367.5Q501.5 368.0 465.25 368.5Q429.0 369.0 407.0 369.75Q385.0 370.5 372.75 371.75Q360.5 373.0 353.5 375.5Q346.5 378.0 339.5 381.5L316.5 392.0L334.0 409.5Q348.5 422.5 348.5 427.5Q348.5 430.0 345.0 430.0Q343.0 430.0 336.0 426.5Q329.0 423.0 319.0 414.5L301.5 399.5L288.5 411.0Q281.5 414.5 276.5 421.0Q271.5 427.5 270.0 431.5Q269.0 436.5 267.5 438.25Q266.0 440.0 265.0 441.0Q261.5 440.0 257.75 435.75Q254.0 431.5 254.0 428.0Q254.0 425.0 258.0 418.0V418.5Q260.5 413.5 262.5 405.0Q264.5 396.5 264.5 390.0Q264.5 382.0 262.25 377.25Q260.0 372.5 251.25 366.75Q242.5 361.0 223.0 350.5L182.0 326.0L117.5 325.0L53.5 322.5Q50.0 326.0 46.25 330.75Q42.5 335.5 39.5 339.5Q33.0 346.0 27.75 354.5Q22.5 363.0 21.0 368.0Q18.0 383.0 14.0 383.0Q10.0 383.0 10.0 353.5Q10.0 348.5 10.0 343.0Q10.0 337.5 10.5 331.0Q12.0 299.5 13.25 286.5Q14.5 273.5 17.5 273.5Q19.5 273.5 22.0 281.5Q26.0 293.5 30.0 298.75Q34.0 304.0 45.25 305.5Q56.5 307.0 82.0 308.0Q87.0 308.0 91.5 308.5Q96.0 309.0 101.0 309.0Q119.0 309.0 129.75 306.75Q140.5 304.5 148.5 300.0Q158.5 295.0 170.75 286.5Q183.0 278.0 195.0 268.5Q207.0 259.0 215.0 251.0Q223.0 243.0 224.5 239.5Q227.0 229.5 233.5 229.5Q236.5 229.5 237.75 233.0Q239.0 236.5 239.0 241.5Q239.0 246.0 238.0 250.0Q237.0 254.0 234.0 256.0V255.5Q231.5 257.5 228.5 266.75Q225.5 276.0 223.5 286.0Q221.5 296.0 221.5 301.0Q221.5 313.5 225.75 322.25Q230.0 331.0 237.5 331.0Q240.0 331.0 241.75 333.0Q243.5 335.0 243.5 337.0Q243.5 340.5 247.75 345.0Q252.0 349.5 256.75 352.75Q261.5 356.0 262.5 356.0Q264.0 356.0 264.25 352.25Q264.5 348.5 264.5 339.0Q264.5 329.0 266.5 322.0Q268.5 315.0 270.5 315.0Q273.0 315.0 274.25 305.5Q275.5 296.0 275.5 285.0Q275.5 251.0 282.5 251.0Q287.5 251.0 292.5 265.0Q295.5 271.5 300.25 274.5Q305.0 277.5 314.0 277.5H329.0Q329.0 276.5 319.75 270.5Q310.5 264.5 296.25 255.75Q282.0 247.0 266.5 238.25Q251.0 229.5 238.0 222.5Q225.0 215.5 219.0 213.5Q211.0 209.5 194.5 206.75Q178.0 204.0 158.75 202.0Q139.5 200.0 121.5 199.25Q103.5 198.5 92.5 198.5Q75.5 198.5 66.5 201.5Q57.5 204.5 52.25 212.5Q47.0 220.5 40.0 235.0Q35.5 244.5 31.25 251.75Q27.0 259.0 26.0 259.0Q25.0 259.0 23.75 242.75Q22.5 226.5 22.5 203.5Q22.5 180.5 24.25 164.5Q26.0 148.5 28.5 148.5Q30.5 148.5 34.25 154.0Q38.0 159.5 41.5 166.5L49.0 183.0L182.5 186.0L216.5 162.0Q236.0 146.5 246.25 136.75Q256.5 127.0 260.5 117.0Q264.5 107.0 264.5 92.5Q264.5 88.5 264.5 85.0Q264.5 81.5 263.5 78.0Q263.0 74.0 263.0 70.0Q263.0 66.0 263.0 62.5Q263.0 42.0 268.5 40.0Q270.0 40.5 272.25 42.75Q274.5 45.0 276.5 50.0Q277.5 53.5 283.0 57.75Q288.5 62.0 295.0 66.0Q299.0 68.5 305.75 70.25Q312.5 72.0 325.5 73.0Q338.5 74.0 361.0 74.25Q383.5 74.5 418.5 74.5Q440.5 74.5 468.75 74.25Q497.0 74.0 531.5 74.0Q576.0 74.0 615.5 73.5Q655.0 73.0 685.25 72.25Q715.5 71.5 733.25 71.0Q751.0 70.5 752.0 70.5V70.0Q752.0 66.0 748.0 59.0Q744.0 52.0 738.5 45.25Q733.0 38.5 727.5 36.5Q714.5 29.0 714.5 25.5Q714.5 17.5 743.0 17.5Q745.5 17.5 748.75 17.75Q752.0 18.0 755.5 18.0Q759.5 18.0 763.0 18.25Q766.5 18.5 770.0 18.5Q782.0 18.5 792.5 17.25Q803.0 16.0 807.5 14.0Z" fill="black" /></svg>