<svg xmlns="http://www.w3.org/2000/svg" width="1145.5" height="339.0" viewBox="0 0 1145.5 339.0"><path d="M104.5 264.5Q93.5 263.5 79.25 262.25Q65.0 261.0 56.5 259.0L37.0 254.5V296.0Q43.0 294.5 48.5 293.0Q54.0 291.5 59.5 290.0Q69.5 287.0 88.25 282.75Q107.0 278.5 123.5 275.5Q155.0 270.5 155.0 269.5Q155.0 269.5 153.5 269.25Q152.0 269.0 149.5 268.5Q143.0 266.5 130.0 265.75Q117.0 265.0 104.5 264.5ZM115.5 162.5Q116.5 158.0 117.0 154.5Q117.5 151.0 117.5 149.0Q116.5 150.0 112.25 154.0Q108.0 158.0 102.5 163.5L90.0 177.5H100.5Q108.5 177.5 111.5 174.5Q114.5 171.5 115.5 162.5ZM800.5 171.0Q800.5 159.5 799.0 159.5Q797.5 159.5 795.5 168.5V168.0Q795.0 169.5 795.0 171.0Q795.0 172.5 795.0 173.5Q795.0 179.0 797.0 181.0V180.5L797.5 181.0Q800.5 181.0 800.5 171.0ZM852.5 238.0Q847.5 238.0 831.25 234.0Q815.0 230.0 797.0 225.0Q784.5 221.5 774.75 218.5Q765.0 215.5 759.5 214.5Q762.0 216.5 766.25 219.5Q770.5 222.5 775.5 226.0Q784.5 232.0 796.75 241.5Q809.0 251.0 817.5 259.0L836.5 276.0L850.0 259.0Q862.5 243.0 862.5 239.5Q862.5 238.0 852.5 238.0ZM837.0 109.5Q837.0 101.0 825.0 101.0Q819.5 101.0 817.0 103.0Q814.5 105.0 814.0 113.0Q813.5 121.0 813.5 139.5Q813.5 155.5 814.25 165.0Q815.0 174.5 817.0 174.5Q819.0 172.5 822.25 164.25Q825.5 156.0 829.0 145.25Q832.5 134.5 834.75 124.5Q837.0 114.5 837.0 109.5ZM839.5 187.5Q839.5 183.5 838.75 180.5Q838.0 177.5 837.0 174.0Q836.0 169.0 835.25 166.75Q834.5 164.5 834.5 164.5Q834.5 164.5 834.25 166.5Q834.0 168.5 833.0 172.5Q832.5 174.0 832.5 177.0Q832.5 181.0 834.0 184.5Q835.5 188.0 837.5 188.0Q839.0 188.0 839.5 187.5ZM875.5 123.5Q876.0 121.0 876.0 118.5Q876.0 116.0 876.0 114.0Q876.0 107.0 873.25 105.0Q870.5 103.0 863.5 102.5L849.5 101.0V141.0Q849.5 158.0 851.0 170.5Q852.5 183.0 854.0 184.0L854.5 184.5Q858.0 184.5 862.75 174.25Q867.5 164.0 871.25 149.5Q875.0 135.0 875.5 123.5ZM877.5 191.5Q878.0 190.5 878.5 188.5Q879.0 186.5 879.0 184.0Q879.0 181.0 878.5 180.5Q877.5 175.0 877.0 175.0Q875.5 175.0 874.0 181.0Q872.5 187.0 872.5 188.5Q872.5 193.0 874.5 193.0Q876.0 193.0 877.5 191.5ZM918.0 144.0Q908.5 139.0 901.0 135.5Q893.5 132.0 892.5 132.0Q892.0 132.0 892.0 144.5Q892.0 147.0 892.0 150.0Q892.0 153.0 892.5 156.0Q893.0 166.5 894.75 172.5Q896.5 178.5 901.5 183.75Q906.5 189.0 917.0 197.5Q933.0 209.5 940.5 209.5Q945.5 209.5 948.5 204.25Q951.5 199.0 953.25 192.25Q955.0 185.5 955.0 181.5Q955.0 162.5 918.0 144.0ZM957.5 235.5Q957.5 232.5 950.5 232.5Q947.5 232.5 945.75 234.5Q944.0 236.5 944.0 238.5Q944.0 242.0 947.5 242.0Q949.0 242.0 950.0 241.5Q957.5 239.0 957.5 235.5ZM946.0 112.5Q926.5 110.0 915.0 108.5Q903.5 107.0 898.0 107.0Q891.0 107.0 891.0 109.5Q891.0 113.0 901.75 119.75Q912.5 126.5 928.75 134.0Q945.0 141.5 962.0 148.25Q979.0 155.0 992.0 158.5H991.5Q994.5 159.0 996.5 159.25Q998.5 159.5 1000.0 159.5Q1003.0 159.5 1003.5 156.0Q1004.0 152.5 1004.0 142.5V140.0Q1004.0 130.0 1001.25 125.75Q998.5 121.5 986.5 118.75Q974.5 116.0 946.0 112.5ZM989.5 170.0Q989.5 169.5 980.0 169.5Q970.5 169.5 968.5 182.0L966.5 191.0L977.0 182.0L985.0 174.0Q987.0 172.0 988.25 171.0Q989.5 170.0 989.5 170.0ZM1000.0 191.0Q1000.0 185.0 997.0 185.0Q994.5 185.0 989.0 189.25Q983.5 193.5 977.75 199.5Q972.0 205.5 967.75 211.0Q963.5 216.5 963.5 219.5Q963.5 224.0 978.0 224.0Q987.0 224.0 993.5 214.0Q1000.0 204.0 1000.0 191.0ZM1013.5 270.0Q1013.5 266.0 1012.25 256.75Q1011.0 247.5 1009.0 239.5Q1007.0 231.5 1004.5 231.5Q1001.5 231.5 997.0 245.0Q996.5 247.0 995.5 249.5Q994.5 252.0 993.5 254.5Q989.5 268.0 987.5 271.5L987.0 272.5Q987.0 276.5 1000.0 276.5Q1008.0 276.5 1010.75 275.75Q1013.5 275.0 1013.5 270.0ZM146.5 89.0Q147.5 84.5 148.0 80.0Q148.5 75.5 148.5 75.5Q145.0 78.5 138.75 84.5Q132.5 90.5 127.25 96.0Q122.0 101.5 122.0 102.5Q122.0 103.5 133.0 103.5Q140.0 103.5 142.75 100.75Q145.5 98.0 146.5 89.0ZM239.0 165.5Q240.5 161.5 241.5 159.0Q242.5 156.5 242.5 155.5Q242.5 154.0 236.0 154.0Q227.0 154.0 227.0 157.0Q227.0 160.0 231.0 169.5Q232.5 174.5 233.5 174.5Q234.5 174.5 239.0 165.5ZM303.5 106.0Q293.5 99.0 282.5 90.25Q271.5 81.5 266.0 76.5L253.0 65.0L243.5 83.0L234.5 103.0Q242.5 104.0 250.5 105.5Q258.5 107.0 266.5 108.0Q276.5 110.0 287.0 112.0Q297.5 114.0 305.0 115.5Q306.0 116.0 311.75 117.25Q317.5 118.5 318.5 118.5Q317.0 117.0 313.5 114.0Q310.0 111.0 303.5 106.0ZM300.5 175.5Q301.5 174.5 301.5 173.5Q301.5 169.5 296.5 168.0Q296.0 167.5 294.5 167.5Q289.5 167.5 289.5 175.5Q289.5 181.5 294.0 185.5V185.0Q296.5 186.5 298.0 186.5Q298.0 184.5 300.5 175.5ZM1004.0 101.5Q1004.0 97.0 1004.5 96.5Q1003.0 97.0 996.75 98.25Q990.5 99.5 982.0 101.0L972.0 102.5L984.0 104.0Q988.0 104.5 991.0 104.5Q994.0 104.5 996.0 104.5Q1004.0 104.5 1004.0 101.5ZM1101.5 106.0Q1102.5 102.0 1103.0 99.5Q1103.5 97.0 1103.5 95.0Q1102.5 91.5 1098.5 91.5Q1097.5 91.5 1096.25 91.75Q1095.0 92.0 1093.5 92.0Q1019.0 98.0 1019.0 104.0Q1019.0 108.0 1056.0 117.0Q1070.5 120.0 1081.75 121.75Q1093.0 123.5 1096.5 123.5H1097.0Q1097.5 122.0 1099.0 117.25Q1100.5 112.5 1101.5 106.0ZM151.5 53.5Q185.0 21.0 192.5 21.0Q195.5 21.0 195.5 24.0Q195.5 27.5 186.0 42.5Q174.0 58.0 167.5 71.0Q161.0 84.0 161.0 91.0Q161.0 92.5 162.0 94.5Q166.0 99.5 166.0 104.5Q166.0 105.0 165.75 105.75Q165.5 106.5 165.5 107.5V108.0Q166.0 112.5 178.0 119.25Q190.0 126.0 206.5 131.5Q223.0 137.0 237.0 138.5Q250.0 140.5 255.25 142.0Q260.5 143.5 260.5 148.0Q260.5 149.5 259.5 152.5Q248.5 177.0 243.0 197.25Q237.5 217.5 237.5 231.5Q237.5 253.0 251.0 254.5H256.0Q260.5 254.5 266.0 254.0Q271.5 253.5 276.0 252.5Q282.0 251.0 284.25 249.25Q286.5 247.5 286.5 242.0Q286.5 232.5 284.5 220.0Q282.5 207.5 279.75 195.0Q277.0 182.5 273.5 174.5Q270.0 167.5 268.25 160.75Q266.5 154.0 266.5 152.5Q266.5 150.0 271.5 150.0Q277.5 150.0 287.75 151.5Q298.0 153.0 307.5 155.25Q317.0 157.5 319.0 159.0Q320.0 161.0 320.0 162.0Q320.0 168.0 312.5 182.0Q309.0 190.5 305.5 204.0Q302.0 217.5 300.5 227.5L298.0 251.0L322.5 248.0Q330.0 247.0 344.5 245.75Q359.0 244.5 377.5 242.75Q396.0 241.0 414.0 240.0Q428.0 239.0 442.75 237.5Q457.5 236.0 470.5 235.0Q482.0 234.0 491.75 233.0Q501.5 232.0 507.0 231.5L529.5 229.0L450.5 190.0Q413.5 171.5 374.25 155.0Q335.0 138.5 294.0 128.0Q253.0 117.5 210.5 117.5L210.0 116.5Q210.0 115.0 213.25 109.0Q216.5 103.0 221.5 96.0Q227.0 87.5 232.75 76.25Q238.5 65.0 241.0 57.0Q243.5 48.0 246.5 41.75Q249.5 35.5 251.0 35.5Q252.0 35.5 256.0 40.25Q260.0 45.0 263.5 51.5Q275.0 72.0 328.25 106.0Q381.5 140.0 472.0 185.0Q519.0 209.0 538.0 220.25Q557.0 231.5 557.0 236.5Q557.0 238.5 555.5 238.5Q555.0 239.5 540.0 241.25Q525.0 243.0 501.0 245.25Q477.0 247.5 448.0 250.0Q420.5 252.0 394.5 254.5Q368.5 257.0 349.5 259.0Q339.0 259.5 331.75 260.25Q324.5 261.0 321.0 261.5L300.0 265.0V289.0Q300.0 299.0 298.5 308.0Q297.0 317.0 294.0 318.5L293.0 319.0Q287.0 319.0 287.0 291.5V264.5L268.5 267.0Q254.0 269.0 247.25 271.0Q240.5 273.0 238.75 276.75Q237.0 280.5 237.0 288.5Q237.0 295.0 235.25 300.5Q233.5 306.0 230.5 306.0Q228.0 306.0 226.5 301.5Q225.0 297.0 224.5 291.75Q224.0 286.5 224.0 285.0Q224.0 279.5 222.5 277.25Q221.0 275.0 214.0 275.0Q207.0 275.0 193.0 277.25Q179.0 279.5 154.0 283.5L148.0 284.5Q93.5 294.0 64.25 303.0Q35.0 312.0 23.0 323.0Q15.5 329.0 13.0 329.0Q10.0 329.0 10.0 325.0Q10.0 319.0 18.0 305.0Q24.5 296.5 24.5 283.5Q24.5 276.5 23.0 267.0L20.5 238.5L38.5 242.5Q48.0 244.0 67.0 246.25Q86.0 248.5 108.75 250.25Q131.5 252.0 153.5 253.5Q175.5 255.0 191.0 255.0H226.5L223.5 215.5Q222.0 191.0 218.0 176.75Q214.0 162.5 204.75 153.25Q195.5 144.0 178.0 135.0Q167.5 129.5 159.0 126.25Q150.5 123.0 149.5 123.0Q147.5 123.0 143.75 129.0Q140.0 135.0 136.0 143.75Q132.0 152.5 129.25 160.25Q126.5 168.0 126.5 171.0Q126.5 173.0 128.0 175.25Q129.5 177.5 131.5 177.5Q135.5 177.5 135.5 181.0Q135.5 181.5 135.25 182.0Q135.0 182.5 135.0 183.5Q135.0 185.5 141.5 190.75Q148.0 196.0 157.0 201.5Q168.5 209.0 176.5 216.0Q184.5 223.0 184.5 225.5Q184.5 232.5 178.5 232.5Q173.0 232.5 169.0 226.5Q166.5 222.0 157.0 216.5Q147.5 211.0 134.25 205.5Q121.0 200.0 107.25 196.25Q93.5 192.5 82.5 192.0L50.0 188.0L72.0 172.5Q79.5 166.5 91.75 155.75Q104.0 145.0 112.0 136.0L130.0 117.5H107.5L77.0 116.5L96.0 103.0Q103.0 97.5 119.5 83.25Q136.0 69.0 151.5 53.5ZM809.5 13.0V13.5Q813.0 10.0 814.5 10.0Q818.5 10.0 818.5 28.0Q818.5 32.0 818.25 37.25Q818.0 42.5 818.0 49.0Q817.5 56.5 817.25 62.0Q817.0 67.5 817.0 71.5Q817.0 81.0 819.0 83.25Q821.0 85.5 826.0 86.5Q827.0 86.5 827.5 86.75Q828.0 87.0 828.5 87.0Q842.5 86.5 842.5 49.0Q842.5 35.5 845.25 25.75Q848.0 16.0 852.0 16.0Q852.5 16.0 853.0 16.25Q853.5 16.5 854.0 16.5Q856.0 18.0 856.0 29.0Q856.0 38.5 854.5 51.5Q854.0 59.5 853.25 65.75Q852.5 72.0 852.5 76.0Q852.5 83.5 855.5 85.75Q858.5 88.0 866.0 88.0Q884.0 88.0 884.0 42.0Q884.0 34.5 886.0 29.75Q888.0 25.0 891.0 25.0Q896.0 25.0 896.0 40.5Q896.0 44.0 896.0 48.5Q896.0 53.0 895.0 58.5L892.5 89.0L950.0 86.5L1007.0 85.0L1009.0 56.0Q1010.5 25.5 1016.5 25.5Q1022.5 25.5 1022.5 56.0V84.0L1063.5 81.0Q1083.0 79.0 1098.25 75.75Q1113.5 72.5 1118.5 69.0Q1124.0 66.0 1127.25 64.75Q1130.5 63.5 1132.5 63.0Q1135.5 64.0 1135.5 66.0Q1135.5 70.0 1125.5 83.0Q1119.0 90.5 1116.75 99.25Q1114.5 108.0 1114.5 119.0Q1114.5 129.0 1113.25 136.0Q1112.0 143.0 1110.0 143.0Q1109.0 143.0 1095.75 140.0Q1082.5 137.0 1065.0 132.0H1065.5Q1049.5 128.0 1035.75 125.5Q1022.0 123.0 1020.0 123.0Q1019.0 123.0 1018.0 128.5Q1017.0 134.0 1017.0 141.5Q1017.0 161.0 1022.5 161.0Q1027.0 161.0 1027.0 164.0Q1027.0 166.0 1022.5 168.5V168.0Q1020.5 170.0 1019.5 177.25Q1018.5 184.5 1018.5 195.0Q1018.5 208.0 1020.0 223.5Q1021.5 239.0 1024.25 252.25Q1027.0 265.5 1030.5 273.0Q1037.0 285.0 1037.0 290.5Q1037.0 291.0 1036.75 291.75Q1036.5 292.5 1036.5 292.5Q1035.0 294.0 1029.0 294.0Q1022.5 294.0 1012.25 292.75Q1002.0 291.5 992.0 289.75Q982.0 288.0 975.0 286.0Q968.0 284.0 968.0 282.5Q968.0 280.0 971.25 272.5Q974.5 265.0 978.5 256.0Q985.5 243.0 987.0 238.0Q975.5 239.5 933.5 270.0Q922.5 278.0 914.0 283.5Q905.5 289.0 903.5 289.0H902.5L902.0 287.0Q902.0 284.5 906.25 277.5Q910.5 270.5 915.5 262.5Q929.0 245.0 929.0 233.5Q929.0 227.0 923.0 220.0Q917.0 213.0 909.75 208.25Q902.5 203.5 898.0 203.5Q896.5 203.5 896.5 207.0Q896.5 214.5 892.5 214.5Q891.5 214.5 890.0 213.75Q888.5 213.0 886.5 212.5Q880.0 208.5 862.0 204.75Q844.0 201.0 825.0 198.0Q799.0 195.0 788.0 191.0Q777.0 187.0 777.0 182.0Q777.0 180.0 777.5 179.0Q781.5 169.0 786.25 155.25Q791.0 141.5 794.5 127.5Q798.0 113.5 798.0 103.0Q797.5 100.5 770.0 98.0Q742.5 95.5 685.0 93.5Q654.5 92.5 625.75 91.5Q597.0 90.5 576.0 89.25Q555.0 88.0 547.5 87.5Q544.5 87.0 542.25 87.0Q540.0 87.0 538.0 87.0Q536.0 87.0 536.0 86.5Q536.0 88.5 554.0 98.5Q572.0 108.5 617.5 132.0Q666.0 157.5 711.75 177.5Q757.5 197.5 796.5 210.0Q835.5 222.5 863.5 227.0Q875.0 228.0 883.0 230.0Q891.0 232.0 891.0 233.0Q891.0 233.5 884.5 241.75Q878.0 250.0 867.5 260.0Q858.0 270.0 851.25 279.5Q844.5 289.0 844.5 293.0Q844.5 297.0 841.5 302.5Q838.5 308.0 834.5 310.5Q832.5 313.0 830.5 314.25Q828.5 315.5 827.5 316.0Q826.5 315.0 826.5 313.0Q826.5 312.0 826.75 310.0Q827.0 308.0 827.5 305.0Q828.0 304.0 828.0 302.5Q828.0 301.0 828.0 300.0Q828.0 290.0 816.0 276.75Q804.0 263.5 783.75 248.25Q763.5 233.0 738.5 217.5Q713.5 202.0 687.5 187.0Q661.5 172.0 637.75 159.5Q614.0 147.0 596.5 138.0Q579.0 129.0 571.0 125.0Q496.0 87.5 494.5 79.0Q495.5 77.0 495.5 77.0Q498.5 74.0 525.5 74.0Q538.5 74.0 557.25 74.5Q576.0 75.0 600.5 76.5Q627.5 78.0 656.75 79.5Q686.0 81.0 711.0 81.75Q736.0 82.5 750.0 82.5H799.5L802.5 67.5Q804.0 61.0 805.0 51.25Q806.0 41.5 806.0 34.5Q806.0 27.0 806.75 20.5Q807.5 14.0 809.5 13.0Z" fill="black" /></svg>