<svg xmlns="http://www.w3.org/2000/svg" width="855.5" height="360.0" viewBox="0 0 855.5 360.0"><path d="M28.5 120.0V202.5Q40.0 192.5 50.75 182.0Q61.5 171.5 72.0 161.5Q67.0 159.0 60.5 153.5Q54.0 148.0 48.0 141.5Q42.0 136.0 37.0 130.0Q32.0 124.0 28.5 120.0ZM330.0 279.5Q330.5 281.0 331.0 282.0Q331.5 283.0 332.0 284.0L332.5 285.5Q334.0 285.5 336.75 283.5Q339.5 281.5 343.0 279.0Q345.5 277.0 347.75 274.5Q350.0 272.0 352.0 270.5Q362.5 258.5 375.0 249.0Q387.5 239.5 400.0 230.0Q401.0 229.0 402.25 227.5Q403.5 226.0 405.0 225.5Q406.0 224.5 406.0 223.5H404.5Q398.0 223.5 385.5 225.5Q373.0 227.5 360.75 230.0Q348.5 232.5 341.5 235.0Q335.5 237.0 333.5 238.5Q332.5 240.5 332.5 241.5Q332.5 242.0 332.75 242.75Q333.0 243.5 333.0 244.5Q333.5 245.5 334.75 247.0Q336.0 248.5 336.5 251.0Q337.5 254.0 339.25 257.5Q341.0 261.0 341.0 263.0Q341.0 266.5 340.5 267.5Q340.0 271.0 336.0 271.0Q333.5 271.0 333.0 270.5L332.5 270.0Q332.0 270.0 331.75 269.75Q331.5 269.5 330.5 269.5H329.5V270.0Q329.5 271.5 329.5 274.25Q329.5 277.0 330.0 279.5ZM253.5 108.5 216.5 131.0Q217.0 131.5 219.5 132.5Q221.0 133.0 223.0 133.5Q225.0 134.0 225.5 134.0Q229.5 134.5 234.0 135.5Q238.5 136.5 242.0 137.5Q246.0 138.5 249.75 140.25Q253.5 142.0 257.0 144.5Q259.0 140.0 263.75 130.5Q268.5 121.0 273.5 110.5Q276.0 105.0 278.75 99.25Q281.5 93.5 284.0 89.5Q284.5 88.0 284.75 87.0Q285.0 86.0 285.5 84.5Q283.5 86.5 280.25 88.5Q277.0 90.5 273.0 93.5Q266.5 97.5 260.75 102.0Q255.0 106.5 253.5 108.5ZM552.0 157.5V166.0Q553.0 165.5 554.25 165.0Q555.5 164.5 557.0 162.5Q558.0 161.5 559.75 160.25Q561.5 159.0 562.0 158.0Q564.0 157.0 564.75 156.25Q565.5 155.5 566.0 155.0Q579.0 145.5 593.5 137.5Q608.0 129.5 622.0 121.5Q614.5 119.0 605.75 113.5Q597.0 108.0 588.5 102.0Q579.5 95.0 571.5 88.75Q563.5 82.5 557.0 77.5Q557.0 87.0 556.75 97.0Q556.5 107.0 556.0 118.0Q555.5 127.5 554.25 137.5Q553.0 147.5 552.0 157.5ZM13.0 240.5Q12.0 240.5 11.5 239.0Q11.0 237.5 11.0 237.0V235.5Q10.0 234.0 10.0 231.5V225.0Q10.0 207.5 10.75 189.5Q11.5 171.5 12.0 154.5Q12.5 139.0 13.25 123.5Q14.0 108.0 16.5 92.5Q16.5 91.0 16.75 88.25Q17.0 85.5 17.0 82.0Q17.5 78.5 19.0 75.0Q19.5 74.5 19.5 74.0Q19.5 73.5 20.0 73.0Q20.0 72.0 22.0 72.0Q24.5 72.0 25.0 72.5Q25.5 73.0 25.75 73.25Q26.0 73.5 26.5 74.5Q27.5 76.0 27.75 77.25Q28.0 78.5 28.5 79.5Q29.0 82.0 29.5 84.75Q30.0 87.5 30.0 87.5Q32.0 94.5 39.0 104.25Q46.0 114.0 55.5 123.25Q65.0 132.5 74.5 138.75Q84.0 145.0 91.5 145.0H181.0Q183.5 144.5 186.25 144.5Q189.0 144.5 190.5 144.5H191.5Q190.5 143.0 188.5 142.0Q188.0 141.5 187.0 141.25Q186.0 141.0 185.0 140.5Q184.5 139.5 184.0 138.75Q183.5 138.0 183.5 137.0Q183.5 134.0 187.5 131.0Q189.0 129.5 190.75 128.5Q192.5 127.5 194.5 125.5Q199.0 122.5 203.0 120.25Q207.0 118.0 208.5 118.0Q220.0 111.0 237.75 99.0Q255.5 87.0 274.75 73.25Q294.0 59.5 310.25 46.5Q326.5 33.5 335.5 24.0Q336.0 23.0 336.75 22.0Q337.5 21.0 338.0 20.5Q340.0 19.0 341.0 17.5Q342.0 16.0 343.0 15.0Q345.5 14.0 348.5 12.0Q351.5 10.0 353.5 10.0Q357.5 10.0 358.75 12.5Q360.0 15.0 360.0 17.5Q360.0 20.5 356.0 26.25Q352.0 32.0 346.5 38.5Q340.0 45.5 332.5 54.5Q325.0 63.5 316.5 72.5Q301.0 92.0 287.75 112.0Q274.5 132.0 274.5 147.0Q274.5 154.5 279.5 154.5Q280.5 154.5 282.5 154.75Q284.5 155.0 284.5 157.5V160.5Q284.0 161.0 284.0 161.5Q284.0 162.0 283.5 162.5Q283.0 164.5 282.25 164.75Q281.5 165.0 281.5 165.5Q281.5 167.5 284.0 168.5Q284.0 168.5 288.0 170.0H295.0Q295.5 170.5 296.0 171.0Q296.5 171.5 296.5 172.5Q296.5 173.0 296.25 173.5Q296.0 174.0 296.0 174.0Q295.0 175.0 295.0 175.0Q295.0 175.5 293.5 177.0Q292.5 177.5 292.0 177.75Q291.5 178.0 290.5 178.5Q294.0 182.0 296.75 185.75Q299.5 189.5 302.0 193.0Q320.0 216.0 348.0 216.0Q364.5 216.0 389.0 210.75Q413.5 205.5 440.75 197.5Q468.0 189.5 492.75 181.25Q517.5 173.0 534.0 167.0Q536.5 163.5 537.75 151.5Q539.0 139.5 539.75 124.75Q540.5 110.0 540.75 97.25Q541.0 84.5 541.0 80.0Q541.0 78.5 541.25 71.5Q541.5 64.5 542.0 56.5Q542.0 52.5 543.25 48.75Q544.5 45.0 545.0 42.0Q545.5 41.0 545.75 39.25Q546.0 37.5 546.5 36.5Q547.5 36.0 548.75 35.25Q550.0 34.5 551.5 34.5Q552.5 34.5 553.5 35.25Q554.5 36.0 555.0 36.5Q556.0 37.0 556.5 38.5Q557.0 40.0 557.5 41.0Q558.5 42.0 559.25 44.0Q560.0 46.0 560.5 47.0Q562.0 54.5 571.25 64.5Q580.5 74.5 587.0 80.0Q601.0 91.5 613.25 97.25Q625.5 103.0 639.0 105.0Q652.5 107.0 669.0 108.5H700.5Q723.0 108.5 746.25 107.5Q769.5 106.5 793.0 106.5Q803.0 106.5 812.75 106.5Q822.5 106.5 833.0 107.5Q834.5 108.5 837.5 108.5H843.5Q845.5 109.0 845.5 110.5Q845.5 112.5 844.0 114.25Q842.5 116.0 840.5 118.0Q838.5 118.0 835.75 119.0Q833.0 120.0 829.5 120.5Q823.0 122.5 814.0 123.0Q805.0 123.5 796.5 124.5Q777.5 125.0 761.0 124.75Q744.5 124.5 741.5 124.5Q727.0 124.5 711.75 124.25Q696.5 124.0 681.5 125.5Q654.5 127.0 636.0 134.25Q617.5 141.5 596.0 157.0Q588.5 163.0 581.75 168.0Q575.0 173.0 568.0 178.5Q566.0 180.5 560.0 185.0Q554.0 189.5 548.0 193.25Q542.0 197.0 539.0 197.0Q536.0 197.0 534.5 194.5Q534.0 194.0 534.0 193.0V190.0Q534.0 189.5 533.75 189.25Q533.5 189.0 533.5 189.0H533.0Q527.5 189.0 515.25 193.0Q503.0 197.0 491.0 201.75Q479.0 206.5 473.0 209.0Q455.5 216.5 434.0 228.25Q412.5 240.0 392.0 255.25Q371.5 270.5 356.5 288.5Q341.5 306.5 337.5 326.5Q337.5 327.0 337.0 330.75Q336.5 334.5 335.5 338.5Q335.0 340.5 334.25 342.5Q333.5 344.5 333.0 345.5Q332.5 346.0 332.5 346.75Q332.5 347.5 332.0 348.5Q331.5 350.0 328.5 350.0Q326.0 350.0 325.0 347.0Q324.5 346.0 324.0 345.25Q323.5 344.5 322.5 343.0Q322.0 340.0 321.5 336.25Q321.0 332.5 320.5 329.0Q318.5 321.0 317.75 314.0Q317.0 307.0 317.0 305.0Q316.0 296.5 314.25 284.25Q312.5 272.0 309.0 259.5Q305.5 247.0 300.0 237.0Q294.5 227.0 286.0 223.0Q285.5 222.5 285.0 222.25Q284.5 222.0 283.5 221.5Q282.0 221.5 281.0 220.5Q280.5 219.5 280.0 218.75Q279.5 218.0 279.5 217.5Q279.5 215.0 281.0 214.5Q282.5 213.5 283.5 213.5Q284.5 212.5 284.5 210.5Q284.5 204.5 278.25 197.75Q272.0 191.0 266.5 186.0Q263.5 184.0 259.0 179.75Q254.5 175.5 248.0 171.0Q243.0 167.0 238.0 163.75Q233.0 160.5 230.5 160.5H176.5Q161.0 160.5 148.75 160.25Q136.5 160.0 125.5 161.5Q115.0 162.5 104.0 166.25Q93.0 170.0 81.0 179.0Q70.5 186.0 56.5 198.25Q42.5 210.5 35.0 220.5Q33.5 221.0 30.75 224.0Q28.0 227.0 25.0 231.0L19.5 236.5Q18.5 237.5 16.5 239.0Q14.5 240.5 13.0 240.5Z" fill="black" /></svg>