<svg xmlns="http://www.w3.org/2000/svg" width="650.5" height="469.0" viewBox="0 0 650.5 469.0"><path d="M53.5 336.5Q47.5 334.0 42.25 331.5Q37.0 329.0 33.0 327.5Q28.5 326.0 28.5 326.0Q26.5 326.5 26.0 332.5Q25.5 338.5 25.5 346.5Q25.5 353.5 27.25 359.75Q29.0 366.0 29.5 366.0Q32.5 366.0 40.75 362.75Q49.0 359.5 58.0 355.25Q67.0 351.0 73.75 347.25Q80.5 343.5 80.5 342.0Q80.5 342.5 78.0 342.25Q75.5 342.0 72.0 341.5Q67.5 340.0 62.5 338.75Q57.5 337.5 53.5 336.5ZM76.5 283.5Q76.5 282.5 70.25 279.5Q64.0 276.5 56.5 273.5L36.5 265.0V281.5Q36.5 296.0 40.0 296.0Q41.0 296.0 42.25 295.75Q43.5 295.5 45.0 295.0Q48.0 292.5 54.25 291.0Q60.5 289.5 65.5 287.5Q70.0 287.0 73.25 286.0Q76.5 285.0 76.5 283.5ZM64.5 202.0Q52.0 196.0 46.0 196.0Q42.5 196.0 42.0 199.5Q41.5 203.0 41.5 210.5Q41.5 222.0 45.5 223.0Q46.0 222.5 47.25 222.5Q48.5 222.5 49.0 222.0Q53.0 220.0 58.75 218.5Q64.5 217.0 69.5 215.5Q80.5 213.5 80.5 210.5Q80.5 207.5 64.5 202.0ZM86.5 135.5Q86.5 134.0 81.25 130.75Q76.0 127.5 68.5 124.0Q61.0 120.5 54.25 117.75Q47.5 115.0 45.0 115.0H44.5Q43.5 117.0 43.0 122.25Q42.5 127.5 42.5 133.5Q42.5 139.5 43.0 145.0Q43.5 150.5 44.5 151.5H45.5Q50.0 151.5 60.0 148.25Q70.0 145.0 78.25 141.0Q86.5 137.0 86.5 135.5ZM309.5 133.5H292.0Q279.0 133.5 279.0 135.0Q279.0 135.5 279.5 137.0Q280.0 138.5 280.5 139.5Q281.5 143.0 283.5 148.5Q285.5 154.0 286.0 160.0Q287.5 163.5 289.5 171.25Q291.5 179.0 293.0 185.75Q294.5 192.5 294.5 192.5Q294.5 192.5 295.5 183.25Q296.5 174.0 299.75 160.25Q303.0 146.5 309.5 133.5ZM375.0 119.5 364.5 108.0Q358.5 101.0 350.0 90.25Q341.5 79.5 336.5 70.0L324.5 47.0L313.0 75.5Q307.5 88.5 303.25 97.75Q299.0 107.0 299.0 107.0Q302.5 107.0 321.0 109.5Q322.5 110.0 324.75 110.0Q327.0 110.0 329.0 111.0Q336.5 112.5 345.75 113.75Q355.0 115.0 361.5 117.5H360.5ZM610.5 46.0Q608.0 45.0 599.0 43.75Q590.0 42.5 579.0 41.25Q568.0 40.0 558.75 39.25Q549.5 38.5 546.5 38.5Q542.0 38.5 542.0 39.5Q542.0 40.0 543.0 43.0Q548.0 56.0 553.25 71.5Q558.5 87.0 562.25 99.25Q566.0 111.5 566.5 115.5Q566.5 126.0 569.5 126.0Q575.0 126.0 582.0 102.5Q586.0 91.5 592.25 78.75Q598.5 66.0 602.0 61.0Q606.0 56.0 608.0 51.75Q610.0 47.5 610.5 46.0ZM323.0 379.0 340.5 361.0H300.0Q297.0 361.0 292.0 360.5Q287.0 360.0 281.5 359.5Q275.5 359.0 269.5 358.75Q263.5 358.5 259.5 358.5Q255.5 358.5 254.5 357.5Q255.0 358.0 256.25 360.75Q257.5 363.5 258.0 366.0Q261.0 372.5 265.5 382.75Q270.0 393.0 274.5 402.75Q279.0 412.5 282.5 419.25Q286.0 426.0 286.5 426.0Q288.5 426.0 290.25 423.25Q292.0 420.5 294.5 416.5Q295.0 415.5 295.5 414.5Q296.0 413.5 296.5 412.5V414.0Q300.0 408.0 307.75 398.25Q315.5 388.5 323.0 379.0ZM316.5 31.5 325.0 10.0 335.0 33.5Q346.5 61.0 356.25 75.75Q366.0 90.5 382.0 103.5Q387.5 108.5 402.5 118.75Q417.5 129.0 437.5 142.0Q457.5 155.0 479.0 168.25Q500.5 181.5 519.25 192.75Q538.0 204.0 550.75 211.0Q563.5 218.0 565.5 218.0Q570.5 218.0 570.5 202.5Q570.5 186.5 565.5 161.25Q560.5 136.0 552.25 108.25Q544.0 80.5 534.0 57.5Q530.0 46.5 526.75 37.5Q523.5 28.5 522.5 25.5Q523.5 24.5 523.5 23.75Q523.5 23.0 524.0 23.0L523.5 24.0Q524.5 22.5 527.0 22.5Q530.5 22.5 536.5 23.0Q542.5 23.5 548.0 24.5H549.5Q559.0 26.0 575.75 27.5Q592.5 29.0 607.0 29.5Q622.0 29.5 631.25 32.0Q640.5 34.5 640.5 38.0Q640.5 41.5 632.0 45.5Q625.5 47.5 616.75 61.25Q608.0 75.0 600.5 93.5Q593.0 112.0 589.0 128.5Q586.0 142.5 584.25 184.5Q582.5 226.5 582.5 285.5Q582.5 343.0 580.5 379.0Q578.5 415.0 577.0 418.0L575.5 419.0Q569.5 419.0 569.5 328.0V238.0L488.5 190.5Q456.0 171.0 435.0 159.75Q414.0 148.5 398.75 142.5Q383.5 136.5 367.5 133.5L329.0 123.0Q326.5 128.5 323.75 134.0Q321.0 139.5 318.0 144.5Q314.5 151.5 312.25 158.75Q310.0 166.0 308.75 177.25Q307.5 188.5 307.0 207.75Q306.5 227.0 305.5 258.5L304.5 347.0H318.5Q332.5 347.0 341.75 344.25Q351.0 341.5 362.5 336.0Q365.5 335.0 368.25 333.5Q371.0 332.0 373.0 331.0Q381.5 327.5 390.25 322.75Q399.0 318.0 408.5 312.5Q416.5 308.5 425.0 304.25Q433.5 300.0 443.0 295.0Q452.5 290.5 460.75 286.25Q469.0 282.0 476.5 278.5Q506.0 263.5 527.0 253.0Q548.0 242.5 554.5 242.5Q557.5 242.5 558.0 245.0V245.5Q558.0 250.5 536.75 262.5Q515.5 274.5 484.5 290.5L470.0 298.5Q422.0 321.5 394.75 338.5Q367.5 355.5 353.5 367.5Q343.5 377.5 332.25 390.5Q321.0 403.5 311.0 416.25Q301.0 429.0 294.75 438.75Q288.5 448.5 288.5 451.5Q288.5 455.0 287.25 457.0Q286.0 459.0 285.0 459.0Q282.0 459.0 278.75 453.5Q275.5 448.0 273.5 440.0Q272.0 433.0 266.0 416.5Q260.0 400.0 252.5 384.5L234.5 347.5H176.0Q129.0 347.5 97.75 354.75Q66.5 362.0 38.0 378.5V378.0Q31.0 383.0 24.0 386.25Q17.0 389.5 14.5 389.5Q12.5 389.5 11.25 380.5Q10.0 371.5 10.0 358.5Q10.0 346.0 11.0 332.75Q12.0 319.5 13.75 310.5Q15.5 301.5 18.0 301.5H18.5Q20.0 302.0 20.5 302.0Q24.0 302.0 24.0 291.0Q24.0 289.5 24.0 287.0Q24.0 284.5 23.5 282.0V272.0Q23.5 261.0 25.0 252.5Q26.5 244.0 28.5 244.0Q29.5 244.0 36.5 247.75Q43.5 251.5 51.5 256.0Q57.5 260.0 63.75 262.5Q70.0 265.0 81.75 266.25Q93.5 267.5 114.5 268.25Q135.5 269.0 170.5 270.0Q198.5 270.5 221.75 271.75Q245.0 273.0 258.75 274.5Q272.5 276.0 272.5 278.5Q272.5 279.5 260.75 281.25Q249.0 283.0 229.5 284.25Q210.0 285.5 186.5 286.0Q152.5 286.5 131.75 288.0Q111.0 289.5 97.75 292.0Q84.5 294.5 73.0 298.5Q67.0 300.5 59.0 303.5Q51.0 306.5 45.0 309.0Q39.0 311.5 39.0 311.5Q44.5 314.5 59.25 319.75Q74.0 325.0 99.75 329.5Q125.5 334.0 162.0 334.0Q190.0 334.0 208.5 334.25Q227.0 334.5 238.0 335.0H241.5Q247.0 335.0 252.25 336.25Q257.5 337.5 257.5 342.5Q257.5 343.5 256.0 345.0Q261.5 346.5 270.25 346.75Q279.0 347.0 281.5 347.0H289.5Q290.0 343.0 290.5 328.5Q291.0 314.0 291.0 290.5Q291.0 262.5 288.0 233.25Q285.0 204.0 280.25 180.25Q275.5 156.5 269.0 145.5V146.0Q267.5 142.5 262.0 140.75Q256.5 139.0 241.75 138.5Q227.0 138.0 196.5 138.0Q141.0 138.0 107.25 145.0Q73.5 152.0 52.0 168.5L41.0 177.0Q46.5 179.5 51.75 181.75Q57.0 184.0 61.5 186.5Q69.5 190.0 77.25 192.0Q85.0 194.0 97.25 195.25Q109.5 196.5 129.5 197.0Q149.5 197.5 181.5 197.5Q208.0 197.5 229.75 198.25Q251.5 199.0 264.5 200.25Q277.5 201.5 277.5 203.5Q277.5 205.0 266.25 207.0Q255.0 209.0 236.0 210.5Q217.0 212.0 194.5 212.5Q164.0 213.0 144.0 214.25Q124.0 215.5 109.0 218.25Q94.0 221.0 78.0 226.25Q62.0 231.5 39.5 240.0Q38.5 241.0 36.0 241.0Q32.0 241.0 30.75 233.5Q29.5 226.0 29.5 202.5V166.0Q29.5 144.5 30.5 126.75Q31.5 109.0 32.5 98.25Q33.5 87.5 33.5 87.5Q34.5 87.5 42.0 92.0Q49.5 96.5 58.5 103.5L83.5 121.5L172.0 123.0L263.0 124.0L264.0 123.5Q265.5 122.0 266.0 122.0Q268.0 121.5 272.0 121.0Q276.0 120.5 280.5 120.5L279.0 120.0Q277.5 119.0 277.5 118.0Q277.5 114.5 282.5 105.75Q287.5 97.0 292.5 88.0Q295.5 81.0 298.75 75.75Q302.0 70.5 303.0 67.0Q305.5 58.5 309.75 48.75Q314.0 39.0 316.5 31.5Z" fill="black" /></svg>