<svg xmlns="http://www.w3.org/2000/svg" width="602.5" height="454.0" viewBox="0 0 602.5 454.0"><path d="M140.5 294.5Q131.0 293.0 118.25 289.25Q105.5 285.5 93.25 280.25Q81.0 275.0 72.0 270.0L69.0 268.5Q58.0 264.0 49.25 260.5Q40.5 257.0 38.0 257.0L37.5 256.5Q36.5 257.5 35.5 270.5Q34.5 283.5 34.5 301.0Q34.5 324.0 35.75 333.0Q37.0 342.0 45.0 342.0Q50.0 342.0 57.75 339.25Q65.5 336.5 77.5 332.0Q89.5 327.0 108.25 321.75Q127.0 316.5 141.0 313.0Q154.0 310.5 163.5 307.5Q173.0 304.5 173.0 303.5Q173.0 302.5 163.25 300.25Q153.5 298.0 140.5 294.5ZM197.0 90.0Q197.0 89.5 192.0 89.0Q187.0 88.5 180.0 88.5Q165.0 88.5 165.0 90.5Q165.0 91.5 166.5 95.5Q168.5 99.5 170.5 107.25Q172.5 115.0 173.5 122.0Q174.5 126.5 176.25 134.5Q178.0 142.5 179.5 148.75Q181.0 155.0 181.0 155.0Q182.5 149.5 185.25 140.25Q188.0 131.0 190.5 120.5Q193.0 110.0 195.0 101.5Q197.0 93.0 197.0 90.0ZM228.5 121.5Q224.5 110.0 221.25 102.0Q218.0 94.0 216.0 94.0Q210.5 94.0 205.0 112.25Q199.5 130.5 196.25 159.75Q193.0 189.0 193.0 222.0V289.0L221.0 289.5H247.0L245.0 211.0Q244.5 187.5 238.75 163.5Q233.0 139.5 228.5 121.5ZM264.5 95.5Q266.0 91.5 266.0 90.5Q266.0 89.5 262.5 89.0Q259.0 88.5 250.5 88.5H248.5Q234.5 88.5 234.5 91.5Q234.5 95.0 236.5 100.75Q238.5 106.5 241.5 116.0Q243.0 121.0 245.25 130.75Q247.5 140.5 249.0 148.5Q250.5 156.5 250.5 156.5Q253.0 141.0 256.25 125.75Q259.5 110.5 264.5 95.5ZM300.0 150.5Q296.0 132.0 292.0 117.5Q288.0 103.0 285.5 101.5L284.5 101.0Q280.0 102.0 275.5 114.0Q271.0 126.0 267.0 145.25Q263.0 164.5 260.75 187.5Q258.5 210.5 258.5 233.0Q258.5 238.0 259.0 242.0Q259.5 246.0 259.5 250.5L261.0 289.5L311.0 290.0L310.5 241.5Q310.5 228.5 309.0 212.25Q307.5 196.0 305.0 179.5Q302.5 163.0 300.0 150.5ZM329.0 97.5Q330.0 96.0 330.25 94.0Q330.5 92.0 331.0 91.5Q330.5 88.5 315.0 88.5Q306.0 88.5 302.5 89.0Q299.0 89.5 299.0 91.5Q299.0 92.5 299.75 94.0Q300.5 95.5 301.0 97.5Q303.5 103.5 304.75 111.25Q306.0 119.0 307.5 126.0L308.0 128.0Q309.5 132.5 311.5 140.75Q313.5 149.0 315.0 155.5Q316.5 162.0 316.5 162.0Q317.5 155.0 319.5 144.25Q321.5 133.5 322.0 128.0Q323.0 124.0 324.0 119.75Q325.0 115.5 326.0 111.0Q327.0 108.0 327.75 104.0Q328.5 100.0 329.0 97.5ZM366.5 163.5Q360.5 131.5 356.0 116.75Q351.5 102.0 348.0 102.0Q343.5 102.0 340.5 113.0Q338.5 117.5 336.5 131.0Q334.5 144.5 332.75 163.0Q331.0 181.5 329.5 201.5Q328.0 221.5 327.25 240.25Q326.5 259.0 326.5 272.0Q326.5 287.5 328.0 290.5L376.0 291.5L375.0 223.0Q375.0 208.5 372.5 193.0Q370.0 177.5 366.5 163.5ZM396.5 92.0Q396.5 90.5 391.5 89.5Q386.5 88.5 380.5 88.5Q369.5 88.5 367.0 91.5Q366.5 91.5 366.5 93.0Q366.5 97.0 368.75 107.25Q371.0 117.5 373.75 128.75Q376.5 140.0 378.75 148.0Q381.0 156.0 381.0 156.0Q383.0 149.0 386.75 135.25Q390.5 121.5 393.5 108.75Q396.5 96.0 396.5 92.0ZM554.5 36.0Q554.5 35.5 544.25 35.5Q534.0 35.5 519.5 35.5H506.0Q498.0 35.5 493.5 36.5Q489.0 37.5 489.0 43.0Q489.0 47.5 492.0 56.75Q495.0 66.0 500.5 82.0Q501.0 85.0 502.25 88.5Q503.5 92.0 504.5 96.0L516.0 130.0Q518.5 122.5 520.75 115.5Q523.0 108.5 525.5 101.0Q529.5 88.0 535.75 73.5Q542.0 59.0 545.5 53.0Q554.5 40.0 554.5 36.0ZM461.0 16.0Q461.0 10.0 466.0 10.0Q467.0 10.0 469.0 10.75Q471.0 11.5 473.5 12.5Q477.5 14.5 494.5 16.0Q511.5 17.5 531.5 18.5Q551.5 20.0 566.25 21.25Q581.0 22.5 581.0 25.0Q581.0 27.0 576.5 33.75Q572.0 40.5 566.0 49.0Q555.5 62.5 549.0 75.5Q542.5 88.5 538.75 105.5Q535.0 122.5 533.5 146.0Q532.0 169.5 531.5 204.0L531.0 290.0L561.5 290.5Q574.0 291.0 583.25 292.75Q592.5 294.5 592.5 298.5Q592.5 300.0 583.0 302.5Q573.5 305.0 561.5 305.5L531.0 308.0L530.5 378.0Q530.0 411.5 527.0 427.75Q524.0 444.0 521.5 444.0Q514.0 444.0 514.0 402.5L513.5 308.0H393.5V359.5Q393.5 388.5 391.25 404.0Q389.0 419.5 386.0 419.5Q383.5 419.5 381.0 406.0Q378.5 392.5 377.5 365.0L375.0 308.0H328.0V359.5Q328.0 388.5 325.75 404.0Q323.5 419.5 321.0 419.5Q313.5 419.5 313.0 365.0L311.0 308.0L262.0 308.5V361.5Q262.0 388.0 260.5 402.25Q259.0 416.5 255.0 416.5Q251.5 416.5 249.75 402.25Q248.0 388.0 248.0 363.5V309.0L244.0 309.5Q238.5 309.5 232.0 309.75Q225.5 310.0 220.0 311.0Q213.5 311.5 208.0 312.25Q202.5 313.0 196.0 314.0L194.0 365.0Q191.5 415.5 185.5 415.5Q179.0 415.5 179.0 368.0V318.5L153.0 325.5Q145.5 327.0 131.5 331.0Q117.5 335.0 101.25 340.0Q85.0 345.0 70.0 350.5Q48.0 358.5 34.75 362.75Q21.5 367.0 15.5 367.0Q10.0 367.0 10.0 362.5Q10.0 360.5 11.75 357.75Q13.5 355.0 15.5 351.5Q19.5 347.5 21.25 331.5Q23.0 315.5 23.5 288.5Q23.5 265.0 24.75 247.75Q26.0 230.5 28.0 230.0H28.5Q30.0 230.0 38.25 234.25Q46.5 238.5 56.0 244.5Q66.5 251.5 81.75 258.25Q97.0 265.0 113.25 270.5Q129.5 276.0 143.5 279.75Q157.5 283.5 165.5 285.0L179.0 288.0L177.0 230.5Q176.5 216.0 174.25 198.0Q172.0 180.0 168.75 163.0Q165.5 146.0 162.5 134.0Q157.5 116.0 153.75 100.5Q150.0 85.0 149.0 81.5V80.5Q149.0 75.5 159.25 74.0Q169.5 72.5 200.5 72.5H363.0Q392.0 72.5 403.5 74.25Q415.0 76.0 415.0 86.0Q415.0 90.5 412.25 98.0Q409.5 105.5 405.5 117.0L402.0 125.5Q398.0 136.5 395.75 156.0Q393.5 175.5 393.5 208.0V220.0L394.0 290.5L513.5 290.0V235.5Q513.5 189.5 504.0 143.5Q494.5 97.5 475.5 55.5Q470.0 41.0 465.5 29.5Q461.0 18.0 461.0 16.0Z" fill="black" /></svg>