<svg xmlns="http://www.w3.org/2000/svg" width="368.5" height="263.0" viewBox="0 0 368.5 263.0"><path d="M95.5 186.5Q88.0 185.5 75.75 180.0Q63.5 174.5 53.5 168.0L30.5 152.5L29.5 189.5Q29.5 194.0 29.25 198.0Q29.0 202.0 29.0 206.0Q29.0 227.5 31.5 227.5Q34.0 227.5 39.0 225.0Q44.0 222.5 49.5 219.0Q55.5 215.5 66.75 210.5Q78.0 205.5 88.0 202.0Q98.0 198.0 104.75 194.75Q111.5 191.5 111.5 191.0Q111.5 190.5 106.75 189.25Q102.0 188.0 95.5 186.5ZM95.5 69.0H96.0Q86.5 66.5 74.5 61.0Q62.5 55.5 54.5 49.5L35.5 37.0L34.0 73.5Q34.0 77.0 33.75 80.5Q33.5 84.0 33.5 87.0Q33.5 98.0 34.25 105.0Q35.0 112.0 35.5 112.0Q37.0 112.0 43.5 108.5Q50.0 105.0 58.0 100.5Q66.5 96.0 77.75 90.75Q89.0 85.5 97.0 83.5Q105.5 81.0 111.0 78.75Q116.5 76.5 116.5 76.0Q116.5 75.5 110.25 73.5Q104.0 71.5 95.5 69.0ZM21.5 116.0Q22.5 86.5 23.5 62.5Q24.5 38.5 25.75 24.25Q27.0 10.0 28.0 10.0Q28.5 10.0 33.0 14.0Q37.5 18.0 42.5 24.0Q47.0 29.5 58.0 37.25Q69.0 45.0 79.5 50.5L105.5 63.0L232.0 62.5H258.5Q287.0 62.5 309.75 63.0Q332.5 63.5 345.5 64.5Q358.5 65.5 358.5 66.5Q358.5 68.5 344.75 70.25Q331.0 72.0 308.25 73.75Q285.5 75.5 258.75 76.5Q232.0 77.5 206.0 77.5Q184.0 77.5 170.0 78.5Q156.0 79.5 144.75 82.0Q133.5 84.5 118.5 89.5Q108.0 93.0 94.75 98.75Q81.5 104.5 68.25 110.75Q55.0 117.0 44.75 122.5Q34.5 128.0 30.0 131.0Q30.0 133.5 37.0 140.0Q44.0 146.5 54.5 153.75Q65.0 161.0 75.5 166.5L101.0 178.5H225.0Q259.5 178.5 287.75 179.0Q316.0 179.5 332.75 180.25Q349.5 181.0 349.5 182.5Q349.5 185.5 330.0 187.75Q310.5 190.0 279.5 191.5Q248.5 193.0 213.0 193.0Q191.5 193.0 177.5 193.5Q163.5 194.0 153.5 195.25Q143.5 196.5 134.5 198.75Q125.5 201.0 114.0 205.0Q100.5 209.5 85.75 216.0Q71.0 222.5 57.75 229.0Q44.5 235.5 36.0 240.75Q27.5 246.0 26.5 249.0Q24.0 253.0 18.0 253.0Q10.0 253.0 10.0 247.0Q10.0 244.5 11.25 240.25Q12.5 236.0 13.5 231.5Q15.0 228.5 16.5 212.0Q18.0 195.5 19.5 170.25Q21.0 145.0 21.5 116.0Z" fill="black" /></svg>