<svg xmlns="http://www.w3.org/2000/svg" width="818.5" height="457.0" viewBox="0 0 818.5 457.0"><path d="M64.0 345.5Q69.5 345.5 74.0 338.0Q78.5 330.5 81.75 321.0Q85.0 311.5 85.5 306.0Q83.0 307.0 77.0 311.5Q71.0 316.0 64.25 322.0Q57.5 328.0 52.25 333.25Q47.0 338.5 46.0 341.5Q49.5 343.5 54.75 344.5Q60.0 345.5 64.0 345.5ZM150.5 317.5Q153.0 312.5 154.75 309.25Q156.5 306.0 157.0 304.5Q154.0 305.5 147.0 310.75Q140.0 316.0 132.25 322.75Q124.5 329.5 118.75 335.0Q113.0 340.5 113.0 342.0Q113.0 343.0 126.0 346.0H128.5Q137.0 348.5 138.0 348.5Q142.0 348.5 142.0 344.0Q142.0 333.5 150.5 317.5ZM156.5 192.5Q147.0 185.5 134.5 181.25Q122.0 177.0 112.0 177.0Q99.0 177.0 96.5 183.0Q97.0 187.0 103.5 195.0Q110.0 203.0 117.25 210.5Q124.5 218.0 126.5 221.0Q134.0 228.0 138.0 232.75Q142.0 237.5 142.0 243.5Q142.0 250.0 136.25 259.5Q130.5 269.0 119.5 286.0Q117.5 289.5 114.75 293.0Q112.0 296.5 109.5 300.5Q101.5 311.5 96.25 321.25Q91.0 331.0 90.5 335.0Q94.5 333.5 106.5 324.75Q118.5 316.0 133.75 303.75Q149.0 291.5 164.0 279.0Q179.0 266.5 189.25 256.75Q199.5 247.0 200.5 243.5Q201.0 243.0 201.0 242.25Q201.0 241.5 201.0 241.5Q201.0 233.5 189.25 220.75Q177.5 208.0 156.5 192.5ZM216.0 317.5Q218.5 313.5 220.0 310.25Q221.5 307.0 222.0 305.5Q221.0 306.0 219.25 307.5Q217.5 309.0 215.0 310.5L209.0 316.0Q179.0 339.0 179.0 341.0Q179.0 342.5 192.0 346.0H194.5Q200.0 348.0 203.5 348.0Q208.0 348.0 208.0 343.0Q208.0 339.0 210.5 331.75Q213.0 324.5 216.0 317.5ZM270.0 242.5 259.5 228.0Q250.5 215.5 237.5 204.25Q224.5 193.0 209.0 185.5Q193.5 178.0 177.0 178.0Q171.0 178.0 171.0 180.0Q171.0 181.0 175.0 185.25Q179.0 189.5 184.5 195.5L189.0 199.5H188.0Q192.5 203.5 200.25 212.25Q208.0 221.0 214.0 230.25Q220.0 239.5 220.0 246.5Q220.0 252.5 213.0 255.5Q209.0 257.5 200.25 268.5Q191.5 279.5 181.75 293.25Q172.0 307.0 165.0 318.5Q158.0 330.0 158.0 333.5H158.5Q162.0 332.5 173.5 324.75Q185.0 317.0 201.5 303.75Q218.0 290.5 236.5 274.0ZM292.0 328.0Q294.5 321.5 296.75 315.75Q299.0 310.0 299.5 306.5Q297.0 308.0 290.25 313.5Q283.5 319.0 276.0 325.5Q268.5 332.0 263.25 337.25Q258.0 342.5 258.0 344.0Q262.5 344.0 267.25 344.25Q272.0 344.5 276.5 346.0Q276.5 347.0 278.0 347.0Q285.5 347.0 292.0 328.0ZM336.0 248.0Q336.0 239.5 325.75 226.75Q315.5 214.0 300.25 201.5Q285.0 189.0 269.75 180.25Q254.5 171.5 244.5 171.5Q241.0 171.5 239.75 174.0Q238.5 176.5 238.5 180.0Q238.5 184.0 240.0 187.75Q241.5 191.5 245.0 192.5Q248.0 193.5 255.25 201.25Q262.5 209.0 269.5 218.5L288.0 243.0L271.5 262.0Q265.5 269.0 257.25 280.75Q249.0 292.5 241.25 305.25Q233.5 318.0 228.25 328.25Q223.0 338.5 222.5 342.5Q226.0 342.5 238.5 334.25Q251.0 326.0 267.5 313.25Q284.0 300.5 299.75 287.25Q315.5 274.0 325.75 263.0Q336.0 252.0 336.0 248.0ZM88.0 142.0Q92.0 133.5 95.25 127.5Q98.5 121.5 99.5 118.5Q96.0 120.0 87.5 126.75Q79.0 133.5 69.25 142.0Q59.5 150.5 52.5 157.5Q45.5 164.5 45.5 166.0Q45.5 166.5 49.75 167.0Q54.0 167.5 59.5 167.5Q69.5 167.5 74.75 163.25Q80.0 159.0 88.0 142.0ZM165.5 138.0Q174.0 123.0 177.5 115.5Q173.0 118.5 164.5 125.5Q156.0 132.5 147.25 140.5Q138.5 148.5 132.25 154.75Q126.0 161.0 126.0 162.5Q126.0 163.0 127.5 163.0Q129.0 163.0 130.5 163.5Q136.0 163.5 141.0 164.0Q146.0 164.5 149.0 165.5Q151.5 165.5 156.0 157.75Q160.5 150.0 165.5 138.0ZM232.0 135.0Q234.5 129.0 236.25 124.25Q238.0 119.5 238.0 118.0Q236.5 118.0 229.0 124.0Q221.5 130.0 212.0 138.25Q202.5 146.5 195.75 153.0Q189.0 159.5 189.0 160.5Q189.0 162.0 200.5 163.5Q203.5 164.0 205.25 164.75Q207.0 165.5 209.0 165.5Q215.5 165.5 219.75 158.75Q224.0 152.0 232.0 135.0ZM292.5 136.0Q301.5 121.0 304.0 113.5Q300.5 116.0 293.25 122.0Q286.0 128.0 276.5 135.0Q253.5 154.5 253.5 159.5Q253.5 162.5 266.5 162.5Q274.0 162.5 279.25 156.75Q284.5 151.0 292.5 136.0ZM405.0 223.0Q397.0 220.0 388.25 213.25Q379.5 206.5 375.0 202.5L364.5 194.0V276.5L383.0 264.5Q391.5 259.0 403.0 253.25Q414.5 247.5 421.5 245.0Q430.0 242.5 434.25 239.0Q438.5 235.5 438.5 234.0Q438.5 232.0 432.5 232.0Q428.5 232.0 420.25 229.5Q412.0 227.0 405.0 223.0ZM618.0 304.0Q622.0 298.0 625.0 293.0Q628.0 288.0 628.0 287.0Q626.5 287.5 618.75 292.25Q611.0 297.0 600.75 304.0Q590.5 311.0 580.5 318.0Q570.5 325.0 564.0 330.0Q557.5 335.0 557.5 336.0V336.5Q558.0 337.0 563.25 338.75Q568.5 340.5 575.75 342.25Q583.0 344.0 589.0 345.5Q595.0 347.0 596.5 347.5H595.0Q597.5 348.0 599.5 348.0Q602.0 348.0 602.5 346.0Q603.0 344.0 603.0 338.5Q603.0 333.0 607.25 323.0Q611.5 313.0 618.0 304.0ZM489.0 99.5 499.0 83.5H468.0Q451.0 83.5 443.75 84.75Q436.5 86.0 436.5 89.5Q436.5 92.5 437.5 95.5Q438.5 98.5 440.5 99.0Q442.0 101.0 446.75 110.25Q451.5 119.5 455.5 131.0L463.0 157.5L469.0 139.5Q473.0 131.0 478.5 119.0Q484.0 107.0 489.0 99.5ZM780.0 30.5Q780.0 30.0 767.0 30.0Q754.0 30.0 736.5 30.0Q715.5 30.5 705.5 31.5Q695.5 32.5 694.5 37.5Q696.0 43.5 704.0 56.0Q709.0 63.5 715.0 77.25Q721.0 91.0 725.0 103.0L733.0 129.0L741.0 101.5Q745.0 88.5 753.0 73.5Q761.0 58.5 766.0 51.0Q771.5 44.0 775.75 37.5Q780.0 31.0 780.0 30.5ZM670.0 238.0Q674.0 233.5 677.75 231.0Q681.5 228.5 683.0 228.5Q686.0 228.5 686.0 233.0Q686.0 237.0 681.0 245.0Q676.0 253.0 669.5 259.0Q664.5 262.5 656.0 274.0Q647.5 285.5 638.75 298.75Q630.0 312.0 624.0 322.75Q618.0 333.5 618.0 336.5Q618.0 339.0 619.25 342.25Q620.5 345.5 622.5 346.0Q625.5 348.0 627.0 352.5Q628.5 357.0 628.5 360.5Q628.5 365.0 633.75 370.5Q639.0 376.0 646.0 380.0Q655.0 386.0 666.25 395.0Q677.5 404.0 687.5 413.75Q697.5 423.5 704.0 431.5Q710.5 439.5 710.5 443.0Q710.5 447.0 707.5 447.0Q701.5 447.0 689.5 432.5Q675.0 418.0 656.0 404.0Q637.0 390.0 617.0 378.75Q597.0 367.5 579.5 360.5Q562.0 353.5 550.5 353.0Q544.5 353.0 537.0 351.25Q529.5 349.5 525.0 348.0Q522.0 346.5 520.25 345.75Q518.5 345.0 518.5 343.0Q518.5 338.5 539.0 328.0Q547.5 323.5 562.5 314.0Q577.5 304.5 594.75 293.25Q612.0 282.0 628.0 270.75Q644.0 259.5 655.5 250.5Q667.0 241.5 670.0 238.0ZM285.5 52.5 317.0 19.5Q320.0 19.5 320.0 30.0Q320.0 33.5 314.75 42.75Q309.5 52.0 301.5 59.0H302.0Q293.5 69.0 283.25 82.0Q273.0 95.0 263.75 107.75Q254.5 120.5 248.25 130.5Q242.0 140.5 240.5 144.5Q245.5 142.5 261.5 129.25Q277.5 116.0 300.5 95.5Q323.5 75.0 348.5 51.5Q362.0 38.5 372.25 29.0Q382.5 19.5 382.5 19.5Q386.0 19.5 386.0 23.5Q386.0 28.0 381.25 36.25Q376.5 44.5 368.5 54.5Q335.5 91.0 318.75 120.5Q302.0 150.0 302.0 169.5Q302.0 181.5 310.0 190.5Q314.5 193.0 321.5 201.25Q328.5 209.5 336.0 218.5L352.5 240.0L349.5 203.5Q349.0 199.0 349.0 194.25Q349.0 189.5 349.0 185.5Q349.0 175.5 350.25 169.0Q351.5 162.5 353.5 162.5Q356.0 162.5 362.75 168.5Q369.5 174.5 377.5 184.0H377.0Q386.0 193.5 399.0 202.5Q412.0 211.5 425.75 217.0Q439.5 222.5 450.0 223.0Q455.5 223.0 458.0 220.25Q460.5 217.5 460.5 207.0Q460.5 196.0 455.5 177.25Q450.5 158.5 442.5 137.75Q434.5 117.0 425.0 100.0Q419.5 90.5 415.25 82.0Q411.0 73.5 411.0 73.0Q411.0 72.0 428.75 70.5Q446.5 69.0 470.0 69.0H532.5L513.5 92.0Q501.5 105.5 494.0 118.25Q486.5 131.0 482.5 146.75Q478.5 162.5 476.5 186.0L473.0 223.0H569.0Q613.5 223.0 639.75 224.75Q666.0 226.5 666.0 230.5Q666.0 234.0 639.5 236.5Q613.0 239.0 571.0 239.0L477.0 240.5L475.0 311.0Q474.5 343.5 472.5 364.75Q470.5 386.0 468.0 386.0Q464.5 386.0 462.25 365.25Q460.0 344.5 459.0 314.0L457.5 245.0L433.0 255.5Q421.5 260.5 405.75 268.5Q390.0 276.5 379.5 283.0Q370.5 289.5 362.75 294.0Q355.0 298.5 352.5 298.5H351.5Q349.5 296.0 349.5 288.5Q349.5 282.5 351.0 276.0V276.5Q351.5 274.0 351.5 272.25Q351.5 270.5 351.5 270.0Q351.5 267.0 351.0 267.0Q349.0 267.0 345.5 269.0Q340.5 273.5 333.75 283.0Q327.0 292.5 320.0 303.75Q313.0 315.0 308.25 324.75Q303.5 334.5 303.0 338.5Q304.0 351.0 305.75 359.25Q307.5 367.5 311.75 374.75Q316.0 382.0 324.5 392.0Q356.0 425.5 356.0 438.0Q356.0 441.5 352.5 444.0Q351.5 444.5 349.0 444.5Q345.5 444.5 345.5 441.0Q345.5 438.5 335.5 426.25Q325.5 414.0 312.5 400.0Q292.5 378.0 273.25 366.0Q254.0 354.0 241.5 354.0Q238.5 354.0 235.25 354.75Q232.0 355.5 229.5 358.0Q229.0 359.5 228.0 360.75Q227.0 362.0 227.0 363.0Q227.0 365.0 232.25 372.5Q237.5 380.0 250.5 397.5L258.0 406.0Q267.0 415.5 272.5 425.5Q278.0 435.5 278.0 440.0Q278.0 444.0 274.5 444.0Q270.5 444.0 263.0 434.5Q253.5 420.0 240.75 405.75Q228.0 391.5 214.5 380.0Q201.0 368.5 189.0 361.5Q177.0 354.5 169.5 354.5Q167.5 354.5 165.5 355.5V355.0Q164.0 357.0 162.75 358.25Q161.5 359.5 161.5 360.5Q161.5 365.0 167.25 373.25Q173.0 381.5 185.5 397.5Q196.0 410.0 203.0 422.0Q210.0 434.0 210.0 439.0Q210.0 444.5 208.0 444.5Q204.0 444.5 198.5 435.5Q192.0 425.0 180.25 412.25Q168.5 399.5 155.25 387.25Q142.0 375.0 130.75 366.75Q119.5 358.5 114.0 357.5Q111.5 356.5 108.75 356.25Q106.0 356.0 104.0 356.0Q95.5 356.0 94.0 362.0Q95.0 367.0 100.25 375.75Q105.5 384.5 117.0 397.5Q128.5 410.0 136.25 421.25Q144.0 432.5 144.0 434.0Q144.0 443.5 137.5 443.5Q131.0 443.5 128.0 434.5Q126.5 430.5 115.75 418.25Q105.0 406.0 91.0 392.5Q71.0 372.5 58.75 365.0Q46.5 357.5 33.5 355.5Q24.0 353.5 17.0 351.0Q10.0 348.5 10.0 346.0Q10.0 338.5 17.0 338.5Q19.0 338.5 29.75 331.0Q40.5 323.5 55.0 312.0Q69.5 300.5 84.25 288.25Q99.0 276.0 109.5 266.5Q120.0 257.0 122.0 254.0Q123.0 252.0 123.5 250.5Q124.0 249.0 124.0 247.0Q124.0 238.5 114.5 226.25Q105.0 214.0 87.5 199.0Q77.5 191.0 71.0 187.5Q64.5 184.0 57.25 183.0Q50.0 182.0 37.5 182.0Q26.5 182.0 18.25 180.5Q10.0 179.0 10.0 177.0Q10.0 174.5 17.75 167.0Q25.5 159.5 36.5 151.5Q46.0 144.5 65.5 126.75Q85.0 109.0 106.5 89.5L119.5 78.5Q174.0 26.5 179.0 26.5Q181.0 26.5 181.0 29.5Q181.0 36.0 132.0 101.5Q112.0 126.0 103.0 140.75Q94.0 155.5 94.0 160.0Q110.0 161.0 207.0 67.5Q227.5 48.5 239.5 38.0Q251.5 27.5 255.0 27.5Q257.5 27.5 257.5 31.0Q257.5 35.5 242.5 54.5Q183.0 133.5 179.5 144.5Q182.5 143.5 193.75 135.0Q205.0 126.5 220.5 112.75Q236.0 99.0 253.25 83.25Q270.5 67.5 285.5 52.5ZM669.5 15.0Q669.5 11.0 675.5 11.0Q678.0 11.0 680.75 11.25Q683.5 11.5 686.5 12.0Q694.0 14.0 704.75 15.25Q715.5 16.5 727.5 16.5Q741.0 16.5 755.5 15.0Q770.0 13.5 782.5 11.5Q794.0 10.0 799.0 10.0Q808.5 10.0 808.5 15.5Q808.5 23.0 792.5 40.0Q777.0 56.0 767.5 74.5Q758.0 93.0 753.0 120.5Q748.0 148.0 745.75 190.0Q743.5 232.0 743.0 295.0Q743.0 350.0 741.5 381.75Q740.0 413.5 736.5 413.5Q733.5 413.5 731.75 381.0Q730.0 348.5 730.0 288.5Q730.0 252.0 729.75 228.25Q729.5 204.5 728.75 189.25Q728.0 174.0 726.5 163.5Q725.0 153.0 722.0 143.25Q719.0 133.5 714.0 119.5Q707.5 100.5 699.0 79.75Q690.5 59.0 683.5 48.0Q678.5 37.5 674.0 28.0Q669.5 18.5 669.5 15.0Z" fill="black" /></svg>