<svg xmlns="http://www.w3.org/2000/svg" width="744.0" height="459.0" viewBox="0 0 744.0 459.0"><path d="M77.0 347.0Q71.0 344.5 61.25 338.75Q51.5 333.0 43.0 326.5L27.0 313.5V383.5L54.0 368.0Q61.5 363.5 70.0 359.5Q78.5 355.5 84.5 353.0Q90.5 350.5 90.5 350.5Q87.5 349.0 83.75 348.25Q80.0 347.5 77.0 347.0ZM56.0 110.0V111.5L50.0 107.5Q46.0 104.5 42.75 102.75Q39.5 101.0 39.5 101.0V131.5Q39.5 144.0 39.5 152.75Q39.5 161.5 39.0 161.5Q39.5 161.5 46.0 158.25Q52.5 155.0 61.0 150.5Q71.0 145.5 81.5 140.75Q92.0 136.0 96.5 134.0Q99.5 134.0 101.5 133.0Q100.0 132.5 97.5 131.5Q95.0 130.5 91.0 130.0L88.5 128.5Q80.5 126.0 70.75 120.5Q61.0 115.0 56.0 110.0ZM93.0 198.0 100.5 212.5 118.0 180.5 101.5 181.5H85.0Q86.0 184.0 88.5 188.25Q91.0 192.5 93.0 198.0ZM325.5 139.5 334.0 126.0H310.5Q299.5 126.0 291.25 126.5Q283.0 127.0 283.0 127.0Q283.0 128.0 287.0 137.0Q291.0 146.0 297.0 157.5Q302.5 168.5 305.25 174.0Q308.0 179.5 309.0 179.5Q309.0 179.5 309.5 177.25Q310.0 175.0 310.5 172.0Q312.5 166.5 317.0 157.0Q321.5 147.5 325.5 139.5ZM659.0 227.0V219.0Q659.0 215.0 658.25 211.0Q657.5 207.0 657.5 207.0L641.0 218.0Q643.5 219.0 645.5 220.75Q647.5 222.5 650.0 223.5Q652.0 225.0 655.5 226.0Q659.0 227.0 659.0 227.0ZM401.5 66.0V65.5Q395.5 54.0 391.5 47.0Q387.5 40.0 387.5 40.0Q385.0 42.5 379.75 49.75Q374.5 57.0 368.75 66.0Q363.0 75.0 358.5 82.75Q354.0 90.5 353.0 93.5Q358.0 95.5 370.0 95.5Q377.0 95.5 389.5 97.75Q402.0 100.0 412.0 103.0Q432.5 109.5 438.0 110.0Q437.0 109.0 435.5 108.0Q434.0 107.0 432.0 106.0Q427.0 100.5 417.75 88.75Q408.5 77.0 401.5 66.0ZM705.0 29.5Q704.0 30.0 691.25 30.25Q678.5 30.5 661.0 30.5H618.0L628.5 47.0Q634.0 56.0 641.0 72.0Q648.0 88.0 652.5 100.0L662.5 125.5L666.5 103.0Q669.5 91.5 676.25 76.5Q683.0 61.5 689.0 52.0Q695.5 43.5 700.0 36.75Q704.5 30.0 705.0 29.5ZM405.0 362.5Q411.5 354.5 417.0 348.75Q422.5 343.0 424.5 342.5Q424.0 342.5 421.25 343.0Q418.5 343.5 415.0 344.5Q413.0 346.5 410.5 347.5Q408.0 348.5 405.0 350.0Q397.5 352.0 382.5 354.5Q367.5 357.0 354.0 357.0Q342.0 357.5 333.0 357.5Q324.0 357.5 324.0 357.0Q324.0 358.5 328.75 368.25Q333.5 378.0 340.5 390.5L354.0 420.0L369.0 401.0Q376.0 393.0 386.5 381.5Q397.0 370.0 405.0 362.5ZM64.0 171.5Q64.0 169.5 76.25 167.25Q88.5 165.0 104.0 165.0H116.5Q144.0 165.0 144.0 174.0Q144.0 176.5 134.5 184.5Q126.5 191.5 122.0 201.75Q117.5 212.0 115.75 230.0Q114.0 248.0 114.0 279.0V338.0H202.0Q245.0 338.0 269.5 340.0Q294.0 342.0 294.0 346.5Q294.0 349.5 270.25 351.75Q246.5 354.0 204.5 354.0Q190.5 354.0 179.25 353.75Q168.0 353.5 158.5 353.0H138.0Q124.0 353.0 119.0 354.25Q114.0 355.5 114.0 359.5Q114.0 363.0 111.0 364.75Q108.0 366.5 105.5 366.5H104.0Q102.0 366.0 100.0 366.0Q91.5 366.0 74.75 374.25Q58.0 382.5 39.5 394.0Q30.0 401.0 22.75 405.75Q15.5 410.5 14.5 410.5Q12.5 410.5 11.25 391.5Q10.0 372.5 10.0 346.5Q10.0 319.5 11.25 300.75Q12.5 282.0 15.5 282.0Q16.5 282.0 23.0 287.25Q29.5 292.5 37.5 301.0Q49.5 313.0 61.5 319.0Q73.5 325.0 83.5 329.0Q86.0 331.0 88.25 331.25Q90.5 331.5 92.5 332.5Q93.5 333.0 96.75 334.0Q100.0 335.0 100.0 335.0Q100.0 323.0 99.75 311.25Q99.5 299.5 98.0 287.5Q98.0 267.5 96.5 255.5Q95.0 243.5 91.5 233.25Q88.0 223.0 81.0 208.0Q74.5 195.0 69.25 184.25Q64.0 173.5 64.0 171.5ZM591.5 15.5Q591.5 10.0 599.0 10.0Q604.5 10.0 610.5 12.0Q616.0 13.5 631.25 14.0Q646.5 14.5 665.0 14.5H696.5Q712.5 14.5 723.25 16.25Q734.0 18.0 734.0 19.0Q734.0 20.5 732.25 25.75Q730.5 31.0 720.5 39.5Q715.0 44.5 708.75 54.75Q702.5 65.0 697.5 75.25Q692.5 85.5 690.5 91.5Q689.0 93.5 687.0 102.5Q685.0 111.5 683.0 122.5Q681.5 132.0 679.25 141.25Q677.0 150.5 675.5 157.5L677.0 250.5Q677.0 265.0 677.25 278.0Q677.5 291.0 677.5 303.0Q677.5 346.0 675.25 370.0Q673.0 394.0 670.5 394.0Q668.5 394.0 666.5 384.5Q664.5 375.0 663.0 360.5Q661.5 346.0 661.5 331.5Q661.5 320.5 661.5 310.5Q661.5 300.5 661.0 292.5V268.0Q661.0 262.5 660.0 253.75Q659.0 245.0 659.0 245.0Q642.5 236.0 634.25 232.0Q626.0 228.0 626.0 228.0Q622.0 230.5 602.75 242.0Q583.5 253.5 549.5 273.5Q516.5 292.5 482.75 315.5Q449.0 338.5 419.75 366.0Q390.5 393.5 370.0 427.0Q364.0 436.0 358.75 442.5Q353.5 449.0 352.5 449.0Q350.5 449.0 346.5 441.0Q342.5 433.0 338.0 422.0Q334.5 412.0 328.25 399.25Q322.0 386.5 316.5 378.5Q311.5 370.5 309.0 365.0Q306.5 359.5 305.5 351.0Q304.5 342.5 304.5 326.0Q304.5 318.0 304.75 308.5Q305.0 299.0 305.0 287.0Q305.0 260.0 303.25 236.0Q301.5 212.0 294.75 189.5Q288.0 167.0 273.0 144.0L264.5 130.5L197.5 134.0Q162.5 136.0 138.5 140.25Q114.5 144.5 94.75 152.5Q75.0 160.5 53.5 174.5Q50.0 176.5 46.0 178.25Q42.0 180.0 39.0 182.5Q35.0 185.5 32.25 186.75Q29.5 188.0 29.0 188.0Q27.0 188.0 25.75 170.5Q24.5 153.0 24.5 128.5Q24.5 103.5 25.25 86.75Q26.0 70.0 29.5 70.0Q31.5 70.0 37.0 74.25Q42.5 78.5 48.5 86.0Q59.5 97.5 74.5 104.75Q89.5 112.0 112.5 115.25Q135.5 118.5 171.0 118.5Q193.0 118.5 220.5 117.0Q248.0 115.5 283.0 113.5Q300.0 112.5 315.0 112.25Q330.0 112.0 340.5 112.0Q360.0 112.0 360.0 115.0Q360.0 117.5 355.0 125.5Q350.0 133.5 342.5 143.0Q334.0 154.5 329.0 165.5Q324.0 176.5 322.0 191.75Q320.0 207.0 320.0 233.0Q320.0 242.5 320.0 253.0Q320.0 263.5 320.5 275.0L321.5 339.0L342.5 340.5Q346.0 340.5 349.5 340.75Q353.0 341.0 356.5 341.0Q375.0 341.0 394.0 335.25Q413.0 329.5 440.5 315.5Q468.0 301.5 511.0 276.5Q534.0 263.5 555.0 251.75Q576.0 240.0 591.0 230.75Q606.0 221.5 611.0 218.0Q604.5 214.0 588.25 204.0Q572.0 194.0 551.75 181.75Q531.5 169.5 512.25 158.25Q493.0 147.0 480.0 141.0Q471.5 137.0 456.0 132.25Q440.5 127.5 421.75 122.5Q403.0 117.5 384.5 113.75Q366.0 110.0 351.5 108.0L317.5 103.5L338.0 82.0Q345.0 74.0 354.5 61.25Q364.0 48.5 369.5 38.5Q376.5 28.5 382.75 21.25Q389.0 14.0 389.5 14.0Q390.5 14.0 395.75 22.0Q401.0 30.0 406.0 42.0Q412.0 56.5 421.5 68.75Q431.0 81.0 446.0 94.0Q461.0 107.0 484.5 122.5Q508.0 138.0 542.5 159.0L626.5 208.0Q630.5 206.5 634.75 203.75Q639.0 201.0 642.5 199.0Q648.5 196.5 653.0 194.25Q657.5 192.0 657.5 192.0V180.5Q657.5 178.0 656.75 169.25Q656.0 160.5 655.0 152.5Q654.0 144.5 654.0 144.5Q653.5 144.0 648.75 132.25Q644.0 120.5 637.0 103.75Q630.0 87.0 622.25 69.75Q614.5 52.5 608.25 40.25Q602.0 28.0 598.5 26.0Q591.5 21.5 591.5 15.5Z" fill="black" /></svg>