<svg xmlns="http://www.w3.org/2000/svg" width="944.0" height="459.0" viewBox="0 0 944.0 459.0"><path d="M116.5 354.0 97.5 345.0Q86.0 339.0 74.75 332.75Q63.5 326.5 58.0 323.5L48.5 316.0L39.5 340.5Q36.5 350.0 34.75 354.75Q33.0 359.5 32.5 362.0Q34.0 362.0 35.0 361.0Q39.0 359.5 54.0 358.25Q69.0 357.0 85.5 355.5ZM479.5 345.0 458.0 335.0Q454.5 333.5 450.75 331.25Q447.0 329.0 443.5 327.5Q438.5 324.5 434.5 322.25Q430.5 320.0 430.0 319.5L430.5 320.5Q430.0 320.5 429.0 325.25Q428.0 330.0 426.5 336.0Q426.0 340.0 425.5 343.75Q425.0 347.5 424.0 351.5Q423.0 356.5 422.0 360.75Q421.0 365.0 421.0 367.5L420.0 371.5L428.5 366.5Q434.0 363.0 444.5 358.0Q455.0 353.0 463.0 350.0ZM202.0 226.0 210.5 207.0H185.0Q172.5 207.0 167.25 207.25Q162.0 207.5 162.0 208.5L164.0 209.0Q165.5 212.0 170.25 220.75Q175.0 229.5 179.5 240.0Q183.5 249.5 186.0 253.75Q188.5 258.0 189.0 258.0Q189.0 258.0 189.25 257.0Q189.5 256.0 190.0 254.0Q191.0 250.0 194.75 242.0Q198.5 234.0 202.0 226.0ZM502.0 308.0 508.0 305.0 498.0 300.0 486.5 293.0V303.5Q486.5 313.5 489.0 313.5Q491.5 313.5 494.0 312.0Q496.5 310.5 502.0 308.0ZM514.0 328.0Q514.0 324.5 514.0 322.0Q514.0 319.5 514.5 319.5Q514.0 319.5 510.75 322.0Q507.5 324.5 502.5 327.5Q498.0 329.0 495.75 331.25Q493.5 333.5 493.5 334.5Q493.5 337.0 505.0 337.0Q511.0 337.0 512.5 335.0Q514.0 333.0 514.0 328.0ZM723.0 343.0Q722.5 342.5 720.5 341.5Q711.5 337.0 698.0 329.5L675.0 317.5V328.0Q675.0 336.0 673.5 343.5Q672.0 351.0 669.5 355.5Q668.5 358.5 667.25 361.0Q666.0 363.5 665.5 366.0Q668.0 366.0 673.5 363.5Q679.0 361.0 686.5 357.5Q694.5 352.5 704.5 349.0Q714.5 345.5 718.0 344.0Q719.5 343.5 721.0 343.5Q722.5 343.5 723.0 343.0ZM149.5 113.0 135.0 107.0Q127.0 103.5 117.5 98.25Q108.0 93.0 104.0 89.5L95.5 83.0L90.5 106.0Q89.5 111.5 88.5 116.75Q87.5 122.0 87.0 127.0Q86.0 131.5 85.25 134.75Q84.5 138.0 84.5 140.5Q84.5 141.0 84.25 141.5Q84.0 142.0 84.0 142.5Q85.0 142.0 87.75 140.0Q90.5 138.0 95.5 135.0Q101.5 131.5 112.75 126.25Q124.0 121.0 133.5 118.5ZM450.0 127.0Q445.0 124.5 440.75 122.25Q436.5 120.0 432.5 119.0Q429.5 117.0 427.25 115.5Q425.0 114.0 424.0 113.5V114.5Q424.0 113.5 422.5 119.0Q421.0 124.5 420.0 132.5L419.5 138.5Q418.0 145.5 417.25 152.25Q416.5 159.0 415.0 162.0Q417.0 162.0 422.0 159.5Q427.0 157.0 436.5 153.0Q447.0 147.5 456.75 143.25Q466.5 139.0 468.5 139.0H473.0Q473.0 138.0 466.75 134.75Q460.5 131.5 450.0 127.0ZM485.0 191.5H486.5Q483.0 188.5 481.0 186.75Q479.0 185.0 476.5 185.0Q473.0 185.0 473.0 195.5Q473.0 205.0 474.0 205.0Q475.5 205.0 477.25 204.0Q479.0 203.0 481.5 202.5Q484.0 201.5 485.5 200.25Q487.0 199.0 488.0 198.5Q489.0 198.0 490.0 197.0Q489.0 194.5 485.0 191.5ZM524.0 224.5 529.5 214.0Q531.5 208.5 532.5 206.5Q533.5 204.5 533.5 203.0H528.0Q517.0 203.0 516.0 207.0Q516.0 208.5 517.25 211.25Q518.5 214.0 520.0 217.5V215.5ZM661.5 242.0Q656.5 221.5 645.25 212.0Q634.0 202.5 613.5 202.5H591.0L548.0 203.5L540.5 221.0Q531.0 241.5 531.0 268.0V294.5L560.0 298.0Q573.0 299.0 587.75 300.25Q602.5 301.5 612.0 301.5Q622.0 301.5 628.25 303.25Q634.5 305.0 634.5 309.5Q634.5 314.5 618.5 314.5Q613.5 314.5 606.0 314.25Q598.5 314.0 588.5 313.5Q578.5 313.0 570.75 313.0Q563.0 313.0 556.5 313.0Q537.5 313.0 531.75 315.75Q526.0 318.5 526.0 326.0Q526.0 332.5 529.25 334.5Q532.5 336.5 542.0 338.5Q549.0 339.0 568.5 340.25Q588.0 341.5 608.5 341.5H657.0L660.0 327.5Q662.5 307.0 664.0 292.5Q665.5 278.0 665.5 268.0Q665.5 252.0 661.5 242.0ZM680.0 213.0 687.0 198.5H654.5L662.0 210.5Q666.0 217.0 669.25 223.5Q672.5 230.0 672.5 230.0Q672.5 229.0 674.75 223.25Q677.0 217.5 680.0 213.0ZM393.5 35.5 400.5 25.0H368.5Q355.0 25.0 345.25 24.75Q335.5 24.5 334.5 23.0Q335.5 26.0 343.5 42.0Q347.0 50.0 352.25 65.75Q357.5 81.5 361.0 95.5Q363.5 107.0 365.25 113.75Q367.0 120.5 368.0 120.5Q370.5 120.5 378.5 85.5Q381.0 72.0 385.5 57.75Q390.0 43.5 393.5 35.5ZM751.0 135.5 760.5 155.5 784.5 104.5H759.0Q745.5 104.5 740.25 104.5Q735.0 104.5 735.0 105.5L737.0 106.0Q738.5 109.0 743.0 117.25Q747.5 125.5 751.0 135.5ZM898.0 65.0 905.5 51.0H845.0Q852.0 66.5 858.5 81.5Q865.0 96.5 869.5 113.0L876.0 134.0L882.0 110.5Q885.5 98.5 890.25 85.0Q895.0 71.5 898.0 65.0ZM408.5 132.5Q411.0 110.5 415.0 96.25Q419.0 82.0 421.0 82.0Q424.0 82.0 426.75 85.5Q429.5 89.0 430.5 94.0Q436.0 103.5 460.0 115.0Q480.0 126.0 516.25 130.5Q552.5 135.0 617.5 135.0Q664.5 135.0 664.5 142.5Q664.5 149.5 632.5 149.5Q624.0 149.5 613.25 149.25Q602.5 149.0 589.5 148.0Q578.5 147.5 568.0 147.5Q557.5 147.5 547.5 147.5Q529.0 147.5 514.75 148.0Q500.5 148.5 494.5 150.0Q489.0 151.0 482.0 153.0Q475.0 155.0 468.0 157.5Q473.0 159.0 473.0 166.0Q473.0 166.5 479.0 169.75Q485.0 173.0 493.5 177.0Q501.0 180.5 508.25 182.5Q515.5 184.5 527.5 185.25Q539.5 186.0 560.5 186.25Q581.5 186.5 616.0 186.5H646.5Q678.5 186.5 699.25 187.75Q720.0 189.0 720.0 190.0Q720.0 192.5 716.25 195.5Q712.5 198.5 708.0 201.0Q696.5 205.5 688.0 225.5Q679.5 245.5 678.0 269.0Q678.0 296.5 683.0 303.5Q686.0 307.0 696.0 312.5Q706.0 318.0 718.25 323.75Q730.5 329.5 740.5 333.0H739.0L751.0 335.0L753.0 287.0Q753.5 271.5 753.5 258.5Q753.5 245.5 753.5 234.0Q753.5 199.0 751.0 179.0Q748.5 159.0 742.5 145.75Q736.5 132.5 725.5 119.0Q720.0 110.5 715.75 103.25Q711.5 96.0 711.5 95.5Q711.5 93.0 726.5 91.75Q741.5 90.5 762.0 90.5Q784.0 90.5 798.75 91.75Q813.5 93.0 813.5 94.5Q813.5 100.5 799.5 111.0Q788.5 123.0 781.5 139.25Q774.5 155.5 771.0 182.75Q767.5 210.0 766.0 255.5L762.0 335.0L812.5 338.5H866.0Q866.5 337.5 866.5 321.0Q866.5 304.5 866.5 279.5V238.5Q866.0 204.5 865.5 183.75Q865.0 163.0 863.75 150.25Q862.5 137.5 860.25 127.25Q858.0 117.0 854.0 104.5Q848.5 90.0 841.75 76.25Q835.0 62.5 830.0 57.5H831.5Q826.5 52.5 822.5 47.75Q818.5 43.0 818.5 41.5Q818.5 39.0 835.75 37.75Q853.0 36.5 876.5 36.5Q900.0 36.5 917.0 37.75Q934.0 39.0 934.0 41.5Q934.0 43.0 930.5 47.75Q927.0 52.5 921.0 58.0Q908.5 71.0 896.5 108.0Q892.0 121.0 889.5 131.25Q887.0 141.5 885.75 154.75Q884.5 168.0 883.75 188.75Q883.0 209.5 882.0 243.5L879.5 341.5H896.5Q904.5 341.5 910.5 343.25Q916.5 345.0 916.5 348.0Q916.5 350.0 910.5 352.75Q904.5 355.5 896.5 355.5H880.5V377.0Q880.5 388.0 878.75 396.75Q877.0 405.5 874.5 405.5Q872.0 405.5 870.25 397.5Q868.5 389.5 868.5 377.5V357.0L840.0 354.0Q826.0 352.0 812.75 351.5Q799.5 351.0 789.5 351.0Q772.5 351.0 758.75 352.75Q745.0 354.5 733.5 357.5Q720.0 361.0 704.25 367.75Q688.5 374.5 677.0 381.25Q665.5 388.0 664.5 392.0Q662.5 395.5 660.5 398.25Q658.5 401.0 656.0 401.0Q650.5 401.0 650.5 390.0Q650.5 387.5 650.75 383.5Q651.0 379.5 652.0 375.5L654.5 357.0L588.0 355.0Q575.5 354.0 565.0 354.0Q554.5 354.0 546.0 354.0Q527.5 354.0 514.75 355.0Q502.0 356.0 492.0 358.5Q474.5 362.5 457.25 370.0Q440.0 377.5 428.75 385.25Q417.5 393.0 417.0 397.5Q418.0 399.0 425.0 399.0Q437.5 399.0 437.5 409.5Q437.5 417.5 429.0 417.5Q427.5 417.5 425.5 417.25Q423.5 417.0 421.0 416.0Q415.5 415.0 405.5 413.25Q395.5 411.5 387.0 410.5L370.0 407.5V425.0Q370.0 443.5 366.0 443.5Q365.0 443.5 362.0 439.0V439.5Q360.0 436.0 358.75 430.0Q357.5 424.0 357.5 416.0Q357.5 409.0 355.5 407.0Q353.5 405.0 347.5 403.0Q344.5 402.5 332.0 400.5Q319.5 398.5 302.25 395.5Q285.0 392.5 266.25 389.5Q247.5 386.5 230.75 383.75Q214.0 381.0 203.25 379.25Q192.5 377.5 191.5 377.5Q191.0 377.5 190.75 387.75Q190.5 398.0 190.5 411.5Q190.5 449.0 184.5 449.0Q178.5 449.0 177.0 409.5L176.0 375.5H111.5Q82.0 375.5 66.5 376.0Q51.0 376.5 43.5 378.5Q36.0 380.5 30.0 384.5Q25.0 386.5 20.75 388.5Q16.5 390.5 13.5 390.5Q11.0 390.5 11.0 388.5Q10.0 387.5 10.0 385.5Q10.0 381.5 13.25 370.25Q16.5 359.0 21.25 345.0Q26.0 331.0 31.5 317.75Q37.0 304.5 41.25 296.0Q45.5 287.5 47.5 287.5Q50.5 287.5 56.5 298.0Q59.0 303.5 70.25 310.75Q81.5 318.0 97.25 325.5Q113.0 333.0 129.5 339.25Q146.0 345.5 158.75 349.5Q171.5 353.5 176.0 353.5H178.0Q179.0 351.0 179.5 339.5Q180.0 328.0 180.0 313.5Q179.5 281.5 173.0 259.5Q166.5 237.5 152.0 219.0Q146.0 212.0 142.0 206.25Q138.0 200.5 138.0 198.5Q138.0 197.5 153.0 195.5Q168.0 193.5 189.0 193.5Q210.5 193.5 225.75 194.5Q241.0 195.5 241.0 197.5Q241.0 199.5 238.75 202.25Q236.5 205.0 232.5 209.0Q210.5 231.0 203.0 259.5Q195.5 288.0 194.0 318.5L192.0 358.5L202.0 361.0Q210.5 362.5 227.25 365.5Q244.0 368.5 264.5 371.75Q285.0 375.0 304.5 378.0Q324.0 381.0 338.25 382.75Q352.5 384.5 357.0 384.5Q357.0 381.0 357.5 367.0Q358.0 353.0 359.0 331.75Q360.0 310.5 361.0 285.5Q361.5 268.0 361.5 252.75Q361.5 237.5 361.5 224.5Q361.5 204.0 359.5 175.75Q357.5 147.5 352.5 118.5Q344.5 120.5 321.5 121.25Q298.5 122.0 267.5 122.0Q181.5 122.0 158.5 127.5Q148.5 130.0 136.0 134.75Q123.5 139.5 112.0 145.0Q100.5 150.5 92.75 155.75Q85.0 161.0 84.0 164.5Q81.5 166.5 78.5 169.0Q75.5 171.5 72.5 171.5Q69.5 171.5 67.5 169.75Q65.5 168.0 65.5 166.0Q65.5 164.0 66.25 163.25Q67.0 162.5 67.0 162.0Q67.0 159.0 69.25 148.75Q71.5 138.5 73.5 127.0Q76.0 115.0 78.75 100.25Q81.5 85.5 84.0 74.5Q86.5 63.0 89.5 56.0Q92.5 49.0 95.5 49.0Q100.0 49.0 100.0 61.5Q100.0 68.0 109.5 75.75Q119.0 83.5 141.5 93.0Q150.5 97.5 158.0 100.0Q165.5 102.5 176.75 103.75Q188.0 105.0 207.5 105.75Q227.0 106.5 260.0 107.0Q292.5 107.5 317.75 109.75Q343.0 112.0 351.5 114.5Q347.0 89.5 339.75 67.5Q332.5 45.5 322.0 30.5Q318.0 26.5 315.5 21.25Q313.0 16.0 313.0 15.5Q313.0 12.5 329.75 11.25Q346.5 10.0 370.0 10.0Q394.5 10.0 411.5 11.0Q428.5 12.0 428.5 14.5Q428.5 15.5 424.5 20.25Q420.5 25.0 415.0 30.5Q408.5 37.0 403.25 48.75Q398.0 60.5 392.5 80.5Q387.5 100.5 384.0 117.5Q380.5 134.5 378.25 154.75Q376.0 175.0 374.75 205.0Q373.5 235.0 372.0 281.5L369.5 388.5L384.5 391.5Q387.5 392.0 390.0 392.0Q392.5 392.0 394.0 392.0Q397.0 392.0 399.75 391.75Q402.5 391.5 403.0 391.5Q404.5 387.5 407.25 372.75Q410.0 358.0 413.5 339.5Q416.5 317.5 420.5 302.5Q424.5 287.5 426.5 287.5Q428.5 287.5 431.0 291.0Q433.5 294.5 436.5 300.0Q438.5 304.0 444.75 309.5Q451.0 315.0 458.0 319.0L474.0 327.5V301.5Q474.0 287.5 475.75 279.0Q477.5 270.5 479.5 270.5Q481.0 270.5 484.75 272.5Q488.5 274.5 492.0 278.5Q496.0 281.0 501.75 284.5Q507.5 288.0 513.0 289.5L520.5 292.0L518.0 265.5Q515.5 239.0 510.75 226.0Q506.0 213.0 497.0 213.0Q494.0 213.0 489.5 214.5Q485.0 216.0 480.0 219.5Q475.5 224.5 471.0 227.25Q466.5 230.0 465.5 230.0Q463.5 230.0 462.0 219.5Q460.5 209.0 460.5 194.0Q460.5 166.0 464.5 159.0Q447.0 165.5 432.0 173.5Q417.0 181.5 415.0 186.5Q414.5 189.0 411.0 191.5Q407.5 194.0 403.0 194.0Q400.0 194.0 398.75 191.5Q397.5 189.0 397.5 186.5V185.0Q398.5 182.5 401.5 166.75Q404.5 151.0 408.5 132.5Z" fill="black" /></svg>