<svg xmlns="http://www.w3.org/2000/svg" width="410.5" height="390.0" viewBox="0 0 410.5 390.0"><path d="M87.0 291.5 85.0 275.5Q84.0 268.5 82.75 262.75Q81.5 257.0 80.5 256.5Q79.0 256.5 73.5 260.75Q68.0 265.0 61.5 271.0Q55.0 277.0 50.0 281.5Q45.0 286.0 45.0 287.0Q50.5 287.0 55.75 287.5Q61.0 288.0 66.5 288.5Q69.0 288.5 71.0 289.0Q73.0 289.5 74.5 289.5ZM102.0 189.0Q101.5 182.0 100.75 177.0Q100.0 172.0 99.0 172.0Q98.5 172.0 94.75 175.25Q91.0 178.5 85.5 183.0Q84.0 185.0 82.0 186.5Q80.0 188.0 77.5 190.0L61.0 204.5L80.5 206.0Q87.5 206.5 93.75 207.0Q100.0 207.5 103.0 207.5H103.5Q103.5 205.0 103.25 200.0Q103.0 195.0 102.0 189.0ZM176.5 126.0 185.5 119.0 167.0 118.5H147.5L153.5 125.0H152.5L154.0 126.0Q158.0 129.5 160.25 131.75Q162.5 134.0 164.5 134.0Q167.0 134.0 169.5 131.75Q172.0 129.5 176.5 126.0ZM186.5 176.5H167.0Q159.0 176.5 153.25 176.5Q147.5 176.5 146.5 177.0Q153.5 192.0 158.5 200.5Q163.5 209.0 165.5 209.0Q166.5 209.0 170.75 203.25Q175.0 197.5 179.75 189.75Q184.5 182.0 186.5 176.5ZM245.5 274.5Q245.5 270.0 245.25 266.25Q245.0 262.5 244.0 262.5Q243.0 262.5 236.5 267.5Q230.0 272.5 222.25 279.0Q214.5 285.5 209.25 290.5Q204.0 295.5 204.5 295.5Q204.5 296.0 211.5 296.5Q218.5 297.0 228.0 297.5Q233.0 298.0 236.75 298.25Q240.5 298.5 243.5 298.5H248.5L248.0 296.0Q247.0 293.5 246.25 287.0Q245.5 280.5 245.5 274.5ZM278.5 186.0Q278.5 181.0 277.0 181.0Q275.5 181.0 269.75 185.75Q264.0 190.5 257.25 197.0Q250.5 203.5 245.5 208.75Q240.5 214.0 240.5 215.0Q240.5 215.0 246.75 215.5Q253.0 216.0 262.0 216.0L283.0 216.5L280.5 207.0Q280.5 205.0 280.25 203.0Q280.0 201.0 280.0 199.5Q278.5 191.0 278.5 186.0ZM297.5 78.0Q299.0 75.0 300.25 72.25Q301.5 69.5 302.0 67.5Q299.0 69.0 291.25 74.25Q283.5 79.5 274.75 86.25Q266.0 93.0 259.25 98.75Q252.5 104.5 251.5 106.5Q252.5 107.5 259.0 109.5Q265.5 111.5 274.25 114.0Q283.0 116.5 290.0 118.5Q291.0 116.0 291.0 113.0Q291.0 110.0 291.0 106.5Q291.0 99.5 293.0 91.25Q295.0 83.0 297.5 78.0ZM326.0 24.0 332.0 10.0 334.0 25.5V27.5Q334.0 36.5 329.5 43.5Q324.0 49.5 317.5 61.75Q311.0 74.0 306.5 86.0Q302.0 98.0 302.0 103.5Q302.0 108.5 303.25 112.25Q304.5 116.0 306.5 117.0Q309.0 118.5 311.75 122.0Q314.5 125.5 315.5 129.0Q316.5 131.0 326.75 139.25Q337.0 147.5 351.0 156.5Q400.5 188.5 400.5 200.0Q400.5 201.0 400.0 202.0Q399.5 203.0 399.0 204.0H398.0Q396.0 204.0 389.5 199.75Q383.0 195.5 375.0 189.0Q357.5 174.0 333.75 158.5Q310.0 143.0 284.25 131.5Q258.5 120.0 234.5 118.5Q226.5 118.5 215.75 121.25Q205.0 124.0 194.75 129.25Q184.5 134.5 177.5 142.0Q170.5 149.5 170.5 159.5Q170.5 162.0 174.75 162.75Q179.0 163.5 191.5 163.5Q215.0 163.5 215.0 169.5Q215.0 173.5 204.5 179.5Q196.5 183.5 189.0 194.5Q181.5 205.5 176.5 217.75Q171.5 230.0 171.5 239.5Q171.5 244.5 174.75 248.75Q178.0 253.0 186.0 261.0Q193.5 266.5 199.25 270.5Q205.0 274.5 207.0 274.5Q208.5 274.5 216.0 268.75Q223.5 263.0 232.0 255.0Q254.0 233.5 260.5 233.5Q265.0 233.5 265.0 239.5Q265.0 245.0 259.5 248.5Q257.0 252.0 257.0 266.5Q257.0 275.5 258.5 284.25Q260.0 293.0 262.0 297.5Q263.0 300.5 272.5 307.75Q282.0 315.0 293.0 322.0Q309.0 333.0 323.25 344.5Q337.5 356.0 346.25 365.0Q355.0 374.0 355.0 378.0L354.0 380.0H353.5Q350.5 380.0 340.5 373.5Q330.5 367.0 317.5 356.5Q295.5 338.0 279.75 328.25Q264.0 318.5 249.75 314.75Q235.5 311.0 218.0 311.0H213.0Q199.5 311.0 189.5 310.5Q179.5 310.0 179.5 307.5Q179.5 305.5 182.5 302.5Q185.5 299.5 189.0 296.0Q195.0 290.5 195.0 286.5Q195.0 281.0 181.0 271.5L174.0 267.0V306.5Q174.0 326.5 174.75 335.5Q175.5 344.5 178.0 348.25Q180.5 352.0 185.5 356.5Q194.5 363.0 194.5 369.5V372.0Q193.5 372.5 192.5 373.0Q191.5 373.5 190.5 373.5Q186.5 373.5 181.0 369.0Q174.5 361.5 172.0 361.5Q171.5 361.5 165.5 357.0Q159.5 352.5 153.5 345.0Q147.0 339.5 134.0 331.0Q121.0 322.5 110.5 316.0Q98.0 309.5 90.25 306.5Q82.5 303.5 74.0 302.75Q65.5 302.0 50.0 302.0L10.0 303.5L53.0 262.5Q91.5 226.0 98.5 226.0Q101.5 226.0 101.5 230.0Q101.5 234.0 97.5 241.0Q93.0 249.0 93.0 260.5Q93.0 267.5 95.0 275.0Q97.0 282.5 100.5 289.5V288.5Q102.0 291.5 110.5 298.5Q119.0 305.5 129.75 313.25Q140.5 321.0 149.5 326.75Q158.5 332.5 161.0 332.5Q162.0 332.5 162.5 321.75Q163.0 311.0 163.0 296.0Q163.0 277.5 162.5 269.25Q162.0 261.0 159.75 257.0Q157.5 253.0 152.0 248.5Q134.0 233.5 115.5 227.0Q97.0 220.5 74.0 220.5H69.5Q55.5 220.5 45.25 219.25Q35.0 218.0 35.0 216.0Q35.0 214.5 42.75 206.75Q50.5 199.0 61.75 188.25Q73.0 177.5 84.75 167.25Q96.5 157.0 105.0 150.0Q113.5 143.0 114.5 143.0Q117.5 143.0 117.5 148.0Q117.5 150.0 117.0 153.0Q116.5 156.0 114.5 159.5Q113.0 163.5 112.5 168.5Q112.0 173.5 112.0 178.0Q112.0 187.0 114.25 195.0Q116.5 203.0 121.5 210.0Q124.5 214.0 132.25 220.0Q140.0 226.0 148.0 230.75Q156.0 235.5 159.5 236.0Q159.0 226.0 151.5 211.25Q144.0 196.5 134.0 185.5L114.0 163.5H139.5Q151.5 163.5 155.5 162.5Q159.5 161.5 159.5 158.0Q159.5 151.0 150.5 140.5Q141.5 130.0 130.5 125.0Q118.5 118.0 118.5 114.0Q118.5 108.5 131.5 107.0Q144.5 105.5 172.0 105.5Q191.5 105.5 202.75 105.25Q214.0 105.0 220.5 104.0Q227.0 103.0 232.0 100.25Q237.0 97.5 244.0 93.0Q256.5 86.0 270.25 75.75Q284.0 65.5 296.25 55.0Q308.5 44.5 316.75 36.0Q325.0 27.5 326.0 24.0ZM216.5 223.0Q216.5 221.5 223.75 214.0Q231.0 206.5 241.75 196.0Q252.5 185.5 263.75 175.5Q275.0 165.5 283.5 158.75Q292.0 152.0 294.5 152.0Q297.0 152.0 297.0 155.5Q297.0 156.5 296.5 158.25Q296.0 160.0 295.5 161.5Q294.5 164.0 292.75 171.25Q291.0 178.5 290.0 184.5Q290.0 205.0 299.0 217.0Q308.0 229.0 325.0 239.5Q334.5 245.5 345.5 253.75Q356.5 262.0 366.25 270.5Q376.0 279.0 382.25 285.5Q388.5 292.0 388.5 294.5L387.5 297.0H387.0Q384.0 297.0 374.5 290.25Q365.0 283.5 353.5 274.0Q331.5 256.5 314.75 246.75Q298.0 237.0 283.25 232.75Q268.5 228.5 251.5 228.5H248.0Q235.0 228.5 225.75 227.25Q216.5 226.0 216.5 223.0Z" fill="black" /></svg>