<svg xmlns="http://www.w3.org/2000/svg" width="521.5" height="384.0" viewBox="0 0 521.5 384.0"><path d="M48.0 149.0Q41.0 145.0 33.5 137.5L26.5 131.5V178.5L39.5 165.0Q50.0 153.0 50.0 150.5Q50.0 150.5 49.5 150.0Q49.0 149.5 48.0 149.0ZM127.0 151.5 117.0 147.5Q112.0 145.0 106.25 141.25Q100.5 137.5 97.0 134.0L89.5 127.5V140.0Q89.5 146.5 89.0 156.0Q88.5 165.5 87.5 173.0L85.5 187.5L91.0 180.5Q94.5 176.5 101.0 170.5Q107.5 164.5 114.0 160.5ZM123.5 250.0H124.0Q124.0 250.0 124.25 248.75Q124.5 247.5 124.5 245.5Q124.5 243.5 124.25 241.25Q124.0 239.0 124.0 237.0L123.0 226.5Q120.0 228.5 116.75 230.25Q113.5 232.0 110.5 234.0L99.0 240.0Q101.5 241.5 104.25 243.0Q107.0 244.5 109.5 245.5Q118.5 250.0 123.5 250.0ZM158.5 174.0Q158.5 163.5 157.25 158.5Q156.0 153.5 152.0 153.5Q146.5 153.5 127.5 165.0Q110.0 174.5 96.5 191.0Q83.0 207.5 80.5 220.5Q79.0 226.5 79.0 229.5Q79.0 232.5 85.0 232.5Q90.0 232.5 99.5 228.0Q109.0 223.5 117.75 217.5Q126.5 211.5 128.5 208.0Q132.0 201.5 138.0 201.5Q139.0 201.5 139.75 201.75Q140.5 202.0 141.0 202.0Q143.0 202.5 146.0 202.5Q158.5 202.5 158.5 174.0ZM179.0 207.5Q179.0 205.0 179.25 203.25Q179.5 201.5 179.5 200.0Q179.5 199.5 179.5 199.25Q179.5 199.0 179.5 198.5Q179.0 199.0 176.5 200.75Q174.0 202.5 170.0 205.0L163.0 209.5L170.0 212.5Q174.0 214.5 177.0 214.5Q178.5 214.5 179.0 207.5ZM219.5 164.0 217.5 153.5H167.5V172.5Q167.5 180.5 168.0 186.25Q168.5 192.0 169.0 192.0Q170.0 192.0 174.25 189.0Q178.5 186.0 184.0 182.5Q192.5 175.5 195.0 175.5Q197.0 175.5 197.0 179.0Q197.0 182.0 191.5 197.5Q188.0 207.5 188.0 211.0Q188.0 214.5 195.0 221.0Q204.0 228.0 205.0 233.0Q206.0 234.5 209.0 235.5H210.0Q215.5 235.0 218.5 221.75Q221.5 208.5 221.5 191.5Q221.5 184.5 221.25 177.5Q221.0 170.5 219.5 164.0ZM257.0 272.0 264.0 266.0H235.5L240.5 271.0Q242.0 273.0 243.5 274.75Q245.0 276.5 245.5 277.5Q248.0 281.0 248.0 281.5Q248.0 279.0 251.5 276.5Q252.5 275.5 254.0 274.25Q255.5 273.0 257.0 272.0ZM242.0 184.5Q235.5 180.5 233.5 180.5Q231.0 180.5 231.0 197.0Q231.0 204.0 231.25 209.0Q231.5 214.0 232.0 214.0Q233.0 214.0 236.5 211.75Q240.0 209.5 244.5 207.5Q248.5 204.0 254.75 200.5Q261.0 197.0 265.5 195.5L272.0 193.0L264.0 191.0Q258.5 190.0 252.25 188.0Q246.0 186.0 242.0 184.5ZM176.5 57.5 187.0 45.5H168.5Q159.0 45.5 155.25 45.5Q151.5 45.5 151.5 46.5Q151.5 46.5 152.0 47.25Q152.5 48.0 153.5 49.0Q156.0 52.0 158.5 56.0Q161.0 60.0 162.5 64.0Q164.0 68.0 165.0 68.0Q167.5 68.0 176.5 57.5ZM255.5 108.5Q238.0 103.5 235.0 101.5V140.0L242.0 134.0Q245.5 130.0 251.75 126.0Q258.0 122.0 263.0 119.0L272.5 114.5Q268.5 113.0 264.0 111.5Q259.5 110.0 255.5 108.5ZM321.5 183.0 354.0 182.5 356.0 116.5H324.5Q309.5 117.0 297.0 118.25Q284.5 119.5 279.0 122.5Q271.5 126.0 263.5 131.0Q255.5 136.0 250.0 140.75Q244.5 145.5 244.0 148.0V149.5Q244.0 153.0 238.0 154.5Q231.5 156.5 231.5 159.0Q231.5 161.5 239.0 169.0Q255.5 183.0 315.5 183.0ZM371.5 67.5 377.5 60.5H366.5Q356.0 60.5 356.0 61.5Q356.0 63.5 358.0 67.0Q359.5 70.0 361.0 72.5Q362.5 75.0 362.5 75.0L363.5 75.5L363.0 75.0Q363.5 75.0 365.75 72.75Q368.0 70.5 371.5 67.5ZM365.5 184.5 451.0 182.5 453.0 116.5H365.5ZM482.0 28.5Q481.5 28.0 473.75 27.25Q466.0 26.5 457.75 25.75Q449.5 25.0 447.0 25.0H442.5L443.0 26.0Q444.5 28.0 448.25 35.5Q452.0 43.0 454.0 51.5Q459.0 66.5 460.0 66.5Q461.0 66.5 462.0 62.5Q463.0 58.5 466.75 51.75Q470.5 45.0 474.0 40.0Q477.5 36.0 479.5 32.75Q481.5 29.5 482.0 28.5ZM415.5 12.5Q415.5 10.0 419.0 10.0Q422.5 10.0 427.5 11.5Q431.5 12.5 445.0 13.5Q458.5 14.5 473.5 15.0Q491.0 15.0 501.25 17.0Q511.5 19.0 511.5 21.5Q511.5 25.0 503.5 27.0Q497.0 28.5 489.5 36.5Q482.0 44.5 475.75 55.75Q469.5 67.0 465.5 78.75Q461.5 90.5 461.5 99.5Q461.5 104.0 464.0 105.0Q466.5 106.0 470.5 106.0Q474.5 106.0 477.75 107.25Q481.0 108.5 481.0 111.0Q481.0 113.0 478.0 114.75Q475.0 116.5 471.0 116.5Q467.5 116.5 465.5 118.0Q463.5 119.5 462.75 126.0Q462.0 132.5 460.5 147.5Q460.0 155.5 459.75 162.5Q459.5 169.5 459.5 175.0Q459.5 181.5 461.75 183.0Q464.0 184.5 471.0 184.5Q475.0 184.5 478.0 185.75Q481.0 187.0 481.0 189.5Q481.0 191.5 477.5 193.25Q474.0 195.0 468.5 195.0H458.5V236.0Q458.5 256.5 457.25 268.5Q456.0 280.5 453.5 280.5Q452.0 280.5 450.75 268.5Q449.5 256.5 449.5 236.0V195.0H291.5Q289.0 196.5 280.75 200.25Q272.5 204.0 270.0 205.5Q250.0 214.5 236.75 224.75Q223.5 235.0 223.5 242.0Q223.5 249.0 232.25 252.0Q241.0 255.0 261.0 255.0H278.0Q291.0 255.0 298.5 256.75Q306.0 258.5 306.0 261.0Q306.0 265.0 290.0 267.0Q283.5 268.0 276.0 271.75Q268.5 275.5 262.5 280.0L250.0 292.0V331.5Q250.0 350.5 248.75 362.25Q247.5 374.0 245.0 374.0Q243.0 374.0 241.75 362.75Q240.5 351.5 240.5 333.0Q240.5 317.5 239.25 303.0Q238.0 288.5 236.0 284.0Q233.5 275.5 223.0 268.75Q212.5 262.0 202.5 262.0Q200.0 262.0 197.75 260.25Q195.5 258.5 195.5 257.0Q195.5 254.5 198.75 253.0Q202.0 251.5 207.0 251.5H211.0Q211.0 250.0 203.25 245.0Q195.5 240.0 184.75 233.75Q174.0 227.5 164.5 222.5Q155.0 217.5 152.0 216.5Q149.5 215.5 147.25 215.0Q145.0 214.5 143.0 214.5Q138.0 214.5 136.25 219.5Q134.5 224.5 134.5 236.0Q134.5 245.0 139.0 253.25Q143.5 261.5 154.75 271.75Q166.0 282.0 186.0 298.0Q212.5 317.5 222.5 326.25Q232.5 335.0 233.0 338.0Q232.5 338.5 232.25 339.5Q232.0 340.5 231.0 341.0H230.5Q228.5 341.0 220.25 335.75Q212.0 330.5 202.0 322.5Q171.5 298.5 145.25 280.5Q119.0 262.5 98.5 252.5Q83.0 244.0 77.75 239.25Q72.5 234.5 70.5 227.0Q70.0 225.5 70.0 223.5Q70.0 221.5 70.0 219.5Q70.0 215.5 70.5 211.5Q71.0 207.5 72.0 205.0Q76.0 195.0 77.25 182.75Q78.5 170.5 78.5 159.5Q78.5 153.5 73.5 153.5Q68.0 153.5 60.0 159.5Q52.0 165.5 44.0 174.75Q36.0 184.0 29.75 194.25Q23.5 204.5 21.0 213.0V212.5Q19.5 224.5 13.5 224.5Q10.0 224.5 10.0 218.0Q10.0 217.0 10.0 215.5Q10.0 214.0 10.5 212.0Q11.5 208.0 13.25 188.5Q15.0 169.0 15.5 146.0Q17.5 88.0 22.5 88.0Q25.0 88.0 28.0 103.5Q31.0 119.5 41.25 130.0Q51.5 140.5 65.5 142.5L80.0 144.5V117.0Q80.0 88.0 85.0 88.0Q88.0 88.0 91.0 103.0Q94.0 120.0 110.5 131.75Q127.0 143.5 149.0 143.5H158.5V115.5Q158.5 104.0 157.25 91.75Q156.0 79.5 155.0 74.0Q153.0 66.5 147.0 59.0Q141.0 51.5 134.0 46.75Q127.0 42.0 121.5 42.0Q115.0 42.0 115.0 38.0V37.0Q116.0 35.5 124.5 34.75Q133.0 34.0 146.0 34.0Q150.5 34.0 155.5 34.0Q160.5 34.0 165.5 34.5Q173.0 34.5 180.25 34.75Q187.5 35.0 193.5 35.0H218.5Q223.5 35.0 223.5 40.5Q223.5 42.0 220.75 43.75Q218.0 45.5 213.5 45.5Q204.5 45.5 186.0 64.0L167.5 82.0V143.5H225.0V109.5Q225.0 72.5 231.5 72.5Q235.0 72.5 238.5 83.0Q242.5 93.0 258.5 97.75Q274.5 102.5 312.0 104.5L356.0 107.0V97.0Q356.0 71.5 337.5 61.5Q333.0 58.5 329.5 55.5Q326.0 52.5 326.0 51.0Q326.0 49.5 331.0 48.75Q336.0 48.0 344.0 48.0Q349.0 48.0 354.25 48.25Q359.5 48.5 365.5 48.5Q381.5 49.0 393.75 49.5Q406.0 50.0 408.0 50.0Q412.5 50.0 412.5 54.0Q412.5 54.5 411.5 56.5Q410.5 57.5 407.25 59.0Q404.0 60.5 400.5 60.5Q396.0 60.5 387.5 67.75Q379.0 75.0 372.25 84.0Q365.5 93.0 365.5 98.5V106.5L451.0 104.0L450.0 87.5Q448.5 64.5 443.5 51.0Q438.5 37.5 428.5 28.0Q423.0 23.0 419.25 18.25Q415.5 13.5 415.5 12.5Z" fill="black" /></svg>