<svg xmlns="http://www.w3.org/2000/svg" width="249.0" height="388.5" viewBox="0 0 249.0 388.5"><path d="M59.0 222.0 70.5 213.5Q67.0 211.0 63.5 208.75Q60.0 206.5 56.0 204.5L41.0 194.0L43.5 211.0Q46.0 229.5 46.0 229.5Q47.0 228.5 51.0 226.5Q55.0 224.5 59.0 222.0ZM141.5 257.5Q140.0 256.0 130.0 255.0Q120.0 254.0 109.25 253.5Q98.5 253.0 94.5 253.0Q95.0 253.5 95.75 254.5Q96.5 255.5 97.5 257.0Q99.0 259.0 101.0 262.25Q103.0 265.5 105.0 269.5V269.0Q115.5 285.0 121.0 285.0Q122.0 285.0 122.0 283.5Q122.0 278.0 133.5 267.5Q136.0 263.5 138.5 260.75Q141.0 258.0 141.5 257.5ZM186.0 184.0V166.5Q186.0 159.5 185.5 153.75Q185.0 148.0 184.0 148.0Q181.0 148.0 181.0 153.0Q181.0 160.5 175.0 160.5Q172.0 160.5 167.25 163.25Q162.5 166.0 157.5 169.5L148.5 177.0ZM120.5 30.5V29.0Q120.5 30.0 113.0 29.0Q104.5 27.0 94.0 27.0Q86.5 27.0 86.5 29.5Q86.5 32.5 94.5 42.0L102.0 51.0L111.0 40.0Q114.5 36.0 117.5 33.25Q120.5 30.5 120.5 30.5ZM109.0 125.5Q102.5 121.5 97.75 118.25Q93.0 115.0 92.0 115.0Q91.5 115.0 90.0 120.5Q88.5 126.0 87.5 132.5Q86.5 139.0 86.5 142.5Q86.5 142.5 87.25 142.75Q88.0 143.0 88.5 143.0Q92.0 143.0 95.5 141.0Q99.0 140.0 103.25 139.5Q107.5 139.0 111.5 139.0Q114.0 139.0 115.75 139.0Q117.5 139.0 119.0 139.5Q121.5 140.0 123.5 140.25Q125.5 140.5 127.0 140.5Q127.5 140.5 127.5 140.5Q127.5 140.5 128.0 140.5Q127.0 139.0 109.0 125.5ZM68.5 243.0Q68.5 241.0 75.5 241.0Q80.0 241.0 87.25 241.5Q94.5 242.0 103.5 243.0Q117.5 244.0 134.75 245.0Q152.0 246.0 163.0 246.0Q174.0 246.0 181.75 247.25Q189.5 248.5 189.5 249.5Q189.5 252.0 181.75 255.5Q174.0 259.0 164.0 263.0Q148.0 268.5 140.0 275.75Q132.0 283.0 129.0 296.75Q126.0 310.5 124.5 337.0Q124.0 354.0 122.0 366.25Q120.0 378.5 118.5 378.5Q116.5 378.5 115.0 366.75Q113.5 355.0 113.5 339.0Q113.5 321.5 113.0 312.5Q112.5 303.5 110.0 297.25Q107.5 291.0 101.5 283.0Q97.0 275.5 90.25 267.75Q83.5 260.0 79.0 256.5Q74.5 252.0 71.5 248.5Q68.5 245.0 68.5 243.0ZM60.0 13.0Q60.0 10.0 65.0 10.0Q67.5 10.0 72.5 11.0Q76.5 12.5 91.25 13.75Q106.0 15.0 122.0 16.0Q137.5 17.0 149.25 19.0Q161.0 21.0 161.0 23.0Q161.0 25.0 155.25 28.25Q149.5 31.5 142.5 33.5Q125.5 39.5 118.0 50.75Q110.5 62.0 108.0 86.0L106.0 111.5L135.5 130.0Q147.0 137.5 154.0 141.5Q161.0 145.5 166.0 145.5Q171.5 145.5 177.5 140.5Q183.5 135.5 193.5 125.0Q199.5 118.5 205.25 114.5Q211.0 110.5 213.0 110.5H214.0Q215.0 111.5 215.0 113.0Q215.0 115.5 212.25 122.25Q209.5 129.0 205.5 137.0Q194.0 156.5 194.0 165.5Q194.0 167.0 194.25 168.25Q194.5 169.5 195.0 171.0Q196.0 177.5 201.75 188.0Q207.5 198.5 215.25 209.0Q223.0 219.5 229.5 226.0Q233.5 229.0 236.25 233.25Q239.0 237.5 239.0 240.5Q239.0 243.0 237.0 243.0Q235.0 243.0 228.0 237.0Q221.0 231.0 211.5 221.0Q199.0 208.0 190.75 201.25Q182.5 194.5 172.75 192.0Q163.0 189.5 145.0 189.5Q142.0 189.5 139.5 189.75Q137.0 190.0 135.0 190.0Q133.0 190.5 131.0 190.5Q129.0 190.5 128.0 190.5Q122.5 190.5 122.5 187.0Q122.5 182.5 138.5 169.5Q150.5 160.5 150.5 158.0Q150.5 155.5 141.5 153.5Q132.5 151.5 122.0 150.25Q111.5 149.0 106.5 149.0Q101.0 149.0 97.75 150.5Q94.5 152.0 90.5 156.0Q86.5 159.5 82.75 162.0Q79.0 164.5 78.0 164.5Q74.0 164.5 69.0 178.0Q65.0 186.0 64.0 191.5Q64.5 196.5 70.25 200.5Q76.0 204.5 89.5 211.0Q98.0 215.0 103.5 218.5Q109.0 222.0 109.0 224.5L108.5 225.5Q108.0 226.0 103.75 226.25Q99.5 226.5 94.0 226.5H85.5Q76.5 226.5 72.0 227.0Q67.5 227.5 63.75 230.25Q60.0 233.0 53.5 240.0H54.0Q48.5 246.5 41.0 259.0Q33.5 271.5 28.5 281.5Q23.5 292.0 19.25 299.5Q15.0 307.0 12.5 307.0H12.0Q10.0 306.5 10.0 303.5Q10.0 299.5 13.25 290.5Q16.5 281.5 21.0 271.5Q27.5 258.5 30.0 251.25Q32.5 244.0 32.5 240.0Q32.5 237.0 31.0 235.5Q28.0 231.5 28.0 228.0Q28.0 225.5 30.0 223.0Q32.0 221.0 32.0 214.5Q32.0 207.5 30.0 198.75Q28.0 190.0 25.0 185.0Q24.0 183.0 24.0 180.5Q24.0 176.0 29.0 176.0Q34.0 176.0 39.0 179.5Q46.0 186.5 51.5 186.5Q54.0 186.5 58.5 177.75Q63.0 169.0 67.75 156.5Q72.5 144.0 75.75 132.75Q79.0 121.5 79.0 116.5Q79.0 115.0 79.0 113.0Q79.0 111.0 78.5 109.5Q78.0 106.0 78.0 103.25Q78.0 100.5 78.0 98.5Q78.0 92.0 80.5 92.0Q83.5 92.0 91.0 99.5Q95.0 102.5 96.0 102.5Q97.0 102.5 97.0 87.5Q97.0 69.5 92.5 59.0Q88.0 48.5 75.0 34.5Q69.0 27.5 64.5 21.5Q60.0 15.5 60.0 13.0Z" fill="black" /></svg>