<svg xmlns="http://www.w3.org/2000/svg" width="581.0" height="453.0" viewBox="0 0 581.0 453.0"><path d="M67.5 197.0Q58.0 192.5 49.75 189.0Q41.5 185.5 39.0 185.5Q38.0 185.5 36.5 192.5Q35.0 199.5 33.5 210.0Q32.0 220.5 31.0 231.25Q30.0 242.0 30.0 249.0Q30.0 254.5 30.5 256.0Q31.0 256.0 38.75 253.75Q46.5 251.5 57.25 248.5Q68.0 245.5 78.75 242.5Q89.5 239.5 96.75 237.5Q104.0 235.5 104.0 235.5Q107.5 234.5 112.75 233.25Q118.0 232.0 123.0 231.0Q132.0 230.0 132.0 231.0Q132.0 230.0 131.75 226.5Q131.5 223.0 130.0 219.5Q129.0 218.5 126.75 218.0Q124.5 217.5 122.5 217.0Q119.0 216.0 116.0 215.0Q113.0 214.0 109.5 213.5Q108.0 212.0 106.0 211.5Q104.0 211.0 101.5 210.5Q93.5 207.5 84.0 204.0Q74.5 200.5 67.5 197.0ZM162.0 224.5Q161.0 224.0 158.0 223.0Q156.5 222.5 155.25 222.5Q154.0 222.5 153.0 222.0V225.0Q153.0 226.5 154.0 226.5Q156.5 226.5 162.0 224.5ZM312.0 257.0 348.5 228.5H266.5V258.0Q266.5 269.0 267.0 278.0Q267.5 287.0 268.0 287.0Q270.0 287.0 282.75 277.5Q295.5 268.0 312.0 257.0ZM352.5 301.5 353.5 271.5V242.0Q347.0 248.5 339.0 255.25Q331.0 262.0 323.0 267.5Q310.5 277.5 300.5 285.75Q290.5 294.0 288.0 296.0Q290.5 297.0 299.0 297.75Q307.5 298.5 318.5 299.5ZM161.0 83.5 171.0 69.5H101.5Q110.0 83.5 116.75 97.75Q123.5 112.0 129.0 127.5L134.5 146.5L142.0 125.5Q145.0 115.0 150.5 103.0Q156.0 91.0 161.0 83.5ZM245.5 201.5Q245.5 193.5 241.75 177.25Q238.0 161.0 232.0 141.5Q226.0 122.0 219.25 104.0Q212.5 86.0 206.75 74.5Q201.0 63.0 197.5 63.0Q194.5 63.0 187.25 72.0Q180.0 81.0 172.25 94.0Q164.5 107.0 159.0 120.0Q155.5 128.5 153.0 144.25Q150.5 160.0 150.5 174.5Q150.5 177.5 150.5 180.75Q150.5 184.0 150.0 188.0Q150.0 191.5 149.75 194.5Q149.5 197.5 149.5 200.0Q149.5 204.5 150.5 206.5Q151.5 207.5 161.25 208.25Q171.0 209.0 184.25 209.75Q197.5 210.5 209.75 210.75Q222.0 211.0 228.0 211.0H242.5Q245.5 210.0 245.5 201.5ZM278.0 83.5 288.0 69.5H218.5Q221.0 76.0 224.0 81.0Q227.0 86.0 229.0 92.5Q234.5 103.0 239.0 115.5Q243.5 128.0 245.5 135.0Q249.0 143.5 250.0 143.5Q251.5 143.5 257.5 125.5Q261.5 115.0 267.25 103.0Q273.0 91.0 278.0 83.5ZM532.5 49.5 546.0 26.5H505.0Q482.0 26.5 474.0 27.5Q466.0 28.5 466.0 31.0Q466.0 33.5 469.75 41.5Q473.5 49.5 475.0 50.5Q477.0 53.5 482.25 66.5Q487.5 79.5 492.5 94.5L502.5 127.5L509.0 103.0Q512.5 92.0 519.25 76.0Q526.0 60.0 532.5 49.5ZM441.5 13.0Q441.5 11.5 450.25 10.75Q459.0 10.0 473.0 10.0Q486.5 10.0 503.0 10.25Q519.5 10.5 534.75 11.25Q550.0 12.0 560.0 12.5Q570.0 13.0 571.0 14.0V15.5Q571.0 23.0 555.0 44.5Q517.0 95.5 517.0 173.0V213.5H535.0Q543.0 213.5 548.75 215.25Q554.5 217.0 554.5 221.5Q554.5 223.5 548.75 226.0Q543.0 228.5 535.0 228.5H517.0V334.5Q517.0 386.0 515.0 414.5Q513.0 443.0 510.0 443.0Q506.5 443.0 504.75 414.5Q503.0 386.0 503.0 334.5V228.5H377.5L370.5 251.0Q368.5 259.0 367.5 266.25Q366.5 273.5 366.5 279.5Q366.5 281.5 366.5 283.75Q366.5 286.0 367.0 287.0Q368.5 290.0 376.25 299.25Q384.0 308.5 396.0 321.25Q408.0 334.0 422.0 347.5Q442.5 366.0 455.75 381.25Q469.0 396.5 469.0 401.5L468.5 402.5H467.0Q464.0 402.5 450.25 392.0Q436.5 381.5 419.0 366.0Q400.5 348.5 387.5 338.25Q374.5 328.0 363.0 323.0Q351.5 318.0 338.0 316.25Q324.5 314.5 305.0 314.5H266.5V361.5Q266.5 384.0 264.25 398.5Q262.0 413.0 258.5 413.0Q255.5 413.0 253.75 399.5Q252.0 386.0 252.0 365.0Q252.0 357.5 251.25 346.0Q250.5 334.5 249.75 325.75Q249.0 317.0 249.0 317.0Q248.5 316.5 248.25 316.0Q248.0 315.5 248.0 315.5Q243.0 313.5 243.0 308.0Q243.0 303.0 248.5 298.5V298.0Q248.5 294.0 248.25 292.5Q248.0 291.0 248.0 289.0V259.0L245.5 228.5L229.5 230.0Q229.0 230.0 226.25 230.0Q223.5 230.0 220.5 230.5Q212.0 231.0 201.5 232.25Q191.0 233.5 181.5 235.5L150.5 241.5V325.5Q150.5 366.0 148.25 389.5Q146.0 413.0 143.0 413.0Q139.5 413.0 137.5 390.0Q135.5 367.0 135.5 329.0Q135.5 307.0 135.0 289.0Q134.5 271.0 133.75 260.0Q133.0 249.0 133.0 249.0Q128.0 249.5 108.75 252.75Q89.5 256.0 65.0 265.0Q46.0 271.0 31.5 275.0Q17.0 279.0 13.0 279.0Q11.5 279.0 11.5 278.5V279.0Q10.0 278.0 10.0 275.5Q10.0 272.5 11.25 266.0Q12.5 259.5 14.0 251.5Q16.5 245.0 18.0 233.5Q19.5 222.0 19.5 210.5Q19.5 206.5 19.0 202.5Q18.5 198.5 18.5 195.0Q18.0 188.0 17.75 181.5Q17.5 175.0 17.5 170.0Q17.5 157.5 20.0 157.5Q20.5 157.5 32.5 163.0Q44.5 168.5 60.5 177.0Q88.0 190.5 106.5 195.75Q125.0 201.0 129.0 202.0Q128.5 193.5 124.0 176.0Q119.5 158.5 113.25 138.75Q107.0 119.0 101.25 103.0Q95.5 87.0 92.5 81.5Q88.0 71.5 84.25 63.25Q80.5 55.0 80.5 54.0Q80.5 52.0 101.0 51.75Q121.5 51.5 150.0 51.5Q159.0 51.5 169.5 52.0Q180.0 52.5 191.0 52.5Q213.0 53.0 233.25 53.25Q253.5 53.5 267.0 53.5L318.5 54.0L300.5 77.0Q283.5 99.5 275.0 123.75Q266.5 148.0 266.5 178.5V213.5H315.0Q323.5 213.5 335.25 213.25Q347.0 213.0 356.0 212.75Q365.0 212.5 365.0 212.5Q366.0 211.5 369.5 209.5Q373.0 207.5 374.5 207.0H374.0Q375.0 207.0 375.75 206.75Q376.5 206.5 377.0 206.5Q378.0 206.5 379.0 207.25Q380.0 208.0 380.5 208.5L379.5 207.5Q379.5 207.5 379.75 207.75Q380.0 208.0 380.5 209.0Q380.5 209.5 380.75 210.0Q381.0 210.5 381.0 211.5H395.0Q395.0 211.5 401.25 211.75Q407.5 212.0 416.5 212.5Q425.5 213.0 434.5 213.25Q443.5 213.5 449.0 213.5Q473.5 213.5 484.75 212.5Q496.0 211.5 499.5 209.25Q503.0 207.0 503.0 203.5Q503.0 195.5 498.75 177.25Q494.5 159.0 488.0 136.5Q481.5 114.0 473.75 92.5Q466.0 71.0 459.0 57.0L457.0 50.5Q450.5 36.0 446.0 25.5Q441.5 15.0 441.5 13.0Z" fill="black" /></svg>