<svg xmlns="http://www.w3.org/2000/svg" width="856.5" height="460.0" viewBox="0 0 856.5 460.0"><path d="M92.0 296.5Q82.0 296.5 72.25 293.75Q62.5 291.0 53.0 287.5L36.0 280.0L38.5 301.5Q40.5 320.0 42.75 328.25Q45.0 336.5 48.5 336.5Q51.0 336.5 58.0 331.0Q65.0 325.5 72.75 318.0Q80.5 310.5 86.25 304.25Q92.0 298.0 92.0 296.5ZM104.5 156.0Q99.0 152.5 91.25 144.0Q83.5 135.5 76.5 126.5Q66.5 109.0 64.0 109.0Q62.5 109.0 60.5 114.5Q59.5 117.0 57.75 122.0Q56.0 127.0 53.5 132.5Q53.0 136.5 51.25 140.25Q49.5 144.0 48.5 147.5L42.0 164.0L57.0 160.0Q69.0 158.0 80.75 157.0Q92.5 156.0 104.5 156.0ZM485.0 234.0 500.0 228.5 478.5 215.5Q471.0 210.0 463.75 206.75Q456.5 203.5 453.0 203.5Q451.5 205.5 451.0 213.25Q450.5 221.0 450.5 231.0Q450.5 241.5 452.25 248.0Q454.0 254.5 456.5 254.5Q459.5 254.5 462.0 249.0Q469.0 242.0 485.0 234.0ZM744.0 236.0Q746.5 228.0 751.0 216.75Q755.5 205.5 761.25 194.75Q767.0 184.0 773.0 178.0Q769.0 180.5 761.25 186.0Q753.5 191.5 741.0 200.5L701.0 230.0L720.5 234.0Q726.5 236.0 731.0 236.75Q735.5 237.5 739.0 237.5Q744.0 237.5 744.0 236.0ZM269.5 105.5H296.0Q294.5 103.0 289.75 94.75Q285.0 86.5 279.5 76.75Q274.0 67.0 270.0 59.5Q266.0 52.0 266.0 51.0V51.5Q266.0 51.5 262.25 59.0Q258.5 66.5 253.75 76.75Q249.0 87.0 245.25 95.25Q241.5 103.5 241.5 104.5Q241.5 104.5 249.75 104.5Q258.0 104.5 269.5 105.5ZM546.5 107.5Q549.0 101.0 549.0 98.5Q549.0 95.0 541.0 95.0Q533.5 95.0 533.5 96.5Q533.5 98.0 535.5 104.25Q537.5 110.5 539.5 116.5Q541.5 122.5 542.0 123.5Q542.5 122.5 543.75 119.0Q545.0 115.5 546.5 107.5ZM583.5 212.0 579.0 169.5Q578.0 152.0 575.5 134.75Q573.0 117.5 570.5 111.0Q567.5 103.0 566.5 103.0Q566.5 103.0 565.25 106.5Q564.0 110.0 561.0 117.0Q558.5 125.5 556.0 143.0Q553.5 160.5 551.5 175.5L548.0 212.0ZM599.0 92.5V92.0Q599.0 91.0 596.0 89.75Q593.0 88.5 589.0 88.5Q580.0 88.5 580.0 89.0Q580.0 93.5 585.5 107.5Q590.0 118.5 590.5 118.5Q590.5 118.5 591.5 116.75Q592.5 115.0 593.5 111.5Q596.5 107.0 597.75 101.25Q599.0 95.5 599.0 92.5ZM644.5 212.0 641.0 172.5Q639.0 156.5 635.5 136.25Q632.0 116.0 628.5 104.5L622.0 83.0Q613.0 104.0 607.75 127.0Q602.5 150.0 601.0 172.5L596.5 212.0ZM648.0 111.0Q649.0 111.0 651.25 105.25Q653.5 99.5 655.5 92.75Q657.5 86.0 657.5 83.5Q657.5 82.0 649.5 82.0Q641.0 82.0 641.0 88.5Q641.0 91.5 642.25 95.75Q643.5 100.0 645.5 105.5Q646.0 107.5 647.0 109.25Q648.0 111.0 648.0 111.0ZM280.5 355.0Q278.5 356.5 274.5 356.5Q269.5 356.5 263.75 355.5Q258.0 354.5 252.5 353.0Q243.0 349.5 237.0 348.5Q240.5 360.5 246.25 374.75Q252.0 389.0 257.0 400.5Q258.0 404.5 259.5 404.5Q262.0 404.5 273.0 383.5L275.5 379.0Q280.5 367.5 283.75 361.5Q287.0 355.5 287.5 353.5Q286.0 353.5 284.5 354.25Q283.0 355.0 280.5 355.0ZM358.5 289.0Q389.0 267.5 404.75 258.0Q420.5 248.5 426.5 248.5Q432.0 248.5 432.0 255.5Q432.0 258.5 414.75 271.25Q397.5 284.0 372.5 300.0Q350.0 315.5 334.5 329.0Q319.0 342.5 308.0 356.25Q297.0 370.0 288.5 386.25Q280.0 402.5 272.0 424.5Q262.5 450.0 256.5 450.0Q250.0 450.0 250.0 436.0Q250.0 432.0 243.75 414.0Q237.5 396.0 228.5 374.5Q220.5 354.5 215.25 338.75Q210.0 323.0 210.0 320.0V317.0Q211.5 317.0 220.75 320.0Q230.0 323.0 239.5 328.5Q246.5 333.0 253.5 334.75Q260.5 336.5 267.5 336.5Q282.5 336.5 302.25 325.75Q322.0 315.0 358.5 289.0ZM48.5 98.5Q52.0 87.0 55.75 78.75Q59.5 70.5 61.5 70.5Q63.5 70.5 69.5 79.75Q75.5 89.0 82.0 101.0Q89.5 115.0 97.75 124.75Q106.0 134.5 120.5 143.0Q135.0 151.5 159.75 161.75Q184.5 172.0 225.0 186.5Q250.0 195.5 270.5 204.25Q291.0 213.0 303.25 219.5Q315.5 226.0 315.5 228.0Q315.5 232.5 310.25 233.25Q305.0 234.0 302.5 234.0H297.0Q294.5 234.0 291.5 234.25Q288.5 234.5 287.5 236.0V235.0Q286.0 237.0 275.0 241.25Q264.0 245.5 246.75 251.0Q229.5 256.5 210.0 263.0Q154.5 281.5 119.25 303.25Q84.0 325.0 60.5 355.0Q54.5 363.5 48.0 369.75Q41.5 376.0 39.5 376.0Q38.5 376.0 35.75 365.5Q33.0 355.0 29.75 338.75Q26.5 322.5 23.25 305.25Q20.0 288.0 18.0 274.0Q16.0 260.0 16.0 254.5Q16.0 250.5 17.5 249.0Q17.5 249.0 26.25 253.25Q35.0 257.5 45.5 263.5Q56.5 269.5 68.75 274.25Q81.0 279.0 88.0 279.0Q92.5 279.0 107.75 275.25Q123.0 271.5 144.5 265.75Q166.0 260.0 188.75 253.25Q211.5 246.5 231.25 240.25Q251.0 234.0 262.75 229.75Q274.5 225.5 273.5 224.5Q273.5 224.0 255.5 217.0Q237.5 210.0 212.0 201.0Q180.5 188.0 152.5 181.75Q124.5 175.5 97.0 175.5Q83.0 175.5 69.0 177.75Q55.0 180.0 39.5 182.5L10.0 187.5L27.5 153.5Q32.5 142.0 38.75 125.5Q45.0 109.0 48.5 98.5ZM240.5 65.0Q252.5 42.5 261.25 26.25Q270.0 10.0 272.0 10.0Q274.0 10.0 277.25 17.25Q280.5 24.5 281.5 36.0V35.5Q285.5 55.0 294.5 70.0Q303.5 85.0 322.75 100.25Q342.0 115.5 375.5 136.5Q403.0 153.0 417.5 160.5Q432.0 168.0 437.0 168.0Q437.5 168.0 438.75 167.75Q440.0 167.5 440.0 167.0Q442.5 156.0 447.5 156.0Q456.0 156.0 458.0 169.5Q462.0 180.0 473.5 189.75Q485.0 199.5 498.5 205.75Q512.0 212.0 522.0 212.0Q526.5 212.0 529.5 210.0Q532.5 208.0 533.5 206.5Q533.5 178.5 528.5 150.5Q523.5 122.5 517.5 95.0Q517.0 92.5 516.75 91.5Q516.5 90.5 515.5 89.0Q515.5 87.5 514.5 85.0Q513.5 82.5 513.5 81.0Q513.5 74.0 522.25 72.5Q531.0 71.0 557.5 71.0H587.0Q599.0 71.0 608.75 70.0Q618.5 69.0 620.0 67.0Q622.5 65.0 629.5 63.75Q636.5 62.5 644.5 62.5H651.0Q665.5 63.0 671.5 65.25Q677.5 67.5 677.5 76.0Q677.5 80.5 675.25 88.25Q673.0 96.0 669.0 108.0Q664.5 118.0 661.5 136.75Q658.5 155.5 658.5 172.5Q658.5 190.0 659.25 198.25Q660.0 206.5 662.75 209.0Q665.5 211.5 670.5 213.0Q672.5 213.5 674.5 213.75Q676.5 214.0 678.0 214.0Q688.0 214.0 695.0 210.5Q703.5 206.5 719.75 195.5Q736.0 184.5 755.0 170.5Q774.0 156.5 790.75 143.25Q807.5 130.0 816.5 121.5Q825.5 111.5 832.5 107.5Q839.5 103.5 843.0 103.5Q846.5 103.5 846.5 108.0Q846.5 111.5 843.75 117.25Q841.0 123.0 834.0 131.5Q761.0 220.5 761.0 239.0Q761.0 242.5 766.0 242.5Q771.0 242.5 771.0 250.5Q771.0 251.5 770.5 253.75Q770.0 256.0 770.0 257.5V259.5Q770.0 267.5 792.0 285.0Q804.5 294.5 815.75 307.75Q827.0 321.0 834.25 332.75Q841.5 344.5 841.5 350.0Q841.5 351.5 840.75 352.75Q840.0 354.0 839.0 355.0Q839.0 355.0 838.25 355.75Q837.5 356.5 836.5 356.5Q830.0 356.5 822.0 344.0Q817.0 336.0 804.5 323.0Q792.0 310.0 777.0 296.25Q762.0 282.5 748.75 271.5Q735.5 260.5 728.0 256.0Q721.0 253.0 708.0 249.5Q695.0 246.0 684.5 243.5L658.5 240.5V290.5Q658.5 315.0 656.25 330.25Q654.0 345.5 650.5 345.5Q647.0 345.5 645.0 328.5Q643.0 311.5 643.0 284.0V228.5L601.0 232.0L599.0 288.5Q597.0 351.5 589.0 351.5Q586.5 351.5 584.0 335.0Q581.5 318.5 581.5 287.0V228.5L551.5 232.0L550.0 292.0Q547.0 357.0 540.0 357.0Q537.5 357.0 535.25 341.25Q533.0 325.5 533.0 294.5Q533.0 266.5 531.75 250.75Q530.5 235.0 528.5 235.0Q524.0 235.0 514.25 239.25Q504.5 243.5 493.0 249.75Q481.5 256.0 471.0 263.0Q460.5 270.0 454.0 276.0Q441.0 289.0 434.5 289.0H432.5Q432.0 288.0 431.25 285.25Q430.5 282.5 430.5 279.0Q430.5 272.0 431.5 261.75Q432.5 251.5 434.0 240.5L434.5 232.0Q435.0 225.0 435.75 219.75Q436.5 214.5 436.5 211.0Q436.5 201.0 432.0 194.5Q427.5 188.0 415.5 180.25Q403.5 172.5 380.0 159.0L370.5 155.0Q342.0 138.0 316.0 129.0Q290.0 120.0 269.0 120.0Q254.0 120.0 243.5 124.0Q238.5 126.0 233.25 126.5Q228.0 127.0 225.5 127.0Q220.0 127.0 217.5 125.0V123.5Q217.5 119.5 224.25 102.5Q231.0 85.5 240.5 65.0ZM658.5 230.0H661.5Z" fill="black" /></svg>