<svg xmlns="http://www.w3.org/2000/svg" width="521.0" height="387.5" viewBox="0 0 521.0 387.5"><path d="M37.5 289.5Q31.0 285.5 28.5 285.5Q25.5 285.5 25.5 293.0Q25.5 300.0 29.0 300.0Q32.0 300.0 37.5 296.5Q40.5 293.5 40.5 293.0Q40.5 292.5 37.5 289.5ZM36.0 129.5Q32.5 124.5 29.0 124.5Q25.5 124.5 25.5 131.5Q25.5 134.0 26.75 136.5Q28.0 139.0 30.5 139.0Q39.0 139.0 39.0 135.0Q39.0 132.5 36.0 129.5ZM39.5 191.0V190.0H39.0Q37.0 185.5 32.0 185.5Q30.0 185.5 27.75 187.5Q25.5 189.5 25.5 192.5Q25.5 199.5 28.0 199.5Q31.0 199.5 36.5 195.5Q39.5 193.5 39.5 191.0ZM37.5 237.5Q31.0 233.5 28.5 233.5Q25.5 233.5 25.5 241.0Q25.5 247.5 28.5 247.5Q30.0 247.5 32.5 246.25Q35.0 245.0 37.5 243.5Q40.5 240.5 40.5 240.5Q40.5 240.5 37.5 237.5ZM141.0 246.0H114.0Q103.0 246.0 93.0 245.5Q83.0 245.0 79.5 244.5Q79.0 244.0 76.5 244.0Q70.5 244.0 60.5 247.25Q50.5 250.5 38.5 257.5L25.5 264.5L34.5 272.5Q41.5 278.5 55.5 281.25Q69.5 284.0 84.75 284.75Q100.0 285.5 109.5 285.5Q129.0 285.5 135.0 280.5Q141.0 275.5 141.0 262.0ZM153.5 307.5Q148.5 303.5 146.5 303.5Q143.5 303.5 143.5 317.5Q143.5 326.5 144.0 335.75Q144.5 345.0 146.5 354.5Q152.0 354.5 161.0 349.5V350.0Q166.5 345.5 175.25 341.25Q184.0 337.0 191.0 335.0L204.5 331.0Q199.0 329.0 188.0 324.75Q177.0 320.5 167.0 315.75Q157.0 311.0 153.5 307.5ZM139.5 232.5 140.0 213.0 141.5 194.0 104.0 195.0Q64.5 195.0 48.0 203.0Q29.5 210.5 29.5 217.5Q29.5 224.0 46.75 228.25Q64.0 232.5 96.0 232.5ZM303.5 269.0Q290.0 264.5 286.0 264.5Q283.5 264.5 283.0 267.0Q282.5 269.5 282.5 275.5Q282.5 285.5 285.5 285.5Q287.5 285.5 289.0 284.5Q292.0 283.5 297.0 282.25Q302.0 281.0 306.5 280.0L309.0 279.5Q319.5 277.0 319.5 275.5Q319.5 273.5 303.5 269.0ZM311.0 227.5Q307.0 226.5 301.25 224.75Q295.5 223.0 291.5 222.0Q288.0 220.5 285.5 220.5Q282.5 220.5 282.5 232.0Q282.5 243.0 285.5 243.0Q288.0 243.0 291.5 241.5Q293.0 241.0 294.5 240.5Q296.0 240.0 297.5 239.5Q301.5 238.5 305.0 237.25Q308.5 236.0 311.5 235.5Q315.0 234.5 317.5 233.5Q320.0 232.5 320.0 232.0Q320.0 230.0 311.0 227.5ZM368.5 251.5Q368.5 241.5 366.5 239.75Q364.5 238.0 357.5 238.0Q352.0 238.0 345.25 239.5Q338.5 241.0 333.0 242.5Q328.5 243.5 323.0 244.75Q317.5 246.0 312.5 247.0L307.0 248.5Q296.0 251.0 296.0 253.5Q296.0 256.0 304.75 258.75Q313.5 261.5 326.0 263.25Q338.5 265.0 349.0 265.0Q363.5 265.0 366.0 263.25Q368.5 261.5 368.5 251.5ZM366.0 223.5V210.0Q366.0 204.5 365.0 200.75Q364.0 197.0 362.5 196.5H361.0Q357.0 196.5 348.25 198.25Q339.5 200.0 329.25 202.25Q319.0 204.5 311.25 206.75Q303.5 209.0 302.0 210.5H302.5L301.5 211.5Q301.5 215.0 313.0 218.0Q324.5 221.0 342.5 222.0ZM157.5 81.0Q157.0 79.5 150.25 78.75Q143.5 78.0 136.5 78.0Q131.5 78.0 127.75 78.5Q124.0 79.0 124.0 80.0H123.5Q123.5 82.0 126.25 88.0Q129.0 94.0 132.5 102.5L141.0 121.5L149.0 103.5Q152.5 95.5 155.0 89.25Q157.5 83.0 157.5 81.0ZM184.0 124.0Q183.5 124.0 182.0 116.25Q180.5 108.5 179.5 97.0L178.0 76.0L154.0 111.0L152.5 204.0L152.0 295.5Q155.5 297.0 164.25 301.25Q173.0 305.5 176.5 307.0Q186.0 311.5 192.75 314.0Q199.5 316.5 208.75 318.0Q218.0 319.5 235.5 319.75Q253.0 320.0 283.5 320.0H366.0L367.5 300.5Q367.5 297.0 367.75 294.25Q368.0 291.5 368.0 289.5Q368.0 283.5 366.0 282.25Q364.0 281.0 357.5 281.0Q352.0 281.0 339.5 283.5Q327.0 286.0 314.0 290.0L307.5 291.5Q296.5 294.5 288.0 296.75Q279.5 299.0 277.5 299.0Q275.5 299.0 274.0 274.75Q272.5 250.5 272.5 205.5Q272.5 166.5 272.75 146.75Q273.0 127.0 274.5 120.0Q276.0 113.0 279.0 113.0Q279.5 113.0 280.25 113.25Q281.0 113.5 281.5 113.5H281.0Q282.5 114.0 287.0 115.5Q291.5 117.0 297.0 119.5Q305.5 123.0 312.5 125.0Q324.0 129.5 334.5 131.75Q345.0 134.0 352.5 134.0Q362.0 134.0 363.0 130.5V130.0Q363.0 128.5 360.75 120.5Q358.5 112.5 355.5 103.5L348.5 83.5H304.0Q268.5 84.0 245.75 90.25Q223.0 96.5 201.0 113.0Q188.5 124.0 184.0 124.0ZM319.5 192.0 308.0 187.5Q293.5 182.0 287.5 181.0Q282.5 182.0 282.5 186.5Q282.5 187.5 282.75 188.75Q283.0 190.0 283.0 191.0Q284.0 196.0 285.5 198.5Q287.0 201.0 291.0 201.0Q297.5 201.0 311.5 195.0ZM200.5 62.5H201.0Q197.5 59.0 195.5 59.0Q191.0 59.0 191.0 82.0Q191.0 90.0 191.75 96.0Q192.5 102.0 193.5 102.5Q194.5 101.5 200.5 99.0Q206.5 96.5 214.5 93.0L236.5 82.5L222.5 76.0Q220.5 75.0 218.5 73.5Q216.5 72.0 214.5 71.5Q209.5 68.5 205.75 66.25Q202.0 64.0 200.5 62.5ZM320.0 141.5 311.5 138.5Q301.5 134.5 295.5 132.25Q289.5 130.0 286.5 130.0Q282.5 130.0 282.5 140.0Q282.5 151.5 290.0 151.5Q296.0 151.5 309.5 146.0ZM366.0 180.0V164.0Q366.0 148.5 360.5 147.5H359.5Q355.5 147.5 344.5 149.75Q333.5 152.0 320.75 155.25Q308.0 158.5 298.25 161.0Q288.5 163.5 287.0 164.5Q287.5 167.0 296.5 170.5Q305.5 174.0 318.0 176.75Q330.5 179.5 341.0 180.0ZM394.5 28.5H368.5Q345.0 28.5 345.0 31.0V31.5Q353.5 62.0 360.5 79.25Q367.5 96.5 371.0 96.5Q373.0 96.5 373.0 86.5Q373.0 82.5 376.0 72.5Q379.0 62.5 383.5 53.0Q388.0 43.0 391.25 36.0Q394.5 29.0 394.5 28.5ZM327.0 12.5V13.0Q328.5 10.0 332.0 10.0Q335.5 10.0 339.5 12.0Q342.0 13.5 354.25 15.0Q366.5 16.5 380.0 16.5Q393.5 16.5 403.5 17.25Q413.5 18.0 413.5 20.0Q413.5 21.5 410.5 27.0Q407.5 32.5 403.0 39.5Q393.5 55.0 386.0 77.0Q378.5 99.0 378.5 116.5V134.5H425.0Q444.0 134.5 463.5 136.0Q483.0 137.5 491.5 138.5Q498.0 139.5 498.0 141.5Q498.0 143.0 485.25 144.25Q472.5 145.5 444.5 146.0H378.5V182.0H443.0Q474.0 182.0 492.25 184.0Q510.5 186.0 510.5 188.0Q510.5 191.0 492.25 192.5Q474.0 194.0 443.0 194.0H378.5L381.0 223.5L445.5 226.0Q502.5 228.0 502.5 233.0Q502.5 238.0 436.5 238.0H378.5L380.0 252.0L381.0 267.5L445.5 269.5Q461.5 270.0 478.0 270.25Q494.5 270.5 511.0 271.0V274.0L445.5 277.0L381.0 278.5V299.5Q381.0 313.5 383.0 317.25Q385.0 321.0 391.5 322.5L395.5 324.0Q400.5 325.5 400.5 327.0Q400.5 328.5 397.5 328.5H392.0Q381.5 329.5 380.0 337.0Q377.5 346.5 372.5 346.5Q368.5 346.5 368.5 339.0Q368.5 336.5 363.5 335.5Q358.5 334.5 343.75 334.0Q329.0 333.5 300.0 333.5Q271.0 333.5 254.25 334.25Q237.5 335.0 227.25 336.75Q217.0 338.5 206.5 342.5Q183.5 350.5 165.75 359.0Q148.0 367.5 145.0 373.0Q142.0 377.5 140.0 377.5Q134.0 377.5 134.0 339.0Q134.0 323.0 132.75 311.25Q131.5 299.5 129.5 297.5H130.0Q125.0 294.0 108.5 294.0Q93.0 294.0 73.0 297.5Q53.0 301.0 42.0 306.5Q34.0 310.5 26.25 313.25Q18.5 316.0 16.0 316.0Q13.5 316.0 11.75 305.25Q10.0 294.5 10.0 267.0Q10.0 261.5 10.25 255.0Q10.5 248.5 10.5 241.0Q11.0 198.0 12.75 181.5Q14.5 165.0 21.0 165.0Q26.0 165.0 37.0 174.5Q42.0 177.5 47.25 179.0Q52.5 180.5 63.0 181.25Q73.5 182.0 93.0 182.0Q121.0 182.0 130.75 180.5Q140.5 179.0 140.5 171.0Q140.5 168.0 139.75 164.25Q139.0 160.5 138.0 155.5L134.5 140.0H96.0Q71.5 140.0 60.5 141.75Q49.5 143.5 39.0 149.0Q31.0 153.0 24.5 156.0Q18.0 159.0 16.0 159.0Q14.5 159.0 13.25 151.0Q12.0 143.0 12.0 131.5Q12.0 119.5 13.0 111.75Q14.0 104.0 16.0 104.0Q18.0 104.0 23.75 107.0Q29.5 110.0 36.0 114.5Q43.0 119.0 48.75 121.5Q54.5 124.0 64.0 124.75Q73.5 125.5 90.5 125.5Q110.5 125.5 118.75 124.75Q127.0 124.0 127.0 119.0Q127.0 116.0 124.5 110.5Q122.0 105.0 117.0 96.0Q107.5 78.5 107.5 71.5Q107.5 65.5 114.0 65.5Q119.5 65.5 127.0 67.0H165.0Q174.5 65.0 177.25 63.0Q180.0 61.0 180.0 55.5V51.0Q180.0 48.5 179.75 46.25Q179.5 44.0 179.5 42.0Q179.5 32.0 183.5 32.0Q187.5 32.0 199.0 44.0Q205.5 50.0 213.5 56.0Q221.5 62.0 225.5 64.5Q230.0 67.0 245.0 69.0Q260.0 71.0 279.25 72.0Q298.5 73.0 314.5 73.0Q327.0 73.0 335.0 72.5Q343.0 72.0 343.5 70.5Q344.0 70.5 344.0 69.0Q344.0 63.5 339.5 50.0Q335.0 36.5 328.5 26.0Q326.0 22.0 326.0 17.0Q326.0 14.5 327.0 12.5Z" fill="black" /></svg>