<svg xmlns="http://www.w3.org/2000/svg" width="667.5" height="379.5" viewBox="0 0 667.5 379.5"><path d="M92.0 255.5Q90.0 245.0 85.0 244.0Q80.5 244.0 72.5 250.5Q62.0 260.0 62.0 261.5Q62.0 264.0 78.0 264.0Q93.0 264.0 93.0 259.5Q93.0 258.5 92.0 255.5ZM78.0 226.5 77.5 227.0Q78.0 227.0 78.0 226.75Q78.0 226.5 78.0 226.5ZM132.0 187.0Q132.0 184.0 129.5 184.0Q125.0 184.0 119.25 189.5Q113.5 195.0 113.5 199.5Q113.5 206.5 125.5 206.5Q136.0 206.5 136.0 203.5Q136.0 202.0 135.0 200.5L134.5 198.5Q132.0 190.0 132.0 187.0ZM196.5 248.0Q168.0 235.0 145.75 227.75Q123.5 220.5 111.0 220.5Q104.5 220.5 102.0 222.5Q99.5 224.5 99.5 231.5Q99.5 239.5 102.25 249.25Q105.0 259.0 110.0 265.0Q111.5 267.0 124.0 274.0Q136.5 281.0 154.25 290.25Q172.0 299.5 190.0 308.25Q208.0 317.0 221.75 323.25Q235.5 329.5 239.0 330.0Q239.0 329.0 239.25 326.75Q239.5 324.5 240.0 322.0Q240.5 318.0 241.25 312.25Q242.0 306.5 243.0 300.5L246.0 271.5Q242.0 269.5 231.75 264.75Q221.5 260.0 211.25 255.0Q201.0 250.0 196.5 248.0ZM238.5 330.5V331.0Q238.5 331.0 238.5 331.0Q238.5 331.0 238.5 330.5ZM264.5 333.0Q262.5 328.5 257.5 328.5Q253.0 328.5 253.0 332.5Q253.0 336.0 260.5 336.0Q265.0 336.0 265.0 334.5Q265.0 333.5 264.5 333.0ZM270.0 261.0V260.5Q268.5 256.5 265.0 256.5Q263.5 256.5 263.5 260.0Q263.5 264.0 268.5 264.0Q270.5 264.0 270.5 262.0Q270.5 262.0 270.5 261.75Q270.5 261.5 270.0 261.0ZM422.5 326.5Q410.5 319.0 406.5 319.0Q403.0 319.0 403.0 328.0Q403.0 335.5 407.0 335.5Q409.5 335.5 414.0 334.0Q419.0 333.0 423.75 332.0Q428.5 331.0 431.0 331.0Q430.0 330.0 427.75 329.0Q425.5 328.0 422.5 326.5ZM173.5 141.0Q173.5 138.0 171.0 136.0Q168.5 134.0 166.0 134.0Q164.0 134.0 163.0 134.5Q160.5 137.0 160.5 140.0Q160.5 144.0 166.5 144.0Q173.5 144.0 173.5 141.0ZM215.5 178.5Q173.0 158.0 157.5 158.0Q151.0 158.0 148.0 161.5Q146.5 162.5 145.75 166.75Q145.0 171.0 144.5 176.0Q145.0 183.0 146.25 190.5Q147.5 198.0 150.0 203.0V202.5Q151.5 205.0 160.75 211.25Q170.0 217.5 183.5 225.5Q197.0 233.5 211.0 240.75Q225.0 248.0 235.5 252.75Q246.0 257.5 249.0 257.5L249.5 256.5Q250.0 253.0 251.5 245.0Q253.0 237.0 253.5 227.5L257.0 198.5Q253.5 196.5 245.0 192.5Q236.5 188.5 227.75 184.25Q219.0 180.0 215.5 178.5ZM272.0 205.0Q272.0 204.5 271.0 204.5Q269.0 204.5 269.0 205.0Q269.0 206.5 271.0 206.5Q272.0 206.5 272.0 205.0ZM405.5 245.0V236.0Q405.0 221.0 401.75 216.25Q398.5 211.5 381.0 211.5Q368.5 211.5 355.75 212.0Q343.0 212.5 330.5 213.5Q303.5 214.5 290.75 216.5Q278.0 218.5 273.0 224.0Q264.5 231.0 264.5 234.0Q264.5 239.0 280.5 248.0Q287.0 252.0 294.5 254.5Q302.0 257.0 314.75 257.75Q327.5 258.5 349.5 258.5Q401.0 258.5 401.0 265.0V266.5Q399.0 269.0 380.5 270.25Q362.0 271.5 336.5 271.5Q307.0 272.0 295.0 272.5Q283.0 273.0 283.0 274.5Q283.0 275.0 284.5 276.5Q291.5 281.0 291.5 286.0Q291.5 290.0 286.5 290.0Q283.0 290.0 277.0 287.0Q273.5 285.0 269.5 285.0Q263.5 285.0 259.25 289.5Q255.0 294.0 254.5 299.5Q254.5 310.5 263.25 316.75Q272.0 323.0 284.75 326.0Q297.5 329.0 309.75 329.5Q322.0 330.0 329.5 330.0H342.5L394.0 328.5L392.5 309.0V305.5Q392.5 297.0 394.25 290.75Q396.0 284.5 399.5 282.5V283.0Q403.0 280.5 404.5 274.5Q406.0 268.5 406.0 257.0Q406.0 254.5 405.75 251.5Q405.5 248.5 405.5 245.0ZM438.5 261.5Q431.5 256.5 425.5 256.5Q419.0 256.5 419.0 263.0Q419.0 267.5 423.0 267.5Q425.0 267.5 425.5 267.0Q430.0 266.0 434.25 265.0Q438.5 264.0 440.5 264.0H442.0Q442.0 264.0 441.0 263.0Q440.0 262.0 438.5 261.5ZM434.0 202.0 443.0 199.0 434.0 194.5Q428.5 191.0 425.5 191.0Q422.0 191.0 420.75 195.25Q419.5 199.5 419.5 202.0Q419.5 205.0 423.0 205.0Q427.5 205.0 434.0 202.0ZM227.0 70.5Q228.0 67.5 228.0 66.5Q228.0 65.0 226.5 65.0Q223.5 65.0 218.0 71.0Q212.5 75.0 212.5 79.5Q212.5 80.0 214.0 80.0Q217.0 80.0 221.25 77.0Q225.5 74.0 227.0 70.5ZM251.0 108.5Q238.5 101.0 231.0 97.5Q223.5 94.0 218.0 94.0Q210.5 94.0 202.0 98.25Q193.5 102.5 187.5 109.5Q181.5 116.5 181.5 124.5Q181.5 131.0 186.0 140.0Q187.5 143.0 196.75 149.5Q206.0 156.0 218.0 163.25Q230.0 170.5 240.25 175.5Q250.5 180.5 254.0 180.5Q256.0 177.5 259.0 167.75Q262.0 158.0 264.5 147.0Q267.0 136.0 267.0 130.5Q267.0 118.0 251.0 108.5ZM286.5 132.0Q286.5 131.5 283.0 131.5Q282.5 131.5 281.5 131.75Q280.5 132.0 280.5 132.0L281.0 132.5H280.5Q281.5 133.0 283.0 133.0Q285.5 133.0 286.5 132.0ZM455.5 134.0Q455.5 131.5 448.25 127.0Q441.0 122.5 438.5 122.5Q434.5 122.5 434.5 133.0Q434.5 141.5 438.5 141.5Q441.0 141.5 448.25 138.75Q455.5 136.0 455.5 134.0ZM246.0 15.5Q246.0 10.0 255.0 10.0Q260.0 10.0 260.0 14.0Q260.0 17.5 253.0 31.5Q247.5 42.0 243.25 54.25Q239.0 66.5 239.0 78.0Q239.0 85.0 247.25 91.25Q255.5 97.5 262.0 97.5Q265.0 97.5 265.5 94.5Q268.5 87.5 272.0 87.5Q277.5 87.5 281.5 100.5Q285.5 116.5 304.25 122.75Q323.0 129.0 366.5 129.0Q390.5 129.0 403.5 130.5Q416.5 132.0 416.5 135.0V135.5Q414.5 139.0 396.75 140.5Q379.0 142.0 352.5 142.0Q324.5 142.0 311.5 142.75Q298.5 143.5 293.0 146.0Q287.5 148.5 281.0 155.0Q270.5 166.0 270.5 173.5Q270.5 184.5 289.0 192.5Q298.0 197.0 308.5 199.0Q319.0 201.0 339.0 201.0Q343.0 201.0 348.0 200.75Q353.0 200.5 358.5 200.5L409.5 198.5L408.0 181.0Q407.5 178.5 407.5 176.25Q407.5 174.0 407.5 172.0Q407.5 160.0 415.5 160.0Q419.5 160.0 420.75 152.75Q422.0 145.5 422.0 123.5V83.0L436.0 99.5Q443.5 109.0 452.5 114.75Q461.5 120.5 475.75 123.5Q490.0 126.5 513.0 127.75Q536.0 129.0 571.0 129.0Q595.5 129.0 615.0 129.75Q634.5 130.5 646.0 131.75Q657.5 133.0 657.5 135.0Q657.5 136.5 644.25 138.25Q631.0 140.0 608.75 141.25Q586.5 142.5 559.5 143.5Q522.0 144.0 498.5 145.25Q475.0 146.5 461.75 149.0Q448.5 151.5 442.0 156.25Q435.5 161.0 431.0 168.5Q427.5 173.5 427.5 175.0Q427.5 177.0 431.0 179.25Q434.5 181.5 443.0 185.5Q450.0 188.5 462.25 190.5Q474.5 192.5 496.0 193.75Q517.5 195.0 552.5 196.0Q588.5 197.0 612.75 199.5Q637.0 202.0 637.0 204.0L636.0 205.0Q634.0 206.0 619.0 207.5Q604.0 209.0 581.0 209.75Q558.0 210.5 531.5 210.5Q478.5 211.5 455.0 213.25Q431.5 215.0 427.5 219.5Q420.0 225.5 420.0 230.5Q420.0 238.0 438.5 246.0Q446.5 250.0 457.25 252.25Q468.0 254.5 488.75 255.5Q509.5 256.5 546.5 257.0Q571.0 257.5 591.5 258.75Q612.0 260.0 624.25 261.75Q636.5 263.5 636.5 265.5Q636.5 267.0 623.25 268.5Q610.0 270.0 588.0 271.0Q566.0 272.0 539.0 273.0Q507.0 273.5 487.0 274.0Q467.0 274.5 455.25 275.75Q443.5 277.0 437.0 279.0Q430.5 281.0 425.0 285.0Q418.5 288.5 414.25 292.25Q410.0 296.0 410.0 298.5Q411.0 300.5 417.75 305.0Q424.5 309.5 434.0 313.5Q442.0 318.0 449.25 320.25Q456.5 322.5 466.75 323.75Q477.0 325.0 494.75 325.25Q512.5 325.5 541.5 325.5Q581.5 325.5 602.5 327.0Q623.5 328.5 623.5 332.5V333.0Q622.0 335.5 597.25 337.25Q572.5 339.0 533.0 339.0Q467.5 339.0 438.0 343.0Q408.5 347.0 404.5 357.0Q401.5 364.5 397.5 364.5Q391.0 364.5 391.0 352.5Q391.0 347.5 387.5 346.0Q384.0 344.5 366.5 344.5Q359.5 344.5 350.0 344.5Q340.5 344.5 327.5 345.0Q297.0 345.5 282.5 346.5Q268.0 347.5 263.0 350.0Q258.0 352.5 254.5 358.0Q246.0 369.5 241.0 369.5Q237.5 369.5 237.5 364.5Q237.5 363.0 237.75 361.5Q238.0 360.0 238.5 358.0Q239.0 357.0 239.0 355.5Q239.0 352.0 233.5 347.75Q228.0 343.5 213.25 335.75Q198.5 328.0 171.0 314.5Q142.5 300.0 126.0 292.75Q109.5 285.5 99.0 283.0Q88.5 280.5 77.5 280.5H71.5Q59.5 280.5 46.75 281.5Q34.0 282.5 27.0 284.0H27.5Q23.5 285.0 19.25 286.25Q15.0 287.5 11.0 288.5L10.0 286.0L29.5 271.0Q31.5 269.5 38.25 263.5Q45.0 257.5 53.25 250.25Q61.5 243.0 68.5 236.5Q75.5 230.0 77.5 227.5Q76.5 227.5 74.75 227.5Q73.0 227.5 70.5 228.5Q69.0 229.0 67.0 229.0Q64.0 229.0 64.0 226.0Q64.0 221.5 87.5 201.0Q97.5 191.0 110.5 177.0Q123.5 163.0 135.5 148.75Q147.5 134.5 155.5 124.25Q163.5 114.0 163.5 111.5Q163.5 110.0 175.75 96.0Q188.0 82.0 205.5 64.0Q221.5 46.0 233.75 31.75Q246.0 17.5 246.0 15.5Z" fill="black" /></svg>