<svg xmlns="http://www.w3.org/2000/svg" width="801.5" height="385.0" viewBox="0 0 801.5 385.0"><path d="M35.5 251.0Q30.0 247.0 28.0 247.0Q25.0 247.0 25.0 258.0V268.0L32.5 261.0Q38.5 254.0 38.5 253.0Q38.5 251.5 35.5 251.0ZM292.0 281.5V280.5Q287.5 276.0 284.5 276.0Q279.5 276.0 279.5 306.0V332.5L289.0 323.5Q293.5 319.0 302.25 312.75Q311.0 306.5 318.0 302.0L330.0 295.5L316.0 291.0Q308.0 288.5 301.25 285.75Q294.5 283.0 292.0 281.5ZM43.0 145.0 40.0 143.5V143.0Q34.0 139.5 32.5 139.5Q29.5 139.5 29.5 150.5V160.0L37.0 153.5Q43.0 146.5 43.0 145.0ZM191.5 242.0Q195.5 242.0 199.25 237.25Q203.0 232.5 206.0 226.5Q209.0 220.5 209.5 217.0Q206.0 218.5 201.0 222.5Q196.0 226.5 192.25 230.75Q188.5 235.0 188.5 237.5Q188.5 242.0 191.5 242.0ZM200.5 134.0Q205.0 134.0 208.75 129.5Q212.5 125.0 214.75 119.0Q217.0 113.0 217.0 109.5Q214.5 109.5 209.25 113.5Q204.0 117.5 199.75 122.5Q195.5 127.5 194.5 130.5Q197.0 134.0 200.5 134.0ZM314.5 54.5H315.0Q308.0 53.0 300.0 50.5Q292.0 48.0 289.0 46.5Q288.5 45.5 286.0 45.5Q284.0 45.5 283.5 50.0Q283.0 54.5 283.0 68.0V91.0L293.5 83.0Q299.0 79.5 307.5 75.0Q316.0 70.5 322.5 68.0Q333.5 63.5 333.5 62.0Q333.5 59.5 314.5 54.5ZM352.5 125.0Q353.0 123.5 353.5 121.75Q354.0 120.0 354.5 118.5Q355.5 115.5 355.5 114.0Q352.5 117.0 345.0 122.0Q340.0 126.0 336.0 129.0Q332.0 132.0 331.0 133.0Q332.0 133.5 334.25 134.25Q336.5 135.0 341.0 136.5Q342.0 137.0 345.0 137.0Q349.0 137.0 352.5 125.0ZM385.0 218.0Q392.0 218.0 394.75 209.75Q397.5 201.5 397.5 196.0Q393.5 197.5 382.0 207.0L371.5 216.0L379.0 217.5Q381.0 217.5 382.5 217.75Q384.0 218.0 385.0 218.0ZM427.5 128.0Q433.0 128.0 435.5 120.0Q438.0 112.0 438.5 106.0Q436.5 107.5 433.0 110.25Q429.5 113.0 425.0 116.0Q419.5 121.0 417.0 123.5Q414.5 126.0 414.0 126.5Q414.5 126.5 416.25 126.5Q418.0 126.5 420.0 127.5Q422.5 128.0 424.0 128.0Q425.5 128.0 427.5 128.0ZM478.0 206.0Q479.5 200.5 480.25 198.25Q481.0 196.0 481.0 196.0Q477.5 198.0 471.25 202.25Q465.0 206.5 460.25 210.25Q455.5 214.0 455.5 215.0Q455.5 215.5 464.5 217.5Q467.5 218.0 470.0 218.5Q472.5 219.0 474.5 219.0Q475.0 217.0 475.75 213.5Q476.5 210.0 478.0 206.0ZM573.0 88.5Q573.0 87.0 564.0 87.0Q557.0 87.0 557.0 90.0Q557.0 90.5 557.25 91.5Q557.5 92.5 557.5 93.0Q560.5 100.5 561.0 100.5Q564.0 100.5 568.5 96.0Q573.0 91.5 573.0 88.5ZM618.5 170.5Q617.0 169.5 615.5 168.0Q614.0 166.5 612.0 164.5Q610.0 164.0 609.0 163.25Q608.0 162.5 607.5 162.5Q606.5 162.5 606.5 171.0V181.0Q607.5 181.0 609.0 179.5Q610.5 178.0 612.5 176.5Q614.5 174.5 616.0 173.0Q617.5 171.5 618.5 170.5ZM638.0 137.0Q638.0 135.0 635.5 135.0Q631.5 135.0 629.5 138.0V138.5Q629.5 138.5 630.5 139.0Q631.5 139.5 632.5 139.5Q638.0 139.5 638.0 137.0ZM655.5 155.5H656.5Q644.0 152.5 633.5 152.5Q629.0 152.5 625.5 153.25Q622.0 154.0 621.5 155.0L620.5 155.5Q622.0 159.5 635.5 159.5Q638.5 159.5 642.0 159.0Q645.5 158.5 649.0 158.0Q652.5 157.0 654.75 156.75Q657.0 156.5 658.5 156.0Q656.5 156.0 655.5 155.5ZM689.0 80.0Q689.0 80.0 687.0 79.5Q685.0 79.0 682.5 79.0Q675.5 79.0 675.5 82.0Q675.5 84.0 678.0 90.0Q678.5 92.0 679.0 93.0Q679.5 94.0 679.5 94.0Q681.0 94.0 683.0 89.5Q685.5 86.5 687.25 83.75Q689.0 81.0 689.0 80.0ZM267.5 289.5Q267.5 239.0 274.0 239.0Q278.0 239.0 283.0 252.5Q287.0 264.0 304.5 272.5Q310.0 275.0 316.0 276.5Q322.0 278.0 333.75 279.0Q345.5 280.0 367.0 280.5Q388.5 281.0 424.0 281.25Q459.5 281.5 513.5 281.5Q607.5 281.5 656.5 282.75Q705.5 284.0 705.5 287.0Q705.5 290.5 661.75 292.25Q618.0 294.0 534.5 294.0H365.5Q358.5 297.5 351.25 301.5Q344.0 305.5 336.5 309.5Q309.0 322.0 292.5 336.5Q276.0 351.0 272.5 364.0Q269.5 375.0 267.5 375.0Q266.0 375.0 262.5 368.5V369.0Q260.0 364.0 260.0 359.5Q260.0 354.0 263.0 348.0Q265.0 344.0 266.25 327.0Q267.5 310.0 267.5 289.5ZM272.0 33.0Q272.0 22.5 274.0 16.25Q276.0 10.0 278.5 10.0Q282.0 10.0 285.5 22.0Q286.5 30.5 303.0 38.0Q307.0 40.0 312.5 41.5Q318.0 43.0 328.5 43.75Q339.0 44.5 358.0 45.0Q377.0 45.5 408.0 45.5Q430.5 45.5 460.25 45.5Q490.0 45.5 528.5 45.0H619.0Q683.0 45.0 711.25 46.25Q739.5 47.5 739.5 50.0Q739.5 53.5 709.25 55.5Q679.0 57.5 612.5 57.5H487.0L480.0 68.5V68.0Q476.5 73.5 471.0 82.5Q465.5 91.5 460.0 100.0Q454.0 109.0 450.25 116.0Q446.5 123.0 446.5 127.5Q446.5 130.5 450.5 130.5Q454.0 130.5 454.0 135.0Q454.0 135.5 453.75 136.5Q453.5 137.5 453.5 138.5Q453.5 141.5 461.0 143.0Q466.5 145.0 473.25 148.75Q480.0 152.5 484.5 157.0V156.5Q496.0 164.0 499.0 164.0Q501.5 164.0 509.0 156.5Q513.0 151.0 516.5 149.25Q520.0 147.5 522.0 147.5Q525.5 147.5 525.5 152.0Q525.5 157.5 517.5 168.5Q491.5 197.5 491.5 213.0Q491.5 221.0 498.25 227.0Q505.0 233.0 519.0 240.5Q529.5 247.0 537.25 253.25Q545.0 259.5 545.5 263.5Q546.5 265.0 546.5 266.5Q546.5 268.0 546.5 268.5Q546.5 272.5 544.0 272.5Q542.0 272.5 536.5 266.5Q528.0 259.5 511.75 251.5Q495.5 243.5 478.0 237.5Q460.5 231.5 446.5 230.5L413.5 227.0L445.0 205.5Q469.0 188.5 477.5 182.75Q486.0 177.0 486.0 174.0Q486.0 172.0 480.5 168.5Q475.0 165.0 467.5 161.25Q460.0 157.5 453.5 155.0Q447.0 152.5 445.0 152.5L444.5 152.0Q442.5 154.0 435.75 163.5Q429.0 173.0 421.75 184.5Q414.5 196.0 409.0 205.0Q403.5 214.0 403.5 215.0Q403.5 216.5 406.5 216.5Q412.5 216.5 412.5 225.5Q412.5 230.5 423.5 234.5Q431.0 237.0 440.5 243.5Q450.0 250.0 457.0 256.75Q464.0 263.5 464.0 266.5Q464.0 270.0 461.0 270.0Q458.0 270.0 450.5 264.0Q430.0 250.0 407.25 241.25Q384.5 232.5 364.0 230.5L329.0 227.0L354.5 211.5Q362.5 206.0 372.5 199.25Q382.5 192.5 388.5 187.5L400.5 178.0L376.0 165.5Q362.0 157.5 349.0 153.75Q336.0 150.0 322.0 149.0L290.0 146.0L327.5 119.0Q341.0 109.0 355.5 98.25Q370.0 87.5 376.0 81.5Q382.5 74.5 388.0 70.0Q393.5 65.5 395.5 65.5Q400.0 65.5 400.0 71.5Q399.5 75.5 397.5 80.0Q395.5 84.5 391.5 87.0Q389.0 90.0 383.75 97.25Q378.5 104.5 374.0 112.0Q369.5 118.0 367.5 123.25Q365.5 128.5 365.5 132.5Q365.5 140.5 372.0 146.5Q378.5 152.5 391.5 159.5L412.5 169.5L424.5 156.5Q428.5 153.0 431.25 149.75Q434.0 146.5 434.5 144.5Q432.0 144.0 424.25 142.5Q416.5 141.0 406.5 140.0L373.0 136.5L397.5 120.0Q409.0 113.0 422.0 103.25Q435.0 93.5 447.0 84.0Q459.0 74.5 466.5 67.5Q474.0 60.5 474.0 59.5Q474.0 58.5 465.25 58.0Q456.5 57.5 443.0 57.5Q429.5 57.5 414.0 58.5Q398.5 59.5 385.0 61.25Q371.5 63.0 364.0 65.5Q327.5 78.0 304.75 92.0Q282.0 106.0 276.5 120.0L270.5 135.5L266.0 120.5Q265.5 119.0 265.0 116.75Q264.5 114.5 264.5 112.5Q264.5 106.5 267.5 104.5Q269.0 102.0 270.5 96.0Q272.0 90.0 272.0 83.5V70.0L265.5 76.0Q260.0 80.5 250.0 91.5Q240.0 102.5 232.25 114.5Q224.5 126.5 224.5 134.0Q224.5 140.0 230.75 146.75Q237.0 153.5 245.0 158.25Q253.0 163.0 258.5 163.0H260.0Q264.0 163.0 269.0 173.5Q270.5 177.0 271.5 180.0Q272.5 183.0 272.5 185.5Q272.5 190.5 269.0 190.5Q268.0 190.5 266.5 189.75Q265.0 189.0 262.5 187.0Q260.5 185.5 258.5 185.5Q256.0 185.5 248.75 193.0Q241.5 200.5 223.5 221.0Q219.0 225.5 217.25 230.0Q215.5 234.5 215.5 239.0Q215.5 253.0 237.0 265.5Q244.0 270.0 251.5 275.5Q259.0 281.0 261.5 284.5H261.0Q265.5 287.5 265.5 292.5Q265.5 297.0 261.5 297.0Q259.5 297.0 256.5 295.5Q253.5 294.0 249.5 290.0Q233.5 275.5 211.0 265.5Q188.5 255.5 171.0 255.5Q161.0 255.5 154.0 253.75Q147.0 252.0 147.0 248.5Q147.0 248.0 128.5 248.0Q123.5 248.0 117.0 248.0Q110.5 248.0 102.5 248.5Q80.5 250.0 70.25 251.25Q60.0 252.5 55.75 255.25Q51.5 258.0 46.0 264.0Q41.0 269.5 35.25 278.75Q29.5 288.0 26.5 295.5Q17.5 314.5 13.0 314.5Q10.0 314.5 10.0 309.0Q10.0 307.0 10.25 304.5Q10.5 302.0 11.0 299.0Q12.0 294.0 12.5 279.0Q13.0 264.0 13.0 248.5Q13.0 229.0 15.0 218.25Q17.0 207.5 20.0 207.5Q23.5 207.5 26.5 222.0Q27.5 227.0 30.25 231.75Q33.0 236.5 36.5 237.5Q37.5 238.5 43.25 238.75Q49.0 239.0 57.0 239.0Q66.0 239.0 77.5 238.5Q89.0 238.0 103.0 237.5L163.5 233.5L197.0 210.5Q226.0 190.5 235.25 183.25Q244.5 176.0 245.0 174.0Q245.0 174.0 243.5 172.5Q242.0 169.5 234.75 165.25Q227.5 161.0 217.5 156.75Q207.5 152.5 197.75 149.5Q188.0 146.5 181.5 146.0Q174.0 146.0 166.0 144.5Q158.0 143.0 155.0 141.5Q153.5 140.5 147.0 140.0Q140.5 139.5 130.5 139.5Q125.5 139.5 119.25 139.75Q113.0 140.0 107.0 140.0Q87.5 141.0 78.25 142.0Q69.0 143.0 63.75 146.0Q58.5 149.0 51.0 156.5Q45.5 162.5 40.0 171.5Q34.5 180.5 32.0 187.5Q29.0 194.5 26.0 199.5Q23.0 204.5 21.0 204.5Q19.0 204.0 18.25 193.25Q17.5 182.5 17.5 168.5Q17.5 154.0 18.0 138.75Q18.5 123.5 19.5 112.5Q20.5 101.5 22.0 100.0Q23.5 98.5 24.5 98.5Q28.0 99.5 32.0 109.0Q34.0 117.0 36.25 121.5Q38.5 126.0 44.5 127.75Q50.5 129.5 64.5 129.5Q79.5 129.5 107.0 128.0L172.5 125.0L203.5 103.5Q217.0 94.5 232.0 84.0Q247.0 73.5 254.0 68.0Q262.5 61.0 266.25 56.75Q270.0 52.5 271.0 47.25Q272.0 42.0 272.0 33.0ZM522.0 81.5Q522.0 78.0 534.75 76.25Q547.5 74.5 568.5 74.5Q612.5 74.5 612.5 81.5V83.0Q611.5 83.5 608.5 85.25Q605.5 87.0 603.0 87.0Q600.0 87.0 593.5 91.75Q587.0 96.5 580.0 103.0L563.5 120.0V190.0Q563.5 222.5 561.75 243.25Q560.0 264.0 558.5 266.5Q551.5 266.5 551.5 185.5Q551.5 143.5 550.0 122.25Q548.5 101.0 544.25 94.0Q540.0 87.0 531.5 87.0Q528.0 87.0 525.0 85.0Q522.0 83.0 522.0 81.5ZM642.5 73.0Q642.5 70.5 654.25 68.75Q666.0 67.0 681.5 67.0Q693.0 67.0 704.5 67.75Q716.0 68.5 724.0 69.75Q732.0 71.0 733.0 72.5L734.5 74.0Q734.5 79.0 725.5 79.0Q712.0 79.0 701.5 88.5Q691.0 98.0 685.25 111.25Q679.5 124.5 679.5 137.0Q679.5 147.5 684.0 152.5Q688.5 157.5 702.5 159.25Q716.5 161.0 745.0 161.0Q791.5 161.0 791.5 167.5Q791.5 173.5 771.5 173.5Q767.0 173.5 761.75 173.25Q756.5 173.0 749.5 172.5Q748.0 172.5 742.0 172.5Q736.0 172.5 728.75 172.25Q721.5 172.0 716.0 171.75Q710.5 171.5 710.0 171.5Q711.5 173.0 722.5 179.75Q733.5 186.5 748.0 195.0Q787.5 220.5 787.5 225.5Q787.5 229.0 782.0 229.0Q780.5 229.0 766.0 220.75Q751.5 212.5 733.0 201.0Q715.0 189.5 700.25 180.25Q685.5 171.0 684.0 170.5H683.0Q681.0 170.5 680.25 180.75Q679.5 191.0 679.5 216.0Q679.5 240.0 677.75 254.25Q676.0 268.5 673.5 268.5Q671.5 268.5 669.5 254.25Q667.5 240.0 667.5 216.5V169.0H654.0Q647.0 169.0 638.25 174.25Q629.5 179.5 621.25 187.0Q613.0 194.5 607.5 201.5Q602.0 208.5 602.0 212.0Q602.0 216.0 600.25 218.5Q598.5 221.0 597.0 221.0Q595.0 221.0 594.0 212.75Q593.0 204.5 593.0 192.0Q593.0 179.0 593.75 164.5Q594.5 150.0 595.5 139.25Q596.5 128.5 597.5 126.5H599.0Q602.5 126.5 605.0 135.5Q606.5 140.0 608.0 140.0Q611.0 140.0 622.0 127.5Q638.0 109.5 641.5 109.5Q645.5 109.5 645.5 120.5Q645.5 128.0 651.5 135.5Q657.5 143.0 664.0 143.0Q666.5 143.0 667.0 138.0Q667.5 133.0 667.5 120.5Q667.5 102.0 662.5 90.5Q657.5 79.0 649.5 79.0Q646.5 79.0 644.5 77.0Q642.5 75.0 642.5 73.0Z" fill="black" /></svg>