<svg xmlns="http://www.w3.org/2000/svg" width="715.0" height="303.0" viewBox="0 0 715.0 303.0"><path d="M25.0 101.5V170.0Q34.5 161.5 43.75 153.0Q53.0 144.5 61.5 136.0Q57.0 134.5 51.75 129.5Q46.5 124.5 41.5 119.5Q36.5 114.5 32.25 109.75Q28.0 105.0 25.0 101.5ZM276.0 234.5Q276.5 236.0 277.5 238.0L278.0 239.0Q280.5 239.0 287.0 234.0Q289.5 232.0 291.25 230.0Q293.0 228.0 294.5 227.0Q301.5 218.5 309.75 211.75Q318.0 205.0 327.0 198.5Q328.5 197.0 334.5 193.0Q335.5 192.0 336.5 191.0Q337.5 190.0 338.5 189.5Q339.5 188.5 339.5 188.0H338.0Q334.5 188.0 324.5 189.25Q314.5 190.5 304.0 192.5Q299.0 194.0 294.25 195.0Q289.5 196.0 285.5 197.5Q281.0 199.0 279.5 200.0Q278.0 201.5 278.0 202.5V203.0Q278.0 203.0 279.0 205.0Q279.5 206.0 280.25 207.25Q281.0 208.5 281.5 210.5Q282.5 213.0 283.75 216.0Q285.0 219.0 285.0 221.0Q285.0 223.5 284.5 224.5Q283.5 227.5 281.0 227.5Q279.5 227.5 279.0 227.0Q278.0 227.0 278.0 226.0Q277.5 226.0 277.25 225.75Q277.0 225.5 276.5 225.5H275.5V226.5Q275.5 227.5 275.5 229.75Q275.5 232.0 276.0 234.5ZM212.5 91.5 181.5 111.0Q182.0 111.5 182.75 111.5Q183.5 111.5 184.0 112.0Q188.0 113.0 189.0 113.0Q192.5 113.5 196.0 114.5Q199.5 115.5 203.0 116.5Q210.0 118.0 215.5 121.5Q217.0 118.0 221.0 110.0Q225.0 102.0 229.0 94.0Q231.5 89.0 233.5 84.25Q235.5 79.5 237.5 76.0Q238.0 75.0 238.25 74.0Q238.5 73.0 239.0 72.0Q235.5 75.0 228.5 79.5Q223.5 83.0 218.5 86.75Q213.5 90.5 212.5 91.5ZM461.0 133.0V140.0Q462.5 138.5 465.0 136.75Q467.5 135.0 469.5 133.5L472.5 130.5Q483.5 123.0 495.5 116.25Q507.5 109.5 519.0 103.0Q512.5 100.5 505.25 96.0Q498.0 91.5 491.0 86.5Q483.5 81.0 477.0 75.5Q470.5 70.0 465.0 66.0Q465.0 74.5 464.75 82.75Q464.5 91.0 464.0 99.5Q463.5 107.5 462.75 116.0Q462.0 124.5 461.0 133.0ZM12.5 201.5Q10.5 201.5 10.5 199.0V198.0Q10.0 196.5 10.0 194.5V189.0Q10.0 174.0 10.5 159.25Q11.0 144.5 11.5 130.0Q12.0 117.0 12.5 104.0Q13.0 91.0 15.0 78.5Q15.0 77.5 15.25 75.0Q15.5 72.5 15.5 70.0Q16.0 68.0 16.25 66.75Q16.5 65.5 17.0 64.5Q17.5 64.0 17.75 63.5Q18.0 63.0 18.5 62.5Q18.5 61.5 20.0 61.5Q22.0 61.5 22.5 62.0Q22.5 62.0 23.5 64.0Q24.5 64.5 24.5 65.75Q24.5 67.0 25.0 68.0Q26.0 70.0 26.5 72.25Q27.0 74.5 27.0 74.5Q29.0 82.0 38.25 93.25Q47.5 104.5 58.5 113.25Q69.5 122.0 77.5 122.0H152.0Q154.0 121.5 156.25 121.5Q158.5 121.5 160.0 121.5H161.0L158.0 120.0Q157.5 119.5 155.5 118.5Q155.0 117.5 154.5 117.0Q154.0 116.5 154.0 115.5Q154.0 114.0 155.25 112.75Q156.5 111.5 157.5 111.0Q158.5 109.5 160.25 108.5Q162.0 107.5 163.5 106.0Q167.5 103.5 170.75 101.75Q174.0 100.0 175.0 99.5Q184.5 93.5 199.25 83.75Q214.0 74.0 230.0 62.5Q246.0 51.0 259.5 40.25Q273.0 29.5 280.5 21.5Q281.0 20.5 283.75 17.75Q286.5 15.0 287.0 14.5Q289.0 13.0 291.5 11.5Q294.0 10.0 296.0 10.0Q299.0 10.0 300.0 12.25Q301.0 14.5 301.0 16.5Q301.0 18.5 297.75 23.5Q294.5 28.5 290.0 34.0Q283.0 41.5 273.0 53.0Q263.0 64.5 253.0 77.25Q243.0 90.0 236.5 102.5Q230.0 115.0 230.0 124.5Q230.0 130.0 234.0 130.0Q235.0 130.0 236.5 130.25Q238.0 130.5 238.0 133.0V135.0Q237.5 135.5 237.5 136.0Q237.5 136.5 237.0 137.0Q236.5 138.0 236.25 138.25Q236.0 138.5 236.0 139.5Q236.0 141.0 237.5 142.0Q238.0 142.5 239.0 142.5Q240.0 142.5 241.0 143.0H247.0Q248.5 144.5 248.5 145.0Q248.5 145.5 248.25 146.0Q248.0 146.5 248.0 146.5Q247.0 147.5 247.0 147.5Q247.0 147.5 245.5 149.0Q244.5 149.5 243.5 150.5Q246.0 153.5 248.5 156.5Q251.0 159.5 253.0 162.0Q255.5 165.0 258.0 167.5Q260.5 170.0 263.0 172.5Q268.5 176.5 275.0 179.0Q281.5 181.5 291.0 181.5Q304.5 181.5 326.0 176.5Q347.5 171.5 370.0 165.0Q392.5 158.0 413.0 151.5Q433.5 145.0 446.0 141.0Q447.5 138.0 448.75 128.0Q450.0 118.0 450.5 105.75Q451.0 93.5 451.25 82.75Q451.5 72.0 451.5 68.5Q451.5 60.0 452.25 52.25Q453.0 44.5 455.0 36.5L456.5 32.0Q457.5 31.5 458.25 31.0Q459.0 30.5 460.5 30.5Q462.0 30.5 463.5 32.0Q464.5 32.5 464.75 33.5Q465.0 34.5 465.5 35.5Q466.5 37.0 466.75 38.5Q467.0 40.0 467.5 41.0Q469.5 47.0 477.25 55.25Q485.0 63.5 490.0 68.5Q506.0 82.5 522.0 86.5Q538.0 90.5 558.0 91.5H584.0Q603.0 91.5 622.5 91.0Q642.0 90.5 661.5 90.5Q670.0 90.5 678.25 90.5Q686.5 90.5 694.5 91.0Q696.0 91.5 698.5 91.5Q701.5 91.5 703.0 92.0H703.5Q705.0 92.5 705.0 94.0Q705.0 96.5 701.0 99.5Q699.0 100.0 696.75 100.75Q694.5 101.5 692.0 102.0Q686.0 103.5 678.75 104.0Q671.5 104.5 664.0 105.0Q648.5 105.5 634.75 105.25Q621.0 105.0 618.5 105.0Q606.0 105.0 593.5 105.0Q581.0 105.0 568.5 106.0Q545.5 107.5 530.5 113.5Q515.5 119.5 497.0 132.5Q491.0 137.0 485.25 141.5Q479.5 146.0 474.0 150.5Q473.0 151.0 469.75 153.75Q466.5 156.5 463.0 159.0Q459.5 161.0 456.0 163.25Q452.5 165.5 450.0 165.5Q447.5 165.5 446.5 164.0Q446.0 163.5 446.0 162.0V160.0Q446.0 159.5 445.75 159.25Q445.5 159.0 445.5 159.0H445.0Q440.5 159.0 430.25 162.25Q420.0 165.5 410.0 169.5Q400.0 173.5 395.0 175.5Q380.5 181.5 362.75 191.5Q345.0 201.5 327.75 214.25Q310.5 227.0 298.25 241.75Q286.0 256.5 282.5 273.0Q282.5 273.5 282.0 276.75Q281.5 280.0 280.5 283.5Q280.0 285.0 279.75 286.5Q279.5 288.0 278.5 289.0Q278.0 289.5 278.0 290.25Q278.0 291.0 277.5 291.5Q277.0 293.0 275.0 293.0Q271.5 293.0 269.5 284.75Q267.5 276.5 266.5 267.25Q265.5 258.0 265.5 255.5Q264.5 246.0 262.0 231.75Q259.5 217.5 254.25 204.5Q249.0 191.5 240.0 187.5L237.0 186.0Q236.5 186.0 235.25 184.5Q234.0 183.0 234.0 182.5Q234.0 181.0 235.5 180.5Q236.5 179.5 237.0 179.5Q238.0 178.5 238.0 177.0Q238.0 171.5 232.75 165.75Q227.5 160.0 223.5 156.5Q221.0 155.0 217.0 151.25Q213.0 147.5 208.0 144.0Q203.5 140.0 199.5 137.5Q195.5 135.0 193.5 135.0H148.5Q135.5 135.0 125.25 135.0Q115.0 135.0 106.0 136.0Q97.0 137.0 88.0 140.25Q79.0 143.5 69.0 151.0Q60.0 156.5 48.5 166.5Q37.0 176.5 30.5 185.0Q29.5 185.5 27.25 188.25Q25.0 191.0 22.5 194.0Q21.0 195.0 19.75 196.25Q18.5 197.5 17.5 198.5Q17.0 199.0 15.25 200.25Q13.5 201.5 12.5 201.5Z" fill="black" /></svg>