<svg xmlns="http://www.w3.org/2000/svg" width="497.5" height="466.5" viewBox="0 0 497.5 466.5"><path d="M57.5 298.5Q51.0 295.5 44.75 288.5Q38.5 281.5 36.0 276.0V276.5L29.5 266.5V276.5Q29.5 282.0 28.75 294.5Q28.0 307.0 26.0 317.0L24.5 340.0Q30.5 336.0 35.75 332.25Q41.0 328.5 46.5 324.0Q57.0 317.0 64.25 311.5Q71.5 306.0 71.5 305.0Q71.5 305.0 67.25 303.0Q63.0 301.0 57.5 298.5ZM230.5 314.0Q224.0 305.5 217.5 293.75Q211.0 282.0 210.0 275.0L206.0 259.5Q203.5 262.0 196.25 269.0Q189.0 276.0 180.5 284.5Q172.0 293.0 165.5 300.25Q159.0 307.5 158.0 310.0Q161.0 311.0 173.0 314.0Q185.0 317.0 200.25 320.5Q215.5 324.0 228.0 326.75Q240.5 329.5 244.5 330.5Q243.0 328.5 239.25 324.25Q235.5 320.0 230.5 314.0ZM300.5 311.0H302.0Q306.0 311.0 306.0 308.0Q306.0 305.0 305.25 304.25Q304.5 303.5 302.0 303.0Q301.5 303.0 301.0 303.25Q300.5 303.5 300.0 303.5Q297.5 304.0 297.5 309.0Q297.5 310.0 298.75 310.5Q300.0 311.0 300.5 311.0ZM302.5 186.5Q308.0 186.5 308.0 180.5Q308.0 179.0 306.5 176.0H305.5Q303.5 176.0 300.5 177.5Q297.5 179.0 297.5 180.0Q297.5 182.0 299.0 184.25Q300.5 186.5 302.5 186.5ZM301.5 250.0Q307.0 246.5 308.0 243.5Q307.0 241.5 301.5 240.0Q300.5 240.5 299.0 242.0Q297.5 243.5 297.5 244.5L298.5 245.5Q299.0 247.5 301.5 250.0ZM374.5 157.0Q357.5 144.5 335.75 134.5Q314.0 124.5 291.0 118.5Q268.0 112.5 246.5 112.5Q246.0 113.5 245.5 127.5Q245.0 141.5 244.75 164.25Q244.5 187.0 244.5 214.5V311.5Q246.0 313.0 252.0 317.5Q258.0 322.0 265.0 327.5Q272.0 333.0 277.5 336.75Q283.0 340.5 284.0 340.5Q285.0 340.5 285.25 327.75Q285.5 315.0 285.75 293.0Q286.0 271.0 286.0 244.5Q286.0 217.0 286.75 194.5Q287.5 172.0 288.75 158.25Q290.0 144.5 291.0 144.5Q293.5 144.5 297.0 149.75Q300.5 155.0 305.0 162.0Q308.5 168.5 312.0 171.25Q315.5 174.0 325.0 174.5Q334.5 175.0 356.0 175.0Q376.0 175.0 390.25 176.5Q404.5 178.0 404.5 182.0Q404.5 184.0 391.75 185.75Q379.0 187.5 362.0 187.5Q346.5 187.5 331.5 189.5Q316.5 191.5 313.0 194.5Q300.0 200.5 300.0 212.0Q300.0 221.5 307.5 229.0Q312.0 233.0 316.75 235.0Q321.5 237.0 331.0 237.5Q340.5 238.0 358.5 238.0Q378.0 238.0 391.5 239.75Q405.0 241.5 405.0 244.5Q405.0 247.5 391.75 249.5Q378.5 251.5 360.5 251.5Q356.0 251.5 352.5 251.25Q349.0 251.0 345.5 251.0Q339.0 251.0 328.0 252.5Q317.0 254.0 308.0 258.75Q299.0 263.5 299.0 273.5Q299.0 283.0 305.75 288.75Q312.5 294.5 322.0 296.75Q331.5 299.0 338.5 299.0Q343.0 299.0 348.5 299.0Q354.0 299.0 360.5 298.5Q367.5 298.0 373.5 297.5Q379.5 297.0 384.0 297.0Q405.0 297.0 405.0 303.5Q405.0 305.5 394.25 308.25Q383.5 311.0 367.5 311.0Q353.5 311.0 338.5 312.25Q323.5 313.5 316.5 316.0Q306.5 319.5 303.75 323.5Q301.0 327.5 300.0 338.0Q300.0 340.0 299.5 341.5Q299.0 343.0 299.0 345.0Q299.0 350.0 302.75 354.75Q306.5 359.5 318.75 367.5Q331.0 375.5 356.0 391.5Q371.0 402.0 384.5 410.25Q398.0 418.5 406.75 423.5Q415.5 428.5 416.5 428.5Q417.0 428.5 417.0 418.25Q417.0 408.0 417.0 391.0Q417.0 369.0 416.5 340.75Q416.0 312.5 414.75 284.25Q413.5 256.0 412.25 233.0Q411.0 210.0 409.5 198.5Q408.0 188.0 405.75 182.5Q403.5 177.0 396.75 171.5Q390.0 166.0 374.5 157.0ZM314.5 111.5 307.5 102.0Q302.5 96.0 297.75 86.75Q293.0 77.5 290.0 70.5L285.0 56.5L268.0 78.0Q260.0 86.0 254.5 92.75Q249.0 99.5 249.0 100.0Q249.0 100.5 255.5 101.5Q262.0 102.5 271.5 103.5Q281.5 105.0 292.0 106.25Q302.5 107.5 307.5 109.0ZM430.5 59.0Q421.0 58.5 411.0 56.5Q401.0 54.5 398.0 54.0L397.0 53.5Q394.0 52.0 393.0 52.0Q391.0 52.0 391.0 54.0Q391.0 57.5 394.0 69.25Q397.0 81.0 403.0 104.5L405.0 111.5Q415.0 156.0 419.0 156.0Q420.0 156.0 425.5 130.5Q426.5 121.5 431.25 109.75Q436.0 98.0 440.5 88.5Q445.5 79.0 449.0 72.0Q452.5 65.0 452.5 64.0Q452.5 63.5 445.75 61.75Q439.0 60.0 430.5 59.0ZM285.0 29.5 295.5 10.0 300.0 44.0Q301.0 57.5 304.5 69.25Q308.0 81.0 312.5 86.5Q316.5 92.0 325.75 101.0Q335.0 110.0 347.0 119.75Q359.0 129.5 371.0 138.25Q383.0 147.0 392.0 152.5Q401.0 158.0 404.5 158.0Q404.5 153.5 401.5 140.5Q398.5 127.5 394.0 111.0Q389.5 94.5 385.0 79.75Q380.5 65.0 377.5 57.5Q370.5 42.0 370.5 36.5V36.0Q370.5 36.0 371.5 35.75Q372.5 35.5 373.0 35.5Q376.5 35.5 386.75 37.25Q397.0 39.0 409.5 43.0Q423.0 46.5 431.75 48.25Q440.5 50.0 448.5 50.0Q456.5 50.0 463.5 47.5Q470.5 45.5 474.75 45.0Q479.0 44.5 482.0 44.5Q487.5 44.5 487.5 48.0Q487.5 53.0 477.0 62.0Q462.5 72.5 451.0 94.25Q439.5 116.0 435.5 142.5Q435.0 149.0 434.0 153.5Q433.0 158.0 432.0 162.0Q430.0 168.0 430.0 172.0V172.5Q431.0 174.5 433.25 176.0Q435.5 177.5 438.0 179.5Q439.0 180.0 440.5 181.5Q442.0 183.0 443.0 184.0Q448.5 187.5 451.25 191.25Q454.0 195.0 454.0 197.5Q454.0 198.5 453.0 199.5H453.5Q451.5 201.5 449.0 202.0Q446.5 201.0 441.0 197.5Q437.0 194.5 430.5 194.5Q430.0 195.0 429.5 213.5Q429.0 232.0 428.75 261.25Q428.5 290.5 428.5 325.0Q428.5 340.5 428.75 354.75Q429.0 369.0 429.0 381.0Q429.0 456.5 423.0 456.5Q421.0 456.5 419.5 454.75Q418.0 453.0 418.0 451.5Q418.0 449.5 406.25 441.0Q394.5 432.5 376.25 420.5Q358.0 408.5 337.75 396.0Q317.5 383.5 300.0 373.25Q282.5 363.0 272.5 358.0Q256.5 350.0 233.0 342.25Q209.5 334.5 185.75 329.5Q162.0 324.5 144.0 324.5H140.5Q135.5 324.5 132.75 323.0Q130.0 321.5 130.0 315.5Q130.0 315.0 124.0 315.0Q115.0 315.0 97.75 319.25Q80.5 323.5 62.5 332.0Q44.5 340.5 32.5 353.5H33.0Q26.5 361.0 20.25 365.75Q14.0 370.5 12.5 370.5L11.5 368.5Q10.0 367.5 10.0 362.5Q10.0 357.0 11.0 347.5Q12.0 338.0 13.0 327.0Q14.0 317.5 15.0 304.5Q16.0 291.5 17.0 278.25Q18.0 265.0 18.0 255.5Q18.0 240.0 19.25 229.25Q20.5 218.5 22.5 218.5Q25.0 218.5 28.25 225.25Q31.5 232.0 34.5 240.5Q37.0 248.5 40.5 257.25Q44.0 266.0 46.5 271.0Q54.5 282.5 75.25 289.75Q96.0 297.0 121.5 297.0Q140.0 297.0 148.5 294.5Q157.0 292.0 168.0 282.5Q175.0 275.5 183.25 265.0Q191.5 254.5 196.5 245.5Q202.0 237.5 206.5 232.0Q211.0 226.5 213.5 226.5H214.0Q217.0 228.5 218.75 236.25Q220.5 244.0 220.5 254.0Q221.0 263.0 223.0 273.0Q225.0 283.0 228.0 288.5Q228.5 289.5 228.75 290.25Q229.0 291.0 229.0 291.0Q230.5 291.0 231.25 283.75Q232.0 276.5 232.25 258.25Q232.5 240.0 232.5 207.0Q232.5 163.5 231.25 138.5Q230.0 113.5 228.5 111.5Q227.0 111.5 227.0 109.0Q227.0 106.5 233.75 97.0Q240.5 87.5 250.0 76.5H249.5Q261.0 63.5 271.5 50.0Q282.0 36.5 285.0 29.5Z" fill="black" /></svg>