<svg xmlns="http://www.w3.org/2000/svg" width="764.5" height="448.5" viewBox="0 0 764.5 448.5"><path d="M50.5 297.5Q48.0 297.0 45.5 296.5Q43.0 296.0 40.5 295.5Q39.0 294.5 36.75 293.25Q34.5 292.0 32.0 290.5V307.5Q32.0 311.5 31.25 315.5Q30.5 319.5 30.5 324.5Q30.0 329.0 30.25 326.75Q30.5 324.5 29.5 328.5L30.5 327.5Q32.5 323.5 34.25 320.0Q36.0 316.5 37.5 313.0Q40.5 309.0 43.75 305.0Q47.0 301.0 50.5 297.5ZM202.0 329.0 175.0 304.0Q161.0 330.0 144.0 353.5Q150.0 350.0 157.5 345.5Q165.0 341.0 173.0 336.5Q179.5 334.0 185.75 332.5Q192.0 331.0 197.0 330.0Q200.5 329.0 200.75 329.25Q201.0 329.5 202.0 329.0ZM169.5 261.0 194.5 265.0 181.5 245.0ZM399.0 325.5Q391.5 325.0 384.0 323.5L381.0 322.0Q377.5 320.5 371.5 317.25Q365.5 314.0 360.0 310.0Q360.0 313.0 360.25 316.25Q360.5 319.5 360.5 323.5Q361.5 328.5 361.75 333.75Q362.0 339.0 362.0 342.0Q362.0 347.0 361.25 351.25Q360.5 355.5 360.5 360.5Q360.0 364.5 360.0 365.0Q360.0 365.5 360.0 369.5L364.0 363.5Q368.0 358.0 371.75 353.0Q375.5 348.0 380.5 343.5Q388.5 333.0 399.0 325.5ZM43.0 115.0V127.0Q41.5 135.0 41.25 144.5Q41.0 154.0 41.0 162.0Q41.0 164.0 41.0 164.5Q41.0 165.0 41.0 165.0Q40.5 165.0 40.75 165.0Q41.0 165.0 40.5 167.5L42.5 163.5Q44.5 159.5 46.75 155.5Q49.0 151.5 50.0 148.5Q54.0 145.0 57.25 141.0Q60.5 137.0 62.5 134.0Q65.0 132.0 65.75 131.75Q66.5 131.5 67.5 129.5L64.5 127.5Q61.0 127.0 57.0 125.25Q53.0 123.5 50.0 121.5Q48.0 120.5 46.25 118.25Q44.5 116.0 43.0 115.0ZM200.5 209.5 191.5 224.0H187.0Q191.0 224.0 195.5 224.0Q200.0 224.0 204.5 224.5Q206.0 224.5 207.5 224.75Q209.0 225.0 211.0 225.5Q210.0 224.0 209.0 222.75Q208.0 221.5 207.0 220.0Q205.0 217.5 203.25 214.75Q201.5 212.0 200.5 209.5ZM210.0 185.0 234.5 186.0 226.0 160.5ZM273.5 133.0 270.0 121.0Q269.5 118.5 269.5 116.75Q269.5 115.0 269.5 113.0Q269.5 102.0 272.0 90.5Q268.5 95.0 263.75 101.0Q259.0 107.0 254.0 111.0L238.5 127.0ZM407.0 133.0Q403.0 131.0 398.25 129.25Q393.5 127.5 389.5 125.5Q385.0 124.0 381.0 121.75Q377.0 119.5 373.0 117.0Q373.0 120.0 373.25 122.5Q373.5 125.0 374.0 127.5V144.0Q374.0 149.0 373.5 153.75Q373.0 158.5 373.0 164.0Q372.5 168.0 372.5 169.5Q372.5 171.0 372.5 175.5L377.0 169.0Q383.0 158.5 390.0 151.5Q398.5 141.5 407.0 133.0ZM722.0 41.0 723.0 37.0Q721.0 36.0 706.75 34.75Q692.5 33.5 679.0 33.5Q672.5 33.5 667.75 33.5Q663.0 33.5 660.5 34.5V35.5Q660.5 37.0 661.5 40.75Q662.5 44.5 665.5 49.0Q670.0 57.5 674.5 76.25Q679.0 95.0 682.25 116.0Q685.5 137.0 686.0 153.5V157.0L688.5 147.5Q696.5 121.0 704.75 94.25Q713.0 67.5 722.0 41.0ZM343.5 336.5Q344.5 302.0 347.25 283.75Q350.0 265.5 354.0 265.5Q358.5 265.5 364.0 284.5Q366.0 292.0 370.25 297.0Q374.5 302.0 385.75 305.0Q397.0 308.0 420.0 309.25Q443.0 310.5 482.5 310.5H567.0Q614.5 310.5 638.5 312.25Q662.5 314.0 665.5 317.5V318.0Q665.5 323.0 636.75 325.25Q608.0 327.5 543.0 327.5H421.0L390.5 356.5Q387.0 360.5 381.75 367.0Q376.5 373.5 371.0 380.5Q364.5 388.5 358.0 395.5Q351.5 402.5 347.0 402.5H345.5Q342.0 400.5 342.0 387.5Q342.0 381.0 342.5 374.0Q343.0 367.0 343.0 360.0Q343.5 353.0 343.5 346.75Q343.5 340.5 343.5 336.5ZM162.0 288.0 165.0 277.0Q165.0 276.5 165.5 276.0Q166.0 275.5 166.5 275.0L154.0 274.0Q144.0 274.0 144.0 268.5Q144.0 266.0 146.75 262.25Q149.5 258.5 154.5 252.0Q160.0 246.5 162.75 241.25Q165.5 236.0 165.5 234.0Q165.5 231.0 169.5 223.75Q173.5 216.5 178.5 209.5Q181.0 205.5 183.25 201.5Q185.5 197.5 185.5 197.0Q185.5 194.0 189.75 187.25Q194.0 180.5 200.5 172.5Q204.5 165.5 208.75 159.0Q213.0 152.5 217.5 145.5Q211.5 148.5 208.0 148.5Q202.0 148.5 202.0 144.0Q202.0 141.5 203.75 139.25Q205.5 137.0 207.0 135.0H118.0Q97.5 135.0 86.0 139.5Q74.5 144.0 66.0 156.0Q57.5 168.0 46.5 191.5Q35.5 216.5 28.0 216.5Q22.0 216.5 22.0 208.0Q22.0 205.5 22.5 202.0Q23.0 198.5 24.0 195.5Q24.5 190.0 24.75 178.75Q25.0 167.5 25.5 153.0Q26.0 138.5 26.0 125.0Q26.0 100.5 28.5 85.25Q31.0 70.0 35.5 70.0Q38.0 70.0 41.25 74.5Q44.5 79.0 44.5 86.0Q44.5 91.0 50.0 98.75Q55.5 106.5 60.5 111.0Q65.0 115.0 73.25 117.0Q81.5 119.0 98.25 119.25Q115.0 119.5 144.0 119.5H224.5L270.0 67.0Q286.5 48.0 295.25 40.0Q304.0 32.0 306.5 32.0Q309.0 32.0 310.0 33.25Q311.0 34.5 312.0 37.0Q311.0 39.5 308.0 45.5Q305.0 51.5 300.0 59.0Q295.5 64.5 290.75 78.5Q286.0 92.5 286.0 107.5Q286.0 116.5 288.25 124.5Q290.5 132.5 295.5 138.0L321.5 151.5Q336.0 158.0 346.25 165.25Q356.5 172.5 356.5 175.5Q356.5 177.5 354.25 178.75Q352.0 180.0 349.5 181.0Q346.0 180.0 336.5 176.75Q327.0 173.5 314.5 167.5Q299.5 160.5 282.5 154.25Q265.5 148.0 257.5 147.0L238.5 145.0L242.0 157.0Q245.5 171.5 250.0 179.75Q254.5 188.0 261.0 188.0Q265.0 188.0 268.5 189.75Q272.0 191.5 273.5 193.5Q274.0 194.5 285.5 200.5Q297.0 206.5 312.5 213.0L349.0 228.5Q356.0 231.0 359.0 234.25Q362.0 237.5 362.0 239.5Q362.0 244.5 356.5 244.5Q354.0 244.5 350.75 243.0Q347.5 241.5 343.5 240.5Q335.5 237.0 325.25 233.0Q315.0 229.0 306.5 226.0Q291.0 219.5 275.0 213.25Q259.0 207.0 242.0 202.0Q236.5 200.0 230.5 199.75Q224.5 199.5 219.0 199.5Q217.5 199.5 215.75 199.75Q214.0 200.0 211.0 199.5Q214.0 206.0 224.5 217.0Q235.0 228.0 244.5 233.5L321.5 261.5Q330.0 265.0 333.0 267.75Q336.0 270.5 336.0 272.5Q336.0 277.0 329.0 277.0Q325.0 277.0 314.5 274.0Q311.5 273.0 305.0 270.25Q298.5 267.5 290.0 265.5Q279.0 261.5 266.75 257.5Q254.5 253.5 250.0 252.0Q236.5 246.5 226.0 243.5Q215.5 240.5 210.0 239.5L195.0 239.0L203.5 249.5Q210.0 257.0 222.75 265.75Q235.5 274.5 248.0 280.0L262.5 286.0Q282.0 294.0 297.75 301.5Q313.5 309.0 313.5 314.0Q312.0 318.0 306.0 318.0Q300.0 318.0 292.0 314.0L208.0 279.0L174.0 276.0Q175.5 277.0 177.5 279.25Q179.5 281.5 181.5 284.5Q190.0 293.5 207.25 308.75Q224.5 324.0 252.0 336.5L318.0 368.0Q340.5 379.0 340.5 384.5Q340.5 389.5 333.5 389.5Q327.5 389.5 312.5 384.0L242.0 351.5Q241.5 352.0 240.0 352.0Q238.5 352.0 238.5 352.0Q234.0 352.0 229.5 349.5Q222.0 343.5 209.0 343.5Q174.0 343.5 127.5 384.0Q121.5 389.5 114.25 393.0Q107.0 396.5 103.0 397.0Q101.5 397.0 100.0 395.5L101.0 396.5Q97.0 394.0 97.0 390.5Q97.0 388.5 99.0 386.25Q101.0 384.0 103.0 382.0Q110.5 375.0 118.75 364.0Q127.0 353.0 134.75 341.5Q142.5 330.0 147.0 322.0L156.5 303.5H124.5Q116.0 302.5 107.25 302.25Q98.5 302.0 88.5 302.0Q74.5 302.0 65.0 306.0Q55.5 310.0 48.25 321.0Q41.0 332.0 33.5 354.0Q29.5 367.0 24.25 374.25Q19.0 381.5 15.5 382.0Q13.5 382.0 11.75 380.5Q10.0 379.0 10.0 374.5Q10.0 372.0 10.75 369.0Q11.5 366.0 12.0 362.0Q13.0 355.0 14.25 335.0Q15.5 315.0 15.5 293.5Q15.5 268.5 17.75 253.0Q20.0 237.5 24.0 237.5Q28.0 237.5 30.0 242.0Q32.0 246.5 32.0 253.0Q32.0 266.0 37.5 272.75Q43.0 279.5 58.5 282.5Q74.0 285.5 103.0 286.5ZM357.0 144.0Q358.0 132.5 358.0 122.75Q358.0 113.0 358.0 105.0Q358.0 94.5 358.25 87.5Q358.5 80.5 360.0 77.0V77.5Q360.0 76.5 361.5 75.25Q363.0 74.0 365.0 74.0Q370.5 74.0 372.5 79.0Q374.0 90.5 386.5 103.75Q399.0 117.0 431.0 121.0H529.0Q593.0 121.0 627.75 123.0Q662.5 125.0 662.5 129.0Q662.5 132.5 631.0 134.5Q599.5 136.5 542.5 136.5H432.0Q412.5 150.0 396.0 169.75Q379.5 189.5 372.5 213.0Q370.0 218.5 367.0 218.5Q363.5 218.5 360.0 207.25Q356.5 196.0 356.5 168.0Q356.5 162.5 356.75 156.5Q357.0 150.5 357.0 144.0ZM729.0 17.5Q733.0 12.5 733.75 11.5Q734.5 10.5 738.5 10.0H740.5Q754.5 10.0 754.5 17.5Q754.5 19.5 753.0 22.75Q751.5 26.0 747.0 28.5Q743.0 32.0 738.0 44.5Q733.0 57.0 728.5 74.0Q706.5 137.0 695.75 210.5Q685.0 284.0 685.0 365.0Q685.0 404.0 683.0 421.25Q681.0 438.5 675.5 438.5Q672.5 438.5 670.5 428.25Q668.5 418.0 668.5 392.5Q668.5 379.0 669.25 360.25Q670.0 341.5 670.5 317.5Q671.5 301.0 671.5 284.75Q671.5 268.5 671.5 254.0Q671.5 157.0 662.25 101.25Q653.0 45.5 635.5 35.5Q631.0 31.5 627.75 28.0Q624.5 24.5 624.5 22.5Q624.5 20.0 633.5 18.5Q642.5 17.0 658.0 17.0Q673.5 17.0 688.0 17.25Q702.5 17.5 718.0 19.5Q720.5 19.5 722.0 20.0Q723.5 20.5 724.5 20.5Q726.0 20.5 729.0 17.5Z" fill="black" /></svg>