<svg xmlns="http://www.w3.org/2000/svg" width="921.0" height="464.0" viewBox="0 0 921.0 464.0"><path d="M112.5 283.0Q102.0 273.0 93.0 262.25Q84.0 251.5 80.0 246.5L74.0 236.5L57.0 265.5Q50.5 277.0 44.75 287.25Q39.0 297.5 39.0 299.0Q39.0 300.5 46.25 301.25Q53.5 302.0 64.5 302.0Q74.0 302.0 88.5 303.25Q103.0 304.5 112.0 307.0H111.0Q118.0 309.0 123.75 309.75Q129.5 310.5 133.0 310.5H134.0Q133.5 307.0 127.25 299.75Q121.0 292.5 112.5 283.0ZM249.0 322.0H248.5L258.0 311.0H219.0L226.0 322.5Q228.5 328.0 231.25 331.75Q234.0 335.5 235.0 336.0Q236.5 336.0 238.75 333.5Q241.0 331.0 244.5 327.5Q245.5 326.5 247.0 324.75Q248.5 323.0 249.0 322.0ZM261.0 296.0 276.5 294.5 280.0 197.0H266.0Q259.5 197.0 256.75 198.5Q254.0 200.0 252.75 207.5Q251.5 215.0 249.5 233.0Q248.5 251.0 247.5 262.5Q246.5 274.0 246.5 282.0Q246.5 291.0 248.25 294.0Q250.0 297.0 255.0 297.0Q257.0 297.0 258.0 296.5Q259.0 296.0 261.0 296.0ZM369.5 223.5Q364.0 222.0 358.25 219.75Q352.5 217.5 347.0 216.0Q336.5 212.0 326.5 208.75Q316.5 205.5 310.5 203.5L290.5 197.5V245.0Q290.5 272.5 291.25 281.5Q292.0 290.5 295.5 290.5Q297.0 290.5 297.5 290.0Q340.0 277.0 363.5 268.75Q387.0 260.5 396.5 255.25Q406.0 250.0 406.5 246.0V244.0Q406.5 239.5 399.25 235.5Q392.0 231.5 369.5 223.5ZM489.5 291.5Q477.5 289.0 463.25 284.75Q449.0 280.5 442.0 276.5L426.0 269.0L422.5 284.0V283.5Q422.0 291.0 421.0 300.5Q420.0 310.0 420.0 317.0V330.5L435.0 323.5Q442.0 321.5 456.5 316.75Q471.0 312.0 484.5 309.5Q497.5 305.5 507.0 303.0Q516.5 300.5 516.5 299.0Q516.5 298.5 508.25 296.25Q500.0 294.0 489.5 291.5ZM838.5 178.5H733.0Q703.5 178.5 672.25 178.5Q641.0 178.5 613.75 178.75Q586.5 179.0 568.0 179.25Q549.5 179.5 545.0 180.5Q535.0 182.0 519.5 185.5Q504.0 189.0 487.25 193.25Q470.5 197.5 457.0 201.75Q443.5 206.0 438.0 208.5Q431.5 212.5 429.0 215.75Q426.5 219.0 426.5 226.0Q426.5 232.5 428.25 243.75Q430.0 255.0 433.5 259.5H433.0Q435.5 261.5 449.25 266.25Q463.0 271.0 480.0 275.0Q514.0 286.0 582.5 291.0Q651.0 296.0 758.5 296.0L837.5 297.0L839.0 239.0Q839.5 231.5 839.5 224.0Q839.5 216.5 839.5 210.5Q839.5 198.0 839.25 189.25Q839.0 180.5 838.5 178.5ZM154.5 91.0Q148.0 90.0 137.5 86.0Q127.0 82.0 119.5 78.0Q114.0 75.0 109.0 73.0Q104.0 71.0 101.5 71.0H100.5Q99.0 72.5 98.25 82.75Q97.5 93.0 97.5 107.0V138.5Q101.5 136.0 105.25 133.5Q109.0 131.0 112.5 129.0Q119.5 124.5 130.5 118.5Q141.5 112.5 150.0 109.0Q169.0 99.0 169.0 95.5Q169.0 94.0 154.5 91.0ZM253.5 167.0Q244.0 158.0 238.5 158.0Q236.5 158.0 233.75 162.0Q231.0 166.0 229.0 170.75Q227.0 175.5 227.0 177.5Q227.0 182.5 245.0 182.5Q263.0 182.5 263.0 179.5Q263.0 178.0 260.5 175.0Q258.0 172.0 253.5 167.0ZM452.5 23.5H416.5Q402.0 23.5 391.25 24.25Q380.5 25.0 380.5 25.5Q380.5 28.5 383.5 35.75Q386.5 43.0 390.5 50.75Q394.5 58.5 398.5 64.0Q402.5 69.5 404.5 69.5Q409.0 69.5 409.0 74.0Q409.0 76.0 406.5 77.5Q406.5 84.5 407.75 91.5Q409.0 98.5 410.0 105.5L416.5 126.5Q419.0 116.0 423.5 99.0Q428.0 82.0 433.25 66.0Q438.5 50.0 443.0 42.5Q445.5 38.5 447.0 35.0Q449.5 31.0 451.0 28.0Q452.5 25.0 452.5 23.5ZM438.5 140.5 438.0 140.0Q437.5 137.0 435.0 137.0Q430.0 137.0 428.5 166.0Q427.5 175.5 426.75 183.0Q426.0 190.5 426.0 195.0V197.0Q428.5 196.5 435.0 194.5Q441.5 192.5 451.0 189.5Q454.5 188.5 457.25 187.5Q460.0 186.5 463.5 186.0Q480.0 180.5 494.0 177.0Q508.0 173.5 513.0 173.5Q523.5 173.5 523.5 171.5Q523.5 170.0 513.5 166.0Q503.5 162.0 485.5 157.5Q468.0 152.5 454.5 148.0Q441.0 143.5 438.5 140.5ZM875.0 45.0Q875.0 43.5 875.25 42.75Q875.5 42.0 875.5 41.5Q875.5 39.0 869.25 38.5Q863.0 38.0 845.5 38.0H811.5L823.0 58.5Q827.5 68.0 833.0 81.5Q838.5 95.0 841.0 105.0L846.0 122.5L862.0 77.0Q866.5 65.5 870.25 56.5Q874.0 47.5 875.0 45.0ZM353.0 18.0Q353.0 14.5 358.25 12.75Q363.5 11.0 377.75 10.5Q392.0 10.0 419.0 10.0Q445.5 10.0 465.0 11.75Q484.5 13.5 484.5 15.5Q484.5 17.5 480.25 22.5Q476.0 27.5 469.0 32.5Q464.0 36.0 458.0 46.0Q452.0 56.0 446.75 68.5Q441.5 81.0 438.25 93.25Q435.0 105.5 435.0 114.0Q435.0 124.0 449.5 131.25Q464.0 138.5 502.5 150.0Q515.0 153.5 527.75 155.5Q540.5 157.5 559.25 158.5Q578.0 159.5 609.0 160.5Q640.0 161.5 689.5 162.5L838.5 164.0V154.0Q838.5 143.5 834.25 127.0Q830.0 110.5 823.5 92.75Q817.0 75.0 810.0 61.25Q803.0 47.5 798.0 43.0V43.5Q788.0 36.5 788.0 30.5Q788.0 28.0 806.25 26.5Q824.5 25.0 849.0 25.0Q911.0 25.0 911.0 33.5Q911.0 37.0 899.5 41.0Q892.0 43.0 882.0 61.75Q872.0 80.5 863.0 111.5Q859.5 122.0 857.25 138.75Q855.0 155.5 853.75 184.75Q852.5 214.0 851.0 263.0Q850.5 298.0 849.25 326.5Q848.0 355.0 846.5 372.25Q845.0 389.5 844.0 389.5Q842.0 389.5 840.25 377.75Q838.5 366.0 838.5 349.0V311.5L714.0 309.5Q694.0 308.5 676.0 308.0Q658.0 307.5 641.5 307.5Q590.5 307.5 553.0 310.75Q515.5 314.0 487.5 321.0Q459.5 328.0 436.5 338.5L420.0 346.5V381.5Q420.0 398.0 418.25 408.75Q416.5 419.5 413.5 419.5Q410.0 419.5 408.0 401.75Q406.0 384.0 406.0 352.0Q406.0 342.5 406.0 331.0Q406.0 319.5 406.5 307.5L409.0 267.5L351.5 286.0Q328.0 294.0 313.0 300.25Q298.0 306.5 288.0 312.5Q278.0 318.5 269.0 326.5Q260.5 334.5 253.5 341.25Q246.5 348.0 246.5 350.5Q246.5 352.5 252.0 356.25Q257.5 360.0 265.5 363.0Q282.0 369.5 303.0 379.25Q324.0 389.0 345.5 399.75Q367.0 410.5 385.0 420.25Q403.0 430.0 414.25 437.0Q425.5 444.0 425.5 446.0Q425.5 449.5 422.75 451.75Q420.0 454.0 416.5 454.0Q408.5 454.0 408.5 447.5Q408.5 446.5 390.5 437.5Q372.5 428.5 342.5 414.5Q312.5 400.5 275.5 383.5Q238.5 366.5 200.5 349.5Q164.0 333.5 126.0 324.5Q88.0 315.5 60.5 315.5Q36.5 315.5 25.0 322.5Q18.0 328.0 13.5 328.0Q10.0 328.0 10.0 322.5Q10.0 310.5 38.5 263.5Q52.5 240.5 64.0 223.75Q75.5 207.0 77.0 207.0Q79.5 207.0 82.5 213.0Q85.5 219.0 86.5 226.5Q91.5 237.5 106.5 255.0Q121.5 272.5 141.75 290.5Q162.0 308.5 181.5 321.5Q210.5 340.0 218.0 340.0Q220.0 340.0 220.0 339.5Q220.0 335.5 210.0 319.5Q203.5 309.5 199.75 301.25Q196.0 293.0 196.0 291.0V290.0Q197.0 289.0 198.5 289.0Q204.0 289.0 215.0 293.0Q226.0 297.5 230.5 297.5Q231.0 297.5 232.0 297.0Q233.0 294.5 234.0 279.5Q235.0 264.5 237.0 245.0L240.0 195.5L223.0 199.0Q221.0 199.5 218.25 200.0Q215.5 200.5 213.0 200.5Q205.0 200.5 205.0 197.0Q205.0 194.0 209.5 183.5Q214.0 173.0 220.5 161.0Q227.0 149.0 232.5 140.25Q238.0 131.5 239.5 131.5Q243.0 131.5 246.5 140.5Q253.5 156.0 279.5 171.5Q305.5 187.0 351.0 203.0Q371.0 210.5 386.75 215.25Q402.5 220.0 406.5 220.0H407.0Q408.5 218.0 409.0 212.75Q409.5 207.5 409.5 200.5Q409.5 188.0 408.5 172.75Q407.5 157.5 405.5 142.75Q403.5 128.0 400.5 117.0L392.5 82.0Q390.0 82.5 381.75 83.0Q373.5 83.5 371.0 84.5Q365.0 85.0 351.25 86.5Q337.5 88.0 319.25 89.75Q301.0 91.5 282.0 93.0Q245.5 96.0 222.75 100.0Q200.0 104.0 182.5 111.0Q165.0 117.0 146.75 126.75Q128.5 136.5 115.5 146.0Q102.5 155.5 100.0 161.5V161.0Q99.0 165.5 95.75 168.5Q92.5 171.5 89.5 171.5Q86.0 171.5 84.25 167.0Q82.5 162.5 82.5 150.0Q82.5 136.0 83.5 117.5Q84.5 99.0 86.25 81.0Q88.0 63.0 90.0 51.0L94.0 30.5L104.5 49.5V49.0Q110.0 58.5 122.0 65.0Q134.0 71.5 148.5 75.5Q163.0 79.5 177.25 81.5Q191.5 83.5 202.0 83.5Q211.0 83.5 231.25 82.5Q251.5 81.5 276.25 79.75Q301.0 78.0 324.25 76.0Q347.5 74.0 363.5 71.75Q379.5 69.5 382.0 67.5Q382.0 63.0 378.75 55.0Q375.5 47.0 370.75 39.5Q366.0 32.0 361.5 30.0Q358.5 29.0 355.75 26.0Q353.0 23.0 353.0 18.0Z" fill="black" /></svg>