<svg xmlns="http://www.w3.org/2000/svg" width="784.0" height="461.0" viewBox="0 0 784.0 461.0"><path d="M68.5 321.0Q55.0 321.0 39.0 312.5L25.0 305.5Q26.0 312.0 27.25 318.0Q28.5 324.0 29.0 330.5Q29.5 341.0 31.75 350.25Q34.0 359.5 35.5 362.0L36.0 362.5Q43.0 362.5 58.0 343.0Q68.0 333.0 72.5 327.75Q77.0 322.5 77.0 321.5Q77.0 321.0 68.5 321.0ZM104.5 175.0H104.0Q101.5 171.0 96.75 162.75Q92.0 154.5 89.5 146.0L82.5 128.5Q79.0 134.5 75.25 139.75Q71.5 145.0 67.5 150.5Q61.0 160.0 56.25 167.5Q51.5 175.0 51.5 176.0Q51.5 176.5 66.5 176.5Q72.0 176.5 80.25 178.0Q88.5 179.5 95.0 182.0Q99.0 184.0 102.5 184.5Q106.0 185.0 107.5 185.0Q110.5 185.0 110.5 184.5Q110.5 183.0 104.5 175.0ZM220.0 153.0Q215.5 150.0 208.25 149.5Q201.0 149.0 197.0 149.0L197.5 150.5Q198.5 153.0 199.75 157.5Q201.0 162.0 201.5 166.5L208.0 181.5L216.5 167.5Q221.5 160.5 221.5 156.0Q221.5 154.5 220.0 153.0ZM244.0 197.5Q241.0 185.5 238.75 175.75Q236.5 166.0 234.5 165.5H234.0Q230.0 165.5 227.0 173.75Q224.0 182.0 222.25 193.25Q220.5 204.5 219.75 214.25Q219.0 224.0 219.0 227.0V245.0L252.5 265.5V250.5Q252.5 241.0 250.0 225.75Q247.5 210.5 244.0 197.5ZM273.0 151.0Q273.0 150.0 268.5 149.5Q264.0 149.0 257.5 149.0Q245.0 149.0 245.0 151.0Q245.0 153.0 246.5 155.5Q247.5 159.5 249.25 166.75Q251.0 174.0 253.0 180.5L254.5 191.0Q256.5 187.5 261.0 179.25Q265.5 171.0 269.25 162.5Q273.0 154.0 273.0 151.0ZM468.0 234.0Q464.5 233.0 460.75 231.75Q457.0 230.5 453.5 229.0Q442.5 225.0 434.75 222.0Q427.0 219.0 424.5 218.5Q422.5 218.0 421.5 218.0Q418.0 218.0 417.5 243.0Q417.5 256.0 418.0 261.75Q418.5 267.5 420.5 267.5Q421.0 267.5 424.5 266.0Q426.0 265.5 427.75 265.25Q429.5 265.0 430.5 264.5Q434.0 262.5 437.5 262.5Q440.5 261.5 451.25 259.0Q462.0 256.5 473.0 253.0Q480.5 250.5 487.0 248.75Q493.5 247.0 496.5 246.0Q494.5 244.5 487.0 241.0Q479.5 237.5 468.0 234.0ZM296.0 108.5 294.0 105.5H293.5Q291.5 102.0 288.75 92.25Q286.0 82.5 285.0 71.5V72.0L281.0 51.5L257.0 74.5Q247.5 84.5 241.25 91.75Q235.0 99.0 234.0 101.5Q235.5 102.5 245.5 104.0Q255.5 105.5 268.5 106.0Q277.0 107.0 283.0 107.75Q289.0 108.5 292.0 108.5ZM250.0 374.5Q247.0 373.5 236.0 372.5Q225.0 371.5 212.75 370.5Q200.5 369.5 194.0 369.5Q191.5 369.5 191.5 368.5Q191.5 370.5 195.5 378.25Q199.5 386.0 204.75 395.0Q210.0 404.0 214.25 410.5Q218.5 417.0 220.0 417.0Q221.0 416.0 225.25 410.5Q229.5 405.0 235.0 397.5Q240.5 390.0 244.75 383.5Q249.0 377.0 250.0 374.5ZM259.5 53.0Q274.0 35.5 285.25 22.75Q296.5 10.0 296.5 10.0Q299.0 10.0 299.0 18.5Q299.0 29.0 297.5 45.0Q297.0 50.0 296.75 53.75Q296.5 57.5 296.5 61.0Q296.5 76.5 302.5 89.0Q308.5 101.5 324.5 116.75Q340.5 132.0 370.5 157.0Q395.5 177.0 410.5 188.5Q425.5 200.0 436.5 206.75Q447.5 213.5 460.5 218.25Q473.5 223.0 493.5 229.0Q505.5 233.0 517.25 235.5Q529.0 238.0 545.0 239.5Q561.0 241.0 586.25 241.5Q611.5 242.0 651.0 242.5Q685.0 243.5 713.0 244.75Q741.0 246.0 757.5 247.75Q774.0 249.5 774.0 252.0Q774.0 253.5 755.75 254.75Q737.5 256.0 706.5 257.0Q675.5 258.0 636.5 258.0Q593.0 258.0 563.25 258.5Q533.5 259.0 513.75 260.5Q494.0 262.0 480.75 265.0Q467.5 268.0 457.0 272.5Q446.5 277.0 435.0 283.5Q425.5 288.5 416.75 293.0Q408.0 297.5 404.5 298.5Q400.5 298.5 383.5 306.25Q366.5 314.0 346.0 326.0Q305.0 347.5 278.0 371.25Q251.0 395.0 233.5 424.5Q219.0 451.0 213.5 451.0Q210.0 451.0 210.0 441.5Q210.0 438.5 204.0 424.0Q198.0 409.5 189.5 394.0Q181.5 378.0 175.5 365.75Q169.5 353.5 169.5 351.0V349.0H172.0Q173.5 349.0 177.0 349.75Q180.5 350.5 185.5 351.5Q188.5 353.5 196.5 355.0Q204.5 356.5 212.5 357.25Q220.5 358.0 224.0 358.0Q234.0 358.0 240.75 356.0Q247.5 354.0 248.5 350.5Q249.5 347.5 251.0 337.25Q252.5 327.0 252.5 317.5L249.5 286.0L230.5 277.5L214.0 281.5Q212.0 286.0 212.0 294.5Q212.0 296.5 212.25 298.25Q212.5 300.0 212.5 302.5V314.5Q212.5 325.5 210.75 333.25Q209.0 341.0 206.0 341.0Q204.0 341.0 201.75 332.25Q199.5 323.5 199.5 310.0Q199.5 285.5 196.5 285.5H196.0L172.0 293.5Q134.5 303.0 101.0 324.5Q67.5 346.0 46.0 379.0Q39.5 388.5 34.75 393.25Q30.0 398.0 28.0 398.0Q22.0 398.0 22.0 382.0Q22.0 376.5 20.25 360.0Q18.5 343.5 15.5 327.0Q13.5 313.5 11.75 302.5Q10.0 291.5 10.0 286.5Q10.0 283.0 11.5 281.5H12.0Q13.0 281.5 19.5 284.75Q26.0 288.0 33.5 293.5Q42.5 299.0 52.5 302.75Q62.5 306.5 71.5 306.5Q78.0 306.5 93.0 303.0Q108.0 299.5 126.0 294.0Q144.0 288.5 160.75 282.5Q177.5 276.5 189.0 271.5Q200.5 266.5 201.5 264.0Q202.0 263.0 202.0 262.0Q202.0 256.5 192.25 247.5Q182.5 238.5 157.5 222.0Q138.5 208.5 110.0 199.75Q81.5 191.0 54.5 191.0Q43.5 191.0 35.75 190.0Q28.0 189.0 28.0 186.0Q28.0 183.5 34.0 174.5Q40.0 165.5 49.0 153.25Q58.0 141.0 67.25 129.25Q76.5 117.5 83.5 109.75Q90.5 102.0 92.5 102.0H93.0Q94.5 104.0 96.5 109.25Q98.5 114.5 98.5 120.5Q98.5 160.5 158.0 204.5Q174.5 216.5 187.25 225.25Q200.0 234.0 202.0 234.0Q204.5 234.0 204.5 228.5Q204.5 220.5 201.0 206.25Q197.5 192.0 191.0 176.5L189.5 172.0Q184.5 159.5 182.25 152.25Q180.0 145.0 180.0 141.5Q180.0 135.0 186.0 135.0Q188.5 135.0 191.0 135.75Q193.5 136.5 197.0 137.0H200.5Q204.5 137.5 209.0 137.75Q213.5 138.0 217.0 138.5Q220.5 138.0 223.0 137.75Q225.5 137.5 226.0 137.0V137.5Q227.0 134.5 236.5 134.5Q241.0 134.5 248.0 135.0Q255.0 135.5 262.5 137.0L295.0 143.0L281.5 169.5Q276.5 177.5 273.5 184.0Q270.5 190.5 268.75 200.0Q267.0 209.5 266.5 225.75Q266.0 242.0 265.5 270.0Q265.5 281.0 265.25 290.0Q265.0 299.0 265.0 306.0Q265.0 329.0 265.75 338.5Q266.5 348.0 268.5 348.0Q271.0 348.0 291.0 337.5Q311.0 327.0 338.0 314.0Q360.5 301.5 373.5 294.25Q386.5 287.0 392.75 282.25Q399.0 277.5 401.25 273.0Q403.5 268.5 404.5 262.5Q405.0 260.0 405.25 256.0Q405.5 252.0 405.5 248.5Q405.5 243.0 405.25 236.75Q405.0 230.5 404.5 225.5V221.0Q403.0 211.5 399.75 204.5Q396.5 197.5 388.0 189.0Q379.5 180.5 362.0 166.5Q342.5 150.0 329.75 141.0Q317.0 132.0 306.5 128.0Q296.0 124.0 283.5 122.75Q271.0 121.5 252.0 121.5Q228.5 121.5 216.75 118.75Q205.0 116.0 205.0 113.0Q205.0 109.5 208.25 105.75Q211.5 102.0 215.0 100.0Q219.0 97.5 232.0 83.75Q245.0 70.0 259.5 53.0Z" fill="black" /></svg>