<svg xmlns="http://www.w3.org/2000/svg" width="491.5" height="456.0" viewBox="0 0 491.5 456.0"><path d="M88.0 209.5 71.0 201.0Q63.0 196.5 53.25 188.5Q43.5 180.5 38.0 174.0L26.5 159.0V259.5L42.5 244.5Q49.5 237.5 59.0 229.25Q68.5 221.0 75.0 217.5ZM326.5 205.0V205.5Q322.0 203.0 314.5 196.25Q307.0 189.5 301.5 184.5L289.0 172.0V241.5L311.5 226.0Q321.0 219.0 325.75 215.5Q330.5 212.0 330.5 210.0Q330.5 209.0 329.25 207.75Q328.0 206.5 326.5 205.0ZM180.0 31.0Q180.0 30.0 173.25 29.5Q166.5 29.0 156.5 29.0Q144.0 29.0 139.0 29.75Q134.0 30.5 134.0 35.5Q134.0 39.0 136.0 46.0Q138.0 53.0 142.5 63.0Q146.5 74.0 149.0 87.0Q151.5 100.0 152.0 107.0V109.0Q156.5 109.0 164.5 79.0Q170.5 60.5 175.0 46.75Q179.5 33.0 180.0 31.0ZM219.5 50.5Q216.0 38.5 213.25 30.5Q210.5 22.5 209.5 22.5Q204.5 22.5 197.75 36.25Q191.0 50.0 184.5 71.25Q178.0 92.5 174.0 115.5Q170.0 138.5 170.0 157.5V199.0H206.5Q227.5 199.0 236.25 197.0Q245.0 195.0 247.0 190.0Q247.0 168.5 242.75 143.75Q238.5 119.0 232.25 94.75Q226.0 70.5 219.5 50.5ZM276.5 37.0Q277.5 35.0 278.0 34.0Q278.5 33.0 278.5 32.5Q278.5 30.0 273.5 29.5Q268.5 29.0 256.5 29.0Q247.0 29.0 240.0 29.5Q233.0 30.0 233.0 31.0Q233.0 33.0 235.75 46.25Q238.5 59.5 243.0 77.0L252.5 115.5Q258.0 95.5 264.0 76.0Q270.0 56.5 276.5 37.0ZM114.5 24.0Q113.5 21.0 113.5 19.0Q113.5 14.5 120.5 12.25Q127.5 10.0 149.5 10.0Q156.5 10.0 173.25 10.25Q190.0 10.5 211.0 11.25Q232.0 12.0 252.0 12.75Q272.0 13.5 285.75 14.5Q299.5 15.5 300.5 16.5V17.5Q300.5 21.0 296.0 33.5Q291.5 46.0 284.5 62.0Q279.5 75.0 276.0 84.75Q272.5 94.5 270.75 106.5Q269.0 118.5 268.0 137.5Q267.0 156.5 266.5 187.25Q266.0 218.0 265.5 266.0Q265.0 310.5 264.5 348.5Q264.0 386.5 263.75 410.0Q263.5 433.5 263.5 435.5Q263.5 446.0 256.0 446.0Q252.5 446.0 250.5 414.25Q248.5 382.5 248.5 325.5V208.5L235.5 211.5Q230.0 212.5 218.5 213.75Q207.0 215.0 196.0 215.0H170.0V328.5Q170.0 384.5 168.0 415.25Q166.0 446.0 163.5 446.0Q160.0 446.0 157.75 415.25Q155.5 384.5 155.5 328.5V215.0L140.5 211.5Q139.5 211.0 136.0 211.0Q124.5 211.0 105.75 220.0Q87.0 229.0 68.0 243.25Q49.0 257.5 35.5 273.0Q27.5 282.5 21.0 289.0Q14.5 295.5 12.0 295.5H11.0Q10.0 293.5 10.0 274.0Q10.0 261.5 10.25 242.75Q10.5 224.0 11.0 202.0Q14.0 112.5 21.5 112.5Q24.0 112.5 25.5 116.5Q27.0 120.5 29.5 128.5Q30.5 135.0 38.75 146.75Q47.0 158.5 56.5 169.0Q66.5 179.0 74.0 184.5Q81.5 190.0 91.75 192.0Q102.0 194.0 120.0 194.0Q126.0 194.0 133.5 193.75Q141.0 193.5 149.0 193.0Q150.0 192.0 150.0 186.5Q150.0 174.5 145.25 148.75Q140.5 123.0 132.5 89.75Q124.5 56.5 114.5 24.0ZM274.0 204.0Q274.0 184.0 274.75 167.25Q275.5 150.5 276.75 140.25Q278.0 130.0 280.0 130.0Q282.0 130.0 288.25 138.25Q294.5 146.5 301.5 157.0Q307.0 167.5 315.0 176.75Q323.0 186.0 328.5 188.5Q331.5 190.0 343.75 191.5Q356.0 193.0 373.5 193.75Q391.0 194.5 410.5 195.0Q429.5 195.5 445.75 196.25Q462.0 197.0 471.75 198.5Q481.5 200.0 481.5 202.0Q481.5 205.0 470.25 207.75Q459.0 210.5 442.75 212.0Q426.5 213.5 411.5 213.5Q405.0 213.5 399.25 213.5Q393.5 213.5 389.0 213.0Q387.5 212.5 385.25 212.5Q383.0 212.5 380.5 212.5Q362.0 212.5 339.25 225.25Q316.5 238.0 300.0 258.5Q293.0 266.5 286.5 272.25Q280.0 278.0 279.0 278.0Q277.0 278.0 275.5 256.25Q274.0 234.5 274.0 204.0Z" fill="black" /></svg>