<svg xmlns="http://www.w3.org/2000/svg" width="416.0" height="449.0" viewBox="0 0 416.0 449.0"><path d="M157.0 26.0Q157.0 25.5 144.5 24.75Q132.0 24.0 114.5 24.0H73.5Q83.5 41.0 92.75 59.0Q102.0 77.0 108.0 95.0L116.0 114.0L123.5 91.5Q127.5 81.5 133.75 68.5Q140.0 55.5 145.0 47.0Q150.0 40.0 153.5 33.5Q157.0 27.0 157.0 26.0ZM96.5 336.0Q91.5 330.0 85.25 321.5Q79.0 313.0 75.0 308.0L68.5 296.5L63.0 318.5Q61.0 328.5 55.75 345.75Q50.5 363.0 45.5 377.0Q41.5 389.5 39.25 398.75Q37.0 408.0 36.5 411.0Q42.5 411.0 55.5 403.0Q64.0 398.0 80.5 391.75Q97.0 385.5 113.5 380.5L148.0 371.0L131.0 361.5Q121.5 356.5 111.75 349.25Q102.0 342.0 96.5 336.0ZM51.5 11.5V12.0Q52.5 10.5 65.0 10.25Q77.5 10.0 95.0 10.0Q114.5 10.0 134.75 10.25Q155.0 10.5 169.25 11.25Q183.5 12.0 184.5 13.5L185.0 15.0Q185.0 17.0 181.0 23.5Q177.0 30.0 170.0 38.5Q158.0 52.0 150.25 63.25Q142.5 74.5 138.25 88.5Q134.0 102.5 132.5 123.75Q131.0 145.0 131.0 179.0Q131.0 189.0 131.25 201.0Q131.5 213.0 131.5 226.0Q131.5 257.0 132.0 283.75Q132.5 310.5 133.25 327.75Q134.0 345.0 134.5 348.0Q140.5 352.5 183.25 360.5Q226.0 368.5 298.5 378.5Q327.5 382.5 352.0 387.0Q376.5 391.5 391.25 395.0Q406.0 398.5 406.0 400.0Q406.0 402.5 404.0 403.75Q402.0 405.0 396.5 405.0Q387.0 405.0 361.5 401.75Q336.0 398.5 283.0 391.0L179.5 376.5L136.5 389.0Q123.5 392.5 108.0 398.25Q92.5 404.0 77.75 410.25Q63.0 416.5 52.0 422.0Q37.0 428.5 25.25 433.75Q13.5 439.0 11.5 439.0H10.0V437.5Q10.0 435.5 12.25 428.25Q14.5 421.0 18.0 412.5Q22.0 406.0 26.75 392.75Q31.5 379.5 37.0 362.5Q42.5 345.5 47.0 329.0Q65.0 263.0 72.5 263.0Q75.5 263.0 77.0 275.0Q77.5 279.5 81.75 288.25Q86.0 297.0 92.25 306.25Q98.5 315.5 104.75 322.75Q111.0 330.0 114.5 331.5H115.0Q117.5 331.0 118.5 313.5Q119.5 296.0 119.5 251.0Q119.5 221.0 119.0 202.75Q118.5 184.5 117.0 172.25Q115.5 160.0 112.0 148.25Q108.5 136.5 103.0 120.0Q95.0 97.0 85.75 75.5Q76.5 54.0 68.25 38.75Q60.0 23.5 54.5 20.0Q51.0 18.5 51.0 15.0Q51.0 14.0 51.25 13.0Q51.5 12.0 51.5 11.5Z" fill="black" /></svg>