<svg xmlns="http://www.w3.org/2000/svg" width="798.0" height="452.0" viewBox="0 0 798.0 452.0"><path d="M108.5 305.0Q107.5 297.5 105.0 294.5Q102.5 291.5 100.0 291.0Q95.0 291.0 85.0 299.0Q79.5 304.0 76.0 307.5Q72.5 311.0 72.5 312.0Q72.5 315.0 92.0 315.0Q110.0 315.0 110.0 310.0Q110.0 309.0 109.5 307.5Q109.0 306.0 108.5 305.0ZM156.5 222.5Q156.5 219.0 154.0 219.0Q148.5 219.0 141.5 225.5Q134.5 232.0 134.5 237.5Q134.5 246.0 149.0 246.0Q156.0 246.0 158.75 245.25Q161.5 244.5 161.5 242.5Q161.5 242.0 161.25 241.25Q161.0 240.5 160.0 238.5L159.5 236.5Q159.0 232.0 157.75 228.5Q156.5 225.0 156.5 222.5ZM234.5 295.5Q199.5 279.5 172.75 271.25Q146.0 263.0 131.0 263.0Q124.0 263.0 121.0 265.25Q118.0 267.5 118.0 275.5Q118.0 285.5 121.25 297.25Q124.5 309.0 130.5 316.0Q132.0 318.0 142.75 324.5Q153.5 331.0 169.75 339.75Q186.0 348.5 204.5 357.75Q223.0 367.0 240.0 375.25Q257.0 383.5 269.25 388.75Q281.5 394.0 285.0 394.5Q285.0 391.0 286.5 385.0Q287.0 380.0 287.75 373.25Q288.5 366.5 290.5 359.0L294.0 324.0Q289.0 321.5 276.5 315.75Q264.0 310.0 251.75 304.0Q239.5 298.0 234.5 295.5ZM206.5 167.5Q206.5 163.5 203.75 161.25Q201.0 159.0 197.5 159.0Q195.5 159.0 194.0 159.5Q192.0 161.5 191.5 163.25Q191.0 165.0 191.0 166.0Q191.0 170.5 198.0 170.5Q206.5 170.5 206.5 167.5ZM256.5 212.5Q231.0 199.5 214.0 193.75Q197.0 188.0 187.5 188.0Q176.5 188.0 174.5 194.0Q172.5 200.0 171.5 209.5Q172.0 218.0 173.75 227.0Q175.5 236.0 178.0 242.0V241.5Q179.5 244.5 191.0 252.0Q202.5 259.5 218.75 268.75Q235.0 278.0 251.5 286.75Q268.0 295.5 280.75 301.25Q293.5 307.0 297.0 307.0L298.0 306.0Q298.5 302.0 300.25 292.5Q302.0 283.0 302.5 271.5L307.0 236.5Q303.0 234.5 292.5 229.5Q282.0 224.5 271.5 219.5Q261.0 214.5 256.5 212.5ZM324.5 244.5Q324.5 243.5 323.5 243.5Q321.0 243.5 321.0 244.5Q321.0 246.0 323.5 246.0Q324.5 246.0 324.5 244.5ZM520.0 241.0 530.5 237.0 520.0 231.5Q512.5 227.0 509.5 227.0Q505.5 227.0 503.75 232.25Q502.0 237.5 502.0 241.0Q502.0 244.5 506.5 244.5Q509.0 244.5 512.5 243.5Q516.0 242.5 520.0 241.0ZM255.0 94.0Q260.5 94.0 266.25 88.75Q272.0 83.5 272.0 78.0Q272.0 76.0 270.5 76.0Q266.0 76.0 260.0 83.5Q256.5 85.5 255.25 88.5Q254.0 91.5 254.0 94.0ZM300.0 128.5Q284.5 119.5 275.75 115.25Q267.0 111.0 260.0 111.0Q251.5 111.0 241.0 116.25Q230.5 121.5 223.25 129.75Q216.0 138.0 216.0 147.5Q216.0 155.5 222.0 166.0Q223.5 169.5 234.5 177.5Q245.5 185.5 260.0 194.0Q274.5 202.5 286.75 208.75Q299.0 215.0 303.0 215.0Q305.5 211.0 309.25 199.25Q313.0 187.5 316.0 174.5Q319.0 161.5 319.0 154.5Q319.0 140.5 300.0 128.5ZM342.5 157.0Q342.5 155.5 338.5 155.5Q337.5 155.5 336.25 156.25Q335.0 157.0 335.0 157.0L336.0 157.5H335.0Q336.5 158.0 338.5 158.0Q341.0 158.0 342.5 157.0ZM539.5 152.5Q529.0 145.0 525.0 145.0Q520.0 145.0 520.0 158.0Q520.0 168.0 525.0 168.0Q527.5 168.0 532.25 166.25Q537.0 164.5 541.25 162.5Q545.5 160.5 545.5 159.0Q545.5 156.0 539.5 152.5ZM284.5 395.0V395.5Q284.5 395.5 284.5 395.5Q284.5 395.5 284.5 395.0ZM316.0 398.5Q314.5 393.0 307.5 393.0Q302.0 393.0 302.0 398.0Q302.0 399.0 304.75 400.5Q307.5 402.0 311.0 402.0Q316.5 402.0 316.5 399.5Q316.5 398.5 316.0 398.5ZM322.5 311.5V311.0Q320.5 306.0 316.5 306.0Q315.0 306.0 315.0 310.5Q315.0 312.5 316.75 313.75Q318.5 315.0 320.5 315.0Q323.0 315.0 323.0 313.0Q323.0 313.0 323.0 312.5Q323.0 312.0 322.5 311.5ZM485.0 292.5V282.0Q485.0 269.5 483.5 263.25Q482.0 257.0 476.0 254.5Q470.0 252.0 456.0 252.0Q440.5 252.0 425.5 252.75Q410.5 253.5 395.5 254.5Q363.0 256.0 347.5 258.25Q332.0 260.5 326.5 267.0Q321.5 271.5 318.75 274.0Q316.0 276.5 316.0 279.0Q316.0 285.5 335.0 295.5Q342.5 300.5 351.5 303.5Q360.5 306.5 376.0 307.75Q391.5 309.0 418.0 309.0Q480.0 309.0 480.0 316.0V318.5Q477.0 321.0 455.25 322.5Q433.5 324.0 402.5 324.0Q367.0 324.5 352.75 325.25Q338.5 326.0 338.5 327.5Q338.5 328.5 339.5 330.5Q348.5 336.0 348.5 341.5Q348.5 343.0 347.0 344.75Q345.5 346.5 342.5 346.5Q337.5 346.5 331.0 342.5Q329.0 341.5 326.25 341.25Q323.5 341.0 322.0 341.0Q314.5 341.0 309.5 346.0Q304.5 351.0 303.5 358.0Q303.5 371.5 314.0 379.0Q324.5 386.5 340.0 389.75Q355.5 393.0 370.5 393.75Q385.5 394.5 394.5 394.5H409.5L472.0 393.0L469.5 369.5V365.5Q469.5 355.0 471.75 347.5Q474.0 340.0 478.5 337.5V338.0Q482.5 335.0 484.25 327.75Q486.0 320.5 486.0 306.5Q486.0 304.0 485.5 300.25Q485.0 296.5 485.0 292.5ZM505.5 390.0Q492.0 381.5 486.5 381.5Q482.5 381.5 482.5 392.0Q482.5 401.5 487.5 401.5Q489.0 401.5 490.75 400.75Q492.5 400.0 495.5 399.0Q501.0 398.0 506.5 397.0Q512.0 396.0 515.0 395.5Q514.0 394.5 511.5 393.25Q509.0 392.0 505.5 390.0ZM525.0 312.0Q517.0 306.0 509.5 306.0Q501.0 306.0 501.0 314.0Q501.0 319.5 506.5 319.5Q507.0 319.5 508.0 319.5Q509.0 319.5 509.5 319.0Q515.0 317.5 520.0 316.25Q525.0 315.0 527.5 315.0H529.5Q529.5 315.0 528.25 314.0Q527.0 313.0 525.0 312.0ZM294.0 17.0Q294.0 10.0 304.5 10.0Q311.0 10.0 311.0 14.5Q311.0 17.0 308.5 22.25Q306.0 27.5 302.0 35.5Q295.0 48.5 290.0 63.25Q285.0 78.0 285.0 91.5Q285.0 100.0 294.75 107.5Q304.5 115.0 312.5 115.0Q316.0 115.0 317.0 111.5Q321.0 103.0 324.5 103.0Q331.0 103.0 336.5 118.5Q341.0 138.0 363.5 145.5Q386.0 153.0 438.5 153.0Q467.5 153.0 483.25 154.5Q499.0 156.0 499.0 160.0V160.5Q496.5 165.5 474.75 167.25Q453.0 169.0 421.5 169.0Q396.5 169.0 381.75 169.25Q367.0 169.5 359.0 171.0Q351.0 172.5 346.25 175.5Q341.5 178.5 336.0 184.0Q323.0 198.5 323.0 206.5Q323.0 219.0 345.0 229.5Q356.0 234.5 368.75 236.75Q381.5 239.0 405.5 239.0Q410.5 239.0 416.25 238.75Q422.0 238.5 428.5 238.5L490.5 236.5L488.5 215.5Q488.0 212.0 488.0 209.5Q488.0 207.0 488.0 205.0Q488.0 190.0 497.0 190.0Q502.0 190.0 503.5 181.25Q505.0 172.5 505.0 146.5V97.5L522.0 117.5Q531.0 128.5 542.0 135.75Q553.0 143.0 570.0 146.5Q587.0 150.0 614.5 151.5Q642.0 153.0 684.0 153.0Q713.5 153.0 737.0 153.75Q760.5 154.5 774.25 156.0Q788.0 157.5 788.0 160.0Q788.0 162.0 772.25 164.25Q756.5 166.5 730.0 168.0Q703.5 169.5 671.0 170.0Q625.5 170.5 597.25 172.25Q569.0 174.0 553.0 177.0Q537.0 180.0 529.25 185.75Q521.5 191.5 516.0 200.5Q514.0 203.0 512.75 205.0Q511.5 207.0 511.5 208.5Q511.5 210.5 515.75 213.25Q520.0 216.0 530.5 221.0Q539.0 224.0 553.75 226.5Q568.5 229.0 594.5 230.5Q620.5 232.0 662.5 233.5Q691.0 234.5 713.75 236.25Q736.5 238.0 750.0 239.75Q763.5 241.5 763.5 243.0L762.5 244.5Q760.0 245.5 741.75 247.25Q723.5 249.0 696.0 250.0Q668.5 251.0 636.5 251.0Q573.0 252.5 545.0 254.5Q517.0 256.5 511.5 262.0Q503.0 268.5 503.0 274.5Q503.0 283.5 525.0 293.5Q532.0 297.0 540.75 299.5Q549.5 302.0 563.25 303.5Q577.0 305.0 599.25 305.75Q621.5 306.5 655.0 306.5Q684.5 307.5 709.0 309.0Q733.5 310.5 748.25 312.5Q763.0 314.5 763.0 317.0Q763.0 319.0 747.0 320.75Q731.0 322.5 704.5 323.75Q678.0 325.0 645.5 326.0Q607.0 326.5 583.0 327.25Q559.0 328.0 545.25 329.25Q531.5 330.5 523.5 333.25Q515.5 336.0 509.0 341.0Q501.5 345.0 496.25 349.5Q491.0 354.0 491.0 357.0Q492.0 359.0 500.25 364.25Q508.5 369.5 520.0 374.5Q529.5 379.5 538.0 382.5Q546.5 385.5 559.0 387.0Q571.5 388.5 592.75 388.75Q614.0 389.0 648.5 389.0Q697.0 389.0 722.25 391.0Q747.5 393.0 747.5 398.0V398.5Q745.5 401.5 715.75 403.5Q686.0 405.5 639.0 405.5Q586.0 405.5 553.0 407.5Q520.0 409.5 503.75 414.25Q487.5 419.0 484.0 427.0Q480.5 436.0 475.5 436.0Q473.0 436.0 470.5 432.5Q468.0 429.0 468.0 421.5Q468.0 416.0 464.0 414.0Q460.0 412.0 438.5 412.0Q430.0 412.0 418.5 412.0Q407.0 412.0 391.5 413.0Q364.0 413.5 347.75 414.25Q331.5 415.0 323.0 416.5Q314.5 418.0 310.5 420.75Q306.5 423.5 303.5 428.0Q293.5 442.0 287.5 442.0Q283.5 442.0 283.5 436.0Q283.5 434.5 283.75 432.5Q284.0 430.5 284.5 428.0Q285.0 427.0 285.0 425.5Q285.0 421.5 278.5 416.0Q272.0 410.5 254.5 401.25Q237.0 392.0 203.5 376.0Q177.5 363.0 160.5 355.0Q143.5 347.0 131.75 342.5Q120.0 338.0 110.75 336.5Q101.5 335.0 91.5 335.0H83.5Q69.5 335.0 54.25 336.25Q39.0 337.5 30.5 339.5H31.0Q26.0 340.5 21.0 341.75Q16.0 343.0 11.0 345.0L10.0 341.5L34.0 323.5Q36.0 321.5 44.0 314.5Q52.0 307.5 62.0 298.75Q72.0 290.0 80.25 282.5Q88.5 275.0 91.0 271.5Q89.5 271.5 87.5 271.75Q85.5 272.0 83.0 273.0Q81.0 273.5 78.5 273.5Q75.0 273.5 75.0 269.5Q75.0 267.0 81.5 259.75Q88.0 252.5 103.0 239.0Q115.0 227.0 130.75 210.25Q146.5 193.5 161.0 176.5Q175.5 159.5 185.25 147.25Q195.0 135.0 195.0 132.0Q195.0 130.0 209.25 113.25Q223.5 96.5 244.5 75.0Q258.0 60.5 269.25 47.5Q280.5 34.5 287.25 26.25Q294.0 18.0 294.0 17.0Z" fill="black" /></svg>