<svg xmlns="http://www.w3.org/2000/svg" width="385.0" height="455.5" viewBox="0 0 385.0 455.5"><path d="M131.0 278.5 154.0 298.5 193.0 258.5H112.0ZM106.0 90.5V89.0Q104.5 79.0 103.0 72.75Q101.5 66.5 100.0 66.0Q98.5 66.5 90.75 74.5Q83.0 82.5 73.75 92.75Q64.5 103.0 57.5 111.5Q50.5 120.0 50.5 121.5Q50.5 121.0 54.5 121.0Q57.0 121.0 60.25 120.75Q63.5 120.5 67.0 120.0Q92.0 116.0 99.5 113.75Q107.0 111.5 107.0 103.0Q107.0 100.5 106.75 97.25Q106.5 94.0 106.0 90.5ZM235.0 205.0 231.5 174.0Q229.5 161.0 228.0 151.5Q226.5 142.0 226.0 141.5Q225.5 141.5 217.5 150.0Q209.5 158.5 199.0 170.5Q188.5 182.5 180.0 194.0Q174.0 200.5 174.0 202.5Q174.0 203.5 180.0 203.75Q186.0 204.0 201.0 205.0ZM73.5 242.0Q73.5 237.5 86.0 237.5Q90.0 237.5 94.0 237.75Q98.0 238.0 103.0 239.0Q111.0 240.0 125.75 240.75Q140.5 241.5 157.75 242.0Q175.0 242.5 190.5 242.5Q215.5 242.5 232.75 244.25Q250.0 246.0 250.0 249.5Q250.0 252.0 241.75 256.75Q233.5 261.5 222.5 267.0Q204.0 274.5 192.75 281.75Q181.5 289.0 175.5 300.0Q169.5 311.0 167.5 329.0Q165.5 347.0 164.5 376.0Q163.0 405.0 160.5 425.25Q158.0 445.5 155.0 445.5Q152.0 445.5 150.25 427.25Q148.5 409.0 148.5 383.0Q148.5 356.0 147.5 342.25Q146.5 328.5 143.0 320.25Q139.5 312.0 132.0 302.0Q126.0 293.0 115.5 282.0Q105.0 271.0 96.0 265.0Q86.5 258.0 80.0 251.25Q73.5 244.5 73.5 242.0ZM91.5 49.0Q122.0 10.0 130.5 10.0Q134.5 10.0 134.5 15.0Q134.5 19.5 128.0 33.5Q122.5 43.0 121.25 54.75Q120.0 66.5 120.0 77.5Q121.5 88.5 124.0 95.5Q126.5 102.5 133.75 110.0Q141.0 117.5 156.0 130.0L188.0 157.0L218.0 125.5H217.0Q228.5 113.0 237.5 105.25Q246.5 97.5 250.0 97.5Q250.5 97.5 251.5 98.5Q253.0 100.5 253.0 103.5Q253.0 106.0 252.0 109.0Q251.0 112.0 250.0 115.0Q246.5 119.5 245.25 128.25Q244.0 137.0 244.0 147.0Q244.0 160.0 246.25 172.5Q248.5 185.0 252.5 190.5Q254.0 194.0 264.0 202.5Q274.0 211.0 289.0 222.5Q304.0 234.0 320.5 246.5Q344.0 262.5 359.5 276.5Q375.0 290.5 375.0 293.5L373.5 295.0H371.5Q368.0 295.0 358.25 290.0Q348.5 285.0 338.0 278.0Q309.5 257.5 293.0 246.25Q276.5 235.0 266.75 229.5Q257.0 224.0 248.5 222.0Q243.0 221.0 236.5 220.5Q230.0 220.0 221.0 219.5Q204.5 219.5 188.0 220.5Q171.5 221.5 155.5 224.0L122.5 229.5L154.0 198.5Q164.0 187.0 171.75 178.5Q179.5 170.0 179.5 169.0Q179.5 168.0 171.25 161.5Q163.0 155.0 151.5 146.5Q138.5 137.5 130.75 133.75Q123.0 130.0 113.5 130.0Q96.5 130.0 77.25 134.5Q58.0 139.0 41.5 143.5Q31.5 147.0 24.75 149.25Q18.0 151.5 14.5 151.5Q10.0 151.5 10.0 147.5Q10.0 144.0 15.5 137.5Q21.0 131.0 31.0 120.0Q38.5 111.5 49.0 99.25Q59.5 87.0 70.75 73.75Q82.0 60.5 91.5 49.0Z" fill="black" /></svg>