<svg xmlns="http://www.w3.org/2000/svg" width="501.0" height="464.5" viewBox="0 0 501.0 464.5"><path d="M90.0 114.0Q84.5 113.5 74.75 113.5Q65.0 113.5 55.5 113.25Q46.0 113.0 40.0 113.0H38.5Q39.5 117.0 43.25 124.25Q47.0 131.5 51.0 140.0L62.5 166.5L68.0 151.5Q70.5 143.0 75.5 134.25Q80.5 125.5 84.5 120.0Q88.5 116.5 90.0 114.0ZM179.5 235.5 179.0 234.0Q179.0 234.0 175.75 231.75Q172.5 229.5 168.5 227.0Q166.5 225.5 164.0 223.75Q161.5 222.0 159.0 219.5V221.5L142.5 210.5V254.5Q146.5 251.5 151.0 248.75Q155.5 246.0 159.5 243.0Q165.0 240.5 171.75 238.0Q178.5 235.5 179.5 235.5ZM152.0 109.5 119.5 96.5V98.0Q119.5 98.0 117.75 101.25Q116.0 104.5 111.5 109.5Q110.0 113.0 106.75 117.25Q103.5 121.5 101.0 126.0L80.0 155.5L79.0 250.5V272.0Q78.5 283.0 78.25 291.5Q78.0 300.0 78.0 307.0Q78.0 330.5 81.25 338.0Q84.5 345.5 95.0 346.5Q99.5 344.5 106.0 344.25Q112.5 344.0 117.5 344.0Q134.0 343.5 154.5 337.75Q175.0 332.0 204.75 318.75Q234.5 305.5 278.5 283.5L356.0 245.0Q323.5 214.5 292.5 190.5Q261.5 166.5 227.5 146.75Q193.5 127.0 152.0 109.5ZM179.5 55.5Q179.5 49.0 175.5 49.0Q167.0 49.0 154.0 67.0Q146.5 75.5 143.5 80.0Q140.5 84.5 140.5 87.0Q140.5 88.0 145.0 89.75Q149.5 91.5 154.25 93.25Q159.0 95.0 159.5 96.0Q162.5 97.5 172.0 101.25Q181.5 105.0 192.25 109.25Q203.0 113.5 211.25 116.75Q219.5 120.0 220.5 120.0Q220.0 120.0 214.25 112.75Q208.5 105.5 200.0 94.5Q192.0 81.5 185.75 70.25Q179.5 59.0 179.5 55.5ZM174.5 352.0Q174.5 350.0 172.0 350.0Q168.0 350.0 155.5 355.5Q150.0 357.5 137.75 359.25Q125.5 361.0 112.0 361.0Q94.5 361.0 86.75 364.0Q79.0 367.0 79.0 375.5Q79.0 379.0 80.0 383.75Q81.0 388.5 83.0 395.0Q92.5 417.5 99.0 417.5Q104.5 417.5 121.5 399.5Q132.5 388.5 143.5 378.25Q154.5 368.0 159.5 364.0Q166.0 361.0 170.25 357.25Q174.5 353.5 174.5 352.0ZM126.5 226.5Q126.0 221.0 125.75 215.75Q125.5 210.5 125.5 206.0Q125.5 192.0 127.0 183.25Q128.5 174.5 131.5 174.5Q133.0 174.5 138.5 178.75Q144.0 183.0 149.0 190.0Q158.5 202.0 171.0 209.0Q183.5 216.0 204.5 219.5Q225.5 223.0 260.5 225.0Q290.0 226.5 310.0 230.0Q330.0 233.5 330.0 237.5Q330.0 243.0 301.0 243.0Q294.5 243.0 286.75 243.0Q279.0 243.0 269.5 242.5Q262.5 242.5 255.75 242.25Q249.0 242.0 243.5 242.0Q222.0 242.0 206.25 244.5Q190.5 247.0 177.5 253.0Q164.5 259.0 151.0 269.5Q140.0 279.0 134.0 279.0Q131.5 279.0 129.25 263.5Q127.0 248.0 126.5 226.5ZM165.5 23.5Q168.0 10.0 174.0 10.0Q175.0 10.0 180.75 21.75Q186.5 33.5 194.5 49.5Q201.5 64.5 213.5 83.25Q225.5 102.0 236.0 113.5Q246.0 124.5 262.25 139.5Q278.5 154.5 296.75 170.75Q315.0 187.0 332.0 201.0Q349.0 215.0 360.5 223.75Q372.0 232.5 374.5 232.5Q377.0 232.5 394.0 225.0Q411.0 217.5 433.0 206.5Q453.5 196.5 468.75 190.5Q484.0 184.5 488.0 184.5H491.0V186.5Q491.0 190.5 476.0 200.25Q461.0 210.0 440.5 221.5Q419.5 230.5 404.0 238.25Q388.5 246.0 388.5 247.0Q388.5 247.5 401.5 259.0Q414.5 270.5 431.5 285.5Q476.0 322.5 478.5 333.5Q477.5 334.5 476.25 336.25Q475.0 338.0 472.5 338.0Q472.0 338.0 456.5 326.0Q441.0 314.0 421.0 296.5L374.0 258.0L311.5 287.0Q260.0 310.5 213.25 343.5Q166.5 376.5 125.5 417.5Q110.0 433.5 97.25 444.0Q84.5 454.5 84.0 454.5Q82.5 454.5 81.0 449.5Q79.5 444.5 79.5 437.5Q79.5 430.5 75.25 416.0Q71.0 401.5 64.0 386.5Q58.0 374.0 55.5 365.75Q53.0 357.5 53.0 353.5Q53.0 349.5 54.25 347.75Q55.5 346.0 57.5 345.5Q60.0 344.5 61.25 328.75Q62.5 313.0 62.5 280.0Q62.5 244.0 59.0 217.75Q55.5 191.5 46.75 169.5Q38.0 147.5 23.0 124.0L19.5 117.5Q15.5 110.0 12.75 104.75Q10.0 99.5 10.0 98.5Q10.0 94.0 23.5 94.0Q30.5 94.0 38.0 94.5Q45.5 95.0 54.5 96.0L97.5 99.5Q100.0 96.5 106.75 89.75Q113.5 83.0 120.25 76.25Q127.0 69.5 130.0 67.0Q143.0 53.5 153.25 40.5Q163.5 27.5 165.5 23.5Z" fill="black" /></svg>