<svg xmlns="http://www.w3.org/2000/svg" width="655.5" height="386.5" viewBox="0 0 655.5 386.5"><path d="M58.5 268.5Q54.0 268.5 46.75 266.5Q39.5 264.5 34.0 261.5L22.5 255.5L25.5 276.5Q26.5 285.0 28.25 293.0Q30.0 301.0 31.0 302.5L31.5 303.0Q37.0 303.0 50.0 287.0Q65.5 271.0 65.5 269.0Q65.5 268.5 58.5 268.5ZM210.0 313.0Q207.5 312.0 198.0 311.25Q188.5 310.5 178.5 309.75Q168.5 309.0 163.0 309.0Q161.0 309.0 161.0 308.5Q161.5 310.0 164.75 316.5Q168.0 323.0 172.25 330.25Q176.5 337.5 180.0 343.0Q183.5 348.5 184.5 348.5Q185.5 347.5 191.25 340.0Q197.0 332.5 203.0 324.25Q209.0 316.0 210.0 313.0ZM88.5 147.5H88.0Q86.0 144.0 82.0 137.0Q78.0 130.0 76.0 123.0L70.5 108.5Q68.0 113.0 64.5 117.75Q61.0 122.5 58.0 127.0Q52.5 135.0 48.5 141.0Q44.5 147.0 44.5 148.0Q44.5 148.5 57.0 148.5Q61.5 148.5 68.5 149.75Q75.5 151.0 80.5 153.0Q84.0 154.5 86.75 155.0Q89.5 155.5 91.0 155.5Q93.5 155.5 93.5 155.0Q93.5 153.0 88.5 147.5ZM184.5 128.5Q181.0 126.0 175.25 125.75Q169.5 125.5 165.5 125.5L166.0 127.0Q168.0 132.0 169.5 140.5L174.5 152.5L181.5 141.0Q186.0 134.0 186.0 131.5Q186.0 130.0 184.5 128.5ZM211.5 210.0Q211.5 207.0 210.0 196.5Q208.5 186.0 206.25 173.25Q204.0 160.5 201.5 150.75Q199.0 141.0 197.0 139.0H196.5Q193.0 139.0 190.75 145.75Q188.5 152.5 187.0 162.0Q185.5 171.5 184.75 179.75Q184.0 188.0 184.0 190.5V205.5L211.5 222.5ZM228.5 127.5Q228.5 126.5 225.0 126.0Q221.5 125.5 216.0 125.5Q205.5 125.5 205.5 127.5Q205.5 128.0 206.5 131.0Q207.5 134.5 209.25 140.25Q211.0 146.0 212.0 151.5L213.5 160.5Q215.5 157.5 219.0 150.5Q222.5 143.5 225.5 136.75Q228.5 130.0 228.5 127.5ZM391.0 196.5 379.0 192.0Q370.0 189.0 363.5 186.5Q357.0 184.0 354.5 183.5Q353.5 183.0 352.5 183.0Q349.5 183.0 349.0 204.0Q349.0 215.0 349.5 219.5Q350.0 224.0 351.5 224.0Q351.5 224.0 354.5 223.0Q358.5 222.0 360.0 221.5Q363.0 220.0 365.5 220.0Q368.0 219.0 377.0 216.75Q386.0 214.5 395.0 212.0Q401.5 210.0 406.75 208.5Q412.0 207.0 415.0 206.0Q413.0 205.0 406.75 202.25Q400.5 199.5 391.0 196.5ZM246.0 89.0H245.5Q244.0 86.5 241.75 78.25Q239.5 70.0 238.5 61.0V61.5L235.5 44.5L215.0 63.5Q207.5 71.5 202.5 77.5Q197.5 83.5 196.5 86.0Q198.0 87.0 206.0 88.0Q214.0 89.0 225.0 89.5Q232.0 90.5 237.0 91.25Q242.0 92.0 244.5 92.0H248.0Q248.0 92.0 246.0 89.0ZM217.5 45.5Q230.0 31.0 239.25 20.5Q248.5 10.0 248.5 10.0Q250.5 10.0 250.5 17.0Q250.5 21.0 250.25 26.75Q250.0 32.5 249.5 39.0Q249.0 43.0 248.75 46.25Q248.5 49.5 248.5 52.5Q248.5 65.0 253.5 75.5Q258.5 86.0 271.75 98.75Q285.0 111.5 310.0 132.0Q330.5 148.5 343.0 158.25Q355.5 168.0 364.75 173.5Q374.0 179.0 384.75 183.0Q395.5 187.0 412.0 192.0Q422.5 195.5 432.0 197.5Q441.5 199.5 455.0 200.75Q468.5 202.0 489.5 202.5Q510.5 203.0 543.5 203.5Q572.0 204.5 595.0 205.5Q618.0 206.5 631.75 207.75Q645.5 209.0 645.5 211.0Q645.5 212.5 630.5 213.5Q615.5 214.5 589.5 215.25Q563.5 216.0 531.0 216.0Q486.0 216.0 458.25 216.75Q430.5 217.5 414.25 219.75Q398.0 222.0 386.75 226.25Q375.5 230.5 363.5 237.5Q355.5 242.0 348.0 245.25Q340.5 248.5 338.0 249.5Q334.5 250.0 320.5 256.25Q306.5 262.5 289.5 272.5Q255.5 290.5 233.0 310.5Q210.5 330.5 196.0 354.5Q184.5 376.5 179.5 376.5Q176.5 376.5 176.5 369.0Q176.5 366.5 171.5 354.5Q166.5 342.5 159.0 329.5Q152.5 316.0 147.5 305.75Q142.5 295.5 142.5 293.5V292.0H144.5Q146.0 292.0 149.0 292.5Q152.0 293.0 156.0 294.0Q157.5 294.5 161.5 295.5Q168.5 297.5 175.5 298.5Q182.5 299.5 188.0 299.5Q196.5 299.5 202.0 298.0Q207.5 296.5 208.5 293.0Q209.5 290.5 210.5 282.25Q211.5 274.0 211.5 266.0L209.5 239.5L193.5 232.0L180.0 236.0Q178.0 239.5 178.0 246.5Q178.0 248.0 178.25 249.75Q178.5 251.5 178.5 253.5V263.0Q178.5 272.5 177.0 278.75Q175.5 285.0 173.0 285.0Q171.5 285.0 169.5 277.75Q167.5 270.5 167.5 259.5Q167.5 239.0 165.0 239.0H164.5Q163.0 239.5 157.5 241.25Q152.0 243.0 144.5 245.5Q113.5 253.5 85.5 271.25Q57.5 289.0 40.0 317.0Q29.0 332.5 24.5 332.5Q20.0 332.5 20.0 319.0Q20.0 314.5 18.5 301.0Q17.0 287.5 14.5 273.5V274.0Q12.5 262.5 11.25 253.25Q10.0 244.0 10.0 240.0Q10.0 237.0 11.0 236.0H11.5Q12.5 236.0 17.75 238.75Q23.0 241.5 29.5 245.5Q37.0 250.5 45.25 253.5Q53.5 256.5 61.0 256.5Q66.5 256.5 79.0 253.5Q91.5 250.5 106.5 246.0Q121.5 241.5 135.5 236.5Q149.5 231.5 159.0 227.25Q168.5 223.0 169.5 221.0Q170.0 220.5 170.0 219.5Q170.0 215.5 161.5 207.75Q153.0 200.0 132.5 186.0Q116.5 174.5 93.0 167.5Q69.5 160.5 47.0 160.5Q38.0 160.5 31.25 159.5Q24.5 158.5 24.5 156.5Q24.5 154.5 29.5 147.0Q34.5 139.5 42.0 129.25Q49.5 119.0 57.25 109.25Q65.0 99.5 71.0 93.0Q77.0 86.5 78.5 86.5H79.0Q80.0 88.0 82.0 92.25Q84.0 96.5 84.0 101.5Q84.0 135.0 133.0 171.5Q146.5 181.0 157.25 188.75Q168.0 196.5 170.0 196.5Q171.5 196.5 171.5 191.5Q171.5 185.0 168.75 173.0Q166.0 161.0 160.5 148.5L159.0 144.5Q155.5 134.5 153.25 128.5Q151.0 122.5 151.0 119.0Q151.0 114.0 156.5 114.0Q158.0 114.0 160.25 114.25Q162.5 114.5 165.5 115.0L168.5 115.5Q172.0 116.0 175.5 116.25Q179.0 116.5 182.0 117.0Q189.0 116.0 189.5 115.5V116.0Q191.0 113.5 198.0 113.5Q202.0 113.5 207.75 114.0Q213.5 114.5 220.0 115.5L247.0 120.5L236.0 142.5Q231.5 149.0 229.0 154.5Q226.5 160.0 225.25 167.75Q224.0 175.5 223.5 189.25Q223.0 203.0 222.5 226.0Q222.5 235.0 222.25 242.5Q222.0 250.0 222.0 256.0Q222.0 274.5 222.75 282.75Q223.5 291.0 225.0 291.0Q227.0 291.0 243.75 282.25Q260.5 273.5 283.0 262.5Q308.0 249.0 319.25 242.25Q330.5 235.5 333.75 231.0Q337.0 226.5 338.0 220.0Q338.5 217.5 338.75 214.5Q339.0 211.5 339.0 208.0Q339.0 203.0 338.75 198.25Q338.5 193.5 338.0 189.0V185.0Q337.0 177.0 334.25 171.5Q331.5 166.0 324.5 159.0Q317.5 152.0 303.0 140.5Q287.0 127.0 276.25 119.25Q265.5 111.5 256.75 108.0Q248.0 104.5 237.5 103.5Q227.0 102.5 211.0 102.5Q191.5 102.5 181.75 100.0Q172.0 97.5 172.0 95.5Q172.0 93.0 174.5 89.75Q177.0 86.5 180.5 84.5Q184.0 82.5 194.75 71.0Q205.5 59.5 217.5 45.5Z" fill="black" /></svg>