<svg xmlns="http://www.w3.org/2000/svg" width="930.0" height="388.0" viewBox="0 0 930.0 388.0"><path d="M39.0 283.0V283.5Q37.0 280.5 34.0 280.5Q31.5 280.5 28.0 283.0Q27.0 284.0 26.25 289.75Q25.5 295.5 25.5 302.0Q25.5 308.5 26.0 314.25Q26.5 320.0 27.0 321.0Q33.0 318.0 43.0 312.5Q53.0 307.0 60.75 301.75Q68.5 296.5 68.5 295.5Q68.5 295.5 65.0 294.5Q61.5 293.5 55.5 292.0H56.0Q50.0 291.0 44.75 288.0Q39.5 285.0 39.0 283.0ZM77.5 246.5Q77.5 244.0 74.5 244.0Q71.5 244.0 71.5 246.5Q71.5 248.5 74.5 248.5Q77.5 248.5 77.5 246.5ZM68.5 141.5Q68.5 141.5 62.75 139.25Q57.0 137.0 48.5 133.5L30.0 126.5L27.0 144.5V145.5Q26.5 150.0 26.5 153.75Q26.5 157.5 26.5 161.0V164.5Q29.5 164.5 36.25 161.5Q43.0 158.5 50.5 154.5Q58.0 150.5 63.25 146.75Q68.5 143.0 68.5 141.5ZM109.5 221.0Q109.5 213.0 108.25 210.5Q107.0 208.0 103.5 208.0H100.5Q86.5 208.5 79.0 213.0Q71.5 217.5 71.5 222.5Q71.5 227.0 77.75 230.75Q84.0 234.5 96.0 234.5Q106.0 234.5 107.75 232.5Q109.5 230.5 109.5 221.0ZM109.5 268.5Q109.5 259.0 108.25 256.0Q107.0 253.0 103.0 253.0Q92.0 253.0 83.0 259.5Q74.0 266.0 74.0 274.0Q74.0 282.0 83.75 285.0Q93.5 288.0 100.5 288.0Q107.0 288.0 108.25 283.75Q109.5 279.5 109.5 268.5ZM236.5 295.5Q236.0 295.5 236.0 295.5Q236.0 295.5 235.5 295.5Q232.0 295.5 224.25 296.5Q216.5 297.5 202.0 300.0L179.0 303.5Q180.5 305.5 184.5 311.25Q188.5 317.0 193.25 323.5Q198.0 330.0 202.0 334.75Q206.0 339.5 207.0 340.0Q209.0 338.5 215.0 329.75Q221.0 321.0 227.5 311.0Q234.0 301.0 236.5 295.5ZM233.0 145.5Q219.5 142.5 213.0 141.0Q206.5 139.5 201.0 139.5Q197.5 139.5 193.75 140.5Q190.0 141.5 184.5 143.0Q179.5 145.0 164.5 146.0Q149.5 147.0 133.5 147.5Q108.0 147.5 94.5 149.25Q81.0 151.0 76.25 156.0Q71.5 161.0 71.5 170.5Q71.5 181.5 76.75 185.25Q82.0 189.0 97.5 189.0Q106.0 189.0 107.75 186.75Q109.5 184.5 109.5 173.0Q109.5 152.5 115.5 152.5Q120.5 152.5 123.0 173.5Q124.0 183.5 124.75 187.0Q125.5 190.5 130.5 190.5Q132.0 190.5 134.0 190.25Q136.0 190.0 138.0 190.0H145.5Q163.0 190.0 163.0 195.0Q163.0 200.5 145.5 202.5L124.0 205.0V237.0L147.5 239.5Q168.5 241.5 168.5 244.0Q168.5 247.0 157.0 249.5H158.0Q152.0 251.0 143.75 252.0Q135.5 253.0 130.5 253.0Q126.5 253.0 124.5 254.25Q122.5 255.5 122.5 260.0Q122.5 261.5 122.75 264.25Q123.0 267.0 123.0 270.0L124.0 287.5L168.5 286.5Q187.5 286.0 206.75 284.0Q226.0 282.0 234.0 280.0L253.0 275.5L249.5 228.5Q248.5 209.0 246.5 194.0Q244.5 179.0 242.5 178.0L241.0 176.5Q237.5 176.5 233.5 191.75Q229.5 207.0 228.0 231.0Q225.5 268.0 220.5 268.0Q215.0 268.0 215.0 233.0Q215.0 207.5 212.75 191.25Q210.5 175.0 207.0 175.0Q204.0 175.0 201.25 184.25Q198.5 193.5 196.75 208.0Q195.0 222.5 195.0 238.5Q195.0 252.5 193.25 261.75Q191.5 271.0 189.0 271.0Q187.0 271.0 184.75 262.75Q182.5 254.5 182.5 242.5Q182.5 229.0 181.0 213.75Q179.5 198.5 177.0 184.25Q174.5 170.0 171.5 161.0L167.0 146.0L184.5 155.5Q194.0 161.0 197.5 161.0Q200.0 161.0 203.5 156.5Q209.0 150.5 211.0 150.5Q213.5 150.5 218.0 155.5Q221.5 161.0 228.0 161.0Q233.5 161.0 237.0 155.5Q240.5 149.0 242.5 149.0Q243.5 149.0 245.0 150.75Q246.5 152.5 249.5 155.0Q255.0 161.5 264.5 161.5Q266.0 161.5 267.75 161.0Q269.5 160.5 269.5 159.5Q269.5 155.5 262.0 152.75Q254.5 150.0 233.0 145.5ZM318.0 187.5Q305.5 181.0 295.0 175.75Q284.5 170.5 282.0 170.5Q274.0 170.5 268.75 189.25Q263.5 208.0 263.5 234.5Q263.5 248.0 263.75 257.25Q264.0 266.5 264.5 266.5Q265.5 266.5 274.0 260.25Q282.5 254.0 295.0 245.5Q306.5 236.0 318.5 227.0Q330.5 218.0 335.5 215.0Q347.5 209.0 347.5 206.5Q347.5 205.5 338.75 199.75Q330.0 194.0 318.0 187.5ZM379.5 300.5H379.0Q369.0 298.0 360.5 296.0Q352.0 294.0 351.5 294.0Q349.5 294.0 347.75 302.25Q346.0 310.5 345.0 320.0Q344.0 329.5 344.0 334.0Q344.0 338.5 345.5 338.5H346.0Q350.5 336.5 363.25 333.75Q376.0 331.0 392.0 328.25Q408.0 325.5 424.0 323.0Q440.0 320.5 451.0 319.5Q463.5 317.5 472.0 316.5Q480.5 315.5 480.5 315.0Q480.5 314.0 470.0 312.75Q459.5 311.5 444.0 310.5Q428.5 309.5 409.75 306.5Q391.0 303.5 379.5 300.5ZM217.5 99.0V100.0Q215.0 92.5 212.0 92.5Q211.0 92.5 205.5 99.25Q200.0 106.0 194.5 113.75Q189.0 121.5 187.5 125.0Q188.5 125.0 190.5 125.25Q192.5 125.5 194.5 126.0Q202.5 127.0 210.0 128.0Q217.5 129.0 225.5 129.0Q237.5 129.0 237.5 126.5Q237.5 125.5 235.5 123.25Q233.5 121.0 229.5 117.0Q225.0 113.5 221.5 108.25Q218.0 103.0 217.5 99.0ZM373.0 93.5Q374.0 90.5 374.5 90.5Q374.0 89.5 370.75 88.75Q367.5 88.0 360.0 88.0Q348.0 88.0 347.0 90.5Q347.0 91.0 347.25 91.5Q347.5 92.0 347.5 92.5Q348.5 94.5 350.25 103.5Q352.0 112.5 353.5 123.0Q356.0 140.0 357.0 140.0Q358.0 140.0 364.0 121.0Q366.5 113.0 368.75 104.75Q371.0 96.5 373.0 93.5ZM439.0 149.0Q439.0 146.0 431.5 146.0Q427.0 146.0 425.5 148.75Q424.0 151.5 424.0 160.0Q424.0 165.5 424.5 170.0Q425.0 174.5 425.5 174.5Q427.5 174.5 430.75 169.25Q434.0 164.0 436.5 158.0Q439.0 152.0 439.0 149.0ZM552.0 239.5V243.5Q553.0 242.5 553.0 241.0Q553.0 241.0 553.0 240.5Q553.0 240.0 552.0 239.5ZM520.0 86.5V87.5L521.0 86.0Q519.5 83.5 506.5 83.5Q494.5 83.5 493.5 86.0Q493.5 86.0 493.75 86.25Q494.0 86.5 494.0 87.5Q496.0 94.0 498.5 110.5L500.0 118.5Q502.0 134.0 503.5 134.0Q506.0 134.0 512.0 113.5Q514.5 105.5 516.75 97.75Q519.0 90.0 520.0 86.5ZM558.0 202.0 557.5 201.0Q555.5 195.5 550.5 194.5Q550.0 194.5 549.5 194.0Q549.0 193.5 549.0 193.5Q548.5 193.5 548.0 194.0Q547.5 194.5 547.5 194.5L548.5 196.0Q549.5 200.0 554.5 202.0Q555.0 202.0 555.5 202.25Q556.0 202.5 556.5 202.5ZM589.0 216.5V217.5Q587.5 216.5 581.0 215.25Q574.5 214.0 566.0 213.5H559.5Q552.5 213.5 550.0 214.75Q547.5 216.0 547.5 219.0Q547.5 222.5 550.5 224.0Q553.5 225.5 563.0 225.5Q574.0 225.5 581.75 223.25Q589.5 221.0 590.0 218.0Q590.0 218.0 589.5 217.5Q589.0 217.0 589.0 216.5ZM584.0 127.5Q574.5 125.5 565.75 123.75Q557.0 122.0 553.5 120.0Q551.0 118.0 548.5 118.0Q543.0 118.0 543.0 135.5Q543.0 146.5 546.0 147.5Q549.5 147.5 551.5 146.0Q555.5 145.0 565.0 142.5Q574.5 140.0 584.0 138.0Q592.5 135.5 598.25 133.5Q604.0 131.5 604.0 131.0Q604.0 130.5 598.25 129.5Q592.5 128.5 584.0 127.5ZM611.0 208.0H611.5Q611.5 208.0 610.5 207.5Q609.5 207.0 608.0 207.0Q602.5 207.0 602.5 209.5Q602.5 212.0 605.0 212.0Q609.0 212.0 611.0 208.0ZM614.0 229.5V230.0Q610.5 227.5 608.5 227.0Q606.5 226.5 605.0 226.5Q601.5 226.5 599.5 229.5Q599.5 230.0 608.5 230.0H614.5ZM533.5 133.5Q533.5 131.5 532.75 125.0Q532.0 118.5 530.75 112.5Q529.5 106.5 527.5 106.5Q524.5 106.5 521.0 120.5Q517.5 134.5 514.75 156.75Q512.0 179.0 510.0 204.5Q508.0 230.0 508.0 253.0Q508.0 258.0 508.5 262.75Q509.0 267.5 509.0 271.5L510.5 301.5L551.5 303.5Q568.0 304.5 594.75 305.5Q621.5 306.5 653.25 307.0Q685.0 307.5 715.0 307.5Q741.0 307.5 763.0 307.25Q785.0 307.0 799.0 306.75Q813.0 306.5 814.5 306.5Q813.5 305.0 800.5 300.0Q787.5 295.0 767.5 288.25Q747.5 281.5 725.0 274.5Q702.5 267.5 682.0 261.5Q661.5 255.5 648.5 252.5Q631.0 248.5 617.75 246.25Q604.5 244.0 594.5 244.0Q583.5 244.0 575.75 246.75Q568.0 249.5 561.0 254.5Q548.5 266.0 544.5 266.0Q540.0 266.0 540.0 253.0Q540.0 247.5 537.5 245.75Q535.0 244.0 529.5 244.0Q517.0 244.0 517.0 237.5Q517.0 233.5 524.0 222.5Q528.5 217.0 528.5 213.0Q528.5 211.5 526.0 206.5Q521.5 198.0 521.5 195.0Q521.5 190.5 527.5 190.5H532.5Q537.5 190.5 538.5 180.5Q539.5 179.0 539.5 176.0Q539.5 170.5 536.5 170.5Q531.0 170.5 531.0 161.5Q531.0 159.0 531.5 156.5Q532.0 154.0 532.5 150.5Q533.5 146.5 533.5 142.25Q533.5 138.0 533.5 133.5ZM769.0 146.0 788.5 139.5 732.0 138.0H712.0Q687.5 138.0 664.0 139.0Q640.5 140.0 628.5 141.5Q608.5 144.5 590.0 148.75Q571.5 153.0 559.5 157.25Q547.5 161.5 547.5 164.5Q547.5 165.5 552.25 171.25Q557.0 177.0 562.5 184.0Q570.5 191.0 575.0 194.25Q579.5 197.5 585.0 197.5Q594.0 197.5 612.25 193.5Q630.5 189.5 653.5 183.0Q676.5 176.5 699.5 169.25Q722.5 162.0 741.0 155.75Q759.5 149.5 769.0 146.0ZM843.5 147.5Q843.0 144.0 840.5 141.75Q838.0 139.5 835.5 139.5H834.5Q833.0 139.5 820.0 143.25Q807.0 147.0 787.5 153.25Q768.0 159.5 745.5 167.5Q686.5 189.0 653.5 202.25Q620.5 215.5 620.5 219.0Q620.5 220.5 633.5 226.25Q646.5 232.0 667.75 240.25Q689.0 248.5 714.0 257.75Q739.0 267.0 763.75 275.25Q788.5 283.5 808.5 289.5Q823.5 294.0 835.0 298.75Q846.5 303.5 848.0 305.0Q848.5 308.0 850.0 308.0Q853.0 308.0 854.25 298.25Q855.5 288.5 855.5 271.5Q855.5 241.5 851.0 198.0L850.0 190.5Q848.0 176.0 846.25 163.5Q844.5 151.0 843.5 147.5ZM799.0 71.0Q795.5 62.5 792.25 57.0Q789.0 51.5 788.0 51.5Q786.5 51.5 780.0 57.25Q773.5 63.0 767.25 70.0Q761.0 77.0 758.5 81.0Q762.5 82.5 772.25 84.5Q782.0 86.5 792.25 88.0Q802.5 89.5 806.5 89.5Q805.5 84.0 799.0 71.0ZM864.5 152.5H863.5Q859.5 147.5 857.5 147.5Q856.0 147.5 856.0 150.5Q856.0 152.0 856.25 153.75Q856.5 155.5 857.0 157.0Q861.0 177.5 863.0 177.5Q863.0 177.5 863.5 175.75Q864.0 174.0 865.0 170.5Q866.5 165.0 866.5 161.0Q866.5 156.0 864.5 152.5ZM880.5 128.0Q880.0 126.5 875.75 125.75Q871.5 125.0 865.0 125.0H856.0L861.5 131.0Q868.5 138.0 871.0 138.0Q872.5 138.0 876.0 135.5Q880.5 131.0 880.5 128.0ZM405.0 140.0Q399.5 131.0 399.5 127.5Q399.5 124.5 402.0 124.5Q404.0 124.5 408.0 126.5Q410.5 128.5 421.75 129.5Q433.0 130.5 444.0 130.5H450.0Q472.5 130.5 474.0 136.5Q473.5 138.0 471.25 140.0Q469.0 142.0 463.5 144.0Q452.0 147.5 443.75 171.75Q435.5 196.0 431.0 237.5Q430.0 250.0 428.25 263.0Q426.5 276.0 425.5 289.0H422.5L417.5 221.0Q415.5 187.5 412.25 167.75Q409.0 148.0 405.0 140.0ZM727.5 95.5Q727.5 94.0 733.75 86.75Q740.0 79.5 749.5 69.25Q759.0 59.0 769.0 48.5Q779.0 38.0 787.0 29.5Q795.0 21.0 798.0 18.0L806.5 10.0Q806.5 10.0 806.75 11.75Q807.0 13.5 807.0 14.5Q807.0 21.0 805.5 33.0Q805.0 36.0 805.0 38.0Q805.0 40.0 805.0 42.5Q805.0 73.0 834.5 98.5Q842.0 104.5 847.5 107.0Q853.0 109.5 861.5 110.25Q870.0 111.0 886.5 111.0Q902.5 111.0 911.25 113.0Q920.0 115.0 920.0 118.0L919.5 119.5Q917.5 121.0 913.25 123.0Q909.0 125.0 905.0 126.0Q902.5 126.5 898.0 130.25Q893.5 134.0 891.0 138.5Q889.0 142.0 887.5 144.25Q886.0 146.5 886.0 148.5Q886.0 150.5 892.5 157.0Q895.5 160.5 896.75 164.0Q898.0 167.5 898.0 170.0Q898.0 175.0 894.0 175.0Q893.0 175.0 891.5 174.25Q890.0 173.5 887.5 170.5Q885.5 169.0 883.25 167.5Q881.0 166.0 879.0 166.0Q876.5 166.0 874.0 178.25Q871.5 190.5 869.75 209.5Q868.0 228.5 868.0 248.5Q868.0 253.0 868.5 257.25Q869.0 261.5 869.0 266.0L870.5 316.5L851.0 319.5Q846.5 320.0 822.5 320.5Q798.5 321.0 763.25 321.25Q728.0 321.5 688.0 321.5H669.5Q592.0 321.5 533.25 324.75Q474.5 328.0 430.5 334.5Q386.5 341.0 352.0 351.5Q342.0 354.5 335.75 356.25Q329.5 358.0 326.5 358.0Q322.5 358.0 322.5 353.5Q322.5 351.0 323.75 348.5Q325.0 346.0 326.5 342.5Q330.0 335.0 332.0 325.5Q334.0 316.0 334.0 305.0Q334.0 298.5 333.5 292.0Q333.0 285.5 331.0 279.0Q330.5 274.5 330.0 271.75Q329.5 269.0 329.5 267.5Q329.5 263.5 332.0 263.5Q333.0 263.5 334.5 265.0Q336.0 266.5 338.0 268.5Q343.5 277.0 347.5 277.0Q351.5 277.0 351.5 265.0Q351.5 262.5 351.5 259.25Q351.5 256.0 350.5 252.5Q349.0 242.5 347.5 234.25Q346.0 226.0 346.0 225.5V226.5Q344.0 226.5 337.5 230.0Q331.0 233.5 323.0 239.0V238.5Q275.0 273.0 248.25 304.25Q221.5 335.5 217.5 360.0Q215.5 378.0 212.0 378.0Q211.0 378.0 208.0 373.0Q207.0 369.5 199.75 357.75Q192.5 346.0 184.0 333.5L164.5 303.5L135.0 303.0H120.0Q111.0 303.0 104.25 303.0Q97.5 303.0 95.0 303.5Q83.0 304.5 64.75 315.0Q46.5 325.5 33.0 338.5Q27.0 345.0 21.25 348.5Q15.5 352.0 13.0 353.0Q13.0 352.0 11.5 352.0L10.5 351.5Q10.5 351.0 10.25 349.5Q10.0 348.0 10.0 346.0Q10.0 342.5 10.5 337.0Q11.0 331.5 13.0 326.0Q15.5 316.5 16.75 306.25Q18.0 296.0 18.0 287.5Q18.0 269.5 13.5 260.5V261.5Q12.5 258.5 11.5 256.25Q10.5 254.0 10.5 253.0Q10.5 248.5 14.5 248.5Q20.5 248.5 34.0 263.0Q47.0 276.0 55.5 276.0Q56.5 275.0 58.5 274.0Q58.5 273.0 58.0 272.25Q57.5 271.5 57.5 271.0Q56.0 266.0 55.0 252.5Q54.0 239.0 54.0 223.5Q54.0 209.5 55.0 196.75Q56.0 184.0 57.0 178.0Q57.5 175.5 58.0 173.5Q58.5 171.5 58.5 170.0Q58.0 169.0 57.5 167.5Q57.0 166.0 56.0 166.0Q51.5 166.0 35.5 181.0Q20.0 197.5 14.5 197.5Q10.5 197.5 10.5 191.5Q10.5 189.0 10.75 186.25Q11.0 183.5 12.0 180.5Q13.0 175.0 14.5 160.0Q16.0 145.0 16.0 130.5Q16.0 114.5 16.5 104.0Q17.0 93.5 19.0 93.5Q19.0 93.5 23.5 97.25Q28.0 101.0 33.0 107.5Q44.5 119.0 62.75 124.5Q81.0 130.0 100.5 131.75Q120.0 133.5 135.0 133.5L167.5 132.0L219.5 54.0L222.5 76.0Q226.0 97.5 247.75 120.25Q269.5 143.0 315.0 170.5Q325.0 177.0 333.0 180.75Q341.0 184.5 344.5 184.5H345.5Q346.0 184.0 346.0 178.0Q346.0 169.5 344.75 156.25Q343.5 143.0 341.25 128.75Q339.0 114.5 336.25 102.75Q333.5 91.0 331.0 85.0Q325.5 68.5 325.5 63.5Q325.5 59.0 328.0 59.0Q329.0 59.0 331.75 60.25Q334.5 61.5 337.0 65.0Q348.0 74.5 365.5 74.5Q370.5 74.5 376.5 73.25Q382.5 72.0 387.5 70.0Q396.5 67.0 400.5 67.0Q404.0 67.0 404.0 71.0Q404.0 76.0 394.5 85.0Q386.0 93.0 380.0 109.5Q374.0 126.0 370.25 147.25Q366.5 168.5 364.5 190.25Q362.5 212.0 361.75 230.25Q361.0 248.5 361.0 259.0Q361.0 264.5 361.0 268.25Q361.0 272.0 361.5 274.0Q363.0 280.5 371.0 284.75Q379.0 289.0 398.75 291.75Q418.5 294.5 454.0 297.5Q465.5 298.5 472.75 299.25Q480.0 300.0 485.0 300.0Q491.5 300.0 494.5 299.0Q497.5 298.0 498.0 297.0Q498.5 295.5 498.5 286.5Q498.5 268.5 497.75 241.25Q497.0 214.0 495.0 184.25Q493.0 154.5 489.5 128.75Q486.0 103.0 480.5 88.0Q477.0 78.0 475.0 71.75Q473.0 65.5 473.0 62.0Q473.0 57.0 477.0 57.0Q479.5 57.0 486.0 63.0Q495.0 70.0 514.0 70.0Q527.0 70.0 538.0 66.0Q544.0 63.5 547.0 63.5Q552.0 65.0 552.0 68.5Q552.0 70.5 549.25 74.75Q546.5 79.0 541.0 83.5L532.5 90.5L541.0 98.5Q548.5 104.0 558.75 107.75Q569.0 111.5 586.5 114.5Q604.0 117.5 633.0 120.0Q652.5 121.5 680.5 123.0Q708.5 124.5 737.75 125.25Q767.0 126.0 790.0 126.0Q808.0 126.0 819.25 125.5Q830.5 125.0 831.5 124.5Q832.5 123.5 832.5 122.5Q832.5 116.0 822.25 111.5Q812.0 107.0 797.75 104.0Q783.5 101.0 771.25 99.75Q759.0 98.5 754.5 98.5Q743.5 98.5 735.5 98.0Q727.5 97.5 727.5 95.5ZM190.5 175.0H192.0ZM222.5 175.0H224.0ZM260.0 175.0H259.0L260.0 174.5Q260.0 175.0 257.5 175.0Q255.5 175.0 255.5 174.5L256.0 175.0H255.5Q256.0 175.0 256.5 175.0Q257.0 175.0 257.5 175.0Q258.5 175.0 259.25 175.0Q260.0 175.0 260.0 175.0ZM71.5 198.0H73.0Z" fill="black" /></svg>