<svg xmlns="http://www.w3.org/2000/svg" width="484.0" height="385.0" viewBox="0 0 484.0 385.0"><path d="M36.5 286.5Q30.5 279.0 27.5 279.0Q23.5 279.0 23.5 300.0Q23.5 308.5 24.0 315.0Q24.5 321.5 25.0 321.5Q26.5 321.5 32.25 318.75Q38.0 316.0 44.25 312.25Q50.5 308.5 55.25 305.25Q60.0 302.0 60.0 301.0Q60.0 299.5 52.0 297.0Q49.0 296.0 44.5 293.0Q40.0 290.0 36.5 286.5ZM203.5 311.5Q198.5 308.0 194.75 305.75Q191.0 303.5 190.0 303.5Q189.5 303.5 188.75 312.25Q188.0 321.0 187.25 332.0Q186.5 343.0 186.5 350.0Q186.5 351.5 186.5 352.5Q186.5 353.5 186.5 354.5Q190.5 354.5 200.0 348.0Q205.5 344.5 214.75 340.5Q224.0 336.5 231.0 334.5L243.5 330.5L231.5 326.5Q225.0 324.0 216.75 319.75Q208.5 315.5 203.5 311.5ZM60.0 158.0Q60.0 157.0 56.5 156.75Q53.0 156.5 48.0 156.5Q39.0 156.5 39.0 158.0Q39.0 160.0 47.5 174.0Q50.0 173.5 54.75 167.25Q59.5 161.0 60.0 158.0ZM60.5 123.0 69.5 119.0 37.0 98.5 34.5 118.0Q33.0 127.5 33.0 133.5Q33.0 140.0 35.0 140.0Q37.0 140.0 42.0 136.0Q45.5 132.5 51.0 128.75Q56.5 125.0 60.5 123.0ZM199.0 137.5 194.0 123.0 145.5 121.5Q137.5 121.0 131.5 121.0Q125.5 121.0 120.5 121.0Q103.5 121.0 95.0 123.0Q86.5 125.0 75.0 130.5Q53.5 139.5 53.5 143.0H56.5Q58.0 143.0 60.0 142.75Q62.0 142.5 65.0 142.0Q67.5 141.5 69.0 141.25Q70.5 141.0 72.0 141.0Q78.0 141.0 78.0 146.0Q78.0 151.0 68.0 167.0Q63.5 173.5 61.25 179.75Q59.0 186.0 58.25 198.0Q57.5 210.0 57.5 235.0Q57.5 257.0 58.0 268.5Q58.5 280.0 60.0 284.5Q61.5 289.0 64.0 290.0Q66.5 290.5 84.25 291.5Q102.0 292.5 124.5 292.5Q147.0 292.5 158.25 292.0Q169.5 291.5 173.5 290.5Q177.5 289.5 177.5 287.5Q177.5 284.0 179.25 281.75Q181.0 279.5 183.0 279.5Q188.0 279.5 188.0 285.0Q188.0 286.5 192.5 290.25Q197.0 294.0 202.0 297.0Q207.0 300.0 209.0 300.0Q209.0 292.0 208.5 275.0Q208.0 258.0 207.25 237.0Q206.5 216.0 205.25 195.25Q204.0 174.5 202.5 159.0Q201.0 143.5 199.0 137.5ZM223.5 96.5V96.0Q223.5 93.0 209.5 93.0Q202.5 93.0 199.75 93.5Q197.0 94.0 197.0 96.0Q197.0 101.0 200.0 110.0Q203.0 119.0 205.0 123.5L209.0 133.0L215.5 118.5Q218.5 111.5 221.0 105.0Q223.5 98.5 223.5 96.5ZM300.0 144.5Q300.0 143.0 292.75 142.25Q285.5 141.5 278.5 141.5Q271.0 141.5 271.0 142.0V142.5Q271.0 144.0 273.0 148.75Q275.0 153.5 277.5 159.5L286.5 178.0L293.0 164.0Q296.0 157.0 298.0 151.5Q300.0 146.0 300.0 144.5ZM389.5 69.5 384.0 59.5 320.5 60.0Q292.5 60.0 277.0 60.75Q261.5 61.5 251.75 63.5Q242.0 65.5 230.0 70.0Q220.0 73.5 212.0 76.75Q204.0 80.0 201.5 81.0Q202.5 81.5 207.5 81.5Q212.5 81.5 220.0 81.5Q229.5 81.5 235.75 82.75Q242.0 84.0 242.0 86.0V87.0Q235.0 100.5 230.5 109.25Q226.0 118.0 223.75 126.25Q221.5 134.5 220.5 145.75Q219.5 157.0 219.0 174.25Q218.5 191.5 218.0 219.0L217.0 304.5L226.0 311.0V310.5Q230.5 313.0 240.5 315.25Q250.5 317.5 260.5 318.0L285.0 319.5L286.0 275.0Q286.0 241.5 282.5 213.25Q279.0 185.0 263.5 154.5Q259.5 146.0 256.25 139.5Q253.0 133.0 253.0 132.5Q253.0 131.0 265.75 130.5Q278.5 130.0 296.5 130.0Q313.0 130.0 330.5 130.25Q348.0 130.5 360.75 130.75Q373.5 131.0 375.5 131.5Q376.0 133.0 373.25 138.0Q370.5 143.0 366.5 150.0Q359.0 161.0 355.0 172.5Q351.0 184.0 349.5 201.75Q348.0 219.5 348.0 249.5V264.5Q348.0 290.0 349.25 302.0Q350.5 314.0 355.25 317.75Q360.0 321.5 370.5 321.5Q373.0 321.5 375.5 321.5Q378.0 321.5 380.5 321.0H386.5L420.0 319.5L418.0 235.0Q417.5 205.5 417.0 187.25Q416.5 169.0 415.25 157.25Q414.0 145.5 412.0 136.25Q410.0 127.0 406.0 115.5Q402.0 101.5 397.0 88.0Q392.0 74.5 389.5 69.5ZM327.5 179.0Q324.0 169.0 320.25 161.5Q316.5 154.0 314.5 153.5Q314.0 153.5 313.5 153.25Q313.0 153.0 312.5 153.0Q307.0 153.0 302.75 165.0Q298.5 177.0 296.25 197.5Q294.0 218.0 294.0 243.5Q294.0 262.0 295.5 283.0L298.5 322.0L339.5 319.5L338.0 262.0Q337.5 239.0 336.25 224.25Q335.0 209.5 333.0 199.0Q331.0 188.5 327.5 179.0ZM355.0 143.0Q354.5 142.0 348.25 141.75Q342.0 141.5 336.0 141.5Q326.0 141.5 325.0 142.5Q325.0 147.0 332.5 163.0L340.0 179.5L347.0 163.0Q350.0 156.0 352.25 150.25Q354.5 144.5 355.0 143.0ZM202.5 40.0V40.5Q194.5 35.0 191.5 35.0Q188.0 35.0 188.0 56.0V76.5L208.5 67.0Q217.0 63.0 225.0 59.75Q233.0 56.5 236.5 56.0Q235.5 55.5 233.25 54.75Q231.0 54.0 228.0 53.5Q221.5 51.0 214.0 47.25Q206.5 43.5 202.5 40.0ZM436.0 64.0 449.5 38.5H418.5Q402.0 38.5 395.0 39.0Q388.0 39.5 388.0 43.0Q388.0 45.0 390.5 49.0Q393.0 53.0 397.0 59.5Q399.0 62.5 402.5 71.75Q406.0 81.0 409.0 90.0Q416.0 111.0 420.0 111.0Q422.0 111.0 422.0 102.5Q422.0 97.5 426.0 86.25Q430.0 75.0 436.0 64.0ZM177.0 50.5Q177.5 34.0 179.25 22.0Q181.0 10.0 182.5 10.0Q187.0 10.0 194.0 19.5Q203.0 29.0 215.5 34.75Q228.0 40.5 249.75 43.25Q271.5 46.0 307.5 47.5Q321.0 48.0 331.25 48.0Q341.5 48.0 349.0 48.0Q365.5 48.0 370.25 47.0Q375.0 46.0 375.0 44.0Q375.0 38.0 371.5 36.5Q370.0 35.0 368.25 33.0Q366.5 31.0 366.5 29.5Q366.5 28.0 376.75 27.25Q387.0 26.5 401.5 26.5Q416.5 26.5 432.75 27.0Q449.0 27.5 461.0 28.25Q473.0 29.0 474.0 30.0V31.0Q474.0 35.5 464.0 42.0Q459.5 45.5 453.25 55.0Q447.0 64.5 441.5 74.5L430.0 98.5V335.0L349.0 334.5H320.0Q296.0 334.5 280.0 335.5Q264.0 336.5 252.0 339.25Q240.0 342.0 228.25 347.0Q216.5 352.0 201.0 360.5L174.0 375.0L179.0 303.5H133.5Q112.5 303.5 101.5 304.25Q90.5 305.0 82.75 307.5Q75.0 310.0 63.5 315.5Q53.0 320.5 42.75 326.75Q32.5 333.0 28.5 336.5Q19.5 345.5 14.5 345.5Q10.0 345.5 10.0 339.5Q10.0 338.0 11.0 334.0Q12.5 330.0 14.25 316.5Q16.0 303.0 16.5 288.5L18.5 248.5L34.5 266.0L46.5 280.5L47.0 242.5Q47.0 186.0 28.5 164.5Q26.0 162.0 24.75 156.0Q23.5 150.0 23.5 139.0Q23.5 134.0 23.75 127.5Q24.0 121.0 24.5 113.5Q25.5 95.0 27.5 82.0Q29.5 69.0 30.5 69.0Q32.0 69.0 34.75 72.5Q37.5 76.0 41.0 81.5Q47.0 91.5 56.0 97.25Q65.0 103.0 82.25 105.75Q99.5 108.5 130.0 110.0Q139.5 110.5 147.25 110.75Q155.0 111.0 161.5 111.0Q176.0 111.0 182.5 109.75Q189.0 108.5 189.0 106.0Q189.0 103.5 183.5 98.0Q180.0 94.0 178.25 88.25Q176.5 82.5 176.5 68.5Q176.5 64.5 176.75 60.0Q177.0 55.5 177.0 50.5Z" fill="black" /></svg>