<svg xmlns="http://www.w3.org/2000/svg" width="501.0" height="461.5" viewBox="0 0 501.0 461.5"><path d="M90.5 188.5 86.5 177.0Q86.0 179.0 83.25 182.75Q80.5 186.5 77.0 191.0Q73.5 196.0 69.25 201.5Q65.0 207.0 61.0 212.5L43.0 235.5L59.5 237.5Q66.5 239.0 78.75 241.5Q91.0 244.0 100.5 245.0Q106.5 247.0 112.25 248.0Q118.0 249.0 121.5 249.0Q123.0 249.0 123.0 249.5Q123.0 248.5 120.0 243.75Q117.0 239.0 113.0 233.0L109.0 227.0Q103.5 217.0 97.75 205.5Q92.0 194.0 90.5 188.5ZM154.5 131.0Q154.5 129.5 147.0 128.75Q139.5 128.0 128.0 128.0H101.5Q101.5 129.0 105.0 138.0Q108.5 147.0 114.5 159.5L127.5 185.0L140.5 160.5Q146.5 150.0 150.5 141.0Q154.5 132.0 154.5 131.0ZM258.0 217.5 274.5 193.5H224.5L232.5 203.5Q238.0 210.5 240.75 217.0Q243.5 223.5 245.5 227.5L248.0 232.5Q250.0 232.5 258.0 217.5ZM168.0 55.0Q166.0 51.5 165.0 49.5Q164.0 47.5 162.0 47.5Q158.5 47.5 143.5 72.0L128.5 94.0H145.5Q153.5 94.0 164.0 95.25Q174.5 96.5 181.0 97.5L193.0 100.0L182.5 85.5Q177.5 77.5 173.25 68.75Q169.0 60.0 168.0 55.0ZM379.5 133.5 394.5 102.5H366.5Q352.5 102.5 347.25 103.0Q342.0 103.5 342.0 104.5Q342.0 105.0 344.0 111.5Q346.0 118.0 346.5 119.0Q348.5 123.5 350.75 129.5Q353.0 135.5 354.0 141.0Q358.0 151.5 360.25 158.25Q362.5 165.0 363.0 165.0Q364.0 165.0 369.0 155.5Q374.0 146.0 379.5 133.5ZM108.5 376.0Q97.0 370.0 89.0 365.5Q81.0 361.0 79.0 361.0Q78.5 361.0 77.75 371.0Q77.0 381.0 76.0 394.0V407.5Q76.0 417.0 76.0 422.5Q76.0 428.0 76.5 428.0Q77.5 428.0 86.25 425.0Q95.0 422.0 106.0 417.0Q111.0 416.0 117.0 414.0Q123.0 412.0 129.5 410.0Q137.5 407.5 145.0 405.0Q152.5 402.5 157.5 401.0L176.0 396.5L159.0 393.0Q149.0 392.0 134.25 386.75Q119.5 381.5 108.5 376.0ZM158.5 275.5 139.5 270.0 138.0 321.5 140.0 375.0Q157.5 378.0 175.0 380.25Q192.5 382.5 210.0 382.5L242.5 384.5L245.5 327.5Q225.5 313.0 203.5 299.5Q181.5 286.0 158.5 275.5ZM144.5 46.0 169.0 10.0 174.5 34.5Q180.0 56.5 187.0 68.25Q194.0 80.0 206.5 91.5Q212.0 95.5 226.5 104.75Q241.0 114.0 259.5 125.5Q278.0 137.0 296.75 148.25Q315.5 159.5 329.75 167.75Q344.0 176.0 349.5 178.5L330.0 115.0Q324.5 105.0 320.75 97.75Q317.0 90.5 317.0 88.5Q317.0 86.5 326.0 86.5Q334.5 86.5 349.0 87.25Q363.5 88.0 378.5 89.0Q393.5 90.0 405.0 91.0Q416.5 92.0 419.0 92.5Q420.0 93.0 417.5 97.75Q415.0 102.5 409.5 108.5Q405.0 113.0 398.75 123.0Q392.5 133.0 388.5 141.5Q385.0 150.0 382.75 157.75Q380.5 165.5 379.25 178.25Q378.0 191.0 377.75 214.0Q377.5 237.0 377.5 275.5V385.0L433.5 386.0Q458.0 386.5 474.5 389.0Q491.0 391.5 491.0 394.0Q491.0 397.5 453.75 399.25Q416.5 401.0 352.5 401.0Q314.0 401.0 288.0 401.25Q262.0 401.5 244.75 402.0Q227.5 402.5 215.25 403.75Q203.0 405.0 192.5 407.25Q182.0 409.5 169.5 413.0Q157.0 416.5 142.25 421.0Q127.5 425.5 114.25 430.0Q101.0 434.5 92.5 438.0L60.0 451.5L62.0 395.5Q63.5 376.5 64.5 361.75Q65.5 347.0 66.0 341.5V338.0H67.5Q70.0 338.0 77.5 341.75Q85.0 345.5 93.5 351.0L126.5 368.5Q126.0 362.5 125.5 349.75Q125.0 337.0 124.75 323.5Q124.5 310.0 124.5 301.0V265.0L104.0 260.0H104.5Q95.0 257.5 79.0 255.5Q63.0 253.5 48.5 252.0L10.0 248.0L35.5 221.5Q44.0 211.5 55.25 198.0Q66.5 184.5 71.5 175.0Q78.5 164.0 84.0 156.75Q89.5 149.5 90.0 149.5Q92.5 149.5 94.5 154.5Q96.5 159.5 97.5 167.5L98.0 169.0Q99.0 174.0 102.5 182.25Q106.0 190.5 110.25 198.25Q114.5 206.0 117.75 211.5Q121.0 217.0 121.0 217.0Q118.0 207.0 113.0 192.0Q108.0 177.0 102.5 162.75Q97.0 148.5 92.0 141.0L88.0 136.0Q84.5 129.5 81.25 124.75Q78.0 120.0 78.0 119.0Q78.0 118.0 93.5 116.25Q109.0 114.5 130.5 114.5Q157.5 114.5 169.5 116.0Q181.5 117.5 181.5 123.0Q181.5 127.0 174.0 132.5Q166.5 139.5 158.5 152.25Q150.5 165.0 145.0 180.0Q139.5 195.0 139.5 209.5V240.5L242.5 309.0L244.5 285.0Q244.5 258.5 236.25 239.75Q228.0 221.0 212.5 199.5Q208.5 194.0 206.0 188.5Q203.5 183.0 202.5 181.0Q204.5 180.0 204.5 178.5Q208.5 177.5 222.0 177.5Q229.0 177.5 237.75 177.75Q246.5 178.0 256.0 178.5L308.0 181.0L286.0 202.0Q274.5 214.5 268.5 225.0Q262.5 235.5 260.5 249.0Q258.5 262.5 258.5 284.5V319.5L303.0 347.5Q349.5 375.0 350.0 382.5Q349.0 386.0 345.5 386.0Q344.0 386.0 331.5 379.5Q319.0 373.0 304.5 363.5Q290.0 353.5 277.5 346.75Q265.0 340.0 263.0 340.0Q259.5 340.0 259.5 353.5V361.5L260.5 385.0L312.0 386.0L362.0 387.5V205.0Q357.5 202.0 347.75 196.0Q338.0 190.0 326.5 183.0Q315.0 176.0 305.25 170.0Q295.5 164.0 291.0 161.5Q263.0 144.0 242.75 133.25Q222.5 122.5 205.75 117.0Q189.0 111.5 171.75 109.5Q154.5 107.5 133.0 107.5Q104.5 107.5 104.5 99.5Q104.5 95.0 113.0 89.0Q117.0 85.5 126.25 73.0Q135.5 60.5 144.5 46.0Z" fill="black" /></svg>