<svg xmlns="http://www.w3.org/2000/svg" width="642.5" height="390.5" viewBox="0 0 642.5 390.5"><path d="M81.5 267.5V268.0Q75.0 264.0 69.75 260.75Q64.5 257.5 61.5 255.5Q59.5 254.5 59.0 253.75Q58.5 253.0 58.5 253.0Q57.0 253.0 53.5 258.5Q50.0 264.0 46.0 271.75Q42.0 279.5 39.25 286.25Q36.5 293.0 36.5 295.0Q36.5 293.5 39.5 293.5Q49.0 293.5 70.0 289.5Q83.5 287.0 93.25 285.0Q103.0 283.0 103.0 283.0Q103.0 283.0 96.5 278.25Q90.0 273.5 81.5 267.5ZM354.0 263.0Q353.5 262.5 348.0 261.0Q342.5 259.5 337.5 258.25Q332.5 257.0 332.5 257.0Q331.0 257.0 329.5 263.75Q328.0 270.5 327.25 277.75Q326.5 285.0 326.5 287.5L328.0 288.0Q331.5 288.0 338.75 286.0Q346.0 284.0 354.0 281.0Q362.0 278.0 367.75 275.25Q373.5 272.5 373.5 271.0Q373.5 269.5 368.0 267.25Q362.5 265.0 354.0 263.0ZM99.0 83.5 97.0 83.0Q75.0 74.0 71.0 74.0Q70.5 74.0 69.0 83.25Q67.5 92.5 66.5 103.25Q65.5 114.0 65.5 118.5Q68.5 118.0 78.0 114.5Q87.5 111.0 98.75 106.75Q110.0 102.5 118.0 99.0Q126.0 95.5 126.0 95.0Q126.0 94.0 118.25 91.0Q110.5 88.0 99.0 83.5ZM171.5 143.0Q171.5 143.0 168.0 142.75Q164.5 142.5 159.5 142.5Q154.5 142.5 150.75 142.75Q147.0 143.0 147.0 143.0Q147.0 146.5 149.5 155.25Q152.0 164.0 155.0 171.75Q158.0 179.5 159.5 179.5Q160.5 179.5 163.5 171.75Q166.5 164.0 169.0 155.25Q171.5 146.5 171.5 143.0ZM200.5 152.0V151.5Q198.5 147.5 195.75 145.0Q193.0 142.5 191.5 142.5Q187.0 142.5 182.5 152.5Q178.0 162.5 174.0 178.75Q170.0 195.0 167.75 214.5Q165.5 234.0 165.5 253.0Q165.5 271.0 166.0 278.5Q166.5 286.0 168.75 288.25Q171.0 290.5 176.5 292.0Q181.5 293.0 189.75 295.0Q198.0 297.0 204.0 298.5H203.5Q211.0 300.0 219.5 300.0Q220.5 299.0 221.25 286.25Q222.0 273.5 222.0 257.0Q222.0 236.0 219.0 215.25Q216.0 194.5 211.25 177.75Q206.5 161.0 200.5 152.0ZM239.5 142.5H225.5Q212.0 142.5 212.0 144.5Q212.0 146.5 215.5 154.75Q219.0 163.0 222.75 170.25Q226.5 177.5 227.0 177.5Q227.0 177.5 227.5 176.5Q228.0 175.5 228.5 173.5Q229.5 171.0 230.75 168.5Q232.0 166.0 233.0 162.5Q234.0 160.0 234.75 158.0Q235.5 156.0 236.0 154.5Q239.5 144.0 239.5 142.5ZM474.0 260.5 564.5 262.0V161.0H492.5Q457.0 161.0 432.75 163.0Q408.5 165.0 390.75 169.0Q373.0 173.0 356.5 180.5Q342.0 186.5 336.25 192.75Q330.5 199.0 330.5 211.5Q330.5 213.5 330.75 216.0Q331.0 218.5 331.0 221.0L332.0 242.0L356.5 250.0Q367.0 253.5 379.25 255.5Q391.5 257.5 413.25 258.5Q435.0 259.5 474.0 260.5ZM331.0 101.5Q330.5 101.5 330.0 101.5Q329.5 101.5 328.0 101.5Q325.0 101.5 325.0 104.5H326.0Q326.5 104.5 327.5 103.5Q330.0 102.5 331.0 101.5ZM354.0 29.5Q354.0 28.5 346.75 28.25Q339.5 28.0 328.0 28.0Q317.0 28.0 310.0 28.25Q303.0 28.5 303.0 28.5Q304.0 34.0 307.5 43.25Q311.0 52.5 315.5 62.25Q320.0 72.0 323.5 78.5Q327.0 85.0 328.0 85.0Q329.5 85.0 333.75 77.75Q338.0 70.5 342.75 60.5Q347.5 50.5 350.75 41.75Q354.0 33.0 354.0 29.5ZM378.0 149.0Q372.0 148.0 363.5 145.0Q355.0 142.0 350.5 139.5Q347.0 137.5 344.5 137.0Q342.0 136.5 340.0 136.5Q336.5 136.5 335.25 140.75Q334.0 145.0 334.0 155.0Q334.0 163.0 334.5 166.0Q335.0 169.0 338.5 169.0Q344.5 169.0 362.5 162.5Q387.5 155.0 387.5 152.0Q387.5 151.0 378.0 149.0ZM597.5 39.0V38.5Q597.5 36.0 589.75 35.0Q582.0 34.0 572.75 33.5Q563.5 33.0 559.5 33.0Q542.5 33.0 542.5 36.0Q542.5 37.0 543.5 38.0Q544.5 39.0 545.5 40.5Q548.0 43.5 552.25 54.5Q556.5 65.5 561.0 77.5Q565.5 90.0 569.0 99.25Q572.5 108.5 573.0 109.5Q573.5 109.5 576.25 102.25Q579.0 95.0 583.0 83.75Q587.0 72.5 590.75 60.5Q594.5 48.5 597.5 39.0ZM126.0 135.0Q126.0 132.0 146.0 130.5Q166.0 129.0 193.5 129.0Q221.5 129.0 241.5 130.25Q261.5 131.5 261.5 134.0Q261.5 135.0 259.5 138.5Q257.5 142.0 254.0 144.5Q245.0 154.0 240.5 178.75Q236.0 203.5 236.0 248.0V304.5Q239.0 305.0 246.0 306.5Q253.0 308.0 260.25 309.5Q267.5 311.0 270.0 312.0Q288.5 315.5 300.25 320.0Q312.0 324.5 312.0 327.0Q312.0 330.0 306.0 330.0Q304.0 330.0 300.5 329.5Q297.0 329.0 292.0 328.5Q281.0 327.0 268.0 324.5Q263.5 324.0 259.75 323.5Q256.0 323.0 252.5 322.5L234.0 319.5V341.0Q234.0 352.0 232.25 359.5Q230.5 367.0 228.0 367.0Q226.0 367.0 224.0 358.75Q222.0 350.5 222.0 339.5V316.5L205.5 312.0Q185.5 306.0 177.5 306.0Q169.5 306.0 168.0 312.5Q166.5 319.0 165.5 335.0Q163.5 362.0 158.5 362.0Q154.5 362.0 152.0 325.5L150.5 300.0L127.5 299.5Q103.5 299.5 79.5 302.0Q55.5 304.5 33.5 315.5Q23.0 319.5 17.5 319.5Q10.0 319.5 10.0 315.0Q10.0 311.0 14.5 309.0Q16.0 308.0 22.5 295.0Q29.0 282.0 36.0 266.5Q55.5 222.0 60.5 222.0Q64.0 222.0 64.0 231.5Q64.0 237.5 74.0 246.25Q84.0 255.0 98.0 263.75Q112.0 272.5 125.0 278.5Q138.0 284.5 144.5 284.5Q150.5 284.5 151.5 275.75Q152.5 267.0 152.5 246.5Q152.5 216.5 147.0 188.75Q141.5 161.0 132.0 148.5Q129.0 145.0 127.5 140.5Q126.0 136.0 126.0 135.0ZM281.5 18.0Q281.5 14.0 286.0 12.0Q290.5 10.0 303.0 10.0Q308.5 10.0 319.75 10.25Q331.0 10.5 344.0 11.25Q357.0 12.0 367.0 13.25Q377.0 14.5 379.0 16.0V18.0Q379.0 21.0 376.75 26.25Q374.5 31.5 370.0 37.0Q366.0 41.5 360.75 52.0Q355.5 62.5 350.75 75.5Q346.0 88.5 342.75 99.75Q339.5 111.0 339.5 116.5Q339.5 120.0 349.0 124.75Q358.5 129.5 379.0 136.5Q385.5 139.0 400.5 141.0Q415.5 143.0 435.25 144.25Q455.0 145.5 476.0 146.25Q497.0 147.0 515.5 147.0Q536.0 147.0 550.25 146.25Q564.5 145.5 564.5 144.5Q564.5 136.0 561.5 122.75Q558.5 109.5 553.5 94.75Q548.5 80.0 543.0 67.0Q537.5 54.0 532.75 45.75Q528.0 37.5 525.0 37.5Q522.5 37.5 521.0 34.75Q519.5 32.0 519.5 30.0Q519.5 27.5 534.75 25.5Q550.0 23.5 576.0 23.5Q601.5 23.5 617.0 25.5Q632.5 27.5 632.5 30.0Q632.5 32.0 630.0 34.75Q627.5 37.5 625.0 37.5Q619.0 37.5 613.0 45.75Q607.0 54.0 601.25 66.75Q595.5 79.5 591.25 93.25Q587.0 107.0 584.5 118.75Q582.0 130.5 582.0 136.5Q583.0 147.0 591.5 147.0Q606.5 147.0 606.5 154.5Q606.5 156.5 603.25 158.75Q600.0 161.0 593.0 161.5L579.5 163.0L576.5 261.5H587.0Q592.5 261.5 596.5 263.5Q600.5 265.5 600.5 268.0Q600.5 271.5 596.5 273.5Q592.5 275.5 587.0 275.5H577.5V318.5Q577.5 366.0 571.5 366.0Q566.5 366.0 564.0 319.5L562.5 277.5L499.0 276.0H480.5Q435.0 276.0 403.5 281.5Q372.0 287.0 348.5 299.5L327.5 309.0L326.0 342.5Q325.5 360.0 323.5 370.25Q321.5 380.5 318.5 380.5Q314.0 380.5 314.0 348.5Q314.0 337.0 314.25 320.75Q314.5 304.5 315.5 283.0Q317.5 237.0 318.5 208.0Q319.5 179.0 319.5 160.0Q319.5 143.5 318.5 133.25Q317.5 123.0 316.5 115.0V115.5L313.5 101.0L226.5 102.0Q197.5 102.5 179.0 103.25Q160.5 104.0 149.0 105.25Q137.5 106.5 129.25 108.75Q121.0 111.0 112.5 115.0Q102.0 118.5 90.0 125.0Q78.0 131.5 72.5 135.5Q61.0 145.5 56.0 145.5H54.5Q54.0 144.5 53.5 142.25Q53.0 140.0 53.0 137.0Q53.0 129.0 54.5 114.25Q56.0 99.5 58.25 83.75Q60.5 68.0 62.75 56.75Q65.0 45.5 66.5 44.5Q71.0 44.5 72.25 45.25Q73.5 46.0 75.5 51.5Q79.5 62.5 94.25 69.5Q109.0 76.5 129.75 80.25Q150.5 84.0 172.0 85.75Q193.5 87.5 211.5 87.75Q229.5 88.0 238.0 88.0Q257.0 88.0 273.25 87.5Q289.5 87.0 299.25 86.0Q309.0 85.0 309.0 83.5Q309.0 78.5 305.25 67.0Q301.5 55.5 296.75 44.75Q292.0 34.0 288.0 31.5Q284.5 29.0 283.0 25.25Q281.5 21.5 281.5 18.0Z" fill="black" /></svg>