<svg xmlns="http://www.w3.org/2000/svg" width="567.0" height="376.5" viewBox="0 0 567.0 376.5"><path d="M175.0 297.0 154.5 298.0H145.5Q137.5 298.0 131.25 297.5Q125.0 297.0 122.5 295.0V295.5Q119.5 294.0 118.0 294.0Q116.0 294.0 115.75 298.75Q115.5 303.5 115.5 317.0Q115.5 328.0 116.0 335.5Q116.5 343.0 117.0 343.0Q118.0 343.0 122.25 339.5Q126.5 336.0 132.0 331.5L136.5 328.0Q143.5 321.0 152.75 313.5Q162.0 306.0 167.0 302.5ZM90.0 185.5Q92.5 182.5 95.25 180.0Q98.0 177.5 99.5 175.5Q95.5 177.5 86.5 181.5Q77.5 185.5 67.0 191.0L37.5 206.5L52.0 210.5Q58.0 212.5 62.25 213.5Q66.5 214.5 69.5 214.5Q76.0 214.5 76.0 207.5Q76.0 205.0 79.75 198.5Q83.5 192.0 90.0 185.5ZM398.5 164.5 402.0 160.0Q403.0 158.0 404.25 156.5Q405.5 155.0 406.0 154.0Q402.5 156.0 396.25 160.25Q390.0 164.5 381.5 170.0L344.0 194.5L359.5 198.0Q372.5 201.0 376.5 201.0Q380.5 201.0 381.75 198.5Q383.0 196.0 384.0 190.0Q386.0 185.0 390.0 177.5Q394.0 170.0 398.5 164.5ZM200.5 98.5 181.0 77.5H180.5Q171.5 67.5 163.75 58.5Q156.0 49.5 153.5 47.5Q151.5 46.5 151.5 46.5Q149.0 46.5 144.75 52.75Q140.5 59.0 133.0 74.0Q126.5 87.5 121.5 96.5Q116.5 105.5 117.0 106.5H117.5Q120.5 106.5 127.75 104.75Q135.0 103.0 143.5 100.5Q153.0 98.0 162.0 96.75Q171.0 95.5 178.5 95.5Q181.0 95.5 183.25 95.5Q185.5 95.5 187.5 96.0ZM511.5 37.5Q506.5 36.5 483.5 36.5H454.5L459.0 49.5Q461.5 56.0 464.5 74.25Q467.5 92.5 469.5 112.0L474.5 151.5L482.5 119.0Q488.0 95.5 496.25 72.75Q504.5 50.0 511.5 37.5ZM34.5 194.0Q47.0 188.5 63.0 180.75Q79.0 173.0 95.0 164.5Q111.0 156.0 124.25 148.5Q137.5 141.0 144.5 136.0Q149.0 132.5 152.5 131.0Q156.0 129.5 157.5 129.0Q160.0 130.0 160.0 132.0Q160.0 134.0 157.25 137.75Q154.5 141.5 148.5 146.0Q119.5 170.5 102.75 190.0Q86.0 209.5 85.5 218.0Q86.5 221.0 90.5 222.0Q94.5 222.0 94.5 224.0Q94.5 225.5 91.0 227.0Q86.5 228.5 86.5 230.0Q86.5 233.0 101.5 249.0Q108.5 256.0 115.25 264.0Q122.0 272.0 125.5 276.5Q132.5 286.5 147.5 286.5Q161.0 286.5 184.25 279.25Q207.5 272.0 244.5 256.5Q260.0 250.5 275.5 244.25Q291.0 238.0 304.0 232.5Q315.0 228.0 323.25 224.5Q331.5 221.0 335.5 219.5Q345.5 215.5 351.5 212.5Q357.5 209.5 357.5 209.0Q357.5 208.5 350.0 207.5Q342.5 206.5 332.5 205.5L302.5 202.0L329.5 187.5Q333.5 185.5 338.5 183.5Q362.5 172.0 362.5 168.0Q362.5 165.5 353.25 161.5Q344.0 157.5 331.25 152.75Q318.5 148.0 306.25 144.25Q294.0 140.5 288.0 138.5Q265.5 130.5 244.25 124.0Q223.0 117.5 207.75 113.0Q192.5 108.5 187.5 108.0Q185.5 107.5 183.75 107.5Q182.0 107.5 179.5 107.5Q169.0 107.5 154.75 110.0Q140.5 112.5 127.5 116.5Q114.5 120.5 107.5 125.5V125.0Q104.0 127.5 100.75 128.75Q97.5 130.0 96.0 130.5Q95.5 130.0 94.75 130.0Q94.0 130.0 93.5 129.5V128.5Q93.5 126.0 99.75 113.5Q106.0 101.0 115.0 84.5Q125.0 68.0 132.5 52.5Q140.0 37.0 141.0 32.5Q143.5 19.5 148.5 19.5Q153.0 19.5 158.0 31.5Q159.5 35.0 170.0 47.75Q180.5 60.5 194.0 73.5L226.5 105.0Q231.0 106.5 241.25 110.0Q251.5 113.5 263.5 117.5Q275.5 121.5 285.75 125.0Q296.0 128.5 300.5 130.0Q320.5 136.5 337.75 142.5Q355.0 148.5 365.75 152.25Q376.5 156.0 377.5 156.5Q380.0 156.5 391.5 149.5Q403.0 142.5 417.0 133.0Q431.0 123.0 441.75 116.0Q452.5 109.0 454.5 109.0H455.5V110.5Q455.5 112.5 450.0 119.75Q444.5 127.0 435.5 136.5Q416.5 158.0 406.0 172.75Q395.5 187.5 395.5 195.0Q395.5 197.0 396.0 198.0Q397.0 200.5 398.75 202.25Q400.5 204.0 401.0 204.0Q404.0 204.0 404.0 209.5Q404.0 217.5 405.5 220.25Q407.0 223.0 415.0 227.0Q420.5 230.5 430.5 238.75Q440.5 247.0 449.0 255.0L468.5 272.5L465.5 207.5Q463.5 160.0 460.5 128.25Q457.5 96.5 453.5 76.0Q449.5 55.5 443.5 42.5Q439.0 33.5 436.0 24.75Q433.0 16.0 433.0 13.5Q433.0 10.0 436.0 10.0Q439.5 10.0 449.5 16.5Q457.5 21.5 464.5 24.25Q471.5 27.0 481.0 27.0Q490.5 27.0 505.0 24.25Q519.5 21.5 542.5 16.5Q545.0 15.5 547.25 15.5Q549.5 15.5 551.5 15.5Q557.0 15.5 557.0 18.5Q557.0 23.5 540.5 30.5Q530.5 35.0 525.0 41.0Q519.5 47.0 512.0 63.5Q500.5 88.0 493.5 113.5Q486.5 139.0 483.25 171.25Q480.0 203.5 478.5 248.5Q478.5 271.5 477.25 291.0Q476.0 310.5 474.5 322.0Q473.0 333.5 471.5 333.5Q470.0 333.5 468.5 324.75Q467.0 316.0 467.0 303.5Q467.0 293.5 466.75 287.0Q466.5 280.5 465.5 280.0H464.5Q462.5 280.0 456.0 275.5Q449.5 271.0 442.0 263.5Q434.0 256.5 421.5 246.5Q409.0 236.5 399.0 230.0L375.5 214.5Q372.0 216.0 363.75 219.5Q355.5 223.0 345.75 227.25Q336.0 231.5 327.75 235.0Q319.5 238.5 315.5 240.0Q296.0 248.0 276.25 256.25Q256.5 264.5 237.0 273.0Q225.0 277.0 206.5 289.0Q188.0 301.0 168.5 316.0Q149.0 331.0 134.0 345.5Q124.5 354.5 117.25 360.5Q110.0 366.5 108.5 366.5H108.0Q107.0 365.5 106.25 356.0Q105.5 346.5 104.75 334.0Q104.0 321.5 103.75 310.25Q103.5 299.0 103.5 295.0Q103.5 285.0 104.5 281.25Q105.5 277.5 108.5 277.5H109.5Q112.5 278.5 112.5 278.5Q112.0 275.0 102.25 265.0Q92.5 255.0 78.0 242.5Q64.5 232.5 53.25 225.75Q42.0 219.0 35.0 217.5Q10.0 213.0 10.0 208.5Q10.0 204.5 34.5 194.0Z" fill="black" /></svg>