<svg xmlns="http://www.w3.org/2000/svg" width="877.0" height="379.5" viewBox="0 0 877.0 379.5"><path d="M76.5 230.5Q76.5 230.5 69.25 227.75Q62.0 225.0 53.0 221.5L26.0 211.0L24.5 227.5Q24.5 242.0 28.0 242.0Q31.0 242.0 32.5 241.0Q36.0 240.0 43.5 238.0Q51.0 236.0 57.0 234.5L59.0 234.0Q64.5 233.0 70.5 232.0Q76.5 231.0 76.5 230.5ZM65.0 289.0Q60.0 288.0 50.5 285.5Q41.0 283.0 35.5 281.0Q32.5 279.5 30.0 279.5Q28.0 279.5 28.0 283.0Q28.0 284.5 28.25 287.0Q28.5 289.5 29.0 293.0Q29.5 296.0 29.5 298.5Q29.5 301.0 29.5 303.5Q29.5 310.0 31.0 311.0Q31.5 311.0 31.75 310.75Q32.0 310.5 32.5 310.5Q35.0 309.5 41.0 307.5Q47.0 305.5 53.5 303.25Q60.0 301.0 63.0 300.0Q76.5 294.5 76.5 293.5Q76.5 292.0 65.0 289.0ZM51.5 90.5Q48.0 89.5 42.0 87.5Q36.0 85.5 32.5 84.0Q29.5 83.0 28.0 83.0Q24.5 83.0 24.5 95.0Q24.5 101.5 25.0 104.25Q25.5 107.0 28.0 107.0Q32.5 107.0 41.5 103.5Q45.5 102.5 50.5 101.5Q55.5 100.5 60.5 100.0Q65.5 99.0 70.25 98.25Q75.0 97.5 76.0 97.0Q75.0 96.0 70.75 95.0Q66.5 94.0 62.0 93.0Q59.0 92.0 56.5 91.5Q54.0 91.0 51.5 90.5ZM76.5 163.5Q74.5 163.0 70.75 161.75Q67.0 160.5 63.0 159.0Q60.0 158.0 56.5 156.75Q53.0 155.5 50.0 154.5L29.5 147.0V178.0L47.0 172.5Q50.5 171.5 54.5 170.25Q58.5 169.0 62.0 168.0Q66.5 166.5 70.5 165.25Q74.5 164.0 76.5 163.5ZM225.0 248.0V236.0L163.5 236.5Q132.5 237.0 110.75 238.5Q89.0 240.0 73.25 243.0Q57.5 246.0 44.0 251.0Q30.5 256.0 30.5 260.0Q30.5 269.0 83.0 281.0Q93.0 283.0 107.0 284.0Q121.0 285.0 136.5 285.0Q155.5 285.0 173.25 283.75Q191.0 282.5 202.75 280.5Q214.5 278.5 215.0 275.5Q214.5 274.5 214.0 272.75Q213.5 271.0 213.5 269.5Q214.0 267.0 215.5 265.0Q217.0 263.0 220.5 262.5Q224.0 262.5 224.5 257.75Q225.0 253.0 225.0 248.0ZM408.0 280.5Q394.0 280.5 379.5 282.0Q367.5 282.5 352.5 283.25Q337.5 284.0 319.5 284.0H237.0L240.0 305.0Q241.5 314.0 243.25 321.5Q245.0 329.0 247.0 330.0Q247.0 330.5 249.0 330.5Q252.0 330.5 258.5 328.75Q265.0 327.0 271.5 323.5Q278.0 320.5 290.25 316.5Q302.5 312.5 317.5 308.0Q332.5 303.5 346.5 300.0Q350.5 299.0 354.0 297.75Q357.5 296.5 361.0 295.5Q375.5 291.5 388.25 287.5Q401.0 283.5 408.0 280.5ZM221.0 126.5 218.0 102.5 162.5 103.5Q139.0 104.0 119.5 104.75Q100.0 105.5 95.5 106.5Q67.5 112.0 53.25 115.0Q39.0 118.0 34.25 120.25Q29.5 122.5 29.5 125.0Q29.5 128.0 37.75 132.75Q46.0 137.5 57.5 142.5Q68.5 147.5 79.5 150.5Q90.5 153.5 107.25 155.0Q124.0 156.5 150.5 157.5Q157.5 158.0 164.5 158.0Q171.5 158.0 178.0 158.0Q195.0 158.0 206.75 157.25Q218.5 156.5 220.0 155.5V156.0Q222.0 154.0 222.0 143.0Q222.0 139.0 221.75 135.0Q221.5 131.0 221.0 126.5ZM225.0 223.0V173.5L201.0 171.0Q194.5 170.5 188.25 170.25Q182.0 170.0 175.0 170.0Q152.5 170.0 128.75 172.0Q105.0 174.0 84.0 177.25Q63.0 180.5 49.0 184.75Q35.0 189.0 32.5 193.5Q35.0 198.0 54.5 208.0Q65.0 213.0 75.75 215.5Q86.5 218.0 104.25 219.25Q122.0 220.5 153.0 221.5ZM253.5 53.5 253.0 52.5Q252.5 51.5 247.0 50.75Q241.5 50.0 235.0 50.0H218.5L226.0 79.5V80.0Q226.0 80.0 226.75 85.25Q227.5 90.5 228.5 97.5Q229.5 104.5 230.75 109.75Q232.0 115.0 232.5 115.5Q234.5 115.0 236.75 107.0Q239.0 99.0 241.0 91.25Q243.0 83.5 243.0 83.5Q247.5 74.0 250.5 65.5Q253.5 57.0 253.5 53.5ZM304.5 195.0Q304.0 193.5 301.0 190.0Q298.0 186.5 295.5 183.0Q294.0 181.5 292.75 180.0Q291.5 178.5 290.5 177.5L281.5 166.5Q279.5 168.5 277.25 171.25Q275.0 174.0 272.5 176.5Q266.0 184.0 266.0 185.0Q266.0 185.5 276.0 188.5H275.5Q278.0 189.0 281.5 189.75Q285.0 190.5 288.5 191.5Q292.5 193.0 296.25 194.0Q300.0 195.0 304.5 195.0ZM411.5 264.5Q411.5 260.5 399.0 252.5Q386.5 244.5 367.25 235.25Q348.0 226.0 326.5 217.5Q305.0 209.0 287.0 203.5Q269.0 198.0 259.5 198.0Q246.0 198.0 242.0 207.5Q238.0 217.0 238.0 238.0V270.0H324.5Q373.5 270.0 392.5 269.0Q411.5 268.0 411.5 264.5ZM332.0 134.5Q332.0 134.0 329.25 131.5Q326.5 129.0 323.0 126.0L314.0 117.0Q310.0 111.5 307.5 111.5Q305.0 111.5 299.0 116.0V115.5Q295.5 118.5 291.75 122.0Q288.0 125.5 287.0 127.0Q290.0 128.5 297.75 130.25Q305.5 132.0 314.25 133.0Q323.0 134.0 328.0 134.0Q330.0 134.0 331.0 134.25Q332.0 134.5 332.0 134.5ZM438.0 114.0Q438.0 113.5 431.0 113.5Q425.0 113.5 418.75 114.5Q412.5 115.5 411.5 116.5Q411.0 117.5 411.0 120.0Q411.0 123.5 412.0 129.0Q413.0 134.5 414.0 140.0L419.0 160.5L428.5 137.5Q429.5 135.5 431.75 130.25Q434.0 125.0 436.0 119.75Q438.0 114.5 438.0 114.0ZM527.0 116.0Q507.5 112.5 491.25 110.25Q475.0 108.0 471.0 108.0Q459.0 108.0 448.25 125.25Q437.5 142.5 430.5 169.75Q423.5 197.0 423.5 227.0V266.5Q434.5 266.5 445.5 265.5Q456.5 264.5 467.0 263.0Q479.0 262.0 503.0 258.75Q527.0 255.5 556.5 251.0Q586.0 246.5 614.5 242.0Q643.5 236.5 677.0 231.0Q710.5 225.5 738.0 220.5Q751.0 218.5 762.0 216.75Q773.0 215.0 781.0 213.5Q806.5 209.5 824.5 206.0Q842.5 202.5 842.5 202.0Q842.5 199.5 825.75 193.5Q809.0 187.5 780.75 179.25Q752.5 171.0 718.25 161.75Q684.0 152.5 648.5 143.5Q613.0 134.5 581.25 127.25Q549.5 120.0 527.0 116.0ZM532.0 91.5Q523.5 87.0 508.0 77.75Q492.5 68.5 481.0 60.5L452.5 41.5Q451.0 44.5 447.25 52.75Q443.5 61.0 439.25 70.5Q435.0 80.0 432.0 87.5Q429.0 95.0 429.0 96.5H436.0Q438.0 96.5 440.25 96.5Q442.5 96.5 444.5 96.0Q446.0 95.5 451.5 95.5Q460.5 95.5 475.5 96.75Q490.5 98.0 506.75 100.25Q523.0 102.5 536.25 104.75Q549.5 107.0 555.0 108.5Q558.5 110.5 560.5 110.5Q558.5 108.0 550.75 102.25Q543.0 96.5 532.0 91.5ZM438.0 26.5Q438.0 19.5 439.0 14.75Q440.0 10.0 441.5 10.0Q442.5 10.0 450.75 16.75Q459.0 23.5 469.0 34.0Q479.0 43.5 497.25 55.25Q515.5 67.0 539.25 79.5Q563.0 92.0 589.0 103.75Q615.0 115.5 640.25 124.75Q665.5 134.0 686.5 139.5Q701.5 143.5 722.5 149.75Q743.5 156.0 765.75 162.75Q788.0 169.5 806.5 175.5Q841.5 187.0 854.25 192.25Q867.0 197.5 867.0 202.5Q867.0 204.5 865.0 207.5Q863.0 209.0 846.0 213.25Q829.0 217.5 801.5 222.75Q774.0 228.0 739.5 233.5Q696.5 240.5 652.25 247.75Q608.0 255.0 567.75 262.0Q527.5 269.0 495.75 275.25Q464.0 281.5 444.75 286.0Q425.5 290.5 424.0 293.0Q421.5 296.5 419.0 297.0Q416.5 297.5 410.5 297.5Q404.0 297.5 385.75 301.75Q367.5 306.0 344.0 312.75Q320.5 319.5 297.75 328.0Q275.0 336.5 258.75 345.0Q242.5 353.5 239.0 360.5V360.0Q236.0 369.5 232.0 369.5Q227.0 369.5 227.0 356.0Q227.0 353.5 227.25 350.25Q227.5 347.0 228.0 343.5Q229.5 333.0 229.5 322.0Q229.5 311.0 228.0 306.5L224.5 293.0L168.5 297.0Q117.0 300.5 83.75 307.0Q50.5 313.5 34.5 325.0Q28.0 330.5 22.75 333.75Q17.5 337.0 17.5 337.0Q15.5 337.0 14.0 293.5Q12.5 250.0 12.5 165.0Q12.5 155.0 12.25 136.0Q12.0 117.0 10.5 99.5Q10.0 95.0 10.0 90.5Q10.0 86.0 10.0 82.0Q10.0 71.5 11.0 65.25Q12.0 59.0 13.0 59.0Q28.0 68.0 40.25 73.25Q52.5 78.5 65.75 81.5Q79.0 84.5 97.25 86.0Q115.5 87.5 142.5 88.5Q157.0 89.0 167.5 89.0Q178.0 89.0 185.5 89.0Q205.0 89.0 209.75 87.5Q214.5 86.0 214.5 81.5Q214.5 78.0 211.0 70.0Q207.5 62.0 203.0 55.5Q199.5 48.5 196.5 43.0Q193.5 37.5 193.5 35.5Q193.5 35.0 193.75 34.75Q194.0 34.5 194.0 34.0L194.5 33.5L194.0 34.0Q195.0 33.0 198.0 33.0Q203.0 33.0 212.5 34.5Q215.0 34.5 217.75 34.75Q220.5 35.0 223.5 35.5Q232.0 37.0 240.5 37.75Q249.0 38.5 255.5 38.5Q258.0 38.5 260.25 38.5Q262.5 38.5 264.5 38.0Q270.0 36.5 273.5 36.5Q279.5 36.5 279.5 41.0Q279.5 46.0 271.5 54.5Q265.0 62.0 258.0 80.25Q251.0 98.5 245.75 120.25Q240.5 142.0 239.0 160.0L237.0 191.5L260.0 168.0Q281.0 146.5 287.5 146.5Q290.0 146.5 291.5 149.0Q296.0 157.0 296.0 160.5Q296.5 169.0 312.75 183.25Q329.0 197.5 354.75 213.5Q380.5 229.5 409.5 242.5Q410.5 242.0 411.0 234.75Q411.5 227.5 411.5 217.0Q411.5 204.0 410.5 197.25Q409.5 190.5 406.5 186.25Q403.5 182.0 397.0 177.5Q384.0 168.5 365.75 160.75Q347.5 153.0 327.5 147.5Q307.5 142.0 289.0 140.5L248.5 137.0L283.5 111.5Q300.5 97.0 308.5 91.25Q316.5 85.5 319.0 85.5Q321.5 85.5 322.0 88.0Q322.5 90.5 322.5 94.5Q322.5 109.0 336.5 124.5Q350.5 140.0 373.5 150.0Q384.0 155.0 393.0 158.25Q402.0 161.5 405.0 161.5Q406.0 161.5 406.0 159.0Q406.0 153.5 403.0 143.75Q400.0 134.0 395.75 125.0Q391.5 116.0 388.0 113.5Q379.5 107.0 379.5 102.0Q379.5 96.5 387.5 96.5Q389.5 96.5 391.75 96.75Q394.0 97.0 396.0 97.5Q402.0 99.0 405.0 99.0Q410.5 99.0 416.25 89.75Q422.0 80.5 427.0 67.5Q432.0 54.5 435.0 43.0Q438.0 31.5 438.0 26.5Z" fill="black" /></svg>