<svg xmlns="http://www.w3.org/2000/svg" width="937.5" height="387.5" viewBox="0 0 937.5 387.5"><path d="M64.0 260.5Q65.5 257.5 67.0 254.75Q68.5 252.0 70.0 251.5Q66.0 253.0 59.5 256.5Q53.0 260.0 47.25 263.5Q41.5 267.0 39.5 269.0Q43.0 269.0 46.5 269.5Q50.0 270.0 53.0 271.0H53.5Q59.0 271.0 64.0 260.5ZM501.5 314.0Q525.5 301.5 531.0 296.5Q526.5 297.0 517.0 297.5Q507.5 298.0 496.0 299.0L445.0 302.0L443.5 326.0Q443.5 329.5 443.0 332.75Q442.5 336.0 442.5 338.5Q442.5 349.0 445.5 349.0Q448.0 349.0 453.0 344.5Q456.5 341.0 470.5 332.25Q484.5 323.5 501.5 314.0ZM80.0 151.5V152.0Q81.0 149.0 82.25 146.75Q83.5 144.5 84.0 142.5Q80.0 144.0 72.75 147.75Q65.5 151.5 59.5 154.75Q53.5 158.0 52.0 159.0Q53.0 158.5 62.5 161.0Q64.5 161.0 65.75 161.25Q67.0 161.5 68.0 161.5Q74.5 161.5 80.0 151.5ZM190.0 204.0 198.0 191.5H159.5L169.0 205.5Q173.0 211.5 175.75 217.0Q178.5 222.5 178.5 222.5Q180.5 221.5 182.5 216.5Q184.0 214.0 186.0 211.0Q188.0 208.0 190.0 204.0ZM250.0 257.0Q251.0 255.0 251.5 253.5Q252.0 252.0 252.0 251.0Q250.5 251.5 242.0 258.5Q240.0 260.5 238.5 262.0Q237.0 263.5 236.0 264.5H245.0Q247.5 264.5 250.0 257.0ZM487.0 208.5 486.5 208.0Q485.0 205.5 482.0 205.5Q478.5 205.5 478.5 209.5Q478.5 212.0 481.5 212.0Q483.0 212.0 483.5 211.5Q487.0 210.5 487.0 208.5ZM187.0 103.5 193.0 96.0H163.0L169.0 103.5Q175.0 114.0 178.0 114.0Q180.0 114.0 187.0 103.5ZM273.0 170.5Q274.5 166.0 274.5 164.0Q274.0 164.5 271.75 166.75Q269.5 169.0 264.0 173.0Q260.0 177.0 258.0 178.0Q262.0 178.0 267.25 176.75Q272.5 175.5 273.0 170.5ZM300.5 84.5Q301.5 82.0 301.5 80.25Q301.5 78.5 301.5 77.5Q301.5 79.0 291.5 87.5Q289.0 89.5 287.0 90.5Q285.0 91.5 284.0 92.0Q285.0 92.0 286.5 92.0Q288.0 92.0 289.5 92.0Q293.5 92.0 296.75 90.0Q300.0 88.0 300.5 84.5ZM385.5 190.0Q388.0 184.5 392.75 176.25Q397.5 168.0 401.5 161.5Q402.5 161.5 406.5 157.75Q410.5 154.0 413.5 151.5Q412.5 151.5 403.5 157.0Q394.5 162.5 382.5 170.5V170.0Q371.0 179.5 360.75 185.75Q350.5 192.0 349.0 193.0H346.5Q346.5 195.0 365.5 198.0Q373.0 199.5 375.5 199.5Q380.0 199.5 381.75 197.5Q383.5 195.5 385.5 190.0ZM509.5 159.5H510.5Q508.5 155.0 506.0 155.0V157.0Q506.0 159.5 509.5 159.5ZM583.0 199.5H584.0V196.5H583.0ZM583.0 240.5H584.0V237.5H583.0ZM589.0 159.5H586.0Q583.0 159.5 583.0 162.5H584.0Q585.5 162.5 585.5 161.5Q587.0 161.0 588.0 160.25Q589.0 159.5 589.0 159.5ZM639.0 179.5Q639.0 171.5 636.0 170.0Q633.0 168.5 618.0 168.5Q604.0 168.5 597.0 171.25Q590.0 174.0 590.0 178.0Q590.0 181.5 598.25 185.25Q606.5 189.0 621.0 190.0Q632.5 190.0 635.75 188.75Q639.0 187.5 639.0 179.5ZM635.0 203.5Q628.5 202.0 621.0 202.0Q608.5 202.0 598.0 205.75Q587.5 209.5 587.5 215.0Q587.5 224.5 595.0 228.5Q602.5 232.5 621.0 232.5H643.5V219.0Q643.5 211.0 641.5 208.0Q639.5 205.0 635.0 203.5ZM543.5 45.0Q537.0 40.0 532.0 36.5Q527.0 33.0 526.0 33.0Q525.5 33.0 521.0 39.5Q516.5 46.0 510.5 56.0L495.5 76.0L549.0 77.0H596.5L582.5 70.0Q573.5 66.0 562.0 58.5Q550.5 51.0 543.5 45.0ZM648.0 129.0Q648.0 128.0 637.5 128.0Q630.5 128.0 629.5 127.5Q630.5 128.0 631.75 129.5Q633.0 131.0 635.0 133.5Q639.5 138.5 642.0 138.5Q643.5 138.5 644.0 137.0Q648.0 132.0 648.0 129.0ZM123.0 105.0V106.0Q134.0 96.0 138.5 96.0Q143.0 96.0 143.0 100.5Q143.0 104.0 136.5 111.5Q130.0 119.0 115.5 130.5Q102.0 142.0 95.25 150.5Q88.5 159.0 88.5 162.5Q88.5 164.0 91.5 164.0Q96.0 164.0 96.0 170.0Q96.0 172.0 95.5 173.0Q95.5 175.0 100.5 180.25Q105.5 185.5 113.0 190.5Q122.0 197.0 128.0 204.0Q134.0 211.0 134.0 213.5Q134.0 221.0 129.5 221.0H127.5Q124.5 221.0 116.0 227.75Q107.5 234.5 97.75 243.75Q88.0 253.0 81.0 261.0Q74.0 269.0 74.0 271.5Q74.0 271.5 74.5 272.0Q75.0 272.5 75.5 272.5Q82.5 273.5 82.5 277.0Q82.5 279.0 78.5 282.0V281.5Q78.0 282.5 77.0 283.0Q76.0 283.5 76.0 284.5Q76.0 284.5 77.25 285.5Q78.5 286.5 80.5 287.5Q88.5 292.0 97.5 300.25Q106.5 308.5 113.25 316.25Q120.0 324.0 120.0 327.5L119.0 329.0Q117.5 330.5 116.0 330.5Q110.0 330.5 99.0 318.5Q83.0 304.5 66.0 295.0Q49.0 285.5 32.0 283.0Q24.0 282.0 17.75 279.0Q11.5 276.0 10.5 274.0Q10.0 270.5 21.75 262.5Q33.5 254.5 51.5 245.5Q68.5 237.0 84.5 228.5Q100.5 220.0 106.0 216.5L115.5 208.5Q112.5 206.5 105.25 201.75Q98.0 197.0 89.75 191.5Q81.5 186.0 75.0 182.0Q68.5 178.0 66.5 178.0Q61.5 178.0 52.0 174.75Q42.5 171.5 35.0 167.5Q27.5 163.5 27.5 161.5V161.0Q28.5 159.0 41.25 151.5Q54.0 144.0 71.0 135.0Q87.5 126.0 102.75 117.25Q118.0 108.5 123.0 105.0ZM320.0 48.0Q331.5 38.5 338.5 33.5Q345.5 28.5 348.0 28.0Q350.5 29.0 350.5 31.5Q350.5 34.5 345.0 42.5Q339.5 50.5 328.0 65.0Q311.5 86.0 311.5 90.5Q311.5 92.0 317.5 92.0Q323.5 92.0 323.5 95.0Q323.5 96.5 320.0 99.0Q318.5 101.0 318.5 101.5Q318.5 102.5 321.5 105.0Q324.5 107.5 332.0 112.0Q355.5 126.5 355.5 135.0Q355.5 138.0 353.5 140.0L352.0 141.0Q347.0 141.0 339.5 132.5Q335.0 129.0 331.0 126.25Q327.0 123.5 325.0 123.0Q322.5 123.5 316.0 130.5Q309.5 137.5 302.0 147.0Q294.5 156.5 289.0 164.5Q283.5 172.5 283.5 175.0Q283.5 178.0 286.5 178.0Q291.0 178.0 291.0 183.0Q291.0 184.0 290.5 185.25Q290.0 186.5 290.0 187.5L289.5 188.5Q289.5 190.5 292.5 192.75Q295.5 195.0 300.0 197.5Q309.5 202.5 318.75 211.75Q328.0 221.0 328.0 225.0Q328.0 228.0 325.0 228.0Q323.5 228.0 318.5 225.5Q313.5 223.0 309.5 219.5Q306.0 218.0 304.25 217.0Q302.5 216.0 300.5 216.0Q295.5 216.0 289.0 221.75Q282.5 227.5 276.75 236.25Q271.0 245.0 267.25 254.25Q263.5 263.5 263.5 270.0Q266.5 277.5 277.5 283.5Q287.0 289.0 295.75 297.75Q304.5 306.5 304.5 310.5Q304.5 314.0 300.5 314.0Q298.5 314.0 291.75 310.25Q285.0 306.5 279.0 301.5Q264.0 291.0 246.75 284.25Q229.5 277.5 213.0 277.5H188.5L227.5 250.0Q230.5 248.0 239.25 242.5Q248.0 237.0 257.75 230.0Q267.5 223.0 275.5 216.75Q283.5 210.5 285.0 207.0Q284.5 206.5 283.5 205.25Q282.5 204.0 280.0 202.0Q273.5 198.0 259.5 194.75Q245.5 191.5 233.0 191.5Q227.0 191.5 221.0 193.0H222.0Q217.0 194.5 210.75 200.5Q204.5 206.5 199.5 216.0Q195.0 223.0 192.5 228.5Q190.0 234.0 188.75 241.75Q187.5 249.5 187.25 262.75Q187.0 276.0 187.0 298.5Q186.5 327.5 185.0 346.25Q183.5 365.0 181.0 367.0H180.0Q177.5 365.5 175.75 349.0Q174.0 332.5 174.0 303.5Q174.0 278.5 173.0 262.5Q172.0 246.5 169.0 235.5Q166.0 224.5 160.25 215.5Q154.5 206.5 144.5 196.0L126.0 178.0H176.5V165.5Q176.5 127.5 152.0 104.5Q144.0 98.0 140.0 92.5Q136.0 87.0 137.0 85.0Q138.5 84.0 150.5 83.0Q162.5 82.0 178.25 81.25Q194.0 80.5 207.0 80.5Q229.0 80.5 231.5 83.0V84.5Q231.5 87.0 227.25 91.5Q223.0 96.0 216.5 99.0Q196.5 108.0 191.75 121.75Q187.0 135.5 187.0 155.5L190.0 178.0H211.5Q221.5 178.0 228.0 176.5Q234.5 175.0 241.5 170.75Q248.5 166.5 259.0 158.5Q282.5 141.0 297.5 128.75Q312.5 116.5 312.5 115.5Q312.5 113.0 304.5 110.75Q296.5 108.5 285.5 106.75Q274.5 105.0 265.0 105.0H237.5L270.0 83.5Q275.0 80.0 280.0 76.0Q290.5 69.0 301.75 61.25Q313.0 53.5 320.0 48.0ZM613.5 132.0 591.5 114.0H635.0Q651.0 114.0 662.5 115.75Q674.0 117.5 674.0 118.5Q674.0 120.5 670.25 124.75Q666.5 129.0 661.0 134.0H662.0Q655.5 141.5 653.5 147.25Q651.5 153.0 651.5 170.0V193.0L653.0 243.5L624.0 245.5Q610.5 246.5 601.5 249.25Q592.5 252.0 588.5 254.5Q580.0 263.0 576.5 263.0Q570.5 263.0 570.5 240.0Q570.5 223.0 566.0 218.25Q561.5 213.5 543.0 213.5Q529.0 213.5 526.0 222.5Q524.0 231.0 521.5 231.0Q520.0 231.0 517.5 225.0Q517.0 219.0 508.0 219.0Q496.0 219.0 480.5 230.0L459.5 243.5L463.5 222.0Q464.5 215.0 465.5 207.0Q466.5 199.0 466.5 194.5Q466.5 182.5 474.5 182.5Q478.0 182.5 480.75 184.5Q483.5 186.5 483.5 189.0Q483.5 191.0 489.0 194.5Q494.5 198.0 501.5 200.75Q508.5 203.5 512.0 203.5Q512.5 203.5 513.0 203.0Q513.5 202.5 513.5 202.5Q515.0 202.0 515.5 198.5Q516.0 195.0 516.0 190.5Q516.0 180.5 521.5 180.5H522.0Q529.0 184.0 529.0 193.5Q529.0 197.5 532.75 199.0Q536.5 200.5 548.0 201.0Q551.5 201.5 554.75 201.75Q558.0 202.0 561.0 202.0Q568.5 202.0 570.0 201.0Q570.0 200.0 570.25 194.0Q570.5 188.0 570.5 181.0V163.0L545.0 165.5Q533.0 166.0 523.75 168.5Q514.5 171.0 510.5 173.5Q502.0 182.0 499.0 182.0Q494.0 182.0 494.0 169.0Q494.0 161.0 495.75 151.5Q497.5 142.0 499.75 135.0Q502.0 128.0 503.5 128.0Q504.5 128.0 507.5 131.5Q510.5 135.0 512.5 139.5Q515.0 145.0 520.75 147.0Q526.5 149.0 544.5 150.0H556.5Q565.0 150.0 567.75 149.25Q570.5 148.5 570.5 147.0Q570.5 135.0 578.0 135.0Q584.5 135.0 592.0 144.0Q597.5 150.0 602.5 152.5Q607.5 155.0 616.0 155.0Q629.5 155.0 629.5 150.5Q629.5 145.5 613.5 132.0ZM500.5 46.5 524.5 10.0 545.0 30.0Q565.5 47.0 600.75 63.75Q636.0 80.5 692.25 98.25Q748.5 116.0 832.0 137.0Q858.5 143.5 880.0 149.75Q901.5 156.0 914.5 160.25Q927.5 164.5 927.5 166.0Q927.5 166.5 912.0 172.75Q896.5 179.0 871.0 188.5Q845.5 198.0 815.0 209.0Q784.5 220.0 753.5 230.75Q722.5 241.5 696.5 250.25Q670.5 259.0 654.5 263.5Q625.5 272.5 593.75 285.25Q562.0 298.0 533.25 312.5Q504.5 327.0 482.5 340.5Q460.5 354.0 450.0 364.5H451.0Q446.0 370.0 441.5 373.75Q437.0 377.5 435.0 377.5Q432.5 377.5 431.5 364.25Q430.5 351.0 430.5 332.5V287.5H470.0Q480.5 287.5 495.25 286.25Q510.0 285.0 525.25 282.5Q540.5 280.0 552.5 277.5Q561.0 275.5 582.25 269.25Q603.5 263.0 633.0 254.0Q662.5 245.0 695.5 234.5Q728.5 224.0 761.0 213.5Q793.5 203.0 821.0 193.75Q848.5 184.5 866.75 177.75Q885.0 171.0 889.0 169.0L890.0 168.5Q890.5 168.0 891.5 168.0Q888.5 166.5 876.75 163.25Q865.0 160.0 838.0 153.5L819.5 148.5Q802.0 144.0 780.5 138.0Q759.0 132.0 738.5 126.25Q718.0 120.5 703.5 116.5Q661.0 103.0 619.75 95.5Q578.5 88.0 546.5 88.0Q540.5 88.0 528.0 89.0Q515.5 90.0 503.75 91.5Q492.0 93.0 488.0 95.5Q482.5 98.5 471.25 108.25Q460.0 118.0 446.5 131.5Q433.0 145.0 420.5 160.0Q411.0 171.0 406.0 178.0Q401.0 185.0 399.5 190.75Q398.0 196.5 398.0 205.0Q398.0 216.5 400.25 222.25Q402.5 228.0 410.5 236.0Q422.5 247.0 431.75 261.0Q441.0 275.0 441.0 281.5Q441.0 283.5 439.5 286.0Q439.0 286.0 438.5 286.25Q438.0 286.5 437.5 286.5Q435.5 286.5 433.25 284.25Q431.0 282.0 428.5 279.0Q426.5 275.0 417.5 264.25Q408.5 253.5 397.5 242.0Q384.0 227.5 374.0 220.25Q364.0 213.0 352.75 209.5Q341.5 206.0 325.0 204.0Q315.5 203.0 315.5 199.5Q315.5 197.0 320.5 193.75Q325.5 190.5 337.0 183.0Q351.0 175.5 369.75 163.25Q388.5 151.0 407.75 137.75Q427.0 124.5 442.0 113.25Q457.0 102.0 463.5 95.5Q469.5 89.5 480.5 75.0Q491.5 60.5 500.5 46.5Z" fill="black" /></svg>