<svg xmlns="http://www.w3.org/2000/svg" width="794.0" height="381.5" viewBox="0 0 794.0 381.5"><path d="M98.5 216.0Q98.5 211.0 97.75 207.5Q97.0 204.0 95.5 203.5H95.0Q93.0 204.0 87.25 210.0Q81.5 216.0 74.75 223.75Q68.0 231.5 63.25 237.75Q58.5 244.0 58.5 246.0Q58.5 246.5 65.5 247.25Q72.5 248.0 82.5 248.0Q94.0 248.0 98.5 247.0Q103.0 246.0 103.0 243.5Q103.0 241.5 102.5 240.5Q101.0 236.5 99.75 229.0Q98.5 221.5 98.5 216.0ZM296.5 280.0Q291.0 270.5 286.5 270.5Q282.0 270.5 282.0 290.5Q282.0 306.5 284.0 306.5Q286.0 306.5 289.75 303.0Q293.5 299.5 296.75 295.0Q300.0 290.5 300.0 288.5Q300.0 285.0 296.5 280.0ZM499.0 293.5Q497.0 293.5 488.75 289.0Q480.5 284.5 472.0 278.5L451.5 265.0V292.5Q451.5 304.0 452.25 311.5Q453.0 319.0 454.5 319.5Q456.5 318.5 464.5 315.5Q472.5 312.5 482.0 309.0Q492.0 305.0 498.0 300.75Q504.0 296.5 504.0 294.5Q504.0 293.5 499.0 293.5ZM150.0 109.0 148.5 87.0Q147.5 77.5 145.25 70.5Q143.0 63.5 142.0 63.5Q140.5 63.5 134.75 69.25Q129.0 75.0 122.5 82.75Q116.0 90.5 111.25 97.25Q106.5 104.0 106.5 106.0Q106.5 106.0 113.0 106.25Q119.5 106.5 128.5 107.5ZM293.5 135.5Q284.5 125.0 280.5 125.0Q276.0 125.0 276.0 144.0Q276.0 152.5 276.25 156.0Q276.5 159.5 278.0 159.5Q280.0 159.5 285.25 156.5Q290.5 153.5 295.25 150.0Q300.0 146.5 300.0 145.0Q300.0 142.0 293.5 135.5ZM437.0 179.0V154.5L379.0 155.5Q355.5 156.0 341.25 156.5Q327.0 157.0 318.5 158.5Q310.0 160.0 304.5 162.75Q299.0 165.5 293.0 171.0Q283.0 180.0 283.0 184.0Q283.0 189.5 302.0 200.5Q320.5 212.0 320.5 219.0V220.0Q319.0 223.0 316.0 223.0Q313.0 223.0 308.25 221.0Q303.5 219.0 298.5 216.5Q293.5 214.0 288.5 212.25Q283.5 210.5 278.0 210.5Q277.5 211.0 277.5 213.5Q277.5 221.0 285.75 237.5Q294.0 254.0 305.0 267.5Q310.5 273.5 314.5 277.0Q318.5 280.5 325.0 282.0Q331.5 283.5 344.0 284.0Q356.5 284.5 378.5 284.5H383.0Q413.0 284.5 425.0 282.75Q437.0 281.0 437.0 272.5Q437.0 268.0 435.0 260.75Q433.0 253.5 430.0 243.5Q425.5 230.0 425.5 223.0Q425.5 216.0 430.5 211.5H430.0Q433.0 208.0 435.0 199.0Q437.0 190.0 437.0 179.0ZM501.5 139.0Q500.0 134.5 479.0 119.5V120.0L451.5 102.0V162.5L472.5 152.5Q481.5 148.0 490.0 143.75Q498.5 139.5 501.5 139.0ZM502.0 139.0H501.5ZM145.5 29.5Q151.5 21.0 157.0 15.5Q162.5 10.0 165.5 10.0H166.5Q171.0 12.0 171.0 16.5Q171.0 19.0 168.5 23.0Q163.5 29.5 160.75 41.5Q158.0 53.5 158.0 67.0Q158.0 81.0 161.0 93.0Q164.0 102.0 168.5 109.0Q173.0 116.0 182.5 123.5Q192.0 131.0 209.5 142.5Q227.0 153.5 241.0 161.75Q255.0 170.0 258.0 170.0Q261.0 170.0 261.0 151.0Q261.0 144.0 261.0 134.75Q261.0 125.5 260.0 113.5Q259.5 104.5 259.25 96.75Q259.0 89.0 259.0 82.5Q259.0 69.5 260.0 62.0Q261.0 54.5 263.0 54.5Q265.5 54.5 267.75 57.75Q270.0 61.0 270.0 66.5Q270.0 72.0 274.5 82.0Q279.0 92.0 285.75 102.75Q292.5 113.5 299.75 122.25Q307.0 131.0 312.0 133.5Q316.5 135.5 336.75 137.5Q357.0 139.5 380.0 139.5H437.0V122.5Q437.0 114.0 435.0 102.0Q433.0 90.0 430.0 80.0Q425.5 66.5 425.5 59.5Q425.5 52.0 430.5 47.5Q434.5 43.5 436.0 43.5Q439.0 43.5 439.0 51.5Q439.0 59.5 449.5 72.75Q460.0 86.0 476.25 98.75Q492.5 111.5 508.5 118.5Q519.0 123.5 528.0 126.5Q537.0 129.5 551.25 131.0Q565.5 132.5 591.0 133.0Q616.5 133.5 660.0 133.5Q696.0 133.5 724.0 134.5Q752.0 135.5 768.0 137.0Q784.0 138.5 784.0 140.5Q784.0 142.5 765.75 144.5Q747.5 146.5 715.5 148.0Q683.5 149.5 642.5 150.0Q584.0 150.5 549.0 152.25Q514.0 154.0 495.25 158.0Q476.5 162.0 468.5 169.75Q460.5 177.5 456.0 190.5Q453.0 198.5 449.75 203.75Q446.5 209.0 444.0 209.0Q439.0 209.0 439.0 213.5Q439.0 224.0 458.5 245.0Q465.5 254.0 480.75 264.5Q496.0 275.0 510.0 282.0L544.0 298.5L663.0 294.0Q689.0 293.0 708.75 292.5Q728.5 292.0 742.5 292.0Q784.0 292.0 784.0 297.0Q784.0 301.0 773.0 303.25Q762.0 305.5 745.0 306.0Q736.0 306.0 718.0 306.75Q700.0 307.5 677.5 308.5Q659.5 309.0 639.75 309.75Q620.0 310.5 600.5 311.5Q556.5 313.0 529.75 315.25Q503.0 317.5 488.5 322.0Q474.0 326.5 467.0 334.0Q460.0 341.5 456.0 353.5Q449.5 371.5 444.5 371.5Q437.0 371.5 437.0 333.5V298.5L374.0 301.0Q351.0 302.0 337.75 302.75Q324.5 303.5 317.25 305.0Q310.0 306.5 305.75 309.75Q301.5 313.0 296.5 319.0Q291.0 325.5 286.5 334.75Q282.0 344.0 282.0 350.0Q282.0 356.5 279.75 361.5Q277.5 366.5 274.5 366.5Q272.5 366.5 260.0 359.5Q247.5 352.5 228.75 341.25Q210.0 330.0 188.0 316.5Q156.5 296.0 137.25 285.25Q118.0 274.5 105.25 270.0Q92.5 265.5 80.0 264.5Q76.0 264.0 72.5 264.0Q69.0 264.0 65.5 264.0Q55.5 264.0 48.5 266.25Q41.5 268.5 33.0 274.0Q17.5 286.0 12.5 286.0Q10.0 286.0 10.0 282.5Q10.0 278.5 18.75 266.0Q27.5 253.5 45.5 235.0Q57.0 223.0 67.75 210.5Q78.5 198.0 86.25 187.5Q94.0 177.0 97.0 171.5Q102.0 163.0 107.25 157.25Q112.5 151.5 117.0 151.5Q122.5 151.5 122.5 156.5Q122.5 159.0 119.5 165.0Q116.5 171.0 114.75 182.5Q113.0 194.0 113.0 207.0Q113.0 230.5 118.5 245.5Q121.0 252.0 140.25 266.5Q159.5 281.0 192.0 301.5Q221.5 319.5 242.5 332.0Q263.5 344.5 265.5 344.5Q266.5 344.5 267.5 333.25Q268.5 322.0 268.5 304.5Q268.5 288.0 267.5 268.75Q266.5 249.5 264.5 231.0L260.0 192.0L210.5 161.0Q177.5 140.5 158.0 131.25Q138.5 122.0 124.0 122.0Q115.0 122.0 106.25 124.75Q97.5 127.5 87.5 133.0Q66.5 143.5 59.5 143.5Q56.5 143.5 56.5 141.0Q56.5 138.5 67.5 124.5Q78.5 110.5 93.5 93.5Q104.0 82.0 114.5 69.5Q125.0 57.0 133.5 46.25Q142.0 35.5 145.5 29.5Z" fill="black" /></svg>