<svg xmlns="http://www.w3.org/2000/svg" width="732.0" height="384.5" viewBox="0 0 732.0 384.5"><path d="M46.0 267.5Q43.5 266.0 36.5 262.25Q29.5 258.5 27.0 258.5Q23.5 258.5 23.5 272.0V276.5Q23.5 284.5 24.5 285.5Q26.0 285.0 30.5 281.5Q35.0 278.0 39.75 273.75Q44.5 269.5 46.0 267.5ZM295.5 290.0H291.0Q284.0 290.0 276.5 289.25Q269.0 288.5 265.0 287.5Q263.0 286.5 261.0 286.0Q259.0 285.5 258.0 285.5H257.0Q257.0 286.5 258.5 289.5Q259.5 292.0 263.0 300.75Q266.5 309.5 270.0 319.0L277.5 339.5Q281.0 334.5 284.5 328.5Q288.5 323.0 293.75 316.25Q299.0 309.5 302.5 306.0Q312.0 296.5 312.0 294.0Q312.0 290.0 295.5 290.0ZM56.0 124.0Q52.5 122.0 50.0 120.75Q47.5 119.5 47.0 119.5V138.0Q47.0 147.5 48.0 147.5Q49.5 147.5 53.5 144.0Q57.5 140.5 61.5 136.0Q65.5 131.5 66.0 129.5L64.5 128.5Q63.0 127.5 60.75 126.25Q58.5 125.0 56.0 124.0ZM104.5 131.0H96.0Q89.0 131.0 89.0 131.5Q89.0 132.0 89.75 133.25Q90.5 134.5 91.0 136.5Q94.5 143.5 97.5 143.5Q99.5 143.5 102.0 139.0Q104.5 134.5 104.5 131.0ZM131.0 255.5V207.0Q131.0 183.5 130.75 172.5Q130.5 161.5 128.75 156.75Q127.0 152.0 122.5 147.5L114.5 137.5L110.0 146.5Q107.0 151.0 105.75 164.5Q104.5 178.0 104.5 204.5V253.0ZM138.0 136.0Q140.5 133.0 140.5 131.5Q140.5 131.0 134.0 131.0Q126.0 131.0 126.0 133.5Q126.0 135.5 130.0 139.5Q133.0 140.5 133.5 140.5Q135.0 140.5 138.0 136.0ZM260.0 141.0 251.0 127.0 212.0 127.5Q186.0 128.0 171.75 129.25Q157.5 130.5 151.5 137.0Q145.5 143.5 144.0 158.5Q142.5 173.5 141.5 201.0L140.5 255.0H201.0Q231.0 255.0 247.5 256.5Q264.0 258.0 264.0 260.5Q264.0 262.5 260.75 264.25Q257.5 266.0 253.0 266.0Q246.5 266.0 245.5 268.5Q246.5 271.5 252.75 273.5Q259.0 275.5 264.0 275.5Q268.0 275.5 268.5 274.5Q269.0 273.5 269.5 255.0Q270.0 236.5 270.0 213.5Q270.0 187.0 269.25 174.0Q268.5 161.0 266.5 154.25Q264.5 147.5 260.0 141.0ZM274.0 132.0Q274.0 127.0 268.5 127.0Q265.0 127.0 265.0 129.5Q265.0 132.5 270.0 135.0H271.0Q274.0 135.0 274.0 132.0ZM327.0 119.5 333.5 118.5Q318.0 112.0 302.5 108.5Q287.0 105.0 269.5 105.0Q260.0 105.0 257.0 106.5Q252.0 108.5 252.0 109.5Q252.0 112.5 280.0 112.5Q291.5 112.5 301.0 113.75Q310.5 115.0 312.5 116.5Q315.5 119.5 324.0 119.5ZM312.0 226.0V157.0Q310.0 154.5 305.0 149.0Q300.0 143.5 294.75 138.25Q289.5 133.0 287.5 132.5Q283.0 135.0 280.75 145.25Q278.5 155.5 277.75 166.25Q277.0 177.0 277.0 181.5Q277.0 190.0 277.25 200.75Q277.5 211.5 278.0 225.0L281.0 282.0H292.5Q301.5 282.0 305.75 279.0Q310.0 276.0 311.0 264.0Q312.0 252.0 312.0 226.0ZM408.0 159.0Q383.5 144.5 369.0 138.0Q354.5 131.5 346.0 131.5Q337.0 131.5 331.0 138.5Q328.0 142.0 326.25 148.0Q324.5 154.0 324.0 168.75Q323.5 183.5 322.5 213.0L321.5 279.0Q323.0 278.5 327.25 277.75Q331.5 277.0 333.5 276.5Q339.0 275.5 358.0 265.75Q377.0 256.0 399.5 243.5Q422.0 231.0 433.5 224.0Q445.0 217.0 449.75 212.5Q454.5 208.0 455.5 204.0Q456.5 200.5 457.0 197.0Q457.5 193.5 457.5 191.5Q457.5 189.5 457.0 189.0Q456.5 188.0 442.25 179.0Q428.0 170.0 408.0 159.0ZM464.5 283.5Q456.5 279.5 450.5 276.5Q444.5 273.5 443.5 273.5Q443.0 273.5 442.75 280.0Q442.5 286.5 442.0 295.5V300.5Q442.0 306.0 442.5 310.25Q443.0 314.5 443.5 315.5Q453.5 310.0 466.0 305.0Q478.5 300.0 486.0 299.0Q497.0 296.5 497.0 293.5Q497.0 292.5 491.0 292.5Q488.0 292.5 480.25 289.75Q472.5 287.0 464.5 283.5ZM472.0 195.5Q470.5 192.5 469.5 192.5Q468.5 192.5 468.5 197.5Q468.5 200.0 470.5 200.0L471.0 199.5Q472.5 198.0 472.5 196.5Q472.5 196.5 472.5 196.25Q472.5 196.0 472.0 195.5ZM485.0 236.5Q484.5 236.0 481.5 233.5Q478.5 231.0 475.5 229.0L468.5 223.5V246.5L476.0 241.0Q483.0 236.5 485.0 236.5ZM483.5 191.5V192.0Q482.0 188.5 480.0 188.5Q480.0 188.5 479.75 189.25Q479.5 190.0 479.5 191.0Q479.5 193.5 483.0 193.5Q483.5 193.5 483.75 193.25Q484.0 193.0 484.0 193.0Q484.0 192.0 483.5 191.5ZM534.5 228.0H574.5L572.0 195.0H532.0Q517.5 195.0 509.0 196.5Q500.5 198.0 492.5 202.5Q475.5 210.5 475.5 216.5Q475.5 222.0 490.75 225.0Q506.0 228.0 534.5 228.0ZM317.5 87.0Q313.5 81.0 309.25 72.5Q305.0 64.0 303.0 59.0L299.5 48.5L265.5 93.5H280.0Q287.0 93.5 296.75 95.25Q306.5 97.0 313.0 99.5Q322.0 102.5 326.5 102.5Q327.0 102.5 327.25 102.75Q327.5 103.0 327.5 103.0Q326.5 99.0 317.5 87.0ZM321.5 129.0Q320.5 128.0 317.5 127.5Q314.5 127.0 311.5 127.0Q308.0 127.0 305.25 127.25Q302.5 127.5 302.5 128.5Q302.5 131.0 309.0 137.5Q313.5 141.0 314.5 141.0Q317.0 141.0 319.0 136.5Q321.5 132.5 321.5 129.0ZM476.5 94.0Q471.0 90.0 466.75 87.5Q462.5 85.0 462.0 85.0Q461.5 85.0 460.75 91.75Q460.0 98.5 459.25 106.75Q458.5 115.0 458.5 120.0V123.5Q464.0 123.5 475.5 116.5Q482.5 113.5 489.0 111.25Q495.5 109.0 497.0 109.0Q501.0 109.0 501.0 106.5Q501.0 104.5 496.5 104.5Q494.5 104.5 488.5 101.5Q482.5 98.5 476.5 94.0ZM589.0 167.5Q588.0 167.0 585.75 166.0Q583.5 165.0 580.0 164.5Q576.5 163.0 574.0 163.0Q573.0 163.0 573.0 164.0Q573.0 166.5 577.5 174.0L582.0 182.0L585.5 175.5Q586.5 173.0 587.5 171.0Q588.5 169.0 589.0 167.5ZM650.5 255.0Q650.5 248.5 650.0 233.5Q649.5 218.5 646.75 202.25Q644.0 186.0 637.75 174.5Q631.5 163.0 620.5 163.0Q613.0 163.0 605.0 169.5Q594.0 178.0 589.5 187.75Q585.0 197.5 585.0 217.0Q585.0 222.5 585.25 229.0Q585.5 235.5 586.0 243.5L588.5 285.5H650.5ZM669.5 163.0Q667.5 162.0 657.5 162.0Q651.0 162.0 648.75 162.25Q646.5 162.5 646.5 163.5Q646.5 164.0 646.75 164.75Q647.0 165.5 647.5 166.5L648.5 169.0Q649.5 171.0 650.25 174.25Q651.0 177.5 651.5 180.0V179.5Q653.0 185.5 654.5 185.5Q658.0 185.5 669.5 163.0ZM682.0 85.5Q682.0 85.5 676.5 85.25Q671.0 85.0 663.5 85.0Q645.5 85.0 645.5 88.5Q645.5 89.0 648.5 91.5Q650.0 92.5 652.5 96.25Q655.0 100.0 657.0 104.0L660.0 112.0L670.0 100.5Q675.0 95.0 678.5 90.75Q682.0 86.5 682.0 85.5ZM304.0 15.5Q309.5 10.0 311.0 10.0Q313.0 10.0 313.0 13.5Q313.0 16.5 310.0 25.0Q309.5 27.5 308.75 30.0Q308.0 32.5 308.0 35.0Q308.0 38.5 309.5 43.75Q311.0 49.0 313.5 56.0Q320.5 73.5 330.75 87.5Q341.0 101.5 358.5 114.75Q376.0 128.0 404.0 144.5Q424.5 157.0 440.0 165.5Q455.5 174.0 457.0 174.0Q458.0 174.0 458.25 171.75Q458.5 169.5 458.5 167.5Q458.5 160.0 461.0 160.0Q462.5 160.0 471.0 168.5Q475.0 172.0 482.25 176.25Q489.5 180.5 495.0 182.0Q501.0 184.0 515.5 184.75Q530.0 185.5 543.0 185.5Q552.5 185.5 559.5 185.0Q566.5 184.5 568.0 184.0V183.0Q568.0 179.0 565.0 172.5Q562.0 166.0 559.5 166.0Q556.5 166.0 549.0 159.5Q545.5 157.0 545.5 155.0Q545.5 153.0 549.75 152.25Q554.0 151.5 564.5 151.5H632.0L651.0 151.0L649.0 110.0L590.5 109.0Q582.5 109.0 575.5 108.75Q568.5 108.5 563.0 108.5Q539.0 108.5 513.0 114.0Q487.0 119.5 467.0 133.5Q461.0 137.0 456.0 139.75Q451.0 142.5 450.5 142.5Q450.0 142.5 449.5 137.75Q449.0 133.0 449.0 125.5Q449.0 115.0 449.25 101.5Q449.5 88.0 450.0 77.0Q450.5 66.0 451.0 63.5Q454.5 63.5 468.0 76.0Q474.0 81.0 482.5 86.0Q491.0 91.0 497.5 92.5Q505.5 95.0 528.25 96.25Q551.0 97.5 575.5 97.5Q599.0 97.5 618.25 96.75Q637.5 96.0 639.0 94.5Q635.5 90.0 621.0 85.5Q614.5 83.0 610.25 80.75Q606.0 78.5 606.0 77.0V76.0Q607.0 75.0 617.25 74.25Q627.5 73.5 642.25 73.25Q657.0 73.0 672.0 73.0Q692.0 73.0 707.0 73.75Q722.0 74.5 722.0 76.5Q722.0 81.0 716.0 81.0Q710.0 81.0 700.75 87.5Q691.5 94.0 682.25 104.0Q673.0 114.0 666.75 124.0Q660.5 134.0 660.5 141.5Q660.5 153.5 678.0 153.5Q680.5 153.5 682.75 153.25Q685.0 153.0 688.0 152.5Q690.0 152.0 691.75 152.0Q693.5 152.0 695.0 152.0Q702.5 152.0 704.5 155.0Q705.5 157.0 705.5 158.0Q705.5 162.0 699.0 162.0Q691.0 162.0 680.5 171.0Q670.0 180.0 664.5 191.5Q661.5 198.0 660.5 207.0Q659.5 216.0 659.5 232.0V244.5Q660.5 269.0 661.75 276.5Q663.0 284.0 667.5 285.0Q675.5 286.5 675.5 292.0Q675.5 296.5 669.0 296.5Q666.5 296.5 665.5 300.0Q664.5 303.5 664.5 312.5Q664.5 331.0 659.5 331.0Q655.5 331.0 654.0 313.0L652.5 298.5L620.5 297.0L587.5 296.0V304.5Q587.5 309.5 586.25 312.75Q585.0 316.0 583.0 316.0Q581.0 316.0 579.5 312.75Q578.0 309.5 578.0 304.5Q578.0 299.0 574.75 297.75Q571.5 296.5 555.0 296.5Q542.0 296.5 524.0 300.0Q506.0 303.5 487.5 309.25Q469.0 315.0 454.5 322.0Q445.0 326.0 439.75 328.25Q434.5 330.5 432.0 330.5Q428.5 330.5 428.5 326.5Q428.5 325.0 429.5 321.0Q430.5 318.0 431.25 307.5Q432.0 297.0 432.0 286.0Q432.0 274.5 432.75 265.5Q433.5 256.5 434.0 255.0V255.5Q435.0 254.0 436.0 254.0Q438.5 254.0 442.75 256.75Q447.0 259.5 452.0 263.5Q468.0 276.0 488.0 280.75Q508.0 285.5 541.0 285.5H578.0V271.0Q578.0 255.0 576.25 248.25Q574.5 241.5 566.75 240.0Q559.0 238.5 540.0 238.5Q515.5 238.5 495.25 243.75Q475.0 249.0 470.5 257.0Q469.0 259.0 466.5 260.5Q464.0 262.0 461.0 262.0Q455.5 262.0 455.5 255.0Q455.5 253.0 455.75 250.75Q456.0 248.5 456.5 245.0Q457.5 241.5 457.5 238.25Q457.5 235.0 457.5 232.0Q457.5 227.5 457.0 227.5Q454.0 227.5 441.5 233.5Q429.0 239.5 411.75 248.75Q394.5 258.0 376.5 268.25Q358.5 278.5 344.0 287.5Q329.5 296.5 322.5 302.0Q305.0 317.5 295.75 331.0Q286.5 344.5 284.0 359.0Q281.5 374.5 278.5 374.5Q278.0 374.5 277.0 372.5Q276.5 371.5 275.5 368.25Q274.5 365.0 272.5 360.0Q269.5 350.5 264.0 335.0Q258.5 319.5 252.5 305.0Q246.5 290.5 241.5 284.5Q237.5 280.5 234.5 275.75Q231.5 271.0 231.5 269.0Q231.5 267.0 221.25 266.5Q211.0 266.0 186.0 266.0H141.0V278.0Q141.0 284.0 139.75 288.25Q138.5 292.5 136.0 292.5Q134.0 292.5 132.5 288.25Q131.0 284.0 131.0 278.0Q131.0 269.5 129.25 267.75Q127.5 266.0 119.0 266.0Q110.5 266.0 108.5 267.5Q106.5 269.0 106.5 277.5Q106.5 294.0 101.5 294.0Q97.5 294.0 96.0 281.0Q95.5 272.5 93.5 270.0Q91.5 267.5 85.5 266.5Q74.0 266.5 59.5 273.75Q45.0 281.0 33.5 292.5Q22.0 304.0 19.5 316.0Q17.5 325.5 15.0 325.5Q11.5 325.5 10.75 319.25Q10.0 313.0 10.0 311.0Q10.0 307.5 10.5 302.75Q11.0 298.0 12.0 293.0Q13.0 287.5 13.25 280.0Q13.5 272.5 13.5 265.0Q13.5 261.0 13.5 257.5Q13.5 254.0 13.0 251.0Q12.5 248.5 12.5 246.0Q12.5 243.5 12.5 241.5Q12.5 227.5 17.5 227.5Q21.5 227.5 25.5 238.0Q28.5 247.0 37.0 250.75Q45.5 254.5 63.0 254.5H70.5L95.0 253.0L94.0 206.0Q93.5 178.0 92.0 165.5Q90.5 153.0 86.5 148.0Q81.5 138.5 77.0 138.5Q73.5 138.5 65.75 145.75Q58.0 153.0 51.0 162.25Q44.0 171.5 42.5 177.5Q40.5 187.0 37.5 187.0Q36.0 187.0 34.75 182.5Q33.5 178.0 33.5 171.0Q33.5 163.5 35.0 155.5Q36.0 149.5 36.5 141.75Q37.0 134.0 37.0 126.0Q37.0 122.0 37.0 118.75Q37.0 115.5 36.5 112.5Q36.0 110.0 36.0 107.5Q36.0 105.0 36.0 103.0Q36.0 89.0 41.0 89.0Q44.5 89.0 49.0 100.0Q52.0 108.0 60.75 112.75Q69.5 117.5 80.0 117.5Q82.0 117.5 84.0 117.25Q86.0 117.0 88.0 116.5Q89.0 116.0 95.0 116.0Q101.0 116.0 110.5 116.0Q120.5 116.0 132.5 116.0Q144.5 116.0 158.0 116.5Q185.5 116.5 199.75 116.25Q214.0 116.0 219.25 114.75Q224.5 113.5 225.5 111.5Q227.5 106.0 234.5 106.0Q237.5 105.5 245.0 98.5Q252.5 91.5 261.5 80.75Q270.5 70.0 278.25 59.25Q286.0 48.5 290.0 40.5Q294.0 33.0 298.0 25.75Q302.0 18.5 304.0 15.5ZM470.5 181.5Q470.5 181.5 470.25 181.75Q470.0 182.0 469.5 182.0Q469.0 182.0 468.75 181.75Q468.5 181.5 468.5 181.5Q468.5 181.0 469.5 181.0Q470.5 181.0 470.5 181.5Z" fill="black" /></svg>