<svg xmlns="http://www.w3.org/2000/svg" width="1010.0" height="447.5" viewBox="0 0 1010.0 447.5"><path d="M110.5 269.0V268.5Q114.0 264.5 114.0 261.0Q114.0 260.0 112.0 260.0H110.5Q107.0 260.5 97.5 265.25Q88.0 270.0 77.25 276.25Q66.5 282.5 58.75 288.0Q51.0 293.5 50.0 296.0Q50.5 297.0 57.25 299.75Q64.0 302.5 73.0 305.5Q82.0 308.5 90.0 310.75Q98.0 313.0 101.5 313.0Q102.5 313.0 103.25 308.25Q104.0 303.5 104.0 297.0Q104.0 290.0 106.25 281.75Q108.5 273.5 110.5 269.0ZM232.0 266.5Q232.0 264.0 232.25 261.25Q232.5 258.5 232.5 256.0Q232.5 248.5 231.0 247.0Q228.0 247.5 219.25 252.75Q210.5 258.0 202.75 263.75Q195.0 269.5 195.0 271.5Q195.0 273.0 201.75 276.75Q208.5 280.5 216.75 283.5Q225.0 286.5 228.5 286.5Q229.0 286.5 229.5 280.5Q230.0 274.5 232.0 266.5ZM482.5 313.5H482.0Q480.0 312.5 475.0 311.5Q470.0 310.5 463.0 309.5Q459.5 308.5 456.25 307.75Q453.0 307.0 450.0 306.5Q444.5 306.0 441.0 305.75Q437.5 305.5 435.0 305.5Q429.5 305.5 429.5 306.5Q429.5 307.5 429.75 309.0Q430.0 310.5 430.5 312.5Q431.0 314.5 431.75 316.75Q432.5 319.0 433.0 322.0Q434.0 326.5 435.5 331.0Q437.0 335.5 438.0 339.5Q439.0 347.0 440.25 351.75Q441.5 356.5 442.0 356.5Q443.0 356.5 449.75 351.0Q456.5 345.5 464.5 338.0Q472.5 330.5 478.5 323.75Q484.5 317.0 484.5 315.0Q484.5 315.5 482.5 313.5ZM114.0 128.0Q117.0 119.5 119.0 113.0Q121.0 106.5 121.5 104.0Q118.0 104.5 109.75 110.25Q101.5 116.0 92.0 123.25Q82.5 130.5 75.75 136.75Q69.0 143.0 69.0 145.0Q69.0 146.5 73.5 147.75Q78.0 149.0 83.5 149.0Q90.5 149.0 96.25 149.0Q102.0 149.0 104.0 150.0Q105.0 150.0 107.75 143.5Q110.5 137.0 114.0 128.0ZM226.5 133.5Q228.0 129.0 228.5 125.5Q229.0 122.0 229.0 120.0Q229.0 117.0 227.0 117.0Q224.5 117.0 217.75 121.5Q211.0 126.0 205.25 131.5Q199.5 137.0 199.5 140.0Q199.5 142.5 206.25 145.5Q213.0 148.5 215.0 148.5Q223.5 148.5 226.5 133.5ZM385.5 166.5Q379.5 165.5 362.0 163.0Q360.0 162.0 357.5 162.0Q355.0 162.0 352.5 162.0Q344.5 162.0 339.25 163.25Q334.0 164.5 334.0 166.5Q334.0 168.5 338.0 170.0Q340.5 172.5 344.75 181.75Q349.0 191.0 352.5 202.5Q356.0 214.5 359.0 222.5Q362.0 230.5 363.0 230.5Q364.0 230.5 367.25 222.25Q370.5 214.0 374.75 202.5Q379.0 191.0 382.0 180.75Q385.0 170.5 385.5 166.5ZM385.5 52.0V51.0Q385.5 46.5 363.0 44.0Q358.5 44.0 353.75 43.75Q349.0 43.5 345.5 43.5Q338.5 43.5 337.0 44.0Q337.5 47.5 341.0 58.0Q344.5 68.5 349.25 80.75Q354.0 93.0 358.0 102.0Q362.0 111.0 363.0 111.0Q364.0 111.0 367.25 103.75Q370.5 96.5 373.5 85.5Q377.5 74.0 381.0 64.5Q384.5 55.0 385.5 52.0ZM511.0 160.5Q510.5 159.0 506.0 156.75Q501.5 154.5 497.0 154.0Q494.5 153.5 491.0 153.5Q486.5 153.5 486.5 157.5Q486.5 160.5 488.25 166.75Q490.0 173.0 492.0 179.0Q494.0 185.0 495.0 187.5Q497.5 187.5 501.25 183.0Q505.0 178.5 508.25 172.25Q511.5 166.0 511.5 162.0Q511.5 161.5 511.25 161.25Q511.0 161.0 511.0 160.5ZM778.0 168.5Q675.5 141.0 612.75 127.75Q550.0 114.5 516.0 114.5Q490.5 114.5 481.5 122.0Q473.0 128.5 473.0 132.0Q473.0 135.5 482.75 136.75Q492.5 138.0 514.0 138.0Q531.0 138.0 542.75 138.5Q554.5 139.0 554.5 142.5Q554.5 142.5 548.5 149.25Q542.5 156.0 534.5 163.0Q519.0 179.0 511.0 203.75Q503.0 228.5 503.0 264.0V295.0L522.5 291.0Q526.5 290.5 545.75 287.5Q565.0 284.5 594.75 279.75Q624.5 275.0 661.5 269.0Q698.5 263.0 738.0 257.0Q807.0 245.5 850.5 238.25Q894.0 231.0 917.5 226.75Q941.0 222.5 950.25 220.5Q959.5 218.5 960.0 217.5Q960.0 217.0 948.25 214.0Q936.5 211.0 918.0 205.75Q899.5 200.5 878.0 194.75Q856.5 189.0 836.0 183.5Q815.5 178.0 800.0 174.0Q784.5 170.0 778.0 168.5ZM510.0 98.5 537.0 96.5Q532.0 90.5 527.75 86.25Q523.5 82.0 518.5 77.0L497.5 57.0Q495.5 62.5 493.0 68.25Q490.5 74.0 488.5 79.5Q485.5 87.0 483.25 93.0Q481.0 99.0 480.0 102.0Q484.0 101.5 492.25 100.75Q500.5 100.0 510.0 98.5ZM399.0 23.5Q411.0 17.0 415.5 17.0Q419.0 17.0 421.0 18.75Q423.0 20.5 425.0 24.5Q425.5 25.0 425.5 28.0Q425.5 33.0 418.0 36.5Q411.5 39.0 404.5 50.75Q397.5 62.5 391.75 78.25Q386.0 94.0 382.25 109.75Q378.5 125.5 378.5 136.5Q378.5 149.0 384.0 149.0Q388.0 149.0 392.0 146.75Q396.0 144.5 399.0 142.5Q401.0 139.5 404.75 138.25Q408.5 137.0 412.0 137.0Q414.0 137.0 415.5 137.25Q417.0 137.5 419.0 138.0Q421.5 139.5 423.5 141.0Q425.5 142.5 425.5 145.0Q425.5 150.0 413.5 160.5Q395.0 178.5 385.0 219.5Q375.0 260.5 375.0 332.0Q375.0 355.0 374.25 374.25Q373.5 393.5 372.0 405.0Q370.5 416.5 369.0 416.5Q365.5 416.5 363.75 412.5Q362.0 408.5 362.0 402.5Q362.0 398.5 360.75 395.5Q359.5 392.5 358.5 392.5Q355.5 392.5 339.0 382.0Q322.5 371.5 302.0 356.0Q261.0 326.5 230.0 309.75Q199.0 293.0 176.5 288.0Q155.5 283.5 155.5 276.5Q155.5 269.0 174.0 262.0Q182.5 259.0 187.5 256.0Q192.5 253.0 192.5 252.5Q192.5 250.0 187.25 244.25Q182.0 238.5 175.0 230.5L158.0 215.0L148.0 232.0Q134.0 251.5 127.0 268.0Q120.0 284.5 120.0 297.0Q120.0 305.0 123.0 310.75Q126.0 316.5 132.5 318.5Q136.5 322.0 140.75 326.75Q145.0 331.5 145.0 335.0Q145.0 337.5 156.5 346.0Q168.0 354.5 184.5 363.5Q221.5 386.5 243.25 404.0Q265.0 421.5 265.0 431.0Q265.0 436.5 261.0 437.5Q257.0 437.5 248.5 429.0Q236.5 417.5 215.75 403.0Q195.0 388.5 170.25 373.75Q145.5 359.0 120.25 346.0Q95.0 333.0 73.75 324.25Q52.5 315.5 39.0 313.0Q10.0 308.0 10.0 301.5Q10.0 295.5 40.0 280.5Q56.5 272.0 73.5 261.75Q90.5 251.5 105.0 241.25Q119.5 231.0 129.25 222.5Q139.0 214.0 141.0 209.0Q142.0 208.5 142.0 206.5Q142.0 200.5 133.5 193.25Q125.0 186.0 111.25 178.75Q97.5 171.5 81.25 166.25Q65.0 161.0 49.0 159.0L15.5 154.5L74.5 117.0Q89.5 106.5 106.25 94.25Q123.0 82.0 137.75 70.5Q152.5 59.0 161.0 51.5Q172.5 41.5 180.75 35.5Q189.0 29.5 192.0 29.5Q195.0 29.5 195.0 33.0Q195.0 37.0 191.75 43.25Q188.5 49.5 184.5 53.0Q180.0 55.5 169.75 68.75Q159.5 82.0 149.5 97.0Q127.5 127.0 127.5 145.0Q127.5 159.0 138.5 173.0Q149.5 187.0 171.0 206.5L210.0 242.0L234.5 222.0Q254.0 205.5 254.0 201.0Q254.0 198.5 252.5 196.5Q251.0 194.5 248.0 191.0Q235.5 178.0 214.5 168.5Q193.5 159.0 176.0 159.0Q153.0 159.0 153.0 149.5Q153.0 143.0 165.0 136.5Q171.5 133.5 185.75 124.25Q200.0 115.0 217.0 102.75Q234.0 90.5 250.0 78.0Q266.0 65.5 276.5 56.5Q291.0 43.5 296.0 43.5Q299.0 43.5 299.0 48.0Q299.0 54.0 285.5 71.5Q264.0 96.0 252.75 115.0Q241.5 134.0 241.5 146.0Q241.5 150.0 242.0 151.5Q244.5 156.5 254.75 169.5Q265.0 182.5 278.5 194.5Q290.0 206.0 298.0 215.75Q306.0 225.5 306.5 229.5Q306.0 230.0 306.0 231.0Q306.0 232.0 305.5 232.5Q299.0 232.5 294.25 229.5Q289.5 226.5 285.5 221.5L270.5 208.5L261.0 223.5Q254.5 234.5 250.75 247.75Q247.0 261.0 247.0 273.5Q247.0 282.0 250.5 288.25Q254.0 294.5 265.0 305.5Q274.0 314.0 288.75 326.0Q303.5 338.0 318.75 349.25Q334.0 360.5 345.25 368.0Q356.5 375.5 359.0 375.5Q360.5 375.5 360.5 366.5Q360.5 364.0 360.25 360.25Q360.0 356.5 360.0 353.0Q358.5 343.5 357.0 323.5Q355.5 303.5 353.5 285.0Q351.5 259.0 345.0 232.75Q338.5 206.5 329.75 187.25Q321.0 168.0 312.0 163.0Q300.0 155.0 300.0 150.0Q300.0 142.0 326.5 142.0H351.5L347.0 121.5Q344.5 104.5 338.0 86.75Q331.5 69.0 324.0 56.25Q316.5 43.5 310.5 41.5Q306.5 40.5 303.25 36.5Q300.0 32.5 300.0 29.5Q300.0 25.0 317.0 25.0Q322.5 25.0 329.25 25.5Q336.0 26.0 344.0 27.5Q350.5 28.0 356.0 28.25Q361.5 28.5 366.5 28.5Q378.0 28.5 386.5 27.0Q395.0 25.5 399.0 23.5ZM487.0 15.0Q492.0 10.0 495.0 10.0Q503.0 10.0 503.0 27.5Q503.0 34.0 512.0 45.5Q521.0 57.0 534.0 69.25Q547.0 81.5 560.5 90.75Q574.0 100.0 583.0 102.0Q595.5 104.5 623.25 111.75Q651.0 119.0 688.25 128.75Q725.5 138.5 766.75 149.5Q808.0 160.5 847.75 171.25Q887.5 182.0 920.25 191.0Q953.0 200.0 973.25 206.0Q993.5 212.0 995.0 213.0Q1000.0 217.5 1000.0 220.5Q1000.0 222.5 995.5 227.0Q994.0 227.5 975.5 231.0Q957.0 234.5 926.25 240.0Q895.5 245.5 855.75 252.0Q816.0 258.5 771.5 265.5Q704.0 276.0 660.25 283.25Q616.5 290.5 590.25 295.75Q564.0 301.0 549.25 305.75Q534.5 310.5 525.0 316.0Q510.0 323.0 495.25 334.0Q480.5 345.0 468.0 357.0Q455.5 369.0 448.0 379.5Q440.5 390.0 440.5 396.0Q440.5 402.5 439.5 404.75Q438.5 407.0 432.5 407.0Q430.5 405.5 428.25 395.25Q426.0 385.0 426.0 372.5Q425.5 360.0 422.0 341.5Q418.5 323.0 413.5 309.0Q410.0 295.0 406.75 285.0Q403.5 275.0 403.5 272.5V270.5Q405.0 269.0 405.5 269.0Q408.0 269.0 414.25 272.5Q420.5 276.0 427.5 280.5Q436.5 286.0 448.75 290.0Q461.0 294.0 469.5 294.0H490.0L487.5 247.0Q485.5 213.0 478.0 188.25Q470.5 163.5 456.5 145.0Q453.0 139.5 453.0 133.0Q453.0 127.0 456.0 117.75Q459.0 108.5 465.0 93.0Q472.5 77.0 477.5 61.25Q482.5 45.5 482.5 38.0Q482.5 31.0 483.75 24.0Q485.0 17.0 487.0 15.0Z" fill="black" /></svg>