<svg xmlns="http://www.w3.org/2000/svg" width="732.5" height="378.0" viewBox="0 0 732.5 378.0"><path d="M56.5 224.0 48.0 219.0Q38.0 212.5 31.0 212.5Q24.0 212.5 24.0 220.5Q24.0 229.0 32.5 229.0Q38.5 229.0 48.0 226.0ZM61.0 286.0Q61.0 284.5 55.5 281.5Q50.0 278.5 44.0 276.25Q38.0 274.0 36.0 274.0Q29.5 274.0 29.5 282.5Q29.5 290.5 34.5 290.5Q35.5 290.5 37.0 290.25Q38.5 290.0 40.5 289.5H40.0Q51.0 285.5 59.5 285.5Q61.0 285.5 61.0 286.0ZM304.0 314.5Q287.5 314.5 271.25 312.75Q255.0 311.0 239.0 307.5Q227.5 305.0 218.75 303.75Q210.0 302.5 204.0 302.5Q194.5 302.5 191.5 306.5Q188.5 310.5 188.5 319.5Q188.5 326.5 189.5 329.0Q190.5 331.5 195.0 331.5Q197.0 331.5 199.25 331.25Q201.5 331.0 204.5 330.5H204.0Q211.0 328.5 226.5 326.25Q242.0 324.0 257.5 322.0H262.0Q304.0 316.5 304.0 314.5ZM48.5 168.5 59.0 165.5 45.5 159.0Q35.5 153.5 32.5 153.5Q30.0 153.5 28.5 159.5Q27.0 165.5 27.0 168.0Q27.0 172.0 32.0 172.0Q34.5 172.0 38.75 171.0Q43.0 170.0 48.5 168.5ZM61.5 102.0Q60.0 99.5 48.0 95.5Q41.5 92.5 38.0 92.5Q35.0 92.5 35.0 99.5Q35.0 108.5 40.0 108.5Q41.5 108.5 43.25 108.25Q45.0 108.0 47.0 107.5Q52.0 107.0 56.25 105.5Q60.5 104.0 61.5 102.0ZM185.5 115.5Q183.0 113.5 164.75 112.5Q146.5 111.5 125.0 111.5Q110.5 111.5 96.75 112.0Q83.0 112.5 74.0 114.0Q55.5 117.5 42.5 123.25Q29.5 129.0 29.5 133.5Q29.5 134.5 37.0 138.5Q44.5 142.5 54.0 147.0Q65.5 152.0 79.75 155.0Q94.0 158.0 116.0 159.5Q138.0 161.0 171.5 162.0Q177.5 162.5 182.25 163.75Q187.0 165.0 187.0 167.5Q187.0 168.0 186.75 168.5Q186.5 169.0 186.5 169.5Q185.0 171.0 167.75 172.75Q150.5 174.5 128.0 174.5Q86.0 174.5 58.5 178.75Q31.0 183.0 31.0 189.5V190.5Q35.0 202.0 60.75 209.25Q86.5 216.5 128.0 217.5Q151.0 218.5 167.25 221.0Q183.5 223.5 183.5 226.0Q183.5 229.0 167.75 230.75Q152.0 232.5 130.0 232.5Q89.5 233.0 62.0 238.25Q34.5 243.5 31.0 250.5V251.0Q31.0 253.5 37.5 258.0Q44.0 262.5 53.5 266.5Q63.0 270.5 73.0 273.25Q83.0 276.0 98.0 277.25Q113.0 278.5 135.5 279.5L193.5 282.0L191.0 201.0Q191.0 179.0 190.0 160.25Q189.0 141.5 188.0 129.25Q187.0 117.0 185.5 115.5ZM201.5 120.0V120.5Q202.0 120.0 202.0 118.0Q202.0 117.5 201.75 116.75Q201.5 116.0 201.5 115.5Q200.5 115.5 200.0 115.0Q199.0 116.0 199.0 117.5Q199.0 120.5 200.5 120.5Q200.5 120.5 200.75 120.5Q201.0 120.5 201.5 120.0ZM336.5 197.0Q321.0 193.0 306.25 189.5Q291.5 186.0 286.5 184.0Q282.0 182.5 280.5 182.5Q276.5 182.5 276.5 192.0Q276.5 204.5 278.25 209.5Q280.0 214.5 287.5 214.5Q291.5 214.5 297.75 213.5Q304.0 212.5 312.5 210.5Q325.5 208.0 339.5 205.75Q353.5 203.5 360.0 203.0H360.5Q357.5 202.0 351.5 200.5Q345.5 199.0 336.5 197.0ZM643.0 85.0 555.5 82.5Q525.0 81.5 495.5 80.75Q466.0 80.0 438.0 80.0Q387.5 80.0 345.25 81.75Q303.0 83.5 274.25 86.75Q245.5 90.0 235.0 95.0Q225.5 99.5 219.5 113.75Q213.5 128.0 210.25 147.5Q207.0 167.0 205.5 187.25Q204.0 207.5 203.5 224.25Q203.0 241.0 203.0 249.5Q203.0 265.5 204.0 276.5Q205.0 287.5 207.0 288.5Q210.0 289.0 229.75 292.25Q249.5 295.5 274.0 299.5Q294.0 302.5 314.25 304.25Q334.5 306.0 361.75 307.0Q389.0 308.0 430.0 308.0Q465.5 308.0 500.5 307.25Q535.5 306.5 570.5 306.0Q604.5 305.5 625.25 305.25Q646.0 305.0 646.0 305.0Q647.0 304.5 647.75 294.5Q648.5 284.5 649.5 269.5Q649.5 267.0 649.75 264.25Q650.0 261.5 650.0 259.0L651.5 214.5L544.0 213.0H513.0Q464.5 213.0 419.75 214.75Q375.0 216.5 342.0 219.75Q309.0 223.0 295.0 228.0Q288.5 230.0 281.5 234.25Q274.5 238.5 272.5 241.0Q267.5 247.0 264.0 247.0Q260.0 247.0 260.0 241.0Q260.0 235.0 264.0 223.0Q266.0 217.5 267.0 213.5Q268.0 209.5 268.0 205.0Q268.0 201.0 267.0 196.75Q266.0 192.5 264.5 187.5Q260.5 174.0 260.5 167.5Q260.5 165.0 261.5 164.0H262.5Q265.0 164.0 274.0 166.25Q283.0 168.5 294.0 172.0Q371.0 198.5 548.0 198.5H654.5L651.5 175.0Q650.5 165.0 648.75 148.25Q647.0 131.5 646.0 117.5ZM207.0 82.0Q207.0 73.5 197.5 73.5Q190.0 73.5 190.0 77.0Q190.0 79.0 191.5 83.0Q195.5 95.5 197.5 95.5Q199.5 95.5 202.0 93.5Q207.0 91.0 207.0 82.0ZM223.0 74.5Q223.0 73.5 221.5 73.5Q219.5 73.5 219.5 74.5Q219.5 76.0 221.5 76.0Q223.0 76.0 223.0 74.5ZM314.5 68.5 280.5 61.5Q263.5 58.0 248.5 55.0Q233.5 52.0 226.5 50.5L224.5 50.0Q220.0 48.5 218.0 48.5Q216.5 48.5 216.5 49.5Q216.5 57.5 226.0 57.5Q229.5 57.5 231.5 57.0H231.0Q233.5 56.5 235.25 56.5Q237.0 56.5 238.0 56.5Q245.0 56.5 245.0 61.0Q245.0 65.5 238.0 71.5H238.5Q235.0 75.0 235.0 77.5H235.5Q239.0 77.5 251.5 76.25Q264.0 75.0 280.5 73.0ZM690.5 42.5 691.5 38.5V39.0Q693.0 36.0 693.0 35.0Q693.0 33.0 687.5 32.5Q682.0 32.0 667.5 32.0Q653.0 32.0 647.5 32.5Q642.0 33.0 642.0 35.5Q642.0 37.0 643.0 39.0Q644.0 41.0 645.0 46.0Q646.0 51.0 647.5 57.5Q648.5 62.5 649.5 68.0Q650.5 73.5 652.0 79.0Q657.0 115.0 660.5 115.0Q663.0 115.0 673.5 87.0Q679.5 73.0 684.0 60.75Q688.5 48.5 690.5 42.5ZM612.0 11.5 612.5 10.0Q619.0 10.0 626.5 12.5Q630.0 13.5 642.0 14.75Q654.0 16.0 668.0 16.0H679.5Q697.0 16.0 709.75 17.25Q722.5 18.5 722.5 20.5Q722.5 27.0 711.5 34.5Q702.0 43.5 690.75 73.0Q679.5 102.5 670.0 144.0Q665.0 167.0 662.75 194.0Q660.5 221.0 660.5 262.0Q660.5 283.0 660.0 302.75Q659.5 322.5 658.75 336.5Q658.0 350.5 656.5 355.0Q655.0 368.0 653.0 368.0Q650.5 368.0 648.5 346.0L646.0 322.0L514.0 323.0Q362.0 324.0 277.25 333.25Q192.5 342.5 180.0 359.5Q178.0 362.5 176.5 362.5Q174.5 362.5 173.75 355.25Q173.0 348.0 173.0 331.0L174.5 296.5H112.5Q84.5 296.5 70.25 297.0Q56.0 297.5 49.0 300.0Q42.0 302.5 35.0 308.5Q28.5 313.0 23.25 316.25Q18.0 319.5 17.0 319.5Q15.5 319.5 15.5 311.0Q15.5 307.0 15.75 301.5Q16.0 296.0 16.5 289.5Q17.0 285.0 17.25 281.0Q17.5 277.0 17.5 273.5Q17.5 260.0 14.0 258.5Q10.0 256.0 10.0 249.0Q10.0 244.0 13.0 233.5Q14.5 228.0 15.0 223.75Q15.5 219.5 15.5 216.0Q15.5 208.0 13.5 203.5Q11.0 198.5 11.0 192.0Q11.0 186.5 13.5 180.0Q15.5 174.5 16.5 165.0Q17.5 155.5 17.5 146.5Q17.5 138.0 18.25 123.25Q19.0 108.5 20.0 97.0L23.5 65.5L47.5 79.5Q57.5 84.5 71.5 88.75Q85.5 93.0 98.0 94.0Q103.5 94.5 111.0 94.75Q118.5 95.0 126.0 96.0Q134.0 96.5 141.5 97.0Q149.0 97.5 154.5 98.0Q160.0 98.5 164.25 98.75Q168.5 99.0 171.5 99.0Q177.5 99.0 179.5 97.5Q181.5 96.0 181.5 92.5Q181.5 89.5 179.25 84.25Q177.0 79.0 174.5 75.5Q171.0 70.5 169.0 67.0Q167.0 63.5 167.0 61.0Q167.0 55.5 178.5 55.5Q180.5 55.5 182.75 55.75Q185.0 56.0 187.0 56.0Q189.5 56.5 191.75 56.5Q194.0 56.5 195.5 56.5Q203.5 56.5 203.5 53.0Q203.5 50.0 199.5 39.5Q198.0 36.5 198.0 34.0Q198.0 30.0 202.5 30.0Q206.5 30.0 218.25 33.0Q230.0 36.0 252.5 42.0Q280.0 49.0 316.0 54.25Q352.0 59.5 400.25 62.5Q448.5 65.5 512.5 67.5L529.5 68.0Q552.5 68.5 569.5 69.0Q586.5 69.5 599.0 69.5Q620.5 69.5 628.75 67.75Q637.0 66.0 637.0 61.5Q637.0 58.5 634.75 53.75Q632.5 49.0 629.0 42.5Q628.5 41.5 627.5 40.0Q626.5 38.5 625.5 37.0V37.5Q620.0 28.5 616.0 20.5Q612.0 12.5 612.0 11.5Z" fill="black" /></svg>