<svg xmlns="http://www.w3.org/2000/svg" width="865.5" height="454.0" viewBox="0 0 865.5 454.0"><path d="M229.5 253.0Q229.0 251.5 228.5 249.25Q228.0 247.0 227.5 244.5Q226.0 238.0 222.5 232.0L213.5 210.0L181.0 238.0L205.0 245.0Q213.5 248.0 219.75 250.0Q226.0 252.0 229.5 253.0ZM340.0 232.0Q340.0 230.5 337.75 225.25Q335.5 220.0 332.25 215.0Q329.0 210.0 326.0 210.0Q322.5 210.0 318.0 219.0Q317.0 221.5 315.75 222.75Q314.5 224.0 314.5 224.5Q314.5 227.5 324.0 229.0H322.5Q328.0 231.0 331.5 231.5Q335.0 232.0 337.0 232.0ZM498.0 239.5 505.5 220.5H474.5L482.0 227.0Q487.5 230.5 489.75 233.75Q492.0 237.0 492.0 239.5Q492.0 244.0 489.0 245.0Q484.0 250.0 484.0 259.0Q484.0 265.0 484.5 265.0Q487.0 265.0 498.0 239.5ZM142.5 100.5Q143.5 99.5 144.0 98.25Q144.5 97.0 145.0 96.5Q140.5 100.5 132.5 109.0Q124.5 117.5 118.25 125.25Q112.0 133.0 112.0 134.5Q112.0 134.5 115.5 134.75Q119.0 135.0 124.0 135.0Q131.0 135.0 134.0 133.0Q137.0 131.0 137.0 125.0Q137.0 120.0 138.75 113.25Q140.5 106.5 142.5 100.5ZM230.5 82.0V83.0Q230.5 82.0 231.0 81.25Q231.5 80.5 231.5 80.0Q230.5 77.5 225.0 77.5Q217.5 77.5 217.5 79.5Q217.5 81.0 218.0 83.0Q220.5 88.5 225.0 88.5Q227.0 88.5 230.5 82.0ZM388.5 166.5Q388.0 163.0 384.5 157.75Q381.0 152.5 378.0 152.5Q375.0 152.5 372.0 154.75Q369.0 157.0 369.0 160.0Q369.0 161.5 373.25 163.0Q377.5 164.5 382.25 165.5Q387.0 166.5 388.5 166.5ZM421.5 86.5Q405.0 75.0 389.5 63.75Q374.0 52.5 368.5 47.0Q365.0 44.5 363.0 42.5Q361.0 40.5 358.5 40.5Q355.5 40.5 344.0 56.0L332.0 72.0L357.5 78.0Q369.5 81.0 389.75 87.0Q410.0 93.0 427.0 98.5Q435.0 101.0 442.0 103.25Q449.0 105.5 454.5 107.0Q448.5 103.0 440.0 97.5Q431.5 92.0 421.5 86.5ZM183.5 369.5 234.5 359.0H153.0L45.5 358.5V381.0Q45.5 390.5 46.5 397.5Q47.5 404.5 48.0 404.5Q49.0 404.5 57.25 401.5Q65.5 398.5 76.5 395.0Q85.0 392.5 102.0 388.25Q119.0 384.0 140.5 379.0Q162.0 374.0 183.5 369.5ZM306.0 204.0Q316.0 192.0 323.25 186.0Q330.5 180.0 333.0 179.5Q341.0 181.5 341.0 193.0Q341.0 197.0 344.0 203.5Q347.0 210.0 352.0 216.0L359.5 226.5V219.0Q359.5 212.5 362.25 207.75Q365.0 203.0 368.0 203.0Q371.0 203.0 372.5 210.75Q374.0 218.5 374.0 228.5Q374.0 238.0 376.25 243.75Q378.5 249.5 386.0 256.0Q393.5 262.5 409.0 275.0Q458.0 308.0 458.0 318.5Q458.0 323.5 453.0 323.5Q451.0 323.5 438.0 315.5Q425.0 307.5 410.5 296.0L377.5 272.0L375.5 292.0Q373.5 316.5 368.0 316.5Q359.5 316.5 359.5 287.0Q359.5 275.5 358.5 269.75Q357.5 264.0 353.75 260.5Q350.0 257.0 341.0 253.5Q332.5 249.5 322.0 246.5Q311.5 243.5 304.5 243.5Q296.5 243.5 291.0 242.0Q285.5 240.5 285.5 238.0Q285.5 236.0 291.75 226.25Q298.0 216.5 306.0 204.0ZM342.5 23.0Q342.5 10.0 348.5 10.0Q355.5 10.0 368.5 26.0Q374.5 32.5 389.0 43.25Q403.5 54.0 423.25 67.0Q443.0 80.0 465.5 94.0Q488.0 108.0 510.25 120.75Q532.5 133.5 551.5 143.0Q568.0 151.0 595.5 164.0Q623.0 177.0 656.0 192.25Q689.0 207.5 722.25 222.75Q755.5 238.0 783.5 250.5Q811.5 263.0 829.25 270.75Q847.0 278.5 848.5 278.5Q855.5 278.5 855.5 286.5Q855.5 290.0 850.0 292.5Q844.5 295.0 836.5 295.0Q833.0 295.0 810.75 297.5Q788.5 300.0 754.25 303.75Q720.0 307.5 680.0 312.5L614.5 320.5Q581.5 324.5 555.0 327.75Q528.5 331.0 513.0 332.75Q497.5 334.5 496.5 334.5Q495.0 334.5 494.75 341.25Q494.5 348.0 494.5 357.0Q494.5 382.5 490.5 401.5Q486.5 420.5 481.0 420.5Q479.0 420.5 478.0 414.75Q477.0 409.0 477.0 400.5Q477.0 396.5 477.25 390.5Q477.5 384.5 478.0 379.0Q478.0 376.0 478.25 373.25Q478.5 370.5 478.5 369.0Q478.5 364.0 479.25 360.75Q480.0 357.5 480.0 354.5Q480.0 347.5 477.0 345.0Q474.0 342.5 464.0 342.5Q454.0 342.5 436.75 344.5Q419.5 346.5 392.0 352.0Q379.5 353.5 355.75 357.0Q332.0 360.5 301.25 365.5Q270.5 370.5 236.75 376.75Q203.0 383.0 170.0 390.0Q137.0 397.0 108.5 404.25Q80.0 411.5 60.0 418.5Q40.0 425.5 32.5 432.0Q20.5 444.0 14.0 444.0Q10.0 444.0 10.0 437.5Q10.0 428.5 22.0 410.5Q32.5 400.5 32.5 388.0Q32.5 381.0 30.25 372.25Q28.0 363.5 24.0 351.5Q23.5 347.5 22.75 345.25Q22.0 343.0 22.0 342.5Q22.0 336.0 28.0 336.0Q32.0 336.0 38.5 337.5Q43.5 338.5 60.0 339.5Q76.5 340.5 100.75 340.75Q125.0 341.0 152.5 341.0Q179.0 341.0 205.5 340.75Q232.0 340.5 254.25 339.75Q276.5 339.0 291.0 338.25Q305.5 337.5 307.5 336.0Q309.0 336.0 309.25 335.25Q309.5 334.5 309.5 334.5Q309.5 329.0 297.75 319.5Q286.0 310.0 268.25 299.0Q250.5 288.0 231.5 278.0Q212.5 268.0 197.25 261.75Q182.0 255.5 176.0 255.5Q172.0 255.5 166.25 257.0Q160.5 258.5 157.0 260.5Q146.5 265.0 144.0 265.0Q140.5 265.0 140.5 260.5Q140.5 256.5 149.0 246.5Q157.5 236.5 172.5 224.5Q185.5 214.0 194.25 205.0Q203.0 196.0 203.0 192.5Q202.0 191.5 192.0 184.75Q182.0 178.0 168.5 170.5Q149.5 159.5 135.75 155.5Q122.0 151.5 104.0 151.5H66.0L92.0 128.5Q99.5 122.0 110.25 110.5Q121.0 99.0 132.5 85.75Q144.0 72.5 153.75 60.5Q163.5 48.5 169.75 39.75Q176.0 31.0 176.0 29.0Q176.0 25.0 179.0 22.5Q182.0 20.0 184.5 20.0Q191.5 20.0 191.5 28.5Q191.5 38.5 171.5 78.0Q152.5 116.0 152.5 124.5Q152.5 127.5 153.75 128.25Q155.0 129.0 158.5 129.0Q162.0 129.0 163.75 131.25Q165.5 133.5 166.0 136.0Q165.5 136.5 165.25 137.75Q165.0 139.0 165.0 140.0V140.5Q165.5 144.5 171.75 150.25Q178.0 156.0 187.0 161.75Q196.0 167.5 204.75 171.25Q213.5 175.0 219.5 175.0Q220.5 175.0 221.25 174.0Q222.0 173.0 222.5 172.5Q225.5 171.5 227.25 170.5Q229.0 169.5 230.0 169.5L232.5 170.5Q232.5 195.5 235.5 213.0Q238.5 230.5 245.75 244.5Q253.0 258.5 265.75 271.75Q278.5 285.0 298.0 301.5L341.0 337.5L405.5 331.0Q432.5 328.0 452.75 325.0Q473.0 322.0 474.5 321.5Q474.5 302.0 472.75 283.0Q471.0 264.0 466.0 245.0Q464.0 237.0 452.0 226.25Q440.0 215.5 423.5 204.75Q407.0 194.0 390.25 186.25Q373.5 178.5 361.5 177.0Q347.0 177.0 342.5 172.5V171.5Q342.5 169.0 347.25 161.5Q352.0 154.0 358.75 145.25Q365.5 136.5 371.5 130.25Q377.5 124.0 380.0 124.0Q381.0 124.0 385.75 130.25Q390.5 136.5 395.5 145.0Q408.0 172.5 433.75 187.75Q459.5 203.0 492.0 203.0Q497.0 203.0 502.25 202.5Q507.5 202.0 513.5 201.0Q517.5 200.5 520.25 200.5Q523.0 200.5 525.5 200.5Q533.0 200.5 534.5 207.0Q534.0 210.5 530.75 217.5Q527.5 224.5 520.5 235.0Q509.0 250.5 501.0 272.0Q493.0 293.5 493.0 313.0Q500.0 313.0 519.25 311.5Q538.5 310.0 565.75 307.5Q593.0 305.0 623.75 301.75Q654.5 298.5 685.0 295.0Q715.5 291.5 741.25 288.25Q767.0 285.0 784.0 282.5Q801.0 280.0 805.0 278.5Q802.5 276.5 778.75 265.5Q755.0 254.5 722.5 240.5Q655.0 209.5 593.25 183.5Q531.5 157.5 479.5 137.75Q427.5 118.0 389.0 105.75Q350.5 93.5 329.5 91.0Q316.5 89.0 306.0 86.5Q295.5 84.0 294.5 82.0Q293.0 80.5 293.0 78.0Q293.0 72.0 300.5 72.0Q304.5 72.0 311.5 66.25Q318.5 60.5 325.5 52.25Q332.5 44.0 337.5 36.0Q342.5 28.0 342.5 23.0ZM182.0 68.0Q182.0 65.0 194.5 62.75Q207.0 60.5 225.0 60.5Q242.0 60.5 253.75 62.5Q265.5 64.5 265.5 66.0Q265.5 67.5 260.5 73.75Q255.5 80.0 247.5 87.0Q241.0 94.5 237.5 100.25Q234.0 106.0 232.75 113.5Q231.5 121.0 231.5 134.5Q231.5 149.5 229.5 159.5Q227.5 169.5 225.0 169.5Q221.5 169.5 219.0 162.25Q216.5 155.0 216.5 144.0Q216.5 128.0 213.5 113.75Q210.5 99.5 205.75 90.0Q201.0 80.5 195.5 79.5Q190.5 78.0 186.25 74.5Q182.0 71.0 182.0 68.0Z" fill="black" /></svg>