<svg xmlns="http://www.w3.org/2000/svg" width="227.5" height="382.5" viewBox="0 0 227.5 382.5"><path d="M83.0 34.0V33.5Q83.0 31.5 77.5 30.75Q72.0 30.0 57.5 30.0Q43.0 30.0 37.5 30.5Q32.0 31.0 32.0 33.0Q32.0 34.5 33.0 35.5Q33.5 38.0 37.0 45.5Q39.5 51.0 42.75 58.25Q46.0 65.5 49.0 73.5L57.5 98.5Q62.0 80.0 69.5 62.5Q77.0 45.0 83.0 34.0ZM194.5 28.5Q194.5 29.5 191.5 29.5H178.0Q174.5 29.5 171.0 29.5Q167.5 29.5 163.5 29.0L135.0 26.0L141.0 42.0Q143.5 48.5 147.5 60.0Q151.5 71.5 154.5 81.5Q157.0 89.0 159.75 96.75Q162.5 104.5 164.0 108.0L169.0 88.0Q171.5 79.5 175.5 67.5Q179.5 55.5 183.5 49.0V49.5Q185.0 46.0 186.75 42.75Q188.5 39.5 190.0 36.5Q192.0 34.0 193.0 31.5Q194.0 29.0 194.5 28.5ZM10.5 19.5V19.0Q10.0 16.5 17.0 16.5Q21.0 16.5 27.5 16.75Q34.0 17.0 42.0 17.5Q46.0 17.5 49.5 17.75Q53.0 18.0 56.5 18.0Q63.0 18.5 69.5 18.5Q76.0 18.5 81.0 18.5Q90.0 19.0 96.5 19.25Q103.0 19.5 103.5 20.5L104.5 22.0Q104.5 24.0 101.0 29.75Q97.5 35.5 93.5 41.5Q79.5 62.0 73.75 94.5Q68.0 127.0 68.0 162.5V307.5Q68.0 338.0 67.0 351.0Q66.0 364.0 64.5 366.5Q63.0 369.0 61.5 369.0Q60.0 369.0 58.75 366.25Q57.5 363.5 56.5 350.75Q55.5 338.0 55.0 307.5L53.0 170.5Q51.0 136.5 46.25 111.75Q41.5 87.0 32.75 65.25Q24.0 43.5 10.5 19.5ZM117.5 13.5Q117.5 10.0 122.5 10.0Q124.0 10.0 125.75 10.0Q127.5 10.0 129.5 11.0H129.0Q133.5 12.0 146.75 13.75Q160.0 15.5 176.0 15.5Q192.5 15.5 205.0 15.75Q217.5 16.0 217.5 18.5Q217.5 20.5 214.75 24.25Q212.0 28.0 208.0 31.5Q204.5 35.0 198.75 44.5Q193.0 54.0 189.0 63.0Q178.0 89.0 176.25 117.5Q174.5 146.0 174.5 173.5V308.5Q174.5 332.5 174.0 345.75Q173.5 359.0 172.75 364.5Q172.0 370.0 170.75 371.25Q169.5 372.5 168.5 372.5Q167.5 372.5 166.25 371.25Q165.0 370.0 164.0 364.5Q163.0 359.0 162.25 345.75Q161.5 332.5 161.5 308.5V243.5L161.0 174.0Q160.5 155.5 159.0 143.5Q157.5 131.5 155.0 121.0Q152.5 110.5 148.0 97.5Q143.0 80.0 136.75 62.25Q130.5 44.5 126.5 36.5Q123.0 29.0 120.25 22.0Q117.5 15.0 117.5 13.5Z" fill="black" /></svg>