<svg xmlns="http://www.w3.org/2000/svg" width="496.5" height="391.5" viewBox="0 0 496.5 391.5"><path d="M125.0 310.0Q117.0 309.0 103.75 304.5Q90.5 300.0 79.0 296.5Q69.5 292.5 62.5 289.75Q55.5 287.0 53.0 286.0Q53.0 290.5 52.5 301.25Q52.0 312.0 52.0 322.0Q52.0 329.0 52.25 333.5Q52.5 338.0 53.0 339.0Q55.5 339.0 61.75 337.25Q68.0 335.5 75.5 333.0Q85.5 329.5 100.0 325.5Q114.5 321.5 124.5 319.5Q134.0 318.0 139.0 316.5Q144.0 315.0 144.5 314.5Q143.0 312.0 125.0 310.0ZM210.5 214.5Q208.0 213.5 200.75 210.75Q193.5 208.0 185.0 205.0Q176.5 202.0 169.5 199.75Q162.5 197.5 160.0 197.5Q159.5 197.5 159.5 202.25Q159.5 207.0 159.5 213.0Q159.5 218.5 159.75 223.25Q160.0 228.0 161.0 229.0Q164.5 229.0 174.75 226.25Q185.0 223.5 195.5 220.0Q206.0 216.5 210.5 214.5ZM419.5 133.0Q417.0 123.0 414.25 114.75Q411.5 106.5 410.5 106.0Q410.0 105.5 399.5 105.5Q389.0 105.5 371.0 105.5Q353.5 105.5 330.0 105.5Q306.5 105.5 279.5 106.0Q233.5 106.5 205.25 107.75Q177.0 109.0 162.5 110.25Q148.0 111.5 142.0 113.5Q140.5 114.0 137.0 115.0Q133.5 116.0 133.5 116.0Q133.5 120.5 133.0 140.5Q132.5 160.5 132.5 208.0Q132.5 246.5 133.0 266.0Q133.5 285.5 135.0 292.0Q136.5 298.5 139.0 299.5Q140.5 300.0 161.0 300.75Q181.5 301.5 214.75 302.0Q248.0 302.5 286.5 302.5H426.0V232.0Q426.0 193.0 424.5 170.0Q423.0 147.0 419.5 133.0ZM45.5 87.0Q31.5 80.0 28.5 80.0Q28.5 80.0 28.0 87.25Q27.5 94.5 27.5 104.0Q27.5 118.0 28.0 122.5Q28.5 127.0 31.5 127.0Q34.5 127.0 36.5 126.0H36.0Q39.5 125.0 46.5 123.0Q53.5 121.0 62.5 119.0Q66.0 118.0 69.25 117.0Q72.5 116.0 75.5 115.0Q87.0 111.5 95.75 108.75Q104.5 106.0 104.5 105.5Q104.5 104.5 98.5 102.5Q92.5 100.5 84.0 98.5Q76.0 97.0 64.25 93.75Q52.5 90.5 45.5 87.0ZM143.0 53.5H103.0L110.0 71.0Q113.0 79.0 117.0 85.75Q121.0 92.5 123.0 93.5Q124.5 93.5 127.5 88.25Q130.5 83.0 134.25 75.75Q138.0 68.5 140.5 62.25Q143.0 56.0 143.0 53.5ZM460.0 32.5Q456.5 32.5 447.75 32.25Q439.0 32.0 427.5 32.0H396.5L407.0 58.0Q412.5 70.5 417.0 83.25Q421.5 96.0 423.5 101.5Q425.0 114.5 427.5 114.5Q430.5 114.5 433.0 99.5V100.0Q433.5 93.0 438.25 80.25Q443.0 67.5 448.5 56.5Q452.5 48.5 455.75 42.0Q459.0 35.5 460.0 32.5ZM378.5 16.0Q378.5 10.0 384.5 10.0Q389.5 10.0 393.0 14.5Q393.0 16.5 407.0 17.5Q421.0 18.5 439.5 18.5Q458.5 18.5 472.5 19.5Q486.5 20.5 486.5 23.0Q486.5 24.0 482.5 28.75Q478.5 33.5 473.0 39.0Q468.0 45.5 461.5 56.5Q455.0 67.5 451.0 77.0Q447.5 85.5 445.5 94.0Q443.5 102.5 442.25 115.0Q441.0 127.5 440.5 147.75Q440.0 168.0 439.0 200.5V253.5Q439.0 273.5 439.25 283.5Q439.5 293.5 440.5 297.0Q441.5 300.5 443.5 301.5Q448.5 303.5 448.5 309.0Q448.5 315.5 443.5 318.0H442.5Q441.5 318.5 440.75 320.0Q440.0 321.5 439.75 328.0Q439.5 334.5 439.5 350.0Q439.5 381.5 433.0 381.5Q430.0 381.5 429.25 373.75Q428.5 366.0 427.5 354.5V347.0L427.0 317.5H308.0Q268.0 317.5 239.0 318.25Q210.0 319.0 188.25 320.75Q166.5 322.5 148.0 326.0Q129.5 329.5 111.25 335.0Q93.0 340.5 71.0 348.5Q58.5 352.5 49.25 355.25Q40.0 358.0 37.5 358.0H36.0V355.0Q36.0 352.5 37.0 346.75Q38.0 341.0 39.0 334.5Q40.0 329.0 40.5 322.0Q41.0 315.0 41.0 307.5Q41.0 303.5 41.0 299.75Q41.0 296.0 40.5 293.0Q40.0 287.5 39.75 283.0Q39.5 278.5 39.5 275.0Q39.5 268.0 42.0 267.0H42.5Q45.5 267.0 54.25 270.0Q63.0 273.0 74.0 279.5Q85.5 285.0 96.75 289.25Q108.0 293.5 111.5 293.5H120.5V213.0Q120.5 193.5 120.0 174.25Q119.5 155.0 118.75 141.25Q118.0 127.5 117.0 124.5Q116.5 122.5 116.0 121.0Q115.5 119.5 115.5 119.5Q113.5 120.0 109.0 121.0Q104.5 122.0 100.5 122.5Q94.5 123.0 80.5 126.75Q66.5 130.5 53.5 134.5Q37.0 139.5 28.0 142.25Q19.0 145.0 15.0 145.0Q10.0 145.0 10.0 140.5Q10.0 137.0 12.0 133.5Q14.0 130.0 15.25 118.75Q16.5 107.5 16.5 95.5Q16.5 81.5 17.5 72.0Q18.5 62.5 21.0 62.5Q25.5 62.5 43.5 71.0Q51.0 75.0 62.75 79.25Q74.5 83.5 84.0 86.0Q92.5 88.0 99.5 89.75Q106.5 91.5 106.5 91.5Q105.0 87.5 102.0 80.5Q99.0 73.5 94.5 65.5Q91.0 58.0 88.75 51.75Q86.5 45.5 86.5 43.5Q86.5 41.0 97.75 39.75Q109.0 38.5 124.5 38.5Q140.5 38.5 151.75 39.75Q163.0 41.0 163.0 43.5Q163.0 45.5 160.75 50.75Q158.5 56.0 155.0 61.5Q151.0 66.0 147.5 73.0Q144.0 80.0 142.0 84.0L136.0 93.5H161.0Q171.5 93.5 192.5 93.5Q213.5 93.5 240.25 93.25Q267.0 93.0 294.75 92.75Q322.5 92.5 347.0 92.25Q371.5 92.0 388.0 91.75Q404.5 91.5 408.0 91.5Q407.0 88.0 403.0 78.5Q399.0 69.0 394.5 56.5Q388.0 42.0 383.25 30.0Q378.5 18.0 378.5 16.0ZM148.0 213.0Q148.0 197.5 149.5 186.75Q151.0 176.0 152.0 176.0Q152.5 176.0 159.25 179.0Q166.0 182.0 175.0 186.5Q188.0 193.0 202.5 197.25Q217.0 201.5 237.0 203.25Q257.0 205.0 286.5 205.0Q298.0 205.0 310.75 205.0Q323.5 205.0 337.5 204.5Q352.0 203.5 363.5 203.5Q375.0 203.5 384.5 203.5Q404.0 203.5 414.75 204.75Q425.5 206.0 425.5 209.0Q425.5 211.5 404.75 213.0Q384.0 214.5 349.5 214.5Q305.5 214.5 273.5 217.5Q241.5 220.5 214.75 227.5Q188.0 234.5 158.0 247.5Q157.0 247.5 156.25 247.75Q155.5 248.0 155.0 248.0Q151.0 248.0 149.5 240.75Q148.0 233.5 148.0 213.0Z" fill="black" /></svg>