<svg xmlns="http://www.w3.org/2000/svg" width="350.0" height="377.5" viewBox="0 0 350.0 377.5"><path d="M82.5 282.0Q78.5 276.5 73.25 269.75Q68.0 263.0 64.5 258.5L59.0 249.0L54.5 267.0Q52.5 275.5 48.25 290.0Q44.0 304.5 40.0 316.0Q36.5 326.0 34.75 333.75Q33.0 341.5 32.5 344.0Q37.0 344.0 48.5 337.5Q55.5 333.5 69.25 328.0Q83.0 322.5 96.5 318.5L125.5 310.5L111.0 303.0Q103.5 299.0 95.25 293.0Q87.0 287.0 82.5 282.0ZM132.5 23.5Q132.5 23.0 122.25 22.75Q112.0 22.5 97.0 22.5H63.0Q71.5 36.5 79.25 51.5Q87.0 66.5 92.0 81.0L98.5 96.5L105.0 78.5Q108.5 70.0 113.5 59.25Q118.5 48.5 122.5 41.0Q126.5 35.5 129.5 30.0Q132.5 24.5 132.5 23.5ZM45.0 12.0V12.5Q46.0 11.0 56.5 10.5Q67.0 10.0 81.0 10.0Q97.0 10.0 114.0 10.5Q131.0 11.0 142.75 11.75Q154.5 12.5 155.5 13.5L156.0 14.5Q156.0 19.0 143.5 34.0Q133.5 45.5 127.0 54.75Q120.5 64.0 117.0 75.75Q113.5 87.5 112.25 105.25Q111.0 123.0 111.0 151.0Q111.0 159.5 111.25 169.25Q111.5 179.0 111.5 190.0Q111.5 216.0 112.0 238.5Q112.5 261.0 113.0 275.25Q113.5 289.5 114.0 292.0Q119.0 295.5 154.25 302.0Q189.5 308.5 250.0 317.0Q274.5 320.5 295.0 324.25Q315.5 328.0 327.75 330.75Q340.0 333.5 340.0 335.0Q340.0 337.0 338.5 338.25Q337.0 339.5 332.0 339.5Q324.0 339.5 302.75 336.75Q281.5 334.0 237.5 327.5L151.5 315.5L115.5 326.0Q99.5 330.5 79.0 338.25Q58.5 346.0 45.5 353.0Q33.0 359.0 23.25 363.25Q13.5 367.5 11.5 367.5H10.0V366.0Q10.0 364.5 12.0 358.5Q14.0 352.5 17.0 345.5Q21.5 337.5 28.25 317.25Q35.0 297.0 41.0 276.0Q56.0 221.0 62.5 221.0Q65.0 221.0 66.0 231.0Q66.5 236.0 72.5 246.75Q78.5 257.5 85.75 266.75Q93.0 276.0 97.0 278.0H97.5Q100.0 277.5 100.75 263.0Q101.5 248.5 101.5 211.0Q101.5 186.0 101.0 171.0Q100.5 156.0 99.25 145.75Q98.0 135.5 95.25 125.75Q92.5 116.0 88.0 102.0Q81.5 83.0 73.5 65.0Q65.5 47.0 58.75 34.25Q52.0 21.5 47.5 19.0Q44.5 17.5 44.5 14.5Q44.5 13.5 44.75 13.0Q45.0 12.5 45.0 12.0Z" fill="black" /></svg>