<svg xmlns="http://www.w3.org/2000/svg" width="789.0" height="385.0" viewBox="0 0 789.0 385.0"><path d="M98.5 296.0 83.0 288.5Q73.5 283.5 63.75 278.25Q54.0 273.0 50.0 271.0L42.0 265.0L34.5 285.0Q32.0 292.5 30.5 296.75Q29.0 301.0 28.5 303.0Q30.0 303.0 30.5 302.0Q34.0 301.0 46.25 299.75Q58.5 298.5 72.5 297.5ZM170.0 190.0 177.0 174.0H155.5Q145.0 174.0 140.75 174.0Q136.5 174.0 136.5 175.0L138.0 175.5Q139.5 177.5 143.25 185.25Q147.0 193.0 150.5 201.5Q157.5 216.5 158.5 216.5Q158.5 216.5 158.75 215.5Q159.0 214.5 159.5 213.0Q160.5 209.5 163.5 203.0Q166.5 196.5 170.0 190.0ZM400.5 288.5 383.0 280.5Q382.0 280.0 376.25 277.0Q370.5 274.0 365.25 271.25Q360.0 268.5 359.5 268.0L360.0 268.5Q359.5 268.5 358.5 272.25Q357.5 276.0 356.5 281.5Q356.0 285.0 355.5 288.0Q355.0 291.0 354.0 294.5Q353.5 298.5 352.75 301.75Q352.0 305.0 352.0 307.5L351.0 311.0L358.0 306.5Q362.5 304.0 371.25 299.5Q380.0 295.0 387.0 293.0ZM405.5 161.0H406.5Q403.5 158.5 401.75 157.0Q400.0 155.5 398.0 155.5Q395.0 155.5 395.0 164.5Q395.0 172.0 396.0 172.0Q397.0 172.0 398.5 171.25Q400.0 170.5 402.0 170.0Q406.0 169.0 409.5 165.5Q409.0 165.0 408.0 163.75Q407.0 162.5 405.5 161.0ZM419.0 258.0 424.0 255.5 416.0 251.5 406.5 245.5V254.5Q406.5 262.5 408.5 262.5Q411.0 262.5 419.0 258.0ZM429.5 274.5Q429.5 268.0 430.0 268.0Q429.5 268.0 426.5 269.75Q423.5 271.5 419.5 274.0Q412.0 277.0 412.0 280.0Q412.0 282.0 422.0 282.0Q426.5 282.0 428.0 280.5Q429.5 279.0 429.5 274.5ZM603.5 287.0Q603.0 286.5 602.5 286.5Q602.0 286.5 601.0 286.0Q597.5 284.0 592.75 281.5Q588.0 279.0 582.5 276.0L563.0 265.5V274.5Q563.0 288.5 558.5 297.5Q558.0 299.5 557.0 301.75Q556.0 304.0 555.5 306.0Q558.0 305.5 562.5 303.5Q567.0 301.5 573.0 299.0Q579.5 295.0 587.5 292.0Q595.5 289.0 599.0 288.0Q600.5 287.5 601.75 287.25Q603.0 287.0 603.5 287.0ZM126.0 95.5 114.0 91.0Q107.0 88.0 99.25 83.75Q91.5 79.5 88.0 76.0L80.5 71.0L77.0 90.0Q75.0 99.0 74.0 107.5Q71.5 116.0 71.5 118.5Q71.5 119.0 71.25 119.5Q71.0 120.0 71.0 120.5Q72.0 120.0 74.5 118.25Q77.0 116.5 80.5 114.0Q86.0 111.5 95.25 107.0Q104.5 102.5 112.5 100.0ZM376.0 107.5Q367.0 102.5 361.5 100.5Q359.0 99.0 357.0 97.75Q355.0 96.5 354.0 96.0V97.0Q354.0 96.0 353.0 100.75Q352.0 105.5 351.0 112.0L350.5 117.0Q349.5 123.0 348.75 128.5Q348.0 134.0 347.0 136.5Q349.0 136.5 364.5 129.0Q373.5 124.5 381.5 121.0Q389.5 117.5 391.5 117.5H395.0Q395.0 116.5 389.75 113.75Q384.5 111.0 376.0 107.5ZM437.5 188.5 442.0 179.5Q443.5 175.5 444.5 173.5Q445.5 171.5 445.5 170.5H440.5Q432.0 170.5 431.0 174.0Q431.0 175.0 432.0 177.25Q433.0 179.5 434.0 182.5V181.5ZM552.0 203.0Q547.5 185.5 538.5 177.75Q529.5 170.0 512.0 170.0H493.5L457.5 171.0L451.0 185.5Q447.5 193.5 445.5 203.5Q443.5 213.5 443.5 225.0V247.0L467.0 249.5Q478.0 250.5 490.5 251.5Q503.0 252.5 510.5 252.5Q519.0 252.5 524.25 254.0Q529.5 255.5 529.5 259.0Q529.5 263.5 516.5 263.5Q512.0 263.5 505.75 263.25Q499.5 263.0 491.0 262.5Q483.0 262.0 476.5 262.0Q470.0 262.0 464.5 262.0Q449.0 262.0 444.25 264.5Q439.5 267.0 439.5 273.0Q439.5 278.5 442.0 280.25Q444.5 282.0 452.5 283.5Q458.0 284.0 474.5 285.0Q491.0 286.0 508.0 286.0H548.5L550.5 274.0Q555.0 240.0 555.0 225.0Q555.0 212.0 552.0 203.0ZM567.0 178.5 573.5 167.0H546.0L552.5 177.0Q556.0 182.5 558.5 187.75Q561.0 193.0 561.0 193.0Q561.0 192.0 563.0 187.25Q565.0 182.5 567.0 178.5ZM329.0 31.5 335.0 22.0H308.0Q297.0 22.0 288.75 21.75Q280.5 21.5 280.0 20.5Q280.0 22.5 287.5 36.5Q290.0 43.0 294.25 56.25Q298.5 69.5 301.5 81.5Q306.0 102.0 307.5 102.0Q310.0 102.0 316.5 73.0Q319.0 61.5 322.5 49.75Q326.0 38.0 329.0 31.5ZM627.0 114.5 634.0 131.0 654.0 88.5H633.0Q622.0 88.5 617.75 88.5Q613.5 88.5 613.5 89.5L614.5 90.0Q616.0 92.0 619.75 99.0Q623.5 106.0 627.0 114.5ZM749.0 56.0 755.0 44.0H704.5Q710.5 56.5 716.0 69.25Q721.5 82.0 725.0 95.5L730.5 113.0L735.5 94.0Q738.5 84.0 742.5 72.75Q746.5 61.5 749.0 56.0ZM341.0 112.0Q343.5 94.0 346.75 81.75Q350.0 69.5 352.0 69.5Q354.5 69.5 356.75 72.75Q359.0 76.0 360.0 80.0Q364.0 88.0 384.0 97.5Q401.0 106.0 431.25 110.0Q461.5 114.0 515.0 114.0Q554.0 114.0 554.0 120.5Q554.0 126.0 527.5 126.0Q521.0 126.0 511.75 125.75Q502.5 125.5 492.0 125.0Q483.0 124.5 474.25 124.5Q465.5 124.5 457.0 124.5Q441.5 124.5 429.75 125.0Q418.0 125.5 413.0 126.5Q408.5 127.0 403.0 128.75Q397.5 130.5 391.5 133.0Q395.0 134.0 395.0 139.5Q395.0 140.0 400.0 143.0Q405.0 146.0 412.0 149.0Q418.0 152.0 424.0 153.5Q430.0 155.0 440.25 155.5Q450.5 156.0 468.0 156.25Q485.5 156.5 514.0 156.5H540.0Q566.5 156.5 583.5 157.75Q600.5 159.0 600.5 160.0Q600.5 162.0 597.5 164.25Q594.5 166.5 590.5 169.0Q581.0 172.5 574.0 189.25Q567.0 206.0 566.0 225.5Q566.0 236.0 567.0 244.0Q568.0 252.0 570.0 254.5Q572.5 257.5 580.75 262.0Q589.0 266.5 599.25 271.0Q609.5 275.5 617.5 278.5H616.5L627.0 280.5L628.0 240.5Q628.5 227.5 628.5 216.75Q628.5 206.0 628.5 196.5Q628.5 167.5 626.5 150.5Q624.5 133.5 619.5 122.5Q614.5 111.5 605.5 100.5Q600.5 93.5 597.0 87.75Q593.5 82.0 593.5 81.5Q593.5 79.0 606.25 78.0Q619.0 77.0 636.0 77.0Q654.0 77.0 666.25 78.0Q678.5 79.0 678.5 80.5Q678.5 84.5 667.0 94.5Q657.5 104.5 651.75 117.75Q646.0 131.0 643.0 153.75Q640.0 176.5 639.0 214.5L636.0 280.5L677.5 283.0Q685.5 283.5 692.5 283.5Q699.5 283.5 706.0 283.5Q712.0 283.5 717.0 283.5Q722.0 283.5 722.5 283.0Q723.0 282.0 723.0 268.5Q723.0 255.0 723.0 234.5V200.0Q722.5 171.5 722.0 154.5Q721.5 137.5 720.5 126.75Q719.5 116.0 717.5 107.5Q715.5 99.0 712.0 88.5Q707.5 77.0 702.0 65.5Q696.5 54.0 692.5 49.5H693.5Q689.0 45.5 686.0 41.5Q683.0 37.5 683.0 36.0Q683.0 34.0 697.0 33.0Q711.0 32.0 731.0 32.0Q750.5 32.0 764.75 33.0Q779.0 34.0 779.0 36.0Q779.0 40.0 767.5 50.0Q757.0 62.0 747.5 91.5Q744.0 102.5 741.75 111.0Q739.5 119.5 738.5 130.5Q737.5 141.5 736.75 158.75Q736.0 176.0 735.5 204.5L733.5 286.0H747.5Q754.5 286.0 759.25 287.5Q764.0 289.0 764.0 291.5Q764.0 293.5 759.25 295.5Q754.5 297.5 747.5 297.5H734.0V315.5Q734.0 325.0 732.75 331.75Q731.5 338.5 729.0 338.5Q727.0 338.5 725.5 332.0Q724.0 325.5 724.0 316.0V298.5L700.5 296.0Q689.0 295.0 678.0 294.5Q667.0 294.0 658.5 294.0Q629.0 294.0 612.0 299.0Q600.5 302.0 587.5 307.75Q574.5 313.5 565.0 319.0Q555.5 324.5 554.0 328.0Q550.5 335.0 547.0 335.0Q543.0 335.0 543.0 326.0Q543.0 323.5 543.25 320.5Q543.5 317.5 544.0 314.0L546.0 298.5L490.5 297.0Q480.5 296.0 471.75 296.0Q463.0 296.0 456.0 296.0Q440.5 296.0 429.75 297.0Q419.0 298.0 410.5 300.0Q396.0 303.0 381.75 309.5Q367.5 316.0 358.25 322.25Q349.0 328.5 348.5 332.5Q349.5 334.0 355.0 334.0Q365.5 334.0 365.5 342.5Q365.5 349.0 358.5 349.0Q357.5 349.0 355.5 348.75Q353.5 348.5 352.0 348.0Q347.0 347.0 338.75 345.5Q330.5 344.0 323.5 343.0L309.5 341.0V355.5Q309.5 370.5 306.0 370.5Q305.5 370.5 303.0 367.0V367.5Q299.0 362.0 299.0 348.0Q299.0 342.0 297.25 340.0Q295.5 338.0 290.5 337.0Q287.5 336.5 273.75 334.25Q260.0 332.0 241.5 328.75Q223.0 325.5 204.75 322.75Q186.5 320.0 174.25 318.0Q162.0 316.0 161.0 316.0Q160.5 316.0 160.25 324.25Q160.0 332.5 160.0 344.0Q160.0 375.0 155.0 375.0Q150.0 375.0 149.0 342.5L148.0 314.0H94.0Q69.5 314.0 56.75 314.5Q44.0 315.0 38.0 316.5Q32.0 318.0 27.0 321.5Q17.0 326.5 13.0 326.5Q10.5 326.5 10.5 325.0Q10.0 324.5 10.0 322.0Q10.0 318.5 12.75 309.5Q15.5 300.5 19.5 288.75Q23.5 277.0 27.75 266.25Q32.0 255.5 35.5 248.25Q39.0 241.0 40.5 241.0Q41.5 241.0 44.0 243.5Q46.5 246.0 48.5 249.5Q50.5 254.0 59.75 260.0Q69.0 266.0 82.25 272.25Q95.5 278.5 109.25 283.75Q123.0 289.0 133.5 292.25Q144.0 295.5 148.0 295.5H149.5Q150.5 293.5 150.75 284.0Q151.0 274.5 151.0 262.5Q150.5 236.0 145.25 217.75Q140.0 199.5 127.5 184.0Q123.0 178.5 119.75 173.5Q116.5 168.5 116.5 167.0Q116.5 166.0 129.0 164.25Q141.5 162.5 158.5 162.5Q176.5 162.5 189.25 163.5Q202.0 164.5 202.0 166.0Q202.0 168.0 200.0 170.0Q198.0 172.0 195.0 175.5Q176.5 194.0 170.25 217.75Q164.0 241.5 163.0 266.5L161.5 300.0L170.0 302.0Q177.0 303.5 190.75 305.75Q204.5 308.0 221.5 310.75Q238.5 313.5 254.75 316.0Q271.0 318.5 283.0 320.0Q295.0 321.5 298.5 321.5Q298.5 318.0 299.5 294.5Q300.5 271.0 301.5 239.0Q302.0 224.5 302.0 212.0Q302.0 199.5 302.0 188.5Q302.0 171.5 300.25 147.75Q298.5 124.0 294.5 100.0Q288.5 102.0 269.25 102.75Q250.0 103.5 224.0 103.5Q189.0 103.5 165.75 104.5Q142.5 105.5 133.5 108.0Q122.0 110.5 107.75 116.25Q93.5 122.0 82.75 128.25Q72.0 134.5 71.0 138.5Q69.0 140.5 66.75 142.5Q64.5 144.5 62.0 144.5Q56.0 144.5 56.0 139.5Q56.0 138.5 56.5 137.75Q57.0 137.0 57.0 136.5Q60.0 118.5 63.75 100.25Q67.5 82.0 71.0 64.0Q73.5 54.5 76.0 48.5Q78.5 42.5 80.5 42.5Q84.5 42.5 84.5 52.5Q84.5 58.5 92.5 64.75Q100.5 71.0 119.0 79.0Q127.0 82.5 133.25 84.75Q139.5 87.0 148.75 88.0Q158.0 89.0 174.25 89.75Q190.5 90.5 218.0 91.0Q245.5 91.5 266.25 93.25Q287.0 95.0 294.0 97.0Q290.5 76.5 284.5 58.0Q278.5 39.5 269.5 27.0Q266.0 23.0 264.0 19.0Q262.0 15.0 262.0 14.5Q262.0 12.0 276.0 11.0Q290.0 10.0 309.5 10.0Q330.0 10.0 344.0 11.0Q358.0 12.0 358.0 13.5Q358.0 17.0 347.0 27.0Q342.0 32.5 337.25 42.5Q332.5 52.5 328.0 68.5Q323.5 85.0 320.75 99.25Q318.0 113.5 316.25 130.5Q314.5 147.5 313.25 172.5Q312.0 197.5 311.0 236.0L309.0 325.0L321.5 327.5Q324.0 328.0 326.0 328.0Q328.0 328.0 329.5 328.0Q332.0 328.0 334.25 327.75Q336.5 327.5 337.0 327.5Q338.0 324.5 340.25 312.25Q342.5 300.0 345.5 284.5Q348.0 266.5 351.25 253.75Q354.5 241.0 356.5 241.0Q358.0 241.0 360.25 244.0Q362.5 247.0 364.5 251.5Q366.5 255.0 371.75 259.25Q377.0 263.5 383.0 267.0L396.0 274.0V252.5Q396.0 241.0 397.25 233.75Q398.5 226.5 400.5 226.5Q401.5 226.5 404.75 228.25Q408.0 230.0 410.5 233.5Q414.0 235.5 419.0 238.5Q424.0 241.5 428.0 242.5L434.5 245.0L432.5 222.5Q429.0 178.5 415.0 178.5Q412.5 178.5 408.75 180.25Q405.0 182.0 401.0 184.5Q397.5 188.5 393.5 190.75Q389.5 193.0 388.5 193.0Q387.5 193.0 386.0 184.25Q384.5 175.5 384.5 163.0Q384.5 139.5 388.5 134.0Q373.5 139.0 360.75 145.75Q348.0 152.5 347.0 156.5Q345.0 163.0 337.0 163.0Q332.0 163.0 332.0 157.0V155.5Q333.0 153.0 335.5 140.25Q338.0 127.5 341.0 112.0Z" fill="black" /></svg>