<svg xmlns="http://www.w3.org/2000/svg" width="405.0" height="285.0" viewBox="0 0 405.0 285.0"><path d="M52.0 88.5Q43.0 84.0 36.5 81.0Q30.0 78.0 29.0 78.0Q29.5 78.0 29.5 82.75Q29.5 87.5 29.0 94.0Q28.5 97.5 28.5 100.5Q28.5 103.5 28.0 106.5Q27.5 110.0 27.5 112.75Q27.5 115.5 27.0 118.0Q26.5 123.0 26.25 126.5Q26.0 130.0 26.0 132.5V133.5Q28.5 133.0 36.75 130.25Q45.0 127.5 56.0 124.0L80.0 116.0L69.5 114.0Q56.0 111.0 56.0 109.0Q56.0 106.0 64.0 102.5L74.5 97.0Q70.0 96.0 68.0 94.5Q59.0 92.0 52.0 88.5ZM86.5 102.0 79.0 105.5 97.0 110.0 109.0 106.0ZM107.0 94.5 119.0 97.0 126.0 83.0Q127.5 81.5 132.25 74.75Q137.0 68.0 137.5 66.5L99.5 93.5Q101.5 94.0 103.25 94.0Q105.0 94.0 107.0 94.5ZM128.5 113.0Q128.0 113.0 128.0 113.0Q128.0 113.0 127.5 113.0ZM192.0 111.5H152.5Q148.5 111.5 144.0 111.75Q139.5 112.0 135.5 112.5Q134.0 112.5 132.25 112.75Q130.5 113.0 128.5 113.0Q129.0 114.5 129.75 116.0Q130.5 117.5 131.0 118.5L155.0 137.5L175.0 123.5Q182.5 118.0 187.25 115.0Q192.0 112.0 192.0 111.5ZM220.0 116.5 224.5 111.5H211.5L187.5 129.5Q177.0 137.5 166.75 144.5Q156.5 151.5 152.0 154.0L140.0 161.5Q142.0 162.0 144.25 162.25Q146.5 162.5 148.5 163.0Q159.0 164.0 165.75 165.0Q172.5 166.0 179.75 168.0Q187.0 170.0 199.0 174.5Q200.0 172.0 200.25 169.0Q200.5 166.0 201.0 163.0Q203.0 150.0 206.0 142.75Q209.0 135.5 215.5 124.5Q218.0 121.0 220.0 116.5ZM227.0 98.5H232.5L237.5 91.0ZM177.0 17.0Q178.5 14.5 180.5 12.25Q182.5 10.0 184.5 10.0Q190.0 10.0 190.0 15.5Q190.0 24.0 181.0 32.5Q176.5 36.0 167.75 47.0Q159.0 58.0 150.5 70.0Q142.0 82.0 137.5 89.0L134.0 97.5L170.5 98.5H207.0L234.0 79.5Q246.5 71.0 259.0 59.75Q271.5 48.5 277.5 42.0Q282.5 36.5 287.0 32.5Q291.5 28.5 293.5 28.5L295.5 29.0L296.0 31.0Q296.0 33.5 292.25 40.75Q288.5 48.0 284.0 54.25Q279.5 60.5 277.5 60.5Q276.0 60.5 269.25 68.0Q262.5 75.5 255.5 84.5Q248.5 93.5 245.5 98.5L321.0 100.0Q355.0 100.0 375.0 101.75Q395.0 103.5 395.0 106.0Q395.0 108.5 374.0 110.0Q353.0 111.5 315.0 111.5H238.0L227.0 128.0Q221.0 137.0 217.25 148.5Q213.5 160.0 213.5 167.0Q213.5 171.5 215.5 172.5H216.5Q221.5 172.5 221.5 179.5Q221.5 183.0 221.0 184.5Q221.0 185.0 220.75 185.75Q220.5 186.5 220.5 187.5Q221.0 193.0 236.5 205.0Q245.0 210.5 255.5 220.5Q266.0 230.5 275.75 241.25Q285.5 252.0 292.0 260.75Q298.5 269.5 298.5 272.5V273.5Q298.0 275.0 296.5 275.0Q294.0 275.0 287.0 269.25Q280.0 263.5 272.5 254.5Q264.5 246.0 252.75 235.5Q241.0 225.0 229.0 215.0Q217.0 205.0 207.0 198.0Q197.0 191.0 192.0 189.5Q190.0 188.5 186.0 186.25Q182.0 184.0 179.0 182.0Q177.0 181.0 166.0 178.25Q155.0 175.5 142.0 173.5L104.5 169.0L143.5 145.5L139.5 142.0Q134.5 138.0 127.75 133.0Q121.0 128.0 115.0 124.25Q109.0 120.5 106.0 120.5Q104.5 120.5 95.75 123.25Q87.0 126.0 74.75 130.25Q62.5 134.5 50.5 138.75Q38.5 143.0 30.0 146.25Q21.5 149.5 20.5 150.5Q18.0 153.0 14.5 153.0Q10.0 153.0 10.0 146.5Q10.0 142.0 13.0 131.5Q14.5 126.5 15.0 117.5Q15.5 108.5 15.5 99.0V88.0Q15.0 84.0 15.0 80.5Q15.0 77.0 15.0 74.0Q15.0 57.0 21.0 57.0Q23.0 57.0 25.75 58.75Q28.5 60.5 30.5 62.5Q32.0 65.0 39.75 69.25Q47.5 73.5 57.25 78.0Q67.0 82.5 74.5 85.0L85.0 89.0Q87.5 87.0 91.25 84.25Q95.0 81.5 100.0 78.5Q110.5 71.0 123.0 62.25Q135.5 53.5 147.25 44.5Q159.0 35.5 167.25 28.25Q175.5 21.0 177.0 17.0Z" fill="black" /></svg>