<svg xmlns="http://www.w3.org/2000/svg" width="622.5" height="385.5" viewBox="0 0 622.5 385.5"><path d="M66.0 290.0Q61.0 288.5 52.75 283.5Q44.5 278.5 37.5 273.0L24.0 262.5V320.5L46.5 307.5Q55.5 302.0 66.25 297.5Q77.0 293.0 77.0 293.0Q74.5 292.0 71.5 291.25Q68.5 290.5 66.0 290.0ZM338.5 303.0Q344.0 296.5 348.75 291.75Q353.5 287.0 354.5 286.5Q354.0 286.5 352.0 287.0Q350.0 287.5 347.0 288.5Q345.0 289.5 343.0 290.5Q341.0 291.5 338.5 292.5Q332.5 294.5 320.0 296.5Q307.5 298.5 296.5 298.5Q286.5 299.0 278.75 299.0Q271.0 299.0 271.0 298.5Q271.0 299.5 275.0 307.75Q279.0 316.0 284.5 326.5L296.5 351.0L308.5 335.5Q314.5 328.5 323.25 319.0Q332.0 309.5 338.5 303.0ZM48.0 93.0V94.0L43.5 91.0Q40.0 88.5 37.25 87.0Q34.5 85.5 34.5 85.5V111.0Q34.5 121.5 34.5 128.75Q34.5 136.0 34.0 136.0Q34.5 136.0 40.0 133.25Q45.5 130.5 52.5 126.5Q60.5 122.5 69.5 118.75Q78.5 115.0 82.0 113.0Q84.0 113.0 86.0 112.0Q85.0 111.5 82.75 110.75Q80.5 110.0 77.5 109.5L75.5 108.5Q69.0 106.5 60.75 102.0Q52.5 97.5 48.0 93.0ZM79.0 166.0 85.0 178.5 100.0 152.0 86.0 152.5H72.0Q73.0 154.5 75.0 158.0Q77.0 161.5 79.0 166.0ZM272.5 117.5 280.0 106.5H260.0Q250.5 106.5 243.75 106.75Q237.0 107.0 237.0 107.0Q237.0 108.0 240.5 115.5Q244.0 123.0 249.0 132.5Q257.0 150.5 258.5 150.5Q260.0 143.5 264.5 133.75Q269.0 124.0 272.5 117.5ZM550.0 190.5V184.0Q550.0 180.5 549.5 177.0Q549.0 173.5 549.0 173.5L535.0 183.0Q537.0 184.0 538.75 185.25Q540.5 186.5 542.5 187.5Q544.0 188.5 547.0 189.5Q550.0 190.5 550.0 190.5ZM336.0 56.5V56.0Q331.0 46.5 327.5 40.75Q324.0 35.0 324.0 35.0Q321.0 37.5 314.5 47.25Q308.0 57.0 302.25 66.5Q296.5 76.0 295.5 79.0Q300.5 81.0 309.5 81.0Q315.0 81.0 325.5 82.75Q336.0 84.5 344.5 87.0Q353.0 90.0 358.25 91.25Q363.5 92.5 366.0 93.0L361.0 89.5Q356.5 85.5 349.25 75.5Q342.0 65.5 336.0 56.5ZM588.5 26.0Q587.5 26.5 576.75 26.75Q566.0 27.0 551.5 27.0H515.5L524.5 41.0Q529.0 48.0 535.0 61.5Q541.0 75.0 544.5 85.0L553.0 106.0L556.5 87.0Q559.0 77.5 564.5 65.0Q570.0 52.5 575.0 45.0Q580.5 38.0 584.25 32.25Q588.0 26.5 588.5 26.0ZM54.5 144.5Q54.5 142.5 65.0 140.75Q75.5 139.0 88.0 139.0H98.5Q121.5 139.0 121.5 146.0Q121.5 148.5 114.0 155.0Q107.0 160.5 103.25 169.25Q99.5 178.0 98.0 193.0Q96.5 208.0 96.5 233.5V282.5H170.0Q205.5 282.5 225.75 284.25Q246.0 286.0 246.0 289.5Q246.0 292.0 226.5 294.0Q207.0 296.0 171.5 296.0Q160.0 296.0 150.75 296.0Q141.5 296.0 133.5 295.5H116.5Q105.0 295.5 100.75 296.25Q96.5 297.0 96.5 300.5Q96.5 303.5 94.0 305.0Q91.5 306.5 89.0 306.5H88.0Q86.5 306.0 84.5 306.0Q78.0 306.0 63.75 312.5Q49.5 319.0 34.5 329.0Q26.5 335.0 20.5 339.0Q14.5 343.0 14.0 343.0Q12.0 343.0 11.0 327.25Q10.0 311.5 10.0 289.5Q10.0 267.0 11.0 251.5Q12.0 236.0 14.5 236.0Q15.5 236.0 20.75 240.5Q26.0 245.0 32.5 252.0Q42.5 262.0 52.75 267.0Q63.0 272.0 71.0 275.5Q73.0 276.5 75.0 277.0Q77.0 277.5 78.5 278.5L84.5 280.5Q84.5 270.5 84.5 260.75Q84.5 251.0 83.5 241.0Q83.5 224.0 82.25 214.0Q81.0 204.0 78.0 195.5Q75.0 187.0 69.0 175.0Q63.5 163.5 59.0 154.75Q54.5 146.0 54.5 144.5ZM494.0 14.5Q494.0 10.0 500.0 10.0Q504.0 10.0 510.0 11.5Q514.0 12.5 526.75 13.0Q539.5 13.5 554.5 13.5H581.0Q594.5 13.5 603.5 15.0Q612.5 16.5 612.5 17.5Q612.5 18.5 611.0 23.0Q609.5 27.5 601.0 34.5Q596.5 38.5 591.25 47.0Q586.0 55.5 582.0 64.0Q578.0 72.5 576.0 77.5Q575.0 79.5 573.25 87.0Q571.5 94.5 570.0 103.5Q568.5 111.5 566.75 119.0Q565.0 126.5 563.5 132.5L565.0 210.0Q565.0 222.0 565.25 232.75Q565.5 243.5 565.5 253.5Q565.5 290.0 563.75 309.5Q562.0 329.0 559.5 329.0Q558.0 329.0 556.25 321.0Q554.5 313.0 553.25 301.25Q552.0 289.5 552.0 277.5Q552.0 268.5 552.0 260.25Q552.0 252.0 551.5 245.0V224.5Q551.5 220.5 550.75 213.0Q550.0 205.5 550.0 205.5Q536.0 198.0 529.25 194.75Q522.5 191.5 522.5 191.5Q519.0 193.5 503.0 203.0Q487.0 212.5 458.5 229.0Q431.0 245.0 403.25 264.0Q375.5 283.0 351.25 306.0Q327.0 329.0 309.5 356.5Q304.5 364.5 300.25 370.0Q296.0 375.5 295.0 375.5Q293.0 375.5 290.0 368.75Q287.0 362.0 283.0 352.5Q280.5 344.0 275.0 333.25Q269.5 322.5 265.0 316.0Q261.0 309.5 258.75 305.0Q256.5 300.5 255.5 293.25Q254.5 286.0 254.5 272.5Q254.5 266.0 255.0 258.0Q255.5 250.0 255.5 240.5Q255.5 206.5 251.5 178.25Q247.5 150.0 228.5 121.5L221.5 110.0L166.0 113.0Q137.0 114.5 116.75 118.0Q96.5 121.5 80.25 128.25Q64.0 135.0 46.0 146.5Q42.5 148.5 39.5 150.0Q36.5 151.5 34.0 153.5Q27.5 158.0 25.5 158.0Q24.0 158.0 23.0 143.5Q22.0 129.0 22.0 108.5Q22.0 88.0 22.75 73.75Q23.5 59.5 26.5 59.5Q27.5 59.5 32.25 63.25Q37.0 67.0 42.0 73.0Q51.5 82.5 63.75 88.5Q76.0 94.5 95.25 97.25Q114.5 100.0 144.0 100.0Q162.5 100.0 185.25 99.0Q208.0 98.0 237.0 96.0Q251.5 95.0 264.0 94.75Q276.5 94.5 284.5 94.5Q301.0 94.5 301.0 97.5Q301.0 99.5 297.0 106.0Q293.0 112.5 286.5 120.5Q279.5 130.0 275.25 139.0Q271.0 148.0 269.25 161.0Q267.5 174.0 267.5 195.5Q267.5 203.5 267.5 212.0Q267.5 220.5 268.0 230.5L269.0 283.5L286.5 285.0Q289.5 285.0 292.25 285.25Q295.0 285.5 298.0 285.5Q313.5 285.5 329.25 280.75Q345.0 276.0 368.0 264.25Q391.0 252.5 427.0 232.0Q446.0 221.0 463.5 211.0Q481.0 201.0 493.5 193.5Q506.0 186.0 510.5 183.0Q505.0 179.5 491.5 171.25Q478.0 163.0 461.0 152.75Q444.0 142.5 428.0 133.25Q412.0 124.0 401.0 119.0Q391.5 114.5 372.25 108.75Q353.0 103.0 331.5 98.25Q310.0 93.5 294.0 91.5L266.0 88.0L283.0 69.5Q288.5 63.0 296.25 52.5Q304.0 42.0 309.0 33.5Q315.0 25.0 320.0 19.0Q325.0 13.0 325.5 13.0Q326.5 13.0 330.75 19.75Q335.0 26.5 339.5 36.5Q346.5 52.5 358.25 66.0Q370.0 79.5 392.5 95.0Q415.0 110.5 453.0 133.5L523.0 175.0Q526.5 173.0 529.75 171.0Q533.0 169.0 536.5 167.5Q541.5 165.0 545.25 163.25Q549.0 161.5 549.0 161.5V152.0Q549.0 149.5 548.25 142.25Q547.5 135.0 546.5 128.5Q545.5 122.0 545.5 122.0Q545.0 121.5 541.25 111.75Q537.5 102.0 531.75 88.0Q526.0 74.0 519.5 59.75Q513.0 45.5 507.75 35.0Q502.5 24.5 499.5 23.0Q494.0 19.5 494.0 14.5Z" fill="black" /></svg>