<svg xmlns="http://www.w3.org/2000/svg" width="464.0" height="382.5" viewBox="0 0 464.0 382.5"><path d="M72.0 226.0Q66.0 213.5 59.0 213.5Q52.5 213.5 43.5 225.0L34.0 236.5L54.5 238.0Q58.0 238.5 61.5 238.5Q65.0 238.5 67.5 238.5Q77.0 238.5 77.0 238.0Q77.0 238.0 76.75 237.5Q76.5 237.0 76.0 236.0Q75.5 234.0 74.25 231.5Q73.0 229.0 72.0 226.0ZM222.5 308.5 232.0 297.5H199.5Q181.0 297.5 173.25 298.0Q165.5 298.5 165.5 300.0Q165.5 301.0 170.5 305.0Q173.0 307.5 175.25 312.75Q177.5 318.0 178.0 323.5V323.0Q179.0 327.5 182.75 335.75Q186.5 344.0 191.0 346.5Q192.5 346.0 195.0 343.5Q197.5 341.0 201.0 335.0Q205.5 329.0 211.75 321.25Q218.0 313.5 222.5 308.5ZM90.0 148.0H67.0Q58.5 148.5 51.75 148.75Q45.0 149.0 45.0 150.0Q45.0 152.5 48.5 160.25Q52.0 168.0 55.75 174.75Q59.5 181.5 60.0 181.5Q62.5 181.5 67.25 177.25Q72.0 173.0 77.25 167.0Q82.5 161.0 86.25 155.5Q90.0 150.0 90.0 148.0ZM222.5 127.5Q222.5 126.5 217.0 125.75Q211.5 125.0 205.5 125.0Q195.5 125.0 193.0 127.5Q193.0 130.5 195.5 137.25Q198.0 144.0 201.25 149.75Q204.5 155.5 206.0 156.0Q207.5 155.5 211.5 149.5Q215.5 143.5 219.0 136.5Q222.5 129.5 222.5 127.5ZM254.0 91.5Q237.0 84.5 226.25 81.25Q215.5 78.0 207.0 78.0Q196.5 78.0 186.0 84.0Q175.5 90.0 156.0 103.5Q122.5 127.0 101.25 151.25Q80.0 175.5 76.0 195.5Q75.5 196.5 75.5 199.5Q75.5 214.5 88.25 234.75Q101.0 255.0 121.0 270.5Q129.5 276.5 136.5 280.25Q143.5 284.0 145.5 284.0L146.0 284.5Q148.0 282.5 154.0 282.5Q161.0 282.5 173.5 285.0Q180.5 286.5 186.75 287.5Q193.0 288.5 196.5 288.5Q199.0 288.5 199.0 288.0Q200.0 287.5 200.75 271.0Q201.5 254.5 202.0 232.0Q202.0 223.5 202.25 216.25Q202.5 209.0 202.5 203.5Q202.5 190.0 201.5 182.0Q200.5 174.0 197.75 166.5Q195.0 159.0 189.5 147.5Q183.0 136.0 179.0 126.75Q175.0 117.5 175.0 117.0Q175.0 115.5 185.25 114.75Q195.5 114.0 210.5 114.0Q225.0 114.0 235.25 114.75Q245.5 115.5 245.5 117.5Q245.5 119.0 241.5 124.75Q237.5 130.5 232.0 137.5Q223.5 147.5 220.75 156.5Q218.0 165.5 215.5 186.0Q213.5 200.0 212.5 220.25Q211.5 240.5 211.5 255.0V289.5L222.5 287.0Q226.0 286.0 239.5 280.0Q253.0 274.0 272.5 264.75Q292.0 255.5 313.25 245.0Q334.5 234.5 353.25 225.0Q372.0 215.5 384.25 209.0Q396.5 202.5 397.5 201.0Q397.5 198.0 386.5 187.75Q375.5 177.5 355.5 160.0Q333.0 141.5 318.75 130.0Q304.5 118.5 294.25 111.5Q284.0 104.5 275.0 100.0Q266.0 95.5 254.0 91.5ZM256.5 44.5Q256.5 31.0 252.0 31.0Q249.5 31.0 241.75 35.75Q234.0 40.5 227.0 46.0Q220.0 51.5 218.5 54.0Q219.5 55.0 219.5 56.0Q219.5 59.0 216.5 61.5Q216.0 62.0 216.0 62.25Q216.0 62.5 216.0 62.5Q216.0 65.5 240.0 74.0Q242.0 74.5 248.5 76.75Q255.0 79.0 261.25 80.75Q267.5 82.5 267.5 82.5Q267.0 80.5 262.5 73.5Q260.5 68.0 258.5 59.5Q256.5 51.0 256.5 44.5ZM427.5 45.0 434.5 31.0H412.5Q399.5 31.0 395.25 31.5Q391.0 32.0 391.0 34.5Q391.0 35.0 391.0 36.0Q391.0 37.0 391.5 38.0Q392.0 40.0 392.75 42.75Q393.5 45.5 394.5 49.0Q395.5 54.0 397.0 59.5Q398.5 65.0 400.0 70.5Q402.0 78.5 404.0 85.25Q406.0 92.0 407.0 93.5Q408.0 93.5 410.0 89.5Q412.0 85.5 414.0 80.0Q416.5 72.0 420.25 61.75Q424.0 51.5 427.5 45.0ZM242.5 22.5Q259.5 10.0 265.5 10.0Q269.0 10.0 269.0 14.5Q269.0 17.5 266.5 22.5Q263.5 27.5 263.5 35.5Q263.5 45.5 268.25 57.5Q273.0 69.5 281.5 79.5H281.0Q284.5 83.0 295.0 92.75Q305.5 102.5 319.75 115.25Q334.0 128.0 349.0 141.0L404.0 186.5L404.5 170.5Q405.0 168.0 405.0 165.75Q405.0 163.5 405.0 161.0Q405.0 142.0 399.75 114.25Q394.5 86.5 386.0 58.0L383.5 50.0Q380.0 39.5 377.75 31.5Q375.5 23.5 375.5 21.5V21.0Q375.5 20.0 380.0 19.25Q384.5 18.5 391.5 18.5Q402.5 18.5 416.75 19.0Q431.0 19.5 442.0 20.5Q453.0 21.5 454.0 22.5V23.0Q454.0 28.0 446.0 35.0H446.5Q443.0 39.5 437.5 49.25Q432.0 59.0 428.5 68.5Q425.5 76.0 423.5 85.0Q421.5 94.0 419.75 109.0Q418.0 124.0 416.5 149.25Q415.0 174.5 413.5 215.0Q412.0 268.0 409.25 300.5Q406.5 333.0 405.0 333.0L404.5 332.0Q403.0 330.0 402.5 322.75Q402.0 315.5 402.0 305.0Q402.0 297.0 402.25 287.5Q402.5 278.0 403.0 268.5Q404.5 246.0 404.5 233.5Q404.5 215.0 402.5 215.0Q399.5 215.0 388.0 220.0Q376.5 225.0 360.25 233.5Q344.0 242.0 325.75 251.75Q307.5 261.5 290.75 271.25Q274.0 281.0 261.75 289.0Q249.5 297.0 245.0 301.0Q238.0 308.5 229.25 318.5Q220.5 328.5 212.5 338.75Q204.5 349.0 199.5 356.75Q194.5 364.5 194.5 367.0Q194.5 369.0 192.75 370.75Q191.0 372.5 189.0 372.5Q187.0 372.5 185.25 370.75Q183.5 369.0 183.5 367.0Q183.5 365.0 180.0 356.25Q176.5 347.5 172.5 337.5Q168.5 326.5 163.75 319.75Q159.0 313.0 151.25 306.25Q143.5 299.5 129.5 289.5Q104.5 271.5 90.5 262.75Q76.5 254.0 67.75 251.25Q59.0 248.5 48.5 248.5Q40.5 248.5 33.25 250.0Q26.0 251.5 23.5 253.0Q17.5 256.0 14.0 256.0Q10.0 256.0 10.0 252.0Q10.0 245.5 19.0 236.5H18.5Q20.5 234.5 22.75 232.0Q25.0 229.5 27.0 227.0Q35.5 216.0 43.0 208.5H42.5L52.5 196.0Q46.0 181.0 38.5 166.5Q33.0 155.5 29.5 146.25Q26.0 137.0 26.0 135.0V134.0Q27.0 133.0 29.5 133.0Q35.0 133.0 45.0 135.5Q49.0 137.0 54.75 137.75Q60.5 138.5 65.5 138.5Q68.0 138.5 70.25 138.5Q72.5 138.5 74.5 138.0Q80.0 137.0 92.0 130.75Q104.0 124.5 118.0 115.75Q132.0 107.0 145.25 97.75Q158.5 88.5 167.25 81.5Q176.0 74.5 176.5 71.5V70.0Q176.5 62.0 199.5 50.0Q209.5 44.5 222.0 36.0Q234.5 27.5 242.5 22.5Z" fill="black" /></svg>