<svg xmlns="http://www.w3.org/2000/svg" width="598.5" height="387.5" viewBox="0 0 598.5 387.5"><path d="M135.0 200.5Q129.0 199.5 117.0 197.0Q105.0 194.5 91.75 190.75Q78.5 187.0 67.0 183.25Q55.5 179.5 50.0 176.5Q49.5 176.0 48.0 176.0Q45.0 176.0 42.75 181.5Q40.5 187.0 38.0 200.5Q36.0 212.0 33.25 223.0Q30.5 234.0 29.0 238.0Q28.0 241.0 28.0 241.5H28.5Q30.5 241.5 35.0 239.75Q39.5 238.0 47.5 234.5Q57.5 230.0 77.0 224.5Q96.5 219.0 115.0 215.5Q132.0 212.0 144.25 209.25Q156.5 206.5 156.5 206.0Q156.5 205.0 150.25 203.25Q144.0 201.5 135.0 200.5ZM196.5 244.0Q201.5 236.0 202.5 233.0Q200.0 233.0 190.75 237.75Q181.5 242.5 170.75 248.5Q160.0 254.5 152.0 259.5Q144.0 264.5 144.0 266.0Q144.0 267.0 152.0 270.0Q160.0 273.0 169.5 275.5Q179.0 278.0 183.5 278.0Q186.0 278.0 186.0 269.0Q186.0 265.0 189.0 257.5Q192.0 250.0 196.5 244.0ZM231.5 108.5Q237.0 103.0 237.5 101.0Q234.5 101.5 225.25 106.75Q216.0 112.0 205.25 119.25Q194.5 126.5 186.75 132.75Q179.0 139.0 179.0 141.0Q179.0 145.5 202.0 145.5Q210.5 145.5 213.25 143.5Q216.0 141.5 218.0 133.5V134.0Q219.0 128.0 223.0 120.75Q227.0 113.5 231.5 108.5ZM256.5 196.5Q255.5 193.5 252.5 193.5Q251.0 193.5 251.0 196.0Q251.0 200.0 255.5 200.0Q256.5 200.0 257.5 199.0Q257.0 198.5 257.0 197.75Q257.0 197.0 256.5 196.5ZM433.0 178.5Q437.5 171.5 437.5 169.0Q435.5 169.0 429.5 173.0Q423.5 177.0 417.0 182.75Q410.5 188.5 405.75 193.5Q401.0 198.5 400.5 201.0Q402.0 201.0 402.0 202.0Q401.5 204.0 392.5 207.5Q385.5 209.0 385.5 209.0Q386.5 209.5 393.25 211.5Q400.0 213.5 407.25 215.25Q414.5 217.0 416.5 217.0Q425.5 217.0 425.5 203.0Q425.5 190.0 433.0 178.5ZM491.5 83.0V83.5Q494.0 78.0 495.5 74.0Q497.0 70.0 497.5 68.0Q494.5 69.5 486.75 74.5Q479.0 79.5 469.75 86.0Q460.5 92.5 454.0 98.0Q447.5 103.5 447.5 106.0Q447.5 108.0 454.0 110.25Q460.5 112.5 468.25 114.0Q476.0 115.5 478.5 115.5Q484.0 115.5 484.0 108.0Q484.0 103.5 486.0 96.25Q488.0 89.0 491.5 83.0ZM533.0 18.0Q533.0 14.5 534.75 12.25Q536.5 10.0 538.5 10.0Q543.5 10.0 544.5 16.5Q544.0 20.0 541.25 26.25Q538.5 32.5 533.0 39.5Q525.5 49.0 516.75 63.0Q508.0 77.0 502.0 89.25Q496.0 101.5 496.0 106.5Q496.0 108.5 497.75 111.5Q499.5 114.5 502.5 115.5Q510.0 118.5 510.0 127.5Q511.0 131.0 521.75 139.75Q532.5 148.5 548.0 158.5Q565.0 170.0 576.0 180.0Q587.0 190.0 587.5 194.0Q588.0 195.5 588.25 196.75Q588.5 198.0 588.5 199.0Q588.5 201.5 587.0 201.5Q585.5 201.5 582.5 199.0Q579.5 196.5 574.0 191.5Q567.5 185.5 553.75 176.25Q540.0 167.0 524.75 157.5Q509.5 148.0 497.25 141.5Q485.0 135.0 481.5 135.0Q478.0 135.0 470.75 144.0Q463.5 153.0 455.75 165.75Q448.0 178.5 442.5 190.25Q437.0 202.0 437.0 207.5Q437.0 212.5 438.25 216.0Q439.5 219.5 440.5 219.5Q447.0 219.5 447.0 228.5Q447.0 230.5 456.75 238.5Q466.5 246.5 479.5 255.0Q492.5 263.5 504.0 272.5Q515.5 281.5 522.75 288.5Q530.0 295.5 530.5 298.0Q529.5 300.5 528.0 300.5Q527.0 300.5 512.0 291.25Q497.0 282.0 477.0 269.0Q441.5 245.5 416.0 234.0Q390.5 222.5 370.5 222.5Q364.5 222.5 358.0 220.5Q351.5 218.5 348.0 216.5Q345.0 213.5 338.0 212.25Q331.0 211.0 323.0 211.0Q312.0 211.0 303.0 212.75Q294.0 214.5 294.0 218.5V219.0Q295.0 221.0 295.0 223.0Q295.0 227.5 291.0 227.5Q286.0 227.5 279.0 219.5Q274.0 212.5 252.5 212.5Q243.5 212.5 238.5 214.0Q233.5 215.5 228.75 220.75Q224.0 226.0 215.5 238.5Q199.0 261.5 198.0 273.0Q199.0 278.5 202.5 280.5Q204.0 282.0 205.75 285.5Q207.5 289.0 207.5 293.0Q207.5 296.0 212.25 301.25Q217.0 306.5 223.5 310.5Q236.5 319.5 249.5 332.0Q262.5 344.5 271.5 355.5Q280.5 366.5 280.5 371.0Q280.5 377.5 278.5 377.5Q277.0 377.5 270.5 369.5Q268.0 365.5 258.75 357.25Q249.5 349.0 237.0 338.75Q224.5 328.5 211.25 318.5Q198.0 308.5 186.75 300.75Q175.5 293.0 169.5 290.0Q163.5 286.5 153.5 283.25Q143.5 280.0 135.0 279.0Q111.0 275.0 111.0 269.0Q111.0 263.5 129.0 256.5Q137.5 253.0 151.75 245.75Q166.0 238.5 177.0 231.5L198.5 217.5L170.0 220.0Q144.0 222.0 118.5 227.5Q93.0 233.0 71.75 240.0Q50.5 247.0 36.75 254.5Q23.0 262.0 20.0 269.0Q17.5 274.0 13.0 275.0Q12.5 275.0 11.5 274.0V274.5Q10.0 273.0 10.0 269.5Q10.0 264.0 12.0 254.0Q14.0 244.0 18.0 233.0Q29.5 195.5 29.5 178.0Q29.5 169.0 26.5 169.0Q22.5 169.0 20.25 165.0Q18.0 161.0 18.0 156.0Q18.0 153.0 19.75 147.5Q21.5 142.0 25.5 142.0Q28.0 142.0 35.5 150.0Q41.5 158.0 58.0 165.25Q74.5 172.5 96.75 178.75Q119.0 185.0 142.25 189.25Q165.5 193.5 185.75 196.0Q206.0 198.5 218.0 198.5Q229.5 198.5 233.0 194.5Q239.5 190.5 239.5 187.5Q239.5 183.5 215.0 169.0Q200.0 160.5 189.25 157.25Q178.5 154.0 162.5 154.0Q150.0 153.5 144.75 152.5Q139.5 151.5 139.5 149.5Q139.5 148.5 140.75 147.5Q142.0 146.5 144.0 145.0Q163.5 133.0 184.75 118.75Q206.0 104.5 225.5 91.0Q245.0 77.5 259.25 67.25Q273.5 57.0 278.0 52.5Q291.0 39.5 296.0 39.5Q298.5 39.5 298.5 42.5Q298.5 49.5 282.0 67.5Q257.5 92.5 242.75 113.5Q228.0 134.5 228.0 143.0Q228.0 146.5 232.0 146.5Q236.0 146.5 236.0 151.5Q236.0 153.5 235.0 156.5Q234.5 157.0 234.5 158.5Q234.5 166.0 256.5 183.0L282.5 201.5L377.5 196.0Q387.5 189.0 397.25 182.0Q407.0 175.0 416.5 168.0Q441.0 150.5 452.25 141.5Q463.5 132.5 463.5 128.5Q463.5 124.5 440.0 121.5Q424.5 119.5 417.5 118.0Q410.5 116.5 410.5 113.0Q410.5 110.0 415.25 106.5Q420.0 103.0 429.0 98.0Q442.5 90.5 460.25 78.5Q478.0 66.5 494.5 53.75Q511.0 41.0 522.0 31.0Q533.0 21.0 533.0 18.0Z" fill="black" /></svg>