<svg xmlns="http://www.w3.org/2000/svg" width="629.5" height="460.0" viewBox="0 0 629.5 460.0"><path d="M92.5 235.0Q95.0 229.5 96.75 225.5Q98.5 221.5 99.0 219.5Q96.0 221.0 87.75 228.5Q79.5 236.0 69.5 245.25Q59.5 254.5 52.0 262.0Q44.5 269.5 43.5 271.0Q44.0 270.5 46.0 270.5Q51.0 270.5 59.0 269.0Q67.0 267.5 74.25 264.75Q81.5 262.0 83.0 259.5V261.0Q84.0 257.0 86.75 250.0Q89.5 243.0 92.5 235.0ZM130.0 126.5Q133.5 116.0 134.5 110.5Q131.5 112.5 125.5 117.5Q119.5 122.5 112.5 129.5L96.5 146.0H108.5Q119.0 146.0 122.25 143.25Q125.5 140.5 130.0 126.5ZM220.0 215.5Q224.5 212.5 224.5 211.5Q224.5 210.5 221.5 207.25Q218.5 204.0 215.25 200.75Q212.0 197.5 210.5 197.5Q207.5 197.5 207.5 208.0Q207.5 219.0 213.0 219.0Q216.0 219.0 220.0 215.5ZM220.0 305.0H221.0Q214.0 297.5 210.5 297.5Q207.5 297.5 207.5 305.0Q207.5 317.0 212.0 317.0Q214.5 317.0 216.25 316.25Q218.0 315.5 220.0 314.5Q223.0 313.5 224.5 312.25Q226.0 311.0 226.0 311.0Q226.0 308.5 220.0 305.0ZM409.5 362.0Q409.5 362.0 408.75 362.25Q408.0 362.5 407.5 362.5Q405.5 362.5 401.25 363.75Q397.0 365.0 392.5 367.5Q389.0 370.5 387.75 372.5Q386.5 374.5 386.5 375.0Q386.5 375.5 395.0 375.5Q401.0 375.5 405.25 371.5Q409.5 367.5 409.5 362.0ZM326.0 223.0Q326.0 223.0 312.5 222.5Q299.0 222.0 281.0 222.0Q259.0 222.0 248.5 222.75Q238.0 223.5 233.25 225.75Q228.5 228.0 223.0 233.5Q211.5 244.0 211.5 258.0Q211.5 273.5 226.5 290.0L239.5 305.5H281.0Q298.0 305.5 310.5 304.25Q323.0 303.0 323.0 301.5Q323.5 301.5 323.5 296.5Q323.5 291.5 323.0 284.0Q322.5 276.5 320.5 269.0Q319.0 259.0 317.75 253.25Q316.5 247.5 316.5 242.5Q316.5 238.0 317.75 235.25Q319.0 232.5 321.0 230.5Q322.5 228.0 324.25 226.0Q326.0 224.0 326.0 223.0ZM378.5 209.0 358.5 195.0Q347.5 187.0 342.0 183.75Q336.5 180.5 334.5 180.5Q334.5 182.5 336.5 186.5Q338.0 190.5 338.75 198.75Q339.5 207.0 339.5 214.0L339.0 227.5ZM373.0 303.5Q369.5 302.5 363.0 298.0Q356.5 293.5 349.5 287.5Q345.0 284.0 342.25 281.75Q339.5 279.5 338.5 279.5V286.0Q339.0 288.0 339.25 296.0Q339.5 304.0 339.5 311.0V327.5L353.0 319.5Q361.0 315.5 367.75 312.5Q374.5 309.5 377.0 309.5Q382.0 309.5 382.0 309.0Q382.0 307.0 373.0 303.5ZM481.5 190.0Q468.5 181.0 452.75 173.75Q437.0 166.5 420.5 166.5Q407.5 166.5 396.0 170.5Q384.5 174.5 373.0 182.5L369.0 184.5Q369.0 185.5 390.0 194.5Q401.5 199.5 409.5 201.25Q417.5 203.0 430.5 203.0Q436.0 203.0 443.5 203.0Q451.0 203.0 460.5 202.5L500.0 201.0Q495.0 198.5 490.5 195.25Q486.0 192.0 481.5 190.0ZM290.5 63.0Q291.0 60.5 291.5 58.25Q292.0 56.0 292.0 55.0Q290.5 55.0 280.0 61.5Q269.0 67.5 269.0 70.0Q269.0 70.5 277.5 70.5Q287.5 70.5 290.5 63.0ZM457.0 137.0Q457.0 128.5 456.5 124.0Q456.0 119.5 456.0 119.5Q454.0 121.0 450.25 124.0Q446.5 127.0 441.0 131.0L433.5 135.5Q415.5 150.0 415.5 151.0Q415.5 151.0 417.5 151.0Q419.5 151.0 422.5 151.5Q425.5 153.0 431.0 153.75Q436.5 154.5 441.5 154.5L446.5 155.0Q453.0 155.0 455.0 152.5Q457.0 150.0 457.0 137.0ZM68.0 163.5Q68.0 161.0 76.5 150.5Q85.0 140.0 98.75 125.0Q112.5 110.0 128.25 94.0Q144.0 78.0 158.5 64.0Q173.0 50.0 183.0 41.25Q193.0 32.5 195.5 32.5L197.0 33.5V36.5Q197.0 40.0 193.75 46.5Q190.5 53.0 186.0 61.0Q166.0 87.0 153.75 107.75Q141.5 128.5 141.5 138.0Q141.5 150.0 144.0 150.0Q146.5 150.0 149.25 147.75Q152.0 145.5 156.5 142.0Q165.0 133.5 166.5 133.5Q170.0 133.5 170.0 141.0Q170.0 150.0 164.5 154.5Q160.5 155.5 160.5 158.0Q160.5 161.5 179.0 169.5L195.5 178.5L194.0 166.0V161.0Q194.0 155.0 195.75 151.0Q197.5 147.0 199.0 147.0Q206.0 147.0 208.0 161.0Q210.0 166.0 215.25 174.75Q220.5 183.5 226.5 190.0L239.5 206.5H281.0Q306.0 206.5 315.25 204.75Q324.5 203.0 324.5 195.0Q324.5 187.5 320.5 171.5Q318.5 163.5 317.25 156.75Q316.0 150.0 316.0 145.5Q316.0 134.0 320.5 133.0Q325.0 134.0 329.0 145.5Q331.0 151.0 336.25 157.75Q341.5 164.5 347.0 169.25Q352.5 174.0 356.0 174.0Q357.0 174.0 365.75 168.25Q374.5 162.5 387.5 153.25Q400.5 144.0 414.75 133.5Q429.0 123.0 442.0 112.75Q455.0 102.5 463.0 95.5Q472.5 86.5 481.0 80.5Q489.5 74.5 491.5 74.5L493.5 75.5Q494.5 77.5 495.0 78.25Q495.5 79.0 495.5 80.0Q495.5 87.0 489.0 90.5V90.0Q484.5 94.0 479.75 103.5Q475.0 113.0 472.0 124.5Q469.0 136.0 469.0 146.0Q469.0 155.0 470.5 159.75Q472.0 164.5 478.25 169.25Q484.5 174.0 498.5 183.0Q509.0 190.5 515.75 194.5Q522.5 198.5 529.25 200.25Q536.0 202.0 545.75 202.25Q555.5 202.5 572.5 202.5Q619.0 202.5 619.0 210.0Q619.0 212.5 610.0 214.75Q601.0 217.0 580.5 218.0L552.5 219.5Q556.0 221.5 560.5 225.0Q565.0 228.5 568.5 231.0Q579.5 237.5 583.75 242.5Q588.0 247.5 588.0 250.0Q588.0 253.5 585.5 253.5Q578.5 253.5 551.0 235.5L521.0 215.5L453.5 218.0Q417.0 219.5 395.75 222.25Q374.5 225.0 363.5 230.5Q352.5 236.0 346.5 245.5Q340.0 253.0 340.0 257.5Q340.0 263.0 345.75 267.75Q351.5 272.5 362.5 279.0Q376.0 288.5 386.5 293.75Q397.0 299.0 411.75 301.25Q426.5 303.5 452.0 303.5Q477.0 303.5 517.5 302.0Q536.5 301.5 551.0 301.5Q565.5 301.5 577.0 301.5Q600.5 301.5 610.0 302.75Q619.5 304.0 619.5 307.0Q619.5 312.5 600.0 313.75Q580.5 315.0 534.5 315.0Q495.0 315.0 473.0 315.75Q451.0 316.5 451.0 318.0Q451.0 319.5 446.25 328.0Q441.5 336.5 434.5 345.5Q426.5 355.0 422.5 361.5Q418.5 368.0 418.5 373.5Q418.5 380.5 426.0 388.25Q433.5 396.0 450.0 408.0Q464.5 419.0 474.0 429.0Q483.5 439.0 483.5 443.0Q483.5 450.0 480.0 450.0Q479.5 450.0 478.75 449.75Q478.0 449.5 476.0 448.5Q474.5 445.5 465.75 438.0Q457.0 430.5 445.25 421.75Q433.5 413.0 423.0 405.5Q412.5 398.0 407.5 395.5Q398.0 390.5 385.5 390.5Q367.0 390.5 350.5 400.5Q345.5 402.5 341.0 404.25Q336.5 406.0 334.5 406.0Q330.5 406.0 330.5 401.5Q331.0 398.0 346.75 385.0Q362.5 372.0 384.0 358.0Q404.5 343.5 419.5 332.25Q434.5 321.0 433.5 320.0Q433.5 319.5 429.75 319.0Q426.0 318.5 421.0 318.5Q413.0 318.5 401.0 320.25Q389.0 322.0 376.75 325.75Q364.5 329.5 355.0 335.75Q345.5 342.0 342.0 351.0Q334.5 366.0 331.5 366.0Q326.0 366.0 326.0 341.0V320.0H284.5Q247.5 320.0 233.25 325.25Q219.0 330.5 215.0 344.0Q214.5 346.5 213.0 351.0Q211.5 355.5 210.5 359.0Q210.0 361.0 209.0 363.25Q208.0 365.5 208.0 366.0L206.5 367.5Q204.5 367.5 202.25 355.75Q200.0 344.0 198.5 326.5Q196.5 300.5 196.0 283.5Q195.5 266.5 195.5 254.5Q195.5 245.5 195.75 238.5Q196.0 231.5 197.0 225.0Q197.5 221.0 197.5 217.75Q197.5 214.5 197.5 212.5Q197.5 203.0 191.5 197.0H192.0Q185.0 189.0 172.25 181.75Q159.5 174.5 151.0 174.5Q148.5 174.5 142.5 181.5Q136.5 188.5 129.25 199.25Q122.0 210.0 115.25 221.5Q108.5 233.0 104.0 242.5Q99.5 252.0 99.5 256.0Q99.5 263.5 101.75 268.0Q104.0 272.5 111.5 277.0Q119.0 281.5 135.0 289.0Q173.5 308.5 175.0 318.0Q175.0 319.0 173.5 321.5Q172.0 324.0 170.0 324.0Q168.0 324.0 164.25 321.25Q160.5 318.5 156.0 315.0V316.0Q149.5 312.0 138.0 306.25Q126.5 300.5 113.0 295.25Q99.5 290.0 87.25 286.5Q75.0 283.0 67.0 283.0Q63.0 283.0 57.5 283.5Q52.0 284.0 45.0 286.0Q29.0 288.5 19.0 288.5Q17.0 288.5 13.5 287.5Q10.0 286.5 10.0 283.5Q10.0 280.0 14.75 275.75Q19.5 271.5 26.0 267.0Q30.5 263.5 42.0 253.25Q53.5 243.0 68.25 229.75Q83.0 216.5 97.0 203.0Q111.0 189.5 120.0 179.25Q129.0 169.0 129.0 165.5Q129.0 163.5 119.5 163.5Q110.5 163.5 101.0 163.75Q91.5 164.0 83.0 166.0Q81.0 166.5 77.5 167.0Q74.0 167.5 72.0 167.5Q68.0 167.5 68.0 163.5ZM312.0 19.5Q321.5 10.0 327.5 10.0Q331.5 10.0 331.5 15.5Q331.5 18.5 329.5 23.0Q327.5 27.5 323.0 32.0Q312.5 43.0 307.0 51.5Q301.5 60.0 301.5 67.0Q301.5 75.0 309.25 83.75Q317.0 92.5 332.5 104.0Q347.5 114.0 357.0 123.5Q366.5 133.0 366.5 135.5Q366.5 141.0 363.5 141.0Q360.5 141.0 351.25 134.0Q342.0 127.0 319.5 109.5Q302.0 98.0 290.0 91.75Q278.0 85.5 266.5 85.5Q259.0 85.5 251.5 87.75Q244.0 90.0 234.5 94.0Q227.0 97.0 221.5 97.75Q216.0 98.5 214.0 98.5H213.0Q209.5 98.0 222.25 86.25Q235.0 74.5 255.0 61.0Q274.0 47.5 290.75 36.0Q307.5 24.5 312.0 19.5Z" fill="black" /></svg>