<svg xmlns="http://www.w3.org/2000/svg" width="556.0" height="455.5" viewBox="0 0 556.0 455.5"><path d="M150.0 317.5 120.0 312.0Q110.5 310.0 98.25 306.75Q86.0 303.5 75.0 299.75Q64.0 296.0 57.0 293.5L33.5 283.5L32.0 313.5Q32.0 316.0 31.75 318.5Q31.5 321.0 30.5 323.0V332.5Q30.5 343.0 38.0 343.0Q42.5 343.0 50.5 341.0Q58.5 339.0 71.5 335.5Q87.5 331.0 103.5 326.75Q119.5 322.5 135.5 320.5ZM78.0 139.0Q61.5 132.0 48.5 128.0Q35.5 124.0 34.0 124.0Q34.0 124.0 33.5 132.5Q33.0 141.0 32.0 152.5Q32.0 155.5 31.25 158.25Q30.5 161.0 30.5 163.5Q30.5 183.0 34.0 183.0Q37.0 183.0 50.75 179.5Q64.5 176.0 81.5 171.0Q90.0 168.5 102.5 166.0Q115.0 163.5 127.25 161.0Q139.5 158.5 147.5 157.0Q155.5 155.5 155.5 155.5Q150.0 153.5 144.75 152.75Q139.5 152.0 134.0 151.5Q121.0 149.0 108.25 146.25Q95.5 143.5 78.0 139.0ZM295.0 30.0Q293.0 30.5 280.5 30.75Q268.0 31.0 252.0 31.0L210.0 29.5L221.0 53.5Q225.0 61.0 229.25 71.75Q233.5 82.5 237.0 92.5Q238.0 96.0 239.0 99.75Q240.0 103.5 241.0 105.5L253.0 137.5Q258.0 109.5 269.5 82.0Q281.0 54.5 295.0 30.0ZM187.0 11.0V11.5Q188.5 10.0 193.0 10.0Q199.5 10.0 206.0 11.5Q209.5 13.0 220.25 14.0Q231.0 15.0 245.25 15.25Q259.5 15.5 273.5 15.5H284.5Q302.0 15.5 314.0 16.75Q326.0 18.0 326.0 20.0Q326.0 22.5 322.0 27.5Q318.0 32.5 312.0 37.5Q304.0 45.5 295.75 59.25Q287.5 73.0 280.75 89.25Q274.0 105.5 270.5 121.0L266.0 143.5H404.5Q472.0 143.5 509.0 145.25Q546.0 147.0 546.0 151.0Q546.0 154.5 509.0 156.0Q472.0 157.5 403.5 157.5H265.0L264.0 187.0V306.0H403.5Q472.0 306.0 509.0 308.0Q546.0 310.0 546.0 313.5Q546.0 317.5 509.0 319.5Q472.0 321.5 403.5 321.5H264.0V381.0Q264.0 411.0 262.0 428.25Q260.0 445.5 257.5 445.5Q254.0 445.5 252.0 428.25Q250.0 411.0 250.0 381.0V321.5H233.0Q225.0 321.5 208.75 323.75Q192.5 326.0 171.75 329.5Q151.0 333.0 129.25 337.5Q107.5 342.0 87.75 346.5Q68.0 351.0 54.0 355.0Q40.0 359.5 28.5 362.5Q17.0 365.5 13.0 365.5Q11.0 365.5 10.0 364.0V361.5Q10.0 360.0 11.25 354.75Q12.5 349.5 13.5 343.5Q17.5 332.5 18.0 318.75Q18.5 305.0 18.5 294.0Q18.5 292.0 18.25 290.0Q18.0 288.0 18.0 286.0Q18.0 283.5 17.75 281.0Q17.5 278.5 17.5 276.0Q17.5 265.0 24.5 265.0Q28.5 265.0 36.0 267.5Q43.5 270.0 56.5 275.5Q59.0 276.0 62.25 277.5Q65.5 279.0 69.0 280.5Q86.0 288.0 112.0 293.75Q138.0 299.5 167.0 302.75Q196.0 306.0 221.5 306.0H250.0V249.5Q250.0 233.5 249.5 217.75Q249.0 202.0 248.0 189.75Q247.0 177.5 245.5 173.0Q244.5 167.5 243.5 163.5Q242.5 159.5 242.5 159.5Q240.5 159.5 234.5 160.0Q228.5 160.5 221.5 161.5Q191.5 165.0 160.5 170.25Q129.5 175.5 103.25 181.25Q77.0 187.0 61.0 192.5Q44.0 197.5 34.0 200.25Q24.0 203.0 18.5 203.0Q11.5 203.0 11.5 196.5Q11.5 192.0 13.5 186.0Q16.5 179.5 18.0 165.25Q19.5 151.0 19.5 135.5Q19.5 120.0 21.0 109.5Q22.5 99.0 25.0 99.0Q69.5 122.0 111.25 132.75Q153.0 143.5 198.5 143.5H238.0L229.5 115.5Q226.0 103.5 217.75 85.0Q209.5 66.5 202.0 51.5Q195.5 39.0 191.0 27.75Q186.5 16.5 186.5 13.5Q186.5 13.0 186.5 12.0Q186.5 11.0 187.0 11.0Z" fill="black" /></svg>