<svg xmlns="http://www.w3.org/2000/svg" width="714.5" height="379.0" viewBox="0 0 714.5 379.0"><path d="M29.5 269.5Q29.5 267.0 26.0 267.0Q22.5 267.0 22.5 272.5Q22.5 274.5 24.5 275.5Q24.5 275.5 25.0 275.5Q25.5 275.5 25.5 275.0Q29.5 273.5 29.5 269.5ZM43.0 164.5Q43.0 164.5 41.25 164.25Q39.5 164.0 37.0 164.0Q31.5 164.0 31.5 170.0Q31.5 173.0 32.0 173.0Q33.5 173.0 36.5 170.0Q43.0 165.5 43.0 164.5ZM175.0 270.5 176.0 251.0V232.5Q172.0 234.5 164.75 239.75Q157.5 245.0 150.5 250.25Q143.5 255.5 140.0 259.0Q141.0 259.5 145.75 260.75Q150.5 262.0 157.0 264.5ZM240.0 327.5Q240.0 325.0 236.5 325.0Q233.0 325.0 233.0 330.5Q233.0 333.5 234.5 333.5Q235.5 333.5 236.0 333.0Q240.0 331.5 240.0 327.5ZM206.0 174.5V153.5Q206.0 145.0 205.75 139.0Q205.5 133.0 204.5 132.5Q203.0 133.5 197.75 137.75Q192.5 142.0 186.75 147.0Q181.0 152.0 176.75 156.25Q172.5 160.5 172.5 162.0Q172.5 162.5 177.0 164.0Q178.5 164.5 180.75 165.25Q183.0 166.0 185.0 167.0Q187.5 167.5 190.25 168.5Q193.0 169.5 195.0 170.5Q204.0 174.5 206.0 174.5ZM231.0 152.0Q231.0 140.5 231.0 132.25Q231.0 124.0 230.5 124.0Q230.5 124.0 227.75 128.25Q225.0 132.5 221.5 139.0V138.5Q216.0 149.5 216.0 159.0Q216.0 165.5 218.75 171.0Q221.5 176.5 226.5 178.5H227.0Q229.5 178.5 230.25 172.25Q231.0 166.0 231.0 152.0ZM248.5 148.5Q248.5 146.0 245.0 146.0Q242.0 146.0 242.0 152.0Q242.0 155.0 243.5 155.0Q244.0 155.0 244.5 154.5Q248.5 152.5 248.5 148.5ZM248.5 242.5Q248.5 240.5 245.0 240.5Q242.0 240.5 242.0 245.5Q242.0 248.5 243.5 248.5Q244.0 248.5 244.5 248.0Q248.5 246.0 248.5 242.5ZM256.5 302.0Q252.0 300.0 247.75 298.75Q243.5 297.5 240.5 296.5Q233.0 294.0 232.5 293.5L233.0 294.0Q232.0 294.0 232.0 295.0Q232.0 303.0 239.5 310.5Q245.5 317.0 252.0 317.0Q259.0 317.0 268.5 312.0Q272.0 310.5 273.75 309.75Q275.5 309.0 275.5 309.0Q275.5 307.5 256.5 302.0ZM396.0 160.5Q389.0 156.0 382.0 154.0Q375.0 152.0 362.25 151.25Q349.5 150.5 325.0 150.5Q302.0 150.5 288.25 151.25Q274.5 152.0 266.5 155.0Q258.5 158.0 253.25 163.5Q248.0 169.0 242.5 179.0L234.0 192.5Q241.5 197.5 249.5 202.25Q257.5 207.0 265.5 212.0Q279.5 220.5 287.5 225.0Q295.5 229.5 302.25 231.0Q309.0 232.5 319.0 232.5H326.0Q347.5 232.5 347.5 232.0Q347.0 232.0 343.0 230.5L328.0 224.5L345.0 218.0Q354.0 215.0 365.5 208.75Q377.0 202.5 388.0 195.0Q399.0 187.5 406.25 181.0Q413.5 174.5 414.0 171.5Q413.5 171.0 411.25 169.5Q409.0 168.0 405.5 166.0Q403.5 165.0 401.0 163.5Q398.5 162.0 396.0 160.5ZM426.5 272.0Q410.0 260.5 400.0 254.25Q390.0 248.0 382.0 245.75Q374.0 243.5 363.5 243.5Q359.5 243.5 348.5 244.0Q337.5 244.5 327.25 245.25Q317.0 246.0 314.0 247.0Q317.5 248.5 319.75 252.0Q322.0 255.5 322.0 258.5Q322.0 264.0 319.0 264.0Q316.5 264.0 305.5 255.5Q299.5 251.0 292.0 247.75Q284.5 244.5 279.0 244.5Q272.0 244.5 263.5 250.0Q255.0 255.5 249.0 263.0Q243.0 270.5 242.5 276.0V277.0Q244.0 284.0 252.25 288.25Q260.5 292.5 282.0 294.0Q303.5 295.5 344.0 295.5H362.0Q386.5 295.5 407.0 295.25Q427.5 295.0 441.0 294.75Q454.5 294.5 457.5 294.0Q456.0 293.0 447.25 286.75Q438.5 280.5 426.5 272.0ZM391.5 211.0V211.5L392.0 210.0Q393.0 208.5 393.5 207.25Q394.0 206.0 394.5 205.0Q393.0 205.5 389.5 207.75Q386.0 210.0 380.5 213.5L363.5 224.0L376.5 228.5Q382.0 230.5 385.25 231.5Q388.5 232.5 390.0 232.5H390.5Q390.5 232.0 390.25 231.25Q390.0 230.5 389.5 229.0L389.0 228.5Q388.5 227.5 388.5 224.0Q388.5 221.0 389.25 217.25Q390.0 213.5 391.5 211.0ZM448.5 195.5Q438.5 188.5 430.75 183.0Q423.0 177.5 422.5 177.5Q421.0 177.5 405.0 211.5Q400.5 220.5 400.5 227.5Q400.5 237.5 409.0 237.5Q414.5 237.5 414.5 241.5Q414.5 242.5 413.5 243.5Q414.5 247.5 420.5 252.5Q427.5 257.0 429.0 257.0Q432.5 257.0 433.75 248.5Q435.0 240.0 435.25 230.75Q435.5 221.5 435.5 219.5Q436.0 208.0 437.75 200.25Q439.5 192.5 441.5 192.5Q447.0 192.5 447.0 200.5Q447.0 206.0 455.25 210.0Q463.5 214.0 468.5 214.0Q467.5 211.5 462.0 206.75Q456.5 202.0 448.5 195.5ZM457.5 226.0V225.5Q457.5 223.5 454.75 221.75Q452.0 220.0 450.0 220.0Q447.0 220.0 447.0 226.0Q447.0 231.5 451.5 231.5Q455.0 231.5 457.5 226.0ZM266.5 74.5Q262.0 74.5 255.25 72.5Q248.5 70.5 243.5 68.5L233.0 62.5V102.5L253.5 90.5Q274.5 79.0 274.5 76.0Q274.5 74.5 266.5 74.5ZM397.5 118.0Q398.5 117.0 398.75 116.5Q399.0 116.0 399.5 115.5Q397.5 116.0 392.5 118.5Q387.5 121.0 380.5 125.5L368.0 134.5L379.0 138.0Q386.5 140.5 389.0 140.5Q391.5 140.5 391.5 134.0Q391.5 123.0 397.5 118.0ZM549.0 121.0H628.5V74.5H474.5Q430.0 74.5 401.0 74.75Q372.0 75.0 353.75 75.5Q335.5 76.0 324.75 77.25Q314.0 78.5 306.5 80.5Q299.0 82.5 291.0 86.0Q279.5 90.5 267.25 96.25Q255.0 102.0 249.5 105.5Q240.0 113.5 240.0 116.5Q240.0 119.5 242.5 123.5Q246.0 132.0 251.5 135.0Q254.0 137.0 268.0 137.75Q282.0 138.5 297.5 138.5Q313.0 138.5 325.75 137.75Q338.5 137.0 339.0 136.0Q339.5 134.5 346.0 130.5Q352.5 126.5 360.5 123.0Q369.0 119.0 381.0 111.5Q393.0 104.0 402.5 97.5Q418.0 85.0 421.5 85.0Q423.5 85.0 423.5 88.0Q423.5 92.0 414.0 110.0Q403.0 129.0 403.0 137.5Q403.0 143.5 409.0 146.0Q411.5 147.0 413.75 150.0Q416.0 153.0 416.0 155.5Q416.0 159.0 423.5 165.0V164.5Q427.5 167.0 429.0 167.0Q431.0 167.0 433.5 157.0Q434.5 151.0 435.25 140.75Q436.0 130.5 436.0 122.0Q436.0 112.0 437.75 105.25Q439.5 98.5 441.5 98.5Q444.0 98.5 445.5 101.0Q447.0 103.5 447.0 107.0Q447.0 112.5 455.75 115.75Q464.5 119.0 486.75 120.0Q509.0 121.0 549.0 121.0ZM458.5 131.0Q458.5 128.0 452.5 126.5Q451.5 126.0 450.0 126.0Q447.0 126.0 447.0 131.0Q447.0 136.5 450.0 136.5Q452.0 136.5 452.5 136.0Q455.0 135.0 456.75 133.5Q458.5 132.0 458.5 131.0ZM553.0 215.0H628.5V132.5H478.5L461.0 145.5Q443.0 159.0 443.0 168.0Q443.0 178.0 462.5 192.5Q470.5 198.0 475.25 203.5Q480.0 209.0 480.0 211.5V212.0Q480.0 213.0 500.75 214.0Q521.5 215.0 553.0 215.0ZM652.0 46.0 662.5 30.0H626.5L631.5 40.0Q634.5 45.0 637.0 50.75Q639.5 56.5 640.5 59.0Q643.5 59.0 652.0 46.0ZM673.5 14.0Q679.5 11.5 684.5 10.75Q689.5 10.0 693.0 10.0Q701.0 10.0 704.5 14.0V15.5Q704.5 21.0 695.0 23.5Q688.0 25.5 679.0 33.5Q670.0 41.5 661.5 52.5Q653.0 63.5 648.0 75.5Q645.0 81.5 643.5 89.25Q642.0 97.0 641.0 111.5Q640.0 126.0 639.75 151.75Q639.5 177.5 639.5 219.5Q639.5 281.0 638.0 314.25Q636.5 347.5 634.0 347.5Q631.5 347.5 630.0 330.75Q628.5 314.0 628.5 285.5V227.0H478.5L461.0 240.0Q453.5 245.0 448.0 251.0Q442.5 257.0 442.5 260.0Q442.5 263.0 447.75 269.5Q453.0 276.0 459.5 281.5L476.5 295.5H550.5Q584.0 295.5 605.0 297.0Q626.0 298.5 626.0 301.0Q626.0 302.5 606.25 304.0Q586.5 305.5 550.5 306.5Q514.5 307.5 465.5 308.0Q419.0 308.5 389.0 308.75Q359.0 309.0 340.75 309.5Q322.5 310.0 312.25 311.25Q302.0 312.5 296.25 314.25Q290.5 316.0 284.5 319.0L265.0 328.0L280.0 342.5Q291.5 353.5 291.5 357.5Q291.5 360.0 289.0 360.0Q287.0 360.0 281.25 357.0Q275.5 354.0 267.5 347.0L252.5 334.5L241.5 344.0Q236.0 347.5 231.75 352.75Q227.5 358.0 226.5 361.5Q224.5 368.0 222.0 369.0Q219.0 368.0 216.0 364.5Q213.0 361.0 213.0 358.0Q213.0 356.5 214.0 354.5Q215.0 352.5 216.5 349.5V350.0Q218.5 346.0 220.0 339.0Q221.5 332.0 221.5 326.5Q221.5 320.0 219.75 316.0Q218.0 312.0 210.75 307.25Q203.5 302.5 187.5 293.5L153.5 273.5L99.5 272.5L46.0 270.5Q43.0 274.0 40.0 277.5Q37.0 281.0 34.5 284.5Q29.5 290.0 25.0 297.0Q20.5 304.0 19.5 308.5Q16.5 321.0 13.5 321.0Q10.0 321.0 10.0 296.5Q10.0 292.5 10.0 287.5Q10.0 282.5 10.5 277.5Q11.5 251.0 12.75 240.25Q14.0 229.5 16.0 229.5Q17.5 229.5 20.0 236.0Q23.5 246.0 27.0 250.5Q30.5 255.0 39.75 256.25Q49.0 257.5 70.0 258.5Q74.0 258.5 78.0 258.75Q82.0 259.0 85.5 259.0Q101.0 259.0 109.75 257.25Q118.5 255.5 125.0 252.0Q133.5 248.0 143.75 240.75Q154.0 233.5 163.75 225.5Q173.5 217.5 180.5 211.0Q187.5 204.5 188.5 201.5Q189.5 197.5 191.75 195.0Q194.0 192.5 196.0 192.5Q198.5 192.5 199.75 195.75Q201.0 199.0 201.0 203.0Q201.0 212.0 196.5 215.0V214.5Q194.0 216.5 191.5 224.25Q189.0 232.0 187.5 240.25Q186.0 248.5 186.0 252.5Q186.0 263.0 189.5 270.25Q193.0 277.5 199.0 277.5Q204.5 277.5 204.5 282.5Q204.5 286.5 207.25 289.25Q210.0 292.0 213.5 294.0Q216.0 296.0 217.75 297.25Q219.5 298.5 220.0 298.5Q221.5 298.5 221.5 284.0Q221.5 275.5 223.25 269.75Q225.0 264.0 227.0 264.0Q229.0 264.0 230.0 256.25Q231.0 248.5 231.0 239.0Q231.0 211.0 237.0 211.0Q240.5 211.0 245.0 222.5Q247.5 228.0 251.5 230.5Q255.5 233.0 263.0 233.0Q268.0 233.0 271.75 232.75Q275.5 232.5 275.5 232.5Q275.5 231.5 267.75 226.75Q260.0 222.0 248.25 214.75Q236.5 207.5 223.5 200.25Q210.5 193.0 199.75 187.25Q189.0 181.5 184.0 179.5Q177.5 176.5 163.75 174.0Q150.0 171.5 133.75 170.0Q117.5 168.5 102.5 167.75Q87.5 167.0 78.5 167.0Q64.5 167.0 57.0 169.5Q49.5 172.0 45.0 178.75Q40.5 185.5 35.0 197.5Q31.5 205.5 28.0 211.75Q24.5 218.0 23.5 218.0Q22.5 218.0 21.5 204.25Q20.5 190.5 20.5 171.5Q20.5 152.5 21.75 139.0Q23.0 125.5 25.0 125.5Q27.5 125.5 30.5 130.0Q33.5 134.5 36.5 140.5L42.0 154.5L154.0 157.0L181.5 136.5Q198.0 124.0 206.5 115.75Q215.0 107.5 218.25 99.25Q221.5 91.0 221.5 79.0Q221.5 76.0 221.5 73.0Q221.5 70.0 221.0 67.0Q220.5 63.5 220.5 60.25Q220.5 57.0 220.5 54.0Q220.5 36.5 225.0 35.5Q228.0 36.0 231.5 44.0Q232.5 46.5 237.25 50.25Q242.0 54.0 247.0 57.0Q251.5 59.5 260.5 61.25Q269.5 63.0 290.25 63.5Q311.0 64.0 350.0 64.0Q368.5 64.0 391.75 63.75Q415.0 63.5 444.0 63.5Q493.5 63.0 534.75 62.5Q576.0 62.0 601.25 61.5Q626.5 61.0 628.0 61.0V60.5Q628.0 57.0 624.5 51.0Q621.0 45.0 616.25 39.5Q611.5 34.0 607.0 32.0Q596.5 26.5 596.5 23.0Q596.5 16.5 620.0 16.5Q622.5 16.5 625.0 16.75Q627.5 17.0 630.5 17.0Q633.5 17.0 636.5 17.25Q639.5 17.5 642.0 17.5Q652.0 17.5 661.0 16.5Q670.0 15.5 673.5 14.0Z" fill="black" /></svg>