<svg xmlns="http://www.w3.org/2000/svg" width="417.5" height="392.0" viewBox="0 0 417.5 392.0"><path d="M49.5 250.0Q44.5 247.5 39.25 242.0Q34.0 236.5 31.5 231.5V232.0L26.5 223.5V232.0Q26.5 237.0 25.5 247.25Q24.5 257.5 23.5 266.0L22.0 285.0Q27.0 281.5 31.25 278.25Q35.5 275.0 40.5 271.5Q49.0 265.5 55.0 261.0Q61.0 256.5 61.0 256.0Q61.0 256.0 57.5 254.0Q54.0 252.0 49.5 250.0ZM193.5 263.0Q188.0 256.0 182.5 246.5Q177.0 237.0 176.0 231.0L173.0 218.0Q171.0 220.0 165.0 225.75Q159.0 231.5 152.0 238.5Q145.0 245.5 139.5 251.5Q134.0 257.5 133.0 260.0Q135.5 261.0 145.75 263.5Q156.0 266.0 168.5 269.0Q181.0 272.0 191.25 274.25Q201.5 276.5 205.0 277.0Q204.0 275.0 200.75 271.5Q197.5 268.0 193.5 263.0ZM251.5 260.5H253.0Q256.5 260.5 256.5 258.0Q256.5 255.5 255.75 255.0Q255.0 254.5 253.0 254.0Q252.5 254.0 252.0 254.25Q251.5 254.5 251.0 254.5Q249.5 255.0 249.5 259.0Q249.5 260.5 251.5 260.5ZM255.0 156.5Q258.0 155.0 258.0 152.5Q258.0 150.5 257.0 148.5H256.0Q254.5 148.5 252.0 149.75Q249.5 151.0 249.5 152.0Q249.5 153.5 250.5 155.25Q251.5 157.0 253.5 157.0Q254.5 157.0 255.0 156.5ZM252.5 209.5Q257.0 207.5 258.0 204.5Q257.5 203.5 252.5 201.5Q249.5 202.5 249.5 205.5L250.0 206.0Q250.5 209.0 252.5 209.5ZM313.5 132.5Q290.0 116.5 262.75 106.25Q235.5 96.0 206.5 96.0Q206.5 96.5 206.0 108.25Q205.5 120.0 205.25 138.75Q205.0 157.5 205.0 180.0V261.5Q207.0 263.0 214.5 268.75Q222.0 274.5 229.25 280.0Q236.5 285.5 237.5 285.5Q238.5 285.5 239.0 274.75Q239.5 264.0 239.75 245.75Q240.0 227.5 240.0 205.5Q240.0 182.5 240.5 163.75Q241.0 145.0 242.0 133.75Q243.0 122.5 244.0 122.5Q245.5 122.5 248.5 126.75Q251.5 131.0 255.0 136.5Q258.0 142.0 261.0 144.25Q264.0 146.5 272.0 147.0Q280.0 147.5 297.5 147.5Q314.5 147.5 326.25 148.75Q338.0 150.0 338.0 153.0Q338.0 155.0 327.5 156.5Q317.0 158.0 303.0 158.0Q290.0 158.0 277.5 159.5Q265.0 161.0 262.0 163.5Q251.0 168.5 251.0 178.5Q251.0 185.0 257.5 192.5Q263.0 197.5 270.25 198.75Q277.5 200.0 300.0 200.0Q316.0 200.0 327.25 201.5Q338.5 203.0 338.5 205.5Q338.5 208.0 327.5 209.5Q316.5 211.0 301.5 211.0Q298.0 211.0 295.0 210.75Q292.0 210.5 289.0 210.5Q283.5 210.5 274.25 211.75Q265.0 213.0 257.75 217.0Q250.5 221.0 250.5 229.5Q250.5 237.5 256.25 242.25Q262.0 247.0 269.75 248.75Q277.5 250.5 283.5 250.5Q287.5 250.5 291.75 250.5Q296.0 250.5 301.5 250.0Q307.0 249.5 312.25 249.25Q317.5 249.0 321.0 249.0Q338.5 249.0 338.5 254.5Q338.5 256.5 329.5 258.5Q320.5 260.5 307.5 260.5Q295.5 260.5 283.25 261.75Q271.0 263.0 265.0 265.0Q257.0 268.0 254.5 271.25Q252.0 274.5 251.0 283.0Q251.0 285.0 250.75 286.25Q250.5 287.5 250.5 289.0Q250.5 293.0 253.75 297.0Q257.0 301.0 267.0 307.75Q277.0 314.5 297.5 327.5Q316.5 340.5 331.75 349.5Q347.0 358.5 348.0 358.5Q348.5 358.5 348.5 349.75Q348.5 341.0 348.5 327.0Q348.5 309.0 348.0 285.5Q347.5 262.0 346.75 238.5Q346.0 215.0 344.75 195.75Q343.5 176.5 342.5 167.0Q341.0 158.0 339.25 153.5Q337.5 149.0 332.0 144.5Q326.5 140.0 313.5 132.5ZM263.5 94.5 257.5 86.5Q253.5 81.5 249.5 74.0Q245.5 66.5 243.0 60.5L238.5 49.0L224.5 66.5Q218.0 73.5 213.5 79.0Q209.0 84.5 209.0 85.0Q209.0 85.5 214.25 86.25Q219.5 87.0 227.5 88.0Q235.5 89.0 244.25 90.25Q253.0 91.5 257.5 92.5ZM360.0 51.0Q352.0 50.5 343.75 49.0Q335.5 47.5 332.5 46.5L332.0 46.0Q329.0 45.0 328.5 45.0Q327.5 45.0 327.5 46.5Q327.5 50.0 329.75 59.75Q332.0 69.5 337.0 89.0L338.5 95.0Q347.5 131.5 350.0 131.5Q351.5 131.5 355.5 110.0Q356.5 103.0 360.5 93.25Q364.5 83.5 368.0 75.5Q372.0 68.0 375.0 62.0Q378.0 56.0 378.0 55.5Q378.0 54.5 372.5 53.25Q367.0 52.0 360.0 51.0ZM238.5 26.5 247.5 10.0 251.0 38.5Q253.5 62.5 261.5 74.0Q265.5 80.0 276.5 89.75Q287.5 99.5 300.5 109.5Q313.5 119.5 324.0 126.25Q334.5 133.0 338.0 133.0Q338.0 129.5 335.5 118.5Q333.0 107.5 329.25 94.0Q325.5 80.5 321.75 68.25Q318.0 56.0 315.5 49.5Q310.0 37.0 310.0 32.5V32.0Q310.0 32.0 310.75 31.75Q311.5 31.5 312.0 31.5Q314.5 31.5 323.0 33.0Q331.5 34.5 342.0 37.5Q353.5 40.5 361.0 42.0Q368.5 43.5 375.0 43.5Q381.5 43.5 387.5 41.5Q393.0 40.0 396.75 39.5Q400.5 39.0 402.5 39.0Q407.5 39.0 407.5 42.0Q407.5 46.0 398.5 53.0Q386.5 62.5 377.0 80.5Q367.5 98.5 364.0 120.5Q362.5 130.0 361.0 136.5Q359.5 141.5 359.5 145.0V145.5Q360.5 147.0 362.25 148.25Q364.0 149.5 366.5 151.5Q367.5 152.0 368.5 153.0Q369.5 154.0 370.5 155.0Q379.5 161.5 379.5 166.0Q379.5 167.0 378.5 168.0H379.0Q378.0 169.0 375.5 170.0Q372.0 169.0 368.5 166.0Q365.0 163.5 360.0 163.5Q359.5 164.0 359.0 179.5Q358.5 195.0 358.25 219.5Q358.0 244.0 358.0 272.5Q358.0 285.0 358.25 297.0Q358.5 309.0 358.5 319.0Q358.5 382.0 354.0 382.0Q352.0 382.0 350.75 380.25Q349.5 378.5 349.5 377.5Q349.5 376.0 339.75 369.0Q330.0 362.0 314.75 352.0Q299.5 342.0 282.5 331.5Q265.5 321.0 251.0 312.25Q236.5 303.5 228.0 299.5Q215.0 293.0 195.5 286.75Q176.0 280.5 156.25 276.25Q136.5 272.0 121.5 272.0H118.5Q114.0 272.0 112.0 270.75Q110.0 269.5 110.0 264.5Q110.0 264.0 104.5 264.0Q97.0 264.0 82.5 267.5Q68.0 271.0 53.25 278.0Q38.5 285.0 28.5 296.0H29.0Q24.0 302.5 18.75 306.25Q13.5 310.0 12.0 310.0L11.0 309.0Q10.0 307.0 10.0 303.5Q10.0 299.0 10.75 291.0Q11.5 283.0 12.5 274.0Q13.5 262.0 15.0 244.5Q16.5 227.0 16.5 214.5Q16.5 201.5 17.75 192.5Q19.0 183.5 20.5 183.5Q22.5 183.5 25.5 189.25Q28.5 195.0 30.5 202.0Q32.5 208.5 35.5 216.0Q38.5 223.5 40.5 227.0Q47.0 236.5 64.25 242.75Q81.5 249.0 102.5 249.0Q118.5 249.0 125.0 247.0Q131.5 245.0 141.0 237.0Q147.0 231.5 154.0 222.5Q161.0 213.5 165.0 206.0Q169.5 199.5 173.5 195.0Q177.5 190.5 179.5 190.5H180.0Q182.5 192.0 183.75 198.25Q185.0 204.5 185.0 213.0Q185.5 220.5 187.25 229.0Q189.0 237.5 191.0 242.0Q191.5 242.5 192.0 243.25Q192.5 244.0 192.5 244.0Q194.0 244.0 194.5 229.5Q195.0 215.0 195.0 174.5Q195.0 138.0 194.0 117.25Q193.0 96.5 191.5 94.5Q190.5 94.5 190.5 92.5Q190.5 90.0 196.0 82.5Q201.5 75.0 210.0 66.0H209.5Q218.5 55.0 227.5 43.75Q236.5 32.5 238.5 26.5Z" fill="black" /></svg>