<svg xmlns="http://www.w3.org/2000/svg" width="631.0" height="455.0" viewBox="0 0 631.0 455.0"><path d="M39.5 305.5Q39.5 304.0 37.25 302.5Q35.0 301.0 32.5 299.0Q32.0 298.5 30.0 298.5Q26.0 298.5 26.0 311.5Q26.0 322.0 27.0 322.0Q28.0 322.0 29.0 320.0Q30.0 318.0 32.0 315.5Q35.0 312.0 37.25 309.0Q39.5 306.0 39.5 305.5ZM124.5 267.5H129.5Q135.5 267.0 142.0 260.0Q148.5 253.0 149.0 247.0Q147.5 247.5 143.75 250.25Q140.0 253.0 134.5 258.5Q124.5 267.5 124.5 267.5ZM54.0 133.0V132.0Q53.5 131.0 50.5 129.25Q47.5 127.5 44.0 125.5Q39.0 121.5 38.5 121.5Q36.5 121.5 36.5 133.5Q36.5 144.5 37.5 144.5Q38.0 144.5 45.0 139.0Q47.5 136.0 50.5 134.5Q53.5 133.0 54.0 133.0ZM179.0 207.5Q180.5 205.0 181.75 203.5Q183.0 202.0 183.5 201.0Q181.5 201.5 177.75 203.75Q174.0 206.0 170.0 210.0H170.5Q168.0 212.0 166.75 214.25Q165.5 216.5 165.0 217.5Q167.5 217.5 171.5 214.25Q175.5 211.0 179.0 207.5ZM203.5 257.0Q194.0 248.5 186.0 242.0Q178.0 235.5 176.5 235.5Q173.5 235.5 168.25 241.75Q163.0 248.0 158.75 255.25Q154.5 262.5 154.5 266.0Q160.5 268.0 160.5 274.0Q160.5 276.5 160.0 277.5Q159.0 278.0 159.0 279.5Q159.0 285.5 166.25 289.0Q173.5 292.5 182.25 294.0Q191.0 295.5 196.0 295.5Q207.5 295.5 216.5 287.0L225.5 277.5Q220.5 272.0 214.75 267.25Q209.0 262.5 203.5 257.0ZM196.5 307.0Q196.5 307.0 194.25 306.75Q192.0 306.5 189.5 306.5Q185.5 306.5 185.5 308.5L186.0 309.0Q186.5 311.0 190.5 311.0Q192.5 311.0 194.5 310.0Q196.5 309.0 196.5 307.0ZM257.5 329.5Q255.5 327.0 253.5 317.25Q251.5 307.5 250.5 296.5L249.0 271.5L226.0 296.5Q216.5 305.5 212.25 311.25Q208.0 317.0 208.0 319.0H208.5Q250.5 333.0 257.5 333.0H260.0Q260.0 332.0 259.25 331.5Q258.5 331.0 257.5 329.5ZM305.5 310.5Q302.0 309.0 297.0 305.75Q292.0 302.5 289.5 300.5Q288.0 298.5 286.5 298.5Q285.0 298.5 285.0 317.5V338.5Q288.5 335.0 292.0 331.75Q295.5 328.5 299.0 325.0Q311.0 315.5 312.0 313.5Q311.5 313.0 310.0 312.0Q308.5 311.0 305.5 310.5ZM332.5 267.5 338.0 258.5Q341.0 254.5 341.0 252.0Q341.0 250.5 334.0 250.5Q328.0 250.5 328.0 254.5Q328.0 257.0 328.5 258.5Q330.0 262.0 331.0 264.75Q332.0 267.5 332.5 267.5ZM425.5 293.0 506.5 290.5Q502.0 287.5 490.0 280.0Q478.0 272.5 463.0 263.5Q448.0 254.5 433.25 245.75Q418.5 237.0 408.0 231.5Q397.5 226.0 395.0 226.0Q390.0 226.0 380.0 234.5Q370.0 243.0 359.25 255.0Q348.5 267.0 341.25 278.0Q334.0 289.0 334.0 294.0L335.0 295.0Q357.0 295.0 379.75 294.25Q402.5 293.5 425.5 293.0ZM223.0 139.0Q227.0 133.0 231.25 126.75Q235.5 120.5 237.0 120.0Q236.5 120.0 230.25 124.75Q224.0 129.5 215.75 135.75Q207.5 142.0 200.25 147.75Q193.0 153.5 190.5 156.0Q193.0 156.0 200.5 157.5Q201.5 158.0 205.0 158.0Q210.5 158.0 214.25 154.0Q218.0 150.0 223.0 139.0ZM242.0 202.5Q239.5 201.5 237.5 199.0Q235.5 196.5 233.0 194.5Q226.5 188.5 222.0 184.5Q217.5 180.5 217.0 180.5Q216.5 180.5 212.75 186.0Q209.0 191.5 205.0 200.0Q201.5 205.5 199.5 209.75Q197.5 214.0 197.5 216.5Q197.5 217.5 198.5 217.5Q202.5 217.5 202.5 220.5Q202.5 223.0 199.5 225.5Q199.5 226.0 199.0 226.75Q198.5 227.5 198.5 228.5Q198.5 233.5 214.0 249.0Q223.0 256.5 227.5 260.5Q232.0 264.5 235.0 264.5Q237.5 264.5 239.25 262.75Q241.0 261.0 244.0 259.0Q247.5 255.5 252.25 249.25Q257.0 243.0 260.0 238.0V238.5Q264.0 231.5 264.0 229.0Q264.0 225.0 258.75 219.5Q253.5 214.0 242.0 202.5ZM313.5 125.5H312.0Q309.0 124.5 304.75 122.25Q300.5 120.0 296.5 118.0Q294.5 117.0 292.5 117.0Q291.0 117.0 290.5 120.75Q290.0 124.5 290.0 134.0V151.5L302.5 139.0Q313.5 128.5 313.5 125.5ZM342.5 191.0Q346.5 190.5 346.5 190.5Q346.5 188.5 342.25 185.5Q338.0 182.5 336.0 182.5Q333.5 182.5 333.0 185.0Q331.0 188.0 331.0 189.0Q331.0 191.5 336.5 191.5Q337.5 191.5 339.25 191.5Q341.0 191.5 342.5 191.0ZM276.0 150.5Q276.5 140.5 276.5 132.0Q276.5 123.5 276.5 117.0Q276.5 94.5 275.0 94.5Q272.5 94.5 267.25 100.5Q262.0 106.5 256.0 115.0Q250.0 123.5 245.75 131.25Q241.5 139.0 241.5 142.5V143.5Q242.5 145.5 242.5 148.5Q242.5 150.0 242.0 152.0Q241.5 154.0 239.5 155.0H240.0Q236.5 161.5 236.5 167.0Q236.5 173.0 241.25 179.75Q246.0 186.5 257.0 198.0L280.5 222.0L273.0 249.5Q268.5 262.0 266.5 275.25Q264.5 288.5 264.5 299.0Q264.5 316.0 270.0 324.5Q272.5 324.5 272.5 296.5Q272.5 279.5 274.25 268.5Q276.0 257.5 278.5 257.5Q281.0 257.5 283.0 260.75Q285.0 264.0 285.0 269.0Q285.0 274.0 290.75 280.75Q296.5 287.5 304.0 292.75Q311.5 298.0 316.5 298.0Q322.0 298.0 322.0 293.0Q322.0 288.5 320.25 280.75Q318.5 273.0 314.5 259.5Q312.5 249.5 311.25 243.5Q310.0 237.5 310.0 234.0Q310.0 228.5 313.0 228.5Q315.5 228.5 321.5 233.0Q325.5 235.5 333.5 235.5Q351.5 235.5 371.0 223.0L382.5 214.5L372.0 211.0Q359.0 206.0 344.5 206.0Q336.5 206.0 328.5 207.75Q320.5 209.5 315.0 213.5Q309.0 218.0 305.5 218.0Q302.0 218.0 302.0 213.0Q302.0 206.5 312.5 192.5Q316.5 187.0 321.0 179.0Q325.5 171.0 328.0 166.0Q333.0 151.5 340.5 151.5Q345.5 151.5 345.5 162.5Q345.5 167.5 351.25 174.75Q357.0 182.0 365.5 188.75Q374.0 195.5 382.5 200.25Q391.0 205.0 396.5 205.0Q401.0 205.0 413.5 200.25Q426.0 195.5 442.5 187.75Q459.0 180.0 476.5 171.0Q494.0 162.0 509.25 153.5Q524.5 145.0 534.25 138.75Q544.0 132.5 544.5 130.0V129.5Q543.5 127.0 541.0 125.75Q538.5 124.5 531.25 123.75Q524.0 123.0 508.5 123.0Q488.5 123.0 442.5 124.5Q408.5 125.0 388.0 125.5Q367.5 126.0 356.0 126.75Q344.5 127.5 338.75 129.5Q333.0 131.5 328.0 135.0Q317.5 142.5 307.5 154.75Q297.5 167.0 291.25 179.25Q285.0 191.5 285.0 200.0Q285.0 205.5 283.75 209.5Q282.5 213.5 280.0 213.5Q279.0 213.5 278.0 212.5V213.0Q274.5 211.0 274.5 185.0Q274.5 170.5 276.0 150.5ZM550.0 257.0Q550.0 250.0 549.75 234.5Q549.5 219.0 548.75 201.5Q548.0 184.0 546.5 171.25Q545.0 158.5 542.5 157.0Q539.0 157.5 519.0 166.25Q499.0 175.0 474.0 187.0L411.0 217.5Q416.5 221.0 431.0 229.5Q445.5 238.0 464.0 248.75Q482.5 259.5 500.25 269.75Q518.0 280.0 530.75 286.5Q543.5 293.0 545.5 293.0Q548.0 293.0 549.0 284.75Q550.0 276.5 550.0 257.0ZM585.0 52.0Q586.5 50.0 587.0 48.25Q587.5 46.5 587.5 46.0Q587.5 43.5 582.0 43.25Q576.5 43.0 562.0 43.0H534.0L542.5 67.0Q547.0 78.0 551.0 94.5Q555.0 111.0 556.5 124.5L558.5 149.0Q561.0 138.5 563.75 128.25Q566.5 118.0 568.5 108.5Q572.5 89.5 577.75 73.0Q583.0 56.5 585.0 52.0ZM594.5 21.0Q598.5 16.0 603.5 13.0Q608.5 10.0 610.5 10.0Q621.0 10.0 621.0 18.5Q621.0 24.0 614.0 29.5Q605.0 35.5 596.25 59.0Q587.5 82.5 577.5 125.5Q573.5 143.0 571.0 162.0Q568.5 181.0 567.25 206.75Q566.0 232.5 565.0 270.5Q564.0 298.5 562.5 321.75Q561.0 345.0 559.5 359.0Q558.0 373.0 556.5 373.0Q554.0 373.0 552.25 362.75Q550.5 352.5 550.5 338.0V306.5H453.0Q412.0 306.5 389.5 307.25Q367.0 308.0 355.75 309.75Q344.5 311.5 338.0 315.0Q328.5 319.0 318.25 326.5Q308.0 334.0 301.25 341.5Q294.5 349.0 294.5 353.0Q294.5 354.0 304.5 361.25Q314.5 368.5 328.5 376.5Q351.5 389.5 371.0 403.0Q390.5 416.5 402.25 426.75Q414.0 437.0 414.0 441.5V443.0Q412.0 445.0 410.0 445.0Q404.0 445.0 389.5 433.0Q385.0 429.5 374.5 422.5Q364.0 415.5 351.0 407.0Q338.0 398.5 325.0 390.75Q312.0 383.0 302.0 378.0Q292.0 373.0 288.0 373.0Q283.0 373.0 281.5 377.5Q280.0 382.0 280.0 391.0L279.0 404.5L276.5 405.0L271.5 391.5Q268.5 384.0 268.5 375.0Q268.5 373.5 268.5 371.5Q268.5 369.5 269.0 368.5Q269.0 367.5 269.25 366.75Q269.5 366.0 269.5 365.5Q269.5 357.0 254.75 349.5Q240.0 342.0 212.5 336.5Q196.0 332.5 186.75 327.75Q177.5 323.0 173.5 317.5Q170.0 312.0 165.25 309.75Q160.5 307.5 148.75 307.0Q137.0 306.5 111.0 306.5H56.5Q53.0 312.0 49.25 316.75Q45.5 321.5 41.5 327.0Q35.0 336.0 29.75 345.5Q24.5 355.0 23.5 359.5Q19.0 373.0 14.0 373.0Q11.0 373.0 10.0 363.5Q10.0 359.0 11.5 354.0Q12.5 347.5 13.0 330.75Q13.5 314.0 13.5 297.0Q13.5 277.0 15.75 264.5Q18.0 252.0 20.0 252.0Q23.0 252.0 24.5 255.25Q26.0 258.5 26.0 263.5Q26.0 266.5 28.5 272.5Q31.0 278.5 34.5 282.5Q38.0 287.5 42.5 289.75Q47.0 292.0 58.75 292.5Q70.5 293.0 95.0 293.0Q120.5 293.0 131.75 292.5Q143.0 292.0 143.0 290.5Q141.0 288.5 131.75 285.75Q122.5 283.0 111.0 282.5L80.0 278.0L117.5 253.0Q132.0 243.0 138.25 238.5Q144.5 234.0 144.5 233.0Q141.0 233.0 133.75 231.0Q126.5 229.0 126.5 225.0Q126.5 221.0 145.5 209.0Q153.5 203.5 164.0 196.25Q174.5 189.0 181.5 183.0L195.0 172.5L144.5 167.0L172.0 149.0Q180.5 144.0 185.75 139.5Q191.0 135.0 192.5 133.0Q187.5 132.0 170.75 130.75Q154.0 129.5 132.5 129.5Q111.0 129.5 98.5 129.75Q86.0 130.0 79.5 131.25Q73.0 132.5 69.0 135.25Q65.0 138.0 60.0 142.5H60.5Q55.0 149.0 49.0 158.5Q43.0 168.0 39.0 175.0Q35.0 184.5 30.5 189.5Q26.0 194.5 23.5 194.5Q20.0 194.5 20.0 189.0Q20.0 187.5 20.0 185.5Q20.0 183.5 20.5 181.5Q22.0 177.5 23.0 160.5Q24.0 143.5 24.0 123.5Q24.0 103.0 26.0 89.25Q28.0 75.5 30.0 75.5Q33.0 75.5 34.75 79.0Q36.5 82.5 36.5 87.0Q36.5 90.5 39.25 96.0Q42.0 101.5 45.5 106.0Q48.5 109.0 52.5 111.0Q56.5 113.0 65.25 114.0Q74.0 115.0 90.25 115.5Q106.5 116.0 134.0 117.0L216.0 118.0Q228.0 106.5 244.5 96.5Q257.5 86.0 268.5 76.75Q279.5 67.5 281.5 64.0Q288.5 55.5 293.5 55.5Q296.5 55.5 296.5 60.0Q296.5 63.0 294.5 67.5V67.0Q290.0 75.5 290.0 84.5Q290.0 94.5 299.0 105.0Q304.0 108.5 312.75 110.5Q321.5 112.5 346.0 112.5Q364.0 112.5 394.0 111.25Q424.0 110.0 469.5 108.0Q511.0 106.0 525.75 104.25Q540.5 102.5 540.5 99.0Q540.5 93.5 536.25 83.0Q532.0 72.5 525.75 61.5Q519.5 50.5 514.0 44.5L500.5 30.5H545.5Q571.0 30.5 580.25 28.75Q589.5 27.0 594.5 21.0Z" fill="black" /></svg>