<svg xmlns="http://www.w3.org/2000/svg" width="323.5" height="382.5" viewBox="0 0 323.5 382.5"><path d="M111.0 233.5 129.5 250.0 162.5 217.0H95.0ZM89.5 77.0V75.5Q89.0 67.5 87.5 62.25Q86.0 57.0 85.0 56.5Q83.5 57.0 77.25 63.5Q71.0 70.0 63.0 78.75Q55.0 87.5 49.25 94.5Q43.5 101.5 43.5 103.0Q43.5 102.5 47.0 102.5Q49.0 102.5 51.5 102.25Q54.0 102.0 57.5 101.5Q78.0 98.5 84.25 96.5Q90.5 94.5 90.5 87.5Q90.5 85.0 90.25 82.5Q90.0 80.0 89.5 77.0ZM197.0 172.0 194.0 146.5Q192.5 135.5 191.25 127.75Q190.0 120.0 189.5 119.5Q189.0 119.5 182.5 126.5Q176.0 133.5 167.25 143.5Q158.5 153.5 151.5 163.0Q146.0 169.5 146.0 170.0Q146.0 171.0 151.25 171.25Q156.5 171.5 169.0 172.0ZM62.5 203.0Q62.5 199.5 73.0 199.5Q76.0 199.5 79.75 199.5Q83.5 199.5 87.5 200.5Q97.5 201.5 118.75 202.5Q140.0 203.5 160.0 203.5Q180.5 203.5 195.0 205.0Q209.5 206.5 209.5 209.0Q209.5 211.5 202.75 215.5Q196.0 219.5 186.5 224.0Q171.0 230.0 161.75 236.0Q152.5 242.0 147.75 251.25Q143.0 260.5 141.0 275.5Q139.0 290.5 138.5 314.5Q137.5 339.0 135.25 355.75Q133.0 372.5 130.5 372.5Q128.5 372.5 126.75 357.25Q125.0 342.0 125.0 320.5Q125.0 298.0 124.25 286.5Q123.5 275.0 120.5 268.0Q117.5 261.0 111.5 253.0Q106.5 245.5 97.75 236.25Q89.0 227.0 81.5 222.0Q73.5 216.5 68.0 210.75Q62.5 205.0 62.5 203.0ZM77.5 42.5Q104.0 10.0 110.5 10.0Q113.5 10.0 113.5 14.0Q113.5 17.5 108.0 29.5Q103.5 37.5 102.5 47.5Q101.5 57.5 101.5 66.0Q102.5 75.0 104.75 81.0Q107.0 87.0 113.0 93.25Q119.0 99.5 131.5 110.0L158.5 132.0L183.0 106.0H182.5Q191.5 95.5 199.25 89.0Q207.0 82.5 209.5 82.5Q210.0 82.5 211.0 83.5Q212.0 86.5 212.0 88.0Q212.0 92.5 209.5 97.5Q207.0 101.0 205.75 108.25Q204.5 115.5 204.5 124.0Q204.5 135.0 206.25 145.5Q208.0 156.0 211.5 160.5Q214.0 164.5 230.75 178.0Q247.5 191.5 268.0 207.0Q287.5 220.5 300.5 232.0Q313.5 243.5 313.5 246.0L312.5 247.5H311.0Q307.5 247.5 299.5 243.25Q291.5 239.0 282.5 233.0Q259.0 216.0 245.25 206.5Q231.5 197.0 223.5 192.5Q215.5 188.0 208.5 186.5Q203.5 185.5 198.25 185.25Q193.0 185.0 185.5 184.5Q172.0 184.5 158.25 185.0Q144.5 185.5 131.0 188.0L103.5 192.5L129.5 167.0Q138.0 157.5 144.5 150.25Q151.0 143.0 151.0 142.5Q151.0 141.5 144.25 136.0Q137.5 130.5 128.0 123.5Q117.0 116.0 110.5 113.0Q104.0 110.0 96.0 110.0Q81.5 110.0 65.75 113.75Q50.0 117.5 36.0 121.5Q28.0 124.5 22.25 126.25Q16.5 128.0 13.5 128.0Q10.0 128.0 10.0 124.5Q10.0 120.5 27.5 101.5Q36.5 91.5 51.25 74.0Q66.0 56.5 77.5 42.5Z" fill="black" /></svg>