<svg xmlns="http://www.w3.org/2000/svg" width="528.5" height="382.0" viewBox="0 0 528.5 382.0"><path d="M34.5 255.5Q34.5 254.0 28.5 251.0Q28.0 250.5 27.0 250.5Q23.5 250.5 23.5 261.0Q23.5 269.5 24.0 269.5Q24.5 269.5 28.0 264.5Q34.5 257.0 34.5 255.5ZM105.0 224.5H109.5Q114.5 224.0 119.75 218.25Q125.0 212.5 125.5 207.5Q124.0 208.0 121.25 210.25Q118.5 212.5 114.0 216.5Q105.0 224.0 105.0 224.5ZM46.5 112.0V111.5Q46.0 111.0 43.5 109.5Q41.0 108.0 38.0 106.0Q35.0 103.0 33.5 103.0Q32.0 103.0 32.0 112.5Q32.0 122.0 32.5 122.0Q34.0 122.0 39.0 117.5Q44.5 112.0 46.5 112.0ZM150.5 174.5Q153.0 171.0 154.5 168.5Q153.0 168.5 149.75 171.0Q146.5 173.5 143.0 176.5H143.5Q141.5 178.5 140.5 180.0Q139.5 181.5 139.0 182.5Q141.0 182.5 144.25 180.0Q147.5 177.5 150.5 174.5ZM171.0 215.5Q163.0 208.5 156.25 203.25Q149.5 198.0 148.5 198.0Q146.0 198.0 141.75 203.0Q137.5 208.0 134.0 214.0Q130.5 220.0 130.5 223.0Q135.0 225.0 135.0 229.5Q135.0 231.5 134.5 232.5Q134.0 233.5 134.0 234.5Q134.0 238.5 140.25 242.0Q146.5 245.5 157.5 247.0Q159.5 247.5 161.25 247.5Q163.0 247.5 164.5 247.5Q174.0 247.5 181.5 240.5L189.0 233.0Q185.0 228.5 180.25 224.25Q175.5 220.0 171.0 215.5ZM165.0 257.5Q165.0 257.5 163.25 257.25Q161.5 257.0 159.0 257.0Q156.0 257.0 156.0 258.5L156.5 259.0Q157.5 260.5 160.0 260.5Q165.0 260.5 165.0 257.5ZM216.0 276.0Q214.0 273.5 212.5 265.5Q211.0 257.5 210.5 248.0L209.0 228.0L189.5 248.0Q174.5 263.5 174.5 267.5H175.0Q209.5 278.5 216.0 278.5H218.0Q218.0 278.0 217.5 277.5Q217.0 277.0 216.0 276.0ZM256.0 260.0Q252.5 259.0 248.5 256.25Q244.5 253.5 242.5 251.5Q240.5 250.5 240.5 250.5Q238.5 250.5 238.5 266.0V283.5Q241.5 280.5 244.25 277.75Q247.0 275.0 250.5 272.5Q260.5 264.0 261.0 262.5Q260.0 261.0 256.0 260.0ZM283.0 216.5V217.0Q285.0 213.0 285.0 211.5Q285.0 210.5 280.0 210.5Q274.5 210.5 274.5 213.5Q274.5 215.5 275.0 217.0Q276.0 220.0 276.75 222.25Q277.5 224.5 278.0 224.5ZM355.5 245.5 423.5 243.5Q419.5 241.0 409.5 234.75Q399.5 228.5 387.0 221.0Q374.5 213.5 362.25 206.5Q350.0 199.5 341.25 194.75Q332.5 190.0 330.5 190.0Q326.0 190.0 317.75 197.0Q309.5 204.0 300.75 214.0Q292.0 224.0 286.0 233.0Q280.0 242.0 280.0 246.5L280.5 247.0Q318.0 247.0 355.5 245.5ZM187.5 117.5Q190.5 112.5 194.25 107.25Q198.0 102.0 198.5 101.5Q198.0 101.5 193.0 105.25Q188.0 109.0 181.25 114.5Q174.5 120.0 168.5 124.75Q162.5 129.5 160.0 131.5Q161.0 132.0 163.0 132.0Q165.0 132.0 168.0 133.0Q169.5 133.5 172.0 133.5Q176.5 133.5 179.5 130.25Q182.5 127.0 187.5 117.5ZM203.0 170.5Q201.0 169.0 199.25 167.25Q197.5 165.5 195.5 164.0Q190.0 158.5 186.25 155.0Q182.5 151.5 182.0 151.5Q181.5 151.5 178.75 156.25Q176.0 161.0 172.0 168.0Q166.0 177.5 166.0 181.5Q166.0 182.5 167.0 182.5Q170.5 182.5 170.5 185.0Q170.5 187.0 167.5 189.5Q167.5 190.0 167.25 190.5Q167.0 191.0 167.0 191.5Q167.0 194.5 173.5 201.75Q180.0 209.0 187.25 215.25Q194.5 221.5 197.5 221.5Q199.5 221.5 204.5 217.5Q211.5 210.5 218.0 199.5V200.0Q221.0 194.5 221.0 192.0Q221.0 188.0 203.0 170.5ZM261.0 106.0Q255.0 104.0 248.5 100.0Q246.5 99.0 245.0 99.0Q243.0 99.0 243.0 113.0V128.0L253.5 117.5Q262.5 108.5 262.5 106.5Q262.5 106.5 262.25 106.25Q262.0 106.0 261.0 106.0ZM286.5 160.5Q290.0 160.0 290.0 160.0Q290.0 159.5 286.0 156.0Q284.5 155.0 283.25 154.5Q282.0 154.0 281.0 153.5Q279.0 154.5 278.5 155.5Q277.0 157.5 277.0 159.0Q277.0 161.0 281.5 161.0Q284.5 161.0 286.5 160.5ZM231.0 127.0Q231.5 118.5 231.75 111.5Q232.0 104.5 232.0 99.0Q232.0 80.5 230.5 80.5Q228.5 80.5 224.0 85.5Q219.5 90.5 214.5 97.5Q209.5 104.5 206.0 111.0Q202.5 117.5 202.5 120.5V121.0Q203.5 123.0 203.5 125.0Q203.5 129.0 201.0 131.0H201.5Q198.0 136.0 198.0 141.0Q198.0 149.0 215.0 166.5L235.0 186.5L228.5 209.5Q221.5 231.5 221.5 251.0Q221.5 265.0 226.5 271.5Q228.0 271.5 228.0 248.0Q228.0 234.0 229.75 225.0Q231.5 216.0 233.5 216.0Q236.0 216.0 237.25 218.75Q238.5 221.5 238.5 225.5Q238.5 229.5 243.25 235.5Q248.0 241.5 254.5 245.75Q261.0 250.0 265.0 250.0Q269.5 250.0 269.5 245.5Q269.5 239.5 263.5 218.0Q261.5 209.5 260.5 204.5Q259.5 199.5 259.5 196.5Q259.5 191.5 262.0 191.5Q264.0 191.5 269.0 195.5Q272.0 198.0 279.5 198.0Q286.5 198.0 294.5 195.25Q302.5 192.5 310.5 187.5L320.0 180.5L311.0 177.5Q300.5 173.0 288.5 173.0Q281.5 173.0 275.0 174.5Q268.5 176.0 264.0 179.5Q258.0 183.0 256.0 183.0Q253.0 183.0 253.0 179.0Q253.0 174.5 261.5 162.0Q265.0 157.0 268.75 150.5Q272.5 144.0 274.5 140.0Q278.5 128.0 284.5 128.0Q289.0 128.0 289.0 137.0Q289.0 142.5 297.25 151.0Q305.5 159.5 315.5 166.0Q325.5 172.5 331.5 172.5Q336.0 172.5 349.75 167.0Q363.5 161.5 381.0 153.0Q398.5 144.5 415.25 135.5Q432.0 126.5 443.0 119.5Q454.0 112.5 454.5 110.0V109.5Q454.0 106.5 449.0 105.25Q444.0 104.0 424.5 104.0Q415.5 104.0 402.25 104.25Q389.0 104.5 370.0 105.0Q341.5 105.5 324.25 106.0Q307.0 106.5 297.5 107.5Q288.0 108.5 283.25 110.0Q278.5 111.5 274.5 114.5Q266.0 120.5 257.5 130.75Q249.0 141.0 243.75 151.0Q238.5 161.0 238.5 168.0Q238.5 173.0 237.5 176.25Q236.5 179.5 234.5 179.5Q234.0 179.5 233.0 178.5V179.0Q230.0 177.5 230.0 155.5Q230.0 150.0 230.25 142.5Q230.5 135.0 231.0 127.0ZM459.0 215.5Q459.0 210.0 458.75 197.0Q458.5 184.0 458.0 169.5Q457.5 155.0 456.25 144.25Q455.0 133.5 453.5 132.5Q450.0 133.0 433.25 140.25Q416.5 147.5 396.0 157.5L344.0 182.5Q348.5 185.0 360.5 192.25Q372.5 199.5 388.0 208.5Q403.5 217.5 418.25 226.0Q433.0 234.5 443.25 240.0Q453.5 245.5 455.5 245.5Q457.5 245.5 458.25 238.75Q459.0 232.0 459.0 215.5ZM488.5 45.0Q490.5 41.5 490.5 40.0Q490.5 38.5 486.0 38.25Q481.5 38.0 469.5 38.0H446.0L453.5 57.5Q457.0 66.5 460.25 80.25Q463.5 94.0 464.5 105.0L466.5 125.5Q469.0 117.0 470.75 108.5Q472.5 100.0 474.5 92.0Q478.5 76.0 482.5 62.25Q486.5 48.5 488.5 45.0ZM496.5 19.0Q500.0 15.0 504.0 12.5Q508.0 10.0 510.0 10.0Q518.5 10.0 518.5 17.0Q518.5 22.0 512.5 26.0Q505.0 31.0 497.75 51.0Q490.5 71.0 482.0 106.5Q479.0 121.0 476.75 136.75Q474.5 152.5 473.5 174.0Q472.5 195.5 471.5 227.0Q471.0 250.0 469.75 269.5Q468.5 289.0 467.25 300.5Q466.0 312.0 464.5 312.0Q462.5 312.0 461.0 303.5Q459.5 295.0 459.5 283.0V257.0H378.5Q344.5 257.0 325.75 257.5Q307.0 258.0 297.75 259.5Q288.5 261.0 283.0 264.0Q275.0 267.5 266.5 273.75Q258.0 280.0 252.25 286.0Q246.5 292.0 246.5 295.0Q246.5 296.5 255.0 302.5Q263.5 308.5 275.0 315.0Q294.5 326.0 310.5 337.25Q326.5 348.5 336.25 357.0Q346.0 365.5 346.0 369.0V370.5Q344.5 372.0 343.0 372.0Q340.5 372.0 335.75 369.25Q331.0 366.5 325.5 362.0Q321.0 358.5 309.0 350.5Q297.0 342.5 283.0 333.5Q269.0 324.5 257.25 318.0Q245.5 311.5 241.0 311.5Q234.5 311.5 234.5 327.0L234.0 338.0L232.0 338.5L227.5 327.5Q225.0 321.0 225.0 314.0Q225.0 309.5 225.5 308.0Q225.5 307.5 225.75 307.0Q226.0 306.5 226.0 306.0Q226.0 299.0 213.75 292.75Q201.5 286.5 178.5 281.5Q164.5 278.5 157.0 274.75Q149.5 271.0 146.0 266.0Q143.0 261.5 139.25 259.75Q135.5 258.0 125.5 257.5Q115.5 257.0 94.0 257.0H48.5Q45.5 261.5 42.5 265.5Q39.5 269.5 36.5 274.0Q31.0 281.5 26.5 289.25Q22.0 297.0 21.0 301.0Q18.0 312.0 13.5 312.0Q11.0 312.0 10.0 304.0Q10.0 301.5 11.0 296.5Q12.0 291.0 12.5 277.0Q13.0 263.0 13.0 249.0Q13.0 232.5 14.75 222.0Q16.5 211.5 18.5 211.5Q23.5 211.5 23.5 221.0Q23.5 228.0 30.5 237.0Q33.5 241.0 37.0 242.75Q40.5 244.5 50.25 245.0Q60.0 245.5 80.5 245.5Q102.0 245.5 111.25 245.0Q120.5 244.5 120.5 243.5Q118.5 242.0 111.0 239.75Q103.5 237.5 94.0 237.0L68.0 233.5L99.5 212.0Q122.0 197.0 122.0 195.5Q119.0 195.5 113.0 194.0Q107.0 192.5 107.0 189.0Q107.0 185.0 123.0 175.5Q129.5 171.5 138.25 165.25Q147.0 159.0 153.0 154.5L164.0 145.0L122.0 141.0L145.0 125.5Q159.0 117.0 162.0 112.0Q158.5 111.0 144.25 110.25Q130.0 109.5 111.5 109.5Q88.0 109.5 77.25 110.0Q66.5 110.5 61.75 112.75Q57.0 115.0 51.5 120.5H52.0Q47.0 125.5 42.0 133.5Q37.0 141.5 34.0 147.5Q27.0 164.0 21.0 164.0Q18.0 164.0 18.0 159.0Q18.0 158.0 18.25 156.25Q18.5 154.5 19.0 152.5Q20.0 149.0 20.75 135.0Q21.5 121.0 21.5 104.5Q21.5 87.0 23.25 75.75Q25.0 64.5 27.0 64.5Q29.5 64.5 30.75 67.25Q32.0 70.0 32.0 74.0Q32.0 77.0 34.25 81.5Q36.5 86.0 39.5 90.0Q43.0 93.5 48.5 95.25Q54.0 97.0 68.5 97.5Q83.0 98.0 113.5 99.0L181.0 100.0Q186.5 95.0 192.5 90.5Q198.5 86.0 205.0 81.5Q216.0 73.0 225.0 65.5Q234.0 58.0 236.0 55.0Q242.5 48.0 245.5 48.0Q248.5 48.0 248.5 51.5Q248.5 54.0 246.5 58.0V57.5Q243.0 65.0 243.0 72.0Q243.0 81.5 250.5 89.0Q254.5 92.0 262.0 93.5Q269.5 95.0 289.5 95.0Q304.5 95.0 329.5 94.25Q354.5 93.5 392.5 91.5Q427.0 90.0 439.0 88.5Q451.0 87.0 451.0 84.5Q451.0 79.5 447.5 70.75Q444.0 62.0 439.0 52.75Q434.0 43.5 429.5 38.5L418.0 27.0H455.5Q477.0 27.0 484.5 25.5Q492.0 24.0 496.5 19.0Z" fill="black" /></svg>