<svg xmlns="http://www.w3.org/2000/svg" width="917.0" height="455.5" viewBox="0 0 917.0 455.5"><path d="M132.0 335.0 118.0 328.5Q109.5 325.5 97.5 318.5Q85.5 311.5 78.0 305.5L63.0 294.5L54.5 324.5Q51.5 335.0 49.75 344.25Q48.0 353.5 47.5 357.0Q52.5 357.0 59.5 353.0Q65.5 350.5 78.75 346.75Q92.0 343.0 106.5 340.5ZM151.0 144.0Q151.0 143.0 146.75 139.0Q142.5 135.0 136.0 129.5L122.0 119.0L118.0 137.5Q113.5 149.0 112.5 155.5Q117.0 155.0 126.25 152.75Q135.5 150.5 143.25 147.75Q151.0 145.0 151.0 144.0ZM285.0 206.0H271.5Q263.5 206.0 254.75 204.75Q246.0 203.5 240.0 201.5H240.5Q238.0 201.0 236.25 200.75Q234.5 200.5 232.0 200.0Q232.0 201.0 234.0 205.0Q235.0 208.5 238.5 217.5Q242.0 226.5 246.0 236.5L255.0 263.0ZM422.5 209.0Q406.0 203.5 394.5 199.25Q383.0 195.0 381.0 194.5Q379.0 195.0 377.5 204.0Q376.0 213.0 375.25 222.75Q374.5 232.5 374.5 236.5Q376.0 236.5 383.75 234.75Q391.5 233.0 400.0 230.5Q405.5 229.5 411.0 227.75Q416.5 226.0 421.5 225.0Q428.5 223.5 434.5 221.75Q440.5 220.0 444.0 219.5Q446.5 218.5 448.5 218.5Q450.5 218.5 451.5 218.5Q449.5 218.0 442.75 215.25Q436.0 212.5 422.5 209.0ZM744.5 173.0Q744.5 173.5 743.5 173.5Q741.5 173.5 730.75 179.25Q720.0 185.0 706.5 193.25Q693.0 201.5 681.75 208.75Q670.5 216.0 667.0 219.5Q661.5 225.0 652.5 227.0Q656.5 229.0 668.0 233.0Q679.5 237.0 691.5 240.0Q703.5 243.0 708.5 243.0Q712.5 243.0 712.5 231.0Q712.5 224.0 717.25 213.0Q722.0 202.0 729.0 193.0Q735.5 186.0 739.75 180.5Q744.0 175.0 744.5 173.0ZM815.0 156.5Q813.0 145.5 810.75 137.5Q808.5 129.5 807.5 129.5Q806.0 129.5 799.0 136.0Q792.0 142.5 782.25 152.75Q772.5 163.0 762.5 174.75Q752.5 186.5 745.0 197.5Q736.5 207.0 731.75 220.25Q727.0 233.5 727.0 242.0Q727.0 249.5 730.5 249.5Q735.5 249.5 735.5 257.0V261.5L734.5 262.0Q736.0 270.0 756.5 289.5Q774.0 304.0 789.5 319.75Q805.0 335.5 815.0 347.5Q825.0 359.5 825.0 362.5Q825.0 363.0 826.5 363.0Q828.0 363.0 829.0 363.0Q831.0 363.0 832.0 353.75Q833.0 344.5 833.0 328.5Q833.0 305.5 830.5 274.75Q828.0 244.0 824.0 212.5Q820.0 181.0 815.0 156.5ZM256.5 107.0Q257.5 107.0 261.5 101.75Q265.5 96.5 270.0 89.5Q274.5 82.5 277.75 76.5Q281.0 70.5 281.0 69.0H259.0L239.0 70.5L246.0 88.5Q248.5 91.5 250.0 95.0Q253.0 100.0 254.5 103.5Q256.0 107.0 256.5 107.0ZM451.5 44.5Q451.5 42.0 450.0 42.0Q447.5 42.0 442.25 47.5Q437.0 53.0 431.5 64.0V63.0L420.0 84.5L435.5 86.0Q444.5 88.0 456.25 90.0Q468.0 92.0 477.5 94.5L491.5 97.0L474.0 77.0H475.0Q465.0 66.5 458.25 56.75Q451.5 47.0 451.5 44.5ZM865.5 87.5 875.0 69.5H799.5L805.0 78.5Q808.5 83.5 814.0 98.75Q819.5 114.0 823.0 130.0Q832.5 172.5 835.0 172.5Q837.5 172.5 844.0 146.5Q848.5 131.0 854.75 113.25Q861.0 95.5 865.5 87.5ZM428.0 326.0H398.5Q381.5 326.0 366.0 325.0Q350.5 324.0 345.0 322.5Q343.0 321.5 341.25 321.5Q339.5 321.5 338.5 321.5Q336.0 321.5 336.0 323.0Q336.0 325.5 337.5 331.0Q339.0 336.5 341.0 345.0Q343.5 352.5 346.0 359.75Q348.5 367.0 349.0 370.5Q349.0 372.5 350.5 372.5Q353.0 372.5 360.0 366.0Q366.0 360.5 378.75 352.25Q391.5 344.0 405.5 337.0ZM198.0 54.5V53.0H198.5Q199.5 52.0 209.0 51.25Q218.5 50.5 233.0 50.0Q247.5 49.5 263.0 49.5Q278.5 49.5 292.25 50.0Q306.0 50.5 314.75 51.75Q323.5 53.0 323.5 54.5Q323.5 57.5 319.5 61.5Q315.5 65.5 311.0 67.5Q305.0 70.0 296.75 79.0Q288.5 88.0 282.5 98.5Q275.5 108.0 272.0 115.75Q268.5 123.5 267.0 132.75Q265.5 142.0 264.5 156.5V189.0H289.0Q318.0 189.0 318.0 197.5Q318.0 202.0 306.5 210.0Q300.5 213.5 293.25 224.75Q286.0 236.0 279.25 251.0Q272.5 266.0 268.25 280.25Q264.0 294.5 264.0 304.5Q264.0 318.5 266.25 322.0Q268.5 325.5 279.5 327.5Q289.0 330.0 299.5 330.5Q310.0 331.0 320.5 331.0Q320.5 330.0 318.75 325.75Q317.0 321.5 314.0 316.5Q312.0 312.0 311.5 308.25Q311.0 304.5 310.5 302.0Q311.0 299.5 312.5 297.25Q314.0 295.0 316.0 295.0Q319.5 295.0 324.5 296.5Q329.5 298.0 336.5 300.5Q348.0 304.5 368.5 306.75Q389.0 309.0 412.5 309.0Q440.0 309.0 467.5 306.25Q495.0 303.5 511.5 298.5Q539.5 289.5 567.0 282.5Q594.5 275.5 616.0 271.25Q637.5 267.0 647.5 267.0Q656.5 267.0 656.5 271.0Q656.5 275.5 649.5 279.0Q642.5 282.5 634.0 283.5Q618.5 286.0 594.5 291.75Q570.5 297.5 542.75 306.0Q515.0 314.5 486.5 324.5Q458.0 334.5 432.5 345.75Q407.0 357.0 388.0 368.25Q369.0 379.5 360.0 390.5Q355.0 397.5 349.5 402.25Q344.0 407.0 341.5 407.0Q340.0 404.5 338.0 395.5Q336.0 386.5 334.0 375.5L328.5 350.0L301.0 347.0Q291.5 346.5 283.5 346.25Q275.5 346.0 271.5 346.0H268.0Q266.5 346.5 265.25 359.25Q264.0 372.0 264.0 388.5Q264.0 409.5 261.75 422.0Q259.5 434.5 256.5 434.5Q253.5 434.5 251.75 420.75Q250.0 407.0 250.0 386.0V342.0H231.5Q213.0 342.0 186.5 344.0Q160.0 346.0 131.75 351.0Q103.5 356.0 78.75 364.25Q54.0 372.5 39.0 385.0Q21.0 403.0 14.0 403.0Q10.0 403.0 10.0 397.5Q10.0 395.0 13.25 388.75Q16.5 382.5 20.0 375.5Q27.0 363.5 35.5 337.0Q44.0 310.5 50.5 277.0L54.5 258.5L76.0 282.0Q100.0 303.5 131.5 315.5Q163.0 327.5 195.5 327.5Q201.0 327.5 207.5 327.0Q214.0 326.5 221.0 326.5L250.5 326.0L247.5 302.5Q242.0 268.0 233.0 242.75Q224.0 217.5 212.5 205.0Q205.0 198.0 200.25 192.25Q195.5 186.5 195.5 185.0Q195.5 181.5 202.5 181.5Q206.5 181.5 212.25 182.0Q218.0 182.5 224.5 183.0L250.0 185.0L247.5 154.0H211.0Q174.0 156.0 148.75 162.75Q123.5 169.5 108.5 183.5Q103.5 190.5 97.75 194.75Q92.0 199.0 90.5 199.0H88.0V195.0Q88.0 190.0 91.5 176.5Q95.0 163.0 99.5 146.0Q106.0 125.5 109.25 109.75Q112.5 94.0 112.5 90.5Q112.5 80.5 118.0 80.5Q124.0 80.5 134.0 100.0Q141.5 116.5 153.75 123.5Q166.0 130.5 181.25 132.0Q196.5 133.5 212.5 133.5L248.0 132.0L240.0 109.0Q235.0 95.0 229.0 86.25Q223.0 77.5 214.5 71.0Q198.0 61.5 198.0 54.5ZM767.0 57.0Q767.0 55.5 776.75 54.0Q786.5 52.5 802.25 51.75Q818.0 51.0 836.5 51.0H857.0Q883.0 51.0 895.0 52.5Q907.0 54.0 907.0 58.0Q907.0 62.5 897.0 67.0Q891.0 69.0 882.25 85.25Q873.5 101.5 865.5 125.75Q857.5 150.0 852.0 176.0Q849.5 189.5 847.5 201.5Q845.5 213.5 844.75 227.5Q844.0 241.5 844.0 261.5Q844.0 275.5 844.5 292.75Q845.0 310.0 845.5 333.5Q846.5 351.5 846.5 367.0Q846.5 382.5 846.5 394.5Q846.5 422.0 845.0 433.75Q843.5 445.5 840.5 445.5Q833.0 445.5 833.0 407.0Q833.0 388.5 831.25 382.0Q829.5 375.5 825.5 375.5Q823.5 375.5 816.25 369.25Q809.0 363.0 802.0 355.0Q793.0 343.0 777.75 328.25Q762.5 313.5 744.0 298.5Q725.5 283.5 707.75 271.0Q690.0 258.5 675.75 250.75Q661.5 243.0 655.0 243.0Q652.0 243.0 644.25 242.0Q636.5 241.0 628.0 239.0Q619.5 237.0 613.5 234.0Q607.5 231.0 607.5 227.0Q607.5 225.0 608.5 224.0Q598.0 224.0 576.75 225.0Q555.5 226.0 528.75 228.0Q502.0 230.0 474.0 233.75Q446.0 237.5 421.5 242.5Q397.0 247.5 380.5 254.5Q364.0 261.5 360.0 270.5Q359.0 277.0 354.5 277.0Q352.5 277.0 352.0 274.5Q349.0 273.5 349.0 267.5Q349.0 261.0 352.0 253.0Q355.0 248.0 357.5 234.75Q360.0 221.5 362.0 210.0Q364.5 185.0 366.75 175.0Q369.0 165.0 373.0 165.0Q375.5 165.0 378.25 167.5Q381.0 170.0 385.0 174.0Q404.5 188.5 427.25 195.5Q450.0 202.5 474.5 204.5Q499.0 206.5 522.5 206.5H561.5L656.5 206.0Q660.5 203.5 668.75 198.5Q677.0 193.5 687.0 187.5Q697.0 181.5 705.5 176.25Q714.0 171.0 718.0 168.5Q735.5 157.5 751.5 147.5Q767.5 137.5 779.0 129.75Q790.5 122.0 794.0 118.5H793.0L804.0 107.0Q801.5 102.5 795.75 94.0Q790.0 85.5 784.5 77.5Q779.0 69.5 775.5 67.5Q772.5 65.5 769.75 62.5Q767.0 59.5 767.0 57.0ZM426.5 42.0Q433.5 28.0 439.75 19.0Q446.0 10.0 447.5 10.0Q450.5 10.0 453.0 14.25Q455.5 18.5 457.0 25.0Q458.5 30.5 468.75 44.25Q479.0 58.0 491.5 72.5Q502.0 83.0 511.25 90.75Q520.5 98.5 531.5 105.75Q542.5 113.0 558.25 121.5Q574.0 130.0 597.0 142.0Q629.0 159.0 650.5 171.75Q672.0 184.5 672.0 187.0Q672.0 189.5 671.5 191.75Q671.0 194.0 668.0 194.0Q664.0 194.0 650.25 187.5Q636.5 181.0 603.0 164.5Q544.0 135.0 500.5 119.75Q457.0 104.5 429.0 104.5Q422.5 104.5 417.0 105.25Q411.5 106.0 407.5 108.5Q402.5 110.0 398.75 110.5Q395.0 111.0 392.5 111.0Q387.0 111.0 387.0 106.0Q387.0 103.0 390.25 98.5Q393.5 94.0 398.5 87.5Q405.0 80.5 412.75 67.25Q420.5 54.0 426.5 42.0Z" fill="black" /></svg>