<svg xmlns="http://www.w3.org/2000/svg" width="816.0" height="458.5" viewBox="0 0 816.0 458.5"><path d="M80.0 336.0Q80.0 335.0 74.0 330.75Q68.0 326.5 60.5 321.5L40.5 309.5L36.0 336.5L29.5 361.5Q36.5 359.0 42.25 356.25Q48.0 353.5 54.0 350.5Q64.0 345.5 72.0 341.0Q80.0 336.5 80.0 336.0ZM74.0 250.0Q82.5 247.0 82.5 246.5Q82.5 245.5 69.5 235.0Q63.5 231.0 59.75 228.5Q56.0 226.0 53.5 226.0Q50.0 226.0 47.75 232.5Q45.5 239.0 42.5 253.5V253.0Q41.5 259.5 41.25 263.25Q41.0 267.0 40.5 269.5Q41.0 270.0 41.0 271.0Q41.0 272.0 41.0 272.0Q41.5 272.0 43.5 270.0Q45.5 268.0 48.5 266.0Q52.5 262.0 60.25 257.0Q68.0 252.0 74.0 250.0ZM74.0 181.0 91.0 172.0 75.0 160.0Q69.0 155.5 64.5 152.5Q60.0 149.5 58.5 149.0Q58.0 151.0 56.25 157.25Q54.5 163.5 52.0 170.0Q50.5 175.0 49.75 178.25Q49.0 181.5 49.0 184.5Q49.0 189.5 53.5 189.5Q59.5 189.5 74.0 181.0ZM304.5 196.5Q286.5 187.5 278.0 184.0Q269.5 180.5 267.0 180.5Q266.5 180.5 266.5 181.0V185.0Q266.5 187.5 266.0 193.0Q265.5 198.5 264.5 205.5Q264.0 210.0 263.5 214.25Q263.0 218.5 262.5 222.5L259.5 248.5Q265.0 245.0 270.25 241.25Q275.5 237.5 280.5 234.5Q290.5 228.5 303.25 222.25Q316.0 216.0 322.5 214.5Q333.0 211.5 333.0 211.5Q333.0 210.0 304.5 196.5ZM98.0 85.5Q98.0 85.0 93.0 81.25Q88.0 77.5 81.25 72.75Q74.5 68.0 68.5 64.25Q62.5 60.5 60.0 60.5Q56.0 60.5 54.25 67.75Q52.5 75.0 50.0 92.5L48.0 111.0L72.0 100.0Q83.0 95.0 90.5 90.5Q98.0 86.0 98.0 85.5ZM651.5 138.0Q654.0 133.0 654.0 131.0Q654.0 131.0 654.0 130.75Q654.0 130.5 653.0 130.5Q647.0 130.5 618.5 152.0Q606.0 161.0 587.75 171.75Q569.5 182.5 557.0 189.0L530.5 203.0L543.0 205.5Q551.5 208.0 565.25 212.75Q579.0 217.5 593.0 222.5Q603.0 227.5 610.5 230.75Q618.0 234.0 620.0 234.5Q620.5 231.5 620.75 224.75Q621.0 218.0 621.5 210.0Q622.5 199.5 626.5 186.5Q630.5 173.5 635.5 166.5Q641.0 159.0 645.75 150.5Q650.5 142.0 651.5 138.0ZM354.0 58.5 348.0 54.5Q320.0 39.0 316.5 39.0Q315.5 39.5 315.0 40.5Q314.5 41.5 313.5 42.5V43.5Q312.0 48.0 308.5 58.5Q305.0 69.0 302.25 79.25Q299.5 89.5 299.0 94.5Q301.5 94.0 309.25 91.5Q317.0 89.0 325.5 85.5Q340.0 81.5 353.5 79.0Q367.0 76.5 382.0 76.5Q381.5 76.0 375.0 71.5Q368.5 67.0 354.0 58.5ZM266.5 329.0Q254.0 324.0 247.25 322.25Q240.5 320.5 237.5 320.5Q235.0 320.5 235.0 320.0Q235.0 322.5 246.5 332.5Q249.0 335.5 250.5 338.5Q252.0 341.5 252.0 344.0Q252.0 345.5 250.75 347.0Q249.5 348.5 248.5 350.0Q245.0 351.5 245.0 364.5Q245.0 368.0 245.5 373.25Q246.0 378.5 247.0 384.0L249.5 412.0Q268.0 397.0 287.75 382.5Q307.5 368.0 329.0 357.5L354.0 346.5L327.0 342.5Q313.5 340.0 295.75 336.25Q278.0 332.5 266.5 329.0ZM301.5 21.5Q301.5 10.0 306.5 10.0Q309.5 10.0 315.5 14.0Q321.5 18.0 332.0 26.0Q355.5 43.0 383.25 56.0Q411.0 69.0 447.25 78.5Q483.5 88.0 531.5 95.0Q557.5 98.5 579.75 102.25Q602.0 106.0 616.75 109.0Q631.5 112.0 634.0 113.5Q634.5 114.0 636.5 114.0Q642.0 114.0 652.25 109.0Q662.5 104.0 673.25 96.5Q684.0 89.0 691.25 81.5Q698.5 74.0 698.5 69.5Q698.5 64.5 701.25 61.5Q704.0 58.5 706.5 58.5Q713.5 58.5 713.5 66.5Q713.5 78.0 697.0 100.0Q691.0 105.5 681.25 120.0Q671.5 134.5 661.25 152.25Q651.0 170.0 644.0 185.75Q637.0 201.5 637.0 209.5Q637.0 212.5 638.25 219.0Q639.5 225.5 641.75 231.0Q644.0 236.5 646.5 236.5Q649.0 236.5 652.75 242.0Q656.5 247.5 659.5 254.0Q661.5 260.5 673.5 273.25Q685.5 286.0 699.5 297.0Q719.5 311.0 738.5 326.5Q757.5 342.0 772.75 356.25Q788.0 370.5 797.0 380.75Q806.0 391.0 806.0 394.5Q806.0 398.5 803.0 398.5Q799.5 398.5 790.75 391.75Q782.0 385.0 769.0 373.0Q736.5 343.5 712.5 324.25Q688.5 305.0 683.0 304.5V304.0Q683.0 307.5 667.25 312.25Q651.5 317.0 628.5 320.0Q553.5 330.0 498.75 338.75Q444.0 347.5 405.25 356.5Q366.5 365.5 340.0 375.0Q313.5 384.5 295.5 396.25Q277.5 408.0 264.0 423.0Q254.0 434.0 246.75 441.25Q239.5 448.5 238.5 448.5Q237.0 448.5 235.25 439.0Q233.5 429.5 233.5 417.0Q233.5 404.0 232.5 390.0Q231.5 376.0 229.5 368.5L226.5 350.5H156.5Q129.0 350.5 110.25 351.75Q91.5 353.0 78.5 356.5Q65.5 360.0 55.0 367.0Q44.5 374.0 32.5 385.5Q26.0 391.0 20.0 394.75Q14.0 398.5 12.5 398.5H11.5Q10.0 397.0 10.0 393.0Q10.0 389.5 11.25 382.0Q12.5 374.5 14.0 366.0Q17.0 354.5 19.5 336.25Q22.0 318.0 22.5 304.0Q24.0 289.5 25.75 268.75Q27.5 248.0 28.5 233.5Q29.0 219.0 31.5 200.75Q34.0 182.5 37.5 172.5Q38.5 166.0 39.0 161.0Q39.5 156.0 39.5 153.0V152.0Q38.5 152.0 37.5 152.25Q36.5 152.5 35.5 152.5Q29.5 152.5 29.5 138.5Q29.5 134.0 31.0 122.0Q32.5 110.0 34.75 95.0Q37.0 80.0 39.5 65.25Q42.0 50.5 44.5 40.25Q47.0 30.0 48.5 28.5H49.5Q52.0 28.5 57.5 32.25Q63.0 36.0 69.0 41.5Q82.5 54.5 94.75 62.75Q107.0 71.0 121.0 75.75Q135.0 80.5 153.75 82.25Q172.5 84.0 199.5 84.0Q229.5 84.0 248.0 85.75Q266.5 87.5 266.5 91.5Q266.5 95.0 244.5 97.5Q222.5 100.0 185.0 100.0Q123.5 100.0 94.0 106.0Q64.5 112.0 64.5 125.0Q64.5 128.5 72.0 136.25Q79.5 144.0 89.5 151.0Q98.5 157.5 105.0 161.25Q111.5 165.0 119.75 166.75Q128.0 168.5 141.75 169.0Q155.5 169.5 178.5 169.5Q207.0 169.5 224.5 171.5Q242.0 173.5 242.0 177.5Q242.0 180.0 223.75 182.5Q205.5 185.0 174.0 185.0Q124.0 185.0 94.25 190.75Q64.5 196.5 64.5 206.5Q64.5 208.5 71.25 214.75Q78.0 221.0 86.5 228.0Q96.5 234.5 105.0 237.75Q113.5 241.0 128.5 241.75Q143.5 242.5 172.0 242.5Q200.5 242.5 218.5 244.75Q236.5 247.0 236.5 250.0Q236.5 253.5 217.75 255.75Q199.0 258.0 169.0 258.0Q134.5 258.0 113.5 259.75Q92.5 261.5 79.25 266.25Q66.0 271.0 55.5 280.0Q48.5 287.0 48.5 289.5Q48.5 292.5 56.0 300.5H55.5Q72.0 317.5 99.5 325.75Q127.0 334.0 172.0 334.0H226.5L221.5 318.5Q219.0 309.5 219.0 305.0Q219.0 298.5 224.5 298.5Q231.0 298.5 254.5 308.0Q268.0 312.5 287.25 317.0Q306.5 321.5 327.5 325.5Q348.5 329.5 367.5 331.75Q386.5 334.0 399.0 334.0Q405.5 334.0 423.5 332.25Q441.5 330.5 466.5 327.25Q491.5 324.0 519.5 320.25Q547.5 316.5 574.25 312.5Q601.0 308.5 622.75 304.75Q644.5 301.0 656.5 298.5L671.5 294.5L647.0 276.0Q627.5 261.5 612.5 252.25Q597.5 243.0 583.0 237.5Q568.5 232.0 550.5 229.25Q532.5 226.5 506.5 225.75Q480.5 225.0 442.5 225.0Q405.0 225.0 380.0 225.5Q355.0 226.0 338.75 228.25Q322.5 230.5 311.25 234.75Q300.0 239.0 290.25 246.75Q280.5 254.5 268.0 266.0Q260.0 272.5 253.75 277.5Q247.5 282.5 245.0 282.5L243.0 282.0V278.5Q243.0 274.5 244.25 261.25Q245.5 248.0 247.0 232.0Q248.5 219.0 249.0 205.5Q249.5 192.0 249.5 182.5V170.0Q249.0 166.5 248.75 164.25Q248.5 162.0 248.5 160.5Q248.5 152.0 254.0 152.0Q261.5 152.0 278.5 164.5V164.0Q305.5 179.0 328.5 188.25Q351.5 197.5 376.25 201.75Q401.0 206.0 432.0 206.0Q452.5 206.0 471.5 203.75Q490.5 201.5 504.5 196.5Q513.0 193.0 527.75 185.75Q542.5 178.5 559.25 169.25Q576.0 160.0 591.25 151.0Q606.5 142.0 616.0 135.75Q625.5 129.5 625.5 128.0Q625.5 126.5 611.75 123.5Q598.0 120.5 575.75 116.75Q553.5 113.0 526.75 109.5Q500.0 106.0 473.25 103.0Q446.5 100.0 424.25 98.0Q402.0 96.0 389.0 96.0Q367.5 96.0 353.75 97.0Q340.0 98.0 330.0 101.0Q320.0 104.0 309.5 109.5Q298.5 114.5 289.75 117.75Q281.0 121.0 278.5 121.0H276.5V118.0Q276.5 115.0 279.5 102.25Q282.5 89.5 288.0 74.0Q293.5 56.0 297.5 41.25Q301.5 26.5 301.5 21.5Z" fill="black" /></svg>