<svg xmlns="http://www.w3.org/2000/svg" width="532.5" height="384.5" viewBox="0 0 532.5 384.5"><path d="M62.5 287.5Q54.5 283.0 48.5 280.0Q42.5 277.0 40.0 276.0Q40.0 280.0 40.0 289.0Q40.0 298.0 40.5 309.0Q41.5 322.0 42.25 332.25Q43.0 342.5 43.0 342.5Q44.0 342.5 48.25 340.5Q52.5 338.5 58.0 335.5Q63.5 333.0 79.5 328.5Q95.5 324.0 111.5 321.5Q122.0 319.0 131.0 317.0Q140.0 315.0 145.5 314.0Q149.0 313.5 148.5 313.5Q148.0 313.5 148.0 313.5Q144.0 312.5 136.5 311.0Q129.0 309.5 119.5 307.5Q106.0 303.5 89.0 297.5Q72.0 291.5 62.5 287.5ZM161.0 236.0 184.0 228.5 177.5 226.5Q171.5 224.5 165.25 222.75Q159.0 221.0 153.5 219.0Q149.5 216.5 145.25 213.75Q141.0 211.0 136.5 207.5V247.0Q139.5 245.5 145.5 242.5Q151.5 239.5 161.0 236.0ZM105.5 29.0Q105.5 29.0 96.0 29.0Q86.5 29.0 73.5 28.5L43.0 27.0L51.0 42.0L58.0 60.5Q58.5 62.0 61.25 71.5Q64.0 81.0 66.0 88.5L69.5 103.0L79.5 80.0Q84.0 68.5 89.25 57.0Q94.5 45.5 98.0 40.5Q100.5 36.5 103.0 32.75Q105.5 29.0 105.5 29.0ZM161.0 167.0 183.5 161.0 140.5 143.0Q141.0 145.0 141.5 148.0Q142.0 151.0 142.0 155.0V158.0L139.5 176.5ZM289.0 171.5V168.5H210.0Q185.5 172.5 173.5 175.75Q161.5 179.0 156.5 182.0Q151.5 185.0 148.0 189.0Q146.0 191.0 144.75 192.5Q143.5 194.0 143.5 195.0Q143.5 196.0 152.0 201.5Q169.5 213.5 192.0 217.0Q214.5 220.5 249.0 220.5H291.5V201.5Q291.5 199.0 291.0 194.75Q290.5 190.5 290.0 186.0Q290.0 182.0 289.5 178.0Q289.0 174.0 289.0 171.5ZM371.5 210.5 345.5 205.5Q341.0 204.0 332.5 201.25Q324.0 198.5 315.75 195.0Q307.5 191.5 303.0 189.0Q303.0 192.0 303.25 194.5Q303.5 197.0 304.0 199.5V227.0Q303.5 230.5 303.25 232.25Q303.0 234.0 303.0 237.5Q305.0 236.5 306.75 235.5Q308.5 234.5 310.5 233.0Q325.0 225.5 334.5 221.0Q343.5 218.5 349.75 217.0Q356.0 215.5 362.5 213.5Q366.5 212.5 366.5 212.5Q366.5 212.5 371.5 210.5ZM187.5 92.0Q180.5 90.5 171.75 88.0Q163.0 85.5 158.0 83.5L141.0 74.5L142.5 88.0V93.0Q142.5 96.0 142.25 100.25Q142.0 104.5 142.0 104.5Q143.5 103.5 145.0 103.0Q146.5 102.5 147.0 102.0L150.0 101.5Q153.5 100.5 158.0 98.75Q162.5 97.0 167.0 96.0Q169.5 95.5 175.75 94.5Q182.0 93.5 187.5 92.0ZM369.5 102.0 341.0 96.0Q328.0 93.5 317.75 88.0Q307.5 82.5 303.0 80.0L302.5 79.0Q302.5 85.0 303.0 87.0V127.5L316.5 120.5Q323.0 117.0 332.25 113.5Q341.5 110.0 348.5 108.0ZM10.0 13.5Q10.0 10.0 16.0 10.0Q21.0 10.0 27.5 11.5H26.5Q32.0 12.5 49.75 13.5Q67.5 14.5 86.0 14.5Q105.0 14.5 118.5 15.75Q132.0 17.0 132.0 19.5Q132.0 20.5 127.25 27.25Q122.5 34.0 116.0 42.0Q108.5 50.0 100.75 65.5Q93.0 81.0 87.5 97.5Q83.5 110.5 81.0 120.25Q78.5 130.0 77.25 141.0Q76.0 152.0 75.5 167.5Q75.0 183.0 75.0 207.5V278.5L109.0 288.5Q130.5 295.0 147.75 299.25Q165.0 303.5 183.75 305.5Q202.5 307.5 228.25 308.25Q254.0 309.0 292.0 309.0Q319.5 309.0 342.75 309.75Q366.0 310.5 381.0 311.75Q396.0 313.0 397.5 315.0V314.0Q403.0 318.5 403.0 320.0Q403.0 323.0 400.0 323.0Q381.0 323.0 358.75 322.5Q336.5 322.0 313.0 322.0Q279.0 322.0 245.0 322.75Q211.0 323.5 182.0 325.0Q161.5 326.0 144.25 328.75Q127.0 331.5 117.5 333.5L112.0 334.0Q91.5 338.5 74.5 344.5Q57.5 350.5 47.25 356.5Q37.0 362.5 37.0 367.0Q37.0 374.5 32.0 374.5Q31.5 374.5 30.5 374.0Q29.5 373.5 29.0 373.5H29.5Q27.5 373.0 25.5 370.5Q23.5 368.0 23.5 365.5Q23.5 364.5 24.0 363.75Q24.5 363.0 24.5 362.5Q25.5 359.5 26.0 342.0Q26.5 324.5 26.5 303.0L26.0 245.5L43.0 259.5Q48.5 263.5 54.5 267.5Q60.5 271.5 63.0 272.5L62.5 210.0Q62.5 62.5 24.5 30.0Q18.0 25.0 14.0 20.25Q10.0 15.5 10.0 13.5ZM127.0 142.5V88.0Q127.0 70.0 127.5 58.5Q128.0 47.0 130.0 47.0Q130.5 47.0 135.25 50.5Q140.0 54.0 145.0 59.0Q161.0 73.5 183.5 79.25Q206.0 85.0 245.0 85.0H291.5L290.0 73.0Q290.0 72.0 289.5 70.0Q289.0 68.0 289.0 67.0Q290.5 59.0 294.5 59.0Q299.0 59.0 310.0 68.5Q319.5 76.5 333.5 81.75Q347.5 87.0 372.75 89.5Q398.0 92.0 441.5 93.0Q476.0 93.5 493.25 95.25Q510.5 97.0 516.5 98.5Q522.5 100.0 522.5 101.5Q522.5 103.5 517.25 105.0Q512.0 106.5 496.5 107.0Q481.0 107.5 449.5 107.5Q413.5 107.5 388.75 111.0Q364.0 114.5 346.25 121.75Q328.5 129.0 313.5 139.5Q307.5 144.5 301.0 147.75Q294.5 151.0 293.0 151.0Q290.5 151.0 290.5 145.0V138.0Q291.5 134.5 291.5 130.5Q291.5 126.5 291.5 123.0L292.0 99.0H255.0Q227.0 99.0 201.0 103.0Q175.0 107.0 158.5 113.0Q142.0 119.0 142.0 126.0Q142.0 127.0 149.5 131.75Q157.0 136.5 168.0 141.0Q180.5 146.5 189.25 149.5Q198.0 152.5 210.75 153.75Q223.5 155.0 248.0 155.5H284.0Q294.5 155.5 298.0 156.75Q301.5 158.0 301.5 163.0V165.5Q302.5 181.5 344.75 192.75Q387.0 204.0 461.0 204.0Q494.5 204.0 506.25 206.0Q518.0 208.0 518.0 211.5Q518.0 213.0 512.75 214.5Q507.5 216.0 492.75 217.0Q478.0 218.0 449.5 218.0Q413.0 218.0 387.25 221.25Q361.5 224.5 343.0 231.0Q324.5 237.5 309.0 248.5Q296.0 259.5 291.5 259.5Q287.0 259.5 287.0 251.5V247.0Q287.5 243.5 288.25 238.25Q289.0 233.0 289.0 233.0H246.0Q229.0 233.0 210.5 235.75Q192.0 238.5 176.0 243.25Q160.0 248.0 149.25 253.75Q138.5 259.5 136.0 265.5Q133.5 270.0 129.0 270.0Q128.0 270.0 127.0 268.5V269.5Q125.0 268.5 124.75 263.25Q124.5 258.0 124.5 251.0V200.5Q124.5 193.5 124.75 188.75Q125.0 184.0 125.5 182.5Q126.5 181.5 126.75 170.25Q127.0 159.0 127.0 142.5Z" fill="black" /></svg>