<svg xmlns="http://www.w3.org/2000/svg" width="860.0" height="456.5" viewBox="0 0 860.0 456.5"><path d="M74.5 217.5Q64.5 212.5 54.75 207.0Q45.0 201.5 41.0 198.0Q39.0 195.0 36.5 195.0Q35.0 195.0 34.25 200.75Q33.5 206.5 33.0 219.5Q32.5 227.5 31.5 234.0Q30.5 240.5 30.5 245.5V250.5Q32.5 250.5 37.75 248.25Q43.0 246.0 49.5 243.0L54.0 241.5Q63.5 237.0 74.25 232.5Q85.0 228.0 88.5 227.0H88.0Q90.0 226.5 91.25 226.5Q92.5 226.5 92.5 226.5Q92.5 225.0 74.5 217.5ZM477.0 315.5Q476.5 316.5 473.5 316.5Q469.5 316.5 469.5 319.5Q469.5 319.5 470.0 319.75Q470.5 320.0 471.5 320.0Q476.0 318.0 477.0 315.5ZM504.5 285.5Q504.5 283.0 503.25 280.5Q502.0 278.0 499.5 278.0Q496.0 278.0 490.75 288.0Q485.5 298.0 485.5 307.5Q485.5 313.0 489.0 314.75Q492.5 316.5 503.5 316.5Q518.0 316.5 518.0 315.5Q513.5 311.0 509.0 301.25Q504.5 291.5 504.5 285.5ZM597.0 371.5 571.0 355.0Q550.0 343.0 537.75 338.0Q525.5 333.0 513.0 333.0Q498.0 333.0 491.75 336.5Q485.5 340.0 485.5 350.0Q485.5 352.0 486.0 354.0Q486.5 356.0 486.5 358.5Q487.5 363.0 490.75 365.0Q494.0 367.0 506.25 367.75Q518.5 368.5 546.5 369.5ZM716.5 291.0Q716.5 288.0 709.0 267.0L703.0 247.0L665.0 293.0H688.5Q700.0 291.5 708.25 291.0Q716.5 290.5 716.5 291.0ZM205.5 74.0Q199.5 66.5 197.0 66.5Q191.5 66.5 191.5 102.0Q191.5 119.5 191.75 126.5Q192.0 133.5 193.0 133.5Q196.5 133.5 198.5 131.0Q202.5 127.0 212.5 120.75Q222.5 114.5 232.0 109.5L250.0 100.5L234.5 93.5Q225.5 89.0 217.5 83.25Q209.5 77.5 205.5 74.0ZM336.0 153.5 343.5 142.0H318.0Q306.5 142.0 298.25 141.75Q290.0 141.5 290.0 141.0Q290.0 141.5 293.0 147.75Q296.0 154.0 301.0 163.0Q305.0 171.5 308.5 179.75Q312.0 188.0 312.0 192.5Q312.0 197.0 313.5 197.0Q315.5 197.0 318.0 193.25Q320.5 189.5 321.5 183.5Q322.5 177.0 327.25 168.25Q332.0 159.5 336.0 153.5ZM545.5 185.5 542.5 169.5Q542.0 164.5 541.75 159.25Q541.5 154.0 541.5 154.0Q538.5 156.5 533.0 161.0Q527.5 165.5 521.0 171.0L504.5 185.5ZM616.5 250.0H615.0L617.5 249.0Q615.5 245.5 608.5 236.0L595.0 225.0L593.0 242.5Q591.5 248.5 591.25 253.25Q591.0 258.0 591.0 261.5Q591.0 263.0 591.75 264.5Q592.5 266.0 592.5 266.0Q593.5 266.0 595.75 264.5Q598.0 263.0 600.0 261.5Q603.5 257.5 607.75 254.0Q612.0 250.5 616.5 250.0ZM518.0 33.5H493.0Q481.0 33.5 468.75 32.25Q456.5 31.0 453.5 29.0Q451.5 28.5 449.0 28.5Q449.0 30.0 451.0 35.0Q452.5 40.5 455.25 48.0Q458.0 55.5 461.5 61.0Q464.0 67.0 467.25 76.5Q470.5 86.0 472.5 93.5Q474.5 111.0 479.0 111.0Q482.0 111.0 485.0 98.5V99.5Q485.5 90.5 491.5 77.25Q497.5 64.0 504.5 54.0ZM716.5 139.5Q716.5 126.0 713.5 126.0Q711.0 126.0 707.0 129.5Q703.0 133.0 697.0 139.5L691.5 147.0Q670.0 168.5 670.0 172.0Q670.0 173.5 690.5 173.5H710.5Q723.0 173.5 724.5 173.0Q723.5 172.0 723.25 170.75Q723.0 169.5 722.0 167.5Q720.0 163.5 718.25 155.25Q716.5 147.0 716.5 139.5ZM44.5 347.5H43.0Q40.5 343.5 39.0 343.5Q33.5 343.5 33.5 373.5Q33.5 404.0 41.0 404.0Q43.5 404.0 46.75 402.5Q50.0 401.0 53.5 397.5H52.0Q55.0 394.0 63.0 388.75Q71.0 383.5 79.0 381.5L92.5 377.0L74.0 367.5Q63.0 362.0 54.5 356.25Q46.0 350.5 44.5 347.5ZM305.0 354.5Q298.0 350.5 292.25 347.0Q286.5 343.5 285.5 343.5Q285.0 343.5 285.0 355.0Q285.0 366.5 285.0 382.5V393.0Q285.0 405.5 285.75 410.5Q286.5 415.5 290.0 415.5Q293.0 415.5 298.75 413.0Q304.5 410.5 313.5 406.5L317.5 403.0Q326.0 399.0 334.75 396.0Q343.5 393.0 345.5 393.0Q348.5 393.0 355.25 391.0Q362.0 389.0 367.0 386.5Q370.0 386.0 372.0 384.75Q374.0 383.5 374.5 383.5Q370.0 383.5 360.0 380.0Q350.0 376.5 338.5 371.5Q327.0 366.5 317.5 361.75Q308.0 357.0 305.0 354.5ZM426.0 12.0V10.5L426.5 10.0Q439.5 10.0 450.0 12.0Q458.5 13.5 475.0 15.0Q491.5 16.5 506.5 16.5Q523.5 16.5 534.5 19.0Q545.5 21.5 545.5 23.0Q545.5 26.0 542.0 32.0Q538.5 38.0 532.5 43.0Q518.0 56.0 509.25 76.0Q500.5 96.0 496.5 118.0Q492.5 140.0 492.5 159.0Q492.5 165.5 492.5 170.0Q492.5 174.5 493.0 174.5Q494.5 174.5 504.5 166.0Q514.5 157.5 527.0 145.5L561.5 110.5L558.0 147.5Q557.5 154.5 557.5 159.0Q557.5 163.5 557.5 167.5Q557.5 175.5 559.75 179.75Q562.0 184.0 567.0 188.0Q574.5 195.5 577.0 195.5Q579.0 195.5 581.5 190.0Q585.0 183.5 589.0 183.5Q592.0 183.5 600.5 199.0Q617.0 225.0 630.25 235.25Q643.5 245.5 662.0 245.5Q672.0 245.5 677.75 244.0Q683.5 242.5 688.75 238.25Q694.0 234.0 701.5 225.0Q709.5 215.0 715.25 210.5Q721.0 206.0 724.5 206.0Q725.5 206.0 727.0 207.75Q728.5 209.5 729.0 211.5Q728.5 217.5 725.0 225.5Q722.0 234.5 722.0 246.5Q722.0 256.0 725.0 267.0Q728.0 278.0 734.0 285.0Q737.5 289.0 754.0 301.75Q770.5 314.5 790.5 329.5Q809.0 342.5 823.0 353.75Q837.0 365.0 837.0 369.5L836.0 372.0H834.5Q830.5 372.0 816.25 364.25Q802.0 356.5 783.5 344.0Q755.0 325.0 733.5 315.75Q712.0 306.5 691.5 306.5Q684.0 306.5 677.0 307.25Q670.0 308.0 662.0 310.5Q657.0 311.5 651.0 312.5Q645.0 313.5 641.0 313.5Q639.0 313.5 637.0 312.75Q635.0 312.0 634.0 312.0Q633.5 311.0 632.75 310.25Q632.0 309.5 632.0 309.0Q632.0 305.0 637.75 297.5Q643.5 290.0 653.0 281.5L670.5 262.0H648.5Q636.0 262.0 629.0 263.0Q622.0 264.0 616.75 267.25Q611.5 270.5 604.5 277.5Q599.5 284.5 594.0 292.0Q588.5 299.5 587.0 304.0Q585.0 310.0 582.0 312.75Q579.0 315.5 577.0 316.5Q571.0 314.5 571.0 305.5V298.0Q571.0 295.5 571.75 292.0Q572.5 288.5 573.0 283.5Q576.0 269.5 577.75 255.0Q579.5 240.5 579.5 226.5Q579.5 219.5 577.25 216.75Q575.0 214.0 569.0 210.5Q558.0 203.0 534.0 203.0H524.0L494.0 205.0L493.0 234.5L490.5 259.5L497.5 250.5Q503.0 243.5 506.5 239.5Q510.0 235.5 513.0 235.5Q519.5 235.5 519.5 256.0V274.5Q519.5 284.0 521.0 291.5Q522.5 299.0 525.0 302.5Q527.5 306.5 538.75 314.5Q550.0 322.5 566.0 332.25Q582.0 342.0 598.25 351.0Q614.5 360.0 627.75 365.75Q641.0 371.5 646.0 371.5Q654.0 371.5 659.75 373.25Q665.5 375.0 665.5 379.0Q665.5 380.5 653.5 382.25Q641.5 384.0 621.0 385.25Q600.5 386.5 574.75 387.25Q549.0 388.0 521.0 388.0Q503.5 388.0 486.0 388.0Q468.5 388.0 451.5 387.5H450.0Q432.0 387.5 407.75 392.75Q383.5 398.0 358.25 406.5Q333.0 415.0 310.25 425.5Q287.5 436.0 271.5 446.5Q266.0 446.5 266.0 424.0V411.5L266.5 379.0L203.5 378.5Q171.5 378.5 147.5 380.5Q123.5 382.5 101.25 390.75Q79.0 399.0 51.5 417.5L20.0 438.0L22.0 372.0Q22.5 349.5 23.25 331.75Q24.0 314.0 24.5 309.5Q25.5 307.0 31.25 311.75Q37.0 316.5 44.5 325.0H43.0Q51.0 332.0 61.0 339.5Q71.0 347.0 77.5 351.0Q83.0 353.5 98.5 355.75Q114.0 358.0 134.75 359.75Q155.5 361.5 177.5 362.5Q199.5 363.5 217.5 363.5Q228.5 363.5 237.5 363.25Q246.5 363.0 252.0 362.5Q261.0 360.5 264.5 358.75Q268.0 357.0 268.75 352.25Q269.5 347.5 269.5 337.0Q269.5 327.0 272.0 319.0Q274.5 311.0 277.5 311.0Q280.0 311.0 282.5 313.25Q285.0 315.5 285.0 318.5Q285.0 319.5 289.5 324.0Q294.0 328.5 300.0 334.0L313.5 342.5V229.5H224.0Q186.5 229.5 161.25 230.75Q136.0 232.0 117.25 235.5Q98.5 239.0 81.5 246.0Q64.5 253.0 43.0 265.0Q33.0 270.0 24.5 273.75Q16.0 277.5 13.5 277.5H12.0Q11.5 276.0 10.75 274.75Q10.0 273.5 10.0 272.0Q10.0 264.0 14.5 254.0Q16.5 248.5 17.5 237.0Q18.5 225.5 18.5 213.5V186.5Q18.5 176.5 19.25 170.0Q20.0 163.5 22.0 163.5Q24.0 163.5 30.0 167.75Q36.0 172.0 42.5 179.0Q53.5 189.0 63.75 195.25Q74.0 201.5 89.75 204.75Q105.5 208.0 131.75 209.5Q158.0 211.0 200.5 211.5H244.5Q278.0 211.5 290.25 211.0Q302.5 210.5 302.5 209.0Q302.5 206.0 297.75 194.0Q293.0 182.0 286.0 168.0Q279.5 154.0 274.75 143.5Q270.0 133.0 269.5 131.0Q269.5 127.0 281.75 126.0Q294.0 125.0 310.0 125.0Q323.5 125.0 336.75 125.5Q350.0 126.0 359.5 126.75Q369.0 127.5 370.5 129.0V131.0Q370.5 133.5 367.25 137.5Q364.0 141.5 360.0 147.0Q347.0 160.0 339.75 174.75Q332.5 189.5 329.75 213.25Q327.0 237.0 327.0 277.5V351.0L348.5 358.5Q357.0 362.0 375.75 364.25Q394.5 366.5 421.0 367.5H448.0Q467.5 367.5 471.25 365.75Q475.0 364.0 475.5 358.0Q475.5 355.5 476.25 354.25Q477.0 353.0 477.0 351.5Q477.0 340.0 466.5 340.0Q460.5 340.0 456.5 342.5Q452.5 343.5 449.25 344.5Q446.0 345.5 445.0 345.5Q443.0 345.5 440.75 344.25Q438.5 343.0 438.5 341.0Q438.5 336.5 443.75 328.5Q449.0 320.5 457.5 307.5L477.5 283.5L475.0 210.5Q474.5 190.0 473.0 170.5Q471.5 151.0 469.5 136.5Q467.5 122.0 465.0 116.5L458.5 97.0L370.5 101.5Q334.0 103.0 309.25 105.75Q284.5 108.5 266.5 113.25Q248.5 118.0 233.25 126.25Q218.0 134.5 200.5 147.5Q183.5 163.0 177.0 163.0H176.5Q176.0 162.5 175.25 157.5Q174.5 152.5 174.5 146.0Q174.5 137.5 175.25 123.75Q176.0 110.0 176.5 95.0L178.5 27.0L205.5 54.0Q218.5 66.5 232.0 73.75Q245.5 81.0 265.25 84.0Q285.0 87.0 316.0 87.0Q328.5 87.0 342.5 86.5Q356.5 86.0 373.0 85.5Q396.0 84.0 414.5 83.0Q433.0 82.0 444.25 81.5Q455.5 81.0 455.5 81.5Q455.5 81.0 450.75 71.0Q446.0 61.0 440.5 48.5Q434.0 35.0 430.0 24.25Q426.0 13.5 426.0 12.0ZM693.5 118.5Q723.5 83.5 730.5 83.5Q734.0 83.5 734.0 89.0Q734.0 90.5 733.75 93.75Q733.5 97.0 732.5 100.5Q731.0 105.5 730.5 113.25Q730.0 121.0 730.0 129.0V136.5Q730.0 145.0 732.25 151.75Q734.5 158.5 742.5 166.5Q750.5 174.5 767.0 187.0Q783.5 199.5 811.5 219.5Q829.0 231.5 839.5 240.75Q850.0 250.0 850.0 252.5Q850.0 256.0 847.5 256.0Q844.0 256.0 826.25 246.25Q808.5 236.5 789.5 222.5Q773.0 211.0 762.25 204.75Q751.5 198.5 743.75 195.25Q736.0 192.0 727.5 191.0Q719.0 190.0 707.0 190.0Q692.5 190.0 676.75 190.5Q661.0 191.0 655.0 193.5Q651.5 194.0 648.5 194.5Q645.5 195.0 642.5 195.0Q635.5 195.0 635.5 189.0Q635.5 183.0 650.0 169.5Q655.5 164.5 668.5 150.0Q681.5 135.5 693.5 118.5Z" fill="black" /></svg>