<svg xmlns="http://www.w3.org/2000/svg" width="868.5" height="465.5" viewBox="0 0 868.5 465.5"><path d="M67.0 307.0 56.5 303.0Q50.5 300.5 43.0 296.25Q35.5 292.0 31.5 288.0Q29.5 287.0 28.25 286.25Q27.0 285.5 25.5 285.5Q25.0 285.5 25.0 290.5Q25.0 295.5 25.0 308.0Q25.0 321.0 25.0 326.25Q25.0 331.5 25.5 331.5Q27.0 331.5 28.25 330.5Q29.5 329.5 31.5 329.0Q35.5 325.0 43.0 320.25Q50.5 315.5 56.5 312.0ZM303.5 271.5Q301.5 271.5 298.5 270.0Q296.5 269.0 295.0 269.0Q293.0 269.0 293.0 275.5V280.5Q293.5 280.5 297.0 278.0Q299.5 276.0 301.0 274.25Q302.5 272.5 303.5 271.5ZM55.0 157.0 48.5 153.0Q35.0 143.5 32.5 143.5Q30.5 143.5 30.25 151.75Q30.0 160.0 30.0 172.5V203.5L45.5 191.0Q54.0 183.0 61.5 177.75Q69.0 172.5 71.0 172.5H73.5Q73.5 168.5 55.0 157.0ZM248.5 119.5Q248.0 118.5 242.25 117.0Q236.5 115.5 232.5 115.5Q229.0 115.5 226.5 115.5Q224.0 115.5 224.0 116.0Q224.0 118.5 227.0 126.75Q230.0 135.0 234.0 144.75Q238.0 154.5 242.0 162.5Q246.0 170.5 247.5 173.0Q248.5 167.5 252.25 158.5Q256.0 149.5 260.0 139.5Q269.0 120.5 269.0 115.5Q267.0 116.0 260.5 121.0Q258.5 123.0 257.25 124.5Q256.0 126.0 254.0 126.0Q251.0 126.0 248.5 119.5ZM298.5 186.0V185.5Q295.5 178.5 290.5 178.5Q287.5 178.5 287.5 182.5Q287.5 187.5 294.0 187.5Q298.5 187.5 298.5 186.0ZM357.0 224.0V222.5Q357.0 219.0 353.0 219.0H352.0L353.0 220.0Q353.0 222.0 354.75 223.0Q356.5 224.0 357.0 224.0ZM493.0 114.0 480.0 76.0 418.5 75.5H398.0Q377.0 75.5 363.25 76.75Q349.5 78.0 337.0 81.75Q324.5 85.5 305.5 93.0Q302.0 93.5 299.5 95.25Q297.0 97.0 297.0 99.5Q297.0 103.5 292.75 112.25Q288.5 121.0 281.5 131.0Q269.0 149.0 263.25 173.75Q257.5 198.5 257.5 242.5Q257.5 255.0 258.0 268.25Q258.5 281.5 259.0 298.0Q260.5 325.5 261.25 340.75Q262.0 356.0 263.5 363.25Q265.0 370.5 267.75 373.25Q270.5 376.0 275.5 378.5Q279.5 380.5 298.25 382.25Q317.0 384.0 344.0 385.0Q371.0 386.0 399.75 386.75Q428.5 387.5 452.5 387.5Q469.0 387.5 481.75 387.25Q494.5 387.0 498.0 386.0L510.0 382.5L508.0 268.0Q507.0 229.0 506.0 204.75Q505.0 180.5 503.5 165.25Q502.0 150.0 499.5 138.75Q497.0 127.5 493.0 114.0ZM440.5 253.5Q440.5 250.5 437.5 250.5Q437.0 250.5 435.75 252.5Q434.5 254.5 434.5 256.5Q434.5 259.0 436.5 259.5L437.0 259.0Q438.0 258.0 439.25 256.25Q440.5 254.5 440.5 253.5ZM581.5 277.5Q577.5 275.0 572.25 272.0Q567.0 269.0 562.5 267.0Q558.5 265.0 555.0 263.5Q551.5 262.0 550.5 261.5Q550.5 261.0 550.25 270.25Q550.0 279.5 550.0 292.0V322.0L566.5 310.5Q574.0 305.0 584.0 300.5Q594.0 296.0 599.0 295.5H598.0Q608.0 292.5 608.0 291.5Q608.0 289.5 581.5 277.5ZM312.0 74.0 289.0 61.5Q278.0 55.5 270.0 51.5Q262.0 47.5 262.0 47.5Q262.0 49.5 262.5 56.5Q263.0 63.5 264.0 71.25Q265.0 79.0 266.0 85.0Q267.0 91.0 267.5 92.0H268.0Q271.0 92.0 278.75 89.0Q286.5 86.0 293.5 82.5ZM436.5 169.5Q436.5 167.0 432.5 167.0Q429.0 167.0 429.0 169.5Q429.0 171.5 432.5 171.5Q436.5 171.5 436.5 169.5ZM541.0 35.5Q541.0 36.5 531.5 36.75Q522.0 37.0 510.0 37.0Q493.5 37.0 487.75 37.25Q482.0 37.5 482.0 39.5L482.5 42.0Q484.0 46.0 488.75 59.5Q493.5 73.0 498.5 88.5L508.5 119.5L513.5 98.5Q516.5 87.5 521.25 74.25Q526.0 61.0 531.0 54.5V55.5Q535.0 48.5 538.0 42.5Q541.0 36.5 541.0 35.5ZM585.5 146.0Q576.5 141.5 567.5 135.5Q558.5 129.5 553.0 126.0L544.5 121.0V156.0Q544.5 171.0 544.75 182.25Q545.0 193.5 545.0 193.5Q547.5 193.5 553.0 188.75Q558.5 184.0 566.5 178.0Q573.5 171.5 581.0 166.75Q588.5 162.0 592.5 162.0Q595.5 162.0 598.25 160.75Q601.0 159.5 601.0 159.0Q601.0 153.5 585.5 146.0ZM834.0 51.5H810.5Q800.0 51.5 789.75 50.75Q779.5 50.0 775.5 48.0Q774.5 47.5 773.0 47.0Q771.5 46.5 770.0 46.5Q770.0 49.0 772.5 53.75Q775.0 58.5 779.0 68.0Q781.5 75.5 786.25 89.0Q791.0 102.5 794.5 114.0L801.0 133.5L806.5 110.5Q809.5 99.0 814.75 85.25Q820.0 71.5 825.0 64.0ZM244.0 385.5Q242.5 380.5 239.0 377.5Q235.5 374.5 231.5 374.0H228.5Q226.5 374.0 225.25 379.25Q224.0 384.5 224.0 400.5Q224.0 427.5 229.0 427.5Q232.0 427.5 236.0 425.0Q240.0 422.5 245.0 419.0Q247.5 418.0 255.5 415.0Q263.5 412.0 272.0 410.0Q295.0 401.0 295.0 400.5Q295.0 399.5 280.0 395.0Q275.0 394.0 270.75 393.25Q266.5 392.5 264.0 392.5Q260.5 392.5 260.5 391.5Q260.5 399.0 257.0 399.0Q254.0 399.0 250.25 395.5Q246.5 392.0 244.0 385.5ZM10.0 261.0Q11.5 259.0 12.5 259.0Q17.5 259.0 30.0 269.0Q56.5 287.5 77.75 295.25Q99.0 303.0 127.0 303.0Q143.5 303.0 161.5 304.25Q179.5 305.5 194.75 307.5Q210.0 309.5 219.5 311.75Q229.0 314.0 229.0 316.0Q229.0 317.5 217.75 318.5Q206.5 319.5 189.0 319.5H132.5Q103.0 319.5 85.25 322.0Q67.5 324.5 56.5 330.5Q45.5 336.5 36.0 347.5Q28.5 355.5 22.5 360.25Q16.5 365.0 14.5 365.0Q14.0 364.0 13.25 354.25Q12.5 344.5 12.0 330.25Q11.5 316.0 11.0 301.25Q10.5 286.5 10.25 275.5Q10.0 264.5 10.0 261.0ZM248.5 42.5Q248.0 37.0 247.75 32.25Q247.5 27.5 247.5 23.0Q247.5 10.0 251.5 10.0Q252.5 10.0 258.25 15.5Q264.0 21.0 269.5 26.5Q278.5 37.0 286.5 43.25Q294.5 49.5 306.75 52.5Q319.0 55.5 339.25 56.5Q359.5 57.5 392.5 57.5H471.0L464.0 41.0Q461.5 33.0 459.5 27.5Q457.5 22.0 457.5 19.0Q457.5 15.5 459.25 13.5Q461.0 11.5 463.0 11.5Q465.5 11.5 467.75 12.75Q470.0 14.0 473.5 15.0Q478.5 17.5 493.25 19.25Q508.0 21.0 524.0 21.0Q566.0 21.0 566.0 30.5Q566.0 32.5 564.0 35.0Q562.0 37.5 560.0 39.5Q557.0 41.0 551.0 49.0Q545.0 57.0 540.0 68.0L525.5 94.5L524.5 239.5Q524.0 271.0 524.0 293.75Q524.0 316.5 524.0 332.5Q524.0 357.0 524.75 367.5Q525.5 378.0 527.25 380.25Q529.0 382.5 532.0 382.5Q537.5 382.5 541.0 385.0Q544.5 387.5 544.5 390.0Q544.5 392.0 529.0 394.5Q513.5 397.0 488.75 399.25Q464.0 401.5 435.0 402.75Q406.0 404.0 379.0 404.0Q304.5 404.0 236.5 442.5L210.5 455.5V398.0Q210.5 374.0 211.75 357.0Q213.0 340.0 216.5 340.0Q219.0 340.0 223.25 343.75Q227.5 347.5 231.5 352.5Q235.5 355.0 239.25 358.5Q243.0 362.0 245.0 362.0Q246.0 362.0 246.75 352.75Q247.5 343.5 247.5 329.0Q247.5 312.5 246.5 291.75Q245.5 271.0 244.0 251.0Q242.5 231.0 240.75 215.75Q239.0 200.5 237.0 195.5L232.5 183.5H159.5Q128.5 183.5 108.25 184.75Q88.0 186.0 75.5 189.75Q63.0 193.5 55.0 200.25Q47.0 207.0 39.5 217.5Q34.5 224.5 29.0 230.0Q23.5 235.5 22.0 235.5Q21.0 235.5 19.5 223.0Q18.0 210.5 16.75 192.25Q15.5 174.0 14.5 155.75Q13.5 137.5 13.5 126.0Q13.5 113.0 16.0 110.5H16.5Q18.5 110.5 24.25 115.25Q30.0 120.0 36.0 125.5Q54.5 140.0 68.0 148.5Q81.5 157.0 94.5 161.0Q107.5 165.0 123.75 166.25Q140.0 167.5 164.5 167.5Q198.5 167.5 212.25 166.75Q226.0 166.0 226.0 163.5Q226.0 161.0 222.0 152.0Q218.0 143.0 212.5 132.0Q207.5 121.5 203.75 112.75Q200.0 104.0 200.0 102.0Q200.0 98.0 214.5 98.0H224.0Q229.0 98.5 232.25 98.5Q235.5 98.5 238.0 98.5Q244.0 98.5 246.0 96.0Q248.0 93.5 248.5 87.0Q249.0 84.0 249.0 79.0Q249.0 74.0 249.0 68.0Q249.0 62.0 249.0 55.5Q249.0 49.0 248.5 42.5ZM277.0 156.0H276.0Q277.0 156.0 278.0 155.5Q279.0 155.0 280.0 155.0Q283.5 155.0 289.25 157.75Q295.0 160.5 300.5 164.5Q308.0 169.5 314.75 172.25Q321.5 175.0 331.25 176.0Q341.0 177.0 357.0 177.0Q374.5 177.0 386.25 179.25Q398.0 181.5 398.0 185.5Q398.0 189.5 385.25 191.5Q372.5 193.5 353.5 193.5Q335.5 193.5 325.75 194.25Q316.0 195.0 310.25 197.5Q304.5 200.0 297.0 206.0Q292.0 210.5 286.75 212.75Q281.5 215.0 278.5 215.0Q278.5 215.0 277.75 215.0Q277.0 215.0 277.0 214.5Q275.0 212.5 274.0 203.75Q273.0 195.0 273.0 185.5Q273.0 175.0 274.0 166.25Q275.0 157.5 277.0 156.0ZM336.0 209.5Q336.0 202.5 352.0 202.5H358.5Q380.0 204.0 380.0 212.0Q380.0 216.0 373.5 225.5Q370.0 229.0 367.5 237.75Q365.0 246.5 365.0 255.0Q365.0 266.5 368.0 269.0Q371.0 271.5 384.5 272.0L403.0 274.0V279.5L365.0 282.5V307.0Q365.0 318.0 363.25 326.25Q361.5 334.5 358.5 334.5Q356.5 334.5 354.25 326.0Q352.0 317.5 352.0 304.5V280.5L332.5 283.0Q323.5 285.0 314.0 288.75Q304.5 292.5 300.5 296.5Q295.5 301.5 290.5 304.75Q285.5 308.0 284.5 308.0Q281.5 308.0 279.75 299.0Q278.0 290.0 278.0 277.5Q278.0 260.0 280.5 252.5Q283.0 245.0 288.0 245.0Q290.5 245.0 294.25 247.0Q298.0 249.0 300.5 251.0Q302.5 255.0 310.25 259.0Q318.0 263.0 327.0 265.75Q336.0 268.5 341.5 269.0Q342.5 269.0 343.75 268.5Q345.0 268.0 345.0 268.0Q352.0 265.5 352.0 263.5Q352.0 257.0 344.0 239.0Q341.0 229.0 338.5 220.5Q336.0 212.0 336.0 209.5ZM396.0 204.0Q396.0 201.0 399.5 192.25Q403.0 183.5 408.75 172.25Q414.5 161.0 420.75 150.5Q427.0 140.0 432.25 133.0Q437.5 126.0 440.0 126.0Q444.5 126.0 444.5 138.5Q444.5 156.5 450.5 166.25Q456.5 176.0 472.0 183.5Q479.5 187.5 484.25 191.5Q489.0 195.5 489.0 198.5Q489.0 199.5 488.25 201.0Q487.5 202.5 486.0 202.5H484.5Q482.0 202.5 475.5 200.25Q469.0 198.0 463.0 195.5Q450.0 189.0 440.0 189.0Q427.5 189.0 416.0 197.5Q404.5 207.5 398.5 207.5H396.0ZM401.5 296.5 401.0 293.5Q401.0 288.5 406.5 276.0Q412.0 263.5 419.75 249.25Q427.5 235.0 434.75 224.75Q442.0 214.5 445.5 214.5Q449.5 214.5 449.5 228.0Q449.5 245.0 455.0 253.75Q460.5 262.5 473.0 268.0Q480.0 272.5 486.0 277.0Q492.0 281.5 492.0 285.5Q492.0 287.5 490.25 288.75Q488.5 290.0 487.0 290.0Q485.0 290.0 481.75 289.0Q478.5 288.0 474.5 286.5Q454.5 274.5 444.5 274.5Q439.0 274.5 434.25 277.0Q429.5 279.5 422.5 284.5Q409.5 296.5 404.0 296.5ZM530.0 162.0Q530.0 133.0 532.25 113.0Q534.5 93.0 536.5 93.0Q541.0 93.0 555.0 108.5H554.0Q559.5 113.5 574.0 122.5Q588.5 131.5 603.0 138.5Q616.5 145.0 625.25 148.75Q634.0 152.5 643.75 154.0Q653.5 155.5 669.0 155.75Q684.5 156.0 711.5 156.0Q743.0 156.0 764.25 158.0Q785.5 160.0 785.5 163.5Q785.5 166.5 757.5 169.25Q729.5 172.0 686.0 173.5L589.5 175.0Q587.5 176.5 582.25 182.25Q577.0 188.0 572.0 193.5Q567.0 199.0 565.0 201.5Q554.0 213.5 545.25 221.75Q536.5 230.0 535.5 230.0Q533.5 230.0 531.75 209.75Q530.0 189.5 530.0 162.0ZM753.5 46.5Q753.5 45.5 753.0 43.75Q752.5 42.0 752.5 41.5Q752.5 37.5 756.5 35.5Q760.5 33.5 771.75 32.75Q783.0 32.0 805.0 32.0Q827.0 33.0 842.75 33.25Q858.5 33.5 858.5 33.5Q858.5 36.0 853.5 45.75Q848.5 55.5 841.5 68.0Q830.5 85.0 824.0 103.0Q817.5 121.0 815.0 146.75Q812.5 172.5 812.5 213.0Q812.5 229.5 813.0 248.75Q813.5 268.0 814.0 291.5Q814.5 314.5 815.5 332.5Q816.5 350.5 816.5 365.0Q816.5 413.0 810.0 413.0Q807.5 413.0 805.0 401.5Q802.5 390.0 802.5 371.5Q802.5 356.0 801.75 339.75Q801.0 323.5 799.5 317.5L797.5 303.0H711.0Q687.0 303.0 664.5 304.0Q642.0 305.0 625.75 306.25Q609.5 307.5 604.5 309.0Q596.5 311.0 583.75 318.5Q571.0 326.0 561.0 334.5L537.0 358.0L534.5 296.5Q533.5 273.0 533.25 255.5Q533.0 238.0 533.0 237.5L534.5 235.5Q536.5 235.5 543.0 239.25Q549.5 243.0 557.5 248.0Q579.0 259.5 594.0 266.75Q609.0 274.0 621.75 278.25Q634.5 282.5 648.0 284.25Q661.5 286.0 679.0 286.5Q696.5 287.0 721.5 287.0H798.0V233.5Q798.0 211.0 796.75 195.0Q795.5 179.0 792.5 164.0Q789.5 149.0 783.0 130.5Q778.5 111.5 772.75 94.25Q767.0 77.0 763.0 71.5Q761.5 68.0 760.0 63.75Q758.5 59.5 757.0 55.5Q755.5 52.5 754.75 50.75Q754.0 49.0 753.5 46.5Z" fill="black" /></svg>