<svg xmlns="http://www.w3.org/2000/svg" width="473.5" height="457.5" viewBox="0 0 473.5 457.5"><path d="M101.0 279.5Q93.0 272.0 83.75 262.5Q74.5 253.0 70.5 247.5L60.5 236.5L34.5 282.0H46.0Q52.5 282.0 66.0 283.5Q79.5 285.0 92.0 287.5L117.0 293.5Q113.0 289.5 109.0 286.25Q105.0 283.0 101.0 279.5ZM87.5 159.5 104.0 141.5 78.0 142.5Q63.0 142.5 57.75 142.75Q52.5 143.0 52.5 145.5Q52.5 146.0 53.25 148.0Q54.0 150.0 54.5 151.5Q58.5 169.5 60.5 175.75Q62.5 182.0 63.5 182.0H64.0Q65.5 182.0 72.25 175.25Q79.0 168.5 87.5 159.5ZM248.5 149.0H248.0Q249.5 146.5 250.25 145.75Q251.0 145.0 251.0 145.0L250.5 145.5Q250.0 145.5 249.5 145.75Q249.0 146.0 248.0 146.0Q245.5 146.0 238.0 146.25Q230.5 146.5 222.5 147.5L206.5 150.0L211.5 158.0Q214.0 162.5 218.5 171.0Q223.0 179.5 225.0 186.5L229.0 199.5L235.0 179.0Q238.5 168.5 242.5 159.5Q246.5 150.5 248.5 149.0ZM290.5 119.5Q280.0 114.0 268.0 109.75Q256.0 105.5 244.5 102.0Q232.5 98.0 225.0 98.0Q219.0 98.0 213.5 100.5Q208.0 103.0 196.5 108.5Q193.0 109.5 189.0 111.5Q185.0 113.5 180.5 114.5Q172.5 118.0 165.0 121.25Q157.5 124.5 152.0 126.0Q144.0 129.0 130.5 138.75Q117.0 148.5 103.0 162.0Q89.0 175.5 79.5 189.25Q70.0 203.0 70.0 213.5Q70.0 223.5 79.25 236.5Q88.5 249.5 103.5 263.25Q118.5 277.0 136.0 290.0Q153.5 303.0 170.5 313.75Q187.5 324.5 201.0 331.0Q214.5 337.5 221.0 338.0H222.5Q226.5 337.0 226.5 334.0Q226.5 334.0 226.5 333.75Q226.5 333.5 226.0 333.0Q224.0 330.5 222.75 309.5Q221.5 288.5 219.5 261.0Q219.0 237.5 218.25 223.75Q217.5 210.0 216.0 201.25Q214.5 192.5 211.75 186.0Q209.0 179.5 204.0 171.5Q199.0 162.0 192.25 153.5Q185.5 145.0 181.0 143.0Q172.0 138.0 172.0 133.5Q172.0 131.0 174.5 130.0Q177.5 129.0 179.5 129.0Q182.0 129.0 185.25 129.75Q188.5 130.5 191.5 133.0Q194.0 134.0 200.25 134.5Q206.5 135.0 214.5 135.0Q226.5 135.0 240.75 133.75Q255.0 132.5 266.0 129.0L282.0 125.5L266.5 145.5Q257.0 158.5 249.0 180.0Q241.0 201.5 236.25 227.25Q231.5 253.0 231.5 278.0Q231.5 295.5 232.5 310.0Q233.5 324.5 235.0 327.0Q236.0 328.0 238.5 328.0Q243.0 328.0 257.75 321.0Q272.5 314.0 293.25 302.75Q314.0 291.5 336.5 278.75Q359.0 266.0 378.75 254.25Q398.5 242.5 411.75 234.25Q425.0 226.0 426.5 224.0Q425.5 221.0 416.25 212.75Q407.0 204.5 386.5 187.75Q366.0 171.0 330.0 142.5Q323.0 137.0 311.75 130.25Q300.5 123.5 290.5 119.5ZM256.5 50.0Q256.5 45.5 253.0 42.5Q252.5 42.0 251.75 41.75Q251.0 41.5 251.0 41.5Q250.5 44.0 244.5 51.5Q238.5 59.0 230.5 67.0Q225.0 73.5 221.75 77.25Q218.5 81.0 217.5 82.0Q218.5 82.0 219.5 81.75Q220.5 81.5 222.5 81.0Q227.0 79.0 230.5 79.0Q233.0 79.0 234.5 80.25Q236.0 81.5 236.5 83.0V82.5Q237.0 83.0 244.75 86.5Q252.5 90.0 263.5 94.0L268.5 96.5Q287.5 104.0 291.5 104.0Q291.0 101.5 286.5 95.25Q282.0 89.0 274.0 79.0Q266.5 70.0 261.5 61.25Q256.5 52.5 256.5 50.0ZM197.5 386.0Q208.5 374.5 213.5 367.5Q218.5 360.5 219.0 358.0Q218.5 357.5 218.0 357.0Q217.5 356.5 216.0 356.5Q213.5 356.5 207.25 358.25Q201.0 360.0 192.5 363.0Q183.0 366.5 173.0 368.75Q163.0 371.0 159.0 371.0Q151.0 371.0 151.0 373.0Q151.0 373.5 151.25 374.25Q151.5 375.0 152.0 376.0Q153.0 378.5 154.5 382.75Q156.0 387.0 157.5 391.5Q158.5 394.0 159.25 396.75Q160.0 399.5 160.5 401.5Q162.0 407.5 164.0 411.75Q166.0 416.0 166.5 416.5H167.0Q167.5 416.5 171.0 412.75Q174.5 409.0 180.0 403.0Q184.0 399.0 188.25 394.5Q192.5 390.0 197.5 386.0ZM244.0 343.0H243.5Q245.0 341.5 245.5 340.5Q244.5 341.0 242.25 342.5Q240.0 344.0 237.0 345.5Q236.0 347.0 235.0 348.0Q234.0 349.0 233.5 350.0Q235.0 349.5 238.0 347.25Q241.0 345.0 244.0 343.0ZM248.5 23.5Q255.0 10.0 259.0 10.0Q263.5 10.0 263.5 26.0Q263.5 41.5 280.75 66.25Q298.0 91.0 328.75 121.25Q359.5 151.5 400.5 183.5Q420.0 199.0 429.0 205.25Q438.0 211.5 443.0 211.5Q446.5 211.5 448.5 209.5Q454.5 207.0 459.0 207.0Q460.0 207.0 461.5 207.0Q463.0 207.0 463.0 208.0L463.5 209.5Q463.5 214.0 433.5 234.0Q403.5 254.0 338.5 293.0Q314.5 306.5 294.5 319.75Q274.5 333.0 262.5 342.75Q250.5 352.5 250.5 355.5Q250.5 357.0 255.75 359.75Q261.0 362.5 268.0 366.0Q275.0 369.5 280.5 373.25Q286.0 377.0 286.0 380.0Q286.0 382.5 284.0 383.0Q282.0 383.5 280.0 383.5Q277.5 382.0 269.75 379.0Q262.0 376.0 254.0 373.5L234.0 366.0L211.5 388.5Q201.5 398.0 191.25 410.5Q181.0 423.0 177.0 430.0Q165.5 447.5 160.5 447.5Q156.5 447.5 156.5 436.0Q156.5 429.5 153.5 418.0Q150.5 406.5 145.75 394.75Q141.0 383.0 136.0 376.0Q130.5 367.5 130.5 364.0Q130.5 360.0 136.5 359.0Q142.5 358.0 154.5 357.5Q164.5 356.0 175.5 354.25Q186.5 352.5 191.5 350.0L201.0 346.0L178.0 333.0Q161.0 322.0 136.75 313.5Q112.5 305.0 88.5 300.0Q64.5 295.0 46.5 295.0Q34.0 295.0 26.5 298.0Q23.0 298.5 20.0 299.75Q17.0 301.0 15.0 301.0Q13.0 301.0 11.5 299.5Q10.0 298.0 10.0 297.0Q10.0 294.0 12.75 289.0Q15.5 284.0 20.5 277.5Q32.5 262.0 42.25 243.25Q52.0 224.5 52.0 205.0Q52.0 192.0 48.75 177.0Q45.5 162.0 39.5 145.5Q36.5 135.0 34.75 128.75Q33.0 122.5 33.0 119.0Q33.0 114.5 35.5 114.5Q39.5 114.5 44.5 119.5Q50.5 124.5 57.75 127.5Q65.0 130.5 74.5 130.5Q79.5 130.5 85.75 129.5Q92.0 128.5 99.5 126.5Q111.0 124.5 126.5 120.0Q142.0 115.5 156.75 110.25Q171.5 105.0 181.25 100.5Q191.0 96.0 191.0 94.0Q191.0 92.0 198.5 82.75Q206.0 73.5 216.5 62.5Q228.0 51.5 236.75 40.0Q245.5 28.5 248.5 23.5Z" fill="black" /></svg>