<svg xmlns="http://www.w3.org/2000/svg" width="436.5" height="379.5" viewBox="0 0 436.5 379.5"><path d="M177.0 103.0H177.5Q168.0 101.5 154.5 99.75Q141.0 98.0 130.0 98.0Q113.5 98.0 108.75 100.0Q104.0 102.0 101.5 110.5Q96.0 123.0 96.0 133.0Q96.0 141.0 99.25 148.25Q102.5 155.5 108.5 163.0Q114.5 170.0 127.25 181.25Q140.0 192.5 154.25 203.75Q168.5 215.0 179.5 222.75Q190.5 230.5 193.5 230.5Q196.0 230.5 201.75 225.75Q207.5 221.0 214.0 214.5H213.5Q219.5 207.0 229.5 197.75Q239.5 188.5 248.0 182.0Q255.5 176.5 260.5 171.5Q265.5 166.5 266.0 165.0Q263.5 160.0 252.5 150.5Q241.5 141.0 226.75 130.75Q212.0 120.5 198.25 112.75Q184.5 105.0 177.0 103.0ZM223.0 277.0Q223.0 271.0 218.0 255.0L211.5 235.0L168.5 272.5L194.0 275.5Q202.5 276.0 209.5 276.75Q216.5 277.5 220.0 277.5Q223.0 277.5 223.0 277.0ZM92.0 166.0Q90.5 163.5 88.5 155.5Q86.5 147.5 84.5 139.0L81.5 119.5Q79.5 121.5 73.0 127.75Q66.5 134.0 59.25 141.5Q52.0 149.0 46.75 155.0Q41.5 161.0 41.5 162.5Q41.5 163.0 49.0 163.0Q54.5 163.0 63.5 164.0Q72.5 165.0 79.5 166.5Q86.5 168.0 89.5 168.0Q92.5 168.0 92.5 167.0Q92.5 167.0 92.5 166.75Q92.5 166.5 92.0 166.0ZM307.5 200.5 304.5 176.5Q303.5 166.5 302.5 159.75Q301.5 153.0 301.5 153.0Q299.5 155.0 293.25 160.0Q287.0 165.0 279.0 171.5Q272.5 178.0 266.75 183.75Q261.0 189.5 259.5 192.0Q262.0 192.5 268.75 194.0Q275.5 195.5 284.0 196.5ZM174.5 88.5H176.0L175.5 85.0Q175.0 81.5 174.5 75.5Q174.0 69.5 173.0 62.5L170.5 40.0L122.0 82.5L153.0 86.5Q160.0 87.0 165.75 87.75Q171.5 88.5 174.5 88.5ZM157.5 33.0Q167.0 23.0 174.25 16.5Q181.5 10.0 183.5 10.0Q186.5 11.5 186.5 26.5Q186.5 30.5 186.5 35.25Q186.5 40.0 186.0 45.0L184.0 75.5L211.0 101.5Q222.5 111.5 236.75 123.0Q251.0 134.5 259.5 140.5L278.5 154.5L294.5 138.5Q302.0 130.5 308.5 125.5Q315.0 120.5 317.0 120.5Q319.0 120.5 319.0 129.0Q319.0 132.5 319.0 136.75Q319.0 141.0 318.0 145.5Q316.5 156.5 316.5 164.5Q316.5 176.0 321.25 185.5Q326.0 195.0 338.5 206.75Q351.0 218.5 373.0 237.0Q401.0 259.5 413.75 271.75Q426.5 284.0 426.5 288.0Q426.5 291.5 422.5 291.5Q422.0 291.5 408.0 281.5Q394.0 271.5 376.5 256.5Q353.5 238.0 335.0 227.5Q316.5 217.0 298.75 212.5Q281.0 208.0 259.0 208.0Q240.5 208.0 235.25 214.75Q230.0 221.5 230.0 244.0V246.5Q230.5 257.0 236.25 267.0Q242.0 277.0 257.25 290.75Q272.5 304.5 301.0 327.5Q318.5 340.5 330.25 352.0Q342.0 363.5 342.0 367.0Q342.0 369.5 340.0 369.5Q336.5 369.5 323.0 359.75Q309.5 350.0 291.5 336.0Q272.5 321.0 258.5 311.5Q244.5 302.0 231.5 296.5Q218.5 291.0 202.25 289.0Q186.0 287.0 162.0 287.0Q160.0 287.5 158.0 287.5Q156.0 287.5 154.0 287.5Q141.0 287.5 141.0 282.5Q141.0 280.0 147.0 273.5Q153.0 267.0 161.5 259.5L179.5 242.5L160.0 225.0Q143.5 210.5 131.75 202.0Q120.0 193.5 109.75 188.75Q99.5 184.0 87.0 181.75Q74.5 179.5 56.5 178.0Q37.5 177.0 23.75 174.0Q10.0 171.0 10.0 169.0Q10.0 166.5 13.5 163.25Q17.0 160.0 22.0 156.5Q26.0 154.0 37.25 144.0Q48.5 134.0 64.25 119.75Q80.0 105.5 97.5 89.5Q115.0 73.5 130.75 58.75Q146.5 44.0 157.5 33.0Z" fill="black" /></svg>