<svg xmlns="http://www.w3.org/2000/svg" width="575.0" height="461.5" viewBox="0 0 575.0 461.5"><path d="M58.0 202.5Q54.0 197.0 51.5 197.0Q47.0 197.0 47.0 225.0Q47.0 237.0 47.25 244.25Q47.5 251.5 47.5 251.5Q50.5 250.5 58.0 246.25Q65.5 242.0 74.5 237.0L96.5 225.5L83.0 218.0Q76.0 215.5 68.75 210.75Q61.5 206.0 58.0 202.5ZM302.5 246.5Q302.5 240.5 302.0 235.75Q301.5 231.0 300.5 231.0Q298.5 231.0 293.0 235.75Q287.5 240.5 281.5 247.25Q275.5 254.0 271.25 259.75Q267.0 265.5 267.0 267.5Q267.0 270.0 276.0 275.0Q285.0 280.0 295.5 284.25Q306.0 288.5 311.0 288.5Q312.0 288.5 312.0 288.0Q312.0 283.0 309.0 275.5Q307.0 270.0 304.75 262.0Q302.5 254.0 302.5 246.5ZM428.5 295.0 428.0 213.0 414.5 208.5Q409.5 207.0 405.25 205.75Q401.0 204.5 396.0 204.5Q395.5 206.0 395.0 228.25Q394.5 250.5 394.5 280.5V355.5L408.0 371.0Q413.5 376.0 417.0 379.5Q420.5 383.0 423.0 383.0Q427.0 383.0 428.0 371.25Q429.0 359.5 429.0 332.0Q429.0 324.5 428.75 315.25Q428.5 306.0 428.5 295.0ZM288.5 85.0Q285.0 84.5 276.75 84.25Q268.5 84.0 258.0 84.0Q241.0 84.0 234.75 84.5Q228.5 85.0 228.5 87.5Q228.5 90.0 230.75 96.0Q233.0 102.0 235.75 107.5Q238.5 113.0 240.0 115.5L240.5 118.0Q243.0 123.0 245.5 131.5Q248.0 140.0 249.0 147.5Q252.0 163.5 255.5 163.5Q259.0 163.5 261.0 148.0Q263.0 142.0 267.5 130.0Q272.0 118.0 276.0 108.5Q285.5 91.5 288.5 85.0ZM385.0 176.5Q385.5 176.0 385.5 173.5Q385.5 170.0 383.0 165.0Q381.5 163.0 380.5 161.5Q379.5 160.0 378.5 160.0Q377.0 160.0 374.75 161.5Q372.5 163.0 368.5 165.0Q364.5 168.5 362.0 171.0Q359.5 173.5 359.5 175.0Q359.5 178.5 371.0 180.0Q372.5 180.5 374.0 180.5Q375.5 180.5 376.5 180.5Q383.5 180.5 385.0 176.5ZM492.5 120.5 482.5 82.0 433.5 80.5H427.0Q403.5 80.5 387.25 83.0Q371.0 85.5 357.25 92.0Q343.5 98.5 327.5 111.0L308.0 124.0L307.5 101.5L306.0 83.5Q291.5 105.0 282.75 125.0Q274.0 145.0 270.25 166.75Q266.5 188.5 266.5 215.5Q266.5 225.0 267.5 231.0Q268.5 237.0 270.0 237.0Q271.0 237.0 277.0 231.75Q283.0 226.5 290.0 220.5Q296.0 213.0 302.0 208.25Q308.0 203.5 309.0 203.5Q311.0 203.5 312.5 212.25Q314.0 221.0 314.0 234.0Q314.0 244.5 316.0 256.5Q318.0 268.5 320.5 273.0Q324.0 279.5 332.75 290.25Q341.5 301.0 351.75 312.0Q362.0 323.0 370.0 330.25Q378.0 337.5 380.0 337.5Q381.0 335.0 382.25 322.75Q383.5 310.5 384.5 293.0Q385.5 275.5 386.0 257.5Q386.5 239.5 386.5 226.0Q386.5 218.0 386.0 212.25Q385.5 206.5 385.0 204.5Q383.0 197.5 378.25 194.5Q373.5 191.5 358.5 190.0Q348.0 188.5 340.25 186.25Q332.5 184.0 332.5 180.5Q332.5 179.0 337.25 174.0Q342.0 169.0 349.5 164.0V164.5Q351.5 163.0 354.75 160.5Q358.0 158.0 360.5 154.5Q368.0 149.0 376.75 142.0Q385.5 135.0 392.5 128.5Q403.5 119.0 413.0 112.75Q422.5 106.5 424.5 106.5Q426.0 108.0 426.0 111.0Q426.0 116.5 423.5 127.5Q422.0 132.5 421.5 136.75Q421.0 141.0 421.0 144.0L421.5 147.0Q423.0 148.0 432.5 148.75Q442.0 149.5 454.0 149.5Q468.0 149.5 477.75 151.25Q487.5 153.0 487.5 155.5Q487.5 158.5 477.75 160.5Q468.0 162.5 453.5 162.5Q437.0 162.5 429.75 164.0Q422.5 165.5 422.5 170.0Q422.5 172.5 424.25 176.25Q426.0 180.0 428.0 185.0Q430.5 190.0 438.0 191.5Q445.5 193.0 468.0 193.0H503.0V176.5Q503.0 169.5 500.0 152.75Q497.0 136.0 492.5 120.5ZM341.0 71.0Q333.0 66.0 327.75 63.0Q322.5 60.0 321.0 60.0Q320.5 60.0 320.5 65.5Q320.5 71.0 320.5 78.5Q320.5 86.5 321.0 90.5Q321.5 94.5 324.0 94.5Q326.5 94.5 330.75 92.25Q335.0 90.0 342.5 86.0L356.0 79.0Q352.5 76.5 348.75 74.75Q345.0 73.0 341.0 71.0ZM411.5 139.0Q411.5 137.0 410.0 135.0Q408.5 133.0 407.5 133.0Q404.0 133.0 399.5 138.25Q395.0 143.5 394.5 147.0Q396.0 148.5 398.5 148.5Q403.0 148.5 407.25 145.5Q411.5 142.5 411.5 139.0ZM412.0 178.5Q407.5 165.0 402.5 164.0Q398.5 165.0 398.5 175.0Q398.5 182.0 401.75 186.75Q405.0 191.5 412.5 191.5Q415.5 191.5 415.5 189.0Q415.5 185.5 412.0 178.5ZM538.5 32.0Q538.5 31.5 528.75 31.25Q519.0 31.0 507.0 31.0Q490.0 31.0 483.75 31.5Q477.5 32.0 477.5 34.0Q477.5 35.5 478.5 36.5Q480.0 42.0 482.0 48.25Q484.0 54.5 486.0 60.5Q492.5 78.0 497.5 95.0Q502.5 112.0 504.5 116.0Q505.5 115.0 508.0 109.0Q510.5 103.0 512.5 94.5Q516.5 80.0 522.0 66.75Q527.5 53.5 534.5 40.0Q536.0 37.0 537.25 34.75Q538.5 32.5 538.5 32.0ZM150.5 397.5 140.5 395.5Q117.5 390.0 95.0 383.25Q72.5 376.5 50.0 368.5Q40.0 366.0 36.5 364.5Q34.0 364.5 31.0 391.5Q30.5 399.5 30.25 407.5Q30.0 415.5 30.0 424.0H30.5Q34.5 424.0 46.75 421.5Q59.0 419.0 73.5 415.0Q91.0 410.0 110.5 406.0Q130.0 402.0 138.5 400.0ZM312.0 305.0Q296.0 297.5 287.0 294.5Q278.0 291.5 273.0 291.5Q270.0 291.5 269.0 292.5H270.0Q268.5 293.0 267.5 304.5Q266.5 316.0 266.5 330.5Q266.5 343.5 267.5 355.5Q268.5 367.5 270.0 373.0Q271.5 379.0 276.25 381.25Q281.0 383.5 296.0 384.5Q301.5 385.0 308.75 385.0Q316.0 385.0 323.5 385.0Q331.5 385.0 338.75 385.0Q346.0 385.0 352.5 384.5Q366.5 383.5 372.5 382.75Q378.5 382.0 379.75 379.25Q381.0 376.5 381.0 370.5Q381.0 364.5 374.75 355.5Q368.5 346.5 358.25 336.5Q348.0 326.5 335.75 318.0Q323.5 309.5 312.0 305.0ZM401.0 380.0Q401.0 377.5 400.0 377.5Q399.5 377.5 398.0 378.5Q396.5 379.5 396.0 381.5L395.5 382.5Q395.5 384.0 396.5 384.0Q401.0 384.0 401.0 380.0ZM479.5 265.0H480.0Q467.5 253.5 458.25 243.25Q449.0 233.0 446.0 229.0Q444.5 232.0 443.25 246.25Q442.0 260.5 441.0 280.25Q440.0 300.0 439.25 320.25Q438.5 340.5 438.5 356.0Q438.5 365.5 439.0 371.75Q439.5 378.0 440.5 379.0Q441.0 381.0 451.5 382.5Q462.0 384.0 475.5 384.0H508.5V299.5ZM504.5 237.0 502.0 207.0H475.0Q463.5 207.0 455.5 207.25Q447.5 207.5 447.5 208.5Q447.5 210.5 452.75 217.75Q458.0 225.0 466.0 234.0Q474.0 243.0 482.25 251.75Q490.5 260.5 496.75 266.25Q503.0 272.0 504.5 272.0Q505.5 271.0 505.5 261.0Q505.5 256.0 505.25 250.0Q505.0 244.0 504.5 237.0ZM457.5 12.5Q460.0 10.0 463.0 10.0Q466.0 10.0 471.0 12.5Q474.5 14.0 489.5 15.75Q504.5 17.5 521.0 17.5Q541.5 17.5 553.25 19.5Q565.0 21.5 565.0 25.0Q565.0 29.0 557.5 32.5Q554.0 34.0 548.5 42.5Q543.0 51.0 537.5 64.0Q532.0 77.0 527.5 91.25Q523.0 105.5 520.5 118.0Q517.0 149.0 516.5 180.25Q516.0 211.5 516.0 244.0Q516.0 262.0 516.75 272.25Q517.5 282.5 519.5 288.25Q521.5 294.0 525.5 299.0Q529.5 302.5 531.5 306.25Q533.5 310.0 534.5 311.5Q534.5 314.5 532.0 314.5Q530.5 315.0 528.5 315.5Q526.5 316.0 524.0 316.0Q520.5 316.0 520.5 317.5V353.0Q520.5 368.0 521.0 374.5Q521.5 381.0 523.75 382.5Q526.0 384.0 531.0 384.0Q537.0 384.0 541.0 385.75Q545.0 387.5 545.0 390.0Q545.0 393.5 541.0 395.5Q537.0 397.5 531.0 397.5Q520.5 397.5 520.5 402.5Q520.5 410.5 515.0 410.5Q510.5 410.5 506.5 403.0Q505.0 400.0 497.75 398.75Q490.5 397.5 473.0 397.5Q457.0 397.5 447.75 399.0Q438.5 400.5 438.5 403.0Q438.5 404.0 441.5 405.0Q443.5 407.0 445.5 410.0Q447.5 413.0 447.5 415.0Q447.5 417.5 444.5 417.5Q443.0 417.5 438.75 415.5Q434.5 413.5 430.5 408.5Q425.0 404.5 420.5 402.25Q416.0 400.0 408.25 399.0Q400.5 398.0 385.25 397.75Q370.0 397.5 343.0 397.5H271.5V412.5Q271.5 431.0 265.5 431.0Q263.5 431.0 261.5 426.5Q259.5 422.0 258.5 413.0L256.0 400.0L228.5 400.5Q211.0 401.5 185.5 405.5Q160.0 409.5 132.5 415.0Q105.0 420.5 80.25 426.75Q55.5 433.0 39.25 438.5Q23.0 444.0 20.5 447.5Q18.0 451.5 15.5 451.5Q13.0 451.5 11.5 447.75Q10.0 444.0 10.0 439.5Q10.0 436.0 10.75 431.75Q11.5 427.5 13.0 424.5Q17.0 418.0 18.25 406.25Q19.5 394.5 19.5 380.0Q19.0 377.0 19.0 373.5Q19.0 370.0 19.0 367.0Q19.0 358.0 20.0 352.25Q21.0 346.5 23.0 346.5H23.5Q26.0 346.5 33.5 349.0Q41.0 351.5 49.0 355.5Q83.0 370.0 120.0 377.0Q157.0 384.0 203.5 384.0H259.5V372.0Q259.5 368.5 259.25 360.5Q259.0 352.5 258.0 342.5Q258.0 337.0 257.25 331.5Q256.5 326.0 256.0 320.5Q254.5 304.0 253.25 296.25Q252.0 288.5 250.0 286.25Q248.0 284.0 243.0 284.0Q230.0 284.0 230.0 277.0Q230.0 270.5 243.0 261.5Q254.5 251.0 254.5 238.0V225.0L186.5 227.0Q158.0 227.5 139.5 229.0Q121.0 230.5 107.75 234.25Q94.5 238.0 82.5 245.25Q70.5 252.5 54.5 264.5Q48.5 270.0 43.25 273.5Q38.0 277.0 35.5 277.0Q35.5 277.0 35.0 276.25Q34.5 275.5 34.5 275.0V263.5Q34.5 253.0 34.75 236.75Q35.0 220.5 35.25 204.25Q35.5 188.0 36.0 176.5Q36.5 165.0 36.5 164.0H38.5Q41.0 164.0 52.0 176.5L56.0 181.0Q66.0 192.0 74.25 198.5Q82.5 205.0 93.75 208.0Q105.0 211.0 124.25 211.75Q143.5 212.5 175.0 212.5Q195.5 212.5 212.75 212.0Q230.0 211.5 240.5 210.75Q251.0 210.0 251.0 209.0Q251.5 209.0 251.5 207.0Q251.5 201.0 248.5 187.5Q245.5 174.0 240.5 157.25Q235.5 140.5 230.0 124.5Q224.5 108.5 219.0 97.0L206.5 67.5L259.0 70.0L308.0 73.0V54.0Q308.0 45.5 309.5 38.75Q311.0 32.0 312.0 32.0Q313.5 32.0 320.25 37.0Q327.0 42.0 335.0 50.5L354.0 66.0H431.0Q454.0 66.0 463.25 65.0Q472.5 64.0 472.5 59.0Q472.5 56.0 470.0 50.25Q467.5 44.5 463.5 36.5L461.5 33.0Q457.5 22.5 457.5 12.5Z" fill="black" /></svg>