<svg xmlns="http://www.w3.org/2000/svg" width="566.5" height="382.0" viewBox="0 0 566.5 382.0"><path d="M73.5 271.5Q69.0 270.0 59.5 265.75Q50.0 261.5 41.5 257.5L21.0 248.0V302.0L35.5 292.5Q41.5 288.5 51.0 283.75Q60.5 279.0 67.5 277.0Q74.0 275.0 77.0 274.25Q80.0 273.5 80.0 273.5Q80.0 273.5 78.25 273.0Q76.5 272.5 73.5 271.5ZM270.5 310.0V309.5Q262.5 304.0 259.5 304.0Q255.0 304.0 255.0 321.0V327.5Q255.5 337.5 255.75 345.0Q256.0 352.5 256.0 352.5Q257.0 352.5 260.5 350.0Q264.0 347.5 268.5 344.0Q273.5 340.0 283.0 335.75Q292.5 331.5 300.5 329.5L315.5 326.5L298.0 320.5Q288.5 317.0 280.75 314.0Q273.0 311.0 270.5 310.0ZM51.5 141.5V142.0Q52.5 140.0 53.25 138.5Q54.0 137.0 54.5 136.5Q53.5 137.0 52.0 138.0Q50.5 139.0 48.5 140.0Q46.0 141.0 43.75 143.25Q41.5 145.5 41.5 146.5Q41.5 149.0 43.0 149.0Q47.0 149.0 51.5 141.5ZM42.0 91.5V91.0Q35.5 86.5 33.0 86.5Q30.0 86.5 30.0 94.5Q30.0 96.0 30.0 98.25Q30.0 100.5 30.5 103.5Q31.5 114.0 34.0 118.75Q36.5 123.5 43.0 123.5Q48.0 123.5 55.0 121.75Q62.0 120.0 71.5 116.5L91.5 109.5L73.0 104.0Q64.0 101.0 55.0 97.25Q46.0 93.5 42.0 91.5ZM292.5 103.5Q290.0 102.5 281.0 101.25Q272.0 100.0 266.0 100.0Q262.0 100.0 262.0 99.5Q262.0 100.5 264.25 107.0Q266.5 113.5 269.0 121.5L275.5 139.5L284.0 122.5Q288.0 115.5 290.0 110.25Q292.0 105.0 292.5 103.5ZM486.5 81.5 480.5 60.5 396.5 61.0Q363.5 61.0 343.5 61.5Q323.5 62.0 311.75 63.75Q300.0 65.5 292.25 68.75Q284.5 72.0 275.5 77.5Q266.0 83.5 266.0 86.5Q266.0 91.0 291.0 91.0Q299.5 91.0 305.75 92.5Q312.0 94.0 312.0 95.0Q312.0 96.0 310.0 99.5Q308.0 103.0 305.0 107.5L303.5 110.0Q297.5 118.0 294.0 125.75Q290.5 133.5 288.5 145.25Q286.5 157.0 285.25 175.75Q284.0 194.5 283.0 224.5L280.5 303.0L314.0 313.0Q325.5 316.5 334.5 318.75Q343.5 321.0 354.5 322.0Q365.5 323.0 382.5 323.25Q399.5 323.5 427.0 323.5H505.0V242.5Q505.0 211.5 504.25 190.0Q503.5 168.5 501.5 151.5Q499.5 134.5 495.75 118.0Q492.0 101.5 486.5 81.5ZM290.5 41.5Q285.5 39.5 280.75 38.0Q276.0 36.5 272.0 34.5Q268.0 33.0 264.75 31.75Q261.5 30.5 260.0 30.0Q259.5 29.5 258.0 29.5Q256.5 29.5 256.0 32.25Q255.5 35.0 255.5 42.0V50.0Q255.5 61.0 256.0 67.5Q256.5 74.0 256.5 74.0Q258.0 73.0 262.75 70.75Q267.5 68.5 272.5 65.5L275.0 64.0Q283.5 59.5 291.75 56.5Q300.0 53.5 302.5 53.5Q311.0 53.5 311.0 52.0Q311.0 49.0 290.5 41.5ZM525.0 61.5 537.5 37.5Q536.5 36.5 528.75 36.25Q521.0 36.0 510.0 36.0Q494.0 36.0 488.5 36.25Q483.0 36.5 483.0 38.5Q483.0 39.5 483.5 40.5Q484.5 43.5 488.25 55.25Q492.0 67.0 496.0 80.5Q500.0 93.5 503.25 103.25Q506.5 113.0 507.0 114.0V113.5Q508.0 113.5 509.0 109.5Q510.0 105.5 510.5 100.0Q512.0 93.0 516.0 81.5Q520.0 70.0 525.0 61.5ZM10.0 275.5V259.5Q10.0 247.5 10.5 239.75Q11.0 232.0 12.5 232.0Q14.0 232.0 19.25 234.5Q24.5 237.0 30.5 240.5Q36.0 244.0 49.25 249.75Q62.5 255.5 75.0 260.0Q85.5 263.5 94.0 265.75Q102.5 268.0 113.25 269.25Q124.0 270.5 141.5 271.25Q159.0 272.0 187.5 272.5Q210.0 273.0 228.75 274.0Q247.5 275.0 258.75 276.5Q270.0 278.0 270.0 279.5Q270.0 281.0 257.75 282.25Q245.5 283.5 224.5 284.25Q203.5 285.0 177.0 285.0Q151.5 285.0 128.5 285.5Q105.5 286.0 89.5 287.0Q73.5 288.0 69.0 289.0H69.5Q63.0 291.0 53.0 296.75Q43.0 302.5 35.0 308.0V307.5Q27.5 313.5 21.5 317.5Q15.5 321.5 14.0 321.5H13.5Q12.5 320.5 11.75 307.25Q11.0 294.0 10.0 275.5ZM242.5 11.0 243.0 10.5Q243.5 10.5 243.75 10.25Q244.0 10.0 244.5 10.0Q247.0 10.0 253.25 12.5Q259.5 15.0 266.5 18.5Q283.0 27.0 296.75 32.5Q310.5 38.0 325.5 41.0Q340.5 44.0 359.5 45.5Q378.5 47.0 405.5 48.0Q421.5 48.5 432.75 48.75Q444.0 49.0 451.5 49.0Q466.0 49.0 469.0 47.75Q472.0 46.5 472.0 43.0Q472.0 35.5 468.0 34.0Q463.5 31.0 463.5 28.0Q463.5 23.0 486.0 23.0Q490.5 23.0 501.5 23.25Q512.5 23.5 524.75 24.0Q537.0 24.5 546.25 25.5Q555.5 26.5 556.5 27.5Q556.5 29.0 554.0 34.0Q551.5 39.0 546.5 45.0Q542.0 51.0 536.25 61.75Q530.5 72.5 526.5 81.5Q523.5 89.0 521.5 97.0Q519.5 105.0 518.5 119.0Q517.5 133.0 517.0 159.25Q516.5 185.5 516.0 230.0Q515.5 266.0 514.5 295.5Q513.5 325.0 512.5 342.25Q511.5 359.5 510.0 359.5Q508.0 359.5 506.5 355.75Q505.0 352.0 504.0 346.5L502.5 336.5L419.0 335.5Q407.5 335.0 397.5 335.0Q387.5 335.0 379.0 335.0Q347.0 335.0 327.5 337.0Q308.0 339.0 295.0 343.75Q282.0 348.5 269.0 357.5Q261.0 364.0 253.75 368.0Q246.5 372.0 245.5 372.0Q244.0 372.0 244.0 366.0Q244.0 363.0 244.25 359.0Q244.5 355.0 245.0 350.5Q245.5 347.0 245.75 343.0Q246.0 339.0 246.0 335.0Q246.0 328.5 245.5 321.75Q245.0 315.0 244.0 309.5Q243.5 304.5 242.75 300.5Q242.0 296.5 242.0 294.0Q243.0 286.5 247.0 286.5Q250.5 286.5 261.5 292.0L272.0 298.5V230.5Q272.0 203.5 271.25 186.5Q270.5 169.5 269.0 158.75Q267.5 148.0 265.0 140.5L258.5 121.0L190.5 119.5Q177.0 119.0 165.75 119.0Q154.5 119.0 145.5 119.0Q117.5 119.0 103.0 120.75Q88.5 122.5 81.0 127.0Q73.5 131.5 66.5 140.0Q60.0 148.0 56.75 153.5Q53.5 159.0 52.5 168.25Q51.5 177.5 51.0 197.0Q50.0 214.0 48.25 226.5Q46.5 239.0 44.5 239.0Q42.5 239.0 41.0 228.0Q39.5 217.0 39.5 201.5Q39.5 175.5 37.5 166.0Q35.5 156.5 30.0 156.5H27.5Q24.0 156.5 22.25 146.75Q20.5 137.0 19.5 123.25Q18.5 109.5 18.25 96.75Q18.0 84.0 18.0 78.0Q18.0 70.0 19.0 68.0H19.5Q21.0 68.0 26.25 70.5Q31.5 73.0 38.0 77.0Q45.5 81.0 60.25 87.0Q75.0 93.0 88.5 97.0Q99.0 100.5 107.5 102.5Q116.0 104.5 125.75 105.5Q135.5 106.5 149.75 107.0Q164.0 107.5 186.5 107.5Q221.5 107.5 236.5 106.5Q251.5 105.5 251.5 103.0Q251.5 102.0 247.5 99.5Q244.0 97.5 244.0 88.0Q244.0 85.5 244.25 82.5Q244.5 79.5 245.0 76.0Q245.5 72.5 245.75 68.75Q246.0 65.0 246.0 60.5Q246.0 54.0 245.5 47.25Q245.0 40.5 244.0 35.5Q243.0 29.5 242.5 24.25Q242.0 19.0 242.0 15.5Q242.0 12.5 243.0 10.5Z" fill="black" /></svg>