<svg xmlns="http://www.w3.org/2000/svg" width="595.5" height="385.0" viewBox="0 0 595.5 385.0"><path d="M121.5 320.0Q112.5 319.0 96.0 314.25Q79.5 309.5 64.5 304.5L32.5 292.5L31.0 321.5V328.0Q30.5 334.5 30.25 340.5Q30.0 346.5 30.0 352.5Q32.5 352.5 40.0 351.0Q47.5 349.5 57.0 347.0Q69.0 343.5 88.75 339.0Q108.5 334.5 124.0 332.0Q132.5 330.0 142.0 327.5Q151.5 325.0 151.5 325.0Q146.0 324.0 138.25 322.5Q130.5 321.0 121.5 320.0ZM285.0 175.0 271.0 167.0Q272.0 173.0 272.75 182.0Q273.5 191.0 273.5 198.0V215.0L285.0 207.5Q290.5 205.0 300.5 201.0Q310.5 197.0 317.0 195.0L328.5 192.0L318.0 189.0Q310.0 186.5 300.75 182.5Q291.5 178.5 285.0 175.0ZM135.5 50.0H110.5Q101.5 50.0 94.5 49.75Q87.5 49.5 85.5 49.0Q86.0 49.5 86.75 50.75Q87.5 52.0 88.0 54.0Q90.5 58.5 94.25 65.25Q98.0 72.0 101.5 80.0Q105.5 88.5 108.75 98.25Q112.0 108.0 112.0 108.0Q114.5 101.5 115.5 97.0Q116.5 91.5 120.25 83.25Q124.0 75.0 127.5 68.5Q131.0 61.5 133.25 56.0Q135.5 50.5 135.5 50.0ZM222.0 105.0 246.5 49.0Q245.0 49.5 238.25 49.75Q231.5 50.0 222.0 50.0H196.5Q196.5 50.5 199.25 54.75Q202.0 59.0 205.5 64.0Q210.0 70.5 213.5 77.75Q217.0 85.0 218.0 89.5ZM545.5 67.0Q548.5 59.5 552.75 50.25Q557.0 41.0 560.25 34.0Q563.5 27.0 563.5 27.0Q559.0 27.5 549.75 28.0Q540.5 28.5 529.0 28.5H496.5Q496.5 28.5 499.75 33.5Q503.0 38.5 507.5 45.0Q512.0 52.0 517.0 64.25Q522.0 76.5 524.0 87.5V86.5L529.0 109.0Q532.0 101.0 536.75 88.25Q541.5 75.5 545.5 67.0ZM216.5 35.0Q228.5 34.5 238.25 34.0Q248.0 33.5 253.0 33.0H257.5Q258.5 33.0 259.25 32.5Q260.0 32.0 260.5 32.0Q265.0 32.0 265.0 38.0Q265.0 44.5 259.0 54.5Q255.5 61.0 249.75 75.0Q244.0 89.0 239.0 102.0Q235.5 113.5 233.25 122.5Q231.0 131.5 230.0 142.75Q229.0 154.0 228.5 171.5Q228.0 189.0 228.0 218.0Q228.0 242.0 227.75 261.75Q227.5 281.5 226.5 293.0Q225.5 304.5 222.5 304.5Q220.0 304.5 218.5 291.0Q217.0 277.5 216.5 254.25Q216.0 231.0 215.5 202.5Q215.0 163.0 214.0 140.25Q213.0 117.5 210.5 104.5Q208.0 91.5 202.5 82.0Q197.0 72.5 187.0 60.0Q182.5 53.5 179.25 48.25Q176.0 43.0 176.0 41.0Q176.0 38.5 188.0 37.0Q200.0 35.5 216.5 35.0ZM550.5 14.5 579.0 10.0Q585.5 10.0 585.5 16.5Q585.5 21.0 580.5 25.5Q576.5 27.5 570.0 39.75Q563.5 52.0 556.75 69.5Q550.0 87.0 544.0 106.5Q540.5 119.0 538.25 129.5Q536.0 140.0 534.75 152.75Q533.5 165.5 532.5 183.75Q531.5 202.0 530.5 229.5Q529.0 275.0 528.25 294.25Q527.5 313.5 527.5 313.5H533.0Q536.0 313.5 538.5 315.5Q541.0 317.5 541.0 320.0Q541.0 326.0 534.5 326.0H527.0V338.0Q527.0 344.5 526.0 349.0Q525.0 353.5 521.5 353.5Q519.5 353.5 517.5 349.0Q515.5 344.5 515.5 338.0V326.0L358.0 328.0Q305.5 328.5 271.75 329.25Q238.0 330.0 216.75 331.25Q195.5 332.5 180.25 334.5Q165.0 336.5 148.5 340.0Q122.5 345.0 96.5 351.25Q70.5 357.5 51.25 363.25Q32.0 369.0 25.0 373.0Q19.5 375.0 16.5 375.0Q10.0 375.0 10.0 367.5Q10.0 362.0 14.0 356.5Q16.0 351.0 17.75 338.0Q19.5 325.0 19.5 309.5Q19.5 294.5 20.5 283.75Q21.5 273.0 22.5 273.0Q22.5 273.0 32.75 277.0Q43.0 281.0 55.5 286.5Q68.0 292.0 79.75 295.0Q91.5 298.0 96.5 300.0H98.0L105.0 302.0L103.5 205.0Q103.0 166.0 102.0 142.75Q101.0 119.5 98.25 105.5Q95.5 91.5 90.0 81.75Q84.5 72.0 75.5 60.5Q70.5 54.5 67.75 48.75Q65.0 43.0 65.0 41.0L66.0 39.5Q67.0 38.5 79.0 37.75Q91.0 37.0 107.0 36.5Q123.0 36.0 135.5 36.0Q143.5 36.0 149.0 36.75Q154.5 37.5 154.5 40.5Q154.0 41.0 153.25 42.5Q152.5 44.0 151.5 46.5Q149.5 49.0 148.0 52.5Q146.5 56.0 144.5 60.0Q136.0 77.0 130.5 90.75Q125.0 104.5 122.0 119.5Q119.0 134.5 118.0 153.75Q117.0 173.0 117.0 201.0V222.5L118.5 306.5L137.0 309.5Q141.5 310.0 159.25 310.75Q177.0 311.5 204.5 312.0Q232.0 312.5 266.0 313.0Q300.0 313.5 337.0 313.5H516.5L518.0 278.5Q518.0 271.0 518.25 263.0Q518.5 255.0 518.5 247.0Q518.5 238.0 518.75 230.25Q519.0 222.5 519.5 217.5L520.0 194.5L448.5 193.5H432.5Q399.5 193.5 377.0 195.5Q354.5 197.5 336.0 203.0Q317.5 208.5 295.0 219.5Q283.0 225.0 273.75 229.0Q264.5 233.0 263.0 233.0Q261.0 233.0 260.0 220.0Q259.0 207.0 258.5 188.5Q258.5 170.0 259.5 157.0Q260.5 144.0 261.5 144.0Q262.5 144.0 265.75 146.25Q269.0 148.5 274.0 152.0L278.5 155.5Q289.0 163.5 299.25 168.25Q309.5 173.0 324.25 175.5Q339.0 178.0 363.5 178.75Q388.0 179.5 427.0 179.5H520.0L519.5 138.0Q519.0 104.0 510.75 81.0Q502.5 58.0 486.5 37.5Q482.0 31.5 478.75 25.75Q475.5 20.0 475.5 18.0Q475.5 14.5 488.0 14.5Q491.5 14.5 495.5 14.5Q499.5 14.5 503.0 15.0Q507.0 15.5 511.75 15.75Q516.5 16.0 521.0 16.0Q529.5 16.0 537.25 15.5Q545.0 15.0 550.5 14.5Z" fill="black" /></svg>