<svg xmlns="http://www.w3.org/2000/svg" width="846.0" height="456.0" viewBox="0 0 846.0 456.0"><path d="M158.0 303.5 145.0 298.0Q132.5 292.5 116.25 284.25Q100.0 276.0 90.0 270.0L64.0 256.0L59.0 268.5Q56.0 275.0 52.25 280.75Q48.5 286.5 45.5 290.5Q40.0 294.5 40.0 294.5Q40.0 296.5 49.0 296.75Q58.0 297.0 77.0 298.0Q93.5 298.0 113.75 299.0Q134.0 300.0 146.0 301.0ZM170.0 104.0Q171.0 101.0 172.5 99.0Q174.0 97.0 174.0 96.0Q174.0 95.0 165.5 95.0Q160.5 95.0 159.0 96.0Q157.5 97.0 156.0 98.5Q156.0 99.5 157.0 100.25Q158.0 101.0 158.0 101.5Q159.5 111.5 163.5 111.5Q166.0 111.5 170.0 104.0ZM250.5 162.5Q254.0 159.5 254.0 159.0Q253.5 160.0 245.5 160.0Q236.0 160.0 236.0 162.0L236.5 164.0Q238.0 166.0 240.0 167.75Q242.0 169.5 242.5 169.5Q245.5 169.5 250.5 162.5ZM372.5 239.5Q372.0 235.5 367.5 235.5Q363.5 235.5 363.5 240.0Q363.5 242.5 367.0 242.5Q367.0 242.5 367.25 242.25Q367.5 242.0 368.0 241.5Q372.5 240.5 372.5 239.5ZM372.5 293.0Q372.0 289.5 368.0 289.5Q363.5 289.5 363.5 294.5Q363.5 297.0 367.0 297.0H368.5Q372.5 295.0 372.5 293.0ZM537.0 283.5 530.0 276.5H529.5Q526.0 271.5 522.5 268.0Q519.0 264.5 516.5 264.5Q516.0 264.5 513.25 268.5Q510.5 272.5 508.0 277.5Q505.5 282.5 504.5 285.5Q507.0 285.5 511.5 285.5Q516.0 285.5 522.0 285.0ZM348.0 97.5Q348.5 96.0 348.5 92.0Q348.5 91.0 344.5 90.75Q340.5 90.5 330.0 90.5Q320.0 90.5 315.25 91.0Q310.5 91.5 310.0 92.0Q310.5 93.5 311.5 95.5Q312.5 97.5 315.5 100.5Q318.0 104.0 322.25 110.75Q326.5 117.5 327.5 124.5L330.5 135.5L336.0 124.5Q339.5 117.5 343.25 110.0Q347.0 102.5 348.0 97.5ZM364.5 89.0 363.5 89.5Q364.5 89.5 364.5 89.0ZM370.0 133.0Q370.0 129.5 365.5 127.5Q363.5 127.5 363.5 129.5Q363.5 135.5 367.5 135.5Q370.0 135.5 370.0 133.0ZM374.0 185.5Q373.0 185.0 371.5 184.5Q370.0 184.0 368.0 183.5Q367.5 182.5 367.25 182.5Q367.0 182.5 367.0 182.5Q363.5 182.5 363.5 185.0Q363.5 187.0 367.0 187.0H368.5Q370.0 186.5 371.5 186.0Q373.0 185.5 374.0 185.5ZM348.5 225.0V129.5Q348.5 129.5 347.5 131.75Q346.5 134.0 344.0 138.0L341.5 143.5Q338.5 149.0 337.0 160.0Q335.5 171.0 334.75 191.75Q334.0 212.5 334.0 248.5V337.0Q342.5 339.0 359.0 342.75Q375.5 346.5 395.5 350.75Q415.5 355.0 435.5 359.5Q455.5 364.0 471.75 367.5Q488.0 371.0 496.0 373.0Q505.5 375.0 514.25 376.75Q523.0 378.5 531.0 380.5Q578.5 390.5 606.0 396.0Q633.5 401.5 647.0 401.5Q658.5 401.5 661.75 397.5Q665.0 393.5 665.0 386.0V372.0Q664.0 369.0 663.75 366.5Q663.5 364.0 663.5 360.5L662.0 332.5L614.5 319.5Q581.5 309.5 560.0 305.25Q538.5 301.0 524.0 301.0Q514.5 301.0 508.25 302.5Q502.0 304.0 496.5 306.5Q490.0 310.0 486.0 312.0Q482.0 314.0 480.0 314.0Q476.5 314.0 475.75 311.5Q475.0 309.0 475.0 304.0Q475.0 301.5 472.25 300.75Q469.5 300.0 460.0 300.0Q454.5 300.0 446.75 300.25Q439.0 300.5 428.0 301.0Q406.5 302.5 395.75 304.0Q385.0 305.5 380.0 308.25Q375.0 311.0 370.0 316.5Q359.5 328.5 355.0 328.5H354.0Q352.0 327.0 351.0 312.75Q350.0 298.5 349.5 275.5Q349.0 252.5 348.5 225.0ZM550.0 138.0Q550.0 137.0 544.25 134.5Q538.5 132.0 530.0 129.0Q523.5 126.5 520.0 125.25Q516.5 124.0 515.5 123.5V124.5Q516.5 128.0 517.75 136.0Q519.0 144.0 519.0 151.5V164.0Q521.5 160.0 525.25 157.5Q529.0 155.0 532.5 152.0Q539.5 147.0 544.75 142.5Q550.0 138.0 550.0 138.0ZM700.0 196.0Q700.0 196.0 694.0 195.75Q688.0 195.5 679.0 195.5H660.5L667.5 208.0Q673.5 219.0 676.0 225.0Q678.0 224.5 683.5 218.0Q689.0 211.5 694.25 204.75Q699.5 198.0 700.0 196.0ZM795.5 44.0 803.0 35.5H750.5L759.0 50.0Q763.0 58.0 765.5 67.75Q768.0 77.5 768.0 83.5Q768.0 94.0 770.5 94.0Q771.5 94.0 774.25 90.0Q777.0 86.0 779.5 78.0Q782.0 71.0 787.0 60.75Q792.0 50.5 795.5 44.0ZM759.0 405.0V393.5L757.0 358.0Q753.5 357.0 745.25 354.75Q737.0 352.5 728.75 350.25Q720.5 348.0 717.0 347.5L678.5 337.0L677.0 360.5Q677.0 364.5 677.0 368.5Q677.0 372.5 676.5 376.0V393.5Q676.5 407.5 681.5 411.0Q686.5 414.5 703.5 417.5Q706.5 418.0 708.75 418.75Q711.0 419.5 714.0 420.5L731.0 424.5Q741.5 425.5 749.25 427.25Q757.0 429.0 757.0 429.0Q758.5 429.0 758.75 422.0Q759.0 415.0 759.0 405.0ZM238.5 143.5Q253.5 143.5 267.5 142.25Q281.5 141.0 286.0 140.5Q291.5 140.5 295.25 142.0Q299.0 143.5 299.0 148.0Q299.0 151.0 295.75 153.0Q292.5 155.0 287.5 155.0Q283.5 155.0 276.0 160.5Q268.5 166.0 261.25 174.5Q254.0 183.0 249.5 191.5Q247.5 196.0 245.75 214.0Q244.0 232.0 244.0 253.5Q244.0 279.5 242.25 294.75Q240.5 310.0 236.5 310.0Q234.5 310.0 232.75 292.0Q231.0 274.0 231.0 243.5Q231.0 211.0 229.0 193.0Q227.0 175.0 222.25 167.5Q217.5 160.0 209.0 160.0Q206.0 160.0 203.0 158.0Q200.0 156.0 200.0 152.0Q200.0 149.5 211.5 146.75Q223.0 144.0 238.5 143.5ZM812.5 16.0Q815.0 13.5 818.75 12.0Q822.5 10.5 825.0 10.0Q827.5 10.5 830.5 11.75Q833.5 13.0 835.5 15.5Q835.5 16.0 835.5 17.0Q835.5 18.0 836.0 19.0Q835.5 25.0 827.5 31.0Q817.5 36.0 805.25 58.5Q793.0 81.0 783.5 110.5Q780.0 122.0 778.0 133.25Q776.0 144.5 775.0 162.0Q774.0 179.5 773.5 209.75Q773.0 240.0 773.0 289.5Q773.0 345.5 773.75 377.0Q774.5 408.5 775.5 421.5Q776.5 434.5 777.0 435.5Q782.5 438.0 783.5 441.5Q783.5 444.5 781.5 446.0H780.0Q777.0 446.0 758.25 442.5Q739.5 439.0 709.25 433.0Q679.0 427.0 640.5 418.75Q602.0 410.5 558.5 401.5Q486.5 386.5 441.0 376.75Q395.5 367.0 371.0 362.5Q346.5 358.0 337.5 358.0Q332.0 358.0 331.5 359.5V358.0Q327.5 362.0 324.0 362.0Q320.0 362.0 320.0 355.0Q320.0 352.0 307.75 348.25Q295.5 344.5 267.0 338.75Q238.5 333.0 189.5 324.5Q159.0 319.5 127.25 316.75Q95.5 314.0 71.0 314.0Q54.0 314.0 41.75 315.5Q29.5 317.0 25.5 319.5Q18.5 322.0 14.5 322.0Q11.0 322.0 10.0 318.5Q11.0 309.5 29.0 287.5Q38.5 276.0 44.0 267.5Q49.5 259.0 49.5 254.0V253.5Q49.0 251.0 47.75 246.25Q46.5 241.5 45.5 239.5V236.0Q45.5 226.5 54.0 225.0H56.0Q64.0 225.0 64.0 234.0Q64.0 237.0 68.0 240.5Q72.0 244.0 84.75 250.5Q97.5 257.0 123.0 270.0L148.5 283.5L151.5 233.5Q153.0 219.5 153.5 206.5Q154.0 193.5 154.0 182.5Q154.0 141.0 148.0 118.0Q142.0 95.0 130.0 95.0Q121.0 95.0 121.0 88.0Q121.0 83.5 129.25 81.75Q137.5 80.0 149.5 80.0Q160.0 80.0 172.5 78.25Q185.0 76.5 190.5 74.0Q195.0 73.0 198.75 72.75Q202.5 72.5 205.0 72.5Q208.0 72.5 210.75 72.75Q213.5 73.0 216.0 74.0Q223.5 79.0 223.5 81.5Q223.5 85.0 217.5 85.0Q208.0 85.0 195.75 95.75Q183.5 106.5 177.5 121.5Q172.0 132.5 169.25 150.75Q166.5 169.0 165.5 206.0Q165.0 225.0 164.5 242.0Q164.0 259.0 163.25 270.25Q162.5 281.5 161.5 283.5Q161.5 286.5 172.0 290.75Q182.5 295.0 206.0 303.5Q219.5 308.5 237.25 313.75Q255.0 319.0 272.75 323.75Q290.5 328.5 303.5 331.5Q316.5 334.5 320.0 334.5V297.0Q320.0 284.0 319.5 267.75Q319.0 251.5 319.0 233.5Q319.0 190.5 317.5 164.75Q316.0 139.0 312.25 125.0Q308.5 111.0 301.25 104.5Q294.0 98.0 282.0 94.0Q275.5 91.5 270.5 87.5Q265.5 83.5 265.5 81.5Q265.5 79.0 279.0 77.25Q292.5 75.5 311.5 75.5Q330.0 75.5 350.5 73.5Q371.0 71.5 381.5 69.0Q389.0 68.0 394.25 66.5Q399.5 65.0 403.5 65.0Q407.5 65.0 412.5 68.25Q417.5 71.5 417.5 76.0Q417.5 80.5 409.0 80.5Q406.0 80.5 397.75 84.0Q389.5 87.5 381.5 93.0L364.5 105.0L375.5 114.5Q382.5 120.0 390.0 122.25Q397.5 124.5 417.5 124.5H472.0Q486.5 124.5 492.5 125.5Q498.5 126.5 498.5 129.0Q498.5 131.0 493.0 134.0H492.5Q490.0 137.0 474.25 138.75Q458.5 140.5 440.5 140.5Q419.5 140.5 402.0 142.75Q384.5 145.0 374.0 149.0Q363.5 153.0 363.5 157.5Q363.5 158.5 368.25 162.5Q373.0 166.5 379.5 169.5Q387.5 175.0 393.75 176.5Q400.0 178.0 412.5 178.0Q419.0 178.0 427.25 177.75Q435.5 177.5 446.0 177.0H478.5Q488.0 177.0 493.5 177.75Q499.0 178.5 499.0 181.0Q499.0 184.5 482.5 187.5Q466.0 190.5 443.5 192.5Q365.5 197.0 365.5 211.5Q365.5 217.0 379.0 224.5Q386.0 229.0 392.0 230.75Q398.0 232.5 409.0 232.5Q416.0 232.5 424.25 232.0Q432.5 231.5 445.0 230.5Q453.5 230.0 460.5 230.0Q467.5 230.0 472.5 230.0Q499.0 230.0 499.0 236.0Q499.0 239.5 482.25 242.5Q465.5 245.5 440.5 247.0Q366.0 251.5 364.5 264.5Q364.5 271.0 383.5 280.0Q390.0 283.5 397.75 284.5Q405.5 285.5 418.0 285.5Q423.5 285.5 429.5 285.5Q435.5 285.5 443.5 285.0Q464.5 283.5 478.0 281.0Q491.5 278.5 499.25 268.5Q507.0 258.5 510.0 236.0Q510.0 231.5 519.0 228.0Q519.5 228.0 519.75 227.5Q520.0 227.0 520.5 227.0Q526.0 227.0 526.0 235.5V243.5Q526.0 247.0 529.75 253.0Q533.5 259.0 544.5 269.0Q577.0 297.0 651.5 313.0L666.0 316.0L663.5 268.5Q663.0 242.0 660.0 227.75Q657.0 213.5 650.25 206.5Q643.5 199.5 631.0 195.5Q621.0 191.0 621.0 184.5V182.5Q622.0 181.5 633.5 180.75Q645.0 180.0 661.5 179.75Q678.0 179.5 695.0 179.25Q712.0 179.0 724.75 179.0Q737.5 179.0 740.5 179.0Q747.0 179.0 747.0 184.5Q747.0 187.5 742.5 191.5Q738.0 195.5 731.5 195.5Q726.0 195.5 716.75 202.75Q707.5 210.0 699.0 220.0Q690.5 230.0 686.0 239.5Q682.5 245.0 680.75 254.75Q679.0 264.5 679.0 277.5V288.0L681.0 320.5Q684.5 322.0 692.75 324.75Q701.0 327.5 709.0 329.5Q717.0 331.5 720.0 332.5L760.5 342.0L759.0 214.0Q758.5 170.5 757.75 143.25Q757.0 116.0 755.75 100.0Q754.5 84.0 752.75 75.25Q751.0 66.5 748.0 59.5Q744.5 51.5 739.25 44.25Q734.0 37.0 730.0 35.5Q720.0 29.5 720.0 25.0Q720.0 20.0 744.0 17.5Q747.5 17.5 753.25 18.25Q759.0 19.0 764.5 19.0Q771.0 19.5 776.75 19.75Q782.5 20.0 787.0 20.0Q809.0 20.0 812.5 16.0ZM493.0 78.5Q494.5 76.0 495.5 74.75Q496.5 73.5 498.5 73.5Q501.5 73.5 506.5 85.5Q511.5 97.5 527.0 108.25Q542.5 119.0 559.0 122.0H564.0Q574.0 122.0 596.25 117.25Q618.5 112.5 655.0 101.0Q686.0 92.0 709.75 86.25Q733.5 80.5 738.5 80.5H740.0Q740.5 81.5 741.25 82.75Q742.0 84.0 742.0 85.0Q742.0 90.0 735.5 93.0Q735.0 93.0 727.5 95.5Q720.0 98.0 708.5 101.5Q697.0 105.0 685.25 108.5Q673.5 112.0 665.0 114.75Q656.5 117.5 655.0 118.0Q635.0 123.5 616.0 129.75Q597.0 136.0 583.0 141.0Q569.0 146.0 564.0 148.5Q548.0 155.0 536.0 169.5Q524.0 184.0 524.0 195.5Q524.0 202.0 521.75 206.0Q519.5 210.0 517.0 210.0Q514.5 210.0 511.5 199.75Q508.5 189.5 506.5 174.5Q504.5 159.5 504.5 146.5Q504.5 140.5 502.75 130.5Q501.0 120.5 498.5 111.0Q494.5 101.0 493.75 94.5Q493.0 88.0 493.0 78.5Z" fill="black" /></svg>