<svg xmlns="http://www.w3.org/2000/svg" width="532.0" height="465.0" viewBox="0 0 532.0 465.0"><path d="M43.5 221.5H44.0L34.0 212.5Q34.0 216.5 34.0 223.5Q34.0 230.5 33.0 239.0Q32.5 249.0 32.5 259.5Q32.5 270.0 32.5 277.0Q32.5 278.5 32.25 279.0Q32.0 279.5 32.0 279.5Q32.0 280.0 32.5 280.5Q36.0 279.5 45.75 274.75Q55.5 270.0 68.0 263.5L98.0 249.5L88.0 246.0Q82.0 243.0 72.5 238.5Q63.0 234.0 54.75 229.25Q46.5 224.5 43.5 221.5ZM284.0 110.0 256.5 98.0Q250.0 95.0 244.25 92.0Q238.5 89.0 234.5 87.0L231.5 84.5Q232.5 85.5 232.5 93.5Q232.5 101.5 232.5 111.5L234.0 137.5Q239.0 133.5 246.5 128.75Q254.0 124.0 257.5 121.5Q263.5 117.5 268.0 116.0Q272.5 114.5 276.0 112.0Q279.0 111.5 279.25 111.5Q279.5 111.5 284.0 110.0ZM322.5 182.0H268.0Q271.0 186.0 273.75 190.0Q276.5 194.0 280.0 199.0Q286.0 207.5 289.5 216.25Q293.0 225.0 293.5 228.0Q295.5 230.5 297.0 231.5Q299.0 230.0 303.0 223.25Q307.0 216.5 311.5 207.5Q316.0 198.5 319.25 191.25Q322.5 184.0 322.5 182.0ZM493.5 35.5Q493.5 35.0 484.25 34.25Q475.0 33.5 460.5 33.5L432.0 35.5L441.5 63.0Q444.5 69.5 445.5 74.25Q446.5 79.0 448.5 84.0Q450.0 88.5 452.25 95.25Q454.5 102.0 458.0 114.5L465.5 134.5L471.0 110.0Q472.5 105.0 473.75 100.5Q475.0 96.0 476.5 91.0Q478.0 82.5 480.5 75.5Q483.0 68.5 485.0 60.5Q488.5 52.5 491.0 45.0Q493.5 37.5 493.5 35.5ZM141.5 396.5Q119.0 395.0 96.25 390.5Q73.5 386.0 52.5 378.0L25.0 368.0V395.0Q25.0 410.5 25.5 415.5Q26.0 420.5 29.0 420.5Q31.5 420.5 33.0 420.0Q44.0 416.5 61.75 412.5Q79.5 408.5 96.75 405.0Q114.0 401.5 122.5 400.5Q130.0 399.0 135.75 397.75Q141.5 396.5 141.5 396.5ZM410.0 18.0Q410.0 10.0 416.5 10.0Q422.0 10.0 425.5 15.0Q425.5 16.0 439.5 17.5Q453.5 19.0 472.0 19.0H522.0L506.0 46.0Q502.5 52.0 498.75 63.5Q495.0 75.0 491.25 88.25Q487.5 101.5 485.0 113.0Q482.5 124.5 481.0 131.0Q479.5 138.5 478.5 145.5Q477.5 152.5 477.25 164.5Q477.0 176.5 476.75 197.25Q476.5 218.0 476.5 252.5L475.0 388.5H498.0Q516.5 388.5 516.5 396.0Q516.5 400.5 511.75 401.75Q507.0 403.0 497.0 403.0H475.0V427.5Q475.0 438.5 473.5 446.75Q472.0 455.0 469.0 455.0Q467.0 455.0 464.5 446.75Q462.0 438.5 462.0 426.5V403.0H300.5V410.5Q300.5 415.5 298.25 418.75Q296.0 422.0 293.5 422.0Q291.5 422.0 288.5 418.75Q285.5 415.5 285.5 411.0V402.0H264.5Q251.0 402.0 225.0 404.0Q199.0 406.0 166.75 410.0Q134.5 414.0 102.5 419.5Q70.5 425.0 45.5 432.5Q32.0 437.0 21.5 438.5Q11.0 440.0 11.0 440.0Q11.0 440.0 10.5 438.0Q10.0 436.0 10.0 433.0Q10.0 426.5 10.75 412.75Q11.5 399.0 12.5 384.25Q13.5 369.5 14.5 358.5Q15.5 347.5 16.5 347.0H18.0Q20.0 347.0 25.0 352.0Q59.5 369.0 98.75 376.25Q138.0 383.5 178.5 385.25Q219.0 387.0 256.5 387.0H285.5L284.5 319.0L284.0 248.0L208.5 250.0Q182.0 250.5 165.5 251.25Q149.0 252.0 138.5 253.5Q128.0 255.0 119.5 258.0Q111.0 261.0 99.5 266.5Q85.5 271.5 69.25 279.0Q53.0 286.5 45.0 292.0Q37.0 297.5 30.0 302.0Q23.0 306.5 22.0 306.5Q20.5 306.5 20.0 295.25Q19.5 284.0 19.5 267.0Q19.5 250.5 19.75 232.5Q20.0 214.5 20.5 200.75Q21.0 187.0 21.5 183.5V184.5Q21.5 182.5 27.75 186.5Q34.0 190.5 42.0 199.0Q54.5 211.0 64.75 218.0Q75.0 225.0 88.75 228.5Q102.5 232.0 125.5 233.0Q148.5 234.0 186.0 234.0Q211.5 234.0 232.0 233.75Q252.5 233.5 265.25 232.75Q278.0 232.0 278.5 231.5Q278.5 219.0 270.75 209.0Q263.0 199.0 254.5 190.5Q247.5 181.5 243.0 174.25Q238.5 167.0 240.5 165.0Q241.5 165.0 257.5 165.0Q273.5 165.0 295.0 166.0L352.0 167.5L332.5 196.5Q327.5 204.5 323.0 213.0Q318.5 221.5 315.5 227.0L314.0 231.0Q313.5 232.5 313.25 233.5Q313.0 234.5 312.0 235.5Q311.5 236.0 310.75 237.5Q310.0 239.0 310.0 239.0Q309.5 240.0 309.5 241.0Q309.5 242.0 309.5 242.0Q309.0 242.5 308.75 243.75Q308.5 245.0 307.5 247.5L306.0 250.0Q305.5 253.5 304.0 260.5Q302.5 267.5 301.5 281.75Q300.5 296.0 300.5 320.5V387.0L462.0 388.5L461.5 281.0Q461.0 236.5 460.25 210.75Q459.5 185.0 458.0 170.5Q456.5 156.0 454.0 147.75Q451.5 139.5 447.5 130.5L441.5 114.5L372.5 115.5Q340.0 116.5 319.75 118.0Q299.5 119.5 287.0 122.5Q274.5 125.5 265.75 131.25Q257.0 137.0 247.5 146.5Q239.5 156.0 232.25 161.5Q225.0 167.0 223.5 167.0Q223.0 165.5 222.0 154.5Q221.0 143.5 220.0 128.0Q219.0 112.5 218.5 97.5Q218.0 82.5 218.0 73.5Q218.0 60.5 221.0 60.5Q221.5 60.5 227.75 64.25Q234.0 68.0 241.5 72.0Q260.0 83.5 275.25 90.0Q290.5 96.5 308.5 99.0Q326.5 101.5 352.0 101.5H372.5Q397.5 100.5 416.25 99.5Q435.0 98.5 435.0 98.0V97.5Q435.0 93.5 432.0 83.75Q429.0 74.0 425.0 61.5Q418.5 45.5 414.25 33.0Q410.0 20.5 410.0 18.0Z" fill="black" /></svg>