<svg xmlns="http://www.w3.org/2000/svg" width="371.5" height="387.5" viewBox="0 0 371.5 387.5"><path d="M95.0 236.0Q88.5 230.0 81.0 220.75Q73.5 211.5 68.0 205.0L57.5 192.0L43.5 228.0Q33.5 254.5 33.5 260.0V261.0Q34.5 261.0 35.0 260.5Q50.5 254.5 66.0 252.25Q81.5 250.0 97.0 250.0Q104.0 250.5 107.75 251.25Q111.5 252.0 111.5 252.0Q109.0 249.5 104.5 245.25Q100.0 241.0 95.0 236.0ZM119.0 80.5Q112.5 78.0 103.5 73.5Q94.5 69.0 88.0 65.5L75.0 56.5V113.0L103.5 98.5L135.0 85.5Q131.5 84.5 127.25 83.0Q123.0 81.5 119.0 80.5ZM325.0 139.0 306.5 141.0Q304.0 141.5 297.0 141.5Q290.0 141.5 280.0 141.5H266.0Q270.0 148.0 274.0 155.0Q278.0 162.0 281.5 169.0L297.5 199.5L302.0 181.0Q304.5 171.5 309.75 160.5Q315.0 149.5 322.0 142.5Q325.0 139.0 325.0 139.0ZM334.0 21.5Q331.5 21.5 327.75 21.75Q324.0 22.0 319.5 22.5Q307.5 24.0 297.0 24.0Q293.5 24.0 288.25 23.75Q283.0 23.5 278.5 23.0Q275.0 23.0 271.25 22.75Q267.5 22.5 265.0 22.5H264.5Q265.5 23.0 267.25 24.25Q269.0 25.5 271.0 27.0Q275.0 29.5 279.0 32.5Q283.0 35.5 285.0 38.0L298.5 54.5L308.0 42.0Q312.0 36.5 320.5 30.5Q329.0 24.5 334.0 21.5ZM238.0 14.0V12.5Q239.0 11.0 251.25 10.5Q263.5 10.0 279.0 10.0H342.0Q355.0 10.0 358.25 11.0Q361.5 12.0 361.5 16.0Q361.5 19.0 359.0 21.5Q356.5 24.0 353.0 24.0Q350.0 24.0 341.75 29.25Q333.5 34.5 325.5 41.0Q317.5 47.5 314.0 52.0Q310.5 56.0 309.5 61.25Q308.5 66.5 308.5 72.0Q312.0 72.0 318.75 72.75Q325.5 73.5 325.5 78.5Q325.5 80.5 322.5 82.25Q319.5 84.0 315.5 84.5Q313.5 85.0 311.0 85.0Q308.5 85.0 308.5 85.0Q308.0 95.5 307.75 105.75Q307.5 116.0 307.5 126.5Q309.5 126.5 314.75 126.0Q320.0 125.5 326.5 125.0Q330.0 124.5 333.0 124.25Q336.0 124.0 338.5 124.0Q348.5 124.0 348.5 128.0Q348.5 129.5 344.5 135.25Q340.5 141.0 334.5 148.0Q325.0 158.5 319.5 167.75Q314.0 177.0 311.25 190.25Q308.5 203.5 307.75 226.0Q307.0 248.5 307.0 285.5Q307.0 329.0 305.5 353.25Q304.0 377.5 301.5 377.5Q299.5 377.5 297.75 370.75Q296.0 364.0 296.0 355.5Q296.0 349.0 295.75 340.75Q295.5 332.5 295.5 332.5Q292.0 331.0 267.75 321.5Q243.5 312.0 193.5 293.5Q153.0 277.5 126.75 270.25Q100.5 263.0 81.5 263.0Q69.0 263.0 58.0 266.0Q47.0 269.0 35.5 275.0Q16.5 284.0 11.5 284.0H10.0V282.0Q10.0 279.5 13.25 271.0Q16.5 262.5 21.0 251.0L23.5 245.0Q30.0 230.5 36.25 214.25Q42.5 198.0 44.5 190.5Q47.0 182.0 49.75 176.0Q52.5 170.0 54.0 170.0Q55.5 170.0 61.25 176.75Q67.0 183.5 73.5 192.5Q79.0 200.5 88.25 211.0Q97.5 221.5 108.5 231.5Q119.5 241.5 129.75 249.5Q140.0 257.5 146.5 261.5Q149.5 263.0 161.0 267.75Q172.5 272.5 189.25 279.0Q206.0 285.5 224.0 292.5Q242.0 299.5 258.25 305.5Q274.5 311.5 285.0 315.25Q295.5 319.0 296.5 319.0V310.5Q296.5 308.0 296.5 304.75Q296.5 301.5 296.0 298.0Q296.0 269.5 293.75 245.25Q291.5 221.0 283.75 198.25Q276.0 175.5 258.5 151.5L242.5 128.5L296.0 127.0L296.5 110.0V103.0Q296.5 89.0 295.0 85.5Q294.0 84.5 275.5 84.5Q257.0 84.5 234.0 84.5Q208.5 84.5 193.25 85.25Q178.0 86.0 166.5 88.5Q155.0 91.0 139.5 96.5Q125.5 102.0 109.75 109.0Q94.0 116.0 87.0 120.5Q80.0 125.5 74.25 128.25Q68.5 131.0 67.5 131.0H67.0Q66.5 130.0 65.5 120.5Q64.5 111.0 63.5 97.25Q62.5 83.5 62.0 69.5Q61.5 55.5 61.5 45.5Q61.5 39.5 62.0 35.25Q62.5 31.0 63.5 31.0Q64.5 31.0 70.0 35.0Q75.5 39.0 82.5 45.5Q93.0 55.0 102.25 60.5Q111.5 66.0 124.0 68.75Q136.5 71.5 157.5 72.25Q178.5 73.0 213.0 73.0Q247.0 73.0 270.0 73.0Q293.0 73.0 293.0 72.5Q293.0 68.5 288.0 60.75Q283.0 53.0 274.5 44.5Q266.0 36.0 256.0 31.0Q248.5 25.5 243.25 20.75Q238.0 16.0 238.0 14.0Z" fill="black" /></svg>