<svg xmlns="http://www.w3.org/2000/svg" width="584.5" height="381.5" viewBox="0 0 584.5 381.5"><path d="M103.0 296.5 103.5 296.0Q103.0 296.0 103.0 296.0Q103.0 296.0 102.5 296.0Q100.0 296.0 89.5 300.0Q86.0 301.5 78.0 303.0Q70.0 304.5 63.0 304.5H48.5L56.0 314.0Q68.0 331.0 73.5 338.0Q79.0 345.0 81.0 345.0Q82.0 345.0 83.5 340.0Q85.0 334.5 89.75 324.5Q94.5 314.5 103.0 296.5ZM41.0 108.0Q42.5 108.0 44.5 102.25Q46.5 96.5 48.0 89.75Q49.5 83.0 49.5 80.5Q49.5 78.0 47.0 77.5Q44.5 77.0 38.5 77.0H26.5L33.5 95.0Q38.0 108.0 41.0 108.0ZM125.5 175.5Q124.0 174.5 120.25 172.25Q116.5 170.0 111.0 166.5L96.5 158.5V204.0L111.0 190.5Q116.5 185.0 120.75 180.75Q125.0 176.5 125.5 175.5ZM297.5 239.0 290.0 234.5Q284.5 231.5 274.75 224.75Q265.0 218.0 257.0 212.0L240.5 198.0L234.5 216.5L227.5 234.5H246.5Q255.5 234.5 266.75 235.5Q278.0 236.5 286.0 237.5ZM264.0 153.0Q258.5 148.5 256.0 148.5Q253.0 148.5 250.75 155.5Q248.5 162.5 247.25 170.5Q246.0 178.5 246.0 181.5Q248.5 182.0 259.0 184.0Q269.5 186.0 282.5 187.0L309.0 188.0L297.0 181.0Q283.5 173.0 276.5 172.0Q276.0 172.0 275.75 172.25Q275.5 172.5 275.5 172.5Q274.5 173.0 273.0 173.0Q269.5 173.0 269.5 166.0Q269.5 158.5 264.0 153.0ZM132.5 73.0Q131.5 69.5 129.75 62.5Q128.0 55.5 127.0 49.0L124.5 36.5Q120.0 40.5 115.25 44.5Q110.5 48.5 106.0 52.5L88.0 68.5L103.0 71.0Q111.0 72.0 118.75 74.0Q126.5 76.0 130.0 77.0Q133.0 78.0 133.5 78.0H134.0Q134.0 76.5 132.5 73.0ZM311.0 90.5H293.0Q283.0 90.5 270.75 89.0Q258.5 87.5 252.5 86.0L241.0 82.5L243.5 101.5Q244.0 108.5 245.0 114.75Q246.0 121.0 247.0 123.0Q250.0 123.0 261.5 116.0Q265.5 114.0 271.25 111.0Q277.0 108.0 283.5 104.5Q290.0 102.5 297.0 98.0ZM70.5 67.0 104.0 38.0Q118.0 26.0 128.5 18.0Q139.0 10.0 141.0 10.0Q143.0 10.5 143.0 15.0Q143.0 17.0 142.5 20.25Q142.0 23.5 140.5 27.0Q136.5 37.5 136.5 44.5Q136.5 57.0 148.0 71.75Q159.5 86.5 187.5 113.5Q207.5 132.0 221.25 146.75Q235.0 161.5 235.0 163.5Q235.0 166.0 224.75 168.75Q214.5 171.5 199.5 173.25Q184.5 175.0 169.5 175.0Q153.0 175.0 135.25 185.5Q117.5 196.0 105.5 212.5Q100.5 218.5 96.25 223.5Q92.0 228.5 91.0 228.5Q90.0 228.5 88.5 218.25Q87.0 208.0 85.75 192.75Q84.5 177.5 83.75 162.25Q83.0 147.0 83.0 136.5Q83.0 124.5 84.5 123.0H85.5Q89.0 123.0 95.0 132.5Q104.0 145.0 110.5 151.5Q117.0 158.0 125.5 160.0Q134.0 162.0 149.0 162.0H161.0Q187.5 161.5 199.5 161.0Q211.5 160.5 211.5 157.0Q211.5 153.5 204.75 146.5Q198.0 139.5 186.0 127.5Q158.5 103.0 134.75 92.25Q111.0 81.5 82.0 81.5Q72.0 81.5 67.75 82.25Q63.5 83.0 61.75 86.5Q60.0 90.0 57.5 99.0Q51.5 119.0 49.25 140.25Q47.0 161.5 47.0 191.0Q47.0 199.5 47.0 209.0Q47.0 218.5 47.5 229.0L50.0 290.0L61.0 291.5Q68.5 291.5 76.75 289.75Q85.0 288.0 91.5 284.0Q99.0 281.0 115.25 270.0Q131.5 259.0 151.0 244.75Q170.5 230.5 188.25 216.0Q206.0 201.5 217.0 191.0Q227.5 181.0 234.25 168.75Q241.0 156.5 241.0 148.5Q241.0 144.0 239.0 142.0Q237.5 139.5 236.0 133.0Q234.5 126.5 234.0 120.0Q233.5 113.0 232.0 104.0Q230.5 95.0 228.5 87.0Q225.0 75.5 225.0 70.0Q225.0 67.5 226.0 66.5V67.0Q226.0 66.5 227.5 66.5Q233.5 66.5 250.0 71.5Q259.5 74.5 269.25 76.0Q279.0 77.5 291.5 77.5Q309.5 77.5 335.25 73.75Q361.0 70.0 399.0 62.5Q437.0 55.0 492.0 43.0Q512.5 38.0 524.75 36.0Q537.0 34.0 542.0 34.0Q547.0 34.0 547.0 36.5Q547.0 38.5 545.0 40.0Q543.5 41.5 530.75 45.0Q518.0 48.5 497.75 53.0Q477.5 57.5 453.5 62.5Q390.0 76.0 347.5 90.75Q305.0 105.5 274.0 123.0L258.0 131.5Q262.0 135.0 265.0 138.0Q268.0 141.0 271.5 144.5L286.0 157.5Q293.0 155.5 307.25 151.5Q321.5 147.5 339.25 142.75Q357.0 138.0 374.5 133.25Q392.0 128.5 406.25 124.5Q420.5 120.5 427.5 118.5Q464.0 108.5 495.0 100.5Q526.0 92.5 546.5 88.0Q567.0 83.5 571.5 83.5H573.0L573.5 85.0Q574.5 86.0 574.5 87.0Q574.5 89.0 568.5 91.75Q562.5 94.5 543.25 99.75Q524.0 105.0 484.5 115.5Q464.5 120.5 444.75 126.0Q425.0 131.5 405.0 137.0Q378.0 144.5 355.75 150.5Q333.5 156.5 319.75 160.25Q306.0 164.0 304.0 165.0Q300.5 166.5 300.5 167.5Q300.5 168.5 304.25 170.75Q308.0 173.0 317.5 178.0Q324.0 181.0 343.25 188.5Q362.5 196.0 388.75 205.75Q415.0 215.5 442.5 225.5Q469.5 235.0 492.25 243.25Q515.0 251.5 529.75 257.25Q544.5 263.0 546.5 265.0Q549.0 267.5 549.0 268.5Q549.0 271.0 546.0 271.0Q540.0 271.0 517.25 264.0Q494.5 257.0 452.0 242.0Q426.0 232.5 394.5 222.25Q363.0 212.0 331.25 205.0Q299.5 198.0 271.0 198.0L258.0 199.0Q263.5 203.0 270.0 207.25Q276.5 211.5 282.0 215.5Q291.5 221.5 305.5 228.25Q319.5 235.0 343.25 244.5Q367.0 254.0 404.25 267.25Q441.5 280.5 497.0 300.0Q513.0 305.0 523.75 310.25Q534.5 315.5 534.5 317.0Q534.5 321.5 530.5 321.5Q527.0 321.5 516.75 318.75Q506.5 316.0 486.75 309.25Q467.0 302.5 434.0 291.0Q388.5 274.5 354.5 264.75Q320.5 255.0 293.0 250.75Q265.5 246.5 239.5 246.5Q224.5 246.5 218.25 245.0Q212.0 243.5 212.0 240.0V238.5Q213.0 237.5 214.0 235.0Q215.0 232.5 216.0 230.0Q218.5 224.0 222.0 216.5Q227.0 205.0 227.0 201.5Q226.5 202.0 211.5 213.0Q196.5 224.0 176.5 240.0Q150.5 260.5 135.0 276.25Q119.5 292.0 110.25 308.0Q101.0 324.0 93.5 347.0Q91.0 357.0 87.0 364.25Q83.0 371.5 82.0 371.5Q80.5 371.5 78.25 368.25Q76.0 365.0 73.5 360.5Q71.5 356.5 63.5 344.75Q55.5 333.0 45.5 322.0Q27.0 297.5 27.0 292.5Q27.0 289.0 30.0 288.5Q34.5 288.0 35.5 278.25Q36.5 268.5 36.5 236.5Q36.5 182.0 32.25 144.0Q28.0 106.0 19.5 89.5V90.0Q15.0 82.0 12.5 75.75Q10.0 69.5 10.0 68.5Q10.0 65.0 25.5 65.0Q29.0 65.0 32.75 65.25Q36.5 65.5 40.5 65.5Z" fill="black" /></svg>