<svg xmlns="http://www.w3.org/2000/svg" width="513.0" height="453.0" viewBox="0 0 513.0 453.0"><path d="M234.0 147.5Q239.5 140.5 242.75 136.0Q246.0 131.5 247.5 129.5Q242.0 132.0 226.5 145.0Q221.0 149.5 206.75 160.75Q192.5 172.0 174.0 186.25Q155.5 200.5 136.0 214.5L71.5 265.5L110.5 271.5Q121.0 273.5 129.5 274.5Q138.0 275.5 144.5 275.5Q159.0 275.5 165.25 268.5Q171.5 261.5 175.0 246.0Q180.5 217.0 234.0 147.5ZM404.0 154.0Q404.5 153.0 404.75 152.5Q405.0 152.0 405.5 151.5Q400.5 155.0 384.5 168.25Q368.5 181.5 334.0 210.0L264.0 270.5L297.0 275.0Q315.0 276.5 326.0 276.5Q342.0 276.5 346.25 271.5Q350.5 266.5 350.5 254.0Q350.5 245.5 357.25 229.0Q364.0 212.5 375.0 198.5Q384.0 184.0 392.75 170.75Q401.5 157.5 404.0 154.0ZM327.5 30.5Q339.0 10.0 346.5 10.0Q351.5 10.0 351.5 22.0Q351.5 27.0 340.5 42.75Q329.5 58.5 315.0 76.0Q278.0 116.5 249.0 154.75Q220.0 193.0 203.75 222.0Q187.5 251.0 187.5 264.0Q187.5 270.0 192.0 271.0Q195.5 273.0 197.25 277.75Q199.0 282.5 199.0 287.5Q199.0 289.5 199.0 291.5Q199.0 293.5 198.5 295.0Q198.0 297.0 198.0 298.75Q198.0 300.5 198.0 302.0Q198.0 310.5 205.75 319.0Q213.5 327.5 234.5 345.0Q254.5 359.5 272.0 378.25Q289.5 397.0 300.75 413.5Q312.0 430.0 312.0 438.0Q312.0 438.5 312.0 439.75Q312.0 441.0 311.5 442.0Q310.5 443.0 308.5 443.0Q305.5 443.0 299.25 436.75Q293.0 430.5 286.0 421.0Q269.0 398.0 238.75 370.25Q208.5 342.5 167.0 314.5Q155.0 306.0 146.0 301.0Q137.0 296.0 127.5 293.0Q118.0 290.0 105.25 288.5Q92.5 287.0 73.5 285.5L10.0 281.5L62.0 247.5Q80.0 235.5 105.5 216.75Q131.0 198.0 159.75 175.25Q188.5 152.5 216.75 129.25Q245.0 106.0 269.0 85.5Q293.0 65.0 308.75 50.25Q324.5 35.5 327.5 30.5ZM477.0 57.5Q482.5 49.0 488.0 43.75Q493.5 38.5 496.5 38.5Q503.0 38.5 503.0 47.5Q503.0 50.5 494.5 64.0Q486.0 77.5 472.5 92.0Q463.5 102.5 451.5 119.0Q439.5 135.5 427.25 153.25Q415.0 171.0 404.5 187.0Q390.5 207.5 382.75 220.0Q375.0 232.5 372.0 241.0Q369.0 249.5 369.0 258.5Q369.0 262.0 369.5 266.25Q370.0 270.5 370.5 275.5V275.0Q373.0 288.5 377.0 298.0Q381.0 307.5 391.25 318.5Q401.5 329.5 421.5 347.5Q450.5 373.5 465.75 391.75Q481.0 410.0 481.0 418.5Q481.0 421.5 479.5 423.0L478.5 423.5Q475.0 423.5 460.75 411.5Q446.5 399.5 428.5 381.5Q401.0 354.0 380.75 337.0Q360.5 320.0 343.25 310.5Q326.0 301.0 307.5 296.75Q289.0 292.5 264.0 291.0L202.0 286.5L245.5 259.0Q257.5 250.5 278.0 234.25Q298.5 218.0 323.5 197.0Q348.5 176.0 373.75 154.0Q399.0 132.0 421.0 112.0Q443.0 92.0 458.0 77.5Q473.0 63.0 477.0 57.5Z" fill="black" /></svg>