<svg xmlns="http://www.w3.org/2000/svg" width="742.5" height="459.5" viewBox="0 0 742.5 459.5"><path d="M65.5 343.0Q59.0 341.5 52.5 339.5Q46.0 337.5 41.0 336.5Q38.0 334.5 37.5 334.5Q34.0 334.5 34.0 350.5V367.0L56.5 358.0Q68.0 352.5 73.75 350.5Q79.5 348.5 79.5 347.0Q79.5 346.0 75.75 345.25Q72.0 344.5 65.5 343.0ZM80.0 195.0 60.0 188.0Q49.0 184.0 41.5 181.0Q34.0 178.0 34.0 178.0V218.5ZM82.0 279.0Q82.0 278.0 75.25 276.0Q68.5 274.0 57.5 271.5L34.0 264.5V281.0Q34.0 295.5 38.0 295.5H39.0L43.5 294.0Q47.0 293.0 52.75 290.75Q58.5 288.5 65.0 286.5Q72.0 283.5 77.0 281.5Q82.0 279.5 82.0 279.0ZM236.5 233.5 230.0 202.5H160.5Q139.0 202.5 121.0 204.0Q103.0 205.5 96.0 208.0Q78.0 213.0 62.0 220.75Q46.0 228.5 40.5 236.5Q39.5 238.0 38.75 238.75Q38.0 239.5 38.0 240.5Q38.0 247.5 49.25 252.5Q60.5 257.5 78.75 261.0Q97.0 264.5 118.0 266.5Q139.0 268.5 158.75 269.75Q178.5 271.0 192.75 271.25Q207.0 271.5 211.5 271.5Q223.5 271.5 231.25 271.0Q239.0 270.5 239.0 270.0Q239.5 270.0 239.5 268.5Q239.5 267.0 239.5 266.0Q239.5 260.5 238.5 251.75Q237.5 243.0 236.5 233.5ZM243.5 287.0H193.5Q172.5 287.0 155.25 286.5Q138.0 286.0 134.0 285.0Q134.0 285.0 133.25 284.0Q132.5 283.0 131.5 283.0Q123.0 283.0 108.0 286.75Q93.0 290.5 77.25 295.75Q61.5 301.0 50.5 306.25Q39.5 311.5 39.5 314.0Q39.5 320.5 52.75 324.75Q66.0 329.0 86.0 331.75Q106.0 334.5 126.75 335.75Q147.5 337.0 163.75 337.5Q180.0 338.0 185.0 338.0L241.0 336.5ZM326.0 285.0Q321.5 282.0 314.5 279.0Q307.5 276.0 302.0 275.0Q300.0 273.0 296.5 273.0Q293.5 273.0 293.5 289.0V308.5Q294.5 308.5 301.25 304.75Q308.0 301.0 316.5 296.5Q325.0 292.0 329.0 290.25Q333.0 288.5 333.0 288.5Q333.0 288.5 331.5 287.25Q330.0 286.0 326.0 285.0ZM77.5 118.0Q68.5 114.0 60.5 111.5Q52.5 109.0 42.5 109.0Q41.0 109.5 40.25 114.5Q39.5 119.5 39.5 125.0Q39.5 129.0 40.25 133.25Q41.0 137.5 42.5 138.0Q44.5 138.0 51.0 135.75Q57.5 133.5 65.25 130.25Q73.0 127.0 79.25 124.0Q85.5 121.0 86.0 119.5Q85.5 120.0 77.5 118.0ZM211.5 144.5 202.0 126.5H157.5Q140.0 126.5 127.75 127.75Q115.5 129.0 105.5 132.0Q95.5 135.0 84.0 140.0Q63.5 148.0 54.5 152.75Q45.5 157.5 45.5 160.5Q45.5 161.5 51.0 167.0Q65.5 175.5 91.5 180.75Q117.5 186.0 164.5 186.0H225.0L222.5 175.5Q222.0 170.5 218.75 161.5Q215.5 152.5 211.5 144.5ZM256.5 140.0Q257.0 138.0 257.25 136.5Q257.5 135.0 257.5 134.5Q257.5 132.5 254.0 132.25Q250.5 132.0 241.0 132.0H222.5L232.5 164.0Q236.5 177.5 240.25 187.0Q244.0 196.5 244.5 196.5Q246.0 196.5 247.25 189.75Q248.5 183.0 249.5 174.5Q250.0 169.0 251.5 162.5Q253.0 156.0 254.0 151.0Q254.5 148.0 255.5 144.75Q256.5 141.5 256.5 140.0ZM253.5 52.0Q252.5 48.5 237.5 48.5Q221.0 48.5 221.0 52.5Q221.0 56.5 232.0 68.5L241.0 80.0L246.5 70.0V71.0Q249.0 65.5 251.0 60.25Q253.0 55.0 253.5 52.0ZM411.5 70.0V71.0L412.0 69.5Q411.5 70.0 410.0 70.0Q409.0 70.0 407.0 70.75Q405.0 71.5 404.5 73.5L403.0 74.0H404.5Q409.0 74.0 411.5 70.0ZM490.0 144.5 504.0 138.5 453.5 121.5V142.0Q453.5 160.5 456.0 160.5Q456.5 160.5 460.0 157.5Q464.5 156.5 473.25 152.25Q482.0 148.0 490.0 144.5ZM496.5 72.0Q496.5 70.0 494.0 70.0Q491.5 70.0 489.25 70.75Q487.0 71.5 487.0 73.5H486.5Q486.5 74.0 490.0 74.0Q496.5 74.0 496.5 72.0ZM687.0 100.5H646.5L656.0 112.5Q666.0 129.0 670.5 129.0Q673.5 129.0 675.5 126.0Q677.5 123.0 680.5 118.0V118.5Q681.5 116.5 682.5 114.25Q683.5 112.0 684.0 110.0Q685.0 106.0 686.0 103.5Q687.0 101.0 687.0 100.5ZM346.0 366.0Q346.0 359.5 343.5 359.5Q341.5 359.5 338.75 362.25Q336.0 365.0 332.0 369.0Q329.0 371.5 327.5 373.25Q326.0 375.0 326.0 375.0Q326.0 375.0 327.75 375.5Q329.5 376.0 333.0 376.5H332.0Q334.0 377.0 335.75 377.25Q337.5 377.5 338.5 377.5Q346.0 377.5 346.0 366.0ZM456.0 366.0Q456.0 359.5 452.5 359.5Q450.5 359.5 447.25 362.25Q444.0 365.0 440.0 369.0Q438.0 371.5 436.25 373.25Q434.5 375.0 434.5 375.0Q434.5 375.0 436.5 375.5Q438.5 376.0 441.5 376.5H441.0Q443.0 377.0 445.0 377.25Q447.0 377.5 448.0 377.5Q456.0 377.5 456.0 366.0ZM502.5 302.5 484.0 283.0Q474.0 274.5 466.75 268.0Q459.5 261.5 458.5 261.5Q458.5 261.5 456.75 264.5Q455.0 267.5 452.5 272.0L445.5 283.0Q443.5 286.0 442.0 289.25Q440.5 292.5 439.0 295.5L434.5 302.5ZM328.0 140.0Q320.5 136.5 316.0 134.5Q311.5 132.5 307.5 132.5Q304.0 132.5 304.0 149.5Q304.0 157.0 304.0 162.0Q304.0 167.0 304.5 167.0Q306.5 167.0 313.0 164.25Q319.5 161.5 327.25 158.0Q335.0 154.5 340.5 151.25Q346.0 148.0 346.0 147.0Q346.0 147.0 341.0 144.5Q336.0 142.0 328.0 140.0ZM690.5 189.0Q691.0 187.5 691.0 186.75Q691.0 186.0 691.0 186.0Q691.0 184.0 687.0 183.75Q683.0 183.5 672.5 183.5Q662.5 183.5 656.5 184.0Q650.5 184.5 650.5 184.5Q652.5 189.0 656.5 198.5Q660.5 208.0 665.0 218.0Q669.5 228.0 672.75 235.75Q676.0 243.5 676.5 244.5H677.5L676.0 243.0Q676.5 243.0 678.5 237.5Q680.5 232.0 681.5 223.0Q682.0 220.5 683.75 213.25Q685.5 206.0 687.75 198.5Q690.0 191.0 690.5 189.0ZM199.0 53.0 173.0 33.0 236.0 34.0Q259.5 34.5 276.5 37.5Q293.5 40.5 293.5 41.5Q293.5 43.5 289.0 47.25Q284.5 51.0 279.5 53.0Q268.5 57.5 261.0 71.25Q253.5 85.0 252.0 100.5Q250.5 104.0 250.25 106.0Q250.0 108.0 250.0 109.5Q250.0 113.0 258.0 113.0H264.0Q266.5 113.0 269.25 112.75Q272.0 112.5 274.0 112.5Q283.5 112.5 283.5 118.0Q283.5 118.0 280.0 125.5Q276.5 133.0 272.5 141.5Q267.0 153.5 263.0 179.5Q259.0 205.5 256.75 240.0Q254.5 274.5 254.5 312.5Q254.5 324.5 254.75 337.0Q255.0 349.5 256.5 361.5Q257.0 373.5 257.0 383.0Q257.0 392.5 257.0 400.5Q257.0 416.0 255.5 423.0Q254.0 430.0 252.0 430.0H249.5Q247.5 427.5 245.0 415.75Q242.5 404.0 242.5 387.0V354.5H181.0Q129.0 354.5 93.25 362.5Q57.5 370.5 37.5 385.0Q23.0 395.5 17.5 395.5Q12.0 395.5 12.0 388.0Q12.0 386.5 12.0 384.25Q12.0 382.0 12.5 380.5Q16.5 370.5 18.0 359.25Q19.5 348.0 19.5 340.0Q19.5 328.5 17.5 328.5Q14.0 328.5 12.0 324.5Q10.0 320.5 10.0 315.5Q10.0 305.0 16.5 299.5Q19.0 298.5 19.25 292.25Q19.5 286.0 19.5 278.0Q19.5 269.5 18.5 261.75Q17.5 254.0 16.0 251.5Q11.0 248.0 11.0 242.5Q11.0 241.0 12.25 237.5Q13.5 234.0 16.0 231.0V232.0Q17.5 227.5 18.5 218.75Q19.5 210.0 19.5 198.5V172.5Q19.5 159.0 20.5 150.0Q21.5 141.0 23.5 140.5Q26.0 140.0 27.25 131.0Q28.5 122.0 28.5 109.5Q28.5 95.0 29.25 84.5Q30.0 74.0 32.0 74.0Q33.0 74.0 37.75 77.75Q42.5 81.5 47.5 86.5Q52.5 90.5 64.25 95.5Q76.0 100.5 87.5 104.0Q97.5 106.5 115.0 108.0Q132.5 109.5 153.25 110.0Q174.0 110.5 192.0 110.5Q209.5 110.5 221.5 110.0Q233.5 109.5 236.0 109.0V107.5Q236.0 102.5 230.25 92.5Q224.5 82.5 216.0 71.5Q207.5 60.5 199.0 53.0ZM461.0 16.5Q463.5 13.0 466.25 11.5Q469.0 10.0 471.0 10.0H473.0Q476.0 12.0 476.0 15.0Q476.0 19.0 469.25 28.0Q462.5 37.0 452.0 48.0Q437.5 63.0 431.75 71.25Q426.0 79.5 426.0 86.5Q426.0 88.5 426.5 91.0Q427.0 93.5 429.0 97.5V96.0Q430.5 99.0 432.0 99.0Q434.0 99.0 434.5 96.0Q437.5 92.0 441.0 92.0Q446.0 92.0 454.0 100.5Q460.0 105.0 472.5 111.0Q485.0 117.0 498.25 121.75Q511.5 126.5 518.5 126.5Q522.0 126.5 522.0 123.5Q522.0 120.5 515.5 115.25Q509.0 110.0 499.75 104.25Q490.5 98.5 481.25 94.5Q472.0 90.5 466.5 90.5Q450.0 90.5 450.0 84.5Q450.0 76.5 485.0 56.0Q501.5 46.0 518.0 36.0Q534.5 26.0 542.0 21.0Q555.0 11.0 558.5 11.0Q561.5 11.0 561.5 15.5Q561.5 25.0 535.5 50.0Q524.5 62.0 518.75 70.25Q513.0 78.5 513.0 85.0Q513.0 89.0 515.5 94.25Q518.0 99.5 523.5 105.0H522.0Q527.5 109.0 532.25 115.0Q537.0 121.0 540.5 125.0Q543.5 128.5 554.5 130.25Q565.5 132.0 597.0 132.0Q623.0 132.0 634.75 130.5Q646.5 129.0 646.5 125.5Q646.5 120.5 626.5 106.5Q616.0 99.5 611.25 94.0Q606.5 88.5 606.5 85.0Q606.5 82.5 608.0 82.0Q609.5 81.5 612.5 81.5H623.0Q630.0 82.5 648.25 83.75Q666.5 85.0 685.0 85.0Q732.5 85.0 732.5 93.5Q732.5 98.5 717.0 104.0Q703.5 109.0 694.5 122.0Q685.5 135.0 683.0 153.0L680.5 167.0H725.0L709.5 191.0Q703.5 200.0 699.25 211.0Q695.0 222.0 692.75 238.75Q690.5 255.5 689.5 281.75Q688.5 308.0 688.5 347.5Q688.5 374.0 688.0 395.5Q687.5 417.0 686.5 429.75Q685.5 442.5 684.0 442.5Q682.0 442.5 679.0 432.0Q676.0 421.5 675.0 406.0Q673.0 392.0 671.5 385.5Q670.0 379.0 667.5 376.75Q665.0 374.5 659.0 373.0Q654.0 372.5 636.0 365.5Q618.0 358.5 597.5 350.5L589.5 347.5Q557.0 333.5 538.5 326.75Q520.0 320.0 509.0 320.0Q500.0 320.0 490.75 329.0Q481.5 338.0 475.25 349.5Q469.0 361.0 469.0 369.0Q469.0 379.0 479.5 390.75Q490.0 402.5 510.5 418.5Q520.5 424.5 525.75 431.5Q531.0 438.5 531.0 442.5Q531.0 449.5 528.0 449.5Q524.5 449.5 518.0 441.5Q508.0 432.0 491.25 421.25Q474.5 410.5 456.75 401.75Q439.0 393.0 425.0 389.5L392.0 380.5L412.0 367.0Q426.0 358.5 440.75 348.25Q455.5 338.0 465.75 329.5Q476.0 321.0 476.0 319.0Q476.0 318.5 470.5 318.5Q465.0 318.5 457.5 318.5Q449.5 318.5 439.75 319.25Q430.0 320.0 424.5 323.0Q413.5 327.0 409.5 327.0Q404.5 327.0 404.5 321.5Q404.5 315.5 410.0 309.5Q418.5 300.5 418.5 297.5Q418.5 292.5 390.5 292.5Q374.0 292.5 356.25 297.5Q338.5 302.5 323.5 310.75Q308.5 319.0 298.5 329.0Q285.5 343.5 281.0 343.5Q280.0 343.5 279.0 335.75Q278.0 328.0 278.0 314.5Q278.0 301.0 278.5 285.0Q279.0 269.0 280.25 255.75Q281.5 242.5 283.0 238.5Q282.5 238.5 282.5 238.5Q282.5 238.5 282.0 238.5L281.5 239.0Q281.5 238.5 282.0 238.5L283.5 237.0Q283.5 237.0 283.25 237.25Q283.0 237.5 283.0 238.5Q289.5 238.5 300.5 250.5Q313.0 262.0 333.0 268.75Q353.0 275.5 374.75 278.25Q396.5 281.0 413.5 281.0Q422.0 281.0 426.0 278.75Q430.0 276.5 434.5 272.0H434.0Q438.0 266.5 443.0 258.25Q448.0 250.0 450.5 243.0Q454.5 234.5 457.75 229.5Q461.0 224.5 463.0 224.5Q468.5 224.5 468.5 239.0Q468.5 249.0 483.0 263.5Q497.5 278.0 522.25 294.0Q547.0 310.0 579.25 325.5Q611.5 341.0 646.5 353.5L673.0 364.0L671.0 319.0Q670.0 294.5 665.25 270.5Q660.5 246.5 653.0 226.0Q645.5 205.5 636.0 193.0Q631.5 186.0 629.0 181.75Q626.5 177.5 626.5 174.5Q626.5 167.0 648.5 167.0Q658.5 167.0 662.5 166.5Q666.5 166.0 666.5 163.0Q666.5 159.5 665.0 154.5Q664.0 151.5 658.25 150.0Q652.5 148.5 638.25 147.75Q624.0 147.0 597.0 147.0Q560.5 147.0 534.75 150.5Q509.0 154.0 489.75 161.25Q470.5 168.5 454.0 181.0L432.5 197.0L437.5 155.0L408.5 153.0Q379.5 153.0 357.25 160.0Q335.0 167.0 312.5 186.0L289.5 206.5L290.5 150.5Q291.5 127.0 293.25 111.0Q295.0 95.0 296.5 95.0Q298.0 95.0 302.25 99.5Q306.5 104.0 310.5 109.5Q315.5 117.5 329.5 123.75Q343.5 130.0 363.5 133.75Q383.5 137.5 406.0 137.5Q424.5 137.5 431.75 136.5Q439.0 135.5 439.0 132.5Q439.0 127.5 430.25 118.75Q421.5 110.0 410.0 102.0Q398.5 94.0 390.5 92.5Q387.0 92.0 384.0 91.0Q381.0 90.0 377.5 89.0Q375.0 88.5 370.75 87.5Q366.5 86.5 366.5 83.0Q366.5 80.5 377.75 72.25Q389.0 64.0 408.5 52.0Q426.5 40.0 442.5 30.0Q458.5 20.0 461.0 16.5ZM361.0 327.5Q369.0 319.5 376.75 314.0Q384.5 308.5 386.0 308.5L388.0 310.0Q388.0 318.0 373.5 343.0V341.5Q367.0 354.0 364.25 361.25Q361.5 368.5 361.5 372.5Q361.5 375.0 362.0 377.75Q362.5 380.5 364.5 384.0V382.5Q367.5 388.0 377.75 397.0Q388.0 406.0 399.0 413.5Q411.0 421.5 419.0 429.75Q427.0 438.0 427.0 440.5Q427.0 446.5 424.5 446.5Q421.5 446.5 412.0 441.0Q402.5 435.5 380.5 421.0Q366.0 410.5 347.5 401.25Q329.0 392.0 317.5 389.5L284.0 381.0L314.5 360.5Q324.5 355.0 338.25 345.25Q352.0 335.5 361.0 327.5Z" fill="black" /></svg>