<svg xmlns="http://www.w3.org/2000/svg" width="815.5" height="455.0" viewBox="0 0 815.5 455.0"><path d="M81.5 307.5Q80.5 305.5 74.25 300.25Q68.0 295.0 58.5 289.5L38.0 274.5V338.5L53.5 326.0Q60.5 319.0 67.75 314.5Q75.0 310.0 77.0 310.0Q78.5 310.0 79.75 309.0Q81.0 308.0 81.5 307.5ZM283.0 307.0V307.5Q276.0 303.5 269.75 299.75Q263.5 296.0 261.0 296.0Q260.0 296.0 257.75 303.75Q255.5 311.5 253.0 322.5Q250.5 333.5 248.5 343.75Q246.5 354.0 246.5 359.0V360.0H248.0Q251.0 360.0 258.75 359.0Q266.5 358.0 276.5 355.5Q289.5 353.0 305.75 351.5Q322.0 350.0 333.0 350.0Q354.0 350.0 354.0 347.0Q354.0 341.5 326.5 331.0Q316.5 327.0 303.25 320.0Q290.0 313.0 283.0 307.0ZM56.0 125.5 74.5 114.5Q71.0 113.0 61.5 108.5Q52.0 104.0 42.75 100.0Q33.5 96.0 30.5 96.0Q30.0 96.0 30.0 104.0Q30.0 107.0 30.0 110.0Q30.0 113.0 30.5 116.5Q32.0 124.0 33.0 131.25Q34.0 138.5 34.0 138.5Q37.0 137.5 42.5 134.0Q48.0 130.5 56.0 125.5ZM104.0 166.5Q104.0 165.5 98.75 165.0Q93.5 164.5 85.5 164.5Q77.5 164.5 71.75 165.0Q66.0 165.5 66.0 166.0Q66.0 166.0 66.5 166.75Q67.0 167.5 67.5 169.5Q69.0 173.0 71.5 177.75Q74.0 182.5 76.0 187.5L85.0 206.5L94.0 189.5Q104.0 173.0 104.0 166.5ZM445.0 277.0Q438.0 275.5 429.25 273.5Q420.5 271.5 415.0 270.0Q413.0 269.5 411.25 269.0Q409.5 268.5 408.5 268.5Q403.5 268.5 403.5 279.5Q403.5 287.0 405.5 289.75Q407.5 292.5 414.5 292.5Q417.0 292.5 424.0 291.75Q431.0 291.0 438.75 289.5Q446.5 288.0 452.0 286.5Q457.5 285.0 457.5 283.5Q457.5 280.5 445.0 277.0ZM739.0 359.5V284.5H659.0Q636.5 284.5 617.25 285.25Q598.0 286.0 586.0 287.0Q574.0 288.0 573.5 290.0Q572.5 290.5 571.75 296.75Q571.0 303.0 570.75 311.5Q570.5 320.0 570.5 327.25Q570.5 334.5 570.5 336.5V343.0Q570.5 353.0 574.0 357.75Q577.5 362.5 591.5 365.25Q605.5 368.0 636.5 372.5Q640.5 373.0 646.0 373.75Q651.5 374.5 656.5 375.5Q663.5 376.5 668.75 377.5Q674.0 378.5 679.0 379.0Q709.0 383.5 722.0 383.5Q733.5 383.5 736.25 378.5Q739.0 373.5 739.0 359.5ZM292.0 85.5Q286.5 80.0 284.0 80.0Q280.5 80.0 279.0 85.75Q277.5 91.5 277.5 106.0Q277.5 120.5 279.5 126.75Q281.5 133.0 285.0 133.0Q288.5 133.0 292.0 130.75Q295.5 128.5 296.5 126.5Q298.0 124.0 305.25 119.5Q312.5 115.0 320.5 111.5L337.0 103.5L320.0 98.5Q311.0 95.0 302.75 91.0Q294.5 87.0 292.0 85.5ZM383.5 150.0Q382.5 149.0 375.75 148.25Q369.0 147.5 360.0 147.5Q347.0 147.5 342.0 148.0Q337.0 148.5 337.0 150.5Q337.0 152.5 338.0 154.5Q340.5 158.0 342.5 164.75Q344.5 171.5 347.0 178.0L349.0 183.0Q351.5 191.0 354.5 196.0Q357.5 201.0 358.0 201.0Q359.0 201.0 362.75 194.25Q366.5 187.5 370.0 178.0Q372.0 173.5 373.5 170.0Q375.0 166.5 377.0 163.5Q381.5 153.0 383.5 150.0ZM447.5 211.5 466.0 207.5 441.0 201.0Q430.5 198.5 424.25 196.75Q418.0 195.0 414.5 195.0Q411.0 195.0 410.25 197.25Q409.5 199.5 409.5 204.0V206.5Q409.5 212.0 410.5 214.75Q411.5 217.5 416.5 217.5Q420.5 217.5 427.75 216.0Q435.0 214.5 447.5 211.5ZM546.0 135.0 536.0 98.5 510.5 98.0Q497.0 98.0 474.0 98.75Q451.0 99.5 425.5 101.5Q400.0 103.5 378.0 107.0Q356.0 110.5 344.5 116.0Q336.5 120.5 330.25 124.25Q324.0 128.0 324.0 129.5Q324.0 130.5 336.25 131.75Q348.5 133.0 365.5 133.0Q383.5 133.0 396.5 134.25Q409.5 135.5 409.5 138.0Q409.5 138.5 405.5 145.75Q401.5 153.0 395.0 161.5Q383.0 179.5 377.5 196.5Q372.0 213.5 370.75 231.5Q369.5 249.5 369.5 271.5Q369.5 293.0 371.25 310.75Q373.0 328.5 375.0 331.0Q378.5 333.0 394.5 336.25Q410.5 339.5 433.25 343.0Q456.0 346.5 480.0 349.75Q504.0 353.0 523.75 355.0Q543.5 357.0 552.5 357.0Q557.5 357.0 558.0 356.5Q560.0 355.5 560.75 349.5Q561.5 343.5 561.5 334.5Q561.5 331.5 561.5 327.75Q561.5 324.0 561.0 320.0L558.5 287.5L531.0 290.0Q519.0 290.5 505.25 292.5Q491.5 294.5 468.75 298.75Q446.0 303.0 406.5 311.0Q404.0 311.5 401.75 311.75Q399.5 312.0 398.0 312.0Q394.5 312.0 392.75 309.75Q391.0 307.5 391.0 300.0Q391.0 296.5 391.25 292.5Q391.5 288.5 392.5 282.5V278.0Q393.5 264.0 395.25 258.0Q397.0 252.0 405.0 252.0Q409.0 252.0 417.25 254.0Q425.5 256.0 438.0 260.0L443.0 261.5Q451.0 263.5 463.75 265.5Q476.5 267.5 490.25 268.75Q504.0 270.0 515.0 270.0H555.0L557.5 243.0Q557.5 239.5 557.75 236.75Q558.0 234.0 558.0 232.0Q558.0 214.5 552.5 213.0Q552.0 212.0 546.5 212.0Q536.5 212.0 516.5 214.75Q496.5 217.5 473.25 222.0Q450.0 226.5 430.0 231.0Q418.0 234.5 408.5 236.25Q399.0 238.0 395.0 238.0Q394.5 238.0 393.75 237.75Q393.0 237.5 393.0 237.5Q393.0 236.0 393.25 226.25Q393.5 216.5 394.5 204.0Q395.5 186.5 397.0 180.5Q398.5 174.5 403.5 174.5Q406.5 174.5 410.5 175.5Q442.5 185.0 470.25 190.25Q498.0 195.5 522.5 195.5Q540.5 195.5 548.5 193.5Q556.5 191.5 556.5 181.5Q556.5 174.5 553.75 163.5Q551.0 152.5 546.0 135.0ZM570.5 270.0H739.0V211.0H659.0Q636.5 211.0 617.0 211.5Q597.5 212.0 585.75 212.75Q574.0 213.5 573.5 214.0Q572.5 215.5 571.5 224.0Q570.5 232.5 570.5 243.5ZM586.0 57.5V58.5L595.0 39.5L563.0 37.5Q559.5 37.5 556.0 37.0Q552.5 36.5 550.0 36.5Q539.0 36.5 534.5 38.25Q530.0 40.0 530.0 44.0Q530.0 49.5 537.5 64.0Q541.0 70.5 544.5 81.25Q548.0 92.0 550.5 101.5Q553.5 123.0 558.5 123.0Q563.5 123.0 568.5 103.0Q571.0 93.5 576.0 80.0Q581.0 66.5 586.0 57.5ZM771.5 31.5V31.0Q771.5 28.5 764.75 27.75Q758.0 27.0 740.5 27.0H725.5Q717.0 27.0 713.25 28.0Q709.5 29.0 709.5 33.5Q709.5 40.0 721.0 67.0Q722.0 70.5 723.5 74.5Q725.0 78.5 726.0 82.5Q738.5 111.5 740.5 111.5Q740.5 111.5 741.5 108.0Q743.5 103.0 748.75 89.0Q754.0 75.0 760.5 58.75Q767.0 42.5 771.5 31.5ZM684.5 12.0H685.0Q686.0 11.0 691.25 10.5Q696.5 10.0 704.5 10.0Q712.5 10.0 723.5 10.25Q734.5 10.5 745.5 11.5Q805.5 13.5 805.5 22.0Q805.5 24.5 797.0 29.0Q793.0 30.0 785.75 40.25Q778.5 50.5 772.5 65.0L755.5 116.5V135.0L754.5 252.0Q754.5 294.5 753.5 329.75Q752.5 365.0 751.5 385.75Q750.5 406.5 749.0 406.5Q745.0 404.0 737.25 402.0Q729.5 400.0 713.0 397.5Q696.5 395.0 666.0 391.0L655.5 390.0Q631.0 386.5 615.25 384.75Q599.5 383.0 591.0 383.0Q580.0 383.0 576.75 386.0Q573.5 389.0 573.5 396.5Q573.5 398.5 573.5 401.25Q573.5 404.0 574.0 406.5V411.5Q574.5 415.5 574.5 419.25Q574.5 423.0 574.5 426.5Q574.5 445.0 569.5 445.0Q566.0 445.0 564.0 435.75Q562.0 426.5 562.0 410.0V378.0L503.5 368.5Q473.5 364.5 448.75 362.25Q424.0 360.0 406.5 360.0Q396.5 360.0 389.5 361.0Q382.5 362.0 378.5 363.0Q372.0 363.5 372.0 374.5Q372.0 382.5 373.5 398.5Q374.0 405.0 374.25 410.25Q374.5 415.5 374.5 419.5Q374.5 434.5 369.5 434.5Q366.0 434.5 363.75 424.5Q361.5 414.5 361.5 398.0V364.5H335.0Q324.0 364.5 304.5 367.0Q285.0 369.5 268.5 373.5Q254.0 376.0 242.5 377.5Q231.0 379.0 227.0 379.0H225.5L224.5 376.0Q224.5 373.5 226.75 366.75Q229.0 360.0 232.0 352.0L240.0 332.0L216.0 328.5Q205.0 327.5 183.75 326.5Q162.5 325.5 142.5 325.5H96.5L100.5 354.5Q101.0 358.5 101.0 361.75Q101.0 365.0 101.0 368.5Q101.0 388.0 94.0 388.0Q91.0 388.0 88.75 379.0Q86.5 370.0 86.5 354.5Q86.5 340.5 85.75 333.0Q85.0 325.5 81.5 325.5Q78.5 325.5 69.75 332.75Q61.0 340.0 50.5 350.0Q41.5 359.5 33.5 365.25Q25.5 371.0 23.5 371.0H22.0Q21.5 370.0 21.0 366.5Q20.5 363.0 20.5 358.5Q20.5 349.0 21.25 334.75Q22.0 320.5 22.5 304.0L26.0 239.5L53.0 265.0Q63.0 274.5 70.25 279.0Q77.5 283.5 81.0 283.5Q86.0 283.5 86.0 274.0Q86.0 267.0 82.75 253.25Q79.5 239.5 74.25 223.5Q69.0 207.5 63.0 192.75Q57.0 178.0 51.75 168.5Q46.5 159.0 43.0 159.0Q41.0 159.0 38.25 160.0Q35.5 161.0 34.5 163.5Q31.0 170.5 27.0 170.5Q18.0 170.5 18.0 138.0Q18.0 124.5 16.75 111.5Q15.5 98.5 12.5 92.0Q12.0 88.0 11.0 85.25Q10.0 82.5 10.0 80.0Q10.0 74.5 12.5 73.5V74.5Q12.5 73.5 14.0 73.5Q18.0 73.5 29.25 77.75Q40.5 82.0 54.5 87.5L90.5 107.0L172.0 105.5Q181.0 104.5 189.75 104.25Q198.5 104.0 206.0 104.0Q228.0 104.0 241.5 105.5Q255.0 107.0 255.0 109.5Q255.0 111.0 243.25 113.5Q231.5 116.0 211.25 118.25Q191.0 120.5 165.5 122.0Q131.0 124.5 110.5 126.75Q90.0 129.0 79.25 131.75Q68.5 134.5 62.0 139.0L50.0 147.5L86.5 148.5Q104.5 150.0 116.75 151.5Q129.0 153.0 129.0 155.0Q129.0 157.5 124.5 165.25Q120.0 173.0 114.0 182.0Q107.5 191.5 104.25 199.5Q101.0 207.5 99.75 219.0Q98.5 230.5 98.0 250.0Q98.0 271.0 98.5 281.0Q99.0 291.0 102.0 294.75Q105.0 298.5 112.0 302.0Q117.5 304.5 138.75 307.5Q160.0 310.5 184.5 311.5L241.5 314.5V294.0Q241.5 271.0 249.0 271.0Q257.0 271.0 273.5 284.5Q281.5 290.0 295.75 298.0Q310.0 306.0 323.0 312.0L353.0 326.5L354.5 290.5Q354.5 254.0 347.5 222.75Q340.5 191.5 325.0 158.5L313.0 133.0Q308.0 136.5 303.75 139.0Q299.5 141.5 295.0 145.5L292.0 147.5Q284.0 152.5 278.25 155.75Q272.5 159.0 270.0 159.0Q269.0 159.0 267.25 147.75Q265.5 136.5 264.0 119.75Q262.5 103.0 261.5 86.75Q260.5 70.5 260.5 60.0Q260.5 49.5 262.5 47.0Q264.0 47.0 271.0 51.75Q278.0 56.5 286.5 63.0Q296.5 69.5 309.0 76.5Q321.5 83.5 331.0 85.0Q335.5 85.5 348.0 86.0Q360.5 86.5 377.5 86.5Q398.5 86.5 423.5 86.0Q448.5 85.5 471.25 84.5Q494.0 83.5 509.5 82.25Q525.0 81.0 527.0 79.5V78.5Q527.0 76.0 524.5 67.5Q522.0 59.0 518.0 49.5L504.5 19.0L561.5 21.0Q585.0 22.5 601.5 23.0Q618.0 23.5 618.5 23.5Q619.5 23.5 616.5 30.75Q613.5 38.0 607.5 48.0Q593.5 70.0 585.0 95.0Q576.5 120.0 572.5 155.5L569.0 195.5H741.0L737.5 171.5V172.0Q735.0 159.5 730.5 142.0Q726.0 124.5 720.25 106.0Q714.5 87.5 708.25 70.5Q702.0 53.5 696.5 42.0Q691.0 30.5 687.75 22.0Q684.5 13.5 684.5 12.0Z" fill="black" /></svg>