<svg xmlns="http://www.w3.org/2000/svg" width="1025.5" height="466.5" viewBox="0 0 1025.5 466.5"><path d="M121.0 232.0Q126.5 220.5 130.75 211.25Q135.0 202.0 137.0 198.0Q133.5 200.0 128.5 204.75Q123.5 209.5 118.0 215.0Q111.5 222.5 96.5 235.75Q81.5 249.0 67.0 260.5L38.0 285.0L61.0 290.0Q74.0 293.0 81.75 294.25Q89.5 295.5 93.5 296.5Q99.0 295.5 100.25 292.75Q101.5 290.0 101.5 285.0Q101.5 278.0 107.25 262.75Q113.0 247.5 121.0 232.0ZM294.0 269.5Q294.0 267.5 286.0 267.5Q278.5 267.5 278.5 272.5Q278.5 274.0 282.0 274.0H285.5Q294.0 271.5 294.0 269.5ZM702.5 280.0Q706.0 275.5 708.75 271.5Q711.5 267.5 712.5 265.5Q710.0 267.5 704.0 271.75Q698.0 276.0 690.0 281.0L687.5 283.0Q676.5 291.5 666.0 298.75Q655.5 306.0 652.5 307.0Q650.5 308.5 649.75 308.25Q649.0 308.0 649.0 309.0Q649.0 309.5 671.5 314.5Q675.5 315.0 678.5 315.0Q681.5 315.0 683.5 315.0Q687.5 315.0 688.75 314.25Q690.0 313.5 690.0 310.5Q690.0 306.0 693.5 297.5Q697.0 289.0 702.5 280.0ZM909.0 274.0Q905.5 275.0 900.5 278.0Q895.5 281.0 889.5 285.0Q881.5 291.0 876.75 294.25Q872.0 297.5 872.0 299.5Q872.0 301.5 887.5 301.5Q897.0 301.5 899.75 300.25Q902.5 299.0 902.5 294.0Q902.5 287.5 904.5 282.25Q906.5 277.0 909.0 274.0ZM290.0 131.5Q283.0 131.0 273.75 128.0Q264.5 125.0 260.0 121.5V122.0Q253.5 118.0 251.0 118.0Q248.5 118.0 245.5 131.5V131.0Q244.5 140.5 243.5 146.5Q242.5 152.5 242.5 157.0Q242.5 162.5 245.5 162.5Q249.5 162.5 256.0 159.0Q262.5 155.5 272.5 150.5Q285.5 146.0 294.75 141.25Q304.0 136.5 304.0 135.0Q304.0 135.0 299.75 134.0Q295.5 133.0 290.0 131.5ZM291.5 216.0Q290.0 214.0 287.75 213.5Q285.5 213.0 284.0 213.0Q282.0 213.0 282.0 217.5Q282.0 222.5 285.5 222.5Q286.5 222.5 289.0 221.5Q291.5 220.5 294.0 218.5Q296.0 217.5 296.0 217.5Q295.5 216.5 291.5 216.0ZM504.5 138.5Q492.0 136.0 478.5 131.5Q465.0 127.0 452.5 122.0Q451.0 121.5 448.5 121.5Q446.5 121.5 446.25 124.75Q446.0 128.0 446.0 138.0Q446.0 147.5 444.75 156.5Q443.5 165.5 443.5 168.5Q445.5 168.5 451.25 166.0Q457.0 163.5 466.5 158.5Q478.5 152.5 490.0 148.0Q501.5 143.5 504.5 143.5Q511.0 143.5 511.0 142.0Q511.0 138.5 504.5 138.5ZM529.5 218.5Q524.5 218.5 515.5 215.0Q515.0 213.5 513.0 213.5Q511.5 213.5 510.75 215.0Q510.0 216.5 510.0 217.5Q510.0 220.5 513.0 221.5Q516.0 222.5 519.5 222.5Q527.0 222.5 529.5 218.5ZM702.5 118.0Q705.0 114.5 706.5 111.75Q708.0 109.0 709.0 107.0Q705.0 109.0 698.25 113.25Q691.5 117.5 683.5 122.5Q672.5 131.5 663.25 138.0Q654.0 144.5 651.5 145.5Q649.5 146.0 648.5 146.0Q647.5 146.0 647.5 146.0Q647.5 146.5 671.5 150.5Q675.5 151.0 679.0 152.0Q682.5 153.0 684.0 153.0Q690.0 153.0 690.0 147.0Q690.0 143.0 693.5 134.25Q697.0 125.5 702.5 118.0ZM759.0 103.0Q753.5 99.0 749.5 97.0Q745.5 95.0 743.0 95.0Q739.5 95.0 733.0 101.75Q726.5 108.5 720.25 117.75Q714.0 127.0 709.5 135.25Q705.0 143.5 705.0 147.0Q705.0 147.5 706.0 148.5Q707.0 149.5 707.5 150.5Q709.5 153.5 711.25 157.75Q713.0 162.0 713.0 166.0Q713.0 169.0 719.0 174.75Q725.0 180.5 733.0 185.5Q739.5 190.0 744.25 192.5Q749.0 195.0 751.0 196.0Q750.5 195.0 749.5 193.75Q748.5 192.5 747.0 191.0Q744.0 187.0 742.0 185.25Q740.0 183.5 740.0 180.5Q740.0 175.5 747.0 174.5Q754.0 173.5 770.5 173.5H799.0V155.0Q799.0 139.0 790.0 128.0Q781.0 117.0 759.0 103.0ZM816.0 201.0 825.0 188.5H798.0Q781.0 188.5 774.25 189.25Q767.5 190.0 767.5 192.5Q767.5 195.0 768.75 197.25Q770.0 199.5 771.5 201.0Q774.5 202.5 778.75 209.5Q783.0 216.5 788.0 226.0L796.0 242.5L799.0 232.5Q800.5 227.0 805.5 217.5Q810.5 208.0 816.0 201.0ZM818.5 100.0V100.5L819.0 100.0H785.0L792.0 107.5Q796.0 111.5 798.25 114.0Q800.5 116.5 803.0 116.5Q803.5 116.5 803.75 115.25Q804.0 114.0 804.5 113.0Q807.0 109.5 810.75 105.5Q814.5 101.5 818.5 100.0ZM896.5 109.0Q885.5 108.0 875.75 106.5Q866.0 105.0 861.5 103.0H860.0Q859.0 102.0 857.25 102.0Q855.5 102.0 854.5 102.0Q845.0 102.0 833.25 108.5Q821.5 115.0 817.5 122.5Q815.0 126.0 813.75 135.5Q812.5 145.0 812.5 153.5V173.5H833.0Q856.0 173.5 856.0 180.5Q856.0 183.5 853.75 185.75Q851.5 188.0 847.5 191.0Q853.5 188.0 864.25 181.5Q875.0 175.0 887.75 166.75Q900.5 158.5 912.25 150.25Q924.0 142.0 931.75 135.75Q939.5 129.5 940.5 127.5V126.5Q940.5 122.0 929.0 117.25Q917.5 112.5 896.5 109.0ZM914.5 170.0Q915.5 168.5 916.0 167.75Q916.5 167.0 917.0 166.5Q912.0 168.0 895.5 179.0L892.5 182.0Q886.0 187.0 882.75 189.0Q879.5 191.0 879.0 192.0Q879.5 192.0 885.5 194.0Q896.0 197.0 901.5 197.0Q907.5 197.0 907.5 189.5Q907.5 184.0 909.0 178.5Q910.5 173.0 914.5 170.0ZM930.0 81.5Q931.5 78.0 932.75 74.5Q934.0 71.0 934.5 68.5Q933.0 69.5 930.75 71.0Q928.5 72.5 926.0 74.5Q920.5 79.5 914.25 83.5Q908.0 87.5 905.5 89.5L900.5 91.0Q900.5 92.0 914.5 95.0Q918.0 97.0 920.5 97.0Q927.0 97.0 930.0 81.5ZM300.5 366.5Q296.5 366.5 288.0 364.5Q279.5 362.5 272.5 360.0L258.5 353.5L255.0 369.5Q254.5 375.5 254.25 380.5Q254.0 385.5 254.0 389.5Q256.5 389.0 261.75 386.5Q267.0 384.0 274.5 381.0Q283.0 376.5 291.5 374.0Q300.0 371.5 302.5 371.5Q308.0 371.5 308.0 368.5Q308.0 366.5 300.5 366.5ZM529.5 272.5Q526.0 267.5 519.5 267.5Q516.0 267.5 513.0 269.0Q510.0 270.5 510.0 273.0Q510.0 275.5 511.5 275.5Q512.5 275.5 514.0 275.25Q515.5 275.0 516.5 274.5Q518.5 274.5 519.25 274.25Q520.0 274.0 520.5 274.0Q526.0 272.5 529.5 272.5ZM546.5 366.5Q539.0 366.5 525.75 365.0Q512.5 363.5 497.75 361.0Q483.0 358.5 470.5 355.5Q458.0 352.5 452.5 349.0H451.0Q448.5 349.0 448.5 355.0Q448.5 358.5 448.75 362.5Q449.0 366.5 449.5 372.0Q450.5 375.5 450.75 379.5Q451.0 383.5 451.5 386.0Q451.5 399.0 451.5 399.0Q452.5 399.0 458.5 396.5Q464.5 394.0 470.0 391.0Q479.0 387.0 493.5 382.25Q508.0 377.5 519.5 375.0Q532.0 372.5 539.25 370.25Q546.5 368.0 546.5 366.5ZM187.0 126.0Q191.5 114.0 197.5 114.0Q203.5 114.0 203.5 121.5Q203.5 126.0 198.75 135.0Q194.0 144.0 185.5 157.0Q174.0 171.0 162.0 189.25Q150.0 207.5 140.0 225.0Q130.0 242.5 124.0 256.5Q118.0 270.5 118.0 276.5Q118.0 298.0 125.25 314.5Q132.5 331.0 148.5 346.0Q153.5 350.5 163.75 360.25Q174.0 370.0 185.25 381.5Q196.5 393.0 204.5 404.25Q212.5 415.5 212.5 423.0V425.0Q211.5 427.5 210.5 427.5Q208.0 427.5 201.75 421.75Q195.5 416.0 188.0 406.5Q181.5 396.5 169.0 383.0Q156.5 369.5 140.75 355.5Q125.0 341.5 107.75 329.25Q90.5 317.0 73.5 309.5Q56.5 302.0 42.0 302.0Q25.5 302.0 17.75 300.5Q10.0 299.0 10.0 294.0Q10.0 290.0 16.75 283.0Q23.5 276.0 38.0 265.5Q51.5 255.5 70.0 239.5Q88.5 223.5 108.5 205.5Q128.5 187.5 145.75 170.75Q163.0 154.0 174.5 141.75Q186.0 129.5 187.0 126.0ZM227.5 100.5V101.5Q227.0 99.0 227.0 97.5Q227.0 96.0 227.0 94.5Q227.0 85.0 234.5 85.0Q237.5 85.0 241.0 87.0Q244.5 89.0 247.5 95.0Q250.5 101.5 266.0 108.5Q281.5 115.5 304.0 121.0Q326.5 126.5 351.75 130.0Q377.0 133.5 400.0 133.5Q408.5 133.5 414.75 135.75Q421.0 138.0 421.0 142.0Q421.0 145.0 406.25 147.0Q391.5 149.0 367.5 149.0Q257.0 149.0 234.5 208.0Q225.0 228.5 219.0 228.5Q214.5 228.5 214.5 222.5Q214.5 220.0 215.0 218.0Q215.5 216.0 216.0 213.0Q218.5 206.0 221.25 192.5Q224.0 179.0 226.5 163.75Q229.0 148.5 230.75 136.5Q232.5 124.5 232.5 120.5Q232.0 118.0 230.25 111.75Q228.5 105.5 227.5 100.5ZM259.0 194.0Q259.0 188.5 263.5 188.5Q265.5 188.5 269.75 190.25Q274.0 192.0 282.0 195.0Q285.5 197.0 300.5 200.25Q315.5 203.5 335.0 206.25Q354.5 209.0 373.0 211.0Q391.5 213.0 402.0 213.0Q411.0 213.0 411.0 221.5Q411.0 226.5 402.0 226.5Q400.0 226.5 397.0 226.5Q394.0 226.5 390.5 226.0Q387.5 225.0 383.25 225.0Q379.0 225.0 374.5 225.0Q359.0 225.0 339.75 227.25Q320.5 229.5 304.5 233.25Q288.5 237.0 282.0 241.5L274.5 246.5L286.0 250.5Q293.0 254.0 312.75 256.75Q332.5 259.5 354.0 260.5Q380.0 261.5 394.25 264.75Q408.5 268.0 408.5 270.5Q408.5 273.5 400.25 275.75Q392.0 278.0 374.0 278.0Q338.5 278.0 310.25 283.25Q282.0 288.5 271.5 297.0Q267.5 300.5 264.75 303.0Q262.0 305.5 260.0 305.5Q255.0 305.5 255.0 298.5Q255.0 296.0 256.5 291.25Q258.0 286.5 260.0 279.5Q262.5 274.0 263.0 269.75Q263.5 265.5 263.5 262.0Q263.5 260.0 263.25 258.75Q263.0 257.5 262.5 256.5Q260.5 254.5 259.5 252.5Q258.5 250.5 258.5 247.0Q258.5 241.0 263.0 230.5Q265.0 224.5 266.25 220.5Q267.5 216.5 267.5 213.5Q267.5 209.5 264.0 206.0Q263.0 202.0 261.0 198.25Q259.0 194.5 259.0 194.0ZM495.0 206.0V203.0Q494.5 200.0 493.75 197.75Q493.0 195.5 493.0 194.0Q493.0 189.5 496.5 189.5Q501.5 189.5 511.0 195.0Q517.5 199.5 534.25 203.75Q551.0 208.0 572.0 210.5Q593.0 213.0 611.0 213.0Q621.0 213.0 630.5 214.75Q640.0 216.5 642.0 218.5V221.0Q642.0 223.0 630.5 225.75Q619.0 228.5 599.0 228.5Q576.5 228.5 556.25 230.75Q536.0 233.0 523.0 236.25Q510.0 239.5 510.0 242.5V243.0Q510.0 255.5 587.0 263.0Q610.5 265.0 627.0 269.0Q643.5 273.0 643.5 274.5Q643.5 277.5 630.75 279.25Q618.0 281.0 599.0 281.0Q561.0 281.0 533.25 286.5Q505.5 292.0 496.5 301.5Q490.5 309.5 485.5 309.5Q480.5 309.5 480.5 303.5Q480.5 297.0 487.5 286.5Q491.5 280.5 494.0 273.0Q496.5 265.5 496.5 261.5Q496.5 254.0 493.0 254.0Q492.5 254.0 491.5 254.0Q490.5 254.0 489.0 255.0L473.5 260.5L487.5 234.0Q495.0 216.5 495.0 206.0ZM969.5 19.0Q973.5 10.0 979.5 10.0Q985.0 10.0 985.0 17.5Q985.0 26.5 969.5 46.5Q956.5 63.5 950.5 73.5Q944.5 83.5 944.5 90.5Q944.5 92.5 946.25 98.25Q948.0 104.0 950.5 109.0Q953.0 114.0 955.5 114.0Q958.5 114.0 968.0 120.0Q977.5 126.0 988.5 134.25Q999.5 142.5 1007.5 149.75Q1015.5 157.0 1015.5 159.0Q1015.5 163.0 1012.5 163.0Q1009.5 163.0 1002.25 159.75Q995.0 156.5 986.5 150.5Q977.0 144.0 968.5 138.75Q960.0 133.5 957.5 133.5Q955.5 133.5 950.0 140.5Q944.5 147.5 938.25 157.5Q932.0 167.5 927.5 176.25Q923.0 185.0 923.0 188.5Q923.0 192.0 927.0 199.5Q928.5 204.5 933.75 209.25Q939.0 214.0 944.0 216.0Q948.5 217.0 957.0 223.0Q965.5 229.0 974.25 236.75Q983.0 244.5 989.25 251.5Q995.5 258.5 995.5 261.5Q995.5 265.0 992.5 265.0Q991.0 265.0 984.75 261.25Q978.5 257.5 971.5 252.0L952.0 238.0L942.5 250.5Q938.5 256.0 932.75 264.0Q927.0 272.0 923.0 278.5Q917.5 287.5 917.5 295.5Q917.5 316.0 947.0 331.0Q964.5 340.5 976.75 350.25Q989.0 360.0 989.0 365.0Q989.0 368.0 987.0 369.5H985.0Q981.5 369.5 961.0 358.0Q935.0 339.0 909.0 327.5Q883.0 316.0 861.5 313.0L827.5 309.0L872.0 278.5Q888.0 267.5 903.5 257.0Q919.0 246.5 924.5 241.5L935.5 232.0L922.5 224.0Q915.5 219.5 899.25 215.0Q883.0 210.5 866.0 207.75Q849.0 205.0 838.5 205.0Q831.0 205.0 830.5 206.0V205.0Q828.5 207.0 824.5 213.5Q820.5 220.0 816.5 228.5Q812.5 236.5 810.5 246.75Q808.5 257.0 807.75 276.25Q807.0 295.5 807.0 330.5Q807.0 370.5 805.25 393.0Q803.5 415.5 801.0 415.5Q797.5 415.5 795.5 396.25Q793.5 377.0 793.5 342.0Q793.5 314.0 792.75 296.25Q792.0 278.5 789.75 267.75Q787.5 257.0 783.25 250.0Q779.0 243.0 771.5 236.5Q766.0 231.0 763.0 231.0Q761.0 231.0 758.5 233.25Q756.0 235.5 752.0 241.5Q730.0 266.0 717.5 284.0Q705.0 302.0 705.0 310.5Q705.0 314.5 707.5 314.5Q709.5 316.5 711.25 320.5Q713.0 324.5 713.0 328.5Q713.0 330.5 719.25 336.5Q725.5 342.5 734.0 347.0Q745.5 355.0 756.25 364.25Q767.0 373.5 774.25 382.0Q781.5 390.5 781.5 395.0Q781.0 396.5 781.0 398.0Q781.0 399.5 780.0 400.5H778.0Q776.0 400.5 770.0 396.0Q764.0 391.5 756.0 384.5Q731.0 361.0 702.0 345.25Q673.0 329.5 645.0 325.5L604.0 318.0L634.5 299.5Q650.5 290.5 670.0 277.5Q689.5 264.5 707.5 251.5Q725.5 238.5 737.0 229.0Q748.5 219.5 748.5 217.5Q748.5 214.5 738.0 206.75Q727.5 199.0 712.75 190.0Q698.0 181.0 683.75 174.0Q669.5 167.0 662.0 165.5Q655.0 164.5 643.25 162.0Q631.5 159.5 622.0 157.5Q605.0 154.0 592.0 152.25Q579.0 150.5 567.5 150.5Q540.5 150.5 512.25 157.0Q484.0 163.5 461.5 179.5Q439.0 195.5 428.5 224.0Q427.5 228.5 424.5 228.5Q423.0 228.5 422.0 227.0Q420.0 226.5 420.0 221.0Q420.0 207.5 425.5 185.5Q429.5 168.5 430.5 152.25Q431.5 136.0 431.5 119.0Q431.0 110.0 430.5 101.75Q430.0 93.5 430.0 89.5Q430.0 87.5 430.5 86.25Q431.0 85.0 431.0 85.0Q432.0 85.0 437.0 88.25Q442.0 91.5 447.5 98.0Q453.0 102.5 460.75 107.75Q468.5 113.0 474.5 114.5Q484.5 119.0 503.5 123.0Q522.5 127.0 544.75 130.5Q567.0 134.0 587.25 136.0Q607.5 138.0 620.0 138.0Q629.0 138.0 643.25 131.25Q657.5 124.5 674.0 113.75Q690.5 103.0 706.5 91.25Q722.5 79.5 735.25 69.25Q748.0 59.0 754.5 53.5Q759.5 48.0 763.25 45.5Q767.0 43.0 768.0 43.0Q772.0 43.0 772.0 48.5Q772.0 56.0 759.0 69.5H759.5L750.0 80.0L762.5 81.5Q768.0 82.0 779.5 82.5Q791.0 83.0 804.5 83.0H843.0Q856.0 83.0 863.5 84.5Q871.0 86.0 871.0 88.5Q871.0 89.5 872.5 89.5Q876.0 89.5 886.5 83.25Q897.0 77.0 910.5 67.5Q924.0 58.0 937.25 48.0Q950.5 38.0 959.5 30.0Q968.5 22.0 969.5 19.0ZM234.5 327.0Q234.5 324.5 235.0 323.25Q235.5 322.0 238.0 322.0Q243.0 322.0 257.5 335.0Q269.5 342.5 290.5 348.25Q311.5 354.0 335.75 358.0Q360.0 362.0 381.5 364.0Q403.0 366.0 415.5 366.0Q424.5 366.0 424.5 372.0Q424.5 373.0 424.0 373.5Q423.5 374.0 423.5 375.0Q421.0 379.0 407.0 379.0Q398.5 379.0 388.0 377.5Q383.0 377.0 378.5 377.0Q374.0 377.0 368.5 377.0Q342.0 377.0 316.5 383.0Q291.0 389.0 272.5 399.0Q254.0 409.0 247.5 421.5L245.0 426.5Q241.0 435.0 239.25 438.25Q237.5 441.5 236.0 441.5Q234.5 441.5 232.5 440.0V439.5Q231.0 437.0 231.0 434.0Q231.0 428.5 232.75 417.5Q234.5 406.5 236.5 394.0Q239.0 381.5 240.5 372.25Q242.0 363.0 242.0 356.5Q242.0 352.5 241.75 348.75Q241.5 345.0 239.5 342.5Q234.5 331.0 234.5 327.0ZM417.5 323.0Q417.5 317.0 423.0 317.0Q426.0 317.0 433.0 320.25Q440.0 323.5 451.0 329.5Q471.5 340.5 517.25 348.75Q563.0 357.0 640.0 362.5Q663.0 363.5 681.75 365.5Q700.5 367.5 711.75 370.0Q723.0 372.5 723.0 375.0Q723.0 380.5 699.0 380.5Q693.0 380.5 686.25 379.75Q679.5 379.0 671.5 379.0Q663.0 378.5 653.5 378.0Q644.0 377.5 634.0 377.5Q622.0 377.5 600.5 378.75Q579.0 380.0 554.0 383.5Q529.0 387.0 505.5 393.75Q482.0 400.5 465.5 411.25Q449.0 422.0 445.0 437.5Q443.0 447.0 440.0 451.25Q437.0 455.5 434.5 456.5Q430.0 455.0 430.0 443.0Q430.0 440.5 430.25 437.75Q430.5 435.0 431.0 431.5Q433.5 420.5 434.25 408.5Q435.0 396.5 435.0 384.5Q435.0 368.0 433.0 355.0Q431.0 342.0 426.5 337.0Q423.0 333.0 420.25 329.0Q417.5 325.0 417.5 323.0Z" fill="black" /></svg>