<svg xmlns="http://www.w3.org/2000/svg" width="695.0" height="376.5" viewBox="0 0 695.0 376.5"><path d="M71.0 282.0Q69.0 282.5 66.75 282.5Q64.5 282.5 62.0 282.5Q51.0 282.5 43.5 281.0L31.0 277.0L32.5 301.0L33.0 324.0L56.5 303.0Q65.0 296.0 71.5 289.75Q78.0 283.5 80.5 281.0Q79.0 281.0 76.25 281.25Q73.5 281.5 71.0 282.0ZM66.5 151.0 72.0 135.0H63.0Q55.0 135.0 55.0 139.0Q55.0 140.5 56.25 147.25Q57.5 154.0 58.75 160.25Q60.0 166.5 60.0 166.5Q60.0 166.5 62.0 161.5Q64.0 156.5 66.5 151.0ZM103.5 148.5Q98.5 133.0 92.5 133.0Q87.0 133.0 80.0 149.0Q69.5 172.0 66.25 194.5Q63.0 217.0 63.0 242.0L64.5 271.5L108.5 264.0V213.5Q108.5 192.0 107.25 173.0Q106.0 154.0 103.5 148.5ZM141.0 78.5Q124.0 69.5 108.0 59.25Q92.0 49.0 86.5 44.0Q78.5 36.0 76.0 36.0Q75.5 36.0 75.5 38.0Q75.5 41.0 71.0 49.25Q66.5 57.5 60.0 66.0L46.0 84.0H67.5Q91.0 84.0 120.0 88.0Q149.0 92.0 173.5 96.5Q176.0 97.0 177.5 97.25Q179.0 97.5 179.5 97.5Q179.0 97.5 167.25 91.75Q155.5 86.0 141.0 78.5ZM130.5 136.0Q126.5 135.0 121.0 135.0Q113.5 135.0 113.5 138.0Q113.5 141.0 116.5 151.0L120.0 166.5L124.5 152.0Q127.0 146.5 128.5 142.25Q130.0 138.0 130.5 136.0ZM436.0 226.0Q436.0 224.0 433.25 219.5Q430.5 215.0 428.0 215.0Q424.5 215.0 419.0 226.0Q416.0 231.0 413.75 234.25Q411.5 237.5 411.0 237.5Q413.0 237.5 419.0 235.5Q425.0 233.5 430.5 230.75Q436.0 228.0 436.0 226.0ZM452.5 106.5Q452.5 104.5 444.5 103.5Q441.5 102.5 440.5 102.5Q436.5 102.5 436.5 116.5Q436.5 122.5 437.0 127.25Q437.5 132.0 437.5 132.0Q439.0 132.0 442.5 126.25Q446.0 120.5 449.25 114.0Q452.5 107.5 452.5 106.5ZM607.5 78.0V77.5Q607.0 76.0 606.25 75.25Q605.5 74.5 602.5 74.5Q597.0 74.5 582.5 77.0Q568.0 79.5 549.75 83.75Q531.5 88.0 513.5 92.75Q495.5 97.5 482.5 101.75Q469.5 106.0 466.5 109.0H467.0Q453.5 124.5 446.0 147.5Q438.5 170.5 438.0 189.0Q438.5 198.0 440.5 205.5Q442.5 213.0 446.5 217.0Q450.5 220.0 454.75 222.25Q459.0 224.5 461.0 224.5Q463.5 224.5 484.75 232.0Q506.0 239.5 534.5 251.0Q564.0 262.5 579.5 267.75Q595.0 273.0 600.0 273.0Q603.0 273.0 603.0 272.5Q604.5 271.0 605.0 264.75Q605.5 258.5 605.5 249.0Q605.5 235.0 604.5 218.0Q603.5 201.0 601.5 186.0Q599.5 171.0 597.0 163.5Q596.0 156.5 590.75 147.75Q585.5 139.0 580.0 134.5Q575.0 128.5 571.0 123.5Q567.0 118.5 567.0 118.0Q567.0 116.0 573.25 115.0Q579.5 114.0 587.5 114.0Q601.0 114.0 603.5 112.0Q606.0 110.0 607.5 99.0Q608.0 95.0 608.0 91.5Q608.0 88.0 608.0 85.0Q608.0 78.5 607.5 78.0ZM646.5 127.5Q640.0 127.5 633.5 127.5Q627.0 127.5 620.5 128.5Q610.0 128.5 603.0 128.75Q596.0 129.0 596.0 129.0Q597.0 131.0 598.5 135.25Q600.0 139.5 602.0 144.5Q605.5 151.5 608.5 162.25Q611.5 173.0 612.5 182.0Q614.5 195.0 616.0 195.0Q616.0 195.0 616.5 194.25Q617.0 193.5 617.5 192.5Q619.0 188.5 623.75 177.75Q628.5 167.0 634.0 155.5Q643.0 133.0 646.5 127.5ZM631.5 50.5 645.0 34.0H625.0Q604.0 34.0 604.0 37.5Q604.0 39.0 607.0 42.0Q608.5 43.0 610.75 47.75Q613.0 52.5 615.0 58.0L619.0 68.0Q622.0 63.5 625.25 59.0Q628.5 54.5 631.5 50.5ZM67.0 30.5Q76.0 10.0 79.5 10.0Q83.0 10.0 86.0 21.0Q91.0 41.0 143.0 66.25Q195.0 91.5 304.5 128.5Q333.0 137.5 357.5 146.0Q382.0 154.5 398.0 160.25Q414.0 166.0 416.0 167.0Q420.0 170.0 423.5 170.0Q424.5 170.0 424.5 169.5Q425.5 168.5 426.25 161.75Q427.0 155.0 427.0 145.0Q427.0 129.5 426.0 111.5Q425.0 93.5 423.0 81.5Q422.5 79.0 422.5 76.75Q422.5 74.5 422.5 72.5Q422.5 61.5 426.5 61.5Q431.5 61.5 436.5 76.0Q439.0 84.0 443.25 87.75Q447.5 91.5 455.5 91.5Q465.0 91.5 483.0 87.0Q491.5 85.0 504.75 82.0Q518.0 79.0 532.75 76.0Q547.5 73.0 560.5 70.5L605.0 61.0L600.0 50.5V51.0Q598.0 46.5 591.75 41.25Q585.5 36.0 580.0 34.0Q568.5 30.0 568.5 26.5Q568.5 21.5 595.0 21.5H608.0Q614.5 21.5 624.0 21.25Q633.5 21.0 643.0 20.25Q652.5 19.5 658.0 17.5Q662.5 16.0 666.25 15.5Q670.0 15.0 673.5 15.0Q685.0 15.0 685.0 20.5Q685.0 24.5 676.0 28.0Q670.5 30.0 663.25 35.0Q656.0 40.0 650.5 45.0Q643.5 52.0 635.75 65.0Q628.0 78.0 622.5 90.75Q617.0 103.5 617.0 110.5Q617.0 114.5 618.0 116.25Q619.0 118.0 622.5 118.0Q629.5 118.0 642.25 115.25Q655.0 112.5 660.0 109.0Q662.5 108.0 665.25 107.25Q668.0 106.5 670.5 106.5Q674.0 106.5 677.0 108.0Q683.0 110.5 683.0 112.5Q683.0 115.5 674.0 118.5Q663.5 122.5 653.75 138.25Q644.0 154.0 635.5 178.25Q627.0 202.5 621.25 231.5Q615.5 260.5 614.0 290.5Q613.5 317.0 611.0 331.75Q608.5 346.5 606.0 346.5Q602.5 346.5 602.5 316.5V290.0L533.5 263.0L519.5 258.0Q495.0 249.0 476.75 242.5Q458.5 236.0 455.5 236.0Q451.0 236.0 440.75 239.75Q430.5 243.5 419.5 249.0Q408.5 254.5 400.5 259.25Q392.5 264.0 392.5 266.0Q392.5 272.0 384.5 272.0Q377.0 272.0 377.0 266.5Q377.0 262.0 385.0 255.5Q387.5 253.5 394.0 244.0Q400.5 234.5 408.25 222.0Q416.0 209.5 422.25 198.75Q428.5 188.0 430.0 183.5Q424.5 184.5 405.0 189.5Q385.5 194.5 357.5 202.0Q329.5 209.5 297.5 218.5Q265.5 227.5 234.25 236.5Q203.0 245.5 177.25 253.0Q151.5 260.5 135.5 265.5Q119.5 270.5 119.0 271.5Q118.0 273.0 114.0 275.0Q110.0 277.0 106.0 279.0Q100.5 280.5 89.0 289.75Q77.5 299.0 64.75 311.75Q52.0 324.5 42.5 336.25Q33.0 348.0 31.0 354.0Q27.0 366.5 22.5 366.5Q17.5 366.5 17.5 354.0Q17.5 347.5 19.0 339.5Q20.5 334.5 21.0 327.0Q21.5 319.5 21.5 311.5Q21.5 305.0 21.25 298.75Q21.0 292.5 20.5 286.5Q20.0 279.5 19.75 273.0Q19.5 266.5 19.5 261.5Q19.5 249.5 21.0 248.0H21.5Q23.0 248.0 26.25 251.0Q29.5 254.0 33.0 258.5Q39.0 269.0 46.5 269.0Q49.0 269.0 50.25 257.25Q51.5 245.5 51.5 229.0Q51.5 212.0 50.25 193.75Q49.0 175.5 46.75 161.25Q44.5 147.0 41.0 142.0Q38.0 137.0 35.75 132.75Q33.5 128.5 33.5 127.0Q33.5 125.0 40.0 124.0Q46.5 123.0 56.0 123.0Q64.5 123.0 72.0 121.75Q79.5 120.5 81.5 119.0H81.0Q84.0 116.0 87.5 116.0Q91.0 116.0 96.0 118.5Q100.0 120.5 106.5 121.75Q113.0 123.0 119.5 123.0Q133.5 123.0 138.5 119.0H138.0Q142.0 115.0 146.5 115.0Q149.5 115.0 152.5 116.5Q157.5 118.0 157.5 121.0Q157.5 123.0 151.0 129.0Q143.5 134.0 137.5 149.0Q131.5 164.0 127.5 183.25Q123.5 202.5 121.5 220.25Q119.5 238.0 119.5 248.0Q119.5 255.5 122.5 255.5Q124.0 255.5 125.0 255.0Q127.5 254.0 148.0 248.25Q168.5 242.5 201.0 233.25Q233.5 224.0 272.0 213.5L405.5 176.0L339.5 154.0Q295.0 138.5 247.75 125.5Q200.5 112.5 152.25 104.5Q104.0 96.5 56.5 96.5Q30.0 96.5 17.0 100.5H16.0Q10.0 100.5 10.0 94.5Q10.0 90.5 13.25 87.75Q16.5 85.0 20.0 84.5Q26.5 83.5 35.5 75.25Q44.5 67.0 53.25 54.75Q62.0 42.5 67.0 30.5Z" fill="black" /></svg>