<svg xmlns="http://www.w3.org/2000/svg" width="555.0" height="391.0" viewBox="0 0 555.0 391.0"><path d="M113.0 274.0Q113.0 273.0 101.0 269.0Q89.0 265.0 71.5 260.0L32.0 247.0V306.5L53.5 294.5Q63.5 289.5 76.25 284.75Q89.0 280.0 97.0 279.0Q103.5 277.5 108.25 276.0Q113.0 274.5 113.0 274.0ZM113.0 127.5Q113.0 126.5 101.0 122.5Q89.0 118.5 71.5 113.5L32.0 100.5V160.0L53.5 148.0Q63.5 143.0 76.25 138.25Q89.0 133.5 97.0 132.0Q103.5 131.0 108.25 129.5Q113.0 128.0 113.0 127.5ZM168.0 266.5H244.0V134.0H168.0ZM333.0 266.5 332.0 199.5Q331.5 171.5 330.5 157.0Q329.5 142.5 328.0 137.0Q326.5 131.5 323.5 131.0Q320.0 131.0 309.0 131.5Q298.0 132.0 286.5 132.5L257.5 135.0V266.5ZM414.5 138.0V137.0Q410.5 133.0 396.75 131.0Q383.0 129.0 369.5 129.0Q362.5 129.0 356.5 129.5Q350.5 130.0 349.0 132.0Q348.5 133.0 347.25 153.25Q346.0 173.5 346.0 201.0V266.5H381.0Q401.5 266.5 409.25 264.5Q417.0 262.5 418.5 259.0Q419.5 255.5 420.5 238.0Q421.5 220.5 421.5 198.0Q421.5 166.0 420.0 153.75Q418.5 141.5 414.5 138.0ZM178.5 48.5V48.0Q178.5 45.5 164.5 45.5Q157.5 45.5 152.5 45.25Q147.5 45.0 147.5 44.0Q147.5 45.0 150.0 52.5Q152.5 60.0 156.5 70.0L165.0 91.5L169.5 75.5Q170.5 72.5 171.75 69.25Q173.0 66.0 174.0 63.5Q176.0 58.5 177.0 54.5Q178.0 50.5 178.5 48.5ZM210.5 38.0Q208.0 37.0 205.25 36.0Q202.5 35.0 201.5 35.0Q201.0 35.0 197.75 42.25Q194.5 49.5 190.0 60.25Q185.5 71.0 181.75 81.75Q178.0 92.5 175.5 100.0L169.5 119.0H244.0L241.0 99.0Q239.0 85.5 233.75 72.25Q228.5 59.0 222.25 49.5Q216.0 40.0 210.5 38.0ZM268.5 42.5V43.5L269.5 42.5Q269.5 40.5 253.5 40.5Q247.0 40.5 242.0 40.25Q237.0 40.0 236.5 39.0Q237.0 40.0 239.5 47.25Q242.0 54.5 245.5 64.0L253.5 86.0L259.0 69.5Q259.5 68.0 261.75 62.0Q264.0 56.0 266.25 49.75Q268.5 43.5 268.5 42.5ZM308.5 45.0Q303.5 38.5 299.25 34.25Q295.0 30.0 293.0 30.0Q291.5 30.0 287.0 39.75Q282.5 49.5 277.0 63.25Q271.5 77.0 267.0 90.0Q262.5 103.0 261.0 109.5V112.0Q261.0 115.5 267.5 116.25Q274.0 117.0 295.5 117.0H330.5L329.0 102.0Q328.5 82.0 324.25 70.0Q320.0 58.0 308.5 45.0ZM358.5 42.0Q358.5 41.0 353.75 40.75Q349.0 40.5 343.0 40.5H327.5Q330.0 45.5 331.75 50.5Q333.5 55.5 335.5 60.5L342.0 81.5Q344.5 77.5 346.25 73.0Q348.0 68.5 349.5 65.0L352.5 58.5Q355.0 52.0 356.75 47.5Q358.5 43.0 358.5 42.0ZM392.5 39.0H393.5Q390.0 35.5 386.75 32.75Q383.5 30.0 382.5 30.0Q379.5 30.0 374.0 41.0Q368.5 52.0 362.75 67.25Q357.0 82.5 353.0 96.25Q349.0 110.0 349.0 115.5V117.0Q351.5 117.5 361.75 118.25Q372.0 119.0 385.5 119.0H416.5V104.5Q416.5 94.0 413.0 81.25Q409.5 68.5 404.0 57.0Q398.5 45.5 392.5 39.0ZM442.5 36.0Q442.5 36.0 438.0 35.5Q433.5 35.0 426.0 35.0H410.5L418.5 55.5Q422.0 65.0 425.25 71.25Q428.5 77.5 429.0 77.5Q430.5 77.5 433.75 68.75Q437.0 60.0 439.75 49.75Q442.5 39.5 442.5 36.0ZM285.5 19.0Q285.5 12.0 289.5 10.5Q291.0 10.5 296.0 14.5Q300.0 18.5 312.25 20.75Q324.5 23.0 337.75 24.0Q351.0 25.0 358.0 25.0Q365.0 25.0 367.25 24.0Q369.5 23.0 369.5 20.5Q369.5 10.0 375.5 10.0Q380.0 10.0 385.5 15.0Q388.0 17.0 400.0 19.5Q412.0 22.0 426.0 22.5Q441.5 23.5 452.5 24.5Q463.5 25.5 463.5 25.5Q466.0 25.5 462.5 34.25Q459.0 43.0 453.5 55.5Q448.5 67.0 443.75 81.0Q439.0 95.0 438.0 102.0L435.0 119.0H488.5Q514.5 119.0 529.75 121.0Q545.0 123.0 545.0 126.5Q545.0 130.5 529.75 132.25Q514.5 134.0 488.5 134.0H435.0V195.0Q435.0 219.5 435.0 239.0Q435.0 258.5 434.5 261.5Q435.5 262.0 451.0 263.0Q466.5 264.0 488.0 265.0Q516.5 265.5 530.5 268.25Q544.5 271.0 544.5 274.0Q544.5 276.5 530.0 279.0Q515.5 281.5 486.5 281.5H430.0V323.5Q430.0 344.0 428.0 357.0Q426.0 370.0 423.0 370.0Q420.5 370.0 418.5 357.0Q416.5 344.0 416.5 323.5V283.0L387.0 279.0Q379.5 278.0 373.0 277.75Q366.5 277.5 361.0 277.5Q352.0 277.5 351.0 278.5Q348.5 279.5 347.25 292.0Q346.0 304.5 346.0 320.5Q346.0 338.0 344.75 352.0Q343.5 366.0 340.0 367.5H338.5Q332.5 367.5 332.5 323.5V281.5H257.5V319.5Q257.5 336.5 255.75 351.0Q254.0 365.5 252.0 369.0Q250.5 371.0 248.75 373.0Q247.0 375.0 246.0 375.0Q243.5 375.0 243.5 358.5Q243.5 353.0 243.5 343.5Q243.5 334.0 244.0 321.5L245.0 281.5H168.0V309.0Q168.0 328.0 166.25 344.5Q164.5 361.0 161.75 371.0Q159.0 381.0 155.5 381.0Q152.5 381.0 152.5 361.5Q152.5 355.5 152.75 347.5Q153.0 339.5 153.5 330.5L156.5 285.0L131.0 288.0Q120.0 289.0 106.0 292.0Q92.0 295.0 83.5 297.5Q72.5 301.0 58.5 310.25Q44.5 319.5 33.75 330.0Q23.0 340.5 20.0 347.5Q17.5 353.5 14.0 355.0Q13.5 355.0 13.25 354.5Q13.0 354.0 12.0 354.0Q10.0 352.0 10.0 347.5Q10.0 342.0 13.5 332.5Q16.0 327.5 17.0 313.75Q18.0 300.0 18.0 284.5V257.0Q18.0 245.0 18.5 237.25Q19.0 229.5 20.0 228.0Q20.0 227.0 22.5 227.0Q28.0 227.0 45.5 234.5Q53.5 238.5 68.75 244.0Q84.0 249.5 100.75 254.5Q117.5 259.5 131.25 263.0Q145.0 266.5 149.5 266.5Q152.5 266.5 153.75 252.75Q155.0 239.0 155.0 202.5V138.0L130.0 141.5Q119.5 142.5 105.75 145.5Q92.0 148.5 83.5 151.0Q72.5 154.0 58.5 163.25Q44.5 172.5 33.75 183.25Q23.0 194.0 20.0 201.0Q18.0 207.5 14.0 207.5Q13.5 207.5 13.25 207.25Q13.0 207.0 12.0 207.0Q10.0 205.0 10.0 200.5Q10.0 197.5 11.0 193.75Q12.0 190.0 13.5 186.0Q16.0 181.0 17.0 167.25Q18.0 153.5 18.0 138.0V110.5Q18.0 99.0 18.5 91.25Q19.0 83.5 19.5 81.5Q20.5 80.0 23.0 80.0Q26.0 80.0 32.25 82.25Q38.5 84.5 45.5 88.0Q53.5 91.5 68.75 96.75Q84.0 102.0 100.75 107.0Q117.5 112.0 131.25 115.5Q145.0 119.0 149.5 119.0Q152.5 119.0 152.5 113.5Q152.5 111.5 152.5 109.25Q152.5 107.0 152.0 104.5V105.0Q147.0 80.0 140.5 65.75Q134.0 51.5 123.5 43.5Q108.0 32.5 108.0 26.5Q108.0 22.5 112.5 22.5Q116.0 22.5 123.5 25.5Q129.5 28.5 141.75 29.5Q154.0 30.5 166.5 30.5Q178.5 30.5 188.0 29.75Q197.5 29.0 198.0 27.0Q199.0 22.5 209.0 22.5Q218.0 22.5 233.0 25.5Q241.5 26.5 248.5 27.25Q255.5 28.0 261.0 28.0Q285.5 28.0 285.5 19.0Z" fill="black" /></svg>