<svg xmlns="http://www.w3.org/2000/svg" width="831.5" height="448.5" viewBox="0 0 831.5 448.5"><path d="M77.5 179.5 85.0 160.0H74.0Q68.5 160.0 66.5 161.0Q64.5 162.0 64.5 164.5Q64.5 166.5 65.75 175.0Q67.0 183.5 68.5 191.0Q70.0 198.5 70.0 198.5Q70.0 198.5 72.5 192.25Q75.0 186.0 77.5 179.5ZM122.5 176.5Q116.0 158.0 109.0 158.0Q103.0 158.0 94.0 177.0Q81.5 205.0 77.75 231.5Q74.0 258.0 74.0 288.5L76.0 324.0L128.5 315.0V255.0Q128.5 228.5 126.75 205.75Q125.0 183.0 122.5 176.5ZM155.0 161.5Q153.0 161.0 150.25 160.5Q147.5 160.0 143.5 160.0Q138.5 160.0 136.25 160.5Q134.0 161.0 134.0 163.5Q134.0 165.5 135.0 169.5Q136.0 173.5 138.0 179.5L142.5 198.5L148.0 180.5Q150.5 174.5 152.5 169.25Q154.5 164.0 155.0 161.5ZM775.0 151.5Q767.0 151.5 759.25 151.5Q751.5 151.5 743.5 152.5H714.0Q715.0 155.5 717.25 160.5Q719.5 165.5 722.0 171.5Q726.0 180.0 729.5 193.0Q733.0 206.0 734.0 216.5Q736.0 232.0 738.5 232.0Q738.5 232.0 739.25 231.25Q740.0 230.5 740.5 229.5Q742.0 225.0 747.75 211.75Q753.5 198.5 760.0 184.5Q765.0 172.5 769.5 163.0Q774.0 153.5 775.0 151.5ZM168.0 92.0Q154.0 85.0 140.5 77.0Q127.0 69.0 116.75 62.0Q106.5 55.0 102.0 51.0Q97.5 45.5 94.0 43.5Q90.5 41.5 89.5 41.5Q88.5 41.5 88.5 43.5Q88.5 47.0 83.25 57.25Q78.0 67.5 70.0 77.5L53.5 99.0H79.0Q107.5 99.0 142.5 103.75Q177.5 108.5 206.5 114.5Q209.5 114.5 211.25 114.75Q213.0 115.0 213.5 115.0Q213.0 115.0 199.25 108.25Q185.5 101.5 168.0 92.0ZM542.0 126.0Q542.0 125.0 539.25 124.0Q536.5 123.0 532.5 122.5Q531.0 122.0 529.75 121.5Q528.5 121.0 527.0 121.0Q522.5 121.0 522.5 138.0Q522.5 145.0 523.25 150.75Q524.0 156.5 524.0 156.5Q525.5 156.5 529.75 149.5Q534.0 142.5 538.0 134.75Q542.0 127.0 542.0 126.0ZM728.5 91.5V91.0Q728.0 89.0 727.0 88.25Q726.0 87.5 722.5 87.5Q715.5 87.5 698.0 90.5Q680.5 93.5 658.5 98.5Q636.5 103.5 615.0 109.0Q593.5 114.5 578.0 119.75Q562.5 125.0 558.5 128.5H559.0Q548.5 141.0 540.75 158.0Q533.0 175.0 529.0 192.5Q525.0 210.0 524.5 225.0Q525.0 236.0 527.5 244.75Q530.0 253.5 534.5 258.5Q539.5 262.0 544.5 264.75Q549.5 267.5 552.0 267.5Q554.0 267.5 566.25 271.75Q578.5 276.0 598.0 283.25Q617.5 290.5 640.5 299.5Q675.5 313.5 694.0 319.75Q712.5 326.0 719.0 326.0Q723.0 326.0 723.0 325.5Q724.5 324.0 725.0 316.25Q725.5 308.5 725.5 297.0Q725.5 280.5 724.25 260.0Q723.0 239.5 720.75 221.25Q718.5 203.0 715.0 194.5Q714.0 186.0 707.75 175.5Q701.5 165.0 694.5 159.5Q688.5 152.5 683.75 146.5Q679.0 140.5 679.0 140.0Q679.0 137.5 686.75 136.25Q694.5 135.0 704.0 135.0Q715.0 135.0 719.5 134.25Q724.0 133.5 725.5 129.5Q727.0 125.5 728.5 116.5Q729.0 112.5 729.0 108.0Q729.0 103.5 729.0 100.0Q729.0 92.0 728.5 91.5ZM757.0 58.5 773.0 38.5H749.5Q723.5 38.5 723.5 43.0Q723.5 45.5 727.5 48.0Q729.5 49.5 732.25 55.25Q735.0 61.0 737.5 67.5L742.0 79.5Q749.0 69.0 757.0 58.5ZM83.5 336.5Q81.5 337.0 78.75 337.25Q76.0 337.5 72.5 337.5Q67.0 337.5 61.0 336.75Q55.0 336.0 50.0 335.5L35.5 331.0L37.5 360.0L38.0 387.5L66.0 362.0Q87.0 342.5 95.0 335.5Q93.0 335.5 89.75 335.75Q86.5 336.0 83.5 336.5ZM522.0 269.5Q522.0 267.0 518.75 261.75Q515.5 256.5 513.0 256.5Q507.5 256.5 501.5 269.5Q498.0 275.0 495.5 279.25Q493.0 283.5 492.5 283.5Q495.0 283.5 502.0 281.0Q509.0 278.5 515.5 275.25Q522.0 272.0 522.0 269.5ZM78.0 34.5Q90.0 10.0 93.5 10.0Q97.0 10.0 101.5 23.0Q107.0 47.0 170.0 77.75Q233.0 108.5 364.0 152.5Q398.0 163.5 427.75 173.5Q457.5 183.5 476.5 190.5Q495.5 197.5 498.0 199.0Q500.5 200.0 503.0 201.25Q505.5 202.5 506.5 202.5Q508.5 202.5 508.5 201.5Q509.5 200.5 510.25 192.5Q511.0 184.5 511.0 172.0Q511.0 153.5 509.75 131.75Q508.5 110.0 506.0 95.5Q505.5 92.5 505.5 89.75Q505.5 87.0 505.5 85.0Q505.5 72.0 510.5 72.0Q516.5 72.0 522.5 89.5Q525.5 99.0 530.75 103.25Q536.0 107.5 545.5 107.5Q558.0 107.5 578.5 102.5Q588.5 100.0 604.5 96.5Q620.5 93.0 638.25 89.25Q656.0 85.5 671.5 83.0L725.0 71.0L719.0 58.5V59.0Q716.0 53.5 708.75 47.5Q701.5 41.5 694.5 38.5Q681.5 34.5 681.5 30.0Q681.5 23.5 713.5 23.5H729.0Q736.5 23.5 748.0 23.25Q759.5 23.0 771.0 22.0Q782.5 21.0 789.0 19.0Q794.5 17.0 799.0 16.5Q803.5 16.0 807.5 16.0Q821.5 16.0 821.5 22.5Q821.5 27.0 810.5 31.5Q804.0 34.5 795.0 40.25Q786.0 46.0 780.0 52.0Q771.5 60.5 762.0 76.25Q752.5 92.0 746.0 107.25Q739.5 122.5 739.5 131.0Q739.5 136.0 740.75 138.0Q742.0 140.0 746.0 140.0Q752.0 140.0 760.75 138.25Q769.5 136.5 778.25 134.0Q787.0 131.5 791.0 128.5Q794.0 127.5 797.0 126.75Q800.0 126.0 803.5 126.0Q808.0 126.0 811.5 127.5Q818.5 131.5 818.5 133.0Q818.5 136.5 808.0 140.5Q795.5 145.0 783.5 164.0Q771.5 183.0 761.5 212.0Q751.5 241.0 744.75 276.0Q738.0 311.0 735.5 347.0Q735.0 379.5 732.0 397.0Q729.0 414.5 726.0 414.5Q722.5 414.5 722.5 378.5V346.5Q717.5 344.5 705.75 340.0Q694.0 335.5 680.75 330.25Q667.5 325.0 656.0 320.5Q644.5 316.0 639.0 314.0L622.5 308.0Q592.5 297.5 571.0 289.75Q549.5 282.0 545.5 282.0Q540.0 282.0 527.75 286.5Q515.5 291.0 502.0 297.5Q488.5 304.0 479.0 309.75Q469.5 315.5 469.5 318.0Q469.5 324.5 460.5 324.5Q451.0 324.5 451.0 318.5Q451.0 313.0 461.0 304.5Q463.5 302.5 471.25 291.25Q479.0 280.0 488.0 265.25Q497.0 250.5 504.5 237.5Q512.0 224.5 514.0 219.0Q506.5 220.0 482.75 226.0Q459.0 232.0 425.25 241.25Q391.5 250.5 353.5 261.25Q315.5 272.0 278.25 282.5Q241.0 293.0 210.25 302.25Q179.5 311.5 160.75 317.25Q142.0 323.0 141.0 324.0Q140.0 326.0 135.25 328.5Q130.5 331.0 125.0 333.0Q120.0 334.5 110.0 342.25Q100.0 350.0 88.0 361.25Q76.0 372.5 64.5 384.5Q53.0 396.5 45.0 407.0Q37.0 417.5 35.5 423.5Q30.5 438.5 25.0 438.5Q19.5 438.5 19.5 423.5Q19.5 420.0 19.75 415.5Q20.0 411.0 20.5 406.5Q23.0 400.5 23.5 391.5Q24.0 382.5 24.0 372.0Q24.0 356.5 22.5 342.5Q22.0 334.0 21.75 326.0Q21.5 318.0 21.5 312.5Q21.5 306.0 22.0 301.25Q22.5 296.5 23.5 295.5H24.0Q25.5 295.5 29.75 299.25Q34.0 303.0 38.0 308.5Q40.5 313.5 45.5 317.25Q50.5 321.0 54.0 321.0Q57.0 321.0 58.5 307.0Q60.0 293.0 60.0 273.0Q60.0 252.5 58.5 230.75Q57.0 209.0 54.5 191.75Q52.0 174.5 48.0 168.5Q38.5 155.5 38.5 151.0Q38.5 148.5 46.25 147.25Q54.0 146.0 65.5 146.0Q75.5 146.0 84.5 144.25Q93.5 142.5 96.0 141.0Q98.0 137.5 103.0 137.5Q107.5 137.5 113.5 140.5Q118.5 142.5 126.5 144.25Q134.5 146.0 142.0 146.0Q150.0 146.0 156.0 144.5Q162.0 143.0 164.5 141.0H164.0Q168.0 136.0 174.0 136.0Q178.0 136.0 181.5 138.0Q187.0 139.5 187.0 143.0Q187.0 146.0 180.0 152.5Q172.5 157.5 166.25 170.25Q160.0 183.0 155.5 200.5Q151.0 218.0 148.0 236.25Q145.0 254.5 143.5 270.25Q142.0 286.0 142.0 295.5Q142.0 301.5 142.75 303.0Q143.5 304.5 145.0 304.5H148.5Q150.5 304.0 165.0 299.75Q179.5 295.5 203.75 288.5Q228.0 281.5 259.25 272.75Q290.5 264.0 325.0 255.0L485.5 209.5L406.0 183.0Q352.5 164.5 295.75 149.0Q239.0 133.5 181.0 124.0Q123.0 114.5 66.0 114.5Q50.5 114.5 38.25 115.5Q26.0 116.5 18.5 119.0H17.5Q10.0 119.0 10.0 111.5Q10.0 107.0 14.0 103.5Q18.0 100.0 22.0 99.5Q30.0 98.5 40.75 88.5Q51.5 78.5 61.75 63.75Q72.0 49.0 78.0 34.5Z" fill="black" /></svg>