<svg xmlns="http://www.w3.org/2000/svg" width="465.5" height="382.5" viewBox="0 0 465.5 382.5"><path d="M31.5 309.5 31.0 309.0Q29.5 305.0 27.5 305.0Q22.5 305.0 22.5 329.5Q22.5 342.0 23.25 347.0Q24.0 352.0 26.5 352.0Q29.0 352.0 35.5 347.5Q39.0 345.0 46.25 341.5Q53.5 338.0 61.0 336.0L74.0 332.0Q69.5 330.0 60.25 326.0Q51.0 322.0 42.5 317.25Q34.0 312.5 31.5 309.5ZM78.5 202.0 67.0 197.5Q61.5 195.0 54.25 190.5Q47.0 186.0 43.0 182.5L34.5 175.0V222.5L45.0 216.5Q49.5 213.5 56.75 210.25Q64.0 207.0 69.0 205.0ZM279.0 285.5Q278.0 283.0 276.75 280.75Q275.5 278.5 274.5 276.5Q273.5 274.5 273.0 273.25Q272.5 272.0 272.5 272.0Q271.5 272.0 267.75 278.25Q264.0 284.5 259.5 293.25Q255.0 302.0 251.25 309.75Q247.5 317.5 246.5 321.0Q250.5 320.5 258.0 319.0Q265.5 317.5 274.0 315.0Q287.0 312.0 292.5 310.5Q298.0 309.0 298.0 308.5Q298.0 308.5 297.0 307.75Q296.0 307.0 294.5 305.5V306.0Q290.5 304.0 286.0 298.0Q281.5 292.0 279.0 285.5ZM323.5 177.5Q321.0 172.0 319.5 165.5Q316.5 157.5 313.75 150.75Q311.0 144.0 309.5 141.5L304.5 132.5L296.5 143.0Q289.5 151.5 286.5 162.5Q283.5 173.5 283.5 195.0Q283.5 202.0 283.75 210.75Q284.0 219.5 284.5 230.0Q286.0 255.5 288.0 269.25Q290.0 283.0 294.5 289.5Q299.0 296.0 308.0 300.5Q319.5 306.5 324.0 306.5Q329.5 306.5 330.5 295.5Q331.5 284.5 331.5 255.5Q331.5 235.0 330.75 221.5Q330.0 208.0 328.5 197.75Q327.0 187.5 323.5 177.5ZM166.5 54.5Q160.0 50.5 155.25 47.5Q150.5 44.5 149.5 44.5Q149.0 44.5 148.75 52.75Q148.5 61.0 148.5 72.5Q148.5 86.0 149.0 92.0Q149.5 98.0 153.0 98.0Q155.5 98.0 159.5 95.5Q163.5 93.0 170.0 89.0Q173.5 86.5 181.25 83.5Q189.0 80.5 196.5 78.5Q210.5 74.0 210.5 73.0Q210.5 71.5 197.0 68.5Q190.5 67.0 181.5 63.0Q172.5 59.0 166.5 54.5ZM227.0 145.0 232.5 133.0H220.5Q210.0 133.0 210.0 134.5Q210.0 136.0 212.0 141.25Q214.0 146.5 216.5 151.0Q219.0 155.5 220.0 155.5Q222.5 155.5 227.0 145.0ZM286.5 135.5Q288.0 134.0 288.0 133.5Q288.0 133.0 276.0 133.0H263.0L269.0 146.0Q273.5 156.0 275.5 156.0Q276.5 156.0 278.0 151.0Q279.0 147.0 281.75 142.25Q284.5 137.5 286.5 135.5ZM340.5 152.0 347.0 136.5H318.5Q320.0 139.0 322.5 144.75Q325.0 150.5 327.0 156.0Q329.0 161.5 329.0 163.5Q329.0 167.5 330.5 167.5Q334.5 167.5 340.5 152.0ZM437.0 30.5Q437.0 29.5 430.5 28.25Q424.0 27.0 414.5 26.5Q412.0 26.5 409.5 26.25Q407.0 26.0 405.0 26.0Q393.0 26.0 393.0 31.0Q393.0 35.5 401.5 51.5Q405.0 59.0 407.25 67.25Q409.5 75.5 409.5 80.0Q409.5 95.5 413.5 95.5Q416.5 95.5 418.0 84.5Q419.0 77.0 422.0 67.25Q425.0 57.5 428.5 51.0Q432.0 44.0 434.5 38.25Q437.0 32.5 437.0 30.5ZM377.5 11.0V11.5Q378.5 10.0 380.0 10.0Q384.5 10.0 391.0 13.0Q395.0 14.5 406.0 15.25Q417.0 16.0 428.0 16.0Q439.5 16.0 447.5 17.5Q455.5 19.0 455.0 21.5Q445.5 40.5 439.25 55.0Q433.0 69.5 429.5 84.0Q426.0 98.5 424.5 116.75Q423.0 135.0 423.0 161.5Q423.0 170.5 423.25 190.25Q423.5 210.0 423.75 233.75Q424.0 257.5 425.25 279.75Q426.5 302.0 428.25 316.75Q430.0 331.5 432.5 333.0Q435.0 334.0 436.0 336.5Q437.0 339.0 437.0 341.5V343.0Q436.0 344.0 435.0 344.0Q430.0 344.0 414.75 341.0Q399.5 338.0 380.0 333.0L367.5 330.0Q349.5 326.0 336.0 323.25Q322.5 320.5 320.0 320.5Q310.0 320.5 296.0 323.0Q282.0 325.5 268.25 328.75Q254.5 332.0 245.0 336.0Q237.0 339.0 231.75 340.25Q226.5 341.5 223.5 341.5Q220.0 341.5 218.5 339.0Q218.0 337.0 203.75 335.75Q189.5 334.5 158.5 334.5Q126.5 334.5 105.5 336.75Q84.5 339.0 67.75 345.0Q51.0 351.0 31.0 362.5Q23.5 366.5 17.5 369.5Q11.5 372.5 11.5 372.5Q10.0 372.5 10.0 366.0Q10.0 359.0 10.5 346.25Q11.0 333.5 12.0 320.0Q13.0 306.5 13.75 296.75Q14.5 287.0 15.0 286.5H15.5Q20.0 286.5 31.0 296.0Q42.5 304.0 51.25 309.0Q60.0 314.0 71.5 316.75Q83.0 319.5 101.25 320.5Q119.5 321.5 149.5 322.5L226.0 325.0L236.0 311.0Q241.0 305.5 247.75 294.25Q254.5 283.0 260.0 273.5V274.0Q266.0 263.0 268.75 255.75Q271.5 248.5 272.25 239.25Q273.0 230.0 273.0 214.0Q273.0 198.5 272.25 189.0Q271.5 179.5 269.25 171.75Q267.0 164.0 262.0 154.5Q258.0 145.0 253.75 139.0Q249.5 133.0 248.0 133.0Q244.5 133.0 241.0 139.75Q237.5 146.5 234.75 156.0Q232.0 165.5 230.5 174.0Q229.0 182.5 229.0 185.5Q229.5 191.5 229.5 199.0Q229.5 206.5 229.5 215.0Q229.5 234.0 228.75 253.0Q228.0 272.0 226.75 284.75Q225.5 297.5 223.5 297.5Q221.0 297.5 219.5 284.25Q218.0 271.0 218.0 249.0V204.5H160.0Q136.5 204.5 120.25 205.5Q104.0 206.5 91.5 209.5Q79.0 212.5 67.75 218.0Q56.5 223.5 42.5 232.0Q36.0 236.5 30.5 239.5Q25.0 242.5 24.5 242.5Q22.5 242.5 22.5 230.5Q22.5 222.0 23.0 210.0Q23.5 198.0 24.5 185.75Q25.5 173.5 26.25 165.25Q27.0 157.0 27.5 156.0H28.0Q29.0 156.0 33.0 159.0Q37.0 162.0 41.0 166.5Q50.5 175.0 58.25 179.75Q66.0 184.5 76.25 187.0Q86.5 189.5 103.5 190.5Q120.5 191.5 149.0 192.5L219.0 194.0L216.5 184.5Q215.5 179.0 211.5 168.75Q207.5 158.5 203.5 149.0Q199.0 140.0 196.0 132.25Q193.0 124.5 193.0 123.0Q193.0 119.5 213.0 119.5Q227.5 119.5 252.5 120.5Q277.5 121.5 315.0 123.5L369.0 126.5L355.5 146.0Q351.5 152.0 349.25 157.25Q347.0 162.5 345.75 170.75Q344.5 179.0 343.75 194.75Q343.0 210.5 342.0 237.5L340.5 311.5L356.0 315.0Q359.5 316.0 363.25 317.0Q367.0 318.0 370.5 319.0Q375.5 320.0 380.0 321.5Q384.5 323.0 388.0 324.0Q389.5 324.5 390.75 324.75Q392.0 325.0 393.5 325.5Q402.0 328.0 406.0 328.0Q411.5 328.0 413.25 321.75Q415.0 315.5 415.0 298.5Q415.0 290.5 414.75 279.5Q414.5 268.5 414.0 254.5Q414.0 249.0 413.75 243.5Q413.5 238.0 413.5 231.5Q410.5 134.5 404.0 104.5L397.5 75.5L326.5 75.0Q319.5 75.0 312.5 74.75Q305.5 74.5 299.0 74.5Q270.0 74.5 250.25 76.75Q230.5 79.0 213.25 84.75Q196.0 90.5 174.0 101.0L165.5 105.0Q155.5 110.0 148.75 113.5Q142.0 117.0 140.5 117.0L141.0 116.5Q140.0 117.0 139.25 105.0Q138.5 93.0 138.5 77.0Q138.5 65.5 138.75 54.0Q139.0 42.5 139.5 34.25Q140.0 26.0 140.5 25.0Q141.5 25.0 148.5 29.0Q155.5 33.0 164.5 38.5Q173.5 45.0 184.5 50.75Q195.5 56.5 202.0 59.0H201.5Q206.5 60.0 222.5 61.0Q238.5 62.0 260.25 62.25Q282.0 62.5 304.5 62.5Q326.5 62.5 346.25 62.25Q366.0 62.0 378.25 61.5Q390.5 61.0 390.5 60.5Q390.5 58.5 388.5 51.0Q386.5 43.5 383.0 35.5Q380.5 28.5 378.75 22.25Q377.0 16.0 377.0 13.5Q377.0 13.0 377.25 12.25Q377.5 11.5 377.5 11.0Z" fill="black" /></svg>