<svg xmlns="http://www.w3.org/2000/svg" width="502.5" height="308.5" viewBox="0 0 502.5 308.5"><path d="M119.5 128.5Q125.0 120.0 127.75 114.25Q130.5 108.5 131.5 106.0Q130.0 107.0 127.25 110.0Q124.5 113.0 120.5 117.5Q115.5 122.5 102.25 133.5Q89.0 144.5 76.0 153.0L47.5 175.0L66.0 179.0Q79.0 182.0 86.5 182.0Q102.5 182.0 102.5 170.0Q102.5 164.0 107.5 152.5Q112.5 141.0 119.5 128.5ZM263.0 122.0Q270.0 111.0 274.0 105.5Q270.0 108.5 261.5 115.5Q253.0 122.5 243.25 130.25Q233.5 138.0 226.0 144.0Q218.5 150.0 216.0 152.0Q209.5 156.5 205.25 160.0Q201.0 163.5 198.5 166.0Q190.5 172.0 190.5 173.5Q190.5 175.5 197.25 177.0Q204.0 178.5 211.75 179.0Q219.5 179.5 223.0 179.5Q230.5 179.5 233.5 176.0Q236.5 172.5 240.0 162.5Q243.0 154.0 249.75 142.25Q256.5 130.5 263.0 122.0ZM397.0 119.5Q404.0 111.0 408.25 104.5Q412.5 98.0 413.0 98.0Q412.0 98.0 403.75 104.5Q395.5 111.0 383.75 120.75Q372.0 130.5 360.5 140.75Q349.0 151.0 341.25 159.25Q333.5 167.5 333.0 170.0Q334.0 170.5 335.5 171.0Q337.0 171.5 339.0 172.0Q346.0 174.5 351.5 175.5Q357.0 176.5 360.5 176.5Q374.0 176.5 377.0 160.5V161.0Q378.5 153.0 384.5 141.0Q390.5 129.0 397.0 119.5ZM192.0 30.0Q201.0 16.0 208.5 16.0Q215.0 16.0 215.0 24.5Q215.0 27.0 208.5 36.75Q202.0 46.5 194.0 56.5Q185.0 66.5 172.25 82.5Q159.5 98.5 147.25 117.0Q135.0 135.5 126.75 153.5Q118.5 171.5 118.5 185.5Q118.5 209.5 138.5 227.5Q147.0 235.0 156.75 247.25Q166.5 259.5 173.75 272.5Q181.0 285.5 181.0 296.5Q180.5 298.5 179.0 298.5Q177.0 298.5 170.5 292.0Q164.0 285.5 156.0 275.0Q151.0 267.0 142.25 257.0Q133.5 247.0 123.0 237.0Q112.5 227.0 103.0 220.0Q89.5 209.5 80.25 204.0Q71.0 198.5 62.75 196.5Q54.5 194.5 44.0 194.5Q42.0 194.5 33.75 194.25Q25.5 194.0 17.75 192.5Q10.0 191.0 10.0 188.0Q10.0 184.0 19.25 175.75Q28.5 167.5 41.5 158.5Q56.0 148.5 74.5 134.25Q93.0 120.0 112.5 104.0Q132.0 88.0 149.0 73.0Q166.0 58.0 177.5 46.5Q189.0 35.0 192.0 30.0ZM336.0 24.5Q336.0 16.0 347.0 16.0Q355.0 16.0 355.0 20.0Q355.0 23.5 349.5 30.5Q347.0 34.0 339.75 44.25Q332.5 54.5 322.25 68.5Q312.0 82.5 300.5 97.5Q254.5 159.0 254.0 177.5Q254.0 179.0 255.25 180.75Q256.5 182.5 258.5 183.0Q263.5 185.0 263.5 191.5Q263.5 193.0 263.5 194.75Q263.5 196.5 263.0 197.5V198.5Q263.0 202.5 267.75 211.75Q272.5 221.0 280.5 229.5Q323.0 276.0 323.0 291.5Q323.0 293.5 321.0 296.0Q320.5 296.5 319.0 296.5Q316.5 296.5 312.25 293.25Q308.0 290.0 304.5 283.5V284.0Q298.5 274.5 285.75 260.25Q273.0 246.0 257.75 232.25Q242.5 218.5 229.75 208.75Q217.0 199.0 211.5 198.5Q205.5 197.0 194.25 194.25Q183.0 191.5 172.0 189.5L143.0 183.5L174.0 162.5Q183.0 156.5 198.5 144.75Q214.0 133.0 232.25 118.0Q250.5 103.0 268.75 87.5Q287.0 72.0 302.25 58.25Q317.5 44.5 326.75 35.25Q336.0 26.0 336.0 24.5ZM474.0 20.0Q475.0 15.5 479.0 12.75Q483.0 10.0 486.5 10.0Q492.5 10.0 492.5 17.0Q492.5 19.0 486.25 28.75Q480.0 38.5 472.0 49.5Q467.0 54.5 457.25 66.75Q447.5 79.0 436.0 94.75Q424.5 110.5 414.0 126.5Q403.5 142.5 396.75 155.25Q390.0 168.0 390.0 174.0Q390.0 178.0 394.5 178.0Q399.0 178.0 399.0 186.0Q399.0 189.5 397.0 193.5Q397.0 194.0 396.75 194.5Q396.5 195.0 396.5 196.0Q396.5 208.0 426.5 240.0Q460.5 277.0 460.5 291.0Q460.5 293.0 459.0 295.25Q457.5 297.5 453.5 297.5Q450.0 297.5 447.0 293.5Q444.0 289.5 441.5 284.0Q440.5 280.5 433.5 272.0Q426.5 263.5 416.0 252.25Q405.5 241.0 393.5 229.5Q377.5 214.5 367.5 206.0Q357.5 197.5 350.5 193.75Q343.5 190.0 336.0 189.0Q328.5 188.0 317.0 188.0Q303.0 188.0 293.25 186.25Q283.5 184.5 283.5 181.0Q284.0 178.5 292.5 171.75Q301.0 165.0 312.0 157.0Q321.5 151.0 336.5 139.75Q351.5 128.5 369.25 114.0Q387.0 99.5 405.0 84.25Q423.0 69.0 438.25 55.5Q453.5 42.0 463.25 32.5Q473.0 23.0 474.0 20.0Z" fill="black" /></svg>