<svg xmlns="http://www.w3.org/2000/svg" width="583.5" height="383.0" viewBox="0 0 583.5 383.0"><path d="M78.0 321.0H79.0Q70.0 318.5 58.5 314.5Q47.0 310.5 40.5 307.0L24.5 298.5V321.5Q24.5 334.0 25.25 339.0Q26.0 344.0 27.5 344.0Q30.0 344.0 30.5 343.0Q34.0 342.0 45.25 338.75Q56.5 335.5 69.5 332.0L93.0 325.5ZM80.5 204.0Q77.0 204.0 67.0 200.75Q57.0 197.5 47.0 192.5L24.5 182.0V205.0Q24.5 217.5 25.0 221.5Q25.5 225.5 27.5 225.5Q29.0 225.5 30.5 225.0Q48.0 218.0 61.5 213.5Q75.0 209.0 80.5 208.5Q87.0 208.5 87.0 206.5Q87.0 204.0 80.5 204.0ZM298.5 69.0 277.5 60.5Q267.0 56.0 256.5 50.5Q246.0 45.0 242.0 40.5Q240.0 39.5 238.75 38.5Q237.5 37.5 236.5 37.5Q235.5 37.5 235.25 43.5Q235.0 49.5 235.0 65.0V95.5L250.5 88.0Q258.0 84.0 268.25 79.75Q278.5 75.5 286.5 72.5ZM334.0 124.0Q335.0 123.0 335.0 121.5Q335.0 120.0 335.0 119.5Q335.0 117.0 323.5 115.5Q311.0 115.5 311.0 121.0Q311.0 126.0 317.0 142.5L322.0 157.5L326.0 147.5Q327.5 143.5 329.25 139.0Q331.0 134.5 332.0 130.0Q332.5 128.0 333.0 126.5Q333.5 125.0 334.0 124.0ZM393.0 130.0 398.0 121.5H366.5Q367.5 123.5 371.25 128.75Q375.0 134.0 379.0 138.25Q383.0 142.5 384.5 142.5Q390.0 137.0 393.0 130.0ZM400.0 205.5 408.5 190.0H393.0Q378.5 190.0 378.5 191.0L379.5 191.5Q382.0 194.5 384.25 200.25Q386.5 206.0 388.5 211.5L391.5 221.5Q393.5 217.5 395.75 213.25Q398.0 209.0 400.0 205.5ZM538.5 45.0 549.0 28.0H498.5Q490.0 28.0 484.5 27.5Q479.0 27.0 479.0 26.5Q479.0 27.0 481.0 31.0Q483.0 35.0 485.5 41.5L490.0 50.5Q494.5 59.0 500.0 72.25Q505.5 85.5 507.5 95.5L512.5 114.0L519.0 92.0Q522.5 80.5 528.25 66.75Q534.0 53.0 538.5 45.0ZM11.5 202.5Q12.0 185.0 14.25 173.5Q16.5 162.0 18.5 162.0Q21.0 162.0 26.75 165.0Q32.5 168.0 39.0 172.0Q49.0 179.5 60.0 183.75Q71.0 188.0 87.75 190.5Q104.5 193.0 131.75 193.75Q159.0 194.5 201.5 194.5Q251.5 194.5 281.0 196.0Q310.5 197.5 312.5 200.5Q317.5 208.5 227.0 208.5Q191.5 208.5 165.75 209.75Q140.0 211.0 120.0 214.0Q100.0 217.0 82.0 222.25Q64.0 227.5 43.5 235.5Q31.5 240.0 23.0 243.0Q14.5 246.0 12.0 246.0H11.5Q10.0 244.5 10.0 234.5Q10.0 222.0 11.5 202.5ZM292.5 104.5V105.5Q293.5 102.5 306.5 102.5Q312.0 102.5 319.5 102.75Q327.0 103.0 334.0 104.0Q371.0 107.0 407.5 107.0Q416.0 107.0 421.75 108.25Q427.5 109.5 427.5 111.0Q427.5 113.0 422.75 118.75Q418.0 124.5 410.5 131.5Q401.5 141.0 398.25 147.25Q395.0 153.5 395.0 162.0Q395.0 171.5 397.0 173.75Q399.0 176.0 410.0 176.0Q417.0 176.0 422.25 177.25Q427.5 178.5 427.5 181.0Q427.5 182.0 424.5 188.0Q421.5 194.0 417.5 199.5Q414.0 204.5 411.75 209.75Q409.5 215.0 408.25 224.0Q407.0 233.0 406.5 249.0Q406.0 265.0 405.5 292.0Q404.5 330.0 402.0 351.5Q399.5 373.0 397.0 373.0Q395.0 373.0 393.5 359.75Q392.0 346.5 392.0 318.0Q392.0 297.0 391.0 281.75Q390.0 266.5 386.75 252.5Q383.5 238.5 377.5 221.5Q371.5 204.5 361.0 179.5V180.5Q359.5 176.5 359.5 176.0Q359.5 171.5 364.0 171.5Q366.5 171.5 371.0 173.0Q374.0 173.5 375.75 174.0Q377.5 174.5 379.5 174.5Q382.5 174.5 382.5 173.0Q382.5 170.0 378.5 162.25Q374.5 154.5 369.0 145.75Q363.5 137.0 358.75 130.75Q354.0 124.5 352.0 124.5Q351.0 124.5 347.5 130.0Q344.0 135.5 341.5 142.5Q337.0 152.5 335.5 167.25Q334.0 182.0 334.0 214.5V306.0Q334.0 327.0 333.75 336.0Q333.5 345.0 332.25 347.0Q331.0 349.0 328.0 349.0Q322.0 349.0 320.5 336.5L319.0 328.5L224.5 329.0Q187.0 329.0 162.5 329.75Q138.0 330.5 119.5 333.25Q101.0 336.0 83.0 341.0Q65.0 346.0 41.0 355.0Q30.5 358.5 22.5 361.0Q14.5 363.5 12.0 363.5H11.5Q10.0 359.5 10.0 351.5Q10.0 343.0 10.75 331.0Q11.5 319.0 12.75 307.25Q14.0 295.5 15.5 287.5Q17.0 279.5 18.5 279.5Q21.0 279.5 26.25 282.0Q31.5 284.5 36.5 289.0Q46.5 295.5 57.25 299.75Q68.0 304.0 84.0 307.0Q100.0 310.0 123.75 311.5Q147.5 313.0 183.0 314.0Q202.0 314.5 220.75 315.0Q239.5 315.5 255.0 315.5Q271.0 315.5 282.75 315.0Q294.5 314.5 300.0 314.0L323.0 311.5L320.0 249.0Q318.0 203.5 312.0 172.5Q306.0 141.5 294.5 120.0Q293.5 117.5 292.5 114.25Q291.5 111.0 291.5 109.0Q291.5 108.0 292.0 106.5Q292.5 105.0 292.5 104.5ZM461.0 11.0 460.5 12.5Q461.5 10.0 465.5 10.0Q473.0 10.0 487.0 12.5H488.5Q495.5 13.5 504.5 14.0Q513.5 14.5 523.0 14.5Q528.5 14.5 533.5 14.5Q538.5 14.5 543.0 14.0Q548.5 13.0 554.0 12.75Q559.5 12.5 563.0 12.5Q573.5 12.5 573.5 16.0Q573.5 18.0 568.75 25.25Q564.0 32.5 557.0 41.5Q548.5 52.5 543.0 62.5Q537.5 72.5 534.25 85.5Q531.0 98.5 529.25 118.0Q527.5 137.5 527.0 167.25Q526.5 197.0 526.5 240.5Q526.5 279.0 525.75 309.0Q525.0 339.0 523.5 356.0Q522.0 373.0 520.5 373.0Q519.0 373.0 517.5 357.75Q516.0 342.5 514.75 316.25Q513.5 290.0 513.0 257.0Q512.5 216.5 511.75 192.5Q511.0 168.5 509.5 154.5Q508.0 140.5 505.25 130.0Q502.5 119.5 497.5 105.5L485.5 67.5L408.5 69.0Q376.5 69.5 354.25 71.5Q332.0 73.5 314.75 77.5Q297.5 81.5 281.75 88.5Q266.0 95.5 247.0 107.0L244.0 108.5Q236.0 112.5 229.75 116.0Q223.5 119.5 221.0 119.5Q221.0 116.0 221.25 105.25Q221.5 94.5 222.0 80.25Q222.5 66.0 223.25 52.0Q224.0 38.0 224.75 27.5Q225.5 17.0 226.5 14.0L226.0 14.5Q226.0 14.5 226.0 14.25Q226.0 14.0 226.5 14.0L227.0 13.0Q227.0 13.5 226.75 13.5Q226.5 13.5 226.5 14.0Q226.5 14.0 226.75 14.0Q227.0 14.0 227.0 14.0Q229.0 14.0 232.75 15.75Q236.5 17.5 240.5 22.0Q252.0 33.0 261.0 39.0Q270.0 45.0 283.0 48.0Q296.0 51.0 318.75 51.75Q341.5 52.5 381.0 53.0L477.0 54.5L474.0 46.5Q473.0 42.0 470.0 36.5Q467.0 31.0 464.0 27.0Q462.5 24.0 461.5 20.25Q460.5 16.5 459.5 14.5Q460.5 13.5 460.5 12.5Q460.5 11.5 461.0 11.0Z" fill="black" /></svg>