<svg xmlns="http://www.w3.org/2000/svg" width="557.0" height="381.0" viewBox="0 0 557.0 381.0"><path d="M53.0 257.0Q44.5 252.5 38.0 249.25Q31.5 246.0 30.5 246.0Q30.5 246.0 30.0 253.75Q29.5 261.5 28.5 272.0V282.5Q28.5 296.0 31.0 296.0Q31.5 296.0 31.75 295.75Q32.0 295.5 32.5 295.5Q34.5 294.5 39.5 292.75Q44.5 291.0 51.0 289.0Q53.5 288.0 56.5 287.0Q59.5 286.0 62.0 285.0Q73.0 281.0 79.5 276.75Q86.0 272.5 86.0 270.0Q86.0 268.5 80.5 268.5Q77.5 268.5 69.5 265.25Q61.5 262.0 53.0 257.0ZM103.0 176.5Q102.0 176.0 98.25 175.5Q94.5 175.0 89.5 175.0H75.5L88.0 207.0L95.0 194.0Q100.5 185.0 102.0 179.0Q102.5 178.0 102.5 177.5Q102.5 177.0 103.0 176.5ZM132.5 216.0 130.0 210.5Q126.5 200.5 121.5 193.25Q116.5 186.0 115.0 185.5H114.0Q110.5 185.5 106.75 193.0Q103.0 200.5 100.75 212.0Q98.5 223.5 98.5 236.0V258.5L141.0 261.0V248.0Q141.0 239.5 138.5 231.75Q136.0 224.0 132.5 216.0ZM157.0 179.5H129.0Q130.5 183.0 132.0 186.5Q133.5 190.0 135.0 193.5Q137.0 198.5 139.25 203.25Q141.5 208.0 143.0 210.5Q144.0 212.5 144.5 213.0Q145.5 212.0 148.5 204.75Q151.5 197.5 154.25 189.5Q157.0 181.5 157.0 179.5ZM373.0 213.5Q374.5 210.5 374.5 208.0Q374.5 207.0 374.25 206.75Q374.0 206.5 374.0 206.0Q372.5 206.5 366.0 211.75Q359.5 217.0 351.0 224.5Q342.5 232.0 334.5 239.75Q326.5 247.5 321.0 253.25Q315.5 259.0 315.5 260.0Q315.5 260.5 323.25 260.75Q331.0 261.0 342.0 261.0H369.5V243.5Q369.5 235.5 370.75 226.75Q372.0 218.0 373.0 213.5ZM138.0 96.5Q131.0 94.0 125.0 92.0Q119.0 90.0 118.0 90.0Q117.0 90.0 116.5 96.75Q116.0 103.5 116.0 113.0V118.5Q116.0 127.5 117.25 131.5Q118.5 135.5 122.5 135.5Q125.5 135.5 130.25 133.75Q135.0 132.0 142.0 129.5Q148.5 127.0 160.25 123.25Q172.0 119.5 183.0 117.5L201.5 114.0L182.0 110.0Q171.0 107.5 158.0 103.75Q145.0 100.0 138.0 96.5ZM517.0 31.5 522.5 23.0H449.5Q452.0 27.0 454.5 31.25Q457.0 35.5 459.5 39.5Q463.5 47.0 468.75 58.25Q474.0 69.5 476.0 76.5Q482.5 96.5 485.0 96.5Q487.5 96.5 491.5 82.5Q494.5 73.0 497.0 66.75Q499.5 60.5 504.0 52.75Q508.5 45.0 517.0 31.5ZM431.0 14.0V12.5Q432.0 11.5 445.0 10.75Q458.0 10.0 475.5 10.0Q491.5 10.0 507.5 10.5Q523.5 11.0 534.75 11.75Q546.0 12.5 547.0 13.5Q547.0 14.0 543.0 19.5Q539.0 25.0 532.0 32.0Q523.0 42.0 517.0 49.75Q511.0 57.5 507.75 67.5Q504.5 77.5 502.75 93.5Q501.0 109.5 500.5 134.75Q500.0 160.0 499.5 199.0Q499.0 217.5 499.0 232.5Q499.0 247.5 499.0 259.0Q499.0 284.5 499.75 297.75Q500.5 311.0 502.0 316.25Q503.5 321.5 506.0 324.5Q508.0 327.5 509.25 329.5Q510.5 331.5 510.5 332.5Q510.5 335.0 508.0 335.0Q503.0 335.0 468.0 317.5Q458.0 313.0 444.5 307.25Q431.0 301.5 416.75 295.75Q402.5 290.0 391.0 286.5L350.0 273.0L250.5 273.5L150.5 275.5V345.5Q150.5 371.0 147.5 371.0Q142.0 371.0 142.0 322.5Q142.0 299.0 141.5 287.75Q141.0 276.5 141.0 276.5Q135.0 278.0 126.5 280.0Q118.0 282.0 111.5 283.25Q105.0 284.5 104.5 285.0L95.0 287.5L98.0 323.5V337.0Q98.0 348.5 97.25 356.25Q96.5 364.0 95.0 365.0H94.0Q92.5 365.0 91.25 358.5Q90.0 352.0 90.0 342.0Q90.0 331.5 89.0 320.0Q88.0 308.5 87.0 303.5Q86.0 298.0 84.25 295.25Q82.5 292.5 78.5 292.5Q73.5 292.5 64.25 296.25Q55.0 300.0 39.5 307.0Q20.0 316.0 14.5 316.0Q10.0 316.0 10.0 311.5Q10.0 307.5 13.0 303.0Q15.5 299.0 17.0 286.5Q18.5 274.0 18.5 261.0Q18.5 246.5 19.25 236.0Q20.0 225.5 21.0 225.5Q22.0 225.5 29.25 229.5Q36.5 233.5 45.0 239.0Q54.0 244.0 63.5 248.5Q73.0 253.0 77.0 254.0Q81.0 255.5 83.0 255.5Q85.5 255.5 85.5 252.0Q85.5 237.5 80.0 220.75Q74.5 204.0 69.5 190.5Q65.0 180.5 62.0 172.25Q59.0 164.0 59.0 162.0V161.0Q60.0 160.5 62.5 160.5Q67.5 160.5 80.25 161.25Q93.0 162.0 109.0 163.5Q125.0 165.0 140.25 166.25Q155.5 167.5 165.75 168.75Q176.0 170.0 176.5 171.0V172.0Q176.5 173.0 174.25 177.25Q172.0 181.5 168.0 187.0Q163.5 193.0 159.5 204.25Q155.5 215.5 153.0 227.75Q150.5 240.0 150.0 249.5V261.0H249.5Q266.0 261.0 276.5 260.0Q287.0 259.0 295.0 255.5Q303.0 252.0 312.25 244.25Q321.5 236.5 336.5 223.5Q339.0 221.0 342.25 218.25Q345.5 215.5 349.0 212.5Q363.0 200.0 376.25 186.5Q389.5 173.0 394.5 166.5Q403.0 155.0 406.5 155.0Q409.0 155.0 409.0 158.5Q409.0 161.5 407.0 167.25Q405.0 173.0 400.0 180.5Q390.0 197.5 384.75 214.25Q379.5 231.0 379.5 243.0Q379.5 261.0 390.5 261.0Q398.0 261.0 398.0 267.5Q398.0 268.0 397.75 268.25Q397.5 268.5 397.5 268.5Q397.5 271.0 401.0 274.0Q402.5 275.0 411.0 279.0Q419.5 283.0 431.75 288.25Q444.0 293.5 456.0 298.5Q468.0 303.5 476.5 306.75Q485.0 310.0 486.5 310.0Q487.5 310.0 487.75 297.75Q488.0 285.5 488.0 266.5Q488.0 247.5 487.5 225.25Q487.0 203.0 486.0 182.5Q485.0 162.0 484.0 147.5Q483.0 133.0 481.5 129.5L477.0 114.5L361.5 116.0Q323.5 116.5 298.5 117.0Q273.5 117.5 257.0 118.75Q240.5 120.0 227.0 122.25Q213.5 124.5 198.0 128.0Q178.0 132.0 157.75 137.5Q137.5 143.0 128.5 147.0Q120.0 150.0 113.0 152.25Q106.0 154.5 103.5 154.5Q102.0 154.5 102.0 153.0V154.0Q101.5 153.5 101.5 150.0Q101.5 147.0 102.0 142.0Q102.5 137.0 103.5 131.0Q106.0 121.0 106.0 107.0Q106.0 103.0 105.75 99.25Q105.5 95.5 105.0 92.0Q103.5 81.5 103.5 75.0Q103.5 69.5 105.5 69.5Q106.5 69.5 115.75 73.25Q125.0 77.0 136.5 82.5Q148.5 87.5 165.0 92.75Q181.5 98.0 193.5 99.5Q200.5 101.0 217.5 101.75Q234.5 102.5 257.25 103.25Q280.0 104.0 305.75 104.25Q331.5 104.5 356.5 104.5Q390.0 104.5 417.25 104.0Q444.5 103.5 454.0 102.0L473.0 99.5L467.5 84.5Q463.5 73.0 456.75 58.75Q450.0 44.5 443.75 33.25Q437.5 22.0 434.5 20.5Q431.0 17.5 431.0 14.0Z" fill="black" /></svg>