<svg xmlns="http://www.w3.org/2000/svg" width="766.0" height="382.5" viewBox="0 0 766.0 382.5"><path d="M111.5 280.5 99.5 275.0Q92.5 272.5 82.75 266.75Q73.0 261.0 66.5 256.0L54.0 247.0L46.5 271.5Q41.5 291.5 41.5 299.0Q45.0 299.0 51.0 295.5Q56.5 293.5 67.25 290.25Q78.0 287.0 90.0 285.0ZM358.0 273.0H333.0Q319.0 273.0 306.25 272.0Q293.5 271.0 289.0 270.0Q287.0 269.5 285.5 269.5Q284.0 269.5 283.0 269.5Q281.0 269.5 281.0 270.5Q281.0 274.0 285.5 288.5Q288.0 295.0 289.75 301.25Q291.5 307.5 292.0 310.0Q292.0 311.5 293.5 311.5Q295.0 311.5 301.5 306.5Q306.0 302.0 317.0 295.0Q328.0 288.0 339.0 282.5ZM127.5 121.5Q127.5 120.5 124.0 117.25Q120.5 114.0 115.0 109.5L103.0 101.0L99.5 116.0Q95.5 126.5 95.5 131.0Q99.5 130.5 107.0 128.75Q114.5 127.0 121.0 124.75Q127.5 122.5 127.5 121.5ZM239.0 173.5H227.5Q221.0 173.5 213.75 172.5Q206.5 171.5 201.5 169.5H202.0Q200.0 169.0 198.25 168.75Q196.5 168.5 194.5 168.0Q194.5 168.5 195.0 169.75Q195.5 171.0 196.0 172.5Q197.0 175.5 200.0 182.75Q203.0 190.0 206.5 198.5L214.0 221.0ZM353.0 175.5Q339.5 171.0 329.75 167.5Q320.0 164.0 319.0 163.5Q317.0 164.0 315.75 171.25Q314.5 178.5 313.75 186.75Q313.0 195.0 313.0 198.5Q314.5 198.5 321.0 197.0Q327.5 195.5 334.5 193.5L352.5 189.0Q358.0 188.0 363.0 186.5Q368.0 185.0 371.5 184.5Q373.5 183.5 375.0 183.5Q376.5 183.5 377.0 183.5Q376.0 183.0 370.25 181.0Q364.5 179.0 353.0 175.5ZM621.0 145.5Q621.0 146.0 620.0 146.0Q618.5 146.0 609.5 151.0Q600.5 156.0 589.25 162.75Q578.0 169.5 568.75 175.5Q559.5 181.5 556.5 184.5Q552.5 189.5 545.0 190.5Q548.5 192.5 558.0 195.75Q567.5 199.0 577.25 201.75Q587.0 204.5 591.0 204.5Q594.5 204.5 594.5 194.0Q594.5 188.0 598.25 179.0Q602.0 170.0 608.0 162.0Q619.0 150.0 621.0 145.5ZM680.0 131.5Q678.0 123.0 676.25 116.25Q674.5 109.5 673.5 109.5Q672.0 109.5 662.5 118.5Q653.0 127.5 641.5 140.75Q630.0 154.0 621.5 166.0Q614.5 174.0 610.5 185.0Q606.5 196.0 606.5 203.0Q606.5 209.0 609.5 209.0Q613.5 209.0 613.5 215.5V219.5L612.5 220.0Q614.0 226.5 631.0 242.5Q645.5 254.5 658.5 267.75Q671.5 281.0 680.0 291.0Q688.5 301.0 688.5 303.5Q688.5 304.0 691.5 304.0Q693.0 304.0 693.75 296.25Q694.5 288.5 694.5 275.0Q694.5 256.0 692.75 230.5Q691.0 205.0 687.75 178.75Q684.5 152.5 680.0 131.5ZM226.5 75.0Q230.0 70.0 232.75 65.25Q235.5 60.5 235.5 59.0H217.0L200.5 60.5L206.5 75.0Q207.5 77.0 208.25 78.25Q209.0 79.5 209.5 81.0Q214.5 91.0 215.5 91.0Q216.0 91.0 219.5 86.75Q223.0 82.5 226.5 75.0ZM377.0 39.0Q377.0 36.5 376.0 36.5Q370.5 36.5 360.5 55.0V54.5L351.0 72.0L364.0 73.5Q371.5 74.5 381.25 76.5Q391.0 78.5 399.0 80.5L411.0 82.5L396.0 65.5H397.0Q388.5 57.0 382.75 49.0Q377.0 41.0 377.0 39.0ZM722.0 74.5 729.5 59.5H667.0L672.0 67.0Q674.5 71.5 679.0 84.25Q683.5 97.0 686.0 110.0Q695.0 145.0 696.5 145.0Q698.5 145.0 704.0 123.5Q708.0 110.5 713.0 95.75Q718.0 81.0 722.0 74.5ZM166.5 47.5V46.0H167.0Q168.0 44.5 184.5 43.75Q201.0 43.0 220.0 43.0Q239.5 43.0 255.25 44.0Q271.0 45.0 271.0 47.5Q271.0 49.5 267.5 53.0Q264.0 56.5 260.0 58.0Q255.5 60.0 248.5 67.5Q241.5 75.0 236.5 83.5Q228.0 95.5 225.5 104.75Q223.0 114.0 222.0 131.5V159.0H242.0Q266.0 159.0 266.0 166.0Q266.0 170.0 256.5 176.5Q251.5 179.5 245.5 189.0Q239.5 198.5 234.0 210.75Q228.5 223.0 225.0 235.0Q221.5 247.0 221.5 255.0Q221.5 266.5 223.25 269.5Q225.0 272.5 234.0 274.5Q242.5 276.5 251.0 277.0Q259.5 277.5 268.0 277.5Q268.0 274.0 263.0 265.0Q261.5 261.5 260.75 258.25Q260.0 255.0 259.5 253.0Q260.0 251.0 261.5 249.25Q263.0 247.5 264.5 247.5Q269.5 247.5 281.5 252.0Q291.5 255.5 308.5 257.25Q325.5 259.0 345.0 259.0Q368.0 259.0 390.75 256.75Q413.5 254.5 427.5 250.0Q451.0 242.5 473.75 236.5Q496.5 230.5 514.25 227.25Q532.0 224.0 540.5 224.0Q548.0 224.0 548.0 227.5Q548.0 231.0 542.25 234.0Q536.5 237.0 529.0 238.0Q513.5 240.5 488.25 246.75Q463.0 253.0 434.5 262.25Q406.0 271.5 378.75 282.25Q351.5 293.0 330.75 304.5Q310.0 316.0 301.5 326.5Q296.5 332.5 291.75 336.25Q287.0 340.0 286.0 340.0Q284.5 338.0 282.75 330.75Q281.0 323.5 279.5 314.5L275.0 293.0L252.0 291.0Q244.0 290.0 237.5 289.75Q231.0 289.5 227.5 289.5H224.5Q223.5 290.5 222.5 301.0Q221.5 311.5 221.5 325.0Q221.5 342.0 219.75 352.75Q218.0 363.5 215.5 363.5Q212.5 363.5 211.0 352.0Q209.5 340.5 209.5 323.0V286.5H194.0Q179.0 286.5 157.0 288.25Q135.0 290.0 111.5 294.0Q88.0 298.0 67.25 304.75Q46.5 311.5 34.0 322.0Q19.0 337.0 13.0 337.0Q10.0 337.0 10.0 332.5Q10.0 330.5 12.5 325.25Q15.0 320.0 18.5 314.0Q24.0 304.0 31.0 282.0Q38.0 260.0 43.5 232.0L46.5 217.0L65.0 236.5Q85.0 255.0 111.25 264.75Q137.5 274.5 164.0 274.5Q168.5 274.5 174.0 274.0Q179.5 273.5 185.5 273.5L210.0 273.0L207.5 253.5Q203.0 224.5 195.75 203.75Q188.5 183.0 178.5 172.5Q172.0 167.0 168.0 162.0Q164.0 157.0 164.0 155.5Q164.0 152.5 170.0 152.5Q173.5 152.5 178.25 153.0Q183.0 153.5 188.5 154.0L209.5 156.0L207.5 130.0H177.0Q115.5 132.0 92.0 154.5Q87.5 160.0 82.75 163.75Q78.0 167.5 76.5 167.5H75.0V164.5Q75.0 160.0 78.0 148.5Q81.0 137.0 84.5 123.0Q90.0 106.0 92.75 93.0Q95.5 80.0 95.5 77.5Q95.5 69.0 99.5 69.0Q104.5 69.0 113.0 85.0Q119.5 98.5 129.5 104.5Q139.5 110.5 152.25 111.75Q165.0 113.0 178.5 113.0L208.0 111.5L201.5 92.5Q197.0 81.0 192.0 73.5Q187.0 66.0 180.0 61.0Q166.5 53.0 166.5 47.5ZM640.0 49.0Q640.0 47.5 657.5 45.75Q675.0 44.0 698.0 44.0H715.0Q736.5 44.0 746.25 45.25Q756.0 46.5 756.0 50.0Q756.0 54.0 748.0 57.5Q743.0 59.0 735.75 72.75Q728.5 86.5 721.75 106.5Q715.0 126.5 710.5 148.0Q707.0 165.0 705.5 179.75Q704.0 194.5 704.0 219.5Q704.0 231.0 704.5 245.5Q705.0 260.0 705.5 279.0Q706.0 294.5 706.0 307.25Q706.0 320.0 706.0 330.0Q706.0 353.0 704.75 362.75Q703.5 372.5 701.0 372.5Q694.5 372.5 694.5 340.5Q694.5 325.0 693.25 319.5Q692.0 314.0 689.0 314.0Q687.0 314.0 680.75 308.75Q674.5 303.5 669.0 297.0Q661.5 287.0 648.75 274.75Q636.0 262.5 620.75 250.25Q605.5 238.0 590.5 227.5Q575.5 217.0 563.75 210.75Q552.0 204.5 546.5 204.5Q543.0 204.5 533.5 203.0Q524.0 201.5 515.5 198.25Q507.0 195.0 507.0 191.0Q507.0 189.0 508.0 188.0Q499.5 188.0 481.75 188.75Q464.0 189.5 441.75 191.5Q419.5 193.5 396.25 196.25Q373.0 199.0 352.5 203.5Q332.0 208.0 318.25 213.75Q304.5 219.5 301.5 227.0Q300.5 232.0 296.5 232.0Q295.5 232.0 294.5 230.5Q292.0 229.5 292.0 224.5Q292.0 220.0 294.5 212.5Q297.0 208.5 299.25 197.25Q301.5 186.0 302.5 176.5Q305.0 156.0 306.75 147.5Q308.5 139.0 312.0 139.0Q314.0 139.0 316.25 141.0Q318.5 143.0 322.0 146.5Q346.0 164.5 376.75 169.25Q407.5 174.0 436.5 174.0H469.0L548.0 173.5Q552.0 170.5 562.5 164.0Q573.0 157.5 583.75 151.0Q594.5 144.5 599.0 142.0Q621.0 129.0 639.5 117.0Q658.0 105.0 662.5 100.5H661.5L670.5 91.0Q668.5 87.0 666.25 84.0Q664.0 81.0 661.5 77.5Q654.0 63.0 646.5 58.0Q644.5 56.5 642.25 53.75Q640.0 51.0 640.0 49.0ZM356.5 36.5Q362.0 25.0 367.5 17.5Q373.0 10.0 374.0 10.0Q376.5 10.0 378.75 13.5Q381.0 17.0 382.0 22.5Q383.0 27.0 391.75 38.5Q400.5 50.0 410.5 62.0Q422.0 73.5 432.25 81.75Q442.5 90.0 457.5 98.5Q472.5 107.0 498.5 120.0Q525.0 134.0 543.0 144.5Q561.0 155.0 561.0 157.5Q561.0 159.5 560.5 161.25Q560.0 163.0 557.5 163.0Q554.0 163.0 542.5 157.75Q531.0 152.5 503.0 138.5Q404.5 88.5 359.0 88.5Q348.0 88.5 341.0 91.5Q336.5 93.5 333.25 94.0Q330.0 94.5 328.5 94.5Q324.0 94.5 324.0 90.0Q324.0 87.5 326.5 83.75Q329.0 80.0 333.0 74.5Q338.5 69.0 345.0 57.75Q351.5 46.5 356.5 36.5Z" fill="black" /></svg>