<svg xmlns="http://www.w3.org/2000/svg" width="555.5" height="455.5" viewBox="0 0 555.5 455.5"><path d="M92.5 241.0 78.0 235.5Q71.5 232.0 63.0 227.0Q54.5 222.0 49.5 217.0L39.5 208.5V265.0L52.0 258.0Q57.5 254.5 66.25 250.5Q75.0 246.5 81.0 244.0ZM386.5 211.5Q385.5 207.5 384.25 203.75Q383.0 200.0 382.0 196.5Q378.5 187.5 375.25 179.5Q372.0 171.5 370.0 168.0L364.0 157.5L354.0 169.5Q346.0 180.5 342.25 193.5Q338.5 206.5 338.5 232.5Q338.5 241.0 339.0 251.25Q339.5 261.5 340.5 274.0Q342.0 305.0 344.25 321.5Q346.5 338.0 352.0 345.75Q357.5 353.5 368.5 358.5Q381.5 366.5 387.5 366.5Q394.5 366.5 395.5 353.25Q396.5 340.0 396.5 305.0Q396.5 280.5 395.75 264.25Q395.0 248.0 392.75 235.75Q390.5 223.5 386.5 211.5ZM198.0 63.5Q190.5 58.5 184.5 55.25Q178.5 52.0 177.5 52.0Q177.0 52.0 176.75 61.25Q176.5 70.5 176.5 85.0Q176.5 101.0 177.25 108.5Q178.0 116.0 181.5 116.0Q184.5 116.0 189.5 113.0Q194.5 110.0 202.0 105.0Q206.5 102.5 215.75 98.75Q225.0 95.0 234.0 92.0Q250.5 87.5 250.5 85.5Q250.5 83.5 234.5 80.5Q227.0 78.5 216.25 73.5Q205.5 68.5 198.0 63.5ZM270.5 172.5 277.5 158.0H263.0Q250.0 158.0 250.0 159.5Q250.0 161.5 252.5 167.75Q255.0 174.0 258.0 179.5Q261.0 185.0 262.5 185.0Q265.0 185.0 270.5 172.5ZM342.5 160.5Q343.5 159.5 343.75 159.0Q344.0 158.5 344.0 158.5Q344.0 158.0 341.0 158.0Q338.0 158.0 330.0 158.0H314.5L321.5 173.5Q327.0 185.5 329.0 185.5Q330.5 185.5 332.5 179.5Q333.5 174.5 336.75 169.0Q340.0 163.5 342.5 160.5ZM407.0 180.5 415.0 162.0H381.0Q382.0 164.5 383.5 167.5Q385.0 170.5 386.0 174.0Q389.0 180.5 391.25 186.25Q393.5 192.0 393.5 194.5Q393.5 199.5 395.0 199.5Q399.5 199.5 407.0 180.5ZM523.5 34.5Q523.5 33.5 515.5 32.25Q507.5 31.0 496.0 29.5Q493.5 29.5 490.25 29.25Q487.0 29.0 485.0 29.0Q470.0 29.0 470.0 35.0Q470.0 38.5 472.75 44.5Q475.5 50.5 480.5 60.0Q484.5 69.0 487.25 78.75Q490.0 88.5 490.0 94.0Q490.0 103.0 491.75 107.75Q493.5 112.5 495.0 112.5Q498.5 112.5 500.5 100.0Q502.0 90.5 505.5 79.0Q509.0 67.5 513.5 59.5Q517.5 51.0 520.5 43.75Q523.5 36.5 523.5 34.5ZM36.0 369.5 35.5 369.0Q33.0 364.5 30.5 364.5Q28.5 364.5 26.75 372.0Q25.0 379.5 25.0 394.0Q25.0 409.0 25.75 415.0Q26.5 421.0 29.5 421.0Q32.5 421.0 40.5 415.5Q44.5 413.0 53.5 408.75Q62.5 404.5 71.5 402.0L86.5 397.0Q81.5 395.0 70.25 390.0Q59.0 385.0 49.0 379.25Q39.0 373.5 36.0 369.5ZM333.5 341.0Q332.5 338.5 330.75 335.25Q329.0 332.0 328.0 330.0Q326.5 327.5 326.0 326.25Q325.5 325.0 325.5 325.0Q324.5 325.0 320.0 332.5Q315.5 340.0 310.25 350.5Q305.0 361.0 300.5 370.5Q296.0 380.0 294.5 384.0Q299.0 383.5 308.0 381.75Q317.0 380.0 327.0 377.0Q343.0 373.0 349.75 371.0Q356.5 369.0 356.5 368.5Q356.5 368.5 355.0 367.75Q353.5 367.0 352.5 365.5V366.0Q347.5 363.5 341.75 356.0Q336.0 348.5 333.5 341.0ZM451.5 11.5V12.0Q453.0 10.0 454.5 10.0Q457.0 10.0 460.5 11.0Q464.0 12.0 468.0 13.5Q472.5 15.5 485.75 16.25Q499.0 17.0 513.0 17.0Q526.5 17.0 536.0 19.25Q545.5 21.5 545.0 24.0Q533.5 46.5 525.75 64.0Q518.0 81.5 513.75 99.0Q509.5 116.5 507.75 138.5Q506.0 160.5 506.0 192.0Q506.0 201.0 506.0 219.25Q506.0 237.5 506.5 260.5Q507.0 283.5 507.75 307.0Q508.5 330.5 509.75 350.75Q511.0 371.0 513.0 383.75Q515.0 396.5 518.0 398.0Q520.5 399.5 522.0 402.75Q523.5 406.0 523.5 408.5V410.0Q521.5 411.0 521.0 411.0Q515.5 411.0 496.75 407.5Q478.0 404.0 454.5 398.0L439.5 394.5Q418.0 390.0 401.75 386.5Q385.5 383.0 382.5 383.0Q370.5 383.5 353.75 386.25Q337.0 389.0 320.5 393.25Q304.0 397.5 292.5 402.0Q274.5 408.5 266.5 408.5Q262.5 408.5 260.5 405.5Q260.0 403.0 243.0 401.5Q226.0 400.0 189.0 400.0Q160.0 400.0 138.75 401.5Q117.5 403.0 101.0 406.75Q84.5 410.5 69.0 417.0Q53.5 423.5 35.5 434.0Q26.5 439.0 19.25 442.25Q12.0 445.5 12.0 445.5Q10.0 445.5 10.0 438.0Q10.0 429.5 10.75 414.25Q11.5 399.0 12.5 382.75Q13.5 366.5 14.5 354.75Q15.5 343.0 16.5 342.0H17.0Q21.5 342.0 35.5 353.5Q49.0 363.5 59.75 369.5Q70.5 375.5 84.0 378.75Q97.5 382.0 119.5 383.5Q141.5 385.0 177.5 386.0L269.5 388.5L281.5 372.0Q287.5 365.0 295.75 351.25Q304.0 337.5 310.5 326.5V327.0Q317.5 314.0 320.75 305.25Q324.0 296.5 325.0 285.25Q326.0 274.0 326.0 254.5Q326.0 236.0 325.25 224.75Q324.5 213.5 321.75 204.25Q319.0 195.0 313.0 184.0Q308.0 172.5 303.0 165.25Q298.0 158.0 296.0 158.0Q292.0 158.0 288.0 166.0Q284.0 174.0 280.75 185.5Q277.5 197.0 275.5 207.0Q273.5 217.0 273.5 221.0Q274.0 228.0 274.0 237.25Q274.0 246.5 274.0 256.5Q274.0 279.0 273.0 301.75Q272.0 324.5 270.25 340.0Q268.5 355.5 266.5 355.5Q263.5 355.5 261.75 339.5Q260.0 323.5 260.0 297.5V244.0H190.5Q162.0 244.0 142.5 245.25Q123.0 246.5 108.0 250.0Q93.0 253.5 79.25 260.0Q65.5 266.5 49.0 277.0Q41.0 282.0 34.75 285.75Q28.5 289.5 28.0 289.5Q25.0 289.5 25.0 274.5Q25.0 264.5 25.75 250.0Q26.5 235.5 27.5 221.25Q28.5 207.0 29.25 196.75Q30.0 186.5 30.5 185.5H32.0Q35.5 185.5 48.0 198.0Q59.0 208.0 68.0 213.75Q77.0 219.5 89.5 222.5Q102.0 225.5 122.5 226.75Q143.0 228.0 177.0 229.5L261.0 231.0L258.0 220.0Q257.5 213.5 252.5 201.25Q247.5 189.0 242.5 177.5Q237.0 166.0 233.25 157.0Q229.5 148.0 229.5 146.0Q229.5 141.5 254.0 141.5Q271.0 141.5 301.25 142.75Q331.5 144.0 377.0 146.5L441.5 149.5L425.5 173.5Q420.5 181.0 417.75 187.25Q415.0 193.5 413.25 203.5Q411.5 213.5 410.75 232.0Q410.0 250.5 409.5 283.0L407.0 372.5L426.0 377.0Q430.0 377.5 434.5 378.75Q439.0 380.0 443.0 381.5Q449.0 382.5 454.25 384.25Q459.5 386.0 464.5 387.0Q467.0 388.0 471.0 389.0Q475.5 390.5 479.5 391.5Q483.5 392.5 485.5 392.5Q492.5 392.5 494.75 384.75Q497.0 377.0 497.0 357.0Q497.0 347.5 496.5 334.0Q496.0 320.5 495.0 304.0V276.5Q493.5 217.0 490.5 179.5Q487.5 142.0 483.5 123.5L475.5 89.0L390.5 88.5Q382.0 88.5 373.5 88.0Q365.0 87.5 357.5 87.5Q331.0 87.5 311.25 89.0Q291.5 90.5 275.5 94.0Q259.5 97.5 243.25 103.75Q227.0 110.0 207.0 120.0L197.0 124.0Q185.0 130.5 177.0 134.5Q169.0 138.5 166.5 138.5L167.5 138.0Q166.0 137.5 165.25 123.25Q164.5 109.0 164.5 90.5Q164.5 76.5 164.75 62.5Q165.0 48.5 165.5 38.75Q166.0 29.0 166.5 28.0Q168.5 28.0 176.75 32.75Q185.0 37.5 196.0 44.5Q206.5 52.5 219.75 59.25Q233.0 66.0 241.0 69.0H240.0Q246.5 70.5 265.5 71.25Q284.5 72.0 310.75 72.5Q337.0 73.0 364.0 73.0Q390.5 73.0 414.0 73.0Q437.5 73.0 452.25 72.25Q467.0 71.5 467.0 70.5Q467.0 68.5 464.5 59.5Q462.0 50.5 458.0 40.5Q455.0 32.0 453.0 24.5Q451.0 17.0 451.0 14.0Q451.0 13.5 451.25 12.75Q451.5 12.0 451.5 11.5Z" fill="black" /></svg>