<svg xmlns="http://www.w3.org/2000/svg" width="457.5" height="388.0" viewBox="0 0 457.5 388.0"><path d="M103.0 242.0Q96.5 235.5 91.0 230.75Q85.5 226.0 84.0 226.0Q83.0 226.0 80.0 230.0Q77.0 234.0 74.0 239.5Q71.5 246.0 64.75 257.0Q58.0 268.0 51.0 277.5Q38.5 294.0 38.5 297.5Q42.0 297.5 44.75 297.0Q47.5 296.5 51.0 294.5Q56.5 293.0 75.25 290.5Q94.0 288.0 115.0 287.0L159.5 285.0L142.0 274.0Q132.5 267.5 121.0 258.0Q109.5 248.5 103.0 242.0ZM178.5 35.5Q171.5 34.5 159.75 34.0Q148.0 33.5 139.0 33.5Q133.5 33.5 129.75 33.5Q126.0 33.5 126.0 34.5Q126.0 34.5 130.0 42.5Q134.0 50.5 139.5 61.0L151.5 86.5L156.5 74.0Q159.5 67.0 164.0 58.5Q168.5 50.0 172.5 45.0L173.0 44.0Q177.0 39.0 178.5 35.5ZM287.5 59.0 299.5 41.0 270.5 39.0H240.0Q240.0 40.0 243.0 46.75Q246.0 53.5 250.5 62.0Q255.0 70.0 259.25 79.25Q263.5 88.5 264.5 93.0Q265.0 98.5 269.0 98.5Q270.5 98.5 272.25 96.25Q274.0 94.0 274.0 89.5Q274.0 85.5 278.0 76.75Q282.0 68.0 287.5 59.0ZM406.5 45.0 415.5 30.5H352.0L359.5 45.0Q363.0 51.0 367.0 61.0Q371.0 71.0 374.0 79.5L374.5 82.0Q377.0 90.0 379.25 95.25Q381.5 100.5 382.0 100.5Q383.0 100.5 385.25 95.25Q387.5 90.0 389.5 82.5Q392.0 75.0 397.0 63.75Q402.0 52.5 406.5 45.0ZM107.0 23.0Q107.0 21.5 117.5 20.75Q128.0 20.0 142.5 20.0Q155.5 20.0 169.0 20.0Q182.5 20.0 192.75 20.25Q203.0 20.5 205.5 21.0Q207.5 23.0 203.75 28.5Q200.0 34.0 194.0 42.0L191.0 45.0Q183.5 52.0 177.75 60.75Q172.0 69.5 170.0 74.0Q168.5 77.0 167.5 92.5Q166.5 108.0 166.0 130.75Q165.5 153.5 165.5 180.0V273.0L183.5 285.0Q190.5 289.5 207.25 296.5Q224.0 303.5 240.0 307.5Q301.5 324.5 340.5 335.25Q379.5 346.0 400.75 352.25Q422.0 358.5 430.5 361.75Q439.0 365.0 440.5 366.5Q444.5 369.0 444.5 372.5Q444.5 374.5 442.0 376.25Q439.5 378.0 437.0 378.0Q433.0 378.0 426.5 375.5Q423.0 373.5 408.0 369.0Q393.0 364.5 370.5 357.75Q348.0 351.0 321.0 343.5Q294.0 336.0 265.25 328.25Q236.5 320.5 210.0 314.0Q188.5 308.5 173.5 305.75Q158.5 303.0 144.0 302.25Q129.5 301.5 108.5 301.5Q89.0 302.5 74.75 304.5Q60.5 306.5 48.0 310.5Q35.5 314.5 20.0 321.5Q18.0 322.0 16.25 322.5Q14.5 323.0 14.0 323.0Q10.0 323.0 10.0 318.5Q10.0 312.5 32.5 280.5Q42.5 266.5 52.75 250.75Q63.0 235.0 67.5 226.0Q72.5 216.5 76.75 209.75Q81.0 203.0 81.5 203.0Q82.5 203.0 92.25 211.75Q102.0 220.5 114.5 233.5Q127.5 246.0 137.5 254.75Q147.5 263.5 149.0 263.5Q153.0 263.5 153.0 198.0Q153.0 170.5 151.5 150.25Q150.0 130.0 146.5 114.0Q143.0 98.0 136.5 82.75Q130.0 67.5 120.0 50.0Q115.0 40.0 111.0 32.5Q107.0 25.0 107.0 23.0ZM218.5 26.0Q218.5 22.5 224.5 22.5Q228.5 22.5 234.5 24.0H234.0Q240.0 24.5 256.0 25.25Q272.0 26.0 287.5 26.0H331.5L311.5 49.0Q303.0 58.5 297.25 66.25Q291.5 74.0 288.25 83.75Q285.0 93.5 283.75 108.25Q282.5 123.0 282.0 146.5Q281.5 170.0 281.5 206.0Q281.5 309.0 275.5 310.0Q269.5 309.0 267.5 216.5Q267.0 181.0 265.75 158.75Q264.5 136.5 261.0 120.75Q257.5 105.0 250.5 90.0Q243.5 75.0 232.0 54.5Q226.5 44.5 222.5 36.25Q218.5 28.0 218.5 26.0ZM333.0 13.5V11.5H333.5Q335.0 10.0 338.0 10.0Q342.5 10.0 345.5 11.5Q348.0 12.5 363.5 14.0Q379.0 15.5 397.5 16.5L447.5 17.5L431.0 33.5Q426.0 39.0 419.25 50.0Q412.5 61.0 407.5 71.0L395.5 97.0L396.0 217.5V251.5Q396.0 291.0 395.0 316.5Q394.0 342.0 391.5 342.0Q390.5 342.0 389.0 327.75Q387.5 313.5 386.0 290.0Q384.5 266.5 384.0 239.0Q382.5 199.0 380.5 171.5Q378.5 144.0 374.5 123.5Q370.5 103.0 363.25 84.0Q356.0 65.0 344.0 42.5Q338.5 33.0 335.75 25.0Q333.0 17.0 333.0 13.5Z" fill="black" /></svg>