<svg xmlns="http://www.w3.org/2000/svg" width="317.5" height="463.5" viewBox="0 0 317.5 463.5"><path d="M209.0 204.5Q209.0 206.5 192.75 206.75Q176.5 207.0 153.5 207.0H98.5L107.5 224.0Q113.0 232.5 118.0 249.25Q123.0 266.0 126.0 281.5L130.0 313.0L146.0 285.0Q150.5 276.5 157.5 266.25Q164.5 256.0 172.25 246.25Q180.0 236.5 186.0 230.0Q196.0 219.0 202.5 212.5Q209.0 206.0 209.0 204.5ZM87.0 28.0H42.5L50.0 37.0Q54.0 43.0 57.25 50.0Q60.5 57.0 60.5 60.5Q60.5 62.5 61.0 63.0Q61.5 63.5 61.5 63.5Q65.5 63.5 70.75 56.25Q76.0 49.0 80.75 40.25Q85.5 31.5 87.0 28.0ZM121.5 47.5Q111.0 34.5 105.5 34.5Q102.5 34.5 99.75 37.75Q97.0 41.0 93.0 47.0Q82.5 62.0 76.5 75.25Q70.5 88.5 68.0 103.75Q65.5 119.0 65.5 140.0V180.0L81.5 184.0Q87.5 186.5 98.25 189.0Q109.0 191.5 117.0 192.5L135.0 195.5L137.0 156.5Q138.0 145.5 138.25 136.5Q138.5 127.5 138.5 118.5Q138.5 93.5 134.5 75.5Q130.5 57.5 121.5 47.5ZM172.0 34.0Q172.0 34.0 165.75 33.75Q159.5 33.5 151.0 32.0Q148.5 32.0 141.25 31.75Q134.0 31.5 131.0 30.5Q132.5 33.5 135.0 39.25Q137.5 45.0 141.0 52.0V51.5L149.5 68.0L159.0 52.0Q164.5 45.0 168.25 39.75Q172.0 34.5 172.0 34.0ZM222.0 92.5Q220.0 76.0 216.25 65.75Q212.5 55.5 205.0 47.0Q194.5 36.0 191.5 36.0Q189.0 36.0 185.5 41.0Q170.5 58.0 163.25 80.0Q156.0 102.0 153.75 125.5Q151.5 149.0 151.5 171.0Q151.5 179.0 151.75 185.25Q152.0 191.5 153.0 192.5Q154.5 193.0 164.0 193.0Q169.5 193.0 175.5 192.75Q181.5 192.5 188.0 192.5L219.0 189.0L222.0 159.0Q222.5 151.5 222.5 142.25Q222.5 133.0 222.5 124.5Q222.5 116.0 222.5 107.5Q222.5 99.0 222.0 92.5ZM256.0 34.0H215.0L234.0 67.0L245.0 51.5Q249.0 44.5 252.5 39.25Q256.0 34.0 256.0 34.0ZM10.0 15.5Q10.0 10.0 35.5 10.0Q41.0 10.0 49.0 10.0Q57.0 10.0 65.5 11.0Q74.0 11.0 84.25 11.5Q94.5 12.0 107.0 13.0Q128.5 13.5 152.5 14.25Q176.5 15.0 197.5 15.5Q219.0 16.0 237.0 17.0Q255.0 18.0 266.5 19.25Q278.0 20.5 279.0 22.0Q279.0 22.0 279.0 23.0Q279.0 24.0 279.5 24.5Q279.0 27.0 277.0 31.25Q275.0 35.5 271.0 39.5Q255.5 56.5 248.0 78.25Q240.5 100.0 238.0 123.5Q235.5 147.0 235.5 169.5Q235.5 187.5 238.0 188.0Q238.0 188.5 239.75 188.75Q241.5 189.0 243.0 189.0Q248.5 189.0 256.0 188.25Q263.5 187.5 271.0 185.5Q279.5 184.0 286.0 183.0Q292.5 182.0 297.5 182.0Q301.5 182.0 304.5 183.5Q307.5 185.0 307.5 187.5Q307.5 191.0 300.5 196.5Q297.0 198.5 290.25 199.75Q283.5 201.0 277.0 201.0Q255.0 201.0 232.0 214.0Q209.0 227.0 188.75 249.75Q168.5 272.5 154.5 301.5Q148.0 316.0 142.0 340.0Q136.0 364.0 132.25 391.0Q128.5 418.0 127.5 441.0Q127.5 446.0 125.75 449.75Q124.0 453.5 121.5 453.5Q116.0 453.5 116.0 436.0Q116.0 430.0 116.5 422.75Q117.0 415.5 117.5 407.5Q118.0 401.0 118.0 394.75Q118.0 388.5 118.0 382.0Q118.0 357.0 115.75 329.0Q113.5 301.0 109.5 277.0Q105.5 253.0 100.5 240.5Q99.0 236.5 93.25 227.75Q87.5 219.0 81.0 211.5Q74.5 204.0 69.0 204.0Q67.5 204.0 66.0 205.5Q64.5 207.0 62.0 209.0Q59.5 213.0 58.0 213.0Q54.5 213.0 53.5 198.25Q52.5 183.5 51.5 144.0Q51.5 115.5 50.5 97.25Q49.5 79.0 46.75 67.5Q44.0 56.0 38.25 48.5Q32.5 41.0 23.0 34.0Q17.5 29.5 13.75 24.25Q10.0 19.0 10.0 15.5Z" fill="black" /></svg>