<svg xmlns="http://www.w3.org/2000/svg" width="413.0" height="453.5" viewBox="0 0 413.0 453.5"><path d="M120.0 31.5 119.5 30.5H120.0Q118.5 29.5 106.75 28.25Q95.0 27.0 80.0 27.0H43.0L60.0 62.0Q68.0 78.0 73.25 93.0Q78.5 108.0 78.5 115.0Q78.5 126.5 81.0 126.5Q87.0 126.5 94.0 102.0Q98.0 91.5 103.25 77.5Q108.5 63.5 112.0 54.5Q116.0 47.5 118.0 41.0Q120.0 34.5 120.0 31.5ZM248.5 35.0 220.0 31.0Q207.0 30.0 194.25 28.5Q181.5 27.0 168.5 27.0Q168.5 27.0 170.25 30.0Q172.0 33.0 174.5 38.0Q177.0 43.5 180.25 50.0Q183.5 56.5 186.5 63.5Q194.5 77.5 199.5 92.75Q204.5 108.0 204.5 114.0Q204.5 126.5 207.5 126.5Q213.5 126.5 220.5 102.0Q224.5 91.5 229.75 77.25Q235.0 63.0 240.0 54.5ZM376.0 35.0 346.5 31.0Q334.0 30.0 321.5 28.5Q309.0 27.0 295.5 27.0Q295.5 27.5 300.75 38.5Q306.0 49.5 314.0 63.5V63.0Q321.5 77.5 326.25 92.75Q331.0 108.0 331.0 114.0Q331.0 126.5 334.5 126.5Q336.5 126.5 340.0 120.25Q343.5 114.0 347.0 102.0Q350.0 91.5 355.75 77.5Q361.5 63.5 366.5 54.5ZM10.0 13.5Q10.0 11.5 20.0 10.75Q30.0 10.0 53.0 10.0Q76.0 10.0 112.75 10.25Q149.5 10.5 203.5 11.5Q211.0 11.5 218.0 11.75Q225.0 12.0 231.5 12.0Q263.0 13.0 286.25 13.25Q309.5 13.5 327.0 13.5H368.0Q382.5 13.5 392.75 14.75Q403.0 16.0 403.0 20.0Q403.0 27.0 398.0 27.0Q393.5 27.0 382.25 50.75Q371.0 74.5 356.5 114.0Q352.5 126.0 349.75 136.0Q347.0 146.0 345.25 158.0Q343.5 170.0 342.5 187.5Q341.5 205.0 340.75 231.5Q340.0 258.0 339.0 298.0Q338.0 339.0 336.25 372.0Q334.5 405.0 333.0 424.25Q331.5 443.5 330.0 443.5Q328.0 443.5 326.5 424.0Q325.0 404.5 324.25 370.0Q323.5 335.5 323.5 290.5Q323.5 249.0 322.5 211.25Q321.5 173.5 319.75 146.75Q318.0 120.0 316.5 112.0Q314.5 100.5 308.5 86.0Q302.5 71.5 295.0 58.0Q287.5 44.5 281.0 35.75Q274.5 27.0 271.0 27.0Q268.5 27.0 263.0 37.5Q257.5 48.0 250.5 64.75Q243.5 81.5 236.5 101.5Q229.5 121.5 224.0 141.0Q220.0 156.0 217.5 169.5Q215.0 183.0 213.75 200.75Q212.5 218.5 212.0 245.5Q211.5 272.5 211.5 314.0Q211.5 376.0 209.0 409.75Q206.5 443.5 203.5 443.5Q200.5 443.5 198.25 403.75Q196.0 364.0 196.0 290.5Q196.0 249.0 195.25 211.25Q194.5 173.5 193.25 146.75Q192.0 120.0 190.0 112.0Q188.0 100.5 182.0 86.0Q176.0 71.5 168.75 58.0Q161.5 44.5 155.0 35.75Q148.5 27.0 145.0 27.0Q142.0 27.0 136.25 37.5Q130.5 48.0 123.5 64.75Q116.5 81.5 109.5 101.5Q102.5 121.5 97.5 141.0Q93.5 156.0 90.75 169.5Q88.0 183.0 86.75 200.25Q85.5 217.5 85.0 243.75Q84.5 270.0 84.5 310.5Q84.5 346.5 83.5 375.5Q82.5 404.5 81.25 421.75Q80.0 439.0 79.0 440.0Q75.5 440.0 72.5 395.75Q69.5 351.5 68.5 274.5Q68.0 224.5 67.5 192.75Q67.0 161.0 66.0 141.75Q65.0 122.5 63.25 111.25Q61.5 100.0 58.5 91.75Q55.5 83.5 50.5 73.0Q44.0 60.0 36.25 46.5Q28.5 33.0 23.0 29.0Q17.0 24.5 13.5 19.75Q10.0 15.0 10.0 13.5Z" fill="black" /></svg>