<svg xmlns="http://www.w3.org/2000/svg" width="491.0" height="397.0" viewBox="0 0 491.0 397.0"><path d="M90.0 163.0Q97.0 154.5 101.5 149.25Q106.0 144.0 106.5 142.0Q104.5 142.0 102.25 142.5Q100.0 143.0 99.0 144.0V143.5Q98.5 145.0 91.25 146.25Q84.0 147.5 74.5 148.0Q63.5 148.5 59.25 149.5Q55.0 150.5 55.0 153.0Q55.0 153.5 55.25 154.0Q55.5 154.5 55.5 155.0Q57.5 165.0 60.75 176.0Q64.0 187.0 66.0 187.5Q68.0 185.5 75.0 178.75Q82.0 172.0 90.0 163.0ZM132.0 274.5Q130.5 274.5 117.75 267.25Q105.0 260.0 89.0 249.5L52.0 224.5Q51.0 226.5 46.75 234.75Q42.5 243.0 39.0 250.75Q35.5 258.5 35.5 259.5Q52.0 259.5 67.0 262.25Q82.0 265.0 98.0 269.0Q111.0 272.5 120.5 274.25Q130.0 276.0 133.5 276.0Q133.5 276.0 133.75 276.25Q134.0 276.5 134.0 277.0Q134.0 274.5 132.0 274.5ZM242.5 328.5Q240.5 324.5 231.5 322.75Q222.5 321.0 212.75 320.25Q203.0 319.5 199.5 319.5H178.0L183.0 331.5Q188.0 342.5 188.0 354.5Q188.0 356.5 188.0 358.25Q188.0 360.0 187.5 361.5Q187.0 363.0 187.0 364.5Q187.0 366.0 187.0 367.5Q187.0 372.5 188.5 372.5Q190.0 372.5 198.5 366.5Q207.0 360.5 217.25 352.0Q227.5 343.5 235.0 336.75Q242.5 330.0 242.5 328.5ZM283.0 299.5Q283.0 299.5 282.5 299.25Q282.0 299.0 281.0 299.0Q278.0 299.0 271.25 301.0Q264.5 303.0 254.5 306.5Q239.0 312.0 239.0 313.0L244.0 315.5Q248.5 318.5 251.0 318.5Q256.0 318.5 268.0 310.0Q273.5 306.0 278.0 302.75Q282.5 299.5 283.0 299.5ZM181.0 177.0Q185.0 170.0 186.5 167.5Q188.0 165.0 188.0 165.0Q186.0 167.0 182.25 170.5Q178.5 174.0 174.5 178.0Q172.0 180.5 169.0 183.75Q166.0 187.0 162.5 190.0L137.0 214.5L147.0 216.0Q154.5 216.0 162.75 213.25Q171.0 210.5 171.0 201.0Q171.0 198.5 173.75 191.25Q176.5 184.0 181.0 177.0ZM218.5 111.5Q218.0 111.0 215.0 110.0Q212.0 109.0 207.5 108.0H208.0Q206.5 107.5 203.5 107.5Q193.5 107.5 177.0 114.5Q160.5 121.5 142.25 133.25Q124.0 145.0 108.5 159.0Q96.5 170.5 86.25 182.5Q76.0 194.5 70.0 204.0Q64.0 213.5 64.0 218.5Q64.0 220.0 74.5 227.25Q85.0 234.5 101.5 244.75Q118.0 255.0 136.25 265.5Q154.5 276.0 169.5 284.0Q188.5 294.0 201.0 298.75Q213.5 303.5 224.0 303.5Q231.5 303.5 239.25 301.25Q247.0 299.0 256.5 295.0L271.0 289.0L265.5 277.5Q261.0 269.0 251.5 257.75Q242.0 246.5 232.0 237.25Q222.0 228.0 216.0 226.0Q212.0 224.0 203.5 224.0Q194.0 224.0 185.5 226.0Q177.0 228.0 177.0 231.0Q177.0 232.0 180.0 236.25Q183.0 240.5 186.5 244.5Q195.0 252.5 203.25 266.25Q211.5 280.0 211.5 291.5Q211.0 293.0 210.0 293.0Q207.0 293.0 200.0 279.5Q197.0 273.5 190.0 264.75Q183.0 256.0 174.5 247.25Q166.0 238.5 157.25 232.5Q148.5 226.5 141.0 226.5Q139.0 226.5 136.5 226.5Q134.0 226.5 131.5 227.0Q123.5 227.5 117.0 227.5Q110.5 227.5 110.5 227.5Q110.5 227.0 117.25 219.5Q124.0 212.0 135.75 200.0Q147.5 188.0 161.5 174.5Q192.0 145.0 205.0 130.25Q218.0 115.5 218.5 111.5ZM245.5 175.0Q250.5 164.0 252.5 159.5L201.0 210.5L212.5 213.0Q214.0 213.5 215.75 213.5Q217.5 213.5 219.0 213.5Q226.0 213.5 230.5 210.0Q235.0 206.5 235.0 201.0Q235.0 198.5 238.0 190.75Q241.0 183.0 245.5 175.0ZM306.5 246.5Q298.5 239.0 293.25 235.5Q288.0 232.0 282.25 231.0Q276.5 230.0 266.5 230.0Q245.5 230.0 245.5 234.0Q245.5 235.5 250.5 240.5V240.0Q253.5 242.0 258.75 250.0Q264.0 258.0 269.5 266.5L281.5 287.0Q286.5 284.5 291.5 282.0Q296.5 279.5 301.5 277.5Q310.0 274.0 315.75 270.5Q321.5 267.0 322.0 266.0Q322.0 264.5 317.25 258.75Q312.5 253.0 306.5 246.5ZM313.0 185.0Q315.5 179.5 317.75 174.75Q320.0 170.0 321.0 167.5Q317.5 170.5 309.0 178.75Q300.5 187.0 291.25 196.0Q282.0 205.0 275.5 211.75Q269.0 218.5 269.0 219.5Q272.0 219.5 278.75 218.75Q285.5 218.0 292.0 216.25Q298.5 214.5 299.5 212.0Q300.5 209.5 304.25 201.5Q308.0 193.5 313.0 185.0ZM433.5 212.5Q433.0 211.0 424.25 205.0Q415.5 199.0 402.75 191.0Q390.0 183.0 377.25 175.25Q364.5 167.5 355.25 162.5Q346.0 157.5 344.0 157.5Q341.0 157.5 336.0 164.25Q331.0 171.0 325.75 181.0Q320.5 191.0 316.75 200.75Q313.0 210.5 312.0 217.0Q311.5 219.5 311.5 221.75Q311.5 224.0 311.5 226.0Q311.5 232.5 314.25 237.0Q317.0 241.5 324.0 250.0L336.5 265.0Q340.5 262.5 350.25 257.25Q360.0 252.0 369.75 246.75Q379.5 241.5 383.5 239.5L395.5 233.0Q427.0 217.0 433.5 212.5ZM250.0 80.0 240.5 62.5Q237.0 55.5 233.75 50.25Q230.5 45.0 230.5 45.0Q230.0 45.0 227.25 48.75Q224.5 52.5 221.5 58.0Q217.5 64.0 210.75 70.5Q204.0 77.0 198.5 79.5Q196.5 80.5 195.0 81.5Q193.5 82.5 192.0 83.5Q188.5 85.5 186.5 86.75Q184.5 88.0 184.5 88.0Q184.5 88.5 189.75 90.5Q195.0 92.5 203.5 95.5L229.0 103.5ZM252.0 122.5Q246.5 120.0 241.25 119.0Q236.0 118.0 235.0 118.0Q233.5 118.0 227.25 126.0Q221.0 134.0 212.5 146.25Q204.0 158.5 196.0 171.75Q188.0 185.0 182.5 195.25Q177.0 205.5 177.0 209.5Q177.0 210.5 178.0 210.5Q186.0 210.5 223.5 173.0Q242.0 155.5 254.5 142.0Q267.0 128.5 267.0 128.0Q267.0 127.5 262.75 126.0Q258.5 124.5 252.0 122.5ZM271.5 99.0H271.0Q266.0 93.5 261.5 89.75Q257.0 86.0 256.5 86.0Q255.5 86.0 252.75 89.5Q250.0 93.0 248.5 97.5Q243.0 104.5 243.0 106.5Q243.0 108.0 250.0 110.5Q257.0 113.0 265.25 115.0Q273.5 117.0 276.0 117.0Q282.0 117.0 282.0 114.5Q282.0 109.5 271.5 99.0ZM324.0 150.0 306.5 142.5Q299.0 138.5 293.25 136.25Q287.5 134.0 286.5 134.0Q285.5 134.0 280.0 141.5Q274.5 149.0 267.5 159.75Q260.5 170.5 254.75 180.25Q249.0 190.0 247.5 194.5Q245.5 198.5 245.0 203.25Q244.5 208.0 244.5 212.0V215.5Q245.5 219.5 247.5 219.5Q250.0 219.5 258.5 212.25Q267.0 205.0 286.0 187.0ZM306.5 127.5Q299.5 122.0 295.5 122.0Q293.5 122.0 293.5 124.0Q293.5 126.5 298.75 128.75Q304.0 131.0 309.0 131.0Q310.0 131.0 310.0 131.5Q310.0 131.0 306.5 127.5ZM220.0 38.0 234.0 10.0 237.5 28.5Q241.5 44.5 248.75 56.25Q256.0 68.0 272.5 84.0L291.0 103.0Q293.5 100.0 296.25 96.75Q299.0 93.5 301.0 91.0Q310.0 80.5 314.0 80.5Q316.0 80.5 316.0 83.5Q316.0 88.5 310.0 99.0L302.5 111.5Q306.0 114.0 310.0 117.0Q314.0 120.0 317.5 123.0Q324.0 127.0 329.5 129.75Q335.0 132.5 337.5 132.5H338.5Q341.0 131.0 347.75 123.75Q354.5 116.5 361.5 107.0Q370.0 96.5 375.5 91.75Q381.0 87.0 383.0 87.0Q385.0 87.0 385.0 89.5Q385.0 94.0 370.0 115.0Q363.5 124.5 358.25 132.5Q353.0 140.5 352.0 142.5Q352.5 144.5 361.75 151.75Q371.0 159.0 385.75 168.5Q400.5 178.0 416.75 187.75Q433.0 197.5 448.0 205.0Q463.0 212.5 472.0 218.75Q481.0 225.0 481.0 227.5Q481.0 230.0 478.5 230.0Q472.5 230.0 460.5 224.0Q457.5 222.5 455.0 221.5Q452.5 220.5 449.5 220.5Q444.0 220.5 432.5 225.75Q421.0 231.0 394.5 245.0Q373.0 255.5 362.0 261.5Q351.0 267.5 347.25 270.75Q343.5 274.0 343.5 277.5Q343.5 278.5 343.75 279.75Q344.0 281.0 344.5 283.0L346.5 299.5L336.0 286.5L330.0 278.0L299.5 300.5Q288.5 308.5 280.25 315.5Q272.0 322.5 271.0 324.5Q275.0 326.5 294.0 334.5Q313.0 342.5 337.0 352.5Q364.5 363.5 378.5 369.25Q392.5 375.0 397.25 377.75Q402.0 380.5 402.0 382.5Q402.0 384.5 400.5 386.0H400.0Q398.5 386.0 385.0 381.25Q371.5 376.5 352.5 369.5Q333.5 362.5 313.75 355.0Q294.0 347.5 278.75 341.25Q263.5 335.0 259.0 333.0Q257.0 333.0 246.5 341.0Q236.0 349.0 221.5 360.5Q207.5 373.0 197.25 379.75Q187.0 386.5 183.0 387.0Q181.5 387.0 181.5 386.0Q179.5 385.0 178.75 378.75Q178.0 372.5 178.0 364.5Q178.0 352.0 175.0 342.25Q172.0 332.5 166.5 321.5L154.5 295.5Q144.5 293.0 134.25 290.0Q124.0 287.0 114.0 284.5Q92.5 278.0 75.25 275.0Q58.0 272.0 42.0 272.0Q10.0 272.0 10.0 266.5Q10.0 264.0 16.5 261.0Q21.0 259.5 27.0 250.75Q33.0 242.0 37.5 231.75Q42.0 221.5 42.0 215.5Q42.0 204.5 46.5 204.5Q48.5 204.5 49.5 205.0Q50.0 205.5 51.5 205.5Q54.0 205.5 54.0 198.0Q54.0 191.5 51.0 178.75Q48.0 166.0 44.0 154.25Q40.0 142.5 37.0 139.0Q35.0 136.5 35.0 133.5Q35.0 130.0 39.0 130.0Q44.0 130.0 52.0 134.5Q59.0 138.0 66.0 138.0Q77.0 138.0 94.0 133.75Q111.0 129.5 127.5 123.75Q144.0 118.0 153.5 114.0Q168.0 108.5 173.75 105.5Q179.5 102.5 179.5 101.0Q179.5 100.0 177.5 99.5Q172.5 95.0 172.5 91.0Q172.5 82.0 191.0 71.0Q200.5 66.0 206.75 58.75Q213.0 51.5 220.0 38.0Z" fill="black" /></svg>