<svg xmlns="http://www.w3.org/2000/svg" width="615.0" height="255.5" viewBox="0 0 615.0 255.5"><path d="M61.0 99.0 57.5 94.5Q54.0 90.0 50.5 81.75Q47.0 73.5 44.0 67.0Q42.0 63.0 40.75 60.5Q39.5 58.0 39.5 58.0Q39.0 58.0 38.25 67.5Q37.5 77.0 36.5 88.0Q36.0 91.5 35.75 95.0Q35.5 98.5 34.5 101.0Q34.0 105.0 34.0 109.25Q34.0 113.5 34.0 118.5Q33.5 126.5 32.75 134.5Q32.0 142.5 29.5 149.0L26.0 188.5Q36.0 171.0 46.0 155.25Q56.0 139.5 69.5 125.0Q73.0 121.5 74.75 119.5Q76.5 117.5 76.5 117.5Q76.5 116.5 71.5 110.75Q66.5 105.0 61.0 99.0ZM207.0 111.0Q197.5 99.5 193.75 93.25Q190.0 87.0 189.0 84.0Q186.5 80.5 186.0 80.0Q185.0 81.0 183.75 93.0Q182.5 105.0 181.5 120.0Q181.5 129.5 180.75 140.25Q180.0 151.0 178.5 159.0L174.5 186.0L198.5 151.5L221.0 127.0Q215.0 119.0 207.0 111.0ZM415.0 128.0 402.0 121.5Q397.0 119.0 388.25 112.5Q379.5 106.0 371.0 96.5L351.5 69.0L345.5 117.0Q344.5 126.0 342.5 138.75Q340.5 151.5 338.25 164.0Q336.0 176.5 334.25 186.25Q332.5 196.0 332.0 199.0L364.5 161.0Q373.0 154.5 382.75 147.75Q392.5 141.0 401.5 135.5Q410.5 130.0 415.0 128.0ZM34.0 24.5Q37.0 10.0 41.5 10.0Q49.0 10.0 49.0 33.0Q49.0 41.5 53.5 55.25Q58.0 69.0 64.5 80.5Q73.0 95.0 82.5 101.5Q92.0 108.0 106.75 110.75Q121.5 113.5 144.0 116.0L169.0 119.5L175.0 65.5Q177.5 46.5 180.0 37.75Q182.5 29.0 185.5 29.0Q191.0 29.0 195.0 55.0Q197.5 67.5 201.75 78.0Q206.0 88.5 220.0 103.5Q227.5 111.0 233.5 114.5Q239.5 118.0 250.5 119.0Q261.5 120.0 283.0 120.0H330.0L333.0 100.5Q334.0 94.0 336.0 82.5Q338.0 71.0 339.0 59.0L341.5 48.0Q343.0 32.0 346.0 23.75Q349.0 15.5 351.0 15.5Q356.0 15.5 360.5 40.0Q361.5 50.0 367.0 62.25Q372.5 74.5 379.0 81.5Q389.5 93.5 399.75 101.25Q410.0 109.0 425.0 113.0Q440.0 117.0 462.75 118.5Q485.5 120.0 520.5 120.0Q565.5 120.0 585.25 122.0Q605.0 124.0 605.0 127.5Q605.0 130.0 590.25 133.0Q575.5 136.0 543.0 136.0Q538.5 136.0 532.75 135.75Q527.0 135.5 520.5 135.5Q513.5 135.5 507.25 135.25Q501.0 135.0 495.0 135.0Q460.5 135.0 443.25 137.75Q426.0 140.5 416.5 145.5Q400.0 153.0 383.5 166.0Q367.0 179.0 354.0 193.5Q341.0 208.0 335.0 221.0Q324.5 245.5 317.5 245.5Q313.0 245.5 313.0 236.0Q313.0 230.0 314.5 220.5Q316.5 211.5 318.75 195.5Q321.0 179.5 322.5 165.5L326.5 135.5H281.0Q264.0 135.5 254.0 136.0Q244.0 136.5 237.75 138.5Q231.5 140.5 226.25 145.25Q221.0 150.0 213.0 159.0Q194.5 180.5 183.25 200.0Q172.0 219.5 172.0 232.5Q172.0 245.0 166.0 245.0Q164.5 245.0 163.5 244.5Q161.0 243.5 158.5 241.25Q156.0 239.0 156.0 236.0V235.0Q156.0 232.0 157.5 220.0Q158.5 212.0 159.0 201.5Q159.5 191.0 161.0 179.5L165.0 132.0L134.0 128.5Q127.5 127.5 122.0 126.75Q116.5 126.0 112.0 126.0Q104.0 126.0 98.0 127.75Q92.0 129.5 88.0 132.0Q78.5 138.0 67.5 150.75Q56.5 163.5 47.25 178.25Q38.0 193.0 33.5 206.5Q28.5 220.0 23.75 226.75Q19.0 233.5 16.5 233.5Q11.0 233.5 10.0 219.5Q10.0 213.5 11.5 207.0Q13.0 199.5 14.75 183.5Q16.5 167.5 18.5 147.0Q20.5 126.5 22.0 105.5Q24.5 74.5 28.75 52.5Q33.0 30.5 34.0 24.5Z" fill="black" /></svg>