<svg xmlns="http://www.w3.org/2000/svg" width="357.0" height="363.5" viewBox="0 0 357.0 363.5"><path d="M215.0 203.0Q206.0 206.5 194.25 211.25Q182.5 216.0 178.5 218.0Q172.5 220.5 161.75 225.0Q151.0 229.5 139.25 233.75Q127.5 238.0 118.0 241.0L115.0 242.0Q114.5 242.5 114.25 242.5Q114.0 242.5 114.0 242.5Q114.0 242.5 114.75 242.25Q115.5 242.0 115.0 242.0Q124.5 243.5 137.0 246.25Q149.5 249.0 161.0 252.0Q172.5 255.0 179.0 258.0L180.0 258.5Q181.0 259.0 182.0 259.0H183.5Q184.0 258.5 185.5 258.5Q187.5 258.0 188.75 257.5Q190.0 257.0 190.0 257.0Q190.0 256.5 189.0 254.5Q187.0 250.5 187.0 244.0Q187.0 242.5 187.25 240.75Q187.5 239.0 188.0 237.5Q189.5 233.5 192.75 228.5Q196.0 223.5 202.0 218.5Q210.0 211.5 213.0 205.5Q214.5 204.0 215.0 203.0ZM118.5 80.0Q113.5 84.5 105.0 90.5Q93.5 99.0 80.75 108.25Q68.0 117.5 57.25 125.0Q46.5 132.5 41.0 136.5Q36.5 138.5 36.5 139.0Q39.0 138.5 42.0 138.5Q45.0 138.5 48.0 138.5Q58.0 138.5 62.75 139.0Q67.5 139.5 70.5 140.5L74.5 142.0L78.5 138.5Q82.5 135.5 83.0 134.5Q83.5 133.5 84.0 131.0Q85.5 122.0 90.5 113.75Q95.5 105.5 107.5 93.0Q110.5 89.5 113.5 86.0Q116.5 82.5 118.5 80.0ZM195.5 70.0Q192.0 73.5 188.25 76.75Q184.5 80.0 180.5 82.5Q178.5 85.0 169.5 92.0Q160.5 99.0 151.0 105.75Q141.5 112.5 137.5 114.5Q143.0 114.5 151.5 115.0Q160.0 115.5 163.5 117.5L165.0 118.0Q165.5 118.5 166.0 118.5Q168.5 118.5 171.0 114.75Q173.5 111.0 174.0 108.0Q174.0 106.5 175.0 103.75Q176.0 101.0 176.5 99.0L178.5 94.5Q178.5 92.5 184.5 84.5Q190.5 76.5 195.5 70.0ZM206.5 58.5V59.0H207.0ZM247.0 88.5Q244.0 90.5 240.25 93.0Q236.5 95.5 232.5 98.0Q230.5 99.0 229.0 100.0Q227.5 101.0 226.5 102.0L220.5 105.5H223.0Q224.0 106.0 227.0 106.0Q228.0 106.5 231.25 107.0Q234.5 107.5 236.0 107.5Q239.5 107.5 240.0 102.5Q241.5 95.0 247.0 88.5ZM174.0 19.5V20.0Q177.0 14.5 179.5 14.5Q180.0 14.5 180.5 14.75Q181.0 15.0 181.5 15.0Q182.5 16.0 183.5 16.0L187.5 17.5L184.0 25.0Q179.5 35.0 159.0 51.5Q154.0 56.0 146.25 64.75Q138.5 73.5 132.0 82.0Q129.5 85.5 125.0 90.75Q120.5 96.0 116.5 100.0Q105.5 111.5 101.25 119.0Q97.0 126.5 96.0 133.5L95.5 138.0H112.0L98.0 147.5V155.5L108.0 162.0Q121.0 169.5 133.25 179.5Q145.5 189.5 153.5 202.0L157.5 210.5L152.0 212.5Q150.5 213.0 149.0 213.75Q147.5 214.5 147.5 214.5Q146.5 214.5 145.5 213.5Q145.5 213.0 145.0 212.5Q136.5 197.0 121.5 185.75Q106.5 174.5 91.0 165.5Q87.5 163.5 83.25 160.75Q79.0 158.0 75.5 156.0Q73.0 154.0 67.5 154.0H54.0L59.5 150.0H53.5Q50.0 150.0 45.5 150.0Q41.0 150.0 36.0 150.5Q32.0 150.5 28.0 150.75Q24.0 151.0 21.5 151.0Q20.0 151.5 19.0 151.5Q18.0 151.5 18.0 151.5Q14.5 151.5 13.25 150.5Q12.0 149.5 11.0 146.0Q10.5 145.0 10.25 143.0Q10.0 141.0 10.0 141.0Q40.5 122.5 73.75 99.5Q107.0 76.5 134.5 53.5Q140.0 50.5 148.0 44.25Q156.0 38.0 163.5 31.0Q171.0 24.0 174.0 19.5ZM291.5 40.5Q293.5 38.0 296.0 38.0H298.0Q303.0 39.0 303.5 40.0L304.5 41.0Q304.5 44.5 300.75 48.5Q297.0 52.5 293.5 56.0Q292.5 57.0 291.5 57.75Q290.5 58.5 289.5 59.5Q287.5 60.5 284.75 63.5Q282.0 66.5 279.0 69.5Q278.0 70.5 277.0 71.5Q276.0 72.5 275.0 73.5L273.0 76.0Q270.0 79.5 266.5 84.0Q263.0 88.5 260.5 91.0Q252.0 100.5 250.5 105.5Q250.5 108.0 254.0 108.0L265.0 109.0L255.5 114.0L253.5 116.0Q252.0 117.5 252.0 117.0Q252.0 118.0 251.5 119.5Q252.5 120.0 254.25 121.25Q256.0 122.5 259.0 125.0Q266.0 130.5 272.75 137.5Q279.5 144.5 283.5 149.0Q284.0 150.0 284.5 151.25Q285.0 152.5 285.5 153.5Q286.0 154.0 286.5 155.0Q287.0 156.0 287.0 156.5Q287.0 157.0 282.5 159.5Q278.0 162.0 276.5 162.0Q276.5 162.0 275.5 160.5Q274.5 159.0 273.5 157.5Q271.0 152.5 262.25 144.0Q253.5 135.5 244.0 128.25Q234.5 121.0 229.0 120.0Q222.0 120.0 222.0 117.5Q221.0 117.0 217.5 117.0L211.0 116.5Q207.5 116.0 203.75 116.0Q200.0 116.0 197.0 116.0L184.0 114.5V116.0H187.5L197.5 117.0L189.5 122.5Q186.0 125.5 186.0 126.0V127.5Q186.0 129.5 184.5 131.0Q184.5 132.0 193.5 139.5Q205.0 148.5 215.0 158.75Q225.0 169.0 231.0 182.5Q236.5 180.5 245.5 174.75Q254.5 169.0 255.0 166.5Q255.5 164.5 258.5 163.0Q261.5 161.5 263.5 161.5L264.0 161.0Q267.5 161.0 267.5 166.0Q267.5 171.5 261.75 177.75Q256.0 184.0 247.0 189.5Q242.0 192.0 235.5 198.0Q229.0 204.0 224.0 211.0L223.0 212.5Q221.0 215.0 217.25 219.0Q213.5 223.0 209.5 227.0Q203.0 233.5 200.5 237.25Q198.0 241.0 198.0 243.5V246.5Q198.5 247.5 199.25 249.5Q200.0 251.5 201.0 253.0Q203.0 257.0 203.0 259.0V260.5Q208.0 261.5 208.5 265.5Q211.0 265.5 213.0 267.75Q215.0 270.0 215.5 272.5Q215.5 272.5 215.75 273.0Q216.0 273.5 216.5 273.5Q218.0 274.0 219.0 274.75Q220.0 275.5 220.0 278.0Q220.0 278.5 225.0 280.5Q230.0 282.5 246.5 291.0Q268.0 302.0 283.75 310.75Q299.5 319.5 310.5 326.5Q318.0 331.5 327.25 337.75Q336.5 344.0 340.0 347.5L347.0 353.5H329.0L319.0 346.5Q309.0 339.5 296.75 332.25Q284.5 325.0 266.5 315.25Q248.5 305.5 219.5 291.5Q199.0 281.0 186.25 275.0Q173.5 269.0 163.5 265.5Q153.5 262.0 142.0 259.5Q130.5 257.0 112.0 254.0L106.5 253.0Q92.0 250.5 87.5 249.0Q83.0 247.5 83.0 245.0V238.5L96.0 235.0Q106.5 232.0 121.75 227.0Q137.0 222.0 152.75 216.0Q168.5 210.0 179.5 205.0Q186.0 201.0 193.5 197.75Q201.0 194.5 208.5 192.0Q209.5 191.5 210.25 191.5Q211.0 191.5 211.5 191.0L216.0 189.0Q220.0 187.5 220.0 186.5Q219.5 185.0 218.0 182.5Q216.5 180.0 215.0 177.5Q211.5 171.0 205.25 165.25Q199.0 159.5 192.0 153.0Q188.5 150.5 184.75 147.5Q181.0 144.5 179.5 143.5Q175.5 139.5 169.0 135.5Q165.5 132.5 164.25 132.0Q163.0 131.5 160.5 131.5Q154.0 131.5 152.5 128.5Q152.5 127.5 153.0 127.0Q151.0 127.0 145.25 127.0Q139.5 127.0 129.5 127.0L100.5 126.0L100.0 123.5L111.0 118.0Q119.5 112.5 131.5 104.25Q143.5 96.0 155.25 87.0Q167.0 78.0 174.5 71.5Q180.5 68.5 190.5 60.0Q195.0 56.0 200.25 51.75Q205.5 47.5 210.0 44.0Q214.0 41.5 217.0 39.0Q220.0 36.5 222.0 35.0Q224.0 33.5 226.25 31.25Q228.5 29.0 231.0 27.0Q233.5 24.5 235.75 22.75Q238.0 21.0 240.0 19.5L248.5 10.0H262.0L256.0 19.0Q254.0 21.0 251.0 24.5Q248.0 28.0 244.5 31.5Q234.0 41.5 224.75 52.5Q215.5 63.5 207.0 75.0Q206.5 76.5 205.0 77.75Q203.5 79.0 202.5 80.0Q193.5 91.5 189.5 98.5Q185.5 105.5 184.5 111.5L198.0 104.5Q204.5 101.5 218.25 92.75Q232.0 84.0 247.75 73.5Q263.5 63.0 276.0 53.75Q288.5 44.5 291.5 40.5ZM229.5 185.5 226.5 186.0H229.5ZM206.5 273.0 206.0 270.0V273.0Z" fill="black" /></svg>