<svg xmlns="http://www.w3.org/2000/svg" width="425.5" height="432.5" viewBox="0 0 425.5 432.5"><path d="M256.0 241.5Q245.0 245.5 231.25 251.25Q217.5 257.0 212.5 259.0Q205.0 262.5 192.0 267.75Q179.0 273.0 165.0 278.0Q151.0 283.0 140.0 287.0L136.0 288.0Q135.5 288.0 135.25 288.25Q135.0 288.5 135.0 288.5Q135.5 288.5 136.0 288.25Q136.5 288.0 136.5 288.0Q148.0 290.0 163.0 293.25Q178.0 296.5 191.75 300.0Q205.5 303.5 213.0 307.5L214.5 308.0Q216.0 308.5 216.5 308.5H218.5Q219.0 308.0 221.0 308.0Q223.5 307.5 225.0 306.75Q226.5 306.0 226.5 306.0Q226.5 305.0 225.0 303.5Q223.0 298.0 223.0 290.5Q223.0 288.5 223.25 286.5Q223.5 284.5 224.0 283.0Q226.0 278.0 230.0 272.0Q234.0 266.0 240.5 260.0Q244.5 256.5 248.75 251.5Q253.0 246.5 254.0 244.5Q255.0 243.5 255.25 242.75Q255.5 242.0 256.0 241.5ZM140.0 94.0Q117.0 111.0 93.75 128.25Q70.5 145.5 47.0 162.0Q42.0 164.0 42.0 164.0Q44.5 163.5 48.25 163.5Q52.0 163.5 55.5 163.5Q68.0 163.5 73.75 164.0Q79.5 164.5 83.0 166.5L87.5 168.0L92.5 163.5Q97.0 160.0 97.75 159.0Q98.5 158.0 99.0 154.5Q101.5 144.0 107.25 133.75Q113.0 123.5 127.5 109.0Q131.0 105.0 134.25 101.0Q137.5 97.0 140.0 94.0ZM232.5 82.5Q232.0 83.0 232.0 83.0Q232.0 83.0 231.5 83.5Q226.5 88.0 221.25 91.75Q216.0 95.5 215.0 96.0Q213.5 98.0 206.25 103.75Q199.0 109.5 190.0 116.5Q181.0 123.5 173.25 128.75Q165.5 134.0 163.0 135.0Q169.5 135.0 179.75 135.5Q190.0 136.0 195.0 138.5L196.5 139.0Q197.0 140.0 197.5 140.0Q200.0 140.0 203.25 135.25Q206.5 130.5 207.0 127.0Q207.0 122.0 210.5 116.0L212.5 111.0Q212.5 108.5 219.25 99.5Q226.0 90.5 232.5 82.5ZM246.0 67.5V68.0H247.0ZM294.0 104.5Q290.5 106.5 286.0 109.5Q281.5 112.5 277.5 115.0Q272.5 117.5 270.5 120.0L263.5 124.0H266.0Q267.0 124.5 271.0 124.5Q272.0 125.0 276.0 125.75Q280.0 126.5 282.0 126.5Q286.0 126.5 286.5 120.5Q287.0 116.5 289.0 112.5Q291.0 108.5 294.0 104.5ZM136.5 288.0H136.0Q136.5 288.0 136.5 288.0Q136.5 288.0 136.5 288.0ZM207.0 20.5V21.5Q209.0 18.5 210.5 16.75Q212.0 15.0 214.0 15.0Q214.5 15.0 215.0 15.25Q215.5 15.5 216.0 15.5Q217.0 16.5 218.5 16.5L223.5 18.5L219.0 27.5Q217.0 33.5 208.75 41.75Q200.5 50.0 188.5 59.0Q182.5 65.0 173.5 75.5Q164.5 86.0 156.5 95.5Q153.0 100.0 148.0 106.25Q143.0 112.5 138.5 117.5Q125.0 131.5 119.75 140.5Q114.5 149.5 113.5 158.0L112.5 163.0H132.5L115.5 174.5V184.0L128.0 192.0Q143.5 201.0 158.25 213.0Q173.0 225.0 182.5 240.0L187.5 250.5L180.5 252.5L175.5 255.5Q175.0 255.5 172.5 254.0Q172.5 253.0 172.0 252.5Q162.5 234.0 144.25 220.5Q126.0 207.0 107.5 196.0Q103.5 194.0 98.0 190.75Q92.5 187.5 88.5 184.5Q86.0 182.5 79.0 182.5H63.0L70.0 178.0H62.5Q57.5 178.0 52.25 178.0Q47.0 178.0 41.5 178.5Q36.5 178.5 31.75 178.75Q27.0 179.0 24.0 179.0Q22.0 179.5 20.75 179.5Q19.5 179.5 19.5 179.5Q15.5 179.5 13.75 178.25Q12.0 177.0 11.0 172.5Q10.5 171.5 10.25 169.25Q10.0 167.0 10.0 167.0Q45.0 145.5 78.5 122.0Q112.0 98.5 144.5 74.0Q149.0 70.0 153.0 67.0Q157.0 64.0 159.5 62.0Q166.0 58.0 175.75 50.25Q185.5 42.5 194.5 34.25Q203.5 26.0 207.0 20.5ZM348.5 46.5Q350.5 43.0 354.0 43.0H356.0Q358.5 43.5 360.5 44.0Q362.5 44.5 363.0 46.0L364.0 47.0Q364.0 51.0 359.25 55.75Q354.5 60.5 350.5 64.5Q349.5 66.5 348.5 67.0Q347.5 67.5 346.5 68.5Q344.0 70.0 340.5 73.5Q337.0 77.0 333.0 80.5Q330.5 84.5 328.5 86.0L326.5 88.5Q322.5 93.5 318.25 98.5Q314.0 103.5 311.0 106.5Q305.5 112.5 303.0 116.5Q300.5 120.5 299.5 124.0Q299.5 127.0 303.0 127.0L316.5 128.0L305.0 134.5L302.5 136.5Q301.0 138.5 301.0 138.0Q301.0 139.5 300.5 141.0Q301.5 141.5 303.5 143.0Q305.5 144.5 309.0 147.5Q317.5 154.0 325.75 162.5Q334.0 171.0 339.0 176.5Q340.0 179.5 341.0 182.0Q343.0 184.0 343.0 185.5Q343.0 186.0 337.5 189.0Q332.0 192.0 330.5 192.0Q330.5 192.0 329.25 190.25Q328.0 188.5 327.0 187.0Q324.5 182.5 317.75 175.0Q311.0 167.5 302.5 160.25Q294.0 153.0 286.0 147.75Q278.0 142.5 273.0 142.0Q264.5 142.0 264.5 138.5Q263.5 138.0 259.5 138.0L251.5 137.5Q247.5 136.5 243.0 136.5Q238.5 136.5 235.0 136.5L219.0 135.0V136.5H223.5L235.0 138.0L226.0 144.0Q222.0 148.0 222.0 148.5V151.0Q222.0 152.5 219.5 154.5Q219.5 156.0 222.5 158.25Q225.5 160.5 230.5 164.5Q240.5 172.5 249.5 181.25Q258.5 190.0 263.5 196.0Q267.0 200.5 270.5 206.75Q274.0 213.0 275.5 217.0Q280.0 215.5 286.5 211.75Q293.0 208.0 298.5 204.0Q304.0 200.0 304.5 198.0Q305.0 195.5 308.5 193.25Q312.0 191.0 315.0 191.0L315.5 190.5Q319.5 190.5 319.5 196.5Q319.5 203.5 312.5 211.0Q305.5 218.5 295.0 225.0Q289.0 228.5 281.0 235.5Q273.0 242.5 267.0 251.0L266.0 252.5Q264.0 256.0 259.0 260.75Q254.0 265.5 250.0 270.5Q242.0 278.5 238.75 282.75Q235.5 287.0 235.5 290.0V294.0Q236.5 294.5 237.5 297.0Q238.5 299.5 239.5 301.0Q240.5 303.5 241.5 305.5Q242.5 307.5 242.5 308.5V310.5H242.0Q247.5 312.5 248.0 316.0Q252.0 316.0 254.0 318.75Q256.0 321.5 256.5 324.5Q256.5 324.5 257.25 325.25Q258.0 326.0 258.5 326.0Q260.0 326.5 261.5 327.75Q263.0 329.0 263.0 331.5Q263.0 332.0 268.75 334.5Q274.5 337.0 294.5 347.0Q320.0 360.5 338.75 371.0Q357.5 381.5 371.0 390.5Q380.5 395.5 391.5 403.25Q402.5 411.0 406.5 415.0L415.5 422.5H393.5L381.0 414.0Q369.0 405.5 354.75 396.75Q340.5 388.0 318.5 376.25Q296.5 364.5 262.0 347.5Q237.5 335.0 222.0 327.75Q206.5 320.5 194.5 316.5Q182.5 312.5 168.5 309.5Q154.5 306.5 132.5 303.0L126.0 301.0Q108.5 298.5 103.25 296.5Q98.0 294.5 98.0 292.0V284.0L113.5 279.5Q126.0 276.0 144.5 270.0Q163.0 264.0 182.0 256.75Q201.0 249.5 214.0 243.5Q221.5 238.5 230.5 234.75Q239.5 231.0 248.5 228.0Q249.5 227.5 250.5 227.5Q251.5 227.5 252.5 227.0L258.0 224.5Q262.5 222.5 263.0 221.5Q262.5 219.5 260.5 216.5Q258.5 213.5 256.0 210.5Q252.5 204.0 245.0 196.5Q237.5 189.0 229.0 181.75Q220.5 174.5 214.0 170.0Q212.0 168.0 208.5 165.0Q205.0 162.0 201.0 160.0Q197.5 156.5 195.75 156.0Q194.0 155.5 191.0 155.5Q187.5 155.5 184.75 154.0Q182.0 152.5 181.0 152.0Q181.0 151.0 181.5 150.0Q178.5 150.5 172.0 150.5Q165.5 150.5 154.0 150.5L119.0 148.5L118.5 146.0L131.0 139.0Q141.5 132.5 156.0 122.5Q170.5 112.5 184.75 102.0Q199.0 91.5 207.5 83.5Q210.5 82.0 215.75 78.25Q221.0 74.5 227.0 69.5Q232.5 64.5 239.0 59.25Q245.5 54.0 250.5 50.0Q254.5 47.5 258.5 44.25Q262.5 41.0 264.5 39.0Q267.0 38.0 269.75 35.25Q272.5 32.5 275.5 30.0Q278.5 27.5 281.5 25.0Q284.5 22.5 286.5 20.5L296.5 10.0H312.5L306.0 20.0Q303.5 22.5 299.75 27.0Q296.0 31.5 292.0 35.5Q279.5 47.5 268.25 60.75Q257.0 74.0 247.0 87.5Q246.0 89.5 244.5 90.75Q243.0 92.0 241.0 94.0Q230.5 108.0 226.0 116.25Q221.5 124.5 219.5 131.5L235.5 123.0Q241.5 120.0 254.0 112.5Q266.5 105.0 281.25 95.25Q296.0 85.5 310.25 75.75Q324.5 66.0 335.0 58.0Q345.5 50.0 348.5 46.5ZM274.0 220.0 270.5 220.5H274.0ZM246.0 325.5 245.5 322.0V325.5Z" fill="black" /></svg>