<svg xmlns="http://www.w3.org/2000/svg" width="267.5" height="389.0" viewBox="0 0 267.5 389.0"><path d="M175.5 172.0Q175.5 173.0 162.0 173.25Q148.5 173.5 129.5 173.5H84.0L91.5 188.0Q95.5 195.0 100.0 209.0Q104.5 223.0 106.5 236.0L110.0 262.0L123.0 239.0Q129.0 228.5 139.0 214.75Q149.0 201.0 157.0 193.0Q165.0 184.0 170.25 178.25Q175.5 172.5 175.5 172.0ZM74.5 25.0H37.5L43.5 32.5Q47.5 37.5 49.75 43.25Q52.0 49.0 52.0 52.0Q52.0 53.5 52.5 54.0Q53.0 54.5 53.0 54.5Q56.0 54.5 60.5 48.5Q65.0 42.5 69.0 35.25Q73.0 28.0 74.5 25.0ZM103.0 41.5Q94.0 30.0 89.5 30.0Q86.5 30.0 79.0 40.5Q70.5 53.0 65.5 64.25Q60.5 75.5 58.5 88.0Q56.5 100.5 56.5 118.0V151.5L70.0 155.0Q75.0 157.0 83.75 159.0Q92.5 161.0 99.0 162.0L114.0 164.0L116.0 132.0Q117.5 114.0 117.5 100.0Q117.5 57.5 103.0 41.5ZM145.0 29.5Q145.0 29.5 139.75 29.25Q134.5 29.0 127.5 28.5Q125.5 28.5 119.75 28.25Q114.0 28.0 111.0 27.0Q112.0 29.0 114.25 34.0Q116.5 39.0 119.0 45.0V44.5L126.5 58.5L134.5 45.0Q139.0 39.5 142.0 34.75Q145.0 30.0 145.0 29.5ZM187.0 78.5Q185.0 64.5 182.0 56.25Q179.0 48.0 172.5 40.5Q163.5 31.5 161.5 31.5Q159.5 31.5 156.5 36.0Q144.0 50.0 137.75 68.25Q131.5 86.5 129.75 106.0Q128.0 125.5 128.0 144.0Q128.0 150.5 128.25 155.75Q128.5 161.0 129.0 162.0Q130.5 162.5 138.5 162.5Q143.0 162.5 148.0 162.25Q153.0 162.0 158.5 162.0L184.0 159.0L187.0 133.5Q187.5 127.5 187.5 120.0Q187.5 112.5 187.5 105.5Q187.5 98.0 187.5 91.0Q187.5 84.0 187.0 78.5ZM215.0 29.5H181.0L196.5 57.5L205.5 44.5Q209.5 39.0 212.25 34.25Q215.0 29.5 215.0 29.5ZM10.0 14.5Q10.0 10.0 31.5 10.0Q36.5 10.0 43.0 10.0Q49.5 10.0 56.5 11.0Q71.0 11.0 91.0 12.5Q108.5 13.0 128.75 13.5Q149.0 14.0 166.0 14.5Q192.5 15.0 212.5 16.5Q232.5 18.0 234.5 20.0Q234.5 20.0 234.5 20.75Q234.5 21.5 235.0 22.0Q234.0 27.0 227.5 34.5Q214.5 48.5 208.25 66.75Q202.0 85.0 200.0 104.5Q198.0 124.0 198.0 142.5Q198.0 157.5 200.0 158.0Q200.0 159.0 204.5 159.0Q208.5 159.0 214.75 158.25Q221.0 157.5 227.5 156.0Q234.5 155.0 240.0 154.0Q245.5 153.0 249.0 153.0Q252.5 153.0 255.0 154.25Q257.5 155.5 257.5 157.5Q257.5 161.0 252.0 165.0Q245.0 169.0 232.0 169.0Q214.0 169.0 194.75 179.75Q175.5 190.5 158.75 209.25Q142.0 228.0 130.5 252.5Q125.0 264.5 120.0 284.5Q115.0 304.5 112.0 326.75Q109.0 349.0 108.5 368.5Q108.5 373.0 106.75 376.0Q105.0 379.0 103.0 379.0Q98.5 379.0 98.5 364.0Q98.5 354.5 100.0 340.5Q100.5 335.0 100.5 330.0Q100.5 325.0 100.5 319.5Q100.5 299.0 98.5 275.75Q96.5 252.5 93.25 232.5Q90.0 212.5 85.5 202.0Q84.0 198.5 79.5 191.25Q75.0 184.0 69.25 177.75Q63.5 171.5 59.0 171.5Q57.5 171.5 53.5 176.0Q50.5 179.0 50.0 179.0Q47.5 179.0 46.5 166.5Q45.5 154.0 45.0 121.5Q45.0 90.0 43.5 73.0Q42.0 56.0 37.0 46.75Q32.0 37.5 21.5 29.5Q16.5 26.0 13.25 21.75Q10.0 17.5 10.0 14.5Z" fill="black" /></svg>