<svg xmlns="http://www.w3.org/2000/svg" width="715.0" height="450.0" viewBox="0 0 715.0 450.0"><path d="M155.5 184.0 164.0 164.0H124.0L133.0 184.0Q136.5 193.0 140.0 199.25Q143.5 205.5 144.0 205.5Q145.0 205.5 148.75 199.25Q152.5 193.0 155.5 184.0ZM218.0 372.0V334.5Q218.0 299.5 212.75 263.5Q207.5 227.5 193.0 196.0L181.0 168.5L171.0 184.0Q166.5 190.5 164.0 199.75Q161.5 209.0 160.25 227.5Q159.0 246.0 158.0 280.5Q157.5 292.5 157.5 302.75Q157.5 313.0 157.5 321.0Q157.5 346.5 160.0 357.0Q162.5 367.5 170.5 369.75Q178.5 372.0 194.5 372.0ZM234.5 170.5Q234.5 170.0 229.25 169.5Q224.0 169.0 216.5 169.0H198.0L216.0 210.5L224.0 194.5Q228.0 186.5 231.0 179.75Q234.0 173.0 234.5 170.5ZM373.5 221.0Q371.5 221.0 364.75 216.75Q358.0 212.5 351.0 206.0L335.0 194.0L333.0 221.5V249.5Q339.0 246.5 345.0 243.5Q351.0 240.5 357.0 237.0Q378.5 226.5 378.5 221.5Q378.5 221.5 377.5 221.25Q376.5 221.0 373.5 221.0ZM468.5 263.0V244.0Q468.5 226.0 463.0 226.0Q460.0 226.0 452.5 232.0Q445.0 238.0 437.0 245.5L420.0 263.0ZM477.5 205.5Q480.0 200.5 480.0 200.5Q478.0 200.5 475.5 201.5Q473.0 202.5 470.0 206.0Q468.0 208.0 468.0 210.0Q468.0 210.5 469.0 210.5Q476.0 210.5 477.5 205.5ZM276.5 91.0 257.0 85.5Q246.0 83.0 229.5 76.25Q213.0 69.5 201.0 63.5L176.0 50.0L173.0 86.5V95.5Q173.0 108.0 173.5 116.75Q174.0 125.5 174.5 125.5Q176.5 125.5 185.5 122.0Q194.5 118.5 205.0 113.5Q207.5 112.5 210.25 111.75Q213.0 111.0 216.0 110.5Q226.0 106.5 237.75 102.75Q249.5 99.0 257.5 96.0ZM675.5 28.0Q675.5 27.5 663.25 26.75Q651.0 26.0 634.0 26.0H593.5L603.0 48.0Q608.5 58.0 615.25 73.25Q622.0 88.5 626.0 101.0L634.5 126.0Q639.5 107.0 645.75 89.0Q652.0 71.0 661.5 54.0L665.0 49.0Q669.5 40.5 672.5 34.5Q675.5 28.5 675.5 28.0ZM94.0 367.5Q72.5 360.5 56.0 355.0Q39.5 349.5 37.5 348.5Q37.5 348.5 37.0 348.25Q36.5 348.0 36.0 348.0Q33.5 348.0 32.0 355.75Q30.5 363.5 30.5 381.0Q30.5 396.5 31.75 407.0Q33.0 417.5 34.0 417.5Q38.5 417.5 51.0 415.0Q63.5 412.5 79.0 408.5Q94.5 404.5 109.25 400.5Q124.0 396.5 133.5 393.0Q143.0 389.5 143.0 388.0Q143.0 386.5 128.75 380.5Q114.5 374.5 94.0 367.5ZM187.5 388.0Q184.0 386.5 176.5 385.25Q169.0 384.0 163.5 384.0Q161.0 384.0 158.75 384.25Q156.5 384.5 156.5 384.5Q156.5 386.5 161.75 387.75Q167.0 389.0 174.5 389.0Q184.5 389.0 187.5 388.0ZM188.0 388.5 189.0 389.0Q188.5 389.0 188.5 388.75Q188.5 388.5 188.0 388.5ZM569.0 12.5V13.0Q570.0 11.0 582.25 10.5Q594.5 10.0 611.0 10.0Q630.5 10.0 651.75 10.5Q673.0 11.0 688.25 12.0Q703.5 13.0 705.0 14.5Q705.0 21.0 701.25 25.75Q697.5 30.5 693.5 35.0Q687.0 42.0 679.25 53.5Q671.5 65.0 666.0 75.5Q662.0 83.0 659.5 89.75Q657.0 96.5 655.25 106.0Q653.5 115.5 652.5 131.25Q651.5 147.0 651.0 172.0Q650.5 197.0 650.0 235.5Q649.5 254.5 649.5 269.75Q649.5 285.0 649.5 298.0Q649.5 338.5 651.0 355.25Q652.5 372.0 656.5 376.5Q661.0 382.0 661.0 385.0Q661.0 388.5 656.5 391.0Q649.5 393.5 649.5 402.5Q649.5 414.5 641.5 414.5Q639.5 414.5 637.25 411.0Q635.0 407.5 635.0 402.5Q635.0 399.5 633.25 397.75Q631.5 396.0 623.75 395.0Q616.0 394.0 599.25 393.25Q582.5 392.5 553.25 392.0Q524.0 391.5 478.0 391.0Q448.0 391.0 422.75 390.5Q397.5 390.0 376.0 390.0Q322.5 390.0 291.25 391.0Q260.0 392.0 246.25 393.75Q232.5 395.5 230.5 398.0Q228.5 403.0 222.5 403.0Q221.0 403.0 218.5 401.5Q182.0 401.5 143.5 409.25Q105.0 417.0 69.5 426.0Q52.5 431.0 37.25 434.5Q22.0 438.0 18.0 439.0H18.5Q18.0 439.0 17.25 439.5Q16.5 440.0 15.5 440.0Q13.5 440.0 11.75 437.5Q10.0 435.0 10.0 432.0V430.0Q12.0 426.0 13.25 409.75Q14.5 393.5 16.5 374.5Q17.5 348.0 20.5 336.75Q23.5 325.5 29.5 325.5Q34.0 325.5 39.5 331.5Q41.5 333.5 51.5 337.5Q61.5 341.5 75.5 346.25Q89.5 351.0 104.0 355.25Q118.5 359.5 129.5 362.0L144.5 366.0L142.0 303.0Q141.0 279.5 139.75 264.0Q138.5 248.5 135.0 234.75Q131.5 221.0 124.25 203.25Q117.0 185.5 104.5 157.5V155.5Q104.5 151.0 110.5 149.75Q116.5 148.5 128.5 148.5Q141.0 148.5 146.25 147.5Q151.5 146.5 153.5 142.25Q155.5 138.0 157.5 128.0V128.5Q158.5 120.0 159.75 101.5Q161.0 83.0 161.0 65.0Q161.0 47.5 161.75 35.0Q162.5 22.5 164.5 22.5Q165.5 22.5 172.75 27.0Q180.0 31.5 187.0 38.0V37.5Q195.5 42.5 210.25 50.75Q225.0 59.0 238.0 64.0Q246.0 67.0 254.0 69.25Q262.0 71.5 274.0 73.0Q286.0 74.5 305.75 75.5Q325.5 76.5 356.0 77.0Q386.5 77.5 432.0 78.5Q479.0 79.0 516.5 80.75Q554.0 82.5 576.0 84.25Q598.0 86.0 598.0 87.5Q598.0 89.5 579.75 91.25Q561.5 93.0 530.5 93.75Q499.5 94.5 461.0 94.5Q423.0 94.5 397.5 94.75Q372.0 95.0 354.5 95.75Q337.0 96.5 324.0 98.0Q311.0 99.5 299.5 102.0Q288.0 104.5 273.5 108.5Q252.0 114.5 229.0 122.25Q206.0 130.0 193.0 134.5Q172.0 145.5 172.0 146.5Q172.0 146.5 174.0 147.0Q176.0 147.5 180.0 148.5Q185.0 150.5 198.5 151.75Q212.0 153.0 226.5 153.5Q240.0 153.5 249.75 155.5Q259.5 157.5 259.5 158.5Q259.5 160.5 256.5 166.5Q253.5 172.5 249.0 180.0Q228.0 208.0 228.0 274.5Q228.0 284.0 228.25 294.0Q228.5 304.0 229.0 314.0L233.0 369.5L286.5 373.5Q298.0 374.0 319.75 374.75Q341.5 375.5 369.5 376.25Q397.5 377.0 428.25 377.25Q459.0 377.5 489.0 377.5H636.5L634.5 266.0Q633.0 229.5 632.0 206.0Q631.0 182.5 629.25 167.5Q627.5 152.5 625.0 141.75Q622.5 131.0 618.5 120.5Q611.0 99.0 601.5 77.0Q592.0 55.0 584.0 39.5Q576.0 24.0 572.5 22.5Q568.5 19.5 568.5 16.0Q568.5 13.5 569.0 12.5ZM504.5 140.5Q504.5 131.5 510.5 131.5Q513.5 131.5 515.25 134.75Q517.0 138.0 517.0 142.5Q517.0 147.5 515.25 153.75Q513.5 160.0 510.0 165.5Q506.5 170.5 502.25 179.0Q498.0 187.5 495.0 195.0L489.5 210.5H514.0Q525.0 210.5 532.75 213.0Q540.5 215.5 540.5 219.0Q540.5 221.0 531.75 223.5Q523.0 226.0 510.5 226.0Q491.5 226.0 487.25 227.75Q483.0 229.5 483.0 238.5Q483.0 244.0 485.25 248.75Q487.5 253.5 491.0 254.5Q494.0 256.5 496.75 260.5Q499.5 264.5 499.5 268.0Q499.5 270.0 503.5 272.5Q507.5 275.0 513.5 277.0Q522.5 279.5 537.25 286.0Q552.0 292.5 567.25 300.25Q582.5 308.0 592.75 314.25Q603.0 320.5 603.0 322.5Q603.0 326.0 602.5 327.75Q602.0 329.5 599.5 329.5Q596.5 329.5 574.0 318.5Q539.0 300.0 500.75 290.25Q462.5 280.5 429.0 280.5H380.5L410.0 251.0Q432.0 229.5 432.0 226.5Q432.0 226.0 425.0 226.0Q416.0 226.0 401.5 231.25Q387.0 236.5 371.5 245.0Q356.0 253.5 343.0 263.5Q335.0 269.5 328.25 273.75Q321.5 278.0 320.5 278.0Q318.5 278.0 318.0 273.0Q317.5 268.0 317.5 260.0Q317.5 248.0 318.25 231.75Q319.0 215.5 320.0 199.75Q321.0 184.0 322.25 173.25Q323.5 162.5 325.0 161.5L324.5 162.5Q325.0 162.0 333.25 168.25Q341.5 174.5 352.5 186.0Q362.0 195.0 367.75 200.25Q373.5 205.5 379.0 207.5Q384.5 209.5 392.5 210.0Q400.5 210.5 414.0 210.5H450.0L477.0 179.5Q487.5 165.0 496.0 153.75Q504.5 142.5 504.5 140.5Z" fill="black" /></svg>