<svg xmlns="http://www.w3.org/2000/svg" width="843.5" height="456.0" viewBox="0 0 843.5 456.0"><path d="M62.0 287.5Q56.5 285.0 51.0 282.5Q45.5 280.0 41.5 278.0Q38.0 276.5 35.25 275.5Q32.5 274.5 31.5 274.0Q31.0 274.5 30.0 281.75Q29.0 289.0 28.0 299.0V313.5Q28.0 326.0 30.5 326.0L31.5 325.5Q57.5 316.0 72.25 310.0Q87.0 304.0 87.5 302.0Q87.5 301.5 79.75 297.0Q72.0 292.5 62.0 287.5ZM312.0 273.5 307.5 260.0Q302.0 245.0 300.0 245.0Q298.5 245.0 294.5 249.25Q290.5 253.5 286.25 258.5Q282.0 263.5 280.5 266.5Q282.5 267.0 286.75 268.25Q291.0 269.5 296.5 270.5ZM564.0 307.0Q559.0 303.5 555.5 301.25Q552.0 299.0 551.0 299.0Q551.0 299.0 550.5 306.75Q550.0 314.5 549.0 326.0V352.0L601.0 326.0L590.5 322.5Q584.5 319.5 577.0 315.0Q569.5 310.5 564.0 307.0ZM111.5 175.0Q111.5 173.5 99.5 173.5Q90.5 173.5 90.5 176.0Q90.5 177.5 91.25 180.5Q92.0 183.5 92.5 188.0Q93.5 191.5 95.0 196.25Q96.5 201.0 97.0 205.0Q98.5 208.5 98.5 210.5Q100.5 210.0 103.5 203.25Q106.5 196.5 109.0 188.25Q111.5 180.0 111.5 175.0ZM144.5 291.0 141.5 246.5Q141.0 228.0 139.0 210.25Q137.0 192.5 134.5 186.5L129.0 173.5L122.5 187.0Q119.5 193.5 116.0 206.5Q112.5 219.5 109.5 234.75Q106.5 250.0 104.25 263.25Q102.0 276.5 102.0 283.5Q102.0 286.5 102.5 286.5Q103.5 288.5 110.5 289.75Q117.5 291.0 125.5 291.0ZM150.5 113.0Q136.0 102.5 133.5 102.5Q132.0 102.5 132.0 106.0Q132.0 108.5 131.5 116.5Q131.0 124.5 130.0 133.0L127.5 151.0Q133.5 147.5 139.75 145.0Q146.0 142.5 152.0 140.0Q165.0 134.5 171.75 130.5Q178.5 126.5 179.0 124.5Q178.0 124.0 174.0 124.0Q172.0 124.0 164.75 121.0Q157.5 118.0 150.5 113.0ZM165.0 175.0Q165.0 174.5 161.75 174.0Q158.5 173.5 154.0 173.5H143.0L147.0 193.0Q151.0 212.5 152.0 212.5Q154.0 210.5 157.0 202.25Q160.0 194.0 162.5 185.75Q165.0 177.5 165.0 175.0ZM203.0 254.5Q203.0 251.5 202.25 238.75Q201.5 226.0 199.75 211.25Q198.0 196.5 194.75 185.5Q191.5 174.5 186.0 174.5Q181.0 174.5 176.5 184.25Q172.0 194.0 168.25 208.75Q164.5 223.5 161.5 239.75Q158.5 256.0 156.75 269.25Q155.0 282.5 155.0 289.0Q156.0 289.5 163.25 290.25Q170.5 291.0 180.0 292.0L204.0 293.0ZM227.5 173.5H216.0Q209.5 173.5 207.5 173.75Q205.5 174.0 205.5 176.5Q205.5 177.5 206.0 179.5Q206.5 181.5 206.5 184.0L207.0 188.0Q213.5 212.0 214.5 212.0Q215.5 212.0 216.5 208.25Q217.5 204.5 219.5 198.0L220.0 196.5Q223.5 187.5 225.0 180.0Q226.5 177.5 227.0 175.5Q227.5 173.5 227.5 173.5ZM315.5 184.0Q316.0 182.0 316.25 181.25Q316.5 180.5 316.5 180.0Q316.5 177.5 301.5 177.5H285.0L294.5 190.5Q303.0 205.0 306.5 205.5Q307.0 205.0 310.5 198.5Q311.0 196.0 312.5 191.5Q314.0 187.0 315.5 184.0ZM406.0 224.5 398.5 222.0Q392.5 221.0 385.75 217.25Q379.0 213.5 376.0 210.5Q371.0 207.0 370.0 207.0Q369.0 207.0 369.0 222.0Q369.0 240.0 371.5 241.5Q372.5 240.5 374.5 239.75Q376.5 239.0 378.5 237.5Q382.0 236.5 385.25 234.5Q388.5 232.5 392.0 230.0ZM399.0 166.5Q399.0 164.5 395.5 164.5Q392.0 164.5 392.0 166.5Q392.0 170.0 395.5 170.0Q399.0 170.0 399.0 166.5ZM448.0 122.5Q437.0 116.0 430.0 113.0Q423.0 110.0 417.0 110.0Q409.5 110.0 400.5 116.25Q391.5 122.5 375.5 135.5Q360.5 147.0 352.0 155.5Q343.5 164.0 338.5 172.0Q333.5 180.0 328.0 190.5Q321.5 204.5 318.25 217.5Q315.0 230.5 315.0 241.5Q315.0 248.0 316.25 253.75Q317.5 259.5 320.5 264.0Q323.5 267.5 332.0 275.5Q340.5 283.5 351.75 293.25Q363.0 303.0 374.25 311.75Q385.5 320.5 393.75 326.25Q402.0 332.0 404.0 332.0Q407.0 332.0 419.5 325.25Q432.0 318.5 450.0 308.0Q468.0 297.5 488.0 285.25Q508.0 273.0 525.75 261.75Q543.5 250.5 555.25 242.75Q567.0 235.0 569.0 233.0Q571.0 232.5 572.75 225.0Q574.5 217.5 575.75 209.0Q577.0 200.5 577.0 197.5Q577.0 191.5 573.5 191.5Q571.0 191.5 554.5 182.5Q538.0 173.5 517.5 161.0Q504.5 153.0 490.5 145.25Q476.5 137.5 465.0 131.25Q453.5 125.0 448.0 122.5ZM470.5 164.5H460.5Q452.5 164.5 452.5 167.5Q452.5 170.0 453.0 170.5Q454.5 176.5 455.0 177.0Q457.0 176.5 462.5 171.5Q470.5 167.0 470.5 164.5ZM598.5 249.5Q598.0 249.0 596.5 248.0Q595.0 247.0 593.5 246.0L592.5 245.0V245.5Q590.0 244.5 588.5 243.75Q587.0 243.0 585.5 243.0Q584.0 243.0 584.0 250.5Q584.0 258.0 585.0 258.0Q587.0 258.0 590.5 254.5Q593.0 253.5 595.25 251.75Q597.5 250.0 598.5 249.5ZM606.5 108.0 594.5 104.0Q587.5 101.5 579.5 96.75Q571.5 92.0 567.5 87.5L558.0 80.5L556.5 105.5Q556.0 114.5 555.75 121.5Q555.5 128.5 555.5 132.5Q558.5 131.5 565.75 128.0Q573.0 124.5 582.5 120.5ZM595.5 197.0H596.0Q591.5 192.0 590.0 192.0Q588.5 192.0 588.5 198.5Q588.5 203.5 592.0 203.5Q593.5 203.5 594.5 202.5Q597.5 201.5 597.5 201.0Q597.5 199.0 595.5 197.0ZM431.5 94.5Q428.5 90.0 424.75 81.5Q421.0 73.0 418.5 66.0L415.0 50.0L381.0 88.0L404.0 93.5Q414.0 95.5 423.25 98.25Q432.5 101.0 435.0 102.0Q435.5 102.5 435.75 102.5Q436.0 102.5 436.0 102.5Q436.0 102.5 435.0 100.25Q434.0 98.0 431.5 94.5ZM702.5 177.0Q703.0 177.0 705.5 173.5Q708.0 170.0 710.5 166.0Q713.0 162.0 713.0 161.0Q713.0 160.5 705.5 159.0Q703.5 158.5 700.5 158.5Q697.0 158.5 697.0 161.0Q697.0 162.5 698.0 165.5Q699.0 168.5 700.0 172.5Q700.5 177.0 702.5 177.0ZM788.0 124.0H755.5L760.5 134.0Q761.5 137.5 763.25 140.5Q765.0 143.5 766.0 146.0Q767.0 148.0 767.5 149.75Q768.0 151.5 768.5 153.0Q771.5 153.0 777.5 142.0Q782.0 135.5 785.0 130.0Q788.0 124.5 788.0 124.0ZM780.0 70.5 791.5 52.5H773.0Q764.0 52.5 760.5 53.0Q757.0 53.5 757.0 54.5Q757.0 56.0 759.5 60.5Q761.0 64.5 763.75 70.25Q766.5 76.0 767.0 80.5Q768.0 85.0 768.5 85.0Q771.0 85.0 780.0 70.5ZM405.0 350.5Q404.5 349.5 402.75 349.25Q401.0 349.0 400.0 349.0Q396.0 349.5 387.5 351.75Q379.0 354.0 369.75 356.25Q360.5 358.5 353.25 360.5Q346.0 362.5 344.5 363.5Q345.5 366.0 349.25 372.0Q353.0 378.0 358.5 385.5L373.5 407.0L379.0 394.5Q382.0 387.5 387.0 379.25Q392.0 371.0 396.0 365.0Q400.0 360.0 402.5 356.0Q405.0 352.0 405.0 350.5ZM119.0 117.0Q120.0 99.5 121.75 87.5Q123.5 75.5 124.5 75.5Q125.5 75.5 130.5 79.75Q135.5 84.0 140.5 90.5Q149.5 99.0 158.0 104.0Q166.5 109.0 179.0 111.5Q191.5 114.0 212.5 115.0Q233.5 116.0 268.5 117.0Q292.5 117.5 312.5 118.5Q332.5 119.5 344.25 120.75Q356.0 122.0 356.0 123.5Q356.0 125.0 346.25 126.25Q336.5 127.5 320.75 128.25Q305.0 129.0 286.0 129.0Q263.5 129.0 248.75 129.5Q234.0 130.0 223.75 131.25Q213.5 132.5 204.25 135.0Q195.0 137.5 183.0 141.5Q145.5 154.0 145.5 159.0Q145.5 160.0 151.0 160.0Q153.5 160.0 156.5 159.75Q159.5 159.5 162.5 159.0Q171.0 158.0 178.25 157.5Q185.5 157.0 187.5 157.0Q192.5 157.0 204.0 157.75Q215.5 158.5 227.5 159.25Q239.5 160.0 245.5 160.5L251.0 161.0L251.5 161.5Q251.5 166.0 244.5 175.0Q235.0 187.5 228.25 211.5Q221.5 235.5 218.5 265.0L216.0 295.0H271.5Q327.0 295.0 327.0 302.0V303.0Q325.0 305.0 309.0 306.5Q293.0 308.0 270.0 308.0H216.5V326.0Q216.5 335.5 215.0 342.25Q213.5 349.0 211.0 349.0Q209.0 349.0 207.75 342.5Q206.5 336.0 206.5 327.0Q206.5 314.0 204.5 311.25Q202.5 308.5 191.0 306.0Q182.5 305.0 176.25 304.0Q170.0 303.0 166.0 303.0Q158.0 303.0 156.25 307.75Q154.5 312.5 154.5 324.0Q154.5 334.0 152.75 341.5Q151.0 349.0 148.5 349.0Q146.5 349.0 144.75 342.25Q143.0 335.5 143.0 326.0Q143.0 314.0 141.25 311.0Q139.5 308.0 134.0 308.0Q122.5 308.0 111.5 313.0Q105.0 315.0 103.0 318.5Q101.0 322.0 101.0 331.0Q101.0 339.0 99.25 344.0Q97.5 349.0 94.5 349.0Q92.5 349.0 91.0 344.0Q89.5 339.0 89.5 332.5Q89.5 326.0 88.5 324.0Q87.5 322.0 83.5 322.0Q83.0 322.0 81.0 322.0Q79.0 322.0 76.5 322.5H77.5Q73.0 323.5 61.75 328.0Q50.5 332.5 40.0 338.0Q30.0 342.0 22.5 345.0Q15.0 348.0 12.5 348.0H12.0Q10.0 346.5 10.0 344.0Q10.0 341.5 10.75 336.75Q11.5 332.0 13.0 327.0Q15.5 321.0 16.75 308.0Q18.0 295.0 18.0 282.5Q18.0 264.0 19.25 257.25Q20.5 250.5 25.5 250.5Q28.5 250.5 31.25 252.0Q34.0 253.5 34.0 256.0Q34.0 257.5 39.25 261.5Q44.5 265.5 52.5 270.25Q60.5 275.0 68.25 279.0Q76.0 283.0 81.0 284.5H85.0Q87.5 284.5 88.5 279.5Q89.5 274.5 89.5 256.0Q89.5 226.0 85.0 202.0Q80.5 178.0 73.5 172.5Q69.5 170.0 68.0 166.75Q66.5 163.5 66.5 161.0Q66.5 155.5 74.5 155.5Q79.0 155.5 87.5 158.0Q93.0 158.5 97.0 159.5Q101.0 160.5 104.0 160.5Q111.5 160.5 112.0 158.0Q114.5 157.0 116.5 144.75Q118.5 132.5 119.0 117.0ZM394.5 146.5Q396.5 143.0 400.0 141.0Q403.5 139.0 405.5 139.0Q409.0 139.0 409.0 143.5Q409.0 145.5 408.0 146.5Q407.5 148.0 407.5 149.5Q407.5 155.0 411.75 164.25Q416.0 173.5 422.75 182.75Q429.5 192.0 436.0 197.5Q446.0 203.5 447.0 203.5Q447.5 203.5 447.5 199.5Q447.5 188.5 442.0 176.25Q436.5 164.0 430.5 162.0Q426.5 161.0 423.5 158.0Q420.5 155.0 420.5 151.5Q420.5 145.5 426.5 145.5Q428.5 145.5 431.5 146.0Q434.5 146.5 439.5 148.5H439.0Q446.0 149.5 457.75 151.0Q469.5 152.5 477.5 152.5Q488.0 153.0 494.5 156.25Q501.0 159.5 501.0 162.0Q501.0 167.0 491.0 168.5Q484.5 169.0 477.0 175.75Q469.5 182.5 464.25 191.0Q459.0 199.5 459.0 206.5V214.5Q469.0 214.0 479.25 213.5Q489.5 213.0 500.0 212.5Q508.5 212.0 515.25 211.75Q522.0 211.5 527.5 211.5Q543.5 211.5 546.5 216.0L545.5 214.5Q547.0 216.5 547.0 217.5Q547.0 222.0 530.5 222.0Q522.5 222.0 511.75 223.0Q501.0 224.0 492.5 225.0L475.5 228.0Q480.0 231.5 484.75 235.75Q489.5 240.0 493.5 244.0Q502.5 250.5 508.5 257.0Q514.5 263.5 514.5 266.0V266.5Q513.5 269.0 512.0 269.0Q510.0 269.0 502.0 264.0Q494.0 259.0 484.5 252.0Q476.0 244.5 469.5 239.75Q463.0 235.0 460.5 234.5Q460.0 238.0 459.0 248.75Q458.0 259.5 456.5 272.0Q455.0 285.5 453.0 295.5Q451.0 305.5 448.5 305.5H448.0Q444.5 303.0 444.5 282.5Q444.5 278.5 445.0 273.5Q445.5 268.5 445.5 264.0Q446.5 253.5 447.0 246.75Q447.5 240.0 447.5 236.5Q447.5 229.5 446.0 228.25Q444.5 227.0 441.0 227.0Q435.0 227.0 423.0 231.5Q411.0 236.0 398.75 242.25Q386.5 248.5 378.0 254.0Q372.5 258.0 367.5 261.0Q362.5 264.0 360.0 264.0Q359.0 264.0 358.25 254.75Q357.5 245.5 357.5 233.5Q357.5 223.0 357.75 212.25Q358.0 201.5 358.75 193.5Q359.5 185.5 360.0 184.5H362.0Q364.5 184.5 376.0 194.5Q385.5 203.0 399.25 208.25Q413.0 213.5 424.0 213.5Q428.0 213.5 431.0 213.0Q435.5 213.0 435.5 213.0Q435.0 212.0 431.25 208.75Q427.5 205.5 418.5 198.5Q410.0 192.0 399.5 186.25Q389.0 180.5 383.0 180.0Q368.0 176.5 368.0 171.5Q368.0 166.5 379.5 161.0Q384.0 158.0 388.5 154.0Q393.0 150.0 394.5 146.5ZM422.5 17.0Q430.5 10.0 433.0 10.0Q435.5 10.0 435.5 13.5Q435.5 15.5 434.25 18.25Q433.0 21.0 430.5 25.0Q428.5 27.5 427.5 31.5Q426.5 35.5 426.5 40.0Q426.5 50.0 430.75 62.75Q435.0 75.5 444.0 88.5Q449.0 97.0 455.5 104.0Q462.0 111.0 473.75 119.0Q485.5 127.0 505.5 140.0L517.5 146.5Q547.0 164.5 558.25 171.25Q569.5 178.0 573.5 178.0Q576.5 178.0 577.0 174.5Q580.0 170.5 583.0 170.5Q585.5 170.5 595.5 180.0Q600.5 184.0 605.5 186.25Q610.5 188.5 619.75 189.5Q629.0 190.5 646.5 191.5Q665.5 192.0 675.0 194.5Q684.5 197.0 684.5 199.5Q684.5 201.5 676.0 203.25Q667.5 205.0 650.5 205.0Q624.5 205.0 610.25 210.0Q596.0 215.0 596.0 223.5V225.0Q596.0 235.0 605.75 238.5Q615.5 242.0 644.5 242.0Q661.5 242.0 672.5 243.75Q683.5 245.5 683.5 248.5Q683.5 251.5 673.5 253.0Q663.5 254.5 648.5 254.5Q629.0 254.5 619.5 256.5Q610.0 258.5 599.5 265.5V265.0Q592.5 270.0 585.5 273.5Q578.5 277.0 577.0 277.0Q575.5 277.0 574.0 272.0Q572.5 267.0 572.0 260.0L571.0 247.5Q557.0 256.5 542.75 265.25Q528.5 274.0 515.0 282.5Q497.0 293.5 474.25 309.5Q451.5 325.5 430.25 345.0Q409.0 364.5 395.0 386.5Q381.0 408.5 381.0 432.5Q382.0 434.5 382.0 436.25Q382.0 438.0 382.0 440.0Q382.0 446.0 379.0 446.0Q373.0 446.0 370.25 440.25Q367.5 434.5 367.5 429.5Q367.5 421.5 358.0 405.75Q348.5 390.0 331.0 369.5Q322.5 358.0 318.0 351.75Q313.5 345.5 313.5 342.5Q313.5 339.0 317.0 339.0Q319.0 339.0 321.75 340.25Q324.5 341.5 329.0 343.5Q334.5 345.5 339.75 347.0Q345.0 348.5 351.5 348.5Q355.0 348.5 362.75 347.5Q370.5 346.5 377.25 344.75Q384.0 343.0 384.0 341.0Q384.0 336.5 359.5 316.5Q335.0 296.5 317.75 289.0Q300.5 281.5 280.0 281.5Q273.0 281.5 266.5 280.5Q260.0 279.5 259.0 278.5L258.5 276.5Q258.5 274.0 264.0 265.75Q269.5 257.5 277.5 248.0Q287.0 238.0 293.75 230.0Q300.5 222.0 300.5 221.5Q300.5 220.0 295.0 212.25Q289.5 204.5 282.0 194.5Q275.5 184.5 271.0 176.75Q266.5 169.0 266.5 166.5L268.0 165.0H300.0Q314.5 165.0 329.5 155.25Q344.5 145.5 355.5 136.0Q365.0 129.0 372.75 122.5Q380.5 116.0 385.5 112.5L396.5 102.5L383.0 104.0Q374.5 105.0 366.5 107.25Q358.5 109.5 355.5 112.0Q352.0 113.5 349.5 115.0Q347.0 116.5 345.0 116.5Q343.5 115.0 343.5 113.5Q343.5 106.5 376.5 73.0Q391.0 58.5 401.5 45.5Q412.0 32.5 412.0 30.0Q412.0 27.5 414.75 23.25Q417.5 19.0 422.5 17.0ZM811.5 36.0Q814.0 34.0 816.25 32.75Q818.5 31.5 820.5 31.5Q823.0 31.5 828.25 34.5Q833.5 37.5 833.5 41.0Q833.5 43.5 829.75 45.0Q826.0 46.5 815.0 50.0Q810.5 51.0 803.75 58.75Q797.0 66.5 790.0 77.0Q783.0 87.5 778.5 97.5L772.5 113.0L797.0 109.5Q802.0 109.0 805.75 109.0Q809.5 109.0 813.0 109.0Q827.0 109.0 827.0 113.5Q827.0 120.0 818.0 120.0Q813.5 120.0 806.25 126.0Q799.0 132.0 792.0 141.5Q785.0 151.0 780.5 161.0Q777.0 168.5 775.25 178.0Q773.5 187.5 773.0 204.75Q772.5 222.0 772.5 254.5Q772.5 275.5 771.75 294.25Q771.0 313.0 769.75 325.25Q768.5 337.5 767.5 339.0Q764.0 344.0 763.0 344.0Q761.5 344.0 761.5 337.0Q761.5 334.5 757.5 333.25Q753.5 332.0 740.75 331.0Q728.0 330.0 700.5 329.5H681.0Q652.0 329.5 631.5 332.5Q611.0 335.5 593.5 342.75Q576.0 350.0 556.0 363.0L538.5 375.0L539.0 324.0Q539.0 303.0 540.5 288.5Q542.0 274.0 545.0 274.0Q546.5 274.0 550.5 276.75Q554.5 279.5 558.0 284.5Q570.5 300.0 590.0 306.75Q609.5 313.5 646.5 314.5L692.0 315.0L693.0 261.5Q693.0 253.0 693.25 245.75Q693.5 238.5 693.5 232.0Q693.5 196.5 690.5 180.5Q687.5 164.5 679.0 156.5Q674.0 152.0 671.5 148.5Q669.0 145.0 668.5 143.5Q669.5 140.0 673.0 140.0Q676.0 140.0 680.25 140.75Q684.5 141.5 689.5 142.5Q696.5 144.5 707.0 145.5Q717.5 146.5 725.0 146.5Q746.5 146.5 747.5 154.5Q747.5 159.0 736.5 164.5Q724.5 169.5 718.0 178.5Q711.5 187.5 708.75 205.75Q706.0 224.0 704.5 257.5L703.5 315.0H759.0V234.5Q759.0 199.0 758.5 180.5Q758.0 162.0 756.25 153.5Q754.5 145.0 751.5 141.0Q749.0 135.5 743.75 132.0Q738.5 128.5 735.5 127.0Q725.5 123.0 725.5 119.5Q725.5 115.0 733.0 113.0Q728.0 113.0 721.75 112.75Q715.5 112.5 708.0 112.0H700.5Q673.0 112.0 652.25 113.5Q631.5 115.0 612.0 121.25Q592.5 127.5 568.5 142.0Q559.5 148.0 553.0 151.75Q546.5 155.5 545.5 155.5Q544.0 155.5 543.75 140.75Q543.5 126.0 543.5 104.0Q543.5 83.0 545.25 68.5Q547.0 54.0 548.5 54.0Q548.5 54.0 553.5 58.0Q558.5 62.0 564.0 69.0H563.5Q573.0 78.5 582.0 84.25Q591.0 90.0 603.75 93.0Q616.5 96.0 636.5 97.0Q656.5 98.0 688.0 98.0H760.0L755.5 81.5Q752.5 71.5 748.5 66.0Q744.5 60.5 736.0 57.0Q730.5 54.5 725.5 51.0Q720.5 47.5 720.5 45.5Q720.5 43.0 733.25 41.5Q746.0 40.0 763.0 40.0Q780.5 40.0 794.5 38.75Q808.5 37.5 811.5 36.0ZM410.5 344.0H412.0Q412.0 345.0 411.0 345.0Q410.5 345.0 410.5 344.0Z" fill="black" /></svg>