<svg xmlns="http://www.w3.org/2000/svg" width="941.0" height="463.0" viewBox="0 0 941.0 463.0"><path d="M74.5 248.0Q74.5 245.5 69.25 242.0Q64.0 238.5 58.0 235.75Q52.0 233.0 49.0 233.0Q41.0 233.0 41.0 253.0Q41.0 259.0 41.75 261.0Q42.5 263.0 44.5 263.0Q47.0 263.0 54.25 260.0Q61.5 257.0 68.0 253.5Q74.5 250.0 74.5 248.0ZM86.5 183.5Q86.5 181.0 79.25 176.5Q72.0 172.0 63.5 168.25Q55.0 164.5 51.0 164.5H49.0Q47.5 169.0 47.5 182.5Q47.5 190.0 48.25 196.25Q49.0 202.5 49.5 203.5Q70.0 194.0 78.25 189.5Q86.5 185.0 86.5 183.5ZM367.5 290.0V124.5L349.0 125.5Q340.5 125.5 333.5 126.0Q326.5 126.5 324.0 127.5Q321.5 128.5 316.5 129.5Q311.5 130.5 305.0 132.0L285.5 136.5V353.0L316.0 362.0Q318.5 363.0 321.25 364.0Q324.0 365.0 325.5 366.0Q334.0 368.0 340.25 370.0Q346.5 372.0 351.5 372.0Q359.0 372.0 362.25 365.0Q365.5 358.0 366.5 340.0Q367.5 322.0 367.5 290.0ZM319.5 91.5Q299.5 86.0 280.5 80.25Q261.5 74.5 256.0 72.5Q254.0 72.5 252.25 72.0Q250.5 71.5 248.5 71.5Q245.5 71.5 244.5 77.5Q243.5 83.5 243.5 101.0V131.5L281.0 123.5H280.0Q295.5 120.5 311.5 116.5Q327.5 112.5 335.0 111.5Q360.0 107.5 360.0 105.5Q360.0 103.5 319.5 91.5ZM898.0 35.5H860.0Q840.5 35.5 832.5 36.25Q824.5 37.0 823.5 39.5L824.5 40.0Q825.5 44.0 828.75 54.5Q832.0 65.0 836.25 78.25Q840.5 91.5 845.0 103.75Q849.5 116.0 853.75 124.0Q858.0 132.0 861.0 132.0Q862.5 132.0 862.5 121.0Q862.5 115.0 867.75 100.75Q873.0 86.5 880.0 72.5Q887.5 57.5 892.75 46.75Q898.0 36.0 898.0 35.5ZM32.0 400.0 31.5 399.5Q31.5 400.0 32.0 400.0ZM75.0 377.5Q74.5 375.0 67.0 371.75Q59.5 368.5 51.5 366.0Q43.5 363.5 40.5 363.5Q38.5 363.5 36.5 371.5Q34.5 379.5 33.0 388.25Q31.5 397.0 31.5 399.5Q34.5 399.5 41.25 396.75Q48.0 394.0 55.5 390.0Q63.0 386.0 68.75 382.5Q74.5 379.0 75.0 377.5ZM75.0 319.5Q75.0 317.5 68.25 314.0Q61.5 310.5 54.0 307.5Q46.5 304.5 44.0 304.5Q41.0 304.5 41.0 319.5Q41.0 326.5 41.5 331.0Q42.0 335.5 43.0 335.5Q46.0 335.5 53.75 332.0Q61.5 328.5 68.25 324.5Q75.0 320.5 75.0 319.5ZM504.0 254.0Q502.5 253.5 499.75 253.0Q497.0 252.5 493.0 251.5Q486.5 249.0 477.5 245.75Q468.5 242.5 458.5 240.5Q446.0 235.5 435.25 233.0Q424.5 230.5 420.5 230.5H419.0Q418.0 232.0 417.5 237.75Q417.0 243.5 417.0 250.5Q417.0 259.0 417.75 267.0Q418.5 275.0 420.0 276.0Q426.5 275.0 439.25 272.25Q452.0 269.5 466.0 266.0Q480.0 262.5 490.75 259.25Q501.5 256.0 504.0 254.0ZM357.5 387.5Q351.0 387.5 338.5 384.25Q326.0 381.0 311.5 376.5Q297.0 372.0 284.25 367.5Q271.5 363.0 264.5 360.0Q263.5 359.5 262.5 358.75Q261.5 358.0 260.5 358.0Q257.5 358.0 256.75 364.5Q256.0 371.0 256.0 388.5V420.0L274.0 415.5Q278.0 414.5 284.25 413.5Q290.5 412.5 297.5 410.5Q305.5 409.5 313.5 408.25Q321.5 407.0 329.0 405.0Q346.5 402.0 357.0 397.25Q367.5 392.5 367.5 389.0Q367.5 387.5 357.5 387.5ZM802.0 17.0Q802.0 10.0 805.5 10.0Q806.5 10.0 808.75 11.0Q811.0 12.0 814.5 13.5Q819.5 15.5 837.75 17.25Q856.0 19.0 877.5 19.0Q903.5 19.0 917.25 21.75Q931.0 24.5 931.0 28.5Q931.0 32.5 921.5 37.0Q918.5 38.5 910.5 49.5Q902.5 60.5 894.5 75.0Q887.0 89.0 883.0 98.75Q879.0 108.5 876.75 120.25Q874.5 132.0 873.0 150.25Q871.5 168.5 870.0 199.5Q869.0 223.5 867.75 254.5Q866.5 285.5 865.75 316.0Q865.0 346.5 865.0 368.5Q865.0 453.0 856.5 453.0Q853.5 453.0 851.25 440.5Q849.0 428.0 849.0 400.0Q849.0 381.5 850.5 353.0L853.5 258.5H710.5Q666.5 258.5 634.25 259.25Q602.0 260.0 577.25 261.75Q552.5 263.5 531.75 266.5Q511.0 269.5 490.5 274.5Q470.0 279.5 446.0 286.5Q440.0 288.0 433.75 289.5Q427.5 291.0 422.5 292.5Q414.5 294.5 408.75 296.0Q403.0 297.5 402.0 297.5Q400.0 297.5 400.0 281.5Q400.0 271.0 400.5 256.75Q401.0 242.5 402.25 230.0Q403.5 217.5 405.0 213.5Q406.0 210.0 410.0 210.0Q415.5 210.0 424.75 212.75Q434.0 215.5 448.0 221.0Q460.5 226.0 471.75 229.25Q483.0 232.5 499.5 234.5Q516.0 236.5 544.25 238.25Q572.5 240.0 618.5 242.0Q652.5 244.0 686.75 244.5Q721.0 245.0 748.5 245.0Q767.5 245.0 782.25 244.75Q797.0 244.5 805.0 243.5L857.5 239.5L853.5 204.5Q852.5 190.0 849.0 170.5Q845.5 151.0 842.5 138.5L835.0 110.0H621.0Q559.5 110.0 517.5 110.25Q475.5 110.5 449.5 111.5Q423.5 112.5 410.5 113.75Q397.5 115.0 393.5 117.5Q389.0 120.0 386.25 123.75Q383.5 127.5 382.5 139.25Q381.5 151.0 381.5 178.0Q381.5 191.5 381.5 209.25Q381.5 227.0 382.0 250.0L384.0 375.0L409.5 378.0Q415.0 379.0 435.75 380.0Q456.5 381.0 488.25 381.75Q520.0 382.5 559.25 383.0Q598.5 383.5 640.5 383.5Q740.5 384.0 793.5 385.75Q846.5 387.5 846.5 391.5Q846.5 395.0 796.25 397.25Q746.0 399.5 652.0 399.5Q591.5 399.5 544.75 400.25Q498.0 401.0 461.0 403.25Q424.0 405.5 393.5 409.25Q363.0 413.0 335.25 418.75Q307.5 424.5 279.5 432.5Q266.0 435.5 257.75 437.75Q249.5 440.0 245.5 440.0Q236.5 440.0 236.5 430.0Q236.5 427.0 237.25 423.0Q238.0 419.0 239.0 413.5L242.0 393.0L67.0 396.5L41.5 415.0Q32.5 422.5 24.5 427.75Q16.5 433.0 13.0 433.0Q11.5 433.0 10.5 431.5H11.0Q10.0 430.5 10.0 426.0Q10.0 423.0 11.25 417.0Q12.5 411.0 14.5 404.0Q16.0 399.5 17.75 383.75Q19.5 368.0 21.5 345.0Q23.5 322.0 25.5 295.5Q27.5 269.0 29.0 242.75Q30.5 216.5 31.75 194.0Q33.0 171.5 33.0 157.0Q33.0 149.0 35.25 143.75Q37.5 138.5 39.5 138.5Q41.0 138.5 49.25 143.0Q57.5 147.5 68.5 153.5Q74.0 157.0 80.0 159.5Q92.5 167.0 100.75 171.5Q109.0 176.0 118.0 178.0Q127.0 180.0 141.5 180.5Q156.0 181.0 180.5 181.0Q210.0 181.0 229.75 182.75Q249.5 184.5 252.0 187.5V188.5Q252.0 196.0 177.5 196.0Q147.0 196.0 128.0 197.0Q109.0 198.0 97.75 200.0Q86.5 202.0 78.5 205.5Q70.5 209.5 64.75 212.75Q59.0 216.0 59.0 217.0Q59.0 219.0 65.25 223.0Q71.5 227.0 81.0 231.5Q92.5 238.0 112.5 241.25Q132.5 244.5 170.5 245.5Q198.0 246.5 218.0 249.0Q238.0 251.5 238.0 254.0Q238.0 256.5 227.0 258.25Q216.0 260.0 198.25 260.75Q180.5 261.5 159.5 261.5Q115.5 261.5 94.75 263.0Q74.0 264.5 64.0 270.0Q57.0 273.0 52.0 277.0Q47.0 281.0 47.0 282.5Q47.0 284.5 55.0 289.75Q63.0 295.0 75.0 300.5Q86.0 306.0 97.0 309.5Q108.0 313.0 125.0 314.75Q142.0 316.5 170.5 317.0Q198.0 318.0 218.0 320.25Q238.0 322.5 238.0 326.0Q238.0 328.0 227.75 329.5Q217.5 331.0 200.5 331.75Q183.5 332.5 163.0 332.5Q110.0 332.5 84.5 336.5Q59.0 340.5 59.0 349.0Q59.0 349.5 67.0 354.75Q75.0 360.0 87.5 365.5Q99.5 370.5 110.75 373.25Q122.0 376.0 138.0 376.75Q154.0 377.5 179.5 377.5H241.0V358.0Q241.0 346.0 242.25 341.5Q243.5 337.0 248.5 337.0Q251.5 337.0 257.5 338.5L271.5 341.5V245.5Q271.5 205.0 270.5 182.75Q269.5 160.5 266.5 151.75Q263.5 143.0 257.5 143.0Q250.5 143.0 242.0 148.0L225.0 155.0L228.0 103.5Q229.0 87.5 230.0 74.25Q231.0 61.0 231.5 55.0L232.0 51.5H234.0Q238.0 51.5 250.0 54.25Q262.0 57.0 277.5 63.0Q288.5 67.0 303.25 71.25Q318.0 75.5 333.25 79.0Q348.5 82.5 360.5 84.5Q371.0 86.0 398.0 87.5Q425.0 89.0 463.0 89.75Q501.0 90.5 544.75 91.0Q588.5 91.5 631.5 91.5Q670.0 91.5 704.75 91.25Q739.5 91.0 766.75 90.5Q794.0 90.0 809.75 89.0Q825.5 88.0 825.5 87.0Q825.5 85.0 822.0 75.25Q818.5 65.5 814.0 54.5Q809.0 43.0 805.5 32.25Q802.0 21.5 802.0 17.0Z" fill="black" /></svg>