<svg xmlns="http://www.w3.org/2000/svg" width="795.5" height="450.5" viewBox="0 0 795.5 450.5"><path d="M58.5 354.5Q53.5 353.0 47.25 348.0Q41.0 343.0 36.0 338.0L24.0 328.0V355.0Q24.0 381.5 29.5 383.0Q34.0 381.0 39.5 375.0Q42.0 371.5 46.5 368.25Q51.0 365.0 54.5 365.0Q65.0 365.0 65.0 359.5Q65.0 355.5 58.5 354.5ZM38.5 168.5Q38.5 169.0 38.5 169.0Q38.5 169.0 38.5 169.0ZM61.0 154.5 77.0 147.0Q72.0 143.5 67.25 140.0Q62.5 136.5 57.0 133.0L36.0 119.0V145.5Q36.0 155.5 36.75 161.5Q37.5 167.5 38.0 168.5Q40.5 165.5 46.75 161.5Q53.0 157.5 61.0 154.5ZM90.5 183.0Q90.5 182.5 85.5 181.75Q80.5 181.0 74.5 181.0Q61.0 181.0 61.0 183.0Q61.0 184.0 63.75 189.0Q66.5 194.0 69.25 199.0Q72.0 204.0 72.5 204.5H73.0Q75.0 204.5 79.0 200.25Q83.0 196.0 86.5 190.75Q90.0 185.5 90.5 183.0ZM296.5 167.0Q288.5 142.0 284.25 131.75Q280.0 121.5 274.5 121.5Q271.0 121.5 266.5 124.0Q262.0 126.5 255.0 130.5Q247.5 136.0 241.5 139.0Q235.5 142.0 227.75 143.5Q220.0 145.0 207.25 145.25Q194.5 145.5 174.0 145.5Q139.5 145.5 122.0 147.75Q104.5 150.0 93.0 155.5L77.5 164.0L93.5 165.0Q102.5 165.0 109.25 167.0Q116.0 169.0 116.0 170.5Q116.0 171.0 111.75 178.75Q107.5 186.5 102.0 194.5Q95.5 202.5 91.5 214.0Q87.5 225.5 87.5 232.5Q87.5 240.0 86.25 259.0Q85.0 278.0 82.5 297.0L79.0 342.5H148.0Q217.0 342.5 217.5 337.0Q218.5 336.0 219.5 334.75Q220.5 333.5 222.0 333.5Q227.5 333.5 238.5 343.0Q248.0 349.5 260.25 356.5Q272.5 363.5 283.75 368.0Q295.0 372.5 301.0 372.5Q304.0 372.5 305.25 365.25Q306.5 358.0 307.0 339.75Q307.5 321.5 307.5 288.5Q307.5 253.5 306.75 232.25Q306.0 211.0 303.5 196.25Q301.0 181.5 296.5 167.0ZM518.0 119.0 511.0 92.0 428.5 90.5Q386.0 90.5 361.75 92.0Q337.5 93.5 326.5 97.5L315.0 102.0L333.5 102.5Q362.0 103.0 362.0 112.5Q362.0 116.0 356.0 120.0Q353.5 122.0 348.0 129.75Q342.5 137.5 337.5 147.0V146.0Q333.5 154.0 331.0 162.5Q328.5 171.0 327.0 184.0Q325.5 197.0 324.75 218.5Q324.0 240.0 323.0 274.5L321.0 377.5H530.5V284.0Q527.0 286.5 523.75 288.75Q520.5 291.0 516.5 293.5Q509.0 299.0 502.75 303.0Q496.5 307.0 494.0 307.0Q491.5 307.0 490.5 294.25Q489.5 281.5 489.5 264.0Q489.5 248.0 490.25 231.5Q491.0 215.0 492.5 202.75Q494.0 190.5 495.0 189.0Q495.0 187.5 497.0 187.5Q498.5 187.5 502.75 190.75Q507.0 194.0 513.0 199.5Q518.0 204.5 522.5 208.0Q527.0 211.5 529.0 211.5Q529.5 211.5 529.5 201.5Q529.5 192.5 528.0 178.5Q526.5 164.5 524.0 148.75Q521.5 133.0 518.0 119.0ZM530.5 249.5Q530.5 231.0 517.0 223.5L504.5 215.5V248.0Q504.5 260.5 505.5 269.75Q506.5 279.0 508.5 279.5Q516.5 279.0 523.5 269.5Q530.5 260.0 530.5 249.5ZM568.5 249.0 562.5 247.5Q559.0 245.5 556.0 244.75Q553.0 244.0 551.0 244.0Q545.0 244.0 545.0 250.5Q545.0 257.0 552.0 257.0Q554.5 257.0 558.25 255.75Q562.0 254.5 565.0 252.5V253.0Q568.5 248.5 568.5 249.0ZM266.5 66.0Q261.0 60.5 257.5 60.5Q252.5 60.5 252.5 88.0V114.5L266.5 106.5Q273.5 102.5 283.5 97.75Q293.5 93.0 300.5 90.5L312.5 86.5Q307.0 84.5 297.25 81.0Q287.5 77.5 278.5 73.5Q269.5 69.5 266.5 66.0ZM334.5 119.0Q331.5 117.0 315.0 117.0Q304.0 117.0 299.5 117.75Q295.0 118.5 295.0 121.0Q295.0 121.5 295.0 122.5Q295.0 123.5 295.5 124.5Q298.0 129.0 301.75 137.5Q305.5 146.0 307.5 154.5L313.5 170.5L321.5 147.5Q323.5 144.0 325.0 140.5Q326.5 137.0 328.0 133.5Q330.5 128.5 332.25 124.5Q334.0 120.5 334.5 119.0ZM527.5 107.5H527.0ZM555.5 33.0V34.0Q557.5 30.5 557.5 29.0Q557.5 27.5 552.25 26.75Q547.0 26.0 533.0 26.0H504.5Q504.5 27.0 508.0 37.25Q511.5 47.5 516.5 60.5Q521.0 74.5 524.5 87.75Q528.0 101.0 528.5 106.5Q530.5 104.0 533.0 97.25Q535.5 90.5 539.0 80.5Q541.5 73.5 543.75 67.0Q546.0 60.5 548.0 55.0Q551.0 47.5 553.0 41.5Q555.0 35.5 555.5 33.0ZM300.0 387.0Q295.5 387.0 283.25 382.5Q271.0 378.0 258.5 372.5L230.5 359.0V389.0Q230.5 404.5 231.25 410.25Q232.0 416.0 234.5 416.0Q237.5 416.0 238.5 415.5Q242.5 414.0 250.5 411.5Q256.5 409.0 264.25 406.5Q272.0 404.0 279.0 401.0Q308.0 392.5 308.0 388.0Q308.0 387.0 300.0 387.0ZM485.5 14.5Q485.5 12.0 496.5 11.0Q507.5 10.0 521.5 10.0Q533.5 10.0 546.25 10.5Q559.0 11.0 568.25 12.0Q577.5 13.0 579.0 14.0Q579.0 17.0 575.25 26.25Q571.5 35.5 566.0 48.0L565.0 51.5Q559.0 62.5 555.5 71.25Q552.0 80.0 550.0 90.25Q548.0 100.5 547.0 115.25Q546.0 130.0 545.5 152.5Q545.0 164.0 545.0 173.0Q545.0 182.0 545.0 188.0Q545.0 209.5 546.5 216.25Q548.0 223.0 553.0 226.5Q557.5 229.5 570.0 231.25Q582.5 233.0 607.25 233.75Q632.0 234.5 673.0 234.5Q705.5 234.5 731.0 235.25Q756.5 236.0 771.0 237.75Q785.5 239.5 785.5 242.0Q785.5 243.0 772.5 245.0Q759.5 247.0 738.25 248.5Q717.0 250.0 691.0 250.5Q660.5 251.0 641.0 252.0Q621.5 253.0 609.25 254.5Q597.0 256.0 588.75 258.5Q580.5 261.0 572.0 265.0L545.0 276.5V377.5H563.0Q572.5 377.5 578.75 379.25Q585.0 381.0 585.0 384.5Q585.0 388.0 578.75 390.5Q572.5 393.0 563.0 393.0Q545.0 393.0 545.0 399.0Q545.0 402.5 542.75 406.0Q540.5 409.5 538.0 409.5Q535.0 409.5 532.75 406.0Q530.5 402.5 530.5 399.0Q530.5 396.0 524.5 394.75Q518.5 393.5 501.5 393.25Q484.5 393.0 451.0 393.0Q406.5 393.0 373.0 396.25Q339.5 399.5 310.25 407.25Q281.0 415.0 249.5 429.5Q238.5 434.5 230.0 437.5Q221.5 440.5 218.5 440.5Q216.5 440.5 216.0 437.5Q216.0 436.5 216.0 423.75Q216.0 411.0 216.5 394.5L217.5 357.5H162.0Q131.5 357.5 109.25 361.5Q87.0 365.5 68.75 375.0Q50.5 384.5 32.0 400.5Q25.0 405.0 19.5 408.5Q14.0 412.0 12.0 412.0Q10.0 412.0 10.0 409.5V399.5Q10.0 389.5 10.5 374.25Q11.0 359.0 11.5 343.25Q12.0 327.5 12.75 315.5Q13.5 303.5 14.0 300.0Q16.0 300.0 23.5 306.0Q31.0 312.0 39.5 321.5Q48.5 329.5 56.0 335.0Q63.5 340.5 67.0 341.5Q68.0 337.5 69.5 325.0Q71.0 312.5 72.5 297.0Q72.5 275.5 71.0 258.75Q69.5 242.0 62.0 221.5Q55.5 201.5 51.5 194.0Q47.5 186.5 45.0 186.5Q42.5 186.5 39.5 189.5Q33.5 197.0 29.0 197.0Q20.5 197.0 20.5 168.0Q20.5 162.5 20.75 156.5Q21.0 150.5 21.5 143.5Q21.5 121.5 23.25 104.25Q25.0 87.0 25.5 86.5H26.0Q32.5 86.5 43.0 102.0Q52.5 113.0 62.5 119.0Q72.5 125.0 89.0 127.5Q105.5 130.0 133.5 130.0Q140.5 130.0 148.0 129.5Q155.5 129.0 163.5 129.0L236.5 127.5L238.0 82.5Q239.0 62.0 240.75 48.25Q242.5 34.5 244.0 34.5Q244.5 34.5 253.75 39.5Q263.0 44.5 276.5 51.5L305.0 70.5L404.5 72.0H409.5Q427.0 72.5 440.25 72.75Q453.5 73.0 463.0 73.0Q486.0 73.0 494.5 71.25Q503.0 69.5 503.0 64.0Q503.0 60.5 500.75 55.25Q498.5 50.0 495.0 43.5L494.5 40.5Q490.5 31.5 488.0 24.0Q485.5 16.5 485.5 14.5Z" fill="black" /></svg>