<svg xmlns="http://www.w3.org/2000/svg" width="918.5" height="461.5" viewBox="0 0 918.5 461.5"><path d="M91.0 323.5 74.0 317.5Q63.5 313.0 54.0 308.5Q44.5 304.0 41.0 300.0Q39.0 298.5 38.0 297.25Q37.0 296.0 35.0 296.0Q34.5 296.0 34.0 301.0Q33.5 306.0 31.5 318.5Q31.5 324.5 31.0 329.25Q30.5 334.0 30.5 337.0Q30.0 340.0 30.0 342.5Q30.0 345.0 30.0 346.0Q33.5 345.0 40.5 342.75Q47.5 340.5 54.25 338.0Q61.0 335.5 63.0 334.5ZM193.5 313.0V293.5Q193.5 289.5 192.0 279.5Q190.5 269.5 188.0 256.75Q185.5 244.0 182.5 232.25Q179.5 220.5 176.0 212.75Q172.5 205.0 169.5 205.0Q165.5 205.0 160.75 217.0Q156.0 229.0 153.0 246.25Q150.0 263.5 150.0 280.0V313.0ZM329.5 343.5Q329.5 341.5 328.5 336.0Q327.5 330.5 326.5 324.0L324.0 309.5L305.5 322.0V321.0Q297.5 327.0 291.0 332.0Q284.5 337.0 284.5 337.0Q284.5 337.5 293.5 339.0Q302.5 340.5 313.25 341.75Q324.0 343.0 329.5 343.5ZM457.0 353.5H458.0Q458.0 348.5 455.5 337.0L453.5 320.0L436.0 333.0Q428.0 336.5 422.75 341.25Q417.5 346.0 417.5 346.5Q417.5 347.0 425.25 348.75Q433.0 350.5 442.5 352.0Q452.0 353.5 457.0 353.5ZM115.0 143.0Q113.0 141.5 105.0 137.75Q97.0 134.0 87.75 129.5Q78.5 125.0 71.5 121.75Q64.5 118.5 63.5 118.5V167.0Q70.5 164.0 77.5 161.0Q84.5 158.0 91.0 155.0ZM151.5 206.0Q151.5 206.0 149.0 205.5Q146.5 205.0 142.0 205.0Q130.5 205.0 130.5 207.0Q130.5 210.0 138.5 219.0Q139.5 222.0 140.75 223.25Q142.0 224.5 142.5 224.5Q145.0 224.5 147.5 218.0L149.5 213.0Q150.0 210.0 150.75 208.25Q151.5 206.5 151.5 206.0ZM192.0 148.5Q188.0 148.5 182.25 147.75Q176.5 147.0 173.5 146.0Q172.0 145.0 171.0 145.0Q170.0 145.0 169.5 145.0Q164.5 145.0 162.75 150.5Q161.0 156.0 161.0 169.5V186.5L206.0 189.0L204.0 169.5Q203.0 156.0 201.0 152.25Q199.0 148.5 192.0 148.5ZM202.5 213.5V214.0Q204.5 211.5 205.25 209.0Q206.0 206.5 206.0 206.0Q206.0 205.0 197.0 205.0Q187.5 205.0 187.5 207.0Q187.5 207.0 187.5 208.25Q187.5 209.5 188.0 210.5Q190.0 213.0 190.75 217.5Q191.5 222.0 191.5 223.0Q191.5 225.5 192.0 225.5Q198.0 225.5 202.5 213.5ZM237.5 237.5Q234.0 224.0 230.5 214.5Q227.0 205.0 226.5 205.0Q222.0 205.0 217.75 215.75Q213.5 226.5 210.5 243.0Q207.5 259.5 207.5 277.0V313.0L247.0 310.5V291.0Q247.0 282.5 244.25 266.75Q241.5 251.0 237.5 237.5ZM248.0 187.5 265.0 191.5V148.5H217.5V166.0Q217.5 174.5 218.75 179.75Q220.0 185.0 222.0 185.0Q224.5 185.0 232.25 185.75Q240.0 186.5 248.0 187.5ZM259.5 214.0Q261.0 211.5 261.75 209.0Q262.5 206.5 263.0 206.0Q262.5 206.0 260.25 205.5Q258.0 205.0 254.0 205.0Q243.5 205.0 243.5 209.0Q243.5 210.5 244.0 212.75Q244.5 215.0 246.5 219.0Q249.0 225.5 250.5 225.5Q254.0 225.5 259.5 214.0ZM351.5 243.0 349.0 221.5Q348.0 210.0 347.0 202.75Q346.0 195.5 346.0 195.5Q344.5 197.0 339.75 200.25Q335.0 203.5 327.5 207.0L298.0 225.5ZM458.0 208.5Q458.0 204.0 458.0 199.75Q458.0 195.5 457.0 195.5Q456.5 195.5 448.5 200.25Q440.5 205.0 430.5 212.0V211.0L410.5 225.5L463.5 243.0L462.0 238.0Q460.0 233.5 459.0 224.5Q458.0 215.5 458.0 208.5ZM723.5 241.5 714.5 237.5Q705.0 232.0 701.0 232.0Q700.0 232.0 699.75 234.0Q699.5 236.0 699.5 241.5Q699.5 250.5 702.0 250.5Q703.5 250.5 707.25 249.0Q711.0 247.5 716.0 243.5ZM801.0 297.0H844.5V245.5L799.0 247.0Q779.5 247.0 767.0 248.0Q754.5 249.0 745.0 251.5Q735.5 254.0 724.0 259.5L699.5 270.5L710.5 280.0Q720.0 287.0 729.75 290.75Q739.5 294.5 756.0 295.75Q772.5 297.0 801.0 297.0ZM826.5 185.0Q818.0 185.0 805.75 184.0Q793.5 183.0 784.0 182.5Q780.0 181.5 776.75 181.5Q773.5 181.5 769.5 181.5Q758.5 181.5 746.75 185.25Q735.0 189.0 718.5 197.5Q703.0 204.5 703.0 206.5Q703.0 206.5 703.5 207.75Q704.0 209.0 705.0 210.5Q715.0 221.0 735.5 226.0Q756.0 231.0 795.0 231.0H843.5L845.0 217.5Q846.0 212.5 846.25 208.75Q846.5 205.0 846.5 202.5Q846.5 192.5 842.0 188.75Q837.5 185.0 826.5 185.0ZM158.0 52.0V53.0Q159.0 50.5 159.5 48.75Q160.0 47.0 160.0 46.5H151.5Q143.5 46.5 143.5 49.5Q143.5 50.0 143.75 51.0Q144.0 52.0 144.0 53.0Q145.5 56.5 147.0 59.0Q148.5 61.5 149.5 61.5Q150.0 61.5 153.0 58.75Q156.0 56.0 158.0 52.0ZM192.0 69.0Q188.5 59.5 185.0 53.0Q181.5 46.5 180.0 46.5Q176.0 46.5 171.5 55.25Q167.0 64.0 164.0 76.75Q161.0 89.5 161.0 102.0Q161.0 120.5 163.0 125.0Q165.0 129.5 173.5 131.5H171.5Q175.5 132.5 179.75 132.75Q184.0 133.0 187.5 133.0H193.5Q198.0 132.0 200.5 125.5Q203.0 119.0 203.0 109.5Q203.0 101.0 200.25 89.75Q197.5 78.5 192.0 69.0ZM207.5 61.5Q209.0 61.5 212.75 55.0Q216.5 48.5 216.5 46.5H199.5Q199.5 47.5 202.5 53.0Q203.5 56.5 205.25 59.0Q207.0 61.5 207.5 61.5ZM263.5 117.5V114.5Q263.5 110.5 261.25 99.75Q259.0 89.0 255.75 76.75Q252.5 64.5 248.75 55.5Q245.0 46.5 242.0 46.5Q240.0 46.5 236.5 49.5Q233.0 52.5 228.5 56.5Q223.5 63.0 221.5 71.25Q219.5 79.5 219.5 99.5V130.5H242.0Q256.5 130.5 259.75 128.5Q263.0 126.5 263.5 117.5ZM263.5 61.5Q266.0 61.5 269.5 58.25Q273.0 55.0 275.75 51.25Q278.5 47.5 278.5 46.5H269.5Q259.5 46.5 259.5 49.0Q259.5 49.0 259.5 49.5Q259.5 50.0 260.0 51.0Q262.0 54.5 262.75 57.5Q263.5 60.5 263.5 61.5ZM394.0 87.5Q396.5 83.5 398.75 80.25Q401.0 77.0 401.5 75.0Q398.0 76.5 390.0 81.75Q382.0 87.0 372.0 94.0Q360.5 104.0 350.0 111.25Q339.5 118.5 338.5 118.5Q335.5 118.5 335.0 118.0Q336.5 119.5 342.5 122.75Q348.5 126.0 357.0 129.0L376.5 137.0L379.0 121.0Q380.0 114.0 384.75 104.0Q389.5 94.0 394.0 87.5ZM500.0 78.0Q497.0 78.5 489.0 83.5Q481.0 88.5 463.5 101.5L437.5 122.0L457.0 129.0Q465.5 133.0 473.0 135.75Q480.5 138.5 481.0 138.5Q480.5 138.5 480.25 135.25Q480.0 132.0 480.0 127.5Q480.0 120.5 483.5 110.75Q487.0 101.0 491.0 94.0Q494.0 89.0 496.75 84.5Q499.5 80.0 500.0 78.0ZM630.0 71.0Q618.5 67.5 610.75 64.5Q603.0 61.5 603.0 61.5Q602.5 62.0 601.5 70.75Q600.5 79.5 599.75 89.75Q599.0 100.0 598.5 105.5Q602.0 104.5 609.25 102.25Q616.5 100.0 624.5 98.0Q637.0 92.5 649.25 90.0Q661.5 87.5 666.5 87.0Q675.0 87.0 675.0 83.5Q675.0 82.0 667.0 82.0Q663.5 82.0 652.25 79.0Q641.0 76.0 630.0 71.0ZM722.0 177.0Q722.0 176.0 718.25 174.0Q714.5 172.0 709.5 170.0Q707.5 168.5 705.25 167.5Q703.0 166.5 701.0 166.0Q699.5 167.5 699.5 174.5Q699.5 178.0 700.5 181.5Q701.5 185.0 703.0 185.0Q708.0 185.0 715.0 182.0Q722.0 179.0 722.0 177.0ZM828.0 129.0 817.0 95.0H776.5Q764.5 95.0 746.5 95.5Q728.5 96.0 709.25 97.25Q690.0 98.5 672.75 101.0Q655.5 103.5 644.5 107.5L633.5 111.5V363.0Q673.0 374.5 713.5 377.25Q754.0 380.0 795.0 380.0Q814.0 380.0 828.5 379.25Q843.0 378.5 845.0 377.0Q847.5 376.0 848.25 366.0Q849.0 356.0 849.0 343.5V313.0H802.5Q781.0 313.0 768.0 314.0Q755.0 315.0 745.75 317.75Q736.5 320.5 725.0 326.0Q713.5 331.0 704.0 334.75Q694.5 338.5 694.0 338.5Q692.5 338.5 691.0 325.0Q689.5 311.5 688.5 288.75Q687.5 266.0 687.0 239.0Q687.0 222.0 686.5 206.75Q686.0 191.5 686.0 179.0Q686.0 161.0 686.75 149.75Q687.5 138.5 689.0 138.5Q690.5 138.5 697.0 142.0Q703.5 145.5 710.5 150.0Q718.0 155.0 726.0 158.25Q734.0 161.5 746.75 163.25Q759.5 165.0 780.5 166.0Q790.5 166.5 799.25 166.75Q808.0 167.0 815.0 167.0Q824.0 167.0 829.5 166.75Q835.0 166.5 835.5 166.0Q835.5 157.0 833.5 147.5Q831.5 138.0 828.0 129.0ZM880.5 69.0Q880.5 67.5 871.25 67.25Q862.0 67.0 849.0 67.0H819.0L824.5 82.0Q829.0 90.0 832.75 100.25Q836.5 110.5 839.0 117.5Q840.5 122.5 842.25 128.75Q844.0 135.0 845.5 139.0Q850.0 137.0 854.5 121.0Q858.5 110.0 864.0 98.0Q869.5 86.0 872.0 81.5Q876.0 77.5 878.25 73.5Q880.5 69.5 880.5 69.0ZM619.0 377.5Q619.0 376.0 616.25 373.25Q613.5 370.5 610.0 369.5Q605.5 366.5 603.0 366.5Q603.0 366.5 602.5 367.5Q602.0 368.5 602.0 370.0Q602.0 374.0 601.0 382.25Q600.0 390.5 599.0 399.0L596.5 413.5Q604.5 411.0 612.0 408.0Q619.5 405.0 628.0 403.0Q641.0 397.5 653.0 394.25Q665.0 391.0 671.5 389.5Q668.5 389.0 662.0 386.5Q654.5 384.0 647.5 382.75Q640.5 381.5 635.5 381.5Q632.0 381.5 631.5 383.0Q629.5 383.5 627.75 383.5Q626.0 383.5 624.5 383.5Q619.0 383.5 619.0 377.5ZM728.0 307.5 720.0 304.0Q712.0 298.0 707.5 298.0Q704.0 298.0 704.0 307.0Q704.0 315.0 706.5 315.0Q707.5 315.0 710.25 313.75Q713.0 312.5 717.0 311.0ZM153.5 30.0Q159.0 30.0 168.0 29.5Q177.0 29.0 186.5 29.0Q203.5 29.0 222.5 29.5Q241.5 30.0 258.5 30.5Q275.5 31.0 286.75 31.75Q298.0 32.5 299.0 33.5V34.5Q299.0 38.0 296.25 43.5Q293.5 49.0 290.0 56.5Q284.0 66.0 281.75 76.5Q279.5 87.0 279.5 103.5V133.5H293.5Q301.5 133.5 304.25 134.5Q307.0 135.5 307.0 142.5V143.0V142.5Q306.0 144.5 300.25 146.5Q294.5 148.5 289.5 148.5Q283.5 148.5 281.5 150.25Q279.5 152.0 279.5 159.0V172.5Q279.5 174.5 279.75 177.25Q280.0 180.0 280.0 182.5Q280.0 192.0 278.5 200.0Q277.0 208.0 274.5 212.0Q271.0 218.5 271.0 219.5H272.0Q277.0 219.5 289.25 212.75Q301.5 206.0 321.5 192.0Q340.0 180.5 350.25 175.0Q360.5 169.5 364.5 169.5Q369.5 169.5 369.5 174.0Q369.5 176.0 366.0 183.0Q363.5 186.5 362.5 192.25Q361.5 198.0 361.5 205.0Q361.5 215.5 363.5 225.75Q365.5 236.0 370.0 242.0Q373.5 248.0 383.25 259.75Q393.0 271.5 404.25 283.75Q415.5 296.0 424.25 304.5Q433.0 313.0 434.5 313.0Q435.5 313.0 441.0 309.0Q446.5 305.0 454.0 300.0Q461.0 295.0 466.75 291.25Q472.5 287.5 474.5 287.5H476.5V291.0Q476.5 294.0 475.25 301.0Q474.0 308.0 472.0 315.5Q471.0 320.5 470.0 324.0Q469.0 327.5 469.0 331.5Q469.0 339.0 473.75 346.75Q478.5 354.5 490.5 365.75Q502.5 377.0 523.5 395.5Q540.5 410.5 551.25 422.25Q562.0 434.0 562.0 438.0L560.0 440.0H558.5Q556.0 440.0 543.5 431.25Q531.0 422.5 516.5 410.0Q497.5 393.5 482.75 383.75Q468.0 374.0 452.25 369.0Q436.5 364.0 414.0 361.5Q401.0 359.5 392.0 356.5Q383.0 353.5 383.0 351.5Q383.0 349.0 389.25 344.0Q395.5 339.0 405.0 333.5L423.0 323.5L398.0 298.0Q387.0 286.0 371.5 275.0Q356.0 264.0 346.0 259.5Q335.0 254.5 319.0 249.5Q303.0 244.5 288.5 241.25Q274.0 238.0 266.5 238.0H263.0Q263.0 238.5 262.75 250.0Q262.5 261.5 261.5 275.5V310.5L275.5 311.5H278.5Q285.5 311.5 294.75 308.0Q304.0 304.5 316.0 296.0Q337.5 280.5 344.0 280.5Q349.0 280.5 349.0 286.0Q349.0 288.5 348.0 291.5Q347.0 294.5 346.0 298.0Q343.5 300.5 342.75 306.0Q342.0 311.5 342.0 317.0V323.5Q343.0 331.0 346.0 337.5Q349.0 344.0 358.25 353.5Q367.5 363.0 386.0 380.0Q404.0 395.5 417.75 408.0Q431.5 420.5 432.0 423.0Q432.5 423.5 432.5 426.5Q432.5 431.0 430.5 431.0Q427.0 431.0 415.5 422.5Q404.0 414.0 384.0 397.5Q365.0 380.5 350.25 371.25Q335.5 362.0 319.25 357.75Q303.0 353.5 280.0 352.0L261.5 351.5L258.0 375.0Q256.0 383.5 255.5 388.75Q255.0 394.0 253.5 394.0Q253.0 394.0 250.5 362.5L250.0 327.5H207.5V361.5Q207.5 378.0 205.25 388.75Q203.0 399.5 200.5 399.5Q197.0 399.5 195.25 388.75Q193.5 378.0 193.5 361.5V327.5H150.0V361.5Q150.0 378.0 148.5 388.75Q147.0 399.5 144.0 399.5Q140.5 399.5 139.0 388.75Q137.5 378.0 137.5 361.5Q137.5 343.0 136.5 335.25Q135.5 327.5 133.0 327.5Q128.0 327.5 117.0 330.75Q106.0 334.0 92.5 339.25Q79.0 344.5 65.75 350.75Q52.5 357.0 43.0 362.5Q36.5 366.0 28.0 369.75Q19.5 373.5 12.0 373.5Q10.0 370.0 10.0 366.5Q10.0 363.5 10.75 359.25Q11.5 355.0 14.0 350.0Q15.5 345.5 16.75 334.75Q18.0 324.0 18.0 313.0V303.0Q17.5 296.5 17.5 290.25Q17.5 284.0 17.5 279.0Q17.5 266.5 19.5 266.5Q20.5 266.5 28.0 271.75Q35.5 277.0 45.0 285.5Q55.0 292.5 69.25 298.25Q83.5 304.0 97.75 307.5Q112.0 311.0 122.5 311.5Q132.5 311.5 135.0 307.5Q137.5 303.5 137.5 293.5Q137.5 280.0 133.5 260.75Q129.5 241.5 122.5 223.0Q119.5 213.5 117.25 207.0Q115.0 200.5 115.0 195.5Q115.0 186.0 125.5 186.0Q129.5 186.0 136.0 187.5Q138.5 188.5 140.5 188.75Q142.5 189.0 143.5 189.0Q146.5 189.0 147.0 185.0Q147.5 181.0 147.5 170.0V148.5Q144.5 148.5 135.25 152.0Q126.0 155.5 114.0 161.0Q102.0 166.5 91.0 172.25Q80.0 178.0 73.0 182.5L49.5 195.5V141.0Q49.5 118.5 51.75 102.75Q54.0 87.0 55.5 87.0Q58.0 87.0 62.5 90.0Q67.0 93.0 72.0 98.5H71.0Q78.5 105.5 89.5 112.5Q100.5 119.5 112.5 123.75Q124.5 128.0 133.5 128.0Q143.0 128.0 145.25 125.75Q147.5 123.5 147.5 111.0Q147.5 104.0 143.75 90.5Q140.0 77.0 134.5 66.5Q129.5 54.5 125.75 46.0Q122.0 37.5 122.0 36.0Q122.0 34.5 131.25 32.5Q140.5 30.5 153.5 30.0ZM435.5 21.0Q439.0 16.5 442.25 13.25Q445.5 10.0 447.0 10.0Q453.5 10.0 453.5 17.5Q453.5 27.0 439.0 45.5Q431.0 55.0 422.5 67.75Q414.0 80.5 407.0 93.0Q400.0 105.5 395.75 115.5Q391.5 125.5 391.5 129.5Q391.5 133.5 393.0 136.5Q394.5 139.5 396.0 140.5Q398.5 142.5 399.0 144.75Q399.5 147.0 399.5 149.5V153.5Q400.0 156.5 404.0 162.25Q408.0 168.0 413.75 174.5Q419.5 181.0 424.5 185.5Q429.5 190.0 432.0 190.0Q434.0 190.0 440.0 186.5Q446.0 183.0 454.0 177.5Q461.0 172.5 466.75 169.25Q472.5 166.0 474.5 166.0L478.0 167.0V170.0Q478.0 173.0 476.5 179.5Q475.0 186.0 474.0 194.5Q472.5 199.5 472.0 203.75Q471.5 208.0 471.5 212.0Q471.5 222.5 477.0 234.0Q482.5 245.5 495.5 261.25Q508.5 277.0 531.0 301.5Q551.5 323.0 564.5 339.0Q577.5 355.0 577.5 358.5L576.5 361.5H576.0Q572.5 361.5 557.0 346.75Q541.5 332.0 522.0 313.0Q505.5 296.0 494.75 285.75Q484.0 275.5 476.0 269.75Q468.0 264.0 459.5 260.25Q451.0 256.5 439.0 252.5Q425.5 247.0 411.5 244.5Q397.5 242.0 392.0 242.0Q378.5 242.0 378.5 232.5Q378.5 222.5 399.5 213.0Q408.0 209.5 413.75 206.25Q419.5 203.0 419.5 202.5Q419.5 201.5 410.25 192.5Q401.0 183.5 389.5 171.5Q372.5 156.5 359.25 148.75Q346.0 141.0 330.0 137.0L295.0 126.5L328.0 106.0Q341.0 97.5 358.25 85.25Q375.5 73.0 392.0 60.0Q408.5 47.0 420.5 36.5Q432.5 26.0 435.5 21.0ZM580.0 40.5Q580.0 36.5 582.75 31.25Q585.5 26.0 590.0 26.0Q594.0 26.0 598.5 34.5Q601.5 42.0 617.0 49.5Q632.5 57.0 656.25 63.25Q680.0 69.5 707.5 73.25Q735.0 77.0 762.0 77.0H804.0L802.5 66.5L797.0 49.0L852.5 50.5Q874.0 51.0 890.5 52.25Q907.0 53.5 907.5 54.5L908.5 56.5Q908.5 62.5 898.5 71.0Q893.5 75.5 887.0 87.25Q880.5 99.0 875.5 111.0Q871.5 119.5 868.75 126.25Q866.0 133.0 864.5 142.0Q863.0 151.0 862.25 166.0Q861.5 181.0 861.25 205.75Q861.0 230.5 861.0 269.0Q860.5 305.0 859.75 335.0Q859.0 365.0 858.0 383.5Q857.0 402.0 855.5 403.0Q853.5 404.0 852.5 404.0Q849.0 404.0 849.0 397.5Q849.0 396.0 839.5 395.75Q830.0 395.5 814.0 395.5Q804.5 395.5 785.75 396.25Q767.0 397.0 743.0 398.75Q719.0 400.5 694.0 403.75Q669.0 407.0 646.75 412.25Q624.5 417.5 608.5 425.0Q592.5 432.5 587.5 442.5Q582.5 451.5 579.0 451.5Q575.0 451.5 575.0 443.0Q575.0 439.0 576.25 432.0Q577.5 425.0 580.0 416.0Q584.5 403.5 586.0 393.0Q587.5 382.5 587.5 375.0Q587.5 368.0 586.5 362.5Q585.5 357.0 583.0 352.0Q581.5 350.0 581.25 348.0Q581.0 346.0 581.0 344.0Q581.0 338.5 586.5 334.5Q591.0 330.0 594.0 330.0Q597.0 330.0 597.0 337.0Q597.0 342.0 604.75 348.0Q612.5 354.0 618.0 354.0Q618.5 354.0 618.75 337.75Q619.0 321.5 619.0 294.75Q619.0 268.0 619.0 236.0Q619.0 201.5 618.75 175.0Q618.5 148.5 617.75 133.5Q617.0 118.5 615.5 118.5Q614.5 118.5 608.5 122.25Q602.5 126.0 596.5 130.5Q590.0 135.5 585.25 139.0Q580.5 142.5 578.5 142.5H576.5Q576.0 141.5 575.5 140.0Q575.0 138.5 575.0 137.5Q575.0 134.0 576.5 126.25Q578.0 118.5 580.0 109.0Q584.5 95.5 586.0 84.5Q587.5 73.5 587.5 65.0Q587.5 51.0 584.0 49.0Q583.0 47.0 581.5 44.75Q580.0 42.5 580.0 40.5ZM536.5 23.5H535.5Q540.5 19.0 544.5 14.5Q548.5 10.0 551.0 10.0Q556.5 10.0 556.5 15.0Q556.5 19.5 553.0 25.25Q549.5 31.0 543.5 38.5Q530.0 54.5 518.75 74.0Q507.5 93.5 501.0 110.75Q494.5 128.0 494.5 137.5Q494.5 143.0 498.5 143.0Q499.5 143.0 501.0 145.0Q502.5 147.0 502.5 149.5Q502.5 152.5 500.5 155.5V156.5Q500.5 160.0 505.75 167.25Q511.0 174.5 520.0 185.0Q543.5 208.0 557.0 226.25Q570.5 244.5 570.5 253.0V257.0L567.5 258.5Q565.5 258.5 560.25 253.25Q555.0 248.0 548.5 239.5Q541.5 229.0 527.75 213.25Q514.0 197.5 497.25 181.75Q480.5 166.0 464.25 154.0Q448.0 142.0 435.5 138.5Q420.5 134.5 414.0 131.75Q407.5 129.0 407.5 124.5Q407.5 120.5 412.0 117.75Q416.5 115.0 424.5 109.5Q436.0 103.5 453.25 91.5Q470.5 79.5 488.25 66.0Q506.0 52.5 519.25 40.75Q532.5 29.0 536.5 23.5Z" fill="black" /></svg>