<svg xmlns="http://www.w3.org/2000/svg" width="402.0" height="380.5" viewBox="0 0 402.0 380.5"><path d="M111.5 267.5Q102.5 270.5 92.5 272.0Q82.5 273.5 73.0 273.5Q67.0 273.5 61.25 272.75Q55.5 272.0 51.5 270.5L38.0 266.0L50.5 290.0Q56.0 299.5 60.25 308.5Q64.5 317.5 65.5 320.0Q68.0 327.5 75.5 315.0Q79.0 310.5 87.0 301.25Q95.0 292.0 102.5 284.0Q111.0 274.0 113.5 270.0Q116.0 266.0 111.5 267.5ZM254.5 309.5Q260.0 300.5 263.25 294.25Q266.5 288.0 266.0 288.0Q265.5 288.5 262.0 290.25Q258.5 292.0 253.0 294.5Q248.5 297.5 238.5 299.5Q228.5 301.5 218.5 301.5H195.5L212.0 326.0Q218.0 335.5 221.75 340.5Q225.5 345.5 229.0 345.5Q233.0 345.5 238.25 336.75Q243.5 328.0 254.5 309.5ZM122.5 99.0Q117.5 92.5 112.75 84.25Q108.0 76.0 106.0 69.5L102.5 56.0L59.5 97.5L88.0 102.5Q99.5 104.5 110.75 107.0Q122.0 109.5 126.5 110.0Q131.0 111.5 132.5 111.5Q134.5 111.5 132.0 108.75Q129.5 106.0 122.5 99.0ZM276.5 53.0Q277.5 46.0 277.75 41.0Q278.0 36.0 278.0 36.0Q278.0 36.0 269.75 40.75Q261.5 45.5 251.0 52.5L222.5 69.0L254.0 84.0Q267.0 90.0 277.0 94.5Q287.0 99.0 287.5 99.0Q288.5 99.0 286.75 94.5Q285.0 90.0 282.5 84.5Q275.0 71.0 276.5 53.0ZM104.5 33.5Q104.5 27.0 109.0 27.0Q111.0 27.0 112.25 32.75Q113.5 38.5 113.5 47.0Q113.5 56.0 116.0 65.75Q118.5 75.5 121.0 81.0Q129.0 93.5 155.5 114.5Q182.0 135.5 227.5 163.5Q247.5 176.0 261.0 186.5Q274.5 197.0 273.5 198.5Q271.0 202.5 266.5 200.0Q263.0 200.0 244.75 207.75Q226.5 215.5 203.5 227.0Q156.0 251.5 127.75 274.0Q99.5 296.5 81.5 324.5L67.0 346.5L50.5 312.0Q44.0 297.5 35.25 282.75Q26.5 268.0 21.5 261.5Q10.0 248.5 14.5 248.5Q17.5 248.5 25.25 251.0Q33.0 253.5 47.0 258.5Q57.0 261.5 63.25 263.0Q69.5 264.5 75.5 264.5Q83.0 264.5 98.0 261.5Q105.0 260.0 119.5 254.25Q134.0 248.5 152.25 240.5Q170.5 232.5 188.5 223.5L254.0 190.5L209.5 163.5Q191.0 151.5 173.75 141.5Q156.5 131.5 151.0 129.5Q139.0 124.5 120.25 119.75Q101.5 115.0 84.5 111.5Q67.5 108.0 59.0 108.0Q51.5 108.0 46.5 107.0Q41.5 106.0 41.5 105.0Q41.5 104.0 51.0 93.75Q60.5 83.5 73.0 71.0Q86.0 58.0 95.25 47.25Q104.5 36.5 104.5 33.5ZM278.0 22.5Q283.0 17.0 287.75 13.5Q292.5 10.0 294.5 11.0Q295.5 11.5 294.5 18.25Q293.5 25.0 290.5 33.5Q288.0 42.5 286.5 52.5Q285.0 62.5 287.0 69.5Q288.5 77.0 297.25 91.75Q306.0 106.5 319.0 123.75Q332.0 141.0 345.5 157.0Q359.0 173.0 369.75 183.25Q380.5 193.5 385.0 193.5Q392.0 193.5 389.5 202.5Q387.0 211.5 380.5 211.5Q377.5 211.5 365.75 219.5Q354.0 227.5 338.25 239.5Q322.5 251.5 308.25 263.75Q294.0 276.0 286.0 284.0Q279.5 291.0 271.5 302.25Q263.5 313.5 256.25 325.5Q249.0 337.5 244.25 347.0Q239.5 356.5 239.5 360.5Q239.5 370.5 235.5 370.5Q229.0 370.5 214.0 346.5Q207.5 335.0 198.25 322.0Q189.0 309.0 182.5 303.0Q176.0 296.5 172.0 291.25Q168.0 286.0 168.5 285.5Q169.0 284.5 174.5 285.25Q180.0 286.0 186.5 288.0Q193.5 290.0 201.0 291.0Q208.5 292.0 215.5 292.0Q239.0 292.0 260.5 281.0Q268.0 277.0 281.25 268.25Q294.5 259.5 309.75 248.5Q325.0 237.5 338.75 227.25Q352.5 217.0 361.25 210.0Q370.0 203.0 370.0 201.5Q370.0 199.0 362.75 190.25Q355.5 181.5 344.25 169.0Q333.0 156.5 320.75 144.0Q308.5 131.5 297.75 121.5Q287.0 111.5 281.0 108.0Q267.0 99.0 246.75 89.75Q226.5 80.5 206.0 74.0Q200.5 72.5 205.5 68.25Q210.5 64.0 230.5 53.0Q245.0 46.0 258.75 37.0Q272.5 28.0 278.0 22.5Z" fill="black" /></svg>