<svg xmlns="http://www.w3.org/2000/svg" width="479.5" height="455.5" viewBox="0 0 479.5 455.5"><path d="M97.0 327.5Q94.0 328.0 90.5 328.25Q87.0 328.5 83.5 328.5Q67.5 328.5 58.0 324.5L42.0 319.5L57.0 348.5Q63.5 359.5 68.75 370.25Q74.0 381.0 75.5 384.5Q76.5 388.0 78.0 388.0Q81.5 388.0 87.0 378.0Q91.0 372.5 101.0 361.5Q111.0 350.5 119.5 341.0Q130.0 328.5 133.0 323.75Q136.0 319.0 130.5 321.0Q126.5 322.5 116.5 324.5Q106.5 326.5 97.0 327.5ZM144.0 117.5Q138.0 110.0 132.25 99.75Q126.5 89.5 124.0 82.0L119.5 65.5L68.0 115.5L102.5 122.0Q116.0 124.5 129.75 127.25Q143.5 130.0 148.5 131.0Q154.0 132.5 156.0 132.5Q158.5 132.5 155.5 129.25Q152.5 126.0 144.0 117.5ZM330.0 62.0Q331.0 53.5 331.25 47.5Q331.5 41.5 331.5 41.5Q331.5 41.5 321.75 47.25Q312.0 53.0 299.0 61.0L264.5 81.0L302.5 99.0Q318.5 106.5 330.75 112.0Q343.0 117.5 343.5 117.5Q344.5 117.5 342.5 112.0Q340.5 106.5 337.0 100.0Q333.0 92.5 331.25 82.0Q329.5 71.5 330.0 62.0ZM303.5 372.0Q309.5 361.0 313.75 353.25Q318.0 345.5 317.0 345.5Q316.5 346.0 312.25 348.0Q308.0 350.0 301.5 353.5Q296.5 357.0 284.0 359.5Q271.5 362.0 260.0 362.0H232.0L252.0 392.0Q259.5 403.0 264.0 409.0Q268.5 415.0 272.5 415.0Q277.5 415.0 284.0 404.75Q290.5 394.5 303.5 372.0ZM122.5 38.5Q122.5 30.5 128.0 30.5Q130.0 30.5 131.75 37.75Q133.5 45.0 133.5 55.0Q133.5 66.0 136.25 77.75Q139.0 89.5 142.5 95.5Q152.0 111.0 184.0 136.0Q216.0 161.0 271.0 195.0Q294.5 210.5 311.0 223.0Q327.5 235.5 326.0 238.0Q325.0 240.0 322.5 240.5Q320.0 241.0 318.0 239.5Q313.5 239.5 291.75 248.75Q270.0 258.0 242.0 272.0Q203.5 291.5 176.0 310.0Q148.5 328.5 128.75 347.75Q109.0 367.0 94.5 390.0L77.0 416.0L57.0 374.5Q49.0 357.0 38.5 339.25Q28.0 321.5 22.0 314.0Q15.5 306.0 12.75 302.25Q10.0 298.5 13.5 298.5Q19.0 298.5 52.5 310.5Q64.0 314.0 71.75 316.0Q79.5 318.0 87.0 318.0Q101.5 318.0 119.75 312.5Q138.0 307.0 157.5 298.75Q177.0 290.5 194.5 282.0Q212.0 273.5 224.0 267.5L302.5 228.0L249.0 195.0Q234.5 185.5 219.75 177.0Q205.0 168.5 194.0 162.25Q183.0 156.0 178.5 154.5Q167.5 150.0 151.5 145.25Q135.5 140.5 119.0 136.75Q102.5 133.0 88.5 130.5Q74.5 128.0 67.0 128.0Q58.5 128.0 52.5 127.0Q46.5 126.0 46.5 124.5Q46.5 123.5 57.75 111.25Q69.0 99.0 84.5 84.0Q100.0 68.0 111.25 55.0Q122.5 42.0 122.5 38.5ZM331.5 25.0Q337.5 18.0 343.5 14.0Q349.5 10.0 351.5 11.5Q353.0 12.0 351.75 20.25Q350.5 28.5 347.0 38.5Q343.5 49.5 342.0 61.5Q340.5 73.5 342.5 82.0Q344.0 89.5 351.75 103.25Q359.5 117.0 371.5 134.0Q383.5 151.0 397.0 168.0Q410.5 185.0 423.5 199.5Q436.5 214.0 446.5 222.75Q456.5 231.5 461.0 231.5Q469.5 231.5 466.5 242.5Q463.0 253.0 455.5 253.0Q453.0 253.0 443.0 259.5Q433.0 266.0 419.0 276.5Q405.0 287.0 390.0 299.0Q375.0 311.0 362.0 322.0Q349.0 333.0 341.5 341.0Q333.5 349.5 324.0 363.0Q314.5 376.5 305.75 390.75Q297.0 405.0 291.25 416.75Q285.5 428.5 285.5 433.5Q285.5 445.5 280.5 445.5Q273.5 445.5 254.5 416.0Q246.5 402.5 235.25 386.75Q224.0 371.0 216.5 363.5Q208.5 356.0 203.75 349.75Q199.0 343.5 199.5 343.0Q200.5 341.5 206.75 342.5Q213.0 343.5 221.0 345.5Q240.0 351.0 257.0 351.0Q285.0 351.0 311.0 337.5Q320.0 332.5 335.75 321.75Q351.5 311.0 370.0 298.0Q388.5 285.0 405.0 272.75Q421.5 260.5 432.25 251.75Q443.0 243.0 443.0 241.5Q443.0 239.0 434.25 228.0Q425.5 217.0 412.0 202.25Q398.5 187.5 383.5 172.0Q368.5 156.5 355.25 144.5Q342.0 132.5 335.0 128.0Q318.0 117.0 293.75 106.25Q269.5 95.5 244.5 87.5Q238.0 85.0 244.0 80.0Q250.0 75.0 274.5 62.0Q291.5 53.5 308.25 42.5Q325.0 31.5 331.5 25.0Z" fill="black" /></svg>