<svg xmlns="http://www.w3.org/2000/svg" width="550.0" height="458.5" viewBox="0 0 550.0 458.5"><path d="M120.5 209.0Q126.0 199.5 129.0 191.0Q132.0 182.5 131.0 180.5Q130.0 175.5 125.5 182.0Q123.5 185.5 111.0 200.0Q98.5 214.5 82.0 232.0L44.0 274.5L65.0 275.5Q74.0 275.5 82.75 276.0Q91.5 276.5 94.0 276.5Q99.0 276.5 101.25 272.0Q103.5 267.5 105.0 255.5Q107.0 246.5 111.25 233.0Q115.5 219.5 120.5 209.0ZM351.0 293.5Q351.0 292.0 346.5 289.0Q342.0 286.0 335.0 282.5L318.5 274.5V290.5Q318.5 301.5 320.25 304.0Q322.0 306.5 327.0 304.5Q330.5 303.0 335.0 301.25Q339.5 299.5 343.0 299.0Q346.5 297.5 348.75 296.25Q351.0 295.0 351.0 293.5ZM234.5 74.5Q227.0 70.5 220.5 67.75Q214.0 65.0 211.5 65.0Q209.5 65.0 208.25 72.5Q207.0 80.0 207.0 91.5Q207.0 104.0 207.75 109.25Q208.5 114.5 211.0 114.5Q212.5 114.5 215.5 113.0Q219.0 112.0 230.0 107.75Q241.0 103.5 253.5 99.5L284.0 89.5L268.0 86.0Q261.5 85.0 251.5 81.5Q241.5 78.0 234.5 74.5ZM272.5 167.5 281.5 148.5H245.5L252.5 169.5Q256.0 177.5 258.25 183.0Q260.5 188.5 262.0 188.5Q263.0 187.0 266.0 181.0Q269.0 175.0 272.5 167.5ZM347.5 203.0Q344.0 201.5 340.0 199.75Q336.0 198.0 334.0 197.5Q330.5 195.0 329.0 198.25Q327.5 201.5 327.5 208.5Q327.5 215.5 328.0 218.75Q328.5 222.0 331.0 222.0Q334.5 222.0 344.0 217.5Q364.0 208.0 347.5 203.0ZM520.5 35.5Q521.5 30.5 521.25 27.0Q521.0 23.5 519.5 24.5Q518.5 24.5 509.0 25.0Q499.5 25.5 487.0 26.5L459.0 28.0L470.0 52.5Q474.5 62.5 479.25 77.0Q484.0 91.5 486.0 101.5Q490.5 122.5 494.5 122.5Q499.0 122.5 502.5 98.5Q504.0 89.0 506.5 78.5Q509.0 68.0 511.5 62.5Q513.5 56.5 516.5 49.0Q519.5 41.5 520.5 35.5ZM236.0 385.0Q227.5 381.0 221.75 379.0Q216.0 377.0 212.5 377.0Q206.5 377.0 204.5 383.0Q202.5 389.0 201.0 402.0Q199.5 413.0 199.5 421.5Q199.5 430.0 200.0 431.0Q200.0 431.0 200.25 431.25Q200.5 431.5 201.0 431.5Q204.0 431.5 214.5 425.5Q219.5 422.0 230.0 417.5Q240.5 413.0 250.5 409.5Q265.0 404.0 267.75 401.75Q270.5 399.5 265.0 397.5Q261.0 396.5 252.75 392.75Q244.5 389.0 236.0 385.0ZM232.5 138.5Q233.5 137.5 242.75 137.5Q252.0 137.5 263.75 138.25Q275.5 139.0 284.75 140.0Q294.0 141.0 295.0 142.0Q297.0 146.5 291.5 152.0Q285.0 161.5 280.75 170.5Q276.5 179.5 274.0 192.25Q271.5 205.0 270.5 225.0Q269.5 245.0 269.0 277.0Q267.5 315.0 265.75 337.25Q264.0 359.5 261.5 359.5Q260.0 358.5 259.25 338.25Q258.5 318.0 259.0 289.0Q259.5 254.5 257.5 230.25Q255.5 206.0 250.75 187.75Q246.0 169.5 237.0 153.0Q234.5 147.5 233.25 143.25Q232.0 139.0 232.5 138.5ZM520.5 13.5Q530.5 10.0 533.5 10.0Q536.0 10.0 538.5 12.5Q540.0 13.0 539.5 15.25Q539.0 17.5 538.0 20.0Q534.5 24.5 528.5 41.0Q522.5 57.5 516.25 80.25Q510.0 103.0 505.0 127.5Q500.5 150.0 497.5 185.75Q494.5 221.5 492.75 274.0Q491.0 326.5 490.5 399.5Q490.5 420.5 489.5 432.25Q488.5 444.0 486.5 444.0Q485.0 441.5 483.25 435.0Q481.5 428.5 480.5 421.0L479.0 403.0L396.5 401.0Q366.0 400.5 348.0 400.5Q330.0 400.5 318.75 401.75Q307.5 403.0 297.0 406.0Q286.5 409.0 270.5 414.0Q253.0 419.0 234.75 426.75Q216.5 434.5 208.0 438.5Q201.0 442.5 194.75 445.5Q188.5 448.5 187.5 448.5Q187.0 447.0 187.0 440.5Q187.0 434.0 189.0 426.5Q190.5 418.0 191.75 405.25Q193.0 392.5 193.5 382.0Q193.5 370.5 192.25 365.0Q191.0 359.5 187.0 354.75Q183.0 350.0 173.5 342.5Q161.5 332.5 145.25 321.5Q129.0 310.5 113.25 301.5Q97.5 292.5 87.5 289.0Q78.0 284.5 62.0 284.5Q53.0 284.5 41.5 286.0L10.0 290.0L32.5 269.0Q41.5 261.0 57.5 244.25Q73.5 227.5 92.0 207.25Q110.5 187.0 127.75 167.25Q145.0 147.5 157.25 132.5Q169.5 117.5 172.0 112.5Q179.0 99.5 183.75 98.0Q188.5 96.5 183.5 109.5Q182.5 113.5 177.25 122.25Q172.0 131.0 167.5 138.5Q162.5 146.5 152.75 164.5Q143.0 182.5 135.0 201.0Q119.5 233.5 115.5 254.0Q111.5 274.5 120.5 274.5Q127.0 274.5 125.0 285.5Q123.5 291.5 128.25 297.25Q133.0 303.0 149.5 314.5Q160.0 322.0 171.25 329.5Q182.5 337.0 187.5 339.5Q192.0 342.5 200.5 348.75Q209.0 355.0 215.5 361.5Q225.5 370.5 236.0 376.0Q246.5 381.5 263.0 384.75Q279.5 388.0 306.0 389.75Q332.5 391.5 374.0 393.0Q417.5 394.5 440.0 394.5Q459.0 394.5 468.0 393.5Q477.0 392.5 479.0 390.5Q483.0 387.0 484.5 376.5Q486.0 366.0 486.0 341.5V297.0H427.5Q406.5 297.0 393.5 297.5Q380.5 298.0 372.0 299.25Q363.5 300.5 356.0 303.5Q348.5 306.5 338.5 311.5L309.5 325.0V290.5Q309.5 272.5 310.75 264.5Q312.0 256.5 315.5 256.5Q319.0 256.5 324.0 262.5Q331.0 271.0 341.0 276.0Q351.0 281.0 369.75 283.0Q388.5 285.0 421.0 285.5L483.5 286.0L485.5 247.5L486.0 208.5L432.0 210.0Q411.0 210.5 397.25 211.5Q383.5 212.5 373.25 215.5Q363.0 218.5 353.0 223.75Q343.0 229.0 329.5 237.5Q320.5 243.5 317.5 242.0Q317.0 240.5 317.0 230.0Q317.0 219.5 317.5 205.5L319.5 172.0L338.5 186.5Q345.5 191.5 350.75 194.25Q356.0 197.0 363.5 198.25Q371.0 199.5 384.75 199.75Q398.5 200.0 423.0 200.0H487.0L484.5 155.0Q483.0 136.5 480.75 120.0Q478.5 103.5 476.0 98.5L472.5 87.0L389.5 89.0Q359.0 90.0 341.25 90.75Q323.5 91.5 311.5 93.25Q299.5 95.0 287.75 98.5Q276.0 102.0 258.0 108.5Q238.0 115.5 221.75 121.5Q205.5 127.5 202.5 128.5Q198.0 130.0 197.0 122.5Q196.0 115.0 197.5 89.0Q198.0 71.0 199.75 58.5Q201.5 46.0 202.5 46.0Q205.0 46.0 211.5 49.5Q218.0 53.0 224.5 58.0Q236.0 65.0 246.75 69.25Q257.5 73.5 272.75 75.5Q288.0 77.5 312.5 78.0Q337.0 78.5 375.5 78.0L472.5 77.0L459.0 49.0Q453.0 37.5 448.75 28.5Q444.5 19.5 444.5 19.0Q444.5 19.0 454.5 18.5Q464.5 18.0 478.0 18.0Q491.5 18.0 504.25 16.75Q517.0 15.5 520.5 13.5Z" fill="black" /></svg>