<svg xmlns="http://www.w3.org/2000/svg" width="459.0" height="383.0" viewBox="0 0 459.0 383.0"><path d="M197.5 320.5Q190.0 317.5 185.25 315.75Q180.5 314.0 177.5 314.0Q172.5 314.0 171.0 318.75Q169.5 323.5 168.0 334.5Q167.0 343.5 167.0 350.75Q167.0 358.0 167.5 358.5Q168.0 359.0 171.5 358.0Q175.0 357.0 179.5 354.0Q183.5 351.5 192.25 347.5Q201.0 343.5 209.5 340.5Q221.0 336.0 223.5 334.25Q226.0 332.5 221.5 331.0Q218.0 330.0 211.25 327.0Q204.5 324.0 197.5 320.5ZM101.5 175.0Q106.0 167.0 108.5 159.75Q111.0 152.5 110.5 151.0Q109.0 146.5 106.0 152.5Q104.0 155.0 93.75 167.0Q83.5 179.0 70.0 193.5L38.5 229.0L55.5 229.5Q63.0 229.5 70.25 230.0Q77.5 230.5 79.5 230.5Q83.5 230.5 85.5 226.75Q87.5 223.0 88.5 213.0Q90.5 206.0 94.0 194.5Q97.5 183.0 101.5 175.0ZM292.5 244.5Q292.5 243.5 288.5 241.0Q284.5 238.5 279.0 235.5L265.5 229.0V242.5Q265.5 254.5 269.0 254.5Q269.5 254.5 272.5 253.5Q279.0 251.0 286.0 249.0Q292.5 246.0 292.5 244.5ZM196.0 63.0Q182.0 55.5 177.0 55.5Q175.5 55.5 174.5 61.5Q173.5 67.5 173.5 77.5Q173.5 88.5 174.0 92.5Q174.5 96.5 176.5 96.5Q177.0 96.5 180.0 95.5Q183.0 94.5 192.25 91.0Q201.5 87.5 211.5 84.0L237.0 76.0L223.5 73.0Q218.0 72.0 209.75 69.0Q201.5 66.0 196.0 63.0ZM227.5 140.5 235.0 124.5H205.0L211.0 142.0Q213.5 148.5 215.5 153.0Q217.5 157.5 218.5 157.5Q219.5 156.5 222.0 151.5Q224.5 146.5 227.5 140.5ZM289.5 169.5Q287.0 168.5 283.5 167.0Q280.0 165.5 278.5 165.0Q273.0 162.0 273.0 174.0Q273.0 185.5 276.0 185.5Q277.5 185.5 286.5 181.5Q304.0 174.0 289.5 169.5ZM433.0 31.0Q433.5 27.0 433.25 24.0Q433.0 21.0 432.0 22.0Q431.0 22.0 423.0 22.25Q415.0 22.5 405.0 23.5L382.0 25.0L391.0 45.0Q395.0 53.5 398.75 65.25Q402.5 77.0 404.5 85.5Q408.5 103.0 411.5 103.0Q415.0 103.0 418.0 83.5Q419.0 75.5 421.25 66.75Q423.5 58.0 425.5 53.5Q427.0 48.0 429.5 42.0Q432.0 36.0 433.0 31.0ZM194.5 116.5Q195.5 115.5 203.0 115.5Q210.5 115.5 220.25 116.0Q230.0 116.5 237.75 117.5Q245.5 118.5 246.0 119.5Q248.0 122.5 243.0 127.5Q237.5 135.5 234.0 142.75Q230.5 150.0 228.75 160.5Q227.0 171.0 226.0 187.75Q225.0 204.5 224.5 231.0Q223.5 262.5 222.25 281.0Q221.0 299.5 218.5 299.5Q217.5 298.5 216.5 281.75Q215.5 265.0 216.0 241.0Q216.5 212.5 215.0 192.5Q213.5 172.5 209.5 157.25Q205.5 142.0 198.0 128.5Q196.0 124.0 195.0 120.5Q194.0 117.0 194.5 116.5ZM433.0 13.0Q441.5 10.0 443.5 10.0Q446.0 10.0 448.0 12.0Q449.0 12.5 448.5 14.5Q448.0 16.5 447.0 18.0Q444.0 21.5 439.25 35.25Q434.5 49.0 429.5 68.0Q424.5 87.0 420.0 107.5Q414.5 135.5 411.75 188.5Q409.0 241.5 408.0 332.5Q408.0 349.5 407.0 359.5Q406.0 369.5 405.0 369.5Q401.0 364.5 400.0 350.5L398.5 335.5L330.0 334.0Q304.5 333.5 289.75 333.5Q275.0 333.5 265.5 334.5Q256.0 335.5 247.5 337.75Q239.0 340.0 226.0 344.5Q211.5 349.0 196.25 355.0Q181.0 361.0 174.0 364.5Q162.0 373.0 157.5 373.0Q157.0 373.0 157.0 373.0Q157.0 373.0 157.0 373.0Q156.5 372.0 156.5 366.5Q156.5 361.0 158.5 355.0Q159.5 348.0 160.5 337.25Q161.5 326.5 162.0 318.0Q162.0 308.5 161.0 303.75Q160.0 299.0 156.5 295.25Q153.0 291.5 145.5 285.0Q135.5 276.5 122.0 267.5Q108.5 258.5 95.75 251.25Q83.0 244.0 74.5 241.0Q67.0 237.5 53.5 237.5Q50.0 237.5 45.5 237.75Q41.0 238.0 36.0 238.5L10.0 241.5L28.5 224.5Q36.0 218.0 49.25 204.0Q62.5 190.0 78.0 173.25Q93.5 156.5 107.75 140.0Q122.0 123.5 132.0 111.25Q142.0 99.0 144.0 94.5Q149.5 84.0 153.75 82.75Q158.0 81.5 154.0 92.5Q153.0 96.0 148.75 103.0Q144.5 110.0 140.5 116.5Q136.5 123.0 128.5 138.0Q120.5 153.0 113.5 168.0Q100.5 195.0 97.25 212.0Q94.0 229.0 101.5 229.0Q107.5 229.0 105.0 238.0Q104.0 243.0 108.0 247.5Q112.0 252.0 125.5 262.0Q134.5 268.0 143.75 274.25Q153.0 280.5 157.0 283.0Q161.0 285.0 167.75 290.25Q174.5 295.5 180.0 301.0Q188.5 308.5 197.25 313.0Q206.0 317.5 219.75 320.25Q233.5 323.0 255.25 324.5Q277.0 326.0 311.5 327.0Q347.0 328.5 365.5 328.5Q381.5 328.5 389.0 327.5Q396.5 326.5 398.5 325.0Q402.0 322.0 403.25 313.25Q404.5 304.5 404.5 284.5V247.5H355.5Q332.5 247.5 320.75 248.25Q309.0 249.0 301.25 251.5Q293.5 254.0 282.0 259.5L258.0 271.0V242.5Q258.0 214.0 263.0 214.0Q265.5 214.0 270.0 219.0Q276.0 226.0 284.25 230.0Q292.5 234.0 308.0 235.75Q323.5 237.5 350.5 238.0L402.0 238.5L404.5 174.0L359.5 175.5Q336.5 176.0 323.25 177.75Q310.0 179.5 299.75 184.0Q289.5 188.5 274.5 198.0Q266.5 203.5 265.0 202.0Q264.5 201.0 264.5 192.25Q264.5 183.5 265.0 172.0L266.5 144.0L282.0 156.0Q288.0 160.5 292.25 162.75Q296.5 165.0 302.75 166.0Q309.0 167.0 320.5 167.25Q332.0 167.5 352.0 167.5H405.0L403.0 130.0Q402.0 114.5 400.0 100.75Q398.0 87.0 396.0 83.5L393.0 73.5L324.0 75.0Q299.0 76.0 284.25 76.75Q269.5 77.5 259.5 79.0Q249.5 80.5 240.0 83.25Q230.5 86.0 215.5 91.5Q199.0 97.0 185.5 102.0Q172.0 107.0 169.5 108.0Q166.0 109.0 165.0 103.0Q164.0 97.0 165.0 75.0Q166.0 60.5 167.25 50.25Q168.5 40.0 169.5 40.0Q171.5 40.0 176.75 42.75Q182.0 45.5 187.5 49.5Q197.0 55.5 206.0 59.0Q215.0 62.5 227.75 64.25Q240.5 66.0 260.75 66.25Q281.0 66.5 313.0 66.0L393.0 65.5L382.0 42.0Q377.0 32.5 373.5 25.25Q370.0 18.0 370.0 17.5Q370.0 17.5 378.25 17.0Q386.5 16.5 397.5 16.5Q409.0 16.5 419.5 15.5Q430.0 14.5 433.0 13.0Z" fill="black" /></svg>