<svg xmlns="http://www.w3.org/2000/svg" width="561.5" height="455.0" viewBox="0 0 561.5 455.0"><path d="M350.5 290.5Q349.5 288.0 347.75 278.75Q346.0 269.5 343.5 259.5L341.0 234.5L291.0 284.0L317.5 290.5Q330.0 293.0 337.5 294.5Q345.0 296.0 348.5 296.0Q354.5 296.0 350.5 290.5ZM67.5 128.0Q68.0 127.0 62.5 125.75Q57.0 124.5 50.0 124.5Q34.5 124.5 33.0 128.75Q31.5 133.0 40.0 153.5L48.5 174.5L58.5 153.5Q61.5 145.0 64.5 137.5Q67.5 130.0 67.5 128.0ZM167.0 240.5 151.0 229.5Q144.5 225.0 139.25 221.5Q134.0 218.0 133.0 218.0Q132.0 218.0 131.0 224.0Q130.0 230.0 130.0 238.5Q130.0 247.5 131.0 253.5Q132.0 259.5 133.0 259.5Q133.5 259.5 139.0 257.0Q144.5 254.5 151.0 250.5ZM185.5 67.5Q193.0 52.5 187.0 52.5Q183.0 52.5 173.25 57.25Q163.5 62.0 146.0 71.5L113.5 90.0L139.0 100.5Q149.0 104.5 158.5 108.75Q168.0 113.0 171.0 115.5Q172.5 117.0 173.5 117.0Q177.0 117.0 177.0 102.0Q177.0 94.0 179.5 83.75Q182.0 73.5 185.5 67.5ZM373.0 104.0Q378.5 97.0 381.75 91.25Q385.0 85.5 384.0 85.0Q382.0 85.0 373.0 91.0Q364.0 97.0 351.5 107.0Q339.0 115.5 325.25 125.0Q311.5 134.5 305.5 138.5L289.0 147.0L309.5 150.5Q320.0 152.5 327.25 153.5Q334.5 154.5 339.5 154.5Q348.0 154.5 351.25 150.75Q354.5 147.0 356.0 138.5Q357.5 131.5 362.75 121.5Q368.0 111.5 373.0 104.0ZM474.0 165.0Q478.5 158.5 481.5 153.75Q484.5 149.0 483.0 149.0Q482.0 149.0 472.75 156.25Q463.5 163.5 450.5 174.0Q437.5 183.5 425.5 192.75Q413.5 202.0 409.5 205.0Q400.0 211.5 402.75 213.75Q405.5 216.0 427.0 217.5Q431.0 218.0 434.25 218.25Q437.5 218.5 440.0 218.5Q447.0 218.5 449.75 214.75Q452.5 211.0 456.5 200.0Q459.0 191.5 464.5 181.5Q470.0 171.5 474.0 165.0ZM101.0 371.0 122.0 348.5H56.5L58.5 376.5Q60.5 410.0 67.5 410.0Q70.5 410.0 73.5 403.0Q76.0 399.0 84.25 389.5Q92.5 380.0 101.0 371.0ZM212.5 17.5Q218.5 10.0 220.5 10.0Q222.0 10.0 223.5 14.0Q224.0 16.5 222.25 21.75Q220.5 27.0 216.5 30.5Q208.5 40.0 201.5 54.25Q194.5 68.5 191.25 82.75Q188.0 97.0 189.5 106.5Q191.0 114.5 194.0 119.5Q197.0 124.5 200.5 124.5Q203.0 124.5 206.0 127.75Q209.0 131.0 209.0 135.0Q209.0 138.5 219.0 149.25Q229.0 160.0 245.5 173.0Q261.5 185.0 277.0 198.0Q292.5 211.0 298.0 218.0Q313.0 233.0 321.0 233.0Q329.0 233.0 339.5 218.0Q344.0 211.5 348.25 207.0Q352.5 202.5 354.5 202.5Q355.5 202.5 355.75 212.0Q356.0 221.5 355.5 235.0Q354.0 251.5 355.25 263.0Q356.5 274.5 363.0 285.75Q369.5 297.0 383.5 312.0Q397.5 327.0 421.5 350.5Q435.5 364.0 447.25 376.25Q459.0 388.5 465.5 396.0Q472.0 403.5 470.5 404.5Q469.5 405.5 464.0 402.0Q458.5 398.5 444.0 385.25Q429.5 372.0 401.0 345.0Q382.0 327.0 367.5 317.5Q353.0 308.0 335.75 304.0Q318.5 300.0 291.0 298.0Q280.0 296.5 272.0 296.5Q263.5 296.5 255.0 298.75Q246.5 301.0 234.0 306.5Q221.5 312.0 200.5 322.0Q170.0 337.0 150.25 347.5Q130.5 358.0 118.25 367.25Q106.0 376.5 98.0 387.25Q90.0 398.0 82.5 413.5Q76.0 426.5 71.0 435.75Q66.0 445.0 65.0 445.0Q63.0 444.0 59.5 431.5Q56.0 419.0 50.5 403.0Q46.5 385.5 41.5 369.5Q36.5 353.5 34.0 347.5Q28.5 336.5 30.0 332.0Q31.5 327.5 40.0 331.0Q42.5 332.0 44.0 327.75Q45.5 323.5 46.25 310.5Q47.0 297.5 47.0 272.5Q47.0 246.0 46.0 229.5Q45.0 213.0 42.25 199.25Q39.5 185.5 34.0 167.5Q27.5 150.0 22.5 137.25Q17.5 124.5 15.5 124.5Q10.0 124.5 10.0 119.0Q10.0 117.0 21.5 116.0Q33.0 115.0 50.0 115.0Q66.0 115.0 77.75 115.25Q89.5 115.5 89.5 116.5Q89.5 117.0 85.0 125.0Q80.5 133.0 75.0 144.0Q70.0 153.0 67.0 160.0Q64.0 167.0 62.5 176.75Q61.0 186.5 60.75 204.25Q60.5 222.0 60.5 252.5V334.5L101.0 336.5Q116.5 337.0 126.25 336.75Q136.0 336.5 146.0 333.5Q156.0 330.5 171.75 323.5Q187.5 316.5 215.0 304.0Q266.0 280.5 290.25 265.25Q314.5 250.0 309.0 245.0Q308.5 244.0 289.75 243.75Q271.0 243.5 245.5 244.0Q222.0 244.5 206.5 245.75Q191.0 247.0 180.25 250.0Q169.5 253.0 159.75 258.75Q150.0 264.5 137.0 274.0Q130.5 279.0 125.25 281.25Q120.0 283.5 119.0 282.0Q119.0 278.5 119.0 268.75Q119.0 259.0 119.5 246.5Q120.0 234.0 120.25 222.0Q120.5 210.0 121.25 201.5Q122.0 193.0 122.5 192.5Q125.0 192.5 130.5 197.25Q136.0 202.0 142.5 209.0Q150.5 217.0 158.25 222.25Q166.0 227.5 176.5 230.0Q187.0 232.5 203.5 233.5Q220.0 234.5 245.5 234.5H298.0L285.5 220.5Q277.0 211.0 260.75 197.5Q244.5 184.0 224.5 169.5Q204.5 155.0 184.25 141.5Q164.0 128.0 147.0 118.0Q130.0 108.0 120.0 104.5Q91.5 93.5 83.0 88.25Q74.5 83.0 87.5 83.0Q92.5 83.0 105.5 77.75Q118.5 72.5 135.5 64.0Q152.5 55.5 169.0 46.5Q185.5 37.5 197.5 29.5Q209.5 21.5 212.5 17.5ZM427.0 33.5Q440.0 20.0 445.0 20.0Q447.5 20.0 447.5 23.5Q447.5 25.5 440.25 35.75Q433.0 46.0 423.0 58.0Q397.5 88.0 384.25 106.25Q371.0 124.5 367.5 135.0Q364.0 145.5 367.5 153.0Q369.0 157.0 370.25 161.5Q371.5 166.0 370.5 169.0Q370.0 171.0 374.5 176.25Q379.0 181.5 385.5 185.5L401.5 197.5L442.0 167.5Q453.0 159.0 466.25 147.75Q479.5 136.5 492.25 125.25Q505.0 114.0 513.5 106.0Q526.5 94.5 536.75 86.5Q547.0 78.5 550.0 78.5Q551.5 80.0 546.75 88.0Q542.0 96.0 533.5 106.0Q516.0 126.5 499.75 148.25Q483.5 170.0 473.5 186.25Q463.5 202.5 463.5 207.0Q463.5 216.0 468.5 220.0Q470.5 220.5 471.25 224.0Q472.0 227.5 471.0 230.0Q469.5 233.5 476.0 240.75Q482.5 248.0 495.5 258.0Q509.5 268.5 522.0 280.75Q534.5 293.0 541.0 301.75Q547.5 310.5 542.5 310.5Q541.5 310.5 532.25 303.25Q523.0 296.0 512.0 286.5Q502.5 277.0 491.5 268.25Q480.5 259.5 471.0 253.25Q461.5 247.0 456.75 245.0Q452.0 243.0 454.5 247.0Q461.0 256.5 453.25 255.25Q445.5 254.0 436.0 243.5Q428.0 235.0 419.25 231.25Q410.5 227.5 393.0 224.5L363.5 221.0L391.0 203.0L369.0 188.5Q346.0 172.5 330.5 166.25Q315.0 160.0 300.0 160.0Q293.5 160.0 285.5 159.0Q277.5 158.0 273.0 156.5Q265.0 154.5 269.0 149.75Q273.0 145.0 298.0 129.5Q316.5 117.0 336.5 103.0Q356.5 89.0 375.0 75.5Q393.5 62.0 407.25 51.0Q421.0 40.0 427.0 33.5Z" fill="black" /></svg>