<svg xmlns="http://www.w3.org/2000/svg" width="880.0" height="384.0" viewBox="0 0 880.0 384.0"><path d="M120.5 185.5Q125.0 177.5 119.0 180.0Q113.0 182.5 104.0 192.0Q99.5 197.0 88.25 207.25Q77.0 217.5 65.5 226.5L39.5 250.0L60.5 252.0Q64.5 252.5 67.75 252.75Q71.0 253.0 74.0 253.0Q95.0 253.0 95.0 234.0Q95.0 228.0 99.75 218.25Q104.5 208.5 110.5 199.25Q116.5 190.0 120.5 185.5ZM245.0 292.0Q247.5 288.0 242.0 288.0Q235.5 288.0 238.0 292.0Q242.5 294.5 245.0 292.0ZM251.0 136.5Q251.0 133.0 242.0 130.5Q235.5 129.5 233.75 131.5Q232.0 133.5 232.0 142.5Q232.0 154.5 234.0 154.5Q236.0 154.5 240.0 150.75Q244.0 147.0 247.5 142.5Q251.0 138.0 251.0 136.5ZM250.0 187.5Q254.0 178.5 252.75 176.75Q251.5 175.0 242.0 175.0Q232.0 175.0 231.0 177.25Q230.0 179.5 233.5 191.5Q237.0 204.0 240.0 204.0Q242.5 204.0 250.0 187.5ZM288.5 179.5Q281.0 170.5 275.5 170.5Q271.0 170.5 264.75 180.5Q258.5 190.5 253.0 205.5Q247.5 220.5 244.5 235.75Q241.5 251.0 242.5 261.0L244.0 277.0H301.0L302.5 257.5Q304.0 241.5 302.25 225.5Q300.5 209.5 297.0 196.75Q293.5 184.0 288.5 179.5ZM326.5 177.0Q326.5 176.0 322.25 175.5Q318.0 175.0 312.5 175.0Q298.0 175.0 301.0 180.0Q302.0 182.0 304.0 187.0Q306.0 192.0 307.0 197.5L311.5 210.0L319.0 195.0Q322.0 189.0 324.25 184.0Q326.5 179.0 326.5 177.0ZM425.0 153.0 428.0 136.5H270.5L254.5 151.0Q244.5 160.5 243.75 162.75Q243.0 165.0 249.5 165.0Q253.5 165.0 257.75 163.5Q262.0 162.0 263.5 160.0Q266.5 157.0 270.0 157.0Q274.0 157.0 278.5 160.0Q282.5 162.0 291.25 163.5Q300.0 165.0 308.0 165.0Q316.5 165.0 325.0 163.5Q333.5 162.0 337.0 160.0Q342.5 157.0 346.0 157.0Q350.0 157.0 352.0 160.0Q356.5 165.5 348.5 168.0Q343.0 170.0 336.75 180.25Q330.5 190.5 325.0 205.0Q319.5 219.5 316.0 235.0Q312.5 250.5 312.5 263.5V279.0H362.0Q383.5 279.0 398.5 277.5Q413.5 276.0 414.5 274.0Q416.0 272.0 416.75 266.0Q417.5 260.0 417.5 253.5Q417.5 248.0 419.75 241.25Q422.0 234.5 425.0 231.0Q434.5 219.5 436.25 206.0Q438.0 192.5 431.0 181.5Q426.5 174.5 424.75 167.75Q423.0 161.0 425.0 153.0ZM449.0 279.0Q442.5 276.5 436.75 273.75Q431.0 271.0 429.5 270.0Q425.5 268.0 428.0 276.0Q429.0 279.5 428.0 284.0Q427.0 288.5 423.5 292.0Q417.0 298.0 418.0 301.0Q419.0 302.0 426.25 300.75Q433.5 299.5 442.25 297.0Q451.0 294.5 457.5 292.0Q464.0 289.5 464.0 288.0Q464.0 287.0 459.5 284.5Q455.0 282.0 449.0 279.0ZM464.5 113.5Q460.0 113.5 454.75 112.0Q449.5 110.5 446.0 109.0Q437.0 104.0 434.5 106.0Q433.0 107.5 433.75 116.5Q434.5 125.5 436.25 133.75Q438.0 142.0 440.0 142.0Q441.0 141.0 447.0 137.0Q453.0 133.0 459.5 127.5Q471.0 117.5 471.75 115.5Q472.5 113.5 464.5 113.5ZM464.0 210.0Q464.0 208.0 456.5 208.0Q450.0 208.0 452.0 212.5Q453.5 215.0 457.5 215.0Q464.0 215.0 464.0 210.0ZM480.5 198.0Q482.0 196.5 479.25 195.0Q476.5 193.5 471.5 193.5Q466.0 193.5 463.25 195.0Q460.5 196.5 461.5 198.0Q464.5 203.5 471.5 203.5Q478.0 203.5 480.5 198.0ZM791.5 266.5 669.5 247.0Q636.0 241.0 605.25 236.25Q574.5 231.5 553.0 228.5Q531.5 225.5 525.5 225.0Q511.5 223.5 495.75 225.0Q480.0 226.5 468.0 230.0Q456.0 233.5 453.5 238.0Q449.5 245.0 440.0 242.5Q429.5 239.0 431.5 248.5Q433.0 254.5 440.75 261.25Q448.5 268.0 459.75 273.25Q471.0 278.5 482.0 280.5Q487.0 281.0 510.0 285.5Q533.0 290.0 567.25 296.5Q601.5 303.0 640.0 310.5Q679.0 318.0 711.25 323.75Q743.5 329.5 763.25 332.25Q783.0 335.0 784.0 334.5Q785.0 333.5 786.75 322.75Q788.5 312.0 789.5 298.5ZM783.5 102.0 780.5 80.5H758.5Q751.0 81.0 730.75 83.0Q710.5 85.0 683.25 88.0Q656.0 91.0 626.75 94.5Q597.5 98.0 571.5 101.25Q545.5 104.5 528.0 107.0Q510.5 109.5 506.5 111.0Q500.0 113.0 490.0 118.75Q480.0 124.5 469.75 131.5Q459.5 138.5 451.5 145.25Q443.5 152.0 440.5 156.0Q437.0 163.5 437.5 166.75Q438.0 170.0 445.0 175.5Q450.0 179.0 456.75 181.25Q463.5 183.5 477.5 183.5Q495.5 183.5 531.75 179.5Q568.0 175.5 634.0 167.5Q684.0 161.5 714.5 157.5Q745.0 153.5 761.0 151.0Q777.0 148.5 783.0 146.5Q789.0 144.5 789.25 142.0Q789.5 139.5 788.5 136.0Q787.5 131.5 786.0 121.5Q784.5 111.5 783.5 102.0ZM791.0 256.0V160.5L770.5 161.5Q759.0 161.5 736.5 163.75Q714.0 166.0 686.0 169.5Q658.0 173.0 629.0 177.0Q600.0 181.0 574.25 185.0Q548.5 189.0 531.0 192.5Q513.5 196.0 509.0 198.0Q491.0 206.0 497.0 209.5Q499.0 209.5 518.25 212.75Q537.5 216.0 568.0 221.0Q598.5 226.0 634.0 232.0Q670.0 237.0 701.25 242.0Q732.5 247.0 753.25 250.0Q774.0 253.0 778.0 253.5ZM826.0 64.5 837.5 37.5H771.5L778.0 50.5Q782.0 58.0 786.0 72.75Q790.0 87.5 792.75 102.5Q795.5 117.5 795.5 127.5Q795.5 143.5 799.0 143.5Q804.0 143.5 809.5 119.5Q812.0 108.0 816.75 91.75Q821.5 75.5 826.0 64.5ZM124.0 159.0Q139.0 144.5 151.5 132.25Q164.0 120.0 172.25 112.5Q180.5 105.0 182.0 105.0Q193.5 102.0 167.0 136.0Q149.5 158.0 135.25 179.0Q121.0 200.0 112.75 215.75Q104.5 231.5 104.5 238.0V262.0Q104.5 273.5 120.5 283.5Q130.0 289.0 140.25 298.5Q150.5 308.0 158.5 317.75Q166.5 327.5 169.75 334.0Q173.0 340.5 168.5 340.5Q168.0 340.5 161.0 333.75Q154.0 327.0 145.0 317.5Q137.0 308.5 121.75 296.25Q106.5 284.0 94.0 277.5Q78.5 267.5 70.5 264.25Q62.5 261.0 52.5 261.0Q49.5 261.0 45.75 261.25Q42.0 261.5 37.0 262.0Q26.0 263.0 18.0 262.5Q10.0 262.0 10.0 261.0Q10.0 259.5 19.25 251.75Q28.5 244.0 41.0 235.0Q49.5 229.0 63.5 216.75Q77.5 204.5 93.5 189.0Q109.5 173.5 124.0 159.0ZM842.5 19.0Q853.5 10.0 857.5 10.0Q861.0 10.0 866.0 13.5Q870.0 15.5 869.25 17.75Q868.5 20.0 862.0 22.5Q852.5 28.0 842.5 49.0Q832.5 70.0 824.0 102.0Q815.5 134.0 809.25 173.0Q803.0 212.0 800.0 253.5Q798.0 283.5 796.75 307.5Q795.5 331.5 795.5 337.0Q797.0 352.0 795.75 363.0Q794.5 374.0 791.0 374.0Q789.0 374.0 787.25 370.0Q785.5 366.0 785.0 361.0L783.5 348.0L644.0 320.5Q597.0 311.5 568.5 306.25Q540.0 301.0 523.75 298.75Q507.5 296.5 497.0 296.5Q488.0 296.5 474.5 298.75Q461.0 301.0 446.75 305.0Q432.5 309.0 421.25 314.5Q410.0 320.0 405.5 327.0Q401.0 333.5 398.0 333.5Q395.5 333.5 396.25 326.75Q397.0 320.0 402.5 311.5Q406.5 304.5 409.25 298.75Q412.0 293.0 412.0 292.0Q412.0 290.0 397.25 289.5Q382.5 289.0 361.0 289.5L310.0 290.5L307.0 307.5L305.0 324.0L303.5 306.0Q303.5 294.5 301.0 291.0Q298.5 287.5 290.5 286.0Q289.0 285.0 287.25 285.0Q285.5 285.0 283.0 285.0Q274.5 285.0 266.5 289.0Q259.0 293.0 249.75 303.5Q240.5 314.0 233.25 325.75Q226.0 337.5 224.0 346.0Q221.0 359.5 219.0 359.5Q217.0 359.5 215.75 343.5Q214.5 327.5 215.0 298.0Q215.0 272.5 216.25 254.5Q217.5 236.5 219.5 236.5Q223.0 236.5 223.0 241.0Q223.0 242.5 224.5 244.25Q226.0 246.0 227.5 246.0Q230.0 246.0 230.75 239.5Q231.5 233.0 230.5 224.0Q229.5 215.0 227.5 207.0Q225.5 199.0 223.0 196.5Q218.0 191.5 218.0 183.0Q218.0 175.0 213.5 175.0Q209.0 175.0 209.0 170.5Q209.0 165.0 215.5 165.0Q220.0 165.0 221.5 158.25Q223.0 151.5 223.0 130.0Q223.0 114.5 224.25 104.5Q225.5 94.5 227.5 94.5Q232.0 94.5 232.0 101.5Q232.0 104.0 235.0 109.0Q238.0 114.0 242.0 118.0Q245.5 121.5 249.75 123.25Q254.0 125.0 263.25 126.0Q272.5 127.0 290.25 127.25Q308.0 127.5 338.5 127.5Q362.5 127.5 382.5 127.0Q402.5 126.5 414.5 125.75Q426.5 125.0 426.5 124.0Q426.0 122.0 424.75 115.0Q423.5 108.0 422.0 100.0Q418.5 83.0 420.75 81.25Q423.0 79.5 434.5 91.0Q441.5 97.5 449.25 99.5Q457.0 101.5 475.0 101.5Q481.0 101.5 499.0 100.0Q517.0 98.5 542.75 95.75Q568.5 93.0 598.25 89.75Q628.0 86.5 657.25 83.25Q686.5 80.0 711.0 77.0Q735.5 74.0 751.5 71.75Q767.5 69.5 770.5 68.5Q775.0 67.0 773.0 59.75Q771.0 52.5 765.75 45.0Q760.5 37.5 755.0 35.5Q742.5 31.0 753.0 29.0Q763.5 27.0 791.5 28.0Q808.5 28.0 817.75 27.75Q827.0 27.5 832.5 25.5Q838.0 23.5 842.5 19.0Z" fill="black" /></svg>