<svg xmlns="http://www.w3.org/2000/svg" width="640.5" height="456.5" viewBox="0 0 640.5 456.5"><path d="M81.0 245.5Q76.0 237.0 72.5 230.5Q69.0 224.0 68.5 224.0Q67.0 224.0 60.5 230.5Q54.0 237.0 48.25 243.75Q42.5 250.5 42.5 252.5Q42.5 254.5 45.0 255.5Q47.5 256.5 50.5 256.5Q54.5 256.5 61.5 258.75Q68.5 261.0 75.0 264.5Q86.0 270.0 88.5 270.0Q92.0 270.0 90.0 264.5Q88.0 259.0 81.0 245.5ZM86.5 167.0Q98.0 157.0 101.0 153.0Q104.0 149.0 96.5 149.0Q93.0 149.0 86.75 149.75Q80.5 150.5 72.0 151.5Q61.0 152.5 58.75 155.5Q56.5 158.5 58.0 169.0Q59.0 176.0 60.5 180.75Q62.0 185.5 62.5 185.5Q64.0 185.5 71.0 179.75Q78.0 174.0 86.5 167.0ZM165.5 224.0Q167.5 218.5 158.0 218.5Q146.0 218.5 146.0 224.0Q146.0 229.0 154.5 229.0Q157.0 229.0 160.5 227.5Q164.0 226.0 165.5 224.0ZM162.5 175.0Q156.5 169.5 150.5 169.5Q146.0 169.5 146.0 175.0Q146.0 177.0 149.75 178.5Q153.5 180.0 158.5 180.0Q166.5 180.0 167.0 179.25Q167.5 178.5 162.5 175.0ZM173.5 269.0Q173.5 268.5 169.25 268.0Q165.0 267.5 159.5 267.5Q147.0 267.5 147.5 272.0Q150.0 274.5 157.0 274.5Q162.5 274.5 168.0 272.75Q173.5 271.0 173.5 269.0ZM236.0 189.0Q234.0 185.0 231.5 183.25Q229.0 181.5 222.5 181.5Q217.5 181.5 209.0 182.5Q200.5 183.5 187.5 185.5Q144.5 193.5 147.5 201.0Q150.5 208.5 198.0 212.0Q220.0 213.5 229.25 212.5Q238.5 211.5 239.25 206.0Q240.0 200.5 236.0 189.0ZM238.5 263.5V247.0Q238.5 234.5 235.75 232.0Q233.0 229.5 218.5 230.5Q210.0 230.5 202.75 230.75Q195.5 231.0 193.0 232.0Q190.5 232.5 182.5 234.5Q174.5 236.5 166.0 237.5Q152.0 240.0 149.75 241.75Q147.5 243.5 153.0 249.0Q157.0 252.5 169.75 255.5Q182.5 258.5 199.5 260.0ZM279.5 118.5Q258.0 107.5 244.25 102.0Q230.5 96.5 219.5 96.5Q209.5 96.5 199.5 101.25Q189.5 106.0 175.0 115.0Q161.0 124.5 151.0 132.5Q141.0 140.5 141.0 142.5Q141.0 146.5 145.75 151.75Q150.5 157.0 156.75 160.5Q163.0 164.0 167.5 164.0Q172.0 164.0 182.25 165.0Q192.5 166.0 203.5 167.0Q209.0 168.0 213.0 168.5Q217.0 169.0 219.5 169.0Q225.0 169.0 226.25 167.0Q227.5 165.0 227.5 161.5Q227.5 157.5 225.0 151.5Q222.5 145.5 218.5 141.5Q215.5 137.5 213.5 134.0Q211.5 130.5 212.0 129.0Q213.0 128.0 223.75 126.5Q234.5 125.0 248.0 124.0Q261.5 123.0 271.75 122.75Q282.0 122.5 282.0 123.5Q282.0 127.0 271.0 143.5Q267.5 150.5 263.75 157.25Q260.0 164.0 260.0 165.0Q260.0 167.0 272.5 168.0Q285.0 169.0 301.5 169.0Q319.0 169.0 330.5 170.75Q342.0 172.5 342.0 175.0Q342.0 177.5 330.0 178.75Q318.0 180.0 298.5 180.0Q278.5 180.0 269.0 180.75Q259.5 181.5 256.5 184.25Q253.5 187.0 252.0 193.0Q249.5 204.5 252.0 210.25Q254.5 216.0 265.5 217.25Q276.5 218.5 300.0 217.5Q332.5 215.5 343.0 218.25Q353.5 221.0 331.0 225.5Q324.0 227.0 309.5 228.0Q295.0 229.0 282.0 229.0Q266.0 229.0 259.0 229.75Q252.0 230.5 250.75 233.75Q249.5 237.0 249.5 245.5V261.5H298.5Q346.0 261.5 346.75 267.0Q347.5 272.5 300.0 273.5Q277.5 274.5 267.25 275.75Q257.0 277.0 254.25 279.5Q251.5 282.0 250.5 287.5Q250.0 299.5 244.0 299.5Q238.5 299.5 238.5 287.5Q238.5 280.5 237.25 278.0Q236.0 275.5 230.5 275.5Q227.5 275.5 223.5 276.0Q219.5 276.5 213.5 277.5Q202.5 278.0 187.5 281.0Q172.5 284.0 161.0 286.5Q153.0 288.5 147.5 289.5Q142.0 290.5 138.5 290.5Q127.5 290.5 136.5 278.0Q139.5 272.5 140.25 265.25Q141.0 258.0 139.75 252.0Q138.5 246.0 134.5 245.0Q129.5 243.0 134.5 227.5Q139.5 216.0 137.75 206.25Q136.0 196.5 129.5 196.5Q123.5 196.5 130.0 185.5Q132.5 181.0 133.75 172.75Q135.0 164.5 134.5 157.5L133.0 141.5L104.5 165.5Q91.0 178.0 85.5 184.25Q80.0 190.5 79.75 196.25Q79.5 202.0 81.0 213.0Q82.0 222.5 89.0 237.0Q96.0 251.5 103.0 263.0Q111.5 274.5 120.0 284.0Q128.5 293.5 143.5 305.5Q158.5 317.5 185.5 337.0Q191.5 341.5 198.5 341.5Q202.5 341.5 207.0 340.5Q211.5 339.5 218.0 337.5Q246.5 330.5 278.5 317.25Q310.5 304.0 346.5 285.0L392.0 261.0L388.0 230.5Q386.5 215.5 384.0 207.25Q381.5 199.0 374.25 190.75Q367.0 182.5 351.0 167.5Q337.0 153.5 316.5 139.25Q296.0 125.0 279.5 118.5ZM448.0 236.5Q452.0 233.5 448.25 231.0Q444.5 228.5 429.5 223.5L403.0 215.0V252.0L417.5 243.5Q424.5 239.5 430.0 238.25Q435.5 237.0 436.0 238.0Q437.0 239.0 440.75 238.75Q444.5 238.5 448.0 236.5ZM254.5 47.5Q254.5 39.5 251.0 39.5Q246.0 39.5 227.0 55.5Q210.0 69.5 207.25 76.0Q204.5 82.5 217.0 82.5Q221.5 82.5 232.75 85.75Q244.0 89.0 256.0 93.0Q268.0 97.5 277.0 100.75Q286.0 104.0 287.0 104.0Q287.0 104.0 282.5 96.75Q278.0 89.5 271.0 80.0Q264.5 70.5 259.5 60.75Q254.5 51.0 254.5 47.5ZM254.0 153.0Q258.0 141.5 257.25 139.0Q256.5 136.5 247.0 136.5Q237.5 136.5 235.75 138.75Q234.0 141.0 236.0 148.5Q241.5 165.5 245.5 165.5Q249.5 165.5 254.0 153.0ZM427.0 53.5Q429.5 44.0 426.5 44.0Q424.5 45.5 414.25 46.75Q404.0 48.0 392.5 50.0Q380.0 51.0 371.0 53.5Q362.0 56.0 361.0 57.0Q359.5 58.0 360.75 63.25Q362.0 68.5 365.0 75.0Q369.0 81.5 373.0 95.5Q377.0 109.5 379.5 123.5Q383.5 141.0 388.25 152.5Q393.0 164.0 395.0 164.0Q397.0 164.0 397.0 157.5Q397.0 154.0 400.5 140.25Q404.0 126.5 409.0 108.75Q414.0 91.0 419.0 75.5Q424.0 60.0 427.0 53.5ZM230.5 372.0Q242.5 359.0 250.5 349.25Q258.5 339.5 258.0 339.5Q255.5 339.5 247.25 341.5Q239.0 343.5 230.5 346.0Q221.5 349.5 210.5 351.75Q199.5 354.0 193.5 354.0Q177.5 354.0 180.5 362.5Q182.0 365.0 184.0 373.0Q186.0 381.0 187.5 389.5Q189.0 397.5 191.25 402.75Q193.5 408.0 195.0 408.0Q196.0 407.0 206.25 396.25Q216.5 385.5 230.5 372.0ZM247.5 20.5Q256.0 10.0 260.0 10.0Q266.5 10.0 262.0 28.0Q260.0 38.5 262.0 42.5Q264.0 46.5 271.0 48.0Q277.5 49.5 279.0 51.75Q280.5 54.0 276.5 58.5Q274.0 61.5 277.25 69.0Q280.5 76.5 292.0 91.0Q301.5 103.0 315.0 117.0Q328.5 131.0 342.0 143.75Q355.5 156.5 365.75 164.75Q376.0 173.0 379.0 173.0Q380.5 171.5 378.5 159.0Q376.5 146.5 372.5 130.0Q368.5 113.5 363.75 98.5Q359.0 83.5 355.5 76.5Q353.0 70.0 346.75 63.0Q340.5 56.0 335.5 52.5Q330.5 49.0 327.75 46.5Q325.0 44.0 325.5 43.5Q326.5 43.5 338.0 43.0Q349.5 42.5 364.5 42.0Q379.5 40.5 396.75 38.0Q414.0 35.5 423.5 32.5Q432.0 30.5 438.75 29.25Q445.5 28.0 447.5 28.0Q448.0 28.0 448.25 28.0Q448.5 28.0 448.5 28.0Q449.5 29.5 446.25 37.75Q443.0 46.0 437.5 57.0Q433.0 65.5 427.75 80.75Q422.5 96.0 417.75 114.0Q413.0 132.0 409.25 148.75Q405.5 165.5 404.0 177.5Q402.5 189.5 403.5 193.0Q404.5 196.5 415.0 202.5Q425.5 208.5 439.0 214.0Q449.5 218.0 458.5 220.5Q467.5 223.0 478.75 224.0Q490.0 225.0 507.25 225.0Q524.5 225.0 551.5 225.0Q590.0 224.0 610.25 225.25Q630.5 226.5 630.5 229.0Q630.5 231.5 620.0 233.25Q609.5 235.0 592.0 235.0Q560.0 235.0 526.5 238.0Q493.0 241.0 466.0 245.75Q439.0 250.5 426.5 256.0L403.0 266.5L400.5 352.5V438.5L397.0 381.5Q396.0 365.5 394.75 349.5Q393.5 333.5 393.0 320.5Q392.5 307.5 392.0 301.0Q392.0 291.0 391.25 286.0Q390.5 281.0 385.5 281.0Q380.5 281.0 368.5 286.75Q356.5 292.5 334.0 304.5Q315.0 314.0 294.5 329.5Q274.0 345.0 255.0 362.25Q236.0 379.5 221.75 396.25Q207.5 413.0 201.5 426.0Q192.5 446.5 187.5 446.5Q184.0 446.5 184.0 433.5Q184.0 426.0 181.75 413.5Q179.5 401.0 176.0 387.0Q172.5 373.0 168.5 360.75Q164.5 348.5 161.0 341.5Q155.0 330.0 139.75 317.0Q124.5 304.0 105.0 292.75Q85.5 281.5 66.5 274.5Q47.5 267.5 33.5 267.5H10.0L32.0 245.0Q44.0 232.5 49.0 221.75Q54.0 211.0 53.25 198.5Q52.5 186.0 46.5 168.5Q40.0 150.0 42.25 146.25Q44.5 142.5 61.0 142.5Q70.5 142.5 86.75 138.25Q103.0 134.0 121.0 127.75Q139.0 121.5 154.25 114.5Q169.5 107.5 176.0 102.0Q183.0 95.0 184.75 92.5Q186.5 90.0 183.5 91.0Q179.0 93.0 176.0 93.0Q170.5 93.0 178.5 83.75Q186.5 74.5 206.0 60.0Q219.0 49.5 231.25 37.75Q243.5 26.0 247.5 20.5Z" fill="black" /></svg>