<svg xmlns="http://www.w3.org/2000/svg" width="534.0" height="381.5" viewBox="0 0 534.0 381.5"><path d="M68.5 205.0Q64.5 198.0 61.5 192.5Q58.5 187.0 58.0 187.0Q57.0 187.0 51.75 192.5Q46.5 198.0 41.75 203.75Q37.0 209.5 37.0 211.0Q37.0 214.0 43.5 214.0Q51.0 214.0 64.0 221.0Q72.5 225.5 75.0 225.5Q77.5 225.5 75.75 220.75Q74.0 216.0 68.5 205.0ZM73.5 140.0Q83.0 131.5 85.25 128.25Q87.5 125.0 81.0 125.0Q78.0 125.0 73.0 125.5Q68.0 126.0 61.0 127.0Q52.0 128.0 50.0 130.5Q48.0 133.0 49.5 142.0Q50.5 147.5 51.75 151.5Q53.0 155.5 53.5 155.5Q54.5 155.5 60.5 150.75Q66.5 146.0 73.5 140.0ZM138.5 187.0Q141.0 182.5 132.5 182.5Q122.5 182.5 122.5 187.0Q122.5 191.5 129.5 191.5Q136.0 191.5 138.5 187.0ZM136.0 146.5Q130.0 142.0 126.5 142.0Q122.5 142.0 122.5 146.5Q122.5 151.0 133.0 151.0Q139.5 151.0 139.75 150.25Q140.0 149.5 136.0 146.5ZM145.0 224.5Q145.0 224.0 141.75 223.5Q138.5 223.0 134.0 223.0Q123.0 223.0 124.0 227.0Q125.5 229.0 132.0 229.0Q136.5 229.0 140.75 227.75Q145.0 226.5 145.0 224.5ZM192.5 309.5Q202.5 298.5 209.25 290.5Q216.0 282.5 215.0 282.5Q213.0 282.5 206.25 284.25Q199.5 286.0 192.5 288.5Q185.0 291.0 176.0 293.0Q167.0 295.0 161.5 295.0Q148.5 295.0 151.0 302.0Q152.0 304.0 153.75 310.75Q155.5 317.5 157.0 324.5Q158.0 331.0 159.75 335.25Q161.5 339.5 163.0 339.5Q164.0 338.5 172.75 329.75Q181.5 321.0 192.5 309.5ZM197.0 158.5Q195.5 155.0 193.5 153.5Q191.5 152.0 186.0 152.0Q182.0 152.0 175.0 153.0Q168.0 154.0 157.0 155.5Q121.0 162.0 123.5 168.25Q126.0 174.5 165.5 177.5Q183.5 178.5 191.25 177.5Q199.0 176.5 199.75 172.25Q200.5 168.0 197.0 158.5ZM199.0 220.0V206.0Q199.0 196.0 196.75 193.75Q194.5 191.5 182.5 192.5Q175.5 192.5 169.5 192.75Q163.5 193.0 161.0 194.0Q159.0 194.5 152.5 196.0Q146.0 197.5 139.0 198.5Q127.5 200.5 125.5 202.0Q123.5 203.5 128.0 208.0Q131.5 211.0 142.25 213.5Q153.0 216.0 167.0 217.0ZM292.0 140.5Q284.5 133.0 270.75 123.0Q257.0 113.0 241.0 103.5Q225.0 94.0 209.75 87.75Q194.5 81.5 183.5 81.5Q175.5 81.5 167.0 85.5Q158.5 89.5 146.5 97.0Q135.0 105.0 126.5 111.5Q118.0 118.0 118.0 119.5Q118.0 124.5 126.25 131.0Q134.5 137.5 140.5 137.5Q144.0 137.5 152.5 138.25Q161.0 139.0 170.0 140.0Q180.0 141.5 183.5 141.5Q187.5 141.5 188.75 140.0Q190.0 138.5 190.0 135.5Q190.0 132.0 188.0 127.25Q186.0 122.5 182.5 119.0Q180.0 115.5 178.5 112.5Q177.0 109.5 177.5 108.5Q178.5 107.5 187.25 106.5Q196.0 105.5 207.0 104.5Q218.0 103.5 226.5 103.25Q235.0 103.0 235.0 104.0Q235.0 106.5 226.0 120.5Q222.5 126.5 219.75 132.0Q217.0 137.5 217.0 138.5Q217.0 140.0 227.25 141.0Q237.5 142.0 251.0 142.0Q265.5 142.0 275.0 143.0Q284.5 144.0 284.5 146.5Q284.5 148.5 274.75 149.75Q265.0 151.0 248.5 151.0Q232.0 151.0 224.25 151.75Q216.5 152.5 214.0 154.5Q211.5 156.5 210.5 161.5Q208.5 171.0 210.25 175.75Q212.0 180.5 221.25 181.75Q230.5 183.0 250.0 182.0Q277.0 180.0 285.75 182.25Q294.5 184.5 275.5 188.5Q269.5 189.5 257.75 190.5Q246.0 191.5 235.0 191.5Q221.5 191.5 216.0 192.0Q210.5 192.5 209.25 195.25Q208.0 198.0 208.0 205.0V218.5H248.5Q288.0 218.5 288.5 223.0Q289.0 227.5 250.0 228.5Q231.5 229.0 223.0 230.0Q214.5 231.0 212.25 233.0Q210.0 235.0 209.0 239.5Q208.0 249.5 203.5 249.5Q199.0 249.5 199.0 239.5Q199.0 234.0 198.0 232.0Q197.0 230.0 192.0 230.0Q188.0 230.0 178.0 231.5Q169.0 232.0 156.75 234.25Q144.5 236.5 134.5 239.0Q122.5 242.5 116.5 242.5Q108.0 242.5 114.5 232.0Q118.5 225.0 118.0 215.25Q117.5 205.5 113.0 204.5Q108.5 203.0 113.0 190.0Q117.0 180.5 115.5 172.5Q114.0 164.5 108.5 164.5Q104.0 164.5 109.0 155.5Q111.5 151.5 112.5 144.75Q113.5 138.0 113.0 132.5L111.5 119.0L88.0 139.0Q77.0 149.0 72.25 154.25Q67.5 159.5 67.25 164.25Q67.0 169.0 68.5 178.0Q69.5 186.0 75.25 197.75Q81.0 209.5 87.0 219.5Q94.0 229.0 101.0 237.0Q108.0 245.0 120.5 254.75Q133.0 264.5 155.0 281.0Q159.0 284.5 166.0 284.5Q171.5 284.5 182.0 281.5Q205.5 275.5 232.0 264.5Q258.5 253.5 288.5 238.0L326.0 218.0L323.0 192.5Q321.5 180.5 319.5 173.75Q317.5 167.0 311.5 160.0Q305.5 153.0 292.0 140.5ZM372.5 197.5Q376.5 195.0 373.25 193.0Q370.0 191.0 357.5 186.5L335.0 179.5V210.5L347.5 203.5Q353.0 200.0 357.5 199.0Q362.0 198.0 362.5 199.0Q366.0 201.5 372.5 197.5ZM212.5 41.0Q212.5 34.5 209.5 34.5Q204.5 34.5 189.5 47.5Q175.5 59.5 173.25 64.75Q171.0 70.0 181.0 70.0Q185.0 70.0 194.5 72.5Q204.0 75.0 213.5 79.0Q223.5 82.5 231.0 85.25Q238.5 88.0 239.0 88.0Q239.0 88.0 235.25 82.0Q231.5 76.0 226.0 68.0Q220.5 60.0 216.5 52.25Q212.5 44.5 212.5 41.0ZM212.0 128.5Q215.5 119.0 214.75 117.0Q214.0 115.0 206.0 115.0Q198.0 115.0 196.5 116.75Q195.0 118.5 197.0 125.0Q201.0 139.0 205.0 139.0Q208.5 139.0 212.0 128.5ZM355.0 46.0Q357.5 38.5 354.5 38.5Q352.5 39.0 344.5 40.25Q336.5 41.5 326.5 43.0Q316.5 44.0 308.75 46.0Q301.0 48.0 300.5 49.0Q299.5 49.5 300.5 54.0Q301.5 58.5 304.0 64.0Q307.0 69.0 310.5 80.75Q314.0 92.5 316.0 104.0Q319.5 118.5 323.25 128.0Q327.0 137.5 329.0 137.5Q330.5 137.5 330.5 132.5Q330.5 129.5 333.25 118.0Q336.0 106.5 340.25 92.0Q344.5 77.5 348.5 64.5Q352.5 51.5 355.0 46.0ZM206.5 19.0Q213.5 10.0 217.0 10.0Q222.5 10.0 218.5 25.0Q217.0 33.5 218.5 36.75Q220.0 40.0 226.0 41.5Q236.0 43.5 230.5 50.0Q228.5 52.5 231.25 58.75Q234.0 65.0 243.5 77.0Q251.5 86.5 262.5 98.25Q273.5 110.0 284.75 120.75Q296.0 131.5 304.5 138.25Q313.0 145.0 315.5 145.0Q316.5 143.5 314.75 133.5Q313.0 123.5 309.75 109.5Q306.5 95.5 302.75 83.25Q299.0 71.0 296.0 65.0Q294.0 59.5 288.75 53.75Q283.5 48.0 279.5 45.5Q270.0 39.0 271.0 38.0Q272.0 38.0 281.5 37.5Q291.0 37.0 303.5 36.5Q316.0 35.5 330.0 33.25Q344.0 31.0 352.0 29.0Q365.5 25.0 372.0 25.0Q372.5 25.0 372.75 25.0Q373.0 25.0 373.0 25.0Q374.0 26.0 371.0 33.0Q368.0 40.0 364.0 49.0Q359.5 58.0 354.0 75.0Q348.5 92.0 344.0 110.75Q339.5 129.5 337.0 143.75Q334.5 158.0 335.5 161.5Q336.5 164.5 345.25 169.5Q354.0 174.5 365.0 179.0Q376.5 183.5 386.25 185.5Q396.0 187.5 412.0 187.75Q428.0 188.0 458.0 188.0Q490.0 187.0 507.0 188.0Q524.0 189.0 524.0 191.5Q524.0 193.5 515.0 194.75Q506.0 196.0 491.5 196.0Q465.0 196.0 437.25 198.5Q409.5 201.0 387.25 205.0Q365.0 209.0 354.5 213.5L335.0 222.5L333.5 293.5V365.0L330.5 317.5Q328.5 298.0 327.5 278.5Q326.5 259.0 326.0 251.0Q326.0 242.5 325.25 238.5Q324.5 234.5 320.5 234.5Q316.5 234.5 306.75 239.25Q297.0 244.0 278.0 254.0Q262.5 262.0 245.5 274.5Q228.5 287.0 212.75 301.5Q197.0 316.0 185.25 330.0Q173.5 344.0 168.5 354.5Q161.0 371.5 157.0 371.5Q154.0 371.5 154.0 360.5Q154.0 352.5 151.0 337.25Q148.0 322.0 143.5 307.0Q139.0 292.0 134.5 284.5Q129.5 275.0 117.0 264.25Q104.5 253.5 88.5 244.25Q72.5 235.0 56.75 229.0Q41.0 223.0 29.5 223.0H10.0L28.0 204.5Q42.5 189.0 44.75 176.0Q47.0 163.0 40.0 141.5Q34.5 126.0 36.5 122.75Q38.5 119.5 52.0 119.5Q60.0 119.5 73.5 116.0Q87.0 112.5 102.0 107.25Q117.0 102.0 129.5 96.25Q142.0 90.5 147.5 86.0Q159.0 75.5 153.5 77.0Q149.0 78.5 147.5 78.5Q142.5 78.5 149.25 71.0Q156.0 63.5 172.0 51.5Q183.0 42.5 193.0 33.0Q203.0 23.5 206.5 19.0Z" fill="black" /></svg>