<svg xmlns="http://www.w3.org/2000/svg" width="954.5" height="382.5" viewBox="0 0 954.5 382.5"><path d="M445.0 344.0 422.0 336.0Q411.0 332.0 404.25 330.0Q397.5 328.0 394.0 328.0Q389.5 328.0 389.25 331.75Q389.0 335.5 389.5 343.5Q392.0 360.0 397.0 357.5Q399.5 357.0 407.25 354.5Q415.0 352.0 424.0 350.0ZM123.5 176.0Q130.5 167.0 134.25 159.5Q138.0 152.0 137.0 152.0Q135.0 152.0 119.5 164.25Q104.0 176.5 84.5 193.5L35.0 234.5L65.0 237.5Q76.5 239.5 86.25 239.5Q96.0 239.5 98.0 239.0Q99.0 238.0 101.0 232.0Q103.0 226.0 104.0 219.5Q105.0 211.5 111.0 198.75Q117.0 186.0 123.5 176.0ZM230.5 227.0 208.0 215.0Q198.5 210.5 191.75 207.25Q185.0 204.0 184.0 204.0Q183.5 204.0 183.0 210.0Q182.5 216.0 182.5 225.0Q182.5 234.0 183.25 240.25Q184.0 246.5 185.0 246.5Q185.5 246.5 192.25 243.5Q199.0 240.5 208.0 236.0ZM419.0 279.0Q412.5 274.5 409.5 274.5Q405.5 274.5 405.5 284.0Q405.5 290.5 407.0 291.25Q408.5 292.0 415.0 288.5Q421.5 285.0 422.25 283.0Q423.0 281.0 419.0 279.0ZM255.5 140.0 263.5 128.0H225.5L233.0 140.0Q237.0 145.0 239.25 148.0Q241.5 151.0 243.5 151.0Q247.0 151.0 255.5 140.0ZM334.0 137.0Q337.5 131.0 335.5 129.5Q333.5 128.0 322.0 128.0H305.5L313.0 140.0Q319.0 149.0 323.0 149.0Q328.0 149.0 334.0 137.0ZM416.5 135.5Q410.0 133.0 408.0 133.0Q405.5 133.0 405.5 140.0Q405.5 146.5 409.5 146.5Q412.5 146.5 418.0 142.5Q422.0 140.0 422.0 138.75Q422.0 137.5 416.5 135.5ZM416.5 183.0Q410.5 180.0 408.0 180.0Q405.5 180.0 405.5 187.5Q405.5 194.0 411.5 194.0Q419.5 194.0 421.25 189.5Q423.0 185.0 416.5 183.0ZM416.5 230.0Q410.0 227.5 408.0 227.5Q405.5 227.5 405.5 234.5Q405.5 241.5 411.5 241.5Q419.5 241.5 421.25 237.25Q423.0 233.0 416.5 230.0ZM632.0 218.0Q632.0 217.0 622.25 216.5Q612.5 216.0 599.0 216.0L566.0 215.0V233.0Q566.0 240.5 566.5 245.75Q567.0 251.0 568.0 251.0Q570.0 251.0 580.0 246.25Q590.0 241.5 602.0 235.25Q614.0 229.0 623.0 224.0Q632.0 219.0 632.0 218.0ZM335.0 70.5 315.5 59.0Q307.0 54.5 300.0 51.25Q293.0 48.0 291.5 48.0Q289.5 48.0 288.25 53.25Q287.0 58.5 287.0 66.5Q287.0 85.5 293.5 85.5Q300.0 85.5 303.5 81.0Q304.5 79.0 309.5 76.75Q314.5 74.5 320.5 73.5ZM539.0 44.0Q532.5 39.5 527.0 36.5Q521.5 33.5 521.0 33.5Q520.5 33.5 517.25 39.75Q514.0 46.0 510.0 54.5Q506.0 63.0 503.0 70.0Q500.0 77.0 500.0 78.5Q500.0 81.0 509.0 81.0Q513.0 81.0 515.75 78.5Q518.5 76.0 518.5 73.5Q518.5 69.5 524.25 68.0Q530.0 66.5 546.5 66.0Q563.5 66.0 566.75 65.0Q570.0 64.0 564.5 60.5Q560.5 58.0 553.25 53.25Q546.0 48.5 539.0 44.0ZM569.0 96.0Q571.5 88.5 569.25 87.0Q567.0 85.5 556.0 85.5Q546.0 85.5 544.0 87.0Q542.0 88.5 544.0 96.0Q546.0 100.5 547.5 107.25Q549.0 114.0 550.0 119.0Q552.5 132.5 556.0 132.5Q560.5 132.5 563.0 119.0Q564.0 114.0 565.5 107.25Q567.0 100.5 569.0 96.0ZM597.5 75.0Q600.0 71.0 594.5 71.0Q589.5 71.0 590.5 75.0Q595.0 76.0 597.5 75.0ZM646.0 85.5Q640.0 84.0 633.75 82.75Q627.5 81.5 624.5 81.5Q620.0 81.5 610.5 82.5Q601.0 83.5 592.25 86.0Q583.5 88.5 581.0 93.5Q579.0 98.0 575.5 109.25Q572.0 120.5 568.75 134.0Q565.5 147.5 563.0 160.0Q560.5 172.5 560.0 180.0Q559.5 191.0 562.0 194.5Q564.5 198.0 577.0 203.0Q583.0 205.0 588.25 206.25Q593.5 207.5 601.0 207.5Q615.0 207.5 650.5 202.5Q669.0 199.5 694.5 195.25Q720.0 191.0 748.25 186.25Q776.5 181.5 803.75 176.5Q831.0 171.5 852.75 167.5Q874.5 163.5 887.5 161.0Q900.5 158.5 899.5 158.0Q899.5 157.0 883.25 152.25Q867.0 147.5 840.0 139.75Q813.0 132.0 780.5 123.5Q748.5 114.5 719.25 106.25Q690.0 98.0 670.25 92.5Q650.5 87.0 646.0 85.5ZM179.0 95.0Q185.0 87.0 190.75 81.25Q196.5 75.5 197.5 75.5Q203.0 75.5 197.0 87.0Q191.0 98.5 177.5 114.5Q161.0 134.5 146.75 156.75Q132.5 179.0 123.25 198.25Q114.0 217.5 111.75 229.5Q109.5 241.5 116.5 241.5Q121.5 241.5 119.5 246.0Q116.0 252.0 122.5 261.0Q129.0 270.0 150.5 286.5Q165.0 298.0 177.25 310.25Q189.5 322.5 196.0 332.0Q202.5 341.5 200.0 344.0Q198.0 346.0 193.0 341.5Q188.0 337.0 182.0 330.0Q177.0 324.0 164.75 313.0Q152.5 302.0 137.25 290.0Q122.0 278.0 107.75 267.5Q93.5 257.0 84.5 252.0Q80.0 249.5 69.25 248.0Q58.5 246.5 47.0 246.5Q16.5 246.5 13.25 241.75Q10.0 237.0 29.5 223.5Q39.0 217.5 55.0 205.0Q71.0 192.5 90.0 176.5Q109.0 160.5 127.25 144.25Q145.5 128.0 159.5 114.75Q173.5 101.5 179.0 95.0ZM291.5 120.0Q291.5 118.5 298.25 118.0Q305.0 117.5 314.5 117.5Q317.5 117.5 320.5 117.5Q323.5 117.5 326.5 117.5Q352.0 118.5 359.5 121.75Q367.0 125.0 355.0 129.5Q344.5 133.5 337.0 151.5Q329.5 169.5 329.5 190.5V218.0H394.0L395.0 168.0Q395.0 147.0 396.0 131.75Q397.0 116.5 397.5 115.5Q399.5 115.5 404.75 117.75Q410.0 120.0 416.5 123.5Q424.5 127.0 432.5 129.0Q440.5 131.0 452.5 131.75Q464.5 132.5 484.0 132.5Q506.0 132.5 519.5 134.0Q533.0 135.5 533.0 137.0Q533.0 139.0 521.25 140.75Q509.5 142.5 491.0 142.5Q466.5 142.5 452.75 144.25Q439.0 146.0 427.0 151.5Q418.0 155.0 411.75 158.75Q405.5 162.5 405.5 163.5Q405.5 164.0 409.5 166.75Q413.5 169.5 419.0 173.0Q426.0 177.0 441.25 178.5Q456.5 180.0 483.5 180.0Q505.5 180.0 519.25 181.25Q533.0 182.5 533.0 185.0Q533.0 187.0 522.0 188.25Q511.0 189.5 494.0 189.5Q475.5 189.5 456.5 192.25Q437.5 195.0 424.0 199.25Q410.5 203.5 407.5 209.0Q406.5 210.0 410.0 213.5Q413.5 217.0 419.0 220.5Q427.0 224.0 441.75 225.5Q456.5 227.0 483.5 227.0Q504.0 227.0 518.5 228.5Q533.0 230.0 533.0 231.5Q533.0 233.5 519.5 235.25Q506.0 237.0 487.0 237.5Q464.0 238.0 447.5 241.0Q431.0 244.0 422.0 248.0L402.5 256.5L414.5 265.5Q419.0 269.5 425.0 271.5Q431.0 273.5 443.5 274.0Q456.0 274.5 479.0 274.5Q504.0 274.5 518.5 275.75Q533.0 277.0 533.0 279.5Q533.0 281.5 522.0 282.75Q511.0 284.0 494.0 284.0Q471.0 284.0 457.25 286.5Q443.5 289.0 427.0 296.0Q417.0 299.5 408.5 302.5Q400.0 305.5 397.5 305.5Q397.0 305.5 396.75 305.25Q396.5 305.0 396.5 305.0Q395.5 304.5 395.0 292.75Q394.5 281.0 395.0 265.5V227.0H329.5V246.5Q329.5 263.0 325.5 263.0Q323.0 262.0 321.5 256.0Q320.0 250.0 320.0 243.5V227.0H292.0Q273.0 227.0 263.75 228.5Q254.5 230.0 251.5 234.75Q248.5 239.5 248.5 249.5Q248.5 265.0 244.0 263.0Q239.5 259.5 239.5 248.0Q239.5 238.5 233.0 238.5Q225.5 238.5 196.0 254.0Q186.5 258.5 179.75 261.0Q173.0 263.5 173.0 261.5V222.5Q173.5 181.0 179.0 181.0Q180.5 181.0 182.0 183.5Q184.0 187.0 190.25 192.0Q196.5 197.0 204.5 201.75Q212.5 206.5 219.75 209.75Q227.0 213.0 230.0 213.0Q240.0 213.0 241.5 196.75Q243.0 180.5 234.5 160.5Q230.0 151.5 225.25 143.0Q220.5 134.5 218.0 132.5Q208.5 124.5 214.5 121.5Q220.5 118.5 246.5 118.5Q261.0 118.5 271.75 119.5Q282.5 120.5 282.5 122.0Q282.5 124.0 278.0 128.75Q273.5 133.5 268.0 138.5Q260.0 146.5 256.75 154.75Q253.5 163.0 251.5 177.5Q249.0 196.5 250.0 205.25Q251.0 214.0 259.25 216.0Q267.5 218.0 287.0 218.0H320.0V195.5Q320.0 184.0 316.5 173.0Q313.0 162.0 305.5 148.5Q300.0 138.5 295.75 130.0Q291.5 121.5 291.5 120.0ZM497.5 63.0 506.5 36.0Q515.5 10.0 520.0 10.0Q523.0 10.0 525.5 18.0Q528.5 26.5 542.25 35.25Q556.0 44.0 586.75 55.25Q617.5 66.5 671.25 82.5Q725.0 98.5 808.0 121.5Q845.5 131.5 876.5 140.25Q907.5 149.0 926.0 154.5Q944.5 160.0 944.5 161.0Q944.5 162.0 933.75 164.5Q923.0 167.0 908.0 169.5Q898.0 171.0 876.25 174.5Q854.5 178.0 827.0 182.25Q799.5 186.5 771.5 191.0Q738.0 197.0 717.0 201.25Q696.0 205.5 682.5 209.0Q669.0 212.5 658.5 217.0Q648.0 221.5 635.0 228.5Q619.5 236.0 602.25 246.0Q585.0 256.0 577.0 262.5Q567.0 270.0 562.75 274.25Q558.5 278.5 557.5 285.25Q556.5 292.0 556.0 306.5V336.0H608.5Q634.0 336.0 647.0 337.25Q660.0 338.5 658.0 341.0Q657.0 343.0 642.0 344.25Q627.0 345.5 606.5 345.5Q580.5 345.5 568.0 347.25Q555.5 349.0 554.5 351.5Q553.0 355.0 552.0 355.0Q551.0 355.0 548.5 351.5Q547.0 348.0 539.5 346.5Q532.0 345.0 520.5 345.0Q505.0 345.0 484.25 347.75Q463.5 350.5 441.75 355.25Q420.0 360.0 401.5 366.5Q394.5 369.0 389.0 370.75Q383.5 372.5 381.5 372.5Q381.0 372.5 380.75 372.5Q380.5 372.5 380.5 372.5Q380.5 371.5 380.0 362.5Q379.5 353.5 379.5 342.0Q379.5 330.5 379.5 321.5Q379.5 312.5 380.0 312.0Q380.5 310.0 389.0 312.75Q397.5 315.5 408.5 321.0Q420.0 325.5 429.75 328.5Q439.5 331.5 453.5 332.75Q467.5 334.0 491.0 335.0L547.0 337.5V236.0Q547.0 195.0 546.5 171.25Q546.0 147.5 544.25 134.0Q542.5 120.5 539.5 111.5Q535.5 98.5 532.75 94.5Q530.0 90.5 524.5 90.5Q516.0 90.5 506.5 92.75Q497.0 95.0 488.5 97.5Q483.0 99.5 481.75 98.5Q480.5 97.5 482.5 92.0Q486.5 83.0 487.5 78.25Q488.5 73.5 483.75 71.5Q479.0 69.5 465.25 69.5Q451.5 69.5 425.0 69.5Q399.5 69.5 381.75 70.5Q364.0 71.5 350.75 74.0Q337.5 76.5 326.0 81.0Q314.5 85.5 301.0 93.0Q293.0 97.5 286.5 100.75Q280.0 104.0 279.5 104.0Q278.5 104.0 278.5 96.75Q278.5 89.5 279.0 78.5Q279.5 67.5 280.25 56.5Q281.0 45.5 281.75 38.0Q282.5 30.5 283.0 30.0Q283.0 30.0 283.25 30.0Q283.5 30.0 284.0 30.0Q286.5 30.0 292.0 32.75Q297.5 35.5 304.0 41.0Q313.0 48.0 329.75 52.5Q346.5 57.0 375.75 59.0Q405.0 61.0 450.5 62.0Z" fill="black" /></svg>