<svg xmlns="http://www.w3.org/2000/svg" width="551.0" height="459.5" viewBox="0 0 551.0 459.5"><path d="M75.0 90.5 82.5 74.0H54.0Q42.0 74.0 35.75 74.0Q29.5 74.0 28.75 78.25Q28.0 82.5 31.5 94.5Q35.0 106.5 41.5 130.0L52.0 165.5L58.5 137.0Q62.0 125.0 66.75 111.5Q71.5 98.0 75.0 90.5ZM185.5 195.0 197.5 175.5H142.0L149.5 189.5Q152.5 196.0 156.75 205.75Q161.0 215.5 162.5 222.5L168.5 241.5L171.5 227.5Q173.0 222.0 177.5 212.5Q182.0 203.0 185.5 195.0ZM144.0 31.5Q142.5 30.5 140.0 29.25Q137.5 28.0 135.0 28.0Q131.5 28.0 130.0 33.0Q128.5 38.0 128.5 50.5Q128.5 73.0 133.5 73.0Q136.0 73.0 140.5 68.5Q141.5 67.5 150.25 63.25Q159.0 59.0 169.5 56.0L194.5 48.0L170.0 42.5Q160.5 40.0 152.75 36.75Q145.0 33.5 144.0 31.5ZM304.0 148.0 273.0 133.0Q259.5 126.0 249.5 121.0Q239.5 116.0 238.0 115.5Q237.0 115.0 236.75 123.5Q236.5 132.0 237.0 143.5Q237.5 155.0 238.5 165.25Q239.5 175.5 241.0 179.0Q241.5 181.5 243.5 181.5Q247.0 181.5 256.0 173.0Q261.5 167.5 270.5 161.75Q279.5 156.0 287.0 153.5ZM287.5 244.0Q279.0 240.5 269.0 235.25Q259.0 230.0 253.0 225.5L238.0 215.5V280.5L261.0 269.5Q270.0 265.0 279.75 260.5Q289.5 256.0 295.0 254.5Q305.5 252.0 304.5 251.0Q303.5 250.0 287.5 244.0ZM513.5 195.5 523.0 179.0H493.5Q473.5 179.0 469.0 180.5Q464.5 182.0 467.0 187.5Q476.5 208.5 481.25 219.25Q486.0 230.0 488.0 237.0Q490.5 241.5 491.5 241.5Q493.0 241.5 497.0 229.0Q499.5 222.0 504.75 212.0Q510.0 202.0 513.5 195.5ZM258.0 382.0Q252.0 378.0 247.0 375.25Q242.0 372.5 241.0 372.5Q240.5 372.5 239.25 381.0Q238.0 389.5 238.0 402.0Q238.0 414.0 239.25 423.0Q240.5 432.0 241.0 432.0Q242.0 432.0 247.5 429.5Q253.0 427.0 258.5 423.5Q264.0 419.5 273.5 415.5Q283.0 411.5 291.0 409.0L309.0 403.0L290.5 397.5Q282.5 395.0 273.0 390.25Q263.5 385.5 258.0 382.0ZM11.5 68.5Q10.0 65.0 12.75 63.5Q15.5 62.0 26.5 62.0Q31.0 62.0 41.25 62.5Q51.5 63.0 63.25 63.75Q75.0 64.5 84.25 65.25Q93.5 66.0 95.0 67.0Q96.0 67.0 92.0 76.0Q88.0 85.0 82.5 97.5Q74.5 114.0 69.75 132.25Q65.0 150.5 62.75 175.25Q60.5 200.0 60.25 236.0Q60.0 272.0 61.5 325.0Q62.5 381.5 62.5 413.5Q62.5 445.5 61.0 445.5Q58.5 445.5 56.0 412.0Q53.5 378.5 52.5 325.0Q51.5 283.0 49.75 251.75Q48.0 220.5 45.5 196.75Q43.0 173.0 38.75 152.75Q34.5 132.5 27.75 112.5Q21.0 92.5 11.5 68.5ZM128.5 168.0Q128.5 167.5 141.0 166.5Q153.5 165.5 171.5 165.5Q189.0 165.5 202.0 167.0Q215.0 168.5 215.0 170.0Q215.0 173.5 207.0 180.5Q204.5 183.0 199.25 191.25Q194.0 199.5 190.0 209.0Q186.0 217.5 183.75 224.75Q181.5 232.0 180.25 243.75Q179.0 255.5 178.75 276.75Q178.5 298.0 178.5 334.5Q178.5 383.5 177.5 409.0Q176.5 434.5 174.0 434.5Q172.0 433.5 170.75 412.0Q169.5 390.5 169.5 356.5Q169.5 326.0 168.25 304.25Q167.0 282.5 164.0 265.5Q161.0 248.5 155.75 232.5Q150.5 216.5 142.0 198.0Q135.5 186.0 132.0 177.0Q128.5 168.0 128.5 168.0ZM227.0 119.0Q226.0 110.0 226.0 103.5Q226.0 97.0 227.0 97.0Q227.5 97.0 234.25 100.75Q241.0 104.5 249.0 109.5Q266.0 121.0 279.5 128.0Q293.0 135.0 308.25 138.75Q323.5 142.5 345.0 144.0Q366.5 145.5 400.0 146.5Q422.5 147.0 441.0 148.0Q459.5 149.0 470.5 150.0Q481.5 151.0 481.5 152.0Q481.5 154.0 456.75 155.25Q432.0 156.5 394.0 156.5Q357.0 156.5 334.0 157.5Q311.0 158.5 297.25 161.5Q283.5 164.5 274.25 170.75Q265.0 177.0 255.0 187.5Q245.5 197.0 244.75 200.75Q244.0 204.5 247.5 209.5Q250.5 213.5 259.5 218.75Q268.5 224.0 277.0 228.0Q285.0 231.5 292.0 233.75Q299.0 236.0 309.75 237.25Q320.5 238.5 339.25 238.75Q358.0 239.0 389.0 239.0H477.5L474.5 228.0Q473.0 224.0 469.0 215.0Q465.0 206.0 461.0 196.5Q456.0 187.5 453.25 180.25Q450.5 173.0 450.5 172.0Q450.5 171.0 462.25 170.5Q474.0 170.0 489.5 170.0Q507.0 170.0 523.25 170.75Q539.5 171.5 540.5 173.0Q541.0 173.5 537.25 179.75Q533.5 186.0 526.5 195.0Q517.0 206.5 511.5 218.25Q506.0 230.0 503.25 246.75Q500.5 263.5 500.25 288.75Q500.0 314.0 501.0 352.5Q503.0 392.0 502.5 417.0Q502.0 442.0 499.5 443.5Q499.0 443.5 499.0 443.75Q499.0 444.0 499.0 444.0Q497.0 444.0 496.25 438.75Q495.5 433.5 495.5 425.5V405.0H414.0Q380.5 405.0 358.75 405.75Q337.0 406.5 321.25 409.5Q305.5 412.5 291.0 418.25Q276.5 424.0 257.0 434.5Q246.0 439.5 238.25 444.0Q230.5 448.5 229.5 449.0Q228.5 449.5 228.25 439.75Q228.0 430.0 228.0 415.5Q228.0 401.0 228.75 386.0Q229.5 371.0 230.25 360.75Q231.0 350.5 231.5 349.5Q237.5 349.5 251.0 364.0Q261.5 374.0 271.5 380.0Q281.5 386.0 296.0 388.75Q310.5 391.5 334.75 392.25Q359.0 393.0 398.5 393.0H492.0V334.5Q491.0 311.0 489.5 290.25Q488.0 269.5 487.0 264.5L483.5 251.0L415.5 249.0Q377.0 248.0 350.75 250.75Q324.5 253.5 303.25 260.5Q282.0 267.5 258.0 280.5Q234.0 294.0 228.0 294.0Q223.5 294.0 226.0 287.0Q227.5 284.0 228.25 268.25Q229.0 252.5 229.5 230.75Q230.0 209.0 229.75 186.0Q229.5 163.0 228.75 144.75Q228.0 126.5 227.0 119.0ZM117.5 50.0Q116.5 32.5 116.0 21.25Q115.5 10.0 116.0 10.0Q117.0 10.0 123.25 12.75Q129.5 15.5 137.5 19.0Q172.0 35.5 206.0 41.25Q240.0 47.0 277.5 47.0Q299.0 47.0 320.5 47.75Q342.0 48.5 359.5 49.75Q377.0 51.0 387.25 52.5Q397.5 54.0 396.0 56.0Q396.0 57.0 386.25 57.5Q376.5 58.0 361.0 57.75Q345.5 57.5 327.0 57.0Q308.5 56.0 286.75 56.25Q265.0 56.5 245.5 57.0Q226.0 57.5 213.5 59.0Q194.5 60.5 183.25 62.5Q172.0 64.5 164.0 67.75Q156.0 71.0 146.0 77.5Q136.5 84.0 128.75 87.75Q121.0 91.5 121.0 91.5Q120.5 90.5 119.5 78.5Q118.5 66.5 117.5 50.0Z" fill="black" /></svg>