<svg xmlns="http://www.w3.org/2000/svg" width="460.0" height="384.0" viewBox="0 0 460.0 384.0"><path d="M215.5 318.0Q210.5 314.5 206.25 312.25Q202.0 310.0 201.0 310.0Q200.5 310.0 199.75 317.25Q199.0 324.5 199.0 334.5Q199.0 344.5 199.75 352.0Q200.5 359.5 201.0 359.5Q204.5 359.5 216.0 352.5Q220.5 349.0 228.5 345.75Q236.5 342.5 243.0 340.5L257.5 335.5L242.5 331.0Q236.0 329.0 228.0 325.25Q220.0 321.5 215.5 318.0ZM64.0 76.5 70.0 63.0H46.5Q36.5 63.0 31.5 63.0Q26.5 63.0 25.5 66.5Q24.5 70.0 27.5 80.0Q30.5 90.0 36.0 109.5L44.5 139.0L50.5 115.5Q53.0 105.5 57.0 94.25Q61.0 83.0 64.0 76.5ZM155.5 163.0 165.0 147.0H119.5L125.5 159.0Q128.0 164.0 131.5 172.0Q135.0 180.0 136.5 186.0L141.0 202.0L144.0 190.0Q145.0 185.5 148.5 177.5Q152.0 169.5 155.5 163.0ZM121.0 28.0Q118.0 25.0 113.5 25.0Q110.5 25.0 109.25 29.0Q108.0 33.0 108.0 43.5Q108.0 62.0 112.5 62.0Q114.5 62.0 118.0 58.5Q119.0 57.5 126.25 54.0Q133.5 50.5 142.0 48.0L163.0 41.5L142.5 37.0Q134.5 34.5 128.0 32.0Q121.5 29.5 121.0 28.0ZM253.5 124.5 227.5 112.0Q216.5 106.5 208.25 102.25Q200.0 98.0 199.0 97.5Q198.0 97.5 197.75 104.5Q197.5 111.5 198.0 121.0Q198.5 130.5 199.25 138.75Q200.0 147.0 201.0 150.0Q201.5 152.0 203.0 152.0Q206.5 152.0 214.0 145.0Q218.5 140.5 225.75 135.75Q233.0 131.0 239.5 129.0ZM240.0 203.5Q233.0 201.0 224.5 196.5Q216.0 192.0 211.0 188.5L199.0 180.0V234.0L217.5 225.0Q225.0 221.0 233.25 217.25Q241.5 213.5 246.0 212.5Q254.5 210.5 253.75 209.5Q253.0 208.5 240.0 203.5ZM427.0 163.5 434.5 150.0H410.5Q393.5 150.0 390.0 151.25Q386.5 152.5 388.5 157.0Q396.5 174.0 400.25 183.25Q404.0 192.5 406.0 198.0Q408.5 202.5 409.25 201.5Q410.0 200.5 413.5 191.5Q415.5 186.0 419.75 177.5Q424.0 169.0 427.0 163.5ZM11.0 58.5Q10.0 56.0 12.0 54.75Q14.0 53.5 23.5 53.5Q27.0 53.5 35.75 53.75Q44.5 54.0 54.5 54.5Q64.5 55.0 72.0 55.75Q79.5 56.5 80.5 57.0Q81.0 57.0 77.75 64.75Q74.5 72.5 70.0 82.5Q63.5 96.5 59.5 111.5Q55.5 126.5 53.5 146.75Q51.5 167.0 51.5 197.0Q51.5 227.0 52.5 271.0Q53.5 317.5 53.5 344.0Q53.5 370.5 52.0 370.5Q50.0 370.5 48.0 342.75Q46.0 315.0 45.0 271.0Q44.0 227.5 42.25 197.75Q40.5 168.0 37.0 145.75Q33.5 123.5 27.25 103.25Q21.0 83.0 11.0 58.5ZM108.0 141.0Q108.0 140.5 118.5 139.75Q129.0 139.0 144.0 139.0Q158.5 139.0 169.25 140.25Q180.0 141.5 180.0 142.5Q180.0 145.5 173.5 151.0Q171.5 153.0 167.25 160.0Q163.0 167.0 159.0 175.0Q156.0 182.0 154.0 188.0Q152.0 194.0 151.0 203.75Q150.0 213.5 149.75 231.0Q149.5 248.5 149.5 279.0Q149.5 361.5 145.5 361.5Q144.0 360.5 143.0 342.75Q142.0 325.0 142.0 297.0Q142.0 271.5 141.0 253.5Q140.0 235.5 137.75 221.5Q135.5 207.5 131.0 194.5Q126.5 181.5 119.5 166.0Q114.5 156.0 111.25 148.5Q108.0 141.0 108.0 141.0ZM190.0 100.0Q189.0 92.5 189.0 87.25Q189.0 82.0 190.0 82.0Q190.5 82.0 196.0 85.25Q201.5 88.5 208.0 92.5Q222.0 102.0 233.25 107.75Q244.5 113.5 257.0 116.75Q269.5 120.0 287.5 121.25Q305.5 122.5 333.0 123.0Q361.0 123.5 380.75 125.0Q400.5 126.5 400.5 127.5Q400.5 129.5 380.0 130.5Q359.5 131.5 328.0 131.5Q297.5 131.5 278.5 132.25Q259.5 133.0 248.0 135.5Q236.5 138.0 228.75 143.0Q221.0 148.0 213.0 157.0Q205.0 165.0 204.25 168.0Q203.5 171.0 207.0 175.5Q209.5 178.5 216.75 182.75Q224.0 187.0 231.0 190.5Q238.0 193.5 243.75 195.5Q249.5 197.5 258.5 198.25Q267.5 199.0 282.75 199.25Q298.0 199.5 324.0 199.5H397.5L394.5 190.5Q393.5 187.0 390.25 179.75Q387.0 172.5 383.5 164.5Q374.5 148.0 374.5 144.0Q374.5 143.0 383.75 142.75Q393.0 142.5 405.5 142.5Q420.5 142.5 434.5 143.25Q448.5 144.0 449.5 145.0Q450.0 145.5 446.5 150.5Q443.0 155.5 437.5 163.0Q430.0 172.5 425.25 182.5Q420.5 192.5 418.5 206.25Q416.5 220.0 416.25 240.75Q416.0 261.5 417.0 293.5Q418.0 326.5 417.75 347.25Q417.5 368.0 415.5 369.0Q415.5 369.0 415.25 369.0Q415.0 369.0 415.0 369.0Q412.0 369.0 412.0 354.0V337.0H344.5Q316.5 337.0 298.5 337.75Q280.5 338.5 267.75 340.75Q255.0 343.0 242.75 348.0Q230.5 353.0 214.5 361.5Q205.5 366.0 199.0 369.5Q192.5 373.0 191.5 373.5Q191.0 374.0 190.75 366.0Q190.5 358.0 190.5 345.75Q190.5 333.5 191.0 321.25Q191.5 309.0 192.25 300.25Q193.0 291.5 193.5 291.0Q193.5 291.0 193.5 291.0Q193.5 291.0 194.0 291.0Q195.0 291.0 199.75 294.25Q204.5 297.5 209.5 303.0Q218.5 311.5 226.75 316.25Q235.0 321.0 247.0 323.25Q259.0 325.5 279.0 326.25Q299.0 327.0 331.5 327.0H409.0V279.0Q408.5 259.5 407.25 242.25Q406.0 225.0 405.0 220.5L402.0 209.5L346.0 208.0Q314.0 207.0 292.25 209.25Q270.5 211.5 253.0 217.25Q235.5 223.0 215.5 234.0Q195.5 245.0 190.5 245.0Q187.0 245.0 189.0 239.5Q190.0 237.0 190.75 224.0Q191.5 211.0 191.75 192.75Q192.0 174.5 192.0 155.75Q192.0 137.0 191.5 121.75Q191.0 106.5 190.0 100.0ZM99.0 43.0Q98.0 28.5 97.5 19.25Q97.0 10.0 97.5 10.0Q98.5 10.0 103.75 12.25Q109.0 14.5 115.5 17.5Q144.0 31.0 173.0 35.75Q202.0 40.5 233.0 40.5Q256.5 40.5 279.25 41.5Q302.0 42.5 316.75 44.25Q331.5 46.0 330.0 48.0Q329.5 49.0 312.5 49.25Q295.5 49.5 272.5 49.0Q257.0 48.0 239.25 48.25Q221.5 48.5 205.25 49.0Q189.0 49.5 178.5 50.5Q163.0 51.5 153.75 53.25Q144.5 55.0 137.75 57.75Q131.0 60.5 122.5 66.0Q114.5 71.0 108.25 74.25Q102.0 77.5 102.0 77.5Q101.5 76.5 100.75 66.75Q100.0 57.0 99.0 43.0Z" fill="black" /></svg>