<svg xmlns="http://www.w3.org/2000/svg" width="585.0" height="384.0" viewBox="0 0 585.0 384.0"><path d="M105.0 201.0Q108.0 192.0 103.5 192.0Q100.5 192.0 95.0 198.0Q93.0 200.5 83.25 208.5Q73.5 216.5 62.0 225.0Q50.5 234.0 42.75 241.0Q35.0 248.0 36.0 249.0Q37.5 250.0 47.25 253.0Q57.0 256.0 68.5 258.75Q80.0 261.5 85.5 262.5Q90.5 263.0 91.75 260.25Q93.0 257.5 92.0 248.0Q91.0 233.5 96.5 221.0Q99.0 216.5 101.75 210.5Q104.5 204.5 105.0 201.0ZM138.5 304.5 139.5 268.5Q140.0 254.0 140.0 232.75Q140.0 211.5 139.5 197.0Q139.0 179.5 138.5 172.75Q138.0 166.0 135.5 166.0Q134.5 166.0 131.0 169.5Q129.0 173.0 123.0 183.75Q117.0 194.5 111.5 206.0Q102.5 226.0 100.5 239.25Q98.5 252.5 104.5 264.0Q110.5 275.5 126.0 291.5ZM182.0 198.5Q175.5 192.5 172.5 192.5Q169.5 192.5 169.5 206.0Q169.5 215.0 170.5 217.5Q171.5 220.0 176.0 219.0Q182.0 216.0 186.0 216.0Q190.5 216.0 189.5 209.75Q188.5 203.5 182.0 198.5ZM341.0 294.5Q341.0 293.5 334.75 288.25Q328.5 283.0 318.5 276.5L297.0 261.0L294.5 274.5Q293.0 285.5 292.0 294.75Q291.0 304.0 291.5 307.5Q291.5 308.5 296.0 307.5Q300.5 306.5 306.5 303.5Q312.0 301.0 319.5 299.75Q327.0 298.5 331.5 298.5Q335.5 298.5 338.25 297.0Q341.0 295.5 341.0 294.5ZM414.0 252.0Q412.5 245.5 407.5 245.5Q402.5 245.5 402.5 252.5Q402.5 261.0 408.5 258.5Q415.0 256.0 414.0 252.0ZM416.0 210.0Q416.0 207.5 413.75 206.0Q411.5 204.5 409.0 204.5Q407.0 204.5 404.75 206.0Q402.5 207.5 402.5 210.0Q402.5 216.5 410.0 215.0Q413.0 214.5 415.0 213.0Q417.0 211.5 416.0 210.0ZM490.5 210.5Q481.0 209.5 473.0 208.75Q465.0 208.0 458.0 208.0Q433.0 208.0 419.0 220.5Q403.5 233.0 411.75 237.75Q420.0 242.5 462.5 243.5L509.0 246.0V229.5Q509.0 217.5 506.75 215.0Q504.5 212.5 490.5 210.5ZM166.5 87.0Q172.0 75.5 175.25 67.5Q178.5 59.5 177.5 59.0Q177.0 58.5 170.5 58.75Q164.0 59.0 156.0 60.0Q143.0 60.5 139.75 62.0Q136.5 63.5 138.5 67.5Q139.5 70.0 141.5 77.75Q143.5 85.5 145.5 93.5Q147.0 102.0 148.5 108.0Q150.0 114.0 150.5 114.0Q151.5 114.0 156.25 106.0Q161.0 98.0 166.5 87.0ZM324.5 75.5Q324.5 74.5 321.25 73.5Q318.0 72.5 313.5 72.5Q301.5 72.5 299.5 76.25Q297.5 80.0 302.0 93.0L307.5 107.0L315.5 93.0Q324.5 80.5 324.5 75.5ZM504.0 78.5Q503.0 78.0 491.5 77.5Q480.0 77.0 462.75 76.5Q445.5 76.0 427.25 76.0Q409.0 76.0 394.75 76.0Q380.5 76.0 375.0 76.5Q362.5 78.0 356.0 80.5Q349.5 83.0 345.5 88.5Q340.5 95.5 338.5 95.5Q337.0 95.5 334.5 91.5Q333.0 88.5 331.5 88.5Q328.0 88.5 318.0 105.5L304.5 126.5V256.5L358.5 294.0H510.0L507.5 255.0L428.0 252.5L413.0 267.5Q406.5 273.0 401.25 277.5Q396.0 282.0 395.0 282.0Q394.5 282.0 394.5 269.25Q394.5 256.5 395.25 236.75Q396.0 217.0 397.0 195.0Q398.0 173.0 399.0 153.5Q400.0 134.0 401.0 123.0Q402.0 112.0 403.75 104.75Q405.5 97.5 406.5 97.5Q407.0 97.5 409.75 99.5Q412.5 101.5 416.0 104.0Q420.5 108.0 430.75 109.5Q441.0 111.0 465.5 111.0L507.5 111.5L506.0 95.0Q505.5 88.0 505.0 83.25Q504.5 78.5 504.0 78.5ZM418.5 165.5Q416.5 160.0 412.0 160.0Q407.0 160.0 407.0 166.5Q407.0 175.0 413.0 172.5Q419.5 170.0 418.5 165.5ZM374.0 64.5Q374.0 61.5 368.25 56.75Q362.5 52.0 356.0 48.75Q349.5 45.5 348.0 47.0Q346.0 49.0 345.5 54.0Q345.0 59.0 346.0 63.75Q347.0 68.5 348.5 69.5Q351.0 71.0 357.0 70.25Q363.0 69.5 368.5 67.75Q374.0 66.0 374.0 64.5ZM420.5 117.5Q420.0 116.0 418.25 115.0Q416.5 114.0 415.5 114.0Q412.0 114.0 410.0 119.5Q408.0 125.0 410.0 127.5Q413.0 130.0 418.0 125.25Q423.0 120.5 420.5 117.5ZM504.5 124.5Q502.5 123.0 491.5 122.25Q480.5 121.5 468.75 121.25Q457.0 121.0 452.0 121.0Q442.0 121.0 437.0 123.0Q432.0 125.0 425.0 130.5Q405.5 145.0 414.5 150.25Q423.5 155.5 469.5 156.5H507.5L508.5 141.0Q509.5 125.0 504.5 124.5ZM510.0 167.0H494.0Q488.0 167.0 477.25 166.0Q466.5 165.0 458.0 164.0Q448.5 163.0 443.25 163.25Q438.0 163.5 433.5 166.25Q429.0 169.0 421.5 176.0Q410.5 186.0 409.0 188.75Q407.5 191.5 414.0 195.0Q417.5 196.5 432.25 198.25Q447.0 200.0 464.0 201.0L507.5 201.5ZM546.5 26.0Q546.5 25.0 539.75 24.0Q533.0 23.0 524.0 23.0Q514.5 23.0 507.75 24.5Q501.0 26.0 501.0 27.0Q501.0 28.5 503.0 34.0Q505.0 39.5 507.5 45.0Q510.0 51.0 511.75 58.75Q513.5 66.5 513.5 70.5Q513.5 81.0 516.5 81.0Q517.5 81.0 522.25 73.5Q527.0 66.0 532.5 55.75Q538.0 45.5 542.25 36.75Q546.5 28.0 546.5 26.0ZM116.0 51.5Q116.0 51.0 128.5 50.5Q141.0 50.0 159.0 50.0Q190.5 50.0 198.0 52.25Q205.5 54.5 195.0 60.0Q192.0 61.5 184.0 73.0Q176.0 84.5 168.0 99.5L148.5 135.0V309.5L168.0 325.5Q188.5 342.5 201.5 355.75Q214.5 369.0 214.5 373.5Q214.5 374.0 214.0 374.0Q212.0 374.0 204.25 368.0Q196.5 362.0 186.5 352.5Q175.5 341.5 165.75 334.25Q156.0 327.0 153.5 327.0Q151.5 327.0 147.5 324.0Q143.5 321.0 140.0 317.0Q134.5 309.5 122.5 300.75Q110.5 292.0 95.5 283.5Q80.5 275.0 66.0 268.5Q51.5 262.0 40.5 259.5Q28.5 256.5 19.75 254.0Q11.0 251.5 10.5 251.0Q10.0 250.5 14.75 247.0Q19.5 243.5 27.0 239.0Q37.0 233.0 52.75 221.25Q68.5 209.5 85.0 195.75Q101.5 182.0 114.25 170.0Q127.0 158.0 131.0 152.0Q138.5 141.0 139.75 123.5Q141.0 106.0 136.5 88.5Q132.0 71.0 122.0 60.5Q120.0 58.0 118.0 55.25Q116.0 52.5 116.0 51.5ZM480.5 16.5Q480.5 10.0 488.0 12.5Q498.5 15.0 506.0 16.25Q513.5 17.5 522.5 17.5Q527.0 17.5 532.75 17.25Q538.5 17.0 545.0 16.5Q552.0 15.5 557.5 15.0Q563.0 14.5 566.5 14.5Q575.0 14.5 575.0 17.0Q575.0 19.0 572.25 21.25Q569.5 23.5 566.0 25.5Q561.5 27.0 553.25 38.75Q545.0 50.5 536.0 66.5L516.0 104.0L516.5 198.5Q517.0 232.5 517.5 252.0Q518.0 271.5 518.75 280.5Q519.5 289.5 521.0 291.75Q522.5 294.0 525.5 294.0Q534.0 294.0 535.5 297.5Q537.0 299.5 507.5 300.75Q478.0 302.0 430.5 303.0Q388.5 303.5 363.5 304.5Q338.5 305.5 324.75 307.5Q311.0 309.5 303.75 313.5Q296.5 317.5 289.5 324.0Q285.5 327.5 282.25 329.25Q279.0 331.0 278.0 330.5Q277.0 329.5 278.5 320.5Q280.0 311.5 282.0 300.0Q284.5 288.0 286.25 276.0Q288.0 264.0 288.0 259.5Q288.0 254.0 290.0 247.5Q292.0 241.0 294.5 237.5Q299.0 231.0 297.25 228.25Q295.5 225.5 281.5 224.5Q267.5 223.5 234.5 223.5L180.5 222.5L171.5 234.0Q168.0 237.5 165.25 240.5Q162.5 243.5 161.0 243.5Q161.0 243.5 160.75 243.25Q160.5 243.0 160.5 243.0Q159.5 242.0 159.25 233.75Q159.0 225.5 159.5 213.75Q160.0 202.0 160.75 190.25Q161.5 178.5 162.25 170.5Q163.0 162.5 164.0 162.5Q165.0 162.5 168.5 166.5Q172.0 170.5 174.5 177.0Q178.0 182.5 183.5 189.75Q189.0 197.0 194.0 201.5Q199.5 206.5 204.25 209.0Q209.0 211.5 219.5 212.0Q230.0 212.5 252.0 213.5L298.5 214.5L297.0 156.5Q296.5 113.5 293.0 96.0Q289.5 78.5 281.0 75.0Q271.5 71.5 279.5 68.75Q287.5 66.0 306.5 66.0Q317.5 66.0 326.25 65.25Q335.0 64.5 336.0 63.0Q337.0 62.0 338.5 55.25Q340.0 48.5 340.5 39.5Q341.0 31.5 342.75 25.5Q344.5 19.5 345.5 19.5Q349.5 19.5 349.5 25.5Q349.5 27.0 356.0 34.25Q362.5 41.5 372.0 49.5L393.5 69.0H450.0Q476.5 69.0 491.0 67.5Q505.5 66.0 505.5 64.5Q505.5 60.0 502.25 52.5Q499.0 45.0 495.0 37.75Q491.0 30.5 487.5 27.5Q484.5 26.0 482.5 22.5Q480.5 19.0 480.5 16.5Z" fill="black" /></svg>