<svg xmlns="http://www.w3.org/2000/svg" width="688.5" height="366.5" viewBox="0 0 688.5 366.5"><path d="M135.0 271.5Q132.5 271.5 126.75 267.25Q121.0 263.0 114.5 257.0L100.5 244.0L96.0 277.0Q94.5 290.5 93.75 300.75Q93.0 311.0 94.0 311.5Q94.5 312.0 97.75 310.25Q101.0 308.5 105.5 305.5Q109.5 301.5 116.25 296.5Q123.0 291.5 128.0 288.0Q137.5 282.5 139.75 277.0Q142.0 271.5 135.0 271.5ZM230.0 248.5Q226.0 245.0 221.75 242.5Q217.5 240.0 216.0 240.0Q214.0 240.0 213.25 250.0Q212.5 260.0 212.5 274.5V308.0L226.5 296.5Q233.0 292.0 242.0 286.75Q251.0 281.5 257.5 280.0L272.5 272.5L257.0 265.0Q250.5 261.0 243.0 256.5Q235.5 252.0 230.0 248.5ZM52.5 163.5 40.0 153.0Q34.5 149.0 30.0 145.5Q25.5 142.0 24.0 142.0Q23.0 142.0 22.0 149.0Q21.0 156.0 21.0 165.0V188.0ZM376.5 224.5Q367.0 223.5 358.0 222.0Q349.0 220.5 344.5 219.0Q338.0 218.0 337.0 221.5Q336.0 225.0 337.5 244.0Q338.5 253.5 339.5 261.75Q340.5 270.0 340.5 271.0Q344.0 271.0 352.75 267.0Q361.5 263.0 371.5 257.25Q381.5 251.5 388.75 245.5Q396.0 239.5 396.5 235.5Q397.5 230.0 393.5 228.0Q389.5 226.0 376.5 224.5ZM397.0 265.0Q397.0 258.5 390.5 258.5Q384.5 258.5 376.5 265.0Q370.0 269.5 370.75 270.25Q371.5 271.0 382.0 271.5Q397.0 271.5 397.0 265.0ZM428.5 231.5 449.0 222.5H429.5Q419.5 222.5 414.5 224.0Q409.5 225.5 407.0 229.0Q404.0 238.0 409.0 238.0Q411.5 238.0 416.25 236.25Q421.0 234.5 428.5 231.5ZM158.0 42.5Q150.0 42.5 142.75 42.0Q135.5 41.5 133.0 40.0Q125.0 37.5 126.0 43.25Q127.0 49.0 136.5 70.5L147.0 95.0L154.5 77.5Q157.0 70.0 161.5 62.5Q166.0 55.0 169.0 51.5Q174.0 45.5 172.5 44.0Q171.0 42.5 158.0 42.5ZM245.5 114.5 254.0 105.0H231.5Q221.5 105.0 214.5 105.5Q207.5 106.0 207.5 107.0Q207.5 108.0 211.75 115.75Q216.0 123.5 221.0 130.75Q226.0 138.0 227.5 138.0Q230.0 138.0 232.0 133.0Q233.0 129.5 237.5 124.5Q242.0 119.5 245.5 114.5ZM323.0 37.0Q315.0 37.0 307.0 36.0Q299.0 35.0 296.0 34.5Q294.5 33.5 292.0 33.5Q285.0 33.5 295.5 53.5Q303.5 67.0 307.0 80.0L312.0 92.5L321.0 73.0Q325.0 64.5 329.75 56.5Q334.5 48.5 336.5 45.0Q342.0 39.5 340.0 38.25Q338.0 37.0 323.0 37.0ZM422.5 134.0Q424.0 130.0 420.75 128.75Q417.5 127.5 406.5 127.5Q393.5 127.5 390.75 129.0Q388.0 130.5 390.5 137.5Q392.0 141.0 394.5 150.75Q397.0 160.5 399.0 170.0L403.5 193.0L412.0 167.5Q415.0 156.0 418.25 146.25Q421.5 136.5 422.5 134.0ZM405.5 48.0Q400.5 44.0 396.5 40.5Q392.5 37.0 391.0 37.0Q390.0 37.0 387.0 42.0Q384.0 47.0 380.5 53.5Q377.5 61.5 374.5 67.25Q371.5 73.0 371.5 74.5Q370.0 76.0 374.5 77.0Q379.0 78.0 386.5 78.0Q394.0 78.0 407.5 79.75Q421.0 81.5 433.0 84.0Q458.0 90.0 463.5 90.0Q468.0 90.0 462.75 86.5Q457.5 83.0 444.0 75.0Q433.0 68.0 421.75 60.0Q410.5 52.0 405.5 48.0ZM107.0 31.5Q107.0 31.0 115.25 31.0Q123.5 31.0 136.0 31.75Q148.5 32.5 161.0 33.25Q173.5 34.0 182.25 35.0Q191.0 36.0 192.0 36.5Q192.5 36.5 189.5 40.75Q186.5 45.0 181.0 49.5Q171.5 60.0 166.25 68.5Q161.0 77.0 158.5 89.0Q156.0 101.0 155.0 121.75Q154.0 142.5 153.5 177.5Q152.5 218.5 150.5 241.0Q148.5 263.5 146.5 263.5Q145.5 263.5 144.5 251.0Q143.5 238.5 143.5 212.0V159.5H108.5Q88.0 159.5 74.75 162.5Q61.5 165.5 51.5 173.25Q41.5 181.0 29.5 195.5Q24.5 203.5 19.0 208.75Q13.5 214.0 12.5 214.0Q12.0 214.0 11.0 198.25Q10.0 182.5 10.0 159.5Q10.5 132.0 11.75 119.25Q13.0 106.5 15.0 106.5Q19.5 106.5 23.5 116.5Q24.5 121.0 28.75 127.75Q33.0 134.5 37.0 139.0Q42.5 144.5 47.0 147.25Q51.5 150.0 62.0 150.5Q72.5 151.0 95.5 151.0H143.5V134.0Q143.5 124.0 139.5 108.25Q135.5 92.5 129.25 76.25Q123.0 60.0 116.5 48.5Q113.0 42.0 110.0 37.0Q107.0 32.0 107.0 31.5ZM381.5 24.5Q384.0 10.0 390.0 10.0Q392.5 10.0 392.5 16.0Q392.5 21.5 403.5 32.25Q414.5 43.0 432.0 55.25Q449.5 67.5 469.5 78.5Q480.0 84.5 500.0 94.0Q520.0 103.5 544.0 114.0Q568.0 124.5 590.5 134.0Q613.5 143.5 632.75 151.75Q652.0 160.0 663.75 165.0Q675.5 170.0 676.5 171.0Q678.5 172.5 674.25 174.5Q670.0 176.5 654.25 180.0Q638.5 183.5 606.5 190.0Q571.0 197.5 536.75 206.5Q502.5 215.5 473.75 224.5Q445.0 233.5 426.75 241.5Q408.5 249.5 405.5 255.0Q400.0 263.0 402.5 267.25Q405.0 271.5 414.5 271.5Q428.5 271.5 430.25 276.0Q432.0 280.5 419.0 281.5L403.5 283.0L402.5 320.0Q401.0 356.5 396.5 356.5Q392.5 356.5 392.5 319.0V280.5H369.5Q356.0 280.5 349.25 283.0Q342.5 285.5 335.5 292.5Q327.5 300.0 323.0 300.0Q320.5 300.0 319.0 298.5Q314.5 294.0 320.5 287.0Q324.5 283.0 322.75 281.75Q321.0 280.5 310.0 280.5Q281.0 280.5 261.5 287.75Q242.0 295.0 224.5 312.0Q215.5 321.5 209.0 328.0Q202.5 334.5 201.0 334.5Q200.5 334.5 201.0 325.75Q201.5 317.0 203.0 305.5L204.5 276.0H185.5Q148.5 276.0 102.5 321.0L80.5 341.5L83.5 321.0Q84.5 313.0 86.25 293.75Q88.0 274.5 89.0 256.5Q90.0 239.0 92.25 226.0Q94.5 213.0 96.0 213.0Q97.0 213.0 100.25 217.0Q103.5 221.0 106.0 228.0Q108.5 233.5 114.25 241.5Q120.0 249.5 126.5 255.0Q133.0 260.0 138.0 262.75Q143.0 265.5 151.25 266.5Q159.5 267.5 174.5 267.5H208.5L206.5 244.5Q203.0 219.5 209.0 219.5Q212.0 219.5 217.5 225.0Q221.0 228.5 222.5 228.5Q225.0 228.5 225.5 221.5Q226.0 214.5 226.0 196.5Q226.0 168.5 217.75 144.25Q209.5 120.0 198.0 110.5Q184.5 100.0 191.75 96.5Q199.0 93.0 232.0 95.0Q248.5 95.5 261.5 96.75Q274.5 98.0 274.5 98.5Q275.5 99.0 271.5 103.25Q267.5 107.5 262.0 112.0Q251.5 121.0 245.5 131.25Q239.5 141.5 237.0 157.25Q234.5 173.0 234.5 198.5V243.0L264.0 257.0Q278.0 264.0 291.75 267.75Q305.5 271.5 315.0 271.5Q328.5 271.5 330.5 265.5Q332.0 262.5 331.25 253.5Q330.5 244.5 328.5 234.25Q326.5 224.0 324.0 216.5Q321.5 209.0 319.5 209.0Q318.5 209.0 316.75 217.75Q315.0 226.5 314.5 239.0Q314.0 251.5 313.25 238.25Q312.5 225.0 312.5 194.0Q312.0 164.0 310.25 143.5Q308.5 123.0 305.25 107.25Q302.0 91.5 296.25 77.75Q290.5 64.0 281.5 47.5Q277.5 39.0 274.25 32.75Q271.0 26.5 271.0 26.0Q271.0 25.0 279.75 25.25Q288.5 25.5 301.5 26.0Q314.5 26.5 327.75 27.25Q341.0 28.0 350.25 29.0Q359.5 30.0 360.5 30.5Q361.0 31.0 357.75 35.25Q354.5 39.5 350.0 45.0Q341.0 54.0 335.5 62.0Q330.0 70.0 327.25 79.75Q324.5 89.5 323.25 104.25Q322.0 119.0 321.0 141.5L319.5 198.0L336.5 205.0Q344.0 208.0 354.25 211.0Q364.5 214.0 372.5 214.0Q385.5 214.5 388.25 212.75Q391.0 211.0 391.5 199.5Q393.0 189.0 390.75 174.25Q388.5 159.5 384.75 147.25Q381.0 135.0 376.5 132.0Q367.5 124.0 372.25 121.5Q377.0 119.0 399.0 119.0Q414.0 119.0 421.75 117.25Q429.5 115.5 433.0 112.0Q439.0 104.5 443.0 108.5Q448.0 113.0 441.0 121.5Q437.0 125.5 431.5 138.75Q426.0 152.0 420.75 168.25Q415.5 184.5 412.0 198.5L410.0 214.0L440.5 212.0Q449.0 211.0 468.25 207.75Q487.5 204.5 512.0 199.75Q536.5 195.0 560.5 190.0Q585.5 185.0 606.25 181.25Q627.0 177.5 639.75 175.0Q652.5 172.5 653.0 172.5Q654.5 172.5 638.25 165.0Q622.0 157.5 597.5 147.5Q535.0 121.0 479.5 105.75Q424.0 90.5 383.0 89.5Q352.5 88.0 342.25 83.75Q332.0 79.5 350.0 75.0Q359.0 73.0 368.0 58.75Q377.0 44.5 381.5 24.5Z" fill="black" /></svg>