<svg xmlns="http://www.w3.org/2000/svg" width="827.0" height="437.5" viewBox="0 0 827.0 437.5"><path d="M161.0 325.0Q157.5 325.0 150.75 320.0Q144.0 315.0 136.0 308.0L119.0 292.0L113.5 332.0Q112.0 348.5 111.0 360.75Q110.0 373.0 111.5 373.5Q111.5 373.5 111.75 373.75Q112.0 374.0 112.0 374.0Q113.5 374.0 117.25 371.75Q121.0 369.5 125.0 366.0Q130.5 361.5 138.5 355.25Q146.5 349.0 152.5 345.0Q164.0 338.0 166.5 331.5Q169.0 325.0 161.0 325.0ZM276.0 297.5Q271.0 293.5 266.0 290.5Q261.0 287.5 258.5 287.5Q256.5 287.5 255.5 299.25Q254.5 311.0 254.5 329.0V369.5L271.5 355.0Q279.5 350.0 290.25 343.75Q301.0 337.5 308.5 335.5L327.0 326.5L308.0 317.5Q300.0 313.0 291.0 307.25Q282.0 301.5 276.0 297.5ZM452.5 268.5Q441.5 267.5 430.5 265.5Q419.5 263.5 414.0 262.0Q408.5 261.0 406.25 262.5Q404.0 264.0 404.0 270.5Q404.0 277.0 405.0 292.0Q406.0 304.0 408.0 314.0Q410.0 324.0 410.5 325.0Q413.0 325.0 422.25 320.5Q431.5 316.0 442.0 310.0Q475.0 293.0 476.5 282.0Q477.5 275.0 473.0 272.75Q468.5 270.5 452.5 268.5ZM477.0 317.5Q477.0 310.0 469.5 310.0Q462.5 310.0 452.5 317.5Q444.5 322.5 445.5 323.5Q446.5 324.5 459.5 325.0Q477.0 325.0 477.0 317.5ZM61.0 195.0 46.0 182.0Q39.5 177.0 34.0 173.0Q28.5 169.0 27.0 169.0Q25.5 169.0 24.5 177.25Q23.5 185.5 23.5 196.5V224.5ZM515.5 277.0 540.0 266.0H517.0Q504.5 266.0 498.25 267.75Q492.0 269.5 489.5 273.5Q486.0 284.5 492.0 284.5Q497.5 284.5 515.5 277.0ZM188.5 48.5Q179.0 48.5 170.25 48.0Q161.5 47.5 158.5 46.0Q154.5 45.0 153.5 45.0Q148.5 45.0 150.75 53.0Q153.0 61.0 162.5 83.0L175.5 112.5L184.5 91.0Q187.5 82.0 193.0 72.75Q198.5 63.5 202.0 59.5Q208.0 52.5 206.0 50.5Q204.0 48.5 188.5 48.5ZM294.5 135.5 304.5 124.5H277.0Q265.5 124.5 257.0 125.0Q248.5 125.5 248.5 126.5Q248.5 127.5 251.5 133.5Q254.5 139.5 259.0 146.5Q263.5 153.5 267.25 158.75Q271.0 164.0 272.5 164.0Q275.0 164.0 278.0 158.0Q279.5 154.0 284.5 147.75Q289.5 141.5 294.5 135.5ZM508.0 159.5Q510.0 154.0 506.0 152.5Q502.0 151.0 488.5 151.0Q473.0 151.0 469.75 153.0Q466.5 155.0 469.5 163.5Q471.0 168.0 474.25 179.5Q477.5 191.0 480.0 202.5L485.5 230.5L495.5 200.0Q499.5 186.0 503.25 174.25Q507.0 162.5 508.0 159.5ZM388.0 42.5Q378.5 42.5 368.75 41.25Q359.0 40.0 355.0 39.0Q352.0 37.5 350.0 37.5Q342.5 37.5 354.5 62.0Q358.5 68.5 362.75 78.0Q367.0 87.5 369.0 94.5L374.5 109.5L385.5 85.5Q390.0 75.5 395.75 65.75Q401.5 56.0 404.5 52.0Q411.5 45.0 408.75 43.75Q406.0 42.5 388.0 42.5ZM487.5 55.5Q482.0 50.0 477.0 46.25Q472.0 42.5 470.5 42.5Q468.5 42.5 465.0 48.5Q461.5 54.5 457.5 62.0Q454.0 71.5 450.25 78.5Q446.5 85.5 446.5 87.5Q444.5 89.0 450.0 90.25Q455.5 91.5 465.0 91.5Q473.5 91.5 490.25 93.75Q507.0 96.0 521.0 99.0Q551.0 106.5 557.5 106.5Q563.0 106.5 556.75 102.0Q550.5 97.5 534.0 88.0Q521.5 79.5 507.5 70.0Q493.5 60.5 487.5 55.5ZM127.0 35.5Q127.0 34.5 137.0 34.75Q147.0 35.0 162.0 35.75Q177.0 36.5 192.0 37.75Q207.0 39.0 217.75 40.0Q228.5 41.0 229.5 42.0Q230.5 42.0 226.75 47.0Q223.0 52.0 216.5 57.5Q205.5 70.0 199.0 80.25Q192.5 90.5 189.25 105.0Q186.0 119.5 185.0 144.5Q184.0 169.5 183.0 211.5Q182.0 261.0 179.75 288.25Q177.5 315.5 175.0 315.5Q173.5 315.5 172.5 300.5Q171.5 285.5 171.5 253.5V190.5H129.0Q104.5 190.5 88.5 194.0Q72.5 197.5 60.25 206.75Q48.0 216.0 34.0 233.5Q27.5 243.0 21.0 249.5Q14.5 256.0 13.5 256.0Q12.5 256.0 11.25 236.75Q10.0 217.5 10.0 190.5Q10.5 157.0 12.0 141.5Q13.5 126.0 16.0 126.0Q21.5 126.0 26.5 138.5Q27.5 143.5 32.5 151.5Q37.5 159.5 42.5 165.0Q47.5 170.5 51.5 173.5Q55.5 176.5 62.0 178.0Q68.5 179.5 80.5 179.75Q92.5 180.0 113.0 180.0H171.5V159.5Q171.5 147.0 166.5 128.0Q161.5 109.0 154.0 89.25Q146.5 69.5 138.5 56.0Q134.0 48.5 130.5 42.5Q127.0 36.5 127.0 35.5ZM458.5 27.5Q461.5 10.0 468.5 10.0Q471.5 10.0 471.5 17.0Q471.5 23.5 484.75 36.5Q498.0 49.5 519.5 64.5Q541.0 79.5 564.5 92.5Q577.5 99.5 601.5 111.0Q625.5 122.5 654.75 135.25Q684.0 148.0 711.5 159.5Q739.0 171.0 762.0 180.75Q785.0 190.5 799.25 196.75Q813.5 203.0 814.5 204.0Q817.0 206.0 812.0 208.25Q807.0 210.5 788.25 214.75Q769.5 219.0 730.5 227.0Q687.5 236.0 646.0 246.75Q604.5 257.5 570.0 268.5Q535.5 279.5 513.5 289.0Q491.5 298.5 487.5 305.0Q481.0 314.5 484.25 319.75Q487.5 325.0 498.5 325.0Q515.5 325.0 517.5 330.5Q519.5 336.0 504.0 337.5L485.5 339.5L484.0 384.0Q482.0 427.5 476.5 427.5Q471.5 427.5 471.5 382.5V336.0H444.0Q428.0 336.0 419.75 339.0Q411.5 342.0 403.0 350.5Q393.5 360.0 388.0 360.0Q385.5 360.0 383.5 358.0Q377.0 353.0 384.5 344.5Q389.5 339.0 387.5 337.5Q385.5 336.0 372.5 336.0Q337.5 336.0 313.75 345.0Q290.0 354.0 269.0 374.5Q258.0 385.5 250.25 393.25Q242.5 401.0 241.0 401.0Q240.0 401.0 240.75 390.75Q241.5 380.5 243.0 366.0L245.0 330.5H221.5Q177.0 330.5 122.0 385.5L95.0 410.0L98.5 385.5Q99.5 379.0 100.75 366.0Q102.0 353.0 103.25 337.25Q104.5 321.5 105.5 307.5Q107.0 286.0 109.5 270.25Q112.0 254.5 113.5 254.5Q115.0 254.5 119.0 259.5Q123.0 264.5 126.0 273.0Q128.5 279.5 135.5 289.25Q142.5 299.0 150.5 305.0Q158.0 311.5 164.25 314.75Q170.5 318.0 180.5 319.25Q190.5 320.5 208.5 320.5H250.0L247.0 293.0Q243.5 262.5 250.5 262.5Q253.0 262.5 260.5 269.0Q265.0 273.5 266.5 273.5Q269.5 273.5 270.25 264.75Q271.0 256.0 271.0 234.5Q271.0 212.0 266.5 191.25Q262.0 170.5 254.25 154.5Q246.5 138.5 237.0 130.5Q221.0 118.0 229.75 114.0Q238.5 110.0 278.0 112.0Q298.0 113.0 313.5 114.25Q329.0 115.5 329.0 116.5Q331.0 117.0 326.0 122.0Q321.0 127.0 314.0 132.5Q301.0 144.0 294.0 156.5Q287.0 169.0 284.25 187.75Q281.5 206.5 281.5 237.5V291.0L317.0 308.0Q333.5 316.5 350.0 321.0Q366.5 325.5 378.0 325.5Q394.0 325.5 397.0 318.0Q398.5 314.0 397.5 303.25Q396.5 292.5 394.25 280.25Q392.0 268.0 389.25 259.0Q386.5 250.0 384.0 250.0Q382.5 250.0 380.5 260.5Q378.5 271.0 378.0 286.0Q377.5 301.0 376.25 285.25Q375.0 269.5 375.0 232.0Q374.5 196.0 372.5 170.75Q370.5 145.5 366.75 126.75Q363.0 108.0 356.0 91.25Q349.0 74.5 338.0 54.5Q333.0 44.5 329.0 36.75Q325.0 29.0 325.0 28.5Q325.0 28.0 335.5 28.0Q346.0 28.0 361.75 28.75Q377.5 29.5 393.5 30.5Q409.5 31.5 420.75 32.5Q432.0 33.5 433.5 34.0Q434.0 35.0 430.0 40.0Q426.0 45.0 420.5 52.0Q409.5 63.0 403.0 72.5Q396.5 82.0 393.0 93.75Q389.5 105.5 388.0 123.25Q386.5 141.0 385.5 168.5L384.0 237.0L404.5 245.0Q413.0 248.5 425.75 252.25Q438.5 256.0 447.5 256.0Q463.0 257.0 466.5 254.75Q470.0 252.5 471.0 238.0Q472.0 228.5 470.75 216.0Q469.5 203.5 466.5 191.0Q463.5 178.5 460.0 169.0Q456.5 159.5 452.5 156.5Q441.5 147.5 447.25 144.25Q453.0 141.0 480.0 141.0Q498.0 141.0 507.5 138.75Q517.0 136.5 521.0 132.5Q528.5 122.5 532.5 128.5Q539.0 133.5 530.5 144.5Q526.0 149.0 519.25 165.0Q512.5 181.0 506.25 200.75Q500.0 220.5 495.5 237.5L493.0 256.0L530.0 253.0Q540.5 252.0 563.5 248.0Q586.5 244.0 616.0 238.5Q645.5 233.0 675.0 227.0Q705.0 221.0 730.0 216.25Q755.0 211.5 770.5 208.75Q786.0 206.0 786.5 206.0Q788.0 206.0 768.5 196.75Q749.0 187.5 719.5 176.0Q644.0 143.5 577.0 125.25Q510.0 107.0 460.5 105.5Q423.0 103.5 411.0 98.25Q399.0 93.0 420.5 88.0Q432.0 85.5 442.5 68.0Q453.0 50.5 458.5 27.5Z" fill="black" /></svg>