<svg xmlns="http://www.w3.org/2000/svg" width="925.5" height="451.5" viewBox="0 0 925.5 451.5"><path d="M85.5 249.0Q82.0 249.0 73.0 243.5Q64.0 238.0 56.0 230.0Q47.0 222.5 39.5 218.0Q32.0 213.5 29.5 215.5Q27.5 217.5 26.5 229.25Q25.5 241.0 25.75 255.5Q26.0 270.0 27.5 280.75Q29.0 291.5 31.0 291.5Q31.0 291.5 31.25 291.5Q31.5 291.5 31.5 291.5Q75.0 271.0 89.0 260.0Q103.0 249.0 85.5 249.0ZM335.5 266.5Q347.0 244.0 341.5 244.0Q338.0 244.0 319.5 260.0Q311.5 267.5 300.5 276.5Q289.5 285.5 282.0 291.0L263.0 304.5L290.5 307.0Q306.0 308.5 312.5 306.75Q319.0 305.0 321.0 300.0Q322.0 296.0 326.25 286.0Q330.5 276.0 335.5 266.5ZM551.0 250.0Q558.0 243.0 552.0 243.0Q550.0 243.0 541.5 247.5Q533.0 252.0 523.5 258.25Q514.0 264.5 506.75 270.0Q499.5 275.5 499.5 277.0Q499.5 278.5 506.0 279.75Q512.5 281.0 521.5 281.0Q534.5 281.0 538.75 278.25Q543.0 275.5 543.0 269.0Q543.0 258.0 551.0 250.0ZM190.0 102.5Q190.0 100.0 177.0 99.0Q164.0 98.0 145.5 98.0H100.0L111.0 111.5Q115.0 117.5 121.0 128.75Q127.0 140.0 131.0 149.5Q135.0 159.0 139.25 166.0Q143.5 173.0 145.5 173.0Q147.5 173.0 150.5 167.0Q153.5 161.0 157.0 152.5Q161.0 143.5 166.75 134.0Q172.5 124.5 177.0 119.5Q182.5 115.0 186.25 110.0Q190.0 105.0 190.0 102.5ZM451.5 106.0 469.0 79.0H393.5L410.0 117.0Q426.0 154.5 432.5 154.5Q436.0 154.5 436.0 144.0Q436.0 139.5 440.75 128.25Q445.5 117.0 451.5 106.0ZM757.0 116.0Q740.5 107.5 731.25 103.5Q722.0 99.5 710.5 99.5Q700.0 99.5 684.25 103.25Q668.5 107.0 639.0 114.0Q607.0 123.0 594.25 137.5Q581.5 152.0 585.5 176.0Q588.5 191.0 593.0 191.0Q597.0 191.0 608.5 181.0Q615.5 175.0 617.0 175.0Q619.0 175.0 619.0 181.0Q619.0 184.5 615.5 190.75Q612.0 197.0 606.5 202.0Q601.0 207.0 597.5 214.5Q594.0 222.0 594.0 228.5Q594.0 243.0 581.0 243.0Q572.5 243.0 564.75 250.5Q557.0 258.0 554.0 267.25Q551.0 276.5 555.5 282.5Q558.5 286.0 559.25 289.5Q560.0 293.0 558.5 294.5Q556.5 297.0 564.75 304.0Q573.0 311.0 586.5 318.25Q600.0 325.5 612.0 330.0Q621.5 333.5 637.75 335.25Q654.0 337.0 668.0 337.0Q679.0 337.0 688.25 335.5Q697.5 334.0 709.25 329.75Q721.0 325.5 737.75 317.25Q754.5 309.0 780.5 295.5Q802.5 284.0 822.75 273.25Q843.0 262.5 857.5 254.75Q872.0 247.0 876.5 244.5L891.0 234.5L842.0 185.0Q819.5 161.5 796.25 142.75Q773.0 124.0 757.0 116.0ZM617.5 107.0 601.0 103.5Q594.5 101.0 585.5 99.75Q576.5 98.5 570.0 98.0Q560.0 98.0 559.0 99.75Q558.0 101.5 565.5 112.5Q569.5 118.5 572.0 121.25Q574.5 124.0 578.0 124.0Q580.5 124.0 585.0 122.25Q589.5 120.5 596.5 117.0ZM746.0 66.0Q742.0 53.0 738.25 43.75Q734.5 34.5 732.5 34.5Q731.0 35.0 724.0 40.75Q717.0 46.5 708.75 54.25Q700.5 62.0 694.75 68.25Q689.0 74.5 690.0 75.5Q691.5 76.0 700.5 79.5Q709.5 83.0 721.0 87.25Q732.5 91.5 741.75 94.75Q751.0 98.0 752.5 98.0Q753.5 98.0 751.75 88.5Q750.0 79.0 746.0 66.0ZM695.0 367.0 709.0 349.5H667.0Q650.0 349.5 637.75 350.75Q625.5 352.0 625.5 354.0Q625.5 355.5 630.25 365.0Q635.0 374.5 642.5 386.0L660.0 415.0L670.0 399.5Q674.5 393.5 682.25 384.0Q690.0 374.5 695.0 367.0ZM366.5 62.5Q366.5 60.5 373.5 60.5Q377.0 60.5 381.5 61.0Q386.0 61.5 391.0 62.5Q400.5 64.0 420.0 65.0Q439.5 66.0 457.0 66.0H500.5L478.0 92.5Q468.5 103.5 459.75 117.5Q451.0 131.5 449.0 141.5Q447.0 147.5 445.5 169.5Q444.0 191.5 443.25 222.75Q442.5 254.0 442.5 288.0Q442.5 347.0 440.75 380.0Q439.0 413.0 436.0 413.0Q434.0 413.0 432.0 409.5Q430.0 406.0 430.0 401.5Q430.0 391.0 412.25 377.25Q394.5 363.5 354.0 343.5Q331.0 331.0 312.25 326.5Q293.5 322.0 267.5 320.0L221.5 316.0L258.5 291.5Q273.0 281.5 285.25 272.5Q297.5 263.5 300.5 261.0Q303.0 258.5 284.0 257.0Q265.0 255.5 232.5 255.5H158.0V335.0Q158.0 369.0 156.75 387.25Q155.5 405.5 153.0 405.5Q153.0 405.5 152.75 405.0Q152.5 404.5 152.0 404.0Q150.5 400.5 149.25 388.25Q148.0 376.0 147.25 358.75Q146.5 341.5 146.5 322.5Q146.5 294.5 145.25 275.0Q144.0 255.5 143.0 255.5Q138.5 255.5 124.5 261.25Q110.5 267.0 93.0 275.25Q75.5 283.5 60.0 292.0Q44.5 300.5 37.5 306.0Q28.0 313.5 20.25 317.75Q12.5 322.0 10.5 320.0Q10.0 317.5 10.75 307.5Q11.5 297.5 14.0 286.5Q17.0 275.0 17.5 255.25Q18.0 235.5 17.0 218.5Q15.5 202.5 15.75 191.0Q16.0 179.5 18.5 179.5Q21.0 179.5 26.25 184.75Q31.5 190.0 37.5 197.5Q45.5 208.5 61.0 219.0Q76.5 229.5 94.25 236.25Q112.0 243.0 125.5 243.0Q138.5 243.0 142.5 240.0Q146.5 237.0 146.5 227.5Q146.5 221.0 142.25 208.0Q138.0 195.0 130.75 178.75Q123.5 162.5 115.0 145.75Q106.5 129.0 97.5 115.0Q91.0 103.5 85.75 95.0Q80.5 86.5 80.5 85.0Q80.0 84.5 87.75 84.25Q95.5 84.0 107.5 84.0Q122.5 84.0 141.5 84.25Q160.5 84.5 178.25 85.25Q196.0 86.0 207.75 86.5Q219.5 87.0 220.5 88.0Q221.5 89.5 214.25 97.75Q207.0 106.0 197.0 117.0Q176.0 138.0 167.0 160.75Q158.0 183.5 158.0 215.5V243.0H321.0L349.0 220.0Q360.0 211.5 372.5 199.75Q385.0 188.0 390.0 181.0Q395.5 174.0 399.75 171.25Q404.0 168.5 406.0 168.5Q410.0 168.5 409.0 174.75Q408.0 181.0 400.0 191.0Q389.0 204.0 377.75 220.25Q366.5 236.5 357.0 252.0Q347.5 267.5 341.5 279.0Q335.5 290.5 335.5 294.5Q335.5 299.5 338.25 302.75Q341.0 306.0 344.5 306.0Q348.5 306.0 350.0 308.5Q351.5 311.0 350.0 314.5Q348.0 322.0 385.5 346.0Q401.5 355.5 413.75 362.0Q426.0 368.5 427.0 368.5Q428.0 368.5 428.75 357.5Q429.5 346.5 429.75 327.75Q430.0 309.0 430.0 287.0Q430.0 260.0 429.5 241.75Q429.0 223.5 427.25 210.5Q425.5 197.5 422.5 185.75Q419.5 174.0 414.5 159.5Q408.0 140.5 398.5 120.25Q389.0 100.0 383.0 90.0Q376.0 80.0 371.25 72.0Q366.5 64.0 366.5 62.5ZM704.5 42.0Q720.0 28.0 733.25 19.0Q746.5 10.0 750.0 10.0Q752.5 10.0 753.5 14.75Q754.5 19.5 753.0 27.5Q751.0 43.0 754.25 57.0Q757.5 71.0 769.75 88.75Q782.0 106.5 806.5 131.75Q831.0 157.0 871.0 195.0Q889.5 212.5 902.5 225.75Q915.5 239.0 914.5 239.0Q914.0 239.5 901.75 246.25Q889.5 253.0 869.75 263.5Q850.0 274.0 826.5 286.5Q792.0 304.5 768.0 319.25Q744.0 334.0 727.75 348.5Q711.5 363.0 699.5 379.75Q687.5 396.5 676.0 418.5Q665.5 441.5 656.5 441.5Q651.0 441.5 651.0 430.5Q651.0 427.0 643.25 413.25Q635.5 399.5 625.5 383.0Q603.0 347.0 568.75 323.75Q534.5 300.5 491.5 291.0Q475.0 287.0 465.5 284.25Q456.0 281.5 459.0 281.0Q462.5 281.0 481.5 269.75Q500.5 258.5 525.0 243.0Q557.5 221.0 569.0 210.5Q580.5 200.0 578.5 194.0Q577.0 189.0 575.25 179.0Q573.5 169.0 571.0 159.5Q569.0 148.5 561.25 134.0Q553.5 119.5 541.0 106.0Q530.0 92.5 525.75 85.5Q521.5 78.5 527.0 80.5Q530.0 82.0 542.25 83.25Q554.5 84.5 571.25 85.75Q588.0 87.0 605.75 87.75Q623.5 88.5 638.0 89.0Q652.5 89.5 659.5 89.5Q677.5 89.5 671.5 88.0Q661.5 85.5 657.5 79.0Q653.5 72.5 661.5 72.5Q664.0 72.5 676.5 63.25Q689.0 54.0 704.5 42.0Z" fill="black" /></svg>