<svg xmlns="http://www.w3.org/2000/svg" width="833.5" height="455.0" viewBox="0 0 833.5 455.0"><path d="M70.0 117.5Q72.0 112.0 69.0 110.25Q66.0 108.5 53.5 108.5Q42.0 108.5 39.0 110.25Q36.0 112.0 38.0 117.5Q40.5 121.5 42.75 129.25Q45.0 137.0 47.0 144.0Q49.5 150.5 51.25 155.75Q53.0 161.0 53.5 161.0Q55.0 161.0 57.0 155.75Q59.0 150.5 61.0 144.0Q63.0 137.0 65.5 129.25Q68.0 121.5 70.0 117.5ZM167.0 205.5 148.5 200.0Q142.0 197.5 134.5 194.0Q127.0 190.5 123.5 189.0Q117.0 187.0 115.25 190.25Q113.5 193.5 113.5 207.5Q113.5 215.5 114.75 221.5Q116.0 227.5 118.0 227.5Q119.0 226.5 127.25 223.0Q135.5 219.5 144.0 215.5ZM152.5 112.0Q135.0 103.0 123.25 98.5Q111.5 94.0 104.0 94.0Q95.5 94.0 90.25 99.75Q85.0 105.5 80.0 117.0Q74.5 130.5 69.75 153.5Q65.0 176.5 61.75 203.0Q58.5 229.5 57.0 253.75Q55.5 278.0 56.5 294.5Q57.5 311.0 61.5 313.5Q64.5 315.0 69.5 315.0Q85.0 315.0 118.75 303.25Q152.5 291.5 196.0 270.0Q229.0 253.5 244.75 245.0Q260.5 236.5 264.75 231.75Q269.0 227.0 268.0 222.0Q267.5 214.5 262.5 212.0Q257.5 209.5 239.0 208.0Q220.0 207.0 197.75 211.5Q175.5 216.0 155.25 223.75Q135.0 231.5 122.0 240.5Q109.0 249.5 109.0 258.0Q109.0 267.0 104.5 261.5Q103.0 260.0 102.25 248.75Q101.5 237.5 101.75 222.0Q102.0 206.5 103.0 191.25Q104.0 176.0 105.5 165.75Q107.0 155.5 109.0 155.5Q112.5 155.5 115.0 165.0Q118.5 177.5 143.0 185.75Q167.5 194.0 207.5 195.5L256.5 197.5L223.0 165.0Q209.0 150.5 188.5 135.75Q168.0 121.0 152.5 112.0ZM168.5 107.0 154.0 78.0Q148.0 66.5 142.75 57.5Q137.5 48.5 136.0 48.0Q134.0 48.0 127.75 52.25Q121.5 56.5 114.75 62.25Q108.0 68.0 103.0 73.25Q98.0 78.5 98.0 80.5Q98.0 81.0 101.0 81.75Q104.0 82.5 108.0 82.5Q111.5 82.5 121.75 86.25Q132.0 90.0 142.5 95.0ZM302.5 45.0Q309.0 35.5 300.0 37.0Q297.5 37.5 289.75 38.25Q282.0 39.0 273.5 40.0Q261.0 41.0 257.75 43.0Q254.5 45.0 256.5 50.5Q259.0 57.0 263.5 71.5Q268.0 86.0 272.0 106.0Q274.5 115.5 275.5 115.5Q277.5 115.5 279.75 109.0Q282.0 102.5 287.0 88.0Q292.5 74.0 297.0 61.25Q301.5 48.5 302.5 45.0ZM405.0 75.0 418.5 36.0H393.0Q376.0 36.0 372.25 37.5Q368.5 39.0 370.5 45.0Q372.0 48.5 375.5 59.75Q379.0 71.0 382.5 82.5Q385.0 93.5 387.5 102.5Q390.0 111.5 390.5 112.0Q391.5 112.0 395.75 101.25Q400.0 90.5 405.0 75.0ZM487.5 138.5Q482.5 134.5 477.25 132.0Q472.0 129.5 469.5 129.5Q468.0 129.5 464.0 136.75Q460.0 144.0 455.75 153.75Q451.5 163.5 448.75 171.0Q446.0 178.5 447.5 179.5Q448.5 179.5 467.25 178.75Q486.0 178.0 511.0 177.5L573.5 175.5L537.0 161.0Q521.5 155.5 506.75 148.75Q492.0 142.0 487.5 138.5ZM109.0 340.5Q123.0 325.0 127.75 318.75Q132.5 312.5 128.5 312.5Q125.0 312.5 113.5 317.0Q108.5 319.5 97.5 321.5Q86.5 323.5 76.0 323.5Q65.0 324.0 59.0 325.75Q53.0 327.5 53.5 329.5Q66.0 360.0 70.75 369.75Q75.5 379.5 78.0 379.5Q80.0 379.5 81.25 377.75Q82.5 376.0 82.5 374.0Q82.5 372.0 90.25 362.0Q98.0 352.0 109.0 340.5ZM331.5 328.0 299.0 326.0Q286.5 325.0 274.0 323.0Q261.5 321.0 257.5 319.5Q255.5 318.5 254.0 318.0Q252.5 317.5 251.5 317.5Q248.5 317.5 248.5 323.0Q248.5 328.5 250.0 343.0Q252.5 354.5 253.0 366.5Q253.5 378.5 253.5 384.0L254.5 397.5L268.0 381.0Q274.5 374.0 285.75 363.75Q297.0 353.5 307.0 346.0ZM121.5 41.5Q132.5 30.5 140.75 23.0Q149.0 15.5 150.5 15.5Q152.5 15.5 152.5 21.25Q152.5 27.0 151.5 34.5Q150.0 46.5 153.5 56.25Q157.0 66.0 169.5 85.0Q176.0 95.0 186.75 108.0Q197.5 121.0 210.25 134.75Q223.0 148.5 234.75 160.0Q246.5 171.5 255.5 178.5Q264.5 185.5 267.5 185.5Q269.0 184.0 268.5 173.0Q268.0 162.0 266.25 146.0Q264.5 130.0 262.25 113.5Q260.0 97.0 257.25 83.5Q254.5 70.0 252.0 64.0Q249.5 58.0 245.0 51.5Q240.5 45.0 236.5 41.5Q225.5 33.0 231.5 30.0Q237.5 27.0 266.5 28.0Q304.0 28.0 311.5 21.5Q315.0 18.5 320.0 17.0Q325.0 15.5 329.0 15.5Q337.0 15.5 337.0 20.0Q337.0 24.5 328.0 28.0Q319.5 31.0 311.0 49.25Q302.5 67.5 295.25 96.25Q288.0 125.0 283.0 160.0Q278.0 195.0 276.5 231.0Q275.0 264.0 273.5 283.0Q272.0 302.0 271.0 302.0Q270.0 302.0 270.0 276.0Q270.0 249.0 263.5 249.0Q261.0 249.0 246.75 256.25Q232.5 263.5 214.0 273.5Q187.0 288.5 162.5 307.5Q138.0 326.5 118.75 346.0Q99.5 365.5 88.25 383.25Q77.0 401.0 77.0 413.0Q77.0 424.0 75.0 424.0Q74.0 424.0 70.0 420.0Q61.5 413.0 64.5 400.0Q66.0 393.0 61.75 379.5Q57.5 366.0 46.5 343.0Q37.0 323.0 33.25 314.0Q29.5 305.0 30.5 303.0Q31.5 301.0 36.5 302.5Q38.0 303.0 39.25 303.25Q40.5 303.5 41.0 303.5Q44.0 303.5 45.0 298.25Q46.0 293.0 45.75 277.5Q45.5 262.0 44.5 232.0Q43.5 193.5 40.75 170.0Q38.0 146.5 33.25 133.25Q28.5 120.0 20.0 113.0Q15.0 109.5 12.5 106.0Q10.0 102.5 10.0 101.5Q10.0 100.0 18.75 99.25Q27.5 98.5 40.0 98.5Q52.5 98.5 63.5 96.75Q74.5 95.0 77.0 92.5Q82.0 89.0 81.25 88.75Q80.5 88.5 73.5 89.5Q64.0 91.5 62.5 88.0Q61.0 84.5 66.0 79.25Q71.0 74.0 80.0 71.5Q87.0 70.0 98.75 61.25Q110.5 52.5 121.5 41.5ZM426.5 18.0Q429.5 14.5 433.25 12.5Q437.0 10.5 439.5 10.0Q447.0 10.0 449.0 15.75Q451.0 21.5 444.0 23.5Q436.0 27.0 424.75 52.75Q413.5 78.5 404.0 117.0Q400.5 130.0 397.75 151.75Q395.0 173.5 392.75 198.0Q390.5 222.5 389.75 244.5Q389.0 266.5 389.5 281.0Q390.0 295.5 392.5 297.0Q395.5 297.0 413.5 294.0Q431.5 291.0 459.75 285.75Q488.0 280.5 522.0 274.25Q556.0 268.0 592.0 261.0Q628.0 254.0 661.5 247.25Q695.0 240.5 721.75 235.0Q748.5 229.5 764.75 226.0Q781.0 222.5 781.5 222.0Q782.0 221.5 770.5 219.0Q759.0 216.5 739.0 212.5Q719.0 208.5 694.0 204.5Q641.0 196.0 592.75 191.5Q544.5 187.0 509.0 187.0Q488.0 187.0 472.75 188.5Q457.5 190.0 449.5 193.5Q441.5 197.0 434.25 199.5Q427.0 202.0 425.0 202.0Q423.0 202.0 426.5 193.0Q430.0 184.0 436.5 171.0Q447.0 151.5 449.25 141.75Q451.5 132.0 449.5 119.5Q447.5 106.5 448.25 102.5Q449.0 98.5 454.0 98.5Q462.0 98.5 462.0 105.0Q462.0 107.5 472.25 115.25Q482.5 123.0 497.5 130.5Q545.0 156.5 603.75 173.5Q662.5 190.5 742.0 203.0Q801.0 212.5 812.25 218.75Q823.5 225.0 791.0 232.5Q786.0 233.5 766.25 237.5Q746.5 241.5 716.75 247.25Q687.0 253.0 650.25 260.25Q613.5 267.5 573.5 275.5Q518.0 286.5 481.75 293.5Q445.5 300.5 423.0 305.5Q400.5 310.5 387.25 314.5Q374.0 318.5 364.75 322.75Q355.5 327.0 345.0 333.0Q328.5 343.0 312.0 356.25Q295.5 369.5 281.25 383.5Q267.0 397.5 257.75 410.0Q248.5 422.5 246.5 431.0Q243.5 445.0 240.5 445.0Q239.5 445.0 237.5 443.0Q234.0 439.5 234.25 433.0Q234.5 426.5 238.5 413.0Q241.0 404.5 241.75 388.25Q242.5 372.0 242.0 352.5Q241.5 333.0 240.0 315.75Q238.5 298.5 235.5 289.0Q232.5 280.0 237.5 280.0Q240.0 280.0 243.25 283.25Q246.5 286.5 248.5 292.5Q254.0 306.0 272.0 311.75Q290.0 317.5 323.5 316.0Q346.5 314.5 359.0 312.25Q371.5 310.0 376.75 302.75Q382.0 295.5 383.0 278.75Q384.0 262.0 384.0 231.0Q384.0 178.5 379.5 136.5Q375.0 94.5 367.25 68.75Q359.5 43.0 349.5 39.0Q342.5 37.5 342.5 30.5Q342.5 28.5 353.25 27.0Q364.0 25.5 381.5 25.5Q420.5 25.5 426.5 18.0Z" fill="black" /></svg>