<svg xmlns="http://www.w3.org/2000/svg" width="596.0" height="386.5" viewBox="0 0 596.0 386.5"><path d="M82.5 300.5 64.5 295.0Q57.5 293.5 50.0 291.0Q42.5 288.5 39.0 287.0Q36.0 286.0 35.0 286.0Q33.0 286.0 35.5 293.5Q38.0 301.0 49.0 326.0L58.0 347.5L70.5 324.5ZM229.5 263.5Q225.0 262.0 219.75 259.5Q214.5 257.0 211.0 256.0Q207.5 255.0 206.0 256.75Q204.5 258.5 204.0 266.5Q203.5 274.5 203.5 292.0V331.0L222.0 311.0Q229.5 302.5 238.75 294.0Q248.0 285.5 253.5 281.5L267.0 272.5L253.5 269.5Q248.0 268.5 241.0 266.5Q234.0 264.5 229.5 263.5ZM49.0 90.5Q49.0 88.0 45.0 86.25Q41.0 84.5 37.5 84.5Q35.0 84.5 34.0 86.0Q33.5 87.0 34.25 91.25Q35.0 95.5 37.0 100.0Q40.5 108.0 41.5 108.25Q42.5 108.5 44.5 102.5Q46.0 98.5 47.5 95.0Q49.0 91.5 49.0 90.5ZM105.0 179.0Q97.0 171.5 93.0 171.5Q88.5 171.5 88.5 191.0V210.5L102.0 201.5Q114.0 192.5 114.5 189.75Q115.0 187.0 105.0 179.0ZM421.0 214.0Q419.0 209.5 414.0 209.5Q409.5 209.5 410.25 211.75Q411.0 214.0 417.0 216.5Q422.5 217.0 421.0 214.0ZM447.0 203.5Q451.5 194.5 454.5 187.75Q457.5 181.0 457.0 181.0Q457.0 180.5 454.0 182.0Q451.0 183.5 447.0 186.5Q443.5 189.0 439.25 192.5Q435.0 196.0 432.0 197.0Q427.5 199.5 427.75 201.0Q428.0 202.5 433.0 206.5Q435.5 208.5 437.25 212.25Q439.0 216.0 438.0 218.5Q437.0 221.5 439.75 217.0Q442.5 212.5 447.0 203.5ZM121.0 46.0Q120.0 39.0 118.25 34.25Q116.5 29.5 115.5 29.5Q114.5 29.5 107.25 34.0Q100.0 38.5 91.5 44.5L70.0 59.5L89.5 65.0Q97.5 66.5 106.25 70.25Q115.0 74.0 119.5 77.0Q126.5 81.5 128.0 81.0Q129.5 80.5 127.0 73.0Q125.0 68.5 123.5 60.5Q122.0 52.5 121.0 46.0ZM234.0 46.0Q234.0 45.0 230.0 43.75Q226.0 42.5 220.5 42.5Q211.5 42.5 209.75 44.25Q208.0 46.0 210.0 52.0Q212.5 62.0 214.5 64.0Q216.0 65.5 220.75 62.0Q225.5 58.5 229.75 53.5Q234.0 48.5 234.0 46.0ZM304.5 164.0Q304.5 163.0 302.25 158.25Q300.0 153.5 296.5 148.0L288.0 135.5L277.0 147.5Q272.0 153.0 268.5 157.0Q265.0 161.0 265.0 161.5Q265.0 162.5 270.75 163.5Q276.5 164.5 284.5 165.5Q293.0 165.5 298.75 165.25Q304.5 165.0 304.5 164.0ZM291.0 42.5Q291.0 38.5 280.0 38.5Q271.5 38.5 270.0 41.0Q268.5 43.5 273.0 51.5Q276.0 55.0 278.0 55.25Q280.0 55.5 284.5 52.0Q287.0 49.5 289.0 46.75Q291.0 44.0 291.0 42.5ZM559.0 23.5Q559.5 21.5 554.5 21.5Q547.5 22.5 528.0 23.5Q519.0 24.0 513.0 25.25Q507.0 26.5 507.0 27.5Q507.0 28.0 508.5 32.0Q510.0 36.0 511.5 41.5Q514.0 46.0 516.0 55.5Q518.0 65.0 520.0 73.0L523.0 93.5L540.0 60.5Q547.5 47.0 553.0 36.25Q558.5 25.5 559.0 23.5ZM22.5 77.5Q22.5 72.5 28.0 72.5Q30.0 72.5 33.25 73.0Q36.5 73.5 41.5 74.5Q49.5 76.5 55.25 78.25Q61.0 80.0 61.5 80.5Q62.5 81.0 60.5 87.0Q58.5 93.0 55.5 101.0Q52.5 108.5 50.75 119.0Q49.0 129.5 48.0 147.0Q47.0 164.5 46.0 193.0Q45.0 224.0 43.25 245.75Q41.5 267.5 40.0 267.5Q38.0 267.5 37.0 248.25Q36.0 229.0 36.0 202.0Q36.0 171.0 34.0 147.25Q32.0 123.5 29.5 110.5Q26.5 100.0 25.0 90.25Q23.5 80.5 22.5 77.5ZM110.5 20.5Q120.0 11.0 124.5 11.0Q126.5 11.5 127.5 17.25Q128.5 23.0 128.5 30.5Q128.5 57.5 139.0 79.5Q149.5 101.5 175.5 129.5L208.0 164.0L206.5 110.0Q206.0 83.0 205.25 71.0Q204.5 59.0 201.75 54.5Q199.0 50.0 193.0 45.5Q188.0 41.5 184.5 38.0Q181.0 34.5 181.0 32.5Q181.0 32.0 189.75 32.0Q198.5 32.0 210.0 32.5Q222.0 33.5 231.75 33.25Q241.5 33.0 242.5 31.0Q243.5 29.5 255.5 29.0Q267.5 28.5 283.5 29.5L322.0 32.0L300.0 49.0Q291.0 56.5 284.25 62.75Q277.5 69.0 277.0 71.5Q276.5 72.5 276.5 82.0Q276.5 91.5 277.0 103.0Q278.0 117.0 279.0 122.25Q280.0 127.5 282.0 127.5Q282.5 127.5 284.5 126.5Q288.5 123.5 292.0 123.5Q300.0 123.5 300.0 134.5Q300.0 138.0 303.0 143.0Q306.0 148.0 310.0 152.0Q313.5 155.0 323.25 160.5Q333.0 166.0 346.25 172.25Q359.5 178.5 372.5 184.25Q385.5 190.0 395.5 193.5Q405.5 197.0 409.0 197.0Q413.5 197.0 426.5 189.5Q439.5 182.0 454.75 171.25Q470.0 160.5 481.0 151.0Q491.0 141.5 495.5 141.5Q498.0 141.5 497.0 145.5Q496.0 149.5 490.0 156.5Q472.5 178.0 463.75 192.0Q455.0 206.0 454.75 216.5Q454.5 227.0 462.75 238.0Q471.0 249.0 487.5 265.0L517.0 293.5L514.5 182.5Q513.5 138.5 512.0 110.75Q510.5 83.0 508.25 67.0Q506.0 51.0 502.0 42.0Q498.0 33.0 491.5 26.5Q475.0 10.0 488.0 10.0Q491.5 10.0 499.0 12.5Q505.0 15.0 518.5 15.25Q532.0 15.5 549.0 14.5Q557.0 13.5 563.5 13.5Q570.0 13.5 575.0 13.5Q586.0 13.5 586.0 14.5Q586.0 18.0 575.5 26.0Q571.5 29.5 562.25 43.0Q553.0 56.5 544.5 72.5L523.5 110.0L524.5 224.0Q524.5 338.0 520.0 338.0Q518.0 338.0 516.75 333.0Q515.5 328.0 515.5 321.5Q515.5 314.0 513.75 308.75Q512.0 303.5 505.75 296.25Q499.5 289.0 486.0 276.5Q465.5 256.5 454.75 247.75Q444.0 239.0 430.0 239.0Q420.5 239.0 406.5 242.75Q392.5 246.5 370.0 253.0Q328.0 265.0 302.0 273.5Q276.0 282.0 260.75 290.0Q245.5 298.0 235.75 308.25Q226.0 318.5 216.0 333.5Q210.0 342.5 205.0 348.75Q200.0 355.0 198.0 355.0Q196.5 355.0 195.5 340.25Q194.5 325.5 194.5 304.0V253.0L184.0 256.0Q179.5 256.5 165.25 262.5Q151.0 268.5 136.0 275.5Q119.0 283.5 110.25 288.5Q101.5 293.5 96.5 299.25Q91.5 305.0 85.0 316.0Q80.0 326.0 74.25 338.5Q68.5 351.0 66.0 358.0Q61.0 376.5 57.0 376.5Q54.0 376.5 52.0 362.5Q50.0 357.0 43.75 340.0Q37.5 323.0 29.5 305.0Q10.0 259.0 16.5 259.0Q19.5 259.0 27.0 266.5Q33.0 271.5 41.75 276.75Q50.5 282.0 59.25 285.5Q68.0 289.0 73.0 289.0Q76.5 289.0 88.25 285.0Q100.0 281.0 115.25 274.75Q130.5 268.5 145.5 261.75Q160.5 255.0 171.0 249.5L194.5 237.5L213.0 247.0Q220.0 250.5 231.25 254.25Q242.5 258.0 254.5 261.0Q266.5 264.0 276.5 265.25Q286.5 266.5 291.0 266.0Q297.0 265.0 311.75 261.0Q326.5 257.0 344.5 251.5Q362.5 246.0 379.5 240.75Q396.5 235.5 407.5 231.75Q418.5 228.0 418.5 227.0Q418.5 226.0 413.25 224.25Q408.0 222.5 400.5 221.5Q387.0 219.0 385.5 217.75Q384.0 216.5 390.0 212.0Q393.5 209.5 395.25 206.75Q397.0 204.0 396.0 203.5Q395.5 203.0 384.75 198.25Q374.0 193.5 359.5 188.0Q344.5 182.0 333.75 178.75Q323.0 175.5 311.5 174.5Q300.0 173.5 281.5 173.5Q263.5 173.0 251.0 172.0Q238.5 171.0 238.5 170.5Q238.5 169.5 243.25 164.5Q248.0 159.5 254.5 154.0L271.0 140.0L267.0 98.0Q265.0 65.5 262.75 54.0Q260.5 42.5 256.0 42.5Q254.0 42.5 247.75 48.0Q241.5 53.5 234.0 60.5L216.0 79.0L217.0 128.0Q218.0 148.0 219.5 164.5Q221.0 181.0 222.0 183.5Q224.0 188.0 217.0 188.75Q210.0 189.5 183.0 188.5Q164.0 187.5 154.25 188.0Q144.5 188.5 138.0 190.75Q131.5 193.0 122.5 198.5Q114.0 203.0 106.0 209.75Q98.0 216.5 94.0 221.0Q90.5 225.5 87.0 228.75Q83.5 232.0 82.5 232.0Q81.5 232.0 80.5 219.0Q79.5 206.0 79.5 188.0Q79.5 170.0 80.5 156.75Q81.5 143.5 82.5 143.5Q83.5 143.5 89.0 149.0Q94.5 154.5 100.5 161.5L115.5 179.0H160.0Q177.5 179.0 190.5 178.0Q203.5 177.0 203.5 176.0Q203.5 174.0 190.25 159.25Q177.0 144.5 158.5 125.5Q139.0 105.0 128.0 94.75Q117.0 84.5 109.25 80.25Q101.5 76.0 92.5 74.0Q83.5 72.0 73.75 70.75Q64.0 69.5 58.5 69.5Q53.0 69.5 48.75 68.5Q44.5 67.5 44.5 65.5Q44.5 64.5 52.75 58.75Q61.0 53.0 72.0 47.0Q83.0 40.5 94.5 32.75Q106.0 25.0 110.5 20.5Z" fill="black" /></svg>