<svg xmlns="http://www.w3.org/2000/svg" width="599.5" height="458.5" viewBox="0 0 599.5 458.5"><path d="M76.0 140.0Q76.5 138.5 70.25 138.0Q64.0 137.5 54.5 137.5Q44.0 137.5 37.0 137.5Q30.0 137.5 30.0 138.0Q30.0 139.0 32.75 147.25Q35.5 155.5 40.5 166.5L51.5 193.5L63.5 169.0Q67.5 159.0 71.5 150.75Q75.5 142.5 76.0 140.0ZM143.0 108.5Q137.0 108.5 122.0 96.0L106.0 84.0V111.5Q106.0 121.5 107.0 129.0Q108.0 136.5 109.5 136.5Q137.5 123.5 146.0 116.0Q154.5 108.5 143.0 108.5ZM332.0 49.5Q334.5 48.5 324.0 47.75Q313.5 47.0 296.0 47.0L254.5 45.5L261.5 61.5Q265.5 68.5 268.75 76.75Q272.0 85.0 274.0 90.5Q276.5 95.5 280.25 99.75Q284.0 104.0 286.0 104.0Q291.5 104.0 292.5 108.5Q293.5 113.0 288.0 114.0Q283.5 115.0 288.0 134.5L294.0 154.0L301.5 125.0Q305.5 113.0 310.0 100.0Q314.5 87.0 317.5 81.5Q321.5 74.5 323.75 67.75Q326.0 61.0 326.0 59.0Q326.0 52.0 332.0 49.5ZM389.5 112.5 376.0 105.0Q370.5 101.5 362.5 96.0Q354.5 90.5 349.5 85.5L336.0 73.0V107.5Q336.0 121.5 337.0 131.5Q338.0 141.5 339.5 141.5Q341.5 141.5 345.25 139.0Q349.0 136.5 352.0 133.0Q356.0 129.0 362.25 124.75Q368.5 120.5 375.0 117.5ZM531.0 112.5Q531.0 108.5 524.5 108.5Q516.5 108.5 520.0 116.0Q520.5 119.0 521.5 122.75Q522.5 126.5 522.5 129.0Q522.5 131.5 524.5 128.75Q526.5 126.0 528.75 121.0Q531.0 116.0 531.0 112.5ZM564.0 29.0Q563.0 28.0 555.25 27.25Q547.5 26.5 537.0 26.0Q526.5 25.5 516.0 25.5Q505.0 25.5 497.0 26.25Q489.0 27.0 489.0 28.0Q489.0 30.0 492.5 38.75Q496.0 47.5 501.0 59.0Q505.5 69.5 509.25 79.0Q513.0 88.5 513.0 91.5Q513.0 98.0 522.0 98.0Q526.0 98.0 532.75 90.25Q539.5 82.5 547.5 64.0Q554.5 49.5 559.25 39.5Q564.0 29.5 564.0 29.0ZM122.0 394.0 104.0 387.5Q97.0 385.5 87.5 379.5Q78.0 373.5 72.5 368.0L58.0 355.5V390.0Q58.0 404.0 59.25 413.75Q60.5 423.5 62.5 423.5Q63.5 422.5 72.75 418.0Q82.0 413.5 93.0 408.0ZM381.0 375.0Q377.5 374.0 369.25 369.0Q361.0 364.0 355.5 359.0L340.5 346.5V415.5L356.0 402.5Q372.5 391.0 377.5 391.0Q380.0 391.0 382.75 388.75Q385.5 386.5 388.0 384.0Q391.0 380.0 390.0 378.25Q389.0 376.5 381.0 375.0ZM470.0 11.5Q470.0 10.0 474.5 10.0Q479.5 10.0 485.5 11.5Q491.5 12.5 509.25 13.75Q527.0 15.0 545.5 15.0Q563.5 14.5 576.5 15.75Q589.5 17.0 589.5 18.5Q589.5 19.5 587.25 22.0Q585.0 24.5 582.0 27.5Q576.5 32.0 569.25 43.75Q562.0 55.5 555.25 70.0Q548.5 84.5 544.5 98.0Q542.0 106.0 540.5 116.75Q539.0 127.5 538.25 144.0Q537.5 160.5 537.25 186.75Q537.0 213.0 537.0 252.0Q537.0 302.0 537.0 333.5Q537.0 365.0 536.75 382.5Q536.5 400.0 536.0 407.75Q535.5 415.5 534.25 417.25Q533.0 419.0 531.0 419.0Q530.0 419.0 528.5 413.0Q527.0 407.0 527.0 399.0V378.5L471.0 380.5Q446.0 381.0 432.25 382.5Q418.5 384.0 409.5 386.75Q400.5 389.5 388.5 395.5Q377.5 400.5 366.5 408.5Q355.5 416.5 350.0 421.0Q346.0 426.0 341.25 429.75Q336.5 433.5 335.5 433.5Q334.0 433.5 332.0 417.5Q330.0 401.5 330.0 378.5Q330.0 356.0 331.25 340.25Q332.5 324.5 334.0 324.5Q335.5 324.5 341.0 329.75Q346.5 335.0 353.0 343.0Q364.0 355.5 376.0 362.0Q388.0 368.5 408.5 370.0Q429.0 371.5 464.5 370.0L524.5 369.5V264.5Q524.5 230.5 524.25 208.75Q524.0 187.0 523.25 173.0Q522.5 159.0 520.75 150.0Q519.0 141.0 516.5 133.0L507.0 108.5H461.0Q441.0 108.5 429.5 109.25Q418.0 110.0 410.0 112.75Q402.0 115.5 391.5 121.5Q381.0 126.5 368.0 134.75Q355.0 143.0 346.5 150.0L326.0 166.5V126.5L325.0 87.0L317.0 113.0Q314.0 122.0 312.0 132.25Q310.0 142.5 309.25 160.5Q308.5 178.5 308.25 209.0Q308.0 239.5 308.0 288.5Q307.5 333.0 306.75 366.75Q306.0 400.5 305.0 419.5Q304.0 438.5 303.0 438.5Q301.5 438.5 300.0 422.0Q298.5 405.5 297.5 376.5Q296.5 347.5 296.0 310.5Q295.5 266.0 294.75 239.25Q294.0 212.5 292.75 196.75Q291.5 181.0 289.5 170.25Q287.5 159.5 283.5 147.5L272.0 113.0H223.5Q197.0 113.0 179.25 115.75Q161.5 118.5 147.0 125.75Q132.5 133.0 116.0 146.5Q99.0 160.5 94.5 160.5Q90.5 160.5 93.0 150.5Q97.0 138.5 90.0 143.75Q83.0 149.0 74.5 165.5Q70.5 173.0 68.25 179.25Q66.0 185.5 65.0 195.25Q64.0 205.0 63.75 221.75Q63.5 238.5 63.5 266.5V346.5L79.5 361.0Q88.5 369.0 98.25 373.75Q108.0 378.5 121.75 381.25Q135.5 384.0 157.25 385.0Q179.0 386.0 212.5 386.0Q250.5 386.0 271.5 387.25Q292.5 388.5 292.5 391.0Q292.5 393.0 273.0 394.25Q253.5 395.5 218.0 395.5Q192.0 395.5 176.25 396.0Q160.5 396.5 150.75 397.75Q141.0 399.0 133.0 401.5Q125.0 404.0 114.5 408.0Q102.0 413.5 87.75 421.25Q73.5 429.0 66.0 434.5Q59.0 440.0 53.5 444.25Q48.0 448.5 47.0 448.5Q46.5 447.5 46.75 436.25Q47.0 425.0 47.75 406.5Q48.5 388.0 50.0 366.5Q52.5 320.5 52.5 287.75Q52.5 255.0 49.25 231.0Q46.0 207.0 39.0 187.5Q32.0 168.0 20.5 148.5Q10.0 134.0 10.0 129.0Q10.0 128.5 23.0 128.0Q36.0 127.5 53.5 127.5H96.5V94.0Q96.5 79.5 97.75 70.0Q99.0 60.5 100.0 60.5Q102.0 60.5 106.5 64.75Q111.0 69.0 115.0 75.0Q123.5 86.5 134.5 92.75Q145.5 99.0 164.0 101.5Q182.5 104.0 213.5 104.0Q236.0 104.0 252.25 103.5Q268.5 103.0 268.5 102.0Q268.5 100.0 264.75 91.75Q261.0 83.5 256.0 73.5Q251.0 63.5 246.5 55.0Q242.0 46.5 240.0 44.0Q237.0 41.0 236.5 38.75Q236.0 36.5 237.5 36.0Q240.5 35.5 253.75 35.75Q267.0 36.0 284.25 36.25Q301.5 36.5 318.5 37.0Q335.5 37.5 346.75 38.0Q358.0 38.5 358.5 39.0Q360.0 40.5 350.0 51.5L339.5 61.5L373.5 96.5L439.0 97.5L504.5 99.5L502.0 87.0Q499.5 82.0 494.75 69.75Q490.0 57.5 484.5 45.0Q478.5 33.0 474.25 23.25Q470.0 13.5 470.0 11.5Z" fill="black" /></svg>