<svg xmlns="http://www.w3.org/2000/svg" width="831.5" height="354.5" viewBox="0 0 831.5 354.5"><path d="M80.0 196.0Q76.5 194.0 67.5 190.25Q58.5 186.5 50.0 182.0L28.0 171.5V188.5Q28.0 195.5 27.0 203.0Q26.0 210.5 25.0 213.5Q23.5 217.5 24.5 218.75Q25.5 220.0 34.25 217.25Q43.0 214.5 64.5 207.0Q79.0 201.5 82.25 199.5Q85.5 197.5 80.0 196.0ZM226.0 218.5Q226.0 207.5 222.5 207.5Q218.0 207.5 202.5 221.5L186.0 235.5L208.0 243.0Q216.0 245.0 220.5 246.5Q225.0 248.0 227.0 248.0Q229.5 248.0 229.75 246.0Q230.0 244.0 229.0 240.5Q228.0 236.5 227.0 230.0Q226.0 223.5 226.0 218.5ZM264.5 203.5Q263.0 200.5 258.75 199.0Q254.5 197.5 249.5 197.5Q241.5 197.5 238.0 201.0Q234.0 204.5 234.25 214.25Q234.5 224.0 238.5 235.5Q242.5 247.0 249.5 256.5L264.5 276.5L265.0 243.0Q266.0 229.0 265.75 217.5Q265.5 206.0 264.5 203.5ZM302.0 186.0Q302.0 183.0 299.75 184.0Q297.5 185.0 295.0 189.5Q292.5 193.5 297.0 191.5Q302.0 188.0 302.0 186.0ZM318.0 229.5Q320.5 224.5 316.5 224.5Q312.0 224.5 309.5 229.5Q306.5 233.5 311.0 233.5Q315.0 233.5 318.0 229.5ZM333.5 269.0Q338.5 266.5 338.5 265.75Q338.5 265.0 333.0 265.0Q329.5 265.0 326.5 266.25Q323.5 267.5 323.0 269.0Q320.5 274.0 323.75 274.0Q327.0 274.0 333.5 269.0ZM492.0 261.5 507.5 253.5 469.0 233.5V251.5Q469.0 260.0 469.5 264.0Q470.0 268.0 473.5 268.0Q476.0 268.0 480.5 266.25Q485.0 264.5 492.0 261.5ZM527.5 178.0 513.0 171.5Q499.0 166.0 497.25 166.75Q495.5 167.5 498.0 176.0Q501.5 187.5 504.5 187.5Q506.5 187.5 515.5 183.5ZM436.0 134.0Q420.5 126.0 412.5 126.0Q405.5 126.0 405.5 132.5Q405.5 139.0 410.5 139.0Q414.5 139.0 412.0 145.0Q411.5 147.0 419.0 157.0Q426.5 167.0 437.5 178.5Q449.0 190.5 456.25 199.5Q463.5 208.5 462.5 209.5Q460.5 212.0 468.5 219.0Q476.5 226.0 488.25 233.0Q500.0 240.0 509.0 242.0Q517.5 244.0 530.5 245.5Q543.5 247.0 556.5 247.0Q570.0 247.0 581.25 245.5Q592.5 244.0 596.0 241.5Q599.5 239.0 606.5 230.5Q613.5 222.0 621.0 211.75Q628.5 201.5 633.75 193.25Q639.0 185.0 639.0 183.0Q639.0 182.0 626.5 180.75Q614.0 179.5 596.0 179.5Q578.0 179.5 566.25 180.5Q554.5 181.5 545.25 183.75Q536.0 186.0 524.5 191.0Q499.0 201.5 492.0 201.5Q486.0 201.5 488.0 192.0Q489.5 186.5 481.5 175.0Q473.5 163.5 461.0 151.75Q448.5 140.0 436.0 134.0ZM633.0 229.5Q633.0 216.5 630.0 216.5Q627.5 216.5 618.0 229.5L607.0 242.0H620.0Q628.0 242.0 630.5 239.75Q633.0 237.5 633.0 229.5ZM154.0 29.0Q154.0 28.0 147.25 27.5Q140.5 27.0 131.0 27.0Q115.5 27.0 112.5 28.0Q109.5 29.0 111.5 34.0Q113.0 37.5 116.25 46.5Q119.5 55.5 122.5 64.5Q129.0 82.0 131.0 82.0Q132.5 82.0 134.0 78.0Q135.0 74.0 138.5 66.0Q142.0 58.0 145.5 49.5Q149.0 42.0 151.5 35.75Q154.0 29.5 154.0 29.0ZM286.0 41.0 293.5 27.0H244.5L253.0 47.5Q257.0 56.5 260.25 65.25Q263.5 74.0 264.5 78.0Q266.0 83.0 267.0 83.0Q269.0 83.0 273.0 71.0Q275.5 64.5 279.5 55.75Q283.5 47.0 286.0 41.0ZM301.0 97.5Q303.0 94.0 298.0 94.0Q293.0 94.0 294.5 97.5Q298.0 100.5 301.0 97.5ZM328.0 70.5Q330.0 67.0 325.0 67.0Q319.5 67.0 321.5 70.5Q325.0 73.5 328.0 70.5ZM321.5 119.0Q293.5 105.5 282.0 105.5Q279.0 105.5 278.0 106.5Q277.0 107.5 276.0 117.25Q275.0 127.0 275.0 139.5Q275.0 159.5 277.75 168.0Q280.5 176.5 290.5 176.5Q300.0 176.5 323.0 168.0Q349.5 158.5 361.0 154.0Q372.5 149.5 375.5 147.25Q378.5 145.0 378.5 143.0Q378.5 139.0 366.5 139.0Q354.0 139.0 344.0 136.0Q334.0 133.0 335.5 130.0Q336.5 129.0 332.25 125.5Q328.0 122.0 321.5 119.0ZM370.0 106.0Q370.0 104.0 362.75 100.0Q355.5 96.0 345.5 91.5Q335.5 87.0 326.5 84.0Q317.5 81.0 314.0 81.0Q306.5 81.0 306.5 87.0Q306.5 89.5 311.75 95.0Q317.0 100.5 324.25 106.5Q331.5 112.5 338.5 116.75Q345.5 121.0 348.5 121.0Q352.0 121.0 357.0 118.25Q362.0 115.5 366.0 111.75Q370.0 108.0 370.0 106.0ZM360.5 42.5Q360.5 40.5 358.5 40.5Q356.5 40.5 356.5 42.5Q356.5 44.5 358.5 44.5Q360.5 44.5 360.5 42.5ZM376.5 61.0Q354.0 50.0 348.0 50.0Q344.5 50.0 342.5 51.5Q340.5 53.0 338.0 56.0Q333.5 61.0 335.0 64.25Q336.5 67.5 345.0 74.5Q359.5 86.0 366.5 91.0Q373.5 96.0 378.5 96.0Q381.5 96.0 384.5 94.25Q387.5 92.5 392.0 89.5Q400.5 83.5 402.25 80.25Q404.0 77.0 398.0 73.0Q392.0 69.0 376.5 61.0ZM403.5 103.0Q410.0 90.5 406.5 90.5Q403.5 90.5 382.0 109.5L360.5 129.0L375.0 131.5Q380.5 132.5 384.5 133.25Q388.5 134.0 390.5 134.0Q395.0 134.0 396.0 132.0Q397.0 130.0 397.0 125.0Q397.0 121.5 399.0 115.0Q401.0 108.5 403.5 103.0ZM449.0 105.5Q451.5 98.5 452.75 94.0Q454.0 89.5 453.5 89.5Q453.0 89.5 448.5 93.25Q444.0 97.0 438.5 101.0Q412.5 121.0 434.0 121.0Q440.0 121.0 443.25 117.25Q446.5 113.5 449.0 105.5ZM499.0 52.5Q501.5 49.0 495.5 49.0Q490.0 49.0 492.5 52.5Q495.5 54.5 499.0 52.5ZM536.5 114.0 524.5 108.0Q519.5 106.0 516.75 104.75Q514.0 103.5 512.5 103.5Q510.5 103.5 509.75 106.0Q509.0 108.5 508.0 114.5Q506.0 125.0 512.0 125.0Q516.0 125.0 526.0 119.5ZM673.5 183.5Q673.5 171.0 670.0 171.0Q667.0 171.0 660.0 181.5Q653.0 192.5 653.75 194.75Q654.5 197.0 663.5 197.0Q670.0 197.0 672.0 194.5Q674.0 192.0 673.5 183.5ZM701.0 139.0Q703.0 138.0 703.25 133.0Q703.5 128.0 702.5 123.0L700.0 109.5L697.0 123.0Q695.0 134.0 695.75 137.25Q696.5 140.5 701.0 139.0ZM734.5 67.0Q733.5 60.0 733.0 57.25Q732.5 54.5 731.5 54.5Q731.0 54.5 728.5 57.0Q725.5 59.5 725.0 65.25Q724.5 71.0 726.0 75.75Q727.5 80.5 730.5 80.5Q737.0 80.5 734.5 67.0ZM352.0 202.0Q377.0 193.0 389.25 189.0Q401.5 185.0 406.5 185.0Q410.5 185.0 410.5 188.5Q410.5 190.5 408.75 191.75Q407.0 193.0 405.5 193.0Q402.5 193.0 392.75 197.25Q383.0 201.5 370.5 208.0Q358.0 214.5 346.25 221.25Q334.5 228.0 327.0 233.5L309.5 247.0L299.5 235.0Q291.5 225.0 290.0 217.5Q288.5 210.0 292.0 210.0Q295.5 210.0 301.0 215.5Q302.5 217.0 305.5 217.0Q315.5 217.0 352.0 202.0ZM422.5 223.0Q425.5 220.0 431.5 220.0Q435.5 220.0 438.0 221.25Q440.5 222.5 439.5 224.5Q439.0 226.0 436.75 227.75Q434.5 229.5 432.0 229.5Q429.0 229.5 416.75 235.0Q404.5 240.5 388.75 248.5Q373.0 256.5 359.0 264.5Q345.0 272.5 338.5 277.5L323.5 288.5L315.0 277.5Q304.0 263.5 301.25 257.5Q298.5 251.5 303.5 251.5Q308.5 251.5 314.5 255.5Q317.5 260.5 369.0 242.0Q390.0 235.0 405.75 229.5Q421.5 224.0 422.5 223.0ZM744.0 22.0Q751.0 10.0 754.0 10.0Q756.0 10.0 755.0 17.25Q754.0 24.5 749.5 37.5Q743.0 57.0 743.0 66.75Q743.0 76.5 749.5 79.0Q756.0 82.0 754.0 85.5Q753.5 86.5 761.5 91.0Q769.5 95.5 781.0 101.0Q793.5 106.0 802.75 111.0Q812.0 116.0 813.0 117.5Q821.5 130.0 789.0 115.5Q776.0 108.5 760.0 102.5Q744.0 96.5 732.0 93.75Q720.0 91.0 718.5 93.0Q718.0 95.0 716.5 100.5Q715.0 106.0 713.5 113.0Q712.0 123.5 714.75 131.25Q717.5 139.0 727.5 146.0Q737.5 153.0 757.5 162.5Q768.5 167.5 775.75 172.25Q783.0 177.0 783.0 179.5Q783.0 183.5 779.0 183.5Q775.0 183.5 772.5 180.0Q771.5 178.0 761.0 173.25Q750.5 168.5 736.5 163.0Q722.5 157.5 710.5 153.75Q698.5 150.0 694.5 150.0Q691.0 150.0 688.75 153.5Q686.5 157.0 684.0 166.5Q681.0 179.0 681.5 183.25Q682.0 187.5 686.5 191.5Q693.5 195.0 693.5 201.0Q693.5 202.5 699.5 206.0Q705.5 209.5 715.0 212.0Q732.0 218.5 742.75 225.75Q753.5 233.0 751.0 235.5Q748.0 235.5 737.75 231.75Q727.5 228.0 713.5 222.0Q699.0 215.5 683.5 211.0Q668.0 206.5 661.5 206.5Q650.5 206.5 647.0 208.75Q643.5 211.0 641.5 220.0Q639.0 233.5 648.5 243.75Q658.0 254.0 685.5 266.5Q696.5 271.0 703.75 275.75Q711.0 280.5 711.0 282.5Q711.0 287.0 707.5 287.0Q704.0 287.0 695.5 281.5Q677.0 268.5 649.5 262.0Q622.0 255.5 583.5 255.5Q557.5 255.5 538.5 257.75Q519.5 260.0 504.5 265.5Q489.5 271.0 474.5 280.0Q464.5 285.0 460.5 285.0Q459.0 285.0 459.0 284.0Q459.0 283.0 459.0 272.5Q459.0 262.0 459.5 248.5L460.5 216.5L436.0 190.0Q418.5 171.5 408.75 163.5Q399.0 155.5 389.0 155.5Q382.5 155.5 370.75 160.25Q359.0 165.0 346.25 171.75Q333.5 178.5 322.75 185.25Q312.0 192.0 306.5 196.0Q297.5 204.5 292.5 204.5Q290.0 204.5 288.5 202.0Q285.5 197.0 283.0 197.0Q275.0 197.0 275.0 245.0V288.5L300.0 315.5Q310.0 327.0 316.25 335.5Q322.5 344.0 321.0 344.5Q316.5 344.5 301.25 329.0Q286.0 313.5 261.5 285.5Q250.0 272.0 227.75 260.25Q205.5 248.5 184.0 245.0Q177.0 243.5 172.25 241.5Q167.5 239.5 167.5 238.5Q167.5 237.0 173.5 232.0Q179.5 227.0 187.5 220.5Q196.0 215.0 202.0 209.5Q208.0 204.0 208.0 202.0Q208.0 200.0 198.5 198.5Q189.0 197.0 174.0 197.0H140.5V242.0Q140.5 262.0 139.5 274.75Q138.5 287.5 136.0 287.5Q134.0 287.5 132.5 275.75Q131.0 264.0 131.0 245.0Q131.0 224.0 130.5 215.0Q130.0 206.0 128.25 204.0Q126.5 202.0 122.0 202.0Q114.5 202.0 99.25 206.25Q84.0 210.5 66.5 216.75Q49.0 223.0 36.0 229.5Q19.5 237.0 13.0 237.0Q12.5 237.0 12.25 237.0Q12.0 237.0 12.0 237.0Q10.0 234.5 14.5 223.0Q16.5 217.5 18.0 205.25Q19.5 193.0 19.5 181.5V152.5L38.5 165.0Q57.5 177.5 73.75 183.0Q90.0 188.5 110.5 188.5H132.5L130.5 146.5Q128.5 115.5 121.0 86.5Q113.5 57.5 103.5 37.0Q100.0 31.0 97.75 25.5Q95.5 20.0 95.5 19.0Q95.5 18.0 103.75 17.5Q112.0 17.0 123.0 17.0Q133.5 17.0 144.25 17.5Q155.0 18.0 162.5 18.5Q170.0 19.0 171.0 20.0Q172.0 20.5 167.75 27.75Q163.5 35.0 157.5 44.5Q152.5 53.5 149.25 59.5Q146.0 65.5 144.5 73.25Q143.0 81.0 142.25 93.75Q141.5 106.5 141.0 129.0L140.0 188.5H170.5Q183.5 189.0 193.75 188.75Q204.0 188.5 206.0 188.5Q207.5 188.0 217.0 188.0Q226.5 188.0 239.0 188.0H266.5V153.5Q266.5 135.5 262.75 113.5Q259.0 91.5 253.0 70.25Q247.0 49.0 239.0 34.0Q235.5 27.5 233.75 22.5Q232.0 17.5 234.0 17.0Q236.0 16.5 247.0 16.75Q258.0 17.0 271.5 17.5Q285.0 18.0 295.25 18.75Q305.5 19.5 306.0 20.0Q306.5 20.5 302.75 28.25Q299.0 36.0 293.0 47.5Q287.0 58.5 283.75 68.75Q280.5 79.0 281.0 83.0Q281.5 86.5 283.5 86.5Q287.0 86.5 298.75 76.25Q310.5 66.0 339.5 39.0Q362.0 17.5 370.5 17.5Q374.0 17.5 374.0 22.0Q374.0 25.5 369.0 28.5Q366.0 29.5 369.0 34.5Q372.0 39.5 381.5 47.0Q393.0 57.5 399.5 62.25Q406.0 67.0 411.0 67.0Q415.5 67.0 420.0 63.25Q424.5 59.5 432.0 52.5Q447.5 37.0 452.0 37.0Q456.5 37.0 444.5 54.0Q435.5 66.5 427.75 79.0Q420.0 91.5 416.5 99.5Q413.0 107.5 415.0 107.5Q417.0 107.5 423.75 102.0Q430.5 96.5 439.5 88.25Q448.5 80.0 457.25 71.25Q466.0 62.5 471.75 55.75Q477.5 49.0 477.5 47.0Q477.5 38.5 488.0 38.5Q493.0 38.5 500.5 41.0Q503.5 42.5 517.25 44.0Q531.0 45.5 551.75 46.5Q572.5 47.5 596.0 48.5Q619.0 48.5 638.0 49.5Q657.0 50.5 668.5 51.75Q680.0 53.0 680.0 54.0Q680.0 55.0 667.75 56.0Q655.5 57.0 635.0 58.0Q614.5 59.0 589.5 59.5Q564.5 60.0 542.25 61.0Q520.0 62.0 505.25 63.0Q490.5 64.0 487.5 64.5Q481.5 66.5 474.5 76.0Q467.5 85.5 462.5 97.0Q457.5 108.5 456.25 116.75Q455.0 125.0 460.5 125.0Q462.0 125.0 462.5 126.75Q463.0 128.5 461.0 130.0Q460.5 132.0 463.25 137.75Q466.0 143.5 471.0 149.0Q481.0 159.5 486.25 161.25Q491.5 163.0 488.0 154.5Q486.0 148.5 490.0 148.5Q496.5 148.5 512.5 159.5Q518.5 164.0 523.5 166.25Q528.5 168.5 535.75 169.5Q543.0 170.5 556.5 170.25Q570.0 170.0 593.0 169.5Q620.0 169.0 634.25 168.0Q648.5 167.0 655.25 165.0Q662.0 163.0 665.0 160.0Q670.5 154.5 670.0 153.5Q669.5 152.5 662.0 152.5Q655.5 152.5 658.0 147.75Q660.5 143.0 677.5 124.5Q694.5 105.5 697.25 100.75Q700.0 96.0 693.5 95.5Q687.5 94.5 690.0 89.5Q692.5 84.5 709.0 67.0Q719.0 55.5 729.5 42.5Q740.0 29.5 744.0 22.0ZM499.0 111.0Q500.0 100.0 501.0 92.75Q502.0 85.5 503.0 85.5Q505.5 85.5 519.0 95.5Q525.0 100.0 531.75 102.25Q538.5 104.5 553.0 105.25Q567.5 106.0 597.0 106.5Q624.0 107.0 643.0 109.0Q662.0 111.0 662.0 112.5Q662.0 114.0 647.0 115.25Q632.0 116.5 610.0 116.5Q587.5 116.5 574.0 117.25Q560.5 118.0 551.0 120.5Q541.5 123.0 529.0 128.0Q518.0 132.5 509.5 135.25Q501.0 138.0 498.5 138.0Q498.5 138.0 498.25 138.0Q498.0 138.0 498.0 138.0Q497.5 137.5 498.0 129.5Q498.5 121.5 499.0 111.0Z" fill="black" /></svg>