<svg xmlns="http://www.w3.org/2000/svg" width="958.0" height="461.5" viewBox="0 0 958.0 461.5"><path d="M386.5 360.0 354.0 340.0Q340.5 332.5 328.25 323.25Q316.0 314.0 312.5 309.0Q307.5 303.0 305.5 303.0Q302.5 303.0 299.25 310.5Q296.0 318.0 289.0 337.0Q282.5 354.0 278.5 366.0Q274.5 378.0 274.5 379.0Q274.5 379.0 274.5 379.0Q274.5 379.0 275.0 379.0Q277.0 379.0 287.25 376.5Q297.5 374.0 311.5 370.5Q327.5 366.5 343.5 363.75Q359.5 361.0 367.5 361.0ZM215.5 150.0Q219.5 143.0 221.0 138.75Q222.5 134.5 221.5 134.5Q219.0 134.5 202.5 148.0Q186.0 161.5 164.0 181.5Q149.5 194.0 133.25 207.5Q117.0 221.0 102.75 232.5Q88.5 244.0 79.5 251.0Q67.0 260.5 57.5 268.75Q48.0 277.0 48.0 278.5Q48.0 280.5 57.75 281.75Q67.5 283.0 81.5 283.0Q95.0 283.0 107.5 284.25Q120.0 285.5 125.0 288.5Q129.0 290.5 133.5 290.5Q143.0 290.5 150.25 280.5Q157.5 270.5 159.5 254.0Q160.5 241.5 166.75 227.5Q173.0 213.5 183.5 198.0Q192.5 184.0 201.5 170.25Q210.5 156.5 215.5 150.0ZM305.0 102.5Q306.5 83.5 307.0 70.0Q307.5 56.5 306.0 56.5Q302.0 56.5 290.25 69.25Q278.5 82.0 263.0 102.25Q247.5 122.5 231.25 146.25Q215.0 170.0 201.0 192.5Q187.0 215.0 178.25 231.75Q169.5 248.5 169.5 255.0Q169.5 261.5 168.25 268.5Q167.0 275.5 165.5 279.5Q163.0 288.5 170.0 288.5Q178.5 288.5 175.5 304.5Q174.5 314.5 177.0 320.75Q179.5 327.0 189.0 334.5Q196.0 339.5 207.5 349.25Q219.0 359.0 229.0 368.0Q247.5 384.5 253.0 384.5Q256.5 384.5 261.25 375.75Q266.0 367.0 271.0 353.75Q276.0 340.5 280.5 326.5Q285.0 312.5 288.25 301.25Q291.5 290.0 292.5 286.5Q298.5 261.5 302.5 261.5Q305.5 261.5 308.5 276.5Q312.5 297.5 342.5 319.5Q372.5 341.5 420.0 360.0L434.5 365.5V317.5Q434.5 277.5 425.75 251.75Q417.0 226.0 397.5 208.5Q391.5 202.5 388.0 197.75Q384.5 193.0 385.0 192.5Q386.5 191.5 396.25 190.5Q406.0 189.5 420.0 188.75Q434.0 188.0 449.0 187.75Q464.0 187.5 475.5 187.5Q484.5 187.5 490.0 187.75Q495.5 188.0 495.5 188.5Q495.5 190.0 492.0 193.0Q488.5 196.0 483.5 198.5Q468.0 208.0 458.75 237.25Q449.5 266.5 447.5 310.0Q446.0 335.0 445.75 347.0Q445.5 359.0 447.5 363.25Q449.5 367.5 454.5 370.0Q457.0 371.5 468.75 374.75Q480.5 378.0 497.0 382.25Q513.5 386.5 530.25 390.25Q547.0 394.0 559.75 396.5Q572.5 399.0 576.0 399.0Q577.0 399.0 577.5 386.25Q578.0 373.5 577.75 352.25Q577.5 331.0 577.0 305.25Q576.5 279.5 575.25 253.0Q574.0 226.5 572.75 203.25Q571.5 180.0 570.0 164.0Q568.5 148.0 567.0 143.5L560.5 123.5L496.0 121.5Q430.5 119.5 388.0 132.0Q345.5 144.5 314.0 174.0Q298.5 189.0 294.75 187.5Q291.0 186.0 296.0 167.0Q298.5 159.5 300.75 140.5Q303.0 121.5 305.0 102.5ZM454.5 217.5 461.0 199.5H436.5Q426.5 199.5 419.5 200.75Q412.5 202.0 413.0 204.0Q417.5 213.5 423.75 223.0Q430.0 232.5 435.5 238.75Q441.0 245.0 443.5 245.0Q444.5 245.0 444.5 244.0Q445.5 240.5 448.25 232.75Q451.0 225.0 454.5 217.5ZM677.5 322.5 651.0 315.5Q640.0 313.0 628.75 308.75Q617.5 304.5 612.0 301.0Q605.5 297.0 603.5 297.0Q600.5 297.0 600.0 303.0Q599.5 309.0 599.5 324.5Q599.5 341.5 601.0 348.0Q602.5 354.5 606.5 352.5Q609.5 351.5 621.25 346.5Q633.0 341.5 645.5 336.5ZM337.5 92.5Q332.5 89.0 327.75 86.25Q323.0 83.5 322.5 83.5Q320.5 83.5 318.25 93.75Q316.0 104.0 314.25 117.25Q312.5 130.5 312.5 140.0V154.5L395.0 114.5L373.0 108.0Q363.5 105.5 353.25 101.0Q343.0 96.5 337.5 92.5ZM677.5 196.0 651.0 189.5Q640.0 187.0 628.75 182.25Q617.5 177.5 612.0 174.0Q605.5 170.0 603.5 170.0Q600.5 170.0 600.0 176.0Q599.5 182.0 599.5 198.0Q599.5 226.5 604.5 226.5Q605.5 226.5 611.25 224.25Q617.0 222.0 624.5 218.75Q632.0 215.5 638.0 212.75Q644.0 210.0 645.5 209.5ZM613.0 40.0Q615.0 34.5 608.25 32.75Q601.5 31.0 577.5 31.0Q561.5 31.0 550.75 32.25Q540.0 33.5 540.5 34.5Q545.5 42.0 551.25 56.25Q557.0 70.5 562.75 87.0Q568.5 103.5 572.5 119.0L582.0 159.0L588.5 125.5Q592.5 103.0 599.5 80.0Q606.5 57.0 613.0 40.0ZM908.5 37.5Q908.0 37.0 900.0 36.0Q892.0 35.0 880.75 34.0Q869.5 33.0 858.25 32.25Q847.0 31.5 839.5 31.0Q832.0 30.5 832.0 31.0Q832.0 31.0 835.0 37.5Q838.0 44.0 842.0 53.0Q847.0 61.5 853.0 78.75Q859.0 96.0 863.0 111.5Q867.0 128.0 870.75 139.25Q874.5 150.5 875.5 150.5Q877.0 150.5 880.0 138.75Q883.0 127.0 885.5 111.0Q889.0 94.5 893.25 78.25Q897.5 62.0 901.0 55.5Q904.5 48.5 906.75 43.25Q909.0 38.0 908.5 37.5ZM517.0 19.5Q517.0 10.0 526.0 15.0Q535.5 18.5 552.0 20.25Q568.5 22.0 585.0 22.0Q595.0 22.0 604.25 21.25Q613.5 20.5 619.5 18.5Q624.0 17.0 628.25 16.5Q632.5 16.0 636.0 16.0Q646.0 16.0 649.25 19.25Q652.5 22.5 642.0 26.5Q632.5 30.0 622.25 51.25Q612.0 72.5 606.0 101.0Q600.5 125.0 600.25 137.25Q600.0 149.5 608.0 156.25Q616.0 163.0 634.0 170.5Q647.0 176.0 671.5 180.75Q696.0 185.5 725.25 188.75Q754.5 192.0 782.5 193.0Q810.5 194.0 830.5 192.5Q845.0 191.5 855.0 192.25Q865.0 193.0 865.0 194.0Q865.0 200.5 840.5 203.0Q816.0 205.5 765.0 204.0Q736.0 203.5 718.75 204.0Q701.5 204.5 688.75 207.0Q676.0 209.5 660.0 215.0Q645.0 220.0 629.0 228.5Q613.0 237.0 606.0 243.0Q593.5 253.0 591.75 257.75Q590.0 262.5 594.0 270.0Q605.5 292.5 655.0 305.0Q704.5 317.5 786.0 318.0Q808.0 318.0 825.75 318.5Q843.5 319.0 854.25 320.0Q865.0 321.0 865.0 322.5Q865.0 325.0 848.75 327.25Q832.5 329.5 806.25 330.75Q780.0 332.0 749.0 332.0Q700.5 330.5 668.0 338.75Q635.5 347.0 607.5 368.0Q595.5 377.5 592.0 384.5Q588.5 391.5 588.5 408.0Q588.5 417.5 587.25 424.5Q586.0 431.5 583.0 431.5Q581.0 431.5 579.25 429.0Q577.5 426.5 577.5 421.5Q577.5 417.5 572.25 414.25Q567.0 411.0 552.0 406.75Q537.0 402.5 508.0 396.0Q478.0 390.0 456.0 383.75Q434.0 377.5 432.0 375.5Q429.0 373.0 420.75 371.5Q412.5 370.0 401.0 370.0Q383.5 370.0 361.25 372.5Q339.0 375.0 318.5 379.75Q298.0 384.5 284.5 390.5L263.5 400.5L279.5 424.0Q286.5 433.5 290.0 441.25Q293.5 449.0 291.5 450.5Q289.5 451.5 285.0 448.25Q280.5 445.0 277.0 438.5Q268.0 425.0 250.25 406.25Q232.5 387.5 210.5 367.75Q188.5 348.0 166.75 331.0Q145.0 314.0 128.5 304.5Q120.5 300.5 108.5 297.25Q96.5 294.0 87.5 294.0Q79.5 294.0 64.75 292.75Q50.0 291.5 38.0 290.0L10.0 286.5L49.5 259.5Q71.5 244.0 98.25 222.5Q125.0 201.0 153.25 176.75Q181.5 152.5 208.0 128.5Q234.5 104.5 255.5 84.0Q276.5 63.5 289.0 49.0Q301.5 34.5 301.5 30.0Q301.5 27.5 304.25 25.25Q307.0 23.0 309.5 23.0Q315.0 23.0 315.75 25.25Q316.5 27.5 312.5 34.5Q306.5 45.5 312.5 45.5Q318.5 45.5 318.5 53.0Q318.5 60.5 327.0 69.0Q335.5 77.5 349.75 85.25Q364.0 93.0 380.5 98.0Q414.5 106.5 451.5 109.0Q488.5 111.5 523.5 111.5Q544.5 111.5 550.25 109.75Q556.0 108.0 556.0 104.5Q556.0 100.0 552.0 89.0Q548.0 78.0 542.25 65.5Q536.5 53.0 531.25 43.25Q526.0 33.5 523.5 32.0Q517.0 28.5 517.0 19.5ZM809.5 19.5Q809.5 10.5 819.5 15.0Q828.0 18.5 846.75 20.25Q865.5 22.0 884.0 22.0Q895.5 22.0 905.0 21.25Q914.5 20.5 919.0 18.5Q928.0 15.5 933.0 15.5Q948.0 15.5 926.5 39.5Q903.5 63.0 892.75 132.25Q882.0 201.5 881.0 322.5Q881.0 374.0 879.75 402.75Q878.5 431.5 875.5 431.5Q873.5 431.5 871.75 400.25Q870.0 369.0 870.0 312.0Q870.0 275.0 869.5 249.75Q869.0 224.5 868.0 206.0Q867.0 187.5 865.0 173.0Q863.0 158.5 859.5 143.5Q854.0 118.0 846.5 95.0Q839.0 72.0 831.25 55.5Q823.5 39.0 817.5 34.0Q809.5 27.0 809.5 19.5Z" fill="black" /></svg>