<svg xmlns="http://www.w3.org/2000/svg" width="660.0" height="465.0" viewBox="0 0 660.0 465.0"><path d="M167.5 297.5Q156.5 285.5 145.5 271.5Q134.5 257.5 129.5 250.5Q118.5 234.0 118.5 238.5Q118.5 240.5 110.75 251.0Q103.0 261.5 92.0 274.0L65.0 303.0H88.5Q98.0 303.0 113.0 305.25Q128.0 307.5 139.0 311.0Q151.0 313.5 163.75 316.75Q176.5 320.0 182.0 322.0Q190.5 324.0 187.75 319.25Q185.0 314.5 167.5 297.5ZM255.0 250.5Q253.5 250.5 245.75 244.75Q238.0 239.0 229.0 231.0L208.0 213.0V294.0L223.5 280.0Q229.5 274.5 237.75 269.75Q246.0 265.0 249.5 263.5Q258.0 261.0 260.0 255.75Q262.0 250.5 255.0 250.5ZM423.0 209.0Q422.0 193.0 416.0 193.0Q409.5 193.0 392.0 211.0Q383.0 221.5 377.75 230.0Q372.5 238.5 374.0 240.0Q374.5 242.0 382.75 243.5Q391.0 245.0 402.0 245.0Q412.5 245.0 420.75 246.5Q429.0 248.0 431.0 250.5Q433.0 255.5 439.0 255.5Q441.5 255.5 439.75 249.75Q438.0 244.0 434.0 236.5Q429.0 228.0 426.0 220.0Q423.0 212.0 423.0 209.0ZM202.5 66.0Q202.5 64.5 192.5 63.25Q182.5 62.0 169.5 62.0H136.0L168.5 118.0L177.0 102.0Q181.0 94.0 186.0 87.5Q191.0 81.0 194.5 78.0Q198.0 74.5 200.25 71.5Q202.5 68.5 202.5 66.0ZM478.0 137.0Q476.0 132.5 473.75 123.25Q471.5 114.0 470.5 104.5L467.0 82.0L445.0 108.0Q435.5 119.0 429.25 127.25Q423.0 135.5 423.0 137.0Q423.0 138.5 437.5 138.5Q443.0 138.5 451.75 139.75Q460.5 141.0 467.0 142.0Q476.5 144.5 478.5 144.0Q480.5 143.5 478.0 137.0ZM616.5 143.5Q616.5 142.0 606.5 141.25Q596.5 140.5 583.0 140.5Q569.0 140.5 558.75 141.0Q548.5 141.5 548.5 142.0Q548.5 143.0 552.0 152.0Q555.5 161.0 561.0 172.5Q566.5 183.5 571.25 195.0Q576.0 206.5 577.5 211.0Q579.0 216.0 580.5 216.0Q583.0 216.0 589.5 198.0Q592.0 188.5 597.25 177.0Q602.5 165.5 606.5 160.5Q611.5 155.0 614.0 150.0Q616.5 145.0 616.5 143.5ZM601.0 28.0Q601.0 26.0 592.5 25.25Q584.0 24.5 571.5 24.5H540.5L573.5 58.0L588.0 44.0Q593.5 37.5 597.25 33.0Q601.0 28.5 601.0 28.0ZM511.5 11.5Q511.5 10.0 519.0 10.0Q526.5 10.0 536.0 11.5Q546.0 12.5 565.5 13.5Q585.0 14.5 601.0 14.5Q632.0 14.5 641.0 18.5Q650.0 22.5 630.0 28.0Q625.5 28.5 616.75 33.75Q608.0 39.0 601.0 45.5Q594.0 53.0 590.5 58.25Q587.0 63.5 586.25 71.5Q585.5 79.5 585.5 95.0V129.5H613.5Q626.0 129.5 634.5 130.75Q643.0 132.0 643.0 134.5Q643.0 136.5 638.75 142.0Q634.5 147.5 627.5 153.5Q617.5 162.0 610.0 176.0Q602.5 190.0 598.75 204.0Q595.0 218.0 597.0 227.0Q599.5 232.0 599.0 236.0Q598.5 240.0 595.5 240.0Q593.5 240.0 592.5 250.5Q591.5 261.0 591.25 277.0Q591.0 293.0 591.25 309.75Q591.5 326.5 592.5 339.25Q593.5 352.0 595.5 356.0Q598.5 360.0 599.0 364.75Q599.5 369.5 597.0 372.0Q596.0 374.5 595.5 387.5Q595.0 400.5 595.5 416.0Q596.5 434.5 594.75 444.75Q593.0 455.0 591.5 455.0Q589.0 455.0 587.25 446.5Q585.5 438.0 585.5 424.0Q585.5 401.5 584.25 388.0Q583.0 374.5 577.25 365.0Q571.5 355.5 559.25 344.5Q547.0 333.5 524.5 316.0Q509.5 305.0 494.0 294.75Q478.5 284.5 466.25 277.0Q454.0 269.5 448.0 267.0Q438.0 263.5 421.75 261.25Q405.5 259.0 387.0 257.75Q368.5 256.5 351.0 256.0Q333.5 255.5 321.5 255.5Q306.5 255.5 297.75 256.5Q289.0 257.5 281.75 260.5Q274.5 263.5 264.5 269.5Q249.0 277.5 234.75 286.5Q220.5 295.5 211.5 303.0Q202.5 310.5 202.5 314.0Q202.5 315.0 210.75 322.25Q219.0 329.5 232.5 340.25Q246.0 351.0 262.5 363.5Q287.5 382.0 305.25 396.5Q323.0 411.0 323.0 413.0Q323.0 416.0 321.0 416.0Q318.5 416.0 310.0 410.25Q301.5 404.5 282.0 390.5Q232.0 353.5 181.0 333.75Q130.0 314.0 90.0 314.0Q74.5 314.0 61.0 317.0Q47.5 320.0 37.0 326.5Q29.5 331.0 23.75 333.0Q18.0 335.0 15.0 335.0Q10.0 335.0 12.0 330.5Q14.0 326.0 26.0 319.0Q36.5 312.5 50.25 299.75Q64.0 287.0 77.5 272.25Q91.0 257.5 100.75 244.0Q110.5 230.5 113.0 223.0Q118.0 207.5 122.0 207.5Q126.0 207.5 137.0 234.5Q140.0 245.5 146.5 256.0Q153.0 266.5 158.5 271.0L171.0 283.5V214.5Q171.0 190.0 170.75 175.5Q170.5 161.0 169.0 152.0Q167.5 143.0 164.0 135.25Q160.5 127.5 154.5 116.5Q148.0 104.0 138.5 89.25Q129.0 74.5 122.0 68.0Q115.5 61.0 111.25 55.75Q107.0 50.5 108.5 50.0Q109.5 49.0 129.25 49.5Q149.0 50.0 175.0 51.0L242.0 53.5L222.5 66.0Q208.5 75.5 200.75 83.5Q193.0 91.5 189.25 103.5Q185.5 115.5 184.25 137.75Q183.0 160.0 182.0 198.0Q181.5 224.0 181.25 245.75Q181.0 267.5 181.75 280.75Q182.5 294.0 184.0 296.0Q187.0 300.5 189.0 300.5Q197.0 300.5 197.0 239.5Q197.0 217.5 198.5 202.0Q200.0 186.5 202.5 185.5Q208.0 181.0 208.0 187.0Q208.0 190.5 213.5 198.0Q219.0 205.5 227.25 213.75Q235.5 222.0 244.0 228.75Q252.5 235.5 258.5 238.0Q265.5 241.0 280.75 243.0Q296.0 245.0 310.5 245.0H346.0L387.0 202.0Q404.5 184.5 416.0 173.0Q427.5 161.5 428.0 161.5Q428.0 162.5 428.5 170.5Q429.0 178.5 430.5 189.0Q431.0 198.5 434.25 211.0Q437.5 223.5 442.0 230.5Q444.5 235.0 455.25 245.5Q466.0 256.0 481.5 269.25Q497.0 282.5 514.5 296.0L577.5 345.0L579.5 302.0Q580.0 278.5 578.75 262.75Q577.5 247.0 572.75 235.5Q568.0 224.0 558.5 213.25Q549.0 202.5 533.0 189.0Q518.5 175.5 508.5 168.25Q498.5 161.0 489.5 157.5Q480.5 154.0 467.0 151.0Q454.5 149.5 439.5 148.25Q424.5 147.0 416.0 147.5Q412.5 148.0 409.0 148.25Q405.5 148.5 403.0 148.5Q396.0 148.5 396.0 147.0Q396.0 146.0 403.5 136.75Q411.0 127.5 422.0 117.0Q432.0 106.0 443.25 93.0Q454.5 80.0 460.5 73.5Q466.0 66.5 471.5 61.5Q477.0 56.5 479.0 56.5Q480.0 56.5 480.5 64.75Q481.0 73.0 481.0 84.5Q480.0 112.5 487.0 126.0Q490.0 131.0 500.0 141.75Q510.0 152.5 522.25 163.75Q534.5 175.0 544.5 183.0Q554.5 191.0 557.5 191.0Q558.5 190.0 554.75 181.25Q551.0 172.5 544.0 160.5Q537.5 148.5 532.75 138.75Q528.0 129.0 528.0 127.5Q528.0 126.5 534.5 126.5Q537.5 126.5 542.0 126.5Q546.5 126.5 551.5 127.5L575.0 131.0V103.5Q575.0 89.0 573.25 81.75Q571.5 74.5 565.0 67.0Q558.5 59.5 543.0 44.5Q530.5 32.5 521.0 22.5Q511.5 12.5 511.5 11.5Z" fill="black" /></svg>