<svg xmlns="http://www.w3.org/2000/svg" width="994.5" height="465.5" viewBox="0 0 994.5 465.5"><path d="M173.0 205.0Q182.0 193.0 178.0 193.0Q171.5 193.0 150.5 211.0Q145.0 216.0 134.25 224.25Q123.5 232.5 111.0 242.0Q98.5 251.5 87.0 260.0L44.5 290.0L81.0 296.5Q98.5 299.5 109.0 299.5Q121.5 299.5 126.5 294.5Q131.5 289.5 131.5 278.0Q131.5 262.0 173.0 205.0ZM345.5 205.5 313.5 196.0Q299.5 192.0 289.75 188.5Q280.0 185.0 279.0 185.0Q278.5 185.0 278.25 193.75Q278.0 202.5 278.0 215.5V246.5L292.5 237.5Q299.0 233.5 309.0 227.5Q319.0 221.5 326.0 216.5ZM535.5 187.5Q520.5 174.0 514.5 174.0Q510.0 174.0 510.0 180.5Q510.0 184.0 507.25 190.0Q504.5 196.0 502.0 203.0Q496.5 214.0 498.0 216.25Q499.5 218.5 513.5 221.0Q522.5 222.5 540.25 225.5Q558.0 228.5 573.5 231.0Q589.5 234.5 601.25 236.25Q613.0 238.0 613.5 237.5Q614.0 236.5 605.25 231.25Q596.5 226.0 583.5 218.5Q570.0 211.0 555.75 201.75Q541.5 192.5 535.5 187.5ZM669.5 103.5 634.0 87.0Q619.0 80.0 603.5 71.25Q588.0 62.5 580.5 56.5Q568.0 47.0 563.5 47.0Q561.0 47.0 560.0 50.0Q558.5 55.0 556.25 65.25Q554.0 75.5 551.75 86.5Q549.5 97.5 548.5 105.5Q547.5 113.5 548.0 114.5Q549.0 114.5 556.5 113.5Q564.0 112.5 573.5 109.5Q583.5 107.5 601.25 106.0Q619.0 104.5 634.0 104.5ZM299.0 390.5 328.0 374.0 261.0 352.5V379.5Q261.0 390.5 262.5 398.25Q264.0 406.0 265.5 406.0Q268.0 406.0 277.75 401.25Q287.5 396.5 299.0 390.5ZM571.0 298.0Q571.0 296.5 566.0 296.5Q564.0 296.5 547.5 299.25Q531.0 302.0 510.0 305.5Q488.5 309.0 472.5 311.75Q456.5 314.5 455.5 314.5Q455.5 314.5 457.0 321.75Q458.5 329.0 462.0 339.0L468.5 361.5L487.5 347.0Q496.0 341.5 510.75 332.5Q525.5 323.5 539.0 317.0Q552.0 310.0 561.5 304.75Q571.0 299.5 571.0 298.0ZM559.0 369.5Q553.0 366.0 547.75 363.75Q542.5 361.5 542.0 361.5Q541.5 361.5 540.75 372.25Q540.0 383.0 540.0 397.5Q540.0 412.5 540.75 422.75Q541.5 433.0 542.0 433.0Q542.5 433.0 546.0 431.25Q549.5 429.5 554.5 427.5Q559.5 425.0 579.0 419.75Q598.5 414.5 621.5 409.5L677.5 397.0L626.0 387.0Q605.0 383.5 585.5 378.25Q566.0 373.0 559.0 369.5ZM244.0 119.0Q253.0 104.5 256.0 104.5Q258.5 104.5 258.5 111.5Q258.5 115.0 249.0 127.5Q239.5 140.0 226.5 155.0Q202.0 183.0 182.75 209.5Q163.5 236.0 152.0 257.0Q140.5 278.0 138.5 290.25Q136.5 302.5 146.0 302.5Q151.5 302.5 151.75 304.25Q152.0 306.0 148.0 311.0Q141.5 318.0 147.5 327.5Q153.5 337.0 178.5 358.0Q190.5 369.0 202.5 381.25Q214.5 393.5 223.5 404.75Q232.5 416.0 237.25 424.0Q242.0 432.0 239.5 434.0Q238.0 436.0 233.25 432.0Q228.5 428.0 224.0 421.5Q215.5 409.5 200.25 394.0Q185.0 378.5 166.25 362.5Q147.5 346.5 128.0 332.5Q112.0 321.0 102.25 315.5Q92.5 310.0 81.75 307.75Q71.0 305.5 52.0 304.5Q35.0 303.0 22.5 301.25Q10.0 299.5 10.0 298.0Q10.0 297.0 18.0 291.25Q26.0 285.5 37.5 279.0Q47.0 273.5 65.0 261.0Q83.0 248.5 105.5 231.75Q128.0 215.0 151.0 197.25Q174.0 179.5 194.25 163.25Q214.5 147.0 228.0 135.0Q241.5 123.0 244.0 119.0ZM266.5 150.5Q267.5 150.5 272.75 154.75Q278.0 159.0 284.5 166.0Q296.0 177.0 312.25 183.75Q328.5 190.5 354.0 193.25Q379.5 196.0 417.5 196.0Q446.0 196.0 462.25 195.25Q478.5 194.5 486.75 191.75Q495.0 189.0 497.75 183.25Q500.5 177.5 502.0 167.5Q505.0 147.0 510.0 147.0Q513.5 147.0 520.0 157.5Q524.0 164.5 539.25 176.0Q554.5 187.5 575.5 200.25Q596.5 213.0 618.25 224.75Q640.0 236.5 657.25 243.75Q674.5 251.0 682.0 251.0Q686.0 251.0 700.75 247.0Q715.5 243.0 737.5 236.0Q759.5 229.0 784.5 221.0Q824.5 207.5 844.25 201.0Q864.0 194.5 871.0 192.75Q878.0 191.0 879.0 192.5Q879.5 193.0 879.5 196.0Q879.5 197.0 867.75 202.25Q856.0 207.5 836.25 214.75Q816.5 222.0 792.5 230.0Q768.5 237.5 748.25 244.25Q728.0 251.0 715.25 255.5Q702.5 260.0 701.0 261.0Q696.5 263.5 729.25 278.75Q762.0 294.0 840.5 326.0Q862.0 334.5 879.0 342.5Q896.0 350.5 906.0 355.75Q916.0 361.0 915.0 362.5Q914.5 364.0 911.0 364.0Q906.5 364.0 893.25 359.25Q880.0 354.5 850.75 342.25Q821.5 330.0 769.0 308.0L673.0 266.5L637.0 282.0Q619.5 289.0 601.5 297.5Q583.5 306.0 568.5 314.0Q553.5 322.0 544.0 328.25Q534.5 334.5 533.5 337.0Q532.0 342.0 544.0 349.0Q556.0 356.0 577.25 363.0Q598.5 370.0 623.5 375.0Q675.0 385.0 737.5 390.0Q800.0 395.0 883.0 395.0Q933.0 395.0 958.75 396.5Q984.5 398.0 984.5 400.5Q984.5 406.5 839.5 405.0Q800.5 405.0 773.25 405.25Q746.0 405.5 727.0 406.0Q708.0 406.5 693.5 407.75Q679.0 409.0 665.75 411.25Q652.5 413.5 637.0 416.5Q621.5 419.5 605.0 424.25Q588.5 429.0 574.75 433.75Q561.0 438.5 553.5 442.0Q542.0 447.5 533.75 451.5Q525.5 455.5 524.5 455.5Q524.0 455.5 525.0 445.75Q526.0 436.0 528.0 422.0Q533.5 391.0 529.0 369.5Q524.5 348.0 513.0 348.0Q508.0 348.0 503.0 351.5Q498.0 355.0 495.5 359.5Q493.5 365.0 489.5 368.75Q485.5 372.5 482.0 372.5Q478.5 372.5 474.0 374.25Q469.5 376.0 467.5 378.5Q464.5 382.0 459.0 382.0Q456.0 382.0 453.0 380.5Q450.5 378.5 435.75 377.75Q421.0 377.0 402.5 377.0Q361.5 378.0 327.75 389.75Q294.0 401.5 273.5 420.5Q265.5 428.0 259.75 433.75Q254.0 439.5 253.0 439.5Q252.5 439.5 251.75 424.75Q251.0 410.0 251.0 390.5Q251.0 370.0 250.0 353.0Q249.0 336.0 246.5 332.5Q243.0 322.5 248.25 323.5Q253.5 324.5 268.5 337.0Q274.5 342.5 285.5 348.0Q296.5 353.5 304.5 356.0Q317.0 359.0 334.5 361.25Q352.0 363.5 370.75 364.75Q389.5 366.0 405.0 366.0Q412.0 366.0 418.25 365.75Q424.5 365.5 429.5 365.0Q444.0 362.5 449.75 358.75Q455.5 355.0 453.75 346.0Q452.0 337.0 443.0 320.0Q439.0 311.0 435.5 304.0Q432.0 297.0 432.0 296.5Q432.0 295.5 436.5 295.5Q443.0 295.5 455.0 297.0Q459.0 297.5 464.25 298.25Q469.5 299.0 475.5 299.0Q484.0 299.0 493.5 298.0Q503.0 297.0 511.0 295.5Q534.5 291.5 557.75 286.25Q581.0 281.0 600.25 276.25Q619.5 271.5 631.0 267.5Q642.5 263.5 642.5 262.0Q642.5 260.0 632.5 256.75Q622.5 253.5 606.75 249.5Q591.0 245.5 573.0 242.0Q555.0 238.5 538.25 236.25Q521.5 234.0 510.0 234.0Q483.0 233.0 476.0 229.75Q469.0 226.5 479.5 218.5Q483.0 215.0 485.25 212.25Q487.5 209.5 487.5 207.5Q487.5 206.0 470.0 206.0Q453.5 206.0 428.5 207.5Q377.5 209.5 343.75 221.5Q310.0 233.5 288.0 257.5Q274.5 272.5 270.0 272.5Q269.5 272.0 268.75 260.75Q268.0 249.5 267.5 232.5Q267.0 215.5 266.5 198.0Q266.0 180.5 266.0 167.25Q266.0 154.0 266.5 150.5ZM551.0 26.5Q551.0 19.5 552.75 14.75Q554.5 10.0 556.5 10.0Q561.5 10.0 561.5 17.5Q561.5 30.0 584.0 45.75Q606.5 61.5 646.5 78.5Q686.5 95.5 738.75 111.25Q791.0 127.0 850.5 139.5Q880.5 146.0 899.75 152.0Q919.0 158.0 916.5 160.5Q915.0 162.0 910.0 162.0Q896.5 162.0 860.0 154.0Q823.5 146.0 766.5 131.5Q743.0 125.0 727.5 121.75Q712.0 118.5 698.5 117.0Q685.0 115.5 666.5 115.5Q649.5 115.5 627.5 116.25Q605.5 117.0 584.5 119.5Q563.5 122.0 549.0 128.5Q534.0 135.5 529.0 135.5Q522.0 135.5 531.0 117.0Q535.5 108.0 540.25 91.0Q545.0 74.0 548.0 56.0Q551.0 38.0 551.0 26.5Z" fill="black" /></svg>