<svg xmlns="http://www.w3.org/2000/svg" width="883.5" height="458.5" viewBox="0 0 883.5 458.5"><path d="M110.5 311.0Q93.0 307.0 76.25 302.5Q59.5 298.0 52.5 293.5Q46.5 291.0 43.0 289.75Q39.5 288.5 38.0 288.5Q35.0 288.5 35.0 294.5Q35.0 298.5 34.25 310.25Q33.5 322.0 32.5 333.5L27.5 361.5L54.5 351.0Q64.5 346.0 83.25 339.75Q102.0 333.5 118.5 329.0Q134.5 324.5 145.25 322.0Q156.0 319.5 154.0 319.5Q152.5 318.5 139.5 316.25Q126.5 314.0 110.5 311.0ZM210.5 250.5Q210.5 238.0 208.0 238.0Q206.5 238.0 203.25 240.5Q200.0 243.0 194.5 247.0Q183.5 256.5 183.5 260.0Q183.5 263.5 196.0 263.5Q204.5 263.5 207.5 261.0Q210.5 258.5 210.5 250.5ZM287.0 239.5Q289.5 226.5 285.0 226.5Q281.5 226.5 270.5 236.0Q259.5 245.5 259.5 249.0Q259.5 252.5 272.0 252.5Q284.5 252.5 287.0 239.5ZM299.5 187.5Q298.0 185.0 291.75 183.75Q285.5 182.5 277.5 182.5Q268.0 182.5 261.25 185.25Q254.5 188.0 248.5 196.5Q222.0 234.0 222.5 255.5Q223.0 277.0 251.0 296.0Q261.0 303.0 268.25 306.5Q275.5 310.0 284.5 311.25Q293.5 312.5 308.0 312.5Q330.0 312.5 334.75 311.25Q339.5 310.0 335.5 304.5Q326.0 294.0 303.75 282.0Q281.5 270.0 257.0 263.5L224.5 255.0L241.0 243.5Q251.0 237.0 261.75 228.5Q272.5 220.0 281.5 211.25Q290.5 202.5 295.75 196.0Q301.0 189.5 299.5 187.5ZM415.5 311.0Q419.5 310.0 415.5 309.25Q411.5 308.5 402.5 309.0Q394.5 309.0 391.25 309.5Q388.0 310.0 393.5 311.0Q399.0 312.0 405.25 311.75Q411.5 311.5 415.5 311.0ZM440.5 278.5Q434.5 268.0 429.0 260.25Q423.5 252.5 422.0 252.5Q420.5 252.5 416.0 258.5Q411.5 264.5 406.5 272.5Q401.5 280.5 398.0 286.75Q394.5 293.0 395.5 293.5Q397.0 294.5 405.75 296.5Q414.5 298.5 425.25 300.75Q436.0 303.0 444.5 304.0Q453.0 305.0 453.5 304.5Q454.5 304.5 450.5 296.5Q446.5 288.5 440.5 278.5ZM521.5 248.5Q476.0 227.5 451.5 227.5Q430.5 227.5 435.0 243.5Q439.0 257.5 448.75 273.25Q458.5 289.0 470.5 302.75Q482.5 316.5 494.0 325.0Q505.5 333.5 513.5 333.5Q516.5 333.5 518.5 332.0Q521.5 330.0 528.0 321.25Q534.5 312.5 541.5 301.5Q548.5 290.5 553.25 281.25Q558.0 272.0 558.0 268.5Q558.0 267.5 547.25 261.25Q536.5 255.0 521.5 248.5ZM579.5 274.5Q579.5 269.0 577.0 269.0Q574.0 269.0 569.25 275.75Q564.5 282.5 559.25 292.0Q554.0 301.5 550.5 309.75Q547.0 318.0 547.0 321.0Q547.0 321.5 561.25 322.5Q575.5 323.5 594.0 323.5Q613.0 323.5 628.75 324.5Q644.5 325.5 646.5 327.0Q652.0 330.0 652.5 330.0Q653.5 330.0 642.0 321.5Q630.5 313.0 613.0 301.5Q599.0 293.0 589.25 285.25Q579.5 277.5 579.5 274.5ZM321.0 158.0Q323.5 149.5 324.5 144.0Q325.5 138.5 324.5 138.5Q321.5 138.5 314.5 143.5Q307.5 148.5 299.75 155.0Q292.0 161.5 287.75 166.5Q283.5 171.5 286.0 171.5Q294.5 171.5 305.0 175.0Q311.5 176.0 314.5 172.5Q317.5 169.0 321.0 158.0ZM382.0 229.0Q374.5 223.5 362.5 216.5Q350.5 209.5 342.0 205.0L319.0 193.0L308.0 216.0Q285.0 257.0 320.5 279.5Q327.5 283.5 336.25 290.25Q345.0 297.0 348.5 301.5Q355.5 310.0 359.0 310.0Q363.0 310.0 371.5 301.0Q380.0 292.0 389.0 280.0Q398.0 268.0 404.5 258.0Q411.0 248.0 411.0 245.5Q411.0 242.0 404.5 242.0Q402.5 242.0 395.75 238.0Q389.0 234.0 382.0 229.0ZM507.5 228.5Q507.5 227.5 503.5 219.25Q499.5 211.0 493.5 198.5L477.0 171.0L464.0 191.0L449.0 212.0L477.0 221.0Q488.5 224.5 497.0 226.5Q505.5 228.5 507.5 228.5ZM696.0 252.5Q698.0 247.5 692.0 247.5Q683.0 247.5 683.0 252.5Q683.0 258.5 688.0 258.5Q690.0 258.5 692.75 256.75Q695.5 255.0 696.0 252.5ZM696.0 301.5Q695.5 300.0 692.75 298.0Q690.0 296.0 688.0 296.0Q686.0 296.0 684.5 298.0Q683.0 300.0 683.0 301.5Q683.0 303.5 685.75 305.5Q688.5 307.5 692.0 307.5Q695.0 307.5 696.0 305.5Q697.0 303.5 696.0 301.5ZM808.5 343.0V307.5L766.5 308.5Q735.0 309.0 714.25 312.75Q693.5 316.5 687.5 322.0Q681.5 327.5 694.0 334.0Q698.5 336.5 710.25 341.75Q722.0 347.0 737.0 353.25Q752.0 359.5 766.5 365.0Q781.0 370.5 791.25 374.0Q801.5 377.5 803.0 377.5Q805.5 377.5 807.0 367.75Q808.5 358.0 808.5 343.0ZM597.0 136.0 605.5 111.5H563.5L572.5 131.5Q578.0 143.5 581.0 149.5Q584.0 155.5 586.5 155.5Q589.0 155.5 591.25 150.5Q593.5 145.5 597.0 136.0ZM699.0 146.0Q699.0 144.0 690.5 144.0Q687.5 144.0 686.25 145.75Q685.0 147.5 685.5 150.0Q688.0 152.5 691.0 152.5Q694.0 152.5 696.5 150.75Q699.0 149.0 699.0 146.0ZM698.0 196.5Q700.5 193.0 694.0 193.0Q691.0 193.0 689.75 194.25Q688.5 195.5 690.0 196.5Q694.0 199.5 698.0 196.5ZM741.5 115.0Q715.5 103.5 699.75 99.25Q684.0 95.0 666.5 95.0Q653.0 95.0 645.5 96.25Q638.0 97.5 633.0 101.25Q628.0 105.0 621.5 112.5Q609.0 128.0 602.75 154.75Q596.5 181.5 592.5 228.5L589.0 272.5L623.5 295.5Q638.5 305.0 651.0 311.5Q663.5 318.0 665.5 318.0Q668.0 318.0 670.0 312.75Q672.0 307.5 672.0 299.5Q672.0 289.5 673.0 285.5Q674.0 281.5 677.0 281.5Q679.0 281.5 682.0 283.0Q713.0 296.0 768.5 296.0H808.5L806.0 256.5L760.5 257.5Q741.0 258.0 723.25 260.25Q705.5 262.5 696.0 267.0Q688.0 270.0 681.0 272.25Q674.0 274.5 672.5 274.5Q671.5 274.5 671.0 267.25Q670.5 260.0 671.0 250.5Q672.0 240.0 673.0 233.0Q674.0 226.0 674.5 226.0Q675.5 226.0 680.75 228.25Q686.0 230.5 692.5 235.0Q698.5 237.5 713.0 240.0Q727.5 242.5 745.25 243.75Q763.0 245.0 777.5 245.0Q789.0 245.0 796.75 244.0Q804.5 243.0 806.0 241.0Q808.0 239.5 807.75 232.75Q807.5 226.0 806.0 218.0L802.5 198.5H763.0Q743.0 198.5 728.25 201.25Q713.5 204.0 701.0 209.0Q692.0 213.0 685.5 215.75Q679.0 218.5 678.0 218.5Q677.5 218.5 677.5 218.5Q677.5 218.5 677.5 218.5Q677.0 217.5 676.5 208.0Q676.0 198.5 675.75 185.5Q675.5 172.5 675.25 159.25Q675.0 146.0 675.0 137.0Q675.0 128.0 675.5 127.0Q676.5 126.0 681.5 127.0Q686.5 128.0 692.5 131.0Q699.0 134.0 713.75 136.75Q728.5 139.5 744.75 141.25Q761.0 143.0 772.5 143.0Q787.0 143.0 787.0 140.5Q787.0 138.5 773.75 130.75Q760.5 123.0 741.5 115.0ZM801.0 187.5 799.0 171.5 795.5 155.0H754.5Q721.0 155.0 704.5 160.0Q688.0 165.0 690.0 172.5Q692.5 180.0 708.5 183.25Q724.5 186.5 759.5 187.0ZM683.5 82.0 665.0 63.5Q657.5 56.5 651.0 51.5Q644.5 46.5 643.5 46.5Q643.0 46.5 639.5 52.5Q636.0 58.5 632.25 66.25Q628.5 74.0 625.75 80.25Q623.0 86.5 623.5 87.5Q625.0 87.5 634.25 86.25Q643.5 85.0 654.5 84.0ZM833.0 91.5 839.5 74.5 810.5 73.0Q798.0 72.0 789.5 72.75Q781.0 73.5 781.0 74.5Q781.0 76.0 783.75 85.75Q786.5 95.5 791.5 107.0Q795.5 118.5 799.75 132.5Q804.0 146.5 806.0 154.5Q809.0 169.0 812.0 169.0Q817.0 169.0 821.0 138.0Q822.5 126.5 826.0 113.0Q829.5 99.5 833.0 91.5ZM641.5 19.0Q643.0 10.0 648.5 10.0Q653.0 10.0 653.0 17.5Q655.0 40.0 674.25 59.0Q693.5 78.0 736.0 100.0Q767.0 116.0 776.0 116.0Q782.5 116.0 781.25 109.0Q780.0 102.0 773.0 88.0Q767.0 77.0 763.25 68.25Q759.5 59.5 759.5 57.5Q759.5 55.5 764.5 55.5Q768.0 55.5 773.0 56.5Q778.0 57.5 784.0 59.0Q790.5 60.0 796.25 60.75Q802.0 61.5 808.0 61.5Q814.5 61.5 820.75 60.75Q827.0 60.0 833.5 59.0Q842.0 57.0 847.75 56.0Q853.5 55.0 857.0 55.0Q871.5 55.0 855.0 73.5Q846.5 83.5 839.5 106.5Q832.5 129.5 828.0 162.25Q823.5 195.0 821.5 234.0Q819.5 273.0 820.5 315.5L822.5 386.0L847.5 394.0Q859.0 396.5 866.25 400.75Q873.5 405.0 873.5 406.5Q873.5 410.0 867.5 410.0Q862.5 410.0 853.75 408.0Q845.0 406.0 831.5 402.5Q827.0 401.0 824.5 401.0Q821.0 401.0 820.25 406.0Q819.5 411.0 819.5 424.5Q819.5 448.5 814.5 448.5Q809.5 448.5 807.0 420.5L806.0 392.5L753.5 371.0Q721.5 357.5 694.25 349.25Q667.0 341.0 640.75 337.5Q614.5 334.0 585.0 334.0Q537.5 334.0 532.5 339.75Q527.5 345.5 556.5 364.5Q569.5 373.0 576.75 379.5Q584.0 386.0 581.5 387.0Q577.5 387.0 564.0 380.25Q550.5 373.5 534.5 363.0Q513.5 349.0 493.0 338.25Q472.5 327.5 456.75 321.25Q441.0 315.0 433.0 315.0Q430.0 315.0 428.0 317.0Q426.0 320.0 392.75 322.0Q359.5 324.0 297.0 325.0Q243.5 326.5 205.75 328.75Q168.0 331.0 140.25 335.75Q112.5 340.5 90.0 348.5Q67.5 356.5 44.0 368.5Q32.5 375.0 22.75 379.25Q13.0 383.5 10.5 383.5Q10.0 382.0 11.75 374.0Q13.5 366.0 17.0 356.0Q21.0 344.0 23.0 328.75Q25.0 313.5 22.5 294.5Q22.0 279.5 22.75 269.0Q23.5 258.5 25.5 258.5Q30.0 258.5 30.0 263.0Q30.0 270.5 43.75 278.0Q57.5 285.5 81.5 292.25Q105.5 299.0 136.5 304.0Q167.5 309.0 201.5 311.0L256.0 313.5L232.0 297.5Q221.0 290.5 208.5 284.5Q196.0 278.5 188.5 276.5Q180.5 276.0 171.5 273.75Q162.5 271.5 158.5 270.5Q151.5 268.0 152.25 265.0Q153.0 262.0 164.5 255.0Q172.0 251.0 186.25 238.5Q200.5 226.0 217.25 209.75Q234.0 193.5 248.0 178.5Q251.0 176.0 260.75 168.75Q270.5 161.5 280.5 155.0Q290.5 148.5 308.0 135.75Q325.5 123.0 339.5 111.5Q369.0 87.0 375.0 87.0Q379.5 87.0 366.0 103.5Q349.0 124.5 339.5 142.5Q330.0 160.5 332.0 167.5Q334.5 176.5 340.5 176.5Q342.5 176.5 343.5 178.75Q344.5 181.0 343.0 183.5Q342.5 186.0 352.0 194.75Q361.5 203.5 375.5 213.0L411.0 236.0L429.5 216.5Q436.5 208.5 446.25 195.5Q456.0 182.5 462.5 172.5Q469.5 161.5 475.5 153.75Q481.5 146.0 483.5 145.5Q489.0 145.5 490.5 162.0Q491.5 170.0 497.5 182.0Q503.5 194.0 511.75 206.75Q520.0 219.5 529.0 230.0Q538.0 240.5 545.5 245.5Q555.5 252.5 558.0 252.5Q560.5 252.5 563.5 245.5Q569.0 237.0 574.0 239.5Q578.0 241.5 580.25 232.0Q582.5 222.5 582.0 207.75Q581.5 193.0 578.0 179.5Q571.5 157.5 562.75 138.0Q554.0 118.5 547.0 114.5Q537.5 108.0 544.5 104.75Q551.5 101.5 572.5 100.0L603.5 98.5L620.0 66.0Q627.0 52.0 633.5 38.25Q640.0 24.5 641.5 19.0Z" fill="black" /></svg>