<svg xmlns="http://www.w3.org/2000/svg" width="748.0" height="458.5" viewBox="0 0 748.0 458.5"><path d="M73.5 296.0Q81.5 279.5 62.5 294.0Q58.5 297.5 53.25 301.25Q48.0 305.0 44.5 308.0Q29.5 318.5 57.0 325.0Q59.5 325.5 61.5 326.25Q63.5 327.0 65.0 327.0Q69.0 327.0 69.0 317.0Q69.0 312.0 70.5 305.75Q72.0 299.5 73.5 296.0ZM154.0 315.0Q159.5 304.0 154.0 303.5Q148.5 303.0 135.0 313.0L118.0 325.0L130.5 330.5Q142.5 335.5 148.5 335.5Q154.0 335.5 152.5 330.5Q151.0 328.0 151.5 323.25Q152.0 318.5 154.0 315.0ZM237.5 312.5Q235.5 305.0 229.5 305.0Q227.0 305.5 220.25 310.0Q213.5 314.5 208.5 319.0Q203.5 323.5 205.0 325.0Q206.5 326.0 214.25 330.0Q222.0 334.0 229.75 337.75Q237.5 341.5 238.5 341.5Q240.0 341.5 240.0 335.75Q240.0 330.0 239.5 323.0Q239.0 316.0 237.5 312.5ZM82.5 183.0Q85.0 179.5 85.0 177.0Q85.0 174.5 83.5 174.5Q82.0 174.5 76.25 178.0Q70.5 181.5 63.5 186.75Q56.5 192.0 51.5 196.25Q46.5 200.5 46.5 202.0Q46.5 203.5 52.0 206.75Q57.5 210.0 64.0 212.75Q70.5 215.5 73.5 215.5Q75.5 215.5 76.75 212.0Q78.0 208.5 78.0 203.5Q78.0 199.0 79.25 192.75Q80.5 186.5 82.5 183.0ZM164.0 173.5 149.5 157.5Q130.5 138.5 123.5 138.5Q118.0 138.5 111.5 149.5Q98.0 171.0 92.0 185.0Q86.0 199.0 87.5 210.0Q89.0 221.0 98.75 232.75Q108.5 244.5 127.0 261.5L155.0 289.0L168.5 274.5Q179.5 264.0 180.25 261.0Q181.0 258.0 175.0 251.5Q171.5 247.0 163.0 241.75Q154.5 236.5 144.5 231.5Q134.5 226.5 126.0 223.25Q117.5 220.0 113.5 220.0Q104.5 220.0 105.0 215.5Q105.5 211.0 115.0 207.0Q119.0 205.0 128.0 199.75Q137.0 194.5 145.0 188.0ZM166.0 198.0Q171.5 184.5 168.0 184.5Q165.0 184.5 147.0 198.0L127.0 212.5L139.5 218.0Q153.0 223.5 158.0 223.5Q164.5 223.5 162.0 218.0Q161.0 212.5 166.0 198.0ZM253.0 187.5Q252.5 185.0 244.75 177.5Q237.0 170.0 228.5 162.0L205.0 143.0L195.5 158.5Q187.0 174.0 187.0 180.0Q187.0 186.0 195.5 195.5Q204.5 206.5 202.0 209.0Q201.0 210.0 200.5 210.0Q196.5 210.0 189.5 202.0Q183.0 193.5 180.5 193.5Q178.5 193.5 174.0 199.0Q168.0 207.0 168.25 212.75Q168.5 218.5 175.0 227.0Q181.0 236.5 179.5 238.0Q178.0 239.5 185.75 247.0Q193.5 254.5 205.0 264.5L232.0 289.0L249.0 271.5Q265.0 255.5 262.25 249.0Q259.5 242.5 233.0 234.5Q223.0 232.0 215.75 228.5Q208.5 225.0 208.5 224.5Q208.5 223.0 215.5 217.75Q222.5 212.5 232.0 206.5Q240.5 201.0 247.0 195.25Q253.5 189.5 253.0 187.5ZM245.5 297.0Q250.0 292.5 248.5 289.5Q248.0 288.5 246.5 288.5Q244.5 288.5 242.25 291.25Q240.0 294.0 240.0 298.0Q240.0 302.5 245.5 297.0ZM299.0 172.0Q299.0 170.0 296.5 170.0Q291.0 170.0 282.5 179.0Q280.0 182.5 271.25 189.5Q262.5 196.5 253.0 202.5Q244.0 209.0 237.5 214.25Q231.0 219.5 231.0 221.0Q231.0 223.0 238.25 226.5Q245.5 230.0 253.5 233.0Q261.5 236.0 263.5 237.0Q269.5 240.5 272.5 240.5Q281.0 240.5 281.0 223.5Q281.0 218.0 283.5 209.0Q286.0 200.0 290.0 193.0Q293.5 185.5 296.25 179.25Q299.0 173.0 299.0 172.0ZM411.5 280.5Q411.5 279.5 405.0 278.75Q398.5 278.0 388.5 278.0Q373.0 278.0 369.5 279.75Q366.0 281.5 366.0 289.5Q366.0 300.5 370.5 300.5Q373.0 300.5 379.5 298.0Q386.0 295.5 393.5 291.75Q401.0 288.0 406.25 284.75Q411.5 281.5 411.5 280.5ZM125.0 69.5Q126.5 67.0 126.5 64.75Q126.5 62.5 125.0 62.5Q123.0 62.5 116.0 67.75Q109.0 73.0 100.75 80.25Q92.5 87.5 87.0 93.0Q81.5 98.5 82.5 99.5Q85.0 100.5 91.75 103.5Q98.5 106.5 105.25 108.75Q112.0 111.0 113.5 111.0Q115.5 111.0 117.25 106.25Q119.0 101.5 119.5 94.0Q120.5 87.0 122.25 80.0Q124.0 73.0 125.0 69.5ZM205.5 87.0Q212.0 71.5 209.5 71.5Q208.0 71.5 201.25 76.5Q194.5 81.5 186.75 88.25Q179.0 95.0 173.25 100.5Q167.5 106.0 167.5 107.5Q167.5 109.0 173.25 111.75Q179.0 114.5 186.0 116.75Q193.0 119.0 197.5 119.5Q201.5 121.0 200.5 111.0Q200.0 107.5 201.5 100.5Q203.0 93.5 205.5 87.0ZM279.0 89.5Q281.5 82.5 283.0 77.75Q284.5 73.0 283.5 72.5Q283.5 72.5 283.5 72.5Q283.5 72.5 283.0 72.5Q281.5 72.5 276.75 75.75Q272.0 79.0 265.5 83.0L248.5 96.0L261.0 100.5Q267.0 103.5 270.0 103.5Q274.0 103.5 279.0 89.5ZM384.0 183.5Q384.0 179.0 379.5 179.0Q378.5 179.0 376.75 180.25Q375.0 181.5 375.0 183.5Q375.0 185.0 376.75 186.5Q378.5 188.0 379.5 188.0Q384.0 188.0 384.0 183.5ZM404.0 193.0Q402.5 188.0 397.5 188.0Q396.5 188.0 394.5 189.25Q392.5 190.5 391.5 193.0Q390.0 194.0 392.0 195.75Q394.0 197.5 397.5 197.5Q401.5 197.5 403.5 195.75Q405.5 194.0 404.0 193.0ZM490.0 220.0Q467.0 213.5 443.5 210.0Q420.0 206.5 404.0 206.5Q385.5 206.5 384.0 211.0Q383.0 213.5 382.75 223.0Q382.5 232.5 383.0 242.5Q384.0 255.5 385.0 261.25Q386.0 267.0 389.25 268.0Q392.5 269.0 399.5 269.0Q405.5 269.0 421.0 266.0Q436.5 263.0 455.75 258.5Q475.0 254.0 493.0 249.25Q511.0 244.5 522.0 241.0Q532.0 237.0 534.0 235.0Q536.0 233.0 526.25 229.75Q516.5 226.5 490.0 220.0ZM658.5 191.0Q658.5 188.5 656.5 188.5Q651.5 188.5 632.5 205.5Q623.5 212.0 614.0 219.25Q604.5 226.5 600.5 229.0L589.5 236.0L613.5 243.5Q623.0 247.0 628.25 248.75Q633.5 250.5 636.5 250.5Q640.5 250.5 641.0 247.0Q641.5 243.5 641.5 236.0Q641.5 230.5 643.75 222.0Q646.0 213.5 649.5 208.0Q658.5 196.5 658.5 191.0ZM449.5 115.0Q450.0 114.0 442.25 105.0Q434.5 96.0 422.0 83.0L395.0 53.5L380.5 71.5Q368.0 86.5 367.25 89.75Q366.5 93.0 375.0 93.0Q378.5 93.0 390.75 96.5Q403.0 100.0 416.0 105.0Q428.5 109.0 437.75 112.0Q447.0 115.0 449.0 115.0Q449.0 115.0 449.25 115.0Q449.5 115.0 449.5 115.0ZM408.5 395.5Q425.5 378.5 436.25 366.75Q447.0 355.0 445.0 355.0Q443.0 355.0 435.25 358.25Q427.5 361.5 417.5 365.5Q409.0 370.5 396.0 374.75Q383.0 379.0 374.0 380.0Q360.5 381.5 356.75 383.75Q353.0 386.0 355.0 390.0Q356.5 393.5 358.25 400.75Q360.0 408.0 360.5 416.5Q361.5 424.5 363.0 430.0Q364.5 435.5 366.0 435.5Q367.0 435.5 379.75 423.75Q392.5 412.0 408.5 395.5ZM148.5 20.0 152.5 10.0 154.0 20.0Q154.0 23.5 152.75 29.75Q151.5 36.0 148.5 40.5Q146.0 44.5 141.25 54.5Q136.5 64.5 132.5 74.0L123.5 97.5L132.5 119.5Q136.5 128.0 144.0 138.25Q151.5 148.5 157.5 154.0L173.0 166.5L187.5 153.0Q197.5 143.0 198.25 140.0Q199.0 137.0 193.0 132.0Q189.0 129.5 181.75 126.0Q174.5 122.5 167.5 120.5Q150.0 114.0 149.25 110.25Q148.5 106.5 162.0 97.0Q170.5 91.0 181.75 81.25Q193.0 71.5 204.25 61.0Q215.5 50.5 223.25 42.0Q231.0 33.5 232.0 30.5Q233.5 28.0 235.25 26.75Q237.0 25.5 237.5 27.0Q239.5 28.5 237.25 36.5Q235.0 44.5 230.0 54.0Q219.5 75.5 214.5 88.25Q209.5 101.0 210.0 108.25Q210.5 115.5 215.0 122.0Q217.5 127.0 219.75 132.25Q222.0 137.5 222.0 140.0Q222.0 143.0 228.0 150.0Q234.0 157.0 242.0 164.5L263.0 183.5L280.0 170.0Q295.5 158.0 300.75 152.5Q306.0 147.0 301.5 141.75Q297.0 136.5 282.5 126.5Q272.5 119.0 260.75 112.5Q249.0 106.0 242.0 105.0Q228.5 102.5 227.75 98.75Q227.0 95.0 238.5 89.5Q244.0 87.0 255.25 79.0Q266.5 71.0 278.25 61.5Q290.0 52.0 299.0 44.0Q308.0 36.0 309.0 33.5Q310.5 28.5 314.5 30.5Q315.5 32.0 311.5 42.0Q307.5 52.0 300.0 65.0L283.5 96.0L291.0 113.0Q293.5 118.5 300.75 127.75Q308.0 137.0 315.5 137.0Q322.0 137.0 334.5 116.0Q338.5 109.5 341.5 112.0Q343.0 113.5 341.0 118.75Q339.0 124.0 335.0 130.5Q331.5 136.5 323.5 150.5Q315.5 164.5 308.0 179.0Q299.5 194.0 295.5 202.75Q291.5 211.5 290.75 218.5Q290.0 225.5 291.0 235.5Q293.5 256.0 301.5 263.5Q305.0 265.5 306.25 267.25Q307.5 269.0 306.0 269.0Q305.0 269.0 312.5 278.75Q320.0 288.5 331.5 302.5Q355.0 328.5 363.75 341.75Q372.5 355.0 368.5 358.5Q367.5 361.0 365.0 358.5Q362.5 355.0 354.0 344.0Q345.5 333.0 334.0 319.25Q322.5 305.5 310.75 292.25Q299.0 279.0 289.5 270.5Q280.0 262.0 276.0 262.0Q274.0 262.0 272.75 263.25Q271.5 264.5 269.0 267.0Q265.0 272.5 260.25 284.0Q255.5 295.5 252.25 307.25Q249.0 319.0 249.0 325.0Q249.0 331.5 253.5 342.75Q258.0 354.0 263.75 363.25Q269.5 372.5 273.5 374.0Q276.5 375.5 284.75 384.25Q293.0 393.0 302.5 404.25Q312.0 415.5 318.75 424.75Q325.5 434.0 325.5 436.5Q324.5 436.5 311.5 424.75Q298.5 413.0 281.0 395.5Q260.0 374.0 246.25 362.0Q232.5 350.0 219.5 343.0Q206.5 336.0 188.5 330.5Q182.5 328.0 182.75 326.5Q183.0 325.0 191.0 319.5Q195.0 317.0 201.5 312.25Q208.0 307.5 212.0 304.0L222.0 294.0L210.0 281.5Q205.0 276.5 200.0 272.75Q195.0 269.0 193.0 269.0Q190.5 269.0 184.5 277.25Q178.5 285.5 172.0 297.0Q166.0 309.0 163.25 315.5Q160.5 322.0 161.0 326.25Q161.5 330.5 164.0 336.0Q169.5 347.0 169.5 351.0Q170.5 352.5 180.5 363.0Q190.5 373.5 204.0 386.5Q219.0 400.0 227.0 410.0Q235.0 420.0 233.0 421.0Q232.5 421.0 232.5 421.0Q232.5 421.0 232.0 421.0Q229.5 421.0 224.75 417.5Q220.0 414.0 215.0 409.0Q207.0 399.0 193.5 387.5Q180.0 376.0 165.0 365.0Q150.0 354.0 137.0 346.0Q124.0 338.0 116.0 336.0Q98.5 332.0 96.75 328.0Q95.0 324.0 109.0 318.5Q113.5 316.5 120.75 312.25Q128.0 308.0 133.5 304.0L146.0 293.5L128.0 276.0Q121.5 269.5 116.75 266.0Q112.0 262.5 108.0 262.5Q102.5 262.5 97.5 269.75Q92.5 277.0 85.5 291.5Q82.0 299.5 79.0 306.25Q76.0 313.0 75.5 314.0Q73.5 317.5 79.25 328.0Q85.0 338.5 96.0 352.0Q107.0 365.5 120.5 378.5Q133.5 390.5 141.75 400.0Q150.0 409.5 148.5 411.0Q146.0 411.0 136.0 403.5Q126.0 396.0 113.5 384.0Q56.5 330.0 25.5 325.0Q19.5 323.5 14.75 321.75Q10.0 320.0 10.0 318.5Q10.0 317.5 16.0 314.25Q22.0 311.0 30.0 306.0Q37.5 302.0 50.5 292.5Q63.5 283.0 73.5 273.5L98.0 250.5L80.0 235.5Q73.5 228.5 62.25 222.5Q51.0 216.5 43.5 214.5Q25.0 209.5 22.5 206.0Q20.0 202.5 31.0 197.5Q37.0 195.0 47.0 188.25Q57.0 181.5 68.25 172.75Q79.5 164.0 89.25 155.5Q99.0 147.0 104.5 141.0Q114.5 130.0 110.25 124.0Q106.0 118.0 81.5 109.5L58.0 101.5L69.0 94.0Q78.0 88.0 90.75 77.25Q103.5 66.5 116.25 54.75Q129.0 43.0 138.0 33.25Q147.0 23.5 148.5 20.0ZM352.5 162.0Q352.5 159.5 358.5 159.5Q363.5 159.5 374.0 161.0Q384.5 162.5 393.25 165.75Q402.0 169.0 402.0 174.5Q402.0 182.0 427.25 191.75Q452.5 201.5 505.5 214.5Q529.0 220.5 543.5 225.75Q558.0 231.0 558.0 233.5Q558.0 235.5 543.75 241.5Q529.5 247.5 508.0 253.5Q495.0 257.5 477.25 264.25Q459.5 271.0 441.75 278.75Q424.0 286.5 410.5 293.5Q389.0 304.5 377.75 309.25Q366.5 314.0 362.0 314.0Q360.0 314.0 359.0 312.5Q358.5 309.5 358.0 305.75Q357.5 302.0 359.0 299.5Q359.5 297.5 358.25 292.25Q357.0 287.0 354.0 281.5Q349.5 272.0 351.25 270.0Q353.0 268.0 365.0 269.0Q372.0 269.5 373.5 266.0Q375.0 262.5 375.0 247.0Q375.0 226.0 372.5 218.5Q370.0 211.0 361.5 211.0Q353.5 211.0 353.25 208.25Q353.0 205.5 359.5 194.5Q365.0 186.0 365.0 183.5Q365.0 181.0 359.5 174.5Q357.0 172.0 354.75 168.0Q352.5 164.0 352.5 162.0ZM393.0 37.0Q393.0 30.5 396.0 30.5Q401.0 30.5 404.0 42.5Q407.5 54.5 428.5 76.5Q449.5 98.5 484.25 126.0Q519.0 153.5 563.5 183.0Q580.5 194.0 593.5 202.5Q606.5 211.0 608.0 211.0Q610.5 211.0 621.0 203.25Q631.5 195.5 645.0 184.5Q658.5 173.5 670.5 163.0Q682.5 152.5 687.5 146.5Q695.5 137.0 698.0 137.0Q700.5 137.0 698.25 143.75Q696.0 150.5 687.5 161.0Q673.5 180.0 663.75 200.0Q654.0 220.0 651.0 234.75Q648.0 249.5 654.0 253.5Q656.0 254.0 657.25 257.0Q658.5 260.0 658.5 262.5Q658.5 265.0 670.5 278.75Q682.5 292.5 699.5 308.5Q716.5 324.0 727.25 336.5Q738.0 349.0 737.5 351.0Q734.5 351.0 722.75 341.5Q711.0 332.0 695.5 317.5Q678.5 301.0 660.5 285.75Q642.5 270.5 629.25 260.5Q616.0 250.5 612.5 250.5Q612.0 250.5 603.25 256.25Q594.5 262.0 580.25 271.5Q566.0 281.0 549.0 292.5Q525.5 307.5 506.25 322.25Q487.0 337.0 467.5 354.25Q448.0 371.5 424.0 394.5Q395.5 422.5 381.5 435.5Q367.5 448.5 362.0 448.5Q358.0 448.5 357.0 441.5Q356.0 434.5 355.0 422.0Q355.0 415.0 351.75 406.0Q348.5 397.0 344.5 392.0Q334.0 377.0 335.5 373.5Q337.0 370.0 354.0 371.0Q389.5 375.5 467.5 331.5Q485.0 321.5 506.25 308.5Q527.5 295.5 547.0 282.75Q566.5 270.0 579.0 261.0Q591.5 252.0 591.5 250.5Q591.5 250.0 588.0 247.75Q584.5 245.5 579.0 243.5L566.0 239.0L580.5 231.0Q587.0 227.5 591.5 224.0Q596.0 220.5 596.0 219.0Q596.0 217.5 586.75 210.25Q577.5 203.0 563.0 193.0Q548.5 183.0 532.0 172.5Q515.5 162.0 500.75 153.25Q486.0 144.5 476.5 140.0Q458.5 131.0 437.75 122.5Q417.0 114.0 397.75 108.0Q378.5 102.0 365.0 100.5Q356.5 99.0 350.0 97.75Q343.5 96.5 343.5 96.0Q343.5 96.0 351.0 87.75Q358.5 79.5 368.5 69.5Q379.0 59.5 386.0 50.0Q393.0 40.5 393.0 37.0Z" fill="black" /></svg>