<svg xmlns="http://www.w3.org/2000/svg" width="768.0" height="383.0" viewBox="0 0 768.0 383.0"><path d="M154.0 119.0Q159.5 113.0 157.5 113.0Q153.5 113.0 122.5 141.0Q110.0 152.5 94.0 166.25Q78.0 180.0 68.0 188.0L44.0 208.5L71.0 211.5Q76.0 212.0 80.0 212.25Q84.0 212.5 87.5 212.5Q99.5 212.5 104.0 207.25Q108.5 202.0 110.5 188.0Q113.0 178.0 122.75 162.0Q132.5 146.0 154.0 119.0ZM204.5 181.5Q201.5 176.5 198.5 176.5Q192.5 176.5 189.5 194.0Q188.5 202.0 186.75 210.75Q185.0 219.5 184.0 223.5Q182.5 230.5 185.5 230.5Q189.0 230.5 212.0 219.0L241.0 204.0L224.0 195.0Q217.5 191.0 211.5 187.25Q205.5 183.5 204.5 181.5ZM269.5 138.5Q269.5 127.0 261.0 127.0Q257.5 127.0 254.5 129.5Q251.0 131.5 249.25 134.5Q247.5 137.5 248.5 138.5Q253.0 142.0 260.5 142.0Q269.5 142.0 269.5 138.5ZM444.5 213.5Q441.0 209.0 438.5 203.75Q436.0 198.5 435.5 195.0Q434.5 192.5 433.5 192.5Q429.5 192.5 416.5 209.0Q407.5 221.0 405.25 225.25Q403.0 229.5 406.0 229.5Q407.0 229.5 408.5 229.25Q410.0 229.0 412.0 228.5Q416.5 227.0 424.25 226.0Q432.0 225.0 437.5 225.0Q447.5 225.0 448.5 223.5Q449.5 222.0 444.5 213.5ZM329.5 88.5Q328.0 74.5 323.5 74.5Q319.0 74.5 308.5 86.0Q300.5 95.0 300.5 96.5Q300.5 98.0 308.0 98.0Q312.0 98.0 317.25 98.75Q322.5 99.5 325.0 100.5Q327.0 101.5 327.5 101.5Q331.0 101.5 329.5 88.5ZM512.5 180.5Q515.0 180.0 512.5 176.75Q510.0 173.5 504.5 170.0L489.5 162.0V180.0Q489.5 194.0 491.5 194.0Q493.5 194.0 498.5 189.5Q502.0 187.0 506.25 184.0Q510.5 181.0 512.5 180.5ZM557.5 268.5Q550.5 261.5 543.5 253.25Q536.5 245.0 533.5 240.5L526.0 228.5L484.0 279.0H521.0Q535.5 279.0 549.0 280.0Q562.5 281.0 566.0 282.0Q570.0 283.0 567.5 279.25Q565.0 275.5 557.5 268.5ZM626.0 176.0V132.5H578.0Q557.5 132.5 546.0 133.25Q534.5 134.0 528.25 136.0Q522.0 138.0 516.5 142.5Q511.5 147.0 508.0 151.0Q504.5 155.0 504.5 156.5Q504.5 157.5 509.5 161.0Q514.5 164.5 521.0 168.0Q530.5 172.5 545.0 174.25Q559.5 176.0 582.5 176.0ZM458.0 72.0 489.5 30.0H462.5Q445.5 30.0 441.25 31.25Q437.0 32.5 440.0 36.5Q442.5 38.5 445.75 45.0Q449.0 51.5 451.0 57.5ZM522.5 124.5Q523.0 124.5 519.75 121.75Q516.5 119.0 511.0 116.0L499.0 108.0V144.0L510.5 134.0Q515.0 130.5 518.5 127.75Q522.0 125.0 522.5 124.5ZM654.5 32.0Q654.0 32.0 646.75 30.75Q639.5 29.5 629.5 28.5L606.5 24.5L611.5 38.0Q614.0 43.5 617.5 54.0Q621.0 64.5 623.0 74.0L629.5 96.0L635.0 76.5Q637.5 68.5 642.0 59.25Q646.5 50.0 649.0 45.5Q655.5 35.5 654.5 32.0ZM208.0 45.0Q224.5 25.5 228.5 25.5Q230.5 25.5 230.5 29.0Q230.5 32.5 219.75 47.75Q209.0 63.0 191.5 84.5Q187.0 90.0 179.25 100.25Q171.5 110.5 162.75 122.5Q154.0 134.5 146.5 145.5Q134.5 163.5 128.75 173.5Q123.0 183.5 121.25 191.5Q119.5 199.5 119.5 212.0Q120.0 224.0 121.25 230.75Q122.5 237.5 126.25 242.75Q130.0 248.0 137.5 255.5Q148.0 265.5 158.25 278.25Q168.5 291.0 175.25 301.5Q182.0 312.0 182.0 316.5Q182.0 323.0 178.5 323.0Q173.0 323.0 170.0 312.0Q168.5 306.5 159.75 295.5Q151.0 284.5 138.75 271.75Q126.5 259.0 114.25 248.0Q102.0 237.0 93.5 231.5Q82.5 224.5 72.25 222.5Q62.0 220.5 42.5 220.5H10.0L41.0 196.5Q54.0 186.5 73.0 170.5Q92.0 154.5 113.0 135.75Q134.0 117.0 153.75 99.0Q173.5 81.0 188.0 66.5Q202.5 52.0 208.0 45.0ZM592.0 14.0Q592.0 10.0 599.5 12.5Q603.0 13.5 615.25 15.5Q627.5 17.5 641.0 18.5Q655.0 19.5 664.75 21.0Q674.5 22.5 674.5 23.0Q674.5 23.5 670.5 30.75Q666.5 38.0 660.5 48.0Q653.0 60.0 648.5 72.0Q644.0 84.0 641.25 101.5Q638.5 119.0 637.25 146.0Q636.0 173.0 635.0 214.5L633.5 309.0L695.5 336.5Q721.5 348.5 739.75 358.0Q758.0 367.5 758.0 370.0Q757.5 373.0 755.5 373.0Q753.0 373.0 745.75 370.25Q738.5 367.5 722.5 360.25Q706.5 353.0 678.5 340.5Q645.0 325.5 622.0 315.5Q599.0 305.5 583.0 299.75Q567.0 294.0 555.0 291.5Q543.0 289.0 531.25 288.75Q519.5 288.5 504.5 289.5Q486.0 291.0 476.0 291.0Q462.5 291.0 465.25 286.0Q468.0 281.0 482.0 265.5L491.0 255.0L467.5 244.5Q457.0 240.0 449.0 237.75Q441.0 235.5 433.0 235.5Q425.0 235.5 416.5 237.75Q408.0 240.0 395.5 244.5Q374.5 252.0 368.0 252.0Q367.5 251.0 371.5 245.0Q375.5 239.0 382.0 232.5L398.5 215.0H320.5Q289.0 215.0 268.75 216.0Q248.5 217.0 235.0 220.5Q221.5 224.0 211.0 230.5Q200.5 237.0 188.0 247.5Q182.0 252.0 176.75 255.25Q171.5 258.5 170.5 258.5Q170.0 258.5 170.0 258.5Q170.0 258.5 170.0 258.5Q169.5 258.0 170.75 248.0Q172.0 238.0 174.0 223.5Q176.0 209.0 178.25 194.25Q180.5 179.5 182.5 169.0Q184.5 158.5 185.5 157.5Q185.5 157.5 185.5 157.5Q185.5 157.5 186.0 157.5Q187.5 157.5 192.75 161.0Q198.0 164.5 205.0 170.0Q225.5 185.5 246.0 193.5Q266.5 201.5 289.0 204.0L316.0 207.0L289.0 179.0Q277.5 166.5 270.75 161.0Q264.0 155.5 258.0 153.75Q252.0 152.0 242.0 152.0Q233.5 152.0 227.25 150.75Q221.0 149.5 221.0 147.5Q221.0 145.0 240.75 128.25Q260.5 111.5 305.0 76.5Q316.5 67.5 325.5 61.0Q334.5 54.5 335.0 54.5Q335.5 54.5 337.0 62.75Q338.5 71.0 339.5 82.5Q341.0 95.0 343.25 102.5Q345.5 110.0 352.25 117.75Q359.0 125.5 373.0 140.0Q385.5 153.0 393.75 163.0Q402.0 173.0 400.0 174.5Q397.5 174.5 386.25 165.5Q375.0 156.5 360.5 142.5Q343.5 126.0 334.25 118.75Q325.0 111.5 318.5 109.75Q312.0 108.0 302.0 108.0Q283.0 108.0 278.75 112.75Q274.5 117.5 278.0 135.5Q279.5 145.0 286.25 155.75Q293.0 166.5 305.5 180.0L329.5 205.5H368.0Q384.0 205.5 392.5 204.75Q401.0 204.0 405.75 201.5Q410.5 199.0 415.0 194.0Q426.0 182.0 431.75 172.25Q437.5 162.5 440.25 148.25Q443.0 134.0 444.5 109.5L446.5 60.0L428.5 42.0Q421.5 34.5 416.5 28.25Q411.5 22.0 411.5 21.0Q411.5 20.0 419.25 19.75Q427.0 19.5 438.0 19.5Q452.0 19.5 467.75 20.0Q483.5 20.5 495.25 21.25Q507.0 22.0 508.0 23.0Q509.0 23.5 505.0 29.5Q501.0 35.5 494.0 43.5Q479.0 59.5 470.75 72.5Q462.5 85.5 458.25 100.5Q454.0 115.5 451.0 138.5Q448.5 164.0 449.25 180.75Q450.0 197.5 455.0 209.0Q460.0 220.5 470.0 231.0Q483.0 244.0 492.5 244.0Q503.0 244.0 512.0 228.0Q515.5 220.5 519.25 215.5Q523.0 210.5 524.0 210.5Q525.0 210.5 529.5 216.5Q534.0 222.5 539.5 231.0Q544.0 238.0 555.25 249.75Q566.5 261.5 579.5 273.75Q592.5 286.0 603.25 294.5Q614.0 303.0 617.0 303.0Q618.0 303.0 619.5 294.0Q621.0 285.0 622.5 271.0Q624.0 257.0 625.0 241.0Q626.0 225.0 626.0 211.5V186.0H572.5Q553.0 186.0 541.5 186.25Q530.0 186.5 523.75 188.0Q517.5 189.5 513.25 192.5Q509.0 195.5 503.0 201.0Q495.5 206.5 490.0 210.75Q484.5 215.0 482.5 215.0Q480.5 215.0 480.0 204.75Q479.5 194.5 480.0 180.75Q480.5 167.0 481.75 156.25Q483.0 145.5 485.0 144.0Q487.5 143.0 488.5 135.75Q489.5 128.5 488.5 117.5Q487.5 107.5 488.0 100.5Q488.5 93.5 490.0 93.5Q492.0 93.5 499.25 97.25Q506.5 101.0 515.0 106.5Q523.5 112.5 530.75 115.5Q538.0 118.5 549.25 119.5Q560.5 120.5 580.0 121.5L625.0 123.5L618.5 94.5Q615.5 82.5 610.75 67.0Q606.0 51.5 602.0 42.0Q597.5 33.0 594.75 24.5Q592.0 16.0 592.0 14.0Z" fill="black" /></svg>