<svg xmlns="http://www.w3.org/2000/svg" width="946.0" height="428.5" viewBox="0 0 946.0 428.5"><path d="M164.0 274.5 138.5 269.5Q127.5 267.5 109.5 262.0Q91.5 256.5 77.0 250.0L39.5 235.5V270.5Q39.5 287.0 40.0 294.5Q40.5 302.0 50.0 302.0Q58.0 302.0 74.0 298.0Q90.0 294.0 119.0 286.5ZM568.0 295.0Q562.5 288.5 558.25 283.75Q554.0 279.0 552.5 279.0Q552.0 279.0 547.5 290.0Q543.0 301.0 537.5 317.0Q532.0 332.5 529.0 343.75Q526.0 355.0 527.5 355.0Q529.5 355.0 543.25 352.0Q557.0 349.0 574.5 344.5L618.0 333.5L599.0 323.0Q591.5 318.5 582.5 310.0Q573.5 301.5 568.0 295.0ZM204.5 91.0Q204.5 90.0 195.75 89.25Q187.0 88.5 174.0 88.5H143.5L156.5 123.5Q169.5 157.5 176.0 157.5Q179.0 157.5 179.0 147.0Q179.0 142.5 183.0 133.0Q187.0 123.5 192.0 115.0Q197.5 106.5 201.0 99.5Q204.5 92.5 204.5 91.0ZM312.5 98.0Q312.5 96.5 307.0 95.25Q301.5 94.0 293.0 93.5Q289.5 93.0 286.75 92.75Q284.0 92.5 281.5 92.5Q274.5 92.5 275.5 98.0Q276.5 103.5 283.0 120.0L291.5 141.0L302.5 120.0Q312.5 101.5 312.5 98.0ZM350.5 137.0Q345.0 122.5 339.25 112.0Q333.5 101.5 331.0 101.5Q320.0 101.5 312.0 129.75Q304.0 158.0 303.5 202.5V262.5H366.5L366.0 219.0Q365.5 197.0 361.25 175.75Q357.0 154.5 350.5 137.0ZM383.0 116.5 393.0 94.5H372.5Q363.0 94.5 356.75 95.25Q350.5 96.0 350.5 97.0Q350.5 100.0 352.75 106.75Q355.0 113.5 358.25 121.0Q361.5 128.5 364.25 134.0Q367.0 139.5 368.5 139.5Q370.5 138.5 374.75 132.25Q379.0 126.0 383.0 116.5ZM432.0 152.0Q425.5 133.0 419.25 118.25Q413.0 103.5 410.5 103.0Q404.5 101.0 398.25 113.0Q392.0 125.0 387.25 146.75Q382.5 168.5 380.5 196.0Q378.5 219.0 379.0 237.25Q379.5 255.5 382.0 258.5Q387.0 267.0 415.0 264.5L443.0 262.5L444.5 231.5Q445.5 215.5 442.25 194.75Q439.0 174.0 432.0 152.0ZM459.0 116.5 469.0 94.5H448.0Q433.5 94.5 430.25 96.5Q427.0 98.5 430.0 105.5Q432.0 110.0 434.25 116.5Q436.5 123.0 437.5 127.5Q441.5 138.5 444.5 138.5Q449.5 138.5 459.0 116.5ZM605.0 76.0Q590.5 67.5 579.75 62.0Q569.0 56.5 568.0 56.5Q568.0 56.5 567.0 66.75Q566.0 77.0 566.0 91.0Q566.0 105.5 567.25 116.0Q568.5 126.5 569.5 126.5Q570.5 126.5 578.5 121.75Q586.5 117.0 596.0 110.5Q605.5 103.5 615.25 99.0Q625.0 94.5 629.0 94.5Q633.0 94.5 626.0 89.0Q619.0 83.5 605.0 76.0ZM743.5 167.0Q743.5 166.0 736.25 165.25Q729.0 164.5 718.5 164.5Q704.0 164.5 698.5 166.0Q693.0 167.5 695.25 173.75Q697.5 180.0 705.0 195.0L716.5 216.5L730.0 193.5Q736.0 183.5 739.75 176.0Q743.5 168.5 743.5 167.0ZM896.0 33.0Q896.0 25.0 861.0 25.0Q847.0 25.0 836.75 26.25Q826.5 27.5 826.5 29.5Q826.5 31.5 829.5 39.75Q832.5 48.0 837.0 59.5Q841.5 71.0 846.25 82.25Q851.0 93.5 854.75 101.75Q858.5 110.0 859.5 111.5Q862.0 111.5 864.75 105.75Q867.5 100.0 869.5 90.5Q873.0 80.5 877.5 69.5Q882.0 58.5 885.5 53.0Q890.0 48.0 893.0 42.0Q896.0 36.0 896.0 33.0ZM125.0 76.0Q126.0 75.0 134.0 74.75Q142.0 74.5 154.0 74.5Q170.0 74.5 187.5 75.0Q205.0 75.5 217.5 76.25Q230.0 77.0 230.0 78.5Q230.0 80.5 224.25 89.5Q218.5 98.5 209.5 110.5Q203.0 120.5 198.75 128.0Q194.5 135.5 192.25 144.25Q190.0 153.0 188.75 165.5Q187.5 178.0 186.5 198.5L184.0 258.5L212.0 262.5Q223.5 264.5 239.0 265.0Q254.5 265.5 265.5 264.5L290.5 262.5L290.0 219.0Q288.5 196.0 284.5 174.0Q280.5 152.0 272.0 129.0Q265.5 110.0 260.25 95.75Q255.0 81.5 255.0 80.0Q255.0 79.5 264.75 79.25Q274.5 79.0 290.0 79.0Q309.5 79.0 335.0 79.25Q360.5 79.5 387.0 80.25Q413.5 81.0 436.25 81.5Q459.0 82.0 473.5 82.75Q488.0 83.5 488.5 84.5Q489.5 85.5 485.25 94.0Q481.0 102.5 474.0 114.0Q467.5 126.5 464.25 136.75Q461.0 147.0 460.0 161.75Q459.0 176.5 459.0 203.5V266.0H493.5Q507.5 266.0 517.75 267.75Q528.0 269.5 528.0 272.0Q528.0 274.5 517.75 276.75Q507.5 279.0 493.5 279.0H459.0V317.0Q459.0 332.5 457.25 343.75Q455.5 355.0 452.0 355.0Q449.5 355.0 447.75 343.75Q446.0 332.5 446.0 317.0V279.0H383.0V317.0Q383.0 332.5 381.25 343.75Q379.5 355.0 376.0 355.0Q373.5 355.0 371.75 343.75Q370.0 332.5 370.0 317.0V279.0H299.0L303.5 312.5Q307.0 346.5 301.0 350.5Q293.0 355.5 293.0 317.0V278.0L241.5 279.5L189.0 282.0L186.5 346.5Q185.0 411.0 179.0 411.0Q173.0 411.0 173.0 350.5V290.0L141.0 294.0Q128.0 296.0 106.25 301.5Q84.5 307.0 66.5 313.5Q34.5 325.0 22.0 325.0Q10.0 325.0 20.0 315.0Q23.5 312.0 25.25 296.5Q27.0 281.0 27.0 262.0Q27.0 243.0 28.0 229.25Q29.0 215.5 29.5 215.5Q30.5 215.5 43.0 221.0Q55.5 226.5 72.5 234.0Q90.0 241.5 110.5 248.5Q131.0 255.5 143.5 257.0L173.0 262.0V240.0Q173.0 230.0 169.75 213.5Q166.5 197.0 161.0 177.75Q155.5 158.5 149.0 140.0Q142.5 121.5 136.0 108.0Q130.5 96.5 127.25 87.25Q124.0 78.0 125.0 76.0ZM803.5 11.5Q805.0 10.5 823.5 10.25Q842.0 10.0 867.0 11.0Q908.5 12.0 922.25 16.25Q936.0 20.5 919.5 27.0Q916.5 27.5 908.75 39.5Q901.0 51.5 892.5 66.5L874.0 104.0L874.5 261.0Q874.5 304.5 873.75 340.25Q873.0 376.0 872.0 397.25Q871.0 418.5 869.5 418.5Q867.5 418.5 865.75 412.25Q864.0 406.0 863.0 398.0Q862.0 387.5 859.5 383.0Q857.0 378.5 847.25 375.75Q837.5 373.0 814.0 369.0Q794.0 366.5 775.0 363.5Q756.0 360.5 749.0 358.5Q746.0 358.0 743.5 357.5Q741.0 357.0 739.0 357.0Q733.5 357.0 732.25 362.25Q731.0 367.5 731.0 383.5Q731.0 411.5 725.5 411.5Q720.0 411.5 717.5 382.0L715.0 351.5L687.0 346.5Q682.0 345.5 676.25 345.0Q670.5 344.5 664.0 344.5Q638.0 344.5 605.25 350.75Q572.5 357.0 542.5 368.5Q528.5 373.0 517.0 376.5Q505.5 380.0 503.0 380.0Q500.5 380.0 503.5 370.25Q506.5 360.5 512.0 346.5Q519.0 333.0 525.75 313.25Q532.5 293.5 535.0 279.5Q542.5 247.0 553.0 247.0Q558.5 247.0 563.0 262.0Q569.5 288.5 603.0 307.25Q636.5 326.0 689.5 333.5L720.0 338.0L717.5 290.0Q716.5 271.0 713.75 257.0Q711.0 243.0 706.0 229.25Q701.0 215.5 691.5 197.0L668.5 152.0H718.5Q739.0 152.0 754.0 152.75Q769.0 153.5 769.0 154.5Q769.0 155.5 763.5 164.5Q758.0 173.5 750.5 185.0Q744.0 194.5 740.0 201.75Q736.0 209.0 734.0 217.5Q732.0 226.0 731.0 239.0Q730.0 252.0 729.5 273.5Q729.0 299.0 729.75 318.25Q730.5 337.5 732.5 339.5Q734.0 341.0 743.75 343.5Q753.5 346.0 767.75 349.0Q782.0 352.0 797.5 354.75Q813.0 357.5 826.25 359.25Q839.5 361.0 847.5 361.0H862.0V260.0Q862.0 211.0 856.75 175.75Q851.5 140.5 846.0 121.5L835.0 85.0L753.0 87.0Q720.0 88.0 697.5 90.0Q675.0 92.0 657.75 97.0Q640.5 102.0 623.25 111.0Q606.0 120.0 583.0 134.5Q572.0 141.5 562.75 146.25Q553.5 151.0 551.0 151.0Q550.5 150.0 551.75 131.0Q553.0 112.0 555.0 86.0L562.0 25.0L585.5 46.5Q595.5 56.0 609.75 63.75Q624.0 71.5 634.0 73.5Q638.0 74.0 646.75 74.5Q655.5 75.0 668.0 75.0Q684.5 75.0 704.75 74.5Q725.0 74.0 745.25 73.25Q765.5 72.5 783.0 71.25Q800.5 70.0 811.75 68.75Q823.0 67.5 824.0 66.5Q826.0 66.0 822.75 57.75Q819.5 49.5 814.0 39.0Q809.0 28.5 806.0 20.25Q803.0 12.0 803.5 11.5Z" fill="black" /></svg>