<svg xmlns="http://www.w3.org/2000/svg" width="1036.0" height="452.5" viewBox="0 0 1036.0 452.5"><path d="M99.5 327.5Q97.5 326.5 89.0 323.5Q80.5 320.5 70.0 317.0Q59.5 313.5 51.0 311.0Q42.5 308.5 41.0 308.5Q39.5 308.5 38.25 314.5Q37.0 320.5 35.0 329.0Q34.5 338.0 35.0 344.25Q35.5 350.5 37.5 350.5Q42.5 350.0 53.25 346.5Q64.0 343.0 75.5 339.0Q87.0 335.0 94.25 331.5Q101.5 328.0 99.5 327.5ZM86.0 251.0Q82.0 247.0 75.0 244.5Q68.0 242.0 63.0 242.0Q58.0 242.0 58.0 245.0Q58.0 247.0 56.75 250.5Q55.5 254.0 54.0 258.0Q51.0 266.0 58.5 266.0Q65.0 266.0 77.0 261.0Q90.5 256.0 86.0 251.0ZM181.0 261.0Q179.5 259.0 178.0 257.5Q176.5 256.0 174.0 256.0Q172.0 256.5 160.0 257.75Q148.0 259.0 130.5 261.0Q108.5 263.0 90.25 268.0Q72.0 273.0 61.0 279.25Q50.0 285.5 50.0 292.0Q50.0 296.0 57.75 300.5Q65.5 305.0 79.0 310.5Q88.0 313.5 104.5 315.75Q121.0 318.0 141.5 320.0Q162.0 322.0 183.0 323.0Q204.0 324.0 221.5 324.0Q238.5 324.0 250.0 322.75Q261.5 321.5 263.5 319.5Q267.0 315.5 266.75 314.5Q266.5 313.5 262.5 313.5Q258.0 312.5 258.5 311.0Q259.0 309.5 264.0 304.5Q272.5 299.0 272.0 296.0Q271.5 293.0 260.0 283.5Q247.5 274.0 233.0 268.0Q218.5 262.0 206.5 262.0Q201.5 262.0 197.0 263.5Q192.0 264.5 187.25 263.75Q182.5 263.0 181.0 261.0ZM94.0 194.5Q94.0 192.0 88.75 188.75Q83.5 185.5 76.5 183.0Q69.5 180.5 65.0 180.5Q62.0 180.5 61.0 182.0Q59.5 182.5 58.75 186.25Q58.0 190.0 58.0 194.5Q58.0 200.5 60.75 202.0Q63.5 203.5 70.0 202.0Q74.5 200.0 80.0 199.0Q85.5 198.0 88.5 198.0Q94.0 198.0 94.0 194.5ZM197.0 203.5Q198.5 201.0 190.0 199.75Q181.5 198.5 168.0 198.5Q151.0 198.5 130.75 200.25Q110.5 202.0 97.0 205.0Q61.0 213.5 58.5 220.75Q56.0 228.0 85.0 238.0Q97.5 242.0 117.0 244.75Q136.5 247.5 153.5 247.5Q171.5 247.5 180.75 246.75Q190.0 246.0 195.5 243.25Q201.0 240.5 206.5 235.0Q219.5 222.5 219.5 215.5Q219.5 208.5 206.5 208.5Q201.0 208.5 198.25 207.0Q195.5 205.5 197.0 203.5ZM233.0 243.5Q230.0 235.5 224.5 235.5Q220.5 235.5 218.5 239.5Q217.0 242.0 220.0 246.5Q223.0 251.0 227.5 253.75Q232.0 256.5 233.5 255.0Q235.5 250.5 233.0 243.5ZM316.5 260.0Q314.5 257.0 305.0 250.25Q295.5 243.5 283.25 235.5Q271.0 227.5 260.5 221.0Q250.0 214.5 246.0 212.5Q243.0 211.5 241.5 211.5Q233.5 211.5 236.75 225.25Q240.0 239.0 253.5 256.0Q265.5 271.5 272.75 278.5Q280.0 285.5 286.5 285.5Q290.5 285.5 294.5 283.5Q298.5 281.5 303.5 278.0Q310.5 272.5 314.25 267.5Q318.0 262.5 316.5 260.0ZM323.5 285.0Q324.5 276.5 322.5 276.5Q320.0 277.0 313.5 282.0Q307.0 287.0 300.0 293.25Q293.0 299.5 288.25 304.5Q283.5 309.5 284.0 310.5Q284.0 311.0 290.0 314.0Q296.0 317.0 303.5 321.0L320.0 329.0V311.0Q320.0 303.5 321.25 295.75Q322.5 288.0 323.5 285.0ZM373.0 222.0Q378.5 205.5 375.0 205.5Q371.5 205.5 363.5 215.0Q353.0 226.0 352.25 230.5Q351.5 235.0 359.5 235.0Q363.0 235.0 366.5 231.0Q370.0 227.0 373.0 222.0ZM423.0 222.0Q423.5 219.0 424.0 214.25Q424.5 209.5 423.5 206.0Q423.5 201.0 421.0 201.0Q417.5 201.0 410.5 209.5L398.5 222.5L409.0 226.0Q420.0 228.5 423.0 222.0ZM524.5 208.5Q524.5 198.0 519.5 198.0Q513.5 198.0 513.5 208.5Q513.5 218.5 519.5 218.5Q524.5 218.5 524.5 208.5ZM523.0 275.0Q526.0 270.5 523.0 267.5Q519.5 265.0 519.5 271.0Q519.5 277.5 523.0 275.0ZM568.5 341.5 527.0 332.0Q516.0 329.5 505.0 326.25Q494.0 323.0 489.0 321.0Q487.0 320.5 485.25 320.25Q483.5 320.0 482.0 320.0Q477.0 320.0 474.75 326.5Q472.5 333.0 470.0 352.0Q468.5 362.5 468.75 366.5Q469.0 370.5 472.5 370.5Q474.0 370.5 476.25 369.75Q478.5 369.0 481.5 368.5Q487.0 367.0 504.25 363.25Q521.5 359.5 540.0 355.5Q569.5 349.5 574.25 346.75Q579.0 344.0 568.5 341.5ZM556.0 271.0Q556.0 266.0 545.0 266.0Q540.5 266.0 538.5 267.5Q536.5 269.0 537.5 271.0Q538.5 273.5 542.0 275.0Q545.5 276.5 548.5 276.5Q556.0 276.5 556.0 271.0ZM613.5 307.5V282.0H583.5Q560.5 282.5 550.0 284.25Q539.5 286.0 537.25 291.0Q535.0 296.0 536.0 307.5L537.5 327.0L572.5 332.0Q587.5 334.5 598.75 335.25Q610.0 336.0 611.5 335.5Q612.0 334.0 612.75 325.75Q613.5 317.5 613.5 307.5ZM561.5 208.5Q561.5 206.0 557.5 204.75Q553.5 203.5 548.0 203.5Q543.0 203.5 539.25 204.75Q535.5 206.0 535.5 208.5Q535.5 210.5 539.25 212.5Q543.0 214.5 548.0 214.5Q553.5 214.5 557.5 212.5Q561.5 210.5 561.5 208.5ZM611.5 264.0 612.0 241.5 614.0 218.5 586.0 219.5Q559.5 219.5 547.5 224.5Q535.5 229.5 535.5 239.5Q535.5 249.5 546.5 254.25Q557.5 259.0 585.0 261.0ZM818.0 268.5Q818.0 256.0 814.5 256.0Q809.5 256.0 803.0 258.75Q796.5 261.5 791.75 265.0Q787.0 268.5 787.0 271.0Q787.0 274.0 765.0 276.0Q743.0 278.0 707.0 278.0L626.5 279.5L625.0 308.5L622.5 338.0L648.5 341.5Q658.5 343.0 678.25 343.75Q698.0 344.5 715.0 344.5H758.5L789.0 312.5Q803.0 297.0 810.5 285.75Q818.0 274.5 818.0 268.5ZM851.0 321.5Q845.0 314.5 839.25 306.5Q833.5 298.5 831.0 295.0Q829.0 290.5 826.5 290.5Q822.0 290.5 807.0 309.0L787.5 332.5L825.5 338.0Q841.0 340.0 852.5 341.25Q864.0 342.5 865.5 341.5Q866.0 341.0 862.0 335.25Q858.0 329.5 851.0 321.5ZM855.0 213.0Q855.0 209.0 852.5 209.0Q847.5 209.0 829.0 227.5Q817.5 239.5 815.5 242.25Q813.5 245.0 821.5 245.0Q826.0 245.0 836.5 246.25Q847.0 247.5 858.0 248.5L883.5 252.0L868.5 235.0Q863.5 228.0 859.25 221.5Q855.0 215.0 855.0 213.0ZM70.5 87.5Q66.5 82.0 63.0 82.0Q59.0 82.0 55.75 88.5Q52.5 95.0 52.5 106.5V123.5L79.0 115.0Q90.0 111.0 97.5 107.25Q105.0 103.5 105.0 102.5Q105.0 101.5 100.25 99.5Q95.5 97.5 90.0 95.5Q83.5 94.0 77.75 91.75Q72.0 89.5 70.5 87.5ZM240.5 108.0Q240.5 104.0 230.0 104.0Q185.5 107.5 158.75 109.75Q132.0 112.0 116.25 114.5Q100.5 117.0 89.75 121.0Q79.0 125.0 66.5 131.0Q49.0 139.5 48.25 144.25Q47.5 149.0 60.0 160.5Q73.0 172.0 103.0 179.75Q133.0 187.5 169.5 187.5Q188.0 187.5 197.25 186.75Q206.5 186.0 212.0 183.0Q217.5 180.0 223.5 174.5Q247.5 151.5 217.5 145.5L202.5 142.5L222.0 128.0Q230.5 122.0 235.5 116.25Q240.5 110.5 240.5 108.0ZM246.5 187.5Q241.0 177.5 236.5 177.5Q232.0 177.5 229.5 185.5Q225.0 195.0 226.5 196.5Q228.0 198.0 239.0 198.0Q248.0 198.0 249.0 196.0Q250.0 194.0 246.5 187.5ZM279.0 102.5Q286.0 91.0 282.0 91.0Q277.0 91.0 257.5 111.5L234.5 134.5L248.0 138.5Q253.5 140.0 258.0 140.0Q272.5 140.0 272.5 124.0Q272.5 114.0 279.0 102.5ZM336.0 224.0Q336.0 220.5 329.25 212.0Q322.5 203.5 312.0 193.5Q301.5 183.5 290.0 174.0Q278.5 164.5 268.75 158.25Q259.0 152.0 254.5 152.0Q252.0 152.0 249.5 156.0Q246.5 160.5 250.0 169.75Q253.5 179.0 261.0 190.5Q268.5 202.0 278.5 213.25Q288.5 224.5 299.0 232.5Q324.5 252.0 333.0 252.0Q338.5 252.0 331.0 242.5Q324.0 236.0 331.0 232.5Q332.5 231.0 334.25 228.5Q336.0 226.0 336.0 224.0ZM524.5 111.5Q524.5 99.0 517.5 99.0Q512.0 99.0 501.0 104.25Q490.0 109.5 481.0 116.5Q472.0 123.5 472.0 130.0Q472.0 134.5 469.0 142.25Q466.0 150.0 461.5 156.0Q457.5 162.0 451.5 173.5Q445.5 185.0 440.0 194.5Q435.5 205.5 433.75 211.25Q432.0 217.0 433.75 222.5Q435.5 228.0 440.0 238.0Q445.5 246.0 452.0 255.75Q458.5 265.5 463.5 271.0Q477.0 284.5 473.5 295.0Q472.5 301.5 476.25 304.75Q480.0 308.0 492.5 312.0Q511.5 318.0 517.0 318.0Q522.0 318.0 523.25 314.75Q524.5 311.5 524.5 304.5Q524.5 297.5 522.0 294.75Q519.5 292.0 512.5 292.0Q498.5 293.5 496.75 291.25Q495.0 289.0 501.5 279.5Q505.0 273.0 506.5 266.5Q508.0 260.0 506.0 255.0Q504.0 247.5 505.0 246.0Q506.0 244.5 513.5 247.0Q519.5 248.0 522.0 246.75Q524.5 245.5 524.5 239.5Q524.5 230.0 516.5 230.0Q511.0 230.0 503.5 234.5Q494.0 240.5 491.5 235.75Q489.0 231.0 496.0 220.0Q501.5 211.5 502.0 205.5Q502.5 199.5 499.5 187.0Q495.0 175.0 495.0 168.0Q495.0 161.0 500.0 151.5Q508.0 137.5 503.0 129.5Q499.5 123.0 501.25 119.25Q503.0 115.5 507.5 115.5Q512.0 115.5 516.0 119.0Q520.5 122.0 522.0 122.0Q524.5 122.0 524.5 111.5ZM524.5 176.5Q524.5 166.5 518.0 166.5Q514.0 166.5 512.0 171.5Q509.5 176.5 512.0 182.0Q514.5 187.5 520.0 187.5Q522.5 187.5 523.5 184.25Q524.5 181.0 524.5 176.5ZM523.0 154.5Q523.5 153.0 523.75 149.25Q524.0 145.5 523.0 142.0Q521.5 135.0 520.75 135.0Q520.0 135.0 516.0 142.0Q514.0 147.5 515.0 151.75Q516.0 156.0 519.0 156.0Q521.0 156.0 523.0 154.5ZM543.0 59.0Q528.0 56.0 515.0 52.5Q502.0 49.0 498.0 47.5Q493.5 46.5 490.5 51.25Q487.5 56.0 483.5 71.5L479.5 99.0L492.5 95.5Q498.0 94.0 515.0 90.25Q532.0 86.5 550.5 82.5Q569.5 79.5 580.0 75.5Q590.5 71.5 588.0 71.0Q584.5 70.0 571.5 66.75Q558.5 63.5 543.0 59.0ZM559.0 145.5Q557.5 143.0 553.25 141.5Q549.0 140.0 545.0 140.0Q541.5 140.0 538.5 141.5Q535.5 143.0 535.5 145.5Q535.5 147.5 539.5 149.25Q543.5 151.0 548.5 151.0Q554.0 151.0 557.25 149.75Q560.5 148.5 559.0 145.5ZM611.5 200.5V180.0Q611.5 169.5 610.5 165.0Q609.5 160.5 605.0 159.5Q600.5 158.5 589.5 158.5Q538.5 154.5 536.0 176.0Q534.0 186.5 545.25 191.5Q556.5 196.5 585.0 198.5ZM611.5 138.5 612.0 114.5Q613.0 105.0 612.25 97.25Q611.5 89.5 609.5 88.0Q608.0 87.0 599.75 87.0Q591.5 87.0 580.25 88.25Q569.0 89.5 558.75 91.25Q548.5 93.0 543.0 95.5Q540.0 96.0 537.75 101.0Q535.5 106.0 535.5 111.5Q535.5 123.5 546.0 128.25Q556.5 133.0 585.0 135.0ZM818.0 82.0Q818.0 79.5 808.5 79.0Q799.0 78.5 785.5 78.5Q776.5 78.5 760.25 79.0Q744.0 79.5 725.25 80.0Q706.5 80.5 688.5 81.0L624.5 82.5V111.0Q624.5 124.5 625.25 130.5Q626.0 136.5 629.5 138.5Q633.0 140.5 640.5 142.5Q645.0 143.0 657.0 143.75Q669.0 144.5 685.25 145.0Q701.5 145.5 718.5 146.0Q747.0 146.0 759.75 147.25Q772.5 148.5 765.5 151.0Q760.0 152.0 737.5 153.5Q715.0 155.0 688.5 155.0L624.5 156.0V202.5L653.5 206.0Q665.5 207.0 686.75 207.5Q708.0 208.0 726.0 207.5Q745.0 207.0 758.75 207.5Q772.5 208.0 774.5 209.5Q776.0 211.5 760.0 213.0Q744.0 214.5 721.0 214.5Q705.5 214.5 689.5 214.75Q673.5 215.0 661.5 215.25Q649.5 215.5 644.0 216.5Q630.0 218.5 627.25 223.0Q624.5 227.5 624.5 243.5V266.0H769.0L807.0 235.0Q822.5 221.0 833.0 210.5Q843.5 200.0 843.5 198.0Q843.5 195.5 847.0 190.75Q850.5 186.0 855.0 182.5Q863.0 174.0 862.75 172.5Q862.5 171.0 853.0 169.0Q848.5 167.5 838.0 169.25Q827.5 171.0 818.0 174.5Q808.5 177.0 801.25 178.5Q794.0 180.0 793.0 178.5Q791.5 178.0 801.75 167.0Q812.0 156.0 827.5 142.0Q843.5 127.0 854.5 114.25Q865.5 101.5 865.5 99.0Q865.5 96.0 860.75 94.5Q856.0 93.0 849.0 93.0Q842.5 93.0 835.0 94.5Q827.5 96.0 822.0 99.0Q817.0 102.5 812.5 102.5Q809.0 102.5 808.25 99.5Q807.5 96.5 811.0 91.5Q818.0 85.5 818.0 82.0ZM891.0 160.0Q891.0 158.0 887.75 152.25Q884.5 146.5 880.0 140.0Q875.5 133.5 871.5 128.75Q867.5 124.0 866.0 124.0Q864.0 124.0 858.25 128.75Q852.5 133.5 845.5 140.0Q829.5 156.0 835.0 159.0Q841.0 160.5 852.5 161.5Q864.0 162.5 874.0 162.5Q881.0 162.5 886.0 161.75Q891.0 161.0 891.0 160.0ZM912.5 85.0Q912.5 83.0 908.25 76.75Q904.0 70.5 898.0 63.5Q892.0 56.5 886.75 51.25Q881.5 46.0 880.0 46.0Q878.5 46.0 873.5 50.75Q868.5 55.5 862.75 61.75Q857.0 68.0 853.25 73.0Q849.5 78.0 850.5 79.0Q851.5 80.0 861.0 81.25Q870.5 82.5 882.5 83.5Q894.5 84.5 903.5 85.0Q912.5 85.5 912.5 85.0ZM296.5 55.0Q315.5 36.0 329.25 23.0Q343.0 10.0 345.0 10.0Q346.0 12.5 339.75 23.75Q333.5 35.0 323.5 50.0Q304.5 79.0 294.5 97.5Q284.5 116.0 284.0 129.25Q283.5 142.5 291.5 154.75Q299.5 167.0 316.5 184.0L348.5 215.0L372.5 190.0Q382.5 178.5 393.0 166.5Q403.5 154.5 408.5 149.5Q418.5 136.0 421.5 136.0Q424.0 136.0 420.0 146.0Q416.0 156.0 405.5 174.5Q398.5 188.5 393.5 199.25Q388.5 210.0 389.0 211.5Q391.5 211.5 402.25 201.5Q413.0 191.5 427.0 176.0Q461.0 138.5 463.0 122.5Q464.0 115.5 467.0 102.25Q470.0 89.0 472.5 77.0Q476.0 63.0 476.75 56.0Q477.5 49.0 475.75 44.75Q474.0 40.5 470.0 35.5Q461.0 26.0 466.5 22.0Q472.0 18.0 481.5 26.5Q487.0 31.5 506.0 38.5Q525.0 45.5 551.0 51.75Q577.0 58.0 603.5 62.5Q614.5 64.5 636.25 66.0Q658.0 67.5 686.0 68.5Q714.0 69.5 742.0 69.5H840.0L868.5 38.5Q893.0 11.0 900.0 11.0Q904.0 11.0 898.0 23.0Q895.0 29.0 896.0 35.5Q897.0 42.0 903.5 53.5Q916.0 72.5 937.25 88.0Q958.5 103.5 992.0 116.5Q1008.0 123.0 1017.0 128.0Q1026.0 133.0 1023.0 134.5Q1017.5 134.5 1001.5 129.5Q985.5 124.5 967.0 117.5Q938.0 105.5 921.25 100.25Q904.5 95.0 895.0 95.0Q886.0 95.0 881.5 100.0Q878.0 105.0 878.25 110.25Q878.5 115.5 883.5 127.5Q892.5 145.5 913.75 162.0Q935.0 178.5 966.5 191.0Q991.5 200.5 1001.5 207.5Q1011.5 214.5 1003.0 214.5Q1000.0 214.5 985.0 208.5Q970.0 202.5 951.0 195.0Q923.0 183.5 906.75 178.25Q890.5 173.0 882.0 173.0Q876.0 173.0 872.75 175.75Q869.5 178.5 867.0 184.0Q860.5 198.0 866.0 211.0Q871.5 224.0 888.5 241.5Q898.5 250.5 906.25 256.25Q914.0 262.0 926.25 268.25Q938.5 274.5 962.0 285.0Q998.0 300.5 989.0 300.5Q985.0 300.5 970.0 296.0Q955.0 291.5 932.5 283.0Q899.0 270.0 880.5 264.5Q862.0 259.0 852.0 259.0Q843.5 259.0 838.5 264.0Q835.5 267.5 835.5 272.75Q835.5 278.0 838.5 287.5Q842.0 295.0 851.0 306.0Q860.0 317.0 871.75 328.5Q883.5 340.0 895.0 349.5Q906.5 359.0 914.5 363.0Q921.5 366.0 935.25 372.0Q949.0 378.0 963.0 384.5Q975.5 390.0 982.5 395.0Q989.5 400.0 987.0 401.0Q984.0 401.0 965.75 394.5Q947.5 388.0 924.5 377.5Q909.0 371.0 898.5 366.5Q888.0 362.0 878.5 359.25Q869.0 356.5 856.0 355.25Q843.0 354.0 822.5 353.75Q802.0 353.5 770.0 353.75Q738.0 354.0 689.5 354.5Q646.0 355.0 607.25 358.0Q568.5 361.0 537.75 366.0Q507.0 371.0 487.5 377.75Q468.0 384.5 463.5 392.0Q463.0 393.5 459.75 395.25Q456.5 397.0 452.5 397.0Q446.5 397.0 448.5 392.5Q449.0 391.5 452.0 381.0Q455.0 370.5 459.5 358.0Q462.5 344.0 463.25 337.0Q464.0 330.0 462.75 325.0Q461.5 320.0 458.0 312.5Q453.0 304.0 452.25 299.5Q451.5 295.0 454.5 292.0Q461.5 285.0 456.25 276.25Q451.0 267.5 431.0 252.0Q407.5 235.0 396.0 235.0Q388.0 235.0 390.5 244.75Q393.0 254.5 409.0 272.0Q420.5 283.5 423.5 289.25Q426.5 295.0 424.0 295.0Q421.5 295.0 414.0 290.0Q406.5 285.0 396.0 274.5Q383.5 262.5 372.25 253.75Q361.0 245.0 356.5 245.0Q351.0 245.0 345.75 252.75Q340.5 260.5 336.75 272.25Q333.0 284.0 331.5 296.5Q330.0 309.0 331.5 319.25Q333.0 329.5 338.0 333.5Q341.5 336.5 343.75 340.25Q346.0 344.0 346.0 345.0Q346.0 348.0 359.75 362.25Q373.5 376.5 392.0 394.0Q411.0 412.5 423.5 426.25Q436.0 440.0 433.5 442.5Q430.5 442.5 417.75 432.5Q405.0 422.5 389.0 407.0Q345.5 365.5 316.75 343.25Q288.0 321.0 277.0 321.0Q272.5 321.0 271.0 325.0Q269.5 331.0 191.0 335.5Q169.5 336.5 148.0 338.5Q126.5 340.5 109.75 342.75Q93.0 345.0 85.0 347.5Q73.0 350.5 64.25 354.0Q55.5 357.5 46.25 363.5Q37.0 369.5 23.5 379.5Q20.0 381.5 17.0 381.5Q13.0 381.5 11.5 377.75Q10.0 374.0 14.0 370.0Q17.5 366.0 20.5 356.25Q23.5 346.5 25.25 335.0Q27.0 323.5 27.25 313.75Q27.5 304.0 25.5 300.0Q22.5 295.0 22.75 289.5Q23.0 284.0 25.75 280.5Q28.5 277.0 32.0 279.5Q35.5 282.0 39.25 275.25Q43.0 268.5 44.75 257.0Q46.5 245.5 44.5 235.0Q43.5 227.5 44.25 216.75Q45.0 206.0 47.0 199.5Q49.5 191.0 49.0 179.25Q48.5 167.5 46.0 158.5Q43.5 149.5 39.5 149.5Q39.5 149.5 39.25 149.5Q39.0 149.5 39.0 149.5Q37.0 149.5 35.75 148.5Q34.5 147.5 35.0 146.0Q39.0 131.0 41.25 115.5Q43.5 100.0 44.0 88.25Q44.5 76.5 42.5 73.0Q39.0 65.0 41.0 58.0Q43.0 51.0 48.5 51.0Q50.0 51.0 51.25 53.5Q52.5 56.0 52.5 59.0Q52.5 66.5 65.5 73.75Q78.5 81.0 99.75 86.75Q121.0 92.5 146.5 95.75Q172.0 99.0 197.0 98.5Q204.0 97.5 210.25 97.5Q216.5 97.5 222.0 97.5Q230.5 97.5 236.5 97.75Q242.5 98.0 244.0 99.0Q247.0 101.0 261.75 88.75Q276.5 76.5 296.5 55.0Z" fill="black" /></svg>