<svg xmlns="http://www.w3.org/2000/svg" width="580.5" height="389.0" viewBox="0 0 580.5 389.0"><path d="M119.5 320.0Q107.5 318.0 89.75 312.5Q72.0 307.0 59.0 301.5L27.0 288.5V362.0L51.5 355.0Q61.5 351.5 71.5 348.5Q81.5 345.5 85.0 343.5Q89.0 342.0 99.25 340.0Q109.5 338.0 119.5 336.5Q129.5 335.0 137.5 333.25Q145.5 331.5 146.5 329.5Q147.5 328.0 139.5 325.25Q131.5 322.5 119.5 320.0ZM98.5 145.0Q97.0 143.5 88.0 142.75Q79.0 142.0 70.0 142.0Q64.0 142.0 59.5 142.5Q55.0 143.0 55.0 144.0Q55.0 144.5 58.5 151.0Q62.0 157.5 67.0 166.0Q72.0 174.5 75.25 179.0Q78.5 183.5 78.5 181.0Q78.5 178.5 81.75 173.0Q85.0 167.5 90.0 162.0Q95.0 156.5 97.5 151.5Q100.0 146.5 98.5 145.0ZM171.5 71.5Q157.5 66.5 145.25 62.0Q133.0 57.5 129.0 56.0Q124.0 53.5 122.25 58.0Q120.5 62.5 119.5 80.0Q119.0 91.0 119.0 99.5Q119.0 108.0 119.5 109.0Q121.5 109.0 131.0 106.5Q140.5 104.0 153.0 100.5Q165.5 97.0 177.75 93.25Q190.0 89.5 197.5 86.5Q202.5 84.5 196.75 81.25Q191.0 78.0 171.5 71.5ZM195.5 146.5Q195.5 144.5 188.75 143.25Q182.0 142.0 172.0 142.0Q155.5 142.0 150.5 145.5Q145.5 149.0 154.0 154.5Q156.0 155.0 159.5 160.25Q163.0 165.5 165.0 172.0L171.5 186.5L176.0 175.0Q178.5 170.0 181.75 164.5Q185.0 159.0 188.0 156.5Q191.5 154.0 193.5 151.0Q195.5 148.0 195.5 146.5ZM547.0 32.0Q547.0 31.0 536.75 30.25Q526.5 29.5 512.0 29.0Q497.5 28.0 487.0 28.75Q476.5 29.5 476.5 31.0Q476.5 32.5 479.5 39.25Q482.5 46.0 486.5 54.0Q490.5 62.0 495.5 74.5Q500.5 87.0 503.5 97.0L511.0 121.0L516.5 99.0Q519.0 90.0 524.5 77.0Q530.0 64.0 535.0 55.0Q540.0 46.5 543.5 39.5Q547.0 32.5 547.0 32.0ZM130.0 136.0Q130.0 135.0 143.0 134.25Q156.0 133.5 174.5 134.0Q193.0 134.0 206.0 135.0Q219.0 136.0 219.0 137.0Q219.0 138.0 213.75 144.0Q208.5 150.0 201.5 157.0Q194.0 165.0 190.0 171.0Q186.0 177.0 184.25 185.25Q182.5 193.5 180.5 209.0Q179.5 223.0 178.5 243.0Q177.5 263.0 177.5 276.5Q177.0 292.0 175.5 301.5Q174.0 311.0 171.5 311.0Q166.5 311.0 168.0 255.5Q168.5 233.5 168.0 219.5Q167.5 205.5 165.0 195.25Q162.5 185.0 156.75 175.5Q151.0 166.0 141.5 153.0Q136.5 147.0 133.25 141.75Q130.0 136.5 130.0 136.0ZM36.5 136.5Q36.5 135.0 49.5 134.25Q62.5 133.5 81.0 134.0Q99.0 134.0 112.25 135.25Q125.5 136.5 125.5 138.0Q125.5 139.5 121.5 143.25Q117.5 147.0 112.0 151.0Q101.5 158.5 96.0 168.75Q90.5 179.0 88.25 197.0Q86.0 215.0 86.0 246.5L85.5 303.0L109.0 310.0Q116.0 312.0 129.25 313.5Q142.5 315.0 166.5 316.0Q190.5 317.0 228.25 317.5Q266.0 318.0 321.0 318.5Q375.5 319.0 418.0 320.25Q460.5 321.5 485.0 322.75Q509.5 324.0 509.5 325.5Q509.5 326.5 489.5 327.5Q469.5 328.5 434.25 329.0Q399.0 329.5 353.0 329.5Q308.5 329.5 278.75 329.75Q249.0 330.0 229.5 330.5Q210.0 331.0 196.0 332.25Q182.0 333.5 169.5 335.5Q157.0 337.5 141.5 341.0Q94.5 350.5 61.0 360.5Q27.5 370.5 20.0 376.5Q17.5 379.0 14.5 379.0Q11.0 379.0 10.5 373.75Q10.0 368.5 13.0 360.0Q15.0 355.0 16.25 340.5Q17.5 326.0 17.5 310.5Q17.5 294.5 18.5 284.25Q19.5 274.0 21.5 274.0Q26.0 276.5 34.0 280.25Q42.0 284.0 50.5 287.75Q59.0 291.5 65.25 294.0Q71.5 296.5 72.0 296.5Q73.0 296.5 73.5 282.0Q74.0 267.5 74.0 247.5Q74.0 221.5 72.25 206.5Q70.5 191.5 64.75 180.0Q59.0 168.5 47.5 153.5Q43.0 147.5 39.75 142.5Q36.5 137.5 36.5 136.5ZM458.0 14.0Q458.0 10.0 466.5 14.0Q469.5 15.5 486.0 17.0Q502.5 18.5 522.5 19.5Q542.5 20.0 556.5 20.75Q570.5 21.5 570.5 22.5Q570.5 23.0 567.0 27.25Q563.5 31.5 558.5 37.0Q554.0 42.0 547.5 52.0Q541.0 62.0 536.5 71.5Q533.5 77.5 531.5 83.5Q529.5 89.5 528.25 98.75Q527.0 108.0 526.25 123.75Q525.5 139.5 525.0 165.5Q524.5 191.5 523.5 231.0Q523.0 268.0 522.0 297.75Q521.0 327.5 520.0 345.0Q519.0 362.5 518.0 362.5Q517.0 360.5 516.0 345.0Q515.0 329.5 514.25 305.0Q513.5 280.5 513.0 252.0Q512.5 216.5 512.0 195.0Q511.5 173.5 510.25 160.25Q509.0 147.0 506.75 137.25Q504.5 127.5 500.5 116.5L490.0 83.5L367.5 84.5Q318.0 85.0 284.5 86.25Q251.0 87.5 226.75 90.75Q202.5 94.0 181.5 100.0Q160.5 106.0 136.0 116.0Q112.5 125.0 105.5 125.0Q105.5 125.0 105.25 125.0Q105.0 125.0 105.0 125.0Q104.5 124.0 105.0 118.25Q105.5 112.5 107.5 105.5Q110.0 98.5 110.5 85.25Q111.0 72.0 110.0 61.0Q107.0 35.0 114.0 35.0Q118.0 35.0 130.5 43.5Q136.0 48.0 148.0 53.75Q160.0 59.5 171.0 63.5Q180.0 67.0 189.75 69.0Q199.5 71.0 216.25 72.25Q233.0 73.5 263.0 74.0Q293.0 74.5 342.5 75.5Q382.0 76.0 414.5 75.75Q447.0 75.5 466.5 75.0Q486.0 74.5 486.0 73.5Q486.0 72.0 481.75 63.5Q477.5 55.0 472.0 44.0Q466.0 33.5 462.0 24.75Q458.0 16.0 458.0 14.0Z" fill="black" /></svg>