<svg xmlns="http://www.w3.org/2000/svg" width="377.0" height="381.5" viewBox="0 0 377.0 381.5"><path d="M80.0 134.5Q78.0 129.5 76.0 125.75Q74.0 122.0 73.0 122.0Q72.5 122.0 66.5 129.75Q60.5 137.5 52.0 148.0L31.0 173.0L46.0 176.0Q51.5 176.5 63.75 178.75Q76.0 181.0 86.5 183.5Q97.5 185.5 105.25 186.5Q113.0 187.5 113.5 187.0Q114.5 186.5 110.5 180.75Q106.5 175.0 100.0 167.0Q94.0 159.0 88.25 149.5Q82.5 140.0 80.0 134.5ZM173.5 104.0Q173.5 104.0 170.25 103.5Q167.0 103.0 161.5 104.0Q152.0 104.0 150.75 107.75Q149.5 111.5 154.0 125.5L158.5 138.5L166.0 122.0Q173.5 107.0 173.5 104.0ZM191.5 152.0Q187.0 137.5 183.0 127.75Q179.0 118.0 178.0 118.0Q175.0 118.0 172.25 127.75Q169.5 137.5 167.5 151.75Q165.5 166.0 165.5 180.5V208.0L182.5 218.5L201.5 228.5L200.5 206.5Q200.0 196.0 198.5 182.5Q197.0 169.0 191.5 152.0ZM212.5 131.0Q216.0 124.5 215.0 123.25Q214.0 122.0 204.5 122.0H190.0L197.0 140.0Q202.0 153.5 203.5 153.5Q204.5 153.5 206.0 149.0Q206.5 145.0 208.75 139.75Q211.0 134.5 212.5 131.0ZM252.5 98.5Q242.0 93.0 234.75 90.5Q227.5 88.0 219.25 87.25Q211.0 86.5 197.5 86.5Q172.5 87.0 159.75 89.5Q147.0 92.0 152.5 95.5Q155.5 96.5 160.5 96.5Q163.0 96.5 166.0 96.25Q169.0 96.0 172.0 95.5Q175.0 95.0 177.25 94.75Q179.5 94.5 181.5 94.5Q185.0 94.5 185.5 96.0Q186.0 97.5 185.0 101.5Q183.0 106.5 185.5 108.75Q188.0 111.0 196.0 113.0Q209.0 114.0 219.5 113.0Q224.0 111.5 226.5 111.5Q229.5 111.5 228.0 116.25Q226.5 121.0 220.0 134.0Q216.5 141.5 214.5 148.5Q212.5 155.5 211.75 165.5Q211.0 175.5 211.0 193.0V235.0L263.0 265.0L314.5 296.5L315.5 251.5Q316.0 232.0 315.5 220.25Q315.0 208.5 313.0 198.25Q311.0 188.0 306.5 173.5Q299.5 150.0 292.75 136.5Q286.0 123.0 276.75 114.5Q267.5 106.0 252.5 98.5ZM123.5 65.5 133.0 44.0 113.5 41.5Q105.5 41.5 99.75 41.75Q94.0 42.0 94.0 43.0Q94.5 45.0 97.25 53.0Q100.0 61.0 103.75 70.75Q107.5 80.5 110.75 87.5Q114.0 94.5 114.5 94.5Q114.5 92.0 117.25 83.5Q120.0 75.0 123.5 65.5ZM218.0 77.5 209.5 68.5Q206.0 65.0 202.25 58.25Q198.5 51.5 197.0 45.5L191.5 31.0L177.5 53.5Q172.0 63.0 167.5 70.25Q163.0 77.5 162.5 78.5Q162.5 79.5 170.5 79.5Q178.5 79.5 190.0 79.0ZM347.5 104.0Q347.5 103.0 338.25 102.75Q329.0 102.5 316.0 102.5H284.5L293.5 121.0Q297.5 129.0 301.75 138.75Q306.0 148.5 308.0 155.0Q310.5 161.0 312.75 165.5Q315.0 170.0 316.0 170.0Q317.0 170.0 319.0 165.0Q321.0 160.0 323.0 152.5Q325.5 145.5 329.5 136.5Q333.5 127.5 338.0 121.0Q342.0 115.0 344.75 109.75Q347.5 104.5 347.5 104.0ZM185.5 24.5Q194.0 10.0 197.5 10.0Q201.5 10.0 201.5 23.5Q201.5 35.5 207.5 48.5Q213.5 61.5 221.5 68.5Q228.0 74.5 239.25 81.5Q250.5 88.5 259.75 92.75Q269.0 97.0 269.0 95.0Q269.0 94.0 278.5 93.75Q288.0 93.5 301.0 93.5Q315.0 93.5 330.0 93.75Q345.0 94.0 355.5 94.75Q366.0 95.5 367.0 96.5Q367.0 96.5 364.0 100.75Q361.0 105.0 356.0 110.5Q350.5 116.0 344.0 125.0Q337.5 134.0 335.0 142.0Q332.0 148.0 330.0 154.5Q328.0 161.0 327.25 172.75Q326.5 184.5 326.25 206.25Q326.0 228.0 326.0 265.0Q326.5 316.5 325.25 344.0Q324.0 371.5 321.5 371.5Q319.0 371.5 317.0 339.5Q316.0 326.5 316.0 316.75Q316.0 307.0 315.5 306.5Q315.5 305.5 300.0 296.75Q284.5 288.0 263.0 275.5L211.0 245.0L210.5 272.5Q210.0 299.5 205.5 299.5Q201.5 299.5 201.5 269.5V239.0L183.5 228.5L165.5 217.0V251.0Q165.5 282.5 162.0 282.5Q160.5 281.5 159.25 271.0Q158.0 260.5 158.0 246.5V212.5L143.5 206.5Q138.0 205.0 133.0 203.25Q128.0 201.5 126.5 201.5Q124.5 201.5 123.25 212.25Q122.0 223.0 122.0 242.5Q122.0 261.5 121.0 273.0Q120.0 284.5 118.0 284.5Q116.5 284.5 115.5 272.75Q114.5 261.0 114.5 241.0V198.5L92.0 192.5Q82.5 189.5 67.25 187.0Q52.0 184.5 39.5 183.5L10.0 180.5L28.0 162.5Q35.5 154.5 44.75 143.0Q54.0 131.5 60.5 122.5Q73.0 105.0 77.0 105.0Q80.0 105.0 81.5 115.0Q82.5 120.0 87.75 131.0Q93.0 142.0 99.25 152.5Q105.5 163.0 109.0 166.0Q111.0 168.0 112.0 168.0Q114.5 168.0 114.5 155.0Q114.5 148.5 112.0 135.25Q109.5 122.0 105.75 106.5Q102.0 91.0 97.5 76.5Q93.0 62.0 89.0 53.0Q86.0 46.5 84.5 41.5Q83.0 36.5 83.0 35.0Q83.0 34.0 92.75 33.25Q102.5 32.5 116.0 32.5Q130.0 32.5 139.75 33.25Q149.5 34.0 149.0 35.0Q148.5 36.0 145.0 43.0Q141.5 50.0 136.0 59.0Q131.0 69.0 128.25 76.25Q125.5 83.5 124.5 95.0Q123.5 106.5 122.5 130.0L121.0 179.5L155.5 201.5L157.0 185.5Q157.5 177.0 155.0 162.5Q152.5 148.0 148.5 133.0Q144.5 118.0 140.0 109.0Q136.0 102.0 136.25 99.5Q136.5 97.0 141.5 95.0Q147.0 90.5 146.0 89.5Q145.5 89.0 149.5 81.75Q153.5 74.5 160.0 65.0Q167.0 55.0 174.5 43.0Q182.0 31.0 185.5 24.5Z" fill="black" /></svg>