<svg xmlns="http://www.w3.org/2000/svg" width="534.5" height="387.0" viewBox="0 0 534.5 387.0"><path d="M66.5 287.0Q66.0 273.5 64.0 270.5Q62.0 267.5 53.5 266.0Q48.5 265.0 45.0 264.25Q41.5 263.5 41.0 264.0Q41.0 264.0 40.75 271.5Q40.5 279.0 40.0 289.0Q39.5 303.0 40.5 308.5Q41.5 314.0 45.5 314.0Q49.0 314.0 58.0 309.5Q65.0 306.5 66.25 303.0Q67.5 299.5 66.5 287.0ZM129.0 287.0Q128.5 285.0 122.0 283.0Q115.5 281.0 107.25 279.0Q99.0 277.0 91.75 275.75Q84.5 274.5 81.5 274.5Q76.5 274.5 75.5 277.75Q74.5 281.0 74.5 288.5Q74.5 297.0 75.5 300.0Q76.5 303.0 80.0 302.0Q82.0 301.0 90.25 299.25Q98.5 297.5 107.5 295.5Q117.5 293.5 123.5 291.25Q129.5 289.0 129.0 287.0ZM144.5 286.5Q144.5 284.5 143.0 284.5Q141.0 284.5 141.0 286.5Q141.0 288.5 143.0 288.5Q144.5 288.5 144.5 286.5ZM89.5 135.0Q89.5 132.5 85.0 131.25Q80.5 130.0 69.0 130.0Q61.0 130.0 55.0 130.0Q49.0 130.0 49.0 131.0Q49.0 131.5 51.0 138.0Q53.0 144.5 56.0 153.0Q59.5 161.5 61.5 169.25Q63.5 177.0 63.5 179.5Q63.5 185.5 65.5 185.5Q67.0 185.5 70.0 180.0Q73.0 174.5 76.0 165.0Q78.5 156.5 81.5 150.0Q84.5 143.5 85.5 142.5Q89.5 141.0 89.5 135.0ZM112.0 158.0Q108.5 149.5 104.75 143.25Q101.0 137.0 99.5 137.0Q98.5 137.0 94.5 143.25Q90.5 149.5 86.5 158.0Q82.5 167.0 80.25 174.75Q78.0 182.5 77.0 193.0Q76.0 203.5 75.5 221.0Q74.5 244.5 75.5 254.5Q76.5 264.5 84.0 267.25Q91.5 270.0 109.5 272.0L130.0 274.5L130.5 256.5Q131.5 236.5 130.0 221.25Q128.5 206.0 124.25 191.25Q120.0 176.5 112.0 158.0ZM73.0 81.5Q59.0 78.5 47.5 75.75Q36.0 73.0 33.5 72.5Q29.0 71.0 27.75 75.0Q26.5 79.0 26.5 96.5V122.5L37.0 120.5Q41.0 119.5 47.25 117.25Q53.5 115.0 58.0 113.0Q63.0 111.0 75.25 107.75Q87.5 104.5 100.5 102.5Q113.5 100.0 123.0 97.75Q132.5 95.5 133.0 95.0Q133.5 94.0 129.75 93.0Q126.0 92.0 120.5 91.0Q114.0 90.0 100.25 87.25Q86.5 84.5 73.0 81.5ZM151.5 146.5Q150.0 145.0 141.75 144.25Q133.5 143.5 125.75 143.25Q118.0 143.0 117.0 144.0Q116.5 145.0 118.75 152.25Q121.0 159.5 124.5 169.0L133.0 190.5L137.0 179.5Q138.5 175.0 141.5 168.5Q144.5 162.0 146.5 158.0Q149.0 153.5 150.25 150.25Q151.5 147.0 151.5 146.5ZM377.5 104.0Q374.0 102.0 354.25 101.25Q334.5 100.5 306.5 100.5Q277.5 100.5 243.25 101.25Q209.0 102.0 176.75 103.5Q144.5 105.0 120.5 107.0Q96.5 109.0 87.5 111.5Q67.5 116.5 66.25 119.5Q65.0 122.5 83.0 122.5Q94.5 122.5 99.25 123.75Q104.0 125.0 104.0 127.5Q104.0 132.0 115.5 134.5Q127.0 137.0 147.0 137.0Q162.0 137.0 165.25 139.5Q168.5 142.0 161.5 148.0Q152.5 155.5 146.5 177.0Q140.5 198.5 139.0 230.5Q137.5 250.5 137.25 259.5Q137.0 268.5 138.5 271.5Q140.0 274.5 143.5 276.5Q148.0 279.0 162.0 281.25Q176.0 283.5 195.5 285.0Q215.0 286.5 235.5 287.25Q256.0 288.0 273.5 287.5L316.0 286.5L318.5 236.5H304.0Q294.5 236.5 272.75 242.0Q251.0 247.5 221.5 257.5Q217.0 259.0 215.75 254.75Q214.5 250.5 214.5 233.5Q214.5 222.5 215.0 214.75Q215.5 207.0 216.0 207.0Q216.0 207.0 222.75 210.5Q229.5 214.0 238.5 218.5Q252.0 225.0 261.0 227.25Q270.0 229.5 287.5 229.5H315.0L312.5 217.0Q311.5 212.5 308.5 205.25Q305.5 198.0 302.5 193.0Q299.5 188.5 298.25 184.75Q297.0 181.0 298.5 181.0Q301.0 180.5 308.5 180.75Q316.0 181.0 324.75 181.5Q333.5 182.0 340.0 182.5Q346.5 183.0 347.0 183.5Q348.0 184.0 346.0 187.0Q344.0 190.0 340.5 193.5Q336.5 198.0 333.0 205.25Q329.5 212.5 328.0 218.75Q326.5 225.0 328.0 227.0Q329.0 228.0 338.0 228.75Q347.0 229.5 358.0 229.5Q368.5 229.5 378.75 229.0Q389.0 228.5 395.75 227.75Q402.5 227.0 402.5 226.0Q402.5 223.0 398.25 213.25Q394.0 203.5 388.75 192.75Q383.5 182.0 380.0 176.5Q376.5 171.5 373.0 169.5Q369.5 167.5 360.75 167.0Q352.0 166.5 331.5 166.5Q314.5 166.5 303.25 167.25Q292.0 168.0 282.25 170.0Q272.5 172.0 259.5 176.5Q246.0 180.5 235.75 183.5Q225.5 186.5 224.5 187.0Q223.5 187.0 222.75 180.0Q222.0 173.0 222.0 163.75Q222.0 154.5 222.25 146.75Q222.5 139.0 223.5 138.0Q225.0 138.0 230.75 140.5Q236.5 143.0 244.5 147.0Q251.5 150.5 257.0 152.75Q262.5 155.0 270.75 156.0Q279.0 157.0 293.5 157.5Q308.0 158.0 333.5 158.5L402.5 160.0V148.5Q402.5 142.0 398.5 132.75Q394.5 123.5 388.75 115.25Q383.0 107.0 377.5 104.0ZM242.5 229.0Q235.0 226.5 229.25 224.25Q223.5 222.0 223.0 222.0Q222.5 222.0 222.25 225.75Q222.0 229.5 222.0 235.0Q222.0 247.5 227.0 247.5Q231.0 247.5 237.5 244.5Q241.5 243.0 246.0 241.25Q250.5 239.5 253.5 238.5Q258.0 237.0 256.0 235.25Q254.0 233.5 242.5 229.0ZM268.0 165.5 253.5 159.0Q246.5 156.0 242.0 154.25Q237.5 152.5 235.0 152.5Q229.5 152.5 229.5 165.0Q229.5 173.5 230.75 175.5Q232.0 177.5 236.0 176.0Q238.5 175.0 244.25 173.0Q250.0 171.0 255.0 169.5ZM321.0 212.5 333.0 189.0H321.5Q312.5 189.0 311.5 191.25Q310.5 193.5 315.5 203.0ZM401.0 286.5 403.0 236.5H366.0Q345.0 236.5 336.25 237.75Q327.5 239.0 326.25 245.25Q325.0 251.5 326.0 266.5L327.0 286.5ZM417.5 103.0Q417.5 102.0 413.75 101.25Q410.0 100.5 404.5 100.5Q394.0 100.5 392.5 104.25Q391.0 108.0 397.5 117.0Q401.5 122.5 403.0 122.5Q404.5 122.5 408.0 118.25Q411.5 114.0 414.5 109.0Q417.5 104.0 417.5 103.0ZM425.0 170.0Q425.0 168.5 418.0 167.5Q411.0 166.5 403.0 166.5Q397.5 166.5 392.75 167.25Q388.0 168.0 387.0 169.0Q386.5 169.5 388.75 175.0Q391.0 180.5 394.5 187.5L404.0 204.5L411.0 191.5Q413.5 186.0 416.5 181.25Q419.5 176.5 421.0 176.0Q425.0 174.0 425.0 170.0ZM468.5 120.5Q465.0 108.0 462.5 104.75Q460.0 101.5 452.5 101.0Q442.0 100.0 429.75 107.5Q417.5 115.0 413.5 125.0Q412.0 129.0 411.25 135.75Q410.5 142.5 411.0 148.0Q412.0 157.5 414.0 159.0Q416.0 160.5 428.0 160.0Q434.0 159.5 438.5 160.0Q443.0 160.5 443.0 161.5Q443.0 162.5 438.75 167.75Q434.5 173.0 429.0 179.5Q421.0 188.5 416.75 197.75Q412.5 207.0 411.25 220.5Q410.0 234.0 411.0 257.0L412.0 286.5H471.0L472.0 213.0Q472.5 175.5 471.5 152.75Q470.5 130.0 468.5 120.5ZM505.0 26.5Q503.0 26.0 494.0 25.5Q485.0 25.0 474.0 24.5Q463.0 24.0 455.0 24.0Q447.0 24.0 447.0 24.5Q447.0 25.0 449.75 32.0Q452.5 39.0 456.0 49.0Q459.5 58.5 462.75 70.0Q466.0 81.5 467.0 88.0Q470.0 105.0 473.0 105.0Q476.0 105.0 480.0 88.0Q482.0 80.5 486.5 68.5Q491.0 56.5 495.5 47.5Q499.5 39.0 502.5 32.75Q505.5 26.5 505.0 26.5ZM436.0 12.5Q436.0 10.0 437.75 10.0Q439.5 10.0 444.5 12.5Q448.0 14.5 460.0 16.0Q472.0 17.5 488.5 17.5Q503.0 17.5 513.75 17.75Q524.5 18.0 524.5 19.0Q524.5 19.5 521.5 23.0Q518.5 26.5 514.5 32.0Q503.5 44.5 495.5 65.0Q487.5 85.5 484.0 109.0Q483.0 117.0 482.0 137.75Q481.0 158.5 480.5 186.0Q480.0 213.5 480.0 242.5Q480.0 293.0 479.0 320.25Q478.0 347.5 476.5 347.5Q474.5 347.5 473.5 340.0Q472.5 332.5 472.5 321.5V295.5H410.0V310.5Q410.0 316.5 409.0 320.75Q408.0 325.0 406.5 325.0Q405.0 325.0 403.75 320.75Q402.5 316.5 402.5 310.5Q402.5 300.5 401.0 297.75Q399.5 295.0 391.0 294.0Q386.0 293.0 375.0 292.5Q364.0 292.0 353.0 293.0L327.0 294.0L326.0 305.5Q325.5 317.5 321.5 317.5Q318.5 317.5 317.0 305.5L316.0 294.0L229.5 295.5Q206.0 295.5 185.75 296.0Q165.5 296.5 153.25 297.0Q141.0 297.5 140.0 298.5Q139.0 299.0 138.25 306.25Q137.5 313.5 137.5 323.5Q137.5 345.5 134.0 345.5Q132.5 344.5 131.25 337.5Q130.0 330.5 130.0 321.0V298.5L116.5 301.0Q110.5 301.5 102.25 303.5Q94.0 305.5 88.5 307.0L74.5 311.0V343.5Q74.5 358.0 73.5 367.5Q72.5 377.0 71.0 377.0Q69.0 377.0 68.25 368.5Q67.5 360.0 67.5 347.5Q67.5 335.5 66.5 326.25Q65.5 317.0 64.5 316.5Q63.5 315.5 58.25 317.25Q53.0 319.0 47.5 322.0Q41.0 324.5 36.5 326.75Q32.0 329.0 31.0 329.0Q30.5 329.0 31.0 321.75Q31.5 314.5 32.0 304.0Q33.0 293.5 32.75 283.0Q32.5 272.5 31.0 267.5Q29.5 262.5 29.0 258.5Q28.5 254.5 29.0 254.0Q30.0 253.0 35.25 254.0Q40.5 255.0 47.0 257.0Q54.0 259.0 59.25 259.75Q64.5 260.5 65.0 260.0Q67.5 257.5 67.5 246.25Q67.5 235.0 65.5 219.75Q63.5 204.5 60.0 190.5Q51.0 156.5 45.25 143.0Q39.5 129.5 34.5 131.0Q24.0 134.0 21.0 134.0Q17.5 134.0 18.5 130.0Q20.5 122.5 20.5 109.0Q20.5 95.5 19.25 83.75Q18.0 72.0 16.0 70.0Q10.0 62.5 18.5 62.5Q26.5 62.5 50.5 69.0Q60.0 71.5 73.75 74.5Q87.5 77.5 102.5 80.5Q117.5 83.5 130.0 86.0Q143.0 88.0 153.5 89.5Q164.0 91.0 176.5 92.0Q189.0 93.0 206.75 93.25Q224.5 93.5 251.5 93.5Q278.5 93.5 318.0 93.5L460.0 93.0L458.5 83.5Q458.0 79.5 454.75 68.5Q451.5 57.5 447.0 46.0Q442.0 34.5 439.0 24.5Q436.0 14.5 436.0 12.5Z" fill="black" /></svg>