<svg xmlns="http://www.w3.org/2000/svg" width="701.5" height="386.5" viewBox="0 0 701.5 386.5"><path d="M191.0 318.0Q191.0 311.0 189.0 311.0Q187.0 311.0 186.5 317.75Q186.0 324.5 186.5 334.5Q187.5 343.5 188.25 350.25Q189.0 357.0 189.0 357.0Q189.0 357.0 195.0 354.0Q201.0 351.0 209.0 346.5Q217.5 342.0 226.25 339.0Q235.0 336.0 238.5 336.0Q247.0 336.0 241.75 332.0Q236.5 328.0 219.0 322.5Q214.0 320.5 209.75 319.75Q205.5 319.0 203.0 319.0Q199.5 319.0 199.5 320.0Q199.5 324.0 195.5 324.0Q194.0 324.0 192.5 322.0Q191.0 320.0 191.0 318.0ZM39.5 222.5Q33.0 218.5 27.25 215.75Q21.5 213.0 21.0 213.0Q20.5 213.0 20.0 219.25Q19.5 225.5 19.5 234.0Q19.5 244.0 19.75 248.25Q20.0 252.5 22.0 252.5Q23.5 252.5 28.5 249.0Q32.5 246.5 38.0 243.25Q43.5 240.0 47.0 238.5Q54.5 234.5 53.5 232.5Q52.5 230.5 39.5 222.5ZM297.5 279.0Q297.5 274.0 294.0 273.0Q290.0 270.5 290.0 276.0Q290.0 282.5 294.0 282.5Q297.5 282.5 297.5 279.0ZM39.5 114.5Q33.5 111.0 28.0 108.75Q22.5 106.5 21.5 106.5Q20.5 106.5 20.25 111.75Q20.0 117.0 20.75 124.0Q21.5 131.0 22.5 136.5Q23.5 142.0 24.5 142.5Q26.5 142.5 34.25 138.5Q42.0 134.5 49.0 130.25Q56.0 126.0 56.0 124.5Q56.0 123.5 51.25 120.75Q46.5 118.0 39.5 114.5ZM224.0 209.0Q224.0 204.5 219.5 204.5Q218.0 204.5 217.5 206.0Q217.0 207.5 218.0 209.0Q219.5 213.0 222.5 213.0Q224.0 213.0 224.0 209.0ZM325.5 171.0Q328.0 168.5 325.5 165.0Q322.5 163.0 322.5 168.0Q322.5 170.0 323.5 171.0Q324.5 172.0 325.5 171.0ZM325.5 207.5Q328.0 205.0 325.5 202.5Q324.5 201.5 323.5 202.25Q322.5 203.0 322.5 204.5Q322.5 206.5 323.5 207.5Q324.5 208.5 325.5 207.5ZM325.5 244.5Q328.5 241.5 325.5 239.0Q324.5 238.0 323.5 238.75Q322.5 239.5 322.5 242.0Q322.5 244.0 323.5 244.75Q324.5 245.5 325.5 244.5ZM198.0 49.5Q199.5 41.5 198.75 39.0Q198.0 36.5 192.5 36.5Q187.0 36.5 186.25 39.5Q185.5 42.5 187.5 56.0Q192.5 77.5 194.5 77.5Q195.5 77.5 195.5 71.0Q195.5 67.5 196.25 61.25Q197.0 55.0 198.0 49.5ZM246.0 45.0Q239.5 42.5 233.75 40.25Q228.0 38.0 226.5 37.5Q225.5 36.5 225.0 38.25Q224.5 40.0 225.5 42.5Q226.5 45.5 227.5 50.75Q228.5 56.0 228.5 61.5V72.5L244.5 64.5Q251.5 60.5 256.25 57.25Q261.0 54.0 261.0 53.0Q261.0 52.0 256.5 49.75Q252.0 47.5 246.0 45.0ZM439.5 31.5Q441.0 27.0 437.5 25.75Q434.0 24.5 417.0 24.5Q407.0 24.5 399.5 25.0Q392.0 25.5 392.0 26.0Q392.0 27.0 393.5 30.75Q395.0 34.5 396.5 39.5Q399.0 44.0 402.5 54.75Q406.0 65.5 408.5 75.5Q411.0 84.0 413.75 89.5Q416.5 95.0 417.0 95.0Q418.5 89.5 421.75 80.25Q425.0 71.0 428.75 60.5Q432.5 50.0 435.5 42.0Q438.5 34.0 439.5 31.5ZM443.0 135.0Q436.5 131.5 431.5 129.5Q426.5 127.5 426.5 127.5Q425.5 127.5 425.25 133.25Q425.0 139.0 425.0 147.0V167.0L447.5 158.0Q463.5 152.0 468.75 147.5Q474.0 143.0 465.0 143.0Q463.0 143.0 456.5 140.75Q450.0 138.5 443.0 135.0ZM478.5 242.0Q478.5 241.0 473.0 238.25Q467.5 235.5 459.75 232.0Q452.0 228.5 445.5 225.5Q439.0 222.5 436.5 222.0Q435.5 222.0 434.5 227.0Q433.5 232.0 433.5 239.0Q433.5 247.0 434.0 252.5Q434.5 258.0 435.5 258.0Q437.5 258.0 444.25 255.75Q451.0 253.5 459.0 250.5Q467.0 247.5 472.75 245.0Q478.5 242.5 478.5 242.0ZM246.5 135.0Q242.5 133.5 240.0 132.5Q237.5 131.5 235.5 131.5Q232.5 131.5 230.0 135.5Q228.0 139.5 229.75 142.0Q231.5 144.5 236.0 144.5Q240.5 144.5 244.5 142.5Q251.5 139.5 251.75 138.5Q252.0 137.5 246.5 135.0ZM675.0 46.5Q675.0 45.5 667.5 45.25Q660.0 45.0 650.0 45.0Q636.0 45.0 631.0 45.75Q626.0 46.5 628.5 55.0Q631.0 63.5 639.5 86.0L649.5 112.5L652.5 98.0Q653.5 92.5 657.5 82.75Q661.5 73.0 665.0 66.0Q669.0 58.5 672.0 53.0Q675.0 47.5 675.0 46.5ZM10.5 234.5Q10.0 218.5 10.0 207.5Q10.0 196.5 11.0 196.5Q12.0 196.5 16.0 198.75Q20.0 201.0 24.5 204.5Q29.0 208.0 38.5 213.5Q48.0 219.0 57.0 223.5Q67.0 228.0 74.75 230.25Q82.5 232.5 94.5 233.25Q106.5 234.0 129.0 234.0Q152.0 234.0 165.5 235.0Q179.0 236.0 179.0 237.5Q179.0 239.5 162.75 240.75Q146.5 242.0 117.0 242.0Q89.5 242.0 75.5 242.5Q61.5 243.0 54.5 244.75Q47.5 246.5 41.0 250.5Q35.5 254.0 29.75 258.75Q24.0 263.5 21.5 267.5Q15.5 275.0 13.5 274.5Q13.0 273.5 12.0 261.75Q11.0 250.0 10.5 234.5ZM12.5 128.0Q12.0 112.0 13.0 101.0Q14.0 90.0 15.0 90.0Q18.5 90.0 27.5 98.0Q42.5 109.0 54.75 114.75Q67.0 120.5 83.75 122.75Q100.5 125.0 129.0 126.0Q155.0 127.0 169.0 128.5Q183.0 130.0 183.0 132.0Q183.0 136.0 148.5 134.0Q141.5 133.0 132.75 133.0Q124.0 133.0 115.0 133.0Q106.0 133.0 97.5 133.0Q89.0 133.0 82.5 134.0Q67.5 135.0 59.75 136.75Q52.0 138.5 46.75 142.0Q41.5 145.5 33.0 153.0Q26.0 159.5 20.75 163.75Q15.5 168.0 15.0 168.0Q14.5 167.0 14.0 155.25Q13.5 143.5 12.5 128.0ZM207.5 209.0Q207.5 200.5 208.5 197.0Q209.5 193.5 213.0 193.5Q215.5 193.5 219.5 194.75Q223.5 196.0 229.5 198.5Q236.5 201.5 249.0 203.0Q261.5 204.5 275.0 204.5Q288.5 204.5 297.25 206.0Q306.0 207.5 306.0 209.0Q306.0 211.0 296.0 212.0Q286.0 213.0 270.0 213.0Q251.0 213.0 240.5 214.5Q230.0 216.0 225.5 219.5Q218.5 225.0 214.0 225.0Q207.5 225.0 207.5 209.0ZM312.5 192.0Q313.5 191.0 318.5 191.75Q323.5 192.5 330.0 195.0Q336.0 197.0 349.75 198.5Q363.5 200.0 377.0 201.0Q390.5 201.0 399.5 202.0Q408.5 203.0 408.5 204.5Q408.5 206.5 399.0 207.75Q389.5 209.0 375.0 209.0Q358.5 209.0 346.5 210.75Q334.5 212.5 329.0 215.0Q324.5 217.0 319.75 218.5Q315.0 220.0 314.0 219.0Q312.0 217.5 311.0 211.75Q310.0 206.0 310.5 199.75Q311.0 193.5 312.5 192.0ZM313.5 228.5Q314.5 227.5 315.0 226.75Q315.5 226.0 316.5 226.0Q318.0 226.0 321.25 227.5Q324.5 229.0 332.0 231.5Q339.0 234.5 351.5 236.0Q364.0 237.5 378.0 237.5Q391.5 237.5 400.0 238.5Q408.5 239.5 408.5 242.0Q408.5 244.0 399.0 245.0Q389.5 246.0 374.0 246.0Q338.5 246.0 327.0 252.0Q315.5 257.5 312.5 255.5Q311.0 253.5 310.5 247.75Q310.0 242.0 310.75 236.0Q311.5 230.0 313.5 228.5ZM310.5 167.0Q310.5 161.0 311.25 158.75Q312.0 156.5 315.0 156.5Q316.0 156.5 317.75 156.75Q319.5 157.0 321.5 157.5Q326.0 158.5 340.25 160.5Q354.5 162.5 369.0 163.5Q384.0 165.0 395.25 166.75Q406.5 168.5 407.0 169.5Q409.0 170.5 399.5 171.5Q390.0 172.5 375.5 172.5Q358.5 172.5 346.5 173.75Q334.5 175.0 329.0 178.5Q321.0 182.5 317.5 182.5Q310.5 182.5 310.5 167.0ZM380.0 14.0Q380.0 10.5 381.5 10.25Q383.0 10.0 387.5 12.5Q391.0 13.5 402.75 15.0Q414.5 16.5 427.5 16.5Q440.5 16.5 449.0 17.5Q457.5 18.5 456.5 19.5Q446.0 41.0 439.75 54.75Q433.5 68.5 431.0 78.0Q428.5 87.5 428.0 96.5Q428.0 106.0 428.5 110.75Q429.0 115.5 432.75 118.5Q436.5 121.5 445.5 127.5Q452.5 131.0 458.0 133.0Q463.5 135.0 473.5 136.0Q483.5 137.0 502.25 137.5Q521.0 138.0 553.5 138.5Q592.0 139.0 617.25 140.5Q642.5 142.0 642.5 144.0Q642.5 145.5 623.0 146.5Q603.5 147.5 573.0 147.5Q543.5 147.5 526.5 148.25Q509.5 149.0 498.75 150.75Q488.0 152.5 476.0 156.0Q454.0 162.5 443.0 167.25Q432.0 172.0 428.5 176.75Q425.0 181.5 425.0 189.5Q425.0 198.0 428.25 202.5Q431.5 207.0 442.5 214.5Q452.5 221.0 462.0 224.75Q471.5 228.5 484.25 230.5Q497.0 232.5 517.25 233.0Q537.5 233.5 569.0 233.0L648.5 231.5L648.0 184.5Q648.0 146.5 641.25 116.5Q634.5 86.5 618.5 56.0Q615.0 48.0 613.0 42.25Q611.0 36.5 612.5 36.5Q616.5 36.5 628.75 36.5Q641.0 36.5 655.0 37.0Q669.0 37.5 679.5 38.0Q690.0 38.5 690.5 39.0Q691.5 39.5 688.75 44.0Q686.0 48.5 681.5 54.5Q673.5 64.5 669.0 74.25Q664.5 84.0 662.25 98.75Q660.0 113.5 659.25 138.75Q658.5 164.0 658.5 205.5Q658.5 254.0 657.5 280.75Q656.5 307.5 654.5 307.5Q653.0 307.5 651.5 298.25Q650.0 289.0 650.0 274.5V242.0H581.0Q545.0 242.0 521.0 244.0Q497.0 246.0 478.75 251.25Q460.5 256.5 441.0 267.0Q433.0 270.5 429.75 273.25Q426.5 276.0 425.75 282.0Q425.0 288.0 425.0 301.5Q425.0 312.0 426.5 320.5Q428.0 329.0 429.0 330.0Q436.0 334.0 431.0 336.25Q426.0 338.5 405.0 339.5Q384.0 340.5 342.0 340.5Q303.5 340.5 278.75 341.5Q254.0 342.5 238.75 345.0Q223.5 347.5 213.75 352.25Q204.0 357.0 195.5 365.0Q190.0 370.0 185.75 373.25Q181.5 376.5 181.5 376.5Q181.0 375.5 179.75 363.5Q178.5 351.5 177.5 335.0Q177.0 311.5 177.0 304.0Q177.0 296.5 180.0 296.5Q180.5 296.5 183.5 297.5Q187.0 298.5 188.75 297.25Q190.5 296.0 191.0 287.5Q191.5 279.0 191.5 259.0Q191.5 239.0 190.5 202.5Q190.0 175.5 188.75 150.25Q187.5 125.0 186.25 106.5Q185.0 88.0 183.5 81.5Q182.0 72.5 180.0 60.75Q178.0 49.0 177.0 42.0L174.0 25.5L192.0 27.5Q199.0 28.0 204.75 29.25Q210.5 30.5 211.5 30.5Q211.5 31.0 209.75 39.0Q208.0 47.0 205.5 57.5Q203.5 67.5 202.0 83.75Q200.5 100.0 200.0 126.5Q199.5 153.0 199.5 195.0V306.5L215.0 312.5Q231.0 319.0 243.5 323.0Q256.0 327.0 269.5 329.0Q283.0 331.0 301.0 331.5Q319.0 332.0 345.5 332.0H417.0V282.0L360.5 284.0Q337.5 284.5 317.5 286.0Q297.5 287.5 293.0 288.5Q288.5 290.0 286.5 290.0Q282.5 290.0 280.5 279.0Q279.0 267.0 282.0 264.0Q283.0 263.0 291.0 264.5Q299.0 266.0 309.0 268.5Q319.0 271.0 337.75 272.75Q356.5 274.5 375.0 274.5H417.0L415.5 143.0H348.0Q329.5 143.5 311.5 144.25Q293.5 145.0 280.5 145.5Q267.5 146.0 263.0 147.0Q256.5 148.5 247.75 150.5Q239.0 152.5 234.0 153.5L220.5 156.5V139.5Q220.5 132.5 221.0 127.75Q221.5 123.0 223.5 123.0Q224.5 123.0 233.75 124.75Q243.0 126.5 255.0 129.0Q269.0 131.5 293.0 133.25Q317.0 135.0 348.5 135.0Q375.5 135.0 389.75 134.75Q404.0 134.5 409.0 132.25Q414.0 130.0 413.25 124.25Q412.5 118.5 408.5 108.0Q407.0 103.5 404.5 94.75Q402.0 86.0 400.5 78.5L396.0 61.5H332.0Q299.0 61.5 280.25 63.0Q261.5 64.5 251.25 68.75Q241.0 73.0 232.5 81.5Q223.5 90.5 221.0 88.5Q220.0 87.5 219.25 77.5Q218.5 67.5 218.25 55.25Q218.0 43.0 218.5 33.75Q219.0 24.5 220.5 24.5Q221.5 24.5 229.75 28.25Q238.0 32.0 249.0 37.5Q258.5 42.5 265.25 45.25Q272.0 48.0 280.0 49.5Q288.0 51.0 300.5 51.5Q313.0 52.0 334.5 52.5Q358.0 53.0 375.0 53.0Q392.0 53.0 392.0 52.5Q392.0 51.5 390.25 46.5Q388.5 41.5 386.0 36.0Q384.0 29.5 382.0 23.25Q380.0 17.0 380.0 14.0Z" fill="black" /></svg>