<svg xmlns="http://www.w3.org/2000/svg" width="831.5" height="384.0" viewBox="0 0 831.5 384.0"><path d="M72.0 217.5Q62.5 216.0 54.0 214.0Q45.5 212.0 42.5 211.0Q38.0 209.0 37.75 210.5Q37.5 212.0 40.5 220.0Q42.0 225.0 42.5 231.0Q43.0 237.0 42.0 241.0L39.5 250.0L59.0 242.5Q67.0 239.5 78.25 236.25Q89.5 233.0 97.5 231.0Q111.5 227.5 112.5 226.5Q113.5 225.5 105.5 223.5Q101.0 222.5 91.0 220.5Q81.0 218.5 72.0 217.5ZM133.5 151.0Q133.5 148.5 124.5 148.5Q116.0 148.5 114.5 153.5Q113.0 158.5 117.0 171.0Q119.5 179.5 121.0 180.5Q122.5 181.5 124.5 177.0Q125.5 173.5 127.0 169.0Q128.5 164.5 130.5 160.5Q131.5 157.0 132.5 154.25Q133.5 151.5 133.5 151.0ZM126.0 226.0Q126.0 224.5 124.5 224.5Q122.0 224.5 122.0 226.0Q122.0 228.0 124.5 228.0Q126.0 228.0 126.0 226.0ZM156.5 220.0V200.5Q156.5 192.0 154.25 182.0Q152.0 172.0 149.0 166.0L141.5 151.0L138.0 160.5Q135.0 168.5 131.25 181.0Q127.5 193.5 125.0 203.5Q122.5 213.5 123.0 214.5Q123.5 215.0 128.5 216.0Q133.5 217.0 140.0 217.5ZM315.0 259.5 329.0 252.0 291.0 251.5Q273.5 251.0 265.75 251.0Q258.0 251.0 257.0 252.5Q256.0 254.0 258.0 258.0Q259.0 261.0 261.25 263.5Q263.5 266.0 264.5 267.0Q269.5 270.0 270.5 280.5L273.5 292.5L287.0 279.0Q292.5 274.0 301.0 268.25Q309.5 262.5 315.0 259.5ZM184.5 95.5 160.5 90.0Q150.5 88.5 139.75 86.0Q129.0 83.5 124.5 82.0Q118.0 79.0 116.5 79.25Q115.0 79.5 116.0 83.5Q117.0 85.5 117.75 92.25Q118.5 99.0 118.5 106.0V122.5L135.0 113.5Q141.0 109.5 150.75 105.5Q160.5 101.5 168.0 100.0ZM173.0 159.0 178.5 148.5H165.0Q156.5 148.5 154.5 150.0Q152.5 151.5 154.5 155.5Q155.5 158.0 157.0 162.5Q158.5 167.0 159.0 170.5Q162.5 181.5 166.0 181.5Q168.0 181.5 168.0 176.5Q168.0 169.0 173.0 159.0ZM294.0 145.0Q294.5 143.0 291.5 142.0Q288.5 141.0 284.0 141.0Q283.5 141.0 283.0 141.0Q282.5 141.0 282.0 141.0Q273.5 141.0 273.5 143.25Q273.5 145.5 278.0 157.0L283.5 169.5L288.0 158.5Q289.5 154.0 291.25 150.0Q293.0 146.0 294.0 145.0ZM318.5 205.5Q319.0 189.5 318.75 180.75Q318.5 172.0 317.0 166.75Q315.5 161.5 312.0 156.0L303.5 143.5L294.5 162.0Q290.0 173.0 288.25 183.75Q286.5 194.5 286.5 213.0L285.5 244.5L298.5 246.0Q310.5 247.5 315.0 244.0Q316.0 243.0 317.25 231.5Q318.5 220.0 318.5 205.5ZM261.5 105.0Q261.5 102.5 254.75 101.0Q248.0 99.5 237.0 99.5Q221.5 99.5 201.75 102.0Q182.0 104.5 166.5 109.0Q146.5 115.0 132.5 123.5Q118.5 132.0 118.5 138.0Q118.5 141.0 123.5 141.0Q129.0 141.0 130.5 137.5Q132.0 134.5 135.0 134.5Q139.0 134.5 147.0 137.5Q153.0 139.5 161.75 140.0Q170.5 140.5 177.5 139.5Q184.5 139.0 189.25 139.0Q194.0 139.0 194.0 139.5Q194.0 140.0 191.75 143.75Q189.5 147.5 186.5 151.5Q184.0 155.0 180.0 165.5Q176.0 176.0 172.25 187.75Q168.5 199.5 166.25 208.5Q164.0 217.5 165.0 218.5Q165.5 219.0 181.75 220.0Q198.0 221.0 221.0 222.0L276.5 225.0V197.5Q276.5 182.5 273.5 168.75Q270.5 155.0 265.75 146.25Q261.0 137.5 255.5 137.5Q250.5 137.5 250.5 134.5Q250.5 133.5 256.75 132.75Q263.0 132.0 271.5 132.0Q284.0 132.0 297.75 133.0Q311.5 134.0 315.5 136.0Q318.5 137.0 325.75 137.0Q333.0 137.0 341.0 136.5Q348.5 135.5 353.75 135.25Q359.0 135.0 359.0 136.0Q359.0 136.5 356.5 139.75Q354.0 143.0 350.0 147.0Q340.0 158.0 332.75 179.5Q325.5 201.0 325.5 221.5V244.0L346.5 241.5Q355.5 241.0 362.0 239.75Q368.5 238.5 369.0 238.0Q370.0 237.0 368.25 232.75Q366.5 228.5 363.5 223.5L356.0 211.0H399.5Q420.0 211.0 430.75 210.25Q441.5 209.5 449.75 207.0Q458.0 204.5 470.0 199.5L495.5 188.5L477.0 179.5Q469.5 175.5 462.25 173.5Q455.0 171.5 444.25 170.0Q433.5 168.5 414.5 168.0Q394.0 167.5 382.25 166.0Q370.5 164.5 370.5 163.0Q370.5 157.5 382.5 146.5L394.5 133.5L373.5 124.5Q365.0 120.5 357.0 118.25Q349.0 116.0 337.75 114.5Q326.5 113.0 307.5 112.5Q281.0 111.0 271.25 109.5Q261.5 108.0 261.5 105.0ZM342.5 109.0 327.5 96.0Q321.5 90.5 315.75 84.0Q310.0 77.5 307.5 73.0L300.5 63.0L292.5 78.0Q289.0 83.5 287.5 88.0Q286.0 92.5 288.0 92.5Q294.0 92.5 291.25 96.5Q288.5 100.5 281.0 101.5Q276.5 102.0 280.5 102.5Q284.5 103.0 294.0 103.5Q303.5 103.5 314.25 104.5Q325.0 105.5 330.0 106.5ZM334.5 157.0 339.5 145.0H314.0L321.0 158.5Q323.5 163.5 325.25 167.25Q327.0 171.0 327.5 170.5Q327.5 168.5 334.5 157.0ZM417.5 232.5Q424.0 226.0 428.5 221.75Q433.0 217.5 432.0 217.5Q430.0 217.5 420.75 218.25Q411.5 219.0 399.0 220.0Q369.0 222.5 373.5 226.0Q376.0 227.0 380.75 233.0Q385.5 239.0 390.0 246.0Q397.0 258.0 399.5 258.0Q400.5 258.0 400.5 256.0Q400.5 253.0 405.5 246.0Q410.5 239.0 417.5 232.5ZM443.0 160.0 432.0 148.0Q427.0 142.5 422.5 136.5Q418.0 130.5 417.0 127.0Q415.5 121.5 413.5 121.5Q411.0 121.5 401.0 136.0Q396.5 142.5 391.75 147.5Q387.0 152.5 385.5 152.5Q384.5 152.5 383.0 153.5Q381.5 154.5 381.5 156.0Q381.5 158.0 390.25 159.0Q399.0 160.0 412.5 160.0ZM530.0 50.5Q532.0 46.5 529.75 45.5Q527.5 44.5 517.5 45.0Q506.5 45.0 504.25 46.5Q502.0 48.0 504.0 55.0Q505.0 58.5 507.25 68.0Q509.5 77.5 511.5 86.5L516.0 108.0L522.0 82.5Q524.5 72.0 526.75 62.5Q529.0 53.0 530.0 50.5ZM588.5 103.5Q581.5 100.0 577.0 100.0Q570.0 100.0 570.0 106.0Q570.0 111.5 576.0 109.5Q578.5 109.0 581.75 108.25Q585.0 107.5 588.0 107.5Q594.5 107.5 588.5 103.5ZM588.5 175.0Q583.0 171.5 577.0 171.5Q570.0 171.5 570.0 177.0Q570.0 183.0 576.0 181.0Q578.5 180.0 581.75 179.25Q585.0 178.5 588.0 178.5Q592.0 178.5 592.0 177.75Q592.0 177.0 588.5 175.0ZM588.5 141.0Q579.0 138.0 575.0 138.0Q570.0 138.0 570.0 143.5Q570.0 150.5 578.0 147.0Q581.5 146.5 586.0 145.75Q590.5 145.0 592.5 145.0Q595.0 145.0 593.75 143.5Q592.5 142.0 588.5 141.0ZM609.0 225.0 592.5 220.5Q576.5 217.0 573.0 214.0Q570.0 213.0 570.0 224.5Q570.0 235.0 573.0 235.0Q575.0 235.0 578.0 233.5Q581.5 232.5 587.25 230.75Q593.0 229.0 597.5 228.0ZM714.5 261.0 728.0 233.5Q738.0 213.0 738.75 209.25Q739.5 205.5 733.5 205.5Q725.5 205.5 723.0 208.0Q722.0 209.0 716.0 209.5Q710.0 210.0 702.5 210.0Q690.0 209.5 688.5 210.5Q687.0 211.5 691.5 217.5Q694.0 221.0 698.5 228.75Q703.0 236.5 706.5 244.0ZM605.0 58.0 586.5 52.5Q579.0 51.0 573.25 49.5Q567.5 48.0 567.0 47.5Q566.0 47.5 566.0 59.5Q566.0 64.0 566.75 66.75Q567.5 69.5 569.0 69.0Q570.0 68.0 575.75 66.25Q581.5 64.5 588.5 62.5ZM727.5 36.0Q731.0 28.0 730.5 27.0Q730.0 27.0 724.5 27.0Q719.0 27.0 711.5 28.0Q700.0 28.5 697.0 30.0Q694.0 31.5 696.0 35.5Q697.0 38.0 699.5 46.0Q702.0 54.0 705.0 62.5L711.5 83.5L717.5 64.0Q720.0 56.0 722.75 47.75Q725.5 39.5 727.5 36.0ZM781.5 82.5 790.5 55.0Q794.5 43.5 796.5 35.25Q798.5 27.0 798.5 27.0Q798.0 27.0 792.5 27.0Q787.0 27.0 780.0 28.0L761.0 28.5L766.5 39.0Q769.0 43.5 771.75 51.25Q774.5 59.0 776.0 66.0ZM482.0 27.0Q484.0 25.0 486.0 25.0Q489.0 25.0 495.5 31.0Q499.0 34.0 504.75 35.5Q510.5 37.0 517.0 37.0Q531.5 37.0 538.5 31.5Q542.5 28.5 544.0 28.5Q548.5 28.5 540.0 49.0Q535.5 58.0 531.5 74.5Q527.5 91.0 524.0 110.0Q520.5 129.0 519.0 146.25Q517.5 163.5 518.0 174.0Q519.0 184.0 518.25 191.0Q517.5 198.0 516.0 198.0Q514.0 198.0 513.75 207.5Q513.5 217.0 514.5 233.5Q515.5 250.5 515.5 260.0Q515.5 269.5 513.5 269.5Q512.0 269.5 510.5 260.75Q509.0 252.0 508.5 238.0Q508.0 224.0 508.5 208.0Q509.0 198.0 507.75 196.5Q506.5 195.0 501.0 196.0Q494.5 198.0 484.0 202.5Q473.5 207.0 462.0 212.75Q450.5 218.5 441.25 224.0Q432.0 229.5 427.5 233.5Q416.5 243.0 410.0 256.0Q403.5 269.0 406.5 277.0Q407.5 283.5 405.0 286.0Q402.5 286.0 398.5 279.75Q394.5 273.5 390.5 265.5Q387.0 256.0 383.0 249.5Q379.0 243.0 378.0 243.0Q375.5 243.0 365.5 246.75Q355.5 250.5 343.0 255.75Q330.5 261.0 319.75 266.0Q309.0 271.0 305.0 274.0Q283.5 288.0 280.5 304.0Q278.5 310.5 275.5 310.5Q271.5 310.5 267.0 294.0Q265.0 287.0 260.75 278.25Q256.5 269.5 252.5 263.5Q249.0 257.0 246.0 252.0Q243.0 247.0 243.0 246.0Q243.0 244.5 248.0 243.75Q253.0 243.0 259.5 243.0Q276.5 243.0 276.5 238.0Q276.5 235.0 267.25 233.25Q258.0 231.5 234.0 229.5Q225.5 228.5 216.75 228.5Q208.0 228.5 200.0 228.5Q192.5 228.5 186.75 228.5Q181.0 228.5 177.5 229.5L164.0 232.5V256.5Q164.0 266.5 163.0 273.5Q162.0 280.5 160.5 280.5Q158.5 280.5 157.5 273.5Q156.5 266.5 156.5 256.0V232.0H145.5Q130.0 232.0 126.0 236.0Q122.0 240.0 122.0 258.0Q122.0 267.5 121.0 274.0Q120.0 280.5 118.5 280.5Q116.5 280.5 115.5 273.75Q114.5 267.0 114.5 258.0Q114.5 248.5 114.0 242.0Q113.5 235.5 112.5 235.5Q110.0 235.5 102.0 237.5Q94.0 239.5 84.0 242.5Q74.0 245.5 65.75 248.5Q57.5 251.5 54.0 253.0Q49.5 255.0 45.5 259.25Q41.5 263.5 39.5 267.0Q38.5 271.0 36.25 274.0Q34.0 277.0 32.0 277.0Q28.5 277.0 28.5 275.5Q28.5 275.5 29.5 268.75Q30.5 262.0 32.0 253.0Q35.5 234.0 32.5 222.75Q29.5 211.5 18.0 202.5Q10.5 196.5 10.25 195.5Q10.0 194.5 16.5 194.5Q26.0 194.5 36.0 199.5Q44.5 204.0 60.25 207.5Q76.0 211.0 99.5 214.5L116.0 217.0L114.0 195.0Q112.0 177.5 106.5 162.75Q101.0 148.0 93.0 142.5Q88.5 139.5 88.75 137.25Q89.0 135.0 92.0 135.0Q94.5 135.0 99.5 137.5Q102.0 139.5 105.0 139.5Q109.5 139.5 110.5 131.75Q111.5 124.0 110.0 106.0Q109.5 92.5 107.25 84.25Q105.0 76.0 100.5 70.0Q93.0 59.0 96.5 59.0Q100.5 59.0 120.5 70.0Q129.5 74.5 138.5 77.5Q147.5 80.5 159.75 82.5Q172.0 84.5 190.5 87.0Q213.0 90.0 227.75 91.25Q242.5 92.5 252.0 92.5Q264.5 92.5 270.25 90.25Q276.0 88.0 279.5 83.5Q282.5 79.5 286.75 71.5Q291.0 63.5 294.0 57.0Q296.5 50.0 300.25 45.0Q304.0 40.0 306.0 40.0Q310.0 40.0 309.0 43.5Q305.0 50.0 312.25 64.0Q319.5 78.0 331.5 88.0Q337.0 92.5 346.75 99.0Q356.5 105.5 367.25 111.75Q378.0 118.0 386.25 122.0Q394.5 126.0 397.0 126.0Q398.5 125.5 401.5 120.0Q404.5 114.5 408.0 108.0Q415.0 95.0 419.5 92.75Q424.0 90.5 421.5 102.0Q419.5 111.5 425.5 124.25Q431.5 137.0 443.0 148.0Q448.5 152.5 457.75 158.25Q467.0 164.0 477.0 169.75Q487.0 175.5 495.0 179.0Q503.0 182.5 506.0 182.5Q509.0 182.5 509.5 172.5Q510.0 162.5 509.0 138.0Q507.5 102.5 501.25 74.75Q495.0 47.0 486.5 37.5Q484.0 34.0 482.5 31.0Q481.0 28.0 482.0 27.0ZM667.5 13.5Q667.5 10.0 671.0 10.0Q675.0 10.0 684.5 15.0Q696.5 20.5 711.0 20.5Q726.0 20.5 734.0 15.0Q737.5 13.0 739.5 12.0Q741.5 11.0 743.5 11.0Q746.0 11.0 748.5 12.0Q751.0 13.0 755.0 15.0Q766.0 20.5 779.5 20.5Q785.0 20.5 791.25 19.5Q797.5 18.5 804.0 16.5Q810.0 15.0 815.0 14.25Q820.0 13.5 820.5 14.5Q821.5 17.0 813.0 26.5Q808.5 31.0 802.75 43.25Q797.0 55.5 792.5 70.0Q788.5 83.5 786.25 94.25Q784.0 105.0 783.0 118.25Q782.0 131.5 781.5 152.5Q780.0 206.5 777.0 206.5Q774.0 206.5 772.5 141.0Q772.0 114.0 771.25 98.5Q770.5 83.0 769.25 74.25Q768.0 65.5 765.75 59.25Q763.5 53.0 759.5 44.5L747.5 19.5L739.5 31.5Q731.5 42.5 725.25 62.75Q719.0 83.0 715.25 107.5Q711.5 132.0 711.0 156.0V199.5L729.5 198.0Q737.0 197.5 745.25 196.5Q753.5 195.5 757.5 193.5Q764.0 191.0 765.5 191.0Q771.5 191.0 753.0 210.0Q737.5 225.5 726.0 254.5Q721.0 266.5 718.5 275.75Q716.0 285.0 715.0 296.5Q714.0 308.0 713.0 328.0Q711.5 374.0 708.5 374.0Q707.5 374.0 706.25 359.25Q705.0 344.5 705.5 316.5Q706.0 290.5 705.75 277.5Q705.5 264.5 703.75 257.75Q702.0 251.0 698.0 244.0L690.0 228.0H661.5Q646.0 228.0 627.5 230.5Q609.0 233.0 594.5 237.0Q580.0 241.0 576.0 245.5Q571.0 250.0 568.5 250.0Q565.0 250.0 563.75 239.75Q562.5 229.5 562.5 204.0Q562.5 185.5 562.0 163.0Q561.5 140.5 561.0 118.0Q560.5 95.5 559.5 76.25Q558.5 57.0 557.75 45.0Q557.0 33.0 556.5 31.5Q555.0 29.0 558.5 26.5Q560.5 25.5 562.25 26.75Q564.0 28.0 564.5 31.5Q566.0 37.0 573.0 40.75Q580.0 44.5 596.25 47.0Q612.5 49.5 640.5 52.0Q661.0 54.0 674.75 56.25Q688.5 58.5 687.5 59.5Q686.0 60.5 673.25 61.5Q660.5 62.5 643.5 63.0Q609.0 65.0 590.25 69.75Q571.5 74.5 570.5 82.0Q569.0 90.0 584.25 93.75Q599.5 97.5 642.0 99.0Q684.0 101.0 692.25 104.25Q700.5 107.5 663.0 107.5Q649.0 107.5 631.75 109.0Q614.5 110.5 599.75 112.5Q585.0 114.5 576.5 117.0Q569.5 119.0 570.25 124.0Q571.0 129.0 578.0 131.5Q581.5 132.5 599.75 134.0Q618.0 135.5 640.5 136.5Q662.5 137.0 678.0 138.5Q693.5 140.0 693.5 141.0Q693.5 142.0 681.75 143.75Q670.0 145.5 653.0 146.5Q631.5 147.5 613.25 149.75Q595.0 152.0 584.25 154.5Q573.5 157.0 573.5 160.0Q573.5 163.5 588.25 165.75Q603.0 168.0 642.5 170.5Q684.0 172.0 692.25 175.25Q700.5 178.5 663.0 178.5Q649.0 178.5 631.75 180.0Q614.5 181.5 599.75 183.75Q585.0 186.0 576.5 188.5Q568.5 190.5 570.0 197.5Q571.5 204.5 579.5 208.5Q585.5 211.0 601.5 214.0Q617.5 217.0 636.0 218.75Q654.5 220.5 667.5 220.5L684.5 220.0L674.0 211.0Q669.5 207.0 664.75 204.5Q660.0 202.0 657.5 202.0Q652.5 202.0 652.5 197.5Q652.5 194.5 658.5 194.5Q666.5 194.5 688.5 199.5L700.5 202.5L702.5 146.5Q703.5 123.0 703.25 102.5Q703.0 82.0 701.0 76.0Q698.5 64.0 694.0 52.25Q689.5 40.5 684.25 31.75Q679.0 23.0 675.0 21.0Q667.5 17.0 667.5 13.5Z" fill="black" /></svg>