<svg xmlns="http://www.w3.org/2000/svg" width="554.0" height="385.0" viewBox="0 0 554.0 385.0"><path d="M76.5 300.5Q77.0 292.0 76.25 288.25Q75.5 284.5 70.25 281.25Q65.0 278.0 52.0 272.5L26.5 261.5L24.0 332.0L35.0 329.5Q53.0 325.0 61.5 321.75Q70.0 318.5 73.0 313.75Q76.0 309.0 76.5 300.5ZM118.5 293.0Q100.5 291.5 93.0 287.5Q88.5 286.0 87.0 288.0Q85.5 290.0 85.5 298.5V312.0L105.0 309.5Q133.0 305.0 136.75 300.5Q140.5 296.0 118.5 293.0ZM94.5 134.0 102.5 120.5H78.5Q65.5 120.5 60.75 121.25Q56.0 122.0 58.25 129.75Q60.5 137.5 68.0 158.0L76.5 180.5L81.5 164.5Q84.0 157.5 87.75 148.5Q91.5 139.5 94.5 134.0ZM122.5 171.5Q118.0 158.5 113.75 148.25Q109.5 138.0 107.0 136.0Q102.0 136.0 96.5 149.0Q91.5 158.5 89.5 173.25Q87.5 188.0 86.5 221.0L85.0 277.0L101.5 281.0Q108.5 283.0 116.0 284.5Q123.5 286.0 127.5 286.0Q132.5 286.0 134.5 284.25Q136.5 282.5 136.75 273.75Q137.0 265.0 136.0 244.5Q134.5 222.5 131.5 205.5Q128.5 188.5 122.5 171.5ZM156.0 144.5Q158.0 139.5 155.0 138.5Q152.0 137.5 139.0 137.5Q119.0 137.5 121.0 142.5Q122.0 144.5 124.75 152.5Q127.5 160.5 130.5 170.0L138.0 192.0L145.0 172.0Q148.0 163.5 151.0 155.75Q154.0 148.0 156.0 144.5ZM187.5 256.0Q187.5 233.5 183.0 206.25Q178.5 179.0 168.5 158.5L162.5 148.0L155.5 165.0Q151.0 174.5 149.25 189.25Q147.5 204.0 147.5 235.0V288.0L187.5 290.5ZM206.5 144.5Q209.0 139.5 205.75 138.5Q202.5 137.5 189.5 137.5Q177.0 137.5 174.0 138.5Q171.0 139.5 173.0 144.5Q174.5 148.0 177.25 155.75Q180.0 163.5 182.5 172.0L189.5 191.5L196.0 172.0Q199.0 163.5 202.0 155.75Q205.0 148.0 206.5 144.5ZM247.0 261.5Q247.0 251.5 245.25 236.75Q243.5 222.0 240.25 205.75Q237.0 189.5 233.0 175.0Q229.0 160.5 224.5 151.5L218.5 140.5L209.0 161.0Q205.0 169.5 202.75 178.25Q200.5 187.0 199.25 200.25Q198.0 213.5 197.0 236.0L195.0 290.0H247.0ZM260.0 155.0 268.0 137.5H248.5Q241.0 137.5 235.5 138.25Q230.0 139.0 230.0 140.5Q230.5 143.0 232.75 150.0Q235.0 157.0 237.75 165.25Q240.5 173.5 243.0 179.25Q245.5 185.0 247.0 185.0Q248.0 185.0 249.5 182.0Q251.0 178.0 254.0 170.5Q257.0 163.0 260.0 155.0ZM474.5 118.0 465.5 88.5 417.0 88.0Q403.5 88.0 384.5 88.25Q365.5 88.5 345.25 89.0Q325.0 89.5 308.5 90.5Q283.0 91.5 267.25 93.25Q251.5 95.0 238.75 98.25Q226.0 101.5 208.0 107.5Q191.0 113.0 178.75 118.25Q166.5 123.5 166.5 125.0Q166.5 126.0 182.75 127.25Q199.0 128.5 222.0 128.5Q245.5 128.5 262.25 129.0Q279.0 129.5 279.5 130.5Q280.5 131.0 277.75 138.25Q275.0 145.5 269.5 155.0Q264.5 165.5 261.75 173.5Q259.0 181.5 258.0 194.75Q257.0 208.0 256.5 233.5L254.5 290.0H488.0L486.0 219.0Q485.5 191.0 484.0 173.0Q482.5 155.0 480.5 142.25Q478.5 129.5 474.5 118.0ZM180.0 69.5Q167.5 61.0 164.5 61.0Q163.5 61.0 162.75 69.0Q162.0 77.0 162.0 88.5V116.0L178.5 109.5Q185.0 106.5 195.75 102.75Q206.5 99.0 215.0 97.0Q223.5 94.5 230.0 92.25Q236.5 90.0 237.0 89.5Q237.5 88.5 231.5 86.5Q225.5 84.5 216.0 82.5Q206.5 80.5 196.0 76.75Q185.5 73.0 180.0 69.5ZM523.0 26.0Q523.0 25.0 512.0 25.0Q501.0 25.0 485.0 25.0L447.5 24.5L452.0 35.5Q454.0 40.0 457.0 45.5Q460.0 51.0 462.0 54.5Q464.0 58.0 468.25 69.0Q472.5 80.0 476.5 92.5L486.0 122.5L490.5 99.0Q493.0 89.5 498.5 75.25Q504.0 61.0 509.5 51.0Q515.0 41.0 519.0 33.75Q523.0 26.5 523.0 26.0ZM433.0 12.0Q436.0 10.0 446.0 13.5Q450.5 14.5 466.5 15.5Q482.5 16.5 501.0 16.0Q518.5 16.0 531.25 16.25Q544.0 16.5 544.0 17.5Q544.0 18.0 539.75 23.75Q535.5 29.5 529.5 36.5Q523.5 43.5 516.25 55.5Q509.0 67.5 505.0 77.5Q502.5 84.5 500.75 90.5Q499.0 96.5 498.0 105.5Q497.0 114.5 496.5 129.75Q496.0 145.0 496.0 170.0Q496.0 195.0 496.5 233.5Q496.5 272.5 496.25 302.5Q496.0 332.5 495.25 349.5Q494.5 366.5 493.5 366.5Q491.5 366.5 490.25 356.75Q489.0 347.0 488.0 333.5L487.0 301.0L255.5 298.5V337.0Q255.5 354.0 254.5 364.5Q253.5 375.0 251.5 375.0Q249.5 375.0 248.25 364.5Q247.0 354.0 247.0 337.0V298.5H231.5Q214.0 298.5 206.5 300.5Q199.0 302.5 198.25 311.0Q197.5 319.5 199.0 339.5Q202.0 375.0 197.5 375.0Q195.5 375.0 193.5 365.0Q191.5 355.0 190.5 340.5Q190.0 326.5 188.75 315.75Q187.5 305.0 186.5 304.0Q185.5 303.5 179.25 303.75Q173.0 304.0 165.5 306.0L147.5 309.5L148.5 342.5Q150.0 375.0 145.5 375.0Q143.5 375.0 142.0 369.0Q140.5 363.0 140.5 354.5Q140.0 346.0 139.25 337.0Q138.5 328.0 137.0 323.5Q136.0 318.5 134.75 316.5Q133.5 314.5 129.5 314.5Q124.5 314.5 111.0 317.5L88.0 322.0L86.5 346.0Q85.0 370.0 81.0 370.0Q77.0 370.0 77.0 348.0V325.0L51.0 333.5Q29.5 340.5 20.75 343.0Q12.0 345.5 11.0 344.0Q10.0 342.5 13.5 335.0Q15.0 330.5 16.5 315.75Q18.0 301.0 18.0 285.5Q18.0 269.5 18.5 258.5Q19.0 247.5 20.0 247.5Q21.0 247.5 29.0 251.25Q37.0 255.0 47.5 260.5Q58.0 265.5 66.25 269.25Q74.5 273.0 75.5 273.0Q76.5 273.0 76.75 262.25Q77.0 251.5 76.0 236.0Q74.0 207.0 66.5 179.25Q59.0 151.5 47.5 128.5Q44.0 121.5 41.75 116.0Q39.5 110.5 40.0 110.0Q40.5 109.5 51.75 109.75Q63.0 110.0 78.5 111.0Q102.0 112.0 108.75 113.75Q115.5 115.5 114.5 120.0Q114.0 124.0 120.25 126.25Q126.5 128.5 134.0 128.5Q139.5 128.5 143.75 127.25Q148.0 126.0 150.0 123.5Q151.5 121.5 152.5 109.0Q153.5 96.5 153.5 81.0Q153.5 43.5 159.5 43.5Q161.5 43.5 164.5 48.0Q165.5 50.0 172.25 54.5Q179.0 59.0 187.5 63.0Q206.5 72.5 235.5 77.25Q264.5 82.0 311.5 82.0Q350.0 82.0 405.5 79.0L463.5 76.5L447.0 45.5Q440.5 32.5 436.25 22.75Q432.0 13.0 433.0 12.0Z" fill="black" /></svg>