<svg xmlns="http://www.w3.org/2000/svg" width="861.0" height="378.0" viewBox="0 0 861.0 378.0"><path d="M73.0 209.5Q69.5 206.5 63.5 204.25Q57.5 202.0 53.5 202.0Q49.5 202.0 49.5 204.5Q49.5 206.0 48.5 209.0Q47.5 212.0 46.5 215.0Q44.0 222.0 50.0 222.0Q54.5 222.0 65.5 218.0Q76.0 213.0 73.0 209.5ZM84.0 272.5Q82.0 271.5 74.75 269.0Q67.5 266.5 59.0 263.75Q50.5 261.0 43.75 259.0Q37.0 257.0 35.5 257.0Q34.5 257.0 33.25 262.0Q32.0 267.0 31.0 274.0Q30.5 281.5 31.0 286.5Q31.5 291.5 32.5 291.5Q36.5 291.0 45.5 288.25Q54.5 285.5 64.0 282.0Q73.5 278.5 79.5 275.75Q85.5 273.0 84.0 272.5ZM79.5 162.5Q79.5 160.0 73.25 156.75Q67.0 153.5 60.25 151.75Q53.5 150.0 52.0 152.0Q51.0 152.5 50.25 155.75Q49.5 159.0 49.5 162.5Q49.5 171.0 59.5 168.5Q63.5 167.5 68.0 166.5Q72.5 165.5 74.5 165.5Q79.5 165.5 79.5 162.5ZM164.5 170.0Q165.5 168.0 158.75 167.0Q152.0 166.0 141.0 166.0Q127.0 166.0 110.25 167.5Q93.5 169.0 82.0 171.5Q52.0 178.5 50.0 184.5Q48.0 190.5 72.0 198.5Q82.0 202.0 98.25 204.25Q114.5 206.5 128.5 206.5Q143.5 206.5 151.25 205.75Q159.0 205.0 163.5 202.75Q168.0 200.5 172.5 196.0Q183.5 186.0 183.5 180.25Q183.5 174.5 172.5 174.5Q168.0 174.5 165.75 173.0Q163.5 171.5 164.5 170.0ZM151.5 218.0Q149.0 213.5 145.5 213.5Q144.5 214.0 134.25 215.0Q124.0 216.0 109.5 218.0Q91.5 219.5 76.5 223.5Q61.5 227.5 52.25 232.75Q43.0 238.0 43.0 243.5Q43.0 247.0 49.5 250.75Q56.0 254.5 67.0 258.5Q76.5 261.5 97.0 264.0Q117.5 266.5 141.25 268.0Q165.0 269.5 184.5 269.5Q198.5 269.5 208.25 268.75Q218.0 268.0 220.0 266.0Q222.5 263.0 222.25 262.25Q222.0 261.5 219.0 261.5Q215.5 260.5 215.75 259.0Q216.0 257.5 220.5 254.0Q227.5 249.5 227.0 247.0Q226.5 244.5 217.0 236.5Q204.5 227.0 189.5 221.75Q174.5 216.5 164.5 219.5Q154.5 222.0 151.5 218.0ZM194.5 203.0Q192.5 196.5 187.5 196.5Q184.5 196.5 182.5 200.0Q181.0 202.0 183.5 205.75Q186.0 209.5 189.75 211.75Q193.5 214.0 195.0 212.5Q197.0 209.0 194.5 203.0ZM264.0 217.0Q262.5 214.5 254.5 208.75Q246.5 203.0 236.0 196.25Q225.5 189.5 216.75 184.25Q208.0 179.0 205.0 177.5Q198.5 174.5 197.25 179.5Q196.0 184.5 199.75 193.75Q203.5 203.0 211.5 213.5Q221.5 226.0 227.5 232.0Q233.5 238.0 238.5 238.0Q242.0 238.0 245.25 236.25Q248.5 234.5 253.0 231.5Q258.5 227.5 261.75 223.25Q265.0 219.0 264.0 217.0ZM269.5 237.5Q270.5 230.5 268.5 230.5Q266.5 231.0 261.25 235.0Q256.0 239.0 250.0 244.25Q244.0 249.5 240.25 253.75Q236.5 258.0 237.0 258.5Q237.0 259.0 241.75 261.5Q246.5 264.0 253.0 267.5L266.5 274.0V259.0Q266.5 253.0 267.5 246.5Q268.5 240.0 269.5 237.5ZM60.0 74.0Q57.0 69.5 54.0 69.5Q45.0 69.5 45.0 89.5V104.0L67.0 97.0Q76.0 93.5 82.25 90.5Q88.5 87.5 88.5 86.5Q88.5 85.5 84.75 84.0Q81.0 82.5 76.0 80.5Q63.0 78.0 60.0 74.0ZM201.0 91.0Q201.0 88.0 192.0 88.0Q155.5 90.5 133.25 92.5Q111.0 94.5 98.0 96.5Q85.0 98.5 76.0 101.75Q67.0 105.0 57.0 110.0Q42.5 117.0 41.75 121.0Q41.0 125.0 51.0 134.5Q62.0 144.0 86.75 150.5Q111.5 157.0 142.0 157.0Q157.5 157.0 165.25 156.25Q173.0 155.5 177.5 153.0Q182.0 150.5 187.0 146.0Q206.5 126.5 181.5 122.0L169.5 119.5L185.5 107.5Q192.5 102.5 196.75 97.75Q201.0 93.0 201.0 91.0ZM205.5 157.0Q201.5 148.5 197.5 148.5Q194.0 148.5 191.5 155.0Q188.0 163.0 189.25 164.25Q190.5 165.5 199.5 165.5Q207.0 165.5 207.75 164.0Q208.5 162.5 205.5 157.0ZM232.5 86.5Q237.5 77.0 235.0 77.0Q231.0 77.0 214.5 94.0L196.0 113.0L207.0 116.0Q209.5 116.5 211.5 116.75Q213.5 117.0 215.5 117.0Q227.5 117.0 227.5 104.5Q227.5 95.5 232.5 86.5ZM280.0 187.0Q280.0 183.5 271.5 174.0Q263.0 164.5 251.0 153.5Q239.0 142.5 228.25 134.75Q217.5 127.0 212.5 127.0Q210.5 127.0 208.0 131.0Q205.0 135.5 210.75 147.25Q216.5 159.0 227.0 172.0Q237.5 185.0 249.0 194.0Q270.5 210.0 277.5 210.0Q282.0 210.0 275.5 202.0Q269.5 197.0 275.5 194.0Q277.0 193.0 278.5 191.0Q280.0 189.0 280.0 187.0ZM310.5 185.0Q315.0 171.5 312.0 171.5Q310.5 171.5 302.5 179.5Q294.0 188.5 293.5 192.25Q293.0 196.0 299.5 196.0Q302.0 196.0 305.25 192.75Q308.5 189.5 310.5 185.0ZM352.0 185.0Q352.5 182.5 353.0 178.75Q353.5 175.0 352.5 172.0Q352.5 168.0 350.5 168.0Q348.0 168.0 341.5 175.0L331.5 185.5L340.5 188.5Q349.5 191.0 352.0 185.0ZM436.0 94.0Q436.0 83.5 430.0 83.5Q425.5 83.5 416.5 87.75Q407.5 92.0 400.0 98.0Q392.5 104.0 392.5 109.0Q392.5 113.0 390.0 119.25Q387.5 125.5 384.0 131.0Q380.5 136.0 375.25 145.25Q370.0 154.5 366.0 162.5Q362.0 171.5 360.75 176.5Q359.5 181.5 360.75 185.75Q362.0 190.0 366.0 198.5Q370.0 205.0 375.5 213.25Q381.0 221.5 385.5 226.0Q396.5 237.0 394.0 245.5Q393.0 251.0 396.0 253.75Q399.0 256.5 409.5 260.0Q417.0 262.0 422.0 263.5Q427.0 265.0 430.0 265.0Q436.0 265.0 436.0 254.0Q436.0 247.5 433.75 245.5Q431.5 243.5 426.0 243.5Q414.5 244.5 413.0 242.75Q411.5 241.0 417.0 233.0Q423.5 222.0 421.0 212.5Q419.0 206.5 419.75 205.25Q420.5 204.0 427.0 206.0Q432.0 207.0 434.0 206.0Q436.0 205.0 436.0 200.0Q436.0 192.0 429.0 192.0Q424.0 192.0 418.5 195.5Q415.0 198.0 411.5 198.0Q408.0 198.0 408.0 194.25Q408.0 190.5 412.5 184.0Q417.0 177.0 417.25 172.0Q417.5 167.0 415.0 156.5Q411.5 146.5 411.75 140.75Q412.0 135.0 415.5 127.0Q422.5 115.5 418.0 108.5Q415.0 103.0 416.75 100.0Q418.5 97.0 422.0 97.0Q425.5 97.0 429.0 100.0Q433.5 103.5 434.75 102.5Q436.0 101.5 436.0 94.0ZM436.0 148.0Q436.0 139.0 430.5 139.0Q428.0 139.0 425.5 143.5Q423.5 147.5 425.5 152.25Q427.5 157.0 432.0 157.0Q434.0 157.0 435.0 154.25Q436.0 151.5 436.0 148.0ZM434.5 129.5Q435.0 128.5 435.25 125.5Q435.5 122.5 434.5 119.0Q433.5 113.5 432.75 113.5Q432.0 113.5 429.0 119.0Q427.0 124.0 428.0 127.5Q429.0 131.0 431.5 131.0Q433.0 131.0 434.5 129.5ZM436.0 174.5Q436.0 165.5 431.5 165.5Q427.0 165.5 427.0 174.5Q427.0 182.5 431.5 182.5Q436.0 182.5 436.0 174.5ZM434.5 229.0Q437.5 226.0 434.5 223.0Q433.5 222.0 432.5 222.75Q431.5 223.5 431.5 226.0Q431.5 228.0 432.5 229.0Q433.5 230.0 434.5 229.0ZM472.5 284.5 438.0 276.5Q429.0 274.0 419.75 271.5Q410.5 269.0 406.5 267.5Q404.5 267.0 403.25 266.75Q402.0 266.5 401.0 266.5Q396.5 266.5 394.75 271.75Q393.0 277.0 391.0 293.0Q389.5 301.5 389.5 304.75Q389.5 308.0 392.5 308.0Q395.5 308.0 400.5 306.5Q405.0 305.5 419.25 302.5Q433.5 299.5 448.5 296.0Q473.0 290.5 477.0 288.5Q481.0 286.5 472.5 284.5ZM462.0 226.0Q462.0 221.5 453.0 221.5Q449.5 221.5 447.75 223.0Q446.0 224.5 447.0 226.0Q448.0 228.0 450.75 229.25Q453.5 230.5 456.0 230.5Q462.0 230.5 462.0 226.0ZM466.5 174.5Q466.5 172.0 463.25 171.0Q460.0 170.0 455.5 170.0Q445.0 170.0 445.0 174.5Q445.0 176.0 448.0 177.5Q451.0 179.0 455.5 179.0Q460.0 179.0 463.25 177.5Q466.5 176.0 466.5 174.5ZM509.5 256.0V235.0H484.5Q465.5 235.5 457.0 237.0Q448.5 238.5 446.5 242.5Q444.5 246.5 445.5 256.0L447.0 272.0L475.5 276.5Q488.0 278.5 497.5 279.25Q507.0 280.0 508.0 279.5Q508.5 278.5 509.0 271.5Q509.5 264.5 509.5 256.0ZM508.0 220.0 508.5 201.5 510.0 182.5 487.0 183.5Q465.0 183.5 455.0 187.5Q445.0 191.5 445.0 200.0Q445.0 208.0 454.25 212.0Q463.5 216.0 486.0 218.0ZM679.0 224.0Q679.0 213.5 676.0 213.5Q669.5 214.0 661.5 218.25Q653.5 222.5 653.5 226.0Q653.5 228.0 635.25 229.75Q617.0 231.5 587.5 231.5L520.5 233.0L517.5 281.5L538.5 284.5Q547.0 285.5 563.25 286.25Q579.5 287.0 594.0 287.0H630.0L655.0 260.5Q679.0 234.0 679.0 224.0ZM706.5 268.0Q701.5 262.0 696.75 255.5Q692.0 249.0 690.0 245.5Q688.5 242.0 686.0 242.0Q682.5 242.0 670.0 257.5L654.0 277.0L685.0 281.5Q698.0 283.5 707.75 284.25Q717.5 285.0 718.0 284.5Q718.5 284.0 715.25 279.25Q712.0 274.5 706.5 268.0ZM709.5 178.0Q709.5 175.0 707.5 175.0Q703.0 175.0 688.0 190.0Q678.5 199.5 677.0 202.0Q675.5 204.5 682.0 204.5Q686.0 204.5 694.75 205.5Q703.5 206.5 712.0 207.5L733.5 210.5L721.0 196.0Q716.5 190.5 713.0 185.25Q709.5 180.0 709.5 178.0ZM451.0 50.5Q438.5 48.0 427.75 45.0Q417.0 42.0 414.0 41.0Q410.5 40.0 407.75 44.0Q405.0 48.0 402.0 61.0L398.5 83.5L409.5 80.5Q414.0 79.5 428.25 76.5Q442.5 73.5 457.5 70.0Q473.0 67.5 482.0 64.25Q491.0 61.0 488.5 60.5Q485.5 59.5 474.75 56.75Q464.0 54.0 451.0 50.5ZM464.5 122.0Q463.5 120.0 460.0 118.75Q456.5 117.5 453.0 117.5Q445.0 117.5 445.0 122.0Q445.0 123.5 448.25 125.0Q451.5 126.5 456.0 126.5Q460.5 126.5 463.0 125.25Q465.5 124.0 464.5 122.0ZM508.0 167.5V150.5Q508.0 137.5 505.75 135.25Q503.5 133.0 490.0 132.5Q448.0 130.0 445.5 147.5Q444.0 155.5 453.25 160.0Q462.5 164.5 486.0 166.0ZM508.0 116.0 508.5 96.5Q509.5 88.5 508.75 82.0Q508.0 75.5 506.5 74.5Q505.5 73.5 499.0 73.5Q492.5 73.5 483.0 74.5Q473.5 75.5 464.75 77.0Q456.0 78.5 451.0 80.5Q449.0 81.0 447.0 85.25Q445.0 89.5 445.0 94.0Q445.0 103.5 453.75 107.75Q462.5 112.0 486.0 113.5ZM679.0 69.5Q679.0 67.5 671.25 67.0Q663.5 66.5 652.0 66.5Q644.5 66.5 631.25 67.0Q618.0 67.5 602.25 67.75Q586.5 68.0 571.5 68.5L518.5 70.0V93.5Q518.5 104.5 519.25 109.5Q520.0 114.5 522.75 116.25Q525.5 118.0 532.0 119.5Q537.5 120.5 556.5 121.25Q575.5 122.0 596.5 122.5Q620.0 122.5 630.5 123.5Q641.0 124.5 635.5 126.5Q631.0 127.5 612.25 128.75Q593.5 130.0 571.5 130.0L518.5 131.0V169.0L543.0 172.0Q553.0 173.0 570.5 173.5Q588.0 174.0 603.0 173.5Q618.5 173.0 629.75 173.5Q641.0 174.0 643.0 175.0Q644.0 177.0 630.75 178.0Q617.5 179.0 598.5 179.0Q579.0 179.0 560.5 179.5Q542.0 180.0 535.0 181.0Q523.0 183.0 520.75 186.25Q518.5 189.5 518.5 203.0V221.5H638.5L670.0 196.0Q683.0 184.5 691.75 175.75Q700.5 167.0 700.5 165.5Q700.5 163.5 703.25 159.75Q706.0 156.0 709.5 152.5Q716.0 145.5 715.75 144.25Q715.5 143.0 708.0 141.5Q704.5 140.5 695.75 141.75Q687.0 143.0 679.0 146.0Q671.0 148.0 665.0 149.25Q659.0 150.5 658.0 149.5Q657.5 149.0 666.0 139.75Q674.5 130.5 687.0 119.0Q700.0 106.5 709.0 96.0Q718.0 85.5 718.0 83.5Q718.0 81.0 714.0 80.0Q710.0 79.0 704.5 79.0Q699.0 79.0 693.0 80.0Q687.0 81.0 682.5 83.5Q680.5 85.0 678.25 85.5Q676.0 86.0 674.5 86.0Q671.5 86.0 670.75 83.5Q670.0 81.0 673.5 77.5Q679.0 72.0 679.0 69.5ZM739.5 134.0Q739.5 131.5 735.0 124.5Q730.5 117.5 725.5 111.0Q720.5 104.5 718.5 104.5Q717.5 104.5 712.5 108.25Q707.5 112.0 701.5 117.5Q688.0 131.0 693.0 133.0Q698.5 134.5 708.25 135.25Q718.0 136.0 726.0 136.0Q731.5 136.0 735.5 135.5Q739.5 135.0 739.5 134.0ZM757.5 71.5Q757.5 70.0 753.75 65.0Q750.0 60.0 745.0 54.0Q740.0 48.0 735.75 43.75Q731.5 39.5 730.5 39.5Q729.5 39.5 725.25 43.5Q721.0 47.5 716.25 52.5Q711.5 57.5 708.25 61.75Q705.0 66.0 706.0 67.0Q707.0 68.0 714.75 69.0Q722.5 70.0 732.5 70.75Q742.5 71.5 750.0 71.75Q757.5 72.0 757.5 71.5ZM247.5 47.0Q262.5 31.0 274.0 20.5Q285.5 10.0 287.5 10.0Q288.0 12.0 283.0 21.25Q278.0 30.5 269.5 43.0Q254.0 67.0 245.75 82.25Q237.5 97.5 237.0 108.5Q236.5 119.5 243.25 129.75Q250.0 140.0 264.0 154.0L290.5 179.5L310.0 158.5Q318.5 149.5 327.25 139.75Q336.0 130.0 340.0 125.0Q348.0 114.0 350.5 114.0Q352.5 114.0 349.25 122.25Q346.0 130.5 337.5 146.0Q331.5 157.5 327.5 166.5Q323.5 175.5 324.0 176.5Q326.0 176.5 335.0 168.25Q344.0 160.0 355.0 147.5Q383.5 116.0 385.0 103.0Q386.0 97.5 388.5 86.25Q391.0 75.0 393.0 65.0Q397.0 48.0 396.5 42.75Q396.0 37.5 391.0 31.0Q383.5 23.0 388.0 19.75Q392.5 16.5 400.5 23.5Q405.0 27.5 420.75 33.25Q436.5 39.0 458.0 44.25Q479.5 49.5 501.0 53.5Q510.0 55.0 528.25 56.25Q546.5 57.5 569.75 58.25Q593.0 59.0 616.0 59.0H697.5L721.0 33.5Q741.0 11.0 747.0 11.0Q750.0 11.0 745.0 20.5Q743.0 25.5 743.75 31.0Q744.5 36.5 750.0 45.5Q760.0 61.5 777.75 74.25Q795.5 87.0 823.0 98.0Q836.5 103.5 843.75 107.75Q851.0 112.0 848.5 113.0Q844.0 113.0 830.75 108.75Q817.5 104.5 802.5 98.5Q778.5 88.5 764.75 84.25Q751.0 80.0 743.0 80.0Q735.5 80.0 731.5 84.5Q728.5 88.0 728.75 92.5Q729.0 97.0 733.5 107.0Q741.0 122.0 758.5 135.75Q776.0 149.5 802.0 159.5Q822.5 167.5 830.75 173.25Q839.0 179.0 832.0 179.0Q830.0 179.0 817.5 174.25Q805.0 169.5 789.0 163.0Q766.0 153.5 752.75 149.25Q739.5 145.0 732.5 145.0Q723.5 145.0 719.5 154.0Q714.5 165.0 718.75 176.0Q723.0 187.0 737.5 201.5Q746.0 209.0 752.25 213.75Q758.5 218.5 768.5 223.5Q778.5 228.5 798.0 237.5Q814.0 244.0 819.0 247.25Q824.0 250.5 820.5 250.5Q812.0 250.5 774.0 236.0Q746.5 225.5 731.0 220.75Q715.5 216.0 707.0 216.0Q700.0 216.0 696.0 220.0Q693.5 223.5 693.5 227.5Q693.5 231.5 696.0 239.5Q699.0 245.5 706.5 254.75Q714.0 264.0 723.5 273.5Q733.0 283.0 742.75 290.75Q752.5 298.5 759.0 302.0Q764.5 304.5 776.25 309.5Q788.0 314.5 799.0 320.0Q809.5 324.5 815.5 328.5Q821.5 332.5 819.0 333.5Q816.5 333.5 801.5 328.0Q786.5 322.5 767.5 314.5Q752.0 307.5 742.25 303.5Q732.5 299.5 722.25 297.5Q712.0 295.5 695.5 294.75Q679.0 294.0 649.75 294.25Q620.5 294.5 572.5 295.0Q525.0 295.5 484.25 299.75Q443.5 304.0 417.25 310.75Q391.0 317.5 385.5 326.0Q385.0 327.5 382.25 329.0Q379.5 330.5 376.5 330.5Q370.5 330.5 373.0 326.5Q373.5 325.5 376.0 316.75Q378.5 308.0 382.0 298.0Q384.5 286.5 385.25 280.5Q386.0 274.5 385.0 270.25Q384.0 266.0 381.0 260.5Q372.5 248.0 378.0 243.5Q383.5 238.0 379.25 230.5Q375.0 223.0 358.5 210.5Q339.0 196.0 329.5 196.0Q323.0 196.0 325.0 204.25Q327.0 212.5 340.5 227.0Q358.5 246.0 352.5 246.0Q350.5 246.0 344.5 241.75Q338.5 237.5 329.5 228.5Q319.5 218.5 310.0 211.5Q300.5 204.5 297.0 204.5Q291.0 204.5 286.0 214.0Q281.0 223.5 278.0 236.75Q275.0 250.0 275.5 261.75Q276.0 273.5 281.5 278.0Q288.0 283.5 288.0 287.5Q288.0 289.5 299.5 301.5Q311.0 313.5 326.5 328.0Q342.5 343.5 352.5 354.75Q362.5 366.0 361.0 368.0Q359.0 368.0 348.25 359.5Q337.5 351.0 324.0 338.5Q288.0 304.0 264.25 285.75Q240.5 267.5 231.5 267.5Q227.5 267.5 226.0 271.0Q224.5 275.5 160.0 279.5Q142.0 280.0 124.25 281.75Q106.5 283.5 92.5 285.25Q78.5 287.0 72.0 289.0Q62.0 291.5 54.75 294.5Q47.5 297.5 40.0 302.25Q32.5 307.0 21.0 315.5Q18.5 317.5 15.5 317.5Q12.0 317.5 11.0 314.5Q10.0 311.5 13.5 308.0Q16.5 304.5 18.75 296.5Q21.0 288.5 22.5 278.75Q24.0 269.0 24.0 261.0Q24.0 253.0 22.5 250.0Q19.0 244.0 21.25 237.0Q23.5 230.0 28.0 233.0Q31.0 235.0 34.0 229.25Q37.0 223.5 38.5 214.0Q40.0 204.5 38.5 196.0Q38.0 190.0 38.5 181.25Q39.0 172.5 40.5 167.0Q42.5 159.5 42.0 149.75Q41.5 140.0 39.5 132.5Q37.5 125.0 34.5 125.0Q34.0 125.0 34.0 125.0Q34.0 125.0 34.0 125.0Q29.5 125.0 31.0 122.5Q34.0 110.0 35.75 97.25Q37.5 84.5 38.0 74.75Q38.5 65.0 37.0 62.0Q34.0 55.5 35.5 49.75Q37.0 44.0 41.5 44.0Q45.0 44.0 45.0 50.5Q45.0 56.5 55.75 62.5Q66.5 68.5 84.25 73.5Q102.0 78.5 123.0 81.0Q144.0 83.5 164.5 83.0Q178.5 82.0 190.25 82.25Q202.0 82.5 204.0 83.5Q208.0 84.0 219.75 74.0Q231.5 64.0 247.5 47.0Z" fill="black" /></svg>