<svg xmlns="http://www.w3.org/2000/svg" width="576.0" height="459.5" viewBox="0 0 576.0 459.5"><path d="M271.0 316.5Q262.0 307.0 258.5 307.0Q253.0 307.0 253.0 328.5Q253.0 337.0 251.75 353.0Q250.5 369.0 249.0 382.5L245.5 415.5L272.0 391.0Q283.5 381.0 293.0 374.5Q302.5 368.0 304.5 367.5L336.0 355.5L308.0 342.0Q296.5 336.0 285.5 328.75Q274.5 321.5 271.0 316.5ZM58.0 114.5Q60.5 107.0 58.25 105.25Q56.0 103.5 43.5 103.5H25.5L36.5 130.0Q45.0 151.0 47.0 151.0Q48.5 151.0 51.0 141.0Q52.0 135.5 54.5 127.75Q57.0 120.0 58.0 114.5ZM151.5 222.5 140.5 215.0Q135.5 212.5 129.25 207.5Q123.0 202.5 119.5 199.0Q116.0 194.5 113.5 194.5Q111.5 194.5 111.0 201.0Q110.5 207.5 110.5 223.5V256.0L131.5 239.5ZM430.5 198.0 440.5 185.0H412.0Q401.0 185.0 392.5 185.0Q384.0 185.0 384.0 186.0Q384.0 186.5 387.5 195.5Q391.0 204.5 396.0 217.0L408.5 247.0L414.0 228.5Q416.5 221.5 421.5 212.25Q426.5 203.0 430.5 198.0ZM158.5 101.0Q157.5 97.0 155.25 88.75Q153.0 80.5 152.5 73.0L148.5 54.0L99.0 97.5L119.0 100.0Q127.0 101.5 136.25 103.25Q145.5 105.0 150.5 106.5Q159.0 109.0 160.0 108.0Q161.0 107.0 158.5 101.0ZM345.0 75.0 328.0 65.5Q320.5 62.0 313.25 57.5Q306.0 53.0 302.5 49.5Q299.5 46.5 297.5 46.5Q295.5 46.5 294.0 52.75Q292.5 59.0 291.5 75.0Q291.0 87.5 290.75 97.5Q290.5 107.5 291.0 108.5Q292.0 108.5 295.75 105.5Q299.5 102.5 304.5 99.0Q309.5 94.5 317.0 89.0Q324.5 83.5 330.5 81.0ZM546.0 29.5Q546.0 28.0 537.75 26.75Q529.5 25.5 518.0 25.0Q507.0 25.0 498.5 25.0Q490.0 25.0 490.0 26.0Q490.0 26.0 493.0 34.25Q496.0 42.5 500.0 54.0Q503.5 65.5 507.5 80.25Q511.5 95.0 512.5 103.5L516.5 126.5L526.5 90.0Q530.0 75.0 534.5 61.5Q539.0 48.0 541.0 44.0Q543.0 40.0 544.5 35.75Q546.0 31.5 546.0 29.5ZM113.5 381.0Q126.0 357.0 120.5 357.0Q118.0 357.0 110.5 362.0Q108.0 364.0 97.5 365.75Q87.0 367.5 76.0 367.5H50.0L71.0 394.5Q89.5 419.0 96.5 419.0Q100.5 419.0 100.5 411.0Q100.5 408.0 104.25 399.5Q108.0 391.0 113.5 381.0ZM134.0 53.0Q157.5 31.0 165.0 31.0Q171.5 31.0 166.0 47.5Q158.0 67.5 165.25 85.0Q172.5 102.5 198.5 127.5Q207.0 135.5 217.75 145.5Q228.5 155.5 239.25 164.75Q250.0 174.0 257.5 180.0Q268.5 189.5 275.5 198.0Q282.5 206.5 282.0 209.0Q280.0 211.0 263.75 213.25Q247.5 215.5 226.5 217.0Q197.5 219.0 179.5 223.5Q161.5 228.0 148.25 237.5Q135.0 247.0 120.5 265.0Q115.5 271.5 110.75 276.0Q106.0 280.5 104.0 280.5Q104.0 280.5 103.75 280.5Q103.5 280.5 103.5 280.5Q102.5 279.5 101.75 267.0Q101.0 254.5 100.5 236.5Q100.0 218.5 99.75 201.0Q99.5 183.5 100.0 171.75Q100.5 160.0 101.5 160.0Q103.0 160.0 107.75 165.25Q112.5 170.5 118.0 179.0Q128.5 196.0 141.25 202.75Q154.0 209.5 180.5 209.5Q195.0 209.5 215.0 208.0Q237.0 205.5 251.5 203.75Q266.0 202.0 264.5 200.5Q262.5 199.5 249.0 187.25Q235.5 175.0 218.5 161.0Q202.0 146.5 189.75 137.5Q177.5 128.5 165.25 123.25Q153.0 118.0 138.25 114.75Q123.5 111.5 102.5 109.0L71.5 105.5L66.0 123.5Q59.0 147.0 55.5 169.75Q52.0 192.5 51.5 219.0Q51.0 245.5 52.5 282.0L56.5 356.5H77.0Q87.5 356.5 97.25 354.0Q107.0 351.5 119.5 344.75Q132.0 338.0 149.75 325.5Q167.5 313.0 194.0 293.0Q224.5 269.5 240.5 257.5Q256.5 245.5 263.25 241.0Q270.0 236.5 272.0 236.5Q272.5 236.5 274.5 238.5Q275.0 240.0 267.0 247.5Q259.0 255.0 245.25 266.5Q231.5 278.0 214.0 291.0Q193.5 306.5 180.25 317.25Q167.0 328.0 158.25 336.25Q149.5 344.5 143.25 353.0Q137.0 361.5 130.5 372.5Q122.5 386.5 116.5 397.5Q110.5 408.5 110.5 411.0Q110.5 413.5 108.75 419.5Q107.0 425.5 103.5 432.5L97.0 449.5L80.0 424.5Q73.5 414.5 62.75 400.75Q52.0 387.0 43.5 378.0Q35.5 369.5 31.5 362.75Q27.5 356.0 30.0 354.5Q34.5 351.5 41.0 354.5Q41.0 354.5 41.25 354.5Q41.5 354.5 41.5 354.5Q44.0 354.5 44.0 334.5Q44.0 314.5 42.5 269.5Q40.0 203.5 34.25 165.5Q28.5 127.5 17.5 113.0Q10.0 102.0 10.0 97.5Q10.0 95.0 20.25 94.5Q30.5 94.0 44.5 94.5Q59.5 95.0 69.25 94.0Q79.0 93.0 87.75 89.0Q96.5 85.0 107.0 76.5Q117.5 68.0 134.0 53.0ZM474.5 11.5Q474.5 10.0 479.0 10.0Q483.0 10.0 489.0 11.5Q494.5 13.5 508.0 14.0Q521.5 14.5 534.5 14.0Q547.5 14.0 556.75 14.0Q566.0 14.0 566.0 15.0Q566.0 15.5 561.5 25.75Q557.0 36.0 551.0 49.5Q540.5 72.0 535.75 99.75Q531.0 127.5 529.5 166.25Q528.0 205.0 528.0 261.5Q528.0 306.0 528.5 329.0Q529.0 352.0 529.0 352.0H539.0Q541.5 352.0 543.75 353.0Q546.0 354.0 546.0 356.5Q546.0 361.0 538.0 361.0H529.0V393.5Q529.0 406.0 528.0 413.75Q527.0 421.5 524.5 421.5Q522.5 421.5 521.25 413.25Q520.0 405.0 520.0 392.5V361.0L416.0 362.0V401.5Q414.0 435.0 409.0 435.0Q404.0 435.0 404.0 398.0V363.0L370.5 365.5Q345.5 366.5 328.25 371.0Q311.0 375.5 297.25 384.5Q283.5 393.5 269.0 409.0Q258.0 420.0 250.25 430.0Q242.5 440.0 241.0 442.5Q240.5 446.0 238.5 447.25Q236.5 448.5 235.5 447.0Q233.5 445.5 234.0 431.5Q234.5 417.5 236.5 399.0Q238.5 386.5 239.75 371.5Q241.0 356.5 242.0 342.0Q243.0 327.5 243.0 317.5Q243.0 302.5 243.5 291.75Q244.0 281.0 244.5 281.0Q245.5 281.0 252.0 286.5Q258.5 292.0 266.5 299.5Q274.0 307.0 292.0 318.0Q310.0 329.0 327.0 337.5Q353.0 350.0 365.5 351.0Q378.0 352.0 380.5 352.0L404.0 351.0V309.5Q404.0 288.5 401.25 270.75Q398.5 253.0 392.0 235.0Q385.5 217.0 374.0 194.5Q370.0 186.0 367.0 180.0Q364.0 174.0 364.0 172.5Q364.0 172.0 373.25 172.0Q382.5 172.0 396.25 172.75Q410.0 173.5 424.25 174.25Q438.5 175.0 448.5 176.0Q458.5 177.0 459.5 178.0Q460.0 178.5 456.0 184.5Q452.0 190.5 445.5 198.0Q437.0 207.5 431.5 215.25Q426.0 223.0 423.0 232.5Q420.0 242.0 418.5 256.75Q417.0 271.5 416.5 295.5L416.0 351.0L520.0 352.0L518.0 255.0Q517.5 205.0 514.0 169.0Q510.5 133.0 503.5 103.25Q496.5 73.5 485.5 43.0Q480.5 31.5 477.5 22.0Q474.5 12.5 474.5 11.5ZM282.5 46.5Q282.5 37.0 283.75 30.0Q285.0 23.0 287.0 23.0Q288.5 23.0 293.5 26.75Q298.5 30.5 303.5 36.0Q308.5 41.0 319.25 48.75Q330.0 56.5 339.5 62.0Q348.0 66.0 354.75 68.5Q361.5 71.0 370.0 72.0Q378.5 73.0 392.0 73.25Q405.5 73.5 427.5 73.0Q453.5 71.5 471.75 72.25Q490.0 73.0 490.0 74.0Q490.0 80.0 473.75 82.0Q457.5 84.0 413.0 84.0Q378.0 84.0 356.25 87.25Q334.5 90.5 321.0 98.75Q307.5 107.0 297.0 122.0Q292.5 128.5 287.75 133.75Q283.0 139.0 281.0 139.0Q279.0 139.0 278.75 128.75Q278.5 118.5 279.0 104.5Q281.5 91.0 282.0 74.0Q282.5 57.0 282.5 46.5Z" fill="black" /></svg>