<svg xmlns="http://www.w3.org/2000/svg" width="693.0" height="458.5" viewBox="0 0 693.0 458.5"><path d="M81.5 252.0 63.5 234.5Q57.0 228.0 51.0 217.25Q45.0 206.5 42.5 202.0Q39.0 195.5 38.0 195.5Q36.0 195.5 35.5 212.25Q35.0 229.0 30.0 267.5L23.0 313.0Q29.0 303.0 37.25 292.75Q45.5 282.5 54.5 273.0Q63.5 260.0 81.5 252.0ZM200.5 212.0Q205.0 185.0 212.75 170.0Q220.5 155.0 220.5 152.5Q219.5 152.5 212.0 154.0Q204.5 155.5 195.5 155.5Q187.5 155.5 180.75 154.5Q174.0 153.5 172.5 153.5Q175.0 156.0 179.25 165.25Q183.5 174.5 188.25 185.25Q193.0 196.0 196.5 204.0Q200.0 212.0 200.5 212.0ZM246.5 195.0Q245.0 190.0 240.5 180.5Q236.0 171.0 232.0 163.25Q228.0 155.5 228.0 155.5Q228.0 155.5 226.25 160.0Q224.5 164.5 222.25 170.5Q220.0 176.5 218.0 180.5Q216.5 185.0 213.75 195.0Q211.0 205.0 209.0 215.5Q207.0 226.0 207.0 232.0L206.5 313.5V341.0L258.0 343.0V283.0Q258.0 256.5 257.25 242.0Q256.5 227.5 254.0 217.25Q251.5 207.0 246.5 195.0ZM285.5 153.5Q286.5 152.5 276.5 153.0Q266.5 153.5 258.0 153.5Q250.0 153.5 243.25 152.25Q236.5 151.0 236.5 152.0Q236.5 154.0 240.25 162.75Q244.0 171.5 248.75 182.0Q253.5 192.5 257.25 200.25Q261.0 208.0 261.0 208.0Q261.0 208.0 264.0 200.5Q267.0 193.0 271.0 183.0Q275.0 173.0 279.25 164.25Q283.5 155.5 285.5 153.5ZM531.5 209.5 550.5 179.5Q545.0 183.0 536.75 189.25Q528.5 195.5 514.5 206.0Q504.5 212.5 491.75 221.0Q479.0 229.5 469.75 235.75Q460.5 242.0 460.5 242.0Q460.5 242.0 468.0 243.5Q475.5 245.0 485.5 247.0Q495.5 249.0 504.0 250.0Q512.5 251.0 514.5 249.5Q519.0 246.0 519.0 237.0Q519.0 232.0 522.75 224.0Q526.5 216.0 531.5 209.5ZM609.0 167.0Q606.5 157.0 604.0 147.75Q601.5 138.5 601.5 138.5Q587.5 153.0 575.25 167.75Q563.0 182.5 550.5 199.5Q535.0 221.0 530.25 235.75Q525.5 250.5 534.5 254.5Q536.5 255.0 537.75 259.5Q539.0 264.0 536.5 264.5Q533.0 265.0 538.5 270.5Q544.0 276.0 554.25 284.25Q564.5 292.5 575.5 301.0Q586.5 309.5 594.0 315.5Q599.5 320.5 606.75 325.25Q614.0 330.0 614.0 330.0Q614.0 330.0 614.0 316.25Q614.0 302.5 614.0 281.25Q614.0 260.0 613.5 237.0Q613.0 214.0 612.0 195.0Q611.0 176.0 609.0 167.0ZM273.0 54.5Q273.0 54.5 271.0 48.25Q269.0 42.0 269.5 39.5Q268.0 39.5 261.5 47.25Q255.0 55.0 247.25 65.25Q239.5 75.5 233.75 83.75Q228.0 92.0 228.0 93.5Q228.0 95.0 231.75 96.0Q235.5 97.0 240.5 97.0Q245.0 97.0 255.5 99.0Q266.0 101.0 275.5 104.5Q285.0 107.0 292.0 108.25Q299.0 109.5 299.0 108.0Q299.0 106.5 295.25 99.5Q291.5 92.5 286.0 84.5Q281.0 76.0 278.25 69.0Q275.5 62.0 273.0 54.5ZM662.0 39.5Q662.0 37.5 647.5 39.75Q633.0 42.0 614.0 42.0Q595.5 42.0 584.0 40.0Q572.5 38.0 572.5 40.0Q572.5 42.0 576.5 50.0Q580.5 58.0 584.0 65.5Q588.0 73.5 593.25 86.5Q598.5 99.5 602.5 111.0Q609.5 135.0 614.5 135.0Q619.0 135.0 625.5 112.0Q627.5 105.5 629.5 100.0Q631.5 94.5 635.25 86.5Q639.0 78.5 645.5 65.5Q652.5 52.0 657.25 46.75Q662.0 41.5 662.0 39.5ZM245.5 378.0 269.0 353.5 235.5 352.0Q221.5 352.0 213.0 351.5Q204.5 351.0 204.0 352.0Q202.5 352.5 205.0 362.0Q207.5 371.5 211.0 383.0Q214.5 392.5 216.0 403.0Q217.5 413.5 219.5 414.5Q221.0 414.5 225.0 408.0Q229.0 401.5 234.25 393.0Q239.5 384.5 245.5 378.0ZM273.0 12.0Q276.0 10.0 277.5 10.5Q279.0 11.0 279.0 11.0Q280.0 12.5 281.0 17.25Q282.0 22.0 282.0 33.0Q282.0 49.0 285.0 59.25Q288.0 69.5 298.0 85.5Q304.0 96.0 312.25 106.5Q320.5 117.0 324.5 121.0Q328.0 124.0 340.25 132.25Q352.5 140.5 369.75 151.5Q387.0 162.5 405.75 174.25Q424.5 186.0 440.75 196.0Q457.0 206.0 467.0 212.25Q477.0 218.5 477.0 218.5Q508.0 197.5 538.5 174.25Q569.0 151.0 598.0 129.5L570.5 63.0Q564.0 48.0 558.75 36.75Q553.5 25.5 555.5 24.5Q556.5 23.5 564.75 24.25Q573.0 25.0 584.0 27.5Q595.5 29.5 614.75 30.0Q634.0 30.5 648.5 29.5Q654.5 28.5 659.75 28.5Q665.0 28.5 669.0 28.5Q683.0 28.5 683.0 30.0Q683.0 31.5 680.5 34.75Q678.0 38.0 674.0 42.0Q666.5 49.5 658.25 65.25Q650.0 81.0 642.75 100.0Q635.5 119.0 631.0 136.0Q626.5 153.0 626.5 162.5L625.5 268.5Q625.5 313.0 626.0 346.5Q626.5 380.0 626.0 398.5Q625.5 417.0 621.5 417.0Q620.0 417.0 617.0 410.0Q614.0 403.0 614.0 383.5V343.0Q607.5 337.5 594.25 327.25Q581.0 317.0 564.75 305.0Q548.5 293.0 532.0 282.25Q515.5 271.5 501.5 264.5Q487.5 257.5 479.0 257.5Q476.5 258.0 467.0 262.0Q457.5 266.0 443.0 273.0Q424.0 282.0 399.75 294.5Q375.5 307.0 351.5 320.25Q327.5 333.5 307.5 345.25Q287.5 357.0 276.5 364.5Q254.0 381.5 238.75 402.25Q223.5 423.0 223.0 438.0Q224.0 443.5 222.5 446.0Q221.0 448.5 218.5 448.5Q216.5 448.5 214.25 446.5Q212.0 444.5 212.0 442.0Q212.0 435.0 209.5 421.5Q207.0 408.0 202.75 392.75Q198.5 377.5 193.25 365.25Q188.0 353.0 183.0 349.0Q175.5 342.0 173.5 332.5Q171.5 323.0 178.0 323.0Q180.0 323.0 181.75 325.25Q183.5 327.5 184.5 330.0Q187.5 335.0 191.5 337.0Q195.5 339.0 195.5 339.0V263.0Q191.0 262.5 180.25 262.5Q169.5 262.5 157.25 262.75Q145.0 263.0 136.0 263.0Q108.5 263.0 98.0 262.5Q87.5 262.0 81.5 265.5Q75.0 269.0 66.25 277.0Q57.5 285.0 48.75 295.0Q40.0 305.0 33.25 314.75Q26.5 324.5 24.5 331.0Q23.5 335.0 20.25 339.0Q17.0 343.0 14.5 343.0Q11.0 343.0 10.5 340.25Q10.0 337.5 11.0 331.0Q11.5 328.0 13.25 316.25Q15.0 304.5 17.0 287.0Q19.0 269.5 21.0 250.5Q23.5 230.5 25.5 213.5Q27.5 196.5 29.0 185.25Q30.5 174.0 31.0 172.5Q32.0 171.0 32.5 171.0Q36.0 171.0 46.0 189.5Q51.5 199.5 59.25 211.25Q67.0 223.0 77.0 233.0L96.0 252.0H144.0Q155.0 252.0 163.25 251.5Q171.5 251.0 177.0 251.0Q183.5 250.5 189.5 250.5Q195.5 250.5 195.5 250.5Q195.5 250.5 195.25 239.25Q195.0 228.0 191.0 217.0Q186.0 203.0 179.0 187.25Q172.0 171.5 164.5 160.5L153.0 142.5H228.0Q259.0 142.5 281.25 143.75Q303.5 145.0 303.5 146.0Q303.5 148.0 300.5 152.0Q297.5 156.0 293.5 160.5Q287.0 169.5 282.25 178.0Q277.5 186.5 274.0 197.5Q270.5 208.5 269.0 226.0Q267.5 243.5 268.0 270.5L269.0 342.0Q274.0 341.0 278.75 340.75Q283.5 340.5 288.0 339.0Q289.5 338.5 302.5 332.5Q315.5 326.5 334.75 317.25Q354.0 308.0 375.0 297.5Q396.0 287.0 414.25 277.75Q432.5 268.5 443.0 262.0L460.5 253.0Q460.5 252.0 455.25 251.75Q450.0 251.5 444.0 251.5Q438.0 251.5 435.5 251.0Q431.0 250.5 432.75 248.0Q434.5 245.5 445.5 240.5Q453.0 236.0 459.25 231.5Q465.5 227.0 465.5 227.0Q465.5 227.0 454.5 219.75Q443.5 212.5 425.5 201.0Q407.5 189.5 386.25 176.25Q365.0 163.0 344.5 150.5Q324.0 138.0 308.0 128.75Q292.0 119.5 284.5 117.0Q260.5 107.5 240.0 107.5Q224.0 107.5 211.0 113.5Q202.0 117.5 199.0 117.5Q187.0 117.5 228.0 74.5Q242.5 58.5 252.0 44.25Q261.5 30.0 263.5 27.0Q266.0 22.5 269.5 17.25Q273.0 12.0 273.0 12.0Z" fill="black" /></svg>