<svg xmlns="http://www.w3.org/2000/svg" width="874.0" height="454.5" viewBox="0 0 874.0 454.5"><path d="M98.5 345.5Q98.5 341.5 91.25 336.0Q84.0 330.5 73.0 325.5Q62.0 321.5 54.75 318.0Q47.5 314.5 46.0 314.5Q46.0 315.5 45.0 323.75Q44.0 332.0 43.0 342.5L40.5 370.0L69.5 361.5Q98.5 354.0 98.5 345.5ZM130.5 346.5Q130.5 345.5 127.25 345.25Q124.0 345.0 119.5 345.0Q109.5 345.0 112.5 350.0Q113.0 352.0 119.0 352.0Q123.0 352.0 126.75 350.5Q130.5 349.0 130.5 346.5ZM116.5 212.5Q117.5 210.0 115.5 207.5Q113.5 205.0 111.0 204.0Q103.5 204.0 103.5 219.0Q103.5 227.0 106.25 232.25Q109.0 237.5 111.5 237.5Q115.5 237.5 116.0 229.5Q116.0 225.0 116.25 220.0Q116.5 215.0 116.5 212.5ZM96.0 106.5Q85.0 101.0 77.25 97.0Q69.5 93.0 69.5 93.0Q69.5 93.0 68.5 100.5Q67.5 108.0 66.25 118.0Q65.0 128.0 64.25 135.5Q63.5 143.0 64.0 143.5Q65.0 144.5 72.5 143.0Q80.0 141.5 90.5 138.75Q101.0 136.0 111.25 132.75Q121.5 129.5 128.5 127.0Q135.5 124.5 135.5 124.0Q135.5 119.0 128.5 119.0Q126.0 119.0 116.5 115.25Q107.0 111.5 96.0 106.5ZM185.0 205.5Q181.5 202.0 178.0 202.0Q173.0 202.0 171.0 209.0Q169.0 216.0 172.0 227.0L175.5 242.0L181.0 225.5Q184.0 218.5 185.0 213.0Q186.0 207.5 185.0 205.5ZM261.5 182.5Q261.5 177.0 256.0 177.0Q253.5 177.0 253.25 189.0Q253.0 201.0 255.25 217.75Q257.5 234.5 261.5 249.0Q263.0 257.0 264.5 257.0Q267.0 257.0 271.5 237.5Q274.0 227.0 278.25 214.75Q282.5 202.5 286.0 196.0L294.0 180.5L278.0 183.5Q271.0 185.0 266.25 184.25Q261.5 183.5 261.5 182.5ZM299.5 204.0Q305.0 198.0 303.0 195.0Q300.5 192.5 297.0 196.0Q293.5 199.5 293.5 205.0Q293.5 210.0 299.5 204.0ZM346.0 221.5Q346.0 204.0 337.5 204.0Q331.0 204.0 320.5 209.0Q309.5 213.0 312.0 220.25Q314.5 227.5 327.5 234.0Q333.0 236.0 336.25 237.5Q339.5 239.0 341.5 239.0Q345.0 239.0 345.5 235.0Q346.0 231.0 346.0 221.5ZM346.0 256.0Q346.0 253.0 340.25 250.0Q334.5 247.0 327.5 245.0Q320.5 243.0 317.5 243.0Q313.0 243.0 310.5 247.5Q310.0 255.0 310.5 259.5Q312.0 262.5 322.5 262.5Q330.0 262.5 338.0 260.5Q346.0 258.5 346.0 256.0ZM402.5 220.5Q401.0 209.0 399.0 204.75Q397.0 200.5 389.0 200.5Q374.5 200.5 368.5 203.75Q362.5 207.0 358.5 222.0Q356.5 233.0 356.75 238.0Q357.0 243.0 362.0 245.25Q367.0 247.5 379.0 251.0Q386.5 252.5 391.5 252.5Q400.0 252.5 401.75 245.5Q403.5 238.5 402.5 220.5ZM482.5 214.5Q480.0 205.0 474.5 202.5Q469.0 200.0 451.5 199.0Q433.0 197.0 428.0 199.5Q423.0 202.0 419.0 211.0Q416.5 217.0 415.0 225.75Q413.5 234.5 413.5 240.5Q413.5 248.0 414.75 251.25Q416.0 254.5 422.75 255.25Q429.5 256.0 445.5 256.0Q460.0 256.0 467.0 255.0Q474.0 254.0 477.0 250.75Q480.0 247.5 482.5 241.5Q486.5 227.0 482.5 214.5ZM511.5 211.0Q504.5 207.0 499.5 205.25Q494.5 203.5 493.0 203.5Q491.5 203.5 491.5 209.0Q491.5 214.5 492.0 222.0Q492.5 229.5 493.5 235.25Q494.5 241.0 496.0 242.0Q498.5 243.0 507.75 241.25Q517.0 239.5 529.0 236.5L557.5 231.0L542.0 224.0Q535.5 221.5 526.75 217.5Q518.0 213.5 511.5 211.0ZM299.0 70.0Q299.0 68.5 292.5 67.5Q286.0 66.5 277.5 66.5Q260.0 66.5 257.5 71.25Q255.0 76.0 263.0 95.0L270.0 110.0L284.0 91.0Q290.0 83.0 294.5 77.0Q299.0 71.0 299.0 70.0ZM339.5 184.0Q334.5 177.0 328.5 177.0Q323.5 177.0 320.5 184.0Q316.0 197.0 325.5 197.0Q329.5 197.0 335.0 195.0Q342.0 193.0 342.75 190.5Q343.5 188.0 339.5 184.0ZM372.0 137.0Q372.0 134.5 364.5 134.5Q360.5 134.5 355.75 135.25Q351.0 136.0 350.0 137.0Q348.0 139.0 348.75 147.5Q349.5 156.0 351.5 163.75Q353.5 171.5 355.5 171.5Q357.5 171.5 361.25 164.25Q365.0 157.0 368.5 148.75Q372.0 140.5 372.0 137.0ZM395.0 151.5Q392.0 141.0 388.5 141.0Q384.0 141.0 375.5 159.0Q369.0 172.5 369.5 175.5Q370.0 178.5 380.0 182.5Q385.5 184.5 389.75 186.0Q394.0 187.5 395.5 187.5Q397.5 187.5 397.75 181.5Q398.0 175.5 397.5 167.0Q397.0 158.5 395.0 151.5ZM429.0 142.5Q429.0 140.0 416.5 140.0Q406.5 140.0 405.25 144.5Q404.0 149.0 408.0 166.0L411.5 180.0L420.0 162.5Q424.0 155.5 426.5 149.5Q429.0 143.5 429.0 142.5ZM777.0 217.5Q782.5 206.0 786.25 197.75Q790.0 189.5 789.5 189.0Q789.0 189.0 781.0 193.75Q773.0 198.5 761.5 205.5Q751.5 213.5 741.5 220.5Q731.5 227.5 728.5 229.5Q720.5 233.5 724.0 236.0Q727.5 238.5 744.5 242.0Q748.0 242.5 750.75 243.0Q753.5 243.5 755.5 243.5Q762.5 243.5 766.25 238.25Q770.0 233.0 777.0 217.5ZM462.5 55.5Q449.0 40.5 443.5 40.5Q440.0 40.5 440.0 46.5Q440.0 49.5 435.75 55.25Q431.5 61.0 426.5 67.5L411.5 82.5L427.5 84.5Q433.5 86.0 451.25 91.5Q469.0 97.0 489.0 103.0Q507.0 109.0 520.5 112.0Q534.0 115.0 534.0 113.5Q534.0 112.5 525.75 106.25Q517.5 100.0 505.0 91.0Q493.5 82.5 481.25 72.25Q469.0 62.0 462.5 55.5ZM529.0 326.5Q529.0 325.5 529.0 324.75Q529.0 324.0 527.0 324.0Q524.5 324.0 516.0 325.75Q507.5 327.5 487.5 332.0Q473.0 335.0 453.5 337.25Q434.0 339.5 420.0 339.5H387.5L393.0 352.5Q395.0 358.0 396.75 366.75Q398.5 375.5 398.5 381.5Q398.5 396.0 403.0 396.0Q405.5 396.0 410.0 393.5Q414.5 391.0 422.0 386.5Q426.0 383.0 435.75 377.5Q445.5 372.0 458.25 365.25Q471.0 358.5 483.5 352.0Q502.5 342.5 515.75 335.25Q529.0 328.0 529.0 326.5ZM432.5 24.0Q430.0 10.0 432.5 10.0Q434.5 10.0 443.75 18.75Q453.0 27.5 464.0 40.5Q474.5 52.0 495.75 69.0Q517.0 86.0 545.5 106.5Q574.0 127.0 607.75 149.0Q641.5 171.0 677.5 192.5L724.5 220.0L758.5 196.0Q768.0 189.5 780.5 180.5Q793.0 171.5 805.25 162.0Q817.5 152.5 826.5 145.5Q840.0 135.0 850.5 127.75Q861.0 120.5 862.5 120.5Q864.0 122.0 859.0 130.0Q854.0 138.0 844.0 147.5Q833.0 159.0 822.0 172.25Q811.0 185.5 801.75 198.25Q792.5 211.0 786.75 220.25Q781.0 229.5 781.0 232.5Q781.0 239.5 786.0 242.0Q791.0 246.0 787.5 252.5Q786.0 259.0 807.5 276.0Q822.5 286.0 834.75 297.0Q847.0 308.0 853.5 316.5Q860.0 325.0 857.5 327.5Q856.0 328.5 852.5 326.25Q849.0 324.0 846.0 319.5Q842.5 314.0 832.5 306.0Q822.5 298.0 809.25 289.25Q796.0 280.5 782.5 273.0Q769.0 265.5 758.25 260.75Q747.5 256.0 743.0 256.0Q736.5 256.0 708.25 266.25Q680.0 276.5 636.5 294.5Q593.0 312.5 540.0 336.5Q506.5 351.5 484.0 362.75Q461.5 374.0 444.5 384.5Q427.5 395.0 409.0 409.0Q385.5 426.5 380.0 426.5Q375.0 426.5 382.5 413.5Q389.0 400.5 386.75 378.5Q384.5 356.5 374.0 336.5Q368.5 325.0 364.75 317.25Q361.0 309.5 361.0 309.0Q361.0 307.0 363.5 307.0Q370.5 307.0 382.5 318.0Q393.5 329.0 425.0 329.0Q441.0 329.0 462.0 326.0Q483.0 323.0 509.0 318.0Q524.5 315.0 545.25 309.25Q566.0 303.5 588.75 296.75Q611.5 290.0 633.0 282.75Q654.5 275.5 671.0 269.0Q687.5 262.5 695.5 258.0Q705.5 254.0 702.75 252.25Q700.0 250.5 678.0 245.0Q659.5 241.0 627.0 241.0Q608.0 241.0 587.25 242.25Q566.5 243.5 547.5 245.75Q528.5 248.0 514.5 251.0Q500.5 254.0 495.0 257.5Q488.0 262.0 476.75 263.75Q465.5 265.5 448.0 265.5H413.5V282.0Q413.5 288.0 412.0 292.75Q410.5 297.5 408.0 297.5Q406.0 297.5 404.5 292.75Q403.0 288.0 403.0 281.5Q403.0 269.5 400.25 267.75Q397.5 266.0 380.5 267.0Q367.0 268.0 362.5 270.25Q358.0 272.5 356.5 280.0Q355.0 292.0 350.5 292.0Q346.0 292.0 346.0 281.5Q346.0 276.5 344.75 274.25Q343.5 272.0 338.5 272.0Q334.0 272.0 325.5 273.75Q317.0 275.5 302.5 279.5L288.0 283.5L295.5 267.0Q300.0 257.5 301.0 246.0Q302.0 234.5 299.5 226.5Q297.0 218.5 291.5 220.5Q289.5 221.0 286.25 229.75Q283.0 238.5 279.75 252.0Q276.5 265.5 273.75 280.0Q271.0 294.5 269.5 307.0Q268.0 319.5 268.5 326.5Q268.5 335.0 271.5 339.0Q274.5 343.0 282.5 345.0L295.5 348.5L281.5 352.0Q274.5 354.0 271.25 356.75Q268.0 359.5 267.5 368.75Q267.0 378.0 267.0 400.0Q267.0 419.5 265.25 432.0Q263.5 444.5 261.5 444.5Q259.5 444.5 257.75 432.0Q256.0 419.5 256.0 400.0V354.0L219.0 356.5L179.5 358.0L179.0 380.0Q176.5 402.0 172.0 402.0Q167.0 402.0 167.0 381.0V360.0L140.5 361.5L112.5 362.5L109.0 383.0L106.5 405.0L103.5 386.5Q102.0 373.5 99.0 371.25Q96.0 369.0 83.0 370.0Q75.5 370.0 62.5 374.0Q49.5 378.0 38.5 383.0Q29.0 388.0 21.25 391.0Q13.5 394.0 11.0 394.0Q11.0 394.0 10.75 394.0Q10.5 394.0 10.5 394.0Q10.0 393.5 13.25 388.25Q16.5 383.0 21.5 376.5Q26.5 369.0 28.75 362.25Q31.0 355.5 32.0 344.25Q33.0 333.0 33.0 313.0Q33.0 293.0 33.25 279.25Q33.5 265.5 34.0 265.5Q35.0 265.5 37.25 271.0Q39.5 276.5 43.0 284.0Q47.0 292.5 56.0 302.0Q65.0 311.5 75.25 317.75Q85.5 324.0 93.0 324.0Q96.0 324.0 97.5 313.5Q99.0 303.0 99.0 286.5Q99.0 270.0 97.5 251.25Q96.0 232.5 93.0 216.5Q91.0 204.0 90.25 194.25Q89.5 184.5 90.5 183.5Q90.5 183.5 90.75 183.5Q91.0 183.5 91.0 183.5Q92.5 183.5 97.0 185.0Q101.5 186.5 106.5 189.5Q112.0 193.5 119.25 195.5Q126.5 197.5 130.5 196.0Q140.5 193.5 143.25 197.75Q146.0 202.0 137.5 207.0Q132.5 210.0 127.0 225.75Q121.5 241.5 118.0 262.5Q114.5 283.5 114.5 303.5Q114.5 317.5 115.25 323.75Q116.0 330.0 119.5 332.25Q123.0 334.5 131.0 336.5Q139.0 338.0 144.75 339.0Q150.5 340.0 154.5 340.0Q162.0 340.0 164.5 335.0Q167.0 330.0 166.75 317.0Q166.5 304.0 165.0 279.5Q163.5 254.0 160.5 231.5Q157.5 209.0 156.5 202.0Q154.5 195.0 154.0 189.5Q153.5 184.0 154.0 183.5Q154.0 183.5 154.0 183.5Q154.0 183.5 154.5 183.5Q156.0 183.5 160.75 185.25Q165.5 187.0 170.5 191.0Q178.5 193.5 186.5 194.75Q194.5 196.0 199.0 195.0Q203.0 193.5 205.0 193.5Q214.0 193.5 201.0 209.0Q197.0 213.5 192.75 226.5Q188.5 239.5 185.0 256.5Q181.5 273.5 179.75 290.0Q178.0 306.5 179.0 318.0L179.5 341.5L214.0 343.5Q227.5 344.5 239.0 343.25Q250.5 342.0 252.0 340.0Q254.5 338.0 254.5 323.25Q254.5 308.5 252.75 287.5Q251.0 266.5 248.25 244.0Q245.5 221.5 242.25 202.75Q239.0 184.0 235.5 175.0Q224.0 146.0 230.0 146.0Q233.0 146.0 242.5 154.5Q248.5 159.5 252.0 162.5Q255.5 165.5 257.5 165.5Q261.5 165.5 261.5 151.0Q261.5 139.5 258.5 135.0Q255.5 130.5 244.5 130.5Q233.0 130.5 212.0 132.0Q191.0 133.5 167.75 136.0Q144.5 138.5 124.75 141.25Q105.0 144.0 96.0 146.5Q88.0 148.5 77.5 153.0Q67.0 157.5 61.5 161.5Q49.0 170.5 44.5 170.5Q37.5 170.5 48.0 147.5Q52.5 137.5 54.5 129.0Q56.5 120.5 57.0 110.0Q57.5 99.5 56.5 84.0Q53.5 47.0 60.0 47.0Q64.0 47.0 69.0 66.0Q73.0 81.5 91.75 93.5Q110.5 105.5 140.25 112.25Q170.0 119.0 207.0 119.0Q229.0 119.0 239.25 118.5Q249.5 118.0 252.75 116.0Q256.0 114.0 256.0 110.0Q256.0 103.5 252.0 93.75Q248.0 84.0 242.5 75.5Q237.0 67.0 232.0 64.5Q229.0 63.5 226.75 60.0Q224.5 56.5 224.5 54.0Q224.5 49.0 228.0 49.0Q231.5 49.0 239.5 52.0Q245.0 54.0 264.75 56.25Q284.5 58.5 304.5 59.0Q348.0 59.5 356.5 62.5Q365.0 65.5 340.5 69.5Q319.0 73.0 303.5 86.5Q288.0 100.0 279.5 120.5Q270.0 146.0 272.75 157.5Q275.5 169.0 290.5 169.0Q300.5 169.0 303.0 166.5Q305.5 164.0 304.0 154.5Q302.5 140.5 309.0 140.5Q313.5 140.5 316.5 151.0Q318.5 155.0 322.0 159.5Q325.5 164.0 330.5 166.0Q335.0 169.0 337.0 169.0Q340.5 169.0 340.5 160.5Q340.5 156.0 338.0 148.25Q335.5 140.5 332.0 135.0Q322.5 115.0 329.0 115.0Q332.5 115.0 340.5 119.0Q347.5 123.5 361.0 123.5Q364.5 123.5 368.25 123.25Q372.0 123.0 375.5 122.5Q384.5 121.0 391.5 121.0Q403.0 121.0 406.5 124.5Q410.0 128.0 418.75 128.75Q427.5 129.5 437.0 129.0Q446.5 128.0 453.5 127.75Q460.5 127.5 460.5 128.0Q460.5 131.5 448.0 140.5Q442.0 145.5 435.75 155.25Q429.5 165.0 426.25 173.75Q423.0 182.5 425.5 185.0Q427.0 187.0 436.0 188.75Q445.0 190.5 454.75 191.75Q464.5 193.0 468.0 193.0Q475.0 193.0 476.25 190.25Q477.5 187.5 476.5 181.5Q473.5 167.5 479.0 167.5Q484.0 167.5 489.0 178.0Q496.0 190.5 519.0 202.5Q542.0 214.5 573.0 221.5Q587.0 224.5 605.0 226.75Q623.0 229.0 641.25 230.0Q659.5 231.0 674.0 231.0Q687.0 231.0 695.75 230.0Q704.5 229.0 705.0 227.0Q706.0 225.0 696.5 217.75Q687.0 210.5 670.5 200.25Q654.0 190.0 633.5 178.75Q613.0 167.5 591.75 156.5Q570.5 145.5 551.5 137.0Q541.0 132.5 522.75 125.25Q504.5 118.0 483.5 110.75Q462.5 103.5 443.5 98.75Q424.5 94.0 413.0 94.0Q404.5 94.0 393.0 98.5Q386.0 100.5 381.0 101.5Q376.0 102.5 372.5 102.5Q366.5 102.5 368.25 99.25Q370.0 96.0 380.0 91.0Q387.0 87.5 397.25 78.75Q407.5 70.0 415.5 61.0Q427.5 47.5 431.25 40.5Q435.0 33.5 432.5 24.0Z" fill="black" /></svg>