<svg xmlns="http://www.w3.org/2000/svg" width="684.5" height="456.5" viewBox="0 0 684.5 456.5"><path d="M152.0 197.0Q152.0 196.5 149.5 195.25Q147.0 194.0 144.0 192.0Q141.5 191.0 139.0 191.75Q136.5 192.5 136.5 194.5Q136.5 196.5 139.0 197.75Q141.5 199.0 144.0 199.0Q147.0 199.0 149.5 198.5Q152.0 198.0 152.0 197.0ZM152.0 248.0Q152.0 247.0 149.5 246.5Q147.0 246.0 144.0 246.0Q141.5 246.0 139.0 247.5Q136.5 249.0 136.5 251.5Q136.5 253.5 139.0 254.0Q141.5 254.5 144.0 253.5Q147.0 252.0 149.5 250.5Q152.0 249.0 152.0 248.0ZM204.5 117.0Q200.5 117.0 183.5 112.75Q166.5 108.5 147.5 104.5L100.5 92.0V122.0Q100.5 135.0 101.25 144.0Q102.0 153.0 104.0 153.0Q105.0 153.0 117.0 148.75Q129.0 144.5 144.0 139.5Q159.5 134.5 174.0 130.5Q188.5 126.5 195.0 126.5Q208.0 126.5 211.5 121.0Q212.5 119.0 210.5 118.0Q208.5 117.0 204.5 117.0ZM271.5 137.0Q271.5 132.0 263.5 132.0Q256.5 132.0 258.5 139.5Q261.0 145.0 265.0 145.0Q271.5 145.0 271.5 137.0ZM588.0 151.5 583.0 132.0H432.5Q392.0 132.0 357.5 132.5Q323.0 133.0 302.0 133.75Q281.0 134.5 280.5 136.0Q278.5 137.0 277.75 150.75Q277.0 164.5 277.0 182.0Q277.0 203.0 277.75 212.75Q278.5 222.5 282.0 226.75Q285.5 231.0 294.0 237.0Q310.5 249.5 323.75 256.75Q337.0 264.0 353.0 267.0Q369.0 270.0 393.0 271.0Q402.0 271.5 409.0 271.75Q416.0 272.0 421.0 272.0Q434.0 272.0 441.0 269.5Q448.0 267.0 457.5 260.5Q466.5 254.5 477.25 245.25Q488.0 236.0 498.0 226.25Q508.0 216.5 514.5 209.0Q521.0 201.5 521.0 199.0Q521.0 194.5 528.0 194.5Q535.0 194.5 536.0 199.0Q537.0 203.5 531.5 207.5Q527.0 210.0 526.25 222.0Q525.5 234.0 528.0 248.0Q530.5 262.0 535.5 271.0Q540.5 278.0 552.5 287.0Q564.5 296.0 577.5 302.5Q590.5 309.0 597.5 309.0Q599.0 309.0 599.25 299.0Q599.5 289.0 599.0 272.75Q598.5 256.5 597.25 237.75Q596.0 219.0 594.5 201.0Q593.0 183.0 591.5 169.75Q590.0 156.5 588.0 151.5ZM290.5 85.0 306.5 54.0H265.5Q249.0 54.0 236.75 55.0Q224.5 56.0 224.5 57.0Q224.5 57.5 228.75 66.5Q233.0 75.5 239.0 88.0Q246.0 102.0 251.75 109.25Q257.5 116.5 263.5 116.5Q274.0 116.5 290.5 85.0ZM640.0 32.0Q639.0 31.0 629.75 30.0Q620.5 29.0 607.5 28.0Q594.5 27.0 581.75 26.5Q569.0 26.0 560.5 25.75Q552.0 25.5 552.0 26.0Q552.0 27.5 555.5 35.25Q559.0 43.0 564.0 53.5Q569.5 63.5 575.5 79.5Q581.5 95.5 586.0 108.5L595.0 139.5L606.5 103.0Q611.5 87.0 618.0 71.25Q624.5 55.5 630.0 49.5Q635.0 42.0 637.75 37.0Q640.5 32.0 640.0 32.0ZM72.0 352.0Q60.0 348.5 52.0 346.5Q44.0 344.5 39.5 344.5Q31.5 344.5 30.5 351.5Q29.5 358.5 30.5 374.5Q31.5 387.0 33.0 396.25Q34.5 405.5 35.5 406.5Q35.5 406.5 43.75 403.75Q52.0 401.0 63.0 396.0Q75.0 392.0 94.25 387.25Q113.5 382.5 130.0 379.5L169.5 373.0L133.5 367.0Q118.5 364.0 100.5 359.75Q82.5 355.5 72.0 352.0ZM152.0 300.5Q152.0 299.5 149.5 298.75Q147.0 298.0 144.0 298.0Q141.5 298.0 139.0 299.5Q136.5 301.0 136.5 303.5Q136.5 305.5 139.0 306.0Q141.5 306.5 144.0 305.5Q147.0 304.0 149.5 302.5Q152.0 301.0 152.0 300.5ZM310.5 278.5 327.5 269.5 277.0 241.0V269.5Q277.0 298.5 283.5 298.5Q286.0 298.5 289.5 293.5Q291.0 290.5 297.0 286.25Q303.0 282.0 310.5 278.5ZM515.5 241.0Q515.5 231.5 512.0 231.5Q506.0 231.5 486.0 251.0L463.0 270.5L486.0 274.5Q495.0 276.0 505.0 278.25Q515.0 280.5 519.5 281.5Q525.0 283.0 527.0 283.0Q530.5 283.0 529.5 279.5Q528.5 276.0 524.0 268.0Q520.5 261.0 518.0 253.25Q515.5 245.5 515.5 241.0ZM535.0 11.0Q535.0 10.0 538.0 10.0Q541.5 10.0 547.75 11.0Q554.0 12.0 561.5 13.5Q571.5 15.5 590.5 16.0Q609.5 16.5 626.5 15.5Q643.0 14.0 654.5 14.0Q666.5 14.0 666.5 15.5Q666.5 16.5 661.75 23.0Q657.0 29.5 651.0 37.0Q637.5 53.5 629.75 67.25Q622.0 81.0 617.75 98.5Q613.5 116.0 612.0 143.0Q610.5 170.0 610.0 213.0L608.0 317.0L643.5 332.5Q662.5 340.5 668.5 344.75Q674.5 349.0 668.0 349.5Q663.5 350.0 654.0 347.25Q644.5 344.5 635.5 340.0Q627.0 335.5 619.75 332.5Q612.5 329.5 611.5 329.5Q610.5 329.5 610.0 347.25Q609.5 365.0 609.5 389.5Q609.5 417.0 607.75 431.75Q606.0 446.5 604.5 446.5Q601.5 445.0 600.0 427.0Q598.5 409.0 598.5 383.5V323.5L564.0 307.5Q542.5 297.5 520.5 292.75Q498.5 288.0 479.0 288.0Q452.5 288.0 433.5 297.0Q419.0 305.0 412.0 305.0Q408.0 305.0 409.0 301.75Q410.0 298.5 418.0 293.0Q423.5 288.0 423.75 286.0Q424.0 284.0 414.0 283.25Q404.0 282.5 379.0 282.5Q352.5 282.5 337.5 284.25Q322.5 286.0 312.75 291.25Q303.0 296.5 291.5 307.5Q282.0 315.5 279.5 323.0Q277.0 330.5 277.0 346.0V371.0H400.0Q438.0 371.0 471.5 372.0Q505.0 373.0 529.0 374.5Q553.0 376.0 563.0 377.75Q573.0 379.5 564.5 381.5Q563.5 381.5 543.5 381.75Q523.5 382.0 491.0 382.25Q458.5 382.5 419.0 383.0L278.5 383.5L277.0 402.0L273.0 420.0L265.5 380.0L204.0 383.5Q154.0 386.5 111.5 395.5Q69.0 404.5 43.0 417.5Q34.5 422.0 28.0 424.0Q21.5 426.0 21.5 425.0Q21.0 422.5 21.0 412.25Q21.0 402.0 21.5 389.5Q21.5 375.0 20.0 362.5Q18.5 350.0 14.5 343.5Q10.0 335.0 10.75 330.0Q11.5 325.0 15.5 325.0Q18.0 325.0 21.5 327.0Q27.0 330.0 42.25 334.5Q57.5 339.0 79.25 344.0Q101.0 349.0 125.25 353.75Q149.5 358.5 173.0 362.5Q196.5 366.5 215.75 368.75Q235.0 371.0 245.5 371.0H265.5V309.0H217.0Q192.5 309.0 175.0 310.75Q157.5 312.5 148.0 317.0Q141.0 319.5 134.75 321.5Q128.5 323.5 127.5 323.5Q127.0 323.5 126.25 317.75Q125.5 312.0 125.5 303.5Q125.5 293.0 126.25 288.5Q127.0 284.0 132.0 284.0Q135.0 284.0 140.5 285.75Q146.0 287.5 155.0 290.5Q163.5 293.5 182.75 295.75Q202.0 298.0 220.5 298.0H265.5V257.0H213.0Q185.5 257.0 169.5 258.5Q153.5 260.0 146.5 264.5Q141.0 267.5 137.25 269.25Q133.5 271.0 131.0 271.0Q127.5 271.0 126.5 266.5Q125.5 262.0 125.5 251.5Q125.5 243.0 126.75 237.0Q128.0 231.0 129.0 231.0Q130.0 231.0 139.0 233.25Q148.0 235.5 159.0 238.0Q172.0 242.5 189.75 244.25Q207.5 246.0 225.5 245.5L263.5 244.0L264.0 224.0Q265.0 215.0 263.75 208.75Q262.5 202.5 260.0 202.0Q257.5 201.0 245.75 201.25Q234.0 201.5 217.75 202.75Q201.5 204.0 184.75 205.75Q168.0 207.5 155.0 209.5Q142.0 211.5 137.0 213.0Q133.5 214.5 130.5 214.5Q127.0 214.5 126.25 210.5Q125.5 206.5 125.5 197.0Q125.5 188.5 126.5 184.5Q127.5 180.5 133.5 180.5Q140.5 180.5 167.5 188.0Q189.0 193.0 210.5 193.0Q215.5 193.0 220.75 192.75Q226.0 192.5 231.0 192.0Q246.0 190.0 252.25 188.75Q258.5 187.5 259.75 184.0Q261.0 180.5 260.0 173.5Q255.0 151.5 249.0 141.75Q243.0 132.0 234.0 132.0Q225.5 132.0 211.0 134.75Q196.5 137.5 179.75 141.75Q163.0 146.0 147.75 151.0Q132.5 156.0 122.5 160.5Q110.0 166.0 100.75 169.75Q91.5 173.5 90.5 173.5Q90.0 173.5 90.0 166.0Q90.0 158.5 91.5 148.5Q92.0 138.0 91.5 124.0Q91.0 110.0 88.5 100.5Q87.0 91.5 86.0 84.5Q85.0 77.5 86.0 77.0Q86.0 77.0 86.25 77.0Q86.5 77.0 86.5 77.0Q89.0 77.0 98.75 79.25Q108.5 81.5 121.0 86.0Q134.5 90.0 151.75 94.5Q169.0 99.0 185.75 102.75Q202.5 106.5 215.25 109.0Q228.0 111.5 232.5 111.5Q237.5 111.5 234.75 103.5Q232.0 95.5 221.5 76.0Q214.0 62.0 209.0 52.25Q204.0 42.5 204.0 41.5Q204.0 41.0 213.25 41.0Q222.5 41.0 237.0 41.5Q251.5 42.0 267.75 42.75Q284.0 43.5 298.75 44.25Q313.5 45.0 323.0 45.75Q332.5 46.5 333.0 47.0Q334.0 47.5 331.5 50.5Q329.0 53.5 324.0 57.0Q319.5 60.0 313.5 68.0Q307.5 76.0 301.5 85.75Q295.5 95.5 291.5 103.75Q287.5 112.0 287.5 115.5Q287.5 118.0 301.5 119.25Q315.5 120.5 347.25 120.75Q379.0 121.0 432.5 121.0H577.5L575.0 106.5Q574.0 101.0 567.25 85.25Q560.5 69.5 552.0 52.5Q544.0 36.5 539.25 24.0Q534.5 11.5 535.0 11.0Z" fill="black" /></svg>