<svg xmlns="http://www.w3.org/2000/svg" width="623.0" height="382.5" viewBox="0 0 623.0 382.5"><path d="M113.5 205.5Q120.0 193.5 77.5 225.5Q66.0 234.5 56.75 242.0Q47.5 249.5 47.0 252.0Q46.5 253.0 50.25 254.75Q54.0 256.5 60.5 257.0L89.0 258.0Q89.0 258.0 93.0 249.5Q97.0 241.0 102.75 228.75Q108.5 216.5 113.5 205.5ZM135.0 310.0Q111.0 292.5 102.0 285.0Q93.0 277.5 93.0 277.5Q93.0 277.5 91.75 285.0Q90.5 292.5 90.5 300.5Q90.5 309.0 91.75 315.0Q93.0 321.0 95.0 321.0Q99.0 321.0 108.5 318.25Q118.0 315.5 126.5 312.75Q135.0 310.0 135.0 310.0ZM146.5 286.5Q141.5 285.0 132.5 281.25Q123.5 277.5 116.5 274.25Q109.5 271.0 109.5 271.0Q132.0 293.0 140.75 299.75Q149.5 306.5 149.5 306.5Q149.5 306.5 155.75 304.75Q162.0 303.0 167.0 301.5Q178.5 298.0 175.75 295.75Q173.0 293.5 146.5 286.5ZM462.5 257.0Q466.0 252.5 468.0 248.75Q470.0 245.0 469.0 244.5Q467.5 244.5 458.5 249.75Q449.5 255.0 438.5 263.0Q430.0 268.5 420.25 274.5Q410.5 280.5 403.75 284.25Q397.0 288.0 397.0 288.0L441.5 290.5Q453.0 291.5 454.0 288.75Q455.0 286.0 455.0 279.5Q455.0 275.0 457.0 268.25Q459.0 261.5 462.5 257.0ZM100.0 110.0 79.5 123.5 99.5 127.0ZM124.5 142.0 107.5 137.0 105.5 149.0ZM127.5 81.5 107.0 70.0 108.0 95.0ZM156.0 93.5 136.5 86.0 108.5 105.5Q108.0 111.5 108.25 117.25Q108.5 123.0 108.0 129.0Q120.5 132.0 132.0 137.0L149.0 131.5Q148.0 126.0 148.25 122.25Q148.5 118.5 149.5 112.0Q151.0 104.5 152.75 100.75Q154.5 97.0 156.0 93.5ZM155.5 148.0 151.5 139.0 143.0 142.0ZM175.5 54.5 145.0 78.0 161.0 84.5ZM205.0 110.5 165.0 97.0Q160.0 105.0 158.5 111.5Q157.0 118.0 158.0 128.0ZM527.0 100.5Q536.5 86.5 534.0 86.5Q532.0 86.5 501.5 106.5Q488.0 115.5 476.5 122.5Q465.0 129.5 465.0 129.5Q465.0 129.5 473.75 131.5Q482.5 133.5 488.5 134.0Q495.0 134.0 501.75 134.5Q508.5 135.0 510.5 135.5Q517.5 136.0 517.5 132.25Q517.5 128.5 518.0 123.5Q518.5 118.5 521.25 111.75Q524.0 105.0 527.0 100.5ZM202.0 17.0Q203.0 13.5 205.5 11.75Q208.0 10.0 210.0 10.0Q213.5 10.0 213.5 13.5Q213.5 16.0 203.0 28.25Q192.5 40.5 181.0 63.5Q177.0 71.5 172.75 79.5Q168.5 87.5 168.5 87.5Q168.5 87.5 174.25 89.25Q180.0 91.0 188.0 93.75Q196.0 96.5 203.25 98.75Q210.5 101.0 213.5 102.0Q218.0 103.0 247.5 102.75Q277.0 102.5 336.5 104.0L482.0 108.5L515.5 85.5Q530.0 75.5 544.0 64.5Q558.0 53.5 564.5 48.0Q576.0 37.0 581.0 37.0Q587.0 37.0 574.0 53.0Q544.5 89.5 533.25 113.75Q522.0 138.0 534.5 138.0Q537.0 138.0 537.75 140.25Q538.5 142.5 536.5 145.5Q534.0 153.0 560.0 169.5Q574.5 178.5 586.75 188.5Q599.0 198.5 606.0 205.75Q613.0 213.0 611.0 215.0Q611.0 215.0 610.75 215.0Q610.5 215.0 610.5 215.0Q608.5 215.0 600.5 210.0Q592.5 205.0 583.0 198.0Q551.0 172.5 520.5 157.0Q490.0 141.5 467.0 139.5Q446.0 137.0 441.5 133.25Q437.0 129.5 449.5 126.0Q455.0 124.0 462.0 120.0Q469.0 116.0 469.0 116.0Q469.0 116.0 453.5 115.5Q438.0 115.0 410.5 114.5Q383.0 114.0 347.5 114.0Q339.0 114.0 324.5 113.25Q310.0 112.5 293.5 112.0Q277.0 111.5 261.5 111.5Q250.0 111.5 240.25 112.0Q230.5 112.5 224.5 114.0Q208.5 118.0 193.75 123.0Q179.0 128.0 169.5 131.5Q160.0 135.0 160.0 135.0Q167.0 150.5 175.0 157.0Q183.0 163.5 189.5 169.5Q211.0 187.5 222.5 197.25Q234.0 207.0 238.5 211.5Q243.0 216.0 242.75 217.5Q242.5 219.0 241.0 220.5Q240.0 222.0 233.75 217.75Q227.5 213.5 219.5 206.0Q212.0 199.0 201.0 190.0Q190.0 181.0 182.0 174.5L162.5 161.0L145.0 181.5Q133.0 194.5 123.5 209.25Q114.0 224.0 109.25 236.0Q104.5 248.0 106.0 253.5Q113.5 271.5 165.25 281.25Q217.0 291.0 304.0 291.0Q336.5 291.0 354.75 290.75Q373.0 290.5 373.0 290.5Q373.0 290.5 381.5 285.75Q390.0 281.0 395.0 278.0Q411.5 268.0 432.0 254.25Q452.5 240.5 470.5 227.25Q488.5 214.0 497.5 205.5Q509.5 194.0 515.5 194.0Q518.5 194.0 517.0 198.5Q515.5 203.0 508.0 211.5Q491.5 229.5 480.5 246.75Q469.5 264.0 466.5 276.5Q463.5 289.0 470.0 293.0Q472.5 294.0 473.5 297.75Q474.5 301.5 474.5 305.0Q474.5 308.5 479.5 313.5Q484.5 318.5 491.0 322.5Q499.0 326.5 509.25 334.0Q519.5 341.5 528.75 349.75Q538.0 358.0 543.25 364.5Q548.5 371.0 547.0 372.5Q545.0 372.5 535.75 366.5Q526.5 360.5 514.0 351.0Q502.5 341.0 486.0 330.0Q469.5 319.0 458.0 314.0Q448.5 309.0 441.25 306.25Q434.0 303.5 422.0 302.25Q410.0 301.0 387.75 300.75Q365.5 300.5 326.0 300.5Q258.0 300.5 213.25 302.25Q168.5 304.0 156.5 311.0Q156.0 312.0 165.0 318.75Q174.0 325.5 181.0 333.0Q192.0 342.5 195.25 347.75Q198.5 353.0 196.0 353.0Q189.5 353.0 170.5 336.0Q161.0 327.5 153.5 321.5Q146.0 315.5 144.5 315.5Q142.5 315.5 133.25 318.5Q124.0 321.5 112.0 325.5Q100.5 329.0 91.0 332.0Q81.5 335.0 80.5 335.0Q79.0 335.0 78.5 325.75Q78.0 316.5 79.0 303.5Q80.0 290.0 80.25 283.0Q80.5 276.0 76.75 272.75Q73.0 269.5 63.0 267.75Q53.0 266.0 34.0 263.0L10.0 258.5L38.5 240.5Q48.0 235.0 62.25 224.75Q76.5 214.5 92.0 202.5Q107.5 190.5 121.25 179.75Q135.0 169.0 143.75 162.0Q152.5 155.0 152.5 155.0L135.5 146.0L123.0 150.0Q120.5 151.0 114.25 153.25Q108.0 155.5 102.5 157.0Q97.0 158.5 96.0 158.5Q95.0 158.5 95.75 153.5Q96.5 148.5 97.5 143.5Q98.0 141.5 98.5 138.25Q99.0 135.0 99.0 135.0Q99.0 135.0 94.5 134.0Q90.0 133.0 84.75 131.75Q79.5 130.5 76.0 130.5L55.5 128.0L79.0 114.0Q86.5 109.5 93.25 105.0Q100.0 100.5 100.0 100.5V82.5Q100.0 68.0 99.25 62.75Q98.5 57.5 104.25 60.25Q110.0 63.0 129.5 72.0Q130.5 72.5 133.25 73.25Q136.0 74.0 136.0 74.0Q140.5 71.0 150.75 63.25Q161.0 55.5 172.25 46.25Q183.5 37.0 192.0 28.75Q200.5 20.5 202.0 17.0Z" fill="black" /></svg>