<svg xmlns="http://www.w3.org/2000/svg" width="630.5" height="459.5" viewBox="0 0 630.5 459.5"><path d="M66.0 300.5Q58.0 298.0 51.5 296.5Q45.0 295.0 44.0 295.0Q43.0 295.0 42.75 303.0Q42.5 311.0 43.0 322.5L44.5 349.0L64.5 339.5Q75.5 334.0 80.0 329.5Q84.5 325.0 84.5 317.5Q84.5 310.5 80.75 307.0Q77.0 303.5 66.0 300.5ZM149.0 315.0Q147.0 313.0 137.75 311.75Q128.5 310.5 119.0 310.5Q102.5 310.5 98.5 312.25Q94.5 314.0 94.5 321.0Q94.5 326.5 96.5 328.25Q98.5 330.0 103.5 328.0Q106.5 327.0 115.75 325.0Q125.0 323.0 134.0 322.5Q155.0 318.0 149.0 315.0ZM106.5 188.5 114.0 168.5H96.0Q85.0 168.5 82.25 170.0Q79.5 171.5 81.5 176.5Q82.5 180.0 84.5 186.0Q86.5 192.0 87.5 197.5Q90.0 208.5 93.5 208.5Q98.5 208.5 106.5 188.5ZM126.0 191.0Q128.5 178.5 123.0 178.5Q120.0 178.5 116.0 187.0Q112.0 195.5 108.25 208.5Q104.5 221.5 101.5 235.5Q98.5 249.5 96.5 260.25Q94.5 271.0 94.5 275.0Q94.5 285.5 96.75 290.75Q99.0 296.0 107.5 297.75Q116.0 299.5 135.0 301.0L158.0 303.0L159.5 266.0Q160.0 248.5 158.5 234.5Q157.0 220.5 153.0 212.0Q149.5 203.5 145.25 198.5Q141.0 193.5 138.0 193.5Q135.0 193.5 135.0 199.0Q135.0 203.5 129.0 203.5Q124.5 203.5 126.0 191.0ZM185.0 186.5Q185.0 185.0 180.0 184.25Q175.0 183.5 168.0 183.5H150.0L158.5 200.0Q161.5 207.0 164.75 212.5Q168.0 218.0 168.5 218.5Q169.5 218.5 173.5 211.5Q177.5 204.5 181.25 196.5Q185.0 188.5 185.0 186.5ZM391.5 224.0Q379.0 200.0 370.5 200.0Q363.5 200.0 360.5 218.0Q359.0 230.0 358.25 246.5Q357.5 263.0 357.75 278.75Q358.0 294.5 359.5 305.0Q361.0 315.5 363.0 315.5Q366.5 315.5 366.0 317.25Q365.5 319.0 362.0 323.0Q352.5 334.5 365.0 334.5Q367.5 334.5 371.75 333.75Q376.0 333.0 381.0 332.0L400.5 327.5L402.0 287.0Q402.5 269.5 401.75 259.25Q401.0 249.0 398.75 241.25Q396.5 233.5 391.5 224.0ZM185.0 131.0Q174.0 128.5 162.25 125.5Q150.5 122.5 146.0 121.5Q138.0 118.5 136.25 119.25Q134.5 120.0 136.5 125.5Q138.0 129.0 139.0 135.75Q140.0 142.5 140.0 148.0V162.5L167.0 150.5Q177.5 145.5 188.0 141.75Q198.5 138.0 203.0 138.0Q207.5 137.5 202.0 135.5Q196.5 133.5 185.0 131.0ZM341.5 162.0 337.0 143.5 277.5 144.0Q245.5 144.0 225.25 146.25Q205.0 148.5 188.5 154.0Q155.0 164.0 152.75 169.25Q150.5 174.5 179.5 172.0Q192.5 171.5 201.75 172.0Q211.0 172.5 211.0 174.0Q211.0 175.0 207.75 178.75Q204.5 182.5 200.5 186.5Q193.5 192.5 186.5 208.25Q179.5 224.0 174.5 242.75Q169.5 261.5 168.5 276.5L168.0 303.0L193.0 306.5Q200.0 307.0 214.5 307.5Q229.0 308.0 247.25 308.5Q265.5 309.0 283.5 309.0L347.5 310.5V245.5Q347.5 227.5 346.75 210.25Q346.0 193.0 344.75 180.0Q343.5 167.0 341.5 162.0ZM372.5 131.0Q372.5 130.0 368.25 129.0Q364.0 128.0 357.5 128.0Q351.5 128.0 346.75 128.5Q342.0 129.0 342.0 130.0Q342.0 130.5 344.25 138.0Q346.5 145.5 350.0 155.75Q353.5 166.0 357.0 174.5Q358.5 174.5 362.25 166.0Q366.0 157.5 369.25 147.25Q372.5 137.0 372.5 131.0ZM395.5 154.0Q388.0 139.0 384.5 139.0Q380.0 139.0 373.5 164.0Q370.0 176.5 371.25 180.5Q372.5 184.5 380.5 188.5Q387.0 192.0 392.0 192.0Q401.5 192.0 402.75 181.25Q404.0 170.5 395.5 154.0ZM420.5 146.0Q422.5 138.0 409.5 138.0Q401.5 138.0 400.25 139.25Q399.0 140.5 402.5 146.0Q405.0 149.0 408.25 151.5Q411.5 154.0 413.0 154.0Q415.0 154.0 417.0 151.5Q419.0 149.0 420.5 146.0ZM426.0 215.0Q429.0 209.5 418.5 209.5Q412.0 209.5 410.25 212.25Q408.5 215.0 408.5 224.0Q408.5 239.0 414.0 239.0Q417.5 239.0 420.5 230.5Q421.5 226.5 423.25 222.25Q425.0 218.0 426.0 215.0ZM542.0 186.5Q529.5 175.5 512.25 163.5Q495.0 151.5 483.5 144.0L455.0 128.0L437.0 145.5Q424.5 156.5 416.5 170.5Q408.5 184.5 408.5 194.0Q408.5 196.5 415.0 197.75Q421.5 199.0 431.0 199.0Q447.5 199.0 452.5 203.5Q457.5 208.0 446.0 212.5Q440.5 214.5 434.25 224.5Q428.0 234.5 422.5 248.5Q417.0 262.5 413.0 277.0Q409.0 291.5 408.0 303.0Q407.0 314.5 410.0 319.5Q411.5 321.0 415.5 321.0Q424.0 321.0 443.25 314.25Q462.5 307.5 488.25 296.0Q514.0 284.5 541.5 269.5Q566.0 256.5 583.0 247.0Q600.0 237.5 600.0 235.5Q600.0 234.5 596.25 230.75Q592.5 227.0 587.0 222.0Q580.5 218.0 567.75 207.25Q555.0 196.5 542.0 186.5ZM437.5 65.5Q433.0 54.5 428.25 48.0Q423.5 41.5 421.0 41.5Q418.5 41.5 418.5 47.0Q418.5 49.5 412.0 55.25Q405.5 61.0 396.0 66.5L373.0 81.5L421.5 103.5Q442.0 112.5 458.0 119.5Q474.0 126.5 476.0 127.5Q477.5 127.5 474.5 122.25Q471.5 117.0 465.0 109.0Q458.5 100.5 450.0 87.75Q441.5 75.0 437.5 65.5ZM446.0 329.0Q451.0 325.0 443.25 325.75Q435.5 326.5 422.0 331.5Q408.5 336.5 408.5 340.5Q408.5 342.5 406.0 343.0Q403.5 343.5 400.5 343.0Q397.5 341.0 384.75 343.0Q372.0 345.0 357.0 348.0L321.0 357.0L339.5 375.0Q346.5 382.0 352.75 389.75Q359.0 397.5 360.0 401.5Q363.0 410.5 366.0 410.5Q371.0 410.5 380.5 393.0Q384.0 386.0 394.5 374.25Q405.0 362.5 415.5 354.5Q426.0 346.0 435.0 338.5Q444.0 331.0 446.0 329.0ZM420.0 29.0Q433.0 10.0 438.5 10.0Q443.5 10.0 440.5 26.0Q434.0 61.0 494.5 125.5Q509.0 140.5 526.25 156.75Q543.5 173.0 560.75 187.75Q578.0 202.5 592.5 213.25Q607.0 224.0 615.0 228.5Q620.5 231.5 620.25 234.25Q620.0 237.0 610.25 243.0Q600.5 249.0 577.0 262.5Q487.0 309.5 436.75 350.5Q386.5 391.5 376.5 424.5L369.0 449.5L353.5 416.5Q347.5 402.0 339.25 390.25Q331.0 378.5 325.5 375.0Q313.0 366.5 312.25 356.0Q311.5 345.5 324.0 345.5Q335.5 345.5 342.0 340.25Q348.5 335.0 346.0 328.0Q345.0 325.0 339.75 323.25Q334.5 321.5 321.75 320.75Q309.0 320.0 285.0 320.0Q270.0 320.0 249.25 321.25Q228.5 322.5 206.0 324.5Q183.5 326.5 162.75 329.0Q142.0 331.5 126.25 334.0Q110.5 336.5 103.5 338.5Q94.5 341.0 94.5 346.5Q94.5 348.5 91.5 348.75Q88.5 349.0 84.5 348.0Q77.5 346.0 68.0 349.5Q58.5 353.0 49.5 360.25Q40.5 367.5 35.5 376.5Q29.5 389.0 26.5 389.0Q23.0 389.0 28.0 360.5Q34.5 329.5 33.0 314.5Q31.5 299.5 20.5 287.5Q15.5 282.0 12.75 277.0Q10.0 272.0 10.5 271.5Q11.5 270.0 18.5 272.0Q25.5 274.0 34.5 278.0Q44.0 282.5 54.5 286.5Q65.0 290.5 70.5 291.5L84.5 295.0V253.0Q84.5 228.0 81.75 214.75Q79.0 201.5 72.0 186.0Q67.5 174.5 61.75 166.25Q56.0 158.0 53.5 157.5Q46.0 154.5 47.25 152.75Q48.5 151.0 54.5 151.0Q58.5 151.0 63.0 151.5Q67.5 152.0 72.5 154.0Q78.0 155.5 83.25 156.0Q88.5 156.5 93.5 156.5Q107.0 156.5 117.5 152.25Q128.0 148.0 128.5 140.0Q129.0 136.0 126.75 127.75Q124.5 119.5 120.0 111.5Q110.5 93.5 116.5 93.5Q121.0 93.5 137.0 103.5Q153.0 112.5 191.75 119.5Q230.5 126.5 284.5 130.5L334.5 134.5L309.0 106.5L325.0 110.0Q342.5 114.5 359.5 114.5Q373.5 114.5 384.5 111.5Q390.5 109.5 394.0 109.5Q398.0 109.5 396.5 115.0Q394.0 122.0 404.75 125.5Q415.5 129.0 434.0 127.0Q446.0 126.0 441.0 122.75Q436.0 119.5 404.0 106.0Q384.5 97.5 371.5 90.25Q358.5 83.0 359.5 81.0Q360.0 78.5 366.75 73.25Q373.5 68.0 382.0 63.0Q391.0 58.0 402.25 48.0Q413.5 38.0 420.0 29.0Z" fill="black" /></svg>