<svg xmlns="http://www.w3.org/2000/svg" width="834.5" height="461.5" viewBox="0 0 834.5 461.5"><path d="M66.5 342.5Q65.5 341.5 59.25 338.25Q53.0 335.0 46.0 331.5L27.0 322.0V348.0Q27.0 360.5 28.0 365.5Q29.0 370.5 31.5 370.5Q33.5 370.5 37.5 368.0Q49.5 361.0 59.25 352.75Q69.0 344.5 66.5 342.5ZM52.0 167.5 68.0 154.0 48.5 142.5Q40.0 137.5 33.0 135.25Q26.0 133.0 24.5 134.5Q24.0 135.5 22.75 143.0Q21.5 150.5 21.5 159.5Q21.5 180.5 29.5 180.5Q36.0 180.5 52.0 167.5ZM197.0 170.5Q197.0 168.0 193.0 166.0Q189.0 164.0 183.0 164.0Q170.5 164.0 169.5 168.25Q168.5 172.5 177.5 184.5Q183.5 192.0 186.0 192.0Q187.5 192.0 191.5 187.0Q197.0 178.0 197.0 170.5ZM299.0 167.5Q299.0 166.0 294.0 165.0Q289.0 164.0 282.0 164.0Q271.0 164.0 268.75 165.75Q266.5 167.5 270.5 174.5Q278.0 189.5 284.0 189.5Q287.0 189.5 290.5 185.0Q294.0 180.5 296.5 175.0Q299.0 169.5 299.0 167.5ZM304.5 55.0Q304.5 51.0 303.5 48.0Q302.5 45.0 300.5 45.0Q299.0 45.0 293.75 52.0Q288.5 59.0 281.5 69.25Q274.5 79.5 268.0 90.0Q261.5 100.5 257.75 108.0Q254.0 115.5 255.0 116.0Q255.5 116.5 263.5 117.5Q271.5 118.5 283.0 119.5Q294.5 120.5 305.75 121.5Q317.0 122.5 324.75 123.0Q332.5 123.5 332.5 123.0Q332.5 122.0 328.5 113.5Q324.5 105.0 319.0 94.0Q313.0 82.5 308.75 71.0Q304.5 59.5 304.5 55.0ZM533.5 171.5Q523.5 164.5 519.5 164.5Q514.0 164.5 514.0 178.5Q514.0 192.0 518.5 192.0Q522.5 192.0 532.0 186.0Q541.0 181.0 541.25 179.25Q541.5 177.5 533.5 171.5ZM533.5 251.5Q524.0 244.0 519.5 244.0Q514.0 244.0 514.0 257.5Q514.0 271.0 518.5 271.0Q522.0 271.0 532.0 265.5Q541.0 261.0 541.25 258.75Q541.5 256.5 533.5 251.5ZM638.0 186.0Q638.0 183.5 627.75 182.25Q617.5 181.0 603.0 181.0Q582.5 181.0 569.5 184.25Q556.5 187.5 541.0 196.5Q530.0 202.5 522.0 208.25Q514.0 214.0 514.0 216.0Q514.0 219.0 519.5 224.5Q525.0 230.0 533.0 235.5Q541.0 241.0 549.0 245.0Q557.0 249.0 561.5 249.0Q565.0 249.0 573.75 243.5Q582.5 238.0 593.5 229.75Q604.5 221.5 614.5 212.5Q624.5 203.5 631.25 196.25Q638.0 189.0 638.0 186.0ZM661.5 201.5Q664.0 192.0 665.25 185.25Q666.5 178.5 665.5 178.0Q663.5 178.0 654.5 186.5Q645.5 195.0 634.0 207.5Q621.5 220.5 613.5 230.5Q605.5 240.5 606.0 241.0Q606.5 241.5 615.0 242.75Q623.5 244.0 635.0 246.0Q649.5 249.0 654.5 249.0Q660.0 249.0 660.5 246.0Q661.0 243.0 659.5 236.5Q657.5 231.0 658.25 220.75Q659.0 210.5 661.5 201.5ZM779.0 199.0Q780.0 192.0 754.0 192.0Q743.5 192.0 736.0 192.75Q728.5 193.5 728.5 194.5Q728.5 195.5 733.0 204.0Q737.5 212.5 744.0 224.0L759.5 251.5L769.0 228.5Q773.0 219.5 776.0 210.75Q779.0 202.0 779.0 199.0ZM545.0 83.0Q536.5 79.0 529.75 76.25Q523.0 73.5 522.0 73.5Q521.0 73.5 520.0 80.25Q519.0 87.0 519.0 97.0Q519.0 105.5 520.25 111.5Q521.5 117.5 523.5 117.5Q526.0 116.5 532.25 113.5Q538.5 110.5 546.5 107.5Q553.5 104.0 559.0 100.75Q564.5 97.5 564.5 96.0Q564.5 94.5 558.75 90.75Q553.0 87.0 545.0 83.0ZM779.5 58.0Q779.5 57.5 773.5 57.0Q767.5 56.5 759.0 56.5Q743.5 56.5 742.25 58.0Q741.0 59.5 748.5 68.0Q756.5 76.0 759.5 76.0Q762.0 76.0 769.0 70.5Q773.5 65.5 776.5 62.25Q779.5 59.0 779.5 58.0ZM283.5 343.0Q272.0 342.0 260.75 340.0Q249.5 338.0 245.5 336.0Q239.0 333.5 237.5 334.25Q236.0 335.0 238.0 340.0Q239.0 343.5 242.0 355.25Q245.0 367.0 248.0 380.0Q250.5 393.5 254.5 403.25Q258.5 413.0 259.5 413.0Q262.0 413.0 265.75 408.25Q269.5 403.5 273.0 397.0Q276.0 390.5 282.75 382.25Q289.5 374.0 295.0 368.0Q301.0 362.0 305.75 356.75Q310.5 351.5 310.5 350.5Q310.5 349.0 302.5 346.75Q294.5 344.5 283.5 343.0ZM555.5 359.5 536.0 351.5Q528.5 348.5 518.0 343.0Q507.5 337.5 501.0 332.5L485.5 322.0V356.0Q485.5 370.0 486.5 380.25Q487.5 390.5 489.5 390.5Q491.0 390.5 501.25 386.0Q511.5 381.5 524.0 375.0ZM10.0 348.0Q10.0 315.0 11.75 301.5Q13.5 288.0 17.5 288.0Q20.5 288.0 24.25 292.0Q28.0 296.0 30.0 301.0Q33.0 306.0 40.25 313.0Q47.5 320.0 55.5 325.0Q64.5 329.5 73.5 332.0Q82.5 334.5 99.25 335.25Q116.0 336.0 147.5 336.0Q177.0 335.5 197.5 336.25Q218.0 337.0 216.5 339.5Q216.0 341.0 197.25 343.0Q178.5 345.0 153.5 346.0Q119.0 347.5 96.25 352.25Q73.5 357.0 58.75 366.0Q44.0 375.0 33.0 390.5Q28.0 397.0 22.75 402.0Q17.5 407.0 15.5 407.0Q13.5 407.0 11.75 389.75Q10.0 372.5 10.0 348.0ZM10.0 155.5Q10.0 96.0 18.0 96.0Q22.0 96.0 28.5 110.0Q31.0 116.0 40.25 123.5Q49.5 131.0 59.5 136.0Q70.5 141.5 80.0 144.0Q89.5 146.5 104.75 146.75Q120.0 147.0 148.0 146.0Q175.5 145.0 189.75 145.0Q204.0 145.0 210.75 146.75Q217.5 148.5 222.0 153.0Q229.0 160.0 228.75 162.5Q228.5 165.0 220.5 169.5Q204.0 178.0 197.75 199.0Q191.5 220.0 191.5 266.0Q191.5 291.0 190.0 306.75Q188.5 322.5 186.0 322.5Q183.5 322.5 181.75 308.5Q180.0 294.5 180.0 272.0Q180.0 244.0 177.75 226.5Q175.5 209.0 169.75 197.0Q164.0 185.0 152.5 173.5Q144.5 165.0 136.5 161.75Q128.5 158.5 115.5 158.5Q101.5 158.5 85.0 164.25Q68.5 170.0 54.0 179.0Q39.5 188.0 32.0 198.5Q26.5 205.0 21.75 210.0Q17.0 215.0 15.0 215.0Q13.0 215.0 11.5 197.5Q10.0 180.0 10.0 155.5ZM285.5 40.5Q295.0 24.5 299.5 17.25Q304.0 10.0 306.0 10.0Q308.0 10.0 309.0 19.5Q311.5 50.0 321.75 74.5Q332.0 99.0 346.5 112.0Q351.0 116.0 363.5 125.0Q376.0 134.0 392.75 145.5Q409.5 157.0 427.5 169.25Q445.5 181.5 461.25 191.75Q477.0 202.0 487.5 208.5Q498.0 215.0 499.5 215.0Q500.0 215.0 501.0 203.5Q502.0 192.0 503.25 172.5Q504.5 153.0 505.5 130.0Q506.5 106.5 508.0 87.25Q509.5 68.0 511.25 56.5Q513.0 45.0 514.0 45.0Q515.5 45.0 519.5 48.5Q523.5 52.0 528.5 57.0Q537.0 66.0 545.25 71.5Q553.5 77.0 566.0 80.0Q578.5 83.0 599.0 84.0Q619.5 85.0 652.0 85.0Q688.5 85.0 711.75 86.25Q735.0 87.5 737.0 90.0Q739.0 93.0 722.25 94.5Q705.5 96.0 672.5 96.0Q618.0 96.0 584.5 104.25Q551.0 112.5 529.5 130.5L517.0 141.5L532.5 155.5Q540.0 162.0 546.5 165.0Q553.0 168.0 565.25 169.0Q577.5 170.0 601.5 170.0Q621.0 170.0 632.25 169.75Q643.5 169.5 649.5 167.75Q655.5 166.0 659.5 162.25Q663.5 158.5 669.5 152.0Q676.0 144.0 682.25 134.5Q688.5 125.0 690.5 119.0L697.5 104.5L699.0 117.5Q700.0 123.0 699.0 129.25Q698.0 135.5 695.5 138.0Q693.0 140.5 688.25 152.5Q683.5 164.5 678.5 179.75Q673.5 195.0 670.0 207.75Q666.5 220.5 666.5 225.0Q666.5 227.5 669.5 232.75Q672.5 238.0 677.5 242.5Q681.5 247.0 685.25 252.0Q689.0 257.0 689.5 260.0Q690.5 262.0 700.25 269.0Q710.0 276.0 722.0 283.0L751.5 299.5V281.0Q751.5 273.0 747.25 260.25Q743.0 247.5 736.75 234.25Q730.5 221.0 723.5 210.5Q716.5 200.0 711.0 196.5Q696.5 187.0 704.75 184.0Q713.0 181.0 753.5 181.0Q793.5 181.0 806.0 185.25Q818.5 189.5 803.5 197.5Q796.5 201.0 788.75 213.75Q781.0 226.5 774.75 243.25Q768.5 260.0 765.5 277.0Q763.5 288.5 763.75 294.75Q764.0 301.0 768.25 306.0Q772.5 311.0 783.0 320.0Q794.5 329.5 798.75 336.0Q803.0 342.5 799.5 342.5Q795.0 342.5 784.0 333.5Q778.5 329.5 773.25 327.25Q768.0 325.0 766.0 326.5Q765.0 327.5 763.75 345.5Q762.5 363.5 762.5 386.5Q762.5 412.5 761.5 424.5Q760.5 436.5 758.5 436.5Q756.5 436.5 755.0 430.5Q753.5 424.5 752.75 416.25Q752.0 408.0 751.75 400.75Q751.5 393.5 751.5 391.5V356.0L677.0 357.0Q634.0 357.5 604.5 361.5Q575.0 365.5 551.75 374.5Q528.5 383.5 504.0 399.5L474.0 418.5V292.0L492.5 309.5Q504.5 321.0 515.25 328.25Q526.0 335.5 539.0 339.75Q552.0 344.0 569.75 346.25Q587.5 348.5 613.5 350.0Q631.0 350.0 650.25 350.25Q669.5 350.5 686.5 350.0Q703.5 349.5 713.5 348.5Q732.5 346.5 740.25 344.75Q748.0 343.0 749.75 339.25Q751.5 335.5 751.5 327.5Q751.5 320.0 748.5 315.0Q745.5 310.0 734.5 303.75Q723.5 297.5 699.0 286.0Q682.0 277.5 670.25 272.25Q658.5 267.0 649.5 264.5Q640.5 262.0 631.25 261.25Q622.0 260.5 609.0 260.5Q590.0 260.5 576.0 262.5Q562.0 264.5 550.25 269.5Q538.5 274.5 524.5 284.0Q515.0 290.5 510.0 290.5Q502.5 290.5 502.5 267.5Q502.5 248.5 495.5 250.0Q493.5 250.5 482.0 256.25Q470.5 262.0 453.0 270.75Q435.5 279.5 416.0 290.0Q392.5 302.5 377.0 311.75Q361.5 321.0 350.75 328.75Q340.0 336.5 330.75 345.5Q321.5 354.5 311.0 367.5Q297.5 383.0 284.75 401.0Q272.0 419.0 267.0 429.0Q257.5 451.5 251.5 451.5Q248.0 451.5 248.0 440.0Q248.0 434.5 243.75 414.25Q239.5 394.0 234.0 370.5Q228.5 347.0 225.0 330.0Q221.5 313.0 222.0 312.5Q223.0 311.5 230.25 314.25Q237.5 317.0 247.5 322.0Q256.5 327.0 264.75 330.25Q273.0 333.5 274.5 333.5Q277.0 333.5 278.0 321.25Q279.0 309.0 278.75 290.25Q278.5 271.5 277.5 252.0Q276.5 232.5 274.75 217.5Q273.0 202.5 270.5 197.5Q268.0 192.0 261.5 183.25Q255.0 174.5 249.5 168.0Q243.0 161.5 240.25 157.25Q237.5 153.0 240.5 152.5Q245.0 152.0 258.5 152.0Q272.0 152.0 287.25 152.5Q302.5 153.0 314.0 153.75Q325.5 154.5 326.0 155.5Q327.0 156.0 323.0 160.75Q319.0 165.5 313.5 171.0Q299.0 185.5 293.25 210.25Q287.5 235.0 287.5 281.0Q287.5 303.0 288.25 314.25Q289.0 325.5 291.0 329.5Q293.0 333.5 296.5 333.5Q300.0 333.5 316.0 326.5Q332.0 319.5 354.75 308.5Q377.5 297.5 402.25 284.75Q427.0 272.0 448.5 260.5Q470.0 249.0 483.5 240.75Q497.0 232.5 497.0 231.0Q497.0 230.0 487.75 223.25Q478.5 216.5 463.0 206.25Q447.5 196.0 429.0 184.0Q407.0 170.0 392.25 161.0Q377.5 152.0 366.75 147.0Q356.0 142.0 346.0 139.25Q336.0 136.5 323.0 135.0Q307.5 132.5 287.5 131.5Q267.5 130.5 255.5 132.0Q240.5 133.5 231.0 133.5Q225.0 133.5 225.0 132.5Q225.0 131.5 231.0 123.25Q237.0 115.0 245.0 104.5Q253.5 93.5 265.5 75.0Q277.5 56.5 285.5 40.5ZM708.0 53.0Q701.5 48.0 712.0 46.75Q722.5 45.5 761.5 45.5Q790.5 45.0 807.5 46.75Q824.5 48.5 824.5 51.0Q824.5 56.5 813.0 56.5Q808.0 56.5 799.0 62.0Q790.0 67.5 782.0 75.5Q773.0 84.5 768.75 90.75Q764.5 97.0 763.5 106.0Q762.5 115.0 762.5 132.5Q762.5 148.0 761.0 159.0Q759.5 170.0 757.0 170.0Q754.5 170.0 753.0 158.0Q751.5 146.0 751.5 127.5Q751.5 111.0 750.25 100.75Q749.0 90.5 744.75 83.25Q740.5 76.0 731.75 69.25Q723.0 62.5 708.0 53.0Z" fill="black" /></svg>