<svg xmlns="http://www.w3.org/2000/svg" width="582.5" height="375.5" viewBox="0 0 582.5 375.5"><path d="M199.0 281.5H182.5Q176.0 281.5 167.0 280.5Q158.0 279.5 152.0 277.5Q146.5 276.0 142.5 275.5Q138.5 275.0 138.5 276.0Q138.5 278.0 143.25 287.0Q148.0 296.0 154.5 307.0Q161.0 318.0 166.5 326.0Q172.0 334.0 173.5 334.0Q174.5 334.0 176.0 332.0Q177.5 330.0 177.5 326.5Q177.5 323.5 180.5 315.75Q183.5 308.0 188.0 300.0ZM50.0 197.5Q42.5 192.5 37.0 179.5L30.5 166.5L28.0 178.0Q27.0 182.5 25.5 193.25Q24.0 204.0 23.0 214.5L20.0 240.0L38.0 221.5Q48.5 209.5 51.0 204.75Q53.5 200.0 50.0 197.5ZM146.5 121.5Q146.5 116.5 136.0 116.5Q127.0 116.5 125.75 119.25Q124.5 122.0 131.0 133.5Q135.5 141.5 137.0 141.5Q139.0 141.5 141.0 137.25Q143.0 133.0 144.75 128.0Q146.5 123.0 146.5 121.5ZM173.5 145.5Q170.0 137.0 166.25 131.25Q162.5 125.5 160.0 125.5Q156.5 125.5 152.25 135.5Q148.0 145.5 145.5 158.75Q143.0 172.0 144.5 181.0Q145.0 187.5 145.75 202.5Q146.5 217.5 146.5 232.0Q146.5 251.0 148.0 259.5Q149.5 268.0 156.0 270.25Q162.5 272.5 176.5 273.0H187.0L185.0 220.0Q184.0 189.0 181.5 173.5Q179.0 158.0 173.5 145.5ZM233.5 223.0Q233.5 210.0 232.25 193.5Q231.0 177.0 227.0 161.25Q223.0 145.5 215.0 135.0L205.0 124.0L199.0 138.0Q196.5 144.0 195.0 149.75Q193.5 155.5 193.0 164.25Q192.5 173.0 192.75 188.0Q193.0 203.0 194.0 228.0L194.5 272.5L208.0 268.5Q220.0 265.0 225.25 261.25Q230.5 257.5 232.0 248.75Q233.5 240.0 233.5 223.0ZM197.5 84.0Q198.5 84.0 197.0 76.75Q195.5 69.5 193.0 58.5L188.0 34.0L141.5 81.0L169.0 82.5Q180.5 83.0 188.75 83.75Q197.0 84.5 197.5 84.0ZM194.5 121.5Q194.5 116.5 183.5 116.5Q174.5 116.5 173.5 119.25Q172.5 122.0 179.0 133.5Q183.5 141.5 185.0 141.5Q187.0 141.5 189.0 137.25Q191.0 133.0 192.75 128.0Q194.5 123.0 194.5 121.5ZM242.5 133.5Q245.5 128.0 244.25 126.75Q243.0 125.5 234.5 125.5Q225.0 125.5 223.75 127.0Q222.5 128.5 226.0 136.5Q229.5 144.5 233.0 144.5Q236.5 144.5 242.5 133.5ZM272.5 135.0Q267.5 131.0 263.25 128.25Q259.0 125.5 259.0 125.5Q258.0 125.5 255.5 129.25Q253.0 133.0 249.5 138.0Q245.5 145.0 243.5 153.0Q241.5 161.0 241.25 174.75Q241.0 188.5 241.0 214.0L242.5 247.5L286.0 223.5V184.0Q286.0 164.5 285.25 155.75Q284.5 147.0 281.75 143.25Q279.0 139.5 272.5 135.0ZM317.5 184.5Q317.0 180.5 313.25 174.75Q309.5 169.0 305.0 164.5L294.5 154.0V218.5L307.0 205.5Q321.0 193.0 317.5 184.5ZM327.5 34.5Q322.0 33.0 316.0 31.0Q310.0 29.0 307.0 28.0Q302.5 26.0 302.75 32.75Q303.0 39.5 309.5 67.5Q314.0 85.0 318.0 104.0Q322.0 123.0 323.0 132.0Q324.5 140.5 326.0 144.5Q327.5 148.5 328.0 145.0Q332.5 117.0 339.75 92.5Q347.0 68.0 353.5 56.5Q357.5 48.5 360.75 42.25Q364.0 36.0 364.0 35.5Q364.0 33.5 352.0 36.0Q347.0 37.0 339.75 36.75Q332.5 36.5 327.5 34.5ZM494.5 133.0Q500.0 124.5 503.75 118.0Q507.5 111.5 506.5 110.5Q505.0 110.5 497.0 116.25Q489.0 122.0 479.0 130.5Q468.0 139.5 455.0 149.0Q442.0 158.5 434.5 163.5Q426.5 168.5 421.25 172.75Q416.0 177.0 416.0 178.0Q416.0 179.0 423.5 181.0Q431.0 183.0 441.25 184.75Q451.5 186.5 460.0 187.5Q468.5 188.5 470.5 187.5Q473.0 187.0 475.0 181.5Q477.0 176.0 478.0 169.5Q479.0 162.5 483.75 151.75Q488.5 141.0 494.5 133.0ZM163.0 46.5Q200.0 10.0 205.5 10.0Q209.0 10.0 203.0 25.5Q198.5 37.5 201.0 53.75Q203.5 70.0 212.5 82.5Q216.5 88.0 226.5 95.5Q236.5 103.0 246.5 107.5Q256.5 113.0 265.5 118.75Q274.5 124.5 276.5 127.0Q283.0 134.0 288.5 129.0Q292.0 126.5 294.0 127.75Q296.0 129.0 298.0 135.0Q300.5 140.0 304.75 145.5Q309.0 151.0 312.5 154.0Q316.0 157.0 316.0 154.0Q316.0 149.5 314.25 137.5Q312.5 125.5 309.75 110.25Q307.0 95.0 304.0 80.25Q301.0 65.5 298.0 55.0Q290.0 23.5 293.5 17.75Q297.0 12.0 317.5 22.0Q331.0 28.5 343.0 28.5Q356.0 28.5 378.5 19.0Q380.0 18.5 381.0 18.25Q382.0 18.0 383.0 18.0Q392.0 18.0 371.0 46.0Q363.5 55.5 356.5 72.75Q349.5 90.0 344.0 111.0Q338.5 132.0 335.5 154.0Q333.5 169.5 334.75 173.25Q336.0 177.0 342.5 178.5Q348.5 180.0 357.0 180.0Q373.0 180.0 391.25 175.0Q409.5 170.0 421.0 162.0Q431.0 155.5 445.25 145.0Q459.5 134.5 475.0 122.5Q490.5 110.5 505.0 98.5Q519.5 86.5 530.5 77.0Q541.5 67.5 545.5 62.5Q551.0 56.5 555.75 52.75Q560.5 49.0 561.5 49.0Q562.0 49.0 562.0 49.0Q562.0 49.0 562.0 49.0Q563.5 50.5 560.5 57.5Q557.5 64.5 553.0 71.5Q548.5 78.5 545.0 80.5Q542.0 82.0 532.75 94.5Q523.5 107.0 512.0 123.0Q498.0 144.0 491.75 156.25Q485.5 168.5 485.5 176.5Q485.5 182.0 487.0 186.25Q488.5 190.5 490.0 190.5Q495.0 190.5 492.5 194.5Q486.0 205.5 512.5 223.5Q525.5 231.5 539.25 243.5Q553.0 255.5 562.75 266.0Q572.5 276.5 572.5 280.5Q572.5 282.0 571.5 282.0Q569.0 282.0 562.75 277.0Q556.5 272.0 548.0 263.5Q534.0 250.5 516.25 237.0Q498.5 223.5 481.75 212.75Q465.0 202.0 454.0 197.5Q443.0 193.0 426.25 191.0Q409.5 189.0 392.0 189.0Q370.0 189.0 353.0 192.0Q336.0 195.0 335.5 201.0Q335.5 203.0 333.75 208.0Q332.0 213.0 330.5 217.5Q328.5 223.0 326.75 242.75Q325.0 262.5 325.0 289.0Q325.0 346.5 320.5 346.5Q315.5 346.5 317.0 285.0Q317.0 259.0 316.0 240.25Q315.0 221.5 314.0 220.5Q310.0 220.5 300.5 229.0Q296.5 233.5 292.5 235.75Q288.5 238.0 287.0 237.0Q285.5 235.0 277.0 238.5Q268.5 242.0 259.5 247.5Q250.5 253.0 247.0 257.5Q244.5 260.0 241.5 262.0Q238.5 264.0 236.0 264.0Q233.0 264.0 224.5 272.0Q216.0 280.0 207.0 290.25Q198.0 300.5 194.0 307.5Q192.0 312.0 189.0 322.25Q186.0 332.5 183.5 342.0L179.0 365.5L147.5 312.0Q134.5 290.0 125.5 273.5Q116.5 257.0 116.5 255.0Q116.5 251.5 118.5 251.5Q122.0 251.5 130.0 259.0Q133.0 262.0 135.0 262.0Q137.5 262.0 138.0 256.25Q138.5 250.5 138.5 235.0V203.5H109.0Q86.5 203.5 72.25 208.0Q58.0 212.5 46.25 226.0Q34.5 239.5 18.5 267.0Q13.0 275.0 11.0 273.0Q10.0 272.0 10.75 258.0Q11.5 244.0 13.5 222.75Q15.5 201.5 18.0 178.0Q20.5 154.5 23.0 135.0Q26.0 117.0 30.0 117.0Q34.0 117.0 34.0 133.0Q34.0 140.0 36.75 150.0Q39.5 160.0 43.75 170.0Q48.0 180.0 52.5 187.25Q57.0 194.5 60.5 196.0Q63.0 196.5 74.5 196.75Q86.0 197.0 100.0 196.0L134.0 194.5V178.0Q134.0 169.0 130.5 157.5Q127.0 146.0 121.75 136.0Q116.5 126.0 110.5 121.5Q103.0 116.5 103.0 112.0Q103.0 110.0 118.25 109.25Q133.5 108.5 153.5 108.5Q168.5 108.5 183.0 109.0Q197.5 109.5 207.5 110.25Q217.5 111.0 218.5 112.5Q221.0 116.5 227.0 116.5Q233.5 116.5 233.5 112.5Q233.5 110.0 226.0 106.5Q218.5 103.0 207.75 99.5Q197.0 96.0 185.75 93.5Q174.5 91.0 167.0 91.0Q159.5 91.0 149.75 92.0Q140.0 93.0 134.5 94.5Q128.5 96.5 124.5 96.5Q117.5 96.5 126.5 85.25Q135.5 74.0 163.0 46.5Z" fill="black" /></svg>