<svg xmlns="http://www.w3.org/2000/svg" width="655.0" height="384.5" viewBox="0 0 655.0 384.5"><path d="M61.0 262.0Q59.0 260.0 52.5 255.75Q46.0 251.5 38.5 247.0L20.5 236.5V260.5Q20.5 270.5 21.5 277.5Q22.5 284.5 23.5 284.5Q24.5 284.5 28.75 281.5Q33.0 278.5 38.0 274.5Q43.0 270.5 48.75 268.0Q54.5 265.5 57.5 265.5Q65.5 265.5 61.0 262.0ZM224.5 322.0 237.5 315.0 202.0 295.5 197.0 307.5Q194.0 312.5 192.5 320.0Q191.0 327.5 191.0 334.0V347.5L202.0 337.5Q206.0 333.5 212.75 328.75Q219.5 324.0 224.5 322.0ZM45.5 155.5 62.0 144.0 25.0 124.5V145.5Q25.0 154.0 26.0 160.0Q27.0 166.0 27.5 166.0Q28.5 166.0 33.75 163.0Q39.0 160.0 45.5 155.5ZM229.0 197.5 218.5 186.0Q214.0 181.5 210.75 178.5Q207.5 175.5 206.5 175.5Q206.0 175.5 205.5 182.0Q205.0 188.5 205.0 198.0V220.0ZM278.5 213.0Q273.5 213.0 267.25 212.0Q261.0 211.0 258.5 209.5Q252.5 207.0 246.5 207.0Q236.5 207.0 227.0 213.25Q217.5 219.5 212.5 231.0Q209.0 238.5 205.75 245.75Q202.5 253.0 200.5 256.5Q195.5 265.5 203.5 277.0Q211.5 288.5 231.5 300.0Q239.5 305.5 245.75 308.5Q252.0 311.5 259.75 313.0Q267.5 314.5 279.5 315.25Q291.5 316.0 311.0 316.5L365.5 318.0V291.0Q365.5 278.5 364.75 272.25Q364.0 266.0 360.5 261.25Q357.0 256.5 349.0 249.0Q339.0 239.0 325.75 231.0Q312.5 223.0 299.75 218.0Q287.0 213.0 278.5 213.0ZM204.5 75.0Q205.0 70.0 201.5 68.5Q198.0 67.0 186.5 67.0Q172.0 67.0 169.0 70.5Q166.0 74.0 172.0 85.0Q174.0 87.5 177.0 94.25Q180.0 101.0 182.0 106.5L187.0 121.0L195.5 102.0Q199.5 94.0 202.0 86.25Q204.5 78.5 204.5 75.0ZM316.0 191.5Q317.0 188.5 317.75 185.75Q318.5 183.0 317.5 182.5Q317.5 182.5 317.25 182.25Q317.0 182.0 317.0 182.0Q315.5 182.0 311.25 185.0Q307.0 188.0 303.25 191.5Q299.5 195.0 299.5 196.5Q299.5 199.5 303.5 199.5Q306.5 199.5 310.5 197.25Q314.5 195.0 316.0 191.5ZM365.5 199.0Q365.5 180.0 364.25 165.75Q363.0 151.5 361.0 151.5Q359.5 151.5 353.25 157.75Q347.0 164.0 340.0 172.5Q327.5 188.0 324.25 198.25Q321.0 208.5 329.0 208.5Q330.5 208.5 331.0 210.0Q331.5 211.5 330.5 214.0Q329.5 215.5 333.0 220.75Q336.5 226.0 342.25 231.75Q348.0 237.5 353.75 242.0Q359.5 246.5 362.5 247.0Q364.5 247.0 365.0 232.75Q365.5 218.5 365.5 199.0ZM418.0 244.5Q411.5 242.0 404.25 239.0Q397.0 236.0 393.5 235.0Q392.0 234.5 391.0 234.25Q390.0 234.0 389.0 234.0Q386.5 234.0 385.75 237.5Q385.0 241.0 385.0 250.5V269.5L400.0 263.5Q406.5 261.0 413.75 258.25Q421.0 255.5 425.0 254.5Q432.0 251.5 430.5 250.0Q429.0 248.5 418.0 244.5ZM592.5 240.0 590.5 189.0 587.5 146.5 527.5 148.0Q483.5 149.0 447.0 155.75Q410.5 162.5 389.0 173.5Q381.0 177.0 378.25 182.0Q375.5 187.0 375.5 196.0Q376.0 208.5 385.5 217.5Q395.0 226.5 418.0 235.0Q425.0 237.0 442.5 238.75Q460.0 240.5 482.5 241.25Q505.0 242.0 526.5 242.0Q542.5 242.0 556.25 241.5Q570.0 241.0 578.5 240.0ZM231.5 41.5Q220.0 34.5 218.0 34.5Q215.0 34.5 215.0 45.0Q215.0 52.5 217.25 54.75Q219.5 57.0 226.0 57.0Q238.5 57.0 240.0 52.5Q241.5 48.0 231.5 41.5ZM349.0 86.5 341.5 62.5H242.0L223.0 82.0Q216.0 90.0 209.25 101.0Q202.5 112.0 200.0 119.5Q196.5 132.0 198.0 137.75Q199.5 143.5 206.0 153.0Q217.5 170.0 225.75 179.0Q234.0 188.0 242.0 191.25Q250.0 194.5 260.5 194.5Q269.5 194.5 276.75 192.5Q284.0 190.5 294.25 184.25Q304.5 178.0 322.0 166.0Q338.5 154.0 347.0 147.25Q355.5 140.5 357.75 134.25Q360.0 128.0 357.25 117.25Q354.5 106.5 349.0 86.5ZM394.0 28.5H374.0Q365.0 28.5 356.5 27.5Q348.0 26.5 344.0 25.5Q342.5 25.0 341.5 24.5Q340.5 24.0 339.5 24.0Q337.0 24.0 339.75 32.75Q342.5 41.5 353.0 71.5Q357.5 84.5 359.75 90.25Q362.0 96.0 363.5 96.0Q365.5 96.0 367.0 90.0Q369.0 85.5 373.75 74.5Q378.5 63.5 383.0 53.5ZM398.0 137.5Q390.0 134.0 383.75 131.25Q377.5 128.5 377.0 128.5Q376.5 128.5 376.0 134.25Q375.5 140.0 375.5 148.0Q375.5 156.5 376.0 160.5Q376.5 164.5 380.5 164.5Q384.0 164.5 391.0 162.0Q398.0 159.5 410.5 154.5Q418.5 152.0 422.25 149.75Q426.0 147.5 423.5 147.0Q421.5 147.0 413.75 144.0Q406.0 141.0 398.0 137.5ZM621.5 46.0Q621.5 45.0 612.25 44.0Q603.0 43.0 590.0 43.0Q573.0 43.0 566.25 44.25Q559.5 45.5 561.5 49.0Q563.0 51.0 566.75 60.75Q570.5 70.5 575.0 82.0Q579.5 93.0 583.75 101.25Q588.0 109.5 589.0 109.5Q590.0 109.5 593.0 104.25Q596.0 99.0 598.0 91.5Q600.5 84.5 604.75 75.5Q609.0 66.5 612.5 61.0Q616.5 55.5 619.0 51.25Q621.5 47.0 621.5 46.0ZM205.0 58.5V34.0Q205.0 24.0 205.75 17.0Q206.5 10.0 207.5 10.0Q208.5 10.0 212.5 13.25Q216.5 16.5 221.0 21.0Q235.0 37.5 255.0 45.0Q275.0 52.5 302.0 52.5Q323.5 52.5 328.5 51.25Q333.5 50.0 331.0 44.5Q326.0 27.0 325.75 21.75Q325.5 16.5 340.5 16.5Q344.5 16.5 355.5 16.75Q366.5 17.0 379.5 17.5Q392.5 18.0 402.0 18.5Q411.5 19.0 412.0 19.5Q412.0 19.5 407.75 27.25Q403.5 35.0 396.5 46.0Q389.0 59.0 383.75 73.0Q378.5 87.0 376.75 98.0Q375.0 109.0 377.5 114.0Q386.0 126.5 417.25 133.5Q448.5 140.5 494.5 140.5Q503.0 140.5 511.75 140.25Q520.5 140.0 530.0 139.5L586.0 136.5L583.5 125.0L576.5 106.0Q571.5 93.0 565.5 79.0Q559.5 65.0 555.5 58.0Q552.0 50.5 549.75 44.25Q547.5 38.0 548.0 36.0Q548.0 34.5 562.5 34.0Q577.0 33.5 594.5 33.5Q612.0 33.5 627.25 34.0Q642.5 34.5 644.0 36.0Q645.0 36.0 641.75 40.25Q638.5 44.5 634.0 49.0Q624.5 58.5 617.0 73.25Q609.5 88.0 605.5 102.5Q601.5 117.0 601.25 126.75Q601.0 136.5 606.0 136.5Q606.0 136.5 606.25 136.5Q606.5 136.5 606.5 136.5Q612.0 138.0 612.5 142.25Q613.0 146.5 606.5 146.5Q600.0 146.5 601.25 157.5Q602.5 168.5 602.5 195.5V240.0H607.0Q615.5 242.0 616.5 246.75Q617.5 251.5 609.5 251.5Q605.5 251.5 604.0 258.25Q602.5 265.0 602.5 286.5Q602.5 302.0 601.25 312.0Q600.0 322.0 598.0 322.0Q596.0 322.0 594.5 312.0Q593.0 302.0 593.0 286.5V251.5H533.5Q503.0 251.5 480.0 253.5Q457.0 255.5 437.25 260.5Q417.5 265.5 396.5 274.5L375.5 283.5V313.0Q375.5 324.5 374.5 333.0Q373.5 341.5 371.0 341.5Q369.0 341.5 367.25 339.0Q365.5 336.5 365.5 334.0Q365.5 331.0 360.5 329.5Q355.5 328.0 341.0 327.5Q326.5 327.0 297.5 327.0H229.0L212.5 341.5Q206.0 347.0 200.0 354.25Q194.0 361.5 193.0 365.5Q190.0 374.5 187.5 374.5Q181.5 374.5 180.5 323.5L179.0 272.5L129.5 271.0Q100.0 270.0 81.75 272.0Q63.5 274.0 52.0 279.75Q40.5 285.5 30.5 296.5Q21.0 308.5 15.5 308.5Q14.0 308.5 14.0 307.0Q12.5 303.0 11.75 293.0Q11.0 283.0 10.5 270.25Q10.0 257.5 10.0 245.75Q10.0 234.0 10.75 226.25Q11.5 218.5 12.5 218.5Q14.0 218.5 19.75 222.0Q25.5 225.5 32.0 231.0Q46.5 243.0 59.75 249.25Q73.0 255.5 91.25 258.0Q109.5 260.5 138.5 260.5H192.5L189.5 229.0Q188.5 215.5 187.5 200.0Q186.5 184.5 186.5 176.5V157.0H57.5L38.0 175.5Q30.5 183.0 25.0 188.25Q19.5 193.5 18.5 193.5Q18.0 193.0 17.0 179.75Q16.0 166.5 15.5 148.0Q14.5 125.5 15.25 115.25Q16.0 105.0 20.0 105.0Q24.0 105.0 32.5 115.0Q36.5 118.5 46.25 125.0Q56.0 131.5 65.5 136.0Q75.5 140.5 84.0 143.0Q92.5 145.5 104.5 146.25Q116.5 147.0 136.0 147.0H182.5L179.5 131.5Q178.0 126.0 173.0 112.5Q168.0 99.0 162.5 86.5Q156.0 74.0 152.0 64.75Q148.0 55.5 148.0 55.0Q148.0 54.0 156.5 54.25Q165.0 54.5 176.5 55.5Z" fill="black" /></svg>