<svg xmlns="http://www.w3.org/2000/svg" width="776.0" height="466.5" viewBox="0 0 776.0 466.5"><path d="M58.5 187.0Q49.0 184.0 42.0 181.5Q35.0 179.0 35.0 179.0Q34.0 179.0 33.75 189.75Q33.5 200.5 33.5 215.5V251.5L62.5 231.5Q74.0 224.0 86.5 217.0Q99.0 210.0 105.0 209.0Q119.0 206.0 117.5 200.75Q116.0 195.5 100.5 195.5Q92.5 195.5 80.25 193.25Q68.0 191.0 58.5 187.0ZM234.5 230.5 246.0 208.5 222.0 206.5Q211.0 205.5 204.0 206.25Q197.0 207.0 197.0 208.5Q197.0 211.0 200.0 218.0Q203.0 225.0 207.0 233.0Q211.0 241.0 214.5 246.75Q218.0 252.5 219.0 252.5Q220.5 252.5 225.0 246.0Q229.5 239.5 234.5 230.5ZM413.5 252.5Q412.5 248.0 410.5 244.5Q408.5 241.0 406.5 241.0Q405.0 241.0 401.0 244.5Q397.0 248.0 392.0 252.5Q384.5 260.5 386.0 261.75Q387.5 263.0 400.0 263.0Q410.0 263.0 412.75 261.0Q415.5 259.0 413.5 252.5ZM446.5 218.0Q446.5 210.5 443.25 204.75Q440.0 199.0 436.0 199.0Q433.5 199.0 432.0 201.5Q431.0 204.5 432.25 209.0Q433.5 213.5 437.0 217.5Q442.5 223.5 444.5 223.5Q446.5 223.5 446.5 218.0ZM548.0 188.5Q548.0 187.0 542.5 186.0Q537.0 185.0 528.5 185.0H509.5L528.0 230.5L537.0 212.0Q541.5 204.0 544.75 197.0Q548.0 190.0 548.0 188.5ZM253.5 78.5Q253.5 76.0 252.75 73.75Q252.0 71.5 249.5 72.5Q247.5 72.5 241.0 78.25Q234.5 84.0 226.0 92.25Q217.5 100.5 209.25 109.0Q201.0 117.5 196.0 123.5Q191.0 129.5 191.5 130.5Q193.0 131.0 206.25 132.75Q219.5 134.5 238.0 136.5L280.0 140.5L267.0 113.0Q261.5 102.0 257.5 92.0Q253.5 82.0 253.5 78.5ZM520.5 102.0Q512.5 93.5 503.75 83.0Q495.0 72.5 492.0 68.0Q489.5 64.0 487.5 61.75Q485.5 59.5 483.0 59.5Q480.5 59.5 472.0 67.5Q463.5 75.5 453.5 86.25Q443.5 97.0 436.25 105.25Q429.0 113.5 429.0 114.0Q429.0 115.5 436.75 116.0Q444.5 116.5 454.5 116.5Q464.5 116.5 480.5 118.5Q496.5 120.5 508.5 123.0Q520.5 125.5 530.0 126.25Q539.5 127.0 540.5 126.5Q541.0 125.5 535.0 118.25Q529.0 111.0 520.5 102.0ZM264.0 340.5Q274.5 329.5 279.5 322.25Q284.5 315.0 282.0 315.0Q278.0 315.0 266.5 318.0Q255.0 321.0 240.0 325.0Q225.0 329.0 211.0 333.5Q197.0 338.0 187.25 341.0Q177.5 344.0 177.0 345.0Q175.0 346.0 179.25 352.75Q183.5 359.5 190.0 367.5Q197.5 375.5 203.75 385.25Q210.0 395.0 211.5 400.0Q214.0 407.5 215.5 407.5Q218.0 407.5 227.5 389.5Q233.0 380.0 243.75 365.25Q254.5 350.5 264.0 340.5ZM511.5 357.5Q519.5 351.0 521.5 348.0Q523.5 345.0 517.5 345.0Q509.0 345.0 479.5 351.5Q467.5 354.5 452.0 356.75Q436.5 359.0 428.0 359.0Q410.5 360.0 407.75 364.0Q405.0 368.0 417.0 379.0Q422.0 383.0 427.25 391.0Q432.5 399.0 434.5 406.0L441.5 422.0L468.0 397.5Q479.5 386.5 492.25 375.25Q505.0 364.0 511.5 357.5ZM477.0 29.0Q481.0 10.0 486.0 10.0Q492.0 10.0 492.0 29.0Q492.0 38.5 496.75 49.5Q501.5 60.5 514.0 77.0Q527.5 94.0 541.5 106.25Q555.5 118.5 576.75 130.0Q598.0 141.5 633.0 156.5Q659.0 168.5 683.25 180.75Q707.5 193.0 726.5 203.5Q745.5 214.0 755.75 221.25Q766.0 228.5 763.5 230.5Q762.0 232.0 743.75 241.0Q725.5 250.0 700.5 261.0Q670.5 274.0 648.0 284.75Q625.5 295.5 606.75 306.75Q588.0 318.0 569.0 331.0Q550.0 344.0 527.0 361.5Q503.0 379.5 485.0 396.75Q467.0 414.0 456.75 427.75Q446.5 441.5 446.5 449.5Q446.5 452.5 444.75 454.5Q443.0 456.5 441.0 456.5Q438.0 456.5 436.25 451.75Q434.5 447.0 434.5 440.0Q434.5 431.0 429.5 419.25Q424.5 407.5 416.75 396.0Q409.0 384.5 399.75 375.5Q390.5 366.5 382.0 363.0Q365.5 356.0 359.5 350.0Q353.5 344.0 362.0 344.0Q363.5 344.0 365.75 344.25Q368.0 344.5 370.5 345.0Q377.5 347.0 386.25 347.75Q395.0 348.5 405.5 348.5Q424.5 348.5 447.0 345.75Q469.5 343.0 489.5 338.5L528.0 328.0L529.5 301.5Q531.0 284.5 529.0 278.75Q527.0 273.0 519.0 270.0Q513.5 267.5 503.0 261.5Q492.5 255.5 483.0 250.0Q472.0 243.0 459.5 239.25Q447.0 235.5 438.0 235.5Q431.5 235.5 427.5 237.25Q423.5 239.0 423.5 243.0Q423.5 251.0 432.5 260.0Q441.5 269.0 468.0 287.0Q477.5 293.5 484.75 300.25Q492.0 307.0 492.0 310.0Q492.0 312.0 490.0 312.0Q487.0 312.0 479.0 306.5Q457.5 291.0 434.75 283.0Q412.0 275.0 388.5 275.0Q377.0 275.0 369.5 275.75Q362.0 276.5 355.0 279.5Q348.0 282.5 339.0 289.5Q330.0 296.5 315.0 309.0Q304.0 317.5 292.25 328.0Q280.5 338.5 271.25 347.75Q262.0 357.0 258.0 362.5Q249.5 373.0 241.75 388.75Q234.0 404.5 229.75 418.0Q225.5 431.5 227.5 436.5Q229.0 439.0 228.0 443.0Q227.0 447.0 226.0 450.0Q224.0 452.5 218.75 444.75Q213.5 437.0 206.0 420.0Q200.5 405.0 190.75 389.75Q181.0 374.5 173.5 367.5Q159.5 354.5 157.5 343.0Q155.5 331.5 167.5 331.5Q171.5 331.5 181.0 329.25Q190.5 327.0 199.0 325.0Q212.5 322.0 216.25 317.75Q220.0 313.5 220.0 302.5Q220.0 295.0 215.5 281.25Q211.0 267.5 204.25 252.25Q197.5 237.0 190.5 224.75Q183.5 212.5 178.5 208.5Q173.5 203.5 166.0 203.5Q158.0 203.5 137.0 210.0Q115.5 216.0 101.25 222.0Q87.0 228.0 75.25 236.0Q63.5 244.0 49.5 256.5Q39.5 266.0 31.75 277.0Q24.0 288.0 21.5 299.0Q16.5 318.0 13.0 318.0Q10.0 318.0 10.0 306.0Q10.0 294.0 14.0 275.0Q27.5 208.5 20.0 168.5Q15.0 151.0 21.0 151.0Q26.5 151.0 36.0 162.0Q44.0 170.5 59.5 176.0Q75.0 181.5 102.0 184.0Q129.0 186.5 171.0 187.0Q192.5 187.5 210.75 188.5Q229.0 189.5 240.5 190.25Q252.0 191.0 252.5 192.5Q253.5 193.5 258.75 192.75Q264.0 192.0 269.0 189.0Q275.5 185.5 280.0 185.5Q284.0 185.5 288.5 189.0Q292.5 192.5 290.5 194.75Q288.5 197.0 280.0 199.0Q268.5 202.0 258.0 214.25Q247.5 226.5 240.75 244.25Q234.0 262.0 233.0 281.5Q232.0 298.5 232.5 306.25Q233.0 314.0 241.0 314.0Q246.5 314.0 257.25 310.0Q268.0 306.0 285.5 299.5Q301.0 294.0 317.25 285.5Q333.5 277.0 347.5 267.75Q361.5 258.5 370.0 250.5Q378.5 242.5 378.5 238.0Q378.5 235.5 382.0 230.75Q385.5 226.0 391.0 222.5Q400.0 217.0 398.25 213.5Q396.5 210.0 377.5 197.5Q367.0 190.5 353.0 181.75Q339.0 173.0 329.0 168.5Q315.0 161.5 293.25 156.25Q271.5 151.0 247.75 148.0Q224.0 145.0 203.0 145.0Q175.5 145.0 160.0 150.5Q151.5 154.0 145.5 154.0Q140.5 154.0 140.5 151.25Q140.5 148.5 148.0 145.0Q158.0 139.0 172.0 127.75Q186.0 116.5 200.25 102.5Q214.5 88.5 226.75 74.75Q239.0 61.0 246.0 51.0Q264.0 23.5 272.5 23.5Q278.5 23.5 269.0 41.5Q262.5 54.0 264.0 70.0Q265.5 86.0 273.75 102.25Q282.0 118.5 295.75 132.25Q309.5 146.0 327.0 154.0Q335.5 157.5 350.5 166.75Q365.5 176.0 379.5 185.5L411.0 206.5L432.0 185.0Q451.0 162.0 458.0 162.0Q463.0 162.0 457.0 176.0Q449.0 193.0 456.75 207.25Q464.5 221.5 492.0 239.5Q505.0 249.0 515.0 254.5Q525.0 260.0 525.0 258.0Q525.0 254.0 520.75 243.5Q516.5 233.0 510.25 220.5Q504.0 208.0 498.25 198.25Q492.5 188.5 489.5 185.5Q486.0 182.0 482.75 179.0Q479.5 176.0 479.5 174.0Q479.5 173.0 495.5 171.5Q511.5 170.0 532.0 170.0H584.5L566.5 188.5Q559.5 196.5 552.5 208.25Q545.5 220.0 543.0 228.5Q541.0 236.5 540.25 251.75Q539.5 267.0 540.5 283.0Q541.5 299.0 543.25 310.0Q545.0 321.0 548.0 321.0Q549.0 321.0 563.0 314.5Q577.0 308.0 600.0 296.75Q623.0 285.5 650.0 272.5L747.5 225.5L686.0 194.5Q659.0 181.0 638.75 172.0Q618.5 163.0 599.75 156.75Q581.0 150.5 559.0 145.25Q537.0 140.0 506.0 134.0Q483.5 129.0 467.25 126.75Q451.0 124.5 437.5 124.5Q426.0 124.5 415.75 126.25Q405.5 128.0 394.0 131.0Q389.5 132.5 387.0 132.5Q380.0 132.5 386.5 125.25Q393.0 118.0 409.0 109.0Q425.0 99.0 439.75 85.0Q454.5 71.0 464.75 56.0Q475.0 41.0 477.0 29.0Z" fill="black" /></svg>