<svg xmlns="http://www.w3.org/2000/svg" width="625.5" height="386.5" viewBox="0 0 625.5 386.5"><path d="M81.5 319.0Q65.0 315.0 51.5 311.75Q38.0 308.5 35.5 308.0Q30.5 308.0 29.0 330.0Q28.5 339.5 28.0 347.0Q27.5 354.5 28.0 355.5Q29.0 356.0 44.25 353.75Q59.5 351.5 80.5 347.5Q101.0 343.5 120.75 340.5Q140.5 337.5 147.0 337.5Q158.5 337.0 158.0 336.25Q157.5 335.5 142.5 332.5Q134.0 331.0 116.25 327.0Q98.5 323.0 81.5 319.0ZM71.5 157.5 79.0 139.5H44.0L51.5 157.5Q54.5 165.0 57.5 170.25Q60.5 175.5 61.5 175.5Q62.5 175.5 65.25 170.25Q68.0 165.0 71.5 157.5ZM115.5 264.0Q115.5 234.5 112.25 208.0Q109.0 181.5 96.0 155.0L89.5 143.0L81.0 155.5Q77.5 161.0 75.75 169.0Q74.0 177.0 73.0 193.25Q72.0 209.5 71.5 239.5L70.0 309.5L115.5 318.5ZM133.5 141.0Q133.5 140.0 128.75 139.75Q124.0 139.5 117.5 139.5Q111.0 139.5 106.5 140.0Q102.0 140.5 102.0 141.5Q102.0 142.0 104.0 147.75Q106.0 153.5 109.0 160.5L116.5 177.5L125.0 160.0Q128.5 153.0 131.0 147.25Q133.5 141.5 133.5 141.0ZM321.5 268.5Q321.5 268.5 319.0 262.75Q316.5 257.0 312.5 249.0L302.5 230.5L269.0 259.5L295.0 264.5Q304.5 266.0 311.75 267.25Q319.0 268.5 321.0 268.5Q321.5 268.5 321.5 268.5Q321.5 268.5 321.5 268.5ZM435.5 258.0Q435.5 255.5 429.0 247.75Q422.5 240.0 414.0 233.0Q405.5 226.0 399.5 226.0Q391.5 226.0 381.5 236.5L371.0 248.0H382.5Q387.0 248.0 396.5 249.75Q406.0 251.5 414.5 254.0Q423.0 257.0 429.25 257.75Q435.5 258.5 435.5 258.0ZM120.0 54.5Q110.0 50.5 102.25 47.75Q94.5 45.0 94.0 45.0Q94.0 45.0 93.25 52.75Q92.5 60.5 92.0 71.0Q91.5 81.5 91.0 89.5Q90.5 97.5 91.0 98.0Q91.0 98.0 91.25 98.0Q91.5 98.0 92.0 98.0Q94.5 98.0 105.0 96.0Q115.5 94.0 129.5 90.5Q145.0 86.5 161.5 83.0Q178.0 79.5 185.5 78.5L203.5 75.0L174.0 70.0Q162.0 67.5 146.0 63.0Q130.0 58.5 120.0 54.5ZM329.5 175.0Q330.0 174.0 327.5 168.25Q325.0 162.5 321.0 154.5L311.0 135.0L281.5 166.0L305.0 171.0Q313.5 172.5 320.25 173.75Q327.0 175.0 329.0 175.0Q329.5 175.0 329.5 175.0Q329.5 175.0 329.5 175.0ZM426.5 139.0Q424.5 134.0 422.0 130.25Q419.5 126.5 418.0 126.5Q417.0 126.5 411.75 131.75Q406.5 137.0 400.0 144.5Q389.0 157.5 388.5 159.75Q388.0 162.0 396.0 162.0Q400.5 162.0 410.0 164.0Q419.5 166.0 428.0 168.5Q441.0 172.5 445.5 172.5Q454.0 172.5 440.5 160.5Q437.0 157.0 432.75 150.75Q428.5 144.5 426.5 139.0ZM588.5 28.5Q588.5 27.0 577.5 25.75Q566.5 24.5 550.5 24.5Q528.5 24.0 520.25 25.5Q512.0 27.0 514.75 34.5Q517.5 42.0 528.5 59.5Q532.5 66.5 535.75 73.75Q539.0 81.0 539.0 84.0Q539.5 87.5 541.5 93.75Q543.5 100.0 545.5 106.0L551.5 119.5L555.0 106.0Q559.0 89.5 566.0 71.75Q573.0 54.0 580.0 44.5Q583.5 39.5 586.0 34.75Q588.5 30.0 588.5 28.5ZM494.0 11.0Q494.0 10.0 497.75 10.5Q501.5 11.0 506.5 12.0Q512.0 13.5 529.75 14.5Q547.5 15.5 567.5 15.5Q587.5 15.0 601.5 15.25Q615.5 15.5 615.5 16.5Q615.5 17.5 612.5 20.5Q609.5 23.5 605.5 27.0Q601.0 30.5 593.5 41.25Q586.0 52.0 579.0 64.0L564.0 92.5L562.5 206.5Q562.0 265.5 562.75 294.5Q563.5 323.5 566.0 326.5Q571.0 332.5 566.0 335.5Q564.5 336.5 563.0 343.0Q561.5 349.5 561.0 357.5L560.5 376.5L556.0 356.0L550.5 335.5L383.5 336.0Q331.5 336.0 292.25 336.75Q253.0 337.5 222.5 339.0Q192.0 340.5 166.0 343.25Q140.0 346.0 114.0 350.25Q88.0 354.5 57.5 361.0Q31.0 366.5 20.5 368.25Q10.0 370.0 10.0 367.5Q10.0 365.0 14.5 358.5Q18.5 352.5 19.75 343.75Q21.0 335.0 20.0 320.0Q19.5 302.5 20.5 298.0Q21.5 293.5 25.5 294.5Q28.0 295.0 34.5 297.25Q41.0 299.5 47.0 301.0L61.5 306.0V262.5Q61.5 228.5 55.0 198.0Q48.5 167.5 37.0 145.0Q34.0 139.0 32.75 134.75Q31.5 130.5 33.0 130.0Q37.5 129.5 50.75 129.75Q64.0 130.0 80.5 130.25Q97.0 130.5 113.0 131.0Q129.0 131.5 139.5 132.0Q150.0 132.5 150.5 133.0Q151.5 134.0 150.0 137.0Q148.5 140.0 145.5 143.5Q137.0 152.5 132.5 164.5Q128.0 176.5 126.25 196.75Q124.5 217.0 124.5 251.5V319.0L138.0 322.0Q143.5 323.0 166.25 323.75Q189.0 324.5 222.75 325.25Q256.5 326.0 295.5 326.75Q334.5 327.5 373.5 327.75Q412.5 328.0 445.5 328.0Q482.5 328.0 506.0 327.5Q529.5 327.0 528.5 326.0Q527.5 323.5 512.25 314.0Q497.0 304.5 476.5 293.5Q413.5 257.5 379.5 257.5Q371.0 257.5 363.5 260.0Q355.5 263.0 351.5 263.0Q346.5 263.0 350.0 257.0Q353.5 251.0 366.0 238.5L387.0 217.0L358.0 201.0Q316.0 178.0 288.0 178.0Q277.5 178.0 267.0 182.0Q260.5 184.5 255.0 185.75Q249.5 187.0 249.0 185.5Q248.0 184.5 256.75 175.0Q265.5 165.5 278.0 153.5Q291.0 142.0 300.0 131.75Q309.0 121.5 309.0 119.5Q309.0 117.0 312.0 113.5Q315.0 110.0 318.5 108.0Q324.0 105.5 325.75 105.75Q327.5 106.0 327.5 110.0Q327.5 116.0 323.0 119.5Q319.0 121.5 323.25 136.25Q327.5 151.0 337.0 165.5Q340.5 170.5 348.5 177.75Q356.5 185.0 365.75 191.75Q375.0 198.5 383.25 203.0Q391.5 207.5 395.0 207.5Q397.0 207.5 398.25 205.0Q399.5 202.5 399.5 199.0Q399.5 192.5 404.25 186.25Q409.0 180.0 414.0 180.0Q415.5 180.0 415.75 183.25Q416.0 186.5 414.5 191.0Q411.5 204.5 422.5 223.5Q433.5 242.5 455.0 262.0Q476.5 281.5 504.0 297.0Q518.5 305.0 528.5 312.0Q538.5 319.0 537.5 321.5Q537.5 326.5 543.5 326.5Q547.5 326.5 549.25 317.75Q551.0 309.0 551.5 282.5Q552.0 264.5 551.5 251.75Q551.0 239.0 549.0 239.0Q547.5 239.0 531.0 230.5Q514.5 222.0 493.0 209.5Q459.5 190.0 435.5 181.0Q411.5 172.0 394.0 172.0Q384.5 172.0 376.0 175.0Q370.5 177.0 365.5 177.75Q360.5 178.5 359.5 178.0Q358.5 177.0 365.25 168.75Q372.0 160.5 382.5 149.5Q392.5 139.0 401.75 127.5Q411.0 116.0 413.5 111.0Q420.5 95.0 427.0 95.0Q430.5 95.0 428.5 105.0Q425.0 119.0 436.5 138.75Q448.0 158.5 470.25 178.25Q492.5 198.0 521.0 213.5L554.0 231.0L551.5 186.5Q550.0 164.5 545.5 141.25Q541.0 118.0 535.25 100.75Q529.5 83.5 524.0 80.0Q522.5 79.0 503.75 78.25Q485.0 77.5 454.5 77.0Q424.0 76.5 388.0 76.5Q336.0 76.5 297.5 77.75Q259.0 79.0 228.5 82.0Q198.0 85.0 170.5 90.25Q143.0 95.5 112.5 103.5Q100.0 107.0 89.5 109.25Q79.0 111.5 76.0 111.5Q74.5 108.5 79.5 97.5Q81.0 92.0 82.5 80.5Q84.0 69.0 84.0 57.5Q84.0 40.0 85.5 35.75Q87.0 31.5 92.0 34.0Q115.5 44.0 143.0 52.0Q170.5 60.0 190.0 63.0Q195.5 63.5 214.25 64.25Q233.0 65.0 260.25 65.75Q287.5 66.5 319.0 67.0Q350.5 67.5 382.25 67.75Q414.0 68.0 441.5 68.0Q476.0 68.0 498.5 67.5Q521.0 67.0 521.0 66.0Q521.0 65.0 517.0 57.25Q513.0 49.5 507.5 39.0Q502.5 28.5 498.25 20.25Q494.0 12.0 494.0 11.0ZM308.0 203.0Q314.0 200.5 315.5 200.5Q319.5 200.5 314.5 210.5Q309.0 221.0 316.0 237.25Q323.0 253.5 339.5 270.0Q356.0 286.5 378.0 298.5Q396.0 308.0 401.75 314.0Q407.5 320.0 398.5 320.0Q396.5 320.0 384.75 314.0Q373.0 308.0 358.5 299.5Q309.0 271.5 279.5 271.5Q269.0 271.5 259.0 274.5Q252.0 276.5 246.0 277.75Q240.0 279.0 239.0 278.0Q238.5 277.0 247.0 268.25Q255.5 259.5 268.5 248.5Q281.5 237.0 290.75 226.5Q300.0 216.0 300.0 214.0Q300.0 211.5 302.5 208.25Q305.0 205.0 308.0 203.0Z" fill="black" /></svg>