<svg xmlns="http://www.w3.org/2000/svg" width="979.5" height="420.5" viewBox="0 0 979.5 420.5"><path d="M141.5 144.5Q148.5 136.0 152.75 129.75Q157.0 123.5 156.0 123.5Q154.5 123.5 143.5 130.5Q132.5 137.5 117.5 148.0Q102.5 158.5 87.5 169.25Q72.5 180.0 62.5 188.0Q52.5 196.0 52.0 197.5Q50.5 199.5 54.25 201.75Q58.0 204.0 63.0 204.0Q69.5 204.0 77.5 206.0Q85.5 208.0 91.0 211.5Q97.0 214.0 99.0 214.0Q103.0 214.0 106.25 209.0Q109.5 204.0 114.5 192.5Q118.5 181.5 126.75 167.5Q135.0 153.5 141.5 144.5ZM298.0 244.0Q293.5 242.0 286.5 239.0Q279.5 236.0 273.5 235.0Q268.0 233.0 264.0 233.0Q260.5 233.0 259.25 236.0Q258.0 239.0 258.0 246.5Q258.0 255.5 258.5 259.25Q259.0 263.0 263.0 263.0Q266.0 263.0 271.25 261.25Q276.5 259.5 285.0 257.0Q296.5 252.5 299.25 249.25Q302.0 246.0 298.0 244.0ZM426.0 271.0Q426.0 264.5 423.0 261.75Q420.0 259.0 408.5 258.25Q397.0 257.5 371.5 257.5Q326.0 258.0 300.5 264.75Q275.0 271.5 260.5 286.5Q252.0 294.5 252.0 298.0Q252.0 301.5 260.5 307.5Q269.5 314.0 302.5 321.0Q335.5 328.0 385.0 334.5Q404.0 337.5 411.0 337.5Q418.0 337.5 418.5 334.5Q419.0 331.5 417.5 324.0Q416.5 317.0 414.0 309.0Q411.5 301.0 409.0 296.0Q404.0 284.5 415.5 284.5Q419.5 284.5 422.75 280.75Q426.0 277.0 426.0 271.0ZM428.5 182.0Q422.5 179.0 411.5 177.25Q400.5 175.5 389.0 174.5Q377.5 173.5 370.0 173.5Q348.5 173.5 327.25 177.25Q306.0 181.0 289.5 187.25Q273.0 193.5 266.0 200.75Q259.0 208.0 265.5 214.5Q269.5 218.5 285.5 223.5Q301.5 228.5 323.0 233.25Q344.5 238.0 365.75 241.0Q387.0 244.0 402.0 244.0H431.5L424.0 220.5Q421.0 206.0 421.25 199.25Q421.5 192.5 426.0 190.0Q430.0 188.0 430.5 185.5Q431.0 183.0 428.5 182.0ZM486.0 243.0Q486.0 240.0 479.0 236.75Q472.0 233.5 464.25 231.0Q456.5 228.5 453.0 228.5Q449.0 228.5 447.25 231.5Q445.5 234.5 444.0 241.5Q442.5 256.0 444.0 260.0Q445.5 261.5 452.0 260.0Q458.5 258.5 466.5 255.25Q474.5 252.0 480.25 248.5Q486.0 245.0 486.0 243.0ZM736.5 187.0Q723.0 185.0 705.25 180.25Q687.5 175.5 676.0 170.5L647.5 157.5V182.0Q647.5 192.5 646.0 207.0Q644.5 221.5 643.5 231.5L638.5 257.0L675.5 238.0Q690.0 230.0 709.0 222.0Q728.0 214.0 739.5 210.5Q751.0 207.5 759.5 203.5Q768.0 199.5 768.0 197.5Q768.0 195.0 759.0 192.0Q750.0 189.0 736.5 187.0ZM298.5 70.5Q298.5 68.0 289.75 64.0Q281.0 60.0 271.0 56.75Q261.0 53.5 257.0 53.5Q253.0 53.5 252.25 57.25Q251.5 61.0 251.5 71.0Q251.5 80.5 252.5 84.25Q253.5 88.0 257.0 88.0Q260.0 88.0 263.5 86.5Q268.0 84.0 275.0 81.5Q282.0 79.0 287.5 78.5Q291.5 76.5 295.0 74.0Q298.5 71.5 298.5 70.5ZM297.0 156.5Q293.5 156.5 286.5 155.5Q279.5 154.5 273.5 152.5Q271.5 152.0 269.5 151.75Q267.5 151.5 266.0 151.5Q261.0 151.5 259.5 154.75Q258.0 158.0 258.0 166.5Q258.0 175.0 258.5 178.75Q259.0 182.5 262.5 182.5Q265.5 182.5 270.5 180.75Q275.5 179.0 284.0 176.0Q300.0 170.5 304.25 163.5Q308.5 156.5 297.0 156.5ZM398.0 80.0Q381.0 77.0 361.5 77.0Q346.0 77.0 330.0 79.25Q314.0 81.5 298.0 86.5Q268.0 96.0 258.25 106.5Q248.5 117.0 259.5 127.5Q265.5 133.5 280.0 138.75Q294.5 144.0 313.75 148.5Q333.0 153.0 353.0 156.25Q373.0 159.5 390.25 161.25Q407.5 163.0 418.0 163.0Q428.0 163.0 430.25 160.5Q432.5 158.0 432.5 152.0Q432.5 145.5 430.0 140.75Q427.5 136.0 424.0 135.5Q416.5 131.5 417.5 108.5Q419.5 92.0 416.5 87.5Q413.5 83.0 398.0 80.0ZM489.5 64.5 470.5 56.5Q462.5 53.5 456.75 51.75Q451.0 50.0 447.5 50.0Q442.5 50.0 441.0 53.75Q439.5 57.5 439.5 66.0Q439.5 74.0 439.75 78.0Q440.0 82.0 443.5 82.0Q446.0 82.0 451.5 79.75Q457.0 77.5 466.5 73.5ZM485.5 156.0Q482.0 154.0 475.0 151.5Q468.0 149.0 461.5 147.5Q456.0 145.5 452.5 145.5Q448.5 145.5 447.5 149.25Q446.5 153.0 446.5 163.0V183.5L470.0 172.0Q494.0 161.0 485.5 156.0ZM287.5 337.5Q289.5 335.5 284.0 332.5Q278.5 329.5 268.5 326.0Q262.0 324.0 257.75 322.75Q253.5 321.5 251.0 321.5Q246.5 321.5 245.75 325.5Q245.0 329.5 245.0 338.5Q245.0 347.0 245.75 350.5Q246.5 354.0 250.0 354.0Q253.0 354.0 263.5 350.0Q271.0 346.0 278.0 342.75Q285.0 339.5 287.5 337.5ZM483.0 332.5 463.5 324.5Q455.5 321.5 448.25 318.25Q441.0 315.0 439.0 314.0Q436.5 312.0 434.5 317.0Q432.5 322.0 432.5 330.5Q432.5 341.0 433.0 345.5Q433.5 350.0 437.5 350.0Q441.5 350.0 460.0 341.5ZM416.0 29.5Q405.5 10.0 413.5 10.0Q421.0 10.0 439.5 25.5Q470.0 51.0 572.5 60.5Q590.0 62.5 602.0 65.25Q614.0 68.0 614.0 70.5Q614.0 72.0 594.75 74.25Q575.5 76.5 549.0 77.5Q486.5 79.5 461.0 90.25Q435.5 101.0 443.5 114.75Q451.5 128.5 490.5 140.75Q529.5 153.0 596.0 159.0Q604.5 159.0 611.0 161.5Q617.5 164.0 618.0 166.5Q619.5 169.5 602.5 171.75Q585.5 174.0 554.5 174.0Q518.0 174.0 499.25 176.5Q480.5 179.0 468.5 186.0Q459.0 191.0 452.75 195.75Q446.5 200.5 446.5 203.0Q446.5 209.0 464.75 216.0Q483.0 223.0 513.75 229.5Q544.5 236.0 582.5 240.5Q597.5 242.5 609.0 244.75Q620.5 247.0 620.5 249.5Q620.5 251.5 602.0 253.0Q583.5 254.5 558.5 254.5Q534.5 254.5 518.5 255.5Q502.5 256.5 491.5 259.25Q480.5 262.0 470.0 267.5Q427.5 288.0 445.25 302.0Q463.0 316.0 545.0 326.0Q570.5 329.5 588.75 333.0Q607.0 336.5 607.0 338.5Q607.0 340.5 589.75 341.5Q572.5 342.5 549.0 342.5Q449.0 341.0 428.5 383.5Q422.0 397.0 416.5 397.0Q409.5 397.0 412.0 373.5Q412.5 363.5 411.5 359.0Q410.5 354.5 405.5 352.25Q400.5 350.0 389.0 347.5Q372.5 344.5 355.5 344.5Q329.0 344.5 304.0 351.0Q279.0 357.5 261.25 368.25Q243.5 379.0 238.5 393.0Q232.5 410.5 229.5 410.5Q225.0 410.5 227.0 359.5Q227.0 338.0 225.75 319.0Q224.5 300.0 222.0 295.0Q216.5 285.0 220.5 285.0Q222.5 285.0 226.0 286.5Q233.0 289.0 237.5 279.75Q242.0 270.5 242.5 255.0Q243.0 239.5 238.5 223.5Q231.0 201.0 238.5 198.0Q241.5 197.0 243.0 187.5Q244.5 178.0 244.5 166.25Q244.5 154.5 243.0 145.5Q241.5 136.5 238.5 136.5Q230.5 136.5 235.0 94.5L240.0 53.0L222.0 69.5Q214.0 77.0 202.75 90.25Q191.5 103.5 179.25 119.25Q167.0 135.0 155.75 150.5Q144.5 166.0 137.0 178.0Q129.5 190.0 127.5 195.0Q125.5 201.0 126.75 206.5Q128.0 212.0 130.0 213.0Q133.0 215.0 133.75 219.25Q134.5 223.5 132.5 227.5Q128.5 239.0 158.5 269.0Q212.0 325.5 210.5 345.0Q210.5 348.5 209.0 348.5Q206.0 348.5 199.5 337.5Q190.5 324.0 174.5 306.5Q158.5 289.0 140.25 271.5Q122.0 254.0 106.0 241.0Q90.0 228.0 80.5 223.5Q69.5 218.0 55.0 214.25Q40.5 210.5 32.0 210.5Q23.0 210.5 16.5 208.75Q10.0 207.0 10.0 205.0Q10.0 201.5 21.0 194.0Q32.0 186.5 47.5 177.0Q66.0 166.5 88.25 152.0Q110.5 137.5 133.0 121.5Q155.5 105.5 175.0 90.25Q194.5 75.0 206.5 64.0Q219.5 51.0 224.5 42.25Q229.5 33.5 227.0 27.0Q224.5 18.5 229.0 19.25Q233.5 20.0 253.0 31.0Q268.5 40.5 286.25 47.0Q304.0 53.5 327.75 58.0Q351.5 62.5 384.5 66.0Q392.5 67.0 398.75 67.5Q405.0 68.0 410.0 68.0Q426.5 68.0 427.0 59.5Q427.5 51.0 416.0 29.5ZM617.5 128.0Q614.5 121.0 615.5 119.75Q616.5 118.5 624.5 121.0Q630.0 123.0 638.5 128.5Q647.0 134.0 654.0 140.5Q661.5 146.5 671.75 153.25Q682.0 160.0 690.0 163.0Q700.5 167.5 723.75 172.0Q747.0 176.5 777.0 181.0Q807.0 185.5 839.0 189.0Q871.0 192.5 900.0 194.0Q929.0 196.5 949.25 199.5Q969.5 202.5 969.5 205.5Q969.5 210.0 941.5 210.0Q935.5 210.0 928.75 209.75Q922.0 209.5 913.5 209.0Q902.5 208.0 891.5 207.5Q880.5 207.0 869.5 207.0Q823.0 207.0 781.5 214.5Q740.0 222.0 707.5 236.0Q675.0 250.0 654.5 269.0Q634.0 288.0 629.5 310.5Q625.5 329.5 618.0 329.5Q615.0 327.5 613.5 324.0Q612.0 320.5 613.5 317.0Q614.0 313.0 617.75 292.75Q621.5 272.5 625.5 249.0Q631.5 219.5 632.5 200.25Q633.5 181.0 629.75 164.75Q626.0 148.5 617.5 128.0Z" fill="black" /></svg>