<svg xmlns="http://www.w3.org/2000/svg" width="630.5" height="384.0" viewBox="0 0 630.5 384.0"><path d="M133.5 280.5Q133.5 279.0 131.0 278.0Q128.5 277.0 126.0 277.0Q121.5 277.0 120.25 283.0Q119.0 289.0 119.0 306.0V334.0L140.0 321.0Q149.0 316.0 155.5 310.75Q162.0 305.5 162.0 304.5Q162.0 303.0 158.0 299.5Q154.0 296.0 147.5 292.5Q142.0 289.0 137.75 285.75Q133.5 282.5 133.5 280.5ZM99.5 179.5 72.5 169.0Q61.5 164.5 51.0 158.75Q40.5 153.0 36.5 149.5Q31.5 144.5 29.5 144.5Q27.5 144.5 27.5 160.5Q27.5 168.5 26.5 178.75Q25.5 189.0 24.5 195.0L21.5 211.0L39.5 201.0Q47.0 197.0 58.75 192.5Q70.5 188.0 78.5 186.0ZM210.0 181.0Q210.0 179.0 204.5 177.75Q199.0 176.5 191.0 176.5Q178.5 176.5 175.25 178.5Q172.0 180.5 169.5 191.5Q168.5 198.0 168.75 207.25Q169.0 216.5 171.0 223.5L174.0 240.0L192.0 213.0Q199.5 201.5 204.75 192.25Q210.0 183.0 210.0 181.0ZM248.0 253.0Q248.0 245.5 247.0 242.75Q246.0 240.0 240.25 239.5Q234.5 239.0 221.0 239.5Q200.0 239.5 189.5 242.0Q179.0 244.5 175.25 251.5Q171.5 258.5 171.5 273.0Q171.5 288.5 174.0 292.75Q176.5 297.0 188.0 301.0Q195.5 303.5 203.5 304.5Q211.5 305.5 216.0 304.5Q223.0 304.0 225.0 300.5Q227.0 297.0 227.0 284.5Q227.5 270.0 228.0 264.25Q228.5 258.5 230.5 258.5Q231.0 258.5 234.5 262.0Q240.0 267.0 243.5 267.0Q248.0 267.0 248.0 253.0ZM246.0 229.0 231.5 217.0Q225.0 211.5 220.5 208.5Q216.0 205.5 212.5 205.5Q207.0 205.5 201.5 217.0Q197.0 226.0 199.75 227.5Q202.5 229.0 221.0 229.0ZM256.5 282.0Q251.0 279.5 246.5 278.25Q242.0 277.0 241.5 277.0Q240.5 277.0 239.25 285.0Q238.0 293.0 236.5 303.75Q235.0 314.5 234.5 323.25Q234.0 332.0 234.5 333.0Q234.5 333.0 234.75 333.0Q235.0 333.0 235.0 333.0Q237.5 333.0 247.0 330.0Q256.5 327.0 268.5 322.5Q281.0 317.5 294.5 313.25Q308.0 309.0 313.5 307.5Q323.5 305.0 321.5 303.75Q319.5 302.5 299.0 296.5Q287.5 293.0 274.75 288.75Q262.0 284.5 256.5 282.0ZM248.0 195.0Q248.0 183.5 246.5 180.0Q245.0 176.5 240.0 176.5Q233.5 176.5 226.5 181.5Q219.5 186.5 219.5 192.0Q219.5 194.0 224.75 199.5Q230.0 205.0 236.0 209.5Q242.0 214.0 245.0 214.5Q246.0 214.5 247.0 208.75Q248.0 203.0 248.0 195.0ZM317.0 208.5 301.5 176.5H258.0V223.0L289.5 236.5Q302.0 242.5 311.0 247.5Q320.0 252.5 320.0 254.5Q320.0 257.5 316.0 257.5Q309.0 257.5 293.0 250.5Q276.0 243.5 268.5 243.5Q258.0 243.5 258.0 257.5Q258.0 266.5 261.75 270.25Q265.5 274.0 279.0 279.0Q287.0 282.0 298.5 285.5Q310.0 289.0 318.0 291.0L336.0 295.5L333.5 268.5Q333.0 255.5 328.5 239.75Q324.0 224.0 317.0 208.5ZM348.0 198.0 358.5 176.5H336.5Q327.5 176.5 321.75 177.5Q316.0 178.5 316.5 179.5L325.5 201.0Q328.0 209.0 330.75 214.0Q333.5 219.0 335.0 219.0Q336.0 219.0 339.75 212.75Q343.5 206.5 348.0 198.0ZM186.0 50.5Q186.0 48.5 178.75 47.5Q171.5 46.5 162.0 46.5Q145.5 46.5 141.5 48.0Q137.5 49.5 139.5 55.0Q140.5 58.5 144.25 68.5Q148.0 78.5 151.5 89.5L160.5 115.0L166.5 94.0Q169.0 85.5 172.5 76.25Q176.0 67.0 179.0 63.0Q181.5 59.0 183.75 55.5Q186.0 52.0 186.0 50.5ZM237.5 118.0Q236.0 106.0 230.5 106.0Q225.5 106.0 220.5 114.0Q214.0 123.5 215.25 126.0Q216.5 128.5 227.0 128.5Q234.5 128.5 236.5 126.25Q238.5 124.0 237.5 118.0ZM265.5 69.0 276.5 46.5H251.0Q234.0 46.5 230.0 48.0Q226.0 49.5 228.0 56.5Q230.5 65.5 234.5 65.5Q237.5 65.5 243.0 60.0Q247.0 56.0 249.0 56.0Q254.0 56.0 247.5 73.5Q245.5 80.0 244.75 86.75Q244.0 93.5 246.0 97.5Q248.5 102.5 249.25 103.0Q250.0 103.5 252.0 99.0Q253.0 96.5 256.75 87.5Q260.5 78.5 265.5 69.0ZM335.0 163.0Q335.0 160.0 326.25 156.0Q317.5 152.0 305.25 148.25Q293.0 144.5 281.5 141.75Q270.0 139.0 264.5 139.0Q259.5 139.0 258.75 142.0Q258.0 145.0 258.0 152.5V166.5H296.0Q312.5 166.5 323.75 165.5Q335.0 164.5 335.0 163.0ZM309.5 59.5Q305.0 54.0 300.75 50.25Q296.5 46.5 294.0 46.5Q291.0 46.5 285.5 54.25Q280.0 62.0 274.75 72.75Q269.5 83.5 266.25 93.25Q263.0 103.0 264.0 107.5Q264.5 110.5 273.25 116.75Q282.0 123.0 293.75 130.0Q305.5 137.0 316.25 142.0Q327.0 147.0 331.5 147.0Q333.0 147.0 334.0 141.0Q335.0 135.0 335.0 126.0Q335.0 109.0 328.75 93.5Q322.5 78.0 309.5 59.5ZM417.5 159.0Q409.5 152.5 404.5 152.5Q397.5 152.5 397.5 166.0Q397.5 172.0 396.75 178.5Q396.0 185.0 394.5 188.5Q392.5 193.5 394.75 193.25Q397.0 193.0 408.5 187.5Q437.5 174.0 417.5 159.0ZM444.0 175.0Q446.5 171.0 441.0 171.0Q434.5 171.0 437.0 175.0Q440.5 177.0 444.0 175.0ZM345.5 64.5 354.0 51.0H315.0L325.5 66.0Q329.5 71.0 332.75 75.0Q336.0 79.0 336.5 79.0Q337.5 78.0 340.25 74.0Q343.0 70.0 345.5 64.5ZM459.5 26.5Q459.5 25.5 450.75 25.0Q442.0 24.5 429.0 24.0H398.0L405.5 41.5Q408.5 48.5 412.75 62.0Q417.0 75.5 420.5 87.0L428.0 116.5L433.5 92.5Q436.0 82.5 440.25 69.5Q444.5 56.5 449.0 48.0Q453.5 39.5 456.5 33.25Q459.5 27.0 459.5 26.5ZM383.0 14.5Q383.0 10.0 388.5 10.0Q391.5 10.0 396.5 11.5Q402.0 13.0 416.0 14.0Q430.0 15.0 444.5 15.0Q459.0 14.5 469.0 15.0Q479.0 15.5 479.0 16.5Q479.0 17.0 475.75 22.5Q472.5 28.0 467.0 36.0Q455.5 54.0 448.25 75.0Q441.0 96.0 438.5 124.5L435.5 157.0L453.5 164.5Q462.5 168.0 485.0 171.25Q507.5 174.5 543.5 176.5Q573.5 178.5 595.25 180.5Q617.0 182.5 618.0 183.0Q620.5 186.5 616.5 187.75Q612.5 189.0 598.0 189.0Q588.5 189.0 574.0 188.5Q559.5 188.0 539.0 187.0Q518.0 186.0 498.75 185.25Q479.5 184.5 466.25 184.25Q453.0 184.0 449.0 184.5L435.5 187.0L436.5 245.5L438.0 303.0L521.0 304.5Q558.0 305.0 580.75 306.5Q603.5 308.0 603.5 310.5Q603.5 312.5 581.0 314.25Q558.5 316.0 519.5 316.0H435.5L438.5 341.5Q441.5 367.5 436.5 370.5Q431.0 374.0 431.0 352.0Q431.0 334.0 428.75 326.5Q426.5 319.0 416.75 317.5Q407.0 316.0 384.5 316.0H344.0V344.5Q344.0 356.0 343.0 364.5Q342.0 373.0 339.5 373.0Q337.5 373.0 336.25 364.5Q335.0 356.0 335.0 343.5V314.5L319.5 318.0Q297.0 322.0 275.75 330.0Q254.5 338.0 241.5 346.5Q230.5 354.0 225.5 354.0Q218.0 354.0 222.5 332.5L225.5 316.0H198.5Q183.0 316.0 177.25 317.0Q171.5 318.0 171.5 322.5Q171.5 330.0 167.0 330.0Q163.5 330.0 161.0 324.0Q160.5 322.5 158.5 322.5Q154.5 322.5 146.0 328.0Q137.5 333.5 130.25 340.75Q123.0 348.0 121.5 354.0Q120.5 358.0 117.0 361.0Q113.5 364.0 111.0 364.0Q108.0 364.0 106.75 362.5Q105.5 361.0 106.5 359.5Q107.5 357.5 108.5 341.0Q109.5 324.5 109.5 304.0Q110.0 283.0 110.75 268.0Q111.5 253.0 112.5 253.0Q113.5 253.0 120.0 258.0Q126.5 263.0 135.0 270.0Q143.0 276.5 149.75 281.5Q156.5 286.5 158.0 286.5Q160.0 286.5 161.0 270.5Q162.0 254.5 161.0 232.5L159.5 178.5L140.0 179.5Q127.5 180.5 108.25 185.75Q89.0 191.0 69.75 198.75Q50.5 206.5 36.0 215.5Q27.0 221.0 19.5 224.0Q12.0 227.0 11.0 225.0Q10.0 223.5 10.75 216.75Q11.5 210.0 13.5 202.0Q15.5 194.5 16.75 180.0Q18.0 165.5 18.0 153.0Q18.0 140.5 18.5 131.75Q19.0 123.0 20.0 123.0Q21.0 123.0 25.75 126.75Q30.5 130.5 36.0 136.0Q53.0 152.0 73.75 159.25Q94.5 166.5 125.0 166.5H162.0L159.0 153.0Q155.5 137.0 150.25 118.5Q145.0 100.0 140.0 84.0Q135.0 68.0 131.0 60.0Q127.5 52.0 125.0 46.0Q122.5 40.0 122.0 38.5Q121.5 37.5 132.0 37.0Q142.5 36.5 156.5 36.5Q172.5 36.5 187.75 37.25Q203.0 38.0 204.0 39.0Q204.5 39.5 200.75 47.5Q197.0 55.5 190.5 65.5Q184.0 76.0 180.5 84.0Q177.0 92.0 175.25 102.0Q173.5 112.0 172.5 128.5L170.0 166.5H194.0Q204.0 166.5 212.75 164.5Q221.5 162.5 224.0 160.5Q228.0 156.5 229.5 156.5Q231.0 156.5 232.5 160.5Q234.5 166.5 241.5 166.5Q248.0 166.5 247.5 153.0Q246.5 142.5 240.75 140.75Q235.0 139.0 226.5 139.0Q220.5 139.0 214.5 139.75Q208.5 140.5 205.5 142.5Q197.5 146.5 195.5 146.5Q188.5 146.5 204.0 122.5Q216.5 104.5 221.5 95.25Q226.5 86.0 226.5 80.25Q226.5 74.5 222.5 67.0Q220.0 61.5 217.0 54.0Q214.0 46.5 212.0 43.0Q210.0 33.0 213.5 33.0Q214.5 33.0 215.5 33.25Q216.5 33.5 218.0 34.0Q220.5 34.5 232.5 35.5Q244.5 36.5 262.75 37.25Q281.0 38.0 301.5 39.0Q322.0 40.0 339.0 41.0Q356.0 42.0 366.5 42.75Q377.0 43.5 377.0 44.5Q378.0 44.5 373.5 50.0Q369.0 55.5 361.5 62.5Q355.0 69.0 351.5 73.25Q348.0 77.5 346.5 82.75Q345.0 88.0 344.5 97.25Q344.0 106.5 344.0 123.0V166.5H361.5Q368.5 166.5 373.25 167.25Q378.0 168.0 378.0 169.0Q378.0 169.5 373.25 177.25Q368.5 185.0 361.5 195.0Q353.5 207.0 349.75 214.5Q346.0 222.0 345.0 231.75Q344.0 241.5 344.0 260.5V299.5L369.5 303.0Q379.5 304.0 392.0 305.0Q404.5 306.0 411.0 306.0H426.0V248.5Q426.0 225.0 425.0 207.75Q424.0 190.5 422.0 190.5Q421.0 190.5 415.0 194.0Q409.0 197.5 402.0 202.5Q394.5 207.0 388.5 210.0Q382.5 213.0 381.5 211.5Q381.0 210.5 381.0 204.5Q381.0 198.5 383.0 191.5Q385.0 184.0 386.25 172.75Q387.5 161.5 387.5 153.0Q387.5 144.5 388.5 138.75Q389.5 133.0 390.5 133.0Q392.5 133.0 398.0 136.25Q403.5 139.5 410.0 143.5Q421.5 150.5 425.5 150.5Q425.5 150.5 425.75 150.5Q426.0 150.5 426.0 150.0Q426.0 145.0 422.75 131.75Q419.5 118.5 414.5 101.5Q409.5 84.5 404.0 68.0Q398.5 51.5 394.0 39.5Q389.5 27.5 387.0 25.0Q385.0 23.0 384.0 19.75Q383.0 16.5 383.0 14.5Z" fill="black" /></svg>