<svg xmlns="http://www.w3.org/2000/svg" width="379.5" height="442.0" viewBox="0 0 379.5 442.0"><path d="M262.0 239.0Q271.0 227.0 276.5 218.25Q282.0 209.5 281.0 208.5Q280.0 208.5 260.5 222.0Q241.0 235.5 213.0 254.5L147.5 301.5L184.0 309.0Q199.5 310.5 211.75 310.75Q224.0 311.0 226.0 310.5Q228.0 308.0 231.0 301.75Q234.0 295.5 236.0 286.5Q238.5 278.0 246.0 264.25Q253.5 250.5 262.0 239.0ZM151.0 138.5Q160.0 128.5 166.25 120.5Q172.5 112.5 171.5 111.0Q170.0 111.0 160.75 116.5Q151.5 122.0 138.0 131.0Q124.5 140.0 109.5 150.25Q94.5 160.5 81.5 170.0Q68.5 179.5 60.0 186.0Q51.5 192.5 50.5 194.0Q49.5 196.5 57.75 198.0Q66.0 199.5 77.5 199.5Q91.0 199.5 104.75 197.5Q118.5 195.5 122.0 192.0Q124.5 189.0 127.0 184.0Q129.5 179.0 129.5 175.0Q129.5 170.5 135.75 160.0Q142.0 149.5 151.0 138.5ZM256.5 24.0Q267.5 10.0 272.5 10.0Q276.0 10.0 276.0 17.0Q276.0 20.0 268.0 29.75Q260.0 39.5 250.0 49.5Q225.5 72.0 204.0 96.0Q182.5 120.0 166.75 141.25Q151.0 162.5 143.75 177.5Q136.5 192.5 140.5 196.5Q141.5 197.5 143.0 202.5Q144.5 207.5 144.5 212.5Q144.5 218.0 151.0 225.25Q157.5 232.5 168.5 239.5L194.5 254.5L258.5 207.0Q276.5 193.5 293.0 179.75Q309.5 166.0 322.0 154.75Q334.5 143.5 339.5 138.5Q346.5 130.5 353.75 125.5Q361.0 120.5 363.0 120.5Q366.0 120.5 364.25 126.0Q362.5 131.5 358.25 139.0Q354.0 146.5 349.0 152.75Q344.0 159.0 340.5 160.5Q337.5 161.5 329.25 170.75Q321.0 180.0 310.0 193.75Q299.0 207.5 287.75 223.25Q276.5 239.0 266.75 253.5Q257.0 268.0 251.0 278.25Q245.0 288.5 245.0 292.0Q245.0 297.0 247.0 301.25Q249.0 305.5 251.5 306.5Q258.0 310.5 258.0 324.0Q258.0 331.5 266.25 339.75Q274.5 348.0 293.0 359.5Q313.0 373.0 331.0 388.25Q349.0 403.5 359.25 415.5Q369.5 427.5 366.5 430.0Q364.5 432.0 355.0 426.25Q345.5 420.5 335.0 409.5Q321.5 396.0 300.5 380.75Q279.5 365.5 256.75 351.75Q234.0 338.0 216.0 330.0Q206.5 325.5 186.25 321.75Q166.0 318.0 147.0 316.0L101.5 313.0L137.5 291.0Q153.0 282.0 164.0 274.25Q175.0 266.5 175.5 264.5Q176.5 261.5 168.0 254.5Q159.5 247.5 145.75 239.25Q132.0 231.0 116.5 223.75Q101.0 216.5 88.5 212.5Q74.5 207.5 56.0 207.5Q52.5 207.5 49.5 207.75Q46.5 208.0 44.0 208.5Q33.5 210.0 26.5 210.0Q10.0 210.0 15.0 201.75Q20.0 193.5 45.0 178.0Q60.5 168.5 81.5 154.5Q102.5 140.5 125.25 124.5Q148.0 108.5 170.25 92.25Q192.5 76.0 211.25 62.0Q230.0 48.0 242.0 37.75Q254.0 27.5 256.5 24.0Z" fill="black" /></svg>