<svg xmlns="http://www.w3.org/2000/svg" width="764.5" height="455.5" viewBox="0 0 764.5 455.5"><path d="M134.5 161.5Q137.0 155.5 134.0 153.75Q131.0 152.0 118.0 152.0Q106.5 152.0 102.0 153.25Q97.5 154.5 99.25 161.5Q101.0 168.5 107.0 185.0L116.5 210.0L123.5 191.5Q126.0 183.5 129.75 175.0Q133.5 166.5 134.5 161.5ZM173.0 201.0Q168.0 186.5 162.75 175.0Q157.5 163.5 155.0 161.5Q153.0 161.5 148.5 166.25Q144.0 171.0 140.5 179.5Q136.0 188.0 133.5 199.5Q131.0 211.0 129.75 231.25Q128.5 251.5 127.0 287.0L125.0 373.0L143.5 377.5Q151.5 378.5 161.0 379.75Q170.5 381.0 176.0 381.0H190.0L187.5 308.0Q186.5 266.5 183.25 243.0Q180.0 219.5 173.0 201.0ZM206.5 163.0Q206.5 161.0 200.75 159.5Q195.0 158.0 186.5 158.0Q171.5 158.0 169.75 160.0Q168.0 162.0 173.0 171.0Q175.5 175.5 178.5 183.5Q181.5 191.5 183.5 197.0Q186.5 207.5 187.5 207.5Q189.5 207.5 197.5 190.0Q201.0 181.0 203.75 173.0Q206.5 165.0 206.5 163.0ZM348.5 253.0Q331.5 249.0 318.0 246.5Q304.5 244.0 303.5 244.0Q302.0 244.0 302.0 249.5Q302.0 255.0 302.5 262.5L304.5 280.5L348.5 272.5Q367.5 268.5 380.5 265.75Q393.5 263.0 393.0 262.5Q392.5 262.0 379.5 259.0Q366.5 256.0 348.5 253.0ZM403.5 173.0Q400.0 166.5 395.75 162.25Q391.5 158.0 390.0 158.0Q388.0 158.0 382.75 162.25Q377.5 166.5 372.0 172.25Q366.5 178.0 363.25 182.75Q360.0 187.5 361.0 188.5Q362.0 189.0 374.0 193.75Q386.0 198.5 403.0 205.0L442.5 221.0L428.0 204.5Q422.0 198.0 414.75 188.75Q407.5 179.5 403.5 173.0ZM669.5 140.5 660.0 109.0 546.0 108.5Q509.5 108.5 485.5 108.5Q461.5 108.5 445.0 109.0Q428.5 109.5 415.5 110.75Q402.5 112.0 387.75 114.5Q373.0 117.0 352.0 121.0Q316.0 127.5 292.75 133.0Q269.5 138.5 255.5 144.0Q241.5 149.5 233.0 156.0Q224.5 162.5 218.5 171.5Q213.0 179.5 210.0 186.25Q207.0 193.0 205.5 204.0Q204.0 215.0 203.25 235.25Q202.5 255.5 201.5 290.0L199.5 386.0H277.5Q299.0 386.0 316.5 385.75Q334.0 385.5 344.5 384.75Q355.0 384.0 355.0 383.0Q355.0 382.5 351.75 373.5Q348.5 364.5 343.5 352.0Q335.5 331.5 333.25 321.75Q331.0 312.0 335.25 309.25Q339.5 306.5 351.0 306.5Q361.5 306.5 378.25 303.5Q395.0 300.5 413.5 295.5Q432.0 290.5 447.5 285.25Q463.0 280.0 471.75 275.25Q480.5 270.5 478.0 268.0Q476.5 266.5 461.5 267.75Q446.5 269.0 424.25 272.25Q402.0 275.5 379.0 279.5Q356.0 283.5 337.5 287.5Q319.0 291.5 312.0 294.5L289.5 305.0V268.5Q289.5 254.0 290.5 242.75Q291.5 231.5 292.5 229.5Q294.0 228.5 308.0 231.0Q322.0 233.5 340.5 237.5Q353.5 241.0 370.25 244.25Q387.0 247.5 404.0 249.75Q421.0 252.0 434.5 252.5L483.5 256.0L435.0 232.5Q421.5 225.5 406.5 219.25Q391.5 213.0 378.5 208.5Q365.5 204.0 357.5 203.0L328.0 196.0L359.5 168.0L391.0 139.0L403.5 155.5Q409.5 163.5 421.25 177.0Q433.0 190.5 445.75 204.5Q458.5 218.5 468.5 228.0Q478.5 237.5 480.5 237.5Q482.0 237.5 481.5 229.25Q481.0 221.0 479.0 208.0Q477.0 195.0 474.5 181.25Q472.0 167.5 469.25 156.5Q466.5 145.5 464.0 141.0Q459.5 132.5 458.75 129.0Q458.0 125.5 462.0 125.5Q464.5 125.5 467.5 126.25Q470.5 127.0 475.0 128.0Q482.0 128.5 497.5 127.75Q513.0 127.0 527.0 123.5Q547.0 119.5 558.5 119.5Q564.5 119.5 565.0 120.5Q567.0 122.5 565.75 125.0Q564.5 127.5 561.0 128.5Q550.5 132.0 539.0 148.75Q527.5 165.5 518.25 189.0Q509.0 212.5 505.0 237.0L501.5 256.5L527.0 241.5Q542.5 231.5 560.5 221.75Q578.5 212.0 594.75 204.0Q611.0 196.0 621.75 191.75Q632.5 187.5 634.0 189.0Q635.5 190.5 635.5 191.75Q635.5 193.0 631.5 195.75Q627.5 198.5 616.75 204.5Q606.0 210.5 586.0 221.5L540.5 246.0L597.5 248.0Q658.0 249.5 660.0 255.0Q662.0 260.5 602.5 260.5Q576.5 260.5 556.75 261.75Q537.0 263.0 536.0 265.0Q534.0 266.0 546.25 275.75Q558.5 285.5 577.0 298.0Q610.0 320.5 621.5 330.75Q633.0 341.0 624.5 341.0Q622.5 341.0 606.0 330.75Q589.5 320.5 568.5 306.5Q547.5 292.5 529.5 282.5Q511.5 272.5 507.5 272.5Q499.5 272.5 498.25 278.0Q497.0 283.5 500.0 307.0Q501.0 321.5 502.25 338.25Q503.5 355.0 503.5 364.0V386.0H687.0L682.5 278.5Q680.5 224.0 677.75 190.25Q675.0 156.5 669.5 140.5ZM340.5 104.5 294.5 92.5Q283.5 89.5 269.0 84.5Q254.5 79.5 245.5 76.0L224.5 66.5L222.0 102.5Q221.5 116.5 221.0 127.75Q220.5 139.0 221.5 140.0Q221.5 140.0 221.75 140.0Q222.0 140.0 222.5 140.0Q225.0 140.0 233.5 137.75Q242.0 135.5 253.0 132.0Q266.0 128.5 285.5 123.25Q305.0 118.0 320.5 115.5Q345.5 110.0 348.75 108.25Q352.0 106.5 340.5 104.5ZM493.5 222.0 509.5 180.5Q516.5 163.0 520.75 151.0Q525.0 139.0 524.5 139.0Q524.0 138.0 517.25 138.5Q510.5 139.0 501.0 139.5Q485.5 140.5 483.0 143.25Q480.5 146.0 483.0 160.0Q484.5 167.5 486.5 179.0Q488.5 190.5 490.0 200.0ZM686.5 121.5Q686.5 115.0 684.75 111.0Q683.0 107.0 680.5 107.0Q675.0 107.0 675.0 113.75Q675.0 120.5 680.5 129.0Q683.0 133.5 684.5 133.5Q686.5 133.5 686.5 121.5ZM708.0 62.5 724.5 28.0H682.5L641.0 27.5L648.5 46.0Q659.0 71.0 666.5 83.0Q674.0 95.0 680.5 95.0Q686.5 95.0 693.0 86.75Q699.5 78.5 708.0 62.5ZM82.5 374.0Q67.0 370.0 54.0 365.5Q41.0 361.0 38.5 360.5Q34.5 359.0 32.5 367.0Q30.5 375.0 30.5 394.0L30.0 431.0L62.0 423.0Q76.0 419.0 98.75 415.25Q121.5 411.5 141.0 409.0Q160.0 406.0 174.25 403.0Q188.5 400.0 190.5 398.0Q193.0 395.5 183.25 393.75Q173.5 392.0 158.0 390.0Q148.0 389.0 134.25 386.75Q120.5 384.5 106.75 381.0Q93.0 377.5 82.5 374.0ZM363.5 368.5 400.5 334.0Q416.0 321.0 426.0 311.0Q436.0 301.0 435.0 301.0Q433.0 301.0 424.25 303.75Q415.5 306.5 403.5 309.5Q392.0 312.5 379.0 315.25Q366.0 318.0 359.0 318.0Q350.0 318.0 346.75 319.5Q343.5 321.0 345.5 327.25Q347.5 333.5 354.0 348.0ZM492.0 386.0 491.5 356.5Q491.5 344.5 490.25 329.25Q489.0 314.0 487.5 304.5L483.5 281.5L449.0 309.0Q428.0 326.0 410.5 341.5Q393.0 357.0 382.5 368.0Q372.0 379.0 372.0 382.0Q372.0 383.5 389.75 384.75Q407.5 386.0 432.0 386.0ZM624.0 14.0Q624.0 10.0 636.5 12.5Q642.0 14.5 660.25 15.25Q678.5 16.0 699.0 16.0Q737.0 15.0 745.0 18.5Q753.0 22.0 740.5 32.5Q736.5 35.5 729.75 45.75Q723.0 56.0 717.5 67.5L703.0 95.5H729.5Q754.5 95.5 754.0 100.75Q753.5 106.0 728.5 107.5L700.5 109.0L697.0 135.0Q695.0 148.0 693.75 171.25Q692.5 194.5 692.25 223.0Q692.0 251.5 692.75 280.5Q693.5 309.5 695.5 333.5Q697.0 357.0 698.5 368.25Q700.0 379.5 702.5 382.75Q705.0 386.0 709.5 386.0Q720.5 386.0 720.5 392.5Q720.5 394.0 717.0 396.0Q713.5 398.0 709.0 398.0Q702.5 398.0 700.25 402.0Q698.0 406.0 698.0 417.5Q698.0 425.5 696.25 431.5Q694.5 437.5 692.0 437.5Q690.0 437.5 688.25 431.5Q686.5 425.5 686.5 417.5V398.0L496.0 398.5Q358.0 398.5 281.25 402.75Q204.5 407.0 201.5 415.0Q200.5 417.0 194.75 417.25Q189.0 417.5 182.0 416.5Q174.5 415.5 150.5 418.75Q126.5 422.0 92.0 428.75Q57.5 435.5 18.0 445.0Q14.0 445.5 12.0 443.5Q10.0 441.5 11.5 437.5Q16.0 419.0 18.0 407.75Q20.0 396.5 20.0 387.0Q20.0 377.5 18.5 365.5Q17.5 351.5 17.75 346.5Q18.0 341.5 21.5 341.5Q23.5 341.5 27.0 343.0Q33.5 346.0 46.25 350.25Q59.0 354.5 72.75 359.0Q86.5 363.5 97.0 366.5Q107.5 369.5 110.0 369.5Q112.5 369.5 113.5 351.0Q114.5 332.5 114.5 307.0Q114.5 281.5 113.5 264.75Q112.5 248.0 109.75 234.0Q107.0 220.0 100.5 203.0Q91.5 176.0 86.75 162.25Q82.0 148.5 84.5 143.75Q87.0 139.0 99.0 139.0Q105.5 139.0 115.25 139.75Q125.0 140.5 138.5 141.5Q150.0 142.5 159.5 143.0Q169.0 143.5 176.5 143.5Q194.0 143.5 201.5 138.75Q209.0 134.0 210.5 122.0Q212.0 110.0 210.5 88.0Q210.0 72.0 210.75 60.5Q211.5 49.0 213.5 49.0Q215.0 49.5 225.0 53.75Q235.0 58.0 247.5 64.0Q265.0 72.0 281.75 77.75Q298.5 83.5 317.75 87.0Q337.0 90.5 362.5 92.25Q388.0 94.0 423.25 94.25Q458.5 94.5 507.5 94.0L657.5 92.0L640.5 56.0Q633.0 41.0 628.5 28.5Q624.0 16.0 624.0 14.0Z" fill="black" /></svg>