<svg xmlns="http://www.w3.org/2000/svg" width="947.5" height="464.0" viewBox="0 0 947.5 464.0"><path d="M71.0 271.5Q67.0 269.0 60.25 263.5Q53.5 258.0 47.5 251.5L33.0 237.0L30.0 253.5Q28.5 260.5 27.75 272.0Q27.0 283.5 27.0 293.0V316.0L53.5 296.0Q71.0 283.5 74.0 279.25Q77.0 275.0 71.0 271.5ZM259.5 256.5Q246.0 249.0 242.5 249.0Q240.0 249.0 239.75 252.75Q239.5 256.5 239.5 265.0Q239.5 276.0 240.75 281.25Q242.0 286.5 246.5 286.5Q251.5 286.5 261.0 280.5Q275.5 272.0 275.5 267.75Q275.5 263.5 259.5 256.5ZM254.0 110.5Q245.5 106.0 239.25 102.5Q233.0 99.0 232.5 99.0Q232.0 99.0 232.25 106.5Q232.5 114.0 233.0 125.5Q234.0 136.5 236.25 144.25Q238.5 152.0 240.5 152.0Q243.5 152.0 249.75 148.0Q256.0 144.0 262.75 138.75Q269.5 133.5 273.75 129.0Q278.0 124.5 276.5 123.5Q275.5 122.5 269.0 119.0Q262.5 115.5 254.0 110.5ZM283.0 203.5 265.5 193.5Q257.5 190.0 251.0 187.25Q244.5 184.5 243.0 184.0Q242.0 184.0 241.75 189.5Q241.5 195.0 242.25 202.5Q243.0 210.0 244.0 216.5Q245.0 223.0 246.5 225.0Q247.5 225.0 253.0 222.25Q258.5 219.5 265.5 214.5ZM517.0 193.0Q510.0 189.0 503.5 186.5Q497.0 184.0 494.5 184.0Q492.5 184.0 491.0 194.5Q489.5 205.0 489.5 224.0Q489.5 240.0 490.25 251.75Q491.0 263.5 492.5 263.5Q494.0 263.5 499.5 260.0Q505.0 256.5 512.0 252.0Q518.0 247.5 530.0 241.5Q542.0 235.5 551.5 231.5Q561.5 228.0 568.5 224.25Q575.5 220.5 576.0 218.5Q576.5 216.5 570.5 213.5Q564.5 210.5 556.0 207.5Q547.0 205.0 535.75 200.75Q524.5 196.5 517.0 193.0ZM486.0 29.5H451.0Q436.5 29.5 423.75 28.5Q411.0 27.5 408.0 26.5Q398.5 22.5 397.0 29.5Q395.5 36.5 403.5 46.5Q407.5 51.5 414.0 62.0Q420.5 72.5 425.5 82.5L437.0 105.5L448.0 82.5Q452.0 72.5 459.0 61.5Q466.0 50.5 472.0 44.0ZM904.0 51.0H865.0Q849.5 51.0 834.75 50.0Q820.0 49.0 815.0 47.5Q804.0 44.5 803.25 52.25Q802.5 60.0 813.5 73.5Q817.5 79.5 824.25 92.0Q831.0 104.5 835.5 117.0Q840.0 129.0 844.5 137.75Q849.0 146.5 850.5 146.5Q852.0 146.5 854.75 139.5Q857.5 132.5 860.0 123.0Q863.0 113.5 870.25 99.5Q877.5 85.5 885.5 75.5ZM240.5 361.5Q219.5 356.0 203.5 352.5Q187.5 349.0 186.5 349.0Q185.0 349.0 184.0 361.0Q183.0 373.0 183.0 390.5L182.0 432.0L230.0 416.5Q243.5 412.0 260.0 407.75Q276.5 403.5 292.75 400.25Q309.0 397.0 320.5 395.5Q354.0 390.5 354.0 386.75Q354.0 383.0 320.5 378.0Q312.5 377.0 299.0 374.25Q285.5 371.5 270.0 368.0Q254.5 364.5 240.5 361.5ZM19.5 256.5Q21.0 233.0 23.0 216.25Q25.0 199.5 26.5 199.5Q27.5 200.0 31.5 206.5Q35.5 213.0 40.5 222.0Q47.5 236.0 54.0 244.75Q60.5 253.5 71.5 258.0Q82.5 262.5 101.5 264.5Q120.5 266.5 152.0 268.0Q196.5 269.0 207.75 270.75Q219.0 272.5 207.5 275.5Q199.5 277.5 182.25 278.25Q165.0 279.0 149.0 278.0Q125.0 276.0 109.25 278.5Q93.5 281.0 79.25 290.25Q65.0 299.5 45.5 318.0Q21.0 342.0 14.5 342.0Q10.0 342.0 13.0 328.0Q14.5 322.5 16.5 301.5Q18.5 280.5 19.5 256.5ZM370.5 11.5Q372.5 10.0 376.0 10.25Q379.5 10.5 382.5 11.5Q386.5 13.0 407.25 14.75Q428.0 16.5 454.0 18.0L516.0 20.5L492.0 41.5Q479.5 52.5 471.5 61.0Q463.5 69.5 459.0 79.5Q454.5 89.5 452.5 105.0Q450.5 120.5 450.25 144.75Q450.0 169.0 450.0 206.5Q450.0 237.0 449.5 262.0Q449.0 287.0 448.0 302.0Q447.0 317.0 445.5 317.0Q444.0 317.0 442.5 299.0Q441.0 281.0 440.5 256.5Q440.0 214.5 439.25 189.5Q438.5 164.5 437.75 151.75Q437.0 139.0 436.25 133.75Q435.5 128.5 434.0 126.5Q430.0 120.0 373.0 120.0Q353.0 120.0 340.5 120.5Q328.0 121.0 319.75 122.5Q311.5 124.0 304.0 127.0Q296.5 130.0 286.5 135.5Q258.5 150.0 253.0 159.25Q247.5 168.5 260.5 179.5Q265.0 183.0 269.75 185.25Q274.5 187.5 283.25 188.25Q292.0 189.0 307.75 188.75Q323.5 188.5 349.5 188.0Q381.0 187.5 403.25 188.0Q425.5 188.5 425.5 189.5Q425.5 192.0 414.75 194.5Q404.0 197.0 387.0 198.25Q370.0 199.5 350.5 199.5Q330.0 199.5 317.0 202.5Q304.0 205.5 287.0 214.0Q247.0 235.0 259.25 244.25Q271.5 253.5 338.0 253.5Q342.0 253.5 353.75 253.25Q365.5 253.0 379.25 252.75Q393.0 252.5 403.25 251.75Q413.5 251.0 415.0 250.5Q417.0 249.0 419.0 249.75Q421.0 250.5 422.5 252.0Q429.5 263.5 359.0 263.5Q336.0 263.5 318.5 266.75Q301.0 270.0 285.5 277.5Q270.0 285.0 253.5 298.0L236.0 311.5L230.0 268.0Q226.5 244.0 226.25 233.25Q226.0 222.5 229.0 221.0Q235.5 217.0 231.5 196.5Q230.5 188.0 229.0 175.75Q227.5 163.5 227.0 154.5Q226.0 146.0 224.25 129.5Q222.5 113.0 221.0 99.0L217.0 64.5L237.0 83.5Q249.0 95.0 258.75 101.5Q268.5 108.0 280.5 110.5Q292.5 113.0 311.5 113.0Q329.0 113.0 355.0 111.5Q382.5 110.0 396.5 108.5Q410.5 107.0 415.25 105.0Q420.0 103.0 420.0 99.5Q420.0 91.5 409.5 73.25Q399.0 55.0 382.5 34.0Q376.0 26.5 373.0 19.75Q370.0 13.0 370.5 11.5ZM797.0 65.0 775.5 33.5 804.0 36.5Q811.5 37.5 825.0 38.5Q838.5 39.5 854.5 40.0Q870.5 40.5 885.0 40.5H937.5L912.5 61.5Q903.0 70.5 892.25 84.25Q881.5 98.0 876.5 108.5Q872.0 117.0 869.5 125.25Q867.0 133.5 865.75 147.75Q864.5 162.0 863.75 187.75Q863.0 213.5 862.5 257.5Q862.0 318.0 862.75 351.5Q863.5 385.0 866.0 387.5Q872.0 393.0 865.5 403.0Q862.5 409.5 860.5 410.0Q858.5 410.5 855.5 406.5Q854.5 404.5 833.0 403.0Q811.5 401.5 775.75 400.5Q740.0 399.5 695.0 399.0Q650.0 398.5 602.0 398.5Q553.5 398.5 506.0 399.0Q458.5 399.5 418.0 400.5Q377.5 401.5 348.75 403.0Q320.0 404.5 309.0 406.5Q286.5 410.5 260.5 417.75Q234.5 425.0 213.0 433.25Q191.5 441.5 182.0 448.0Q171.5 454.0 168.5 454.0Q168.0 454.0 167.75 454.0Q167.5 454.0 167.5 454.0Q166.5 453.0 168.0 441.75Q169.5 430.5 171.5 416.5Q174.5 397.0 174.5 382.75Q174.5 368.5 172.0 356.0Q170.0 346.5 169.5 339.5Q169.0 332.5 169.5 332.5Q171.0 332.5 186.25 336.5Q201.5 340.5 221.0 346.0Q234.5 349.5 256.0 354.25Q277.5 359.0 302.0 363.5Q326.5 368.0 348.0 371.5Q370.0 375.0 388.25 377.5Q406.5 380.0 426.75 381.75Q447.0 383.5 474.75 384.25Q502.5 385.0 542.5 385.75Q582.5 386.5 641.0 387.0L853.5 388.5L851.0 306.0Q851.0 283.0 850.5 264.25Q850.0 245.5 849.5 234.0Q849.0 222.5 848.5 222.5Q848.5 222.0 830.25 222.5Q812.0 223.0 781.75 224.0Q751.5 225.0 714.5 226.0Q669.5 227.5 639.0 229.25Q608.5 231.0 588.5 233.75Q568.5 236.5 554.75 241.0Q541.0 245.5 530.25 252.5Q519.5 259.5 507.5 269.5Q498.5 278.0 491.0 283.75Q483.5 289.5 481.0 289.5Q480.0 288.5 479.25 275.5Q478.5 262.5 478.0 243.75Q477.5 225.0 477.5 206.5Q477.5 188.0 477.75 175.5Q478.0 163.0 479.0 163.0Q480.5 163.0 488.75 166.75Q497.0 170.5 507.0 176.0Q517.5 182.0 536.75 189.5Q556.0 197.0 573.0 202.5Q584.5 206.5 593.75 209.0Q603.0 211.5 613.5 213.0Q624.0 214.5 639.0 215.0Q654.0 215.5 676.5 215.5Q699.0 215.5 733.0 215.5L850.5 214.5V199.0Q850.5 190.5 845.5 173.75Q840.5 157.0 832.5 136.75Q824.5 116.5 815.25 97.5Q806.0 78.5 797.0 65.0Z" fill="black" /></svg>