<svg xmlns="http://www.w3.org/2000/svg" width="331.0" height="391.0" viewBox="0 0 331.0 391.0"><path d="M57.0 321.0Q48.0 316.5 40.75 313.5Q33.5 310.5 32.5 310.5Q32.0 310.5 31.0 318.0Q30.0 325.5 30.0 337.0V363.0L47.5 356.5Q53.5 353.0 63.25 349.75Q73.0 346.5 80.5 344.5Q93.5 341.5 96.0 337.0Q98.5 332.5 88.0 332.5Q84.0 332.5 74.75 329.25Q65.5 326.0 57.0 321.0ZM155.5 217.0Q161.0 213.0 160.25 211.0Q159.5 209.0 152.5 206.5Q149.0 205.0 146.75 204.0Q144.5 203.0 142.5 203.0Q136.0 203.0 136.0 214.5Q136.0 222.0 142.5 222.0Q148.5 222.0 155.5 217.0ZM155.5 283.0Q161.0 279.0 160.25 277.0Q159.5 275.0 152.5 272.5Q149.0 271.0 146.75 270.0Q144.5 269.0 142.5 269.0Q136.0 269.0 136.0 280.5Q136.0 288.0 142.5 288.0Q148.5 288.0 155.5 283.0ZM52.5 59.5Q47.5 56.0 43.0 53.25Q38.5 50.5 37.5 50.5Q36.5 50.5 35.5 58.75Q34.5 67.0 34.5 79.0Q34.5 91.5 35.5 99.75Q36.5 108.0 37.5 108.0Q39.5 108.0 48.25 104.25Q57.0 100.5 67.25 95.5Q77.5 90.5 85.0 86.0Q92.5 81.5 92.5 80.5Q92.5 79.5 88.25 77.25Q84.0 75.0 79.0 73.0Q73.5 71.0 65.75 67.0Q58.0 63.0 52.5 59.5ZM97.5 121.5Q100.0 119.0 97.0 117.75Q94.0 116.5 83.5 116.5Q68.0 116.5 66.75 120.0Q65.5 123.5 73.0 141.0L80.5 158.5L86.5 143.5Q89.0 136.5 92.5 130.0Q96.0 123.5 97.5 121.5ZM154.5 152.5Q150.0 150.0 147.0 148.75Q144.0 147.5 141.5 147.5Q136.0 147.5 136.0 156.0Q136.0 166.5 142.5 166.5Q146.5 166.5 153.0 163.0Q161.0 159.0 161.25 157.5Q161.5 156.0 154.5 152.5ZM260.5 88.5Q260.0 85.5 255.25 84.0Q250.5 82.5 235.25 82.0Q220.0 81.5 187.5 82.0Q156.0 82.0 139.25 82.75Q122.5 83.5 113.0 85.25Q103.5 87.0 93.0 91.5Q83.5 95.0 76.75 99.25Q70.0 103.5 70.0 104.5Q70.0 106.0 76.75 107.0Q83.5 108.0 92.5 108.0Q101.5 108.0 107.75 108.5Q114.0 109.0 114.0 109.5Q114.0 110.0 110.5 116.75Q107.0 123.5 102.0 132.0Q97.5 140.0 95.0 146.0Q92.5 152.0 91.5 161.25Q90.5 170.5 90.25 187.25Q90.0 204.0 90.0 233.5Q90.0 255.0 90.25 274.0Q90.5 293.0 91.25 305.5Q92.0 318.0 93.0 320.5Q94.0 323.0 97.5 324.5Q101.0 326.0 110.25 326.75Q119.5 327.5 138.0 327.75Q156.5 328.0 187.0 328.0H277.0V278.5L227.5 280.5Q206.0 281.0 193.75 282.0Q181.5 283.0 173.25 285.5Q165.0 288.0 154.5 293.5Q145.0 298.5 138.0 301.0Q131.0 303.5 130.0 302.5Q129.5 301.5 129.25 293.25Q129.0 285.0 129.0 275.5Q130.5 252.5 136.0 252.5Q140.5 252.5 153.0 262.5Q157.5 266.0 163.75 268.0Q170.0 270.0 183.0 270.5Q196.0 271.0 220.5 271.0H277.5L274.5 215.5H226.5Q204.5 215.5 192.75 216.5Q181.0 217.5 173.0 220.0Q165.0 222.5 154.5 228.0Q138.0 237.5 132.0 237.5Q131.5 237.5 131.5 237.25Q131.5 237.0 131.5 237.0Q130.5 233.0 130.25 221.0Q130.0 209.0 130.0 193.5Q130.0 178.0 130.5 163.5Q131.0 149.0 131.75 139.5Q132.5 130.0 133.0 130.0Q134.0 130.0 139.0 132.75Q144.0 135.5 149.5 139.5Q155.5 143.5 161.75 145.75Q168.0 148.0 180.0 149.25Q192.0 150.5 214.0 151.5Q237.0 152.0 252.25 151.25Q267.5 150.5 269.5 148.5Q275.0 141.5 260.5 88.5ZM277.0 205.0V160.5H227.5Q207.5 161.0 195.0 162.0Q182.5 163.0 174.5 164.75Q166.5 166.5 159.0 170.5Q142.0 178.5 141.25 184.0Q140.5 189.5 153.0 197.5Q158.5 200.5 165.75 202.0Q173.0 203.5 186.25 204.25Q199.5 205.0 221.5 205.0ZM303.0 31.0Q303.0 30.0 295.25 29.25Q287.5 28.5 277.0 28.5H250.5L259.5 51.0Q262.5 60.5 266.25 72.5Q270.0 84.5 271.0 91.0Q273.0 105.0 276.0 105.0Q280.0 105.0 283.0 85.5Q284.5 78.5 288.0 68.25Q291.5 58.0 295.0 50.5Q303.0 34.5 303.0 31.0ZM240.0 14.5Q242.5 10.0 247.5 15.0Q249.5 17.0 261.0 18.25Q272.5 19.5 286.5 19.5Q301.0 19.5 311.0 21.0Q321.0 22.5 321.0 24.0Q321.0 28.5 317.5 28.5Q315.5 28.5 312.5 33.25Q309.5 38.0 306.0 45.0Q299.5 58.5 295.25 71.25Q291.0 84.0 289.25 101.5Q287.5 119.0 286.75 146.5Q286.0 174.0 286.0 217.0V328.0H298.5Q313.0 328.0 314.25 332.25Q315.5 336.5 302.5 337.5Q293.0 338.5 290.25 341.0Q287.5 343.5 286.5 353.5Q285.0 367.5 281.0 367.5Q277.0 367.5 277.0 352.0V336.0L199.0 338.5Q168.5 339.5 149.0 340.5Q129.5 341.5 116.5 343.5Q103.5 345.5 92.5 349.0Q64.5 358.0 46.5 365.5Q28.5 373.0 25.0 378.0Q23.0 381.0 21.25 380.5Q19.5 380.0 16.5 377.5Q10.0 372.0 16.5 367.0Q19.0 364.5 20.5 353.5Q22.0 342.5 22.0 327.0Q22.0 313.0 22.5 302.75Q23.0 292.5 23.5 292.5Q24.0 292.5 32.25 297.5Q40.5 302.5 50.5 308.5Q60.5 314.5 68.5 317.75Q76.5 321.0 79.0 321.0Q79.0 321.0 79.25 321.0Q79.5 321.0 79.5 321.0Q80.5 320.5 81.0 300.5Q81.5 280.5 80.5 253.5Q79.5 227.5 78.0 210.75Q76.5 194.0 74.0 180.75Q71.5 167.5 67.0 152.5Q62.5 138.0 57.75 127.25Q53.0 116.5 50.5 116.5Q48.5 116.5 44.0 118.5Q39.5 120.5 35.5 124.0Q31.5 126.0 28.5 127.25Q25.5 128.5 25.5 127.0Q25.5 123.0 25.5 112.0Q25.5 101.0 25.75 87.25Q26.0 73.5 26.5 60.25Q27.0 47.0 27.25 38.0Q27.5 29.0 28.0 28.5Q28.0 28.5 28.25 28.5Q28.5 28.5 28.5 28.5Q31.0 28.5 37.0 32.5Q43.0 36.5 49.5 43.5Q70.0 62.0 88.5 67.5Q95.5 69.0 112.0 70.0Q128.5 71.0 149.5 71.75Q170.5 72.5 191.0 72.5Q217.0 72.5 236.0 71.5Q255.0 70.5 255.0 68.5Q255.0 66.5 252.25 58.5Q249.5 50.5 246.0 41.5Q242.5 31.5 240.75 23.75Q239.0 16.0 240.0 14.5Z" fill="black" /></svg>