<svg xmlns="http://www.w3.org/2000/svg" width="790.5" height="466.5" viewBox="0 0 790.5 466.5"><path d="M165.0 305.0 130.5 291.0 131.5 306.0Q131.5 306.5 131.25 310.5Q131.0 314.5 130.75 318.25Q130.5 322.0 130.5 322.0Q130.5 322.0 136.5 318.25Q142.5 314.5 144.5 314.0Q146.5 312.5 151.5 310.5Q156.5 308.5 160.75 306.75Q165.0 305.0 165.0 305.0ZM147.5 262.5Q149.0 261.5 154.5 259.25Q160.0 257.0 165.0 255.0Q170.0 253.0 170.0 253.0Q170.0 253.0 163.75 250.5Q157.5 248.0 150.75 245.25Q144.0 242.5 142.0 241.0Q139.0 238.5 135.25 236.5Q131.5 234.5 131.5 234.5Q131.5 234.5 131.75 240.25Q132.0 246.0 132.0 253.0L130.0 270.0Q130.0 270.0 137.5 267.25Q145.0 264.5 147.5 262.5ZM151.5 190.5Q146.5 187.5 141.5 183.75Q136.5 180.0 136.5 180.0L137.0 196.0L135.5 217.5Q135.5 217.5 143.75 213.25Q152.0 209.0 156.0 206.0L169.0 199.5Q169.0 199.5 162.0 196.25Q155.0 193.0 151.5 190.5ZM276.5 305.5V262.5H222.5Q187.0 262.5 169.25 267.25Q151.5 272.0 145.5 277.0Q139.5 282.0 139.5 282.0Q139.5 282.0 150.0 287.25Q160.5 292.5 180.5 298.0Q200.5 303.5 228.0 304.5Q241.0 305.0 255.75 305.25Q270.5 305.5 276.5 305.5ZM275.0 209.0 245.5 208.5Q218.5 208.5 204.25 207.75Q190.0 207.0 188.5 207.0Q179.0 207.0 168.75 212.0Q158.5 217.0 151.5 222.0Q144.5 227.0 144.5 227.0Q144.5 227.0 154.25 232.5Q164.0 238.0 182.0 243.75Q200.0 249.5 224.5 250.5L276.5 253.5V232.5Q276.5 224.0 275.75 216.5Q275.0 209.0 275.0 209.0ZM287.5 222.5 288.5 294.0 289.5 290.0Q290.5 288.0 290.5 278.5Q290.5 269.0 290.5 257.5Q290.5 246.0 290.25 237.25Q290.0 228.5 289.5 228.0Q289.5 227.0 289.25 226.25Q289.0 225.5 287.5 222.5ZM385.5 255.0 351.0 243.0Q341.0 240.5 329.25 237.25Q317.5 234.0 309.0 231.5Q300.5 229.0 300.5 229.0Q300.5 229.0 300.75 234.25Q301.0 239.5 301.0 246.25Q301.0 253.0 301.0 257.5Q301.0 265.5 300.5 275.75Q300.0 286.0 300.0 286.0Q315.5 277.5 326.0 274.0Q336.5 270.5 353.0 265.0ZM538.0 276.0Q535.0 273.5 528.75 268.25Q522.5 263.0 522.5 263.0Q522.5 263.0 506.25 262.75Q490.0 262.5 471.0 263.0Q437.5 263.5 412.0 266.0Q386.5 268.5 365.25 273.5Q344.0 278.5 324.0 286.5L288.0 301.5V387.5L306.0 389.0Q310.0 389.5 328.25 390.0Q346.5 390.5 375.25 390.75Q404.0 391.0 439.75 391.5Q475.5 392.0 514.5 392.0L704.5 394.0L704.0 371.0Q704.0 371.0 698.25 363.0Q692.5 355.0 683.25 342.5Q674.0 330.0 663.0 316.5Q652.0 303.0 642.0 292.5Q633.0 282.5 618.25 276.0Q603.5 269.5 587.5 266.25Q571.5 263.0 559.0 263.0Q546.5 263.0 543.75 262.75Q541.0 262.5 541.0 262.5L557.5 277.0Q564.5 286.5 557.0 287.0Q549.5 287.5 538.0 276.0ZM563.0 252.0H642.5L645.5 201.0ZM645.0 280.5 642.5 263.0 613.0 262.5 630.5 270.0Q636.5 273.0 638.5 274.25Q640.5 275.5 641.5 276.5Q642.5 277.5 645.0 280.5ZM154.0 73.0Q128.5 67.0 115.5 63.75Q102.5 60.5 97.5 60.5Q93.0 60.5 93.0 62.75Q93.0 65.0 94.5 69.5Q95.5 73.5 96.75 84.25Q98.0 95.0 98.0 105.5V132.5L120.5 122.0Q129.0 118.5 148.0 112.25Q167.0 106.0 184.0 102.0Q196.0 99.0 208.25 97.0Q220.5 95.0 228.75 93.75Q237.0 92.5 237.0 92.5Q237.0 92.5 228.5 90.5Q220.0 88.5 206.75 85.5Q193.5 82.5 179.5 79.0Q165.5 75.5 154.0 73.0ZM306.0 43.5Q306.0 42.0 293.5 40.75Q281.0 39.5 268.0 39.5Q261.0 39.5 255.5 40.0Q250.0 40.5 249.0 41.5Q248.5 42.0 249.5 47.75Q250.5 53.5 253.5 60.5Q254.5 62.5 256.0 67.5Q257.5 72.5 258.75 76.75Q260.0 81.0 260.0 81.0L293.0 84.5Q293.0 84.5 295.0 79.25Q297.0 74.0 299.5 66.75Q302.0 59.5 304.0 53.0Q306.0 46.5 306.0 43.5ZM266.5 103.5 278.5 134.5 289.0 103.5ZM436.5 103.5 300.0 104.0Q300.0 104.0 297.75 113.5Q295.5 123.0 292.75 137.25Q290.0 151.5 289.0 165.0L287.5 214.0L319.0 223.5Q367.5 237.5 411.5 244.75Q455.5 252.0 489.0 252.0H515.5L483.5 220.0Q464.5 200.5 451.0 189.0Q437.5 177.5 424.0 172.5Q410.5 167.5 391.5 167.5Q378.5 167.5 369.25 166.25Q360.0 165.0 360.0 163.5Q360.0 161.0 370.5 152.5Q381.0 144.0 394.5 134.5Q404.5 128.0 414.25 120.75Q424.0 113.5 430.25 108.5Q436.5 103.5 436.5 103.5ZM448.5 170.0V143.5Q448.5 121.0 440.0 121.0Q433.5 121.0 416.0 134.5Q411.0 138.5 404.75 143.25Q398.5 148.0 394.0 151.25Q389.5 154.5 389.5 154.5Q389.5 154.5 397.0 155.0Q404.5 155.5 414.0 156.75Q423.5 158.0 429.0 160.5ZM461.5 102.5V119.0Q465.0 116.5 470.25 112.5Q475.5 108.5 479.5 105.25Q483.5 102.0 483.5 102.0Q467.0 102.0 464.25 102.25Q461.5 102.5 461.5 102.5ZM514.0 130.0Q509.0 116.0 506.25 109.0Q503.5 102.0 503.5 102.0Q503.5 102.0 501.25 104.5Q499.0 107.0 494.5 110.5Q489.5 114.5 484.0 119.5Q478.5 124.5 478.5 124.5Q478.5 124.5 485.5 125.0Q492.5 125.5 499.0 126.5Q507.0 127.5 510.5 128.75Q514.0 130.0 514.0 130.0ZM563.0 89.5 556.0 57.5 520.5 87.0Q541.5 87.0 552.25 88.25Q563.0 89.5 563.0 89.5ZM746.5 34.5Q746.5 33.0 734.25 32.0Q722.0 31.0 704.5 31.0Q688.0 31.0 675.5 31.5Q663.0 32.0 663.0 33.0Q663.0 35.5 665.75 41.5Q668.5 47.5 672.0 56.0Q676.0 63.0 682.25 77.75Q688.5 92.5 693.5 104.0Q699.5 126.5 705.0 126.5Q705.5 126.5 706.0 125.5Q713.5 102.5 718.25 89.25Q723.0 76.0 726.75 68.0Q730.5 60.0 735.0 53.0Q740.5 47.0 743.5 41.5Q746.5 36.0 746.5 34.5ZM94.0 369.5Q71.0 364.5 53.0 361.0Q35.0 357.5 32.5 357.5Q31.0 357.5 30.75 367.5Q30.5 377.5 31.0 391.0Q31.5 404.5 32.75 415.5Q34.0 426.5 35.5 428.0Q35.5 428.0 51.25 424.25Q67.0 420.5 88.5 415.0Q97.5 412.5 111.75 409.25Q126.0 406.0 142.25 402.75Q158.5 399.5 172.75 397.0Q187.0 394.5 196.0 393.0Q205.0 391.5 205.0 391.5Q180.0 385.0 149.5 379.75Q119.0 374.5 94.0 369.5ZM704.0 350.5 702.5 265.0 682.5 263.0Q675.0 262.5 666.0 262.75Q657.0 263.0 657.0 263.0Q659.5 275.0 665.0 287.0Q670.5 299.0 676.5 309.0Q682.5 319.0 687.0 325.25Q691.5 331.5 691.5 331.5ZM643.0 12.5Q644.5 10.0 648.5 10.0Q653.5 10.0 657.0 12.5Q661.5 14.5 680.5 16.75Q699.5 19.0 722.0 19.0Q763.5 19.0 772.0 22.0Q780.5 25.0 764.0 35.0Q759.0 38.0 751.25 49.25Q743.5 60.5 736.5 73.0Q731.0 82.5 727.75 90.0Q724.5 97.5 722.75 106.75Q721.0 116.0 720.0 131.0Q719.0 146.0 718.5 170.75Q718.0 195.5 717.5 234.0L715.5 364.0L731.0 384.0Q742.0 398.0 747.0 406.25Q752.0 414.5 748.5 414.5Q746.0 414.5 740.5 411.0L734.5 405.5H716.5Q716.5 413.5 716.25 422.5Q716.0 431.5 716.0 440.0Q715.5 445.5 711.5 445.5Q707.0 445.5 705.5 439.0L704.5 404.5Q632.0 404.5 558.75 403.25Q485.5 402.0 413.0 402.5L288.0 403.5V429.5Q287.5 442.5 287.5 449.5Q287.5 456.5 282.0 456.5Q276.0 456.5 276.25 448.25Q276.5 440.0 276.0 430.0V404.0L208.5 407.5Q175.5 409.0 141.75 414.75Q108.0 420.5 80.5 428.0Q53.0 435.5 39.5 444.0Q28.0 453.0 23.5 453.0Q22.5 453.0 21.25 441.75Q20.0 430.5 20.0 415.0Q20.0 399.0 18.5 383.0Q17.0 367.0 14.5 360.5Q12.0 353.5 11.0 348.25Q10.0 343.0 11.0 342.5Q12.0 341.5 19.5 342.25Q27.0 343.0 37.5 345.0Q48.5 347.5 62.0 351.25Q75.5 355.0 84.5 357.5Q89.5 359.0 105.5 361.5Q121.5 364.0 143.25 367.5Q165.0 371.0 188.0 374.25Q211.0 377.5 231.0 380.5Q251.0 383.5 263.5 385.25Q276.0 387.0 276.0 387.0Q276.0 387.0 276.25 368.75Q276.5 350.5 276.5 325.0V314.0Q270.0 314.5 252.5 315.0Q235.0 315.5 215.0 315.5Q189.0 315.5 175.75 316.5Q162.5 317.5 155.5 321.0Q148.5 324.5 139.5 331.5L121.0 346.5L120.5 317.5Q120.5 306.0 119.75 288.0Q119.0 270.0 119.0 257.5Q119.0 243.5 119.5 231.0Q120.0 218.5 123.0 217.5Q127.0 215.5 126.75 206.25Q126.5 197.0 125.0 189.0Q123.5 180.5 123.5 174.0Q123.5 167.5 125.0 165.5Q126.5 164.5 136.75 168.5Q147.0 172.5 159.5 180.0Q167.0 184.0 170.25 186.0Q173.5 188.0 178.5 189.75Q183.5 191.5 196.0 195.0Q199.0 196.0 209.25 196.75Q219.5 197.5 230.5 197.5H273.5Q273.5 197.5 272.75 189.25Q272.0 181.0 270.5 169.0Q269.0 157.0 265.5 145.5L255.0 104.0L225.5 107.0Q214.5 107.5 195.25 112.0Q176.0 116.5 155.75 122.5Q135.5 128.5 120.0 134.25Q104.5 140.0 100.5 144.0Q96.0 149.5 93.0 149.5Q86.5 149.5 86.5 114.5Q86.5 100.0 84.25 84.5Q82.0 69.0 79.5 62.0Q77.0 56.0 76.25 50.25Q75.5 44.5 76.0 43.5Q77.5 42.5 90.5 45.75Q103.5 49.0 119.5 53.0Q137.0 58.5 159.0 63.5Q181.0 68.5 201.0 72.25Q221.0 76.0 234.0 78.0Q247.0 80.0 247.0 80.0Q247.0 80.0 244.5 70.25Q242.0 60.5 238.5 51.5Q234.5 42.0 231.25 35.25Q228.0 28.5 228.0 28.0Q228.0 27.5 237.75 27.5Q247.5 27.5 262.0 27.75Q276.5 28.0 291.25 28.25Q306.0 28.5 316.75 29.0Q327.5 29.5 329.0 29.5Q329.0 30.5 326.0 37.5Q323.0 44.5 318.0 54.0Q313.0 63.5 309.5 74.75Q306.0 86.0 306.0 86.0Q306.0 86.0 329.5 88.25Q353.0 90.5 398.0 90.5H490.0L529.0 60.5Q545.0 47.5 557.75 39.25Q570.5 31.0 571.5 31.0Q572.5 31.0 572.0 39.25Q571.5 47.5 573.5 60.5L578.5 90.5H605.0Q614.0 90.5 624.0 91.0Q634.0 91.5 642.0 92.5Q650.0 93.5 652.0 95.0Q657.0 98.5 648.0 101.0Q639.0 103.5 621.5 103.5H583.0Q583.0 103.5 591.75 114.75Q600.5 126.0 610.0 138.0Q618.5 148.0 626.5 158.0Q634.5 168.0 639.25 175.0Q644.0 182.0 641.5 184.0Q638.5 184.0 631.0 177.25Q623.5 170.5 613.75 159.75Q604.0 149.0 594.0 138.0Q580.0 121.5 571.5 114.25Q563.0 107.0 557.25 105.25Q551.5 103.5 545.0 103.5Q539.5 103.5 530.0 102.75Q520.5 102.0 520.5 102.0L526.5 131.5Q526.5 131.5 535.5 145.25Q544.5 159.0 561.5 177.5Q576.5 194.5 586.25 204.5Q596.0 214.5 591.0 218.5Q587.5 221.5 574.25 208.75Q561.0 196.0 542.5 177.5Q530.0 164.0 524.0 156.25Q518.0 148.5 514.25 144.25Q510.5 140.0 505.75 138.25Q501.0 136.5 491.0 136.0Q486.5 135.5 479.75 134.75Q473.0 134.0 467.75 133.0Q462.5 132.0 462.5 132.0Q462.5 132.0 462.0 139.0Q461.5 146.0 461.5 149.0Q461.5 166.0 473.25 185.75Q485.0 205.5 506.0 226.5Q510.5 231.0 516.25 237.0Q522.0 243.0 526.5 247.5Q531.0 252.0 531.0 252.0H541.5Q541.5 252.0 551.25 246.25Q561.0 240.5 576.5 230.5Q592.0 220.5 609.0 209.0Q628.5 194.5 643.5 184.5Q658.5 174.5 660.5 174.5Q661.0 175.0 660.75 181.5Q660.5 188.0 660.0 196.5Q659.5 205.0 658.0 212.5Q655.5 235.0 655.5 243.5Q655.5 252.0 655.5 252.0H702.5L701.0 208.5Q700.5 184.0 694.0 154.5Q687.5 125.0 677.25 95.75Q667.0 66.5 654.0 43.5Q648.0 33.0 645.0 23.75Q642.0 14.5 643.0 12.5Z" fill="black" /></svg>