<svg xmlns="http://www.w3.org/2000/svg" width="589.0" height="372.5" viewBox="0 0 589.0 372.5"><path d="M82.0 211.0Q83.0 210.0 77.0 208.25Q71.0 206.5 62.5 205.0Q53.5 203.0 47.25 202.0Q41.0 201.0 41.0 201.0Q40.5 202.0 40.0 208.5Q39.5 215.0 39.75 220.75Q40.0 226.5 41.0 226.5Q42.5 226.5 48.5 224.5Q54.5 222.5 61.75 219.5Q69.0 216.5 75.0 214.0Q81.0 211.5 82.0 211.0ZM105.5 268.0 74.5 263.5Q62.0 261.0 51.5 259.0Q41.0 257.0 38.5 256.5Q37.0 255.5 35.25 256.0Q33.5 256.5 32.5 257.5Q31.5 259.5 31.0 265.75Q30.5 272.0 30.5 279.0Q30.5 286.0 31.0 291.0Q31.5 296.0 32.5 295.5Q45.0 289.5 62.0 282.75Q79.0 276.0 89.0 273.0ZM336.5 267.0Q336.5 265.5 335.0 265.5Q333.0 265.5 328.5 267.5Q324.0 269.5 317.0 273.0Q310.5 276.5 298.75 280.75Q287.0 285.0 274.0 288.75Q261.0 292.5 249.5 295.0L238.0 297.0L250.0 310.0Q255.5 315.0 260.75 320.75Q266.0 326.5 268.0 329.5L274.0 337.5L278.5 329.5Q280.5 326.5 289.5 316.25Q298.5 306.0 309.5 295.0Q321.0 284.0 328.75 275.75Q336.5 267.5 336.5 267.0ZM79.0 157.0Q75.5 157.0 68.5 156.25Q61.5 155.5 56.0 154.5Q49.5 153.0 46.5 153.0Q42.5 153.0 41.75 155.5Q41.0 158.0 41.0 164.5Q41.0 177.0 46.0 175.5Q48.0 175.0 54.75 173.0Q61.5 171.0 69.5 169.0Q84.0 164.5 87.0 160.75Q90.0 157.0 79.0 157.0ZM87.5 87.0Q76.5 86.0 66.75 84.25Q57.0 82.5 53.0 82.0Q49.5 80.5 47.5 80.5Q44.5 80.5 43.75 84.75Q43.0 89.0 43.0 100.5Q43.0 109.5 43.5 116.0Q44.0 122.5 44.5 122.5Q44.5 122.5 50.25 119.5Q56.0 116.5 63.5 112.5Q71.5 108.5 81.75 104.75Q92.0 101.0 98.5 99.0Q105.5 96.5 110.0 94.75Q114.5 93.0 113.5 92.5Q113.0 91.5 105.25 90.25Q97.5 89.0 87.5 87.0ZM138.5 166.5Q141.0 162.5 140.5 161.5Q140.0 160.5 134.0 161.5Q128.5 161.5 116.25 163.75Q104.0 166.0 90.75 169.5Q77.5 173.0 68.0 176.5Q57.0 180.0 50.25 185.75Q43.5 191.5 46.0 194.5Q47.0 196.0 58.25 197.25Q69.5 198.5 85.75 199.75Q102.0 201.0 119.25 201.75Q136.5 202.5 150.0 202.5Q163.5 202.5 169.0 202.0L187.0 199.0L176.0 190.0Q171.5 186.0 166.75 183.0Q162.0 180.0 159.5 180.0Q157.5 180.0 153.0 179.0Q148.5 178.0 144.5 176.5Q138.0 173.5 136.75 171.75Q135.5 170.0 138.5 166.5ZM214.0 229.5 196.0 207.0 173.5 208.0Q149.5 208.5 125.75 212.0Q102.0 215.5 81.75 220.75Q61.5 226.0 48.5 233.5Q24.0 245.0 52.25 251.5Q80.5 258.0 158.5 258.0Q189.0 258.0 210.25 257.0Q231.5 256.0 231.5 255.0Q231.5 254.0 226.5 246.5Q221.5 239.0 214.0 229.5ZM262.0 82.5Q262.0 79.5 256.0 79.5Q253.0 79.5 249.25 80.5Q245.5 81.5 243.5 84.0Q239.5 90.5 191.5 92.5Q157.5 94.0 128.5 99.75Q99.5 105.5 78.5 114.0Q57.5 122.5 47.5 133.0Q42.0 140.0 44.5 143.5Q47.0 145.0 57.0 146.5Q67.0 148.0 80.75 149.5Q94.5 151.0 109.25 152.0Q124.0 153.0 136.0 153.0H166.0L206.0 127.5Q236.5 108.0 249.25 97.5Q262.0 87.0 262.0 82.5ZM212.5 144.0Q218.0 138.0 221.0 133.0Q224.0 128.0 223.0 127.5Q222.0 127.5 214.25 131.75Q206.5 136.0 196.0 142.5Q185.5 149.0 175.25 155.5Q165.0 162.0 161.5 163.5Q155.5 168.0 156.5 169.75Q157.5 171.5 169.0 177.0Q183.5 183.5 189.0 183.5Q193.0 183.5 194.75 180.75Q196.5 178.0 198.5 172.0Q199.5 166.5 203.5 158.5Q207.5 150.5 212.5 144.0ZM314.0 93.0Q301.0 87.5 293.5 85.0Q286.0 82.5 281.5 82.5Q275.5 82.5 271.25 86.25Q267.0 90.0 260.0 98.5Q242.5 118.5 227.75 137.5Q213.0 156.5 209.0 163.5Q206.5 168.5 205.5 177.0Q204.5 185.5 205.5 193.0Q206.5 200.5 209.0 202.0Q212.0 205.0 212.0 210.0Q212.0 212.0 216.0 219.0Q220.0 226.0 226.0 233.5Q231.5 241.5 238.25 251.5Q245.0 261.5 248.0 268.5Q252.0 275.0 255.5 280.0Q259.0 285.0 260.5 285.0Q264.5 285.0 276.25 281.25Q288.0 277.5 302.25 271.75Q316.5 266.0 327.5 260.5Q348.0 250.5 369.75 236.75Q391.5 223.0 416.5 204.0Q429.0 195.0 435.0 189.75Q441.0 184.5 440.0 179.75Q439.0 175.0 430.25 167.75Q421.5 160.5 404.0 147.0Q378.5 128.5 357.0 115.25Q335.5 102.0 314.0 93.0ZM311.0 44.5Q306.0 33.0 303.5 33.0Q303.0 33.0 300.75 35.5Q298.5 38.0 296.0 42.0Q294.0 46.0 288.5 51.0Q283.0 56.0 278.0 58.5Q273.5 61.5 270.0 64.25Q266.5 67.0 266.5 67.5Q266.5 68.5 272.0 70.5Q277.5 72.5 284.0 74.5Q292.0 76.5 305.75 82.0Q319.5 87.5 331.0 93.0Q341.5 97.5 349.25 100.75Q357.0 104.0 359.0 104.0Q359.5 104.0 359.5 103.75Q359.5 103.5 359.5 103.5Q359.5 103.0 353.25 95.75Q347.0 88.5 338.0 79.0Q329.5 69.0 321.5 59.0Q313.5 49.0 311.0 44.5ZM524.5 115.0Q530.0 107.5 527.5 107.5Q524.0 107.5 497.5 124.5Q486.5 131.0 476.75 137.5Q467.0 144.0 464.5 145.0Q461.0 147.0 462.25 148.5Q463.5 150.0 470.0 152.5Q475.0 154.5 480.5 157.0Q486.0 159.5 488.5 160.5Q493.0 163.5 496.0 163.5Q503.0 163.5 503.0 154.0Q503.0 145.0 524.5 115.0ZM296.5 25.0Q301.5 10.0 304.0 10.0Q305.0 10.0 307.75 15.75Q310.5 21.5 314.0 30.0Q318.0 38.0 326.75 51.0Q335.5 64.0 344.0 73.5Q351.0 81.5 363.5 94.25Q376.0 107.0 390.75 121.25Q405.5 135.5 419.5 148.25Q433.5 161.0 443.25 169.0Q453.0 177.0 455.0 177.0Q457.5 177.0 462.75 182.75Q468.0 188.5 472.0 194.75Q476.0 201.0 474.5 202.5Q473.5 203.5 470.0 201.5Q466.5 199.5 462.5 196.0L453.5 187.0L438.5 198.0Q396.0 230.0 362.5 258.25Q329.0 286.5 307.75 308.75Q286.5 331.0 279.5 344.5Q276.0 352.5 272.25 357.5Q268.5 362.5 267.5 362.5Q265.5 362.5 265.0 358.5Q264.5 354.5 263.5 349.0Q263.5 336.5 255.0 324.5Q246.5 312.5 226.0 297.0Q213.5 287.5 209.25 282.25Q205.0 277.0 209.0 277.0Q213.5 277.0 224.0 282.0Q234.0 287.0 240.0 287.0Q249.5 287.0 243.5 273.0Q241.0 269.0 237.75 267.5Q234.5 266.0 223.0 266.0Q209.0 266.0 186.75 267.25Q164.5 268.5 139.25 271.75Q114.0 275.0 90.5 280.75Q67.0 286.5 50.0 295.75Q33.0 305.0 27.5 318.0Q23.0 329.0 18.5 329.5Q14.0 330.0 17.5 319.0Q18.5 315.5 20.5 306.75Q22.5 298.0 23.5 289.0Q24.5 276.0 23.75 269.0Q23.0 262.0 17.5 253.0L10.0 238.0L18.5 239.5Q27.5 240.5 30.5 228.75Q33.5 217.0 27.5 202.5Q22.5 189.0 22.5 186.5Q22.5 184.0 27.5 184.0Q33.5 184.0 33.5 170.5Q33.5 165.0 32.5 161.0Q31.5 157.0 29.0 157.0Q25.5 157.0 26.5 151.0Q29.0 146.0 25.0 143.5Q22.0 140.0 27.5 136.5Q32.5 132.5 34.75 121.0Q37.0 109.5 36.5 96.5Q36.0 83.5 32.0 76.0Q24.5 61.0 29.5 61.0Q33.0 61.0 42.5 67.0Q56.0 75.0 84.5 79.25Q113.0 83.5 161.5 83.5Q185.5 83.5 200.75 82.75Q216.0 82.0 226.5 79.25Q237.0 76.5 246.75 70.75Q256.5 65.0 269.5 55.5Q291.0 40.0 296.5 25.0ZM563.5 71.5Q566.5 68.5 570.5 66.25Q574.5 64.0 576.5 64.0Q579.0 64.0 575.5 69.25Q572.0 74.5 563.0 84.0Q555.0 92.5 544.25 104.75Q533.5 117.0 526.0 126.0Q518.5 136.0 515.25 141.5Q512.0 147.0 511.75 152.0Q511.5 157.0 512.5 166.5Q514.5 178.5 518.5 186.0Q522.5 193.5 534.5 206.5Q549.5 223.5 557.75 236.5Q566.0 249.5 564.5 255.0Q564.5 255.0 564.5 255.0Q564.5 255.0 564.0 255.0Q563.0 255.0 558.75 250.25Q554.5 245.5 548.5 238.0Q543.0 229.5 531.25 215.5Q519.5 201.5 509.5 190.5Q498.5 179.5 491.25 173.5Q484.0 167.5 477.25 164.25Q470.5 161.0 460.0 158.5Q450.5 155.5 443.75 152.5Q437.0 149.5 437.0 148.5Q437.0 147.5 440.75 145.5Q444.5 143.5 449.5 142.0Q454.5 140.0 466.5 133.5Q478.5 127.0 493.75 117.75Q509.0 108.5 524.0 99.0Q539.0 89.5 549.75 82.0Q560.5 74.5 563.5 71.5Z" fill="black" /></svg>