<svg xmlns="http://www.w3.org/2000/svg" width="788.0" height="388.0" viewBox="0 0 788.0 388.0"><path d="M60.5 226.5Q52.0 221.5 41.0 210.0L29.0 198.0L26.5 211.5Q25.5 217.5 24.75 227.0Q24.0 236.5 24.0 244.5V263.5L46.0 247.0Q60.5 236.5 63.0 233.0Q65.5 229.5 60.5 226.5ZM201.0 301.0Q183.5 296.5 170.25 293.5Q157.0 290.5 156.0 290.5Q155.0 290.5 154.0 300.5Q153.0 310.5 153.0 325.0L152.5 359.5L192.0 346.5Q208.5 341.0 230.5 336.0Q252.5 331.0 267.0 329.0Q295.0 325.0 295.0 321.75Q295.0 318.5 267.0 314.5Q257.5 313.5 238.0 309.25Q218.5 305.0 201.0 301.0ZM216.5 214.0Q205.5 208.0 202.5 208.0Q200.5 208.0 200.25 211.0Q200.0 214.0 200.0 221.0Q200.0 239.0 206.0 239.0Q209.0 239.0 218.0 234.0Q230.0 227.0 229.75 223.5Q229.5 220.0 216.5 214.0ZM212.0 93.0Q205.0 89.0 199.75 86.25Q194.5 83.5 194.0 83.5Q193.5 83.5 193.75 89.75Q194.0 96.0 194.5 105.5Q195.5 115.0 197.25 121.25Q199.0 127.5 201.0 127.5Q204.5 127.0 212.0 121.75Q219.5 116.5 225.75 110.75Q232.0 105.0 230.5 104.0Q230.0 103.0 224.5 100.0Q219.0 97.0 212.0 93.0ZM236.0 170.0 221.5 162.0Q215.0 159.0 209.5 156.75Q204.0 154.5 203.0 154.0Q202.0 154.0 202.0 161.75Q202.0 169.5 203.25 177.75Q204.5 186.0 206.0 188.0Q208.0 188.0 221.5 179.5ZM430.0 161.5Q424.0 158.5 418.75 156.25Q413.5 154.0 411.0 154.0Q409.0 154.0 408.0 162.75Q407.0 171.5 407.0 187.0Q407.0 200.5 407.75 210.25Q408.5 220.0 409.5 220.0Q410.5 220.0 415.25 217.0Q420.0 214.0 425.5 210.5Q431.0 206.5 440.75 201.75Q450.5 197.0 458.5 193.5Q466.5 190.5 472.25 187.25Q478.0 184.0 478.5 182.5Q479.0 181.0 474.0 178.5Q469.0 176.0 462.0 173.5Q454.5 171.5 445.25 168.0Q436.0 164.5 430.0 161.5ZM404.0 26.0H375.0Q363.0 26.0 352.5 25.25Q342.0 24.5 339.5 23.5Q331.5 20.5 330.5 26.0Q329.5 31.5 336.0 40.0Q339.5 44.0 344.75 52.75Q350.0 61.5 354.0 70.0L363.5 89.0L372.5 70.0Q376.0 61.5 381.75 52.25Q387.5 43.0 392.5 38.0ZM750.5 44.0H718.0Q705.5 44.0 693.0 43.0Q680.5 42.0 676.5 41.0Q667.0 38.5 666.75 44.75Q666.5 51.0 675.5 62.5Q679.0 67.5 684.5 78.0Q690.0 88.5 693.5 98.5Q697.5 108.5 701.25 115.75Q705.0 123.0 706.0 123.0Q707.0 123.0 709.5 117.25Q712.0 111.5 714.0 103.5Q716.5 95.5 722.5 84.0Q728.5 72.5 735.0 64.0ZM18.0 214.0Q19.0 194.5 20.75 180.75Q22.5 167.0 23.5 167.0Q24.5 167.5 28.0 172.75Q31.5 178.0 35.0 185.5Q40.5 197.5 46.0 204.5Q51.5 211.5 60.75 215.25Q70.0 219.0 85.75 220.75Q101.5 222.5 127.5 223.5Q164.5 224.5 173.75 226.0Q183.0 227.5 173.5 230.0Q167.0 231.5 152.75 232.0Q138.5 232.5 125.0 232.0Q105.5 230.0 92.25 232.25Q79.0 234.5 67.25 242.0Q55.5 249.5 39.5 265.0Q19.0 285.0 13.5 285.0Q10.0 285.0 12.5 273.5Q13.5 268.5 15.25 251.25Q17.0 234.0 18.0 214.0ZM308.5 11.0Q310.0 10.0 313.0 10.0Q316.0 10.0 318.5 11.0Q321.5 12.5 338.75 14.0Q356.0 15.5 377.5 16.5L429.0 18.5L409.0 36.0Q396.0 47.5 388.75 56.0Q381.5 64.5 378.5 76.75Q375.5 89.0 375.0 111.25Q374.5 133.5 374.5 172.5Q374.5 197.5 374.0 218.5Q373.5 239.5 372.5 251.75Q371.5 264.0 370.5 264.0Q369.5 264.0 368.25 249.25Q367.0 234.5 366.5 214.0Q366.0 179.5 365.5 158.75Q365.0 138.0 364.25 127.5Q363.5 117.0 362.75 112.75Q362.0 108.5 361.0 106.5Q358.0 101.0 310.5 101.0Q288.5 101.0 277.0 101.75Q265.5 102.5 257.75 105.25Q250.0 108.0 239.0 114.0Q216.0 126.0 211.25 133.75Q206.5 141.5 217.5 150.5Q222.5 154.5 228.5 156.25Q234.5 158.0 248.5 158.0Q262.5 158.0 291.0 157.5Q317.5 157.0 335.75 157.25Q354.0 157.5 354.0 158.5Q354.0 160.5 345.25 162.5Q336.5 164.5 322.25 165.75Q308.0 167.0 292.0 167.0Q275.0 167.0 264.25 169.5Q253.5 172.0 239.5 179.0Q206.0 196.0 216.25 203.75Q226.5 211.5 281.0 211.5Q284.5 211.5 294.25 211.25Q304.0 211.0 315.5 210.75Q327.0 210.5 335.75 210.0Q344.5 209.5 345.5 209.0Q348.5 206.5 351.5 210.5Q357.5 220.0 299.0 220.0Q270.5 220.0 251.25 226.25Q232.0 232.5 211.5 248.5L197.0 259.5L192.0 223.5Q189.0 203.5 189.0 194.75Q189.0 186.0 191.5 184.5Q196.5 181.0 193.5 164.5Q192.5 157.5 191.25 147.25Q190.0 137.0 189.5 129.5Q189.0 122.5 187.5 109.0Q186.0 95.5 184.5 83.5L181.5 55.0L198.0 71.0Q208.0 80.5 216.0 85.75Q224.0 91.0 234.0 93.25Q244.0 95.5 259.5 95.5Q274.0 95.5 295.5 94.0Q318.5 92.5 330.0 91.5Q341.5 90.5 345.5 88.75Q349.5 87.0 349.5 84.0Q349.5 77.5 340.75 62.25Q332.0 47.0 318.5 30.0Q313.5 23.5 310.75 18.0Q308.0 12.5 308.5 11.0ZM661.5 55.5 644.0 29.5 667.5 32.0Q677.0 33.0 696.75 34.0Q716.5 35.0 734.5 35.0H778.0L757.5 52.5Q749.5 60.0 740.5 71.5Q731.5 83.0 727.5 91.5Q724.0 98.5 721.75 105.25Q719.5 112.0 718.5 124.0Q717.5 136.0 717.0 157.25Q716.5 178.5 716.0 215.0Q715.5 265.0 716.25 292.5Q717.0 320.0 719.0 322.5Q723.5 327.0 718.5 335.5Q716.0 341.0 714.25 341.5Q712.5 342.0 710.0 338.5Q709.0 337.0 691.25 335.5Q673.5 334.0 644.0 333.25Q614.5 332.5 577.25 332.0Q540.0 331.5 500.0 331.5Q460.0 331.5 420.75 332.0Q381.5 332.5 347.75 333.25Q314.0 334.0 290.25 335.5Q266.5 337.0 257.5 338.5Q239.0 341.5 217.5 347.75Q196.0 354.0 178.25 360.5Q160.5 367.0 152.5 372.5Q148.0 375.0 144.75 376.5Q141.5 378.0 140.5 377.5Q139.5 376.5 140.5 367.5Q141.5 358.5 143.5 346.5Q146.0 330.5 146.25 318.75Q146.5 307.0 144.0 296.5Q142.0 288.5 141.75 282.75Q141.5 277.0 142.0 277.0Q143.0 277.0 155.75 280.5Q168.5 284.0 184.5 288.0Q195.5 291.0 213.5 295.0Q231.5 299.0 251.75 302.75Q272.0 306.5 290.0 309.5Q308.0 312.5 323.25 314.5Q338.5 316.5 355.25 317.75Q372.0 319.0 395.0 319.75Q418.0 320.5 451.0 321.0Q484.0 321.5 532.5 322.0L708.5 323.5L706.5 255.0Q706.0 227.0 705.5 206.75Q705.0 186.5 704.5 186.0Q704.5 185.5 689.25 186.0Q674.0 186.5 649.0 187.25Q624.0 188.0 593.5 189.0Q547.0 190.5 518.75 192.5Q490.5 194.5 473.75 198.0Q457.0 201.5 445.75 208.0Q434.5 214.5 422.0 225.0Q414.0 232.0 407.75 236.75Q401.5 241.5 400.0 241.5Q399.5 240.5 398.75 229.75Q398.0 219.0 397.75 203.5Q397.5 188.0 397.25 172.5Q397.0 157.0 397.5 146.75Q398.0 136.5 398.5 136.5Q399.5 136.5 406.5 139.75Q413.5 143.0 421.5 147.5Q430.0 152.5 446.0 158.75Q462.0 165.0 476.0 169.5Q488.0 173.5 497.5 175.75Q507.0 178.0 519.5 179.0Q532.0 180.0 552.75 180.0Q573.5 180.0 608.5 180.0L706.0 179.5V166.5Q706.0 159.5 701.75 145.5Q697.5 131.5 691.0 115.0Q684.5 98.5 676.75 82.5Q669.0 66.5 661.5 55.5Z" fill="black" /></svg>