<svg xmlns="http://www.w3.org/2000/svg" width="585.0" height="374.5" viewBox="0 0 585.0 374.5"><path d="M294.0 281.5 274.5 279.5Q266.5 277.5 257.5 276.0Q248.5 274.5 243.0 273.5L232.5 270.5L244.5 297.5Q250.0 310.5 254.75 318.0Q259.5 325.5 261.5 325.5Q263.5 325.5 263.5 320.5Q263.5 319.0 268.0 312.5Q272.5 306.0 279.0 299.0ZM158.5 112.0Q163.0 105.0 155.5 109.0Q148.0 113.0 127.5 129.5Q117.0 138.5 100.5 151.5Q84.0 164.5 71.5 173.0Q59.0 181.0 50.25 188.5Q41.5 196.0 41.5 197.0Q41.5 198.5 48.25 199.5Q55.0 200.5 64.5 200.5Q74.5 200.5 83.75 202.0Q93.0 203.5 97.0 204.5Q101.0 206.5 105.5 206.5Q112.5 206.5 116.75 201.0Q121.0 195.5 121.0 186.5Q121.0 175.5 127.5 161.75Q134.0 148.0 145.5 131.5Q149.5 126.0 153.5 120.5Q157.5 115.0 158.5 112.0ZM268.0 35.5Q268.0 31.5 266.0 31.5Q261.5 31.5 248.5 54.5L235.5 77.5L246.0 74.5Q250.5 73.5 259.25 72.5Q268.0 71.5 276.0 71.5H295.5L281.5 56.0Q276.0 49.0 272.0 43.25Q268.0 37.5 268.0 35.5ZM204.0 52.0Q209.5 45.0 214.25 40.25Q219.0 35.5 220.0 35.5Q231.0 35.5 203.5 68.0Q182.0 94.0 165.25 118.5Q148.5 143.0 139.0 162.5Q129.5 182.0 128.5 193.5Q127.5 205.0 136.5 205.0Q145.0 205.0 140.5 209.5Q134.0 216.0 140.0 224.75Q146.0 233.5 166.5 247.0Q177.5 253.5 192.0 265.0Q206.5 276.5 214.5 285.5Q230.5 301.0 234.5 301.0Q240.0 301.0 223.5 272.0Q218.0 262.0 214.5 254.25Q211.0 246.5 211.5 245.5Q216.5 245.5 235.5 257.0Q248.5 265.0 258.5 267.25Q268.5 269.5 288.0 269.5Q299.0 269.5 308.5 268.25Q318.0 267.0 331.75 262.5Q345.5 258.0 369.5 248.5Q393.5 239.0 433.5 223.0Q463.5 210.5 489.0 200.75Q514.5 191.0 531.25 185.25Q548.0 179.5 550.5 179.5Q551.5 180.5 552.25 182.0Q553.0 183.5 552.0 184.0Q551.5 184.5 535.25 191.25Q519.0 198.0 492.25 208.5Q465.5 219.0 433.5 232.0Q402.0 245.0 373.25 257.25Q344.5 269.5 325.25 278.0Q306.0 286.5 301.5 289.0Q292.0 295.0 283.25 305.75Q274.5 316.5 269.0 328.5Q263.5 340.5 263.5 350.5Q263.5 364.5 260.0 364.5Q255.0 364.5 250.5 340.0Q248.5 330.5 245.25 323.25Q242.0 316.0 239.5 316.0Q237.5 316.0 229.0 309.75Q220.5 303.5 211.5 294.5Q202.5 285.5 187.25 274.0Q172.0 262.5 155.0 250.75Q138.0 239.0 122.5 229.75Q107.0 220.5 97.0 216.5Q90.5 213.5 79.0 211.5Q67.5 209.5 58.5 209.5Q50.5 209.5 40.0 208.5Q29.5 207.5 24.0 206.5L10.0 203.5L42.0 182.5Q56.0 173.5 75.0 159.25Q94.0 145.0 114.5 129.0Q135.0 113.0 153.75 97.5Q172.5 82.0 186.0 69.75Q199.5 57.5 204.0 52.0ZM253.0 29.5Q263.0 10.0 267.5 10.0Q272.0 10.0 272.5 23.5Q272.5 30.0 282.25 41.75Q292.0 53.5 305.75 64.75Q319.5 76.0 331.5 81.5Q338.0 84.5 358.0 92.25Q378.0 100.0 405.75 110.25Q433.5 120.5 463.5 131.5Q493.5 142.5 518.5 151.5Q543.5 160.5 558.5 166.0Q573.5 171.5 574.0 172.0Q575.0 174.5 572.5 176.5Q572.0 178.0 569.5 178.0Q567.5 178.0 560.25 175.75Q553.0 173.5 537.25 168.0Q521.5 162.5 493.5 152.25Q465.5 142.0 421.0 125.5Q380.5 110.5 356.25 102.0Q332.0 93.5 317.75 89.5Q303.5 85.5 293.75 84.25Q284.0 83.0 272.5 83.0Q255.0 83.0 243.25 84.75Q231.5 86.5 224.5 91.0Q214.0 96.5 209.5 96.5Q202.0 96.5 223.0 74.0Q230.0 66.0 239.0 52.75Q248.0 39.5 253.0 29.5Z" fill="black" /></svg>