<svg xmlns="http://www.w3.org/2000/svg" width="528.0" height="384.0" viewBox="0 0 528.0 384.0"><path d="M57.0 234.5Q56.5 234.5 50.5 231.0Q44.5 227.5 37.0 223.5L18.0 213.0V259.5L29.0 251.0Q33.0 248.0 39.0 244.25Q45.0 240.5 49.0 239.0Q57.5 235.5 57.0 234.5ZM200.0 239.0Q194.5 235.0 190.0 232.25Q185.5 229.5 185.0 229.5Q184.5 229.5 183.0 236.75Q181.5 244.0 180.0 253.25Q178.5 262.5 178.0 270.0Q177.5 277.5 178.0 278.5Q178.5 279.0 188.0 278.25Q197.5 277.5 210.0 276.0Q223.0 274.5 236.75 273.25Q250.5 272.0 257.0 272.0H273.0L255.0 266.0Q239.5 261.0 227.0 254.75Q214.5 248.5 200.0 239.0ZM48.5 82.5Q40.5 79.5 34.75 77.0Q29.0 74.5 29.0 74.5Q28.5 74.5 28.25 80.0Q28.0 85.5 28.0 93.0Q28.0 100.0 28.25 105.5Q28.5 111.0 29.0 111.0Q32.0 111.0 44.5 102.5Q50.5 99.0 56.75 96.75Q63.0 94.5 65.5 94.5Q72.5 94.5 68.5 91.75Q64.5 89.0 48.5 82.5ZM59.5 156.0 73.0 130.5H60.5Q55.5 130.5 51.5 130.75Q47.5 131.0 47.5 131.5Q47.5 133.5 53.5 144.0ZM310.0 192.0 320.5 188.0 294.5 177.0V187.0Q294.5 196.0 297.5 196.0Q299.5 196.0 302.25 195.0Q305.0 194.0 310.0 192.0ZM309.0 224.0 295.5 219.5Q295.0 219.5 294.75 222.0Q294.5 224.5 294.5 228.0Q294.5 237.0 299.5 234.5Q302.0 233.5 305.75 232.25Q309.5 231.0 313.0 230.5Q319.0 229.0 318.5 228.25Q318.0 227.5 309.0 224.0ZM211.5 51.5Q206.5 49.0 202.25 47.0Q198.0 45.0 197.5 45.0Q197.0 45.0 196.25 51.25Q195.5 57.5 195.5 66.5Q195.5 77.5 196.5 82.25Q197.5 87.0 201.0 87.0Q206.5 87.0 220.5 79.5Q227.5 76.5 234.25 74.0Q241.0 71.5 244.0 71.5Q254.0 71.5 252.5 68.0Q251.0 64.5 239.5 62.0Q233.0 60.0 225.0 57.0Q217.0 54.0 211.5 51.5ZM323.5 142.5 310.0 136.5Q305.0 134.0 300.75 132.25Q296.5 130.5 295.5 130.5Q295.0 130.5 294.75 133.75Q294.5 137.0 294.5 142.0V153.0ZM393.0 101.0Q393.0 100.0 388.5 99.75Q384.0 99.5 377.5 99.0H361.0L367.5 118.0Q370.5 126.0 373.25 131.5Q376.0 137.0 376.5 137.0Q377.0 137.0 379.5 132.25Q382.0 127.5 385.25 120.75Q388.5 114.0 390.75 108.25Q393.0 102.5 393.0 101.0ZM437.0 151.0Q435.5 146.0 431.5 145.0Q427.5 144.0 411.0 144.0Q397.0 144.0 391.0 145.25Q385.0 146.5 384.0 151.5Q383.0 156.5 384.0 169.0L385.0 185.0L439.0 187.0V172.5Q439.0 167.0 438.5 160.75Q438.0 154.5 437.0 151.0ZM439.0 226.0V193.5L383.0 191.5V226.0ZM439.0 242.0V232.5H383.0V284.5L404.0 288.0Q412.5 289.5 418.0 290.5Q423.5 291.5 427.0 291.5Q433.5 291.5 434.75 287.25Q436.0 283.0 437.0 272.0Q438.0 263.5 438.5 254.5Q439.0 245.5 439.0 242.0ZM445.5 22.5Q434.5 22.5 425.75 21.75Q417.0 21.0 416.0 20.5Q412.5 18.5 413.25 21.75Q414.0 25.0 420.5 45.5Q424.0 55.5 427.25 68.25Q430.5 81.0 432.0 89.5Q438.0 116.5 439.5 116.5Q441.5 116.5 444.5 98.5Q446.0 88.5 450.5 74.0Q455.0 59.5 460.0 49.5Q465.5 39.5 468.75 31.75Q472.0 24.0 472.0 23.5Q472.0 23.0 464.25 22.75Q456.5 22.5 445.5 22.5ZM402.0 11.0Q403.0 10.0 406.0 10.75Q409.0 11.5 412.5 12.5Q416.0 14.0 428.0 15.0Q440.0 16.0 453.5 16.0Q466.5 16.0 475.75 16.25Q485.0 16.5 485.0 17.0Q485.0 17.5 482.25 22.5Q479.5 27.5 475.5 34.0Q466.5 48.0 461.0 62.5Q455.5 77.0 452.0 96.5Q448.5 116.0 447.0 144.5Q445.5 173.0 444.5 215.5Q444.0 249.0 443.75 266.0Q443.5 283.0 446.75 289.5Q450.0 296.0 459.75 297.5Q469.5 299.0 488.0 301.5Q500.5 303.5 509.25 305.5Q518.0 307.5 518.0 308.5Q518.0 311.5 511.0 311.5Q506.0 311.5 497.25 310.25Q488.5 309.0 475.5 306.5Q464.0 304.5 455.0 303.0Q446.0 301.5 445.0 301.5Q444.0 301.5 443.25 312.25Q442.5 323.0 442.5 338.0Q442.5 354.5 441.5 364.25Q440.5 374.0 439.0 374.0Q437.5 374.0 436.75 363.75Q436.0 353.5 436.0 336.5V299.5L419.0 297.0Q412.0 296.0 404.25 294.75Q396.5 293.5 392.5 293.0Q386.0 291.5 384.5 292.75Q383.0 294.0 383.0 300.0Q383.0 303.5 382.25 306.0Q381.5 308.5 380.0 308.5Q378.5 308.5 377.5 305.5Q376.5 302.5 376.5 299.0Q376.5 294.5 375.0 292.5Q373.5 290.5 366.75 288.75Q360.0 287.0 343.0 284.5Q329.0 282.0 308.5 280.25Q288.0 278.5 273.0 278.5Q260.0 278.5 243.5 279.75Q227.0 281.0 211.25 282.75Q195.5 284.5 184.0 286.5Q172.5 288.5 170.0 290.0Q165.5 292.5 164.75 288.0Q164.0 283.5 167.5 275.0Q169.0 270.5 171.0 264.0Q173.0 257.5 173.5 253.0L176.0 242.5H121.5Q99.5 242.5 83.25 243.5Q67.0 244.5 66.0 245.5Q64.0 248.5 57.5 247.0Q51.5 245.5 41.25 251.0Q31.0 256.5 23.0 266.0Q19.5 270.0 16.75 272.75Q14.0 275.5 13.5 275.0Q13.0 274.5 12.5 266.75Q12.0 259.0 11.5 247.75Q11.0 236.5 10.75 225.5Q10.5 214.5 10.25 207.0Q10.0 199.5 10.5 199.5Q11.5 199.5 16.75 202.75Q22.0 206.0 29.0 211.0Q36.0 215.5 43.0 219.5Q50.0 223.5 53.5 224.5Q57.5 225.5 58.75 224.75Q60.0 224.0 60.25 218.0Q60.5 212.0 59.5 198.0Q59.0 180.5 56.75 171.0Q54.5 161.5 48.0 149.0Q44.0 140.5 40.75 133.75Q37.5 127.0 37.5 126.0Q37.5 125.0 45.0 124.5Q52.5 124.0 62.5 124.0Q81.0 124.0 85.0 126.25Q89.0 128.5 82.0 134.0Q72.5 141.5 69.25 154.25Q66.0 167.0 66.0 194.0Q66.0 208.0 66.75 219.25Q67.5 230.5 68.5 231.5Q69.5 232.5 85.75 233.75Q102.0 235.0 123.5 235.5L176.0 236.5V226.5Q176.0 216.0 181.0 216.0Q185.5 216.0 185.5 219.0Q185.5 220.5 191.75 225.0Q198.0 229.5 207.5 235.25Q217.0 241.0 226.75 246.25Q236.5 251.5 243.5 254.5Q249.0 257.0 262.25 260.5Q275.5 264.0 292.5 267.75Q309.5 271.5 327.75 275.0Q346.0 278.5 361.0 280.5L376.5 282.5V258.0Q376.5 241.5 375.5 237.0Q374.5 232.5 370.0 231.0Q366.0 229.5 353.5 230.75Q341.0 232.0 326.75 234.75Q312.5 237.5 303.0 241.0Q290.0 246.0 288.0 244.0Q287.5 243.0 287.5 235.0Q287.5 227.0 288.0 219.0Q288.5 211.0 289.5 210.0Q289.5 210.0 289.75 210.0Q290.0 210.0 290.0 210.0Q294.5 210.0 306.5 215.5Q321.5 222.0 348.5 223.0L375.0 224.5L377.0 189.0L354.5 191.0Q345.5 191.5 333.5 193.5Q321.5 195.5 313.5 198.0Q306.5 200.0 299.5 201.5Q292.5 203.0 290.0 203.5Q288.0 203.5 287.5 199.75Q287.0 196.0 287.5 186.5Q288.0 179.0 288.5 173.5Q289.0 168.0 289.5 167.5Q290.5 167.5 294.25 169.5Q298.0 171.5 303.0 174.0Q310.5 178.5 319.25 180.0Q328.0 181.5 346.5 182.5L377.0 184.0L374.5 171.5Q371.5 153.5 368.25 148.75Q365.0 144.0 356.0 144.0Q351.0 144.0 340.75 146.25Q330.5 148.5 320.5 152.0Q309.0 156.0 302.5 158.25Q296.0 160.5 292.0 160.5Q287.5 160.5 287.25 155.75Q287.0 151.0 287.5 140.5Q288.0 131.5 288.5 125.0Q289.0 118.5 289.5 118.0Q290.5 118.0 294.75 120.25Q299.0 122.5 304.0 126.0Q312.0 131.5 319.75 133.5Q327.5 135.5 342.0 136.5Q352.0 137.0 359.25 136.75Q366.5 136.5 366.5 136.0Q366.5 135.0 364.25 128.5Q362.0 122.0 358.5 114.0Q355.0 105.5 353.25 98.75Q351.5 92.0 352.0 91.0Q354.0 89.0 365.5 91.5Q371.0 92.5 378.75 92.75Q386.5 93.0 392.5 92.5Q398.0 91.5 402.0 91.75Q406.0 92.0 406.0 93.0Q406.0 93.5 403.75 98.25Q401.5 103.0 398.5 108.5Q395.0 114.0 392.0 120.25Q389.0 126.5 388.0 129.5Q386.5 135.0 389.75 136.0Q393.0 137.0 411.0 137.0Q421.0 137.0 428.5 136.5Q436.0 136.0 436.0 135.5Q436.0 132.0 431.0 113.0Q429.0 104.5 427.25 96.0Q425.5 87.5 424.5 83.5L422.5 74.5H339.5Q304.5 74.5 282.5 75.25Q260.5 76.0 247.5 78.0Q234.5 80.0 225.5 84.25Q216.5 88.5 207.0 96.0Q193.0 107.0 189.5 107.0Q187.0 107.0 187.0 101.5Q187.5 98.0 181.75 96.5Q176.0 95.0 161.5 95.0Q153.0 95.0 140.5 95.5Q128.0 96.0 111.5 97.0Q87.5 98.5 73.5 100.75Q59.5 103.0 50.75 107.0Q42.0 111.0 33.5 119.0Q30.0 122.5 27.0 125.0Q24.0 127.5 23.0 127.5Q22.5 127.5 21.75 117.75Q21.0 108.0 21.0 94.0Q21.0 81.0 21.75 71.5Q22.5 62.0 24.0 62.0Q43.0 71.5 57.0 77.5Q71.0 83.5 83.5 86.25Q96.0 89.0 110.75 89.5Q125.5 90.0 146.0 89.0L190.0 87.0L188.0 59.0Q187.5 48.0 187.25 40.0Q187.0 32.0 187.5 32.0Q188.5 32.0 194.0 34.5Q199.5 37.0 206.5 40.5Q223.5 49.5 236.0 54.5Q248.5 59.5 262.0 62.25Q275.5 65.0 295.0 66.0Q314.5 67.0 345.0 67.5L420.5 69.0L418.0 59.0Q417.0 55.5 414.0 47.25Q411.0 39.0 408.0 31.0Q405.0 23.0 403.25 17.25Q401.5 11.5 402.0 11.0Z" fill="black" /></svg>