<svg xmlns="http://www.w3.org/2000/svg" width="740.5" height="461.5" viewBox="0 0 740.5 461.5"><path d="M120.5 225.0 130.5 207.0H89.5L99.0 226.5Q103.0 233.5 105.75 239.0Q108.5 244.5 109.0 244.5Q110.0 244.0 113.25 238.25Q116.5 232.5 120.5 225.0ZM184.5 223.0 194.5 207.0H151.0L161.0 228.5Q165.5 237.5 169.25 242.0Q173.0 246.5 174.0 244.0Q174.5 242.5 177.75 236.0Q181.0 229.5 184.5 223.0ZM461.5 246.0Q461.5 244.5 459.0 242.25Q456.5 240.0 454.0 239.0Q446.5 236.0 446.5 246.0Q446.5 255.5 454.0 252.5Q456.5 251.0 459.0 249.0Q461.5 247.0 461.5 246.0ZM461.0 288.0Q454.5 284.0 451.5 284.0Q446.5 284.0 446.5 293.0Q446.5 300.5 449.5 300.5Q452.0 300.5 457.0 297.5Q463.0 294.0 464.0 292.25Q465.0 290.5 461.0 288.0ZM571.0 246.0Q571.0 244.5 569.25 242.25Q567.5 240.0 563.5 239.0Q557.0 236.0 557.0 246.0Q557.0 255.5 563.5 252.5Q571.0 249.5 571.0 246.0ZM573.0 294.5Q575.5 289.5 569.0 287.0Q561.5 284.5 561.5 291.0Q561.5 298.0 567.5 298.0Q571.0 298.0 573.0 294.5ZM657.5 284.0V246.0H627.5Q585.0 246.0 565.5 264.5Q563.5 266.5 565.5 269.5Q567.5 272.5 571.5 276.0Q577.5 279.5 588.75 281.75Q600.0 284.0 620.0 284.0ZM213.0 124.0Q201.0 123.0 182.5 119.0Q164.0 115.0 148.5 110.0L112.5 98.5L109.0 155.5L123.5 152.5Q130.0 151.5 143.75 149.0Q157.5 146.5 171.5 143.0Q186.0 140.0 200.0 137.5Q214.0 135.0 220.5 135.0Q241.0 135.0 238.0 130.75Q235.0 126.5 213.0 124.0ZM420.5 172.5Q426.0 163.0 429.25 156.5Q432.5 150.0 432.0 150.0Q431.5 150.5 419.0 161.0Q406.5 171.5 389.5 186.5Q378.5 196.5 365.5 207.25Q352.5 218.0 340.75 227.5Q329.0 237.0 321.0 242.5L294.0 262.5L324.0 271.0Q340.0 275.5 350.0 278.25Q360.0 281.0 366.0 281.0Q374.0 281.0 376.5 276.0Q379.0 271.0 380.0 260.0Q381.0 251.0 385.5 238.25Q390.0 225.5 394.5 216.5Q400.0 207.5 407.5 194.75Q415.0 182.0 420.5 172.5ZM458.5 206.0Q464.0 201.5 464.25 199.75Q464.5 198.0 459.0 196.0Q451.5 194.0 450.0 201.0Q446.5 209.0 448.5 210.0Q450.5 211.0 458.5 206.0ZM573.0 203.0Q575.0 199.5 569.0 195.5Q561.5 194.0 561.5 200.0Q561.5 207.0 567.5 207.0Q571.0 207.0 573.0 203.0ZM657.5 236.0V202.5H625.5Q601.0 203.0 583.75 209.25Q566.5 215.5 566.5 224.5Q566.5 231.5 577.75 233.75Q589.0 236.0 619.5 236.0ZM705.5 30.0H669.5Q655.5 30.0 642.75 29.25Q630.0 28.5 626.5 27.0Q622.5 26.0 621.5 26.0Q618.5 26.0 620.5 32.5Q622.5 39.0 630.5 58.0Q635.5 69.5 639.75 82.75Q644.0 96.0 645.5 103.0Q646.5 110.5 649.0 116.0Q651.5 121.5 653.5 121.5Q658.5 121.5 655.5 127.5Q655.0 130.0 655.5 134.0Q656.0 138.0 658.0 140.5Q660.0 144.0 661.25 142.75Q662.5 141.5 662.5 135.0Q662.5 124.5 666.25 110.0Q670.0 95.5 676.25 80.25Q682.5 65.0 690.0 53.0ZM76.0 389.5Q62.5 385.5 50.25 382.25Q38.0 379.0 35.5 378.0Q31.5 376.0 29.75 381.0Q28.0 386.0 28.0 404.0L27.5 433.0L44.5 430.5Q51.5 429.0 68.0 426.0Q84.5 423.0 100.0 420.5Q115.5 417.5 131.0 415.5Q146.5 413.5 153.0 413.0Q175.0 413.0 170.5 408.5Q166.0 404.0 141.0 402.0Q128.0 401.0 109.25 397.0Q90.5 393.0 76.0 389.5ZM461.5 336.5Q461.5 335.0 459.0 333.0Q456.5 331.0 454.0 329.5Q446.5 327.0 446.5 336.5Q446.5 346.0 454.0 343.0Q456.5 341.5 459.0 340.0Q461.5 338.5 461.5 336.5ZM570.0 335.0Q567.5 328.0 563.0 328.0Q557.0 328.0 557.0 336.5Q557.0 346.0 563.5 343.0Q570.5 340.0 570.0 335.0ZM657.5 327.0V293.0H625.5Q599.5 294.0 583.0 300.0Q566.5 306.0 566.5 315.0Q566.5 322.0 577.25 324.5Q588.0 327.0 619.5 327.0ZM600.0 13.5Q600.0 10.0 609.0 14.0Q612.0 15.0 630.5 16.75Q649.0 18.5 671.0 19.5Q707.5 21.5 719.0 24.25Q730.5 27.0 718.0 32.0Q714.0 33.5 707.0 44.5Q700.0 55.5 692.75 70.75Q685.5 86.0 679.75 101.5Q674.0 117.0 672.0 128.0Q671.0 136.0 669.75 161.25Q668.5 186.5 667.75 222.75Q667.0 259.0 667.0 301.0Q667.0 371.5 665.75 409.25Q664.5 447.0 662.5 447.0Q660.0 447.0 658.75 431.75Q657.5 416.5 657.5 391.5V336.5H626.0Q578.5 336.5 562.0 357.5Q559.5 360.5 556.25 362.75Q553.0 365.0 551.0 365.0Q550.0 365.0 549.5 351.25Q549.0 337.5 549.0 315.75Q549.0 294.0 549.25 269.5Q549.5 245.0 550.0 223.0Q550.5 201.0 551.5 186.5Q552.5 172.0 553.5 171.0Q553.5 171.0 553.75 171.0Q554.0 171.0 554.0 171.0Q558.0 171.0 568.5 180.5Q574.0 186.0 579.0 188.75Q584.0 191.5 593.0 192.25Q602.0 193.0 619.0 193.0H657.5L654.5 176.5Q654.0 171.0 651.5 161.75Q649.0 152.5 646.5 146.0L642.0 131.0L548.5 131.5L454.5 133.5L437.0 162.5Q430.5 174.5 421.25 189.75Q412.0 205.0 406.5 214.0Q401.0 223.0 396.75 235.5Q392.5 248.0 390.0 260.25Q387.5 272.5 387.75 280.5Q388.0 288.5 392.0 288.5Q397.0 288.5 395.5 300.5Q393.0 312.5 402.0 312.5Q407.5 312.5 408.0 313.25Q408.5 314.0 404.5 317.0Q400.5 319.0 403.25 324.25Q406.0 329.5 417.0 341.5L436.5 363.0L438.0 284.0Q438.5 262.0 438.5 242.0Q438.5 222.0 438.25 208.0Q438.0 194.0 437.5 190.0Q437.0 172.0 443.5 172.0Q448.5 172.0 456.5 181.0Q461.5 186.5 466.25 189.0Q471.0 191.5 480.25 192.25Q489.5 193.0 507.5 193.0Q525.0 193.0 536.25 194.25Q547.5 195.5 547.5 198.0Q547.5 200.0 538.75 201.25Q530.0 202.5 517.0 202.5Q500.0 202.5 489.25 204.75Q478.5 207.0 468.5 212.5Q428.5 236.0 502.5 236.0Q520.0 236.0 531.25 237.25Q542.5 238.5 542.5 240.5Q542.5 242.5 534.75 244.25Q527.0 246.0 516.5 246.0Q503.0 246.0 491.5 248.0Q480.0 250.0 470.0 255.5Q456.5 262.5 454.75 265.25Q453.0 268.0 459.0 275.0Q464.5 280.5 473.5 282.25Q482.5 284.0 507.5 284.0Q525.0 284.0 536.25 285.0Q547.5 286.0 547.5 288.5Q547.5 290.5 538.5 291.75Q529.5 293.0 515.0 293.0Q496.5 293.0 485.75 295.25Q475.0 297.5 466.5 303.0Q457.0 309.0 455.0 312.0Q453.0 315.0 456.5 320.0Q460.0 323.5 470.5 325.5Q481.0 327.5 502.5 327.5Q520.0 327.5 531.25 328.5Q542.5 329.5 542.5 331.5Q542.5 333.5 533.75 335.0Q525.0 336.5 513.0 336.5Q499.5 336.5 491.25 337.75Q483.0 339.0 476.75 342.0Q470.5 345.0 462.0 351.0Q452.0 358.0 448.25 362.75Q444.5 367.5 447.0 373.25Q449.5 379.0 457.5 390.0Q460.0 393.0 464.5 394.75Q469.0 396.5 479.0 397.5Q489.0 398.5 507.5 398.75Q526.0 399.0 557.0 399.0Q600.0 399.0 623.75 400.25Q647.5 401.5 647.5 403.5Q647.5 405.5 624.75 406.75Q602.0 408.0 561.5 408.0Q538.0 408.0 518.5 408.5Q499.0 409.0 487.5 410.0Q476.0 411.0 476.0 412.0Q476.0 413.5 477.75 418.0Q479.5 422.5 483.0 427.5Q485.5 432.5 487.5 437.5Q489.5 442.5 489.5 445.0Q489.5 451.5 487.0 451.5Q485.0 451.5 481.0 445.5Q477.0 439.5 471.5 429.0L461.0 407.5L342.0 410.0Q298.0 411.0 261.5 412.75Q225.0 414.5 192.75 417.75Q160.5 421.0 128.75 425.75Q97.0 430.5 62.5 437.0Q42.5 440.5 27.75 443.75Q13.0 447.0 11.0 447.0Q10.0 447.0 10.75 441.25Q11.5 435.5 14.5 428.5Q18.5 419.0 19.75 409.0Q21.0 399.0 18.5 385.0Q16.5 367.0 17.25 363.75Q18.0 360.5 24.0 363.0Q35.5 367.5 51.25 372.5Q67.0 377.5 81.0 381.0Q95.0 384.5 100.0 384.5H111.5L108.5 325.5Q108.0 305.0 107.0 292.25Q106.0 279.5 104.0 270.5Q102.0 261.5 98.75 253.0Q95.5 244.5 90.0 232.5Q83.0 218.5 78.5 208.0Q74.0 197.5 74.0 196.5Q74.0 195.5 94.0 195.5Q114.0 195.5 143.0 196.5Q171.5 197.5 192.0 198.75Q212.5 200.0 212.5 201.0Q212.5 202.0 209.0 207.0Q205.5 212.0 200.5 218.0Q191.0 229.0 186.25 242.5Q181.5 256.0 180.25 277.25Q179.0 298.5 180.5 332.5Q182.5 359.0 182.25 376.25Q182.0 393.5 180.0 393.5Q178.5 393.5 176.5 383.75Q174.5 374.0 172.75 358.5Q171.0 343.0 170.0 325.5Q169.0 308.0 169.0 292.0Q169.0 283.0 166.0 270.5Q163.0 258.0 158.5 245.5Q154.0 233.0 149.25 224.75Q144.5 216.5 141.0 216.5Q139.0 216.5 135.0 220.5Q131.0 224.5 128.0 230.0Q124.5 235.0 122.5 243.25Q120.5 251.5 119.75 267.5Q119.0 283.5 119.0 313.0Q119.5 342.5 120.25 364.25Q121.0 386.0 123.0 388.0Q127.0 391.5 147.5 393.75Q168.0 396.0 209.5 397.0Q251.0 398.0 317.0 399.0H452.5L443.0 385.0Q440.5 381.5 432.5 372.75Q424.5 364.0 413.75 352.25Q403.0 340.5 391.5 328.5Q376.5 313.0 367.0 304.0Q357.5 295.0 350.75 290.25Q344.0 285.5 337.25 283.25Q330.5 281.0 320.0 279.0Q293.0 273.5 282.5 270.75Q272.0 268.0 274.75 264.25Q277.5 260.5 289.0 253.0Q303.0 244.0 323.5 228.0Q344.0 212.0 366.0 193.25Q388.0 174.5 406.0 158.0L434.5 130.5L356.5 132.5Q316.0 133.5 281.75 136.75Q247.5 140.0 213.75 145.5Q180.0 151.0 141.0 160.0Q123.0 164.0 109.25 166.25Q95.5 168.5 95.0 168.0Q93.5 166.5 94.25 163.25Q95.0 160.0 97.0 155.5Q99.5 151.5 101.0 139.25Q102.5 127.0 102.5 114.5Q102.5 101.5 103.0 92.0Q103.5 82.5 104.0 82.5Q104.5 82.5 109.25 85.0Q114.0 87.5 120.0 90.0Q126.0 93.5 141.25 98.5Q156.5 103.5 172.0 108.0Q184.5 111.5 196.0 113.5Q207.5 115.5 223.75 116.5Q240.0 117.5 265.5 118.0Q291.0 118.5 331.5 118.5L453.5 119.0L469.0 98.5Q475.5 90.0 480.5 82.25Q485.5 74.5 486.5 72.5Q487.0 70.0 488.75 69.0Q490.5 68.0 492.5 69.5Q496.0 73.0 491.5 83.75Q487.0 94.5 477.0 107.0L465.0 121.5H639.5L636.0 104.0Q635.0 98.5 631.5 88.25Q628.0 78.0 623.25 65.75Q618.5 53.5 613.75 42.5Q609.0 31.5 605.0 25.0Q600.0 16.0 600.0 13.5Z" fill="black" /></svg>