<svg xmlns="http://www.w3.org/2000/svg" width="822.0" height="470.0" viewBox="0 0 822.0 470.0"><path d="M104.0 339.5 93.0 337.5Q85.5 336.0 75.25 332.0Q65.0 328.0 55.5 323.25Q46.0 318.5 39.5 315.0Q33.0 311.5 33.0 311.5Q33.0 311.5 33.0 319.0Q33.0 326.5 33.0 336.5Q33.0 346.5 31.5 354.0L27.0 376.5Q35.0 372.0 42.75 367.25Q50.5 362.5 58.5 358.5Q68.5 353.0 81.0 348.75Q93.5 344.5 104.0 339.5ZM372.0 327.0Q395.5 317.0 405.75 312.0Q416.0 307.0 409.0 308.0Q405.0 308.0 394.25 308.5Q383.5 309.0 369.0 309.25Q354.5 309.5 340.0 309.5L287.5 312.5L290.5 334.0Q292.5 347.0 293.75 352.5Q295.0 358.0 298.5 358.0Q301.0 358.0 308.5 353.0Q313.5 350.5 332.25 342.75Q351.0 335.0 372.0 327.0ZM178.0 183.0 155.5 176.5Q149.5 174.5 141.75 171.0Q134.0 167.5 127.75 164.0Q121.5 160.5 120.0 159.5Q121.0 166.0 121.0 173.0Q121.0 180.0 121.0 187.5Q121.0 194.0 119.75 200.25Q118.5 206.5 117.5 213.5L148.0 197.5ZM396.5 201.0Q384.0 191.0 373.5 180.5Q363.0 170.0 353.0 157.5Q349.0 163.5 345.75 169.5Q342.5 175.5 337.5 181.0Q332.5 187.0 327.0 192.0Q321.5 197.0 316.0 202.5Q319.0 202.5 327.75 203.75Q336.5 205.0 347.5 206.75Q358.5 208.5 368.5 211.0L429.0 225.5Q429.0 225.5 423.75 221.5Q418.5 217.5 411.0 211.75Q403.5 206.0 396.5 201.0ZM468.0 135.0 431.0 134.0 449.0 160.0ZM442.5 50.5Q434.5 44.5 428.5 40.25Q422.5 36.0 421.5 36.0Q421.0 36.0 416.0 43.75Q411.0 51.5 405.5 62.5L391.0 87.5H415.5Q431.0 87.5 458.75 92.75Q486.5 98.0 517.5 106.5Q522.5 108.0 515.5 102.25Q508.5 96.5 495.0 87.5Q481.0 78.0 465.5 67.5Q450.0 57.0 442.5 50.5ZM440.5 384.0Q428.0 381.5 417.0 377.5Q406.0 373.5 393.5 369.5Q393.5 377.0 394.5 384.0Q395.5 391.0 394.5 398.5Q394.5 405.0 393.25 411.75Q392.0 418.5 391.0 425.5L412.0 414.5Q421.5 410.0 437.25 405.75Q453.0 401.5 465.0 399.5L502.5 392.0Q487.5 390.0 471.5 388.75Q455.5 387.5 440.5 384.0ZM21.5 286.0Q22.5 286.0 26.75 290.0Q31.0 294.0 37.5 299.5Q50.5 312.5 75.75 320.25Q101.0 328.0 141.0 331.5L255.0 335.0Q274.0 335.5 273.75 340.5Q273.5 345.5 255.0 345.0L148.0 344.0Q126.0 344.5 105.25 351.75Q84.5 359.0 66.75 368.25Q49.0 377.5 36.5 385.25Q24.0 393.0 18.5 394.5Q10.0 397.5 14.0 383.0Q16.0 379.0 18.25 369.25Q20.5 359.5 21.75 346.5Q23.0 333.5 21.5 321.5Q20.0 308.0 19.5 297.75Q19.0 287.5 21.5 286.0ZM411.0 24.5 416.5 10.0 439.0 32.5Q446.5 40.0 460.75 50.75Q475.0 61.5 493.0 73.25Q511.0 85.0 530.25 96.25Q549.5 107.5 566.5 116.0Q571.0 118.0 582.75 123.0Q594.5 128.0 610.0 133.75Q625.5 139.5 642.0 145.0Q672.0 155.0 702.25 166.0Q732.5 177.0 757.25 187.0Q782.0 197.0 797.0 203.75Q812.0 210.5 812.0 212.0Q812.0 213.0 801.25 216.5Q790.5 220.0 772.5 225.0Q754.5 230.0 732.5 235.5Q711.0 240.5 686.5 246.5Q662.0 252.5 640.75 258.0Q619.5 263.5 606.5 267.0L559.5 279.0L611.0 302.5Q632.0 312.5 646.25 320.75Q660.5 329.0 658.0 331.5Q657.5 334.0 641.75 328.25Q626.0 322.5 603.0 311.5Q581.5 300.5 563.25 292.75Q545.0 285.0 541.5 285.0Q537.5 285.0 523.5 289.0Q509.5 293.0 489.0 299.25Q468.5 305.5 445.0 313.5Q421.5 321.5 399.0 329.5Q376.5 337.5 358.25 344.5Q340.0 351.5 330.0 356.0Q315.5 362.5 302.25 371.0Q289.0 379.5 285.0 385.0Q279.0 393.5 275.0 393.5Q268.5 393.5 277.0 374.0Q279.5 366.5 280.0 354.75Q280.5 343.0 279.25 331.0Q278.0 319.0 274.0 310.5Q273.0 307.0 277.25 305.25Q281.5 303.5 297.5 302.0Q313.5 300.5 347.5 298.5Q369.0 297.5 393.5 295.75Q418.0 294.0 440.0 291.25Q462.0 288.5 476.0 286.0L528.5 276.0L508.0 268.0Q486.5 258.5 459.0 248.75Q431.5 239.0 404.25 230.75Q377.0 222.5 355.0 217.5Q333.0 212.5 322.0 212.5Q299.5 212.5 296.5 208.0Q293.5 203.5 302.0 200.0Q307.0 198.0 311.75 194.75Q316.5 191.5 316.5 190.0H250.5Q229.0 190.0 215.75 190.5Q202.5 191.0 193.25 192.5Q184.0 194.0 175.25 197.25Q166.5 200.5 154.5 206.5Q141.5 213.0 129.5 222.25Q117.5 231.5 111.0 231.5Q104.5 231.0 105.75 219.5Q107.0 208.0 107.5 183.5Q108.5 160.0 106.5 149.0Q104.5 138.0 111.0 137.5Q112.0 137.5 116.25 139.75Q120.5 142.0 125.5 147.5Q140.0 163.0 170.5 170.0Q201.0 177.0 257.0 179.0H325.5L333.0 169.0Q336.5 164.5 340.5 158.5Q344.5 152.5 345.5 148.5Q348.5 140.5 352.5 140.5Q358.0 140.5 364.5 154.0Q368.0 159.5 379.5 170.75Q391.0 182.0 405.0 193.75Q419.0 205.5 430.0 213.5L450.5 228.0L444.5 193.0Q441.5 171.5 434.5 155.5Q427.5 139.5 419.0 136.5Q416.5 135.5 414.25 133.0Q412.0 130.5 412.0 128.5Q412.0 127.5 418.75 127.0Q425.5 126.5 435.0 126.5Q448.0 126.5 462.5 127.25Q477.0 128.0 484.0 129.5Q485.0 129.5 482.5 133.0Q480.0 136.5 475.0 141.0Q461.0 156.5 457.25 169.75Q453.5 183.0 456.0 205.5L460.0 232.5L498.0 251.5Q513.5 259.0 526.5 264.5Q539.5 270.0 542.0 270.0Q544.0 270.0 561.5 265.75Q579.0 261.5 607.0 254.75Q635.0 248.0 668.0 240.0L786.5 211.0L764.0 201.0Q747.0 193.5 722.0 184.25Q697.0 175.0 668.25 165.0Q639.5 155.0 610.25 145.75Q581.0 136.5 554.5 128.75Q528.0 121.0 508.0 116.0Q479.5 108.5 460.5 104.75Q441.5 101.0 427.75 99.75Q414.0 98.5 400.0 99.5Q386.0 100.0 375.25 99.5Q364.5 99.0 364.5 98.5Q364.5 96.5 368.0 92.75Q371.5 89.0 376.5 84.0Q386.0 75.5 395.25 59.25Q404.5 43.0 411.0 24.5ZM380.0 384.0Q380.0 369.5 380.75 358.5Q381.5 347.5 382.0 347.5Q382.0 348.0 388.75 350.75Q395.5 353.5 404.5 357.5Q423.0 366.5 446.75 372.0Q470.5 377.5 503.75 379.5Q537.0 381.5 583.0 380.5L706.0 373.0Q726.5 372.0 731.25 374.5Q736.0 377.0 729.0 380.0Q722.0 383.0 707.0 384.0L584.0 392.0Q571.5 393.5 551.5 395.75Q531.5 398.0 508.0 402.0Q484.5 406.0 461.75 411.25Q439.0 416.5 420.5 423.25Q402.0 430.0 392.0 439.0Q365.0 460.0 375.5 433.0Q378.0 426.0 379.0 416.5Q380.0 407.0 380.0 384.0Z" fill="black" /></svg>