<svg xmlns="http://www.w3.org/2000/svg" width="397.0" height="465.5" viewBox="0 0 397.0 465.5"><path d="M93.5 62.5Q93.5 60.5 84.25 59.25Q75.0 58.0 62.0 57.5Q36.5 57.0 32.25 61.25Q28.0 65.5 37.5 84.5Q40.0 89.5 44.5 102.25Q49.0 115.0 51.0 128.0Q57.0 151.0 60.5 151.0Q64.5 151.0 69.5 128.0Q70.5 121.0 74.5 109.0Q78.5 97.0 82.5 87.5Q87.0 78.0 90.25 70.5Q93.5 63.0 93.5 62.5ZM142.5 219.0V196.5Q142.5 187.0 141.5 180.75Q140.5 174.5 138.5 174.5Q137.0 174.5 130.75 180.25Q124.5 186.0 117.0 193.75Q109.5 201.5 104.0 208.0Q98.5 214.5 98.5 216.0Q98.5 217.5 105.0 218.25Q111.5 219.0 120.5 219.0ZM173.5 106.0Q173.5 102.0 168.5 100.5Q163.5 99.0 151.0 99.0Q141.5 99.0 135.5 99.75Q129.5 100.5 130.0 102.0Q131.0 103.5 133.5 110.75Q136.0 118.0 140.5 127.5Q146.0 144.5 150.5 144.5Q155.0 144.5 160.25 136.5Q165.5 128.5 169.5 119.0Q173.5 109.5 173.5 106.0ZM155.0 163.5Q155.0 160.5 153.5 160.5Q151.5 160.5 151.5 163.5Q151.5 165.5 153.5 165.5Q155.0 165.5 155.0 163.5ZM159.5 210.0Q159.5 202.0 158.0 202.0Q155.5 202.0 154.5 210.0Q152.5 219.0 156.5 219.0Q159.5 219.0 159.5 210.0ZM176.0 151.5Q180.0 143.0 181.0 137.25Q182.0 131.5 179.5 131.5Q178.0 131.5 175.0 135.0Q172.0 138.5 169.25 145.75Q166.5 153.0 165.5 159.25Q164.5 165.5 166.0 165.5Q167.0 165.5 170.5 161.25Q174.0 157.0 176.0 151.5ZM198.5 171.0Q195.5 150.5 190.0 150.5Q185.5 150.5 178.5 164.0Q172.0 177.5 169.75 189.75Q167.5 202.0 171.5 202.0Q175.5 202.0 187.5 193.5Q196.5 188.0 198.0 184.25Q199.5 180.5 198.5 171.0ZM204.0 231.0Q203.0 220.0 200.75 216.0Q198.5 212.0 192.5 212.0Q190.5 212.0 188.25 212.25Q186.0 212.5 183.5 213.0Q177.0 214.5 176.5 217.0Q176.0 219.5 178.0 228.5Q181.0 238.0 187.25 245.0Q193.5 252.0 198.5 252.0Q200.5 252.0 201.5 251.0Q206.5 246.0 204.0 231.0ZM198.5 204.0Q201.5 201.0 198.5 198.5Q197.5 197.0 196.75 198.25Q196.0 199.5 196.0 202.0Q196.0 203.5 196.75 204.5Q197.5 205.5 198.5 204.0ZM232.0 119.0Q229.5 116.5 220.0 116.5Q213.0 116.5 205.5 118.25Q198.0 120.0 197.0 123.5Q196.0 126.5 197.25 134.0Q198.5 141.5 201.0 150.5Q203.5 159.5 206.25 166.0Q209.0 172.5 211.0 173.5Q213.0 174.0 217.0 166.25Q221.0 158.5 225.0 148.0Q229.0 137.5 231.25 129.0Q233.5 120.5 232.0 119.0ZM263.5 153.5Q267.0 148.0 264.5 148.0Q260.0 148.0 241.5 164.0Q225.0 179.0 221.75 191.25Q218.5 203.5 231.0 203.5Q237.5 203.5 240.25 200.5Q243.0 197.5 245.5 189.0Q248.0 175.0 254.5 166.5Q257.5 163.5 260.0 159.5Q262.5 155.5 263.5 153.5ZM318.5 164.0Q319.5 161.5 319.75 151.75Q320.0 142.0 319.5 130.0L318.5 102.5L304.5 117.5Q296.5 126.0 287.75 137.25Q279.0 148.5 271.25 160.0Q263.5 171.5 258.75 180.25Q254.0 189.0 254.0 192.5Q254.0 195.5 255.25 199.0Q256.5 202.5 258.5 203.5Q259.5 205.0 260.25 207.5Q261.0 210.0 259.5 212.5Q259.0 215.0 261.5 219.0Q264.0 223.0 270.5 226.0Q272.0 227.0 278.75 231.5Q285.5 236.0 294.25 241.5Q303.0 247.0 309.75 251.0Q316.5 255.0 317.5 255.0Q321.0 255.0 319.25 247.25Q317.5 239.5 312.5 227.75Q307.5 216.0 300.75 204.0Q294.0 192.0 287.0 184.0Q283.0 178.5 279.25 174.0Q275.5 169.5 275.5 168.0Q275.5 167.0 281.5 167.0Q284.5 167.0 288.25 167.0Q292.0 167.0 295.5 168.0Q304.0 169.5 308.5 169.5Q316.5 169.5 318.5 164.0ZM361.0 182.5Q361.0 181.0 351.5 180.0Q342.0 179.0 329.0 179.0Q316.5 179.0 307.5 179.5Q298.5 180.0 298.5 180.5Q298.5 182.0 301.5 187.75Q304.5 193.5 309.5 200.5Q313.5 207.0 317.75 216.25Q322.0 225.5 323.0 231.5Q325.0 239.0 327.75 244.25Q330.5 249.5 332.5 249.5Q334.0 249.5 334.0 245.0Q334.0 242.5 338.0 233.0Q342.0 223.5 347.0 212.5Q352.5 202.5 356.75 193.0Q361.0 183.5 361.0 182.5ZM346.5 41.5 361.0 23.0H334.5Q323.5 23.0 315.0 24.0Q306.5 25.0 305.5 26.5Q305.0 28.0 308.0 33.0Q311.0 38.0 315.75 44.0Q320.5 50.0 325.0 54.25Q329.5 58.5 331.0 58.5Q332.0 58.5 336.0 53.25Q340.0 48.0 346.5 41.5ZM363.0 12.5Q369.5 10.0 374.5 10.0Q380.0 10.0 383.5 12.0Q387.0 14.0 387.0 17.0Q387.0 23.0 380.5 23.0Q377.5 23.0 368.5 31.5Q359.5 40.0 350.25 51.25Q341.0 62.5 336.0 72.0Q333.0 78.5 331.0 92.25Q329.0 106.0 329.0 128.0V170.0H354.0Q364.0 170.0 371.0 170.75Q378.0 171.5 378.0 172.5Q378.0 173.0 374.5 179.0Q371.0 185.0 366.5 193.5Q361.5 201.0 354.25 216.75Q347.0 232.5 342.0 247.5Q337.5 260.5 335.0 270.0Q332.5 279.5 331.25 290.75Q330.0 302.0 329.5 320.0Q329.0 338.0 329.0 369.0Q329.0 410.0 327.75 432.75Q326.5 455.5 324.5 455.5Q322.5 455.5 321.25 431.25Q320.0 407.0 320.0 363.5V273.0L304.5 259.5Q298.0 253.5 285.75 246.0Q273.5 238.5 260.0 231.25Q246.5 224.0 235.25 219.25Q224.0 214.5 220.0 214.5Q216.5 214.5 215.0 219.5Q213.5 224.5 213.5 238.0Q213.5 250.0 214.5 256.0Q215.5 262.0 221.0 267.5Q226.5 273.0 239.5 283.5Q251.5 292.0 260.5 300.75Q269.5 309.5 273.5 315.25Q277.5 321.0 273.0 321.0Q272.5 321.0 264.25 314.5Q256.0 308.0 246.0 299.5Q235.5 290.0 227.25 283.25Q219.0 276.5 218.0 276.5Q216.0 276.5 214.75 290.75Q213.5 305.0 213.5 325.0Q213.5 338.0 212.75 352.0Q212.0 366.0 211.0 377.25Q210.0 388.5 209.0 394.0Q208.5 400.5 207.5 400.5Q207.0 400.5 206.5 386.25Q206.0 372.0 205.5 341.5V267.5L182.0 253.0Q172.5 246.0 164.25 242.5Q156.0 239.0 154.5 240.0Q154.0 240.0 153.25 251.0Q152.5 262.0 152.0 280.0Q151.5 298.0 151.5 319.5Q151.5 355.5 150.25 376.5Q149.0 397.5 147.0 397.5Q145.0 397.5 143.5 374.0Q142.0 350.5 142.0 312.5L140.5 231.0L105.5 228.5L71.0 227.5V335.0Q71.0 382.0 70.0 412.0Q69.0 442.0 68.0 442.0Q66.5 442.0 65.0 425.75Q63.5 409.5 62.5 381.0Q61.5 352.5 61.0 316.0Q61.0 279.5 60.5 255.5Q60.0 231.5 59.25 215.75Q58.5 200.0 57.25 188.75Q56.0 177.5 53.75 167.25Q51.5 157.0 48.0 143.5Q43.0 124.5 35.5 103.75Q28.0 83.0 22.5 72.0L10.0 46.5L60.5 49.5Q79.5 49.5 94.5 50.5Q109.5 51.5 110.0 51.5Q110.0 52.0 105.0 62.75Q100.0 73.5 93.0 89.5Q86.5 102.0 82.5 110.5Q78.5 119.0 76.5 127.0Q74.5 135.0 73.5 145.5Q72.5 156.0 72.0 172.5Q71.5 192.5 72.0 205.75Q72.5 219.0 73.5 219.0Q74.5 219.0 85.25 211.0Q96.0 203.0 108.5 191.5Q126.0 175.5 132.75 165.5Q139.5 155.5 137.0 144.5Q134.5 133.5 124.5 115.0Q119.0 103.5 115.25 95.75Q111.5 88.0 111.5 87.5Q112.5 87.5 124.0 87.75Q135.5 88.0 151.0 89.5Q172.5 90.5 179.75 92.5Q187.0 94.5 187.0 98.5Q187.0 101.0 189.0 101.0Q192.5 101.0 200.75 91.75Q209.0 82.5 217.0 69.5Q221.5 61.0 225.25 55.25Q229.0 49.5 229.5 49.5Q233.5 49.5 230.25 61.5Q227.0 73.5 218.5 86.0Q207.5 102.5 210.5 107.75Q213.5 113.0 232.0 109.5Q236.0 108.5 239.0 108.5Q242.0 108.5 244.5 108.5Q249.5 108.5 249.5 109.5Q249.5 110.0 246.75 116.75Q244.0 123.5 240.0 132.5Q236.5 141.0 234.5 147.75Q232.5 154.5 233.0 155.0Q236.5 155.0 247.0 147.75Q257.5 140.5 271.75 128.5Q286.0 116.5 299.5 104.0Q323.0 82.0 320.5 65.75Q318.0 49.5 290.5 33.5L269.5 21.5L312.5 17.5Q331.5 16.0 345.75 14.75Q360.0 13.5 363.0 12.5Z" fill="black" /></svg>