<svg xmlns="http://www.w3.org/2000/svg" width="548.0" height="451.5" viewBox="0 0 548.0 451.5"><path d="M237.0 291.0 254.0 279.0 230.5 268.0 208.0 256.5V286.5Q208.0 300.0 208.5 305.75Q209.0 311.5 210.5 311.5Q211.0 311.5 213.5 309.0Q215.5 306.5 222.5 301.0Q229.5 295.5 237.0 291.0ZM62.0 164.0Q63.5 155.5 62.0 152.5Q60.5 149.5 55.0 149.5Q46.5 149.5 50.0 157.0Q52.5 160.5 54.25 165.0Q56.0 169.5 56.5 172.0Q59.0 176.5 62.0 164.0ZM134.5 96.0Q123.5 93.5 112.75 88.75Q102.0 84.0 96.5 80.5L84.5 71.5L83.0 103.5Q82.5 117.0 82.5 126.5Q82.5 136.0 83.5 136.0Q84.5 136.0 92.75 131.75Q101.0 127.5 112.0 122.5Q122.0 117.0 132.5 112.25Q143.0 107.5 148.0 106.0Q155.5 104.0 153.0 102.5Q150.5 101.0 134.5 96.0ZM168.0 167.5Q171.5 160.5 173.25 156.5Q175.0 152.5 174.5 152.5Q174.0 151.5 169.5 152.0Q165.0 152.5 159.0 153.0Q148.0 153.5 146.75 156.0Q145.5 158.5 149.0 168.5Q151.0 174.0 153.5 177.75Q156.0 181.5 157.0 181.5Q158.5 181.5 161.5 177.25Q164.5 173.0 168.0 167.5ZM456.0 269.0V103.5H281.0V269.0ZM278.5 85.5 304.0 48.0H282.0Q270.5 48.0 267.25 49.5Q264.0 51.0 266.0 53.5Q268.0 56.0 270.5 61.5Q273.0 67.0 275.0 72.5ZM496.5 24.5Q496.5 23.5 488.75 22.25Q481.0 21.0 469.5 21.0H442.5L451.5 38.0Q455.0 44.5 457.75 51.75Q460.5 59.0 460.5 62.5Q460.5 71.0 464.0 71.0Q468.5 71.0 474.0 58.0Q476.5 52.5 480.5 46.25Q484.5 40.0 488.5 36.5Q496.5 28.5 496.5 24.5ZM49.5 363.5Q42.0 360.5 36.5 358.25Q31.0 356.0 30.5 356.0Q30.0 356.0 29.25 362.0Q28.5 368.0 28.5 377.0V397.5L45.5 385.0Q52.5 379.5 58.25 375.75Q64.0 372.0 64.5 371.5Q65.5 370.5 61.0 368.25Q56.5 366.0 49.5 363.5ZM182.5 140.5Q190.0 138.0 195.75 137.25Q201.5 136.5 205.0 136.5Q212.5 136.5 214.0 140.5Q215.5 142.0 214.0 143.5Q212.5 145.0 208.5 145.0Q203.5 145.0 194.5 152.5Q185.5 160.0 176.75 171.25Q168.0 182.5 163.5 193.0Q160.0 202.0 158.5 222.5Q157.0 243.0 157.0 282.5Q157.0 317.5 156.0 336.75Q155.0 356.0 152.5 356.0Q150.5 356.0 149.25 333.5Q148.0 311.0 148.0 270.0Q148.0 235.5 147.25 214.5Q146.5 193.5 144.25 182.0Q142.0 170.5 137.75 165.0Q133.5 159.5 126.5 156.0Q113.5 150.5 117.5 147.5Q121.5 144.5 142.5 144.0Q152.5 144.0 164.75 143.0Q177.0 142.0 182.5 140.5ZM410.0 12.0Q410.0 11.0 423.5 10.5Q437.0 10.0 455.5 10.0Q473.5 10.0 491.75 10.25Q510.0 10.5 523.0 11.25Q536.0 12.0 536.5 13.0Q538.0 15.5 528.5 18.0Q521.0 20.0 511.75 28.0Q502.5 36.0 493.75 46.25Q485.0 56.5 478.75 66.75Q472.5 77.0 470.5 84.5Q468.5 92.0 473.0 93.5Q479.5 94.5 479.0 99.0Q478.5 103.5 471.5 103.5Q469.0 103.5 467.5 110.5Q466.0 117.5 465.5 138.5Q465.0 159.5 465.0 202.0Q465.0 247.5 463.75 274.75Q462.5 302.0 460.5 303.5Q458.5 305.0 457.25 301.5Q456.0 298.0 456.0 292.5V278.0H280.5L253.0 292.5Q233.5 302.5 219.5 316.5Q205.5 330.5 201.5 345.0Q199.0 353.0 202.5 354.5Q206.0 356.0 227.5 356.0Q240.0 356.0 249.25 357.25Q258.5 358.5 258.5 359.5Q258.5 361.0 246.75 362.75Q235.0 364.5 216.0 366.0Q197.0 367.5 174.75 368.5Q152.5 369.5 131.0 369.5Q108.5 369.5 96.5 371.75Q84.5 374.0 73.0 379.5Q53.0 389.5 38.5 403.75Q24.0 418.0 21.5 431.0Q19.5 439.0 18.0 440.25Q16.5 441.5 14.0 437.5Q10.0 430.5 15.0 406.0Q17.5 396.0 18.25 380.25Q19.0 364.5 17.5 350.5Q14.5 319.5 19.5 319.5Q22.5 319.5 28.5 333.5Q33.5 344.5 42.75 350.5Q52.0 356.5 72.0 358.5Q92.0 360.5 129.0 360.5H192.5L193.5 345.0Q194.0 341.5 194.25 330.5Q194.5 319.5 195.25 304.75Q196.0 290.0 197.0 274.5Q199.0 219.5 204.0 219.5Q207.0 219.5 210.5 233.0Q214.0 245.5 226.0 255.0Q238.0 264.5 255.0 267.5L272.0 270.0V103.5H232.5Q211.0 103.5 195.5 105.25Q180.0 107.0 165.5 111.0Q151.0 115.0 132.5 122.5Q122.5 127.0 118.0 130.75Q113.5 134.5 116.5 136.0Q122.5 139.5 111.0 142.5Q98.0 146.5 89.25 155.75Q80.5 165.0 72.0 184.0Q68.5 192.0 66.0 198.75Q63.5 205.5 62.25 214.75Q61.0 224.0 60.5 239.0Q60.0 254.0 60.0 279.0Q60.0 313.0 59.0 332.25Q58.0 351.5 55.5 351.5Q53.5 351.5 52.25 329.0Q51.0 306.5 51.0 266.5Q51.0 221.0 49.25 197.5Q47.5 174.0 42.75 164.25Q38.0 154.5 28.5 151.5Q16.0 147.5 20.75 144.0Q25.5 140.5 44.0 140.5Q59.0 140.5 65.25 138.0Q71.5 135.5 73.0 123.75Q74.5 112.0 74.5 84.5Q74.5 44.0 79.0 44.0Q82.0 44.0 85.5 53.5Q104.5 94.5 225.0 94.5H271.0L267.5 79.0Q265.5 73.5 260.0 65.5Q254.5 57.5 248.5 52.5Q243.5 48.0 239.25 43.75Q235.0 39.5 235.0 39.0Q235.0 38.0 243.0 37.75Q251.0 37.5 263.5 37.5Q278.5 37.5 295.75 38.0Q313.0 38.5 325.75 39.25Q338.5 40.0 339.0 41.0Q342.5 43.5 334.5 43.5Q330.0 43.5 321.5 49.5Q313.0 55.5 304.5 64.0Q296.0 72.5 292.0 80.5L285.5 94.5H457.0L454.0 75.5Q447.0 34.0 423.5 22.0Q418.0 18.5 414.0 15.5Q410.0 12.5 410.0 12.0Z" fill="black" /></svg>