<svg xmlns="http://www.w3.org/2000/svg" width="594.5" height="465.5" viewBox="0 0 594.5 465.5"><path d="M57.5 300.5Q57.5 298.5 51.0 294.75Q44.5 291.0 37.25 287.5Q30.0 284.0 26.5 284.0Q23.5 284.0 22.75 291.25Q22.0 298.5 22.0 300.5Q22.0 305.5 23.0 310.25Q24.0 315.0 25.5 316.0Q27.0 317.5 35.0 314.75Q43.0 312.0 50.25 307.5Q57.5 303.0 57.5 300.5ZM63.5 171.0 48.5 162.5Q42.0 159.0 38.0 157.25Q34.0 155.5 31.5 155.5Q28.0 155.5 27.5 159.5Q27.0 163.5 27.0 173.0Q27.0 189.5 34.5 189.5Q40.0 189.5 52.0 180.5ZM54.0 233.5Q50.5 233.0 45.5 231.0Q40.5 229.0 36.5 227.0Q31.5 225.0 29.25 228.0Q27.0 231.0 27.0 242.5Q27.0 258.5 31.0 258.5Q57.0 246.5 61.5 241.75Q66.0 237.0 54.0 233.5ZM229.5 173.0 238.5 154.5H220.5Q206.0 154.5 204.25 158.5Q202.5 162.5 208.5 177.5Q214.5 189.0 217.5 189.0Q221.5 189.0 229.5 173.0ZM510.0 142.0 501.0 108.0 474.0 106.5Q434.0 106.0 396.0 108.25Q358.0 110.5 327.0 114.75Q296.0 119.0 277.0 124.5Q248.0 134.0 241.0 138.75Q234.0 143.5 248.0 146.0Q255.0 147.5 254.5 150.25Q254.0 153.0 244.5 166.5Q239.5 174.0 236.75 179.75Q234.0 185.5 232.25 195.25Q230.5 205.0 229.75 223.25Q229.0 241.5 228.0 273.0Q225.0 348.0 222.0 348.0Q218.5 348.0 216.5 278.0Q216.0 252.0 215.0 236.5Q214.0 221.0 211.75 211.5Q209.5 202.0 206.0 195.0L196.5 179.0L130.5 181.0Q100.5 181.5 85.5 182.75Q70.5 184.0 63.25 186.5Q56.0 189.0 48.5 194.5Q36.0 203.0 35.25 205.5Q34.5 208.0 41.5 215.0Q55.0 229.0 80.0 234.75Q105.0 240.5 148.0 240.5Q173.0 240.5 188.0 241.75Q203.0 243.0 203.0 245.5Q203.0 247.0 185.5 248.5Q168.0 250.0 138.0 250.0Q67.0 250.0 46.75 260.0Q26.5 270.0 61.5 287.5Q69.0 292.0 78.0 294.25Q87.0 296.5 102.0 297.5Q117.0 298.5 141.5 299.5Q166.5 300.0 184.75 302.0Q203.0 304.0 203.0 305.5Q203.0 307.0 181.25 308.75Q159.5 310.5 128.0 311.0Q102.0 312.0 86.75 312.75Q71.5 313.5 63.0 314.75Q54.5 316.0 50.25 318.0Q46.0 320.0 42.0 323.5Q32.0 333.5 35.75 339.5Q39.5 345.5 61.5 356.0Q69.5 359.0 83.25 361.5Q97.0 364.0 113.25 365.25Q129.5 366.5 145.0 366.5Q165.0 366.5 179.0 364.5Q193.0 362.5 193.0 358.0Q193.0 351.0 195.5 351.0Q199.0 351.0 216.5 362.0Q233.5 372.5 250.25 378.75Q267.0 385.0 286.75 387.75Q306.5 390.5 333.0 390.5H383.5V338.0Q383.5 316.0 382.25 300.75Q381.0 285.5 379.0 285.5Q376.0 285.5 364.25 293.25Q352.5 301.0 335.5 314.0Q318.5 327.0 300.0 343.0Q275.5 364.5 271.0 364.5Q268.0 364.5 268.0 356.0Q268.0 352.0 265.75 344.0Q263.5 336.0 261.0 329.0Q256.5 318.0 256.25 313.5Q256.0 309.0 263.75 307.25Q271.5 305.5 291.0 304.0Q300.0 303.0 314.75 298.75Q329.5 294.5 344.25 289.0Q359.0 283.5 369.0 278.5Q379.0 273.5 379.0 271.0Q379.0 268.5 368.5 263.0Q358.0 257.5 341.25 250.75Q324.5 244.0 306.5 237.5Q288.5 231.0 273.5 227.0Q261.0 223.5 252.0 220.0Q243.0 216.5 243.0 215.0Q243.0 214.0 249.0 207.5Q255.0 201.0 263.0 193.0L282.5 174.5L313.5 206.0Q317.0 209.0 325.0 216.75Q333.0 224.5 343.0 232.75Q353.0 241.0 362.25 247.0Q371.5 253.0 376.5 253.0Q379.0 253.0 379.0 246.0Q379.0 239.5 375.0 226.5Q371.0 213.5 364.75 198.0Q358.5 182.5 351.0 168.5L338.5 145.0H383.5Q402.0 145.0 415.5 145.75Q429.0 146.5 429.0 148.0Q429.0 148.5 424.25 156.0Q419.5 163.5 412.5 173.0Q406.0 182.5 401.75 190.0Q397.5 197.5 395.75 206.75Q394.0 216.0 394.0 231.0V261.0L453.5 233.0Q468.0 226.0 483.5 218.75Q499.0 211.5 514.5 205.0L515.0 161.5Q514.5 157.5 513.25 152.5Q512.0 147.5 510.0 142.0ZM298.5 206.0Q292.0 199.5 287.5 194.75Q283.0 190.0 282.5 190.0Q280.0 190.0 275.25 195.0Q270.5 200.0 267.0 205.75Q263.5 211.5 264.0 213.0Q265.5 214.5 273.25 217.25Q281.0 220.0 290.25 222.5Q299.5 225.0 306.5 226.25Q313.5 227.5 313.5 226.0Q313.5 225.0 309.0 218.75Q304.5 212.5 298.5 206.0ZM232.0 86.5Q222.5 82.0 214.5 78.75Q206.5 75.5 206.0 75.5Q204.5 75.5 203.75 84.75Q203.0 94.0 203.0 108.0Q203.0 125.5 203.75 132.0Q204.5 138.5 208.0 138.5Q209.0 138.5 212.0 137.5Q254.5 123.5 271.75 117.0Q289.0 110.5 287.5 107.75Q286.0 105.0 272.0 102.0Q265.5 101.0 253.5 96.25Q241.5 91.5 232.0 86.5ZM408.0 158.5Q409.0 157.5 401.75 156.0Q394.5 154.5 384.0 154.5Q373.0 154.5 365.5 155.25Q358.0 156.0 358.0 157.0Q358.0 157.5 362.0 165.75Q366.0 174.0 371.0 185.5L382.0 211.5L394.0 187.5Q398.5 177.0 403.0 168.75Q407.5 160.5 408.0 158.5ZM524.0 115.5Q524.0 105.0 519.0 105.0Q514.0 105.0 514.0 115.5Q514.0 119.0 515.5 122.0Q517.0 125.0 519.0 125.0Q521.0 125.0 522.5 122.0Q524.0 119.0 524.0 115.5ZM558.0 33.5Q559.0 31.5 548.75 30.75Q538.5 30.0 525.0 30.0Q504.5 30.0 496.75 31.5Q489.0 33.0 490.5 41.0Q492.0 49.0 500.0 68.0Q510.0 95.5 519.0 95.5Q524.5 95.5 535.5 77.5Q546.5 59.5 558.0 33.5ZM49.0 359.5Q45.0 358.5 39.75 356.5Q34.5 354.5 31.0 353.0Q25.5 351.0 23.75 353.5Q22.0 356.0 22.0 368.5Q22.0 375.5 23.25 380.25Q24.5 385.0 26.5 385.0Q53.0 372.0 57.0 367.25Q61.0 362.5 49.0 359.5ZM515.0 276.5Q515.0 253.0 515.5 236.5Q516.0 220.0 514.5 218.5Q512.0 218.5 501.0 222.75Q490.0 227.0 474.75 233.25Q459.5 239.5 444.5 246.5Q429.5 253.5 418.25 259.25Q407.0 265.0 404.5 267.5Q403.5 268.0 411.25 273.75Q419.0 279.5 432.25 287.75Q445.5 296.0 460.25 304.5Q475.0 313.0 487.75 320.0Q500.5 327.0 507.0 329.5Q509.0 330.0 512.0 331.5Q515.0 333.0 516.0 333.0V319.5Q516.0 313.0 515.5 302.5Q515.0 292.0 515.0 276.5ZM235.5 383.0Q226.0 377.5 217.0 374.0Q208.0 370.5 206.5 370.5Q204.5 370.5 203.75 380.0Q203.0 389.5 203.0 403.0V435.5L222.5 427.0Q234.5 422.5 240.75 420.25Q247.0 418.0 253.75 416.25Q260.5 414.5 273.0 411.0Q296.0 405.5 287.5 400.0Q285.0 398.5 280.25 397.0Q275.5 395.5 271.5 395.5Q266.5 395.5 256.0 391.75Q245.5 388.0 235.5 383.0ZM302.5 329.0Q310.5 321.0 314.25 315.75Q318.0 310.5 315.5 310.5Q294.0 314.0 284.75 316.0Q275.5 318.0 273.75 320.25Q272.0 322.5 272.0 327.5Q275.0 342.5 281.5 342.5Q288.5 342.5 302.5 329.0ZM515.0 344.5 456.0 313.0Q433.0 300.0 416.25 290.25Q399.5 280.5 398.0 280.5Q396.0 280.5 394.5 296.75Q393.0 313.0 393.0 336.0V390.5H514.5ZM468.5 14.0Q468.5 10.0 473.5 10.0Q479.0 10.0 481.5 14.0Q483.0 16.0 498.25 18.0Q513.5 20.0 534.5 20.0Q558.0 20.0 571.25 21.0Q584.5 22.0 584.5 24.5Q584.5 27.0 582.25 29.25Q580.0 31.5 577.5 32.5Q574.0 33.5 567.25 43.0Q560.5 52.5 554.5 65.0Q543.5 85.0 542.75 89.75Q542.0 94.5 547.0 97.0Q553.5 99.5 553.25 100.75Q553.0 102.0 545.5 105.0Q540.5 107.0 537.25 112.0Q534.0 117.0 532.25 130.75Q530.5 144.5 529.25 171.75Q528.0 199.0 526.5 245.5L527.0 338.0Q538.5 344.5 535.5 347.0Q532.5 349.5 527.0 347.5L526.5 391.0Q532.5 391.0 543.75 391.5Q555.0 392.0 564.5 393.0Q574.0 394.0 574.0 395.5Q574.0 397.5 567.25 398.75Q560.5 400.0 552.0 400.0Q539.0 400.0 533.5 402.25Q528.0 404.5 525.5 408.5Q523.5 414.0 521.75 414.0Q520.0 414.0 516.0 408.5Q513.0 404.5 506.25 402.5Q499.5 400.5 478.0 400.5Q458.5 400.5 418.0 402.0Q381.0 402.5 357.75 404.25Q334.5 406.0 319.0 408.5Q303.5 411.0 288.0 415.5Q264.5 422.5 243.75 430.0Q223.0 437.5 210.5 443.25Q198.0 449.0 198.0 452.0Q198.0 455.5 193.0 455.5Q192.0 455.5 190.5 444.25Q189.0 433.0 190.0 416.0L190.5 378.5H54.0L34.0 394.0Q25.0 400.5 18.5 405.75Q12.0 411.0 10.5 411.0Q10.0 411.0 10.0 397.0Q10.0 383.0 10.5 363.5Q12.0 340.0 13.0 321.5Q14.0 303.0 14.75 285.75Q15.5 268.5 16.25 248.75Q17.0 229.0 17.5 202.5Q18.0 177.5 19.25 159.0Q20.5 140.5 21.5 138.5Q22.0 137.5 26.75 138.75Q31.5 140.0 36.5 145.0Q65.5 164.0 99.25 168.25Q133.0 172.5 166.5 172.5Q189.0 172.5 192.75 168.75Q196.5 165.0 187.0 156.0Q183.5 152.0 183.5 149.75Q183.5 147.5 187.0 144.0Q189.5 141.5 191.25 128.5Q193.0 115.5 193.0 96.0Q193.0 79.0 193.75 66.5Q194.5 54.0 195.5 54.0Q197.5 54.0 202.75 57.25Q208.0 60.5 213.0 65.0Q228.0 76.0 240.75 82.5Q253.5 89.0 270.0 92.25Q286.5 95.5 313.0 96.75Q339.5 98.0 382.0 98.5Q432.0 100.0 462.5 99.0Q493.0 98.0 494.5 96.0Q497.0 94.0 494.5 82.75Q492.0 71.5 484.0 54.0Q478.0 39.0 473.25 27.25Q468.5 15.5 468.5 14.0Z" fill="black" /></svg>