<svg xmlns="http://www.w3.org/2000/svg" width="526.5" height="342.5" viewBox="0 0 526.5 342.5"><path d="M84.5 152.0Q76.0 146.5 68.75 142.25Q61.5 138.0 61.0 138.0Q60.0 138.0 58.25 145.5Q56.5 153.0 54.5 163.0Q53.5 175.0 51.0 188.5Q48.5 202.0 47.0 210.5Q46.0 218.5 46.0 223.75Q46.0 229.0 48.0 229.0Q80.0 214.0 100.0 206.25Q120.0 198.5 134.0 195.0Q181.5 187.5 133.0 174.5Q122.0 171.5 107.75 164.75Q93.5 158.0 84.5 152.0ZM372.0 134.5Q379.0 121.0 383.0 110.0Q387.0 99.0 386.0 98.5Q384.0 98.5 373.5 106.75Q363.0 115.0 348.5 127.25Q334.0 139.5 319.75 152.5Q305.5 165.5 295.5 175.0Q285.5 184.5 285.0 187.0Q284.0 189.0 289.0 191.0Q294.0 193.0 302.5 193.0Q311.0 193.0 320.75 194.75Q330.5 196.5 335.5 199.0Q339.5 200.5 342.5 201.0Q345.5 201.5 348.0 201.5Q363.0 201.5 359.5 183.0Q355.0 169.0 372.0 134.5ZM436.0 19.5Q436.0 10.0 442.5 10.0Q450.0 10.0 447.25 20.5Q444.5 31.0 433.0 47.0Q428.0 53.5 420.25 67.25Q412.5 81.0 403.75 97.75Q395.0 114.5 387.0 130.5Q379.0 146.5 374.0 158.0Q369.0 169.5 369.0 172.0Q369.0 174.5 372.75 184.0Q376.5 193.5 382.0 205.0Q389.0 220.0 398.75 230.75Q408.5 241.5 425.0 251.0Q439.5 260.0 455.75 272.5Q472.0 285.0 486.0 297.5Q500.0 310.0 508.25 319.0Q516.5 328.0 514.0 330.0Q512.0 332.5 503.0 326.25Q494.0 320.0 482.5 309.5Q471.5 299.5 454.75 287.25Q438.0 275.0 419.0 262.25Q400.0 249.5 381.5 238.25Q363.0 227.0 347.5 219.5Q337.0 214.0 318.75 209.25Q300.5 204.5 285.0 202.5Q269.0 201.5 255.25 199.0Q241.5 196.5 239.0 194.5Q234.0 192.0 224.5 192.0Q204.0 192.0 152.0 203.0Q111.5 212.5 80.0 228.0Q48.5 243.5 32.0 262.0Q20.0 276.0 16.5 276.0Q13.5 276.0 12.0 271.0Q10.0 266.5 12.5 259.0Q15.0 251.5 20.5 244.0Q27.5 234.5 33.25 215.25Q39.0 196.0 42.25 172.0Q45.5 148.0 45.5 124.5Q45.5 95.5 53.0 95.5Q57.0 95.5 60.0 106.5Q63.0 115.0 72.5 125.0Q82.0 135.0 95.25 143.75Q108.5 152.5 122.5 158.0Q137.0 163.5 159.5 168.0Q182.0 172.5 205.75 175.0Q229.5 177.5 247.0 177.5Q265.5 177.5 271.5 174.5Q280.0 170.0 295.5 158.0Q311.0 146.0 329.5 129.5Q348.0 113.0 366.75 95.5Q385.5 78.0 401.25 62.0Q417.0 46.0 426.5 34.5Q436.0 23.0 436.0 19.5Z" fill="black" /></svg>