<svg xmlns="http://www.w3.org/2000/svg" width="317.5" height="369.5" viewBox="0 0 317.5 369.5"><path d="M126.5 116.5Q134.0 108.0 139.25 101.25Q144.5 94.5 143.5 93.5Q142.0 93.5 131.5 100.0Q121.0 106.5 106.75 116.25Q92.5 126.0 78.25 136.0Q64.0 146.0 54.25 153.25Q44.5 160.5 43.5 162.0Q43.0 164.0 49.75 165.25Q56.5 166.5 66.0 166.5Q77.5 166.5 88.5 165.0Q99.5 163.5 102.5 160.5Q105.0 158.0 106.75 154.0Q108.5 150.0 108.5 146.5Q108.5 142.5 113.75 134.0Q119.0 125.5 126.5 116.5ZM218.5 199.5Q226.0 189.5 230.75 182.25Q235.5 175.0 234.5 174.0Q233.5 174.0 217.25 185.25Q201.0 196.5 178.0 212.5L124.0 251.0L154.0 257.0Q167.0 258.5 177.0 258.75Q187.0 259.0 188.5 258.5Q194.0 254.5 197.0 239.0Q199.0 232.0 205.25 220.5Q211.5 209.0 218.5 199.5ZM214.0 21.5Q222.5 10.0 227.0 10.0Q230.0 10.0 230.0 15.5Q230.0 18.0 223.5 26.0Q217.0 34.0 208.5 42.5Q188.5 61.0 170.5 81.0Q152.5 101.0 139.5 118.5Q126.5 136.0 120.5 148.25Q114.5 160.5 118.0 164.0Q119.0 165.0 120.25 169.25Q121.5 173.5 121.5 177.5Q121.5 187.0 141.5 200.0L162.5 212.5L215.5 173.0Q230.5 161.5 244.25 150.25Q258.0 139.0 268.25 129.75Q278.5 120.5 282.5 116.5Q288.5 109.5 294.5 105.25Q300.5 101.0 302.0 101.0Q304.5 101.0 303.0 105.75Q301.5 110.5 298.0 116.75Q294.5 123.0 290.5 128.25Q286.5 133.5 283.5 134.5Q280.0 135.5 271.25 146.0Q262.5 156.5 251.0 171.5Q239.5 186.5 229.0 201.75Q218.5 217.0 211.5 228.5Q204.5 240.0 204.5 243.5Q204.5 252.5 210.0 255.5Q212.5 256.5 213.75 260.75Q215.0 265.0 215.0 270.0Q215.0 276.0 222.0 282.75Q229.0 289.5 244.5 299.5Q261.0 310.5 275.75 323.25Q290.5 336.0 299.0 345.5Q307.5 355.0 305.0 357.5Q303.5 359.5 295.5 354.5Q287.5 349.5 279.0 340.5Q268.0 329.5 250.5 316.75Q233.0 304.0 214.25 292.5Q195.5 281.0 180.5 274.5Q172.5 271.0 156.0 268.0Q139.5 265.0 123.5 263.5L85.5 260.5L115.5 242.5Q128.5 235.0 137.5 228.5Q146.5 222.0 147.0 220.5Q148.0 218.0 141.0 212.25Q134.0 206.5 122.25 199.75Q110.5 193.0 98.0 187.0Q85.5 181.0 75.0 177.5Q67.5 175.0 56.75 173.75Q46.0 172.5 38.0 174.0Q29.0 175.5 23.5 175.5Q10.0 175.5 14.0 168.5Q18.0 161.5 38.5 149.0Q54.0 139.5 75.5 124.75Q97.0 110.0 120.0 93.75Q143.0 77.5 163.5 62.25Q184.0 47.0 197.75 36.0Q211.5 25.0 214.0 21.5Z" fill="black" /></svg>