<svg xmlns="http://www.w3.org/2000/svg" width="565.5" height="382.5" viewBox="0 0 565.5 382.5"><path d="M65.5 273.0Q52.0 267.5 42.25 263.5Q32.5 259.5 32.5 259.5Q32.0 259.5 32.0 269.25Q32.0 279.0 32.0 292.5Q30.5 325.5 36.5 325.5Q39.0 325.5 49.0 322.75Q59.0 320.0 71.0 316.5Q80.0 313.5 90.75 310.75Q101.5 308.0 101.5 308.0V285.0Q101.5 285.0 93.75 283.0Q86.0 281.0 65.5 273.0ZM130.0 301.5V292.5L110.0 287.0V306.0ZM139.0 300.0 162.5 297.0 139.0 294.0ZM42.5 85.5Q47.5 98.0 52.0 110.75Q56.5 123.5 61.0 136.5Q64.0 124.5 65.75 116.75Q67.5 109.0 69.75 102.5Q72.0 96.0 75.5 87.0Q72.0 87.5 68.75 87.25Q65.5 87.0 62.0 87.0Q57.0 87.0 52.25 86.5Q47.5 86.0 42.5 85.5ZM100.0 127.5Q102.0 132.0 104.25 140.5Q106.5 149.0 107.0 153.5Q109.5 145.5 111.0 139.5Q112.5 133.5 116.0 127.5Q111.0 127.5 108.25 128.0Q105.5 128.5 100.0 127.5ZM126.5 150.0Q129.0 155.0 130.5 161.5Q132.0 168.0 134.0 177.5Q134.5 170.5 136.5 163.0Q138.5 155.5 140.5 150.0Q137.0 150.0 133.5 150.0Q130.0 150.0 126.5 150.0ZM122.0 127.5 149.0 119.0 122.0 113.0Q122.0 113.0 123.0 114.25Q124.0 115.5 124.0 119.0Q124.0 122.5 123.0 125.0Q122.0 127.5 122.0 127.5ZM199.0 72.0 169.0 66.0Q157.5 63.5 144.25 59.0Q131.0 54.5 124.0 51.0Q117.0 47.0 110.75 43.75Q104.5 40.5 104.0 40.5Q104.0 41.5 104.25 50.25Q104.5 59.0 104.0 69.5Q103.5 79.0 102.0 87.75Q100.5 96.5 102.5 97.5Q105.5 97.5 120.5 92.5Q135.5 87.5 162.5 81.0ZM146.5 150.5 173.5 142.5 148.0 138.0Q148.0 138.0 148.75 139.25Q149.5 140.5 149.0 144.0Q148.5 147.5 147.5 149.0Q146.5 150.5 146.5 150.5ZM167.5 202.5Q169.0 195.5 170.25 189.5Q171.5 183.5 174.5 176.5Q167.0 177.0 159.5 176.5Q163.0 183.0 164.25 189.25Q165.5 195.5 167.5 202.5ZM181.0 180.0 208.0 172.0 181.0 166.0Q181.0 166.0 181.75 167.0Q182.5 168.0 182.5 172.0Q182.5 176.0 181.75 178.0Q181.0 180.0 181.0 180.0ZM389.0 189.5 364.0 180.0V200.0Q366.5 199.0 372.5 196.5Q378.5 194.0 383.75 191.75Q389.0 189.5 389.0 189.5ZM365.0 246.0 389.0 234.5 365.0 225.0ZM365.5 157.5 389.5 146.0 365.5 136.5ZM530.0 27.5Q531.0 26.5 520.75 25.5Q510.5 24.5 496.0 24.5Q480.5 24.5 469.25 23.75Q458.0 23.0 458.0 23.0Q458.0 23.0 462.0 31.0Q466.0 39.0 470.5 47.0Q474.0 53.5 478.5 65.0Q483.0 76.5 485.5 86.0Q489.0 97.0 492.5 106.25Q496.0 115.5 496.0 115.5L500.0 99.5Q508.0 65.5 530.0 27.5ZM152.5 175.0Q150.0 170.0 153.25 170.5Q156.5 171.0 167.0 171.0Q170.5 171.0 173.25 170.75Q176.0 170.5 178.0 170.5Q177.0 168.0 175.75 165.75Q174.5 163.5 176.0 161.5Q177.0 160.0 178.25 159.75Q179.5 159.5 183.0 160.5Q193.5 163.0 198.25 164.5Q203.0 166.0 209.25 166.75Q215.5 167.5 229.25 168.0Q243.0 168.5 271.5 169.0Q295.0 169.5 307.0 169.5Q319.0 169.5 319.0 171.0Q319.0 173.0 307.0 174.5Q295.0 176.0 269.0 176.0Q247.5 176.0 235.5 176.0Q223.5 176.0 216.5 176.5Q209.5 177.0 203.0 179.0Q196.5 181.0 185.5 185.0Q182.5 187.0 180.0 187.75Q177.5 188.5 176.5 186.5Q174.5 194.5 173.5 202.25Q172.5 210.0 172.5 218.5L172.0 288.5H336.5L496.0 289.5Q496.0 289.5 496.0 284.75Q496.0 280.0 496.0 274.0Q496.0 268.0 495.5 264.0Q495.0 252.0 494.5 232.0Q494.0 212.0 494.0 194.0Q494.0 194.0 493.75 187.5Q493.5 181.0 493.0 172.5Q492.5 164.0 492.25 157.0Q492.0 150.0 491.5 149.0H404.0L386.5 156.0Q368.0 165.5 363.0 165.5Q359.5 165.5 359.25 161.5Q359.0 157.5 359.0 150.0Q359.0 139.5 359.0 133.75Q359.0 128.0 363.0 128.0Q367.5 128.0 377.0 133.5Q385.5 138.0 393.0 139.5Q400.5 141.0 411.25 141.0Q422.0 141.0 439.0 141.5H491.0Q491.5 140.0 488.5 128.25Q485.5 116.5 480.5 101.0L471.5 73.5H306.5Q278.5 73.0 261.75 73.25Q245.0 73.5 235.5 74.0Q226.0 74.5 220.25 75.75Q214.5 77.0 208.75 78.75Q203.0 80.5 193.0 82.5Q168.5 88.0 147.75 94.0Q127.0 100.0 105.5 112.5L102.5 114.0Q99.0 116.0 93.5 114.5Q89.0 113.0 89.75 105.25Q90.5 97.5 92.5 87.5Q94.5 79.0 95.25 67.5Q96.0 56.0 94.0 48.0Q91.0 28.0 99.0 28.0Q103.0 28.0 113.0 35.0Q117.0 38.0 128.75 43.0Q140.5 48.0 153.5 52.5Q163.5 55.5 174.25 57.5Q185.0 59.5 202.0 60.75Q219.0 62.0 248.25 62.75Q277.5 63.5 325.0 64.5H468.5Q468.5 62.5 463.5 54.75Q458.5 47.0 453.5 37.5Q448.5 27.5 445.0 19.75Q441.5 12.0 441.5 11.0Q441.5 10.0 444.75 10.0Q448.0 10.0 452.0 12.0Q457.0 13.0 473.75 13.5Q490.5 14.0 509.0 14.0Q528.0 14.0 541.75 14.25Q555.5 14.5 555.5 15.5Q555.5 16.5 551.75 20.5Q548.0 24.5 542.5 30.0Q533.5 39.5 525.75 56.25Q518.0 73.0 512.75 90.75Q507.5 108.5 506.0 121.5Q505.5 125.5 505.5 137.75Q505.5 150.0 505.5 165.5Q505.5 181.0 505.75 195.5Q506.0 210.0 506.0 219.75Q506.0 229.5 506.0 229.5Q506.0 266.5 505.5 297.0Q505.0 327.5 504.25 345.5Q503.5 363.5 502.0 363.5Q501.5 363.5 500.75 357.5Q500.0 351.5 499.5 343.5Q499.0 335.5 498.5 330.5Q498.0 325.0 497.75 317.25Q497.5 309.5 497.25 303.5Q497.0 297.5 497.0 297.5L353.5 297.0Q313.0 297.0 280.75 297.0Q248.5 297.0 228.25 297.25Q208.0 297.5 203.0 298.5L172.0 303.5V338.0Q172.0 353.5 171.0 363.0Q170.0 372.5 167.5 372.5Q165.5 372.5 164.0 363.0Q162.5 353.5 162.5 339.5V305.0L139.0 309.5V328.5Q139.0 345.5 134.5 345.5Q130.0 345.5 130.0 328.5V311.0Q130.0 311.0 124.75 312.5Q119.5 314.0 114.5 315.0Q108.0 316.0 91.0 321.0Q74.0 326.0 56.5 331.5Q41.0 336.5 28.75 339.5Q16.5 342.5 13.5 342.5Q13.0 342.5 12.75 342.5Q12.5 342.5 12.5 342.5Q10.0 340.0 17.0 332.0Q23.0 325.5 23.0 282.0Q22.5 265.0 23.25 252.75Q24.0 240.5 25.0 240.5Q28.5 240.5 37.0 247.5L56.5 257.0V168.0Q57.0 151.0 51.0 132.5Q45.0 114.0 38.5 99.0Q32.0 84.0 30.5 78.0Q30.5 74.0 37.0 74.0Q41.0 74.0 46.5 74.75Q52.0 75.5 58.0 76.5Q68.0 77.5 76.75 76.0Q85.5 74.5 87.5 75.5Q89.0 76.5 85.25 84.5Q81.5 92.5 77.5 102.5Q69.5 123.5 67.5 147.0Q65.5 170.5 65.5 192.0L65.0 260.0Q66.0 261.0 71.0 263.5Q76.0 266.0 81.25 268.0Q86.5 270.0 88.0 270.5L101.5 274.5V163.5Q101.5 153.5 100.0 146.0Q98.5 138.5 95.5 132.0L92.0 124.5Q90.0 120.0 96.5 120.75Q103.0 121.5 107.0 121.5Q110.0 121.5 113.75 121.25Q117.5 121.0 121.0 121.0V120.0Q120.5 117.0 118.0 113.75Q115.5 110.5 117.5 108.5Q120.0 107.0 121.0 107.0Q122.0 107.0 125.0 108.0Q135.0 110.5 139.5 112.0Q144.0 113.5 150.25 114.25Q156.5 115.0 170.25 115.5Q184.0 116.0 212.0 116.0Q235.0 116.5 246.25 116.5Q257.5 116.5 257.5 117.5Q257.5 120.5 245.75 121.75Q234.0 123.0 209.0 123.0Q187.5 123.0 175.75 123.0Q164.0 123.0 157.25 123.5Q150.5 124.0 144.0 126.0Q137.5 128.0 127.0 132.0Q119.0 135.5 118.0 133.5Q115.0 141.5 112.75 149.5Q110.5 157.5 110.5 162.0V200.0L110.0 277.0L130.0 282.0L129.5 211.5V190.5Q129.5 174.0 125.0 162.0Q123.0 157.5 119.75 150.75Q116.5 144.0 120.0 144.0Q124.0 144.5 127.25 145.0Q130.5 145.5 134.0 145.5Q136.5 145.5 139.0 145.25Q141.5 145.0 144.0 144.5L144.5 143.0Q144.0 137.5 143.5 134.25Q143.0 131.0 145.0 132.0L151.0 133.5Q161.0 136.0 165.25 137.0Q169.5 138.0 175.5 138.5Q181.5 139.0 195.0 139.0Q208.5 139.0 236.5 139.5Q282.5 140.0 282.5 141.0Q282.5 143.5 270.75 144.75Q259.0 146.0 233.5 146.0Q212.0 146.0 200.5 146.0Q189.0 146.0 182.25 146.5Q175.5 147.0 169.0 149.0Q162.5 151.0 152.0 155.0Q146.5 158.0 143.5 157.5Q141.5 162.5 140.25 168.25Q139.0 174.0 139.0 180.0V284.0L162.5 288.0V228.0Q162.5 218.5 161.75 209.75Q161.0 201.0 159.0 193.0Q157.0 183.5 154.75 179.25Q152.5 175.0 152.5 175.0ZM359.5 173.0Q360.5 172.0 365.5 173.0Q370.5 174.0 376.0 177.0Q389.0 183.0 396.5 184.75Q404.0 186.5 413.0 186.25Q422.0 186.0 439.0 186.0Q461.5 186.0 476.5 186.25Q491.5 186.5 491.5 188.0Q491.5 190.0 479.0 191.75Q466.5 193.5 449.5 193.5Q432.5 193.5 415.5 193.75Q398.5 194.0 389.5 198.0Q380.0 201.5 374.25 203.75Q368.5 206.0 365.0 206.0Q360.0 206.0 358.75 202.25Q357.5 198.5 357.5 191.0Q357.5 184.0 358.0 179.0Q358.5 174.0 359.5 173.0ZM358.0 237.0Q358.0 227.0 358.5 221.75Q359.0 216.5 363.0 216.5Q367.0 216.5 380.5 224.0Q390.5 229.5 408.75 231.0Q427.0 232.5 446.0 232.5Q473.0 232.5 483.5 233.0Q494.0 233.5 493.0 236.0Q492.5 237.0 487.5 238.0Q482.5 239.0 468.75 239.25Q455.0 239.5 428.0 239.0Q408.0 238.5 398.75 240.25Q389.5 242.0 381.5 246.0Q373.5 249.5 369.0 251.5Q364.5 253.5 362.0 253.5Q359.0 253.5 358.5 249.75Q358.0 246.0 358.0 237.0Z" fill="black" /></svg>