<svg xmlns="http://www.w3.org/2000/svg" width="542.5" height="385.5" viewBox="0 0 542.5 385.5"><path d="M41.5 288.0Q41.5 284.5 33.5 281.0Q26.0 278.5 26.0 291.5Q26.0 301.5 28.5 301.5Q31.0 301.5 36.25 295.75Q41.5 290.0 41.5 288.0ZM35.0 133.5Q39.0 128.0 39.0 125.75Q39.0 123.5 33.5 121.5Q32.5 121.0 30.5 121.0Q26.0 121.0 26.0 132.5Q26.0 137.5 26.5 140.75Q27.0 144.0 27.5 143.5Q28.0 142.5 30.25 139.75Q32.5 137.0 35.0 133.5ZM41.5 226.5Q41.5 221.5 36.0 221.5Q31.0 221.5 31.0 226.5Q31.0 231.5 36.0 231.5Q41.5 231.5 41.5 226.5ZM116.5 131.5Q109.0 127.5 100.25 125.5Q91.5 123.5 83.0 123.5Q72.0 123.5 62.75 126.5Q53.5 129.5 48.0 135.0Q40.0 144.0 33.5 155.0Q27.0 166.0 24.5 174.5Q22.0 183.0 25.5 184.5Q31.0 186.5 31.0 193.0Q31.0 202.0 37.25 207.0Q43.5 212.0 59.75 214.0Q76.0 216.0 106.0 216.0Q132.5 216.0 148.5 217.5Q164.5 219.0 164.5 221.5Q164.5 223.5 150.0 225.0Q135.5 226.5 111.5 226.5Q83.0 226.5 69.25 228.0Q55.5 229.5 49.0 235.0Q42.5 240.5 35.5 253.0Q30.0 263.5 35.0 268.5Q37.5 271.0 51.25 272.75Q65.0 274.5 84.5 275.5Q104.0 276.5 123.0 276.5Q142.0 276.5 157.0 275.25Q172.0 274.0 176.0 272.0Q183.0 268.5 195.25 259.5Q207.5 250.5 220.75 239.75Q234.0 229.0 243.0 220.75Q252.0 212.5 252.0 211.0Q252.0 206.0 243.5 197.5Q235.0 189.0 221.75 179.0Q208.5 169.0 194.0 159.75Q179.5 150.5 167.0 144.75Q154.5 139.0 147.5 139.0Q141.0 139.0 131.75 136.75Q122.5 134.5 116.5 131.5ZM229.0 257.5Q232.5 251.0 234.25 246.75Q236.0 242.5 235.5 242.5Q235.0 242.5 228.0 247.5Q221.0 252.5 211.5 260.0L189.5 278.0L203.5 283.0Q215.5 287.5 218.5 287.5Q221.5 287.5 221.5 280.5Q221.5 277.0 223.75 270.25Q226.0 263.5 229.0 257.5ZM263.0 147.0Q253.5 142.5 241.25 139.75Q229.0 137.0 219.0 137.0Q209.5 137.0 205.5 139.5Q201.0 141.5 206.75 149.25Q212.5 157.0 231.5 174.5Q247.0 188.5 257.0 195.0Q267.0 201.5 268.5 199.0Q272.0 194.0 276.0 196.5Q277.5 198.0 275.5 203.25Q273.5 208.5 269.5 214.0Q241.0 254.5 234.75 268.75Q228.5 283.0 239.0 283.0Q242.0 283.0 252.25 276.75Q262.5 270.5 275.25 260.75Q288.0 251.0 300.5 240.75Q313.0 230.5 320.5 222.5L335.0 207.5L305.5 180.5Q293.5 170.0 281.0 160.0Q268.5 150.0 263.0 147.0ZM309.5 253.0Q316.5 247.0 313.5 247.0Q312.0 247.0 305.0 252.0Q298.0 257.0 289.5 263.5Q281.0 270.0 274.75 275.0Q268.5 280.0 269.0 280.5Q269.5 281.0 275.75 282.25Q282.0 283.5 288.75 284.75Q295.5 286.0 297.5 286.0Q301.5 286.0 302.5 283.25Q303.5 280.5 303.5 273.5Q303.5 267.5 305.25 261.5Q307.0 255.5 309.5 253.0ZM365.0 260.0Q365.0 257.5 362.5 257.5Q360.0 257.5 360.0 260.0Q360.0 262.5 362.5 262.5Q365.0 262.5 365.0 260.0ZM196.0 98.5Q200.5 91.5 203.25 86.0Q206.0 80.5 205.0 80.0Q204.0 80.0 194.75 86.25Q185.5 92.5 173.5 102.0Q161.5 111.5 153.0 118.5Q144.5 125.5 145.0 126.0Q146.5 126.5 153.5 128.25Q160.5 130.0 168.25 131.25Q176.0 132.5 178.5 132.5Q185.5 132.5 185.5 125.0Q185.5 121.0 188.5 113.25Q191.5 105.5 196.0 98.5ZM283.5 95.0Q293.5 78.5 291.5 78.5Q290.0 78.5 278.0 89.0Q272.5 94.0 264.5 100.5Q256.5 107.0 250.0 112.5Q237.5 122.0 238.25 124.75Q239.0 127.5 256.0 131.5Q263.0 133.0 266.0 133.0Q270.0 133.0 271.25 130.75Q272.5 128.5 272.5 123.0Q272.5 118.5 275.75 110.0Q279.0 101.5 283.5 95.0ZM470.5 191.0Q469.0 186.0 465.75 183.75Q462.5 181.5 452.75 180.75Q443.0 180.0 422.5 180.0Q388.0 180.0 371.25 185.75Q354.5 191.5 362.5 200.0Q364.5 201.5 378.25 203.25Q392.0 205.0 410.25 206.0Q428.5 207.0 444.0 207.0Q455.0 207.0 462.5 206.25Q470.0 205.5 471.0 204.5Q472.0 203.5 472.0 199.25Q472.0 195.0 470.5 191.0ZM473.5 252.5 470.5 218.5 426.0 217.0Q406.0 216.5 395.75 217.0Q385.5 217.5 380.25 219.5Q375.0 221.5 370.5 226.5Q357.0 240.0 367.5 245.0Q378.0 250.0 422.0 251.0ZM364.0 78.5Q366.5 72.5 361.5 72.5Q356.0 72.5 349.5 80.5Q344.5 85.5 345.0 86.75Q345.5 88.0 352.0 87.0Q361.0 85.5 364.0 78.5ZM463.0 154.0Q459.5 147.5 451.25 145.75Q443.0 144.0 417.0 144.0Q393.0 144.0 383.5 146.0Q374.0 148.0 369.0 153.5Q365.0 157.0 363.5 161.0Q362.0 165.0 363.5 166.5Q365.0 167.5 373.75 168.25Q382.5 169.0 395.5 169.5Q408.5 170.0 422.0 170.0Q440.0 170.0 454.0 169.25Q468.0 168.5 468.0 167.0Q468.0 165.5 466.5 161.75Q465.0 158.0 463.0 154.0ZM501.5 145.0Q504.0 137.5 502.0 135.75Q500.0 134.0 488.5 134.0H472.0L475.0 158.0Q481.0 196.5 484.5 196.5Q486.0 196.5 488.5 189.75Q491.0 183.0 493.75 173.75Q496.5 164.5 498.75 156.25Q501.0 148.0 501.5 145.0ZM375.5 44.5Q415.5 10.0 420.5 10.0Q425.5 10.0 395.5 49.5Q384.5 63.5 378.25 74.75Q372.0 86.0 374.0 87.0Q378.0 90.0 378.0 96.0Q378.0 100.0 384.0 106.5Q390.0 113.0 398.75 119.25Q407.5 125.5 416.5 129.75Q425.5 134.0 431.5 134.0Q438.5 134.0 443.0 132.25Q447.5 130.5 447.5 128.5Q447.5 126.0 456.25 124.75Q465.0 123.5 477.5 123.5Q489.5 123.5 500.0 121.75Q510.5 120.0 513.0 118.0Q519.0 112.0 527.0 115.0Q532.5 117.0 532.25 119.25Q532.0 121.5 525.0 128.0Q517.0 136.5 509.5 157.0Q502.0 177.5 496.0 205.75Q490.0 234.0 486.75 266.0Q483.5 298.0 483.5 329.5Q483.5 350.0 482.25 362.75Q481.0 375.5 478.5 375.5Q476.0 375.5 474.5 360.25Q473.0 345.0 473.0 319.5V264.0L428.5 261.5Q403.5 260.0 390.5 261.5Q377.5 263.0 370.5 269.5Q363.5 276.0 357.0 290.5Q353.0 300.5 351.5 300.5Q350.0 300.5 349.75 289.75Q349.5 279.0 349.0 253.0Q349.0 223.5 343.0 223.5Q337.5 223.5 325.5 245.0Q316.5 260.5 314.5 274.25Q312.5 288.0 319.5 288.0Q321.5 288.0 322.25 289.25Q323.0 290.5 321.5 292.5Q320.5 295.0 326.0 300.75Q331.5 306.5 340.5 313.0Q361.0 327.0 371.75 338.5Q382.5 350.0 379.0 353.5Q377.5 355.0 372.25 352.0Q367.0 349.0 361.0 343.0Q347.5 330.0 329.25 318.5Q311.0 307.0 293.5 300.0Q276.0 293.0 264.0 293.0Q254.5 293.0 248.25 294.25Q242.0 295.5 242.0 297.0Q242.0 299.0 249.5 304.25Q257.0 309.5 268.0 316.5Q289.0 329.0 300.0 339.0Q311.0 349.0 307.0 353.0Q307.0 353.0 306.75 353.0Q306.5 353.0 306.0 353.0Q304.0 353.0 298.0 349.5Q292.0 346.0 284.5 340.5Q276.5 334.0 261.75 324.75Q247.0 315.5 234.0 309.0Q224.0 304.0 215.5 300.75Q207.0 297.5 196.75 295.25Q186.5 293.0 171.25 291.25Q156.0 289.5 132.5 288.0L61.5 282.5L46.5 299.5Q40.0 306.0 34.0 316.0Q28.0 326.0 25.5 333.0Q19.5 349.5 15.5 349.5Q10.0 349.5 12.5 330.5Q14.0 318.0 15.25 300.5Q16.5 283.0 17.5 264.0Q18.5 245.0 18.75 228.25Q19.0 211.5 18.5 200.75Q18.0 190.0 17.0 189.5Q15.5 189.0 14.75 177.5Q14.0 166.0 14.5 149.25Q15.0 132.5 15.75 116.25Q16.5 100.0 18.0 88.75Q19.5 77.5 21.5 77.5Q26.0 77.5 26.0 86.5Q26.0 97.0 30.75 103.0Q35.5 109.0 48.25 111.75Q61.0 114.5 85.0 115.5Q104.5 116.0 121.0 115.0Q137.5 114.0 141.5 112.0Q146.5 109.5 158.5 100.25Q170.5 91.0 185.5 79.0Q200.5 67.0 214.5 55.25Q228.5 43.5 237.75 35.25Q247.0 27.0 247.0 25.5Q247.0 21.0 252.0 21.0Q259.0 21.0 257.25 28.75Q255.5 36.5 247.0 44.0Q237.5 52.5 227.0 67.5Q216.5 82.5 208.5 97.75Q200.5 113.0 197.5 123.5Q194.5 134.0 199.5 134.0Q202.0 134.0 213.5 126.0Q225.0 118.0 241.0 105.25Q257.0 92.5 273.75 78.25Q290.5 64.0 303.5 52.0Q316.5 40.0 326.5 32.0Q336.5 24.0 339.0 24.0Q341.5 26.5 337.0 33.0Q335.0 35.5 327.0 47.0Q319.0 58.5 309.5 72.5Q275.5 124.5 286.0 133.5Q290.5 136.0 290.5 144.0Q290.5 147.5 298.75 157.0Q307.0 166.5 318.0 177.0L344.5 202.5V160.0Q344.5 118.0 351.5 118.0Q354.0 118.0 357.0 126.0Q358.0 130.0 364.0 132.0Q370.0 134.0 378.5 134.0Q391.0 134.0 393.0 132.5Q395.0 131.0 390.5 125.5Q382.5 116.5 366.0 109.0Q349.5 101.5 330.0 98.5L306.0 95.0L321.5 86.5Q328.5 83.0 344.25 70.75Q360.0 58.5 375.5 44.5Z" fill="black" /></svg>