<svg xmlns="http://www.w3.org/2000/svg" width="776.5" height="451.0" viewBox="0 0 776.5 451.0"><path d="M78.5 294.0Q72.5 292.0 64.5 288.25Q56.5 284.5 51.0 282.0L38.5 275.0L37.0 302.0Q36.5 313.0 35.75 320.75Q35.0 328.5 36.5 328.5Q36.5 328.5 40.25 327.25Q44.0 326.0 50.5 324.0Q56.5 321.5 64.5 319.25Q72.5 317.0 78.5 316.5Q84.0 315.5 87.5 312.25Q91.0 309.0 91.0 305.5Q91.0 303.0 87.5 299.5Q84.0 296.0 78.5 294.0ZM117.5 309.0Q121.0 306.0 119.5 305.0Q118.0 304.0 111.0 304.0Q104.5 304.0 103.5 305.0Q102.5 306.0 105.5 309.0Q109.5 312.5 111.75 312.5Q114.0 312.5 117.5 309.0ZM147.0 171.5Q144.0 156.5 136.5 156.5Q132.0 156.5 126.5 163.5Q123.5 167.0 120.0 178.75Q116.5 190.5 113.5 206.0Q110.5 221.5 108.5 237.25Q106.5 253.0 106.5 265.0Q106.5 278.5 107.25 284.5Q108.0 290.5 111.25 292.5Q114.5 294.5 122.0 296.0Q129.5 297.5 135.0 298.5Q140.5 299.5 144.0 299.5Q154.0 299.5 155.0 288.25Q156.0 277.0 154.0 243.5Q152.5 220.5 150.5 199.25Q148.5 178.0 147.0 171.5ZM324.5 184.0Q330.0 177.0 333.25 171.75Q336.5 166.5 335.5 166.5Q334.5 167.0 327.0 173.0Q319.5 179.0 309.0 188.0Q298.5 197.0 288.0 206.25Q277.5 215.5 270.5 221.5Q263.5 227.5 264.0 228.0Q264.5 228.0 271.25 229.0Q278.0 230.0 286.5 231.5Q294.0 233.0 298.5 233.0Q304.5 233.0 306.5 229.75Q308.5 226.5 310.5 218.5Q311.5 211.5 316.0 201.75Q320.5 192.0 324.5 184.0ZM409.5 231.5Q406.5 228.0 401.75 220.25Q397.0 212.5 393.0 205.0L383.0 187.5L355.5 209.0L383.0 224.0Q396.5 231.5 404.0 235.5Q411.5 239.5 413.5 239.5Q416.5 239.5 409.5 231.5ZM365.5 228.0Q340.0 215.5 327.0 215.5Q314.5 215.5 322.5 229.5Q324.0 233.5 324.75 237.0Q325.5 240.5 324.0 241.5Q323.0 242.5 329.0 249.5Q335.0 256.5 344.25 266.0Q353.5 275.5 363.25 285.0Q373.0 294.5 380.5 300.75Q388.0 307.0 389.5 307.0Q391.0 307.0 396.5 310.75Q402.0 314.5 407.5 320.0Q414.5 326.5 418.5 329.5Q422.5 332.5 430.0 332.5Q441.5 332.5 458.5 328.75Q475.5 325.0 485.5 321.0L500.5 316.0L468.0 292.5Q455.5 282.5 445.0 275.75Q434.5 269.0 433.0 269.0Q432.0 269.0 430.75 273.5Q429.5 278.0 429.5 284.0Q429.5 298.0 425.5 298.0Q423.5 298.0 422.0 292.75Q420.5 287.5 420.5 279.5Q420.5 268.5 416.25 261.0Q412.0 253.5 400.25 246.0Q388.5 238.5 365.5 228.0ZM509.0 330.0Q509.0 329.0 506.0 329.0Q502.5 329.0 493.5 330.5Q484.5 332.0 467.5 336.0Q455.0 339.0 442.25 341.0Q429.5 343.0 424.0 341.0Q414.5 340.0 413.0 342.25Q411.5 344.5 413.5 357.5Q415.0 365.0 416.0 374.0Q417.0 383.0 417.0 388.5V401.5L435.5 385.0Q443.5 378.0 456.75 367.5Q470.0 357.0 481.5 350.0Q493.0 342.5 501.0 336.5Q509.0 330.5 509.0 330.0ZM507.0 228.0Q508.5 228.0 502.25 224.5Q496.0 221.0 487.5 216.0L464.0 205.0V220.5Q464.0 228.0 465.25 231.0Q466.5 234.0 472.0 234.0Q474.5 234.0 477.75 233.5Q481.0 233.0 485.5 232.5Q494.0 230.0 500.5 229.0Q507.0 228.0 507.0 228.0ZM695.0 195.0Q699.0 190.5 701.5 186.75Q704.0 183.0 704.5 182.0Q702.5 182.5 692.0 189.75Q681.5 197.0 667.0 207.5Q638.5 226.5 637.75 232.75Q637.0 239.0 661.5 240.0Q669.5 240.0 672.75 236.5Q676.0 233.0 679.5 225.0Q682.0 218.5 686.75 210.0Q691.5 201.5 695.0 195.0ZM90.5 87.5Q78.5 84.0 68.0 79.5Q57.5 75.0 54.5 73.0Q52.0 70.5 50.5 70.5Q47.5 70.5 47.5 89.5Q47.5 104.0 49.25 108.0Q51.0 112.0 56.5 110.0L78.5 104.5Q111.0 98.5 111.75 96.5Q112.5 94.5 90.5 87.5ZM114.0 164.0Q117.5 156.5 106.5 156.5Q100.5 156.5 98.5 159.25Q96.5 162.0 96.5 171.5Q96.5 183.0 98.75 189.75Q101.0 196.5 103.0 196.5Q106.5 196.5 107.0 187.5Q109.0 182.0 110.75 175.0Q112.5 168.0 114.0 164.0ZM163.0 204.0 170.5 180.5Q176.0 163.0 175.5 159.75Q175.0 156.5 166.5 155.5Q157.5 153.0 156.5 158.5Q155.5 164.0 159.0 187.5ZM241.5 113.0Q238.5 103.0 228.5 103.0Q212.5 103.0 228.5 119.0Q236.5 126.0 240.0 126.0Q246.0 126.0 241.5 113.0ZM259.5 142.0Q255.5 142.0 250.25 140.75Q245.0 139.5 240.5 138.5Q238.5 137.0 236.5 137.0Q233.5 137.0 235.5 151.5Q236.5 159.5 238.25 171.25Q240.0 183.0 241.5 193.0L244.5 218.5L253.5 188.0Q257.5 175.5 261.0 164.75Q264.5 154.0 266.5 150.0Q268.0 145.5 266.5 143.75Q265.0 142.0 259.5 142.0ZM279.5 58.5H268.0Q263.0 58.5 256.5 57.25Q250.0 56.0 244.5 55.5Q241.0 54.0 239.0 54.0Q237.0 54.0 238.0 58.25Q239.0 62.5 242.5 75.0Q249.5 92.0 252.0 92.0Q253.5 92.0 255.0 88.0Q257.5 85.0 261.5 79.5Q265.5 74.0 270.0 69.5ZM438.0 140.0Q439.5 137.5 437.75 134.25Q436.0 131.0 433.0 130.0Q429.0 128.5 427.25 131.0Q425.5 133.5 425.5 142.0Q425.5 148.0 427.0 152.25Q428.5 156.5 429.5 156.5Q435.5 156.5 435.5 151.5Q435.5 147.5 438.0 140.0ZM520.5 111.0Q521.5 110.0 511.25 100.25Q501.0 90.5 487.5 76.5L451.5 44.0L425.5 77.5L453.0 86.0Q465.0 88.5 478.75 94.25Q492.5 100.0 500.5 104.0Q507.5 106.5 513.5 108.75Q519.5 111.0 520.5 111.0ZM439.0 27.5Q437.5 10.0 441.5 10.0Q446.0 10.0 457.0 27.5Q471.5 51.0 518.25 91.5Q565.0 132.0 634.5 182.5L661.0 200.5L698.0 173.0Q713.0 162.5 727.0 151.5Q741.0 140.5 745.0 136.5Q753.5 128.0 761.0 128.0Q762.5 128.5 757.75 136.25Q753.0 144.0 744.5 155.0Q709.5 193.0 696.25 213.75Q683.0 234.5 692.5 239.0Q701.5 241.5 695.0 247.0Q692.5 250.5 698.25 256.75Q704.0 263.0 721.0 276.0Q746.0 294.0 756.25 306.0Q766.5 318.0 757.0 318.0Q751.0 318.0 747.5 311.0Q746.5 308.5 738.5 302.0Q730.5 295.5 719.0 287.5Q707.5 279.5 695.5 272.0Q683.5 264.5 674.0 259.75Q664.5 255.0 661.5 255.0Q658.0 255.0 641.5 263.5Q625.0 272.0 601.25 286.0Q577.5 300.0 551.25 316.25Q525.0 332.5 501.5 347.5Q491.0 354.5 477.5 365.0Q464.0 375.5 451.25 387.0Q438.5 398.5 429.5 408.5Q416.0 421.5 405.5 431.25Q395.0 441.0 393.5 441.0Q392.0 441.0 393.5 436.5Q395.0 432.0 398.5 426.0Q401.0 420.5 403.5 410.75Q406.0 401.0 406.0 393.5Q407.0 380.0 403.75 363.5Q400.5 347.0 396.0 334.25Q391.5 321.5 387.5 319.5Q384.0 318.0 377.5 312.25Q371.0 306.5 364.5 299.5Q357.0 291.0 345.75 280.75Q334.5 270.5 320.75 261.25Q307.0 252.0 293.5 246.0Q280.0 240.0 268.0 240.0Q256.0 240.0 252.25 247.75Q248.5 255.5 248.5 277.5Q248.5 296.0 250.0 300.0Q251.5 304.0 260.5 304.0Q266.0 304.0 269.75 305.0Q273.5 306.0 273.5 308.5Q273.5 310.5 269.75 312.25Q266.0 314.0 260.5 314.0Q254.5 314.0 252.0 315.75Q249.5 317.5 249.0 325.0Q248.5 332.5 248.5 350.0Q248.5 365.5 247.25 376.5Q246.0 387.5 243.0 387.5Q241.0 387.5 240.0 376.5Q239.0 365.5 239.0 350.0V313.0L203.5 315.0L167.0 316.0L166.5 336.5Q165.0 356.5 160.5 356.5Q155.5 356.5 155.5 338.0Q155.5 324.0 153.25 321.0Q151.0 318.0 139.5 318.0Q133.0 318.0 124.75 319.25Q116.5 320.5 112.0 321.5Q104.5 323.5 103.25 327.0Q102.0 330.5 103.5 341.0Q105.0 348.0 104.75 352.75Q104.5 357.5 102.0 357.5Q100.0 357.5 98.25 352.5Q96.5 347.5 95.5 341.0Q95.0 333.0 93.5 330.0Q92.0 327.0 86.5 327.0Q77.0 327.0 62.5 331.5Q48.0 336.0 39.5 340.0Q29.5 345.5 21.0 349.0Q12.5 352.5 11.0 352.5Q10.0 352.5 12.25 346.75Q14.5 341.0 18.5 333.0Q26.5 318.5 27.0 299.5Q27.5 280.5 21.5 245.0Q21.0 241.5 22.25 238.5Q23.5 235.5 25.5 235.0Q28.0 233.5 29.25 236.25Q30.5 239.0 31.0 243.5Q33.5 253.0 45.0 263.5Q56.5 274.0 74.0 281.5L93.0 289.0L90.5 229.0Q89.5 203.5 87.0 181.5Q84.5 159.5 82.0 152.5Q76.5 137.5 79.25 134.5Q82.0 131.5 93.0 139.0Q98.5 142.5 105.75 144.0Q113.0 145.5 119.5 145.5Q127.0 145.5 132.0 143.75Q137.0 142.0 136.0 138.5Q136.0 132.0 142.5 132.0Q149.5 132.0 155.5 139.0Q158.0 142.5 165.75 144.5Q173.5 146.5 183.0 146.5Q200.0 146.5 204.0 150.5Q208.0 154.5 195.5 158.5Q190.5 159.0 186.5 165.0Q182.5 171.0 179.5 180.5Q174.0 204.5 169.75 232.5Q165.5 260.5 165.5 280.5V304.0H201.5Q221.5 304.0 230.25 302.5Q239.0 301.0 239.0 297.5Q239.0 286.5 237.75 269.0Q236.5 251.5 234.5 231.25Q232.5 211.0 230.0 192.0Q227.5 173.0 225.25 159.0Q223.0 145.0 221.5 140.0Q219.0 131.5 216.75 123.0Q214.5 114.5 214.5 111.0Q214.5 105.5 209.75 104.25Q205.0 103.0 190.5 103.0Q167.0 103.0 140.0 106.0Q113.0 109.0 90.0 113.75Q67.0 118.5 54.0 124.5Q29.5 136.0 24.0 136.0Q17.5 136.0 27.0 124.0Q35.5 113.5 37.5 92.0Q39.5 70.5 33.0 50.5Q30.5 41.0 31.5 35.75Q32.5 30.5 35.0 30.5Q39.0 30.5 42.0 40.5Q53.0 66.0 98.5 81.0Q106.5 83.0 121.25 85.0Q136.0 87.0 153.5 88.75Q171.0 90.5 187.5 91.5Q204.0 92.5 215.5 92.5Q221.0 92.5 224.75 92.25Q228.5 92.0 230.5 91.5Q238.0 88.5 235.25 78.0Q232.5 67.5 221.5 56.5Q201.5 38.5 215.0 38.5Q221.0 38.5 235.5 42.5Q246.5 45.0 263.25 46.5Q280.0 48.0 294.0 47.5Q313.0 46.5 320.25 47.5Q327.5 48.5 327.5 52.0Q327.5 54.5 323.25 56.5Q319.0 58.5 312.0 58.5Q302.5 58.5 291.25 65.5Q280.0 72.5 271.0 83.5Q262.0 94.5 259.0 106.5Q255.5 119.5 254.75 124.75Q254.0 130.0 258.75 131.0Q263.5 132.0 275.5 131.5Q294.5 130.5 300.0 133.5Q305.5 136.5 291.5 140.5Q285.0 143.5 279.5 151.0Q274.0 158.5 268.5 174.5Q264.5 185.5 261.75 195.75Q259.0 206.0 259.5 209.5Q262.0 209.5 273.5 201.5Q285.0 193.5 300.75 181.0Q316.5 168.5 332.5 154.75Q348.5 141.0 360.5 129.25Q372.5 117.5 376.5 111.5Q379.5 107.5 382.75 105.5Q386.0 103.5 387.5 106.0Q388.5 108.0 385.25 114.75Q382.0 121.5 375.5 130.0Q368.0 140.0 359.25 152.25Q350.5 164.5 343.25 175.75Q336.0 187.0 331.75 194.75Q327.5 202.5 328.0 204.0Q331.0 206.5 341.0 202.5Q351.0 198.5 362.0 190.5Q373.0 182.5 379.0 174.5Q392.5 157.0 397.0 157.0Q401.0 157.0 398.5 173.0Q396.5 183.0 398.0 190.5Q399.5 198.0 406.0 209.0L418.0 228.0L419.0 195.0Q420.0 182.5 418.0 165.25Q416.0 148.0 413.5 138.5Q408.0 117.0 411.25 110.5Q414.5 104.0 424.0 115.0Q431.0 122.5 448.0 120.5Q451.0 120.0 453.25 119.75Q455.5 119.5 457.5 119.5Q472.0 119.5 455.5 133.5Q450.5 138.0 446.0 151.5Q441.5 165.0 438.75 183.5Q436.0 202.0 435.0 221.5Q434.0 234.5 437.0 243.75Q440.0 253.0 451.25 263.75Q462.5 274.5 485.5 293.0L514.5 315.0L567.5 288.5Q582.0 281.5 595.5 274.5Q609.0 267.5 619.0 261.75Q629.0 256.0 632.0 254.0L643.0 245.0H617.5Q604.0 245.0 598.75 243.75Q593.5 242.5 594.5 239.0Q596.0 236.5 588.75 235.5Q581.5 234.5 569.5 234.5Q553.0 234.5 532.25 236.25Q511.5 238.0 494.25 240.75Q477.0 243.5 471.0 247.0Q454.0 255.0 450.5 253.75Q447.0 252.5 451.5 240.5Q453.5 232.0 454.0 222.75Q454.5 213.5 451.5 199.0Q449.0 184.0 449.0 177.5Q449.0 171.0 451.5 171.0Q453.5 171.0 457.0 174.5Q460.5 178.0 462.0 182.0Q467.5 194.5 484.0 204.25Q500.5 214.0 524.75 219.5Q549.0 225.0 577.5 225.0Q589.0 225.0 598.0 226.25Q607.0 227.5 608.5 229.5Q609.0 231.0 615.5 228.5Q622.0 226.0 630.0 220.5L652.0 207.5L621.0 185.0Q609.5 177.0 590.75 165.0Q572.0 153.0 549.0 140.0Q526.0 127.0 502.75 115.5Q479.5 104.0 458.75 96.75Q438.0 89.5 423.5 89.5Q413.0 89.5 405.5 93.0Q399.0 95.0 393.75 95.75Q388.5 96.5 387.5 95.0Q384.0 91.5 389.5 88.0Q393.5 87.5 402.0 81.0Q410.5 74.5 419.0 66.5Q429.0 57.0 433.5 51.75Q438.0 46.5 439.0 41.25Q440.0 36.0 439.0 27.5Z" fill="black" /></svg>