<svg xmlns="http://www.w3.org/2000/svg" width="489.5" height="391.0" viewBox="0 0 489.5 391.0"><path d="M58.5 281.5Q48.0 278.0 39.5 275.5Q31.0 273.0 30.0 273.0Q29.0 273.0 28.0 279.5Q27.0 286.0 27.0 295.0Q27.0 306.0 27.5 310.0Q28.0 314.0 30.0 314.0Q31.0 314.0 36.0 311.5Q40.0 309.0 47.25 305.5Q54.5 302.0 61.0 300.0Q79.0 295.0 78.75 291.5Q78.5 288.0 58.5 281.5ZM71.5 87.0Q62.5 84.5 53.75 81.75Q45.0 79.0 42.0 78.0Q37.5 76.5 36.5 79.75Q35.5 83.0 35.5 97.5Q35.5 108.5 35.75 112.75Q36.0 117.0 38.0 117.0Q40.0 117.0 44.5 114.0Q48.0 111.5 55.75 108.5Q63.5 105.5 70.5 103.5Q89.5 98.5 90.0 95.25Q90.5 92.0 71.5 87.0ZM103.0 130.0Q102.0 129.0 97.5 128.25Q93.0 127.5 88.0 127.5H75.0L80.5 146.5Q83.0 153.5 84.75 161.75Q86.5 170.0 86.5 174.0Q86.5 180.5 87.25 181.25Q88.0 182.0 90.0 176.5Q94.5 166.0 97.5 155.75Q100.5 145.5 102.25 138.0Q104.0 130.5 103.0 130.0ZM121.0 178.5Q114.5 174.5 108.5 174.5Q104.5 174.5 101.5 176.5Q98.5 178.5 98.5 182.5Q98.5 187.5 100.5 188.5Q102.5 189.5 109.0 188.5Q120.5 185.0 123.0 183.25Q125.5 181.5 121.0 178.5ZM115.5 226.0Q109.0 224.5 105.0 223.5Q101.0 222.5 98.5 222.5Q95.0 222.5 94.5 224.5Q94.0 226.5 94.0 232.0Q94.0 238.5 96.0 239.75Q98.0 241.0 105.0 239.5Q125.0 234.0 126.5 231.75Q128.0 229.5 115.5 226.0ZM133.5 263.5Q133.5 252.0 132.0 246.75Q130.5 241.5 125.5 241.5Q120.0 241.5 106.0 248.5Q97.0 253.0 94.75 256.75Q92.5 260.5 92.5 269.5Q92.5 278.5 94.5 281.0Q96.5 283.5 107.5 286.0Q115.5 288.0 121.5 288.0Q129.0 288.0 131.25 282.5Q133.5 277.0 133.5 263.5ZM133.0 207.0Q132.5 199.5 130.75 196.0Q129.0 192.5 124.5 192.5Q122.5 192.5 119.0 193.5Q115.5 194.5 111.0 196.0Q97.0 199.5 97.75 206.5Q98.5 213.5 112.5 217.5Q123.5 221.0 128.5 221.0Q132.5 221.0 133.25 218.0Q134.0 215.0 133.0 207.0ZM184.5 245.5Q184.5 240.0 181.0 239.0Q177.5 238.0 166.0 238.0Q157.5 238.0 151.25 238.5Q145.0 239.0 144.0 240.0Q143.0 241.0 142.0 248.75Q141.0 256.5 141.0 265.5V289.0H179.5L182.5 271.0Q183.0 263.0 183.75 255.5Q184.5 248.0 184.5 245.5ZM178.0 319.5Q183.5 318.5 181.0 311.5Q179.0 306.0 178.0 305.75Q177.0 305.5 173.5 310.0Q170.0 314.0 170.0 317.0Q170.0 320.0 175.0 320.0Q176.0 320.0 176.75 319.75Q177.5 319.5 178.0 319.5ZM124.5 154.5Q121.5 133.0 116.5 133.0Q111.0 133.0 106.0 151.5Q104.0 159.5 104.75 161.75Q105.5 164.0 112.0 166.5Q116.0 168.0 118.75 169.0Q121.5 170.0 123.0 170.0Q125.5 170.0 125.5 166.5Q125.5 163.0 124.5 154.5ZM152.5 130.5Q153.0 129.0 148.75 128.25Q144.5 127.5 139.0 127.5Q130.0 127.5 128.0 128.75Q126.0 130.0 127.5 134.5Q128.5 137.0 130.5 145.75Q132.5 154.5 134.5 164.5L139.0 187.0L145.5 160.0Q148.5 149.0 150.5 140.25Q152.5 131.5 152.5 130.5ZM183.0 205.0Q181.0 191.5 178.75 189.25Q176.5 187.0 165.0 187.0Q153.5 187.0 149.25 192.0Q145.0 197.0 145.0 214.5Q145.0 221.0 147.75 223.25Q150.5 225.5 161.5 227.5Q164.5 228.0 167.25 228.25Q170.0 228.5 172.0 228.5Q180.5 228.5 182.75 223.25Q185.0 218.0 183.0 205.0ZM220.0 296.5Q220.0 294.0 216.0 293.25Q212.0 292.5 206.5 292.5Q201.5 292.5 196.5 293.25Q191.5 294.0 190.5 296.5Q189.0 299.0 189.5 305.75Q190.0 312.5 192.25 318.25Q194.5 324.0 196.5 324.0Q198.5 324.0 204.25 318.25Q210.0 312.5 215.0 305.75Q220.0 299.0 220.0 296.5ZM232.0 285.0V233.5H214.0Q204.5 233.5 200.25 234.75Q196.0 236.0 194.25 242.25Q192.5 248.5 190.5 264.0L188.5 285.0ZM237.0 306.0Q232.5 296.5 226.5 303.0Q223.0 306.5 224.25 309.25Q225.5 312.0 232.0 312.0Q239.0 312.0 237.0 306.0ZM232.0 226.0 231.0 205.5Q230.5 193.5 228.75 189.0Q227.0 184.5 221.0 184.5Q217.0 184.5 210.0 186.0Q202.0 188.0 200.0 191.0Q198.0 194.0 197.5 207.0L196.0 226.0ZM397.5 185.5Q397.0 184.5 375.5 183.5Q354.0 182.5 323.5 182.5Q282.5 182.5 266.5 183.75Q250.5 185.0 250.0 187.5Q249.0 189.5 248.0 195.5Q247.0 201.5 246.0 208.5L243.0 226.0H405.0L402.0 207.0Q401.0 199.0 399.75 193.0Q398.5 187.0 397.5 185.5ZM438.0 138.0Q440.0 133.5 436.25 132.5Q432.5 131.5 415.0 131.5H389.5L397.0 150.0Q399.5 158.0 403.5 172.75Q407.5 187.5 409.5 200.5L415.0 232.0L418.0 212.5Q419.5 203.5 422.75 189.75Q426.0 176.0 430.25 161.75Q434.5 147.5 438.0 138.0ZM165.0 67.0Q168.5 54.5 166.5 54.5Q164.5 54.5 156.0 64.0Q147.5 72.5 146.25 76.25Q145.0 80.0 150.0 80.0Q161.0 80.0 165.0 67.0ZM176.5 166.0Q176.5 163.5 175.0 155.5Q173.5 147.5 171.0 140.0Q168.5 132.5 166.0 132.5Q165.0 132.5 162.0 137.5Q160.5 141.0 158.0 147.25Q155.5 153.5 154.0 160.0Q150.5 171.0 153.5 174.75Q156.5 178.5 169.0 178.5Q173.5 178.5 175.0 175.75Q176.5 173.0 176.5 166.0ZM202.0 134.5Q204.5 130.0 202.0 128.75Q199.5 127.5 190.5 127.5Q182.5 127.5 179.75 128.75Q177.0 130.0 178.0 133.0Q178.5 135.0 180.75 144.0Q183.0 153.0 184.5 163.5L190.0 188.5L194.5 165.0Q197.0 155.0 199.0 146.0Q201.0 137.0 202.0 134.5ZM223.5 150.0Q219.0 134.0 215.5 134.0Q212.5 134.0 206.5 150.0Q200.0 170.0 201.0 174.25Q202.0 178.5 214.0 178.5Q225.5 178.5 227.25 173.5Q229.0 168.5 223.5 150.0ZM238.5 70.0Q240.5 64.5 241.5 60.75Q242.5 57.0 241.5 57.0Q240.0 57.0 234.75 61.25Q229.5 65.5 224.75 70.25Q220.0 75.0 220.0 76.5Q220.0 79.5 227.5 82.0Q231.5 82.5 234.0 80.25Q236.5 78.0 238.5 70.0ZM256.5 106.5Q247.5 100.5 239.75 98.25Q232.0 96.0 219.0 96.0Q210.0 96.0 202.75 97.0Q195.5 98.0 194.5 99.0Q194.0 101.0 196.5 104.25Q199.0 107.5 203.5 111.0Q213.0 118.0 227.0 119.25Q241.0 120.5 252.0 120.5Q267.5 120.5 268.5 118.5Q270.5 118.0 266.75 114.25Q263.0 110.5 256.5 106.5ZM252.0 135.0Q253.5 129.5 240.0 128.5Q230.5 127.5 229.0 128.5Q227.5 129.5 229.5 136.0Q230.5 139.5 231.75 147.25Q233.0 155.0 234.0 162.0Q235.0 168.5 236.75 173.5Q238.5 178.5 239.5 178.5Q240.5 178.5 243.5 169.0Q246.5 159.5 252.0 135.0ZM403.5 110.5 403.0 98.5 333.0 97.0Q304.5 97.0 284.0 97.25Q263.5 97.5 263.5 98.5Q263.5 99.0 267.5 103.25Q271.5 107.5 277.0 112.0Q289.5 123.0 289.75 126.75Q290.0 130.5 277.5 130.0Q270.5 130.0 266.75 131.75Q263.0 133.5 259.5 140.5Q258.0 145.0 255.5 152.0Q253.0 159.0 252.0 164.5L250.5 176.5H394.5L394.0 167.5Q393.5 161.5 390.0 153.0Q386.5 144.5 382.75 138.0Q379.0 131.5 376.5 131.5Q373.0 131.5 373.0 127.5Q373.0 126.0 378.0 125.0Q383.0 124.0 389.5 124.0Q401.0 124.0 402.75 122.0Q404.5 120.0 403.5 110.5ZM433.5 65.5Q435.5 62.5 431.0 61.75Q426.5 61.0 415.0 61.0H392.5L403.5 82.5Q412.0 100.5 414.0 100.5Q416.0 100.5 418.0 93.0Q419.5 88.5 421.75 83.5Q424.0 78.5 426.0 76.5Q428.0 74.0 430.25 70.75Q432.5 67.5 433.5 65.5ZM173.5 36.0Q183.5 25.5 191.75 18.0Q200.0 10.5 202.0 10.0Q205.5 10.0 204.25 14.25Q203.0 18.5 197.5 25.5Q183.5 43.5 178.25 56.25Q173.0 69.0 175.0 79.0Q175.5 84.5 177.5 88.5Q179.5 92.5 181.5 92.5Q190.0 92.5 246.0 40.0Q269.5 18.0 274.0 18.0Q277.0 18.0 267.0 32.5Q264.5 37.0 260.0 44.75Q255.5 52.5 252.0 59.5Q247.0 69.0 246.25 74.75Q245.5 80.5 252.25 83.5Q259.0 86.5 276.25 88.0Q293.5 89.5 325.0 91.0Q341.5 91.5 353.25 91.75Q365.0 92.0 373.0 92.0Q389.0 92.0 393.0 90.75Q397.0 89.5 397.0 86.5Q397.0 82.5 392.25 76.5Q387.5 70.5 382.0 65.75Q376.5 61.0 373.0 61.0Q372.0 61.0 370.5 59.5Q369.0 58.0 369.0 57.0Q369.0 54.5 383.5 53.5Q398.0 52.5 422.5 52.5Q446.5 52.5 461.0 53.5Q475.5 54.5 475.5 57.0Q475.5 58.0 471.75 59.5Q468.0 61.0 463.0 61.0Q452.0 61.0 440.25 72.0Q428.5 83.0 424.0 99.0Q421.0 111.5 421.0 116.75Q421.0 122.0 426.75 123.0Q432.5 124.0 447.0 124.0Q459.0 124.0 467.75 125.0Q476.5 126.0 477.0 127.5Q479.5 131.5 468.0 131.5Q463.5 131.5 458.25 133.75Q453.0 136.0 450.0 139.0Q442.5 147.5 435.25 174.5Q428.0 201.5 422.5 243.0Q417.0 284.5 414.0 337.0Q411.0 378.5 408.5 378.5Q407.0 378.5 405.75 359.75Q404.5 341.0 405.0 307.0L406.5 235.5L325.0 234.0L244.0 233.5L241.5 255.0Q240.5 263.5 240.5 271.25Q240.5 279.0 241.5 280.5Q244.0 285.0 322.5 285.0Q359.5 285.0 380.0 286.0Q400.5 287.0 400.5 289.0Q400.5 290.5 379.75 291.5Q359.0 292.5 322.0 292.5H242.5L244.5 303.0Q246.5 308.0 249.0 312.25Q251.5 316.5 254.5 318.0Q268.5 327.0 282.25 337.0Q296.0 347.0 305.25 354.5Q314.5 362.0 314.5 364.0Q314.5 366.0 313.0 366.0Q311.0 366.0 304.25 361.5Q297.5 357.0 280.5 346.0Q269.5 337.5 254.75 329.25Q240.0 321.0 225.5 321.0Q218.5 321.0 213.25 322.75Q208.0 324.5 208.0 328.0Q208.0 329.0 215.25 335.25Q222.5 341.5 233.5 349.5Q245.0 357.5 252.0 364.5Q259.0 371.5 259.0 374.5Q259.0 381.0 256.0 376.5Q254.0 373.5 245.5 367.25Q237.0 361.0 226.75 354.0Q216.5 347.0 207.75 342.25Q199.0 337.5 196.5 337.5Q193.5 339.0 188.5 334.0Q184.5 328.5 174.0 328.5Q161.5 328.5 150.0 337.5Q141.5 344.5 137.5 344.5Q135.0 344.5 135.75 341.25Q136.5 338.0 142.0 333.0Q145.5 330.5 151.25 324.0Q157.0 317.5 161.5 311.5L173.5 296.5L131.5 298.0Q89.0 299.5 66.75 306.5Q44.5 313.5 30.0 328.5Q17.5 342.0 13.5 342.0Q10.0 342.0 15.0 331.5Q17.5 327.5 18.5 317.0Q19.5 306.5 19.0 292.0Q18.5 277.5 19.0 269.25Q19.5 261.0 21.0 261.0Q23.0 261.0 30.0 263.0Q37.0 265.0 45.0 268.5Q60.5 274.5 68.25 277.0Q76.0 279.5 79.0 279.5Q82.5 279.5 82.5 275.5Q82.5 269.5 79.5 269.5Q78.0 269.5 77.25 251.25Q76.5 233.0 76.5 208.5Q76.5 184.0 75.75 170.25Q75.0 156.5 73.5 149.0Q72.0 141.5 69.0 136.5Q67.0 131.5 64.75 127.0Q62.5 122.5 62.5 121.5Q62.5 120.5 76.75 120.0Q91.0 119.5 111.0 120.0Q131.0 120.0 151.5 120.0Q172.0 120.0 181.0 119.5H202.0L190.5 109.5Q184.0 104.0 179.25 102.5Q174.5 101.0 163.0 101.0Q142.5 101.0 119.25 102.5Q96.0 104.0 74.5 110.5Q53.0 117.0 37.5 132.0Q32.0 138.0 27.0 142.25Q22.0 146.5 21.0 146.5Q19.5 143.5 23.5 129.0Q26.0 122.0 26.25 110.75Q26.5 99.5 25.5 88.5Q24.0 71.5 24.75 68.0Q25.5 64.5 30.0 66.0Q68.0 78.5 97.0 85.5Q126.0 92.5 139.5 92.5Q149.5 92.5 149.5 88.5Q149.5 87.0 144.75 85.5Q140.0 84.0 133.0 84.0H116.5L133.0 73.0Q140.0 67.5 151.75 56.75Q163.5 46.0 173.5 36.0Z" fill="black" /></svg>