<svg xmlns="http://www.w3.org/2000/svg" width="437.0" height="468.0" viewBox="0 0 437.0 468.0"><path d="M41.0 112.5Q41.0 110.0 38.5 110.0Q36.0 110.0 36.0 112.5Q36.0 115.0 38.5 115.0Q41.0 115.0 41.0 112.5ZM65.0 86.5Q59.0 80.5 55.0 80.5Q51.0 80.5 51.0 87.0Q51.0 90.0 54.0 92.75Q57.0 95.5 60.5 97.0Q69.0 99.0 70.25 96.0Q71.5 93.0 65.0 86.5ZM69.0 168.0Q70.0 167.0 69.0 165.75Q68.0 164.5 65.5 164.5Q63.5 164.5 62.25 165.75Q61.0 167.0 62.5 168.0Q66.0 171.0 69.0 168.0ZM95.0 109.0Q95.0 107.0 88.75 106.0Q82.5 105.0 75.0 105.0Q68.5 105.0 62.25 106.0Q56.0 107.0 54.0 109.0Q51.0 111.5 50.75 120.25Q50.5 129.0 52.5 137.75Q54.5 146.5 57.5 150.0Q60.0 151.5 62.5 151.5Q65.5 151.5 70.75 146.0Q76.0 140.5 81.5 132.75Q87.0 125.0 91.0 118.25Q95.0 111.5 95.0 109.0ZM239.5 217.0Q248.5 205.0 243.0 205.0Q239.5 205.0 230.75 209.25Q222.0 213.5 207.0 222.0L177.0 238.0L191.0 243.5Q215.0 252.5 222.0 252.5Q229.0 252.5 229.0 242.5Q229.0 237.0 232.0 229.75Q235.0 222.5 239.5 217.0ZM362.0 143.5 356.5 120.0H262.5Q228.0 120.0 207.75 120.5Q187.5 121.0 175.0 122.25Q162.5 123.5 152.25 126.5Q142.0 129.5 127.5 134.5Q106.0 142.0 95.75 147.75Q85.5 153.5 82.0 160.5Q76.0 171.0 76.0 267.0Q76.0 306.5 76.5 328.75Q77.0 351.0 80.0 361.0Q83.0 371.0 89.75 374.5Q96.5 378.0 109.0 380.5Q114.0 381.5 134.75 382.75Q155.5 384.0 185.5 384.5Q215.5 385.0 249.0 385.0H370.0L368.5 276.0Q368.0 246.0 367.0 218.0Q366.0 190.0 364.75 170.0Q363.5 150.0 362.0 143.5ZM135.0 119.0Q135.0 115.0 124.5 115.0Q118.0 115.0 110.5 117.0Q103.0 119.0 100.5 123.0Q94.5 130.0 96.5 132.5Q98.0 134.0 104.0 132.75Q110.0 131.5 117.25 129.0Q124.5 126.5 129.75 123.75Q135.0 121.0 135.0 119.0ZM402.5 33.0Q402.5 32.5 392.25 31.75Q382.0 31.0 367.5 31.0H333.0L341.0 49.0Q344.0 57.0 348.75 69.0Q353.5 81.0 356.5 89.5Q360.5 99.0 362.0 103.5Q363.5 108.0 365.5 108.0Q368.0 108.0 370.75 103.25Q373.5 98.5 375.5 93.25Q377.5 88.0 377.5 86.0Q377.5 82.0 381.0 73.5Q384.5 65.0 389.5 56.5Q395.0 48.0 398.75 40.75Q402.5 33.5 402.5 33.0ZM59.5 370.0Q51.5 364.5 45.0 361.0Q38.5 357.5 36.0 357.5Q34.0 357.5 32.5 368.0Q31.0 378.5 31.0 394.5Q31.0 410.0 32.0 421.0Q33.0 432.0 34.5 432.0Q36.5 432.0 43.0 429.0Q49.5 426.0 57.0 422.5Q64.0 418.5 76.25 413.5Q88.5 408.5 98.0 406.5Q107.0 404.0 114.25 401.5Q121.5 399.0 123.0 397.5Q124.0 395.5 117.5 392.75Q111.0 390.0 101.0 388.0Q91.5 385.5 79.25 380.25Q67.0 375.0 59.5 370.0ZM318.0 17.0Q318.0 10.0 327.0 14.0Q331.0 16.0 347.0 17.5Q363.0 19.0 381.5 20.0Q400.0 20.5 413.5 22.0Q427.0 23.5 427.0 25.0Q427.0 26.5 424.25 29.25Q421.5 32.0 417.5 34.5Q414.0 36.5 407.0 47.0Q400.0 57.5 394.0 69.0L380.0 98.0L378.5 230.5Q378.0 283.5 378.25 313.25Q378.5 343.0 379.75 357.0Q381.0 371.0 383.5 377.0L391.0 391.0L343.0 394.5Q330.5 395.0 310.25 395.75Q290.0 396.5 268.0 397.0Q246.0 397.5 226.5 397.5Q204.0 397.5 189.0 398.0Q174.0 398.5 162.75 399.75Q151.5 401.0 141.0 403.5Q130.5 406.0 117.5 410.0Q84.5 420.5 59.5 431.5Q34.5 442.5 24.5 450.5Q16.0 458.0 13.0 454.5Q10.0 451.0 15.5 439.0Q18.0 434.0 19.5 416.5Q21.0 399.0 21.0 380.0Q21.0 360.5 21.75 346.75Q22.5 333.0 24.0 333.0Q25.0 333.0 30.5 336.5Q36.0 340.0 42.5 345.5Q48.5 350.5 54.25 354.0Q60.0 357.5 62.5 357.5Q62.5 357.5 62.75 357.5Q63.0 357.5 63.0 357.5Q64.5 357.5 65.5 347.0Q66.5 336.5 66.75 319.5Q67.0 302.5 66.5 282.5Q66.0 262.5 65.0 243.5Q64.0 224.5 62.75 210.25Q61.5 196.0 60.0 190.5Q55.5 174.5 45.5 174.5Q39.0 174.5 37.75 171.75Q36.5 169.0 38.5 158.0Q40.5 148.0 38.5 139.75Q36.5 131.5 28.5 118.0L15.5 95.0H28.0Q37.0 95.0 39.0 91.75Q41.0 88.5 41.0 75.5Q41.0 56.0 47.0 56.0Q50.5 56.0 54.0 62.5Q58.5 68.5 68.5 76.25Q78.5 84.0 89.5 89.5Q100.5 95.0 106.5 95.0Q119.0 95.0 121.0 101.0Q122.0 103.5 132.5 105.25Q143.0 107.0 167.0 107.75Q191.0 108.5 231.5 109.0Q261.0 109.5 286.5 109.5Q312.0 109.5 328.0 109.25Q344.0 109.0 345.5 108.5Q351.5 106.0 347.5 91.0Q343.5 76.0 329.0 45.5Q324.0 37.0 321.0 28.5Q318.0 20.0 318.0 17.0ZM276.0 169.5Q281.5 164.0 285.25 161.5Q289.0 159.0 291.0 159.0Q294.5 159.0 291.75 165.75Q289.0 172.5 279.0 182.5Q261.0 201.5 250.0 218.75Q239.0 236.0 239.0 246.0Q239.0 251.0 240.25 254.75Q241.5 258.5 243.5 258.5Q246.0 258.5 247.5 261.5Q249.0 264.5 249.0 268.5Q249.0 272.0 254.5 278.25Q260.0 284.5 268.0 290.0Q276.5 296.0 287.0 305.5Q297.5 315.0 307.25 325.0Q317.0 335.0 323.0 342.0Q329.0 349.0 327.5 350.5Q325.5 350.5 317.25 344.0Q309.0 337.5 298.5 328.0Q279.5 310.0 256.25 293.0Q233.0 276.0 211.5 264.0Q190.0 252.0 175.0 249.0Q164.5 246.5 157.25 243.5Q150.0 240.5 150.0 239.5Q150.0 238.0 155.5 234.75Q161.0 231.5 169.0 229.5Q178.5 226.0 194.25 218.0Q210.0 210.0 227.25 200.25Q244.5 190.5 258.0 182.25Q271.5 174.0 276.0 169.5Z" fill="black" /></svg>