<svg xmlns="http://www.w3.org/2000/svg" width="585.5" height="461.5" viewBox="0 0 585.5 461.5"><path d="M49.5 321.5 35.0 313.5Q35.0 321.5 35.25 329.5Q35.5 337.5 35.5 346.0Q35.5 354.5 34.75 364.0Q34.0 373.5 34.0 382.0Q35.0 381.0 39.0 376.75Q43.0 372.5 46.75 368.5Q50.5 364.5 50.5 364.5Q50.5 364.5 50.25 355.75Q50.0 347.0 49.75 336.75Q49.5 326.5 49.5 321.5ZM128.0 342.0Q90.0 332.0 76.0 328.75Q62.0 325.5 62.0 325.5Q62.0 325.5 61.75 330.5Q61.5 335.5 61.5 341.0L62.0 358.5L88.0 350.5Q95.0 348.0 104.5 346.25Q114.0 344.5 121.0 343.25Q128.0 342.0 128.0 342.0ZM70.5 162.0Q70.0 161.5 64.5 159.5Q59.0 157.5 50.5 156.5Q46.0 155.5 42.75 155.0Q39.5 154.5 37.5 154.5Q32.0 154.5 35.5 162.0Q37.5 167.0 40.5 177.75Q43.5 188.5 45.5 199.5Q51.5 225.0 58.0 225.0Q61.5 225.0 61.5 212.5Q61.5 207.0 63.0 198.5Q64.5 190.0 66.5 182.0Q69.0 175.0 70.25 169.0Q71.5 163.0 70.5 162.0ZM234.0 111.0Q232.5 104.0 230.25 98.5Q228.0 93.0 228.0 93.0H204.5Q149.0 95.0 110.0 103.75Q71.0 112.5 52.0 127.0Q38.5 138.0 45.0 143.25Q51.5 148.5 79.0 148.5Q90.5 148.5 97.5 150.0Q104.5 151.5 104.5 154.0Q104.5 156.0 102.25 158.0Q100.0 160.0 96.0 160.0Q86.5 160.0 77.5 184.25Q68.5 208.5 65.0 252.0Q63.0 276.0 62.5 293.0Q62.0 310.0 62.0 310.0Q88.5 317.5 108.75 322.75Q129.0 328.0 150.0 330.75Q171.0 333.5 198.5 333.5Q222.5 333.5 238.0 333.0Q253.5 332.5 253.5 332.5V272.5Q253.5 237.0 249.0 199.0Q244.5 161.0 234.0 111.0ZM273.5 111.0Q275.0 104.0 276.5 98.5Q278.0 93.0 278.0 93.0H241.0L261.0 185.0Q262.5 186.5 263.75 178.25Q265.0 170.0 266.5 158.0Q267.5 146.0 269.75 132.0Q272.0 118.0 273.5 111.0ZM467.5 102.0Q467.5 97.5 466.0 95.0Q464.5 92.5 457.5 91.25Q450.5 90.0 432.5 90.0Q420.5 90.0 403.0 90.25Q385.5 90.5 360.5 91.5L289.0 93.0L283.0 125.0Q281.0 133.5 279.0 148.5Q277.0 163.5 275.5 180.75Q274.0 198.0 273.0 214.5Q272.5 230.5 271.25 247.5Q270.0 264.5 269.0 278.75Q268.0 293.0 267.5 301.0V332.5L480.0 330.5V318.0Q480.0 304.0 477.0 283.25Q474.0 262.5 469.0 239.25Q464.0 216.0 458.0 194.75Q452.0 173.5 446.0 158.0Q440.0 142.5 435.0 137.5Q424.0 124.5 426.25 119.75Q428.5 115.0 447.5 115.0Q462.5 115.0 465.5 113.0Q468.5 111.0 467.5 102.0ZM110.5 91.0 79.0 79.0Q66.0 74.0 53.25 69.25Q40.5 64.5 36.5 62.5Q29.5 60.0 28.5 61.0Q27.5 62.0 29.5 68.0Q30.5 71.5 31.75 81.75Q33.0 92.0 33.0 101.5V127.0L48.5 116.0Q54.0 111.0 65.75 105.75Q77.5 100.5 87.0 98.0ZM512.5 131.5H496.5Q490.5 131.5 481.0 130.5Q471.5 129.5 464.0 129.0Q456.5 127.0 452.0 127.0Q447.0 127.0 448.0 131.0Q449.0 135.0 454.0 144.0Q456.0 149.5 461.5 167.25Q467.0 185.0 472.5 205.5Q482.0 245.5 485.5 245.5Q486.5 245.5 487.5 241.5Q488.5 236.0 489.5 227.75Q490.5 219.5 490.5 213.0Q490.5 207.5 494.25 193.25Q498.0 179.0 502.0 165.0ZM238.5 83.0H280.5Q281.5 82.0 284.5 77.75Q287.5 73.5 290.0 69.5Q292.5 65.5 292.5 65.5Q292.5 65.5 285.75 65.0Q279.0 64.5 269.25 63.5Q259.5 62.5 249.5 62.0Q239.5 61.5 232.5 61.5Q224.5 61.5 224.5 62.5Q224.5 63.0 227.25 67.5Q230.0 72.0 233.25 76.5Q236.5 81.0 238.5 83.0ZM503.0 28.0Q506.0 24.0 500.5 22.25Q495.0 20.5 473.0 20.5H436.5L456.5 51.5L477.5 82.5L487.5 59.0Q491.5 49.5 496.25 40.5Q501.0 31.5 503.0 28.0ZM403.5 13.5Q403.5 12.0 426.5 11.0Q449.5 10.0 483.5 10.0Q541.0 10.0 558.25 14.25Q575.5 18.5 541.5 24.0Q521.5 27.0 509.5 42.5Q497.5 58.0 490.5 88.0Q488.5 99.5 487.0 108.25Q485.5 117.0 485.5 119.0Q485.5 119.5 495.25 120.0Q505.0 120.5 519.0 120.5Q535.0 120.5 544.25 122.75Q553.5 125.0 553.25 127.75Q553.0 130.5 540.0 132.5Q525.5 134.5 516.25 156.0Q507.0 177.5 501.75 224.5Q496.5 271.5 493.0 350.5Q491.0 398.5 488.5 425.0Q486.0 451.5 483.5 451.5Q482.0 451.5 481.0 438.25Q480.0 425.0 480.0 397.0V341.5L374.5 342.5L267.5 344.5V365.0Q267.5 373.0 266.5 379.5Q265.5 386.0 264.5 386.0Q260.0 386.0 256.75 376.25Q253.5 366.5 253.5 355.0V344.5Q253.5 344.5 245.0 344.5Q236.5 344.5 213.0 346.0Q189.5 347.5 145.0 352.5Q109.5 356.0 85.5 363.5Q61.5 371.0 61.5 379.0Q61.5 381.5 57.75 384.0Q54.0 386.5 49.0 387.5Q44.5 388.0 39.5 393.75Q34.5 399.5 31.0 406.5Q29.0 414.5 26.0 419.25Q23.0 424.0 22.0 424.0Q20.5 424.0 20.25 405.0Q20.0 386.0 21.5 358.5Q21.5 332.0 23.0 313.75Q24.5 295.5 26.5 295.5L48.5 304.0Q48.5 304.0 48.25 295.75Q48.0 287.5 47.5 275.75Q47.0 264.0 46.5 253.75Q46.0 243.5 45.5 240.0Q32.5 160.5 18.0 165.5Q10.0 169.5 11.5 152.0Q12.5 145.0 14.25 143.0Q16.0 141.0 18.0 138.0Q20.5 135.0 21.0 120.75Q21.5 106.5 19.5 87.5Q18.5 69.5 18.5 56.5Q18.5 43.5 19.5 43.5Q21.5 43.5 31.0 47.25Q40.5 51.0 52.0 56.5Q120.0 89.5 182.5 83.5L223.5 83.0L213.0 66.0Q206.5 58.5 207.75 55.0Q209.0 51.5 220.0 51.5Q226.0 51.5 234.75 52.25Q243.5 53.0 255.0 55.0Q271.5 56.5 286.75 57.25Q302.0 58.0 306.5 56.5Q311.5 55.5 317.75 57.25Q324.0 59.0 328.0 61.5Q336.5 68.5 335.0 69.75Q333.5 71.0 319.0 71.0Q301.5 71.0 299.0 74.5L293.5 82.5Q293.5 82.5 304.0 82.25Q314.5 82.0 329.25 82.0Q344.0 82.0 357.75 81.75Q371.5 81.5 378.0 81.5Q400.0 81.5 418.0 81.25Q436.0 81.0 446.75 80.0Q457.5 79.0 457.5 78.0Q457.5 72.5 451.0 62.25Q444.5 52.0 435.75 42.0Q427.0 32.0 420.0 28.0Q413.5 24.0 408.5 19.75Q403.5 15.5 403.5 13.5Z" fill="black" /></svg>