<svg xmlns="http://www.w3.org/2000/svg" width="908.5" height="463.0" viewBox="0 0 908.5 463.0"><path d="M156.5 355.5 130.5 341.5Q119.5 336.0 105.25 326.25Q91.0 316.5 81.5 307.0L59.5 286.5L45.5 327.0Q39.0 344.0 35.5 356.5Q32.0 369.0 33.0 370.0Q34.0 370.5 42.75 369.75Q51.5 369.0 64.0 367.0Q75.5 365.0 93.5 362.5Q111.5 360.0 125.0 358.0ZM210.0 294.0 226.5 290.5 208.5 259.5 199.0 276.5Q195.5 283.0 193.5 288.75Q191.5 294.5 192.0 295.5Q192.5 296.0 198.0 295.5Q203.5 295.0 210.0 294.0ZM458.0 321.5Q450.0 320.5 437.5 316.5Q425.0 312.5 415.5 308.5L393.0 298.0V324.5Q393.0 338.5 394.75 344.5Q396.5 350.5 403.0 350.5Q410.5 350.5 430.0 343.0Q439.5 340.0 449.75 337.75Q460.0 335.5 465.5 335.5Q480.5 335.5 477.5 330.25Q474.5 325.0 458.0 321.5ZM242.5 234.0 259.5 231.0 241.0 206.0 230.5 220.5Q225.0 229.5 223.5 233.0Q222.0 236.5 227.0 236.5Q229.5 236.5 233.25 235.75Q237.0 235.0 242.5 234.0ZM370.0 198.0 341.0 187.0Q328.0 181.5 309.25 178.5Q290.5 175.5 276.0 175.5Q268.0 175.5 261.75 176.5Q255.5 177.5 253.5 180.0Q248.5 184.5 250.5 194.25Q252.5 204.0 259.5 214.0Q270.0 226.5 321.0 244.0Q341.5 251.0 356.75 255.25Q372.0 259.5 375.0 259.5Q375.5 258.0 375.25 248.75Q375.0 239.5 373.5 227.0ZM162.0 86.0 145.5 80.0Q139.5 77.5 129.75 70.75Q120.0 64.0 113.0 57.5L96.5 41.0L92.5 80.0Q90.5 102.0 91.0 111.75Q91.5 121.5 95.0 121.5Q98.0 121.5 103.0 117.0Q106.0 114.5 115.75 109.0Q125.5 103.5 136.5 98.5ZM180.0 152.5Q180.0 151.5 176.25 150.25Q172.5 149.0 167.0 149.0Q161.5 149.0 157.75 149.5Q154.0 150.0 154.0 151.5Q154.0 154.0 157.25 161.25Q160.5 168.5 164.5 174.5Q168.5 180.5 170.0 180.5Q172.0 180.5 174.25 175.5Q176.5 170.5 178.25 164.0Q180.0 157.5 180.0 152.5ZM275.5 164.0Q282.5 163.0 283.0 160.75Q283.5 158.5 279.5 149.5L272.5 137.0L265.0 148.0Q260.0 159.0 262.25 162.25Q264.5 165.5 275.5 164.0ZM407.5 57.5Q409.0 53.0 407.75 50.75Q406.5 48.5 399.5 48.5Q394.5 48.5 387.25 49.5Q380.0 50.5 368.5 52.0Q356.0 53.0 354.75 55.5Q353.5 58.0 358.5 71.0Q361.0 77.5 365.25 91.75Q369.5 106.0 372.0 119.0L378.5 149.5L391.0 108.0Q396.5 91.0 401.25 76.0Q406.0 61.0 407.5 57.5ZM420.0 173.0Q420.0 170.0 418.25 167.75Q416.5 165.5 415.0 165.5Q409.5 165.5 409.5 169.5Q409.5 171.5 411.0 174.25Q412.5 177.0 415.0 178.0Q416.5 179.5 418.25 178.0Q420.0 176.5 420.0 173.0ZM457.0 157.0Q457.0 149.0 451.5 149.0Q449.5 149.0 447.75 151.25Q446.0 153.5 446.0 157.0Q446.0 160.5 447.75 163.0Q449.5 165.5 451.5 165.5Q454.0 165.5 455.5 163.0Q457.0 160.5 457.0 157.0ZM480.0 215.0Q476.5 208.5 468.25 197.5Q460.0 186.5 450.5 177.25Q441.0 168.0 433.5 168.0Q430.0 168.0 430.0 171.5Q430.0 175.0 434.75 186.75Q439.5 198.5 446.0 212.0Q452.5 225.5 458.25 235.25Q464.0 245.0 466.0 245.0Q468.5 245.0 472.5 242.75Q476.5 240.5 480.0 238.0Q487.0 232.5 487.0 229.25Q487.0 226.0 480.0 215.0ZM417.0 198.0Q411.5 191.0 404.75 185.75Q398.0 180.5 395.5 180.5Q389.0 180.5 386.75 199.25Q384.5 218.0 386.5 250.5L389.5 286.5L416.5 297.5Q444.5 308.0 467.75 313.5Q491.0 319.0 521.0 319.0Q532.5 319.0 539.75 317.75Q547.0 316.5 547.0 314.5Q547.0 311.5 539.0 304.25Q531.0 297.0 519.0 288.75Q507.0 280.5 495.0 274.5Q488.0 270.5 476.5 267.75Q465.0 265.0 456.5 265.0Q448.5 265.0 442.0 263.5Q435.5 262.0 435.5 260.0Q435.5 258.0 437.75 256.25Q440.0 254.5 443.5 254.5Q455.0 254.5 447.75 238.5Q440.5 222.5 417.0 198.0ZM491.5 138.0Q488.0 132.5 485.5 132.5Q483.5 132.5 483.5 138.0Q483.5 140.0 485.25 141.75Q487.0 143.5 489.0 143.5Q491.0 143.5 491.75 141.75Q492.5 140.0 491.5 138.0ZM515.0 196.5Q512.0 190.0 505.25 178.75Q498.5 167.5 489.75 158.25Q481.0 149.0 472.5 149.0Q467.5 149.0 467.5 155.0Q467.5 159.0 471.75 170.0Q476.0 181.0 482.0 193.25Q488.0 205.5 493.5 214.5Q499.0 223.5 501.5 223.5Q503.5 223.5 507.5 222.0Q511.5 220.5 515.0 218.5Q520.0 215.0 520.0 211.25Q520.0 207.5 515.0 196.5ZM549.5 235.0Q549.5 226.5 549.0 219.75Q548.5 213.0 547.0 213.0Q545.0 213.0 539.25 216.0Q533.5 219.0 526.5 223.5Q519.5 228.0 514.0 232.25Q508.5 236.5 507.5 238.5Q506.5 241.0 502.5 243.0Q498.5 245.0 494.5 245.0Q482.0 245.0 481.25 250.5Q480.5 256.0 491.5 260.0Q498.0 263.0 509.75 270.0Q521.5 277.0 532.5 285.0L558.5 303.5L554.0 281.5Q553.0 271.5 551.25 258.0Q549.5 244.5 549.5 235.0ZM626.5 254.5Q625.5 251.5 621.25 247.75Q617.0 244.0 614.0 242.0Q609.0 240.5 607.25 245.25Q605.5 250.0 605.5 265.5V291.0L629.0 279.5Q644.5 272.5 650.5 266.5Q656.5 260.5 650.5 260.5Q647.5 260.5 643.0 262.0Q632.0 265.0 626.5 254.5ZM523.5 111.0Q527.5 103.5 522.5 103.5Q519.0 103.5 516.0 106.0Q509.0 110.5 514.5 113.5Q520.5 116.0 523.5 111.0ZM549.0 169.5Q542.0 158.5 532.0 147.5Q522.0 136.5 513.75 129.75Q505.5 123.0 503.5 125.5Q501.5 127.5 503.5 135.75Q505.5 144.0 509.5 155.0Q513.5 166.0 518.5 176.75Q523.5 187.5 528.0 194.75Q532.5 202.0 535.0 202.0Q537.5 202.0 541.5 199.75Q545.5 197.5 549.5 195.0Q557.0 189.5 557.0 186.0Q557.0 182.5 549.0 169.5ZM589.0 155.0Q589.0 152.0 583.0 149.25Q577.0 146.5 572.0 146.5Q568.5 146.5 567.0 148.0Q561.5 153.0 564.25 156.5Q567.0 160.0 576.5 160.0Q582.0 160.0 585.5 158.25Q589.0 156.5 589.0 155.0ZM814.0 166.0Q813.0 164.5 800.5 163.0Q788.0 161.5 769.25 160.25Q750.5 159.0 729.5 158.25Q708.5 157.5 690.0 157.5Q679.5 157.5 670.75 157.5Q662.0 157.5 655.5 158.5L638.0 160.0L641.0 204.0Q642.5 221.5 645.25 235.25Q648.0 249.0 650.0 251.0Q652.0 252.0 664.25 252.75Q676.5 253.5 696.0 254.0Q715.5 254.5 738.0 254.5H818.5V214.0Q818.5 197.0 816.75 183.25Q815.0 169.5 814.0 166.0ZM654.0 70.0Q654.0 70.0 648.25 69.75Q642.5 69.5 634.5 69.5Q627.5 69.5 622.0 69.75Q616.5 70.0 616.5 71.0Q616.5 71.5 619.0 79.5Q621.5 87.5 625.0 98.5L634.0 123.5L643.5 98.5Q647.5 87.5 650.75 79.0Q654.0 70.5 654.0 70.0ZM851.5 75.5 862.0 58.5H782.5L800.5 93.5Q807.5 108.5 813.0 121.0Q818.5 133.5 818.5 137.0Q818.5 143.0 820.0 143.0Q822.5 143.0 826.25 135.0Q830.0 127.0 834.0 114.5Q837.5 105.5 842.5 94.25Q847.5 83.0 851.5 75.5ZM45.5 296.5Q48.5 283.5 52.5 274.5Q56.5 265.5 58.5 265.5Q61.0 265.5 62.25 267.25Q63.5 269.0 63.5 271.0Q63.5 275.0 71.0 283.25Q78.5 291.5 90.0 301.25Q101.5 311.0 113.5 319.5Q125.5 328.0 134.5 332.5Q144.5 337.0 169.25 343.75Q194.0 350.5 230.25 358.75Q266.5 367.0 310.5 376.0Q354.5 385.0 402.5 394.0Q429.5 399.0 448.5 403.75Q467.5 408.5 467.5 410.5Q467.5 412.0 466.75 413.0Q466.0 414.0 462.0 414.0Q457.0 414.0 443.5 411.75Q430.0 409.5 403.75 404.25Q377.5 399.0 333.0 390.5Q299.5 383.5 276.5 379.25Q253.5 375.0 237.25 372.5Q221.0 370.0 208.25 369.0Q195.5 368.0 182.0 368.0Q162.5 368.0 137.5 369.0Q112.5 370.0 88.0 372.5Q63.5 375.0 45.5 379.5Q31.5 383.0 21.5 384.5Q11.5 386.0 11.0 385.0Q10.0 384.5 13.25 375.5Q16.5 366.5 21.5 355.5Q27.5 344.0 34.5 326.25Q41.5 308.5 45.5 296.5ZM85.0 36.5Q85.0 24.0 86.75 17.0Q88.5 10.0 91.0 10.0Q94.5 10.0 98.0 20.5Q99.0 24.5 105.75 33.0Q112.5 41.5 121.5 49.5Q131.0 59.0 141.75 65.0Q152.5 71.0 169.0 74.25Q185.5 77.5 210.75 78.75Q236.0 80.0 274.0 80.0H351.5L342.5 64.0Q339.0 57.0 335.25 52.5Q331.5 48.0 329.5 48.0Q324.0 48.0 324.0 43.0Q324.0 41.0 332.5 40.25Q341.0 39.5 353.0 41.0Q364.5 42.5 380.5 41.25Q396.5 40.0 406.5 37.5Q416.5 34.5 424.75 33.75Q433.0 33.0 433.5 33.5Q435.0 35.0 432.5 40.0Q430.0 45.0 425.5 51.0Q421.5 56.0 415.75 69.0Q410.0 82.0 404.75 98.5Q399.5 115.0 395.25 130.25Q391.0 145.5 389.75 155.5Q388.5 165.5 391.0 165.5Q392.5 165.5 398.0 162.0Q403.5 158.5 410.0 153.5Q416.5 148.5 422.0 146.25Q427.5 144.0 428.0 146.0Q429.5 146.5 435.5 144.5Q441.5 142.5 448.0 139.0Q455.0 134.0 461.0 131.0Q467.0 128.0 469.0 128.0Q470.5 128.0 474.5 126.25Q478.5 124.5 482.5 122.5Q489.0 119.0 489.0 117.0Q489.0 115.0 483.5 111.5Q480.0 109.5 478.5 107.75Q477.0 106.0 478.0 106.0Q479.5 106.0 491.25 102.0Q503.0 98.0 518.0 93.0Q540.0 84.5 552.0 80.5Q564.0 76.5 567.5 76.5Q571.0 76.5 567.0 81.0Q563.0 85.5 554.0 94.5Q542.5 105.5 538.0 112.75Q533.5 120.0 535.75 127.0Q538.0 134.0 546.0 146.0Q551.0 154.0 551.75 153.75Q552.5 153.5 552.5 144.0Q552.5 137.0 555.0 135.0Q557.5 133.0 565.0 135.0Q569.5 136.5 580.25 138.5Q591.0 140.5 601.5 142.0L625.5 145.5L621.0 122.5Q616.0 100.5 608.0 85.0Q600.0 69.5 591.0 65.5Q586.5 64.5 596.25 62.5Q606.0 60.5 629.0 58.5Q649.5 56.0 664.0 55.75Q678.5 55.5 680.0 56.5Q681.0 57.0 679.0 60.5Q677.0 64.0 674.0 68.0Q668.0 74.5 660.75 88.25Q653.5 102.0 648.25 115.75Q643.0 129.5 643.0 137.0Q643.0 141.5 644.5 144.0Q646.0 146.5 653.5 147.5Q661.0 148.5 677.75 148.75Q694.5 149.0 725.0 149.0Q761.0 149.0 778.75 148.5Q796.5 148.0 802.25 146.0Q808.0 144.0 808.0 140.5Q808.0 135.0 803.5 124.25Q799.0 113.5 792.5 101.0Q786.0 88.5 779.0 78.5Q772.0 68.5 766.5 64.5Q762.0 60.5 758.0 56.5Q754.0 52.5 754.0 51.0Q754.0 50.0 774.75 49.0Q795.5 48.0 824.0 48.0Q874.5 48.0 886.5 50.75Q898.5 53.5 881.0 61.0Q875.5 63.5 869.0 71.5Q862.5 79.5 857.5 88.0Q849.0 103.5 843.5 119.5Q838.0 135.5 834.75 156.5Q831.5 177.5 830.0 207.25Q828.5 237.0 827.5 280.0Q827.0 310.0 826.25 334.5Q825.5 359.0 824.5 373.5Q823.5 388.0 822.5 388.0Q821.0 388.0 819.25 377.25Q817.5 366.5 816.25 350.25Q815.0 334.0 814.5 317.75Q814.0 301.5 815.0 290.5L815.5 268.5L755.5 267.0Q722.5 266.0 699.0 268.5Q675.5 271.0 657.0 277.25Q638.5 283.5 620.0 295.5Q612.0 301.0 605.5 304.75Q599.0 308.5 597.5 308.5Q596.5 308.5 595.5 295.25Q594.5 282.0 594.5 263.0Q594.5 244.5 596.25 231.25Q598.0 218.0 599.5 218.0Q601.5 218.0 605.75 221.25Q610.0 224.5 614.0 228.5Q623.0 238.5 626.5 238.5Q632.0 238.5 632.0 219.5Q632.0 191.0 628.0 176.0Q624.0 161.0 616.5 162.5Q613.0 163.0 605.0 164.75Q597.0 166.5 588.5 168.0Q577.0 170.0 572.75 172.25Q568.5 174.5 568.5 180.0Q569.5 183.0 568.0 192.25Q566.5 201.5 563.5 211.0Q559.5 225.0 559.5 235.75Q559.5 246.5 563.5 267.0Q566.5 284.0 568.75 294.25Q571.0 304.5 576.25 310.0Q581.5 315.5 593.5 317.25Q605.5 319.0 628.25 319.25Q651.0 319.5 688.0 319.5Q740.0 319.5 768.5 320.75Q797.0 322.0 797.0 324.5Q797.0 326.5 769.75 328.25Q742.5 330.0 693.5 330.0Q665.0 330.0 641.25 330.25Q617.5 330.5 603.25 331.0Q589.0 331.5 589.0 332.5Q589.0 334.0 600.25 349.25Q611.5 364.5 625.5 384.5Q642.0 406.5 651.25 419.0Q660.5 431.5 664.25 437.75Q668.0 444.0 668.0 446.75Q668.0 449.5 666.5 452.5Q664.5 453.0 655.75 443.0Q647.0 433.0 637.5 417.5Q630.5 406.5 621.0 394.25Q611.5 382.0 602.75 370.75Q594.0 359.5 587.5 352.5L564.0 327.0L511.5 336.0Q394.0 355.5 388.0 373.5Q386.0 383.5 383.5 383.5Q381.0 383.5 378.75 369.25Q376.5 355.0 375.5 328.5L375.0 274.5L335.0 260.0Q315.0 253.0 297.0 249.0Q279.0 245.0 262.5 245.0Q234.0 245.0 225.25 249.0Q216.5 253.0 221.5 264.0Q227.0 273.0 234.0 279.0Q241.0 285.0 256.5 291.5Q272.0 298.0 303.0 308.5Q328.5 317.0 346.5 324.25Q364.5 331.5 366.0 334.0Q366.0 335.5 362.5 335.5Q355.0 335.5 333.0 329.25Q311.0 323.0 281.5 312.0Q269.5 307.5 255.75 305.25Q242.0 303.0 228.0 303.0Q208.0 303.0 191.75 307.75Q175.5 312.5 172.0 321.0Q170.5 325.5 168.25 310.0Q166.0 294.5 165.0 263.0Q162.0 212.5 155.5 185.75Q149.0 159.0 138.0 152.5Q128.5 145.5 135.5 141.75Q142.5 138.0 166.5 138.0Q191.0 138.0 200.75 142.0Q210.5 146.0 201.0 152.5Q190.0 159.0 182.25 185.0Q174.5 211.0 174.5 245.0V290.5L185.5 276.5Q190.5 271.0 194.5 264.0Q198.5 257.0 199.0 253.0Q201.0 249.0 207.0 237.75Q213.0 226.5 221.0 215.0Q228.0 203.5 233.5 193.5Q239.0 183.5 239.0 182.0Q238.5 178.5 243.0 168.25Q247.5 158.0 254.0 146.0Q260.5 134.0 266.0 125.5Q271.5 117.0 273.5 117.0Q276.0 117.0 279.25 122.25Q282.5 127.5 284.5 134.5Q287.5 144.5 294.25 150.75Q301.0 157.0 319.0 165.5Q331.0 171.0 343.25 176.5Q355.5 182.0 360.5 183.5Q365.0 185.0 367.5 185.0Q371.0 185.0 371.25 180.0Q371.5 175.0 369.0 160.5Q366.5 146.0 360.5 118.0L355.0 90.0H180.0L141.5 108.0Q125.5 116.0 111.0 124.5Q96.5 133.0 91.0 138.0Q86.5 141.5 82.5 144.5Q78.5 147.5 76.5 147.5Q76.5 147.5 76.25 147.5Q76.0 147.5 76.0 147.0Q75.5 146.0 76.0 133.25Q76.5 120.5 78.5 104.0Q81.0 87.5 83.0 67.5Q85.0 47.5 85.0 36.5Z" fill="black" /></svg>