<svg xmlns="http://www.w3.org/2000/svg" width="719.5" height="510.0" viewBox="0 0 719.5 510.0"><path d="M85.5 333.0Q82.0 327.5 80.25 329.0Q78.5 330.5 78.5 336.5Q78.5 341.5 82.0 340.5Q88.0 337.0 85.5 333.0ZM91.5 387.5Q91.5 383.0 87.5 383.0Q86.0 383.0 84.0 385.25Q82.0 387.5 82.0 390.5Q82.0 392.5 84.0 393.75Q86.0 395.0 87.5 394.5Q89.5 393.5 90.5 391.0Q91.5 388.5 91.5 387.5ZM157.0 355.0Q159.0 342.0 158.5 337.5Q158.0 333.0 154.0 333.0Q102.5 338.5 88.75 347.75Q75.0 357.0 91.5 374.5Q96.5 379.0 103.5 381.0Q110.5 383.0 122.0 383.0Q136.0 383.0 143.0 381.0Q150.0 379.0 152.75 373.0Q155.5 367.0 157.0 355.0ZM222.0 326.5Q223.0 325.5 215.25 325.25Q207.5 325.0 195.5 325.0H169.5L167.0 345.0Q166.0 353.5 166.5 359.5Q167.0 365.5 167.5 365.5Q168.5 365.5 176.0 360.5Q183.5 355.5 193.25 348.25Q203.0 341.0 211.25 334.75Q219.5 328.5 222.0 326.5ZM465.0 394.5Q465.0 385.0 458.5 385.0Q454.0 385.0 450.5 389.0Q445.5 395.0 447.0 397.5Q458.5 398.5 461.75 398.25Q465.0 398.0 465.0 394.5ZM506.5 349.5Q505.0 342.5 500.5 342.5Q498.5 342.5 495.25 348.5Q492.0 354.5 492.0 358.5Q492.0 359.0 494.5 359.75Q497.0 360.5 500.5 360.5Q508.0 360.5 508.5 359.0Q509.0 357.5 506.5 349.5ZM46.5 169.5Q46.5 162.5 42.0 162.5Q39.5 162.5 36.5 166.0Q31.5 169.5 33.0 172.5Q34.5 175.5 39.5 175.5Q46.5 175.5 46.5 169.5ZM249.0 242.0Q249.0 241.0 242.75 240.25Q236.5 239.5 227.5 239.5Q219.5 239.5 214.25 240.5Q209.0 241.5 209.5 243.0Q209.5 244.5 212.75 251.5Q216.0 258.5 219.0 267.5L227.5 288.5L239.0 267.5Q242.5 258.5 245.75 251.25Q249.0 244.0 249.0 242.0ZM71.5 125.5Q73.5 124.5 73.0 122.0Q72.5 119.5 72.0 117.5Q71.5 113.5 70.75 113.5Q70.0 113.5 67.5 117.5Q65.5 121.5 67.0 125.25Q68.5 129.0 71.5 125.5ZM353.0 192.0Q352.0 191.0 345.0 190.5Q338.0 190.0 331.0 190.0Q325.5 190.0 321.25 190.25Q317.0 190.5 317.0 191.0Q317.0 193.0 320.0 200.25Q323.0 207.5 327.0 215.5Q331.0 223.5 334.25 229.5Q337.5 235.5 338.5 235.5Q338.5 232.0 341.25 224.75Q344.0 217.5 347.5 211.0Q351.5 204.0 352.75 198.25Q354.0 192.5 353.0 192.0ZM348.5 263.5Q348.5 262.0 345.0 262.0Q343.0 262.0 343.0 263.5Q343.0 265.5 345.0 265.5Q348.5 265.5 348.5 263.5ZM550.5 325.5Q550.5 322.0 546.5 315.5Q544.0 311.5 542.0 312.25Q540.0 313.0 536.5 319.5Q533.0 325.5 534.0 327.0Q535.0 328.5 541.5 328.5Q550.5 328.5 550.5 325.5ZM576.0 217.0Q571.0 216.0 562.0 215.75Q553.0 215.5 544.5 215.5Q536.0 215.5 529.75 215.75Q523.5 216.0 523.5 217.0Q523.5 217.5 528.25 224.0Q533.0 230.5 540.5 239.5L558.0 258.5L560.5 245.5Q561.5 239.5 565.0 233.75Q568.5 228.0 571.5 223.5Q574.5 221.0 576.0 219.0Q577.5 217.0 576.0 217.0ZM102.0 84.5Q99.0 77.5 98.0 77.5Q96.5 77.5 94.0 84.5Q91.5 90.0 98.0 90.0Q104.5 90.0 102.0 84.5ZM164.0 132.0 138.0 118.0Q123.0 109.0 112.75 105.0Q102.5 101.0 96.5 101.0Q88.5 101.0 85.5 108.0Q82.0 118.0 88.25 126.5Q94.5 135.0 113.5 144.0Q121.5 149.5 129.0 154.0Q136.5 158.5 138.0 160.0Q142.5 160.0 151.5 147.5ZM227.5 185.0 217.0 172.0Q213.0 167.5 205.5 159.0Q198.0 150.5 192.0 144.0L177.5 127.5L164.0 146.0Q158.0 153.5 154.0 160.0Q150.0 166.5 150.0 168.0Q150.0 169.5 155.25 170.75Q160.5 172.0 167.0 172.0Q174.5 172.0 185.75 173.5Q197.0 175.0 205.5 178.0ZM343.0 74.5Q343.0 69.5 329.5 69.5Q318.5 68.5 317.5 71.0Q316.5 73.5 323.0 84.5Q329.0 92.5 331.0 92.5Q335.0 92.5 339.0 85.25Q343.0 78.0 343.0 74.5ZM400.5 84.5Q404.5 76.5 403.0 74.5Q401.5 72.5 393.0 72.5Q384.0 72.5 382.75 74.5Q381.5 76.5 385.0 84.5Q387.0 88.5 389.25 92.0Q391.5 95.5 393.0 95.5Q394.0 95.5 396.25 92.0Q398.5 88.5 400.5 84.5ZM478.5 160.0Q478.0 149.5 474.5 149.5Q471.5 149.5 463.0 160.0L455.0 172.0H468.0Q477.0 172.0 479.0 169.75Q481.0 167.5 478.5 160.0ZM531.5 116.0Q531.5 114.5 530.5 109.25Q529.5 104.0 528.0 99.5Q526.5 95.0 525.0 95.0Q522.5 95.0 516.0 104.5Q505.5 116.0 506.0 119.0Q506.5 122.0 518.5 122.0Q524.5 122.0 528.5 120.5Q532.5 119.0 531.5 116.0ZM570.5 155.5Q549.0 142.5 536.25 137.0Q523.5 131.5 515.0 131.5Q496.5 132.0 491.5 135.5Q486.5 139.0 486.5 149.5Q486.5 164.5 493.5 173.0Q500.5 181.5 520.0 193.5Q531.5 200.5 537.75 203.5Q544.0 206.5 551.5 206.5Q554.5 206.5 557.5 206.25Q560.5 206.0 564.0 205.5Q576.5 204.0 587.75 200.25Q599.0 196.5 606.25 192.0Q613.5 187.5 612.5 184.0Q612.0 181.5 599.5 173.25Q587.0 165.0 570.5 155.5ZM586.0 52.0Q586.0 49.0 585.0 47.25Q584.0 45.5 583.5 46.5Q582.0 46.5 576.25 52.5Q570.5 58.5 565.25 65.25Q560.0 72.0 560.0 74.0Q560.0 75.5 575.5 75.5Q585.5 75.5 587.75 73.75Q590.0 72.0 588.5 65.5Q588.0 63.0 587.0 58.5Q586.0 54.0 586.0 52.0ZM637.5 111.5Q611.5 96.0 594.75 89.5Q578.0 83.0 563.0 83.0Q555.0 83.0 546.5 84.5Q537.5 86.5 537.0 96.25Q536.5 106.0 545.5 120.0Q548.0 125.0 559.25 134.0Q570.5 143.0 584.5 152.5Q598.5 162.0 610.25 168.75Q622.0 175.5 626.0 175.5Q629.0 175.5 637.5 171.0Q646.0 166.5 655.75 160.0Q665.5 153.5 672.75 148.25Q680.0 143.0 680.0 141.5Q680.0 140.0 667.5 131.25Q655.0 122.5 637.5 111.5ZM500.5 445.0Q500.5 444.0 494.75 442.5Q489.0 441.0 480.5 440.5Q469.5 439.5 465.5 440.5Q461.5 441.5 463.25 447.25Q465.0 453.0 470.0 468.0L474.0 479.0L486.5 463.0Q493.0 457.0 496.5 451.5Q500.0 446.0 500.5 445.0ZM582.5 28.5Q588.5 21.5 593.0 15.75Q597.5 10.0 598.0 10.0Q599.5 10.0 598.75 17.75Q598.0 25.5 597.5 36.5L593.5 64.5L611.5 80.0Q616.5 84.5 627.5 93.0Q638.5 101.5 651.75 110.25Q665.0 119.0 677.0 125.0Q689.0 131.0 695.5 131.0Q697.0 131.0 700.0 130.0Q709.5 124.5 707.0 132.0Q706.5 134.5 691.5 146.0Q676.5 157.5 656.0 171.0Q624.5 192.0 606.25 205.25Q588.0 218.5 580.0 228.0Q572.0 237.5 570.0 247.5Q569.0 254.5 568.25 260.25Q567.5 266.0 568.0 268.5Q569.5 276.5 565.5 276.5Q557.0 276.5 532.5 243.0Q521.0 228.5 512.0 219.0Q503.0 209.5 500.5 209.5Q491.0 213.5 475.75 220.25Q460.5 227.0 444.0 234.75Q427.5 242.5 412.75 249.5Q398.0 256.5 388.75 261.25Q379.5 266.0 379.5 267.0Q379.5 268.0 386.0 272.75Q392.5 277.5 401.0 283.0Q409.5 288.0 425.5 298.0Q441.5 308.0 455.0 317.0L488.0 338.5L498.5 328.5Q503.5 324.5 506.75 322.0Q510.0 319.5 510.0 320.5Q510.0 321.0 510.75 325.5Q511.5 330.0 512.0 335.5Q514.5 347.0 522.75 356.75Q531.0 366.5 553.5 381.0Q564.0 387.5 571.75 391.0Q579.5 394.5 586.0 394.5Q596.0 394.5 610.0 384.5L619.0 375.0L585.5 356.5Q569.0 348.0 556.5 342.75Q544.0 337.5 536.0 337.5Q529.0 337.5 523.75 336.25Q518.5 335.0 518.5 333.0Q518.5 331.0 522.75 324.75Q527.0 318.5 533.0 311.0Q539.0 303.5 544.0 298.25Q549.0 293.0 550.5 293.0Q554.5 293.0 554.5 303.5Q554.5 315.5 567.75 329.75Q581.0 344.0 602.5 356.5Q613.5 363.0 619.0 365.75Q624.5 368.5 629.0 368.5Q632.0 368.5 635.25 367.0Q638.5 365.5 643.5 363.0Q654.5 357.5 658.5 357.5Q662.5 357.5 661.25 360.5Q660.0 363.5 653.5 369.0Q646.5 374.5 645.75 377.25Q645.0 380.0 649.0 382.5Q656.0 387.5 652.25 389.75Q648.5 392.0 640.0 388.5Q635.0 386.0 631.0 386.0Q625.0 386.0 612.5 392.5Q600.0 399.0 598.0 401.25Q596.0 403.5 601.5 407.5Q608.5 412.5 609.5 416.0Q610.5 419.5 605.5 419.5Q601.0 419.5 593.5 416.0Q585.5 411.5 581.0 411.5Q577.0 411.5 572.0 414.0Q567.0 416.5 558.0 421.0Q549.5 426.5 543.75 430.5Q538.0 434.5 538.5 436.5Q539.0 438.5 543.75 441.0Q548.5 443.5 554.5 446.0Q565.0 451.0 568.0 454.75Q571.0 458.5 562.5 458.5Q560.5 458.5 554.5 456.25Q548.5 454.0 541.5 450.5Q536.0 447.0 532.5 445.25Q529.0 443.5 526.0 443.5Q522.5 443.5 515.0 448.0Q510.0 451.5 502.0 460.25Q494.0 469.0 488.5 478.0Q483.5 487.0 479.25 493.5Q475.0 500.0 474.0 500.0Q473.0 500.0 469.75 492.25Q466.5 484.5 462.5 473.0Q458.5 461.5 454.75 449.75Q451.0 438.0 449.0 429.75Q447.0 421.5 448.0 421.0Q448.5 419.5 452.5 420.75Q456.5 422.0 460.5 425.0Q466.0 428.5 475.75 430.5Q485.5 432.5 493.5 432.5Q499.0 432.5 502.0 431.5Q505.0 430.5 503.5 428.5Q501.0 424.5 489.75 419.0Q478.5 413.5 466.0 409.25Q453.5 405.0 447.0 405.0Q442.0 405.0 437.5 404.0Q433.0 403.0 433.0 402.5Q433.0 400.0 437.5 393.25Q442.0 386.5 448.25 379.0Q454.5 371.5 459.5 366.0Q464.5 360.5 466.0 360.5Q467.5 360.5 468.0 363.5Q468.5 366.5 468.5 370.5Q468.5 382.5 480.0 396.5Q491.5 410.5 506.5 419.0L526.5 430.5L548.0 417.5Q556.5 412.0 562.0 407.25Q567.5 402.5 565.5 401.0Q563.5 397.0 555.75 392.25Q548.0 387.5 537.5 382.75Q527.0 378.0 516.5 374.5Q506.0 371.0 498.5 370.5Q482.5 367.5 479.5 364.75Q476.5 362.0 480.0 351.0Q481.0 348.5 479.75 346.25Q478.5 344.0 472.0 339.0Q465.5 334.0 450.0 324.0Q434.5 314.0 407.0 297.0Q386.5 284.0 376.5 278.25Q366.5 272.5 361.0 272.5Q357.0 272.5 353.0 275.0Q349.5 276.5 347.25 278.75Q345.0 281.0 344.0 286.75Q343.0 292.5 343.0 305.25Q343.0 318.0 343.0 341.0Q343.5 380.0 343.25 394.25Q343.0 408.5 341.5 408.5Q340.0 408.5 338.5 403.0Q337.5 399.5 336.0 380.5Q334.5 361.5 334.5 338.5Q334.5 316.0 333.5 299.75Q332.5 283.5 331.0 283.5Q330.0 283.5 316.25 290.0Q302.5 296.5 285.0 305.5L242.0 327.5L240.5 393.0Q239.5 459.5 235.0 459.5Q230.5 459.5 230.5 398.5Q230.5 364.5 229.5 351.0Q228.5 337.5 225.5 337.5Q223.0 337.5 216.25 342.0Q209.5 346.5 201.0 353.25Q192.5 360.0 184.75 366.75Q177.0 373.5 173.0 378.5Q170.0 383.0 159.75 385.75Q149.5 388.5 132.0 391.0Q115.5 393.0 105.25 396.5Q95.0 400.0 89.5 405.0Q83.0 411.5 80.0 411.5Q78.0 411.5 76.5 408.5Q75.0 405.0 73.75 394.0Q72.5 383.0 71.5 368.25Q70.5 353.5 70.25 339.5Q70.0 325.5 70.25 316.25Q70.5 307.0 71.5 307.0Q77.0 307.0 83.5 317.5Q89.0 324.0 95.0 326.25Q101.0 328.5 115.0 328.5Q139.5 328.5 149.25 325.75Q159.0 323.0 161.5 315.0Q162.5 309.0 164.0 307.75Q165.5 306.5 170.0 310.5Q172.5 312.5 181.0 314.0Q189.5 315.5 201.5 315.0Q217.0 314.0 220.5 312.5Q224.0 311.0 223.0 305.0Q222.5 301.0 218.5 289.75Q214.5 278.5 208.5 263.75Q202.5 249.0 195.5 235.5Q195.0 233.0 202.5 231.5Q210.0 230.0 230.5 230.0Q252.5 230.0 259.75 231.5Q267.0 233.0 267.0 235.5Q267.0 239.0 265.5 242.0Q264.0 245.0 261.5 245.5Q258.5 248.0 253.25 258.25Q248.0 268.5 243.75 280.0Q239.5 291.5 239.5 298.5Q239.5 308.0 244.0 308.0Q247.0 308.0 256.5 304.75Q266.0 301.5 278.5 296.75Q291.0 292.0 303.25 287.0Q315.5 282.0 323.75 278.25Q332.0 274.5 333.0 273.5Q334.0 273.0 333.0 268.5Q332.0 264.0 331.0 259.5Q329.0 253.0 321.5 245.5Q314.0 238.0 295.0 227.0Q255.5 205.0 220.25 192.5Q185.0 180.0 158.0 179.5Q138.5 179.5 133.5 177.75Q128.5 176.0 130.0 172.0Q132.5 164.5 103.5 149.5Q81.5 137.0 70.5 137.0Q57.5 137.0 56.5 159.5Q56.0 167.0 56.75 171.25Q57.5 175.5 62.0 179.25Q66.5 183.0 76.5 189.5Q85.0 194.5 92.5 199.0Q100.0 203.5 102.0 203.5Q104.5 204.5 105.25 206.5Q106.0 208.5 104.0 210.0Q102.5 211.5 94.0 207.5Q85.5 203.5 74.0 198.0Q61.5 191.0 54.5 188.5Q47.5 186.0 41.5 186.0Q35.0 186.0 28.5 188.0Q24.0 189.0 21.0 189.75Q18.0 190.5 15.5 190.5Q10.0 190.5 12.75 184.75Q15.5 179.0 26.5 165.0Q33.0 157.0 36.5 150.25Q40.0 143.5 39.5 143.0Q39.0 142.5 44.5 134.0Q50.0 125.5 60.0 112.25Q70.0 99.0 82.0 84.0Q94.0 69.0 105.5 55.5Q113.0 47.5 116.0 47.5Q121.0 47.5 115.0 64.0Q110.0 79.0 115.5 88.5Q121.0 98.0 139.5 108.0Q149.0 113.0 155.75 117.5Q162.5 122.0 163.0 123.0Q164.0 125.0 167.0 124.25Q170.0 123.5 173.0 120.0Q177.0 117.0 179.0 117.0Q182.0 117.0 186.5 121.5Q191.0 126.0 200.0 138.0Q207.0 147.5 220.75 160.0Q234.5 172.5 250.5 185.25Q266.5 198.0 281.5 208.5Q296.5 219.0 307.0 224.5Q317.5 230.0 319.5 227.5Q320.5 227.0 318.5 220.5Q316.5 214.0 312.5 205.0Q308.5 196.5 305.5 189.5Q302.5 182.5 302.5 182.0Q302.5 181.0 307.0 181.0Q311.5 181.0 317.0 181.0L330.5 184.0L329.5 147.5Q329.0 132.5 327.5 123.0Q326.0 113.5 323.25 106.0Q320.5 98.5 315.5 89.5Q310.5 81.0 306.75 73.5Q303.0 66.0 303.0 65.5Q304.0 64.5 321.0 63.75Q338.0 63.0 359.5 63.0Q374.5 63.0 388.75 63.25Q403.0 63.5 412.5 64.0Q422.0 64.5 423.0 65.5Q424.0 66.5 421.25 71.5Q418.5 76.5 413.0 82.0Q408.0 88.5 405.75 94.0Q403.5 99.5 403.0 111.0Q402.5 122.5 402.5 147.5Q402.5 170.5 401.0 185.0Q399.5 199.5 397.0 199.5Q395.0 199.5 394.0 187.75Q393.0 176.0 393.0 158.0Q393.0 141.0 392.0 131.25Q391.0 121.5 388.5 113.5Q386.0 105.5 380.5 95.5Q375.0 85.5 370.25 78.75Q365.5 72.0 362.0 71.5Q360.0 71.5 356.25 76.0Q352.5 80.5 348.5 86.5Q344.0 93.0 341.75 99.0Q339.5 105.0 339.0 114.5Q338.5 124.0 339.5 142.0L341.0 183.0L356.5 181.0Q369.0 180.0 369.25 184.5Q369.5 189.0 359.5 208.0Q338.0 245.0 356.5 255.0Q359.5 257.0 362.5 257.0Q368.0 257.0 379.25 252.5Q390.5 248.0 413.0 237.5Q433.5 228.0 453.0 220.0Q472.5 212.0 480.0 209.5Q493.5 203.0 495.25 199.25Q497.0 195.5 488.5 187.5Q484.0 182.5 477.75 181.25Q471.5 180.0 458.5 181.0Q451.0 182.5 444.5 182.5Q438.0 182.5 438.0 181.0Q438.0 179.5 443.75 171.75Q449.5 164.0 457.5 154.0Q465.5 144.0 472.5 135.75Q479.5 127.5 482.5 125.5Q485.5 123.0 494.75 113.25Q504.0 103.5 513.5 91.5Q531.0 71.0 539.75 65.25Q548.5 59.5 543.5 72.0Q541.5 77.5 553.0 64.75Q564.5 52.0 582.5 28.5Z" fill="black" /></svg>