<svg xmlns="http://www.w3.org/2000/svg" width="580.0" height="455.5" viewBox="0 0 580.0 455.5"><path d="M85.0 219.0Q66.5 210.5 53.0 204.75Q39.5 199.0 38.5 199.0Q38.0 199.0 37.0 210.25Q36.0 221.5 36.0 238.5Q36.0 260.5 37.75 269.5Q39.5 278.5 44.5 277.5Q63.0 272.0 82.25 265.0Q101.5 258.0 115.0 252.25Q128.5 246.5 128.5 244.5Q128.5 242.0 115.75 234.5Q103.0 227.0 85.0 219.0ZM154.0 242.5Q155.5 241.0 153.0 239.75Q150.5 238.5 145.0 238.5Q139.5 238.5 138.5 240.0Q137.5 241.5 141.5 243.5Q145.0 244.5 148.75 244.25Q152.5 244.0 154.0 242.5ZM366.0 330.0V300.5Q366.0 289.0 365.0 280.5Q364.0 272.0 362.5 272.0Q361.0 272.0 354.5 277.0Q348.0 282.0 339.25 289.75Q330.5 297.5 322.25 305.25Q314.0 313.0 308.25 319.0Q302.5 325.0 302.5 326.0Q302.5 327.0 312.0 327.75Q321.5 328.5 334.5 329.5ZM492.0 297.0 487.5 245.0H438.5Q415.0 245.0 404.25 246.0Q393.5 247.0 389.75 250.5Q386.0 254.0 382.5 262.0Q377.0 277.0 376.5 290.0Q376.0 303.0 379.5 314.5Q381.5 318.0 392.25 328.25Q403.0 338.5 418.0 351.5Q433.0 364.5 448.25 377.0Q463.5 389.5 475.0 397.5Q486.5 405.5 489.5 405.5Q496.0 405.5 496.5 379.0Q497.0 352.5 492.0 297.0ZM168.5 27.5Q168.5 26.0 157.25 25.5Q146.0 25.0 128.5 25.0Q112.0 25.0 100.75 26.25Q89.5 27.5 90.0 29.0Q91.5 32.0 96.75 46.0Q102.0 60.0 108.5 76.5Q123.0 113.5 131.5 113.5Q136.0 113.5 136.0 99.5Q136.0 95.0 141.0 83.0Q146.0 71.0 152.5 58.5Q159.5 47.0 164.0 37.5Q168.5 28.0 168.5 27.5ZM536.0 36.0Q536.0 33.5 524.0 32.25Q512.0 31.0 493.0 31.0Q475.0 31.0 462.25 33.0Q449.5 35.0 449.5 37.5Q449.5 40.0 453.5 48.75Q457.5 57.5 462.0 67.0Q467.5 75.5 472.5 88.0Q477.5 100.5 479.5 109.0Q484.0 130.5 488.5 130.5Q494.0 130.5 503.0 103.0Q506.5 91.5 513.0 78.0Q519.5 64.5 523.5 56.5Q529.0 49.5 532.5 43.25Q536.0 37.0 536.0 36.0ZM69.0 12.5Q69.0 11.0 79.0 10.5Q89.0 10.0 104.0 10.0Q117.5 10.0 132.75 10.5Q148.0 11.0 161.75 11.75Q175.5 12.5 184.75 13.25Q194.0 14.0 195.5 15.0Q196.0 15.5 191.5 23.0Q187.0 30.5 179.5 39.5Q166.0 58.5 158.0 76.5Q150.0 94.5 146.5 115.75Q143.0 137.0 143.0 167.0V223.5L197.5 228.0Q213.0 228.5 241.5 229.5Q270.0 230.5 304.5 231.25Q339.0 232.0 371.5 232.0H489.5V205.0Q489.5 193.5 484.75 173.5Q480.0 153.5 472.5 130.25Q465.0 107.0 456.0 85.25Q447.0 63.5 438.5 48.5Q432.5 37.0 428.0 28.25Q423.5 19.5 423.5 18.0Q423.5 17.0 431.5 17.0Q439.5 17.0 452.0 17.0Q467.5 17.0 487.0 17.25Q506.5 17.5 524.75 18.25Q543.0 19.0 555.0 19.75Q567.0 20.5 568.0 21.5Q570.0 23.0 565.25 28.25Q560.5 33.5 552.5 41.0Q546.0 48.5 536.75 62.75Q527.5 77.0 521.5 90.5Q517.5 99.5 514.75 107.5Q512.0 115.5 510.25 127.0Q508.5 138.5 508.0 157.5Q507.5 176.5 507.25 206.5Q507.0 236.5 507.5 282.5Q507.5 327.5 506.75 364.5Q506.0 401.5 504.75 423.5Q503.5 445.5 502.0 445.5Q500.0 445.5 498.0 442.5Q496.0 439.5 496.0 435.0Q496.0 425.5 491.0 425.5Q489.0 425.5 473.25 413.75Q457.5 402.0 438.5 386.0Q418.0 369.5 405.0 360.75Q392.0 352.0 381.0 348.25Q370.0 344.5 354.5 342.5Q340.0 341.5 321.25 342.0Q302.5 342.5 291.0 344.5Q278.5 347.5 268.5 347.5Q260.5 347.5 259.0 345.5Q258.5 343.0 268.25 333.75Q278.0 324.5 292.0 313.0Q306.5 301.5 322.25 287.25Q338.0 273.0 346.0 265.0L365.5 245.0H284.0Q261.5 245.0 238.75 246.0Q216.0 247.0 198.25 248.75Q180.5 250.5 172.0 252.5L143.0 259.5V345.5Q143.0 385.5 141.0 409.25Q139.0 433.0 136.0 433.0Q133.0 433.0 130.75 411.25Q128.5 389.5 128.5 353.0Q128.5 319.5 127.0 295.0Q125.5 270.5 123.0 268.5Q120.5 267.0 103.5 272.25Q86.5 277.5 65.0 286.0Q45.0 294.5 29.5 299.5Q14.0 304.5 12.0 302.5Q10.0 301.5 11.0 296.5Q12.0 291.5 15.0 286.5Q18.5 280.5 20.0 260.75Q21.5 241.0 21.5 219.0V164.5L51.0 183.5Q73.0 198.5 94.0 208.75Q115.0 219.0 123.0 219.0Q125.5 219.0 127.0 215.25Q128.5 211.5 128.5 206.0Q128.5 199.5 125.5 185.5Q122.5 171.5 117.75 153.25Q113.0 135.0 107.25 116.0Q101.5 97.0 95.75 80.0Q90.0 63.0 85.0 52.0Q78.5 37.5 73.75 26.0Q69.0 14.5 69.0 12.5Z" fill="black" /></svg>