<svg xmlns="http://www.w3.org/2000/svg" width="789.5" height="459.0" viewBox="0 0 789.5 459.0"><path d="M57.5 184.5Q57.5 173.0 53.5 173.0Q49.5 173.0 41.0 182.0Q34.0 191.5 37.5 191.5Q40.0 191.5 43.5 192.5Q47.0 193.5 50.0 194.5Q53.0 195.5 53.5 195.5Q57.5 195.5 57.5 184.5ZM108.5 91.5Q97.0 86.5 93.0 86.5Q87.0 86.5 90.0 94.0Q91.0 96.5 93.5 98.25Q96.0 100.0 99.0 98.5Q102.5 97.5 106.25 96.5Q110.0 95.5 111.5 95.5Q114.0 95.5 113.25 94.25Q112.5 93.0 108.5 91.5ZM154.5 186.0 141.0 171.5Q135.5 166.5 131.25 162.5Q127.0 158.5 126.0 158.5Q125.5 158.5 125.0 164.5Q124.5 170.5 124.5 180.5V202.0ZM247.0 134.0 209.0 95.5 182.5 97.0Q172.0 97.0 157.5 98.75Q143.0 100.5 128.5 103.0Q114.0 105.5 103.5 108.5Q93.0 111.5 91.0 114.0Q88.5 116.5 84.5 128.25Q80.5 140.0 76.5 155.0Q72.5 170.0 70.25 182.75Q68.0 195.5 68.5 200.0Q69.5 206.0 78.25 216.75Q87.0 227.5 105.5 243.5Q118.5 254.5 126.75 261.5Q135.0 268.5 136.5 268.5Q137.5 268.5 136.5 267.5Q130.0 261.5 129.5 256.5Q129.0 251.5 133.0 251.5Q135.0 251.5 138.5 253.5Q143.0 256.0 148.5 256.0Q155.0 256.0 169.0 250.0Q177.5 246.0 190.0 238.5Q202.5 231.0 215.5 222.0Q228.5 213.0 239.25 205.0Q250.0 197.0 255.5 191.75Q261.0 186.5 258.0 186.5Q247.5 186.5 230.25 188.5Q213.0 190.5 194.5 193.25Q176.0 196.0 161.75 198.75Q147.5 201.5 143.5 203.5Q138.5 206.5 133.75 211.25Q129.0 216.0 127.0 220.0Q124.0 230.5 121.5 230.5Q118.5 230.5 116.75 216.75Q115.0 203.0 115.0 177.0Q115.0 126.5 120.0 126.5Q122.0 128.0 123.25 131.0Q124.5 134.0 124.5 135.5Q124.5 138.0 131.25 146.25Q138.0 154.5 147.5 163.5L170.5 186.0L220.0 181.0Q242.0 179.0 258.5 177.25Q275.0 175.5 278.0 175.0Q284.5 171.5 247.0 134.0ZM196.0 86.0 189.0 72.5Q185.5 66.5 183.5 62.0Q181.5 57.5 180.5 57.5Q180.5 57.5 175.75 62.0Q171.0 66.5 164.5 72.5L149.0 86.0ZM314.0 167.5Q311.0 163.0 306.0 163.0Q303.0 163.0 301.25 164.75Q299.5 166.5 300.0 169.5Q303.0 177.0 309.5 173.5Q313.0 173.0 313.75 171.0Q314.5 169.0 314.0 167.5ZM376.0 65.0Q365.0 59.5 352.5 53.0Q340.0 46.5 334.0 41.5L318.5 30.5L301.5 50.5L283.0 70.5L326.5 74.0Q345.0 74.5 362.75 75.75Q380.5 77.0 387.0 77.0Q400.0 76.0 398.75 74.5Q397.5 73.0 376.0 65.0ZM445.0 91.5Q445.0 86.0 443.0 86.0Q441.0 86.0 437.5 91.5Q436.5 95.5 440.5 95.5Q445.0 95.5 445.0 91.5ZM459.0 55.0 468.5 33.5H447.0Q433.0 33.5 430.0 34.75Q427.0 36.0 428.5 41.5Q429.5 45.0 431.5 51.25Q433.5 57.5 434.5 63.0Q437.0 76.0 441.5 76.0Q448.0 76.0 459.0 55.0ZM44.5 338.5Q37.0 335.5 32.5 335.5Q24.5 335.5 24.5 347.0Q24.5 356.0 27.0 356.0Q28.5 356.0 38.5 350.5Q47.0 345.5 48.5 343.5Q50.0 341.5 44.5 338.5ZM120.5 296.0Q120.5 295.0 117.25 293.75Q114.0 292.5 110.0 292.5Q104.5 292.5 103.0 294.0Q101.5 295.5 102.5 299.5Q104.0 303.0 104.75 306.5Q105.5 310.0 105.5 312.5Q105.5 314.0 106.5 314.0Q109.0 314.0 114.75 307.0Q120.5 300.0 120.5 296.0ZM166.0 296.5 174.5 278.0Q178.5 268.0 179.25 263.75Q180.0 259.5 177.0 259.5Q175.0 259.5 171.5 261.25Q168.0 263.0 162.5 265.5L149.0 271.0L157.0 284.0ZM314.5 229.5Q309.5 225.0 306.0 225.0Q302.0 225.0 302.0 234.5Q302.0 241.0 303.5 241.75Q305.0 242.5 311.0 239.0Q322.0 232.5 314.5 229.5ZM314.0 280.5Q306.5 278.0 305.0 278.0Q302.0 278.0 302.0 287.0Q302.0 296.5 307.0 296.5Q311.0 296.5 315.5 291.0Q319.0 287.0 318.5 284.75Q318.0 282.5 314.0 280.5ZM428.5 271.0 429.5 247.5 431.5 225.5 416.0 226.0Q409.5 226.0 395.75 226.75Q382.0 227.5 368.5 228.0Q350.0 229.5 340.75 232.75Q331.5 236.0 320.0 245.5Q309.0 254.0 306.5 258.0Q304.0 262.0 307.0 266.0Q310.0 270.0 323.5 271.5Q337.0 273.0 371.0 271.5ZM527.5 231.5 503.0 228.0Q493.0 226.5 484.0 224.75Q475.0 223.0 472.0 222.5Q468.5 220.5 466.25 225.75Q464.0 231.0 463.0 246.0Q463.0 257.0 462.75 265.25Q462.5 273.5 463.0 273.5Q463.0 273.5 472.5 267.0Q482.0 260.5 495.5 251.5ZM53.0 401.0Q53.0 399.0 45.25 397.5Q37.5 396.0 35.0 396.0Q29.5 396.0 29.5 404.5Q29.5 409.5 30.25 413.0Q31.0 416.5 33.0 416.5Q35.5 416.5 40.25 413.25Q45.0 410.0 49.0 406.0Q53.0 402.0 53.0 401.0ZM96.5 394.0V367.0Q96.5 353.5 95.5 347.75Q94.5 342.0 91.75 341.0Q89.0 340.0 82.5 340.0Q77.0 340.0 66.5 345.0Q56.0 350.0 46.5 358.0Q31.0 368.5 28.5 372.75Q26.0 377.0 30.0 381.0Q32.5 384.5 43.25 387.0Q54.0 389.5 66.5 391.0ZM309.5 348.5 266.0 335.0Q248.0 329.0 235.0 324.5Q222.0 320.0 222.0 320.0Q221.5 320.0 220.75 327.75Q220.0 335.5 220.0 345.0Q220.0 361.5 221.75 365.0Q223.5 368.5 229.5 367.0Q237.0 363.0 254.25 358.75Q271.5 354.5 290.5 351.0ZM311.0 21.0Q316.5 10.0 320.0 10.0Q324.0 10.0 328.0 21.0Q331.0 26.0 343.25 34.25Q355.5 42.5 371.5 50.75Q387.5 59.0 401.25 64.5Q415.0 70.0 421.0 70.0Q428.0 70.0 426.25 62.75Q424.5 55.5 417.0 41.0L407.0 21.5H448.0Q488.5 21.5 488.5 26.5Q488.5 32.0 481.0 35.5Q479.0 36.0 475.0 43.25Q471.0 50.5 467.0 59.25Q463.0 68.0 461.0 75.0Q459.0 82.0 460.5 83.0Q461.0 83.5 482.75 90.75Q504.5 98.0 541.0 109.25Q577.5 120.5 621.5 134.0Q665.5 147.5 701.25 159.5Q737.0 171.5 758.25 179.0Q779.5 186.5 779.5 187.5Q779.5 189.0 776.0 190.5Q772.5 192.0 760.25 194.0Q748.0 196.0 722.25 200.0Q696.5 204.0 651.5 211.0L553.5 225.5L516.5 250.0Q501.0 260.0 486.25 271.0Q471.5 282.0 467.0 287.5Q462.0 293.0 457.75 297.5Q453.5 302.0 453.0 302.0Q452.0 302.0 452.0 291.75Q452.0 281.5 452.75 266.0Q453.5 250.5 454.5 235.0Q455.5 219.5 456.75 208.75Q458.0 198.0 459.0 197.0Q459.5 195.0 461.25 197.25Q463.0 199.5 464.5 202.0Q469.0 210.0 480.0 213.75Q491.0 217.5 510.5 217.5Q520.5 217.5 533.75 216.5Q547.0 215.5 563.0 213.5Q591.5 209.5 622.75 205.0Q654.0 200.5 681.5 196.25Q709.0 192.0 726.75 189.25Q744.5 186.5 745.5 186.0Q746.0 185.0 729.0 179.25Q712.0 173.5 683.0 164.25Q654.0 155.0 618.5 144.0Q583.5 133.0 552.0 123.25Q520.5 113.5 499.25 106.5Q478.0 99.5 473.0 97.5Q464.5 95.0 460.0 95.0Q451.0 95.0 447.0 106.0Q443.0 117.0 441.75 146.75Q440.5 176.5 440.5 233.0V345.0H541.0Q588.5 345.0 615.0 346.25Q641.5 347.5 641.5 349.0Q641.5 351.0 615.0 352.75Q588.5 354.5 541.0 354.5Q498.5 354.5 476.75 354.75Q455.0 355.0 447.75 356.5Q440.5 358.0 440.5 361.0Q440.5 368.5 436.0 368.5Q430.5 368.5 430.5 363.5Q430.5 360.5 411.75 359.75Q393.0 359.0 348.5 360.0Q308.0 361.0 284.0 363.25Q260.0 365.5 246.75 369.75Q233.5 374.0 225.5 381.0Q219.0 387.0 215.5 387.0Q211.5 387.0 210.25 376.75Q209.0 366.5 209.5 342.5Q210.5 324.0 211.5 310.25Q212.5 296.5 214.5 296.5Q216.0 296.5 225.5 306.0Q228.5 309.5 247.5 317.25Q266.5 325.0 289.5 332.5Q308.5 338.0 321.0 341.25Q333.5 344.5 343.25 346.25Q353.0 348.0 363.25 348.25Q373.5 348.5 387.0 348.5L428.5 347.0L429.5 315.0L431.5 282.5H388.0Q368.5 282.5 358.0 283.25Q347.5 284.0 341.25 286.75Q335.0 289.5 326.5 295.0Q318.5 300.0 312.25 305.75Q306.0 311.5 304.5 314.5Q302.0 320.5 298.0 318.5Q296.0 317.5 294.5 305.75Q293.0 294.0 292.5 277.5Q292.0 261.0 292.25 244.75Q292.5 228.5 293.25 217.5Q294.0 206.5 295.5 206.5Q298.0 206.5 301.5 208.5Q305.0 210.5 308.5 213.5Q313.0 217.0 326.0 218.75Q339.0 220.5 357.0 220.5Q380.5 220.5 406.5 217.5L430.5 214.5V161.0L383.0 166.0Q359.5 167.0 347.75 168.5Q336.0 170.0 329.25 173.5Q322.5 177.0 312.5 184.5Q294.0 200.0 290.0 200.0Q287.5 200.0 287.5 193.5Q287.5 191.0 287.0 188.75Q286.5 186.5 285.0 186.5Q284.0 186.5 270.5 195.75Q257.0 205.0 238.5 217.5Q218.5 231.5 208.5 239.5Q198.5 247.5 194.25 254.25Q190.0 261.0 186.0 271.5Q183.0 282.0 180.0 292.75Q177.0 303.5 177.0 308.5Q177.0 320.5 172.5 320.5Q167.5 320.5 157.0 302.5Q148.0 287.0 145.0 287.0Q143.0 287.0 138.5 291.5Q135.5 295.0 130.0 302.0Q124.5 309.0 120.5 316.0L109.5 332.5L149.5 327.5Q191.0 325.0 191.0 329.5Q191.0 331.5 179.0 334.0Q167.0 336.5 149.0 338.0L105.5 341.5V387.5H151.0Q195.0 387.5 195.5 392.25Q196.0 397.0 153.0 398.5L108.5 400.0L106.0 424.5Q104.5 449.0 100.5 449.0Q96.5 449.0 96.5 427.0Q96.5 409.5 94.5 405.75Q92.5 402.0 84.5 402.0Q80.0 402.0 71.0 406.25Q62.0 410.5 52.5 416.25Q43.0 422.0 36.25 427.5Q29.5 433.0 29.5 436.0Q29.5 440.5 25.0 440.5Q23.0 440.5 21.0 422.0Q19.0 403.5 17.0 378.5Q14.5 344.0 14.5 330.5Q14.5 317.0 19.5 317.0Q23.0 317.0 31.0 323.5Q41.5 330.5 68.5 330.5Q88.0 330.5 92.25 328.75Q96.5 327.0 96.5 319.5Q96.5 315.0 94.25 308.75Q92.0 302.5 89.5 298.5Q81.5 288.5 84.25 285.75Q87.0 283.0 106.0 282.0L131.5 280.0L87.5 241.0Q69.0 224.0 58.0 215.5Q47.0 207.0 40.25 204.0Q33.5 201.0 26.5 201.0Q20.0 201.0 15.0 200.25Q10.0 199.5 10.0 197.5Q10.0 195.5 19.25 187.0Q28.5 178.5 41.0 167.5Q71.5 141.5 73.5 126.0Q74.5 119.0 77.0 112.25Q79.5 105.5 80.5 103.0Q81.5 95.5 71.0 84.5Q66.0 79.0 63.5 75.0Q61.0 71.0 62.0 70.5Q63.5 69.0 73.5 71.25Q83.5 73.5 96.5 77.0Q109.0 81.0 120.0 83.0Q131.0 85.0 134.5 84.5Q139.0 83.0 148.25 74.0Q157.5 65.0 167.0 55.0Q177.0 44.5 185.25 36.75Q193.5 29.0 194.5 29.0Q195.5 29.0 195.5 34.0Q195.5 39.0 193.5 46.0Q192.5 52.0 193.0 56.5Q193.5 61.0 197.75 67.0Q202.0 73.0 211.5 83.0Q221.0 93.0 238.0 110.0Q258.5 130.5 270.25 141.5Q282.0 152.5 285.5 152.5Q287.0 152.5 287.0 151.0Q288.5 144.0 291.5 144.0Q295.0 144.0 303.5 151.0Q309.0 154.5 318.25 156.5Q327.5 158.5 344.0 158.5Q363.0 158.5 394.5 155.5L430.5 151.5V125.0Q430.5 113.5 429.25 104.25Q428.0 95.0 427.0 93.5Q426.0 91.0 415.75 89.25Q405.5 87.5 389.75 86.5Q374.0 85.5 356.0 84.75Q338.0 84.0 321.5 84.0Q289.0 84.0 276.5 86.5Q268.5 88.5 262.25 89.0Q256.0 89.5 254.5 88.5Q253.5 88.0 260.5 79.0Q267.5 70.0 278.5 58.5Q290.0 47.0 299.5 35.75Q309.0 24.5 311.0 21.0Z" fill="black" /></svg>