<svg xmlns="http://www.w3.org/2000/svg" width="639.0" height="502.0" viewBox="0 0 639.0 502.0"><path d="M93.0 330.0Q88.5 330.0 77.25 326.0Q66.0 322.0 54.0 316.0L24.5 303.0V333.0Q24.5 354.5 26.25 358.25Q28.0 362.0 35.0 360.0Q39.5 358.5 45.75 355.75Q52.0 353.0 57.0 351.0Q62.5 348.5 70.75 345.75Q79.0 343.0 86.5 341.5Q100.5 339.0 103.25 334.5Q106.0 330.0 93.0 330.0ZM190.0 375.5 201.5 362.5H150.5L163.5 376.5Q169.0 383.0 173.5 386.5Q178.0 390.0 178.5 390.0Q179.0 389.0 182.25 384.75Q185.5 380.5 190.0 375.5ZM425.5 349.5Q430.5 344.0 433.5 339.75Q436.5 335.5 436.5 335.5Q435.5 335.5 430.25 336.75Q425.0 338.0 418.5 340.0Q411.5 342.0 399.0 342.75Q386.5 343.5 375.5 343.0Q370.5 342.5 365.75 342.25Q361.0 342.0 357.5 342.0Q349.0 342.0 349.5 343.5Q350.5 344.5 355.0 355.25Q359.5 366.0 364.5 380.5Q371.0 396.0 374.5 402.5Q378.0 409.0 380.0 409.0Q381.5 409.0 383.0 406.5Q386.0 401.5 393.0 392.0Q400.0 382.5 408.75 371.0Q417.5 359.5 425.5 349.5ZM63.0 179.5Q58.0 178.5 49.5 174.25Q41.0 170.0 35.0 165.5L20.0 153.5V219.5L33.0 210.5Q38.5 207.0 47.25 202.75Q56.0 198.5 62.5 196.0Q77.0 190.5 77.0 187.0Q77.0 183.5 63.0 179.5ZM145.0 256.5 165.5 238.0H121.0ZM311.5 153.0Q316.0 147.0 313.25 145.25Q310.5 143.5 305.0 149.5Q303.0 151.5 290.5 159.25Q278.0 167.0 262.5 177.0L224.5 199.5L249.0 206.5Q271.0 214.0 276.5 214.0Q281.5 214.0 282.5 211.0Q283.5 208.0 283.5 201.5Q283.5 195.5 286.75 187.5Q290.0 179.5 294.0 174.0Q298.5 169.0 303.75 162.75Q309.0 156.5 311.5 153.0ZM416.0 169.5 427.5 154.0H399.5Q387.5 154.0 379.5 155.0Q371.5 156.0 372.0 157.5Q373.0 159.5 376.75 165.25Q380.5 171.0 385.5 178.0Q396.0 195.5 401.5 195.5Q404.0 195.5 404.0 190.5Q404.0 188.0 407.25 182.0Q410.5 176.0 416.0 169.5ZM449.0 111.0Q425.5 104.0 411.25 100.5Q397.0 97.0 388.0 97.0Q378.5 97.0 372.5 100.5Q366.5 104.0 358.5 111.5Q352.0 118.5 339.75 133.0Q327.5 147.5 317.5 161.5Q305.5 177.0 300.5 184.75Q295.5 192.5 295.0 198.75Q294.5 205.0 295.5 216.5Q297.0 226.5 299.5 233.5Q302.0 240.5 309.0 249.0Q316.0 257.5 329.5 272.5Q355.0 298.5 364.0 311.75Q373.0 325.0 369.5 331.0Q366.0 334.5 379.0 334.5Q416.5 334.5 451.5 317.0Q465.5 310.0 484.75 299.25Q504.0 288.5 524.75 276.75Q545.5 265.0 563.5 254.5Q581.5 244.0 593.0 236.75Q604.5 229.5 605.0 228.5Q606.0 227.0 597.75 218.75Q589.5 210.5 568.5 192.0Q547.5 173.5 510.0 141.5Q497.5 131.0 484.0 124.25Q470.5 117.5 449.0 111.0ZM467.0 97.0Q464.5 92.0 460.75 81.5Q457.0 71.0 454.5 60.0L448.5 34.5L418.5 62.0Q397.5 80.5 394.75 84.75Q392.0 89.0 400.5 90.0Q405.5 90.0 417.75 92.5Q430.0 95.0 442.5 99.0Q454.0 102.5 463.25 105.5Q472.5 108.5 473.0 108.5Q474.0 108.5 472.25 105.0Q470.5 101.5 467.0 97.0ZM438.5 30.0Q458.5 10.0 465.0 10.0Q469.5 10.0 463.5 21.5Q460.5 26.5 460.75 38.25Q461.0 50.0 464.0 63.0Q467.0 76.0 471.5 85.0Q474.0 90.0 485.25 101.75Q496.5 113.5 512.5 129.0Q528.5 144.5 546.25 160.5Q564.0 176.5 580.25 190.5Q596.5 204.5 608.0 213.0Q619.5 221.5 622.5 221.5Q624.0 220.5 625.75 221.0Q627.5 221.5 628.5 222.5Q629.0 224.0 618.5 231.5Q608.0 239.0 589.5 250.25Q571.0 261.5 548.0 274.5Q520.0 290.5 502.25 301.0Q484.5 311.5 473.25 319.5Q462.0 327.5 453.5 335.5Q445.0 343.5 435.0 355.0Q420.5 371.5 408.25 387.75Q396.0 404.0 388.5 416.0Q381.0 428.0 381.0 432.0Q381.0 437.5 379.0 437.5Q377.0 437.5 373.75 431.75Q370.5 426.0 368.0 416.5Q365.5 408.5 359.5 393.5Q353.5 378.5 347.5 366.0L333.0 333.5L229.0 336.0Q196.0 336.5 173.0 337.5Q150.0 338.5 133.0 340.5Q116.0 342.5 101.5 345.75Q87.0 349.0 72.25 354.5Q57.5 360.0 38.0 368.5Q30.5 372.0 24.5 374.5Q18.5 377.0 17.5 378.0Q16.5 378.0 16.0 369.0Q15.5 360.0 15.25 346.25Q15.0 332.5 15.25 318.75Q15.5 305.0 16.25 295.25Q17.0 285.5 18.0 285.0Q18.0 285.0 18.0 285.0Q18.0 285.0 18.5 285.0Q20.0 285.0 25.75 288.5Q31.5 292.0 39.0 297.0Q50.5 305.0 68.0 311.75Q85.5 318.5 103.25 322.25Q121.0 326.0 132.0 325.0L147.0 323.0L145.5 297.5Q144.5 275.5 136.75 265.0Q129.0 254.5 108.5 244.0Q100.5 240.0 95.0 236.75Q89.5 233.5 89.5 232.0Q89.5 230.5 106.5 229.5Q123.5 228.5 147.5 228.5Q174.5 228.5 189.75 229.5Q205.0 230.5 205.0 233.0Q205.0 234.5 203.0 236.25Q201.0 238.0 198.5 238.0Q194.0 238.0 185.0 241.5Q176.0 245.0 168.0 249.75Q160.0 254.5 158.0 258.0Q156.5 260.0 155.75 268.25Q155.0 276.5 154.75 286.5Q154.5 296.5 155.25 305.5Q156.0 314.5 157.5 319.0Q159.0 322.0 165.5 323.5Q172.0 325.0 191.5 325.25Q211.0 325.5 251.0 325.5Q276.0 325.5 298.0 325.75Q320.0 326.0 334.75 326.5Q349.5 327.0 352.5 328.0Q356.5 329.0 359.5 329.0Q362.5 329.0 362.5 327.0Q362.5 323.5 353.75 312.75Q345.0 302.0 331.75 287.75Q318.5 273.5 303.75 259.25Q289.0 245.0 276.5 234.25Q264.0 223.5 257.5 220.0Q254.0 218.5 244.5 215.5Q235.0 212.5 225.0 210.0Q205.0 205.5 202.25 201.75Q199.5 198.0 211.0 192.0Q217.0 189.5 208.25 188.5Q199.5 187.5 168.0 187.5Q139.0 187.0 116.25 190.25Q93.5 193.5 74.0 201.0Q54.5 208.5 34.0 221.5Q26.0 226.5 19.25 230.25Q12.5 234.0 11.5 234.0Q11.0 233.5 10.75 224.5Q10.5 215.5 10.25 202.0Q10.0 188.5 10.0 174.0Q10.0 159.5 10.0 148.25Q10.0 137.0 10.5 132.5Q10.5 132.5 10.5 132.5Q10.5 132.5 10.5 132.5Q11.5 132.5 16.75 136.25Q22.0 140.0 28.5 146.0Q39.0 157.0 48.5 163.25Q58.0 169.5 71.5 172.5Q85.0 175.5 106.5 176.5Q128.0 177.5 162.5 177.5H245.0L293.5 146.0Q313.5 133.0 331.0 120.25Q348.5 107.5 353.5 103.0Q358.5 98.0 369.25 89.25Q380.0 80.5 390.5 72.5Q401.0 64.5 415.0 52.0Q429.0 39.5 438.5 30.0ZM351.5 147.5Q353.0 146.5 368.0 146.0Q383.0 145.5 400.5 145.5Q418.5 145.5 433.75 146.0Q449.0 146.5 451.0 147.5Q452.5 149.0 448.25 153.75Q444.0 158.5 436.5 164.0Q424.0 173.0 417.75 184.0Q411.5 195.0 409.75 215.0Q408.0 235.0 408.5 271.0Q410.5 330.0 406.5 330.0Q405.0 330.0 402.0 319.5Q401.0 315.5 400.25 299.5Q399.5 283.5 399.5 265.0Q399.5 240.5 396.75 224.75Q394.0 209.0 386.25 195.5Q378.5 182.0 364.0 166.0Q358.0 159.5 354.5 154.25Q351.0 149.0 351.5 147.5ZM151.0 378.5 125.0 353.5H179.0Q204.0 353.5 218.25 354.75Q232.5 356.0 232.5 358.0Q232.5 362.5 225.5 362.5Q222.0 362.5 215.0 367.25Q208.0 372.0 201.5 378.5L185.0 395.5L187.5 444.0Q188.5 464.0 188.5 478.0Q188.5 492.0 187.0 492.0Q184.5 492.0 182.25 482.0Q180.0 472.0 178.5 457.0Q177.0 442.0 177.0 427.0Q177.0 416.0 175.5 409.75Q174.0 403.5 168.75 397.0Q163.5 390.5 151.0 378.5Z" fill="black" /></svg>