<svg xmlns="http://www.w3.org/2000/svg" width="599.5" height="381.0" viewBox="0 0 599.5 381.0"><path d="M48.0 209.0Q39.0 204.5 32.5 201.25Q26.0 198.0 25.5 198.0Q25.0 198.0 24.75 205.25Q24.5 212.5 24.5 223.0Q25.0 238.5 26.5 242.5Q28.0 246.5 32.5 245.0Q35.5 244.0 44.5 241.0Q53.5 238.0 63.0 235.0Q80.5 229.0 85.25 224.5Q90.0 220.0 78.5 220.0Q75.0 220.0 66.0 216.75Q57.0 213.5 48.0 209.0ZM165.5 260.0 175.5 247.0H130.0L140.5 259.5Q145.0 265.0 148.75 269.0Q152.5 273.0 153.5 273.0Q154.5 273.0 158.0 269.0Q161.5 265.0 165.5 260.0ZM397.5 288.0 374.0 285.5Q364.5 284.5 354.5 282.75Q344.5 281.0 340.0 279.5Q333.5 277.5 332.0 278.5Q330.5 279.5 332.0 283.5Q333.0 286.5 334.75 295.25Q336.5 304.0 338.0 313.5Q339.0 322.5 340.75 329.0Q342.5 335.5 343.5 335.5Q344.5 335.0 353.0 328.0Q361.5 321.0 372.0 311.5ZM379.0 234.0Q383.0 231.5 382.0 229.75Q381.0 228.0 375.5 225.0Q369.5 221.5 367.75 222.25Q366.0 223.0 366.0 229.0Q366.0 237.5 370.0 237.5Q373.5 237.5 379.0 234.0ZM135.0 69.0Q132.0 69.0 123.75 65.75Q115.5 62.5 107.0 58.5Q99.0 54.5 93.0 51.5Q87.0 48.5 86.0 48.5Q85.5 49.5 85.25 56.75Q85.0 64.0 85.0 73.0Q85.0 82.0 85.5 88.75Q86.0 95.5 86.5 95.5Q87.5 95.0 96.75 92.25Q106.0 89.5 118.5 85.0Q139.5 78.0 144.0 73.5Q148.5 69.0 135.0 69.0ZM154.5 127.5 163.0 118.0H125.0L135.0 129.0Q139.0 133.0 142.25 136.0Q145.5 139.0 146.0 139.0Q146.5 138.5 149.0 135.25Q151.5 132.0 154.5 127.5ZM302.5 139.0Q309.5 132.0 313.25 127.5Q317.0 123.0 315.0 123.0Q313.0 123.0 301.75 129.0Q290.5 135.0 276.0 143.5L241.5 163.5L258.0 169.5Q262.0 170.5 265.5 171.25Q269.0 172.0 272.0 172.0Q286.0 172.0 286.0 161.0Q286.0 159.0 291.0 152.5Q296.0 146.0 302.5 139.0ZM384.0 148.5Q384.0 144.5 381.5 144.5Q377.0 144.5 371.5 153.5Q366.0 162.5 367.0 164.75Q368.0 167.0 378.0 167.0Q390.0 167.0 386.5 159.5Q386.0 156.5 385.0 153.5Q384.0 150.5 384.0 148.5ZM411.0 87.0Q398.5 83.0 392.0 81.0Q385.5 79.0 381.5 79.0Q378.0 79.0 375.5 81.0Q373.0 83.0 368.5 87.0Q365.0 90.5 352.75 102.25Q340.5 114.0 327.5 126.5Q314.5 139.0 304.75 149.25Q295.0 159.5 294.5 161.0Q292.5 175.5 292.75 183.75Q293.0 192.0 297.0 199.0Q301.0 206.0 309.5 217.5Q316.5 227.0 322.5 237.25Q328.5 247.5 329.5 253.0Q332.0 265.5 347.75 272.0Q363.5 278.5 386.0 276.5Q391.0 276.0 405.25 272.0Q419.5 268.0 438.75 261.75Q458.0 255.5 478.75 248.25Q499.5 241.0 517.75 234.5Q536.0 228.0 548.25 223.0Q560.5 218.0 562.5 216.0Q564.0 215.0 552.25 200.0Q540.5 185.0 523.0 165.5Q506.0 146.5 493.5 134.25Q481.0 122.0 469.5 114.0Q458.0 106.0 444.25 99.75Q430.5 93.5 411.0 87.0ZM453.5 44.0Q454.5 37.5 455.0 33.25Q455.5 29.0 454.5 29.0Q454.0 29.0 443.75 35.25Q433.5 41.5 420.0 50.0L387.0 71.0L406.5 75.5Q415.0 78.0 424.75 81.5Q434.5 85.0 440.5 88.0Q456.5 96.0 459.25 94.25Q462.0 92.5 457.0 77.5Q454.0 69.5 453.0 60.0Q452.0 50.5 453.5 44.0ZM108.5 240.5Q108.5 239.5 123.0 238.75Q137.5 238.0 157.5 238.0Q179.5 238.0 193.0 239.0Q206.5 240.0 206.5 242.5Q206.5 244.0 204.75 245.5Q203.0 247.0 200.5 247.0Q198.5 247.0 192.25 250.5Q186.0 254.0 179.5 259.5L164.0 272.5L165.5 322.0Q166.0 345.0 165.25 358.0Q164.5 371.0 162.0 371.0Q160.0 371.0 158.75 360.75Q157.5 350.5 157.5 334.5Q157.5 317.0 156.75 308.0Q156.0 299.0 153.25 293.0Q150.5 287.0 144.5 279.0Q139.5 272.0 132.25 264.0Q125.0 256.0 120.0 252.5Q115.5 248.5 112.0 245.0Q108.5 241.5 108.5 240.5ZM443.5 24.5Q459.5 13.0 466.75 11.5Q474.0 10.0 469.0 19.0Q467.0 22.0 465.0 30.25Q463.0 38.5 462.0 47.0Q460.0 59.0 461.5 66.5Q463.0 74.0 469.5 85.5Q473.0 92.5 484.75 107.5Q496.5 122.5 512.0 140.0Q527.5 157.5 542.5 173.75Q557.5 190.0 568.5 200.5Q579.5 211.0 582.0 211.0Q589.5 211.0 588.25 215.5Q587.0 220.0 578.5 222.5Q567.5 226.0 549.25 232.25Q531.0 238.5 510.0 246.5Q489.0 254.5 469.5 262.25Q450.0 270.0 436.0 276.25Q422.0 282.5 418.0 285.0Q411.5 289.5 396.75 301.75Q382.0 314.0 369.0 327.0Q355.5 339.5 345.5 348.75Q335.5 358.0 334.5 358.0Q334.0 358.0 333.25 351.75Q332.5 345.5 331.5 336.5Q331.0 328.0 329.0 314.0Q327.0 300.0 324.5 289.5Q322.0 278.5 320.75 269.0Q319.5 259.5 320.5 257.5Q321.5 255.0 319.25 249.25Q317.0 243.5 313.0 238.0L302.5 223.5L206.5 225.5Q170.5 226.0 150.25 226.5Q130.0 227.0 117.75 228.5Q105.5 230.0 95.5 233.25Q85.5 236.5 70.5 242.0Q45.5 251.5 32.75 255.5Q20.0 259.5 15.0 259.5Q10.0 259.5 13.0 253.0Q17.5 241.5 18.5 229.75Q19.5 218.0 16.0 203.0Q10.5 181.0 18.5 181.0Q22.5 181.0 27.5 186.0Q57.5 212.0 112.0 215.0L149.0 217.0L146.5 184.0Q145.0 169.5 143.5 161.75Q142.0 154.0 138.75 148.75Q135.5 143.5 129.0 137.5Q123.0 132.0 116.25 126.5Q109.5 121.0 106.0 119.0Q95.0 113.0 104.5 111.0Q114.0 109.0 151.0 110.0L199.5 111.0L181.0 121.5Q173.0 125.5 166.25 130.75Q159.5 136.0 157.5 139.5Q155.0 144.5 153.75 155.25Q152.5 166.0 153.0 178.5Q153.5 191.0 155.5 202.0L158.5 215.5H297.0L282.0 200.5Q269.5 187.5 259.25 181.75Q249.0 176.0 229.5 171.0L210.0 166.5L242.5 151.0Q261.0 142.0 282.25 130.0Q303.5 118.0 322.5 106.5Q341.5 95.0 353.5 86.5Q365.5 78.0 365.0 76.0Q364.5 74.0 373.0 67.5Q381.5 61.0 394.0 54.5Q407.0 47.5 421.5 38.5Q436.0 29.5 443.5 24.5ZM378.0 124.5Q383.5 111.5 385.0 111.5Q387.0 111.5 390.5 136.5Q392.5 149.0 395.0 154.0Q397.5 159.0 403.0 160.5Q407.0 162.0 410.75 163.75Q414.5 165.5 415.0 167.0Q416.0 168.0 428.25 172.25Q440.5 176.5 456.5 181.0Q472.5 185.5 484.0 189.75Q495.5 194.0 495.5 195.5Q495.5 197.5 490.0 200.5Q484.5 203.5 476.5 205.5Q465.5 209.0 450.0 214.5Q434.5 220.0 419.0 226.5Q403.5 233.0 391.25 238.5Q379.0 244.0 374.0 247.5Q364.5 255.0 361.0 255.0Q357.5 255.0 357.5 240.5Q357.5 234.0 356.0 226.0Q354.5 218.0 353.0 213.0Q351.0 208.0 350.25 203.75Q349.5 199.5 350.0 199.0Q351.5 199.0 357.0 202.0Q362.5 205.0 369.0 209.0Q376.5 214.5 382.0 216.75Q387.5 219.0 393.5 219.0Q396.0 219.0 398.5 218.75Q401.0 218.5 404.0 218.0Q411.0 217.0 422.5 213.75Q434.0 210.5 445.5 206.5Q457.0 202.5 464.75 199.25Q472.5 196.0 471.5 195.0Q469.5 193.0 457.0 189.75Q444.5 186.5 428.0 183.25Q411.5 180.0 395.75 177.75Q380.0 175.5 371.5 175.5H343.5L357.0 159.0Q362.5 152.0 368.75 142.0Q375.0 132.0 378.0 124.5ZM77.0 29.5Q77.5 28.5 85.5 34.5Q88.5 37.5 96.75 42.5Q105.0 47.5 113.0 51.5Q120.0 55.5 126.75 57.75Q133.5 60.0 145.75 61.0Q158.0 62.0 181.5 62.5Q205.0 63.0 245.5 63.5Q276.0 64.0 301.5 65.0Q327.0 66.0 342.25 67.0Q357.5 68.0 357.5 69.0Q357.5 70.0 344.5 71.0Q331.5 72.0 310.25 73.0Q289.0 74.0 263.0 75.0Q226.5 75.5 203.25 76.75Q180.0 78.0 163.75 80.5Q147.5 83.0 132.75 88.25Q118.0 93.5 98.5 102.0Q92.0 105.0 86.0 107.0Q80.0 109.0 78.5 109.0Q77.5 109.0 76.75 98.5Q76.0 88.0 75.75 73.5Q75.5 59.0 75.75 46.5Q76.0 34.0 77.0 29.5Z" fill="black" /></svg>