<svg xmlns="http://www.w3.org/2000/svg" width="481.0" height="388.5" viewBox="0 0 481.0 388.5"><path d="M56.0 243.0Q56.0 240.0 54.0 241.25Q52.0 242.5 49.5 246.0Q48.5 248.0 48.75 248.5Q49.0 249.0 51.0 248.0Q56.0 244.5 56.0 243.0ZM75.5 279.0Q76.5 277.0 74.75 275.75Q73.0 274.5 70.5 274.5Q64.0 274.5 65.0 279.0Q66.0 280.5 67.25 282.0Q68.5 283.5 70.5 283.5Q74.5 283.5 75.5 279.0ZM66.5 316.5Q60.5 314.5 56.25 313.25Q52.0 312.0 49.0 312.0Q42.5 312.0 41.0 317.75Q39.5 323.5 39.5 337.5V361.5L51.0 359.0Q55.5 358.0 65.25 355.5Q75.0 353.0 83.0 351.0Q91.5 348.5 102.75 346.0Q114.0 343.5 121.5 342.5Q139.0 340.0 135.25 336.25Q131.5 332.5 111.0 331.5Q102.5 330.5 94.5 328.75Q86.5 327.0 84.0 326.0Q82.0 323.5 77.0 321.0Q72.0 318.5 66.5 316.5ZM101.0 312.0Q102.0 310.0 100.0 308.75Q98.0 307.5 95.0 307.5Q92.5 307.5 91.0 308.75Q89.5 310.0 90.0 312.0Q90.5 314.0 92.25 315.25Q94.0 316.5 95.0 316.5Q99.0 316.5 101.0 312.0ZM54.0 120.5Q55.5 116.5 53.0 115.25Q50.5 114.0 42.0 114.0Q29.0 113.0 28.0 116.25Q27.0 119.5 33.5 138.5L40.5 159.0L46.5 143.0Q49.0 136.0 51.25 129.75Q53.5 123.5 54.0 120.5ZM72.5 139.5Q72.5 135.0 69.5 133.5Q66.5 132.0 63.0 135.5Q61.0 137.5 63.0 141.5Q65.0 145.5 69.0 145.5Q72.5 145.5 72.5 139.5ZM114.0 199.5Q114.0 196.5 107.5 188.75Q101.0 181.0 91.75 172.0Q82.5 163.0 73.0 156.75Q63.5 150.5 57.5 150.5Q53.0 150.5 50.0 162.5Q48.5 170.0 47.75 181.25Q47.0 192.5 47.25 203.5Q47.5 214.5 48.75 222.25Q50.0 230.0 51.5 231.0Q54.5 231.0 64.5 226.75Q74.5 222.5 86.0 216.75Q97.5 211.0 105.75 206.0Q114.0 201.0 114.0 199.5ZM159.5 216.5Q159.5 213.5 152.75 210.75Q146.0 208.0 138.75 206.0Q131.5 204.0 129.0 204.0Q126.0 204.0 117.0 209.0Q108.0 214.0 97.25 221.5Q86.5 229.0 77.0 236.5Q67.5 244.0 63.0 249.5L51.0 264.0L60.5 265.5Q65.0 266.0 72.75 264.5Q80.5 263.0 87.0 260.0Q95.0 256.5 107.25 250.0Q119.5 243.5 131.5 236.25Q143.5 229.0 151.5 223.5Q159.5 218.0 159.5 216.5ZM187.5 234.5Q183.0 230.5 178.25 227.75Q173.5 225.0 171.0 225.0Q166.5 225.0 155.25 231.0Q144.0 237.0 130.25 246.25Q116.5 255.5 104.25 264.75Q92.0 274.0 86.0 281.0Q71.5 299.0 67.5 299.0Q67.0 298.5 64.5 294.75Q62.0 291.0 59.0 287.0L51.5 276.5V289.5Q51.5 297.5 55.5 302.0Q59.5 306.5 65.5 306.5Q70.5 306.5 75.5 303.5Q78.5 302.5 85.25 300.5Q92.0 298.5 97.5 297.0Q101.0 296.5 111.25 292.25Q121.5 288.0 134.5 281.5Q147.5 275.0 160.75 268.0Q174.0 261.0 183.75 255.25Q193.5 249.5 197.0 246.5Q198.0 245.5 195.25 242.0Q192.5 238.5 187.5 234.5ZM226.5 333.5V300.5Q226.5 278.5 224.75 271.25Q223.0 264.0 216.5 258.5L207.5 249.5L168.0 273.0Q137.0 291.0 123.5 301.75Q110.0 312.5 110.0 318.5Q110.0 322.5 126.25 325.25Q142.5 328.0 186.0 330.5ZM187.5 173.0Q190.0 165.0 191.25 158.25Q192.5 151.5 192.0 150.0Q190.0 150.0 184.25 153.75Q178.5 157.5 172.0 163.25Q165.5 169.0 160.5 174.75Q155.5 180.5 154.5 183.5Q152.0 191.0 147.5 191.0Q143.0 191.0 143.25 195.0Q143.5 199.0 148.5 201.0Q151.0 202.0 157.0 204.5Q163.0 207.0 169.5 210.0L186.0 216.5L183.5 204.0Q182.0 198.5 183.25 189.75Q184.5 181.0 187.5 173.0ZM226.5 219.5Q226.5 207.5 224.75 193.0Q223.0 178.5 220.25 165.5Q217.5 152.5 214.75 144.0Q212.0 135.5 210.0 135.5Q209.5 135.5 208.5 137.0Q200.0 159.0 196.0 172.0Q192.0 185.0 191.75 192.75Q191.5 200.5 193.5 207.5Q196.0 214.0 198.0 219.0Q200.0 224.0 201.0 225.0Q204.5 226.0 210.5 239.0Q218.5 252.5 221.5 252.5Q226.5 252.5 226.5 219.5ZM261.5 199.5Q253.5 196.0 247.0 193.5Q240.5 191.0 240.0 191.0Q239.5 191.0 239.0 195.5Q238.5 200.0 238.5 206.0Q238.5 211.5 239.0 216.0Q239.5 220.5 240.5 220.5Q241.5 220.5 251.75 217.0Q262.0 213.5 276.0 209.0Q281.0 207.0 261.5 199.5ZM290.0 333.0 273.5 315.0Q267.0 307.5 258.75 299.25Q250.5 291.0 246.0 287.0L234.0 277.5L237.0 330.5ZM318.0 272.0V212.0H306.5Q299.5 212.0 286.5 214.75Q273.5 217.5 260.75 221.5Q248.0 225.5 242.0 228.5Q234.5 233.0 234.5 249.0Q234.5 255.5 236.75 261.0Q239.0 266.5 246.5 274.75Q254.0 283.0 269.0 298.5Q283.5 312.5 295.5 322.25Q307.5 332.0 310.5 332.0Q313.5 332.0 315.0 328.5Q316.5 325.0 317.25 312.25Q318.0 299.5 318.0 272.0ZM111.5 75.5Q105.5 73.0 97.0 67.75Q88.5 62.5 82.5 57.5L68.0 45.0V74.0Q68.0 86.0 69.0 95.25Q70.0 104.5 71.0 105.5Q72.0 106.5 75.75 105.5Q79.5 104.5 83.0 102.5Q86.5 100.0 94.25 96.75Q102.0 93.5 109.5 91.5Q116.5 89.0 121.5 86.5Q126.5 84.0 126.5 83.0Q126.5 82.5 122.25 80.0Q118.0 77.5 111.5 75.5ZM300.5 87.5H260.0Q243.0 87.5 222.0 87.0Q201.0 86.5 188.0 86.0Q174.5 85.0 165.75 85.0Q157.0 85.0 149.75 86.25Q142.5 87.5 133.5 90.5Q124.5 93.5 111.0 99.0Q97.0 104.5 91.0 107.75Q85.0 111.0 83.75 114.75Q82.5 118.5 81.5 126.5Q81.5 134.0 82.5 139.0Q83.5 144.0 87.0 149.75Q90.5 155.5 98.0 165.0Q105.5 174.0 112.5 180.25Q119.5 186.5 121.5 186.5Q124.0 186.5 134.25 179.5Q144.5 172.5 157.75 162.75Q171.0 153.0 182.5 143.75Q194.0 134.5 198.5 129.5Q203.0 124.5 203.5 121.0Q204.0 117.5 201.5 113.0Q200.0 109.0 198.5 106.0Q197.0 103.0 197.0 101.0Q197.0 100.0 204.25 99.5Q211.5 99.0 221.5 99.0Q231.5 99.0 241.75 99.5Q252.0 100.0 259.25 100.75Q266.5 101.5 267.5 102.5Q268.5 103.5 262.5 111.5Q257.5 117.0 251.75 128.0Q246.0 139.0 242.25 150.25Q238.5 161.5 238.5 168.5Q238.5 177.5 241.75 181.0Q245.0 184.5 258.5 189.5Q266.5 193.0 277.75 195.0Q289.0 197.0 297.0 197.0L315.5 198.0L315.0 166.5Q315.0 153.5 312.5 137.25Q310.0 121.0 307.5 111.0ZM251.0 111.5Q251.0 110.5 246.75 109.25Q242.5 108.0 237.0 108.0Q223.0 108.0 220.0 114.75Q217.0 121.5 222.5 142.5L229.5 164.0L236.0 142.5Q239.5 133.5 242.5 126.5Q245.5 119.5 247.5 118.5Q251.0 116.0 251.0 111.5ZM342.5 29.0Q342.5 27.5 334.5 26.5Q326.5 25.5 315.0 25.5Q300.0 25.5 294.25 26.75Q288.5 28.0 290.25 34.0Q292.0 40.0 299.0 54.5Q301.5 58.5 304.25 68.25Q307.0 78.0 309.0 87.5L315.0 110.0L320.0 85.5Q322.5 75.5 326.75 64.0Q331.0 52.5 334.5 47.0Q338.0 41.5 340.25 36.25Q342.5 31.0 342.5 29.0ZM275.0 11.0Q276.0 10.0 278.75 10.5Q281.5 11.0 285.0 12.5Q287.5 14.5 300.25 15.75Q313.0 17.0 328.5 17.0Q354.5 17.0 358.75 18.0Q363.0 19.0 357.5 24.5Q355.0 27.5 349.5 36.75Q344.0 46.0 339.5 56.0Q335.5 65.0 333.25 71.75Q331.0 78.5 329.5 86.5Q328.0 94.5 327.5 107.0Q327.0 119.5 327.0 140.0L325.5 199.5H398.0Q432.5 199.5 451.75 200.75Q471.0 202.0 471.0 204.0Q471.0 205.5 452.0 206.5Q433.0 207.5 399.0 207.5H326.0V331.5L360.5 333.5Q374.0 334.5 393.0 335.5Q412.0 336.5 424.5 336.5Q437.0 336.5 445.75 337.5Q454.5 338.5 454.5 339.5Q454.5 340.5 436.0 341.25Q417.5 342.0 386.75 342.0Q356.0 342.0 318.5 342.0Q276.5 341.5 248.5 341.5Q220.5 341.5 201.5 342.0Q182.5 342.5 169.25 343.75Q156.0 345.0 144.0 347.0Q117.5 352.0 92.75 357.5Q68.0 363.0 51.5 367.75Q35.0 372.5 31.5 375.5Q27.5 378.5 27.0 376.5Q26.5 374.5 28.5 363.5Q29.5 356.5 30.0 343.5Q30.5 330.5 30.5 318.5Q30.5 301.5 32.0 296.25Q33.5 291.0 37.5 291.0Q42.0 291.0 42.75 287.75Q43.5 284.5 41.0 275.0Q40.5 269.0 38.0 261.5Q35.5 254.0 33.0 250.5Q22.0 233.0 33.5 233.0Q38.0 233.0 39.0 227.25Q40.0 221.5 38.0 200.0Q37.5 185.5 35.0 173.75Q32.5 162.0 27.0 147.25Q21.5 132.5 11.0 109.5Q10.0 106.5 14.75 105.25Q19.5 104.0 33.5 105.0L57.5 106.5L59.0 67.5Q60.0 52.0 60.5 40.5Q61.0 29.0 61.5 29.0Q62.5 29.0 67.5 33.5Q72.5 38.0 78.5 44.0Q85.0 50.5 93.25 56.5Q101.5 62.5 107.0 65.0Q113.0 68.0 128.5 70.75Q144.0 73.5 165.25 75.5Q186.5 77.5 208.75 78.5Q231.0 79.5 250.5 79.5Q270.5 79.5 283.75 78.25Q297.0 77.0 297.0 74.0Q297.0 71.5 293.5 61.75Q290.0 52.0 285.0 41.0Q280.0 29.5 277.0 20.75Q274.0 12.0 275.0 11.0Z" fill="black" /></svg>