<svg xmlns="http://www.w3.org/2000/svg" width="766.0" height="467.0" viewBox="0 0 766.0 467.0"><path d="M105.0 268.5Q93.0 256.5 86.25 250.5Q79.5 244.5 75.0 244.5Q70.0 244.5 65.5 251.0Q61.0 257.5 54.0 271.0Q46.5 284.0 42.0 293.5Q37.5 303.0 38.5 304.0Q38.5 304.0 38.75 304.0Q39.0 304.0 39.5 304.0Q42.0 304.0 50.0 303.0Q58.0 302.0 67.5 300.0Q79.0 298.0 94.5 297.0Q110.0 296.0 119.5 297.5Q138.0 300.0 142.5 295.75Q147.0 291.5 131.0 286.5Q127.0 285.5 119.5 280.0Q112.0 274.5 105.0 268.5ZM225.5 276.5Q226.5 275.5 225.5 274.25Q224.5 273.0 221.5 273.0Q218.0 273.0 217.0 274.25Q216.0 275.5 217.0 276.5Q221.5 279.5 225.5 276.5ZM227.0 237.0Q227.0 234.0 224.5 234.0Q221.5 234.0 221.5 237.0Q221.5 239.5 224.5 239.5Q227.0 239.5 227.0 237.0ZM232.5 195.0Q232.5 189.5 230.0 189.5Q229.5 189.5 227.5 191.0Q225.5 192.5 224.5 195.0Q223.0 197.0 223.5 198.75Q224.0 200.5 226.0 200.5Q232.5 200.5 232.5 195.0ZM490.0 305.5 460.0 278.5Q447.5 267.5 438.0 259.5Q428.5 251.5 427.5 251.5Q425.5 251.5 419.25 258.25Q413.0 265.0 405.5 273.75Q398.0 282.5 393.0 289.5Q388.0 296.5 389.0 297.5Q390.0 298.0 405.0 299.75Q420.0 301.5 440.0 303.0ZM185.5 73.0Q183.0 70.5 170.5 68.25Q158.0 66.0 142.0 64.0L105.0 60.0L119.5 87.5Q125.0 98.5 130.0 107.0Q135.0 115.5 135.5 116.5Q137.0 116.5 142.75 111.25Q148.5 106.0 156.5 98.5Q164.0 89.5 171.5 84.0Q179.0 78.5 182.5 78.5Q189.5 78.5 185.5 73.0ZM232.5 164.5Q232.5 161.5 230.0 161.5Q227.0 161.5 227.0 164.5Q227.0 167.0 230.0 167.0Q232.5 167.0 232.5 164.5ZM238.0 131.0Q238.0 128.0 235.5 128.0Q232.5 128.0 232.5 131.0Q232.5 133.5 235.5 133.5Q238.0 133.5 238.0 131.0ZM423.5 69.5Q415.0 65.5 407.25 61.25Q399.5 57.0 398.5 56.5Q397.0 56.5 396.75 64.0Q396.5 71.5 397.5 81.5Q398.5 91.5 400.0 100.0Q401.5 108.5 403.0 110.0Q405.0 110.0 411.5 106.75Q418.0 103.5 425.75 98.75Q433.5 94.0 439.0 89.75Q444.5 85.5 444.5 84.0Q444.5 82.5 438.25 78.25Q432.0 74.0 423.5 69.5ZM672.5 36.0Q672.5 35.0 662.0 34.0Q651.5 33.0 636.5 33.0Q608.0 33.0 603.5 37.5Q599.0 42.0 608.5 60.0Q611.0 66.5 615.25 79.5Q619.5 92.5 623.0 104.5Q626.5 116.0 629.5 124.75Q632.5 133.5 634.5 133.5Q636.0 133.5 638.25 127.5Q640.5 121.5 642.0 112.5Q644.0 104.5 649.0 90.75Q654.0 77.0 659.0 65.5Q664.5 54.5 668.5 45.75Q672.5 37.0 672.5 36.0ZM92.0 64.5 74.0 43.0 96.0 46.5Q111.5 49.0 136.75 52.5Q162.0 56.0 191.25 59.5Q220.5 63.0 248.5 65.75Q276.5 68.5 298.0 70.25Q319.5 72.0 328.5 72.0Q343.0 72.0 351.75 73.75Q360.5 75.5 360.5 78.5Q360.5 82.5 331.5 82.5Q313.0 82.5 281.5 81.0Q263.0 80.0 249.75 79.5Q236.5 79.0 227.0 79.0Q208.0 79.0 200.0 81.25Q192.0 83.5 183.5 88.5Q173.5 95.0 166.75 102.25Q160.0 109.5 155.25 120.75Q150.5 132.0 146.25 150.25Q142.0 168.5 137.5 197.0Q133.0 223.0 130.75 237.75Q128.5 252.5 128.25 259.75Q128.0 267.0 130.0 270.0Q132.0 273.0 135.5 276.0Q157.5 293.0 199.0 309.5Q240.5 326.0 311.5 346.5Q340.5 354.5 364.25 361.75Q388.0 369.0 402.25 374.0Q416.5 379.0 416.5 380.0Q416.5 383.5 412.0 383.5Q407.5 383.5 396.75 381.0Q386.0 378.5 365.75 372.5Q345.5 366.5 311.5 356.5Q264.5 342.5 230.75 333.25Q197.0 324.0 172.75 318.25Q148.5 312.5 131.25 310.0Q114.0 307.5 100.0 307.5Q91.0 307.5 77.75 309.0Q64.5 310.5 51.75 313.0Q39.0 315.5 31.5 318.5Q25.0 321.0 18.5 321.75Q12.0 322.5 10.5 322.0Q10.0 319.5 15.0 310.75Q20.0 302.0 28.0 291.0Q36.0 280.0 44.5 266.5Q53.0 253.0 57.0 245.0Q61.0 237.5 64.5 231.0Q68.0 224.5 69.0 223.0Q71.5 223.0 77.25 227.75Q83.0 232.5 90.5 239.5Q99.0 247.5 105.5 251.5Q112.0 255.5 114.0 253.0Q116.0 251.0 119.5 233.75Q123.0 216.5 125.5 195.0Q128.5 176.5 129.5 165.0Q130.5 153.5 130.0 146.0Q129.5 138.5 127.25 131.5Q125.0 124.5 121.0 114.5Q116.5 103.5 107.75 88.75Q99.0 74.0 92.0 64.5ZM577.5 16.0Q577.5 10.0 588.5 14.0Q592.0 16.5 609.25 18.5Q626.5 20.5 646.5 21.5Q680.0 22.5 690.5 26.0Q701.0 29.5 690.0 36.0Q685.5 38.5 679.75 48.25Q674.0 58.0 668.25 71.25Q662.5 84.5 657.75 99.0Q653.0 113.5 650.0 125.5Q649.0 135.5 647.75 156.0Q646.5 176.5 646.0 204.25Q645.5 232.0 646.5 264.0L647.5 370.0L696.0 390.0Q716.5 398.5 732.0 405.25Q747.5 412.0 749.0 414.5Q756.0 421.0 740.0 417.0Q724.0 413.0 695.5 401.5Q678.5 394.0 665.75 390.0Q653.0 386.0 652.0 387.0Q650.5 388.5 650.0 399.25Q649.5 410.0 650.0 423.5Q650.0 457.0 645.5 457.0Q643.0 457.0 641.0 446.75Q639.0 436.5 639.0 418.0V378.0L614.5 368.0Q574.0 350.5 547.25 340.25Q520.5 330.0 500.5 324.5Q480.5 319.0 462.25 317.0Q444.0 315.0 421.0 314.5Q396.0 314.5 378.25 314.25Q360.5 314.0 360.5 313.0Q360.5 313.0 369.5 301.5Q378.5 290.0 391.0 275.0Q404.0 259.0 413.0 246.5Q422.0 234.0 422.5 232.0Q425.0 232.0 436.0 240.75Q447.0 249.5 461.0 264.0Q472.0 274.0 483.75 284.25Q495.5 294.5 505.75 302.75Q516.0 311.0 522.5 314.5Q528.0 318.5 540.0 324.5Q552.0 330.5 566.5 337.0Q581.0 343.5 595.0 349.25Q609.0 355.0 619.25 358.75Q629.5 362.5 632.0 362.5Q632.5 362.5 633.0 348.75Q633.5 335.0 633.5 311.75Q633.5 288.5 633.0 260.5Q632.0 227.0 631.0 205.5Q630.0 184.0 628.25 169.5Q626.5 155.0 623.75 143.75Q621.0 132.5 616.5 120.0L603.0 81.0L538.5 83.0Q513.5 83.5 496.25 85.25Q479.0 87.0 465.25 91.5Q451.5 96.0 437.75 104.0Q424.0 112.0 405.5 125.5Q399.0 130.0 393.5 132.75Q388.0 135.5 379.75 136.75Q371.5 138.0 357.5 138.25Q343.5 138.5 319.5 138.0Q290.5 138.0 268.0 139.5Q245.5 141.0 241.5 143.5Q227.5 151.0 243.5 154.75Q259.5 158.5 310.5 160.5Q374.5 162.5 378.75 167.5Q383.0 172.5 321.5 173.5Q240.0 174.0 237.0 182.25Q234.0 190.5 314.0 194.5Q340.0 195.5 358.75 197.5Q377.5 199.5 377.5 201.5Q377.5 203.5 360.25 204.75Q343.0 206.0 319.5 206.0Q304.0 206.0 288.25 206.5Q272.5 207.0 260.75 207.75Q249.0 208.5 244.5 209.5Q227.5 213.0 226.75 217.25Q226.0 221.5 237.75 225.25Q249.5 229.0 271.0 231.5Q292.5 234.0 319.5 234.0Q359.5 234.0 369.5 236.5Q379.5 239.0 362.75 242.0Q346.0 245.0 305.0 246.0Q271.0 247.0 250.25 249.25Q229.5 251.5 226.0 255.0Q221.5 260.0 231.75 264.0Q242.0 268.0 264.5 270.5Q287.0 273.0 317.5 273.0Q340.0 273.0 356.0 274.75Q372.0 276.5 372.0 278.5Q372.0 280.5 351.5 282.5Q331.0 284.5 301.5 285.5Q281.5 286.5 263.0 287.75Q244.5 289.0 231.25 290.25Q218.0 291.5 213.5 293.0Q210.0 293.5 207.5 294.25Q205.0 295.0 203.5 295.0Q198.0 295.0 201.0 286.5Q202.0 282.0 204.0 268.25Q206.0 254.5 207.0 239.5Q211.5 187.5 214.0 160.25Q216.5 133.0 219.5 123.25Q222.5 113.5 227.0 113.5Q228.5 113.5 231.5 114.5Q241.0 118.0 260.0 121.25Q279.0 124.5 301.75 126.25Q324.5 128.0 346.0 128.0H388.5V104.5Q388.5 94.5 386.75 79.75Q385.0 65.0 384.0 54.0Q382.0 43.0 381.75 34.5Q381.5 26.0 382.0 25.0Q384.5 25.0 391.0 30.0Q397.5 35.0 404.5 42.0Q416.0 53.0 427.0 59.75Q438.0 66.5 453.25 69.25Q468.5 72.0 492.0 72.0Q498.5 72.0 514.0 71.5Q529.5 71.0 547.0 70.0Q564.5 69.0 578.0 67.5Q591.5 66.0 594.0 64.5Q595.0 62.5 593.0 56.0Q591.0 49.5 587.5 42.0Q583.5 33.5 580.5 25.75Q577.5 18.0 577.5 16.0Z" fill="black" /></svg>