<svg xmlns="http://www.w3.org/2000/svg" width="727.0" height="459.0" viewBox="0 0 727.0 459.0"><path d="M103.5 240.5 73.0 227.0Q60.5 221.5 48.75 214.75Q37.0 208.0 33.0 204.5Q27.5 200.0 26.0 200.0Q23.5 200.0 23.0 208.25Q22.5 216.5 22.5 238.0V280.5ZM158.5 90.0Q158.5 90.0 150.25 89.75Q142.0 89.5 129.5 89.5Q118.5 89.5 110.0 90.75Q101.5 92.0 101.5 93.5Q101.5 95.0 105.0 103.25Q108.5 111.5 113.0 120.5Q117.0 130.0 120.25 138.75Q123.5 147.5 123.5 152.0Q124.5 152.0 130.0 144.0Q135.5 136.0 142.0 124.5Q148.5 113.0 153.5 103.0Q158.5 93.0 158.5 90.0ZM191.0 119.0Q186.0 109.0 181.75 102.0Q177.5 95.0 176.0 95.0Q174.5 95.0 169.25 101.0Q164.0 107.0 158.5 115.5Q152.5 124.0 149.0 132.25Q145.5 140.5 144.0 152.25Q142.5 164.0 141.5 184.0L140.0 231.5L178.5 229.5Q196.5 228.5 204.75 227.5Q213.0 226.5 215.75 223.75Q218.5 221.0 219.5 215.0Q220.5 207.5 216.75 191.75Q213.0 176.0 206.5 156.5Q200.0 137.0 191.0 119.0ZM248.0 91.5Q248.0 90.5 240.0 90.0Q232.0 89.5 220.0 89.5Q208.5 89.5 200.25 90.0Q192.0 90.5 192.0 91.5Q192.0 92.5 196.0 101.5Q200.0 110.5 205.0 123.0L218.0 152.0L234.0 123.0Q239.5 110.5 243.75 101.5Q248.0 92.5 248.0 91.5ZM379.5 188.0Q378.5 179.0 377.25 174.5Q376.0 170.0 372.5 170.0Q368.5 170.0 353.5 182.0L337.5 195.5L356.0 201.5Q363.5 204.0 368.25 205.5Q373.0 207.0 376.0 207.0Q380.0 207.0 380.25 202.75Q380.5 198.5 379.5 188.0ZM405.5 240.5Q408.0 238.0 404.5 238.0Q402.0 238.0 395.0 239.25Q388.0 240.5 375.0 243.5Q362.0 246.0 356.75 249.0Q351.5 252.0 352.25 258.75Q353.0 265.5 357.5 280.5L364.5 299.5L384.0 272.5Q392.5 261.0 398.75 251.75Q405.0 242.5 405.5 240.5ZM429.5 143.0Q429.5 130.0 425.0 130.0Q420.0 130.0 404.0 143.0Q394.5 151.0 393.0 154.25Q391.5 157.5 395.5 159.0Q399.5 160.5 406.75 163.25Q414.0 166.0 420.5 168.0Q428.0 171.5 432.0 171.5Q435.5 171.5 433.0 165.5Q432.0 162.0 430.75 155.0Q429.5 148.0 429.5 143.0ZM432.0 186.0Q422.0 181.5 412.0 178.0Q402.0 174.5 399.0 174.5Q390.0 174.5 390.5 185.75Q391.0 197.0 400.5 209.0Q404.5 214.0 407.75 216.5Q411.0 219.0 416.0 219.0Q419.5 219.0 424.0 218.0Q428.5 217.0 435.0 215.0Q444.5 211.5 451.25 208.5Q458.0 205.5 458.0 204.0Q458.0 201.5 450.25 196.5Q442.5 191.5 432.0 186.0ZM482.0 115.0Q479.0 92.5 472.5 92.5Q467.5 92.5 454.5 103.0L438.0 116.5L460.5 125.5Q469.0 130.0 475.5 132.5Q482.0 135.0 482.5 135.0Q483.5 135.0 483.0 129.0Q482.5 123.0 482.0 115.0ZM504.5 158.0Q493.5 151.5 480.0 145.75Q466.5 140.0 459.0 136.5L440.5 128.0L442.0 146.0Q442.5 155.5 448.0 163.75Q453.5 172.0 464.0 180.5L484.5 197.0L508.0 188.0Q517.5 184.0 524.5 180.25Q531.5 176.5 531.5 174.5Q531.5 173.5 523.75 168.25Q516.0 163.0 504.5 158.0ZM569.0 265.0Q568.0 263.5 559.25 257.75Q550.5 252.0 538.5 244.75Q526.5 237.5 514.25 230.5Q502.0 223.5 493.0 219.0Q484.0 214.5 482.0 214.5Q475.0 215.5 465.25 220.25Q455.5 225.0 448.5 230.0Q441.5 235.0 442.0 238.0Q443.5 240.5 455.75 249.25Q468.0 258.0 484.0 268.0L524.0 291.0L548.0 280.5Q557.5 276.0 563.75 271.5Q570.0 267.0 569.0 265.0ZM633.0 238.0Q633.0 236.0 625.5 230.25Q618.0 224.5 606.25 216.75Q594.5 209.0 582.25 202.0Q570.0 195.0 560.5 190.25Q551.0 185.5 548.0 185.5Q544.5 185.5 535.5 188.5Q526.5 191.5 517.0 195.5L494.5 206.0L509.0 215.0Q515.0 218.5 529.0 226.75Q543.0 235.0 557.0 243.5L590.5 263.0L611.0 252.5Q620.5 248.5 626.75 244.0Q633.0 239.5 633.0 238.0ZM651.0 177.0Q638.0 169.0 626.75 163.5Q615.5 158.0 613.0 158.0Q607.5 158.5 597.5 162.75Q587.5 167.0 579.25 171.75Q571.0 176.5 571.0 179.0Q571.0 180.0 582.75 188.75Q594.5 197.5 611.0 207.5L652.0 231.5L674.0 221.5Q686.5 216.0 689.5 211.75Q692.5 207.5 683.5 199.75Q674.5 192.0 651.0 177.0ZM520.0 63.0Q520.0 50.5 514.5 50.5Q510.0 50.5 501.5 59.5Q491.5 71.0 493.0 76.75Q494.5 82.5 509.0 88.0Q514.5 89.5 517.5 90.5Q520.5 91.5 522.5 91.5Q525.5 91.5 524.0 85.5Q522.0 82.0 521.0 75.25Q520.0 68.5 520.0 63.0ZM558.5 124.5Q533.0 110.0 519.0 103.75Q505.0 97.5 499.0 97.5Q492.0 97.5 492.0 107.5Q492.5 113.5 497.0 122.5Q501.5 131.5 507.25 138.5Q513.0 145.5 517.0 145.5Q518.0 145.5 522.5 149.25Q527.0 153.0 531.5 157.0Q536.5 162.0 541.75 165.0Q547.0 168.0 550.5 168.0Q554.0 168.0 562.0 165.75Q570.0 163.5 578.5 160.0Q587.0 156.5 593.25 153.5Q599.5 150.5 599.5 149.0Q599.5 148.0 587.25 140.75Q575.0 133.5 558.5 124.5ZM399.0 402.0 419.5 370.5Q428.5 357.0 433.0 347.5Q437.5 338.0 436.5 338.0Q434.5 339.0 426.0 341.5Q417.5 344.0 406.0 346.5Q393.5 350.0 388.25 353.25Q383.0 356.5 384.25 363.25Q385.5 370.0 391.5 385.0ZM524.0 13.0Q525.0 10.0 526.0 10.0Q528.5 10.0 531.5 43.0Q533.0 62.5 534.5 72.25Q536.0 82.0 540.25 87.75Q544.5 93.5 554.0 102.0Q574.5 119.5 591.5 130.0Q608.5 140.5 618.0 140.5Q622.0 140.5 633.0 136.0Q644.0 131.5 655.5 126.0Q665.5 122.0 673.25 119.0Q681.0 116.0 684.5 116.0Q686.0 116.0 687.0 117.0Q688.0 119.5 680.75 124.75Q673.5 130.0 661.5 135.5Q650.5 140.5 641.75 145.0Q633.0 149.5 633.0 151.5Q633.0 152.5 645.5 161.75Q658.0 171.0 676.0 182.0Q693.5 193.0 705.25 202.5Q717.0 212.0 714.5 213.5Q712.0 216.0 702.5 221.0Q693.0 226.0 680.0 232.5Q667.0 239.0 653.5 245.25Q640.0 251.5 629.0 256.5Q615.0 262.0 610.75 266.5Q606.5 271.0 609.0 277.0Q610.5 287.0 605.5 287.0Q601.0 287.0 594.5 280.5Q591.5 277.0 587.5 277.0Q582.0 277.0 565.5 284.0Q547.0 293.0 544.25 297.5Q541.5 302.0 551.0 310.5Q565.5 322.5 557.0 322.5Q551.0 322.5 540.0 316.0L518.5 302.0L504.0 314.5Q497.0 319.5 490.25 323.0Q483.5 326.5 480.5 326.5Q476.0 326.5 466.5 335.0Q457.0 343.5 445.5 356.75Q434.0 370.0 423.5 385.25Q413.0 400.5 406.0 414.0Q398.0 432.0 391.5 440.5Q385.0 449.0 383.0 446.5Q377.5 441.0 384.0 431.5Q388.5 426.5 388.0 420.0Q387.5 413.5 382.0 397.5Q378.5 386.5 373.25 375.25Q368.0 364.0 364.0 360.5Q358.5 354.5 358.0 351.5Q357.5 348.5 368.0 345.5Q378.5 342.5 405.5 336.0Q420.5 332.0 437.75 326.0Q455.0 320.0 470.0 313.75Q485.0 307.5 494.5 302.25Q504.0 297.0 504.0 294.5Q504.0 293.5 496.75 288.25Q489.5 283.0 478.25 276.25Q467.0 269.5 455.5 263.0Q444.0 256.5 435.25 252.25Q426.5 248.0 424.0 248.0Q421.0 248.0 414.0 255.25Q407.0 262.5 398.0 273.75Q389.0 285.0 381.0 297.25Q373.0 309.5 368.0 319.5Q363.0 329.5 357.75 336.5Q352.5 343.5 350.5 343.5Q345.0 343.5 345.0 340.25Q345.0 337.0 350.5 326.5Q355.0 319.5 353.25 306.0Q351.5 292.5 346.0 278.5Q340.5 264.5 333.0 256.5Q328.5 251.0 326.75 246.25Q325.0 241.5 326.0 240.5Q327.5 238.5 314.0 237.5Q300.5 236.5 280.5 236.5H232.0V298.5Q232.0 360.0 226.0 360.0Q224.0 360.0 222.0 345.0Q220.0 330.0 219.5 299.5L217.0 238.5L192.5 238.0Q177.0 236.5 167.5 236.5Q154.5 236.5 149.0 241.5Q143.5 246.5 142.5 260.5Q141.5 274.5 141.5 301.5Q141.5 328.5 139.75 345.0Q138.0 361.5 136.0 361.5Q133.0 361.5 131.25 345.5Q129.5 329.5 129.5 304.0Q129.5 280.5 128.25 264.25Q127.0 248.0 126.0 248.0Q122.5 248.0 111.5 251.75Q100.5 255.5 86.5 261.25Q72.5 267.0 59.5 273.0Q46.5 279.0 38.5 284.0Q30.0 290.5 22.0 294.5Q14.0 298.5 13.0 298.5Q11.5 298.5 10.75 286.5Q10.0 274.5 10.0 256.5Q10.0 238.5 10.5 220.0Q11.0 201.5 12.0 188.75Q13.0 176.0 14.5 174.5Q14.5 174.5 14.5 174.5Q14.5 174.5 15.0 174.5Q16.5 174.5 22.5 178.75Q28.5 183.0 35.0 189.5Q46.0 200.0 60.25 208.25Q74.5 216.5 88.75 221.0Q103.0 225.5 113.0 225.5Q129.5 225.5 129.5 215.0Q129.5 206.0 124.5 188.0Q119.5 170.0 111.75 149.75Q104.0 129.5 96.0 115.0Q91.0 103.5 86.0 94.25Q81.0 85.0 79.5 83.0Q79.5 82.0 92.25 81.5Q105.0 81.0 126.75 80.75Q148.5 80.5 174.5 80.5Q223.5 80.5 245.75 82.25Q268.0 84.0 270.25 88.25Q272.5 92.5 261.5 101.0Q249.0 112.0 240.5 137.0Q232.0 162.0 232.0 189.5V225.5H289.5Q314.5 225.5 333.0 226.75Q351.5 228.0 353.5 230.5Q356.5 233.5 364.0 233.5Q371.0 233.5 377.25 231.0Q383.5 228.5 381.0 225.5Q380.0 223.0 368.0 218.0Q356.0 213.0 340.5 208.0L303.5 195.5L319.5 188.0Q327.0 185.0 337.0 178.0Q347.0 171.0 356.75 162.25Q366.5 153.5 372.75 146.25Q379.0 139.0 379.0 135.5Q379.0 128.0 390.0 132.0Q394.0 133.5 396.5 133.5Q403.0 133.5 404.5 124.0Q405.5 118.5 409.0 115.25Q412.5 112.0 415.5 112.0Q419.5 112.0 423.25 108.5Q427.0 105.0 429.5 100.5Q432.0 96.5 436.25 94.25Q440.5 92.0 442.5 93.0Q451.0 95.5 454.75 89.75Q458.5 84.0 452.0 80.5Q448.5 78.0 451.5 75.0Q454.5 72.0 462.5 68.5Q470.5 65.5 475.5 61.75Q480.5 58.0 480.5 55.0Q480.5 49.5 488.0 49.5Q492.5 49.5 499.5 43.75Q506.5 38.0 513.5 29.5Q520.5 21.0 524.0 13.0Z" fill="black" /></svg>