<svg xmlns="http://www.w3.org/2000/svg" width="587.0" height="468.0" viewBox="0 0 587.0 468.0"><path d="M69.0 338.5Q56.5 334.5 46.25 331.25Q36.0 328.0 34.0 328.0Q33.0 328.0 31.75 335.75Q30.5 343.5 30.5 355.0Q30.5 368.0 31.0 373.0Q31.5 378.0 34.0 378.0Q35.0 378.0 37.0 377.0Q39.0 376.0 41.5 375.0Q47.0 372.0 55.5 367.75Q64.0 363.5 72.0 361.0Q94.0 355.5 93.5 351.0Q93.0 346.5 69.0 338.5ZM144.0 214.0Q136.5 209.5 129.5 209.5Q124.5 209.5 120.75 212.0Q117.0 214.5 117.0 219.0Q117.0 225.0 119.25 226.5Q121.5 228.0 129.5 226.5Q144.0 222.5 146.75 220.0Q149.5 217.5 144.0 214.0ZM137.5 271.5Q130.0 269.5 125.0 268.5Q120.0 267.5 117.5 267.5Q113.5 267.5 112.5 270.0Q111.5 272.5 111.5 279.0Q111.5 289.0 116.5 289.0Q120.0 289.0 125.0 287.5Q149.0 281.5 150.75 279.0Q152.5 276.5 137.5 271.5ZM159.0 317.0Q159.0 303.0 157.25 296.75Q155.5 290.5 149.5 290.5Q143.0 290.5 126.0 299.0Q115.0 304.0 112.5 308.75Q110.0 313.5 110.0 324.0Q110.0 335.0 112.5 338.0Q115.0 341.0 127.5 344.0Q133.0 345.0 137.0 345.75Q141.0 346.5 144.5 346.5Q154.0 346.5 156.5 340.0Q159.0 333.5 159.0 317.0ZM158.5 249.0Q158.0 239.5 156.0 235.5Q154.0 231.5 148.5 231.5Q145.5 231.5 141.5 232.5Q137.5 233.5 132.0 235.0Q115.5 240.0 116.25 248.25Q117.0 256.5 134.0 261.5Q148.5 266.0 153.5 266.0Q158.0 266.0 158.75 262.25Q159.5 258.5 158.5 249.0ZM221.0 295.0Q221.0 288.5 217.0 287.25Q213.0 286.0 198.5 286.0Q188.5 286.0 180.75 286.5Q173.0 287.0 171.5 289.0Q170.5 290.0 169.25 299.25Q168.0 308.5 168.0 319.0V347.5H215.0L218.5 326.0Q219.0 316.5 220.0 307.5Q221.0 298.5 221.0 295.0ZM219.0 246.5Q217.5 235.5 216.0 231.0Q214.5 226.5 210.5 225.5Q206.5 224.5 197.5 224.5Q183.5 224.5 178.5 230.75Q173.5 237.0 173.5 258.0Q173.5 266.0 176.75 268.5Q180.0 271.0 193.0 273.5Q200.5 275.0 206.0 275.0Q216.5 275.0 219.0 268.5Q221.5 262.0 219.0 246.5ZM278.5 271.5 277.0 247.0Q276.0 232.5 274.0 227.0Q272.0 221.5 264.0 221.5Q260.0 221.5 251.5 223.0Q242.0 225.5 239.75 229.5Q237.5 233.5 236.5 249.0L234.5 271.5ZM478.0 222.5Q478.0 221.5 465.75 220.75Q453.5 220.0 433.25 219.5Q413.0 219.0 388.5 219.0Q339.0 219.0 319.75 220.5Q300.5 222.0 300.0 225.5Q298.5 227.5 297.25 234.75Q296.0 242.0 295.0 250.5L291.5 271.5H487.0L483.5 249.0Q482.0 239.5 480.75 232.0Q479.5 224.5 478.0 222.5ZM527.0 165.5Q529.5 160.0 524.75 158.75Q520.0 157.5 499.5 157.5H468.5L477.5 180.0Q480.5 189.5 485.25 207.25Q490.0 225.0 492.5 241.0L499.5 279.0L503.0 255.0Q504.5 244.5 508.5 228.0Q512.5 211.5 517.5 194.25Q522.5 177.0 527.0 165.5ZM84.5 104.0Q73.5 101.5 63.0 97.75Q52.5 94.0 49.0 93.0Q43.5 91.0 42.25 95.0Q41.0 99.0 41.0 116.5Q41.0 129.5 41.5 134.75Q42.0 140.0 44.5 140.0Q46.0 140.0 52.0 136.5Q56.0 134.0 65.5 130.0Q75.0 126.0 83.0 124.0Q106.5 118.0 107.0 114.25Q107.5 110.5 84.5 104.0ZM122.5 156.0Q121.5 154.5 116.0 153.75Q110.5 153.0 104.5 153.0H89.0L95.0 176.0Q98.5 184.0 100.5 194.0Q102.5 204.0 102.5 209.0Q102.5 217.0 103.25 217.75Q104.0 218.5 106.5 212.0Q112.0 199.5 115.75 186.75Q119.5 174.0 121.5 165.25Q123.5 156.5 122.5 156.0ZM148.5 185.5Q145.0 159.5 138.5 159.5Q132.5 159.5 126.0 181.5Q123.5 191.0 124.5 194.25Q125.5 197.5 133.5 200.0Q144.0 204.0 146.5 204.0Q149.5 204.0 149.5 199.75Q149.5 195.5 148.5 185.5ZM182.0 156.5Q182.5 154.5 177.75 153.75Q173.0 153.0 166.0 153.0Q155.0 153.0 152.5 154.25Q150.0 155.5 152.0 161.0Q153.5 164.5 156.0 175.0Q158.5 185.5 160.5 197.5L166.0 224.5L174.0 192.0Q177.5 179.0 179.75 168.25Q182.0 157.5 182.0 156.5ZM211.0 199.0Q211.0 197.0 209.75 190.75Q208.5 184.5 206.75 177.25Q205.0 170.0 202.75 164.5Q200.5 159.0 198.5 159.0Q197.0 159.0 194.0 165.0Q192.0 168.5 189.0 176.25Q186.0 184.0 184.0 192.0Q180.0 205.5 183.5 209.75Q187.0 214.0 202.0 214.0Q207.5 214.0 209.25 210.75Q211.0 207.5 211.0 199.0ZM242.0 161.0Q244.5 155.5 241.75 154.25Q239.0 153.0 228.0 153.0Q218.5 153.0 215.0 154.25Q211.5 155.5 213.0 159.0Q213.5 162.0 216.25 172.75Q219.0 183.5 221.0 196.5L227.5 226.5L233.0 198.0Q235.5 185.5 238.0 175.0Q240.5 164.5 242.0 161.0ZM268.0 180.0Q263.0 161.0 258.0 161.0Q254.0 161.0 247.5 180.0Q242.0 196.0 240.75 203.25Q239.5 210.5 243.25 212.25Q247.0 214.0 256.0 214.0Q270.5 214.0 272.25 208.25Q274.0 202.5 268.0 180.0ZM302.5 161.5Q304.0 154.5 287.5 154.0Q276.5 153.0 274.5 154.25Q272.5 155.5 275.0 163.0Q276.0 167.5 277.75 176.5Q279.5 185.5 280.5 194.5Q282.0 202.5 284.0 208.25Q286.0 214.0 287.0 214.0Q289.0 214.0 292.5 202.5Q296.0 191.0 302.5 161.5ZM197.5 80.0Q201.0 65.0 199.0 65.0Q197.0 65.0 186.5 76.0Q174.0 88.5 173.75 92.25Q173.5 96.0 184.0 94.5Q193.5 93.5 197.5 80.0ZM286.0 83.5Q291.5 68.0 290.0 68.0Q288.0 68.0 281.5 73.0Q275.0 78.0 269.25 83.5Q263.5 89.0 263.5 91.0Q263.5 95.0 272.5 97.5Q277.5 98.0 280.5 95.5Q283.5 93.0 286.0 83.5ZM307.5 127.0Q297.0 120.0 287.75 117.25Q278.5 114.5 262.5 114.5Q251.5 114.5 242.75 115.75Q234.0 117.0 233.0 118.0Q232.0 120.5 235.25 124.5Q238.5 128.5 243.5 133.0Q255.0 141.0 271.75 142.75Q288.5 144.5 302.5 144.5Q311.0 144.5 316.5 143.75Q322.0 143.0 322.5 142.0Q325.0 141.5 320.25 136.75Q315.5 132.0 307.5 127.0ZM485.0 132.5 484.5 117.5 400.0 116.0Q377.5 116.0 358.25 116.0Q339.0 116.0 327.5 116.25Q316.0 116.5 316.0 117.5Q316.0 118.0 321.0 123.25Q326.0 128.5 332.5 134.0Q347.5 148.0 347.75 152.25Q348.0 156.5 333.0 156.0Q325.0 156.0 320.25 158.0Q315.5 160.0 311.5 168.5Q309.5 174.0 306.5 182.25Q303.5 190.5 302.5 197.5L300.5 212.0H474.5L473.5 201.0Q473.0 193.5 469.0 183.25Q465.0 173.0 460.25 165.25Q455.5 157.5 452.5 157.5Q448.5 157.5 448.5 153.0Q448.5 150.5 454.5 149.5Q460.5 148.5 468.5 148.5Q482.0 148.5 484.25 146.0Q486.5 143.5 485.0 132.5ZM521.5 77.5Q524.0 74.0 518.5 73.25Q513.0 72.5 499.5 72.5H472.0L485.0 98.0Q496.0 120.5 497.5 120.5Q499.0 120.5 503.0 111.0Q504.5 105.5 507.25 99.5Q510.0 93.5 512.5 91.0Q515.0 88.5 517.75 84.5Q520.5 80.5 521.5 77.5ZM213.0 384.5Q220.0 383.5 216.5 375.0Q214.5 368.5 213.0 368.25Q211.5 368.0 207.5 373.5Q202.0 378.5 203.5 382.25Q205.0 386.0 213.0 384.5ZM263.5 356.5Q263.5 354.0 258.5 352.75Q253.5 351.5 247.0 351.5Q240.5 351.5 235.0 352.75Q229.5 354.0 228.0 356.5Q226.0 360.0 226.75 368.0Q227.5 376.0 230.0 383.0Q232.5 390.0 235.0 390.0Q237.5 390.0 244.5 383.0Q251.5 376.0 257.5 368.0Q263.5 360.0 263.5 356.5ZM278.5 343.0V281.0H256.0Q244.5 281.0 239.5 282.5Q234.5 284.0 232.5 291.5Q230.5 299.0 228.0 317.5L226.0 343.0ZM284.0 368.0Q281.0 361.5 276.5 361.5Q274.5 361.5 271.5 364.5Q267.0 368.5 268.75 372.0Q270.5 375.5 278.5 375.5Q286.5 375.5 284.0 368.0ZM207.5 42.0Q219.5 29.0 229.5 20.25Q239.5 11.5 240.5 11.0Q246.0 10.0 244.75 15.5Q243.5 21.0 236.5 29.5Q219.5 51.0 213.25 66.75Q207.0 82.5 209.5 94.0Q210.0 100.5 212.25 105.5Q214.5 110.5 217.5 110.5Q227.5 110.5 295.0 47.5Q323.0 20.5 329.0 20.5Q333.5 20.5 320.5 38.0Q317.0 43.0 311.75 52.75Q306.5 62.5 302.5 70.5Q296.5 82.5 295.5 89.25Q294.5 96.0 302.75 99.5Q311.0 103.0 332.0 105.0Q353.0 107.0 390.5 108.5Q431.0 110.0 449.5 110.0Q468.5 110.0 473.0 108.25Q477.5 106.5 477.5 103.0Q477.5 98.5 472.0 91.25Q466.5 84.0 459.5 78.25Q452.5 72.5 448.5 72.5Q447.5 72.5 445.5 70.75Q443.5 69.0 443.5 68.0Q443.5 65.0 461.0 63.5Q478.5 62.0 508.0 62.0Q537.5 62.0 555.0 63.5Q572.5 65.0 572.5 68.0Q572.5 69.0 567.75 70.75Q563.0 72.5 557.0 72.5Q543.5 72.5 529.5 85.75Q515.5 99.0 510.0 118.0Q506.5 133.0 506.5 139.5Q506.5 146.0 513.5 147.25Q520.5 148.5 537.5 148.5Q552.0 148.5 562.75 149.5Q573.5 150.5 574.0 153.0Q577.0 157.5 563.5 157.5Q558.0 157.5 551.5 160.0Q545.0 162.5 541.5 166.5Q532.5 176.5 523.75 209.25Q515.0 242.0 508.25 292.25Q501.5 342.5 497.5 406.0Q494.5 455.5 491.5 455.5Q489.5 455.5 488.0 433.0Q486.5 410.5 487.0 369.5L489.0 283.0L390.5 281.5L292.5 281.0L290.0 306.5Q288.0 317.0 288.0 326.25Q288.0 335.5 290.0 337.5Q291.0 339.5 316.0 341.25Q341.0 343.0 387.5 343.0Q432.5 343.0 457.0 344.0Q481.5 345.0 481.5 347.5Q481.5 349.5 456.75 350.75Q432.0 352.0 387.0 352.0H291.0L293.5 364.5Q297.5 378.0 305.5 383.0Q322.0 393.5 338.75 405.5Q355.5 417.5 366.75 426.75Q378.0 436.0 378.0 438.5Q378.0 441.0 376.5 441.0Q374.5 441.0 365.75 435.75Q357.0 430.5 336.5 416.5Q325.5 407.5 312.0 400.25Q298.5 393.0 291.5 390.0Q286.5 388.5 281.25 387.5Q276.0 386.5 271.0 386.5Q262.5 386.5 256.0 388.75Q249.5 391.0 249.5 395.0Q249.5 396.0 258.25 403.5Q267.0 411.0 280.0 420.5Q293.5 430.0 302.25 438.75Q311.0 447.5 311.0 451.0Q311.0 458.0 307.0 453.5Q304.5 450.0 294.5 442.25Q284.5 434.5 271.75 426.25Q259.0 418.0 248.5 412.25Q238.0 406.5 235.0 406.5Q231.5 408.5 226.0 402.0Q220.0 395.0 209.0 395.0Q194.5 395.0 179.0 406.5Q169.5 414.5 164.0 414.5Q160.5 414.5 161.75 410.75Q163.0 407.0 169.5 400.5Q173.5 397.5 180.75 389.75Q188.0 382.0 193.0 375.0L207.5 356.5L157.0 358.5Q123.0 359.5 100.0 363.75Q77.0 368.0 61.5 375.5Q46.0 383.0 34.0 395.5Q19.5 411.5 14.5 411.5Q10.0 411.5 16.5 399.0Q19.0 394.5 20.25 381.75Q21.5 369.0 21.0 351.5Q20.5 334.0 21.0 324.0Q21.5 314.0 23.5 314.0Q26.0 314.0 34.5 316.5Q43.0 319.0 52.5 323.0Q71.0 330.0 80.5 333.0Q90.0 336.0 93.5 336.0Q97.5 336.0 97.5 331.5Q97.5 324.0 94.0 324.0Q93.0 324.0 92.0 314.0Q91.0 304.0 90.75 287.25Q90.5 270.5 90.5 250.5Q90.5 221.0 89.75 204.5Q89.0 188.0 87.25 179.0Q85.5 170.0 81.5 164.0Q78.5 158.0 76.0 152.25Q73.5 146.5 73.5 145.5Q73.5 144.5 90.5 143.75Q107.5 143.0 132.0 144.0Q148.0 144.0 164.75 144.0Q181.5 144.0 195.5 143.75Q209.5 143.5 216.5 143.0H242.0L228.0 131.0Q220.5 125.0 215.0 122.75Q209.5 120.5 195.5 120.5Q190.0 120.5 182.25 120.75Q174.5 121.0 164.0 121.5Q131.5 123.0 109.25 127.0Q87.0 131.0 71.5 138.5Q56.0 146.0 43.0 158.0Q36.5 165.5 30.5 170.75Q24.5 176.0 23.5 176.0Q23.0 175.0 23.75 168.75Q24.5 162.5 26.5 154.5Q29.0 146.5 29.5 132.5Q30.0 118.5 29.0 105.5Q27.0 85.0 28.0 80.75Q29.0 76.5 34.0 78.5Q80.0 93.5 115.0 101.75Q150.0 110.0 166.5 110.0Q178.5 110.0 178.5 105.5Q178.5 103.5 172.75 102.0Q167.0 100.5 158.5 100.5H138.5L158.5 86.5Q167.0 80.5 181.0 67.5Q195.0 54.5 207.5 42.0Z" fill="black" /></svg>