<svg xmlns="http://www.w3.org/2000/svg" width="509.0" height="464.5" viewBox="0 0 509.0 464.5"><path d="M80.5 210.0Q84.0 201.5 85.75 195.75Q87.5 190.0 87.0 189.5Q85.5 189.5 78.0 197.0Q70.5 204.5 60.5 216.5Q49.5 228.5 43.0 237.5Q36.5 246.5 37.0 247.0Q38.0 248.5 43.75 249.5Q49.5 250.5 56.25 251.0Q63.0 251.5 65.5 251.5Q72.0 251.5 73.5 249.25Q75.0 247.0 74.0 241.0Q73.5 235.5 75.75 226.5Q78.0 217.5 80.5 210.0ZM189.0 292.5Q180.5 287.5 176.5 287.5Q173.0 287.5 173.0 297.0Q173.0 307.5 181.0 307.5Q186.5 307.5 192.5 303.5Q197.5 300.5 196.75 298.25Q196.0 296.0 189.0 292.5ZM194.5 245.5Q184.5 240.0 181.5 240.0Q177.5 240.0 177.5 250.0Q177.5 260.5 186.5 260.5Q191.0 260.5 198.0 256.5Q202.0 253.5 201.75 251.25Q201.5 249.0 194.5 245.5ZM214.5 199.0Q214.5 197.0 211.0 193.75Q207.5 190.5 202.0 188.5Q198.5 187.0 195.75 186.0Q193.0 185.0 191.5 185.0Q188.0 185.0 188.0 195.5Q188.0 203.5 189.75 206.0Q191.5 208.5 196.5 206.5Q200.5 205.0 204.25 204.0Q208.0 203.0 210.0 203.0Q214.5 203.0 214.5 199.0ZM279.0 95.0Q263.5 90.5 255.5 88.25Q247.5 86.0 240.5 85.5Q234.0 84.5 225.5 85.25Q217.0 86.0 202.0 87.0Q181.0 88.5 167.5 91.5Q154.0 94.5 145.75 100.5Q137.5 106.5 131.75 117.75Q126.0 129.0 119.5 147.5Q113.0 165.0 107.5 179.5Q102.0 194.0 99.5 196.5Q90.0 206.5 87.25 220.5Q84.5 234.5 88.5 248.0Q91.0 255.5 94.25 260.75Q97.5 266.0 99.5 266.0Q103.0 266.0 105.0 272.5Q105.0 276.0 112.75 283.75Q120.5 291.5 131.0 299.0Q141.5 306.5 149.75 310.75Q158.0 315.0 159.0 312.5Q160.0 310.0 161.75 296.25Q163.5 282.5 164.0 266.0Q166.0 250.0 167.5 238.0Q169.0 226.0 170.0 225.5Q172.0 225.5 179.0 227.5Q186.0 229.5 193.5 233.5Q203.5 238.5 219.75 241.75Q236.0 245.0 249.0 246.5L279.5 247.0L283.5 203.0H263.5Q255.5 203.0 243.25 204.75Q231.0 206.5 222.5 209.0Q214.0 211.0 204.0 213.5Q194.0 216.0 189.0 217.5L176.5 220.0L179.0 171.0Q181.5 151.5 182.75 136.25Q184.0 121.0 186.0 120.5Q188.0 120.5 193.25 122.75Q198.5 125.0 204.5 129.5Q214.5 135.0 226.5 138.5Q238.5 142.0 250.0 142.0Q257.0 142.0 257.0 137.5Q257.0 133.0 252.5 117.5Q251.5 113.5 252.5 112.0Q253.5 110.5 259.5 110.5Q263.0 110.5 268.75 111.0Q274.5 111.5 282.5 112.5Q288.0 113.0 292.25 113.25Q296.5 113.5 300.0 113.5Q316.5 113.5 311.0 108.25Q305.5 103.0 279.0 95.0ZM283.5 299.0 281.5 279.0Q280.0 264.5 277.75 261.0Q275.5 257.5 264.5 257.0Q254.0 257.0 240.25 258.75Q226.5 260.5 213.5 263.5Q200.5 266.5 191.75 270.0Q183.0 273.5 183.0 276.0Q183.0 281.0 202.25 286.25Q221.5 291.5 250.0 294.5ZM135.5 88.0Q135.5 86.5 132.0 83.5Q128.5 80.5 123.0 78.0L109.5 71.5V102.5Q110.0 126.5 111.5 126.5Q113.0 126.5 116.5 116.0Q120.0 109.0 123.75 103.25Q127.5 97.5 130.0 96.0Q135.5 92.5 135.5 88.0ZM214.5 147.5Q214.5 144.5 203.5 140.5Q198.5 137.5 196.5 137.5Q193.5 137.5 193.5 147.5Q193.5 158.5 196.5 158.5Q198.5 158.5 203.5 155.5Q214.5 151.5 214.5 147.5ZM272.5 169.5Q267.5 155.0 252.5 156.5Q244.0 156.5 232.5 158.5Q221.0 160.5 211.75 163.0Q202.5 165.5 200.0 167.5Q195.5 172.5 204.0 178.5Q212.5 184.5 228.25 188.75Q244.0 193.0 260.5 193.0Q274.5 193.0 276.25 189.0Q278.0 185.0 272.5 169.5ZM298.0 127.5Q297.5 127.0 292.5 125.25Q287.5 123.5 281.5 122.0Q269.0 119.5 267.0 125.75Q265.0 132.0 275.0 140.5Q279.0 144.0 282.5 144.0Q286.0 144.0 291.5 138.5Q295.0 135.0 297.0 132.0Q299.0 129.0 298.0 127.5ZM342.0 122.0Q334.5 118.5 329.5 116.25Q324.5 114.0 323.0 114.0Q322.5 114.0 317.5 120.5Q312.5 127.0 307.75 133.75Q303.0 140.5 303.0 142.0Q303.0 143.5 313.25 144.25Q323.5 145.0 337.5 145.0Q373.0 145.0 371.25 150.25Q369.5 155.5 334.0 156.5L296.0 158.5L294.0 175.0Q293.0 187.5 295.75 190.25Q298.5 193.0 312.5 193.0Q320.5 193.0 332.75 194.0Q345.0 195.0 353.0 197.5Q367.5 200.0 364.0 201.0Q360.5 202.0 334.0 203.0H293.5V250.0H332.0Q348.0 250.0 360.75 251.5Q373.5 253.0 375.0 255.5Q376.0 258.0 365.75 259.5Q355.5 261.0 336.0 261.0H293.5V296.0L336.5 299.0Q352.5 299.5 362.25 299.25Q372.0 299.0 380.0 297.0Q388.0 295.0 398.5 290.25Q409.0 285.5 425.5 277.0Q444.5 267.5 458.0 259.0Q471.5 250.5 471.5 248.0Q471.5 245.5 463.5 236.25Q455.5 227.0 442.25 213.5Q429.0 200.0 413.75 185.25Q398.5 170.5 384.0 157.0Q369.5 143.5 358.25 134.0Q347.0 124.5 342.0 122.0ZM336.0 108.5 332.0 97.0Q331.0 92.0 328.75 81.25Q326.5 70.5 325.0 60.5L322.0 36.0L289.5 55.0Q266.0 69.0 262.0 75.75Q258.0 82.5 271.5 82.5Q275.0 82.5 285.75 86.0Q296.5 89.5 308.5 95.0ZM261.5 386.0Q271.5 373.5 273.25 369.75Q275.0 366.0 269.0 367.0Q265.0 367.0 250.75 368.0Q236.5 369.0 221.0 370.5L182.0 373.0L199.0 394.0Q205.0 402.5 211.5 411.5Q218.0 420.5 220.0 423.0Q223.0 427.5 225.0 427.5Q227.5 427.5 234.5 418.5Q238.0 412.0 246.0 402.5Q254.0 393.0 261.5 386.0ZM317.0 25.5Q325.5 19.0 332.0 14.5Q338.5 10.0 338.5 10.0Q339.5 10.0 338.75 19.25Q338.0 28.5 336.5 41.5Q335.5 59.0 336.5 70.25Q337.5 81.5 341.5 88.5Q344.0 93.5 355.25 107.0Q366.5 120.5 382.75 138.25Q399.0 156.0 416.75 174.5Q434.5 193.0 450.5 209.0Q466.5 225.0 477.5 234.75Q488.5 244.5 490.5 244.5Q499.0 244.5 494.25 249.25Q489.5 254.0 467.75 266.25Q446.0 278.5 403.0 300.5Q372.5 316.0 353.5 326.5Q334.5 337.0 322.0 345.25Q309.5 353.5 299.75 362.5Q290.0 371.5 278.0 384.0Q263.0 399.5 250.5 415.5Q238.0 431.5 235.5 438.5Q232.0 445.0 229.0 449.75Q226.0 454.5 225.5 454.5Q224.0 454.5 221.0 449.75Q218.0 445.0 215.5 438.5Q212.0 431.5 203.25 418.5Q194.5 405.5 185.5 394.0Q169.5 374.5 165.0 365.75Q160.5 357.0 166.0 357.0Q169.0 357.0 173.5 358.5Q178.5 360.0 192.75 361.0Q207.0 362.0 221.5 362.0Q237.5 361.5 248.25 359.75Q259.0 358.0 272.25 352.5Q285.5 347.0 308.0 336.0L358.5 310.5L327.5 309.0Q296.0 307.5 292.5 314.0Q288.0 321.0 284.0 315.0Q276.5 305.0 256.5 305.0Q245.5 305.0 228.0 308.0Q191.5 314.5 177.25 320.0Q163.0 325.5 165.5 332.5Q169.0 342.0 161.5 337.5Q154.0 333.0 132.0 313.5Q104.5 287.5 81.25 274.5Q58.0 261.5 34.0 258.0L10.0 254.5L40.5 221.0Q59.0 201.5 70.25 189.0Q81.5 176.5 87.75 167.0Q94.0 157.5 96.25 148.5Q98.5 139.5 98.5 127.75Q98.5 116.0 97.5 98.5Q97.0 73.0 97.5 62.25Q98.0 51.5 102.5 51.5Q105.0 51.5 109.0 54.75Q113.0 58.0 119.5 63.5Q124.5 68.0 130.75 70.5Q137.0 73.0 147.75 74.25Q158.5 75.5 177.5 76.0Q194.0 76.5 204.25 76.5Q214.5 76.5 222.25 75.0Q230.0 73.5 238.5 69.75Q247.0 66.0 260.0 59.5Q274.5 52.5 291.25 42.25Q308.0 32.0 317.0 25.5Z" fill="black" /></svg>