<svg xmlns="http://www.w3.org/2000/svg" width="753.0" height="384.0" viewBox="0 0 753.0 384.0"><path d="M155.5 267.0 146.0 265.0Q124.5 260.5 116.0 260.5Q111.5 260.5 111.5 262.0Q111.5 263.0 115.25 268.75Q119.0 274.5 124.0 281.5L137.5 298.5L146.0 282.0ZM266.5 316.0Q264.0 316.0 259.0 314.0Q254.0 312.0 248.5 310.0L236.0 303.0V343.0L250.0 334.5Q263.0 327.5 268.0 321.75Q273.0 316.0 266.5 316.0ZM58.0 163.5Q58.0 156.5 54.5 156.5Q50.5 156.5 41.5 166.0L32.0 176.5L47.5 183.0Q59.5 188.5 61.25 188.25Q63.0 188.0 61.0 181.0Q60.0 177.0 59.0 172.0Q58.0 167.0 58.0 163.5ZM315.5 205.5Q316.5 200.5 310.0 200.5Q302.5 200.5 302.5 207.0Q302.5 212.5 307.5 212.5Q313.0 212.5 315.5 205.5ZM317.0 260.5Q317.0 255.5 311.5 254.5Q310.0 253.5 308.5 255.5Q307.0 257.5 307.0 260.5Q307.0 263.0 308.5 265.0Q310.0 267.0 311.5 266.5Q317.0 263.5 317.0 260.5ZM440.5 195.0Q440.5 194.5 438.25 189.25Q436.0 184.0 432.5 178.0L424.0 162.0L414.5 175.0Q410.0 180.0 407.5 184.25Q405.0 188.5 405.5 189.0Q406.5 190.0 411.75 191.25Q417.0 192.5 423.75 193.75Q430.5 195.0 435.5 195.5Q440.5 196.0 440.5 195.0ZM466.0 253.0Q467.0 251.0 460.0 250.5Q453.0 250.0 443.0 250.5L418.0 251.5V270.0Q418.0 278.0 418.75 283.5Q419.5 289.0 420.5 289.0Q422.0 289.0 428.75 284.25Q435.5 279.5 444.0 272.75Q452.5 266.0 459.0 260.25Q465.5 254.5 466.0 253.0ZM498.5 166.5Q498.5 166.0 493.75 165.25Q489.0 164.5 483.5 164.5Q471.5 164.5 470.0 166.25Q468.5 168.0 471.5 176.5Q473.0 182.0 474.5 187.25Q476.0 192.5 476.5 195.0Q477.5 197.0 478.5 197.0Q481.0 197.0 485.75 190.25Q490.5 183.5 494.5 176.0Q498.5 168.5 498.5 166.5ZM599.5 256.5 611.5 244.5H594.5Q583.5 244.5 581.25 246.0Q579.0 247.5 581.0 254.5Q584.5 266.0 587.0 266.0Q590.0 266.0 599.5 256.5ZM101.5 76.0Q99.0 76.0 95.0 75.0Q91.0 74.0 87.5 73.0Q80.5 70.5 80.5 77.5Q80.5 84.5 90.0 84.5Q96.0 84.5 102.5 80.5Q107.0 77.5 107.0 76.75Q107.0 76.0 101.5 76.0ZM146.0 178.5 157.0 171.0 138.5 163.5 120.5 157.0V176.5Q120.5 193.0 124.5 193.0Q128.5 193.0 146.0 178.5ZM209.5 70.5Q209.5 64.0 208.5 59.0Q207.5 54.0 206.0 54.0Q205.0 54.0 199.0 58.0Q193.0 62.0 185.5 67.5L169.0 82.0L185.5 87.0Q192.5 89.0 198.25 90.5Q204.0 92.0 206.0 91.0Q209.5 87.5 209.5 70.5ZM316.0 148.5Q316.0 147.0 309.5 147.0Q302.5 147.0 302.5 154.0Q302.5 159.0 304.0 159.25Q305.5 159.5 309.5 156.0Q312.0 153.5 314.0 151.25Q316.0 149.0 316.0 148.5ZM380.0 66.0 349.0 55.5Q336.5 51.0 324.0 45.25Q311.5 39.5 306.5 36.0L294.5 27.0L287.0 48.0Q283.0 57.0 280.5 64.0Q278.0 71.0 277.0 72.0Q276.5 73.5 289.0 73.5Q301.0 73.5 321.0 72.0Q341.0 70.5 359.5 68.5ZM510.5 132.0Q511.5 131.0 509.25 125.75Q507.0 120.5 503.5 114.0L496.0 98.5L485.5 112.5L476.0 127.0L491.5 130.5Q499.0 131.5 504.5 132.0Q510.0 132.5 510.5 132.0ZM553.0 242.5Q549.5 239.5 550.75 238.25Q552.0 237.0 561.75 236.5Q571.5 236.0 593.0 235.5Q614.5 235.5 627.25 237.0Q640.0 238.5 640.0 240.0Q640.0 244.5 634.0 244.5Q632.0 244.5 624.25 249.25Q616.5 254.0 608.0 261.0L587.0 278.5V325.5Q587.0 347.0 586.0 360.5Q585.0 374.0 582.5 374.0Q580.5 374.0 579.25 360.25Q578.0 346.5 578.0 325.0Q578.0 291.5 574.25 270.25Q570.5 249.0 565.0 249.0Q564.0 249.0 560.5 247.0Q557.0 245.0 553.0 242.5ZM284.5 20.5Q284.5 10.0 288.5 10.0Q292.5 10.0 302.0 19.5Q313.5 32.0 341.25 42.75Q369.0 53.5 425.0 67.0Q453.5 74.0 467.75 77.0Q482.0 80.0 489.0 80.0Q493.0 80.0 495.5 79.0Q498.0 78.0 500.0 76.5Q504.5 72.0 506.0 72.0Q507.5 72.0 509.0 81.0Q509.0 83.0 516.0 86.0Q523.0 89.0 541.25 93.75Q559.5 98.5 593.25 106.5Q627.0 114.5 681.5 127.0Q703.5 132.0 718.0 136.5Q732.5 141.0 731.0 142.5Q730.0 143.5 714.75 141.25Q699.5 139.0 675.5 134.0Q651.5 129.0 623.0 122.5Q594.0 115.5 569.5 110.25Q545.0 105.0 529.5 101.75Q514.0 98.5 512.5 98.5Q504.5 98.5 514.5 113.75Q524.5 129.0 552.5 158.5L592.0 199.5L655.0 178.5Q697.0 164.5 715.5 158.75Q734.0 153.0 739.5 153.0Q743.0 153.0 743.0 155.5Q743.0 156.5 733.25 160.75Q723.5 165.0 707.25 170.75Q691.0 176.5 671.5 183.0Q645.5 192.0 631.25 197.0Q617.0 202.0 611.0 205.0Q605.0 208.0 605.0 210.25Q605.0 212.5 607.0 216.0Q611.0 222.0 611.25 225.5Q611.5 229.0 609.5 229.0Q606.5 229.0 602.0 222.0Q595.0 214.0 587.0 214.0Q582.0 214.0 569.25 217.25Q556.5 220.5 542.0 225.25Q527.5 230.0 516.75 234.5Q506.0 239.0 504.5 241.0Q503.5 242.5 508.75 250.25Q514.0 258.0 522.5 267.0Q531.5 275.5 536.5 282.5Q541.5 289.5 539.5 290.5Q539.5 290.5 539.25 290.75Q539.0 291.0 538.5 291.0Q536.0 291.0 529.0 285.25Q522.0 279.5 513.5 271.5Q503.5 261.5 498.75 257.25Q494.0 253.0 490.5 253.0Q487.5 253.0 484.0 256.5Q481.0 259.5 479.25 264.75Q477.5 270.0 476.75 281.5Q476.0 293.0 476.0 314.5Q476.0 337.5 475.0 351.25Q474.0 365.0 471.5 365.0Q469.5 365.0 468.25 351.25Q467.0 337.5 467.0 315.0V266.5L448.0 280.5Q440.0 287.0 434.25 291.25Q428.5 295.5 428.0 296.5Q426.0 298.5 425.0 308.5Q424.5 312.0 423.0 314.0Q421.5 316.0 415.5 316.75Q409.5 317.5 395.5 317.75Q381.5 318.0 356.0 318.0H287.0L260.5 337.5Q250.0 345.5 241.75 353.75Q233.5 362.0 233.0 365.5Q232.0 369.0 230.25 371.5Q228.5 374.0 227.0 374.0Q225.5 374.0 225.0 365.0Q224.5 356.0 224.75 342.5Q225.0 329.0 225.75 315.25Q226.5 301.5 227.75 291.5Q229.0 281.5 230.0 280.5Q230.0 280.5 230.25 280.5Q230.5 280.5 230.5 280.5Q232.0 280.5 235.25 283.5Q238.5 286.5 242.0 291.0Q247.0 297.0 251.5 300.0Q256.0 303.0 264.5 304.5Q273.0 306.0 290.0 307.5Q300.0 308.0 314.0 308.75Q328.0 309.5 342.75 310.0Q357.5 310.5 368.5 310.5L410.0 311.5L409.0 277.0V239.5Q409.0 238.5 412.5 238.5Q416.0 238.5 421.0 240.0Q425.5 242.0 434.0 242.5Q442.5 243.0 449.5 242.5Q460.5 240.5 463.75 237.75Q467.0 235.0 467.0 229.0Q467.0 205.0 425.0 205.0Q391.5 204.5 372.5 204.5Q353.5 204.5 344.0 205.25Q334.5 206.0 329.75 208.75Q325.0 211.5 320.0 216.0Q301.5 234.0 311.5 241.75Q321.5 249.5 362.0 249.0Q384.0 248.5 393.5 248.75Q403.0 249.0 403.25 250.0Q403.5 251.0 398.0 253.5Q394.5 255.5 383.25 256.5Q372.0 257.5 360.5 257.5Q347.5 257.5 340.5 258.5Q333.5 259.5 329.25 262.25Q325.0 265.0 319.0 271.5Q314.0 277.0 310.5 282.5Q307.0 288.0 307.0 289.5Q307.0 293.5 303.5 293.5Q301.5 293.5 299.5 277.0Q297.5 260.5 296.0 236.5Q295.0 213.0 292.5 195.0Q290.0 177.0 288.5 174.0Q286.5 171.5 272.25 170.25Q258.0 169.0 229.0 169.0H174.5L149.5 187.5Q139.5 195.0 131.5 202.75Q123.5 210.5 122.5 214.0Q119.5 223.0 117.5 223.0Q111.5 223.0 111.5 178.0Q111.5 160.0 112.0 146.75Q112.5 133.5 113.5 133.5Q114.5 133.5 118.5 137.0Q122.5 140.5 127.0 145.5Q131.0 150.5 134.25 153.0Q137.5 155.5 144.25 156.75Q151.0 158.0 164.75 158.5Q178.5 159.0 203.0 159.0Q216.0 159.5 225.75 159.75Q235.5 160.0 242.5 160.0Q268.0 160.0 261.75 153.0Q255.5 146.0 224.0 121.5Q208.5 110.0 200.0 104.5Q191.5 99.0 184.75 97.25Q178.0 95.5 167.0 95.5Q157.0 95.5 149.0 94.5Q141.0 93.5 140.0 92.5Q138.0 90.5 133.5 90.0Q129.0 89.5 123.5 89.5Q114.5 89.5 105.5 91.25Q96.5 93.0 95.0 96.0Q90.5 103.5 86.5 102.0Q84.5 102.0 81.0 109.25Q77.5 116.5 74.0 127.5Q68.5 144.0 67.5 152.75Q66.5 161.5 69.5 175.5Q71.5 185.0 74.25 191.25Q77.0 197.5 84.75 204.25Q92.5 211.0 108.5 223.0Q134.5 243.0 149.75 250.75Q165.0 258.5 171.5 256.5Q174.0 255.5 190.5 244.5Q207.0 233.5 228.5 218.5Q250.0 204.0 266.5 193.25Q283.0 182.5 284.5 182.5Q293.0 182.5 283.0 191.0Q273.0 199.5 236.0 224.5Q199.5 248.5 180.25 263.5Q161.0 278.5 154.0 288.75Q147.0 299.0 146.5 310.0V327.0L137.0 314.5Q133.0 309.0 123.75 296.5Q114.5 284.0 106.0 272.5Q97.0 260.5 91.25 251.75Q85.5 243.0 86.0 242.5Q87.0 241.5 92.5 242.75Q98.0 244.0 104.5 247.0Q118.5 252.5 123.0 252.5Q133.5 252.5 92.5 223.5Q62.0 201.5 47.0 193.75Q32.0 186.0 20.5 187.5Q10.0 189.5 13.25 183.0Q16.5 176.5 35.5 158.5Q61.5 133.5 69.25 109.5Q77.0 85.5 64.0 67.5Q55.5 54.5 62.5 54.5Q65.5 54.5 70.0 57.0Q73.5 59.0 87.25 63.25Q101.0 67.5 116.5 71.5L156.5 82.0L189.5 53.5Q219.0 29.0 225.0 29.0Q228.5 29.0 223.0 39.0Q221.0 43.0 219.25 53.25Q217.5 63.5 216.5 75.0L215.0 102.0L251.0 131.5Q265.5 143.0 277.25 151.75Q289.0 160.5 290.5 160.5Q291.5 160.5 292.5 155.25Q293.5 150.0 293.5 142.5Q293.5 125.0 299.0 125.0Q302.0 125.0 307.0 131.5Q310.5 135.0 321.0 136.5Q331.5 138.0 356.5 138.0Q376.5 138.0 388.25 139.0Q400.0 140.0 400.0 142.5Q400.0 144.5 390.5 145.75Q381.0 147.0 365.5 147.0Q349.5 147.0 341.5 147.75Q333.5 148.5 329.25 151.0Q325.0 153.5 319.0 159.0Q309.0 170.0 307.5 180.0Q306.0 190.0 314.0 193.0Q317.5 194.0 329.0 195.0Q340.5 196.0 354.5 196.0H387.5L407.5 168.0Q416.0 156.5 423.25 148.0Q430.5 139.5 431.5 139.0Q433.5 138.0 434.75 141.75Q436.0 145.5 436.0 151.5Q436.0 163.5 442.0 176.0Q448.0 188.5 458.0 197.5Q464.5 204.0 465.5 204.0Q467.0 204.0 467.0 195.0Q467.0 190.0 464.5 183.5Q462.0 177.0 458.0 172.5Q454.5 167.5 452.0 163.5Q449.5 159.5 449.5 158.5Q449.5 157.5 460.0 156.75Q470.5 156.0 485.0 156.0Q534.5 156.0 514.0 168.0Q510.0 170.0 504.25 178.0Q498.5 186.0 493.25 195.75Q488.0 205.5 485.0 213.5Q482.0 221.5 483.5 224.5Q484.0 227.0 485.75 229.0Q487.5 231.0 488.5 231.0Q489.5 231.0 504.0 227.0Q518.5 223.0 537.5 217.0L583.0 202.5L553.0 173.5Q539.0 159.0 531.5 152.5Q524.0 146.0 517.0 143.75Q510.0 141.5 497.5 140.5Q487.0 139.0 480.0 139.0Q469.0 139.0 466.0 142.0Q461.0 147.0 457.0 147.0Q446.0 147.0 472.0 115.0Q479.5 106.0 484.5 99.0Q489.5 92.0 488.5 91.5Q488.0 91.5 477.5 88.75Q467.0 86.0 452.5 82.5Q438.0 79.5 426.0 78.0Q414.0 76.5 397.5 76.5Q386.5 76.5 370.0 77.0Q353.5 77.5 335.75 78.75Q318.0 80.0 302.5 82.0Q287.0 84.0 278.0 87.0Q272.5 89.0 267.5 90.25Q262.5 91.5 260.5 91.5Q260.0 91.5 260.0 91.5Q260.0 91.5 260.0 91.5Q259.0 91.0 262.25 82.25Q265.5 73.5 272.0 61.0Q277.0 48.5 280.75 36.75Q284.5 25.0 284.5 20.5Z" fill="black" /></svg>