<svg xmlns="http://www.w3.org/2000/svg" width="412.0" height="381.5" viewBox="0 0 412.0 381.5"><path d="M216.5 301.5Q224.5 292.5 229.75 285.75Q235.0 279.0 234.5 279.0Q234.0 279.0 226.5 282.0Q219.0 285.0 209.0 289.0Q199.5 292.5 189.0 295.5Q178.5 298.5 174.0 298.5Q163.0 298.5 162.75 302.5Q162.5 306.5 171.5 327.0L181.5 348.0L189.0 337.0Q191.5 332.5 199.5 321.75Q207.5 311.0 216.5 301.5ZM75.5 228.0Q76.5 227.5 74.0 221.75Q71.5 216.0 67.5 208.0L57.5 189.0L33.0 220.0L54.0 224.5Q61.5 225.5 67.25 226.75Q73.0 228.0 75.0 228.0Q75.5 228.0 75.5 228.0Q75.5 228.0 75.5 228.0ZM87.5 113.5Q87.5 113.5 80.75 112.5Q74.0 111.5 64.5 110.5L41.0 109.0L61.5 145.0L75.0 129.0Q80.5 123.0 84.0 118.25Q87.5 113.5 87.5 113.5ZM258.0 88.0Q235.0 76.5 216.0 70.0Q197.0 63.5 188.0 63.5Q182.5 63.5 182.0 65.5Q181.5 67.0 171.5 72.75Q161.5 78.5 148.5 85.5Q135.0 92.0 119.0 103.0Q103.0 114.0 94.5 122.5Q83.5 132.0 78.75 137.5Q74.0 143.0 72.75 149.25Q71.5 155.5 70.5 167.5Q69.5 182.5 70.75 191.0Q72.0 199.5 76.5 209.5Q82.0 219.0 93.25 233.0Q104.5 247.0 117.75 259.75Q131.0 272.5 141.5 280.0Q148.5 285.0 155.25 287.5Q162.0 290.0 170.0 290.0Q182.0 290.0 198.5 284.0Q215.0 278.0 240.5 265.5Q252.5 259.5 270.75 249.0Q289.0 238.5 309.0 226.5Q329.0 214.5 346.5 203.25Q364.0 192.0 375.0 184.25Q386.0 176.5 386.0 175.0Q386.0 173.0 376.25 165.0Q366.5 157.0 351.0 146.25Q335.5 135.5 318.0 124.0Q300.5 112.5 284.5 102.75Q268.5 93.0 258.0 88.0ZM248.0 42.0Q246.0 35.5 243.5 31.25Q241.0 27.0 240.0 27.0Q238.5 27.0 232.5 31.0Q226.5 35.0 219.75 40.25Q213.0 45.5 208.0 50.0Q203.0 54.5 203.0 55.5Q203.0 57.5 205.5 58.5Q208.0 59.5 210.5 59.5Q214.0 59.5 224.5 62.75Q235.0 66.0 246.0 71.5L273.0 83.5L264.0 70.5Q260.5 65.0 255.75 56.75Q251.0 48.5 248.0 42.0ZM227.0 24.0Q243.0 10.0 247.5 10.0Q252.0 10.0 252.0 21.0Q252.0 33.5 262.25 51.25Q272.5 69.0 289.75 87.0Q307.0 105.0 328.5 119.5Q340.0 128.5 355.25 139.5Q370.5 150.5 379.5 158.5L402.0 176.5L360.0 205.0Q349.0 212.5 336.75 220.5Q324.5 228.5 314.25 234.75Q304.0 241.0 298.5 244.0Q283.0 253.0 265.0 267.75Q247.0 282.5 230.5 299.75Q214.0 317.0 202.0 333.0Q190.0 349.0 186.0 361.0Q182.5 371.5 179.0 371.5Q175.5 371.5 173.0 358.0Q168.5 333.5 156.0 314.0Q143.5 294.5 120.0 273.0Q94.5 250.0 72.75 239.5Q51.0 229.0 30.5 229.5Q24.0 230.0 18.0 230.25Q12.0 230.5 11.0 230.5Q10.0 229.5 16.75 221.5Q23.5 213.5 34.5 202.5Q45.0 191.0 52.75 181.25Q60.5 171.5 60.5 169.0Q60.5 166.5 55.25 154.5Q50.0 142.5 42.5 128.5Q34.5 114.0 29.75 103.75Q25.0 93.5 25.5 93.0Q26.0 92.0 31.0 93.75Q36.0 95.5 42.5 98.5Q49.0 100.5 55.5 102.0Q62.0 103.5 69.5 103.5Q98.0 103.5 136.5 83.5Q150.0 76.0 160.25 69.75Q170.5 63.5 172.5 61.5Q174.0 60.0 180.0 56.25Q186.0 52.5 192.5 49.0Q199.5 45.5 209.25 38.0Q219.0 30.5 227.0 24.0Z" fill="black" /></svg>