<svg xmlns="http://www.w3.org/2000/svg" width="460.5" height="421.5" viewBox="0 0 460.5 421.5"><path d="M208.5 349.0Q206.5 346.0 197.0 343.75Q187.5 341.5 183.5 341.5Q178.5 341.5 180.0 347.5Q181.0 349.5 182.75 356.0Q184.5 362.5 185.0 369.0L187.0 383.5L204.5 370.5Q212.0 365.0 219.75 360.0Q227.5 355.0 231.0 354.0Q234.0 353.0 236.75 351.0Q239.5 349.0 239.5 347.5Q239.5 344.0 237.0 344.0Q235.0 344.0 224.5 348.0Q220.0 350.0 214.5 350.0Q211.5 350.0 208.5 349.0ZM83.0 259.0Q100.0 247.0 106.5 241.75Q113.0 236.5 109.5 236.5Q106.0 236.5 86.5 243.5Q78.0 246.5 67.25 249.0Q56.5 251.5 49.5 252.0Q34.0 252.0 31.5 255.5Q30.0 257.5 32.0 266.5Q34.0 275.5 37.25 283.75Q40.5 292.0 42.0 292.0Q44.0 292.0 48.0 287.0Q49.0 285.0 59.25 276.75Q69.5 268.5 83.0 259.0ZM190.5 260.0Q190.5 250.0 189.5 247.0Q188.5 244.0 184.0 244.0Q183.5 244.0 183.0 244.0Q182.5 244.0 181.5 244.0Q165.5 244.5 164.0 247.25Q162.5 250.0 173.5 261.5Q179.0 266.5 183.5 271.0Q188.0 275.5 188.5 275.5Q189.5 275.5 190.0 270.75Q190.5 266.0 190.5 260.0ZM216.0 255.5Q206.5 248.0 203.0 248.0Q199.5 248.0 197.0 258.5Q195.0 265.5 196.25 277.25Q197.5 289.0 200.5 301.25Q203.5 313.5 207.75 323.5Q212.0 333.5 216.0 336.5Q218.0 337.5 225.5 337.5Q234.5 337.5 245.25 336.5Q256.0 335.5 258.0 334.0Q259.0 333.0 256.0 325.5Q253.0 318.0 247.75 307.25Q242.5 296.5 236.0 285.5Q229.5 274.5 224.25 266.0Q219.0 257.5 216.0 255.5ZM239.5 237.5Q239.5 231.5 235.5 231.5Q233.5 231.5 227.5 234.0Q223.0 236.0 225.0 239.75Q227.0 243.5 233.0 243.5Q239.5 243.5 239.5 237.5ZM235.0 257.0Q230.5 251.5 228.5 251.5Q227.0 251.5 229.5 257.0Q231.0 259.5 232.5 261.25Q234.0 263.0 236.0 263.0Q237.5 263.0 237.5 261.0Q237.5 259.0 235.0 257.0ZM290.5 235.0Q290.5 221.5 289.0 218.5Q287.5 215.5 282.0 215.5Q265.0 216.5 263.0 219.25Q261.0 222.0 271.0 233.5Q275.5 240.0 279.0 244.75Q282.5 249.5 282.5 251.5Q282.5 255.5 287.0 255.5Q288.5 255.5 289.5 249.25Q290.5 243.0 290.5 235.0ZM269.0 243.5Q257.5 227.5 253.0 227.5Q246.5 227.5 246.5 260.0Q246.5 274.5 248.75 285.75Q251.0 297.0 256.5 309.5Q262.0 321.5 266.5 326.75Q271.0 332.0 277.5 332.0Q281.5 332.0 285.75 330.5Q290.0 329.0 296.0 326.5L307.0 321.5L292.5 290.0Q286.5 277.0 279.75 263.25Q273.0 249.5 269.0 243.5ZM70.0 114.5Q66.5 107.0 63.0 107.0Q59.0 107.0 50.0 118.5Q43.5 126.5 43.5 128.75Q43.5 131.0 48.5 133.5Q52.0 134.0 61.5 138.25Q71.0 142.5 81.5 146.5L107.5 159.5L91.0 141.0Q84.5 133.0 78.25 125.5Q72.0 118.0 70.0 114.5ZM164.0 96.5 170.5 86.5H141.0L148.5 95.5Q152.0 99.0 154.5 102.0Q157.0 105.0 157.0 105.5Q157.5 106.0 159.5 103.25Q161.5 100.5 164.0 96.5ZM205.0 156.5Q205.0 138.0 202.25 124.25Q199.5 110.5 187.0 96.5Q182.5 92.0 179.5 92.0Q177.5 92.0 172.0 98.0Q167.5 103.0 166.5 112.25Q165.5 121.5 165.5 146.5Q165.5 187.5 160.5 187.5Q158.5 187.5 165.5 194.0Q172.0 198.0 175.5 198.0Q180.5 198.0 190.0 192.5L204.5 184.5ZM212.0 96.5 218.5 86.5H190.5L197.0 96.5Q199.5 100.5 202.0 103.5Q204.5 106.5 204.5 106.5Q205.0 106.5 207.25 103.5Q209.5 100.5 212.0 96.5ZM278.0 140.0Q280.0 134.5 281.0 130.75Q282.0 127.0 281.0 127.0Q280.5 127.0 276.25 131.25Q272.0 135.5 267.25 141.0Q262.5 146.5 259.0 151.0Q255.5 155.5 256.0 156.5Q257.5 158.0 260.0 158.0Q264.5 158.0 270.25 152.75Q276.0 147.5 278.0 140.0ZM357.0 211.0Q364.0 204.0 367.5 199.75Q371.0 195.5 369.5 195.5Q367.5 195.5 362.75 196.25Q358.0 197.0 353.0 198.0Q345.5 198.5 343.25 200.25Q341.0 202.0 342.0 205.5Q343.5 211.0 340.0 211.0Q336.5 211.0 335.75 217.0Q335.0 223.0 338.5 225.5Q340.5 225.5 345.75 221.0Q351.0 216.5 357.0 211.0ZM347.0 72.5Q349.0 67.5 350.25 64.25Q351.5 61.0 350.5 60.5Q350.5 60.5 350.5 60.5Q350.5 60.5 350.0 60.5Q348.5 60.5 343.25 65.25Q338.0 70.0 331.5 77.0Q320.5 87.0 318.75 91.0Q317.0 95.0 322.0 95.0Q324.5 95.0 330.0 95.5Q335.5 96.0 339.0 97.0Q345.0 98.5 346.25 97.5Q347.5 96.5 345.5 91.5Q342.5 83.0 347.0 72.5ZM375.0 14.0Q375.0 10.0 379.5 12.5Q382.0 14.0 380.5 18.0Q379.0 22.0 375.0 29.5Q358.5 59.0 354.25 78.5Q350.0 98.0 359.5 98.0Q363.5 98.0 363.5 103.5Q363.5 106.0 369.75 111.25Q376.0 116.5 385.0 122.0Q405.0 133.5 415.25 141.75Q425.5 150.0 423.0 152.5Q421.5 154.0 414.0 150.0Q406.5 146.0 396.5 139.5Q372.0 123.5 350.5 113.25Q329.0 103.0 316.0 103.0Q306.5 103.0 302.0 107.25Q297.5 111.5 293.5 120.0Q287.0 134.0 286.25 145.0Q285.5 156.0 290.5 158.0Q294.5 159.5 292.5 164.0Q291.5 167.5 296.75 171.5Q302.0 175.5 308.75 177.5Q315.5 179.5 318.5 177.5Q322.0 175.5 324.0 180.5Q327.5 190.0 345.5 190.0Q360.5 190.0 381.0 183.25Q401.5 176.5 421.0 165.0Q431.0 159.5 439.0 155.75Q447.0 152.0 449.0 153.0Q450.5 154.0 440.75 161.75Q431.0 169.5 416.5 178.0Q395.5 190.5 379.0 204.0Q362.5 217.5 352.75 229.25Q343.0 241.0 343.0 249.0Q343.0 253.5 342.0 256.75Q341.0 260.0 339.0 260.0Q336.5 260.0 334.25 252.0Q332.0 244.0 329.0 222.0Q327.5 210.5 324.25 203.75Q321.0 197.0 313.0 191.25Q305.0 185.5 289.0 177.5L266.0 166.0L224.5 185.5Q205.0 194.5 196.5 198.75Q188.0 203.0 187.0 205.25Q186.0 207.5 188.5 211.0Q195.0 219.5 207.0 221.0Q212.0 221.5 214.75 224.0Q217.5 226.5 216.5 227.5Q215.5 228.5 218.5 228.75Q221.5 229.0 226.0 227.0Q231.5 225.0 234.5 222.25Q237.5 219.5 236.5 217.5Q235.5 214.5 241.0 212.75Q246.5 211.0 261.5 210.5Q272.5 209.5 281.5 207.0Q290.5 204.5 292.5 202.5Q293.5 201.0 297.75 200.0Q302.0 199.0 305.5 199.0Q310.5 199.0 310.25 200.0Q310.0 201.0 306.0 206.0Q292.0 222.0 299.0 267.0Q301.5 283.0 305.75 298.25Q310.0 313.5 313.5 319.5Q313.5 319.5 319.0 317.5Q324.5 315.5 331.5 313.5Q346.5 308.0 352.0 308.0Q355.5 308.0 355.5 311.5Q355.5 313.0 350.75 315.25Q346.0 317.5 339.0 320.0Q325.0 324.0 322.0 328.75Q319.0 333.5 322.5 344.5Q327.0 356.0 322.5 356.0Q321.0 356.0 319.0 352.5Q317.0 349.0 315.0 344.0Q313.5 339.0 311.0 335.25Q308.5 331.5 307.5 331.5Q305.5 331.5 297.5 334.25Q289.5 337.0 278.75 341.0Q268.0 345.0 258.25 349.25Q248.5 353.5 243.0 356.0Q223.0 366.0 208.0 378.75Q193.0 391.5 190.0 400.5Q186.5 411.5 183.5 411.5Q180.0 411.5 177.0 381.0Q176.0 365.5 173.25 355.75Q170.5 346.0 167.0 341.0Q161.5 333.0 161.0 327.5Q160.5 322.0 163.5 322.0Q166.0 322.0 170.0 326.0Q175.0 329.5 183.5 332.5Q192.0 335.5 197.5 335.5Q203.0 335.5 203.0 332.5Q203.0 330.5 199.5 321.5Q196.0 312.5 190.5 301.5Q184.0 288.0 175.25 276.75Q166.5 265.5 157.5 258.5Q148.5 251.5 142.0 251.5Q132.0 251.5 134.75 247.75Q137.5 244.0 149.0 242.0Q166.0 239.0 180.25 234.25Q194.5 229.5 194.5 227.5Q194.5 225.5 190.5 222.0Q186.5 218.5 181.75 215.5Q177.0 212.5 174.5 212.5Q170.0 212.5 157.75 219.25Q145.5 226.0 129.5 236.75Q113.5 247.5 96.5 260.25Q79.5 273.0 64.5 285.25Q49.5 297.5 39.75 306.75Q30.0 316.0 28.5 320.0Q27.5 323.5 26.0 323.75Q24.5 324.0 21.5 321.0Q18.0 317.5 18.25 315.25Q18.5 313.0 23.5 308.0Q29.0 302.0 29.25 296.75Q29.5 291.5 26.5 275.5Q24.5 265.0 22.0 256.25Q19.5 247.5 18.5 245.5Q17.0 243.0 21.25 242.25Q25.5 241.5 37.0 242.5Q45.5 243.5 57.5 242.0Q69.5 240.5 80.0 237.5Q91.5 234.0 105.5 229.0Q119.5 224.0 132.5 218.5Q145.5 213.0 154.0 209.0Q162.5 205.0 162.5 204.0Q162.5 202.5 154.25 196.75Q146.0 191.0 132.75 183.5Q119.5 176.0 104.75 168.25Q90.0 160.5 76.5 154.5Q65.0 149.0 52.0 144.75Q39.0 140.5 31.5 139.5Q16.5 138.5 13.25 132.75Q10.0 127.0 23.5 127.0Q39.0 127.0 56.0 99.0Q63.0 87.0 66.0 87.0Q68.5 87.0 71.0 97.0Q72.0 102.0 77.0 110.5Q82.0 119.0 88.0 126.5Q94.0 134.0 104.25 143.5Q114.5 153.0 125.25 162.0Q136.0 171.0 144.25 177.0Q152.5 183.0 155.0 183.0Q156.5 183.0 157.5 174.25Q158.5 165.5 158.5 153.0Q158.5 131.0 153.0 117.0Q147.5 103.0 132.5 87.0Q129.5 83.5 128.0 81.0Q126.5 78.5 128.5 78.5Q132.5 78.0 144.75 78.0Q157.0 78.0 172.5 78.25Q188.0 78.5 202.75 78.75Q217.5 79.0 227.5 79.25Q237.5 79.5 238.0 80.0Q239.0 80.5 235.25 84.5Q231.5 88.5 226.0 94.0Q220.0 99.5 217.0 103.75Q214.0 108.0 213.0 115.25Q212.0 122.5 211.0 138.5Q210.0 160.0 211.75 168.75Q213.5 177.5 219.0 177.5Q221.0 177.5 223.25 176.5Q225.5 175.5 228.5 174.0Q239.0 167.5 235.0 165.0Q230.5 162.5 252.5 143.0Q262.0 134.5 272.5 122.25Q283.0 110.0 289.5 102.0Q295.5 94.0 301.5 88.25Q307.5 82.5 309.0 82.5Q311.0 82.5 318.0 76.0Q325.0 69.5 334.75 60.0Q344.5 50.5 353.75 40.5Q363.0 30.5 369.0 23.0Q375.0 15.5 375.0 14.0Z" fill="black" /></svg>