<svg xmlns="http://www.w3.org/2000/svg" width="577.0" height="465.0" viewBox="0 0 577.0 465.0"><path d="M65.5 291.5Q65.5 288.0 63.0 289.5Q60.5 291.0 57.5 295.0Q56.5 298.0 56.75 298.5Q57.0 299.0 59.5 297.5Q65.5 293.5 65.5 291.5ZM89.0 335.0Q91.0 329.5 83.5 329.5Q75.5 329.5 76.5 335.0Q77.5 336.5 79.25 338.5Q81.0 340.5 83.5 340.5Q85.0 340.5 86.75 338.5Q88.5 336.5 89.0 335.0ZM175.5 250.0Q169.0 247.5 162.5 245.75Q156.0 244.0 153.5 244.0Q150.0 244.0 139.25 250.0Q128.5 256.0 115.5 265.25Q102.5 274.5 91.0 283.75Q79.5 293.0 74.0 299.5L59.5 316.5L71.5 319.0Q76.5 319.5 86.0 317.5Q95.5 315.5 103.5 312.0Q113.0 308.0 127.5 300.0Q142.0 292.0 156.5 283.25Q171.0 274.5 180.75 267.75Q190.5 261.0 190.5 259.5Q190.5 257.5 186.0 254.5Q181.5 251.5 175.5 250.0ZM63.5 143.5Q65.0 139.0 61.75 137.25Q58.5 135.5 48.5 135.5Q38.0 135.0 34.0 136.0Q30.0 137.0 31.5 143.5Q33.0 150.0 38.5 165.5L47.0 190.0L54.0 170.5Q56.5 162.0 59.5 154.5Q62.5 147.0 63.5 143.5ZM85.5 166.5Q85.5 159.0 80.0 159.0Q77.0 159.0 74.0 162.0Q71.5 164.5 74.0 169.25Q76.5 174.0 81.0 174.0Q83.5 174.0 84.5 171.5Q85.5 169.0 85.5 166.5ZM136.0 239.0Q136.0 235.5 128.25 226.25Q120.5 217.0 109.0 206.25Q97.5 195.5 86.25 187.75Q75.0 180.0 67.5 180.0Q61.5 180.0 58.5 194.5Q56.5 203.5 55.75 216.75Q55.0 230.0 55.25 243.25Q55.5 256.5 56.75 266.0Q58.0 275.5 60.0 277.0Q63.0 277.0 71.5 273.5Q80.0 270.0 91.0 265.0Q102.0 260.0 112.25 254.5Q122.5 249.0 129.25 244.75Q136.0 240.5 136.0 239.0ZM224.5 207.0Q228.0 197.5 229.25 189.25Q230.5 181.0 230.0 179.0Q229.5 177.0 223.0 181.5Q216.5 186.0 208.0 193.25Q199.5 200.5 192.75 208.0Q186.0 215.5 184.5 219.5Q181.0 228.5 176.5 228.5Q171.0 228.5 171.0 233.5Q171.0 238.5 177.5 240.5Q180.0 242.0 187.5 245.0Q195.0 248.0 202.5 251.5L222.5 259.5L220.0 244.0Q218.0 238.0 219.5 227.25Q221.0 216.5 224.5 207.0ZM271.5 263.0Q271.5 248.5 269.25 231.0Q267.0 213.5 263.75 197.75Q260.5 182.0 257.25 171.75Q254.0 161.5 251.5 161.5Q250.5 161.5 250.0 163.5Q239.5 190.5 234.5 206.0Q229.5 221.5 229.25 230.75Q229.0 240.0 232.0 248.5Q234.5 256.5 236.75 262.5Q239.0 268.5 241.0 270.0Q245.0 271.5 252.5 287.0Q260.5 302.5 265.0 302.5Q271.5 302.5 271.5 263.0ZM132.5 89.5Q125.5 86.5 115.25 80.0Q105.0 73.5 97.5 67.5L80.0 52.5V87.5Q80.0 101.5 81.25 112.75Q82.5 124.0 84.0 125.5Q85.0 126.5 89.5 125.5Q94.0 124.5 98.0 122.0Q102.5 118.5 111.75 114.75Q121.0 111.0 130.0 108.5Q138.5 106.0 144.5 102.75Q150.5 99.5 150.5 98.5Q150.5 98.0 145.25 95.0Q140.0 92.0 132.5 89.5ZM361.0 103.5H311.5Q298.5 103.5 282.25 103.25Q266.0 103.0 250.75 102.75Q235.5 102.5 225.0 102.0Q216.5 101.5 209.75 101.25Q203.0 101.0 197.5 101.0Q187.0 101.0 178.25 102.5Q169.5 104.0 159.0 107.5Q148.5 111.0 132.0 117.5Q115.0 124.0 107.75 128.0Q100.5 132.0 99.0 136.75Q97.5 141.5 96.5 151.0Q96.5 159.5 97.5 165.75Q98.5 172.0 103.0 179.0Q107.5 186.0 116.5 197.5Q125.5 208.0 133.75 215.5Q142.0 223.0 145.0 223.0Q147.0 223.0 155.75 217.5Q164.5 212.0 176.5 203.5Q188.5 195.0 201.0 185.25Q213.5 175.5 223.25 167.25Q233.0 159.0 237.5 154.5Q243.0 148.5 243.5 144.25Q244.0 140.0 241.5 134.5Q239.5 129.5 237.75 125.75Q236.0 122.0 236.0 120.0Q236.0 119.0 244.5 118.25Q253.0 117.5 265.0 117.5Q277.0 117.5 289.5 118.0Q302.0 118.5 311.0 119.5Q320.0 120.5 321.0 122.0Q322.0 122.5 320.0 125.5Q318.0 128.5 315.0 132.5Q309.0 139.5 302.25 152.75Q295.5 166.0 290.75 179.75Q286.0 193.5 286.0 201.5Q286.0 212.5 290.0 216.75Q294.0 221.0 310.0 227.0Q319.5 230.5 333.25 233.25Q347.0 236.0 357.0 236.0L379.0 237.0L378.5 199.0Q378.5 183.0 375.5 163.5Q372.5 144.0 369.5 132.0ZM301.0 132.5Q301.0 131.5 296.25 129.75Q291.5 128.0 284.5 128.0Q267.5 128.0 263.75 136.25Q260.0 144.5 266.5 170.0L275.0 196.0L283.0 170.0Q287.0 159.0 291.0 150.75Q295.0 142.5 297.0 141.5Q298.5 139.5 299.75 137.25Q301.0 135.0 301.0 132.5ZM411.5 33.0Q411.5 31.0 401.5 30.0Q391.5 29.0 378.5 29.0Q360.5 29.0 353.5 30.5Q346.5 32.0 348.5 39.25Q350.5 46.5 359.0 63.5Q361.5 68.5 365.25 80.5Q369.0 92.5 371.0 103.5L378.5 131.0L384.0 101.5Q387.0 89.0 392.25 75.0Q397.5 61.0 402.0 54.5Q406.0 48.0 408.75 41.75Q411.5 35.5 411.5 33.0ZM78.0 380.0Q71.0 377.5 66.0 376.0Q61.0 374.5 57.0 374.5Q49.5 374.5 47.5 381.75Q45.5 389.0 45.5 405.5V435.0L59.5 431.5Q65.0 430.0 76.75 427.25Q88.5 424.5 98.0 421.5Q108.5 419.0 122.0 416.0Q135.5 413.0 145.0 411.5Q165.5 408.5 161.25 404.0Q157.0 399.5 132.0 398.5Q121.5 397.5 112.25 395.25Q103.0 393.0 99.5 392.0Q97.0 389.0 91.0 386.0Q85.0 383.0 78.0 380.0ZM120.0 375.0Q121.0 372.5 118.75 370.75Q116.5 369.0 112.5 369.0Q109.5 369.0 107.75 370.75Q106.0 372.5 106.5 375.0Q107.5 377.5 109.5 378.75Q111.5 380.0 112.5 380.0Q117.0 380.0 120.0 375.0ZM224.5 281.0Q219.0 276.5 213.25 273.25Q207.5 270.0 204.5 270.0Q199.5 270.0 185.75 277.25Q172.0 284.5 155.25 295.5Q138.5 306.5 123.75 317.75Q109.0 329.0 101.5 337.0Q93.5 347.0 87.25 353.0Q81.0 359.0 80.0 359.0Q78.5 358.5 75.75 354.0Q73.0 349.5 69.0 344.5L60.0 332.0V347.5Q60.0 357.0 64.75 362.5Q69.5 368.0 77.0 368.0Q83.5 368.0 89.0 364.5Q93.0 363.5 101.0 361.0Q109.0 358.5 116.0 356.5Q120.0 356.0 132.25 351.0Q144.5 346.0 160.25 338.25Q176.0 330.5 192.0 322.0Q208.0 313.5 220.0 306.25Q232.0 299.0 236.0 295.5Q237.0 294.5 233.75 290.25Q230.5 286.0 224.5 281.0ZM271.5 400.5V361.0Q271.5 343.5 270.5 334.25Q269.5 325.0 267.0 320.0Q264.5 315.0 259.0 310.5L248.5 299.5L201.0 327.5Q163.0 349.0 146.75 362.25Q130.5 375.5 130.5 383.0Q130.5 387.5 150.25 390.75Q170.0 394.0 222.5 397.0ZM314.0 239.0Q304.0 235.0 296.25 231.75Q288.5 228.5 287.5 228.5Q287.0 228.5 286.5 234.0Q286.0 239.5 286.0 247.0Q286.0 253.5 286.5 258.75Q287.0 264.0 288.5 264.0Q289.5 264.0 301.75 260.0Q314.0 256.0 331.0 250.5Q334.5 249.0 329.75 245.75Q325.0 242.5 314.0 239.0ZM348.0 400.0 328.5 378.5Q320.5 369.5 310.5 359.5Q300.5 349.5 295.0 344.5L280.5 333.0L284.5 397.0ZM382.0 326.5V254.0H368.0Q359.5 254.0 343.75 257.5Q328.0 261.0 312.75 265.75Q297.5 270.5 290.0 274.0Q286.0 276.5 283.75 282.25Q281.5 288.0 281.5 299.0Q281.5 307.0 284.25 313.5Q287.0 320.0 295.75 329.75Q304.5 339.5 322.5 358.5Q340.0 375.5 354.75 387.25Q369.5 399.0 373.0 399.0Q376.5 399.0 378.5 394.75Q380.5 390.5 381.25 375.0Q382.0 359.5 382.0 326.5ZM330.0 11.0Q331.0 10.0 334.75 10.5Q338.5 11.0 342.0 13.0Q345.5 15.5 360.75 17.0Q376.0 18.5 394.5 18.5Q415.5 18.5 424.25 19.0Q433.0 19.5 433.5 21.25Q434.0 23.0 430.0 27.5Q426.5 31.0 420.0 42.25Q413.5 53.5 408.0 65.5Q403.0 76.0 400.25 84.25Q397.5 92.5 396.0 102.5Q394.5 112.5 393.75 127.5Q393.0 142.5 393.0 167.0L391.0 239.0H478.5Q520.5 239.0 543.75 240.5Q567.0 242.0 567.0 244.0Q567.0 246.0 544.0 247.25Q521.0 248.5 479.5 248.5H391.5V398.5L433.5 400.5Q444.5 401.5 458.5 402.5Q472.5 403.5 486.5 404.0Q500.5 404.5 510.5 404.5Q525.5 404.5 536.25 405.5Q547.0 406.5 547.0 408.0Q547.0 409.5 524.75 410.25Q502.5 411.0 465.25 411.0Q428.0 411.0 382.5 411.0Q332.0 410.0 298.0 410.0Q264.0 410.0 241.25 410.75Q218.5 411.5 202.5 413.0Q186.5 414.5 172.0 417.0Q140.0 423.0 110.25 429.75Q80.5 436.5 60.25 442.25Q40.0 448.0 36.0 451.5Q31.0 455.0 30.75 452.5Q30.5 450.0 32.5 437.0Q34.0 428.5 34.5 412.75Q35.0 397.0 35.0 383.0Q35.0 362.5 36.75 355.75Q38.5 349.0 43.5 349.0Q49.0 349.0 49.75 345.25Q50.5 341.5 47.5 330.5Q47.0 323.0 43.75 314.0Q40.5 305.0 37.5 300.5Q24.5 279.5 38.5 279.5Q44.0 279.5 45.25 272.5Q46.5 265.5 44.0 239.5Q43.0 222.5 40.25 208.25Q37.5 194.0 30.75 176.25Q24.0 158.5 11.5 130.5Q10.0 126.5 15.75 125.25Q21.5 124.0 38.5 125.0L67.5 126.5L69.0 79.5Q70.0 60.5 71.0 46.75Q72.0 33.0 72.5 33.0Q73.5 33.0 79.75 38.5Q86.0 44.0 93.0 51.0Q101.0 59.0 110.75 66.0Q120.5 73.0 127.5 77.0Q134.5 80.5 153.5 83.75Q172.5 87.0 198.0 89.5Q223.5 92.0 250.75 93.25Q278.0 94.5 301.0 94.5Q325.5 94.5 341.25 92.75Q357.0 91.0 357.0 87.5Q357.0 84.5 352.5 72.75Q348.0 61.0 342.0 47.5Q336.0 33.5 332.5 23.0Q329.0 12.5 330.0 11.0Z" fill="black" /></svg>