<svg xmlns="http://www.w3.org/2000/svg" width="786.5" height="389.0" viewBox="0 0 786.5 389.0"><path d="M114.0 294.0Q107.5 291.0 96.25 283.75Q85.0 276.5 76.0 270.0Q61.0 256.5 55.5 256.5Q54.5 256.5 53.5 258.0Q53.0 260.0 49.5 269.5Q46.0 279.0 42.0 289.0Q38.5 299.5 36.75 307.75Q35.0 316.0 36.0 316.5Q37.0 318.0 40.5 318.0Q44.0 318.0 49.25 317.0Q54.5 316.0 61.0 314.5Q70.0 312.0 81.75 310.5Q93.5 309.0 100.5 309.0Q122.0 309.0 125.75 304.75Q129.5 300.5 114.0 294.0ZM203.5 250.5Q203.5 250.0 201.0 245.25Q198.5 240.5 195.0 235.0L187.0 221.5L180.0 235.0Q173.0 248.5 174.25 250.75Q175.5 253.0 188.5 253.0Q194.5 253.0 199.0 252.25Q203.5 251.5 203.5 250.5ZM215.5 202.0Q225.5 200.0 226.25 198.25Q227.0 196.5 221.5 188.5L214.0 178.5L206.5 190.0Q201.5 197.5 200.75 200.5Q200.0 203.5 204.0 203.5Q208.0 203.5 215.5 202.0ZM274.5 217.5Q265.0 213.5 252.0 211.75Q239.0 210.0 227.0 210.0Q214.0 210.0 204.5 212.25Q195.0 214.5 195.0 218.5Q195.0 223.5 205.0 233.5Q208.0 237.0 219.25 243.0Q230.5 249.0 246.0 255.25Q261.5 261.5 276.75 267.0Q292.0 272.5 303.25 275.5Q314.5 278.5 316.5 277.0Q318.5 276.0 319.5 270.0Q320.5 264.0 320.5 256.5Q320.5 246.5 319.0 243.25Q317.5 240.0 312.0 240.0Q303.5 240.0 300.0 233.5Q298.0 230.0 290.75 225.5Q283.5 221.0 274.5 217.5ZM338.5 226.5Q338.5 223.0 333.0 223.0Q329.0 223.0 331.5 226.5Q334.0 231.0 336.0 231.0Q338.5 231.0 338.5 226.5ZM392.5 292.5Q381.5 290.5 370.5 288.75Q359.5 287.0 355.0 286.0Q350.0 284.5 347.0 284.5Q343.5 284.5 342.75 287.25Q342.0 290.0 342.0 297.0Q342.0 303.5 343.0 308.5Q344.0 313.5 344.5 314.5Q345.5 315.5 352.5 314.5Q359.5 313.5 367.5 311.5Q376.0 309.0 387.0 306.5Q398.0 304.0 405.0 303.0Q412.0 302.0 416.25 300.5Q420.5 299.0 419.5 298.5Q419.0 298.0 411.0 296.0Q403.0 294.0 392.5 292.5ZM362.5 181.0Q353.5 174.5 343.0 174.5Q335.5 174.5 332.5 178.0Q331.5 179.0 330.5 184.75Q329.5 190.5 329.5 197.5V214.5L346.0 205.0Q364.5 194.5 367.0 190.25Q369.5 186.0 362.5 181.0ZM407.5 201.0Q405.5 201.0 401.25 199.0Q397.0 197.0 393.0 194.5Q390.5 193.0 388.75 192.0Q387.0 191.0 385.0 191.0Q382.5 191.0 376.25 196.25Q370.0 201.5 363.25 208.5Q356.5 215.5 351.5 221.75Q346.5 228.0 346.5 230.5Q346.5 233.0 351.25 237.0Q356.0 241.0 361.75 243.75Q367.5 246.5 370.5 246.5Q374.0 246.5 384.25 241.25Q394.5 236.0 406.5 228.5Q418.5 221.0 427.25 214.75Q436.0 208.5 436.5 206.5Q437.5 204.5 434.5 202.0Q431.5 199.5 427.0 197.5Q416.0 192.0 411.5 192.0Q407.5 192.0 409.5 196.5Q412.0 201.0 407.5 201.0ZM410.5 247.5Q411.0 246.5 411.5 244.0Q412.0 241.5 411.0 239.5Q410.0 236.0 409.0 236.0Q408.0 236.0 406.0 239.5Q403.5 244.5 405.25 247.5Q407.0 250.5 410.5 247.5ZM417.0 180.0Q420.5 176.5 420.75 174.5Q421.0 172.5 418.5 172.5Q416.0 172.5 412.0 175.0Q406.0 178.5 409.0 181.5Q410.0 183.5 412.5 182.75Q415.0 182.0 417.0 180.0ZM494.5 175.0Q488.0 170.5 483.5 170.5Q477.0 170.5 477.0 179.5Q477.0 188.0 484.0 188.0Q488.0 188.0 494.5 184.0Q499.0 181.0 499.0 179.25Q499.0 177.5 494.5 175.0ZM494.5 240.0Q487.5 236.0 483.5 236.0Q477.0 236.0 477.0 244.5Q477.0 253.0 483.5 253.0Q488.5 253.0 494.5 248.5Q499.0 245.5 499.0 244.25Q499.0 243.0 494.5 240.0ZM647.5 240.0Q648.5 238.5 649.5 235.5Q650.5 232.5 649.5 229.5Q649.5 225.0 647.5 225.0Q646.0 225.0 638.5 231.0Q632.0 236.0 631.25 238.0Q630.5 240.0 635.5 241.5Q639.0 242.5 642.5 242.25Q646.0 242.0 647.5 240.0ZM709.0 205.5Q704.0 201.5 699.75 199.0Q695.5 196.5 694.5 196.5Q693.5 196.5 688.0 201.5Q682.5 206.5 676.0 213.0Q664.5 225.5 660.5 235.0Q656.5 244.5 664.0 244.5Q668.5 244.5 666.0 248.5Q665.0 250.0 670.75 254.75Q676.5 259.5 685.0 263.5Q694.0 268.0 701.25 272.75Q708.5 277.5 709.5 279.0Q712.0 282.5 711.25 284.75Q710.5 287.0 708.0 287.0Q705.0 287.0 700.0 283.0Q693.5 277.0 680.25 270.0Q667.0 263.0 653.0 257.5Q639.0 252.0 629.5 250.5L611.5 247.5V292.0H720.0V253.5Q720.0 235.0 719.5 226.5Q719.0 218.0 716.75 213.75Q714.5 209.5 709.0 205.5ZM124.5 64.0Q119.0 61.0 112.0 55.75Q105.0 50.5 100.5 46.0Q93.0 38.0 92.0 38.0Q90.5 38.0 90.0 43.0Q90.0 46.5 89.0 56.25Q88.0 66.0 86.5 76.0Q84.5 90.0 85.25 95.75Q86.0 101.5 88.5 101.5Q95.0 101.5 97.5 96.0Q98.5 94.5 105.0 90.75Q111.5 87.0 119.5 83.5Q127.5 80.0 132.75 77.0Q138.0 74.0 138.0 73.0Q138.0 72.0 134.0 69.25Q130.0 66.5 124.5 64.0ZM164.5 134.5Q164.5 131.5 154.0 131.5Q142.5 131.5 142.5 133.5Q142.5 135.5 145.25 141.5Q148.0 147.5 151.25 152.5Q154.5 157.5 155.5 157.5Q158.0 157.5 161.25 149.0Q164.5 140.5 164.5 134.5ZM247.0 136.0Q242.5 127.5 238.5 127.5Q235.0 127.5 232.0 134.5Q229.5 141.5 230.75 142.75Q232.0 144.0 240.0 144.0Q248.0 144.0 248.75 142.75Q249.5 141.5 247.0 136.0ZM320.5 172.5 295.5 163.0Q284.0 158.5 270.0 156.0Q256.0 153.5 244.5 153.5Q233.0 153.5 226.5 156.0Q220.5 158.0 221.5 166.5Q222.5 175.0 229.5 184.5Q233.5 190.0 245.5 196.25Q257.5 202.5 275.5 209.5Q290.5 215.0 302.75 219.0Q315.0 223.0 316.5 223.0Q318.5 223.0 319.5 215.5Q320.5 208.0 320.5 197.5ZM355.5 43.5Q355.5 42.5 346.75 41.25Q338.0 40.0 325.0 40.0Q312.5 40.0 303.75 41.25Q295.0 42.5 295.0 43.5Q295.0 44.5 297.25 50.75Q299.5 57.0 303.0 63.0Q306.5 69.5 310.5 81.0Q314.5 92.5 316.5 101.5Q319.0 110.5 321.75 116.5Q324.5 122.5 325.5 122.5Q326.5 122.5 329.0 116.5Q331.5 110.5 333.0 102.0Q335.5 94.0 339.75 83.0Q344.0 72.0 347.5 64.5Q355.5 49.5 355.5 43.5ZM360.0 162.0Q360.0 157.5 355.5 157.5Q352.0 157.5 349.0 162.0Q347.0 166.0 352.5 166.0Q356.0 166.0 358.0 164.5Q360.0 163.0 360.0 162.0ZM355.5 136.0Q354.0 136.0 352.75 128.5Q351.5 121.0 350.5 110.5L349.0 85.5L343.5 101.5Q339.0 113.5 336.25 126.5Q333.5 139.5 333.25 148.5Q333.0 157.5 335.5 157.5Q338.0 157.5 345.25 153.5Q352.5 149.5 361.0 143.75Q369.5 138.0 375.0 133.5Q380.5 129.0 379.5 128.5Q378.5 126.0 369.0 130.5Q365.0 132.5 361.5 134.25Q358.0 136.0 355.5 136.0ZM393.0 100.0Q386.0 99.0 378.25 97.25Q370.5 95.5 367.0 94.0Q362.5 92.0 361.25 94.75Q360.0 97.5 360.0 107.5Q360.0 113.5 360.5 118.0Q361.0 122.5 361.5 122.5Q365.0 122.5 373.5 120.25Q382.0 118.0 391.75 114.75Q401.5 111.5 408.0 108.75Q414.5 106.0 414.0 105.0Q413.5 104.0 407.25 102.5Q401.0 101.0 393.0 100.0ZM585.0 135.0 571.5 109.5 514.5 110.5Q499.0 110.5 482.25 111.25Q465.5 112.0 452.0 113.0Q438.5 114.0 431.5 115.5Q420.0 117.5 413.0 120.0Q406.0 122.5 400.5 127.0Q395.0 131.5 386.5 140.5Q372.0 157.5 369.75 163.25Q367.5 169.0 375.0 175.0Q379.0 178.0 382.5 178.0Q388.5 178.0 399.25 172.25Q410.0 166.5 430.0 153.0Q440.0 146.0 448.5 141.75Q457.0 137.5 459.0 137.5Q460.0 138.5 456.0 144.5Q452.0 150.5 445.0 157.5Q438.5 165.0 433.75 172.0Q429.0 179.0 429.0 181.5Q429.0 183.5 434.0 188.0Q439.0 192.5 445.5 196.0Q452.5 199.5 460.25 204.75Q468.0 210.0 472.5 214.0Q482.0 222.5 489.25 227.25Q496.5 232.0 505.75 234.25Q515.0 236.5 530.0 236.75Q545.0 237.0 569.5 236.5L603.0 235.5V178.5L560.5 180.0Q543.5 180.5 532.5 181.75Q521.5 183.0 513.5 185.75Q505.5 188.5 496.0 193.0Q486.5 197.5 479.0 200.25Q471.5 203.0 470.5 202.0Q469.5 201.0 468.75 193.5Q468.0 186.0 468.0 176.5Q468.0 153.5 475.0 153.5Q480.0 153.5 487.0 160.5Q492.5 165.5 504.25 167.0Q516.0 168.5 547.0 169.5Q575.0 170.0 586.75 169.75Q598.5 169.5 598.5 166.0Q598.5 163.5 594.5 154.75Q590.5 146.0 585.0 135.0ZM619.5 112.5Q620.0 111.5 614.5 110.5Q609.0 109.5 601.0 109.5Q588.5 109.5 585.5 110.75Q582.5 112.0 584.5 115.0Q586.0 117.0 589.5 123.25Q593.0 129.5 595.5 136.0L601.5 151.0L610.0 133.5Q613.5 126.5 616.25 120.5Q619.0 114.5 619.5 112.5ZM662.5 155.5Q664.5 149.0 661.0 149.0Q657.5 149.0 649.5 154.5Q642.5 160.0 642.75 162.5Q643.0 165.0 651.0 167.5Q654.5 168.5 657.0 168.0Q659.5 167.5 659.5 166.0Q659.5 164.0 660.5 161.5Q661.5 159.0 662.5 155.5ZM721.5 203.5 718.5 168.0Q718.5 166.0 717.75 158.0Q717.0 150.0 715.75 140.25Q714.5 130.5 712.5 123.5Q710.5 116.5 708.0 116.5Q705.5 116.5 696.0 127.5Q681.5 143.0 675.75 150.25Q670.0 157.5 670.25 161.25Q670.5 165.0 673.5 170.5Q676.0 174.0 680.75 177.75Q685.5 181.5 690.0 184.0Q694.5 185.0 700.5 188.25Q706.5 191.5 711.0 195.0ZM751.0 31.5Q751.0 29.0 741.75 28.0Q732.5 27.0 718.0 27.0Q704.0 27.0 695.0 28.0Q686.0 29.0 686.5 30.0Q698.0 53.0 706.0 72.25Q714.0 91.5 716.5 102.0L721.5 121.0L729.0 91.0Q733.0 78.5 737.25 66.25Q741.5 54.0 744.0 49.0Q751.0 36.5 751.0 31.5ZM80.5 46.0Q81.5 30.5 83.5 20.25Q85.5 10.0 86.5 10.0Q91.0 10.0 91.0 14.5Q91.0 18.5 97.25 27.25Q103.5 36.0 112.0 44.5Q120.5 53.0 127.0 56.5Q134.0 60.0 149.25 62.0Q164.5 64.0 190.5 64.5Q204.0 65.0 219.25 65.75Q234.5 66.5 247.5 66.75Q260.5 67.0 268.0 67.5Q279.5 68.0 287.25 67.5Q295.0 67.0 295.0 66.0Q295.0 64.5 291.5 59.5Q288.0 54.5 283.5 49.5Q279.0 44.0 276.0 39.5Q273.0 35.0 273.0 34.0Q273.0 33.0 288.75 32.25Q304.5 31.5 327.0 31.5Q367.0 31.5 377.0 34.25Q387.0 37.0 373.0 44.5Q369.5 46.5 365.0 51.5Q360.5 56.5 358.0 61.5Q353.5 71.0 354.0 73.75Q354.5 76.5 361.0 81.0Q369.0 86.0 391.5 90.75Q414.0 95.5 444.0 98.5Q474.0 101.5 503.5 101.5Q526.5 101.5 543.25 100.0Q560.0 98.5 561.0 97.0Q562.0 96.0 567.25 95.5Q572.5 95.0 580.5 95.0Q593.0 95.0 609.25 96.0Q625.5 97.0 641.0 98.5Q656.5 100.0 666.5 101.75Q676.5 103.5 676.5 105.0Q676.5 107.0 669.75 108.25Q663.0 109.5 654.0 110.5Q643.5 111.0 638.0 112.25Q632.5 113.5 629.25 117.25Q626.0 121.0 621.0 130.0Q617.0 138.0 615.25 144.75Q613.5 151.5 613.25 162.0Q613.0 172.5 613.0 192.0L613.5 236.5L683.5 190.5L666.0 183.0Q659.0 180.0 649.25 177.5Q639.5 175.0 632.5 175.0Q618.0 175.0 616.5 169.5Q615.0 164.0 628.0 157.5Q633.0 155.0 646.25 147.25Q659.5 139.5 673.5 130.0Q689.0 120.0 696.0 114.75Q703.0 109.5 704.5 105.5Q706.0 101.5 705.0 97.0Q703.0 89.5 698.5 78.25Q694.0 67.0 688.5 56.0Q683.0 45.0 678.0 37.25Q673.0 29.5 670.5 28.5Q659.5 24.0 666.0 21.5Q672.5 19.0 694.0 19.0Q714.5 19.0 733.25 20.25Q752.0 21.5 764.25 23.5Q776.5 25.5 776.5 28.0Q776.5 31.5 770.5 31.5Q755.5 31.5 739.0 91.5Q735.5 104.0 733.5 114.25Q731.5 124.5 730.5 136.5Q729.5 148.5 729.25 166.0Q729.0 183.5 729.0 210.0Q729.0 239.5 729.25 256.25Q729.5 273.0 730.25 280.5Q731.0 288.0 732.75 290.0Q734.5 292.0 737.5 292.0Q746.5 292.0 746.5 296.5Q746.5 298.0 744.0 299.5Q741.5 301.0 738.0 301.0Q734.5 301.0 732.75 303.25Q731.0 305.5 731.0 313.75Q731.0 322.0 732.0 340.0Q733.0 360.5 732.5 369.75Q732.0 379.0 729.0 379.0Q727.0 379.0 725.75 372.75Q724.5 366.5 724.5 355.5Q724.5 346.5 723.5 334.75Q722.5 323.0 721.5 316.5L718.5 301.0H606.0Q560.5 301.0 526.0 302.0Q491.5 303.0 465.0 305.0Q438.5 307.0 417.0 310.25Q395.5 313.5 375.0 318.0Q361.0 321.5 350.25 324.25Q339.5 327.0 338.5 327.0Q337.5 327.0 336.5 318.75Q335.5 310.5 334.5 298.5Q334.0 283.0 335.0 276.75Q336.0 270.5 340.5 270.5Q344.0 270.5 351.0 274.5Q357.5 278.0 375.0 281.0Q392.5 284.0 417.0 286.5Q441.5 289.0 469.75 290.5Q498.0 292.0 526.0 292.0H603.0V244.5H567.0Q554.0 244.5 544.75 245.25Q535.5 246.0 526.5 248.25Q517.5 250.5 505.25 255.5Q493.0 260.5 474.0 269.5Q471.5 269.5 470.25 264.25Q469.0 259.0 469.0 246.0Q469.0 232.0 467.5 225.5Q466.0 219.0 462.0 215.5Q457.0 212.0 452.5 212.0Q444.5 212.0 431.5 229.5L419.5 245.5L427.5 253.0Q431.5 255.5 438.5 259.5Q445.5 263.5 451.0 267.0Q471.0 278.0 463.0 278.0Q460.0 278.0 452.5 275.5Q445.0 273.0 434.5 268.0Q404.5 253.0 393.5 253.0Q386.5 253.0 388.5 259.5Q391.0 266.0 386.5 265.0Q382.0 264.0 359.5 253.0Q349.0 247.5 341.5 244.25Q334.0 241.0 331.5 241.0Q330.5 241.5 329.25 254.25Q328.0 267.0 327.0 284.5Q325.5 308.5 326.5 318.75Q327.5 329.0 335.5 332.25Q343.5 335.5 363.0 338.5Q373.0 339.5 380.25 341.5Q387.5 343.5 388.5 345.0Q390.5 347.5 382.5 347.5Q380.5 347.5 376.75 347.25Q373.0 347.0 368.5 346.5Q356.0 345.0 348.25 344.0Q340.5 343.0 336.0 343.0Q328.5 343.0 327.5 346.0Q326.5 349.0 325.5 356.5Q325.0 368.0 321.0 368.0Q316.5 368.0 316.5 352.0V337.5L259.0 327.0Q231.0 321.5 200.5 319.25Q170.0 317.0 140.5 317.0Q105.5 317.0 74.75 320.5Q44.0 324.0 23.5 331.5Q10.0 336.0 24.0 311.5Q28.0 304.5 33.25 290.0Q38.5 275.5 42.0 262.5L52.0 231.0L71.5 252.0Q89.0 273.5 116.5 285.0Q128.0 290.0 154.5 297.0Q181.0 304.0 219.5 311.75Q258.0 319.5 304.5 328.0Q313.0 329.5 314.75 327.0Q316.5 324.5 316.5 309.0V289.0L271.0 273.0Q246.5 264.5 232.75 261.25Q219.0 258.0 206.0 258.0Q196.0 258.0 180.0 259.5Q160.5 263.0 157.5 272.5Q156.0 276.0 154.25 262.75Q152.5 249.5 151.5 225.0Q150.5 199.5 149.5 186.0Q148.5 172.5 145.75 164.5Q143.0 156.5 137.5 147.0L126.0 127.0H185.5L175.5 142.5Q169.0 152.0 165.25 161.75Q161.5 171.5 160.5 184.5Q159.5 197.5 160.5 218.5L162.0 250.5L175.5 225.0Q181.5 213.5 188.75 200.75Q196.0 188.0 200.5 180.0Q205.5 173.0 209.0 166.5Q212.5 160.0 212.5 159.0Q212.5 156.5 216.25 148.25Q220.0 140.0 225.0 130.25Q230.0 120.5 234.25 113.25Q238.5 106.0 239.5 106.0Q241.0 106.0 243.75 110.5Q246.5 115.0 249.0 121.0Q253.0 130.0 259.75 135.25Q266.5 140.5 283.5 148.5Q295.5 154.0 305.25 158.0Q315.0 162.0 316.5 162.0Q321.0 162.0 318.5 144.25Q316.0 126.5 307.5 99.0L299.5 73.0L224.5 75.0Q194.0 75.5 175.5 77.0Q157.0 78.5 144.75 81.75Q132.5 85.0 121.0 91.5Q109.5 98.0 93.0 109.5L72.0 124.0L75.0 103.0Q76.0 94.0 77.75 77.25Q79.5 60.5 80.5 46.0Z" fill="black" /></svg>