<svg xmlns="http://www.w3.org/2000/svg" width="551.5" height="503.0" viewBox="0 0 551.5 503.0"><path d="M98.0 308.0Q118.0 294.0 126.0 287.75Q134.0 281.5 130.0 281.5Q125.0 281.5 102.0 290.0Q91.5 293.5 78.75 296.5Q66.0 299.5 57.5 300.0Q49.0 300.0 42.75 301.5Q36.5 303.0 35.5 304.0Q34.0 306.0 35.25 313.0Q36.5 320.0 39.0 328.25Q41.5 336.5 44.25 342.25Q47.0 348.0 48.5 348.0Q51.0 348.0 55.5 342.5Q57.0 340.0 69.5 330.0Q82.0 320.0 98.0 308.0ZM227.5 310.0Q227.5 297.0 226.25 293.75Q225.0 290.5 219.0 290.5Q218.5 290.5 218.0 290.5Q217.5 290.5 216.5 290.5Q197.5 291.0 195.5 294.5Q193.5 298.0 207.0 311.5Q213.5 317.5 219.25 322.75Q225.0 328.0 225.5 328.0Q226.5 328.0 227.0 322.25Q227.5 316.5 227.5 310.0ZM258.5 304.0Q247.5 295.0 242.5 295.0Q237.5 295.0 235.5 307.5Q233.5 316.0 234.75 330.0Q236.0 344.0 239.75 359.25Q243.5 374.5 248.5 386.25Q253.5 398.0 258.5 402.0Q259.5 402.5 262.5 402.75Q265.5 403.0 270.0 403.0Q277.0 403.0 285.5 402.5Q294.0 402.0 300.75 401.0Q307.5 400.0 309.0 399.0Q310.5 398.0 307.0 389.0Q303.5 380.0 296.75 367.0Q290.0 354.0 282.5 340.5Q275.0 327.0 268.5 317.0Q262.0 307.0 258.5 304.0ZM287.0 282.5Q287.0 275.5 282.0 275.5Q279.0 275.5 272.0 278.5Q267.0 281.0 269.5 285.5Q272.0 290.0 279.0 290.0Q282.0 290.0 284.5 287.5Q287.0 285.0 287.0 282.5ZM281.5 306.0Q276.0 299.5 273.5 299.5Q272.5 299.5 272.75 301.5Q273.0 303.5 275.0 306.0Q278.5 313.5 282.5 313.5Q284.5 313.5 284.25 311.25Q284.0 309.0 281.5 306.0ZM348.5 279.5Q348.5 263.5 346.75 259.5Q345.0 255.5 338.5 255.5Q317.5 257.5 315.0 260.75Q312.5 264.0 324.5 277.5Q330.0 285.0 334.5 291.0Q339.0 297.0 339.0 299.5Q339.0 304.0 344.0 304.0Q346.0 304.0 347.25 296.5Q348.5 289.0 348.5 279.5ZM322.5 290.0Q309.0 270.5 303.0 270.5Q295.5 270.5 295.5 310.0Q295.5 327.5 298.25 341.0Q301.0 354.5 307.5 369.5Q314.0 383.5 319.5 390.0Q325.0 396.5 333.0 396.5Q337.0 396.5 342.5 394.75Q348.0 393.0 355.0 390.0L368.0 384.0L351.0 346.0Q343.5 330.5 335.5 313.75Q327.5 297.0 322.5 290.0ZM82.0 134.0Q78.0 125.5 73.5 125.5Q68.0 125.5 58.0 138.5Q50.0 149.0 50.25 151.5Q50.5 154.0 56.5 157.0Q60.5 157.5 72.0 162.5Q83.5 167.5 96.0 172.5L127.5 188.5L107.5 166.0Q99.5 156.5 92.0 147.5Q84.5 138.5 82.0 134.0ZM195.5 112.5 203.5 100.5H167.5L177.0 111.0Q181.0 115.5 184.0 119.0Q187.0 122.5 187.0 123.0Q187.5 124.0 190.0 120.5Q192.5 117.0 195.5 112.5ZM245.0 185.0Q245.0 162.5 242.0 146.0Q239.0 129.5 223.5 112.5Q217.0 107.0 214.5 107.0Q211.0 107.0 205.5 114.0Q202.0 118.0 200.25 124.0Q198.5 130.0 198.0 141.25Q197.5 152.5 197.5 172.5Q197.5 222.0 191.5 222.0Q189.0 222.0 197.5 230.0Q205.0 234.5 210.0 234.5Q213.0 234.5 217.0 233.25Q221.0 232.0 227.0 228.5L244.5 218.5ZM254.0 112.5 261.5 100.5H227.5L235.5 112.5Q238.5 117.0 241.5 120.75Q244.5 124.5 244.5 124.5Q245.0 124.5 247.75 120.75Q250.5 117.0 254.0 112.5ZM333.0 165.0Q335.5 158.5 336.75 153.75Q338.0 149.0 336.5 149.0Q336.0 149.0 331.0 154.0Q326.0 159.0 320.0 165.75Q314.0 172.5 310.0 178.25Q306.0 184.0 307.0 185.0Q308.5 186.5 311.0 186.5Q316.5 186.5 323.5 180.25Q330.5 174.0 333.0 165.0ZM428.5 250.5Q437.0 242.0 441.25 236.75Q445.5 231.5 444.0 231.5Q441.5 231.5 435.75 232.5Q430.0 233.5 424.0 234.5Q407.0 236.0 411.0 243.5Q412.5 250.5 408.0 250.5Q403.5 250.5 403.0 257.5Q402.5 264.5 406.5 268.0Q409.0 268.0 415.25 262.5Q421.5 257.0 428.5 250.5ZM416.5 83.5Q419.0 77.5 420.25 73.5Q421.5 69.5 420.5 69.0Q420.5 68.5 420.25 68.5Q420.0 68.5 420.0 68.5Q418.0 68.5 411.5 74.5Q405.0 80.5 397.5 88.5Q385.0 101.0 382.5 105.75Q380.0 110.5 386.5 110.5Q390.0 110.5 396.25 111.0Q402.5 111.5 407.0 113.0Q414.0 114.5 415.5 113.25Q417.0 112.0 415.0 106.0Q413.5 102.0 414.0 95.25Q414.5 88.5 416.5 83.5ZM249.5 417.0Q248.0 415.0 241.75 412.75Q235.5 410.5 228.5 409.0Q218.5 407.5 216.25 408.75Q214.0 410.0 215.0 415.5Q216.0 418.0 218.0 425.75Q220.0 433.5 220.5 441.0L223.5 459.0L244.5 443.0Q253.5 436.0 262.75 430.25Q272.0 424.5 276.5 423.0Q280.5 422.0 283.75 419.75Q287.0 417.5 287.0 415.5Q287.0 411.5 283.5 411.5Q280.5 411.5 268.5 416.0Q262.0 418.5 257.0 418.5Q252.5 418.5 249.5 417.0ZM450.0 12.5Q450.0 10.0 452.0 10.0Q454.0 10.0 456.0 11.0Q460.5 13.5 450.0 31.5Q430.5 67.0 425.5 90.5Q420.5 114.0 432.0 114.0Q436.5 114.0 436.5 121.0Q436.5 124.0 444.0 130.0Q451.5 136.0 462.0 143.0Q486.0 157.0 498.75 166.75Q511.5 176.5 508.5 179.5Q506.5 181.5 497.5 177.0Q488.5 172.5 476.5 164.5Q447.5 145.0 421.25 132.5Q395.0 120.0 379.5 120.0Q368.0 120.0 362.5 125.25Q357.0 130.5 352.0 140.5Q344.0 157.5 343.25 170.75Q342.5 184.0 348.5 186.5Q353.0 188.0 351.0 193.5Q350.0 197.5 356.25 202.25Q362.5 207.0 370.75 209.5Q379.0 212.0 382.5 210.0Q386.5 208.0 388.5 213.5Q391.0 219.0 398.0 221.75Q405.0 224.5 415.0 224.5Q433.0 224.5 457.75 216.75Q482.5 209.0 506.0 195.0Q517.5 188.0 527.25 183.5Q537.0 179.0 540.0 180.5Q541.5 181.5 529.75 191.0Q518.0 200.5 500.5 210.5Q475.0 225.5 455.0 241.75Q435.0 258.0 423.5 272.25Q412.0 286.5 412.0 296.0Q412.0 301.5 410.5 305.75Q409.0 310.0 407.0 310.0Q404.0 310.0 401.25 300.25Q398.5 290.5 395.0 263.5Q393.5 250.0 389.5 242.0Q385.5 234.0 375.75 226.75Q366.0 219.5 346.5 210.0L319.0 196.5L268.5 219.5Q244.5 230.5 234.25 235.75Q224.0 241.0 223.0 243.75Q222.0 246.5 225.5 250.5Q228.5 254.0 234.75 257.75Q241.0 261.5 247.5 262.5Q253.5 263.0 256.75 266.25Q260.0 269.5 259.0 270.5Q258.0 271.5 261.5 271.75Q265.0 272.0 270.5 270.0Q284.5 264.0 283.0 258.5Q282.0 254.5 288.5 252.5Q295.0 250.5 313.0 250.0Q326.5 248.5 337.75 245.5Q349.0 242.5 351.0 240.5Q352.0 238.5 357.0 237.0Q362.0 235.5 366.5 235.5Q372.5 235.5 372.25 237.25Q372.0 239.0 367.0 244.5Q350.0 264.5 359.0 318.0Q362.0 337.5 367.25 355.75Q372.5 374.0 376.0 381.5Q376.0 381.5 382.75 379.25Q389.5 377.0 397.5 374.5Q407.5 371.0 413.5 369.25Q419.5 367.5 422.5 367.5Q427.0 367.5 427.0 371.5Q427.0 373.5 421.0 376.5Q415.0 379.5 407.0 382.0Q390.0 387.0 386.25 392.75Q382.5 398.5 387.0 411.5Q393.0 426.0 387.0 426.0Q385.0 426.0 382.5 421.5Q380.0 417.0 377.5 411.0Q376.0 405.0 373.25 400.5Q370.5 396.0 369.0 396.0Q367.0 396.0 357.0 399.25Q347.0 402.5 334.25 407.5Q321.5 412.5 309.5 417.5Q297.5 422.5 291.0 426.0Q267.0 438.0 248.75 453.0Q230.5 468.0 227.0 479.5Q222.5 493.0 219.5 493.0Q214.5 493.0 211.5 455.5Q210.0 437.0 206.5 425.25Q203.0 413.5 199.0 407.5Q192.5 398.0 192.0 391.5Q191.5 385.0 195.0 385.0Q198.5 385.0 203.0 389.5Q208.5 394.0 219.0 397.25Q229.5 400.5 236.0 400.5Q243.0 400.5 243.0 397.0Q243.0 395.0 238.5 384.0Q234.0 373.0 227.5 359.5Q220.0 343.5 209.25 329.75Q198.5 316.0 187.75 307.75Q177.0 299.5 169.5 299.5Q157.0 299.5 160.25 294.75Q163.5 290.0 177.5 287.5Q191.0 285.0 203.75 281.75Q216.5 278.5 224.5 275.25Q232.5 272.0 232.5 270.5Q232.5 270.0 229.25 266.0Q226.0 262.0 220.5 258.5Q216.5 255.5 213.75 254.0Q211.0 252.5 208.0 252.5Q202.5 252.5 187.75 260.5Q173.0 268.5 153.75 281.5Q134.5 294.5 114.0 309.75Q93.5 325.0 75.5 339.75Q57.5 354.5 45.5 365.75Q33.5 377.0 32.0 382.0Q30.5 386.5 29.0 386.75Q27.5 387.0 23.5 383.5Q19.5 379.5 19.75 376.5Q20.0 373.5 26.0 367.5Q30.5 362.5 32.0 358.75Q33.5 355.0 32.75 348.0Q32.0 341.0 29.5 328.0Q27.0 315.5 24.0 305.0Q21.0 294.5 20.0 292.0Q18.0 287.5 27.0 287.5Q32.5 287.5 42.0 289.0Q53.0 290.0 67.25 288.0Q81.5 286.0 94.0 282.5Q108.0 278.5 125.0 272.25Q142.0 266.0 157.75 259.5Q173.5 253.0 183.75 248.25Q194.0 243.5 194.0 242.0Q194.0 240.0 184.0 233.5Q174.0 227.0 158.0 217.75Q142.0 208.5 124.0 199.0Q106.0 189.5 90.0 182.0Q76.0 176.0 60.25 170.75Q44.5 165.5 35.5 164.5Q17.0 162.5 13.5 155.75Q10.0 149.0 26.0 149.0Q44.0 149.0 65.5 115.0Q73.5 101.0 77.5 101.0Q81.0 101.0 83.0 113.0Q85.0 119.0 90.75 129.25Q96.5 139.5 103.5 148.5Q111.0 157.5 123.25 169.0Q135.5 180.5 148.5 191.5Q161.5 202.5 171.5 209.75Q181.5 217.0 184.5 217.0Q186.5 217.0 187.75 206.25Q189.0 195.5 189.0 180.5Q189.0 154.0 182.5 137.0Q176.0 120.0 157.5 101.0Q154.0 97.0 152.5 93.75Q151.0 90.5 153.0 90.5Q158.0 90.0 172.75 90.0Q187.5 90.0 206.25 90.25Q225.0 90.5 242.75 90.75Q260.5 91.0 272.5 91.5Q284.5 92.0 285.0 92.5Q286.5 93.0 281.75 98.0Q277.0 103.0 270.5 109.0Q263.0 116.0 259.5 121.0Q256.0 126.0 254.75 135.0Q253.5 144.0 252.0 163.0Q251.0 189.0 253.25 199.5Q255.5 210.0 262.0 210.0Q266.5 210.0 273.5 206.0Q286.0 198.5 281.5 195.0Q279.5 193.5 284.75 186.5Q290.0 179.5 302.5 168.5Q314.0 158.5 326.5 143.75Q339.0 129.0 347.0 118.5Q354.0 109.0 361.5 102.25Q369.0 95.5 371.0 95.5Q373.0 95.5 381.5 87.75Q390.0 80.0 401.5 68.25Q413.0 56.5 424.0 44.5Q435.0 32.5 442.5 23.5Q450.0 14.5 450.0 12.5Z" fill="black" /></svg>