<svg xmlns="http://www.w3.org/2000/svg" width="458.0" height="462.0" viewBox="0 0 458.0 462.0"><path d="M116.0 215.0Q105.0 205.5 101.5 205.5Q100.0 205.5 99.0 214.0Q98.0 222.5 98.0 234.0Q98.0 248.0 98.75 254.0Q99.5 260.0 103.0 260.0Q106.0 260.0 114.0 254.5Q118.0 252.5 126.0 248.75Q134.0 245.0 141.5 243.0Q156.0 238.0 156.0 234.25Q156.0 230.5 141.5 226.5Q136.0 225.0 128.75 221.75Q121.5 218.5 116.0 215.0ZM198.5 293.5Q199.5 289.0 194.0 289.0Q186.5 289.0 184.0 293.5Q182.5 298.0 188.5 298.0Q191.0 298.0 194.0 296.75Q197.0 295.5 198.5 293.5ZM270.0 287.0Q270.0 280.0 268.5 280.0Q267.5 280.0 258.0 287.0Q251.5 292.0 252.0 292.75Q252.5 293.5 260.0 293.5Q270.0 293.5 270.0 287.0ZM60.5 111.5Q60.5 109.5 56.0 108.75Q51.5 108.0 44.5 108.0Q31.0 108.0 29.75 113.0Q28.5 118.0 37.0 138.0L45.5 156.0L53.5 135.0Q56.0 126.5 58.25 119.75Q60.5 113.0 60.5 111.5ZM82.5 35.5Q74.5 30.0 71.0 30.0Q67.5 30.0 66.25 35.75Q65.0 41.5 65.0 54.5Q65.0 68.0 66.0 73.25Q67.0 78.5 70.0 78.5Q72.5 78.5 74.5 77.0Q77.0 76.0 87.5 72.25Q98.0 68.5 109.5 64.5L137.0 54.5L114.0 48.0Q105.5 46.0 96.0 42.0Q86.5 38.0 82.5 35.5ZM193.0 155.0Q196.0 150.0 194.5 143.0Q194.5 138.5 192.0 138.5Q189.5 138.5 180.0 145.0L167.5 153.0L178.5 156.0Q182.5 157.0 187.0 156.75Q191.5 156.5 193.0 155.0ZM266.5 146.0Q270.0 137.0 266.75 136.75Q263.5 136.5 249.0 146.0Q241.0 151.0 240.0 152.5Q239.0 154.0 243.5 155.0Q247.0 155.0 250.75 155.5Q254.5 156.0 257.5 156.0Q262.5 156.0 266.5 146.0ZM424.0 45.5Q424.0 44.5 414.0 43.5Q404.0 42.5 391.0 42.0Q377.5 41.0 368.0 42.0Q358.5 43.0 358.5 44.5Q358.5 46.5 362.0 58.0Q365.5 69.5 370.5 84.5Q374.5 98.5 379.0 112.75Q383.5 127.0 384.0 133.5Q386.5 143.5 388.0 143.5Q391.0 143.5 398.5 113.5Q401.0 101.0 406.0 87.25Q411.0 73.5 415.0 66.0Q418.5 58.0 421.25 52.25Q424.0 46.5 424.0 45.5ZM146.5 393.0 126.0 387.0Q117.0 384.5 103.75 378.75Q90.5 373.0 80.5 368.0L56.0 354.0V429.5L71.5 421.5Q77.5 417.5 90.75 412.25Q104.0 407.0 117.0 403.0ZM146.5 305.5 182.0 283.5Q216.0 262.5 222.0 262.5Q228.0 262.5 216.5 280.0L204.0 298.0L216.5 317.0Q221.5 324.5 224.75 331.75Q228.0 339.0 228.0 341.5Q228.0 344.5 222.75 340.0Q217.5 335.5 211.75 328.5Q206.0 321.5 204.0 317.0Q203.5 314.5 195.0 312.0Q186.5 309.5 175.0 308.0ZM88.0 230.0 89.5 183.0 110.5 198.5Q119.5 205.0 130.25 211.0Q141.0 217.0 148.5 219.5Q153.0 220.5 169.75 221.75Q186.5 223.0 210.5 223.5Q234.5 224.0 260.0 224.0Q287.0 224.0 308.25 224.5Q329.5 225.0 341.75 226.0Q354.0 227.0 354.0 228.5Q354.0 229.0 342.25 230.5Q330.5 232.0 310.75 233.0Q291.0 234.0 267.0 234.5Q236.5 235.0 218.0 236.0Q199.5 237.0 188.25 238.25Q177.0 239.5 168.5 242.0Q160.0 244.5 149.5 249.0Q137.0 254.0 124.0 260.5Q111.0 267.0 104.0 271.0Q91.0 279.0 87.5 279.0Q87.5 279.0 87.25 279.0Q87.0 279.0 87.0 279.0Q87.0 278.0 87.25 264.0Q87.5 250.0 88.0 230.0ZM223.5 299.0Q223.5 297.5 233.0 290.75Q242.5 284.0 255.5 276.25Q268.5 268.5 279.75 262.75Q291.0 257.0 294.5 257.0Q298.0 257.0 298.0 260.0Q298.0 265.0 289.0 272.5Q279.5 281.5 280.0 292.0Q280.5 302.5 291.5 319.0Q296.5 325.5 299.25 332.0Q302.0 338.5 300.5 340.0Q299.5 341.0 296.0 338.5Q292.5 336.0 289.0 330.5Q278.0 313.5 269.5 308.5Q261.0 303.5 244.5 303.5Q236.0 303.5 229.75 302.25Q223.5 301.0 223.5 299.0ZM180.0 132.5Q216.0 109.0 222.5 109.0Q228.0 109.0 216.5 125.0Q209.0 137.5 206.0 148.0Q203.0 158.5 208.5 158.5Q209.0 158.5 221.25 151.5Q233.5 144.5 250.0 133.5Q290.0 108.0 297.0 108.0Q303.5 108.0 286.0 128.0Q279.0 136.5 276.5 143.75Q274.0 151.0 277.25 160.75Q280.5 170.5 289.0 186.0Q302.0 210.0 297.5 210.0Q293.5 210.0 281.0 189.5Q273.0 176.0 267.25 172.0Q261.5 168.0 249.0 166.0Q243.5 165.0 237.75 164.5Q232.0 164.0 227.0 164.0Q219.5 164.0 214.75 165.0Q210.0 166.0 210.0 167.5Q210.0 168.0 213.0 175.0Q216.0 182.0 221.0 190.5Q226.5 198.5 228.5 204.25Q230.5 210.0 228.0 210.0Q226.0 210.0 221.0 204.0Q216.0 198.0 211.0 189.5Q203.0 176.0 197.25 172.0Q191.5 168.0 179.5 166.0Q171.5 164.5 163.5 164.25Q155.5 164.0 152.0 165.0Q140.0 167.0 147.5 158.25Q155.0 149.5 180.0 132.5ZM58.0 34.5Q56.5 24.5 56.5 17.25Q56.5 10.0 58.0 10.0Q59.0 10.0 66.25 14.25Q73.5 18.5 82.5 24.5Q97.5 33.5 114.5 38.5Q131.5 43.5 156.5 45.25Q181.5 47.0 221.0 47.0Q346.5 47.0 341.5 35.5Q340.5 33.0 344.75 32.0Q349.0 31.0 361.0 31.0Q366.0 31.0 379.25 31.5Q392.5 32.0 407.75 33.0Q423.0 34.0 434.5 34.75Q446.0 35.5 446.5 36.5Q448.0 37.0 446.25 39.25Q444.5 41.5 442.0 42.5Q438.5 44.5 432.0 55.75Q425.5 67.0 418.5 80.5L403.0 115.0L401.0 282.5Q401.0 333.5 400.25 371.75Q399.5 410.0 398.25 431.0Q397.0 452.0 395.0 452.0Q393.5 452.0 392.25 442.75Q391.0 433.5 391.0 421.5V390.5L281.0 393.0Q244.5 393.5 218.75 394.5Q193.0 395.5 174.25 397.75Q155.5 400.0 140.0 404.25Q124.5 408.5 108.5 415.25Q92.5 422.0 72.5 432.0L44.5 445.5V316.0Q44.0 278.0 43.75 253.25Q43.5 228.5 42.75 213.0Q42.0 197.5 40.75 187.5Q39.5 177.5 37.25 168.75Q35.0 160.0 31.0 148.0Q25.5 131.5 20.75 119.75Q16.0 108.0 14.5 108.0Q12.5 108.0 11.25 106.25Q10.0 104.5 10.0 103.5Q10.0 101.0 19.75 100.0Q29.5 99.0 44.5 99.0Q59.0 99.0 69.25 99.5Q79.5 100.0 79.5 100.5Q79.5 101.0 76.0 109.0Q72.5 117.0 67.0 127.0Q62.5 136.0 59.75 143.0Q57.0 150.0 56.0 160.5Q55.0 171.0 54.75 190.5Q54.5 210.0 54.5 244.5V338.0L74.5 353.5Q84.5 361.5 94.25 366.75Q104.0 372.0 116.75 375.0Q129.5 378.0 148.5 379.75Q167.5 381.5 196.25 382.0Q225.0 382.5 267.0 382.5H392.0L390.5 281.0Q390.0 247.0 389.0 225.25Q388.0 203.5 386.5 188.75Q385.0 174.0 382.5 161.5Q380.0 149.0 376.0 133.5Q371.0 113.5 365.25 95.0Q359.5 76.5 357.0 70.0L349.5 52.5L255.5 55.5Q221.0 56.5 200.75 57.25Q180.5 58.0 167.5 59.5Q154.5 61.0 143.0 64.25Q131.5 67.5 114.0 73.5Q95.5 80.0 79.5 85.5Q63.5 91.0 60.0 92.5Q55.0 94.0 54.75 91.25Q54.5 88.5 57.0 77.0Q58.5 69.5 59.0 57.0Q59.5 44.5 58.0 34.5Z" fill="black" /></svg>