<svg xmlns="http://www.w3.org/2000/svg" width="539.0" height="387.5" viewBox="0 0 539.0 387.5"><path d="M45.5 348.5 62.5 323.0Q71.5 309.0 74.25 303.25Q77.0 297.5 74.0 297.5Q70.0 297.5 62.75 298.0Q55.5 298.5 48.5 299.5Q34.0 300.5 32.25 304.75Q30.5 309.0 38.0 329.5ZM48.5 209.0Q50.0 203.0 52.0 199.75Q54.0 196.5 52.5 195.25Q51.0 194.0 42.5 195.5Q35.0 195.0 34.0 197.5Q33.0 200.0 35.25 203.5Q37.5 207.0 38.0 209.5Q40.5 217.5 43.0 217.5Q46.0 217.5 48.5 209.0ZM172.0 232.0Q172.0 230.5 168.5 230.5Q166.0 230.5 161.0 231.25Q156.0 232.0 149.0 234.5Q144.0 236.0 138.75 236.5Q133.5 237.0 131.5 236.0Q126.0 234.0 127.0 240.5Q128.0 247.0 136.0 265.0L145.0 286.0L150.5 272.5Q152.0 267.0 156.0 259.25Q160.0 251.5 164.0 247.0Q167.5 242.0 169.75 237.5Q172.0 233.0 172.0 232.0ZM96.0 177.5Q96.0 177.5 93.0 172.25Q90.0 167.0 86.75 159.5Q83.5 152.0 82.0 146.5L79.0 132.0Q70.5 140.5 61.25 146.5Q52.0 152.5 41.5 158.5Q43.0 159.5 49.5 160.25Q56.0 161.0 63.5 163.5Q73.5 166.5 83.75 172.0Q94.0 177.5 96.0 177.5ZM56.5 134.0 90.5 98.0Q90.5 97.5 85.0 98.5Q79.5 99.5 71.5 99.5Q64.0 99.5 55.5 98.0Q56.0 102.5 56.75 107.0Q57.5 111.5 57.5 116.0Q57.5 120.5 57.25 125.0Q57.0 129.5 56.5 134.0ZM161.0 134.5Q163.5 129.0 163.25 127.25Q163.0 125.5 155.5 126.0Q148.0 126.5 147.75 127.75Q147.5 129.0 149.5 134.5Q151.0 138.0 153.0 143.25Q155.0 148.5 155.5 148.5Q156.5 148.5 158.0 143.25Q159.5 138.0 161.0 134.5ZM257.0 168.5Q246.5 162.5 243.0 162.5Q239.0 162.5 238.5 168.5Q238.0 174.5 238.0 186.5Q238.0 196.0 238.75 202.5Q239.5 209.0 240.5 209.0Q244.0 209.0 254.5 203.0Q266.0 197.5 265.75 185.5Q265.5 173.5 257.0 168.5ZM316.5 179.0Q312.0 177.5 301.5 177.0Q291.0 176.5 285.0 176.5Q280.0 176.5 279.5 178.0Q279.0 179.5 279.0 183.5Q279.0 191.5 287.0 191.5Q290.5 191.5 295.5 190.5Q300.5 189.5 308.0 187.5Q319.0 184.5 320.5 182.75Q322.0 181.0 316.5 179.0ZM199.0 69.5Q197.5 66.0 195.0 60.0Q192.5 54.0 191.0 48.5L185.5 34.0L171.5 46.0Q158.5 54.0 155.0 57.5Q151.5 61.0 153.5 61.0Q156.0 61.0 161.25 58.75Q166.5 56.5 172.5 53.5Q178.5 50.5 182.0 50.5Q186.0 50.5 185.75 53.0Q185.5 55.5 179.0 58.5Q172.5 62.0 174.75 64.5Q177.0 67.0 191.0 72.5Q198.0 75.0 199.5 74.5Q201.0 74.0 199.0 69.5ZM192.5 83.0Q180.0 76.5 168.5 73.25Q157.0 70.0 157.0 70.0Q157.0 70.0 149.0 73.25Q141.0 76.5 131.0 82.0Q106.5 95.0 98.0 105.5Q89.5 116.0 94.0 116.0Q96.0 116.0 94.75 120.25Q93.5 124.5 91.0 129.5Q90.0 131.5 90.75 139.75Q91.5 148.0 98.5 161.5Q103.0 170.5 110.25 181.5Q117.5 192.5 125.25 202.75Q133.0 213.0 138.75 219.5Q144.5 226.0 146.5 226.0Q149.0 226.0 150.0 218.5Q151.0 211.0 151.0 199.5Q151.0 188.0 149.75 176.0Q148.5 164.0 146.5 155.0Q145.0 147.5 141.5 139.75Q138.0 132.0 135.5 129.5Q133.5 126.5 132.0 123.75Q130.5 121.0 131.0 120.5Q132.5 119.0 140.25 118.0Q148.0 117.0 157.5 116.25Q167.0 115.5 173.0 115.5Q180.0 115.5 179.5 116.5Q172.5 130.5 168.5 140.75Q164.5 151.0 162.75 161.5Q161.0 172.0 160.0 187.0Q159.5 201.5 160.0 211.5Q160.5 221.5 161.0 221.5Q164.5 221.5 173.25 217.5Q182.0 213.5 192.75 207.75Q203.5 202.0 212.0 196.0L230.5 182.5L229.0 163.0Q227.5 154.0 227.75 148.5Q228.0 143.0 230.0 143.0Q234.5 143.0 234.5 146.5Q234.5 148.5 240.5 152.0Q246.5 155.5 253.5 157.25Q260.5 159.0 263.0 157.0Q265.0 156.0 260.5 149.25Q256.0 142.5 247.25 132.5Q238.5 122.5 228.25 112.5Q218.0 102.5 208.5 94.25Q199.0 86.0 192.5 83.0ZM285.5 100.0 295.0 72.5H278.5Q267.0 72.5 265.0 73.75Q263.0 75.0 266.0 83.5Q267.0 88.0 268.5 96.75Q270.0 105.5 272.0 113.5Q273.0 118.5 273.5 125.5Q274.0 132.5 274.75 137.75Q275.5 143.0 275.5 143.0Q275.5 142.5 276.75 135.25Q278.0 128.0 280.5 118.0Q283.0 108.0 285.5 100.0ZM325.0 81.5Q319.5 66.0 313.5 66.0Q302.5 66.0 287.5 120.5Q282.0 144.0 280.75 153.5Q279.5 163.0 285.5 165.5Q291.5 168.0 307.0 170.0Q318.5 171.0 327.0 171.25Q335.5 171.5 336.5 170.5Q337.5 169.5 336.75 157.75Q336.0 146.0 334.0 130.5Q332.0 115.0 329.5 101.0Q327.0 87.0 325.0 81.5ZM362.5 68.5Q362.5 67.5 355.5 67.5Q348.5 67.5 341.25 68.25Q334.0 69.0 332.5 70.0Q331.5 72.0 332.0 74.5Q332.5 77.0 333.5 80.0Q335.0 82.5 337.0 91.25Q339.0 100.0 340.0 109.0L344.0 139.0L353.0 101.0Q356.0 88.0 359.25 78.5Q362.5 69.0 362.5 68.5ZM185.5 23.5Q191.0 18.0 195.5 14.0Q200.0 10.0 200.0 10.0Q200.5 10.0 200.25 14.75Q200.0 19.5 199.0 26.5Q197.0 36.5 198.75 44.25Q200.5 52.0 206.5 65.0Q210.5 73.0 218.5 84.5Q226.5 96.0 235.75 107.5Q245.0 119.0 252.75 126.75Q260.5 134.5 263.0 134.5Q265.0 134.5 264.75 127.5Q264.5 120.5 262.5 110.25Q260.5 100.0 258.0 90.5Q255.5 81.0 253.0 76.0Q250.5 71.0 248.5 67.25Q246.5 63.5 246.5 62.5Q246.5 62.0 253.75 61.75Q261.0 61.5 270.5 61.0Q280.5 61.0 299.75 60.5Q319.0 60.0 337.0 59.0Q354.5 58.0 367.25 58.0Q380.0 58.0 380.0 59.0Q380.0 59.0 377.5 63.75Q375.0 68.5 371.5 75.5Q367.5 83.0 363.0 97.5Q358.5 112.0 354.75 127.5Q351.0 143.0 349.0 155.25Q347.0 167.5 347.5 170.5Q349.0 173.5 354.75 174.5Q360.5 175.5 378.0 175.5Q388.0 175.5 403.25 175.25Q418.5 175.0 440.0 174.5Q464.5 174.0 484.5 174.0Q504.5 174.0 516.75 174.25Q529.0 174.5 529.0 176.0Q529.0 177.5 517.0 178.75Q505.0 180.0 485.0 181.25Q465.0 182.5 441.0 183.25Q417.0 184.0 393.5 184.0H346.0V206.5Q346.0 221.5 345.25 238.75Q344.5 256.0 343.0 271.0Q341.5 286.0 340.0 295.5Q338.5 305.0 337.0 305.0Q335.5 305.0 335.0 288.75Q334.5 272.5 336.5 246.5L339.5 188.0L325.0 190.0Q319.5 192.0 310.5 194.25Q301.5 196.5 294.5 198.5L278.0 203.5L275.5 253.0Q274.0 280.5 273.25 291.25Q272.5 302.0 271.5 303.5Q270.5 305.0 268.0 305.0Q266.5 305.0 266.25 290.75Q266.0 276.5 266.5 257.0Q267.5 230.5 267.0 219.75Q266.5 209.0 261.0 209.0Q258.5 209.0 254.5 211.0Q250.5 213.0 245.0 217.0Q234.0 224.5 230.0 224.5Q227.5 224.5 227.5 221.25Q227.5 218.0 228.5 211.0Q229.5 205.5 229.5 201.25Q229.5 197.0 228.5 197.0Q225.0 197.0 216.0 203.25Q207.0 209.5 197.75 217.75Q188.5 226.0 183.5 233.0Q175.5 243.5 168.0 257.0Q160.5 270.5 155.75 282.25Q151.0 294.0 151.0 299.5Q151.0 311.0 146.5 311.0Q142.5 311.0 140.5 304.0Q139.5 299.5 137.5 293.5Q135.5 287.5 134.0 283.0L129.5 272.0L113.5 280.0Q102.0 286.0 88.75 301.25Q75.5 316.5 64.75 334.75Q54.0 353.0 50.0 368.5Q48.0 377.5 45.5 377.5Q42.0 377.5 34.0 347.0Q31.5 335.0 27.0 321.25Q22.5 307.5 19.0 301.0Q10.0 281.5 15.0 281.5Q18.0 281.5 24.5 286.0Q31.5 291.5 34.0 291.5Q38.5 291.5 38.5 269.5Q38.5 255.0 36.5 240.25Q34.5 225.5 31.25 214.0Q28.0 202.5 23.5 198.5Q21.5 196.0 19.75 193.75Q18.0 191.5 18.5 191.0Q19.5 190.0 27.0 188.75Q34.5 187.5 44.0 186.5Q53.5 185.5 60.75 185.0Q68.0 184.5 68.0 185.0Q68.0 185.5 65.0 191.75Q62.0 198.0 57.5 206.5Q51.0 219.0 49.25 229.25Q47.5 239.5 47.5 260.0Q47.5 279.5 48.75 285.75Q50.0 292.0 53.5 292.0Q57.0 292.0 65.5 289.5Q74.0 287.0 84.25 283.5Q94.5 280.0 103.25 276.25Q112.0 272.5 116.0 269.5L126.5 263.0L115.0 242.0Q104.0 218.0 108.5 218.0Q111.0 218.0 115.0 221.5Q118.0 223.5 121.5 224.5Q125.0 225.5 127.0 224.5Q129.5 224.0 125.25 217.75Q121.0 211.5 111.5 202.0Q95.0 186.0 75.25 176.75Q55.5 167.5 36.5 167.5Q10.5 167.5 35.0 153.5Q41.5 149.5 44.0 146.75Q46.5 144.0 47.0 137.25Q47.5 130.5 47.0 115.0Q46.5 97.5 47.25 89.75Q48.0 82.0 50.0 82.0Q52.5 82.0 56.0 86.5Q60.5 92.5 69.0 92.5Q74.0 92.5 84.5 89.75Q95.0 87.0 106.75 83.0Q118.5 79.0 128.25 75.0Q138.0 71.0 141.5 68.0Q143.0 67.0 140.0 67.5Q137.0 68.0 133.75 68.5Q130.5 69.0 130.0 68.5Q128.0 66.5 135.5 60.5Q143.0 54.5 151.0 49.0Q159.5 44.0 169.75 36.5Q180.0 29.0 185.5 23.5Z" fill="black" /></svg>