<svg xmlns="http://www.w3.org/2000/svg" width="722.5" height="382.5" viewBox="0 0 722.5 382.5"><path d="M68.0 299.0Q66.5 286.0 63.0 286.0Q60.0 286.0 52.5 294.5Q46.0 301.5 46.75 303.75Q47.5 306.0 59.0 308.5Q61.5 309.0 63.0 309.25Q64.5 309.5 65.5 309.5Q68.5 309.5 68.75 307.25Q69.0 305.0 68.0 299.0ZM132.0 245.0Q135.5 240.5 134.5 239.25Q133.5 238.0 128.0 238.0Q124.5 238.0 121.75 239.5Q119.0 241.0 119.0 242.0Q119.0 249.0 124.5 249.0Q128.0 249.0 132.0 245.0ZM134.0 284.0Q130.5 283.0 128.5 282.25Q126.5 281.5 125.5 281.5Q123.0 281.5 123.0 287.5Q123.0 294.0 127.0 294.0Q130.0 294.0 135.0 290.5Q139.0 288.0 138.5 286.75Q138.0 285.5 134.0 284.0ZM291.5 260.5Q284.0 255.5 281.0 255.5Q280.0 255.5 278.5 263.25Q277.0 271.0 275.75 281.5Q274.5 292.0 274.0 300.25Q273.5 308.5 274.5 309.5Q276.0 309.5 288.75 304.5Q301.5 299.5 318.5 293.0L360.5 275.5L330.5 270.5Q318.0 268.0 306.75 265.25Q295.5 262.5 291.5 260.5ZM144.5 161.0Q144.5 157.5 143.5 154.75Q142.5 152.0 141.0 152.0Q136.5 152.0 132.0 157.75Q127.5 163.5 130.5 166.0Q133.5 169.0 137.5 169.0Q140.0 169.0 142.25 166.75Q144.5 164.5 144.5 161.0ZM202.5 249.5Q211.0 236.0 207.0 236.0Q205.0 236.0 198.0 239.0Q189.5 241.5 188.5 244.5Q187.5 247.5 192.0 254.5Q193.5 258.0 195.75 256.75Q198.0 255.5 202.5 249.5ZM333.5 206.0Q329.0 200.0 327.5 200.0Q325.5 200.0 325.5 208.0Q325.5 216.0 332.0 214.0Q339.0 211.0 333.5 206.0ZM424.5 173.5Q421.5 168.0 414.25 166.75Q407.0 165.5 384.0 165.5Q361.5 165.5 352.75 166.75Q344.0 168.0 336.5 174.5L324.5 183.5L339.0 197.5Q346.0 205.0 350.5 208.25Q355.0 211.5 363.5 212.0Q372.0 212.5 390.5 212.5H429.0V197.0Q429.0 190.5 427.5 183.75Q426.0 177.0 424.5 173.5ZM493.5 186.5Q493.5 185.5 485.75 185.0Q478.0 184.5 467.0 184.0L441.5 183.5V226.0L456.0 215.5Q461.5 211.5 469.0 206.0Q476.5 200.5 481.5 197.0Q486.0 193.5 489.75 190.5Q493.5 187.5 493.5 186.5ZM181.5 66.5Q182.5 64.0 180.0 63.0Q177.5 62.0 173.0 62.0Q168.5 62.0 165.25 63.0Q162.0 64.0 162.0 66.5Q162.0 70.0 170.0 70.0Q173.5 70.0 177.0 69.0Q180.5 68.0 181.5 66.5ZM217.5 143.0Q211.5 139.5 209.0 139.5Q205.5 139.5 202.5 150.5Q199.5 161.5 201.75 162.5Q204.0 163.5 213.0 155.5Q220.0 150.5 220.75 148.0Q221.5 145.5 217.5 143.0ZM205.5 70.0Q209.0 68.0 209.25 67.0Q209.5 66.0 208.0 66.0Q205.0 66.0 197.0 68.75Q189.0 71.5 180.5 75.5Q172.0 80.0 168.25 83.25Q164.5 86.5 162.75 94.25Q161.0 102.0 158.0 119.5Q155.0 141.0 154.0 153.25Q153.0 165.5 154.75 172.5Q156.5 179.5 161.75 185.0Q167.0 190.5 177.0 198.5Q186.5 206.5 195.25 212.5Q204.0 218.5 207.0 219.5Q209.5 219.5 221.0 212.75Q232.5 206.0 248.0 196.0Q263.5 186.0 278.25 175.5Q293.0 165.0 302.75 157.25Q312.5 149.5 312.5 147.5Q312.5 145.5 301.75 144.5Q291.0 143.5 276.0 143.5H239.0L219.5 161.5Q211.5 169.0 206.25 175.75Q201.0 182.5 201.0 185.0Q201.0 191.0 196.5 191.0Q192.5 191.0 192.0 179.5Q191.5 168.0 195.0 140.0Q196.0 129.0 198.0 121.25Q200.0 113.5 201.0 113.5Q204.5 113.5 204.5 119.5Q204.5 122.5 207.0 125.5Q209.5 128.5 213.0 130.0Q216.5 132.0 227.5 133.5Q238.5 135.0 252.5 136.0Q266.5 137.0 278.0 137.0Q292.5 137.0 297.0 135.5Q302.0 133.5 300.5 130.25Q299.0 127.0 286.5 117.5Q270.0 104.0 259.25 96.75Q248.5 89.5 239.75 85.5Q231.0 81.5 220.5 78.5Q199.0 74.0 205.5 70.0ZM261.0 53.0Q262.0 50.5 263.0 48.25Q264.0 46.0 264.5 45.5Q262.5 46.0 257.25 49.5Q252.0 53.0 246.0 57.5Q240.0 62.0 235.5 65.5Q231.0 69.0 231.0 70.0Q231.0 71.0 234.75 73.5Q238.5 76.0 243.5 77.5Q247.0 79.0 249.25 80.0Q251.5 81.0 253.0 81.0Q256.5 81.0 256.5 71.5Q256.5 67.5 257.75 62.0Q259.0 56.5 261.0 53.0ZM347.0 157.0Q347.0 153.5 340.5 150.5Q333.5 148.0 333.5 154.0Q333.5 161.0 340.5 161.0Q347.0 161.0 347.0 157.0ZM345.0 60.5Q334.5 53.5 333.0 53.5Q332.0 53.5 329.0 61.5Q326.0 69.5 323.5 78.25Q321.0 87.0 321.0 89.5Q321.0 90.5 329.0 90.5Q338.5 90.5 355.75 88.75Q373.0 87.0 390.0 85.0L405.0 83.0L380.0 74.5Q370.0 71.0 359.75 67.0Q349.5 63.0 345.0 60.5ZM462.0 43.0Q463.0 42.0 457.75 41.0Q452.5 40.0 444.0 40.0Q430.5 40.0 427.5 41.25Q424.5 42.5 426.5 47.5Q427.5 51.0 429.25 56.5Q431.0 62.0 432.0 67.0Q434.5 79.0 438.0 79.0Q445.0 79.0 462.0 43.0ZM565.5 116.0Q536.5 110.0 511.75 105.0Q487.0 100.0 471.5 96.5Q456.0 93.0 453.5 92.5Q447.0 91.5 441.5 99.5Q440.0 103.5 438.75 113.25Q437.5 123.0 437.5 134.75Q437.5 146.5 438.25 156.0Q439.0 165.5 441.0 168.5Q445.0 175.5 464.5 175.5Q488.0 175.5 558.0 163.0Q581.0 158.5 601.75 154.5Q622.5 150.5 637.25 148.0Q652.0 145.5 656.0 145.0Q661.5 144.0 665.5 142.5Q669.5 141.0 669.5 140.0Q669.5 139.0 655.5 135.75Q641.5 132.5 617.75 127.25Q594.0 122.0 565.5 116.0ZM44.0 288.5Q55.5 278.5 64.75 271.5Q74.0 264.5 75.5 264.5Q79.0 264.5 78.0 277.0Q76.0 282.0 76.0 290.0Q76.0 298.0 78.0 303.5Q79.0 309.5 82.25 314.25Q85.5 319.0 95.0 325.25Q104.5 331.5 123.0 343.0Q141.0 354.0 153.0 362.5Q165.0 371.0 164.0 372.5Q160.5 372.5 146.25 365.25Q132.0 358.0 113.0 347.0Q82.0 328.5 66.25 321.25Q50.5 314.0 41.0 314.0Q35.0 314.0 30.5 316.0Q25.0 318.0 21.5 318.0Q10.0 318.0 44.0 288.5ZM282.5 14.5Q282.5 10.0 286.5 10.0Q289.5 10.0 290.25 11.25Q291.0 12.5 288.25 18.25Q285.5 24.0 278.0 38.5Q268.5 57.5 265.75 70.5Q263.0 83.5 269.0 83.5Q273.5 83.5 273.5 89.0Q273.5 92.5 280.75 100.0Q288.0 107.5 297.75 115.5Q307.5 123.5 315.5 128.25Q323.5 133.0 324.5 131.0Q325.5 130.0 327.0 130.0Q332.0 130.0 344.0 141.5Q351.5 148.0 356.5 151.25Q361.5 154.5 369.25 155.5Q377.0 156.5 392.0 157.0Q406.5 158.0 416.25 157.75Q426.0 157.5 426.5 157.0Q427.5 156.5 428.25 146.75Q429.0 137.0 429.0 123.5V92.0H417.0Q406.0 92.0 390.5 93.5Q375.0 95.0 359.75 97.5Q344.5 100.0 333.0 102.5Q321.5 105.0 318.0 107.0Q311.5 111.0 309.5 111.0Q302.5 111.0 312.5 83.5Q316.0 74.5 318.5 64.25Q321.0 54.0 321.0 49.0Q321.0 36.5 327.0 36.5Q332.0 36.5 341.0 45.5Q345.0 49.0 355.0 53.75Q365.0 58.5 377.0 63.25Q389.0 68.0 399.75 71.25Q410.5 74.5 415.5 74.5Q424.5 74.5 424.5 69.5Q424.5 65.0 420.25 57.25Q416.0 49.5 410.5 43.0Q405.0 36.5 402.0 36.5Q398.0 36.5 401.0 32.5Q403.0 31.0 416.75 30.75Q430.5 30.5 448.5 31.0Q476.5 33.0 482.0 34.5Q487.5 36.0 481.5 39.5Q475.0 43.0 468.25 53.0Q461.5 63.0 458.5 72.0Q455.5 81.0 459.0 83.5Q460.0 84.0 478.0 88.25Q496.0 92.5 525.0 98.75Q554.0 105.0 588.5 112.0Q623.0 118.5 651.0 124.75Q679.0 131.0 695.75 135.0Q712.5 139.0 712.5 140.0Q712.5 140.5 699.25 143.5Q686.0 146.5 664.0 151.0Q642.0 155.5 615.0 161.0L516.5 179.5L486.5 203.0Q468.0 217.5 458.25 226.25Q448.5 235.0 445.0 241.25Q441.5 247.5 441.5 254.0V264.5H549.0Q601.0 264.5 629.0 265.5Q657.0 266.5 657.0 268.0Q657.0 270.0 629.25 271.25Q601.5 272.5 551.0 272.5Q506.0 272.5 483.25 273.0Q460.5 273.5 452.5 275.0Q444.5 276.5 443.0 279.5Q441.0 285.5 437.0 285.5Q432.5 285.5 432.5 278.5Q432.5 276.0 430.25 274.75Q428.0 273.5 421.0 273.5Q418.5 273.5 414.75 273.5Q411.0 273.5 406.5 274.0Q394.5 275.0 375.75 280.5Q357.0 286.0 337.0 293.75Q317.0 301.5 300.5 309.75Q284.0 318.0 276.5 325.0Q265.5 337.0 262.5 337.0Q261.5 337.0 261.5 330.5Q261.5 324.0 263.0 314.5L266.0 293.0L201.0 296.0Q174.0 297.0 152.25 299.0Q130.5 301.0 126.5 302.5Q119.0 307.5 119.0 320.0Q119.0 332.5 114.0 332.5Q109.5 332.5 111.0 287.5Q111.5 267.0 111.0 257.25Q110.5 247.5 109.0 243.25Q107.5 239.0 104.0 236.5Q100.5 234.0 98.5 231.25Q96.5 228.5 97.5 227.5Q99.0 226.5 108.75 226.75Q118.5 227.0 131.0 228.25Q143.5 229.5 152.75 231.25Q162.0 233.0 162.0 234.5Q162.0 238.0 157.5 238.0Q155.5 238.0 149.75 241.5Q144.0 245.0 138.0 249.75Q132.0 254.5 127.5 258.75Q123.0 263.0 123.0 264.5Q123.0 266.0 129.0 270.0Q135.0 274.0 144.0 278.5Q153.5 283.0 160.5 285.0Q167.5 287.0 179.5 287.25Q191.5 287.5 214.5 287.0Q243.0 285.5 255.0 283.5Q267.0 281.5 268.75 274.25Q270.5 267.0 267.5 251.0Q265.0 235.5 267.5 234.5Q270.0 233.5 282.5 244.0Q295.0 255.0 319.0 259.75Q343.0 264.5 385.5 264.5H432.5V252.5Q432.5 237.0 430.25 230.5Q428.0 224.0 417.5 222.5Q407.0 221.0 381.5 221.0Q354.5 221.0 343.0 222.5Q331.5 224.0 327.5 227.5Q325.5 229.5 323.0 232.0Q320.5 234.5 319.5 234.5Q318.5 234.5 317.75 226.0Q317.0 217.5 317.0 206.0Q317.0 194.0 318.0 186.0Q319.0 178.0 321.0 178.0Q325.5 178.0 325.5 167.5Q325.5 163.0 324.75 159.75Q324.0 156.5 323.0 156.5Q322.0 156.5 307.25 166.25Q292.5 176.0 273.5 189.5Q257.0 201.0 247.25 208.25Q237.5 215.5 231.75 221.5Q226.0 227.5 221.75 234.25Q217.5 241.0 213.0 251.5Q206.5 263.5 201.5 272.25Q196.5 281.0 195.5 281.0Q194.5 281.0 191.0 275.0Q187.5 269.0 183.75 260.5Q180.0 252.0 177.5 245.0Q175.0 238.0 175.5 236.0Q176.5 231.0 182.0 233.0Q184.5 234.0 188.0 233.25Q191.5 232.5 194.0 230.5Q198.0 228.0 192.0 221.75Q186.0 215.5 165.5 200.0Q144.0 183.5 134.5 178.75Q125.0 174.0 117.5 175.0Q112.5 176.5 109.5 176.5Q95.5 176.5 126.0 152.0Q135.5 144.5 142.25 137.25Q149.0 130.0 149.0 127.0Q149.0 123.5 150.5 115.0Q152.0 106.5 153.0 96.5Q155.5 82.0 154.5 76.25Q153.5 70.5 148.5 65.5Q140.5 57.5 135.0 57.5Q131.5 57.5 134.0 53.5Q135.5 52.0 149.0 52.0Q161.0 52.0 176.75 53.25Q192.5 54.5 205.5 56.0Q218.5 57.5 221.0 59.5Q224.0 59.5 233.75 53.5Q243.5 47.5 254.75 39.25Q266.0 31.0 274.25 23.75Q282.5 16.5 282.5 14.5Z" fill="black" /></svg>