<svg xmlns="http://www.w3.org/2000/svg" width="719.0" height="456.5" viewBox="0 0 719.0 456.5"><path d="M55.0 250.5Q44.0 245.0 36.25 241.25Q28.5 237.5 28.0 237.5Q27.5 237.5 27.25 246.0Q27.0 254.5 27.0 267.5Q27.5 286.0 29.25 291.0Q31.0 296.0 36.5 294.0Q40.5 293.0 51.25 289.25Q62.0 285.5 73.5 282.0Q94.5 275.0 100.0 269.5Q105.5 264.0 92.0 264.0Q88.0 264.0 77.0 260.0Q66.0 256.0 55.0 250.5ZM197.0 312.0 209.0 296.5H154.0L167.0 311.5Q172.5 318.0 176.75 323.0Q181.0 328.0 182.5 328.0Q183.5 328.0 187.75 323.0Q192.0 318.0 197.0 312.0ZM455.0 281.0Q459.5 278.0 458.5 275.75Q457.5 273.5 450.5 270.0Q445.0 266.5 442.0 266.5Q439.0 266.5 439.0 275.0Q439.0 285.5 444.5 285.5Q448.5 285.5 455.0 281.0ZM160.0 81.5Q156.5 81.5 146.75 77.75Q137.0 74.0 126.5 69.0Q117.0 63.5 110.0 60.25Q103.0 57.0 101.5 57.0Q101.0 57.0 101.0 57.0Q101.0 57.0 101.0 57.0Q100.5 58.5 100.0 67.25Q99.5 76.0 99.5 86.75Q99.5 97.5 100.0 105.5Q100.5 113.5 101.5 113.5Q102.5 113.0 114.0 109.5Q125.5 106.0 140.5 101.0Q165.5 92.5 171.0 87.0Q176.5 81.5 160.0 81.5ZM183.5 152.0 194.0 141.0H148.0L160.0 154.0Q165.5 159.0 169.25 162.5Q173.0 166.0 173.5 166.0Q174.0 165.5 177.0 161.5Q180.0 157.5 183.5 152.0ZM362.5 166.0Q371.0 158.0 375.5 152.5Q380.0 147.0 377.5 147.0Q375.5 147.0 361.75 154.25Q348.0 161.5 330.5 171.5L289.0 195.5L308.5 203.0Q318.5 206.0 326.0 206.0Q342.5 206.0 342.5 192.5Q342.5 190.0 348.5 182.25Q354.5 174.5 362.5 166.0ZM461.0 177.5Q461.0 172.5 458.0 172.5Q453.0 172.5 446.0 183.5Q439.0 194.5 440.25 197.25Q441.5 200.0 453.5 200.0Q468.0 200.0 464.0 191.0Q463.0 187.0 462.0 183.25Q461.0 179.5 461.0 177.5ZM493.5 103.5Q478.5 98.5 470.5 96.0Q462.5 93.5 458.0 93.5Q453.5 93.5 450.5 96.0Q447.5 98.5 442.0 103.5Q437.5 108.0 423.0 122.0Q408.5 136.0 392.5 151.0Q377.0 166.0 365.25 178.5Q353.5 191.0 353.0 192.5Q350.5 210.0 351.0 220.0Q351.5 230.0 356.25 238.5Q361.0 247.0 371.0 261.0Q379.5 272.0 386.75 284.75Q394.0 297.5 395.0 304.0Q398.5 319.5 417.25 327.25Q436.0 335.0 463.5 332.0Q469.5 331.5 486.5 326.5Q503.5 321.5 527.0 314.0Q550.5 306.5 575.25 298.0Q600.0 289.5 622.25 281.5Q644.5 273.5 659.25 267.25Q674.0 261.0 676.5 259.0Q678.0 258.5 671.75 249.75Q665.5 241.0 654.25 227.25Q643.0 213.5 628.5 198.0Q608.5 175.0 593.5 160.25Q578.5 145.5 564.5 135.75Q550.5 126.0 533.75 118.75Q517.0 111.5 493.5 103.5ZM545.0 51.5Q546.0 43.5 546.5 38.5Q547.0 33.5 546.0 33.5Q545.5 33.5 533.0 41.0Q520.5 48.5 504.5 58.5L464.5 84.0L488.0 89.5Q498.0 92.5 510.0 96.5Q522.0 100.5 529.0 104.5Q548.0 114.5 551.5 112.25Q555.0 110.0 549.0 92.0Q545.5 82.0 544.25 70.75Q543.0 59.5 545.0 51.5ZM477.0 346.0 449.0 343.0Q437.5 341.5 425.25 339.5Q413.0 337.5 407.5 336.0Q402.5 334.5 399.5 334.5Q396.0 334.5 398.0 340.5Q399.5 344.0 401.5 354.75Q403.5 365.5 405.5 377.0Q406.5 388.0 408.5 395.75Q410.5 403.5 412.0 403.5Q413.5 403.0 423.75 394.5Q434.0 386.0 446.5 374.5ZM532.5 28.0Q552.0 14.5 560.75 12.25Q569.5 10.0 563.5 21.0Q561.5 24.5 559.0 34.5Q556.5 44.5 555.0 55.0Q553.0 69.5 554.75 78.75Q556.5 88.0 564.0 101.5Q568.0 108.5 578.5 122.5Q589.0 136.5 603.75 153.5Q618.5 170.5 634.25 188.0Q650.0 205.5 664.0 220.25Q678.0 235.0 687.75 244.0Q697.5 253.0 700.0 253.0Q709.0 253.0 707.25 258.25Q705.5 263.5 695.5 267.0Q682.0 271.0 660.0 278.75Q638.0 286.5 613.0 296.0Q588.0 305.5 564.5 315.0Q541.0 324.5 524.0 331.75Q507.0 339.0 502.0 342.5Q496.5 346.0 486.5 354.0Q476.5 362.0 465.0 372.25Q453.5 382.5 443.0 393.0Q426.5 408.5 414.25 419.5Q402.0 430.5 401.0 430.5Q400.5 430.5 399.5 423.0Q398.5 415.5 397.5 404.5Q397.0 394.0 394.25 377.25Q391.5 360.5 389.0 348.0Q386.0 335.0 384.5 323.5Q383.0 312.0 384.0 309.0Q385.5 306.5 382.5 299.25Q379.5 292.0 375.0 285.5L362.5 268.0L246.5 270.5Q212.0 271.0 189.5 271.5Q167.0 272.0 152.5 273.25Q138.0 274.5 127.75 276.25Q117.5 278.0 107.25 281.5Q97.0 285.0 82.5 290.5Q52.0 301.5 36.5 306.5Q21.0 311.5 15.5 311.5Q12.0 311.5 11.75 309.5Q11.5 307.5 13.0 304.0Q18.5 290.0 19.5 275.75Q20.5 261.5 16.5 243.5Q10.0 216.5 19.5 216.5Q23.0 216.5 30.5 223.0Q66.5 254.0 132.5 258.0L177.0 260.5L174.0 220.5Q172.5 203.0 170.5 193.5Q168.5 184.0 164.75 178.0Q161.0 172.0 153.0 164.5Q146.0 157.5 137.5 150.75Q129.0 144.0 125.0 142.0Q111.5 135.0 123.25 132.5Q135.0 130.0 179.5 131.0L238.0 132.5L215.5 145.0Q206.0 150.0 198.0 156.25Q190.0 162.5 187.5 166.5Q184.5 172.5 183.0 185.5Q181.5 198.5 182.0 213.75Q182.5 229.0 185.0 242.0L188.5 258.5H356.0L337.5 240.5Q328.0 230.0 319.5 223.75Q311.0 217.5 300.5 213.25Q290.0 209.0 274.5 205.0L251.0 199.5L290.0 180.5Q307.5 172.0 328.0 160.75Q348.5 149.5 368.0 138.0Q387.5 126.5 403.5 116.25Q419.5 106.0 429.0 99.0Q438.5 92.0 438.0 90.0Q437.0 87.5 447.5 79.75Q458.0 72.0 473.0 64.0Q488.5 55.5 506.0 45.0Q523.5 34.5 532.5 28.0ZM453.5 148.5Q460.5 132.5 462.0 132.5Q464.0 132.5 468.5 163.0Q471.0 178.0 474.25 184.0Q477.5 190.0 484.0 192.0Q489.0 194.0 493.25 196.0Q497.5 198.0 498.5 200.0Q499.5 201.0 514.25 206.25Q529.0 211.5 548.5 217.0Q568.0 222.0 581.75 227.25Q595.5 232.5 595.5 234.5Q595.5 237.0 588.75 240.5Q582.0 244.0 572.5 246.5Q559.0 250.5 540.5 257.5Q522.0 264.5 503.25 272.0Q484.5 279.5 469.75 286.25Q455.0 293.0 449.0 297.0Q436.5 306.0 433.0 306.0Q429.0 306.0 429.0 288.5Q429.0 281.0 427.25 271.25Q425.5 261.5 423.5 255.5Q421.0 249.5 420.0 244.5Q419.0 239.5 420.0 238.5Q421.5 238.5 428.25 242.0Q435.0 245.5 443.0 250.5Q452.0 257.0 458.5 259.75Q465.0 262.5 473.0 262.5Q475.5 262.5 478.5 262.25Q481.5 262.0 485.0 261.5Q493.5 260.0 507.5 256.25Q521.5 252.5 535.5 247.75Q549.5 243.0 558.5 239.0Q567.5 235.0 566.5 233.5Q564.5 231.5 554.25 228.5Q544.0 225.5 529.25 222.25Q514.5 219.0 498.5 216.25Q482.5 213.5 468.5 211.75Q454.5 210.0 446.0 210.0H412.0L428.5 190.5Q435.5 182.0 442.75 169.75Q450.0 157.5 453.5 148.5ZM90.0 34.0Q91.0 32.5 100.5 40.0Q104.5 43.5 114.25 49.5Q124.0 55.5 133.5 60.5Q140.5 64.0 146.75 66.5Q153.0 69.0 162.25 70.5Q171.5 72.0 187.25 72.75Q203.0 73.5 228.5 74.0Q254.0 74.5 293.5 75.0Q330.5 75.5 361.25 76.5Q392.0 77.5 410.5 78.75Q429.0 80.0 429.0 81.5Q429.0 82.5 413.5 84.0Q398.0 85.5 372.0 86.75Q346.0 88.0 315.0 89.0Q279.5 89.5 254.75 90.25Q230.0 91.0 212.0 93.0Q194.0 95.0 179.5 98.5Q165.0 102.0 150.0 107.5Q135.0 113.0 116.0 121.5Q98.0 130.0 92.0 130.0Q91.0 130.0 90.25 121.5Q89.5 113.0 89.0 100.25Q88.5 87.5 88.5 73.75Q88.5 60.0 88.75 49.0Q89.0 38.0 90.0 34.0ZM128.0 288.5Q128.0 287.5 145.5 286.5Q163.0 285.5 187.5 285.5Q214.0 285.5 230.25 287.0Q246.5 288.5 246.5 291.0Q246.5 293.0 244.25 294.75Q242.0 296.5 239.5 296.5Q236.5 296.5 229.0 300.75Q221.5 305.0 214.0 311.5L195.0 327.5L197.0 387.0Q197.5 415.0 196.5 430.75Q195.5 446.5 193.0 446.5Q190.0 446.5 188.75 434.0Q187.5 421.5 187.5 402.0Q187.5 381.0 186.5 370.25Q185.5 359.5 182.0 352.25Q178.5 345.0 171.5 335.0Q165.0 326.5 156.5 317.0Q148.0 307.5 142.0 303.0Q137.0 298.0 132.5 294.0Q128.0 290.0 128.0 288.5Z" fill="black" /></svg>