<svg xmlns="http://www.w3.org/2000/svg" width="371.5" height="390.5" viewBox="0 0 371.5 390.5"><path d="M68.5 316.0Q56.0 309.5 46.5 305.25Q37.0 301.0 36.0 301.0Q35.0 301.0 34.0 309.0Q33.0 317.0 33.0 328.5Q33.0 342.5 34.25 349.0Q35.5 355.5 39.0 355.5Q42.0 355.5 51.0 349.0Q53.5 348.0 60.0 345.25Q66.5 342.5 73.5 340.5Q81.0 338.0 87.25 335.75Q93.5 333.5 94.5 333.0Q96.5 332.0 88.75 327.0Q81.0 322.0 68.5 316.0ZM53.5 97.5Q53.5 94.0 38.5 94.0H23.5L38.5 133.5L43.0 121.0Q44.5 115.5 46.5 110.5Q48.5 105.5 50.5 104.5Q53.5 102.0 53.5 97.5ZM129.0 193.0Q129.0 192.0 122.25 187.5Q115.5 183.0 106.5 179.5L85.0 169.0V212.5L106.5 204.0Q115.5 200.5 122.25 197.5Q129.0 194.5 129.0 193.0ZM174.0 250.5Q161.5 248.0 154.0 245.5Q149.0 243.5 149.0 246.25Q149.0 249.0 154.0 262.0Q156.5 270.0 159.0 276.0Q161.5 282.0 162.0 283.0Q163.5 283.0 169.25 277.0Q175.0 271.0 180.5 264.5Q186.0 258.0 186.0 256.5Q186.0 255.0 182.25 253.25Q178.5 251.5 174.0 250.5ZM109.0 45.0Q106.0 45.0 99.0 42.75Q92.0 40.5 85.0 37.0L67.0 28.0V48.0Q67.0 57.5 67.25 61.75Q67.5 66.0 71.5 66.0Q75.0 66.0 81.5 63.75Q88.0 61.5 99.0 58.0Q111.5 53.5 114.75 49.25Q118.0 45.0 109.0 45.0ZM190.0 128.5 180.0 110.5Q176.5 102.5 173.75 96.75Q171.0 91.0 171.0 91.0Q170.5 91.0 165.5 98.0Q160.5 105.0 155.5 112.75Q150.5 120.5 149.5 123.0Q149.0 123.5 154.75 125.0Q160.5 126.5 169.0 127.5ZM333.0 64.5 343.5 41.5H320.5Q310.5 41.5 302.5 42.5Q294.5 43.5 293.5 46.0Q292.5 48.0 294.5 58.5Q296.5 69.0 300.0 82.0Q306.5 103.0 309.5 112.0Q312.5 121.0 314.5 121.0Q315.5 121.0 318.0 108.0Q320.0 100.0 324.0 87.25Q328.0 74.5 333.0 64.5ZM27.0 280.0Q28.0 280.0 33.75 283.75Q39.5 287.5 47.5 293.5Q60.0 303.0 70.0 308.5Q80.0 314.0 95.0 316.5Q110.0 319.0 135.75 319.75Q161.5 320.5 205.0 320.5Q233.5 320.5 257.25 321.0Q281.0 321.5 295.0 322.0Q309.0 322.5 309.0 323.5Q309.0 325.0 294.0 326.5Q279.0 328.0 257.5 328.0Q243.5 328.0 226.5 328.0Q209.5 328.0 194.0 328.25Q178.5 328.5 168.0 328.5Q138.5 329.5 109.25 337.25Q80.0 345.0 49.5 360.0Q40.5 364.5 33.5 368.0Q26.5 371.5 25.5 371.5Q25.0 371.5 24.75 362.5Q24.5 353.5 24.75 340.25Q25.0 327.0 25.25 313.5Q25.5 300.0 26.0 290.5Q26.5 281.0 27.0 280.0ZM58.0 44.5Q58.0 30.0 59.25 20.0Q60.5 10.0 62.5 10.0Q67.0 10.0 67.0 13.5Q67.0 15.5 72.25 19.5Q77.5 23.5 85.5 28.5Q92.5 32.0 98.5 34.25Q104.5 36.5 114.25 37.5Q124.0 38.5 141.75 39.0Q159.5 39.5 190.0 40.0Q225.5 40.5 243.5 40.5Q261.5 40.5 267.5 39.25Q273.5 38.0 272.5 35.5Q271.5 31.5 279.75 30.5Q288.0 29.5 316.0 29.5Q335.0 30.0 348.25 30.25Q361.5 30.5 361.5 31.5Q361.5 31.5 358.75 36.75Q356.0 42.0 352.0 49.0Q344.0 61.5 338.75 71.25Q333.5 81.0 330.5 93.25Q327.5 105.5 326.25 124.0Q325.0 142.5 324.5 171.5Q324.0 200.5 324.0 244.5Q324.0 282.0 323.75 312.75Q323.5 343.5 323.25 362.0Q323.0 380.5 322.0 380.5Q320.5 380.5 319.0 369.5Q317.5 358.5 316.25 339.75Q315.0 321.0 314.25 298.0Q313.5 275.0 313.5 251.5V195.0H238.0Q208.5 195.0 188.5 196.0Q168.5 197.0 153.25 199.5Q138.0 202.0 124.0 206.75Q110.0 211.5 92.5 219.0Q86.0 222.0 80.25 224.0Q74.5 226.0 73.5 226.0Q73.0 226.0 73.0 218.75Q73.0 211.5 73.5 200.5Q74.0 189.5 75.0 178.5Q76.0 167.5 76.75 159.75Q77.5 152.0 78.0 151.5Q78.0 151.5 78.25 151.25Q78.5 151.0 78.5 151.0Q80.0 151.0 83.25 153.25Q86.5 155.5 90.0 159.0Q98.5 166.5 107.25 171.5Q116.0 176.5 128.5 179.25Q141.0 182.0 160.5 183.5Q180.0 185.0 209.5 185.5Q240.0 186.0 261.5 185.5Q283.0 185.0 283.0 184.0Q283.0 182.0 271.25 174.75Q259.5 167.5 242.5 158.5Q228.0 151.0 219.0 146.5Q210.0 142.0 202.75 139.75Q195.5 137.5 187.25 136.75Q179.0 136.0 166.0 136.0Q150.5 136.0 139.5 135.5Q128.5 135.0 128.5 135.0Q128.5 134.0 133.0 127.25Q137.5 120.5 144.5 111.25Q151.5 102.0 158.75 93.0Q166.0 84.0 171.0 78.0Q176.0 72.0 177.0 72.0Q178.0 72.0 180.0 77.0Q182.0 82.0 183.0 90.0Q184.0 97.5 188.0 105.5Q192.0 113.5 196.0 118.0Q198.5 120.5 210.25 128.0Q222.0 135.5 238.25 145.25Q254.5 155.0 270.75 164.25Q287.0 173.5 298.5 179.75Q310.0 186.0 311.5 186.0Q314.0 186.0 313.25 177.25Q312.5 168.5 310.0 154.25Q307.5 140.0 303.5 123.5Q299.5 107.0 295.0 91.75Q290.5 76.5 286.0 66.0L278.5 49.5H215.5Q191.0 49.5 174.75 50.5Q158.5 51.5 147.0 53.25Q135.5 55.0 124.0 58.0Q90.5 68.5 78.75 74.0Q67.0 79.5 67.0 85.5Q67.0 89.0 64.0 96.0Q61.0 103.0 57.0 110.5Q53.5 116.0 51.5 121.5Q49.5 127.0 48.5 136.0Q47.5 145.0 47.0 160.5Q46.5 176.0 46.0 202.0Q46.0 232.5 45.5 249.0Q45.0 265.5 44.75 272.0Q44.5 278.5 43.5 278.5Q43.0 278.5 42.25 276.5Q41.5 274.5 40.5 272.5Q39.0 268.5 38.0 250.25Q37.0 232.0 37.0 209.5Q36.5 189.5 35.5 175.5Q34.5 161.5 32.0 149.75Q29.5 138.0 24.75 124.5Q20.0 111.0 12.0 92.5Q10.0 87.0 13.5 86.0Q17.0 85.0 33.0 85.0Q44.0 85.0 51.0 84.0Q58.0 83.0 58.0 82.0Q57.5 80.0 57.5 69.25Q57.5 58.5 58.0 44.5ZM247.5 220.0Q272.5 209.0 283.75 204.75Q295.0 200.5 298.0 200.5Q300.5 200.5 299.5 204.0Q299.0 206.0 285.5 212.75Q272.0 219.5 254.5 226.5Q230.5 236.0 216.0 244.25Q201.5 252.5 192.25 262.25Q183.0 272.0 174.0 286.5Q169.0 294.5 165.0 299.25Q161.0 304.0 159.0 302.5Q157.5 300.5 153.0 289.0Q148.5 277.5 144.0 263.5Q139.5 249.5 136.25 238.75Q133.0 228.0 133.5 227.5Q133.5 227.5 133.75 227.5Q134.0 227.5 134.0 227.5Q136.0 227.5 141.75 229.75Q147.5 232.0 154.0 235.0Q161.0 238.5 166.5 240.5Q172.0 242.5 178.5 242.5Q189.0 242.5 204.5 237.0Q220.0 231.5 247.5 220.0Z" fill="black" /></svg>