<svg xmlns="http://www.w3.org/2000/svg" width="483.5" height="380.5" viewBox="0 0 483.5 380.5"><path d="M72.5 183.0Q57.0 176.0 45.75 171.25Q34.5 166.5 33.5 166.5Q33.0 166.5 32.25 175.75Q31.5 185.0 31.5 199.5Q31.5 217.5 33.0 225.0Q34.5 232.5 39.0 231.5Q54.0 227.0 70.0 221.25Q86.0 215.5 97.25 210.5Q108.5 205.5 108.5 204.0Q108.5 202.0 97.75 195.75Q87.0 189.5 72.5 183.0ZM129.5 202.5Q130.5 201.5 128.5 200.5Q126.5 199.5 122.0 199.5Q117.5 199.5 116.5 200.75Q115.5 202.0 119.0 203.0Q125.5 205.5 129.5 202.5ZM305.0 275.0V250.5Q305.0 240.5 304.0 233.75Q303.0 227.0 302.0 227.0Q300.5 227.0 293.0 233.25Q285.5 239.5 276.0 248.0Q266.5 256.5 259.5 263.5Q252.5 270.5 252.5 271.5Q252.5 272.5 260.25 273.0Q268.0 273.5 279.0 274.5ZM409.5 247.5 405.5 204.5H365.0Q345.5 204.5 336.75 205.25Q328.0 206.0 324.75 209.0Q321.5 212.0 318.5 219.0Q310.0 243.0 316.5 262.5Q318.0 265.5 326.75 273.75Q335.5 282.0 348.0 292.75Q360.5 303.5 373.0 313.75Q385.5 324.0 395.0 330.75Q404.5 337.5 407.0 337.5Q412.5 337.5 413.0 315.5Q413.5 293.5 409.5 247.5ZM141.5 24.5Q141.5 23.5 132.25 23.0Q123.0 22.5 108.5 22.5Q94.5 22.5 85.25 23.5Q76.0 24.5 76.5 26.0Q77.5 28.0 82.0 39.5Q86.5 51.0 91.5 65.0Q103.5 95.5 110.5 95.5Q114.5 95.5 114.5 84.0Q114.5 80.5 118.5 70.25Q122.5 60.0 128.0 50.0Q133.5 40.5 137.5 32.75Q141.5 25.0 141.5 24.5ZM446.0 31.5Q446.0 29.5 435.75 28.5Q425.5 27.5 410.0 27.5Q395.0 27.5 384.5 29.0Q374.0 30.5 374.0 33.0Q374.0 35.0 377.5 42.0Q381.0 49.0 384.5 57.0Q388.5 64.0 392.75 74.5Q397.0 85.0 399.0 92.0Q403.0 109.5 406.5 109.5Q411.0 109.5 418.5 87.0Q421.0 77.0 426.5 66.0Q432.0 55.0 435.5 48.5Q440.0 43.0 443.0 37.75Q446.0 32.5 446.0 31.5ZM59.0 12.0Q59.0 11.0 68.0 10.5Q77.0 10.0 89.5 10.0Q104.5 10.0 121.25 10.5Q138.0 11.0 150.25 12.0Q162.5 13.0 163.5 14.0Q164.0 14.5 160.5 20.75Q157.0 27.0 150.5 34.5Q139.0 50.0 132.25 64.75Q125.5 79.5 122.75 97.25Q120.0 115.0 120.0 140.0V186.5L165.5 190.5Q178.0 191.0 201.75 191.75Q225.5 192.5 254.0 193.0Q282.5 193.5 309.5 193.5H407.0V171.5Q407.0 162.0 403.25 145.5Q399.5 129.0 393.25 109.75Q387.0 90.5 379.5 72.5Q372.0 54.5 365.0 42.0Q360.0 32.0 356.25 25.0Q352.5 18.0 352.5 16.5Q352.5 16.0 359.0 15.75Q365.5 15.5 376.0 15.5Q389.0 15.5 405.25 15.75Q421.5 16.0 436.5 16.75Q451.5 17.5 461.75 18.0Q472.0 18.5 472.5 19.5Q473.5 20.5 469.75 25.0Q466.0 29.5 459.5 36.0Q454.0 42.0 446.25 53.75Q438.5 65.5 433.5 76.5Q429.0 85.5 426.75 94.25Q424.5 103.0 423.25 118.0Q422.0 133.0 422.0 160.75Q422.0 188.5 422.0 236.0Q422.0 273.0 421.5 303.75Q421.0 334.5 420.0 352.5Q419.0 370.5 417.5 370.5Q416.0 370.5 414.5 368.0Q413.0 365.5 413.0 362.0Q413.0 354.0 408.5 354.0Q407.0 354.0 394.0 344.5Q381.0 335.0 365.0 321.5Q348.0 307.5 337.25 300.5Q326.5 293.5 317.5 290.25Q308.5 287.0 295.5 285.5Q283.5 284.5 268.0 285.0Q252.5 285.5 243.0 287.0Q231.5 289.5 224.0 289.5Q217.5 289.5 216.5 288.0Q216.0 286.0 224.0 278.25Q232.0 270.5 243.5 261.0Q256.0 251.0 269.0 239.25Q282.0 227.5 288.5 221.0L304.5 204.5H237.0Q218.5 204.5 199.5 205.25Q180.5 206.0 165.75 207.5Q151.0 209.0 144.0 210.5L120.0 216.5V288.0Q120.0 321.0 118.5 340.5Q117.0 360.0 114.5 360.0Q112.0 360.0 110.25 342.25Q108.5 324.5 108.5 294.0Q108.5 266.0 107.25 246.0Q106.0 226.0 103.5 224.0Q101.5 223.0 87.5 227.25Q73.5 231.5 56.0 238.5Q39.0 245.5 26.0 249.5Q13.0 253.5 12.0 252.5Q10.0 251.5 11.0 247.5Q12.0 243.5 14.0 239.0Q17.0 234.0 18.5 217.75Q20.0 201.5 20.0 183.0V138.0L44.0 153.5Q62.0 166.0 79.5 174.5Q97.0 183.0 103.5 183.0Q108.5 183.0 108.5 172.5Q108.5 165.5 104.75 149.5Q101.0 133.5 95.5 113.5Q90.0 93.5 83.75 75.0Q77.5 56.5 72.5 45.0Q67.0 33.0 63.0 23.25Q59.0 13.5 59.0 12.0Z" fill="black" /></svg>