<svg xmlns="http://www.w3.org/2000/svg" width="493.5" height="456.5" viewBox="0 0 493.5 456.5"><path d="M89.0 273.0Q90.0 272.5 87.0 265.5Q84.0 258.5 79.0 249.0L67.0 226.0L37.5 263.5L63.0 269.0Q74.0 270.5 81.5 272.25Q89.0 274.0 89.0 273.0ZM103.0 134.5Q103.0 134.5 95.0 133.5Q87.0 132.5 75.5 131.5L47.0 129.5L71.5 173.0L88.0 153.5Q95.0 146.5 99.0 140.5Q103.0 134.5 103.0 134.5ZM309.0 104.0Q281.5 90.0 258.75 82.25Q236.0 74.5 224.5 74.5Q218.5 74.5 217.0 77.0Q216.5 79.0 204.5 85.75Q192.5 92.5 176.5 101.0Q166.0 106.5 153.5 114.25Q141.0 122.0 129.75 130.25Q118.5 138.5 111.5 145.5Q98.5 157.5 93.0 164.25Q87.5 171.0 85.75 178.5Q84.0 186.0 83.0 200.5Q81.5 218.5 83.25 228.75Q85.0 239.0 90.0 250.5Q96.5 262.5 110.0 279.25Q123.5 296.0 139.5 311.5Q155.5 327.0 168.5 335.5Q177.0 341.5 185.25 344.75Q193.5 348.0 203.0 348.0Q217.5 348.0 237.5 340.75Q257.5 333.5 288.0 318.5Q302.5 311.0 324.75 298.5Q347.0 286.0 371.0 271.25Q395.0 256.5 416.25 243.0Q437.5 229.5 450.75 220.25Q464.0 211.0 464.0 209.0Q464.0 206.5 452.25 197.0Q440.5 187.5 421.75 174.5Q403.0 161.5 381.75 147.5Q360.5 133.5 341.25 121.75Q322.0 110.0 309.0 104.0ZM297.0 48.5Q294.5 40.5 291.5 35.5Q288.5 30.5 287.5 30.5Q285.5 30.5 278.5 35.25Q271.5 40.0 263.25 46.25Q255.0 52.5 249.0 58.0Q243.0 63.5 243.0 65.0Q243.0 67.0 245.75 68.25Q248.5 69.5 252.0 69.5Q256.0 69.5 268.5 73.75Q281.0 78.0 295.0 84.0L327.5 98.5L316.5 83.0Q312.5 76.0 306.75 66.25Q301.0 56.5 297.0 48.5ZM259.0 362.0Q268.5 350.5 275.0 342.5Q281.5 334.5 280.5 334.5Q280.0 334.5 271.25 338.0Q262.5 341.5 250.0 346.5Q239.0 351.5 226.0 355.0Q213.0 358.5 207.5 358.5Q199.0 358.5 196.0 360.25Q193.0 362.0 195.25 369.25Q197.5 376.5 204.5 393.0L216.5 418.0L226.0 405.0Q229.5 399.5 238.75 386.5Q248.0 373.5 259.0 362.0ZM272.0 27.0Q291.0 10.0 297.0 10.0Q302.0 10.0 302.0 23.5Q302.0 38.5 314.25 60.0Q326.5 81.5 347.5 103.25Q368.5 125.0 394.0 142.0Q408.5 153.0 426.75 166.25Q445.0 179.5 456.0 189.0L483.5 211.0L432.5 245.5Q419.0 254.5 404.25 264.0Q389.5 273.5 377.25 281.25Q365.0 289.0 358.0 292.5Q339.0 303.5 317.5 321.25Q296.0 339.0 276.25 359.75Q256.5 380.5 242.0 400.0Q227.5 419.5 222.5 434.0Q217.5 446.5 214.0 446.5Q209.5 446.5 206.5 430.0Q201.5 400.5 186.25 377.0Q171.0 353.5 142.5 327.5Q112.0 299.5 85.5 287.0Q59.0 274.5 34.5 275.0Q26.5 276.0 19.5 276.25Q12.5 276.5 11.0 276.5Q10.0 275.5 18.25 265.75Q26.5 256.0 39.0 242.5Q52.0 229.0 61.25 217.0Q70.5 205.0 70.5 202.0Q70.5 199.0 64.25 184.5Q58.0 170.0 49.0 153.0Q39.5 135.5 33.5 123.25Q27.5 111.0 28.5 110.0Q28.5 110.0 28.75 109.75Q29.0 109.5 29.5 109.5Q31.5 109.5 36.75 111.75Q42.0 114.0 49.0 117.0Q56.5 120.0 64.5 121.25Q72.5 122.5 80.5 122.5Q115.5 122.5 162.5 98.5Q178.5 89.5 191.25 82.0Q204.0 74.5 206.0 72.0Q207.5 70.0 215.0 65.25Q222.5 60.5 230.5 57.0Q238.5 53.0 250.5 44.0Q262.5 35.0 272.0 27.0Z" fill="black" /></svg>