<svg xmlns="http://www.w3.org/2000/svg" width="642.5" height="381.5" viewBox="0 0 642.5 381.5"><path d="M104.0 197.5Q106.5 190.5 107.5 184.75Q108.5 179.0 107.5 178.5Q107.0 178.5 96.75 187.0Q86.5 195.5 74.0 208.5L41.5 241.0L65.0 244.0Q75.0 245.0 81.5 245.75Q88.0 246.5 92.5 246.5Q100.5 246.5 101.25 243.0Q102.0 239.5 101.0 231.0Q100.0 224.0 101.0 214.25Q102.0 204.5 104.0 197.5ZM178.0 67.5Q180.0 62.5 176.25 61.25Q172.5 60.0 158.0 60.0Q140.0 60.0 137.0 63.0Q134.0 66.0 141.5 76.0Q144.0 79.5 147.75 88.0Q151.5 96.5 153.5 104.5L158.5 123.0L167.0 100.0Q171.0 90.0 174.0 80.5Q177.0 71.0 178.0 67.5ZM199.0 197.5Q203.0 193.5 203.25 190.75Q203.5 188.0 200.0 183.0Q196.5 178.5 195.0 178.5Q193.5 178.5 191.0 187.5Q187.0 202.0 192.5 202.0Q194.5 202.0 199.0 197.5ZM445.0 208.0Q446.5 198.0 437.0 198.0Q427.0 198.0 413.0 209.5L400.0 220.5L422.0 219.0Q436.0 218.5 440.0 216.5Q444.0 214.5 445.0 208.0ZM535.0 204.0 505.0 201.0Q477.5 198.0 467.5 198.0Q459.0 198.0 457.0 200.0Q455.0 202.0 455.0 207.0Q455.0 216.0 461.5 216.0Q466.0 216.0 466.75 217.0Q467.5 218.0 464.0 222.0Q460.5 226.5 462.75 229.0Q465.0 231.5 475.0 235.5Q482.0 238.5 487.5 240.5Q493.0 242.5 494.5 242.5Q495.5 242.5 501.25 245.75Q507.0 249.0 513.5 253.5Q520.5 258.0 525.75 261.5Q531.0 265.0 532.0 265.0Q533.0 265.0 534.0 255.75Q535.0 246.5 535.0 234.0ZM286.0 63.0Q286.0 62.0 279.75 61.0Q273.5 60.0 263.5 60.0Q248.5 60.0 243.5 63.5Q238.5 67.0 246.5 71.5Q247.5 72.5 251.25 80.5Q255.0 88.5 258.5 98.5L266.0 123.0L275.5 94.5Q279.5 83.0 282.75 74.0Q286.0 65.0 286.0 63.0ZM297.5 178.0Q286.5 173.5 277.75 170.0Q269.0 166.5 268.0 166.5Q267.0 166.5 264.75 172.25Q262.5 178.0 260.5 185.5Q258.5 193.0 257.25 199.25Q256.0 205.5 257.0 206.5Q258.0 207.0 266.25 206.0Q274.5 205.0 286.75 202.75Q299.0 200.5 311.5 198.0Q324.0 195.5 332.5 193.5Q342.5 191.0 342.75 190.5Q343.0 190.0 335.0 190.0Q330.5 189.0 319.25 185.75Q308.0 182.5 297.5 178.0ZM377.0 67.5Q379.5 62.5 375.75 61.25Q372.0 60.0 356.0 60.0H332.0L341.5 81.0Q346.0 89.5 349.5 97.75Q353.0 106.0 353.0 109.5Q353.0 114.5 355.0 117.5Q357.0 120.5 359.0 120.5Q362.0 120.5 362.0 115.0Q362.0 109.5 366.25 97.0Q370.5 84.5 377.0 67.5ZM455.0 180.0Q457.5 176.5 458.0 173.75Q458.5 171.0 458.0 171.0Q457.5 171.0 454.5 173.75Q451.5 176.5 448.0 180.0Q440.5 189.0 445.0 189.0Q450.0 189.0 455.0 180.0ZM569.0 25.5Q570.0 23.0 569.25 21.75Q568.5 20.5 566.0 21.0Q563.0 21.5 554.25 22.0Q545.5 22.5 536.0 23.5Q526.5 24.0 519.5 25.25Q512.5 26.5 512.5 27.0Q512.5 28.0 515.5 34.5Q518.5 41.0 522.5 48.0Q526.5 56.0 531.0 68.75Q535.5 81.5 537.5 91.5Q542.0 110.5 542.5 110.5Q543.0 110.5 545.5 102.0Q546.5 97.5 549.75 87.0Q553.0 76.5 556.75 64.25Q560.5 52.0 564.0 41.25Q567.5 30.5 569.0 25.5ZM152.0 50.5Q166.0 49.5 177.75 48.75Q189.5 48.0 191.5 48.0Q197.0 47.0 196.5 50.5Q196.0 54.0 188.5 68.5Q174.0 97.0 166.75 131.0Q159.5 165.0 158.5 211.5L156.5 271.5L203.5 295.0Q222.5 304.5 236.25 312.75Q250.0 321.0 250.0 322.5Q250.0 326.0 248.5 326.0Q246.0 326.0 237.75 321.75Q229.5 317.5 209.0 307.0Q192.5 298.5 179.5 292.5Q166.5 286.5 164.0 286.5Q160.0 286.5 158.5 291.0Q157.0 295.5 157.0 307.0Q157.0 315.0 156.0 321.0Q155.0 327.0 152.5 327.0Q151.0 327.0 149.5 319.75Q148.0 312.5 148.0 303.0Q148.0 289.0 146.5 283.5Q145.0 278.0 140.5 276.0Q113.0 264.5 91.75 259.25Q70.5 254.0 47.0 252.0L10.0 249.0L36.5 229.5Q45.5 223.0 59.0 210.5Q72.5 198.0 86.75 183.25Q101.0 168.5 112.5 155.0Q124.0 141.5 129.5 133.0Q133.0 127.5 133.75 127.75Q134.5 128.0 134.5 136.0Q134.5 140.5 133.0 146.25Q131.5 152.0 128.5 156.0Q125.0 161.5 121.25 172.0Q117.5 182.5 114.5 194.5Q111.5 206.5 110.25 216.5Q109.0 226.5 110.0 231.0Q113.5 243.0 122.0 246.0Q130.0 248.5 130.0 253.5Q130.0 255.5 132.5 258.5Q135.0 261.5 138.5 264.0Q141.0 266.0 143.0 266.0Q145.5 266.0 146.75 259.0Q148.0 252.0 149.5 232.5Q150.5 222.5 150.5 207.75Q150.5 193.0 150.25 177.0Q150.0 161.0 149.0 148.0Q147.0 126.5 145.25 114.75Q143.5 103.0 140.5 95.0Q137.5 87.0 131.0 77.5Q125.5 68.5 121.5 61.25Q117.5 54.0 117.5 53.5Q117.5 52.5 127.5 51.75Q137.5 51.0 152.0 50.5ZM563.5 12.0Q568.5 11.0 572.5 10.5Q576.5 10.0 579.0 10.0Q590.5 10.0 584.5 17.5Q580.5 23.0 575.25 37.0Q570.0 51.0 564.5 69.5Q559.0 88.0 554.25 107.5Q549.5 127.0 546.75 143.75Q544.0 160.5 544.0 170.5V193.5H574.0Q599.5 193.5 616.0 196.0Q632.5 198.5 632.5 202.5Q632.5 203.5 619.5 204.0Q606.5 204.5 588.5 203.5L544.0 201.0V259.0Q544.0 290.5 542.75 316.0Q541.5 341.5 539.5 356.5Q537.5 371.5 535.0 371.5Q533.5 371.5 533.25 357.25Q533.0 343.0 533.5 323.5L536.0 276.0L509.5 262.0Q481.5 246.5 453.5 237.75Q425.5 229.0 404.0 229.0Q394.0 229.0 386.5 228.25Q379.0 227.5 379.0 226.0Q379.0 224.0 384.0 220.0Q389.0 216.0 396.5 211.5L413.0 200.5L391.0 199.0Q378.0 198.0 371.0 198.5Q364.0 199.0 361.25 204.5Q358.5 210.0 358.0 224.25Q357.5 238.5 357.5 265.0Q357.5 293.5 356.0 310.25Q354.5 327.0 353.0 327.0Q351.0 327.0 349.75 310.25Q348.5 293.5 348.5 265.0V202.0L325.0 205.0Q301.0 208.0 289.0 210.75Q277.0 213.5 272.5 218.25Q268.0 223.0 266.5 232.5Q265.5 239.0 264.5 255.5Q263.5 272.0 263.5 288.0Q263.5 327.0 258.5 327.0Q255.5 327.0 255.25 315.0Q255.0 303.0 257.0 274.0L260.0 220.0H248.0Q239.0 220.0 238.0 218.0Q237.0 216.0 242.0 207.0Q244.5 202.0 243.0 199.75Q241.5 197.5 234.5 196.0Q225.0 193.5 210.0 201.75Q195.0 210.0 184.0 223.0Q180.5 227.5 177.5 229.5Q174.5 231.5 173.5 230.5Q173.0 229.0 174.5 217.75Q176.0 206.5 179.25 191.75Q182.5 177.0 185.75 163.75Q189.0 150.5 191.5 145.0Q191.5 143.5 192.5 143.5Q196.0 143.5 201.5 160.0Q206.5 175.0 210.0 179.0Q213.5 183.0 226.0 185.5Q231.5 186.5 235.5 187.25Q239.5 188.0 242.5 188.0Q251.0 188.0 252.75 179.75Q254.5 171.5 254.5 148.0Q254.5 90.5 230.0 64.0Q226.5 60.5 225.0 57.5Q223.5 54.5 224.0 54.0Q224.5 53.5 232.75 52.75Q241.0 52.0 253.0 51.25Q265.0 50.5 276.5 50.0Q288.0 49.5 296.0 49.5Q304.0 49.5 304.0 50.5Q304.0 52.0 295.0 68.5Q292.5 73.5 288.5 83.75Q284.5 94.0 280.75 106.25Q277.0 118.5 274.25 129.0Q271.5 139.5 270.5 145.5Q269.0 150.0 278.25 157.0Q287.5 164.0 302.25 170.0Q317.0 176.0 331.0 178.5L350.0 181.5L347.5 144.0Q347.0 128.0 345.25 118.0Q343.5 108.0 340.25 99.5Q337.0 91.0 331.0 80.5Q325.5 69.5 321.75 61.75Q318.0 54.0 318.5 53.5Q319.0 52.5 329.75 51.75Q340.5 51.0 356.0 50.5Q381.0 49.5 387.0 50.0Q393.0 50.5 391.0 55.5Q390.0 58.5 385.75 71.5Q381.5 84.5 376.0 100.0Q370.5 115.5 365.5 133.25Q360.5 151.0 359.5 160.5L356.5 183.0L389.0 186.0Q395.5 186.5 400.5 187.0Q405.5 187.5 409.5 187.5Q419.0 187.5 426.25 184.5Q433.5 181.5 443.25 172.75Q453.0 164.0 470.5 148.0Q482.5 136.0 492.25 128.0Q502.0 120.0 503.0 120.0Q503.5 120.5 498.0 130.5Q492.5 140.5 484.0 154.0Q475.0 166.5 469.25 176.25Q463.5 186.0 464.5 187.0Q465.5 187.5 476.25 189.0Q487.0 190.5 501.5 192.0L536.0 195.0L533.5 144.0Q531.5 104.5 524.0 76.5Q516.5 48.5 503.5 32.5Q495.5 22.0 495.5 17.75Q495.5 13.5 506.0 13.5Q509.0 13.5 512.75 13.75Q516.5 14.0 521.0 14.5Q531.0 15.0 543.75 14.5Q556.5 14.0 563.5 12.0Z" fill="black" /></svg>