<svg xmlns="http://www.w3.org/2000/svg" width="904.5" height="460.0" viewBox="0 0 904.5 460.0"><path d="M166.5 347.5 143.0 332.5Q132.5 326.0 119.0 314.75Q105.5 303.5 96.5 292.5L76.0 268.0L56.5 304.0Q49.5 319.0 43.5 330.5Q37.5 342.0 36.5 344.0Q36.0 345.0 55.0 346.25Q74.0 347.5 100.0 347.5ZM252.0 300.5Q249.0 300.5 244.5 295.75Q240.0 291.0 237.5 286.0L230.5 271.5L219.0 289.5Q215.0 296.0 211.75 302.0Q208.5 308.0 208.5 309.0Q209.5 309.0 216.75 307.75Q224.0 306.5 234.0 305.0Q244.5 304.0 249.5 302.25Q254.5 300.5 252.0 300.5ZM395.0 284.0 353.5 271.0Q334.0 264.5 315.0 260.75Q296.0 257.0 282.5 257.0Q262.0 257.5 252.75 259.0Q243.5 260.5 243.25 264.75Q243.0 269.0 248.0 278.0Q252.0 285.5 261.75 292.25Q271.5 299.0 292.5 307.25Q313.5 315.5 349.5 327.5Q365.0 333.0 376.5 338.75Q388.0 344.5 389.0 347.0Q389.5 349.5 373.75 345.5Q358.0 341.5 335.0 334.0Q307.5 324.0 292.75 320.5Q278.0 317.0 263.5 317.0Q258.5 317.0 253.0 317.0Q247.5 317.0 240.5 318.0Q218.5 319.0 209.5 320.25Q200.5 321.5 198.5 324.5Q196.5 327.5 195.5 335.0Q195.0 339.5 198.5 343.0Q202.0 346.5 214.75 351.5Q227.5 356.5 253.5 365.5Q270.0 371.0 288.75 377.25Q307.5 383.5 325.0 389.25Q342.5 395.0 353.5 399.5L395.0 411.0ZM520.0 327.5 484.0 318.5Q469.0 315.0 453.75 310.0Q438.5 305.0 432.5 301.5L416.5 294.5V364.0L437.0 354.5Q445.0 351.5 460.25 346.25Q475.5 341.0 488.5 338.0ZM161.5 79.5Q158.5 79.5 149.75 74.0Q141.0 68.5 132.5 60.5L111.0 41.5L108.5 59.5Q103.5 92.0 103.0 107.25Q102.5 122.5 107.0 122.5Q110.0 122.5 116.0 115.0Q118.5 111.0 127.25 106.25Q136.0 101.5 146.5 97.5Q163.5 91.5 168.25 85.5Q173.0 79.5 161.5 79.5ZM190.5 204.5 199.0 177.0 208.0 160.5H191.5Q178.0 160.5 177.75 163.0Q177.5 165.5 182.5 181.0ZM282.5 246.0 273.0 231.0Q269.5 224.5 266.75 219.75Q264.0 215.0 263.0 214.5Q262.5 214.5 259.25 218.5Q256.0 222.5 253.5 229.0L244.0 246.0ZM309.5 172.0Q309.5 170.0 306.25 165.25Q303.0 160.5 299.25 156.25Q295.5 152.0 294.0 152.0Q292.0 152.0 288.5 159.0Q282.5 171.0 283.5 173.75Q284.5 176.5 295.5 176.5Q301.0 176.5 305.25 175.25Q309.5 174.0 309.5 172.0ZM395.0 209.0 360.0 195.5Q346.0 190.0 332.25 186.0Q318.5 182.0 313.0 182.0Q291.5 183.5 281.75 186.75Q272.0 190.0 272.0 197.25Q272.0 204.5 279.0 219.0Q284.5 228.0 294.75 234.5Q305.0 241.0 329.5 251.0Q354.5 260.5 368.0 265.25Q381.5 270.0 387.5 270.0Q394.5 270.0 394.75 263.25Q395.0 256.5 395.0 242.0ZM811.0 184.0Q811.0 183.0 798.0 182.5Q785.0 182.0 763.25 181.75Q741.5 181.5 714.75 181.25Q688.0 181.0 661.0 181.0Q632.5 181.0 606.5 181.25Q580.5 181.5 562.5 181.75Q544.5 182.0 539.5 182.5Q519.5 185.0 497.5 191.5Q475.5 198.0 457.75 205.5Q440.0 213.0 433.0 219.0Q423.0 229.0 419.5 229.0Q416.5 229.0 416.5 222.0Q416.5 213.0 411.5 216.5Q409.5 218.0 407.75 226.0Q406.0 234.0 406.0 243.5Q406.0 261.5 413.0 273.0Q420.0 284.5 439.0 292.75Q458.0 301.0 494.0 311.0Q505.5 314.0 519.0 316.25Q532.5 318.5 551.75 320.0Q571.0 321.5 599.5 322.75Q628.0 324.0 670.0 325.0L807.5 327.5L809.5 256.5Q810.0 226.5 810.5 205.25Q811.0 184.0 811.0 184.0ZM443.5 30.5Q443.5 28.5 430.75 27.5Q418.0 26.5 400.5 26.5H357.0L370.0 51.5Q375.5 62.5 382.25 79.0Q389.0 95.5 393.0 108.5L402.0 140.5L417.0 93.5Q423.5 73.0 429.75 57.75Q436.0 42.5 438.0 41.0Q440.0 38.0 441.75 35.0Q443.5 32.0 443.5 30.5ZM414.5 202.0Q416.0 200.5 416.0 192.25Q416.0 184.0 415.0 173.0L413.5 146.5L411.0 173.5Q409.0 193.5 409.75 199.75Q410.5 206.0 414.5 202.0ZM521.5 173.5 482.0 162.0Q466.0 157.0 452.5 151.75Q439.0 146.5 435.0 144.0Q433.0 142.0 431.0 142.0Q428.5 142.0 427.75 148.75Q427.0 155.5 427.0 173.0V208.0L447.5 198.5Q457.0 194.5 470.5 189.0Q484.0 183.5 495.0 181.0ZM853.0 39.5 862.0 26.5H815.5Q796.5 26.5 784.0 27.5Q771.5 28.5 772.0 30.0Q773.0 32.0 777.75 40.75Q782.5 49.5 787.5 60.5Q793.5 72.0 799.5 87.0Q805.5 102.0 808.0 112.0L815.0 135.5L829.5 95.0Q835.0 77.5 842.25 61.75Q849.5 46.0 853.0 39.5ZM336.5 22.5Q336.5 18.5 351.0 17.0Q365.5 15.5 402.0 15.5Q429.5 15.5 449.75 16.5Q470.0 17.5 471.0 19.0Q472.5 19.5 469.0 24.75Q465.5 30.0 460.0 35.5Q453.0 41.0 446.0 52.25Q439.0 63.5 433.5 76.5Q428.0 89.5 425.25 100.75Q422.5 112.0 424.0 117.5Q428.0 128.0 444.0 136.25Q460.0 144.5 498.0 155.5Q511.0 159.0 523.75 161.25Q536.5 163.5 554.75 165.0Q573.0 166.5 601.25 167.5Q629.5 168.5 673.5 169.5Q702.0 170.0 723.25 170.75Q744.5 171.5 760.0 171.5Q783.5 171.5 794.5 169.0Q805.5 166.5 807.25 159.75Q809.0 153.0 805.0 140.5Q801.0 128.0 795.0 108.0Q788.5 87.0 779.5 68.5Q770.5 50.0 762.25 38.25Q754.0 26.5 749.5 26.5Q747.0 26.5 745.5 24.5Q744.0 22.5 744.0 21.0Q744.0 18.0 764.0 16.75Q784.0 15.5 819.0 15.5Q854.0 15.5 874.25 16.75Q894.5 18.0 894.5 21.0Q894.5 22.5 892.25 24.5Q890.0 26.5 886.0 26.5Q876.0 26.5 863.0 46.75Q850.0 67.0 838.5 101.0Q834.0 114.5 831.25 124.75Q828.5 135.0 826.5 146.75Q824.5 158.5 823.5 175.75Q822.5 193.0 821.75 220.25Q821.0 247.5 820.0 289.5Q819.5 329.0 818.25 362.0Q817.0 395.0 815.75 414.5Q814.5 434.0 813.0 434.0Q811.0 434.0 809.5 419.75Q808.0 405.5 808.0 385.5V338.5L691.5 336.0Q644.5 335.0 611.0 335.25Q577.5 335.5 552.75 337.5Q528.0 339.5 508.75 343.5Q489.5 347.5 471.0 354.0Q406.0 376.0 406.0 402.0Q406.0 411.5 411.25 415.5Q416.5 419.5 438.0 425.5Q451.5 429.5 461.0 433.75Q470.5 438.0 470.5 440.0Q470.5 444.0 466.0 444.0Q460.0 444.0 438.0 436.0Q428.0 432.5 421.75 430.75Q415.5 429.0 412.0 429.0Q406.0 429.0 406.0 439.0Q406.0 450.0 400.5 450.0Q398.5 450.0 396.75 446.0Q395.0 442.0 395.0 437.5Q395.0 432.5 392.5 429.0Q390.0 425.5 381.0 421.25Q372.0 417.0 353.5 410.75Q335.0 404.5 303.0 394.0Q272.5 384.0 252.25 377.5Q232.0 371.0 216.75 367.5Q201.5 364.0 186.5 362.25Q171.5 360.5 152.0 359.5Q140.0 358.5 126.0 358.25Q112.0 358.0 98.0 358.0Q84.5 358.0 72.5 358.25Q60.5 358.5 52.0 359.5Q35.0 361.0 23.0 361.5Q11.0 362.0 10.5 362.0Q10.0 361.5 13.5 355.75Q17.0 350.0 23.5 342.0Q29.0 335.0 38.25 317.75Q47.5 300.5 54.5 284.0Q73.0 246.0 80.5 246.0Q83.5 246.0 83.5 254.5Q83.5 260.0 91.25 270.0Q99.0 280.0 111.0 291.75Q123.0 303.5 136.25 314.0Q149.5 324.5 161.25 331.25Q173.0 338.0 179.5 338.0Q181.0 338.0 182.75 321.75Q184.5 305.5 184.5 283.5Q186.0 240.0 179.5 207.5Q173.0 175.0 161.5 165.5Q150.5 156.0 156.75 152.75Q163.0 149.5 191.5 149.5Q207.0 149.5 217.75 150.75Q228.5 152.0 228.5 155.0Q228.5 157.0 227.25 158.75Q226.0 160.5 224.5 160.5Q218.5 160.5 212.5 173.0Q206.5 185.5 202.5 206.0Q198.5 226.5 197.0 251.0Q196.0 270.5 196.25 284.5Q196.5 298.5 197.5 298.0Q201.0 297.0 211.5 280.0Q222.0 263.0 236.75 235.75Q251.5 208.5 266.5 176.5Q277.0 154.5 286.0 139.25Q295.0 124.0 297.0 124.0Q298.0 125.5 301.25 131.5Q304.5 137.5 308.0 144.5Q313.5 155.0 323.5 162.75Q333.5 170.5 353.5 180.0Q368.5 187.5 381.0 191.75Q393.5 196.0 394.5 194.5Q397.5 193.0 396.25 180.25Q395.0 167.5 391.0 148.75Q387.0 130.0 381.5 110.25Q376.0 90.5 370.0 76.0Q364.5 61.5 357.5 49.25Q350.5 37.0 346.5 35.5Q336.5 29.5 336.5 22.5ZM97.5 57.0Q99.0 37.0 101.25 23.5Q103.5 10.0 105.5 10.0Q111.0 10.0 111.0 15.5Q111.0 19.0 116.5 26.25Q122.0 33.5 130.25 41.75Q138.5 50.0 147.25 57.0Q156.0 64.0 162.5 66.5Q170.0 70.0 199.5 72.75Q229.0 75.5 271.5 77.5Q297.0 78.5 317.5 80.0Q338.0 81.5 350.25 83.0Q362.5 84.5 362.5 86.0Q362.5 88.5 339.0 89.25Q315.5 90.0 278.5 89.5Q247.5 89.0 229.5 89.0Q211.5 89.0 201.0 90.25Q190.5 91.5 182.0 94.5Q173.5 97.5 161.5 103.0Q148.0 108.0 133.25 117.25Q118.5 126.5 110.0 133.0Q103.0 139.5 96.5 143.0Q90.0 146.5 88.0 146.5Q88.0 146.5 87.75 146.5Q87.5 146.5 87.5 146.5Q87.0 145.0 87.5 138.5Q88.0 132.0 89.0 124.0Q91.5 115.5 93.75 96.0Q96.0 76.5 97.5 57.0Z" fill="black" /></svg>