<svg xmlns="http://www.w3.org/2000/svg" width="618.0" height="459.5" viewBox="0 0 618.0 459.5"><path d="M111.0 311.5Q111.0 307.5 108.5 307.5Q103.5 307.5 77.5 331.5Q67.5 341.0 61.5 348.5Q55.5 356.0 57.0 357.0Q59.5 358.5 65.5 359.5Q71.5 360.5 78.25 361.25Q85.0 362.0 88.5 362.0Q95.5 362.0 96.75 358.75Q98.0 355.5 98.5 345.0Q100.0 328.5 106.0 321.5Q108.5 319.5 109.75 316.25Q111.0 313.0 111.0 311.5ZM215.5 323.5Q223.0 308.5 219.0 308.5Q214.0 308.5 189.0 331.5Q175.5 343.5 171.25 349.0Q167.0 354.5 172.25 356.75Q177.5 359.0 192.5 362.5Q198.5 364.0 201.5 364.0Q205.5 364.0 206.25 361.5Q207.0 359.0 207.0 352.5Q207.0 347.0 209.5 338.25Q212.0 329.5 215.5 323.5ZM328.5 332.5Q319.0 329.0 309.75 325.5Q300.5 322.0 297.0 320.5Q291.5 318.5 289.0 321.5Q286.5 324.5 284.0 336.0Q283.0 344.0 282.5 350.75Q282.0 357.5 283.5 358.5Q284.0 359.0 293.5 357.5Q303.0 356.0 315.5 353.0Q328.0 350.0 338.0 347.0Q348.0 344.0 349.5 342.5Q350.5 341.5 344.5 338.25Q338.5 335.0 328.5 332.5ZM112.0 146.0Q117.0 139.5 120.0 134.75Q123.0 130.0 122.0 129.5Q120.0 129.5 108.75 137.0Q97.5 144.5 83.0 155.0L47.0 182.0L68.0 186.5Q73.5 187.5 78.0 188.25Q82.5 189.0 86.0 189.0Q101.5 189.0 101.5 173.0Q101.5 167.0 104.75 159.5Q108.0 152.0 112.0 146.0ZM206.5 158.5Q213.5 145.0 217.5 136.0Q221.5 127.0 221.0 127.0Q220.0 127.0 212.5 132.5Q205.0 138.0 194.5 146.0Q184.0 154.0 173.75 162.25Q163.5 170.5 156.75 176.0Q150.0 181.5 150.0 182.0Q151.0 182.5 157.75 184.25Q164.5 186.0 172.0 187.5Q179.5 189.0 182.0 189.0Q189.0 189.0 193.0 183.0Q197.0 177.0 206.5 158.5ZM343.0 243.5Q333.5 239.0 327.75 236.5Q322.0 234.0 319.0 234.0Q315.5 234.0 314.75 238.25Q314.0 242.5 314.0 251.0Q314.0 259.0 314.5 262.75Q315.0 266.5 320.0 266.5Q326.5 266.5 356.5 255.5Q360.0 254.0 357.0 251.25Q354.0 248.5 343.0 243.5ZM346.0 179.5Q336.5 175.5 329.5 172.5Q322.5 169.5 321.5 169.5Q321.0 169.5 319.75 174.5Q318.5 179.5 317.25 186.25Q316.0 193.0 315.25 198.5Q314.5 204.0 315.0 204.5Q316.0 205.0 322.0 204.0Q328.0 203.0 336.0 200.0Q343.5 198.0 351.0 195.75Q358.5 193.5 361.0 192.0Q365.0 191.0 361.0 187.5Q357.0 184.0 346.0 179.5ZM355.0 91.5Q348.5 89.0 340.25 86.25Q332.0 83.5 328.5 81.5Q323.5 79.5 320.75 82.5Q318.0 85.5 316.0 97.0Q314.5 105.0 314.0 111.5Q313.5 118.0 314.0 118.5Q317.5 118.5 326.75 116.25Q336.0 114.0 346.5 110.5Q357.0 107.0 364.5 104.0Q372.0 101.0 372.0 99.5Q372.0 98.5 367.0 96.0Q362.0 93.5 355.0 91.5ZM558.5 35.5Q558.5 33.0 547.5 32.0Q536.5 31.0 521.5 31.0H485.5L501.5 60.0Q508.5 72.0 514.25 80.5Q520.0 89.0 521.5 89.0Q523.0 89.0 526.0 84.5Q529.0 80.0 531.5 73.5Q534.0 67.0 539.0 60.0Q544.0 53.0 548.0 49.0Q552.0 45.5 555.25 41.5Q558.5 37.5 558.5 35.5ZM177.5 63.5Q188.0 52.0 190.0 52.0Q192.0 52.0 192.0 57.0Q192.0 59.0 186.5 66.5Q181.0 74.0 173.5 82.5Q163.0 94.5 152.0 109.0Q141.0 123.5 131.75 137.25Q122.5 151.0 116.75 161.25Q111.0 171.5 111.0 175.5Q111.0 179.0 113.5 182.0Q116.0 185.0 119.5 185.0Q122.5 185.0 133.25 178.0Q144.0 171.0 159.75 159.5Q175.5 148.0 193.0 134.5Q210.5 121.0 227.0 107.25Q243.5 93.5 256.25 82.25Q269.0 71.0 274.5 64.5Q279.0 59.0 283.25 56.5Q287.5 54.0 288.5 56.0Q290.0 58.0 284.25 67.0Q278.5 76.0 269.5 87.0Q239.0 123.0 222.75 149.25Q206.5 175.5 210.0 183.0Q212.0 187.0 212.75 191.5Q213.5 196.0 213.5 198.5Q213.5 201.0 219.75 207.25Q226.0 213.5 235.5 219.0Q281.5 250.5 281.5 263.5Q281.5 268.5 280.25 268.5Q279.0 268.5 274.5 264.5Q269.0 260.5 266.5 260.5Q263.0 260.5 257.0 268.0Q252.5 274.0 246.0 285.5Q239.5 297.0 233.0 310.0Q226.5 323.0 222.25 333.25Q218.0 343.5 218.0 347.0Q218.0 358.0 228.25 372.0Q238.5 386.0 253.5 396.0Q267.0 405.0 279.75 415.75Q292.5 426.5 300.5 435.5Q308.5 444.5 308.5 448.5Q308.5 449.5 307.5 449.5Q302.5 449.5 291.5 438.5Q283.0 430.5 269.0 420.25Q255.0 410.0 239.0 400.0Q223.0 390.0 209.0 382.5Q195.0 375.0 186.5 372.5Q179.0 369.5 168.25 367.5Q157.5 365.5 149.5 365.0H130.5L145.5 353.0Q155.5 346.0 168.75 334.75Q182.0 323.5 196.25 311.0Q210.5 298.5 223.0 286.75Q235.5 275.0 243.5 266.5Q251.5 258.0 252.5 255.5Q255.0 247.0 243.75 237.5Q232.5 228.0 200.0 212.0Q183.0 203.5 166.0 199.25Q149.0 195.0 136.5 195.0Q120.5 195.0 117.5 201.25Q114.5 207.5 135.0 219.0Q146.5 225.0 158.75 235.5Q171.0 246.0 179.0 255.5Q187.0 265.0 184.5 268.0Q183.5 269.0 182.5 269.0Q180.5 269.0 176.75 266.75Q173.0 264.5 169.0 261.0L157.5 249.0L146.5 266.5Q130.0 294.0 120.25 316.5Q110.5 339.0 109.5 352.5Q108.5 366.0 117.5 366.0Q123.0 366.0 120.5 369.5Q117.5 374.5 122.75 380.75Q128.0 387.0 146.5 398.5Q162.5 409.5 175.75 420.25Q189.0 431.0 196.25 438.5Q203.5 446.0 201.0 448.5Q201.0 448.5 200.75 448.5Q200.5 448.5 200.5 448.5Q198.0 448.5 190.0 443.5Q182.0 438.5 172.0 431.0Q138.5 403.0 107.5 386.75Q76.5 370.5 54.0 367.5Q43.0 366.5 35.0 364.25Q27.0 362.0 27.0 360.5Q27.0 359.0 31.25 355.5Q35.5 352.0 41.5 348.5Q48.0 345.0 60.75 334.0Q73.5 323.0 88.5 309.0Q103.5 295.0 117.5 281.25Q131.5 267.5 140.5 257.5Q149.5 247.5 149.5 245.5Q149.5 243.0 139.5 235.0Q129.5 227.0 116.5 219.0Q103.0 211.0 93.0 206.5Q83.0 202.0 72.75 199.75Q62.5 197.5 47.0 196.5L10.0 194.0L38.0 175.5Q48.0 169.0 63.75 157.0Q79.5 145.0 97.25 131.0Q115.0 117.0 131.75 103.25Q148.5 89.5 160.75 78.75Q173.0 68.0 177.5 63.5ZM579.5 15.5Q586.5 12.5 591.25 11.25Q596.0 10.0 598.5 10.0Q608.0 10.0 593.0 23.5Q575.5 37.5 563.5 48.5Q551.5 59.5 544.0 70.5Q536.5 81.5 532.25 96.5Q528.0 111.5 525.75 133.75Q523.5 156.0 522.75 189.0Q522.0 222.0 521.5 270.0Q520.5 311.5 519.25 345.25Q518.0 379.0 517.0 398.75Q516.0 418.5 514.5 418.5Q513.0 416.0 511.25 404.75Q509.5 393.5 509.5 381.5L508.0 352.5L431.0 353.0Q368.5 353.0 334.5 358.5Q300.5 364.0 284.0 377.5Q278.0 381.5 273.5 384.0Q269.0 386.5 268.0 385.0Q266.5 384.0 267.75 374.0Q269.0 364.0 271.5 350.5Q275.0 333.0 275.0 323.5Q275.0 314.0 271.5 308.0Q265.0 294.5 269.5 291.0Q274.0 287.5 284.0 299.0Q292.5 308.0 314.5 316.5Q336.5 325.0 365.5 331.5Q394.5 338.0 424.75 341.5Q455.0 345.0 479.0 343.5L508.0 341.5L510.5 233.0Q511.5 203.0 511.75 177.25Q512.0 151.5 511.75 134.75Q511.5 118.0 510.5 116.0Q510.0 113.5 503.5 112.25Q497.0 111.0 480.5 110.75Q464.0 110.5 433.5 111.5Q403.5 112.0 385.5 113.25Q367.5 114.5 357.0 117.0Q346.5 119.5 337.5 124.0Q329.0 128.0 322.5 133.75Q316.0 139.5 315.0 143.0Q313.5 151.0 326.75 159.25Q340.0 167.5 362.5 174.5Q385.0 181.5 412.5 185.75Q440.0 190.0 467.0 190.0Q485.5 190.0 494.75 191.5Q504.0 193.0 502.5 195.5Q501.0 197.5 481.75 199.25Q462.5 201.0 435.5 201.0Q402.5 201.0 377.25 203.25Q352.0 205.5 338.25 209.5Q324.5 213.5 326.0 219.0Q328.0 225.0 341.5 231.0Q355.0 237.0 375.25 242.0Q395.5 247.0 419.0 250.25Q442.5 253.5 464.5 253.5Q479.5 253.5 489.75 255.25Q500.0 257.0 500.0 259.0Q500.0 261.5 482.25 263.0Q464.5 264.5 433.5 264.5Q398.5 264.5 375.25 266.5Q352.0 268.5 337.5 273.25Q323.0 278.0 312.5 286.0L299.5 296.0L300.5 250.0Q302.0 231.0 303.25 211.5Q304.5 192.0 306.0 183.0Q308.0 174.0 307.5 166.75Q307.0 159.5 303.0 156.0Q299.5 151.0 299.5 142.0Q299.5 133.0 303.0 111.5Q307.0 91.0 307.0 80.5Q307.0 70.0 303.0 63.5Q296.5 50.5 303.5 50.0Q310.5 49.5 323.0 61.5Q337.0 74.5 356.5 82.25Q376.0 90.0 398.25 93.75Q420.5 97.5 442.75 98.5Q465.0 99.5 483.5 99.5Q498.0 99.5 501.5 97.5Q505.0 95.5 505.0 90.5Q505.0 82.0 498.5 71.0Q492.0 60.0 481.75 49.5Q471.5 39.0 460.0 32.5Q451.0 27.0 446.25 23.5Q441.5 20.0 443.5 20.0H508.0Q532.5 20.5 553.25 19.0Q574.0 17.5 579.5 15.5Z" fill="black" /></svg>