<svg xmlns="http://www.w3.org/2000/svg" width="363.5" height="384.0" viewBox="0 0 363.5 384.0"><path d="M45.0 306.5Q38.5 302.0 32.75 299.0Q27.0 296.0 26.0 296.0Q25.5 296.0 25.0 301.0Q24.5 306.0 24.5 313.0Q24.5 321.0 23.5 330.5Q22.5 340.0 21.5 345.5L19.5 360.5L36.0 352.0Q43.0 348.0 55.0 343.25Q67.0 338.5 77.0 335.0L102.0 326.5L82.5 322.0Q74.5 320.5 63.75 315.75Q53.0 311.0 45.0 306.5ZM62.0 127.0 69.5 115.0H53.0Q43.5 115.0 39.75 116.25Q36.0 117.5 36.0 120.5Q36.0 125.5 39.0 128.5Q40.5 129.0 42.25 133.0Q44.0 137.0 45.0 141.5Q48.0 152.5 52.0 152.5Q54.5 152.5 54.5 146.0Q54.5 143.5 57.0 137.75Q59.5 132.0 62.0 127.0ZM159.0 152.0Q159.5 151.0 154.25 150.0Q149.0 149.0 141.0 149.0Q133.0 149.0 127.75 150.0Q122.5 151.0 123.0 152.0Q124.0 153.0 126.5 158.25Q129.0 163.5 132.0 170.5Q134.5 177.0 137.25 181.75Q140.0 186.5 141.0 186.5Q141.5 186.5 144.25 181.75Q147.0 177.0 150.0 170.5Q153.5 163.5 156.0 158.25Q158.5 153.0 159.0 152.0ZM75.5 44.0Q71.0 39.5 67.0 36.0Q63.0 32.5 62.0 32.5Q61.0 32.5 60.0 42.75Q59.0 53.0 59.0 67.0V101.0L67.5 95.0Q71.0 92.5 79.75 87.75Q88.5 83.0 97.5 78.5L120.0 68.0L102.5 62.0Q96.0 59.0 88.0 53.75Q80.0 48.5 75.5 44.0ZM211.5 141.5 220.5 132.5 228.5 122.5H208.5Q200.5 122.5 195.25 123.0Q190.0 123.5 190.5 123.5Q191.0 124.0 194.5 126.75Q198.0 129.5 201.5 133.0ZM227.0 197.0 237.0 186.5H186.0L198.0 203.5Q208.5 217.5 210.5 217.5Q212.0 217.5 213.5 214.0Q215.5 211.5 219.5 206.5Q223.5 201.5 227.0 197.0ZM335.0 32.5H309.5Q299.5 32.5 290.25 31.75Q281.0 31.0 278.0 30.5Q274.5 28.5 275.0 31.75Q275.5 35.0 280.5 48.5Q284.5 58.5 287.25 66.0Q290.0 73.5 292.5 82.75Q295.0 92.0 299.0 107.5L303.5 125.0L309.0 100.0Q311.5 90.0 315.75 76.75Q320.0 63.5 324.5 54.5ZM51.0 39.5Q50.5 27.0 51.0 18.5Q51.5 10.0 53.0 10.0Q54.0 10.0 59.75 15.5Q65.5 21.0 72.0 28.0Q81.5 38.5 90.0 45.0Q98.5 51.5 110.5 54.75Q122.5 58.0 143.25 59.5Q164.0 61.0 198.5 62.0Q232.5 63.0 254.5 62.5Q276.5 62.0 276.5 60.5Q276.5 59.5 273.75 53.0Q271.0 46.5 267.5 39.5Q264.0 32.0 261.75 26.25Q259.5 20.5 260.0 20.0Q261.0 19.0 265.75 19.75Q270.5 20.5 276.0 22.0Q281.5 24.0 294.5 24.5Q307.5 25.0 320.0 24.5Q343.5 23.5 348.5 24.5Q353.5 25.5 346.5 32.0Q344.5 34.0 339.5 43.0Q334.5 52.0 329.0 62.0Q322.5 76.0 318.75 91.25Q315.0 106.5 313.0 127.5Q311.0 148.5 311.0 180.0Q311.0 211.5 312.0 259.0Q313.5 318.0 313.25 342.5Q313.0 367.0 310.5 367.0Q306.5 367.0 306.5 346.0V325.0L213.5 326.5Q180.0 327.0 160.5 327.75Q141.0 328.5 129.5 329.5Q118.0 330.5 109.5 332.75Q101.0 335.0 90.5 338.5Q78.0 342.5 62.0 349.5Q46.0 356.5 36.0 362.0Q26.0 367.0 18.5 370.5Q11.0 374.0 10.5 374.0Q10.0 373.0 10.75 366.25Q11.5 359.5 13.5 350.0Q15.0 341.0 15.75 326.75Q16.5 312.5 15.5 302.0Q14.5 290.5 15.0 283.75Q15.5 277.0 16.5 277.0Q18.0 277.0 22.5 280.0Q27.0 283.0 30.5 287.0Q62.0 314.5 110.0 317.5L141.5 319.0L140.0 261.5L139.5 203.5L124.5 173.5Q118.0 161.0 113.25 151.5Q108.5 142.0 108.5 141.5Q108.0 141.0 112.0 140.75Q116.0 140.5 122.5 140.5Q132.5 140.5 145.0 141.0Q157.5 141.5 167.25 142.0Q177.0 142.5 177.5 143.5Q178.5 143.5 175.5 147.25Q172.5 151.0 168.0 156.5Q160.0 165.0 155.75 175.25Q151.5 185.5 150.0 204.0Q148.5 222.5 148.5 257.0V318.5H213.5L212.0 275.5Q211.5 255.0 210.5 245.5Q209.5 236.0 206.75 230.25Q204.0 224.5 198.0 216.5Q193.0 209.0 186.75 201.75Q180.5 194.5 177.0 191.0Q173.0 188.0 170.0 185.0Q167.0 182.0 167.0 181.0Q167.0 180.5 173.75 179.75Q180.5 179.0 189.5 179.0H213.0V167.0Q213.0 147.0 180.0 128.0Q175.0 125.0 171.0 122.0Q167.0 119.0 167.0 118.0Q167.0 117.0 180.5 116.0Q194.0 115.0 213.0 115.0Q231.5 115.0 244.75 116.0Q258.0 117.0 258.0 118.0Q258.0 119.0 252.5 122.5Q247.0 126.0 239.0 129.5L220.5 138.5V179.0H239.0Q247.0 179.0 252.5 180.0Q258.0 181.0 258.0 182.5Q258.0 186.5 254.0 186.5Q252.5 186.5 247.0 190.75Q241.5 195.0 235.5 200.5L220.5 214.0V317.5L307.5 320.0L304.5 236.0Q303.5 205.0 302.25 183.0Q301.0 161.0 298.75 144.0Q296.5 127.0 293.0 112.0Q289.5 97.0 284.0 80.0L280.5 68.5L207.5 69.5Q180.5 69.5 165.25 69.75Q150.0 70.0 141.25 71.0Q132.5 72.0 126.0 74.5Q119.5 77.0 110.0 81.5Q99.5 86.0 89.25 91.75Q79.0 97.5 75.0 100.0Q67.5 105.5 67.25 106.5Q67.0 107.5 73.5 107.5Q76.0 107.5 78.5 108.0Q81.0 108.5 81.0 109.0Q81.0 113.0 69.5 132.5L58.5 153.5V227.0Q58.5 261.0 57.5 280.25Q56.5 299.5 54.5 299.5Q53.0 299.5 52.0 284.75Q51.0 270.0 51.0 244.0Q51.0 214.5 49.0 193.75Q47.0 173.0 42.0 156.5Q37.0 140.0 28.5 123.5Q25.0 117.0 23.5 112.25Q22.0 107.5 23.0 107.5Q25.0 107.0 29.5 107.25Q34.0 107.5 39.0 107.5L51.0 108.5L51.5 88.0Q51.5 80.0 51.5 65.5Q51.5 51.0 51.0 39.5Z" fill="black" /></svg>