<svg xmlns="http://www.w3.org/2000/svg" width="577.0" height="464.0" viewBox="0 0 577.0 464.0"><path d="M162.5 330.5Q155.0 326.5 142.25 317.0Q129.5 307.5 120.0 298.5L95.5 275.5L75.0 308.5Q69.5 317.5 63.75 327.25Q58.0 337.0 54.0 343.5Q50.0 350.0 50.0 350.5Q52.0 350.5 64.25 348.0Q76.5 345.5 94.0 342.75Q111.5 340.0 128.0 340.5Q152.0 341.0 166.75 343.75Q181.5 346.5 184.5 346.5Q185.0 346.5 185.0 346.5Q185.0 346.5 185.0 346.5Q185.0 345.0 177.75 339.5Q170.5 334.0 162.5 330.5ZM240.0 229.0Q236.0 229.0 233.0 229.25Q230.0 229.5 225.0 229.5Q220.5 229.5 215.75 228.5Q211.0 227.5 206.5 227.5Q207.0 228.5 210.5 231.0Q214.0 233.5 217.0 237.5Q222.5 243.0 224.75 247.75Q227.0 252.5 227.0 252.5Q227.0 252.5 228.25 247.25Q229.5 242.0 233.0 238.5Q239.0 230.0 240.0 229.0ZM265.5 250.5Q253.5 238.5 247.0 238.5Q240.0 238.5 237.25 254.75Q234.5 271.0 232.5 309.5Q231.0 326.5 230.5 338.75Q230.0 351.0 230.0 351.0Q230.0 351.0 233.75 352.0Q237.5 353.0 254.5 359.0Q262.0 362.0 269.5 364.25Q277.0 366.5 277.0 366.5Q277.0 366.5 277.75 351.25Q278.5 336.0 278.5 314.5Q278.5 292.5 277.5 280.75Q276.5 269.0 273.75 262.5Q271.0 256.0 265.5 250.5ZM285.0 257.0 300.5 238.5 265.5 236.5ZM332.0 246.5 353.0 270.5 369.5 247.5ZM441.5 246.0Q444.5 239.5 451.25 232.75Q458.0 226.0 463.75 221.5Q469.5 217.0 469.5 217.0Q469.5 217.0 461.75 217.25Q454.0 217.5 444.25 218.0Q434.5 218.5 428.5 218.5Q423.5 218.5 412.5 218.25Q401.5 218.0 392.25 217.75Q383.0 217.5 383.0 217.5Q383.0 217.5 389.75 221.25Q396.5 225.0 405.0 230.5Q413.5 236.0 419.0 241.5Q425.0 246.5 428.5 249.75Q432.0 253.0 434.5 253.0Q438.0 253.0 441.5 246.0ZM189.5 49.0 200.5 35.5 170.0 33.5Q163.0 33.0 154.0 33.0Q145.0 33.0 138.5 32.75Q132.0 32.5 132.0 32.5L174.0 89.0Q174.0 89.0 176.0 83.25Q178.0 77.5 180.75 70.0Q183.5 62.5 186.0 56.25Q188.5 50.0 189.5 49.0ZM296.0 163.0 269.0 149.0Q256.0 141.0 248.25 130.75Q240.5 120.5 240.5 120.5Q240.5 120.5 239.0 127.25Q237.5 134.0 235.75 142.0Q234.0 150.0 233.0 153.5L226.5 177.0Q233.5 175.5 238.5 173.5Q243.5 171.5 252.5 169.5Q263.0 167.0 274.0 166.0Q285.0 165.0 296.0 163.0ZM272.0 86.0 310.5 84.0 287.0 72.5Q285.0 71.5 279.75 66.75Q274.5 62.0 269.75 57.5Q265.0 53.0 265.0 53.0Q265.0 53.0 265.25 57.5Q265.5 62.0 265.0 64.5Q264.0 71.5 260.5 80.5Q260.0 82.5 259.25 86.25Q258.5 90.0 258.5 90.0Q258.5 90.0 263.5 88.25Q268.5 86.5 272.0 86.0ZM452.0 44.5Q456.0 39.0 461.5 33.5Q467.0 28.0 471.5 24.5Q476.0 21.0 476.0 21.0Q476.0 21.0 468.5 21.25Q461.0 21.5 451.75 21.5Q442.5 21.5 437.0 21.5Q426.5 21.0 414.5 21.0Q402.5 21.0 394.25 21.0Q386.0 21.0 386.0 21.0Q386.0 21.0 393.25 24.75Q400.5 28.5 410.0 33.75Q419.5 39.0 426.0 44.5Q431.5 48.0 437.0 53.75Q442.5 59.5 442.5 59.5Q442.5 59.5 445.75 54.0Q449.0 48.5 452.0 44.5ZM355.5 16.0Q355.5 13.5 378.75 12.25Q402.0 11.0 435.5 10.0Q466.0 10.5 481.0 11.0Q496.0 11.5 501.0 13.0Q506.0 14.5 507.0 17.5Q508.0 20.5 507.25 22.25Q506.5 24.0 500.0 25.0Q479.0 28.0 466.5 43.25Q454.0 58.5 449.5 94.5Q448.0 106.5 447.0 121.25Q446.0 136.0 445.5 149.5Q445.0 163.0 445.0 171.5L444.5 206.0H473.5Q498.5 206.0 500.5 211.0Q502.5 216.0 480.5 224.5Q465.0 229.5 456.75 241.0Q448.5 252.5 445.25 275.75Q442.0 299.0 441.5 340.0L440.0 411.0L501.5 427.0Q528.0 433.5 545.75 439.25Q563.5 445.0 565.5 449.0Q567.0 454.0 564.0 454.0Q562.5 454.0 555.0 451.5L439.5 423.0Q438.0 425.0 434.5 425.0Q431.0 425.0 427.5 423.25Q424.0 421.5 423.5 418.0L407.0 413.0L216.0 361.5Q199.5 357.0 179.75 355.0Q160.0 353.0 139.5 353.0Q107.0 353.0 77.75 357.25Q48.5 361.5 35.0 368.5Q30.0 371.5 26.25 372.75Q22.5 374.0 20.5 374.0Q10.0 374.0 38.5 338.0Q59.0 313.0 70.25 290.75Q81.5 268.5 78.5 260.5Q76.0 254.5 82.25 246.25Q88.5 238.0 95.0 238.0Q100.0 238.0 100.0 251.0Q100.0 256.5 106.25 266.0Q112.5 275.5 120.5 283.0Q129.5 291.5 139.25 299.75Q149.0 308.0 155.5 313.25Q162.0 318.5 162.0 318.5Q162.0 318.5 163.0 290.75Q164.0 263.0 166.0 215.0Q168.0 174.0 168.25 151.25Q168.5 128.5 166.75 115.75Q165.0 103.0 160.5 93.0Q154.5 77.5 144.25 64.0Q134.0 50.5 123.5 42.0Q113.0 33.5 106.0 33.5Q95.0 33.5 90.75 27.75Q86.5 22.0 95.5 19.5Q97.5 19.0 108.5 19.0Q119.5 19.0 136.75 19.25Q154.0 19.5 173.0 21.0Q206.5 22.5 220.5 23.75Q234.5 25.0 234.25 27.0Q234.0 29.0 224.0 33.5Q211.5 39.5 203.75 49.0Q196.0 58.5 191.25 76.5Q186.5 94.5 183.75 125.5Q181.0 156.5 179.0 206.0L174.5 325.0L191.5 334.0Q200.5 339.0 209.75 342.75Q219.0 346.5 219.0 346.5Q219.0 346.5 219.75 338.75Q220.5 331.0 221.0 319.25Q221.5 307.5 221.5 295.5Q221.5 275.5 220.25 265.5Q219.0 255.5 215.5 250.0Q212.0 244.5 204.0 238.5Q197.5 232.5 193.25 227.5Q189.0 222.5 191.0 221.5Q193.0 219.5 209.0 219.5Q221.0 219.5 237.75 220.75Q254.5 222.0 271.5 223.75Q288.5 225.5 301.75 227.75Q315.0 230.0 320.0 232.5Q330.5 238.0 355.5 238.0Q368.5 238.0 377.75 238.5Q387.0 239.0 387.0 241.5Q387.0 242.5 383.25 247.0Q379.5 251.5 374.0 257.0Q367.5 263.0 364.0 271.0Q360.5 279.0 360.0 296.5Q359.5 332.0 359.25 351.25Q359.0 370.5 357.75 377.5Q356.5 384.5 353.0 384.5Q352.0 384.5 351.0 380.75Q350.0 377.0 349.5 366.0Q349.0 355.0 348.5 332.5Q348.5 310.5 348.5 299.5Q348.5 288.5 347.25 283.75Q346.0 279.0 343.25 276.0Q340.5 273.0 335.5 267.5Q331.5 262.5 326.0 257.0Q320.5 251.5 316.25 247.5Q312.0 243.5 312.0 243.5Q312.0 243.5 308.0 247.25Q304.0 251.0 299.75 255.5Q295.5 260.0 293.5 263.5Q292.5 268.5 291.75 284.25Q291.0 300.0 291.0 321.5V371.0L316.0 377.5Q374.0 393.0 399.0 400.25Q424.0 407.5 425.0 406.5L426.0 334.0Q426.0 310.0 425.75 296.5Q425.5 283.0 424.0 275.25Q422.5 267.5 418.75 262.25Q415.0 257.0 408.5 249.5Q402.0 242.0 390.25 234.25Q378.5 226.5 370.0 224.5Q345.5 215.5 350.5 211.0Q355.5 206.5 389.0 207.5Q407.0 208.0 415.5 207.5Q424.0 207.0 426.75 204.0Q429.5 201.0 430.0 195.0Q431.5 188.5 429.0 185.25Q426.5 182.0 416.5 180.25Q406.5 178.5 384.5 177.0Q371.5 175.5 353.75 175.0Q336.0 174.5 318.5 174.25Q301.0 174.0 287.5 175.0Q267.5 176.0 256.0 177.5Q244.5 179.0 238.25 182.25Q232.0 185.5 227.5 191.0Q216.5 205.0 212.5 199.5Q208.5 194.0 215.0 175.0Q217.5 167.0 221.25 152.25Q225.0 137.5 227.0 124.5Q228.5 112.0 231.75 103.75Q235.0 95.5 238.5 95.5Q239.0 95.5 239.75 97.0Q240.5 98.5 241.0 98.0Q243.0 97.0 244.0 93.0Q245.0 89.0 245.5 85.5Q247.0 82.0 247.75 77.0Q248.5 72.0 249.0 66.5Q252.5 44.5 254.75 34.5Q257.0 24.5 260.0 24.5Q263.0 24.5 269.0 37.5Q280.5 59.0 303.75 69.75Q327.0 80.5 372.5 85.5Q410.0 89.0 422.75 92.0Q435.5 95.0 430.0 100.5Q429.5 101.0 411.25 100.25Q393.0 99.5 368.5 96.5Q354.5 95.0 343.0 94.5Q331.5 94.0 321.5 94.0Q295.5 94.0 281.25 97.75Q267.0 101.5 258.5 107.5Q247.5 115.0 258.5 127.25Q269.5 139.5 298.25 150.25Q327.0 161.0 368.5 164.5L429.5 169.0L434.0 122.5Q436.5 101.5 436.5 91.0Q436.5 80.5 433.75 74.25Q431.0 68.0 424.5 61.0Q418.0 54.0 405.75 45.75Q393.5 37.5 383.0 32.0Q371.0 27.5 363.25 22.75Q355.5 18.0 355.5 16.0Z" fill="black" /></svg>