<svg xmlns="http://www.w3.org/2000/svg" width="670.5" height="460.5" viewBox="0 0 670.5 460.5"><path d="M70.0 230.5Q70.0 229.0 62.75 223.25Q55.5 217.5 45.0 211.0L20.0 195.5V229.5Q20.0 244.5 21.0 254.5Q22.0 264.5 23.0 264.5Q25.0 264.5 31.0 260.25Q37.0 256.0 43.5 249.5Q50.5 243.0 56.75 238.75Q63.0 234.5 65.0 234.5Q70.0 234.5 70.0 230.5ZM178.0 287.5 163.0 284.5Q157.0 283.5 149.0 281.5Q141.0 279.5 135.5 278.0Q129.0 275.5 127.0 276.0Q125.0 276.5 126.0 280.5Q127.5 283.5 130.75 293.25Q134.0 303.0 137.5 314.0L146.5 341.0ZM179.0 178.0Q180.0 177.0 177.5 169.5Q175.0 162.0 171.5 152.0L163.0 126.5L120.5 184.5L149.5 181.5Q161.0 180.0 169.75 179.25Q178.5 178.5 179.0 178.0ZM346.0 142.0Q346.0 141.0 340.75 140.25Q335.5 139.5 328.5 139.5Q314.0 139.5 312.5 141.5Q311.0 143.5 316.5 156.0L321.5 168.0L334.0 156.0Q339.0 151.0 342.5 146.75Q346.0 142.5 346.0 142.0ZM369.0 179.0Q368.5 177.0 365.0 172.5Q361.5 168.0 357.5 163.75Q353.5 159.5 351.0 159.5Q345.5 159.5 338.75 168.0Q332.0 176.5 328.5 181.0L326.0 288.0L326.5 309.0L348.5 312.5L378.0 314.0L375.0 250.0Q373.5 224.5 371.75 203.5Q370.0 182.5 369.0 179.0ZM393.5 169.5Q400.5 162.0 399.5 160.75Q398.5 159.5 387.0 159.5Q360.5 159.5 378.0 174.0Q381.5 176.5 383.5 176.5Q387.5 176.5 393.5 169.5ZM428.5 193.5Q428.0 190.5 423.0 186.75Q418.0 183.0 412.5 180.25Q407.0 177.5 404.0 177.5Q401.0 177.5 398.75 179.75Q396.5 182.0 393.5 186.0Q390.0 191.0 388.25 195.75Q386.5 200.5 385.5 208.25Q384.5 216.0 384.5 229.5Q384.5 243.0 385.0 266.0L386.5 315.0H400.0Q405.5 315.0 413.25 314.0Q421.0 313.0 425.5 312.0Q431.5 310.5 434.0 307.75Q436.5 305.0 436.25 293.5Q436.0 282.0 434.5 255.0Q433.5 233.0 431.75 214.75Q430.0 196.5 428.5 193.5ZM450.5 181.0Q452.0 174.5 444.5 174.5Q441.0 174.5 438.75 177.0Q436.5 179.5 436.5 182.5Q436.5 188.5 441.5 188.5Q448.5 188.5 450.5 181.0ZM407.5 106.5Q403.5 106.5 395.75 105.25Q388.0 104.0 381.0 103.0Q373.5 101.5 357.75 104.0Q342.0 106.5 325.0 111.0Q308.0 115.5 295.75 120.25Q283.5 125.0 282.0 129.0Q279.0 135.5 289.0 133.0Q295.0 131.0 311.5 130.0Q328.0 129.0 344.0 129.0Q355.5 129.0 364.5 129.75Q373.5 130.5 375.0 131.5Q376.0 132.5 374.0 135.75Q372.0 139.0 368.0 142.0Q361.5 147.0 365.0 148.25Q368.5 149.5 390.5 149.0Q422.5 147.5 425.5 153.5Q426.5 159.5 422.0 159.5Q416.5 159.5 416.5 164.5Q416.5 168.0 429.0 168.0Q432.5 168.0 436.75 167.75Q441.0 167.5 446.0 167.0Q457.5 165.5 465.0 165.5Q477.0 165.5 478.5 169.5Q482.0 174.5 477.0 174.5Q471.5 174.5 471.5 179.5Q471.5 183.0 481.5 183.0Q487.0 183.0 496.0 181.5Q506.5 180.0 516.5 180.0Q526.5 180.0 529.5 181.5Q535.0 183.5 533.5 187.0Q532.0 190.5 521.0 199.0Q513.0 206.0 509.5 210.75Q506.0 215.5 505.0 222.5Q504.0 229.5 504.0 243.5Q504.0 256.0 504.75 266.0Q505.5 276.0 506.5 277.0Q507.5 278.0 517.25 275.5Q527.0 273.0 541.75 268.5Q556.5 264.0 573.0 258.5Q589.5 253.0 604.0 247.75Q618.5 242.5 627.75 238.75Q637.0 235.0 637.0 234.0Q637.0 232.0 628.0 226.25Q619.0 220.5 606.0 214.0Q597.0 209.5 581.75 201.0Q566.5 192.5 548.75 182.0Q531.0 171.5 514.5 161.5Q498.0 151.0 482.75 142.25Q467.5 133.5 456.5 127.75Q445.5 122.0 442.0 121.5Q436.5 119.5 430.75 117.25Q425.0 115.0 422.5 113.0Q415.0 107.5 407.5 106.5ZM484.0 203.5Q467.0 188.5 462.5 188.5Q459.5 188.5 453.5 197.5Q448.0 205.5 446.75 217.25Q445.5 229.0 446.0 256.5Q446.0 275.0 447.25 289.25Q448.5 303.5 449.0 304.5Q450.0 305.5 457.5 303.0Q465.0 300.5 474.5 295.5Q489.0 288.5 492.75 284.5Q496.5 280.5 494.5 273.0Q493.5 268.5 492.5 258.0Q491.5 247.5 491.5 236.5Q491.5 210.0 484.0 203.5ZM511.5 191.5Q511.5 190.0 504.0 190.0Q501.0 190.0 498.5 192.25Q496.0 194.5 496.0 197.5Q496.0 203.0 497.75 203.25Q499.5 203.5 504.0 199.5Q511.5 194.5 511.5 191.5ZM406.0 97.0Q406.0 96.5 396.5 86.25Q387.0 76.0 374.0 62.5Q359.5 47.0 352.5 40.75Q345.5 34.5 342.5 34.5Q340.0 34.5 338.5 40.0Q336.5 45.0 330.5 55.5Q324.5 66.0 317.5 75.5Q310.5 86.0 306.0 94.0Q301.5 102.0 303.5 103.5Q304.5 104.0 314.75 102.75Q325.0 101.5 337.5 98.0Q348.5 95.5 357.25 94.0Q366.0 92.5 373.0 92.5Q381.0 92.5 387.5 94.0Q395.5 96.0 400.75 96.75Q406.0 97.5 406.0 97.0ZM360.5 323.5Q343.0 322.5 325.75 320.5Q308.5 318.5 301.0 317.0L284.5 313.5L288.0 330.5Q289.0 337.5 292.0 352.25Q295.0 367.0 297.0 381.0L302.5 415.0L317.0 394.5Q322.0 388.0 333.25 378.0Q344.5 368.0 357.75 358.25Q371.0 348.5 382.0 342.0Q393.0 335.5 397.0 335.5Q401.5 335.5 401.5 330.5Q401.5 328.5 389.25 326.5Q377.0 324.5 360.5 323.5ZM10.0 229.5Q10.0 200.5 11.25 180.0Q12.5 159.5 14.0 159.5Q15.5 159.5 18.5 164.0Q21.5 168.5 23.5 174.5Q26.0 181.0 34.0 189.5Q42.0 198.0 53.0 205.0L77.0 220.0H154.0Q189.5 220.0 210.0 221.25Q230.5 222.5 230.5 225.0Q230.5 227.0 213.25 228.25Q196.0 229.5 165.5 229.5Q132.5 229.5 112.0 231.25Q91.5 233.0 83.0 237.0Q72.5 241.5 60.0 250.75Q47.5 260.0 37.5 270.25Q27.5 280.5 24.5 288.0Q20.0 300.5 17.0 300.5Q10.0 300.5 10.0 229.5ZM147.0 131.5Q157.5 115.5 166.25 105.0Q175.0 94.5 177.0 94.5Q178.0 94.5 178.5 103.0Q179.0 111.5 179.0 124.0Q178.5 142.0 182.25 153.5Q186.0 165.0 198.5 175.0Q211.0 185.0 237.0 200.5Q253.0 210.0 260.75 214.0Q268.5 218.0 274.0 218.0Q279.5 218.0 289.0 213.5Q298.0 209.0 302.5 209.0Q306.5 209.0 305.0 212.25Q303.5 215.5 295.0 220.0L284.5 226.0L295.0 234.5Q302.0 239.5 303.25 243.0Q304.5 246.5 300.5 246.5Q296.0 246.5 286.0 241.0Q282.5 239.0 280.0 238.0Q277.5 237.0 274.5 237.0Q269.5 237.0 262.0 240.75Q254.5 244.5 238.5 253.0Q209.0 269.5 189.5 291.75Q170.0 314.0 158.0 345.0Q148.0 370.0 143.0 370.0Q140.5 370.0 140.5 363.0Q140.5 360.0 135.25 342.75Q130.0 325.5 123.0 304.5Q116.0 283.0 111.25 267.5Q106.5 252.0 107.5 251.5Q107.5 251.5 107.75 251.25Q108.0 251.0 108.0 251.0Q110.0 251.0 115.75 254.25Q121.5 257.5 128.0 262.5Q135.5 267.5 145.75 271.25Q156.0 275.0 162.5 275.0Q167.5 275.0 180.75 269.75Q194.0 264.5 210.0 257.25Q226.0 250.0 239.25 242.5Q252.5 235.0 257.0 230.5Q259.0 228.5 251.25 222.0Q243.5 215.5 230.5 208.0Q199.5 189.5 168.5 189.5Q148.0 189.5 123.0 197.0Q112.5 200.5 104.75 201.5Q97.0 202.5 96.5 202.0Q95.0 201.0 98.25 195.75Q101.5 190.5 107.5 184.0Q113.0 177.0 124.5 161.25Q136.0 145.5 147.0 131.5ZM331.5 28.5 337.5 10.0 375.5 48.5Q395.0 68.0 430.0 94.0Q465.0 120.0 509.75 147.75Q554.5 175.5 603.0 202.0Q621.0 211.5 634.0 220.0Q647.0 228.5 647.0 230.5Q647.0 232.5 648.25 233.25Q649.5 234.0 651.5 232.0Q656.5 230.0 659.0 234.5Q660.5 236.5 653.0 240.5Q645.5 244.5 633.0 248.0Q625.5 250.0 612.25 254.25Q599.0 258.5 584.0 263.75Q569.0 269.0 555.5 274.0Q527.5 284.0 517.0 289.75Q506.5 295.5 506.5 301.0Q506.5 309.5 501.0 309.5Q497.5 309.5 495.5 304.0Q495.0 302.0 491.0 302.0Q484.0 302.0 462.5 311.75Q441.0 321.5 402.5 342.0Q330.5 380.0 311.5 425.5Q307.0 435.0 302.25 442.75Q297.5 450.5 295.5 450.5Q293.5 450.5 292.25 442.75Q291.0 435.0 291.0 424.0Q291.0 413.0 288.75 395.0Q286.5 377.0 283.0 362.5Q277.5 336.0 274.5 322.75Q271.5 309.5 272.0 305.0Q272.5 300.5 276.0 300.5Q278.5 300.5 281.5 301.0Q284.5 301.5 289.0 302.5Q297.0 304.0 303.75 305.25Q310.5 306.5 312.5 307.0Q314.5 307.0 315.25 296.25Q316.0 285.5 316.25 268.5Q316.5 251.5 316.0 233.0Q315.5 214.5 314.25 198.5Q313.0 182.5 311.5 174.0Q309.5 164.5 305.25 159.0Q301.0 153.5 292.0 149.5Q285.5 147.0 280.75 142.75Q276.0 138.5 276.0 136.5Q276.0 134.0 271.5 133.25Q267.0 132.5 260.5 133.5Q246.5 135.5 246.0 130.5Q245.5 125.5 259.5 123.0Q266.0 121.5 276.5 111.0Q287.0 100.5 298.5 85.75Q310.0 71.0 319.0 55.5Q328.0 40.0 331.5 28.5Z" fill="black" /></svg>