<svg xmlns="http://www.w3.org/2000/svg" width="931.5" height="388.5" viewBox="0 0 931.5 388.5"><path d="M108.5 281.0Q100.5 277.5 89.5 269.75Q78.5 262.0 70.5 254.5L50.0 236.0L40.5 263.0Q31.0 289.0 28.75 297.0Q26.5 305.0 30.5 305.0Q34.0 305.0 39.0 303.5Q44.0 302.5 58.25 300.0Q72.5 297.5 87.5 296.5Q103.0 295.0 113.75 293.5Q124.5 292.0 125.0 291.5Q126.0 290.5 121.25 287.5Q116.5 284.5 108.5 281.0ZM173.0 241.0 186.5 238.0 171.5 213.5 164.0 227.0Q161.5 232.5 159.5 237.25Q157.5 242.0 158.0 242.5Q159.0 243.0 163.25 242.5Q167.5 242.0 173.0 241.0ZM305.0 224.0 271.5 212.5Q255.0 207.0 237.0 204.0Q219.0 201.0 205.0 201.0Q198.5 201.0 193.0 201.75Q187.5 202.5 185.0 204.5Q181.5 206.5 182.25 210.0Q183.0 213.5 187.5 221.0Q191.0 226.5 196.25 230.5Q201.5 234.5 212.75 239.0Q224.0 243.5 245.0 251.0Q265.5 257.5 281.75 263.0Q298.0 268.5 300.0 269.5Q302.5 270.5 303.75 265.5Q305.0 260.5 305.0 248.0ZM317.0 267.5Q319.0 261.5 317.0 256.0Q315.0 253.5 315.0 262.0Q315.0 271.5 317.0 267.5ZM348.0 250.0Q340.0 246.0 333.5 243.25Q327.0 240.5 326.0 240.5Q324.5 240.5 324.25 246.0Q324.0 251.5 324.25 258.75Q324.5 266.0 325.75 271.75Q327.0 277.5 328.5 278.0Q330.0 278.0 336.0 276.0Q342.0 274.0 349.0 271.0Q356.0 268.0 361.0 265.5Q366.0 263.0 366.0 262.0Q366.0 261.0 360.5 257.5Q355.0 254.0 348.0 250.0ZM554.0 227.0Q549.0 220.0 544.5 214.75Q540.0 209.5 539.0 209.5Q538.0 209.5 534.0 216.75Q530.0 224.0 526.25 232.5Q522.5 241.0 522.5 244.0Q522.5 245.5 532.25 246.25Q542.0 247.0 551.5 247.0Q557.0 247.0 561.25 246.5Q565.5 246.0 565.5 245.5Q565.5 245.0 562.0 239.5Q558.5 234.0 554.0 227.0ZM600.5 197.0Q600.5 194.0 598.0 192.0Q595.5 190.0 593.0 190.0Q591.0 190.0 590.0 191.0Q586.5 194.5 587.75 198.0Q589.0 201.5 594.0 201.5Q600.5 201.5 600.5 197.0ZM684.0 292.0Q681.0 289.5 677.0 284.0Q673.0 278.5 669.5 273.5L663.0 261.5L651.0 281.0Q646.5 289.0 643.0 295.25Q639.5 301.5 639.5 302.5Q639.5 303.5 647.25 304.5Q655.0 305.5 666.0 305.5Q685.5 305.5 689.5 302.75Q693.5 300.0 684.0 292.0ZM120.0 66.5Q115.0 64.5 107.25 59.25Q99.5 54.0 94.5 48.5L81.0 35.5L78.0 66.5Q76.0 79.0 75.5 88.75Q75.0 98.5 75.5 99.5Q77.5 99.5 85.5 96.0Q93.5 92.5 103.5 87.75Q113.5 83.0 121.25 78.75Q129.0 74.5 130.5 73.0Q131.5 72.5 128.5 70.5Q125.5 68.5 120.0 66.5ZM149.0 126.5Q149.0 124.5 145.75 123.5Q142.5 122.5 138.0 122.5Q127.5 122.5 127.5 125.0Q127.5 127.5 130.25 133.25Q133.0 139.0 136.0 144.0Q139.0 149.0 140.0 149.0Q142.5 149.0 145.75 140.75Q149.0 132.5 149.0 126.5ZM199.5 192.5 213.5 190.0 198.0 169.0 190.5 181.0Q185.5 188.5 184.5 191.5Q183.5 194.5 187.5 194.5Q189.5 194.5 192.5 193.75Q195.5 193.0 199.5 192.5ZM226.5 135.5Q232.5 134.5 233.0 132.5Q233.5 130.5 229.5 123.5L224.0 113.0L218.0 122.5Q214.5 130.0 215.25 133.0Q216.0 136.0 221.0 136.0Q222.0 136.0 223.5 136.0Q225.0 136.0 226.5 135.5ZM305.0 163.0 281.0 154.0Q270.0 149.5 254.75 147.25Q239.5 145.0 227.0 145.0Q219.5 145.0 214.0 145.75Q208.5 146.5 207.5 149.0Q205.0 153.5 208.5 164.25Q212.0 175.0 217.5 180.5Q219.5 182.0 228.0 185.75Q236.5 189.5 248.25 194.25Q260.0 199.0 271.75 203.5Q283.5 208.0 292.5 211.0Q301.5 214.0 303.5 214.0Q304.5 214.0 304.75 206.75Q305.0 199.5 305.0 188.5ZM334.5 32.0Q330.5 32.0 320.75 31.0Q311.0 30.0 302.0 29.0Q298.0 28.5 294.5 28.25Q291.0 28.0 288.5 28.0Q272.5 28.0 284.0 39.5Q286.0 41.0 290.75 52.75Q295.5 64.5 300.5 79.0Q306.0 95.0 308.5 102.0Q311.0 109.0 312.5 109.0Q314.0 109.0 315.5 100.0Q317.5 94.5 322.0 82.25Q326.5 70.0 331.5 59.0Q338.0 45.5 340.0 39.75Q342.0 34.0 340.75 33.0Q339.5 32.0 334.5 32.0ZM321.0 143.5Q323.5 135.5 321.0 130.0Q319.5 127.0 319.5 138.5Q319.5 149.5 321.0 143.5ZM372.5 131.0 359.0 124.0Q354.0 121.5 347.75 117.5Q341.5 113.5 339.0 110.5Q335.5 107.5 334.0 107.5Q332.0 107.5 331.75 112.25Q331.5 117.0 331.5 129.5Q331.5 141.5 331.75 146.25Q332.0 151.0 334.0 151.0Q335.5 151.0 339.0 148.0Q341.5 145.5 347.75 141.75Q354.0 138.0 359.0 136.0ZM507.0 139.0Q506.0 135.5 501.25 134.0Q496.5 132.5 484.0 132.0Q471.5 131.5 446.0 131.5Q425.0 131.5 413.0 132.0Q401.0 132.5 393.5 133.75Q386.0 135.0 379.5 137.75Q373.0 140.5 363.5 145.0Q343.5 155.5 333.0 161.25Q322.5 167.0 318.5 170.75Q314.5 174.5 314.25 179.25Q314.0 184.0 314.0 193.0Q314.0 206.5 316.0 212.5Q318.0 218.5 326.0 225.5Q336.0 234.5 344.75 240.0Q353.5 245.5 365.0 248.25Q376.5 251.0 394.0 252.0Q411.5 253.0 438.5 253.0Q470.0 253.0 484.0 252.5Q498.0 252.0 502.75 250.0Q507.5 248.0 510.0 243.5Q512.0 239.5 512.5 225.25Q513.0 211.0 512.5 193.0Q512.0 175.0 510.75 159.75Q509.5 144.5 507.0 139.0ZM531.5 77.5 543.5 58.0H513.5Q501.0 58.0 492.0 58.75Q483.0 59.5 483.0 61.0Q483.0 66.0 490.5 74.5Q493.0 78.5 497.0 87.75Q501.0 97.0 504.5 107.0L513.0 129.5L516.0 113.5Q517.0 106.5 521.5 96.0Q526.0 85.5 531.5 77.5ZM617.0 89.5Q613.5 83.5 610.75 79.5Q608.0 75.5 608.0 75.5Q607.5 75.5 604.5 80.5Q601.5 85.5 597.0 92.5L587.0 110.0H606.5Q615.0 110.0 620.5 109.0Q626.0 108.0 626.0 107.5Q626.0 103.5 617.0 89.5ZM630.0 165.5Q626.5 158.5 620.5 158.5Q618.0 158.5 616.5 160.0Q612.5 164.5 614.25 167.5Q616.0 170.5 622.5 170.5Q631.0 170.5 630.0 165.5ZM756.0 146.5Q755.5 146.5 749.0 142.75Q742.5 139.0 734.0 134.5L713.0 122.5V169.0L735.0 158.5Q744.0 154.0 750.25 150.5Q756.5 147.0 756.0 146.5ZM733.5 223.0Q727.0 219.0 721.75 216.5Q716.5 214.0 715.5 214.0Q714.5 214.0 713.75 220.5Q713.0 227.0 713.0 236.0Q713.0 245.0 714.0 251.25Q715.0 257.5 716.0 257.5Q717.0 257.5 724.0 254.5Q731.0 251.5 740.0 248.0Q755.5 240.5 759.75 236.0Q764.0 231.5 755.0 231.5Q753.0 231.5 746.75 229.0Q740.5 226.5 733.5 223.0ZM870.0 62.0 879.0 49.0H848.0Q835.5 49.0 826.5 50.0Q817.5 51.0 817.5 52.0Q817.5 53.0 819.75 58.0Q822.0 63.0 825.5 68.5Q829.5 73.5 833.75 83.25Q838.0 93.0 840.0 101.0L845.0 119.5L852.5 97.0Q856.0 88.0 861.0 77.75Q866.0 67.5 870.0 62.0ZM70.5 31.0Q70.5 22.5 71.75 16.25Q73.0 10.0 75.0 10.0Q79.5 10.0 79.5 14.5Q79.5 16.5 84.5 23.25Q89.5 30.0 97.5 38.5Q106.0 47.5 114.75 53.0Q123.5 58.5 136.5 61.5Q149.5 64.5 170.25 65.5Q191.0 66.5 223.5 66.5H288.5L279.0 50.0Q275.0 43.5 270.5 37.5Q266.0 31.5 263.0 30.5Q258.0 26.0 259.5 23.5Q260.0 22.5 267.75 22.25Q275.5 22.0 286.5 22.0Q299.0 22.0 313.5 22.25Q328.0 22.5 341.0 23.25Q354.0 24.0 362.25 24.75Q370.5 25.5 370.5 26.5Q370.5 27.5 367.5 30.0Q364.5 32.5 360.5 34.0Q355.5 36.0 348.5 46.25Q341.5 56.5 336.5 68.0Q331.5 79.5 331.5 86.5Q331.5 96.5 349.5 108.5Q356.0 113.0 361.0 115.5Q366.0 118.0 373.75 119.25Q381.5 120.5 395.0 121.0Q408.5 121.5 432.0 122.0Q460.0 122.5 475.0 122.25Q490.0 122.0 494.25 118.25Q498.5 114.5 494.75 105.25Q491.0 96.0 482.0 78.5Q476.5 67.0 472.25 58.5Q468.0 50.0 467.0 49.0Q466.5 48.0 480.25 47.5Q494.0 47.0 513.5 47.0Q533.5 47.0 547.5 47.25Q561.5 47.5 561.5 47.5Q561.5 47.5 556.75 54.25Q552.0 61.0 546.0 71.0Q536.0 86.0 530.5 98.75Q525.0 111.5 523.75 127.75Q522.5 144.0 523.5 170.5L524.0 216.5L532.5 200.0Q541.0 184.5 545.0 184.5Q548.0 184.5 548.0 194.0Q548.0 199.0 553.25 209.0Q558.5 219.0 566.25 228.5Q574.0 238.0 580.5 243.5Q583.0 246.0 593.0 252.0Q603.0 258.0 614.0 264.5L641.0 278.5L651.0 261.5Q655.5 253.5 657.5 247.5Q659.5 241.5 658.5 239.5Q656.5 238.5 647.75 233.25Q639.0 228.0 628.5 223.0Q613.0 214.5 604.75 212.25Q596.5 210.0 586.5 212.0Q570.0 214.5 570.0 209.5Q570.0 207.0 575.75 198.5Q581.5 190.0 589.5 179.75Q597.5 169.5 603.5 162.5Q606.0 160.0 609.75 155.25Q613.5 150.5 616.5 146.5Q622.5 136.5 627.0 136.5Q630.5 136.5 630.5 144.5Q630.5 154.0 642.0 165.75Q653.5 177.5 674.0 190.0Q685.0 196.5 692.75 202.5Q700.5 208.5 700.5 210.5Q700.5 212.5 692.75 209.25Q685.0 206.0 673.5 199.25Q662.0 192.5 650.0 185.0Q646.0 182.5 637.75 181.0Q629.5 179.5 622.0 179.5Q615.0 179.5 610.0 180.5Q605.0 181.5 605.0 184.0Q605.0 188.0 612.5 196.0Q620.0 204.0 631.5 212.5Q643.0 221.0 654.0 227.0Q667.5 234.0 670.5 238.0Q673.5 242.0 672.0 249.5Q671.0 255.5 675.75 265.25Q680.5 275.0 689.25 285.25Q698.0 295.5 708.5 304.0Q712.0 306.5 723.75 313.25Q735.5 320.0 751.25 328.5Q767.0 337.0 782.5 345.25Q798.0 353.5 810.0 359.5Q822.0 365.5 825.5 367.0Q832.0 368.5 829.5 374.0Q825.5 378.5 777.0 352.0Q757.0 340.5 738.5 331.25Q720.0 322.0 714.0 320.0Q707.0 316.5 694.25 315.0Q681.5 313.5 668.5 313.5Q656.5 313.5 646.5 315.0Q636.5 316.5 633.0 319.0Q629.0 322.5 626.0 322.5Q622.5 322.5 622.75 317.75Q623.0 313.0 627.5 305.5Q630.5 300.5 632.75 295.5Q635.0 290.5 635.0 288.5Q635.0 286.0 627.0 281.0Q619.0 276.0 607.25 270.5Q595.5 265.0 583.25 260.5Q571.0 256.0 562.5 254.5Q555.0 254.0 546.25 254.0Q537.5 254.0 533.0 254.5Q528.0 256.0 525.75 258.25Q523.5 260.5 523.0 267.5Q522.5 274.5 522.5 290.0Q522.5 304.0 521.25 313.5Q520.0 323.0 518.0 323.0Q516.0 323.0 514.75 314.25Q513.5 305.5 513.5 293.0V263.0L453.0 262.0Q421.0 261.5 399.75 264.0Q378.5 266.5 363.25 272.5Q348.0 278.5 333.0 290.0Q327.5 294.5 322.5 296.75Q317.5 299.0 316.5 298.0Q314.5 295.5 313.0 298.75Q311.5 302.0 311.5 307.25Q311.5 312.5 313.5 316.0Q315.0 318.0 326.25 321.5Q337.5 325.0 351.0 327.5Q364.5 329.5 373.75 332.0Q383.0 334.5 383.0 336.5Q383.0 340.0 378.0 340.0Q374.5 340.0 366.25 338.5Q358.0 337.0 342.5 334.0Q324.5 331.0 318.0 331.0Q312.0 331.0 312.0 333.5Q307.5 348.0 306.0 348.0Q305.0 348.0 299.0 331.0Q298.5 327.5 283.0 323.0Q267.5 318.5 233.0 312.5Q212.5 308.0 198.25 305.75Q184.0 303.5 173.0 302.5Q162.0 301.5 149.5 301.5Q133.0 301.5 112.75 302.5Q92.5 303.5 73.0 305.5Q53.5 307.5 38.0 311.5Q27.5 313.5 19.5 315.0Q11.5 316.5 10.5 316.0Q10.0 315.5 12.75 308.25Q15.5 301.0 20.0 291.5Q24.5 281.5 30.0 267.5Q35.5 253.5 38.0 243.5Q41.0 233.5 44.25 226.0Q47.5 218.5 49.5 218.5Q53.0 218.5 53.0 222.5Q53.0 225.5 59.25 232.25Q65.5 239.0 74.75 247.25Q84.0 255.5 94.0 262.5Q104.0 269.5 111.5 273.5Q118.0 276.0 133.0 280.25Q148.0 284.5 167.75 289.25Q187.5 294.0 207.5 298.0Q228.0 302.5 246.0 306.5Q264.0 310.5 276.25 313.0Q288.5 315.5 291.0 316.0Q300.5 318.0 300.5 313.0Q300.5 310.5 301.5 303.75Q302.5 297.0 303.5 290.0Q304.5 283.0 304.5 278.75Q304.5 274.5 303.5 275.5Q302.0 276.5 288.25 273.25Q274.5 270.0 256.5 263.5Q234.0 255.5 218.5 252.25Q203.0 249.0 188.5 249.0Q182.0 249.0 172.0 249.75Q162.0 250.5 153.25 253.5Q144.5 256.5 141.5 263.5Q140.5 268.0 139.0 254.75Q137.5 241.5 135.5 216.5Q134.0 175.0 128.75 153.0Q123.5 131.0 114.5 125.5Q97.0 114.5 140.0 114.5Q183.0 114.5 165.5 125.5Q156.5 131.0 150.5 152.25Q144.5 173.5 144.5 201.5V238.0L153.0 227.0Q157.0 222.5 160.25 217.0Q163.5 211.5 164.0 208.0Q166.0 204.5 171.0 195.25Q176.0 186.0 182.0 176.5Q188.5 167.0 192.5 159.25Q196.5 151.5 196.5 150.5Q196.5 147.5 200.25 139.0Q204.0 130.5 209.25 120.75Q214.5 111.0 219.0 104.0Q223.5 97.0 225.0 97.0Q226.5 97.0 229.25 101.0Q232.0 105.0 233.0 110.5Q236.0 119.5 242.0 124.5Q248.0 129.5 262.5 137.0Q265.5 138.5 274.25 142.25Q283.0 146.0 291.75 149.25Q300.5 152.5 304.0 152.5Q307.0 152.5 306.75 148.25Q306.5 144.0 305.0 133.0Q303.5 124.0 301.0 112.25Q298.5 100.5 297.0 93.5L291.5 75.5H148.5L117.0 89.5Q104.0 96.0 92.0 103.25Q80.0 110.5 75.5 114.5Q72.0 118.0 68.25 120.25Q64.5 122.5 63.5 122.0Q62.5 121.0 63.25 110.5Q64.0 100.0 66.0 86.0Q67.5 72.5 69.0 56.25Q70.5 40.0 70.5 31.0ZM800.0 38.5H848.0Q867.0 38.5 881.25 39.5Q895.5 40.5 895.5 41.5Q895.5 43.5 893.0 47.25Q890.5 51.0 886.5 55.0Q879.5 62.0 872.5 75.0Q865.5 88.0 861.0 101.5Q856.5 115.0 856.5 124.0V140.5H883.5Q895.0 140.5 901.25 141.5Q907.5 142.5 906.5 144.5Q905.5 146.0 897.75 147.5Q890.0 149.0 880.5 149.0H856.5V229.0L889.5 228.5Q921.5 226.0 921.5 231.5Q921.5 233.5 913.0 234.75Q904.5 236.0 889.5 236.0H856.5V275.0Q856.5 313.0 852.5 313.0Q848.5 313.0 847.5 275.5L846.0 238.0H815.0Q768.0 238.0 725.0 265.0Q718.5 269.0 713.25 272.0Q708.0 275.0 707.0 275.0Q706.5 275.0 706.0 262.75Q705.5 250.5 705.0 233.5Q705.0 216.5 706.0 204.5Q707.0 192.5 708.5 192.5Q712.5 192.5 720.5 201.5Q733.0 215.5 751.0 221.25Q769.0 227.0 803.0 227.5L846.0 228.5V151.0L817.5 149.0Q770.5 145.0 726.0 173.0Q710.0 183.0 705.5 183.0Q699.5 183.0 701.0 170.5Q702.0 164.0 700.5 160.0Q699.0 156.0 693.25 151.5Q687.5 147.0 674.0 139.0Q640.5 118.5 610.5 118.5Q598.0 118.5 587.0 122.5Q582.0 125.5 577.5 126.25Q573.0 127.0 572.0 126.5Q571.0 125.5 574.5 117.5Q578.0 109.5 584.0 98.25Q590.0 87.0 596.5 75.75Q603.0 64.5 608.25 57.0Q613.5 49.5 615.0 49.0Q616.0 49.0 617.0 52.5Q618.0 56.0 618.0 60.5Q618.0 76.5 631.0 93.5Q644.0 110.5 668.0 125.5Q681.0 133.5 691.0 139.0Q701.0 144.5 702.0 144.5Q703.5 144.5 704.25 139.0Q705.0 133.5 705.0 126.5Q704.5 114.0 704.75 108.75Q705.0 103.5 707.0 103.5Q708.5 103.5 719.0 113.0Q729.5 123.0 738.0 128.0Q746.5 133.0 758.25 135.25Q770.0 137.5 791.0 139.0Q812.0 140.5 822.5 140.5Q839.5 140.5 839.75 133.75Q840.0 127.0 832.5 107.0Q828.0 95.0 821.5 80.5Q815.0 66.0 810.5 58.0Q806.0 50.0 803.0 44.5Q800.0 39.0 800.0 38.5Z" fill="black" /></svg>