<svg xmlns="http://www.w3.org/2000/svg" width="469.5" height="455.5" viewBox="0 0 469.5 455.5"><path d="M83.0 326.5Q74.0 320.5 67.5 315.75Q61.0 311.0 60.0 311.0Q59.5 311.0 57.0 319.0Q54.5 327.0 50.5 338.5Q47.0 349.5 44.25 359.0Q41.5 368.5 40.0 371.0Q39.5 372.5 51.75 374.25Q64.0 376.0 87.0 376.0Q101.0 376.0 116.25 377.25Q131.5 378.5 145.25 379.75Q159.0 381.0 167.0 382.5Q179.0 384.5 188.5 385.5Q198.0 386.5 199.0 386.0Q199.5 385.0 186.0 378.5Q172.5 372.0 152.0 363.5Q138.5 357.5 124.75 350.5Q111.0 343.5 99.75 337.0Q88.5 330.5 83.0 326.5ZM117.0 215.0 95.5 202.5Q86.5 197.0 76.75 190.75Q67.0 184.5 63.5 181.0L52.5 170.5L50.5 182.5Q41.5 229.5 46.5 229.5Q49.0 229.5 55.25 227.25Q61.5 225.0 68.0 222.5Q75.5 219.5 85.0 217.25Q94.5 215.0 100.5 215.0ZM257.0 206.0 240.5 203.0Q232.5 202.0 222.75 200.0Q213.0 198.0 207.0 197.5Q194.0 195.0 192.5 198.25Q191.0 201.5 199.5 211.5Q202.0 215.5 205.0 219.75Q208.0 224.0 208.5 226.5Q208.5 229.0 210.5 237.0Q212.5 245.0 215.75 254.25Q219.0 263.5 222.5 270.25Q226.0 277.0 228.5 277.0Q233.5 277.0 233.5 258.5Q233.5 253.0 237.25 243.5Q241.0 234.0 245.5 226.0ZM291.5 286.5Q276.5 279.0 269.0 279.0Q263.0 279.0 260.5 284.5Q258.5 289.5 258.75 292.0Q259.0 294.5 264.0 294.5Q266.5 294.5 270.25 294.0Q274.0 293.5 279.0 292.5Q288.5 291.5 291.25 290.0Q294.0 288.5 291.5 286.5ZM410.5 215.5 383.5 213.5Q372.5 212.5 362.0 210.5Q351.5 208.5 348.0 207.5Q340.0 206.0 339.75 209.25Q339.5 212.5 346.0 222.5Q350.0 225.5 354.75 237.25Q359.5 249.0 363.5 262.0Q375.0 297.0 379.0 297.0Q382.5 297.0 385.5 280.5Q386.5 272.5 390.75 259.75Q395.0 247.0 400.0 238.5ZM136.0 81.0 110.0 66.5Q99.5 60.0 89.0 53.75Q78.5 47.5 75.5 45.0Q70.0 39.5 68.25 39.25Q66.5 39.0 66.5 43.0Q66.5 46.0 65.75 54.5Q65.0 63.0 63.0 72.5Q61.0 82.0 60.75 88.75Q60.5 95.5 62.0 95.5Q63.0 95.5 69.75 93.0Q76.5 90.5 83.0 88.5Q90.0 86.0 100.25 83.5Q110.5 81.0 118.0 81.0ZM248.0 67.0Q248.0 67.0 240.5 66.75Q233.0 66.5 222.5 66.5H195.5L211.5 90.0L226.5 113.5L237.0 91.5Q242.5 82.0 245.25 75.0Q248.0 68.0 248.0 67.0ZM306.0 105.0Q299.5 103.0 295.5 102.0Q291.5 101.0 288.5 101.0Q283.5 101.0 281.0 107.0Q276.5 117.0 285.0 117.0Q287.5 117.0 291.5 116.0Q295.5 115.0 300.5 113.5Q313.0 110.0 313.75 108.75Q314.5 107.5 306.0 105.0ZM311.0 152.0Q308.5 152.0 303.0 151.25Q297.5 150.5 293.5 150.0Q292.0 149.0 290.75 149.0Q289.5 149.0 288.5 149.0Q285.0 149.0 283.5 151.0Q282.0 153.0 281.0 157.0Q280.0 161.5 280.0 163.5Q280.0 165.5 283.0 165.5Q288.0 165.5 297.75 162.5Q307.5 159.5 311.0 157.0Q315.5 154.5 315.5 153.75Q315.5 153.0 311.0 152.0ZM373.0 153.5 371.5 135.0Q371.0 122.0 368.0 119.5Q365.0 117.0 351.5 115.5Q343.5 115.5 335.0 115.75Q326.5 116.0 322.5 118.0Q303.0 121.5 292.75 126.25Q282.5 131.0 284.5 134.0Q287.0 138.0 305.25 142.5Q323.5 147.0 348.0 150.0ZM394.0 43.0Q388.0 43.0 378.5 41.75Q369.0 40.5 362.0 40.0L344.5 37.5L378.5 101.5L385.5 85.0Q388.0 78.0 392.5 69.25Q397.0 60.5 400.0 55.5Q406.5 47.0 405.5 45.0Q404.5 43.0 394.0 43.0ZM210.5 389.5Q210.5 387.0 208.0 387.0Q205.5 387.0 205.5 389.5Q205.5 392.5 208.0 392.5Q210.5 392.5 210.5 389.5ZM291.5 334.5Q279.0 327.5 270.0 327.5Q263.0 327.5 261.0 332.5Q259.0 337.5 259.25 340.0Q259.5 342.5 264.0 342.5Q266.5 342.5 270.25 341.75Q274.0 341.0 279.0 340.5Q288.5 339.5 291.25 337.5Q294.0 335.5 291.5 334.5ZM369.5 311.5 367.5 296.5H333.0Q315.0 296.5 299.0 298.75Q283.0 301.0 273.0 304.0Q263.0 307.0 263.0 311.0Q263.0 314.0 273.5 317.5Q284.0 321.0 299.5 324.25Q315.0 327.5 330.75 329.75Q346.5 332.0 357.0 332.0Q367.5 332.0 369.5 330.0Q371.0 328.5 370.75 323.25Q370.5 318.0 369.5 311.5ZM59.0 29.0Q62.5 10.0 66.5 10.0Q69.0 10.0 74.5 23.0Q78.0 32.0 89.0 41.25Q100.0 50.5 115.0 58.5Q130.0 66.5 145.75 71.25Q161.5 76.0 174.0 75.5H188.5L173.0 68.5Q159.0 61.0 158.5 57.0Q158.0 53.0 171.0 53.0Q178.5 53.0 190.5 54.5Q203.5 55.0 224.75 56.75Q246.0 58.5 262.0 60.0Q278.5 61.0 289.5 63.25Q300.5 65.5 300.5 67.0Q300.5 69.0 297.25 70.5Q294.0 72.0 289.0 72.0Q279.0 72.0 279.25 76.25Q279.5 80.5 287.5 85.75Q295.5 91.0 307.5 94.0Q323.0 98.0 339.0 101.0Q355.0 104.0 363.0 104.0Q368.0 104.0 368.0 102.5Q368.0 98.5 363.75 89.75Q359.5 81.0 353.0 71.25Q346.5 61.5 340.0 53.75Q333.5 46.0 329.0 44.0Q323.5 40.0 319.5 36.5Q315.5 33.0 315.5 30.5Q315.5 29.5 330.0 29.5Q342.0 29.5 359.5 30.25Q377.0 31.0 395.0 32.0Q413.0 33.0 427.0 34.25Q441.0 35.5 445.5 36.5Q456.0 39.0 451.0 43.0Q446.0 47.0 433.0 47.0Q419.0 47.0 408.5 59.0Q398.0 71.0 394.0 90.0Q392.5 99.5 394.0 102.25Q395.5 105.0 403.5 105.0Q416.5 105.0 416.25 109.5Q416.0 114.0 403.5 115.0Q394.5 117.0 391.75 119.75Q389.0 122.5 388.0 134.0Q387.5 147.0 389.0 149.5Q390.5 152.0 398.5 152.0Q412.5 152.0 413.25 157.0Q414.0 162.0 400.5 163.0Q390.5 164.5 387.0 167.25Q383.5 170.0 382.0 181.5L380.0 198.5L372.5 161.0L340.5 164.0Q328.0 165.5 314.0 168.5Q300.0 171.5 293.0 174.0Q286.5 176.5 280.5 179.0Q274.5 181.5 273.0 181.5Q271.0 181.5 269.75 165.25Q268.5 149.0 270.0 126.0L273.0 70.0L262.0 77.5Q249.5 85.5 243.75 101.0Q238.0 116.5 235.5 146.0Q234.0 161.0 232.5 171.25Q231.0 181.5 229.5 181.5Q228.5 181.5 226.25 172.5Q224.0 163.5 223.0 151.5Q221.5 139.5 218.0 126.5Q214.5 113.5 211.5 108.5Q207.0 100.5 203.25 97.25Q199.5 94.0 189.75 93.0Q180.0 92.0 157.0 91.5Q81.5 90.0 63.0 111.5Q58.0 117.0 54.5 124.5Q51.0 132.0 50.25 137.5Q49.5 143.0 52.5 143.0Q57.5 143.0 57.5 151.5Q57.5 160.0 71.0 172.5Q84.5 185.0 103.5 195.0Q111.0 199.0 123.75 202.75Q136.5 206.5 150.25 209.5Q164.0 212.5 174.25 213.75Q184.5 215.0 186.5 213.5Q188.0 210.5 180.75 203.75Q173.5 197.0 165.0 194.0Q163.0 193.0 162.5 191.5Q162.0 190.0 164.0 188.5Q165.5 187.0 174.5 187.0Q182.0 187.0 193.0 188.0Q204.0 189.0 216.5 190.5Q236.5 192.5 255.75 194.0Q275.0 195.5 281.0 195.5Q296.5 195.5 296.5 203.0Q296.5 206.5 294.75 207.75Q293.0 209.0 291.5 207.5Q288.0 205.5 284.0 205.5Q276.0 205.5 267.5 211.5Q259.0 217.5 253.5 228.0Q248.5 238.5 243.75 260.25Q239.0 282.0 236.25 307.5Q233.5 333.0 233.5 356.5V387.0L259.5 394.5Q292.5 403.5 318.0 410.25Q343.5 417.0 358.5 420.0Q373.5 423.0 374.0 421.5Q375.0 420.0 375.0 408.0Q375.0 396.0 374.0 380.5L371.5 343.5L328.0 345.0Q307.5 346.0 291.75 348.5Q276.0 351.0 269.0 354.5Q263.5 357.5 259.0 358.75Q254.5 360.0 252.5 360.0Q252.5 360.0 252.25 360.0Q252.0 360.0 252.0 360.0Q250.5 357.5 250.25 336.25Q250.0 315.0 252.0 274.0Q252.5 265.0 254.5 259.25Q256.5 253.5 258.5 253.5Q263.0 253.5 263.0 260.0Q263.0 266.0 273.25 270.0Q283.5 274.0 298.0 276.75Q312.5 279.5 326.0 280.5Q339.5 281.5 346.0 281.5Q353.0 281.5 355.75 280.25Q358.5 279.0 358.5 276.5Q358.5 272.0 354.75 262.75Q351.0 253.5 345.25 243.0Q339.5 232.5 333.5 223.75Q327.5 215.0 322.5 211.5Q317.5 207.5 314.5 203.0Q311.5 198.5 312.0 197.5Q314.5 196.0 329.25 197.25Q344.0 198.5 364.5 201.0Q385.0 202.5 404.5 204.75Q424.0 207.0 430.5 207.5Q451.0 209.5 455.25 210.25Q459.5 211.0 459.5 215.0Q459.5 217.0 453.5 218.0Q447.5 219.0 438.5 220.0Q429.5 221.0 424.5 222.5Q419.5 224.0 416.25 228.0Q413.0 232.0 408.0 241.0Q403.0 249.0 399.5 262.5Q396.0 276.0 394.5 286.5Q393.5 297.0 392.25 307.5Q391.0 318.0 389.0 322.0Q386.0 330.5 392.5 335.0Q397.0 338.0 397.0 339.5Q397.0 341.0 393.0 343.5Q390.0 345.5 387.5 356.75Q385.0 368.0 384.0 386.0Q382.5 402.0 382.25 410.5Q382.0 419.0 384.5 423.0Q387.0 427.0 394.0 429.25Q401.0 431.5 414.5 435.0Q423.0 437.0 428.5 440.25Q434.0 443.5 433.0 444.5Q432.0 445.5 428.0 445.5Q423.0 445.5 414.5 444.0Q406.0 442.5 396.5 439.5Q378.0 435.0 348.75 428.75Q319.5 422.5 285.75 415.75Q252.0 409.0 219.25 403.0Q186.5 397.0 160.0 392.75Q133.5 388.5 119.0 387.0Q105.0 386.0 93.75 385.25Q82.5 384.5 74.0 384.5Q52.0 384.5 41.0 389.5Q30.0 394.5 23.0 406.0Q15.0 419.0 13.0 419.0Q11.0 419.0 10.5 412.5Q10.0 407.5 12.25 400.75Q14.5 394.0 18.5 389.0Q22.5 384.0 29.75 367.25Q37.0 350.5 43.0 332.5Q51.5 308.5 56.75 295.75Q62.0 283.0 64.5 283.0Q66.5 283.0 66.5 291.0Q66.5 294.5 70.5 300.25Q74.5 306.0 79.5 311.5Q84.0 316.0 97.75 324.0Q111.5 332.0 130.0 341.5Q148.5 351.0 166.5 359.25Q184.5 367.5 198.0 373.0Q211.5 378.5 215.5 378.5Q221.0 378.5 222.75 374.75Q224.5 371.0 224.5 360.0Q224.5 344.0 221.5 324.0Q218.5 304.0 214.25 284.5Q210.0 265.0 204.5 251.0L195.0 225.0H140.5Q90.5 225.0 67.25 232.5Q44.0 240.0 39.5 258.5Q38.0 264.5 35.0 268.5Q32.0 272.5 31.0 272.5Q26.5 270.5 27.0 266.5Q28.5 262.0 31.0 248.25Q33.5 234.5 36.0 217.0Q38.5 199.5 40.75 182.5Q43.0 165.5 44.25 154.0Q45.5 142.5 44.5 141.5Q44.0 139.5 45.25 125.75Q46.5 112.0 49.5 93.5Q53.0 76.0 55.75 57.0Q58.5 38.0 59.0 29.0Z" fill="black" /></svg>