<svg xmlns="http://www.w3.org/2000/svg" width="573.0" height="458.5" viewBox="0 0 573.0 458.5"><path d="M179.5 353.0 135.0 342.5Q123.0 339.5 108.5 335.25Q94.0 331.0 81.0 326.25Q68.0 321.5 59.5 317.5L29.0 303.5L31.0 347.0Q32.0 364.5 33.5 377.75Q35.0 391.0 35.5 392.5Q37.5 392.5 43.25 390.25Q49.0 388.0 56.0 384.5Q64.5 380.0 85.25 374.0Q106.0 368.0 127.5 364.0ZM116.0 125.0Q113.0 122.5 110.75 120.75Q108.5 119.0 106.5 119.0Q102.0 119.0 100.5 129.5Q99.0 140.0 99.0 164.5V210.5L119.0 197.5Q127.5 193.0 146.25 186.25Q165.0 179.5 183.5 175.5L228.5 165.0L175.5 148.0Q154.0 141.0 136.25 134.25Q118.5 127.5 116.0 125.0ZM478.5 344.5 477.0 257.5 474.5 170.5 386.0 170.0Q347.5 169.5 324.25 169.25Q301.0 169.0 289.5 172.0Q278.0 175.0 274.0 184.25Q270.0 193.5 270.25 211.5Q270.5 229.5 270.5 260.0V344.5ZM301.5 59.5 314.0 47.0 264.5 43.5Q244.0 42.5 229.75 43.75Q215.5 45.0 215.5 48.0Q215.5 50.0 218.75 57.25Q222.0 64.5 227.0 72.0Q231.5 80.0 237.0 92.75Q242.5 105.5 245.5 115.5Q255.5 147.0 261.5 147.0Q264.0 147.0 264.0 139.0Q264.0 133.0 267.75 122.25Q271.5 111.5 277.5 99.25Q283.5 87.0 289.75 76.25Q296.0 65.5 301.5 59.5ZM533.0 30.5Q495.0 29.0 456.5 29.0Q441.5 29.0 436.75 31.5Q432.0 34.0 435.5 42.0Q439.0 50.0 448.0 66.5Q452.0 73.5 457.25 86.25Q462.5 99.0 465.5 110.0Q475.0 138.0 479.5 138.0Q483.5 138.0 486.5 120.0Q488.0 110.0 495.5 93.25Q503.0 76.5 511.0 63.5Q519.5 50.5 526.25 40.75Q533.0 31.0 533.0 30.5ZM404.5 11.0Q404.5 10.0 409.5 10.5Q414.5 11.0 421.5 13.0Q428.5 15.0 451.75 16.25Q475.0 17.5 501.0 17.5Q527.0 17.5 545.0 18.5Q563.0 19.5 563.0 21.0Q563.0 22.0 557.0 29.0Q551.0 36.0 542.5 44.0Q529.0 57.5 518.0 76.75Q507.0 96.0 501.5 114.75Q496.0 133.5 498.0 147.0Q499.5 155.5 498.75 161.5Q498.0 167.5 495.5 167.5Q494.0 167.5 492.75 185.25Q491.5 203.0 490.75 234.75Q490.0 266.5 490.0 308.0Q490.0 375.0 488.5 411.75Q487.0 448.5 484.5 448.5Q481.5 448.5 479.75 435.25Q478.0 422.0 478.0 402.0V356.5H270.5V396.5Q270.5 413.5 268.75 425.0Q267.0 436.5 264.0 436.5Q261.0 436.5 259.25 425.0Q257.5 413.5 257.5 396.5V357.0L226.5 360.5Q187.5 365.0 151.5 372.25Q115.5 379.5 87.25 388.25Q59.0 397.0 42.5 406.5Q26.0 416.0 26.0 424.5Q26.0 430.0 21.5 430.0Q19.0 430.0 18.5 415.25Q18.0 400.5 18.5 379.5Q19.5 365.5 19.0 350.75Q18.5 336.0 17.5 323.5Q16.5 311.0 14.5 304.5Q12.0 295.0 11.0 287.25Q10.0 279.5 11.0 279.0Q11.0 279.0 11.25 278.75Q11.5 278.5 12.0 278.5Q18.0 278.5 31.5 289.0Q45.0 298.5 69.75 308.25Q94.5 318.0 124.0 326.25Q153.5 334.5 182.0 339.5Q210.5 344.5 231.5 344.5H257.5V263.5Q257.5 241.0 257.25 222.0Q257.0 203.0 256.5 191.0Q256.0 179.0 255.0 178.5Q253.5 177.0 240.5 178.5Q227.5 180.0 209.25 183.0Q191.0 186.0 173.25 190.0Q155.5 194.0 144.0 197.5Q136.5 200.0 126.0 207.5Q115.5 215.0 107.5 222.5Q100.5 229.5 94.25 235.0Q88.0 240.5 87.0 240.5Q85.5 240.5 85.25 226.0Q85.0 211.5 86.0 190.5Q86.5 176.5 86.0 161.5Q85.5 146.5 84.75 133.75Q84.0 121.0 82.5 114.0Q76.5 87.5 85.0 87.5Q90.5 87.5 101.5 100.0Q108.5 107.5 124.75 116.0Q141.0 124.5 163.0 132.0Q185.0 139.5 209.0 145.0Q233.5 151.5 240.0 151.5Q244.5 151.5 244.5 149.0Q244.5 146.5 243.0 141.0Q241.5 135.5 233.25 117.5Q225.0 99.5 215.5 79.5Q205.0 59.0 198.5 44.5Q192.0 30.0 192.5 30.0Q193.0 29.5 203.25 29.75Q213.5 30.0 230.75 30.25Q248.0 30.5 268.5 31.5L343.5 34.0L322.0 57.5Q309.5 69.5 299.25 85.5Q289.0 101.5 282.75 117.0Q276.5 132.5 276.5 143.5V158.5L369.0 156.5Q395.0 156.0 416.5 155.25Q438.0 154.5 451.25 153.75Q464.5 153.0 465.0 152.5Q466.5 150.5 463.25 139.0Q460.0 127.5 453.75 111.5Q447.5 95.5 440.0 79.0Q432.5 62.5 425.5 50.0Q416.5 35.0 410.5 23.75Q404.5 12.5 404.5 11.0Z" fill="black" /></svg>