<svg xmlns="http://www.w3.org/2000/svg" width="544.0" height="385.5" viewBox="0 0 544.0 385.5"><path d="M76.5 193.0 64.5 187.0Q59.5 184.5 52.25 179.0Q45.0 173.5 39.5 169.0Q34.0 164.0 29.75 161.25Q25.5 158.5 24.5 160.0Q23.0 162.0 22.5 172.0Q22.0 182.0 22.25 193.75Q22.5 205.5 23.25 214.5Q24.0 223.5 25.5 224.5Q27.0 225.5 30.0 223.75Q33.0 222.0 36.5 218.5Q40.0 214.5 46.75 209.75Q53.5 205.0 60.0 201.5ZM119.0 272.5 117.0 253.0Q116.5 244.5 115.5 238.0Q114.5 231.5 114.0 230.0Q112.5 230.0 106.75 234.5Q101.0 239.0 93.5 245.5Q85.5 252.0 79.75 258.0Q74.0 264.0 75.0 265.0Q76.0 266.0 82.5 267.25Q89.0 268.5 98.0 270.5ZM366.5 299.5Q370.0 293.5 366.25 293.25Q362.5 293.0 343.5 297.5Q337.0 299.0 328.25 299.5Q319.5 300.0 314.0 299.0Q308.5 298.0 304.5 298.75Q300.5 299.5 300.5 301.0Q300.5 303.0 305.0 310.75Q309.5 318.5 315.25 327.5Q321.0 336.5 326.25 343.25Q331.5 350.0 333.0 350.0Q334.0 350.0 337.0 345.0Q340.0 340.0 343.5 333.5Q346.0 326.5 350.0 320.5Q354.0 314.5 356.0 312.5Q359.0 310.5 362.0 306.75Q365.0 303.0 366.5 299.5ZM144.5 69.5Q144.5 68.5 136.75 67.75Q129.0 67.0 117.5 67.0H91.5L105.0 85.0Q115.0 100.0 118.0 100.0Q119.5 100.0 121.0 98.5Q122.5 97.0 124.5 95.0Q127.0 91.0 130.75 86.0Q134.5 81.0 138.0 78.5Q140.5 75.5 142.5 72.75Q144.5 70.0 144.5 69.5ZM243.5 162.5Q247.0 157.0 249.0 152.5Q251.0 148.0 250.5 147.5Q248.5 147.5 240.75 152.25Q233.0 157.0 224.0 163.5Q215.0 170.0 208.5 175.5Q202.0 181.0 201.5 182.5Q201.5 186.5 210.5 186.5Q214.0 186.5 215.75 187.5Q217.5 188.5 216.0 191.0Q215.0 192.5 216.0 195.0Q217.0 197.5 219.0 198.5Q225.5 202.5 228.0 202.5Q234.5 202.5 234.5 189.5Q234.5 184.0 237.25 176.25Q240.0 168.5 243.5 162.5ZM307.5 179.5Q302.5 176.0 297.5 173.5Q292.5 171.0 291.5 170.5Q290.5 170.5 289.25 176.75Q288.0 183.0 287.0 191.5Q286.5 201.0 287.0 208.0Q287.5 215.0 288.5 215.0Q293.0 215.0 300.75 211.0Q308.5 207.0 314.75 202.0Q321.0 197.0 321.0 194.5Q321.0 192.0 317.0 187.5Q313.0 183.0 307.5 179.5ZM333.0 141.5Q333.0 139.0 330.25 138.0Q327.5 137.0 324.0 137.0Q317.5 137.0 315.0 140.0Q313.0 143.5 318.5 152.5Q323.0 160.0 324.0 160.0Q325.5 160.0 328.5 154.0Q331.0 150.5 332.0 146.75Q333.0 143.0 333.0 141.5ZM336.0 197.0Q339.0 194.0 336.0 191.5Q335.0 190.5 334.0 191.25Q333.0 192.0 333.0 194.0Q333.0 196.0 334.0 197.0Q335.0 198.0 336.0 197.0ZM359.0 160.0Q352.5 141.5 348.0 141.5Q345.0 141.5 339.5 149.5Q328.0 168.5 331.0 177.5Q334.0 186.5 352.5 186.5Q364.0 186.5 365.0 182.75Q366.0 179.0 359.0 160.0ZM404.0 154.0Q402.5 149.0 399.75 144.75Q397.0 140.5 395.0 140.5Q392.0 140.5 388.0 146.75Q384.0 153.0 381.0 161.25Q378.0 169.5 378.0 176.0Q378.0 182.5 381.0 184.5Q384.0 186.5 397.5 186.5Q407.5 186.5 411.0 185.25Q414.5 184.0 412.75 177.0Q411.0 170.0 404.0 154.0ZM497.0 197.0Q497.0 195.5 486.5 194.75Q476.0 194.0 463.0 194.0Q450.0 194.0 438.75 194.75Q427.5 195.5 426.0 197.0Q424.5 198.5 423.75 205.75Q423.0 213.0 423.25 221.75Q423.5 230.5 424.75 237.0Q426.0 243.5 427.5 243.5Q429.5 243.5 437.0 239.25Q444.5 235.0 454.5 228.5Q464.5 222.0 474.25 215.25Q484.0 208.5 490.5 203.5Q497.0 198.5 497.0 197.0ZM366.0 39.5Q366.0 30.5 363.0 30.5Q361.0 30.5 353.5 37.0Q346.0 43.5 337.75 52.5Q329.5 61.5 324.0 68.75Q318.5 76.0 319.5 77.0Q320.5 78.0 324.5 78.5Q328.5 79.0 333.0 79.0Q337.5 79.0 346.5 81.0Q355.5 83.0 363.5 86.0Q371.5 88.0 377.25 89.25Q383.0 90.5 385.0 90.5Q385.0 90.5 385.25 90.5Q385.5 90.5 385.5 90.5Q385.5 89.5 383.0 83.5Q380.5 77.5 376.5 69.5Q372.0 61.5 369.0 52.75Q366.0 44.0 366.0 39.5ZM380.0 140.0Q377.0 137.0 369.5 137.0Q363.0 137.0 362.25 141.5Q361.5 146.0 366.0 153.5Q368.5 157.0 370.25 156.5Q372.0 156.0 375.5 151.0Q378.0 147.5 379.5 144.5Q381.0 141.5 380.0 140.0ZM427.5 140.0Q427.5 138.5 424.75 137.5Q422.0 136.5 418.5 136.5Q412.0 136.5 409.5 139.0Q407.5 142.5 412.5 152.0L417.0 161.5L422.0 152.5Q424.5 148.5 425.75 145.0Q427.0 141.5 427.5 140.0ZM480.5 161.5Q466.5 151.5 455.75 144.25Q445.0 137.0 443.0 137.0Q441.0 137.0 436.25 145.25Q431.5 153.5 427.5 163.5Q423.5 173.5 423.5 179.0Q423.5 181.5 426.5 183.0Q429.5 184.5 439.0 185.25Q448.5 186.0 468.0 187.0Q486.0 187.5 499.25 187.75Q512.5 188.0 513.0 188.0Q513.5 187.0 504.25 179.75Q495.0 172.5 480.5 161.5ZM342.0 37.0Q352.5 25.5 360.75 17.75Q369.0 10.0 369.5 10.0Q370.5 10.0 371.5 15.0Q372.5 20.0 372.5 27.5Q373.5 45.5 380.0 59.75Q386.5 74.0 399.0 86.5Q405.0 92.5 419.0 104.0Q433.0 115.5 450.25 128.75Q467.5 142.0 484.0 154.25Q500.5 166.5 511.75 174.25Q523.0 182.0 525.0 182.0Q530.0 182.0 530.0 183.5Q530.0 186.0 532.5 192.5Q534.0 197.0 533.25 197.75Q532.5 198.5 528.0 197.0Q525.0 196.0 514.0 201.0Q503.0 206.0 488.5 214.75Q474.0 223.5 460.0 233.0Q446.0 242.5 436.0 250.75Q426.0 259.0 425.0 263.0Q422.5 273.0 417.5 268.0Q414.5 265.0 406.5 268.0Q402.0 270.5 393.25 280.5Q384.5 290.5 374.25 303.75Q364.0 317.0 355.5 330.25Q347.0 343.5 342.5 353.0L332.0 375.5L319.5 351.5Q314.0 341.5 306.25 328.75Q298.5 316.0 293.0 308.0Q284.0 295.5 283.0 291.5Q282.0 287.5 286.5 285.5Q291.0 282.5 285.0 275.25Q279.0 268.0 257.0 245.0Q242.5 230.5 231.5 220.5Q220.5 210.5 209.5 204.75Q198.5 199.0 184.25 196.5Q170.0 194.0 149.0 194.0Q142.0 194.0 137.5 194.75Q133.0 195.5 134.0 197.5Q135.0 199.5 134.0 204.75Q133.0 210.0 130.5 216.5Q125.0 229.0 123.75 239.25Q122.5 249.5 126.75 260.25Q131.0 271.0 141.75 285.25Q152.5 299.5 171.0 320.5Q180.5 331.5 187.0 340.5Q193.5 349.5 193.5 351.5Q191.5 351.5 183.25 344.25Q175.0 337.0 164.5 325.5Q154.0 314.0 144.0 302.5Q136.5 293.0 129.5 288.25Q122.5 283.5 112.0 281.0Q101.5 278.5 82.5 277.0L49.5 274.0L84.5 242.0Q99.0 229.0 109.5 217.25Q120.0 205.5 120.0 202.0Q120.0 192.5 108.5 192.5Q97.0 192.5 76.75 202.5Q56.5 212.5 35.0 230.0Q26.5 237.5 19.5 242.0Q12.5 246.5 10.5 246.5Q10.0 245.5 10.75 237.5Q11.5 229.5 13.5 218.5Q16.0 208.0 16.5 192.0Q17.0 176.0 16.5 163.0Q15.5 150.5 15.75 141.5Q16.0 132.5 17.0 132.5Q19.0 132.5 23.0 137.25Q27.0 142.0 32.0 149.0Q44.0 166.0 58.0 173.75Q72.0 181.5 93.5 182.5L117.5 184.0L119.0 154.0Q120.0 136.5 118.0 125.5Q116.0 114.5 109.25 104.0Q102.5 93.5 88.5 78.5L69.5 59.0H121.5Q143.0 59.0 158.0 60.0Q173.0 61.0 173.0 62.0Q173.0 63.5 168.25 67.0Q163.5 70.5 156.5 74.5Q143.5 82.0 137.5 89.0Q131.5 96.0 130.0 108.0Q128.5 120.0 129.0 143.5L130.5 184.0L151.5 185.0Q162.0 186.0 171.0 184.5Q180.0 183.0 186.5 179.5Q193.0 176.0 206.75 166.25Q220.5 156.5 235.75 144.25Q251.0 132.0 263.25 121.25Q275.5 110.5 279.5 105.5Q282.5 101.5 285.5 99.0Q288.5 96.5 290.0 96.5Q290.5 96.5 290.75 96.75Q291.0 97.0 291.0 97.0Q292.0 98.0 290.25 102.5Q288.5 107.0 285.0 111.5Q281.0 116.0 273.5 128.0Q266.0 140.0 258.5 152.5Q249.5 169.0 245.75 180.25Q242.0 191.5 244.0 202.0Q246.0 212.5 254.75 225.0Q263.5 237.5 279.0 256.0L310.5 293.5L332.0 291.5Q344.0 290.5 356.25 285.75Q368.5 281.0 384.5 272.0L415.5 254.0V194.0H378.0V233.0Q378.0 251.0 377.0 261.5Q376.0 272.0 374.0 272.0Q372.5 272.0 371.0 261.75Q369.5 251.5 369.5 235.0V197.0L355.5 200.0Q344.0 201.5 338.25 204.75Q332.5 208.0 330.75 216.5Q329.0 225.0 329.0 242.0Q329.0 270.5 325.0 270.5Q323.5 269.5 322.25 260.0Q321.0 250.5 321.0 239.0Q321.0 227.0 320.5 218.75Q320.0 210.5 319.5 210.5Q319.0 210.5 312.75 213.75Q306.5 217.0 298.5 221.5Q283.0 230.5 278.5 230.5Q278.5 230.5 278.25 230.5Q278.0 230.5 278.0 230.5Q277.5 230.0 277.75 217.75Q278.0 205.5 279.0 189.5L280.5 149.0L294.5 161.5Q306.5 173.0 312.5 173.0Q320.5 173.0 306.0 144.5Q304.0 140.0 302.25 136.0Q300.5 132.0 300.5 131.0Q300.5 130.0 320.0 129.25Q339.5 128.5 367.5 128.5L433.5 128.0L422.0 118.0Q415.5 112.5 398.25 105.75Q381.0 99.0 360.5 93.25Q340.0 87.5 322.5 86.0Q311.5 84.0 303.75 82.5Q296.0 81.0 296.0 79.0Q296.0 78.0 299.0 75.0Q302.0 72.0 306.0 70.0Q310.0 67.5 320.5 57.75Q331.0 48.0 342.0 37.0Z" fill="black" /></svg>