<svg xmlns="http://www.w3.org/2000/svg" width="792.5" height="466.0" viewBox="0 0 792.5 466.0"><path d="M84.5 327.0Q59.5 308.5 55.0 308.5Q51.0 308.5 51.0 319.0Q51.0 324.0 48.75 339.5Q46.5 355.0 43.0 369.5Q39.5 386.0 38.75 397.25Q38.0 408.5 39.5 408.5Q40.5 408.5 48.75 405.75Q57.0 403.0 65.5 399.5Q74.5 395.5 95.75 390.75Q117.0 386.0 138.0 382.5L187.0 374.0L145.5 357.0Q128.0 350.0 110.0 341.25Q92.0 332.5 84.5 327.0ZM230.5 206.5Q235.0 202.0 228.5 196.0Q222.0 190.0 218.0 196.0Q216.0 200.0 219.25 204.0Q222.5 208.0 226.5 208.0Q229.0 208.0 230.5 206.5ZM238.5 282.0Q238.5 279.5 235.75 277.25Q233.0 275.0 229.5 273.0Q220.5 269.5 220.5 278.0Q220.5 281.5 223.25 284.5Q226.0 287.5 229.5 287.5Q233.0 287.5 235.75 285.75Q238.5 284.0 238.5 282.0ZM547.5 244.0Q555.0 230.0 550.5 230.0Q545.5 230.0 533.0 244.5Q527.0 252.0 520.75 257.5Q514.5 263.0 512.0 263.0Q505.0 263.0 499.5 272.0Q495.5 276.5 496.75 279.0Q498.0 281.5 506.5 283.5Q513.0 285.0 520.0 287.25Q527.0 289.5 531.0 291.0Q537.5 293.0 539.25 289.75Q541.0 286.5 541.0 275.5Q541.0 267.0 543.0 258.0Q545.0 249.0 547.5 244.0ZM135.5 71.0 149.0 52.0H124.5Q114.5 52.0 106.75 52.25Q99.0 52.5 99.0 53.5Q99.0 55.0 102.0 61.0Q105.0 67.0 108.75 74.25Q112.5 81.5 116.0 87.0Q119.5 92.5 120.0 92.5Q121.0 91.5 125.5 85.25Q130.0 79.0 135.5 71.0ZM232.0 125.0Q232.0 122.5 230.75 119.5Q229.5 116.5 227.0 115.0Q220.5 112.5 220.5 120.5Q220.5 124.5 222.25 127.5Q224.0 130.5 227.0 130.5Q232.0 130.5 232.0 125.0ZM430.5 135.0Q439.0 125.0 435.0 125.0Q428.0 125.0 400.0 142.5Q377.0 156.5 375.75 163.5Q374.5 170.5 393.5 174.0Q396.0 174.5 397.75 174.75Q399.5 175.0 401.0 175.0Q406.5 175.0 409.25 171.75Q412.0 168.5 414.5 161.5Q417.0 154.5 421.75 146.75Q426.5 139.0 430.5 135.0ZM515.5 164.0Q517.5 142.5 518.25 123.25Q519.0 104.0 518.75 90.75Q518.5 77.5 517.5 74.5Q515.5 68.5 512.5 68.5Q508.5 68.5 492.0 83.5Q459.5 113.5 443.0 138.25Q426.5 163.0 428.0 177.5Q428.5 184.5 436.5 197.5Q444.5 210.5 455.75 224.25Q467.0 238.0 477.25 247.75Q487.5 257.5 492.0 257.5Q498.5 257.5 502.75 249.25Q507.0 241.0 510.0 220.5Q513.0 200.0 515.5 164.0ZM533.0 71.0 559.0 33.5H538.5Q521.0 33.5 518.5 37.25Q516.0 41.0 525.0 57.0ZM733.0 37.5Q734.0 36.0 727.25 34.75Q720.5 33.5 710.5 33.5Q693.0 33.5 689.5 35.5Q686.0 37.5 688.5 46.5Q690.0 52.5 692.25 60.25Q694.5 68.0 696.0 73.5Q697.5 79.5 699.75 83.75Q702.0 88.0 703.0 88.0Q706.0 88.0 714.0 74.25Q722.0 60.5 733.0 37.5ZM586.5 14.5Q590.5 10.0 599.0 10.0Q605.0 10.0 610.75 12.5Q616.5 15.0 618.0 19.0Q619.5 27.5 607.0 27.5Q598.0 27.5 586.25 34.5Q574.5 41.5 563.25 53.25Q552.0 65.0 544.0 79.0Q538.5 88.5 535.25 99.0Q532.0 109.5 530.0 125.0Q528.0 140.5 526.5 165.0Q525.5 191.0 525.5 208.75Q525.5 226.5 526.5 226.5Q529.0 226.5 538.75 218.25Q548.5 210.0 560.0 198.5Q570.0 188.5 578.25 182.0Q586.5 175.5 588.5 175.5Q589.0 175.5 589.0 176.0Q589.0 178.5 583.75 191.25Q578.5 204.0 571.0 218.5Q556.0 247.5 553.75 267.5Q551.5 287.5 563.25 304.25Q575.0 321.0 602.0 341.5Q615.5 351.5 629.75 364.5Q644.0 377.5 650.5 385.0Q658.0 393.5 664.0 397.5Q670.0 401.5 682.0 403.25Q694.0 405.0 718.5 407.0Q739.5 408.0 754.75 410.25Q770.0 412.5 770.0 415.0Q770.0 417.0 769.25 418.25Q768.5 419.5 756.5 419.5Q748.0 419.5 730.75 418.75Q713.5 418.0 684.5 416.25Q655.5 414.5 611.5 411.75Q567.5 409.0 505.0 405.0Q407.0 398.5 335.75 395.25Q264.5 392.0 214.0 392.0Q156.5 392.0 121.5 396.75Q86.5 401.5 66.25 411.5Q46.0 421.5 33.0 437.5Q26.5 445.5 21.0 450.75Q15.5 456.0 13.0 456.0Q12.5 456.0 12.25 455.75Q12.0 455.5 12.0 455.5Q10.0 454.5 11.75 445.25Q13.5 436.0 17.5 425.0Q31.0 383.5 35.5 348.5Q40.0 313.5 33.0 293.5Q28.5 278.5 29.25 268.5Q30.0 258.5 35.5 258.5Q37.5 258.5 39.5 260.0Q45.0 264.5 45.0 274.5Q45.0 278.5 53.0 287.0Q61.0 295.5 72.0 304.5Q83.0 313.5 92.25 318.5Q101.5 323.5 103.5 321.0Q104.5 320.0 105.5 304.25Q106.5 288.5 107.25 263.0Q108.0 237.5 108.0 207.5Q108.5 172.0 108.25 149.5Q108.0 127.0 107.0 113.5Q106.0 100.0 103.75 91.75Q101.5 83.5 98.0 77.0Q93.5 69.5 87.0 63.0Q80.5 56.5 75.5 54.5Q57.0 48.5 65.25 43.75Q73.5 39.0 101.0 39.0Q117.0 39.0 134.75 37.25Q152.5 35.5 162.5 33.0Q169.0 31.0 173.5 30.0Q178.0 29.0 181.5 29.0Q188.5 29.0 192.5 33.0Q198.5 39.0 189.0 39.0Q182.0 39.0 171.75 47.75Q161.5 56.5 151.25 71.0Q141.0 85.5 132.5 103.5Q127.5 113.5 124.5 122.25Q121.5 131.0 120.25 143.5Q119.0 156.0 118.5 176.5Q118.0 197.0 118.0 231.0Q118.0 265.0 118.25 286.0Q118.5 307.0 121.25 319.0Q124.0 331.0 131.75 337.5Q139.5 344.0 154.25 349.25Q169.0 354.5 193.5 362.5Q206.5 366.5 219.0 369.5Q231.5 372.5 248.0 375.0Q264.5 377.5 289.25 379.75Q314.0 382.0 350.75 384.5Q387.5 387.0 440.5 390.5Q481.5 393.0 517.75 395.0Q554.0 397.0 581.75 398.25Q609.5 399.5 625.75 399.75Q642.0 400.0 642.5 399.5Q645.0 396.5 641.25 391.5Q637.5 386.5 625.25 376.25Q613.0 366.0 590.0 349.0Q563.5 328.5 545.75 316.75Q528.0 305.0 514.25 299.25Q500.5 293.5 485.0 291.0Q475.5 288.5 469.0 286.0Q462.5 283.5 462.5 281.0Q462.5 275.5 468.5 275.5Q478.5 275.5 471.75 263.0Q465.0 250.5 443.5 229.5Q413.5 201.0 395.25 189.75Q377.0 178.5 361.0 178.5Q339.5 178.5 336.0 172.5Q332.5 166.5 350.0 158.5Q377.0 145.5 367.5 140.75Q358.0 136.0 304.5 136.0Q275.5 136.0 260.5 137.0Q245.5 138.0 238.75 140.5Q232.0 143.0 226.0 148.5Q217.0 158.0 217.0 161.25Q217.0 164.5 225.0 174.0Q235.5 185.5 247.5 192.0Q259.5 198.5 278.25 200.75Q297.0 203.0 328.0 203.0Q354.0 203.0 372.5 204.5Q391.0 206.0 392.5 208.5Q395.0 211.0 375.0 213.0Q355.0 215.0 315.5 215.0Q288.0 215.0 271.25 215.25Q254.5 215.5 245.5 216.5Q236.5 217.5 231.75 220.0Q227.0 222.5 223.0 226.5Q215.5 235.5 215.75 239.0Q216.0 242.5 224.0 252.0Q234.0 263.0 247.75 269.5Q261.5 276.0 283.25 278.5Q305.0 281.0 339.0 281.0Q366.5 281.0 388.5 283.0Q410.5 285.0 414.5 287.5Q418.5 291.0 399.0 292.25Q379.5 293.5 333.5 293.5Q301.5 293.5 283.0 293.75Q264.5 294.0 254.75 295.5Q245.0 297.0 239.5 300.0Q234.0 303.0 227.0 309.0L208.5 324.5L208.0 286.5Q207.0 245.5 206.5 207.5Q206.0 169.5 206.25 139.25Q206.5 109.0 207.0 90.75Q207.5 72.5 208.5 71.5Q214.0 71.5 217.0 84.5Q220.5 99.0 232.25 107.5Q244.0 116.0 268.25 120.0Q292.5 124.0 333.0 125.0Q358.5 125.5 374.0 125.25Q389.5 125.0 398.5 123.75Q407.5 122.5 413.75 119.75Q420.0 117.0 427.0 112.5Q464.5 86.0 484.75 69.5Q505.0 53.0 505.0 48.0Q505.0 44.5 499.25 40.5Q493.5 36.5 485.0 33.0Q476.0 28.5 475.0 26.75Q474.0 25.0 485.0 24.25Q496.0 23.5 523.0 23.0Q546.5 22.0 565.0 19.75Q583.5 17.5 586.5 14.5ZM758.5 14.5Q758.5 10.0 765.0 10.0Q769.5 10.0 774.5 12.5Q779.5 15.0 781.0 19.0Q782.5 22.5 780.5 25.0Q778.5 27.5 775.5 27.5Q769.0 27.5 757.5 37.75Q746.0 48.0 735.0 63.5Q724.0 79.0 717.0 94.5Q713.5 102.5 710.5 113.25Q707.5 124.0 705.5 140.5Q703.5 157.0 701.75 182.5Q700.0 208.0 698.0 245.5Q696.0 279.5 694.0 307.75Q692.0 336.0 690.5 353.25Q689.0 370.5 688.5 371.5Q685.0 375.5 683.5 366.5Q682.0 357.5 683.0 328.5Q684.0 299.5 687.0 243.0Q689.5 188.0 690.25 153.0Q691.0 118.0 689.25 97.5Q687.5 77.0 682.0 65.25Q676.5 53.5 667.0 44.5Q659.5 37.0 654.75 31.0Q650.0 25.0 650.0 23.5Q650.0 23.0 665.75 22.0Q681.5 21.0 704.0 21.0Q730.0 21.0 744.25 19.5Q758.5 18.0 758.5 14.5Z" fill="black" /></svg>