<svg xmlns="http://www.w3.org/2000/svg" width="402.0" height="455.0" viewBox="0 0 402.0 455.0"><path d="M107.0 251.5Q97.5 244.5 94.0 244.5Q89.0 244.5 89.0 267.5V291.0L118.0 280.5Q140.0 271.5 142.0 269.25Q144.0 267.0 134.0 263.5Q127.5 261.0 120.0 257.25Q112.5 253.5 107.0 251.5ZM94.5 99.0 63.0 83.0Q50.5 76.0 40.5 71.25Q30.5 66.5 29.5 66.5Q29.0 66.5 28.5 76.0Q28.0 85.5 28.0 98.5Q28.0 112.5 28.5 118.5Q29.0 124.5 30.5 124.5Q32.0 124.5 35.0 120.0Q39.0 116.5 43.0 113.75Q47.0 111.0 50.5 111.0Q53.5 111.0 61.5 109.0Q69.5 107.0 77.0 104.5ZM96.0 145.5 105.5 127.5H57.0L69.0 157.0Q77.5 180.5 80.5 180.5Q81.5 180.5 83.0 175.5Q84.5 170.5 88.5 161.75Q92.5 153.0 96.0 145.5ZM186.5 129.0 174.0 100.0H146.5Q135.0 100.0 122.0 102.5Q109.0 105.0 102.0 108.0L85.5 115.5H106.5Q115.0 116.0 121.0 117.5Q127.0 119.0 127.0 120.0Q127.0 121.0 123.25 127.25Q119.5 133.5 113.0 140.5Q107.5 147.0 102.25 161.25Q97.0 175.5 93.0 188.0Q89.0 206.5 90.25 213.5Q91.5 220.5 98.0 228.0Q109.0 240.5 128.0 247.25Q147.0 254.0 179.0 257.5L215.5 261.5V240.0Q215.5 221.0 207.5 190.75Q199.5 160.5 186.5 129.0ZM243.0 118.5Q243.0 117.5 235.5 117.0Q228.0 116.5 218.0 116.5Q208.5 116.5 201.25 116.75Q194.0 117.0 194.0 117.0Q194.0 120.0 197.5 129.25Q201.0 138.5 206.0 149.0Q211.0 159.5 215.25 167.25Q219.5 175.0 220.5 175.0Q221.0 169.5 224.5 159.75Q228.0 150.0 231.5 141.5Q236.5 132.0 239.75 125.5Q243.0 119.0 243.0 118.5ZM316.5 125.5Q313.5 113.5 311.25 107.0Q309.0 100.5 304.5 97.75Q300.0 95.0 288.5 95.0Q279.5 95.0 264.75 96.25Q250.0 97.5 226.5 100.0L185.5 103.0L225.5 104.5Q252.5 105.0 261.5 108.5Q270.5 112.0 259.5 119.0Q251.5 124.0 244.75 138.0Q238.0 152.0 234.0 171.5Q230.0 191.0 230.0 213.0L229.0 257.5H328.0L327.5 208.0Q327.0 187.0 324.0 163.25Q321.0 139.5 316.5 125.5ZM355.5 47.5 370.0 22.5H331.5Q314.0 22.5 303.0 24.0Q292.0 25.5 292.0 28.5Q292.0 30.5 295.75 38.5Q299.5 46.5 303.0 55.0Q307.0 63.0 312.25 76.5Q317.5 90.0 320.5 100.0L327.5 124.5L334.0 99.0Q336.5 88.0 343.0 72.75Q349.5 57.5 355.5 47.5ZM85.5 396.5Q81.0 394.0 70.25 389.25Q59.5 384.5 49.0 379.0L22.0 365.0V395.5Q22.0 412.0 24.0 418.5Q26.0 425.0 29.5 425.0Q32.0 425.0 35.5 424.25Q39.0 423.5 40.5 421.5Q42.5 419.5 51.25 416.0Q60.0 412.5 70.5 409.0Q86.0 403.0 89.25 400.75Q92.5 398.5 85.5 396.5ZM215.5 304.0V271.0H191.5Q177.5 271.5 160.5 275.75Q143.5 280.0 127.75 286.75Q112.0 293.5 102.0 301.5Q95.5 307.0 93.0 311.0Q90.5 315.0 90.25 323.25Q90.0 331.5 91.0 349.0L96.0 387.0H222.5L219.0 361.5Q218.0 350.5 216.75 333.5Q215.5 316.5 215.5 304.0ZM332.0 387.0 330.5 328.5Q330.0 302.5 327.75 285.5Q325.5 268.5 323.0 268.5Q321.0 268.5 306.0 268.75Q291.0 269.0 272.0 270.5L226.5 271.0V308.5Q226.5 324.0 227.5 340.75Q228.5 357.5 230.0 366.5L233.5 387.0ZM270.5 11.5Q270.5 10.5 277.5 10.25Q284.5 10.0 295.5 10.0Q308.5 10.0 324.75 10.25Q341.0 10.5 355.75 11.25Q370.5 12.0 380.75 12.5Q391.0 13.0 392.0 14.0Q392.0 15.0 387.75 21.75Q383.5 28.5 375.5 37.0Q365.5 50.0 359.0 61.0Q352.5 72.0 348.75 85.75Q345.0 99.5 343.25 120.25Q341.5 141.0 341.25 173.0Q341.0 205.0 341.0 253.0L342.5 398.0L286.0 399.0H190.5Q168.5 398.0 140.75 402.5Q113.0 407.0 86.0 415.0Q59.0 423.0 38.0 434.0Q28.5 439.0 21.0 442.0Q13.5 445.0 11.0 445.0Q10.5 445.0 10.5 444.75Q10.5 444.5 10.5 444.5Q10.0 440.0 10.25 428.5Q10.5 417.0 11.0 403.0Q11.5 389.0 12.0 375.5Q12.5 362.0 13.25 353.25Q14.0 344.5 14.5 344.0Q15.0 342.0 19.5 345.0Q24.0 348.0 29.5 352.0Q35.5 357.5 46.25 364.5Q57.0 371.5 67.0 376.5Q77.0 381.5 80.5 381.5Q82.5 381.5 82.5 371.5Q82.5 361.5 80.5 346.5Q79.5 337.5 78.5 322.25Q77.5 307.0 76.75 289.75Q76.0 272.5 76.0 257.5Q75.5 235.0 74.0 220.5Q72.5 206.0 69.5 194.25Q66.5 182.5 60.5 169.0Q46.0 138.0 39.0 138.0Q29.0 139.5 22.0 142.5Q18.5 143.5 17.0 140.25Q15.5 137.0 15.25 125.75Q15.0 114.5 15.0 92.0Q16.5 70.0 18.5 54.75Q20.5 39.5 21.5 39.5Q26.5 39.5 37.0 51.5Q46.0 61.5 56.25 68.0Q66.5 74.5 81.5 78.5Q96.5 82.5 118.75 84.5Q141.0 86.5 174.0 87.5Q197.0 87.5 218.75 87.5Q240.5 87.5 257.0 86.75Q273.5 86.0 279.5 84.5L304.0 80.0L287.0 47.5Q281.0 34.5 275.75 23.5Q270.5 12.5 270.5 11.5Z" fill="black" /></svg>