<svg xmlns="http://www.w3.org/2000/svg" width="547.5" height="387.0" viewBox="0 0 547.5 387.0"><path d="M141.5 299.0 93.5 282.5Q73.5 275.5 57.5 269.25Q41.5 263.0 38.0 262.0Q32.5 260.5 31.0 264.5Q29.5 268.5 29.5 289.0Q29.5 301.5 30.5 310.75Q31.5 320.0 32.5 320.0Q33.5 320.0 36.75 318.25Q40.0 316.5 44.0 314.5Q48.0 312.0 63.5 309.0Q79.0 306.0 97.0 304.0ZM99.5 157.0Q99.5 153.5 94.0 151.0Q89.0 150.0 89.0 157.0Q89.0 164.5 94.0 163.0Q99.5 162.0 99.5 157.0ZM101.0 200.5Q100.0 199.0 98.0 197.5Q96.0 196.0 93.5 196.0Q89.0 196.0 89.0 200.5Q89.0 205.0 96.5 205.0Q102.0 205.0 101.0 200.5ZM100.0 242.5Q101.0 241.0 100.0 239.0Q99.0 237.0 96.5 236.0Q89.0 233.5 89.0 239.5Q89.0 246.0 94.5 246.0Q98.0 246.0 100.0 242.5ZM103.0 123.5Q103.0 121.0 101.0 119.5Q99.0 118.0 96.5 118.0Q89.0 118.0 89.0 123.5Q89.0 125.0 91.25 126.5Q93.5 128.0 96.5 128.0Q99.0 128.0 101.0 126.5Q103.0 125.0 103.0 123.5ZM194.5 200.5V169.0H146.5Q105.0 169.0 95.5 173.75Q86.0 178.5 103.0 191.0Q109.0 195.0 114.75 197.0Q120.5 199.0 129.75 199.75Q139.0 200.5 155.5 200.5ZM195.5 224.0 193.0 209.5 151.0 210.5Q105.0 211.0 96.75 215.0Q88.5 219.0 107.0 232.0Q115.5 238.5 125.0 240.25Q134.5 242.0 156.5 242.0Q171.5 242.0 183.0 241.25Q194.5 240.5 195.5 239.5Q196.0 238.5 196.25 234.0Q196.5 229.5 195.5 224.0ZM194.5 159.5V132.5H152.5Q134.5 132.5 119.5 133.75Q104.5 135.0 101.0 136.0Q95.5 139.0 96.5 140.75Q97.5 142.5 108.5 149.5Q118.0 156.0 128.25 157.75Q138.5 159.5 159.5 159.5ZM228.5 180.5Q216.5 170.0 212.5 170.0Q208.0 170.0 208.0 186.5V204.5L223.0 199.0Q238.5 194.0 239.25 191.75Q240.0 189.5 228.5 180.5ZM389.0 217.0Q377.5 211.0 370.0 207.5Q362.5 204.0 355.0 202.75Q347.5 201.5 336.0 201.25Q324.5 201.0 305.0 201.5Q269.0 202.0 249.0 203.5Q229.0 205.0 220.5 210.25Q212.0 215.5 210.0 227.5Q208.0 239.5 208.0 261.5V301.0L332.5 300.5L457.0 299.0L458.5 282.5Q459.5 271.0 456.5 265.5Q453.5 260.0 440.0 249.5Q431.5 242.5 416.75 233.0Q402.0 223.5 389.0 217.0ZM391.0 158.0Q400.0 147.0 396.5 147.0Q391.5 147.0 368.0 164.5Q349.5 178.0 343.0 183.5Q336.5 189.0 340.5 190.25Q344.5 191.5 358.0 191.5Q374.5 191.5 378.25 190.0Q382.0 188.5 382.0 180.5Q382.0 176.0 384.75 169.5Q387.5 163.0 391.0 158.0ZM459.5 185.5Q459.0 160.5 457.75 139.25Q456.5 118.0 455.5 113.0L452.5 99.5L437.0 117.5Q426.5 128.5 416.25 141.0Q406.0 153.5 398.75 163.75Q391.5 174.0 389.5 179.0Q388.5 181.5 389.5 185.25Q390.5 189.0 393.5 191.5Q399.5 196.5 397.0 202.0Q396.5 204.0 404.5 211.0Q412.5 218.0 423.5 226.25Q434.5 234.5 444.25 240.5Q454.0 246.5 457.0 246.5Q458.0 246.5 458.75 228.75Q459.5 211.0 459.5 185.5ZM224.5 63.5 239.5 36.5H190.0L197.0 48.5Q199.5 54.0 201.5 61.25Q203.5 68.5 203.5 74.0Q203.5 87.0 207.0 87.0Q211.5 87.0 224.5 63.5ZM489.5 59.0 508.0 22.0H445.0L452.5 36.5Q456.0 42.0 459.0 52.75Q462.0 63.5 462.5 73.0Q463.5 82.5 465.5 89.0Q467.5 95.5 468.5 95.5Q469.5 95.5 475.5 84.75Q481.5 74.0 489.5 59.0ZM426.5 11.5Q427.5 10.0 430.5 10.0Q433.5 10.0 435.5 11.0Q438.0 12.0 454.25 12.5Q470.5 13.0 489.5 13.0Q511.5 13.0 524.5 14.5Q537.5 16.0 537.5 17.5Q537.5 22.0 531.5 22.0Q523.5 22.0 513.0 37.0Q502.5 52.0 486.5 84.5L466.0 125.5L467.5 299.0L502.0 300.5Q537.0 302.0 536.25 306.5Q535.5 311.0 500.5 311.0H464.0L463.0 343.0L462.5 377.0L459.5 311.0H284.5Q228.5 311.0 189.5 311.5Q150.5 312.0 124.5 313.0Q98.5 314.0 82.0 316.25Q65.5 318.5 55.0 322.5Q44.5 326.5 36.5 332.0Q24.0 340.0 17.5 340.0Q10.0 340.0 16.0 328.0Q18.5 324.5 19.5 309.75Q20.5 295.0 19.5 278.0Q18.5 233.0 24.0 233.0Q26.0 233.0 28.0 239.0Q29.0 242.5 35.0 247.25Q41.0 252.0 47.5 255.5Q56.0 259.5 72.5 265.5Q89.0 271.5 108.25 277.75Q127.5 284.0 145.75 289.25Q164.0 294.5 176.75 297.5Q189.5 300.5 191.5 299.5Q195.5 298.0 197.25 292.25Q199.0 286.5 199.0 274.0V251.0H149.0Q119.0 251.0 107.25 252.5Q95.5 254.0 91.0 258.5Q88.5 261.0 85.75 262.75Q83.0 264.5 82.0 263.5Q81.0 262.5 80.5 250.5Q80.0 238.5 79.75 219.75Q79.5 201.0 79.5 180.0Q79.5 159.0 79.75 140.25Q80.0 121.5 80.75 109.25Q81.5 97.0 82.0 96.5Q82.0 96.5 82.0 96.5Q82.0 96.5 82.5 96.5Q86.5 96.5 101.5 109.0Q110.0 115.5 115.5 118.75Q121.0 122.0 130.5 122.75Q140.0 123.5 159.5 123.5H200.5L197.5 93.5Q195.5 70.0 189.0 53.75Q182.5 37.5 173.0 32.0Q166.0 28.0 169.0 26.5Q170.5 26.5 180.25 26.25Q190.0 26.0 204.25 26.0Q218.5 26.0 232.5 26.25Q246.5 26.5 256.25 26.75Q266.0 27.0 267.5 27.5Q268.5 27.5 265.5 30.5Q262.5 33.5 257.0 38.0Q249.5 44.0 241.0 56.0Q232.5 68.0 225.0 81.75Q217.5 95.5 212.75 108.0Q208.0 120.5 208.0 128.5Q208.0 141.0 212.0 148.25Q216.0 155.5 230.0 170.0Q240.5 180.5 246.25 185.0Q252.0 189.5 259.25 190.5Q266.5 191.5 281.0 191.5Q293.5 191.5 301.5 190.5Q309.5 189.5 316.75 186.5Q324.0 183.5 333.5 177.5Q341.0 173.0 356.25 162.25Q371.5 151.5 389.75 138.25Q408.0 125.0 424.25 112.5Q440.5 100.0 449.5 92.5Q455.0 88.0 454.5 76.5Q454.0 65.0 449.5 52.0Q445.0 39.0 437.0 29.5Q431.5 23.5 428.0 18.0Q424.5 12.5 426.5 11.5Z" fill="black" /></svg>