<svg xmlns="http://www.w3.org/2000/svg" width="579.0" height="383.5" viewBox="0 0 579.0 383.5"><path d="M43.5 257.5Q37.0 254.5 32.0 252.25Q27.0 250.0 26.0 250.0Q25.5 250.0 25.25 258.25Q25.0 266.5 25.0 278.0Q25.0 292.5 25.75 298.0Q26.5 303.5 29.0 303.5Q31.0 303.5 33.0 302.0Q36.0 300.5 49.0 296.75Q62.0 293.0 77.0 289.5L112.5 280.0L86.0 273.0Q75.0 269.5 62.5 265.25Q50.0 261.0 43.5 257.5ZM113.0 151.5 126.0 135.5H102.0Q85.0 135.5 82.5 136.75Q80.0 138.0 85.0 143.5Q88.0 147.0 91.25 151.75Q94.5 156.5 96.0 159.5Q98.5 163.5 100.5 163.5Q104.0 163.5 113.0 151.5ZM166.5 79.5Q158.0 75.5 151.0 72.0Q144.0 68.5 142.5 68.0Q141.0 68.0 140.0 74.75Q139.0 81.5 139.0 91.5Q139.0 117.0 144.5 117.0Q147.0 117.0 151.0 113.0Q153.0 111.0 161.5 107.75Q170.0 104.5 180.0 102.0Q195.0 98.0 198.25 96.0Q201.5 94.0 196.0 92.0Q192.5 91.0 183.75 87.0Q175.0 83.0 166.5 79.5ZM331.0 102.5Q322.5 101.5 312.5 100.75Q302.5 100.0 291.5 100.0Q268.0 100.0 243.0 102.25Q218.0 104.5 196.25 108.25Q174.5 112.0 161.25 116.75Q148.0 121.5 148.0 126.5Q148.0 128.0 142.75 134.5Q137.5 141.0 130.0 148.5L111.0 166.5L114.0 270.5L127.5 273.5Q131.5 274.0 144.25 274.75Q157.0 275.5 174.75 276.0Q192.5 276.5 211.5 277.0Q243.0 277.0 261.0 276.25Q279.0 275.5 290.25 271.25Q301.5 267.0 311.25 257.5Q321.0 248.0 335.5 230.5Q349.0 214.5 354.75 206.5Q360.5 198.5 361.75 191.25Q363.0 184.0 362.5 170.5Q362.5 159.0 360.75 145.5Q359.0 132.0 356.5 124.0Q354.0 115.5 351.75 111.75Q349.5 108.0 345.0 106.0Q340.5 104.0 331.0 102.5ZM361.5 280.0Q361.5 279.5 361.0 271.0Q360.5 262.5 359.0 250.5L356.5 221.0L313.0 272.0L336.5 276.0Q346.5 278.0 354.0 279.0Q361.5 280.0 361.5 280.0ZM395.0 47.5Q395.0 46.5 385.75 46.0Q376.5 45.5 363.5 45.0L332.0 44.5L345.5 70.5Q351.0 80.5 354.75 90.0Q358.5 99.5 358.5 102.5Q358.5 107.5 360.5 107.5Q362.5 107.5 365.25 102.75Q368.0 98.0 370.0 91.5Q371.0 86.0 375.25 78.0Q379.5 70.0 384.0 64.0Q388.5 58.0 391.75 53.25Q395.0 48.5 395.0 47.5ZM544.5 27.5Q544.0 27.5 532.25 26.5Q520.5 25.5 504.0 24.5L464.0 22.0L474.0 41.5Q478.0 49.0 484.0 63.25Q490.0 77.5 494.0 90.0Q498.0 102.5 501.75 109.0Q505.5 115.5 506.0 113.0Q507.0 110.0 509.25 102.5Q511.5 95.0 513.5 87.0Q516.0 79.5 521.25 68.0Q526.5 56.5 532.0 48.5Q537.5 40.0 541.25 34.0Q545.0 28.0 544.5 27.5ZM447.5 12.0Q449.5 10.0 456.0 10.0Q461.5 10.0 467.5 11.5Q474.5 12.5 492.0 13.5Q509.5 14.5 527.0 14.5Q544.0 14.5 556.5 15.75Q569.0 17.0 569.0 18.5Q569.0 20.0 565.75 23.75Q562.5 27.5 557.5 31.0Q553.0 34.5 545.25 46.25Q537.5 58.0 531.5 70.5L516.5 101.5L515.5 231.5Q515.0 267.5 514.75 297.75Q514.5 328.0 514.25 347.0Q514.0 366.0 514.0 367.5Q514.0 373.5 509.5 373.5Q505.0 373.5 505.0 364.0Q505.0 358.5 500.5 353.75Q496.0 349.0 483.25 342.5Q470.5 336.0 445.5 325.5Q411.5 310.5 391.25 302.25Q371.0 294.0 353.0 290.5Q334.5 286.5 311.25 286.0Q288.0 285.5 247.0 286.0Q220.5 286.0 196.25 286.75Q172.0 287.5 155.5 288.0Q139.0 288.5 134.5 289.5Q25.0 305.5 25.0 323.0Q25.0 327.5 17.5 327.5Q10.0 327.5 14.0 317.0Q15.5 312.5 16.0 302.0Q16.5 291.5 16.25 278.75Q16.0 266.0 15.25 255.25Q14.5 244.5 13.0 240.0Q10.0 232.0 17.5 232.0Q23.5 232.0 29.5 238.5Q32.0 241.5 40.25 245.75Q48.5 250.0 59.0 254.0Q69.5 258.0 79.0 260.75Q88.5 263.5 93.5 263.5Q97.5 263.5 99.5 261.25Q101.5 259.0 102.0 251.25Q102.5 243.5 102.5 227.0Q102.5 207.0 100.5 194.25Q98.5 181.5 92.25 170.0Q86.0 158.5 74.0 143.5Q69.0 136.5 66.0 131.5Q63.0 126.5 64.5 126.0Q66.0 126.0 76.25 126.0Q86.5 126.0 99.5 126.5L130.0 127.0V86.0Q130.0 67.0 131.25 55.5Q132.5 44.0 134.5 44.0Q139.0 44.0 139.0 49.0Q139.0 51.5 149.5 58.5Q160.0 65.5 174.75 72.75Q189.5 80.0 202.0 84.0Q207.5 85.5 221.25 87.25Q235.0 89.0 252.75 90.25Q270.5 91.5 288.25 92.25Q306.0 93.0 320.0 93.0Q331.5 93.0 338.25 92.25Q345.0 91.5 345.0 90.5Q345.0 89.5 340.25 80.75Q335.5 72.0 329.0 61.0Q318.0 42.5 317.25 38.0Q316.5 33.5 324.5 35.0Q326.5 35.5 340.75 35.75Q355.0 36.0 373.5 36.0Q392.0 36.0 405.0 37.0Q418.0 38.0 418.0 39.0Q418.0 40.5 413.25 45.75Q408.5 51.0 402.0 58.0Q392.0 67.5 386.0 77.0Q380.0 86.5 377.0 100.0Q374.0 113.5 373.25 135.5Q372.5 157.5 373.0 192.5Q373.5 221.0 374.0 237.5Q374.5 254.0 375.5 262.25Q376.5 270.5 378.5 274.0Q380.5 277.5 383.5 279.0Q387.5 281.0 391.5 284.25Q395.5 287.5 397.5 290.0Q399.0 291.5 409.0 297.0Q419.0 302.5 434.25 310.0Q449.5 317.5 467.0 325.25Q484.5 333.0 500.5 340.0Q503.0 340.0 503.75 331.75Q504.5 323.5 504.5 301.75Q504.5 280.0 503.5 240.5Q503.0 204.0 502.0 182.5Q501.0 161.0 499.75 148.0Q498.5 135.0 496.0 125.25Q493.5 115.5 489.5 103.5Q482.5 84.0 474.25 65.25Q466.0 46.5 459.25 33.25Q452.5 20.0 449.5 18.5Q446.0 16.5 447.5 12.0Z" fill="black" /></svg>