<svg xmlns="http://www.w3.org/2000/svg" width="605.5" height="383.0" viewBox="0 0 605.5 383.0"><path d="M87.5 200.5 62.0 189.5Q52.0 185.0 42.25 179.25Q32.5 173.5 29.0 170.5Q24.5 167.0 23.5 167.0Q21.5 167.0 21.0 173.75Q20.5 180.5 20.5 198.5V233.5ZM133.0 76.0Q133.0 76.0 126.0 75.75Q119.0 75.5 109.0 75.5Q99.5 75.5 92.75 76.5Q86.0 77.5 86.0 79.0Q86.0 80.0 89.0 86.75Q92.0 93.5 95.5 101.0Q99.0 109.0 101.75 116.25Q104.5 123.5 104.5 127.0Q105.5 127.0 110.0 120.25Q114.5 113.5 119.75 104.0Q125.0 94.5 129.0 86.5Q133.0 78.5 133.0 76.0ZM160.0 99.5Q156.5 91.5 152.75 85.75Q149.0 80.0 148.0 80.0Q146.5 80.0 142.0 85.0Q137.5 90.0 133.0 97.0Q128.0 104.0 125.25 111.0Q122.5 118.0 121.25 127.5Q120.0 137.0 119.0 153.5L118.0 193.0L149.5 191.5Q164.5 190.5 171.5 189.75Q178.5 189.0 180.75 186.75Q183.0 184.5 183.5 179.5Q184.5 173.0 181.5 160.0Q178.5 147.0 173.0 131.0Q167.5 115.0 160.0 99.5ZM207.5 77.0Q207.5 76.0 200.75 75.75Q194.0 75.5 184.0 75.5Q174.5 75.5 167.75 75.75Q161.0 76.0 161.0 77.0Q161.0 78.0 164.25 85.5Q167.5 93.0 172.0 103.0L182.5 127.0L195.5 103.0Q200.5 93.0 204.0 85.5Q207.5 78.0 207.5 77.0ZM316.0 157.0Q314.5 142.0 310.5 142.0Q307.5 142.0 295.0 152.0L281.5 163.0L296.5 168.5Q309.5 173.0 313.5 173.0Q317.0 173.0 317.0 169.25Q317.0 165.5 316.0 157.0ZM338.0 200.5Q339.5 198.0 337.0 198.0Q333.0 198.0 312.5 203.0Q301.5 205.0 297.25 207.5Q293.0 210.0 293.5 215.75Q294.0 221.5 298.0 233.5L304.0 249.5L320.0 227.0Q327.0 217.0 332.25 209.75Q337.5 202.5 338.0 200.5ZM332.0 334.0 349.0 308.0Q356.5 296.5 360.5 289.0Q364.5 281.5 363.5 281.5Q358.5 283.5 338.5 288.5Q328.0 291.5 323.5 294.0Q319.0 296.5 320.0 302.25Q321.0 308.0 326.0 320.0ZM357.5 119.5Q357.5 109.0 354.0 109.0Q350.0 109.0 336.5 119.5Q328.5 126.0 327.25 129.0Q326.0 132.0 329.5 133.0Q332.5 134.0 338.5 136.5Q344.5 139.0 350.0 140.5Q358.5 144.0 360.25 143.5Q362.0 143.0 360.5 138.5Q357.5 130.5 357.5 119.5ZM381.5 170.0Q381.5 167.5 375.0 163.75Q368.5 160.0 359.5 155.75Q350.5 151.5 342.75 148.75Q335.0 146.0 332.0 146.0Q324.5 146.0 325.0 155.25Q325.5 164.5 333.5 174.5Q337.5 178.5 340.0 180.75Q342.5 183.0 346.5 183.0Q350.0 183.0 358.25 180.5Q366.5 178.0 374.0 175.0Q381.5 172.0 381.5 170.0ZM401.0 96.5Q399.0 78.0 393.5 78.0Q389.5 78.0 378.5 86.5L365.0 98.0L383.0 105.5Q399.0 113.0 401.5 113.0Q402.5 113.0 402.0 108.0Q401.5 103.0 401.0 96.5ZM419.5 132.5Q410.5 127.0 399.5 122.0Q388.5 117.0 382.0 114.5L366.5 107.5L368.0 122.5Q368.5 137.5 386.0 151.0L403.0 164.5L422.5 157.0Q430.5 153.5 436.25 150.5Q442.0 147.5 442.0 146.0Q442.0 145.0 435.75 140.5Q429.5 136.0 419.5 132.5ZM473.0 221.0Q472.0 219.0 461.75 212.5Q451.5 206.0 438.25 198.25Q425.0 190.5 414.25 184.75Q403.5 179.0 401.0 179.0Q395.0 179.5 387.0 183.5Q379.0 187.5 373.25 191.75Q367.5 196.0 368.0 198.5Q369.0 200.5 379.25 207.75Q389.5 215.0 402.5 223.0L435.5 242.5L455.5 233.5Q463.5 230.0 468.75 226.25Q474.0 222.5 473.0 221.0ZM526.0 198.5Q526.0 196.5 516.5 189.5Q507.0 182.5 494.0 174.5Q481.0 166.5 470.0 160.75Q459.0 155.0 455.5 155.0Q453.0 155.0 445.5 157.75Q438.0 160.5 430.0 163.0L411.5 172.0L423.5 179.5Q428.5 182.5 440.0 189.25Q451.5 196.0 463.0 203.0L491.0 219.5L508.0 210.5Q516.0 207.0 521.0 203.25Q526.0 199.5 526.0 198.5ZM541.0 148.0Q530.0 141.5 521.0 137.0Q512.0 132.5 509.5 132.5Q505.0 132.5 496.75 136.0Q488.5 139.5 481.75 143.5Q475.0 147.5 475.0 149.5Q475.0 150.5 484.5 157.75Q494.0 165.0 508.0 173.0L542.0 193.0L560.0 185.0Q570.5 180.5 573.0 176.75Q575.5 173.0 568.0 166.75Q560.5 160.5 541.0 148.0ZM432.5 53.5Q432.5 43.0 428.0 43.0Q424.5 43.0 417.5 50.5Q409.0 60.0 410.25 64.75Q411.5 69.5 423.5 74.0Q433.0 77.5 435.0 77.25Q437.0 77.0 435.5 72.5Q432.5 64.5 432.5 53.5ZM464.5 104.5Q424.0 82.0 415.0 82.0Q409.0 82.0 409.0 90.5Q409.5 95.0 413.25 102.5Q417.0 110.0 422.0 116.0Q427.0 122.0 430.0 122.0Q431.0 122.0 434.75 124.75Q438.5 127.5 442.0 131.5Q451.0 140.5 458.0 140.5Q462.0 140.5 471.75 137.25Q481.5 134.0 490.0 130.25Q498.5 126.5 498.5 125.0Q498.5 124.0 488.25 118.0Q478.0 112.0 464.5 104.5ZM435.5 12.5Q436.5 10.0 437.5 10.0Q440.0 10.0 442.0 37.0Q443.5 53.0 444.75 61.25Q446.0 69.5 449.5 74.25Q453.0 79.0 461.0 86.0Q478.0 100.5 492.0 109.0Q506.0 117.5 513.5 117.5Q517.5 117.5 526.5 114.0Q535.5 110.5 545.0 106.0Q553.0 102.0 559.0 99.75Q565.0 97.5 568.5 97.5Q570.0 97.5 571.0 98.5Q572.0 100.5 565.75 104.75Q559.5 109.0 549.5 113.5Q540.5 117.5 533.25 121.5Q526.0 125.5 526.0 126.5Q526.0 127.5 536.5 135.25Q547.0 143.0 562.0 152.0Q576.5 161.5 586.0 169.25Q595.5 177.0 593.5 178.0Q591.0 180.5 578.5 187.0Q566.0 193.5 550.5 200.75Q535.0 208.0 522.5 213.5Q511.5 218.5 507.75 222.0Q504.0 225.5 506.0 230.5Q507.5 239.0 503.5 239.0Q500.0 239.0 494.5 233.5Q492.0 231.0 488.5 231.0Q485.5 231.0 481.25 232.5Q477.0 234.0 470.0 236.5Q454.5 244.0 452.5 247.75Q450.5 251.5 458.5 258.5Q464.5 263.5 465.25 266.0Q466.0 268.5 463.0 268.5Q461.0 268.5 457.5 267.25Q454.0 266.0 449.0 263.0L431.5 251.5L419.0 262.0Q413.5 266.0 408.0 269.0Q402.5 272.0 400.0 272.0Q396.0 272.0 388.25 279.0Q380.5 286.0 371.0 297.0Q361.5 308.0 352.75 320.5Q344.0 333.0 338.5 344.0Q331.5 359.0 326.25 366.0Q321.0 373.0 319.0 371.0Q314.0 366.5 320.0 359.0Q324.0 354.5 323.5 349.25Q323.0 344.0 318.5 330.5Q315.0 321.5 311.0 312.25Q307.0 303.0 303.5 299.5Q299.0 294.5 298.75 292.25Q298.5 290.0 307.0 287.5Q315.5 285.0 338.0 279.5Q350.5 276.0 364.5 271.25Q378.5 266.5 391.0 261.25Q403.5 256.0 411.25 251.75Q419.0 247.5 419.0 245.5Q419.0 244.0 410.0 238.0Q401.0 232.0 388.5 224.75Q376.0 217.5 365.75 212.0Q355.5 206.5 353.0 206.5Q351.0 206.5 345.0 212.5Q339.0 218.5 331.75 228.0Q324.5 237.5 317.5 247.5Q310.5 257.5 306.5 266.0Q302.5 274.0 298.25 280.0Q294.0 286.0 292.0 286.0Q287.5 286.0 287.5 283.0Q287.5 280.0 292.0 272.0Q295.5 266.0 294.25 254.75Q293.0 243.5 288.5 231.75Q284.0 220.0 278.0 213.5Q274.0 209.5 272.5 205.5Q271.0 201.5 272.0 200.5Q273.0 199.0 261.75 198.0Q250.5 197.0 234.5 197.0H194.0V248.5Q194.0 299.5 189.0 299.5Q187.5 299.5 185.75 287.0Q184.0 274.5 183.5 249.5L182.0 199.0L161.5 198.5Q149.0 197.0 140.5 197.0Q130.0 197.0 125.5 201.25Q121.0 205.5 120.0 217.0Q119.0 228.5 119.0 251.0Q119.0 273.5 117.5 287.0Q116.0 300.5 114.5 300.5Q112.5 300.5 110.75 287.5Q109.0 274.5 109.0 253.0Q109.0 234.0 108.0 220.25Q107.0 206.5 106.0 206.5Q103.0 206.5 94.0 209.75Q85.0 213.0 73.5 217.75Q62.0 222.5 51.25 227.5Q40.5 232.5 34.0 236.5Q27.0 241.5 20.25 245.0Q13.5 248.5 12.5 248.5Q11.5 248.5 10.75 238.5Q10.0 228.5 10.0 213.5Q10.0 198.5 10.5 183.5Q11.0 168.5 12.0 157.75Q13.0 147.0 14.0 146.0Q14.0 146.0 14.0 146.0Q14.0 146.0 14.5 146.0Q16.0 146.0 21.0 149.5Q26.0 153.0 31.0 158.5Q45.0 172.0 64.0 180.25Q83.0 188.5 95.5 188.5Q109.0 188.5 109.0 179.5Q109.0 172.0 105.0 157.0Q101.0 142.0 94.75 125.25Q88.5 108.5 81.5 96.5Q77.0 86.5 73.0 79.25Q69.0 72.0 68.0 70.0Q68.0 69.0 91.0 68.5Q114.0 68.0 146.5 68.0Q187.0 68.0 205.25 69.5Q223.5 71.0 225.5 74.5Q227.5 78.0 218.5 85.0Q208.0 94.0 201.0 114.75Q194.0 135.5 194.0 158.5V188.0H242.0Q262.5 188.0 277.75 189.0Q293.0 190.0 295.0 192.5Q297.0 194.5 303.5 194.5Q309.0 194.5 314.5 192.5Q320.0 190.5 317.5 188.0Q316.5 186.0 306.75 182.0Q297.0 178.0 284.0 173.5L253.0 163.0L266.5 157.0Q272.5 154.5 281.0 148.75Q289.5 143.0 297.25 135.75Q305.0 128.5 310.25 122.5Q315.5 116.5 315.5 113.5Q315.5 107.5 325.0 110.5Q329.0 111.5 330.5 111.5Q335.5 111.5 337.0 104.0Q338.0 100.0 340.75 97.0Q343.5 94.0 346.0 94.0Q349.0 94.0 352.25 91.0Q355.5 88.0 357.5 84.5Q360.0 81.0 363.25 79.25Q366.5 77.5 368.5 78.5Q375.5 80.5 378.5 76.0Q381.5 71.5 376.0 68.0Q371.0 64.5 385.0 58.0Q391.5 55.5 395.75 52.25Q400.0 49.0 400.0 47.0Q400.0 42.5 406.0 42.5Q411.5 42.5 421.25 32.5Q431.0 22.5 435.5 12.5Z" fill="black" /></svg>