<svg xmlns="http://www.w3.org/2000/svg" width="482.0" height="387.5" viewBox="0 0 482.0 387.5"><path d="M137.0 275.0Q131.0 271.5 120.5 263.75Q110.0 256.0 102.0 248.5L81.5 230.0L64.5 257.0Q58.0 268.0 51.0 279.5Q44.0 291.0 44.0 291.5Q44.0 291.5 44.0 291.5Q44.0 291.5 44.5 291.5Q46.0 291.5 56.25 289.5Q66.5 287.5 80.75 285.25Q95.0 283.0 108.5 283.5Q128.0 284.0 140.5 286.25Q153.0 288.5 155.5 288.5Q156.0 288.5 156.0 288.5Q156.0 288.5 156.0 288.5Q156.0 287.5 150.0 283.0Q144.0 278.5 137.0 275.0ZM201.5 191.0Q198.0 191.0 195.5 191.25Q193.0 191.5 189.0 191.5Q185.5 191.5 181.5 190.75Q177.5 190.0 173.5 190.0Q174.0 190.5 177.0 192.75Q180.0 195.0 182.5 198.0Q186.5 202.5 188.5 206.5Q190.5 210.5 190.5 210.5Q190.5 210.5 191.5 206.5Q192.5 202.5 195.5 199.0Q198.0 196.0 199.5 193.75Q201.0 191.5 201.5 191.0ZM222.5 209.0Q212.5 199.0 207.0 199.0Q201.5 199.0 199.0 212.5Q196.5 226.0 195.0 257.5Q194.0 272.0 193.5 282.0Q193.0 292.0 193.0 292.0Q193.0 292.0 196.0 292.75Q199.0 293.5 213.0 299.0Q219.5 301.0 225.75 303.0Q232.0 305.0 232.0 305.0Q232.0 305.0 232.5 292.25Q233.0 279.5 233.0 262.0Q233.0 244.0 232.25 234.0Q231.5 224.0 229.25 218.75Q227.0 213.5 222.5 209.0ZM238.5 214.0 251.5 199.0 222.5 197.0ZM277.5 205.5 295.0 225.5 308.5 206.5ZM368.0 205.0Q370.5 199.5 376.25 194.0Q382.0 188.5 386.75 184.75Q391.5 181.0 391.5 181.0Q391.5 181.0 385.0 181.25Q378.5 181.5 370.5 182.0Q362.5 182.5 357.5 182.5Q353.5 182.5 344.25 182.25Q335.0 182.0 327.25 181.75Q319.5 181.5 319.5 181.5Q319.5 181.5 325.25 184.75Q331.0 188.0 338.0 192.5Q345.0 197.0 349.5 201.5Q354.5 205.5 357.25 208.25Q360.0 211.0 362.0 211.0Q365.5 211.0 368.0 205.0ZM159.5 42.0 168.5 30.5 143.0 29.5Q137.5 29.0 130.0 29.0Q122.5 29.0 117.25 28.75Q112.0 28.5 112.0 28.5L146.5 75.0Q146.5 75.0 149.25 67.25Q152.0 59.5 155.25 51.25Q158.5 43.0 159.5 42.0ZM247.5 136.5 225.5 125.0Q214.5 118.5 208.25 109.75Q202.0 101.0 202.0 101.0Q202.0 101.0 200.75 106.75Q199.5 112.5 198.0 119.0Q196.5 125.5 195.5 128.5L190.0 148.0Q195.5 147.0 200.0 145.25Q204.5 143.5 211.5 142.0Q220.0 140.0 229.5 139.25Q239.0 138.5 247.5 136.5ZM228.0 73.0 259.5 71.0 240.0 61.5Q238.5 60.5 234.25 56.75Q230.0 53.0 226.0 49.25Q222.0 45.5 222.0 45.5Q222.0 45.5 222.25 49.25Q222.5 53.0 222.0 55.0Q221.5 57.5 220.5 61.0Q219.5 64.5 218.5 68.0Q218.0 70.0 217.25 73.0Q216.5 76.0 216.5 76.0Q216.5 76.0 220.5 74.75Q224.5 73.5 228.0 73.0ZM376.5 38.5Q381.5 31.5 389.0 25.25Q396.5 19.0 396.5 19.0Q396.5 19.0 390.5 19.25Q384.5 19.5 376.75 19.5Q369.0 19.5 364.5 19.5Q355.5 19.0 345.75 19.0Q336.0 19.0 329.25 19.0Q322.5 19.0 322.5 19.0Q322.5 19.0 328.25 22.0Q334.0 25.0 342.0 29.5Q350.0 34.0 355.5 38.5Q359.5 41.5 364.25 46.0Q369.0 50.5 369.0 50.5Q369.0 50.5 371.75 46.25Q374.5 42.0 376.5 38.5ZM297.0 14.5Q297.0 13.0 316.25 11.75Q335.5 10.5 363.0 10.0Q388.5 10.0 400.75 10.5Q413.0 11.0 417.25 12.25Q421.5 13.5 422.5 16.0Q423.5 18.5 422.75 19.75Q422.0 21.0 416.5 22.0Q399.5 24.5 389.0 37.25Q378.5 50.0 375.0 80.0Q373.0 95.0 372.0 114.0Q371.0 133.0 371.0 143.5L370.5 172.0H394.5Q415.0 172.0 417.0 176.0Q419.0 180.0 400.5 187.0Q388.0 191.5 381.0 201.0Q374.0 210.5 371.25 229.75Q368.5 249.0 368.0 283.0L367.0 342.0L418.0 355.0Q439.5 360.5 454.5 365.25Q469.5 370.0 471.0 373.5Q472.0 377.0 470.25 377.25Q468.5 377.5 462.5 375.5L366.5 351.5Q365.0 353.0 362.0 353.0Q359.5 353.0 356.5 351.5Q353.5 350.0 353.0 347.5L181.5 300.5Q168.0 296.5 151.75 295.0Q135.5 293.5 119.0 293.5Q91.5 293.5 67.25 297.25Q43.0 301.0 31.5 307.0Q23.5 311.5 19.5 311.5Q10.0 311.5 34.5 281.5Q51.5 261.0 60.75 242.25Q70.0 223.5 67.5 217.0Q65.5 212.0 70.5 205.25Q75.5 198.5 81.0 198.5Q85.5 198.5 85.5 209.5Q85.5 214.0 90.5 221.75Q95.5 229.5 102.5 236.0Q110.0 243.0 117.75 249.75Q125.5 256.5 131.0 260.75Q136.5 265.0 136.5 265.0Q136.5 265.0 137.25 242.0Q138.0 219.0 140.0 179.5Q141.5 145.5 141.75 126.75Q142.0 108.0 140.5 97.5Q139.0 87.0 135.5 78.5Q130.5 66.0 122.0 54.75Q113.5 43.5 104.75 36.5Q96.0 29.5 90.0 29.5Q81.5 29.5 78.0 24.5Q74.5 19.5 81.5 17.5Q84.0 17.0 103.0 17.25Q122.0 17.5 146.0 19.0Q174.0 20.0 185.5 21.0Q197.0 22.0 196.5 23.75Q196.0 25.5 188.0 29.5Q177.5 34.5 171.0 42.5Q164.5 50.5 160.5 65.25Q156.5 80.0 154.25 105.75Q152.0 131.5 150.5 172.0L147.0 270.5L161.0 278.0Q168.5 282.0 176.25 285.25Q184.0 288.5 184.0 288.5Q184.0 288.5 185.0 275.0Q186.0 261.5 186.0 246.5Q186.0 230.0 185.0 221.5Q184.0 213.0 181.0 208.5Q178.0 204.0 171.5 199.0Q166.0 194.0 162.75 190.0Q159.5 186.0 160.5 185.0Q162.0 183.0 176.5 183.0Q186.5 183.0 200.25 184.0Q214.0 185.0 228.0 186.5Q242.0 188.0 252.75 190.0Q263.5 192.0 267.5 194.0Q272.0 196.0 279.0 197.25Q286.0 198.5 297.0 198.5Q307.5 198.5 315.25 199.0Q323.0 199.5 323.0 201.5Q323.0 202.5 319.75 206.0Q316.5 209.5 312.5 214.0Q307.0 219.0 304.0 225.75Q301.0 232.5 300.5 247.0Q300.0 276.5 299.75 292.5Q299.5 308.5 298.75 314.25Q298.0 320.0 295.0 320.0Q293.5 320.0 292.5 312.25Q291.5 304.5 291.0 277.0Q291.0 259.0 291.0 249.75Q291.0 240.5 290.0 236.5Q289.0 232.5 286.75 230.0Q284.5 227.5 280.5 223.0Q275.5 217.0 268.25 210.25Q261.0 203.5 261.0 203.5Q261.0 203.5 257.75 206.25Q254.5 209.0 251.0 213.0Q247.5 217.0 246.0 220.0Q245.0 224.0 244.25 237.0Q243.5 250.0 243.5 267.5V308.5L264.0 314.0Q312.5 326.5 333.0 332.75Q353.5 339.0 354.5 338.0L355.5 278.0Q355.5 258.5 355.25 247.0Q355.0 235.5 353.75 229.25Q352.5 223.0 349.5 218.5Q346.5 214.0 341.0 208.0Q335.0 202.0 325.5 195.5Q316.0 189.0 309.0 187.0Q289.0 180.0 293.0 176.25Q297.0 172.5 324.5 173.5Q347.0 174.0 352.5 172.5Q358.0 171.0 359.0 163.0Q360.0 157.5 358.0 155.0Q356.0 152.5 347.75 151.0Q339.5 149.5 321.0 148.0Q310.0 147.0 295.5 146.5Q281.0 146.0 266.5 145.75Q252.0 145.5 240.5 146.5Q215.5 147.5 206.0 150.25Q196.5 153.0 191.0 160.0Q181.5 171.0 178.25 166.5Q175.0 162.0 180.5 146.5Q183.0 139.5 185.75 127.5Q188.5 115.5 190.5 104.5Q192.0 94.5 194.75 87.5Q197.5 80.5 200.0 80.5Q200.5 80.5 201.25 81.75Q202.0 83.0 202.5 82.5Q203.5 81.5 204.5 78.5Q205.5 75.5 206.0 72.5Q208.0 66.5 209.0 56.5Q211.5 38.0 213.5 29.75Q215.5 21.5 217.5 21.5Q220.0 21.5 225.5 32.5Q234.5 50.5 254.0 59.5Q273.5 68.5 311.0 72.5Q342.0 75.0 352.75 77.75Q363.5 80.5 359.0 84.5Q358.5 85.0 343.25 84.25Q328.0 83.5 307.5 81.5Q296.5 80.5 286.75 80.0Q277.0 79.5 268.5 79.5Q247.5 79.5 235.5 82.5Q223.5 85.5 216.5 90.5Q207.5 97.0 216.75 107.25Q226.0 117.5 249.5 126.25Q273.0 135.0 307.5 137.5L358.5 141.5L362.0 103.0Q364.0 85.5 364.25 76.75Q364.5 68.0 362.0 63.0Q359.5 58.0 354.0 52.0Q348.5 46.5 338.5 39.5Q328.5 32.5 319.5 28.0Q310.0 24.0 303.5 20.25Q297.0 16.5 297.0 14.5Z" fill="black" /></svg>