<svg xmlns="http://www.w3.org/2000/svg" width="478.5" height="383.0" viewBox="0 0 478.5 383.0"><path d="M150.5 294.0 113.5 285.5Q98.5 281.5 80.0 275.75Q61.5 270.0 51.5 265.0L26.0 253.0L27.5 289.0Q28.5 304.0 29.75 314.75Q31.0 325.5 31.5 326.5Q35.5 326.5 48.5 320.0Q55.5 316.5 72.5 311.5Q89.5 306.5 107.5 303.0ZM98.0 105.5Q92.0 100.5 90.0 100.5Q86.5 100.5 85.25 109.25Q84.0 118.0 84.0 138.0V176.0L100.5 165.5Q107.5 161.5 123.0 156.0Q138.5 150.5 154.0 147.0L191.5 138.5L147.5 124.5Q129.0 119.0 114.75 113.25Q100.5 107.5 98.0 105.5ZM398.5 287.0 395.0 143.0 322.0 142.5Q290.0 142.0 270.75 142.0Q251.5 142.0 242.0 144.5Q232.5 147.0 229.25 154.5Q226.0 162.0 226.0 177.0Q226.0 192.0 226.0 217.0V287.0ZM252.0 51.0 262.0 40.5 221.0 38.0Q204.0 37.0 192.25 38.0Q180.5 39.0 180.5 41.5Q180.5 43.5 183.25 49.25Q186.0 55.0 190.0 61.5Q194.0 68.0 198.5 78.5Q203.0 89.0 205.5 97.5Q213.5 123.5 218.5 123.5Q220.5 123.5 220.5 117.0Q221.0 110.0 226.25 97.0Q231.5 84.0 238.75 70.75Q246.0 57.5 252.0 51.0ZM443.5 27.0Q412.0 25.5 381.0 25.5Q361.0 25.5 361.25 31.0Q361.5 36.5 373.0 57.0Q376.5 63.0 380.75 73.5Q385.0 84.0 387.5 92.5Q395.5 116.0 399.0 116.0Q402.0 116.0 405.0 101.0Q406.0 92.5 412.25 79.0Q418.5 65.5 425.5 54.5Q432.5 43.5 438.0 35.5Q443.5 27.5 443.5 27.0ZM337.0 11.0Q337.0 10.0 341.0 10.5Q345.0 11.0 351.0 12.5Q357.0 14.0 376.25 15.0Q395.5 16.0 417.0 16.0Q438.5 16.0 453.5 17.0Q468.5 18.0 468.5 19.0Q468.5 20.0 463.5 25.75Q458.5 31.5 451.5 38.5Q440.0 49.5 431.0 65.25Q422.0 81.0 417.5 96.75Q413.0 112.5 414.5 123.5Q415.5 130.5 415.25 135.5Q415.0 140.5 412.5 140.5Q410.5 140.5 409.25 172.75Q408.0 205.0 408.0 257.0Q408.0 312.5 406.75 342.75Q405.5 373.0 403.0 373.0Q401.0 373.0 399.5 362.25Q398.0 351.5 398.0 335.0V297.0H226.0V330.0Q226.0 344.0 224.5 353.5Q223.0 363.0 220.5 363.0Q218.5 363.0 217.0 353.5Q215.5 344.0 215.5 330.0V297.5L189.5 300.5Q157.5 304.0 127.5 310.0Q97.5 316.0 74.25 323.25Q51.0 330.5 37.25 338.25Q23.5 346.0 23.5 353.0Q23.5 358.0 19.5 358.0Q17.5 358.0 17.25 345.5Q17.0 333.0 17.5 316.0Q18.5 298.5 17.5 280.5Q16.5 262.5 14.0 254.0Q12.0 246.0 11.0 239.5Q10.0 233.0 11.0 232.5Q11.0 232.5 11.25 232.5Q11.5 232.5 11.5 232.5Q13.0 232.5 17.75 234.75Q22.5 237.0 28.0 241.0Q39.0 249.0 59.5 257.0Q80.0 265.0 104.75 271.75Q129.5 278.5 153.0 282.75Q176.5 287.0 193.5 287.0H215.5V220.0Q215.5 192.0 214.75 171.25Q214.0 150.5 213.0 149.5Q211.5 148.5 200.75 149.75Q190.0 151.0 175.0 153.5Q160.0 156.0 145.25 159.25Q130.5 162.5 121.5 165.5Q115.0 167.5 106.25 173.75Q97.5 180.0 91.0 186.0Q85.0 192.0 80.0 196.5Q75.0 201.0 74.0 201.0Q73.0 201.0 72.75 188.75Q72.5 176.5 73.0 159.5Q74.0 142.0 73.0 123.5Q72.0 105.0 70.0 96.0Q64.5 74.0 72.5 74.0Q77.0 74.0 86.0 84.5Q92.0 90.5 105.5 97.5Q119.0 104.5 137.25 111.0Q155.5 117.5 175.0 122.0Q195.0 127.0 200.5 127.0Q204.5 127.0 204.25 125.0Q204.0 123.0 203.0 118.5Q202.0 114.0 195.25 99.0Q188.5 84.0 180.5 67.5Q172.0 51.0 166.5 38.75Q161.0 26.5 161.5 26.5Q162.0 26.0 180.5 26.5Q199.0 27.0 224.5 28.0L286.5 30.0L269.0 49.0Q258.5 59.0 250.0 72.5Q241.5 86.0 236.25 98.75Q231.0 111.5 231.0 120.5V133.0L307.5 131.5Q329.0 131.0 346.75 130.25Q364.5 129.5 375.5 129.0Q386.5 128.5 387.0 128.0Q388.5 126.5 385.75 117.0Q383.0 107.5 378.0 94.25Q373.0 81.0 366.75 67.25Q360.5 53.5 354.5 43.0Q347.0 30.5 342.0 21.25Q337.0 12.0 337.0 11.0Z" fill="black" /></svg>