<svg xmlns="http://www.w3.org/2000/svg" width="636.5" height="458.5" viewBox="0 0 636.5 458.5"><path d="M41.5 183.0 52.0 159.5 61.5 135.5H44.5Q35.0 135.5 31.25 137.0Q27.5 138.5 28.5 144.25Q29.5 150.0 34.0 164.0ZM103.0 181.0Q99.0 162.0 94.0 146.0Q89.0 130.0 86.0 125.5Q83.0 120.0 81.5 120.0Q78.5 120.0 73.5 133.0Q66.0 151.0 61.5 165.75Q57.0 180.5 54.75 195.75Q52.5 211.0 51.5 229.25Q50.5 247.5 50.5 272.5V342.0L76.0 354.0Q86.5 359.0 96.0 362.25Q105.5 365.5 107.5 365.5Q111.5 365.5 113.5 351.75Q115.5 338.0 115.75 316.25Q116.0 294.5 114.75 269.5Q113.5 244.5 110.5 221.0Q107.5 197.5 103.0 181.0ZM70.0 56.0Q56.5 50.0 46.5 45.5Q36.5 41.0 36.0 41.0Q34.5 41.0 33.5 53.0Q32.5 65.0 32.5 82.5V124.0L52.5 116.5Q60.0 114.0 79.5 108.25Q99.0 102.5 118.5 97.5L166.0 84.5L133.5 77.5Q119.5 74.5 100.75 68.25Q82.0 62.0 70.0 56.0ZM132.0 139.0Q133.0 136.5 128.75 134.75Q124.5 133.0 118.5 133.0Q110.0 133.0 106.75 133.75Q103.5 134.5 104.75 140.25Q106.0 146.0 110.5 161.0L117.5 184.5L125.0 164.5Q127.5 156.0 129.75 148.5Q132.0 141.0 132.0 139.0ZM280.0 87.0Q265.0 84.0 252.0 84.0Q239.0 84.0 224.5 87.0Q170.0 97.5 141.75 104.0Q113.5 110.5 105.75 113.75Q98.0 117.0 104.5 119.5Q112.0 122.0 123.0 122.0Q126.0 122.0 128.75 121.75Q131.5 121.5 134.0 121.0Q141.0 119.5 144.0 119.5Q151.0 119.5 149.25 127.75Q147.5 136.0 139.0 159.5Q135.0 172.5 132.5 183.25Q130.0 194.0 130.5 196.5Q131.5 198.0 142.25 199.25Q153.0 200.5 170.25 201.0Q187.5 201.5 207.0 201.5Q227.5 201.5 248.75 201.0Q270.0 200.5 287.75 199.5Q305.5 198.5 316.25 197.0Q327.0 195.5 327.0 193.5Q327.0 190.0 322.75 174.0Q318.5 158.0 312.5 139.0Q306.0 116.0 301.75 105.5Q297.5 95.0 293.0 91.5Q288.5 88.0 280.0 87.0ZM331.0 269.0 332.5 240.0 334.5 213.0H126.5V271.5L229.5 269.5ZM368.5 54.5Q368.5 52.5 357.5 51.25Q346.5 50.0 331.0 49.5Q314.5 49.5 303.0 50.0Q291.5 50.5 291.5 51.5Q291.5 52.5 294.75 59.25Q298.0 66.0 302.5 76.0Q307.5 85.0 312.75 99.5Q318.0 114.0 322.0 126.5L330.0 155.5L336.5 128.5Q339.5 117.0 345.0 102.75Q350.5 88.5 356.0 79.5Q368.5 60.5 368.5 54.5ZM546.0 121.0Q541.5 107.0 536.75 96.75Q532.0 86.5 530.0 86.0Q528.5 86.0 516.25 86.25Q504.0 86.5 484.75 87.0Q465.5 87.5 443.0 88.5L360.0 91.5L353.0 112.0Q349.5 121.0 347.75 137.0Q346.0 153.0 346.0 167.5L345.0 200.5L559.5 197.0L557.5 177.0Q557.5 168.5 554.0 152.0Q550.5 135.5 546.0 121.0ZM589.5 48.5 605.0 24.5H521.5L529.0 39.5Q531.5 47.0 537.25 62.0Q543.0 77.0 548.0 91.5L561.5 126.5L568.5 100.5Q571.5 89.5 578.0 74.5Q584.5 59.5 589.5 48.5ZM177.5 393.0 137.0 385.0Q120.5 381.5 99.25 375.0Q78.0 368.5 64.5 363.0L32.5 349.0V386.5Q32.5 406.5 34.25 415.25Q36.0 424.0 44.0 424.0Q48.5 424.0 55.75 421.5Q63.0 419.0 74.0 415.5Q85.0 412.0 103.5 407.25Q122.0 402.5 137.5 399.5ZM333.0 385.0V283.5H126.5V326.5Q126.5 342.5 127.0 352.25Q127.5 362.0 132.0 367.25Q136.5 372.5 148.5 375.0Q160.5 377.5 183.5 378.75Q206.5 380.0 243.5 381.5ZM562.5 271.5V213.0H345.0V271.5ZM562.5 383.0V283.5H345.0V383.0ZM501.0 10.5Q501.5 10.0 514.25 10.0Q527.0 10.0 545.5 10.5Q564.0 11.0 582.25 11.75Q600.5 12.5 613.25 13.5Q626.0 14.5 626.5 15.5Q626.5 16.0 621.25 25.25Q616.0 34.5 608.0 47.0Q599.0 59.5 591.25 75.25Q583.5 91.0 580.5 99.5Q579.0 106.0 577.5 130.5Q576.0 155.0 575.0 191.25Q574.0 227.5 574.0 269.5Q574.0 341.0 572.75 379.5Q571.5 418.0 568.5 418.0Q566.5 418.0 564.5 414.75Q562.5 411.5 562.5 406.5Q562.5 402.5 560.0 400.0Q557.5 397.5 547.5 396.25Q537.5 395.0 515.25 394.75Q493.0 394.5 453.5 394.5H345.0V422.0Q345.0 433.0 343.25 440.75Q341.5 448.5 338.5 448.5Q336.5 448.5 334.75 440.75Q333.0 433.0 333.0 422.0V394.5H278.5Q248.0 394.5 209.5 399.75Q171.0 405.0 131.5 414.0Q92.0 423.0 59.0 434.0Q43.5 439.0 31.25 442.75Q19.0 446.5 18.0 446.5Q17.5 445.5 18.5 428.25Q19.5 411.0 20.0 387.0Q21.0 352.0 23.25 341.5Q25.5 331.0 30.5 332.5Q36.0 334.0 37.5 324.25Q39.0 314.5 39.0 281.5Q38.5 237.0 33.75 207.75Q29.0 178.5 17.5 152.0Q12.0 139.0 11.0 133.0Q10.0 127.0 13.5 123.0Q17.0 120.0 19.0 104.75Q21.0 89.5 21.0 66.5Q21.0 46.0 22.25 32.0Q23.5 18.0 25.5 19.0L72.5 42.5Q91.5 52.5 112.25 59.75Q133.0 67.0 146.5 68.0Q162.0 69.5 182.5 70.75Q203.0 72.0 223.25 72.75Q243.5 73.5 259.0 73.5Q271.0 73.5 278.5 73.0Q286.0 72.5 286.0 71.5Q286.0 70.0 283.75 64.25Q281.5 58.5 278.5 52.0Q270.0 37.0 271.5 34.5Q272.5 33.5 276.0 33.5Q280.5 33.5 287.5 34.5Q294.5 35.5 302.5 37.0Q308.5 38.0 317.0 38.5Q325.5 39.0 334.0 39.0Q351.5 39.0 364.0 37.5Q391.0 35.0 395.75 39.0Q400.5 43.0 386.0 56.0Q381.0 61.0 377.75 65.5Q374.5 70.0 374.5 72.0Q374.5 73.5 385.0 74.75Q395.5 76.0 412.75 76.5Q430.0 77.0 451.0 77.0Q494.0 77.0 510.5 75.5Q527.0 74.0 527.0 69.5Q527.0 67.0 523.0 57.5Q519.0 48.0 513.5 37.5Q507.0 27.5 503.75 19.75Q500.5 12.0 501.0 10.5Z" fill="black" /></svg>