<svg xmlns="http://www.w3.org/2000/svg" width="463.0" height="381.5" viewBox="0 0 463.0 381.5"><path d="M64.5 224.5Q59.0 222.0 54.0 219.75Q49.0 217.5 48.0 217.0Q46.5 217.0 45.75 222.0Q45.0 227.0 45.0 235.0Q45.0 243.0 45.25 249.0Q45.5 255.0 46.0 255.0Q46.5 255.0 53.75 252.0Q61.0 249.0 70.5 245.5Q84.0 240.0 87.0 237.5Q90.0 235.0 86.0 233.5Q82.5 232.5 76.25 229.75Q70.0 227.0 64.5 224.5ZM95.5 277.0 104.0 266.5H68.0L76.0 277.0Q84.5 288.0 86.0 288.0Q88.0 288.0 95.5 277.0ZM329.0 255.5Q337.5 243.5 332.0 244.0Q330.0 244.5 322.75 244.75Q315.5 245.0 307.0 246.0Q298.5 246.5 292.5 247.5Q286.5 248.5 286.5 249.5Q286.5 251.0 289.75 257.25Q293.0 263.5 297.5 271.25Q302.0 279.0 305.75 284.5Q309.5 290.0 310.5 290.0Q311.5 290.0 313.25 286.75Q315.0 283.5 316.5 279.0Q318.5 274.5 322.25 267.5Q326.0 260.5 329.0 255.5ZM54.5 128.5 60.5 118.5H29.0L36.0 128.5Q43.0 137.5 45.5 137.5Q48.5 137.5 54.5 128.5ZM101.5 76.0Q99.5 72.0 97.0 72.0Q91.5 72.0 91.5 91.0Q91.5 113.5 98.0 113.5Q100.0 113.5 102.0 110.5Q103.0 108.5 108.0 105.5Q113.0 102.5 118.5 100.5L132.5 94.5L118.0 87.0Q112.5 84.5 107.5 81.25Q102.5 78.0 101.5 76.0ZM233.5 96.0Q232.5 94.5 223.75 94.0Q215.0 93.5 203.5 93.5Q187.5 93.5 170.25 94.5Q153.0 95.5 146.0 97.5Q139.5 99.5 128.75 104.5Q118.0 109.5 108.5 115.0Q98.5 120.5 92.0 122.75Q85.5 125.0 84.5 123.0Q83.0 119.0 79.5 119.0Q73.0 119.0 64.0 129.0Q58.5 135.5 56.5 142.75Q54.5 150.0 53.0 169.5Q52.5 190.0 55.25 202.0Q58.0 214.0 68.25 219.5Q78.5 225.0 100.5 226.25Q122.5 227.5 160.0 227.0L226.0 225.5L198.5 205.5Q184.5 194.0 173.0 188.25Q161.5 182.5 150.0 180.5Q127.0 175.0 122.5 172.25Q118.0 169.5 128.5 165.5Q133.5 163.5 145.75 156.25Q158.0 149.0 173.25 139.0Q188.5 129.0 202.5 119.5Q216.5 110.0 225.5 103.25Q234.5 96.5 233.5 96.0ZM216.0 124.5Q216.0 122.0 213.5 123.0Q212.0 123.0 204.5 127.5Q197.0 132.0 186.5 138.75Q176.0 145.5 166.0 152.25Q156.0 159.0 149.25 163.75Q142.5 168.5 142.5 169.5Q142.5 170.0 147.25 171.75Q152.0 173.5 159.0 176.0Q166.0 177.5 173.5 179.75Q181.0 182.0 184.5 183.0Q190.0 184.5 191.5 183.25Q193.0 182.0 193.0 174.5Q193.0 169.5 196.5 161.0Q200.0 152.5 204.5 145.0Q209.5 137.0 212.75 131.0Q216.0 125.0 216.0 124.5ZM258.0 128.0 271.0 103.0H259.0Q249.5 103.0 248.5 105.5Q247.5 108.0 253.0 118.5ZM307.0 109.5Q304.5 107.0 300.0 107.0Q295.0 107.0 292.5 110.5Q292.0 111.5 292.75 114.75Q293.5 118.0 295.5 120.5Q299.5 125.5 300.75 125.5Q302.0 125.5 305.0 120.0Q309.0 112.5 307.0 109.5ZM313.5 40.0Q313.5 32.0 310.0 32.0Q305.0 32.0 294.5 45.0Q283.5 59.0 283.25 63.5Q283.0 68.0 293.5 68.0Q297.5 68.0 304.5 69.0Q311.5 70.0 316.5 71.5Q325.0 74.0 327.0 74.0Q329.5 74.0 328.0 70.75Q326.5 67.5 321.5 59.5Q318.0 54.0 315.75 48.25Q313.5 42.5 313.5 40.0ZM327.0 82.0Q315.5 79.0 301.75 77.5Q288.0 76.0 277.5 76.0Q265.0 76.0 261.5 78.5Q259.0 81.0 259.0 88.5Q259.0 92.5 261.75 94.0Q264.5 95.5 272.0 95.5Q277.5 95.5 282.25 96.5Q287.0 97.5 288.0 99.0Q289.0 100.0 297.5 100.5Q306.0 101.0 317.5 101.0Q327.5 101.0 337.75 100.5Q348.0 100.0 356.0 99.5Q365.0 98.5 355.0 92.75Q345.0 87.0 327.0 82.0ZM348.5 111.5Q348.5 107.0 340.5 107.0Q334.0 107.0 333.0 111.25Q332.0 115.5 337.0 122.5Q339.5 126.0 340.75 126.0Q342.0 126.0 344.5 122.5Q348.5 116.5 348.5 111.5ZM405.5 127.5Q391.0 117.5 380.0 110.25Q369.0 103.0 368.0 103.0Q367.5 103.0 364.25 106.75Q361.0 110.5 357.5 116.0Q353.5 121.5 351.5 127.25Q349.5 133.0 349.0 143.5Q348.5 154.0 348.5 174.5Q348.5 195.0 349.5 207.5Q350.5 220.0 352.5 220.0Q354.0 220.0 363.5 214.0Q373.0 208.0 386.0 198.75Q399.0 189.5 411.75 180.0Q424.5 170.5 433.0 163.75Q441.5 157.0 441.5 155.5Q442.0 154.0 431.25 145.75Q420.5 137.5 405.5 127.5ZM293.5 34.0Q300.5 24.0 306.75 17.0Q313.0 10.0 314.0 10.0Q315.0 10.0 316.5 15.25Q318.0 20.5 318.5 27.5Q319.5 38.0 322.75 46.0Q326.0 54.0 336.0 63.75Q346.0 73.5 367.0 89.5Q388.0 105.5 424.5 132.5Q435.5 140.5 443.75 147.25Q452.0 154.0 452.5 155.5Q453.0 157.0 439.0 168.5Q425.0 180.0 404.5 194.5Q383.5 209.5 372.0 218.75Q360.5 228.0 353.5 236.25Q346.5 244.5 339.0 256.0Q332.0 267.0 325.5 278.75Q319.0 290.5 317.5 296.0Q313.0 309.0 309.5 309.0Q306.5 309.0 304.0 300.5Q302.5 296.5 297.5 286.5Q292.5 276.5 286.0 266.0Q276.0 248.5 272.75 241.0Q269.5 233.5 272.5 233.5Q274.5 233.5 278.0 235.5Q281.5 237.5 288.0 238.5Q294.5 239.5 301.5 239.5Q310.0 239.5 318.0 238.0Q326.0 236.5 331.0 234.5Q336.0 232.5 337.75 229.75Q339.5 227.0 340.0 218.75Q340.5 210.5 340.5 192.5Q340.5 163.5 335.75 142.5Q331.0 121.5 323.0 114.5Q321.0 113.0 319.5 113.0Q313.0 113.0 309.25 131.5Q305.5 150.0 305.5 183.5Q305.5 225.0 302.0 225.0Q298.5 225.0 297.0 181.0Q296.5 158.5 294.5 146.0Q292.5 133.5 288.5 125.5Q285.5 119.5 282.5 115.25Q279.5 111.0 278.0 111.0Q271.0 111.0 268.25 127.0Q265.5 143.0 266.0 180.0Q266.5 201.0 265.5 216.25Q264.5 231.5 263.5 231.5Q262.0 231.5 260.5 218.5Q259.0 205.5 258.0 187.5Q257.5 166.5 254.5 149.25Q251.5 132.0 247.75 121.5Q244.0 111.0 239.5 111.0Q238.0 111.0 232.0 118.75Q226.0 126.5 218.5 137.5Q206.0 156.0 202.0 169.5Q198.0 183.0 204.5 187.0Q208.5 188.5 208.5 196.0Q208.5 200.0 215.75 207.5Q223.0 215.0 231.75 221.25Q240.5 227.5 245.0 227.5Q251.0 227.5 251.0 231.5Q251.0 233.5 255.75 240.5Q260.5 247.5 267.0 255.5Q273.5 263.5 277.5 270.0Q281.5 276.5 281.0 277.5Q279.5 277.5 272.75 271.75Q266.0 266.0 258.0 257.0L237.0 234.5L175.0 236.0Q139.5 237.0 121.75 239.0Q104.0 241.0 91.0 245.0Q81.5 248.0 75.0 251.0Q68.5 254.0 68.5 255.5Q68.5 256.5 78.0 257.75Q87.5 259.0 100.5 259.0Q120.0 259.0 125.0 260.0Q130.0 261.0 125.0 264.0Q114.0 271.0 108.0 275.75Q102.0 280.5 99.25 286.25Q96.5 292.0 96.0 302.0Q95.5 312.0 95.5 329.0Q95.5 348.5 94.5 360.0Q93.5 371.5 91.5 371.5Q90.0 371.5 89.0 362.5Q88.0 353.5 88.0 339.5Q88.0 324.5 87.25 316.75Q86.5 309.0 84.25 303.5Q82.0 298.0 76.5 291.0Q55.0 261.5 42.0 265.5Q37.5 266.5 36.75 261.25Q36.0 256.0 36.5 234.0Q37.5 214.5 38.75 207.5Q40.0 200.5 43.5 200.5Q46.5 200.5 47.0 196.5Q47.5 192.5 46.5 181.5Q45.0 165.5 43.0 157.25Q41.0 149.0 37.0 143.0Q33.0 137.0 25.0 128.0Q18.5 121.0 14.25 116.0Q10.0 111.0 10.5 110.5Q14.0 110.5 25.0 110.25Q36.0 110.0 48.75 109.75Q61.5 109.5 71.25 108.75Q81.0 108.0 82.5 106.5Q83.5 105.0 84.0 97.25Q84.5 89.5 84.5 80.0Q84.0 68.0 85.75 60.75Q87.5 53.5 89.5 53.5Q91.5 53.5 93.0 58.5Q96.0 64.5 111.5 75.0Q119.0 80.0 125.25 82.25Q131.5 84.5 143.25 85.25Q155.0 86.0 179.5 87.0Q201.0 87.5 219.0 87.25Q237.0 87.0 240.5 86.0Q249.5 84.0 262.5 71.0Q275.5 58.0 293.5 34.0Z" fill="black" /></svg>