<svg xmlns="http://www.w3.org/2000/svg" width="493.0" height="460.5" viewBox="0 0 493.0 460.5"><path d="M149.5 305.5Q143.5 301.0 128.5 290.25Q113.5 279.5 99.0 268.5L66.0 244.0L61.0 260.5Q59.0 267.0 55.75 275.0Q52.5 283.0 50.0 286.0Q43.5 291.5 46.5 293.25Q49.5 295.0 70.5 297.5Q82.0 299.5 99.5 302.75Q117.0 306.0 131.0 310.0Q144.0 313.0 153.75 315.5Q163.5 318.0 164.0 318.0Q165.0 318.0 160.5 314.25Q156.0 310.5 149.5 305.5ZM122.0 154.5Q136.0 144.5 137.5 141.75Q139.0 139.0 132.0 140.0Q127.0 140.0 116.5 142.0Q106.0 144.0 96.0 147.0Q86.5 149.0 75.25 151.25Q64.0 153.5 58.0 153.5Q51.0 153.5 46.5 154.75Q42.0 156.0 42.5 157.5Q49.5 172.0 56.0 185.5Q62.5 199.0 63.0 200.5Q65.5 202.5 70.75 197.5Q76.0 192.5 83.5 186.5Q90.5 178.5 102.25 169.5Q114.0 160.5 122.0 154.5ZM153.5 252.0Q151.0 245.0 145.0 245.0Q141.5 245.0 140.5 248.0Q137.0 251.5 147.5 255.5Q151.5 256.0 153.75 255.25Q156.0 254.5 153.5 252.0ZM164.0 194.5Q161.0 188.0 154.5 188.0Q151.5 188.0 149.5 190.5Q145.0 194.0 146.75 198.0Q148.5 202.0 157.0 202.0Q160.0 202.0 162.5 199.75Q165.0 197.5 164.0 194.5ZM248.5 243.0Q254.0 241.5 253.75 239.75Q253.5 238.0 247.5 232.5Q241.0 228.5 239.0 228.5Q236.5 228.5 232.0 231.5Q228.5 236.5 228.75 238.5Q229.0 240.5 234.0 242.0Q237.0 242.5 241.0 243.0Q245.0 243.5 248.5 243.0ZM319.5 132.0Q309.5 126.5 295.5 121.25Q281.5 116.0 272.0 112.0L247.5 103.0L212.5 117.5Q186.0 128.5 165.0 139.5Q144.0 150.5 126.25 163.25Q108.5 176.0 91.0 192.5Q47.0 233.5 66.0 233.5Q68.0 233.5 77.75 240.75Q87.5 248.0 99.0 257.5Q115.5 270.0 138.0 285.5Q160.5 301.0 182.5 315.25Q204.5 329.5 221.25 339.25Q238.0 349.0 243.5 350.0Q248.0 351.5 251.5 351.5Q259.5 351.5 268.0 343.0Q282.0 330.5 275.5 330.5Q270.5 330.5 260.0 335.5Q247.0 343.5 240.5 343.5Q236.0 343.5 236.0 338.5Q236.0 336.0 237.75 334.75Q239.5 333.5 240.0 333.5Q243.0 333.5 253.5 329.0Q264.0 324.5 277.75 318.0Q291.5 311.5 305.0 304.5Q318.5 297.5 327.25 292.0Q336.0 286.5 336.0 285.0Q336.0 281.0 323.0 275.5Q310.0 270.0 290.25 264.5Q270.5 259.0 250.5 255.5Q234.5 252.0 222.0 249.25Q209.5 246.5 208.5 246.0Q208.0 246.0 210.25 243.0Q212.5 240.0 215.5 237.0Q218.5 233.5 220.5 230.5Q222.5 227.5 221.5 227.5Q217.5 223.5 206.0 219.75Q194.5 216.0 180.5 213.5Q166.5 211.0 155.0 211.0Q144.0 211.0 135.5 209.75Q127.0 208.5 127.0 208.0Q127.0 206.0 131.0 199.0Q135.0 192.0 140.5 183.75Q146.0 175.5 150.75 169.5Q155.5 163.5 157.0 163.5Q157.0 163.5 159.25 167.25Q161.5 171.0 163.0 177.0Q165.5 182.5 173.25 189.0Q181.0 195.5 191.5 201.5Q202.0 207.5 211.5 211.25Q221.0 215.0 227.0 215.0Q231.5 215.0 232.0 213.0Q237.0 205.5 241.5 205.5Q245.5 205.5 245.5 212.0Q245.5 217.5 254.0 225.75Q262.5 234.0 276.5 242.75Q290.5 251.5 307.0 259.5Q320.0 264.5 330.25 270.25Q340.5 276.0 341.0 277.0Q342.0 280.0 359.5 270.25Q377.0 260.5 400.0 246.0Q423.0 231.5 438.25 219.5Q453.5 207.5 452.5 206.0Q449.0 203.0 436.5 195.5Q424.0 188.0 406.75 178.25Q389.5 168.5 371.75 158.75Q354.0 149.0 339.75 141.75Q325.5 134.5 319.5 132.0ZM293.5 193.5Q293.5 192.0 289.5 186.5Q285.5 181.0 279.5 175.0L266.0 158.5L255.5 174.0Q250.5 180.5 249.5 183.75Q248.5 187.0 251.5 188.5Q258.0 190.5 267.75 192.0Q277.5 193.5 285.5 194.0Q293.5 194.5 293.5 193.5ZM234.0 43.0Q232.0 35.5 227.5 35.5Q223.0 35.5 216.5 42.0Q214.5 46.0 208.5 50.75Q202.5 55.5 197.0 58.5L181.5 67.0L194.0 73.0Q203.5 76.5 219.25 82.25Q235.0 88.0 251.25 93.75Q267.5 99.5 279.5 103.25Q291.5 107.0 293.5 107.0Q293.5 106.0 285.0 98.0Q276.5 90.0 265.0 79.5Q253.5 69.5 244.25 58.75Q235.0 48.0 234.0 43.0ZM235.0 357.0Q233.0 355.5 229.75 354.75Q226.5 354.0 225.0 354.0Q222.0 354.0 213.25 357.0Q204.5 360.0 193.0 364.5Q181.5 369.0 170.75 373.5Q160.0 378.0 152.75 381.5Q145.5 385.0 145.5 386.0Q145.5 388.0 149.5 390.0Q153.5 392.0 160.0 393.0Q165.5 394.0 173.25 399.25Q181.0 404.5 187.5 410.5Q199.5 422.0 202.0 422.0Q204.5 422.0 206.0 417.0Q207.0 413.0 213.0 403.25Q219.0 393.5 226.0 384.0Q236.0 370.0 237.75 364.75Q239.5 359.5 235.0 357.0ZM133.0 237.0Q138.0 230.0 141.5 225.25Q145.0 220.5 145.5 220.5Q148.0 220.5 150.5 224.25Q153.0 228.0 157.0 233.5Q160.0 240.0 170.75 247.75Q181.5 255.5 196.0 263.5Q213.5 271.0 221.75 277.75Q230.0 284.5 226.0 284.5Q222.5 284.5 209.5 278.0Q201.5 275.0 186.5 271.25Q171.5 267.5 157.0 265.5Q143.0 264.0 133.0 261.5Q123.0 259.0 123.0 257.5Q123.0 256.5 125.75 250.5Q128.5 244.5 133.0 237.0ZM217.5 25.5Q228.0 10.0 231.5 10.0Q235.0 10.0 238.0 25.5Q239.0 32.0 245.5 41.5Q252.0 51.0 260.0 58.5L277.5 79.5L319.5 58.5Q333.5 52.5 343.5 48.75Q353.5 45.0 357.0 45.0Q359.5 45.0 359.5 46.5Q359.5 48.5 349.0 54.5Q338.5 60.5 324.5 67.0Q310.0 73.5 299.25 79.25Q288.5 85.0 288.5 86.5Q288.5 88.5 301.75 98.25Q315.0 108.0 335.75 122.0Q356.5 136.0 379.75 150.75Q403.0 165.5 423.5 177.0Q455.0 195.0 469.0 205.5Q483.0 216.0 477.0 216.0Q476.0 216.0 474.5 215.75Q473.0 215.5 471.0 215.0Q468.5 215.0 456.25 221.75Q444.0 228.5 425.75 240.25Q407.5 252.0 386.5 266.0Q365.5 280.0 344.75 294.75Q324.0 309.5 306.5 322.25Q289.0 335.0 278.25 344.0Q267.5 353.0 267.0 356.0Q266.5 358.5 280.0 365.5Q293.5 372.5 313.5 382.0Q332.0 390.0 345.5 397.25Q359.0 404.5 359.5 405.5Q359.5 409.0 356.5 409.0Q353.0 409.0 341.5 404.0Q330.0 399.0 305.0 388.0Q266.0 370.0 256.5 370.0Q253.0 370.0 251.5 371.5Q246.5 374.5 239.75 382.5Q233.0 390.5 226.75 400.5Q220.5 410.5 216.5 419.75Q212.5 429.0 212.5 434.5Q212.5 450.5 206.5 450.5Q203.5 450.5 202.0 444.5Q199.5 438.0 191.5 429.0Q183.5 420.0 172.25 411.75Q161.0 403.5 149.5 398.5Q135.5 391.5 129.75 383.5Q124.0 375.5 132.0 375.5Q135.5 375.5 146.75 371.75Q158.0 368.0 171.0 362.75Q184.0 357.5 193.5 353.0Q203.0 348.5 203.0 347.0Q203.0 345.0 189.25 339.5Q175.5 334.0 154.5 327.0Q133.5 320.0 111.5 314.0Q93.0 310.0 78.5 307.75Q64.0 305.5 52.5 305.5Q36.5 305.5 26.0 310.0Q18.5 313.0 15.0 313.0Q10.0 313.0 13.5 306.75Q17.0 300.5 29.0 289.5Q39.5 279.5 46.75 267.75Q54.0 256.0 55.75 247.5Q57.5 239.0 52.0 239.0Q47.5 239.0 50.0 218.0Q52.5 200.5 45.25 182.5Q38.0 164.5 25.0 154.5Q20.0 150.5 16.25 147.5Q12.5 144.5 12.5 143.0Q12.5 142.0 21.25 142.0Q30.0 142.0 42.5 143.0Q60.0 144.5 80.5 140.75Q101.0 137.0 136.0 128.5Q171.0 119.0 190.75 113.5Q210.5 108.0 218.75 104.25Q227.0 100.5 227.0 97.0Q227.0 96.0 218.75 91.75Q210.5 87.5 198.0 84.5Q185.5 80.5 176.5 76.25Q167.5 72.0 166.0 69.0Q165.5 67.5 171.5 62.5Q177.5 57.5 185.5 54.5Q195.0 49.0 204.0 41.25Q213.0 33.5 217.5 25.5ZM258.5 149.5Q264.5 135.0 270.5 135.0Q275.0 135.0 275.0 145.0Q275.0 152.5 287.0 166.0Q299.0 179.5 318.0 193.5Q337.0 207.5 357.5 218.0Q372.0 225.0 382.75 231.75Q393.5 238.5 393.5 240.0Q393.5 243.5 391.0 243.5Q388.5 243.5 380.75 239.75Q373.0 236.0 356.5 227.5Q332.5 216.0 309.5 209.25Q286.5 202.5 254.5 197.5Q244.5 196.5 237.75 194.75Q231.0 193.0 231.0 191.5Q231.0 190.5 234.25 186.0Q237.5 181.5 241.0 177.0Q246.0 171.5 250.75 163.5Q255.5 155.5 258.5 149.5Z" fill="black" /></svg>