<svg xmlns="http://www.w3.org/2000/svg" width="654.0" height="458.5" viewBox="0 0 654.0 458.5"><path d="M41.5 345.5Q31.0 341.5 27.5 341.5Q20.5 341.5 20.5 358.0Q20.5 364.5 20.75 369.75Q21.0 375.0 21.5 375.0Q22.5 375.0 30.25 372.0Q38.0 369.0 48.0 365.0Q63.0 359.5 65.75 357.0Q68.5 354.5 62.5 352.5Q58.5 351.0 52.5 348.75Q46.5 346.5 41.5 345.5ZM79.5 280.0 54.0 271.0Q30.5 262.0 27.0 262.0V282.0Q27.0 289.5 28.25 294.75Q29.5 300.0 30.5 300.0Q31.5 299.0 39.0 296.0Q46.5 293.0 56.0 289.0ZM376.5 372.5 355.0 360.5Q346.0 356.0 333.5 347.0Q321.0 338.0 312.5 330.0Q295.5 315.0 290.5 315.0Q289.5 315.0 288.5 316.5Q287.0 322.0 284.75 331.75Q282.5 341.5 280.75 352.0Q279.0 362.5 277.75 369.75Q276.5 377.0 277.0 378.0Q278.0 378.0 292.5 377.25Q307.0 376.5 327.0 375.0ZM78.5 206.0 53.5 196.5Q42.5 193.0 34.75 190.75Q27.0 188.5 27.0 188.5Q26.5 188.5 25.75 193.75Q25.0 199.0 25.0 207.5V225.5ZM67.0 115.0Q57.5 111.0 47.75 107.75Q38.0 104.5 34.5 102.5Q29.0 100.5 27.5 104.25Q26.0 108.0 26.0 124.5Q27.0 134.5 27.75 141.5Q28.5 148.5 29.5 148.5Q31.0 148.5 37.75 145.75Q44.5 143.0 52.5 139.5Q60.5 135.5 69.5 132.0Q78.5 128.5 82.5 127.0Q88.0 125.0 85.0 122.5Q82.0 120.0 67.0 115.0ZM313.0 115.0Q306.5 111.0 301.25 108.25Q296.0 105.5 295.0 105.5Q294.5 105.5 294.0 116.5Q293.5 127.5 293.5 143.5Q293.5 179.5 297.5 179.5Q300.0 178.5 305.75 174.75Q311.5 171.0 317.5 166.0Q324.0 162.0 335.25 155.5Q346.5 149.0 356.5 144.0L381.0 132.5L356.0 129.5Q345.0 127.5 332.75 123.25Q320.5 119.0 313.0 115.0ZM480.5 191.5Q481.5 190.0 475.0 189.25Q468.5 188.5 460.0 188.5Q446.0 188.5 442.25 189.75Q438.5 191.0 442.0 195.0Q444.5 197.0 447.75 203.75Q451.0 210.5 454.5 217.5L461.0 235.0L470.0 215.0Q474.0 207.5 477.0 200.5Q480.0 193.5 480.5 191.5ZM583.0 141.5 586.5 122.5Q589.5 106.5 588.5 103.5Q587.5 100.5 581.5 104.5Q577.5 106.5 577.0 111.0Q576.5 115.5 578.5 125.0ZM624.0 26.5H592.0Q579.5 26.5 568.0 25.5Q556.5 24.5 553.0 24.0Q550.0 23.0 549.5 23.0Q547.0 23.0 549.75 32.25Q552.5 41.5 563.0 69.0Q572.0 95.0 580.0 95.0Q589.0 95.0 609.5 54.5ZM17.0 281.0Q16.5 257.5 18.0 252.25Q19.5 247.0 24.5 249.5Q51.0 260.0 71.75 266.0Q92.5 272.0 112.75 274.25Q133.0 276.5 158.5 276.5Q187.0 276.5 212.75 277.75Q238.5 279.0 254.5 281.0Q270.5 283.0 270.5 285.5Q270.5 286.5 257.5 287.25Q244.5 288.0 222.5 288.5Q200.5 289.0 173.5 289.0Q137.5 289.0 117.25 289.25Q97.0 289.5 86.0 290.75Q75.0 292.0 67.75 294.5Q60.5 297.0 50.5 302.0Q39.5 308.0 31.25 312.25Q23.0 316.5 20.5 316.5Q19.5 316.5 18.75 305.75Q18.0 295.0 17.0 281.0ZM530.5 11.0Q530.5 10.0 535.0 10.0Q537.5 10.0 541.5 10.5Q545.5 11.0 549.5 12.0Q557.0 14.0 573.5 15.25Q590.0 16.5 605.5 16.5Q622.0 16.5 633.0 17.75Q644.0 19.0 644.0 21.0Q644.0 26.5 639.0 26.5Q637.0 26.5 631.25 35.5Q625.5 44.5 619.5 56.5Q613.5 68.5 609.75 78.5Q606.0 88.5 607.5 91.0Q609.0 93.0 608.0 95.75Q607.0 98.5 605.0 100.0Q602.0 102.0 599.5 117.75Q597.0 133.5 595.25 158.75Q593.5 184.0 592.5 215.0Q591.5 246.0 591.5 278.75Q591.5 311.5 593.0 341.5L596.0 423.0L617.5 428.5Q626.5 430.5 632.75 433.75Q639.0 437.0 639.0 439.5Q639.0 441.5 636.0 442.0Q633.0 442.5 628.5 441.5Q603.0 435.0 599.0 435.0Q596.0 435.0 595.5 436.5Q595.0 438.0 595.0 440.5Q595.0 448.5 589.5 448.5Q585.0 448.5 585.0 439.5Q585.0 435.5 578.5 431.75Q572.0 428.0 553.75 422.25Q535.5 416.5 500.0 407.0L413.5 383.5L346.0 386.0Q318.0 387.5 295.0 388.5Q272.0 389.5 268.0 390.5Q261.5 392.0 260.5 388.25Q259.5 384.5 264.5 373.5Q265.5 370.0 263.5 368.25Q261.5 366.5 252.25 365.75Q243.0 365.0 222.25 365.25Q201.5 365.5 164.5 366.0Q126.5 366.5 105.0 367.0Q83.5 367.5 72.25 368.75Q61.0 370.0 54.0 373.0Q47.0 376.0 38.0 381.5Q28.5 386.5 21.25 390.0Q14.0 393.5 12.5 393.5Q11.0 392.0 10.5 381.25Q10.0 370.5 10.25 357.25Q10.5 344.0 11.25 334.0Q12.0 324.0 13.5 324.5Q15.5 324.5 27.75 329.0Q40.0 333.5 55.0 339.0Q67.5 343.5 77.5 346.25Q87.5 349.0 100.0 350.75Q112.5 352.5 131.5 353.25Q150.5 354.0 181.0 355.0Q220.0 356.5 239.5 356.5Q259.0 356.5 266.0 353.25Q273.0 350.0 274.75 340.25Q276.5 330.5 279.0 312.0Q279.5 301.5 281.25 294.0Q283.0 286.5 283.5 286.5Q284.0 286.5 291.25 293.75Q298.5 301.0 308.0 311.0Q317.5 321.0 330.25 331.5Q343.0 342.0 351.0 347.0Q363.5 354.5 381.5 361.5Q399.5 368.5 416.5 373.0Q433.5 377.5 442.0 377.5Q446.5 377.5 448.0 376.0Q451.0 373.5 451.75 352.25Q452.5 331.0 452.0 297.5L450.0 224.0L433.5 203.0Q427.0 194.5 422.75 188.25Q418.5 182.0 418.5 181.5Q420.0 180.0 428.5 179.25Q437.0 178.5 449.25 178.25Q461.5 178.0 473.0 178.0Q484.5 178.0 493.0 178.25Q501.5 178.5 501.5 179.5Q501.5 181.5 498.75 186.75Q496.0 192.0 492.5 197.5Q482.0 213.0 475.5 229.5Q469.0 246.0 465.75 268.0Q462.5 290.0 461.0 322.5L460.0 384.0L474.5 389.5Q481.0 391.5 493.5 395.0Q506.0 398.5 520.75 402.5Q535.5 406.5 549.0 410.25Q562.5 414.0 571.75 416.25Q581.0 418.5 582.0 418.5Q583.0 418.5 583.25 401.75Q583.5 385.0 583.5 357.0Q583.5 329.0 583.0 294.5Q582.5 257.0 581.75 231.25Q581.0 205.5 579.75 188.5Q578.5 171.5 576.75 159.75Q575.0 148.0 572.0 138.0Q568.0 122.5 565.5 115.75Q563.0 109.0 560.25 108.0Q557.5 107.0 551.5 108.0Q546.0 108.5 524.0 112.0Q502.0 115.5 476.0 119.0Q450.0 122.5 433.25 126.0Q416.5 129.5 403.25 134.5Q390.0 139.5 373.0 148.0Q356.0 156.0 337.5 166.75Q319.0 177.5 308.5 185.0Q299.0 192.5 291.25 197.75Q283.5 203.0 282.5 203.0Q282.0 203.0 282.0 192.75Q282.0 182.5 283.5 168.5L287.0 134.0H187.5Q151.5 134.0 130.5 134.25Q109.5 134.5 97.75 135.75Q86.0 137.0 78.5 139.5Q71.0 142.0 62.5 146.0Q45.0 153.5 33.75 163.0Q22.5 172.5 26.0 176.0Q27.0 176.5 38.75 180.75Q50.5 185.0 67.0 190.5Q80.0 195.0 90.25 197.5Q100.5 200.0 112.25 201.25Q124.0 202.5 141.25 202.75Q158.5 203.0 185.5 203.0Q207.5 203.0 225.75 203.5Q244.0 204.0 255.5 205.0Q267.0 206.0 268.0 207.5Q269.0 208.5 256.75 209.5Q244.5 210.5 223.0 211.5Q201.5 212.5 173.5 213.0Q138.0 213.5 117.75 214.5Q97.5 215.5 86.25 217.0Q75.0 218.5 67.0 221.5Q59.0 224.5 48.5 229.5Q37.5 234.5 29.0 237.75Q20.5 241.0 18.5 241.0Q18.0 241.0 18.0 241.0Q18.0 241.0 18.0 241.0Q17.0 240.0 16.25 230.25Q15.5 220.5 15.5 206.25Q15.5 192.0 15.5 177.75Q15.5 163.5 16.25 152.5Q17.0 141.5 18.0 139.0Q19.5 136.0 19.0 127.25Q18.5 118.5 16.0 109.0Q15.0 99.0 14.5 91.5Q14.0 84.0 14.5 83.5Q14.5 83.5 14.5 83.5Q14.5 83.5 15.0 83.5Q17.0 83.5 26.0 86.75Q35.0 90.0 47.0 95.5Q66.0 104.5 82.25 110.0Q98.5 115.5 116.25 118.75Q134.0 122.0 156.0 123.25Q178.0 124.5 208.0 124.5H280.5V105.5Q280.5 95.0 283.0 88.25Q285.5 81.5 287.5 81.5Q290.0 81.5 291.5 87.0Q293.5 92.0 302.5 97.75Q311.5 103.5 324.0 108.5Q336.5 113.5 349.5 116.75Q362.5 120.0 373.0 120.0Q382.5 120.0 403.0 118.0Q423.5 116.0 448.25 112.75Q473.0 109.5 496.5 106.25Q520.0 103.0 536.25 100.0Q552.5 97.0 555.0 95.5Q558.5 93.0 556.5 83.0Q554.5 73.0 546.0 52.5Q540.0 37.0 535.25 24.75Q530.5 12.5 530.5 11.0Z" fill="black" /></svg>