<svg xmlns="http://www.w3.org/2000/svg" width="523.5" height="462.0" viewBox="0 0 523.5 462.0"><path d="M98.0 231.5Q98.0 224.5 96.75 216.25Q95.5 208.0 94.0 204.0Q91.0 198.0 88.0 198.0Q86.0 198.0 80.0 201.5Q74.0 205.0 67.25 209.75Q60.5 214.5 55.0 218.75Q49.5 223.0 48.5 224.5Q48.0 225.5 54.5 229.75Q61.0 234.0 69.75 239.0Q78.5 244.0 86.25 247.75Q94.0 251.5 96.0 251.5Q97.5 251.5 97.75 245.5Q98.0 239.5 98.0 231.5ZM116.0 260.5Q116.0 257.0 112.0 257.0Q110.0 257.0 110.0 260.5Q110.0 263.5 112.0 263.5Q116.0 263.5 116.0 260.5ZM293.0 300.5 264.5 273.0Q252.5 262.5 242.75 254.25Q233.0 246.0 232.0 246.0Q230.0 246.0 228.75 264.75Q227.5 283.5 227.5 309.0V373.0L293.0 436.5ZM144.0 90.5Q144.5 89.5 138.5 88.25Q132.5 87.0 122.5 87.0Q105.5 87.0 103.25 89.0Q101.0 91.0 104.5 102.5Q107.0 109.5 108.75 117.5Q110.5 125.5 111.5 130.5Q111.5 136.0 113.5 136.0Q115.5 136.0 120.25 130.0Q125.0 124.0 130.25 115.75Q135.5 107.5 139.5 100.25Q143.5 93.0 144.0 90.5ZM215.0 204.5Q215.5 200.0 214.25 191.75Q213.0 183.5 212.0 175.5L207.5 157.5L162.5 189.5L188.0 202.5Q206.5 212.0 210.0 212.0Q213.5 212.0 215.0 204.5ZM233.5 224.5Q233.5 222.5 231.5 222.5Q227.5 222.5 227.5 224.5Q227.5 228.0 231.5 228.0Q233.5 228.0 233.5 224.5ZM236.5 141.5Q238.5 136.0 237.5 132.0Q236.5 128.0 235.0 128.0Q228.0 128.0 225.25 133.5Q222.5 139.0 222.5 151.5Q222.5 161.0 226.0 161.0Q231.0 161.0 236.5 141.5ZM280.0 153.5Q272.5 131.5 264.0 131.5Q259.5 131.5 254.0 138.75Q248.5 146.0 244.0 156.5Q239.5 167.0 236.5 176.25Q233.5 185.5 233.5 189.5Q233.5 195.0 238.25 206.5Q243.0 218.0 250.5 231.25Q258.0 244.5 266.0 255.75Q274.0 267.0 280.5 272.5L295.0 284.0L289.5 227.5Q288.0 204.0 285.5 182.25Q283.0 160.5 280.0 153.5ZM316.5 135.5Q316.5 135.0 312.0 134.5Q307.5 134.0 301.5 134.0Q293.0 134.0 289.75 134.5Q286.5 135.0 287.75 139.75Q289.0 144.5 293.0 157.5L300.0 176.5L308.0 157.5Q311.0 149.0 313.75 143.0Q316.5 137.0 316.5 135.5ZM384.0 269.0 388.0 177.5 361.5 155.5Q341.5 139.0 334.0 139.0Q330.0 139.0 328.0 142.5Q318.5 155.0 311.5 184.5Q304.5 214.0 304.5 248.0V296.5L340.0 331.5Q353.0 344.0 363.5 353.75Q374.0 363.5 376.5 363.5Q377.5 362.5 379.0 349.5Q380.5 336.5 381.75 315.5Q383.0 294.5 384.0 269.0ZM333.0 104.0Q330.0 97.5 326.5 87.75Q323.0 78.0 320.0 69.0L313.5 47.0L291.5 61.5Q282.0 68.0 275.5 73.25Q269.0 78.5 269.0 81.0Q269.0 81.5 278.25 87.0Q287.5 92.5 300.0 98.0Q312.5 104.0 323.0 109.25Q333.5 114.5 335.5 115.0Q339.5 116.0 333.0 104.0ZM416.0 67.0Q408.0 65.0 402.75 64.0Q397.5 63.0 393.5 63.0Q385.5 63.0 386.25 69.5Q387.0 76.0 392.5 92.0L401.5 120.5L409.5 105.0Q412.5 98.5 417.75 91.25Q423.0 84.0 425.5 81.0Q431.5 74.0 430.0 71.5Q428.5 69.0 416.0 67.0ZM309.5 25.0Q312.5 18.5 317.0 14.25Q321.5 10.0 325.5 10.0Q334.5 10.0 331.0 19.5Q326.5 31.5 328.25 49.25Q330.0 67.0 337.0 85.0Q341.0 94.5 348.5 107.75Q356.0 121.0 364.25 133.5Q372.5 146.0 379.25 154.5Q386.0 163.0 388.0 163.0Q390.5 163.0 389.75 149.5Q389.0 136.0 383.5 101.0Q382.5 93.0 377.25 83.25Q372.0 73.5 365.0 67.0Q359.0 60.0 355.0 54.75Q351.0 49.5 351.5 49.0Q352.5 48.5 365.5 49.25Q378.5 50.0 396.0 52.5Q405.5 53.5 414.25 54.25Q423.0 55.0 430.0 55.0Q442.5 55.0 448.5 52.5Q452.5 51.0 455.75 50.0Q459.0 49.0 462.0 49.0Q474.5 49.0 474.5 58.0Q474.5 60.0 471.75 61.5Q469.0 63.0 465.0 63.0Q459.5 63.0 451.25 71.25Q443.0 79.5 433.75 92.25Q424.5 105.0 416.5 119.5Q408.5 134.0 403.5 147.0Q398.5 160.0 398.5 168.0Q398.5 169.5 406.5 178.5Q414.5 187.5 428.0 201.25Q441.5 215.0 457.5 231.0Q473.5 246.5 486.25 260.5Q499.0 274.5 506.25 283.5Q513.5 292.5 512.0 294.5Q508.5 294.5 492.75 281.25Q477.0 268.0 456.5 248.0Q435.5 227.5 420.0 213.25Q404.5 199.0 402.0 199.0Q401.5 199.5 400.25 212.25Q399.0 225.0 397.5 245.75Q396.0 266.5 394.5 291.5Q393.0 321.5 392.5 339.75Q392.0 358.0 392.75 368.25Q393.5 378.5 395.5 383.75Q397.5 389.0 400.5 392.5Q404.5 397.5 406.25 401.5Q408.0 405.5 405.0 407.0Q399.5 411.0 396.0 405.0Q394.5 402.5 391.25 401.75Q388.0 401.0 384.0 403.5Q374.5 406.0 374.5 395.0Q374.5 390.0 364.25 377.0Q354.0 364.0 340.0 349.0L304.5 314.5V383.5Q304.5 414.5 302.5 433.25Q300.5 452.0 298.0 452.0Q293.0 452.0 293.0 445.0Q293.0 439.0 288.0 441.5Q286.5 443.5 277.25 436.75Q268.0 430.0 255.5 418.0L227.5 391.0V418.0Q227.5 430.0 226.25 437.75Q225.0 445.5 222.5 445.5Q220.0 445.5 217.75 435.5Q215.5 425.5 215.5 411.5V376.5L112.0 278.5L108.5 304.0Q107.0 316.0 105.75 336.75Q104.5 357.5 104.5 376.5Q104.5 422.0 98.0 422.0Q93.5 422.0 92.0 403.75Q90.5 385.5 92.0 344.0L95.5 267.5L72.0 254.0Q61.0 247.0 49.0 243.5Q37.0 240.0 29.0 240.5Q21.0 241.5 15.75 240.5Q10.5 239.5 10.5 238.5Q10.0 236.0 20.25 227.75Q30.5 219.5 45.5 210.0Q60.0 200.5 72.25 189.5Q84.5 178.5 86.5 173.5Q91.0 159.5 98.0 156.5Q102.0 155.5 101.5 147.0Q101.0 138.5 97.75 127.0Q94.5 115.5 89.25 104.75Q84.0 94.0 78.0 89.0Q72.0 83.5 67.5 78.75Q63.0 74.0 63.0 73.5Q63.0 72.5 77.5 72.25Q92.0 72.0 111.5 72.0Q128.5 72.0 145.75 72.25Q163.0 72.5 175.75 73.0Q188.5 73.5 192.0 74.0Q193.0 75.0 188.25 78.0Q183.5 81.0 175.0 85.0Q163.5 90.0 154.5 101.0Q145.5 112.0 135.5 131.5Q117.0 166.5 115.5 198.0Q114.0 229.5 130.0 260.25Q146.0 291.0 180.5 325.0L215.5 360.0V229.5L189.5 216.5Q163.0 203.5 144.5 206.0Q123.0 209.0 127.0 202.0Q131.0 195.0 163.0 173.5Q180.5 162.0 192.25 152.25Q204.0 142.5 204.0 140.5Q204.0 135.0 195.5 128.0Q186.5 121.0 186.5 117.5Q186.5 115.0 199.5 114.0Q212.5 113.0 228.0 113.0Q244.0 113.0 257.5 114.25Q271.0 115.5 273.0 118.0Q275.0 119.5 282.0 121.0Q289.0 122.5 298.0 122.5H319.0L299.0 108.5Q291.0 104.0 278.25 99.5Q265.5 95.0 255.5 95.0Q247.0 94.0 240.5 92.5Q234.0 91.0 235.0 89.0Q235.5 87.0 246.25 78.75Q257.0 70.5 271.5 61.5Q284.5 53.0 296.25 42.25Q308.0 31.5 309.5 25.0Z" fill="black" /></svg>