<svg xmlns="http://www.w3.org/2000/svg" width="785.0" height="457.0" viewBox="0 0 785.0 457.0"><path d="M61.0 370.5 60.5 309.5Q57.0 308.0 54.5 307.5Q52.0 307.0 50.0 307.0Q42.5 307.0 43.0 315.75Q43.5 324.5 44.5 340.0Q46.0 354.5 45.0 365.5Q44.0 376.5 46.0 376.5Q47.5 376.5 51.5 374.75Q55.5 373.0 61.0 370.5ZM73.5 316.5 74.0 364.0Q75.0 363.5 75.5 363.25Q76.0 363.0 76.5 362.5Q87.0 357.0 101.0 351.75Q115.0 346.5 123.0 346.0L146.5 342.0Q142.5 340.5 132.5 337.5Q122.5 334.5 110.75 330.5Q99.0 326.5 88.5 322.75Q78.0 319.0 73.5 316.5ZM60.5 246.0V226.5L50.0 222.0L51.0 254.0ZM65.5 192.0 77.5 166.0 57.0 164.0ZM81.5 154.5 90.5 132.0 50.0 140.0 53.5 151.0ZM75.0 244.0 106.5 234.5 75.0 228.5ZM248.0 339.5 247.0 279.0V245.5L183.5 246.0Q157.0 246.0 135.0 247.25Q113.0 248.5 108.0 249.5Q104.5 249.5 97.25 251.25Q90.0 253.0 83.25 255.5Q76.5 258.0 74.0 261.0L73.5 302.5Q73.5 302.5 82.75 307.25Q92.0 312.0 108.75 318.5Q125.5 325.0 148.25 330.25Q171.0 335.5 198.0 337.0ZM426.0 295.0V257.0Q425.0 252.5 423.0 250.25Q421.0 248.0 413.75 247.0Q406.5 246.0 390.0 245.75Q373.5 245.5 342.5 245.5H259.5V340.0L421.5 338.0V316.5Q421.5 307.5 422.75 301.25Q424.0 295.0 426.0 295.0ZM92.0 88.0Q78.5 84.0 66.0 79.75Q53.5 75.5 50.5 74.5Q47.5 73.0 45.5 73.0Q42.0 73.0 41.25 78.5Q40.5 84.0 40.5 99.0V128.0L63.5 124.5Q82.0 121.5 99.5 117.25Q117.0 113.0 127.25 108.5Q137.5 104.0 133.0 101.5Q129.5 101.0 117.75 97.0Q106.0 93.0 92.0 88.0ZM85.0 184.5 113.5 173.0 91.5 169.0ZM230.0 234.5H246.0L244.0 183.0L203.5 182.0Q187.0 181.5 167.75 182.5Q148.5 183.5 130.75 185.25Q113.0 187.0 100.25 189.25Q87.5 191.5 83.5 193.5Q81.5 195.0 79.75 201.25Q78.0 207.5 78.0 213.0Q78.0 218.5 80.0 218.5Q81.0 218.5 100.5 220.75Q120.0 223.0 146.5 226.5Q164.0 229.0 181.25 230.75Q198.5 232.5 211.75 233.5Q225.0 234.5 230.0 234.5ZM235.5 136.0 230.0 115.5H185.5Q152.5 116.0 136.5 117.75Q120.5 119.5 114.0 123.75Q107.5 128.0 103.0 137.5Q99.5 144.5 97.25 150.25Q95.0 156.0 96.0 157.0Q98.5 158.0 110.25 160.0Q122.0 162.0 138.75 164.25Q155.5 166.5 173.25 168.0Q191.0 169.5 205.0 169.5Q225.0 169.5 233.25 168.0Q241.5 166.5 241.25 159.5Q241.0 152.5 235.5 136.0ZM240.5 115.5 248.0 136.0 256.0 115.0ZM344.0 233.5 424.5 235.5V183.0L342.5 184.5L259.0 183.5V232.0ZM270.0 83.5 281.0 66.5H219.5L230.0 85.0Q231.5 88.5 234.0 95.0Q236.5 101.5 238.5 104.0H258.5Q261.0 101.5 264.25 94.5Q267.5 87.5 270.0 83.5ZM420.0 123.5Q418.5 119.5 412.25 118.0Q406.0 116.5 389.5 116.0Q373.0 115.5 340.5 115.5H264.5L260.5 139.5Q260.0 150.0 259.5 159.5Q259.0 169.0 260.0 169.5L341.5 172.0H424.5L424.0 152.0Q424.0 143.5 422.5 135.25Q421.0 127.0 420.0 123.5ZM460.0 31.0Q460.0 29.5 451.0 29.0Q442.0 28.5 429.0 28.5Q413.0 28.5 406.75 29.5Q400.5 30.5 401.5 34.5Q402.5 37.5 406.0 48.5Q409.5 59.5 413.5 72.5Q424.0 103.0 428.5 103.0Q431.5 103.0 435.5 88.5Q437.5 83.0 441.25 72.5Q445.0 62.0 449.0 53.5Q454.0 45.5 457.0 38.5Q460.0 31.5 460.0 31.0ZM579.5 124.5 590.0 101.5Q584.0 102.0 577.5 102.5Q571.0 103.0 564.5 103.0Q558.0 103.0 551.25 102.5Q544.5 102.0 537.5 101.5L564.0 156.5ZM721.0 23.5Q721.0 23.0 711.75 23.0Q702.5 23.0 690.5 23.0Q667.0 23.0 663.25 27.0Q659.5 31.0 669.0 48.5Q671.5 55.0 675.0 65.25Q678.5 75.5 679.5 84.5Q684.0 103.0 688.5 103.0Q692.5 103.0 695.5 86.5Q697.0 78.5 701.5 67.0Q706.0 55.5 710.0 47.0Q714.0 37.5 717.5 30.75Q721.0 24.0 721.0 23.5ZM460.5 347.0Q452.5 339.0 448.5 339.0Q443.5 339.0 443.5 359.5Q443.5 368.0 441.75 374.75Q440.0 381.5 438.0 381.5Q436.0 381.5 434.25 387.25Q432.5 393.0 431.5 400.5Q429.5 418.5 435.0 418.5Q438.0 418.5 443.5 415.5Q449.0 412.5 458.5 407.0Q467.0 401.5 479.75 394.75Q492.5 388.0 502.0 384.5L525.5 374.5L498.0 365.5Q487.0 361.5 475.75 356.5Q464.5 351.5 460.5 347.0ZM641.5 10.5Q642.5 10.0 653.0 10.0Q663.5 10.0 678.5 10.25Q693.5 10.5 708.0 11.25Q722.5 12.0 732.5 12.75Q742.5 13.5 742.5 14.5Q742.5 15.0 738.75 21.25Q735.0 27.5 729.0 36.0Q719.0 50.5 713.0 65.0Q707.0 79.5 704.0 100.0Q701.0 120.5 700.0 152.75Q699.0 185.0 699.0 235.5V359.5H737.0Q753.0 359.5 764.0 361.25Q775.0 363.0 775.0 365.5Q775.0 369.0 745.75 370.75Q716.5 372.5 647.0 371.0Q632.5 370.5 616.0 371.5Q599.5 372.5 585.5 373.75Q571.5 375.0 563.0 376.5Q550.5 378.5 531.5 385.5Q512.5 392.5 492.75 401.75Q473.0 411.0 457.25 420.25Q441.5 429.5 434.5 436.0Q429.5 440.5 424.75 443.75Q420.0 447.0 419.0 447.0Q418.5 447.0 418.25 433.25Q418.0 419.5 418.0 399.5L419.0 351.0H340.5Q312.0 351.0 295.5 351.0Q279.0 351.0 271.25 351.75Q263.5 352.5 261.5 355.0Q259.5 357.5 259.5 363.0Q259.5 380.0 254.5 380.0Q250.0 380.0 250.0 367.0Q249.5 357.0 247.75 353.75Q246.0 350.5 237.75 350.25Q229.5 350.0 208.5 349.5Q188.5 349.0 165.75 351.0Q143.0 353.0 123.5 356.75Q104.0 360.5 92.0 366.0Q84.5 369.5 79.25 375.0Q74.0 380.5 74.0 389.0Q74.0 395.5 72.75 400.75Q71.5 406.0 69.0 406.5Q67.0 407.5 64.0 404.5Q61.0 401.5 61.0 397.0Q61.0 386.5 56.5 386.5Q53.0 386.5 46.0 395.0Q40.5 401.5 38.5 401.5Q35.0 401.5 34.0 390.25Q33.0 379.0 32.5 353.0Q31.5 334.0 30.25 317.25Q29.0 300.5 27.5 295.0Q24.0 286.5 25.25 285.0Q26.5 283.5 33.0 286.0Q39.5 289.5 46.5 292.0Q53.5 294.5 60.5 296.5V264.0Q57.5 264.0 53.5 265.0Q49.0 266.5 46.0 266.5Q42.5 266.5 41.5 262.75Q40.5 259.0 40.5 250.0Q40.5 243.0 39.25 233.5Q38.0 224.0 37.0 219.5Q35.5 213.5 35.5 211.0Q35.5 208.5 38.0 208.5Q40.5 208.5 45.0 210.0Q57.0 213.0 57.0 208.5Q57.0 205.5 54.5 203.75Q52.0 202.0 49.0 202.0Q40.5 202.0 40.5 183.0Q40.5 175.5 39.0 170.0Q37.5 164.5 34.5 164.5Q32.0 164.5 30.75 151.5Q29.5 138.5 29.5 119.0Q29.5 100.5 28.25 85.25Q27.0 70.0 25.5 66.5Q10.0 43.5 54.5 63.5Q68.5 69.5 90.5 76.75Q112.5 84.0 136.0 90.25Q159.5 96.5 179.25 100.5Q199.0 104.5 208.0 104.5H225.0L214.5 79.5Q210.0 68.5 206.75 60.75Q203.5 53.0 203.5 52.5Q203.5 52.0 212.5 52.25Q221.5 52.5 235.0 53.25Q248.5 54.0 262.0 55.0Q275.5 56.0 285.0 56.75Q294.5 57.5 295.0 58.5Q296.0 59.0 293.25 64.5Q290.5 70.0 286.0 77.0Q281.0 85.0 275.5 94.25Q270.0 103.5 270.0 104.5H343.0Q372.0 104.5 387.25 103.75Q402.5 103.0 407.0 98.75Q411.5 94.5 408.25 84.0Q405.0 73.5 397.0 53.5Q387.5 31.5 385.0 22.25Q382.5 13.0 385.5 13.0Q387.0 13.0 389.0 14.5Q391.0 16.0 405.25 16.75Q419.5 17.5 438.0 17.5Q455.5 17.5 468.5 18.25Q481.5 19.0 481.5 20.0Q481.5 20.5 477.5 27.5Q473.5 34.5 468.0 43.0Q457.0 60.0 450.25 82.0Q443.5 104.0 440.75 136.75Q438.0 169.5 438.0 220.5Q438.0 254.5 438.25 273.5Q438.5 292.5 439.75 301.75Q441.0 311.0 443.75 315.5Q446.5 320.0 451.5 325.5Q466.5 340.5 491.0 350.0Q515.5 359.5 537.5 359.5H564.0L561.5 271.0Q560.0 237.0 558.5 215.25Q557.0 193.5 554.25 177.75Q551.5 162.0 545.75 147.5Q540.0 133.0 530.5 114.0Q525.5 106.0 522.75 99.0Q520.0 92.0 520.0 91.0Q520.0 90.0 533.5 91.0Q547.0 92.0 565.5 92.0Q584.5 92.5 598.25 91.25Q612.0 90.0 612.0 91.0Q612.0 91.5 606.5 100.25Q601.0 109.0 594.5 120.5Q591.5 126.0 587.25 135.5Q583.0 145.0 579.75 154.25Q576.5 163.5 576.5 169.5L574.5 254.5L573.0 359.5H690.5L689.0 255.5Q689.0 220.5 688.25 197.75Q687.5 175.0 686.0 159.75Q684.5 144.5 681.5 131.25Q678.5 118.0 674.0 101.5Q668.5 81.0 661.25 60.75Q654.0 40.5 650.0 32.0Q646.5 23.5 644.0 17.5Q641.5 11.5 641.5 10.5Z" fill="black" /></svg>