<svg xmlns="http://www.w3.org/2000/svg" width="534.5" height="379.0" viewBox="0 0 534.5 379.0"><path d="M58.0 216.5Q56.0 216.5 51.25 212.75Q46.5 209.0 42.5 204.0Q34.0 194.5 31.5 194.5Q30.5 194.5 29.5 196.5Q28.0 200.5 27.25 209.25Q26.5 218.0 26.0 227.25Q25.5 236.5 26.0 243.0Q26.5 249.5 27.5 249.5Q32.5 249.5 50.0 237.0Q77.0 216.5 58.0 216.5ZM218.0 186.5Q222.0 181.5 224.25 177.5Q226.5 173.5 225.5 172.5Q224.0 172.5 215.0 179.5Q206.0 186.5 194.0 196.5Q181.0 207.5 173.5 215.75Q166.0 224.0 167.5 226.5Q169.5 227.5 175.5 228.25Q181.5 229.0 188.0 228.0Q198.5 227.0 201.25 224.75Q204.0 222.5 206.0 213.0Q207.5 207.5 211.0 199.5Q214.5 191.5 218.0 186.5ZM272.0 204.5Q272.0 200.5 268.5 198.25Q265.0 196.0 262.0 198.5Q258.5 202.0 260.0 205.25Q261.5 208.5 266.0 208.5Q272.0 208.5 272.0 204.5ZM325.0 126.0Q316.0 121.5 309.0 119.0Q302.0 116.5 295.5 116.5Q282.0 116.5 269.5 129.75Q257.0 143.0 236.0 174.0Q225.0 190.5 220.5 198.5Q216.0 206.5 215.5 212.25Q215.0 218.0 216.5 228.0Q217.5 240.5 220.75 246.0Q224.0 251.5 233.0 258.0Q239.0 261.5 247.0 268.5Q255.0 275.5 260.0 281.0Q265.0 287.5 269.5 291.5Q274.0 295.5 275.5 295.5Q277.5 295.5 290.75 287.5Q304.0 279.5 321.5 268.5Q340.5 255.5 349.25 249.0Q358.0 242.5 361.0 237.5Q364.0 232.5 365.0 225.5Q365.5 219.5 365.5 214.0Q365.5 208.5 365.0 207.0Q364.5 206.0 358.0 205.25Q351.5 204.5 342.5 204.5Q330.5 204.5 316.5 205.5Q302.5 206.5 293.0 208.5Q274.5 213.0 267.25 220.25Q260.0 227.5 260.0 242.0Q260.0 248.5 259.0 253.25Q258.0 258.0 255.5 258.0Q253.5 258.0 252.5 246.0Q251.5 234.0 251.5 214.5Q251.5 171.0 257.5 171.0Q260.0 171.0 264.5 180.5Q269.5 191.5 282.5 195.75Q295.5 200.0 325.0 200.0Q346.0 200.0 355.75 198.25Q365.5 196.5 368.5 191.5Q371.5 186.5 371.5 176.0Q371.5 163.0 359.25 149.75Q347.0 136.5 325.0 126.0ZM343.0 273.0Q347.0 268.5 349.25 265.0Q351.5 261.5 350.5 261.0Q348.5 261.0 340.25 265.75Q332.0 270.5 322.0 277.0Q312.0 283.5 304.75 289.0Q297.5 294.5 297.5 296.0Q297.5 297.5 305.0 299.25Q312.5 301.0 320.75 302.0Q329.0 303.0 331.0 301.5Q332.0 300.5 333.5 297.75Q335.0 295.0 335.0 291.5Q335.0 284.5 343.0 273.0ZM416.0 203.0 404.5 198.5Q400.0 196.0 395.0 193.0Q390.0 190.0 387.5 188.0Q384.0 185.0 382.0 185.0Q377.5 185.0 375.5 203.0Q375.0 209.5 375.25 212.75Q375.5 216.0 379.0 216.0Q383.0 216.0 398.0 210.0ZM339.5 82.5Q343.0 76.0 344.0 71.75Q345.0 67.5 344.0 67.5Q342.0 67.5 334.0 73.75Q326.0 80.0 317.0 88.25Q308.0 96.5 301.5 102.75Q295.0 109.0 296.0 110.0Q297.0 111.0 302.0 112.0Q307.0 113.0 312.5 113.0Q327.0 113.0 329.0 105.5Q329.5 103.0 332.75 96.0Q336.0 89.0 339.5 82.5ZM369.5 32.0Q381.0 20.5 388.0 15.25Q395.0 10.0 395.5 12.5Q396.5 14.5 393.5 20.25Q390.5 26.0 385.0 31.5Q380.0 36.5 371.5 48.0Q363.0 59.5 356.0 71.0Q345.0 88.0 342.5 95.25Q340.0 102.5 341.0 112.5Q342.5 118.5 345.25 124.0Q348.0 129.5 350.5 131.0Q358.0 135.5 368.0 144.75Q378.0 154.0 385.25 163.0Q392.5 172.0 392.5 176.0Q392.5 186.0 411.0 190.75Q429.5 195.5 468.5 195.5Q487.5 195.5 503.25 197.0Q519.0 198.5 521.5 200.0Q524.5 202.0 516.75 203.0Q509.0 204.0 489.5 204.0Q462.5 204.0 444.5 206.25Q426.5 208.5 413.0 214.5Q399.5 220.5 387.5 232.25Q375.5 244.0 361.0 263.0Q352.5 274.0 348.75 280.0Q345.0 286.0 344.25 290.75Q343.5 295.5 344.5 303.0Q346.5 312.5 351.0 318.0Q355.5 323.5 367.0 332.0Q384.5 344.0 395.5 355.0Q406.5 366.0 404.0 369.0Q404.0 369.0 403.75 369.0Q403.5 369.0 403.5 369.0Q401.5 369.0 396.0 365.25Q390.5 361.5 384.5 356.0Q361.0 335.5 338.75 323.25Q316.5 311.0 295.0 307.5Q283.5 305.5 276.5 303.25Q269.5 301.0 262.75 295.75Q256.0 290.5 244.0 279.5Q195.0 233.0 155.0 233.0Q134.5 233.0 137.5 228.5Q139.5 226.0 132.75 225.5Q126.0 225.0 108.5 225.5Q94.5 226.5 86.25 228.0Q78.0 229.5 71.0 233.0Q64.0 236.5 53.5 243.5Q44.0 250.0 35.25 257.5Q26.5 265.0 23.5 269.0Q16.5 281.0 13.25 275.25Q10.0 269.5 14.5 253.5Q16.5 245.5 18.25 227.75Q20.0 210.0 20.0 192.5Q20.5 175.0 21.5 162.5Q22.5 150.0 23.5 150.0Q24.5 150.0 27.5 155.75Q30.5 161.5 33.5 169.5Q36.0 177.5 39.75 185.5Q43.5 193.5 45.5 196.5Q60.5 216.5 119.5 216.5H159.5L196.0 184.5Q206.5 175.5 218.0 165.0Q229.5 154.5 239.75 145.0Q250.0 135.5 256.0 129.5Q266.0 120.0 282.0 106.0Q298.0 92.0 311.5 82.5Q324.5 71.5 341.5 56.75Q358.5 42.0 369.5 32.0Z" fill="black" /></svg>