<svg xmlns="http://www.w3.org/2000/svg" width="727.0" height="449.5" viewBox="0 0 727.0 449.5"><path d="M206.5 337.0Q216.0 330.5 218.25 328.5Q220.5 326.5 216.5 326.5Q212.0 326.5 198.0 327.5Q184.0 328.5 168.0 330.25Q152.0 332.0 140.0 333.75Q128.0 335.5 127.0 337.0Q125.5 338.0 126.5 347.0Q127.5 356.0 129.75 367.5Q132.0 379.0 134.5 388.25Q137.0 397.5 138.5 399.5Q140.0 399.5 147.5 392.5Q155.0 385.5 164.5 375.0Q176.0 364.0 188.25 353.0Q200.5 342.0 206.5 337.0ZM80.0 236.0Q81.5 233.5 85.75 224.75Q90.0 216.0 95.0 205.75Q100.0 195.5 103.5 187.5Q107.0 179.5 107.0 178.5Q106.5 178.5 96.5 186.25Q86.5 194.0 73.5 206.0L42.0 233.5L60.0 238.5Q67.5 240.0 72.0 240.0Q78.5 240.0 80.0 236.0ZM183.5 254.5Q181.0 246.0 177.0 246.0Q173.0 246.0 163.5 257.0Q155.5 266.5 159.0 271.5Q162.5 276.5 179.5 281.0Q185.5 283.0 189.5 283.0Q194.0 283.0 191.0 274.5Q189.0 270.5 186.75 264.75Q184.5 259.0 183.5 254.5ZM197.0 202.0Q199.0 198.5 197.0 194.0Q192.5 193.0 192.5 198.5Q192.5 203.0 197.0 202.0ZM224.5 230.0Q220.0 203.5 214.0 203.5Q210.0 203.5 207.0 215.0Q202.0 235.5 204.5 255.5Q207.0 275.5 217.0 287.0L230.0 302.0L231.0 279.0Q231.0 270.5 229.0 255.75Q227.0 241.0 224.5 230.0ZM296.0 313.0Q293.5 305.0 289.5 305.0Q287.0 305.0 282.5 307.25Q278.0 309.5 270.5 313.5L255.5 322.0L273.5 337.0Q281.0 343.5 287.5 348.25Q294.0 353.0 296.0 353.0Q298.0 353.0 298.75 345.5Q299.5 338.0 299.0 328.25Q298.5 318.5 296.0 313.0ZM246.5 218.5Q246.5 214.5 245.25 211.5Q244.0 208.5 241.5 208.5Q230.5 208.5 234.5 225.0Q236.0 232.5 240.0 232.5Q242.5 232.5 244.5 228.75Q246.5 225.0 246.5 218.5ZM374.5 142.5Q353.0 133.5 339.0 127.5Q325.0 121.5 314.5 118.0Q304.0 114.5 294.25 112.5Q284.5 110.5 272.0 109.75Q259.5 109.0 241.0 108.5L178.5 107.0L158.5 132.5Q131.5 166.0 116.75 188.75Q102.0 211.5 97.5 228.0Q93.0 244.5 97.75 259.0Q102.5 273.5 115.0 291.0Q125.5 304.5 131.5 310.75Q137.5 317.0 143.5 319.0Q149.5 321.0 159.5 321.0Q172.5 321.0 185.0 319.25Q197.5 317.5 206.0 315.0Q214.5 312.5 214.5 310.0Q214.5 308.5 202.5 303.25Q190.5 298.0 174.5 291.0Q158.0 284.5 146.5 279.25Q135.0 274.0 135.0 273.0Q135.0 270.5 143.0 262.0Q151.0 253.5 162.0 242.5Q175.5 230.0 181.0 224.0Q186.5 218.0 186.25 213.0Q186.0 208.0 183.0 198.5Q178.5 182.5 177.75 175.75Q177.0 169.0 179.0 169.0Q181.5 169.0 186.5 173.5Q190.5 177.0 197.0 179.5Q203.5 182.0 208.5 182.0Q213.0 182.0 219.5 185.0Q226.0 188.0 231.0 193.5Q235.5 198.0 243.25 200.25Q251.0 202.5 259.5 202.5Q267.0 202.5 272.25 204.5Q277.5 206.5 277.5 208.5Q277.5 213.5 269.5 213.5Q263.5 213.5 258.25 223.0Q253.0 232.5 249.75 247.5Q246.5 262.5 246.5 278.5V305.5L264.5 302.0Q279.0 298.5 285.5 294.0Q292.0 289.5 292.0 281.25Q292.0 273.0 287.0 257.5Q280.5 238.5 279.0 230.25Q277.5 222.0 280.5 222.0Q283.0 222.0 288.0 226.5Q291.5 230.0 300.25 233.0Q309.0 236.0 317.0 237.0Q324.5 238.0 332.5 240.5Q340.5 243.0 344.0 246.0Q347.5 248.5 351.75 249.5Q356.0 250.5 357.5 250.0Q363.0 248.5 356.0 241.25Q349.0 234.0 335.5 225.0Q322.0 216.0 307.0 208.5Q292.0 201.0 281.0 198.5Q270.5 196.0 260.25 193.5Q250.0 191.0 247.0 189.5Q240.0 188.0 263.5 160.5L286.0 133.5L293.5 157.5Q296.5 168.0 300.75 175.75Q305.0 183.5 314.0 192.0Q323.0 200.5 339.0 213.5Q354.5 227.5 368.0 236.75Q381.5 246.0 384.5 246.0Q387.5 246.0 398.5 241.25Q409.5 236.5 422.0 230.0L451.0 215.0L433.5 211.5Q415.5 207.5 414.75 203.0Q414.0 198.5 430.0 191.5Q438.0 187.5 443.0 183.75Q448.0 180.0 448.0 178.5Q448.0 177.0 438.25 171.75Q428.5 166.5 411.75 158.75Q395.0 151.0 374.5 142.5ZM286.0 172.5Q282.0 161.0 278.5 161.0Q274.5 161.0 268.5 171.5Q265.0 178.0 266.0 180.25Q267.0 182.5 273.5 185.0Q276.0 185.5 278.25 186.25Q280.5 187.0 282.5 187.0Q291.0 187.0 286.0 172.5ZM311.5 249.5Q308.5 246.0 305.5 246.0Q299.5 246.0 299.5 257.0Q299.5 261.0 300.75 264.25Q302.0 267.5 304.5 267.5Q308.5 267.5 311.75 260.0Q315.0 252.5 311.5 249.5ZM335.5 265.5Q332.0 258.0 326.0 258.0Q321.0 258.0 319.0 264.5Q314.0 276.5 320.5 276.5Q324.0 276.5 328.5 274.5Q336.5 272.0 335.5 265.5ZM353.0 294.5Q349.5 280.5 341.0 280.5Q338.5 280.5 334.5 281.75Q330.5 283.0 325.0 286.0Q318.5 289.5 315.25 293.5Q312.0 297.5 311.0 305.5Q310.0 313.5 310.0 331.0Q310.0 348.5 311.0 356.75Q312.0 365.0 316.5 370.0Q321.0 375.0 331.5 383.5Q341.0 391.0 347.0 395.25Q353.0 399.5 356.5 399.5Q362.0 399.5 362.25 388.75Q362.5 378.0 360.5 354.5Q359.0 335.5 357.0 317.75Q355.0 300.0 353.0 294.5ZM369.5 327.0 384.5 298.5Q391.5 286.5 395.75 277.75Q400.0 269.0 399.0 267.5Q398.5 266.0 392.0 266.0Q384.5 266.0 374.5 267.75Q364.5 269.5 362.0 272.0Q361.0 273.0 361.5 281.75Q362.0 290.5 364.0 301.0ZM529.0 154.0Q536.0 143.0 540.0 134.75Q544.0 126.5 543.0 126.0Q541.0 126.0 527.75 135.25Q514.5 144.5 496.5 158.5Q477.5 172.5 463.0 183.0Q448.5 193.5 447.0 193.5Q442.5 193.5 442.5 197.0Q442.5 199.0 450.25 202.5Q458.0 206.0 469.0 208.5Q479.0 212.0 488.25 214.75Q497.5 217.5 500.0 217.5Q505.5 217.5 509.0 199.5Q510.0 191.0 516.0 177.75Q522.0 164.5 529.0 154.0ZM603.5 97.5Q602.5 91.0 601.0 86.0Q599.5 81.0 598.0 81.0Q593.0 81.0 580.25 97.0Q567.5 113.0 547.5 142.5Q528.0 172.0 521.5 189.0Q515.0 206.0 519.5 217.5Q521.5 221.0 523.5 227.0Q525.5 233.0 525.5 237.0Q526.0 240.0 535.5 252.5Q545.0 265.0 558.0 279.0Q570.0 292.5 582.25 307.75Q594.5 323.0 598.5 330.0Q602.5 336.5 607.25 341.75Q612.0 347.0 614.0 347.0Q615.5 347.0 615.75 332.0Q616.0 317.0 615.5 292.25Q615.0 267.5 614.0 238.75Q613.0 210.0 611.25 181.75Q609.5 153.5 607.5 131.0Q605.5 108.5 603.5 97.5ZM237.5 50.0Q237.0 45.0 234.5 41.75Q232.0 38.5 231.0 38.5Q229.0 38.5 222.0 46.75Q215.0 55.0 206.5 66.75Q198.0 78.5 191.0 90.0Q189.0 94.0 197.25 95.5Q205.5 97.0 231.0 97.0H274.0L257.5 79.5Q251.0 71.5 245.5 62.75Q240.0 54.0 237.5 50.0ZM666.5 45.0Q666.5 44.0 657.0 42.5Q647.5 41.0 634.5 41.0Q616.0 41.0 609.75 42.75Q603.5 44.5 605.0 49.0Q607.5 56.5 609.75 69.0Q612.0 81.5 614.0 95.75Q616.0 110.0 617.25 122.5Q618.5 135.0 618.5 142.5Q618.5 174.0 623.0 174.0Q628.0 174.0 637.5 132.5Q643.0 111.5 649.0 91.5Q655.0 71.5 658.0 65.0Q662.0 58.0 664.25 52.5Q666.5 47.0 666.5 45.0ZM581.5 14.0Q581.5 10.0 583.5 10.0Q586.0 10.0 598.5 20.0Q607.0 27.0 612.25 29.75Q617.5 32.5 626.5 32.5Q633.0 32.5 646.25 31.0Q659.5 29.5 672.0 27.0Q684.5 24.5 688.0 21.5Q692.5 20.0 698.75 18.75Q705.0 17.5 710.0 18.5Q717.0 19.5 715.25 22.0Q713.5 24.5 699.5 33.5Q687.0 41.5 678.75 51.75Q670.5 62.0 664.25 78.25Q658.0 94.5 651.0 121.0Q645.0 144.0 640.75 165.0Q636.5 186.0 633.75 209.5Q631.0 233.0 629.0 262.0Q627.0 291.0 625.5 330.0Q624.0 373.0 622.25 395.75Q620.5 418.5 619.5 418.5Q617.0 418.5 616.5 386.0Q616.5 355.0 609.5 355.0Q607.5 355.0 601.75 348.75Q596.0 342.5 589.5 333.5Q583.5 324.5 570.25 309.75Q557.0 295.0 541.25 278.75Q525.5 262.5 511.5 249.0Q497.5 235.5 489.0 229.5L474.5 218.5L445.5 230.0Q425.0 239.5 419.75 244.75Q414.5 250.0 424.5 250.0Q429.5 250.0 438.5 248.5Q449.0 247.0 453.5 247.0Q460.5 247.0 455.25 251.0Q450.0 255.0 432.0 264.0Q407.0 276.5 393.0 305.5Q379.0 334.5 372.0 389.5Q369.0 412.5 366.5 426.0Q364.0 439.5 364.0 434.5Q363.0 428.0 355.25 419.0Q347.5 410.0 336.75 401.0Q326.0 392.0 315.75 384.5Q305.5 377.0 299.5 373.0Q275.0 351.0 264.5 342.75Q254.0 334.5 250.0 334.5Q247.0 334.5 244.5 339.5Q242.0 344.5 240.0 345.0Q238.0 345.5 235.5 341.0Q234.0 339.0 231.0 339.0Q224.5 339.0 213.0 346.5Q201.5 354.0 188.25 366.5Q175.0 379.0 162.0 395.0Q152.5 406.5 144.25 416.0Q136.0 425.5 135.0 426.0Q132.5 426.0 130.25 418.0Q128.0 410.0 127.0 398.5Q125.5 387.0 122.0 373.0Q118.5 359.0 116.0 349.5Q111.0 338.0 110.75 332.25Q110.5 326.5 114.5 322.5Q117.5 318.0 115.5 312.0Q113.5 306.0 105.0 293.5Q88.0 268.5 70.75 257.25Q53.5 246.0 33.5 246.0H10.0L26.0 232.0Q104.5 166.5 155.25 111.75Q206.0 57.0 221.5 23.5Q226.5 12.5 234.0 12.5Q241.0 12.5 241.0 23.0Q241.0 34.5 249.5 49.25Q258.0 64.0 272.0 77.0Q276.0 80.5 289.75 88.5Q303.5 96.5 323.5 106.75Q343.5 117.0 365.25 127.75Q387.0 138.5 407.0 147.5Q427.0 156.5 441.0 162.0Q455.0 167.5 459.0 167.5Q464.5 167.5 471.5 163.5Q478.5 159.5 491.25 150.0Q504.0 140.5 525.5 123.5Q542.0 109.5 556.5 97.5Q571.0 85.5 580.5 77.25Q590.0 69.0 591.0 67.5Q593.5 63.0 593.25 56.0Q593.0 49.0 589.0 41.0Q586.0 33.5 583.75 25.75Q581.5 18.0 581.5 14.0Z" fill="black" /></svg>