<svg xmlns="http://www.w3.org/2000/svg" width="714.5" height="302.0" viewBox="0 0 714.5 302.0"><path d="M22.5 173.0 63.5 134.5Q60.0 134.5 50.75 127.0Q41.5 119.5 36.0 113.0L22.5 96.5ZM327.5 199.5Q337.0 192.5 340.25 189.25Q343.5 186.0 338.0 186.0Q334.0 186.0 325.5 187.5Q317.0 189.0 303.0 191.5Q287.0 194.0 281.0 197.0Q275.0 200.0 276.5 203.5Q278.0 206.5 279.75 210.75Q281.5 215.0 282.5 217.5Q283.5 221.0 282.5 224.25Q281.5 227.5 279.0 225.5Q276.0 224.0 275.0 224.0Q273.0 224.0 273.75 227.5Q274.5 231.0 274.5 234.0Q274.5 240.5 278.0 240.5Q282.5 240.5 295.0 228.0Q300.0 222.0 309.5 213.75Q319.0 205.5 327.5 199.5ZM215.5 122.5 229.0 95.0Q234.5 83.5 238.25 75.25Q242.0 67.0 242.0 67.0Q241.5 67.0 232.75 73.5Q224.0 80.0 211.0 89.0L179.0 109.5Q178.5 111.5 184.75 112.75Q191.0 114.0 199.75 116.0Q208.5 118.0 215.5 122.5ZM501.5 114.0 523.5 101.5Q520.0 100.5 512.0 96.25Q504.0 92.0 495.75 86.5Q487.5 81.0 482.5 76.5L464.0 62.0L463.0 98.5Q461.0 114.0 460.25 128.0Q459.5 142.0 459.5 142.5Q460.5 142.5 465.25 138.25Q470.0 134.0 473.5 131.5Q479.5 127.5 487.25 122.5Q495.0 117.5 501.5 114.0ZM281.0 21.0Q290.5 10.0 296.0 10.0Q299.5 10.0 299.5 15.0Q299.5 16.5 293.75 24.25Q288.0 32.0 280.0 41.5Q258.5 63.5 245.5 84.0Q232.5 104.5 229.25 117.5Q226.0 130.5 233.5 130.5Q238.0 130.5 235.0 136.0Q231.5 143.5 241.0 143.5Q247.0 143.5 246.5 144.75Q246.0 146.0 241.0 149.5L255.0 166.5Q262.0 174.5 270.0 178.5Q278.0 182.5 290.5 182.5Q305.5 182.5 329.75 176.75Q354.0 171.0 394.5 158.5L447.0 141.5Q449.5 139.0 449.75 133.75Q450.0 128.5 450.5 123.5Q451.5 116.0 452.5 99.5Q453.5 83.0 453.5 67.0Q453.5 30.5 460.5 30.5Q463.5 30.5 466.5 40.0Q468.0 44.5 474.75 52.75Q481.5 61.0 489.5 68.0Q499.0 76.0 508.25 81.25Q517.5 86.5 531.75 89.0Q546.0 91.5 569.25 91.75Q592.5 92.0 630.0 91.0Q661.0 90.0 682.75 90.75Q704.5 91.5 704.5 93.0Q704.5 96.5 697.0 98.75Q689.5 101.0 671.0 102.0Q652.5 103.0 619.5 103.0Q595.5 103.0 580.5 103.25Q565.5 103.5 556.0 104.75Q546.5 106.0 538.75 108.5Q531.0 111.0 521.0 115.5Q510.5 121.0 497.0 130.5Q483.5 140.0 473.5 148.5Q464.0 156.0 458.25 160.0Q452.5 164.0 450.0 164.0Q447.0 164.0 447.0 157.5Q447.0 155.5 435.25 158.5Q423.5 161.5 394.5 173.5Q363.5 187.0 338.75 204.0Q314.0 221.0 299.0 238.75Q284.0 256.5 281.0 273.0Q277.0 292.0 274.5 292.0Q270.5 292.0 266.5 256.0Q264.0 227.0 256.75 208.25Q249.5 189.5 240.0 186.0Q236.5 184.0 235.5 182.75Q234.5 181.5 237.5 179.5Q240.0 178.0 237.0 170.5Q234.0 163.0 223.5 155.0Q217.0 149.5 209.0 142.5Q201.0 135.5 192.5 133.0H147.5Q127.0 133.0 115.0 133.25Q103.0 133.5 95.5 135.0Q88.0 136.5 81.75 139.75Q75.5 143.0 66.5 149.0Q57.0 155.5 45.5 165.75Q34.0 176.0 28.0 183.5Q22.5 190.5 17.75 195.25Q13.0 200.0 11.0 200.0Q11.0 200.0 10.75 199.75Q10.5 199.5 10.5 199.5Q10.0 199.0 10.0 189.25Q10.0 179.5 10.5 163.75Q11.0 148.0 11.5 129.5Q13.5 61.5 19.0 61.5Q21.5 61.5 24.5 74.0Q25.5 80.0 31.25 88.0Q37.0 96.0 45.25 104.0Q53.5 112.0 62.0 117.25Q70.5 122.5 76.5 122.5H116.0Q130.5 122.5 143.0 122.5Q155.5 122.5 161.0 121.5Q166.5 120.5 159.0 118.0Q153.0 115.5 155.5 112.5Q158.0 109.5 175.0 99.5Q186.5 92.5 202.5 81.5Q218.5 70.5 234.75 58.75Q251.0 47.0 263.5 36.75Q276.0 26.5 281.0 21.0Z" fill="black" /></svg>