<svg xmlns="http://www.w3.org/2000/svg" width="747.5" height="376.5" viewBox="0 0 747.5 376.5"><path d="M216.5 301.5Q216.5 301.0 204.5 300.75Q192.5 300.5 172.5 300.5Q152.5 300.5 128.5 300.5H40.0L39.5 321.0Q39.0 333.5 40.0 336.25Q41.0 339.0 46.0 338.0Q54.0 335.5 68.75 332.0Q83.5 328.5 101.75 324.25Q120.0 320.0 138.5 316.5Q157.0 313.0 172.0 310.5Q190.0 306.5 203.25 304.25Q216.5 302.0 216.5 301.5ZM155.0 216.0Q157.5 210.5 159.25 205.5Q161.0 200.5 160.0 200.0Q159.0 200.0 150.25 205.25Q141.5 210.5 130.0 219.0Q115.5 228.5 110.0 232.75Q104.5 237.0 106.0 238.5Q107.5 240.0 113.5 241.5Q119.0 243.0 127.0 245.0Q135.0 247.0 140.5 249.0Q143.5 249.5 145.75 250.25Q148.0 251.0 149.5 251.0Q153.0 251.0 150.5 241.5Q149.5 236.0 150.5 229.0Q151.5 222.0 155.0 216.0ZM163.0 123.5Q167.0 115.0 161.0 117.25Q155.0 119.5 132.5 135.5L106.0 154.5L130.0 160.5Q140.0 162.5 148.0 164.0Q156.0 165.5 156.5 166.5Q157.5 166.5 158.5 161.0Q159.5 155.5 159.5 148.5Q159.5 141.5 160.75 134.25Q162.0 127.0 163.0 123.5ZM245.5 228.0Q240.0 226.0 237.5 226.0Q234.5 226.0 234.5 234.0Q234.5 239.0 236.5 240.25Q238.5 241.5 243.5 240.5Q252.0 238.0 252.5 234.25Q253.0 230.5 245.5 228.0ZM257.5 165.0Q264.5 162.5 249.5 155.0L234.5 147.5V161.0Q234.5 173.0 238.0 173.0Q239.5 173.0 242.5 171.5Q246.0 170.0 250.5 168.0Q255.0 166.0 257.5 165.0ZM223.0 240.5V215.0L175.0 188.0L170.5 200.0Q169.0 204.5 166.25 211.75Q163.5 219.0 161.5 223.5Q157.0 234.0 161.0 243.25Q165.0 252.5 173.0 252.5Q175.5 252.5 177.25 254.0Q179.0 255.5 178.0 256.5Q175.5 261.0 181.0 266.5Q186.5 272.0 202.0 280.5Q210.5 284.5 216.5 286.5Q222.5 288.5 234.5 288.5Q239.5 288.5 254.25 287.5Q269.0 286.5 287.75 285.25Q306.5 284.0 324.25 282.5Q342.0 281.0 354.0 279.75Q366.0 278.5 366.5 278.0Q368.0 276.5 362.5 275.25Q357.0 274.0 348.0 273.5Q339.0 273.0 329.5 273.0Q313.5 273.0 306.5 275.0Q302.0 277.0 297.0 277.0Q292.0 277.0 290.25 274.75Q288.5 272.5 293.5 269.0Q296.0 268.0 299.5 263.0Q303.0 258.0 305.5 252.5L312.5 239.0H296.5Q287.5 239.0 284.5 240.5Q281.5 242.0 283.0 246.0Q285.5 253.0 280.5 253.0Q276.5 253.0 273.5 248.0Q271.0 244.0 264.5 244.0Q253.5 244.0 239.5 255.0Q234.0 260.0 229.75 263.5Q225.5 267.0 224.5 267.0Q223.5 267.0 223.25 259.25Q223.0 251.5 223.0 240.5ZM378.5 267.5 356.5 253.5Q346.5 246.5 340.0 243.25Q333.5 240.0 329.0 240.0Q323.0 240.0 317.5 250.5Q314.0 258.5 314.75 260.5Q315.5 262.5 323.0 262.5Q327.5 262.5 337.25 263.0Q347.0 263.5 356.0 264.5ZM377.0 222.0Q379.0 219.0 374.0 219.0Q369.0 219.0 371.0 222.0Q374.0 225.0 377.0 222.0ZM392.0 191.0Q392.0 186.5 390.5 186.5Q387.5 186.5 385.0 191.0Q384.0 195.5 387.5 195.5Q392.0 195.5 392.0 191.0ZM479.0 198.0Q481.5 193.5 475.0 193.5Q467.5 193.5 467.5 198.0Q467.5 202.5 472.0 202.5Q474.0 202.5 476.0 201.0Q478.0 199.5 479.0 198.0ZM479.0 234.5Q477.0 230.0 472.0 230.0Q467.5 230.0 467.5 234.5Q467.5 239.0 475.0 239.0Q481.5 239.0 479.0 234.5ZM550.0 230.0V202.5L521.5 203.0Q499.0 203.0 485.5 206.75Q472.0 210.5 472.0 216.0Q472.0 222.5 484.75 226.25Q497.5 230.0 520.0 230.0ZM346.0 78.0Q332.5 72.5 319.0 66.75Q305.5 61.0 295.75 56.0Q286.0 51.0 282.5 48.5L268.0 39.0L257.5 57.5Q252.5 65.5 249.0 72.0Q245.5 78.5 245.0 79.5Q244.5 80.5 263.0 82.75Q281.5 85.0 308.5 87.5Q335.5 89.5 358.0 92.25Q380.5 95.0 385.5 96.0Q389.5 96.0 378.0 91.0Q366.5 86.0 346.0 78.0ZM398.0 136.5Q394.0 125.0 389.5 125.0Q385.5 125.0 379.0 136.5L371.5 147.5H387.5Q399.0 147.5 400.5 146.0Q402.0 144.5 398.0 136.5ZM449.5 115.5Q437.0 113.5 425.5 111.5Q414.0 109.5 410.0 108.5Q401.0 106.5 399.75 112.5Q398.5 118.5 403.25 128.0Q408.0 137.5 416.75 146.75Q425.5 156.0 436.0 161.0Q443.5 165.0 449.5 168.0Q455.5 171.0 456.5 171.0Q457.5 171.0 458.0 165.5Q458.5 160.0 458.5 152.0Q458.5 135.0 464.5 135.0Q467.0 135.0 471.5 137.0Q476.0 139.0 482.5 143.0Q489.5 148.0 501.75 150.5Q514.0 153.0 525.0 153.0Q533.5 153.0 539.5 151.25Q545.5 149.5 545.5 146.0Q545.5 142.5 531.25 137.0Q517.0 131.5 495.0 125.5Q473.0 119.5 449.5 115.5ZM479.0 156.5Q480.0 155.0 479.0 153.5Q478.0 152.0 475.0 152.0Q467.5 152.0 467.5 156.5Q467.5 161.0 472.0 161.0Q476.5 161.0 479.0 156.5ZM550.0 193.5V161.0L524.0 162.0Q502.5 162.5 487.25 166.25Q472.0 170.0 472.0 175.5Q472.0 179.5 480.75 183.75Q489.5 188.0 502.25 190.75Q515.0 193.5 527.0 193.5ZM568.0 148.5Q568.0 146.5 566.0 144.75Q564.0 143.0 561.5 143.0Q550.5 143.0 557.5 159.0Q559.5 163.5 560.5 163.75Q561.5 164.0 564.5 160.5Q568.0 155.0 568.0 148.5ZM587.0 120.0Q587.0 119.0 580.75 117.0Q574.5 115.0 566.0 114.5Q554.0 114.0 550.0 114.75Q546.0 115.5 548.0 119.0Q549.0 122.0 549.5 124.25Q550.0 126.5 550.0 127.5Q550.0 128.5 553.5 130.5Q557.0 132.5 562.0 134.0Q568.0 136.5 571.0 136.5Q575.5 136.5 580.0 131.0Q582.5 127.0 584.75 124.0Q587.0 121.0 587.0 120.0ZM379.0 180.5Q382.0 175.5 384.5 172.0Q387.0 168.5 389.0 168.5Q390.0 168.5 393.0 172.0Q396.0 175.5 398.0 180.5Q403.0 193.0 423.5 200.0Q431.5 203.0 437.25 206.25Q443.0 209.5 443.0 212.0Q443.0 215.0 439.0 215.0Q434.5 215.0 425.5 211.5Q418.5 209.0 409.75 207.0Q401.0 205.0 395.5 204.5Q381.0 204.5 384.0 212.75Q387.0 221.0 404.0 228.0Q412.0 230.5 417.75 233.5Q423.5 236.5 423.5 239.0Q423.5 241.0 422.0 241.75Q420.5 242.5 419.0 242.0Q400.5 237.0 390.75 234.75Q381.0 232.5 375.5 232.5Q369.0 232.5 364.0 236.0Q357.5 240.5 354.5 240.5Q362.0 245.5 370.75 251.0Q379.5 256.5 386.5 260.0L410.0 272.0L476.5 264.0Q508.0 260.0 524.25 257.0Q540.5 254.0 545.0 250.5Q549.5 247.0 546.5 242.0Q545.0 239.5 533.0 239.5Q524.0 239.5 511.75 241.0Q499.5 242.5 489.25 245.0Q479.0 247.5 474.5 250.5Q470.0 253.0 465.5 255.0Q461.0 257.0 460.0 257.0Q459.0 257.0 457.75 246.0Q456.5 235.0 456.5 219.5V182.0L434.0 171.0Q421.5 165.0 404.5 161.0Q387.5 157.0 377.0 157.0Q367.0 157.0 367.0 160.5Q367.0 162.0 353.0 164.25Q339.0 166.5 319.0 167.0Q297.0 168.0 281.5 170.75Q266.0 173.5 253.0 178.5Q240.0 183.5 225.5 192.0Q224.5 192.0 224.25 183.0Q224.0 174.0 224.75 162.25Q225.5 150.5 226.5 140.75Q227.5 131.0 228.5 129.5Q229.0 129.0 232.5 131.0Q236.0 133.0 240.5 137.0Q253.0 148.0 268.0 152.75Q283.0 157.5 306.0 157.5Q310.5 157.5 319.5 157.25Q328.5 157.0 337.25 156.25Q346.0 155.5 349.0 154.5Q353.0 153.0 359.25 146.25Q365.5 139.5 371.5 130.75Q377.5 122.0 381.0 115.0Q384.5 108.0 383.0 106.5Q381.0 104.5 368.0 102.5Q355.0 100.5 336.25 98.75Q317.5 97.0 297.75 95.75Q278.0 94.5 261.75 94.0Q245.5 93.5 238.0 94.5Q234.5 95.0 231.25 95.25Q228.0 95.5 225.5 95.5Q216.0 95.5 216.25 91.75Q216.5 88.0 227.0 81.5Q233.0 77.5 239.75 67.5Q246.5 57.5 252.25 45.0Q258.0 32.5 260.0 21.5Q263.0 10.0 266.0 15.0Q271.0 33.0 304.0 50.0Q310.0 53.0 327.25 59.75Q344.5 66.5 368.25 75.0Q392.0 83.5 418.25 92.25Q444.5 101.0 468.5 108.5Q492.5 116.0 510.0 120.75Q527.5 125.5 533.5 125.5Q538.5 125.5 536.5 121.75Q534.5 118.0 527.5 110.0Q513.5 94.0 541.0 102.0Q547.5 104.0 560.0 105.25Q572.5 106.5 583.0 106.5Q594.0 106.5 601.75 107.75Q609.5 109.0 609.5 110.0Q609.5 112.0 606.0 116.25Q602.5 120.5 598.0 125.0Q587.0 135.0 587.0 138.5Q587.0 139.0 597.0 142.25Q607.0 145.5 624.25 150.0Q641.5 154.5 662.0 159.5Q693.5 167.0 715.5 173.25Q737.5 179.5 737.5 180.5Q737.5 184.0 731.5 184.0Q724.5 184.0 706.0 179.75Q687.5 175.5 652.0 166.5Q596.5 152.5 584.5 152.5Q579.5 152.5 578.0 154.5Q573.0 160.0 569.0 171.5Q565.0 183.0 562.25 196.75Q559.5 210.5 558.5 223.25Q557.5 236.0 558.75 244.25Q560.0 252.5 563.5 252.5Q565.5 252.5 577.0 251.5Q588.5 250.5 606.25 248.25Q624.0 246.0 644.0 243.5Q680.0 239.0 698.5 237.0Q717.0 235.0 724.5 235.0Q730.0 235.0 731.5 235.75Q733.0 236.5 733.0 238.5Q733.0 240.0 730.5 241.25Q728.0 242.5 717.5 244.0Q707.0 245.5 684.5 248.25Q662.0 251.0 622.0 255.5L555.5 263.0L552.5 283.5Q551.5 291.5 549.0 297.25Q546.5 303.0 545.0 303.0Q543.0 303.0 542.25 298.0Q541.5 293.0 543.5 285.0Q545.0 273.5 544.25 270.25Q543.5 267.0 539.0 267.0Q531.0 267.0 515.0 268.75Q499.0 270.5 481.75 272.75Q464.5 275.0 451.75 277.25Q439.0 279.5 437.5 281.0Q434.5 285.0 440.0 285.0Q444.0 285.0 456.5 288.5Q469.0 292.0 485.5 297.0Q502.0 302.0 517.75 307.5Q533.5 313.0 544.0 317.25Q554.5 321.5 554.5 322.5Q554.5 325.5 550.5 325.5Q545.5 325.5 531.25 321.25Q517.0 317.0 487.0 307.5Q471.5 302.5 455.75 298.0Q440.0 293.5 428.25 290.25Q416.5 287.0 412.0 286.5Q407.5 285.5 394.25 286.5Q381.0 287.5 363.0 289.5Q345.0 291.5 325.75 294.25Q306.5 297.0 290.0 299.5Q273.5 302.0 263.25 304.25Q253.0 306.5 253.0 307.5Q253.0 308.5 257.0 312.5Q261.0 316.5 266.5 321.0Q272.0 324.5 275.5 329.0Q279.0 333.5 278.0 336.0Q277.0 337.5 270.0 333.75Q263.0 330.0 254.0 324.0Q233.5 308.0 223.0 310.5Q221.0 310.5 210.25 312.5Q199.5 314.5 184.0 317.5Q168.5 320.5 151.0 324.0Q97.0 334.0 62.25 343.75Q27.5 353.5 18.5 361.5Q13.5 366.5 11.75 366.25Q10.0 366.0 10.0 360.5Q10.0 357.0 13.0 352.75Q16.0 348.5 20.0 345.0Q25.0 341.0 27.5 332.5Q30.0 324.0 30.0 314.25Q30.0 304.5 26.5 297.5Q25.0 294.0 28.5 292.5Q32.0 291.0 47.5 291.0Q62.0 291.0 93.5 292.5Q124.5 293.5 148.75 292.75Q173.0 292.0 179.5 290.0L195.5 285.5L161.5 270.0Q148.0 263.5 130.5 257.5Q113.0 251.5 96.75 247.75Q80.5 244.0 70.0 243.5Q69.0 243.5 76.75 239.0Q84.5 234.5 95.5 228.0Q107.5 221.5 121.5 212.75Q135.5 204.0 143.5 198.0L162.5 182.0L145.0 174.5Q138.0 171.0 125.5 168.0Q113.0 165.0 103.0 163.5Q84.0 161.0 80.5 157.25Q77.0 153.5 89.5 150.0Q95.0 148.0 106.75 140.75Q118.5 133.5 132.75 124.0Q147.0 114.5 159.25 105.0Q171.5 95.5 178.0 89.0Q188.5 78.5 191.5 78.5Q193.0 78.5 193.0 83.0Q193.0 91.5 188.5 96.0Q185.0 97.5 179.5 108.25Q174.0 119.0 170.0 131.0Q166.0 143.0 166.0 149.0Q166.0 153.0 167.5 158.25Q169.0 163.5 170.5 166.5Q173.5 170.0 175.25 169.75Q177.0 169.5 182.0 163.5Q187.5 157.0 188.25 157.75Q189.0 158.5 187.0 168.5Q185.5 178.5 188.0 182.25Q190.5 186.0 206.0 193.5Q220.5 200.5 227.25 204.0Q234.0 207.5 238.5 210.25Q243.0 213.0 250.0 218.0Q258.5 223.5 272.75 226.75Q287.0 230.0 299.0 230.0Q307.0 230.0 312.0 228.5Q317.0 227.0 317.0 223.5Q317.0 216.5 321.0 216.5Q326.0 216.5 344.5 232.5Q346.5 234.0 348.5 235.5Q350.5 237.0 352.5 239.0Q351.5 235.0 362.0 215.0Q367.0 206.0 372.25 196.0Q377.5 186.0 379.0 180.5Z" fill="black" /></svg>