<svg xmlns="http://www.w3.org/2000/svg" width="933.0" height="438.5" viewBox="0 0 933.0 438.5"><path d="M60.5 273.0 89.0 261.5 33.5 234.0 31.0 256.5Q29.5 265.5 29.5 272.75Q29.5 280.0 30.0 281.0Q32.0 281.0 40.75 278.75Q49.5 276.5 60.5 273.0ZM305.5 265.0Q298.0 260.5 294.5 260.5Q289.0 260.5 289.0 271.5Q289.0 282.0 294.0 282.0Q297.5 282.0 305.5 276.5Q311.0 272.5 311.0 270.75Q311.0 269.0 305.5 265.0ZM305.5 321.0Q298.5 316.0 294.5 316.0Q289.0 316.0 289.0 327.0Q289.0 337.5 294.0 337.5Q298.5 337.5 305.5 332.0Q311.0 328.0 311.0 326.25Q311.0 324.5 305.5 321.0ZM483.5 290.5 561.0 249.5 520.5 248.0Q504.0 247.0 491.75 247.25Q479.5 247.5 478.5 248.5Q478.5 252.5 481.0 271.5ZM112.5 161.0 124.0 148.5H83.0L91.5 162.5Q100.0 175.0 102.0 175.0Q102.0 174.0 105.5 170.0Q109.0 166.0 112.5 161.0ZM204.5 78.5 181.0 66.0Q171.5 60.5 164.0 57.25Q156.5 54.0 155.0 54.0Q154.0 54.0 153.25 60.25Q152.5 66.5 152.5 75.5Q152.5 98.5 159.0 98.5Q162.0 98.5 165.5 94.0Q167.5 92.0 173.75 89.0Q180.0 86.0 187.5 83.5ZM204.0 162.5Q208.5 152.0 207.25 150.25Q206.0 148.5 194.0 148.5Q182.5 148.5 180.75 150.25Q179.0 152.0 184.0 162.5Q186.5 168.5 189.25 172.5Q192.0 176.5 194.0 176.5Q195.5 176.5 198.75 172.5Q202.0 168.5 204.0 162.5ZM304.5 156.5Q298.5 149.0 294.5 149.0Q289.0 149.0 289.0 160.0Q289.0 165.5 289.5 168.0Q290.0 170.5 292.5 170.5Q293.5 170.5 302.0 168.0Q307.5 165.5 308.0 163.25Q308.5 161.0 304.5 156.5ZM304.5 221.5Q309.0 218.5 308.25 216.25Q307.5 214.0 300.5 210.5Q294.0 206.5 292.0 206.5Q289.0 206.5 289.0 215.5Q289.0 226.5 293.5 226.5Q297.5 226.5 304.5 221.5ZM446.5 51.5Q438.0 45.5 431.25 41.5Q424.5 37.5 424.5 37.5Q423.5 37.5 419.25 45.0Q415.0 52.5 410.0 62.5Q405.0 72.5 401.25 80.75Q397.5 89.0 397.5 90.5Q397.5 91.0 401.0 92.0Q404.5 93.0 409.0 93.0Q419.5 93.0 419.5 81.5Q419.5 76.5 421.0 74.25Q422.5 72.0 429.0 72.0Q432.0 72.0 436.25 72.5Q440.5 73.0 447.0 74.0Q474.0 76.5 477.5 71.5Q480.0 69.0 478.75 67.0Q477.5 65.0 474.0 65.0Q471.5 65.0 463.25 61.0Q455.0 57.0 446.5 51.5ZM467.0 155.0 477.0 127.0 485.5 98.0H466.5Q456.0 98.0 452.0 100.0Q448.0 102.0 450.5 110.75Q453.0 119.5 461.0 140.0ZM484.5 85.0Q486.0 84.0 484.75 82.75Q483.5 81.5 481.0 81.5Q478.0 81.5 476.75 82.75Q475.5 84.0 477.0 85.0Q481.5 88.5 484.5 85.0ZM512.5 85.0Q513.5 84.0 512.5 82.75Q511.5 81.5 509.0 81.5Q505.5 81.5 504.5 82.75Q503.5 84.0 504.5 85.0Q509.0 88.5 512.5 85.0ZM716.0 137.5Q662.5 122.5 625.25 113.0Q588.0 103.5 563.75 99.0Q539.5 94.5 525.0 94.5Q509.5 94.5 502.5 99.5Q495.5 104.5 491.5 114.0Q489.0 120.5 484.25 137.75Q479.5 155.0 475.0 174.0L464.5 218.0L476.0 228.0Q482.5 233.0 493.0 235.25Q503.5 237.5 520.5 237.5Q528.0 237.5 549.5 234.75Q571.0 232.0 601.5 227.5Q632.0 223.0 666.5 217.75Q701.0 212.5 734.5 206.75Q768.0 201.0 796.0 196.0Q824.0 191.0 841.75 187.5Q859.5 184.0 861.0 182.5Q862.0 181.5 842.75 175.0Q823.5 168.5 790.25 158.5Q757.0 148.5 716.0 137.5ZM335.0 396.5 306.5 387.0Q294.5 383.0 287.5 380.5Q280.5 378.0 276.5 378.0Q271.5 378.0 270.75 382.25Q270.0 386.5 270.0 396.5Q270.0 406.0 270.75 410.25Q271.5 414.5 274.5 414.5Q276.0 414.5 284.75 411.75Q293.5 409.0 302.25 406.0Q311.0 403.0 312.5 402.5ZM60.5 134.0Q60.5 133.5 68.5 133.75Q76.5 134.0 88.75 134.75Q101.0 135.5 113.25 136.75Q125.5 138.0 134.25 139.0Q143.0 140.0 144.0 141.0Q144.5 141.5 139.75 147.75Q135.0 154.0 128.0 162.5Q120.5 171.0 116.75 177.5Q113.0 184.0 112.0 192.0Q111.0 200.0 111.0 214.5V247.0L144.5 250.5Q152.0 251.0 158.75 251.25Q165.5 251.5 171.0 251.5Q182.5 251.5 186.5 250.5Q192.5 248.0 193.5 237.25Q194.5 226.5 191.0 211.25Q187.5 196.0 180.5 180.0Q173.5 164.0 164.0 152.0Q160.5 147.5 157.75 143.0Q155.0 138.5 155.0 136.5Q155.0 135.0 171.5 135.0Q183.0 135.0 198.0 135.75Q213.0 136.5 224.5 137.5Q236.0 138.5 237.5 140.0Q238.5 140.5 234.0 145.75Q229.5 151.0 223.0 158.0Q213.5 167.5 209.0 177.5Q204.5 187.5 202.0 208.0Q201.0 222.0 201.0 233.75Q201.0 245.5 202.0 248.0Q204.5 251.0 216.5 252.75Q228.5 254.5 241.5 254.5Q250.0 254.5 257.25 253.75Q264.5 253.0 269.0 251.5Q272.5 249.5 274.25 244.25Q276.0 239.0 276.75 226.25Q277.5 213.5 277.5 189.5Q277.5 163.0 279.0 147.5Q280.5 132.0 283.0 132.0Q285.5 132.0 291.75 134.75Q298.0 137.5 304.0 141.0Q312.5 146.5 329.25 149.5Q346.0 152.5 382.0 154.0Q437.5 155.0 440.0 160.0Q442.5 165.0 387.0 166.0Q348.0 166.0 324.25 171.25Q300.5 176.5 296.75 184.75Q293.0 193.0 313.5 201.5Q323.5 205.5 342.5 207.5Q361.5 209.5 389.0 209.5Q444.5 209.5 442.0 215.5Q441.0 217.5 424.5 219.25Q408.0 221.0 387.0 221.5Q351.0 221.5 327.25 226.25Q303.5 231.0 297.25 238.5Q291.0 246.0 306.5 254.5Q312.0 257.0 334.0 260.0Q356.0 263.0 382.0 264.5Q407.5 265.5 425.0 267.75Q442.5 270.0 441.0 271.5Q440.0 273.5 423.25 275.0Q406.5 276.5 384.5 276.5Q354.5 276.5 337.5 278.75Q320.5 281.0 308.0 287.0L286.5 296.5L303.0 308.0Q309.0 312.0 317.5 314.5Q326.0 317.0 341.25 318.5Q356.5 320.0 382.0 321.0Q437.5 322.0 440.25 327.0Q443.0 332.0 389.0 332.0Q361.5 332.0 343.5 334.25Q325.5 336.5 310.0 343.5Q297.5 348.0 288.5 351.25Q279.5 354.5 279.5 354.5Q279.0 354.5 278.25 341.0Q277.5 327.5 277.0 308.5Q276.0 279.5 272.75 269.25Q269.5 259.0 254.0 259.0Q248.5 259.0 241.25 260.0Q234.0 261.0 224.0 262.5Q212.5 264.0 207.25 266.0Q202.0 268.0 200.75 272.5Q199.5 277.0 199.5 287.0Q198.0 301.5 197.5 301.5Q197.0 301.5 196.0 290.5Q192.5 272.0 185.25 266.0Q178.0 260.0 158.5 260.0Q138.5 260.0 128.25 262.0Q118.0 264.0 114.5 269.25Q111.0 274.5 111.0 285.0Q111.0 293.0 109.0 298.75Q107.0 304.5 104.5 304.5Q102.5 304.5 101.0 299.25Q99.5 294.0 99.5 287.0Q99.5 278.5 98.5 275.5Q97.5 272.5 94.0 272.5Q92.0 272.5 87.5 274.0Q82.5 275.0 69.75 280.75Q57.0 286.5 45.5 292.0Q33.0 298.0 23.75 301.25Q14.5 304.5 13.5 303.5Q10.0 300.0 16.0 285.0Q18.0 279.5 19.5 266.0Q21.0 252.5 21.0 240.0Q21.0 227.5 23.25 218.5Q25.5 209.5 27.5 209.5Q32.5 209.5 32.5 214.0Q32.5 217.0 40.0 222.5Q47.5 228.0 58.25 233.75Q69.0 239.5 78.75 243.5Q88.5 247.5 93.5 247.5Q97.5 247.5 98.5 243.0Q99.5 238.5 99.5 225.0Q99.5 211.5 95.0 198.75Q90.5 186.0 80.5 168.5Q72.0 155.0 66.25 144.75Q60.5 134.5 60.5 134.0ZM411.5 27.0Q415.0 10.0 418.5 10.0Q422.0 10.0 432.5 23.5Q439.0 32.0 448.25 39.0Q457.5 46.0 475.5 53.5Q493.5 61.0 524.75 71.0Q556.0 81.0 605.75 95.0Q655.5 109.0 729.0 129.5Q764.5 139.0 796.5 148.0Q828.5 157.0 853.5 163.75Q878.5 170.5 894.0 174.75Q909.5 179.0 911.5 180.0Q923.0 183.5 920.25 187.75Q917.5 192.0 903.0 192.0Q898.0 192.0 874.25 195.5Q850.5 199.0 815.25 204.75Q780.0 210.5 740.0 217.5L595.0 242.5L543.0 271.5Q515.5 286.0 499.75 295.75Q484.0 305.5 476.5 313.5Q469.0 321.5 466.75 331.25Q464.5 341.0 464.5 355.5V388.0H525.5Q553.5 388.0 570.25 389.75Q587.0 391.5 587.0 394.0Q587.0 396.0 570.5 397.5Q554.0 399.0 526.5 399.0Q494.0 399.0 479.0 400.5Q464.0 402.0 462.0 406.0Q460.0 409.5 458.75 409.5Q457.5 409.5 455.0 406.0Q453.5 402.5 444.75 400.75Q436.0 399.0 423.0 399.0Q402.5 399.0 374.75 403.0Q347.0 407.0 322.0 414.0Q296.5 420.5 283.5 424.0Q270.5 427.5 266.25 428.0Q262.0 428.5 261.0 427.5Q260.5 427.0 260.5 425.0Q259.0 423.0 258.75 412.25Q258.5 401.5 258.5 388.5V354.5L290.0 369.5Q303.0 375.5 314.5 378.75Q326.0 382.0 342.5 383.75Q359.0 385.5 386.5 387.0L451.5 389.5L455.0 354.5Q458.0 322.5 458.5 286.25Q459.0 250.0 457.0 216.0Q455.0 182.0 451.0 155.5Q447.0 129.0 441.0 116.5Q437.5 109.0 433.75 106.0Q430.0 103.0 423.5 103.0Q416.5 103.0 406.25 105.0Q396.0 107.0 390.0 110.5Q384.0 113.5 381.0 113.5Q376.0 113.5 378.5 105.0Q381.0 96.5 390.5 77.5Q397.5 64.5 403.5 49.75Q409.5 35.0 411.5 27.0ZM140.5 68.5Q141.0 51.0 142.5 38.5Q144.0 26.0 144.5 26.0Q146.0 26.0 150.5 29.5Q155.0 33.0 159.5 37.5Q169.0 46.5 178.5 51.75Q188.0 57.0 202.25 60.0Q216.5 63.0 239.25 64.0Q262.0 65.0 297.5 65.0Q339.5 65.0 363.0 66.5Q386.5 68.0 386.5 70.5Q386.5 73.0 368.0 74.25Q349.5 75.5 318.5 75.5Q291.0 75.5 272.0 76.5Q253.0 77.5 237.75 80.5Q222.5 83.5 207.5 88.75Q192.5 94.0 173.5 102.5Q161.0 108.0 151.25 111.5Q141.5 115.0 139.5 115.0Q139.5 113.5 139.75 100.25Q140.0 87.0 140.5 68.5Z" fill="black" /></svg>