<svg xmlns="http://www.w3.org/2000/svg" width="413.5" height="385.5" viewBox="0 0 413.5 385.5"><path d="M85.0 291.5 82.0 272.0Q81.0 264.0 79.5 257.75Q78.0 251.5 76.5 251.0Q74.5 251.0 68.25 255.75Q62.0 260.5 54.5 267.5Q40.5 280.0 39.0 282.75Q37.5 285.5 44.5 286.0Q49.0 286.0 56.5 286.75Q64.0 287.5 70.0 288.5ZM99.5 185.0Q99.0 177.0 97.5 171.25Q96.0 165.5 95.0 165.5Q94.0 165.5 87.5 171.25Q81.0 177.0 72.5 184.0L51.5 202.0L76.0 204.5Q86.0 205.5 93.5 206.0Q101.0 206.5 101.0 206.0Q101.0 206.0 100.75 199.5Q100.5 193.0 99.5 185.0ZM185.0 173.0Q185.5 172.0 179.25 171.0Q173.0 170.0 163.0 170.0Q153.5 170.0 147.0 171.0Q140.5 172.0 141.5 173.0Q148.5 189.0 154.0 198.25Q159.5 207.5 161.5 207.5Q163.0 207.5 167.75 201.25Q172.5 195.0 177.75 186.75Q183.0 178.5 185.0 173.0ZM244.0 271.0Q244.0 265.5 243.0 261.25Q242.0 257.0 241.0 257.0Q240.0 257.0 233.25 262.75Q226.5 268.5 218.5 275.75Q210.5 283.0 204.75 288.75Q199.0 294.5 200.0 294.5Q200.0 295.0 207.25 295.5Q214.5 296.0 224.5 296.5Q240.5 297.5 244.25 297.0Q248.0 296.5 246.5 292.0Q245.5 289.5 244.75 283.5Q244.0 277.5 244.0 271.0ZM175.0 122.0 188.0 112.0 163.0 111.5H139.0L148.0 122.0Q153.0 126.5 155.75 129.0Q158.5 131.5 161.0 131.5Q163.5 131.5 166.5 129.0Q169.5 126.5 175.0 122.0ZM277.0 182.0Q277.0 174.5 274.0 174.5Q272.5 174.5 266.75 179.5Q261.0 184.5 253.75 191.5Q246.5 198.5 241.25 204.25Q236.0 210.0 236.0 211.0Q236.0 212.0 242.75 213.0Q249.5 214.0 259.0 214.0L282.5 215.0L279.5 202.0Q279.0 197.0 278.0 191.25Q277.0 185.5 277.0 182.0ZM296.5 74.0Q299.0 68.5 300.5 64.25Q302.0 60.0 301.0 59.5Q299.0 59.5 290.5 65.5Q282.0 71.5 272.0 79.25Q262.0 87.0 254.5 93.5Q247.0 100.0 247.0 101.5Q247.5 103.0 254.75 105.75Q262.0 108.5 271.75 111.5Q281.5 114.5 289.0 116.0Q289.0 116.0 289.5 111.5Q290.0 107.0 290.0 101.5Q290.0 95.5 292.0 87.25Q294.0 79.0 296.5 74.0ZM325.0 19.0 329.0 10.0 330.5 20.0Q331.5 29.5 326.0 36.5Q320.5 42.5 313.75 55.0Q307.0 67.5 302.5 80.0Q298.0 92.5 298.0 98.5Q298.0 104.0 299.75 108.75Q301.5 113.5 303.5 114.5Q309.0 118.0 311.5 125.0Q312.5 127.5 323.5 136.0Q334.5 144.5 348.5 154.0Q403.5 190.5 396.5 197.5Q390.5 197.5 374.0 183.5Q364.0 174.5 349.5 164.5Q335.0 154.5 319.25 145.0Q303.5 135.5 289.75 128.25Q276.0 121.0 267.5 118.0Q248.0 112.0 231.0 112.0Q208.5 112.0 191.5 122.0Q165.5 138.0 165.5 155.0Q165.5 158.5 170.0 160.0Q174.5 161.5 188.0 161.5Q226.0 161.5 200.5 173.0Q194.5 176.0 187.25 185.25Q180.0 194.5 174.5 206.25Q169.0 218.0 167.0 228.5Q165.0 238.5 167.5 243.5Q170.0 248.5 182.0 259.0Q189.0 265.5 195.5 269.5Q202.0 273.5 203.5 273.5Q205.5 273.5 213.25 267.5Q221.0 261.5 230.0 253.0Q252.0 232.0 258.0 232.0Q260.5 232.0 260.5 236.0Q260.5 240.0 256.0 242.5Q253.5 244.5 252.75 255.25Q252.0 266.0 253.25 277.75Q254.5 289.5 257.5 295.0Q259.5 298.5 269.25 306.25Q279.0 314.0 290.0 321.5Q307.0 333.0 321.5 344.75Q336.0 356.5 344.75 365.0Q353.5 373.5 351.5 375.5Q349.0 375.5 339.0 368.75Q329.0 362.0 316.0 352.0Q292.0 332.0 275.75 322.0Q259.5 312.0 244.5 308.5Q229.5 305.0 209.5 305.5Q197.0 305.5 187.25 305.25Q177.5 305.0 177.5 304.0Q177.5 303.5 180.25 300.75Q183.0 298.0 186.5 294.5Q194.5 287.0 192.5 280.5Q190.5 274.0 178.0 266.0L169.0 260.5V303.5Q169.0 324.5 169.75 333.75Q170.5 343.0 173.0 346.75Q175.5 350.5 181.0 355.0Q185.5 359.0 188.0 362.5Q190.5 366.0 189.5 368.0Q185.5 370.5 178.0 364.0Q172.0 356.5 168.5 356.5Q168.0 356.5 162.25 352.0Q156.5 347.5 150.5 341.0Q144.0 334.5 130.75 325.75Q117.5 317.0 107.0 311.0Q94.5 304.0 86.75 301.0Q79.0 298.0 70.25 297.25Q61.5 296.5 45.5 296.5L10.0 298.0L49.0 260.5Q88.0 224.5 94.0 224.5Q98.0 224.5 92.0 236.5Q87.0 246.0 87.75 260.75Q88.5 275.5 95.0 287.0Q96.5 290.0 105.25 297.0Q114.0 304.0 125.25 312.25Q136.5 320.5 145.5 326.25Q154.5 332.0 157.0 332.0Q159.0 332.0 160.0 320.5Q161.0 309.0 161.0 293.0Q161.0 273.5 160.5 264.75Q160.0 256.0 157.5 252.0Q155.0 248.0 149.0 243.5Q130.0 227.0 110.5 220.25Q91.0 213.5 65.0 214.0Q51.5 214.0 41.75 213.5Q32.0 213.0 32.0 212.0Q32.0 210.5 39.5 203.0Q47.0 195.5 58.25 185.0Q69.5 174.5 81.0 164.25Q92.5 154.0 100.75 147.25Q109.0 140.5 110.5 140.5Q112.5 140.5 112.25 144.25Q112.0 148.0 109.0 154.0Q104.5 166.5 106.25 181.5Q108.0 196.5 116.0 207.5Q119.0 211.5 125.5 216.75Q132.0 222.0 139.25 226.5Q146.5 231.0 151.75 233.25Q157.0 235.5 157.0 233.5Q157.0 223.0 149.25 207.25Q141.5 191.5 131.0 179.5L114.5 161.5H135.5Q149.0 161.5 153.0 160.0Q157.0 158.5 157.0 153.5Q157.0 146.0 147.75 134.75Q138.5 123.5 127.0 118.0Q111.0 109.0 119.25 106.0Q127.5 103.0 168.5 103.0Q188.0 103.0 199.25 102.75Q210.5 102.5 217.25 101.5Q224.0 100.5 229.25 97.75Q234.5 95.0 242.0 90.5Q254.5 83.0 268.5 72.5Q282.5 62.0 294.75 51.0Q307.0 40.0 315.5 31.5Q324.0 23.0 325.0 19.0ZM251.0 182.5Q278.0 157.5 287.0 151.5Q296.0 145.5 291.5 156.5Q290.5 159.0 288.75 166.25Q287.0 173.5 286.0 179.5Q284.5 197.0 293.0 211.0Q301.5 225.0 322.0 238.0Q332.0 244.0 343.5 252.5Q355.0 261.0 365.0 269.5Q375.0 278.0 380.75 284.25Q386.5 290.5 385.0 291.5Q382.5 291.5 373.0 285.0Q363.5 278.5 352.0 269.0Q329.0 250.5 311.75 240.25Q294.5 230.0 279.0 226.0Q263.5 222.0 245.0 222.5Q232.5 222.5 223.75 221.75Q215.0 221.0 215.0 219.5Q215.0 218.5 225.75 207.5Q236.5 196.5 251.0 182.5Z" fill="black" /></svg>