<svg xmlns="http://www.w3.org/2000/svg" width="572.0" height="376.5" viewBox="0 0 572.0 376.5"><path d="M180.5 295.5 155.0 297.0Q145.0 297.5 135.25 297.0Q125.5 296.5 123.0 294.5Q120.0 293.0 118.0 293.0Q115.5 293.0 115.0 298.25Q114.5 303.5 114.5 318.0Q114.5 329.5 115.5 337.5Q116.5 345.5 117.0 345.5Q118.5 345.5 124.25 340.75Q130.0 336.0 137.0 330.0Q144.5 323.0 153.75 315.5Q163.0 308.0 168.0 304.5ZM90.5 186.5Q96.0 181.0 99.5 176.75Q103.0 172.5 102.5 172.5Q101.5 172.5 90.75 177.5Q80.0 182.5 66.0 189.5L33.0 207.0L51.0 212.0Q64.0 216.0 69.0 216.0Q76.5 216.0 76.5 207.5Q76.5 205.0 80.5 199.0Q84.5 193.0 90.5 186.5ZM402.0 165.0Q406.5 158.5 409.5 154.5Q412.5 150.5 411.5 150.5Q410.5 150.5 400.25 157.25Q390.0 164.0 376.5 173.0L342.5 195.0L361.5 199.5Q374.5 202.5 379.0 202.5Q383.0 202.5 384.5 199.75Q386.0 197.0 387.5 190.5Q389.5 185.0 393.5 177.75Q397.5 170.5 402.0 165.0ZM205.5 99.5 182.0 75.5Q173.0 65.0 165.0 56.0Q157.0 47.0 154.5 45.0Q153.0 43.5 152.0 43.5Q149.0 43.5 144.75 50.0Q140.5 56.5 132.0 72.5Q125.5 86.0 120.5 95.75Q115.5 105.5 116.0 106.5Q117.0 107.5 125.25 105.75Q133.5 104.0 144.5 101.0Q170.5 94.0 188.0 96.5ZM516.5 36.0Q517.5 35.0 508.5 34.25Q499.5 33.5 486.5 33.5H456.0L461.0 48.5Q463.5 55.0 466.5 73.5Q469.5 92.0 471.5 111.0L477.0 156.5L486.5 118.5Q492.0 95.0 500.75 71.75Q509.5 48.5 516.5 36.0ZM34.5 195.5Q47.0 190.0 63.0 182.0Q79.0 174.0 95.25 165.5Q111.5 157.0 124.75 149.25Q138.0 141.5 145.5 136.5Q154.0 130.0 158.0 130.0Q161.0 130.0 158.75 134.0Q156.5 138.0 148.5 144.5Q123.0 165.5 106.75 183.25Q90.5 201.0 86.0 211.75Q81.5 222.5 90.5 223.5Q96.0 223.5 90.5 225.5Q84.0 227.5 86.25 232.5Q88.5 237.5 101.0 250.5Q108.0 257.5 114.75 265.5Q121.5 273.5 124.5 278.0Q132.0 288.5 148.0 288.5Q161.5 288.5 185.0 281.25Q208.5 274.0 246.0 258.5Q265.5 250.5 284.5 242.75Q303.5 235.0 317.75 229.0Q332.0 223.0 338.0 221.0Q348.0 217.0 354.25 213.5Q360.5 210.0 360.5 209.0Q360.5 208.0 352.75 206.5Q345.0 205.0 334.5 204.0L309.0 201.0L332.0 189.0Q350.5 179.5 359.25 174.5Q368.0 169.5 364.5 165.25Q361.0 161.0 343.25 154.75Q325.5 148.5 290.0 136.5Q267.0 128.5 245.5 121.75Q224.0 115.0 208.5 110.5Q193.0 106.0 188.0 105.5Q179.0 104.0 162.75 106.25Q146.5 108.5 130.75 113.0Q115.0 117.5 107.0 123.0Q97.5 130.0 94.5 128.0Q94.0 127.0 100.25 114.0Q106.5 101.0 116.0 84.0Q126.0 67.0 133.75 51.5Q141.5 36.0 142.5 31.5Q145.0 19.5 149.0 19.5Q153.0 19.5 157.5 30.5Q159.0 34.5 169.75 47.25Q180.5 60.0 194.0 73.5L227.0 105.5L301.5 131.0Q322.0 137.5 339.5 143.5Q357.0 149.5 368.0 153.25Q379.0 157.0 380.0 157.5Q382.5 157.5 394.25 150.5Q406.0 143.5 420.0 133.5Q434.0 123.0 444.75 116.25Q455.5 109.5 457.5 109.5Q458.0 110.5 452.5 117.75Q447.0 125.0 438.0 135.0Q416.0 159.0 405.25 175.25Q394.5 191.5 397.5 198.5Q400.0 205.5 403.5 205.5Q406.0 205.5 405.0 213.0Q402.5 221.5 417.0 228.5Q422.5 232.0 432.75 240.25Q443.0 248.5 451.5 256.5L472.5 276.0L469.5 207.5Q467.5 159.0 464.5 127.0Q461.5 95.0 457.5 74.5Q453.5 54.0 447.5 40.5Q443.0 31.5 440.0 23.0Q437.0 14.5 437.0 12.0Q437.0 10.0 439.0 10.0Q442.5 10.0 452.0 16.5Q460.0 21.5 467.0 24.25Q474.0 27.0 484.0 27.0Q494.0 27.0 508.75 24.25Q523.5 21.5 546.5 16.5Q549.5 15.5 551.75 15.5Q554.0 15.5 555.5 15.5Q562.0 15.5 559.0 19.0Q556.0 22.5 543.5 27.5Q533.5 32.0 528.0 38.25Q522.5 44.5 514.5 61.5Q503.0 86.5 496.0 112.0Q489.0 137.5 485.5 170.0Q482.0 202.5 480.5 249.0Q480.5 272.0 479.5 291.25Q478.5 310.5 477.25 321.75Q476.0 333.0 474.5 333.0Q473.5 333.0 472.25 324.5Q471.0 316.0 471.0 304.5Q471.0 293.5 470.25 286.25Q469.5 279.0 468.0 279.0Q468.0 279.0 468.0 279.0Q468.0 279.0 467.5 279.0Q465.5 279.0 459.25 274.5Q453.0 270.0 445.5 263.0Q437.5 256.0 424.75 245.5Q412.0 235.0 402.0 228.5L378.0 213.0L317.0 238.5Q300.5 245.5 284.25 252.25Q268.0 259.0 255.5 264.25Q243.0 269.5 237.5 272.0Q225.5 276.0 206.75 288.0Q188.0 300.0 168.5 315.5Q149.0 331.0 133.5 345.5Q124.0 355.0 117.0 360.75Q110.0 366.5 108.5 366.5Q108.0 366.0 107.0 352.75Q106.0 339.5 105.0 321.0Q104.0 294.0 104.75 286.25Q105.5 278.5 109.5 279.5Q115.5 282.0 112.75 277.25Q110.0 272.5 100.75 262.75Q91.5 253.0 78.0 242.0Q64.5 231.5 53.0 224.5Q41.5 217.5 34.5 216.0Q10.0 212.0 10.0 208.75Q10.0 205.5 34.5 195.5Z" fill="black" /></svg>