<svg xmlns="http://www.w3.org/2000/svg" width="1064.5" height="467.0" viewBox="0 0 1064.5 467.0"><path d="M58.0 305.0Q63.5 295.5 61.5 293.75Q59.5 292.0 49.0 293.0Q38.0 295.0 37.25 298.0Q36.5 301.0 44.5 309.0Q48.5 313.0 50.5 313.0Q53.5 313.0 58.0 305.0ZM94.0 335.0Q94.0 331.5 88.5 331.5Q85.0 331.5 81.25 332.75Q77.5 334.0 73.5 336.0Q67.5 341.5 70.5 352.5L74.0 365.0L84.5 352.5Q88.5 347.0 91.25 342.0Q94.0 337.0 94.0 335.0ZM153.5 280.0 142.5 269.0Q132.5 259.5 127.0 259.5Q121.0 259.5 104.5 272.5Q84.5 288.0 73.25 302.5Q62.0 317.0 67.0 322.5Q69.0 324.5 74.5 324.5Q82.5 324.5 95.0 320.25Q107.5 316.0 119.5 309.25Q131.5 302.5 138.5 295.0ZM146.5 211.0Q138.5 211.0 131.25 208.75Q124.0 206.5 121.5 204.0Q116.5 200.0 116.0 201.25Q115.5 202.5 117.5 211.0Q121.5 223.5 144.25 252.75Q167.0 282.0 201.0 319.0L235.0 355.0L246.0 333.0Q256.0 312.5 256.5 300.5Q257.0 288.5 248.0 282.0Q241.5 276.5 241.25 274.25Q241.0 272.0 247.5 267.5Q253.5 262.0 252.5 258.5Q251.5 255.0 239.0 243.5Q230.0 235.0 214.0 227.5Q198.0 220.0 180.0 215.5Q162.0 211.0 146.5 211.0ZM267.5 271.5Q267.5 269.0 264.0 269.0Q262.0 269.0 262.0 271.5Q262.0 273.5 264.0 273.5Q267.5 273.5 267.5 271.5ZM81.0 138.5Q79.5 132.5 78.25 128.25Q77.0 124.0 76.0 124.0Q74.5 124.0 68.75 126.5Q63.0 129.0 57.75 132.25Q52.5 135.5 52.5 137.0Q52.5 139.0 58.25 142.0Q64.0 145.0 70.5 147.5Q77.0 150.0 79.5 150.0Q82.5 150.0 81.0 138.5ZM113.5 236.5Q113.5 233.0 111.75 224.5Q110.0 216.0 107.5 206.5Q105.0 197.0 102.0 189.75Q99.0 182.5 96.0 181.5Q94.0 180.5 86.25 184.25Q78.5 188.0 69.25 193.5Q60.0 199.0 53.5 204.25Q47.0 209.5 47.0 211.5Q47.0 213.5 50.0 215.0Q53.0 216.5 56.5 216.5Q60.5 216.5 70.0 219.5Q79.5 222.5 89.0 226.5Q98.5 231.5 105.75 234.0Q113.0 236.5 113.5 236.5ZM362.0 206.0Q358.5 203.5 355.5 202.25Q352.5 201.0 350.0 201.0Q343.5 201.0 334.5 216.5L325.5 231.5H340.5Q349.5 231.5 356.5 226.75Q363.5 222.0 365.5 215.75Q367.5 209.5 362.0 206.0ZM393.0 222.0Q393.0 218.0 389.75 216.25Q386.5 214.5 382.5 214.5Q376.0 214.5 374.5 219.0Q373.0 222.5 372.75 225.5Q372.5 228.5 373.0 230.0Q375.0 231.5 379.75 230.25Q384.5 229.0 388.75 226.5Q393.0 224.0 393.0 222.0ZM436.0 231.5Q433.5 231.5 430.0 230.75Q426.5 230.0 423.5 229.5Q416.0 226.5 412.0 231.0Q411.0 233.0 414.75 235.25Q418.5 237.5 425.0 238.5Q440.0 241.0 440.0 236.5Q440.0 231.5 436.0 231.5ZM467.0 255.0 441.5 251.0Q432.5 250.0 426.25 249.25Q420.0 248.5 416.0 248.5Q406.5 248.5 405.25 254.25Q404.0 260.0 404.0 276.5Q404.0 292.5 405.5 299.25Q407.0 306.0 414.75 308.25Q422.5 310.5 441.5 313.0L467.0 316.0ZM450.5 195.5Q442.5 195.5 434.25 194.5Q426.0 193.5 421.0 192.0Q419.0 191.5 417.25 191.25Q415.5 191.0 414.5 191.0Q411.0 191.0 409.75 193.5Q408.5 196.0 408.5 203.0Q408.5 209.5 411.0 212.5Q413.5 215.5 420.0 215.5Q424.5 215.5 431.25 214.0Q438.0 212.5 447.5 210.0Q465.0 205.5 465.75 200.5Q466.5 195.5 450.5 195.5ZM467.0 224.5Q467.0 220.5 464.25 218.5Q461.5 216.5 458.0 216.5Q451.5 216.5 448.5 222.0Q447.5 223.5 447.25 225.0Q447.0 226.5 447.5 226.5Q450.0 226.5 458.5 230.0Q467.0 232.5 467.0 224.5ZM133.5 97.5Q130.5 86.0 126.5 86.0Q122.5 86.0 113.5 93.5Q104.5 99.5 105.75 101.5Q107.0 103.5 122.5 110.5Q134.0 115.5 135.25 113.25Q136.5 111.0 133.5 97.5ZM178.5 169.5Q178.5 167.0 172.0 160.5Q165.5 154.0 155.25 145.75Q145.0 137.5 133.5 129.75Q122.0 122.0 112.5 117.0Q103.0 112.0 97.5 112.0Q95.0 112.0 91.5 117.0Q90.0 120.0 91.0 128.75Q92.0 137.5 94.25 146.0Q96.5 154.5 99.5 157.0Q102.0 157.5 106.0 156.75Q110.0 156.0 112.5 153.5Q117.5 149.5 119.0 149.5Q121.5 149.5 121.75 154.5Q122.0 159.5 121.0 172.0Q119.5 197.0 134.0 197.0Q138.0 197.0 145.25 193.75Q152.5 190.5 160.0 185.75Q167.5 181.0 173.0 176.5Q178.5 172.0 178.5 169.5ZM213.5 214.0V164.0Q211.5 164.0 204.0 168.75Q196.5 173.5 188.25 180.0Q180.0 186.5 174.0 192.0Q168.0 197.5 168.5 198.5Q169.5 200.5 175.75 203.5Q182.0 206.5 191.0 208.0ZM393.0 197.5Q393.0 195.0 391.5 192.5Q390.0 190.0 387.5 190.0Q385.5 190.0 384.0 192.5Q382.5 195.0 382.5 197.5Q382.5 206.0 387.5 206.0Q393.0 206.0 393.0 197.5ZM491.0 199.0Q493.5 195.5 487.5 195.5Q484.5 195.5 483.25 196.5Q482.0 197.5 483.5 199.0Q488.5 200.5 491.0 199.0ZM615.5 282.5Q582.0 275.5 553.0 270.25Q524.0 265.0 505.75 261.75Q487.5 258.5 485.0 258.5Q480.0 258.5 478.75 263.75Q477.5 269.0 477.5 286.5Q477.5 299.5 478.25 305.75Q479.0 312.0 482.25 314.25Q485.5 316.5 493.5 318.5Q499.0 319.5 514.5 320.25Q530.0 321.0 552.25 321.25Q574.5 321.5 599.0 321.5Q626.0 321.5 652.75 321.25Q679.5 321.0 702.0 320.25Q724.5 319.5 738.5 318.5Q752.5 317.5 753.0 316.0Q754.0 314.0 753.25 312.75Q752.5 311.5 746.25 309.5Q740.0 307.5 725.25 304.5Q710.5 301.5 684.0 296.0Q657.5 290.5 615.5 282.5ZM855.0 276.5Q854.5 274.0 849.25 266.75Q844.0 259.5 837.0 251.5L819.5 231.5L806.0 246.5Q800.0 253.0 795.75 258.0Q791.5 263.0 791.5 264.0Q791.5 266.0 798.25 267.5Q805.0 269.0 814.5 270.0Q823.0 271.0 832.25 273.0Q841.5 275.0 846.0 276.5Q849.5 278.5 852.25 278.25Q855.0 278.0 855.0 276.5ZM173.5 61.5Q173.5 49.0 168.0 49.0Q164.0 49.0 157.0 57.5Q149.5 65.0 157.5 70.0Q164.5 74.5 168.0 74.5Q173.5 74.5 173.5 61.5ZM342.0 81.0Q325.0 75.5 312.0 72.75Q299.0 70.0 298.5 70.0Q298.0 70.0 293.75 76.0Q289.5 82.0 284.0 90.5L273.0 113.5L300.5 110.0Q311.5 108.5 327.75 107.25Q344.0 106.0 355.0 106.0Q387.5 106.0 383.25 98.25Q379.0 90.5 342.0 81.0ZM412.0 127.5Q416.0 117.0 407.0 117.0Q402.5 117.0 400.25 124.25Q398.0 131.5 398.75 139.5Q399.5 147.5 404.0 150.5Q408.5 152.5 408.5 146.5Q408.5 144.0 409.75 138.5Q411.0 133.0 412.0 127.5ZM419.5 101.0Q419.5 98.5 415.25 97.0Q411.0 95.5 405.5 95.5Q400.5 95.5 397.75 97.0Q395.0 98.5 396.0 101.0Q397.5 102.5 401.5 104.25Q405.5 106.0 409.0 106.0Q413.5 106.0 416.5 104.25Q419.5 102.5 419.5 101.0ZM461.5 147.5Q460.0 134.0 458.75 128.25Q457.5 122.5 453.75 120.5Q450.0 118.5 441.5 117.5Q434.5 116.5 430.75 117.5Q427.0 118.5 424.75 124.25Q422.5 130.0 419.5 143.0Q413.0 169.0 417.0 177.0Q421.0 185.0 440.0 185.0Q448.5 185.0 455.25 183.5Q462.0 182.0 463.0 180.0Q463.5 179.0 463.25 169.5Q463.0 160.0 461.5 147.5ZM483.5 133.5Q483.5 120.5 478.0 117.5Q474.5 117.5 473.25 122.25Q472.0 127.0 472.0 138.5Q472.0 154.5 475.5 154.5Q480.5 154.5 483.5 133.5ZM682.0 133.5Q642.5 130.0 606.75 127.0Q571.0 124.0 547.25 122.0Q523.5 120.0 518.0 119.5Q510.0 118.5 505.5 119.0Q501.0 119.5 498.25 123.75Q495.5 128.0 492.5 139.25Q489.5 150.5 484.5 171.5L481.5 186.5L552.0 183.0Q571.0 182.0 600.25 179.5Q629.5 177.0 662.0 173.25Q694.5 169.5 722.5 166.0Q762.0 160.5 785.25 158.25Q808.5 156.0 819.0 156.0Q833.0 156.0 827.5 160.5Q827.5 161.5 807.5 164.5Q787.5 167.5 754.5 172.25Q721.5 177.0 682.0 182.5Q628.0 189.5 591.5 194.5Q555.0 199.5 532.75 203.25Q510.5 207.0 499.25 210.0Q488.0 213.0 484.0 216.5Q480.0 220.0 480.0 224.0Q480.0 230.5 487.25 235.0Q494.5 239.5 516.0 246.5Q526.0 249.5 546.25 254.75Q566.5 260.0 592.75 266.0Q619.0 272.0 646.25 278.0Q673.5 284.0 697.75 289.0Q722.0 294.0 739.0 297.0Q756.0 300.0 760.5 300.0Q769.0 300.0 770.75 292.75Q772.5 285.5 764.5 282.5Q761.5 282.0 767.25 274.0Q773.0 266.0 785.5 253.5Q800.5 239.5 806.5 231.0Q812.5 222.5 810.5 217.5Q809.5 212.5 814.25 204.75Q819.0 197.0 831.0 185.0Q872.0 144.0 840.0 144.0Q836.5 144.5 813.75 143.0Q791.0 141.5 756.25 139.0Q721.5 136.5 682.0 133.5ZM496.0 99.0Q497.5 98.0 495.75 96.75Q494.0 95.5 490.0 95.5Q485.0 95.5 484.0 97.0Q483.0 98.5 487.0 99.5Q489.5 100.5 492.25 100.5Q495.0 100.5 496.0 99.0ZM899.5 210.0Q900.0 209.5 894.75 202.75Q889.5 196.0 882.0 186.5L862.0 166.0L849.5 180.0Q845.0 187.0 842.0 192.0Q839.0 197.0 839.5 197.5Q841.0 198.0 849.5 200.0Q858.0 202.0 869.0 204.25Q880.0 206.5 888.75 208.25Q897.5 210.0 899.5 210.0ZM923.0 139.5Q922.5 137.5 917.5 130.5Q912.5 123.5 905.5 115.5L888.5 98.0L859.5 131.5L883.5 135.0Q894.5 136.5 903.75 138.25Q913.0 140.0 915.5 141.5Q923.0 144.5 923.0 139.5ZM112.5 402.0Q118.0 393.5 119.25 390.25Q120.5 387.0 115.5 387.0Q113.0 387.0 106.0 388.5Q88.0 392.0 99.0 409.0Q101.5 412.5 102.5 412.5Q105.0 412.5 112.5 402.0ZM295.0 300.5Q282.0 290.5 277.0 290.5Q272.0 290.5 269.5 299.0Q268.5 302.5 265.0 311.0Q261.5 319.5 259.0 329.0Q255.0 339.0 254.0 342.75Q253.0 346.5 256.0 346.5Q258.5 346.5 263.5 345.0Q268.5 344.0 289.75 340.25Q311.0 336.5 336.5 333.0Q362.5 330.0 379.5 326.25Q396.5 322.5 396.0 320.5Q395.0 319.0 386.25 316.5Q377.5 314.0 365.5 312.0Q353.5 310.0 341.5 308.5Q329.5 307.0 322.0 307.0Q316.5 307.0 314.5 308.0Q312.5 309.5 306.5 307.0Q300.5 304.5 295.0 300.5ZM412.0 325.0Q415.0 322.0 408.5 322.0Q404.0 322.0 405.0 325.0Q409.5 326.5 412.0 325.0ZM805.5 331.5Q789.5 315.5 776.0 315.5Q765.5 315.5 765.5 326.0Q765.5 331.0 770.75 334.5Q776.0 338.0 789.0 342.0Q808.0 346.5 813.0 346.5Q817.5 346.5 815.0 343.0Q812.5 339.5 805.5 331.5ZM172.0 26.5Q186.5 14.0 193.0 12.0Q199.5 10.0 195.5 20.0Q194.5 22.0 192.5 24.5Q190.5 27.0 188.0 27.0Q185.5 27.0 184.5 36.25Q183.5 45.5 184.75 57.5Q186.0 69.5 189.5 78.0Q191.0 84.0 198.5 94.5Q206.0 105.0 214.0 112.0Q232.5 132.0 224.5 132.0Q222.0 132.0 213.5 126.0Q205.0 120.0 197.0 110.5Q188.0 102.0 177.75 93.5Q167.5 85.0 161.5 82.5Q152.5 77.0 148.5 77.0Q145.0 77.0 143.0 82.5Q141.0 88.0 144.0 99.25Q147.0 110.5 153.5 123.25Q160.0 136.0 168.5 146.0Q176.5 154.5 181.5 158.75Q186.5 163.0 191.5 163.0Q195.5 163.0 199.5 160.5Q203.5 158.0 209.5 153.5Q225.5 141.0 229.5 143.5Q233.5 146.0 227.5 165.0Q224.0 174.0 222.75 183.75Q221.5 193.5 222.5 199.0Q224.0 204.0 235.0 218.25Q246.0 232.5 260.0 247.5Q273.5 262.0 284.5 271.5Q295.5 281.0 306.75 286.75Q318.0 292.5 332.75 296.0Q347.5 299.5 368.5 302.5L393.0 306.0V274.5Q393.0 254.0 391.25 248.25Q389.5 242.5 384.0 242.5Q380.0 242.5 374.0 245.0Q368.0 247.5 364.0 250.0Q354.5 257.5 350.0 257.5Q346.0 257.5 346.0 250.0Q346.0 244.5 341.75 243.5Q337.5 242.5 322.5 243.5Q318.0 244.5 313.75 245.0Q309.5 245.5 306.5 245.5Q299.0 245.5 299.0 243.5Q299.0 241.0 303.5 235.75Q308.0 230.5 314.5 224.0Q326.0 213.0 329.25 201.5Q332.5 190.0 325.5 190.0Q320.0 190.0 320.0 182.5Q320.0 174.5 325.5 174.5Q332.0 174.5 344.0 185.0Q357.5 195.5 363.5 195.5Q368.5 195.5 362.0 187.5Q356.5 181.0 358.25 176.25Q360.0 171.5 366.0 171.5Q371.0 171.5 376.5 175.0Q383.0 179.0 386.5 179.0Q391.0 179.0 392.0 171.5Q393.0 164.0 390.5 146.0L387.0 117.0H351.5Q334.0 117.0 315.5 118.75Q297.0 120.5 281.0 123.25Q265.0 126.0 255.5 130.0Q252.5 131.5 250.0 131.5Q244.5 131.5 248.0 123.0Q251.5 114.5 264.0 101.0Q280.0 83.5 282.25 75.75Q284.5 68.0 274.5 61.0Q268.5 57.5 268.0 54.75Q267.5 52.0 271.5 47.0Q275.0 43.5 277.5 43.5Q279.5 43.5 284.0 48.5Q287.0 52.0 301.0 57.5Q315.0 63.0 331.5 68.5Q347.0 72.0 355.5 74.25Q364.0 76.5 367.5 76.5Q371.5 76.5 372.0 74.25Q372.5 72.0 372.5 68.5Q372.5 61.5 374.5 61.5Q375.5 61.5 388.5 71.5Q397.0 78.5 403.25 81.75Q409.5 85.0 417.0 85.0Q421.0 85.0 425.25 84.25Q429.5 83.5 434.5 82.5Q445.5 77.5 445.5 68.5Q445.5 61.0 447.5 61.0Q449.5 61.0 458.5 71.5Q465.0 78.5 469.5 81.25Q474.0 84.0 482.0 84.0Q488.5 84.0 501.0 82.5Q511.5 81.0 518.0 81.0Q530.0 81.0 530.0 84.5Q530.0 86.5 526.5 88.75Q523.0 91.0 518.0 92.5Q490.5 99.0 551.25 108.25Q612.0 117.5 749.5 127.5L838.5 134.0L859.5 114.0Q868.0 105.5 874.75 96.75Q881.5 88.0 882.0 83.0Q883.0 79.0 885.75 75.0Q888.5 71.0 892.0 70.5Q897.5 70.0 899.25 71.0Q901.0 72.0 898.5 77.5Q895.5 85.5 903.25 98.5Q911.0 111.5 927.25 126.75Q943.5 142.0 965.75 157.25Q988.0 172.5 1014.0 186.0Q1030.0 194.0 1042.25 201.25Q1054.5 208.5 1054.5 211.0Q1054.5 215.0 1053.0 215.0Q1050.0 215.0 1038.25 209.0Q1026.5 203.0 995.5 187.5Q956.0 167.5 925.5 156.0Q895.0 144.5 882.0 144.5Q877.0 144.5 875.0 146.5Q870.0 151.5 878.25 164.75Q886.5 178.0 903.75 194.25Q921.0 210.5 943.25 226.5Q965.5 242.5 988.0 253.5Q1012.0 265.0 1021.75 270.5Q1031.5 276.0 1032.75 278.25Q1034.0 280.5 1031.5 282.5Q1029.0 282.5 1012.75 276.0Q996.5 269.5 976.0 259.0Q930.5 235.5 895.75 223.25Q861.0 211.0 843.5 211.0Q829.0 211.0 829.0 220.0Q829.0 226.5 840.25 239.75Q851.5 253.0 869.25 268.5Q887.0 284.0 906.5 298.0Q926.0 312.0 943.0 320.5Q960.5 329.5 972.75 337.5Q985.0 345.5 985.0 347.0Q985.0 350.0 969.0 343.0Q953.0 336.0 929.5 324.0Q839.0 280.0 805.5 280.0Q791.0 280.0 787.0 289.0Q785.5 294.0 796.5 306.5Q807.5 319.0 825.5 334.75Q843.5 350.5 864.0 365.0Q884.5 379.5 902.0 388.5Q927.0 401.5 937.25 407.25Q947.5 413.0 949.0 414.75Q950.5 416.5 948.5 418.5Q945.0 418.5 927.5 411.0Q910.0 403.5 887.5 392.5Q836.0 366.5 802.75 356.25Q769.5 346.0 746.0 348.5Q735.5 350.0 731.0 350.0Q726.5 350.0 725.75 348.25Q725.0 346.5 726.0 342.0Q727.5 338.0 725.75 335.75Q724.0 333.5 711.75 332.5Q699.5 331.5 669.5 331.5Q650.0 331.5 621.25 331.75Q592.5 332.0 552.5 333.0Q461.0 334.5 405.5 337.25Q350.0 340.0 324.0 344.0Q286.0 350.5 266.25 357.0Q246.5 363.5 246.5 369.0Q246.5 371.0 244.0 372.25Q241.5 373.5 238.0 373.5Q234.0 373.5 230.0 371.75Q226.0 370.0 226.0 367.0Q225.0 364.5 215.25 351.75Q205.5 339.0 191.5 324.0L159.0 289.0L124.5 322.5Q97.5 349.0 90.75 363.75Q84.0 378.5 99.5 378.5Q112.0 378.5 131.25 369.5Q150.5 360.5 167.5 347.0Q176.0 341.0 183.0 336.25Q190.0 331.5 191.0 331.5Q198.0 331.5 191.25 340.0Q184.5 348.5 165.0 363.5Q140.5 382.0 125.25 404.5Q110.0 427.0 110.0 443.5Q110.0 457.0 106.5 457.0Q102.0 457.0 95.0 435.0Q93.0 425.0 89.0 416.25Q85.0 407.5 82.5 404.0Q79.0 401.0 75.0 392.75Q71.0 384.5 68.5 376.0Q64.5 363.5 60.25 355.5Q56.0 347.5 54.0 347.5Q52.5 347.5 52.5 351.5Q52.5 358.5 50.0 358.5Q47.5 358.5 43.0 350.5Q38.5 342.5 34.0 329.0Q31.0 317.0 26.25 306.5Q21.5 296.0 18.0 292.5Q15.0 290.0 12.5 285.25Q10.0 280.5 10.0 276.5Q10.0 269.5 11.5 269.5Q13.0 269.5 21.0 276.5Q29.5 284.0 40.0 284.0Q45.0 284.0 52.5 282.5Q63.0 280.5 76.5 274.75Q90.0 269.0 100.0 262.25Q110.0 255.5 110.0 251.5Q110.0 247.5 93.5 239.5Q77.0 231.5 52.0 224.5Q38.5 221.0 29.75 217.25Q21.0 213.5 21.0 211.5Q21.0 210.5 29.5 204.75Q38.0 199.0 50.5 193.5Q63.0 186.5 72.5 180.0Q82.0 173.5 82.5 171.5Q83.5 168.0 78.0 163.75Q72.5 159.5 63.75 156.0Q55.0 152.5 45.75 150.75Q36.5 149.0 30.5 150.5Q24.0 152.0 20.5 152.0Q12.5 152.0 18.25 146.0Q24.0 140.0 41.5 130.5Q53.0 124.5 60.75 119.0Q68.5 113.5 68.5 111.5Q68.5 109.5 74.75 104.75Q81.0 100.0 90.0 95.5Q110.5 83.5 108.5 77.5Q106.5 73.5 112.25 68.0Q118.0 62.5 130.0 56.5Q140.0 50.5 152.5 41.5Q165.0 32.5 172.0 26.5Z" fill="black" /></svg>