<svg xmlns="http://www.w3.org/2000/svg" width="738.5" height="378.5" viewBox="0 0 738.5 378.5"><path d="M61.5 225.5 50.0 218.5Q37.5 211.5 32.0 211.5Q24.0 211.5 24.0 221.5Q24.0 231.5 33.5 231.5Q39.0 231.5 50.0 228.5ZM56.0 281.0Q45.0 274.0 37.0 274.0Q29.5 274.0 29.5 284.0Q29.5 290.5 31.75 292.0Q34.0 293.5 41.5 292.5Q52.5 288.5 60.5 288.5Q64.0 288.5 62.75 286.5Q61.5 284.5 56.0 281.0ZM293.5 314.5Q286.0 314.5 271.0 312.5Q256.0 310.5 242.0 307.5Q230.0 305.0 221.5 303.75Q213.0 302.5 207.0 302.5Q196.5 302.5 193.25 306.75Q190.0 311.0 190.0 321.0Q190.0 332.0 192.75 333.75Q195.5 335.5 207.0 334.0Q214.0 332.0 231.25 329.5Q248.5 327.0 265.0 325.0Q299.0 320.5 306.5 317.5Q314.0 314.5 293.5 314.5ZM50.5 170.5 63.5 166.5 47.5 157.5Q42.0 155.0 38.75 153.5Q35.5 152.0 33.5 152.0Q30.0 152.0 28.0 162.0Q27.0 168.5 27.75 171.25Q28.5 174.0 33.0 174.0Q35.5 174.0 39.75 173.0Q44.0 172.0 50.5 170.5ZM63.5 102.5Q64.5 101.0 60.5 98.5Q56.5 96.0 50.0 94.0Q46.0 92.5 43.25 91.5Q40.5 90.5 38.5 90.5Q35.0 90.5 35.0 99.0Q35.0 109.5 41.0 109.5Q42.5 109.5 44.5 109.25Q46.5 109.0 48.5 108.5Q59.5 107.5 63.5 102.5ZM188.5 114.5Q186.0 112.0 167.5 111.0Q149.0 110.0 127.5 110.0Q112.5 110.0 98.25 110.5Q84.0 111.0 75.5 112.5Q56.5 116.0 43.0 122.0Q29.5 128.0 29.5 133.5Q29.5 135.0 37.25 139.5Q45.0 144.0 55.0 148.5Q66.5 153.5 81.25 156.5Q96.0 159.5 118.0 161.0Q140.0 162.5 173.5 163.5Q180.5 164.0 185.0 165.5Q189.5 167.0 188.0 169.0Q187.0 170.5 169.75 172.0Q152.5 173.5 130.0 173.5Q100.5 173.5 77.25 176.0Q54.0 178.5 41.5 182.5Q29.0 186.5 31.0 192.0Q35.0 203.5 61.25 211.25Q87.5 219.0 130.0 220.0Q152.5 221.0 168.75 223.0Q185.0 225.0 185.0 227.0Q185.0 229.0 169.5 230.5Q154.0 232.0 132.0 232.0Q89.5 232.5 61.75 238.0Q34.0 243.5 31.0 251.0Q30.0 254.0 36.75 259.0Q43.5 264.0 54.5 269.0Q64.0 273.5 74.5 276.25Q85.0 279.0 99.75 280.25Q114.5 281.5 137.5 282.5L197.0 285.0L194.5 201.5Q194.5 178.5 193.5 159.25Q192.5 140.0 191.25 127.75Q190.0 115.5 188.5 114.5ZM204.5 121.5Q205.5 120.5 205.5 118.0Q205.5 115.5 204.5 114.5Q202.5 113.0 201.5 114.0Q200.5 115.0 200.5 117.5Q200.5 124.0 204.5 121.5ZM340.0 196.0Q324.5 192.5 309.75 188.75Q295.0 185.0 290.5 183.0Q286.0 181.5 283.5 181.5Q280.0 181.5 279.25 184.0Q278.5 186.5 278.5 193.0Q278.5 205.5 280.5 211.0Q282.5 216.5 291.0 216.5Q295.0 216.5 301.25 215.5Q307.5 214.5 316.0 212.5Q329.0 210.0 343.0 207.75Q357.0 205.5 363.5 205.0Q371.0 205.0 364.75 202.5Q358.5 200.0 340.0 196.0ZM650.5 83.5 561.0 80.5Q530.5 79.5 500.25 78.75Q470.0 78.0 442.0 78.0Q391.0 78.0 348.25 80.0Q305.5 82.0 276.75 85.25Q248.0 88.5 237.5 93.5Q229.5 97.0 225.0 105.0Q220.5 113.0 215.0 132.0Q212.0 144.0 209.75 163.5Q207.5 183.0 206.0 204.5Q204.5 226.0 204.25 245.5Q204.0 265.0 205.25 277.75Q206.5 290.5 209.0 291.5Q212.0 292.0 232.0 295.25Q252.0 298.5 277.0 302.5Q295.5 305.5 314.0 307.25Q332.5 309.0 356.25 309.75Q380.0 310.5 413.5 310.75Q447.0 311.0 495.5 310.5Q539.0 309.5 574.75 309.25Q610.5 309.0 631.75 308.5Q653.0 308.0 653.0 307.5Q654.0 307.0 655.0 293.0Q656.0 279.0 657.0 260.0L658.5 213.5L549.5 212.0Q508.5 211.5 468.75 212.25Q429.0 213.0 394.5 215.25Q360.0 217.5 334.75 220.5Q309.5 223.5 298.0 227.5Q291.5 229.5 284.25 234.0Q277.0 238.5 274.5 241.0Q269.5 246.5 267.0 246.5Q264.0 246.5 264.25 240.5Q264.5 234.5 268.0 224.5Q272.0 214.0 272.0 206.25Q272.0 198.5 268.5 187.5Q266.5 179.0 265.25 172.75Q264.0 166.5 265.0 166.0Q265.0 166.0 265.25 166.0Q265.5 166.0 265.5 166.0Q268.0 166.0 277.0 168.25Q286.0 170.5 297.0 174.0Q336.0 187.5 400.25 194.0Q464.5 200.5 553.0 200.5H661.5L658.5 175.5Q657.5 165.5 655.75 148.5Q654.0 131.5 653.0 117.5ZM210.5 81.5Q210.5 71.5 200.0 71.5Q193.5 71.5 192.25 73.75Q191.0 76.0 193.0 83.0Q197.0 97.0 200.5 97.0Q201.5 97.0 202.5 96.25Q203.5 95.5 205.0 95.0Q207.5 94.0 209.0 90.0Q210.5 86.0 210.5 81.5ZM226.5 74.0Q226.5 71.5 224.0 71.5Q221.0 71.5 221.0 74.0Q221.0 77.0 224.0 77.0Q226.5 77.0 226.5 74.0ZM327.5 68.5 283.5 59.5Q265.0 55.5 248.75 52.0Q232.5 48.5 227.0 47.5Q220.5 45.5 218.75 46.5Q217.0 47.5 219.0 53.0Q222.0 60.0 234.5 58.0Q244.5 55.5 246.5 59.25Q248.5 63.0 240.5 70.0Q235.5 76.5 237.5 78.5Q237.5 78.5 237.75 78.5Q238.0 78.5 238.5 78.5Q242.0 78.5 254.5 77.25Q267.0 76.0 283.5 74.0ZM699.5 39.0Q702.0 33.0 698.0 31.5Q694.0 30.0 674.0 30.0Q655.0 30.0 650.75 31.5Q646.5 33.0 648.5 39.0Q650.0 43.0 652.0 54.5Q654.0 66.0 657.0 79.0Q663.0 117.0 667.0 117.0Q670.5 117.0 681.0 87.5Q688.0 71.0 693.0 57.0Q698.0 43.0 699.5 39.0ZM619.0 10.5Q619.0 10.0 622.75 10.5Q626.5 11.0 632.0 13.0Q636.5 14.5 652.25 15.75Q668.0 17.0 686.0 16.5Q703.5 16.5 716.0 17.5Q728.5 18.5 728.5 19.5Q728.5 21.5 725.5 25.25Q722.5 29.0 718.0 33.0Q708.0 42.0 696.75 72.0Q685.5 102.0 675.5 144.0Q670.5 167.5 668.25 194.5Q666.0 221.5 666.0 263.0Q666.0 284.0 665.5 303.75Q665.0 323.5 664.25 337.5Q663.5 351.5 662.0 356.5Q660.0 368.5 659.0 368.5Q657.5 368.5 655.5 347.5L653.0 322.5L519.0 323.5Q365.5 324.5 280.0 333.75Q194.5 343.0 182.0 360.5Q179.5 363.0 178.5 363.0Q177.0 363.0 176.5 356.25Q176.0 349.5 176.0 333.0L177.5 296.5H114.0Q86.0 296.5 71.75 297.0Q57.5 297.5 50.25 300.0Q43.0 302.5 35.5 308.5Q29.0 313.0 23.75 316.25Q18.5 319.5 17.5 319.5Q17.0 319.5 17.0 311.25Q17.0 303.0 18.0 291.0Q19.0 277.5 18.5 268.5Q18.0 259.5 15.0 258.0Q11.5 256.0 11.25 250.75Q11.0 245.5 14.5 235.0Q19.5 215.0 15.0 203.5Q10.0 193.0 15.0 181.0Q17.0 175.5 18.0 165.5Q19.0 155.5 19.0 146.5Q19.0 138.0 20.0 123.25Q21.0 108.5 22.0 96.5L25.5 67.0L48.5 80.5Q58.5 86.0 72.75 90.25Q87.0 94.5 99.5 95.5Q111.0 96.0 128.0 97.0Q145.0 98.0 156.5 99.0Q175.0 100.5 180.0 99.5Q185.0 98.5 185.0 92.5Q185.0 89.0 182.5 83.25Q180.0 77.5 177.5 74.0Q168.5 62.0 170.75 58.75Q173.0 55.5 189.5 56.5Q204.0 57.5 206.25 54.75Q208.5 52.0 203.0 38.5Q201.5 34.5 201.5 32.75Q201.5 31.0 205.0 31.0Q209.5 31.0 221.0 34.0Q232.5 37.0 255.0 43.0Q282.5 50.0 319.0 55.25Q355.5 60.5 404.25 63.5Q453.0 66.5 517.5 68.5Q547.0 69.0 568.5 70.0Q590.0 71.0 605.0 71.0Q630.5 71.0 638.5 68.0Q646.5 65.0 643.5 57.5Q640.5 50.0 632.5 36.0Q627.0 27.0 623.0 19.25Q619.0 11.5 619.0 10.5Z" fill="black" /></svg>