<svg xmlns="http://www.w3.org/2000/svg" width="676.0" height="465.0" viewBox="0 0 676.0 465.0"><path d="M149.5 191.0 123.5 184.0Q113.5 181.5 94.75 175.5Q76.0 169.5 60.5 164.0L22.5 151.0V221.5L49.5 214.5Q60.5 210.5 78.75 206.5Q97.0 202.5 113.0 199.0ZM299.5 279.5Q299.5 277.0 293.75 271.0Q288.0 265.0 285.0 265.0Q282.5 265.0 282.5 276.0Q282.5 284.0 284.5 286.25Q286.5 288.5 291.0 287.5Q299.5 283.0 299.5 279.5ZM405.0 293.0Q404.5 292.5 396.25 291.75Q388.0 291.0 376.75 290.25Q365.5 289.5 355.75 289.0Q346.0 288.5 342.0 288.5Q319.0 288.5 305.5 292.5Q292.0 296.5 281.0 305.5Q270.5 315.0 272.0 320.5Q273.5 326.0 289.0 336.5Q297.0 341.0 305.5 343.25Q314.0 345.5 327.0 346.25Q340.0 347.0 361.0 347.0H413.5L410.0 320.0Q408.0 309.0 406.5 301.0Q405.0 293.0 405.0 293.0ZM435.5 253.0Q435.5 245.5 417.5 245.5Q406.5 245.5 404.25 247.5Q402.0 249.5 404.5 257.5Q405.0 259.5 406.5 264.25Q408.0 269.0 410.25 273.0Q412.5 277.0 415.0 277.0Q420.5 277.0 428.0 269.0Q435.5 261.0 435.5 253.0ZM423.0 303.5Q424.0 296.5 423.0 289.0Q421.5 286.5 420.5 288.5Q419.5 290.5 419.5 296.5Q419.5 303.0 420.5 304.75Q421.5 306.5 423.0 303.5ZM207.5 38.5Q207.0 37.5 200.0 36.25Q193.0 35.0 184.0 33.0Q179.0 32.0 175.25 31.25Q171.5 30.5 169.0 30.5Q164.0 30.5 164.0 33.25Q164.0 36.0 166.0 42.5Q168.5 47.5 172.5 65.5Q176.5 83.5 180.5 104.0Q187.0 139.0 190.0 139.0Q191.5 139.0 191.5 132.5Q191.5 124.5 194.25 108.0Q197.0 91.5 200.5 76.5Q204.5 61.5 206.0 50.25Q207.5 39.0 207.5 38.5ZM247.5 99.0Q245.5 84.0 241.5 68.75Q237.5 53.5 234.5 48.0L227.0 33.0L220.5 49.5Q213.5 69.0 208.5 94.25Q203.5 119.5 202.5 149.0L200.5 185.5L227.5 188.0L254.5 189.5V162.5Q254.5 151.5 252.5 132.75Q250.5 114.0 247.5 99.0ZM287.5 38.5Q287.5 36.0 281.25 33.25Q275.0 30.5 265.0 30.0Q260.5 29.5 257.0 29.25Q253.5 29.0 251.0 29.0Q243.5 29.0 243.75 33.5Q244.0 38.0 248.5 51.5Q251.0 58.0 255.0 75.5Q259.0 93.0 262.5 110.0Q267.5 139.5 269.0 139.5Q269.5 139.5 270.5 132.5Q271.0 124.5 273.5 108.5Q276.0 92.5 279.5 78.5Q283.0 64.5 285.25 53.0Q287.5 41.5 287.5 38.5ZM643.5 44.5Q642.5 44.0 633.25 42.25Q624.0 40.5 611.5 39.0L582.5 35.0L593.5 63.0Q597.5 73.5 602.25 94.25Q607.0 115.0 610.0 132.5Q617.5 176.0 620.5 176.0Q622.0 176.0 622.0 157.0Q622.0 147.0 625.25 127.75Q628.5 108.5 633.0 90.0Q638.5 72.5 641.5 58.5Q644.5 44.5 643.5 44.5ZM244.0 407.0Q234.5 399.0 231.0 399.0Q226.0 399.0 226.0 412.5Q226.0 426.0 230.5 426.0Q232.5 426.0 235.5 424.5Q238.5 423.0 243.5 421.0Q252.0 415.5 252.25 413.75Q252.5 412.0 244.0 407.0ZM280.0 352.5Q282.0 350.0 280.5 345.25Q279.0 340.5 276.0 337.5Q269.5 332.0 268.0 332.0Q266.5 332.0 264.5 336.75Q262.5 341.5 261.0 346.75Q259.5 352.0 259.5 353.5Q259.5 358.5 267.0 358.5Q270.5 358.5 274.25 357.0Q278.0 355.5 280.0 352.5ZM211.5 16.5Q216.5 10.0 222.0 10.0Q225.0 10.0 228.5 11.5Q233.5 13.5 246.5 15.0Q259.5 16.5 273.0 17.5Q286.0 19.0 295.5 20.0Q305.0 21.0 305.0 21.0Q305.0 22.5 301.75 35.25Q298.5 48.0 294.5 64.5Q291.5 76.0 288.5 91.75Q285.5 107.5 283.25 123.0Q281.0 138.5 279.5 151.0L276.0 194.5H440.0Q492.0 194.5 524.5 194.25Q557.0 194.0 574.25 193.25Q591.5 192.5 598.0 191.0Q604.5 189.5 604.5 187.5Q604.5 183.5 602.75 168.0Q601.0 152.5 598.5 135.0Q593.5 97.0 585.5 74.25Q577.5 51.5 564.0 37.5Q559.0 32.0 556.25 27.75Q553.5 23.5 554.5 22.5Q555.5 21.5 562.0 21.5Q572.0 21.5 588.5 24.5Q600.5 26.5 616.0 28.5Q631.5 30.5 642.0 30.5H666.0L655.0 57.0Q648.5 77.0 642.0 105.5Q635.5 134.0 631.0 171.0Q628.0 186.5 629.25 190.5Q630.5 194.5 638.5 194.5Q650.0 194.5 650.0 200.5Q650.0 205.5 638.5 205.5Q632.5 205.5 628.75 216.75Q625.0 228.0 623.5 256.5Q622.0 285.0 621.0 337.5Q620.5 368.0 619.0 390.0Q617.5 412.0 615.0 412.5Q614.0 412.5 612.5 401.5Q611.0 390.5 609.75 372.25Q608.5 354.0 607.25 332.0Q606.0 310.0 605.25 287.75Q604.5 265.5 604.5 247.0V205.5H278.0L276.0 219.0Q274.5 227.0 281.25 238.0Q288.0 249.0 299.5 258.75Q311.0 268.5 323.5 273.0Q332.0 276.5 344.0 278.0Q356.0 279.5 367.0 279.5Q378.5 279.5 387.0 277.75Q395.5 276.0 395.5 272.5Q395.5 267.0 391.75 260.75Q388.0 254.5 382.75 250.0Q377.5 245.5 373.5 245.5Q371.5 245.5 369.5 243.5Q367.5 241.5 367.5 240.0Q367.5 237.5 379.5 235.75Q391.5 234.0 410.0 234.0Q427.0 234.0 439.75 235.25Q452.5 236.5 452.5 237.5Q452.5 240.5 449.75 249.0Q447.0 257.5 443.5 268.5Q433.5 294.0 430.5 373.5Q430.5 396.0 429.0 414.5Q427.5 433.0 426.0 444.0Q424.5 455.0 423.5 455.0Q421.5 455.0 419.5 451.0Q417.5 447.0 417.5 441.5Q417.5 436.0 416.25 432.75Q415.0 429.5 409.0 428.0Q403.0 426.5 388.75 426.0Q374.5 425.5 349.0 425.0Q293.0 423.5 262.25 429.0Q231.5 434.5 222.0 446.5Q217.0 454.0 214.0 454.0Q208.0 454.0 211.5 419.0Q214.0 397.0 217.0 387.5Q220.0 378.0 225.5 378.0Q230.5 378.0 242.0 388.5Q247.5 394.5 257.0 400.5Q266.5 406.5 273.0 409.0Q278.0 411.0 292.0 412.5Q306.0 414.0 324.25 414.75Q342.5 415.5 360.0 415.5Q381.0 415.5 396.75 414.25Q412.5 413.0 414.0 410.5Q415.5 409.5 415.5 400.75Q415.5 392.0 414.0 382.5L411.0 359.0H352.0Q307.0 359.0 289.0 363.0Q271.0 367.0 271.0 378.0Q271.0 387.5 258.5 384.5Q253.5 384.5 249.75 383.0Q246.0 381.5 246.0 381.0Q250.5 356.5 253.5 329.25Q256.5 302.0 258.0 278.0Q259.5 254.0 258.5 240.0L256.5 203.5L199.0 200.0L195.0 225.5Q194.5 233.5 193.5 248.75Q192.5 264.0 192.0 282.75Q191.5 301.5 191.5 319.5Q191.5 354.5 190.25 371.0Q189.0 387.5 187.0 387.5Q184.5 387.5 182.5 364.25Q180.5 341.0 180.0 297.5L178.5 209.0L159.0 207.0Q150.5 206.0 133.0 208.5Q115.5 211.0 95.25 215.0Q75.0 219.0 57.5 223.75Q40.0 228.5 31.5 232.5Q26.0 235.0 21.25 237.0Q16.5 239.0 14.5 239.0Q14.0 239.0 13.75 238.75Q13.5 238.5 13.5 238.5Q12.5 237.0 11.75 226.0Q11.0 215.0 10.5 199.25Q10.0 183.5 10.0 168.25Q10.0 153.0 10.75 142.75Q11.5 132.5 12.5 132.5Q14.5 132.5 21.75 135.5Q29.0 138.5 37.5 143.5Q46.5 148.0 61.0 153.5Q75.5 159.0 92.25 164.25Q109.0 169.5 125.25 173.75Q141.5 178.0 153.5 180.0L175.0 184.0V157.0Q175.0 142.0 172.5 123.75Q170.0 105.5 165.75 87.75Q161.5 70.0 156.5 55.75Q151.5 41.5 146.5 35.0Q141.5 28.0 138.75 22.5Q136.0 17.0 136.5 15.5Q138.0 15.0 148.0 16.25Q158.0 17.5 171.5 20.5Q190.5 24.0 198.5 24.0Q204.0 24.0 206.75 22.25Q209.5 20.5 211.5 16.5Z" fill="black" /></svg>