<svg xmlns="http://www.w3.org/2000/svg" width="393.5" height="466.0" viewBox="0 0 393.5 466.0"><path d="M190.5 364.5 200.5 360.0 190.5 358.5ZM145.0 171.0H117.0L127.0 184.5Q131.0 190.5 134.75 197.25Q138.5 204.0 139.5 208.0Q141.0 212.5 143.0 212.5Q146.0 212.5 157.5 196.0Q164.5 188.0 168.75 181.0Q173.0 174.0 173.0 173.5Q173.0 172.0 164.75 171.5Q156.5 171.0 145.0 171.0ZM188.5 214.5V218.0L195.0 215.0ZM188.5 298.5V303.0L196.0 300.5ZM188.5 244.0V248.0L196.0 245.0ZM188.5 334.5 198.5 331.0 188.5 329.5ZM197.5 274.0 190.5 272.0V277.0ZM44.5 67.5 23.0 55.0V130.0L39.0 120.0Q46.0 116.0 58.25 111.75Q70.5 107.5 81.5 104.5Q92.5 102.0 100.25 99.5Q108.0 97.0 108.0 95.5Q108.0 94.5 101.75 91.5Q95.5 88.5 87.0 85.5Q77.5 83.0 65.25 77.75Q53.0 72.5 44.5 67.5ZM191.0 190.5 200.5 189.5 191.0 186.5ZM288.0 29.5Q288.0 31.0 291.75 36.75Q295.5 42.5 301.0 49.5Q305.5 57.0 310.25 66.5Q315.0 76.0 316.0 82.0Q317.5 88.5 319.5 94.5Q321.5 100.5 322.5 102.0Q324.5 102.0 331.0 92.25Q337.5 82.5 344.75 69.0Q352.0 55.5 357.5 43.75Q363.0 32.0 363.5 28.5Q363.5 27.5 352.75 26.25Q342.0 25.0 326.0 25.0Q310.5 25.0 299.25 26.25Q288.0 27.5 288.0 29.5ZM79.0 361.0 62.5 352.0V389.0Q62.5 408.5 63.0 415.75Q63.5 423.0 66.0 423.0Q68.0 423.0 73.5 419.0Q77.5 416.5 91.75 411.75Q106.0 407.0 121.5 403.5Q136.5 399.5 146.5 395.75Q156.5 392.0 154.0 391.0Q153.0 389.5 143.75 386.0Q134.5 382.5 123.5 379.0Q112.0 375.5 99.0 370.25Q86.0 365.0 79.0 361.0ZM183.5 180.0 210.0 186.5Q213.5 187.5 224.0 187.75Q234.5 188.0 248.25 188.0Q262.0 188.0 275.0 188.25Q288.0 188.5 296.5 189.25Q305.0 190.0 305.0 191.5Q305.0 192.5 296.5 192.75Q288.0 193.0 275.0 193.0Q262.0 193.0 249.0 192.75Q236.0 192.5 226.25 192.5Q216.5 192.5 215.0 192.5L182.0 197.5Q180.0 198.0 181.5 194.25Q183.0 190.5 183.0 188.5Q183.0 187.0 182.5 185.0Q182.0 183.0 182.0 181.5L176.0 189.0L162.5 209.0L148.5 228.0L154.0 380.0L172.0 384.5Q177.0 385.5 192.5 386.0Q208.0 386.5 229.25 386.75Q250.5 387.0 273.5 386.5Q296.5 386.5 316.75 387.0Q337.0 387.5 351.25 388.25Q365.5 389.0 369.0 390.0Q375.0 392.5 352.75 394.25Q330.5 396.0 275.5 398.0Q173.0 400.0 121.5 411.5Q70.0 423.0 60.0 445.0Q56.5 456.0 52.5 456.0Q51.5 456.0 50.75 437.0Q50.0 418.0 50.0 391.0Q50.0 364.5 50.25 345.0Q50.5 325.5 51.0 325.5Q51.0 325.5 55.5 329.75Q60.0 334.0 65.5 339.5Q71.5 344.5 83.0 351.0Q94.5 357.5 106.75 363.0Q119.0 368.5 128.5 371.25Q138.0 374.0 139.5 372.0Q141.0 370.5 141.75 359.5Q142.5 348.5 142.5 331.75Q142.5 315.0 142.0 297.0Q141.5 279.0 140.25 263.0Q139.0 247.0 137.0 238.0Q131.0 211.5 122.0 196.0Q113.0 180.5 100.0 174.5Q83.5 167.0 91.5 163.75Q99.5 160.5 137.0 159.0Q156.5 158.0 173.0 157.5Q189.5 157.0 192.0 156.5Q197.5 155.5 198.0 160.0Q198.5 164.5 193.0 168.0L183.0 180.0Q183.5 180.0 183.5 180.0Q183.5 180.0 183.5 180.0ZM185.0 275.0Q185.0 271.0 183.25 267.5Q181.5 264.0 184.0 265.0L209.5 272.0Q215.0 273.5 230.5 273.75Q246.0 274.0 262.5 274.0Q279.5 274.0 292.5 274.25Q305.5 274.5 305.5 276.0Q305.5 277.0 296.75 277.5Q288.0 278.0 275.0 278.25Q262.0 278.5 249.0 278.5Q236.0 278.5 227.0 278.5Q218.0 278.5 217.5 278.5Q217.0 278.5 205.5 279.0Q194.0 279.5 183.0 283.0Q181.0 283.5 183.0 280.25Q185.0 277.0 185.0 275.0ZM183.0 353.0Q183.0 351.0 185.5 351.0Q190.0 351.0 201.75 354.75Q213.5 358.5 230.0 358.5Q249.5 358.5 267.5 359.0Q285.5 359.5 296.75 360.5Q308.0 361.5 308.0 363.0Q308.0 365.5 290.0 365.5Q272.0 365.5 244.0 365.5Q215.0 365.5 202.25 368.25Q189.5 371.0 185.5 371.0Q184.0 371.0 184.0 369.0Q185.5 363.5 184.25 360.5Q183.0 357.5 183.0 353.0ZM206.5 218.0 183.0 224.0Q181.0 224.5 182.5 222.75Q184.0 221.0 183.0 216.0Q183.0 215.0 182.0 211.5Q181.0 208.0 182.0 208.0Q188.5 208.0 194.5 209.5Q200.5 211.0 206.5 212.5Q220.5 212.5 238.0 212.5Q255.5 212.5 271.5 212.5Q287.5 212.5 297.75 213.0Q308.0 213.5 308.0 215.0Q308.0 216.0 298.5 216.25Q289.0 216.5 274.75 216.75Q260.5 217.0 245.75 217.0Q231.0 217.0 220.0 217.25Q209.0 217.5 206.5 218.0ZM207.5 249.5 184.0 254.0Q181.5 254.5 182.75 250.75Q184.0 247.0 184.0 245.0Q184.0 241.5 183.0 238.75Q182.0 236.0 184.0 237.0L208.5 243.5Q212.5 244.0 228.75 244.25Q245.0 244.5 262.5 244.5Q280.0 244.5 294.0 244.75Q308.0 245.0 308.0 246.0Q308.0 247.0 299.0 247.5Q290.0 248.0 276.25 248.25Q262.5 248.5 248.0 248.5Q233.5 248.5 222.25 248.75Q211.0 249.0 207.5 249.5ZM182.0 293.0Q182.0 292.0 183.0 292.0Q186.0 292.0 194.75 295.25Q203.5 298.5 217.5 298.5Q232.0 298.5 247.75 298.5Q263.5 298.5 277.25 298.5Q291.0 298.5 299.5 299.0Q308.0 299.5 308.0 301.0Q308.0 302.0 299.5 302.75Q291.0 303.5 277.25 303.75Q263.5 304.0 247.75 304.0Q232.0 304.0 217.5 304.0Q200.5 304.0 192.5 306.5Q184.5 309.0 182.5 309.0Q182.0 309.0 182.0 308.5Q182.0 307.5 182.75 303.25Q183.5 299.0 182.0 293.0ZM183.0 323.0Q183.0 321.5 189.25 323.0Q195.5 324.5 203.5 326.5Q211.5 328.5 217.5 328.5Q232.0 328.5 247.75 328.5Q263.5 328.5 277.25 328.75Q291.0 329.0 299.5 329.5Q308.0 330.0 308.0 331.0Q308.0 332.0 299.0 332.75Q290.0 333.5 275.75 333.75Q261.5 334.0 245.5 334.25Q229.5 334.5 215.0 334.5Q205.5 334.5 197.0 338.25Q188.5 342.0 185.5 342.0Q184.0 342.0 184.0 340.0Q185.5 332.0 184.25 327.75Q183.0 323.5 183.0 323.0ZM263.5 17.5Q263.5 13.5 269.5 13.5Q272.0 13.5 275.75 14.25Q279.5 15.0 284.5 16.0Q295.5 18.0 305.5 19.0Q315.5 20.0 325.0 20.0Q347.5 20.0 362.5 14.0Q369.5 12.0 375.25 11.0Q381.0 10.0 381.5 11.5Q383.5 12.5 379.75 22.5Q376.0 32.5 369.0 44.0Q357.0 65.5 349.5 79.5Q342.0 93.5 338.25 105.5Q334.5 117.5 333.25 133.75Q332.0 150.0 332.25 176.0Q332.5 202.0 333.5 244.0Q334.5 305.0 333.5 338.0Q332.5 371.0 330.0 371.0Q327.0 371.0 325.0 340.5Q323.0 310.0 321.5 257.0Q321.5 225.5 320.25 195.5Q319.0 165.5 317.25 143.25Q315.5 121.0 313.5 113.0Q308.5 89.0 298.0 66.75Q287.5 44.5 273.5 33.0Q269.5 29.0 266.5 24.25Q263.5 19.5 263.5 17.5ZM12.0 161.0Q11.5 161.0 10.75 142.0Q10.0 123.0 10.0 95.5Q10.0 61.5 11.5 46.25Q13.0 31.0 17.0 31.0Q20.5 31.0 26.5 40.5Q30.5 46.0 42.75 53.75Q55.0 61.5 72.0 69.0Q89.0 76.5 107.0 82.0Q123.0 87.0 146.75 88.5Q170.5 90.0 214.0 90.0Q251.0 90.0 272.25 91.5Q293.5 93.0 293.5 95.5Q293.5 97.5 274.5 98.75Q255.5 100.0 222.0 100.0Q140.5 100.0 94.25 110.5Q48.0 121.0 28.0 143.5Q22.0 150.0 17.0 155.5Q12.0 161.0 12.0 161.0Z" fill="black" /></svg>