<svg xmlns="http://www.w3.org/2000/svg" width="615.0" height="463.5" viewBox="0 0 615.0 463.5"><path d="M48.5 242.0Q45.0 236.5 40.25 232.0Q35.5 227.5 34.5 227.5Q34.0 227.5 32.75 235.5Q31.5 243.5 30.5 255.75Q29.5 268.0 28.5 280.25Q27.5 292.5 27.5 301.5Q27.5 310.5 28.0 311.5Q29.0 312.0 32.5 309.75Q36.0 307.5 39.5 304.0Q44.0 300.0 52.0 294.0Q60.0 288.0 67.0 283.5Q83.0 274.5 83.75 269.5Q84.5 264.5 72.5 260.5Q68.0 259.5 61.0 254.0Q54.0 248.5 48.5 242.0ZM144.5 282.5Q144.5 269.5 132.0 269.5Q119.0 269.5 99.0 282.5Q91.0 287.5 85.0 292.0Q79.0 296.5 79.0 298.5Q79.0 299.5 94.75 303.5Q110.5 307.5 141.0 316.0Q153.5 319.0 154.75 317.25Q156.0 315.5 152.0 307.0Q149.5 302.0 147.0 294.75Q144.5 287.5 144.5 282.5ZM157.5 249.0Q157.5 240.0 156.0 240.0Q142.0 243.5 139.0 251.0Q136.0 258.5 148.5 258.5Q152.0 258.5 154.75 255.25Q157.5 252.0 157.5 249.0ZM210.0 314.5 208.5 272.5 186.5 271.0Q175.5 270.0 169.5 272.0Q163.5 274.0 161.0 278.5Q159.0 284.5 161.5 295.5Q164.0 306.5 168.5 315.25Q173.0 324.0 177.5 324.0Q180.0 324.0 184.25 328.25Q188.5 332.5 190.5 337.5Q193.0 343.0 197.25 347.75Q201.5 352.5 204.5 353.0Q208.5 354.5 210.0 346.0Q211.5 337.5 210.0 314.5ZM276.5 242.5Q270.0 236.5 264.25 232.0Q258.5 227.5 258.5 227.5Q258.0 227.5 256.75 235.0Q255.5 242.5 254.25 253.75Q253.0 265.0 252.25 276.25Q251.5 287.5 251.25 295.25Q251.0 303.0 251.5 304.0Q254.0 304.0 264.75 299.25Q275.5 294.5 288.5 288.0Q301.5 281.5 311.0 276.0Q320.5 270.5 320.5 269.0Q320.5 268.0 316.75 265.5Q313.0 263.0 307.5 262.0Q301.0 260.5 292.25 254.75Q283.5 249.0 276.5 242.5ZM521.0 184.0Q526.5 177.0 529.5 171.25Q532.5 165.5 531.5 164.5Q530.0 164.5 522.0 169.75Q514.0 175.0 503.0 182.75Q492.0 190.5 481.25 198.75Q470.5 207.0 463.0 213.5Q455.5 220.0 454.5 222.0Q454.0 224.0 460.75 226.25Q467.5 228.5 476.75 230.0Q486.0 231.5 493.5 231.5Q501.0 231.5 503.0 230.0Q505.0 228.5 506.75 224.25Q508.5 220.0 508.5 215.0Q508.5 209.5 512.25 200.75Q516.0 192.0 521.0 184.0ZM247.5 38.0Q247.0 36.5 239.5 35.5Q232.0 34.5 222.0 33.5Q212.0 32.5 203.0 32.0Q194.0 31.5 190.0 31.5Q170.5 31.5 172.0 36.0Q173.0 38.5 179.25 52.75Q185.5 67.0 192.0 84.0L208.5 126.0L219.0 95.0Q223.0 82.0 228.75 69.5Q234.5 57.0 239.0 52.0Q244.0 46.5 246.25 42.5Q248.5 38.5 247.5 38.0ZM149.5 13.5Q154.0 10.0 163.0 14.0Q167.0 15.5 185.0 17.75Q203.0 20.0 224.5 21.0L278.0 22.5L257.0 49.0Q246.5 62.5 240.25 74.25Q234.0 86.0 230.25 100.25Q226.5 114.5 225.0 135.0Q223.5 155.5 223.0 186.0Q222.0 215.5 222.25 230.25Q222.5 245.0 224.25 250.25Q226.0 255.5 230.0 256.5Q236.5 258.0 239.5 251.75Q242.5 245.5 244.5 227.5Q247.0 215.0 249.5 206.0Q252.0 197.0 253.0 197.0Q255.0 198.0 259.75 203.5Q264.5 209.0 269.0 216.5Q278.0 230.0 288.0 238.25Q298.0 246.5 313.25 250.75Q328.5 255.0 352.75 256.0Q377.0 257.0 414.5 256.5Q454.5 255.5 472.5 254.5Q490.5 253.5 492.75 251.75Q495.0 250.0 487.0 247.5Q480.0 243.5 466.0 240.0Q452.0 236.5 440.0 234.5L409.0 230.0L426.5 220.0Q435.0 216.0 449.25 206.25Q463.5 196.5 481.0 184.0Q498.5 171.5 515.75 158.25Q533.0 145.0 547.5 133.25Q562.0 121.5 570.0 114.0Q587.5 97.0 595.0 97.0Q604.0 97.0 588.0 117.5Q565.0 146.0 551.25 164.0Q537.5 182.0 531.0 193.25Q524.5 204.5 522.75 212.75Q521.0 221.0 522.5 230.0Q525.0 241.0 530.0 250.75Q535.0 260.5 543.0 266.0Q570.5 287.5 587.75 304.75Q605.0 322.0 605.0 328.5Q605.0 329.5 604.0 329.5Q596.0 329.5 567.0 303.5L529.0 269.0L436.0 271.0Q397.5 272.5 371.75 274.75Q346.0 277.0 327.75 282.0Q309.5 287.0 293.75 296.0Q278.0 305.0 259.0 320.0Q244.0 332.0 237.5 332.0Q229.0 332.0 235.5 302.5Q240.0 286.5 241.25 279.75Q242.5 273.0 240.5 271.25Q238.5 269.5 233.0 269.5Q227.5 269.5 225.75 278.75Q224.0 288.0 224.0 316.0V363.5L268.0 392.5Q298.5 412.5 314.25 423.5Q330.0 434.5 334.5 440.25Q339.0 446.0 336.5 450.5Q334.5 453.5 332.0 453.5Q328.0 453.5 321.5 445.5Q318.5 442.0 309.25 434.75Q300.0 427.5 287.75 418.75Q275.5 410.0 263.0 402.0Q250.5 394.0 240.5 388.75Q230.5 383.5 226.5 383.5Q225.0 383.5 223.0 385.5Q221.0 389.0 219.0 390.5Q217.0 392.0 216.5 391.0Q216.0 389.5 213.5 385.0Q211.0 380.5 208.5 376.0Q205.0 369.0 193.0 360.5Q181.0 352.0 163.75 343.25Q146.5 334.5 127.75 327.0Q109.0 319.5 91.5 315.0L52.0 305.0L32.5 327.0Q25.5 334.0 19.5 339.0Q13.5 344.0 11.0 344.0Q11.0 344.0 10.75 343.75Q10.5 343.5 10.5 343.5Q10.0 342.0 10.5 331.5Q11.0 321.0 12.5 309.0Q15.0 296.5 17.75 274.0Q20.5 251.5 22.0 231.5Q26.0 185.5 32.0 185.5Q35.0 185.5 39.0 200.0Q41.0 208.0 48.0 218.25Q55.0 228.5 64.0 237.5Q73.0 246.5 82.25 252.5Q91.5 258.5 98.0 258.5Q104.0 258.5 115.75 251.5Q127.5 244.5 141.0 234.0Q154.5 223.5 165.5 212.25Q176.5 201.0 181.0 192.5Q187.5 181.5 189.5 181.5Q191.5 181.5 192.0 186.5Q193.0 190.0 190.0 199.75Q187.0 209.5 182.5 219.0Q169.0 243.0 170.5 250.75Q172.0 258.5 188.0 258.5Q196.5 258.5 200.0 256.75Q203.5 255.0 204.75 248.25Q206.0 241.5 206.5 226.0Q207.5 213.0 207.5 198.25Q207.5 183.5 206.5 176.5Q206.0 166.5 201.75 150.25Q197.5 134.0 191.25 115.5Q185.0 97.0 177.5 79.25Q170.0 61.5 162.5 49.0Q155.5 36.0 151.5 25.75Q147.5 15.5 149.5 13.5Z" fill="black" /></svg>