<svg xmlns="http://www.w3.org/2000/svg" width="554.5" height="463.0" viewBox="0 0 554.5 463.0"><path d="M65.5 278.0Q67.5 272.5 69.25 268.5Q71.0 264.5 70.0 264.5Q68.5 265.0 63.0 268.5Q57.5 272.0 51.0 277.0Q44.5 282.0 39.5 286.0Q34.5 290.0 34.5 291.0Q34.5 292.0 38.25 292.5Q42.0 293.0 47.5 292.5Q54.5 292.0 58.25 289.0Q62.0 286.0 65.5 278.0ZM72.5 182.0Q75.5 177.5 77.25 173.0Q79.0 168.5 78.0 168.5Q78.0 168.5 77.75 168.5Q77.5 168.5 77.5 168.5Q74.0 168.5 61.0 177.5Q50.0 185.0 49.25 187.25Q48.5 189.5 53.5 192.0Q57.0 193.0 59.0 193.75Q61.0 194.5 63.0 194.5Q66.0 194.5 67.75 191.75Q69.5 189.0 72.5 182.0ZM181.5 222.0Q181.5 220.0 175.0 220.0Q173.0 220.0 172.0 221.25Q171.0 222.5 171.5 224.0Q173.5 226.5 177.5 225.5Q181.5 224.5 181.5 222.0ZM197.5 291.0Q200.0 288.5 195.0 288.25Q190.0 288.0 174.0 289.0Q159.0 289.5 156.0 291.25Q153.0 293.0 155.0 299.0Q156.0 302.5 156.5 306.5Q157.0 310.5 157.0 312.5Q157.0 314.5 163.75 311.75Q170.5 309.0 180.0 303.0Q189.5 297.0 197.5 291.0ZM203.0 253.0Q202.5 244.5 201.5 236.5Q200.5 228.5 198.5 225.5Q197.0 222.0 195.5 222.0Q193.0 222.0 187.0 230.0Q181.0 237.0 178.5 249.25Q176.0 261.5 177.5 271.25Q179.0 281.0 185.0 281.0Q195.0 281.0 199.0 275.0Q203.0 269.0 203.0 253.0ZM214.0 222.0Q214.0 215.5 210.5 215.5Q206.0 215.5 206.0 219.5Q206.0 224.5 210.5 225.5Q214.0 228.5 214.0 222.0ZM98.0 98.0Q103.5 86.0 100.0 86.0Q97.0 86.0 84.5 94.5Q61.5 109.5 80.0 109.5H91.0Q91.5 109.5 93.75 106.25Q96.0 103.0 98.0 98.0ZM234.5 176.0Q234.5 174.5 228.75 170.0Q223.0 165.5 215.0 160.5L195.0 148.0L184.0 163.0L173.0 179.5H204.0Q217.0 179.5 225.75 178.25Q234.5 177.0 234.5 176.0ZM479.5 166.0Q491.5 154.0 487.5 154.0Q482.0 154.0 453.0 174.0Q439.5 183.5 427.0 192.5Q414.5 201.5 410.5 204.0L400.5 211.0L423.0 215.5Q437.5 218.5 444.5 218.5Q451.0 218.5 453.25 216.25Q455.5 214.0 455.5 209.5Q455.5 202.5 463.0 189.0Q470.5 175.5 479.5 166.0ZM268.5 110.5 249.0 87.0Q242.0 77.0 234.75 65.0Q227.5 53.0 225.0 46.5Q221.0 34.0 219.0 34.0Q218.5 36.5 211.25 46.25Q204.0 56.0 194.0 68.0L169.5 97.0H188.5Q197.5 97.5 205.25 98.25Q213.0 99.0 224.0 101.25Q235.0 103.5 254.5 108.0ZM226.5 359.5Q230.0 357.0 222.5 357.75Q215.0 358.5 197.5 363.5Q186.5 367.0 174.25 368.75Q162.0 370.5 156.0 370.5Q147.5 371.0 144.25 372.0Q141.0 373.0 141.75 379.25Q142.5 385.5 146.0 401.5L150.5 425.0L168.5 407.0Q180.0 396.0 192.75 385.5Q205.5 375.0 226.5 359.5ZM142.5 44.5Q150.0 37.0 154.0 38.0Q155.5 39.5 150.25 46.75Q145.0 54.0 136.0 63.5Q116.0 86.0 109.0 96.25Q102.0 106.5 107.0 109.0Q111.5 110.0 109.0 116.0Q106.0 124.0 125.0 122.5Q132.0 121.0 130.5 127.0Q130.0 129.0 133.0 133.25Q136.0 137.5 142.5 141.5Q148.5 145.0 152.75 149.0Q157.0 153.0 157.0 155.0Q157.0 158.5 155.0 158.5Q152.0 158.5 139.0 148.5Q133.5 144.0 128.75 141.0Q124.0 138.0 121.5 138.0Q120.0 138.0 114.75 143.0Q109.5 148.0 103.0 155.5Q96.5 163.0 90.5 170.25Q84.5 177.5 81.5 182.0Q78.5 188.0 82.5 192.0Q85.5 201.5 88.75 204.75Q92.0 208.0 101.5 213.0Q114.0 219.5 123.25 228.5Q132.5 237.5 129.5 240.0Q129.5 240.5 127.5 239.75Q125.5 239.0 123.5 237.5Q121.5 235.5 120.0 234.25Q118.5 233.0 116.5 233.0Q113.5 233.0 108.25 238.25Q103.0 243.5 91.5 256.5Q78.0 272.0 74.0 281.75Q70.0 291.5 76.0 299.25Q82.0 307.0 98.0 317.0Q107.0 322.5 113.75 328.5Q120.5 334.5 120.5 337.0Q120.5 342.0 118.75 341.25Q117.0 340.5 111.5 335.5Q102.5 327.5 88.0 319.75Q73.5 312.0 58.5 306.0Q43.5 300.0 32.0 299.0Q23.0 297.5 16.5 295.75Q10.0 294.0 10.0 292.5Q10.0 289.0 14.0 289.0Q16.0 289.0 25.5 283.25Q35.0 277.5 48.25 269.0Q61.5 260.5 74.5 251.75Q87.5 243.0 96.0 236.5Q104.5 230.0 104.5 228.5Q104.5 224.0 94.5 218.25Q84.5 212.5 70.75 207.5Q57.0 202.5 45.5 201.0Q36.0 200.0 29.0 198.25Q22.0 196.5 22.0 196.0Q22.0 194.5 35.0 185.5Q48.0 176.5 65.5 165.0Q83.0 154.0 95.5 144.75Q108.0 135.5 108.0 134.0Q108.0 130.5 100.5 126.75Q93.0 123.0 82.5 120.5Q72.0 118.0 62.5 118.0Q56.5 118.0 51.5 116.75Q46.5 115.5 46.5 114.5Q46.5 112.0 59.75 102.5Q73.0 93.0 91.5 81.0Q109.0 69.5 124.5 58.75Q140.0 48.0 142.5 44.5ZM153.0 206.5Q153.0 205.5 156.75 205.75Q160.5 206.0 166.0 208.5Q173.5 211.5 178.0 211.5Q181.0 211.5 185.0 209.5Q189.0 206.5 195.5 206.5Q203.0 206.5 214.0 209.5Q246.0 215.0 228.5 222.0Q225.0 223.5 220.75 230.75Q216.5 238.0 213.5 247.0Q210.5 256.0 210.5 263.5Q210.5 271.0 212.75 272.0Q215.0 273.0 226.5 272.0Q232.5 270.5 253.25 263.25Q274.0 256.0 297.0 247.5Q333.0 232.5 348.0 226.75Q363.0 221.0 367.0 221.0Q369.5 221.0 369.5 223.0Q369.5 225.0 356.0 231.0Q342.5 237.0 323.5 244.5Q299.5 253.5 274.5 264.5Q249.5 275.5 227.0 286.75Q204.5 298.0 188.75 307.5Q173.0 317.0 167.5 322.5Q162.5 327.5 158.0 331.0Q153.5 334.5 152.5 334.5Q151.0 334.5 149.75 329.0Q148.5 323.5 148.0 317.0Q147.5 309.5 146.25 302.5Q145.0 295.5 144.0 292.0Q143.5 286.5 145.25 285.0Q147.0 283.5 152.5 284.5Q157.0 284.5 160.75 283.75Q164.5 283.0 166.0 281.0Q169.5 276.0 169.75 266.25Q170.0 256.5 167.75 245.25Q165.5 234.0 161.5 225.5Q158.0 219.5 155.5 213.75Q153.0 208.0 153.0 206.5ZM300.0 314.5Q305.5 311.5 319.0 303.75Q332.5 296.0 349.75 286.5Q367.0 277.0 384.0 268.0Q401.0 259.0 414.25 253.25Q427.5 247.5 432.0 247.5Q433.5 248.0 421.0 256.25Q408.5 264.5 389.5 274.5Q336.5 302.5 292.5 328.75Q248.5 355.0 216.5 377.75Q184.5 400.5 166.75 418.0Q149.0 435.5 148.5 445.5Q148.5 453.0 145.0 453.0Q144.0 453.0 142.25 444.0Q140.5 435.0 139.5 422.0Q138.5 409.0 135.75 396.75Q133.0 384.5 130.5 379.5Q124.5 367.5 124.5 366.0Q124.5 364.5 134.0 363.75Q143.5 363.0 156.0 362.5Q176.5 361.0 201.25 354.5Q226.0 348.0 251.75 337.75Q277.5 327.5 300.0 314.5ZM217.5 21.0Q222.5 10.0 226.0 10.0Q230.0 10.0 230.0 26.5Q230.0 40.5 239.5 57.25Q249.0 74.0 267.5 94.5Q276.0 104.0 284.25 110.75Q292.5 117.5 304.5 124.25Q316.5 131.0 335.5 140.5Q348.5 146.5 362.0 153.25Q375.5 160.0 386.75 165.75Q398.0 171.5 403.0 175.0L422.0 186.5L470.0 150.5Q484.0 141.0 496.25 131.25Q508.5 121.5 517.25 114.25Q526.0 107.0 528.0 104.5Q538.5 94.0 541.5 94.0Q544.5 94.0 538.0 105.0Q535.5 110.5 532.5 114.25Q529.5 118.0 528.0 118.0Q526.0 118.0 518.75 126.5Q511.5 135.0 502.5 147.75Q493.5 160.5 484.5 173.75Q475.5 187.0 469.75 197.25Q464.0 207.5 464.0 210.5Q464.0 214.0 464.75 217.0Q465.5 220.0 467.5 220.0Q469.5 220.0 469.5 229.5Q468.0 234.5 472.25 240.0Q476.5 245.5 490.0 255.5Q502.0 265.0 512.25 276.5Q522.5 288.0 528.5 297.0Q534.5 306.0 532.0 309.0Q530.5 310.5 528.25 308.75Q526.0 307.0 523.5 303.5Q520.5 297.5 508.75 285.5Q497.0 273.5 482.25 260.5Q467.5 247.5 455.0 238.5Q441.0 228.5 431.5 225.5Q422.0 222.5 406.0 221.0Q395.0 220.0 386.25 218.0Q377.5 216.0 376.0 214.0Q373.0 210.5 359.75 206.75Q346.5 203.0 327.0 199.75Q307.5 196.5 285.0 193.75Q262.5 191.0 240.25 189.5Q218.0 188.0 200.0 188.0Q187.5 188.0 178.0 188.75Q168.5 189.5 163.0 191.5Q153.5 194.5 149.5 194.5Q140.5 194.5 158.5 179.5Q165.0 174.0 172.5 165.0Q180.0 156.0 185.0 148.0L196.5 129.5L206.0 142.5Q217.0 158.0 249.5 171.25Q282.0 184.5 331.5 194.0Q355.0 198.5 368.5 200.5Q382.0 202.5 389.5 202.5Q393.5 202.5 396.0 201.75Q398.5 201.0 400.5 200.5Q411.5 195.5 409.5 190.5Q408.5 188.0 398.25 181.5Q388.0 175.0 372.0 166.5Q356.0 158.0 337.75 149.25Q319.5 140.5 302.25 133.0Q285.0 125.5 273.0 121.5Q225.5 106.0 191.0 106.0Q172.0 106.0 159.5 111.5Q153.0 114.0 147.75 115.25Q142.5 116.5 141.5 116.0Q141.0 115.0 144.5 110.5Q148.0 106.0 154.0 100.5Q161.5 93.5 171.0 82.75Q180.5 72.0 190.25 60.0Q200.0 48.0 207.25 37.5Q214.5 27.0 217.5 21.0Z" fill="black" /></svg>