<svg xmlns="http://www.w3.org/2000/svg" width="524.0" height="390.0" viewBox="0 0 524.0 390.0"><path d="M37.0 292.0Q31.0 287.5 27.5 287.5Q23.5 287.5 23.5 296.5Q23.5 305.0 28.0 305.0Q31.5 305.0 37.0 301.0Q41.0 298.5 41.0 296.5Q41.0 294.5 37.0 292.0ZM39.0 191.5Q36.0 186.5 31.0 186.5Q23.5 186.5 23.5 195.0Q23.5 203.5 27.0 203.5Q29.5 203.5 36.0 199.5Q38.5 198.0 39.25 195.5Q40.0 193.0 39.0 191.5ZM37.0 239.5Q31.0 235.0 27.5 235.0Q23.5 235.0 23.5 244.0Q23.5 252.0 27.5 252.0Q31.0 252.0 37.0 247.5Q41.0 245.0 41.0 243.5Q41.0 242.0 37.0 239.5ZM36.0 130.5Q31.5 125.0 28.0 125.0Q23.5 125.0 23.5 133.5Q23.5 137.0 25.0 139.75Q26.5 142.5 29.5 142.5Q36.5 142.5 38.25 139.0Q40.0 135.5 36.0 130.5ZM140.5 237.0 141.0 216.0 142.5 195.0 103.5 196.0Q83.0 196.0 69.75 197.75Q56.5 199.5 46.5 204.0Q17.5 217.0 32.0 227.0Q46.5 237.0 95.5 237.0ZM142.0 247.5H114.0Q102.5 247.5 92.5 247.0Q82.5 246.5 79.5 246.0Q68.5 242.5 37.0 259.0L22.0 267.0L33.0 277.0Q39.5 283.0 54.0 286.0Q68.5 289.0 84.0 289.75Q99.5 290.5 109.5 290.5Q130.0 290.5 136.0 285.0Q142.0 279.5 142.0 265.0ZM154.0 310.0Q149.5 305.5 146.5 305.5Q142.0 305.5 142.5 330.0Q143.0 341.0 144.0 349.75Q145.0 358.5 145.5 359.5Q146.5 360.5 151.25 359.0Q156.0 357.5 161.5 355.0Q167.0 351.0 176.0 346.75Q185.0 342.5 192.0 340.5L209.5 335.5L184.0 325.0Q173.0 321.0 164.25 316.25Q155.5 311.5 154.0 310.0ZM313.0 229.0Q309.0 228.0 303.25 226.25Q297.5 224.5 293.5 223.5Q290.0 222.0 287.0 222.0Q283.0 222.0 283.0 235.0Q283.0 247.5 287.0 247.5Q289.0 247.5 293.5 246.0Q297.5 245.0 303.25 242.75Q309.0 240.5 313.0 240.0Q317.0 239.0 319.75 237.5Q322.5 236.0 322.5 235.0Q322.5 233.0 319.75 231.5Q317.0 230.0 313.0 229.0ZM305.5 271.0Q292.0 266.5 287.5 266.5Q284.0 266.5 283.5 269.25Q283.0 272.0 283.0 279.0Q283.0 290.5 287.0 290.5Q289.5 290.5 291.0 289.5Q294.0 288.5 299.75 287.0Q305.5 285.5 310.5 284.5Q323.5 281.5 322.0 278.5Q320.5 275.5 305.5 271.0ZM369.0 228.0V213.0Q369.0 210.0 368.0 203.75Q367.0 197.5 363.0 197.5Q359.0 197.5 350.0 199.25Q341.0 201.0 330.75 203.5Q320.5 206.0 312.5 208.5Q304.5 211.0 303.0 212.5Q299.5 217.0 311.25 221.25Q323.0 225.5 344.5 226.5ZM371.5 254.5Q371.5 243.5 369.5 241.5Q367.5 239.5 359.5 239.5Q354.0 239.5 346.75 241.0Q339.5 242.5 334.0 244.0Q328.5 245.5 321.0 247.25Q313.5 249.0 308.5 250.0Q296.5 252.5 296.5 256.5Q296.5 259.0 305.5 262.25Q314.5 265.5 327.25 267.75Q340.0 270.0 351.0 270.0Q366.5 270.0 369.0 268.0Q371.5 266.0 371.5 254.5ZM158.5 82.0Q158.0 80.0 150.75 79.0Q143.5 78.0 136.5 78.0Q131.5 78.0 127.5 78.75Q123.5 79.5 123.0 80.5Q122.0 81.5 124.75 88.5Q127.5 95.5 131.5 105.0L141.0 126.0L150.0 106.0Q154.0 97.5 156.5 90.25Q159.0 83.0 158.5 82.0ZM184.5 124.5Q184.0 124.5 183.0 117.25Q182.0 110.0 181.0 99.0L179.5 74.5L153.0 112.5L151.5 206.5L151.0 300.0L176.5 312.0Q186.5 316.5 193.25 319.0Q200.0 321.5 209.5 323.0Q219.0 324.5 236.5 324.75Q254.0 325.0 285.0 325.0H369.0L370.5 304.0Q371.5 288.5 370.0 285.75Q368.5 283.0 359.5 283.0Q354.0 283.0 341.0 285.5Q328.0 288.0 315.0 292.0Q302.5 295.5 291.75 298.25Q281.0 301.0 278.5 301.0Q276.5 301.0 275.5 277.0Q274.5 253.0 274.5 208.0Q274.5 175.5 274.75 156.5Q275.0 137.5 275.5 128.75Q276.0 120.0 277.5 118.0Q279.0 116.0 282.0 117.0Q285.0 117.5 294.5 121.25Q304.0 125.0 313.5 128.5Q325.5 133.0 336.25 135.25Q347.0 137.5 354.5 137.5Q367.0 137.5 366.0 132.0Q366.0 130.5 363.75 122.25Q361.5 114.0 358.5 105.0L351.0 83.5H305.5Q281.0 83.5 263.0 86.5Q245.0 89.5 230.5 96.0Q216.0 102.5 201.0 114.0Q195.5 118.5 190.5 121.5Q185.5 124.5 184.5 124.5ZM325.0 194.5 310.0 188.5Q302.0 185.5 297.0 183.75Q292.0 182.0 289.0 182.0Q282.0 182.0 283.5 193.5Q285.0 205.0 292.5 205.0Q298.5 205.0 313.5 199.0ZM202.0 63.0Q198.0 59.0 196.0 59.0Q190.5 59.0 190.5 83.5Q190.5 93.0 191.5 99.5Q192.5 106.0 194.0 106.0Q195.5 105.0 202.75 101.75Q210.0 98.5 219.0 94.5L241.0 84.0L223.5 76.0Q216.5 72.0 210.0 68.5Q203.5 65.0 202.0 63.0ZM325.0 143.5 313.5 139.0Q303.5 135.0 297.5 132.75Q291.5 130.5 288.0 130.5Q284.5 130.5 283.75 133.5Q283.0 136.5 283.0 142.0Q283.0 155.5 291.5 155.5Q298.0 155.5 311.5 149.5ZM369.0 184.0V166.5Q369.0 148.5 362.5 148.0Q358.5 148.0 347.0 150.25Q335.5 152.5 322.5 155.75Q309.5 159.0 299.5 162.0Q289.5 165.0 288.0 166.0Q285.5 169.0 294.5 173.0Q303.5 177.0 317.25 180.25Q331.0 183.5 343.0 184.0ZM397.5 29.5Q397.5 28.5 389.75 28.25Q382.0 28.0 370.5 28.0Q356.0 28.0 350.5 29.25Q345.0 30.5 346.0 33.0Q354.5 64.5 362.0 82.25Q369.5 100.0 373.0 100.0Q376.0 100.0 376.0 88.0Q376.0 84.0 379.0 74.25Q382.0 64.5 386.5 55.0Q391.0 45.0 394.25 37.5Q397.5 30.0 397.5 29.5ZM329.5 14.5Q331.5 10.0 340.5 14.5Q343.5 16.0 356.0 17.5Q368.5 19.0 382.0 19.0Q395.5 19.0 405.25 19.5Q415.0 20.0 415.0 21.0Q415.0 22.0 412.0 27.5Q409.0 33.0 404.5 40.0Q394.5 55.5 387.0 78.0Q379.5 100.5 379.5 118.5V138.0H427.5Q446.5 138.0 466.25 139.5Q486.0 141.0 494.5 142.0Q505.0 143.5 494.5 144.5Q484.0 145.5 447.0 146.5H379.5V186.0H445.5Q476.5 186.0 494.5 187.5Q512.5 189.0 512.5 190.5Q512.5 192.5 494.5 193.75Q476.5 195.0 445.5 195.0H379.5L382.0 228.0L448.0 230.5Q508.0 232.5 504.5 236.0Q501.0 239.5 439.0 239.5H379.5L381.0 255.0L382.0 272.5L514.0 276.0L448.0 279.0L382.0 280.5V303.0Q382.0 317.5 384.0 321.75Q386.0 326.0 393.0 328.0Q401.5 330.5 401.75 330.75Q402.0 331.0 394.0 331.0Q382.5 332.0 381.0 340.5Q378.5 349.0 374.5 349.0Q371.5 349.0 371.5 343.0Q371.5 340.0 366.5 338.5Q361.5 337.0 346.5 336.5Q331.5 336.0 301.5 336.0Q272.0 336.0 255.25 336.75Q238.5 337.5 228.0 339.25Q217.5 341.0 206.5 345.0Q183.5 353.0 165.5 361.75Q147.5 370.5 144.0 376.0Q141.5 380.0 140.0 380.0Q135.0 380.0 135.0 343.0Q135.0 326.5 133.75 314.25Q132.5 302.0 130.5 300.0Q125.5 296.0 108.5 296.0Q92.5 296.0 72.25 299.5Q52.0 303.0 40.5 308.5Q32.5 312.5 25.0 315.25Q17.5 318.0 15.0 318.0Q12.5 318.0 11.25 302.25Q10.0 286.5 10.5 244.0Q11.0 201.0 12.5 185.0Q14.0 169.0 20.0 169.0Q22.5 169.0 26.5 171.5Q30.5 174.0 35.5 178.0Q40.5 181.0 46.0 182.75Q51.5 184.5 62.25 185.25Q73.0 186.0 92.5 186.0Q118.0 186.0 128.75 184.75Q139.5 183.5 141.0 177.5Q142.5 171.5 139.0 157.5L135.0 140.5H95.5Q71.0 140.5 60.0 142.25Q49.0 144.0 37.5 150.0Q29.5 154.0 23.25 157.0Q17.0 160.0 15.0 160.0Q14.0 160.0 13.0 152.25Q12.0 144.5 12.0 133.5Q12.0 122.0 12.75 114.75Q13.5 107.5 15.0 107.5Q17.0 107.5 22.5 110.5Q28.0 113.5 34.5 118.0Q42.0 122.5 48.0 125.0Q54.0 127.5 63.5 128.25Q73.0 129.0 90.0 129.0Q112.5 129.0 121.0 127.5Q129.5 126.0 128.0 119.5Q126.5 113.0 118.0 97.5Q109.5 81.0 108.0 74.75Q106.5 68.5 114.0 68.5Q119.0 68.5 127.0 70.0Q135.5 70.5 146.75 70.5Q158.0 70.5 165.0 70.0Q177.5 67.5 179.75 64.75Q182.0 62.0 181.5 52.5Q181.0 34.5 184.0 34.5Q187.0 34.5 199.0 46.5Q205.5 52.5 213.5 58.75Q221.5 65.0 226.0 67.5Q230.5 70.0 245.75 72.0Q261.0 74.0 280.5 75.0Q300.0 76.0 316.0 76.0Q329.0 76.0 337.5 75.25Q346.0 74.5 346.5 73.0Q348.0 71.0 346.0 63.0Q344.0 55.0 340.0 44.75Q336.0 34.5 331.0 26.5Q326.5 18.5 329.5 14.5Z" fill="black" /></svg>