<svg xmlns="http://www.w3.org/2000/svg" width="437.5" height="386.0" viewBox="0 0 437.5 386.0"><path d="M83.0 193.5Q83.0 191.0 82.5 184.25Q82.0 177.5 80.25 171.5Q78.5 165.5 74.5 165.5Q72.5 165.5 64.75 170.25Q57.0 175.0 50.0 180.25Q43.0 185.5 42.5 187.5Q42.0 188.5 47.25 192.0Q52.5 195.5 60.0 199.75Q67.5 204.0 73.75 207.0Q80.0 210.0 81.5 210.0Q82.5 210.0 82.75 205.0Q83.0 200.0 83.0 193.5ZM98.0 217.5Q98.0 214.5 95.0 214.5Q93.0 214.5 93.0 217.5Q93.0 220.0 95.0 220.0Q98.0 220.0 98.0 217.5ZM121.5 76.5Q122.0 75.5 117.0 74.5Q112.0 73.5 103.5 73.5Q89.5 73.5 87.5 75.0Q85.5 76.5 88.5 86.5Q90.5 92.5 92.0 99.0Q93.5 105.5 94.5 109.5Q94.5 114.5 96.5 114.5Q98.0 114.5 101.75 109.5Q105.5 104.5 109.75 97.5Q114.0 90.5 117.5 84.5Q121.0 78.5 121.5 76.5ZM180.0 171.0Q180.5 167.0 179.5 160.25Q178.5 153.5 177.5 147.0L174.0 132.0L136.5 158.5L157.5 169.0Q173.0 177.0 176.0 177.0Q179.5 177.0 180.0 171.0ZM198.0 118.5Q199.5 114.0 198.75 110.75Q198.0 107.5 196.5 107.5Q186.0 107.5 186.0 127.0Q186.0 135.0 188.5 135.0Q193.5 135.0 198.0 118.5ZM195.5 187.5Q195.5 185.5 193.5 185.5Q190.5 185.5 190.5 187.5Q190.5 190.5 193.5 190.5Q195.5 190.5 195.5 187.5ZM244.5 250.5 221.0 228.0Q211.5 219.0 203.25 212.0Q195.0 205.0 194.0 205.0Q192.5 205.0 191.5 220.5Q190.5 236.0 190.5 257.5V310.5L244.5 363.0ZM234.0 128.5Q228.0 110.5 220.5 110.5Q216.5 110.5 212.25 116.5Q208.0 122.5 204.25 131.0Q200.5 139.5 198.0 147.25Q195.5 155.0 195.5 158.5Q195.5 163.0 199.5 172.5Q203.5 182.0 209.5 193.0Q215.5 204.0 222.25 213.5Q229.0 223.0 234.5 227.5L246.0 237.0L242.0 190.0Q240.5 171.0 238.5 152.75Q236.5 134.5 234.0 128.5ZM264.0 114.0Q264.0 113.5 260.5 113.0Q257.0 112.5 252.0 112.5Q241.0 112.5 240.25 114.25Q239.5 116.0 244.5 132.0L250.5 148.0L257.0 132.0Q259.5 125.0 261.75 120.0Q264.0 115.0 264.0 114.0ZM320.0 224.5 323.0 148.5 301.5 130.5Q284.5 116.5 279.0 116.5Q276.0 116.5 273.5 119.5Q265.5 130.0 259.75 154.25Q254.0 178.5 254.0 207.0V247.0L283.5 276.0Q294.5 286.5 303.0 294.5Q311.5 302.5 313.5 302.5Q315.0 301.5 317.0 278.75Q319.0 256.0 320.0 224.5ZM278.0 88.0Q275.5 82.5 272.5 74.25Q269.5 66.0 267.0 58.5L261.5 40.5L243.5 52.5Q235.5 57.5 230.25 62.0Q225.0 66.5 225.0 68.5Q225.0 69.0 232.25 73.5Q239.5 78.0 250.5 82.5Q260.5 87.5 269.5 92.0Q278.5 96.5 279.5 97.0Q283.0 98.0 278.0 88.0ZM346.5 57.0Q334.0 54.0 328.0 54.0Q321.5 54.0 322.0 59.25Q322.5 64.5 327.0 78.0L334.5 101.5L341.0 88.5Q343.5 83.0 348.0 77.0Q352.5 71.0 354.5 68.5Q359.5 63.0 358.0 61.0Q356.5 59.0 346.5 57.0ZM258.5 22.0Q263.5 10.0 271.5 10.0Q279.5 10.0 276.0 18.0Q272.5 27.5 273.75 42.25Q275.0 57.0 281.0 72.0Q284.0 80.0 290.25 90.75Q296.5 101.5 303.5 112.0Q310.5 122.5 316.0 129.5Q321.5 136.5 323.0 136.5Q325.5 136.5 324.75 125.5Q324.0 114.5 319.5 85.0Q319.0 78.5 314.5 70.25Q310.0 62.0 304.5 57.0Q299.5 51.5 296.0 47.0Q292.5 42.5 293.0 42.0Q294.0 41.5 304.75 42.25Q315.5 43.0 330.0 45.0Q338.0 46.0 345.0 46.5Q352.0 47.0 358.0 47.0Q369.5 47.0 373.5 45.0Q379.5 42.0 385.0 42.0Q389.0 42.0 392.0 44.0Q395.0 46.0 395.0 49.5Q395.0 54.0 387.0 54.0Q381.5 54.0 372.5 64.25Q363.5 74.5 354.25 89.25Q345.0 104.0 338.5 118.25Q332.0 132.5 332.0 141.0Q332.0 143.0 346.5 158.0Q361.0 173.0 381.0 193.0Q400.5 212.5 414.0 227.75Q427.5 243.0 426.0 245.5Q423.5 245.5 410.25 234.5Q397.0 223.5 380.0 207.0Q363.0 190.5 350.0 178.5Q337.0 166.5 335.0 166.5Q334.0 167.5 332.25 189.75Q330.5 212.0 329.0 243.0Q327.5 276.0 327.25 292.5Q327.0 309.0 328.5 315.75Q330.0 322.5 333.5 326.5Q337.5 330.5 338.75 334.0Q340.0 337.5 337.5 338.5Q332.5 342.5 330.0 337.0Q329.0 335.0 326.0 334.25Q323.0 333.5 320.0 335.5Q312.5 337.5 312.5 328.5Q312.5 324.5 303.75 313.75Q295.0 303.0 283.5 290.5L254.0 262.0V319.0Q254.0 345.0 252.75 360.5Q251.5 376.0 249.0 376.0Q244.5 376.0 244.5 370.0Q244.5 365.0 240.5 367.5Q240.5 367.5 240.25 367.5Q240.0 367.5 240.0 367.5Q238.0 367.5 230.5 362.25Q223.0 357.0 213.5 348.0L190.5 325.0V348.0Q190.5 357.5 189.5 364.0Q188.5 370.5 186.0 370.5Q184.0 370.5 182.25 362.25Q180.5 354.0 180.5 342.0V313.5L95.0 232.0L92.0 253.5Q90.5 263.0 89.5 280.25Q88.5 297.5 88.5 313.5Q88.5 351.0 83.0 351.0Q79.5 351.0 78.25 336.0Q77.0 321.0 78.5 286.5L81.0 223.0L61.5 211.5Q52.5 206.0 42.75 203.25Q33.0 200.5 26.0 201.0Q19.5 201.5 15.0 200.75Q10.5 200.0 10.5 199.0Q10.0 197.0 18.5 190.25Q27.0 183.5 39.5 175.5Q51.5 167.5 61.75 158.5Q72.0 149.5 73.5 145.0Q77.5 133.5 83.0 131.5Q86.0 130.5 85.75 123.5Q85.5 116.5 83.0 106.75Q80.5 97.0 76.0 88.25Q71.5 79.5 66.5 75.0Q61.5 70.5 57.75 66.75Q54.0 63.0 54.0 62.5Q54.0 62.0 63.75 61.75Q73.5 61.5 88.5 61.5Q103.5 61.5 119.0 61.75Q134.5 62.0 146.25 62.25Q158.0 62.5 161.0 63.0Q162.0 63.5 158.0 66.0Q154.0 68.5 147.0 72.0Q137.5 76.5 130.0 85.5Q122.5 94.5 114.0 110.5Q91.0 154.0 100.0 191.25Q109.0 228.5 151.5 271.0L180.5 299.5V191.5L159.0 181.0Q137.0 170.5 122.0 172.0Q103.5 174.5 107.0 168.5Q110.5 162.5 137.0 145.0Q151.5 135.5 161.25 127.5Q171.0 119.5 171.0 118.0Q171.0 113.5 164.0 107.5Q156.5 102.5 156.5 98.5Q156.5 97.0 167.25 96.25Q178.0 95.5 191.0 95.5Q204.0 95.5 215.25 96.25Q226.5 97.0 228.0 99.0Q232.0 103.0 249.0 103.0H266.0L249.5 91.5Q243.0 87.5 232.5 84.0Q222.0 80.5 213.5 80.5Q206.5 79.5 201.25 78.25Q196.0 77.0 196.5 75.0Q197.0 73.5 205.75 66.75Q214.5 60.0 226.5 52.5Q238.0 45.5 247.5 36.5Q257.0 27.5 258.5 22.0Z" fill="black" /></svg>