<svg xmlns="http://www.w3.org/2000/svg" width="593.5" height="383.5" viewBox="0 0 593.5 383.5"><path d="M50.5 334.0Q47.0 329.5 44.0 326.5Q41.0 323.5 40.0 323.5Q39.5 323.5 36.25 329.0Q33.0 334.5 30.25 340.75Q27.5 347.0 27.5 349.0Q27.5 349.5 32.5 349.0Q37.5 348.5 44.0 347.25Q50.5 346.0 54.5 345.0Q60.0 344.0 50.5 334.0ZM47.0 256.0Q40.5 251.0 37.0 251.0Q34.0 251.0 34.0 258.0Q34.0 262.0 35.25 263.0Q36.5 264.0 39.5 263.5Q44.5 261.0 49.0 261.0Q52.0 261.0 47.0 256.0ZM63.5 302.5Q61.5 299.0 57.0 299.0Q51.5 299.0 51.5 304.0Q51.5 308.5 52.75 309.0Q54.0 309.5 59.5 307.0Q64.5 305.5 63.5 302.5ZM77.5 230.5Q76.0 230.5 72.75 229.5Q69.5 228.5 67.0 228.0Q62.0 226.5 61.75 229.5Q61.5 232.5 66.5 238.5Q69.0 242.5 70.75 242.25Q72.5 242.0 77.0 237.0Q81.0 232.5 81.25 231.5Q81.5 230.5 77.5 230.5ZM139.0 266.5Q137.5 263.0 131.25 262.0Q125.0 261.0 106.0 261.0H75.5V277.5Q75.5 285.0 76.5 290.75Q77.5 296.5 79.0 297.0Q81.0 298.0 90.0 298.0Q94.5 298.0 100.0 297.75Q105.5 297.5 111.5 297.0L140.5 295.0V283.5Q140.5 278.5 140.25 273.5Q140.0 268.5 139.0 266.5ZM62.0 166.5 44.0 159.0Q36.5 155.5 31.25 153.25Q26.0 151.0 25.0 151.0Q24.5 151.0 24.0 155.75Q23.5 160.5 23.5 166.5Q23.5 172.5 24.5 176.75Q25.5 181.0 26.5 181.0Q27.5 180.0 33.25 178.0Q39.0 176.0 45.5 173.5ZM149.0 238.5 155.0 226.5H143.0Q134.0 226.5 133.0 227.5Q132.0 228.5 134.5 235.5Q139.5 248.0 142.5 248.0Q144.5 248.0 149.0 238.5ZM209.5 253.5Q212.0 253.0 207.75 250.5Q203.5 248.0 195.5 244.5L175.0 238.0V264.0L190.0 259.5Q196.5 257.0 202.0 255.5Q207.5 254.0 209.5 253.5ZM77.0 104.5 83.0 95.5H71.0Q62.0 95.5 61.0 96.75Q60.0 98.0 62.5 104.5Q66.5 112.5 68.5 112.5Q70.5 112.5 77.0 104.5ZM122.0 45.0Q116.5 42.5 111.75 40.5Q107.0 38.5 106.0 38.5Q105.0 38.5 103.5 44.25Q102.0 50.0 101.25 56.5Q100.5 63.0 101.5 64.5Q102.5 64.5 106.0 63.5Q109.5 62.5 114.5 61.0Q119.0 58.0 124.0 56.0Q129.0 54.0 131.0 53.5Q136.0 52.0 122.0 45.0ZM133.0 104.5Q136.0 98.0 135.0 96.75Q134.0 95.5 125.5 95.5H113.5L119.0 104.5Q124.5 112.5 127.0 112.5Q130.5 112.5 133.0 104.5ZM197.5 102.0Q196.0 99.0 192.0 99.0Q185.5 99.0 185.5 104.5Q185.5 109.0 187.0 109.25Q188.5 109.5 194.0 107.5Q196.5 106.5 197.5 104.75Q198.5 103.0 197.5 102.0ZM197.5 171.0Q196.0 168.0 192.0 168.0Q185.5 168.0 185.5 173.5Q185.5 178.0 187.0 178.25Q188.5 178.5 194.0 176.5Q199.5 174.0 197.5 171.0ZM194.0 136.0Q188.5 133.5 187.0 134.0Q185.5 134.5 185.5 139.0Q185.5 140.5 187.25 142.25Q189.0 144.0 191.0 144.0Q196.5 144.0 197.5 140.75Q198.5 137.5 194.0 136.0ZM194.0 205.0Q188.5 202.0 187.0 202.75Q185.5 203.5 185.5 208.0Q185.5 209.5 187.25 211.25Q189.0 213.0 191.0 213.0Q196.5 213.0 197.5 209.75Q198.5 206.5 194.0 205.0ZM283.0 34.5Q278.5 31.0 274.75 28.75Q271.0 26.5 270.5 26.5Q270.0 26.5 267.5 31.25Q265.0 36.0 262.0 42.25Q259.0 48.5 256.75 53.75Q254.5 59.0 254.5 60.0Q254.5 60.5 257.0 60.75Q259.5 61.0 263.0 61.0Q271.0 61.0 270.5 55.5Q270.5 51.5 274.0 50.5Q277.5 49.5 289.0 50.5Q301.5 51.0 303.75 50.25Q306.0 49.5 302.0 46.5Q299.0 45.0 293.75 41.5Q288.5 38.0 283.0 34.5ZM303.5 82.0 308.5 64.5H297.5Q288.0 64.5 286.75 66.75Q285.5 69.0 290.0 82.5Q294.5 96.0 297.0 96.0Q299.0 96.0 303.5 82.0ZM350.0 162.0Q351.5 161.0 345.25 160.0Q339.0 159.0 329.0 159.0L304.0 158.5V172.0Q304.0 177.5 304.5 181.5Q305.0 185.5 305.5 185.5Q306.0 185.5 312.25 182.25Q318.5 179.0 326.75 174.75Q335.0 170.5 341.75 166.75Q348.5 163.0 350.0 162.0ZM310.0 56.5Q310.0 54.0 308.0 54.0Q306.5 54.0 306.5 56.5Q306.5 58.0 308.0 58.0Q310.0 58.0 310.0 56.5ZM326.0 56.5Q327.0 55.5 326.25 54.75Q325.5 54.0 323.5 54.0Q322.0 54.0 321.25 54.75Q320.5 55.5 321.5 56.5Q324.0 58.5 326.0 56.5ZM542.0 115.5Q540.0 114.5 525.25 110.25Q510.5 106.0 488.5 99.75Q466.5 93.5 442.0 87.0Q417.5 80.5 395.75 74.75Q374.0 69.0 359.75 65.25Q345.5 61.5 344.0 61.5Q330.0 63.0 323.5 64.75Q317.0 66.5 314.25 72.5Q311.5 78.5 307.0 93.0Q304.5 104.0 302.0 115.75Q299.5 127.5 299.0 133.0Q298.0 142.0 299.75 144.25Q301.5 146.5 311.5 150.0Q315.5 151.0 319.25 151.75Q323.0 152.5 329.0 152.5Q337.5 152.5 352.75 150.75Q368.0 149.0 394.75 144.5Q421.5 140.0 464.5 133.0Q549.0 118.0 542.0 115.5ZM46.0 89.5Q46.5 88.5 50.75 88.25Q55.0 88.0 61.5 88.0Q73.0 88.0 84.75 89.0Q96.5 90.0 96.5 91.0Q96.5 92.0 93.5 96.0Q90.5 100.0 86.0 105.0Q79.5 113.0 77.5 118.75Q75.5 124.5 75.5 139.0V161.5H123.5V144.0Q123.5 135.5 121.0 125.5Q118.5 115.5 114.5 107.5Q110.5 99.5 106.0 97.5Q103.0 94.5 103.0 91.0Q103.0 87.5 116.5 87.5Q120.0 87.5 128.75 88.0Q137.5 88.5 145.5 89.25Q153.5 90.0 155.0 91.0Q155.5 91.5 153.0 94.25Q150.5 97.0 146.5 100.0Q131.0 113.5 131.0 144.0V161.5H179.0V123.0Q179.0 102.5 180.0 94.0Q181.0 85.5 184.5 85.5Q187.5 85.5 194.0 91.0Q198.0 94.5 207.0 96.0Q216.0 97.5 239.5 98.5Q256.0 99.0 267.25 100.5Q278.5 102.0 278.5 103.0Q278.5 104.0 269.25 105.0Q260.0 106.0 247.0 106.0Q228.5 106.0 218.75 107.5Q209.0 109.0 200.0 113.5L184.0 120.0L194.5 127.0Q201.0 131.5 210.0 132.5Q219.0 133.5 242.0 133.5Q258.0 133.5 268.25 134.5Q278.5 135.5 278.5 136.5Q278.5 138.5 270.75 139.5Q263.0 140.5 250.0 140.5Q235.0 140.5 220.75 142.75Q206.5 145.0 197.75 148.5Q189.0 152.0 190.0 155.5Q192.5 162.0 205.0 165.0Q217.5 168.0 243.5 168.0Q259.5 168.0 269.0 169.0Q278.5 170.0 278.5 171.0Q278.5 173.0 270.75 174.0Q263.0 175.0 250.0 175.0Q236.5 175.0 222.75 177.0Q209.0 179.0 199.25 182.0Q189.5 185.0 187.0 189.0Q186.0 192.5 195.5 197.5Q201.5 200.0 212.25 201.25Q223.0 202.5 242.5 202.5Q259.0 202.5 268.75 203.5Q278.5 204.5 278.5 205.5Q278.5 207.5 270.25 208.5Q262.0 209.5 248.5 209.5Q231.5 209.5 221.0 211.25Q210.5 213.0 199.0 217.5L179.0 226.0V168.0H131.0V180.0Q131.0 192.0 127.0 192.0Q123.5 192.0 123.5 180.0V168.0H75.5V180.0Q75.5 192.0 72.5 192.0Q68.5 192.0 68.5 184.0Q68.5 175.0 62.0 175.0Q55.5 175.0 36.5 185.5L17.0 196.0L17.5 167.5Q17.5 155.5 18.25 146.25Q19.0 137.0 20.0 136.0Q21.5 136.0 26.25 138.75Q31.0 141.5 36.5 145.5Q42.5 150.5 49.5 154.0Q56.5 157.5 60.5 157.5Q66.0 157.5 67.25 155.5Q68.5 153.5 68.5 145.5Q68.5 135.0 64.0 122.5Q59.5 110.0 51.5 100.0Q48.5 96.5 47.0 93.25Q45.5 90.0 46.0 89.5ZM253.0 49.0 260.0 29.5Q262.5 21.0 265.0 15.5Q267.5 10.0 267.5 10.0Q268.5 10.0 276.5 18.0Q279.0 21.5 286.0 26.75Q293.0 32.0 300.5 35.5Q308.5 39.5 341.25 50.0Q374.0 60.5 424.75 75.0Q475.5 89.5 536.5 106.0Q567.0 114.0 575.25 118.5Q583.5 123.0 569.0 123.0Q567.0 123.0 552.5 125.0Q538.0 127.0 516.5 130.75Q495.0 134.5 470.0 139.0Q438.5 144.0 419.75 147.75Q401.0 151.5 389.75 154.25Q378.5 157.0 370.5 160.5Q362.5 164.0 353.0 169.0Q342.0 174.5 329.25 181.75Q316.5 189.0 311.0 193.5L296.0 204.0L297.5 225.0V245.5L335.5 247.5Q368.0 248.5 363.25 251.5Q358.5 254.5 323.0 254.5Q296.0 254.5 296.0 258.0Q296.0 262.0 292.0 258.0Q288.0 254.0 267.5 254.0Q254.5 254.0 238.0 255.75Q221.5 257.5 208.0 261.0Q192.5 265.0 183.75 267.25Q175.0 269.5 171.0 269.5Q166.5 269.5 166.5 265.75Q166.5 262.0 167.0 253.5Q167.0 233.5 162.0 233.5Q158.5 233.5 154.0 244.0Q151.5 248.5 150.25 255.25Q149.0 262.0 148.5 274.0Q148.0 286.0 148.0 307.0Q148.0 328.5 147.0 343.5Q146.0 358.5 144.5 359.5Q140.5 359.5 140.5 331.5V301.5L110.5 304.0Q96.0 305.0 87.25 306.75Q78.5 308.5 77.0 311.5Q73.5 315.5 68.0 314.5Q64.0 313.0 56.5 317.5Q51.5 321.0 51.75 322.75Q52.0 324.5 57.5 331.0Q65.0 338.5 107.0 352.5Q125.0 357.5 138.25 362.5Q151.5 367.5 152.5 368.5Q159.0 373.5 149.75 372.25Q140.5 371.0 113.5 362.5Q95.0 356.5 85.75 354.25Q76.5 352.0 68.5 352.0Q61.5 352.0 50.0 353.5Q40.0 355.0 30.5 356.75Q21.0 358.5 17.5 359.5Q10.0 362.0 10.0 358.0Q10.0 354.0 13.0 354.0Q14.0 354.0 18.5 346.75Q23.0 339.5 27.5 328.5Q32.5 318.5 36.5 310.75Q40.5 303.0 41.5 303.0Q42.5 302.5 43.5 300.0Q44.5 297.5 44.5 295.5Q44.5 287.0 49.0 287.0Q51.5 287.0 57.5 290.5Q61.0 292.5 63.75 293.5Q66.5 294.5 67.0 294.0Q68.0 293.5 68.25 288.5Q68.5 283.5 68.0 277.0L67.0 261.0L47.5 268.0Q40.5 270.5 34.0 272.0Q27.5 273.5 26.5 273.0Q26.0 272.0 26.75 264.75Q27.5 257.5 29.25 250.0Q31.0 242.5 32.5 241.0Q33.5 240.0 36.75 241.5Q40.0 243.0 44.5 245.5Q54.5 251.0 58.5 251.0Q66.5 251.0 56.5 236.5Q53.0 231.0 50.25 226.5Q47.5 222.0 47.5 221.5Q47.5 220.5 54.5 220.75Q61.5 221.0 70.75 221.75Q80.0 222.5 87.5 223.25Q95.0 224.0 95.5 225.0Q96.5 225.5 94.25 228.5Q92.0 231.5 88.0 235.0Q75.5 246.5 79.5 250.5Q83.5 254.5 107.0 254.5Q127.5 254.5 130.75 253.5Q134.0 252.5 131.5 246.0Q131.0 243.5 129.25 239.0Q127.5 234.5 125.0 232.0Q120.0 224.0 120.75 220.75Q121.5 217.5 130.5 217.5Q134.0 217.5 142.5 218.25Q151.0 219.0 159.25 220.25Q167.5 221.5 168.5 223.0Q172.0 227.5 183.25 232.25Q194.5 237.0 210.25 240.5Q226.0 244.0 242.25 245.75Q258.5 247.5 272.0 247.0L287.5 245.5L289.0 205.5Q290.0 186.0 289.75 165.5Q289.5 145.0 288.5 126.75Q287.5 108.5 285.75 95.25Q284.0 82.0 281.5 77.5Q279.5 72.0 277.75 70.25Q276.0 68.5 271.5 68.5Q267.0 68.5 258.75 70.0Q250.5 71.5 246.5 73.5Q242.5 75.5 241.75 74.5Q241.0 73.5 242.0 69.0Q245.5 61.0 245.75 57.5Q246.0 54.0 237.75 53.25Q229.5 52.5 207.5 52.5Q205.5 52.5 203.5 52.5Q201.5 52.5 199.0 52.5Q173.5 53.0 158.0 54.5Q142.5 56.0 131.25 60.0Q120.0 64.0 107.0 72.0Q96.5 79.0 94.0 77.5Q94.0 77.5 94.25 68.75Q94.5 60.0 95.5 48.0L97.0 19.5L104.5 26.5Q111.0 32.5 119.0 36.0Q127.0 39.5 140.25 41.75Q153.5 44.0 175.0 45.5Q196.5 47.0 230.5 48.0Z" fill="black" /></svg>