<svg xmlns="http://www.w3.org/2000/svg" width="701.5" height="389.0" viewBox="0 0 701.5 389.0"><path d="M47.0 243.5Q44.5 239.5 42.0 239.5Q37.0 239.5 34.5 251.0Q33.0 259.5 34.0 260.25Q35.0 261.0 41.0 255.5Q44.5 252.0 46.25 248.5Q48.0 245.0 47.0 243.5ZM202.5 232.0Q206.0 227.5 207.75 223.5Q209.5 219.5 208.5 219.0Q207.0 219.0 198.25 224.5Q189.5 230.0 179.25 237.5Q169.0 245.0 161.25 251.0Q153.5 257.0 153.5 258.5Q153.5 259.5 161.5 263.0Q169.5 266.5 179.25 269.5Q189.0 272.5 192.5 272.5Q193.5 272.5 194.25 268.0Q195.0 263.5 195.0 258.0Q195.0 252.5 197.25 244.75Q199.5 237.0 202.5 232.0ZM243.0 322.5 232.0 314.0Q221.5 306.0 218.5 306.0Q214.0 306.0 214.0 324.5V343.0ZM267.5 309.5Q266.5 307.5 261.5 306.25Q256.5 305.0 250.0 305.0Q239.0 305.0 238.5 305.75Q238.0 306.5 245.5 312.0Q252.5 316.5 260.0 316.5Q264.5 316.5 267.25 314.75Q270.0 313.0 267.5 309.5ZM42.5 146.5Q47.5 141.0 47.5 138.25Q47.5 135.5 43.5 132.0Q41.0 130.0 39.0 130.0Q36.5 130.0 34.5 139.5Q32.0 152.0 33.5 153.25Q35.0 154.5 42.5 146.5ZM209.5 121.5Q215.5 111.0 212.0 111.0Q209.0 111.0 200.0 118.5Q195.0 122.5 189.0 127.25Q183.0 132.0 179.0 134.5Q171.0 140.0 172.75 142.5Q174.5 145.0 189.5 148.0Q195.5 149.5 199.0 149.5Q204.5 149.5 204.5 141.0Q204.5 137.0 206.0 131.25Q207.5 125.5 209.5 121.5ZM280.5 52.0Q277.0 52.0 271.25 50.0Q265.5 48.0 260.0 45.5L246.5 38.5L248.5 84.0L270.5 71.5Q286.5 62.5 289.25 57.25Q292.0 52.0 280.5 52.0ZM237.5 41.5Q237.5 10.0 243.0 10.0Q245.5 10.0 248.5 21.0Q251.5 32.5 270.0 40.0Q276.0 42.5 286.75 44.0Q297.5 45.5 318.5 46.25Q339.5 47.0 376.75 47.25Q414.0 47.5 474.0 47.5Q568.0 47.5 613.5 48.5Q659.0 49.5 659.0 52.0Q659.0 54.5 618.25 55.75Q577.5 57.0 494.0 57.0Q446.5 56.5 415.5 56.5Q384.5 56.5 365.5 57.0Q346.5 57.5 335.5 58.5Q324.5 59.5 317.5 61.25Q310.5 63.0 303.5 66.0Q278.0 76.0 259.75 89.0Q241.5 102.0 239.0 112.0Q236.0 123.0 231.0 118.0Q226.5 113.5 220.5 121.5Q217.0 126.0 215.25 133.0Q213.5 140.0 214.5 145.25Q215.5 150.5 218.5 150.5Q223.0 150.5 223.0 157.0Q223.0 160.0 230.5 166.0Q238.0 172.0 248.0 178.0Q270.0 191.0 282.5 201.25Q295.0 211.5 292.0 214.0Q291.0 215.5 284.0 211.75Q277.0 208.0 268.0 202.0Q252.0 190.0 245.5 190.0Q241.0 190.0 234.25 198.75Q227.5 207.5 220.75 219.5Q214.0 231.5 209.25 242.0Q204.5 252.5 204.5 256.0Q204.5 260.5 209.75 268.0Q215.0 275.5 222.75 282.5Q230.5 289.5 237.5 292.5Q243.0 294.5 302.5 295.5Q362.0 296.5 470.5 296.0Q549.0 295.5 597.75 295.75Q646.5 296.0 669.0 297.0Q691.5 298.0 691.5 300.0Q691.5 302.5 648.5 303.75Q605.5 305.0 508.5 305.0Q452.5 305.0 415.5 305.25Q378.5 305.5 356.0 306.25Q333.5 307.0 321.25 308.5Q309.0 310.0 301.5 312.0Q282.5 317.5 274.5 321.25Q266.5 325.0 267.5 329.0Q268.5 333.0 276.0 340.5Q281.5 345.5 284.25 350.25Q287.0 355.0 286.0 357.0Q285.5 357.5 284.5 357.5Q280.5 357.5 271.5 347.5Q267.0 342.0 261.0 337.5Q255.0 333.0 252.0 333.0Q246.0 333.0 236.25 339.0Q226.5 345.0 218.0 353.5Q209.5 362.0 206.5 369.5Q202.0 379.0 201.0 379.0Q200.5 379.0 198.0 371.5Q196.5 367.5 197.0 361.75Q197.5 356.0 199.5 352.5Q204.0 344.5 204.75 331.25Q205.5 318.0 203.5 306.0Q201.5 294.0 196.5 290.0Q188.5 283.0 173.5 277.75Q158.5 272.5 139.5 269.5L119.0 266.5L129.5 258.0L140.0 250.5L118.0 247.5Q96.5 244.5 85.0 244.5Q72.5 244.5 65.0 248.75Q57.5 253.0 48.0 263.5Q41.0 271.0 34.75 280.0Q28.5 289.0 26.5 294.0Q22.0 305.5 16.5 305.5Q11.5 305.5 14.5 294.5Q15.5 290.0 18.75 275.0Q22.0 260.0 25.0 243.0Q29.0 223.5 32.75 212.5Q36.5 201.5 38.5 201.5Q40.5 201.5 40.5 212.5Q40.5 223.0 44.25 228.25Q48.0 233.5 61.75 235.25Q75.5 237.0 105.0 238.0L162.0 240.0L197.5 213.5Q212.0 202.0 222.25 193.0Q232.5 184.0 232.5 182.5Q232.5 180.0 225.0 175.5Q217.5 171.0 207.0 166.25Q196.5 161.5 186.0 158.0Q175.5 154.5 169.5 154.5Q162.5 154.5 154.0 152.5Q145.5 150.5 141.25 148.5Q137.0 146.5 142.5 146.5Q148.5 145.5 148.5 141.0Q148.5 139.0 137.0 137.75Q125.5 136.5 107.0 136.5Q87.0 136.5 77.75 137.25Q68.5 138.0 63.5 141.0Q58.5 144.0 51.5 151.5Q45.5 158.0 39.0 167.0Q32.5 176.0 29.5 182.0Q23.5 194.0 16.75 197.0Q10.0 200.0 15.0 189.0Q16.0 186.5 18.5 173.5Q21.0 160.5 24.0 144.25Q27.0 128.0 29.0 114.5Q31.0 101.0 31.0 97.5Q31.0 94.5 36.0 94.5Q38.0 94.5 39.25 97.0Q40.5 99.5 40.5 103.0Q40.5 112.0 42.0 116.75Q43.5 121.5 50.0 123.75Q56.5 126.0 70.75 126.5Q85.0 127.0 110.5 127.0H175.0L202.5 105.5Q214.0 97.0 223.0 89.0Q232.0 81.0 233.5 79.0Q235.0 76.5 236.25 65.5Q237.5 54.5 237.5 41.5Z" fill="black" /></svg>