<svg xmlns="http://www.w3.org/2000/svg" width="805.5" height="455.0" viewBox="0 0 805.5 455.0"><path d="M109.5 307.0Q106.5 291.0 100.0 291.0Q97.0 291.0 93.25 293.5Q89.5 296.0 84.0 300.0Q70.0 312.0 71.25 315.75Q72.5 319.5 91.0 319.5Q105.0 319.5 108.25 316.75Q111.5 314.0 109.5 307.0ZM158.5 223.5Q158.5 218.0 154.0 218.0Q148.5 218.0 141.5 225.0Q132.0 234.5 134.25 242.0Q136.5 249.5 149.5 249.5Q159.0 249.5 161.75 247.25Q164.5 245.0 162.0 240.0Q160.5 234.5 159.5 230.25Q158.5 226.0 158.5 223.5ZM297.0 325.5 236.0 296.5Q201.0 280.5 173.75 271.5Q146.5 262.5 132.0 262.5Q121.0 262.5 118.0 267.5Q115.0 272.0 115.75 282.0Q116.5 292.0 120.25 302.75Q124.0 313.5 129.5 320.0Q131.5 322.0 142.75 328.75Q154.0 335.5 171.25 344.75Q188.5 354.0 207.5 363.5Q226.5 373.0 244.0 381.25Q261.5 389.5 273.25 394.75Q285.0 400.0 287.5 400.0Q288.5 398.5 290.0 387.25Q291.5 376.0 293.5 361.5ZM209.0 168.0Q209.0 163.5 205.75 160.5Q202.5 157.5 198.5 157.5Q196.5 157.5 194.0 159.0Q188.5 164.5 190.75 169.0Q193.0 173.5 199.5 173.5Q203.5 173.5 206.25 171.75Q209.0 170.0 209.0 168.0ZM310.5 236.5 259.0 211.5Q206.5 187.0 187.5 187.0Q179.5 187.0 175.5 191.0Q172.0 194.0 171.25 204.0Q170.5 214.0 172.5 225.5Q174.5 237.0 178.0 244.0Q179.5 247.0 192.0 255.25Q204.5 263.5 222.0 273.5Q239.5 283.5 257.0 292.75Q274.5 302.0 286.75 307.25Q299.0 312.5 300.5 311.0Q300.5 310.5 302.75 299.25Q305.0 288.0 306.5 273.0ZM328.5 246.0Q328.5 243.5 326.0 243.5Q322.5 243.5 322.5 246.0Q322.5 249.5 326.0 249.5Q328.5 249.5 328.5 246.0ZM274.5 82.5Q278.5 73.5 272.0 73.5Q267.5 73.5 261.0 80.0Q253.5 86.5 253.5 93.5Q253.5 96.0 256.5 96.0Q260.5 96.0 266.5 91.75Q272.5 87.5 274.5 82.5ZM303.0 126.5Q287.5 117.0 278.0 112.75Q268.5 108.5 261.5 108.5Q256.5 108.5 251.5 110.25Q246.5 112.0 240.0 115.5Q222.0 124.5 217.75 138.0Q213.5 151.5 222.0 167.5Q223.5 171.5 234.75 179.5Q246.0 187.5 260.75 196.25Q275.5 205.0 288.25 211.0Q301.0 217.0 305.5 217.0Q308.0 217.0 310.75 208.75Q313.5 200.5 316.25 189.25Q319.0 178.0 320.75 168.25Q322.5 158.5 322.5 155.5Q322.5 139.0 303.0 126.5ZM346.0 159.0Q349.0 155.0 341.0 155.0Q334.5 155.0 337.0 159.0Q341.0 161.5 346.0 159.0ZM545.5 151.0Q534.5 143.0 530.5 143.0Q524.5 143.0 524.5 158.5Q524.5 170.5 530.5 170.5Q531.5 170.5 533.0 170.25Q534.5 170.0 536.5 169.5Q550.5 164.0 552.25 160.75Q554.0 157.5 545.5 151.0ZM319.5 401.0Q318.0 398.5 315.25 396.25Q312.5 394.0 309.5 394.0Q307.5 394.0 305.5 396.25Q303.5 398.5 303.5 401.0Q303.5 403.5 306.5 405.5Q309.5 407.5 313.5 407.5Q322.5 407.5 319.5 401.0ZM326.0 313.0Q325.0 309.5 322.5 308.25Q320.0 307.0 319.0 307.0Q316.0 307.0 316.0 313.0Q316.0 315.0 318.25 317.25Q320.5 319.5 323.0 319.5Q325.5 319.5 326.5 317.25Q327.5 315.0 326.0 313.0ZM492.0 294.5Q491.0 277.0 490.25 268.0Q489.5 259.0 483.25 255.75Q477.0 252.5 459.5 252.5Q449.5 252.5 434.5 253.0Q419.5 253.5 398.5 254.5Q366.5 255.5 350.25 258.0Q334.0 260.5 328.0 267.0Q315.5 276.5 317.5 282.75Q319.5 289.0 337.0 300.0Q345.0 305.0 354.5 308.0Q364.0 311.0 379.75 312.0Q395.5 313.0 422.0 313.0Q453.5 313.0 469.5 314.5Q485.5 316.0 484.0 319.5Q481.5 322.5 459.5 323.75Q437.5 325.0 405.5 325.0Q374.5 325.0 359.25 326.0Q344.0 327.0 341.0 328.75Q338.0 330.5 342.5 334.0Q350.0 339.5 350.25 343.5Q350.5 347.5 345.0 347.5Q340.5 347.5 333.5 344.0Q329.0 341.5 323.5 341.5Q314.5 341.5 308.75 349.25Q303.0 357.0 306.5 367.5Q312.0 386.0 337.0 393.5Q362.0 401.0 413.5 400.0L477.0 398.0L475.0 372.5Q474.5 361.0 476.75 352.75Q479.0 344.5 484.0 341.5Q489.0 337.5 491.0 327.5Q493.0 317.5 492.0 294.5ZM525.5 244.0 540.0 239.0 525.5 231.5Q518.0 227.0 514.0 227.0Q510.5 227.0 508.0 233.0Q502.5 247.5 511.5 247.5Q517.0 247.5 525.5 244.0ZM511.0 392.0Q496.0 383.0 491.0 383.0Q486.0 383.0 486.0 396.0Q486.0 406.5 492.0 406.5Q496.0 406.5 500.5 404.5Q507.0 403.5 513.0 402.25Q519.0 401.0 521.5 401.0Q524.5 401.0 521.25 398.25Q518.0 395.5 511.0 392.0ZM530.5 313.0Q521.5 307.0 514.5 307.0Q505.5 307.0 505.5 316.5Q505.5 326.0 515.0 323.5Q525.5 319.5 532.5 319.5Q536.0 319.5 535.5 317.5Q535.0 315.5 530.5 313.0ZM297.0 15.0Q297.0 10.0 307.0 10.0Q312.5 10.0 311.75 14.5Q311.0 19.0 303.5 34.0Q298.0 44.0 293.0 57.5Q288.0 71.0 287.0 80.0Q285.0 94.0 287.5 99.5Q290.0 105.0 300.5 111.0Q310.0 116.5 315.0 116.5Q320.0 116.5 320.5 111.5Q323.5 104.5 327.0 104.5Q333.5 104.5 337.5 119.0Q342.5 139.0 366.0 147.0Q389.5 155.0 442.5 155.0Q473.5 155.0 489.25 156.5Q505.0 158.0 502.5 160.5Q500.5 164.5 478.75 166.0Q457.0 167.5 425.5 167.5Q400.0 167.5 385.0 167.75Q370.0 168.0 361.75 169.5Q353.5 171.0 348.5 174.25Q343.5 177.5 337.5 183.5Q322.0 199.0 324.25 210.75Q326.5 222.5 348.0 232.5Q357.0 237.0 367.0 239.5Q377.0 242.0 392.25 242.5Q407.5 243.0 433.0 242.5L496.5 240.0L494.5 216.0Q493.5 203.0 495.0 197.75Q496.5 192.5 502.5 192.5Q508.0 192.5 509.5 183.25Q511.0 174.0 511.0 146.5V101.0L526.0 118.5Q535.5 130.0 546.5 137.25Q557.5 144.5 575.25 148.25Q593.0 152.0 621.0 153.5Q649.0 155.0 692.0 155.0Q721.0 155.0 744.5 155.75Q768.0 156.5 781.75 157.75Q795.5 159.0 795.5 160.5Q795.5 162.0 779.5 163.75Q763.5 165.5 736.75 167.0Q710.0 168.5 677.5 169.5Q631.5 170.0 603.0 171.5Q574.5 173.0 558.25 176.0Q542.0 179.0 533.75 184.75Q525.5 190.5 520.0 200.0Q515.0 208.0 517.0 211.5Q519.0 215.0 535.0 223.5Q544.0 227.5 559.0 230.0Q574.0 232.5 600.25 234.0Q626.5 235.5 669.0 236.5Q699.5 237.5 723.5 239.0Q747.5 240.5 760.25 241.75Q773.0 243.0 770.5 244.0Q768.0 245.5 750.0 247.0Q732.0 248.5 704.0 249.75Q676.0 251.0 643.5 251.0Q599.5 251.5 572.75 252.75Q546.0 254.0 533.0 256.0Q520.0 258.0 516.5 261.5Q504.0 271.5 507.25 279.75Q510.5 288.0 529.5 297.5Q537.0 301.0 546.0 303.75Q555.0 306.5 569.0 308.0Q583.0 309.5 605.5 310.25Q628.0 311.0 662.0 311.0Q691.5 312.0 716.25 313.25Q741.0 314.5 755.75 316.0Q770.5 317.5 770.5 319.5Q770.5 320.5 754.5 321.75Q738.5 323.0 712.0 324.5Q685.5 326.0 653.0 327.0Q613.5 327.5 589.0 328.25Q564.5 329.0 550.25 330.25Q536.0 331.5 528.0 334.0Q520.0 336.5 513.5 341.0Q504.5 346.5 499.25 352.0Q494.0 357.5 494.5 360.0Q496.0 362.0 504.5 368.25Q513.0 374.5 524.5 380.0Q534.5 385.0 543.0 388.0Q551.5 391.0 564.5 392.25Q577.5 393.5 599.0 393.75Q620.5 394.0 655.5 394.0Q706.0 394.0 731.5 395.75Q757.0 397.5 754.5 401.0Q752.5 403.5 722.75 405.5Q693.0 407.5 645.5 407.5Q592.0 407.5 558.25 409.75Q524.5 412.0 508.0 416.75Q491.5 421.5 488.0 430.0Q486.0 438.5 480.5 438.5Q478.0 438.5 475.75 435.0Q473.5 431.5 473.5 425.0Q473.5 420.5 471.75 417.75Q470.0 415.0 463.0 414.25Q456.0 413.5 440.0 413.5Q424.0 413.5 395.0 414.0Q366.5 414.5 350.0 415.5Q333.5 416.5 325.0 418.0Q316.5 419.5 312.25 422.5Q308.0 425.5 305.0 430.5Q296.0 445.0 290.0 445.0Q284.5 445.0 288.0 432.5Q290.0 426.5 284.75 421.0Q279.5 415.5 261.25 405.5Q243.0 395.5 205.0 377.5Q176.5 363.0 158.0 354.75Q139.5 346.5 127.25 342.25Q115.0 338.0 105.0 336.75Q95.0 335.5 83.5 336.0Q69.0 336.0 53.0 337.0Q37.0 338.0 29.0 340.0L10.0 345.5L33.0 327.5Q41.5 320.0 54.25 308.5Q67.0 297.0 76.0 289.0Q87.5 279.0 90.75 275.0Q94.0 271.0 90.5 271.0Q88.0 271.0 82.5 272.5Q73.0 274.5 77.0 268.5Q81.0 262.5 103.5 242.5Q116.0 230.5 131.75 213.0Q147.5 195.5 162.25 178.0Q177.0 160.5 186.5 147.5Q196.0 134.5 196.0 131.5Q196.0 130.5 203.0 122.75Q210.0 115.0 221.75 102.25Q233.5 89.5 247.0 75.0Q261.0 60.5 272.25 47.5Q283.5 34.5 290.25 25.75Q297.0 17.0 297.0 15.0Z" fill="black" /></svg>