<svg xmlns="http://www.w3.org/2000/svg" width="495.5" height="457.5" viewBox="0 0 495.5 457.5"><path d="M91.5 209.5 71.0 199.0Q63.0 195.0 53.25 186.75Q43.5 178.5 38.0 172.0L25.0 155.0V263.0L42.5 246.5Q49.5 239.5 59.0 231.5Q68.5 223.5 75.0 220.0ZM330.0 204.0Q325.5 201.5 318.0 195.25Q310.5 189.0 304.5 183.0L290.0 168.0V245.0L315.5 227.5Q331.0 216.5 333.75 212.5Q336.5 208.5 330.0 204.0ZM182.5 29.0Q182.5 27.0 175.0 25.75Q167.5 24.5 157.0 24.5Q143.0 24.5 137.5 26.25Q132.0 28.0 133.5 35.75Q135.0 43.5 141.5 62.0Q145.5 73.0 148.25 85.75Q151.0 98.5 151.5 105.5Q151.5 110.0 152.5 110.0Q155.5 110.0 167.0 78.0Q173.5 59.5 177.75 45.25Q182.0 31.0 182.5 29.0ZM222.5 47.5Q219.0 35.5 215.5 26.75Q212.0 18.0 211.0 18.0Q205.5 18.0 198.5 32.0Q191.5 46.0 185.0 68.0Q178.5 90.0 174.25 113.75Q170.0 137.5 170.0 157.0V201.0H208.0Q230.0 201.0 239.0 198.75Q248.0 196.5 250.0 191.0Q251.5 187.0 249.5 171.5Q247.5 156.0 243.25 134.0Q239.0 112.0 233.5 89.0Q228.0 66.0 222.5 47.5ZM280.5 35.0Q283.0 28.0 279.25 26.25Q275.5 24.5 259.0 24.5Q248.0 24.5 240.5 25.75Q233.0 27.0 233.0 29.0Q233.0 31.0 236.25 44.75Q239.5 58.5 243.5 76.0L254.5 119.0L265.0 82.5Q269.0 68.0 273.75 54.0Q278.5 40.0 280.5 35.0ZM116.0 21.0Q115.0 16.5 116.0 14.25Q117.0 12.0 124.25 11.0Q131.5 10.0 148.5 10.0Q155.5 10.0 172.5 10.25Q189.5 10.5 211.0 11.0Q232.5 11.5 252.75 12.0Q273.0 12.5 286.75 13.25Q300.5 14.0 301.5 15.0Q302.5 16.0 297.75 29.0Q293.0 42.0 286.0 60.5Q280.5 73.0 277.0 82.75Q273.5 92.5 271.75 104.75Q270.0 117.0 269.0 136.25Q268.0 155.5 267.5 187.0Q267.0 218.5 266.5 267.5Q266.0 312.5 265.5 351.0Q265.0 389.5 264.75 413.25Q264.5 437.0 264.5 439.0Q264.5 442.0 262.75 444.75Q261.0 447.5 258.5 447.5Q255.5 447.5 253.75 415.75Q252.0 384.0 252.0 326.5V206.5L238.0 210.0Q231.5 211.5 219.75 212.5Q208.0 213.5 197.0 213.5H170.0V330.0Q170.0 386.0 168.25 416.75Q166.5 447.5 164.0 447.5Q160.5 447.5 158.75 416.75Q157.0 386.0 157.0 330.0V213.5L141.5 210.0Q134.0 208.0 120.5 212.5Q107.0 217.0 91.0 226.5Q75.0 236.0 60.0 248.0Q45.0 260.0 33.5 273.0Q25.5 282.5 19.25 289.0Q13.0 295.5 11.0 295.5Q10.5 295.5 10.5 295.25Q10.5 295.0 10.5 295.0Q10.5 294.5 10.25 281.75Q10.0 269.0 10.25 248.0Q10.5 227.0 11.0 202.0Q14.0 112.5 20.5 112.5Q23.5 112.5 27.5 128.5Q28.5 135.0 37.0 147.25Q45.5 159.5 55.5 169.5Q65.0 179.0 72.0 184.75Q79.0 190.5 88.0 192.75Q97.0 195.0 111.25 195.25Q125.5 195.5 149.5 195.0Q152.5 195.0 151.25 179.25Q150.0 163.5 145.0 138.0Q140.0 112.5 132.5 81.75Q125.0 51.0 116.0 21.0ZM277.5 204.0Q277.5 184.5 278.0 168.0Q278.5 151.5 279.5 141.5Q280.5 131.5 282.0 131.5Q284.0 131.5 290.0 139.25Q296.0 147.0 302.5 157.5Q309.0 168.5 317.5 177.75Q326.0 187.0 331.0 189.5Q334.5 191.5 346.75 193.25Q359.0 195.0 377.0 196.0Q395.0 197.0 414.5 197.5Q443.5 198.0 464.5 199.25Q485.5 200.5 485.5 202.0Q485.5 205.0 474.0 207.5Q462.5 210.0 446.0 211.5Q429.5 213.0 414.5 213.0Q401.5 213.0 393.0 211.5Q380.5 209.0 363.75 214.25Q347.0 219.5 330.5 230.75Q314.0 242.0 301.0 258.0Q294.5 265.5 288.25 271.25Q282.0 277.0 281.0 277.0Q279.5 277.0 278.5 255.5Q277.5 234.0 277.5 204.0Z" fill="black" /></svg>