<svg xmlns="http://www.w3.org/2000/svg" width="602.0" height="458.0" viewBox="0 0 602.0 458.0"><path d="M295.0 233.5Q288.5 232.5 282.0 231.0Q275.5 229.5 273.0 228.0Q268.0 227.0 265.75 228.5Q263.5 230.0 262.0 237.0Q259.5 248.0 261.0 251.0Q262.0 252.0 269.5 250.75Q277.0 249.5 286.25 247.25Q295.5 245.0 302.25 242.75Q309.0 240.5 309.0 239.0Q309.0 237.5 305.0 235.75Q301.0 234.0 295.0 233.5ZM76.5 347.5Q73.0 338.0 70.0 331.5Q67.0 325.0 65.5 325.0Q64.0 325.0 59.75 329.0Q55.5 333.0 50.5 338.5Q45.5 344.0 42.25 348.25Q39.0 352.5 39.5 353.0Q40.5 354.0 48.75 357.25Q57.0 360.5 65.75 363.5Q74.5 366.5 76.5 367.5Q79.5 368.5 80.5 368.5Q82.5 368.5 81.5 364.25Q80.5 360.0 76.5 347.5ZM84.5 245.5Q84.5 243.5 82.5 243.5Q79.0 243.5 66.5 252.5Q59.0 259.0 58.0 261.25Q57.0 263.5 62.0 266.0Q64.5 268.0 67.5 269.25Q70.5 270.5 72.0 270.5Q73.5 270.5 76.5 265.5Q79.5 260.5 82.0 254.5Q84.5 248.5 84.5 245.5ZM135.5 259.0Q139.0 246.5 136.5 246.0Q134.0 245.5 122.5 255.5Q117.5 259.5 115.0 262.75Q112.5 266.0 114.5 266.0Q116.5 266.0 120.0 267.0Q123.5 268.0 126.5 269.0Q132.5 271.0 135.5 259.0ZM149.0 337.0Q144.5 322.5 140.5 322.5Q138.5 322.5 134.5 327.0Q129.0 333.0 131.5 337.5Q134.0 342.0 142.5 344.0Q149.0 345.5 150.0 344.25Q151.0 343.0 149.0 337.0ZM302.0 313.5Q291.0 311.0 281.5 308.75Q272.0 306.5 268.5 305.0Q264.5 303.0 262.25 306.0Q260.0 309.0 258.5 318.5Q256.5 330.0 257.25 335.0Q258.0 340.0 263.0 340.0Q267.5 340.0 275.0 337.0Q280.5 334.0 290.5 331.0Q300.5 328.0 308.5 327.0Q316.5 325.5 322.0 323.75Q327.5 322.0 327.5 320.5Q327.5 319.5 319.75 317.5Q312.0 315.5 302.0 313.5ZM437.0 256.0Q432.0 251.0 428.25 248.5Q424.5 246.0 418.5 245.0Q412.5 244.0 400.0 244.0Q387.0 244.0 369.0 244.75Q351.0 245.5 332.25 247.25Q313.5 249.0 296.75 252.5Q280.0 256.0 269.5 261.5Q260.0 267.0 260.5 278.0Q261.0 289.0 270.5 295.0Q280.5 302.5 315.5 307.0Q350.5 311.5 401.5 312.5L460.5 314.0L458.5 300.5Q457.5 287.5 452.25 277.5Q447.0 267.5 437.0 256.0ZM85.5 172.0Q88.0 163.0 84.5 163.0Q81.5 163.0 68.5 172.0Q60.5 177.5 59.25 179.5Q58.0 181.5 63.0 184.0Q65.0 184.5 66.75 184.75Q68.5 185.0 70.0 185.0Q82.5 185.0 85.5 172.0ZM145.5 211.0Q140.5 204.0 128.75 197.0Q117.0 190.0 108.5 190.0Q105.0 190.0 99.0 193.0Q94.0 195.0 94.0 201.0Q94.0 207.0 100.0 212.0Q107.0 217.5 109.0 213.0Q112.5 207.5 117.0 211.0Q120.0 214.0 110.0 225.5Q102.5 233.5 95.75 244.25Q89.0 255.0 89.0 259.0Q89.0 262.0 91.5 262.0Q97.5 262.0 124.5 241.5Q138.0 231.5 143.5 227.0Q149.0 222.5 148.75 219.25Q148.5 216.0 145.5 211.0ZM93.5 83.5Q93.5 78.0 92.0 78.0Q90.5 78.0 87.5 79.75Q84.5 81.5 79.0 85.0Q68.0 91.5 67.0 95.0Q66.0 98.5 74.0 101.5Q80.0 104.0 86.75 97.75Q93.5 91.5 93.5 83.5ZM145.5 120.5Q140.0 115.0 130.5 111.5Q121.0 108.0 112.5 108.0Q104.0 108.0 101.0 111.5Q99.0 114.0 101.0 118.75Q103.0 123.5 106.75 126.75Q110.5 130.0 113.5 128.5Q121.0 126.0 119.75 131.75Q118.5 137.5 107.5 151.0Q98.0 162.0 94.75 170.75Q91.5 179.5 95.5 179.5Q97.5 179.5 99.0 178.5Q111.0 171.0 124.25 161.75Q137.5 152.5 146.75 145.0Q156.0 137.5 156.0 136.0Q156.0 130.0 145.5 120.5ZM142.5 165.0Q142.5 163.0 140.5 163.0Q136.5 163.0 126.5 170.0Q117.0 177.0 116.75 180.75Q116.5 184.5 125.5 186.5Q134.0 189.5 139.0 178.5Q142.5 167.0 142.5 165.0ZM151.5 79.5Q151.5 77.5 149.5 77.5Q145.0 77.5 133.5 86.0Q127.0 92.0 126.0 94.5Q125.0 97.0 129.0 99.5Q131.5 101.5 134.5 102.75Q137.5 104.0 139.0 104.0Q140.0 104.0 143.0 98.75Q146.0 93.5 148.75 87.5Q151.5 81.5 151.5 79.5ZM294.0 104.0Q284.5 101.0 277.0 99.0Q269.5 97.0 265.5 97.0Q260.5 97.0 260.5 99.5Q260.5 101.0 259.5 104.5Q258.5 108.0 257.5 110.5Q254.5 117.5 262.0 117.5Q268.0 117.5 285.0 113.0Q296.0 109.5 297.75 107.75Q299.5 106.0 294.0 104.0ZM298.5 170.0Q292.0 169.0 285.5 167.25Q279.0 165.5 276.5 165.0Q270.5 162.5 267.5 174.5Q267.0 180.0 266.5 184.25Q266.0 188.5 266.5 189.0Q267.5 189.5 273.5 188.25Q279.5 187.0 287.75 184.75Q296.0 182.5 302.75 180.25Q309.5 178.0 311.0 176.5Q312.5 175.0 309.0 172.75Q305.5 170.5 298.5 170.0ZM447.0 192.0Q444.0 186.5 440.0 184.25Q436.0 182.0 424.5 181.5Q413.0 181.0 387.0 181.0Q352.5 181.5 324.75 185.5Q297.0 189.5 281.0 195.75Q265.0 202.0 265.0 210.0Q265.0 218.0 292.75 224.25Q320.5 230.5 369.0 232.5Q393.5 234.0 411.75 235.75Q430.0 237.5 431.5 239.0Q432.5 241.0 435.75 242.25Q439.0 243.5 442.5 244.5Q448.0 246.0 450.0 242.25Q452.0 238.5 452.5 224.5Q453.5 202.0 447.0 192.0ZM449.5 121.5 445.0 108.5 399.0 109.5Q379.0 109.5 362.5 110.0Q346.0 110.5 341.0 111.5Q315.0 115.5 294.0 120.25Q273.0 125.0 267.5 127.5Q262.5 131.0 262.75 133.0Q263.0 135.0 269.5 145.0Q275.0 152.5 281.75 156.0Q288.5 159.5 305.5 162.0Q328.5 165.5 354.0 168.0Q379.5 170.5 397.0 170.5Q418.0 170.5 419.5 167.5Q421.0 165.5 427.5 164.25Q434.0 163.0 441.5 163.0Q454.5 163.0 456.75 161.25Q459.0 159.5 457.0 148.5Q455.5 142.5 453.75 134.5Q452.0 126.5 449.5 121.5ZM476.0 174.0Q476.0 172.0 462.5 172.0Q451.5 172.0 450.25 174.75Q449.0 177.5 455.0 189.0L461.5 200.0L468.5 188.5Q471.5 183.5 473.75 179.25Q476.0 175.0 476.0 174.0ZM498.5 259.0Q498.5 258.0 492.0 257.5Q485.5 257.0 476.0 257.0Q458.5 257.0 455.25 259.75Q452.0 262.5 459.5 272.5Q464.0 278.0 467.0 278.0Q470.0 278.0 482.0 270.5Q489.0 266.5 493.75 263.0Q498.5 259.5 498.5 259.0ZM521.0 229.0Q521.0 222.0 518.25 209.75Q515.5 197.5 509.5 187.25Q503.5 177.0 494.5 177.0Q487.0 177.0 479.75 187.25Q472.5 197.5 467.5 218.0Q463.5 233.5 463.25 239.75Q463.0 246.0 469.5 247.0Q476.0 248.0 492.0 248.0H521.0ZM539.5 174.5Q539.5 173.5 536.0 172.75Q532.5 172.0 528.5 172.0Q519.0 172.0 517.5 176.0Q516.0 180.0 522.0 191.0Q525.0 197.5 527.0 197.5Q528.5 197.5 531.25 192.5Q534.0 187.5 536.5 181.75Q539.0 176.0 539.5 174.5ZM462.5 26.0Q462.5 25.0 458.25 24.25Q454.0 23.5 448.5 23.5Q439.0 23.5 438.0 25.0Q437.0 26.5 440.5 33.5Q443.0 37.5 444.75 41.0Q446.5 44.5 448.0 45.5Q450.0 45.5 453.25 41.75Q456.5 38.0 459.5 33.25Q462.5 28.5 462.5 26.0ZM480.5 101.5Q481.5 100.5 476.75 100.0Q472.0 99.5 465.0 99.5Q454.0 99.5 451.75 100.75Q449.5 102.0 453.0 107.0Q456.5 110.5 460.5 110.5Q463.5 110.5 468.5 107.5Q472.5 105.5 476.25 103.75Q480.0 102.0 480.5 101.5ZM487.5 27.0Q483.5 23.5 480.5 23.5Q477.5 23.5 470.5 30.5Q467.5 34.0 463.75 42.75Q460.0 51.5 457.0 61.5Q454.0 71.5 452.5 79.0Q451.0 86.5 452.5 88.0Q453.5 89.0 462.0 89.75Q470.5 90.5 481.5 90.5H507.5V71.5Q507.5 58.5 502.0 45.5Q496.5 32.5 487.5 27.0ZM523.0 35.5 530.0 23.5H516.5Q505.5 23.5 504.25 26.25Q503.0 29.0 509.5 39.0Q513.5 44.0 515.0 44.0Q517.5 44.0 523.0 35.5ZM118.0 45.0Q122.0 42.0 125.5 44.5Q129.5 47.0 121.0 57.0Q115.5 63.0 110.0 72.0Q104.5 81.0 102.0 88.0Q99.5 95.0 102.0 95.0Q103.0 95.0 115.5 87.5Q128.0 80.0 144.5 69.0Q159.5 58.5 170.0 52.5Q180.5 46.5 183.0 46.5Q183.5 46.5 183.5 47.0Q183.5 49.5 181.0 53.75Q178.5 58.0 175.0 61.5Q171.5 64.0 166.75 71.75Q162.0 79.5 158.0 87.0Q153.0 99.0 152.75 104.0Q152.5 109.0 157.0 117.5Q159.5 122.5 163.75 125.25Q168.0 128.0 171.5 127.5Q180.0 126.5 178.25 130.5Q176.5 134.5 165.0 149.5Q151.5 166.5 147.75 180.25Q144.0 194.0 151.0 203.5Q158.0 214.0 166.0 211.0Q168.0 210.5 169.5 210.25Q171.0 210.0 172.0 210.0Q175.0 210.0 172.25 215.0Q169.5 220.0 159.0 235.5Q145.5 254.5 143.75 266.5Q142.0 278.5 150.0 291.5Q153.5 296.5 154.5 302.5Q155.5 308.5 154.5 313.5Q154.0 317.0 154.75 322.5Q155.5 328.0 158.0 331.5Q162.0 337.0 165.5 337.0Q169.0 337.0 175.25 333.75Q181.5 330.5 194.0 323.5Q205.5 317.0 215.0 313.25Q224.5 309.5 226.0 310.5Q227.0 311.0 224.25 315.75Q221.5 320.5 217.0 326.0Q205.5 340.0 209.5 344.0Q215.0 349.5 215.0 356.0Q215.0 358.5 213.5 358.5Q210.5 358.5 203.5 352.0Q191.0 343.5 182.0 343.5Q175.0 343.5 171.5 348.5Q170.5 350.5 172.25 354.0Q174.0 357.5 182.25 364.75Q190.5 372.0 208.0 386.5Q228.5 403.5 223.0 403.5Q216.0 403.5 189.5 383.0Q163.5 363.5 147.5 355.5Q131.5 347.5 115.5 347.5H101.0L122.0 326.0Q130.5 317.0 136.5 309.5Q142.5 302.0 142.5 300.5Q142.5 295.5 137.0 289.75Q131.5 284.0 123.75 279.75Q116.0 275.5 109.0 275.5Q95.0 275.5 92.0 280.25Q89.0 285.0 96.5 296.0Q99.0 301.0 100.25 305.25Q101.5 309.5 100.0 310.5Q98.5 312.0 96.25 310.25Q94.0 308.5 92.0 305.0Q74.0 276.0 49.0 276.0Q38.5 276.0 26.5 280.5Q20.5 282.5 16.0 283.25Q11.5 284.0 10.5 283.5Q10.0 282.5 21.5 273.75Q33.0 265.0 50.0 253.5Q68.0 241.0 80.75 231.5Q93.5 222.0 93.5 221.0Q93.5 217.5 87.75 211.25Q82.0 205.0 74.5 199.25Q67.0 193.5 62.0 192.0Q58.5 191.0 51.0 192.5Q43.5 194.0 36.5 196.5Q20.5 203.0 18.5 203.0Q16.5 203.0 16.5 200.0Q16.5 198.0 28.0 189.25Q39.5 180.5 55.0 170.0Q71.0 159.0 83.5 149.5Q96.0 140.0 96.5 137.5Q99.0 132.5 93.0 125.75Q87.0 119.0 77.75 113.75Q68.5 108.5 60.0 108.5Q55.0 108.5 48.75 110.25Q42.5 112.0 38.5 114.0Q35.0 116.0 31.0 116.75Q27.0 117.5 25.0 117.0Q23.0 116.0 35.25 106.0Q47.5 96.0 67.5 82.5Q88.0 68.5 102.75 57.75Q117.5 47.0 118.0 45.0ZM196.0 163.0Q221.5 149.5 228.5 149.5Q235.5 149.5 224.0 160.0Q218.0 167.0 216.75 172.0Q215.5 177.0 217.0 185.5L220.5 200.0L208.0 190.0Q200.5 184.5 194.75 183.0Q189.0 181.5 180.5 183.0Q174.0 184.5 170.0 184.5Q162.5 184.5 169.25 178.75Q176.0 173.0 196.0 163.0ZM196.0 241.5Q208.5 235.5 218.25 231.0Q228.0 226.5 229.5 226.5Q234.5 226.5 232.75 231.0Q231.0 235.5 224.0 241.5Q216.5 248.0 215.5 256.75Q214.5 265.5 219.5 269.0Q224.5 271.5 221.5 276.0Q221.0 277.0 219.0 277.0Q215.0 277.0 209.5 270.5Q203.5 264.5 198.5 263.25Q193.5 262.0 183.5 263.5Q176.0 264.0 170.5 263.5Q165.0 263.0 165.0 261.5Q165.0 259.5 174.25 254.0Q183.5 248.5 196.0 241.5ZM409.0 13.5Q409.0 12.0 432.0 11.0Q455.0 10.0 487.5 10.0Q521.0 10.0 538.0 10.5Q555.0 11.0 560.75 12.25Q566.5 13.5 566.5 16.0Q566.5 23.5 555.5 23.5Q545.5 23.5 536.25 34.0Q527.0 44.5 522.0 61.5Q518.0 76.5 518.0 82.5Q518.0 88.5 526.5 89.75Q535.0 91.0 556.5 91.5Q592.0 91.5 586.25 95.0Q580.5 98.5 535.0 104.0Q517.0 106.5 500.0 109.75Q483.0 113.0 477.0 116.0Q466.5 120.5 464.25 123.75Q462.0 127.0 464.0 136.5Q465.5 142.0 466.25 148.0Q467.0 154.0 467.0 156.5Q467.0 160.0 478.5 161.5Q490.0 163.0 524.0 163.0Q550.0 163.0 565.0 164.25Q580.0 165.5 580.0 167.5Q580.0 169.0 577.25 170.5Q574.5 172.0 571.0 172.0Q558.5 172.0 548.25 184.75Q538.0 197.5 533.0 220.0Q530.5 232.5 529.75 241.0Q529.0 249.5 530.0 251.0Q532.5 251.5 538.0 251.25Q543.5 251.0 550.0 250.0Q559.0 248.5 563.0 248.5Q572.0 248.5 562.0 253.5Q552.0 258.5 531.0 263.5Q510.0 268.5 499.25 272.0Q488.5 275.5 483.75 280.0Q479.0 284.5 475.0 293.5Q470.0 302.0 470.0 305.75Q470.0 309.5 474.0 313.5Q480.5 318.5 476.0 322.5Q474.5 323.5 473.0 330.75Q471.5 338.0 471.5 347.5Q471.5 357.0 470.25 363.75Q469.0 370.5 467.0 370.5Q465.5 370.5 464.0 363.5Q462.5 356.5 462.5 347.5V325.0H412.5Q390.5 325.0 367.25 327.25Q344.0 329.5 323.0 333.0Q302.0 336.5 286.5 341.25Q271.0 346.0 264.0 351.5Q259.0 355.5 254.75 357.25Q250.5 359.0 249.5 357.5Q248.0 356.5 248.0 346.25Q248.0 336.0 248.5 323.5Q252.5 271.5 254.75 237.5Q257.0 203.5 258.0 183.5Q259.0 163.5 258.75 153.5Q258.5 143.5 257.25 140.0Q256.0 136.5 254.0 135.0Q250.0 132.5 249.0 126.0Q248.0 119.5 249.5 100.5Q250.5 84.5 253.5 74.0Q256.5 63.5 258.5 63.5Q260.5 63.5 260.5 74.0Q260.5 82.0 268.25 86.75Q276.0 91.5 296.25 94.0Q316.5 96.5 354.5 98.5Q368.0 99.0 378.0 99.25Q388.0 99.5 394.5 99.5Q407.5 99.5 412.25 98.0Q417.0 96.5 419.0 93.0Q423.0 86.0 431.5 88.5Q439.5 91.0 442.25 84.25Q445.0 77.5 443.25 66.75Q441.5 56.0 436.0 44.75Q430.5 33.5 421.5 27.0Q416.5 23.0 412.75 19.0Q409.0 15.0 409.0 13.5ZM198.0 69.5Q209.5 64.0 218.75 59.5Q228.0 55.0 229.5 55.0Q234.5 55.0 232.75 59.75Q231.0 64.5 224.0 70.5Q216.0 77.0 215.25 84.75Q214.5 92.5 220.5 98.5Q223.0 102.0 223.0 103.0Q223.0 104.0 219.5 104.0Q214.0 104.0 207.0 97.0Q200.0 90.0 184.5 91.5Q166.5 92.5 170.0 87.5Q173.5 82.5 198.0 69.5ZM12.0 365.0 73.0 299.5 75.5 318.0Q79.5 341.5 93.25 362.5Q107.0 383.5 134.5 409.5Q149.0 423.5 159.5 434.25Q170.0 445.0 170.0 447.5Q170.0 447.5 170.0 447.75Q170.0 448.0 169.5 448.0Q167.5 448.0 157.25 440.0Q147.0 432.0 132.5 420.0Q97.5 389.5 74.25 376.75Q51.0 364.0 32.0 365.0Z" fill="black" /></svg>