<svg xmlns="http://www.w3.org/2000/svg" width="393.5" height="466.0" viewBox="0 0 393.5 466.0"><path d="M173.0 173.5Q173.0 172.0 164.75 171.5Q156.5 171.0 145.0 171.0H117.0L127.0 184.5Q131.0 190.5 134.75 197.25Q138.5 204.0 139.5 208.0Q141.0 212.5 143.0 212.5Q146.0 212.5 157.5 196.0Q164.5 188.0 168.75 181.0Q173.0 174.0 173.0 173.5ZM87.0 85.5Q77.5 83.0 65.25 77.75Q53.0 72.5 44.5 67.5L23.0 55.0V130.0L39.0 120.0Q46.0 116.0 58.25 111.75Q70.5 107.5 81.5 104.5Q92.5 102.0 100.25 99.5Q108.0 97.0 108.0 95.5Q108.0 94.5 101.75 91.5Q95.5 88.5 87.0 85.5ZM363.5 28.5Q363.5 27.5 352.75 26.25Q342.0 25.0 326.0 25.0Q310.5 25.0 299.25 26.25Q288.0 27.5 288.0 29.5Q288.0 31.0 291.75 36.75Q295.5 42.5 301.0 49.5Q305.5 57.0 310.25 66.5Q315.0 76.0 316.0 82.0Q317.5 88.5 319.5 94.5Q321.5 100.5 322.5 102.0Q324.5 102.0 331.0 92.25Q337.5 82.5 344.75 69.0Q352.0 55.5 357.5 43.75Q363.0 32.0 363.5 28.5ZM123.5 379.0Q112.0 375.5 99.0 370.25Q86.0 365.0 79.0 361.0L62.5 352.0V389.0Q62.5 408.5 63.0 415.75Q63.5 423.0 66.0 423.0Q68.0 423.0 73.5 419.0Q77.5 416.5 91.75 411.75Q106.0 407.0 121.5 403.5Q136.5 399.5 146.5 395.75Q156.5 392.0 154.0 391.0Q153.0 389.5 143.75 386.0Q134.5 382.5 123.5 379.0ZM137.0 159.0Q156.5 158.0 173.0 157.5Q189.5 157.0 192.0 156.5Q197.5 155.5 198.0 160.0Q198.5 164.5 193.0 168.0Q182.0 174.5 194.75 177.75Q207.5 181.0 248.5 181.0Q277.5 181.0 292.75 182.0Q308.0 183.0 308.0 185.5Q308.0 191.0 242.0 190.0L176.0 189.0L162.5 209.0L148.5 228.0L154.0 380.0L172.0 384.5Q177.0 385.5 192.5 386.0Q208.0 386.5 229.25 386.75Q250.5 387.0 273.5 386.5Q296.5 386.5 316.75 387.0Q337.0 387.5 351.25 388.25Q365.5 389.0 369.0 390.0Q375.0 392.5 352.75 394.25Q330.5 396.0 275.5 398.0Q173.0 400.0 121.5 411.5Q70.0 423.0 60.0 445.0Q56.5 456.0 52.5 456.0Q51.5 456.0 50.75 437.0Q50.0 418.0 50.0 391.0Q50.0 364.5 50.25 345.0Q50.5 325.5 51.0 325.5Q51.0 325.5 55.5 329.75Q60.0 334.0 65.5 339.5Q71.5 344.5 83.0 351.0Q94.5 357.5 106.75 363.0Q119.0 368.5 128.5 371.25Q138.0 374.0 139.5 372.0Q141.0 370.5 141.75 359.5Q142.5 348.5 142.5 331.75Q142.5 315.0 142.0 297.0Q141.5 279.0 140.25 263.0Q139.0 247.0 137.0 238.0Q131.0 211.5 122.0 196.0Q113.0 180.5 100.0 174.5Q83.5 167.0 91.5 163.75Q99.5 160.5 137.0 159.0ZM183.0 276.0Q176.0 275.5 179.75 274.5Q183.5 273.5 194.0 272.25Q204.5 271.0 218.5 270.25Q232.5 269.5 245.5 269.5Q264.0 269.5 280.25 270.75Q296.5 272.0 304.0 273.25Q311.5 274.5 302.5 275.0Q296.5 275.5 280.25 277.0Q264.0 278.5 245.5 278.5Q226.0 278.5 208.0 277.5Q190.0 276.5 183.0 276.0ZM183.0 216.0Q183.0 213.5 200.0 212.0Q217.0 210.5 245.5 210.5Q275.0 210.5 291.5 212.0Q308.0 213.5 308.0 216.0Q308.0 218.0 291.5 219.25Q275.0 220.5 245.5 220.5Q217.0 220.5 200.0 219.25Q183.0 218.0 183.0 216.0ZM183.0 246.0Q183.0 244.0 200.0 242.25Q217.0 240.5 245.5 240.5Q275.0 240.5 291.5 242.25Q308.0 244.0 308.0 246.0Q308.0 248.0 291.5 249.25Q275.0 250.5 245.5 250.5Q217.0 250.5 200.0 249.25Q183.0 248.0 183.0 246.0ZM183.0 301.0Q183.0 298.5 200.0 297.25Q217.0 296.0 245.5 296.0Q275.0 296.0 291.5 297.25Q308.0 298.5 308.0 301.0Q308.0 303.0 291.5 304.25Q275.0 305.5 245.5 305.5Q217.0 305.5 200.0 304.25Q183.0 303.0 183.0 301.0ZM183.0 331.0Q183.0 329.0 200.0 327.25Q217.0 325.5 245.5 325.5Q275.0 325.5 291.5 327.25Q308.0 329.0 308.0 331.0Q308.0 333.0 291.5 334.75Q275.0 336.5 245.5 336.5Q217.0 336.5 200.0 334.75Q183.0 333.0 183.0 331.0ZM183.0 361.0Q183.0 359.0 200.0 357.75Q217.0 356.5 245.5 356.5Q275.0 356.5 291.5 357.75Q308.0 359.0 308.0 361.0Q308.0 363.5 291.5 365.0Q275.0 366.5 245.5 366.5Q217.0 366.5 200.0 365.0Q183.0 363.5 183.0 361.0ZM263.5 17.5Q263.5 13.5 269.5 13.5Q272.0 13.5 275.75 14.25Q279.5 15.0 284.5 16.0Q295.5 18.0 305.5 19.0Q315.5 20.0 325.0 20.0Q347.5 20.0 362.5 14.0Q369.5 12.0 375.25 11.0Q381.0 10.0 381.5 11.5Q383.5 12.5 379.75 22.5Q376.0 32.5 369.0 44.0Q357.0 65.5 349.5 79.5Q342.0 93.5 338.25 105.5Q334.5 117.5 333.25 133.75Q332.0 150.0 332.25 176.0Q332.5 202.0 333.5 244.0Q334.5 305.0 333.5 338.0Q332.5 371.0 330.0 371.0Q327.0 371.0 325.0 340.5Q323.0 310.0 321.5 257.0Q321.5 225.5 320.25 195.5Q319.0 165.5 317.25 143.25Q315.5 121.0 313.5 113.0Q308.5 89.0 298.0 66.75Q287.5 44.5 273.5 33.0Q269.5 29.0 266.5 24.25Q263.5 19.5 263.5 17.5ZM10.0 95.5Q10.0 61.5 11.5 46.25Q13.0 31.0 17.0 31.0Q20.5 31.0 26.5 40.5Q30.5 46.0 42.75 53.75Q55.0 61.5 72.0 69.0Q89.0 76.5 107.0 82.0Q123.0 87.0 146.75 88.5Q170.5 90.0 214.0 90.0Q251.0 90.0 272.25 91.5Q293.5 93.0 293.5 95.5Q293.5 97.5 274.5 98.75Q255.5 100.0 222.0 100.0Q140.5 100.0 94.25 110.5Q48.0 121.0 28.0 143.5Q22.0 150.0 17.0 155.5Q12.0 161.0 12.0 161.0Q11.5 161.0 10.75 142.0Q10.0 123.0 10.0 95.5Z" fill="black" /></svg>