<svg xmlns="http://www.w3.org/2000/svg" width="463.5" height="385.5" viewBox="0 0 463.5 385.5"><path d="M233.0 295.0Q232.5 294.5 219.25 293.5Q206.0 292.5 188.0 292.0L145.0 289.5L152.0 317.5Q155.0 329.0 157.75 337.75Q160.5 346.5 161.0 347.5Q164.0 347.5 172.5 338.0Q176.5 333.0 186.75 325.25Q197.0 317.5 207.5 311.5Q219.0 305.0 226.25 300.25Q233.5 295.5 233.0 295.0ZM64.0 202.5 55.5 194.0Q52.0 190.0 47.0 184.25Q42.0 178.5 39.0 173.5L30.5 162.5L28.0 179.5Q27.0 187.0 26.0 200.5Q25.0 214.0 24.75 226.25Q24.5 238.5 25.0 243.5Q25.0 244.0 25.5 244.0Q26.5 244.0 29.75 240.5Q33.0 237.0 37.0 232.0Q41.0 225.5 46.75 219.0Q52.5 212.5 55.5 209.5ZM189.5 83.5Q190.5 82.0 184.25 81.5Q178.0 81.0 169.5 81.0Q161.5 81.0 154.5 81.5Q147.5 82.0 146.0 83.5Q144.0 86.5 149.0 96.5Q151.5 100.5 154.25 108.75Q157.0 117.0 159.0 124.0Q162.5 138.0 164.0 138.0Q165.5 138.0 167.5 132.0Q170.0 126.0 174.75 115.75Q179.5 105.5 189.5 83.5ZM239.5 143.5Q237.0 140.0 227.0 140.0Q219.0 140.0 217.0 142.5Q215.5 144.0 217.5 150.0Q219.5 156.0 223.25 161.75Q227.0 167.5 229.5 167.5Q231.5 167.5 234.25 162.5Q237.0 157.5 239.0 151.5Q241.0 145.5 239.5 143.5ZM239.5 80.5Q230.0 77.5 221.75 75.25Q213.5 73.0 212.0 73.0Q209.5 73.0 204.25 79.75Q199.0 86.5 192.75 96.25Q186.5 106.0 181.75 115.75Q177.0 125.5 176.0 131.5Q175.0 135.5 174.25 148.0Q173.5 160.5 173.25 177.75Q173.0 195.0 173.0 214.0V283.0L183.0 285.5Q188.5 287.0 198.0 287.0Q210.5 287.0 227.0 285.0Q243.5 283.0 260.0 279.75Q276.5 276.5 288.0 272.5L314.0 263.5L317.0 232.5Q318.0 219.5 318.5 206.0Q319.0 192.5 318.0 187.0Q317.0 179.5 312.75 170.5Q308.5 161.5 304.0 154.75Q299.5 148.0 296.5 148.0Q295.5 148.0 292.25 153.5Q289.0 159.0 285.0 167.0Q280.0 178.5 278.5 190.75Q277.0 203.0 277.0 228.0Q277.0 245.0 276.0 257.75Q275.0 270.5 273.0 271.5Q269.0 271.5 269.0 227.5Q269.0 200.0 267.5 188.0Q266.0 176.0 262.0 168.0Q259.5 162.5 256.25 158.0Q253.0 153.5 251.0 153.0Q244.5 150.5 239.0 170.5Q233.5 190.5 231.5 226.0Q230.0 247.0 228.25 259.0Q226.5 271.0 224.5 271.0Q223.0 270.0 222.75 258.5Q222.5 247.0 224.0 228.5Q225.5 206.0 224.0 191.75Q222.5 177.5 217.75 167.0Q213.0 156.5 203.5 146.5L193.0 136.0H264.5Q295.5 136.0 315.75 135.0Q336.0 134.0 336.0 132.5Q336.0 128.5 327.5 122.0Q319.0 115.5 304.75 107.75Q290.5 100.0 273.5 92.75Q256.5 85.5 239.5 80.5ZM288.5 80.5Q285.0 75.5 280.5 65.75Q276.0 56.0 273.5 47.5L267.0 26.5L245.5 44.0Q236.5 51.0 230.0 57.25Q223.5 63.5 222.5 65.0Q222.5 66.0 227.25 68.5Q232.0 71.0 240.0 72.5Q247.5 74.5 257.25 78.25Q267.0 82.0 273.5 85.0Q287.0 92.5 291.5 92.5Q297.0 92.5 288.5 80.5ZM285.5 142.5Q284.5 141.0 281.75 140.5Q279.0 140.0 276.0 140.0Q272.0 140.0 268.0 141.0Q264.0 142.0 263.0 143.5Q262.0 145.5 263.75 151.25Q265.5 157.0 268.0 162.25Q270.5 167.5 272.5 167.5Q274.5 167.5 278.25 161.75Q282.0 156.0 284.5 149.75Q287.0 143.5 285.5 142.5ZM333.0 142.5Q330.5 140.0 323.5 140.0Q319.5 140.0 315.5 141.0Q311.5 142.0 310.5 144.0Q309.5 145.5 311.75 151.25Q314.0 157.0 317.25 162.25Q320.5 167.5 322.5 167.5Q324.0 167.5 327.0 161.75Q330.0 156.0 332.25 149.75Q334.5 143.5 333.0 142.5ZM398.5 183.0Q381.0 167.5 367.0 156.25Q353.0 145.0 352.0 144.5Q345.5 144.5 334.0 167.0Q330.5 173.5 328.25 187.0Q326.0 200.5 325.0 219.5Q323.5 246.5 324.25 252.5Q325.0 258.5 329.5 256.5Q332.0 255.5 347.5 250.5Q363.0 245.5 382.0 239.5Q401.0 234.0 416.75 229.0Q432.5 224.0 435.5 223.0Q439.5 221.5 432.5 213.75Q425.5 206.0 398.5 183.0ZM259.0 22.5Q264.0 17.0 268.25 13.5Q272.5 10.0 273.0 10.0Q274.0 10.0 275.75 15.75Q277.5 21.5 278.0 30.0Q280.0 45.0 284.25 56.5Q288.5 68.0 299.75 81.75Q311.0 95.5 333.25 115.75Q355.5 136.0 393.5 168.5Q410.0 182.5 423.75 194.75Q437.5 207.0 445.5 214.5Q453.5 222.0 453.5 223.0Q453.5 224.5 445.25 227.75Q437.0 231.0 425.5 234.0Q386.0 245.5 359.25 254.75Q332.5 264.0 328.0 267.5Q322.0 272.5 314.0 272.5Q310.0 272.5 296.0 278.0Q282.0 283.5 264.25 291.5Q246.5 299.5 230.25 307.75Q214.0 316.0 205.5 321.5Q190.0 331.0 178.25 343.25Q166.5 355.5 162.5 366.5Q159.0 375.5 156.0 375.5Q151.0 375.5 151.0 359.0Q151.0 352.0 148.75 338.75Q146.5 325.5 143.5 313.5Q140.0 302.0 138.25 292.5Q136.5 283.0 137.5 281.5Q138.5 280.0 142.5 279.5Q146.5 279.0 151.0 280.0L163.0 282.0V206.5H119.0Q99.0 206.5 89.0 207.0Q79.0 207.5 73.75 209.5Q68.5 211.5 62.5 216.0Q55.0 222.0 46.5 233.25Q38.0 244.5 31.25 256.25Q24.5 268.0 23.0 276.5Q20.5 289.0 14.5 289.0Q11.0 289.0 10.5 285.75Q10.0 282.5 11.0 272.5Q12.0 268.0 13.25 255.0Q14.5 242.0 16.25 224.0Q18.0 206.0 19.5 187.0Q22.0 159.0 23.75 138.25Q25.5 117.5 25.5 117.0Q25.5 116.5 29.0 116.5Q30.5 116.5 32.0 122.25Q33.5 128.0 34.0 136.5Q35.5 147.5 40.5 159.25Q45.5 171.0 53.0 180.25Q60.5 189.5 68.5 194.0Q73.0 196.0 87.25 197.5Q101.5 199.0 121.0 199.0H163.0V182.5Q163.0 172.5 159.25 155.25Q155.5 138.0 150.0 120.25Q144.5 102.5 139.0 92.0Q131.5 78.0 131.5 75.0Q131.5 74.0 141.25 73.5Q151.0 73.0 165.0 73.0Q179.0 73.0 188.75 72.0Q198.5 71.0 198.5 70.0Q198.5 69.0 205.75 63.0Q213.0 57.0 223.0 50.5Q233.0 43.5 243.5 35.5Q254.0 27.5 259.0 22.5Z" fill="black" /></svg>