<svg xmlns="http://www.w3.org/2000/svg" width="1159.0" height="338.5" viewBox="0 0 1159.0 338.5"><path d="M105.5 263.5Q94.5 262.5 80.0 261.25Q65.5 260.0 57.0 258.0L36.5 253.0V298.5L60.5 292.0Q70.0 289.0 89.0 284.75Q108.0 280.5 124.5 277.5Q150.5 273.5 155.5 271.5Q160.5 269.5 151.0 267.5Q144.5 265.5 131.25 264.75Q118.0 264.0 105.5 263.5ZM117.5 162.0Q118.5 155.0 119.25 150.75Q120.0 146.5 119.0 146.5Q118.5 146.5 114.25 150.75Q110.0 155.0 103.0 162.0L88.0 178.5H101.5Q110.0 178.5 113.25 175.0Q116.5 171.5 117.5 162.0ZM808.5 170.5Q808.5 157.5 806.0 157.5Q803.5 157.5 801.5 167.5Q801.0 172.0 801.25 176.0Q801.5 180.0 803.5 181.5Q805.5 182.5 807.0 179.5Q808.5 176.5 808.5 170.5ZM860.0 236.5Q855.0 236.5 838.5 232.5Q822.0 228.5 804.5 223.5Q788.5 219.0 776.5 215.75Q764.5 212.5 761.5 212.5Q761.0 212.5 761.0 212.5Q761.0 212.5 761.0 212.5Q761.0 212.5 767.25 217.25Q773.5 222.0 782.0 227.5Q791.0 233.5 803.25 243.0Q815.5 252.5 824.0 260.5L844.0 278.5L858.5 260.5Q871.0 243.5 871.25 240.0Q871.5 236.5 860.0 236.5ZM967.0 235.5Q967.0 231.0 959.0 231.0Q955.5 231.0 953.5 233.5Q951.5 236.0 951.5 239.0Q951.5 246.0 959.0 243.5Q967.0 241.0 967.0 235.5ZM845.5 108.5Q845.5 98.5 832.0 98.5Q826.0 98.5 823.25 100.5Q820.5 102.5 820.0 111.0Q819.5 119.5 819.5 139.0Q819.5 156.0 820.75 165.75Q822.0 175.5 824.0 175.5Q826.5 174.0 830.0 165.5Q833.5 157.0 837.0 145.75Q840.5 134.5 843.0 124.25Q845.5 114.0 845.5 108.5ZM847.5 188.5Q848.5 187.5 847.75 182.75Q847.0 178.0 845.5 173.0Q842.5 162.5 842.0 162.5Q841.0 162.5 839.5 171.5Q838.0 178.0 840.0 183.75Q842.0 189.5 845.0 189.5Q846.5 189.5 847.5 188.5ZM884.0 123.0Q885.0 108.0 883.0 104.5Q881.0 101.0 871.0 100.0L856.0 98.5V140.5Q856.0 142.5 856.25 149.75Q856.5 157.0 857.0 165.5Q857.5 174.0 858.75 180.0Q860.0 186.0 862.0 186.0Q866.0 186.0 870.75 175.25Q875.5 164.5 879.5 149.75Q883.5 135.0 884.0 123.0ZM885.5 192.5Q889.0 189.0 887.0 179.5Q886.0 172.5 884.75 172.75Q883.5 173.0 880.5 180.0Q878.5 186.0 879.25 190.25Q880.0 194.5 882.0 194.5Q883.5 194.5 885.5 192.5ZM926.5 142.0Q917.0 137.0 909.25 133.5Q901.5 130.0 900.5 130.0Q900.0 130.0 899.25 137.75Q898.5 145.5 899.5 155.5Q900.0 166.5 901.75 172.75Q903.5 179.0 908.75 184.5Q914.0 190.0 924.5 198.5Q940.5 211.0 948.5 211.0Q958.5 211.0 963.5 188.5Q967.0 175.0 957.75 164.0Q948.5 153.0 926.5 142.0ZM954.5 110.0Q934.5 107.5 923.0 106.0Q911.5 104.5 906.0 104.5Q901.0 104.5 899.5 105.5Q898.0 106.5 898.0 108.5Q898.0 112.0 908.75 119.0Q919.5 126.0 936.0 134.25Q952.5 142.5 969.75 149.25Q987.0 156.0 1000.0 159.5Q1002.5 160.0 1004.75 160.25Q1007.0 160.5 1008.5 160.5Q1012.5 160.5 1013.25 156.75Q1014.0 153.0 1014.0 142.0Q1014.0 133.0 1013.0 127.75Q1012.0 122.5 1007.0 119.75Q1002.0 117.0 989.5 115.0Q977.0 113.0 954.5 110.0ZM999.0 169.5Q999.0 167.5 988.5 167.5Q978.0 167.5 976.0 181.5L973.5 194.5L986.0 183.0Q991.0 177.5 995.0 173.75Q999.0 170.0 999.0 169.5ZM1009.5 191.0Q1009.5 183.5 1005.5 183.5Q1000.5 183.5 984.0 200.5Q970.0 214.5 970.75 220.0Q971.5 225.5 986.5 225.5Q996.0 225.5 1002.75 215.25Q1009.5 205.0 1009.5 191.0ZM1022.0 256.0Q1017.5 229.5 1013.5 229.5Q1010.0 229.5 1004.5 245.0Q1001.5 253.5 998.75 261.5Q996.0 269.5 995.0 271.5Q992.5 278.5 1008.5 278.5Q1021.0 278.5 1022.75 275.75Q1024.5 273.0 1022.0 256.0ZM149.0 88.5Q150.5 81.5 150.75 76.75Q151.0 72.0 151.0 72.0Q149.5 73.0 145.0 77.25Q140.5 81.5 135.25 86.75Q130.0 92.0 126.0 96.25Q122.0 100.5 122.0 101.5Q122.0 104.0 134.0 104.0Q142.0 104.0 145.0 101.0Q148.0 98.0 149.0 88.5ZM242.0 165.5Q246.0 156.0 245.5 154.0Q245.0 152.0 238.0 152.0Q229.5 152.0 228.25 155.0Q227.0 158.0 232.0 169.5Q234.5 175.5 235.5 175.5Q236.5 175.5 242.0 165.5ZM306.5 104.0Q296.5 97.0 285.5 88.25Q274.5 79.5 269.0 74.5L255.5 61.5L244.5 81.5L234.5 103.0L269.0 108.5Q283.5 111.5 297.5 114.25Q311.5 117.0 317.0 118.0Q324.5 120.0 322.5 117.0Q320.5 114.0 306.5 104.0ZM304.0 176.0Q306.0 173.0 304.25 170.0Q302.5 167.0 299.5 166.0Q295.0 164.0 292.5 168.0Q290.0 172.0 291.0 177.5Q292.0 183.0 296.0 186.5Q301.5 189.0 301.5 186.5Q301.5 184.5 304.0 176.0ZM1014.0 100.5Q1014.0 94.0 1013.5 94.0Q1013.0 94.5 1006.0 95.75Q999.0 97.0 990.5 98.5L969.5 102.0L992.5 104.5Q1004.5 105.5 1009.25 104.75Q1014.0 104.0 1014.0 100.5ZM1112.0 105.5Q1114.5 93.5 1113.25 91.0Q1112.0 88.5 1103.0 89.5Q1037.5 94.5 1028.5 100.5Q1019.5 106.5 1065.0 117.5Q1081.5 121.0 1094.0 123.0Q1106.5 125.0 1107.0 124.5Q1108.5 121.0 1112.0 105.5ZM153.5 53.0Q187.0 21.0 194.5 21.0Q200.5 21.0 186.5 40.0Q172.0 59.0 165.75 74.75Q159.5 90.5 163.0 94.5Q168.0 100.0 166.0 106.0Q164.5 109.5 171.5 114.75Q178.5 120.0 190.0 125.25Q201.5 130.5 214.75 134.5Q228.0 138.5 239.0 139.5Q255.0 141.5 259.25 143.5Q263.5 145.5 261.0 151.5Q241.0 196.0 238.75 225.25Q236.5 254.5 253.5 256.5Q254.5 256.5 255.75 256.5Q257.0 256.5 258.5 256.5Q263.0 256.5 268.75 256.0Q274.5 255.5 278.5 254.5Q285.0 253.0 287.75 251.0Q290.5 249.0 290.25 242.5Q290.0 236.0 288.0 221.5Q286.5 209.5 283.25 195.5Q280.0 181.5 277.0 173.5Q273.5 166.5 271.75 160.0Q270.0 153.5 270.0 152.0Q270.0 150.5 277.0 151.0Q284.0 151.5 293.75 153.0Q303.5 154.5 311.5 156.5Q319.5 158.5 321.5 160.0Q322.5 161.0 320.5 167.0Q318.5 173.0 314.5 181.5Q311.0 190.0 307.25 203.5Q303.5 217.0 302.0 227.5L299.5 253.0L325.5 250.0Q333.0 249.0 347.75 247.75Q362.5 246.5 381.0 244.75Q399.5 243.0 417.5 242.0Q436.0 240.0 454.75 238.25Q473.5 236.5 488.75 235.25Q504.0 234.0 511.5 233.0L539.0 230.0L455.0 188.5Q417.5 169.5 378.0 152.75Q338.5 136.0 297.25 125.5Q256.0 115.0 213.0 115.0Q212.5 115.0 216.0 109.25Q219.5 103.5 224.5 96.0Q230.0 87.5 235.75 75.75Q241.5 64.0 244.0 56.0Q246.5 47.5 249.25 41.5Q252.0 35.5 253.5 35.5Q254.5 35.5 258.0 40.0Q261.5 44.5 265.0 50.5Q277.0 72.0 330.75 106.5Q384.5 141.0 475.5 186.5Q510.5 204.0 529.75 214.5Q549.0 225.0 556.0 230.25Q563.0 235.5 560.0 238.0Q559.5 238.5 543.75 240.25Q528.0 242.0 503.5 244.5Q479.0 247.0 450.5 249.5Q422.0 252.0 395.5 254.25Q369.0 256.5 349.75 258.25Q330.5 260.0 324.0 260.5L301.5 264.0V289.5Q301.5 299.5 300.0 308.25Q298.5 317.0 295.0 318.5Q290.5 318.5 290.5 292.0V263.5L271.0 266.0Q255.5 268.0 248.5 270.0Q241.5 272.0 239.75 276.0Q238.0 280.0 238.0 289.0Q238.0 295.5 236.5 300.5Q235.0 305.5 232.5 305.5Q230.5 305.5 228.75 300.5Q227.0 295.5 227.0 289.0Q227.0 281.0 226.0 277.5Q225.0 274.0 216.0 274.0Q208.0 274.0 192.75 276.5Q177.5 279.0 149.5 283.5Q94.5 293.0 64.75 302.25Q35.0 311.5 23.0 323.0Q17.0 328.5 13.0 328.5Q10.0 328.5 11.5 322.75Q13.0 317.0 19.0 307.0Q24.5 300.0 25.75 291.25Q27.0 282.5 24.5 267.5L22.0 240.5L39.0 244.5Q48.5 246.0 67.75 248.25Q87.0 250.5 110.0 252.25Q133.0 254.0 155.25 255.5Q177.5 257.0 193.0 257.0H229.5L226.5 215.5Q225.0 190.0 221.0 175.5Q217.0 161.0 207.5 151.5Q198.0 142.0 180.0 133.0Q169.5 127.5 160.75 124.0Q152.0 120.5 151.0 120.5Q149.0 120.5 145.0 126.75Q141.0 133.0 136.75 142.0Q132.5 151.0 129.5 159.0Q126.5 167.0 126.5 170.5Q126.5 173.5 128.5 176.0Q130.5 178.5 132.5 178.5Q137.0 178.5 135.5 183.0Q134.5 184.5 141.25 190.5Q148.0 196.5 158.0 203.0Q169.5 210.0 177.25 216.75Q185.0 223.5 185.0 225.5Q185.0 230.5 180.0 230.5Q175.0 230.5 171.5 225.5Q169.0 221.0 159.0 215.25Q149.0 209.5 135.75 204.25Q122.5 199.0 108.5 195.0Q94.5 191.0 83.5 190.5L54.0 187.0L73.0 173.0Q81.0 167.0 93.25 156.25Q105.5 145.5 113.5 136.5L134.0 115.0H108.5L82.0 114.0L97.5 103.0Q104.5 98.0 121.0 83.5Q137.5 69.0 153.5 53.0ZM817.0 13.0Q820.0 10.0 821.5 10.0Q824.0 10.0 824.25 18.25Q824.5 26.5 824.0 47.5Q823.0 65.0 823.25 73.25Q823.5 81.5 825.75 83.75Q828.0 86.0 833.0 87.0Q851.0 90.5 851.0 47.5Q851.0 33.0 854.0 23.5Q857.0 14.0 861.0 16.5Q862.5 17.5 862.5 27.25Q862.5 37.0 861.0 50.0Q859.0 67.5 859.0 75.75Q859.0 84.0 862.25 86.25Q865.5 88.5 873.5 88.5Q892.5 88.5 892.5 40.5Q892.5 33.5 894.5 29.25Q896.5 25.0 899.0 25.0Q905.5 25.0 902.0 57.0L899.5 89.5L958.5 87.0L1017.0 85.5L1019.0 54.5Q1020.5 25.5 1025.5 25.5Q1030.5 25.5 1030.5 54.5V84.5L1073.0 81.5Q1092.5 79.5 1108.0 76.25Q1123.5 73.0 1129.0 69.5Q1140.5 63.0 1142.5 63.0Q1149.0 63.0 1135.0 81.0Q1128.5 88.5 1125.75 97.5Q1123.0 106.5 1123.0 118.0Q1123.0 127.5 1122.0 134.25Q1121.0 141.0 1119.5 141.0Q1118.5 141.0 1105.5 138.0Q1092.5 135.0 1075.0 130.0Q1058.5 126.0 1044.75 123.25Q1031.0 120.5 1029.0 120.5Q1027.5 120.5 1026.25 126.5Q1025.0 132.5 1025.0 141.0Q1025.0 162.0 1031.5 162.0Q1035.5 162.0 1035.25 163.25Q1035.0 164.5 1031.0 166.5Q1027.5 169.0 1026.75 182.75Q1026.0 196.5 1027.25 214.5Q1028.5 232.5 1031.25 249.0Q1034.0 265.5 1038.5 274.0Q1042.5 280.5 1044.25 285.75Q1046.0 291.0 1045.0 292.0Q1044.0 293.0 1038.0 293.0Q1031.5 293.0 1021.25 292.0Q1011.0 291.0 1001.0 289.25Q991.0 287.5 984.25 286.0Q977.5 284.5 977.5 283.0Q977.5 280.5 980.75 273.25Q984.0 266.0 988.0 257.0Q992.5 248.5 994.75 242.5Q997.0 236.5 996.0 236.5Q991.5 236.5 977.0 245.25Q962.5 254.0 941.0 269.5Q930.5 277.5 922.0 282.75Q913.5 288.0 911.0 288.0Q910.0 287.0 914.25 280.0Q918.5 273.0 924.5 264.0Q939.0 244.5 937.75 231.25Q936.5 218.0 919.0 208.0Q908.5 202.0 906.0 202.0Q903.5 202.0 903.5 207.0Q903.5 212.0 901.75 212.5Q900.0 213.0 895.0 211.0Q888.0 207.0 869.5 203.25Q851.0 199.5 832.0 196.5Q803.0 193.0 792.75 189.0Q782.5 185.0 785.5 179.0Q789.5 170.0 793.25 157.5Q797.0 145.0 800.25 133.0Q803.5 121.0 805.25 112.25Q807.0 103.5 806.0 101.5Q805.5 98.5 777.25 95.75Q749.0 93.0 691.0 91.0Q660.5 90.0 631.25 89.0Q602.0 88.0 581.0 86.75Q560.0 85.5 552.5 85.0Q543.0 84.0 540.25 84.75Q537.5 85.5 544.0 90.0Q550.5 94.5 569.5 104.75Q588.5 115.0 622.5 133.0Q671.5 159.0 717.75 179.0Q764.0 199.0 803.25 211.5Q842.5 224.0 871.0 228.5Q882.0 229.5 890.0 231.0Q898.0 232.5 898.0 233.0Q898.0 233.5 891.25 241.5Q884.5 249.5 874.5 259.5Q864.5 269.5 857.75 279.5Q851.0 289.5 851.0 293.5Q851.0 297.5 848.25 302.75Q845.5 308.0 841.5 310.5Q836.0 315.5 835.0 315.0Q834.0 314.5 836.0 306.5Q839.0 294.0 828.5 281.0Q816.0 265.0 780.25 239.75Q744.5 214.5 692.0 184.25Q639.5 154.0 576.5 123.0Q495.0 82.5 500.5 77.0Q503.0 74.5 530.0 74.5Q543.0 74.5 562.25 75.0Q581.5 75.5 606.0 77.0Q633.5 78.5 662.75 80.0Q692.0 81.5 717.25 82.25Q742.5 83.0 756.5 83.0H807.5L810.5 67.0Q812.0 60.0 813.0 50.0Q814.0 40.0 814.0 33.0Q814.0 26.0 814.75 19.75Q815.5 13.5 817.0 13.0Z" fill="black" /></svg>