<svg xmlns="http://www.w3.org/2000/svg" width="483.5" height="384.5" viewBox="0 0 483.5 384.5"><path d="M64.5 263.5Q59.0 260.0 52.25 256.25Q45.5 252.5 42.0 249.0Q38.5 246.0 36.0 246.0Q34.0 246.0 32.5 250.75Q31.0 255.5 28.5 268.0Q27.0 277.5 26.0 285.0Q25.0 292.5 25.5 292.5Q25.5 293.0 30.0 292.25Q34.5 291.5 40.5 289.5Q46.0 288.0 58.25 287.0Q70.5 286.0 80.5 286.0Q107.0 286.0 100.0 281.5Q93.0 277.0 86.5 280.0Q78.0 281.0 78.0 276.0Q78.0 273.5 74.0 269.75Q70.0 266.0 64.5 263.5ZM120.0 105.0 109.0 103.0Q104.5 101.0 98.0 100.25Q91.5 99.5 87.0 99.0Q76.5 98.5 82.0 104.5Q83.5 106.5 86.0 114.25Q88.5 122.0 90.0 130.5L93.0 151.5ZM133.5 171.0Q133.5 168.5 129.75 166.25Q126.0 164.0 122.5 164.0Q120.5 164.0 119.5 165.0Q115.5 169.0 117.25 172.0Q119.0 175.0 125.5 175.0Q133.5 175.0 133.5 171.0ZM135.0 226.0Q133.0 222.0 127.25 218.75Q121.5 215.5 117.5 215.5Q114.0 215.5 113.25 219.5Q112.5 223.5 112.5 226.0Q112.5 230.5 115.25 231.25Q118.0 232.0 125.5 231.0Q130.5 230.5 133.25 229.0Q136.0 227.5 135.0 226.0ZM229.5 82.0Q226.0 82.0 219.25 81.5Q212.5 81.0 207.0 80.5Q200.5 79.0 187.0 80.25Q173.5 81.5 160.25 83.5Q147.0 85.5 141.0 88.0Q136.5 90.0 136.0 91.5Q135.5 93.0 138.0 94.5Q141.5 96.5 140.25 99.25Q139.0 102.0 133.0 106.5Q117.5 119.0 107.5 146.0Q97.5 173.0 93.0 213.0Q91.0 233.0 90.25 248.5Q89.5 264.0 90.0 265.0Q92.0 269.0 107.75 274.25Q123.5 279.5 146.75 284.75Q170.0 290.0 194.5 294.0Q217.5 297.5 235.75 300.5Q254.0 303.5 257.5 304.5Q261.5 305.5 263.0 303.75Q264.5 302.0 264.75 292.75Q265.0 283.5 265.0 263.5Q265.0 242.0 264.5 232.25Q264.0 222.5 261.75 218.0Q259.5 213.5 253.5 208.5Q241.0 196.0 230.5 191.75Q220.0 187.5 208.5 190.0Q199.0 191.5 194.0 191.5Q186.0 191.5 187.5 187.5Q188.5 185.0 179.75 183.75Q171.0 182.5 159.0 182.5Q149.5 182.5 139.0 183.25Q128.5 184.0 121.5 186.0Q115.0 187.0 114.75 189.0Q114.5 191.0 119.5 199.0Q127.0 210.0 141.0 217.75Q155.0 225.5 171.25 229.5Q187.5 233.5 200.5 233.5Q207.0 233.5 211.0 230.75Q215.0 228.0 222.0 220.0Q233.5 208.5 239.5 207.75Q245.5 207.0 239.5 217.5Q233.0 230.0 236.0 242.5Q239.0 255.0 250.0 265.0Q255.0 269.5 258.25 273.75Q261.5 278.0 260.5 279.0Q256.0 281.5 244.0 271.0Q225.0 256.5 209.5 256.5Q206.0 256.5 203.0 257.25Q200.0 258.0 196.5 259.0Q191.0 261.0 187.0 261.0Q182.0 261.0 182.0 258.0Q182.0 255.0 189.0 251.5Q211.0 238.5 154.5 238.5Q137.5 238.5 128.0 240.25Q118.5 242.0 113.5 245.5Q109.0 248.0 105.75 249.5Q102.5 251.0 101.5 250.5Q101.0 249.5 101.5 242.5Q102.0 235.5 103.5 227.5Q106.0 218.5 107.0 209.0Q108.0 199.5 107.5 196.0Q107.0 191.0 107.75 182.0Q108.5 173.0 110.0 163.5Q111.5 154.0 113.25 147.5Q115.0 141.0 116.5 141.0Q117.0 141.0 119.75 143.5Q122.5 146.0 124.5 149.5Q129.5 157.5 141.75 164.0Q154.0 170.5 168.25 174.0Q182.5 177.5 192.0 177.5Q199.0 177.5 204.25 173.5Q209.5 169.5 220.5 158.5Q236.0 143.0 243.0 140.25Q250.0 137.5 244.0 149.5Q237.5 161.0 240.25 174.25Q243.0 187.5 253.0 196.0L265.0 205.5V184.5Q265.0 169.5 262.25 150.5Q259.5 131.5 255.25 115.5Q251.0 99.5 247.0 93.0Q243.5 87.5 238.75 84.75Q234.0 82.0 229.5 82.0ZM231.0 172.5Q231.0 163.0 229.5 163.0Q228.5 163.0 221.5 170.5Q216.5 176.0 216.5 177.5Q216.5 179.0 223.0 181.0Q228.0 182.0 229.5 180.5Q231.0 179.0 231.0 172.5ZM227.5 239.5Q227.5 224.0 221.5 233.5Q219.0 237.0 223.0 243.0Q227.5 251.0 227.5 239.5ZM294.0 196.0Q292.5 189.0 286.5 189.0Q282.0 189.0 282.0 193.5Q282.0 200.5 289.0 200.5Q291.5 200.5 293.25 199.0Q295.0 197.5 294.0 196.0ZM299.5 265.0Q299.5 264.0 297.0 260.5Q294.5 257.0 290.5 253.5Q287.0 250.0 284.5 249.5Q282.0 249.0 282.0 250.5Q282.0 252.5 281.25 255.75Q280.5 259.0 280.0 262.0Q277.0 268.5 288.0 268.5Q292.5 268.5 296.0 267.5Q299.5 266.5 299.5 265.0ZM346.0 238.5Q346.0 218.5 340.75 211.75Q335.5 205.0 315.0 205.0Q303.5 205.0 292.5 208.25Q281.5 211.5 278.5 217.0Q275.5 222.0 280.5 230.0Q285.5 238.0 294.75 245.75Q304.0 253.5 314.75 258.75Q325.5 264.0 334.5 264.0Q342.5 264.0 344.25 260.75Q346.0 257.5 346.0 238.5ZM358.0 178.5Q353.0 175.5 350.0 175.5Q345.0 175.5 348.0 187.0Q351.0 199.5 353.5 199.5Q354.5 199.5 358.5 192.0Q362.0 186.5 361.75 183.5Q361.5 180.5 358.0 178.5ZM218.5 71.5 189.0 56.5Q176.5 49.5 166.25 43.5Q156.0 37.5 153.0 35.5Q151.5 34.0 150.0 34.0Q148.0 34.0 146.5 37.5Q145.0 41.0 142.5 49.5Q137.5 69.5 138.5 73.5Q139.5 77.5 149.5 76.0Q154.5 75.0 166.25 73.75Q178.0 72.5 190.0 72.0ZM297.0 94.0Q299.0 90.0 295.0 88.5Q291.0 87.0 277.5 86.5Q263.0 85.5 260.0 86.75Q257.0 88.0 259.0 93.0Q260.5 97.5 264.5 116.0Q268.5 134.5 274.0 166.5Q274.5 166.5 277.75 157.0Q281.0 147.5 284.5 135.0Q289.0 121.0 292.75 108.75Q296.5 96.5 297.0 94.0ZM454.0 61.5Q455.5 59.0 450.75 57.75Q446.0 56.5 433.0 56.5Q417.5 56.5 413.75 57.5Q410.0 58.5 412.0 63.0Q413.0 66.5 415.25 76.75Q417.5 87.0 418.5 98.5Q424.0 131.5 427.0 131.5Q430.0 131.5 439.0 103.0Q443.5 87.5 448.25 75.5Q453.0 63.5 454.0 61.5ZM136.0 31.5Q137.5 22.5 138.75 16.25Q140.0 10.0 141.0 10.0Q143.5 10.0 151.5 20.5Q156.0 26.0 169.25 34.25Q182.5 42.5 200.0 50.75Q217.5 59.0 234.75 65.25Q252.0 71.5 263.5 73.5Q273.5 75.5 285.75 76.25Q298.0 77.0 304.5 76.0Q311.0 75.0 315.75 75.75Q320.5 76.5 321.0 78.0Q322.0 80.0 332.75 83.0Q343.5 86.0 358.0 88.5Q372.0 91.5 382.25 94.75Q392.5 98.0 392.5 99.0Q392.5 101.0 392.0 102.0Q391.5 103.0 389.0 103.0Q385.5 103.0 377.0 101.25Q368.5 99.5 351.0 96.0Q341.0 94.0 333.25 93.0Q325.5 92.0 320.0 92.0Q313.5 92.0 311.5 94.0Q309.5 96.0 305.25 105.5Q301.0 115.0 296.75 127.0Q292.5 139.0 289.5 149.5Q286.5 160.0 286.5 164.5Q286.5 174.5 295.0 182.0Q303.5 189.5 315.0 193.75Q326.5 198.0 335.5 198.0Q341.5 198.0 341.5 193.0Q341.5 185.0 334.5 175.5Q332.0 171.5 330.5 168.25Q329.0 165.0 329.5 164.5Q332.0 164.5 339.5 165.5Q347.0 166.5 355.75 168.0Q364.5 169.5 371.25 171.0Q378.0 172.5 379.5 173.5Q380.5 174.0 378.0 178.25Q375.5 182.5 371.5 187.5Q368.0 192.5 366.0 197.75Q364.0 203.0 364.5 205.0Q365.5 206.5 364.5 210.0Q363.5 213.5 361.0 216.0Q354.0 222.0 354.0 244.5Q354.0 261.0 356.0 264.75Q358.0 268.5 367.0 270.0Q379.5 272.5 379.5 277.0Q379.5 279.5 374.0 279.5Q372.0 279.5 369.75 279.25Q367.5 279.0 364.5 278.5Q361.5 278.0 359.5 277.75Q357.5 277.5 356.0 277.5Q352.0 277.5 351.25 280.0Q350.5 282.5 350.5 289.5Q350.5 294.5 349.0 298.5Q347.5 302.5 346.0 302.5Q344.0 302.5 342.75 298.0Q341.5 293.5 341.5 287.5V271.5L314.5 274.0Q302.5 274.5 292.5 276.75Q282.5 279.0 280.0 281.5Q275.0 286.0 274.0 296.25Q273.0 306.5 277.5 309.0Q280.0 309.5 281.0 311.75Q282.0 314.0 282.0 316.0Q282.0 319.5 278.5 318.0Q276.5 318.0 274.5 325.75Q272.5 333.5 271.5 345.0Q270.5 357.5 268.25 366.0Q266.0 374.5 264.0 374.5Q259.5 374.5 263.5 345.0Q264.5 332.5 265.0 326.0Q265.5 319.5 261.25 316.5Q257.0 313.5 244.5 311.0Q232.0 308.5 208.0 304.0Q180.0 299.0 152.0 296.75Q124.0 294.5 99.5 294.5Q69.0 294.5 47.0 298.25Q25.0 302.0 19.0 309.0Q14.5 314.0 12.5 314.0Q10.0 314.0 10.5 307.25Q11.0 300.5 15.0 289.0Q18.5 280.0 20.75 267.25Q23.0 254.5 23.5 246.0Q23.5 234.5 24.75 230.25Q26.0 226.0 29.5 226.0Q36.0 226.0 36.0 230.5Q36.0 232.5 41.75 237.25Q47.5 242.0 55.25 247.25Q63.0 252.5 69.75 255.75Q76.5 259.0 78.0 258.0Q80.5 256.5 82.25 243.25Q84.0 230.0 84.75 211.25Q85.5 192.5 85.25 174.0Q85.0 155.5 83.5 143.5Q78.5 115.5 70.0 101.5Q66.0 96.0 64.0 92.25Q62.0 88.5 62.5 88.0Q63.0 87.0 71.5 87.75Q80.0 88.5 91.0 91.0Q98.5 92.0 103.75 92.75Q109.0 93.5 112.5 93.5Q119.5 93.5 121.5 90.0Q125.5 83.0 129.75 66.5Q134.0 50.0 136.0 31.5ZM392.5 42.0Q392.5 41.0 395.5 41.5Q398.5 42.0 402.0 43.5Q412.0 49.0 442.0 46.5Q455.0 46.0 464.25 45.5Q473.5 45.0 473.5 46.0Q473.5 46.0 470.5 51.75Q467.5 57.5 463.0 65.5Q432.0 119.0 427.0 238.5Q426.0 259.0 424.75 279.25Q423.5 299.5 423.0 314.5Q422.5 329.5 422.5 335.5Q422.5 344.5 421.5 351.25Q420.5 358.0 418.0 358.0Q416.0 358.0 415.75 332.0Q415.5 306.0 416.5 256.5Q418.0 201.5 417.0 163.75Q416.0 126.0 412.0 101.5Q408.0 77.0 400.5 62.5Q397.0 55.0 394.75 49.0Q392.5 43.0 392.5 42.0Z" fill="black" /></svg>