<svg xmlns="http://www.w3.org/2000/svg" width="420.0" height="386.0" viewBox="0 0 420.0 386.0"><path d="M90.5 313.0Q81.0 307.5 73.75 304.25Q66.5 301.0 65.0 301.0Q64.5 301.0 63.25 309.75Q62.0 318.5 61.0 330.0Q60.5 342.5 61.0 351.25Q61.5 360.0 62.5 360.0Q63.5 360.0 71.0 357.5Q78.5 355.0 88.0 351.0Q97.0 348.5 110.25 344.0Q123.5 339.5 131.5 337.5L153.5 331.5L132.5 328.0Q124.0 327.0 111.75 322.5Q99.5 318.0 90.5 313.0ZM76.0 157.5 72.0 145.0Q72.0 146.5 64.0 156.5Q56.0 166.5 49.0 176.5L32.5 198.0L48.5 200.5Q54.5 201.5 64.75 203.5Q75.0 205.5 83.0 207.0Q90.0 209.0 96.25 209.75Q102.5 210.5 103.0 209.5Q104.0 208.5 100.5 202.75Q97.0 197.0 91.5 188.5Q86.5 180.5 81.75 171.0Q77.0 161.5 76.0 157.5ZM132.5 229.0 114.5 224.0 113.5 269.5 115.0 315.0 129.5 318.0Q135.5 319.0 148.75 320.5Q162.0 322.0 174.5 322.0L203.5 323.5L206.0 273.0L176.0 253.5Q163.0 245.5 150.25 238.25Q137.5 231.0 132.5 229.0ZM129.5 109.0Q129.5 107.0 122.75 106.0Q116.0 105.0 106.0 105.0Q96.5 105.0 89.75 105.5Q83.0 106.0 83.0 106.5Q83.0 107.5 86.0 115.25Q89.0 123.0 94.0 133.0L105.5 157.0L117.5 134.5Q122.5 125.5 126.0 117.75Q129.5 110.0 129.5 109.0ZM220.0 177.0 231.5 160.5H184.0L193.0 171.0Q201.5 181.5 203.25 188.5Q205.0 195.5 207.0 195.5Q208.5 195.5 211.25 191.25Q214.0 187.0 220.0 177.0ZM140.5 45.0Q138.0 38.0 135.0 38.0Q131.0 38.0 118.0 58.5L104.0 79.5H121.0Q127.5 79.5 136.5 80.5Q145.5 81.5 150.5 82.5L164.0 85.5L153.5 70.0Q149.0 63.0 145.25 56.0Q141.5 49.0 140.5 45.0ZM318.5 112.0 332.0 84.0H306.5Q289.5 84.0 286.5 85.25Q283.5 86.5 285.5 91.0Q286.5 94.5 289.5 102.5Q292.5 110.5 295.0 118.5Q298.0 127.0 300.5 133.0Q303.0 139.0 303.5 139.0Q304.5 139.0 309.0 130.75Q313.5 122.5 318.5 112.0ZM121.0 39.0 140.0 10.0 144.5 28.5Q149.0 47.5 154.75 57.25Q160.5 67.0 171.5 76.5Q176.5 80.5 189.75 89.25Q203.0 98.0 220.0 108.75Q237.0 119.5 253.25 129.25Q269.5 139.0 280.75 145.25Q292.0 151.5 293.5 151.5L276.5 95.5Q272.0 87.0 269.0 80.5Q266.0 74.0 266.0 73.5Q266.0 73.0 274.25 73.0Q282.5 73.0 294.75 73.5Q307.0 74.0 319.5 75.0Q332.0 76.0 340.75 76.75Q349.5 77.5 350.0 78.0Q350.5 78.0 348.0 81.5Q345.5 85.0 341.5 89.5Q338.0 93.0 332.5 101.5Q327.0 110.0 323.5 118.0Q320.5 124.5 318.75 131.0Q317.0 137.5 316.0 148.5Q315.0 159.5 314.75 178.75Q314.5 198.0 314.5 230.5V324.0L362.5 325.0Q382.5 325.5 396.25 327.0Q410.0 328.5 410.0 330.0Q410.0 332.0 379.0 333.25Q348.0 334.5 294.5 334.5Q254.0 334.5 229.75 334.75Q205.5 335.0 190.5 336.0Q175.5 337.0 164.75 339.0Q154.0 341.0 140.5 344.5Q125.0 348.5 106.0 354.75Q87.0 361.0 76.0 365.5L50.0 376.0L52.0 331.0Q53.0 312.0 54.0 298.5Q55.0 285.0 55.5 284.5Q57.0 284.5 63.25 287.5Q69.5 290.5 77.0 295.5L106.5 311.0Q106.0 307.5 105.5 296.5Q105.0 285.5 104.5 272.75Q104.0 260.0 104.0 251.5V220.5L86.5 216.0Q78.5 214.5 64.75 212.5Q51.0 210.5 39.5 209.5L10.0 206.5L29.0 186.0Q36.0 178.0 45.25 166.5Q54.5 155.0 59.5 147.0Q65.0 138.0 69.5 132.0Q74.0 126.0 74.5 126.0Q76.5 126.0 77.75 130.75Q79.0 135.5 80.5 142.0Q82.0 150.0 87.5 161.0Q93.0 172.0 98.0 180.25Q103.0 188.5 103.0 188.5Q103.0 188.5 100.5 179.75Q98.0 171.0 94.0 158.75Q90.0 146.5 85.5 134.75Q81.0 123.0 77.0 117.0Q72.5 110.0 69.0 104.75Q65.5 99.5 65.5 99.0Q65.5 98.5 78.25 97.75Q91.0 97.0 108.5 97.0Q140.5 97.0 147.25 99.25Q154.0 101.5 144.5 109.5Q138.0 115.5 131.0 126.5Q124.0 137.5 119.25 150.25Q114.5 163.0 114.5 175.5V202.5L203.5 261.0L205.0 238.5Q206.0 220.5 199.5 203.5Q193.0 186.5 178.0 166.0Q174.0 160.5 171.75 156.0Q169.5 151.5 170.5 151.0Q172.5 150.0 185.25 150.0Q198.0 150.0 213.5 151.0L254.0 153.0L238.0 168.0Q228.5 178.0 223.5 187.0Q218.5 196.0 216.75 207.75Q215.0 219.5 215.0 238.0V268.5L253.0 292.0Q278.0 307.5 286.75 314.75Q295.5 322.0 288.5 322.0Q287.5 322.0 277.25 316.25Q267.0 310.5 254.5 302.5Q242.0 294.5 231.5 289.0Q221.0 283.5 219.5 283.5Q214.5 283.5 215.5 303.0L216.5 324.0L260.5 325.0L303.5 326.5V170.5L243.5 133.5Q219.5 119.0 202.5 110.0Q185.5 101.0 171.25 96.25Q157.0 91.5 142.5 89.75Q128.0 88.0 110.0 88.0Q92.5 88.0 88.75 85.25Q85.0 82.5 94.0 75.0Q97.5 72.5 105.25 62.0Q113.0 51.5 121.0 39.0Z" fill="black" /></svg>