<svg xmlns="http://www.w3.org/2000/svg" width="351.0" height="377.5" viewBox="0 0 351.0 377.5"><path d="M111.5 302.5Q96.0 294.0 85.75 283.25Q75.5 272.5 65.5 258.0L58.0 247.0L53.0 267.0Q51.0 275.5 46.75 290.25Q42.5 305.0 38.5 316.5Q35.0 328.5 32.75 337.25Q30.5 346.0 31.0 346.5Q31.0 346.5 31.25 346.5Q31.5 346.5 32.0 346.5Q36.5 346.5 48.5 340.0Q55.5 336.0 69.5 330.5Q83.5 325.0 97.0 321.0L130.0 312.0ZM134.0 22.0Q134.0 21.0 123.25 20.25Q112.5 19.5 97.0 19.5H61.0L72.5 40.5Q77.0 49.5 82.75 61.25Q88.5 73.0 91.0 80.5L98.5 98.5L106.0 78.0Q109.5 69.5 114.5 58.75Q119.5 48.0 124.0 40.5Q128.0 34.5 131.0 29.0Q134.0 23.5 134.0 22.0ZM45.5 11.5Q46.0 10.5 56.5 10.25Q67.0 10.0 81.0 10.0Q97.0 10.0 113.75 10.25Q130.5 10.5 142.5 11.25Q154.5 12.0 155.5 13.0Q156.5 13.5 152.75 19.0Q149.0 24.5 143.0 31.5Q131.0 45.0 124.25 55.75Q117.5 66.5 114.25 81.75Q111.0 97.0 110.5 122.5Q110.0 148.0 110.5 190.0Q110.5 217.5 111.0 241.0Q111.5 264.5 112.0 278.5Q112.5 292.5 113.0 293.5Q117.5 297.0 153.5 304.0Q189.5 311.0 251.5 319.5Q276.0 323.0 296.25 326.5Q316.5 330.0 328.75 332.5Q341.0 335.0 341.0 336.0Q341.0 337.5 339.75 338.25Q338.5 339.0 334.0 339.0Q326.0 339.0 304.75 336.25Q283.5 333.5 239.0 327.0L152.0 315.0L115.0 325.5Q99.5 330.0 78.75 337.75Q58.0 345.5 44.5 352.5Q32.0 359.0 22.5 363.25Q13.0 367.5 10.5 367.5Q10.0 367.0 12.0 361.25Q14.0 355.5 17.5 347.5Q22.0 339.5 28.75 319.0Q35.5 298.5 41.5 277.0Q56.5 222.5 62.0 222.5Q64.0 222.5 65.0 231.0Q65.0 235.5 69.0 243.0Q73.0 250.5 78.25 258.75Q83.5 267.0 88.75 273.0Q94.0 279.0 97.0 280.0Q100.0 280.0 101.25 265.0Q102.5 250.0 102.5 211.0Q102.5 186.0 102.0 170.5Q101.5 155.0 100.25 144.5Q99.0 134.0 96.25 124.25Q93.5 114.5 89.0 100.5Q82.5 81.0 74.25 62.75Q66.0 44.5 59.0 31.75Q52.0 19.0 47.5 16.5Q44.0 14.0 45.5 11.5Z" fill="black" /></svg>