<svg xmlns="http://www.w3.org/2000/svg" width="373.0" height="346.0" viewBox="0 0 373.0 346.0"><path d="M63.0 159.5Q59.5 157.0 52.0 151.25Q44.5 145.5 37.5 139.5L20.0 124.5V160.5Q20.0 176.0 21.5 186.5Q23.0 197.0 25.0 197.0Q29.0 197.0 29.0 192.0Q29.0 191.0 35.25 186.0Q41.5 181.0 50.0 176.0Q64.0 167.5 66.0 165.0Q68.0 162.5 63.0 159.5ZM82.5 247.0Q82.5 241.5 78.5 241.5Q74.5 241.5 69.5 247.0Q64.5 253.5 69.0 256.5Q71.5 258.0 73.5 258.0Q77.0 258.0 79.75 254.75Q82.5 251.5 82.5 247.0ZM139.0 176.0Q138.0 167.5 135.0 165.25Q132.0 163.0 118.5 162.0Q109.5 161.0 102.75 161.75Q96.0 162.5 94.5 164.0Q93.0 165.5 92.25 173.5Q91.5 181.5 91.5 191.5V216.5L100.0 206.5Q109.0 196.5 113.0 196.5Q118.5 196.5 111.5 210.5Q103.5 226.0 108.0 226.0Q112.0 226.0 122.5 218.5Q142.5 204.0 139.0 176.0ZM136.5 251.0Q134.5 247.5 124.75 245.0Q115.0 242.5 107.0 242.5Q100.0 242.5 98.5 245.0Q96.5 248.5 99.0 255.75Q101.5 263.0 105.0 263.0Q109.5 263.0 109.5 269.0Q109.5 271.5 115.25 276.5Q121.0 281.5 127.75 285.75Q134.5 290.0 137.5 290.0Q139.5 290.0 140.0 281.75Q140.5 273.5 139.5 264.0Q138.5 254.5 136.5 251.0ZM140.5 228.0Q140.5 219.0 136.0 219.0Q132.5 219.0 127.5 224.0Q115.0 236.5 131.0 236.5Q140.5 236.5 140.5 228.0ZM100.0 65.0Q100.0 65.0 95.5 64.25Q91.0 63.5 84.5 63.5Q71.5 63.5 70.25 68.25Q69.0 73.0 75.5 94.5Q80.5 110.0 82.5 110.0Q84.0 110.0 84.5 105.5Q86.5 102.0 89.25 95.0Q92.0 88.0 94.0 81.5Q97.0 76.0 98.5 70.75Q100.0 65.5 100.0 65.0ZM123.5 93.0Q121.0 83.0 118.0 75.5Q115.0 68.0 114.0 68.0Q111.0 68.0 106.5 77.75Q102.0 87.5 98.0 101.0Q94.0 114.5 92.5 127.0L90.0 152.5H102.5Q108.0 152.5 115.25 153.25Q122.5 154.0 126.5 155.0Q134.0 157.0 135.0 155.0Q136.0 153.0 133.5 138.0Q132.5 130.5 129.5 117.25Q126.5 104.0 123.5 93.0ZM158.0 65.0Q158.0 65.0 153.25 64.25Q148.5 63.5 142.5 63.5Q129.5 63.5 128.0 68.25Q126.5 73.0 133.0 94.5Q138.0 110.0 140.0 110.0Q141.0 110.0 142.5 105.5Q143.0 104.0 145.5 98.0Q148.0 92.0 150.75 84.5Q153.5 77.0 155.75 71.25Q158.0 65.5 158.0 65.0ZM204.0 145.0Q211.0 128.5 193.0 143.0Q185.0 149.5 184.75 150.5Q184.5 151.5 191.5 152.5Q201.0 152.5 204.0 145.0ZM248.0 127.0Q250.5 115.0 248.75 114.0Q247.0 113.0 237.0 121.5Q230.5 126.5 229.75 129.25Q229.0 132.0 233.5 135.0Q236.5 136.5 238.5 137.5Q240.5 138.5 242.0 138.5Q245.0 138.5 248.0 127.0ZM339.5 115.0Q339.5 114.0 332.5 113.5Q325.5 113.0 315.5 112.5Q305.5 112.5 298.25 113.0Q291.0 113.5 291.0 114.0Q291.0 116.0 294.5 124.0Q298.0 132.0 303.0 141.75Q308.0 151.5 312.0 158.5Q316.0 165.5 317.0 165.5Q317.0 162.0 320.5 154.0Q324.0 146.0 329.0 137.5Q333.0 128.5 336.25 121.75Q339.5 115.0 339.5 115.0ZM338.5 28.5H326.5Q322.5 28.5 316.25 27.5Q310.0 26.5 306.0 25.5Q295.5 22.5 295.5 27.5Q295.5 29.0 298.25 36.75Q301.0 44.5 306.0 53.0L315.5 75.5L326.5 51.5ZM277.5 16.0Q277.5 10.0 287.5 13.5Q291.5 15.0 303.5 15.75Q315.5 16.5 327.5 16.5Q352.0 16.5 356.0 20.25Q360.0 24.0 348.0 35.0Q328.5 53.0 325.5 85.5L324.0 105.5L343.0 104.5Q359.0 103.5 361.0 106.75Q363.0 110.0 352.5 119.0Q344.0 126.5 339.0 134.75Q334.0 143.0 331.25 156.25Q328.5 169.5 327.0 192.25Q325.5 215.0 324.0 251.5Q321.0 336.0 316.5 336.0Q313.0 336.0 313.0 270.5Q313.0 245.5 312.25 228.0Q311.5 210.5 310.0 211.0Q308.0 211.0 297.25 201.25Q286.5 191.5 272.0 177.5Q251.0 157.0 239.25 148.25Q227.5 139.5 220.5 139.5Q217.0 139.5 214.5 142.0Q203.0 154.5 242.5 200.0Q253.0 211.0 260.0 220.75Q267.0 230.5 266.0 232.5Q265.0 234.5 259.75 230.5Q254.5 226.5 248.0 218.5Q242.0 211.5 230.0 200.25Q218.0 189.0 208.0 181.5Q193.5 169.0 185.25 165.0Q177.0 161.0 166.0 161.0Q153.5 161.0 151.5 163.5Q149.5 166.0 149.5 177.5V194.5L159.0 184.0Q166.0 175.5 168.0 175.5Q174.0 175.5 163.0 200.0Q159.5 209.5 156.5 218.75Q153.5 228.0 153.5 231.0Q153.5 238.0 164.0 248.75Q174.5 259.5 199.5 276.5Q209.5 284.0 216.75 290.25Q224.0 296.5 224.0 299.0Q224.0 302.5 222.0 302.5Q218.0 302.5 202.5 290.0Q196.0 285.0 185.75 278.0Q175.5 271.0 168.0 266.0L149.5 254.0V278.5Q149.5 293.5 151.0 299.25Q152.5 305.0 158.0 308.0Q162.0 311.0 164.5 314.5Q167.0 318.0 167.0 320.5Q167.0 328.0 159.0 320.0Q155.5 316.0 151.5 314.0Q147.5 312.0 145.5 312.0Q140.5 312.0 137.0 305.5Q135.5 303.5 129.5 298.75Q123.5 294.0 115.75 289.0Q108.0 284.0 101.75 280.25Q95.5 276.5 94.0 276.5Q93.0 276.5 92.25 282.0Q91.5 287.5 91.5 294.5Q91.5 301.5 90.5 306.75Q89.5 312.0 87.0 312.0Q85.0 312.0 83.75 306.5Q82.5 301.0 82.5 293.0Q82.5 276.0 77.75 269.5Q73.0 263.0 60.0 263.0Q47.5 263.0 45.75 258.5Q44.0 254.0 54.0 247.5Q66.0 239.5 72.25 233.25Q78.5 227.0 80.5 218.75Q82.5 210.5 82.5 197.0Q82.5 185.5 81.5 177.75Q80.5 170.0 79.5 170.0Q76.5 170.0 67.25 175.75Q58.0 181.5 47.25 189.5Q36.5 197.5 28.5 204.5Q22.0 210.5 16.75 214.5Q11.5 218.5 10.5 218.5Q10.5 218.5 10.5 218.5Q10.5 218.5 10.5 218.5Q10.0 217.5 10.5 199.0Q11.0 180.5 11.5 155.0L13.5 93.0L28.0 115.0Q34.0 124.5 42.75 133.0Q51.5 141.5 59.75 147.0Q68.0 152.5 73.0 152.5Q75.0 152.5 76.5 151.0Q77.5 149.5 75.5 137.5Q73.5 125.5 69.5 109.5Q66.0 93.0 62.25 78.75Q58.5 64.5 57.5 61.0Q56.5 56.5 59.25 55.0Q62.0 53.5 78.0 53.5Q83.5 53.5 98.0 53.75Q112.5 54.0 129.0 54.5Q145.5 55.0 157.75 55.5Q170.0 56.0 171.0 57.0Q171.5 58.0 169.25 64.75Q167.0 71.5 163.0 80.0Q159.0 89.0 155.0 103.0Q151.0 117.0 150.0 128.5L148.0 156.5L166.0 147.5Q174.0 144.0 186.25 135.5Q198.5 127.0 208.5 119.0Q228.0 104.0 232.5 104.0Q234.5 104.0 234.5 105.5Q234.5 107.5 236.5 107.5Q241.5 107.5 256.5 94.5Q272.5 81.0 276.0 81.0Q277.5 81.0 277.5 83.0Q277.5 90.5 273.5 92.0Q272.5 92.5 269.25 99.5Q266.0 106.5 262.0 115.0Q257.5 128.0 257.0 133.75Q256.5 139.5 260.0 146.0Q263.0 151.0 270.5 160.0Q278.0 169.0 287.25 178.25Q296.5 187.5 303.75 193.75Q311.0 200.0 313.0 200.0Q313.0 194.5 308.5 180.0Q304.0 165.5 297.25 149.5Q290.5 133.5 284.5 123.5L272.0 104.0H293.0Q301.0 104.0 307.0 103.0Q313.0 102.0 313.0 101.0Q313.0 99.0 309.75 90.25Q306.5 81.5 302.0 70.25Q297.5 59.0 293.0 49.25Q288.5 39.5 285.5 35.0Q282.0 29.5 279.75 23.75Q277.5 18.0 277.5 16.0Z" fill="black" /></svg>