<svg xmlns="http://www.w3.org/2000/svg" width="329.5" height="389.0" viewBox="0 0 329.5 389.0"><path d="M104.0 315.5Q94.5 312.5 83.5 308.25Q72.5 304.0 67.0 300.5L53.5 293.0V323.5Q53.5 339.5 54.0 345.75Q54.5 352.0 56.5 352.0Q57.5 352.0 59.0 351.0Q60.5 350.0 62.5 348.5Q66.0 346.0 77.75 342.25Q89.5 338.5 102.5 335.5Q115.0 332.0 123.0 329.0Q131.0 326.0 129.5 325.0Q128.5 324.0 120.75 321.0Q113.0 318.0 104.0 315.5ZM74.0 72.5Q66.0 70.0 55.75 65.5Q45.5 61.0 38.5 57.5L20.5 47.0V109.0L34.0 101.0Q39.5 97.5 50.0 93.75Q60.5 90.0 69.5 88.0Q78.5 85.5 84.75 83.5Q91.0 81.5 91.0 80.5Q91.0 79.5 86.0 77.0Q81.0 74.5 74.0 72.5ZM145.0 145.0Q145.0 144.0 138.25 143.5Q131.5 143.0 122.0 143.0H98.5L107.0 154.0Q110.5 159.0 113.5 164.5Q116.5 170.0 117.5 173.5Q118.5 177.5 120.5 177.5Q123.5 177.5 132.5 164.0Q138.0 157.0 141.5 151.25Q145.0 145.5 145.0 145.0ZM302.5 25.0Q302.5 24.0 293.75 23.0Q285.0 22.0 272.0 22.0Q259.0 22.0 249.75 23.0Q240.5 24.0 240.5 26.0Q240.5 27.0 243.5 32.0Q246.5 37.0 251.0 42.5Q255.0 48.5 258.75 56.25Q262.5 64.0 263.5 69.5Q264.5 75.0 266.25 80.0Q268.0 85.0 269.0 86.0Q270.5 86.0 275.75 77.75Q281.0 69.5 287.0 58.5Q293.0 47.5 297.75 37.75Q302.5 28.0 302.5 25.0ZM115.0 133.0Q131.5 132.5 145.25 132.0Q159.0 131.5 161.0 131.0Q165.5 130.0 165.75 134.0Q166.0 138.0 161.5 140.5Q152.5 146.0 163.25 148.5Q174.0 151.0 207.5 151.0Q257.0 151.0 257.0 155.0Q257.0 160.0 202.0 158.5L147.5 158.0L125.0 190.0L127.0 254.0L129.5 316.0L144.5 320.0Q148.5 320.5 161.25 321.0Q174.0 321.5 191.75 321.5Q209.5 321.5 228.5 321.5Q256.5 321.5 279.5 322.5Q302.5 323.5 307.0 324.5Q312.5 326.5 294.0 328.0Q275.5 329.5 230.0 331.0Q145.0 333.0 102.5 342.5Q60.0 352.0 51.5 370.0Q49.0 379.0 45.5 379.0Q44.5 379.0 43.75 363.25Q43.0 347.5 43.0 325.0Q43.0 303.0 43.25 287.0Q43.5 271.0 44.0 271.0Q44.0 271.0 47.75 274.5Q51.5 278.0 56.0 282.5Q61.0 286.5 70.5 291.75Q80.0 297.0 90.25 301.75Q100.5 306.5 108.25 308.75Q116.0 311.0 117.5 309.5Q119.0 308.0 119.75 294.5Q120.5 281.0 120.0 262.25Q119.5 243.5 118.25 225.75Q117.0 208.0 115.0 198.5Q105.5 156.0 84.5 146.0Q71.0 139.5 77.75 136.75Q84.5 134.0 115.0 133.0ZM153.5 230.0Q147.5 229.5 150.5 228.75Q153.5 228.0 162.25 227.0Q171.0 226.0 182.5 225.25Q194.0 224.5 205.0 224.5Q220.0 224.5 233.5 225.5Q247.0 226.5 253.25 227.5Q259.5 228.5 252.5 229.0Q247.5 229.5 234.0 230.75Q220.5 232.0 205.0 232.0Q189.0 232.0 174.0 231.25Q159.0 230.5 153.5 230.0ZM153.5 180.5Q153.5 178.0 167.5 177.0Q181.5 176.0 205.0 176.0Q229.5 176.0 243.25 177.0Q257.0 178.0 257.0 180.5Q257.0 182.0 243.25 183.0Q229.5 184.0 205.0 184.0Q181.5 184.0 167.5 183.0Q153.5 182.0 153.5 180.5ZM153.5 205.0Q153.5 203.5 167.5 202.0Q181.5 200.5 205.0 200.5Q229.5 200.5 243.25 202.0Q257.0 203.5 257.0 205.0Q257.0 207.0 243.25 208.0Q229.5 209.0 205.0 209.0Q181.5 209.0 167.5 208.0Q153.5 207.0 153.5 205.0ZM153.5 251.0Q153.5 248.5 167.5 247.5Q181.5 246.5 205.0 246.5Q229.5 246.5 243.25 247.5Q257.0 248.5 257.0 251.0Q257.0 252.5 243.25 253.5Q229.5 254.5 205.0 254.5Q181.5 254.5 167.5 253.5Q153.5 252.5 153.5 251.0ZM153.5 275.5Q153.5 274.0 167.5 272.5Q181.5 271.0 205.0 271.0Q229.5 271.0 243.25 272.5Q257.0 274.0 257.0 275.5Q257.0 277.5 243.25 278.75Q229.5 280.0 205.0 280.0Q181.5 280.0 167.5 278.75Q153.5 277.5 153.5 275.5ZM153.5 300.5Q153.5 298.5 167.5 297.5Q181.5 296.5 205.0 296.5Q229.5 296.5 243.25 297.5Q257.0 298.5 257.0 300.5Q257.0 302.5 243.25 303.75Q229.5 305.0 205.0 305.0Q181.5 305.0 167.5 303.75Q153.5 302.5 153.5 300.5ZM10.0 80.5Q10.0 52.0 11.25 39.5Q12.5 27.0 16.0 27.0Q18.0 27.0 23.5 35.0Q29.0 42.0 48.5 52.25Q68.0 62.5 90.5 69.5Q103.5 73.0 123.25 74.5Q143.0 76.0 179.0 76.0Q210.0 76.0 227.5 77.0Q245.0 78.0 245.0 80.5Q245.0 82.5 229.25 83.5Q213.5 84.5 185.5 84.5Q118.0 84.5 79.75 93.0Q41.5 101.5 25.0 120.5Q20.0 126.0 15.75 130.25Q11.5 134.5 11.5 134.5Q11.0 134.5 10.5 118.75Q10.0 103.0 10.0 80.5ZM220.0 16.0Q220.0 12.5 225.5 12.5Q228.0 12.5 230.75 13.0Q233.5 13.5 237.5 14.5Q255.5 17.5 271.0 17.5Q289.5 17.5 302.0 13.0Q307.5 11.5 312.25 10.75Q317.0 10.0 317.5 11.0Q319.5 12.0 316.0 20.0Q312.5 28.0 307.0 38.0Q297.0 56.0 291.0 67.5Q285.0 79.0 281.75 89.0Q278.5 99.0 277.5 112.25Q276.5 125.5 277.0 147.0Q277.5 168.5 278.0 203.5Q278.5 254.0 278.0 281.25Q277.5 308.5 275.0 308.5Q273.0 308.5 271.0 283.25Q269.0 258.0 268.0 214.0Q268.0 188.0 267.0 163.25Q266.0 138.5 264.5 120.0Q263.0 101.5 261.5 95.0Q257.5 75.0 248.75 56.75Q240.0 38.5 228.5 29.0Q225.0 25.5 222.5 21.75Q220.0 18.0 220.0 16.0Z" fill="black" /></svg>