<svg xmlns="http://www.w3.org/2000/svg" width="802.5" height="381.5" viewBox="0 0 802.5 381.5"><path d="M103.0 216.5Q103.0 210.5 102.0 206.25Q101.0 202.0 99.0 202.0Q97.0 202.5 90.75 208.5Q84.5 214.5 77.5 222.5Q70.5 230.5 65.5 237.5Q60.5 244.5 60.5 246.5Q60.5 248.0 67.75 249.0Q75.0 250.0 86.0 250.0Q100.5 250.0 104.75 248.25Q109.0 246.5 107.0 240.5Q105.5 236.5 104.25 229.25Q103.0 222.0 103.0 216.5ZM302.5 280.0Q296.0 269.5 291.5 269.5Q286.0 269.5 286.0 291.5Q286.0 309.0 289.0 309.0Q291.0 309.0 297.5 302.5Q304.5 295.5 305.75 291.5Q307.0 287.5 302.5 280.0ZM444.5 179.0V152.5L385.0 153.5Q361.0 154.0 346.75 154.5Q332.5 155.0 324.0 156.75Q315.5 158.5 309.75 161.5Q304.0 164.5 297.5 170.0Q286.0 180.5 287.5 186.0Q289.0 191.5 307.0 202.0Q316.0 207.5 321.0 212.5Q326.0 217.5 325.0 220.0Q324.5 222.0 321.5 222.0Q318.5 222.0 314.0 220.0Q309.5 218.0 304.0 215.5Q297.0 211.5 290.5 209.75Q284.0 208.0 282.5 209.5Q280.0 212.0 283.25 222.5Q286.5 233.0 293.75 245.75Q301.0 258.5 309.5 269.0Q315.0 275.5 319.25 279.0Q323.5 282.5 330.25 284.25Q337.0 286.0 349.5 286.5Q362.0 287.0 384.5 287.0Q409.5 287.0 422.75 286.25Q436.0 285.5 440.75 281.75Q445.5 278.0 444.0 269.0Q442.5 260.0 437.5 243.5Q433.0 230.0 433.0 223.25Q433.0 216.5 437.5 212.5Q440.5 209.0 442.5 199.5Q444.5 190.0 444.5 179.0ZM506.0 293.0Q504.0 293.0 496.0 288.5Q488.0 284.0 479.0 278.0L457.0 263.0V293.5Q457.0 306.0 458.0 314.0Q459.0 322.0 461.0 322.0Q463.5 321.0 471.75 318.0Q480.0 315.0 489.5 311.5Q504.0 305.5 510.0 299.25Q516.0 293.0 506.0 293.0ZM155.0 110.0 153.5 86.0Q152.5 76.0 150.0 68.5Q147.5 61.0 146.0 61.0Q144.5 61.0 138.5 67.0Q132.5 73.0 125.75 81.25Q119.0 89.5 114.0 96.5Q109.0 103.5 109.0 105.5Q109.0 106.0 116.0 106.75Q123.0 107.5 132.5 108.5ZM299.5 134.0Q290.0 123.0 285.5 123.0Q280.0 123.0 280.0 143.5Q280.0 161.0 283.0 161.0Q286.0 161.0 294.5 155.5Q305.0 148.5 306.0 145.25Q307.0 142.0 299.5 134.0ZM509.0 140.0Q511.5 139.0 505.25 132.75Q499.0 126.5 486.5 118.0L457.0 99.5V164.5L479.5 153.5Q489.5 148.5 498.25 144.5Q507.0 140.5 509.0 140.0ZM150.5 29.0Q156.0 20.5 161.25 15.25Q166.5 10.0 169.5 10.0Q170.0 10.0 170.0 10.0Q170.0 10.0 170.5 10.0Q177.0 13.5 171.5 20.5Q166.5 27.0 163.75 39.5Q161.0 52.0 161.0 66.25Q161.0 80.5 164.0 92.5Q167.0 102.0 171.75 109.25Q176.5 116.5 186.0 124.25Q195.5 132.0 213.5 143.5Q231.0 154.5 245.5 163.0Q260.0 171.5 263.0 171.5Q267.0 171.5 267.25 157.5Q267.5 143.5 266.0 113.0Q265.0 88.0 265.5 71.5Q266.0 55.0 268.0 55.0Q270.5 55.0 272.25 58.0Q274.0 61.0 274.0 65.5Q274.0 71.0 278.5 81.25Q283.0 91.5 290.0 102.75Q297.0 114.0 304.25 122.75Q311.5 131.5 317.0 134.5Q321.5 136.5 342.0 138.5Q362.5 140.5 386.0 140.5H444.5V122.0Q444.5 113.5 442.5 101.0Q440.5 88.5 437.5 78.5Q433.0 65.0 433.0 58.5Q433.0 52.0 437.5 47.5Q441.5 43.5 443.0 44.25Q444.5 45.0 444.5 50.5Q444.5 58.5 455.25 72.25Q466.0 86.0 482.25 99.25Q498.5 112.5 515.0 119.5Q525.5 124.5 534.75 127.5Q544.0 130.5 558.5 132.0Q573.0 133.5 598.75 134.0Q624.5 134.5 668.5 134.5Q704.5 134.5 732.5 135.25Q760.5 136.0 776.5 137.25Q792.5 138.5 792.5 140.0Q792.5 141.5 774.25 143.25Q756.0 145.0 724.0 146.25Q692.0 147.5 650.5 148.0Q591.5 148.5 556.0 150.25Q520.5 152.0 501.75 156.25Q483.0 160.5 474.5 168.5Q466.0 176.5 461.5 190.0Q459.0 197.5 456.0 202.5Q453.0 207.5 450.5 207.5Q442.0 207.5 446.0 219.25Q450.0 231.0 464.0 246.5Q471.0 255.5 486.75 266.5Q502.5 277.5 516.5 284.5L551.5 301.0L671.5 296.5Q697.5 295.5 717.5 295.0Q737.5 294.5 751.5 294.5Q773.0 294.5 782.75 295.5Q792.5 296.5 792.5 298.0Q792.5 301.5 781.75 303.25Q771.0 305.0 754.0 305.5Q743.5 305.5 720.5 306.5Q697.5 307.5 668.0 308.75Q638.5 310.0 608.5 311.0Q564.0 312.5 537.0 315.0Q510.0 317.5 495.0 321.75Q480.0 326.0 473.0 333.75Q466.0 341.5 461.5 354.5Q455.5 371.5 451.0 371.5Q444.5 371.5 444.5 335.0V298.0L380.0 300.5Q356.5 301.5 343.0 302.25Q329.5 303.0 322.0 304.5Q314.5 306.0 310.25 309.5Q306.0 313.0 300.5 319.0Q295.0 325.5 290.5 335.25Q286.0 345.0 286.0 351.5Q286.0 357.5 284.0 362.0Q282.0 366.5 279.5 366.5Q277.5 366.5 265.0 359.5Q252.5 352.5 233.75 341.25Q215.0 330.0 193.0 316.0Q161.0 295.5 141.5 284.5Q122.0 273.5 109.0 269.25Q96.0 265.0 83.5 263.5Q65.5 262.0 56.0 263.75Q46.5 265.5 35.5 274.0Q20.5 285.5 15.0 285.5Q10.0 285.5 18.75 272.5Q27.5 259.5 49.0 236.5Q60.5 224.0 71.5 211.5Q82.5 199.0 90.5 188.25Q98.5 177.5 101.5 172.0Q106.0 164.0 111.25 158.25Q116.5 152.5 120.5 152.5Q128.0 152.5 122.0 164.5Q118.5 171.5 116.75 187.25Q115.0 203.0 116.0 219.5Q117.0 236.0 121.0 246.5Q123.5 253.0 143.25 268.25Q163.0 283.5 196.0 304.0Q215.5 316.0 232.0 325.75Q248.5 335.5 259.0 341.5Q269.5 347.5 270.5 347.5Q272.0 347.5 273.0 336.75Q274.0 326.0 274.25 308.75Q274.5 291.5 273.5 271.25Q272.5 251.0 270.5 231.5L266.0 191.0L215.5 159.5Q182.0 138.5 162.25 129.25Q142.5 120.0 127.5 120.0Q118.5 120.0 109.75 122.75Q101.0 125.5 90.5 131.0Q78.0 137.5 69.25 140.0Q60.5 142.5 60.5 140.5Q60.5 138.0 71.75 124.25Q83.0 110.5 98.0 93.5Q108.5 82.0 119.0 69.5Q129.5 57.0 138.0 46.25Q146.5 35.5 150.5 29.0Z" fill="black" /></svg>