<svg xmlns="http://www.w3.org/2000/svg" width="647.0" height="461.0" viewBox="0 0 647.0 461.0"><path d="M82.0 372.5V320.0Q70.5 329.5 60.0 339.25Q49.5 349.0 43.0 356.0Q36.5 363.0 37.5 363.5Q38.5 364.0 45.0 365.75Q51.5 367.5 60.0 369.0ZM212.0 345.5Q216.0 332.5 213.5 331.25Q211.0 330.0 202.5 340.0Q193.0 350.0 192.25 353.5Q191.5 357.0 200.5 357.0Q209.5 357.0 212.0 345.5ZM108.0 229.5Q109.0 222.5 109.5 217.25Q110.0 212.0 110.0 212.0Q109.0 212.0 104.75 216.25Q100.5 220.5 95.5 226.25Q90.5 232.0 87.0 236.75Q83.5 241.5 83.5 243.0Q83.5 244.5 87.0 246.0Q90.5 247.5 95.5 247.5Q103.0 247.5 105.25 244.25Q107.5 241.0 108.0 229.5ZM225.0 237.5Q225.0 232.5 224.25 229.25Q223.5 226.0 222.0 226.0Q221.5 226.0 219.0 229.25Q216.5 232.5 213.0 237.5Q208.0 246.5 208.25 248.0Q208.5 249.5 215.0 249.5Q225.0 249.5 225.0 237.5ZM161.5 104.5Q164.0 98.5 166.0 94.25Q168.0 90.0 167.0 90.0Q166.5 90.0 158.0 98.75Q149.5 107.5 138.0 119.0L110.0 148.0L125.5 144.5Q132.5 143.5 139.0 142.5Q145.5 141.5 148.0 141.5Q150.5 141.5 152.5 138.0Q154.5 134.5 154.5 130.0Q154.5 124.5 156.75 117.0Q159.0 109.5 161.5 104.5ZM277.5 122.5Q278.5 117.0 279.0 113.0Q279.5 109.0 278.5 109.0Q278.5 109.0 274.5 113.0Q270.5 117.0 265.0 122.5L251.0 137.0H263.0Q270.5 137.0 273.25 134.25Q276.0 131.5 277.5 122.5ZM384.5 107.0 373.5 96.5Q364.0 85.5 361.5 85.5Q361.0 85.5 361.0 92.0Q361.0 98.5 361.0 107.0V129.0ZM593.5 37.5Q599.0 31.5 595.75 30.5Q592.5 29.5 570.0 29.5Q557.5 29.5 548.0 30.0Q538.5 30.5 538.5 33.0Q538.5 34.0 540.75 38.25Q543.0 42.5 545.5 47.5Q549.0 51.5 552.75 59.5Q556.5 67.5 559.0 74.5L565.5 92.5L575.5 69.0Q579.5 59.5 584.75 50.25Q590.0 41.0 593.5 37.5ZM367.0 368.0 351.0 360.0Q344.0 356.5 337.0 351.75Q330.0 347.0 326.5 344.5Q323.0 341.0 321.0 341.0Q319.0 341.0 318.5 346.75Q318.0 352.5 318.0 367.0Q318.0 381.0 318.75 386.5Q319.5 392.0 321.5 392.0Q323.0 392.0 324.5 390.5Q327.0 388.0 334.25 384.0Q341.5 380.0 349.0 376.0ZM120.0 178.5Q130.0 164.0 132.5 164.0Q138.0 164.0 126.0 196.0Q122.5 207.0 119.75 216.5Q117.0 226.0 117.0 229.5Q117.0 234.5 122.0 241.0Q127.0 247.5 134.75 253.0Q142.5 258.5 150.0 261.0Q161.0 264.0 171.5 269.5Q182.0 275.0 188.75 280.0Q195.5 285.0 194.0 287.5Q193.5 289.0 191.0 289.0Q186.5 289.0 180.5 284.5Q170.0 277.0 153.25 271.25Q136.5 265.5 118.25 262.0Q100.0 258.5 85.5 258.5L56.5 257.5L82.0 227.5Q92.0 215.5 103.25 201.0Q114.5 186.5 120.0 178.5ZM199.5 37.5Q208.5 23.5 212.0 23.5Q213.5 23.5 214.0 26.5Q215.0 29.0 212.5 36.0Q210.0 43.0 205.0 49.0Q194.0 63.5 185.25 79.0Q176.5 94.5 170.75 107.75Q165.0 121.0 164.0 129.0Q163.0 137.0 168.0 137.0Q170.0 137.0 171.75 139.75Q173.5 142.5 174.0 146.0Q175.5 150.0 178.75 153.0Q182.0 156.0 186.0 156.0Q189.5 156.0 199.5 159.75Q209.5 163.5 220.5 169.5L247.5 182.5L255.5 170.5Q261.5 161.0 264.0 161.0Q266.5 161.0 263.0 172.5Q259.5 184.0 250.5 201.5Q236.5 228.5 236.25 242.75Q236.0 257.0 248.5 262.0Q252.5 262.5 258.0 266.25Q263.5 270.0 267.5 274.0Q274.0 279.5 275.75 284.25Q277.5 289.0 275.0 289.0Q273.0 289.0 267.5 284.5Q265.5 283.0 263.75 282.0Q262.0 281.0 260.5 281.0Q257.5 281.0 252.0 288.5Q246.5 296.0 240.5 306.5Q234.5 317.0 230.0 326.25Q225.5 335.5 224.0 339.0Q222.5 348.0 227.5 357.25Q232.5 366.5 238.5 369.0Q244.5 370.5 252.25 375.75Q260.0 381.0 265.5 386.5Q271.0 392.0 271.0 395.0Q271.0 396.5 269.5 396.5Q266.0 396.5 258.5 391.5Q237.5 376.5 219.0 371.5Q200.5 366.5 181.5 369.0L157.0 371.5L203.0 324.5Q224.5 302.0 233.75 291.75Q243.0 281.5 244.0 277.25Q245.0 273.0 241.0 269.5Q237.5 265.5 229.25 263.25Q221.0 261.0 206.0 261.0H178.0L195.0 242.0Q202.5 234.5 212.0 224.5Q221.5 214.5 226.5 208.5L241.0 192.5L229.5 184.0Q219.0 176.0 200.75 169.5Q182.5 163.0 162.0 159.25Q141.5 155.5 125.0 155.5Q118.5 155.5 113.0 156.0Q107.5 156.5 103.5 158.0Q100.5 158.5 98.0 159.25Q95.5 160.0 94.0 160.0Q86.0 160.0 95.75 147.5Q105.5 135.0 135.5 106.0Q149.5 92.5 162.75 78.75Q176.0 65.0 185.75 54.0Q195.5 43.0 199.5 37.5ZM621.5 13.0Q623.0 12.0 625.25 11.0Q627.5 10.0 629.5 10.0Q631.0 10.0 626.75 16.0Q622.5 22.0 615.0 30.0Q607.0 38.0 597.0 52.25Q587.0 66.5 581.5 78.0L569.0 106.0L565.5 361.5H601.5Q616.5 361.5 626.75 363.0Q637.0 364.5 637.0 367.0Q637.0 369.0 626.75 370.25Q616.5 371.5 601.5 371.5H566.5V398.0Q566.5 408.0 565.5 414.5Q564.5 421.0 562.5 421.0Q560.5 419.0 559.0 411.25Q557.5 403.5 557.5 394.0V370.5L465.0 372.5Q425.5 373.0 404.5 374.0Q383.5 375.0 373.25 376.75Q363.0 378.5 355.5 382.5Q324.0 399.0 318.0 418.0Q316.0 422.5 314.0 425.0Q312.0 427.5 311.0 427.0Q309.5 425.5 308.75 408.25Q308.0 391.0 307.5 367.0L306.5 310.0L322.0 327.0Q335.5 341.0 350.25 349.25Q365.0 357.5 386.25 361.0Q407.5 364.5 440.0 364.5Q450.0 364.5 461.5 364.25Q473.0 364.0 485.5 363.5L557.5 360.5V108.0L476.5 111.5Q442.0 113.0 421.5 114.75Q401.0 116.5 389.75 119.75Q378.5 123.0 372.75 129.25Q367.0 135.5 362.5 146.0Q359.0 154.0 355.75 159.5Q352.5 165.0 351.5 165.0Q350.5 165.0 349.75 149.0Q349.0 133.0 349.0 111.0Q348.5 89.0 349.0 73.25Q349.5 57.5 350.0 57.5Q351.0 57.5 357.5 64.0Q364.0 70.5 372.5 79.0L392.5 101.5L440.5 103.5Q453.5 104.0 469.0 103.75Q484.5 103.5 499.0 103.0Q513.5 102.5 523.0 101.5L556.5 98.0L553.0 85.5Q548.0 68.5 539.25 54.5Q530.5 40.5 519.0 32.0Q512.5 27.0 508.75 23.0Q505.0 19.0 505.5 18.5Q506.5 17.5 511.0 17.5Q515.0 17.5 521.0 18.25Q527.0 19.0 533.5 20.0Q543.5 21.5 558.0 21.5Q571.5 21.5 585.25 20.5Q599.0 19.5 609.25 17.5Q619.5 15.5 621.5 13.0ZM307.5 60.0Q316.5 46.5 320.0 46.5Q321.5 46.5 322.0 50.0Q322.5 53.5 321.25 58.25Q320.0 63.0 317.5 65.5Q314.0 69.0 308.5 78.5Q303.0 88.0 297.5 98.0Q286.0 122.0 288.25 134.25Q290.5 146.5 308.0 156.0Q316.5 160.0 323.75 165.25Q331.0 170.5 334.75 174.5Q338.5 178.5 335.5 178.5Q334.0 178.5 327.0 175.5Q320.0 172.5 312.0 168.0Q293.5 157.0 274.0 152.5Q254.5 148.0 237.5 150.5L219.5 154.0L256.5 116.0Q271.5 100.5 286.25 84.0Q301.0 67.5 307.5 60.0ZM92.5 289.0Q98.0 278.5 99.5 278.5Q100.5 278.5 102.0 285.5Q103.0 295.5 99.0 303.0Q97.0 305.0 94.5 313.75Q92.0 322.5 91.0 332.5Q89.5 344.0 89.5 349.75Q89.5 355.5 92.75 360.0Q96.0 364.5 103.5 372.5Q110.5 380.0 130.0 391.75Q149.5 403.5 174.0 415.0Q199.0 426.5 214.25 435.75Q229.5 445.0 229.5 448.5Q229.5 451.0 227.0 451.0Q221.0 451.0 203.0 439.5Q187.0 429.5 165.0 419.0Q143.0 408.5 119.75 399.25Q96.5 390.0 76.0 383.5Q55.5 377.0 43.0 375.0Q30.0 374.0 20.5 372.25Q11.0 370.5 10.5 370.0Q10.0 369.0 13.25 366.25Q16.5 363.5 21.0 360.0Q29.5 354.5 40.25 345.0Q51.0 335.5 62.0 324.75Q73.0 314.0 81.25 304.5Q89.5 295.0 92.5 289.0Z" fill="black" /></svg>