<svg xmlns="http://www.w3.org/2000/svg" width="1030.5" height="463.0" viewBox="0 0 1030.5 463.0"><path d="M213.5 250.5Q213.5 249.5 212.25 247.75Q211.0 246.0 208.5 246.0Q204.0 246.0 204.0 254.0Q204.0 257.5 205.5 258.75Q207.0 260.0 208.5 258.5Q211.0 258.0 212.25 255.5Q213.5 253.0 213.5 250.5ZM326.0 229.5Q330.0 224.0 331.25 220.5Q332.5 217.0 331.5 217.0Q329.5 217.0 319.5 223.25Q309.5 229.5 298.0 238.0Q286.5 246.5 277.75 253.5Q269.0 260.5 269.0 262.0Q269.0 263.0 273.25 265.0Q277.5 267.0 283.0 267.5Q289.0 268.5 295.0 270.0Q301.0 271.5 304.0 272.5Q311.0 274.5 315.0 258.5Q316.0 252.5 319.25 243.75Q322.5 235.0 326.0 229.5ZM219.5 119.0Q219.5 117.5 211.25 116.5Q203.0 115.5 191.5 115.5Q180.5 115.5 172.25 116.5Q164.0 117.5 164.0 118.5Q164.0 121.5 167.5 129.5Q171.0 137.5 176.0 146.0Q181.0 154.5 185.5 160.75Q190.0 167.0 191.5 167.0Q193.5 166.0 198.0 159.25Q202.5 152.5 207.5 143.75Q212.5 135.0 216.0 128.0Q219.5 121.0 219.5 119.0ZM213.5 190.5Q213.5 186.0 208.5 186.0Q204.0 186.0 204.0 194.5Q204.0 197.0 205.5 198.25Q207.0 199.5 208.5 198.5Q213.5 196.5 213.5 190.5ZM487.0 223.5Q492.5 213.5 495.75 206.0Q499.0 198.5 498.0 198.0Q496.0 198.0 489.5 203.75Q483.0 209.5 474.75 218.25Q466.5 227.0 458.5 236.25Q450.5 245.5 445.25 252.5Q440.0 259.5 440.0 262.0Q440.0 269.0 449.5 271.75Q459.0 274.5 464.5 274.5Q470.5 274.5 472.5 271.0Q474.5 267.5 474.5 259.5Q474.5 254.5 478.25 244.0Q482.0 233.5 487.0 223.5ZM936.5 229.5Q943.0 219.5 947.25 211.75Q951.5 204.0 950.0 203.5Q948.0 203.5 942.25 207.5Q936.5 211.5 928.5 218.5Q920.0 226.0 907.0 235.75Q894.0 245.5 884.0 252.5Q863.5 265.0 866.0 269.5Q868.5 274.0 897.5 278.5L921.0 282.0V267.5Q921.0 261.5 925.75 250.25Q930.5 239.0 936.5 229.5ZM459.0 73.5Q458.5 72.5 448.5 71.75Q438.5 71.0 425.5 69.5Q393.5 68.0 396.5 73.0Q397.5 75.0 402.25 86.25Q407.0 97.5 412.5 112.0L425.5 145.5L437.5 118.5Q443.0 107.0 447.5 96.75Q452.0 86.5 454.5 82.5Q457.0 79.5 458.75 76.75Q460.5 74.0 459.0 73.5ZM603.0 201.5Q600.5 198.0 595.5 190.75Q590.5 183.5 586.5 176.5L576.0 160.5L565.5 180.5Q560.5 190.0 558.0 196.25Q555.5 202.5 556.5 203.5Q557.0 204.0 563.0 204.75Q569.0 205.5 577.0 206.5Q585.0 207.5 592.0 208.0Q599.0 208.5 601.5 208.5Q607.0 208.5 606.75 206.75Q606.5 205.0 603.0 201.5ZM618.0 50.0Q616.0 44.5 614.0 40.25Q612.0 36.0 611.5 36.0Q609.0 36.0 601.75 44.5Q594.5 53.0 586.5 64.5Q578.5 76.0 573.0 85.5Q567.5 95.0 568.5 96.5Q569.5 98.5 574.75 99.75Q580.0 101.0 586.5 101.0Q593.0 101.0 605.0 103.0Q617.0 105.0 626.5 108.5Q637.5 111.5 645.5 112.75Q653.5 114.0 654.0 113.5Q655.0 112.5 650.5 105.25Q646.0 98.0 639.0 89.5Q631.5 80.0 625.25 68.5Q619.0 57.0 618.0 50.0ZM58.0 354.0Q48.0 348.5 39.75 345.25Q31.5 342.0 30.5 342.0Q28.5 342.0 27.0 353.75Q25.5 365.5 25.5 382.0Q25.5 402.0 26.25 410.5Q27.0 419.0 33.0 419.0Q37.0 419.0 44.25 416.0Q51.5 413.0 63.5 408.0Q70.5 405.5 85.75 401.5Q101.0 397.5 115.5 394.0Q129.5 390.5 138.75 387.25Q148.0 384.0 147.0 383.5Q146.5 382.5 136.5 379.5Q126.5 376.5 114.5 374.0Q101.5 371.5 85.0 365.5Q68.5 359.5 58.0 354.0ZM213.5 321.5Q213.5 316.5 208.5 316.5Q204.0 316.5 204.0 321.5Q204.0 323.0 205.5 324.75Q207.0 326.5 208.5 326.5Q211.0 326.5 212.25 324.75Q213.5 323.0 213.5 321.5ZM618.0 269.0 591.5 266.0Q581.0 264.0 570.75 262.25Q560.5 260.5 557.5 259.5Q552.0 258.0 551.0 261.0Q550.0 264.0 552.5 278.0Q553.5 286.5 555.5 293.0Q557.5 299.5 558.0 300.0Q560.0 300.0 568.5 295.75Q577.0 291.5 588.0 285.5ZM606.0 366.5Q596.5 366.5 584.75 365.0Q573.0 363.5 566.5 362.0Q558.0 359.5 555.5 359.5Q552.0 359.5 550.75 361.25Q549.5 363.0 548.5 367.0Q547.0 371.5 547.25 381.25Q547.5 391.0 548.5 401.5Q549.5 412.0 551.0 419.5Q552.5 427.0 554.0 427.0Q556.0 427.0 565.0 420.5Q574.0 414.0 585.0 404.5Q596.0 395.0 607.0 387.25Q618.0 379.5 621.5 379.0Q633.5 374.0 629.0 370.25Q624.5 366.5 606.0 366.5ZM597.5 32.0Q610.5 10.0 617.0 10.0Q621.0 10.0 621.0 22.0Q621.0 30.5 627.25 45.75Q633.5 61.0 642.5 76.0Q651.5 91.0 660.5 100.5Q665.5 105.0 679.25 115.25Q693.0 125.5 711.75 138.75Q730.5 152.0 751.0 165.5Q775.0 182.0 789.75 191.75Q804.5 201.5 813.75 206.25Q823.0 211.0 828.75 212.25Q834.5 213.5 840.5 213.0Q849.0 211.5 851.5 211.5Q856.0 211.5 849.5 218.0Q843.0 223.5 844.0 226.0Q845.0 228.5 856.0 236.5Q862.0 240.5 868.75 243.25Q875.5 246.0 877.5 245.5Q881.0 244.0 893.0 235.0Q905.0 226.0 921.0 213.25Q937.0 200.5 952.75 187.25Q968.5 174.0 979.5 164.0Q990.5 154.0 992.0 151.0Q995.0 147.0 997.75 144.0Q1000.5 141.0 1001.5 141.0Q1015.0 141.0 986.5 175.0Q966.0 200.5 952.0 223.75Q938.0 247.0 933.5 263.0Q929.0 279.0 936.0 283.5Q937.5 285.0 938.25 288.25Q939.0 291.5 938.0 294.0Q937.0 297.0 940.0 302.0Q943.0 307.0 949.0 312.0Q959.5 321.0 972.0 332.75Q984.5 344.5 995.5 356.25Q1006.5 368.0 1013.5 376.5Q1020.5 385.0 1019.5 386.5Q1019.5 386.5 1019.25 386.75Q1019.0 387.0 1019.0 387.0Q1016.5 387.0 1005.25 377.75Q994.0 368.5 980.0 354.5Q951.0 326.0 926.5 308.0Q902.0 290.0 892.0 290.0Q889.5 290.0 888.5 291.0Q887.0 292.5 872.5 297.5Q858.0 302.5 835.25 309.75Q812.5 317.0 785.0 325.0Q753.5 334.0 731.75 340.75Q710.0 347.5 694.5 353.25Q679.0 359.0 667.0 364.75Q655.0 370.5 643.0 377.5Q631.0 384.5 615.5 394.5Q587.0 413.0 571.25 427.0Q555.5 441.0 555.5 447.5Q555.5 453.0 553.0 453.0Q550.0 453.0 546.0 446.5Q542.0 440.0 541.5 431.5Q539.0 403.5 532.75 377.5Q526.5 351.5 518.0 340.0Q513.5 333.0 503.5 323.25Q493.5 313.5 481.75 304.0Q470.0 294.5 460.5 288.0Q451.0 281.5 447.0 281.5Q443.0 281.5 441.5 290.75Q440.0 300.0 440.0 329.5V376.0H467.0Q479.0 376.0 486.75 377.75Q494.5 379.5 494.5 382.0Q494.5 384.5 457.0 385.75Q419.5 387.0 340.5 386.5Q289.5 386.0 253.75 386.75Q218.0 387.5 192.5 389.5Q167.0 391.5 146.0 395.5Q125.0 399.5 103.5 406.25Q82.0 413.0 54.5 423.0Q39.0 428.0 27.0 432.0Q15.0 436.0 12.0 436.0Q11.5 436.0 11.25 436.0Q11.0 436.0 11.0 436.0Q10.0 435.5 11.0 429.0Q12.0 422.5 14.0 414.0Q16.5 405.5 17.0 389.25Q17.5 373.0 16.0 355.5Q15.0 339.5 15.0 328.0Q15.0 316.5 15.5 316.5Q17.0 316.5 24.0 320.75Q31.0 325.0 39.0 332.0Q61.0 347.5 91.5 357.75Q122.0 368.0 154.0 370.5L193.0 372.5L190.5 289.0Q189.5 255.0 187.5 231.75Q185.5 208.5 182.0 192.0Q178.5 175.5 172.25 161.25Q166.0 147.0 156.0 131.0Q151.0 123.5 147.5 116.25Q144.0 109.0 144.0 108.0Q144.0 105.5 158.75 104.5Q173.5 103.5 193.5 104.5Q214.0 105.0 229.0 106.75Q244.0 108.5 244.0 109.5Q244.0 110.5 239.5 116.5Q235.0 122.5 229.5 129.5Q215.5 145.5 211.5 159.25Q207.5 173.0 215.5 178.5Q219.5 181.5 236.5 184.0Q253.5 186.5 273.5 189.0Q294.5 189.5 309.5 191.75Q324.5 194.0 324.5 196.5Q324.5 197.5 312.75 198.0Q301.0 198.5 285.5 198.0Q249.0 195.5 227.75 201.75Q206.5 208.0 206.5 221.5Q206.5 232.5 218.75 239.25Q231.0 246.0 252.0 246.0Q260.5 246.0 268.0 243.75Q275.5 241.5 286.25 234.75Q297.0 228.0 315.0 214.5Q332.5 201.5 348.25 188.0Q364.0 174.5 369.0 169.0Q376.0 161.5 380.5 158.25Q385.0 155.0 387.0 155.0Q391.0 155.0 387.75 163.25Q384.5 171.5 373.0 184.5Q366.0 192.5 356.5 205.0Q347.0 217.5 340.0 227.5Q328.0 245.0 325.5 258.75Q323.0 272.5 331.75 287.0Q340.5 301.5 361.5 322.0Q375.5 335.0 384.75 346.0Q394.0 357.0 394.0 360.0Q394.0 363.5 385.75 356.75Q377.5 350.0 365.0 338.0Q336.0 308.0 311.75 292.75Q287.5 277.5 264.0 274.0Q249.5 272.0 244.5 269.75Q239.5 267.5 241.0 263.0Q243.5 256.0 240.5 256.5Q237.5 257.0 221.0 263.5Q209.5 268.5 206.75 272.5Q204.0 276.5 204.5 287.5Q206.0 299.0 212.5 305.25Q219.0 311.5 234.75 314.0Q250.5 316.5 278.5 316.5Q299.0 316.5 311.75 317.75Q324.5 319.0 324.5 321.5Q324.5 324.0 312.25 325.25Q300.0 326.5 282.0 326.5Q240.5 326.5 222.25 333.0Q204.0 339.5 204.0 355.5Q204.0 362.0 206.0 367.25Q208.0 372.5 212.0 374.0Q214.5 374.5 230.5 375.0Q246.5 375.5 271.25 375.75Q296.0 376.0 324.5 376.0H430.5L429.0 327.0L426.5 278.5L412.5 278.0L398.0 274.5L414.5 260.5Q423.0 253.0 426.25 248.5Q429.5 244.0 429.5 235.75Q429.5 227.5 427.5 209.5Q426.5 191.0 421.0 168.75Q415.5 146.5 406.75 123.75Q398.0 101.0 387.0 81.0Q382.0 72.5 378.0 65.75Q374.0 59.0 374.0 58.5Q374.0 58.0 385.25 58.0Q396.5 58.0 413.0 58.0Q429.5 58.0 446.0 58.25Q462.5 58.5 473.75 58.75Q485.0 59.0 485.0 59.5Q485.0 60.0 479.5 67.0Q474.0 74.0 467.0 82.5Q456.0 98.0 449.5 112.5Q443.0 127.0 441.0 145.75Q439.0 164.5 440.5 193.0L442.0 238.5L485.5 196.5Q497.5 185.0 509.25 172.75Q521.0 160.5 529.75 150.75Q538.5 141.0 541.5 136.5Q553.0 121.5 556.5 121.5Q559.0 121.5 555.25 131.0Q551.5 140.5 541.5 155.0Q533.0 167.0 521.75 185.25Q510.5 203.5 503.0 218.0Q494.0 232.5 490.25 241.25Q486.5 250.0 486.0 257.0Q485.5 264.0 487.0 274.0Q489.5 287.5 494.75 296.5Q500.0 305.5 515.5 320.0Q535.5 338.5 553.5 347.5Q571.5 356.5 597.5 356.5Q622.5 356.5 659.0 348.25Q695.5 340.0 752.5 323.5Q784.0 314.5 810.0 307.0Q836.0 299.5 852.0 295.25Q868.0 291.0 868.5 291.0Q869.0 291.0 870.0 289.75Q871.0 288.5 871.0 287.0Q871.0 284.0 866.25 282.75Q861.5 281.5 854.5 281.5Q839.5 281.5 834.5 277.0Q829.5 272.5 840.5 269.0Q844.5 268.0 849.0 265.0Q853.5 262.0 856.0 258.5Q859.5 254.5 856.5 251.0Q853.5 247.5 842.5 239.5L822.5 226.0L769.0 237.0Q746.5 242.5 731.0 246.75Q715.5 251.0 715.5 252.5Q715.5 253.5 725.75 259.75Q736.0 266.0 751.0 274.0Q765.5 281.0 774.5 287.75Q783.5 294.5 782.5 297.0Q781.0 299.0 768.5 293.75Q756.0 288.5 738.5 278.5Q721.5 270.0 706.0 263.0Q690.5 256.0 686.0 256.0Q680.5 256.0 666.0 261.25Q651.5 266.5 633.5 274.5Q615.5 282.5 598.75 291.0Q582.0 299.5 571.5 306.5Q564.0 311.5 559.0 314.5Q554.0 317.5 551.0 317.5Q545.0 317.5 545.0 299.5Q545.0 293.0 543.25 283.75Q541.5 274.5 539.5 267.0Q533.0 245.5 542.5 245.5Q547.0 245.5 558.0 249.5Q568.0 253.0 583.0 254.5Q598.0 256.0 613.5 256.0Q628.5 256.0 641.25 254.75Q654.0 253.5 661.75 250.75Q669.5 248.0 668.0 244.5Q667.0 239.5 654.25 234.25Q641.5 229.0 622.0 224.0Q602.5 219.0 579.5 216.5Q562.5 214.0 550.0 211.75Q537.5 209.5 536.5 209.0Q535.5 208.0 539.75 200.5Q544.0 193.0 550.5 182.5Q557.5 172.5 564.0 162.25Q570.5 152.0 572.5 148.0Q575.0 144.0 577.0 144.0Q579.0 144.0 582.0 148.25Q585.0 152.5 590.0 162.5Q595.5 173.5 604.25 184.5Q613.0 195.5 622.5 202.5Q635.5 212.0 651.0 221.0Q666.5 230.0 679.75 235.75Q693.0 241.5 698.5 241.5Q703.0 241.5 715.0 239.25Q727.0 237.0 742.25 233.75Q757.5 230.5 771.75 227.0Q786.0 223.5 795.5 220.75Q805.0 218.0 805.0 217.0Q805.0 215.5 796.5 209.25Q788.0 203.0 774.5 193.75Q761.0 184.5 745.25 174.25Q729.5 164.0 714.5 155.0Q699.5 146.0 688.5 139.75Q677.5 133.5 673.5 132.0Q650.5 123.5 622.25 117.25Q594.0 111.0 571.5 108.5L539.5 104.5L561.0 82.0Q569.0 72.0 579.75 57.5Q590.5 43.0 597.5 32.0Z" fill="black" /></svg>