<svg xmlns="http://www.w3.org/2000/svg" width="1394.5" height="405.0" viewBox="0 0 1394.5 405.0"><path d="M125.5 316.0Q112.0 315.0 94.5 313.25Q77.0 311.5 67.0 309.5L42.0 303.5V358.5L71.0 351.0Q78.5 348.0 91.75 344.75Q105.0 341.5 120.0 338.25Q135.0 335.0 148.5 333.0Q179.5 328.0 185.5 325.5Q191.5 323.0 180.5 321.0Q172.5 318.5 156.25 317.5Q140.0 316.5 125.5 316.0ZM140.0 194.0Q141.0 185.5 141.75 180.25Q142.5 175.0 141.5 175.0Q141.0 175.0 135.75 180.25Q130.5 185.5 122.0 194.0L104.5 213.5H120.5Q130.5 213.5 134.5 209.5Q138.5 205.5 140.0 194.0ZM974.0 203.5Q974.0 188.0 971.0 188.0Q969.0 188.0 966.0 200.0Q965.0 205.5 965.5 210.5Q966.0 215.5 968.0 217.0Q970.5 218.5 972.25 214.75Q974.0 211.0 974.0 203.5ZM1036.0 283.5Q1029.5 283.5 1010.25 278.5Q991.0 273.5 969.5 268.0Q948.0 261.5 932.5 257.25Q917.0 253.0 917.0 254.5Q917.0 254.5 924.5 260.0Q932.0 265.5 942.0 272.5Q953.5 280.0 968.0 291.5Q982.5 303.0 993.0 312.5L1017.0 334.5L1034.5 312.5Q1049.5 292.0 1049.75 287.75Q1050.0 283.5 1036.0 283.5ZM1166.0 282.5Q1166.0 280.0 1163.0 278.25Q1160.0 276.5 1156.0 276.5Q1152.0 276.5 1149.5 279.75Q1147.0 283.0 1147.0 286.5Q1147.0 295.5 1156.0 292.0Q1160.0 291.0 1163.0 287.75Q1166.0 284.5 1166.0 282.5ZM1019.0 129.0Q1019.0 117.0 1002.5 117.0Q995.0 117.0 992.0 119.25Q989.0 121.5 988.25 131.75Q987.5 142.0 987.5 166.0Q987.5 187.0 989.0 198.5Q990.5 210.0 993.0 210.0Q995.5 208.0 999.75 198.0Q1004.0 188.0 1008.5 174.25Q1013.0 160.5 1016.0 148.0Q1019.0 135.5 1019.0 129.0ZM1021.5 226.0Q1022.5 224.0 1021.75 218.75Q1021.0 213.5 1019.0 207.0Q1015.5 194.5 1014.5 194.5Q1014.0 194.5 1011.5 205.0Q1010.0 212.5 1012.5 219.75Q1015.0 227.0 1018.5 227.0Q1020.5 227.0 1021.5 226.0ZM1065.5 146.5Q1066.5 128.5 1064.0 124.25Q1061.5 120.0 1050.0 118.5L1031.5 117.0V167.5Q1031.5 189.0 1033.5 204.75Q1035.5 220.5 1037.5 222.0Q1040.5 224.0 1045.0 217.0Q1049.5 210.0 1054.0 197.75Q1058.5 185.5 1061.75 171.75Q1065.0 158.0 1065.5 146.5ZM1067.0 230.5Q1068.5 229.0 1069.25 224.5Q1070.0 220.0 1069.0 215.0Q1067.5 206.5 1066.0 206.5Q1065.5 206.5 1061.5 215.5Q1058.5 222.5 1059.25 227.75Q1060.0 233.0 1063.0 233.0Q1065.0 233.0 1067.0 230.5ZM1116.5 169.5Q1105.5 163.5 1096.0 159.25Q1086.5 155.0 1085.5 155.0Q1084.5 155.0 1083.75 164.25Q1083.0 173.5 1084.0 186.0Q1085.0 199.0 1087.0 206.5Q1089.0 214.0 1095.25 220.75Q1101.5 227.5 1114.5 238.0Q1134.0 253.0 1143.5 253.0Q1155.5 253.0 1161.5 226.0Q1165.5 209.0 1154.25 196.0Q1143.0 183.0 1116.5 169.5ZM1150.5 131.0Q1103.5 124.5 1092.0 124.5Q1086.0 124.5 1084.25 125.5Q1082.5 126.5 1082.5 129.0Q1082.5 133.0 1095.5 141.5Q1108.5 150.0 1128.25 159.75Q1148.0 169.5 1168.75 178.0Q1189.5 186.5 1205.0 190.5Q1212.5 192.0 1216.0 192.0Q1221.0 192.0 1221.75 187.5Q1222.5 183.0 1222.5 169.5Q1222.5 158.0 1221.25 151.75Q1220.0 145.5 1213.75 142.25Q1207.5 139.0 1192.75 136.75Q1178.0 134.5 1150.5 131.0ZM1204.0 202.5Q1204.0 200.0 1191.5 200.0Q1179.5 200.0 1176.5 217.0L1173.5 232.5L1188.5 219.0Q1194.5 212.5 1199.25 207.75Q1204.0 203.0 1204.0 202.5ZM1216.5 228.5Q1216.5 219.5 1212.0 219.5Q1206.0 219.5 1186.5 240.0Q1169.5 257.0 1170.25 263.75Q1171.0 270.5 1189.0 270.5Q1200.5 270.5 1208.5 258.0Q1216.5 245.5 1216.5 228.5ZM1232.0 307.0Q1227.0 275.5 1221.5 275.5Q1217.0 275.5 1211.0 294.0Q1207.5 304.0 1204.0 313.75Q1200.5 323.5 1199.5 325.5Q1197.5 334.5 1215.5 334.5Q1225.5 334.5 1229.5 333.25Q1233.5 332.0 1233.75 326.25Q1234.0 320.5 1232.0 307.0ZM178.0 105.0Q180.0 96.5 180.25 90.75Q180.5 85.0 180.5 85.0Q179.0 86.0 173.25 91.0Q167.5 96.0 161.0 102.5Q154.5 109.0 149.75 114.25Q145.0 119.5 145.0 120.5Q145.0 122.0 149.25 122.75Q153.5 123.5 160.0 123.5Q169.5 123.5 173.0 120.0Q176.5 116.5 178.0 105.0ZM290.0 198.0Q295.5 186.5 294.75 184.0Q294.0 181.5 285.5 181.5Q274.5 181.5 273.25 185.0Q272.0 188.5 278.0 202.5Q280.5 210.0 282.0 210.0Q284.0 210.0 290.0 198.0ZM365.0 210.5Q367.5 207.0 365.5 203.25Q363.5 199.5 359.5 198.5Q354.0 196.0 351.25 200.75Q348.5 205.5 349.25 212.25Q350.0 219.0 355.0 223.0Q358.5 224.0 360.25 224.5Q362.0 225.0 362.0 223.0Q362.0 222.0 362.75 218.5Q363.5 215.0 365.0 210.5ZM368.0 123.5Q355.5 115.0 342.5 104.5Q329.5 94.0 322.5 87.5L306.5 72.0L293.5 96.0L281.0 122.5L322.5 129.0Q340.0 132.5 357.0 135.75Q374.0 139.0 381.0 140.0Q385.0 141.5 387.0 141.5Q393.0 141.5 368.0 123.5ZM1222.5 119.0Q1222.5 111.5 1222.0 111.5Q1221.0 112.0 1212.75 113.5Q1204.5 115.0 1194.0 117.0L1168.5 121.5L1196.5 124.0Q1201.0 124.5 1204.75 124.75Q1208.5 125.0 1211.5 125.0Q1222.5 125.0 1222.5 119.0ZM1340.5 125.5Q1344.0 111.0 1342.5 108.0Q1341.0 105.0 1329.5 106.0Q1250.5 112.0 1240.0 119.25Q1229.5 126.5 1284.0 139.5Q1304.0 144.0 1319.0 146.5Q1334.0 149.0 1335.0 148.0Q1335.5 147.0 1337.0 140.5Q1338.5 134.0 1340.5 125.5ZM183.0 62.0Q223.0 23.5 233.0 23.5Q239.5 23.5 223.0 46.0Q206.0 69.0 198.25 88.25Q190.5 107.5 194.5 112.0Q197.0 115.0 198.25 119.25Q199.5 123.5 198.0 126.0Q196.5 130.5 204.75 136.75Q213.0 143.0 227.0 149.5Q241.0 156.0 257.0 160.75Q273.0 165.5 286.5 166.5Q306.0 169.0 311.25 171.25Q316.5 173.5 313.0 181.0Q297.0 217.0 290.5 245.0Q284.0 273.0 287.5 289.5Q291.0 306.0 304.5 307.5Q305.5 307.5 307.0 307.5Q308.5 307.5 310.0 307.5Q315.5 307.5 322.25 307.0Q329.0 306.5 334.0 305.0Q342.0 303.0 345.25 300.75Q348.5 298.5 348.5 290.5Q348.5 282.5 346.0 265.0Q344.0 251.0 340.25 234.0Q336.5 217.0 332.5 207.5Q328.5 199.0 326.0 191.25Q323.5 183.5 323.5 181.5Q323.5 180.0 332.0 180.5Q340.5 181.0 352.25 183.0Q364.0 185.0 373.75 187.25Q383.5 189.5 386.0 191.0Q387.5 192.5 385.0 199.75Q382.5 207.0 378.0 217.0Q373.0 227.5 368.75 243.5Q364.5 259.5 362.5 272.5L359.5 303.5L391.0 300.0Q399.5 299.0 417.5 297.25Q435.5 295.5 457.75 293.5Q480.0 291.5 502.0 290.5Q524.5 287.5 547.0 285.5Q569.5 283.5 588.0 282.0Q606.5 280.5 615.5 279.5L648.5 275.5L547.5 226.0Q465.5 184.5 403.5 163.5Q341.5 142.5 295.0 138.5Q279.5 137.5 267.75 137.25Q256.0 137.0 255.0 137.0Q254.5 137.0 258.5 130.0Q262.5 123.0 269.0 114.0Q276.0 104.0 282.75 89.75Q289.5 75.5 292.5 65.5Q296.0 55.0 299.25 48.0Q302.5 41.0 304.5 41.0Q305.5 41.0 309.75 46.5Q314.0 52.0 318.0 59.0Q332.5 85.0 397.25 126.5Q462.0 168.0 572.0 223.0Q614.5 244.0 637.75 256.75Q661.0 269.5 669.25 276.0Q677.5 282.5 674.0 285.0Q673.5 286.0 655.5 288.25Q637.5 290.5 608.0 293.25Q578.5 296.0 543.5 299.0Q509.0 301.5 476.25 304.5Q443.5 307.5 420.0 309.75Q396.5 312.0 389.5 312.5L362.0 316.5V347.5Q362.0 360.0 360.25 370.25Q358.5 380.5 355.0 381.5Q352.5 383.5 350.75 375.5Q349.0 367.5 349.0 351.0V316.0L325.5 319.0Q306.5 321.5 298.0 324.0Q289.5 326.5 287.5 331.25Q285.5 336.0 285.5 347.0Q285.5 354.5 283.75 360.75Q282.0 367.0 278.5 367.0Q276.5 367.0 274.5 360.75Q272.5 354.5 272.5 347.0Q272.5 337.5 271.25 333.25Q270.0 329.0 258.5 329.0Q249.0 329.0 230.25 331.75Q211.5 334.5 178.5 340.0Q112.0 352.0 76.0 363.0Q40.0 374.0 25.5 388.0Q17.0 395.0 13.5 395.0Q10.0 395.0 11.75 388.0Q13.5 381.0 21.0 368.5Q27.0 360.0 28.75 349.5Q30.5 339.0 27.5 321.0L24.5 288.5L45.0 293.0Q56.5 295.0 79.75 297.75Q103.0 300.5 131.0 302.75Q159.0 305.0 185.75 306.5Q212.5 308.0 231.0 308.0H275.0L271.0 258.5Q269.0 228.0 264.25 210.25Q259.5 192.5 248.25 181.0Q237.0 169.5 215.0 158.5Q202.5 151.5 192.0 147.5Q181.5 143.5 180.5 143.5Q178.0 143.5 173.25 151.25Q168.5 159.0 163.25 169.75Q158.0 180.5 154.25 190.0Q150.5 199.5 150.5 203.5Q150.5 207.0 152.75 210.25Q155.0 213.5 158.0 213.5Q163.0 213.5 161.5 219.0Q160.5 221.0 168.5 228.0Q176.5 235.0 189.0 243.0Q202.0 251.5 211.75 259.75Q221.5 268.0 221.5 270.5Q221.5 277.0 215.5 277.0Q210.0 277.0 205.0 270.5Q202.0 265.0 190.0 258.0Q178.0 251.0 161.75 244.5Q145.5 238.0 128.5 233.5Q111.5 229.0 98.5 228.0L63.5 223.5L86.0 207.0Q95.5 200.0 110.25 187.0Q125.0 174.0 135.0 163.0L160.0 137.0H129.0L97.0 135.5L116.0 122.5Q122.0 118.5 132.75 109.0Q143.5 99.5 157.0 87.0Q170.5 74.5 183.0 62.0ZM984.5 13.5Q989.0 10.0 990.0 10.0Q992.5 10.0 993.0 20.0Q993.5 30.0 993.0 55.0Q992.0 76.5 992.0 86.5Q992.0 96.5 994.75 99.25Q997.5 102.0 1003.5 103.0Q1015.0 105.0 1020.25 93.5Q1025.5 82.0 1025.5 55.0Q1025.5 38.0 1029.0 26.5Q1032.5 15.0 1037.5 18.0Q1039.5 19.0 1039.5 31.0Q1039.5 43.0 1037.5 58.5Q1035.5 80.0 1035.25 89.75Q1035.0 99.5 1039.0 102.25Q1043.0 105.0 1052.5 105.0Q1065.0 105.0 1070.25 90.5Q1075.5 76.0 1075.5 47.0Q1075.5 28.5 1083.5 28.5Q1091.5 28.5 1087.0 66.5L1084.0 106.0L1155.5 103.0L1226.0 101.5L1228.5 63.5Q1231.0 29.0 1236.5 29.0Q1242.5 29.0 1242.5 63.5V100.0L1293.5 96.0Q1317.0 94.0 1335.75 90.0Q1354.5 86.0 1361.0 82.0Q1374.0 74.5 1377.5 74.5Q1384.5 74.5 1368.5 95.5Q1360.5 104.5 1357.25 115.75Q1354.0 127.0 1354.0 140.0Q1354.0 152.0 1352.75 160.0Q1351.5 168.0 1349.5 168.0Q1348.5 168.0 1332.75 164.5Q1317.0 161.0 1296.0 155.0Q1276.0 150.5 1259.5 147.0Q1243.0 143.5 1240.5 143.5Q1239.0 143.5 1237.25 150.75Q1235.5 158.0 1235.5 168.0Q1235.5 194.0 1243.5 194.0Q1248.0 194.0 1248.0 195.25Q1248.0 196.5 1243.0 199.0Q1239.5 201.5 1238.25 213.0Q1237.0 224.5 1237.5 240.5Q1238.0 256.5 1239.75 273.75Q1241.5 291.0 1244.75 305.75Q1248.0 320.5 1252.0 328.5Q1256.5 336.5 1258.75 343.0Q1261.0 349.5 1260.0 351.0Q1258.0 352.0 1252.5 352.0Q1245.0 352.0 1232.5 350.75Q1220.0 349.5 1207.75 347.25Q1195.5 345.0 1187.0 343.0Q1178.5 341.0 1178.5 339.5Q1178.5 337.0 1182.25 328.0Q1186.0 319.0 1191.0 308.0Q1196.5 298.0 1199.25 290.75Q1202.0 283.5 1200.5 283.5Q1195.0 283.5 1177.5 294.25Q1160.0 305.0 1134.5 323.5Q1121.5 333.0 1111.0 339.25Q1100.5 345.5 1098.0 345.5Q1096.5 344.5 1101.75 336.0Q1107.0 327.5 1114.5 316.5Q1132.0 293.0 1130.25 277.0Q1128.5 261.0 1107.5 249.0Q1095.0 241.5 1091.5 241.5Q1089.0 241.5 1089.0 248.0Q1089.0 254.5 1085.5 254.5Q1082.5 254.5 1078.5 252.5Q1070.0 248.5 1048.0 243.5Q1026.0 238.5 1002.5 235.0Q967.5 231.0 955.25 226.0Q943.0 221.0 946.5 214.0Q951.0 203.0 955.75 188.0Q960.5 173.0 964.25 158.5Q968.0 144.0 970.0 133.5Q972.0 123.0 971.0 120.5Q970.5 116.5 936.5 113.5Q902.5 110.5 832.5 107.5Q795.5 106.5 760.25 105.25Q725.0 104.0 699.5 102.75Q674.0 101.5 665.0 101.0Q654.0 99.5 650.5 100.5Q647.0 101.5 655.0 107.0Q663.0 112.5 685.75 124.75Q708.5 137.0 749.5 158.5Q809.0 190.0 864.75 214.0Q920.5 238.0 968.0 253.25Q1015.5 268.5 1050.0 274.0Q1063.0 275.0 1072.75 277.0Q1082.5 279.0 1082.5 279.5Q1082.5 280.0 1074.5 289.5Q1066.5 299.0 1054.0 311.5Q1041.5 323.5 1033.5 335.25Q1025.5 347.0 1025.5 352.5Q1025.5 357.5 1022.0 363.5Q1018.5 369.5 1014.0 373.0Q1007.5 378.5 1006.5 378.5Q1004.5 378.5 1007.5 368.0Q1011.5 353.5 998.5 337.0Q987.0 322.5 959.5 301.75Q932.0 281.0 891.75 255.75Q851.5 230.5 801.25 202.75Q751.0 175.0 694.0 146.5Q596.0 97.5 602.5 91.0Q605.5 87.5 637.5 87.5Q653.5 87.5 676.5 88.25Q699.5 89.0 729.5 91.0Q762.5 93.0 798.0 94.5Q833.5 96.0 863.75 97.0Q894.0 98.0 911.0 98.0H973.0L977.0 79.0Q978.5 70.0 979.75 58.25Q981.0 46.5 981.0 38.0Q981.0 29.5 981.75 21.75Q982.5 14.0 984.5 13.5Z" fill="black" /></svg>