<svg xmlns="http://www.w3.org/2000/svg" width="328.5" height="382.0" viewBox="0 0 328.5 382.0"><path d="M132.0 252.0 169.0 215.0H94.5L113.0 234.0ZM92.5 74.0Q92.0 65.5 90.25 59.25Q88.5 53.0 87.0 53.0Q86.0 53.0 79.25 60.0Q72.5 67.0 64.5 76.0Q56.5 85.0 50.5 92.5Q44.5 100.0 44.5 101.5Q44.5 102.5 49.0 102.5Q51.0 102.5 53.75 102.25Q56.5 102.0 59.5 101.5Q77.5 98.5 84.75 96.75Q92.0 95.0 93.0 90.25Q94.0 85.5 92.5 74.0ZM201.0 172.5 198.0 145.5Q196.5 134.0 195.25 126.0Q194.0 118.0 193.5 117.5Q192.5 117.5 185.5 124.5Q178.5 131.5 169.5 141.5Q160.5 151.5 153.0 161.0Q146.0 169.0 148.25 170.5Q150.5 172.0 172.0 172.5ZM65.5 202.5Q65.5 200.5 75.0 200.5Q78.0 200.5 81.75 200.5Q85.5 200.5 89.5 201.5Q99.5 202.5 121.25 203.5Q143.0 204.5 163.0 204.5Q183.5 204.5 197.75 205.5Q212.0 206.5 212.0 208.5Q212.0 210.5 205.25 214.25Q198.5 218.0 189.0 222.0Q173.5 228.5 164.0 234.75Q154.5 241.0 149.5 250.25Q144.5 259.5 142.5 275.0Q140.5 290.5 140.0 315.0Q139.0 338.5 137.0 355.25Q135.0 372.0 133.0 372.0Q131.0 372.0 129.75 357.0Q128.5 342.0 128.5 321.0Q128.5 298.0 127.75 286.25Q127.0 274.5 124.0 267.5Q121.0 260.5 115.0 252.0Q110.0 244.5 100.75 235.0Q91.5 225.5 84.0 220.5Q76.5 215.0 71.0 209.75Q65.5 204.5 65.5 202.5ZM80.5 41.5Q106.5 10.0 113.0 10.0Q117.5 10.0 109.5 27.0Q106.0 33.5 104.25 44.25Q102.5 55.0 103.0 64.5Q104.0 74.0 106.25 80.25Q108.5 86.5 114.75 92.75Q121.0 99.0 133.5 109.5L161.5 133.0L186.5 105.5Q195.0 95.0 202.75 88.75Q210.5 82.5 212.5 82.5Q213.5 82.5 213.5 83.0Q216.5 88.0 211.5 95.0Q208.0 101.0 207.0 114.5Q206.0 128.0 208.0 141.25Q210.0 154.5 214.0 160.5Q216.5 164.5 233.5 178.25Q250.5 192.0 271.5 207.5Q292.0 222.0 305.25 233.5Q318.5 245.0 316.0 246.0Q312.5 246.0 304.0 241.75Q295.5 237.5 287.0 231.5Q263.0 214.5 249.25 205.0Q235.5 195.5 227.25 190.75Q219.0 186.0 211.5 184.5Q207.0 183.5 201.5 183.25Q196.0 183.0 188.5 182.5Q175.5 182.0 159.5 183.25Q143.5 184.5 133.5 186.0L110.0 190.0L132.5 167.0Q141.5 157.5 148.0 150.0Q154.5 142.5 154.5 141.5Q154.5 140.5 147.75 134.5Q141.0 128.5 131.0 121.5Q119.5 113.0 113.0 110.0Q106.5 107.0 98.5 107.0Q83.5 107.0 67.75 111.0Q52.0 115.0 37.5 119.0Q29.0 122.0 23.25 123.75Q17.5 125.5 15.0 125.5Q10.0 125.5 14.0 119.5Q18.0 113.5 29.5 101.0Q39.0 91.0 54.0 73.5Q69.0 56.0 80.5 41.5Z" fill="black" /></svg>