<svg xmlns="http://www.w3.org/2000/svg" width="583.5" height="461.5" viewBox="0 0 583.5 461.5"><path d="M64.5 188.0Q58.5 184.0 54.75 181.5Q51.0 179.0 48.5 179.0Q44.5 179.0 44.5 195.5Q44.5 202.0 42.0 213.5Q39.5 225.0 37.0 233.5Q34.0 242.5 32.0 249.0Q30.0 255.5 30.5 256.0Q32.0 257.0 46.25 254.0Q60.5 251.0 79.0 246.5Q99.0 241.0 119.75 236.5Q140.5 232.0 150.0 230.5Q175.0 227.0 174.5 223.0Q174.0 219.0 148.5 216.0Q122.0 213.5 100.75 206.25Q79.5 199.0 64.5 188.0ZM266.5 107.5Q265.5 106.0 258.25 105.0Q251.0 104.0 242.0 103.25Q233.0 102.5 226.0 102.5Q217.5 102.5 217.5 103.5Q217.5 105.5 220.75 113.0Q224.0 120.5 228.25 129.25Q232.5 138.0 236.5 144.5Q240.5 151.0 242.0 151.0Q244.0 151.0 245.5 146.5Q246.5 142.5 250.75 135.5Q255.0 128.5 258.5 122.5Q262.5 116.5 265.0 112.25Q267.5 108.0 266.5 107.5ZM489.0 176.0Q463.5 156.5 445.25 144.5Q427.0 132.5 410.0 125.5Q393.0 118.5 372.25 114.25Q351.5 110.0 320.5 106.5L282.5 103.0L268.0 125.5Q263.0 134.0 258.5 146.5Q254.0 159.0 251.25 171.75Q248.5 184.5 248.0 194.75Q247.5 205.0 250.0 209.5Q252.0 212.5 284.5 213.0Q317.0 213.5 384.0 212.5Q420.0 211.5 449.75 211.75Q479.5 212.0 497.25 212.5Q515.0 213.0 515.0 214.0Q515.0 215.5 504.25 217.0Q493.5 218.5 479.0 218.5Q469.0 218.5 447.75 219.5Q426.5 220.5 399.75 221.25Q373.0 222.0 346.5 223.0L249.5 226.0V324.5L281.5 323.5Q304.5 323.0 323.75 319.5Q343.0 316.0 366.0 307.25Q389.0 298.5 423.0 282.5Q439.5 275.0 457.75 266.75Q476.0 258.5 492.5 251.5Q509.0 244.5 519.0 240.5Q533.5 235.5 543.75 231.25Q554.0 227.0 554.0 226.5Q554.0 226.0 545.25 219.0Q536.5 212.0 521.75 200.75Q507.0 189.5 489.0 176.0ZM381.0 57.0Q381.0 50.5 379.75 45.0Q378.5 39.5 376.0 38.0Q373.5 38.0 366.75 43.5Q360.0 49.0 351.5 57.0Q343.0 65.0 335.25 73.5Q327.5 82.0 323.0 88.25Q318.5 94.5 319.5 96.0Q321.0 97.5 327.25 98.5Q333.5 99.5 340.0 99.5Q347.5 99.5 358.0 101.25Q368.5 103.0 376.0 106.0Q384.5 108.0 391.0 108.75Q397.5 109.5 399.0 109.0Q400.0 107.5 397.75 101.75Q395.5 96.0 391.5 89.5Q386.5 82.0 383.75 72.75Q381.0 63.5 381.0 57.0ZM328.0 331.5 291.0 333.0Q276.0 333.5 259.0 332.75Q242.0 332.0 233.5 330.5Q227.0 329.5 223.25 328.75Q219.5 328.0 217.0 328.0Q213.5 328.0 213.25 330.0Q213.0 332.0 214.0 337.5Q215.5 345.0 219.75 357.25Q224.0 369.5 228.75 382.0Q233.5 394.5 237.5 403.0Q241.5 411.5 242.5 411.5Q243.5 411.5 247.25 406.25Q251.0 401.0 256.0 394.5Q261.0 386.5 273.25 375.0Q285.5 363.5 298.0 354.0ZM296.0 96.0 339.5 54.0Q357.5 35.5 371.0 22.75Q384.5 10.0 386.0 10.0Q387.0 10.0 388.0 18.5Q389.0 27.0 389.0 38.5Q389.0 50.5 391.25 63.5Q393.5 76.5 397.0 82.5Q403.0 94.5 439.25 124.75Q475.5 155.0 533.0 197.0L573.5 227.0L558.0 235.0Q551.5 237.5 535.0 244.5Q518.5 251.5 502.5 258.0Q471.0 270.0 438.75 285.25Q406.5 300.5 376.75 316.75Q347.0 333.0 323.5 348.25Q300.0 363.5 285.5 376.5Q275.5 385.5 266.75 397.5Q258.0 409.5 252.5 421.25Q247.0 433.0 247.0 441.5Q247.0 451.5 244.5 451.5Q242.5 451.5 238.25 442.75Q234.0 434.0 230.0 419.0Q227.0 405.5 221.25 388.0Q215.5 370.5 210.5 359.0Q202.0 339.5 199.5 330.5Q197.0 321.5 201.25 319.5Q205.5 317.5 217.0 318.5L235.0 320.0L236.0 274.0L238.0 227.0L206.5 230.0Q193.5 231.5 174.0 235.0Q154.5 238.5 132.75 243.25Q111.0 248.0 90.75 253.0Q70.5 258.0 55.25 262.75Q40.0 267.5 34.5 270.5Q25.0 275.5 17.5 275.5Q13.0 275.5 11.5 273.25Q10.0 271.0 13.5 266.5Q20.0 258.0 24.75 242.5Q29.5 227.0 31.75 208.75Q34.0 190.5 33.0 175.5L29.5 144.0L48.0 162.0Q62.5 176.5 78.75 185.75Q95.0 195.0 118.0 200.25Q141.0 205.5 174.5 209.0Q198.0 211.5 216.25 212.25Q234.5 213.0 236.0 212.0Q241.0 207.0 238.5 190.5Q236.0 174.0 228.25 152.75Q220.5 131.5 209.0 113.5Q204.5 105.5 201.0 99.25Q197.5 93.0 197.5 92.5Q197.5 91.5 212.0 91.75Q226.5 92.0 247.0 93.0Z" fill="black" /></svg>