<svg xmlns="http://www.w3.org/2000/svg" width="898.5" height="448.0" viewBox="0 0 898.5 448.0"><path d="M185.0 256.0Q188.5 249.0 190.5 243.25Q192.5 237.5 191.5 237.0Q189.5 237.0 179.0 243.5Q168.5 250.0 155.0 260.0Q137.5 271.5 130.5 276.75Q123.5 282.0 125.5 283.5Q127.5 285.0 135.0 287.0Q142.0 289.0 151.5 291.5Q161.0 294.0 167.5 296.0Q176.0 298.5 178.0 298.5Q183.0 298.5 179.5 287.0Q178.0 281.0 179.5 272.25Q181.0 263.5 185.0 256.0ZM294.5 270.5Q287.0 268.0 285.0 268.0Q281.0 268.0 281.0 278.0Q281.0 286.5 287.0 286.5Q290.0 286.5 292.0 286.0Q302.0 283.5 302.75 278.75Q303.5 274.0 294.5 270.5ZM195.0 144.5Q199.5 134.5 192.25 137.25Q185.0 140.0 158.0 159.0L126.0 182.0L155.0 189.0Q167.5 191.5 176.75 193.5Q186.0 195.5 186.5 196.5Q188.0 196.5 189.25 190.0Q190.5 183.5 190.5 174.5Q190.5 166.5 192.0 157.5Q193.5 148.5 195.0 144.5ZM309.0 194.5Q317.0 191.5 299.0 183.0L281.0 173.5V190.0Q281.0 204.5 285.5 204.5Q286.5 204.5 287.75 203.75Q289.0 203.0 291.0 202.5Q295.0 200.5 300.25 198.25Q305.5 196.0 309.0 194.5ZM267.5 286.0V255.0L209.5 222.5L204.0 237.0Q202.0 242.5 198.75 251.0Q195.5 259.5 193.0 265.0Q188.0 278.0 192.5 289.25Q197.0 300.5 206.5 300.5Q210.0 300.5 212.0 302.0Q214.0 303.5 213.0 305.0Q209.5 310.5 216.25 317.25Q223.0 324.0 242.0 334.0Q252.0 339.0 259.5 341.5Q267.0 344.0 281.0 344.0Q287.0 344.0 304.5 343.0Q322.0 342.0 344.5 340.25Q367.0 338.5 388.5 336.75Q410.0 335.0 424.75 333.5Q439.5 332.0 440.5 331.5Q442.5 329.5 435.25 328.25Q428.0 327.0 416.75 326.25Q405.5 325.5 394.0 325.5Q385.5 325.5 378.25 326.0Q371.0 326.5 368.0 327.5Q362.5 329.5 356.5 329.5Q350.5 329.5 348.5 326.75Q346.5 324.0 352.5 320.5Q355.0 319.0 359.25 313.0Q363.5 307.0 367.0 300.5L375.0 284.0H356.0Q345.0 284.0 341.5 285.75Q338.0 287.5 340.0 292.5Q341.5 296.5 340.25 298.75Q339.0 301.0 336.5 301.0Q332.0 301.0 328.0 295.0Q324.5 290.0 317.0 290.0Q303.5 290.0 287.5 303.0Q280.5 309.5 275.25 313.5Q270.0 317.5 269.0 317.5Q268.0 317.5 267.75 308.0Q267.5 298.5 267.5 286.0ZM453.0 263.5Q455.5 260.0 449.5 260.0Q443.5 260.0 446.0 263.5Q449.0 266.5 453.0 263.5ZM471.0 226.0Q471.0 221.0 469.5 221.0Q466.0 221.0 463.0 226.0Q461.0 231.5 465.5 231.5Q471.0 231.5 471.0 226.0ZM576.0 184.5Q577.5 182.5 576.25 180.75Q575.0 179.0 571.5 179.0Q567.5 179.0 565.0 180.75Q562.5 182.5 562.5 184.5Q562.5 190.0 568.0 190.0Q573.5 190.0 576.0 184.5ZM576.0 234.5Q577.5 232.0 576.25 230.5Q575.0 229.0 571.5 229.0Q562.5 229.0 562.5 234.5Q562.5 236.5 564.0 238.25Q565.5 240.0 568.0 240.0Q570.0 240.0 572.5 238.25Q575.0 236.5 576.0 234.5ZM576.0 279.0Q575.0 276.0 572.5 274.75Q570.0 273.5 568.0 273.5Q562.5 273.5 562.5 279.0Q562.5 284.0 571.5 284.0Q575.0 284.0 576.25 282.5Q577.5 281.0 576.0 279.0ZM662.0 229.0V190.0L630.5 191.0Q604.5 191.5 586.25 196.25Q568.0 201.0 568.0 207.0Q568.0 212.0 578.5 217.0Q589.0 222.0 604.25 225.5Q619.5 229.0 634.0 229.0ZM662.0 273.5V240.0L628.0 240.5Q600.5 240.5 584.25 244.75Q568.0 249.0 568.0 256.0Q568.0 264.0 583.5 268.75Q599.0 273.5 626.0 273.5ZM684.0 174.5Q684.0 172.5 681.75 170.5Q679.5 168.5 676.0 168.5Q669.0 168.5 667.75 172.75Q666.5 177.0 671.5 187.5Q673.5 192.5 674.75 193.25Q676.0 194.0 679.5 189.0Q684.0 182.5 684.0 174.5ZM416.0 89.5Q399.5 83.0 383.25 76.25Q367.0 69.5 355.0 63.25Q343.0 57.0 339.0 54.0L321.5 42.5L309.0 65.0Q303.0 74.5 298.75 82.25Q294.5 90.0 293.5 91.5Q293.0 92.5 315.5 95.5Q338.0 98.5 370.5 101.5Q392.5 103.0 412.25 105.0Q432.0 107.0 446.0 108.5Q460.0 110.0 464.0 111.0Q468.0 111.0 454.0 105.0Q440.0 99.0 416.0 89.5ZM478.5 160.0Q473.5 146.5 468.5 146.5Q467.0 146.5 463.0 150.25Q459.0 154.0 455.5 160.0L446.5 173.5H465.5Q479.5 173.5 481.25 171.75Q483.0 170.0 478.5 160.0ZM541.0 135.0Q526.0 132.5 511.75 130.25Q497.5 128.0 493.0 126.5Q482.0 124.0 480.75 131.25Q479.5 138.5 485.0 149.75Q490.5 161.0 501.0 172.5Q511.5 184.0 524.5 190.0Q533.5 195.0 540.5 198.5Q547.5 202.0 549.0 202.0Q550.5 202.0 551.0 195.25Q551.5 188.5 551.5 179.0Q551.5 168.5 552.75 163.5Q554.0 158.5 558.5 158.5Q563.5 158.5 580.5 168.5Q589.0 174.0 604.0 177.0Q619.0 180.0 632.0 180.0Q642.5 180.0 649.75 178.0Q657.0 176.0 657.0 172.0Q657.0 169.0 647.0 164.25Q637.0 159.5 620.0 154.0Q603.0 148.5 582.5 143.5Q562.0 138.5 541.0 135.0ZM706.5 140.0Q706.5 139.0 699.0 136.75Q691.5 134.5 681.0 134.0Q667.0 133.0 662.25 134.25Q657.5 135.5 659.5 139.5Q661.0 143.0 661.5 145.75Q662.0 148.5 662.0 149.5Q662.0 151.0 667.25 153.5Q672.5 156.0 678.75 158.0Q685.0 160.0 687.0 160.0Q692.5 160.0 698.5 154.0Q701.0 149.0 703.75 145.25Q706.5 141.5 706.5 140.0ZM259.0 359.5Q259.0 359.0 244.5 358.75Q230.0 358.5 206.0 358.5Q182.0 358.5 153.0 358.5H46.5L45.5 383.0Q45.0 398.0 46.25 401.5Q47.5 405.0 53.5 404.0Q63.0 401.0 81.0 396.5Q99.0 392.0 121.0 387.0Q143.0 382.0 165.25 377.5Q187.5 373.0 206.0 370.0Q227.5 365.5 243.25 362.75Q259.0 360.0 259.0 359.5ZM455.0 318.5 428.5 301.5Q404.5 285.5 395.5 285.5Q387.5 285.5 381.5 298.0Q376.5 307.5 377.75 310.0Q379.0 312.5 388.0 312.5Q393.5 312.5 405.0 313.0Q416.5 313.5 427.5 315.0ZM455.5 213.5Q459.0 207.5 462.25 203.25Q465.5 199.0 467.5 199.0Q469.0 199.0 472.25 203.25Q475.5 207.5 478.5 213.5Q484.5 228.5 509.0 237.0Q519.0 240.5 525.75 244.75Q532.5 249.0 532.5 251.5Q532.5 255.0 528.5 255.0Q524.0 255.0 512.0 250.5Q503.0 248.0 492.5 245.5Q482.0 243.0 475.5 242.5Q458.0 242.5 461.75 252.5Q465.5 262.5 485.5 270.5Q495.5 274.0 502.25 277.75Q509.0 281.5 509.0 284.0Q509.0 289.0 503.5 288.0Q482.0 281.5 470.25 278.75Q458.5 276.0 451.5 276.0Q447.0 276.0 444.0 277.0Q441.0 278.0 437.5 280.5Q430.5 285.5 426.5 285.5Q435.0 292.0 445.5 298.5Q456.0 305.0 465.0 309.5L493.0 324.0L573.5 314.0Q611.5 309.5 631.0 305.75Q650.5 302.0 656.0 297.75Q661.5 293.5 657.5 288.0Q655.5 285.0 641.0 285.0Q630.0 285.0 615.5 286.75Q601.0 288.5 588.5 291.5Q576.0 294.5 570.5 298.0Q565.5 301.5 560.25 303.75Q555.0 306.0 553.5 306.0Q552.0 306.0 550.5 292.75Q549.0 279.5 549.0 260.5V215.5L522.0 202.0Q512.5 197.0 499.5 193.25Q486.5 189.5 474.0 187.25Q461.5 185.0 453.0 185.0Q441.0 185.0 441.0 189.0Q441.0 191.0 424.0 193.75Q407.0 196.5 383.5 197.5Q357.0 198.5 338.0 201.75Q319.0 205.0 303.25 211.0Q287.5 217.0 270.0 227.0Q269.0 227.0 268.75 219.75Q268.5 212.5 268.75 202.0Q269.0 191.5 269.75 180.5Q270.5 169.5 271.5 161.5Q272.5 153.5 273.5 152.0Q273.5 152.0 273.75 152.0Q274.0 152.0 274.0 152.0Q275.5 152.0 279.5 154.25Q283.5 156.5 288.0 161.0Q304.0 174.5 323.0 180.25Q342.0 186.0 372.5 185.5Q388.0 184.5 401.75 183.75Q415.5 183.0 419.5 182.0Q424.0 180.5 431.75 172.25Q439.5 164.0 446.75 153.5Q454.0 143.0 458.0 134.5Q462.0 126.0 460.0 124.0Q457.5 122.0 442.0 119.5Q426.5 117.0 404.0 114.75Q381.5 112.5 357.75 111.0Q334.0 109.5 314.25 109.0Q294.5 108.5 285.5 109.5Q276.5 111.0 270.0 111.0Q259.0 111.0 259.25 106.5Q259.5 102.0 272.0 94.0Q279.5 89.0 287.5 77.0Q295.5 65.0 302.25 50.0Q309.0 35.0 311.5 21.5Q314.0 14.0 315.5 12.0Q317.0 10.0 319.0 13.5Q322.5 25.0 334.0 35.5Q345.5 46.0 365.0 56.0Q372.0 59.5 393.0 67.5Q414.0 75.5 443.0 85.75Q472.0 96.0 503.75 106.75Q535.5 117.5 564.5 126.5Q593.5 135.5 614.5 141.25Q635.5 147.0 642.5 147.0Q648.0 147.0 645.75 142.5Q643.5 138.0 635.0 128.5Q618.0 109.0 651.5 118.5Q659.0 121.0 674.25 122.5Q689.5 124.0 702.0 124.0Q715.0 124.0 724.25 125.5Q733.5 127.0 733.5 128.5Q733.5 130.5 729.5 135.75Q725.5 141.0 720.0 146.5Q714.0 152.0 710.25 156.75Q706.5 161.5 706.5 163.0Q706.5 163.5 718.75 167.5Q731.0 171.5 751.75 176.75Q772.5 182.0 797.0 188.0Q822.5 194.0 843.25 199.5Q864.0 205.0 876.25 208.75Q888.5 212.5 888.5 213.5Q888.5 217.5 881.5 217.5Q873.0 217.5 851.0 212.5Q829.0 207.5 785.5 196.5Q751.5 187.5 732.25 183.5Q713.0 179.5 704.0 179.5Q697.0 179.5 695.5 182.0Q690.0 188.5 685.0 202.5Q680.0 216.5 676.75 233.25Q673.5 250.0 672.25 265.25Q671.0 280.5 672.5 290.5Q674.0 300.5 678.5 300.5Q681.0 300.5 694.75 299.0Q708.5 297.5 729.75 295.0Q751.0 292.5 775.5 289.5Q819.5 284.0 841.5 281.5Q863.5 279.0 873.0 279.0Q880.0 279.0 881.5 280.25Q883.0 281.5 883.0 283.5Q883.0 285.5 879.75 287.0Q876.5 288.5 864.0 290.25Q851.5 292.0 824.25 295.25Q797.0 298.5 749.0 304.0L668.5 313.0L665.0 337.5Q663.5 347.0 660.75 354.0Q658.0 361.0 656.0 361.0Q650.0 361.0 654.0 339.5Q656.5 326.0 655.25 321.75Q654.0 317.5 648.5 317.5Q640.5 317.5 626.5 318.75Q612.5 320.0 596.0 322.25Q579.5 324.5 564.25 327.0Q549.0 329.5 538.5 331.5Q528.0 333.5 526.5 335.0Q524.5 337.0 525.5 338.25Q526.5 339.5 529.0 339.5Q533.5 339.5 549.0 343.75Q564.5 348.0 584.5 354.0Q604.5 360.0 623.5 366.75Q642.5 373.5 655.0 378.25Q667.5 383.0 667.5 384.5Q667.5 388.5 662.5 388.5Q656.5 388.5 639.25 383.5Q622.0 378.5 586.0 366.5Q567.0 360.5 548.25 355.25Q529.5 350.0 515.25 346.0Q501.0 342.0 495.5 341.5Q490.0 340.5 474.0 341.5Q458.0 342.5 436.25 345.0Q414.5 347.5 391.5 350.5Q368.5 353.5 348.5 356.75Q328.5 360.0 316.0 362.5Q303.5 365.0 303.5 366.5Q303.5 368.0 308.5 372.75Q313.5 377.5 320.0 383.0Q327.0 388.0 331.0 393.25Q335.0 398.5 333.5 401.0Q332.0 403.0 323.75 398.5Q315.5 394.0 304.5 386.5Q279.5 367.5 267.5 370.0Q265.0 370.5 252.0 373.0Q239.0 375.5 220.25 379.0Q201.5 382.5 180.5 386.5Q115.5 399.0 73.25 410.5Q31.0 422.0 20.0 432.0Q14.0 438.0 12.0 438.0Q10.0 438.0 10.0 431.0Q10.0 427.0 13.5 421.5Q17.0 416.0 22.0 412.0Q28.0 407.5 31.0 397.25Q34.0 387.0 34.0 375.25Q34.0 363.5 30.0 355.0Q28.0 351.0 32.25 349.0Q36.5 347.0 55.0 347.0Q72.5 347.0 110.5 348.5Q123.5 349.0 135.5 349.25Q147.5 349.5 158.5 349.5Q179.5 349.5 194.75 348.75Q210.0 348.0 215.0 346.0L234.0 340.5L193.0 321.5Q177.0 313.5 155.75 306.5Q134.5 299.5 114.75 294.75Q95.0 290.0 82.5 289.5Q81.5 289.5 90.75 284.0Q100.0 278.5 113.5 270.5Q128.0 263.0 144.75 252.5Q161.5 242.0 171.5 234.5L194.0 215.5L173.0 206.5Q164.5 202.5 149.5 198.5Q134.5 194.5 122.5 192.5Q99.5 190.0 95.0 185.75Q90.5 181.5 106.0 176.5Q112.5 174.0 126.75 165.25Q141.0 156.5 158.0 145.0Q175.0 133.5 190.0 122.25Q205.0 111.0 213.0 103.0Q226.0 90.0 229.0 90.0Q231.0 90.0 231.0 96.0Q231.0 106.5 225.5 111.0Q222.0 113.0 217.5 121.0Q213.0 129.0 208.75 139.75Q204.5 150.5 201.5 160.25Q198.5 170.0 198.5 175.5Q198.5 180.5 200.25 186.75Q202.0 193.0 204.0 196.5Q207.0 200.5 209.0 200.5Q211.0 200.5 217.5 192.5Q224.5 185.5 225.25 186.25Q226.0 187.0 224.0 199.0Q222.5 207.0 223.25 211.5Q224.0 216.0 229.25 219.5Q234.5 223.0 246.5 229.0Q264.0 237.5 272.25 241.75Q280.5 246.0 286.0 249.5Q291.5 253.0 300.0 259.0Q310.0 265.5 327.0 269.25Q344.0 273.0 358.0 273.0Q368.0 273.0 374.25 271.0Q380.5 269.0 380.5 265.0Q380.5 257.0 385.5 257.0Q392.5 257.0 414.0 276.0Q416.5 278.0 418.75 279.75Q421.0 281.5 424.0 283.5Q422.5 278.0 435.0 255.0Q441.0 244.0 447.25 232.0Q453.5 220.0 455.5 213.5Z" fill="black" /></svg>