<svg xmlns="http://www.w3.org/2000/svg" width="545.0" height="383.0" viewBox="0 0 545.0 383.0"><path d="M36.0 287.5Q32.0 286.0 29.25 285.0Q26.5 284.0 24.5 284.0Q19.0 284.0 19.0 298.0Q19.0 303.5 19.0 308.0Q19.0 312.5 19.5 312.5Q20.5 312.5 26.75 310.0Q33.0 307.5 41.5 304.0Q54.0 299.5 56.25 297.5Q58.5 295.5 53.5 293.5Q50.0 292.5 45.0 290.5Q40.0 288.5 36.0 287.5ZM67.5 233.5 46.5 226.0Q37.5 222.5 31.25 220.5Q25.0 218.5 24.0 218.5V235.0Q24.0 241.5 25.0 245.75Q26.0 250.0 26.5 250.0Q27.5 249.5 33.75 247.0Q40.0 244.5 48.0 241.0ZM313.5 310.0 295.5 300.5Q288.5 296.5 278.0 289.0Q267.5 281.5 260.5 275.0Q245.0 262.0 242.5 262.0Q241.0 262.0 241.0 263.5Q239.0 269.5 236.5 281.5Q234.0 293.5 232.5 303.5Q231.0 313.5 231.0 314.5Q232.0 314.5 244.0 314.0Q256.0 313.5 272.5 312.5ZM67.0 172.0 46.0 164.5Q37.0 162.0 30.5 160.0Q24.0 158.0 24.0 158.0Q23.5 158.0 23.0 162.25Q22.5 166.5 22.5 173.5V188.5ZM57.0 97.0Q49.0 93.5 41.0 91.0Q33.0 88.5 30.0 86.5Q25.5 85.0 24.5 88.0Q23.5 91.0 23.5 104.5Q24.0 113.0 24.75 119.0Q25.5 125.0 26.5 125.0Q27.5 125.0 33.0 122.5Q38.5 120.0 45.0 117.5Q52.0 114.0 59.25 111.0Q66.5 108.0 70.0 107.0Q74.5 105.0 72.0 103.0Q69.5 101.0 57.0 97.0ZM261.0 97.0Q255.5 93.5 251.25 91.25Q247.0 89.0 246.0 89.0Q245.5 89.0 245.0 98.25Q244.5 107.5 244.5 120.5Q244.5 150.5 248.0 150.5Q250.0 149.5 255.0 146.25Q260.0 143.0 265.0 139.0Q270.0 135.5 279.5 130.25Q289.0 125.0 297.0 121.0L317.5 111.5L296.5 109.0Q287.5 107.5 277.5 104.0Q267.5 100.5 261.0 97.0ZM400.0 160.0Q400.5 159.0 395.25 158.5Q390.0 158.0 382.5 158.0Q371.0 158.0 368.0 158.75Q365.0 159.5 367.5 163.0Q370.0 165.0 372.75 170.75Q375.5 176.5 378.0 182.0L383.5 196.0L391.0 179.5Q394.5 173.5 397.0 167.75Q399.5 162.0 400.0 160.0ZM484.5 119.0 487.5 103.0Q490.0 90.0 489.25 87.25Q488.5 84.5 483.0 88.0Q477.5 91.0 481.0 105.5ZM518.5 23.5H492.0Q481.5 23.5 472.0 22.75Q462.5 22.0 460.0 21.5Q456.5 20.0 455.75 21.75Q455.0 23.5 458.0 32.0Q461.0 40.5 468.0 59.0Q475.5 80.5 482.0 80.5Q489.5 80.5 506.5 47.0ZM16.0 234.5Q15.5 215.5 16.75 211.0Q18.0 206.5 22.0 208.0Q44.0 217.0 61.25 222.0Q78.5 227.0 95.25 228.75Q112.0 230.5 133.0 230.5Q156.5 230.5 177.75 231.75Q199.0 233.0 212.5 234.5Q226.0 236.0 226.0 238.0Q226.0 238.5 215.25 239.25Q204.5 240.0 186.25 240.5Q168.0 241.0 145.5 241.0Q115.5 241.0 98.75 241.25Q82.0 241.5 73.0 242.25Q64.0 243.0 58.0 245.25Q52.0 247.5 43.5 251.5Q34.5 256.5 27.5 260.0Q20.5 263.5 19.0 263.5Q18.0 263.5 17.25 254.75Q16.5 246.0 16.0 234.5ZM441.0 11.0Q441.0 10.0 445.0 10.0Q450.5 10.0 457.0 11.5Q463.0 13.5 476.75 14.5Q490.5 15.5 503.5 15.5Q517.0 15.5 526.0 16.5Q535.0 17.5 535.0 19.0Q535.0 23.5 531.0 23.5Q529.0 23.5 524.5 30.75Q520.0 38.0 515.0 48.0Q510.0 58.0 507.0 66.5Q504.0 75.0 505.0 77.0Q506.0 78.5 505.25 81.0Q504.5 83.5 502.5 84.5Q500.0 86.0 498.0 99.0Q496.0 112.0 494.5 133.0Q493.0 154.0 492.25 179.75Q491.5 205.5 491.75 232.5Q492.0 259.5 493.0 284.5L495.0 352.0L513.0 356.5Q520.5 358.5 525.75 360.75Q531.0 363.0 531.0 365.5Q531.0 369.5 522.0 367.0Q502.0 362.0 497.5 362.0Q494.5 362.0 494.5 366.5Q494.5 373.0 490.0 373.0Q489.0 373.0 487.5 371.0Q486.0 369.0 486.0 365.5Q486.0 362.0 480.5 359.0Q475.0 356.0 460.0 351.25Q445.0 346.5 415.5 338.5L344.5 319.0L288.0 321.5Q265.0 322.5 246.0 323.5Q227.0 324.5 223.5 325.0Q218.0 326.0 217.5 323.25Q217.0 320.5 220.5 311.0Q221.5 308.0 220.0 306.5Q218.5 305.0 210.75 304.5Q203.0 304.0 185.75 304.25Q168.5 304.5 138.0 305.0Q106.5 305.0 88.75 305.5Q71.0 306.0 61.75 307.0Q52.5 308.0 46.5 310.5Q40.5 313.0 33.0 317.5Q25.5 321.5 19.5 324.5Q13.5 327.5 12.0 327.5Q11.0 326.5 10.5 317.5Q10.0 308.5 10.25 297.5Q10.5 286.5 11.25 278.25Q12.0 270.0 13.0 270.5Q14.5 270.5 24.75 274.25Q35.0 278.0 47.5 282.5Q58.0 286.5 66.25 288.75Q74.5 291.0 84.5 292.25Q94.5 293.5 110.25 294.25Q126.0 295.0 151.5 296.0Q167.5 296.5 179.0 296.75Q190.5 297.0 199.0 297.0Q215.5 297.0 221.5 294.25Q227.5 291.5 229.0 283.5Q230.5 275.5 232.5 260.0Q233.5 251.5 234.75 245.25Q236.0 239.0 236.5 239.0Q237.0 239.0 242.75 244.75Q248.5 250.5 256.5 259.0Q264.5 267.5 275.25 276.25Q286.0 285.0 292.5 289.0Q302.5 295.0 317.5 300.75Q332.5 306.5 346.5 310.25Q360.5 314.0 368.0 314.0Q372.0 314.0 373.0 313.0Q375.5 310.5 376.0 293.25Q376.5 276.0 376.0 248.0L374.5 187.0L361.0 170.0Q355.5 162.5 351.75 157.5Q348.0 152.5 348.0 152.0Q349.5 151.0 357.0 150.25Q364.5 149.5 375.0 149.25Q385.5 149.0 395.0 149.0Q404.0 149.0 410.5 149.25Q417.0 149.5 417.0 150.5Q417.0 152.0 414.75 156.5Q412.5 161.0 409.5 165.5Q400.5 178.0 395.25 191.75Q390.0 205.5 387.25 223.75Q384.5 242.0 383.5 269.0L382.5 320.0L394.5 324.5Q401.5 326.5 415.5 330.25Q429.5 334.0 445.0 338.25Q460.5 342.5 471.75 345.5Q483.0 348.5 484.0 348.5Q485.0 348.5 485.25 334.5Q485.5 320.5 485.25 297.25Q485.0 274.0 484.5 245.5Q484.5 204.0 483.5 179.75Q482.5 155.5 480.5 141.25Q478.5 127.0 475.5 116.0Q470.5 97.0 468.0 93.5Q465.5 90.0 458.5 91.0Q454.0 91.5 435.75 94.5Q417.5 97.5 396.0 100.0Q374.5 103.0 360.75 106.0Q347.0 109.0 335.75 113.0Q324.5 117.0 310.5 124.0Q296.5 130.5 281.25 139.5Q266.0 148.5 257.5 155.0Q249.5 161.0 243.0 165.5Q236.5 170.0 235.5 170.0Q235.0 170.0 235.25 161.5Q235.5 153.0 236.5 141.5L239.5 113.0H157.0Q127.5 113.0 110.0 113.25Q92.5 113.5 82.5 114.5Q72.5 115.5 66.5 117.25Q60.5 119.0 53.5 122.5Q39.0 129.0 29.75 136.75Q20.5 144.5 23.5 147.5Q24.0 148.0 33.75 151.5Q43.5 155.0 57.0 159.5Q67.5 163.0 76.0 165.25Q84.5 167.5 94.5 168.5Q104.5 169.5 118.75 169.75Q133.0 170.0 155.5 170.0Q182.5 170.0 202.5 171.0Q222.5 172.0 223.5 173.5Q224.5 174.5 202.25 176.0Q180.0 177.5 145.5 178.0Q116.0 178.5 99.25 179.25Q82.5 180.0 73.25 181.25Q64.0 182.5 57.5 185.0Q51.0 187.5 42.0 191.5Q32.5 195.5 25.25 198.5Q18.0 201.5 16.5 201.5Q15.5 200.5 15.0 192.5Q14.5 184.5 14.25 172.75Q14.0 161.0 14.25 148.75Q14.5 136.5 15.0 127.5Q15.5 118.5 16.5 116.5Q17.5 114.0 17.25 107.0Q17.0 100.0 15.0 92.0Q14.0 84.0 13.5 77.75Q13.0 71.5 13.5 71.0Q13.5 71.0 13.75 71.0Q14.0 71.0 14.0 71.0Q16.5 71.0 23.75 73.75Q31.0 76.5 40.5 80.5Q61.5 90.0 79.25 95.25Q97.0 100.5 119.0 102.5Q141.0 104.5 174.0 104.5H234.0V89.0Q234.0 80.5 236.0 75.0Q238.0 69.5 240.0 69.5Q241.5 69.5 243.0 74.0Q245.5 79.5 257.25 85.75Q269.0 92.0 284.0 96.5Q299.0 101.0 310.5 101.0Q318.5 101.0 335.5 99.25Q352.5 97.5 373.0 95.0Q393.5 92.5 413.0 89.75Q432.5 87.0 446.0 84.5Q459.5 82.0 461.5 80.5Q464.0 79.0 462.5 70.75Q461.0 62.5 454.0 45.5Q449.0 32.5 445.0 22.25Q441.0 12.0 441.0 11.0Z" fill="black" /></svg>