<svg xmlns="http://www.w3.org/2000/svg" width="864.0" height="460.0" viewBox="0 0 864.0 460.0"><path d="M85.0 295.0Q80.0 295.0 69.75 292.5Q59.5 290.0 50.5 286.0L30.0 278.0L33.5 303.5Q36.0 323.0 38.25 332.0Q40.5 341.0 45.0 341.0Q49.0 341.0 55.0 336.0Q61.0 331.0 70.5 321.5Q88.0 304.5 90.75 299.75Q93.5 295.0 85.0 295.0ZM102.5 152.0Q97.5 149.5 89.75 141.0Q82.0 132.5 75.0 123.0Q64.5 106.0 61.0 106.0Q58.5 106.0 56.0 112.5Q54.0 117.0 50.5 127.0Q47.0 137.0 43.5 146.0L35.5 166.5L54.5 162.0Q62.0 161.0 73.75 159.75Q85.5 158.5 93.5 158.5Q105.5 157.5 107.0 156.75Q108.5 156.0 102.5 152.0ZM489.0 237.0 508.0 230.0 482.5 213.0Q472.5 206.5 464.25 203.0Q456.0 199.5 454.5 201.0Q453.5 202.5 452.25 211.25Q451.0 220.0 451.0 231.0Q451.0 258.0 459.0 258.0Q462.0 258.0 466.5 251.5Q468.5 249.0 475.0 244.75Q481.5 240.5 489.0 237.0ZM668.5 230.0Q668.5 227.5 665.0 227.5Q662.0 227.5 662.0 230.0Q662.0 232.5 665.0 232.5Q668.5 232.5 668.5 230.0ZM777.0 184.5Q785.5 173.0 784.0 173.0Q782.0 173.0 772.25 179.75Q762.5 186.5 741.5 201.0L700.0 231.0L725.5 237.0Q740.0 241.0 745.0 241.0Q751.5 241.0 751.5 237.0Q758.0 221.0 764.5 207.5Q771.0 194.0 777.0 184.5ZM300.0 107.0 284.5 78.5Q278.0 67.0 273.0 58.25Q268.0 49.5 268.0 49.0Q267.5 49.0 263.0 57.0Q258.5 65.0 253.25 75.75Q248.0 86.5 244.0 95.0Q240.0 103.5 240.0 105.0Q240.0 105.0 248.75 105.5Q257.5 106.0 270.0 107.0ZM552.5 107.0Q555.0 96.5 553.5 93.5Q552.0 90.5 544.5 90.5Q536.5 90.5 535.25 93.5Q534.0 96.5 539.0 109.5Q544.5 125.0 546.0 125.0Q548.0 125.0 552.5 107.0ZM589.5 214.5 585.0 169.5Q584.0 151.0 581.25 133.0Q578.5 115.0 576.0 108.5Q572.0 98.5 570.5 98.5Q569.0 98.5 563.5 115.0Q560.5 123.5 558.0 141.5Q555.5 159.5 553.5 175.5L549.5 214.5ZM605.0 91.5Q606.0 89.0 602.25 86.5Q598.5 84.0 593.0 84.0Q583.0 84.0 582.25 86.75Q581.5 89.5 588.0 107.0Q593.0 120.0 595.0 120.0Q596.5 120.0 599.5 112.5Q602.0 107.0 603.5 101.0Q605.0 95.0 605.0 91.5ZM651.0 214.5 647.5 172.0Q645.5 155.0 642.0 134.75Q638.5 114.5 635.0 102.5L626.5 75.0L617.0 102.5Q613.0 114.5 608.75 134.75Q604.5 155.0 603.0 172.0L598.5 214.5ZM660.0 98.0Q665.0 84.0 664.25 81.0Q663.5 78.0 655.0 78.0Q646.0 78.0 644.25 84.0Q642.5 90.0 648.5 105.0Q651.5 112.5 653.5 112.5Q655.5 112.5 660.0 98.0ZM280.0 355.0Q276.5 356.5 268.25 355.5Q260.0 354.5 252.0 352.5Q245.5 350.0 240.25 348.75Q235.0 347.5 234.0 347.5Q233.5 347.5 233.5 347.5Q233.5 347.5 233.5 347.5Q233.5 348.0 236.0 355.0Q238.5 362.0 242.0 370.5Q245.5 379.0 249.0 388.75Q252.5 398.5 254.5 404.0Q256.0 410.0 258.5 410.0Q262.5 410.0 274.5 386.5Q284.5 366.5 287.25 359.75Q290.0 353.0 287.0 353.0Q286.0 353.0 284.25 353.5Q282.5 354.0 280.0 355.0ZM360.5 292.5Q418.5 252.5 428.5 252.5Q432.0 252.5 432.0 256.5Q432.0 258.5 414.75 271.0Q397.5 283.5 373.0 299.5Q350.5 315.0 334.5 328.75Q318.5 342.5 307.0 356.25Q295.5 370.0 286.75 387.0Q278.0 404.0 270.0 426.5Q262.5 450.0 256.0 450.0Q252.0 450.0 252.0 439.0Q252.0 435.0 245.5 416.25Q239.0 397.5 230.0 376.0Q221.5 354.5 216.0 338.75Q210.5 323.0 211.0 321.5Q212.0 321.5 220.0 324.5Q228.0 327.5 238.0 333.0Q246.5 337.0 253.5 339.25Q260.5 341.5 267.5 341.5Q282.5 341.5 303.0 330.25Q323.5 319.0 360.5 292.5ZM47.0 98.0Q50.5 87.0 54.0 79.25Q57.5 71.5 59.0 71.5Q60.0 71.5 65.75 80.25Q71.5 89.0 78.0 100.5Q85.5 115.0 94.25 125.25Q103.0 135.5 117.5 144.5Q132.0 153.5 157.0 163.75Q182.0 174.0 223.0 189.0Q248.5 198.0 269.25 206.5Q290.0 215.0 302.25 220.75Q314.5 226.5 314.5 228.0Q314.5 230.0 311.0 231.25Q307.5 232.5 303.5 232.0Q298.5 231.0 293.75 231.75Q289.0 232.5 286.0 233.5Q285.0 235.0 273.75 239.0Q262.5 243.0 245.5 248.75Q228.5 254.5 208.5 261.0Q152.0 279.5 116.0 301.75Q80.0 324.0 56.0 355.0Q50.0 363.5 44.25 369.75Q38.5 376.0 36.0 376.0Q35.0 376.0 32.0 364.0Q29.0 352.0 25.5 334.0Q22.0 316.0 18.75 297.75Q15.5 279.5 14.0 266.75Q12.5 254.0 13.5 252.5Q13.5 252.5 22.0 256.75Q30.5 261.0 41.5 267.0Q52.5 273.5 65.5 278.0Q78.5 282.5 86.0 282.5Q90.0 282.5 105.75 278.5Q121.5 274.5 143.25 268.25Q165.0 262.0 188.5 254.75Q212.0 247.5 232.25 240.75Q252.5 234.0 264.5 229.25Q276.5 224.5 275.5 223.5Q275.5 222.5 256.75 215.25Q238.0 208.0 212.0 198.5Q179.5 185.5 151.25 179.5Q123.0 173.5 95.0 173.5Q67.5 173.5 36.0 179.5L10.0 184.0L25.5 154.0Q31.0 141.5 37.25 125.25Q43.5 109.0 47.0 98.0ZM242.0 64.5Q253.0 42.0 261.75 26.0Q270.5 10.0 271.5 10.0Q273.0 10.0 275.75 17.25Q278.5 24.5 280.0 34.5Q283.5 54.0 292.75 69.5Q302.0 85.0 321.75 100.75Q341.5 116.5 376.0 138.5Q404.0 155.0 419.0 162.75Q434.0 170.5 440.0 170.5Q443.5 170.5 444.0 167.5Q445.5 158.5 450.5 158.5Q456.0 158.5 459.0 170.0Q463.0 181.0 474.75 191.25Q486.5 201.5 500.75 208.25Q515.0 215.0 525.5 215.0Q536.0 215.0 539.0 207.5Q540.5 203.0 538.75 186.0Q537.0 169.0 532.75 144.0Q528.5 119.0 522.5 92.5Q520.5 84.0 519.75 80.0Q519.0 76.0 524.0 74.25Q529.0 72.5 544.75 72.5Q560.5 72.5 591.5 72.5Q605.0 72.5 615.25 70.75Q625.5 69.0 626.5 67.0Q628.0 65.0 636.75 63.75Q645.5 62.5 656.5 63.5Q671.0 64.0 676.75 66.25Q682.5 68.5 681.0 77.25Q679.5 86.0 672.0 106.0Q668.0 116.0 665.0 135.5Q662.0 155.0 662.0 172.0Q662.0 190.5 662.75 199.25Q663.5 208.0 666.5 211.25Q669.5 214.5 675.5 216.5Q681.0 217.5 688.75 217.0Q696.5 216.5 702.0 213.0Q710.0 209.0 726.5 197.75Q743.0 186.5 762.25 172.0Q781.5 157.5 798.25 144.0Q815.0 130.5 824.0 122.0Q842.5 105.0 850.0 105.0Q854.0 105.0 851.75 111.0Q849.5 117.0 839.5 128.5Q744.5 245.5 772.5 245.5Q775.0 245.5 775.75 249.0Q776.5 252.5 775.0 257.0Q772.5 268.5 798.0 288.0Q808.0 296.0 817.25 306.5Q826.5 317.0 834.0 327.25Q841.5 337.5 845.0 345.25Q848.5 353.0 846.0 355.0Q844.0 357.0 839.75 353.75Q835.5 350.5 831.5 344.0Q825.5 336.0 812.75 322.75Q800.0 309.5 784.75 295.25Q769.5 281.0 755.75 269.75Q742.0 258.5 734.5 254.5Q728.0 251.0 714.5 247.5Q701.0 244.0 690.0 242.0L662.0 238.0V291.5Q662.0 315.5 660.25 330.25Q658.5 345.0 655.5 345.0Q653.0 345.0 651.25 328.25Q649.5 311.5 649.5 285.0V226.5L603.0 230.0L601.5 290.0Q599.5 350.0 593.5 350.0Q588.0 350.0 588.0 288.0V226.5L553.5 230.0L551.5 293.5Q549.5 356.5 543.5 356.5Q538.0 356.5 538.0 295.0Q538.0 266.0 536.25 249.25Q534.5 232.5 531.5 232.5Q527.0 232.5 517.25 236.75Q507.5 241.0 495.75 247.75Q484.0 254.5 473.0 262.0Q462.0 269.5 455.5 275.5Q449.0 282.0 443.0 285.75Q437.0 289.5 435.5 288.0Q434.5 286.5 435.0 273.0Q435.5 259.5 437.5 241.0Q439.5 221.5 439.75 210.5Q440.0 199.5 434.75 192.0Q429.5 184.5 415.0 175.5Q400.5 166.5 373.0 151.0Q314.0 117.0 269.0 117.0Q254.0 117.0 242.0 120.5Q231.5 123.5 224.5 123.5Q219.5 123.5 218.5 122.0Q218.0 121.0 224.5 103.5Q231.0 86.0 242.0 64.5Z" fill="black" /></svg>