<svg xmlns="http://www.w3.org/2000/svg" width="858.0" height="377.0" viewBox="0 0 858.0 377.0"><path d="M144.0 224.0Q151.5 221.5 151.75 219.0Q152.0 216.5 146.5 206.5L138.0 192.5L109.0 233.0L122.5 229.0Q127.5 228.0 134.0 226.25Q140.5 224.5 144.0 224.0ZM159.0 282.5Q130.5 282.5 105.0 282.25Q79.5 282.0 62.75 281.25Q46.0 280.5 43.0 280.0Q31.5 276.0 35.5 281.5Q37.0 283.5 38.0 293.25Q39.0 303.0 38.5 313.0L37.5 339.5L70.5 328.0Q79.5 325.0 97.75 320.5Q116.0 316.0 138.5 311.0Q161.0 306.0 182.5 302.0Q204.0 297.5 222.0 293.5Q240.0 289.5 251.25 286.75Q262.5 284.0 262.5 284.0Q263.5 283.0 249.5 282.75Q235.5 282.5 211.75 282.5Q188.0 282.5 159.0 282.5ZM280.5 131.5Q281.5 130.5 278.5 129.5Q275.5 128.5 271.5 128.5Q266.0 128.5 264.5 130.25Q263.0 132.0 265.0 138.5Q266.0 143.0 267.0 148.5Q268.0 154.0 268.5 158.0Q268.5 162.5 270.25 160.75Q272.0 159.0 274.5 151.0Q277.0 145.0 278.75 139.25Q280.5 133.5 280.5 131.5ZM305.5 266.5 303.0 207.5Q302.0 182.5 300.0 162.5Q298.0 142.5 295.5 139.0Q292.5 133.5 291.5 133.5Q290.0 133.5 286.5 143.5Q283.0 153.0 280.0 168.0Q277.0 183.0 275.0 199.75Q273.0 216.5 272.5 232.0Q272.0 247.5 273.0 258.0Q274.0 268.5 277.0 270.5Q279.0 271.5 283.5 271.5Q286.0 271.5 288.5 271.25Q291.0 271.0 293.5 270.5ZM316.0 145.0Q319.5 133.5 319.0 131.0Q318.5 128.5 312.0 128.5Q305.5 128.5 304.75 132.75Q304.0 137.0 307.5 150.5Q310.0 158.0 311.0 158.0Q312.5 158.0 316.0 145.0ZM405.0 210.5Q407.0 206.0 400.5 203.5Q394.0 200.5 394.0 207.5Q394.0 214.0 399.5 214.0Q403.0 214.0 405.0 210.5ZM405.0 241.0Q403.0 237.0 399.0 237.0Q394.0 237.0 394.0 243.5Q394.0 249.0 400.5 248.0Q406.5 244.5 405.0 241.0ZM407.5 279.5Q407.5 278.0 400.5 275.5Q394.0 272.5 394.0 279.5Q394.0 285.0 400.5 284.0Q407.5 279.5 407.5 279.5ZM157.5 123.5Q154.0 118.0 151.75 114.25Q149.5 110.5 149.5 110.5Q149.0 110.5 144.25 116.25Q139.5 122.0 134.25 129.25Q129.0 136.5 126.0 141.5Q124.5 145.5 128.5 145.5Q130.0 145.5 133.0 144.75Q136.0 144.0 140.5 143.5Q158.5 141.0 160.75 138.0Q163.0 135.0 157.5 123.5ZM405.0 173.5Q403.0 169.0 398.5 169.0Q394.0 169.0 394.0 173.5Q394.0 178.0 401.5 178.0Q407.5 178.0 405.0 173.5ZM522.0 156.5 519.0 142.0 478.0 143.0Q460.0 143.0 442.0 145.0Q424.0 147.0 414.0 149.5L391.5 157.0L405.0 163.0Q412.0 165.0 429.0 166.75Q446.0 168.5 469.5 169.0Q493.0 169.0 506.5 170.0Q520.0 171.0 520.0 173.5Q520.0 175.5 508.0 176.75Q496.0 178.0 476.5 178.0Q444.0 178.0 421.25 181.75Q398.5 185.5 398.5 191.0Q398.5 196.5 412.0 198.5Q425.5 200.5 463.5 200.5Q485.0 200.5 500.75 201.5Q516.5 202.5 517.5 204.5Q518.5 206.0 505.0 207.75Q491.5 209.5 472.0 210.5Q425.5 212.5 408.25 218.25Q391.0 224.0 404.25 229.25Q417.5 234.5 463.0 236.0Q489.5 237.0 504.5 238.5Q519.5 240.0 521.5 242.5Q523.0 245.0 523.75 235.0Q524.5 225.0 524.5 209.5Q524.5 194.0 524.0 179.0Q523.5 164.0 522.0 156.5ZM457.0 254.5 508.5 246.5H470.5Q445.0 246.5 423.25 250.5Q401.5 254.5 395.5 261.5Q393.5 263.0 397.0 263.0Q401.5 263.0 415.0 261.25Q428.5 259.5 457.0 254.5ZM318.0 34.0Q305.5 25.5 302.5 25.5Q299.5 25.5 299.5 32.5Q299.5 36.0 295.5 43.75Q291.5 51.5 285.0 59.0L271.5 77.0L311.5 80.5Q327.5 81.5 346.0 83.0Q364.5 84.5 373.5 85.0Q383.5 85.5 393.75 87.75Q404.0 90.0 409.0 92.0Q421.5 97.0 431.5 97.0Q435.5 97.0 422.25 89.0Q409.0 81.0 385.5 70.0Q370.5 63.0 356.25 55.75Q342.0 48.5 331.75 42.5Q321.5 36.5 318.0 34.0ZM407.5 103.0Q407.5 101.5 400.5 101.5Q394.0 101.5 394.0 106.0Q394.0 110.5 400.5 107.5Q407.5 105.0 407.5 103.0ZM407.5 140.0Q407.5 139.0 400.5 135.5Q394.0 133.5 394.0 140.0Q394.0 142.5 396.0 143.5Q398.0 144.5 400.5 143.5Q407.5 141.0 407.5 140.0ZM513.0 128.5Q512.5 126.0 501.75 123.0Q491.0 120.0 476.75 117.25Q462.5 114.5 450.25 112.75Q438.0 111.0 433.5 111.0Q416.5 111.0 405.0 116.5L391.5 123.5L404.5 128.0Q410.5 130.0 430.0 131.5Q449.5 133.0 469.5 133.0Q488.0 133.0 501.25 131.75Q514.5 130.5 513.0 128.5ZM506.5 108.5Q506.5 106.0 504.0 106.0Q502.0 106.0 502.0 108.5Q502.0 110.5 504.0 110.5Q506.5 110.5 506.5 108.5ZM546.0 78.5Q547.0 77.5 540.5 76.0Q534.0 74.5 524.5 74.0Q515.5 73.0 508.75 72.75Q502.0 72.5 502.0 73.0Q502.0 75.5 505.0 81.5Q508.0 87.5 511.5 92.25Q515.0 97.0 517.0 97.0Q521.0 97.0 519.0 104.0Q518.5 107.5 519.75 110.25Q521.0 113.0 523.0 113.5Q523.5 113.5 523.5 113.5Q523.5 113.5 524.0 113.5Q526.5 113.5 531.0 106.0Q535.5 98.5 546.0 78.5ZM631.0 155.0Q608.5 149.0 589.0 144.0Q569.5 139.0 556.75 136.0Q544.0 133.0 541.5 133.0Q538.5 133.0 536.75 136.5Q535.0 140.0 534.5 152.0Q534.0 164.0 534.0 189.5Q534.0 217.5 534.5 229.0Q535.0 240.5 537.0 242.5Q539.0 244.5 544.0 243.5Q547.0 242.5 566.5 239.75Q586.0 237.0 616.5 233.25Q647.0 229.5 682.0 226.0Q717.0 221.5 746.0 217.75Q775.0 214.0 793.0 211.5Q811.0 209.0 811.5 209.0Q812.5 207.5 790.25 200.5Q768.0 193.5 727.25 181.75Q686.5 170.0 631.0 155.0ZM133.0 183.5Q139.0 173.5 144.5 166.75Q150.0 160.0 151.0 160.0Q152.5 160.0 152.5 166.0Q152.5 172.0 151.5 180.5Q150.5 189.5 151.0 194.75Q151.5 200.0 155.0 204.25Q158.5 208.5 166.0 215.5Q173.0 222.0 184.25 229.0Q195.5 236.0 205.0 239.0Q214.0 242.5 220.75 245.75Q227.5 249.0 227.5 251.0Q227.5 254.5 223.0 254.5Q215.5 254.5 191.5 243.5Q170.5 233.5 151.5 233.5Q128.5 233.5 103.5 248.0Q95.5 251.5 88.75 254.25Q82.0 257.0 81.0 256.0Q80.0 255.0 85.25 247.5Q90.5 240.0 97.5 230.5Q105.5 220.5 116.0 207.0Q126.5 193.5 133.0 183.5ZM153.0 87.5Q159.5 76.5 164.5 77.25Q169.5 78.0 164.5 88.0Q155.0 105.5 168.75 124.0Q182.5 142.5 213.0 154.0Q223.0 157.5 229.75 161.0Q236.5 164.5 236.5 165.5Q236.5 169.0 231.0 169.0Q220.0 169.0 196.5 157.0Q186.5 152.0 180.5 150.0Q174.5 148.0 168.5 148.0Q165.0 148.0 160.25 148.75Q155.5 149.5 149.5 150.5Q140.5 153.0 129.0 157.25Q117.5 161.5 111.0 165.5Q105.0 169.0 100.0 171.0Q95.0 173.0 94.0 172.0Q93.0 171.0 100.0 160.0Q107.0 149.0 118.0 134.5Q129.5 120.0 139.5 106.25Q149.5 92.5 153.0 87.5ZM293.5 20.5Q296.0 10.0 299.0 10.0Q303.0 10.0 315.0 20.5Q323.0 27.5 340.25 37.25Q357.5 47.0 379.25 57.5Q401.0 68.0 422.5 77.0Q444.0 86.0 461.25 91.5Q478.5 97.0 486.0 97.0H502.5L495.0 83.5Q493.0 78.0 490.75 73.0Q488.5 68.0 488.5 67.0Q488.5 65.5 499.75 64.0Q511.0 62.5 526.5 63.5Q543.0 63.5 554.25 64.5Q565.5 65.5 565.5 67.0Q565.5 69.0 562.25 74.0Q559.0 79.0 554.5 85.0Q550.0 90.5 546.0 98.0Q542.0 105.5 541.0 110.5Q539.5 115.5 541.25 118.5Q543.0 121.5 553.75 124.75Q564.5 128.0 589.0 134.5Q605.0 138.5 629.75 145.25Q654.5 152.0 683.0 160.0Q711.5 168.0 739.75 176.25Q768.0 184.5 791.5 191.25Q815.0 198.0 829.5 202.5Q844.0 207.0 844.5 208.0Q848.0 211.5 837.25 215.0Q826.5 218.5 805.0 220.0Q793.0 221.0 770.25 223.75Q747.5 226.5 719.0 230.0Q690.5 233.5 661.0 237.0Q631.5 240.5 606.0 244.0Q580.5 247.5 563.75 249.75Q547.0 252.0 544.0 252.5Q537.5 254.0 535.75 259.0Q534.0 264.0 534.0 284.0Q534.0 296.5 532.75 304.75Q531.5 313.0 529.0 313.0Q527.0 313.0 525.75 304.75Q524.5 296.5 524.5 284.0V254.5L503.5 257.5Q494.5 258.5 478.25 261.0Q462.0 263.5 448.0 266.0L414.0 272.0L467.5 272.5Q491.0 272.5 505.5 274.0Q520.0 275.5 520.0 277.0Q520.0 279.0 509.25 280.25Q498.5 281.5 481.0 281.5Q464.5 281.5 445.0 283.5Q425.5 285.5 415.0 288.5Q403.0 291.5 396.0 293.25Q389.0 295.0 385.5 295.0Q379.5 295.0 382.5 286.0Q384.0 281.5 383.75 279.5Q383.5 277.5 378.5 277.5Q376.0 277.5 371.5 278.0Q367.0 278.5 360.0 279.5Q339.5 281.5 329.5 283.5Q319.5 285.5 316.25 288.25Q313.0 291.0 313.0 296.0Q313.0 304.0 308.5 304.0Q304.0 304.0 304.0 296.0Q304.0 290.5 301.5 289.75Q299.0 289.0 292.0 290.0Q286.5 290.5 281.0 293.25Q275.5 296.0 273.0 299.5Q269.5 303.5 267.75 303.75Q266.0 304.0 264.0 300.5Q262.5 298.0 256.0 298.0Q249.0 298.0 233.0 300.5Q217.0 303.0 188.5 308.5Q146.5 316.5 111.25 325.75Q76.0 335.0 53.25 343.75Q30.5 352.5 25.5 359.0Q22.0 362.5 19.0 364.75Q16.0 367.0 14.5 367.0Q10.0 367.0 11.5 361.0Q13.0 355.0 19.5 347.5Q25.5 341.0 28.0 328.5Q30.5 316.0 29.25 302.25Q28.0 288.5 22.5 280.0Q18.5 274.0 17.25 271.25Q16.0 268.5 24.5 268.5Q30.5 268.5 42.0 269.5Q53.5 270.5 72.0 272.5Q84.5 273.5 104.5 274.25Q124.5 275.0 147.25 274.75Q170.0 274.5 190.5 274.0L263.5 271.0V224.0Q263.5 203.0 262.25 187.5Q261.0 172.0 258.0 157.5Q255.0 143.0 249.0 125.0Q248.5 121.5 257.25 120.0Q266.0 118.5 292.0 117.5Q324.0 116.5 332.0 119.25Q340.0 122.0 331.0 131.0Q328.0 134.0 325.0 145.0Q322.0 156.0 319.25 171.5Q316.5 187.0 314.75 203.25Q313.0 219.5 313.0 233.0V268.0H328.0Q334.0 268.0 344.75 267.25Q355.5 266.5 364.0 266.0L385.0 262.0V126.5Q385.5 124.0 385.5 119.5Q385.5 115.0 385.5 110.0Q385.5 104.0 383.5 101.25Q381.5 98.5 373.75 96.75Q366.0 95.0 348.0 92.5Q333.0 90.0 312.5 89.0Q292.0 88.0 278.5 88.0Q252.0 90.0 244.75 87.25Q237.5 84.5 251.5 79.0Q258.5 76.5 267.5 66.0Q276.5 55.5 284.0 42.75Q291.5 30.0 293.5 20.5Z" fill="black" /></svg>