<svg xmlns="http://www.w3.org/2000/svg" width="1062.5" height="455.0" viewBox="0 0 1062.5 455.0"><path d="M90.5 277.5Q90.5 275.5 78.5 271.0Q66.5 266.5 54.0 262.0L26.5 251.0L24.5 273.5Q24.5 284.5 25.5 288.75Q26.5 293.0 30.0 293.0Q32.5 293.0 36.0 291.5Q40.5 290.5 49.25 288.0Q58.0 285.5 65.5 283.5Q73.0 282.5 81.75 280.75Q90.5 279.0 90.5 277.5ZM75.0 346.5Q69.0 345.0 57.5 342.0Q46.0 339.0 40.0 336.5Q38.0 336.0 36.25 335.75Q34.5 335.5 33.0 335.5Q29.5 335.5 29.0 339.25Q28.5 343.0 30.5 353.5Q31.5 364.0 31.25 371.25Q31.0 378.5 35.5 376.5Q38.5 375.5 46.25 373.0Q54.0 370.5 61.75 367.75Q69.5 365.0 73.0 363.5Q90.5 356.5 90.75 353.5Q91.0 350.5 75.0 346.5ZM271.5 298.5V282.0L195.0 282.5Q157.0 283.0 130.75 284.75Q104.5 286.5 85.5 290.25Q66.5 294.0 49.5 300.5Q24.5 310.0 36.0 319.5Q47.5 329.0 97.0 340.5Q108.5 343.0 126.0 344.25Q143.5 345.5 162.0 345.5Q186.5 345.5 209.25 343.75Q232.0 342.0 246.5 338.75Q261.0 335.5 259.5 331.5Q257.5 328.0 257.5 323.25Q257.5 318.5 264.5 318.0Q270.0 318.0 270.75 311.5Q271.5 305.0 271.5 298.5ZM498.0 336.5Q485.5 335.5 456.5 338.0Q427.5 340.5 385.5 340.5H283.0L287.5 367.5Q289.0 379.5 291.75 389.0Q294.5 398.5 296.5 400.0Q297.5 402.0 307.0 399.75Q316.5 397.5 327.5 392.5Q335.0 389.0 349.75 384.0Q364.5 379.0 382.75 373.5Q401.0 368.0 418.5 363.5Q436.0 358.5 452.25 353.5Q468.5 348.5 481.0 344.25Q493.5 340.0 498.0 336.5ZM59.0 105.0Q54.0 103.5 47.25 101.25Q40.5 99.0 36.0 97.0Q32.5 95.5 30.0 95.5Q26.5 95.5 25.5 99.25Q24.5 103.0 24.5 112.5Q24.5 121.5 25.25 125.25Q26.0 129.0 30.0 129.0Q32.5 129.0 36.5 127.75Q40.5 126.5 47.0 124.5Q53.5 122.5 63.25 121.0Q73.0 119.5 81.25 118.0Q89.5 116.5 90.5 115.0Q92.0 113.5 85.75 111.75Q79.5 110.0 71.5 108.25Q63.5 106.5 59.0 105.0ZM92.0 196.5Q93.0 195.5 87.25 193.25Q81.5 191.0 73.25 188.25Q65.0 185.5 57.5 183.0L31.0 173.5V215.5L54.0 208.5Q60.5 206.0 69.0 203.5Q77.5 201.0 84.25 199.0Q91.0 197.0 92.0 196.5ZM266.5 150.0 263.0 119.5 193.5 121.0Q175.0 121.0 157.75 121.5Q140.5 122.0 128.25 122.75Q116.0 123.5 112.5 124.5Q78.0 131.0 60.5 135.0Q43.0 139.0 37.0 142.0Q31.0 145.0 31.0 148.5Q31.0 152.5 41.25 159.5Q51.5 166.5 65.5 172.5Q79.0 178.5 92.75 181.75Q106.5 185.0 126.75 186.75Q147.0 188.5 179.5 190.0Q201.5 190.5 220.0 190.25Q238.5 190.0 250.75 189.25Q263.0 188.5 264.5 187.5Q267.0 185.0 267.25 174.0Q267.5 163.0 266.5 150.0ZM271.5 270.0V206.0L241.0 202.5Q219.0 201.0 192.5 202.0Q166.0 203.0 139.5 205.5Q113.0 208.0 90.25 212.0Q67.5 216.0 52.5 221.0Q37.5 226.0 34.5 231.0Q32.5 233.0 40.75 238.75Q49.0 244.5 62.0 251.5Q72.0 256.0 81.5 258.75Q91.0 261.5 103.75 263.25Q116.5 265.0 135.25 266.0Q154.0 267.0 182.5 268.0ZM368.0 236.0Q370.0 235.5 367.25 231.5Q364.5 227.5 359.75 221.75Q355.0 216.0 351.0 211.0L339.0 197.0L327.5 210.0Q318.5 219.5 319.0 221.5Q319.5 223.5 331.5 227.5Q336.5 228.5 344.0 231.0Q351.5 233.5 358.5 235.25Q365.5 237.0 368.0 236.0ZM370.5 250.0Q330.0 236.5 312.0 236.5Q295.0 236.5 289.75 248.0Q284.5 259.5 284.5 286.0V327.0H391.5Q432.0 327.0 455.25 326.25Q478.5 325.5 488.25 323.75Q498.0 322.0 498.0 319.0Q498.0 315.5 485.5 306.75Q473.0 298.0 453.25 287.5Q433.5 277.0 411.5 266.75Q389.5 256.5 370.5 250.0ZM305.5 60.0Q305.0 58.0 297.75 56.75Q290.5 55.5 282.0 55.5H260.5L270.0 94.0Q270.0 94.0 271.0 100.75Q272.0 107.5 273.25 116.25Q274.5 125.0 276.0 131.75Q277.5 138.5 279.0 138.5Q281.0 138.5 283.5 132.5Q286.0 126.5 288.25 118.75Q290.5 111.0 292.0 105.0Q293.5 99.0 293.5 99.0Q300.0 85.5 303.5 73.75Q307.0 62.0 305.5 60.0ZM401.5 160.5Q401.5 159.0 397.0 154.5Q392.5 150.0 387.25 145.0Q382.0 140.0 380.0 137.5Q374.0 130.5 370.5 130.5Q368.0 130.5 360.0 136.0Q354.5 140.0 348.5 145.0Q342.5 150.0 344.5 151.5Q347.0 153.5 356.75 156.0Q366.5 158.5 377.75 160.25Q389.0 162.0 395.5 162.0Q401.5 162.0 401.5 160.5ZM530.5 135.0Q530.5 133.0 521.0 133.0Q513.5 133.0 505.0 134.25Q496.5 135.5 495.5 137.5Q494.5 140.5 495.5 149.0Q496.5 157.5 499.0 167.5L506.5 196.5L519.0 165.0Q524.0 153.5 527.25 145.0Q530.5 136.5 530.5 135.0ZM638.0 136.0Q614.5 132.0 594.5 129.0Q574.5 126.0 570.0 126.0Q558.5 126.0 548.0 138.25Q537.5 150.5 529.0 171.5Q520.5 192.5 515.5 218.75Q510.5 245.0 510.5 273.0Q510.5 281.0 510.5 291.75Q510.5 302.5 510.5 311.0Q510.5 319.5 510.5 321.5Q511.5 323.0 517.5 323.0Q526.0 323.0 540.75 321.25Q555.5 319.5 565.0 319.0Q576.0 318.0 595.5 315.5Q615.0 313.0 639.75 309.25Q664.5 305.5 691.5 301.25Q718.5 297.0 744.5 293.0Q770.0 288.0 798.75 283.0Q827.5 278.0 855.75 273.5Q884.0 269.0 907.75 265.0Q931.5 261.0 947.5 258.5Q968.5 255.0 985.75 251.75Q1003.0 248.5 1013.25 246.0Q1023.5 243.5 1023.5 242.5Q1023.5 240.0 1008.25 234.0Q993.0 228.0 966.5 219.75Q940.0 211.5 906.25 201.75Q872.5 192.0 835.5 182.25Q798.5 172.5 762.0 163.5Q725.5 154.5 693.5 147.25Q661.5 140.0 638.0 136.0ZM645.0 106.0Q638.0 102.5 626.75 96.0Q615.5 89.5 603.75 82.25Q592.0 75.0 582.5 68.5L546.5 44.5L532.5 77.5Q526.0 90.5 521.75 101.75Q517.5 113.0 517.5 114.0Q517.5 116.0 526.0 116.0Q528.5 116.0 531.5 115.75Q534.5 115.5 537.5 115.0Q543.0 114.5 556.5 115.25Q570.0 116.0 587.0 117.75Q604.0 119.5 621.25 121.75Q638.5 124.0 652.25 126.25Q666.0 128.5 672.0 130.5Q676.5 132.5 679.5 132.5Q683.0 132.5 678.75 128.25Q674.5 124.0 665.5 117.75Q656.5 111.5 645.0 106.0ZM530.5 29.0Q530.5 20.5 531.75 15.25Q533.0 10.0 534.0 10.0Q535.0 10.0 544.5 18.5Q554.0 27.0 566.5 39.5Q578.5 51.0 601.0 65.5Q623.5 80.0 652.5 95.0Q681.5 110.0 713.0 124.5Q744.5 139.0 775.25 150.25Q806.0 161.5 831.5 168.5Q849.5 173.5 875.25 181.0Q901.0 188.5 928.25 196.5Q955.5 204.5 977.5 211.5Q1011.0 222.5 1027.5 228.75Q1044.0 235.0 1048.25 239.0Q1052.5 243.0 1049.0 247.5Q1046.5 249.5 1026.0 254.5Q1005.5 259.5 972.0 265.75Q938.5 272.0 896.5 279.0Q843.5 287.5 789.75 296.5Q736.0 305.5 687.0 314.0Q638.0 322.5 599.0 330.0Q560.0 337.5 536.75 343.25Q513.5 349.0 511.5 352.0Q508.5 355.5 505.75 356.0Q503.0 356.5 495.5 356.5Q488.0 356.5 471.5 360.25Q455.0 364.0 433.75 370.0Q412.5 376.0 390.5 383.0Q368.5 390.0 350.0 397.0Q331.5 404.0 320.5 409.5Q308.5 416.0 298.5 423.25Q288.5 430.5 286.0 434.5Q282.5 445.0 278.5 445.0Q275.0 445.0 273.75 437.0Q272.5 429.0 275.0 415.0Q276.5 402.5 276.5 389.0Q276.5 375.5 275.0 368.5L270.0 351.5L201.0 356.0Q139.0 360.5 97.75 368.75Q56.5 377.0 37.5 391.0Q29.5 397.5 23.75 401.25Q18.0 405.0 18.0 405.0Q15.5 405.0 14.25 352.5Q13.0 300.0 13.0 197.5Q13.0 185.0 12.75 162.0Q12.5 139.0 10.5 117.5Q10.0 97.5 10.5 83.75Q11.0 70.0 12.0 70.0Q30.5 81.0 45.5 87.5Q60.5 94.0 76.5 97.75Q92.5 101.5 114.5 103.25Q136.5 105.0 169.5 106.0Q200.5 106.5 218.5 106.75Q236.5 107.0 245.0 106.25Q253.5 105.5 256.0 103.0Q258.5 100.5 258.5 96.0Q258.5 91.5 254.25 81.25Q250.0 71.0 244.5 62.5Q239.0 53.5 235.75 46.75Q232.5 40.0 233.5 39.5Q234.5 38.0 244.5 39.25Q254.5 40.5 268.0 41.5Q281.5 43.5 296.0 44.75Q310.5 46.0 318.0 44.5Q325.0 43.0 329.0 43.0Q342.5 43.0 326.0 61.5Q320.0 68.5 313.25 83.25Q306.5 98.0 300.75 116.5Q295.0 135.0 291.0 154.75Q287.0 174.5 286.0 191.0L283.0 233.5L313.5 202.0Q326.5 188.5 334.25 182.75Q342.0 177.0 346.0 177.0Q348.0 177.0 349.5 179.0Q352.0 183.0 353.75 186.75Q355.5 190.5 355.5 191.5Q356.0 199.5 367.5 212.0Q379.0 224.5 398.5 238.75Q418.0 253.0 442.75 267.25Q467.5 281.5 494.0 293.5Q496.0 293.5 497.0 284.0Q498.0 274.5 498.0 261.0Q498.0 244.5 497.0 235.75Q496.0 227.0 492.25 221.75Q488.5 216.5 480.5 211.0Q465.0 200.0 442.5 190.5Q420.0 181.0 395.25 174.25Q370.5 167.5 348.0 166.0L304.0 162.5L341.5 133.5Q362.0 117.0 371.75 109.75Q381.5 102.5 385.0 102.5Q388.0 102.5 388.0 112.0Q388.0 130.0 405.0 149.25Q422.0 168.5 450.5 181.0Q465.5 187.5 477.25 192.0Q489.0 196.5 490.5 195.0Q493.0 193.0 491.25 184.5Q489.5 176.0 485.75 165.25Q482.0 154.5 477.5 145.5Q473.0 136.5 469.5 133.5Q457.0 123.0 459.75 118.75Q462.5 114.5 478.0 117.0Q481.5 117.5 484.25 118.25Q487.0 119.0 489.0 119.0Q496.0 119.0 500.5 112.0Q505.0 105.0 514.5 85.0Q521.5 69.5 526.0 53.25Q530.5 37.0 530.5 29.0Z" fill="black" /></svg>