<svg xmlns="http://www.w3.org/2000/svg" width="426.0" height="383.0" viewBox="0 0 426.0 383.0"><path d="M98.5 205.0Q93.5 197.5 87.25 187.0Q81.0 176.5 77.0 170.5L68.5 155.5L51.5 166.5Q40.5 174.0 38.75 176.25Q37.0 178.5 42.5 180.0Q46.0 181.0 55.75 186.75Q65.5 192.5 75.5 199.5Q90.5 209.5 97.75 214.5Q105.0 219.5 107.0 219.5Q108.0 218.5 98.5 205.0ZM139.0 81.0Q139.0 80.0 133.25 79.0Q127.5 78.0 120.5 78.0Q106.5 78.0 104.25 79.25Q102.0 80.5 104.5 88.5Q106.0 93.5 108.5 104.0Q111.0 114.5 113.0 126.0L117.5 151.5L122.0 136.0Q124.5 129.0 126.5 120.0Q128.5 111.0 129.5 104.5Q130.5 99.0 132.25 93.25Q134.0 87.5 135.5 87.0Q136.5 86.0 137.75 84.5Q139.0 83.0 139.0 81.0ZM133.0 236.5 135.5 198.0Q137.0 182.0 137.75 169.0Q138.5 156.0 138.5 153.0Q138.0 148.5 135.5 148.5Q132.0 148.5 127.25 161.0Q122.5 173.5 120.5 188.5Q118.5 204.5 119.5 211.25Q120.5 218.0 125.0 225.0ZM154.0 127.5 167.0 124.0 155.0 115.0Q146.5 108.5 143.5 108.5Q141.0 108.5 140.5 111.0Q139.5 114.0 139.5 118.0Q139.5 122.0 140.0 124.5Q140.5 130.0 143.5 130.0Q145.0 130.0 147.5 129.25Q150.0 128.5 154.0 127.5ZM156.5 221.5Q162.0 217.5 161.5 215.25Q161.0 213.0 153.5 208.5L143.0 202.0V214.0Q143.0 226.0 147.5 226.0Q150.5 226.0 156.5 221.5ZM161.5 172.5 170.5 167.5 146.5 154.0V166.0Q146.5 177.5 150.0 177.5Q152.0 177.5 154.75 176.0Q157.5 174.5 161.5 172.5ZM194.5 61.5 186.5 47.5Q182.5 42.0 179.0 38.0Q175.5 34.0 174.5 34.0Q174.0 34.0 171.0 38.0Q168.0 42.0 165.5 47.5L158.5 61.5ZM225.5 79.0Q223.0 76.5 212.5 74.5Q202.0 72.5 191.0 71.25Q180.0 70.0 176.0 70.0Q166.0 70.0 161.0 72.0Q156.0 74.0 151.0 81.0Q145.0 89.5 145.0 92.25Q145.0 95.0 149.0 99.0Q169.0 118.0 206.0 119.5L232.0 121.0L229.0 100.0Q228.0 91.5 227.0 85.5Q226.0 79.5 225.5 79.0ZM222.5 128.5Q217.5 127.5 213.75 127.0Q210.0 126.5 206.0 126.5Q201.0 126.5 194.75 127.25Q188.5 128.0 177.5 130.5Q143.0 135.0 154.0 148.0Q161.0 156.5 176.75 161.25Q192.5 166.0 210.5 166.0H235.0V148.5Q235.0 136.0 233.25 133.25Q231.5 130.5 222.5 128.5ZM245.0 85.5Q243.0 81.5 239.25 82.0Q235.5 82.5 236.0 86.5Q236.0 88.5 237.0 92.5Q238.0 96.5 239.0 100.0Q241.5 105.5 242.25 105.5Q243.0 105.5 245.0 99.0Q247.5 90.0 245.0 85.5ZM261.5 37.0Q262.5 33.0 259.5 31.5Q256.5 30.0 243.5 29.5Q232.5 29.0 228.0 29.75Q223.5 30.5 224.25 35.5Q225.0 40.5 228.5 53.5Q231.0 63.5 236.0 70.0Q241.0 76.5 244.5 76.5Q247.0 76.5 248.5 73.0Q251.5 64.0 255.5 53.0Q259.5 42.0 261.5 37.0ZM260.5 144.0 272.0 139.0 261.5 132.0Q258.0 130.0 255.75 129.0Q253.5 128.0 252.0 128.0Q250.0 128.0 248.5 131.5Q243.0 146.0 252.5 146.0Q256.5 146.0 260.5 144.0ZM271.0 186.0Q271.0 185.0 267.75 182.5Q264.5 180.0 259.0 177.0L247.0 170.5V184.0Q247.0 195.5 250.0 195.5Q252.0 195.5 257.0 193.75Q262.0 192.0 266.5 189.75Q271.0 187.5 271.0 186.0ZM359.5 186.0V145.5L318.5 146.5Q286.5 147.0 268.5 150.25Q250.5 153.5 252.5 160.0Q253.0 161.5 258.5 165.5Q264.0 169.5 270.5 173.5Q280.0 178.5 291.0 181.0Q302.0 183.5 323.5 184.5ZM400.0 37.5H386.5Q381.5 37.5 373.25 36.75Q365.0 36.0 359.0 35.5L344.5 33.0L352.0 55.0Q355.0 64.5 358.0 79.0Q361.0 93.5 362.0 105.0Q363.0 116.5 364.5 124.75Q366.0 133.0 366.5 133.0Q367.0 132.0 370.25 121.5Q373.5 111.0 377.0 97.5Q381.0 83.5 385.5 69.75Q390.0 56.0 393.5 50.5ZM145.0 67.5 158.5 39.0Q164.5 26.5 169.0 18.25Q173.5 10.0 173.5 10.0Q173.5 10.0 176.25 15.0Q179.0 20.0 182.5 28.0Q187.0 37.0 194.0 45.5Q201.0 54.0 208.25 59.75Q215.5 65.5 219.5 65.5Q222.0 65.5 222.5 63.0Q223.0 60.5 220.5 52.5Q218.0 44.5 213.5 36.0Q209.5 27.5 206.75 21.5Q204.0 15.5 204.5 15.0Q204.5 15.0 204.75 15.0Q205.0 15.0 205.0 15.0Q206.5 15.0 211.0 16.0Q215.5 17.0 221.0 18.0Q228.0 20.0 238.75 20.25Q249.5 20.5 258.5 19.5Q267.5 18.5 273.5 19.0Q279.5 19.5 278.5 20.5Q272.0 34.0 266.75 47.25Q261.5 60.5 260.5 68.5Q259.0 77.5 261.25 80.25Q263.5 83.0 273.5 87.0Q280.0 89.5 283.25 92.75Q286.5 96.0 285.5 97.5Q285.0 99.0 282.0 99.0Q277.5 99.0 270.5 95.5Q261.5 91.5 259.5 91.5Q257.0 91.5 254.5 94.5Q247.0 106.0 254.25 116.0Q261.5 126.0 280.25 132.0Q299.0 138.0 326.0 138.0H358.0L354.5 109.0Q351.0 79.5 346.75 64.25Q342.5 49.0 334.0 36.0Q321.5 19.5 329.0 19.5Q332.0 19.5 337.0 22.5Q340.5 24.5 353.25 25.75Q366.0 27.0 380.5 27.0Q395.0 27.0 405.5 27.5Q416.0 28.0 416.0 28.5Q416.0 29.0 413.5 32.5Q411.0 36.0 407.5 40.5Q404.0 44.5 398.75 56.75Q393.5 69.0 389.5 82.0Q383.0 102.5 379.0 121.5Q375.0 140.5 372.5 161.25Q370.0 182.0 369.0 207.5Q368.0 233.0 368.0 267.0Q368.0 306.5 366.5 329.0Q365.0 351.5 363.5 352.5Q359.5 352.5 359.5 276.0Q359.5 254.5 359.25 236.5Q359.0 218.5 358.75 207.0Q358.5 195.5 358.0 195.0Q357.0 194.0 351.0 193.5Q345.0 193.0 336.5 193.0Q324.5 193.0 310.0 193.75Q295.5 194.5 283.0 195.75Q270.5 197.0 265.0 199.0L249.5 204.0L248.0 269.5Q247.5 298.5 246.25 316.5Q245.0 334.5 243.5 334.5Q241.5 334.5 240.25 321.25Q239.0 308.0 239.0 287.5Q239.0 274.5 238.75 259.25Q238.5 244.0 238.0 230.0Q237.5 216.0 236.5 207.0L233.5 173.5L203.5 175.0Q181.0 176.0 165.0 181.0Q149.0 186.0 149.0 192.0Q149.0 194.0 153.25 197.75Q157.5 201.5 163.0 205.0Q170.5 210.5 178.5 212.25Q186.5 214.0 200.5 214.0Q210.5 214.0 219.5 215.25Q228.5 216.5 231.5 218.5Q234.0 219.5 235.0 220.75Q236.0 222.0 235.0 222.0Q234.0 222.5 223.25 222.75Q212.5 223.0 198.5 223.5Q172.0 224.0 157.5 229.5Q143.0 235.0 143.0 244.0Q143.0 246.0 155.75 258.75Q168.5 271.5 186.5 287.5Q227.0 324.0 250.0 347.5Q273.0 371.0 270.5 373.0Q267.0 373.0 256.0 363.5Q245.0 354.0 230.5 340.0Q220.0 329.5 206.5 317.25Q193.0 305.0 180.0 293.0Q167.0 281.0 157.0 273.0L120.5 241.5L119.5 290.5Q119.0 338.5 114.5 338.5Q110.5 338.5 110.5 286.5V235.0L86.0 217.0Q63.0 200.0 45.0 191.25Q27.0 182.5 18.5 182.5Q15.0 182.5 12.5 181.0Q10.0 179.5 10.0 178.0Q10.0 176.0 11.75 175.0Q13.5 174.0 15.5 174.0Q19.5 174.0 28.5 169.75Q37.5 165.5 47.25 159.25Q57.0 153.0 62.5 148.0L73.0 137.5L80.0 154.5Q83.0 162.0 88.25 172.25Q93.5 182.5 98.5 190.0L110.5 208.0V188.5Q110.5 175.0 108.75 158.75Q107.0 142.5 104.25 126.5Q101.5 110.5 98.0 97.75Q94.5 85.0 91.0 79.5Q81.5 62.5 86.0 62.5Q89.0 62.5 94.0 65.5Q98.0 67.5 106.5 68.5Q115.0 69.5 124.0 69.0Z" fill="black" /></svg>