<svg xmlns="http://www.w3.org/2000/svg" width="446.5" height="411.5" viewBox="0 0 446.5 411.5"><path d="M97.5 294.0Q97.5 287.0 93.0 287.0Q88.0 287.0 82.5 294.0Q76.5 301.5 81.0 305.0Q83.5 307.0 87.0 307.0Q91.0 307.0 94.25 303.0Q97.5 299.0 97.5 294.0ZM74.5 188.0Q69.5 185.5 60.75 178.5Q52.0 171.5 43.5 164.0L22.5 146.0V189.5Q22.5 208.0 24.25 220.75Q26.0 233.5 28.5 233.5Q33.5 233.5 33.5 227.5Q33.5 225.5 41.0 220.0Q48.5 214.5 58.5 208.0Q75.0 198.0 77.75 194.75Q80.5 191.5 74.5 188.0ZM166.5 208.0Q164.5 198.0 160.75 195.0Q157.0 192.0 141.0 191.0Q130.5 190.0 122.5 190.75Q114.5 191.5 112.0 193.0Q110.5 195.0 109.5 204.75Q108.5 214.5 108.5 227.0L109.0 256.5L118.5 245.0Q129.5 233.5 134.5 233.5Q141.0 233.5 132.5 250.0Q123.0 268.5 129.0 268.5Q133.0 268.5 146.0 260.0Q158.5 250.5 163.75 238.5Q169.0 226.5 166.5 208.0ZM118.5 74.5Q118.5 74.0 113.25 73.0Q108.0 72.0 100.0 72.0Q89.5 72.0 85.5 74.25Q81.5 76.5 83.0 84.5Q84.5 92.5 89.5 109.5Q95.5 128.5 97.5 128.5Q98.5 128.5 100.0 123.5Q103.0 119.0 106.25 110.5Q109.5 102.0 111.5 94.0Q115.5 87.0 117.0 81.0Q118.5 75.0 118.5 74.5ZM147.5 108.0Q144.0 96.0 140.75 86.75Q137.5 77.5 136.5 77.5Q132.5 77.5 126.75 89.0Q121.0 100.5 116.25 117.0Q111.5 133.5 110.0 148.5L107.0 179.5H122.0Q129.0 179.5 137.5 180.5Q146.0 181.5 151.0 183.0Q155.5 184.5 158.0 184.5Q161.5 184.5 161.75 180.0Q162.0 175.5 159.5 162.0Q158.5 153.0 155.0 137.25Q151.5 121.5 147.5 108.0ZM189.0 74.5Q189.0 74.0 183.25 73.0Q177.5 72.0 170.5 72.0Q160.0 72.0 155.5 74.25Q151.0 76.5 152.25 84.5Q153.5 92.5 159.0 109.5Q165.0 128.5 167.5 128.5Q169.0 128.5 170.5 123.5Q172.0 119.0 175.25 110.5Q178.5 102.0 182.0 94.0Q184.5 87.0 186.75 81.0Q189.0 75.0 189.0 74.5ZM244.5 170.5Q249.0 160.5 245.5 160.25Q242.0 160.0 231.5 168.5Q221.5 176.0 221.25 177.25Q221.0 178.5 230.0 179.5Q234.5 179.5 238.75 176.75Q243.0 174.0 244.5 170.5ZM297.5 148.5Q300.0 134.0 298.25 133.25Q296.5 132.5 284.5 142.5Q276.5 149.0 275.75 152.0Q275.0 155.0 280.0 158.5Q288.0 162.5 290.5 162.5Q293.5 162.5 294.75 159.25Q296.0 156.0 297.5 148.5ZM408.5 134.5Q408.5 133.5 399.75 132.75Q391.0 132.0 379.0 131.5Q366.5 131.5 358.0 132.0Q349.5 132.5 349.5 133.0Q349.5 135.5 353.75 145.5Q358.0 155.5 364.0 167.0Q370.0 178.5 375.0 187.0Q380.0 195.5 381.0 195.5Q381.0 191.5 385.5 181.75Q390.0 172.0 395.0 161.5Q400.5 150.5 404.5 142.5Q408.5 134.5 408.5 134.5ZM406.5 30.0H392.5Q387.5 30.0 380.0 29.0Q372.5 28.0 368.0 26.5Q363.5 25.0 360.5 25.0Q355.5 25.0 355.5 29.0Q355.5 31.0 358.75 40.25Q362.0 49.5 368.0 60.0L379.0 86.5ZM162.5 298.5Q160.5 294.5 148.75 291.5Q137.0 288.5 127.5 288.5Q119.5 288.5 117.0 291.5Q115.0 294.5 115.75 299.75Q116.5 305.0 119.25 309.25Q122.0 313.5 125.5 313.5Q130.0 313.5 130.0 320.5Q130.0 323.5 137.0 329.5Q144.0 335.5 152.25 340.75Q160.5 346.0 164.0 346.0Q166.0 346.0 166.75 340.0Q167.5 334.0 167.25 325.5Q167.0 317.0 165.75 309.25Q164.5 301.5 162.5 298.5ZM168.0 271.0Q168.0 259.5 162.5 259.5Q159.0 259.5 152.5 266.0Q137.0 281.5 156.5 281.5Q168.0 281.5 168.0 271.0ZM333.0 15.0Q333.0 10.0 337.5 10.0Q341.0 10.0 345.5 12.0Q350.5 13.5 364.75 14.75Q379.0 16.0 393.5 16.0Q423.0 16.0 428.0 20.5Q433.0 25.0 419.0 38.0Q394.5 59.5 391.0 98.5L389.5 123.5L412.0 122.0Q431.0 120.5 433.75 124.5Q436.5 128.5 423.5 139.5Q413.5 148.5 407.25 158.25Q401.0 168.0 397.75 184.25Q394.5 200.5 392.75 227.75Q391.0 255.0 389.5 299.5Q387.5 349.5 385.0 375.5Q382.5 401.5 380.5 401.5Q376.5 401.5 376.5 322.5Q376.5 292.5 375.25 271.25Q374.0 250.0 372.5 250.5Q370.5 250.5 357.25 238.5Q344.0 226.5 327.0 209.5Q301.5 185.5 287.25 175.0Q273.0 164.5 265.0 164.5Q260.0 164.5 257.0 167.5Q242.5 182.5 291.0 237.0Q304.0 250.5 312.25 262.25Q320.5 274.0 319.0 276.5Q318.0 279.0 311.75 274.25Q305.5 269.5 297.5 260.0Q290.0 251.5 275.75 237.75Q261.5 224.0 249.0 214.5Q231.5 200.0 221.75 195.0Q212.0 190.0 199.0 190.0Q183.5 190.0 181.0 192.75Q178.5 195.5 178.5 209.5V230.5L190.0 218.0Q198.0 208.0 201.0 208.0Q207.5 208.0 194.5 237.5Q190.5 248.5 187.0 259.5Q183.5 270.5 183.5 274.0Q183.5 283.0 196.25 296.0Q209.0 309.0 238.5 329.5Q251.0 339.0 259.75 346.5Q268.5 354.0 268.5 356.5Q268.5 361.0 266.0 361.0Q262.0 361.0 242.5 346.0Q235.0 340.0 222.75 331.5Q210.5 323.0 201.5 316.5L178.5 302.5V332.0Q178.5 350.0 180.5 357.0Q182.5 364.0 189.0 367.5Q193.0 371.0 196.5 375.25Q200.0 379.5 200.0 382.0Q200.0 391.5 190.0 381.5Q186.5 377.5 181.25 375.0Q176.0 372.5 173.5 372.5Q169.0 372.5 163.5 364.5Q162.0 362.0 154.75 356.5Q147.5 351.0 138.25 344.75Q129.0 338.5 121.25 334.0Q113.5 329.5 111.5 329.5Q110.5 329.5 109.5 335.75Q108.5 342.0 108.5 350.5Q108.5 360.0 107.5 366.25Q106.5 372.5 104.0 372.5Q101.0 372.5 99.25 365.75Q97.5 359.0 97.5 349.0Q97.5 329.0 91.75 321.25Q86.0 313.5 70.5 313.5Q55.0 313.5 53.0 308.0Q51.0 302.5 63.5 294.5Q78.5 284.5 85.75 277.0Q93.0 269.5 95.25 259.75Q97.5 250.0 97.5 233.5Q97.5 220.5 96.5 210.75Q95.5 201.0 94.5 201.0Q91.0 201.0 79.75 207.75Q68.5 214.5 55.25 224.0Q42.0 233.5 32.5 242.0Q24.5 250.0 18.5 255.0Q12.5 260.0 11.5 260.0Q11.0 260.0 11.0 260.0Q11.0 260.0 11.0 260.0Q10.0 258.5 10.75 236.0Q11.5 213.5 12.5 183.0L14.5 108.0L32.0 134.5Q39.5 145.5 49.75 156.0Q60.0 166.5 70.0 173.0Q80.0 179.5 86.0 179.5Q89.0 179.5 90.5 178.0Q92.5 176.0 90.0 161.75Q87.5 147.5 82.5 127.5Q77.5 108.0 73.0 91.0Q68.5 74.0 67.5 69.5Q66.0 64.0 69.75 62.25Q73.5 60.5 94.0 60.5Q99.0 60.5 111.5 60.75Q124.0 61.0 139.5 61.25Q155.0 61.5 169.5 62.0Q184.0 62.5 194.0 63.0Q204.0 63.5 204.5 64.5Q205.0 65.5 202.5 74.0Q200.0 82.5 194.5 92.5Q190.0 103.5 185.0 120.25Q180.0 137.0 179.0 151.0L177.0 185.0L199.0 174.0Q208.0 170.0 223.0 159.75Q238.0 149.5 250.5 139.5Q273.0 121.0 278.5 121.0Q280.0 121.0 281.0 123.5Q282.0 126.0 283.5 126.0Q288.5 126.0 308.0 109.5Q327.0 93.5 331.5 93.5Q333.0 93.5 333.0 95.5Q333.0 99.0 332.0 102.5Q331.0 106.0 328.5 107.0Q327.5 107.5 323.0 116.0Q318.5 124.5 314.5 134.5Q309.5 150.0 308.75 157.0Q308.0 164.0 312.0 171.5Q315.0 177.0 322.5 186.0Q330.0 195.0 339.0 204.75Q348.0 214.5 356.75 222.75Q365.5 231.0 371.0 235.25Q376.5 239.5 376.5 237.0Q376.5 232.0 373.25 220.5Q370.0 209.0 364.75 194.75Q359.5 180.5 353.25 167.0Q347.0 153.5 341.5 144.5L327.0 121.5H352.0Q361.5 121.5 369.0 120.0Q376.5 118.5 376.5 117.5Q376.5 115.0 372.75 104.5Q369.0 94.0 363.25 80.5Q357.5 67.0 352.0 55.0Q346.5 43.0 343.0 38.0Q339.0 31.0 336.0 24.25Q333.0 17.5 333.0 15.0Z" fill="black" /></svg>