<svg xmlns="http://www.w3.org/2000/svg" width="671.0" height="380.0" viewBox="0 0 671.0 380.0"><path d="M92.5 256.0Q89.5 243.0 84.5 243.0Q80.5 243.0 71.5 250.5Q60.0 260.0 61.0 263.25Q62.0 266.5 77.5 266.5Q89.0 266.5 91.75 264.25Q94.5 262.0 92.5 256.0ZM133.0 187.0Q133.0 182.5 129.5 182.5Q124.5 182.5 119.0 188.5Q111.0 196.5 113.0 202.5Q115.0 208.5 125.5 208.5Q133.5 208.5 136.0 206.75Q138.5 205.0 136.0 200.5Q135.0 196.5 134.0 192.75Q133.0 189.0 133.0 187.0ZM248.0 271.5 197.5 247.5Q168.5 234.0 146.0 226.75Q123.5 219.5 111.0 219.5Q101.5 219.5 99.5 223.5Q97.5 227.0 98.0 235.5Q98.5 244.0 101.5 252.75Q104.5 261.5 109.0 267.0Q111.0 269.5 124.0 276.75Q137.0 284.0 155.25 293.5Q173.5 303.0 192.0 312.0Q210.5 321.0 224.0 327.0Q237.5 333.0 240.0 333.0Q241.0 332.0 242.0 322.75Q243.0 313.5 245.0 301.5ZM266.5 334.0Q264.0 328.5 258.5 328.5Q253.0 328.5 253.0 334.0Q253.0 336.0 255.5 337.5Q258.0 339.0 261.5 339.0Q269.0 339.0 266.5 334.0ZM272.0 261.0Q270.0 256.0 266.0 256.0Q263.5 256.0 263.5 261.0Q263.5 263.0 265.5 264.75Q267.5 266.5 269.5 266.5Q271.5 266.5 272.25 264.75Q273.0 263.0 272.0 261.0ZM425.5 326.5Q413.0 319.0 409.0 319.0Q404.5 319.0 404.5 329.5Q404.5 338.5 409.5 338.5Q412.0 338.5 416.5 337.0Q422.0 336.0 427.0 335.0Q432.0 334.0 434.0 334.0Q436.5 334.0 433.75 331.5Q431.0 329.0 425.5 326.5ZM175.0 141.0Q175.0 137.0 172.25 134.75Q169.5 132.5 166.0 132.5Q163.5 132.5 162.5 133.5Q158.0 138.0 159.75 141.75Q161.5 145.5 167.0 145.5Q175.0 145.5 175.0 141.0ZM259.0 198.0 216.5 177.0Q173.5 156.5 157.5 156.5Q151.0 156.5 147.5 160.0Q144.5 162.5 144.0 170.75Q143.5 179.0 144.75 188.5Q146.0 198.0 149.0 204.0Q150.5 206.5 161.0 213.25Q171.5 220.0 186.0 228.5Q200.5 237.0 215.0 244.5Q229.5 252.0 239.75 256.5Q250.0 261.0 251.0 259.5Q251.0 259.0 252.75 249.75Q254.5 240.5 255.5 228.0ZM274.0 205.5Q274.0 203.5 272.0 203.5Q269.0 203.5 269.0 205.5Q269.0 208.5 272.0 208.5Q274.0 208.5 274.0 205.5ZM409.0 245.5Q408.5 231.0 408.0 223.5Q407.5 216.0 402.5 213.25Q397.5 210.5 383.0 210.5Q374.5 210.5 362.0 211.0Q349.5 211.5 332.0 212.5Q305.0 213.5 291.75 215.5Q278.5 217.5 273.5 223.0Q263.5 231.0 265.0 236.25Q266.5 241.5 281.0 250.5Q288.0 254.5 295.75 257.0Q303.5 259.5 316.5 260.25Q329.5 261.0 351.5 261.0Q377.5 261.0 390.75 262.25Q404.0 263.5 402.5 266.5Q400.5 268.5 382.5 269.75Q364.5 271.0 338.0 271.0Q312.0 271.0 299.5 271.75Q287.0 272.5 284.5 274.0Q282.0 275.5 285.5 278.5Q292.0 283.5 292.0 286.5Q292.0 289.5 288.0 289.5Q284.5 289.5 278.5 286.5Q275.0 284.5 270.5 284.5Q262.5 284.5 257.75 291.0Q253.0 297.5 255.5 306.0Q260.5 321.5 281.25 327.75Q302.0 334.0 344.5 333.0L397.0 331.5L395.5 310.5Q395.0 301.0 396.75 294.0Q398.5 287.0 402.5 285.0Q407.0 281.5 408.5 273.0Q410.0 264.5 409.0 245.5ZM437.0 204.0 449.0 199.5 437.0 193.5Q431.5 190.0 428.0 190.0Q424.5 190.0 422.5 195.0Q418.0 207.0 425.5 207.0Q429.5 207.0 437.0 204.0ZM441.5 261.0Q434.5 256.0 428.0 256.0Q420.5 256.0 420.5 264.0Q420.5 272.0 428.5 269.5Q432.5 268.5 436.75 267.5Q441.0 266.5 443.0 266.5Q445.5 266.5 445.25 264.75Q445.0 263.0 441.5 261.0ZM229.0 70.0Q232.0 62.5 227.5 62.5Q223.5 62.5 218.0 68.5Q212.0 73.5 212.0 79.0Q212.0 81.5 214.5 81.5Q217.5 81.5 222.5 78.0Q227.5 74.5 229.0 70.0ZM252.5 106.5Q240.0 99.0 232.25 95.5Q224.5 92.0 218.5 92.0Q211.5 92.0 200.5 97.5Q170.5 113.0 185.5 140.5Q187.0 144.0 197.5 151.25Q208.0 158.5 221.0 166.0Q234.0 173.5 244.25 178.25Q254.5 183.0 256.0 181.5Q258.0 178.5 261.0 168.5Q264.0 158.5 266.5 147.25Q269.0 136.0 269.0 130.5Q269.0 117.0 252.5 106.5ZM288.5 133.5Q291.0 130.0 284.5 130.0Q278.5 130.0 281.0 133.5Q284.5 136.0 288.5 133.5ZM453.5 127.0Q445.0 120.5 441.0 120.5Q436.0 120.5 436.0 133.0Q436.0 143.0 441.0 143.0Q444.0 143.0 446.0 142.0Q457.5 138.0 459.0 135.25Q460.5 132.5 453.5 127.0ZM248.0 14.5Q248.0 10.0 256.0 10.0Q260.5 10.0 260.0 13.75Q259.5 17.5 253.0 30.0Q248.5 38.5 244.5 49.75Q240.5 61.0 239.5 68.5Q238.0 79.5 240.0 84.0Q242.0 88.5 251.0 94.0Q259.5 98.5 263.0 98.5Q266.5 98.5 267.5 94.5Q270.0 88.5 273.0 88.5Q278.5 88.5 281.5 100.5Q285.5 117.0 305.0 123.5Q324.5 130.0 368.5 130.0Q394.0 130.0 407.0 131.25Q420.0 132.5 418.0 135.0Q416.5 138.0 398.5 139.25Q380.5 140.5 354.5 140.5Q333.0 140.5 320.75 140.75Q308.5 141.0 301.5 142.25Q294.5 143.5 290.5 146.25Q286.5 149.0 281.5 154.0Q269.0 166.5 270.75 176.25Q272.5 186.0 290.0 194.5Q297.5 198.0 305.75 200.0Q314.0 202.0 326.75 202.5Q339.5 203.0 360.5 202.5L413.0 200.5L411.5 181.0Q410.5 169.5 411.75 165.5Q413.0 161.5 418.0 161.5Q422.5 161.5 424.0 153.75Q425.5 146.0 425.5 123.0V85.5L437.5 100.0Q445.5 109.5 454.75 115.5Q464.0 121.5 478.5 124.5Q493.0 127.5 516.0 128.75Q539.0 130.0 575.0 130.0Q599.0 130.0 618.5 130.5Q638.0 131.0 649.5 132.25Q661.0 133.5 661.0 135.0Q661.0 136.0 647.75 137.5Q634.5 139.0 612.25 140.0Q590.0 141.0 563.0 142.0Q525.0 142.5 501.25 143.75Q477.5 145.0 464.25 147.75Q451.0 150.5 444.0 155.25Q437.0 160.0 432.5 167.5Q428.0 174.0 429.75 177.0Q431.5 180.0 445.0 187.0Q452.5 190.0 465.0 192.25Q477.5 194.5 499.25 195.75Q521.0 197.0 556.0 198.0Q581.5 198.5 601.0 199.75Q620.5 201.0 631.25 202.0Q642.0 203.0 640.0 204.0Q638.0 205.0 623.0 206.5Q608.0 208.0 585.0 208.75Q562.0 209.5 535.0 209.5Q498.5 210.0 476.25 211.0Q454.0 212.0 443.25 213.75Q432.5 215.5 429.5 218.5Q419.5 226.5 422.0 233.5Q424.5 240.5 440.5 248.5Q448.5 252.5 459.5 254.75Q470.5 257.0 491.5 258.0Q512.5 259.0 550.0 259.5Q574.5 260.0 595.0 261.25Q615.5 262.5 627.75 263.75Q640.0 265.0 640.0 266.5Q640.0 267.5 626.75 268.5Q613.5 269.5 591.5 270.5Q569.5 271.5 542.5 272.5Q510.0 273.0 489.75 273.5Q469.5 274.0 457.75 275.25Q446.0 276.5 439.25 278.5Q432.5 280.5 427.0 284.5Q420.0 289.0 415.5 293.25Q411.0 297.5 411.5 300.0Q412.5 302.0 419.5 307.0Q426.5 312.0 436.0 316.5Q444.5 321.0 451.75 323.25Q459.0 325.5 469.5 326.75Q480.0 328.0 498.0 328.25Q516.0 328.5 545.0 328.5Q630.0 328.5 626.5 334.0Q625.5 336.0 600.75 337.5Q576.0 339.0 536.5 339.0Q470.0 339.0 440.0 343.5Q410.0 348.0 406.0 358.0Q404.0 365.0 399.5 365.0Q394.0 365.0 394.0 354.0Q394.0 348.5 391.0 346.5Q388.0 344.5 374.5 344.25Q361.0 344.0 329.0 345.0Q298.0 345.5 283.25 346.75Q268.5 348.0 263.25 350.5Q258.0 353.0 254.5 358.5Q247.0 370.0 242.0 370.0Q237.5 370.0 240.5 360.0Q242.0 355.0 237.75 350.5Q233.5 346.0 218.5 338.0Q203.5 330.0 172.0 314.5Q143.0 300.0 126.25 292.5Q109.5 285.0 98.75 282.5Q88.0 280.0 77.0 280.0Q64.5 280.0 51.5 280.5Q38.5 281.0 26.0 283.5L10.0 288.0L29.0 273.0Q36.0 267.0 46.75 257.5Q57.5 248.0 65.0 241.5Q74.5 233.0 77.25 229.5Q80.0 226.0 77.0 226.0Q74.5 226.0 70.0 227.5Q62.0 229.0 65.5 224.25Q69.0 219.5 87.5 202.5Q98.0 192.5 111.0 178.0Q124.0 163.5 136.25 149.25Q148.5 135.0 156.5 124.25Q164.5 113.5 164.5 111.0Q164.5 110.0 177.0 96.25Q189.5 82.5 206.5 64.0Q223.5 46.0 235.75 31.25Q248.0 16.5 248.0 14.5Z" fill="black" /></svg>