<svg xmlns="http://www.w3.org/2000/svg" width="466.5" height="390.5" viewBox="0 0 466.5 390.5"><path d="M86.0 244.5Q88.5 237.5 89.5 232.5Q90.5 227.5 89.5 227.5Q88.0 227.5 80.5 234.0Q73.0 240.5 63.5 250.0Q53.5 260.0 47.0 268.0Q40.5 276.0 41.5 277.0Q43.5 278.0 51.5 279.5Q59.5 281.0 68.0 282.25Q76.5 283.5 79.5 283.5Q84.0 283.5 84.25 281.25Q84.5 279.0 83.0 272.5Q82.0 268.0 83.0 259.5Q84.0 251.0 86.0 244.5ZM126.5 107.5Q129.0 104.0 130.0 101.0Q131.0 98.0 130.0 97.5Q129.5 97.5 119.75 105.5Q110.0 113.5 98.5 125.5L69.5 155.5H85.0Q92.0 155.5 97.5 155.5Q103.0 155.5 104.5 156.0Q107.0 156.0 109.75 150.25Q112.5 144.5 114.5 136.0Q117.0 127.0 120.75 118.25Q124.5 109.5 126.5 107.5ZM185.5 98.5Q181.0 82.5 176.75 71.25Q172.5 60.0 171.5 60.0Q167.0 60.0 160.5 69.0Q154.0 78.0 140.0 106.0Q132.0 121.0 128.5 129.0Q125.0 137.0 125.25 142.5Q125.5 148.0 128.0 156.0Q130.5 165.5 137.0 172.25Q143.5 179.0 157.0 187.0Q167.0 192.5 175.0 196.5Q183.0 200.5 185.0 200.5Q186.5 200.5 188.5 191.0Q190.5 181.5 192.5 169.0Q195.0 151.0 193.5 136.25Q192.0 121.5 185.5 98.5ZM255.5 200.5Q252.5 200.5 244.5 196.5Q236.5 192.5 229.0 187.5L211.0 175.5V224.5L233.5 215.5Q252.5 208.5 258.25 204.5Q264.0 200.5 255.5 200.5ZM224.0 55.0 236.0 30.0H209.0Q193.0 30.0 186.5 32.5Q180.0 35.0 181.5 44.75Q183.0 54.5 189.5 76.5Q195.0 95.0 197.75 103.25Q200.5 111.5 202.0 111.5Q203.5 111.5 206.5 98.5Q208.5 91.0 213.5 78.0Q218.5 65.0 224.0 55.0ZM157.0 18.0Q155.5 12.0 157.0 11.0Q158.5 10.0 164.0 13.0Q168.0 14.5 183.0 16.0Q198.0 17.5 215.0 17.5Q232.0 17.5 244.0 17.75Q256.0 18.0 256.0 19.0Q256.0 19.5 251.0 28.25Q246.0 37.0 239.0 49.0Q212.5 93.0 211.0 140.5Q211.0 156.0 223.75 170.25Q236.5 184.5 255.5 190.0Q259.5 191.0 275.75 192.5Q292.0 194.0 315.25 195.5Q338.5 197.0 364.0 198.0Q390.5 199.0 411.25 200.5Q432.0 202.0 444.25 203.5Q456.5 205.0 456.5 206.5Q456.5 208.5 435.25 208.75Q414.0 209.0 377.0 208.0Q356.5 207.0 342.25 206.25Q328.0 205.5 318.0 205.5Q305.5 205.5 296.5 206.75Q287.5 208.0 278.75 210.5Q270.0 213.0 257.0 217.5Q232.5 225.5 223.25 230.75Q214.0 236.0 210.5 244.0Q208.5 248.5 207.25 270.25Q206.0 292.0 206.0 318.0Q206.0 347.0 205.0 363.75Q204.0 380.5 201.5 380.5Q199.5 380.5 197.75 378.0Q196.0 375.5 196.0 373.0Q196.0 367.5 184.25 357.5Q172.5 347.5 153.5 336.0Q134.5 324.5 113.25 314.0Q92.0 303.5 72.25 296.25Q52.5 289.0 39.5 287.5L10.0 283.5L27.5 271.0Q36.0 264.0 49.0 251.25Q62.0 238.5 75.0 224.5Q88.0 210.5 97.0 199.75Q106.0 189.0 106.0 186.0Q106.0 180.0 111.5 180.0Q117.0 180.0 115.5 189.0Q114.0 198.0 104.0 223.0Q99.0 235.5 95.0 247.25Q91.0 259.0 91.0 263.5Q91.0 274.5 110.5 293.0Q130.0 311.5 162.5 333.0L196.0 354.0V299.5Q196.0 275.5 195.5 264.25Q195.0 253.0 193.5 250.0Q192.0 247.0 188.0 248.5Q186.5 249.0 185.5 249.25Q184.5 249.5 183.5 249.5Q181.5 249.5 181.5 246.5Q181.5 243.5 182.5 236.5Q184.5 226.5 182.25 221.0Q180.0 215.5 170.0 207.0Q148.5 189.0 121.0 178.25Q93.5 167.5 70.0 168.0Q58.5 168.5 49.75 167.75Q41.0 167.0 41.0 166.0Q41.0 165.0 50.0 156.25Q59.0 147.5 71.5 137.5Q89.0 123.5 105.75 107.25Q122.5 91.0 136.0 76.0Q149.5 61.0 157.0 50.0Q164.5 39.0 163.0 35.5Q162.0 32.0 160.0 26.75Q158.0 21.5 157.0 18.0Z" fill="black" /></svg>