<svg xmlns="http://www.w3.org/2000/svg" width="463.0" height="458.0" viewBox="0 0 463.0 458.0"><path d="M166.5 237.0Q163.0 235.5 148.75 231.25Q134.5 227.0 119.0 221.5L79.0 208.0V280.0L103.0 265.5Q113.0 260.0 126.75 254.0Q140.5 248.0 150.0 245.5Q159.5 242.5 164.25 240.0Q169.0 237.5 166.5 237.0ZM109.0 26.0Q109.0 25.5 100.75 25.25Q92.5 25.0 80.25 25.0Q68.0 25.0 55.75 25.25Q43.5 25.5 35.25 26.0Q27.0 26.5 27.0 27.0Q27.0 27.5 29.5 33.5Q32.0 39.5 35.5 48.0Q39.5 55.0 45.25 71.75Q51.0 88.5 55.5 104.5L66.5 142.0L73.0 112.0Q75.5 99.5 81.5 82.5Q87.5 65.5 94.0 53.5Q101.0 42.5 105.0 34.25Q109.0 26.0 109.0 26.0ZM10.5 11.5Q11.0 10.0 18.75 11.0Q26.5 12.0 36.5 13.5Q47.0 15.5 64.25 16.0Q81.5 16.5 95.5 16.0Q103.0 15.0 109.5 14.5Q116.0 14.0 121.0 14.0Q130.0 14.0 130.0 15.5Q130.0 16.0 125.5 23.5Q121.0 31.0 114.5 40.5Q97.5 65.0 88.25 97.25Q79.0 129.5 79.0 162.0V197.0L97.5 205.5Q105.5 208.5 123.25 214.0Q141.0 219.5 158.0 224.0Q172.0 227.5 184.25 229.5Q196.5 231.5 213.0 232.5Q229.5 233.5 256.25 233.5Q283.0 233.5 326.5 233.0Q363.5 233.0 392.0 233.5Q420.5 234.0 436.75 234.75Q453.0 235.5 453.0 237.0Q453.0 238.5 434.5 240.0Q416.0 241.5 384.75 243.0Q353.5 244.5 315.5 245.5Q259.5 247.0 222.75 249.0Q186.0 251.0 163.0 254.5Q140.0 258.0 124.75 264.5Q109.5 271.0 96.0 281.5L79.0 294.5V372.0Q79.0 404.5 77.5 426.25Q76.0 448.0 74.0 448.0Q71.5 448.0 68.75 380.0Q66.0 312.0 63.5 185.5Q63.5 177.0 59.25 158.5Q55.0 140.0 48.5 117.75Q42.0 95.5 35.0 75.0Q28.0 54.5 22.0 42.5Q16.5 31.0 13.25 21.5Q10.0 12.0 10.5 11.5Z" fill="black" /></svg>