<svg xmlns="http://www.w3.org/2000/svg" width="635.0" height="392.0" viewBox="0 0 635.0 392.0"><path d="M64.0 247.0Q56.0 244.0 51.25 242.25Q46.5 240.5 44.0 240.5Q40.5 240.5 39.75 243.5Q39.0 246.5 39.0 252.5Q39.0 263.0 44.5 263.0Q47.5 263.0 52.5 261.5Q73.5 257.0 75.5 254.5Q77.5 252.0 64.0 247.0ZM64.5 309.5Q53.5 305.0 44.5 302.25Q35.5 299.5 34.0 299.5Q32.5 299.5 30.75 308.0Q29.0 316.5 27.75 327.75Q26.5 339.0 26.0 348.25Q25.5 357.5 26.5 359.0Q29.0 359.0 43.0 356.75Q57.0 354.5 75.0 350.5Q94.0 346.0 114.25 342.0Q134.5 338.0 144.0 336.5L166.5 332.0L129.0 325.0Q114.0 322.5 95.0 317.75Q76.0 313.0 64.5 309.5ZM69.0 187.0Q52.5 180.5 45.5 180.5Q38.0 180.5 40.0 191.0Q41.0 196.0 42.75 198.5Q44.5 201.0 49.5 201.0Q53.0 201.0 58.75 200.0Q64.5 199.0 73.5 197.0Q82.5 194.5 82.0 193.0Q81.5 191.5 69.0 187.0ZM66.0 92.0Q56.0 86.5 48.25 83.25Q40.5 80.0 40.5 80.0Q39.5 80.0 39.25 88.0Q39.0 96.0 39.0 107.5Q39.0 126.0 40.5 130.5Q42.0 135.0 48.0 133.0Q82.5 121.5 95.75 116.0Q109.0 110.5 109.0 108.5Q109.0 104.5 100.0 104.5Q96.0 104.5 86.0 101.0Q76.0 97.5 66.0 92.0ZM360.0 34.0Q346.0 34.0 337.0 31.0Q331.0 28.5 329.75 32.75Q328.5 37.0 332.75 51.5Q337.0 66.0 347.5 95.0Q348.5 96.5 348.5 96.5Q352.0 96.5 358.5 77.0Q362.5 66.0 366.25 56.25Q370.0 46.5 372.0 43.0Q374.5 37.5 372.25 35.75Q370.0 34.0 360.0 34.0ZM432.0 118.0Q434.5 113.0 432.25 111.5Q430.0 110.0 420.0 110.0Q407.5 110.0 405.75 114.0Q404.0 118.0 410.5 132.5Q416.0 144.0 420.0 144.0Q423.5 144.0 426.0 135.5Q427.0 132.0 428.75 127.0Q430.5 122.0 432.0 118.0ZM504.0 112.0Q504.0 110.0 489.0 110.0Q476.5 110.0 475.0 115.25Q473.5 120.5 481.5 134.0L488.5 146.5L496.5 131.0Q504.0 116.0 504.0 112.0ZM599.5 30.5Q599.5 29.5 590.5 29.5Q581.5 29.5 568.5 29.5Q548.5 29.5 544.0 31.0Q539.5 32.5 541.5 38.0Q543.5 41.5 547.75 52.5Q552.0 63.5 556.5 76.0Q566.0 100.5 571.0 100.5Q574.5 100.5 574.5 89.5Q574.5 86.0 578.25 76.25Q582.0 66.5 587.5 56.5Q592.5 46.5 596.0 38.75Q599.5 31.0 599.5 30.5ZM522.0 13.0Q527.0 10.0 538.0 14.5Q543.0 16.5 557.5 17.75Q572.0 19.0 587.5 19.0H625.0L610.0 38.5Q600.0 51.0 594.0 63.25Q588.0 75.5 584.75 93.5Q581.5 111.5 580.25 140.0Q579.0 168.5 579.0 213.5Q579.0 252.0 579.25 273.75Q579.5 295.5 580.5 305.75Q581.5 316.0 583.75 319.25Q586.0 322.5 589.5 323.5Q593.5 324.5 596.5 326.5Q599.5 328.5 599.5 330.5Q599.5 332.0 596.5 333.5Q593.5 335.0 589.5 335.0Q586.0 335.0 582.5 336.25Q579.0 337.5 579.0 340.0Q579.0 346.0 573.0 340.0Q569.5 337.5 526.5 336.25Q483.5 335.0 394.0 335.0Q339.5 335.0 303.0 335.5Q266.5 336.0 241.75 337.0Q217.0 338.0 198.0 339.75Q179.0 341.5 158.5 344.5Q121.0 350.5 91.25 356.25Q61.5 362.0 43.0 367.0Q24.5 372.0 20.5 375.5Q14.0 382.0 12.0 375.25Q10.0 368.5 14.5 355.0Q17.0 348.0 18.0 335.25Q19.0 322.5 18.0 311.5Q17.0 300.0 17.5 292.25Q18.0 284.5 19.5 284.5Q20.5 284.5 35.25 289.0Q50.0 293.5 68.5 299.5Q94.5 308.5 130.5 314.25Q166.5 320.0 209.25 322.5Q252.0 325.0 296.5 323.5L351.0 322.0L349.5 292.0Q349.5 279.5 348.75 270.5Q348.0 261.5 347.5 261.5Q347.0 260.5 331.75 260.25Q316.5 260.0 291.5 260.0Q266.5 260.0 236.5 260.0Q199.0 260.0 173.5 260.5Q148.0 261.0 128.5 262.25Q109.0 263.5 89.75 266.0Q70.5 268.5 45.0 272.5L23.5 276.5L27.0 254.0Q28.0 245.0 29.75 238.0Q31.5 231.0 32.5 230.0Q35.0 230.0 44.25 232.25Q53.5 234.5 64.5 237.5Q76.5 240.5 95.0 242.5Q113.5 244.5 144.0 245.75Q174.5 247.0 223.0 248.0L349.5 251.0V200.0L275.5 198.5Q237.5 198.0 208.75 198.0Q180.0 198.0 157.25 199.0Q134.5 200.0 114.75 202.0Q95.0 204.0 74.5 207.5Q56.5 210.5 43.5 212.0Q30.5 213.5 27.5 213.5Q27.0 213.5 26.75 213.5Q26.5 213.5 26.5 213.5Q26.0 212.5 26.5 206.25Q27.0 200.0 28.0 191.0Q29.0 180.0 30.75 175.5Q32.5 171.0 39.5 171.0Q44.5 171.0 52.25 172.75Q60.0 174.5 72.0 177.5Q88.0 181.0 124.5 184.0Q161.0 187.0 226.0 188.0L351.0 191.0L348.0 156.5Q347.0 142.0 345.5 130.0Q344.0 118.0 342.0 115.0Q339.0 110.0 250.0 110.0Q203.0 110.0 169.25 112.75Q135.5 115.5 109.25 121.75Q83.0 128.0 58.5 139.0Q49.5 143.0 41.75 146.25Q34.0 149.5 31.5 149.5Q30.0 149.5 29.25 141.0Q28.5 132.5 28.25 119.5Q28.0 106.5 28.25 93.5Q28.5 80.5 29.25 70.75Q30.0 61.0 31.5 59.5Q32.5 59.5 38.25 62.75Q44.0 66.0 51.0 71.5Q63.0 81.0 75.0 86.5Q87.0 92.0 104.75 94.75Q122.5 97.5 151.25 98.5Q180.0 99.5 225.0 99.5Q272.5 99.5 297.0 99.0Q321.5 98.5 329.25 94.5Q337.0 90.5 333.75 80.5Q330.5 70.5 322.0 51.5Q316.5 39.5 312.75 30.75Q309.0 22.0 309.0 22.0Q309.0 21.5 321.5 21.5Q334.0 21.5 351.0 22.0Q368.0 22.5 379.5 24.0Q391.0 25.5 390.0 28.0Q389.5 29.0 385.0 38.5Q380.5 48.0 375.0 59.5L361.5 87.5V322.0L490.5 325.0L488.5 251.0Q487.5 221.0 486.0 202.75Q484.5 184.5 482.0 172.0Q479.5 159.5 475.0 147.5Q468.0 128.0 464.5 117.75Q461.0 107.5 462.0 103.75Q463.0 100.0 469.5 99.75Q476.0 99.5 489.0 99.5Q501.5 99.5 510.25 100.75Q519.0 102.0 519.0 104.0Q519.0 106.0 516.0 113.0Q513.0 120.0 508.5 128.0Q504.5 134.5 502.0 140.75Q499.5 147.0 498.25 157.25Q497.0 167.5 496.75 185.5Q496.5 203.5 496.5 234.5L497.5 322.0L570.0 325.0L568.5 226.0Q568.0 192.0 567.0 171.0Q566.0 150.0 564.5 137.0Q563.0 124.0 560.5 114.0Q558.0 104.0 553.5 92.0Q548.0 77.5 541.25 61.0Q534.5 44.5 530.5 36.5Q526.0 28.0 523.5 21.0Q521.0 14.0 522.0 13.0ZM391.0 108.5Q389.0 103.0 393.75 101.25Q398.5 99.5 418.5 99.5Q431.0 99.5 440.25 100.5Q449.5 101.5 449.5 103.0Q449.5 105.0 446.0 112.25Q442.5 119.5 438.0 129.5Q434.0 137.5 431.75 144.25Q429.5 151.0 428.5 161.0Q427.5 171.0 427.5 188.0Q427.5 205.0 427.5 233.0Q428.5 255.5 428.25 274.25Q428.0 293.0 427.0 304.5Q426.0 316.0 424.5 317.0Q423.0 317.0 421.25 297.25Q419.5 277.5 418.5 248.5Q418.0 219.0 416.5 201.25Q415.0 183.5 412.25 171.5Q409.5 159.5 405.0 147.5Q400.5 135.0 396.5 123.5Q392.5 112.0 391.0 108.5Z" fill="black" /></svg>