<svg xmlns="http://www.w3.org/2000/svg" width="620.5" height="305.0" viewBox="0 0 620.5 305.0"><path d="M67.5 214.0Q54.0 211.0 43.75 208.25Q33.5 205.5 32.5 205.5Q31.5 205.5 30.75 213.25Q30.0 221.0 30.0 232.0Q30.0 246.5 30.75 251.75Q31.5 257.0 35.0 257.0Q36.0 257.0 37.0 256.75Q38.0 256.5 39.5 256.0Q43.0 254.5 58.0 250.0Q73.0 245.5 89.5 240.5Q118.0 232.0 122.25 229.75Q126.5 227.5 116.0 225.5Q109.5 224.5 95.5 221.0Q81.5 217.5 67.5 214.0ZM139.5 165.0 159.5 169.0Q159.5 165.0 156.0 157.5Q152.5 150.0 151.0 144.5Q150.0 144.5 145.75 147.5Q141.5 150.5 137.5 153.5L121.0 162.5Q125.0 162.5 129.0 163.0Q133.0 163.5 139.5 165.0ZM433.5 236.0 420.0 213.5Q415.0 204.0 410.5 196.75Q406.0 189.5 405.0 189.0Q404.5 189.0 398.5 194.75Q392.5 200.5 384.5 208.0Q376.0 216.0 371.0 222.25Q366.0 228.5 367.0 229.5Q367.5 230.0 377.5 231.25Q387.5 232.5 401.5 233.5ZM204.5 121.5 197.0 99.0 174.5 118.5Q178.5 118.5 181.5 118.5Q184.5 118.5 189.5 119.5Q193.5 120.0 197.25 120.5Q201.0 121.0 204.5 121.5ZM254.0 78.5 244.0 55.0 221.5 76.5Q225.5 76.5 229.5 76.25Q233.5 76.0 237.0 76.0Q241.5 76.5 245.75 77.25Q250.0 78.0 254.0 78.5ZM275.5 97.0Q261.5 91.5 250.5 88.25Q239.5 85.0 224.5 85.0Q221.5 85.0 218.75 85.75Q216.0 86.5 213.5 90.5Q210.5 95.5 209.75 104.25Q209.0 113.0 215.5 116.5Q219.0 118.5 220.75 121.0Q222.5 123.5 221.5 124.5Q220.0 125.5 226.0 129.0Q232.0 132.5 241.5 136.5L265.5 146.0L287.0 132.5Q296.0 126.5 302.25 121.25Q308.5 116.0 308.5 114.0Q308.5 111.5 298.75 106.75Q289.0 102.0 275.5 97.0ZM310.0 140.5Q311.0 135.0 311.0 131.25Q311.0 127.5 310.0 127.5Q310.0 127.5 304.25 131.25Q298.5 135.0 291.0 140.5L274.0 153.0L290.5 153.5Q302.0 153.5 305.0 151.25Q308.0 149.0 310.0 140.5ZM466.0 104.5Q466.0 97.5 463.0 97.5Q458.0 97.5 438.5 117.5L419.5 138.0L451.5 141.0Q465.0 142.5 475.25 143.0Q485.5 143.5 486.0 143.0Q487.0 142.5 484.25 137.5Q481.5 132.5 477.0 127.0Q472.5 120.5 469.25 114.0Q466.0 107.5 466.0 104.5ZM238.0 46.5Q261.5 26.5 272.75 18.25Q284.0 10.0 286.5 10.0Q287.5 10.0 287.5 11.0Q287.5 11.5 282.5 20.25Q277.5 29.0 270.5 40.0Q260.0 58.5 258.5 64.0Q257.0 69.5 262.0 72.5Q265.5 74.5 268.5 77.0Q271.5 79.5 272.0 81.5Q273.0 83.5 280.5 87.75Q288.0 92.0 297.5 96.0L320.5 106.5L332.5 96.0Q342.5 89.0 346.5 89.0Q353.5 89.0 342.0 104.5Q323.5 127.5 319.5 140.5Q315.5 153.5 328.5 153.5Q333.0 153.5 333.75 154.5Q334.5 155.5 331.0 157.0Q325.5 160.5 353.0 172.5Q366.5 177.5 375.0 180.25Q383.5 183.0 388.5 183.0Q393.5 183.0 396.5 180.5Q399.5 178.0 403.0 173.0Q410.0 162.5 414.0 162.5Q419.0 162.5 419.0 178.0Q419.0 200.5 437.25 221.75Q455.5 243.0 487.0 256.0Q516.5 268.5 535.75 279.25Q555.0 290.0 552.5 293.5Q552.0 295.0 540.25 290.5Q528.5 286.0 513.0 278.0Q478.0 260.0 443.5 250.25Q409.0 240.5 382.0 240.5Q372.0 240.5 363.25 241.75Q354.5 243.0 347.5 246.0Q341.0 249.0 336.0 249.0Q331.0 249.0 330.75 246.0Q330.5 243.0 337.5 238.5Q342.5 235.5 338.5 234.25Q334.5 233.0 315.5 232.5Q296.5 232.0 255.5 232.0Q197.0 232.0 155.75 236.25Q114.5 240.5 83.5 250.0Q52.5 259.5 24.0 276.5Q18.5 280.0 14.5 280.0Q11.0 280.0 10.5 276.5Q10.0 273.0 13.5 267.0Q16.0 263.5 18.0 249.25Q20.0 235.0 20.0 219.0Q20.0 203.0 20.75 191.25Q21.5 179.5 22.0 179.5Q22.5 179.5 27.75 183.25Q33.0 187.0 39.5 192.5Q53.5 203.0 76.25 209.0Q99.0 215.0 138.75 218.0Q178.5 221.0 243.0 222.0L353.0 224.0L368.0 211.0Q374.0 205.5 377.5 200.5Q381.0 195.5 379.5 194.0Q378.5 191.5 366.25 186.25Q354.0 181.0 337.5 176.0Q317.0 168.5 300.75 165.5Q284.5 162.5 268.5 162.5Q250.0 162.5 245.75 161.25Q241.5 160.0 245.0 156.5Q248.0 153.0 244.25 150.0Q240.5 147.0 225.5 141.0Q209.0 135.5 199.75 132.75Q190.5 130.0 185.0 130.0Q180.0 130.0 174.75 130.0Q169.5 130.0 167.5 134.0Q165.5 138.0 165.0 142.25Q164.5 146.5 164.5 149.0Q164.5 154.0 166.75 158.25Q169.0 162.5 172.5 162.5Q177.0 162.5 174.5 166.5Q173.5 168.5 176.75 171.0Q180.0 173.5 186.0 176.0Q196.0 179.5 206.0 184.75Q216.0 190.0 222.75 194.75Q229.5 199.5 229.5 201.5Q229.5 203.0 219.0 199.5Q208.5 196.0 193.5 189.5Q176.5 182.5 159.0 177.5Q141.5 172.5 127.5 171.5L97.5 169.0L124.0 152.0Q135.5 145.0 142.75 138.5Q150.0 132.0 149.5 130.0Q149.0 128.0 156.0 121.0Q163.0 114.0 173.0 106.5Q183.0 98.5 190.0 92.0Q197.0 85.5 196.5 85.0Q196.0 83.5 208.25 72.25Q220.5 61.0 238.0 46.5ZM441.0 100.0Q451.5 88.0 460.75 79.5Q470.0 71.0 471.0 71.0Q472.0 71.0 472.75 76.5Q473.5 82.0 473.5 89.5Q473.5 100.5 477.25 109.0Q481.0 117.5 489.5 128.0Q496.0 135.5 502.0 140.75Q508.0 146.0 516.5 151.5Q525.0 157.0 539.0 164.25Q553.0 171.5 575.5 182.0Q591.0 189.0 600.75 195.25Q610.5 201.5 608.5 202.5Q606.5 204.0 595.5 200.0Q584.5 196.0 570.5 189.0Q531.0 169.5 496.75 159.5Q462.5 149.5 436.5 149.5Q427.0 149.5 419.0 150.75Q411.0 152.0 404.0 155.0Q399.0 157.0 395.25 158.0Q391.5 159.0 389.0 159.0Q384.0 159.0 386.25 154.75Q388.5 150.5 398.0 142.5Q405.0 137.0 417.5 124.75Q430.0 112.5 441.0 100.0Z" fill="black" /></svg>