<svg xmlns="http://www.w3.org/2000/svg" width="495.0" height="389.5" viewBox="0 0 495.0 389.5"><path d="M106.0 141.0Q110.5 132.0 113.0 124.75Q115.5 117.5 115.0 117.0Q113.5 117.0 102.0 127.25Q90.5 137.5 76.0 152.5Q60.5 168.0 51.5 179.0Q42.5 190.0 46.0 190.0Q49.5 190.0 57.75 191.25Q66.0 192.5 74.5 193.5Q83.5 195.0 87.5 195.0Q93.0 195.0 93.75 191.75Q94.5 188.5 94.5 180.0Q94.5 173.0 97.75 161.5Q101.0 150.0 106.0 141.0ZM433.0 277.0Q433.0 274.0 429.75 264.5Q426.5 255.0 421.75 244.0Q417.0 233.0 412.5 224.75Q408.0 216.5 405.5 216.5Q402.0 216.5 395.75 220.0Q389.5 223.5 382.0 229.0Q373.0 235.5 355.75 245.75Q338.5 256.0 323.5 264.0Q308.0 271.5 298.0 277.5Q288.0 283.5 289.0 285.0Q290.0 285.5 303.25 284.5Q316.5 283.5 334.0 280.5Q351.5 278.0 372.5 277.25Q393.5 276.5 405.0 277.5Q410.5 278.0 415.25 278.25Q420.0 278.5 423.5 278.5Q433.0 278.5 433.0 277.0ZM240.0 34.5Q241.0 30.0 236.5 27.75Q232.0 25.5 219.0 25.0Q209.5 24.0 203.0 24.75Q196.5 25.5 196.5 26.5Q196.5 28.0 198.5 36.75Q200.5 45.5 204.0 57.0Q207.0 69.0 210.75 83.5Q214.5 98.0 215.5 106.5Q218.0 121.0 219.0 121.0Q220.0 121.0 222.25 112.5Q224.5 104.0 229.0 85.5Q233.0 67.5 236.25 52.5Q239.5 37.5 240.0 34.5ZM329.5 79.5Q331.0 75.5 327.25 73.75Q323.5 72.0 312.0 72.0Q299.5 72.0 296.5 73.75Q293.5 75.5 295.5 81.0Q297.5 85.0 299.5 93.25Q301.5 101.5 302.5 109.0Q306.5 127.5 310.0 127.5Q314.0 127.5 319.5 109.0Q322.5 100.0 325.0 91.5Q327.5 83.0 329.5 79.5ZM432.0 34.0Q428.5 31.5 422.25 30.25Q416.0 29.0 410.5 29.0Q406.5 29.0 403.5 29.75Q400.5 30.5 400.5 32.5Q400.5 34.0 403.25 42.75Q406.0 51.5 409.5 62.0Q413.0 72.5 416.0 80.25Q419.0 88.0 419.5 88.0Q420.0 88.0 423.0 80.5Q426.0 73.0 430.0 63.0Q436.0 47.0 436.25 41.75Q436.5 36.5 432.0 34.0ZM151.5 55.5Q162.5 39.5 167.0 39.5Q169.5 39.5 167.75 45.5Q166.0 51.5 159.0 63.0Q154.5 69.5 145.25 87.0Q136.0 104.5 127.0 121.5Q95.0 183.0 110.5 193.0Q113.0 194.0 114.25 197.75Q115.5 201.5 115.5 205.5Q115.5 209.5 124.0 218.0Q132.5 226.5 144.0 235.0Q161.0 246.5 174.75 258.25Q188.5 270.0 195.75 278.75Q203.0 287.5 200.5 290.5Q200.5 290.5 200.25 290.75Q200.0 291.0 199.5 291.0Q196.5 291.0 188.75 285.0Q181.0 279.0 171.0 270.0Q160.5 260.0 142.75 247.0Q125.0 234.0 110.5 225.0Q96.5 216.5 86.5 211.75Q76.5 207.0 66.5 204.75Q56.5 202.5 43.0 202.0L10.0 199.5L73.0 139.0Q90.5 122.0 106.75 105.0Q123.0 88.0 135.0 74.5Q147.0 61.0 151.5 55.5ZM219.0 11.5Q252.0 10.0 265.5 10.0Q278.5 10.0 281.75 11.25Q285.0 12.5 286.5 16.5Q288.0 23.5 274.5 23.5Q263.0 23.5 255.0 36.75Q247.0 50.0 240.0 80.5Q238.5 88.5 236.5 107.0Q234.5 125.5 232.25 149.5Q230.0 173.5 228.25 198.5Q226.5 223.5 225.5 245.0Q224.5 266.5 224.25 280.5Q224.0 294.5 225.0 295.5Q226.0 297.5 237.75 293.0Q249.5 288.5 265.0 282.0L301.0 265.0L303.0 213.0Q304.0 170.0 298.75 137.0Q293.5 104.0 282.0 84.0Q277.5 77.0 274.5 71.0Q271.5 65.0 271.5 63.0Q271.5 62.5 285.75 61.75Q300.0 61.0 319.5 61.0Q341.0 61.0 354.75 62.5Q368.5 64.0 368.5 67.0Q368.5 68.5 365.0 70.25Q361.5 72.0 357.0 72.0Q344.5 72.0 334.5 98.75Q324.5 125.5 317.5 175.0Q312.5 209.5 310.75 227.5Q309.0 245.5 312.0 250.75Q315.0 256.0 324.5 251.25Q334.0 246.5 352.0 235.5Q372.0 223.5 383.75 214.75Q395.5 206.0 401.5 197.5Q407.5 189.0 409.25 178.0Q411.0 167.0 411.0 150.0Q411.0 128.0 407.75 105.25Q404.5 82.5 399.25 64.75Q394.0 47.0 388.0 40.5Q380.0 30.5 379.75 26.25Q379.5 22.0 391.0 21.0Q402.5 20.0 428.5 21.0Q468.0 23.0 476.5 25.5Q485.0 28.0 468.0 32.5Q454.0 36.0 445.5 53.5Q437.0 71.0 430.0 109.0Q425.0 137.0 423.25 151.25Q421.5 165.5 423.5 169.75Q425.5 174.0 430.5 172.0Q441.0 167.5 435.0 178.0Q434.0 181.5 432.0 191.5Q430.0 201.5 429.0 211.5Q428.0 221.5 429.0 230.0Q430.0 238.5 434.5 249.0Q439.0 259.5 448.0 277.0Q457.0 294.0 462.0 307.5Q467.0 321.0 465.0 322.0Q463.0 323.0 460.0 320.5Q457.0 318.0 454.5 313.5Q440.5 287.5 384.0 287.5Q354.0 287.5 312.0 295.0Q292.0 298.5 265.5 305.75Q239.0 313.0 210.5 322.25Q182.0 331.5 156.0 341.25Q130.0 351.0 111.25 359.5Q92.5 368.0 85.5 373.5Q79.0 379.5 76.0 373.0Q74.0 370.5 73.5 368.0Q73.0 365.5 73.5 364.5Q74.5 364.5 95.0 355.75Q115.5 347.0 144.0 335.5L212.5 307.5V226.0Q212.5 193.0 210.25 161.5Q208.0 130.0 204.0 103.75Q200.0 77.5 194.75 59.25Q189.5 41.0 184.0 34.5Q171.5 21.5 178.25 17.25Q185.0 13.0 219.0 11.5Z" fill="black" /></svg>