<svg xmlns="http://www.w3.org/2000/svg" width="563.5" height="388.5" viewBox="0 0 563.5 388.5"><path d="M204.0 338.5Q195.0 332.0 193.0 332.0Q189.0 332.0 189.0 343.0Q189.0 354.0 193.0 354.0Q195.5 354.0 203.5 350.0Q210.5 346.0 210.75 344.5Q211.0 343.0 204.0 338.5ZM234.0 293.5Q235.0 291.0 234.0 287.25Q233.0 283.5 230.5 281.0Q225.5 276.5 224.0 276.75Q222.5 277.0 220.0 282.5Q217.0 289.5 217.0 294.5Q217.0 298.5 223.0 298.5Q230.0 298.5 234.0 293.5ZM125.5 159.5 104.5 154.0Q96.0 151.5 80.5 146.75Q65.0 142.0 52.0 137.5L20.5 126.5V185.0L43.0 179.0Q52.0 176.0 67.25 172.5Q82.5 169.0 95.5 166.0ZM250.0 233.0Q250.0 229.0 243.0 224.0Q238.0 220.0 236.75 221.25Q235.5 222.5 235.5 230.0Q235.5 236.5 237.5 238.5Q239.5 240.5 243.0 239.5Q250.0 236.0 250.0 233.0ZM337.5 244.0Q337.0 243.5 330.0 243.0Q323.0 242.5 313.25 242.0Q303.5 241.5 295.0 241.0Q286.5 240.5 283.5 240.5Q265.0 240.5 254.25 243.75Q243.5 247.0 235.0 254.5Q226.0 262.5 227.5 267.0Q229.0 271.5 241.5 280.0Q251.5 285.5 263.0 287.25Q274.5 289.0 301.0 289.0H344.5L341.5 266.5Q339.5 257.5 338.5 250.75Q337.5 244.0 337.5 244.0ZM362.5 211.0Q362.5 205.0 348.0 205.0Q338.5 205.0 336.75 206.5Q335.0 208.0 337.0 215.0Q339.5 225.0 343.5 230.0Q346.0 232.0 350.5 229.25Q355.0 226.5 358.75 221.25Q362.5 216.0 362.5 211.0ZM352.0 252.5Q353.0 247.5 352.0 241.0Q351.0 238.5 350.0 240.25Q349.0 242.0 349.0 247.0Q349.0 252.0 350.0 253.5Q351.0 255.0 352.0 252.5ZM174.0 33.5Q174.0 33.0 166.75 31.5Q159.5 30.0 151.75 28.5Q144.0 27.0 141.5 27.0Q138.0 27.0 137.75 29.0Q137.5 31.0 139.5 36.5Q141.5 41.0 144.75 56.0Q148.0 71.0 151.5 87.5Q157.5 116.5 159.5 116.5Q160.5 116.5 160.5 111.5Q160.5 104.5 163.0 91.0Q165.5 77.5 168.0 65.0Q171.0 52.5 172.5 43.25Q174.0 34.0 174.0 33.5ZM207.0 83.5Q205.5 71.0 202.0 58.5Q198.5 46.0 196.0 41.5L190.0 29.0L184.5 42.5Q178.5 58.5 174.5 79.5Q170.5 100.5 169.5 125.0L168.0 155.5L212.5 158.5V136.0Q212.5 127.0 211.0 111.5Q209.5 96.0 207.0 83.5ZM240.0 33.5Q240.0 30.0 234.0 28.5Q228.0 27.0 221.0 26.25Q214.0 25.5 211.0 25.5Q204.0 25.5 204.0 29.0Q204.0 32.5 208.0 44.0Q209.5 49.5 213.0 64.0Q216.5 78.5 219.0 92.5Q223.5 117.0 225.0 117.0Q225.0 117.0 226.0 111.5Q226.5 104.5 228.5 91.25Q230.5 78.0 233.5 66.5Q236.0 55.0 238.0 45.25Q240.0 35.5 240.0 33.5ZM535.0 38.5Q534.0 38.0 526.25 36.5Q518.5 35.0 508.5 34.0L484.5 30.5L493.5 53.5Q497.0 62.5 501.0 79.75Q505.0 97.0 507.0 111.5Q513.0 147.5 515.5 147.5Q517.0 147.5 517.0 131.5Q517.0 123.5 519.75 107.5Q522.5 91.5 526.0 76.0Q530.5 61.5 533.0 50.0Q535.5 38.5 535.0 38.5ZM177.0 15.5Q181.0 10.0 186.0 10.0Q187.0 10.0 188.5 10.0Q190.0 10.0 191.5 11.0Q195.5 12.5 206.25 14.0Q217.0 15.5 228.0 16.0Q239.0 17.0 246.75 18.0Q254.5 19.0 254.5 19.0Q254.5 20.0 252.0 30.5Q249.5 41.0 245.5 55.0Q242.0 69.5 238.5 90.25Q235.0 111.0 233.5 126.5L230.5 162.5H366.0Q409.5 162.5 436.25 162.25Q463.0 162.0 477.5 161.25Q492.0 160.5 497.25 159.5Q502.5 158.5 502.5 156.5Q502.5 153.5 501.25 140.5Q500.0 127.5 497.5 113.0Q493.5 82.0 487.0 63.25Q480.5 44.5 469.0 32.5Q465.0 28.0 462.75 24.5Q460.5 21.0 461.5 20.0Q462.5 19.0 470.5 19.25Q478.5 19.5 489.0 22.0Q499.0 24.0 512.0 25.25Q525.0 26.5 533.5 26.5H553.5L544.5 49.0Q539.0 65.5 533.75 89.0Q528.5 112.5 524.5 143.0Q522.5 155.5 523.5 159.0Q524.5 162.5 531.0 162.5Q540.0 162.5 540.0 167.5Q540.0 172.0 531.0 172.0Q526.0 172.0 522.75 181.25Q519.5 190.5 518.25 214.0Q517.0 237.5 516.0 281.0Q515.5 306.0 514.5 324.25Q513.5 342.5 511.5 343.0Q510.5 343.0 509.0 329.25Q507.5 315.5 506.0 294.0Q504.5 272.5 503.5 249.0Q502.5 225.5 502.5 206.0V172.0H232.0L230.5 182.5Q229.5 189.0 235.0 198.25Q240.5 207.5 250.0 215.5Q259.5 223.5 270.0 227.5Q277.0 230.0 286.75 231.5Q296.5 233.0 305.5 233.0Q315.5 233.0 322.5 231.5Q329.5 230.0 329.5 227.0Q329.5 220.5 323.0 212.75Q316.5 205.0 311.5 205.0Q309.5 205.0 307.75 203.25Q306.0 201.5 306.0 200.0Q306.0 198.0 316.0 196.75Q326.0 195.5 341.5 195.5Q355.5 195.5 366.0 196.5Q376.5 197.5 376.5 198.5Q376.5 200.5 374.25 207.75Q372.0 215.0 369.0 224.0Q365.5 234.0 362.5 256.25Q359.5 278.5 358.5 311.0Q358.0 339.0 355.75 358.75Q353.5 378.5 352.5 378.5Q351.0 378.5 349.5 375.0Q348.0 371.5 348.0 367.0Q348.0 361.0 345.75 358.5Q343.5 356.0 331.5 355.0Q319.5 354.0 291.0 353.5Q244.5 352.5 219.0 357.0Q193.5 361.5 185.5 371.5Q181.0 377.5 179.0 377.5Q174.0 377.5 177.0 348.5Q179.5 330.5 181.75 322.5Q184.0 314.5 188.5 314.5Q192.5 314.5 202.0 323.0Q207.0 328.0 214.75 333.25Q222.5 338.5 228.0 340.0Q232.5 341.5 244.0 342.75Q255.5 344.0 270.75 344.75Q286.0 345.5 300.5 345.5Q318.0 345.5 331.0 344.5Q344.0 343.5 345.0 341.5Q346.0 340.5 346.0 333.5Q346.0 326.5 345.0 318.5L342.0 299.0H293.5Q256.5 299.0 241.5 302.25Q226.5 305.5 226.5 314.5Q226.5 322.0 216.0 320.0Q211.5 320.0 208.5 318.75Q205.5 317.5 205.5 317.0Q209.5 296.5 212.0 274.0Q214.5 251.5 215.75 231.75Q217.0 212.0 216.0 200.0L214.5 170.0L166.5 167.0L163.5 188.5Q162.5 198.0 161.5 220.75Q160.5 243.5 160.5 266.0Q160.5 322.5 156.5 322.5Q154.5 322.5 153.0 303.25Q151.5 284.0 151.0 248.0L149.5 174.5L133.5 173.0Q126.5 172.5 112.0 174.25Q97.5 176.0 80.75 179.5Q64.0 183.0 49.5 186.75Q35.0 190.5 28.0 194.0Q17.0 199.0 13.5 199.0Q13.5 199.0 13.25 199.0Q13.0 199.0 13.0 199.0Q12.0 198.0 11.5 188.75Q11.0 179.5 10.5 166.75Q10.0 154.0 10.0 141.25Q10.0 128.5 10.5 120.0Q11.0 111.5 12.0 111.5Q17.5 111.5 33.0 120.5Q43.0 125.0 60.5 131.25Q78.0 137.5 96.75 142.75Q115.5 148.0 129.0 150.5L147.0 154.0V131.5Q147.0 114.5 143.5 94.0Q140.0 73.5 134.5 55.75Q129.0 38.0 123.0 30.5Q119.5 25.0 117.0 20.25Q114.5 15.5 115.0 14.5Q116.0 14.0 124.5 15.0Q133.0 16.0 144.0 18.5Q160.5 21.5 166.5 21.5Q171.0 21.5 173.0 20.0Q175.0 18.5 177.0 15.5Z" fill="black" /></svg>