<svg xmlns="http://www.w3.org/2000/svg" width="513.0" height="387.5" viewBox="0 0 513.0 387.5"><path d="M42.5 202.0Q39.0 197.5 35.25 193.75Q31.5 190.0 30.5 190.0Q30.0 190.0 28.75 200.0Q27.5 210.0 26.5 223.5Q25.5 237.0 25.0 247.75Q24.5 258.5 25.5 259.5Q26.0 260.0 28.75 258.25Q31.5 256.5 35.0 253.5Q38.5 250.0 45.0 245.0Q51.5 240.0 57.5 236.5Q70.5 229.0 71.25 225.0Q72.0 221.0 62.0 217.5Q52.5 214.5 42.5 202.0ZM122.0 235.5Q122.0 225.0 111.0 225.0Q100.5 225.0 84.0 235.5Q77.5 240.0 72.5 243.75Q67.5 247.5 67.5 248.5Q67.5 249.5 119.0 263.5Q129.0 265.5 130.25 264.25Q131.5 263.0 128.0 256.0Q126.0 252.0 124.0 245.75Q122.0 239.5 122.0 235.5ZM132.5 208.0Q132.5 200.5 131.0 200.5Q120.0 204.0 117.5 209.75Q115.0 215.5 125.0 215.5Q128.0 215.5 130.25 213.0Q132.5 210.5 132.5 208.0ZM176.0 262.0 174.5 227.5 156.5 226.0Q147.0 225.0 142.25 226.75Q137.5 228.5 135.5 232.0Q134.0 237.0 135.75 246.25Q137.5 255.5 141.5 262.75Q145.5 270.0 149.0 270.0Q151.5 270.0 154.75 273.5Q158.0 277.0 159.5 281.5Q162.0 286.0 165.5 289.75Q169.0 293.5 171.5 294.0Q175.0 295.0 176.0 288.25Q177.0 281.5 176.0 262.0ZM231.0 202.5Q225.5 197.5 220.75 193.75Q216.0 190.0 216.0 190.0Q215.5 190.0 214.25 199.25Q213.0 208.5 211.75 221.0Q210.5 233.5 210.0 243.0Q209.5 252.5 210.0 253.5Q212.5 253.5 221.5 249.5Q230.5 245.5 241.0 240.0Q251.5 234.5 259.5 230.0Q267.5 225.5 267.5 224.5Q267.5 223.5 264.25 221.5Q261.0 219.5 256.5 218.5Q251.5 217.5 244.0 212.5Q236.5 207.5 231.0 202.5ZM207.0 33.0Q206.5 32.0 200.25 31.25Q194.0 30.5 185.5 29.75Q177.0 29.0 169.25 28.5Q161.5 28.0 158.5 28.0Q143.0 28.0 144.5 31.5Q145.5 33.5 150.5 45.25Q155.5 57.0 161.0 71.5L174.5 106.0L183.0 80.5Q186.5 69.5 191.5 59.25Q196.5 49.0 200.0 45.0Q204.0 40.5 206.0 37.0Q208.0 33.5 207.0 33.0ZM433.5 154.0Q438.0 148.5 440.5 143.5Q443.0 138.5 442.5 138.0Q440.5 138.0 431.0 144.5Q421.5 151.0 409.5 159.5Q397.5 168.0 388.5 175.5Q379.5 183.0 378.5 185.5Q378.0 187.0 383.5 189.0Q389.0 191.0 396.75 192.25Q404.5 193.5 410.5 193.5Q416.5 193.5 418.5 192.0Q420.0 191.0 421.5 187.5Q423.0 184.0 423.0 179.5Q423.0 175.0 426.0 167.75Q429.0 160.5 433.5 154.0ZM126.0 13.0Q129.5 10.0 137.0 13.5Q140.5 14.5 155.25 16.25Q170.0 18.0 188.0 19.0L232.5 20.5L215.0 42.0Q206.5 53.0 201.0 63.0Q195.5 73.0 192.5 84.75Q189.5 96.5 188.25 113.5Q187.0 130.5 186.5 155.5Q186.0 180.0 186.0 192.25Q186.0 204.5 187.75 208.75Q189.5 213.0 192.5 214.0Q198.0 215.0 200.5 210.0Q203.0 205.0 204.5 190.0Q206.5 180.0 208.5 172.5Q210.5 165.0 211.5 165.0Q216.0 167.5 225.0 181.0Q232.5 192.0 240.75 199.0Q249.0 206.0 261.5 209.25Q274.0 212.5 294.25 213.5Q314.5 214.5 345.5 214.0Q378.5 213.0 393.25 212.25Q408.0 211.5 410.0 210.25Q412.0 209.0 405.5 206.5Q399.5 203.5 387.75 200.5Q376.0 197.5 366.0 196.0L340.5 192.0L355.5 184.0Q364.0 179.5 380.25 168.25Q396.5 157.0 415.0 143.25Q433.5 129.5 449.75 116.75Q466.0 104.0 474.0 96.0Q488.5 82.0 495.0 82.0Q498.0 82.0 497.0 86.25Q496.0 90.5 489.0 99.0Q470.0 122.5 458.5 137.5Q447.0 152.5 441.75 161.75Q436.5 171.0 435.25 177.75Q434.0 184.5 435.0 192.0Q438.0 212.0 452.0 222.0Q474.5 239.5 488.75 254.0Q503.0 268.5 503.0 274.0Q503.0 276.5 494.0 271.0Q485.0 265.5 471.5 253.0L440.0 224.5L363.0 226.0Q331.0 227.0 309.75 229.0Q288.5 231.0 273.5 235.25Q258.5 239.5 245.25 247.0Q232.0 254.5 216.5 266.5Q203.5 276.5 199.0 276.5Q192.0 276.5 197.0 252.0Q202.5 232.5 202.25 228.75Q202.0 225.0 195.0 225.0Q190.5 225.0 189.0 232.5Q187.5 240.0 187.5 263.5V302.5L224.0 326.5Q249.5 343.0 262.25 352.25Q275.0 361.5 279.0 366.25Q283.0 371.0 280.5 375.0Q279.0 377.5 277.0 377.5Q274.0 377.5 268.5 370.5Q265.5 367.0 254.5 358.75Q243.5 350.5 230.0 341.5Q216.5 332.5 205.25 326.0Q194.0 319.5 189.5 319.5Q187.5 319.5 186.5 321.0Q185.0 324.0 183.5 325.0Q182.0 326.0 181.5 325.5Q181.0 324.5 179.0 320.5Q177.0 316.5 174.5 313.0Q171.0 305.5 155.0 295.75Q139.0 286.0 118.0 276.75Q97.0 267.5 78.0 262.5L45.0 254.5L29.0 272.5Q23.0 278.5 18.25 282.5Q13.5 286.5 11.5 286.5Q11.0 286.5 10.75 286.25Q10.5 286.0 10.5 286.0Q10.0 285.0 10.5 276.25Q11.0 267.5 12.5 257.5Q14.5 247.5 16.75 228.75Q19.0 210.0 20.0 193.5Q23.0 155.5 28.5 155.5Q31.5 155.5 34.5 167.5Q37.0 176.5 46.0 187.75Q55.0 199.0 65.5 207.25Q76.0 215.5 83.0 215.5Q88.0 215.5 97.75 209.75Q107.5 204.0 118.5 195.5Q129.5 187.0 138.75 177.75Q148.0 168.5 152.0 161.5Q157.0 152.0 159.0 152.0Q160.0 152.0 161.0 156.0Q162.0 159.5 159.5 167.25Q157.0 175.0 153.0 183.0Q142.0 203.0 143.0 209.25Q144.0 215.5 157.5 215.5Q164.5 215.5 167.75 214.25Q171.0 213.0 172.0 207.25Q173.0 201.5 173.0 188.5Q174.0 178.5 174.0 166.0Q174.0 153.5 173.0 148.0Q172.5 136.5 166.75 117.0Q161.0 97.5 153.0 76.75Q145.0 56.0 136.5 42.0Q131.0 31.5 127.5 23.0Q124.0 14.5 126.0 13.0Z" fill="black" /></svg>