<svg xmlns="http://www.w3.org/2000/svg" width="665.5" height="307.0" viewBox="0 0 665.5 307.0"><path d="M57.5 200.0Q50.5 197.0 44.75 194.75Q39.0 192.5 38.0 192.5Q37.5 192.5 36.75 201.5Q36.0 210.5 36.0 224.0Q36.0 240.5 36.75 246.25Q37.5 252.0 40.5 252.0Q43.5 252.0 45.0 251.0Q48.5 249.0 66.0 244.25Q83.5 239.5 104.5 234.0L155.5 220.5L115.0 214.0Q98.0 211.5 81.25 207.25Q64.5 203.0 57.5 200.0ZM195.0 147.5Q193.5 140.5 191.5 134.5Q189.5 128.5 188.5 128.0Q183.0 128.0 172.5 141.0L158.0 155.5L172.5 159.0Q178.5 160.5 184.75 161.75Q191.0 163.0 194.0 164.0Q198.5 164.0 195.0 147.5ZM508.0 212.5Q505.5 207.0 502.25 198.25Q499.0 189.5 496.5 182.0L490.5 164.0L447.0 211.0L468.5 214.5Q478.0 216.5 488.0 218.5Q498.0 220.5 503.0 221.5Q508.5 223.0 510.5 223.0Q513.0 223.0 512.0 220.75Q511.0 218.5 508.0 212.5ZM223.0 54.5Q220.0 44.5 216.5 44.5Q212.5 44.5 196.5 57.5L180.0 72.0L203.0 77.0Q208.5 78.0 212.5 78.75Q216.5 79.5 219.0 79.5Q226.0 79.5 226.25 74.0Q226.5 68.5 223.0 54.5ZM302.5 146.5Q302.0 142.5 301.0 136.0Q300.0 129.5 298.5 124.0L295.5 109.5L276.0 124.0Q258.0 136.0 257.0 141.0Q257.0 141.5 263.5 144.0Q270.0 146.5 279.5 149.0Q292.5 152.0 297.5 152.0Q303.5 152.0 302.5 146.5ZM524.5 79.5Q524.5 70.0 520.5 70.0Q514.5 70.0 494.0 91.0Q482.0 103.5 476.0 111.75Q470.0 120.0 472.0 120.0Q474.0 120.0 476.5 118.0Q478.5 117.0 489.0 118.25Q499.5 119.5 512.0 122.5L544.0 128.5L534.0 109.5Q530.0 101.5 527.25 92.75Q524.5 84.0 524.5 79.5ZM228.0 18.0Q235.5 10.0 239.5 10.0Q246.5 10.0 238.0 31.0Q234.0 41.5 233.5 49.25Q233.0 57.0 236.5 69.0Q239.0 77.5 245.5 87.25Q252.0 97.0 259.5 103.75Q267.0 110.5 272.5 110.5Q275.0 110.5 282.0 105.0Q289.0 99.5 297.0 92.0Q305.5 84.5 312.5 80.5Q319.5 76.5 321.0 79.0Q324.0 83.5 319.0 86.5Q315.5 88.5 313.5 97.25Q311.5 106.0 311.25 117.75Q311.0 129.5 312.25 140.5Q313.5 151.5 316.25 159.0Q319.0 166.5 322.5 166.5Q324.5 166.5 334.25 174.25Q344.0 182.0 356.5 193.0Q370.5 205.0 377.75 210.5Q385.0 216.0 391.0 216.75Q397.0 217.5 407.0 216.5Q417.0 215.0 424.0 211.75Q431.0 208.5 440.25 200.0Q449.5 191.5 465.0 175.0Q480.5 158.5 491.75 147.0Q503.0 135.5 503.5 135.5Q504.5 135.5 505.25 142.75Q506.0 150.0 506.0 160.0Q506.0 187.5 521.0 210.5Q536.0 233.5 564.5 248.5Q581.0 257.5 596.0 268.0Q611.0 278.5 620.0 286.5Q629.0 294.5 626.5 297.0Q626.5 297.0 626.25 297.0Q626.0 297.0 625.5 297.0Q623.0 297.0 614.5 292.5Q606.0 288.0 596.0 281.5Q556.0 254.0 520.75 240.0Q485.5 226.0 459.0 226.0Q445.0 226.0 433.0 230.0Q424.0 233.0 416.75 233.75Q409.5 234.5 407.0 233.0Q406.0 232.0 393.75 231.0Q381.5 230.0 363.0 229.5Q344.5 229.0 324.75 228.75Q305.0 228.5 288.75 228.25Q272.5 228.0 265.5 228.0Q233.0 228.0 210.5 228.5Q188.0 229.0 171.5 230.5Q155.0 232.0 140.5 235.0Q118.0 240.0 96.25 246.0Q74.5 252.0 57.5 258.0Q40.5 264.0 31.5 269.5Q10.0 283.0 20.5 256.0Q23.0 250.0 24.5 235.75Q26.0 221.5 25.5 207.5Q25.0 194.0 25.0 182.75Q25.0 171.5 25.0 169.5Q25.5 167.5 29.0 169.5Q32.5 171.5 37.5 176.0Q43.0 181.0 53.25 186.25Q63.5 191.5 72.5 195.0Q81.0 197.5 97.5 200.25Q114.0 203.0 134.5 205.75Q155.0 208.5 175.5 210.75Q196.0 213.0 213.5 214.25Q231.0 215.5 241.0 215.5Q251.5 215.5 251.5 214.0Q251.5 211.5 243.75 205.5Q236.0 199.5 224.5 192.5Q213.0 185.5 201.25 179.75Q189.5 174.0 181.5 172.0Q169.5 169.0 162.0 169.0Q153.5 169.0 141.5 173.5Q134.5 177.0 128.75 178.5Q123.0 180.0 122.0 179.5Q121.0 178.5 128.75 169.5Q136.5 160.5 148.5 147.75Q160.5 135.0 173.25 122.5Q186.0 110.0 195.25 101.75Q204.5 93.5 206.5 93.5Q206.5 93.5 206.5 93.5Q206.5 93.5 206.5 93.5Q207.5 94.0 207.25 99.25Q207.0 104.5 205.0 111.0Q202.5 120.0 203.5 132.5Q204.5 145.0 208.25 156.25Q212.0 167.5 217.0 172.0Q237.5 189.0 249.75 198.25Q262.0 207.5 271.5 211.5Q281.0 215.5 292.25 216.5Q303.5 217.5 321.5 217.5H366.5L351.5 202.0Q340.5 190.5 322.75 180.25Q305.0 170.0 287.0 163.75Q269.0 157.5 256.5 157.5Q253.5 157.5 247.0 158.5Q240.5 159.5 234.25 160.75Q228.0 162.0 225.0 163.5Q220.5 165.5 217.5 165.5Q213.0 165.5 218.75 158.5Q224.5 151.5 238.5 141.0Q248.5 134.0 255.0 127.0Q261.5 120.0 260.5 118.0Q259.5 115.5 251.0 109.75Q242.5 104.0 231.0 98.0Q206.0 85.0 184.0 85.0Q176.0 85.0 168.0 86.75Q160.0 88.5 153.0 91.5Q146.5 94.0 145.0 94.0Q140.0 94.0 150.0 83.5Q160.0 73.0 181.5 57.0Q197.0 45.5 210.75 34.0Q224.5 22.5 228.0 18.0ZM524.5 43.0Q524.5 38.5 529.0 38.5Q531.0 38.5 532.5 45.0Q534.0 51.5 533.5 60.5Q533.0 75.5 538.5 92.0Q544.0 108.5 553.0 121.75Q562.0 135.0 572.0 140.5Q585.5 148.0 600.25 157.25Q615.0 166.5 627.75 175.25Q640.5 184.0 648.0 190.5Q655.5 197.0 654.5 198.5Q653.5 199.5 652.0 199.5Q645.5 199.5 638.0 193.5Q538.5 129.0 482.5 129.0Q464.5 129.0 452.0 135.5Q444.0 140.0 440.5 140.0Q432.0 140.0 479.5 92.5Q497.5 74.5 511.0 60.0Q524.5 45.5 524.5 43.0Z" fill="black" /></svg>