<svg xmlns="http://www.w3.org/2000/svg" width="716.5" height="381.5" viewBox="0 0 716.5 381.5"><path d="M153.0 257.0 128.0 246.5Q118.0 242.0 104.25 235.25Q90.5 228.5 81.5 223.5L59.0 210.5L54.0 223.5Q52.0 228.5 49.0 233.25Q46.0 238.0 43.5 240.5Q35.5 247.0 40.25 248.75Q45.0 250.5 70.5 251.0Q84.5 251.0 101.25 252.0Q118.0 253.0 128.0 254.0ZM644.0 329.0 642.5 297.5 573.5 279.0 573.0 301.5Q572.5 320.0 572.25 329.75Q572.0 339.5 574.5 343.5Q577.0 347.5 584.0 349.25Q591.0 351.0 605.0 354.0Q618.5 356.5 629.75 359.0Q641.0 361.5 642.0 361.5Q643.0 361.5 644.0 352.0Q645.0 342.5 644.0 329.0ZM150.0 87.0Q153.5 80.0 152.5 78.25Q151.5 76.5 144.5 76.5Q138.5 76.5 137.0 78.25Q135.5 80.0 136.5 85.5Q139.5 95.0 142.5 95.0Q146.5 95.0 150.0 87.0ZM217.5 137.0Q221.0 133.0 220.0 132.0Q219.0 131.0 212.0 131.0Q201.0 131.0 203.0 137.0Q205.5 144.0 209.0 144.0Q212.5 144.0 217.5 137.0ZM320.0 198.0Q317.5 194.0 314.5 194.0Q309.5 194.0 309.5 200.0Q309.5 206.5 315.5 204.0Q322.0 201.5 320.0 198.0ZM320.0 243.5Q318.0 240.0 315.0 240.0Q309.5 240.0 309.5 246.5Q309.5 251.5 315.5 250.5Q321.5 247.0 320.0 243.5ZM461.0 239.0 451.5 229.5Q443.5 219.0 439.5 219.0Q438.5 219.0 435.5 223.75Q432.5 228.5 430.0 234.0Q427.5 239.5 427.5 241.5Q427.5 241.5 432.5 241.25Q437.5 241.0 444.0 240.5ZM299.0 81.5Q301.0 74.5 298.5 73.5Q296.0 72.5 282.5 72.5Q267.5 72.5 265.0 74.5Q262.5 76.5 269.0 84.5Q271.5 87.5 274.75 93.0Q278.0 98.5 279.0 104.0L283.5 116.0L289.5 104.0Q292.0 98.5 295.0 92.0Q298.0 85.5 299.0 81.5ZM312.5 75.5Q315.0 72.5 309.5 72.5Q306.0 72.5 306.5 75.5Q309.5 77.5 312.5 75.5ZM318.0 111.0Q318.0 105.5 314.0 104.0Q312.5 103.0 311.0 104.0Q309.5 105.0 309.5 108.0Q309.5 114.5 314.0 114.5Q318.0 114.5 318.0 111.0ZM322.5 154.5Q322.5 153.0 315.5 150.5Q309.5 148.0 309.5 154.5Q309.5 159.5 315.5 158.0Q322.5 155.5 322.5 154.5ZM300.0 188.0Q300.0 165.5 299.75 146.75Q299.5 128.0 299.25 116.75Q299.0 105.5 298.5 105.5Q298.0 105.5 295.75 109.25Q293.5 113.0 291.0 118.5Q288.5 123.0 287.0 132.25Q285.5 141.5 285.25 159.25Q285.0 177.0 285.0 207.5V284.0L422.0 314.0Q476.5 325.5 506.0 332.0Q535.5 338.5 549.0 338.5Q559.5 338.5 562.75 334.5Q566.0 330.5 565.75 322.25Q565.5 314.0 564.5 301.5L563.0 276.0L522.0 264.5Q494.5 256.5 476.25 253.0Q458.0 249.5 445.5 249.5Q432.0 249.5 422.0 254.0Q416.5 257.0 413.25 258.75Q410.0 260.5 408.5 260.5Q406.5 260.5 406.5 254.0Q406.5 251.0 403.75 249.75Q401.0 248.5 392.0 248.5Q387.0 248.5 380.5 248.75Q374.0 249.0 365.0 249.5Q346.5 250.5 337.25 252.0Q328.0 253.5 323.75 255.75Q319.5 258.0 315.0 263.0Q311.5 266.5 308.5 269.5Q305.5 272.5 304.0 272.5Q303.0 272.0 302.0 260.25Q301.0 248.5 300.75 229.5Q300.5 210.5 300.0 188.0ZM468.5 114.5Q468.5 113.5 463.5 110.5Q458.5 107.5 451.5 105.0Q440.5 100.5 438.0 100.25Q435.5 100.0 437.0 104.0Q438.0 107.0 438.75 113.25Q439.5 119.5 439.5 126.0V140.0L453.5 128.0Q460.0 123.5 464.25 119.25Q468.5 115.0 468.5 114.5ZM594.5 163.5Q594.5 162.5 589.25 161.5Q584.0 160.5 576.0 160.5H557.0L564.5 174.0Q567.5 179.5 569.75 184.25Q572.0 189.0 572.0 189.5Q573.5 189.5 578.75 183.75Q584.0 178.0 589.25 171.5Q594.5 165.0 594.5 163.5ZM675.0 37.5 683.0 26.0H633.0L641.0 42.0Q644.5 48.5 647.0 56.5Q649.5 64.5 649.5 69.0Q649.5 80.5 652.5 80.5Q655.5 80.5 661.5 65.0Q664.0 59.0 667.75 50.75Q671.5 42.5 675.0 37.5ZM206.0 121.5Q218.5 121.5 230.25 120.5Q242.0 119.5 246.0 119.0Q255.0 119.0 255.0 123.0Q255.0 126.5 247.5 126.5Q244.0 126.5 237.5 131.5Q231.0 136.5 224.5 144.0Q218.0 151.5 213.5 159.0Q212.0 162.5 210.5 178.25Q209.0 194.0 209.0 212.0Q209.0 232.0 208.0 244.5Q207.0 257.0 204.5 257.0Q203.0 257.0 202.0 242.25Q201.0 227.5 201.0 203.0Q201.0 161.5 197.0 146.25Q193.0 131.0 181.5 131.0Q175.5 131.0 175.5 126.5Q175.5 125.5 184.5 123.75Q193.5 122.0 206.0 121.5ZM688.5 14.0Q692.5 10.0 698.5 10.0Q703.5 10.0 705.5 13.5Q706.5 15.0 704.75 17.5Q703.0 20.0 699.5 22.5Q691.5 27.0 680.75 46.25Q670.0 65.5 662.0 90.5Q659.0 100.5 657.25 109.75Q655.5 119.0 654.5 134.0Q653.5 149.0 653.25 174.5Q653.0 200.0 653.0 242.0Q653.0 289.0 653.5 316.0Q654.0 343.0 655.25 354.25Q656.5 365.5 658.5 366.5Q663.5 369.0 661.5 371.5Q657.5 371.5 631.25 366.25Q605.0 361.0 564.25 352.5Q523.5 344.0 474.5 333.5Q404.5 318.5 363.75 310.25Q323.0 302.0 304.75 299.25Q286.5 296.5 283.5 298.5Q276.0 303.5 276.0 297.0Q276.0 294.0 265.5 290.25Q255.0 286.5 230.75 281.25Q206.5 276.0 165.0 269.0Q139.0 265.0 112.25 262.5Q85.5 260.0 64.5 260.0Q50.5 260.0 40.75 261.0Q31.0 262.0 27.0 264.5Q21.0 267.5 18.0 267.5Q10.0 267.5 31.5 241.5Q40.0 231.5 44.75 222.75Q49.5 214.0 48.5 211.5Q48.0 208.5 47.25 204.5Q46.5 200.5 45.5 198.5Q45.0 196.0 46.5 193.5Q48.0 191.0 51.0 190.5Q58.5 189.0 58.5 195.5Q58.5 198.5 61.75 201.75Q65.0 205.0 75.75 210.75Q86.5 216.5 108.5 228.0L132.0 240.0L135.0 195.0Q139.0 139.0 133.5 107.75Q128.0 76.5 114.5 76.5Q108.5 76.5 108.5 72.5Q108.5 70.0 115.0 69.0Q121.5 68.0 131.0 68.0Q140.0 68.0 150.75 66.75Q161.5 65.5 166.5 63.5Q174.0 61.0 178.0 61.0Q182.5 61.0 186.5 63.5Q192.0 66.5 192.0 67.25Q192.0 68.0 188.0 68.0Q180.0 68.0 169.25 77.75Q158.5 87.5 153.0 100.5Q148.5 109.5 146.25 124.75Q144.0 140.0 143.0 172.5Q142.5 196.0 141.75 214.75Q141.0 233.5 140.0 236.0Q139.5 240.0 147.75 244.25Q156.0 248.5 177.5 255.5Q189.0 260.0 204.25 264.5Q219.5 269.0 234.25 273.0Q249.0 277.0 260.0 279.5Q271.0 282.0 274.5 282.0Q275.5 282.0 275.75 270.25Q276.0 258.5 275.75 238.75Q275.5 219.0 275.0 195.0Q275.0 158.5 273.75 136.5Q272.5 114.5 269.25 102.5Q266.0 90.5 259.75 84.75Q253.5 79.0 243.5 75.5Q238.0 73.0 234.0 70.75Q230.0 68.5 230.0 67.5Q230.0 66.5 241.0 65.5Q252.0 64.5 267.5 64.5Q283.0 64.5 300.0 62.75Q317.0 61.0 326.0 59.0Q332.5 57.5 336.75 57.0Q341.0 56.5 344.0 56.5Q350.0 56.5 352.5 59.0Q355.0 62.0 354.75 63.25Q354.5 64.5 349.5 64.5Q346.5 64.5 339.5 67.5Q332.5 70.5 325.5 75.5L309.0 87.0L320.0 96.5Q325.5 101.0 330.25 103.0Q335.0 105.0 344.75 105.5Q354.5 106.0 374.0 105.5Q401.0 105.5 411.25 105.5Q421.5 105.5 422.0 106.5Q422.5 107.5 418.5 110.0Q416.5 112.0 403.75 113.25Q391.0 114.5 375.5 114.5Q348.0 114.5 328.75 119.25Q309.5 124.0 309.5 131.0Q309.5 133.0 313.5 136.75Q317.5 140.5 324.0 144.0Q330.5 147.5 335.75 149.25Q341.0 151.0 352.0 151.0Q357.5 151.0 364.25 150.75Q371.0 150.5 380.0 150.0Q400.0 149.0 411.5 149.0Q423.0 149.0 423.0 151.5Q423.0 153.0 409.75 155.0Q396.5 157.0 378.0 158.0Q331.0 161.0 316.75 169.0Q302.5 177.0 323.0 189.5Q329.0 193.0 334.25 194.75Q339.5 196.5 350.0 196.5Q360.0 196.5 379.5 195.0Q400.0 194.0 411.5 194.25Q423.0 194.5 423.0 197.0Q423.0 199.0 409.5 201.0Q396.0 203.0 375.5 204.0Q328.0 206.5 314.75 215.0Q301.5 223.5 327.0 236.0Q335.5 240.0 345.75 240.75Q356.0 241.5 378.5 240.5Q395.5 239.5 404.0 238.25Q412.5 237.0 416.5 234.5Q420.5 232.0 423.5 227.0Q429.0 220.0 431.5 213.75Q434.0 207.5 435.0 198.0Q436.0 195.0 441.0 192.5Q444.5 191.5 445.25 193.25Q446.0 195.0 445.5 200.0Q444.5 205.0 447.75 210.75Q451.0 216.5 462.0 226.5Q488.5 250.5 552.5 264.0L566.0 266.0L564.5 224.0Q563.5 201.5 561.0 189.0Q558.5 176.5 552.75 170.25Q547.0 164.0 536.0 160.5Q527.5 156.5 528.5 153.5Q529.0 153.0 540.75 152.5Q552.5 152.0 569.0 151.5Q585.5 151.0 601.75 151.0Q618.0 151.0 627.5 151.5Q634.0 152.0 630.5 156.25Q627.0 160.5 620.0 160.5Q615.5 160.5 607.5 166.75Q599.5 173.0 591.75 181.75Q584.0 190.5 579.5 198.5Q573.0 211.0 574.5 240.5L576.0 270.5L610.5 280.5L645.5 289.5L644.0 178.5Q643.5 141.5 643.0 118.5Q642.5 95.5 641.5 82.25Q640.5 69.0 639.0 61.5Q637.5 54.0 635.0 48.0Q631.5 41.0 626.75 34.5Q622.0 28.0 619.5 26.0Q607.5 20.0 614.25 18.0Q621.0 16.0 647.0 17.0Q683.0 19.5 688.5 14.0ZM421.5 66.0Q423.0 62.0 424.5 63.0Q426.0 64.0 429.5 72.0Q433.0 79.5 441.5 87.0Q450.0 94.5 460.5 99.5Q471.0 104.5 479.5 104.5Q488.0 104.5 506.5 100.0Q525.0 95.5 556.5 86.0Q582.5 78.5 602.0 73.75Q621.5 69.0 625.0 69.0Q625.5 69.0 625.75 69.0Q626.0 69.0 626.0 69.0Q628.5 72.5 623.0 75.0Q621.0 75.5 601.0 81.75Q581.0 88.0 555.0 96.0Q538.0 100.5 522.0 105.75Q506.0 111.0 494.25 115.25Q482.5 119.5 478.5 121.5Q465.0 127.5 454.5 140.25Q444.0 153.0 444.0 162.5Q444.0 173.0 440.0 173.0Q438.5 173.0 436.25 164.5Q434.0 156.0 432.5 144.25Q431.0 132.5 431.0 122.0Q431.0 117.0 429.25 108.25Q427.5 99.5 425.0 91.5Q422.5 84.0 421.5 76.25Q420.5 68.5 421.5 66.0Z" fill="black" /></svg>