<svg xmlns="http://www.w3.org/2000/svg" width="748.5" height="460.0" viewBox="0 0 748.5 460.0"><path d="M105.0 315.0Q111.5 299.5 107.5 299.5Q104.0 299.5 81.5 313.0Q62.5 326.0 60.25 330.5Q58.0 335.0 71.0 337.5Q76.0 338.0 82.5 340.0Q89.0 342.0 93.5 344.0Q99.0 346.5 100.75 346.0Q102.5 345.5 101.0 341.0Q100.0 337.5 101.25 330.0Q102.5 322.5 105.0 315.0ZM93.5 154.0Q99.0 145.5 102.5 140.25Q106.0 135.0 105.0 135.0Q105.0 135.0 95.75 142.0Q86.5 149.0 72.5 158.5Q42.5 180.5 48.5 184.0Q52.5 186.5 57.25 187.75Q62.0 189.0 66.5 189.0Q72.0 189.0 76.0 187.25Q80.0 185.5 80.0 182.0Q80.0 178.5 84.25 170.25Q88.5 162.0 93.5 154.0ZM141.5 171.5Q146.0 158.5 142.5 158.5Q139.5 158.5 129.0 170.0Q119.5 179.5 119.25 181.5Q119.0 183.5 127.0 183.5Q139.0 183.5 141.5 171.5ZM133.5 203.5Q128.5 199.5 120.25 196.25Q112.0 193.0 104.75 191.25Q97.5 189.5 94.5 189.75Q91.5 190.0 96.0 193.5Q100.0 197.0 100.0 198.25Q100.0 199.5 96.0 200.5Q92.5 202.5 96.5 209.75Q100.5 217.0 113.5 231.0Q123.5 241.5 132.5 248.25Q141.5 255.0 145.0 255.0Q149.5 253.5 150.5 257.5Q151.5 261.5 149.75 267.0Q148.0 272.5 143.0 276.5Q139.0 279.5 133.5 287.5Q128.0 295.5 123.5 304.0Q119.0 312.5 117.0 318.75Q115.0 325.0 117.0 325.0Q119.0 325.0 127.5 320.0Q136.0 315.0 147.75 307.5Q159.5 300.0 172.0 291.5Q184.5 283.0 194.75 275.5Q205.0 268.0 209.5 263.5Q214.5 259.5 217.75 254.75Q221.0 250.0 221.0 248.0Q221.0 246.0 214.75 237.25Q208.5 228.5 199.5 219.0Q176.0 194.0 163.0 195.5Q153.5 195.5 153.0 196.0Q152.5 196.5 159.0 200.0Q168.5 204.0 163.5 204.0Q159.0 205.5 160.0 209.0Q161.0 212.5 166.0 220.0Q178.5 237.0 183.75 248.5Q189.0 260.0 185.0 260.0Q183.0 260.0 176.75 252.75Q170.5 245.5 163.5 236.0Q156.0 226.0 147.5 216.5Q139.0 207.0 133.5 203.5ZM181.5 311.5Q190.0 299.5 185.5 299.5Q181.0 299.5 157.5 313.0Q138.5 326.0 136.5 330.5Q134.5 335.0 147.0 337.5Q152.0 338.0 158.5 340.0Q165.0 342.0 169.5 344.0Q175.5 346.5 177.0 345.5Q178.5 344.5 176.0 336.5Q174.5 332.0 175.75 325.0Q177.0 318.0 181.5 311.5ZM259.5 295.0Q265.5 287.5 262.5 287.5Q257.5 287.5 231.5 305.0L204.5 322.5L226.0 327.5Q231.5 329.5 235.25 330.5Q239.0 331.5 241.5 331.5Q245.5 331.5 246.75 328.25Q248.0 325.0 249.5 318.5Q251.0 313.0 254.0 305.75Q257.0 298.5 259.5 295.0ZM197.0 164.5Q199.5 156.5 197.25 157.25Q195.0 158.0 181.5 169.5Q170.0 179.0 169.5 180.75Q169.0 182.5 177.0 184.0Q190.0 189.5 185.0 180.0Q184.0 177.5 185.0 175.25Q186.0 173.0 188.0 173.0Q192.0 173.0 197.0 164.5ZM234.0 190.0Q228.0 187.0 221.25 185.5Q214.5 184.0 209.0 184.0Q204.0 184.0 202.5 185.5Q201.0 187.0 205.0 189.5Q208.5 191.0 209.5 192.75Q210.5 194.5 208.0 194.5Q206.0 194.5 206.75 196.25Q207.5 198.0 210.0 200.0Q214.5 202.5 215.25 204.25Q216.0 206.0 212.0 206.0Q209.5 206.0 212.5 212.25Q215.5 218.5 222.0 229.0L239.5 252.5L224.5 269.0Q218.0 274.5 211.5 284.0Q205.0 293.5 201.0 300.5L193.5 316.0L215.5 303.5Q235.5 290.5 253.0 277.5Q270.5 264.5 281.75 254.25Q293.0 244.0 293.0 240.5Q293.0 238.0 287.0 231.25Q281.0 224.5 271.75 216.5Q262.5 208.5 252.5 201.25Q242.5 194.0 234.0 190.0ZM336.5 273.0Q336.5 271.0 333.5 271.0Q331.0 271.0 331.0 273.0Q331.0 276.0 333.5 276.0Q336.5 276.0 336.5 273.0ZM386.0 305.5Q367.0 294.5 355.5 289.25Q344.0 284.0 337.0 284.0Q326.0 284.0 318.5 301.5L309.5 319.5H335.0Q346.5 319.5 362.5 321.25Q378.5 323.0 390.5 325.0Q402.0 327.5 411.25 328.75Q420.5 330.0 420.5 328.5Q421.5 327.5 411.25 321.0Q401.0 314.5 386.0 305.5ZM620.5 319.5Q614.0 317.0 598.25 311.25Q582.5 305.5 561.75 298.25Q541.0 291.0 519.0 283.5Q497.0 276.0 477.0 269.5Q457.0 263.0 442.75 259.0Q428.5 255.0 424.0 255.0Q418.5 255.0 409.0 257.75Q399.5 260.5 389.75 264.5Q380.0 268.5 373.5 272.25Q367.0 276.0 367.0 278.5Q366.5 281.5 381.25 290.25Q396.0 299.0 420.0 311.0Q444.0 323.0 471.75 335.75Q499.5 348.5 526.0 359.25Q552.5 370.0 572.0 376.5Q599.0 384.5 620.25 391.5Q641.5 398.5 644.5 399.5Q648.5 401.0 650.0 394.5Q651.5 388.0 651.5 367.0V331.0ZM271.5 143.0Q276.0 137.5 278.75 133.5Q281.5 129.5 280.5 129.5Q279.5 129.5 270.0 135.5Q260.5 141.5 248.0 150.0Q224.0 166.0 223.75 172.25Q223.5 178.5 246.5 178.5Q259.5 178.5 259.5 167.5Q259.5 163.5 263.0 156.25Q266.5 149.0 271.5 143.0ZM409.5 162.0Q398.5 162.0 384.25 160.75Q370.0 159.5 361.0 158.5Q356.0 157.5 352.5 157.0Q349.0 156.5 346.5 156.5Q342.0 156.5 341.75 159.0Q341.5 161.5 342.5 167.5Q345.0 173.0 346.0 180.5Q347.0 188.0 347.0 192.5Q347.0 196.5 347.5 198.75Q348.0 201.0 350.5 201.0Q354.5 201.0 378.5 190.0Q391.0 184.0 404.0 177.25Q417.0 170.5 423.5 168.0Q433.0 164.0 430.75 163.0Q428.5 162.0 409.5 162.0ZM650.5 170.0 654.5 151.0Q656.5 137.5 655.0 131.25Q653.5 125.0 642.0 125.0Q632.5 125.0 614.75 129.0Q597.0 133.0 567.0 140.0Q545.0 145.5 521.5 151.75Q498.0 158.0 478.25 163.75Q458.5 169.5 447.5 173.0Q434.0 177.0 418.5 183.25Q403.0 189.5 389.25 195.75Q375.5 202.0 366.75 206.75Q358.0 211.5 358.0 212.5Q358.0 214.0 367.75 217.75Q377.5 221.5 390.5 226.0L425.5 238.5L537.5 204.0ZM651.5 319.5V251.5Q651.5 212.0 650.25 198.5Q649.0 185.0 641.0 185.0Q638.0 185.0 634.0 186.25Q630.0 187.5 624.5 189.5Q621.0 190.0 606.75 194.25Q592.5 198.5 572.5 205.0Q552.5 211.5 530.5 219.0Q508.5 225.5 490.25 231.75Q472.0 238.0 461.5 242.0Q451.0 246.0 451.0 247.0Q452.5 247.5 466.75 252.75Q481.0 258.0 500.0 264.0Q512.5 268.5 529.75 274.75Q547.0 281.0 565.5 287.5Q584.0 294.0 599.0 299.5ZM689.5 43.0Q694.5 36.5 697.25 31.5Q700.0 26.5 699.5 26.5Q699.0 26.5 688.5 27.75Q678.0 29.0 664.5 30.0L630.5 31.5L645.0 61.5Q651.0 73.0 656.0 81.75Q661.0 90.5 662.5 90.5Q666.5 90.5 671.5 75.5Q674.5 69.5 679.5 60.25Q684.5 51.0 689.5 43.0ZM703.0 15.5Q715.0 13.0 724.25 11.75Q733.5 10.5 735.5 10.0Q738.5 10.0 733.25 16.0Q728.0 22.0 717.5 31.5Q698.5 49.5 683.75 78.0Q669.0 106.5 665.0 135.5Q663.0 152.0 664.0 157.0Q665.0 162.0 670.5 162.0Q678.5 162.0 678.5 167.25Q678.5 172.5 670.5 176.5Q667.5 177.5 665.75 184.0Q664.0 190.5 663.25 206.25Q662.5 222.0 662.5 251.5Q662.5 291.0 664.25 308.25Q666.0 325.5 669.5 327.5Q674.0 329.5 674.0 330.75Q674.0 332.0 669.5 334.5Q666.0 335.5 664.25 349.25Q662.5 363.0 662.5 393.5Q662.5 419.5 661.0 434.75Q659.5 450.0 657.0 450.0Q655.0 450.0 653.25 444.5Q651.5 439.0 651.5 432.0Q651.5 421.0 649.0 416.0Q646.5 411.0 639.5 409.0Q636.0 408.0 621.0 403.5Q606.0 399.0 584.25 391.75Q562.5 384.5 537.5 376.5Q464.0 353.0 412.75 341.25Q361.5 329.5 331.0 329.5Q308.5 329.5 297.5 336.0Q293.0 339.0 290.0 339.0Q286.5 339.0 288.5 332.25Q290.5 325.5 298.5 314.5Q311.0 295.5 314.5 283.5Q318.0 271.5 310.0 262.5Q304.5 254.5 302.5 254.5Q300.5 254.5 292.0 265.0Q278.0 282.5 270.25 300.25Q262.5 318.0 262.5 329.5Q262.5 341.0 271.5 341.0Q274.0 341.0 274.75 342.75Q275.5 344.5 273.5 347.0Q272.5 348.5 278.25 355.25Q284.0 362.0 293.5 369.0Q312.0 382.5 326.25 395.5Q340.5 408.5 348.5 417.75Q356.5 427.0 354.5 430.0Q353.5 432.0 344.5 425.75Q335.5 419.5 324.0 409.0Q304.5 391.5 280.75 375.0Q257.0 358.5 236.25 346.75Q215.5 335.0 204.5 333.0L183.5 329.0L195.5 352.0Q199.5 361.0 204.0 367.5Q208.5 374.0 210.0 374.0Q212.5 374.0 220.5 380.25Q228.5 386.5 238.75 395.75Q249.0 405.0 258.5 414.75Q268.0 424.5 273.75 431.5Q279.5 438.5 278.5 440.0Q277.5 442.0 270.75 437.75Q264.0 433.5 256.0 425.0Q239.5 409.0 219.75 394.25Q200.0 379.5 180.75 367.25Q161.5 355.0 145.25 348.0Q129.0 341.0 120.0 341.0Q113.5 341.5 113.25 342.25Q113.0 343.0 119.5 348.5Q122.5 351.0 124.25 354.5Q126.0 358.0 126.0 360.0Q125.0 362.5 134.5 371.25Q144.0 380.0 157.0 390.0Q185.0 411.0 196.25 422.25Q207.5 433.5 204.5 437.5Q201.0 437.5 190.0 430.25Q179.0 423.0 166.0 412.0Q128.5 381.0 100.75 364.0Q73.0 347.0 48.5 341.0L19.5 335.0L41.5 325.0Q51.5 320.5 66.0 311.75Q80.5 303.0 95.0 293.25Q109.5 283.5 119.25 275.75Q129.0 268.0 129.0 266.0Q129.0 264.0 120.5 255.0Q112.0 246.0 100.0 234.75Q88.0 223.5 76.75 213.75Q65.5 204.0 60.0 200.5Q54.5 199.0 45.75 196.75Q37.0 194.5 28.5 194.5Q11.0 194.5 10.5 189.5Q10.0 184.5 27.5 175.0Q35.0 171.0 50.25 160.75Q65.5 150.5 83.5 137.5Q101.5 124.5 118.0 112.0Q134.5 99.5 145.25 90.25Q156.0 81.0 156.0 79.0Q156.0 77.5 157.75 76.25Q159.5 75.0 161.5 75.0Q170.0 75.0 166.5 84.25Q163.0 93.5 151.0 105.0Q144.0 111.5 133.75 123.25Q123.5 135.0 113.75 147.25Q104.0 159.5 97.5 168.75Q91.0 178.0 91.0 180.0Q91.0 181.5 92.5 181.5Q97.0 181.5 115.0 167.0Q133.0 152.5 161.0 126.5Q176.5 112.0 188.5 102.0Q200.5 92.0 202.5 92.0Q204.0 93.0 197.25 104.0Q190.5 115.0 179.5 131.0Q169.5 146.0 163.0 157.75Q156.5 169.5 157.5 170.0Q160.5 170.0 174.0 159.0Q187.5 148.0 205.0 131.0Q245.0 93.5 253.0 93.5Q258.0 93.5 246.0 110.0Q215.0 153.5 217.0 155.5Q219.5 155.5 229.75 149.0Q240.0 142.5 253.75 132.5Q267.5 122.5 281.25 112.0Q295.0 101.5 305.25 93.5Q315.5 85.5 318.5 83.0Q328.0 74.5 334.5 70.5Q341.0 66.5 343.5 66.5Q347.5 66.5 344.5 72.75Q341.5 79.0 330.0 90.5Q297.0 125.0 283.0 147.0Q269.0 169.0 271.75 185.5Q274.5 202.0 292.0 220.5Q300.0 228.5 308.25 234.0Q316.5 239.5 321.0 239.0Q325.0 238.5 328.0 240.0Q331.0 241.5 331.0 245.5Q331.0 257.5 344.0 257.5Q352.5 257.5 369.5 253.0L398.5 247.0L371.5 240.0Q361.5 237.0 351.25 236.0Q341.0 235.0 338.0 236.0Q334.5 238.0 332.75 236.75Q331.0 235.5 331.0 233.5Q331.0 231.0 328.0 229.25Q325.0 227.5 322.5 227.5Q314.5 227.5 315.0 223.0Q315.5 218.5 325.5 207.5Q332.5 200.5 334.25 194.0Q336.0 187.5 333.5 176.5Q332.5 167.5 328.75 160.5Q325.0 153.5 321.0 151.5Q312.0 146.0 316.5 137.5Q319.5 130.0 321.5 130.0Q323.0 130.0 329.5 136.5Q337.0 142.5 358.5 146.0Q380.0 149.5 409.0 149.5Q422.0 149.5 436.75 148.75Q451.5 148.0 467.0 146.0Q486.0 144.0 510.0 139.75Q534.0 135.5 558.25 130.25Q582.5 125.0 603.0 120.0Q623.5 115.0 636.0 110.5Q648.5 106.0 648.5 104.0Q648.0 82.0 632.5 59.0Q617.0 36.0 594.5 21.5Q585.0 16.0 599.0 16.0Q604.0 16.0 611.5 16.5Q619.0 17.0 630.0 18.0Q649.0 18.5 670.5 18.25Q692.0 18.0 703.0 15.5Z" fill="black" /></svg>