<svg xmlns="http://www.w3.org/2000/svg" width="717.5" height="383.0" viewBox="0 0 717.5 383.0"><path d="M76.0 311.0Q71.5 310.5 63.0 308.75Q54.5 307.0 47.5 306.0L31.0 303.5L34.0 329.0Q35.0 340.0 36.5 348.5Q38.0 357.0 38.5 357.5Q39.0 358.0 45.25 357.0Q51.5 356.0 58.5 354.0Q64.5 352.5 76.75 349.25Q89.0 346.0 105.0 341.75Q121.0 337.5 136.5 333.0L196.0 318.0L157.0 317.0Q127.5 316.0 112.25 315.25Q97.0 314.5 89.75 313.5Q82.5 312.5 76.0 311.0ZM188.5 79.5Q189.0 77.0 185.0 75.5Q181.0 74.0 175.5 74.0H162.0L176.5 116.0L182.5 101.0Q185.0 94.0 186.75 87.75Q188.5 81.5 188.5 79.5ZM217.5 98.0Q217.0 96.0 214.75 89.5Q212.5 83.0 209.75 77.0Q207.0 71.0 204.5 71.0Q201.0 71.0 196.5 85.25Q192.0 99.5 187.0 126.0Q185.0 137.0 183.0 158.25Q181.0 179.5 179.5 204.5Q178.0 229.5 177.5 252.25Q177.0 275.0 177.5 290.25Q178.0 305.5 180.0 306.5Q182.0 307.5 189.25 307.25Q196.5 307.0 205.0 306.0L225.0 303.0V210.5Q225.0 174.5 224.5 152.75Q224.0 131.0 222.25 118.5Q220.5 106.0 217.5 98.0ZM121.0 27.0Q121.0 26.0 112.5 25.25Q104.0 24.5 91.5 24.5H62.5L73.5 45.5Q78.0 54.5 82.5 64.25Q87.0 74.0 88.0 79.5Q90.0 91.0 94.0 91.0Q98.5 91.0 100.5 77.0Q102.5 71.5 105.75 62.25Q109.0 53.0 112.5 45.5Q116.5 38.5 118.75 33.0Q121.0 27.5 121.0 27.0ZM247.5 71.0Q247.5 70.5 243.5 70.0Q239.5 69.5 234.0 69.5Q222.5 69.5 221.25 74.75Q220.0 80.0 226.5 99.0Q231.0 111.5 234.0 111.5Q234.5 111.5 235.0 110.0Q247.5 75.0 247.5 71.0ZM346.0 29.0Q346.0 28.0 338.5 27.0Q331.0 26.0 319.5 27.0Q308.5 27.0 300.5 27.0Q292.5 27.0 292.5 27.5Q292.5 31.0 304.0 51.5Q308.5 60.5 311.75 69.0Q315.0 77.5 315.0 81.0Q315.0 88.0 317.5 88.0Q323.0 88.0 333.0 59.0Q337.5 47.5 341.25 38.5Q345.0 29.5 346.0 29.0ZM375.0 147.5Q367.0 141.5 361.25 137.0Q355.5 132.5 355.0 132.5Q354.0 132.5 350.0 139.0Q346.0 145.5 341.0 154.5Q336.0 163.5 332.25 170.75Q328.5 178.0 328.5 179.0Q328.5 179.5 343.25 180.0Q358.0 180.5 379.0 180.5L430.0 181.5L412.0 172.5Q404.5 168.5 393.75 161.25Q383.0 154.0 375.0 147.5ZM459.0 196.5Q443.5 193.5 421.0 191.75Q398.5 190.0 376.75 189.25Q355.0 188.5 341.5 189.5L320.5 192.0L319.0 242.0Q318.0 263.0 317.75 278.25Q317.5 293.5 318.0 294.5Q321.0 294.5 341.25 292.75Q361.5 291.0 393.0 287.75Q424.5 284.5 462.0 280.75Q499.5 277.0 536.75 273.25Q574.0 269.5 606.0 265.75Q638.0 262.0 658.0 259.5L682.5 256.5L583.0 228.0Q556.0 220.5 530.0 213.5Q504.0 206.5 485.0 201.75Q466.0 197.0 459.0 196.5ZM86.5 14.0Q103.5 13.5 116.5 12.75Q129.5 12.0 131.5 12.0Q135.5 10.0 134.0 17.25Q132.5 24.5 125.5 39.0Q114.5 61.0 107.75 83.5Q101.0 106.0 97.75 136.75Q94.5 167.5 93.0 214.5L89.5 303.0L123.0 306.0Q138.0 307.5 151.0 307.5Q160.5 307.5 164.5 306.5Q167.0 305.5 168.25 302.0Q169.5 298.5 170.25 288.5Q171.0 278.5 170.75 259.0Q170.5 239.5 169.5 207.5Q169.0 175.0 168.5 155.0Q168.0 135.0 167.0 123.5Q166.0 112.0 164.0 104.75Q162.0 97.5 158.5 90.0Q148.5 70.0 150.0 66.0Q151.0 65.0 167.0 63.75Q183.0 62.5 205.0 62.0L257.5 60.0L255.0 69.5Q254.0 74.0 250.5 89.25Q247.0 104.5 243.0 121.5Q240.0 137.5 238.0 152.25Q236.0 167.0 235.0 186.0Q234.0 205.0 234.0 233.0V304.5L266.5 301.5Q280.0 300.5 291.25 299.0Q302.5 297.5 305.5 297.0Q308.0 296.0 309.0 286.5Q310.0 277.0 310.25 253.25Q310.5 229.5 310.0 186.0Q309.5 147.5 308.75 124.75Q308.0 102.0 307.0 89.75Q306.0 77.5 304.0 70.75Q302.0 64.0 298.5 57.5Q294.0 50.5 289.0 43.0Q284.0 35.5 281.5 33.5Q269.5 24.0 277.5 20.5Q285.5 17.0 319.0 16.5H364.0L351.0 42.0Q342.0 60.0 334.75 81.0Q327.5 102.0 323.75 120.75Q320.0 139.5 320.5 151.5L322.0 171.0L352.0 109.5L367.0 126.5Q376.0 137.5 387.0 146.0Q398.0 154.5 416.75 163.0Q435.5 171.5 467.5 182.5Q499.5 193.5 549.75 208.5Q600.0 223.5 674.5 245.0Q688.0 249.0 697.75 253.0Q707.5 257.0 707.5 258.5Q707.5 263.0 706.0 263.0Q705.5 263.0 683.25 265.5Q661.0 268.0 624.0 272.0Q587.0 276.0 542.5 281.0Q509.0 284.5 477.0 288.0Q445.0 291.5 418.5 294.25Q392.0 297.0 373.75 299.0Q355.5 301.0 349.0 301.5Q326.0 303.5 293.5 309.25Q261.0 315.0 224.0 322.5Q187.0 330.0 150.25 339.0Q113.5 348.0 82.5 357.0Q64.0 362.5 49.25 367.0Q34.5 371.5 31.5 372.0Q28.0 373.0 26.75 366.5Q25.5 360.0 25.0 342.0Q24.5 327.5 22.75 316.5Q21.0 305.5 18.0 302.0Q10.0 292.5 22.5 292.5Q28.5 292.5 36.0 294.5Q42.5 296.5 51.25 297.75Q60.0 299.0 65.5 299.0Q72.5 299.0 75.75 298.0Q79.0 297.0 80.25 292.0Q81.5 287.0 82.5 275.0Q84.0 268.0 84.25 251.5Q84.5 235.0 84.5 212.75Q84.5 190.5 84.0 168.0Q83.5 140.0 83.0 122.75Q82.5 105.5 81.25 95.0Q80.0 84.5 78.0 77.25Q76.0 70.0 72.0 62.0Q68.5 52.5 62.75 43.25Q57.0 34.0 53.5 30.5Q50.0 28.0 47.25 24.25Q44.5 20.5 44.5 19.5Q44.5 17.5 56.75 16.0Q69.0 14.5 86.5 14.0Z" fill="black" /></svg>