<svg xmlns="http://www.w3.org/2000/svg" width="624.5" height="462.0" viewBox="0 0 624.5 462.0"><path d="M75.5 306.0 58.5 298.0Q52.0 294.0 44.25 289.25Q36.5 284.5 32.5 281.5L21.5 275.5V339.5L32.5 329.5Q36.5 325.5 44.5 320.75Q52.5 316.0 58.5 313.5ZM58.5 226.5Q53.5 225.5 50.5 224.75Q47.5 224.0 45.5 224.0Q42.0 224.0 41.25 225.5Q40.5 227.0 40.5 231.0Q40.5 237.5 50.0 237.5Q56.5 237.5 63.0 233.5Q70.5 230.0 58.5 226.5ZM325.0 307.0 310.5 299.0Q303.5 295.5 294.5 287.5Q285.5 279.5 278.5 271.5L262.5 252.0L257.0 280.0Q255.0 291.0 252.0 301.75Q249.0 312.5 248.0 316.0Q245.5 323.5 249.0 323.5Q250.0 323.5 252.0 323.25Q254.0 323.0 256.0 322.5Q261.0 321.0 272.75 318.5Q284.5 316.0 296.5 313.5ZM66.5 103.5 50.5 96.0Q44.0 93.5 37.0 89.75Q30.0 86.0 27.5 83.5Q26.0 82.0 24.5 82.0Q22.5 82.0 22.0 87.0Q21.5 92.0 21.5 104.0Q21.5 115.5 21.75 120.5Q22.0 125.5 24.0 125.5Q25.5 125.5 29.5 121.5Q33.0 118.5 40.0 114.5Q47.0 110.5 52.0 108.5ZM62.0 165.5Q53.0 162.0 47.5 162.0Q40.5 162.0 40.5 168.5Q40.5 173.5 42.75 174.25Q45.0 175.0 51.5 174.0Q55.5 172.5 60.0 171.75Q64.5 171.0 66.5 170.5Q69.5 170.5 62.0 165.5ZM268.5 84.0Q262.0 80.5 256.0 77.75Q250.0 75.0 248.5 75.0Q248.0 75.0 248.75 80.25Q249.5 85.5 251.5 92.5Q253.5 100.5 254.75 111.25Q256.0 122.0 256.0 129.5V147.5L270.5 137.0Q276.5 132.0 286.75 125.0Q297.0 118.0 305.0 113.0L324.0 100.5L306.0 97.0Q298.0 95.5 287.5 91.75Q277.0 88.0 268.5 84.0ZM558.5 165.0Q547.0 163.5 534.25 161.75Q521.5 160.0 516.0 158.5Q502.5 156.0 500.5 159.0Q498.5 162.0 506.0 173.0Q508.5 177.0 513.25 188.75Q518.0 200.5 521.5 213.5L529.5 243.5L539.5 224.5Q543.0 216.0 551.25 205.5Q559.5 195.0 567.5 187.5Q575.0 180.5 580.25 175.25Q585.5 170.0 585.5 168.5Q585.5 167.5 577.5 166.5Q569.5 165.5 558.5 165.0ZM533.0 28.0Q525.5 27.0 515.5 26.5Q505.5 26.0 499.5 24.5L483.5 21.0L498.5 38.0Q512.0 52.0 516.0 52.0Q518.0 52.0 523.0 47.0Q526.5 43.5 532.0 39.75Q537.5 36.0 541.0 33.5Q547.5 30.0 545.75 29.0Q544.0 28.0 533.0 28.0ZM11.5 309.5Q11.5 288.0 12.5 272.5Q13.5 257.0 14.0 257.0Q15.5 257.0 22.0 261.25Q28.5 265.5 35.0 271.0Q53.0 285.0 69.0 292.25Q85.0 299.5 106.5 302.25Q128.0 305.0 162.5 305.0Q190.5 305.0 209.0 306.25Q227.5 307.5 229.5 309.5Q232.0 314.5 156.5 314.5Q124.5 314.5 103.5 315.75Q82.5 317.0 69.0 320.5Q55.5 324.0 46.75 330.75Q38.0 337.5 30.5 348.0Q25.5 354.0 21.5 358.25Q17.5 362.5 15.0 362.5Q13.5 362.5 12.5 346.75Q11.5 331.0 11.5 309.5ZM33.0 213.0Q34.5 212.0 44.25 213.75Q54.0 215.5 67.5 219.0Q85.0 224.0 108.25 225.75Q131.5 227.5 168.0 227.5Q199.5 228.0 218.25 229.25Q237.0 230.5 237.0 233.0Q237.0 235.0 216.75 236.5Q196.5 238.0 161.0 238.0Q121.0 238.0 97.5 239.5Q74.0 241.0 61.0 244.5Q40.0 252.0 35.0 252.0Q33.5 252.0 32.5 246.5Q31.5 241.0 31.0 233.75Q30.5 226.5 31.0 220.5Q31.5 214.5 33.0 213.0ZM480.5 142.0Q480.5 141.0 483.0 141.0Q489.5 141.0 501.5 145.0Q510.0 147.0 524.5 149.75Q539.0 152.5 550.5 154.0Q588.5 158.0 601.5 160.5Q614.5 163.0 614.5 166.5Q614.5 171.0 607.5 171.0Q602.5 171.0 593.5 177.75Q584.5 184.5 574.5 194.75Q564.5 205.0 556.5 215.75Q548.5 226.5 546.0 234.5Q543.0 242.0 539.0 261.25Q535.0 280.5 530.5 306.25Q526.0 332.0 522.25 359.0Q518.5 386.0 516.0 408.5Q514.0 428.5 510.25 440.25Q506.5 452.0 503.0 448.5Q502.0 447.0 503.0 433.25Q504.0 419.5 507.5 401.0Q511.0 377.0 511.5 365.75Q512.0 354.5 509.75 351.25Q507.5 348.0 501.5 348.0Q498.0 348.0 474.75 343.0Q451.5 338.0 421.5 330.5Q399.0 325.0 384.5 322.0Q370.0 319.0 360.5 317.5Q351.0 316.0 343.0 316.0Q332.0 316.0 315.5 318.75Q299.0 321.5 282.75 325.75Q266.5 330.0 257.0 334.0Q248.5 337.5 242.25 339.5Q236.0 341.5 234.0 341.5Q234.0 341.5 233.75 341.5Q233.5 341.5 233.5 341.5Q233.0 340.5 234.25 332.5Q235.5 324.5 239.0 314.5Q241.5 303.5 245.25 287.0Q249.0 270.5 251.5 258.0Q253.5 246.0 256.0 237.0Q258.5 228.0 259.5 228.0Q262.0 228.0 265.25 233.0Q268.5 238.0 272.5 245.5Q282.5 265.0 302.5 279.75Q322.5 294.5 345.5 301.5Q353.5 303.5 369.25 307.75Q385.0 312.0 404.75 316.75Q424.5 321.5 443.5 326.0Q470.5 332.0 485.75 335.0Q501.0 338.0 508.0 338.0Q515.5 338.0 516.0 335.0Q517.0 333.0 518.5 320.75Q520.0 308.5 521.5 294.5Q524.0 264.5 516.25 230.25Q508.5 196.0 492.5 167.5Q487.5 159.0 484.0 151.25Q480.5 143.5 480.5 142.0ZM10.5 105.0Q10.0 88.0 10.5 76.5Q11.0 65.0 13.0 65.0Q14.5 65.0 19.5 67.75Q24.5 70.5 29.5 74.5Q53.0 90.5 82.0 97.25Q111.0 104.0 157.0 104.0Q185.0 104.0 201.0 105.25Q217.0 106.5 217.0 108.5Q217.0 110.5 196.5 111.75Q176.0 113.0 139.0 113.0Q110.0 113.0 93.75 113.25Q77.5 113.5 68.75 115.0Q60.0 116.5 54.5 119.0Q49.0 121.5 42.0 126.0Q35.0 131.0 28.5 136.0Q22.0 141.0 20.5 143.0Q18.0 147.0 16.5 147.0Q14.5 147.0 13.25 137.5Q12.0 128.0 10.5 105.0ZM30.5 167.5Q30.5 156.5 31.25 152.5Q32.0 148.5 35.0 148.5Q36.0 148.5 37.0 148.75Q38.0 149.0 39.5 149.5Q64.5 157.0 100.25 161.25Q136.0 165.5 175.5 165.5Q204.0 165.5 220.5 167.0Q237.0 168.5 237.0 171.0Q237.0 173.0 215.25 174.25Q193.5 175.5 156.5 175.5Q114.0 175.5 90.75 177.5Q67.5 179.5 56.5 183.0Q49.0 185.5 44.25 187.0Q39.5 188.5 37.0 188.5Q32.0 188.5 31.25 183.75Q30.5 179.0 30.5 167.5ZM451.5 12.0Q451.5 10.0 458.5 10.0Q461.0 10.0 463.25 10.0Q465.5 10.0 468.0 11.0Q473.0 11.5 485.5 12.75Q498.0 14.0 514.0 15.75Q530.0 17.5 546.0 19.0Q562.0 20.5 573.5 21.5Q585.0 22.5 588.5 22.5Q598.5 22.5 594.75 27.0Q591.0 31.5 579.5 33.5Q573.0 35.0 563.25 37.5Q553.5 40.0 546.5 43.5Q537.0 47.5 531.25 54.25Q525.5 61.0 522.25 74.75Q519.0 88.5 516.0 114.0Q514.5 125.5 512.25 133.75Q510.0 142.0 508.5 142.0Q504.5 142.0 504.5 126.25Q504.5 110.5 508.5 90.5Q511.0 82.0 511.0 76.25Q511.0 70.5 508.5 70.5Q506.5 70.5 484.0 73.75Q461.5 77.0 431.5 82.5Q401.0 87.5 379.0 92.75Q357.0 98.0 340.0 105.0Q323.0 112.0 307.75 121.5Q292.5 131.0 276.0 145.0Q266.5 153.5 258.25 159.5Q250.0 165.5 248.5 165.5Q248.0 165.5 247.0 158.5Q246.0 151.5 246.0 140.5Q246.0 130.5 244.0 113.75Q242.0 97.0 239.5 83.5Q235.5 63.0 235.5 57.25Q235.5 51.5 239.5 51.5Q246.0 51.5 246.0 55.5Q246.0 59.0 254.75 65.0Q263.5 71.0 276.25 76.5Q289.0 82.0 300.5 85.0Q308.0 87.0 320.5 87.0Q332.0 87.0 351.0 85.0Q370.0 83.0 402.0 78.0Q424.0 74.0 444.0 70.75Q464.0 67.5 477.5 65.25Q491.0 63.0 494.0 62.5L505.0 59.0L491.5 45.5Q486.0 40.0 478.25 33.5Q470.5 27.0 465.0 23.5Q460.0 20.0 455.75 16.5Q451.5 13.0 451.5 12.0Z" fill="black" /></svg>