<svg xmlns="http://www.w3.org/2000/svg" width="702.0" height="458.5" viewBox="0 0 702.0 458.5"><path d="M140.0 227.5Q114.0 220.0 98.5 216.5Q83.0 213.0 83.0 213.0Q84.0 221.0 84.0 227.0Q84.0 233.0 84.0 243.0V277.0L109.5 264.5Q116.5 259.5 129.5 254.75Q142.5 250.0 154.0 246.5Q165.5 244.0 172.75 241.5Q180.0 239.0 179.0 238.5Q178.0 238.5 166.5 235.25Q155.0 232.0 140.0 227.5ZM394.0 206.5Q400.0 194.5 404.25 185.5Q408.5 176.5 408.5 176.5Q408.0 176.5 397.75 184.75Q387.5 193.0 374.0 204.0L341.5 231.0L358.5 234.5Q366.0 235.0 372.5 236.75Q379.0 238.5 379.5 238.5Q379.5 237.5 383.5 228.25Q387.5 219.0 394.0 206.5ZM511.5 190.5Q519.5 180.5 516.5 180.5Q512.0 180.5 486.0 201.0Q461.0 222.0 458.25 227.75Q455.5 233.5 468.0 233.5Q473.5 234.0 480.0 234.75Q486.5 235.5 489.0 236.5Q491.0 236.5 493.75 230.5Q496.5 224.5 499.0 216.5Q501.5 209.0 505.25 201.0Q509.0 193.0 511.5 190.5ZM620.0 186.5Q624.0 180.5 627.0 176.25Q630.0 172.0 629.5 172.0Q628.0 172.0 617.75 180.0Q607.5 188.0 593.0 199.5L558.5 227.5L577.0 230.0Q582.5 231.0 586.5 231.75Q590.5 232.5 593.0 232.5Q599.5 232.5 602.0 228.25Q604.5 224.0 606.5 214.5Q608.0 208.5 612.25 200.75Q616.5 193.0 620.0 186.5ZM113.0 30.0Q112.5 29.0 99.75 28.5Q87.0 28.0 72.5 27.5Q57.0 26.5 43.75 25.5Q30.5 24.5 30.5 24.5L45.0 58.0Q48.5 65.5 53.25 79.5Q58.0 93.5 60.5 103.5Q62.5 111.0 64.75 120.25Q67.0 129.5 68.75 136.25Q70.5 143.0 70.5 143.0Q70.5 143.0 72.25 135.5Q74.0 128.0 76.5 118.0Q79.0 108.0 80.5 100.5Q83.0 90.5 88.25 77.25Q93.5 64.0 98.5 54.5Q104.0 45.5 108.5 38.0Q113.0 30.5 113.0 30.0ZM12.5 13.0Q14.5 10.0 20.0 10.0Q25.0 10.0 29.0 12.0Q35.0 13.0 52.25 14.25Q69.5 15.5 87.5 15.5Q106.0 15.5 119.5 16.25Q133.0 17.0 133.0 19.0Q133.0 21.0 129.0 27.5Q125.0 34.0 119.5 41.0Q104.5 61.0 94.5 89.25Q84.5 117.5 83.0 153.0L81.5 196.5L110.5 206.5Q152.5 220.5 185.5 228.0Q218.5 235.5 254.5 235.5Q273.5 235.5 288.25 236.75Q303.0 238.0 305.0 239.0Q308.0 243.5 301.5 243.5Q256.5 245.0 224.25 247.75Q192.0 250.5 168.5 255.25Q145.0 260.0 127.75 267.25Q110.5 274.5 96.0 285.5L82.5 295.5L84.0 372.5Q85.0 409.5 83.25 429.0Q81.5 448.5 78.5 448.5Q76.0 448.5 74.0 417.0Q72.0 385.5 70.5 330.5L65.0 185.5Q64.5 172.5 60.5 152.75Q56.5 133.0 50.5 111.25Q44.5 89.5 37.75 69.75Q31.0 50.0 25.0 36.75Q19.0 23.5 14.5 21.0Q10.0 16.5 12.5 13.0ZM455.5 118.5Q467.5 105.0 473.5 105.0Q478.0 105.0 471.0 114.0Q467.5 119.0 456.0 134.5Q444.5 150.0 431.0 167.5Q383.0 232.0 398.5 237.5Q402.0 238.5 402.0 240.5Q402.0 242.5 398.5 246.5Q395.0 251.5 398.25 257.5Q401.5 263.5 415.5 278.0Q426.0 289.0 434.75 300.0Q443.5 311.0 447.75 318.5Q452.0 326.0 449.0 326.0Q448.0 326.0 435.25 313.75Q422.5 301.5 405.5 284.5Q386.0 265.0 376.0 256.5Q366.0 248.0 359.25 245.75Q352.5 243.5 341.5 243.5Q319.0 243.5 316.0 238.75Q313.0 234.0 328.5 224.5Q334.0 221.5 346.75 211.75Q359.5 202.0 375.75 188.75Q392.0 175.5 408.25 161.75Q424.5 148.0 437.25 136.5Q450.0 125.0 455.5 118.5ZM565.0 118.0Q574.0 105.0 580.5 105.0Q584.0 105.0 584.0 109.5Q584.0 111.5 579.0 118.5Q574.0 125.5 567.0 134.0Q542.5 163.5 528.25 184.25Q514.0 205.0 509.5 220.25Q505.0 235.5 509.5 249.0Q512.5 256.5 517.25 264.0Q522.0 271.5 529.5 280.0Q572.5 326.0 556.0 326.0Q553.5 326.0 550.5 322.75Q547.5 319.5 545.0 316.0Q544.5 312.0 534.0 300.0Q523.5 288.0 509.5 275.5Q495.0 261.5 486.25 254.75Q477.5 248.0 469.5 245.25Q461.5 242.5 448.0 241.0L418.5 237.5L438.0 224.5Q446.5 219.0 461.0 207.75Q475.5 196.5 492.0 183.0Q508.5 169.5 524.0 156.25Q539.5 143.0 550.5 132.75Q561.5 122.5 565.0 118.0ZM655.5 132.5Q670.0 118.5 678.25 112.25Q686.5 106.0 689.5 106.0Q692.0 106.0 692.0 109.0Q692.0 109.5 685.75 117.25Q679.5 125.0 671.0 135.0Q647.5 163.5 634.25 183.5Q621.0 203.5 617.25 218.5Q613.5 233.5 618.25 246.25Q623.0 259.0 635.5 273.5Q646.5 285.0 654.75 297.25Q663.0 309.5 666.5 317.75Q670.0 326.0 666.5 326.0Q664.0 326.0 660.75 322.5Q657.5 319.0 654.5 314.5Q651.0 307.5 642.75 297.25Q634.5 287.0 624.0 276.5Q613.5 266.0 603.5 257.75Q593.5 249.5 587.5 246.5Q581.5 243.0 570.0 240.75Q558.5 238.5 548.5 238.5H525.0L538.0 229.0Q547.0 222.5 562.5 210.5Q578.0 198.5 595.5 184.0Q613.0 169.5 629.0 155.75Q645.0 142.0 655.5 132.5Z" fill="black" /></svg>