<svg xmlns="http://www.w3.org/2000/svg" width="674.0" height="456.0" viewBox="0 0 674.0 456.0"><path d="M64.5 307.5Q54.0 302.0 45.5 298.25Q37.0 294.5 36.0 294.5Q35.5 294.5 34.5 303.75Q33.5 313.0 32.5 327.5Q32.0 348.0 33.25 353.5Q34.5 359.0 39.5 357.5Q42.5 356.5 53.25 352.5Q64.0 348.5 75.5 345.0Q95.0 338.0 102.5 329.5Q110.0 321.0 97.0 321.0Q93.5 321.0 84.0 317.5Q74.5 314.0 64.5 307.5ZM126.0 211.0Q126.0 209.5 120.5 208.25Q115.0 207.0 108.0 207.0H88.5L106.0 251.5L116.0 233.0Q120.0 226.0 122.75 219.25Q125.5 212.5 126.0 211.0ZM159.0 252.0Q154.5 239.5 148.25 230.0Q142.0 220.5 139.5 220.0Q134.5 218.0 129.5 227.25Q124.5 236.5 121.0 251.75Q117.5 267.0 117.5 283.5V313.0L146.0 315.0L172.0 316.0V298.5Q172.0 285.5 168.0 274.75Q164.0 264.0 159.0 252.0ZM191.5 214.5Q191.5 213.5 186.0 213.0Q180.5 212.5 173.0 212.5H154.0L162.0 232.5Q165.5 241.0 169.75 248.5Q174.0 256.0 174.0 256.5Q175.0 256.5 177.75 251.0Q180.5 245.5 183.75 237.75Q187.0 230.0 189.25 223.25Q191.5 216.5 191.5 214.5ZM454.5 256.5Q457.0 252.5 456.25 248.75Q455.5 245.0 454.5 245.0Q453.0 245.5 445.25 252.0Q437.5 258.5 427.0 268.0Q416.5 277.5 406.0 287.5Q395.5 297.5 388.75 304.5Q382.0 311.5 382.0 313.0Q382.0 314.5 392.0 315.25Q402.0 316.0 416.0 316.0H450.5V292.5Q450.5 282.5 452.0 272.25Q453.5 262.0 454.5 256.5ZM168.0 111.5Q159.0 108.5 151.75 106.25Q144.5 104.0 143.5 104.0Q141.5 104.0 140.5 112.75Q139.5 121.5 139.5 133.5Q139.0 149.0 140.5 156.25Q142.0 163.5 148.5 163.5Q152.5 163.5 158.25 161.25Q164.0 159.0 172.0 155.5Q179.5 152.5 194.25 147.75Q209.0 143.0 222.0 140.5L253.5 135.0L221.0 128.0Q207.0 125.5 191.5 120.75Q176.0 116.0 168.0 111.5ZM630.5 35.5 639.0 22.5H544.5L558.0 45.0Q563.0 54.5 569.25 68.0Q575.5 81.5 578.0 90.0Q586.0 115.0 590.0 115.0Q593.5 115.0 599.0 97.5Q603.0 86.0 605.75 78.25Q608.5 70.5 614.0 61.0Q619.5 51.5 630.5 35.5ZM525.5 12.0Q526.5 11.0 541.0 10.5Q555.5 10.0 575.5 10.0Q595.0 10.0 615.0 10.5Q635.0 11.0 649.0 11.75Q663.0 12.5 664.0 13.5Q664.0 14.0 659.25 19.75Q654.5 25.5 647.0 34.0Q635.5 46.0 628.0 55.5Q620.5 65.0 616.5 77.25Q612.5 89.5 610.5 109.0Q608.5 128.5 607.75 159.5Q607.0 190.5 606.5 238.5Q606.0 287.0 606.0 316.25Q606.0 345.5 606.75 360.75Q607.5 376.0 609.25 382.5Q611.0 389.0 614.0 392.5Q622.5 402.5 618.5 402.5Q613.0 402.5 570.0 381.0Q558.0 375.5 541.25 368.25Q524.5 361.0 507.25 354.25Q490.0 347.5 476.0 343.0L426.0 327.0L304.5 327.5L181.0 329.5V388.5Q181.0 417.5 181.0 431.75Q181.0 446.0 178.5 446.0Q173.0 446.0 173.0 389.0Q173.0 360.5 172.5 345.75Q172.0 331.0 172.0 331.0Q165.0 332.5 154.5 334.75Q144.0 337.0 135.75 338.75Q127.5 340.5 127.0 341.0L113.5 345.0L117.0 390.0Q117.5 409.0 117.0 423.25Q116.5 437.5 114.0 439.5Q112.0 439.5 110.75 431.75Q109.5 424.0 109.5 412.5Q109.5 399.5 108.5 385.75Q107.5 372.0 106.0 365.5Q105.0 358.0 102.5 354.25Q100.0 350.5 94.5 350.5Q88.5 350.5 77.0 355.0Q65.5 359.5 46.5 368.5Q22.5 379.5 16.25 379.0Q10.0 378.5 16.5 365.5Q19.0 361.0 21.0 345.75Q23.0 330.5 23.0 314.0Q23.0 296.5 23.5 284.5Q24.0 272.5 24.5 272.5Q26.5 272.5 34.75 277.0Q43.0 281.5 53.5 288.5Q57.5 290.5 67.0 295.5Q76.5 300.5 86.25 304.75Q96.0 309.0 100.5 309.0Q104.0 309.0 104.25 304.5Q104.5 300.0 103.0 287.0Q101.5 276.5 96.0 259.25Q90.5 242.0 85.0 227.5Q79.0 214.5 75.5 204.25Q72.0 194.0 72.5 193.5Q73.5 193.0 83.5 193.5Q93.5 194.0 109.25 195.0Q125.0 196.0 142.75 197.5Q160.5 199.0 176.25 200.5Q192.0 202.0 202.25 203.25Q212.5 204.5 213.0 205.5Q213.5 206.0 210.75 210.75Q208.0 215.5 202.5 222.5Q197.0 230.5 192.0 244.25Q187.0 258.0 184.0 273.0Q181.0 288.0 180.5 300.0V316.0H267.5Q297.0 316.0 314.75 316.0Q332.5 316.0 344.0 313.75Q355.5 311.5 365.75 305.25Q376.0 299.0 389.5 287.25Q403.0 275.5 425.0 256.0Q442.0 241.0 458.25 224.5Q474.5 208.0 481.5 200.0Q486.0 193.0 489.5 189.75Q493.0 186.5 494.5 186.5Q497.5 186.5 495.75 194.0Q494.0 201.5 485.5 214.5Q471.0 239.0 464.5 262.25Q458.0 285.5 460.5 300.75Q463.0 316.0 474.5 316.0Q480.0 316.0 482.25 317.5Q484.5 319.0 483.0 321.0Q481.5 326.0 487.0 331.0Q488.5 332.5 499.25 337.5Q510.0 342.5 524.75 349.0Q539.5 355.5 554.25 361.75Q569.0 368.0 579.5 372.0Q590.0 376.0 591.5 376.0Q593.0 376.0 593.75 361.0Q594.5 346.0 594.75 322.25Q595.0 298.5 594.5 271.25Q594.0 244.0 592.75 218.5Q591.5 193.0 590.25 175.0Q589.0 157.0 587.0 152.5L580.5 133.5L439.5 135.5Q393.0 136.0 362.75 136.75Q332.5 137.5 312.25 139.0Q292.0 140.5 275.75 143.0Q259.5 145.5 240.5 150.0Q224.5 153.5 207.5 158.0Q190.5 162.5 176.75 166.5Q163.0 170.5 155.5 173.5Q143.5 177.5 134.25 180.25Q125.0 183.0 124.5 182.0Q123.5 181.0 124.25 173.5Q125.0 166.0 127.0 156.5Q129.0 146.5 129.25 132.5Q129.5 118.5 128.5 108.0Q127.5 97.0 127.0 89.75Q126.5 82.5 128.0 82.5Q129.0 82.5 140.0 87.0Q151.0 91.5 165.0 98.5Q179.5 104.5 200.0 110.75Q220.5 117.0 234.5 119.0Q243.0 120.5 263.0 121.75Q283.0 123.0 310.5 123.75Q338.0 124.5 368.75 125.0Q399.5 125.5 429.5 125.5Q457.5 125.5 482.5 125.25Q507.5 125.0 526.0 124.0Q544.5 123.0 552.5 122.0L577.0 119.0L570.0 98.5Q566.0 88.0 560.0 75.0Q554.0 62.0 547.75 49.75Q541.5 37.5 536.25 29.25Q531.0 21.0 528.5 19.5Q523.5 15.5 525.5 12.0Z" fill="black" /></svg>