<svg xmlns="http://www.w3.org/2000/svg" width="533.5" height="383.5" viewBox="0 0 533.5 383.5"><path d="M61.5 285.5Q52.0 280.5 44.75 277.0Q37.5 273.5 37.0 273.5Q37.0 273.5 37.0 284.25Q37.0 295.0 37.5 309.5Q38.5 324.0 39.75 334.75Q41.0 345.5 41.5 345.5Q42.5 345.5 47.0 343.5Q51.5 341.5 57.0 339.0Q62.5 336.0 78.25 331.75Q94.0 327.5 110.5 324.5Q127.5 321.0 139.75 318.25Q152.0 315.5 152.5 315.5Q153.0 314.5 143.25 312.0Q133.5 309.5 119.5 306.0Q105.5 302.0 88.5 296.0Q71.5 290.0 61.5 285.5ZM161.5 238.5 191.5 228.5Q183.0 226.0 172.75 223.0Q162.5 220.0 154.0 216.5Q148.5 214.0 144.0 210.75Q139.5 207.5 134.5 204.0V251.0Q134.5 251.0 141.0 247.0Q147.5 243.0 161.5 238.5ZM106.0 27.5Q106.0 27.0 95.75 26.0Q85.5 25.0 72.0 24.5L38.5 23.0L48.0 42.0L55.0 60.0Q55.5 61.5 58.25 71.0Q61.0 80.5 63.0 88.5L68.5 107.0L79.5 79.5Q84.0 68.0 89.5 56.75Q95.0 45.5 98.5 40.5Q101.0 36.0 103.5 32.0Q106.0 28.0 106.0 27.5ZM190.0 160.5 148.0 144.0 137.5 138.5Q137.5 138.5 139.0 144.25Q140.5 150.0 139.5 157.5L137.5 179.0L160.5 168.5ZM291.0 168.5Q292.0 165.0 284.5 165.25Q277.0 165.5 255.0 165.5Q242.5 166.0 228.0 165.5Q213.5 165.0 210.0 165.5Q184.5 169.5 172.25 173.0Q160.0 176.5 155.25 179.75Q150.5 183.0 146.5 187.5Q141.0 193.0 141.75 195.75Q142.5 198.5 151.0 204.0Q169.0 215.5 191.5 219.0Q214.0 222.5 249.0 222.5H293.5V201.5Q293.5 194.5 292.0 183.75Q290.5 173.0 291.0 168.5ZM382.5 210.5 346.5 203.0Q341.5 202.0 332.0 198.5Q322.5 195.0 314.0 191.25Q305.5 187.5 302.5 186.0Q302.5 199.5 302.5 213.25Q302.5 227.0 302.5 240.5Q308.0 238.0 319.0 231.75Q330.0 225.5 336.0 223.5Q350.5 219.0 359.5 216.75Q368.5 214.5 382.5 210.5ZM197.5 91.5Q197.5 91.5 189.75 89.75Q182.0 88.0 172.75 85.25Q163.5 82.5 158.5 80.0L139.0 70.5L140.5 87.0Q141.0 93.0 140.25 99.75Q139.5 106.5 139.5 106.5Q139.5 106.5 142.5 105.25Q145.5 104.0 147.0 103.5Q150.5 102.5 156.0 100.5Q161.5 98.5 166.5 97.5Q169.5 97.0 177.0 95.5Q184.5 94.0 191.0 92.75Q197.5 91.5 197.5 91.5ZM379.5 100.5 342.0 93.0Q326.5 89.5 315.25 82.75Q304.0 76.0 301.5 75.0Q301.5 82.0 302.0 86.5Q302.5 91.0 302.5 98.0V129.5L318.0 122.0Q324.5 118.5 333.75 115.0Q343.0 111.5 350.5 109.5ZM10.0 12.0Q10.0 10.0 14.5 10.0Q16.5 10.0 19.25 10.5Q22.0 11.0 25.0 12.0Q30.5 13.0 48.25 14.0Q66.0 15.0 85.0 15.0Q103.5 15.0 116.75 16.0Q130.0 17.0 130.0 18.0Q130.0 18.5 125.25 24.75Q120.5 31.0 113.5 39.0Q106.0 47.0 98.25 62.75Q90.5 78.5 85.0 96.0Q80.5 109.0 78.0 118.75Q75.5 128.5 74.25 139.75Q73.0 151.0 72.5 166.75Q72.0 182.5 72.0 207.5V280.5L107.5 291.5Q129.5 298.0 147.0 302.25Q164.5 306.5 183.5 308.5Q202.5 310.5 228.25 311.25Q254.0 312.0 292.5 312.0Q320.5 312.0 343.75 312.5Q367.0 313.0 381.75 314.25Q396.5 315.5 398.5 317.0Q402.0 319.0 403.0 320.25Q404.0 321.5 401.5 321.5Q370.0 321.0 331.25 321.0Q292.5 321.0 253.5 321.5Q214.5 322.0 181.5 324.0Q157.5 325.0 137.75 328.5Q118.0 332.0 111.0 333.0Q90.0 337.5 72.5 344.0Q55.0 350.5 44.5 356.75Q34.0 363.0 34.0 368.0Q34.0 371.0 32.25 372.25Q30.5 373.5 28.0 372.5Q26.0 372.0 24.5 369.25Q23.0 366.5 24.0 364.5Q25.0 361.5 25.75 343.75Q26.5 326.0 26.5 303.5L25.5 249.5L40.5 261.5Q47.5 266.5 54.75 271.25Q62.0 276.0 63.0 276.0L62.5 210.0Q62.5 59.0 23.5 27.0Q18.0 21.5 14.0 17.25Q10.0 13.0 10.0 12.0ZM127.5 114.0Q127.0 87.0 127.5 67.5Q128.0 48.0 129.0 48.0Q130.0 48.0 134.25 51.25Q138.5 54.5 143.5 59.0Q159.5 74.5 182.75 80.25Q206.0 86.0 245.5 86.0H293.5L292.0 72.0Q290.0 59.5 295.0 59.5Q299.0 59.5 310.0 69.0Q320.0 77.0 334.0 82.5Q348.0 88.0 373.75 90.75Q399.5 93.5 443.5 94.5Q477.5 95.0 494.5 96.25Q511.5 97.5 517.5 98.5Q523.5 99.5 523.5 100.5Q523.5 102.0 518.25 102.75Q513.0 103.5 497.75 103.75Q482.5 104.0 451.5 104.0Q415.5 104.0 390.25 107.75Q365.0 111.5 346.75 118.75Q328.5 126.0 313.5 137.0Q307.5 141.5 301.25 145.0Q295.0 148.5 293.5 148.5Q291.5 148.5 292.5 140.75Q293.5 133.0 293.5 122.0L294.0 96.0H255.0Q226.5 96.0 200.0 100.25Q173.5 104.5 156.5 111.25Q139.5 118.0 139.5 125.0Q139.5 127.0 147.5 132.0Q155.5 137.0 166.5 142.5Q179.5 148.0 188.5 151.0Q197.5 154.0 210.75 155.5Q224.0 157.0 248.5 157.5Q271.0 157.5 282.25 157.25Q293.5 157.0 297.5 158.0Q301.5 159.0 301.0 163.5Q299.0 181.5 342.5 193.75Q386.0 206.0 463.0 206.0Q495.5 206.0 507.25 207.5Q519.0 209.0 519.0 211.5Q519.0 212.5 513.75 213.5Q508.5 214.5 494.0 215.25Q479.5 216.0 451.5 216.0Q414.5 216.0 388.5 219.25Q362.5 222.5 343.5 229.25Q324.5 236.0 309.0 247.5Q302.5 252.5 298.25 255.25Q294.0 258.0 291.5 258.0Q288.5 258.0 289.0 247.5Q289.5 244.0 290.75 237.5Q292.0 231.0 292.0 231.0H252.0Q234.0 230.5 214.5 233.25Q195.0 236.0 177.5 240.75Q160.0 245.5 148.0 251.75Q136.0 258.0 133.5 264.5Q132.5 266.5 130.25 267.5Q128.0 268.5 127.0 267.5Q125.0 266.5 125.25 255.25Q125.5 244.0 125.5 230.0Q125.5 214.0 125.25 199.75Q125.0 185.5 126.0 183.5Q127.0 182.0 127.75 161.5Q128.5 141.0 127.5 114.0Z" fill="black" /></svg>