<svg xmlns="http://www.w3.org/2000/svg" width="604.0" height="360.5" viewBox="0 0 604.0 360.5"><path d="M46.5 246.0Q37.5 243.5 33.25 241.75Q29.0 240.0 22.0 233.5Q24.5 248.0 24.25 258.5Q24.0 269.0 22.5 285.0Q27.5 272.0 33.0 263.25Q38.5 254.5 46.5 246.0ZM232.5 213.0Q238.5 204.5 235.5 204.5Q231.5 204.5 211.5 220.0Q197.0 231.0 195.25 233.75Q193.5 236.5 200.5 239.0Q212.0 242.0 217.0 242.0Q225.5 242.0 225.5 232.5Q225.5 228.5 227.5 222.75Q229.5 217.0 232.5 213.0ZM326.0 271.5 306.5 267.5Q301.5 266.5 294.75 263.0Q288.0 259.5 283.25 256.25Q278.5 253.0 278.0 253.0Q277.5 253.0 277.25 263.25Q277.0 273.5 277.0 283.5Q277.0 293.0 276.75 303.5Q276.5 314.0 277.0 314.0Q278.0 314.0 283.5 308.0Q289.0 302.0 296.5 294.5Q304.0 287.0 310.0 283.0ZM79.5 137.0 54.0 136.5 65.0 151.0ZM100.5 94.5Q93.5 92.0 86.25 88.75Q79.0 85.5 74.5 79.0L77.0 117.5Q79.5 114.5 82.5 111.75Q85.5 109.0 88.0 106.0Q91.0 103.0 94.25 100.25Q97.5 97.5 100.5 94.5ZM125.5 149.5 145.5 136.0 115.0 136.5ZM267.0 89.5Q273.0 79.5 270.0 79.5Q267.0 79.5 245.5 95.0Q231.5 106.5 229.75 109.0Q228.0 111.5 235.0 114.0Q245.5 117.0 251.5 117.0Q260.0 117.0 260.0 109.0Q260.0 105.0 262.0 99.25Q264.0 93.5 267.0 89.5ZM308.0 132.5 309.0 157.5Q309.0 165.0 308.25 172.75Q307.5 180.5 307.0 188.0Q311.0 183.5 315.5 177.5Q320.0 171.5 324.0 167.5Q329.0 162.0 333.75 158.0Q338.5 154.0 343.5 149.0Q343.0 148.5 332.0 146.5Q321.0 144.5 308.0 132.5ZM577.5 23.5 549.0 26.0Q536.5 26.0 527.25 24.75Q518.0 23.5 518.0 23.5Q518.0 24.0 520.5 28.75Q523.0 33.5 525.0 38.5Q528.0 44.5 530.75 56.5Q533.5 68.5 536.0 82.25Q538.5 96.0 540.25 107.5Q542.0 119.0 543.0 124.0L548.0 102.0Q549.5 94.5 552.5 83.75Q555.5 73.0 559.25 63.0Q563.0 53.0 565.5 48.0Q568.5 40.5 573.0 32.75Q577.5 25.0 577.5 23.5ZM592.5 17.5Q594.0 19.0 588.25 29.0Q582.5 39.0 574.0 57.0Q565.5 75.0 559.5 100.5Q555.5 117.0 552.5 133.0Q549.5 149.0 549.5 163.5L548.5 265.0Q565.5 265.0 565.25 268.75Q565.0 272.5 548.5 272.5L548.0 296.0Q548.0 311.5 546.5 315.5Q545.0 319.5 543.0 319.5Q541.5 319.5 539.75 315.25Q538.0 311.0 538.0 296.0V272.5L358.5 272.0Q352.5 272.0 341.25 276.25Q330.0 280.5 317.0 289.0Q304.0 297.5 292.75 311.0Q281.5 324.5 275.5 343.0Q273.0 350.5 268.5 348.0Q265.5 346.0 267.0 317.5L269.0 285.0L242.5 268.5Q231.5 261.5 219.75 255.5Q208.0 249.5 202.5 249.0Q199.0 248.0 186.5 247.5Q174.0 247.0 156.75 247.0Q139.5 247.0 120.5 247.5L77.0 248.5Q62.0 249.0 53.25 254.75Q44.5 260.5 39.25 269.0Q34.0 277.5 30.75 286.25Q27.5 295.0 23.5 301.0Q14.5 308.5 13.5 303.75Q12.5 299.0 14.25 286.5Q16.0 274.0 15.5 260.0Q14.5 235.5 12.25 222.75Q10.0 210.0 16.5 210.5Q21.0 210.5 22.0 213.0Q23.0 215.5 24.5 219.75Q26.0 224.0 32.0 229.5Q35.5 232.5 40.75 234.25Q46.0 236.0 60.0 237.0Q74.0 238.0 103.0 238.0H168.0L189.5 225.0Q198.0 219.5 214.0 207.0Q230.0 194.5 244.0 183.5Q274.5 158.5 279.0 158.5Q283.5 158.5 270.0 174.0Q256.0 190.5 246.5 206.25Q237.0 222.0 234.5 232.25Q232.0 242.5 238.0 242.5Q242.0 242.5 241.0 249.0Q241.0 251.5 245.0 256.0Q249.0 260.5 255.0 264.5L268.5 273.5V246.5Q268.5 223.0 272.5 223.0Q275.0 224.0 275.5 227.25Q276.0 230.5 277.0 234.0Q280.0 243.5 289.75 249.5Q299.5 255.5 312.25 258.75Q325.0 262.0 336.25 263.0Q347.5 264.0 352.5 264.0H419.0L538.0 264.5L537.5 149.5H446.5Q412.5 149.5 392.75 149.75Q373.0 150.0 362.25 152.0Q351.5 154.0 344.0 159.5Q341.0 161.5 335.25 168.0Q329.5 174.5 323.0 182.5Q316.5 190.5 312.0 197.5Q307.5 204.5 307.5 208.0Q307.5 210.0 305.75 214.75Q304.0 219.5 301.0 219.5Q299.0 219.5 298.75 213.25Q298.5 207.0 299.5 193.0Q300.5 179.5 300.5 172.75Q300.5 166.0 298.5 162.25Q296.5 158.5 292.0 154.0Q280.0 141.5 259.75 132.75Q239.5 124.0 219.0 122.0L193.0 120.0L232.0 96.5L125.5 95.5Q112.5 95.0 102.5 103.25Q92.5 111.5 86.25 120.25Q80.0 129.0 77.0 130.5L100.0 130.0Q110.5 130.0 123.25 130.25Q136.0 130.5 147.5 131.0Q159.0 131.5 166.5 132.5Q174.0 133.5 174.0 135.0Q174.0 139.0 166.5 139.0Q163.5 139.0 155.5 141.0Q147.5 143.0 140.5 148.0Q137.0 150.5 132.0 152.25Q127.0 154.0 125.5 158.0Q122.0 166.5 122.25 176.25Q122.5 186.0 122.0 195.5Q120.5 234.0 117.5 234.0Q115.0 234.0 114.25 224.0Q113.5 214.0 114.5 191.0Q115.5 166.5 115.0 156.0Q114.5 145.5 111.0 143.0Q107.5 140.5 103.0 140.5Q90.0 140.5 76.0 153.5Q72.0 157.0 69.75 161.25Q67.5 165.5 67.0 173.25Q66.5 181.0 66.5 196.0Q66.5 211.5 65.25 220.5Q64.0 229.5 61.5 229.5Q58.0 229.5 58.0 187.5Q58.0 169.5 57.5 160.0Q57.0 150.5 53.25 145.5Q49.5 140.5 38.5 136.5Q33.5 134.5 36.25 130.75Q39.0 127.0 50.0 129.5L69.0 131.0L67.0 90.5Q66.0 72.5 67.5 62.5Q69.0 52.5 71.0 52.5Q73.5 52.5 76.5 63.5Q78.5 72.0 81.75 76.75Q85.0 81.5 93.75 83.75Q102.5 86.0 120.25 86.75Q138.0 87.5 168.5 87.5H244.0L264.0 71.5Q272.0 65.0 282.75 56.0Q293.5 47.0 300.0 40.5Q310.5 30.0 314.5 30.0Q316.0 30.0 316.0 32.0Q316.0 35.0 313.5 39.25Q311.0 43.5 307.5 46.5Q303.0 50.5 296.25 59.75Q289.5 69.0 283.25 79.25Q277.0 89.5 272.75 98.25Q268.5 107.0 268.5 110.5Q268.5 117.0 276.5 118.0Q279.5 118.0 280.25 118.75Q281.0 119.5 278.5 120.5Q264.0 126.0 286.0 137.0L298.5 144.0V124.0Q298.5 116.0 300.0 110.25Q301.5 104.5 303.0 104.5Q307.5 104.5 307.5 112.5Q307.5 117.5 313.5 123.75Q319.5 130.0 327.0 134.5Q334.5 139.0 339.0 139.0Q349.0 139.0 367.25 139.25Q385.5 139.5 407.5 139.75Q429.5 140.0 452.0 140.25Q474.5 140.5 493.5 140.5Q512.5 140.5 524.25 140.25Q536.0 140.0 536.5 140.0Q537.5 139.0 534.75 126.25Q532.0 113.5 529.0 98.0Q523.0 67.0 516.5 48.5Q510.0 30.0 501.5 23.0Q493.5 16.5 498.0 13.25Q502.5 10.0 518.0 11.5Q532.5 12.5 545.5 13.5Q558.5 14.5 574.0 13.0Q583.0 12.0 586.5 13.5Q590.0 15.0 592.5 17.5Z" fill="black" /></svg>