<svg xmlns="http://www.w3.org/2000/svg" width="932.5" height="456.5" viewBox="0 0 932.5 456.5"><path d="M139.5 337.5 117.5 327.5Q109.0 324.0 97.25 317.25Q85.5 310.5 78.0 305.0L60.5 292.5L50.5 325.0Q47.0 339.0 45.5 350.0Q44.0 361.0 44.5 362.0Q45.5 362.5 49.75 361.25Q54.0 360.0 59.0 357.5Q64.5 355.5 77.75 351.5Q91.0 347.5 105.0 345.0ZM153.0 143.0Q153.0 141.5 148.25 136.75Q143.5 132.0 136.5 126.5L120.5 115.0L115.0 135.5Q112.5 143.5 111.25 150.0Q110.0 156.5 110.5 157.5Q111.5 158.5 118.0 157.0Q124.5 155.5 132.75 152.5Q141.0 149.5 147.0 147.0Q153.0 144.5 153.0 143.0ZM290.5 203.5H272.5Q265.0 203.5 256.0 202.25Q247.0 201.0 241.5 199.0Q236.5 197.5 233.5 197.5Q229.0 197.5 232.5 206.5Q235.0 210.0 239.0 221.25Q243.0 232.5 247.0 243.5L256.0 269.5ZM426.5 206.5Q410.0 201.0 397.5 196.75Q385.0 192.5 384.0 192.0Q382.5 192.0 380.75 198.75Q379.0 205.5 377.25 214.5Q375.5 223.5 375.0 231.0Q374.5 238.5 376.0 240.0Q376.0 240.0 376.0 240.0Q376.0 240.0 376.5 240.0Q378.0 240.0 386.0 238.25Q394.0 236.5 404.0 233.5Q415.5 231.0 428.5 227.5Q441.5 224.0 448.0 222.5Q459.5 220.0 456.25 217.5Q453.0 215.0 426.5 206.5ZM754.5 172.0Q754.5 170.0 750.5 170.0Q748.5 170.5 737.75 176.5Q727.0 182.5 713.25 191.0Q699.5 199.5 688.0 207.0Q676.5 214.5 673.0 218.0Q670.0 220.5 665.0 223.0Q660.0 225.5 656.5 225.5Q653.0 225.5 659.75 228.75Q666.5 232.0 677.75 236.25Q689.0 240.5 700.0 243.75Q711.0 247.0 715.5 247.0Q718.0 247.0 719.75 242.5Q721.5 238.0 721.5 231.5Q721.5 224.5 726.0 214.25Q730.5 204.0 738.0 194.5Q754.5 176.5 754.5 172.0ZM826.0 154.5Q823.0 143.0 820.5 134.25Q818.0 125.5 816.0 125.5Q814.5 125.5 807.25 132.25Q800.0 139.0 789.75 149.75Q779.5 160.5 769.25 172.5Q759.0 184.5 750.5 195.5Q742.0 206.0 737.0 219.5Q732.0 233.0 732.0 242.75Q732.0 252.5 738.0 252.5Q740.0 252.5 740.75 255.25Q741.5 258.0 740.5 261.5Q738.5 265.0 744.75 273.25Q751.0 281.5 763.5 292.5Q780.5 307.0 796.0 323.0Q811.5 339.0 821.75 350.5Q832.0 362.0 832.0 365.0Q832.0 367.0 833.75 367.75Q835.5 368.5 837.5 368.5Q841.0 368.5 842.25 354.0Q843.5 339.5 842.75 315.5Q842.0 291.5 839.75 262.75Q837.5 234.0 834.0 205.75Q830.5 177.5 826.0 154.5ZM273.5 88.5Q278.5 81.0 281.75 74.0Q285.0 67.0 284.5 66.0Q284.0 64.5 276.75 63.75Q269.5 63.0 260.0 64.0L237.0 66.0L245.5 87.5Q249.5 96.0 252.75 102.25Q256.0 108.5 257.5 108.5Q259.5 108.5 263.75 103.0Q268.0 97.5 273.5 88.5ZM456.5 42.5Q456.5 37.0 453.5 37.0Q450.5 37.0 445.0 43.25Q439.5 49.5 433.0 60.5L419.0 85.0L439.0 87.5Q448.0 89.0 460.0 91.25Q472.0 93.5 481.5 96.0L502.5 100.5L480.0 73.0Q470.5 63.0 463.5 53.75Q456.5 44.5 456.5 42.5ZM876.5 87.0 887.5 65.0H803.0L812.5 78.5Q816.0 84.0 821.0 99.0Q826.0 114.0 829.5 130.0Q840.5 174.5 844.0 174.5Q847.5 174.5 855.0 146.5Q859.5 130.5 865.5 113.0Q871.5 95.5 876.5 87.0ZM443.0 325.0H401.0Q384.0 325.0 368.5 323.75Q353.0 322.5 347.5 321.5Q342.5 320.0 340.0 320.0Q335.0 320.0 335.75 325.75Q336.5 331.5 341.5 347.5Q344.0 355.0 346.5 362.75Q349.0 370.5 349.5 374.0Q351.0 378.0 353.0 378.0Q356.5 378.0 364.0 370.0Q369.5 365.5 382.5 357.0Q395.5 348.5 409.5 342.0ZM200.0 53.0Q201.0 52.0 210.5 51.5Q220.0 51.0 234.25 50.75Q248.5 50.5 263.5 50.5Q279.0 50.5 292.75 50.75Q306.5 51.0 315.25 51.5Q324.0 52.0 324.0 53.0Q324.0 55.0 320.25 58.0Q316.5 61.0 311.5 63.0Q306.0 66.0 297.25 75.5Q288.5 85.0 281.5 95.0Q275.0 105.0 271.5 113.25Q268.0 121.5 266.5 131.0Q265.0 140.5 264.5 155.5V192.0H290.5Q313.0 192.0 316.75 195.5Q320.5 199.0 307.0 207.0Q301.0 211.0 293.5 223.0Q286.0 235.0 279.25 250.5Q272.5 266.0 268.0 281.0Q263.5 296.0 263.5 306.0Q263.5 321.5 266.0 325.75Q268.5 330.0 280.5 332.0Q288.5 334.0 296.75 334.75Q305.0 335.5 311.5 335.5Q324.0 335.5 324.0 333.0Q324.0 332.0 322.25 327.0Q320.5 322.0 318.0 317.0Q311.5 302.5 315.25 300.25Q319.0 298.0 337.5 305.0Q350.0 309.5 371.0 311.5Q392.0 313.5 416.0 313.5Q444.0 313.5 471.75 310.75Q499.5 308.0 517.0 302.5Q546.0 293.0 573.5 286.0Q601.0 279.0 622.5 274.75Q644.0 270.5 654.0 270.5Q661.0 270.5 661.0 272.5Q661.0 275.0 654.75 278.0Q648.5 281.0 640.0 282.5Q634.5 283.0 620.0 286.5Q605.5 290.0 586.75 294.75Q568.0 299.5 548.0 305.0Q505.0 317.0 466.5 332.25Q428.0 347.5 400.25 362.75Q372.5 378.0 361.5 391.0Q355.5 398.0 350.5 402.75Q345.5 407.5 344.5 407.5Q343.5 406.0 341.75 397.25Q340.0 388.5 337.5 377.5L332.5 349.5L302.5 346.5Q289.5 345.5 279.5 344.75Q269.5 344.0 268.0 345.0Q266.0 346.0 264.75 359.75Q263.5 373.5 263.5 391.0Q263.5 411.0 261.75 423.25Q260.0 435.5 258.0 435.5Q255.5 435.5 254.0 422.0Q252.5 408.5 252.5 388.5V341.0H232.0Q218.5 341.0 198.0 342.75Q177.5 344.5 155.25 347.5Q133.0 350.5 113.75 354.0Q94.5 357.5 83.0 361.0Q71.0 364.5 57.25 371.5Q43.5 378.5 36.0 385.5Q27.5 393.5 21.25 398.0Q15.0 402.5 12.0 402.5Q10.0 402.5 10.0 400.0Q10.0 399.0 13.0 392.5Q16.0 386.0 20.0 378.5Q27.0 367.0 35.5 339.75Q44.0 312.5 50.5 279.0L53.5 264.5L74.0 285.0Q84.0 294.5 98.0 303.5Q112.0 312.5 126.5 318.5Q140.0 323.5 149.75 326.25Q159.5 329.0 169.0 330.5Q178.5 332.0 191.0 332.0Q203.5 332.0 222.0 331.5L253.5 330.5L250.0 304.0Q244.5 268.0 235.5 242.25Q226.5 216.5 213.5 203.5Q207.0 196.5 202.25 191.25Q197.5 186.0 197.5 184.5Q197.5 183.5 205.75 183.75Q214.0 184.0 225.5 185.5L252.5 188.0L251.5 169.0L250.0 151.0H211.0Q172.5 152.5 147.0 159.75Q121.5 167.0 107.0 182.0Q101.0 188.5 95.75 192.5Q90.5 196.5 88.5 196.5Q87.5 195.0 91.25 180.25Q95.0 165.5 100.5 145.5Q106.5 125.0 110.25 109.0Q114.0 93.0 114.0 89.5Q114.0 82.0 117.0 82.0Q122.5 82.0 131.0 99.5Q141.0 120.5 160.0 128.75Q179.0 137.0 212.5 135.5L251.5 134.0L242.5 106.5Q237.5 92.0 230.75 83.0Q224.0 74.0 215.5 67.5Q208.0 62.0 203.75 58.25Q199.5 54.5 200.0 53.0ZM777.0 55.0Q777.0 53.5 797.25 52.5Q817.5 51.5 846.0 51.5Q894.0 50.5 908.25 53.0Q922.5 55.5 906.5 62.5Q900.0 64.5 891.0 81.25Q882.0 98.0 873.5 122.75Q865.0 147.5 859.5 174.5Q856.5 190.0 854.75 203.75Q853.0 217.5 852.25 234.5Q851.5 251.5 851.75 275.5Q852.0 299.5 853.0 335.0Q854.5 396.0 853.75 421.25Q853.0 446.5 849.5 446.5Q843.0 446.5 843.0 410.0Q843.0 389.5 841.5 382.25Q840.0 375.0 835.0 375.0Q832.5 375.0 825.5 369.0Q818.5 363.0 812.5 355.0Q803.0 343.0 787.0 328.0Q771.0 313.0 752.25 297.75Q733.5 282.5 715.0 269.75Q696.5 257.0 682.25 249.25Q668.0 241.5 661.0 241.5Q657.5 241.5 648.75 239.75Q640.0 238.0 631.0 236.0Q619.0 232.5 615.75 230.25Q612.5 228.0 617.5 224.5Q620.0 223.0 615.25 222.25Q610.5 221.5 601.0 221.5Q585.0 221.5 559.0 223.25Q533.0 225.0 505.0 228.0Q477.0 231.0 454.5 234.5Q430.0 238.0 409.75 244.0Q389.5 250.0 376.75 257.0Q364.0 264.0 361.5 270.5Q361.0 273.0 358.5 274.25Q356.0 275.5 355.0 274.0Q352.5 272.0 353.25 266.75Q354.0 261.5 356.0 256.0Q359.5 250.0 362.0 236.25Q364.5 222.5 366.0 210.0Q368.5 186.5 370.25 177.0Q372.0 167.5 375.5 167.5Q378.5 167.5 386.5 175.5Q392.0 180.5 406.25 187.25Q420.5 194.0 435.5 199.0Q447.0 203.0 457.25 205.5Q467.5 208.0 480.75 209.0Q494.0 210.0 514.5 210.25Q535.0 210.5 567.0 210.0L663.0 209.0L726.0 171.0Q744.0 160.0 760.25 149.5Q776.5 139.0 788.0 131.0Q799.5 123.0 803.0 119.5L815.0 106.0L803.0 87.5Q798.5 79.5 793.0 72.25Q787.5 65.0 784.0 63.0Q781.5 62.0 779.25 59.5Q777.0 57.0 777.0 55.0ZM432.0 40.5Q438.0 27.5 443.75 18.75Q449.5 10.0 451.0 10.0Q453.0 10.0 455.5 14.0Q458.0 18.0 459.0 23.5Q460.5 28.5 471.0 43.25Q481.5 58.0 494.5 72.5Q505.0 83.0 514.5 91.25Q524.0 99.5 535.25 107.0Q546.5 114.5 562.5 123.25Q578.5 132.0 602.0 144.0Q623.0 154.5 640.25 164.0Q657.5 173.5 667.5 179.75Q677.5 186.0 677.5 187.5Q677.5 191.0 675.0 191.0Q671.5 191.0 657.5 184.5Q643.5 178.0 609.5 161.0Q488.5 100.5 433.0 100.5Q419.0 100.5 410.0 104.0Q401.0 107.5 395.5 107.5Q386.5 107.5 403.0 87.5Q409.0 80.5 417.5 67.0Q426.0 53.5 432.0 40.5Z" fill="black" /></svg>