<svg xmlns="http://www.w3.org/2000/svg" width="721.0" height="457.5" viewBox="0 0 721.0 457.5"><path d="M77.5 301.0Q74.5 301.0 67.5 298.0Q60.5 295.0 54.5 291.5L38.5 281.5V293.0Q38.5 298.0 37.5 305.75Q36.5 313.5 35.5 319.0L32.5 334.0L59.5 321.0Q80.0 311.0 84.5 306.0Q89.0 301.0 77.5 301.0ZM535.5 279.5Q533.0 272.5 530.25 267.5Q527.5 262.5 526.5 262.5Q526.0 263.0 518.5 269.0Q511.0 275.0 501.0 283.5L477.5 304.0L494.0 307.5Q500.0 308.0 513.5 313.25Q527.0 318.5 539.5 324.5Q552.5 330.5 562.0 334.75Q571.5 339.0 572.0 339.0Q573.0 339.0 569.0 332.5Q565.0 326.0 558.0 317.5Q551.0 308.5 544.5 297.25Q538.0 286.0 535.5 279.5ZM124.0 138.0Q124.0 134.0 117.0 131.5Q112.5 129.0 111.25 130.5Q110.0 132.0 112.0 136.0Q113.0 139.0 114.25 142.0Q115.5 145.0 115.5 146.0Q115.5 148.0 119.5 145.0Q122.0 144.0 123.0 141.75Q124.0 139.5 124.0 138.0ZM180.5 151.0Q172.5 141.0 166.75 137.5Q161.0 134.0 153.5 134.0Q144.5 134.0 139.25 136.75Q134.0 139.5 131.25 148.5Q128.5 157.5 127.25 176.0Q126.0 194.5 125.5 225.5L123.5 301.5L193.5 299.0V233.0Q193.5 209.5 193.25 195.75Q193.0 182.0 191.75 174.75Q190.5 167.5 187.75 162.5Q185.0 157.5 180.5 151.0ZM136.0 55.0Q132.5 54.0 128.0 52.0Q123.5 50.0 121.0 49.5Q115.5 46.5 115.5 64.0V81.5L129.0 72.5Q141.0 65.5 142.75 62.0Q144.5 58.5 136.0 55.0ZM202.5 147.5Q204.0 142.0 202.5 140.0Q201.0 138.0 195.5 138.0Q189.5 138.0 188.75 139.75Q188.0 141.5 191.5 147.5Q196.0 157.0 197.5 157.0Q200.0 157.0 202.5 147.5ZM334.5 232.0Q325.5 229.5 316.25 226.5Q307.0 223.5 302.5 222.5Q299.0 221.0 296.0 221.0Q292.0 221.0 292.0 228.0Q292.0 231.5 291.0 237.0Q290.0 242.5 289.0 247.0Q287.0 255.0 289.0 255.5Q291.0 256.0 306.5 251.0Q315.0 248.5 325.5 245.5Q336.0 242.5 342.0 241.0Q353.5 238.5 352.5 237.25Q351.5 236.0 334.5 232.0ZM319.0 146.0Q320.0 145.0 318.75 140.75Q317.5 136.5 315.0 131.5L308.5 118.5L286.5 142.0L301.5 145.0Q308.5 146.0 313.5 146.25Q318.5 146.5 319.0 146.0ZM389.5 69.5Q391.5 62.0 385.0 62.0Q380.0 62.0 378.5 66.25Q377.0 70.5 382.5 73.5Q385.0 75.0 389.5 69.5ZM437.5 77.5Q431.0 69.0 427.5 65.75Q424.0 62.5 420.0 62.5Q418.5 62.5 416.25 63.0Q414.0 63.5 411.5 64.5Q403.0 67.5 398.75 75.0Q394.5 82.5 393.5 101.25Q392.5 120.0 392.5 158.5V234.0H449.5V163.5Q449.5 138.0 449.25 123.5Q449.0 109.0 447.75 101.25Q446.5 93.5 444.25 88.5Q442.0 83.5 437.5 77.5ZM459.0 68.5Q459.0 66.5 451.5 66.5Q448.5 66.5 447.5 68.25Q446.5 70.0 447.0 71.0Q448.5 73.5 452.5 73.5Q455.0 73.5 457.0 72.0Q459.0 70.5 459.0 68.5ZM531.0 67.0Q531.0 63.0 523.0 59.5Q519.5 58.5 518.25 59.25Q517.0 60.0 518.0 62.5Q519.0 66.0 522.0 68.25Q525.0 70.5 527.5 70.5Q531.0 70.5 531.0 67.0ZM631.5 38.0Q631.5 36.0 624.5 34.25Q617.5 32.5 607.5 31.5Q598.0 31.5 591.0 31.75Q584.0 32.0 584.5 33.0Q588.5 40.5 595.0 50.5Q601.5 60.5 606.75 68.0Q612.0 75.5 613.0 75.5Q616.0 75.5 620.0 62.0Q621.5 56.0 623.25 50.75Q625.0 45.5 627.0 45.0Q631.5 42.0 631.5 38.0ZM108.0 19.5Q110.5 12.0 113.5 12.0Q118.0 12.0 120.5 25.0Q121.0 28.5 125.75 34.25Q130.5 40.0 136.0 44.0Q140.5 47.5 145.75 49.75Q151.0 52.0 161.25 53.0Q171.5 54.0 190.75 54.5Q210.0 55.0 242.5 55.5Q288.5 57.0 313.25 56.0Q338.0 55.0 339.0 53.0Q340.5 50.5 358.0 50.5Q363.5 50.5 377.0 51.25Q390.5 52.0 407.75 53.0Q425.0 54.0 441.5 55.25Q458.0 56.5 469.25 57.5Q480.5 58.5 482.5 59.5Q483.5 60.0 480.25 63.75Q477.0 67.5 472.0 72.5Q467.0 77.0 464.5 81.0Q462.0 85.0 460.75 93.0Q459.5 101.0 459.25 116.5Q459.0 132.0 459.0 159.5V234.0L486.0 231.0Q496.5 229.5 502.0 229.5Q511.5 229.5 511.5 233.0Q511.5 239.0 508.5 239.0Q448.5 242.0 410.5 244.75Q372.5 247.5 349.5 250.75Q326.5 254.0 313.0 258.5Q299.5 263.0 289.0 270.0Q282.5 274.5 276.75 277.5Q271.0 280.5 269.5 280.5Q269.0 279.5 270.75 272.75Q272.5 266.0 276.0 257.5Q279.5 247.5 280.25 236.75Q281.0 226.0 280.0 216.5Q278.5 206.0 280.25 199.0Q282.0 192.0 284.0 192.0Q287.0 192.0 289.0 199.5Q291.0 204.5 301.5 210.25Q312.0 216.0 327.75 220.5Q343.5 225.0 360.5 227.5L382.5 230.5V216.0Q382.5 206.0 377.75 200.0Q373.0 194.0 354.5 182.0Q314.5 154.0 288.0 154.0Q281.5 154.0 275.0 156.5Q268.5 159.5 265.0 159.5Q260.0 159.5 262.25 153.75Q264.5 148.0 274.0 139.5Q281.0 134.0 289.5 124.75Q298.0 115.5 304.0 107.5Q316.0 91.0 320.5 91.0Q324.5 91.0 322.0 107.0Q320.5 116.5 322.5 124.0Q324.5 131.5 332.0 143.0Q337.5 151.5 347.5 161.75Q357.5 172.0 367.0 179.25Q376.5 186.5 380.5 186.5Q381.5 186.5 382.0 171.5Q382.5 156.5 382.0 135.5Q381.0 114.0 380.0 100.5Q379.0 87.0 374.0 79.75Q369.0 72.5 356.75 69.75Q344.5 67.0 321.25 66.75Q298.0 66.5 260.0 66.5Q222.5 66.5 201.5 66.5Q180.5 66.5 169.75 67.5Q159.0 68.5 153.25 70.5Q147.5 72.5 141.5 76.5Q135.0 81.5 127.0 89.0Q119.0 96.5 115.0 102.0Q104.5 114.5 110.75 119.25Q117.0 124.0 143.5 124.0Q158.0 124.0 174.0 124.75Q190.0 125.5 203.75 126.75Q217.5 128.0 226.0 130.0Q234.5 132.0 234.5 134.0Q234.5 138.0 229.5 138.0Q228.0 138.0 223.75 141.0Q219.5 144.0 215.5 147.5Q211.0 152.0 209.0 158.25Q207.0 164.5 206.25 180.25Q205.5 196.0 205.5 229.0V301.0H463.0L486.5 283.0Q496.0 275.0 504.25 267.5Q512.5 260.0 515.5 257.5Q518.0 253.5 519.75 232.25Q521.5 211.0 521.5 170.5Q522.0 137.5 521.0 116.5Q520.0 95.5 517.0 83.5Q514.0 71.5 507.75 65.25Q501.5 59.0 491.5 55.0Q477.5 49.0 484.5 46.0Q491.5 43.0 510.0 48.0Q518.0 49.5 528.5 50.75Q539.0 52.0 546.0 52.0H562.0L533.5 75.0L531.5 150.0Q531.0 191.5 531.75 209.25Q532.5 227.0 536.0 229.0Q541.5 232.5 536.5 241.5Q531.5 250.5 543.5 275.0Q555.5 299.5 580.0 329.0L605.5 360.5L607.5 236.5Q608.5 194.5 608.75 168.75Q609.0 143.0 608.25 128.0Q607.5 113.0 605.75 104.0Q604.0 95.0 601.0 87.0Q596.5 72.5 588.0 58.75Q579.5 45.0 570.0 34.5Q560.5 24.0 551.0 20.0Q542.5 16.5 541.75 15.0Q541.0 13.5 547.5 11.0Q550.5 10.0 553.5 10.0Q560.5 10.0 564.5 13.5Q569.0 15.5 580.25 18.0Q591.5 20.5 604.0 21.5Q638.0 24.0 651.5 26.5Q665.0 29.0 665.0 33.0Q665.0 34.5 662.0 36.25Q659.0 38.0 655.0 39.0Q630.0 43.0 622.5 95.0Q620.5 106.5 619.25 130.75Q618.0 155.0 617.5 185.75Q617.0 216.5 617.25 248.25Q617.5 280.0 618.25 307.75Q619.0 335.5 620.25 353.25Q621.5 371.0 623.5 373.5Q626.0 376.5 639.75 387.25Q653.5 398.0 670.5 410.5Q688.0 423.0 699.5 433.0Q711.0 443.0 709.5 445.5Q709.0 447.5 706.75 447.5Q704.5 447.5 702.0 445.5Q693.5 439.0 680.25 429.25Q667.0 419.5 653.5 410.0Q640.0 400.5 630.5 394.0Q621.0 387.5 620.0 387.5Q618.5 387.5 618.0 391.5Q617.5 395.5 617.5 401.0Q617.5 407.0 616.0 411.5Q614.5 416.0 612.5 416.0Q611.0 416.0 609.25 409.75Q607.5 403.5 607.5 395.5Q607.5 385.5 606.0 380.25Q604.5 375.0 598.0 370.0Q591.5 365.0 575.5 355.5Q551.0 340.5 533.75 332.25Q516.5 324.0 502.5 320.75Q488.5 317.5 472.5 317.5Q461.5 317.5 453.25 316.5Q445.0 315.5 445.0 313.5Q445.0 312.5 428.75 312.0Q412.5 311.5 385.5 311.25Q358.5 311.0 325.5 311.0H205.5V329.0Q205.5 337.0 204.5 342.75Q203.5 348.5 201.0 348.5Q199.0 348.5 197.5 343.0Q196.0 337.5 196.0 329.5V311.5L160.5 309.5Q145.5 308.5 134.75 309.5Q124.0 310.5 124.0 312.5Q124.0 313.5 122.0 314.0Q120.0 314.5 117.0 313.0Q112.0 311.0 101.25 313.75Q90.5 316.5 77.5 322.5Q64.5 328.5 52.25 336.0Q40.0 343.5 31.5 351.0Q23.0 358.5 21.0 364.0Q18.0 374.5 13.0 368.5Q10.0 366.0 11.0 361.0Q12.0 356.0 15.5 348.0Q18.5 341.0 21.75 329.25Q25.0 317.5 26.5 308.0Q30.5 274.0 33.0 263.5Q35.5 253.0 38.5 253.0Q40.0 253.0 41.75 256.0Q43.5 259.0 44.0 263.0Q45.0 274.0 59.0 282.75Q73.0 291.5 92.0 294.0L115.5 297.0V156.5L99.0 140.0Q91.5 133.5 84.75 128.75Q78.0 124.0 74.5 124.0Q67.0 124.0 69.5 118.5Q70.5 116.0 74.75 115.5Q79.0 115.0 84.0 116.0Q91.5 118.0 94.0 114.5Q96.5 111.0 100.0 94.5Q102.5 85.0 104.0 72.0Q105.5 59.0 105.5 50.5Q105.5 42.0 106.5 33.25Q107.5 24.5 108.0 19.5Z" fill="black" /></svg>