<svg xmlns="http://www.w3.org/2000/svg" width="845.5" height="388.5" viewBox="0 0 845.5 388.5"><path d="M99.0 284.5 82.5 268.0Q76.0 261.0 70.0 256.25Q64.0 251.5 63.0 251.5Q61.5 251.5 58.5 257.25Q55.5 263.0 53.0 270.0Q50.5 277.0 50.5 280.0Q50.5 281.5 57.75 282.5Q65.0 283.5 75.0 283.5ZM448.0 297.0 428.5 292.0Q420.5 289.5 411.75 285.25Q403.0 281.0 398.5 278.5Q392.0 273.5 389.5 273.5Q387.0 273.5 386.5 283.0Q385.5 304.5 386.25 308.5Q387.0 312.5 392.5 310.5Q395.0 310.0 404.5 307.5Q414.0 305.0 424.0 303.0ZM87.0 111.0Q82.0 108.5 78.5 107.25Q75.0 106.0 73.5 106.0Q71.0 106.0 70.5 108.5Q70.0 111.0 70.0 116.5Q70.0 131.5 77.5 131.5Q81.5 131.5 88.0 128.5Q99.5 123.0 99.0 119.5Q98.5 116.0 87.0 111.0ZM257.5 76.5 270.0 52.0H230.5L234.0 67.0Q240.0 96.5 244.0 96.5Q247.5 96.5 257.5 76.5ZM337.5 100.5Q334.0 92.0 330.5 86.5Q327.0 81.0 326.5 81.0Q326.5 81.0 323.0 84.0Q319.5 87.0 315.0 91.5L304.5 102.0L325.0 111.0Q333.0 115.0 339.25 117.5Q345.5 120.0 346.0 120.0Q347.0 120.0 344.5 114.25Q342.0 108.5 337.5 100.5ZM392.5 149.5Q387.0 139.5 381.5 139.5Q377.5 139.5 374.5 145.0Q372.5 149.5 377.75 154.25Q383.0 159.0 391.0 159.0Q397.5 159.0 392.5 149.5ZM470.5 78.0Q470.5 77.0 465.25 76.5Q460.0 76.0 453.0 76.0Q438.5 76.0 437.25 79.0Q436.0 82.0 442.5 100.0L448.5 116.5L459.0 98.5Q463.5 91.0 467.0 85.0Q470.5 79.0 470.5 78.0ZM587.5 24.0Q587.5 23.5 581.75 23.0Q576.0 22.5 568.0 22.5H549.0L556.0 45.0Q558.5 54.0 561.25 61.5Q564.0 69.0 565.0 70.0Q566.0 70.0 569.5 63.75Q573.0 57.5 577.0 49.0Q581.0 40.5 584.25 33.25Q587.5 26.0 587.5 24.0ZM625.5 109.5Q619.0 105.5 616.0 105.5Q611.5 105.5 611.5 115.0Q611.5 122.5 614.5 122.5Q617.0 122.5 622.0 119.5Q628.0 116.0 628.75 114.25Q629.5 112.5 625.5 109.5ZM623.5 196.0Q617.0 193.0 614.5 193.0Q611.5 193.0 611.5 200.5Q611.5 203.0 613.5 205.5Q615.5 208.0 618.0 208.0Q626.5 208.0 628.0 203.25Q629.5 198.5 623.5 196.0ZM760.0 133.0 756.0 115.0 719.5 115.5Q684.0 116.0 659.5 120.0Q635.0 124.0 623.5 131.5Q614.0 138.0 612.0 148.25Q610.0 158.5 614.25 169.0Q618.5 179.5 627.5 186.75Q636.5 194.0 649.0 194.5Q654.5 195.0 673.25 194.75Q692.0 194.5 712.5 194.5L763.0 193.0V172.0Q763.0 163.5 762.0 152.25Q761.0 141.0 760.0 133.0ZM770.5 88.0 805.5 22.5H778.5Q760.5 22.5 757.0 24.0Q753.5 25.5 755.5 31.0Q757.0 34.5 759.75 44.25Q762.5 54.0 765.0 64.0ZM728.5 13.0Q728.5 12.0 744.25 11.0Q760.0 10.0 782.5 10.0Q804.5 10.0 820.0 11.0Q835.5 12.0 835.5 13.0Q835.5 14.0 831.5 17.75Q827.5 21.5 822.0 25.5Q816.5 30.0 806.75 43.5Q797.0 57.0 789.0 71.5L769.5 107.5V217.5Q769.5 279.0 769.0 305.5Q768.5 332.0 767.0 332.0Q765.5 332.0 763.0 319.5L760.0 303.0H611.5Q565.5 303.0 534.75 303.25Q504.0 303.5 484.5 304.5Q465.0 305.5 452.25 307.25Q439.5 309.0 429.0 311.5Q408.5 316.5 398.5 320.75Q388.5 325.0 385.5 330.5Q382.5 336.0 382.5 346.0Q382.5 352.0 381.25 358.75Q380.0 365.5 377.5 368.5Q371.0 378.5 369.25 365.5Q367.5 352.5 372.0 328.0Q374.5 315.5 376.0 299.0Q377.5 282.5 377.5 272.5Q377.5 246.5 383.5 246.5Q386.5 246.5 389.5 254.5Q391.0 259.0 399.25 265.0Q407.5 271.0 417.25 275.75Q427.0 280.5 433.0 280.5Q438.0 280.5 439.5 274.0Q441.0 267.5 441.0 241.5V202.5L415.5 186.0Q399.0 175.5 388.25 170.5Q377.5 165.5 369.0 165.5Q359.0 165.5 350.5 173.5Q346.5 177.5 341.25 180.0Q336.0 182.5 333.0 182.5Q330.5 181.5 333.5 176.25Q336.5 171.0 344.5 163.0Q352.5 156.0 357.75 149.75Q363.0 143.5 363.0 142.5Q363.0 141.0 355.25 136.5Q347.5 132.0 337.0 127.0Q326.5 122.0 317.0 118.5Q307.5 115.0 304.0 115.0Q301.0 115.0 295.25 118.25Q289.5 121.5 284.5 127.0Q273.5 139.5 266.0 139.5Q260.5 139.5 263.5 132.0Q266.5 124.5 253.5 124.5H241.0V319.5L291.0 334.5Q326.0 345.5 339.0 351.25Q352.0 357.0 347.5 361.0Q345.5 361.0 323.0 354.5Q300.5 348.0 270.0 338.5Q219.0 322.0 184.0 312.5Q149.0 303.0 124.25 298.75Q99.5 294.5 79.0 294.0Q65.0 294.0 57.25 294.5Q49.5 295.0 45.0 297.5Q40.5 300.0 36.25 306.5Q32.0 313.0 25.5 325.0Q22.0 330.0 18.5 333.75Q15.0 337.5 13.0 337.5Q12.5 337.5 12.5 337.5Q12.5 337.5 12.0 337.5Q10.0 336.5 14.5 324.75Q19.0 313.0 27.0 296.0Q35.0 279.0 43.75 262.25Q52.5 245.5 59.5 234.25Q66.5 223.0 68.5 223.0Q71.0 222.0 72.0 224.0Q73.0 226.0 72.0 229.0Q71.0 232.5 72.0 237.5Q73.0 242.5 75.0 247.0Q78.0 252.0 86.5 259.25Q95.0 266.5 106.5 273.75Q118.0 281.0 129.0 286.5Q140.0 292.0 148.0 293.5Q155.0 294.5 169.5 298.0Q184.0 301.5 196.5 305.5Q209.5 309.0 219.75 312.0Q230.0 315.0 232.0 315.0Q233.5 315.0 234.25 303.0Q235.0 291.0 235.5 271.75Q236.0 252.5 235.75 230.5Q235.5 208.5 235.0 188.25Q234.5 168.0 233.5 154.5L229.5 124.5H180.0Q138.5 124.5 109.5 131.25Q80.5 138.0 75.0 149.5Q73.5 153.0 71.75 161.5Q70.0 170.0 70.0 178.0Q70.0 186.0 68.5 192.0Q67.0 198.0 64.5 198.0Q62.5 198.0 62.0 183.0Q61.5 168.0 63.0 136.0Q64.0 110.0 65.75 91.25Q67.5 72.5 68.5 71.5Q69.0 70.5 70.75 74.0Q72.5 77.5 74.5 82.5Q79.5 94.5 88.25 101.0Q97.0 107.5 116.0 110.5Q135.0 113.5 169.0 115.0L231.0 116.5V100.5Q231.0 91.5 227.75 80.0Q224.5 68.5 220.25 60.25Q216.0 52.0 212.5 52.0Q210.5 52.0 208.5 50.25Q206.5 48.5 206.5 46.5Q206.5 44.0 219.0 43.0Q231.5 42.0 251.5 42.0H296.5L283.5 55.0Q276.0 63.0 268.5 75.75Q261.0 88.5 256.75 99.0Q252.5 109.5 254.5 112.0Q258.5 116.0 264.0 116.0Q279.0 116.0 307.5 85.5Q319.0 74.0 328.25 65.25Q337.5 56.5 339.0 56.5Q341.0 56.5 341.25 60.5Q341.5 64.5 340.5 70.0Q338.0 82.5 352.5 106.5Q367.0 129.0 373.0 129.0Q377.0 129.0 382.5 122.5Q388.5 115.0 393.5 115.0Q400.0 115.0 398.5 128.5Q397.5 134.5 401.0 143.5Q404.5 152.5 410.5 161.5Q416.5 170.5 422.75 176.75Q429.0 183.0 433.5 183.0Q439.0 183.0 439.75 177.25Q440.5 171.5 438.0 150.0Q436.0 124.5 434.0 110.5Q432.0 96.5 430.0 90.25Q428.0 84.0 424.0 81.0Q414.0 72.0 420.25 69.0Q426.5 66.0 455.5 66.0Q473.0 66.0 483.75 67.5Q494.5 69.0 494.5 71.5Q494.5 76.0 490.0 76.0Q488.0 76.0 480.5 84.75Q473.0 93.5 465.0 106.5Q457.0 119.5 452.75 128.25Q448.5 137.0 447.0 145.0Q445.5 153.0 445.5 165.0Q445.5 176.5 446.25 183.25Q447.0 190.0 451.5 196.0Q456.0 202.0 467.0 211.5Q478.0 221.0 499.0 238.5Q525.5 261.5 533.75 271.25Q542.0 281.0 535.0 280.5Q533.0 280.5 520.5 270.5Q508.0 260.5 492.0 247.0Q476.5 234.0 464.25 224.75Q452.0 215.5 449.5 215.5Q447.5 217.0 446.5 225.75Q445.5 234.5 445.75 246.25Q446.0 258.0 447.0 267.5Q448.0 277.0 450.0 280.0Q454.5 286.5 473.25 289.75Q492.0 293.0 520.5 292.0L553.5 289.5L552.0 169.0Q551.5 125.0 551.0 100.0Q550.5 75.0 549.25 62.5Q548.0 50.0 546.0 44.0Q544.0 38.0 540.0 32.5Q535.0 26.0 532.0 21.0Q529.0 16.0 529.0 15.0Q529.0 14.0 541.0 13.5Q553.0 13.0 570.0 13.0Q599.5 13.0 608.0 16.25Q616.5 19.5 604.5 25.5Q602.5 27.5 595.25 39.0Q588.0 50.5 580.5 64.5L562.5 100.5V290.5H763.0L760.0 205.5H704.5Q669.0 206.0 648.5 209.0Q628.0 212.0 619.75 219.0Q611.5 226.0 611.5 238.0Q611.5 248.5 609.25 256.0Q607.0 263.5 604.5 263.5Q602.5 263.5 601.5 258.0Q600.5 253.5 600.0 238.0Q599.5 222.5 599.75 201.5Q600.0 180.5 600.75 157.75Q601.5 135.0 602.5 115.5Q603.5 96.0 604.75 83.75Q606.0 71.5 607.0 71.5Q611.5 71.5 611.5 77.5Q611.5 80.0 615.0 85.5Q618.5 91.0 623.5 95.5Q628.0 100.0 632.75 102.5Q637.5 105.0 646.25 106.0Q655.0 107.0 671.5 107.0Q688.0 107.0 715.5 106.5L757.5 105.0V86.5Q757.5 67.5 752.0 50.25Q746.5 33.0 738.0 25.0Q734.5 21.0 731.5 17.5Q728.5 14.0 728.5 13.0Z" fill="black" /></svg>