<svg xmlns="http://www.w3.org/2000/svg" width="255.0" height="383.0" viewBox="0 0 255.0 383.0"><path d="M104.5 163.5H87.5Q80.0 163.5 71.25 162.5Q62.5 161.5 57.5 160.0L45.5 157.0L59.5 182.5Q66.0 193.0 70.75 201.25Q75.5 209.5 76.0 210.0Q77.0 211.0 78.75 208.75Q80.5 206.5 81.5 202.5Q82.5 198.5 86.75 191.25Q91.0 184.0 95.0 178.0ZM213.5 163.5H193.0Q185.0 163.5 176.5 162.5Q168.0 161.5 164.5 160.5Q158.0 158.0 156.75 163.0Q155.5 168.0 161.5 172.0Q164.0 173.0 168.5 179.75Q173.0 186.5 177.5 194.5Q181.5 202.5 184.5 206.25Q187.5 210.0 188.0 208.0Q188.0 205.5 191.5 198.0Q195.0 190.5 200.5 182.5ZM77.5 51.0 104.0 22.5H49.0ZM200.0 35.5 209.0 22.5H161.0L170.5 35.5Q180.0 48.0 186.0 48.0Q192.0 48.0 200.0 35.5ZM59.0 11.5Q83.0 10.5 109.25 10.25Q135.5 10.0 160.0 10.0Q183.5 10.0 202.75 10.25Q222.0 10.5 233.5 11.0Q245.0 11.5 245.0 12.0Q245.0 13.0 240.5 17.0Q236.0 21.0 229.0 25.0Q223.0 28.5 213.5 37.5Q204.0 46.5 197.5 55.5Q190.5 65.0 187.25 72.0Q184.0 79.0 183.5 88.0Q183.0 97.0 183.5 114.0L185.0 151.0L207.5 150.0Q226.5 149.5 228.25 154.5Q230.0 159.5 217.0 176.5Q203.5 194.5 196.0 212.5Q188.5 230.5 185.5 253.25Q182.5 276.0 182.5 310.0Q182.5 337.5 181.25 355.25Q180.0 373.0 177.5 373.0Q175.5 373.0 174.25 350.25Q173.0 327.5 173.5 289.5Q174.0 258.5 174.0 241.0Q174.0 223.5 172.75 214.25Q171.5 205.0 168.5 199.25Q165.5 193.5 160.0 185.5Q154.0 176.5 147.5 169.0Q141.0 161.5 138.5 160.0Q127.5 156.0 131.5 152.0Q135.5 148.0 151.0 148.0H172.0L173.0 120.0Q174.0 87.5 172.5 70.75Q171.0 54.0 164.5 45.5Q158.0 37.0 144.5 29.5Q136.5 25.0 129.0 25.0Q110.5 25.0 89.5 55.0Q83.5 63.0 80.5 69.75Q77.5 76.5 76.5 86.0Q75.5 95.5 75.5 112.0V151.0H96.5Q105.0 151.5 112.25 152.0Q119.5 152.5 121.0 153.0Q123.0 153.0 120.5 158.25Q118.0 163.5 113.0 170.5Q102.5 184.5 95.75 196.25Q89.0 208.0 85.0 221.5Q81.0 235.0 79.0 253.75Q77.0 272.5 75.5 301.0Q73.5 330.5 71.25 351.75Q69.0 373.0 67.0 373.0Q65.5 373.0 65.0 352.5Q64.5 332.0 65.5 303.0Q67.5 262.0 66.0 237.75Q64.5 213.5 57.75 198.25Q51.0 183.0 38.0 170.5Q30.5 162.5 25.5 156.5Q20.5 150.5 20.5 150.0Q20.5 149.5 26.5 148.75Q32.5 148.0 41.0 148.0Q54.5 148.0 58.25 145.5Q62.0 143.0 64.0 132.0Q81.5 46.5 28.0 27.0Q21.0 24.5 15.5 21.5Q10.0 18.5 10.0 16.5Q10.0 15.0 24.5 13.25Q39.0 11.5 59.0 11.5Z" fill="black" /></svg>