<svg xmlns="http://www.w3.org/2000/svg" width="521.0" height="387.0" viewBox="0 0 521.0 387.0"><path d="M58.5 296.5Q48.5 292.0 40.75 288.75Q33.0 285.5 32.5 285.5Q32.0 285.5 31.5 294.25Q31.0 303.0 31.0 315.5Q31.0 331.5 32.25 338.0Q33.5 344.5 39.0 344.5Q42.0 344.5 46.25 343.0Q50.5 341.5 56.5 339.5Q62.0 337.5 76.25 333.75Q90.5 330.0 106.0 326.5L142.5 319.0L112.5 313.0Q100.0 310.5 84.25 305.75Q68.5 301.0 58.5 296.5ZM74.5 151.0Q70.0 150.0 62.5 145.5Q55.0 141.0 49.5 136.0L35.5 124.0V188.5L60.0 174.5Q71.0 168.0 78.0 162.75Q85.0 157.5 85.5 157.0Q85.5 155.5 82.25 153.75Q79.0 152.0 74.5 151.0ZM218.5 159.5Q218.5 157.0 216.0 157.0Q214.0 157.0 214.0 159.5Q214.0 161.5 216.0 161.5Q218.5 161.5 218.5 159.5ZM214.5 103.0Q214.0 100.5 209.5 99.25Q205.0 98.0 200.0 98.0Q196.5 98.0 193.5 98.75Q190.5 99.5 190.5 101.5Q190.5 104.0 193.75 111.0Q197.0 118.0 201.5 125.75Q206.0 133.5 210.0 139.25Q214.0 145.0 215.5 145.0Q219.5 145.0 224.5 137.0Q227.0 133.0 230.75 126.5Q234.5 120.0 238.0 115.0Q249.5 98.5 240.0 98.5Q236.5 98.5 229.0 101.5Q222.0 105.0 218.0 105.0Q215.0 105.0 214.5 103.0ZM264.0 116.5Q262.0 112.5 259.0 109.75Q256.0 107.0 254.5 107.0Q252.0 107.0 248.0 112.5Q244.0 118.0 240.75 125.5Q237.5 133.0 236.25 139.0Q235.0 145.0 237.0 146.0Q241.0 149.0 234.0 155.0Q231.0 156.5 229.75 163.0Q228.5 169.5 228.25 186.0Q228.0 202.5 228.0 235.0L229.5 310.0L291.0 313.0V251.5Q291.0 225.0 290.25 210.0Q289.5 195.0 287.25 183.75Q285.0 172.5 280.5 158.5Q276.0 145.0 271.25 132.75Q266.5 120.5 264.0 116.5ZM276.0 68.0Q283.0 65.0 279.75 61.75Q276.5 58.5 256.5 49.0L228.0 35.0L226.5 62.0Q225.5 73.0 226.25 81.0Q227.0 89.0 228.0 89.0Q229.0 89.0 235.5 86.5Q242.0 84.0 248.5 80.5Q255.5 76.5 264.0 73.0Q272.5 69.5 276.0 68.0ZM319.0 98.0Q319.0 97.0 308.75 96.5Q298.5 96.0 287.0 96.0Q279.0 96.0 273.25 96.0Q267.5 96.0 266.5 97.0Q265.5 97.5 268.25 104.75Q271.0 112.0 275.5 122.0Q280.0 132.0 283.25 140.75Q286.5 149.5 286.5 151.0Q286.5 157.0 291.0 157.0Q295.5 157.0 295.5 151.0Q295.5 148.5 299.0 140.0Q302.5 131.5 307.0 122.5Q312.0 113.0 315.5 106.0Q319.0 99.0 319.0 98.0ZM433.0 107.0 417.0 63.5 369.0 62.5Q349.5 62.0 336.75 62.75Q324.0 63.5 313.75 65.5Q303.5 67.5 292.0 71.5Q272.0 78.0 269.25 80.25Q266.5 82.5 273.0 85.0Q275.5 86.0 281.0 86.5Q286.5 87.0 293.0 87.0Q298.0 87.0 303.0 86.75Q308.0 86.5 313.0 86.0Q319.0 85.0 324.25 85.0Q329.5 85.0 333.0 85.0Q341.5 85.0 341.5 86.0Q341.5 87.0 337.0 93.75Q332.5 100.5 325.5 109.0Q315.0 123.0 309.5 139.0Q304.0 155.0 302.25 179.5Q300.5 204.0 301.5 244.0L302.5 310.0H448.5V230.5Q448.5 200.5 448.25 183.25Q448.0 166.0 446.5 155.0Q445.0 144.0 441.75 133.5Q438.5 123.0 433.0 107.0ZM487.5 38.0Q487.5 37.0 476.75 36.25Q466.0 35.5 451.5 35.5Q436.5 36.0 425.75 37.25Q415.0 38.5 415.0 40.0Q415.0 41.0 417.5 47.5Q420.0 54.0 424.5 62.0Q428.5 70.0 433.5 82.25Q438.5 94.5 440.5 104.5L448.0 128.0L457.5 98.0Q461.5 85.5 467.5 72.75Q473.5 60.0 478.0 53.5Q482.0 47.5 484.75 43.0Q487.5 38.5 487.5 38.0ZM218.5 90.5V10.0L235.0 24.5Q245.5 33.5 254.25 39.0Q263.0 44.5 274.25 47.25Q285.5 50.0 302.75 51.0Q320.0 52.0 346.5 52.0H411.0L403.5 41.0Q401.0 36.5 398.5 32.5Q396.0 28.5 396.0 28.0Q396.0 27.0 412.75 26.5Q429.5 26.0 454.0 26.0Q477.5 26.0 494.25 26.25Q511.0 26.5 511.0 26.5Q511.0 27.5 507.0 32.25Q503.0 37.0 497.5 42.5Q492.0 48.5 485.0 59.25Q478.0 70.0 473.5 78.5Q470.5 85.0 468.5 90.75Q466.5 96.5 465.25 105.5Q464.0 114.5 463.25 130.25Q462.5 146.0 462.25 172.0Q462.0 198.0 461.5 238.0Q461.0 279.5 460.25 311.0Q459.5 342.5 458.25 359.75Q457.0 377.0 455.5 377.0Q453.5 377.0 452.5 368.5Q451.5 360.0 451.5 349.0V322.0H298.5L302.5 339.5Q303.5 347.5 303.0 353.5Q302.5 359.5 300.0 361.0Q300.0 361.0 299.75 361.0Q299.5 361.0 299.5 361.0Q295.5 361.0 295.5 343.0V322.0H227.5V342.5Q227.5 362.5 223.0 362.5Q218.5 362.5 217.0 341.0L216.0 320.0L195.0 320.5Q183.0 321.5 164.0 324.75Q145.0 328.0 123.75 332.5Q102.5 337.0 83.25 342.0Q64.0 347.0 51.0 351.5Q27.5 359.5 18.5 359.5Q10.0 359.5 17.5 351.5Q20.0 348.0 21.25 336.5Q22.5 325.0 22.5 309.5Q22.5 287.0 23.5 278.0Q24.5 269.0 28.0 269.0Q31.0 269.0 34.5 272.5Q38.0 275.5 49.5 281.25Q61.0 287.0 74.5 292.0Q88.0 297.5 98.75 300.5Q109.5 303.5 124.0 304.75Q138.5 306.0 163.0 307.0L219.0 309.5L217.0 248.5Q216.5 222.5 214.0 200.5Q211.5 178.5 208.5 172.0L203.5 157.0H157.5Q136.5 157.0 124.75 157.75Q113.0 158.5 104.75 161.5Q96.5 164.5 85.0 170.5Q74.0 176.0 62.0 183.5Q50.0 191.0 43.0 195.5Q36.5 200.5 31.5 204.0Q26.5 207.5 25.5 207.5Q25.0 207.5 24.75 192.0Q24.5 176.5 25.0 155.0Q26.0 133.5 26.75 118.0Q27.5 102.5 28.5 102.5Q29.5 102.5 34.25 106.75Q39.0 111.0 44.5 118.0Q56.0 130.5 67.0 137.0Q78.0 143.5 95.0 145.75Q112.0 148.0 141.0 148.0Q163.0 148.0 179.25 147.0Q195.5 146.0 196.5 145.0Q197.5 144.0 194.5 135.25Q191.5 126.5 186.0 116.0Q180.5 104.5 176.5 96.25Q172.5 88.0 172.5 87.5Q172.5 86.5 179.25 86.75Q186.0 87.0 195.0 88.0Z" fill="black" /></svg>