<svg xmlns="http://www.w3.org/2000/svg" width="745.5" height="375.0" viewBox="0 0 745.5 375.0"><path d="M71.0 281.0Q67.0 280.0 59.75 276.0Q52.5 272.0 45.5 267.5L30.0 257.5L27.0 282.5Q26.0 292.5 25.5 300.0Q25.0 307.5 25.5 308.5Q27.0 308.5 35.0 305.0Q43.0 301.5 54.0 296.5Q70.0 288.5 73.25 285.75Q76.5 283.0 71.0 281.0ZM284.0 290.5Q274.0 285.0 266.25 281.75Q258.5 278.5 258.0 278.5Q257.0 278.5 256.0 284.25Q255.0 290.0 255.0 298.0Q255.0 305.5 254.0 315.75Q253.0 326.0 250.5 332.0Q249.0 338.5 248.25 343.75Q247.5 349.0 247.5 350.0Q249.5 350.0 260.5 347.0Q271.5 344.0 285.5 340.0Q300.0 335.5 319.75 330.75Q339.5 326.0 353.0 324.0L384.0 318.0L345.5 310.5Q330.0 306.5 311.75 301.0Q293.5 295.5 284.0 290.5ZM52.5 141.5Q47.5 135.0 44.0 135.0Q39.0 135.0 37.5 160.5Q36.5 175.0 37.5 181.5Q38.5 188.0 41.0 188.0Q47.0 188.0 49.5 183.5Q53.5 178.5 71.0 171.0L89.5 164.5L73.0 156.5Q67.0 153.0 61.0 148.25Q55.0 143.5 52.5 141.5ZM197.0 63.0Q193.5 62.5 186.5 58.75Q179.5 55.0 172.5 50.5L157.0 39.5L153.5 64.5Q152.5 74.5 152.0 82.25Q151.5 90.0 152.5 90.5Q152.5 90.5 152.5 90.5Q152.5 90.5 153.0 90.5Q155.0 90.5 162.25 87.25Q169.5 84.0 180.0 79.5Q196.0 71.5 199.25 68.25Q202.5 65.0 197.0 63.0ZM243.0 138.5 255.0 120.0H230.0Q220.0 120.0 212.75 120.75Q205.5 121.5 205.5 122.0Q205.5 124.0 208.5 129.5Q211.5 135.0 215.75 141.25Q220.0 147.5 223.5 152.0Q227.0 156.5 227.5 156.5Q229.5 156.5 233.75 151.0Q238.0 145.5 243.0 138.5ZM419.0 222.0 394.5 214.5Q385.0 211.0 375.5 208.25Q366.0 205.5 363.5 203.5Q358.0 202.0 356.75 204.75Q355.5 207.5 355.5 220.0Q355.5 232.5 357.0 235.25Q358.5 238.0 365.5 236.0Q369.5 234.5 378.75 232.25Q388.0 230.0 397.0 228.0ZM504.5 143.5Q502.5 138.0 493.75 136.25Q485.0 134.5 458.5 133.5Q436.0 133.0 420.5 135.75Q405.0 138.5 392.75 145.0Q380.5 151.5 366.5 164.0Q354.0 175.0 356.25 182.5Q358.5 190.0 380.0 200.0Q389.5 204.5 405.25 208.0Q421.0 211.5 437.75 213.5Q454.5 215.5 467.0 215.5Q475.5 215.5 480.75 214.5Q486.0 213.5 486.0 211.0Q486.0 206.0 493.5 206.0Q496.0 206.0 498.0 207.25Q500.0 208.5 500.0 210.0Q500.0 215.5 504.5 215.5Q507.0 215.5 508.0 206.0Q509.0 196.5 509.0 183.5Q509.0 170.5 508.0 159.0Q507.0 147.5 504.5 143.5ZM538.5 254.0Q534.0 253.0 526.75 249.0Q519.5 245.0 514.0 240.0L501.0 229.0L498.5 260.0Q498.0 275.5 498.25 282.0Q498.5 288.5 500.5 288.5Q502.5 288.5 506.5 284.5Q510.5 282.0 518.0 278.0Q525.5 274.0 532.5 271.0Q547.0 264.0 548.75 260.25Q550.5 256.5 538.5 254.0ZM377.5 41.0Q377.5 40.0 368.25 39.25Q359.0 38.5 345.5 38.5Q333.0 38.5 323.75 39.25Q314.5 40.0 314.5 41.0Q314.5 42.0 316.75 46.25Q319.0 50.5 322.5 56.0Q326.0 61.0 330.0 69.0Q334.0 77.0 336.5 82.5Q342.0 97.0 346.0 97.0Q349.0 97.0 351.5 84.0Q352.5 79.0 356.75 71.25Q361.0 63.5 365.5 57.5Q371.0 52.0 374.25 47.0Q377.5 42.0 377.5 41.0ZM391.0 133.5Q391.0 132.5 387.25 129.0Q383.5 125.5 378.5 121.0L365.0 110.5L362.0 125.0Q357.5 147.0 359.75 150.75Q362.0 154.5 375.5 145.5Q382.0 141.5 386.5 138.0Q391.0 134.5 391.0 133.5ZM509.5 107.0Q516.0 102.0 504.5 102.0Q498.0 102.0 497.0 103.25Q496.0 104.5 498.5 107.0Q504.5 113.0 509.5 107.0ZM515.0 122.5Q517.5 116.5 515.75 115.75Q514.0 115.0 511.0 120.5Q508.0 124.5 510.5 127.0Q511.0 128.0 512.5 126.75Q514.0 125.5 515.0 122.5ZM547.5 92.0 531.0 85.5Q525.0 83.0 517.5 78.0Q510.0 73.0 506.0 69.0L495.5 59.5V93.0H521.5ZM659.0 102.0Q657.0 96.5 654.5 94.25Q652.0 92.0 643.5 91.0Q635.0 90.0 615.0 90.0Q591.5 89.0 576.5 90.75Q561.5 92.5 551.5 97.5Q541.5 102.5 532.5 112.0Q527.0 118.0 524.25 123.25Q521.5 128.5 520.5 138.75Q519.5 149.0 518.5 170.0L517.0 215.5H583.0Q614.0 215.5 631.75 216.5Q649.5 217.5 649.5 220.0Q649.5 221.5 631.75 223.0Q614.0 224.5 583.0 224.5Q530.0 224.5 521.25 228.0Q512.5 231.5 536.5 243.0Q546.0 248.0 560.5 249.5Q575.0 251.0 607.5 251.0H662.5V182.0Q662.0 153.5 661.0 130.25Q660.0 107.0 659.0 102.0ZM686.5 30.5 696.0 20.0H627.0L637.5 35.5Q641.5 42.0 646.75 50.75Q652.0 59.5 654.0 65.5L659.5 79.5L668.0 60.0Q672.0 51.5 677.25 43.25Q682.5 35.0 686.5 30.5ZM187.5 113.0Q187.5 111.5 198.5 110.75Q209.5 110.0 224.0 110.0Q239.0 110.0 253.75 110.75Q268.5 111.5 273.0 113.0Q279.0 115.5 264.0 128.0Q255.5 135.5 250.0 143.0Q244.5 150.5 241.75 161.5Q239.0 172.5 238.0 190.25Q237.0 208.0 237.0 235.5Q237.0 266.0 236.0 283.5Q235.0 301.0 233.0 301.0Q228.5 301.0 228.5 295.0Q228.5 290.5 216.75 289.25Q205.0 288.0 168.0 287.0Q142.0 286.0 127.25 286.5Q112.5 287.0 102.5 289.0Q92.5 291.0 80.0 295.0Q68.0 299.5 55.5 305.75Q43.0 312.0 36.0 317.5Q22.0 328.0 15.0 328.0Q10.0 328.0 13.0 321.0Q14.0 318.5 15.5 304.0Q17.0 289.5 19.0 273.5Q19.5 257.0 21.25 245.25Q23.0 233.5 25.0 233.5Q26.0 233.5 29.25 236.75Q32.5 240.0 35.5 244.0Q38.0 248.5 45.0 254.75Q52.0 261.0 58.5 265.5Q65.5 269.5 74.0 271.75Q82.5 274.0 99.75 275.0Q117.0 276.0 151.0 277.5L228.5 280.5V234.0Q228.5 215.0 227.0 198.25Q225.5 181.5 223.0 177.0Q220.5 171.0 217.0 168.5Q213.5 166.0 201.75 165.5Q190.0 165.0 163.0 165.0Q140.5 165.0 125.0 166.25Q109.5 167.5 97.5 170.5Q85.5 173.5 73.5 179.5Q61.5 185.5 46.5 195.5Q39.0 200.0 33.5 203.0Q28.0 206.0 27.0 206.0Q26.5 206.0 26.5 196.75Q26.5 187.5 27.25 173.75Q28.0 160.0 28.75 146.0Q29.5 132.0 30.5 122.0Q31.5 112.0 32.5 111.0Q32.5 111.0 32.5 111.0Q32.5 111.0 32.5 111.0Q36.5 111.0 48.0 123.5Q57.5 134.0 64.75 140.0Q72.0 146.0 81.25 149.0Q90.5 152.0 105.75 153.25Q121.0 154.5 146.5 155.5Q182.0 156.5 196.0 155.75Q210.0 155.0 209.25 149.75Q208.5 144.5 198.5 132.0Q194.0 125.5 190.75 120.25Q187.5 115.0 187.5 113.0ZM608.5 10.5Q608.5 10.0 619.25 10.0Q630.0 10.0 646.0 10.5Q662.0 11.0 678.0 11.5Q694.0 12.0 705.25 12.75Q716.5 13.5 717.0 14.0Q717.5 14.5 714.5 18.0Q711.5 21.5 706.5 25.5Q696.0 33.5 686.75 46.0Q677.5 58.5 674.5 69.0Q672.5 75.5 674.0 77.5Q675.5 79.5 682.5 79.5Q694.5 79.5 694.5 84.0Q694.5 85.5 691.25 87.0Q688.0 88.5 683.5 88.5H671.5V252.5L688.0 250.5Q690.5 250.0 693.5 249.75Q696.5 249.5 698.5 249.5Q704.0 249.5 705.5 251.0Q708.5 255.5 688.5 258.0Q668.5 260.5 627.0 260.5Q608.5 260.5 597.25 260.75Q586.0 261.0 578.5 262.5Q571.0 264.0 564.0 266.5Q557.0 269.0 547.5 273.5Q536.5 278.5 525.0 285.5Q513.5 292.5 509.0 296.5L498.0 306.0H616.5Q651.0 306.0 678.0 306.5Q705.0 307.0 720.25 307.75Q735.5 308.5 735.5 309.5Q735.5 311.0 715.25 312.25Q695.0 313.5 659.5 314.25Q624.0 315.0 578.0 315.5Q533.0 316.0 503.0 316.5Q473.0 317.0 453.25 318.0Q433.5 319.0 419.75 320.25Q406.0 321.5 393.5 323.75Q381.0 326.0 365.5 329.5Q350.5 332.5 332.5 337.0Q314.5 341.5 298.25 346.25Q282.0 351.0 271.5 354.5Q257.5 359.0 247.0 362.0Q236.5 365.0 234.0 365.0Q233.5 365.0 233.25 364.75Q233.0 364.5 233.0 364.5Q233.0 364.0 234.75 356.5Q236.5 349.0 239.5 340.0Q242.0 330.5 244.0 316.5Q246.0 302.5 246.0 292.0Q246.0 290.0 246.25 283.0Q246.5 276.0 247.25 269.5Q248.0 263.0 250.0 263.0Q252.5 263.0 257.0 265.5Q261.5 268.0 267.0 272.0Q284.0 283.5 302.5 290.25Q321.0 297.0 346.75 300.25Q372.5 303.5 411.5 304.5L485.0 306.5L488.0 292.0Q489.0 285.5 490.0 273.5Q491.0 261.5 491.0 251.0V224.5H475.5Q469.5 224.5 454.25 226.75Q439.0 229.0 421.0 232.5Q403.0 236.0 388.25 239.25Q373.5 242.5 368.0 244.5Q359.5 247.5 359.5 263.0Q359.5 269.5 358.25 274.0Q357.0 278.5 355.5 278.5Q353.5 278.5 352.25 275.25Q351.0 272.0 351.0 267.5Q351.0 263.0 348.5 258.75Q346.0 254.5 343.5 252.5Q339.0 250.0 338.75 246.5Q338.5 243.0 342.0 234.0Q344.5 228.0 345.0 210.0Q345.5 192.0 345.0 171.0Q344.5 151.0 343.25 138.5Q342.0 126.0 339.5 116.25Q337.0 106.5 333.0 96.0L322.0 70.5L285.5 69.0Q270.0 69.0 255.5 68.75Q241.0 68.5 235.5 69.0Q228.5 69.0 215.0 73.75Q201.5 78.5 186.75 85.75Q172.0 93.0 159.5 101.0Q153.0 105.0 147.75 107.75Q142.5 110.5 141.0 110.5Q141.0 110.5 140.75 110.5Q140.5 110.5 140.5 110.5Q140.0 110.0 140.5 100.5Q141.0 91.0 142.25 77.5Q143.5 64.0 145.0 50.25Q146.5 36.5 147.75 27.0Q149.0 17.5 149.5 16.5Q151.0 16.5 154.75 20.0Q158.5 23.5 163.0 29.0Q168.0 34.5 175.25 40.75Q182.5 47.0 186.5 50.0Q191.0 52.0 202.75 54.0Q214.5 56.0 230.25 57.5Q246.0 59.0 261.75 59.75Q277.5 60.5 289.5 60.5Q298.5 60.5 304.25 60.0Q310.0 59.5 310.0 58.0Q310.0 55.5 307.25 51.0Q304.5 46.5 300.5 41.0Q296.5 36.5 294.75 33.0Q293.0 29.5 295.0 29.0Q298.5 28.5 310.0 28.5Q321.5 28.5 336.5 29.0Q351.5 29.5 365.75 30.0Q380.0 30.5 389.75 31.0Q399.5 31.5 400.0 32.0Q401.0 33.0 398.75 35.5Q396.5 38.0 392.5 41.0Q386.5 45.0 380.0 53.75Q373.5 62.5 368.75 71.75Q364.0 81.0 364.0 86.0Q364.0 91.5 369.5 99.5Q375.0 107.5 382.75 114.0Q390.5 120.5 397.0 122.5Q401.5 123.0 415.75 123.75Q430.0 124.5 446.0 123.5L483.5 122.5L484.5 106.5Q484.5 100.0 484.75 87.0Q485.0 74.0 485.0 63.0L486.0 36.5L504.0 53.0Q513.5 62.0 520.5 67.5Q527.5 73.0 536.25 75.5Q545.0 78.0 558.5 78.75Q572.0 79.5 594.5 79.5H649.5L642.5 63.0Q640.0 56.5 634.0 46.5Q628.0 36.5 622.0 30.0Q617.0 22.5 612.75 16.75Q608.5 11.0 608.5 10.5Z" fill="black" /></svg>