<svg xmlns="http://www.w3.org/2000/svg" width="846.0" height="456.5" viewBox="0 0 846.0 456.5"><path d="M82.5 309.0Q82.0 306.5 75.5 301.0Q69.0 295.5 59.0 289.0L36.0 273.0V343.5L53.5 329.0Q61.0 322.5 68.0 318.0Q75.0 313.5 77.5 313.5Q82.5 313.5 82.5 309.0ZM286.0 308.0Q279.5 303.0 272.75 299.75Q266.0 296.5 263.5 296.5Q262.0 296.5 259.0 306.25Q256.0 316.0 252.75 328.75Q249.5 341.5 247.75 352.0Q246.0 362.5 247.5 364.0Q248.0 365.0 257.25 363.75Q266.5 362.5 279.0 360.0Q292.0 357.5 308.75 355.75Q325.5 354.0 336.0 354.0Q360.5 354.0 359.0 348.0Q357.5 342.0 331.0 331.0Q320.0 327.0 306.5 320.25Q293.0 313.5 286.0 308.0ZM78.0 114.5 56.0 103.5Q46.5 99.5 39.25 96.75Q32.0 94.0 30.0 94.0Q29.0 94.0 28.5 100.25Q28.0 106.5 29.0 116.0Q30.0 125.5 31.25 132.5Q32.5 139.5 32.5 139.5Q33.5 139.5 40.5 135.75Q47.5 132.0 56.5 127.0ZM105.0 167.0Q105.0 164.5 99.25 163.75Q93.5 163.0 85.0 163.0Q77.0 163.0 70.75 163.75Q64.5 164.5 64.5 166.5Q64.5 167.0 67.75 173.5Q71.0 180.0 74.0 188.5L84.5 209.5L95.0 190.5Q99.5 183.0 102.25 176.0Q105.0 169.0 105.0 167.0ZM449.0 276.5Q442.5 275.5 434.0 273.25Q425.5 271.0 420.0 269.0Q418.0 268.5 416.0 268.25Q414.0 268.0 412.5 268.0Q409.0 268.0 408.0 270.75Q407.0 273.5 407.0 280.5Q407.0 288.5 409.0 292.0Q411.0 295.5 419.0 295.5Q423.0 295.5 429.0 294.75Q435.0 294.0 443.5 293.0Q462.5 289.0 464.0 284.75Q465.5 280.5 449.0 276.5ZM749.5 337.0V284.5H666.5Q643.5 284.5 624.0 285.0Q604.5 285.5 592.5 286.5Q580.5 287.5 579.5 289.0Q577.5 289.5 576.5 301.75Q575.5 314.0 575.5 329.0Q575.5 344.5 575.75 352.75Q576.0 361.0 583.0 365.0Q590.0 369.0 608.75 372.0Q627.5 375.0 664.0 380.5Q689.0 384.0 704.75 386.25Q720.5 388.5 730.0 388.5Q741.5 388.5 745.5 383.75Q749.5 379.0 749.5 367.75Q749.5 356.5 749.5 337.0ZM478.5 207.5 450.5 200.5Q437.5 197.0 430.0 195.25Q422.5 193.5 418.5 193.5Q414.0 193.5 413.5 196.5Q413.0 199.5 413.0 206.5Q413.0 213.5 414.25 216.75Q415.5 220.0 421.0 220.0Q425.0 220.0 432.5 218.25Q440.0 216.5 452.0 213.5ZM749.5 273.0V209.5H666.5Q643.5 209.5 624.0 210.0Q604.5 210.5 592.5 211.25Q580.5 212.0 579.5 213.0Q577.5 214.5 576.5 223.75Q575.5 233.0 575.5 244.5V273.0ZM295.0 83.0Q288.5 76.5 285.5 76.5Q279.0 76.5 279.0 105.0Q279.0 121.0 281.25 127.5Q283.5 134.0 287.5 134.0Q291.5 134.0 295.25 131.75Q299.0 129.5 300.0 127.0Q301.5 125.0 308.75 120.25Q316.0 115.5 324.0 112.0L345.5 103.5L323.5 96.0Q314.5 92.5 306.25 88.5Q298.0 84.5 295.0 83.0ZM388.5 150.0Q389.5 147.5 382.25 146.0Q375.0 144.5 363.5 144.5Q346.0 144.5 342.0 146.75Q338.0 149.0 340.5 155.0Q343.0 159.5 345.75 168.0Q348.5 176.5 351.5 184.0Q354.0 192.0 357.0 197.5Q360.0 203.0 362.0 203.0Q363.0 203.0 367.0 195.75Q371.0 188.5 375.0 179.0Q380.5 168.0 384.0 159.75Q387.5 151.5 388.5 150.0ZM553.5 134.0 543.0 96.0 516.0 95.5Q493.0 95.0 467.0 96.25Q441.0 97.5 416.75 100.25Q392.5 103.0 374.0 106.5Q355.5 110.0 347.5 114.0Q339.0 118.0 332.5 122.5Q326.0 127.0 326.0 128.5Q326.0 130.5 338.75 132.25Q351.5 134.0 369.5 134.0Q387.0 134.0 400.0 135.0Q413.0 136.0 413.0 137.0Q413.0 137.5 409.0 144.5Q405.0 151.5 398.5 160.5Q392.5 169.0 386.75 181.75Q381.0 194.5 378.0 203.0Q375.5 211.5 374.0 227.0Q372.5 242.5 372.25 260.25Q372.0 278.0 372.75 294.25Q373.5 310.5 375.0 321.75Q376.5 333.0 378.5 334.5Q381.5 336.0 395.75 339.0Q410.0 342.0 430.75 345.5Q451.5 349.0 474.25 352.25Q497.0 355.5 517.25 357.75Q537.5 360.0 550.75 361.0Q564.0 362.0 565.0 360.5Q567.5 358.5 568.25 347.0Q569.0 335.5 568.0 321.5L566.0 287.5L537.0 289.0Q525.0 290.0 511.0 292.25Q497.0 294.5 474.0 298.75Q451.0 303.0 411.0 311.0Q405.0 312.5 402.5 312.5Q397.5 312.5 397.25 306.75Q397.0 301.0 398.0 284.0Q399.0 268.0 400.25 261.5Q401.5 255.0 409.0 255.0Q414.5 255.0 423.5 257.5Q432.5 260.0 447.5 264.5Q456.0 266.5 469.0 268.5Q482.0 270.5 496.0 271.75Q510.0 273.0 521.0 273.0H563.0L565.0 244.0Q566.5 213.5 560.0 211.5Q556.5 210.0 543.25 211.0Q530.0 212.0 511.5 215.0Q493.0 218.0 472.5 222.0Q452.0 226.0 434.5 230.5Q420.0 234.0 409.75 236.0Q399.5 238.0 398.5 237.0Q398.5 236.0 398.75 226.5Q399.0 217.0 400.0 204.5Q401.5 187.5 403.0 181.75Q404.5 176.0 408.5 176.0Q411.5 176.0 415.0 177.5Q479.0 197.0 528.5 197.0Q549.0 197.0 557.25 194.0Q565.5 191.0 564.0 177.75Q562.5 164.5 553.5 134.0ZM593.5 57.5 604.5 36.0 569.5 34.0Q540.5 32.5 536.25 37.5Q532.0 42.5 543.0 63.0Q546.0 69.5 549.75 80.5Q553.5 91.5 555.5 100.5Q560.0 124.5 565.0 124.5Q570.0 124.5 576.0 103.5Q578.5 93.5 583.5 79.5Q588.5 65.5 593.5 57.5ZM782.5 31.0Q784.0 27.0 777.0 25.25Q770.0 23.5 749.5 23.5Q734.0 23.5 726.25 23.75Q718.5 24.0 717.25 28.5Q716.0 33.0 720.25 45.25Q724.5 57.5 733.5 81.5Q740.0 97.5 743.75 104.75Q747.5 112.0 749.5 112.0Q751.0 112.0 752.0 108.0Q753.5 103.0 759.0 88.75Q764.5 74.5 771.25 58.0Q778.0 41.5 782.5 31.0ZM693.5 11.0Q694.5 10.0 699.75 10.0Q705.0 10.0 713.0 10.0Q721.5 10.0 732.0 10.0Q742.5 10.0 754.5 11.0Q836.0 13.5 805.5 25.5Q802.0 26.5 794.5 37.5Q787.0 48.5 781.0 63.0L764.0 115.5V135.0L762.5 253.0Q762.5 295.5 761.75 331.0Q761.0 366.5 760.25 387.5Q759.5 408.5 758.0 408.0Q754.0 405.5 746.0 403.5Q738.0 401.5 721.25 399.0Q704.5 396.5 673.5 392.5Q644.5 388.5 626.0 386.0Q607.5 383.5 597.5 383.5Q581.5 383.5 580.25 390.5Q579.0 397.5 579.5 414.5Q582.5 446.5 576.0 446.5Q573.0 446.5 571.25 437.5Q569.5 428.5 569.5 413.0V378.5L509.0 369.5Q479.0 365.0 453.75 362.75Q428.5 360.5 411.0 360.5Q390.5 360.5 382.0 363.5Q375.5 365.5 374.5 372.5Q373.5 379.5 376.0 401.5Q379.5 436.0 373.0 436.0Q369.5 436.0 367.75 426.25Q366.0 416.5 366.0 400.5V366.0H338.5Q327.5 366.0 307.75 368.25Q288.0 370.5 271.0 374.0Q254.0 377.5 241.5 379.0Q229.0 380.5 227.5 380.0Q227.0 379.0 229.25 372.0Q231.5 365.0 235.0 355.5L243.5 332.5L217.5 329.0Q206.5 328.0 184.75 326.75Q163.0 325.5 143.0 325.5H95.0L99.0 357.0Q102.0 389.0 94.0 389.0Q91.5 389.0 90.0 380.5Q88.5 372.0 88.5 357.0Q88.5 325.5 81.5 325.5Q79.0 325.5 69.5 333.0Q60.0 340.5 50.0 350.5Q40.5 360.0 32.25 366.25Q24.0 372.5 21.5 372.5Q21.0 371.0 21.25 351.5Q21.5 332.0 22.5 306.0L26.5 244.0L52.0 267.5Q72.5 287.0 80.5 287.0Q92.5 287.0 82.5 248.0Q79.5 234.5 74.0 218.75Q68.5 203.0 62.25 189.0Q56.0 175.0 50.75 166.0Q45.5 157.0 42.5 157.0Q40.5 157.0 37.0 158.75Q33.5 160.5 32.5 163.0Q29.5 169.0 26.0 169.0Q18.0 169.0 18.0 137.0Q18.0 124.0 16.75 110.5Q15.5 97.0 12.5 90.5Q10.5 85.0 10.25 80.0Q10.0 75.0 12.0 74.0Q13.5 72.5 25.75 77.0Q38.0 81.5 53.5 88.5L90.5 108.0L173.5 106.5Q196.5 105.5 215.25 105.75Q234.0 106.0 245.5 106.75Q257.0 107.5 257.0 108.5Q257.0 110.0 245.0 112.0Q233.0 114.0 212.5 116.0Q192.0 118.0 166.5 119.5Q131.0 122.0 110.25 124.25Q89.5 126.5 78.75 129.5Q68.0 132.5 61.5 137.0L44.5 148.5L86.5 150.0Q104.0 151.0 116.25 152.25Q128.5 153.5 128.5 155.0Q128.5 157.0 124.0 164.75Q119.5 172.5 113.5 181.0Q107.0 190.5 103.5 198.75Q100.0 207.0 98.75 218.75Q97.5 230.5 97.0 251.5Q97.0 274.0 97.75 284.25Q98.5 294.5 101.5 298.25Q104.5 302.0 112.0 305.5Q117.5 308.0 139.25 311.0Q161.0 314.0 186.0 315.5L245.0 318.0V295.5Q245.0 274.0 252.0 274.0Q258.5 274.0 275.0 287.5Q283.0 293.5 297.75 301.75Q312.5 310.0 326.0 316.5L358.0 331.0L359.5 291.5Q361.5 260.0 353.75 226.5Q346.0 193.0 330.0 158.0L316.0 130.0L297.5 143.0Q288.5 148.5 281.5 152.75Q274.5 157.0 273.0 157.0Q272.0 157.0 270.75 146.25Q269.5 135.5 268.25 119.75Q267.0 104.0 266.0 87.75Q265.0 71.5 265.0 60.0Q265.0 48.5 266.0 47.0Q267.0 47.0 274.0 51.75Q281.0 56.5 289.5 63.0Q299.0 70.0 312.0 77.0Q325.0 84.0 334.5 85.0Q339.0 86.0 351.75 86.5Q364.5 87.0 381.5 87.0Q403.5 87.0 429.0 86.25Q454.5 85.5 478.0 84.5Q501.5 83.5 516.75 82.0Q532.0 80.5 533.5 79.0Q535.0 78.0 532.25 68.5Q529.5 59.0 524.5 47.0L512.5 19.5L568.0 21.5Q591.5 22.5 608.5 23.0Q625.5 23.5 626.0 23.5Q626.5 23.5 622.75 30.25Q619.0 37.0 613.5 45.5Q598.5 68.0 590.25 93.5Q582.0 119.0 577.5 156.0L574.0 197.0H751.0L747.5 172.0Q745.0 159.0 740.5 141.25Q736.0 123.5 730.0 104.25Q724.0 85.0 717.75 68.0Q711.5 51.0 705.5 39.5Q700.5 28.0 697.0 19.75Q693.5 11.5 693.5 11.0Z" fill="black" /></svg>