<svg xmlns="http://www.w3.org/2000/svg" width="822.0" height="455.5" viewBox="0 0 822.0 455.5"><path d="M67.0 254.0 48.0 241.5Q40.0 236.0 33.5 232.0Q27.0 228.0 27.0 228.0Q26.5 228.0 25.75 235.25Q25.0 242.5 24.5 252.5Q24.5 263.5 24.75 270.5Q25.0 277.5 26.0 277.5Q27.0 277.5 33.25 274.25Q39.5 271.0 47.0 266.0ZM517.0 198.0Q521.0 187.0 523.5 179.25Q526.0 171.5 525.0 171.0Q523.0 171.0 514.0 177.25Q505.0 183.5 492.75 193.0Q480.5 202.5 468.25 212.5Q456.0 222.5 447.5 230.0Q439.0 237.5 438.0 239.5Q437.5 241.0 446.0 244.75Q454.5 248.5 467.0 252.5Q479.5 256.0 490.75 259.5Q502.0 263.0 506.0 264.0Q511.5 266.0 512.25 262.75Q513.0 259.5 510.5 246.0Q509.5 233.5 510.75 222.0Q512.0 210.5 517.0 198.0ZM530.5 231.5Q530.5 206.5 528.0 206.5Q526.5 206.5 523.5 214.5Q519.5 224.5 520.25 237.0Q521.0 249.5 525.0 252.5Q525.5 253.0 525.75 253.0Q526.0 253.0 526.0 253.0Q528.5 253.0 529.5 247.0Q530.5 241.0 530.5 231.5ZM221.0 98.5 203.5 91.0Q196.0 87.5 185.75 81.5Q175.5 75.5 168.5 70.5L150.0 56.0V133.0ZM245.5 152.0 256.0 133.5H231.0Q220.5 133.5 213.0 134.0Q205.5 134.5 205.5 135.5Q205.5 137.0 208.5 143.75Q211.5 150.5 215.75 159.0Q220.0 167.5 223.75 173.75Q227.5 180.0 229.5 180.0Q231.0 180.0 231.5 178.0Q232.5 174.5 236.5 167.0Q240.5 159.5 245.5 152.0ZM471.0 35.0H444.5Q433.5 35.0 421.75 33.75Q410.0 32.5 404.5 30.5Q402.0 29.5 400.25 29.5Q398.5 29.5 397.0 29.5Q392.5 29.5 394.5 35.0Q396.0 38.5 401.5 52.0Q407.0 65.5 413.5 80.5L428.0 118.5L434.5 95.5Q438.0 86.0 444.0 74.0Q450.0 62.0 456.5 54.0ZM627.5 42.5 642.0 23.0H603.0Q587.0 23.0 575.5 23.5Q564.0 24.0 564.0 25.0Q564.0 25.5 569.75 37.0Q575.5 48.5 583.0 65.0L601.0 103.0L607.5 82.0Q609.5 73.5 615.75 62.0Q622.0 50.5 627.5 42.5ZM65.0 365.5Q61.5 365.5 54.25 361.25Q47.0 357.0 39.5 352.0L23.5 337.5V403.5L42.5 391.0Q51.0 385.0 58.25 381.25Q65.5 377.5 67.5 377.5Q72.5 377.5 72.5 371.0Q72.5 369.0 70.5 367.25Q68.5 365.5 65.0 365.5ZM305.0 341.0Q296.5 333.0 289.75 327.5Q283.0 322.0 281.5 322.0Q281.0 322.0 278.0 332.75Q275.0 343.5 272.5 358.5Q270.0 374.5 267.0 389.0Q264.0 403.5 262.5 408.0Q261.0 415.0 264.5 415.0Q268.5 415.0 278.0 410.75Q287.5 406.5 307.0 397.5Q326.5 387.5 340.25 380.0Q354.0 372.5 354.0 371.0Q354.0 366.5 340.5 364.0Q335.0 362.5 324.5 355.75Q314.0 349.0 305.0 341.0ZM503.5 278.5Q495.5 274.0 482.5 269.25Q469.5 264.5 460.0 262.5L437.5 257.0V360.0H530.5Q557.0 360.0 578.25 359.75Q599.5 359.5 612.0 359.0Q624.5 358.5 624.5 358.5Q624.5 357.5 616.0 351.5Q607.5 345.5 593.5 336.25Q579.5 327.0 563.25 316.5Q547.0 306.0 531.25 296.0Q515.5 286.0 503.5 278.5ZM597.5 239.0Q597.5 237.5 589.5 233.25Q581.5 229.0 570.5 224.5L543.0 212.5L540.5 239.5Q540.5 250.0 540.75 257.5Q541.0 265.0 542.5 265.0Q543.0 264.0 551.75 260.5Q560.5 257.0 571.5 252.5Q582.5 248.5 590.0 244.25Q597.5 240.0 597.5 239.0ZM603.0 327.5V291.5Q603.0 272.5 601.5 264.25Q600.0 256.0 593.0 256.0Q587.0 256.0 571.5 263.0Q547.5 274.0 549.0 284.5Q550.5 295.0 577.5 312.0ZM13.5 249.5Q13.5 229.0 15.0 214.75Q16.5 200.5 18.0 200.5Q20.0 200.5 24.0 204.25Q28.0 208.0 31.5 213.5Q40.0 226.0 52.25 232.75Q64.5 239.5 86.75 241.75Q109.0 244.0 146.5 244.0Q178.5 244.0 197.5 245.75Q216.5 247.5 216.5 249.5Q216.5 252.5 200.0 253.75Q183.5 255.0 155.5 255.0Q124.0 255.0 104.25 257.75Q84.5 260.5 69.5 267.25Q54.5 274.0 36.0 287.0Q28.5 292.0 22.75 295.75Q17.0 299.5 16.0 299.5Q15.0 299.5 14.25 284.75Q13.5 270.0 13.5 249.5ZM542.5 10.5Q542.5 10.0 554.5 10.0Q566.5 10.0 584.0 10.75Q601.5 11.5 619.25 12.5Q637.0 13.5 649.5 14.25Q662.0 15.0 663.0 16.0Q664.0 16.5 659.75 22.5Q655.5 28.5 648.5 36.0Q634.5 51.0 627.0 65.75Q619.5 80.5 616.75 102.5Q614.0 124.5 614.0 162.0V228.0H713.5Q759.5 228.0 785.75 229.25Q812.0 230.5 812.0 233.5Q812.0 236.0 790.25 237.5Q768.5 239.0 730.0 239.0Q707.5 239.0 686.5 239.5Q665.5 240.0 650.75 240.75Q636.0 241.5 631.0 242.5L614.0 246.0L613.0 289.5L611.0 333.0L631.0 346.5Q642.5 354.5 653.5 357.25Q664.5 360.0 684.5 360.0Q699.0 360.0 709.0 361.75Q719.0 363.5 719.0 365.5Q719.0 367.5 711.25 369.25Q703.5 371.0 692.5 371.0H666.5L684.5 390.0Q695.0 400.5 697.75 406.0Q700.5 411.5 697.5 411.5Q695.0 411.5 688.0 406.75Q681.0 402.0 671.0 392.5L646.5 370.0L512.5 373.0Q472.5 373.5 447.0 374.0Q421.5 374.5 405.75 375.25Q390.0 376.0 380.25 378.0Q370.5 380.0 362.25 383.0Q354.0 386.0 343.0 391.0Q328.0 397.5 308.5 408.25Q289.0 419.0 276.0 427.0Q263.5 435.0 253.75 440.25Q244.0 445.5 242.5 445.5Q241.0 444.0 243.0 433.75Q245.0 423.5 249.0 411.0Q252.0 402.0 255.25 388.75Q258.5 375.5 261.5 361.0Q264.5 346.5 266.0 334.0Q268.5 315.5 272.25 302.0Q276.0 288.5 278.0 288.5Q280.0 288.5 281.25 290.25Q282.5 292.0 282.5 294.0Q282.5 296.5 289.5 305.5Q296.5 314.5 305.0 325.0Q318.0 338.5 330.5 346.0Q343.0 353.5 359.0 356.75Q375.0 360.0 397.5 360.0H426.5L424.5 306.5Q424.0 280.5 423.25 269.25Q422.5 258.0 419.75 255.0Q417.0 252.0 411.0 251.5Q385.0 247.0 412.0 234.5Q418.5 231.5 421.5 228.0Q424.5 224.5 425.5 216.0Q426.5 207.5 426.5 190.0Q426.5 174.0 423.5 154.5Q420.5 135.0 416.5 124.0L407.5 95.5H334.0Q303.0 95.5 284.75 96.5Q266.5 97.5 254.5 100.0Q242.5 102.5 229.0 107.5L197.5 120.0L237.0 122.0Q268.0 123.5 273.75 126.75Q279.5 130.0 268.0 140.0Q264.0 143.5 258.0 152.5Q252.0 161.5 248.0 172.0Q243.5 181.5 241.5 192.5Q239.5 203.5 239.0 222.75Q238.5 242.0 239.0 277.0Q239.5 299.5 239.0 319.0Q238.5 338.5 237.75 351.0Q237.0 363.5 236.0 365.5Q232.0 371.0 167.5 371.0Q141.0 371.0 122.25 372.75Q103.5 374.5 89.25 378.75Q75.0 383.0 62.0 390.5Q49.0 398.0 34.0 410.0Q25.5 416.5 18.5 421.5Q11.5 426.5 10.5 426.5Q10.0 426.5 10.0 415.25Q10.0 404.0 10.5 387.25Q11.0 370.5 11.75 353.25Q12.5 336.0 13.5 324.0Q14.5 312.0 15.0 311.0Q16.0 311.0 21.5 316.25Q27.0 321.5 33.5 329.5Q43.0 340.0 51.75 346.25Q60.5 352.5 72.75 355.5Q85.0 358.5 104.75 359.0Q124.5 359.5 155.5 359.0L229.0 357.5L228.0 288.5Q226.5 233.0 218.75 199.5Q211.0 166.0 192.5 143.5L180.0 128.5L160.0 143.0Q151.5 148.0 145.5 151.0Q139.5 154.0 138.5 152.0Q138.0 146.5 138.25 133.5Q138.5 120.5 138.75 104.0Q139.0 87.5 139.5 72.0Q140.0 56.5 140.75 46.0Q141.5 35.5 142.0 35.0Q142.0 35.0 142.25 34.75Q142.5 34.5 142.5 34.5Q144.5 34.5 150.5 39.0Q156.5 43.5 163.0 49.5Q175.5 61.5 186.0 68.5Q196.5 75.5 210.5 78.75Q224.5 82.0 248.0 83.0Q271.5 84.0 310.5 84.0Q336.0 84.0 357.0 83.75Q378.0 83.5 390.75 82.75Q403.5 82.0 403.5 81.0Q403.5 80.5 399.0 70.75Q394.5 61.0 387.5 48.5Q381.5 36.5 377.5 27.0Q373.5 17.5 375.0 17.0Q375.0 16.0 379.5 16.0Q386.0 16.0 397.5 18.5Q406.0 20.5 423.0 21.75Q440.0 23.0 455.5 23.0Q470.5 23.0 481.5 24.0Q492.5 25.0 492.5 26.0Q492.5 27.5 488.0 32.75Q483.5 38.0 478.0 45.0Q458.0 65.0 449.25 92.25Q440.5 119.5 438.0 166.5L435.5 224.5L449.0 213.5Q540.5 140.5 549.5 122.0Q552.0 116.0 555.0 111.25Q558.0 106.5 559.5 106.5Q563.5 106.5 563.75 112.25Q564.0 118.0 561.25 126.0Q558.5 134.0 553.0 141.0Q548.5 147.0 544.25 156.0Q540.0 165.0 538.5 172.0Q536.5 183.0 539.75 188.75Q543.0 194.5 558.5 205.5Q570.0 213.5 578.0 218.25Q586.0 223.0 591.0 223.0Q598.0 223.0 600.5 213.75Q603.0 204.5 603.0 184.5Q603.0 164.0 596.5 137.0Q590.0 110.0 579.5 83.0Q569.0 56.0 556.0 36.0Q550.5 26.0 546.5 19.0Q542.5 12.0 542.5 10.5Z" fill="black" /></svg>