<svg xmlns="http://www.w3.org/2000/svg" width="514.0" height="386.0" viewBox="0 0 514.0 386.0"><path d="M388.0 266.0Q388.0 264.0 386.0 264.0Q383.0 264.0 368.5 271.5Q363.0 274.0 353.5 277.5Q344.0 281.0 337.0 283.5Q329.5 285.0 323.25 286.75Q317.0 288.5 315.0 289.5Q310.0 290.5 324.0 311.0Q329.5 319.5 334.0 325.75Q338.5 332.0 339.0 333.0Q340.0 333.0 342.25 329.0Q344.5 325.0 346.5 320.0Q349.5 314.5 356.5 304.75Q363.5 295.0 370.5 287.0Q377.5 279.0 382.75 272.75Q388.0 266.5 388.0 266.0ZM112.0 156.5Q119.0 146.5 123.25 138.25Q127.5 130.0 127.0 129.0Q127.0 129.0 126.75 128.75Q126.5 128.5 126.5 128.5Q124.5 128.5 115.5 135.75Q106.5 143.0 94.5 153.5Q82.0 165.5 68.25 177.5Q54.5 189.5 47.5 195.0Q41.0 200.0 35.5 204.25Q30.0 208.5 30.0 209.0Q30.0 210.0 38.25 212.25Q46.5 214.5 57.5 216.5Q68.5 218.5 77.5 219.5Q86.5 220.5 88.0 219.5Q89.5 218.5 91.0 212.5Q92.5 206.5 93.0 199.5Q94.0 191.0 99.0 180.25Q104.0 169.5 112.0 156.5ZM178.0 275.0 212.5 257.0Q207.0 254.5 202.25 253.0Q197.5 251.5 192.0 248.0Q189.5 246.5 185.5 242.75Q181.5 239.0 178.5 237.0L177.0 255.5Q177.0 263.5 177.25 269.25Q177.5 275.0 178.0 275.0ZM207.0 143.0Q208.0 142.5 200.25 140.5Q192.5 138.5 186.0 134.0L170.5 123.5V163.5L184.5 154.5Q191.0 151.0 198.75 147.0Q206.5 143.0 207.0 143.0ZM325.5 126.5 338.5 112.5H323.5Q317.5 112.5 309.0 111.75Q300.5 111.0 294.25 110.5Q288.0 110.0 288.0 111.0Q293.0 121.0 298.5 130.5Q304.0 140.0 307.75 146.0Q311.5 152.0 311.5 152.0Q311.5 152.0 314.0 146.75Q316.5 141.5 319.75 135.5Q323.0 129.5 325.5 126.5ZM369.0 63.5Q366.5 56.5 363.75 51.5Q361.0 46.5 360.0 46.5Q359.5 47.0 354.25 51.75Q349.0 56.5 342.0 63.5L325.5 80.0L338.5 85.5Q344.0 87.0 354.5 92.0Q365.0 97.0 374.5 102.5Q383.0 107.5 389.75 111.5Q396.5 115.5 397.5 115.5Q398.5 114.5 395.5 109.25Q392.5 104.0 388.0 97.5Q383.5 90.5 378.0 80.75Q372.5 71.0 369.0 63.5ZM172.5 64.5Q177.0 57.0 178.75 56.0Q180.5 55.0 181.0 59.0Q181.5 62.0 179.0 67.75Q176.5 73.5 172.5 78.5Q162.0 91.5 148.0 112.25Q134.0 133.0 118.0 161.0Q109.0 176.0 105.25 183.75Q101.5 191.5 101.25 198.25Q101.0 205.0 102.0 217.5Q103.5 229.5 105.25 236.0Q107.0 242.5 112.75 249.5Q118.5 256.5 131.5 270.0Q144.0 282.0 154.5 295.0Q165.0 308.0 171.5 317.5Q178.0 327.0 178.0 330.5Q178.0 334.0 176.0 334.0Q172.0 334.0 164.5 321.0Q161.0 315.0 152.0 304.25Q143.0 293.5 131.5 281.5Q120.0 269.5 108.0 258.5Q96.0 247.5 86.5 240.0Q77.5 233.0 71.5 229.5Q65.5 226.0 58.75 224.25Q52.0 222.5 41.5 222.0Q31.5 221.0 23.0 219.75Q14.5 218.5 12.0 217.5Q10.0 216.5 15.25 211.0Q20.5 205.5 31.5 197.0Q42.5 188.5 59.5 174.0Q76.5 159.5 95.25 142.5Q114.0 125.5 130.75 109.25Q147.5 93.0 159.0 80.75Q170.5 68.5 172.5 64.5ZM271.0 102.0Q271.0 101.0 278.0 101.0Q281.5 101.0 285.75 101.0Q290.0 101.0 295.0 102.0Q305.0 103.0 317.0 104.0Q329.0 105.0 336.0 105.0H354.0L340.5 120.5Q332.5 129.0 328.0 135.25Q323.5 141.5 321.25 150.0Q319.0 158.5 318.25 173.0Q317.5 187.5 317.5 213.0Q317.5 240.0 316.5 257.5Q315.5 275.0 314.5 275.0Q310.5 275.0 309.0 266.0L308.5 258.5H265.0Q241.5 259.0 227.75 261.0Q214.0 263.0 204.0 268.5Q194.0 274.0 181.5 285.5Q177.0 289.5 173.75 291.5Q170.5 293.5 169.5 292.5Q169.0 290.5 169.0 278.5Q169.0 266.5 169.5 251.0L171.0 214.5L187.0 231.0Q197.5 241.5 204.0 245.0Q210.5 248.5 224.5 250.5Q233.5 251.0 248.75 251.0Q264.0 251.0 277.0 251.0H308.5V207.5Q308.5 185.5 307.75 174.75Q307.0 164.0 305.5 159.25Q304.0 154.5 302.5 152.0L297.0 144.0H258.0Q242.5 144.0 233.75 144.5Q225.0 145.0 218.5 147.0Q212.0 149.0 203.5 153.5Q195.0 158.0 187.0 163.0Q179.0 168.0 175.5 171.0Q168.0 178.5 164.5 178.5Q163.5 178.5 162.75 171.5Q162.0 164.5 162.0 153.75Q162.0 143.0 162.25 132.25Q162.5 121.5 163.25 113.75Q164.0 106.0 165.0 105.0Q166.5 103.5 174.0 114.0Q184.0 126.5 201.0 132.5Q218.0 138.5 247.0 138.0L293.5 138.5L280.5 117.5Q277.0 112.5 274.0 108.0Q271.0 103.5 271.0 102.0ZM367.0 22.5Q374.5 10.0 377.5 10.0Q378.0 10.0 379.0 12.5Q380.0 20.5 376.5 24.0Q370.0 30.5 372.75 46.25Q375.5 62.0 387.0 81.0Q399.5 102.5 421.0 125.5Q442.5 148.5 474.0 174.0L504.0 198.0L492.0 204.5Q461.0 221.5 434.25 241.0Q407.5 260.5 387.75 279.75Q368.0 299.0 358.0 316.5Q351.5 327.5 350.0 334.25Q348.5 341.0 350.5 355.5Q353.0 376.0 348.5 376.0Q345.0 376.0 341.5 361.5Q338.5 350.0 331.0 336.5Q323.5 323.0 314.25 311.5Q305.0 300.0 297.0 295.5Q287.5 289.0 286.75 285.0Q286.0 281.0 293.5 281.0Q295.0 281.0 297.5 281.0Q300.0 281.0 302.5 282.0Q312.0 283.5 333.75 276.25Q355.5 269.0 386.75 254.0Q418.0 239.0 454.5 218.0Q467.0 211.0 476.5 205.0Q486.0 199.0 487.0 198.0Q488.0 196.5 477.0 187.25Q466.0 178.0 448.75 164.75Q431.5 151.5 412.5 137.75Q393.5 124.0 377.5 114.0Q364.0 105.5 348.75 98.25Q333.5 91.0 325.0 89.0Q302.5 84.0 299.0 80.75Q295.5 77.5 308.5 75.5Q320.0 73.0 336.75 58.0Q353.5 43.0 367.0 22.5Z" fill="black" /></svg>