<svg xmlns="http://www.w3.org/2000/svg" width="625.0" height="463.0" viewBox="0 0 625.0 463.0"><path d="M88.0 180.0Q82.5 179.0 73.5 173.75Q64.5 168.5 57.5 162.0L40.5 147.5V225.5L70.0 208.5Q83.5 201.0 92.0 194.5Q100.5 188.0 101.0 187.5Q101.0 186.0 97.0 183.75Q93.0 181.5 88.0 180.0ZM261.5 190.5Q261.5 187.5 258.5 187.5Q256.5 187.5 256.5 190.5Q256.5 192.5 258.5 192.5Q261.5 192.5 261.5 190.5ZM316.5 138.5Q314.0 134.5 310.5 130.75Q307.0 127.0 305.0 127.0Q302.0 127.0 297.5 133.75Q293.0 140.5 288.75 149.25Q284.5 158.0 282.75 165.5Q281.0 173.0 283.5 174.5Q288.0 177.0 280.5 185.5Q277.0 187.5 275.25 195.0Q273.5 202.5 273.25 222.5Q273.0 242.5 273.0 282.0L274.5 372.0L349.5 376.0V302.0Q349.5 278.0 349.0 262.0Q348.5 246.0 347.0 234.5Q345.5 223.0 342.75 212.5Q340.0 202.0 336.0 189.5Q331.0 173.0 325.0 158.25Q319.0 143.5 316.5 138.5ZM257.0 122.5Q256.0 119.5 250.25 118.0Q244.5 116.5 239.0 116.5Q234.5 116.5 231.0 117.5Q227.5 118.5 227.5 120.5Q227.5 123.5 231.5 131.75Q235.5 140.0 240.75 149.5Q246.0 159.0 251.0 165.75Q256.0 172.5 258.0 173.0Q260.0 173.0 263.25 170.5Q266.5 168.0 269.0 163.0Q271.5 158.0 276.25 150.75Q281.0 143.5 285.0 137.0Q298.5 117.0 287.5 117.0Q285.5 117.0 282.0 118.0Q278.5 119.0 274.0 120.5Q265.0 125.0 261.0 125.0Q258.0 125.0 257.0 122.5ZM331.0 80.0Q339.5 76.0 335.5 72.5Q331.5 69.0 307.5 57.0L273.0 40.5L271.0 73.0Q270.0 86.5 270.75 96.0Q271.5 105.5 273.0 105.5Q274.0 105.5 282.0 102.5Q290.0 99.5 298.0 95.0Q306.5 90.5 316.5 86.25Q326.5 82.0 331.0 80.0ZM383.0 116.0Q383.0 115.0 370.5 114.5Q358.0 114.0 344.5 114.0Q335.0 114.0 327.75 114.0Q320.5 114.0 319.5 115.0Q318.5 115.5 321.75 124.5Q325.0 133.5 330.5 145.5Q336.0 157.5 339.75 168.0Q343.5 178.5 343.5 180.0Q343.5 187.5 349.5 187.5Q354.5 187.5 354.5 180.0Q354.5 177.0 358.75 166.75Q363.0 156.5 368.0 146.0Q374.0 134.5 378.5 126.0Q383.0 117.5 383.0 116.0ZM520.5 127.0 501.0 74.5 443.0 73.5Q419.5 73.0 404.0 73.75Q388.5 74.5 376.5 77.0Q364.5 79.5 350.5 84.5Q326.5 92.0 322.75 95.0Q319.0 98.0 327.0 101.0Q330.5 102.0 336.75 102.5Q343.0 103.0 351.0 103.0Q357.0 103.0 363.25 102.75Q369.5 102.5 375.5 102.0Q382.5 101.0 388.75 100.5Q395.0 100.0 400.0 100.0Q410.0 100.0 410.0 102.0Q410.0 103.0 404.5 111.25Q399.0 119.5 390.5 129.5Q378.0 146.0 371.25 165.5Q364.5 185.0 362.5 214.75Q360.5 244.5 362.0 292.5L363.0 372.0H539.5V276.0Q539.5 247.0 539.25 228.25Q539.0 209.5 538.0 196.75Q537.0 184.0 535.0 174.0Q533.0 164.0 529.5 153.25Q526.0 142.5 520.5 127.0ZM586.5 43.5Q586.5 42.5 573.5 41.75Q560.5 41.0 543.0 41.0Q525.0 41.5 512.0 42.75Q499.0 44.0 499.0 46.0Q499.0 48.0 502.0 55.75Q505.0 63.5 510.5 73.0Q515.0 82.5 521.0 97.0Q527.0 111.5 529.5 124.0L539.0 152.0L550.5 116.0Q555.0 101.5 562.25 86.0Q569.5 70.5 575.0 62.5Q579.5 55.5 583.0 49.75Q586.5 44.0 586.5 43.5ZM68.5 356.0Q56.0 350.5 46.75 346.75Q37.5 343.0 37.0 343.0Q36.5 343.0 36.0 353.5Q35.5 364.0 35.5 379.0Q35.5 398.0 37.0 406.0Q38.5 414.0 45.5 414.0Q52.0 414.0 66.0 408.0Q73.0 405.5 90.0 400.75Q107.0 396.0 125.5 392.0L169.5 383.0L133.5 376.0Q118.5 373.0 99.5 367.25Q80.5 361.5 68.5 356.0ZM261.5 107.0V10.0L281.5 27.5Q294.0 38.5 304.75 45.25Q315.5 52.0 329.0 55.25Q342.5 58.5 363.25 59.75Q384.0 61.0 416.0 61.0H494.0L484.5 47.0Q481.5 42.0 478.75 37.25Q476.0 32.5 476.0 31.5Q476.0 30.5 496.5 30.0Q517.0 29.5 546.0 29.5Q574.5 29.5 594.75 29.75Q615.0 30.0 615.0 30.0Q615.0 31.0 610.25 36.75Q605.5 42.5 598.5 49.5Q591.5 56.5 583.0 69.25Q574.5 82.0 569.0 93.0Q565.5 100.5 563.0 107.25Q560.5 114.0 559.0 125.0Q557.5 136.0 557.0 155.0Q556.5 174.0 556.0 205.25Q555.5 236.5 555.0 285.0Q554.5 335.5 553.5 373.25Q552.5 411.0 551.0 432.0Q549.5 453.0 547.5 453.0Q545.5 453.0 544.25 443.0Q543.0 433.0 543.0 419.5V387.0H358.0L363.0 408.0Q364.5 417.5 363.5 424.75Q362.5 432.0 360.0 433.5Q359.5 433.5 359.5 433.75Q359.5 434.0 359.0 434.0Q354.5 434.0 354.5 412.0V387.0H272.5V411.5Q272.5 435.5 267.0 435.5Q262.0 435.5 259.5 409.5L258.5 384.5L233.0 385.0Q218.5 386.5 195.75 390.25Q173.0 394.0 147.5 399.5Q122.0 405.0 98.5 411.0Q75.0 417.0 59.5 422.5Q29.5 432.5 20.0 432.5Q10.0 432.5 19.0 422.5Q21.5 418.5 23.25 404.5Q25.0 390.5 25.0 371.5Q25.0 344.5 26.25 333.5Q27.5 322.5 31.5 322.5Q34.5 322.5 39.5 327.0Q43.5 330.5 57.5 337.75Q71.5 345.0 88.0 350.5Q104.5 357.5 117.25 361.0Q130.0 364.5 147.5 366.0Q165.0 367.5 194.5 368.5L262.0 371.5L259.5 298.0Q259.0 277.0 257.5 257.75Q256.0 238.5 254.0 224.5Q252.0 210.5 249.5 206.0L243.0 187.5H188.0Q162.5 187.5 148.5 188.5Q134.5 189.5 124.5 193.0Q114.5 196.5 100.5 203.5Q87.0 210.0 72.5 219.25Q58.0 228.5 49.5 234.0Q42.0 240.0 35.75 244.25Q29.5 248.5 28.5 248.5Q28.0 248.5 27.75 230.0Q27.5 211.5 28.0 185.5Q29.0 159.0 29.75 140.5Q30.5 122.0 32.0 122.0Q33.0 122.0 38.75 127.0Q44.5 132.0 51.5 140.0Q65.0 155.0 78.25 163.0Q91.5 171.0 112.25 173.75Q133.0 176.5 168.0 176.5Q194.5 176.5 214.0 175.5Q233.5 174.5 235.0 173.0Q236.5 171.5 232.75 161.0Q229.0 150.5 222.0 138.0Q215.5 124.0 210.75 114.0Q206.0 104.0 206.0 103.5Q206.0 102.5 214.0 102.75Q222.0 103.0 233.0 104.0Z" fill="black" /></svg>