<svg xmlns="http://www.w3.org/2000/svg" width="529.0" height="453.5" viewBox="0 0 529.0 453.5"><path d="M268.5 335.0Q269.5 334.0 268.25 325.25Q267.0 316.5 263.5 305.5L254.0 280.0L226.0 304.0L198.0 329.0L232.5 333.0Q246.0 334.5 257.0 335.0Q268.0 335.5 268.5 335.0ZM109.0 197.0Q107.5 194.0 105.0 184.5Q102.5 175.0 100.0 164.5L96.0 138.5L67.0 167.5Q53.5 181.5 48.25 187.5Q43.0 193.5 45.5 195.0Q48.0 196.5 56.0 196.5Q63.0 196.5 73.75 197.75Q84.5 199.0 93.0 200.5Q100.5 202.5 105.5 202.5Q112.0 202.5 109.0 197.0ZM212.5 119.5Q201.0 117.0 184.25 115.25Q167.5 113.5 154.5 113.5Q134.5 113.5 128.25 116.25Q122.0 119.0 118.5 130.5Q102.5 166.5 127.5 195.5Q133.5 202.5 145.0 213.0Q156.5 223.5 170.25 234.75Q184.0 246.0 197.25 256.25Q210.5 266.5 220.0 272.75Q229.5 279.0 232.0 279.0Q234.5 279.0 241.75 272.75Q249.0 266.5 257.0 258.5Q264.5 249.5 276.5 238.0Q288.5 226.5 299.0 219.0Q309.0 211.5 315.0 205.0Q321.0 198.5 321.0 196.5Q319.5 191.5 310.25 183.0Q301.0 174.5 287.5 164.25Q274.0 154.0 259.5 144.5Q245.0 135.0 232.5 128.25Q220.0 121.5 212.5 119.5ZM372.0 242.0 364.5 179.0Q364.5 179.0 356.0 186.25Q347.5 193.5 336.0 204.0Q324.5 213.5 316.75 221.5Q309.0 229.5 310.0 231.0Q311.0 231.5 320.5 233.5Q330.0 235.5 342.0 237.0ZM212.0 104.5Q212.0 104.0 210.75 94.75Q209.5 85.5 208.5 72.0L204.5 41.5L141.0 98.0L176.0 102.5Q190.0 103.5 200.75 104.5Q211.5 105.5 212.0 104.5ZM188.5 37.5Q200.0 25.5 208.75 17.75Q217.5 10.0 220.0 10.0Q222.5 10.5 222.5 22.75Q222.5 35.0 221.5 50.5L219.5 88.5L252.5 120.5Q267.0 133.0 284.0 147.0Q301.0 161.0 311.5 168.0L336.0 186.0L356.0 166.0Q365.0 157.0 372.5 150.75Q380.0 144.5 382.0 144.5Q383.5 144.5 383.5 153.25Q383.5 162.0 382.0 173.0Q379.5 191.0 380.5 203.0Q381.5 215.0 388.25 226.0Q395.0 237.0 409.75 250.75Q424.5 264.5 450.0 285.5Q491.5 320.0 505.25 334.5Q519.0 349.0 510.5 349.0Q510.0 349.0 493.25 337.0Q476.5 325.0 455.0 307.0Q427.0 284.0 404.5 271.25Q382.0 258.5 360.0 253.0Q338.0 247.5 311.5 247.5Q296.0 247.5 288.25 250.75Q280.5 254.0 278.0 263.75Q275.5 273.5 275.5 293.0Q275.0 303.5 278.25 313.0Q281.5 322.5 290.75 333.25Q300.0 344.0 317.25 359.0Q334.5 374.0 362.0 396.0Q382.5 412.0 397.25 425.5Q412.0 439.0 412.0 442.5Q412.0 443.5 410.5 443.5Q406.5 443.5 390.0 432.25Q373.5 421.0 352.0 404.0Q332.5 388.0 319.0 378.25Q305.5 368.5 295.5 362.75Q285.5 357.0 276.0 353.75Q266.5 350.5 254.0 348.5Q239.0 346.0 221.25 344.75Q203.5 343.5 193.5 344.0Q183.5 345.0 176.25 344.0Q169.0 343.0 169.0 340.5Q169.0 337.5 176.25 329.75Q183.5 322.0 193.5 313.0L217.0 291.5L192.0 269.0Q172.0 251.5 157.75 240.75Q143.5 230.0 130.5 224.0Q117.5 218.0 102.25 215.25Q87.0 212.5 65.0 211.0Q42.0 209.5 26.0 206.75Q10.0 204.0 10.0 202.0Q10.0 199.5 14.0 195.5Q18.0 191.5 23.5 187.5Q28.0 184.0 42.0 172.0Q56.0 160.0 75.25 142.5Q94.5 125.0 115.75 105.75Q137.0 86.5 156.25 68.5Q175.5 50.5 188.5 37.5Z" fill="black" /></svg>