<svg xmlns="http://www.w3.org/2000/svg" width="590.5" height="389.0" viewBox="0 0 590.5 389.0"><path d="M70.0 229.0Q65.0 227.0 56.25 222.0Q47.5 217.0 40.0 211.0L21.5 196.5V271.0L44.5 256.0Q54.5 249.5 63.25 245.25Q72.0 241.0 74.5 241.0Q82.0 241.0 80.25 236.25Q78.5 231.5 70.0 229.0ZM324.5 252.0Q327.5 246.5 326.0 246.5Q324.0 246.5 302.5 262.0L281.5 277.0L298.0 283.0Q307.0 286.0 310.0 286.0Q314.0 286.0 315.0 283.0Q316.0 280.0 317.5 273.0Q318.5 267.0 320.5 260.5Q322.5 254.0 324.5 252.0ZM401.0 250.5Q406.5 241.5 402.5 241.5Q399.0 241.5 381.5 255.0Q367.5 267.0 367.5 270.75Q367.5 274.5 383.0 278.5Q388.5 280.0 391.0 280.0Q396.5 280.0 396.5 271.0Q396.5 260.5 401.0 250.5ZM491.5 235.0Q496.0 225.0 489.75 227.5Q483.5 230.0 465.5 246.0Q451.0 259.0 448.75 262.5Q446.5 266.0 452.5 268.5Q456.5 269.5 462.75 271.5Q469.0 273.5 473.5 275.5Q477.0 277.5 480.0 277.5Q482.5 277.5 483.75 274.0Q485.0 270.5 485.5 262.0Q486.5 254.5 488.25 246.5Q490.0 238.5 491.5 235.0ZM179.0 98.5H160.0Q152.0 98.5 144.25 97.5Q136.5 96.5 133.0 95.5Q130.0 94.0 128.0 94.0Q124.5 94.0 126.75 101.25Q129.0 108.5 137.0 129.0Q150.0 161.0 153.5 161.0Q155.0 161.0 155.0 154.0Q155.0 150.0 158.5 140.25Q162.0 130.5 167.0 121.0ZM241.0 205.5Q238.0 182.0 229.25 157.0Q220.5 132.0 210.5 111.0L200.5 93.0L191.0 104.5Q177.0 119.5 169.75 138.75Q162.5 158.0 161.0 187.5L158.0 226.5H245.0ZM260.0 121.5 271.0 99.0 245.0 97.5Q234.0 97.0 225.5 97.0Q217.0 97.0 216.5 97.5Q215.5 98.5 217.25 103.25Q219.0 108.0 221.5 115.0Q225.0 120.5 229.0 130.25Q233.0 140.0 236.0 147.0Q240.5 160.0 242.5 160.0Q244.0 160.0 245.5 154.5Q246.5 150.5 251.0 141.0Q255.5 131.5 260.0 121.5ZM340.0 133.5Q342.5 127.5 344.25 122.75Q346.0 118.0 345.5 118.0Q345.0 118.5 337.5 124.5Q330.0 130.5 320.0 139.5L296.0 160.5L311.5 163.5Q328.5 165.5 330.5 157.5Q331.5 154.0 334.0 147.0Q336.5 140.0 340.0 133.5ZM433.0 113.5Q440.5 98.5 439.0 98.5Q438.5 99.0 431.0 105.0Q423.5 111.0 413.5 120.0L389.5 141.0L404.0 144.0Q411.0 145.5 415.0 145.5Q425.5 145.5 425.5 135.0Q425.5 131.5 428.0 125.25Q430.5 119.0 433.0 113.5ZM512.5 106.0Q515.0 98.0 516.75 91.75Q518.5 85.5 518.0 85.5Q517.0 85.5 510.25 91.25Q503.5 97.0 495.25 104.75Q487.0 112.5 481.0 118.75Q475.0 125.0 475.0 126.0Q475.0 127.0 479.5 127.25Q484.0 127.5 490.0 127.0Q500.0 126.0 504.0 122.25Q508.0 118.5 512.5 106.0ZM356.5 91.5Q374.0 74.0 387.75 61.5Q401.5 49.0 402.5 49.0Q406.5 49.0 399.75 60.75Q393.0 72.5 377.5 92.5Q358.0 118.5 350.25 136.0Q342.5 153.5 344.5 166.5Q346.5 173.0 348.5 177.75Q350.5 182.5 351.5 182.5Q353.0 182.5 361.75 188.75Q370.5 195.0 381.5 205.0L407.0 228.0L422.0 212.5Q433.5 199.5 439.0 199.5Q441.5 199.5 441.0 202.5Q440.5 205.5 436.0 211.0Q434.0 214.5 428.5 224.25Q423.0 234.0 417.5 244.5Q411.0 257.0 408.75 263.0Q406.5 269.0 407.75 273.75Q409.0 278.5 413.0 287.5Q416.5 294.5 419.75 300.0Q423.0 305.5 425.0 305.5Q427.5 305.5 434.0 310.5Q440.5 315.5 449.0 323.25Q457.5 331.0 465.5 339.0Q473.5 347.0 478.25 352.75Q483.0 358.5 482.0 360.0Q481.0 362.0 472.25 356.25Q463.5 350.5 452.5 340.5Q425.0 315.5 401.25 300.25Q377.5 285.0 360.5 282.0Q353.0 281.0 346.5 279.0Q340.0 277.0 339.5 275.5Q338.5 274.5 345.75 268.0Q353.0 261.5 364.0 255.0Q375.5 249.0 383.25 242.5Q391.0 236.0 391.0 234.0Q391.0 232.5 387.0 227.0Q383.0 221.5 377.5 215.5L365.0 202.0L359.0 213.0Q356.0 217.5 350.0 228.25Q344.0 239.0 338.5 250.0Q332.5 262.0 330.0 268.0Q327.5 274.0 328.75 278.75Q330.0 283.5 333.5 292.0Q337.0 299.0 343.25 306.5Q349.5 314.0 354.5 317.5Q366.0 325.0 377.75 335.25Q389.5 345.5 397.0 353.75Q404.5 362.0 403.0 364.5Q402.0 366.5 393.75 361.0Q385.5 355.5 374.0 346.0Q348.5 323.5 321.25 307.0Q294.0 290.5 274.0 286.5L253.0 281.5V330.0Q253.0 352.0 251.75 365.5Q250.5 379.0 248.5 379.0Q246.5 379.0 245.0 360.0Q243.5 341.0 243.5 307.5V236.5H159.5V307.5Q159.5 341.0 158.5 360.0Q157.5 379.0 155.0 379.0Q153.0 379.0 151.25 360.0Q149.5 341.0 149.5 307.5V236.5H128.0Q116.0 236.5 98.25 242.0Q80.5 247.5 61.75 257.0Q43.0 266.5 28.0 278.5Q22.0 283.5 16.75 287.0Q11.5 290.5 11.0 290.5Q10.5 290.5 10.25 278.75Q10.0 267.0 10.5 249.75Q11.0 232.5 11.5 215.25Q12.0 198.0 12.75 186.0Q13.5 174.0 14.0 173.5Q15.0 173.5 21.75 179.25Q28.5 185.0 37.0 193.5Q55.0 212.0 74.25 219.25Q93.5 226.5 124.0 226.5Q141.5 226.5 145.5 224.5Q149.5 222.5 149.5 214.5Q149.5 208.5 146.5 195.75Q143.5 183.0 138.5 167.5Q133.5 152.0 128.0 137.25Q122.5 122.5 117.5 112.0Q112.5 102.0 109.0 94.75Q105.5 87.5 105.5 87.0Q105.5 86.0 118.75 86.0Q132.0 86.0 153.0 86.25Q174.0 86.5 197.5 87.0Q221.0 87.5 242.25 88.25Q263.5 89.0 277.25 89.75Q291.0 90.5 291.5 91.0Q292.5 91.5 290.25 95.25Q288.0 99.0 284.0 103.5Q272.5 115.5 266.25 128.0Q260.0 140.5 257.5 160.0Q255.0 179.5 254.5 212.5Q254.0 275.5 258.5 275.5Q262.5 275.5 273.5 269.0Q284.5 262.5 298.5 252.5Q312.5 242.5 325.75 231.75Q339.0 221.0 347.75 212.75Q356.5 204.5 356.5 202.0Q356.5 196.5 347.75 190.5Q339.0 184.5 325.5 179.75Q312.0 175.0 297.5 173.5L267.5 169.5L291.5 151.5Q298.0 146.5 308.75 137.0Q319.5 127.5 332.25 115.25Q345.0 103.0 356.5 91.5ZM450.5 71.5Q486.0 35.0 493.5 35.0Q499.5 35.0 481.0 58.0Q475.5 65.0 466.75 77.75Q458.0 90.5 451.0 101.5Q436.0 126.0 437.5 143.5Q439.0 161.0 458.0 172.5Q465.0 176.5 472.75 183.0Q480.5 189.5 484.0 195.0Q491.5 204.0 498.0 204.0Q506.5 204.0 514.0 189.0Q517.0 184.0 520.25 180.5Q523.5 177.0 525.5 177.0Q530.0 177.0 529.0 184.25Q528.0 191.5 521.5 199.5Q514.0 209.5 507.75 223.25Q501.5 237.0 498.0 250.0Q494.5 263.0 494.75 271.75Q495.0 280.5 500.0 280.5Q502.5 280.5 503.5 283.0Q504.5 285.5 504.5 289.0Q504.5 292.5 509.5 298.5Q514.5 304.5 521.0 308.5Q529.0 314.0 539.25 323.25Q549.5 332.5 558.5 342.0Q567.5 351.5 573.0 358.75Q578.5 366.0 577.0 367.5Q577.0 367.5 576.75 367.5Q576.5 367.5 576.5 367.5Q574.5 367.5 569.0 363.5Q563.5 359.5 557.0 353.5Q540.0 336.0 520.0 320.75Q500.0 305.5 480.75 294.0Q461.5 282.5 445.0 277.5Q422.5 270.5 420.0 268.0Q417.5 265.5 425.5 261.0Q434.0 257.0 444.0 250.0Q454.0 243.0 463.5 235.5Q473.0 228.0 479.0 222.0Q485.0 216.0 485.0 214.0Q485.0 210.5 478.75 203.75Q472.5 197.0 463.0 189.0Q453.5 181.0 442.5 173.75Q431.5 166.5 422.0 162.0Q405.5 153.5 392.0 153.5Q389.5 153.5 386.5 153.5Q383.5 153.5 380.5 154.5Q372.5 155.5 367.25 155.25Q362.0 155.0 362.0 153.0Q362.0 152.0 368.5 145.75Q375.0 139.5 385.0 132.0Q391.5 126.5 402.5 116.75Q413.5 107.0 426.25 95.0Q439.0 83.0 450.5 71.5ZM563.5 22.5Q566.5 17.5 569.5 13.75Q572.5 10.0 574.0 10.0Q580.5 10.0 578.25 18.75Q576.0 27.5 567.5 37.5Q562.5 43.0 553.5 55.75Q544.5 68.5 537.5 80.5Q525.0 100.0 521.5 113.25Q518.0 126.5 524.5 137.5Q531.0 148.5 548.0 162.0Q558.5 170.5 566.0 178.5Q573.5 186.5 573.5 189.0Q573.5 196.0 571.5 196.0Q568.5 196.0 550.0 178.0Q528.5 157.5 505.75 147.0Q483.0 136.5 462.5 139.0Q453.5 139.5 447.0 139.5Q440.5 139.5 440.5 139.0Q440.5 138.0 444.5 134.25Q448.5 130.5 453.5 126.0Q466.5 116.0 484.0 100.5Q501.5 85.0 519.0 68.75Q536.5 52.5 548.75 39.75Q561.0 27.0 563.5 22.5Z" fill="black" /></svg>