<svg xmlns="http://www.w3.org/2000/svg" width="631.5" height="314.0" viewBox="0 0 631.5 314.0"><path d="M78.5 250.5 59.5 242.0Q52.5 237.5 44.25 231.75Q36.0 226.0 32.0 222.5L21.5 213.5V246.5Q21.5 280.5 27.0 280.5Q30.0 280.5 34.5 274.5Q37.0 271.5 44.0 267.0Q51.0 262.5 59.0 259.0ZM238.5 222.0Q228.5 216.5 221.0 213.25Q213.5 210.0 212.5 210.0Q211.5 210.0 211.0 220.5Q210.5 231.0 210.5 245.5Q210.5 259.5 211.0 270.0Q211.5 280.5 212.5 280.5Q213.0 280.5 222.25 277.0Q231.5 273.5 244.0 268.5Q256.0 264.5 271.25 259.25Q286.5 254.0 295.0 252.0L316.5 246.0L289.0 240.0Q278.0 237.5 263.25 232.0Q248.5 226.5 238.5 222.0ZM87.5 78.5 73.5 74.0Q67.5 71.5 58.5 66.5Q49.5 61.5 43.0 56.5L27.0 45.0V77.5Q27.0 91.0 27.5 100.75Q28.0 110.5 29.0 110.5Q30.0 110.5 38.5 105.75Q47.0 101.0 59.0 94.5ZM253.5 45.5Q242.5 40.0 233.75 36.0Q225.0 32.0 224.0 31.5Q223.5 31.5 222.5 42.0Q221.5 52.5 221.0 67.5V105.5L237.5 98.0Q259.5 89.0 275.5 83.25Q291.5 77.5 305.5 75.5Q322.5 72.0 320.75 68.25Q319.0 64.5 299.5 62.0Q291.5 61.0 278.0 56.25Q264.5 51.5 253.5 45.5ZM10.5 246.0Q11.5 223.0 12.75 207.0Q14.0 191.0 14.5 191.0Q15.5 191.0 20.5 195.75Q25.5 200.5 32.0 207.5Q40.5 217.5 48.5 223.75Q56.5 230.0 67.5 233.0Q78.5 236.0 95.5 237.0Q112.5 238.0 139.0 238.0H201.5L200.5 214.5Q200.0 204.5 201.0 197.75Q202.0 191.0 203.0 191.0Q204.0 191.0 211.0 194.75Q218.0 198.5 227.5 204.0Q241.5 213.0 253.5 218.75Q265.5 224.5 280.5 227.75Q295.5 231.0 318.0 232.5Q340.5 234.0 374.5 234.25Q408.5 234.5 459.0 234.5Q534.0 234.0 572.75 234.75Q611.5 235.5 611.5 238.0Q611.5 240.5 587.75 242.0Q564.0 243.5 521.0 243.5Q496.0 243.5 470.0 243.75Q444.0 244.0 423.25 244.5Q402.5 245.0 392.0 245.5Q375.5 246.0 353.75 249.5Q332.0 253.0 308.75 258.5Q285.5 264.0 264.25 271.0Q243.0 278.0 227.5 285.0Q217.5 290.0 209.5 293.0Q201.5 296.0 199.5 296.0Q199.0 296.0 199.0 296.0Q199.0 296.0 199.0 296.0Q197.0 295.0 197.25 287.5Q197.5 280.0 199.5 270.5L201.5 247.5H155.0Q134.0 247.5 122.25 248.5Q110.5 249.5 101.25 252.5Q92.0 255.5 78.0 262.0Q66.0 268.0 51.5 276.5Q37.0 285.0 30.0 290.5Q22.5 296.0 16.75 300.0Q11.0 304.0 10.5 304.0Q10.0 303.0 10.0 286.0Q10.0 269.0 10.5 246.0ZM214.5 67.5 212.5 39.0Q211.0 10.0 216.0 10.0Q218.0 10.0 221.5 16.0Q223.5 19.5 232.75 24.75Q242.0 30.0 254.75 36.0Q267.5 42.0 280.75 46.75Q294.0 51.5 304.0 53.5Q315.5 55.5 361.0 57.0Q406.5 58.5 474.5 58.5Q517.5 58.5 550.75 59.0Q584.0 59.5 602.75 60.5Q621.5 61.5 621.5 63.0Q621.5 64.0 604.0 65.25Q586.5 66.5 556.5 67.25Q526.5 68.0 488.0 69.0Q442.5 69.5 414.5 70.25Q386.5 71.0 369.5 72.5Q352.5 74.0 341.0 76.0Q329.5 78.0 316.5 81.5Q296.0 87.5 275.75 94.5Q255.5 101.5 240.75 107.25Q226.0 113.0 222.5 116.5Q216.5 119.5 211.5 119.5Q206.5 119.5 207.0 112.75Q207.5 106.0 213.0 85.0Q214.5 81.0 212.0 79.25Q209.5 77.5 198.0 77.5Q186.5 77.5 160.0 78.5Q140.0 79.0 127.75 79.5Q115.5 80.0 107.5 81.75Q99.5 83.5 92.5 86.75Q85.5 90.0 75.5 95.5Q63.0 102.0 51.0 110.0Q39.0 118.0 34.0 122.0Q29.0 127.0 24.75 130.5Q20.5 134.0 19.5 134.0Q18.5 134.0 18.0 117.5Q17.5 101.0 17.5 77.5Q17.5 48.0 18.75 34.75Q20.0 21.5 23.5 21.5Q26.0 21.5 30.5 30.5Q33.0 34.5 40.75 41.5Q48.5 48.5 58.0 54.5Q66.0 59.5 71.75 62.0Q77.5 64.5 85.5 65.75Q93.5 67.0 107.75 67.25Q122.0 67.5 147.5 67.5Z" fill="black" /></svg>