<svg xmlns="http://www.w3.org/2000/svg" width="370.0" height="412.5" viewBox="0 0 370.0 412.5"><path d="M105.5 268.0Q110.5 261.0 113.25 256.25Q116.0 251.5 115.0 251.5Q114.0 251.5 103.0 259.0Q92.0 266.5 77.5 278.0L42.5 304.0L61.5 308.0Q67.0 309.0 71.0 309.5Q75.0 310.0 78.5 310.0Q87.0 310.0 90.5 306.5Q94.0 303.0 94.0 295.0Q94.0 290.5 97.25 282.25Q100.5 274.0 105.5 268.0ZM281.5 261.5Q286.5 255.5 289.25 250.75Q292.0 246.0 291.0 246.0Q290.0 246.0 279.0 253.5Q268.0 261.0 253.5 272.0Q238.0 284.0 231.5 289.75Q225.0 295.5 225.5 297.5Q226.0 299.5 231.5 301.5Q238.5 303.5 243.75 304.5Q249.0 305.5 252.5 305.5Q259.5 305.5 262.5 302.25Q265.5 299.0 267.5 291.5Q268.5 285.5 272.75 276.75Q277.0 268.0 281.5 261.5ZM108.0 99.5Q113.0 90.5 117.0 83.5Q121.0 76.5 121.0 76.5Q118.0 77.0 110.25 82.5Q102.5 88.0 92.5 95.75Q82.5 103.5 73.75 111.5Q65.0 119.5 59.5 124.75Q54.0 130.0 55.0 131.0Q56.0 132.0 62.5 134.25Q69.0 136.5 77.0 137.5Q80.5 138.0 83.0 138.75Q85.5 139.5 87.5 139.5Q94.0 139.5 94.0 132.5Q94.0 129.0 98.25 119.0Q102.5 109.0 108.0 99.5ZM284.0 93.5Q289.0 85.0 293.0 78.0Q297.0 71.0 296.0 71.0Q295.5 71.0 288.0 76.75Q280.5 82.5 270.0 90.5Q259.5 98.5 249.25 106.25Q239.0 114.0 235.0 117.0Q225.5 124.5 227.75 127.0Q230.0 129.5 249.5 132.5Q258.0 134.0 262.5 134.0Q270.0 134.0 270.0 127.0Q270.0 123.0 273.75 113.5Q277.5 104.0 284.0 93.5ZM165.5 20.5Q165.5 15.5 171.5 15.5Q185.0 15.5 161.0 44.0Q151.5 55.0 140.25 70.75Q129.0 86.5 120.0 100.5Q111.0 114.5 108.5 120.5Q107.5 124.5 108.5 129.5Q109.5 134.5 112.5 137.5Q116.0 140.0 117.25 144.5Q118.5 149.0 117.5 153.0Q116.5 156.5 122.5 163.0Q128.5 169.5 137.5 176.0Q146.5 182.5 154.5 186.25Q162.5 190.0 165.5 188.0Q167.5 187.0 169.5 188.5Q171.5 190.0 171.5 194.0Q171.5 197.5 173.75 204.0Q176.0 210.5 179.5 216.0Q184.0 222.5 184.25 226.25Q184.5 230.0 182.0 230.0Q178.5 230.0 171.5 221.5Q167.0 215.5 163.5 215.5Q160.5 215.5 152.5 222.5Q142.0 232.5 131.75 247.5Q121.5 262.5 114.25 277.25Q107.0 292.0 105.25 302.0Q103.5 312.0 110.0 312.0Q112.0 312.0 112.5 315.25Q113.0 318.5 112.0 322.5Q110.5 328.0 116.25 334.75Q122.0 341.5 137.0 353.0Q151.5 363.5 161.75 374.0Q172.0 384.5 176.5 392.25Q181.0 400.0 177.0 402.5Q177.0 402.5 176.75 402.5Q176.5 402.5 176.0 402.5Q174.0 402.5 170.0 398.5Q166.0 394.5 161.0 389.5Q156.0 382.5 140.5 369.75Q125.0 357.0 108.0 345.5Q83.5 329.5 70.0 323.5Q56.5 317.5 44.0 317.5Q15.5 317.5 12.75 312.5Q10.0 307.5 32.0 295.0Q41.5 289.5 56.25 279.0Q71.0 268.5 87.25 256.25Q103.5 244.0 117.5 232.5Q131.5 221.0 140.5 213.0Q149.5 205.0 149.5 203.0Q149.5 200.5 141.25 193.5Q133.0 186.5 121.25 177.75Q109.5 169.0 97.75 161.75Q86.0 154.5 78.5 151.5Q72.5 149.5 60.25 146.5Q48.0 143.5 37.0 142.5L10.0 139.5L37.5 122.0Q48.5 115.0 64.75 103.25Q81.0 91.5 98.5 78.0Q116.0 64.5 131.25 52.25Q146.5 40.0 156.0 31.25Q165.5 22.5 165.5 20.5ZM340.0 18.0Q343.0 10.0 348.5 10.0Q352.5 10.0 352.5 15.5Q352.5 17.5 347.75 24.25Q343.0 31.0 337.0 38.0Q329.0 48.0 319.25 61.25Q309.5 74.5 300.5 87.75Q291.5 101.0 286.0 111.0Q280.5 121.0 280.5 124.0Q280.5 131.0 289.5 134.5Q295.0 136.5 295.25 138.0Q295.5 139.5 291.0 142.5Q287.0 145.0 289.25 149.75Q291.5 154.5 302.5 163.5Q310.5 171.0 319.5 176.5Q328.5 182.0 333.5 183.5Q338.5 185.0 344.0 191.25Q349.5 197.5 353.75 205.25Q358.0 213.0 359.0 218.5Q360.0 224.0 355.5 224.0Q352.5 224.0 349.25 221.75Q346.0 219.5 345.0 215.0Q343.0 209.0 340.0 209.0Q336.5 209.0 329.0 217.0Q321.5 225.0 312.5 237.25Q303.5 249.5 295.0 262.25Q286.5 275.0 281.0 284.5Q275.5 294.0 275.5 296.5Q275.5 297.5 277.0 300.25Q278.5 303.0 280.5 304.0Q283.0 305.0 284.75 308.5Q286.5 312.0 286.5 316.0Q286.5 319.5 297.0 331.5Q307.5 343.5 322.0 357.0Q336.5 371.0 346.25 382.25Q356.0 393.5 354.0 396.0Q353.5 397.5 351.0 397.5Q347.0 397.5 339.5 388.5Q333.5 381.5 321.75 371.25Q310.0 361.0 296.75 350.75Q283.5 340.5 271.75 332.5Q260.0 324.5 253.5 322.0Q247.5 319.5 234.75 316.75Q222.0 314.0 209.5 313.0L179.5 309.5L209.5 289.0Q221.5 281.5 236.75 270.5Q252.0 259.5 267.25 247.75Q282.5 236.0 295.5 225.0Q308.5 214.0 316.5 206.5Q324.5 199.0 324.5 197.0Q324.5 195.0 315.0 187.0Q305.5 179.0 292.0 169.5Q273.5 156.5 258.5 150.0Q243.5 143.5 222.0 140.0L184.5 133.5L209.5 119.0Q220.0 113.0 235.75 101.75Q251.5 90.5 269.0 77.25Q286.5 64.0 302.25 51.5Q318.0 39.0 328.5 29.75Q339.0 20.5 340.0 18.0Z" fill="black" /></svg>