<svg xmlns="http://www.w3.org/2000/svg" width="319.5" height="464.0" viewBox="0 0 319.5 464.0"><path d="M212.0 205.0Q212.0 204.0 195.0 204.0Q178.0 204.0 154.0 204.0H95.0L106.0 225.0Q111.0 233.5 116.25 250.75Q121.5 268.0 124.0 283.0L129.5 320.0L148.0 288.0Q153.0 279.5 160.0 268.75Q167.0 258.0 174.75 248.0Q182.5 238.0 188.5 232.0Q198.5 221.0 205.25 213.5Q212.0 206.0 212.0 205.0ZM89.0 26.5Q90.0 25.0 82.25 24.0Q74.5 23.0 63.5 23.0H36.5L47.0 36.5Q52.0 42.5 55.0 49.0Q58.0 55.5 58.0 58.0Q58.0 65.0 61.0 65.0Q65.0 65.0 71.0 56.75Q77.0 48.5 82.25 39.25Q87.5 30.0 89.0 26.5ZM123.5 43.5Q117.0 36.5 113.0 32.75Q109.0 29.0 105.5 29.0Q102.0 29.0 98.75 32.5Q95.5 36.0 90.5 43.0Q80.5 58.5 74.5 72.25Q68.5 86.0 66.0 101.5Q63.5 117.0 63.5 139.0V181.5L80.5 187.0Q87.5 189.0 98.25 191.25Q109.0 193.5 117.0 195.0L137.0 197.5L139.5 156.0Q147.5 72.5 123.5 43.5ZM175.0 31.0Q175.0 30.0 168.0 29.0Q161.0 28.0 151.5 27.5Q141.5 26.5 134.75 26.75Q128.0 27.0 128.5 28.5Q129.5 29.5 132.75 36.0Q136.0 42.5 139.5 51.0L150.5 70.0L162.0 52.0Q167.5 44.5 171.25 38.5Q175.0 32.5 175.0 31.0ZM225.5 91.0Q223.5 73.0 219.75 62.25Q216.0 51.5 207.5 43.0Q196.5 31.0 193.0 31.0Q190.0 31.0 185.0 37.5Q170.0 54.5 162.0 78.5Q154.0 102.5 151.5 140.5Q150.0 161.5 150.5 177.5Q151.0 193.5 152.5 195.0Q154.5 195.5 165.25 195.5Q176.0 195.5 189.5 195.0L222.0 191.5L225.5 158.0Q227.0 143.0 227.0 123.75Q227.0 104.5 225.5 91.0ZM260.0 31.0Q260.0 29.5 253.0 29.0Q246.0 28.5 236.5 28.5H213.0L235.5 69.0L248.5 51.0Q253.0 43.5 256.5 37.5Q260.0 31.5 260.0 31.0ZM10.0 13.0Q10.0 10.5 24.75 10.25Q39.5 10.0 65.5 11.0Q80.5 11.5 103.25 12.25Q126.0 13.0 151.5 14.0Q177.0 15.0 198.5 15.5Q220.5 16.0 238.75 16.75Q257.0 17.5 268.25 18.25Q279.5 19.0 280.0 20.0Q281.5 21.5 279.0 25.75Q276.5 30.0 272.5 35.5Q256.5 52.5 248.0 76.5Q239.5 100.5 237.5 138.0Q235.5 161.0 236.0 175.0Q236.5 189.0 239.0 190.5Q241.5 191.5 251.5 191.0Q261.5 190.5 273.5 187.5Q282.0 186.0 288.5 185.0Q295.0 184.0 299.5 184.0Q307.0 184.0 308.25 186.5Q309.5 189.0 302.5 193.0Q294.5 198.5 279.0 198.5Q256.5 198.5 233.0 211.75Q209.5 225.0 188.5 248.5Q167.5 272.0 153.0 302.0Q146.5 316.5 140.75 340.75Q135.0 365.0 131.25 392.5Q127.5 420.0 127.0 444.0Q127.0 448.0 125.25 451.0Q123.5 454.0 121.5 454.0Q119.0 454.0 118.25 443.25Q117.5 432.5 119.5 409.5Q121.0 391.0 120.25 366.75Q119.5 342.5 117.0 317.5Q114.5 292.5 110.75 271.75Q107.0 251.0 102.5 240.0Q99.0 231.5 92.5 222.5Q86.0 213.5 80.5 209.5Q71.5 201.0 68.0 201.0Q65.0 201.0 60.0 207.5Q58.5 210.0 57.5 210.0Q55.0 210.0 54.25 195.75Q53.5 181.5 52.5 143.5Q52.5 114.0 51.5 95.0Q50.5 76.0 47.5 64.25Q44.5 52.5 38.75 44.5Q33.0 36.5 23.5 29.0Q18.5 25.0 14.25 20.25Q10.0 15.5 10.0 13.0Z" fill="black" /></svg>