<svg xmlns="http://www.w3.org/2000/svg" width="526.5" height="263.5" viewBox="0 0 526.5 263.5"><path d="M67.0 209.0 51.5 202.0Q45.5 198.5 38.75 194.0Q32.0 189.5 28.5 186.0L19.5 178.5V206.0Q19.5 234.0 24.0 234.0Q26.5 234.0 30.5 229.0Q32.5 226.5 38.5 223.0Q44.5 219.5 51.0 216.5ZM199.5 185.5Q191.5 181.5 185.25 178.5Q179.0 175.5 178.0 175.5Q177.0 175.5 176.5 184.25Q176.0 193.0 176.0 205.0Q176.0 217.0 176.5 225.75Q177.0 234.5 178.0 234.5Q178.5 234.5 186.25 231.5Q194.0 228.5 204.0 224.5Q214.0 220.5 226.5 216.25Q239.0 212.0 246.0 210.5L264.0 205.5L241.5 200.5Q232.0 198.5 219.75 194.0Q207.5 189.5 199.5 185.5ZM74.5 67.0 62.5 63.0Q57.5 61.0 50.25 56.75Q43.0 52.5 37.5 48.5L24.5 39.0V66.0Q24.5 77.0 25.0 85.25Q25.5 93.5 26.0 93.5Q26.5 93.5 33.75 89.5Q41.0 85.5 51.0 80.0ZM212.0 39.5Q202.5 35.5 195.5 32.0Q188.5 28.5 187.5 28.0Q187.0 28.0 186.25 36.75Q185.5 45.5 185.0 58.0V89.0L199.0 83.0Q216.5 75.5 230.0 71.0Q243.5 66.5 255.0 64.5Q269.0 62.0 267.5 58.5Q266.0 55.0 250.0 53.0Q243.5 52.0 232.25 48.25Q221.0 44.5 212.0 39.5ZM10.5 205.5Q11.5 186.5 12.5 173.25Q13.5 160.0 14.0 160.0Q15.0 160.0 19.0 164.0Q23.0 168.0 28.5 174.0Q38.0 185.0 47.25 190.25Q56.5 195.5 72.25 197.25Q88.0 199.0 117.0 199.0H169.0L168.0 179.5Q167.5 171.0 168.5 165.5Q169.5 160.0 170.0 160.0Q171.0 160.0 176.75 163.25Q182.5 166.5 190.5 171.0Q202.0 178.0 212.0 182.75Q222.0 187.5 234.5 190.25Q247.0 193.0 265.5 194.25Q284.0 195.5 312.25 195.75Q340.5 196.0 382.5 196.0Q444.5 195.5 476.5 196.25Q508.5 197.0 508.5 199.0Q508.5 201.0 488.75 202.25Q469.0 203.5 433.5 203.5Q413.0 203.5 391.5 203.75Q370.0 204.0 352.5 204.25Q335.0 204.5 326.5 205.0Q308.5 205.5 283.0 210.5Q257.5 215.5 232.5 222.75Q207.5 230.0 190.5 238.0Q172.5 247.0 167.0 247.0Q166.5 247.0 166.5 247.0Q166.5 247.0 166.5 247.0Q165.5 246.0 165.75 240.0Q166.0 234.0 167.0 226.0L169.0 207.0H130.5Q113.0 207.0 103.25 207.75Q93.5 208.5 85.75 210.75Q78.0 213.0 66.5 218.5Q56.5 223.5 44.75 230.5Q33.0 237.5 26.5 242.5Q20.5 247.0 15.75 250.25Q11.0 253.5 10.5 253.5Q10.0 252.5 10.0 238.5Q10.0 224.5 10.5 205.5ZM179.5 58.0 178.0 34.5Q176.5 10.0 181.0 10.0Q182.5 10.0 185.5 15.0Q188.0 18.5 200.25 25.0Q212.5 31.5 227.5 37.5Q242.5 43.5 253.5 46.0Q263.0 48.0 301.0 49.25Q339.0 50.5 395.0 50.5Q430.5 50.5 458.0 51.0Q485.5 51.5 501.0 52.25Q516.5 53.0 516.5 54.0Q516.5 55.0 502.0 56.0Q487.5 57.0 462.75 57.75Q438.0 58.5 406.0 59.0Q368.5 59.5 345.25 60.25Q322.0 61.0 308.0 62.0Q294.0 63.0 284.25 64.75Q274.5 66.5 264.0 69.5Q247.0 74.0 230.25 79.75Q213.5 85.5 201.25 90.5Q189.0 95.5 186.0 98.0Q181.0 101.0 177.0 101.0Q173.5 101.0 173.75 95.25Q174.0 89.5 178.5 72.0Q179.5 68.5 177.5 67.25Q175.5 66.0 165.0 66.0Q160.0 66.0 152.5 66.25Q145.0 66.5 134.5 67.0Q112.5 67.5 101.25 68.25Q90.0 69.0 82.75 71.75Q75.5 74.5 64.5 81.0Q54.5 86.0 44.25 92.5Q34.0 99.0 30.0 103.0Q26.0 107.0 22.5 110.0Q19.0 113.0 18.0 113.0Q17.5 113.0 17.0 99.25Q16.5 85.5 16.5 66.0Q16.5 41.5 17.5 30.5Q18.5 19.5 21.0 19.5Q23.5 19.5 27.0 27.0Q29.0 30.5 35.5 36.25Q42.0 42.0 50.0 47.0Q56.5 51.0 61.25 53.25Q66.0 55.5 72.75 56.5Q79.5 57.5 91.25 57.75Q103.0 58.0 124.0 58.0Z" fill="black" /></svg>