<svg xmlns="http://www.w3.org/2000/svg" width="517.5" height="465.5" viewBox="0 0 517.5 465.5"><path d="M168.5 320.0Q168.5 319.0 155.5 307.5L143.0 296.5V349.0L156.0 336.0Q161.5 330.5 165.5 326.0Q169.5 321.5 168.5 320.0ZM249.5 296.0Q242.0 290.5 236.5 287.25Q231.0 284.0 230.0 284.0Q229.5 284.0 228.5 293.0Q227.5 302.0 226.5 314.5Q226.0 327.0 227.25 335.0Q228.5 343.0 230.0 343.0Q232.5 343.0 240.0 339.5Q247.5 336.0 257.0 331.0Q265.5 326.5 273.75 323.25Q282.0 320.0 284.5 320.0Q293.0 320.0 290.75 316.0Q288.5 312.0 278.5 310.5Q273.5 309.0 265.0 304.75Q256.5 300.5 249.5 296.0ZM79.5 77.0Q79.5 74.5 71.5 73.25Q63.5 72.0 52.0 72.0Q41.5 72.0 33.25 73.25Q25.0 74.5 25.0 75.5Q25.0 77.0 27.75 85.25Q30.5 93.5 34.0 104.0Q37.5 114.0 40.75 127.0Q44.0 140.0 46.0 147.5L49.0 164.0L54.5 147.5Q57.5 140.0 59.25 131.0Q61.0 122.0 61.0 117.0Q61.0 111.5 62.25 107.75Q63.5 104.0 64.5 104.0Q67.0 104.0 70.5 98.75Q74.0 93.5 76.75 87.0Q79.5 80.5 79.5 77.0ZM120.0 146.0 132.5 117.5H75.5L86.5 148.0Q91.0 160.0 94.0 172.0Q97.0 184.0 97.0 189.5Q97.0 193.0 98.5 195.25Q100.0 197.5 101.5 196.0Q106.5 193.5 106.5 183.5Q106.5 179.5 110.25 168.25Q114.0 157.0 120.0 146.0ZM137.5 97.5Q137.5 92.0 136.25 89.5Q135.0 87.0 131.0 87.0Q127.5 87.0 122.0 88.75Q116.5 90.5 108.0 93.5Q86.5 101.5 87.0 104.75Q87.5 108.0 110.5 108.0Q129.5 108.0 133.5 106.75Q137.5 105.5 137.5 97.5ZM205.0 199.0Q205.0 197.5 198.5 193.0Q192.0 188.5 183.5 182.5L161.5 168.0L159.0 193.5Q158.0 203.5 157.5 211.75Q157.0 220.0 157.5 220.0Q160.0 220.0 167.5 217.25Q175.0 214.5 183.5 210.75Q192.0 207.0 198.5 203.5Q205.0 200.0 205.0 199.0ZM378.5 199.0Q385.5 186.0 383.5 186.0Q382.0 186.0 375.0 193.5Q371.5 197.0 370.5 200.25Q369.5 203.5 370.5 204.0Q371.5 205.5 370.0 206.5Q368.5 207.5 365.5 207.5Q361.0 207.5 354.25 211.0Q347.5 214.5 342.0 218.75Q336.5 223.0 336.5 226.0Q336.5 228.5 341.75 229.75Q347.0 231.0 353.5 231.0Q365.0 231.0 368.5 229.25Q372.0 227.5 372.0 222.0Q372.0 217.5 374.0 210.75Q376.0 204.0 378.5 199.0ZM449.0 263.5Q449.0 258.0 444.5 246.0Q440.0 234.0 433.75 220.0Q427.5 206.0 421.25 194.5Q415.0 183.0 411.0 179.0Q407.5 174.0 406.0 174.0Q403.5 174.0 393.5 191.5Q384.0 208.0 381.5 219.5Q379.0 231.0 385.5 231.0Q388.5 231.0 390.5 236.5Q391.0 239.5 400.25 246.5Q409.5 253.5 420.5 259.5L449.0 276.0ZM480.0 174.5Q480.0 173.5 471.5 172.5Q463.0 171.5 450.5 171.5Q438.5 171.5 430.0 172.5Q421.5 173.5 422.0 175.0Q422.5 177.0 427.0 185.25Q431.5 193.5 437.0 204.0L449.5 231.0L456.0 214.5Q458.0 207.5 462.5 199.75Q467.0 192.0 470.5 188.0Q474.5 184.0 477.25 179.75Q480.0 175.5 480.0 174.5ZM189.5 60.5 165.0 55.0Q155.5 53.0 140.5 48.25Q125.5 43.5 116.0 38.5L92.5 28.0V46.0Q92.5 52.5 93.75 58.75Q95.0 65.0 97.0 66.0Q99.5 66.5 98.75 70.75Q98.0 75.0 94.0 80.5Q89.0 87.5 88.75 89.25Q88.5 91.0 92.5 89.5Q96.5 88.0 107.25 84.75Q118.0 81.5 131.0 77.5Q144.0 73.5 155.75 70.0Q167.5 66.5 174.0 65.0ZM190.5 106.0Q179.5 102.0 169.0 98.25Q158.5 94.5 155.5 93.5Q154.0 92.5 151.5 92.5Q148.0 92.5 148.0 110.0Q148.0 119.0 147.0 126.25Q146.0 133.5 144.5 135.5Q142.5 140.0 146.0 140.0Q151.0 140.0 175.5 131.0Q185.5 127.5 195.75 124.75Q206.0 122.0 209.5 122.0Q222.5 122.0 217.25 117.5Q212.0 113.0 190.5 106.0ZM83.5 37.0Q83.5 25.5 84.75 17.75Q86.0 10.0 88.5 10.0Q92.5 10.0 92.5 13.5Q92.5 15.5 99.75 19.75Q107.0 24.0 118.0 29.25Q129.0 34.5 140.5 39.0Q152.0 43.5 160.5 45.0Q166.5 46.0 190.75 47.25Q215.0 48.5 251.5 49.25Q288.0 50.0 329.5 50.0Q370.0 50.0 403.0 50.5Q436.0 51.0 455.5 51.75Q475.0 52.5 474.0 53.5Q473.5 54.5 455.75 55.5Q438.0 56.5 409.25 57.5Q380.5 58.5 346.0 59.0Q308.5 60.0 282.75 61.0Q257.0 62.0 239.75 63.25Q222.5 64.5 210.5 66.0Q198.5 67.5 188.5 70.0Q175.0 73.5 165.5 77.25Q156.0 81.0 156.0 82.5Q156.0 83.5 164.0 87.25Q172.0 91.0 183.0 95.5Q190.0 98.5 196.25 100.5Q202.5 102.5 211.75 103.75Q221.0 105.0 236.5 105.75Q252.0 106.5 277.5 106.5Q303.0 106.5 342.0 106.5Q378.5 106.5 408.75 106.75Q439.0 107.0 457.25 107.75Q475.5 108.5 475.5 109.5Q475.5 110.0 463.0 111.0Q450.5 112.0 430.5 113.25Q410.5 114.5 386.75 115.25Q363.0 116.0 340.0 116.75Q317.0 117.5 299.5 117.5Q294.5 117.5 279.25 119.0Q264.0 120.5 244.75 123.5Q225.5 126.5 207.25 130.5Q189.0 134.5 177.0 139.5Q165.0 144.5 165.0 150.0Q165.0 153.5 170.5 160.5Q176.0 167.5 184.0 174.0Q192.0 180.5 199.0 184.0Q203.0 186.0 218.25 188.75Q233.5 191.5 254.25 193.75Q275.0 196.0 296.0 197.5Q317.0 199.0 332.0 199.0Q344.5 199.0 351.0 197.75Q357.5 196.5 365.0 190.25Q372.5 184.0 388.0 169.5Q401.0 157.0 411.0 148.5Q421.0 140.0 421.5 140.0Q422.0 140.0 421.25 143.5Q420.5 147.0 419.5 151.0Q418.0 157.5 420.0 160.0Q422.0 162.5 432.5 164.0Q436.0 164.5 441.0 165.25Q446.0 166.0 452.0 166.0Q457.5 166.0 463.75 165.25Q470.0 164.5 475.5 164.0Q496.5 161.5 502.0 165.25Q507.5 169.0 494.0 176.0Q490.5 178.5 484.0 186.25Q477.5 194.0 472.5 202.5Q467.0 212.0 464.0 219.0Q461.0 226.0 460.25 235.75Q459.5 245.5 459.5 264.0V305.0L475.5 307.5Q487.0 309.5 485.5 312.25Q484.0 315.0 469.0 316.5Q465.0 317.0 463.25 319.75Q461.5 322.5 461.25 330.5Q461.0 338.5 461.5 356.0Q463.0 392.5 458.0 392.5Q455.5 392.5 454.25 386.0Q453.0 379.5 453.0 368.5Q453.0 358.0 452.0 346.75Q451.0 335.5 450.5 329.0L447.5 316.0H385.5Q351.5 316.0 327.5 318.75Q303.5 321.5 283.5 328.75Q263.5 336.0 241.0 349.0Q233.0 354.0 226.0 357.5Q219.0 361.0 217.0 361.0Q216.0 361.0 215.75 355.0Q215.5 349.0 216.0 340.0L219.5 320.0H205.0Q191.5 320.0 175.0 330.75Q158.5 341.5 148.5 356.5Q145.0 361.5 141.75 366.0Q138.5 370.5 137.0 370.5Q135.5 370.5 134.5 360.75Q133.5 351.0 133.0 336.5Q132.5 322.0 132.25 307.0Q132.0 292.0 132.25 281.25Q132.5 270.5 133.5 268.5Q137.5 265.5 143.0 276.0Q144.5 280.5 149.75 287.25Q155.0 294.0 159.5 298.5Q167.0 306.5 173.75 308.75Q180.5 311.0 195.5 311.0H219.0V287.0Q219.0 262.0 223.5 262.0Q226.0 262.0 231.5 270.5Q233.0 274.0 241.25 280.5Q249.5 287.0 258.5 292.5Q266.5 297.0 272.5 299.5Q278.5 302.0 288.0 303.25Q297.5 304.5 315.25 305.0Q333.0 305.5 364.5 306.0Q395.0 306.5 412.25 306.5Q429.5 306.5 437.25 306.0Q445.0 305.5 447.0 303.75Q449.0 302.0 449.0 298.5Q449.0 291.5 439.0 282.25Q429.0 273.0 412.5 264.0Q396.0 255.0 376.5 248.0Q357.0 241.0 338.5 238.0L304.5 232.5L322.0 222.0L338.0 210.0L313.5 207.0Q301.0 206.0 289.5 205.25Q278.0 204.5 267.0 204.5Q235.0 204.5 209.75 210.75Q184.5 217.0 161.5 231.0Q155.0 233.5 150.25 235.75Q145.5 238.0 143.5 238.0Q143.0 236.5 144.0 230.25Q145.0 224.0 146.5 216.0Q148.0 208.0 150.0 195.25Q152.0 182.5 152.0 173.0Q152.0 155.5 150.0 152.75Q148.0 150.0 139.0 150.0Q130.5 150.5 125.25 156.0Q120.0 161.5 117.5 178.25Q115.0 195.0 113.75 228.5Q112.5 262.0 112.0 318.5Q111.5 356.5 110.5 387.5Q109.5 418.5 108.5 437.0Q107.5 455.5 106.5 455.5Q105.5 455.5 104.5 439.75Q103.5 424.0 102.75 397.5Q102.0 371.0 101.0 339.5Q100.5 295.5 98.75 265.5Q97.0 235.5 94.25 214.75Q91.5 194.0 86.75 177.25Q82.0 160.5 74.5 142.5L69.0 129.5L64.5 142.5Q64.0 146.0 62.75 167.25Q61.5 188.5 60.25 220.5Q59.0 252.5 58.5 289.0Q57.5 326.0 56.25 356.75Q55.0 387.5 53.75 405.5Q52.5 423.5 51.0 423.5Q50.0 423.5 49.25 408.0Q48.5 392.5 48.0 366.0Q47.5 339.5 47.5 307.5Q47.5 267.0 47.25 242.75Q47.0 218.5 46.0 203.0Q45.0 187.5 42.75 175.5Q40.5 163.5 36.5 148.0Q32.5 130.5 26.5 111.5Q20.5 92.5 16.5 84.0Q13.0 76.0 11.5 69.5Q10.0 63.0 11.0 62.5Q12.0 61.5 21.0 62.25Q30.0 63.0 41.0 65.0Q49.5 66.0 55.75 67.0Q62.0 68.0 66.5 68.0Q78.0 68.0 80.75 61.25Q83.5 54.5 83.5 37.0Z" fill="black" /></svg>