<svg xmlns="http://www.w3.org/2000/svg" width="671.0" height="383.0" viewBox="0 0 671.0 383.0"><path d="M76.0 128.0Q76.5 126.0 70.25 124.75Q64.0 123.5 52.5 123.5Q33.5 122.5 30.25 125.75Q27.0 129.0 36.0 140.5Q37.0 142.5 39.75 148.75Q42.5 155.0 44.5 162.5Q46.0 169.5 48.5 175.0Q51.0 180.5 52.0 180.5Q52.5 180.5 56.25 173.5Q60.0 166.5 64.0 156.5Q68.0 146.5 71.5 138.0Q75.0 129.5 76.0 128.0ZM140.5 182.0Q140.5 176.0 121.5 176.0Q113.5 176.0 107.75 176.75Q102.0 177.5 102.0 178.0Q102.0 180.0 105.0 186.25Q108.0 192.5 112.0 200.0Q116.0 207.5 119.5 212.75Q123.0 218.0 124.0 218.0Q125.0 218.0 126.5 214.5Q128.0 211.0 130.0 206.0Q132.5 194.0 136.5 191.0Q137.5 190.0 139.0 187.25Q140.5 184.5 140.5 182.0ZM236.5 266.5Q236.0 265.0 234.75 260.5Q233.5 256.0 232.5 252.5Q231.0 245.0 229.5 245.0Q228.0 245.0 222.5 251.75Q217.0 258.5 212.0 265.5Q207.0 272.5 207.0 273.5Q207.0 274.0 211.5 274.0Q216.0 274.0 222.0 273.5Q227.5 272.5 232.0 270.5Q236.5 268.5 236.5 266.5ZM132.0 96.5Q122.5 91.0 115.75 87.75Q109.0 84.5 108.0 84.5Q107.5 84.5 107.0 91.25Q106.5 98.0 106.5 107.0Q106.5 116.5 107.25 123.25Q108.0 130.0 109.0 130.0Q109.5 130.0 114.5 127.0Q119.5 124.0 126.0 119.5Q132.5 115.0 138.75 112.0Q145.0 109.0 148.0 109.0Q150.5 109.0 146.25 105.25Q142.0 101.5 132.0 96.5ZM254.5 176.0Q253.0 164.0 249.0 164.0Q246.0 164.0 237.0 176.0Q229.0 187.5 228.75 190.25Q228.5 193.0 236.5 193.0Q248.0 193.0 251.75 189.25Q255.5 185.5 254.5 176.0ZM328.5 257.0Q328.5 252.0 326.0 252.0Q322.0 252.0 313.0 266.5L303.0 281.0H319.0Q329.0 281.0 331.25 279.25Q333.5 277.5 331.0 271.0Q330.5 267.5 329.5 263.25Q328.5 259.0 328.5 257.0ZM468.0 296.0 456.0 292.0Q451.0 290.5 443.5 286.5Q436.0 282.5 430.5 278.0L416.5 268.0V323.5L428.5 315.5Q433.0 312.0 440.25 308.0Q447.5 304.0 454.0 302.0ZM174.0 185.0Q165.5 177.0 160.0 177.0Q152.5 177.0 152.5 196.0V211.0L162.0 202.0Q166.5 198.0 171.25 195.5Q176.0 193.0 178.0 193.0Q184.0 192.5 174.0 185.0ZM286.5 105.5Q286.5 104.0 285.5 99.75Q284.5 95.5 283.25 91.5Q282.0 87.5 280.0 87.5Q277.5 87.5 268.5 99.5Q264.0 105.5 261.25 110.25Q258.5 115.0 259.0 116.0Q259.0 116.5 263.25 115.75Q267.5 115.0 273.0 114.5Q286.5 112.0 286.5 105.5ZM350.5 185.0Q349.0 173.0 345.0 173.0Q341.5 173.0 330.0 188.0L319.0 203.0L329.5 200.0Q333.5 199.0 338.25 198.0Q343.0 197.0 346.0 197.0Q350.0 197.0 350.75 194.25Q351.5 191.5 350.5 185.0ZM369.0 111.5Q370.0 111.5 369.0 107.0Q368.0 102.5 367.0 97.0L364.0 82.0L337.0 117.5L352.5 114.5Q359.5 113.5 364.25 112.75Q369.0 112.0 369.0 111.5ZM436.0 74.0Q429.5 69.5 424.5 66.5Q419.5 63.5 418.5 63.5Q417.5 63.5 417.0 70.75Q416.5 78.0 416.5 88.0V113.0L439.0 101.5Q456.5 93.0 461.0 88.75Q465.5 84.5 457.0 84.5Q455.0 84.5 448.5 81.0Q442.0 77.5 436.0 74.0ZM458.5 143.0Q458.5 138.5 448.0 138.5Q439.5 138.5 438.25 142.75Q437.0 147.0 443.5 158.5L448.5 168.5L453.0 157.0Q455.5 152.5 457.0 148.5Q458.5 144.5 458.5 143.0ZM598.0 119.5 590.5 90.5 540.0 89.5Q522.0 89.5 510.0 89.75Q498.0 90.0 489.25 91.25Q480.5 92.5 471.5 95.5Q462.5 98.5 450.0 104.0Q442.5 107.0 434.5 112.0Q426.5 117.0 421.25 121.5Q416.0 126.0 416.5 128.5Q416.5 130.5 425.25 131.0Q434.0 131.5 445.5 131.0Q458.0 130.0 466.75 130.75Q475.5 131.5 475.5 133.0Q475.5 134.0 472.25 141.25Q469.0 148.5 465.0 157.0Q460.5 166.5 458.25 174.0Q456.0 181.5 455.25 193.5Q454.5 205.5 454.5 229.0Q454.5 252.0 455.0 263.25Q455.5 274.5 457.25 278.75Q459.0 283.0 462.0 284.5Q465.0 285.5 486.75 286.25Q508.5 287.0 536.5 287.0H603.0L604.5 218.0Q605.0 190.5 604.5 173.0Q604.0 155.5 602.5 143.25Q601.0 131.0 598.0 119.5ZM634.5 24.5Q634.5 23.5 625.25 23.5Q616.0 23.5 603.0 23.0L572.5 22.0L578.5 38.0Q582.0 44.0 586.0 54.75Q590.0 65.5 592.5 75.5Q596.5 85.0 599.25 92.0Q602.0 99.0 602.5 100.0Q604.0 100.0 605.75 95.25Q607.5 90.5 609.0 83.5Q611.5 76.5 616.0 65.0Q620.5 53.5 624.0 45.5Q628.5 37.5 631.5 31.25Q634.5 25.0 634.5 24.5ZM228.0 229.0Q232.5 223.0 236.5 218.5Q240.5 214.0 241.0 214.0Q242.0 214.0 243.0 221.0Q244.0 228.0 243.0 238.0Q243.0 249.0 243.75 254.75Q244.5 260.5 248.25 264.5Q252.0 268.5 261.0 275.5Q268.5 281.0 274.75 285.0Q281.0 289.0 283.0 289.0Q284.0 289.0 292.25 279.25Q300.5 269.5 310.5 256.0Q320.5 242.0 328.5 232.25Q336.5 222.5 337.5 222.5Q338.5 222.5 338.5 228.75Q338.5 235.0 337.5 244.0Q337.0 256.5 338.75 263.75Q340.5 271.0 349.5 278.0Q358.5 285.0 379.5 297.5Q389.5 304.0 396.0 309.5Q402.5 315.0 400.5 316.0Q398.5 317.0 389.5 313.0Q380.5 309.0 369.0 302.0Q355.5 293.5 349.25 290.25Q343.0 287.0 336.0 287.0Q333.0 287.0 329.5 287.5Q326.0 288.0 320.5 289.0Q311.5 291.0 304.0 292.25Q296.5 293.5 295.5 293.5Q295.0 293.5 296.5 296.0Q298.0 298.5 301.5 302.0Q309.0 310.5 304.0 310.5Q297.0 310.5 275.5 296.0Q253.0 281.0 233.5 281.0Q220.5 281.0 204.0 287.0Q197.0 289.0 191.25 290.25Q185.5 291.5 184.5 290.5Q184.0 289.5 188.5 282.5Q193.0 275.5 200.5 266.5Q207.5 257.5 215.5 246.5Q223.5 235.5 228.0 229.0ZM559.0 11.5Q559.0 10.5 562.0 10.25Q565.0 10.0 568.5 11.0Q572.5 12.5 586.75 13.5Q601.0 14.5 616.5 14.0Q643.0 14.0 652.0 16.0Q661.0 18.0 649.5 22.0Q647.0 23.0 641.25 32.5Q635.5 42.0 629.5 53.5L616.0 82.0L614.5 208.0Q614.0 265.5 612.5 300.5Q611.0 335.5 609.0 335.5Q607.5 335.5 606.5 330.25Q605.5 325.0 605.5 317.0V297.5H544.5Q523.0 297.5 507.75 298.25Q492.5 299.0 479.5 302.0Q466.5 305.0 453.25 311.5Q440.0 318.0 422.5 329.5Q417.0 333.5 412.5 335.75Q408.0 338.0 407.5 336.5Q407.0 335.5 407.0 321.75Q407.0 308.0 408.0 290.0L410.5 247.0L424.5 261.5Q431.0 268.0 436.5 272.5Q442.0 277.0 444.0 277.0Q447.0 277.0 447.5 264.5Q448.0 252.0 447.25 234.0Q446.5 216.0 444.25 198.5Q442.0 181.0 439.0 171.5Q436.5 163.0 433.5 157.75Q430.5 152.5 424.75 147.5Q419.0 142.5 408.0 136.0Q396.5 129.0 389.75 126.0Q383.0 123.0 377.0 122.25Q371.0 121.5 361.5 122.5Q353.5 123.5 346.5 124.75Q339.5 126.0 337.5 128.0Q335.5 130.0 338.75 133.5Q342.0 137.0 347.5 139.25Q353.0 141.5 356.5 140.0Q363.5 136.5 360.0 146.0Q356.5 158.5 357.25 172.75Q358.0 187.0 363.0 192.5Q366.0 195.0 375.25 201.5Q384.5 208.0 395.5 214.0Q413.5 224.0 418.5 229.5Q423.5 235.0 416.5 235.0Q414.5 235.0 406.5 230.75Q398.5 226.5 388.5 220.0Q367.0 205.5 348.0 205.5Q338.5 205.5 326.5 209.5Q319.0 212.5 318.0 214.25Q317.0 216.0 320.5 220.0Q327.0 228.0 323.0 228.0Q318.0 228.0 293.5 213.5Q279.5 205.0 273.0 201.5Q266.5 198.0 260.0 198.0Q250.5 198.0 235.75 201.75Q221.0 205.5 212.5 208.0Q207.0 210.0 205.5 209.0Q204.0 208.0 205.5 203.5Q207.5 199.5 205.0 198.25Q202.5 197.0 194.5 197.0Q186.0 197.0 179.75 200.75Q173.5 204.5 162.0 216.5L144.0 236.0V218.0Q144.0 203.0 142.5 203.0Q141.0 203.0 138.0 207.5Q135.5 210.5 134.0 219.0Q132.5 227.5 132.0 245.25Q131.5 263.0 131.5 294.5Q131.5 331.5 130.5 352.25Q129.5 373.0 127.5 373.0Q126.0 373.0 124.5 357.25Q123.0 341.5 123.0 315.5Q123.0 283.0 121.0 262.0Q119.0 241.0 113.5 224.5Q108.0 208.0 97.5 190.0Q92.5 181.0 89.0 174.0Q85.5 167.0 85.5 166.0Q85.5 165.5 93.5 165.75Q101.5 166.0 112.5 167.0Q131.5 168.0 136.0 167.25Q140.5 166.5 140.5 160.0Q140.5 151.5 144.0 151.5Q148.0 151.5 155.5 160.0Q161.5 166.5 173.25 173.25Q185.0 180.0 196.5 184.0Q208.0 188.0 213.0 187.0Q216.5 186.0 224.75 178.0Q233.0 170.0 240.0 159.5Q247.5 149.5 253.75 142.0Q260.0 134.5 261.0 134.5Q262.0 134.5 262.25 141.25Q262.5 148.0 262.5 157.0Q261.5 174.0 263.0 178.0Q264.5 182.0 274.0 185.5Q279.0 187.5 282.0 190.25Q285.0 193.0 284.5 194.0Q283.5 195.0 286.0 197.25Q288.5 199.5 293.5 202.0Q298.5 204.5 301.5 204.5Q307.0 204.5 313.75 196.5Q320.5 188.5 336.0 166.0Q344.0 154.5 344.75 151.5Q345.5 148.5 340.0 145.0Q336.5 143.5 330.0 139.0Q323.5 134.5 317.5 131.0Q304.0 122.0 284.5 122.0Q269.5 122.0 254.5 128.0Q242.5 133.0 238.0 132.0Q233.5 131.0 240.0 125.0Q248.0 117.0 240.25 115.25Q232.5 113.5 198.0 114.5Q173.0 115.5 158.25 117.75Q143.5 120.0 134.0 125.0Q124.5 130.0 115.5 140.0Q106.0 150.5 102.5 150.5Q98.5 150.5 98.5 135.5Q98.5 123.0 97.0 123.0Q96.0 123.0 89.5 128.5Q85.5 131.5 80.5 138.75Q75.5 146.0 71.5 153.5Q68.5 159.0 66.5 165.0Q64.5 171.0 63.5 182.25Q62.5 193.5 62.25 214.25Q62.0 235.0 61.5 270.5Q61.5 297.5 61.0 320.5Q60.5 343.5 60.25 357.25Q60.0 371.0 59.5 371.5Q58.5 371.5 57.25 360.75Q56.0 350.0 54.75 332.75Q53.5 315.5 52.75 295.5Q52.0 275.5 52.0 257.5Q52.0 238.5 51.25 226.25Q50.5 214.0 48.5 204.0Q46.5 194.0 42.0 182.0Q33.0 155.5 25.0 138.75Q17.0 122.0 13.5 122.0Q10.0 122.0 10.0 117.5Q10.0 112.5 37.0 113.5Q47.5 114.0 60.25 114.25Q73.0 114.5 81.0 114.5L99.0 113.5L97.0 90.5Q96.0 80.5 96.0 73.75Q96.0 67.0 97.5 67.0Q98.5 67.0 103.0 69.5Q107.5 72.0 112.5 76.0Q129.0 87.0 143.5 93.25Q158.0 99.5 174.5 102.0Q191.0 104.5 213.0 104.5H255.0L272.5 81.5Q279.5 71.5 285.25 64.25Q291.0 57.0 292.5 56.0Q293.5 56.0 294.0 62.0Q294.5 68.0 293.5 77.0Q292.0 87.5 292.0 93.0Q292.0 98.5 294.5 101.75Q297.0 105.0 303.0 110.5Q308.5 115.0 313.5 118.5Q318.5 122.0 320.5 122.0Q322.0 122.0 330.0 112.0Q338.0 102.0 348.0 88.0Q358.0 74.5 366.0 64.5Q374.0 54.5 374.5 54.5Q376.0 54.5 376.25 61.75Q376.5 69.0 376.0 79.0Q375.0 91.0 375.25 96.5Q375.5 102.0 378.25 105.25Q381.0 108.5 387.0 113.0Q392.5 116.5 397.5 118.5Q402.5 120.5 404.5 119.5Q405.5 118.5 406.75 106.5Q408.0 94.5 408.0 79.0Q408.0 64.0 409.0 53.25Q410.0 42.5 412.0 42.5Q413.0 42.5 418.0 46.75Q423.0 51.0 429.0 56.5Q438.5 66.5 449.0 71.75Q459.5 77.0 477.75 78.5Q496.0 80.0 529.0 80.0Q561.0 80.0 573.0 78.75Q585.0 77.5 583.25 69.5Q581.5 61.5 571.5 41.5Q566.5 31.0 562.75 22.25Q559.0 13.5 559.0 11.5Z" fill="black" /></svg>