<svg xmlns="http://www.w3.org/2000/svg" width="749.0" height="457.0" viewBox="0 0 749.0 457.0"><path d="M42.0 280.5Q39.5 276.0 35.0 276.0Q33.5 276.0 32.0 283.25Q30.5 290.5 29.5 300.0Q28.5 309.5 28.0 317.5Q27.5 325.5 28.5 327.0Q28.5 327.0 28.75 327.0Q29.0 327.0 29.0 327.0Q31.0 327.0 35.0 325.75Q39.0 324.5 43.0 321.5Q48.5 318.5 57.5 314.5Q66.5 310.5 74.0 308.5L92.0 302.5L70.5 294.0Q61.0 290.5 52.75 286.5Q44.5 282.5 42.0 280.5ZM62.0 145.5Q52.0 136.5 47.5 136.5Q47.5 136.5 47.0 144.25Q46.5 152.0 46.0 162.0Q46.0 173.0 46.5 180.25Q47.0 187.5 47.5 187.5Q49.0 187.5 57.25 184.0Q65.5 180.5 75.5 175.5L102.0 163.0L88.5 158.5Q82.5 156.0 75.0 152.5Q67.5 149.0 62.0 145.5ZM158.0 224.5 165.5 211.0H148.0Q132.5 211.0 134.5 216.5Q138.0 223.0 140.0 231.0Q143.0 238.5 146.5 238.5Q151.5 238.5 158.0 224.5ZM204.5 258.0Q204.0 255.5 201.5 248.5Q199.0 241.5 195.5 233.25Q192.0 225.0 188.25 219.0Q184.5 213.0 181.0 213.0Q179.0 213.0 173.5 219.0Q164.0 230.5 160.25 241.75Q156.5 253.0 156.5 270.5V294.0H181.0Q192.0 294.0 200.25 292.75Q208.5 291.5 210.0 289.5Q211.0 287.5 209.75 278.25Q208.5 269.0 204.5 258.0ZM226.0 213.5Q226.0 212.5 221.75 211.75Q217.5 211.0 211.5 211.0Q206.5 211.0 202.25 211.75Q198.0 212.5 198.0 213.5Q198.0 215.5 200.75 221.75Q203.5 228.0 207.0 233.5Q210.5 239.0 211.5 239.0Q213.0 239.0 216.5 233.5Q220.0 228.0 223.0 221.75Q226.0 215.5 226.0 213.5ZM325.5 336.0Q323.5 333.5 322.0 327.25Q320.5 321.0 319.5 315.0L316.5 300.5L296.0 318.5Q283.0 329.5 281.0 333.25Q279.0 337.0 284.0 337.0Q287.5 337.0 295.5 337.5Q303.5 338.0 311.0 339.5Q319.5 341.0 322.5 341.0Q328.5 341.0 325.5 336.0ZM333.0 230.0Q333.0 223.5 331.75 219.5Q330.5 215.5 329.5 215.5Q327.5 215.5 320.0 220.75Q312.5 226.0 303.0 233.5L281.5 250.5L296.5 253.5Q303.0 254.5 312.0 256.5Q321.0 258.5 327.5 260.0Q338.5 262.5 340.0 261.75Q341.5 261.0 337.5 253.5Q335.5 250.0 334.25 243.0Q333.0 236.0 333.0 230.0ZM447.0 353.0Q448.0 353.0 446.5 347.0Q445.0 341.0 442.5 333.0L437.0 313.0L395.5 347.5L421.0 351.0Q432.0 351.5 439.5 352.25Q447.0 353.0 447.0 353.0ZM444.5 217.0Q444.5 207.0 441.0 207.0Q436.0 207.0 417.0 224.5L396.5 241.5L414.5 245.5Q422.0 246.5 430.25 248.25Q438.5 250.0 443.5 250.5Q449.0 252.0 450.5 252.0Q452.5 252.0 452.0 249.75Q451.5 247.5 449.0 241.5Q447.0 236.0 445.75 229.0Q444.5 222.0 444.5 217.0ZM694.5 223.5 706.0 211.0H629.0L636.5 221.0Q640.0 225.5 645.0 234.75Q650.0 244.0 653.5 252.5L663.5 273.5L672.5 255.0Q676.5 248.0 682.75 238.5Q689.0 229.0 694.5 223.5ZM158.0 58.5 166.5 48.0H133.0L140.0 59.5Q143.5 64.5 145.75 67.75Q148.0 71.0 148.0 70.5Q149.0 69.5 151.5 66.0Q154.0 62.5 158.0 58.5ZM198.0 69.5Q194.0 61.0 188.75 54.5Q183.5 48.0 181.0 48.0Q170.0 48.0 163.25 67.5Q156.5 87.0 156.5 116.5V154.5H211.5L210.0 124.0Q208.5 93.0 198.0 69.5ZM218.0 59.5Q224.0 51.0 223.25 49.5Q222.5 48.0 211.5 48.0Q201.5 48.0 200.25 49.75Q199.0 51.5 202.5 58.5Q205.0 62.5 207.25 66.0Q209.5 69.5 210.0 70.5Q210.0 71.0 212.75 67.75Q215.5 64.5 218.0 59.5ZM349.0 118.5Q359.0 105.0 355.0 105.0Q349.0 105.0 324.0 127.5L295.0 154.0L315.5 159.0Q324.5 161.0 331.25 162.75Q338.0 164.5 339.5 164.5Q340.0 164.5 341.0 159.25Q342.0 154.0 342.0 146.5Q342.0 139.0 344.25 131.25Q346.5 123.5 349.0 118.5ZM453.5 112.0Q457.5 104.5 459.25 99.75Q461.0 95.0 459.5 95.0Q457.5 95.0 448.0 102.5Q438.5 110.0 427.0 120.5L398.0 145.5L412.5 150.0Q419.5 151.5 426.0 153.75Q432.5 156.0 436.0 157.5Q439.0 158.5 440.0 158.5Q444.5 158.5 444.5 145.0Q444.5 138.5 447.0 128.5Q449.5 118.5 453.5 112.0ZM599.0 32.5Q602.0 27.5 597.75 26.25Q593.5 25.0 573.0 25.0H542.0L549.5 47.0Q552.0 56.5 555.75 70.75Q559.5 85.0 562.0 96.0Q564.5 108.5 567.25 115.5Q570.0 122.5 572.0 122.5Q574.5 122.5 574.5 112.0Q574.5 107.5 578.5 93.0Q582.5 78.5 588.25 61.5Q594.0 44.5 599.0 32.5ZM704.0 22.5Q704.0 21.5 693.5 21.0Q683.0 20.5 667.0 20.5H630.0L641.0 35.0Q645.5 41.5 650.5 50.5Q655.5 59.5 658.0 65.0Q660.5 71.5 663.25 76.0Q666.0 80.5 667.0 80.5Q668.5 80.5 671.0 76.0Q673.5 71.5 676.0 65.0Q678.5 59.5 683.25 51.25Q688.0 43.0 693.5 38.0Q698.0 32.5 701.0 28.25Q704.0 24.0 704.0 22.5ZM119.0 203.5Q119.0 202.5 137.5 202.25Q156.0 202.0 181.5 202.0Q215.0 202.0 229.25 203.25Q243.5 204.5 243.5 209.0Q243.5 213.5 234.0 223.5Q229.0 229.5 225.5 238.5Q222.0 247.5 220.5 262.5Q220.0 274.0 219.75 282.75Q219.5 291.5 220.5 292.5Q221.5 293.0 230.0 293.5Q238.5 294.0 249.5 294.0Q261.0 294.0 269.0 295.5Q277.0 297.0 277.0 299.5Q277.0 301.5 268.5 302.75Q260.0 304.0 247.0 304.0H217.0L219.5 338.5Q222.5 374.0 217.0 374.0Q211.5 374.0 211.5 338.5V304.0H156.5V338.5Q156.5 353.5 155.0 363.75Q153.5 374.0 151.0 374.0Q149.0 374.0 147.75 363.75Q146.5 353.5 146.5 338.5V304.0H131.0Q121.5 304.0 105.75 308.0Q90.0 312.0 72.5 319.0Q55.0 326.0 39.5 335.0Q30.0 340.0 22.25 342.75Q14.5 345.5 13.0 344.0Q10.0 340.5 17.0 327.5Q19.0 321.5 20.25 308.75Q21.5 296.0 20.5 283.5Q20.0 271.0 20.0 261.75Q20.0 252.5 20.5 252.5Q21.5 252.5 27.25 256.75Q33.0 261.0 40.5 268.0Q56.0 280.0 79.75 287.0Q103.5 294.0 126.5 294.0Q141.0 294.0 143.75 292.25Q146.5 290.5 146.5 280.5Q146.5 274.5 142.75 261.25Q139.0 248.0 133.0 235.5Q127.5 223.0 123.25 213.5Q119.0 204.0 119.0 203.5ZM311.0 290.5Q317.5 284.5 322.25 280.25Q327.0 276.0 328.5 276.0Q329.5 276.0 330.0 283.75Q330.5 291.5 329.5 301.5Q328.0 313.5 328.25 319.75Q328.5 326.0 331.75 330.25Q335.0 334.5 342.0 341.5Q349.0 348.0 363.5 360.0Q378.0 372.0 392.0 382.0Q414.0 399.0 422.0 407.25Q430.0 415.5 422.5 415.5Q422.0 415.5 410.75 407.75Q399.5 400.0 384.5 388.5Q366.5 374.5 355.25 366.5Q344.0 358.5 335.0 354.75Q326.0 351.0 315.75 349.5Q305.5 348.0 289.5 347.5Q274.5 346.5 263.75 345.5Q253.0 344.5 253.0 343.0Q253.0 342.0 259.75 336.25Q266.5 330.5 276.0 323.0Q284.5 315.5 295.25 306.0Q306.0 296.5 311.0 290.5ZM315.5 212.0Q325.5 203.5 332.75 197.75Q340.0 192.0 341.0 192.0Q342.5 192.0 343.25 200.0Q344.0 208.0 343.0 219.0Q342.0 232.0 342.5 239.0Q343.0 246.0 346.0 250.75Q349.0 255.5 355.5 263.5Q361.5 270.0 372.75 280.75Q384.0 291.5 393.5 299.5L417.0 319.5L432.5 304.0Q447.0 290.5 452.5 290.0Q458.0 289.5 453.5 302.5Q446.0 321.0 453.0 335.5Q460.0 350.0 485.0 370.5Q498.0 380.5 512.25 392.0Q526.5 403.5 534.0 408.5Q541.5 413.5 545.25 418.25Q549.0 423.0 546.5 423.5Q543.5 423.5 531.0 416.0Q518.5 408.5 504.0 396.5Q484.0 380.5 469.75 373.0Q455.5 365.5 440.75 362.75Q426.0 360.0 403.5 359.5Q391.5 359.5 383.0 358.75Q374.5 358.0 374.5 356.5Q374.5 355.5 379.5 350.0Q384.5 344.5 391.0 339.5L408.0 324.0L382.5 302.5Q361.0 284.0 334.0 273.25Q307.0 262.5 283.0 262.5Q275.0 262.5 268.75 261.0Q262.5 259.5 261.5 258.0Q260.0 255.5 264.25 251.25Q268.5 247.0 276.0 241.5Q283.5 237.5 295.25 228.25Q307.0 219.0 315.5 212.0ZM120.0 40.5Q121.0 39.5 135.5 39.0Q150.0 38.5 169.0 38.5Q186.0 38.5 202.75 38.75Q219.5 39.0 231.25 39.75Q243.0 40.5 244.0 41.5Q245.0 42.0 241.5 46.75Q238.0 51.5 232.5 58.0Q226.5 64.0 223.5 69.5Q220.5 75.0 219.25 84.5Q218.0 94.0 217.0 113.0L215.0 154.5H244.0Q262.5 154.5 271.5 152.5Q280.5 150.5 290.5 143.0Q302.0 134.0 316.5 121.25Q331.0 108.5 345.0 95.25Q359.0 82.0 369.5 71.0Q380.0 60.0 383.5 55.0Q390.0 46.5 391.25 45.5Q392.5 44.5 392.5 50.5Q392.5 55.5 390.25 61.5Q388.0 67.5 384.5 72.5Q378.5 80.0 372.0 92.25Q365.5 104.5 360.0 118.25Q354.5 132.0 351.25 143.0Q348.0 154.0 349.0 158.5Q350.5 162.5 352.5 165.75Q354.5 169.0 356.5 169.0Q360.5 169.0 357.5 175.5Q357.0 178.0 362.75 185.0Q368.5 192.0 376.75 200.25Q385.0 208.5 392.75 214.25Q400.5 220.0 403.5 220.0Q405.5 220.0 412.75 214.75Q420.0 209.5 428.25 202.5Q436.5 195.5 442.75 189.5Q449.0 183.5 449.0 182.0Q449.0 178.5 441.0 173.25Q433.0 168.0 421.75 163.0Q410.5 158.0 401.0 156.5Q393.0 155.5 386.25 154.0Q379.5 152.5 377.5 152.0Q376.0 151.0 381.75 145.25Q387.5 139.5 397.0 133.0Q408.5 124.5 423.0 111.75Q437.5 99.0 451.75 85.5Q466.0 72.0 476.5 61.25Q487.0 50.5 489.5 46.0Q494.5 37.0 498.0 39.5Q499.0 41.0 497.25 46.25Q495.5 51.5 491.5 58.5Q480.5 75.5 472.0 93.25Q463.5 111.0 458.75 126.25Q454.0 141.5 453.5 150.75Q453.0 160.0 458.0 160.0Q462.5 160.0 462.5 167.5Q462.5 170.0 473.5 183.0Q484.5 196.0 499.5 212.0Q516.0 226.5 526.0 238.75Q536.0 251.0 535.0 252.5Q535.0 252.5 534.75 252.75Q534.5 253.0 534.0 253.0Q531.5 253.0 521.75 245.0Q512.0 237.0 499.5 224.5Q468.0 193.0 460.0 193.0Q453.5 193.0 453.5 211.0Q453.5 225.0 458.0 236.0Q462.5 247.0 475.75 261.25Q489.0 275.5 516.0 299.5Q537.0 317.0 550.25 330.5Q563.5 344.0 561.0 345.0Q557.5 345.0 546.25 336.25Q535.0 327.5 520.5 315.0Q488.5 285.5 469.75 274.0Q451.0 262.5 436.0 262.5Q430.0 262.5 425.0 260.75Q420.0 259.0 419.0 257.0Q417.5 255.0 410.75 253.75Q404.0 252.5 395.5 252.5Q377.0 252.5 372.75 248.25Q368.5 244.0 381.0 238.0Q386.0 236.0 389.25 233.25Q392.5 230.5 392.5 229.0Q392.5 227.5 382.25 218.0Q372.0 208.5 357.5 197.5Q320.5 170.0 300.5 164.5Q287.0 162.0 272.5 162.0Q254.0 162.0 238.0 165.0Q222.0 168.0 218.0 172.0Q214.5 177.0 213.25 176.5Q212.0 176.0 210.0 171.0Q208.5 167.5 199.5 165.75Q190.5 164.0 180.5 164.0Q171.0 164.0 163.75 165.5Q156.5 167.0 156.5 171.0Q156.5 178.5 151.0 178.5Q146.5 178.5 146.5 171.0Q146.5 164.5 140.0 164.5Q135.5 164.5 124.5 167.5Q113.5 170.5 100.5 175.5Q87.5 180.5 75.75 185.75Q64.0 191.0 57.5 195.5Q50.0 199.5 44.75 203.0Q39.5 206.5 38.5 206.5Q38.0 206.5 38.0 194.75Q38.0 183.0 38.25 166.5Q38.5 150.0 38.75 135.25Q39.0 120.5 39.5 114.0Q39.5 113.5 40.0 113.5Q43.0 113.5 55.0 126.5Q69.5 140.5 87.75 147.5Q106.0 154.5 125.5 154.5H146.5V125.5Q146.5 103.5 140.5 83.25Q134.5 63.0 124.5 51.5Q122.0 49.0 120.75 45.5Q119.5 42.0 120.0 40.5ZM612.0 12.5Q612.0 11.0 629.0 10.5Q646.0 10.0 670.5 10.5Q713.0 11.0 726.0 13.25Q739.0 15.5 728.5 19.0Q719.0 23.0 706.0 36.25Q693.0 49.5 686.0 63.0Q682.0 71.5 680.0 80.25Q678.0 89.0 677.5 103.25Q677.0 117.5 677.0 143.0V202.0H702.5Q712.5 202.0 720.25 202.5Q728.0 203.0 728.0 204.5Q728.0 206.5 724.0 210.0Q720.0 213.5 715.0 217.0Q700.0 227.5 689.75 244.25Q679.5 261.0 676.0 279.5Q675.5 285.5 674.5 300.5Q673.5 315.5 672.75 335.25Q672.0 355.0 671.5 375.5Q671.5 414.5 670.5 430.75Q669.5 447.0 667.0 443.5Q665.0 440.0 664.0 418.5Q663.0 397.0 663.5 365.5Q664.0 339.5 664.0 324.5Q664.0 309.5 662.75 300.75Q661.5 292.0 658.5 284.25Q655.5 276.5 650.0 265.0Q644.0 252.0 636.25 238.5Q628.5 225.0 623.5 219.0Q612.0 204.0 612.0 200.0Q612.0 198.5 620.0 198.5Q628.5 198.5 639.0 200.0L667.0 202.5V158.5Q667.0 138.0 666.25 126.0Q665.5 114.0 662.5 104.0Q659.5 94.0 653.5 79.5Q647.5 65.0 640.5 52.0Q633.5 39.0 630.0 34.5L620.0 22.5L611.0 33.5Q607.5 38.0 601.75 50.25Q596.0 62.5 592.0 75.0Q589.0 83.5 587.0 91.75Q585.0 100.0 584.0 112.0Q583.0 124.0 582.25 143.75Q581.5 163.5 581.0 194.5Q580.5 225.5 580.0 272.5Q580.0 321.0 579.0 358.5Q578.0 396.0 576.75 417.5Q575.5 439.0 574.0 439.0Q573.0 439.0 572.0 422.25Q571.0 405.5 570.25 375.75Q569.5 346.0 569.5 307.0Q569.5 264.0 569.25 236.25Q569.0 208.5 568.0 190.0Q567.0 171.5 565.25 157.75Q563.5 144.0 560.5 129.5Q556.5 109.5 551.0 88.25Q545.5 67.0 540.25 48.75Q535.0 30.5 530.5 20.0Q528.5 15.0 535.25 14.0Q542.0 13.0 569.5 14.5Q587.0 15.5 599.5 15.0Q612.0 14.5 612.0 12.5Z" fill="black" /></svg>