<svg xmlns="http://www.w3.org/2000/svg" width="646.0" height="459.5" viewBox="0 0 646.0 459.5"><path d="M48.0 221.0Q40.0 216.0 38.0 216.0Q36.0 216.0 36.0 232.0V241.0L37.5 264.0L48.0 257.5Q55.0 252.0 65.75 247.5Q76.5 243.0 84.5 240.5L90.0 238.0L81.5 235.5Q72.0 232.5 62.0 228.5Q52.0 224.5 48.0 221.0ZM112.5 321.0 119.0 310.5H94.5Q95.5 312.0 97.5 316.5Q99.5 321.0 101.75 325.0Q104.0 329.0 105.0 329.0Q106.5 329.0 112.5 321.0ZM375.5 222.0H376.0Q373.0 222.5 367.75 225.75Q362.5 229.0 354.5 233.5L335.5 246.5L343.5 250.0Q350.0 252.5 354.5 254.5Q359.0 256.5 362.5 256.5Q366.5 256.5 368.0 246.5Q369.5 240.0 371.5 233.25Q373.5 226.5 375.5 222.0ZM131.0 117.5Q124.5 116.5 118.25 115.0Q112.0 113.5 106.0 111.0Q102.5 108.5 99.0 105.25Q95.5 102.0 91.5 99.0L86.0 93.5Q85.5 100.5 85.0 108.0Q84.5 115.5 84.0 123.0L81.5 141.0L85.5 138.5Q87.0 137.5 88.5 136.75Q90.0 136.0 91.0 135.5Q94.5 132.5 99.5 131.0Q102.0 128.5 105.0 127.0Q111.0 124.5 118.75 121.75Q126.5 119.0 131.0 117.5ZM149.5 193.0 150.0 193.5Q154.5 181.5 161.0 171.5L170.0 155.5Q164.0 157.0 156.5 157.5Q149.0 158.0 142.0 158.0H130.5Q136.0 166.0 141.25 174.75Q146.5 183.5 149.5 193.0ZM416.0 185.5 400.5 181.0V191.5L403.5 190.0Q406.0 189.0 408.5 188.0Q411.0 187.0 414.5 186.0Q414.5 186.0 413.5 186.0Q412.5 186.0 416.0 185.5ZM403.0 246.0 421.0 238.0 403.0 232.0ZM540.5 226.0 541.5 224.0Q535.0 227.0 525.25 232.75Q515.5 238.5 507.25 243.75Q499.0 249.0 495.5 251.5Q496.0 252.0 500.5 252.0L503.5 252.5Q505.0 253.0 509.0 254.0Q510.5 254.0 511.75 254.75Q513.0 255.5 515.0 256.5Q518.0 257.5 520.5 257.5Q521.5 258.0 523.25 258.25Q525.0 258.5 525.5 259.5Q527.0 260.0 528.75 260.0Q530.5 260.0 531.5 260.0Q532.5 260.0 532.5 253.0Q532.5 247.5 534.5 239.25Q536.5 231.0 540.5 226.0ZM170.0 75.5Q163.5 66.0 159.25 54.75Q155.0 43.5 155.0 32.0Q153.5 33.0 148.25 37.75Q143.0 42.5 137.0 48.75Q131.0 55.0 126.25 60.25Q121.5 65.5 120.5 67.5L133.0 69.5Q139.0 70.5 147.5 72.25Q156.0 74.0 161.5 76.0Q166.0 78.0 169.25 79.25Q172.5 80.5 174.5 81.0Q173.5 79.0 170.0 75.5ZM230.0 36.0Q227.5 36.5 223.75 37.25Q220.0 38.0 217.5 38.0Q215.5 38.5 213.25 38.5Q211.0 38.5 209.5 38.5Q207.5 38.5 206.0 38.5Q204.5 38.5 202.0 38.0H198.0L201.0 42.0Q202.0 43.0 202.75 44.5Q203.5 46.0 204.0 47.5Q207.0 51.5 209.0 54.5Q210.5 58.0 212.5 63.75Q214.5 69.5 214.5 69.5Q215.5 61.0 219.5 52.75Q223.5 44.5 229.0 37.0Q229.5 36.5 229.5 36.5Q229.5 36.5 230.0 36.0ZM398.0 42.0Q398.0 41.0 390.25 40.75Q382.5 40.5 371.5 40.5Q363.0 40.5 356.25 40.0Q349.5 39.5 347.0 39.0Q347.0 41.0 350.0 43.5Q352.5 48.5 354.75 54.25Q357.0 60.0 359.0 65.0Q363.0 71.5 365.5 77.0Q368.0 82.5 369.5 85.5Q370.0 83.5 371.0 81.25Q372.0 79.0 373.0 76.0L375.5 70.5Q379.0 62.0 384.0 54.5Q389.0 47.0 393.0 44.5L394.5 44.0Q395.5 43.0 396.75 42.5Q398.0 42.0 398.0 42.0ZM407.0 87.5 422.5 80.5 407.0 75.0ZM422.5 132.5 407.5 127.0 408.5 138.5ZM390.5 117.0 390.0 105.5Q389.5 90.5 388.5 84.5Q387.5 90.0 386.25 103.5Q385.0 117.0 385.0 133.0Q385.0 139.5 385.0 146.0Q385.0 152.5 385.5 158.5Q387.0 157.0 390.0 157.0Q392.5 157.0 396.5 159.0L399.5 160.0Q409.0 165.0 423.75 171.25Q438.5 177.5 451.0 177.5H494.5L532.5 176.5L529.5 138.5H488.0Q468.0 138.5 455.0 141.0Q442.0 143.5 424.5 152.0Q417.0 154.5 410.0 156.75Q403.0 159.0 400.0 159.0Q395.5 159.0 394.5 156.0L395.0 155.5Q393.0 151.5 391.75 140.5Q390.5 129.5 390.5 117.0ZM532.5 200.5Q532.5 197.0 525.5 196.25Q518.5 195.5 492.5 195.5H476.0Q459.0 196.0 447.25 197.0Q435.5 198.0 425.0 203.5L405.5 209.5Q409.0 216.0 420.75 219.75Q432.5 223.5 445.5 225.0Q458.5 226.5 464.5 226.5Q496.0 226.5 514.25 219.75Q532.5 213.0 532.5 200.5ZM517.0 84.5H515.5L457.5 86.5Q450.5 87.0 439.25 91.75Q428.0 96.5 419.25 101.0Q410.5 105.5 410.5 106.5Q410.5 110.0 416.75 113.0Q423.0 116.0 432.25 117.75Q441.5 119.5 450.5 120.5Q459.5 121.5 464.5 121.5L529.5 121.0Q529.0 115.0 528.0 108.0Q527.0 101.0 525.0 94.5Q520.5 84.5 517.0 84.5ZM559.0 34.0 562.0 31.0H514.0L525.0 47.5Q530.5 57.0 533.0 61.75Q535.5 66.5 537.0 66.5Q538.5 66.5 542.0 57.5Q545.0 52.5 550.0 45.5Q555.0 38.5 559.0 34.0ZM142.0 32.0Q149.0 24.5 155.25 18.5Q161.5 12.5 161.5 12.5Q165.0 12.5 165.5 16.0Q166.0 19.5 166.0 21.0V25.0Q166.0 45.0 175.25 58.0Q184.5 71.0 198.5 84.0Q208.5 93.5 209.75 94.75Q211.0 96.0 211.0 96.0V95.5Q211.0 91.5 207.5 81.75Q204.0 72.0 199.25 61.0Q194.5 50.0 189.5 43.0Q182.0 33.0 182.0 30.0Q182.0 29.0 186.75 28.25Q191.5 27.5 199.0 27.5Q206.0 27.5 215.0 26.75Q224.0 26.0 230.0 25.0Q234.0 24.0 238.5 23.5Q243.0 23.0 245.5 23.0Q246.0 23.0 247.0 23.25Q248.0 23.5 248.0 23.5V24.5Q248.0 28.5 241.0 38.5Q230.5 50.5 226.5 62.25Q222.5 74.0 222.0 89.5V92.0Q222.0 96.5 223.0 100.5Q224.0 104.5 224.0 104.5L229.0 101.0Q233.0 98.0 238.5 94.0Q244.0 90.0 251.0 84.5Q264.0 74.5 274.5 68.5Q285.0 62.5 285.5 62.5Q288.5 62.5 288.5 64.5Q288.5 68.5 259.5 91.5L237.5 108.5H262.0Q297.5 108.5 297.5 113.0Q297.5 119.0 262.0 119.0H233.0L258.5 140.0Q270.0 149.5 277.0 156.75Q284.0 164.0 284.0 165.5V167.0H282.5Q280.5 167.0 271.75 162.0Q263.0 157.0 251.5 148.5Q240.0 138.5 231.0 131.75Q222.0 125.0 222.0 125.0V157.5Q222.0 184.5 221.0 192.25Q220.0 200.0 217.5 200.0Q215.5 200.0 214.5 193.0Q213.5 186.0 213.5 165.5V127.5L206.0 134.0Q198.5 140.5 189.75 151.5Q181.0 162.5 173.0 174.5Q165.0 186.5 159.75 196.75Q154.5 207.0 154.5 211.5Q154.5 216.5 152.5 216.5Q150.5 216.5 147.5 212.25Q144.5 208.0 142.0 201.5Q139.0 196.0 133.25 185.75Q127.5 175.5 122.0 167.5L120.5 164.0Q109.5 149.5 109.5 145.0L110.0 143.5H111.5Q112.5 143.5 114.0 143.5Q115.5 143.5 117.5 144.5Q121.0 146.5 128.25 147.5Q135.5 148.5 142.0 148.5Q145.5 148.5 150.0 148.25Q154.5 148.0 157.5 147.5Q165.5 145.0 176.25 138.25Q187.0 131.5 195.5 125.5Q204.0 119.5 204.0 119.5Q199.5 119.5 192.0 119.75Q184.5 120.0 179.0 120.5H171.5Q159.5 121.0 151.75 122.75Q144.0 124.5 129.5 130.0Q109.5 138.5 96.75 146.0Q84.0 153.5 77.0 159.5L74.0 161.5Q70.0 165.0 68.0 165.0L65.5 164.5V163.0Q65.5 158.0 68.5 146.0Q69.5 139.5 71.0 125.25Q72.5 111.0 73.0 97.0Q74.5 62.5 79.0 62.5Q81.0 62.5 82.5 67.0V68.0Q83.5 70.5 89.75 77.25Q96.0 84.0 103.5 90.75Q111.0 97.5 116.0 100.0Q133.5 109.5 182.0 109.5H207.0L203.0 105.5Q193.5 97.0 179.25 91.0Q165.0 85.0 150.0 81.25Q135.0 77.5 122.5 76.0Q116.0 75.5 110.0 74.75Q104.0 74.0 103.0 73.5V72.0Q103.0 71.0 105.5 67.5Q108.0 64.0 113.0 60.5Q118.0 56.5 126.5 48.25Q135.0 40.0 142.0 32.0ZM481.5 15.0Q481.5 10.0 495.0 10.0Q505.0 10.0 521.0 10.75Q537.0 11.5 553.5 12.5Q570.0 13.5 581.5 14.75Q593.0 16.0 593.5 17.0L594.0 19.5Q594.0 22.0 588.75 30.0Q583.5 38.0 575.5 47.0Q567.0 55.5 560.75 65.75Q554.5 76.0 553.0 83.0Q552.0 90.5 550.75 106.0Q549.5 121.5 549.5 137.5Q549.5 157.5 550.25 174.5Q551.0 191.5 551.5 196.0Q553.5 194.5 559.0 190.5Q564.5 186.5 569.5 182.0Q575.5 177.0 581.0 173.5Q586.5 170.0 589.0 170.0Q595.5 170.0 595.5 177.0Q595.5 181.0 593.25 185.75Q591.0 190.5 588.0 192.5Q583.5 195.0 577.25 203.75Q571.0 212.5 564.5 223.5Q558.0 234.5 553.5 244.25Q549.0 254.0 548.5 258.5V260.0Q549.5 262.0 550.5 264.25Q551.5 266.5 552.0 266.5Q558.0 266.5 558.0 273.0Q558.0 273.5 558.0 274.75Q558.0 276.0 557.5 277.0V277.5Q557.5 278.5 561.5 282.75Q565.5 287.0 569.5 291.0Q598.5 315.5 617.0 334.5Q635.5 353.5 636.0 358.0Q635.5 362.0 631.5 363.5H630.5Q627.5 363.5 615.75 355.25Q604.0 347.0 590.0 334.5Q568.0 314.0 551.25 301.5Q534.5 289.0 519.0 281.5Q503.5 274.0 485.0 268.0L478.0 265.0Q466.5 260.0 461.0 257.5Q455.5 255.0 455.5 251.5Q455.5 248.0 458.5 246.0Q451.5 246.0 440.5 249.5Q429.5 253.0 421.0 257.5L418.5 258.5Q410.5 262.0 404.25 264.25Q398.0 266.5 393.5 266.5Q391.5 266.5 388.5 265.5Q390.0 269.0 391.0 271.5Q392.0 274.0 392.0 275.5V276.5Q397.5 281.0 410.0 291.5Q422.5 302.0 436.0 314.25Q449.5 326.5 459.25 337.25Q469.0 348.0 469.0 353.0Q469.0 358.5 463.0 358.5Q461.0 358.5 452.0 352.0Q443.0 345.5 431.5 336.0Q405.0 312.0 384.25 296.75Q363.5 281.5 344.25 273.0Q325.0 264.5 304.25 260.75Q283.5 257.0 257.25 256.25Q231.0 255.5 195.5 255.5Q170.0 255.5 146.5 256.0Q123.0 256.5 106.5 257.25Q90.0 258.0 84.5 259.5Q78.0 261.5 67.5 267.5Q57.0 273.5 50.0 279.0Q42.0 286.0 34.75 290.75Q27.5 295.5 26.0 295.5Q22.5 295.5 20.25 284.0Q18.0 272.5 18.0 256.5Q18.0 242.5 16.75 228.75Q15.5 215.0 14.0 208.5Q12.5 205.5 11.25 201.75Q10.0 198.0 10.0 195.5Q10.0 193.5 11.0 191.0Q12.0 188.5 14.0 187.5H15.0Q17.5 187.5 25.75 190.75Q34.0 194.0 43.0 198.0Q62.0 208.5 79.25 215.0Q96.5 221.5 115.75 225.75Q135.0 230.0 160.25 232.0Q185.5 234.0 221.0 235.5L310.5 237.5L368.0 206.0L366.5 161.5Q364.5 127.5 355.5 100.75Q346.5 74.0 330.5 51.5Q325.5 44.5 321.0 37.75Q316.5 31.0 316.5 28.5Q316.5 24.5 331.0 22.75Q345.5 21.0 364.0 21.0Q378.5 21.0 393.25 21.75Q408.0 22.5 418.5 23.75Q429.0 25.0 431.0 27.0V29.0Q431.0 31.5 427.0 36.75Q423.0 42.0 417.5 47.0L407.5 55.0L414.5 60.0Q420.5 63.5 432.5 65.5Q444.5 67.5 469.0 67.5Q489.0 67.5 500.25 67.25Q511.5 67.0 511.5 66.5Q511.5 64.5 507.25 57.0Q503.0 49.5 497.5 41.0Q491.0 32.0 486.25 24.5Q481.5 17.0 481.5 15.0ZM63.0 300.0Q63.0 297.5 77.0 294.25Q91.0 291.0 110.0 291.0Q129.0 291.0 142.25 293.25Q155.5 295.5 155.5 299.0Q155.5 300.0 152.75 303.5Q150.0 307.0 146.0 312.0Q142.5 315.5 138.0 321.5L121.0 336.0V389.5Q121.0 416.5 118.75 433.0Q116.5 449.5 112.5 449.5Q107.5 449.5 105.0 436.25Q102.5 423.0 102.5 402.5Q102.5 375.5 97.0 354.5Q91.5 333.5 72.0 314.0Q69.0 310.5 66.0 306.25Q63.0 302.0 63.0 300.0Z" fill="black" /></svg>