<svg xmlns="http://www.w3.org/2000/svg" width="466.0" height="384.5" viewBox="0 0 466.0 384.5"><path d="M203.0 323.0 200.5 322.0Q195.5 319.5 191.75 317.75Q188.0 316.0 186.0 316.0Q183.0 316.0 181.25 323.0Q179.5 330.0 179.0 338.75Q178.5 347.5 178.0 353.0Q180.0 352.0 182.0 351.25Q184.0 350.5 185.5 350.0Q189.5 346.5 198.75 342.5Q208.0 338.5 216.5 336.0Q222.0 333.5 224.5 332.75Q227.0 332.0 227.0 332.0Q216.5 329.5 203.0 323.0ZM107.0 174.0Q109.0 170.5 110.5 167.25Q112.0 164.0 113.0 161.5Q108.5 167.0 100.25 176.75Q92.0 186.5 82.5 197.5L56.5 226.0L65.5 226.5Q70.0 226.5 75.0 226.5Q80.0 226.5 83.5 227.5H89.0Q90.5 227.5 91.75 224.5Q93.0 221.5 94.0 213.0Q96.0 206.0 99.5 194.75Q103.0 183.5 107.0 174.0ZM294.5 245.0Q293.0 244.0 290.25 242.5Q287.5 241.0 283.5 239.5L275.5 235.5V242.5Q275.5 251.0 276.0 251.0Q276.0 251.0 276.25 251.0Q276.5 251.0 277.0 250.5Q279.5 249.5 283.75 248.0Q288.0 246.5 291.5 246.0Q293.5 245.0 294.5 245.0ZM201.5 69.5Q190.5 62.0 185.0 62.0V95.0Q185.0 95.0 185.5 95.0Q186.0 95.0 186.0 94.5Q189.0 93.5 198.75 90.25Q208.5 87.0 218.5 83.5L231.5 79.5L230.5 79.0Q224.5 78.0 215.75 75.0Q207.0 72.0 201.5 69.5ZM231.5 140.0 236.5 130.0H218.0L222.0 142.5Q223.0 145.0 224.0 147.25Q225.0 149.5 225.5 152.0Q226.5 151.0 226.75 150.0Q227.0 149.0 227.5 148.5Q228.5 146.5 229.5 144.25Q230.5 142.0 231.5 140.0ZM295.0 174.5 290.5 173.0Q288.5 172.0 286.5 171.0Q284.5 170.0 283.0 170.0V182.5Q284.5 182.5 291.5 179.0Q294.0 178.0 296.0 177.0Q298.0 176.0 298.5 175.5Q298.0 175.5 297.25 175.25Q296.5 175.0 295.0 174.5ZM433.5 33.5V30.5Q434.0 30.0 434.0 28.5Q432.0 28.5 429.5 28.75Q427.0 29.0 423.5 29.5Q422.5 29.5 421.0 29.5Q419.5 29.5 417.5 30.0H409.5L392.0 31.5L399.0 46.5Q403.0 54.5 406.75 66.75Q410.5 79.0 412.0 87.5Q414.0 94.0 415.0 97.5Q416.0 101.0 416.0 101.0Q416.5 100.0 417.0 96.0Q417.5 92.0 418.5 85.5Q419.5 77.5 421.75 68.5Q424.0 59.5 426.0 54.5L429.0 48.5Q430.0 45.0 431.5 40.75Q433.0 36.5 433.5 33.5ZM198.5 119.5V116.5L199.5 116.0Q202.5 114.5 211.0 114.5Q218.0 114.5 228.25 115.25Q238.5 116.0 247.0 117.25Q255.5 118.5 256.5 119.5V122.5Q256.5 127.5 252.5 131.5Q246.0 141.0 242.5 151.25Q239.0 161.5 237.5 179.75Q236.0 198.0 235.5 231.5Q234.5 263.5 232.25 282.75Q230.0 302.0 226.0 302.0H225.0Q223.0 301.0 221.5 288.75Q220.0 276.5 220.0 258.5V230.0Q220.0 194.0 216.25 172.25Q212.5 150.5 202.5 132.0Q198.5 124.0 198.5 119.5ZM435.5 13.0H436.0Q437.0 12.5 438.5 12.25Q440.0 12.0 441.0 11.5Q445.0 10.0 447.5 10.0Q450.5 10.0 453.5 12.0H454.0Q456.0 15.0 456.0 17.0Q456.0 20.5 454.0 23.5Q451.5 27.0 446.75 40.25Q442.0 53.5 437.0 72.0Q432.0 90.5 428.0 110.5Q422.5 138.0 419.5 190.5Q416.5 243.0 416.0 331.0Q416.0 349.5 414.0 360.25Q412.0 371.0 409.0 371.0L406.0 370.5Q405.0 368.0 403.25 361.75Q401.5 355.5 401.0 349.0L399.5 337.5L336.0 336.0H313.0Q309.5 335.5 305.75 335.5Q302.0 335.5 299.0 335.5Q281.0 335.5 260.25 339.5Q239.5 343.5 219.5 350.25Q199.5 357.0 184.0 366.5Q178.0 370.0 172.5 372.25Q167.0 374.5 165.0 374.5L162.5 374.0Q161.0 371.5 161.0 367.5Q161.0 365.0 161.5 360.75Q162.0 356.5 163.0 352.5Q164.0 346.5 165.0 337.0Q166.0 327.5 166.5 319.5L167.0 317.0Q167.0 305.5 164.0 300.25Q161.0 295.0 151.5 287.0Q142.5 279.5 126.5 268.75Q110.5 258.0 93.75 249.5Q77.0 241.0 64.0 241.0Q62.0 241.0 59.25 241.25Q56.5 241.5 54.0 242.0Q52.0 242.0 50.25 242.25Q48.5 242.5 46.0 242.5L10.0 246.5L36.0 222.0Q43.5 215.5 56.75 202.0Q70.0 188.5 85.0 172.0Q100.0 155.5 113.75 139.5Q127.5 123.5 137.25 111.5Q147.0 99.5 149.0 95.0Q156.5 82.0 163.0 82.0Q167.0 82.0 167.0 87.5Q167.0 92.5 165.5 95.5Q164.0 99.5 160.25 106.25Q156.5 113.0 152.5 118.5L149.5 123.5Q145.5 131.0 138.25 144.5Q131.0 158.0 125.5 171.0Q117.5 187.5 113.25 200.75Q109.0 214.0 108.5 221.0Q108.5 222.5 109.0 224.25Q109.5 226.0 110.0 226.0Q118.0 226.0 118.0 234.5Q118.0 235.0 118.0 236.5Q118.0 238.0 117.5 239.0V240.5Q117.5 246.0 136.0 259.5Q140.5 262.0 145.75 265.5Q151.0 269.0 155.0 272.0Q159.0 274.0 162.0 276.0Q165.0 278.0 167.0 279.0Q171.0 281.5 178.25 286.75Q185.5 292.0 191.0 297.5Q198.5 304.0 207.0 308.5Q215.5 313.0 228.75 315.75Q242.0 318.5 263.25 320.0Q284.5 321.5 317.5 322.5Q352.0 324.0 370.5 324.0Q386.0 324.0 392.5 323.0Q399.0 322.0 400.0 321.0Q403.0 318.5 404.25 310.75Q405.5 303.0 405.5 284.0V251.5H361.0Q338.5 251.5 327.25 252.0Q316.0 252.5 308.5 255.0Q301.0 257.5 290.5 263.5L261.0 276.0V242.5Q261.0 226.0 262.5 218.5Q264.0 211.0 269.0 211.0Q272.5 211.0 279.5 217.0Q286.5 227.0 302.5 230.5Q318.5 234.0 356.0 235.0L403.0 235.5L405.5 178.5L365.0 180.0Q343.0 180.5 330.0 182.25Q317.0 184.0 306.75 188.5Q296.5 193.0 283.0 201.5Q280.0 203.5 276.5 204.75Q273.0 206.0 271.5 206.0L268.5 205.5Q268.0 204.5 267.5 201.0Q267.0 197.5 267.0 193.0Q267.0 189.0 267.25 183.75Q267.5 178.5 268.0 173.0L269.5 138.5L290.5 155.0Q297.5 159.5 303.0 161.5Q308.5 163.5 320.25 164.25Q332.0 165.0 357.5 165.0H406.0L404.0 131.5Q403.0 118.0 401.0 104.25Q399.0 90.5 397.0 87.0L395.0 80.0L330.0 81.5Q307.5 82.0 293.0 82.75Q278.5 83.5 268.25 85.0Q258.0 86.5 247.75 89.5Q237.5 92.5 223.5 97.5Q207.5 103.0 194.25 108.0Q181.0 113.0 178.5 114.0H176.0Q172.5 114.0 170.75 110.5Q169.0 107.0 169.0 97.0Q169.0 93.5 169.25 88.5Q169.5 83.5 170.0 78.0Q170.5 62.0 173.0 50.75Q175.5 39.5 177.5 39.5Q180.0 39.5 186.0 42.75Q192.0 46.0 197.5 50.0Q207.0 55.5 217.0 59.0Q227.0 62.5 242.25 64.0Q257.5 65.5 282.5 65.5H319.0L392.0 65.0L383.0 47.5Q378.5 37.5 375.0 28.25Q371.5 19.0 371.5 17.5Q371.5 17.5 381.25 17.0Q391.0 16.5 402.0 16.5Q412.5 16.5 423.0 15.5Q433.5 14.5 435.5 13.0Z" fill="black" /></svg>