<svg xmlns="http://www.w3.org/2000/svg" width="631.0" height="462.0" viewBox="0 0 631.0 462.0"><path d="M54.5 147.0 55.0 143.0Q55.0 140.5 55.25 139.0Q55.5 137.5 55.5 136.5Q55.5 134.5 54.0 134.25Q52.5 134.0 47.0 134.0Q38.0 134.0 38.0 136.0Q38.0 138.5 39.75 143.25Q41.5 148.0 44.5 155.0Q46.5 159.0 48.0 162.25Q49.5 165.5 50.0 165.5Q50.5 165.5 51.5 160.25Q52.5 155.0 54.5 147.0ZM144.0 240.0Q142.0 238.0 137.75 234.5Q133.5 231.0 128.0 227.5L114.0 218.5V264.0L128.0 253.0Q133.5 249.5 137.75 246.0Q142.0 242.5 144.0 240.0ZM325.5 235.5Q321.5 234.5 318.0 233.25Q314.5 232.0 311.0 231.0L305.5 229.0Q297.0 226.5 296.5 226.5Q296.0 226.5 295.75 231.5Q295.5 236.5 295.5 243.5V250.5Q295.5 261.0 296.5 261.0Q297.5 261.0 301.0 259.75Q304.5 258.5 308.5 256.0L313.0 254.5Q316.5 253.0 321.25 251.5Q326.0 250.0 329.5 248.5Q332.5 247.0 335.25 245.5Q338.0 244.0 340.0 243.5Q341.5 243.0 341.5 243.0Q341.5 243.0 341.5 243.0Q340.0 242.0 335.75 240.25Q331.5 238.5 325.5 235.5ZM558.0 196.0H541.0Q535.5 196.0 523.75 195.5Q512.0 195.0 497.5 194.0Q483.5 193.0 470.75 192.5Q458.0 192.0 445.0 192.0Q410.5 192.0 379.75 194.75Q349.0 197.5 329.25 202.0Q309.5 206.5 307.5 211.0Q309.5 213.0 319.75 217.5Q330.0 222.0 344.0 226.5Q358.0 230.5 372.25 233.25Q386.5 236.0 409.25 237.5Q432.0 239.0 470.0 240.0L558.0 242.5ZM558.0 259.0 529.5 255.0Q517.0 254.0 501.25 253.5Q485.5 253.0 468.5 253.0Q446.0 253.0 422.5 254.0Q399.0 255.0 378.0 257.0Q357.0 259.0 341.5 261.5Q326.0 264.0 319.5 267.0Q317.5 268.5 315.5 270.0Q313.5 271.5 313.5 272.0Q313.5 277.0 352.5 288.0Q366.5 292.0 381.75 294.25Q397.0 296.5 418.75 297.25Q440.5 298.0 474.0 298.0H558.0ZM147.5 93.5Q147.5 91.0 147.5 89.0Q147.5 87.0 147.0 87.0Q144.5 87.0 136.5 93.25Q128.5 99.5 120.5 107.25Q112.5 115.0 109.5 119.5Q111.5 119.5 113.0 120.0Q117.0 121.5 122.75 122.5Q128.5 123.5 134.5 124.5L154.5 127.5L151.0 117.0Q149.5 111.5 148.5 104.25Q147.5 97.0 147.5 93.5ZM327.5 176.5 324.5 175.5Q311.5 170.0 305.0 170.0Q298.5 170.0 295.5 178.5Q289.5 187.5 289.5 199.5Q292.0 199.0 296.5 197.25Q301.0 195.5 307.5 192.0Q309.0 191.5 310.75 191.0Q312.5 190.5 313.5 190.0L316.0 189.5Q321.0 187.5 326.0 185.25Q331.0 183.0 334.0 181.5Q335.0 180.5 336.0 180.5Q337.0 180.5 337.0 180.5Q336.0 179.5 333.25 178.75Q330.5 178.0 327.5 176.5ZM351.0 118.0Q340.5 118.0 331.0 113.75Q321.5 109.5 313.0 104.0L295.5 94.0V113.5Q295.5 129.5 296.75 136.75Q298.0 144.0 303.0 144.0Q306.0 144.0 313.75 140.75Q321.5 137.5 330.0 133.0Q338.5 128.5 344.75 124.25Q351.0 120.0 351.0 118.0ZM546.5 137.5 541.5 118.0H496.5Q443.0 119.0 407.75 124.25Q372.5 129.5 349.5 141.0Q338.0 146.0 329.25 150.25Q320.5 154.5 320.5 155.5Q320.5 157.0 329.0 160.0Q337.5 163.0 348.5 166.5Q360.0 170.0 374.25 172.25Q388.5 174.5 410.5 175.25Q432.5 176.0 468.0 176.0H510.0Q536.0 176.0 545.0 174.5Q554.0 173.0 554.0 166.5Q554.0 161.0 551.75 154.0Q549.5 147.0 547.5 142.5Q547.0 140.5 547.0 139.5Q547.0 138.5 546.5 137.5ZM580.5 57.5 591.5 35.0H564.0Q551.0 35.0 542.0 36.0Q533.0 37.0 533.0 38.0Q533.0 39.0 535.25 45.25Q537.5 51.5 539.5 57.5Q541.0 58.5 541.5 61.0Q542.0 62.5 543.0 64.25Q544.0 66.0 544.5 67.5L545.5 70.0Q548.0 75.0 550.5 81.0Q553.0 87.0 554.5 91.0Q557.0 97.0 558.25 104.75Q559.5 112.5 559.5 116.0Q559.0 118.5 559.0 122.0V123.0Q563.0 120.0 565.5 105.0Q566.5 97.5 571.25 83.5Q576.0 69.5 580.5 57.5ZM97.0 419.5 107.0 399.0Q112.5 389.0 114.5 382.75Q116.5 376.5 116.5 374.0Q115.0 374.0 108.5 376.5Q105.5 377.5 97.5 378.75Q89.5 380.0 82.5 380.0Q79.0 380.5 75.0 381.0Q71.0 381.5 68.5 381.5H68.0Q70.0 384.0 74.0 389.75Q78.0 395.5 84.5 403.0ZM320.5 373.0Q296.5 367.5 276.0 356.0Q271.5 353.5 268.75 352.0Q266.0 350.5 264.5 350.5V375.5Q264.5 386.0 264.25 393.5Q264.0 401.0 264.0 401.0Q266.5 400.5 274.75 397.5Q283.0 394.5 294.0 390.5Q305.0 386.5 315.25 382.5Q325.5 378.5 331.5 376.0Q326.0 375.0 320.5 373.0ZM321.0 312.0 341.5 303.0 300.5 287.0 299.0 303.5Q298.0 309.0 297.5 314.25Q297.0 319.5 297.0 322.5Q300.5 321.0 307.0 318.0Q313.5 315.0 321.0 312.0ZM516.5 369.5H558.0V314.5H467.0Q432.0 315.0 407.75 315.75Q383.5 316.5 367.0 318.5Q350.5 320.5 338.25 323.75Q326.0 327.0 314.0 332.5Q295.0 339.5 295.0 345.5Q295.0 352.0 322.25 356.5Q349.5 361.0 398.5 364.5Q418.5 365.5 441.0 366.75Q463.5 368.0 483.75 368.75Q504.0 369.5 516.5 369.5ZM506.0 14.0Q506.0 10.0 512.5 10.0Q513.5 10.0 514.75 10.0Q516.0 10.0 518.0 10.5L520.5 11.0Q523.5 13.0 539.0 15.0Q554.5 17.0 573.0 17.5Q598.5 18.0 609.75 20.75Q621.0 23.5 621.0 29.0Q621.0 32.5 613.5 39.0Q611.0 41.5 604.5 52.75Q598.0 64.0 591.5 77.0L577.0 107.5L576.0 238.5Q575.5 266.0 575.5 286.75Q575.5 307.5 575.5 321.5Q575.5 343.0 576.0 352.75Q576.5 362.5 578.0 365.0Q579.5 367.5 582.0 368.0Q594.5 371.5 594.5 378.0Q594.5 383.5 582.5 387.5Q577.5 389.0 577.5 396.0Q577.5 397.5 577.5 399.25Q577.5 401.0 578.0 403.0Q578.5 405.0 578.5 407.0Q578.5 409.0 578.5 410.0Q578.5 422.0 573.0 422.0Q569.5 422.0 566.25 416.25Q563.0 410.5 562.5 402.5L561.0 389.0L478.0 384.0H473.0Q460.5 383.5 449.0 383.0Q437.5 382.5 426.0 382.5Q398.0 382.5 375.75 385.0Q353.5 387.5 332.25 393.5Q311.0 399.5 286.0 410.0Q274.0 415.0 265.0 418.0Q256.0 421.0 253.5 421.0H252.0Q250.5 419.0 249.5 408.25Q248.5 397.5 247.75 382.75Q247.0 368.0 247.0 355.0Q247.0 342.0 247.5 332.75Q248.0 323.5 249.5 321.5Q250.5 321.0 251.5 320.5Q252.5 320.0 253.0 320.0Q255.5 320.5 258.75 322.5Q262.0 324.5 264.0 327.0Q268.0 333.5 272.0 333.5Q275.5 333.5 277.75 326.0Q280.0 318.5 281.5 309.75Q283.0 301.0 283.0 297.0Q283.0 294.0 282.25 291.75Q281.5 289.5 281.5 289.5Q275.0 286.5 275.0 272.5Q275.0 263.5 276.5 252.5L277.0 243.5Q277.0 239.5 277.25 236.25Q277.5 233.0 277.5 231.0V229.0Q274.0 231.0 257.25 234.25Q240.5 237.5 220.0 239.0Q194.5 240.5 177.0 245.25Q159.5 250.0 146.75 259.25Q134.0 268.5 121.5 284.0Q116.5 290.5 111.75 294.75Q107.0 299.0 105.0 299.0L103.5 298.0Q102.0 297.0 100.75 285.25Q99.5 273.5 98.25 256.25Q97.0 239.0 96.25 222.0Q95.5 205.0 95.5 194.0Q95.5 179.0 99.5 179.0Q101.5 179.0 110.5 188.0Q114.0 191.0 117.5 195.0Q121.0 199.0 126.0 202.5Q136.5 213.0 142.25 218.0Q148.0 223.0 154.5 224.25Q161.0 225.5 173.0 225.5Q190.5 225.5 209.0 224.25Q227.5 223.0 240.25 221.5Q253.0 220.0 253.0 218.5Q253.0 217.5 241.5 207.5Q230.0 197.5 213.5 185.0Q195.0 168.0 178.75 158.5Q162.5 149.0 144.5 143.75Q126.5 138.5 102.5 135.5L74.5 132.5L66.0 167.0Q61.5 185.5 60.0 205.0Q58.5 224.5 58.5 255.5V286.0L60.0 363.0L76.5 363.5H81.0Q82.5 364.0 84.5 364.0Q95.5 364.0 108.75 358.25Q122.0 352.5 141.75 339.5Q161.5 326.5 191.5 305.0Q208.5 292.0 223.5 281.0Q238.5 270.0 248.5 263.0Q258.5 256.0 259.5 256.0Q264.5 256.0 264.5 261.0Q264.5 271.0 204.0 315.0Q185.0 330.0 172.75 340.0Q160.5 350.0 153.0 358.25Q145.5 366.5 139.75 375.25Q134.0 384.0 128.0 397.0L120.0 412.5Q115.5 423.5 111.75 432.25Q108.0 441.0 107.0 443.5Q105.5 452.0 100.5 452.0Q98.5 452.0 95.75 448.0Q93.0 444.0 88.5 437.5Q84.0 430.0 74.75 418.5Q65.5 407.0 58.5 399.0L40.0 374.0L40.5 307.5V285.0Q40.5 234.5 35.25 197.0Q30.0 159.5 21.5 144.0Q16.5 137.0 13.25 129.5Q10.0 122.0 10.0 120.0Q10.0 117.0 21.25 116.0Q32.5 115.0 49.5 115.0H62.0Q72.5 115.0 78.75 113.75Q85.0 112.5 91.25 108.5Q97.5 104.5 107.0 97.0Q117.0 88.5 128.5 78.75Q140.0 69.0 144.5 63.5Q150.0 58.0 154.5 55.5Q159.0 53.0 161.0 53.0Q167.5 53.0 167.5 62.0Q167.5 64.5 167.0 68.25Q166.5 72.0 165.5 76.0Q164.0 81.0 163.5 85.5Q163.0 90.0 163.0 94.0Q163.0 103.5 168.0 112.5Q173.0 121.5 184.25 132.75Q195.5 144.0 215.0 162.0Q235.0 180.5 250.25 194.0Q265.5 207.5 267.5 207.5Q271.5 207.5 274.25 187.75Q277.0 168.0 277.0 136.0Q277.0 133.5 277.0 130.75Q277.0 128.0 276.5 125.5V113.5Q276.5 111.0 276.5 108.25Q276.5 105.5 276.0 103.5Q276.0 101.5 276.0 94.5Q276.0 87.5 276.75 79.5Q277.5 71.5 278.75 65.75Q280.0 60.0 282.0 60.0Q289.5 60.0 289.5 67.5Q289.5 69.5 297.5 74.75Q305.5 80.0 316.0 87.0L341.5 104.0L439.0 103.0Q475.0 102.5 502.5 101.75Q530.0 101.0 536.5 100.0Q536.0 95.5 532.0 84.25Q528.0 73.0 523.5 59.5Q516.0 43.5 511.0 29.75Q506.0 16.0 506.0 14.0Z" fill="black" /></svg>