<svg xmlns="http://www.w3.org/2000/svg" width="754.5" height="383.0" viewBox="0 0 754.5 383.0"><path d="M220.5 212.0 216.0 211.0Q208.0 208.5 202.25 207.25Q196.5 206.0 193.5 206.0Q189.0 207.5 189.0 217.5Q189.0 228.0 190.5 228.0Q193.5 228.0 206.5 221.0L211.0 219.0Q215.0 217.5 218.75 216.0Q222.5 214.5 225.5 213.5Q222.5 212.5 220.5 212.0ZM305.5 296.0Q308.5 292.5 310.75 290.0Q313.0 287.5 315.0 285.5Q306.5 287.5 295.25 290.0Q284.0 292.5 280.5 293.5Q281.0 298.0 283.25 305.5Q285.5 313.0 287.5 315.5L288.5 314.5Q291.5 312.0 296.0 307.25Q300.5 302.5 305.5 296.0ZM153.0 158.5Q155.5 155.0 157.25 151.75Q159.0 148.5 161.0 146.0Q163.0 143.0 164.75 140.25Q166.5 137.5 167.5 135.5Q142.0 158.0 116.25 180.25Q90.5 202.5 64.0 224.0L47.5 236.0L69.5 238.5Q83.0 239.5 93.5 241.5Q104.0 243.5 106.0 244.5Q106.0 245.0 107.0 245.0Q111.0 245.0 115.0 240.0Q119.0 235.0 119.0 230.0Q119.0 217.0 127.5 199.5Q136.0 182.0 153.0 158.5ZM279.5 107.0Q278.5 106.0 273.5 105.0V105.5Q273.5 107.5 278.0 122.0Q280.5 129.5 282.5 135.0Q284.5 140.5 284.5 140.5Q287.5 136.5 292.5 125.0L299.5 113.0H295.5Q290.5 113.0 285.75 111.0Q281.0 109.0 279.5 107.0ZM358.0 103.5Q355.0 96.5 353.5 90.75Q352.0 85.0 352.0 78.0V78.5Q349.5 79.5 343.75 83.5Q338.0 87.5 333.25 91.75Q328.5 96.0 328.0 98.0Q329.0 99.0 335.25 102.25Q341.5 105.5 349.5 108.5Q357.5 111.5 362.5 113.0Q360.5 107.5 358.0 103.5ZM350.5 125.5Q333.0 116.0 326.0 116.0Q317.5 116.0 311.25 124.5Q305.0 133.0 300.75 145.25Q296.5 157.5 294.25 169.0Q292.0 180.5 291.5 186.5L290.0 200.5L314.0 202.0Q345.0 203.5 345.0 211.0Q345.0 218.5 312.5 218.5H287.0L291.5 252.5Q292.0 255.5 292.25 258.25Q292.5 261.0 293.0 263.5Q293.5 267.5 293.75 270.25Q294.0 273.0 294.0 273.0Q294.0 273.0 294.5 273.25Q295.0 273.5 295.5 273.5Q301.5 273.5 313.75 268.5Q326.0 263.5 342.0 255.5Q358.0 247.5 373.5 238.5Q390.0 227.0 405.75 217.0Q421.5 207.0 426.5 205.0Q430.0 202.5 430.0 202.0Q430.0 199.5 423.0 191.25Q416.0 183.0 405.25 172.5Q394.5 162.0 383.25 151.75Q372.0 141.5 363.0 134.0Q354.0 126.5 350.5 125.5ZM488.0 284.0Q501.0 276.5 507.0 272.5Q499.5 273.0 488.25 273.5Q477.0 274.0 471.5 274.0H466.0L435.0 275.5L435.5 295.5Q436.5 305.0 438.25 310.75Q440.0 316.5 441.5 316.5Q443.5 316.5 448.5 310.0Q451.0 307.5 462.75 299.75Q474.5 292.0 488.0 284.0ZM462.0 111.5 458.0 110.5Q454.5 109.5 450.0 108.25Q445.5 107.0 442.5 106.5Q442.5 106.0 441.5 106.0Q442.0 108.0 443.5 112.75Q445.0 117.5 448.0 123.0L453.0 135.0L459.0 126.0Q468.5 115.5 468.5 114.0L465.5 113.0Q465.0 112.5 464.0 112.25Q463.0 112.0 462.0 111.5ZM630.5 152.5 614.0 145.5Q593.5 135.0 568.75 124.5Q544.0 114.0 518.25 106.5Q492.5 99.0 468.0 98.0Q470.5 98.5 473.5 99.25Q476.5 100.0 479.0 100.5Q487.5 101.5 493.0 104.0Q498.5 106.5 498.5 109.0Q498.5 110.5 495.5 113.25Q492.5 116.0 488.5 120.0L484.0 124.5Q478.5 129.0 473.0 136.25Q467.5 143.5 465.0 149.0Q462.0 155.5 460.75 169.5Q459.5 183.5 459.5 200.5Q459.5 211.0 460.0 222.0Q460.5 233.0 461.5 242.5L463.5 260.5L490.5 257.5Q502.0 256.5 513.0 254.5Q524.0 252.5 540.5 247.75Q557.0 243.0 583.5 234.0Q610.0 225.0 652.0 210.5L710.5 190.0L694.5 183.0Q686.0 179.0 668.0 170.5Q650.0 162.0 630.5 152.5ZM486.5 49.0 488.0 50.0Q486.0 47.0 484.0 45.5Q482.0 44.0 481.0 43.5Q481.0 45.5 477.5 52.25Q474.0 59.0 469.0 65.5Q464.0 73.0 461.0 79.5Q465.5 80.5 473.0 82.0Q480.5 83.5 489.0 84.5Q502.0 86.5 515.0 89.0Q528.0 91.5 540.0 96.5Q539.0 95.5 537.75 94.25Q536.5 93.0 534.5 92.0Q528.5 87.5 518.25 79.5Q508.0 71.5 498.75 63.0Q489.5 54.5 486.5 49.0ZM231.5 51.0Q233.5 46.0 236.75 43.5Q240.0 41.0 243.0 40.5Q248.5 41.5 248.5 46.5Q248.5 51.5 239.75 64.75Q231.0 78.0 217.0 95.5Q209.5 105.0 196.5 122.0Q183.5 139.0 170.25 158.75Q157.0 178.5 147.0 196.5Q137.0 214.5 135.5 225.5V233.0Q135.0 234.5 135.0 236.5Q135.0 242.0 138.0 242.0Q147.5 242.0 147.5 246.5Q147.5 249.0 143.5 251.5L141.0 254.0V253.0Q139.5 255.0 139.5 257.5Q139.5 270.5 169.0 293.0Q179.5 301.0 190.25 312.0Q201.0 323.0 210.0 334.25Q219.0 345.5 224.75 354.5Q230.5 363.5 230.5 368.0V371.0L227.5 373.0Q225.0 373.0 218.5 367.25Q212.0 361.5 205.0 352.5Q198.0 343.5 184.5 330.25Q171.0 317.0 154.75 303.25Q138.5 289.5 123.25 278.25Q108.0 267.0 97.5 261.5Q90.0 257.5 78.5 255.5Q67.0 253.5 48.0 253.5Q32.5 253.5 21.25 251.5Q10.0 249.5 10.0 246.5Q10.0 244.5 18.5 237.25Q27.0 230.0 38.5 222.0Q51.5 213.0 70.25 198.25Q89.0 183.5 110.25 165.5Q131.5 147.5 152.5 129.0Q173.5 110.5 190.75 94.0Q208.0 77.5 219.25 66.0Q230.5 54.5 231.5 51.0ZM469.5 26.0Q469.5 19.5 471.75 14.75Q474.0 10.0 477.5 10.0Q485.0 10.0 485.0 18.5Q485.0 25.0 503.75 43.75Q522.5 62.5 550.5 84.5Q581.5 106.5 624.75 130.0Q668.0 153.5 716.0 174.0Q728.5 179.5 736.5 185.75Q744.5 192.0 744.5 194.5V196.5Q740.5 199.5 736.5 199.5Q735.0 199.5 733.75 199.25Q732.5 199.0 730.0 198.5Q730.0 198.0 728.5 198.0Q725.5 198.0 725.0 198.5L724.5 198.0Q719.0 202.5 700.0 209.75Q681.0 217.0 657.5 225.5Q631.0 233.5 606.75 242.75Q582.5 252.0 573.0 257.5Q547.0 269.5 521.5 284.0Q496.0 298.5 476.0 311.75Q456.0 325.0 446.5 334.0Q424.0 354.0 419.0 354.0Q414.0 354.0 414.0 349.0Q414.0 345.5 416.0 341.0Q420.0 334.5 421.75 325.25Q423.5 316.0 423.5 306.5Q423.5 293.5 420.5 282.0Q417.5 270.5 412.0 268.5Q408.5 267.5 406.0 263.5Q403.5 259.5 403.5 256.0Q403.5 247.5 410.0 247.5H411.5L414.0 249.0Q415.0 249.5 416.75 250.25Q418.5 251.0 420.5 252.0Q422.0 252.5 423.75 253.25Q425.5 254.0 427.5 255.0Q434.5 259.0 440.5 259.0Q445.5 259.0 445.5 248.0Q445.5 245.5 445.0 238.25Q444.5 231.0 443.75 224.0Q443.0 217.0 442.5 215.5Q425.5 225.0 404.25 238.5Q383.0 252.0 362.0 268.0Q341.0 284.0 324.0 301.0Q307.0 318.0 298.0 334.5Q293.5 343.0 289.5 348.5Q285.5 354.0 283.0 354.0Q276.5 354.0 276.5 339.5Q276.5 332.0 273.25 322.25Q270.0 312.5 265.5 304.0Q261.0 295.5 256.5 292.0V293.0Q252.5 290.5 249.25 285.75Q246.0 281.0 246.0 278.0Q246.0 270.5 251.5 270.0Q256.0 272.0 262.75 274.75Q269.5 277.5 274.0 277.5Q275.0 277.5 275.75 276.25Q276.5 275.0 276.5 271.0Q276.5 268.0 276.0 260.0Q275.5 252.0 274.75 242.75Q274.0 233.5 273.25 226.25Q272.5 219.0 271.5 218.5H271.0Q265.0 218.5 252.0 222.25Q239.0 226.0 225.25 231.0Q211.5 236.0 204.0 240.0Q199.0 244.5 193.25 250.25Q187.5 256.0 186.5 259.5Q181.5 274.5 174.5 274.5Q168.5 274.5 168.5 266.0Q168.5 265.0 168.75 262.75Q169.0 260.5 169.5 259.0Q174.5 232.0 174.5 217.5Q174.5 211.5 173.5 207.0Q172.5 202.5 170.0 197.5Q168.0 191.5 166.75 186.5Q165.5 181.5 165.5 179.5L166.5 176.0Q170.5 176.0 178.0 179.0Q185.5 182.0 193.5 186.0Q202.0 189.5 215.75 192.75Q229.5 196.0 245.0 197.0L278.0 200.0L275.5 177.5Q275.0 167.5 271.25 151.75Q267.5 136.0 262.5 125.0Q258.0 114.0 255.25 105.0Q252.5 96.0 252.5 93.5V92.0Q254.0 87.5 261.5 87.5Q268.0 87.5 279.0 90.0Q284.5 91.5 289.0 91.5Q291.5 91.5 292.5 92.0Q304.5 91.0 316.75 84.0Q329.0 77.0 341.5 62.5Q345.5 57.5 351.25 52.5Q357.0 47.5 363.5 47.5Q363.5 49.0 363.5 50.75Q363.5 52.5 364.0 54.0Q364.0 86.0 381.25 115.0Q398.5 144.0 420.0 166.0L441.0 187.0L442.0 176.0Q442.0 166.5 439.0 151.5Q436.0 136.5 431.0 122.5Q426.0 108.5 419.0 103.5Q412.5 98.5 412.5 93.5Q412.5 89.0 417.0 86.25Q421.5 83.5 430.5 80.5Q439.0 77.5 448.0 68.0Q457.0 58.5 463.25 46.75Q469.5 35.0 469.5 26.0Z" fill="black" /></svg>