<svg xmlns="http://www.w3.org/2000/svg" width="558.5" height="455.0" viewBox="0 0 558.5 455.0"><path d="M66.5 129.5H52.0Q37.5 129.5 37.5 133.5Q37.5 136.0 39.25 140.75Q41.0 145.5 44.5 153.5L50.5 167.5L57.5 153.5L59.0 149.0Q61.5 146.0 62.0 144.5L63.5 138.5Q64.5 136.0 65.5 133.25Q66.5 130.5 66.5 129.5ZM162.0 241.0 149.0 232.0Q145.0 229.5 140.5 226.0Q138.5 225.0 136.75 223.75Q135.0 222.5 134.0 222.0Q134.0 224.0 133.25 228.5Q132.5 233.0 132.5 239.0Q132.5 247.0 133.25 251.5Q134.0 256.0 134.0 256.0Q135.5 255.5 139.75 253.25Q144.0 251.0 149.0 249.0ZM346.0 292.5 345.5 292.0Q344.5 290.0 343.25 285.75Q342.0 281.5 341.0 276.0L340.5 272.5Q339.5 269.5 339.5 266.5Q339.0 265.5 339.0 263.75Q339.0 262.0 338.0 260.5L336.5 242.0L295.0 282.0L316.0 287.0Q327.5 290.0 334.75 291.25Q342.0 292.5 345.5 292.5ZM182.5 68.5Q184.0 65.5 185.25 62.75Q186.5 60.0 186.5 58.0Q183.0 58.0 173.5 63.25Q164.0 68.5 148.0 77.0L121.5 92.5L139.5 100.0Q149.5 104.0 159.5 108.0Q169.5 112.0 173.0 115.0L174.0 115.5Q174.0 104.0 175.25 91.75Q176.5 79.5 182.5 68.5ZM368.0 105.0 369.0 103.5Q371.0 100.5 372.75 97.75Q374.5 95.0 376.0 93.0Q372.0 95.5 365.25 100.5Q358.5 105.5 350.0 111.0Q340.5 117.5 330.25 124.75Q320.0 132.0 313.0 137.5L296.5 147.0L308.0 149.0Q318.0 150.5 325.25 151.75Q332.5 153.0 337.0 153.0Q344.0 153.0 346.5 149.75Q349.0 146.5 350.0 139.5Q351.5 132.5 356.75 122.25Q362.0 112.0 368.0 105.0ZM466.5 163.5Q467.5 162.5 467.75 162.0Q468.0 161.5 468.5 161.0Q464.5 164.0 459.0 168.25Q453.5 172.5 447.0 177.5L442.5 181.5Q439.5 184.0 432.5 189.75Q425.5 195.5 418.5 201.0Q411.5 206.5 408.0 208.0L404.0 210.5Q401.5 212.0 401.5 213.0Q401.5 213.0 406.75 213.25Q412.0 213.5 423.0 214.5H426.5Q429.5 215.0 431.75 215.25Q434.0 215.5 436.0 215.5Q441.0 215.5 443.0 213.0Q445.0 210.5 446.5 204.5Q447.0 203.5 447.75 202.25Q448.5 201.0 449.0 200.5Q451.5 192.0 457.25 181.25Q463.0 170.5 466.5 163.5ZM99.0 366.5 115.5 350.0H62.0L63.5 374.5Q65.0 387.5 66.25 395.5Q67.5 403.5 68.5 404.5Q71.0 404.0 72.5 399.0L74.0 397.0Q78.0 392.5 85.0 383.5Q92.0 374.5 99.0 366.5ZM421.0 34.0Q434.5 20.5 441.5 20.5Q445.5 20.5 445.5 26.5Q445.5 29.0 439.0 39.75Q432.5 50.5 422.0 63.0Q391.0 99.0 378.5 117.25Q366.0 135.5 366.0 146.5Q366.0 149.5 368.0 153.0L368.5 155.5Q369.5 158.5 370.0 162.25Q370.5 166.0 370.5 168.5V170.5Q370.5 172.5 375.0 176.25Q379.5 180.0 384.5 183.5L398.0 194.0L436.5 166.0Q446.5 157.5 459.75 146.5Q473.0 135.5 485.75 124.5Q498.5 113.5 506.0 106.0Q519.0 94.0 530.25 86.0Q541.5 78.0 545.0 78.0L547.0 78.5L548.5 82.0Q548.5 85.0 543.5 93.0Q538.5 101.0 530.5 110.0Q513.5 130.0 497.75 151.25Q482.0 172.5 472.0 188.0Q462.0 203.5 462.0 208.0Q462.0 214.0 465.5 217.5Q468.5 219.5 469.25 222.75Q470.0 226.0 470.0 229.5Q469.5 230.0 469.5 231.0V231.5Q469.5 234.5 475.5 241.0Q481.5 247.5 493.0 255.5Q505.0 264.5 516.25 275.75Q527.5 287.0 534.75 296.0Q542.0 305.0 542.0 308.5Q542.0 313.5 537.5 313.5Q535.5 313.5 525.5 306.25Q515.5 299.0 504.5 288.0Q492.5 276.0 477.75 265.5Q463.0 255.0 454.5 250.5Q455.0 251.5 455.0 253.5Q455.0 258.5 450.0 258.5Q441.0 258.5 430.0 246.0Q423.5 238.0 414.25 234.25Q405.0 230.5 389.5 228.0L356.5 224.0V225.5Q356.0 227.5 356.0 230.0Q356.0 232.5 356.0 235.0Q355.5 240.0 355.5 244.25Q355.5 248.5 355.5 253.0Q355.5 264.0 358.25 272.75Q361.0 281.5 367.75 291.25Q374.5 301.0 387.5 314.0Q400.5 327.0 420.5 346.5Q433.5 359.0 444.25 371.0Q455.0 383.0 461.75 391.25Q468.5 399.5 468.5 402.5L468.0 404.0Q465.5 406.5 464.5 406.5Q461.5 406.5 446.25 393.25Q431.0 380.0 394.5 346.0Q366.5 319.5 338.75 309.25Q311.0 299.0 271.5 299.0Q259.5 299.0 245.25 304.75Q231.0 310.5 201.5 324.0Q173.5 337.5 154.5 347.75Q135.5 358.0 123.25 367.5Q111.0 377.0 102.5 387.75Q94.0 398.5 87.0 413.0Q80.5 426.5 74.5 435.5Q68.5 444.5 66.0 445.0Q65.5 445.0 65.0 444.75Q64.5 444.5 64.0 444.5Q62.5 442.0 60.0 435.5Q57.5 429.0 55.5 422.0Q53.5 415.0 52.5 411.5L50.0 401.0Q45.5 384.5 40.25 369.0Q35.0 353.5 32.5 347.0Q31.0 342.0 29.75 338.5Q28.5 335.0 28.5 332.0Q28.5 325.5 35.5 325.5Q37.0 325.5 38.75 325.75Q40.5 326.0 42.5 326.5H43.0Q44.0 326.5 45.0 315.5Q46.0 304.5 46.0 272.0Q46.0 247.0 44.75 230.5Q43.5 214.0 40.5 200.0Q37.5 186.0 32.5 169.0Q27.5 153.5 23.25 141.5Q19.0 129.5 18.5 129.5Q10.0 129.5 10.0 121.0Q10.0 118.0 21.75 116.0Q33.5 114.0 52.0 114.0Q69.5 114.0 81.75 115.0Q94.0 116.0 94.0 118.5Q94.0 119.0 91.75 123.75Q89.5 128.5 87.0 133.25Q84.5 138.0 83.5 139.0L79.5 147.5Q74.5 155.5 71.5 162.0Q68.5 168.5 67.25 178.25Q66.0 188.0 65.75 205.5Q65.5 223.0 65.5 253.0V330.0L102.0 331.5H112.5Q115.0 332.0 117.0 332.0Q119.0 332.0 120.5 332.0Q132.5 332.0 142.5 329.5Q152.5 327.0 168.25 320.25Q184.0 313.5 212.5 300.0Q302.0 260.5 305.0 247.5Q304.5 247.0 294.5 247.0Q284.5 247.0 270.0 247.0H244.5Q216.5 248.0 199.0 250.5Q181.5 253.0 168.25 258.75Q155.0 264.5 139.0 276.0Q134.0 280.5 128.75 282.5Q123.5 284.5 120.5 285.5Q117.5 285.5 116.5 282.5Q116.5 279.0 116.75 269.0Q117.0 259.0 117.5 246.25Q118.0 233.5 118.5 221.25Q119.0 209.0 119.75 200.25Q120.5 191.5 121.5 190.5H123.5Q126.0 190.5 132.25 195.5Q138.5 200.5 145.0 207.5Q155.0 217.0 165.5 222.25Q176.0 227.5 194.25 229.5Q212.5 231.5 244.5 231.5H288.5L281.5 223.0Q272.5 213.5 256.25 200.25Q240.0 187.0 220.5 172.75Q201.0 158.5 181.5 145.25Q162.0 132.0 145.75 122.5Q129.5 113.0 120.0 109.5Q78.5 93.5 78.5 87.0Q78.5 82.5 88.5 82.5Q93.5 82.5 106.0 77.5Q118.5 72.5 134.5 64.5Q150.5 56.5 166.5 47.75Q182.5 39.0 194.25 31.5Q206.0 24.0 209.5 20.0V18.5L211.0 17.0Q217.0 10.0 220.0 10.0Q224.0 10.0 225.5 16.5V18.5Q225.5 21.5 224.0 27.0Q222.5 32.5 219.0 36.0Q212.0 44.5 205.75 56.5Q199.5 68.5 195.75 80.75Q192.0 93.0 191.5 102.5Q191.5 106.5 192.0 108.0Q193.0 114.5 195.5 119.0Q198.0 123.5 200.0 123.5Q204.0 123.5 207.75 127.5Q211.5 131.5 211.5 137.0Q211.5 140.5 221.5 150.0Q231.5 159.5 246.5 171.0Q262.0 183.0 276.75 196.25Q291.5 209.5 298.0 215.5Q305.0 222.5 309.75 226.5Q314.5 230.5 318.0 230.5Q322.0 230.5 326.0 226.75Q330.0 223.0 334.5 216.5Q338.5 210.0 344.0 205.25Q349.5 200.5 351.5 200.5Q356.5 200.5 356.5 217.5V220.0L382.5 203.5L364.5 191.5Q343.0 176.0 327.5 169.75Q312.0 163.5 297.5 163.5Q295.5 163.5 287.0 163.0Q278.5 162.5 270.75 160.5Q263.0 158.5 263.0 154.5Q263.0 148.5 294.0 129.0Q312.0 117.0 331.75 103.25Q351.5 89.5 369.75 76.25Q388.0 63.0 401.5 51.75Q415.0 40.5 421.0 34.0Z" fill="black" /></svg>