<svg xmlns="http://www.w3.org/2000/svg" width="466.0" height="380.5" viewBox="0 0 466.0 380.5"><path d="M84.0 305.0 97.5 291.5H53.0L54.5 311.5Q57.0 335.0 59.0 337.0Q60.5 336.0 62.0 332.0L63.0 330.5Q66.5 326.5 72.25 319.0Q78.0 311.5 84.0 305.0ZM57.0 109.0H45.0Q33.0 109.0 33.0 112.0Q33.0 116.0 39.0 129.0L43.5 140.5L49.5 129.0L51.0 125.0Q52.0 124.0 52.25 122.75Q52.5 121.5 53.0 121.0L54.5 116.5Q55.5 114.0 56.25 112.0Q57.0 110.0 57.0 109.0ZM136.0 201.0 125.5 194.0Q123.5 193.0 121.75 191.5Q120.0 190.0 118.5 189.0Q116.5 188.0 115.0 187.0Q113.5 186.0 112.5 185.5Q112.5 187.0 112.25 190.75Q112.0 194.5 112.0 199.5Q112.0 206.0 112.25 210.0Q112.5 214.0 112.5 214.0Q114.0 213.5 117.75 211.5Q121.5 209.5 125.5 207.5ZM288.5 244.0 288.0 243.5Q287.0 242.0 286.25 238.5Q285.5 235.0 284.5 230.5L284.0 227.5Q283.0 224.5 283.0 222.5Q282.5 221.5 282.5 220.0Q282.5 218.5 282.0 217.5L280.5 202.0L246.0 235.0L263.5 239.5Q282.5 244.0 288.0 244.0ZM153.0 58.5Q156.0 53.0 156.0 50.0Q153.5 50.0 145.5 54.25Q137.5 58.5 124.5 65.5L102.5 78.0L117.5 84.5Q126.0 88.0 134.25 91.25Q142.5 94.5 145.5 97.0L146.0 97.5Q146.0 87.5 147.0 77.5Q148.0 67.5 153.0 58.5ZM306.5 88.5 307.5 87.5Q309.5 85.0 311.0 83.0Q312.5 81.0 313.5 79.0Q310.0 81.0 304.5 85.0Q299.0 89.0 292.0 94.0Q284.0 99.0 275.5 105.25Q267.0 111.5 261.0 115.5L254.5 120.0L247.5 123.5L257.0 125.0Q265.5 126.5 271.5 127.5Q277.5 128.5 281.0 128.5Q286.5 128.5 288.75 125.75Q291.0 123.0 292.0 117.5Q293.0 112.0 297.25 103.25Q301.5 94.5 306.5 88.5ZM388.5 137.5Q389.5 136.5 390.0 135.5Q390.5 134.5 391.0 134.0Q387.5 137.0 382.75 140.75Q378.0 144.5 372.5 148.5L368.5 152.0Q359.0 159.5 351.5 165.0Q348.0 168.0 344.5 170.5Q341.0 173.0 339.5 174.0L336.5 176.0Q334.5 178.0 334.5 178.0Q334.5 178.0 338.75 178.25Q343.0 178.5 352.5 179.5H355.5Q358.0 180.0 359.75 180.25Q361.5 180.5 363.0 180.5Q367.0 180.5 368.75 178.25Q370.5 176.0 372.0 171.0Q372.5 170.0 372.75 169.0Q373.0 168.0 373.5 167.5Q376.0 160.5 380.5 151.75Q385.0 143.0 388.5 137.5ZM350.5 30.0Q362.0 18.5 367.5 18.5Q371.0 18.5 371.0 24.0Q371.0 26.0 365.5 35.0Q360.0 44.0 351.5 54.0Q325.5 84.0 315.25 99.0Q305.0 114.0 305.0 123.0Q305.0 125.5 306.5 128.5L307.0 130.5Q308.0 133.0 308.5 135.75Q309.0 138.5 309.0 141.0V143.0Q309.0 145.0 312.5 148.0Q316.0 151.0 320.5 154.0L331.5 162.5L363.5 139.0Q372.0 132.0 382.75 123.0Q393.5 114.0 404.0 105.0Q414.5 96.0 421.0 89.5Q432.0 79.5 441.25 73.0Q450.5 66.5 453.0 66.5L455.0 67.0L456.0 69.5Q456.0 72.0 452.0 78.75Q448.0 85.5 441.5 93.0Q427.5 109.5 414.25 127.0Q401.0 144.5 392.75 157.5Q384.5 170.5 384.5 174.0Q384.5 179.0 387.5 181.5Q390.0 183.5 390.5 186.25Q391.0 189.0 391.0 191.5Q390.5 192.0 390.5 193.0V193.5Q390.5 199.5 410.0 213.5Q420.0 221.0 429.25 230.0Q438.5 239.0 444.75 246.75Q451.0 254.5 451.0 257.5Q451.0 261.0 447.0 261.0Q445.5 261.0 437.25 255.0Q429.0 249.0 419.5 240.5Q410.0 230.5 398.0 221.75Q386.0 213.0 378.5 209.5Q379.0 210.0 379.0 211.5Q379.0 216.0 374.5 216.0Q367.5 216.0 358.0 205.5Q352.5 199.0 345.0 195.75Q337.5 192.5 324.5 190.5L297.0 187.5V188.5Q296.5 190.0 296.5 192.25Q296.5 194.5 296.5 196.5Q296.0 200.5 296.0 204.0Q296.0 207.5 296.0 211.0Q296.0 223.0 300.25 232.5Q304.5 242.0 316.25 254.5Q328.0 267.0 350.0 288.5Q366.0 304.5 378.0 318.0Q390.0 331.5 390.0 335.0L389.5 336.5Q389.0 338.0 386.5 338.0Q384.0 338.0 371.5 327.25Q359.0 316.5 329.0 288.0Q305.5 266.5 282.25 258.0Q259.0 249.5 226.5 249.5Q217.0 249.5 205.0 254.0Q193.0 258.5 169.0 270.0Q138.0 285.0 120.0 295.5Q102.0 306.0 92.0 316.75Q82.0 327.5 74.0 344.0Q68.5 355.0 63.75 362.5Q59.0 370.0 56.5 370.5Q56.0 370.5 55.75 370.25Q55.5 370.0 55.0 370.0Q53.0 367.0 49.75 357.0Q46.5 347.0 45.5 342.5L43.0 334.0Q39.5 320.0 35.5 307.0Q31.5 294.0 29.0 289.0Q27.5 285.0 26.5 282.0Q25.5 279.0 25.5 277.0Q25.5 271.0 31.5 271.0Q33.0 271.0 37.0 272.0H37.5Q38.5 272.0 39.25 263.0Q40.0 254.0 40.0 227.0Q40.0 206.0 39.0 192.5Q38.0 179.0 35.5 167.25Q33.0 155.5 29.0 141.5Q24.5 128.5 21.0 118.75Q17.5 109.0 17.0 109.0Q10.0 109.0 10.0 102.0Q10.0 99.5 19.75 97.75Q29.5 96.0 45.0 96.0Q59.5 96.0 69.5 96.75Q79.5 97.5 79.5 100.0Q79.5 100.5 77.75 104.25Q76.0 108.0 74.0 112.0Q72.0 116.0 71.0 117.0L68.0 124.0Q63.5 130.5 61.25 136.0Q59.0 141.5 57.75 149.5Q56.5 157.5 56.25 171.75Q56.0 186.0 56.0 211.0V275.0L86.0 276.5H95.0Q97.0 277.0 98.75 277.0Q100.5 277.0 102.0 277.0Q111.5 277.0 119.75 275.0Q128.0 273.0 141.25 267.25Q154.5 261.5 178.0 250.5Q251.5 217.0 254.5 207.0Q254.0 206.5 246.0 206.5Q238.0 206.5 225.5 206.5H204.5Q181.0 207.0 166.5 209.0Q152.0 211.0 141.0 216.0Q130.0 221.0 117.0 230.5Q113.0 234.0 108.75 235.75Q104.5 237.5 102.0 238.0Q99.5 238.0 98.5 235.5Q98.5 232.0 98.75 220.5Q99.0 209.0 99.5 195.25Q100.0 181.5 100.75 171.25Q101.5 161.0 102.5 159.5H104.0Q106.5 159.5 111.5 163.5Q116.5 167.5 122.0 173.5Q130.5 181.5 139.25 185.75Q148.0 190.0 163.0 191.75Q178.0 193.5 204.5 193.5H241.0L235.0 186.5Q227.5 178.5 214.0 167.5Q200.5 156.5 184.5 144.75Q168.5 133.0 152.25 122.0Q136.0 111.0 122.75 103.25Q109.5 95.5 101.5 92.5Q67.0 79.5 67.0 74.0Q67.0 70.0 75.5 70.0Q79.5 70.0 89.75 65.75Q100.0 61.5 113.25 55.0Q126.5 48.5 139.75 41.25Q153.0 34.0 162.75 27.75Q172.5 21.5 175.5 18.0V17.0L176.5 16.0Q182.0 10.0 184.0 10.0Q187.5 10.0 189.0 15.5V17.0Q189.0 19.5 187.5 24.0Q186.0 28.5 183.0 31.5Q174.5 42.0 168.0 58.5Q161.5 75.0 160.5 86.5Q160.5 90.0 161.0 91.0Q162.0 96.5 164.0 100.25Q166.0 104.0 167.5 104.0Q171.0 104.0 174.0 107.25Q177.0 110.5 177.0 115.0Q177.0 118.0 185.25 125.75Q193.5 133.5 206.0 143.5Q219.0 153.0 231.5 164.0Q244.0 175.0 249.0 180.5Q254.5 186.0 258.5 189.25Q262.5 192.5 265.5 192.5Q271.0 192.5 279.0 181.0Q282.5 175.5 286.75 171.5Q291.0 167.5 293.0 167.5Q297.0 167.5 297.0 181.5V184.0L319.0 170.5L303.5 160.5Q285.5 147.5 273.0 142.5Q260.5 137.5 248.5 137.5Q246.5 137.5 239.5 137.0Q232.5 136.5 226.0 134.75Q219.5 133.0 219.5 129.5Q219.5 125.0 245.5 108.5Q265.5 95.0 287.5 79.5Q309.5 64.0 327.0 50.5Q344.5 37.0 350.5 30.0Z" fill="black" /></svg>