<svg xmlns="http://www.w3.org/2000/svg" width="815.0" height="390.0" viewBox="0 0 815.0 390.0"><path d="M66.0 253.0V252.5Q65.5 249.5 64.75 246.75Q64.0 244.0 63.0 242.0Q61.0 244.0 56.75 252.0Q52.5 260.0 47.5 270.0L34.0 297.5L51.5 295.5Q60.5 294.5 70.0 293.0Q79.5 291.5 84.0 291.0L89.0 289.5L81.0 280.0Q76.5 274.0 71.75 266.0Q67.0 258.0 66.0 253.0ZM460.5 176.5V176.0Q462.0 173.5 463.25 170.5Q464.5 167.5 465.0 165.5Q462.5 168.5 458.25 173.5Q454.0 178.5 448.5 184.5Q440.5 192.5 435.25 199.5Q430.0 206.5 430.0 206.5Q432.5 207.5 443.5 208.5Q446.0 209.0 447.75 209.0Q449.5 209.0 451.0 209.0Q456.0 209.0 456.0 206.5Q456.0 198.0 457.0 191.25Q458.0 184.5 460.5 176.5ZM550.0 247.5Q543.5 243.0 541.0 243.0Q540.5 243.0 540.5 249.0Q540.5 255.0 544.5 255.0Q545.5 255.0 550.25 253.25Q555.0 251.5 555.0 250.5Q554.5 250.0 553.5 249.0Q552.5 248.0 550.0 247.5ZM608.5 319.0Q617.0 310.0 617.5 307.5H616.5Q613.0 307.5 601.75 308.5Q590.5 309.5 577.5 310.5L550.5 312.5L562.0 326.0Q568.0 335.5 575.0 344.5Q576.0 345.5 576.5 346.25Q577.0 347.0 577.5 348.0Q578.5 349.0 578.5 349.5Q581.0 352.5 581.0 352.5Q581.0 352.5 585.5 348.0L586.5 346.5Q589.5 341.0 596.25 333.0Q603.0 325.0 608.5 319.0ZM554.5 209.0Q548.0 204.5 545.5 204.5Q544.5 204.5 544.5 210.5Q544.5 216.5 549.0 216.5Q552.5 216.5 557.5 213.5L559.5 212.0Q559.0 211.5 554.5 209.0ZM626.0 247.5 624.5 234.0Q623.5 224.0 621.5 221.75Q619.5 219.5 613.0 219.0H610.0Q599.0 219.0 584.5 221.0Q570.0 223.0 559.5 226.0Q549.0 229.0 549.0 231.5Q549.0 234.5 564.25 238.0Q579.5 241.5 601.5 244.0ZM86.5 82.0Q86.5 81.5 79.75 81.0Q73.0 80.5 63.5 80.5Q53.5 80.5 47.0 80.25Q40.5 80.0 40.5 80.0Q41.5 82.0 44.5 87.5Q47.5 93.0 51.0 99.5L59.5 116.0L66.0 107.5Q68.5 103.0 73.0 97.25Q77.5 91.5 80.5 89.5Q86.5 84.5 86.5 82.0ZM131.5 167.0V166.5Q125.0 162.5 123.0 162.5Q122.0 162.5 121.5 167.0Q121.0 171.5 121.0 182.5Q121.0 191.0 121.25 197.25Q121.5 203.5 121.5 203.5Q123.0 203.5 132.75 200.5Q142.5 197.5 156.25 193.0Q170.0 188.5 183.5 184.0Q181.5 183.0 177.25 181.75Q173.0 180.5 168.0 179.0Q157.0 176.0 146.0 172.25Q135.0 168.5 131.5 167.0ZM227.5 238.0Q233.5 231.0 234.5 228.5Q232.5 229.0 229.75 230.0Q227.0 231.0 222.0 232.5Q216.5 234.5 207.25 236.25Q198.0 238.0 191.0 238.0Q185.5 238.5 181.75 238.75Q178.0 239.0 178.0 239.0Q178.5 240.5 181.75 246.0Q185.0 251.5 188.5 258.5L199.5 274.0L207.0 263.5Q208.0 262.5 209.0 261.0Q210.0 259.5 211.0 258.0Q215.0 253.0 219.5 247.25Q224.0 241.5 227.5 238.0ZM211.0 95.5Q211.0 91.0 210.0 91.0Q207.5 91.0 202.25 97.0Q197.0 103.0 192.5 110.5Q188.0 118.0 186.5 122.0Q190.5 123.5 199.75 126.5Q209.0 129.5 219.25 132.75Q229.5 136.0 236.0 138.0Q234.0 135.0 231.5 131.0Q229.0 127.0 226.0 122.5Q220.5 114.0 215.75 106.0Q211.0 98.0 211.0 95.5ZM311.5 54.5H299.0Q292.0 54.5 284.75 53.5Q277.5 52.5 274.0 51.5Q272.0 50.5 271.0 50.5Q271.5 51.0 271.75 52.0Q272.0 53.0 272.5 53.5Q274.0 56.5 277.75 67.5Q281.5 78.5 285.0 90.0L291.5 108.5L293.0 102.0Q294.0 95.0 297.75 85.0Q301.5 75.0 305.0 67.5ZM506.0 78.0Q506.0 77.5 503.25 76.0Q500.5 74.5 496.5 72.5L489.0 68.5V90.0Q489.5 93.5 489.5 96.5Q489.5 99.5 489.5 102.0L490.0 100.0Q493.0 94.5 496.5 89.75Q500.0 85.0 502.5 83.0Q503.5 82.0 504.75 80.25Q506.0 78.5 506.0 78.0ZM650.5 96.0Q649.5 94.0 641.25 91.0Q633.0 88.0 622.25 85.25Q611.5 82.5 601.75 80.5Q592.0 78.5 587.5 78.5Q585.0 78.5 582.0 78.75Q579.0 79.0 575.0 79.0Q573.5 79.5 571.5 79.5Q569.5 79.5 567.0 79.5L562.0 80.0Q541.0 81.5 529.5 85.5Q518.0 89.5 511.25 99.0Q504.5 108.5 497.5 127.0Q492.5 142.0 487.75 154.0Q483.0 166.0 480.5 168.5Q470.5 180.0 470.5 195.5Q470.5 197.5 471.75 203.75Q473.0 210.0 475.0 215.5Q477.0 221.0 479.0 221.0Q483.0 221.0 485.5 228.0Q485.5 231.5 493.5 238.75Q501.5 246.0 511.0 252.25Q520.5 258.5 524.5 260.0Q525.5 256.0 526.5 246.0Q527.5 236.0 528.0 223.5Q529.0 217.5 529.75 211.75Q530.5 206.0 531.0 201.5Q531.5 196.5 532.0 192.75Q532.5 189.0 533.0 187.5H535.0Q535.5 187.5 536.5 187.5Q537.5 187.5 538.5 188.0L541.0 145.5Q541.0 143.5 541.25 140.0Q541.5 136.5 542.0 135.0Q543.0 122.5 544.25 112.75Q545.5 103.0 547.5 102.0H548.5Q550.0 102.0 555.25 104.0Q560.5 106.0 565.5 110.0Q574.0 114.0 583.5 117.0Q593.0 120.0 602.0 120.0Q604.5 120.0 604.5 118.5Q604.5 114.0 601.0 103.0V103.5Q600.5 102.0 600.5 99.5Q600.5 94.0 609.0 94.0Q616.0 94.0 628.0 95.5Q632.0 96.0 636.0 96.25Q640.0 96.5 642.5 96.5Q645.0 96.5 647.5 96.25Q650.0 96.0 650.5 96.0ZM569.5 169.0Q569.5 167.5 567.0 165.5Q564.5 163.5 561.5 162.5Q555.5 159.5 553.5 159.5V166.0Q553.5 173.0 554.5 173.0Q556.0 173.0 557.0 172.5L558.5 172.0Q565.0 169.5 568.5 169.5Q569.0 169.5 569.25 169.25Q569.5 169.0 569.5 169.0ZM569.5 127.0Q569.0 126.5 567.0 125.5Q565.0 124.5 562.0 123.5L561.5 123.0Q560.0 122.0 559.5 121.75Q559.0 121.5 558.0 121.0V132.5Q560.0 132.5 562.0 131.0Q567.5 129.0 569.5 127.0ZM552.0 186.0 539.5 188.5Q542.5 189.0 547.25 190.75Q552.0 192.5 557.0 194.5Q564.0 198.0 577.25 201.0Q590.5 204.0 600.5 205.0L623.0 205.5L626.0 174.5H612.0Q605.5 174.5 596.0 175.75Q586.5 177.0 579.5 179.0L569.0 181.5Q566.0 182.5 563.0 183.25Q560.0 184.0 557.5 185.0Q555.5 185.5 554.25 185.5Q553.0 185.5 552.0 186.0ZM617.0 144.5Q613.0 136.0 605.5 136.0H603.5Q597.0 136.0 588.25 137.5Q579.5 139.0 572.0 141.0Q564.5 143.0 562.5 144.5L562.0 145.5Q562.0 148.5 569.25 152.25Q576.5 156.0 587.5 158.5Q598.5 161.0 610.0 161.0Q620.5 161.0 620.5 158.0Q620.5 156.0 619.5 152.5Q618.5 149.0 617.0 144.5ZM638.5 112.5Q636.0 111.0 626.5 108.5Q625.0 108.0 622.0 108.0Q617.5 108.0 617.5 110.5Q617.5 114.0 624.0 119.0Q626.5 121.5 628.0 121.5Q630.0 121.5 633.75 118.0Q637.5 114.5 638.5 112.5ZM675.5 108.5Q675.0 108.5 672.75 107.5Q670.5 106.5 668.0 105.5L661.0 102.0Q660.5 102.0 657.0 106.75Q653.5 111.5 650.5 116.5Q647.5 121.5 647.5 122.5H672.5Q688.5 122.5 695.0 124.0Q682.0 112.5 675.5 108.5ZM702.0 130.0Q697.5 134.5 669.5 136.0L641.5 137.5L640.0 148.5V153.0Q639.5 154.0 639.5 155.5Q639.5 159.0 642.0 160.0Q644.5 161.0 652.0 161.0Q654.5 161.0 661.5 161.5Q668.5 162.0 676.75 163.25Q685.0 164.5 691.0 166.0Q697.0 167.5 697.0 170.0Q697.0 172.0 690.5 173.0Q684.0 174.0 669.5 174.5H639.5V208.0H668.0Q681.5 208.0 692.75 209.75Q704.0 211.5 705.5 214.0V215.0Q705.5 221.5 671.0 221.5H639.5V245.5L672.0 248.0Q677.0 248.5 681.0 248.5Q685.0 248.5 688.5 248.5Q698.0 248.5 705.0 247.0Q712.0 245.5 720.5 241.5Q729.0 237.5 743.0 230.0Q758.5 222.5 769.25 216.5Q780.0 210.5 780.0 209.0Q780.0 207.0 772.5 198.75Q765.0 190.5 753.0 178.5Q741.0 166.5 727.5 153.5Q714.0 140.5 702.0 130.0ZM666.5 90.0 666.0 86.0Q665.0 82.0 663.0 73.25Q661.0 64.5 660.0 55.5L658.5 40.5L635.5 53.0Q612.5 67.5 612.5 70.5Q612.5 70.5 614.25 70.75Q616.0 71.0 619.0 71.0Q621.5 71.0 630.75 74.0Q640.0 77.0 651.0 81.5ZM13.5 72.0Q13.5 69.5 22.75 68.75Q32.0 68.0 46.5 68.0H65.5Q86.0 68.5 101.25 70.25Q116.5 72.0 116.5 74.5Q116.5 76.0 111.75 80.75Q107.0 85.5 100.0 90.0Q93.5 94.5 87.5 100.5Q81.5 106.5 79.0 110.0Q76.5 115.0 74.0 130.0Q71.5 145.0 70.0 162.25Q68.5 179.5 68.5 192.0Q68.5 204.5 70.0 206.0Q72.0 208.0 73.5 213.5Q75.0 219.0 75.0 224.0Q75.0 235.5 81.5 251.0Q88.0 266.5 96.0 275.0Q98.5 277.5 109.25 283.75Q120.0 290.0 135.75 297.5Q151.5 305.0 168.5 313.0Q196.5 325.5 211.25 332.25Q226.0 339.0 231.25 342.25Q236.5 345.5 236.5 348.0Q236.5 348.5 235.5 350.5L234.5 352.0H232.5Q229.5 352.0 211.5 345.25Q193.5 338.5 169.5 328.5L109.0 302.0L79.0 305.0Q67.0 305.5 53.0 308.0Q39.0 310.5 30.5 313.0Q26.5 314.5 22.5 315.25Q18.5 316.0 16.0 316.0Q10.0 316.0 10.0 311.0Q10.0 308.5 12.5 303.5Q15.0 298.5 20.0 290.5Q36.0 266.0 43.5 246.0Q51.0 226.0 53.25 204.75Q55.5 183.5 55.5 155.0Q55.5 144.0 53.75 137.5Q52.0 131.0 47.0 122.0Q43.0 112.0 36.25 102.25Q29.5 92.5 25.0 87.5Q20.5 82.5 17.0 77.75Q13.5 73.0 13.5 72.0ZM256.0 50.0Q255.0 47.0 255.0 46.0Q255.0 42.0 258.5 40.75Q262.0 39.5 272.0 39.5Q276.0 39.5 281.25 39.5Q286.5 39.5 293.0 40.0Q304.5 40.0 314.75 40.25Q325.0 40.5 329.5 41.0H337.0Q325.0 61.5 317.0 78.25Q309.0 95.0 305.0 113.0Q301.0 131.0 301.0 155.5Q301.0 161.5 301.25 165.5Q301.5 169.5 301.5 169.5Q301.5 169.5 308.25 165.0Q315.0 160.5 324.0 154.0Q333.0 147.5 341.0 142.0Q349.0 136.5 352.0 134.5Q382.0 114.0 395.5 105.5Q409.0 97.0 412.5 97.0Q416.5 97.0 416.5 101.5Q416.5 103.5 402.0 115.0Q387.5 126.5 368.5 139.5Q364.0 142.5 359.5 145.75Q355.0 149.0 351.0 152.0Q338.5 160.5 330.25 166.5Q322.0 172.5 322.0 172.5Q322.0 173.0 338.5 173.5Q355.0 174.0 376.5 174.0Q400.0 174.0 416.5 175.25Q433.0 176.5 433.0 179.0L432.5 180.0Q431.0 181.0 413.25 183.0Q395.5 185.0 373.0 186.0L326.0 188.5L372.5 221.5Q425.0 258.0 425.0 265.0Q425.0 269.0 420.0 269.0Q418.5 269.0 401.0 257.0Q383.5 245.0 361.0 229.0Q346.5 219.0 333.5 210.25Q320.5 201.5 312.25 196.25Q304.0 191.0 303.0 191.0Q301.5 191.0 301.5 211.0Q301.5 226.5 303.0 258.0V261.5Q303.5 272.0 303.75 282.0Q304.0 292.0 304.0 300.0Q304.0 313.0 303.0 320.75Q302.0 328.5 300.0 328.5Q298.0 328.5 295.75 317.75Q293.5 307.0 291.5 290.25Q289.5 273.5 288.5 254.25Q287.5 235.0 287.5 218.0Q287.5 209.0 287.25 202.25Q287.0 195.5 286.5 195.5Q284.5 195.5 275.5 204.5Q266.5 213.5 254.75 226.75Q243.0 240.0 232.5 253.0Q222.0 266.0 216.5 274.0Q211.0 283.0 205.0 288.75Q199.0 294.5 195.5 294.5Q189.5 294.5 189.5 286.0Q189.5 283.5 184.25 275.25Q179.0 267.0 172.5 258.0Q165.5 249.0 160.75 241.0Q156.0 233.0 156.0 231.0L157.0 229.0Q159.5 229.0 161.0 228.5Q162.5 228.5 165.0 228.25Q167.5 228.0 170.5 228.0Q173.0 227.5 176.25 227.25Q179.5 227.0 183.0 227.0Q195.5 225.0 211.5 219.5Q227.5 214.0 242.5 206.5Q257.5 199.0 266.5 192.0L272.0 187.5H254.5Q242.0 187.5 221.75 191.25Q201.5 195.0 179.75 200.5Q158.0 206.0 140.75 212.0Q123.5 218.0 117.0 222.5Q115.5 223.5 112.5 224.5H111.5Q110.5 224.0 109.25 223.5Q108.0 223.0 107.0 221.0Q107.0 217.5 107.25 205.25Q107.5 193.0 108.0 178.25Q108.5 163.5 109.25 152.25Q110.0 141.0 110.5 140.0Q111.5 140.0 122.0 144.25Q132.5 148.5 145.0 155.0Q155.5 160.5 162.75 163.75Q170.0 167.0 178.0 168.75Q186.0 170.5 197.75 171.25Q209.5 172.0 228.0 173.0Q235.0 173.5 241.25 173.5Q247.5 173.5 252.5 173.5Q278.5 173.5 278.5 172.5Q278.5 171.0 268.25 166.0Q258.0 161.0 242.5 155.0Q227.0 149.0 211.0 143.75Q195.0 138.5 183.0 135.5L156.5 129.5L174.0 111.0Q179.5 104.5 186.25 96.0Q193.0 87.5 196.0 82.0Q200.0 75.0 203.75 70.75Q207.5 66.5 209.0 66.5Q211.0 66.5 214.5 73.25Q218.0 80.0 221.5 89.0Q225.5 98.0 234.75 110.5Q244.0 123.0 256.5 134.0Q282.5 160.5 286.5 160.5Q287.5 160.5 287.5 156.0Q287.5 152.0 285.0 140.75Q282.5 129.5 278.5 115.25Q274.5 101.0 270.75 88.75Q267.0 76.5 264.5 71.5Q262.5 67.0 259.75 60.5Q257.0 54.0 256.0 50.0ZM654.5 25.0Q661.5 19.5 668.25 14.75Q675.0 10.0 675.0 10.0Q675.0 10.0 675.5 12.25Q676.0 14.5 676.0 16.0Q676.0 18.5 675.75 25.5Q675.5 32.5 674.5 40.5Q674.0 45.0 674.0 49.0Q674.0 53.0 674.0 56.5Q674.0 71.5 678.0 77.5Q680.0 81.5 689.0 92.25Q698.0 103.0 711.0 117.25Q724.0 131.5 738.25 146.5Q752.5 161.5 765.5 174.5Q778.5 187.5 787.25 195.5Q796.0 203.5 798.0 203.5Q805.0 203.5 805.0 207.5Q805.0 211.0 786.75 221.75Q768.5 232.5 727.5 254.5Q704.0 266.5 688.5 274.75Q673.0 283.0 662.75 289.75Q652.5 296.5 644.25 304.0Q636.0 311.5 626.0 321.5Q613.5 334.0 604.0 347.0Q594.5 360.0 592.0 365.5Q588.5 371.5 585.75 375.75Q583.0 380.0 581.0 380.0Q579.5 380.0 576.25 375.5Q573.0 371.0 570.5 365.5Q567.5 360.0 560.5 349.25Q553.5 338.5 546.5 329.5Q537.5 318.0 532.5 310.5Q527.5 303.0 527.5 299.5Q527.5 295.0 532.5 295.0Q536.0 295.0 539.5 296.5Q543.5 297.5 555.25 298.5Q567.0 299.5 578.0 299.5Q590.5 299.0 599.25 297.5Q608.0 296.0 619.0 291.25Q630.0 286.5 647.5 277.5L680.0 262.0L665.0 261.0H658.5Q641.0 261.0 638.0 264.0Q636.0 268.5 632.5 268.5Q629.5 268.5 627.5 265.0Q621.5 258.0 607.0 258.0Q601.5 258.0 589.5 259.75Q577.5 261.5 564.75 264.0Q552.0 266.5 543.0 269.5Q534.0 272.5 534.0 275.0Q534.0 276.0 534.5 276.0L535.0 278.0Q535.5 279.0 535.5 281.0Q535.5 285.0 532.0 285.0Q528.5 285.0 503.5 264.0Q481.5 243.5 462.75 232.75Q444.0 222.0 425.0 219.5L400.0 216.0L428.5 184.5Q449.0 163.0 459.0 151.5Q469.0 140.0 472.25 130.75Q475.5 121.5 475.5 108.5Q475.5 104.5 475.5 99.75Q475.5 95.0 475.0 90.0V87.0Q475.0 83.5 474.75 80.25Q474.5 77.0 474.5 74.5V66.5Q474.5 55.0 475.75 50.5Q477.0 46.0 480.5 46.0Q485.5 46.0 497.0 56.0Q502.5 61.0 511.0 63.0Q519.5 65.0 542.0 66.0Q547.5 66.5 552.5 66.5Q557.5 66.5 561.0 66.5Q575.0 66.5 583.5 63.5Q592.0 60.5 607.5 52.5Q620.0 46.5 633.75 38.25Q647.5 30.0 654.5 25.0Z" fill="black" /></svg>