<svg xmlns="http://www.w3.org/2000/svg" width="699.5" height="460.0" viewBox="0 0 699.5 460.0"><path d="M111.5 261.5Q115.0 255.5 118.25 248.25Q121.5 241.0 122.0 234.5Q120.0 236.0 117.5 239.0Q115.0 242.0 102.75 251.5Q90.5 261.0 77.5 271.0Q68.0 278.0 60.0 284.75Q52.0 291.5 49.0 295.0Q54.5 296.5 65.0 299.5Q75.5 302.5 86.25 305.0Q97.0 307.5 103.0 309.0H106.0Q106.0 309.0 106.25 307.25Q106.5 305.5 106.5 303.0V292.0Q106.5 275.5 111.5 261.5ZM162.0 351.5 162.5 319.5V235.0Q162.0 216.5 162.0 210.0Q162.0 203.5 162.0 203.5L160.0 205.5Q154.0 215.0 145.75 231.5Q137.5 248.0 131.25 264.75Q125.0 281.5 124.5 293.0Q125.5 305.0 132.75 316.75Q140.0 328.5 154.0 343.5ZM223.0 251.5Q223.0 248.0 216.75 241.25Q210.5 234.5 206.5 234.0V246.0Q206.5 257.5 207.0 258.0L209.0 257.0Q217.0 253.0 222.5 253.0Q223.0 253.0 223.0 251.5ZM402.5 350.5Q401.0 349.0 394.25 344.25Q387.5 339.5 378.0 333.0L357.5 318.5L356.0 327.0Q352.0 349.5 352.0 362.5Q357.5 361.5 363.5 357.5Q372.5 354.5 382.75 352.5Q393.0 350.5 402.5 350.5ZM599.0 98.0 598.5 97.5Q597.0 97.0 585.5 96.5Q574.0 96.0 556.75 95.5Q539.5 95.0 520.5 94.75Q501.5 94.5 485.0 94.5Q472.5 94.5 462.25 94.5Q452.0 94.5 447.5 95.5Q436.0 97.5 427.75 100.5Q419.5 103.5 415.5 108.5Q412.5 112.0 409.5 115.5Q406.5 119.0 403.5 119.0Q401.5 119.0 400.0 117.25Q398.5 115.5 395.5 112.0L395.0 110.5Q394.0 111.5 390.75 115.75Q387.5 120.0 382.0 129.0L367.5 152.0V303.0L429.0 345.5H604.0L601.0 308.0L512.5 305.5L496.0 322.0L487.5 327.5Q476.5 339.5 471.0 339.5Q465.5 339.5 465.5 322.0Q465.5 309.0 466.25 285.5Q467.0 262.0 468.25 235.25Q469.5 208.5 471.0 184.25Q472.5 160.0 474.0 146.0Q475.5 132.5 478.25 122.5Q481.0 112.5 484.5 112.5Q485.5 112.5 490.0 115.0Q494.5 117.5 499.5 121.5Q504.0 125.0 515.0 127.0Q526.0 129.0 555.0 129.0L601.0 129.5L599.0 113.5Q598.5 110.5 598.5 107.25Q598.5 104.0 598.5 102.0Q598.5 99.0 599.0 98.0ZM489.0 301.5Q487.5 297.5 486.0 297.5Q484.5 297.5 484.5 301.5V304.0Q487.0 303.0 487.75 302.5Q488.5 302.0 489.0 301.5ZM492.0 250.5V250.0Q492.0 249.0 490.5 248.75Q489.0 248.5 488.0 248.5Q484.5 248.5 484.5 250.0Q484.5 252.5 486.0 252.5H488.0Q489.0 252.5 490.5 251.5Q492.0 250.5 492.0 250.5ZM584.0 255.5Q561.0 252.5 546.0 252.5Q517.0 252.5 503.0 266.0Q490.5 275.5 490.5 279.0Q490.5 281.5 505.0 283.5Q519.5 285.5 551.0 286.5L602.5 289.0V273.5Q602.5 262.5 599.75 260.0Q597.0 257.5 584.0 255.5ZM181.0 129.5Q184.5 123.5 190.25 112.0Q196.0 100.5 201.5 89.25Q207.0 78.0 208.0 74.0H206.0Q203.0 74.0 197.75 74.5Q192.5 75.0 187.0 76.5L181.0 77.0Q169.5 77.0 169.5 77.5Q169.5 78.5 170.5 80.0Q170.5 81.0 171.0 83.5Q171.5 86.0 172.5 89.0Q175.0 97.0 178.0 109.0Q181.0 121.0 181.0 129.5ZM383.0 91.5H373.5Q361.0 91.5 361.0 94.5Q361.0 97.5 361.75 101.5Q362.5 105.5 364.5 110.0L368.0 118.5L373.0 109.0Q377.0 103.0 379.5 98.0Q382.0 93.0 383.0 91.5ZM494.5 198.0Q494.0 197.0 493.0 195.75Q492.0 194.5 490.0 194.5Q489.0 194.5 489.0 198.0V202.5Q489.5 201.5 489.25 201.5Q489.0 201.5 489.5 201.0Q493.5 200.5 494.5 198.0ZM442.0 77.5Q442.0 75.0 437.25 71.25Q432.5 67.5 426.75 64.25Q421.0 61.0 417.5 60.5Q417.0 61.5 416.75 64.0Q416.5 66.5 416.5 69.0Q416.5 72.5 417.0 75.75Q417.5 79.0 418.0 80.0H422.0Q428.5 80.0 435.25 79.0Q442.0 78.0 442.0 77.5ZM498.0 143.0H497.0V141.5Q497.0 140.5 495.0 140.5Q494.5 140.5 493.5 142.75Q492.5 145.0 492.5 147.0V148.5Q497.0 147.5 498.0 143.0ZM604.0 203.5H589.0Q581.5 203.5 569.0 202.25Q556.5 201.0 546.0 200.0Q542.0 199.0 538.0 198.75Q534.0 198.5 532.0 198.5Q527.0 198.5 517.75 204.0Q508.5 209.5 500.25 216.0Q492.0 222.5 490.5 226.5Q493.5 227.0 496.0 228.5H495.0Q499.0 230.0 516.75 232.0Q534.5 234.0 553.0 235.0L601.0 236.5ZM601.0 152.5H599.0Q598.0 151.5 590.25 150.75Q582.5 150.0 571.75 149.25Q561.0 148.5 551.75 148.25Q542.5 148.0 538.5 148.0Q533.0 148.0 522.25 151.75Q511.5 155.5 503.0 161.25Q494.5 167.0 494.5 174.0Q494.5 181.5 560.0 182.5H601.0L602.0 168.0V161.0Q602.0 152.5 601.0 152.5ZM646.5 32.0H625.0Q615.0 32.0 608.25 32.25Q601.5 32.5 601.5 32.5Q602.0 35.5 604.25 41.0Q606.5 46.5 609.5 52.0Q612.0 60.0 614.25 69.75Q616.5 79.5 616.5 84.0V92.0Q619.0 89.5 623.5 81.5Q628.0 73.5 633.25 63.25Q638.5 53.0 642.25 44.25Q646.0 35.5 646.5 32.0ZM135.0 61.5Q135.0 59.0 151.0 57.5Q167.0 56.0 190.5 56.0Q218.5 56.0 231.75 57.75Q245.0 59.5 245.0 65.0Q245.0 67.5 242.25 70.25Q239.5 73.0 235.5 74.5Q232.0 78.0 222.75 91.0Q213.5 104.0 204.5 121.5L182.0 161.5V366.0L204.0 384.0Q229.0 405.0 244.75 422.5Q260.5 440.0 260.5 446.5L258.0 450.0Q255.0 450.0 243.75 442.25Q232.5 434.5 220.0 423.0Q207.5 411.0 196.75 402.25Q186.0 393.5 183.5 393.5Q180.5 393.5 175.0 389.5Q169.5 385.5 164.0 381.5Q157.5 372.5 143.75 362.0Q130.0 351.5 112.5 341.5Q95.0 331.5 78.0 324.0Q61.0 316.5 48.0 313.5Q33.5 310.5 22.5 306.75Q11.5 303.0 10.5 302.5Q10.0 302.0 10.0 300.0Q10.0 296.5 16.0 291.75Q22.0 287.0 31.0 282.0Q41.0 276.0 55.25 265.5Q69.5 255.0 85.0 242.25Q100.5 229.5 114.75 217.0Q129.0 204.5 139.5 194.25Q150.0 184.0 153.5 178.5Q158.5 171.5 161.0 161.0Q163.5 150.5 163.5 138.5Q163.5 120.5 158.25 103.5Q153.0 86.5 143.0 76.5Q139.5 72.0 137.25 67.75Q135.0 63.5 135.0 61.5ZM569.0 20.0Q569.0 10.0 578.5 10.0H580.0Q580.5 10.0 581.25 10.5Q582.0 11.0 582.5 11.0Q595.0 14.5 603.75 16.0Q612.5 17.5 623.0 17.5Q626.0 17.5 629.75 17.25Q633.5 17.0 637.0 16.5Q640.5 16.5 643.25 16.25Q646.0 16.0 649.5 16.0Q656.5 14.5 663.0 13.5Q669.5 12.5 674.5 12.5Q689.5 12.5 689.5 20.5Q689.5 24.5 685.5 28.25Q681.5 32.0 676.5 34.5Q672.0 36.0 662.5 49.5Q653.0 63.0 642.5 82.0L619.0 125.5L620.5 237.0Q621.0 273.0 621.5 294.75Q622.0 316.5 622.5 327.5Q623.0 338.5 624.0 342.0Q625.0 345.5 626.5 345.5Q636.5 345.5 641.0 351.0Q641.5 351.5 641.5 351.75Q641.5 352.0 641.5 352.0Q641.5 352.5 641.75 352.75Q642.0 353.0 642.0 353.5L641.0 354.0Q636.0 358.5 601.0 361.25Q566.0 364.0 513.0 364.5Q465.5 365.0 436.5 366.5Q407.5 368.0 391.0 370.5Q374.5 373.0 365.25 377.5Q356.0 382.0 348.5 389.0Q338.5 398.0 331.5 398.0H329.5Q328.0 396.5 327.5 394.25Q327.0 392.0 327.0 391.0Q327.0 386.0 328.5 376.5Q330.0 367.0 332.0 356.0Q335.0 342.0 337.25 328.25Q339.5 314.5 339.5 309.5Q339.5 302.5 342.0 294.25Q344.5 286.0 348.5 281.0Q348.5 280.0 349.5 278.0Q350.5 277.0 350.75 275.75Q351.0 274.5 351.0 274.0Q351.0 271.5 336.5 271.25Q322.0 271.0 280.0 270.5L219.0 269.5L208.5 282.0Q204.0 286.5 199.5 290.0Q195.0 293.5 192.0 293.5H190.5Q186.0 290.0 186.0 272.5Q186.0 262.0 187.0 248.0Q188.0 234.0 189.5 220.5Q191.0 207.0 192.75 198.25Q194.5 189.5 196.0 189.5Q198.5 189.5 204.0 194.75Q209.5 200.0 213.0 208.5Q216.0 215.0 222.5 223.5Q229.0 232.0 235.5 237.0Q241.0 243.0 247.0 245.5Q253.0 248.0 265.25 248.75Q277.5 249.5 300.5 250.5L352.0 251.0L350.5 186.5Q349.5 137.5 346.0 117.25Q342.5 97.0 332.5 93.5L333.0 93.0Q325.0 91.0 325.0 85.0Q325.0 81.0 336.25 77.75Q347.5 74.5 366.0 74.5Q377.5 74.5 387.25 73.75Q397.0 73.0 397.5 72.0Q398.5 71.5 400.0 64.5Q401.5 57.5 402.0 48.0Q403.0 36.5 406.75 28.0Q410.5 19.5 412.5 19.5Q416.0 19.5 418.5 22.0Q421.0 24.5 421.0 30.0Q421.0 31.5 428.25 39.25Q435.5 47.0 446.5 56.0L471.0 78.0H536.5Q565.0 78.0 581.75 77.75Q598.5 77.5 598.5 77.5Q598.5 73.0 595.0 64.5Q591.5 56.0 586.75 48.0Q582.0 40.0 578.0 36.5Q569.0 29.5 569.0 20.0Z" fill="black" /></svg>