<svg xmlns="http://www.w3.org/2000/svg" width="683.0" height="367.5" viewBox="0 0 683.0 367.5"><path d="M136.0 274.0Q133.5 274.0 127.0 269.5Q120.5 265.0 113.5 259.0L104.0 250.0L100.5 276.5Q98.0 296.5 98.0 306.0Q99.5 305.0 101.25 303.75Q103.0 302.5 105.0 301.5Q109.0 298.0 115.75 292.75Q122.5 287.5 127.5 284.5Q137.0 279.0 138.0 274.5Q137.5 274.0 136.0 274.0ZM264.0 272.0 254.5 267.5Q246.5 263.0 239.0 258.0Q231.5 253.0 224.0 248.0Q217.5 243.0 216.5 243.0Q216.0 243.0 215.75 252.0Q215.5 261.0 215.5 274.0V300.0L225.0 292.5Q231.5 288.5 240.25 283.25Q249.0 278.0 256.5 276.0ZM374.0 227.5Q364.5 226.5 355.75 225.0Q347.0 223.5 342.5 222.5H340.0Q338.0 222.5 338.0 228.5Q338.0 231.5 338.0 235.25Q338.0 239.0 338.5 244.0Q339.5 248.5 340.0 253.25Q340.5 258.0 341.0 261.5Q341.0 263.5 341.25 264.75Q341.5 266.0 341.5 267.0Q349.5 265.0 364.0 255.5Q389.0 243.5 390.5 235.0V233.0Q390.5 229.5 374.0 227.5ZM391.0 264.5Q391.0 261.5 388.0 261.5Q383.0 261.5 376.5 267.0Q376.0 267.5 375.25 267.5Q374.5 267.5 374.0 268.0H380.5Q391.0 268.0 391.0 264.5ZM50.0 164.5 39.5 155.5 41.5 156.5Q38.0 153.5 33.5 151.0Q30.0 148.5 27.5 147.0V182.5ZM171.0 48.0H159.0Q151.0 48.0 143.5 47.25Q136.0 46.5 133.5 46.0Q131.5 46.0 130.5 45.0Q130.5 47.0 133.25 54.0Q136.0 61.0 140.0 71.5L148.5 89.5L152.5 79.0Q155.0 71.0 159.75 63.25Q164.5 55.5 168.0 52.0Q168.5 51.0 169.0 50.25Q169.5 49.5 170.0 49.0ZM242.5 113.5 246.0 110.0H231.5Q223.5 110.0 217.25 109.75Q211.0 109.5 210.0 109.0Q212.0 111.0 215.5 117.0Q218.0 120.5 220.5 124.5L221.0 125.0Q226.5 136.5 227.5 136.5Q228.0 136.5 229.0 133.0Q229.5 130.5 233.5 126.5Q234.5 125.5 235.25 124.0Q236.0 122.5 237.0 121.0Q238.5 119.0 240.0 117.25Q241.5 115.5 242.5 113.5ZM335.5 43.0H321.5Q314.5 43.0 306.75 42.0Q299.0 41.0 295.5 40.5H294.5Q293.5 39.5 292.5 39.5Q291.5 39.5 291.0 39.0Q291.0 41.0 292.5 45.25Q294.0 49.5 297.5 54.0Q300.0 59.5 303.5 67.75Q307.0 76.0 309.0 81.5L310.5 86.0L316.0 73.5Q320.0 65.5 325.25 57.25Q330.5 49.0 333.0 45.5Q335.5 43.0 335.5 43.0ZM416.0 135.0V134.0Q416.5 134.0 416.5 132.5Q416.5 132.5 413.5 132.25Q410.5 132.0 403.5 132.0Q395.5 132.0 392.5 132.0Q389.5 132.0 389.5 133.0Q389.5 133.5 390.0 135.0Q390.5 136.5 391.0 137.0Q392.0 140.5 394.75 150.5Q397.5 160.5 399.5 170.0L401.5 180.5L406.0 167.5Q407.5 162.0 409.25 156.25Q411.0 150.5 412.5 147.0Q413.0 145.0 413.5 143.0Q414.0 141.0 414.5 139.5Q416.0 136.5 416.0 135.0ZM424.0 228.5 431.0 225.5H426.5Q410.0 225.5 407.0 230.5Q406.0 232.5 406.0 234.0Q406.0 234.5 406.25 234.75Q406.5 235.0 406.5 235.0Q408.5 235.0 413.0 233.25Q417.5 231.5 424.0 228.5ZM400.0 53.0Q391.5 43.0 388.5 43.0Q388.5 43.0 386.0 47.5Q383.5 52.0 381.0 57.5Q380.5 58.0 379.5 61.0Q378.5 64.0 376.5 67.5Q375.5 70.5 374.0 73.0Q372.5 75.5 372.0 76.5Q376.0 77.5 384.0 77.5Q391.0 77.5 404.75 79.25Q418.5 81.0 431.0 83.5Q445.5 87.0 454.0 88.5L450.0 86.0Q437.5 79.5 424.25 70.75Q411.0 62.0 400.0 53.0ZM105.5 34.0Q105.5 30.5 113.5 30.5Q119.5 30.5 130.0 31.0Q140.5 31.5 152.5 32.5Q164.5 33.5 175.0 34.25Q185.5 35.0 190.5 36.0Q192.5 36.0 193.0 36.5Q194.0 36.5 194.25 36.75Q194.5 37.0 194.5 37.0L193.5 38.0Q193.0 40.5 190.75 45.25Q188.5 50.0 184.5 54.5Q176.0 64.0 170.75 72.5Q165.5 81.0 162.75 93.25Q160.0 105.5 159.0 125.5Q158.0 145.5 157.0 178.0Q156.5 211.0 154.25 233.0Q152.0 255.0 150.0 262.5Q154.0 263.0 160.25 263.25Q166.5 263.5 175.0 263.5H206.0L204.0 244.0Q203.5 240.0 203.25 236.0Q203.0 232.0 203.0 229.0Q203.0 217.0 209.5 217.0Q213.5 217.0 220.5 222.5Q223.0 225.5 223.0 225.5Q223.5 225.5 223.5 219.0Q223.5 212.5 223.5 197.0Q223.5 170.5 215.25 147.25Q207.0 124.0 196.0 114.5Q192.5 111.0 189.5 107.5Q186.5 104.0 186.5 102.0Q186.5 93.5 212.0 93.5Q216.5 93.5 226.25 93.75Q236.0 94.0 247.0 94.75Q258.0 95.5 266.5 96.75Q275.0 98.0 276.5 99.5V100.0Q276.5 102.5 273.0 106.25Q269.5 110.0 265.5 114.5L263.5 116.5Q253.5 125.5 247.75 135.0Q242.0 144.5 239.75 159.5Q237.5 174.5 237.5 199.5V240.5L265.0 253.5Q278.0 261.0 291.0 264.75Q304.0 268.5 313.5 268.5Q320.0 268.5 323.5 267.0Q327.0 265.5 327.0 259.0Q327.0 252.0 325.5 241.0Q324.0 230.0 322.0 221.25Q320.0 212.5 318.5 212.5Q318.0 212.5 317.25 220.5Q316.5 228.5 316.0 238.5Q316.0 241.5 315.75 244.75Q315.5 248.0 315.5 248.0Q313.5 248.0 310.75 232.75Q308.0 217.5 308.0 194.5Q307.5 158.0 304.75 134.0Q302.0 110.0 295.75 91.0Q289.5 72.0 277.5 51.5Q273.5 43.0 270.25 36.25Q267.0 29.5 267.0 28.5Q267.0 25.0 277.5 25.0Q285.0 25.0 298.5 25.75Q312.0 26.5 326.0 27.5Q340.0 28.5 350.25 29.25Q360.5 30.0 361.5 30.5V33.0Q361.5 35.0 358.25 40.0Q355.0 45.0 350.0 50.5Q339.0 61.0 333.25 71.75Q327.5 82.5 325.5 98.75Q323.5 115.0 322.0 142.5L321.5 196.5L336.5 202.0Q346.5 206.5 357.25 209.25Q368.0 212.0 379.0 212.0Q385.5 211.5 386.0 199.5Q386.0 192.0 384.5 178.5Q383.0 165.0 380.25 152.5Q377.5 140.0 372.5 135.5Q365.5 129.5 365.5 125.5Q365.5 118.0 396.5 118.0Q409.5 118.0 417.0 116.25Q424.5 114.5 428.0 111.5Q430.5 109.0 432.75 107.5Q435.0 106.0 437.0 106.0Q439.0 106.0 442.0 108.0L442.5 109.0Q443.5 110.0 444.25 111.5Q445.0 113.0 445.0 115.0Q445.0 119.0 440.0 125.5Q436.5 129.0 431.25 141.5Q426.0 154.0 420.75 170.0Q415.5 186.0 412.0 200.0L411.0 211.5L437.0 209.0Q445.0 208.0 464.0 204.75Q483.0 201.5 507.25 196.75Q531.5 192.0 555.0 187.5Q566.5 185.5 576.75 183.5Q587.0 181.5 596.5 179.5Q600.5 179.0 604.25 178.25Q608.0 177.5 611.5 177.0Q623.0 174.5 632.0 172.75Q641.0 171.0 644.5 170.5Q638.5 168.5 622.75 163.5Q607.0 158.5 591.0 152.0Q530.0 125.5 475.25 110.75Q420.5 96.0 380.5 94.5Q358.5 93.5 346.0 90.0Q333.5 86.5 333.5 83.0Q333.5 77.0 347.0 74.0Q355.5 72.0 363.75 58.25Q372.0 44.5 376.5 26.5Q377.5 19.0 381.0 14.5Q384.5 10.0 387.0 10.0Q392.5 10.0 392.5 19.0Q392.5 24.0 403.25 34.0Q414.0 44.0 431.25 55.75Q448.5 67.5 467.5 78.0Q478.0 83.5 497.5 93.0Q517.0 102.5 540.5 112.75Q564.0 123.0 586.5 132.5Q590.0 134.0 599.25 137.75Q608.5 141.5 620.75 146.75Q633.0 152.0 644.5 156.75Q656.0 161.5 663.75 165.0Q671.5 168.5 672.0 169.0Q673.0 170.0 673.0 172.5Q673.0 176.5 657.5 181.0Q642.0 185.5 601.5 193.5Q568.0 201.0 535.0 209.75Q502.0 218.5 473.75 227.25Q445.5 236.0 427.0 243.75Q408.5 251.5 404.5 256.5Q402.0 260.5 402.0 263.5Q402.0 268.0 411.5 268.0Q430.0 268.0 430.0 276.0Q430.0 281.0 416.5 283.5L404.0 285.5L402.5 318.5Q402.0 338.0 399.25 347.75Q396.5 357.5 394.0 357.5Q386.5 357.5 386.5 317.0V282.0H368.0Q355.0 282.0 348.75 284.75Q342.5 287.5 336.5 293.5Q327.0 302.0 321.5 302.0Q318.0 302.0 315.25 299.0Q312.5 296.0 312.5 292.5Q312.5 288.5 316.0 283.5Q317.0 283.0 317.5 282.5Q318.0 282.0 318.0 282.0Q289.5 282.0 268.75 287.5Q248.0 293.0 227.0 313.5L219.5 320.0Q213.0 326.5 208.0 331.0Q203.0 335.5 199.0 335.5Q199.0 335.5 198.75 333.5Q198.5 331.5 198.5 330.5Q198.5 327.0 199.0 319.5Q199.5 312.0 200.5 304.0L202.0 278.5H186.0Q151.0 278.5 106.5 322.0L79.0 347.5L82.5 319.0Q84.0 311.0 85.75 292.25Q87.5 273.5 88.0 256.0Q89.5 237.0 92.25 223.5Q95.0 210.0 97.5 210.0Q99.5 210.0 103.5 215.0Q107.5 220.0 110.5 227.0Q113.0 232.0 118.5 239.5Q124.0 247.0 130.5 252.5Q134.5 256.0 137.5 258.25Q140.5 260.5 145.0 261.5Q141.5 251.5 141.5 212.0V163.5H110.0Q91.0 163.5 78.5 166.5Q66.0 169.5 56.0 177.0Q46.0 184.5 35.0 197.5Q30.0 205.5 23.5 211.5Q17.0 217.5 15.5 217.5Q15.0 217.5 12.5 200.75Q10.0 184.0 10.0 160.5Q11.0 131.5 12.5 118.5Q14.0 105.5 18.0 105.5Q26.0 105.5 29.0 117.5Q30.0 121.0 34.0 127.25Q38.0 133.5 42.5 137.0Q47.5 142.5 51.75 145.25Q56.0 148.0 66.0 148.5Q76.0 149.0 97.5 149.0H141.5V135.5Q141.5 126.0 137.5 110.75Q133.5 95.5 127.75 79.75Q122.0 64.0 115.5 53.0L113.0 48.5Q110.0 43.5 107.75 39.5Q105.5 35.5 105.5 34.0Z" fill="black" /></svg>