<svg xmlns="http://www.w3.org/2000/svg" width="683.5" height="382.0" viewBox="0 0 683.5 382.0"><path d="M91.0 280.5Q96.5 275.0 100.0 271.0Q103.5 267.0 105.5 264.5Q104.0 265.0 102.5 265.75Q101.0 266.5 99.5 267.5Q95.0 269.5 85.5 271.0Q76.0 272.5 67.5 272.5Q62.5 273.0 58.5 273.25Q54.5 273.5 53.0 274.0Q62.0 297.0 65.25 304.25Q68.5 311.5 69.0 311.5Q69.0 308.0 73.5 301.75Q78.0 295.5 83.5 289.25Q89.0 283.0 91.0 280.5ZM266.0 275.5 249.0 274.5Q238.0 274.0 228.0 272.25Q218.0 270.5 214.0 269.5Q213.5 269.0 212.5 268.75Q211.5 268.5 211.5 268.5V269.5Q211.5 275.5 213.0 284.5Q214.5 294.0 215.25 304.0Q216.0 314.0 216.0 318.5V320.5L221.5 313.5Q226.5 307.5 235.5 299.25Q244.5 291.0 253.5 285.0ZM59.0 99.5H59.5Q59.5 99.0 59.5 98.75Q59.5 98.5 59.5 98.5Q59.5 97.5 49.0 97.5Q39.0 97.5 39.0 98.5Q39.0 98.5 39.25 99.0Q39.5 99.5 40.0 99.5Q42.5 104.5 44.5 110.5Q46.5 116.5 47.5 122.0Q48.0 123.5 48.25 125.25Q48.5 127.0 49.0 128.0Q50.5 121.5 54.0 112.25Q57.5 103.0 59.0 99.5ZM131.0 174.0 125.5 172.0H124.5Q121.5 170.5 118.25 168.75Q115.0 167.0 111.5 166.0Q108.5 165.0 107.5 164.5Q105.5 163.5 105.0 163.0H103.0L102.0 162.5Q101.0 163.0 101.0 174.5V187.0Q102.0 186.5 103.0 186.0Q104.0 185.5 105.0 185.0Q106.5 184.0 108.25 183.25Q110.0 182.5 112.0 182.0Q114.5 181.0 116.75 180.0Q119.0 179.0 121.0 178.0ZM184.5 142.5Q179.0 136.5 167.0 127.0Q155.0 117.5 140.25 108.25Q125.5 99.0 112.0 92.5Q98.5 86.0 89.5 86.0Q81.5 86.0 75.5 99.0Q69.5 112.0 65.5 131.75Q61.5 151.5 59.0 172.75Q56.5 194.0 55.5 210.5Q54.5 227.0 54.5 233.0Q54.5 256.0 57.5 258.5H58.5Q59.5 258.5 60.5 258.75Q61.5 259.0 62.5 259.0Q68.5 259.0 82.25 254.75Q96.0 250.5 114.0 243.75Q132.0 237.0 150.5 228.75Q169.0 220.5 185.0 212.5Q201.0 204.5 210.75 198.0Q220.5 191.5 220.5 188.5V186.5Q220.0 183.0 216.0 181.5Q212.0 180.0 200.5 179.0Q194.5 179.0 182.25 180.75Q170.0 182.5 155.5 185.5Q141.0 188.5 127.5 192.75Q114.0 197.0 105.5 203.0Q97.0 209.0 97.0 216.0Q97.0 223.0 92.0 224.0Q91.5 224.0 89.5 223.0Q89.5 223.0 87.5 222.0Q85.5 220.0 85.0 212.25Q84.5 204.5 84.5 194.0Q84.5 180.0 85.5 165.0Q86.5 150.0 88.75 139.5Q91.0 129.0 93.5 129.0Q98.5 129.0 102.5 139.0Q105.0 148.0 124.25 154.25Q143.5 160.5 174.5 161.5L205.5 163.0ZM134.5 85.5 127.5 71.0Q123.5 62.5 119.75 56.0Q116.0 49.5 115.0 48.0Q112.0 49.0 106.5 53.25Q101.0 57.5 96.0 62.25Q91.0 67.0 89.0 70.0Q90.0 69.5 93.0 69.5Q95.5 69.5 104.75 72.5Q114.0 75.5 123.0 79.5ZM248.5 41.0V40.5Q249.0 40.0 249.0 40.0Q249.0 40.0 249.5 39.5Q245.5 40.0 238.0 41.0Q236.5 41.0 234.75 41.25Q233.0 41.5 231.0 41.5H228.5Q217.5 42.5 217.5 44.0Q217.5 44.0 217.75 44.5Q218.0 45.0 218.0 46.0Q220.5 51.5 223.75 63.5Q227.0 75.5 230.0 91.5Q230.0 92.0 230.25 92.25Q230.5 92.5 230.5 93.0Q231.5 90.5 232.75 86.25Q234.0 82.0 236.0 76.5Q238.0 72.5 239.25 68.25Q240.5 64.0 241.5 60.5Q244.0 53.0 246.0 49.0L247.5 44.5Q248.5 41.5 248.5 41.0ZM332.0 66.0 341.5 38.5H326.0Q310.5 38.5 310.0 39.5Q311.0 40.5 311.0 41.5Q312.0 44.5 315.0 53.5Q318.0 62.5 320.5 72.0Q321.5 74.0 322.0 76.5Q322.5 79.0 323.0 81.0Q324.0 85.0 324.5 88.25Q325.0 91.5 325.5 93.0Q326.0 89.5 327.75 81.75Q329.5 74.0 332.0 66.0ZM401.0 121.0H400.0Q392.5 114.5 388.0 114.5Q387.0 114.5 384.25 121.0Q381.5 127.5 378.5 135.25Q375.5 143.0 374.5 148.0H379.0Q382.0 147.5 385.75 147.5Q389.5 147.5 393.5 147.5Q400.0 147.0 407.25 147.0Q414.5 147.0 422.0 146.5L455.5 146.0L442.5 140.0Q430.0 136.0 417.5 129.75Q405.0 123.5 401.0 121.0ZM101.5 36.5Q111.0 27.0 118.5 20.75Q126.0 14.5 128.0 14.5Q133.0 14.5 133.0 24.0Q133.0 25.5 133.0 28.5Q133.0 31.5 132.0 34.0V39.5Q132.0 46.0 135.75 53.5Q139.5 61.0 146.0 73.0Q152.5 82.5 163.0 94.75Q173.5 107.0 185.0 119.0Q196.5 131.0 206.0 140.25Q215.5 149.5 220.5 152.5Q220.5 141.5 219.25 125.5Q218.0 109.5 215.25 92.5Q212.5 75.5 207.75 61.75Q203.0 48.0 195.5 42.0Q189.0 37.0 189.0 32.0Q189.0 25.0 213.0 25.0H222.5Q236.5 25.0 245.5 23.5Q254.5 22.0 256.5 20.5Q260.0 17.5 264.75 16.0Q269.5 14.5 273.5 14.5Q277.5 14.5 280.5 16.0Q283.5 17.5 283.5 21.5Q283.5 28.5 273.5 31.5Q267.5 33.5 261.0 48.0Q254.5 62.5 248.75 85.75Q243.0 109.0 239.0 137.0Q235.0 165.0 234.0 194.0Q233.0 221.5 231.0 238.0Q229.0 254.5 227.0 256.0Q237.5 259.5 258.5 259.5H269.0Q290.0 258.0 299.75 254.75Q309.5 251.5 312.25 239.25Q315.0 227.0 315.0 200.0V194.0Q315.0 153.0 311.75 119.75Q308.5 86.5 302.5 65.5Q296.5 44.5 289.0 40.5Q285.5 39.5 283.25 36.25Q281.0 33.0 281.0 30.5Q281.0 27.5 290.75 25.0Q300.5 22.5 316.5 22.5Q345.5 22.5 350.5 17.5Q353.0 14.5 357.0 12.5Q361.0 10.5 364.0 10.0Q369.5 10.0 372.25 12.75Q375.0 15.5 375.0 19.5Q375.0 25.5 369.5 27.5V28.0Q363.5 30.0 355.0 51.0Q346.5 72.0 338.5 101.5Q336.0 111.5 333.75 127.5Q331.5 143.5 330.0 161.5Q328.5 179.5 327.5 196.5Q326.5 213.5 326.5 225.5Q326.5 233.5 326.5 238.5Q326.5 243.5 327.0 244.5Q333.5 243.5 351.25 240.5Q369.0 237.5 394.25 232.75Q419.5 228.0 448.75 222.5Q478.0 217.0 507.75 211.25Q537.5 205.5 563.5 200.25Q589.5 195.0 608.75 191.0Q628.0 187.0 636.0 185.0Q628.0 184.0 610.0 181.75Q592.0 179.5 570.5 176.0Q528.5 169.0 489.0 165.25Q449.5 161.5 420.5 161.5Q403.5 161.5 391.25 162.75Q379.0 164.0 373.5 167.0Q366.5 169.5 360.0 171.5Q353.5 173.5 352.0 173.5Q350.0 173.5 349.25 172.25Q348.5 171.0 348.0 170.0V169.5Q348.0 166.5 350.75 159.5Q353.5 152.5 358.0 143.0Q364.5 131.5 367.0 124.5Q369.5 117.5 369.5 112.0Q369.5 110.5 369.5 108.25Q369.5 106.0 368.5 104.0Q367.0 98.0 367.0 92.0Q368.5 82.5 375.0 82.5Q379.5 82.5 382.5 85.0Q385.5 87.5 385.5 91.5Q385.5 93.0 393.25 98.0Q401.0 103.0 413.0 108.5Q451.0 129.5 498.5 143.5Q546.0 157.5 611.0 167.5Q673.0 177.0 673.5 187.0Q672.5 194.5 651.0 199.0Q648.0 199.5 636.25 201.5Q624.5 203.5 607.0 207.5Q573.5 214.0 540.5 220.5Q507.5 227.0 474.0 233.5Q430.0 242.0 400.75 247.75Q371.5 253.5 353.0 257.75Q334.5 262.0 323.0 265.5Q311.5 269.0 304.0 272.25Q296.5 275.5 288.5 280.0Q271.5 290.5 254.25 305.5Q237.0 320.5 224.75 334.75Q212.5 349.0 210.0 358.0L209.5 359.5Q206.0 372.0 202.0 372.0Q197.0 372.0 194.75 367.75Q192.5 363.5 192.5 359.5Q192.5 356.0 193.5 351.75Q194.5 347.5 196.5 341.5Q198.0 336.0 198.5 325.5Q199.0 315.0 199.0 303.0Q199.0 285.5 198.0 268.25Q197.0 251.0 194.0 242.0Q193.5 241.0 193.5 239.5Q193.5 238.0 193.5 237.0Q193.5 230.5 199.0 230.5Q201.5 230.5 205.5 233.75Q209.5 237.0 211.5 243.0Q214.5 251.0 225.0 255.5Q222.0 251.5 222.0 231.0Q222.0 222.5 221.75 217.25Q221.5 212.0 220.5 212.0Q219.0 212.0 207.5 217.75Q196.0 223.5 181.5 232.0Q160.0 244.0 140.25 259.0Q120.5 274.0 105.0 289.5Q89.5 305.0 80.5 319.0Q71.5 333.0 71.5 342.5Q71.5 354.5 67.0 354.5Q61.5 354.5 57.5 348.0Q53.5 341.5 53.5 337.0Q53.5 336.0 53.75 334.5Q54.0 333.0 54.5 331.5Q54.0 320.5 49.5 308.5Q45.0 296.5 39.5 287.5Q33.0 272.5 29.5 264.5Q26.0 256.5 26.0 254.0Q26.0 250.0 27.75 249.0Q29.5 248.0 33.0 248.0Q35.0 249.0 35.5 249.0Q37.0 249.5 38.5 249.5Q39.0 249.5 39.25 246.75Q39.5 244.0 39.5 237.0Q39.5 225.0 39.0 205.0Q38.5 185.0 36.5 163.75Q34.5 142.5 30.5 125.0Q26.5 107.5 19.0 100.5Q15.5 97.0 12.75 93.5Q10.0 90.0 10.0 88.5Q10.0 85.0 18.25 83.75Q26.5 82.5 38.0 82.5Q42.5 82.5 47.0 82.25Q51.5 82.0 55.0 81.5Q53.0 79.5 53.0 76.5Q53.0 72.5 57.25 67.5Q61.5 62.5 69.5 60.5Q75.0 59.5 84.0 52.5Q93.0 45.5 101.5 36.5Z" fill="black" /></svg>