<svg xmlns="http://www.w3.org/2000/svg" width="763.5" height="401.5" viewBox="0 0 763.5 401.5"><path d="M104.0 326.5 108.5 317.0Q110.5 313.0 112.0 309.5Q113.5 306.0 114.0 304.0Q111.5 304.5 108.0 305.25Q104.5 306.0 101.0 307.0Q90.0 309.5 81.0 309.5Q79.0 309.5 77.25 309.5Q75.5 309.5 74.0 309.0H69.0Q68.0 308.5 66.5 308.5Q68.0 312.0 72.0 319.0Q76.0 326.0 80.5 333.5Q85.0 341.0 88.5 346.25Q92.0 351.5 92.5 351.5Q92.5 351.5 95.75 344.25Q99.0 337.0 104.0 326.5ZM299.0 298.5V298.0Q295.5 296.5 291.25 295.0Q287.0 293.5 283.0 291.5Q279.0 289.0 274.75 287.25Q270.5 285.5 267.0 284.5L254.5 279.5V302.0Q254.5 310.0 254.0 318.25Q253.5 326.5 253.0 332.5L252.5 337.5V339.5L251.0 345.0L286.5 335.0Q303.5 330.5 322.75 326.5Q342.0 322.5 352.0 321.0Q361.5 320.0 368.25 319.0Q375.0 318.0 375.0 317.5Q375.0 317.0 366.25 314.75Q357.5 312.5 346.0 310.0Q334.0 308.0 320.0 304.75Q306.0 301.5 299.0 298.5ZM688.0 201.5Q686.0 203.5 671.0 205.25Q656.0 207.0 632.0 208.0Q608.0 209.0 579.5 210.0Q539.0 211.0 511.5 212.75Q484.0 214.5 463.25 217.5Q442.5 220.5 423.25 225.75Q404.0 231.0 380.5 239.0L360.5 246.5L363.5 298.5L377.5 301.0Q382.0 302.0 405.75 303.25Q429.5 304.5 465.5 305.25Q501.5 306.0 542.5 307.0L688.5 310.5V232.5Q688.5 224.0 688.5 216.25Q688.5 208.5 688.0 201.5ZM64.0 103.0H49.5Q35.0 103.0 34.0 104.0Q34.5 105.5 36.75 111.5Q39.0 117.5 42.0 124.5L48.5 137.0L54.0 124.5Q56.5 120.0 58.5 116.0Q60.5 112.0 62.0 108.5Q63.0 106.5 63.25 105.25Q63.5 104.0 64.0 103.0ZM125.0 196.5 118.5 192.5Q117.0 191.5 114.75 189.75Q112.5 188.0 110.0 186.5L98.5 179.0L97.0 194.0V196.5Q96.5 201.0 95.75 205.0Q95.0 209.0 95.0 211.5Q98.5 210.0 105.0 207.25Q111.5 204.5 117.5 201.25Q123.5 198.0 125.0 196.5ZM125.5 109.0Q115.5 106.5 108.0 104.75Q100.5 103.0 95.0 103.0Q88.5 103.5 83.25 108.25Q78.0 113.0 72.5 122.0Q69.0 128.0 66.75 134.25Q64.5 140.5 63.25 149.75Q62.0 159.0 61.5 175.0Q61.0 191.0 61.0 216.5Q61.0 247.0 61.5 263.25Q62.0 279.5 63.5 285.75Q65.0 292.0 67.0 293.5Q73.5 296.0 82.0 296.0Q94.5 296.0 109.5 288.5Q115.5 285.0 128.75 275.75Q142.0 266.5 158.0 254.25Q174.0 242.0 188.75 230.5Q203.5 219.0 213.0 210.75Q222.5 202.5 222.5 201.0Q222.5 200.5 212.75 200.0Q203.0 199.5 189.5 199.5Q162.5 199.5 142.25 205.75Q122.0 212.0 101.0 226.5Q87.5 236.0 84.0 236.0Q78.0 236.0 78.0 227.5Q78.0 226.0 78.25 223.5Q78.5 221.0 79.0 218.5Q79.5 217.5 79.5 216.25Q79.5 215.0 80.0 214.0Q81.0 206.0 82.5 193.75Q84.0 181.5 84.0 173.0Q84.0 149.0 91.5 149.0Q96.5 149.0 104.0 161.0Q110.0 170.0 117.75 175.0Q125.5 180.0 138.75 182.0Q152.0 184.0 174.0 184.0H193.0L242.0 182.5L198.5 151.0Q173.0 133.5 154.5 122.5Q136.0 111.5 125.5 109.0ZM415.0 202.5 410.5 201.0Q399.5 197.0 389.0 193.25Q378.5 189.5 375.5 188.5Q373.5 187.0 371.5 187.0Q370.0 187.5 370.0 194.0Q370.0 198.5 369.5 206.0Q369.0 213.5 368.0 220.0L366.0 229.5L398.0 219.0Q429.5 209.0 429.5 208.0Q429.5 208.0 422.0 205.0Q420.5 204.5 418.75 203.75Q417.0 203.0 415.0 202.5ZM124.0 92.5 119.0 82.0Q116.0 76.0 113.0 68.0Q110.0 60.0 108.5 55.0Q107.5 53.0 106.75 51.5Q106.0 50.0 105.5 50.0Q104.0 50.0 101.0 53.75Q98.0 57.5 91.0 67.0Q85.5 73.5 81.5 78.75Q77.5 84.0 76.0 86.5Q79.5 87.0 88.5 88.75Q97.5 90.5 100.5 91.0ZM277.5 51.0Q275.5 51.0 269.25 51.25Q263.0 51.5 254.5 51.5Q245.5 51.5 238.5 51.75Q231.5 52.0 231.5 52.0Q231.5 55.0 234.75 63.75Q238.0 72.5 242.25 82.5Q246.5 92.5 250.25 99.75Q254.0 107.0 255.0 107.0Q255.0 97.0 258.25 88.5Q261.5 80.0 266.0 71.5Q270.5 64.5 273.75 58.75Q277.0 53.0 277.5 51.0ZM363.5 68.0 372.0 51.5H325.5L331.5 62.5Q335.0 69.0 339.0 78.25Q343.0 87.5 345.0 94.5Q346.0 98.0 347.5 101.0Q349.0 104.0 349.0 104.0L350.0 100.0Q351.0 95.5 355.0 85.75Q359.0 76.0 363.5 68.0ZM725.5 48.0Q723.5 48.0 715.0 47.75Q706.5 47.5 695.0 47.5Q679.5 47.5 672.75 48.5Q666.0 49.5 666.0 52.0Q666.0 56.5 671.5 64.0Q674.0 68.0 678.25 78.5Q682.5 89.0 686.0 99.0L692.0 116.5L697.0 101.5Q700.0 92.0 705.5 80.75Q711.0 69.5 715.5 63.5L719.5 57.5Q722.0 54.0 723.5 51.5Q725.0 49.0 725.5 48.0ZM93.0 41.0 118.0 10.0 121.5 42.5Q123.5 53.0 126.75 64.0Q130.0 75.0 133.0 79.0Q135.0 83.5 151.0 96.5Q167.0 109.5 187.0 125.5L248.0 170.5L249.0 160.0Q249.0 147.0 244.0 129.25Q239.0 111.5 232.5 94.25Q226.0 77.0 220.0 65.5Q215.5 57.5 212.0 50.0Q208.5 42.5 208.5 41.5Q208.5 39.0 218.0 37.75Q227.5 36.5 241.5 36.5Q254.0 36.5 267.0 37.0Q280.0 37.5 289.5 38.75Q299.0 40.0 300.0 41.5L300.5 43.0Q300.5 45.0 298.25 49.0Q296.0 53.0 292.0 58.5L287.5 65.0Q279.0 76.5 274.0 90.5Q269.0 104.5 266.75 124.25Q264.5 144.0 264.5 174.0V199.5L266.0 267.0L290.5 279.0Q300.5 283.0 313.25 287.75Q326.0 292.5 332.5 293.5L348.5 297.0L346.0 215.0Q345.5 182.0 344.0 161.25Q342.5 140.5 339.5 126.0Q336.5 111.5 330.5 97.5Q324.5 83.5 314.5 64.0Q311.0 56.5 308.25 49.75Q305.5 43.0 305.5 41.5Q305.5 39.0 316.0 37.75Q326.5 36.5 343.0 36.5H352.0Q371.0 37.5 384.25 39.75Q397.5 42.0 397.5 44.5Q397.5 46.5 395.25 49.75Q393.0 53.0 390.0 56.5Q379.0 65.0 371.25 85.5Q363.5 106.0 362.5 130.5L360.5 161.0L379.0 173.0Q390.5 180.0 401.25 184.5Q412.0 189.0 426.25 191.5Q440.5 194.0 462.0 195.0Q483.5 196.0 516.5 196.0H590.0Q630.5 196.0 657.75 197.25Q685.0 198.5 688.0 200.5Q687.5 168.5 684.25 146.25Q681.0 124.0 674.0 104.25Q667.0 84.5 654.5 61.0Q654.0 59.0 653.0 57.25Q652.0 55.5 651.0 54.0Q649.5 49.0 647.0 45.5Q645.5 41.5 644.0 39.0Q642.5 35.0 642.5 34.5Q642.5 31.5 654.5 31.5Q664.5 31.5 680.25 32.0Q696.0 32.5 712.25 33.25Q728.5 34.0 740.0 34.75Q751.5 35.5 752.0 36.0L752.5 37.5Q752.5 39.5 748.75 45.0Q745.0 50.5 739.5 56.5Q725.0 72.0 717.0 89.75Q709.0 107.5 706.0 135.0Q703.0 162.5 703.0 207.5V234.0L704.5 308.0L726.5 309.0Q737.5 309.5 745.5 312.0Q753.5 314.5 753.5 317.5Q753.5 323.5 737.5 323.5Q735.5 323.5 732.25 323.5Q729.0 323.5 726.5 323.0Q723.0 322.5 719.5 322.5Q716.0 322.5 713.5 322.5Q707.0 322.5 705.5 324.5Q704.0 326.5 703.0 332.5Q701.5 345.0 696.0 345.0Q688.5 345.0 688.5 328.0V319.0H565.0Q525.0 319.0 498.0 319.5Q471.0 320.0 451.75 321.0Q432.5 322.0 416.75 324.0Q401.0 326.0 384.0 329.0Q365.5 332.5 344.0 337.0Q322.5 341.5 302.5 346.25Q282.5 351.0 266.5 355.5Q250.5 360.0 242.0 363.5Q237.5 365.0 235.5 365.0Q231.5 365.0 231.5 360.5Q231.5 358.0 233.0 353.0Q235.0 349.0 236.75 333.5Q238.5 318.0 239.0 302.0Q240.0 284.5 242.75 272.0Q245.5 259.5 248.5 259.5Q249.0 259.5 249.25 250.5Q249.5 241.5 249.5 229.5Q249.5 212.0 248.75 205.75Q248.0 199.5 245.5 199.5Q241.0 199.5 241.0 201.0Q241.0 202.5 226.5 215.75Q212.0 229.0 192.0 245.0Q166.5 265.0 150.75 281.5Q135.0 298.0 125.0 316.0Q115.0 334.0 107.5 358.5L97.0 391.5L86.5 369.0Q85.5 366.5 83.5 363.5L82.0 360.5Q80.0 357.5 78.25 354.25Q76.5 351.0 74.5 348.0Q71.0 343.0 68.0 338.0Q65.0 333.0 62.0 328.5L45.5 302.5L47.0 245.5Q47.0 208.5 43.25 178.5Q39.5 148.5 22.0 116.0Q17.0 107.5 13.5 100.75Q10.0 94.0 10.0 93.5Q10.0 91.0 16.25 89.75Q22.5 88.5 30.5 88.5Q41.0 88.5 49.5 84.5Q58.0 80.5 68.25 70.25Q78.5 60.0 93.0 41.0Z" fill="black" /></svg>