<svg xmlns="http://www.w3.org/2000/svg" width="613.5" height="454.5" viewBox="0 0 613.5 454.5"><path d="M104.5 213.5Q104.5 209.5 104.25 207.5Q104.0 205.5 104.0 205.5Q103.0 205.5 96.25 211.0Q89.5 216.5 81.0 224.25Q72.5 232.0 65.25 239.25Q58.0 246.5 55.5 249.5Q61.0 249.5 74.5 254.5Q88.0 259.5 101.5 266.5Q104.0 267.5 106.0 269.0Q108.0 270.5 110.0 271.5Q113.0 273.0 118.0 276.0Q120.5 277.0 122.25 278.0Q124.0 279.0 126.0 280.0Q124.0 275.5 121.5 269.25Q119.0 263.0 116.5 256.5L115.5 253.0Q110.5 240.5 107.5 229.25Q104.5 218.0 104.5 213.5ZM210.5 261.0 221.0 254.0 203.0 246.0Q198.0 244.0 195.0 242.5Q192.0 241.0 191.0 241.0Q189.5 241.0 189.5 252.0V255.5Q189.5 269.0 193.0 269.0Q195.5 269.0 200.0 266.75Q204.5 264.5 210.5 261.0ZM174.5 266.0 173.0 310.5 194.5 330.0 209.0 341.0V330.0Q209.0 321.5 211.0 315.5Q213.0 309.5 215.5 309.5Q217.0 309.5 223.75 314.25Q230.5 319.0 238.5 325.5Q249.5 334.5 264.5 343.25Q279.5 352.0 296.25 357.75Q313.0 363.5 328.0 365.5Q336.5 367.0 342.0 367.0Q346.5 367.0 348.0 365.25Q349.5 363.5 351.0 360.0Q352.0 355.0 352.5 341.5Q353.0 328.0 353.0 312.5Q353.0 288.0 349.75 277.0Q346.5 266.0 334.0 263.0Q321.5 260.0 293.0 260.0Q276.0 260.0 265.75 260.5Q255.5 261.0 248.25 262.75Q241.0 264.5 233.5 268.0Q226.0 271.5 215.5 278.0Q209.0 280.5 203.75 283.25Q198.5 286.0 193.5 288.5Q181.5 295.0 179.5 295.0Q177.0 295.0 176.0 286.75Q175.0 278.5 174.5 266.0ZM363.0 369.5H454.0Q452.0 368.5 450.0 366.0Q448.0 363.5 448.0 360.0Q448.0 357.5 441.0 349.75Q434.0 342.0 423.5 332.0Q413.0 322.0 401.25 311.75Q389.5 301.5 380.0 294.0L369.5 288.0V293.5Q369.5 298.5 368.75 311.5Q368.0 324.5 366.5 338.5ZM192.5 68.5Q179.5 65.5 165.5 64.75Q151.5 64.0 137.0 64.0Q137.0 65.5 138.0 65.5Q139.0 69.0 141.75 77.75Q144.5 86.5 148.0 96.5L151.0 108.0Q152.0 111.5 153.25 115.0Q154.5 118.5 156.0 122.5L157.0 127.0Q158.0 129.0 159.0 131.5Q160.0 134.0 160.5 136.5Q161.5 138.5 162.0 140.25Q162.5 142.0 163.0 143.5Q164.0 141.0 165.5 136.75Q167.0 132.5 169.0 127.5Q170.0 125.0 170.75 123.0Q171.5 121.0 172.0 119.0Q175.0 108.5 179.25 98.25Q183.5 88.0 186.5 81.5Q191.5 73.0 192.5 68.5ZM303.0 177.0Q304.0 171.5 304.5 167.0Q305.0 162.5 305.0 159.5Q301.5 161.0 293.75 166.25Q286.0 171.5 277.25 178.25Q268.5 185.0 262.25 190.25Q256.0 195.5 256.0 197.0Q256.0 197.0 263.0 200.0Q270.0 203.0 280.0 207.0L287.5 209.0Q292.5 211.0 297.0 213.0Q301.5 215.0 305.0 216.5Q304.5 215.5 304.25 214.25Q304.0 213.0 303.5 212.0Q300.0 205.0 300.0 195.5Q300.0 191.5 300.5 186.75Q301.0 182.0 303.0 177.0ZM349.0 177.0Q346.5 171.0 342.0 162.25Q337.5 153.5 333.5 148.5L328.5 141.0L325.5 148.5Q317.0 171.5 317.0 193.0Q317.0 199.0 317.5 203.5Q318.0 208.0 320.0 210.0Q326.0 221.5 334.25 230.5Q342.5 239.5 349.0 239.5Q351.5 239.5 352.5 232.25Q353.5 225.0 353.5 215.0Q353.5 206.5 352.5 196.0Q351.5 185.5 349.0 177.0ZM393.5 128.0Q393.5 127.0 384.75 126.25Q376.0 125.5 363.5 125.5H337.5Q338.0 127.0 339.0 127.75Q340.0 128.5 340.5 129.5Q344.5 133.5 349.75 142.5Q355.0 151.5 359.5 161.5L365.0 176.0L374.0 160.5Q379.0 150.5 383.5 142.25Q388.0 134.0 390.0 132.5Q393.5 130.5 393.5 128.0ZM461.5 169.0Q458.5 166.0 451.0 160.5Q443.5 155.0 434.5 149.25Q425.5 143.5 418.25 139.75Q411.0 136.0 408.5 136.0Q406.5 136.0 400.25 147.0Q394.0 158.0 387.0 172.5Q377.5 192.5 373.5 206.5Q369.5 220.5 369.5 236.5V264.5L448.0 330.5V292.5Q448.0 274.0 447.0 262.5Q446.0 251.0 443.5 242.0Q441.0 233.0 436.0 222.0Q431.0 210.5 425.25 201.0Q419.5 191.5 416.5 189.0Q408.5 182.5 408.5 176.5Q408.5 167.5 428.0 167.5Q430.5 167.5 433.25 167.5Q436.0 167.5 438.0 168.0Q444.0 168.5 449.75 168.75Q455.5 169.0 461.5 169.0ZM469.5 191.5 475.0 185.5H457.0Q450.0 185.5 444.0 185.5Q438.0 185.5 435.5 185.0Q436.0 185.5 436.25 186.25Q436.5 187.0 437.0 188.0Q437.5 190.0 441.0 196.75Q444.5 203.5 448.5 209.75Q452.5 216.0 453.5 216.0Q454.5 216.0 455.0 213.0Q456.5 208.5 461.25 202.0Q466.0 195.5 469.5 191.5ZM410.5 65.5Q411.0 63.0 411.5 61.25Q412.0 59.5 412.5 58.5V58.0Q410.5 58.5 404.75 62.25Q399.0 66.0 390.5 72.0L361.5 95.5L371.5 98.5Q377.0 100.5 384.25 102.25Q391.5 104.0 396.5 105.0Q402.0 104.5 404.0 102.25Q406.0 100.0 406.0 93.5Q406.0 88.5 407.5 79.75Q409.0 71.0 410.5 65.5ZM573.0 62.5Q573.0 62.0 564.5 61.5Q556.0 61.0 545.5 61.0Q532.0 61.0 527.0 60.75Q522.0 60.5 522.0 61.0L524.5 63.0Q526.5 66.0 530.0 73.25Q533.5 80.5 537.0 89.0L541.0 100.0Q545.0 109.0 547.25 114.5Q549.5 120.0 550.0 121.0L550.5 120.0Q551.5 118.0 552.75 114.75Q554.0 111.5 555.5 108.0Q556.5 105.0 557.5 102.25Q558.5 99.5 559.0 97.5Q560.5 94.5 561.5 92.0Q562.5 89.5 563.0 87.5Q568.0 79.0 570.5 71.75Q573.0 64.5 573.0 62.5ZM240.5 348.5 236.5 345.5Q229.5 340.0 226.5 340.0Q225.0 340.0 225.0 344.5Q225.0 352.0 230.0 358.0Q233.5 361.5 233.5 365.0Q233.5 368.0 229.0 372.0Q227.0 374.5 226.0 381.5Q225.0 388.5 225.0 397.0V417.0L244.0 406.5Q255.0 402.0 270.5 395.75Q286.0 389.5 298.0 385.5L317.0 381.0L304.0 377.5Q284.0 373.0 269.5 366.25Q255.0 359.5 240.5 348.5ZM426.0 20.5Q427.5 15.5 431.0 12.75Q434.5 10.0 437.0 10.0Q444.5 10.0 444.5 19.5Q444.5 27.0 437.0 37.0Q434.0 43.0 430.25 53.75Q426.5 64.5 424.0 75.75Q421.5 87.0 421.5 94.5Q421.5 102.5 429.0 113.5Q436.5 124.5 447.5 135.0Q458.5 145.5 469.0 153.5Q479.5 161.5 486.0 164.5Q491.0 166.5 499.25 173.0Q507.5 179.5 514.5 185.5L517.5 188.0Q524.5 194.5 530.25 199.25Q536.0 204.0 538.0 204.0Q538.0 204.0 538.25 197.5Q538.5 191.0 538.5 182.0Q538.5 154.5 533.25 126.25Q528.0 98.0 512.0 75.0L490.5 46.5L545.5 43.5Q564.5 41.5 580.25 41.25Q596.0 41.0 597.5 41.0L598.0 44.5Q598.0 46.5 595.25 53.5Q592.5 60.5 589.5 68.5L587.5 72.0Q577.5 93.0 569.75 117.0Q562.0 141.0 557.75 163.0Q553.5 185.0 553.5 201.0Q553.5 220.5 560.5 225.5Q563.0 227.5 564.75 231.0Q566.5 234.5 566.5 237.0Q566.5 244.5 559.0 244.5Q558.0 244.5 555.0 243.5Q554.5 243.5 554.0 251.75Q553.5 260.0 553.5 273.0Q553.0 288.5 552.0 307.75Q551.0 327.0 549.5 339.0Q548.0 354.0 544.5 354.0Q541.5 354.0 540.5 340.5Q539.5 327.0 538.5 296.5V226.0L516.5 208.5Q507.5 201.5 501.25 197.75Q495.0 194.0 491.0 194.0Q489.0 194.0 485.0 198.25Q481.0 202.5 476.5 208.0Q472.5 213.5 470.25 221.75Q468.0 230.0 467.0 246.5Q466.0 263.0 465.5 293.5Q465.0 322.5 462.0 344.25Q459.0 366.0 456.5 369.5H480.5Q540.0 369.5 571.75 371.5Q603.5 373.5 603.5 376.5Q603.5 381.0 572.25 383.0Q541.0 385.0 482.5 385.0Q441.5 385.0 416.25 385.5Q391.0 386.0 375.25 387.25Q359.5 388.5 347.5 390.75Q335.5 393.0 321.0 397.0Q300.5 403.5 280.0 411.25Q259.5 419.0 244.25 426.25Q229.0 433.5 223.0 438.5L221.0 439.5Q218.0 441.5 216.25 443.0Q214.5 444.5 212.5 444.5Q205.5 443.0 205.5 433.5Q205.5 428.5 206.5 421.25Q207.5 414.0 209.0 404.5Q212.0 386.5 212.0 377.0Q212.0 368.0 208.0 363.25Q204.0 358.5 195.0 351.0L172.0 332.0L168.5 385.5Q168.0 389.5 168.0 395.0Q168.0 400.5 168.0 407.0V412.5Q167.5 423.5 166.75 432.75Q166.0 442.0 162.0 442.0Q158.5 442.0 157.5 435.5Q156.5 429.0 156.5 418.5V385.5L156.0 321.5L139.0 309.5Q125.0 299.5 105.75 288.5Q86.5 277.5 66.0 269.75Q45.5 262.0 27.5 262.0Q15.0 261.0 12.5 259.75Q10.0 258.5 10.0 254.5Q10.0 247.5 16.25 244.75Q22.5 242.0 27.5 241.0Q35.5 240.0 50.5 228.75Q65.5 217.5 87.0 195.0Q109.0 173.0 122.5 162.5Q136.0 152.0 139.0 152.0Q142.5 152.0 142.5 155.5Q142.5 158.0 139.75 162.5Q137.0 167.0 131.5 174.0Q126.5 181.5 123.25 190.25Q120.0 199.0 120.0 208.5Q120.0 220.5 124.75 234.25Q129.5 248.0 136.75 260.75Q144.0 273.5 151.0 282.0L157.0 291.0Q157.0 284.0 157.25 277.25Q157.5 270.5 158.0 264.0Q158.5 255.5 158.5 247.75Q158.5 240.0 158.5 232.5Q158.5 197.0 149.25 162.0Q140.0 127.0 128.5 94.5Q126.5 84.5 123.0 75.0Q119.5 65.5 117.25 56.5Q115.0 47.5 115.0 46.0V44.5Q116.5 42.0 121.5 42.0Q124.0 42.0 128.5 43.0Q133.0 44.0 138.0 45.0Q145.0 47.0 159.5 48.5Q174.0 50.0 186.0 50.0Q200.0 50.0 210.25 51.0Q220.5 52.0 220.5 55.5Q220.5 56.5 216.0 64.75Q211.5 73.0 204.5 83.0Q194.0 100.0 188.25 119.0Q182.5 138.0 180.0 162.75Q177.5 187.5 176.0 222.0Q178.5 209.0 181.0 209.0Q183.0 209.0 188.5 213.0Q194.0 217.0 200.0 222.5Q211.5 233.5 229.5 239.0Q247.5 244.5 281.0 244.5H310.0L303.0 237.5Q296.5 233.5 283.0 226.75Q269.5 220.0 255.5 215.0L213.0 199.5L245.5 180.5Q249.0 179.0 259.5 172.0Q270.0 165.0 282.0 156.25Q294.0 147.5 302.75 139.5Q311.5 131.5 311.5 128.0Q311.5 127.5 309.5 125.5Q305.0 123.0 304.0 118.0Q305.0 109.0 329.5 109.0H336.5Q341.0 109.0 344.75 109.0Q348.5 109.0 352.0 109.0Q349.5 108.5 346.25 107.5Q343.0 106.5 339.5 106.0L311.0 96.5L340.5 84.0Q351.0 79.5 364.75 70.75Q378.5 62.0 391.75 52.0Q405.0 42.0 414.5 33.5Q424.0 25.0 426.0 20.5Z" fill="black" /></svg>