<svg xmlns="http://www.w3.org/2000/svg" width="951.0" height="459.5" viewBox="0 0 951.0 459.5"><path d="M379.0 352.5 358.0 340.5Q344.5 332.0 332.0 323.0Q319.5 314.0 316.0 309.0L314.5 306.5L312.0 304.0Q311.5 304.0 308.75 311.25Q306.0 318.5 300.0 334.5Q297.0 343.5 294.0 352.25Q291.0 361.0 287.5 369.5Q289.0 369.0 291.25 368.5Q293.5 368.0 295.5 367.5Q313.0 362.5 334.0 357.5Q355.0 352.5 373.5 352.5ZM665.5 320.5 652.5 316.5Q641.5 314.0 630.25 310.0Q619.0 306.0 612.5 302.5Q609.5 300.5 607.0 299.5V321.0Q607.0 331.0 607.25 336.75Q607.5 342.5 608.0 344.5Q612.5 343.0 616.5 341.0Q624.0 338.0 631.25 334.75Q638.5 331.5 645.0 328.0ZM220.5 146.5Q221.5 145.5 222.0 144.5Q222.5 143.5 223.0 142.5Q216.5 148.0 203.75 158.75Q191.0 169.5 176.5 183.5Q162.0 195.5 145.75 209.0Q129.5 222.5 115.25 234.0Q101.0 245.5 92.5 252.0Q81.0 261.0 72.25 268.0Q63.5 275.0 63.5 275.5Q63.5 276.0 71.5 276.0Q79.5 276.0 91.5 276.0Q106.0 276.0 118.75 277.5Q131.5 279.0 137.5 281.5Q138.5 283.0 143.0 283.0Q151.0 283.0 157.0 274.5Q163.0 266.0 164.0 251.5Q166.0 238.5 172.5 224.0Q179.0 209.5 190.0 194.0Q197.5 181.0 206.75 167.0Q216.0 153.0 220.5 146.5ZM308.0 102.5Q308.0 97.0 308.25 92.0Q308.5 87.0 308.5 83.0Q309.0 77.5 309.25 73.0Q309.5 68.5 309.5 65.0Q309.5 64.0 309.5 63.75Q309.5 63.5 309.5 63.0Q303.5 66.5 291.75 80.25Q280.0 94.0 265.75 113.5Q251.5 133.0 236.75 154.75Q222.0 176.5 209.75 196.75Q197.5 217.0 190.0 231.75Q182.5 246.5 182.5 252.5Q182.5 259.0 181.25 266.75Q180.0 274.5 179.0 279.5H178.5Q178.5 279.5 178.5 279.75Q178.5 280.0 178.5 280.5Q178.5 281.5 179.5 281.5Q184.5 281.5 187.25 284.25Q190.0 287.0 190.0 294.5Q190.0 295.5 190.0 298.0Q190.0 300.5 189.0 303.0Q189.0 304.5 188.5 305.5Q188.5 313.5 191.25 317.75Q194.0 322.0 200.5 327.5Q206.5 331.5 215.25 339.0Q224.0 346.5 232.5 353.5L241.0 361.0Q257.5 376.0 261.0 376.0L261.5 375.5Q262.5 375.5 262.75 375.25Q263.0 375.0 263.0 375.0Q267.0 368.0 273.5 351.25Q280.0 334.5 286.25 315.5Q292.5 296.5 295.5 283.0Q298.5 268.5 302.0 261.75Q305.5 255.0 309.0 254.5Q313.5 255.0 315.75 259.75Q318.0 264.5 320.0 273.0Q324.0 292.5 353.5 313.25Q383.0 334.0 427.0 352.0L436.0 355.0V314.5Q436.0 275.5 427.5 251.0Q419.0 226.5 400.5 210.0Q386.5 197.0 386.5 190.5L388.0 188.0Q389.5 186.5 399.25 185.5Q409.0 184.5 423.25 183.75Q437.5 183.0 452.25 182.5Q467.0 182.0 478.5 182.0Q490.0 182.0 497.0 183.0Q504.0 184.0 504.0 187.0Q504.0 189.0 499.5 193.5Q495.0 198.0 489.0 202.0V200.5Q477.5 208.5 470.75 226.5Q464.0 244.5 460.5 266.5Q457.0 288.5 455.75 309.25Q454.5 330.0 454.5 343.5Q454.5 353.5 456.0 356.75Q457.5 360.0 461.0 361.5Q463.5 362.5 474.75 365.75Q486.0 369.0 502.0 373.0Q518.0 377.0 534.0 380.75Q550.0 384.5 562.25 387.0Q574.5 389.5 578.5 389.5Q578.0 386.5 577.5 378.75Q577.0 371.0 577.0 359.5Q577.0 340.0 576.25 313.75Q575.5 287.5 574.5 260.0Q573.5 232.5 572.0 207.75Q570.5 183.0 569.0 165.75Q567.5 148.5 566.0 144.0L560.5 127.5L500.5 126.0Q468.5 126.0 437.5 129.0Q406.5 132.0 378.0 142.75Q349.5 153.5 324.5 176.0Q310.0 190.5 302.5 190.5Q296.5 190.5 295.5 181.5Q299.5 162.0 302.75 142.25Q306.0 122.5 308.0 102.5ZM455.5 215.0 458.5 202.0H442.0Q436.0 202.0 430.75 202.0Q425.5 202.0 423.5 202.5Q429.0 213.5 435.5 223.5Q442.0 233.5 446.5 237.0Q448.0 233.0 450.75 226.5Q453.5 220.0 455.5 215.0ZM862.0 199.0Q848.0 206.5 797.0 207.5Q793.5 207.5 789.75 207.5Q786.0 207.5 782.0 207.0Q778.0 207.0 774.0 206.75Q770.0 206.5 766.0 206.5Q740.5 206.5 712.0 208.25Q683.5 210.0 657.5 218.0Q631.5 226.0 611.5 244.0Q598.5 255.5 598.5 259.0Q598.5 262.0 601.5 265.0Q611.5 285.5 661.0 297.75Q710.5 310.0 786.5 311.0Q813.0 311.0 835.0 312.75Q857.0 314.5 864.5 317.5Q864.5 315.0 864.5 313.0Q864.5 311.0 864.5 309.0Q864.5 269.5 864.0 243.5Q863.5 217.5 862.0 199.0ZM341.5 96.0Q337.5 94.0 333.25 90.75Q329.0 87.5 329.0 87.5Q328.0 88.5 326.75 98.0Q325.5 107.5 324.75 119.25Q324.0 131.0 324.0 139.0V146.5L389.0 115.0L378.0 112.0Q369.0 109.0 358.25 105.0Q347.5 101.0 341.5 96.0ZM665.0 195.5 652.5 192.0Q641.5 189.5 630.25 185.0Q619.0 180.5 612.5 177.5Q609.5 175.5 607.0 174.5V196.0Q607.0 205.5 607.25 211.25Q607.5 217.0 608.0 219.5Q617.0 216.5 627.0 212.5Q637.0 208.5 645.0 204.0ZM611.5 40.5 612.5 38.5Q612.0 37.5 605.25 36.75Q598.5 36.0 581.0 36.0Q570.0 36.0 561.25 35.5Q552.5 35.0 549.5 34.5Q554.0 43.5 559.75 57.5Q565.5 71.5 571.0 87.25Q576.5 103.0 580.0 118.0L584.5 138.0L587.5 124.0Q591.5 103.0 598.25 79.5Q605.0 56.0 611.5 40.5ZM902.0 41.0Q897.5 40.0 884.75 39.0Q872.0 38.0 858.25 37.0Q844.5 36.0 836.5 36.0Q843.0 46.0 848.75 60.0Q854.5 74.0 859.0 87.75Q863.5 101.5 866.0 111.0Q869.5 125.5 872.0 134.25Q874.5 143.0 874.5 143.0Q876.5 121.0 881.75 97.5Q887.0 74.0 895.0 53.5Q897.0 50.0 899.0 46.5Q901.0 43.0 902.0 41.0ZM805.5 20.5Q805.5 10.0 812.5 10.0Q817.5 10.0 819.5 11.5Q828.0 15.0 846.5 17.0Q865.0 19.0 882.5 19.0Q893.0 19.0 902.25 18.25Q911.5 17.5 916.5 15.5Q926.5 12.5 930.5 12.5Q936.0 12.5 938.5 14.0Q941.0 15.5 941.0 20.5Q941.0 23.5 937.75 29.75Q934.5 36.0 927.5 43.0Q906.0 66.0 895.5 136.0Q885.0 206.0 884.0 320.0Q884.0 370.0 881.75 400.5Q879.5 431.0 874.5 431.0Q870.5 431.0 867.75 402.75Q865.0 374.5 864.5 323.0Q856.5 327.0 828.75 329.75Q801.0 332.5 765.5 332.5H749.5Q711.0 332.5 677.75 338.0Q644.5 343.5 613.0 367.0Q603.5 375.5 600.0 382.25Q596.5 389.0 596.5 403.5Q596.5 414.5 594.0 422.75Q591.5 431.0 586.5 431.0Q583.0 431.0 580.0 427.25Q577.0 423.5 577.0 416.5Q577.0 413.0 563.0 408.75Q549.0 404.5 510.5 396.0Q491.5 392.0 474.75 387.5Q458.0 383.0 447.0 379.25Q436.0 375.5 434.0 374.0Q432.0 372.5 424.75 371.0Q417.5 369.5 407.5 369.5Q390.5 369.5 369.0 372.25Q347.5 375.0 327.25 379.75Q307.0 384.5 293.5 390.5L278.0 398.0L290.5 417.0Q296.5 424.5 300.0 432.0Q303.5 439.5 304.0 443.5Q304.0 448.0 300.0 449.5H297.5Q294.5 449.5 289.5 445.5Q284.5 441.5 281.5 436.5Q272.0 423.0 254.5 404.75Q237.0 386.5 215.5 367.25Q194.0 348.0 173.0 331.5Q152.0 315.0 136.0 305.5Q128.5 301.5 117.25 298.25Q106.0 295.0 98.5 295.0Q90.5 295.0 76.0 293.75Q61.5 292.5 49.0 291.5L10.0 287.0L58.5 254.0Q80.0 238.0 106.25 216.75Q132.5 195.5 160.25 171.75Q188.0 148.0 213.75 124.75Q239.5 101.5 260.0 81.75Q280.5 62.0 292.5 48.5Q304.5 35.0 304.5 31.0Q304.5 27.0 308.25 23.25Q312.0 19.5 316.5 19.5Q327.0 19.5 327.0 27.5Q327.0 30.5 325.0 34.0L322.5 39.5Q322.0 40.5 320.5 42.0Q329.5 43.0 329.5 53.5Q329.5 59.5 337.75 67.25Q346.0 75.0 359.25 82.0Q372.5 89.0 387.5 94.0Q421.5 102.0 458.25 104.5Q495.0 107.0 530.0 107.0Q546.5 107.0 551.25 106.5Q556.0 106.0 556.0 104.0Q556.0 100.5 552.5 91.25Q549.0 82.0 544.0 70.75Q539.0 59.5 534.0 50.25Q529.0 41.0 526.0 37.5V38.0Q517.0 31.0 517.0 20.5Q517.0 10.5 525.5 10.5Q526.5 10.5 528.25 10.5Q530.0 10.5 532.0 11.5V12.0Q541.0 15.5 557.0 17.25Q573.0 19.0 588.5 19.0Q598.0 19.0 606.5 18.25Q615.0 17.5 621.5 15.5Q625.5 14.0 630.0 13.25Q634.5 12.5 637.5 12.5Q645.0 13.0 650.0 15.5Q655.0 18.0 655.0 22.0Q655.0 24.0 653.0 26.75Q651.0 29.5 645.0 31.5Q638.5 34.0 631.75 47.0Q625.0 60.0 619.5 77.25Q614.0 94.5 610.75 110.75Q607.5 127.0 607.5 135.5Q607.5 146.5 614.0 152.5Q620.5 158.5 637.5 165.5Q648.0 170.0 667.25 174.0Q686.5 178.0 710.0 181.0Q733.5 184.0 757.75 185.75Q782.0 187.5 803.0 187.5Q810.0 187.5 816.75 187.25Q823.5 187.0 830.0 186.5H843.5Q855.0 186.5 861.5 188.0Q860.0 174.0 855.5 152.25Q851.0 130.5 844.5 107.25Q838.0 84.0 830.25 65.0Q822.5 46.0 814.0 38.0Q805.5 30.5 805.5 20.5Z" fill="black" /></svg>