<svg xmlns="http://www.w3.org/2000/svg" width="791.5" height="384.0" viewBox="0 0 791.5 384.0"><path d="M315.5 293.5 298.5 283.5Q287.5 276.5 277.0 269.0Q266.5 261.5 263.5 257.5L262.0 255.5Q261.5 254.5 261.0 254.0Q260.5 253.5 260.5 253.5Q260.0 253.5 250.5 278.5Q248.5 285.0 246.25 291.0Q244.0 297.0 242.5 301.5Q242.0 303.5 241.25 305.0Q240.5 306.5 240.0 307.5Q241.5 307.0 243.0 306.75Q244.5 306.5 246.5 306.0Q261.0 302.0 278.5 297.75Q296.0 293.5 311.5 293.5ZM184.5 123.0Q185.0 122.0 185.5 121.25Q186.0 120.5 186.5 120.0Q180.5 124.5 170.25 133.25Q160.0 142.0 148.0 153.5Q136.0 163.5 122.5 174.75Q109.0 186.0 97.25 195.5Q85.5 205.0 78.5 210.5Q69.0 218.0 61.75 223.75Q54.5 229.5 54.5 230.0Q54.5 230.5 61.25 230.5Q68.0 230.5 78.0 230.5Q89.5 230.5 100.0 231.5Q110.5 232.5 115.5 235.0Q116.5 236.0 120.5 236.0Q127.0 236.0 132.0 229.0Q137.0 222.0 138.0 210.0Q140.5 188.5 159.0 162.0Q165.5 151.5 173.25 140.0Q181.0 128.5 184.5 123.0ZM285.0 81.5Q281.5 79.5 278.0 77.0Q274.5 74.5 274.5 74.5Q273.5 75.0 272.25 82.75Q271.0 90.5 270.5 100.25Q270.0 110.0 270.0 117.0V123.0L324.0 97.0L315.0 94.5Q307.5 92.0 298.75 88.5Q290.0 85.0 285.0 81.5ZM257.0 86.5Q257.0 82.0 257.25 78.0Q257.5 74.0 257.5 70.5Q258.0 66.0 258.25 62.25Q258.5 58.5 258.5 55.5Q258.5 54.5 258.5 54.25Q258.5 54.0 258.5 53.5Q253.5 56.0 244.0 67.25Q234.5 78.5 222.5 94.75Q210.5 111.0 198.5 129.25Q186.5 147.5 176.0 164.25Q165.5 181.0 159.25 193.5Q153.0 206.0 153.0 211.0Q153.0 216.0 152.0 222.5Q151.0 229.0 150.0 233.0H149.5Q149.5 233.0 149.5 233.25Q149.5 233.5 149.5 234.0Q149.5 235.0 150.5 235.0Q159.0 235.0 159.0 245.5Q159.0 246.5 159.0 248.25Q159.0 250.0 158.5 252.5Q158.5 254.0 158.0 255.0Q158.0 261.5 160.5 265.0Q163.0 268.5 168.0 273.0Q173.0 276.5 180.25 282.5Q187.5 288.5 194.5 294.5L201.5 300.5Q215.5 313.0 218.0 313.0L218.5 312.5Q219.0 312.5 219.25 312.25Q219.5 312.0 219.5 312.0Q223.0 306.0 228.25 292.25Q233.5 278.5 238.75 262.75Q244.0 247.0 246.5 236.0Q251.5 214.0 258.0 212.5Q263.0 213.5 267.0 228.0Q270.0 243.5 294.5 261.0Q319.0 278.5 355.5 293.0L363.0 295.5V262.0Q363.0 229.5 356.0 209.5Q349.0 189.5 333.5 175.5Q322.0 165.0 322.0 159.5L323.0 157.5Q324.0 156.5 332.25 155.5Q340.5 154.5 352.25 153.75Q364.0 153.0 376.5 152.75Q389.0 152.5 398.5 152.5Q408.0 152.5 413.5 153.25Q419.0 154.0 419.0 156.5Q419.0 158.5 415.5 162.0Q412.0 165.5 407.0 169.0V168.0Q397.5 174.5 392.0 189.5Q386.5 204.5 383.5 222.5Q380.5 240.5 379.5 257.5Q378.5 274.5 378.5 286.0Q378.5 294.5 379.75 297.25Q381.0 300.0 383.5 301.0Q385.5 302.0 395.0 304.75Q404.5 307.5 417.5 310.75Q430.5 314.0 444.0 317.0Q457.5 320.0 467.5 322.25Q477.5 324.5 481.0 324.5Q480.5 322.0 480.0 315.5Q479.5 309.0 479.5 299.5Q479.5 283.5 479.0 261.75Q478.5 240.0 477.75 217.0Q477.0 194.0 475.75 173.5Q474.5 153.0 473.25 138.75Q472.0 124.5 470.5 121.0L466.0 107.5L416.5 106.0Q390.0 106.0 364.25 108.5Q338.5 111.0 315.0 119.75Q291.5 128.5 270.5 147.5Q257.5 159.5 252.0 159.5Q247.5 159.5 246.5 152.0Q250.5 136.0 252.75 119.5Q255.0 103.0 257.0 86.5ZM379.0 179.5 382.0 169.0H368.0Q363.0 169.0 358.75 169.0Q354.5 169.0 353.0 169.5Q357.0 179.0 362.75 187.25Q368.5 195.5 372.0 198.0Q373.0 194.5 375.0 189.25Q377.0 184.0 379.0 179.5ZM553.0 267.0 542.0 264.0Q533.0 261.5 523.75 258.25Q514.5 255.0 509.0 252.0Q508.0 251.0 506.75 250.5Q505.5 250.0 504.5 249.5V267.5Q504.5 275.5 504.75 280.5Q505.0 285.5 505.0 287.0L512.5 284.0Q526.0 279.5 536.0 273.5ZM716.0 166.5Q703.5 173.0 662.0 173.5Q659.0 173.5 656.0 173.5Q653.0 173.5 649.5 173.0Q646.0 173.0 642.75 172.75Q639.5 172.5 636.0 172.5Q615.0 172.5 591.5 174.0Q568.0 175.5 546.5 182.25Q525.0 189.0 508.5 204.0Q497.5 213.5 497.5 216.0Q497.5 218.0 500.0 221.5Q508.5 238.5 549.25 248.25Q590.0 258.0 653.0 259.0Q675.0 259.0 693.5 260.5Q712.0 262.0 718.0 264.5Q718.0 262.5 718.0 261.0Q718.0 259.5 718.0 257.5Q718.0 225.0 717.5 203.5Q717.0 182.0 716.0 166.5ZM508.5 35.0 509.0 33.5Q508.5 32.5 503.0 32.0Q497.5 31.5 483.0 31.5Q464.0 31.5 457.0 30.5Q462.5 41.5 470.0 61.25Q477.5 81.0 482.0 99.5L486.0 116.0L488.5 104.5Q492.0 87.0 497.5 67.25Q503.0 47.5 508.5 35.0ZM552.5 163.5 542.0 161.0Q533.0 158.5 523.75 154.75Q514.5 151.0 509.0 148.5Q508.0 147.5 506.75 147.0Q505.5 146.5 504.5 146.0V164.0Q504.5 172.0 504.75 176.75Q505.0 181.5 505.0 183.5Q512.5 181.0 521.0 177.5Q529.5 174.0 536.0 170.5ZM748.5 35.5Q745.0 34.5 734.5 33.75Q724.0 33.0 712.5 32.25Q701.0 31.5 694.5 31.5Q700.0 39.5 704.75 51.0Q709.5 62.5 713.25 74.0Q717.0 85.5 719.0 93.5Q721.5 105.5 723.75 112.75Q726.0 120.0 726.0 120.0Q728.0 101.5 732.25 82.25Q736.5 63.0 743.0 46.0Q746.5 40.0 748.5 35.5ZM669.0 18.5Q669.0 10.0 675.0 10.0Q678.5 10.0 680.5 11.5Q687.5 14.0 702.75 15.75Q718.0 17.5 732.5 17.5Q741.5 17.5 749.25 16.75Q757.0 16.0 761.0 14.5Q765.0 13.5 767.75 12.75Q770.5 12.0 772.5 12.0Q781.5 12.0 781.5 18.5Q781.5 25.0 770.0 37.5Q752.0 56.0 743.5 114.25Q735.0 172.5 734.0 266.5Q734.0 308.0 732.0 333.25Q730.0 358.5 726.0 358.5Q723.0 358.5 720.75 335.25Q718.5 312.0 718.0 269.0Q711.5 272.5 688.25 274.75Q665.0 277.0 635.5 277.0H622.5Q590.5 277.0 563.25 281.75Q536.0 286.5 509.5 305.5Q501.5 312.5 498.5 318.25Q495.5 324.0 495.5 335.5Q495.5 345.0 493.5 351.75Q491.5 358.5 487.5 358.5Q484.5 358.5 482.0 355.5Q479.5 352.5 479.5 346.5Q479.5 344.0 468.25 340.25Q457.0 336.5 425.0 329.5Q401.0 324.5 382.5 319.0Q364.0 313.5 361.5 311.5Q357.0 308.0 339.0 308.0Q325.5 308.0 307.75 310.25Q290.0 312.5 273.25 316.25Q256.5 320.0 245.0 325.0L232.0 331.5L242.5 347.0Q247.5 353.0 250.25 359.25Q253.0 365.5 253.5 369.0Q253.5 372.0 250.5 374.0H248.5Q246.0 374.0 241.75 370.75Q237.5 367.5 235.0 363.0Q227.5 352.0 212.75 337.0Q198.0 322.0 180.25 306.0Q162.5 290.0 145.25 276.5Q128.0 263.0 114.5 255.0Q108.0 251.5 99.0 248.75Q90.0 246.0 83.5 246.0Q77.0 246.0 64.75 245.0Q52.5 244.0 42.5 243.0L10.0 239.5L50.5 212.0Q68.5 199.0 90.25 181.25Q112.0 163.5 134.75 144.0Q157.5 124.5 178.75 105.25Q200.0 86.0 217.0 69.5Q234.0 53.0 244.0 42.0Q254.0 31.0 254.0 27.5Q254.0 23.5 257.25 20.75Q260.5 18.0 264.0 18.0Q272.5 18.0 272.5 24.5Q272.5 27.0 271.0 30.0L269.0 34.5Q268.5 35.5 267.5 36.5Q275.0 37.5 275.0 46.0Q275.0 54.0 289.5 63.75Q304.0 73.5 322.5 79.5Q350.5 86.0 381.25 88.25Q412.0 90.5 441.0 90.5Q454.5 90.5 458.25 90.0Q462.0 89.5 462.0 88.0Q462.0 85.0 459.25 77.25Q456.5 69.5 452.25 60.25Q448.0 51.0 444.0 43.25Q440.0 35.5 437.5 32.5V33.0Q430.0 27.5 430.0 18.5Q430.0 10.5 437.0 10.5Q438.0 10.5 439.25 10.5Q440.5 10.5 442.5 11.5V12.0Q450.0 14.0 463.0 15.75Q476.0 17.5 489.0 17.5Q506.0 17.5 516.5 14.5Q524.0 12.0 530.0 12.0Q536.5 12.5 540.5 14.25Q544.5 16.0 544.5 20.0Q544.5 21.5 542.75 23.75Q541.0 26.0 536.0 28.0Q530.5 30.0 525.0 40.75Q519.5 51.5 515.0 65.75Q510.5 80.0 507.75 93.5Q505.0 107.0 505.0 114.0Q505.0 123.5 510.5 128.25Q516.0 133.0 530.0 138.5Q539.0 142.5 554.75 145.75Q570.5 149.0 590.0 151.5Q609.5 154.0 629.75 155.5Q650.0 157.0 667.0 157.0Q673.0 157.0 678.5 156.75Q684.0 156.5 689.0 156.0H700.5Q705.0 156.0 708.75 156.25Q712.5 156.5 715.0 157.0Q714.0 146.0 710.25 127.75Q706.5 109.5 701.0 90.0Q695.5 70.5 689.0 54.75Q682.5 39.0 676.0 33.0Q669.0 27.0 669.0 18.5Z" fill="black" /></svg>