<svg xmlns="http://www.w3.org/2000/svg" width="875.5" height="458.5" viewBox="0 0 875.5 458.5"><path d="M110.5 312.5Q93.5 309.0 77.0 304.5Q60.5 300.0 52.5 296.5Q43.5 291.0 39.5 291.0V297.5Q39.5 299.5 39.25 302.0Q39.0 304.5 39.0 308.0Q38.5 311.5 38.5 316.5Q38.5 321.5 38.0 326.0L37.5 332.5L34.0 354.5L55.0 346.5Q73.5 338.0 93.5 331.75Q113.5 325.5 133.5 320.5Q136.0 320.0 138.25 319.5Q140.5 319.0 142.5 318.5Q140.5 318.0 138.25 317.5Q136.0 317.0 133.5 316.5L130.5 316.0Q119.5 315.0 110.5 312.5ZM206.5 250.0V241.5Q206.0 241.5 205.25 242.0Q204.5 242.5 203.5 243.0Q202.0 244.0 200.75 245.5Q199.5 247.0 197.0 248.0L196.0 248.5Q192.0 252.0 189.0 255.25Q186.0 258.5 186.0 259.5Q186.0 259.5 188.25 259.75Q190.5 260.0 195.5 260.0Q202.0 260.0 204.25 258.25Q206.5 256.5 206.5 250.0ZM294.0 189.5Q293.5 187.5 288.25 186.75Q283.0 186.0 276.0 186.0Q259.0 186.0 249.5 198.5Q238.5 214.0 232.25 227.0Q226.0 240.0 225.0 250.0L237.5 241.5Q250.0 233.5 262.75 222.5Q275.5 211.5 284.5 202.0Q293.5 192.5 294.0 189.5ZM270.5 249.5Q278.0 249.5 280.5 242.75Q283.0 236.0 283.0 229.5Q281.5 229.5 276.25 233.75Q271.0 238.0 266.25 242.5Q261.5 247.0 261.5 248.5Q261.5 248.5 263.75 249.0Q266.0 249.5 270.5 249.5ZM255.5 266.5 224.5 258.0Q226.5 276.5 251.5 293.0Q260.5 299.0 267.75 302.25Q275.0 305.5 283.5 307.0Q292.0 308.5 305.5 308.5Q320.0 308.5 325.5 308.5Q331.0 308.5 331.0 308.0Q331.0 307.5 330.5 307.0Q330.0 306.5 329.5 306.0Q321.0 295.5 299.5 284.25Q278.0 273.0 255.5 266.5ZM316.0 158.5Q317.0 154.0 318.0 150.0Q319.0 146.0 319.5 144.0Q316.0 145.5 309.0 150.5Q302.0 155.5 295.75 160.75Q289.5 166.0 287.0 169.5Q290.5 170.0 295.25 171.25Q300.0 172.5 303.5 173.5H305.0L306.0 174.0Q308.5 174.0 310.75 169.75Q313.0 165.5 316.0 158.5ZM377.0 231.5Q370.0 227.0 358.0 220.0Q346.0 213.0 337.5 208.0L317.5 198.0Q315.5 202.5 313.25 207.5Q311.0 212.5 308.5 218.0Q299.5 233.5 299.5 246.0Q299.5 263.0 320.0 276.5Q326.5 281.0 335.0 287.5Q343.5 294.0 348.0 299.0L350.0 301.0Q354.0 306.0 356.0 306.0Q359.0 306.0 367.0 297.5Q375.0 289.0 383.5 277.75Q392.0 266.5 398.25 257.25Q404.5 248.0 404.5 246.0Q396.5 243.0 390.25 239.75Q384.0 236.5 377.0 231.5ZM433.5 279.5Q428.0 270.0 423.75 262.75Q419.5 255.5 418.5 255.5Q417.0 255.5 411.75 263.25Q406.5 271.0 401.25 279.5Q396.0 288.0 394.5 291.5Q398.5 292.5 408.25 294.5Q418.0 296.5 428.5 298.25Q439.0 300.0 445.0 300.5Q443.5 297.0 440.5 291.5Q437.5 286.0 433.5 279.5ZM497.5 225.0Q496.0 221.5 492.5 214.75Q489.0 208.0 485.0 200.0L472.5 178.0L450.0 210.5L473.0 218.5L483.5 221.5Q487.5 222.5 491.25 223.5Q495.0 224.5 497.5 225.0ZM515.0 251.0Q469.0 231.0 447.0 231.0Q433.5 231.0 433.5 239.0Q433.5 247.5 441.5 262.25Q449.5 277.0 461.5 292.5Q473.5 308.0 486.25 318.5Q499.0 329.0 508.5 329.0Q509.0 329.0 509.75 328.75Q510.5 328.5 511.0 328.5Q514.0 326.0 520.25 317.5Q526.5 309.0 533.25 298.75Q540.0 288.5 544.5 279.75Q549.0 271.0 549.0 268.0Q549.0 267.5 538.75 262.5Q528.5 257.5 515.0 251.0ZM570.5 274.0V272.0Q568.5 273.0 564.25 279.25Q560.0 285.5 555.75 293.5Q551.5 301.5 548.25 309.0Q545.0 316.5 544.5 319.5H587.5Q600.5 319.5 612.0 320.0Q623.5 320.5 631.0 321.5Q626.0 317.5 619.25 312.75Q612.5 308.0 604.5 303.0Q591.0 294.5 580.75 286.0Q570.5 277.5 570.5 274.0ZM685.5 302.5V302.0Q683.5 299.0 680.0 299.0Q678.0 299.0 678.0 300.5Q678.0 301.5 680.0 302.25Q682.0 303.0 684.0 303.0Q685.5 303.0 685.5 302.5ZM685.5 251.0Q686.0 251.0 686.0 250.0Q685.0 250.0 681.5 250.25Q678.0 250.5 678.0 252.0Q678.0 255.0 680.0 255.0Q682.0 255.0 683.25 253.5Q684.5 252.0 685.5 251.0ZM795.5 341.5V309.0L757.0 310.5Q723.0 311.0 702.25 315.0Q681.5 319.0 681.5 324.5Q681.5 327.0 687.5 330.5Q692.0 333.0 703.5 338.0Q715.0 343.0 729.75 349.0Q744.5 355.0 758.5 360.25Q772.5 365.5 782.0 369.0Q791.5 372.5 793.0 372.5Q794.0 372.5 794.75 363.75Q795.5 355.0 795.5 341.5ZM586.5 139.0 594.0 116.0H562.5L569.5 132.0Q578.5 153.5 580.5 153.5Q581.0 153.5 582.5 149.25Q584.0 145.0 586.5 139.0ZM687.5 147.5Q687.0 148.0 683.0 148.0Q682.5 148.0 681.75 148.75Q681.0 149.5 680.0 150.0Q681.5 150.0 682.25 150.25Q683.0 150.5 683.5 150.5Q687.0 150.5 687.5 147.5ZM731.5 120.0Q706.5 108.5 691.25 104.25Q676.0 100.0 658.5 100.0Q646.5 100.0 639.5 101.25Q632.5 102.5 627.75 106.25Q623.0 110.0 617.0 117.0Q606.0 131.0 599.5 158.75Q593.0 186.5 589.0 228.5L585.0 270.5L619.0 292.5Q632.0 301.0 643.75 307.5Q655.5 314.0 657.5 314.0Q658.5 314.0 660.0 309.75Q661.5 305.5 661.5 299.0Q661.5 287.5 663.0 283.0Q664.5 278.5 669.0 278.5Q672.0 278.5 674.0 279.0L675.0 279.5Q690.5 286.0 711.75 289.25Q733.0 292.5 759.5 292.5H795.5L793.0 259.0L751.5 260.0Q733.0 260.5 715.5 262.75Q698.0 265.0 689.0 269.0Q681.0 272.5 673.5 274.75Q666.0 277.0 665.0 277.0Q662.5 277.0 661.25 272.25Q660.0 267.5 660.0 259.5V250.0Q661.0 238.5 662.75 230.75Q664.5 223.0 666.5 223.0Q667.5 223.0 673.75 225.25Q680.0 227.5 686.5 231.5Q692.5 234.5 706.5 236.75Q720.5 239.0 737.75 240.5Q755.0 242.0 769.0 242.0Q779.5 242.0 786.0 241.5Q792.5 241.0 794.0 239.0Q795.0 238.0 795.0 234.0Q794.5 231.5 794.5 229.0Q794.5 226.5 794.0 224.5Q794.0 223.5 793.5 221.5Q793.0 219.5 793.0 218.5L791.0 202.0H754.5Q734.5 202.0 720.0 204.5Q705.5 207.0 694.0 212.5L685.5 216.0Q680.0 218.0 675.5 219.75Q671.0 221.5 669.5 221.5L667.0 220.5Q666.5 219.0 665.75 206.0Q665.0 193.0 664.5 176.0Q664.0 159.0 664.0 146.0Q664.0 140.5 664.25 136.25Q664.5 132.0 665.0 130.0V127.0Q666.5 125.5 670.5 125.5Q676.0 125.5 686.5 130.0Q695.5 134.5 711.75 137.25Q728.0 140.0 745.5 141.0Q763.0 142.0 774.0 142.0Q771.0 139.5 758.5 133.25Q746.0 127.0 731.5 120.0ZM750.5 185.5 788.5 186.0 784.0 159.0H745.0Q716.0 159.0 700.75 162.75Q685.5 166.5 685.5 172.0V173.5Q688.0 178.5 703.0 181.5Q718.0 184.5 750.5 185.5ZM668.0 82.0 654.5 69.0Q648.0 62.0 642.0 56.75Q636.0 51.5 635.5 51.5Q635.0 51.5 632.25 58.0Q629.5 64.5 626.25 72.75Q623.0 81.0 621.0 86.5Q622.0 86.5 622.75 86.5Q623.5 86.5 624.0 86.5L629.5 85.5Q632.5 85.0 637.0 84.5Q641.5 84.0 646.5 83.5ZM820.0 92.5 824.0 80.5 800.5 78.5Q797.0 78.0 794.0 78.0Q791.0 78.0 788.5 78.0H775.5Q776.0 80.5 778.75 89.0Q781.5 97.5 785.0 109.0Q787.5 113.5 789.25 119.25Q791.0 125.0 792.5 131.0Q794.0 135.5 795.0 140.0Q796.0 144.5 797.5 148.0L799.5 155.0Q801.0 167.0 802.5 167.0Q805.0 167.0 808.0 140.0Q809.0 128.0 812.75 114.25Q816.5 100.5 820.0 92.5ZM631.5 21.5Q634.0 10.0 641.0 10.0Q643.5 10.0 645.5 13.0Q647.5 16.0 647.5 20.5Q651.0 40.5 670.5 60.0Q690.0 79.5 729.5 99.0Q757.0 114.5 767.0 114.5Q769.0 114.5 769.0 113.0Q769.0 106.5 761.0 91.5Q755.5 81.5 751.5 71.5Q747.5 61.5 747.5 59.5Q747.5 55.5 755.5 55.5Q758.5 55.5 764.0 56.5Q769.5 57.5 776.0 58.5Q781.5 60.0 787.5 60.5Q793.5 61.0 799.0 61.0Q805.0 61.0 810.75 60.5Q816.5 60.0 823.0 58.5Q830.0 57.0 836.25 56.0Q842.5 55.0 845.5 55.0Q856.0 55.0 856.0 61.5Q856.0 66.5 846.5 78.5Q837.5 91.0 831.25 113.25Q825.0 135.5 821.5 163.0Q818.0 190.5 816.0 218.5Q814.0 246.5 813.5 271.75Q813.0 297.0 813.0 314.5L815.0 381.5L838.5 388.5Q849.5 392.0 857.5 397.0Q865.5 402.0 865.5 404.0Q865.5 409.5 856.5 409.5Q847.5 409.5 820.5 403.5L817.5 403.0Q816.5 403.0 815.75 402.5Q815.0 402.0 814.5 402.0Q812.5 402.0 812.25 405.75Q812.0 409.5 812.0 421.0Q812.0 448.5 804.5 448.5Q796.5 448.5 794.0 417.5L793.0 392.5L743.0 371.5Q698.0 353.0 659.25 344.5Q620.5 336.0 579.0 336.0Q529.0 336.0 529.0 341.0Q529.0 343.0 535.25 348.25Q541.5 353.5 551.5 360.5Q563.0 367.0 571.0 373.75Q579.0 380.5 579.0 384.0Q579.0 386.5 576.0 387.5H574.5Q571.0 387.5 556.75 380.5Q542.5 373.5 527.0 363.0Q507.0 351.0 487.25 340.5Q467.5 330.0 452.25 323.75Q437.0 317.5 429.5 317.5Q426.5 317.5 426.5 318.5Q425.0 321.5 391.0 323.5Q357.0 325.5 295.0 327.0Q243.0 328.5 206.0 331.0Q169.0 333.5 141.5 338.25Q114.0 343.0 91.75 350.5Q69.5 358.0 47.5 369.0Q36.0 375.0 25.5 379.5Q15.0 384.0 12.5 384.0L10.0 383.5V380.5Q10.0 377.5 11.25 369.5Q12.5 361.5 15.5 353.5Q18.5 345.5 20.5 335.0Q22.5 324.5 22.5 312.5Q22.5 308.5 22.25 304.5Q22.0 300.5 21.5 295.5V281.0Q21.5 269.5 22.5 262.25Q23.5 255.0 27.0 255.0Q34.5 255.0 34.5 262.5Q34.5 269.0 48.25 276.0Q62.0 283.0 85.5 289.25Q109.0 295.5 138.75 300.0Q168.5 304.5 201.0 307.0L244.0 309.0L228.5 299.5Q219.0 293.0 206.75 287.0Q194.5 281.0 187.5 279.0Q184.5 279.0 175.25 277.5Q166.0 276.0 157.5 273.0Q149.0 270.0 149.0 266.0Q149.0 260.5 163.0 251.5Q170.0 248.0 183.75 236.0Q197.5 224.0 214.0 208.0Q230.5 192.0 244.5 177.5Q247.0 175.0 257.25 167.75Q267.5 160.5 277.0 154.0Q283.5 149.5 293.5 142.5Q303.5 135.5 314.25 127.0Q325.0 118.5 333.5 111.0Q349.0 98.5 359.0 92.75Q369.0 87.0 372.0 86.5Q373.5 87.0 375.0 87.75Q376.5 88.5 376.5 90.5Q376.5 94.0 365.0 108.0Q350.0 126.5 341.0 142.5Q332.0 158.5 332.0 166.5V168.0Q333.0 170.5 335.0 172.75Q337.0 175.0 337.5 175.0Q341.5 175.0 342.5 177.75Q343.5 180.5 343.5 183.5Q345.5 187.0 354.25 194.75Q363.0 202.5 374.0 210.5L406.5 231.5L423.0 214.5Q430.0 206.0 439.5 193.75Q449.0 181.5 456.0 172.0Q462.5 161.5 469.0 153.0Q475.5 144.5 478.0 143.5H478.5Q481.0 143.5 484.25 148.75Q487.5 154.0 488.5 163.0Q489.5 170.5 496.5 184.75Q503.5 199.0 513.75 213.5Q524.0 228.0 534.25 238.25Q544.5 248.5 551.5 248.5Q553.0 248.5 555.0 244.0Q560.0 236.0 566.0 236.0Q569.0 236.0 569.5 237.5Q573.0 234.0 573.0 214.0Q573.0 205.5 570.25 191.5Q567.5 177.5 562.5 162.5Q557.5 147.5 551.5 135.5Q545.5 123.5 539.0 119.0Q532.5 114.0 532.5 110.0Q532.5 100.5 566.5 99.0L594.5 97.5L610.5 66.5Q617.5 53.5 624.0 40.25Q630.5 27.0 631.5 21.5Z" fill="black" /></svg>