<svg xmlns="http://www.w3.org/2000/svg" width="729.0" height="383.0" viewBox="0 0 729.0 383.0"><path d="M93.5 260.5Q79.5 257.5 65.75 253.75Q52.0 250.0 45.5 247.0Q37.5 242.5 35.0 242.5V248.0Q35.0 250.0 34.75 252.0Q34.5 254.0 34.5 256.5Q34.0 260.0 34.0 263.75Q34.0 267.5 33.5 271.5L33.0 277.0L30.0 295.0L47.5 288.5Q64.5 280.5 82.75 274.75Q101.0 269.0 119.5 265.5Q117.5 265.0 116.0 264.75Q114.5 264.5 112.5 264.0L110.0 263.5Q102.0 262.5 93.5 260.5ZM173.0 208.5V201.5Q172.5 201.5 172.0 202.0Q171.5 202.5 170.5 203.0Q169.5 203.5 168.25 204.75Q167.0 206.0 165.5 207.0L164.5 207.5Q156.0 214.5 156.0 216.5Q156.0 216.5 158.0 216.75Q160.0 217.0 164.0 217.0Q169.5 217.0 171.25 215.25Q173.0 213.5 173.0 208.5ZM245.5 158.5Q245.0 157.0 240.5 156.25Q236.0 155.5 230.5 155.5Q216.5 155.5 209.0 166.0Q200.0 179.0 194.5 189.5Q189.0 200.0 188.0 208.5L199.0 201.5Q209.0 194.5 219.5 185.5Q230.0 176.5 237.5 168.75Q245.0 161.0 245.5 158.5ZM226.0 208.0Q232.5 208.0 234.25 202.25Q236.0 196.5 236.0 191.5Q235.0 191.5 230.75 195.0Q226.5 198.5 222.5 202.25Q218.5 206.0 218.5 207.5Q218.5 207.5 220.5 207.75Q222.5 208.0 226.0 208.0ZM213.5 222.0 188.0 215.0Q190.0 231.5 210.0 244.5Q221.5 252.0 229.75 254.5Q238.0 257.0 255.0 257.0Q266.5 257.0 271.25 257.0Q276.0 257.0 276.0 256.5Q276.0 256.0 275.0 255.0Q268.0 246.5 250.25 237.0Q232.5 227.5 213.5 222.0ZM263.5 133.0Q264.5 129.0 265.25 126.0Q266.0 123.0 266.5 121.0Q261.5 123.0 252.25 130.5Q243.0 138.0 240.0 142.0Q242.5 142.5 246.25 143.25Q250.0 144.0 253.0 145.0H254.5L255.5 145.5Q259.0 145.5 263.5 133.0ZM314.0 193.5Q308.0 189.5 298.25 183.5Q288.5 177.5 281.5 174.0L265.0 165.5Q261.5 173.0 257.5 182.0Q250.0 194.0 250.0 205.0Q250.0 219.5 267.0 230.5Q272.5 234.0 279.5 239.5Q286.5 245.0 290.0 249.0L292.0 251.0Q295.0 255.0 296.5 255.0Q299.5 255.0 306.0 248.0Q312.5 241.0 319.75 231.75Q327.0 222.5 332.0 214.5Q337.0 206.5 337.0 205.0Q330.5 202.5 325.25 200.0Q320.0 197.5 314.0 193.5ZM361.0 233.0Q356.5 225.0 353.0 219.0Q349.5 213.0 348.5 213.0Q347.5 213.0 343.0 219.25Q338.5 225.5 334.25 232.75Q330.0 240.0 329.0 243.0Q332.5 244.0 340.5 245.5Q348.5 247.0 357.25 248.5Q366.0 250.0 370.5 250.5Q368.0 244.0 361.0 233.0ZM414.0 188.0Q412.5 185.0 409.75 179.5Q407.0 174.0 403.5 167.5L393.0 149.0L374.5 176.0L393.5 182.5L402.5 185.0Q410.0 186.5 414.0 188.0ZM428.5 209.5Q391.0 193.0 372.5 193.0Q361.0 193.0 361.0 199.5Q361.0 206.5 367.75 218.75Q374.5 231.0 384.5 243.75Q394.5 256.5 405.0 265.25Q415.5 274.0 423.0 274.0Q423.5 274.0 424.25 273.75Q425.0 273.5 425.5 273.5Q428.0 271.5 433.25 264.5Q438.5 257.5 443.75 249.0Q449.0 240.5 452.75 233.25Q456.5 226.0 456.5 223.5Q456.5 223.0 448.25 218.75Q440.0 214.5 428.5 209.5ZM474.5 228.5V227.0Q472.0 228.0 467.0 236.25Q462.0 244.5 457.75 253.5Q453.5 262.5 452.5 266.0H488.5Q499.5 266.0 509.0 266.25Q518.5 266.5 524.5 267.5Q520.5 264.5 515.0 260.75Q509.5 257.0 502.5 252.5Q491.5 245.5 483.0 238.25Q474.5 231.0 474.5 228.5ZM569.5 252.0V251.5Q568.5 249.0 565.5 249.0Q563.5 249.0 563.5 250.5Q563.5 252.5 568.5 252.5Q569.5 252.5 569.5 252.0ZM487.5 116.5 494.0 98.0H468.0L473.5 111.0Q481.5 128.5 482.5 128.5Q483.0 128.5 487.5 116.5ZM569.5 209.5Q570.0 209.5 570.0 208.5Q569.5 208.5 566.5 208.75Q563.5 209.0 563.5 210.5Q563.5 212.5 565.5 212.5Q567.5 212.5 569.5 209.5ZM661.0 284.5V257.5L629.0 258.5Q601.0 259.0 583.5 262.5Q566.0 266.0 566.0 270.5Q566.0 272.0 571.5 275.0Q575.0 277.0 584.5 281.25Q594.0 285.5 606.25 290.25Q618.5 295.0 630.0 299.5Q641.5 304.0 649.75 307.0Q658.0 310.0 659.0 310.0Q660.0 310.0 660.5 302.75Q661.0 295.5 661.0 284.5ZM571.5 124.0Q570.5 124.5 567.5 124.5Q566.5 124.5 565.5 125.5Q566.5 125.5 567.0 125.75Q567.5 126.0 568.0 126.0Q571.0 126.0 571.5 124.0ZM608.0 101.0Q587.0 91.5 574.5 88.0Q562.0 84.5 547.5 84.5Q532.0 84.5 526.0 87.25Q520.0 90.0 513.0 98.5Q504.0 110.5 498.5 133.25Q493.0 156.0 489.5 191.0L486.5 225.5L514.5 244.0Q525.5 251.0 535.25 256.25Q545.0 261.5 546.5 261.5Q547.5 261.5 548.5 257.75Q549.5 254.0 549.5 249.0Q549.5 239.5 551.0 235.75Q552.5 232.0 556.0 232.0Q558.5 232.0 560.0 232.5L561.0 233.0Q586.0 244.0 631.0 244.0H661.0L659.5 230.0L659.0 216.0L624.5 217.0Q609.0 217.5 594.5 219.25Q580.0 221.0 572.5 224.5Q566.0 227.0 559.75 229.0Q553.5 231.0 552.5 231.0Q550.5 231.0 549.5 227.0Q548.5 223.0 548.5 216.5V208.5Q549.5 199.0 551.0 192.5Q552.5 186.0 554.0 186.0Q555.0 186.0 560.0 188.0Q565.0 190.0 570.5 193.5Q575.5 195.5 587.25 197.5Q599.0 199.5 613.25 200.75Q627.5 202.0 639.0 202.0Q657.5 202.0 659.5 199.5Q660.5 198.5 660.5 195.0Q660.0 193.5 660.0 191.5Q660.0 189.5 659.5 187.5Q659.5 186.5 659.25 185.0Q659.0 183.5 659.0 182.5L657.0 168.5H626.5Q610.5 168.5 598.5 170.75Q586.5 173.0 576.5 177.5L569.5 180.5Q565.0 182.5 561.25 183.75Q557.5 185.0 556.5 185.0L554.5 184.5Q554.0 183.0 553.25 172.0Q552.5 161.0 552.25 147.0Q552.0 133.0 552.0 122.5Q552.0 118.0 552.0 114.5Q552.0 111.0 552.5 109.0V107.0Q554.0 105.5 557.0 105.5Q561.0 105.5 570.5 109.0Q578.0 113.0 591.5 115.25Q605.0 117.5 619.5 118.25Q634.0 119.0 643.0 119.0Q640.5 117.0 630.25 111.75Q620.0 106.5 608.0 101.0ZM555.5 69.5 544.0 58.5Q538.5 53.0 533.75 48.75Q529.0 44.5 528.5 44.5Q528.0 44.5 525.75 49.75Q523.5 55.0 520.75 61.75Q518.0 68.5 516.5 73.0Q517.5 73.0 518.0 73.0Q518.5 73.0 519.0 73.0L523.0 72.5Q525.5 72.0 529.5 71.75Q533.5 71.5 537.5 71.0ZM623.5 155.0 655.0 155.5 651.5 133.5H619.0Q595.0 133.5 582.25 136.5Q569.5 139.5 569.5 144.0V145.0Q572.0 149.5 584.25 152.0Q596.5 154.5 623.5 155.0ZM681.0 78.0 684.5 68.0 665.0 66.5Q662.0 66.0 659.75 66.0Q657.5 66.0 655.0 66.0H644.0Q644.5 68.0 646.75 75.25Q649.0 82.5 652.5 91.5Q654.0 95.5 655.5 100.25Q657.0 105.0 658.5 110.0Q659.5 113.5 660.5 117.5Q661.5 121.5 662.5 124.5L664.0 130.0Q665.5 140.0 666.5 140.0Q668.5 140.0 671.0 117.5Q672.0 107.5 675.0 96.0Q678.0 84.5 681.0 78.0ZM525.0 19.5Q526.5 10.0 532.5 10.0Q538.5 10.0 538.5 18.5Q541.0 35.5 557.25 51.5Q573.5 67.5 606.0 83.5Q629.5 96.5 637.0 96.5Q639.0 96.5 639.0 95.0Q639.0 92.5 637.0 87.75Q635.0 83.0 632.5 77.5Q627.5 69.0 624.25 61.0Q621.0 53.0 621.0 51.0Q621.0 47.5 627.5 47.5Q633.0 47.5 644.5 50.0Q649.5 51.0 654.25 51.5Q659.0 52.0 663.5 52.0Q668.5 52.0 673.5 51.5Q678.5 51.0 683.5 50.0Q689.5 48.5 694.75 47.75Q700.0 47.0 702.5 47.0Q711.0 47.0 711.0 52.5Q711.0 57.0 703.0 66.5Q695.5 77.0 690.5 95.5Q685.5 114.0 682.5 136.5Q679.5 159.0 678.0 182.5Q676.5 206.0 676.0 226.75Q675.5 247.5 675.5 262.0L677.0 317.5L696.0 323.5Q705.5 326.0 712.25 330.25Q719.0 334.5 719.0 336.0Q719.0 341.0 711.5 341.0Q707.5 341.0 700.0 339.5Q692.5 338.0 681.5 335.5L679.0 335.0Q678.5 335.0 677.75 334.75Q677.0 334.5 676.5 334.5Q675.0 334.5 674.75 337.75Q674.5 341.0 674.5 350.5Q674.5 373.0 668.5 373.0Q662.0 373.0 659.5 347.5L659.0 326.5L617.5 309.0Q580.0 294.0 548.0 287.0Q516.0 280.0 481.5 280.0Q440.0 280.0 440.0 284.0Q440.0 286.0 445.25 290.25Q450.5 294.5 459.0 300.0Q468.5 305.5 475.0 311.25Q481.5 317.0 481.5 319.5Q481.5 321.5 479.0 322.5H478.0Q474.5 322.5 463.0 316.75Q451.5 311.0 438.5 302.0Q422.0 292.0 405.5 283.5Q389.0 275.0 376.25 269.75Q363.5 264.5 357.5 264.5Q355.5 264.5 355.5 265.0Q354.0 267.5 325.75 269.5Q297.5 271.5 246.0 272.5Q203.0 273.5 172.25 275.5Q141.5 277.5 119.0 281.5Q96.5 285.5 78.0 291.75Q59.5 298.0 41.5 307.5Q32.0 312.5 23.5 316.0Q15.0 319.5 12.5 319.5L10.0 319.0V316.5Q10.0 314.0 11.25 307.5Q12.5 301.0 15.0 294.5Q17.5 287.5 19.0 278.75Q20.5 270.0 20.5 260.5Q20.5 257.0 20.25 253.5Q20.0 250.0 19.5 246.5V234.5Q19.5 224.5 20.5 218.5Q21.5 212.5 24.5 212.5Q30.5 212.5 30.5 219.0Q30.5 226.5 50.0 234.0Q69.5 241.5 101.0 247.25Q132.5 253.0 168.5 255.5L204.0 257.5L191.5 249.5Q183.5 244.0 173.25 239.25Q163.0 234.5 157.0 232.5Q155.0 232.5 147.25 231.25Q139.5 230.0 132.5 227.5Q125.5 225.0 125.5 221.5Q125.5 217.0 137.0 210.0Q143.0 207.0 154.5 197.0Q166.0 187.0 179.5 173.75Q193.0 160.5 204.5 148.5Q207.0 146.0 215.25 140.25Q223.5 134.5 231.5 129.0Q239.5 123.5 253.5 113.25Q267.5 103.0 278.5 93.5Q291.5 83.5 299.5 78.5Q307.5 73.5 310.0 73.0Q313.5 74.0 313.5 76.5Q313.5 79.5 304.5 91.0Q292.0 106.5 284.5 119.75Q277.0 133.0 277.0 139.5V141.0Q278.0 143.0 279.5 144.75Q281.0 146.5 281.5 146.5Q284.5 146.5 285.5 148.75Q286.5 151.0 286.5 153.5Q288.0 157.0 295.25 163.25Q302.5 169.5 312.0 176.0L339.0 193.5L352.5 179.0Q358.0 172.0 366.0 162.0Q374.0 152.0 379.5 144.0Q385.0 135.5 390.5 128.25Q396.0 121.0 398.0 120.5H398.5Q400.5 120.5 403.25 124.75Q406.0 129.0 406.5 136.5Q407.5 143.0 413.25 154.5Q419.0 166.0 427.5 178.25Q436.0 190.5 444.5 199.0Q453.0 207.5 459.0 207.5Q460.0 207.5 461.5 203.5Q465.5 197.0 470.5 197.0Q472.5 197.0 473.5 198.0Q474.5 197.0 475.5 191.5Q476.5 186.0 476.5 178.5Q476.5 171.5 474.25 160.0Q472.0 148.5 467.75 136.0Q463.5 123.5 458.75 113.5Q454.0 103.5 448.5 100.0Q443.0 97.0 443.0 92.5Q443.0 85.0 471.0 83.5L494.5 82.0L507.5 56.5Q513.0 46.0 518.5 35.0Q524.0 24.0 525.0 19.5Z" fill="black" /></svg>