<svg xmlns="http://www.w3.org/2000/svg" width="645.0" height="459.5" viewBox="0 0 645.0 459.5"><path d="M47.0 221.0Q40.5 216.0 37.5 216.0Q35.0 216.0 35.0 232.0V241.0L36.5 264.0L47.0 257.5Q54.0 252.0 65.0 247.5Q76.0 243.0 84.0 240.5L89.5 238.0L80.5 235.5Q71.0 232.5 61.5 228.5Q52.0 224.5 47.0 221.0ZM111.5 321.0 118.5 310.5H94.5Q95.0 312.0 97.25 316.5Q99.5 321.0 102.0 325.0Q104.5 329.0 105.0 329.0Q106.0 329.0 107.5 326.75Q109.0 324.5 111.5 321.0ZM374.5 222.0H375.0Q372.0 222.5 367.0 225.75Q362.0 229.0 353.5 233.5L335.5 246.5L343.0 250.0Q349.5 252.5 354.0 254.5Q358.5 256.5 361.5 256.5Q365.5 256.5 368.0 246.5Q369.0 240.0 370.75 233.25Q372.5 226.5 374.5 222.0ZM415.5 185.5 400.5 181.0V191.5L402.5 190.0Q405.0 189.0 407.75 188.0Q410.5 187.0 413.5 186.0Q413.5 186.0 412.75 186.0Q412.0 186.0 415.5 185.5ZM402.0 246.0 421.0 238.0 402.0 232.0ZM532.0 200.5Q532.0 197.0 525.0 196.25Q518.0 195.5 492.5 195.5H475.0Q459.0 196.0 446.75 197.0Q434.5 198.0 424.5 203.5L405.0 210.0Q406.0 211.0 407.0 212.75Q408.0 214.5 410.5 215.5Q418.5 219.5 434.0 223.0Q449.5 226.5 464.5 226.5Q495.5 226.5 513.75 219.75Q532.0 213.0 532.0 200.5ZM539.5 226.0 540.5 224.5Q533.5 227.5 524.0 233.25Q514.5 239.0 506.5 244.0Q498.5 249.0 495.0 251.5Q495.5 252.0 500.0 252.0L503.0 252.5Q504.0 253.0 505.25 253.25Q506.5 253.5 508.5 254.0Q509.5 254.0 511.0 254.75Q512.5 255.5 514.5 256.5Q516.0 257.0 517.25 257.25Q518.5 257.5 519.5 257.5Q521.0 258.0 523.0 258.25Q525.0 258.5 525.5 259.5Q526.5 260.0 528.25 260.0Q530.0 260.0 530.5 260.0Q532.0 260.0 532.0 253.0Q532.0 247.5 534.0 239.25Q536.0 231.0 539.5 226.0ZM392.5 44.5 397.5 42.0Q397.5 41.0 389.5 40.75Q381.5 40.5 370.5 40.5Q362.5 40.5 355.75 40.0Q349.0 39.5 346.5 39.0Q347.5 42.0 349.0 43.5Q354.5 54.0 358.5 65.0Q362.5 71.5 365.25 77.5Q368.0 83.5 369.0 86.5Q369.5 85.0 370.25 82.25Q371.0 79.5 372.5 76.0L374.5 70.5Q378.5 62.0 383.5 54.5Q388.5 47.0 392.5 44.5ZM406.0 87.5 422.0 80.5 406.0 75.0ZM422.0 132.5 406.5 127.0 408.5 138.5ZM390.0 117.0 389.5 105.5Q389.0 98.0 389.0 92.75Q389.0 87.5 388.5 84.5Q386.5 90.0 385.5 103.5Q384.5 117.0 384.5 133.0Q384.5 139.5 384.5 145.75Q384.5 152.0 384.5 158.5Q387.0 157.0 389.5 157.0Q392.0 157.0 396.0 159.0L399.0 160.0Q409.0 165.0 423.5 171.25Q438.0 177.5 450.5 177.5H494.0L532.0 176.5L529.0 138.5H487.0Q467.5 138.5 454.25 141.0Q441.0 143.5 424.0 152.0Q416.0 154.5 409.25 156.75Q402.5 159.0 400.0 159.0Q394.5 159.0 393.5 156.0L394.0 155.5Q392.0 151.0 391.0 140.25Q390.0 129.5 390.0 117.0ZM517.0 84.5H515.0L457.0 86.5Q450.0 87.0 438.75 91.75Q427.5 96.5 418.75 101.0Q410.0 105.5 410.0 106.5Q410.0 110.0 416.25 113.0Q422.5 116.0 431.75 117.75Q441.0 119.5 450.0 120.5Q459.0 121.5 464.5 121.5L529.0 121.0Q528.0 108.0 525.0 94.5Q519.5 84.5 517.0 84.5ZM558.5 34.0 561.5 31.0H514.0L525.0 47.5Q534.0 66.5 537.0 66.5Q537.0 66.5 541.5 57.5Q545.0 52.5 549.75 45.5Q554.5 38.5 558.5 34.0ZM481.5 15.0Q481.5 10.0 494.5 10.0Q504.5 10.0 520.5 10.75Q536.5 11.5 552.75 12.5Q569.0 13.5 580.75 14.75Q592.5 16.0 593.0 17.0L593.5 19.5Q593.5 22.0 588.25 30.0Q583.0 38.0 574.5 47.0Q566.0 55.5 559.75 65.75Q553.5 76.0 552.5 83.0Q551.0 90.5 550.0 106.0Q549.0 121.5 549.0 137.5Q549.0 157.5 549.5 174.5Q550.0 191.5 550.5 196.0Q553.0 194.5 558.5 190.5Q564.0 186.5 569.5 182.0Q575.5 177.0 580.75 173.5Q586.0 170.0 589.0 170.0Q591.0 170.0 592.75 172.0Q594.5 174.0 594.5 177.0Q594.5 181.0 592.25 185.75Q590.0 190.5 587.5 192.5Q583.0 195.0 576.75 203.75Q570.5 212.5 564.0 223.5Q557.5 234.5 553.25 244.25Q549.0 254.0 548.5 258.5V260.0Q549.0 262.0 549.75 264.25Q550.5 266.5 551.0 266.5Q558.0 266.5 558.0 273.0Q558.0 273.5 558.0 274.75Q558.0 276.0 557.5 277.0V277.5Q557.5 278.5 561.0 282.75Q564.5 287.0 569.5 291.0Q598.0 315.5 616.25 334.5Q634.5 353.5 635.0 358.0Q634.5 362.0 631.5 363.5H631.0Q627.5 363.5 615.5 355.25Q603.5 347.0 590.0 334.5Q568.0 314.0 551.0 301.5Q534.0 289.0 518.75 281.5Q503.5 274.0 485.0 268.0L477.5 265.0Q466.0 260.0 460.5 257.5Q455.0 255.0 455.0 251.5Q455.0 248.5 457.5 246.0Q451.0 246.0 440.25 249.5Q429.5 253.0 421.0 257.5L417.5 258.5Q409.5 262.0 403.5 264.25Q397.5 266.5 393.0 266.5Q391.0 266.5 388.0 265.5Q389.5 269.0 390.5 271.5Q391.5 274.0 391.5 275.5V276.5Q393.0 278.0 402.5 286.0Q412.0 294.0 424.5 304.5Q444.0 320.5 456.25 334.25Q468.5 348.0 468.5 353.0Q468.5 358.5 462.5 358.5Q460.0 358.5 451.25 352.0Q442.5 345.5 431.0 336.0Q404.5 312.0 383.5 296.75Q362.5 281.5 343.5 273.0Q324.5 264.5 303.75 260.75Q283.0 257.0 256.75 256.25Q230.5 255.5 195.0 255.5Q169.5 255.5 146.0 256.0Q122.5 256.5 106.0 257.25Q89.5 258.0 84.0 259.5Q77.5 261.5 67.0 267.5Q56.5 273.5 49.5 279.0Q41.5 286.0 34.0 290.75Q26.5 295.5 25.5 295.5Q22.5 295.5 20.0 284.0Q17.5 272.5 17.5 256.5Q17.5 242.5 16.0 228.75Q14.5 215.0 13.5 208.5Q10.0 201.5 10.0 195.5Q10.0 193.5 10.75 191.0Q11.5 188.5 13.5 187.5H14.5Q17.0 187.5 25.5 190.75Q34.0 194.0 43.0 198.0Q62.0 208.5 79.25 215.0Q96.5 221.5 115.75 225.75Q135.0 230.0 160.25 232.0Q185.5 234.0 220.5 235.5L309.5 237.5L368.0 206.0L366.0 161.5Q361.5 95.5 329.5 51.5Q324.5 44.5 320.5 37.75Q316.5 31.0 316.5 28.5Q316.5 24.5 330.75 22.75Q345.0 21.0 363.5 21.0Q378.0 21.0 392.5 21.75Q407.0 22.5 417.75 23.75Q428.5 25.0 430.5 27.0V29.0Q430.5 31.5 426.5 36.75Q422.5 42.0 417.0 47.0L406.5 55.0L413.5 60.0Q420.0 63.5 432.0 65.5Q444.0 67.5 468.5 67.5Q488.5 67.5 499.5 67.25Q510.5 67.0 510.5 66.5Q510.5 64.5 506.75 57.0Q503.0 49.5 497.0 41.0Q490.5 32.0 486.0 24.5Q481.5 17.0 481.5 15.0ZM63.0 300.0Q63.0 297.5 76.75 294.25Q90.5 291.0 109.0 291.0Q128.5 291.0 141.75 293.25Q155.0 295.5 155.0 299.0Q155.0 300.0 152.5 303.5Q150.0 307.0 146.0 312.0Q144.0 314.0 141.75 316.25Q139.5 318.5 138.0 321.5L120.0 336.0V389.5Q120.0 416.5 117.75 433.0Q115.5 449.5 111.5 449.5Q107.5 449.5 105.0 436.25Q102.5 423.0 102.5 402.5Q102.5 375.5 96.5 354.5Q90.5 333.5 71.0 314.0Q68.0 310.5 65.5 306.25Q63.0 302.0 63.0 300.0Z" fill="black" /></svg>