<svg xmlns="http://www.w3.org/2000/svg" width="576.5" height="384.0" viewBox="0 0 576.5 384.0"><path d="M33.0 304.5 33.5 304.0Q36.0 300.5 36.0 299.5Q36.0 298.5 33.5 296.5Q33.0 295.5 33.0 295.75Q33.0 296.0 33.0 296.0ZM59.0 222.0Q56.5 222.0 53.0 221.5Q49.5 221.0 47.0 220.0L45.5 219.5Q45.0 219.5 44.5 219.25Q44.0 219.0 43.5 219.0Q42.0 219.0 42.0 224.0Q42.0 232.0 44.0 232.0Q47.0 232.0 52.25 228.5Q57.5 225.0 59.0 222.0ZM129.0 287.5V287.0Q127.5 284.0 124.0 284.0Q122.0 284.0 122.0 286.0Q122.0 288.0 128.0 288.0ZM132.0 308.5 142.0 302.5H133.0Q123.5 302.5 120.75 304.0Q118.0 305.5 118.0 309.5V316.0Q120.0 316.0 132.0 308.5ZM53.0 157.0Q56.0 154.5 56.0 153.5Q56.0 153.0 53.0 150.0Q52.5 148.5 51.5 148.5V154.0Q51.5 155.5 51.5 156.5Q51.5 157.5 51.5 158.5Q52.0 158.0 52.25 157.75Q52.5 157.5 53.0 157.0ZM125.5 178.0 128.5 151.0H74.5L61.0 172.0Q55.0 182.0 51.5 188.5Q48.0 195.0 48.0 199.0Q48.0 203.5 58.5 206.5Q63.5 208.0 73.5 208.75Q83.5 209.5 93.5 209.5Q104.0 209.5 111.75 208.75Q119.5 208.0 120.0 207.0Q121.0 206.0 122.75 198.0Q124.5 190.0 125.5 178.0ZM85.0 75.0 81.0 74.0Q77.5 73.0 74.5 72.5Q71.5 72.0 69.0 72.0Q61.5 72.0 61.5 83.0V86.5Q64.5 86.5 77.0 81.0Q88.5 76.0 88.5 76.0Q88.0 75.5 87.0 75.5Q86.0 75.5 85.0 75.0ZM156.0 152.5Q156.0 151.0 154.0 151.0Q150.0 151.0 146.5 155.0Q143.0 159.0 142.0 163.0Q145.5 161.5 150.75 157.75Q156.0 154.0 156.0 152.5ZM295.0 226.5 294.5 226.0Q294.0 224.5 271.75 223.25Q249.5 222.0 212.0 222.0H199.5Q163.0 222.0 138.75 223.25Q114.5 224.5 98.5 227.25Q82.5 230.0 71.5 234.75Q60.5 239.5 50.0 247.0Q43.5 251.0 40.25 257.5Q37.0 264.0 37.0 271.0Q37.0 278.0 43.0 282.5Q45.0 283.5 51.75 284.25Q58.5 285.0 67.0 285.0Q68.5 285.0 70.0 285.0Q71.5 285.0 73.0 284.5H79.5L108.0 283.0V269.5Q108.0 251.0 115.0 251.0Q120.0 251.0 126.0 263.5Q129.0 269.5 136.5 273.25Q144.0 277.0 161.5 278.75Q179.0 280.5 211.0 280.5Q244.5 280.5 300.0 279.0L422.0 276.5L375.5 257.0Q360.0 250.5 345.75 245.0Q331.5 239.5 321.5 235.75Q311.5 232.0 309.0 232.0Q305.5 232.0 301.0 230.25Q296.5 228.5 295.0 226.5ZM360.0 233.0Q358.5 229.0 356.75 222.75Q355.0 216.5 354.0 210.0L352.5 197.0L340.0 205.0Q335.0 209.0 330.5 213.0Q326.0 217.0 326.0 218.0Q326.0 218.5 331.75 221.5Q337.5 224.5 345.0 228.5Q355.0 231.5 360.0 233.0ZM443.5 186.5 437.0 183.0Q434.5 181.5 432.0 180.0Q429.5 178.5 427.0 177.5Q424.5 176.0 422.0 174.5Q419.5 173.0 417.0 171.5L412.0 169.0Q406.0 165.5 402.25 163.25Q398.5 161.0 397.5 160.5Q397.0 161.0 394.75 163.5Q392.5 166.0 388.5 169.0Q380.0 177.0 374.5 187.25Q369.0 197.5 369.0 209.0Q369.0 221.5 385.0 236.5Q401.0 251.5 424.5 261.5Q434.5 266.0 441.75 270.25Q449.0 274.5 449.0 277.0Q449.0 277.5 455.0 278.25Q461.0 279.0 468.5 279.0H488.0L485.5 246.0Q484.5 231.5 482.75 220.0Q481.0 208.5 479.5 207.5Q478.5 205.5 468.0 199.75Q457.5 194.0 443.5 186.5ZM265.5 132.5 355.5 131.5 414.5 76.5H279.0Q231.5 76.5 202.0 76.75Q172.5 77.0 155.25 78.0Q138.0 79.0 127.5 80.75Q117.0 82.5 107.0 85.5Q80.0 95.0 68.75 102.0Q57.5 109.0 57.5 119.0V123.0L59.0 134.0L131.5 137.0V123.0Q131.5 104.5 139.5 104.5Q145.5 104.5 148.5 117.0Q151.5 127.5 161.5 131.0Q165.5 131.5 181.75 132.25Q198.0 133.0 220.5 133.0Q230.5 133.0 242.0 133.0Q253.5 133.0 265.5 132.5ZM375.0 150.5Q369.0 149.5 348.0 148.5Q327.0 147.5 296.0 147.5H280.5Q244.0 147.5 224.5 148.5Q205.0 149.5 195.25 151.25Q185.5 153.0 178.5 156.5Q169.5 161.5 160.25 170.0Q151.0 178.5 144.0 187.25Q137.0 196.0 135.5 202.0Q135.0 203.0 135.0 204.0Q135.0 205.5 141.25 206.5Q147.5 207.5 166.0 207.75Q184.5 208.0 221.5 208.0H312.5L332.5 193.5Q333.5 192.5 335.5 191.0Q337.5 189.5 338.5 188.5Q339.5 187.5 340.75 186.5Q342.0 185.5 342.5 185.0L346.0 182.5Q352.5 177.5 358.5 173.0Q364.5 168.5 368.0 165.0Q373.5 160.5 376.0 158.0Q378.5 155.5 379.0 154.0Q378.0 153.5 375.0 150.5ZM409.5 119.0Q409.5 118.0 409.5 111.5Q409.5 105.0 410.0 101.5Q405.5 105.0 396.75 113.25Q388.0 121.5 381.0 128.5Q374.0 135.5 374.0 136.5Q381.5 138.5 388.5 140.75Q395.5 143.0 403.0 147.0Q407.0 149.0 409.75 150.5Q412.5 152.0 414.0 153.0L413.0 151.5Q411.5 147.5 410.5 138.0Q409.5 128.5 409.5 119.0ZM476.5 81.5Q476.5 75.5 475.75 67.0Q475.0 58.5 471.5 53.5L466.5 43.5L452.5 60.0Q440.0 74.0 431.0 90.25Q422.0 106.5 422.0 126.0Q422.0 131.5 424.5 137.25Q427.0 143.0 431.5 151.0Q435.0 155.5 443.75 164.25Q452.5 173.0 462.25 180.25Q472.0 187.5 477.5 187.5Q477.5 177.0 473.75 162.75Q470.0 148.5 463.5 135.25Q457.0 122.0 448.5 115.5Q443.5 110.5 439.0 105.75Q434.5 101.0 434.5 99.5Q434.5 95.0 449.0 95.0Q451.0 95.0 453.5 95.0Q456.0 95.0 458.0 95.5Q461.0 96.0 463.5 96.0Q466.0 96.0 468.0 96.0Q473.5 96.0 474.75 93.0Q476.0 90.0 476.5 81.5ZM518.0 118.0 520.0 114.0H469.5L478.0 130.5Q482.0 139.0 485.25 150.75Q488.5 162.5 490.0 171.0Q493.0 191.0 495.0 191.0Q496.0 191.0 497.0 186.75Q498.0 182.5 499.0 176.0Q501.0 161.0 506.25 146.25Q511.5 131.5 518.0 118.0ZM506.0 41.5 518.5 28.5H474.5L483.0 43.0Q485.5 48.0 488.25 53.25Q491.0 58.5 491.0 58.5Q495.0 54.5 498.75 50.25Q502.5 46.0 506.0 41.5ZM489.0 12.5Q512.5 11.5 532.0 11.0Q551.5 10.5 556.0 10.0H559.0Q566.5 10.0 566.5 16.0Q566.5 19.0 562.75 23.0Q559.0 27.0 552.5 28.0Q545.0 29.0 534.75 36.5Q524.5 44.0 514.75 54.75Q505.0 65.5 498.5 76.5Q492.0 87.5 492.0 95.0Q492.0 97.0 495.75 98.25Q499.5 99.5 504.5 99.5Q510.0 99.5 517.5 97.5Q525.0 95.5 530.0 92.0Q537.0 86.5 542.5 86.5Q546.5 86.5 549.5 89.5Q552.5 92.5 552.5 96.5Q552.5 100.5 546.5 104.5Q540.5 108.0 534.0 120.75Q527.5 133.5 521.75 151.25Q516.0 169.0 511.5 189.0Q507.0 209.0 504.25 227.75Q501.5 246.5 501.5 260.5Q501.5 278.0 506.0 280.5Q508.5 281.0 509.5 282.75Q510.5 284.5 511.0 285.5Q510.5 288.0 506.0 291.5Q504.0 293.0 503.0 296.5Q502.0 300.0 502.0 308.0Q502.0 316.5 503.5 332.5Q504.0 337.5 504.25 342.75Q504.5 348.0 504.5 352.5Q504.5 362.0 503.25 368.0Q502.0 374.0 499.5 374.0Q496.0 374.0 493.25 365.25Q490.5 356.5 488.75 342.75Q487.0 329.0 487.0 313.5V292.5H204.5L174.0 306.0Q146.0 318.5 128.0 329.75Q110.0 341.0 106.0 349.5Q103.5 359.0 100.5 359.0Q98.0 359.0 95.5 355.0L94.5 354.0Q94.0 352.0 93.25 350.0Q92.5 348.0 92.5 346.0Q92.5 340.5 96.5 331.5Q103.5 320.0 103.5 307.5Q103.5 300.5 100.25 299.25Q97.0 298.0 82.5 298.0Q68.5 298.0 62.0 300.5Q55.5 303.0 49.0 310.0Q44.5 315.0 39.0 324.25Q33.5 333.5 30.5 340.5Q21.0 359.5 14.5 359.5Q10.0 359.5 10.0 352.0Q10.0 350.5 10.25 348.0Q10.5 345.5 11.0 343.0Q12.0 337.0 14.5 320.75Q17.0 304.5 18.5 288.5Q20.5 271.0 23.0 249.25Q25.5 227.5 27.5 214.5Q29.5 202.0 31.75 181.25Q34.0 160.5 35.5 144.0Q37.0 127.0 38.75 113.25Q40.5 99.5 42.5 97.5Q44.0 95.5 46.0 87.0Q48.0 78.5 49.5 69.5Q50.5 59.0 53.25 50.5Q56.0 42.0 59.5 42.0Q63.0 42.0 64.5 44.5Q66.0 47.0 66.0 49.5Q66.0 53.0 72.25 55.25Q78.5 57.5 94.75 59.0Q111.0 60.5 141.25 61.0Q171.5 61.5 219.5 61.5H428.5L441.0 49.0Q446.5 43.5 449.5 40.0Q452.5 36.5 452.5 34.5Q452.5 31.5 441.5 30.0Q425.0 26.0 425.0 22.0Q425.0 18.0 442.0 15.5Q459.0 13.0 489.0 12.5Z" fill="black" /></svg>