<svg xmlns="http://www.w3.org/2000/svg" width="627.0" height="465.0" viewBox="0 0 627.0 465.0"><path d="M83.0 316.5Q83.0 310.5 75.75 306.0Q68.5 301.5 60.0 299.0Q51.5 296.5 46.5 296.5Q47.0 297.5 47.0 300.0Q47.0 302.5 47.0 306.0Q47.0 307.0 47.0 309.0Q47.0 311.0 47.5 312.5V321.0L49.5 342.5L64.0 334.5Q83.0 326.0 83.0 316.5ZM146.5 315.5Q143.0 314.5 135.25 313.25Q127.5 312.0 119.0 312.0Q106.0 312.0 102.25 313.25Q98.5 314.5 98.5 319.5Q98.5 324.5 100.0 324.5Q101.0 324.5 104.0 323.5Q106.5 322.5 115.75 320.5Q125.0 318.5 133.5 318.0Q136.0 317.0 138.0 316.75Q140.0 316.5 142.0 316.0Q146.5 315.5 146.5 315.5ZM104.5 188.0 109.0 171.5H97.0Q84.5 171.5 84.5 173.5L85.0 174.0Q85.0 174.5 85.5 174.75Q86.0 175.0 86.0 176.0Q87.0 179.0 87.5 181.0Q87.5 182.5 88.5 186.5Q89.5 187.0 89.75 188.5Q90.0 190.0 90.5 191.0Q90.5 193.0 92.25 199.25Q94.0 205.5 95.5 205.5Q96.5 205.5 98.75 200.75Q101.0 196.0 104.5 188.0ZM122.5 196.0V190.5Q123.0 189.5 123.0 188.0Q123.0 186.5 123.0 186.0Q123.0 183.5 122.75 182.75Q122.5 182.0 122.5 181.5Q119.5 183.5 115.5 196.5Q111.5 209.5 107.75 225.75Q104.0 242.0 101.25 255.75Q98.5 269.5 98.5 274.0Q98.5 283.0 100.75 287.5Q103.0 292.0 110.75 293.75Q118.5 295.5 135.0 296.5L154.5 298.5L156.5 265.5Q156.5 259.5 156.0 249.0Q155.5 238.5 153.75 227.25Q152.0 216.0 148.25 207.5Q144.5 199.0 138.5 197.5Q138.5 201.0 136.0 204.0Q133.5 207.0 129.0 207.0Q125.0 207.0 123.75 204.0Q122.5 201.0 122.5 196.0ZM184.0 135.5Q174.0 133.5 163.25 130.25Q152.5 127.0 147.0 126.0L144.5 125.5Q143.5 125.0 142.75 124.75Q142.0 124.5 141.0 124.0Q139.5 123.5 139.0 123.5V124.0L139.5 126.0Q140.5 129.5 141.75 136.75Q143.0 144.0 143.0 149.5V158.5L164.5 149.0Q173.0 145.5 180.75 142.5Q188.5 139.5 194.5 137.5Q192.5 137.0 189.75 136.5Q187.0 136.0 184.0 135.5ZM181.5 187.0H155.0L161.0 198.5Q163.5 205.0 166.5 210.25Q169.5 215.5 170.5 216.0Q171.0 216.0 173.5 209.75Q176.0 203.5 178.5 196.5Q181.0 189.5 181.5 187.0ZM336.0 163.5 331.5 147.5 276.0 148.0Q244.0 148.0 224.5 150.0Q205.0 152.0 188.5 157.5Q156.0 169.0 156.0 170.0H165.0Q167.5 170.0 171.0 170.0Q174.5 170.0 179.0 169.5H192.0Q201.5 169.5 207.25 170.5Q213.0 171.5 213.0 174.0Q213.0 175.5 209.75 180.0Q206.5 184.5 202.5 189.0Q196.0 194.5 189.0 209.75Q182.0 225.0 177.0 243.0Q172.0 261.0 171.0 275.5L170.5 299.5L192.5 302.5Q200.0 303.0 214.5 303.5Q229.0 304.0 246.5 304.5Q264.0 305.0 281.0 305.0L341.0 306.0V245.0Q341.0 227.5 340.5 210.75Q340.0 194.0 338.75 181.25Q337.5 168.5 336.0 163.5ZM384.5 226.0Q373.5 203.0 368.0 203.0Q364.0 203.0 361.75 211.75Q359.5 220.5 358.75 232.5Q358.0 244.5 357.75 254.75Q357.5 265.0 357.5 268.0Q357.5 285.0 358.25 298.25Q359.0 311.5 360.0 311.5Q366.0 311.5 366.0 316.0Q366.0 318.5 361.5 324.0Q358.0 327.5 358.0 328.5Q358.0 328.5 359.25 329.0Q360.5 329.5 361.5 329.5Q366.0 329.5 377.0 327.0L393.5 323.5L395.5 286.0V274.0Q395.5 256.5 393.5 247.0Q391.5 237.5 384.5 226.0ZM366.5 133.0H354.0Q350.5 133.0 347.25 133.0Q344.0 133.0 342.0 132.5Q343.0 136.0 347.0 147.5Q351.0 159.0 355.0 170.0Q357.0 167.0 359.5 160.0Q362.0 153.0 364.0 145.25Q366.0 137.5 366.5 133.0ZM389.0 157.0Q382.5 143.5 381.0 143.5Q379.5 143.5 373.5 165.5Q372.5 169.0 371.5 172.25Q370.5 175.5 370.5 178.0Q370.5 182.0 377.75 185.75Q385.0 189.5 388.5 189.5Q396.0 189.5 396.0 179.0Q396.0 169.5 389.0 157.0ZM413.5 146.5Q413.5 146.0 413.75 145.5Q414.0 145.0 414.0 145.0Q413.0 142.5 405.5 142.5H400.0Q400.0 143.5 401.5 145.0Q404.0 147.0 406.5 148.75Q409.0 150.5 409.5 151.5Q411.5 149.5 413.5 146.5ZM420.0 213.5H420.5Q420.5 212.0 414.5 212.0Q410.5 212.0 409.25 214.25Q408.0 216.5 408.0 223.5Q408.0 235.0 410.0 235.0Q410.5 235.0 411.75 233.25Q413.0 231.5 413.5 229.5Q414.5 225.5 416.25 221.0Q418.0 216.5 420.0 213.5ZM534.0 189.0Q522.5 179.0 505.5 167.0Q488.5 155.0 477.0 147.5L452.0 133.5L435.0 149.0Q423.0 159.5 415.5 172.25Q408.0 185.0 408.0 194.5Q408.0 195.0 413.75 195.5Q419.5 196.0 427.5 196.0Q439.0 196.0 446.0 198.75Q453.0 201.5 453.0 206.5Q453.0 212.0 442.5 216.0Q437.0 217.5 431.0 227.75Q425.0 238.0 419.75 252.75Q414.5 267.5 411.0 282.0Q407.5 296.5 406.5 307.0Q407.5 310.0 408.0 312.75Q408.5 315.5 409.0 316.5H409.5Q421.0 316.5 438.0 310.75Q455.0 305.0 473.25 296.75Q491.5 288.5 507.5 280.0Q523.5 271.5 534.0 266.0Q558.0 254.0 574.25 245.0Q590.5 236.0 590.5 235.0L587.0 231.5Q585.0 230.5 583.25 228.25Q581.5 226.0 579.0 223.5Q573.5 220.5 563.75 212.75Q554.0 205.0 543.0 197.0Q542.5 196.0 542.0 195.25Q541.5 194.5 540.5 193.5Q539.0 192.5 537.5 191.25Q536.0 190.0 534.0 189.0ZM430.5 69.0Q423.5 50.0 417.5 47.5V50.0Q417.5 52.5 410.25 58.75Q403.0 65.0 394.0 71.0L376.5 82.5L420.0 102.5Q424.0 104.5 429.0 106.75Q434.0 109.0 438.0 111.5Q440.5 112.5 442.75 113.25Q445.0 114.0 446.5 115.0L449.0 115.5Q454.5 118.0 458.5 120.0Q462.5 122.0 465.5 123.5Q464.5 121.5 462.25 119.0Q460.0 116.5 457.5 113.5Q451.0 104.5 442.75 91.5Q434.5 78.5 430.5 69.0ZM436.0 328.0 437.0 327.5Q435.0 328.0 428.0 329.75Q421.0 331.5 414.5 334.0Q408.0 336.5 408.0 338.5Q408.0 344.0 400.5 344.0Q397.5 344.0 395.5 343.5Q395.5 343.0 392.5 343.0Q387.5 343.0 378.25 344.75Q369.0 346.5 358.0 348.0L324.5 356.5L339.0 370.0Q346.0 376.5 352.25 384.75Q358.5 393.0 360.0 398.5Q362.0 405.0 363.5 405.0Q366.0 405.0 374.0 388.5Q379.0 379.0 388.25 369.0Q397.5 359.0 408.5 350.0Q419.5 341.0 428.0 334.5Q432.5 331.5 436.0 328.0ZM413.5 29.5Q427.0 10.0 434.0 10.0Q440.5 10.0 440.5 18.5Q440.5 20.5 440.0 23.25Q439.5 26.0 438.5 29.5Q438.0 30.5 438.0 32.25Q438.0 34.0 438.0 35.0Q438.0 48.0 447.75 65.5Q457.5 83.0 473.75 103.0Q490.0 123.0 509.25 142.5Q528.5 162.0 548.0 179.0Q567.5 196.0 584.0 208.25Q600.5 220.5 610.5 225.0Q613.5 227.0 615.25 228.75Q617.0 230.5 617.0 233.5Q617.0 238.0 607.25 244.25Q597.5 250.5 572.5 264.5Q486.0 309.5 436.5 350.0Q387.0 390.5 376.5 422.5L366.5 455.0L348.0 415.0Q342.0 400.5 334.25 389.25Q326.5 378.0 321.0 375.0Q314.0 370.0 310.5 364.0Q307.0 358.0 307.0 353.0Q307.0 340.0 321.0 340.0Q329.5 340.0 335.0 337.0Q340.5 334.0 340.5 330.0Q340.5 328.0 340.0 327.5Q339.0 325.5 334.25 324.5Q329.5 323.5 317.5 323.0Q305.5 322.5 283.0 322.5Q265.0 322.5 238.75 324.25Q212.5 326.0 185.5 328.5Q158.5 331.0 136.75 333.75Q115.0 336.5 105.0 339.0Q103.0 339.5 100.75 341.25Q98.5 343.0 98.5 344.0Q98.5 350.0 91.0 350.0Q88.0 350.0 86.5 349.0L85.0 348.5Q83.5 348.0 80.0 348.0Q70.5 348.0 58.25 356.0Q46.0 364.0 40.5 375.5Q32.5 389.0 28.0 389.0Q23.5 389.0 23.5 381.0Q23.5 377.5 24.5 371.5Q25.5 365.5 27.0 358.0Q29.5 346.5 30.75 337.0Q32.0 327.5 32.0 321.0Q32.0 310.0 29.0 302.75Q26.0 295.5 20.0 289.0Q15.0 283.5 12.5 278.25Q10.0 273.0 10.0 271.0V270.0Q11.0 267.0 14.0 267.0Q16.5 267.0 23.0 269.25Q29.5 271.5 37.5 274.0Q46.5 278.5 56.5 282.25Q66.5 286.0 72.5 287.0L83.0 290.0V252.5Q83.0 228.0 80.0 215.0Q77.0 202.0 70.0 187.0Q66.0 177.0 61.0 169.25Q56.0 161.5 54.5 161.0Q46.0 157.5 46.0 154.5Q46.0 149.0 56.5 149.0Q60.5 149.0 65.0 149.75Q69.5 150.5 74.5 151.5Q79.0 153.5 84.5 154.25Q90.0 155.0 95.5 155.0Q107.0 155.0 115.5 151.25Q124.0 147.5 126.0 142.0V140.5Q126.0 136.0 123.5 128.5Q121.0 121.0 117.0 115.0Q115.0 109.0 113.25 104.75Q111.5 100.5 111.5 98.0Q111.5 93.0 116.5 93.0Q122.0 93.0 139.0 103.0Q149.5 108.5 170.75 113.5Q192.0 118.5 220.75 122.25Q249.5 126.0 282.0 129.0L324.0 132.0L297.0 103.0L323.0 109.0Q339.0 113.5 356.5 113.5Q362.5 113.5 368.75 113.0Q375.0 112.5 380.5 110.5Q386.5 108.5 390.5 108.5Q396.5 108.5 396.5 114.0V115.0Q396.5 115.5 396.25 116.0Q396.0 116.5 396.0 117.0Q395.5 117.5 395.5 118.5Q395.5 122.0 401.75 124.0Q408.0 126.0 418.5 126.0Q421.0 126.0 424.0 126.0Q427.0 126.0 430.0 125.5Q431.0 125.0 433.5 125.0Q430.5 123.5 422.25 120.25Q414.0 117.0 399.0 111.0Q379.5 102.5 366.25 94.0Q353.0 85.5 353.0 82.5V82.0Q353.5 78.5 361.25 72.75Q369.0 67.0 377.0 62.0Q386.0 57.5 396.5 47.75Q407.0 38.0 413.5 29.5Z" fill="black" /></svg>