<svg xmlns="http://www.w3.org/2000/svg" width="573.5" height="388.0" viewBox="0 0 573.5 388.0"><path d="M52.5 294.0Q52.0 294.0 52.0 294.0Q52.0 294.0 51.5 294.0Q50.0 294.0 49.0 293.5Q46.0 292.5 44.0 292.0H42.5Q41.0 291.5 40.0 291.25Q39.0 291.0 38.0 291.0H37.0Q37.0 292.0 38.25 294.25Q39.5 296.5 41.0 299.0L43.0 301.5Q44.0 302.0 44.25 302.5Q44.5 303.0 44.5 303.0Q45.0 303.0 49.5 296.5V297.0Q50.5 296.0 51.25 295.25Q52.0 294.5 52.5 294.0ZM67.5 222.0V221.5L64.0 220.0Q60.5 218.0 58.0 216.75Q55.5 215.5 54.5 215.5Q52.0 215.5 49.5 231.5Q49.0 240.0 47.5 249.25Q46.0 258.5 45.0 262.0L44.5 264.5L54.5 258.5Q61.5 254.5 73.25 249.75Q85.0 245.0 93.0 242.5Q101.0 240.5 105.75 239.25Q110.5 238.0 110.5 238.0Q108.5 237.0 104.0 235.75Q99.5 234.5 95.0 233.0Q87.0 230.0 78.75 226.75Q70.5 223.5 67.5 222.0ZM127.0 168.0Q127.0 162.5 129.25 154.75Q131.5 147.0 134.5 140.5Q128.5 144.5 121.0 150.5Q113.5 156.5 108.0 161.0Q102.5 165.5 102.5 166.0V166.5Q102.5 166.5 106.25 167.5Q110.0 168.5 115.0 170.0L119.5 171.0Q122.0 171.5 123.25 171.75Q124.5 172.0 125.5 172.0Q127.0 172.0 127.0 168.0ZM196.5 172.5H190.0Q184.0 172.5 184.0 173.5Q184.0 175.5 188.0 181.0L188.5 182.0Q190.0 184.0 190.5 184.0Q190.5 183.5 191.25 182.5Q192.0 181.5 192.5 179.5Q194.0 178.0 195.0 175.75Q196.0 173.5 196.5 172.5ZM226.5 188.0Q219.5 177.0 217.5 176.5H217.0Q214.0 177.5 209.5 180.5Q205.0 184.0 202.0 194.0Q199.0 204.0 199.0 214.0Q199.0 226.5 202.5 231.75Q206.0 237.0 219.5 237.0H233.5V220.0Q233.5 200.5 226.5 188.0ZM231.0 82.0V81.5Q232.0 80.5 232.0 79.0Q232.0 77.5 232.0 77.0Q229.0 78.0 225.0 84.0Q222.5 87.0 217.0 91.0Q211.5 95.0 207.5 97.5Q198.0 103.5 198.0 104.5Q198.0 105.0 203.0 107.5Q208.0 110.0 215.0 113.0L228.5 120.0V107.5Q228.5 100.5 229.0 94.5Q229.5 88.5 231.0 82.0ZM240.5 172.5Q242.5 170.5 242.5 168.5H237.5Q233.5 168.5 231.5 170.5L232.0 171.0V172.0Q232.5 174.0 233.75 175.25Q235.0 176.5 235.5 177.0Q238.5 176.0 240.5 172.5ZM273.5 174.5V174.0Q271.0 169.0 268.0 169.0Q263.0 169.0 254.5 177.5Q248.0 182.5 246.75 188.25Q245.5 194.0 245.5 212.0V237.0H277.5V210.0Q277.5 198.0 276.25 187.25Q275.0 176.5 273.5 174.5ZM292.0 142.5H281.5Q271.5 142.5 271.5 144.0Q271.5 145.0 273.0 147.5Q274.5 150.0 276.5 153.0L281.0 159.0L285.5 153.0Q288.0 149.5 290.0 146.5Q292.0 143.5 292.0 142.5ZM334.0 249.0V246.0Q334.5 245.0 334.5 243.0Q335.0 241.5 335.0 239.0Q333.5 240.0 329.25 244.5Q325.0 249.0 321.0 253.5Q317.0 258.0 316.0 259.5H323.5Q329.0 259.5 331.0 257.5Q333.0 255.5 334.0 249.0ZM398.5 277.5Q398.5 275.5 398.5 274.25Q398.5 273.0 398.5 272.5Q397.0 274.5 394.25 279.0Q391.5 283.5 390.0 286.0Q390.5 286.0 390.5 286.0Q390.5 286.0 391.0 286.0Q391.5 286.0 392.25 285.75Q393.0 285.5 393.5 285.5Q398.5 284.0 398.5 277.5ZM402.0 213.5Q398.5 209.0 397.0 209.0Q396.0 209.0 395.0 212.5L395.5 213.5V215.0Q396.0 219.5 397.0 219.5Q398.5 219.5 399.5 218.5Q403.0 216.5 403.0 215.0Q403.0 214.0 402.0 213.5ZM468.5 309.0Q468.5 307.5 466.0 307.5Q462.5 307.5 461.0 309.5Q461.5 310.0 463.5 310.0Q468.5 310.0 468.5 309.0ZM481.0 289.0 481.5 286.0Q481.5 283.5 482.0 282.5Q481.0 283.5 479.0 286.5Q477.0 290.0 475.5 293.0Q474.0 296.0 474.0 298.0Q474.0 299.5 476.5 299.5Q477.5 299.5 479.0 296.25Q480.5 293.0 481.0 289.0ZM355.5 90.5 360.0 84.5H327.5Q329.0 88.0 332.25 96.25Q335.5 104.5 338.75 111.75Q342.0 119.0 343.0 119.0Q343.5 119.0 344.25 116.75Q345.0 114.5 346.0 111.5Q347.0 107.0 350.0 100.75Q353.0 94.5 355.5 90.5ZM396.0 120.0 401.5 116.5Q400.5 116.0 398.75 115.25Q397.0 114.5 396.0 113.5Q394.0 111.5 392.5 111.5V116.5Q392.5 121.0 393.0 121.5L394.0 121.0Q395.0 121.0 396.0 120.0ZM406.0 169.5Q406.0 168.0 399.5 165.0Q398.5 164.0 396.5 163.0Q396.5 168.0 398.0 172.5L399.0 173.0Q401.5 173.0 403.75 171.75Q406.0 170.5 406.0 169.5ZM379.0 82.0Q376.0 86.5 373.0 90.5Q365.0 99.0 360.5 108.0Q356.0 117.0 354.25 131.0Q352.5 145.0 352.5 168.5V203.5L356.0 198.5Q365.0 185.5 370.0 185.5Q374.5 185.5 374.5 191.5Q374.5 193.5 371.25 200.0Q368.0 206.5 363.0 214.5Q357.0 223.5 354.75 230.75Q352.5 238.0 352.5 249.5Q352.5 262.0 354.75 265.75Q357.0 269.5 365.5 273.5L378.5 280.0L383.5 273.0Q384.5 272.0 385.5 270.75Q386.5 269.5 387.0 268.0Q390.0 264.0 393.75 258.25Q397.5 252.5 400.5 246.5Q406.0 236.5 411.0 231.25Q416.0 226.0 418.0 226.0Q421.5 226.0 421.5 230.0Q421.5 232.5 420.0 237.0Q412.0 262.5 412.0 273.5Q412.0 275.5 413.5 280.5Q415.0 285.5 417.5 285.5Q419.0 285.5 423.5 279.75Q428.0 274.0 433.0 265.75Q438.0 257.5 442.25 250.5Q446.5 243.5 447.5 241.5Q448.5 237.5 452.0 235.25Q455.5 233.0 458.0 233.0Q462.5 233.0 462.5 238.0Q462.5 238.5 460.25 246.5Q458.0 254.5 454.5 263.0Q452.5 269.5 450.75 274.5Q449.0 279.5 449.0 282.0Q449.0 284.5 454.0 289.0Q457.5 292.5 458.0 292.5Q459.0 292.5 463.25 287.75Q467.5 283.0 472.5 276.25Q477.5 269.5 481.0 264.0Q484.5 258.5 484.5 257.0V211.5Q482.5 213.5 474.0 215.0Q465.5 216.5 453.5 216.5Q441.5 216.5 434.25 217.25Q427.0 218.0 421.5 220.25Q416.0 222.5 408.5 226.5L404.5 229.5Q402.5 230.5 400.75 231.5Q399.0 232.5 397.5 233.5Q390.0 238.5 388.5 238.5Q388.0 238.5 385.75 231.0Q383.5 223.5 382.5 213.5Q382.0 209.5 381.75 205.75Q381.5 202.0 381.5 199.5Q381.5 188.0 384.5 184.5Q386.5 182.5 386.5 180.0L387.0 179.5V179.0Q385.5 176.0 383.75 159.75Q382.0 143.5 380.75 122.0Q379.5 100.5 379.0 82.0ZM475.0 85.5 469.5 73.0H446.0Q431.0 73.0 423.5 75.0Q416.0 77.0 407.0 82.5Q401.5 86.0 397.0 89.25Q392.5 92.5 392.5 93.0Q392.5 93.0 394.75 95.25Q397.0 97.5 399.5 100.0Q404.0 103.5 412.5 105.25Q421.0 107.0 442.5 108.0Q477.5 109.5 477.5 115.0Q477.5 121.0 444.0 121.0Q425.5 121.0 414.0 124.75Q402.5 128.5 396.0 136.5Q393.5 139.0 393.5 140.0Q393.5 141.5 399.0 147.0L402.0 149.5Q407.5 154.0 411.5 156.25Q415.5 158.5 424.0 159.25Q432.5 160.0 449.5 160.0H484.5L483.0 130.0Q482.5 117.0 480.0 103.75Q477.5 90.5 475.0 85.5ZM484.5 209.0 483.5 172.5H456.5Q434.0 172.5 422.0 176.25Q410.0 180.0 401.5 189.0L399.5 191.5Q398.0 193.0 398.0 194.0Q398.0 195.0 403.0 198.5Q408.0 201.5 417.5 202.75Q427.0 204.0 446.0 204.0Q462.0 204.0 472.25 205.25Q482.5 206.5 484.5 209.0ZM401.5 70.0 398.5 68.0H397.5Q394.0 66.0 391.5 66.0Q391.0 66.0 391.0 67.0Q391.0 68.0 391.5 68.5V71.5Q392.5 76.5 393.0 76.5Q393.0 76.5 393.5 76.25Q394.0 76.0 394.5 76.0Q396.5 75.0 396.5 75.0Q401.5 71.0 401.5 70.0ZM500.0 40.0 507.0 29.5 487.5 28.0H480.5Q478.5 27.5 475.5 27.5Q469.5 27.5 467.75 28.25Q466.0 29.0 466.0 31.0Q466.0 33.5 468.0 36.5Q470.5 37.5 474.0 44.75Q477.5 52.0 479.5 60.5Q482.0 67.5 483.5 72.0Q485.0 76.5 485.5 76.5Q485.5 76.5 486.25 74.0Q487.0 71.5 488.0 66.5Q489.0 62.0 492.5 54.0Q496.0 46.0 500.0 40.0ZM446.5 15.0Q446.5 10.0 451.0 10.0Q453.0 10.0 454.5 10.5L456.5 11.0Q459.0 12.5 470.25 13.75Q481.5 15.0 494.0 15.5Q508.5 16.0 518.5 17.25Q528.5 18.5 528.5 21.0Q528.5 22.0 525.5 27.0Q522.5 32.0 518.0 38.0L515.5 41.0Q510.5 47.5 505.75 56.25Q501.0 65.0 499.5 70.5Q498.5 74.0 497.5 88.25Q496.5 102.5 496.0 122.75Q495.5 143.0 495.5 166.0V241.5L498.5 237.5Q503.5 231.0 507.0 231.0Q510.5 231.0 510.5 237.0Q510.5 244.0 505.5 255.5Q503.5 259.0 500.5 266.25Q497.5 273.5 495.5 281.5Q492.5 291.0 492.5 295.0Q492.5 297.0 494.5 299.75Q496.5 302.5 499.0 305.0Q503.0 308.0 509.75 311.0Q516.5 314.0 522.0 315.0Q532.0 316.5 541.5 320.25Q551.0 324.0 557.25 327.75Q563.5 331.5 563.5 334.5V336.0Q562.0 339.0 557.5 339.0Q553.0 339.0 547.5 336.0Q535.0 330.0 516.5 326.5Q498.0 323.0 480.5 323.0Q472.0 323.0 464.0 323.75Q456.0 324.5 449.5 326.5L448.5 327.0Q445.0 327.5 442.5 328.25Q440.0 329.0 438.0 329.0Q433.0 329.0 433.0 325.0Q433.0 322.5 440.0 314.5Q443.5 310.0 444.5 306.5Q444.0 306.5 443.75 306.5Q443.5 306.5 443.0 306.5Q440.0 306.5 432.25 308.25Q424.5 310.0 410.5 313.5L392.5 318.5L404.0 304.0Q408.5 299.5 408.5 298.0Q403.0 298.0 397.75 299.0Q392.5 300.0 387.0 301.5Q375.0 304.5 368.0 304.5Q361.5 304.5 361.5 300.5Q361.5 298.0 367.0 294.5L368.0 293.5Q369.5 292.5 369.5 292.0Q369.5 288.5 351.0 280.0Q331.0 271.0 310.5 271.0H281.0L297.5 259.0Q301.5 256.0 304.25 253.25Q307.0 250.5 307.0 250.0H179.5Q152.5 250.0 135.75 250.5Q119.0 251.0 109.5 252.0Q100.0 253.0 93.5 255.5Q84.5 258.5 72.75 263.5Q61.0 268.5 52.5 273.25Q44.0 278.0 44.0 280.5Q44.0 280.5 49.25 280.75Q54.5 281.0 61.5 281.0Q71.0 281.0 77.75 282.75Q84.5 284.5 84.5 287.0Q84.5 293.5 76.5 293.5Q70.5 293.5 63.5 302.0Q59.5 305.5 57.75 309.25Q56.0 313.0 55.5 320.25Q55.0 327.5 55.0 342.5Q55.0 358.0 53.25 368.0Q51.5 378.0 49.0 378.0Q45.5 378.0 44.0 370.0Q42.5 362.0 42.5 349.5Q42.5 328.5 37.0 315.75Q31.5 303.0 19.5 295.0Q14.5 291.5 12.25 288.25Q10.0 285.0 10.0 282.5Q10.0 277.5 16.5 277.5Q17.5 277.5 18.75 277.5Q20.0 277.5 21.0 278.0H23.0Q23.5 278.5 24.5 278.5Q28.0 278.5 29.0 276.5Q31.0 272.0 33.0 259.25Q35.0 246.5 36.5 232.75Q38.0 219.0 38.0 211.5Q38.0 208.0 37.5 207.0Q37.0 205.5 37.0 203.0Q37.0 198.0 42.5 197.0Q49.0 197.0 64.5 206.0Q79.5 214.0 99.0 221.0Q118.5 228.0 138.75 232.25Q159.0 236.5 177.0 236.5Q185.0 236.5 185.0 236.0Q185.0 232.5 170.5 221.0Q148.0 202.0 128.75 190.75Q109.5 179.5 97.0 177.5Q80.0 175.0 80.0 169.0Q80.0 164.5 89.0 159.5Q93.0 157.5 101.0 151.25Q109.0 145.0 118.75 137.0Q128.5 129.0 137.0 121.0Q145.5 113.0 150.0 107.5Q157.5 99.0 161.0 99.0Q164.5 99.0 164.5 102.5Q164.5 105.0 161.25 112.75Q158.0 120.5 152.0 133.5Q147.0 143.0 143.25 151.75Q139.5 160.5 139.5 162.0Q139.5 169.5 149.25 182.75Q159.0 196.0 171.5 205.5L185.5 216.5V208.5Q185.5 201.0 182.75 196.0Q180.0 191.0 171.5 183.0Q165.5 177.0 160.75 171.5Q156.0 166.0 156.0 165.0Q156.0 163.0 172.0 161.0Q188.0 159.0 209.5 158.0L253.0 155.5L243.0 147.0Q237.0 141.5 224.75 134.25Q212.5 127.0 200.5 122.0L167.5 105.0L184.0 96.5Q190.5 93.5 199.75 87.0Q209.0 80.5 218.5 72.5Q228.0 64.5 234.5 57.5Q241.0 50.5 242.5 47.5Q245.0 40.5 249.0 40.5Q252.0 40.5 253.75 43.0Q255.5 45.5 255.5 48.0Q255.5 50.0 254.5 52.75Q253.5 55.5 252.5 59.0L251.5 60.5Q239.5 86.0 239.5 104.5Q239.5 111.5 242.0 117.5Q244.5 123.5 248.25 126.25Q252.0 129.0 261.0 130.0Q270.0 131.0 287.0 131.0Q300.5 131.0 309.75 132.25Q319.0 133.5 319.0 135.5Q319.0 137.0 315.0 141.75Q311.0 146.5 305.5 150.5Q300.5 154.5 297.0 158.75Q293.5 163.0 293.5 165.5Q293.5 167.5 300.0 175.25Q306.5 183.0 315.0 192.0Q323.5 200.5 329.5 208.25Q335.5 216.0 335.5 218.5Q335.5 220.5 333.5 221.0H332.0Q329.5 221.0 322.75 216.5Q316.0 212.0 309.5 205.0Q303.0 198.0 297.5 192.75Q292.0 187.5 290.5 187.0Q290.5 188.5 290.25 192.25Q290.0 196.0 290.0 201.5Q290.0 204.5 290.5 206.0V211.0L291.5 236.0L304.5 238.0Q307.0 238.5 309.25 238.75Q311.5 239.0 313.0 239.0Q317.0 239.0 320.25 236.5Q323.5 234.0 328.5 228.5Q334.0 223.0 336.5 219.0Q339.0 215.0 339.5 207.5Q340.0 200.0 340.0 184.0Q340.0 131.0 315.5 93.0Q312.0 87.5 309.5 82.25Q307.0 77.0 307.0 75.5Q307.0 73.0 315.0 72.0Q323.0 71.0 335.0 71.0Q347.5 71.0 360.5 71.75Q373.5 72.5 378.5 74.5Q378.5 70.0 378.5 66.25Q378.5 62.5 378.5 59.0Q378.5 42.5 381.5 42.5Q382.5 42.5 387.0 45.25Q391.5 48.0 396.5 52.0Q402.5 57.5 409.5 59.0Q416.5 60.5 436.5 60.5Q449.5 60.5 457.25 60.25Q465.0 60.0 465.0 59.5Q465.0 53.5 455.5 39.0Q452.0 30.5 449.25 23.75Q446.5 17.0 446.5 15.0ZM435.0 288.0V287.5L433.5 288.5L434.5 289.0Q434.5 288.5 434.5 288.5Q434.5 288.5 434.5 288.0L434.0 287.5Q434.0 285.5 435.0 284.5Q436.0 283.0 436.0 281.75Q436.0 280.5 436.0 280.5L434.5 282.0Q434.5 282.5 434.75 282.75Q435.0 283.0 435.0 283.5Z" fill="black" /></svg>