<svg xmlns="http://www.w3.org/2000/svg" width="536.0" height="383.5" viewBox="0 0 536.0 383.5"><path d="M126.0 302.0Q116.5 300.5 102.0 297.25Q87.5 294.0 73.5 289.75Q59.5 285.5 50.0 281.0Q50.0 280.5 48.0 280.5Q47.0 280.5 47.0 293.0Q47.0 300.0 46.25 307.75Q45.5 315.5 44.5 319.0L44.0 320.5Q44.0 321.0 43.75 321.75Q43.5 322.5 43.5 323.0Q47.0 323.0 58.0 320.0L62.0 319.0Q71.5 316.5 87.0 313.25Q102.5 310.0 115.0 308.5Q122.5 307.0 129.25 305.5Q136.0 304.0 140.0 303.5Q139.0 303.5 137.75 303.25Q136.5 303.0 135.5 303.0Q133.5 302.5 131.0 302.5Q128.5 302.5 126.0 302.0ZM60.5 114.5Q55.5 115.5 46.0 115.5Q41.0 115.5 37.25 115.5Q33.5 115.5 32.0 116.0Q33.5 118.0 36.0 123.5Q38.5 129.0 40.5 135.0L45.0 145.0L51.5 132.0Q57.0 124.0 60.5 114.5ZM108.5 139.5 117.0 123.5H88.0L94.5 136.5Q97.5 143.0 99.75 148.0Q102.0 153.0 102.0 153.0Q102.0 153.0 103.75 149.0Q105.5 145.0 108.5 139.5ZM275.0 94.0 267.0 76.5 249.0 77.5Q236.0 77.5 225.0 78.5Q214.0 79.5 200.5 81.5Q187.0 83.5 165.5 87.0Q86.0 99.0 84.5 107.0Q85.5 109.0 91.5 110.0Q97.5 111.0 110.5 111.0Q123.0 111.0 131.5 112.25Q140.0 113.5 140.0 115.5Q140.0 117.0 135.0 123.75Q130.0 130.5 127.5 134.5L114.5 149.0V215.0Q114.5 282.0 108.0 282.0Q105.0 282.0 102.75 268.0Q100.5 254.0 99.5 224.0Q98.5 199.0 97.25 186.25Q96.0 173.5 93.25 165.25Q90.5 157.0 85.0 146.0Q80.5 137.5 77.0 130.75Q73.5 124.0 73.5 124.0Q73.0 124.5 70.5 127.75Q68.0 131.0 65.5 135.0Q62.5 140.0 61.0 146.75Q59.5 153.5 58.75 167.75Q58.0 182.0 58.0 209.5V271.0L81.5 277.5Q100.5 283.5 121.5 287.0Q142.5 290.5 170.0 292.25Q197.5 294.0 235.5 294.0H303.0V252.0L302.0 205.5Q294.5 205.5 279.75 207.0Q265.0 208.5 247.75 211.25Q230.5 214.0 215.0 217.25Q199.5 220.5 190.5 224.5Q182.0 228.0 174.5 231.0Q167.0 234.0 164.5 234.0Q161.5 234.0 160.75 230.75Q160.0 227.5 160.0 225.5Q160.0 222.5 161.0 216.5V214.0Q161.0 213.0 161.25 212.0Q161.5 211.0 161.5 210.0Q161.5 204.5 160.75 198.75Q160.0 193.0 158.5 188.0L157.5 183.5Q157.0 179.5 156.25 176.25Q155.5 173.0 155.5 171.0Q155.5 170.0 156.5 168.0L157.0 167.0H159.5Q162.0 167.0 169.5 168.75Q177.0 170.5 185.5 173.0Q196.0 176.0 211.25 179.5Q226.5 183.0 242.75 186.0Q259.0 189.0 272.5 190.75Q286.0 192.5 293.5 192.5H302.0L301.5 176.5Q299.0 159.0 291.5 135.0Q284.0 111.0 275.0 94.0ZM205.5 191.5 199.5 190.0Q195.5 189.0 191.5 187.75Q187.5 186.5 183.5 185.5Q180.5 184.5 178.25 184.0Q176.0 183.5 175.0 183.0Q174.0 182.5 172.0 182.5Q172.0 184.0 172.25 186.0Q172.5 188.0 173.0 190.5Q174.0 195.5 174.75 201.75Q175.5 208.0 175.5 211.5Q175.5 215.0 176.5 215.0Q177.0 215.0 177.75 214.75Q178.5 214.5 179.0 214.5Q187.5 209.0 204.0 204.5Q220.5 200.0 234.5 197.5Q227.5 196.5 219.25 194.5Q211.0 192.5 205.5 191.5ZM315.5 294.0H377.0V205.5H315.5ZM390.0 294.0H471.0V205.5H390.0ZM158.5 72.5H160.0Q147.5 72.5 135.5 69.75Q123.5 67.0 111.5 63.0L85.5 55.0V73.0Q85.5 83.0 85.75 86.75Q86.0 90.5 87.0 90.5Q88.0 90.5 91.0 89.5Q94.0 88.5 106.5 85.5Q119.0 82.5 132.0 80.0Q142.0 77.5 149.25 75.5Q156.5 73.5 158.5 72.5ZM316.0 96.5 321.0 88.5H306.0Q296.5 88.5 292.5 89.25Q288.5 90.0 288.5 91.5Q288.5 95.5 291.0 96.5Q292.5 97.5 295.5 104.0Q298.5 110.5 300.5 119.0L303.5 129.5L305.5 124.0Q307.5 118.5 310.5 110.25Q313.5 102.0 316.0 96.5ZM357.0 105.0Q353.5 95.0 349.75 87.75Q346.0 80.5 343.5 78.5Q343.0 81.0 339.0 87.75Q335.0 94.5 330.0 101.0Q325.0 108.5 322.25 114.75Q319.5 121.0 318.25 130.0Q317.0 139.0 316.5 156.0L315.0 192.5H377.0V182.0Q377.0 174.0 374.25 160.75Q371.5 147.5 367.0 132.5Q362.5 117.5 357.0 105.0ZM396.0 84.5H379.0Q370.5 84.5 367.25 84.75Q364.0 85.0 364.0 86.0Q364.0 87.5 364.5 87.5Q366.0 90.5 369.0 98.25Q372.0 106.0 375.0 114.5L376.5 120.0Q378.0 124.5 379.0 126.5Q380.0 123.0 383.0 115.25Q386.0 107.5 389.5 100.5Q392.0 95.5 393.75 90.75Q395.5 86.0 396.0 84.5ZM457.0 112.0 446.5 76.5H434.5Q423.5 76.5 417.0 82.75Q410.5 89.0 401.0 107.0Q396.5 116.5 394.25 127.5Q392.0 138.5 391.0 159.0L389.0 193.0L469.0 190.5L468.5 170.5Q468.0 161.0 464.75 143.75Q461.5 126.5 457.0 112.0ZM501.0 31.0Q498.5 30.5 488.5 30.0Q478.5 29.5 467.0 29.0Q455.5 28.5 447.0 28.5Q442.5 28.5 441.5 28.0Q443.0 32.0 447.0 42.0Q453.5 54.5 458.0 68.5Q462.5 82.5 466.0 96.0L471.0 113.5L475.5 93.0Q479.0 80.0 484.0 66.25Q489.0 52.5 493.0 45.0L496.0 39.5Q498.0 36.5 499.25 34.25Q500.5 32.0 501.0 31.0ZM420.0 13.0Q420.0 10.0 424.0 10.0Q425.5 10.0 429.0 10.5Q432.5 11.0 436.0 12.0Q441.0 13.0 455.75 13.75Q470.5 14.5 486.0 14.5Q503.0 14.5 514.5 15.5Q526.0 16.5 526.0 19.0L524.5 22.0Q522.5 24.0 519.75 27.5Q517.0 31.0 515.0 35.0L502.0 60.0Q491.0 82.0 487.0 106.5Q483.0 131.0 483.0 154.5Q483.0 168.5 483.25 183.0Q483.5 197.5 484.5 212.0V247.5Q484.5 305.5 482.0 339.5Q479.5 373.5 477.5 373.5Q474.0 373.5 472.5 362.75Q471.0 352.0 471.0 337.5V307.0H340.0Q273.0 307.0 224.5 309.5Q176.0 312.0 138.25 317.25Q100.5 322.5 65.5 332.0Q53.5 335.5 43.0 337.75Q32.5 340.0 30.0 340.0Q29.5 340.0 28.0 339.75Q26.5 339.5 26.5 339.5V337.0Q26.5 333.0 30.0 321.0Q33.0 311.0 33.0 296.5Q33.0 294.0 33.0 291.25Q33.0 288.5 32.5 286.0L32.0 281.0Q31.5 278.5 31.5 276.25Q31.5 274.0 31.5 272.0Q31.5 264.0 37.0 264.0Q39.5 264.0 41.0 264.5Q42.0 265.0 43.5 265.0Q45.0 265.0 45.25 257.75Q45.5 250.5 45.5 226.0Q45.5 192.0 39.5 169.0Q33.5 146.0 20.5 126.0Q16.5 120.0 13.25 114.0Q10.0 108.0 10.0 107.5Q10.0 105.0 19.25 104.0Q28.5 103.0 42.0 103.0Q57.5 103.0 63.75 101.25Q70.0 99.5 71.5 91.0Q73.0 82.5 73.0 62.5Q73.0 48.0 74.25 43.0Q75.5 38.0 79.5 38.0Q80.5 38.0 83.5 39.0Q86.0 40.0 95.75 43.75Q105.5 47.5 116.5 51.5L144.0 61.5L442.0 64.0L432.0 42.0Q427.0 30.5 423.5 22.0Q420.0 13.5 420.0 13.0Z" fill="black" /></svg>