<svg xmlns="http://www.w3.org/2000/svg" width="644.5" height="460.5" viewBox="0 0 644.5 460.5"><path d="M46.0 343.5Q46.0 342.5 43.5 341.25Q41.0 340.0 38.0 338.0Q37.5 337.5 36.0 337.5Q33.0 337.5 33.0 347.5V356.5Q33.0 356.5 33.5 356.25Q34.0 356.0 35.0 355.5L37.0 353.5Q41.0 350.5 43.5 347.5Q46.0 344.5 46.0 343.5ZM46.0 271.0Q46.0 268.0 42.0 268.0Q39.0 268.0 39.0 271.0Q39.0 273.5 42.0 273.5Q46.0 273.5 46.0 271.0ZM260.0 334.5Q260.0 325.0 265.0 314.0Q270.0 303.0 276.5 295.0Q273.0 297.0 266.75 302.0Q260.5 307.0 253.5 313.0L231.0 331.5L242.0 334.5Q249.0 337.0 253.5 338.75Q258.0 340.5 259.5 340.5Q260.0 340.5 260.0 334.5ZM363.5 302.0Q356.0 306.5 345.75 313.75Q335.5 321.0 328.25 326.5Q321.0 332.0 321.5 332.5Q321.5 333.0 327.5 334.0Q333.5 335.0 341.0 336.5Q348.5 338.0 353.0 338.0Q357.5 338.0 357.5 326.5Q357.5 320.0 359.25 313.0Q361.0 306.0 363.5 302.0ZM38.5 158.5Q39.0 157.0 40.5 155.5Q41.5 153.5 42.0 152.75Q42.5 152.0 42.5 151.5Q42.5 150.5 39.0 149.0L38.5 148.5Q37.5 148.0 36.0 148.0Q33.0 148.0 33.0 159.0Q33.0 161.0 33.0 162.75Q33.0 164.5 33.0 165.5Q34.0 164.0 35.75 162.0Q37.5 160.0 38.5 158.5ZM135.5 160.5Q127.5 156.0 117.5 153.75Q107.5 151.5 98.5 151.5Q86.0 151.5 75.25 154.75Q64.5 158.0 59.0 164.5Q48.0 176.0 39.0 191.5Q30.0 207.0 30.0 215.5Q30.0 216.0 30.25 216.75Q30.5 217.5 30.5 217.5Q39.0 221.5 39.0 230.5Q39.0 240.0 46.25 245.5Q53.5 251.0 72.25 253.0Q91.0 255.0 125.0 255.0Q158.0 255.0 178.0 257.25Q198.0 259.5 198.0 264.5Q198.0 268.5 179.75 271.0Q161.5 273.5 131.5 273.5Q100.0 273.5 83.75 275.75Q67.5 278.0 59.75 284.5Q52.0 291.0 44.5 304.0Q43.0 306.0 42.25 309.0Q41.5 312.0 41.5 313.5Q41.5 316.5 43.0 318.0Q46.0 321.0 62.0 323.0Q78.0 325.0 100.75 326.25Q123.5 327.5 145.5 327.5Q167.5 327.5 185.25 326.0Q203.0 324.5 207.0 322.0Q213.5 319.0 224.25 311.5Q235.0 304.0 247.25 294.5Q259.5 285.0 270.5 276.0Q281.5 267.0 288.5 260.25Q295.5 253.5 295.5 252.0Q295.5 246.5 285.75 236.25Q276.0 226.0 260.75 214.5Q245.5 203.0 228.5 192.75Q211.5 182.5 197.0 175.75Q182.5 169.0 174.5 169.0Q166.0 169.0 155.0 166.5Q144.0 164.0 135.5 160.5ZM310.5 178.5H311.0Q299.5 173.0 285.25 170.0Q271.0 167.0 260.0 167.0Q255.0 167.0 251.25 167.5Q247.5 168.0 245.5 169.5L244.0 170.5Q244.0 173.0 250.0 180.25Q256.0 187.5 265.5 196.5Q275.0 205.5 285.25 214.0Q295.5 222.5 304.0 228.5Q312.5 234.5 316.5 235.5Q320.5 231.0 324.0 231.0Q325.0 231.0 326.5 231.25Q328.0 231.5 330.0 232.0Q331.0 234.0 331.0 237.0Q331.0 240.0 328.5 246.0Q326.0 252.0 322.0 257.5Q278.0 320.5 278.0 332.5Q278.0 334.5 283.0 334.5Q286.5 334.5 298.25 327.25Q310.0 320.0 325.25 308.75Q340.5 297.5 354.75 285.25Q369.0 273.0 378.0 263.5L393.0 248.0L360.5 218.5Q347.0 206.5 332.25 194.25Q317.5 182.0 310.5 178.5ZM230.0 116.5Q232.5 112.5 234.5 108.75Q236.5 105.0 238.0 102.0Q234.0 105.0 226.0 111.25Q218.0 117.5 208.0 125.0L197.0 133.5Q190.0 139.0 184.75 143.25Q179.5 147.5 176.0 149.0Q178.0 149.5 180.75 150.25Q183.5 151.0 186.5 152.0Q189.0 152.0 191.0 153.0Q195.0 153.0 198.0 154.5Q206.5 156.0 211.5 156.0Q217.0 156.0 217.0 150.0Q217.0 145.0 220.5 134.75Q224.0 124.5 230.0 116.5ZM334.0 112.5Q335.0 111.0 336.0 109.0Q337.0 107.0 338.0 105.0Q338.5 104.5 338.5 104.25Q338.5 104.0 339.0 103.5Q338.0 104.0 336.75 105.25Q335.5 106.5 334.0 107.5L332.0 109.5Q325.5 115.0 316.25 122.75Q307.0 130.5 299.0 137.0Q285.0 148.0 285.0 148.5Q285.0 150.0 291.5 152.0Q298.0 154.0 305.25 155.25Q312.5 156.5 315.5 156.5Q318.5 156.5 319.25 154.5Q320.0 152.5 320.0 147.5Q320.0 142.0 324.0 131.5Q328.0 121.0 334.0 112.5ZM391.0 121.5 353.5 116.0Q347.5 127.5 343.5 137.25Q339.5 147.0 339.5 152.5Q339.5 156.0 342.0 157.5Q344.0 159.5 345.75 164.0Q347.5 168.5 347.5 172.5Q347.5 175.5 357.25 186.0Q367.0 196.5 379.5 209.0L406.5 233.5V191.0Q406.5 138.5 417.5 138.5Q422.5 138.5 427.0 150.5Q428.0 154.0 434.25 155.75Q440.5 157.5 449.5 157.5Q464.0 157.5 464.0 157.0Q464.0 156.0 461.0 153.0Q452.0 142.5 432.75 133.75Q413.5 125.0 391.0 121.5ZM429.0 92.5H429.5Q429.5 92.0 429.5 91.75Q429.5 91.5 429.5 91.0L429.0 90.5Q424.5 90.5 417.5 99.5Q416.0 101.5 414.5 102.5Q415.5 102.5 416.25 102.25Q417.0 102.0 417.5 102.0Q426.0 99.5 429.0 92.5ZM547.0 185.5Q544.5 181.0 539.75 178.75Q535.0 176.5 524.75 176.0Q514.5 175.5 495.0 175.5Q467.0 175.5 456.5 177.25Q446.0 179.0 440.5 185.5Q434.5 191.0 434.5 196.5Q437.0 197.5 447.25 198.25Q457.5 199.0 471.75 199.25Q486.0 199.5 501.0 199.5H553.0Q553.0 198.0 551.25 193.75Q549.5 189.5 547.0 185.5ZM556.0 228.5Q554.5 224.0 550.75 221.75Q547.0 219.5 536.0 219.0Q525.0 218.5 501.5 218.5Q469.5 218.5 450.5 222.75Q431.5 227.0 430.5 232.5Q431.0 233.0 431.5 234.5Q432.0 236.0 432.5 236.5Q436.0 238.5 451.75 240.25Q467.5 242.0 488.5 243.0Q509.5 244.0 527.0 244.0Q540.0 244.0 548.25 243.5Q556.5 243.0 557.0 241.5Q557.5 241.5 557.5 239.0Q557.5 233.5 556.0 228.5ZM501.0 296.5 560.0 298.5 556.0 264.0 505.5 262.0H492.0Q490.0 261.5 487.25 261.5Q484.5 261.5 482.5 261.5Q462.5 261.5 455.75 263.75Q449.0 266.0 442.5 273.0Q433.0 281.5 433.0 285.0Q433.0 290.5 449.0 293.0Q465.0 295.5 501.0 296.5ZM593.0 173.0Q594.5 167.0 594.5 166.5Q594.5 165.0 591.5 164.5Q588.5 164.0 580.0 164.0H564.5L567.5 188.0Q574.5 231.5 576.0 231.5Q576.5 231.5 581.0 215.0Q584.5 203.5 588.25 191.0Q592.0 178.5 593.0 173.0ZM443.5 51.5Q467.0 30.0 481.5 20.0Q496.0 10.0 499.5 10.0Q503.5 10.0 503.5 14.0Q503.5 17.5 495.5 29.5Q487.5 41.5 472.0 62.0Q461.0 75.5 454.5 87.0Q448.0 98.5 447.0 103.0Q449.0 104.0 450.25 108.25Q451.5 112.5 451.5 115.5Q451.5 120.0 458.0 127.0Q464.5 134.0 474.5 141.0Q484.5 148.0 494.75 152.75Q505.0 157.5 512.5 157.5Q519.5 157.5 524.0 156.5Q528.5 155.5 528.5 154.5Q528.5 150.0 539.75 147.5Q551.0 145.0 567.5 145.0Q580.5 145.0 592.75 143.25Q605.0 141.5 607.5 139.0Q610.0 136.5 613.75 135.5Q617.5 134.5 621.0 134.5Q625.5 134.5 627.5 135.0Q634.5 138.5 634.5 143.0Q634.5 145.0 632.0 148.5Q629.5 152.0 626.5 156.0Q617.0 166.5 608.25 191.0Q599.5 215.5 592.5 248.75Q585.5 282.0 581.5 319.25Q577.5 356.5 577.5 393.0Q577.5 419.0 575.0 434.75Q572.5 450.5 568.5 450.5Q563.5 450.5 561.25 431.5Q559.0 412.5 559.0 381.0V318.0L509.0 315.5H502.0Q489.5 314.0 480.5 314.0Q456.0 314.0 446.0 321.75Q436.0 329.5 427.0 347.5Q425.0 353.5 422.5 357.5Q420.0 361.5 417.5 361.5Q413.5 361.5 412.75 347.75Q412.0 334.0 411.5 302.0Q411.5 270.0 407.5 270.0Q403.5 270.0 398.0 278.0Q392.5 286.0 387.5 297.0Q382.5 308.0 379.0 318.25Q375.5 328.5 375.5 333.0Q375.5 341.0 379.0 341.0Q386.0 341.0 386.0 346.0Q386.0 346.5 385.5 347.5Q385.0 348.5 384.5 349.5Q385.0 353.0 391.5 358.75Q398.0 364.5 406.5 370.5Q427.5 385.0 440.5 398.75Q453.5 412.5 453.5 419.0Q453.5 421.5 452.0 424.5L451.5 425.0Q451.0 425.5 448.5 425.5Q440.5 425.5 426.5 411.5Q410.5 396.5 389.0 383.0Q367.5 369.5 347.25 361.0Q327.0 352.5 313.5 352.5Q303.5 352.5 296.75 353.0Q290.0 353.5 290.0 354.0Q290.0 355.0 298.75 361.25Q307.5 367.5 319.5 375.0Q340.5 387.5 354.25 399.5Q368.0 411.5 368.5 418.0Q368.5 420.0 367.5 422.0L367.0 423.0Q366.5 425.0 363.5 425.0Q360.0 425.0 352.25 420.0Q344.5 415.0 335.5 408.5Q311.5 391.0 291.75 380.0Q272.0 369.0 252.5 362.25Q233.0 355.5 210.25 352.0Q187.5 348.5 157.0 346.0L74.0 340.5L57.5 359.5Q49.5 366.5 42.5 378.0Q35.5 389.5 32.5 397.5Q29.0 408.5 24.75 414.25Q20.5 420.0 17.5 420.0Q10.0 420.0 10.0 404.5Q10.0 402.0 10.0 399.25Q10.0 396.5 10.5 394.0Q16.0 354.0 17.0 312.0Q18.0 270.0 18.0 229.0Q15.5 227.5 14.25 216.75Q13.0 206.0 13.0 190.5Q13.0 175.5 14.0 158.25Q15.0 141.0 16.5 125.5Q18.0 110.0 20.25 100.25Q22.5 90.5 25.0 90.5Q33.0 90.5 33.0 104.0Q33.0 121.0 47.5 127.25Q62.0 133.5 101.0 135.5H110.0Q112.5 136.0 114.75 136.0Q117.0 136.0 119.0 136.0Q136.5 136.0 149.75 134.75Q163.0 133.5 165.5 131.5Q171.5 128.5 185.75 118.0Q200.0 107.5 217.75 93.75Q235.5 80.0 252.0 66.25Q268.5 52.5 279.25 42.75Q290.0 33.0 290.0 31.0Q290.0 27.5 292.75 25.0Q295.5 22.5 299.0 22.5Q308.5 22.5 308.5 32.0Q308.5 43.5 295.0 55.5Q285.5 64.5 275.25 78.5Q265.0 92.5 256.0 107.75Q247.0 123.0 241.5 136.0Q236.0 149.0 236.0 156.0Q236.0 156.5 236.25 157.0Q236.5 157.5 236.5 157.5Q239.5 157.5 252.75 148.0Q266.0 138.5 284.75 123.5Q303.5 108.5 323.25 91.75Q343.0 75.0 358.0 60.5Q373.5 46.0 386.5 36.25Q399.5 26.5 403.0 26.5H404.5Q406.5 29.5 406.5 31.5Q406.5 36.5 403.0 42.0Q398.0 48.0 389.25 60.0Q380.5 72.0 371.0 86.75Q361.5 101.5 354.0 115.5L379.5 101.0Q385.0 98.5 395.5 91.0Q406.0 83.5 418.75 73.0Q431.5 62.5 443.5 51.5Z" fill="black" /></svg>