<svg xmlns="http://www.w3.org/2000/svg" width="515.5" height="410.0" viewBox="0 0 515.5 410.0"><path d="M57.5 317.5Q56.0 316.5 51.25 314.0Q46.5 311.5 42.0 309.5Q37.5 307.5 36.5 307.5Q36.0 307.5 35.25 314.0Q34.5 320.5 34.0 330.5Q33.5 340.5 33.0 350.5Q32.5 360.5 32.5 367.5V373.5Q36.5 373.0 45.0 370.25Q53.5 367.5 64.5 364.0L70.0 362.5Q85.5 357.5 102.5 352.5Q119.5 347.5 128.0 346.0L136.5 344.0L114.0 337.0Q99.0 333.0 82.25 327.0Q65.5 321.0 57.5 317.5ZM247.0 32.0Q247.0 31.0 235.0 30.5Q223.0 30.0 207.0 30.0Q193.0 30.0 182.25 30.25Q171.5 30.5 169.5 31.0Q171.0 34.5 177.0 46.25Q183.0 58.0 190.5 71.5L205.5 103.5L213.0 84.5Q217.5 73.0 223.75 61.5Q230.0 50.0 235.0 46.5Q247.0 36.0 247.0 32.0ZM134.0 14.5V13.0L135.0 12.0Q136.0 11.0 143.75 10.5Q151.5 10.0 163.0 10.0Q178.0 10.0 197.75 10.5Q217.5 11.0 236.25 12.0Q255.0 13.0 267.5 14.25Q280.0 15.5 281.0 17.0V18.0Q281.0 20.0 275.0 28.5Q269.0 37.0 259.0 47.5Q248.5 57.5 239.5 71.25Q230.5 85.0 228.0 94.0Q225.5 101.0 224.25 125.75Q223.0 150.5 223.0 185.5Q223.0 189.5 223.0 194.0Q223.0 198.5 223.5 202.5V222.5L225.0 328.0L363.0 330.5Q405.0 330.5 437.25 332.0Q469.5 333.5 487.5 335.5Q505.5 337.5 505.5 340.5Q505.5 344.5 464.5 346.75Q423.5 349.0 349.5 349.0Q289.5 349.0 246.25 351.0Q203.0 353.0 170.25 357.5Q137.5 362.0 109.5 369.5Q81.5 377.0 51.5 388.5Q39.0 393.5 27.75 396.75Q16.5 400.0 13.5 400.0H11.0Q10.0 397.0 10.0 393.5Q10.0 389.5 10.5 382.5Q11.0 375.5 12.5 367.5Q14.0 361.0 14.75 350.75Q15.5 340.5 15.5 330.5Q15.5 325.0 15.5 320.5Q15.5 316.0 15.0 311.5Q14.5 307.5 14.25 302.5Q14.0 297.5 14.0 294.0Q14.0 278.0 20.0 278.0Q23.0 278.0 32.0 282.25Q41.0 286.5 50.0 293.0Q69.0 305.5 101.25 314.75Q133.5 324.0 170.0 328.0L205.5 332.0L203.5 234.0Q202.5 201.0 201.5 180.0Q200.5 159.0 198.5 145.5Q196.5 132.0 193.0 121.5Q189.5 111.0 183.5 99.0Q177.0 84.0 167.25 67.0Q157.5 50.0 150.5 40.5Q143.5 32.0 138.75 24.25Q134.0 16.5 134.0 14.5Z" fill="black" /></svg>