<svg xmlns="http://www.w3.org/2000/svg" width="679.0" height="387.5" viewBox="0 0 679.0 387.5"><path d="M74.0 285.0 57.0 280.0H56.0Q49.0 277.0 40.5 274.0Q32.0 271.0 32.0 271.0Q32.5 273.0 32.75 277.25Q33.0 281.5 33.0 287.0V302.5ZM305.5 272.0 305.0 271.5Q312.0 269.0 317.25 267.0Q322.5 265.0 326.5 263.5Q326.0 263.5 325.5 263.5Q325.0 263.5 324.5 263.5Q320.5 263.5 315.75 263.75Q311.0 264.0 305.5 264.0Q299.5 264.5 293.25 264.5Q287.0 264.5 280.5 264.5L242.0 266.5L244.0 284.0Q245.5 296.5 246.5 296.5Q246.5 296.5 250.5 294.5L252.5 293.5Q257.0 290.5 272.75 284.5Q288.5 278.5 305.5 272.0ZM391.5 328.0 376.0 324.5Q363.0 322.0 350.75 319.0Q338.5 316.0 333.5 314.5L325.5 312.5V350.0L338.5 343.5Q346.5 340.5 359.25 336.5Q372.0 332.5 381.5 330.5ZM138.5 158.0 129.0 155.5Q122.0 153.0 115.0 150.5Q108.0 148.0 105.5 146.0Q105.0 146.5 103.5 159.5Q103.5 162.5 103.25 165.25Q103.0 168.0 102.5 170.5Q102.5 174.0 102.0 175.5Q105.5 174.0 110.75 171.5Q116.0 169.0 122.0 165.5ZM298.5 148.5Q295.5 143.5 294.0 143.5Q293.0 143.5 288.0 148.75Q283.0 154.0 278.0 160.0Q273.0 166.0 271.5 169.0Q272.5 169.0 273.5 169.0Q274.5 169.0 276.0 169.0Q278.5 169.0 284.5 170.25Q290.5 171.5 298.0 173.0Q300.0 173.5 302.0 174.0Q304.0 174.5 306.0 175.0Q307.0 175.5 308.25 175.5Q309.5 175.5 310.5 176.0Q312.0 176.5 313.75 176.75Q315.5 177.0 316.0 177.5Q321.5 179.0 326.25 180.5Q331.0 182.0 335.0 183.0Q330.5 178.5 324.5 174.0Q316.5 167.0 308.75 159.75Q301.0 152.5 298.5 148.5ZM377.5 122.0 361.5 121.0 369.5 133.0ZM360.5 51.0 362.5 52.0Q356.0 47.5 351.75 44.5Q347.5 41.5 347.5 41.5Q347.0 43.0 344.0 48.5Q341.0 54.0 337.5 61.0L328.5 76.5H342.0Q353.5 76.5 373.0 79.75Q392.5 83.0 414.5 89.0Q413.0 88.0 411.5 86.75Q410.0 85.5 408.0 84.5L400.0 79.5Q389.0 72.5 378.25 64.5Q367.5 56.5 360.5 51.0ZM310.0 321.0Q310.0 307.5 311.25 297.75Q312.5 288.0 314.5 288.0Q315.5 288.0 318.75 289.25Q322.0 290.5 326.5 292.5Q329.0 293.5 331.0 294.5Q333.0 295.5 335.5 296.5Q354.5 306.0 381.75 310.5Q409.0 315.0 451.5 315.0Q489.0 315.0 541.5 312.0Q556.0 311.0 568.0 310.25Q580.0 309.5 587.5 309.5Q599.5 309.5 604.5 311.25Q609.5 313.0 609.5 316.0Q609.5 324.5 575.5 324.5Q564.0 324.5 543.75 325.5Q523.5 326.5 498.5 329.0Q473.5 331.5 447.0 335.0Q420.5 338.5 396.25 343.5Q372.0 348.5 353.25 354.75Q334.5 361.0 325.5 369.0Q315.0 377.5 309.5 377.5Q304.0 377.5 304.0 371.0Q304.0 366.5 306.0 360.5Q308.0 356.0 309.0 344.5Q310.0 333.0 310.0 321.0ZM17.0 241.5Q17.0 238.5 19.5 238.5Q22.0 238.5 26.5 241.75Q31.0 245.0 36.5 250.0Q49.5 263.5 82.0 270.0Q114.5 276.5 166.0 277.5Q189.5 277.5 207.75 279.0Q226.0 280.5 228.0 283.0Q227.5 277.5 226.75 272.25Q226.0 267.0 223.5 262.5Q223.5 262.0 223.0 261.5V260.0Q223.0 256.0 227.75 254.25Q232.5 252.5 246.25 251.25Q260.0 250.0 286.5 248.5Q304.0 247.5 323.75 246.0Q343.5 244.5 361.5 242.25Q379.5 240.0 390.5 238.0L421.0 232.5L416.0 230.5Q398.5 222.5 376.5 214.5Q354.5 206.5 332.5 199.75Q310.5 193.0 292.75 189.0Q275.0 185.0 266.0 185.0Q238.0 185.0 238.0 176.5Q238.0 171.0 249.0 168.0Q250.0 167.5 251.25 167.25Q252.5 167.0 252.5 167.0Q249.5 166.5 241.75 166.5Q234.0 166.5 221.0 166.5H207.5Q185.0 166.5 173.0 167.25Q161.0 168.0 152.25 171.0Q143.5 174.0 131.0 180.0Q120.5 185.0 111.75 190.25Q103.0 195.5 102.0 198.0Q97.5 206.5 94.5 206.5Q86.5 206.5 86.5 178.0V170.0Q87.0 167.5 87.0 165.0Q87.0 162.5 87.0 160.0Q87.0 141.5 89.0 128.25Q91.0 115.0 93.5 115.0Q94.5 115.0 99.0 118.25Q103.5 121.5 108.0 126.0Q119.0 137.5 144.75 143.25Q170.5 149.0 213.0 150.5H240.0Q257.0 150.5 266.0 147.5Q275.0 144.5 281.5 128.5Q285.5 119.5 291.0 119.5Q297.0 119.5 304.0 132.0Q306.5 136.5 315.0 144.5Q323.5 152.5 333.5 161.25Q343.5 170.0 352.25 176.0Q361.0 182.0 364.0 182.5V180.0Q364.0 173.0 361.5 160.25Q359.0 147.5 354.5 136.25Q350.0 125.0 343.0 123.5Q340.5 121.5 338.0 119.0Q335.5 116.5 335.5 113.0Q335.5 110.0 342.25 108.75Q349.0 107.5 358.5 107.5Q370.0 107.5 381.25 108.5Q392.5 109.5 399.0 110.5Q400.5 111.0 400.5 113.5Q400.5 119.0 393.5 126.5Q384.5 135.5 381.25 143.0Q378.0 150.5 378.0 161.0Q378.0 164.5 378.0 168.0Q378.0 171.5 378.5 175.5L381.5 196.0L411.0 210.0Q423.0 216.0 433.5 220.5Q444.0 225.0 445.5 225.0Q446.5 225.0 458.5 222.25Q470.5 219.5 489.0 214.5Q501.5 211.5 516.25 207.75Q531.0 204.0 547.5 200.5L633.5 179.5L625.0 175.5Q604.5 167.0 575.25 156.25Q546.0 145.5 512.75 134.5Q479.5 123.5 446.0 114.0Q412.5 104.5 382.25 98.75Q352.0 93.0 329.5 93.0H317.0Q308.5 93.0 302.75 91.75Q297.0 90.5 297.0 88.5Q297.0 85.0 303.0 79.0Q304.0 78.0 305.25 76.75Q306.5 75.5 307.5 74.0Q315.5 67.0 322.5 54.0Q329.5 41.0 335.0 27.0L341.5 10.0L364.0 32.0Q384.0 52.0 412.0 69.25Q440.0 86.5 470.5 100.25Q501.0 114.0 527.5 123.0Q553.0 131.5 578.0 140.75Q603.0 150.0 623.5 158.75Q644.0 167.5 656.5 173.5Q669.0 179.5 669.0 181.0Q669.0 184.0 649.25 190.25Q629.5 196.5 601.5 203.5Q576.0 209.0 549.75 215.75Q523.5 222.5 499.0 229.5L470.5 236.5L504.0 251.5Q520.0 259.5 531.75 267.5Q543.5 275.5 543.5 278.5V280.0Q542.0 282.5 538.5 282.5Q534.5 282.5 524.5 278.75Q514.5 275.0 500.0 269.0L493.0 266.0Q476.0 257.0 461.75 250.75Q447.5 244.5 444.5 244.5Q440.0 244.5 424.75 248.75Q409.5 253.0 388.0 260.0Q366.5 267.0 343.0 275.5Q319.5 284.0 297.75 293.0Q276.0 302.0 260.0 310.0Q244.0 318.0 238.0 324.0Q235.5 328.0 232.5 330.0Q229.5 332.0 228.0 333.0Q223.5 331.5 222.0 325.5Q222.0 319.5 226.0 312.5Q228.5 303.5 228.5 291.5Q228.5 289.5 228.5 287.75Q228.5 286.0 228.5 284.0Q227.0 286.5 216.75 288.5Q206.5 290.5 192.25 291.75Q178.0 293.0 164.5 293.0Q158.5 293.0 153.5 292.75Q148.5 292.5 144.0 292.0Q142.5 291.5 139.75 291.5Q137.0 291.5 134.5 291.5Q126.0 291.5 117.0 292.5Q108.0 293.5 101.0 295.0Q92.0 297.0 79.75 301.25Q67.5 305.5 55.75 310.5Q44.0 315.5 36.25 319.75Q28.5 324.0 28.5 326.5Q28.5 329.0 25.5 331.25Q22.5 333.5 18.5 333.5Q10.0 333.5 10.0 326.5Q10.0 323.5 11.5 320.0Q14.0 314.0 15.0 301.0Q16.0 288.0 16.25 274.25Q16.5 260.5 16.5 253.0Q17.0 248.5 17.0 245.25Q17.0 242.0 17.0 241.5Z" fill="black" /></svg>