<svg xmlns="http://www.w3.org/2000/svg" width="564.5" height="381.0" viewBox="0 0 564.5 381.0"><path d="M62.5 294.0Q53.0 291.0 46.75 289.25Q40.5 287.5 36.5 287.5Q31.0 287.5 31.0 297.0Q31.0 306.5 32.0 315.25Q33.0 324.0 34.5 332.5Q41.0 331.0 54.5 325.0Q64.5 322.0 80.25 318.0Q96.0 314.0 109.5 311.5L127.0 308.5L112.5 306.0Q100.5 303.5 85.75 300.0Q71.0 296.5 62.5 294.0ZM121.5 164.0H122.0Q121.5 163.5 121.25 163.5Q121.0 163.5 120.5 163.0H118.0Q118.0 164.0 121.5 164.0ZM122.5 250.0H121.5Q118.5 250.0 118.5 251.5Q120.0 251.5 120.0 251.0Q122.5 250.0 122.5 250.0Q122.5 250.0 122.5 250.0ZM256.0 229.5 266.0 224.5 232.0 205.0V224.5Q232.0 245.5 235.0 245.5Q235.0 245.5 237.5 243.0H237.0Q239.0 240.5 244.25 236.75Q249.5 233.0 256.0 229.5ZM174.0 102.5H171.0Q168.0 102.5 158.25 100.25Q148.5 98.0 137.0 95.0L130.5 93.5Q128.5 93.0 127.0 92.75Q125.5 92.5 124.0 92.0L88.0 83.0V104.5Q88.0 113.5 88.0 120.25Q88.0 127.0 88.5 127.0Q89.5 127.0 98.0 124.0Q106.5 121.0 117.5 117.0L125.0 114.5Q136.5 111.0 147.25 108.25Q158.0 105.5 163.0 105.5Q172.0 105.5 174.0 102.5ZM481.5 128.5 477.5 114.5H357.0Q324.0 114.5 296.25 114.75Q268.5 115.0 251.75 115.5Q235.0 116.0 234.5 117.0Q233.5 117.5 232.75 128.25Q232.0 139.0 232.0 153.0Q232.0 169.5 232.5 177.0Q233.0 184.5 236.0 188.0Q239.0 191.5 245.5 196.0Q262.5 209.0 277.25 215.0Q292.0 221.0 308.5 222.5Q325.0 224.0 345.5 224.0Q356.5 224.0 362.5 221.75Q368.5 219.5 375.5 215.0Q385.0 208.0 396.75 197.75Q408.5 187.5 417.5 178.25Q426.5 169.0 426.5 166.5Q426.5 164.0 429.0 162.25Q431.5 160.5 435.0 160.5Q444.0 160.5 444.0 167.5Q444.0 172.5 439.0 175.5Q435.5 177.5 435.5 191.0Q435.5 199.0 437.5 208.5Q439.5 218.0 443.0 224.5Q447.5 230.0 456.5 236.75Q465.5 243.5 475.5 248.5Q485.5 253.5 491.0 254.0Q490.5 252.0 490.5 241.5Q490.5 230.0 489.75 212.75Q489.0 195.5 487.75 177.75Q486.5 160.0 484.75 146.5Q483.0 133.0 481.5 128.5ZM422.5 200.5Q422.5 198.0 422.25 197.0Q422.0 196.0 422.0 196.0Q418.0 196.0 402.5 211.0L388.0 223.5L401.0 226.0Q408.0 227.0 416.25 229.0Q424.5 231.0 428.5 232.0Q430.0 232.5 431.25 232.75Q432.5 233.0 433.5 233.0Q433.0 232.0 432.25 230.5Q431.5 229.0 430.5 227.0L429.5 224.5Q422.5 210.5 422.5 200.5ZM238.5 72.0 250.0 51.0H221.0Q208.5 51.0 199.0 50.75Q189.5 50.5 189.5 51.0Q190.5 52.5 193.75 59.25Q197.0 66.0 201.5 74.5Q212.5 97.0 219.0 97.0Q226.0 97.0 238.5 72.0ZM223.0 116.0Q223.0 114.5 219.0 114.5Q217.5 114.5 217.5 115.5V117.0Q219.5 120.0 220.5 120.0Q223.0 120.0 223.0 116.0ZM524.5 32.0H524.0Q523.0 31.0 513.75 30.25Q504.5 29.5 492.5 28.75Q480.5 28.0 470.5 27.75Q460.5 27.5 457.5 27.5Q458.5 30.0 461.0 35.25Q463.5 40.5 467.0 46.5Q471.5 55.5 476.25 68.75Q481.0 82.0 484.5 92.5L489.5 109.0L496.5 88.0Q500.5 75.0 506.0 62.0Q511.5 49.0 516.5 43.5Q522.0 34.5 524.5 32.0ZM438.0 13.0V12.5Q438.5 10.0 443.0 10.0Q445.5 10.0 451.0 11.0Q456.5 12.0 462.5 13.0Q468.0 14.0 477.0 14.5Q486.0 15.0 496.0 15.0Q501.0 15.0 505.75 15.0Q510.5 15.0 515.5 14.5Q521.0 13.5 527.0 13.5Q533.0 13.5 538.0 13.5Q550.0 13.5 550.0 17.0Q550.0 18.5 546.25 24.0Q542.5 29.5 537.0 36.5Q526.5 49.5 520.25 60.5Q514.0 71.5 510.75 85.5Q507.5 99.5 506.25 121.5Q505.0 143.5 504.5 178.0L503.0 261.0L530.0 273.5Q554.0 283.0 554.5 288.0Q554.0 290.5 549.5 291.5Q542.0 291.5 535.0 289.25Q528.0 287.0 521.0 284.0Q516.0 281.0 511.0 279.0Q506.0 277.0 504.0 276.5V322.0Q504.0 346.5 501.75 358.75Q499.5 371.0 497.0 371.0H496.0Q493.5 370.0 491.75 354.25Q490.0 338.5 490.0 317.5V271.0L463.0 258.0Q446.0 250.5 428.0 246.0Q410.0 241.5 394.5 241.5Q373.0 241.5 359.5 249.0Q353.0 252.0 348.0 253.75Q343.0 255.5 340.5 255.5Q335.5 255.5 335.5 251.5Q335.5 249.5 337.75 246.75Q340.0 244.0 343.5 241.0Q344.5 240.5 345.25 239.75Q346.0 239.0 346.5 238.5L347.5 238.0Q347.5 237.5 340.25 237.5Q333.0 237.5 313.5 237.5Q292.0 237.5 280.0 238.75Q268.0 240.0 260.25 244.25Q252.5 248.5 243.5 257.5Q236.0 264.0 234.0 269.25Q232.0 274.5 232.0 286.0V304.5H330.5Q368.0 304.5 400.0 305.75Q432.0 307.0 451.25 309.25Q470.5 311.5 470.5 314.0Q470.5 317.5 465.0 318.0Q464.0 318.0 447.5 318.25Q431.0 318.5 404.5 318.75Q378.0 319.0 346.0 319.5L233.5 320.0L229.5 348.5H224.5L219.0 317.0L170.5 320.0Q130.0 322.0 95.75 329.25Q61.5 336.5 41.0 347.5Q27.0 354.0 22.5 354.0Q19.5 354.0 19.0 352.0Q18.5 350.5 18.5 347.5Q18.5 344.5 18.5 340.5Q18.5 336.5 18.5 331.75Q18.5 327.0 19.0 322.0Q19.0 311.0 17.75 300.75Q16.5 290.5 13.0 286.0Q10.0 279.0 10.0 275.5Q10.0 267.0 16.5 267.0Q19.5 267.0 23.0 269.5Q29.0 272.5 46.0 277.0Q63.0 281.5 85.5 286.25Q108.0 291.0 131.5 295.25Q155.0 299.5 174.5 302.0Q194.0 304.5 204.5 304.5H218.5V259.0H181.0Q161.5 259.0 147.25 260.5Q133.0 262.0 126.0 265.5L121.0 267.0Q111.0 271.5 108.0 271.5Q106.0 271.5 105.0 265.75Q104.0 260.0 104.0 252.0Q104.0 242.0 105.0 237.75Q106.0 233.5 111.5 233.5Q114.0 233.5 121.0 235.5Q128.0 237.5 130.5 239.0Q138.0 241.0 153.75 243.0Q169.5 245.0 184.0 245.0H218.5V216.5H178.0Q133.5 216.5 125.0 222.0Q114.5 228.0 111.0 228.0Q106.5 228.0 105.25 223.75Q104.0 219.5 104.0 209.5Q104.0 201.0 105.75 195.75Q107.5 190.5 109.5 190.5Q111.0 190.5 117.0 192.0Q120.5 192.5 125.0 193.75Q129.5 195.0 134.0 196.0Q147.0 200.0 161.0 201.0Q175.0 202.0 188.0 202.0L216.5 200.5L217.0 187.0V184.0Q217.5 183.0 217.5 181.0Q217.5 171.5 216.0 171.5Q215.0 171.0 208.0 171.0Q199.5 171.0 186.25 172.0Q173.0 173.0 158.5 174.25Q144.0 175.5 132.5 177.25Q121.0 179.0 116.5 180.5Q113.5 182.0 110.5 182.0Q106.0 182.0 105.0 178.25Q104.0 174.5 104.0 165.0Q104.0 156.0 105.25 152.5Q106.5 149.0 113.0 149.0Q116.0 149.0 121.0 150.0Q126.0 151.0 133.0 152.5Q135.0 153.0 137.0 153.5Q139.0 154.0 141.0 154.5Q159.0 159.0 175.5 159.0Q179.5 159.0 189.0 158.5Q198.5 158.0 206.5 156.25Q214.5 154.5 214.5 151.5Q214.5 150.5 214.5 149.0Q214.5 147.5 214.0 146.5Q206.5 114.5 195.5 114.5Q186.0 114.5 168.5 118.25Q151.0 122.0 133.5 127.25Q116.0 132.5 104.5 137.5Q102.5 138.5 100.5 139.25Q98.5 140.0 96.0 141.0Q89.0 144.5 84.0 146.5Q79.0 148.5 78.0 148.5Q75.0 148.5 75.0 142.5Q75.0 136.0 76.5 125.5V117.0Q76.5 110.0 76.0 101.5Q75.5 93.0 74.0 87.0L73.5 83.5Q73.0 79.5 72.25 75.0Q71.5 70.5 71.5 68.5Q71.5 67.0 72.5 66.0Q72.5 66.0 72.75 65.75Q73.0 65.5 73.0 65.0H75.5Q78.0 65.0 85.75 66.75Q93.5 68.5 103.0 72.0Q114.5 75.5 128.5 79.0Q142.5 82.5 156.25 85.75Q170.0 89.0 180.25 91.0Q190.5 93.0 194.0 93.0Q194.0 90.5 191.0 84.0Q188.0 77.5 182.5 67.5Q176.5 56.5 172.25 47.5Q168.0 38.5 168.0 38.0Q168.0 35.0 175.5 35.0Q184.0 35.0 200.0 35.75Q216.0 36.5 233.5 37.25Q251.0 38.0 263.5 39.0Q276.0 40.0 277.5 40.5Q278.5 41.5 278.5 43.0Q278.5 45.0 276.0 47.75Q273.5 50.5 269.5 53.0Q265.0 56.5 258.25 66.0Q251.5 75.5 246.0 85.25Q240.5 95.0 240.5 98.5Q240.5 100.0 266.75 100.5Q293.0 101.0 357.0 101.0H472.5L471.0 92.0Q470.0 87.5 464.5 74.75Q459.0 62.0 452.0 48.5Q446.0 35.5 442.0 25.5Q438.0 15.5 438.0 13.0ZM126.0 207.0 125.5 206.5Q125.5 206.5 124.0 207.0Q122.5 207.5 120.0 208.5Q119.0 209.5 118.5 209.5L118.0 209.0Q119.5 207.5 121.5 207.5Q123.5 207.5 124.75 207.25Q126.0 207.0 126.0 207.0Z" fill="black" /></svg>