<svg xmlns="http://www.w3.org/2000/svg" width="536.5" height="385.5" viewBox="0 0 536.5 385.5"><path d="M168.5 278.0V277.5Q167.5 275.0 162.5 275.0Q158.5 275.0 151.0 276.0Q143.5 277.0 132.0 278.0L125.0 279.0Q117.0 280.0 107.75 280.5Q98.5 281.0 91.5 281.0Q88.0 281.0 85.25 281.0Q82.5 281.0 80.0 280.5L68.5 278.5L74.5 295.5Q77.5 303.5 79.5 313.25Q81.5 323.0 81.5 327.5V335.5L90.5 329.5Q96.0 325.0 110.25 316.75Q124.5 308.5 138.0 301.0Q150.5 293.5 159.5 286.75Q168.5 280.0 168.5 278.0ZM203.5 267.5Q205.5 266.5 207.0 266.0Q208.5 265.5 209.5 265.0Q202.5 265.5 194.75 267.75Q187.0 270.0 184.5 272.5Q188.0 272.0 193.25 270.75Q198.5 269.5 203.5 267.5ZM92.0 98.0Q93.0 97.0 94.0 96.0Q95.0 95.0 95.5 94.5Q91.5 96.5 84.5 100.5Q77.5 104.5 67.0 110.5L43.0 125.0L54.5 127.0Q61.5 128.0 66.75 128.75Q72.0 129.5 75.5 129.5Q79.5 129.5 80.5 127.5Q81.5 125.5 81.5 122.0Q81.5 117.5 84.5 110.5Q87.5 103.5 92.0 98.0ZM196.5 124.5 197.0 124.0V123.0Q198.5 121.5 198.5 121.5Q198.5 120.5 183.0 120.5H164.5L171.5 135.5Q172.5 137.5 173.25 139.5Q174.0 141.5 175.0 143.5Q177.0 148.0 178.5 151.75Q180.0 155.5 180.5 158.0Q181.0 160.0 181.0 159.75Q181.0 159.5 181.0 159.5Q183.5 150.0 187.75 141.25Q192.0 132.5 196.5 124.5ZM317.5 118.5Q281.5 106.5 258.5 106.5Q241.0 106.5 228.75 114.25Q216.5 122.0 207.5 136.5Q201.0 149.5 195.25 169.0Q189.5 188.5 186.25 207.75Q183.0 227.0 183.0 240.0Q183.0 246.5 183.75 251.0Q184.5 255.5 185.5 255.5Q188.5 255.5 203.25 251.75Q218.0 248.0 240.5 242.0Q263.0 236.0 289.5 228.25Q316.0 220.5 342.5 212.75Q369.0 205.0 392.25 197.75Q415.5 190.5 431.75 185.0Q448.0 179.5 453.0 177.0Q449.5 174.5 437.75 168.75Q426.0 163.0 410.0 155.75Q394.0 148.5 376.5 141.25Q359.0 134.0 343.5 127.75Q328.0 121.5 317.5 118.5ZM344.0 110.5 320.0 88.5Q317.0 85.0 309.0 77.25Q301.0 69.5 294.25 61.25Q287.5 53.0 287.5 48.5Q284.0 48.5 264.5 72.0L247.5 90.5L269.5 93.0Q281.0 93.5 298.0 97.25Q315.0 101.0 326.0 105.0ZM274.5 16.5Q280.5 10.0 285.5 10.0Q292.5 10.0 292.5 22.5Q292.5 32.5 302.75 46.75Q313.0 61.0 330.25 77.5Q347.5 94.0 368.25 109.75Q389.0 125.5 410.5 138.75Q432.0 152.0 450.75 159.75Q469.5 167.5 482.0 167.5Q482.5 167.5 483.0 167.25Q483.5 167.0 484.0 167.0H485.5Q490.5 166.0 494.0 166.0Q504.5 166.0 504.5 172.5Q504.5 176.0 498.0 180.0H497.5Q498.0 182.0 510.5 188.5Q526.5 197.0 526.5 202.0Q526.5 206.0 522.0 206.0Q514.5 206.0 496.5 198.0L475.0 186.5L400.5 210.0Q312.0 237.0 240.5 267.75Q169.0 298.5 110.0 335.0Q96.0 343.0 85.75 351.75Q75.5 360.5 74.5 363.5Q72.5 368.5 69.25 372.0Q66.0 375.5 64.0 375.5Q59.0 375.5 56.5 371.5Q54.0 367.5 54.0 362.5Q54.0 359.0 55.25 354.75Q56.5 350.5 59.5 347.5Q66.5 340.5 66.5 328.0Q66.5 311.0 55.5 289.0Q51.5 279.5 48.5 272.0Q45.5 264.5 45.5 262.0Q45.5 260.0 46.5 259.0Q48.0 258.5 49.5 258.5Q52.5 258.5 58.25 259.75Q64.0 261.0 70.5 263.0Q77.0 265.0 82.75 266.25Q88.5 267.5 95.0 267.5Q109.5 267.5 129.5 265.0Q149.5 262.5 164.5 260.5Q166.0 260.0 168.5 260.0Q168.5 258.0 168.25 250.5Q168.0 243.0 168.0 233.0Q168.0 220.0 166.75 213.5Q165.5 207.0 161.25 202.5Q157.0 198.0 148.0 191.5Q134.5 182.0 118.0 172.75Q101.5 163.5 85.0 155.75Q68.5 148.0 54.5 143.5Q40.5 139.0 32.0 139.0Q10.0 139.0 10.0 131.0Q10.0 124.0 33.5 112.5Q40.5 109.0 52.0 102.25Q63.5 95.5 77.0 87.25Q90.5 79.0 102.5 71.0Q118.5 59.5 132.0 52.75Q145.5 46.0 149.5 46.0Q153.5 46.0 153.5 49.0Q153.5 51.5 149.5 57.0Q145.5 62.5 140.5 66.5Q132.5 73.5 122.0 85.75Q111.5 98.0 103.75 109.25Q96.0 120.5 96.0 125.0Q96.0 130.5 99.0 132.5Q102.0 134.0 102.5 136.75Q103.0 139.5 103.0 142.5Q103.0 144.5 109.0 148.75Q115.0 153.0 124.5 158.5L139.5 167.5Q143.0 169.5 146.25 171.75Q149.5 174.0 152.0 176.0Q157.0 179.0 160.5 181.5L162.0 182.5Q167.5 186.0 168.0 186.0Q168.0 170.0 162.25 152.0Q156.5 134.0 143.5 123.0Q133.0 113.5 132.0 107.5Q132.0 107.0 132.25 106.75Q132.5 106.5 132.5 106.5Q132.5 105.5 133.0 105.0Q136.0 103.5 145.0 103.5Q149.0 103.5 154.5 103.75Q160.0 104.0 165.5 104.5H170.0Q174.0 105.0 177.25 105.25Q180.5 105.5 183.5 105.5Q201.5 105.5 215.5 96.5Q229.5 87.5 249.5 66.5Q259.5 55.0 265.25 46.75Q271.0 38.5 271.5 34.5L271.0 34.0Q270.5 32.5 270.5 29.5Q270.5 22.0 274.5 16.5Z" fill="black" /></svg>