<svg xmlns="http://www.w3.org/2000/svg" width="663.5" height="458.0" viewBox="0 0 663.5 458.0"><path d="M74.5 327.5 70.5 326.0Q65.5 324.5 57.0 318.75Q48.5 313.0 42.0 308.0Q38.0 304.0 36.0 302.5Q34.0 301.0 33.0 301.0Q33.0 304.5 31.75 315.0Q30.5 325.5 29.5 335.5L28.0 353.0L34.0 348.0Q40.0 344.5 50.0 339.0Q60.0 333.5 66.5 331.5ZM47.0 170.0Q48.5 169.5 50.0 169.5Q51.5 169.5 53.0 169.5H64.0Q68.0 170.5 72.0 170.75Q76.0 171.0 80.5 171.0Q83.5 171.0 86.75 170.75Q90.0 170.5 93.5 169.5H105.0Q115.5 169.5 119.5 174.5V175.0Q120.5 175.0 120.5 176.5Q120.5 178.5 116.75 182.5Q113.0 186.5 109.5 189.0Q95.0 203.0 88.25 226.25Q81.5 249.5 80.5 277.5L79.0 312.0L94.0 318.5Q112.0 327.0 178.5 329.0L241.5 331.5L246.5 305.0Q247.5 296.5 249.5 289.25Q251.5 282.0 256.0 281.5V275.0Q256.0 265.5 256.0 253.5Q256.0 241.5 256.0 232.0Q256.0 222.5 255.5 221.0Q253.0 189.5 248.75 173.75Q244.5 158.0 240.0 151.0L235.0 141.0H161.5Q127.0 141.0 106.0 144.0Q85.0 147.0 71.75 153.5Q58.5 160.0 47.0 170.0ZM280.0 320.0 264.0 307.5Q262.5 320.0 259.5 330.0Q256.5 340.0 253.5 346.5Q252.5 350.0 251.5 352.75Q250.5 355.5 250.0 358.0Q254.0 357.5 260.75 356.25Q267.5 355.0 275.5 353.0Q287.5 350.5 301.25 348.25Q315.0 346.0 323.5 346.0H327.0L314.0 340.5Q302.0 334.5 292.5 328.75Q283.0 323.0 280.0 320.0ZM77.5 213.5 85.5 195.0 93.0 185.0Q89.5 185.0 87.5 185.5Q82.5 185.5 77.25 185.25Q72.0 185.0 66.5 184.5Q69.0 189.5 72.25 197.0Q75.5 204.5 77.5 213.5ZM258.5 141.0H254.0Q254.5 142.5 255.25 143.25Q256.0 144.0 256.5 145.0Q257.5 146.0 258.0 147.25Q258.5 148.5 259.0 150.0V149.0Q258.5 147.0 258.5 144.75Q258.5 142.5 258.5 141.0ZM278.5 140.0 274.0 140.5V144.5Q274.5 144.0 274.5 144.0Q274.5 144.0 275.0 143.5Q276.0 142.5 277.0 141.5Q278.0 140.5 278.5 140.0ZM379.5 172.5 388.5 173.0V124.0H385.0Q384.5 124.5 383.0 124.5Q367.0 126.5 349.75 129.25Q332.5 132.0 319.75 134.5Q307.0 137.0 303.5 138.5Q297.5 142.0 291.25 148.75Q285.0 155.5 282.0 163.5Q277.0 176.0 275.5 198.5Q274.0 221.0 274.0 262.0V293.5Q288.5 306.0 299.25 312.25Q310.0 318.5 326.5 326.0L334.5 330.0Q338.5 332.0 341.75 333.5Q345.0 335.0 348.0 336.5Q361.5 343.0 370.25 347.0Q379.0 351.0 384.5 352.0L395.0 354.5L396.0 275.0V262.0Q396.5 260.0 396.5 257.75Q396.5 255.5 396.5 253.0V247.5L396.0 247.0Q395.0 246.0 391.5 245.75Q388.0 245.5 386.5 245.5H376.5Q370.5 245.5 368.5 240.5Q368.5 240.0 369.0 238.75Q369.5 237.5 371.0 237.0L388.0 222.5L377.0 205.0Q372.0 195.5 368.25 189.25Q364.5 183.0 364.5 179.5Q364.5 174.0 368.5 173.25Q372.5 172.5 379.5 172.5ZM69.5 136.0 81.5 132.0 33.0 108.0V159.0L38.0 155.5Q42.5 151.5 52.0 145.5Q61.5 139.5 69.5 136.0ZM398.0 201.5 404.0 211.5 429.0 193.0 431.0 189.5H408.0L388.5 188.5Q389.0 189.5 391.0 192.5Q392.5 195.0 394.5 197.5Q396.5 200.0 398.0 201.5ZM412.0 229.5 415.0 223.5 411.0 227.5ZM480.0 295.0 439.0 269.5 439.5 269.0Q432.0 263.5 425.75 259.5Q419.5 255.5 418.5 255.5Q416.5 255.5 414.75 273.25Q413.0 291.0 412.0 319.5L411.5 357.5L439.5 363.0Q445.5 364.5 452.0 365.5L465.5 368.0Q477.5 371.0 480.0 371.0ZM468.5 220.0 459.5 207.5Q454.5 202.5 451.5 198.5Q450.0 197.0 449.5 196.25Q449.0 195.5 448.5 195.0Q448.5 196.0 446.25 201.25Q444.0 206.5 440.5 212.0Q439.5 215.5 437.75 218.5Q436.0 221.5 435.0 224.0L433.0 226.0Q432.5 229.5 431.75 231.25Q431.0 233.0 431.0 235.0L435.5 235.5Q440.5 236.0 440.5 241.0Q440.5 243.5 438.5 247.5L480.5 274.0V238.0Q478.5 237.0 477.5 237.0H475.0L473.0 237.5Q471.5 238.0 469.0 238.0Q464.5 238.0 461.5 237.0Q458.5 236.0 458.5 232.0Q458.5 229.5 460.5 227.0ZM469.0 193.5 481.5 209.5 503.0 193.5 489.0 194.5ZM493.0 225.0 497.0 217.5 491.5 222.5ZM507.5 233.0V232.5H506.5Q506.5 233.0 507.5 233.0ZM286.5 124.0Q285.0 123.0 283.25 121.75Q281.5 120.5 280.0 119.5L277.5 116.5Q274.0 115.0 272.0 113.0Q272.0 118.0 273.5 123.5V124.5H281.5Q284.5 124.5 286.5 124.0ZM403.0 92.0 415.5 77.0Q412.5 77.5 409.25 77.75Q406.0 78.0 403.0 78.0Q396.5 78.0 389.5 76.5Q393.5 80.0 397.0 83.75Q400.5 87.5 403.0 92.0ZM468.0 91.0Q459.0 81.5 452.0 76.5L449.5 75.0Q447.5 73.0 446.5 71.5L436.5 79.0Q434.0 80.5 432.5 82.75Q431.0 85.0 428.5 88.0Q427.5 90.0 426.0 91.25Q424.5 92.5 422.5 94.5Q413.5 106.5 409.5 115.5Q405.5 124.5 405.5 142.5V173.0L439.0 173.5H481.5V140.0Q481.5 124.0 480.75 116.5Q480.0 109.0 477.25 104.0Q474.5 99.0 468.0 91.0ZM501.5 83.0Q504.0 79.0 506.5 76.5L507.0 75.5Q501.0 77.0 495.0 77.0Q491.0 77.0 486.5 77.0Q482.0 77.0 477.5 76.5Q481.5 80.5 485.5 85.0Q489.5 89.5 492.5 94.5Q493.5 92.5 495.5 90.5Q497.5 88.5 499.0 87.0Q500.5 84.0 501.5 83.0ZM625.0 33.5H596.5Q582.0 33.5 569.5 32.5Q557.0 31.5 553.5 30.5L552.0 30.0Q553.0 33.0 555.25 39.0Q557.5 45.0 561.0 53.5L565.0 63.0Q565.5 65.0 566.25 66.5Q567.0 68.0 567.5 69.0Q568.0 70.5 569.0 72.5Q573.5 84.5 577.0 95.0Q580.5 105.5 585.5 125.0Q590.0 103.0 596.0 85.75Q602.0 68.5 613.5 50.0ZM527.5 12.0 529.0 10.5Q530.0 10.0 531.5 10.0Q533.0 10.0 534.0 10.0Q536.5 10.0 541.0 10.5Q545.5 11.0 550.0 12.0Q556.0 14.0 572.25 15.25Q588.5 16.5 606.5 16.5Q627.0 16.5 640.25 18.75Q653.5 21.0 653.5 23.0Q653.5 25.0 649.25 31.5Q645.0 38.0 639.5 46.0Q626.5 62.0 616.25 85.25Q606.0 108.5 602.0 132.0Q601.0 140.0 599.75 162.75Q598.5 185.5 598.0 215.5Q597.5 245.5 597.0 276.5V332.5Q596.5 396.0 595.5 422.0Q594.5 448.0 587.5 448.0Q584.0 448.0 581.5 441.0Q579.0 434.0 579.0 424.5V406.0L498.0 391.0V405.5Q498.0 418.5 495.25 425.75Q492.5 433.0 489.0 433.0Q480.0 433.0 480.0 402.5V387.5L451.5 382.0L411.5 376.0V401.5Q411.5 432.0 403.5 432.0Q395.0 432.0 395.0 401.5V373.0L391.0 372.0Q376.0 369.0 360.5 366.5Q345.0 364.0 329.0 364.0Q307.5 364.0 286.0 368.5Q264.5 373.0 248.0 381.0Q237.0 386.0 230.5 386.0Q224.5 386.0 224.5 380.5Q224.5 373.0 229.5 361.5L235.5 348.0L223.0 346.5Q218.5 346.0 205.5 345.5Q192.5 345.0 175.5 344.5Q158.5 344.0 141.5 344.0Q107.0 344.0 86.25 346.5Q65.5 349.0 53.0 356.25Q40.5 363.5 29.5 376.5Q25.0 382.5 20.5 386.75Q16.0 391.0 14.0 391.0H12.0Q11.5 389.5 10.75 387.5Q10.0 385.5 10.0 382.5Q10.0 376.0 10.75 363.5Q11.5 351.0 12.75 335.75Q14.0 320.5 15.5 306.25Q17.0 292.0 18.25 282.5Q19.5 273.0 20.0 271.5H22.0Q25.0 271.5 30.5 275.5Q36.0 279.5 42.0 285.0L64.5 302.5V261.5Q64.5 227.5 61.75 212.25Q59.0 197.0 49.5 188.0Q46.0 186.0 43.5 182.5Q41.0 179.0 40.0 176.5Q39.5 177.0 39.5 177.0Q39.5 177.0 39.0 177.5Q33.0 184.0 27.5 189.25Q22.0 194.5 20.0 194.5Q18.0 194.5 16.5 185.75Q15.0 177.0 15.0 164.5Q15.0 152.5 15.5 138.5Q16.0 124.5 16.75 111.25Q17.5 98.0 18.25 89.25Q19.0 80.5 20.0 79.0H21.5Q28.0 79.0 42.0 90.5Q53.0 98.5 69.0 106.5Q85.0 114.5 100.5 120.0Q116.0 125.5 125.0 126.5H138.0Q149.5 126.5 166.25 126.5Q183.0 126.5 200.0 126.0L256.5 124.5L253.5 107.0Q253.5 104.5 253.25 102.5Q253.0 100.5 253.0 99.0Q253.0 88.5 260.0 88.5Q266.0 88.5 278.0 98.5Q290.0 108.0 299.0 111.75Q308.0 115.5 320.5 115.5Q323.5 115.5 327.5 115.25Q331.5 115.0 335.0 115.0Q337.5 114.5 341.0 114.25Q344.5 114.0 347.5 114.0Q353.0 112.5 358.0 112.5Q365.0 111.5 372.0 110.75Q379.0 110.0 387.5 108.5Q384.5 97.5 381.25 93.25Q378.0 89.0 370.0 82.5Q365.0 78.5 360.75 74.0Q356.5 69.5 356.5 67.5Q356.5 63.5 358.5 62.5Q360.5 61.5 365.0 61.5H372.5Q377.0 62.0 383.25 62.0Q389.5 62.0 398.0 62.0Q400.5 62.0 403.0 62.0Q405.5 62.0 408.0 61.5H419.5Q433.0 60.0 446.5 60.0H448.0Q450.0 59.5 452.25 59.25Q454.5 59.0 457.0 59.0Q462.5 59.0 468.5 60.0Q478.0 61.0 486.5 61.5Q495.0 62.0 501.5 62.0Q504.0 62.0 507.25 62.0Q510.5 62.0 513.0 61.5H531.5Q535.0 61.5 537.5 61.75Q540.0 62.0 541.0 64.0V66.0Q541.0 67.5 540.0 68.25Q539.0 69.0 536.5 71.5L534.0 73.0Q518.0 87.0 509.0 101.75Q500.0 116.5 499.0 138.0V174.5H504.0Q516.0 174.5 524.5 172.0Q525.5 171.5 526.75 171.5Q528.0 171.5 529.0 171.0Q533.0 168.5 536.0 168.5Q542.0 168.5 542.0 175.0Q542.0 180.0 537.25 189.0Q532.5 198.0 526.75 207.0Q521.0 216.0 518.0 220.5L514.0 225.5Q513.5 226.0 513.25 226.5Q513.0 227.0 512.5 228.0L515.0 227.0H516.5Q523.0 227.0 523.0 232.5Q523.0 234.5 522.0 236.5Q521.0 238.5 520.0 241.0Q531.5 249.0 543.5 257.25Q555.5 265.5 567.0 273.5Q575.0 279.5 575.0 285.0Q575.0 290.5 569.0 290.5Q566.0 290.5 557.0 287.5L499.5 249.5Q500.5 250.0 500.25 253.25Q500.0 256.5 499.5 259.0L498.0 328.5V373.5L550.0 383.0Q563.5 385.5 570.75 387.25Q578.0 389.0 579.0 389.0L579.5 277.5Q579.0 242.5 578.25 219.0Q577.5 195.5 576.25 179.5Q575.0 163.5 573.0 151.75Q571.0 140.0 567.5 128.0Q562.0 107.5 554.25 85.5Q546.5 63.5 539.75 46.5Q533.0 29.5 530.0 24.5Q526.5 21.0 526.5 16.5Q526.5 15.5 526.75 14.5Q527.0 13.5 527.5 12.0Z" fill="black" /></svg>