<svg xmlns="http://www.w3.org/2000/svg" width="634.0" height="449.0" viewBox="0 0 634.0 449.0"><path d="M284.5 308.0 289.5 302.5H279.5Q267.0 302.5 267.0 303.0Q267.0 305.5 270.25 311.75Q273.5 318.0 274.0 318.0Q275.0 318.0 278.0 314.75Q281.0 311.5 284.5 308.0ZM100.0 198.0Q99.0 192.5 97.75 187.5Q96.5 182.5 95.5 181.5Q95.0 182.0 93.0 182.5Q91.0 183.0 90.0 183.5Q88.0 184.5 86.0 185.75Q84.0 187.0 81.5 188.5Q77.5 190.0 73.5 193.0L57.5 201.5L83.5 214.5Q92.0 218.5 97.75 221.5Q103.5 224.5 107.0 225.5Q106.0 221.5 104.25 213.75Q102.5 206.0 100.0 198.0ZM163.0 189.5Q160.0 174.0 156.5 174.0Q154.0 174.0 150.75 175.5Q147.5 177.0 143.5 179.0L135.5 185.5L157.0 197.5Q162.0 199.5 164.5 202.0V199.0Q164.0 197.0 163.75 194.5Q163.5 192.0 163.0 189.5ZM127.5 31.5H128.0Q123.0 29.5 118.75 29.0Q114.5 28.5 110.0 28.5Q110.5 29.5 111.75 32.0Q113.0 34.5 115.0 37.5L119.0 47.0L123.5 40.0Q128.5 35.5 128.5 33.5L128.0 32.5Q128.0 32.0 127.75 32.0Q127.5 32.0 127.5 31.5ZM240.0 83.0Q232.0 82.0 222.0 79.0Q212.0 76.0 205.0 72.5Q201.5 70.0 197.25 68.5Q193.0 67.0 191.0 66.5Q189.5 71.0 189.5 91.0V111.0L196.0 107.0Q201.0 103.5 211.75 98.5Q222.5 93.5 232.0 90.0L245.0 84.5ZM267.0 142.5Q266.5 117.5 265.5 107.75Q264.5 98.0 259.0 98.0Q255.0 98.0 247.5 101.0Q246.0 101.5 244.75 101.75Q243.5 102.0 241.5 102.5Q231.0 106.5 218.0 113.25Q205.0 120.0 195.5 126.0Q186.0 132.0 186.0 134.0Q186.0 140.5 184.0 144.25Q182.0 148.0 177.0 154.0Q172.5 159.5 172.5 166.5Q172.5 175.5 178.0 190.5Q183.5 205.5 190.75 219.75Q198.0 234.0 204.0 241.0L212.0 247.0L215.0 241.0Q218.0 236.5 219.0 223.0Q220.0 209.5 220.0 193.0L220.5 182.5Q221.0 168.0 222.25 157.75Q223.5 147.5 226.5 147.5Q228.0 147.5 232.25 151.0Q236.5 154.5 238.5 158.5Q248.0 178.5 263.0 178.5Q265.5 178.5 266.25 171.75Q267.0 165.0 267.0 142.5ZM267.0 202.0Q267.0 200.0 262.0 197.0Q257.0 194.0 251.5 191.0L237.5 183.5L236.0 203.0Q235.5 209.0 235.25 214.75Q235.0 220.5 235.0 224.5Q240.0 222.0 247.5 217.5Q255.0 213.0 261.0 208.25Q267.0 203.5 267.0 202.0ZM273.0 70.0Q275.0 68.5 278.0 62.75Q281.0 57.0 281.0 54.5H276.0Q269.5 54.5 269.5 56.0Q269.5 56.0 269.75 56.5Q270.0 57.0 270.5 58.0Q273.0 64.0 273.0 70.0ZM297.5 187.5H310.0L307.5 92.0L296.5 90.5H295.0Q294.0 90.0 292.5 90.0Q284.5 90.0 282.0 92.5Q281.5 93.5 281.0 104.25Q280.5 115.0 280.5 128.5Q280.5 140.5 280.75 153.25Q281.0 166.0 281.75 175.0Q282.5 184.0 284.0 186.0Q284.0 186.5 288.25 187.0Q292.5 187.5 297.5 187.5ZM301.0 66.0Q298.0 59.0 296.0 59.0Q294.0 59.0 293.0 63.0Q290.5 69.0 290.5 72.5Q290.5 74.0 297.5 74.0H305.0Q305.0 70.5 301.0 66.0ZM323.0 61.0Q325.0 56.5 325.0 54.5H320.5Q314.0 54.5 314.0 56.5Q314.0 57.0 314.25 58.0Q314.5 59.0 315.0 60.0Q316.0 63.0 316.75 65.5Q317.5 68.0 318.0 68.0Q319.0 68.0 320.25 65.5Q321.5 63.0 323.0 61.0ZM327.0 190.0 362.0 192.0V89.5H345.5Q337.5 89.5 333.0 91.25Q328.5 93.0 326.75 99.5Q325.0 106.0 325.0 121.5Q325.0 127.5 325.0 134.25Q325.0 141.0 325.5 149.5ZM353.0 60.0 354.0 61.0Q350.5 55.0 346.5 55.0Q344.5 55.0 341.25 59.0Q338.0 63.0 335.5 67.25Q333.0 71.5 333.0 73.5Q333.0 74.0 345.5 74.0Q357.5 74.0 357.5 70.5Q357.5 69.0 356.5 66.25Q355.5 63.5 353.0 60.0ZM376.5 60.0V59.0Q377.0 58.5 377.0 56.5Q377.0 54.5 371.5 54.5H366.5Q366.5 56.5 369.25 62.25Q372.0 68.0 373.5 68.0Q375.0 68.0 376.5 60.0ZM379.5 190.0 405.5 192.0V89.5H393.5Q384.0 89.5 380.5 94.25Q377.0 99.0 377.0 121.0Q377.0 127.0 377.0 133.75Q377.0 140.5 377.5 149.5ZM398.5 63.0Q396.5 59.0 395.5 59.0Q393.5 59.0 390.0 66.0Q388.5 68.5 387.25 70.75Q386.0 73.0 386.0 74.0H393.5Q401.0 74.0 401.0 72.5Q401.0 69.0 398.5 63.0ZM423.0 54.5H417.5Q412.5 54.5 412.5 58.0Q412.5 60.5 416.0 66.5L417.0 68.0Q417.0 67.5 418.5 64.0Q420.5 61.5 421.5 58.75Q422.5 56.0 423.0 54.5ZM522.0 109.5H545.0V89.5H425.0L422.5 101.0Q421.5 109.0 421.5 126.5Q421.5 130.0 421.5 133.0Q421.5 136.0 422.0 139.5V153.5L422.5 190.0H482.5Q519.5 190.0 532.5 188.75Q545.5 187.5 545.5 181.0Q545.5 177.5 544.0 173.0Q542.5 168.5 541.0 162.5L540.5 161.0Q537.0 146.5 528.75 137.25Q520.5 128.0 507.5 126.0Q493.0 122.5 493.0 117.5Q493.0 109.5 522.0 109.5ZM575.0 124.5H557.0Q538.0 124.5 538.0 126.5Q538.0 128.5 544.5 132.5Q547.0 134.5 548.75 138.5Q550.5 142.5 550.5 144.5Q550.5 147.5 552.5 147.5Q555.0 147.5 560.0 143.0Q565.0 138.5 569.75 133.0Q574.5 127.5 575.0 124.5ZM565.5 38.0 570.5 33.5H558.5Q545.0 33.5 545.0 34.0Q545.0 34.5 545.5 36.0Q546.0 37.5 547.0 38.5Q550.5 48.5 553.0 48.5Q554.0 48.5 557.5 45.5Q561.0 42.5 565.5 38.0ZM71.0 16.0Q71.0 10.0 80.0 10.0Q82.5 10.0 85.25 10.25Q88.0 10.5 91.0 10.5L93.0 11.5Q99.5 13.0 113.75 13.75Q128.0 14.5 140.5 15.5Q154.5 15.5 165.75 16.75Q177.0 18.0 179.0 19.5L180.5 24.0Q179.5 28.5 174.0 28.5Q168.5 28.5 160.0 32.5Q151.5 36.5 143.25 42.75Q135.0 49.0 130.5 56.0Q126.5 62.5 124.0 68.75Q121.5 75.0 120.75 87.25Q120.0 99.5 120.0 123.5Q120.0 141.0 120.25 155.0Q120.5 169.0 120.5 173.5V174.0Q125.5 173.0 134.0 167.75Q142.5 162.5 150.25 155.75Q158.0 149.0 160.5 144.5Q168.0 129.5 171.5 119.75Q175.0 110.0 176.0 99.5Q177.0 89.0 177.0 72.0Q177.0 30.5 184.0 30.5Q188.0 30.5 192.0 41.5Q194.0 49.0 206.0 55.25Q218.0 61.5 231.75 65.5Q245.5 69.5 253.5 69.5Q258.5 69.5 258.5 68.5Q258.5 65.5 251.5 57.5Q245.5 51.5 245.5 46.0Q245.5 44.5 247.0 41.5Q248.0 40.5 259.75 40.0Q271.5 39.5 290.25 38.75Q309.0 38.0 330.75 37.75Q352.5 37.5 373.5 37.5Q395.0 37.5 412.5 38.0Q430.0 38.5 440.5 39.75Q451.0 41.0 451.0 42.5Q451.0 47.0 449.0 48.25Q447.0 49.5 444.5 49.5Q443.0 49.5 439.5 54.5Q436.0 59.5 433.0 65.5Q430.0 71.5 429.5 74.0H545.0L542.5 66.5Q539.0 53.5 532.5 45.25Q526.0 37.0 515.0 33.5Q507.0 30.5 502.25 26.75Q497.5 23.0 497.5 21.0Q497.5 18.5 515.5 17.0Q533.5 15.5 558.5 15.5Q584.0 15.5 602.5 17.25Q621.0 19.0 621.0 21.5Q621.0 28.5 611.5 28.5Q606.5 28.5 597.5 33.5Q588.5 38.5 579.75 45.75Q571.0 53.0 566.5 59.0Q559.5 71.0 559.5 90.5V110.0L588.0 109.5Q592.0 109.0 596.0 109.0Q600.0 109.0 603.0 109.0Q622.0 109.0 624.0 115.0V117.5Q624.0 124.5 611.5 124.5Q601.0 124.5 581.0 144.5L559.5 165.5L559.0 239.5Q558.5 270.0 557.75 288.75Q557.0 307.5 553.0 308.0Q550.0 307.5 549.5 304.0Q548.0 300.0 547.25 283.25Q546.5 266.5 546.0 247.5L545.0 206.5H421.0L419.0 267.5H413.0L411.0 235.5L410.5 206.5H377.0V231.5Q377.0 245.0 375.25 254.0Q373.5 263.0 369.5 263.0Q366.0 263.0 364.0 254.0Q362.0 245.0 362.0 231.5V206.5H325.0V234.5Q325.0 266.0 317.5 266.0H316.5Q313.5 263.5 311.75 253.25Q310.0 243.0 310.0 230.5Q310.0 218.0 309.75 212.75Q309.5 207.5 308.5 207.5Q308.5 207.5 308.0 207.5Q307.5 207.5 307.5 208.5Q307.0 209.0 306.25 209.0Q305.5 209.0 304.5 209.5Q302.5 209.5 299.5 210.5Q297.5 211.0 294.5 212.0Q291.5 213.0 289.0 214.0Q284.0 214.5 282.5 218.75Q281.0 223.0 281.0 237.5Q281.0 247.5 279.25 255.25Q277.5 263.0 274.0 263.0Q272.5 263.0 269.75 256.5Q267.0 250.0 267.0 241.0Q267.0 234.0 266.75 229.0Q266.5 224.0 266.5 224.0Q263.5 224.0 256.75 228.25Q250.0 232.5 243.0 238.75Q236.0 245.0 230.75 251.5Q225.5 258.0 225.5 262.0Q225.5 267.5 234.5 275.0Q239.0 280.5 244.25 283.0Q249.5 285.5 259.0 286.0Q268.5 286.5 286.0 287.0Q301.0 287.0 314.25 288.5Q327.5 290.0 331.5 292.5L332.0 292.0Q333.0 293.0 333.0 296.0Q333.0 298.0 330.25 299.25Q327.5 300.5 324.0 301.5Q319.5 302.0 311.5 307.25Q303.5 312.5 296.0 319.5L277.0 336.5L276.0 392.5V404.5Q275.5 406.5 275.5 408.5Q275.5 410.5 275.5 413.0Q275.5 439.0 272.5 439.0Q269.5 439.0 268.75 434.5Q268.0 430.0 267.0 421.5Q265.5 410.0 264.5 391.75Q263.5 373.5 263.5 360.0Q263.5 346.0 262.5 338.25Q261.5 330.5 258.25 325.0Q255.0 319.5 247.5 312.5Q242.0 306.0 236.0 302.25Q230.0 298.5 227.5 298.5Q219.5 298.5 219.5 291.5Q219.5 290.0 220.0 288.5Q219.0 284.5 210.25 273.25Q201.5 262.0 189.0 248.25Q176.5 234.5 164.0 222.75Q151.5 211.0 143.5 206.0Q138.5 203.0 132.25 200.75Q126.0 198.5 122.0 198.5H120.0L115.0 199.0L121.5 220.5Q125.0 230.0 131.75 239.75Q138.5 249.5 152.75 265.0Q167.0 280.5 192.5 306.5Q209.5 323.5 223.0 338.5Q236.5 353.5 244.5 363.0Q252.5 372.5 252.5 374.5L252.0 376.5L249.0 377.5Q247.0 377.5 237.75 370.0Q228.5 362.5 215.0 350.25Q201.5 338.0 186.0 323.0Q154.5 290.5 132.0 269.5Q109.5 248.5 92.75 236.75Q76.0 225.0 62.5 220.0Q49.0 215.0 35.0 215.0Q25.0 215.0 17.5 213.5Q10.0 212.0 10.0 209.0Q10.0 206.5 18.0 202.0Q26.0 197.5 37.5 193.5Q67.0 181.5 82.25 170.0Q97.5 158.5 103.0 143.0Q108.5 127.5 109.0 104.5V100.5Q108.5 71.0 104.25 54.25Q100.0 37.5 87.0 29.5Q80.5 26.0 75.75 22.0Q71.0 18.0 71.0 16.0Z" fill="black" /></svg>