<svg xmlns="http://www.w3.org/2000/svg" width="695.0" height="387.5" viewBox="0 0 695.0 387.5"><path d="M195.0 324.5Q190.0 324.5 188.5 318.5V332.5Q189.5 340.5 190.0 345.5Q190.5 350.5 190.5 350.5Q191.5 350.0 192.5 349.5Q193.5 349.0 194.5 348.5Q197.0 347.5 200.25 345.75Q203.5 344.0 207.0 342.0Q213.0 339.0 222.75 335.25Q232.5 331.5 239.0 331.5Q236.5 329.0 228.75 326.25Q221.0 323.5 213.0 321.5Q205.0 319.5 201.5 319.5Q201.0 324.5 195.0 324.5ZM43.0 226.0 40.0 224.5Q35.0 221.5 30.0 218.75Q25.0 216.0 23.5 215.5Q24.0 217.5 24.0 222.25Q24.0 227.0 24.0 233.5V249.5Q24.5 249.0 26.5 248.0Q28.5 247.0 29.0 246.5L32.5 244.0Q34.0 243.0 35.5 242.25Q37.0 241.5 38.5 240.5Q41.0 239.0 43.5 237.5Q46.0 236.0 47.5 235.5Q53.0 233.0 53.0 232.5Q53.0 232.0 43.0 226.0ZM293.0 278.0Q293.0 274.5 291.0 274.5H290.5Q290.5 275.5 291.0 277.0Q291.5 278.5 292.0 278.5Q293.0 278.5 293.0 278.0ZM40.0 118.5Q35.5 115.5 31.25 113.25Q27.0 111.0 24.5 110.5Q25.0 111.5 25.0 115.5Q25.0 122.0 25.75 130.5Q26.5 139.0 27.5 140.5Q30.5 139.5 37.0 136.5Q43.5 133.5 49.25 130.25Q55.0 127.0 55.0 126.0Q55.0 125.5 50.75 123.5Q46.5 121.5 40.0 118.5ZM437.5 138.0Q431.0 134.5 427.25 133.25Q423.5 132.0 423.5 132.0V163.5L442.5 156.0Q459.0 149.5 463.0 146.0Q456.5 145.5 449.75 143.0Q443.0 140.5 437.5 138.0ZM453.5 233.5Q449.0 231.5 445.0 229.75Q441.0 228.0 438.0 227.0Q436.0 226.0 434.75 225.5Q433.5 225.0 432.5 224.5Q432.5 225.5 432.25 229.5Q432.0 233.5 432.0 238.5V255.0Q435.5 254.5 445.0 251.5Q454.5 248.5 463.0 245.25Q471.5 242.0 471.5 241.5Q471.5 241.0 466.0 238.75Q460.5 236.5 453.5 233.5ZM245.5 139.0 240.5 136.5Q238.5 135.5 237.0 135.0Q235.5 134.5 234.5 134.5Q233.0 134.5 231.0 137.5Q231.0 138.0 230.75 138.75Q230.5 139.5 230.5 140.0Q230.5 142.5 235.0 142.5Q239.0 142.5 241.5 140.5Q243.5 140.0 245.5 139.0ZM636.5 146.0Q631.5 148.0 612.75 149.25Q594.0 150.5 567.0 150.5Q538.5 150.5 521.75 151.25Q505.0 152.0 494.25 153.75Q483.5 155.5 472.0 159.0Q452.0 165.0 441.5 169.5Q431.0 174.0 427.25 178.5Q423.5 183.0 423.5 189.5Q423.5 197.0 427.0 201.25Q430.5 205.5 440.0 212.5Q451.0 219.0 462.0 222.75Q473.0 226.5 490.0 228.25Q507.0 230.0 535.5 230.0H563.0L639.0 228.5L638.5 184.5Q638.5 174.0 638.0 164.5Q637.5 155.0 636.5 146.0ZM195.0 51.0 195.5 48.5Q195.5 47.5 195.75 46.25Q196.0 45.0 196.0 44.0Q196.0 41.5 192.0 41.5Q188.0 41.5 188.0 44.5Q188.0 49.0 189.5 57.5Q190.5 61.5 191.0 64.75Q191.5 68.0 192.0 70.0Q192.5 71.5 192.25 72.0Q192.0 72.5 192.0 72.5Q193.0 61.0 195.0 51.0ZM244.0 49.5Q240.5 48.5 237.25 47.25Q234.0 46.0 231.0 45.0L228.5 44.0Q228.0 43.5 227.75 43.5Q227.5 43.5 227.0 43.0V44.0Q228.0 47.0 229.0 52.5Q230.0 58.0 230.0 63.5V70.0L243.0 63.5Q245.5 61.5 248.25 60.0Q251.0 58.5 252.5 57.5Q254.5 56.5 255.5 56.0Q256.5 55.5 257.0 55.5Q256.0 55.0 252.25 53.25Q248.5 51.5 244.0 49.5ZM433.0 33.0Q433.5 32.5 433.5 31.0Q433.5 30.0 429.5 29.75Q425.5 29.5 413.0 29.5Q403.5 29.5 397.25 29.25Q391.0 29.0 391.0 29.0Q391.5 29.5 391.75 31.0Q392.0 32.5 392.5 33.5Q397.0 42.5 400.25 52.75Q403.5 63.0 406.0 73.0L407.0 77.0Q410.5 88.0 412.0 92.0Q414.5 84.0 419.0 71.5Q423.5 59.0 427.5 47.75Q431.5 36.5 433.0 33.0ZM665.0 49.0Q663.0 49.5 657.0 49.5Q651.0 49.5 643.0 49.5H632.0Q623.0 49.5 623.0 52.5Q623.0 55.0 625.25 61.0Q627.5 67.0 631.0 77.0Q631.5 78.5 632.25 80.0Q633.0 81.5 633.5 83.0L642.0 105.0L643.0 99.0Q644.0 93.5 648.0 83.75Q652.0 74.0 655.5 66.5L657.0 63.5Q658.0 61.5 659.0 59.75Q660.0 58.0 661.0 56.5Q662.5 54.0 663.5 51.75Q664.5 49.5 665.0 49.0ZM10.5 234.0Q10.0 227.0 10.0 221.0Q10.0 215.0 10.0 210.0Q10.0 194.0 13.0 194.0Q18.0 194.0 28.0 202.5Q32.5 206.0 42.0 211.25Q51.5 216.5 60.0 220.5Q69.0 224.5 76.75 226.75Q84.5 229.0 96.5 230.0Q108.5 231.0 129.5 231.0Q153.0 231.0 167.25 232.75Q181.5 234.5 181.5 237.0Q181.5 240.0 164.75 242.0Q148.0 244.0 117.5 244.0Q91.5 244.0 77.75 244.75Q64.0 245.5 57.25 247.0Q50.5 248.5 44.5 252.0Q39.5 255.5 33.75 260.0Q28.0 264.5 25.5 268.0Q20.0 276.0 15.5 276.0H14.5Q13.0 275.0 11.75 262.25Q10.5 249.5 10.5 234.0ZM204.5 209.0Q204.5 199.0 205.75 195.0Q207.0 191.0 212.5 191.0Q215.0 191.0 219.25 192.25Q223.5 193.5 229.5 196.0Q235.5 199.0 247.75 200.5Q260.0 202.0 273.0 202.0Q285.5 202.0 294.5 203.5Q303.5 205.0 305.5 207.5Q305.5 206.5 305.5 205.5Q305.5 204.5 305.5 203.5Q305.5 194.0 308.5 190.5Q309.5 189.0 312.5 189.0Q317.5 189.0 328.0 192.5Q334.0 194.5 347.5 196.0Q361.0 197.5 374.0 198.5Q388.0 198.5 397.5 200.25Q407.0 202.0 407.0 204.5Q407.0 208.0 397.25 209.75Q387.5 211.5 372.0 211.5Q356.5 211.5 344.75 213.25Q333.0 215.0 327.5 217.5Q319.0 221.0 311.0 221.0Q307.0 218.0 306.0 210.5Q304.0 213.0 293.75 214.25Q283.5 215.5 268.5 215.5Q250.0 215.5 240.25 217.0Q230.5 218.5 226.5 221.0Q219.0 227.0 213.5 227.0Q204.5 227.0 204.5 209.0ZM12.0 129.5V121.5Q12.0 107.0 13.5 98.25Q15.0 89.5 17.0 89.5Q21.5 89.5 31.5 97.5Q45.0 108.0 57.0 113.75Q69.0 119.5 85.75 121.75Q102.5 124.0 129.5 125.0Q154.5 126.0 168.5 127.75Q182.5 129.5 184.5 132.5Q184.0 115.0 183.0 102.0Q182.0 89.0 181.0 84.0L171.0 25.0L191.5 27.5Q201.5 28.5 207.0 30.0H209.5Q210.5 30.5 213.5 30.5Q213.5 31.5 211.75 40.75Q210.0 50.0 207.5 60.0Q205.5 70.0 204.0 86.25Q202.5 102.5 202.0 128.5Q201.5 154.5 201.5 195.0V303.0L215.5 308.0Q230.5 314.5 242.75 318.5Q255.0 322.5 268.25 324.5Q281.5 326.5 299.25 327.0Q317.0 327.5 343.0 327.5H410.5V283.0L357.5 285.0Q336.0 285.5 316.5 287.0Q297.0 288.5 291.5 289.5Q288.0 291.0 284.5 291.0Q278.0 291.0 276.75 284.0Q275.5 277.0 275.5 272.0Q275.5 263.0 278.0 261.5Q279.5 261.0 281.5 261.0Q289.0 261.0 307.5 265.0Q317.5 267.5 335.5 269.25Q353.5 271.0 372.0 271.0H410.5L409.0 146.0H345.5Q328.0 146.5 310.5 147.25Q293.0 148.0 280.0 148.5Q267.0 149.0 262.0 150.0Q255.5 151.5 246.75 153.5Q238.0 155.5 233.5 156.5L217.5 160.5V140.0Q217.5 133.0 218.5 127.5Q219.5 122.0 223.0 122.0Q224.0 122.0 226.5 122.5Q229.0 123.0 233.0 124.0L235.0 124.5Q262.5 129.5 290.5 131.5Q318.5 133.5 346.0 133.5H364.0Q388.5 133.5 397.75 132.5Q407.0 131.5 407.0 127.0Q407.0 123.0 403.0 112.5L402.0 110.0Q400.5 106.0 398.25 97.0Q396.0 88.0 394.5 81.0L390.5 66.0H329.5Q297.0 66.0 279.0 67.5Q261.0 69.0 251.25 73.0Q241.5 77.0 233.5 85.5Q226.0 93.0 221.5 93.0Q219.5 93.0 218.5 92.0Q217.0 90.5 216.0 77.25Q215.0 64.0 215.0 51.0Q215.0 40.5 216.25 32.5Q217.5 24.5 220.0 24.5Q221.0 24.5 227.25 27.25Q233.5 30.0 240.25 33.0Q247.0 36.0 249.0 37.5Q261.0 43.5 269.75 46.5Q278.5 49.5 292.25 50.25Q306.0 51.0 332.0 52.0H356.5Q360.5 52.5 364.5 52.5Q368.5 52.5 372.0 52.5Q377.5 52.5 380.75 52.75Q384.0 53.0 385.5 53.5Q385.0 52.5 384.25 50.0Q383.5 47.5 382.5 45.0Q382.0 43.5 381.25 42.0Q380.5 40.5 380.5 39.0Q378.5 32.5 376.5 26.25Q374.5 20.0 374.5 16.5Q374.5 10.0 379.0 10.0Q381.0 10.0 385.0 12.5Q389.0 13.5 400.0 15.0Q411.0 16.5 423.5 16.5Q437.0 16.5 445.75 18.0Q454.5 19.5 454.5 22.0V23.0Q440.0 53.5 433.75 69.75Q427.5 86.0 426.5 98.0Q426.5 106.5 427.25 111.0Q428.0 115.5 431.5 118.5Q435.0 121.5 442.5 126.5Q448.5 129.5 454.25 131.25Q460.0 133.0 470.0 133.75Q480.0 134.5 498.25 135.25Q516.5 136.0 547.5 136.5Q581.5 137.0 605.5 138.75Q629.5 140.5 636.0 143.0Q631.0 99.5 609.5 59.5Q603.0 45.0 603.0 40.0Q603.0 36.5 606.0 36.5Q609.0 36.5 621.25 36.75Q633.5 37.0 647.75 37.25Q662.0 37.5 673.0 38.25Q684.0 39.0 684.5 40.0L685.0 41.5Q685.0 43.0 682.25 47.75Q679.5 52.5 675.5 58.0Q668.0 67.5 663.75 77.0Q659.5 86.5 657.5 101.0Q655.5 115.5 654.75 140.25Q654.0 165.0 654.0 205.5Q654.0 255.0 652.5 281.5Q651.0 308.0 647.5 308.0Q645.0 308.0 642.75 298.5Q640.5 289.0 640.5 273.5V244.0H574.5Q539.5 244.0 516.25 246.0Q493.0 248.0 475.25 253.25Q457.5 258.5 438.5 268.5Q431.0 272.0 428.0 274.5Q425.0 277.0 424.25 282.25Q423.5 287.5 423.5 300.0Q423.5 309.5 424.75 317.25Q426.0 325.0 427.0 326.0Q431.5 329.5 431.5 332.0Q431.5 337.0 410.75 339.0Q390.0 341.0 339.5 341.0Q302.0 341.0 277.75 342.0Q253.5 343.0 238.75 345.5Q224.0 348.0 214.5 352.5Q205.0 357.0 197.0 364.5Q191.5 369.5 186.5 373.5Q181.5 377.5 181.5 377.5Q179.5 375.5 178.25 366.25Q177.0 357.0 176.0 344.75Q175.0 332.5 174.5 321.75Q174.0 311.0 174.0 306.5Q174.0 298.0 175.25 295.25Q176.5 292.5 180.0 292.5Q181.0 292.5 184.0 293.5Q184.5 294.0 186.0 294.0Q187.5 294.0 188.0 289.25Q188.5 284.5 188.5 268.5Q188.5 261.5 188.25 251.75Q188.0 242.0 188.0 229.5Q187.5 223.5 187.5 216.75Q187.5 210.0 187.5 202.5Q187.0 185.0 186.5 167.5Q186.0 150.0 185.0 134.5Q183.0 138.0 169.0 138.0Q165.5 138.0 161.25 137.75Q157.0 137.5 151.5 137.5L148.5 137.0Q142.0 136.5 133.25 136.25Q124.5 136.0 115.5 136.0Q106.5 136.0 98.25 136.25Q90.0 136.5 84.0 137.0Q70.0 138.0 62.75 139.75Q55.5 141.5 50.25 145.0Q45.0 148.5 37.0 155.5Q20.0 170.0 15.5 170.0L14.5 169.5Q13.5 165.5 13.0 157.75Q12.5 150.0 12.25 141.75Q12.0 133.5 12.0 129.5ZM306.0 167.5Q306.0 160.0 307.0 157.25Q308.0 154.5 312.5 154.5Q313.5 154.5 314.75 154.5Q316.0 154.5 318.0 155.0L319.5 155.5Q324.0 156.5 338.0 158.5Q352.0 160.5 366.0 161.5Q380.0 163.0 391.0 165.0Q402.0 167.0 404.5 168.5L405.0 168.0L406.0 169.5Q406.0 171.5 396.25 173.5Q386.5 175.5 372.5 175.5Q356.5 175.5 344.75 176.75Q333.0 178.0 328.0 181.0Q319.0 185.0 315.0 185.0Q306.0 185.0 306.0 167.5ZM309.5 226.0 311.0 224.5Q312.5 223.0 314.0 223.0Q316.0 223.0 322.0 225.5L330.5 228.5Q337.0 231.5 349.0 233.0Q361.0 234.5 375.0 234.5Q389.5 234.5 398.25 236.0Q407.0 237.5 407.0 241.5Q407.0 245.0 397.0 246.5Q387.0 248.0 371.0 248.0Q354.5 248.0 342.75 249.5Q331.0 251.0 326.0 254.0Q316.5 258.0 312.5 258.0Q310.5 258.0 308.5 257.0Q307.5 255.5 306.75 251.25Q306.0 247.0 306.0 242.5Q306.0 237.5 306.75 232.75Q307.5 228.0 309.5 226.0ZM221.0 209.0Q221.0 211.5 222.0 211.5V210.5Q221.0 210.5 219.5 207.0V206.5L219.0 207.0Q221.0 207.0 221.0 209.0Z" fill="black" /></svg>