<svg xmlns="http://www.w3.org/2000/svg" width="685.0" height="383.5" viewBox="0 0 685.0 383.5"><path d="M56.0 299.0Q48.0 296.5 41.75 294.75Q35.5 293.0 34.5 293.0Q34.5 293.0 34.0 299.75Q33.5 306.5 33.0 315.0V323.0Q33.0 336.0 36.0 336.0Q38.0 336.0 39.0 335.5Q49.0 333.0 64.25 330.5Q79.5 328.0 96.0 325.25Q112.5 322.5 125.75 321.0Q139.0 319.5 144.0 319.5Q149.5 319.5 154.0 318.5Q158.5 317.5 159.0 316.0Q144.0 316.0 125.25 313.75Q106.5 311.5 88.25 307.5Q70.0 303.5 56.0 299.0ZM80.0 139.0 81.0 137.5Q82.0 136.5 82.25 135.75Q82.5 135.0 82.5 135.0H52.0L59.5 150.0Q62.0 155.5 63.75 159.0Q65.5 162.5 66.0 163.5Q67.0 160.5 68.0 159.0Q69.5 154.0 73.0 148.25Q76.5 142.5 80.0 139.0ZM115.5 168.5Q104.5 143.0 98.5 143.0Q97.0 143.0 94.5 145.25Q92.0 147.5 89.5 150.5Q80.5 163.5 78.75 177.5Q77.0 191.5 77.0 207.5Q77.0 224.0 77.75 242.5Q78.5 261.0 79.5 274.75Q80.5 288.5 81.0 291.0Q82.0 291.5 89.5 292.75Q97.0 294.0 107.0 295.0L130.5 297.5L127.0 245.5Q125.5 216.0 122.75 198.25Q120.0 180.5 115.5 168.5ZM138.0 148.0 145.5 135.0H115.0L122.5 150.0Q124.0 154.0 125.5 158.5Q127.0 163.0 127.5 165.0Q129.5 163.0 133.0 156.0Q134.0 154.0 135.25 152.0Q136.5 150.0 138.0 148.0ZM267.0 220.0Q264.5 216.5 260.5 213.5Q258.0 211.0 256.0 210.0V227.5Q256.0 227.5 256.75 227.0Q257.5 226.5 258.5 226.0L263.0 222.5Q264.0 221.5 265.0 221.0Q266.0 220.5 267.0 220.0ZM334.5 209.0 333.0 205.5V207.5Q333.0 208.5 333.75 210.0Q334.5 211.5 335.0 211.5V210.5Q335.0 209.0 334.5 209.0ZM340.5 225.5H337.5Q335.0 225.5 334.0 227.5Q333.0 229.5 333.0 232.0Q333.5 231.5 334.25 231.0Q335.0 230.5 335.5 230.0Q338.0 228.0 339.25 226.75Q340.5 225.5 340.5 225.5ZM319.0 241.5V225.5H302.0Q291.5 225.5 284.0 228.75Q276.5 232.0 267.5 239.5L251.0 253.5L253.5 280.0L257.5 306.0H498.5Q497.5 305.0 495.25 303.25Q493.0 301.5 489.0 298.5Q485.0 295.5 479.5 291.25Q474.0 287.0 468.0 282.5Q454.0 272.0 445.5 267.25Q437.0 262.5 429.0 261.0Q421.0 259.5 408.0 259.5Q395.0 259.5 386.5 257.75Q378.0 256.0 378.0 253.5Q378.0 252.5 383.0 247.5Q388.0 242.5 396.0 238.0Q403.0 234.0 408.25 230.5Q413.5 227.0 413.5 226.0Q413.5 226.0 405.75 225.75Q398.0 225.5 387.5 225.5Q375.5 225.5 369.25 226.5Q363.0 227.5 358.25 231.25Q353.5 235.0 345.5 243.5Q338.5 250.5 331.75 256.0Q325.0 261.5 324.0 261.5Q322.0 261.5 320.5 255.75Q319.0 250.0 319.0 241.5ZM437.5 239.0 437.0 238.0Q435.5 231.0 434.0 231.0Q431.5 231.0 422.5 238.5L416.5 243.0L425.5 244.5Q432.5 246.0 439.0 246.0Q439.0 244.0 437.5 239.0ZM531.5 232.5V230.5Q530.0 221.5 528.5 221.5Q527.5 221.5 523.5 224.25Q519.5 227.0 515.75 230.0Q512.0 233.0 511.0 234.5Q511.5 235.0 512.25 235.0Q513.0 235.0 513.5 235.5Q522.0 239.0 526.5 239.0Q531.0 239.0 532.0 233.5ZM251.5 95.5Q255.5 87.0 256.5 82.0Q256.0 82.0 254.75 82.25Q253.5 82.5 252.5 82.5Q250.5 83.0 248.5 83.25Q246.5 83.5 244.0 83.5Q243.5 84.0 241.0 84.25Q238.5 84.5 237.5 84.5L227.5 85.5L233.5 103.5Q236.5 111.5 239.0 116.75Q241.5 122.0 242.5 124.0Q242.5 118.0 245.75 109.25Q249.0 100.5 251.5 95.5ZM610.5 116.0 600.5 79.5 286.0 77.0 273.5 90.0Q266.0 97.5 261.25 109.5Q256.5 121.5 254.0 134.5Q251.5 147.5 251.5 158.0Q251.5 181.0 263.75 194.0Q276.0 207.0 297.5 210.0L319.0 212.5V192.0Q319.0 166.0 327.0 166.0Q332.0 166.0 335.0 178.0Q336.0 182.5 339.0 188.25Q342.0 194.0 345.5 198.0Q350.5 205.0 359.0 207.0Q367.5 209.0 390.5 211.0L426.5 213.5L427.0 205.0V178.0Q427.0 177.0 426.75 175.75Q426.5 174.5 426.5 173.5V171.0Q426.5 163.0 432.5 163.0Q436.5 163.0 440.0 164.5Q444.5 165.5 459.75 167.0Q475.0 168.5 492.0 169.5Q508.0 170.0 520.5 172.0Q533.0 174.0 535.0 176.5V176.0Q535.0 164.0 534.25 159.75Q533.5 155.5 531.5 155.5H530.0Q526.5 156.0 510.75 157.5Q495.0 159.0 476.0 160.0L426.5 162.0V147.5Q426.5 140.5 427.75 138.0Q429.0 135.5 433.0 135.5Q436.5 135.5 440.0 137.0Q446.0 138.5 459.0 140.0Q472.0 141.5 487.0 142.25Q502.0 143.0 513.5 143.0H530.5Q529.5 136.0 517.5 132.0Q505.5 128.0 487.0 128.0Q469.5 128.0 449.0 132.5L425.5 136.5L427.5 121.5Q429.0 107.5 437.0 107.5H439.0Q448.5 110.0 462.5 112.0Q476.5 114.0 491.25 115.0Q506.0 116.0 516.0 116.0Q515.5 114.0 514.25 111.25Q513.0 108.5 511.5 106.5Q508.5 102.5 506.25 98.25Q504.0 94.0 504.0 92.0Q504.0 89.5 511.5 88.25Q519.0 87.0 530.5 87.0Q532.5 87.0 539.0 87.25Q545.5 87.5 553.0 88.0Q560.5 88.5 566.0 90.0Q571.5 91.5 571.5 94.0Q571.5 96.0 568.25 101.75Q565.0 107.5 559.5 113.5Q556.0 118.0 553.75 121.75Q551.5 125.5 550.5 132.5Q549.5 139.5 549.25 152.25Q549.0 165.0 549.0 187.0V248.0L577.5 270.5Q590.0 279.5 598.75 288.25Q607.5 297.0 607.5 299.5Q607.5 305.0 603.0 305.0Q600.0 305.0 595.0 301.0Q594.5 300.0 592.5 298.75Q590.5 297.5 588.0 295.5Q585.5 294.0 582.5 291.75Q579.5 289.5 576.0 287.0Q571.5 283.5 566.25 279.75Q561.0 276.0 555.5 272.0Q543.5 263.0 536.25 258.5Q529.0 254.0 523.0 252.75Q517.0 251.5 508.0 251.5H495.5Q485.5 251.5 478.75 250.0Q472.0 248.5 472.0 246.0Q472.0 244.0 478.5 238.5Q485.0 233.0 493.5 228.0Q501.5 223.0 507.0 218.75Q512.5 214.5 512.5 213.0Q512.5 213.0 508.5 212.75Q504.5 212.5 498.5 212.5Q486.0 212.5 471.5 214.5Q457.0 216.5 453.0 219.5Q452.5 220.0 452.0 222.75Q451.5 225.5 451.5 228.0Q451.5 230.0 451.75 232.75Q452.0 235.5 452.5 238.0Q454.5 247.5 461.0 255.25Q467.5 263.0 484.0 276.0Q496.0 286.0 504.5 294.25Q513.0 302.5 513.0 304.5Q513.0 305.0 528.75 305.5Q544.5 306.0 566.5 306.0H621.0L620.5 231.0Q620.5 199.0 619.5 179.25Q618.5 159.5 616.25 145.0Q614.0 130.5 610.5 116.0ZM535.0 198.0V178.5Q533.0 180.5 520.5 182.75Q508.0 185.0 492.0 186.0Q440.0 188.5 440.0 193.0Q440.0 198.0 494.0 198.0ZM167.5 61.5Q154.0 58.0 142.5 55.0Q131.0 52.0 128.5 51.5H128.0Q127.5 51.5 126.5 56.75Q125.5 62.0 124.5 70.0V73.0Q124.0 75.5 124.0 77.75Q124.0 80.0 124.0 82.0Q124.0 89.0 130.0 89.0Q135.0 89.0 143.5 87.25Q152.0 85.5 165.5 82.5L170.5 81.5Q195.0 76.0 201.5 72.5Q192.5 67.0 167.5 61.5ZM532.5 113.0 536.0 120.5 542.5 111.0Q545.5 105.5 545.5 105.0Q545.5 104.5 538.5 103.5L537.0 103.0Q535.0 102.5 532.75 102.5Q530.5 102.5 529.0 102.5H527.0Q527.0 104.5 532.5 113.0ZM651.5 29.0Q650.0 29.5 647.5 29.5Q645.0 29.5 641.5 29.5Q638.0 29.5 633.5 29.5Q629.0 29.5 624.0 29.0L596.5 28.5L601.5 41.0Q604.5 48.5 608.75 61.0Q613.0 73.5 616.0 83.5Q623.0 108.0 625.0 108.0Q625.0 108.0 625.25 105.5Q625.5 103.0 625.5 98.0Q625.5 91.0 630.5 77.5Q635.5 64.0 641.75 50.0Q648.0 36.0 651.5 29.0ZM575.5 15.0Q575.5 10.0 582.0 10.0Q585.5 10.0 589.0 11.5Q593.0 13.0 603.75 13.75Q614.5 14.5 627.5 14.5H651.0Q662.0 14.5 668.5 15.25Q675.0 16.0 675.0 18.0Q675.0 19.0 671.0 26.5Q667.0 34.0 661.5 42.5Q654.0 55.0 649.0 67.25Q644.0 79.5 641.0 95.0Q638.0 110.5 636.75 133.0Q635.5 155.5 635.5 188.0Q635.5 200.5 635.5 215.0Q635.5 229.5 636.0 246.5V292.5Q636.0 373.5 630.5 373.5Q626.0 373.5 623.0 344.0L620.0 319.0L418.5 321.5Q357.5 322.0 313.75 322.75Q270.0 323.5 237.25 325.0Q204.5 326.5 177.5 329.0Q150.5 331.5 124.0 335.25Q97.5 339.0 65.5 344.5L56.5 346.0Q48.5 348.0 37.5 350.0Q26.5 352.0 18.0 352.0Q10.0 352.0 10.0 346.5Q10.0 343.0 14.5 336.0L15.5 333.5Q20.5 325.0 20.5 312.0Q20.5 309.0 20.5 305.5Q20.5 302.0 20.0 298.5Q18.5 291.0 18.5 284.5Q18.5 275.0 26.0 275.0Q29.0 275.0 34.25 276.75Q39.5 278.5 46.0 281.0Q51.5 282.5 56.5 283.75Q61.5 285.0 64.0 285.5V272.0Q64.0 237.5 60.0 202.75Q56.0 168.0 36.0 138.5Q26.5 126.5 26.5 123.0Q26.5 121.5 47.75 120.25Q69.0 119.0 98.0 119.0Q128.0 119.5 149.25 121.25Q170.5 123.0 170.5 125.5Q170.5 127.0 166.75 133.25Q163.0 139.5 157.5 146.5Q148.0 156.5 143.75 170.25Q139.5 184.0 139.5 209.0Q139.5 216.5 140.0 225.5Q140.5 234.5 141.0 245.0L144.5 300.5L163.0 303.0Q171.0 304.0 186.0 305.0Q201.0 306.0 213.5 306.0H241.0L239.0 235.5Q237.5 184.5 232.75 153.0Q228.0 121.5 217.0 102.0Q214.5 96.5 211.0 93.75Q207.5 91.0 200.5 91.0Q193.5 91.0 181.5 93.25Q169.5 95.5 150.5 100.0Q136.0 103.5 124.0 105.5Q112.0 107.5 108.5 107.5H105.5Q104.0 105.0 104.0 103.0Q104.0 99.5 106.5 93.0L107.0 91.5Q110.0 86.0 110.5 75.0Q111.0 64.0 111.0 58.0Q111.0 55.5 111.0 53.5Q111.0 51.5 110.5 49.5V43.0Q110.5 31.5 114.0 31.5Q115.0 31.5 126.5 34.5Q138.0 37.5 152.0 42.5Q171.5 48.5 193.0 52.5Q214.5 56.5 244.75 58.75Q275.0 61.0 319.75 62.0Q364.5 63.0 430.5 63.0H593.5L591.5 55.5Q590.5 51.5 587.5 45.0Q584.5 38.5 582.0 33.5Q579.5 28.0 577.5 22.25Q575.5 16.5 575.5 15.0ZM441.0 122.0V122.5L440.5 122.0L441.0 122.5ZM441.0 148.5V149.0L440.5 148.5L441.0 149.0ZM441.0 207.0V208.0Z" fill="black" /></svg>