<svg xmlns="http://www.w3.org/2000/svg" width="643.5" height="461.5" viewBox="0 0 643.5 461.5"><path d="M108.5 116.5Q112.0 113.0 113.0 111.5Q108.0 114.0 99.75 119.0Q91.5 124.0 78.5 131.0L49.5 149.0L63.5 151.0Q72.0 152.5 78.5 153.5Q85.0 154.5 88.5 154.5Q94.0 154.5 95.0 152.0Q96.0 149.5 96.0 145.5Q96.0 140.0 99.75 131.5Q103.5 123.0 108.5 116.5ZM235.0 148.5 235.5 147.5V146.5Q237.0 145.0 237.0 145.0Q237.0 143.0 219.0 143.0H196.0L204.5 161.5Q206.0 167.5 209.0 171.0Q211.5 176.5 213.25 181.0Q215.0 185.5 215.5 189.0Q216.0 191.0 216.0 190.75Q216.0 190.5 216.0 190.5Q219.0 179.0 224.25 168.5Q229.5 158.0 235.0 148.5ZM381.0 141.0Q359.5 133.5 341.75 130.0Q324.0 126.5 309.5 126.5Q288.0 126.5 273.75 135.75Q259.5 145.0 248.0 162.5Q240.0 178.5 233.5 201.75Q227.0 225.0 223.0 248.25Q219.0 271.5 219.0 287.5Q219.0 295.5 219.75 301.0Q220.5 306.5 221.5 306.5Q225.5 306.5 243.25 302.0Q261.0 297.5 288.25 290.0Q315.5 282.5 347.25 273.5Q379.0 264.5 411.25 255.0Q443.5 245.5 471.75 236.75Q500.0 228.0 519.5 221.5Q539.0 215.0 545.0 212.0Q540.5 209.0 526.5 202.0Q512.5 195.0 493.0 186.25Q473.5 177.5 452.25 168.5Q431.0 159.5 412.25 152.0Q393.5 144.5 381.0 141.0ZM413.0 131.0 384.0 105.0Q381.0 102.0 374.75 95.75Q368.5 89.5 361.75 82.0Q355.0 74.5 350.0 67.75Q345.0 61.0 345.0 56.5Q340.5 56.5 317.0 85.0L296.5 107.0L323.0 110.0Q332.5 110.5 345.0 112.75Q357.5 115.0 370.0 118.25Q382.5 121.5 391.5 125.0ZM201.0 334.0V333.5Q200.5 331.5 199.25 330.75Q198.0 330.0 193.5 330.0Q189.0 330.0 180.0 331.0Q171.0 332.0 157.0 334.0L148.5 335.0Q127.0 337.5 108.0 337.5Q104.0 337.5 100.5 337.25Q97.0 337.0 94.5 336.5L80.0 334.5L87.5 355.0Q91.0 364.5 93.5 376.25Q96.0 388.0 96.0 393.5V403.0L107.0 396.0Q114.0 390.5 131.0 380.5Q148.0 370.5 164.0 361.5Q179.0 352.5 190.0 344.5Q201.0 336.5 201.0 334.0ZM243.5 321.0Q246.0 320.0 247.5 319.25Q249.0 318.5 250.5 318.0Q242.5 318.5 232.75 321.5Q223.0 324.5 220.5 327.0Q224.5 326.5 230.75 325.0Q237.0 323.5 243.5 321.0ZM324.5 33.5Q324.5 26.5 329.25 18.25Q334.0 10.0 342.0 10.0Q351.0 10.0 351.0 25.0Q351.0 37.0 363.5 54.5Q376.0 72.0 396.5 91.75Q417.0 111.5 442.25 130.75Q467.5 150.0 493.25 165.75Q519.0 181.5 541.75 191.0Q564.5 200.5 579.5 200.5Q580.5 200.5 581.0 200.0Q581.5 199.5 582.0 199.5H583.5Q586.0 199.0 589.0 198.75Q592.0 198.5 594.0 198.5Q606.5 198.5 606.5 206.0Q606.5 211.0 599.0 215.0H598.5Q599.0 217.0 603.25 219.5Q607.5 222.0 614.0 225.5Q633.5 236.5 633.5 242.0Q633.5 246.5 627.5 246.5Q624.0 246.5 616.25 244.25Q608.5 242.0 597.5 237.0L571.0 223.0L481.5 251.5Q374.5 284.0 288.0 321.25Q201.5 358.5 130.5 402.5Q113.5 412.0 101.0 422.5Q88.5 433.0 87.5 436.5Q85.5 443.0 81.5 447.25Q77.5 451.5 75.0 451.5Q69.0 451.5 66.0 446.75Q63.0 442.0 63.0 435.5Q63.0 431.5 64.5 426.5Q66.0 421.5 69.5 418.0Q78.0 409.0 78.0 394.0Q78.0 384.5 74.75 372.5Q71.5 360.5 64.5 347.0Q59.5 335.5 56.0 326.5Q52.5 317.5 52.5 314.5Q52.5 312.0 54.0 310.5Q55.5 310.0 57.5 310.0Q61.5 310.0 68.25 311.5Q75.0 313.0 83.0 315.5Q90.5 318.0 97.25 319.5Q104.0 321.0 112.0 321.0Q130.0 321.0 154.0 318.0Q178.0 315.0 196.0 312.5Q198.0 312.0 199.25 312.0Q200.5 312.0 201.0 312.0Q201.0 309.5 200.75 300.5Q200.5 291.5 200.5 279.0Q200.5 263.0 199.0 255.5Q197.5 248.0 192.5 242.75Q187.5 237.5 176.0 229.5Q160.0 218.0 140.25 206.75Q120.5 195.5 100.25 186.25Q80.0 177.0 63.0 171.5Q46.0 166.0 36.0 166.0Q10.0 166.0 10.0 156.5Q10.0 147.0 38.0 134.0Q46.5 130.0 60.5 121.75Q74.5 113.5 90.5 103.5Q106.5 93.5 121.5 84.0Q141.0 70.0 157.25 61.75Q173.5 53.5 178.5 53.5Q183.0 53.5 183.0 57.0Q183.0 60.5 178.0 67.25Q173.0 74.0 167.5 78.0Q160.0 84.5 150.75 95.0Q141.5 105.5 133.25 116.25Q125.0 127.0 119.5 136.0Q114.0 145.0 114.0 149.0Q114.0 156.0 117.0 158.0Q121.0 160.0 121.5 163.25Q122.0 166.5 122.0 170.0Q122.0 172.0 129.25 177.5Q136.5 183.0 148.0 189.5L166.5 200.5Q170.5 202.5 174.25 205.25Q178.0 208.0 181.0 210.5Q184.0 212.5 186.75 214.0Q189.5 215.5 191.5 217.5L193.0 218.5Q198.5 222.5 200.5 222.5Q200.5 203.5 193.5 181.25Q186.5 159.0 171.0 146.5Q165.5 141.0 161.75 135.5Q158.0 130.0 157.0 127.5Q157.0 127.0 157.5 126.75Q158.0 126.5 158.0 126.5Q158.0 125.5 158.5 125.0Q161.0 123.0 172.5 123.0Q184.5 123.0 197.0 124.5H203.0Q207.5 125.0 211.75 125.25Q216.0 125.5 219.5 125.5Q241.0 125.5 257.75 114.75Q274.5 104.0 299.0 78.0Q324.5 50.0 325.5 40.0L325.0 39.0Q324.5 37.0 324.5 33.5Z" fill="black" /></svg>