<svg xmlns="http://www.w3.org/2000/svg" width="427.0" height="452.0" viewBox="0 0 427.0 452.0"><path d="M10.0 335.0V335.5ZM95.0 273.5 91.0 263.0Q87.5 268.5 80.5 278.0Q73.5 287.5 69.5 293.0Q65.0 300.0 59.25 306.75Q53.5 313.5 48.5 318.0Q47.5 320.0 46.0 322.0Q44.5 324.0 43.5 325.0Q48.5 324.5 55.5 324.25Q62.5 324.0 70.5 324.0Q76.5 324.0 82.75 324.25Q89.0 324.5 95.0 325.0L134.0 328.5Q130.5 325.5 127.0 321.75Q123.5 318.0 120.0 314.5Q118.5 313.5 117.0 312.25Q115.5 311.0 114.5 309.0Q109.5 303.5 103.5 292.25Q97.5 281.0 95.0 273.5ZM215.0 277.5 202.5 272.0Q199.0 269.5 193.75 265.25Q188.5 261.0 186.5 257.5L184.0 299.0ZM130.0 119.5 140.5 106.5H105.0L110.0 114.5L121.5 137.0Q122.5 133.0 124.75 128.25Q127.0 123.5 130.0 119.5ZM213.5 204.0 214.5 203.5Q204.5 198.0 200.0 193.5L186.5 183.5L188.0 221.5Q194.5 215.5 201.75 211.25Q209.0 207.0 213.5 204.0ZM332.5 140.5 303.5 128.0H303.0Q301.0 127.0 299.25 126.5Q297.5 126.0 296.5 125.0Q293.0 123.5 289.75 121.75Q286.5 120.0 283.5 119.0Q274.0 114.0 264.75 110.75Q255.5 107.5 244.0 106.0L240.0 105.0H236.0Q230.5 104.5 223.5 104.0Q216.5 103.5 207.0 103.5Q196.0 103.5 188.25 103.75Q180.5 104.0 174.5 105.0Q169.5 106.0 164.75 108.0Q160.0 110.0 154.5 115.0Q145.5 126.0 139.0 137.25Q132.5 148.5 132.5 161.0Q132.5 168.5 132.5 179.25Q132.5 190.0 132.0 202.5V231.0Q131.5 237.5 131.5 243.5Q131.5 249.5 131.5 255.0V297.0Q131.5 299.0 130.5 301.0L151.0 320.0Q157.0 324.0 172.25 332.5Q187.5 341.0 208.25 351.5Q229.0 362.0 251.5 373.25Q274.0 384.5 294.5 394.25Q315.0 404.0 329.75 410.75Q344.5 417.5 349.0 419.5Q348.5 418.0 348.5 412.5V392.0Q348.0 383.5 348.0 372.5Q348.0 361.5 348.0 349.0V282.0H270.5Q258.0 282.0 250.75 282.5Q243.5 283.0 239.0 284.25Q234.5 285.5 228.5 288.0L212.0 297.5Q208.5 301.0 200.25 307.5Q192.0 314.0 184.0 319.5Q176.0 325.0 172.0 325.0H171.5Q167.5 325.0 167.5 316.5Q167.5 314.0 167.5 310.75Q167.5 307.5 168.0 304.0Q168.0 302.0 168.25 300.25Q168.5 298.5 168.5 296.5Q169.0 291.0 169.5 285.5Q170.0 280.0 170.5 273.5V270.0Q171.0 266.5 171.25 263.25Q171.5 260.0 171.5 256.5Q171.5 254.0 171.25 251.0Q171.0 248.0 170.5 244.5Q170.0 242.5 170.0 240.5Q170.0 238.5 170.0 236.0Q170.0 233.5 170.0 231.5Q170.0 229.5 170.5 228.0Q171.0 224.5 171.25 219.25Q171.5 214.0 171.5 209.5V200.5Q171.5 193.5 171.5 187.25Q171.5 181.0 171.0 176.5V163.5Q171.0 149.5 177.0 149.5Q178.5 149.5 186.5 157.5Q191.5 163.0 199.25 170.5Q207.0 178.0 215.0 184.0Q223.0 190.0 228.5 191.0L259.5 192.0H281.0L347.5 192.5Q347.5 192.5 346.25 187.0Q345.0 181.5 343.25 173.75Q341.5 166.0 339.5 160.0Q337.0 153.0 334.75 146.75Q332.5 140.5 332.5 140.5ZM252.0 265.0H348.0L346.5 208.0H271.5Q253.5 208.0 240.25 210.25Q227.0 212.5 215.75 219.25Q204.5 226.0 191.5 239.5L206.5 253.0Q216.5 261.0 225.0 263.25Q233.5 265.5 245.5 265.5Q247.0 265.5 248.5 265.5Q250.0 265.5 252.0 265.0ZM215.0 55.5Q214.0 53.0 213.25 48.25Q212.5 43.5 212.5 43.5Q212.5 43.5 210.75 45.0Q209.0 46.5 204.5 52.5Q200.0 58.5 190.5 72.5L178.5 90.0L180.5 89.0H231.5Q233.5 90.0 237.0 90.0L232.0 84.0Q226.0 78.5 222.25 72.5Q218.5 66.5 215.0 55.5ZM385.5 57.0Q382.0 57.5 373.25 57.5Q364.5 57.5 353.0 57.5Q338.5 57.5 329.5 58.25Q320.5 59.0 320.5 60.0Q320.5 61.5 323.75 68.25Q327.0 75.0 331.0 82.0Q333.5 88.0 336.0 98.0Q338.5 108.0 340.5 116.5Q341.0 118.5 341.25 120.0Q341.5 121.5 342.0 123.5L343.0 126.5L354.0 131.5Q356.5 120.0 361.25 107.5Q366.0 95.0 371.5 85.0Q377.5 76.0 381.25 67.5Q385.0 59.0 385.5 57.0ZM193.0 40.5Q201.5 27.5 209.25 18.75Q217.0 10.0 219.0 10.0Q222.0 10.0 224.75 15.25Q227.5 20.5 227.5 30.0V32.0Q230.5 48.0 234.75 59.0Q239.0 70.0 250.0 79.5Q261.0 89.0 285.0 100.0Q301.0 108.0 313.5 113.75Q326.0 119.5 326.0 119.5Q325.0 113.0 320.75 101.5Q316.5 90.0 309.0 76.0Q306.0 67.0 301.0 59.5L298.0 53.5Q296.5 49.0 295.25 46.0Q294.0 43.0 294.0 42.5Q294.0 39.0 308.0 39.0Q319.0 39.0 336.75 39.5Q354.5 40.0 372.5 41.0Q390.5 42.0 403.25 42.75Q416.0 43.5 417.0 44.0V46.0Q417.0 48.0 414.25 52.5Q411.5 57.0 408.0 61.0Q403.5 66.5 397.0 77.25Q390.5 88.0 384.25 100.25Q378.0 112.5 373.75 123.25Q369.5 134.0 368.5 139.5L389.5 149.5Q390.0 150.0 392.5 151.25Q395.0 152.5 396.0 153.0Q400.5 155.5 404.5 157.75Q408.5 160.0 408.5 163.5V165.5Q408.5 168.5 407.5 170.5Q406.5 172.5 402.5 172.5Q400.5 172.5 395.75 170.75Q391.0 169.0 381.5 164.5L368.0 157.0L365.0 188.0L366.5 441.5L364.0 442.0Q362.0 442.0 349.25 436.5Q336.5 431.0 316.25 421.75Q296.0 412.5 271.5 400.5Q247.5 388.0 223.75 377.0Q200.0 366.0 182.0 358.0Q164.0 350.0 156.0 348.0Q133.5 343.0 108.5 341.75Q83.5 340.5 61.5 340.5Q40.5 340.5 31.5 342.0Q30.5 342.0 28.75 342.25Q27.0 342.5 26.0 343.5H18.5Q12.5 342.5 11.25 340.75Q10.0 339.0 10.0 335.5V334.5L10.5 333.5Q10.5 333.5 18.0 327.25Q25.5 321.0 33.5 312.0L35.0 309.0Q45.0 298.0 54.25 286.75Q63.5 275.5 76.0 256.0Q91.0 232.0 96.5 232.0Q101.5 232.0 102.0 237.0Q103.5 244.0 105.5 253.25Q107.5 262.5 110.0 268.0Q111.0 271.0 113.5 276.0Q116.0 281.0 116.0 281.0Q115.5 274.0 115.5 263.75Q115.5 253.5 115.5 241.5V209.0Q115.5 178.0 109.0 156.0Q102.5 134.0 87.5 108.0Q85.0 102.5 83.25 98.75Q81.5 95.0 81.5 92.5V91.0Q82.5 86.5 90.0 86.5Q92.5 86.5 95.75 86.75Q99.0 87.0 102.5 87.0L120.0 89.0H127.0Q128.5 89.5 130.25 89.75Q132.0 90.0 133.5 90.0Q142.0 90.0 149.5 89.25Q157.0 88.5 157.0 88.5Q160.0 85.0 171.0 71.5Q182.0 58.0 193.0 40.5ZM351.5 149.5V151.5H352.5L351.5 148.5L350.0 149.0Z" fill="black" /></svg>