<svg xmlns="http://www.w3.org/2000/svg" width="581.0" height="390.0" viewBox="0 0 581.0 390.0"><path d="M79.0 160.5H78.5Q72.5 159.5 62.0 156.0Q51.5 152.5 43.0 149.0L27.5 141.0V161.0Q27.5 169.0 27.5 174.75Q27.5 180.5 27.0 183.0Q31.5 182.0 46.0 175.0Q54.5 172.0 63.75 169.0Q73.0 166.0 78.5 165.0Q89.0 162.5 89.0 162.0Q89.0 162.0 86.25 161.5Q83.5 161.0 79.0 160.5ZM106.5 250.5V250.0Q112.0 238.5 118.5 227.25Q125.0 216.0 133.0 205.0Q128.0 205.5 121.0 206.75Q114.0 208.0 107.0 208.0H103.5Q98.5 208.0 94.5 207.75Q90.5 207.5 88.0 207.0H86.0Q87.5 210.5 90.75 217.5Q94.0 224.5 97.5 232.25Q101.0 240.0 103.5 245.25Q106.0 250.5 106.5 250.5ZM204.5 277.0 202.0 276.5 185.0 268.5Q185.0 270.0 184.75 274.25Q184.5 278.5 184.5 284.0V299.5L194.0 296.0Q199.5 293.5 207.0 290.75Q214.5 288.0 220.0 286.0Q223.5 285.0 225.75 284.5Q228.0 284.0 229.0 283.5H224.5Q222.5 283.5 216.25 281.25Q210.0 279.0 204.5 277.0ZM254.5 334.0Q257.0 330.0 259.0 326.25Q261.0 322.5 261.5 320.0Q261.0 320.5 260.5 320.5Q260.0 320.5 259.0 321.0Q257.5 321.5 255.0 322.25Q252.5 323.0 250.0 324.0Q244.5 326.0 237.75 327.25Q231.0 328.5 226.5 328.5H223.5L232.5 338.0Q242.0 351.5 245.0 351.5Q245.5 351.5 248.25 346.25Q251.0 341.0 254.5 334.0ZM253.5 245.0 252.0 243.0Q250.5 240.0 248.0 233.5Q245.5 227.0 244.0 221.5L241.0 213.5L231.0 224.5Q226.0 229.0 222.25 233.0Q218.5 237.0 217.5 238.5Q218.5 239.0 221.5 239.25Q224.5 239.5 228.0 240.5Q230.5 241.0 233.0 241.25Q235.5 241.5 238.0 242.0Q239.5 242.5 240.75 242.5Q242.0 242.5 243.5 243.0Q245.5 243.5 247.0 243.75Q248.5 244.0 250.0 244.5Q251.0 245.0 252.0 245.0Q253.0 245.0 253.5 245.0ZM321.0 198.5Q321.0 198.5 315.75 198.25Q310.5 198.0 303.0 198.0Q292.5 198.0 287.5 199.0Q288.5 201.0 291.0 205.5Q293.5 210.0 295.5 215.5L301.0 227.0L304.5 219.5Q310.0 208.5 316.0 203.5Q318.0 202.0 319.5 200.5Q321.0 199.0 321.0 198.5ZM348.5 207.5Q341.5 198.5 340.0 198.5Q338.5 198.5 332.5 202.0Q323.5 208.5 317.75 221.5Q312.0 234.5 310.0 251.5V261.0Q309.5 263.0 309.5 264.5Q309.5 266.0 309.5 267.5Q309.5 270.5 309.0 271.5Q312.5 269.5 320.25 263.75Q328.0 258.0 335.25 252.25Q342.5 246.5 345.0 244.0L347.0 242.5Q353.5 237.5 357.5 234.0Q361.5 230.5 363.0 228.0H363.5Q362.5 224.5 355.0 216.0L354.0 214.5Q353.0 213.0 351.25 211.0Q349.5 209.0 348.5 207.5ZM405.0 175.5Q403.0 176.0 399.5 177.25Q396.0 178.5 390.5 180.0Q385.5 182.0 376.5 183.25Q367.5 184.5 360.5 184.5Q357.5 185.0 354.5 185.0Q351.5 185.0 349.5 185.0Q346.0 185.0 345.0 184.5Q346.0 186.5 350.0 192.0Q354.0 197.5 358.75 204.0Q363.5 210.5 367.5 215.0Q371.5 219.5 372.5 219.5Q372.5 219.5 373.5 217.75Q374.5 216.0 375.5 214.0Q376.5 212.5 377.5 211.0Q378.5 209.5 379.5 207.5Q382.5 202.5 387.25 196.0Q392.0 189.5 395.5 186.0Q399.0 182.5 401.75 179.75Q404.5 177.0 405.0 175.5ZM116.0 115.5Q109.5 106.5 104.75 97.0Q100.0 87.5 97.0 77.0Q96.0 75.0 96.0 74.5Q94.5 76.0 90.25 81.0Q86.0 86.0 80.5 93.0L66.0 108.0L76.0 109.5Q77.5 110.0 79.0 110.25Q80.5 110.5 82.5 111.0Q88.0 111.5 94.0 113.0Q100.0 114.5 105.0 116.0L118.0 118.5ZM182.5 65.5 187.0 60.5 151.0 58.0 159.5 71.0 170.0 93.0 171.0 87.0Q175.0 74.0 182.5 65.5ZM319.5 120.0H320.0Q319.0 119.5 317.75 119.0Q316.5 118.5 315.5 118.0Q314.0 117.0 312.75 116.5Q311.5 116.0 310.0 115.5Q308.5 114.5 307.25 114.0Q306.0 113.5 305.0 113.0Q305.0 116.0 305.25 125.75Q305.5 135.5 305.75 144.75Q306.0 154.0 306.5 155.5Q307.0 155.0 308.0 155.0Q310.0 154.0 314.5 152.5Q321.5 150.5 329.25 147.75Q337.0 145.0 343.5 142.5L364.0 135.5L353.0 132.5Q345.0 130.5 335.5 126.75Q326.0 123.0 319.5 120.0ZM393.5 87.5Q391.5 84.0 387.0 76.0Q382.5 68.0 380.5 60.5L376.0 46.5L362.5 63.5Q356.0 69.5 351.25 74.75Q346.5 80.0 345.5 81.5Q353.5 81.5 361.75 82.75Q370.0 84.0 378.0 86.5Q391.5 91.0 395.5 91.0Q395.0 90.0 394.5 89.0Q394.0 88.0 393.5 87.5ZM469.5 27.5H461.5Q456.5 27.5 449.25 27.0Q442.0 26.5 436.5 25.5Q434.5 25.0 432.5 25.0Q430.5 25.0 429.5 25.0H427.5Q428.0 26.5 429.25 28.5Q430.5 30.5 432.5 33.5L433.0 34.5Q434.0 36.0 435.25 39.0Q436.5 42.0 438.5 46.0L439.0 48.0Q441.5 53.0 444.0 59.25Q446.5 65.5 448.5 69.5L450.0 65.0Q451.0 59.5 454.5 52.0Q458.0 44.5 462.0 38.5ZM411.5 14.0V12.5L412.0 11.5Q413.5 10.0 417.0 10.0Q418.5 10.0 422.5 11.0Q424.0 12.0 434.5 13.25Q445.0 14.5 457.0 15.5Q470.0 16.0 479.5 17.5Q489.0 19.0 489.0 21.0Q489.0 21.5 485.75 26.5Q482.5 31.5 477.5 37.5Q474.5 41.0 470.25 52.75Q466.0 64.5 462.5 74.0L459.0 83.5V121.0L488.5 91.5Q495.5 84.5 505.75 76.75Q516.0 69.0 519.0 69.0Q522.0 69.0 522.0 71.5Q522.0 73.5 517.25 79.75Q512.5 86.0 500.0 99.0L472.0 127.0L527.0 127.5Q546.5 127.5 558.75 129.25Q571.0 131.0 571.0 133.5Q571.0 135.5 558.25 137.25Q545.5 139.0 522.0 139.0H469.0L494.5 159.5Q503.0 166.5 508.0 172.25Q513.0 178.0 513.0 180.5L512.5 183.0H510.5Q508.5 183.0 500.0 178.0Q491.5 173.0 481.5 165.0Q480.5 164.0 478.75 162.75Q477.0 161.5 476.0 160.5Q474.0 159.0 472.25 157.5Q470.5 156.0 469.0 155.0Q466.0 152.5 463.5 150.25Q461.0 148.0 459.0 147.0V190.0Q459.0 210.5 455.75 222.25Q452.5 234.0 451.0 234.0Q448.5 234.0 446.75 222.5Q445.0 211.0 445.0 192.5V152.5L383.5 222.5Q380.0 228.5 376.0 232.25Q372.0 236.0 369.5 238.0Q367.0 240.0 358.5 247.25Q350.0 254.5 341.5 261.5L326.0 273.5L360.5 274.5Q403.5 275.5 403.5 280.5Q403.5 286.0 356.5 286.0H319.5L335.5 298.5Q358.5 316.0 358.5 321.5Q358.5 325.5 353.5 325.5Q353.0 325.5 345.5 320.75Q338.0 316.0 329.0 308.5Q323.5 304.0 318.0 299.75Q312.5 295.5 309.5 293.5V318.5Q309.5 331.5 308.0 340.0Q306.5 348.5 303.0 348.5Q300.0 348.5 298.75 340.5Q297.5 332.5 297.5 320.0V296.0Q292.5 301.0 283.5 313.25Q274.5 325.5 266.0 339.5Q257.5 353.5 253.5 365.0L247.5 380.0L240.0 367.5Q237.5 363.5 231.0 355.75Q224.5 348.0 216.5 341.0Q214.5 338.5 213.0 336.75Q211.5 335.0 210.0 333.0Q205.5 327.5 202.75 324.0Q200.0 320.5 200.0 319.0L201.0 317.0Q201.5 317.0 208.75 316.75Q216.0 316.5 225.0 316.0Q242.0 315.5 254.75 310.0Q267.5 304.5 282.0 292.0L289.5 286.0H282.0Q276.0 286.0 264.25 288.25Q252.5 290.5 239.0 294.0Q225.5 297.5 214.25 301.0Q203.0 304.5 198.0 307.5Q196.5 308.0 195.0 308.5Q193.5 309.0 192.5 310.0Q188.0 312.0 184.75 313.25Q181.5 314.5 179.0 314.5Q171.5 314.5 171.5 299.0Q171.5 288.5 172.25 277.75Q173.0 267.0 174.0 256.0Q174.5 254.5 174.5 252.75Q174.5 251.0 174.5 250.0L177.0 249.5Q178.0 249.5 182.5 251.75Q187.0 254.0 192.0 257.5Q205.5 265.5 223.25 270.25Q241.0 275.0 263.0 275.0H285.0L280.5 271.5Q275.5 267.0 263.75 262.0Q252.0 257.0 238.75 253.5Q225.5 250.0 216.0 250.0Q210.5 250.0 205.5 249.25Q200.5 248.5 198.5 246.5V245.5Q198.5 243.5 202.75 238.0Q207.0 232.5 213.5 226.0L228.0 212.0L178.0 168.0L176.0 170.0V191.0Q176.0 198.5 170.5 199.5Q166.5 198.5 166.5 193.0V182.0L149.5 203.5Q147.0 206.0 141.5 214.5Q136.0 223.0 130.25 233.25Q124.5 243.5 120.25 252.0Q116.0 260.5 116.0 263.5Q116.0 270.5 111.5 270.5Q105.0 270.5 96.5 251.5Q94.0 246.0 90.5 238.75Q87.0 231.5 83.5 225.0Q82.0 222.0 80.5 219.5Q79.0 217.0 78.0 215.0Q73.5 208.0 70.25 202.0Q67.0 196.0 66.5 194.0L68.0 190.5H70.0Q74.0 190.5 83.0 193.0Q89.5 195.0 99.5 195.0Q119.5 195.0 145.0 187.5L163.0 166.0L137.5 166.5Q122.5 168.0 103.75 171.75Q85.0 175.5 66.75 181.25Q48.5 187.0 34.0 194.0Q20.0 200.0 15.0 200.0Q10.0 200.0 10.0 196.0Q10.0 192.5 12.5 188.5Q13.5 185.0 14.5 174.5Q15.5 164.0 15.5 153.0Q15.5 139.5 17.0 130.25Q18.5 121.0 20.5 121.0Q21.5 121.0 25.75 123.5Q30.0 126.0 34.5 130.0Q49.5 141.0 68.5 146.5Q87.5 152.0 119.5 153.0Q129.5 153.5 139.5 153.75Q149.5 154.0 157.0 154.0Q162.0 154.0 164.0 154.5Q160.0 152.0 153.5 148.0Q147.0 144.0 142.5 141.5Q131.5 133.0 111.25 128.25Q91.0 123.5 70.5 121.0Q65.5 120.0 59.0 119.0Q52.5 118.0 47.0 118.0L46.5 115.5Q46.5 113.5 54.75 103.25Q63.0 93.0 74.0 81.0L107.0 46.0L110.0 70.5Q111.0 78.5 116.25 90.25Q121.5 102.0 135.0 122.5L166.5 143.5L166.0 127.5Q164.5 111.0 157.0 92.25Q149.5 73.5 139.5 63.0Q130.5 53.0 130.5 50.5Q130.5 47.5 142.5 47.0Q154.5 46.5 171.0 46.5Q211.5 47.0 211.5 54.5Q211.5 59.0 201.0 63.5Q199.0 64.0 194.5 68.5Q190.0 73.0 186.5 77.5Q182.0 85.5 180.0 94.25Q178.0 103.0 177.0 122.0L176.0 150.5L177.5 151.5L190.0 137.5Q218.0 108.5 224.5 108.5L226.5 110.5Q226.5 112.5 220.25 120.75Q214.0 129.0 200.5 143.5L191.0 153.5Q197.5 153.5 208.25 153.25Q219.0 153.0 230.25 152.75Q241.5 152.5 249.5 152.0H264.0Q275.5 152.0 282.5 152.75Q289.5 153.5 289.5 155.5Q289.5 157.5 279.5 159.75Q269.5 162.0 254.0 163.5Q238.5 165.0 221.5 165.0H193.0L216.5 185.0L235.5 202.5L239.0 198.0Q245.5 190.5 248.5 190.5Q253.5 190.5 253.5 205.5Q253.5 219.5 259.5 230.75Q265.5 242.0 279.5 254.0L297.5 268.5V259.0Q297.5 253.0 294.5 243.0Q291.5 233.0 286.5 222.5Q281.5 212.0 276.0 205.0Q272.5 201.0 270.25 196.5Q268.0 192.0 268.0 190.0Q268.0 187.5 274.25 186.75Q280.5 186.0 291.0 186.0H304.0L332.0 187.0L329.5 184.5Q325.5 180.5 324.5 176.5V175.5L325.0 174.5L325.5 175.0Q329.0 173.0 338.0 172.75Q347.0 172.5 357.5 172.5Q376.5 172.0 393.75 167.25Q411.0 162.5 422.0 155.0L439.0 138.5Q408.0 139.0 377.5 144.75Q347.0 150.5 319.0 163.5Q311.0 167.0 304.75 169.25Q298.5 171.5 297.5 171.5Q295.5 171.5 294.5 163.0Q293.5 154.5 293.5 143.0Q293.5 132.5 294.0 122.0Q294.5 111.5 295.5 104.0Q296.5 96.5 297.5 95.5H298.0Q299.5 95.5 305.25 98.5Q311.0 101.5 316.5 105.5Q332.5 114.0 352.0 119.0Q371.5 124.0 401.5 126.5H435.0L426.5 120.0Q409.5 107.5 386.5 100.5Q363.5 93.5 343.0 93.0L338.0 92.5H335.5Q330.5 91.5 327.25 90.75Q324.0 90.0 324.0 88.0Q324.0 87.5 330.0 80.75Q336.0 74.0 345.0 64.25Q354.0 54.5 363.0 45.25Q372.0 36.0 378.25 29.5Q384.5 23.0 385.0 23.0Q386.0 23.0 387.75 30.0Q389.5 37.0 390.0 47.0Q390.0 51.5 394.75 60.5Q399.5 69.5 403.5 78.0Q404.5 79.0 405.0 80.25Q405.5 81.5 406.0 82.5L407.5 85.0Q408.0 86.5 409.0 87.5L445.0 119.5L444.0 89.5L419.0 34.0Q411.5 19.0 411.5 14.0Z" fill="black" /></svg>