<svg xmlns="http://www.w3.org/2000/svg" width="554.0" height="448.0" viewBox="0 0 554.0 448.0"><path d="M82.5 265.5Q69.5 264.5 58.25 262.0Q47.0 259.5 42.5 257.5Q41.5 256.5 40.0 256.5Q39.5 256.5 39.25 260.5Q39.0 264.5 39.0 276.0Q39.0 284.5 39.5 291.0Q40.0 297.5 40.0 297.5Q43.5 297.5 53.5 292.0L59.0 289.0Q66.5 285.5 77.75 281.25Q89.0 277.0 97.0 275.5Q101.0 273.5 104.25 272.0Q107.5 270.5 109.5 269.5Q102.0 268.0 82.5 265.5ZM102.5 329.5 107.0 320.5H96.5Q92.5 320.5 89.5 320.75Q86.5 321.0 85.5 321.0Q86.0 322.5 86.5 324.0Q87.0 325.5 87.5 328.0Q88.5 329.0 89.5 331.5Q90.5 334.0 91.0 336.0Q94.0 341.5 94.5 341.5Q97.5 341.5 102.5 329.5ZM309.5 296.0Q303.0 296.5 297.0 297.25Q291.0 298.0 285.0 299.5Q280.0 300.5 268.75 301.75Q257.5 303.0 247.5 303.0Q229.0 303.5 229.0 305.5Q229.0 307.0 229.5 307.5Q230.5 310.5 232.25 317.5Q234.0 324.5 235.0 332.0L235.5 334.0Q236.0 338.0 236.25 341.0Q236.5 344.0 236.5 345.5Q239.0 343.5 248.0 337.25Q257.0 331.0 268.5 323.0Q275.5 319.0 282.5 314.25Q289.5 309.5 294.5 305.5Q300.0 302.0 303.75 299.75Q307.5 297.5 309.5 296.0ZM64.0 130.0Q64.0 129.0 61.75 128.75Q59.5 128.5 57.0 128.5Q49.0 128.5 49.0 132.0Q49.0 134.0 50.25 137.75Q51.5 141.5 54.5 146.0L57.5 151.0L59.0 145.0Q64.0 135.0 64.0 130.0ZM85.0 147.0 85.5 143.5Q86.0 141.0 86.0 137.5Q86.0 134.0 86.0 131.0L81.0 139.0Q72.5 151.5 66.75 173.75Q61.0 196.0 61.0 219.5V248.0L79.5 251.0Q86.5 251.5 93.5 253.0Q100.5 254.5 105.5 255.5L116.5 256.5L120.5 231.0Q121.0 226.0 121.25 221.25Q121.5 216.5 121.5 212.5Q121.5 179.5 105.5 166.0Q101.5 161.0 96.0 161.0Q94.5 161.0 94.5 162.0Q93.0 162.5 92.0 162.5Q91.0 162.5 90.0 162.5Q84.5 162.5 84.5 154.5Q84.5 153.0 84.5 151.0Q84.5 149.0 85.0 147.0ZM133.0 102.0 120.5 99.0Q113.0 96.5 107.5 94.75Q102.0 93.0 101.0 92.5Q101.0 94.0 101.25 97.25Q101.5 100.5 101.5 104.5V117.0Q104.0 116.5 109.25 114.0Q114.5 111.5 120.5 108.5ZM141.0 164.0Q140.0 164.0 137.5 163.75Q135.0 163.5 132.5 163.5Q124.5 163.5 124.5 165.0Q124.5 168.0 130.0 175.0L130.5 176.0Q132.0 178.5 133.0 178.5Q133.0 178.0 133.75 176.75Q134.5 175.5 135.0 173.0Q137.0 170.5 138.75 167.75Q140.5 165.0 141.0 164.0ZM254.5 176.5Q255.5 175.0 255.5 174.0Q252.5 175.0 244.75 180.75Q237.0 186.5 234.5 189.5Q235.5 190.5 236.0 190.5L238.0 191.0Q239.0 191.5 240.25 191.5Q241.5 191.5 242.0 191.5Q249.0 191.5 254.5 176.5ZM273.0 85.0 274.0 82.0Q275.5 77.5 275.5 75.5Q273.5 77.0 268.0 82.0Q262.5 87.0 257.5 92.0Q252.5 97.0 251.0 99.5H258.5Q268.0 98.0 273.0 85.0ZM338.0 159.5Q336.5 160.0 334.5 160.0Q332.5 160.0 330.0 160.0Q322.0 161.0 322.0 162.0Q322.0 163.0 327.0 170.5Q328.5 172.0 329.5 173.25Q330.5 174.5 330.5 174.5Q331.0 173.5 331.5 172.25Q332.0 171.0 332.5 169.0Q336.5 163.0 338.0 159.5ZM356.0 140.0 352.0 138.5H351.5Q346.5 135.5 339.5 134.25Q332.5 133.0 326.5 133.0Q323.0 133.0 319.75 133.5Q316.5 134.0 316.5 134.5Q316.5 138.0 323.25 140.25Q330.0 142.5 338.5 142.5Q341.5 142.5 344.5 142.5Q347.5 142.5 350.5 142.0ZM381.5 122.5 379.0 119.5Q377.0 117.0 375.5 114.5Q374.0 112.0 372.0 110.0Q370.0 107.5 368.25 105.0Q366.5 102.5 364.5 100.5Q363.0 99.0 361.0 97.0Q359.0 95.0 358.0 93.5L352.5 87.0L341.0 101.5L330.5 117.0L359.5 125.5Q368.5 128.0 376.25 130.0Q384.0 132.0 389.0 133.0Q388.0 131.5 386.0 128.75Q384.0 126.0 381.5 122.5ZM323.0 18.0Q324.0 14.0 327.25 12.0Q330.5 10.0 332.5 10.0Q339.5 10.0 339.5 17.5Q339.5 19.5 334.75 26.5Q330.0 33.5 323.5 41.0Q303.0 64.0 295.25 76.75Q287.5 89.5 287.5 99.5V103.0Q288.0 114.5 294.0 114.5Q304.0 114.5 315.0 106.25Q326.0 98.0 334.5 87.0Q343.0 76.0 345.5 67.0Q349.5 45.5 355.0 45.5Q359.5 45.5 362.5 57.5Q363.5 64.0 366.0 71.25Q368.5 78.5 371.5 82.5Q377.0 93.0 389.5 106.75Q402.0 120.5 417.75 133.5Q433.5 146.5 448.5 154.5Q462.5 162.5 477.0 171.25Q491.5 180.0 504.0 190.5Q514.0 196.5 523.75 202.0Q533.5 207.5 536.5 208.5V209.0Q544.0 212.5 544.0 217.0Q544.0 227.0 529.5 227.0Q527.5 227.0 515.5 231.0Q503.5 235.0 489.0 240.5L483.0 243.5Q468.0 249.0 445.75 257.5Q423.5 266.0 404.5 272.5Q391.0 277.5 376.0 283.5Q361.0 289.5 348.5 294.75Q336.0 300.0 329.0 303.5Q316.5 310.0 300.25 320.25Q284.0 330.5 268.75 342.0Q253.5 353.5 242.75 362.75Q232.0 372.0 229.5 376.5Q228.0 381.0 224.5 385.0Q221.0 389.0 218.5 389.0Q214.0 389.0 214.0 382.0Q214.0 380.0 215.0 374.0Q216.5 370.0 217.5 360.0Q218.5 350.0 218.5 340.0Q218.5 328.0 217.5 319.75Q216.5 311.5 209.5 303.0L196.0 283.5L230.0 287.0Q233.5 287.5 236.5 287.5Q239.5 287.5 243.0 287.5Q266.5 287.5 302.75 281.0Q339.0 274.5 375.5 265.5Q388.0 262.0 405.5 256.25Q423.0 250.5 441.75 243.75Q460.5 237.0 476.75 231.0Q493.0 225.0 503.0 220.5Q513.0 216.0 513.0 215.0Q513.0 212.5 504.5 206.25Q496.0 200.0 482.25 192.0Q468.5 184.0 452.5 176.0Q436.5 168.0 421.25 161.25Q406.0 154.5 395.0 151.0L371.5 143.5L362.0 155.5Q334.0 188.0 334.0 232.5V235.5Q334.0 249.0 332.0 258.25Q330.0 267.5 326.5 267.5Q324.0 267.5 321.75 255.75Q319.5 244.0 319.5 227.0Q319.5 198.5 313.75 181.25Q308.0 164.0 295.0 155.5L293.5 154.5Q292.5 154.0 291.75 153.5Q291.0 153.0 290.5 153.0Q288.5 153.0 284.75 157.5Q281.0 162.0 275.5 169.5Q272.0 177.0 269.5 182.5Q267.0 188.0 267.0 191.5Q267.0 192.0 267.25 192.25Q267.5 192.5 267.5 192.5Q268.5 194.5 269.5 197.0Q270.5 199.5 270.5 201.0Q270.5 203.0 270.0 203.5Q270.5 204.0 274.0 207.5Q277.5 211.0 282.5 215.0Q295.0 224.5 302.75 232.5Q310.5 240.5 310.5 244.5Q310.5 248.0 308.5 248.5L306.5 249.0Q301.5 249.0 292.0 241.0Q275.5 225.5 257.0 216.0Q238.5 206.5 221.0 204.5L185.0 201.5L210.0 187.0Q218.5 181.5 230.75 172.75Q243.0 164.0 255.0 154.75Q267.0 145.5 275.25 138.75Q283.5 132.0 283.5 130.5Q283.5 126.5 274.25 123.0Q265.0 119.5 250.0 116.75Q235.0 114.0 217.5 112.5Q200.0 111.0 183.5 111.0Q172.5 111.0 158.25 112.5Q144.0 114.0 131.25 119.0Q118.5 124.0 110.5 134.5Q105.0 140.0 105.0 142.5Q105.0 149.0 126.5 149.0Q127.5 149.0 129.0 149.0Q130.5 149.0 131.5 148.5H138.5Q142.0 148.0 145.25 148.0Q148.5 148.0 151.5 148.0Q168.5 148.0 168.5 154.0Q168.5 157.5 163.5 161.0Q158.5 164.0 153.25 174.25Q148.0 184.5 143.5 198.0Q139.0 211.5 136.25 224.5Q133.5 237.5 133.5 246.5Q133.5 253.0 134.5 255.0Q137.5 255.5 157.25 257.25Q177.0 259.0 201.5 260.0Q224.0 260.5 242.0 264.0Q260.0 267.5 263.5 268.5V269.5Q257.5 270.5 241.5 271.5Q225.5 272.5 208.0 273.0Q168.5 275.0 134.75 281.5Q101.0 288.0 79.0 297.0Q74.5 299.0 71.75 300.0Q69.0 301.0 68.5 301.5Q73.0 305.0 79.5 305.5Q86.0 306.0 91.5 306.0Q95.5 306.0 99.5 306.0Q103.5 306.0 108.5 305.5Q114.0 304.5 120.0 304.25Q126.0 304.0 130.0 304.0Q142.0 304.0 142.0 308.5Q142.0 309.0 138.0 313.5Q134.0 318.0 129.5 321.0Q115.5 333.5 106.75 355.75Q98.0 378.0 98.0 404.0Q98.0 418.5 96.0 428.25Q94.0 438.0 90.0 438.0Q86.5 438.0 84.5 424.75Q82.5 411.5 82.5 391.5Q82.5 357.0 76.5 340.75Q70.5 324.5 57.0 317.0Q55.0 315.5 53.25 314.5Q51.5 313.5 49.5 313.5Q43.5 313.5 36.5 331.5Q33.0 338.5 29.0 342.0Q25.0 345.5 22.0 345.5Q17.0 345.5 17.0 339.0Q17.0 336.5 17.5 334.0Q18.0 331.5 19.5 328.5Q22.0 321.5 23.5 311.75Q25.0 302.0 25.0 291.0Q25.0 276.5 22.75 264.25Q20.5 252.0 17.0 246.5L14.5 243.5Q14.0 241.5 13.5 240.75Q13.0 240.0 12.5 239.5Q12.0 238.0 11.0 236.5Q10.0 235.0 10.0 234.5Q10.0 230.0 15.0 230.0Q19.5 230.0 33.0 235.0L42.5 237.5Q43.0 237.5 43.5 238.0Q44.0 238.5 44.5 238.5Q46.0 238.5 46.25 231.25Q46.5 224.0 46.5 203.5Q46.5 180.0 44.5 168.25Q42.5 156.5 37.0 146.0Q33.5 138.5 29.25 132.25Q25.0 126.0 23.5 125.5Q14.5 122.0 14.5 118.0Q14.5 111.5 36.0 111.5Q39.0 111.5 43.0 111.5Q47.0 111.5 51.0 112.0Q56.0 112.5 59.75 112.5Q63.5 112.5 67.0 112.5Q79.0 112.5 84.0 110.25Q89.0 108.0 89.0 101.5Q89.0 99.0 88.5 95.5Q88.0 92.0 86.5 88.0Q85.5 82.0 85.0 76.75Q84.5 71.5 84.5 69.5Q84.5 66.5 85.0 65.5L87.5 64.5Q89.0 64.5 95.0 67.25Q101.0 70.0 106.0 75.0Q114.5 80.5 131.25 85.25Q148.0 90.0 168.5 93.0Q189.0 96.0 208.0 96.0Q217.0 96.0 224.0 93.5Q231.0 91.0 242.0 83.0Q253.0 75.0 274.0 59.0Q293.5 44.5 307.75 32.25Q322.0 20.0 323.0 18.0ZM302.5 142.0 303.0 141.0 302.5 142.0H303.0L302.5 141.0Z" fill="black" /></svg>