<svg xmlns="http://www.w3.org/2000/svg" width="746.5" height="457.5" viewBox="0 0 746.5 457.5"><path d="M137.0 247.0Q131.0 250.0 119.75 257.75Q108.5 265.5 96.25 274.75Q84.0 284.0 75.25 291.75Q66.5 299.5 65.5 302.0Q65.5 302.5 69.25 303.25Q73.0 304.0 78.5 305.0L109.0 306.0Q111.5 302.5 116.25 292.5Q121.0 282.5 126.5 270.25Q132.0 258.0 137.0 247.0ZM122.0 138.5 108.5 146.5 121.5 149.0ZM143.5 170.0 136.0 168.5 135.5 173.5ZM151.5 98.0 136.0 90.0 137.0 108.5ZM187.5 114.5 169.0 107.0 138.0 129.0V140.5Q138.0 143.0 138.0 145.75Q138.0 148.5 137.5 152.0Q143.0 153.0 150.75 155.5Q158.5 158.0 162.5 160.5L163.0 161.0L180.0 154.5Q180.0 144.5 181.25 135.5Q182.5 126.5 186.5 116.5Q186.5 115.5 187.0 115.0Q187.5 114.5 187.5 114.5ZM206.5 77.0 184.5 94.0 195.5 97.5ZM240.5 133.0 203.0 120.5Q198.0 128.5 197.0 134.25Q196.0 140.0 196.0 148.5ZM631.0 119.0Q632.5 117.0 633.5 115.0Q634.5 113.0 635.0 111.0Q631.5 113.0 625.25 117.0Q619.0 121.0 610.5 127.0L604.5 130.5Q596.0 136.0 585.5 141.75Q575.0 147.5 567.75 151.0Q560.5 154.5 560.5 154.5Q560.5 154.5 570.5 155.75Q580.5 157.0 587.5 157.5Q595.0 157.5 603.0 158.0Q611.0 158.5 613.5 159.0H615.5Q618.5 159.0 619.0 154.5Q619.5 150.0 619.5 148.5Q620.0 142.5 623.75 133.75Q627.5 125.0 631.0 119.0ZM160.0 369.0Q135.0 350.0 127.0 343.75Q119.0 337.5 119.0 337.5Q118.5 341.0 117.5 347.0Q116.5 353.0 116.5 358.5Q116.5 367.5 117.5 373.75Q118.5 380.0 119.0 380.0Q122.5 380.0 131.25 377.5Q140.0 375.0 148.75 372.25Q157.5 369.5 160.0 369.0ZM180.0 345.5Q177.0 344.0 170.0 341.25Q163.0 338.5 157.25 336.25Q151.5 334.0 151.5 334.0Q167.0 348.0 175.75 355.25Q184.5 362.5 184.5 362.5Q187.0 361.5 193.0 359.75Q199.0 358.0 204.0 357.5Q208.0 356.0 210.25 355.25Q212.5 354.5 212.5 354.5Q210.5 353.5 202.5 351.25Q194.5 349.0 180.0 345.5ZM553.5 306.0Q555.0 303.5 556.25 301.75Q557.5 300.0 558.5 298.0Q554.0 300.5 546.25 305.5Q538.5 310.5 529.5 316.0Q514.0 326.5 501.5 334.0Q489.0 341.5 489.0 341.5L531.0 343.5H535.5Q537.0 344.0 538.0 344.0Q543.0 344.0 544.0 342.5Q545.0 341.0 545.0 338.5Q545.0 330.0 546.75 321.25Q548.5 312.5 553.5 306.0ZM243.5 21.0Q245.0 15.5 249.0 12.75Q253.0 10.0 256.0 10.0Q263.5 10.0 263.5 17.0Q263.5 18.5 262.0 21.0Q260.5 23.5 258.5 26.0L256.0 29.5Q242.0 46.5 231.75 65.5Q221.5 84.5 211.5 104.0Q217.0 105.5 227.25 109.0Q237.5 112.5 247.25 115.5Q257.0 118.5 261.0 120.0Q270.0 120.0 279.0 120.0Q288.0 120.0 297.0 121.0Q315.0 121.0 342.25 121.0Q369.5 121.0 406.0 122.0L579.0 128.0L618.0 100.5Q634.0 89.0 650.75 75.75Q667.5 62.5 675.0 56.0Q682.0 49.5 688.25 46.25Q694.5 43.0 697.5 42.5Q699.5 43.0 701.0 44.0Q702.5 45.0 702.5 47.5Q702.5 52.5 691.5 66.5Q665.0 98.5 651.0 122.25Q637.0 146.0 637.0 157.0Q637.0 162.0 642.0 162.0Q649.5 162.0 649.5 169.5Q649.5 170.5 648.75 172.0Q648.0 173.5 647.0 174.5V176.0Q647.0 183.0 674.0 201.0Q690.5 211.0 704.75 222.5Q719.0 234.0 727.75 243.0Q736.5 252.0 736.5 255.5Q736.5 258.0 734.5 259.5H732.0Q729.0 259.5 719.0 254.0Q709.0 248.5 697.5 239.0Q659.5 209.5 624.25 191.0Q589.0 172.5 561.5 170.0Q526.5 166.0 526.5 157.5Q526.5 151.0 540.5 148.5Q543.5 147.0 548.0 144.5Q552.5 142.0 552.5 142.0H551.0Q510.0 141.0 468.75 140.5Q427.5 140.0 386.0 140.0L381.5 139.0Q366.0 138.0 349.25 137.75Q332.5 137.5 317.0 137.5Q304.0 137.5 292.5 138.0Q281.0 138.5 274.0 140.5Q259.0 144.0 242.0 149.5Q225.0 155.0 212.75 159.0Q200.5 163.0 200.5 163.0Q206.5 176.0 213.25 183.0Q220.0 190.0 227.0 194.5Q233.5 201.0 241.0 207.0Q248.5 213.0 255.5 218.5Q280.5 240.0 289.0 248.25Q297.5 256.5 297.5 259.5Q297.5 261.5 297.0 263.0Q296.5 264.5 295.5 265.5L293.5 267.0V266.5Q293.0 266.5 293.0 266.5Q293.0 266.5 292.5 266.5L291.0 267.0Q288.5 266.5 281.0 261.25Q273.5 256.0 265.0 249.0Q256.0 240.5 243.0 229.75Q230.0 219.0 221.0 211.0L200.0 197.0L181.0 219.5Q172.0 229.0 161.25 243.0Q150.5 257.0 143.25 272.75Q136.0 288.5 135.5 302.5Q146.5 321.0 207.5 332.5Q268.5 344.0 368.0 344.0Q406.5 344.0 427.75 343.75Q449.0 343.5 449.0 343.5Q472.0 331.0 499.0 314.0Q526.0 297.0 551.75 278.75Q577.5 260.5 595.5 243.5Q611.5 229.0 619.5 229.0Q625.0 229.0 625.0 234.5Q625.0 237.5 622.25 242.75Q619.5 248.0 613.0 255.0Q590.0 279.5 576.25 302.5Q562.5 325.5 562.5 338.5Q562.5 345.5 567.0 347.0Q570.0 349.0 571.75 354.25Q573.5 359.5 573.5 363.5Q573.5 366.5 579.25 371.75Q585.0 377.0 592.5 382.0Q601.5 387.0 613.25 396.0Q625.0 405.0 635.5 414.75Q646.0 424.5 653.0 432.25Q660.0 440.0 660.0 443.5Q660.0 446.0 657.5 447.5H656.0Q654.0 447.5 642.0 440.0Q630.0 432.5 615.0 421.5Q606.5 413.5 594.5 405.0Q582.5 396.5 570.5 389.25Q558.5 382.0 549.5 378.0Q540.5 373.0 533.5 370.0Q526.5 367.0 517.5 365.25Q508.5 363.5 494.0 362.75Q479.5 362.0 455.5 361.75Q431.5 361.5 394.0 361.5Q317.0 361.5 265.75 363.25Q214.5 365.0 197.0 372.0Q200.0 374.5 207.5 380.75Q215.0 387.0 223.25 394.75Q231.5 402.5 237.5 409.5Q243.5 416.5 243.5 420.0Q243.5 424.0 239.0 424.0Q236.5 424.0 227.75 419.0Q219.0 414.0 206.5 403.5Q195.5 393.5 187.5 386.5Q179.5 379.5 178.5 379.5Q176.0 379.5 165.0 383.0Q154.0 386.5 139.5 391.5Q126.0 396.5 114.75 399.75Q103.5 403.0 102.0 403.0Q99.5 403.0 98.0 397.0Q96.5 391.0 96.5 381.5Q96.5 376.5 96.5 371.75Q96.5 367.0 97.0 362.0L98.0 355.5V351.5Q98.5 348.0 98.75 344.75Q99.0 341.5 99.0 339.0Q99.0 328.5 91.0 325.25Q83.0 322.0 57.5 318.5Q55.0 318.0 52.0 317.75Q49.0 317.5 46.0 317.0L10.0 310.5L50.0 285.5Q59.0 280.0 75.25 268.25Q91.5 256.5 109.75 242.5Q128.0 228.5 144.75 215.5Q161.5 202.5 172.0 194.25Q182.5 186.0 182.5 186.0L167.5 178.0L152.5 182.5Q149.5 184.0 142.0 186.5Q134.5 189.0 127.75 191.0Q121.0 193.0 120.0 193.0Q116.5 193.0 116.5 187.0Q116.5 184.5 117.5 179.75Q118.5 175.0 119.0 171.0Q119.5 169.0 119.75 166.5Q120.0 164.0 120.0 164.0Q116.5 163.0 108.75 161.25Q101.0 159.5 96.5 159.0L63.0 155.0L98.5 134.5Q107.0 129.5 114.5 124.25Q122.0 119.0 122.0 119.0V99.5Q122.0 90.0 120.5 84.0Q120.5 82.0 120.25 81.0Q120.0 80.0 120.0 79.5V76.5Q120.0 69.0 126.5 69.0Q128.5 69.0 135.75 72.25Q143.0 75.5 150.75 79.25Q158.5 83.0 161.0 84.5Q163.0 85.0 165.25 85.75Q167.5 86.5 167.5 86.5Q173.0 83.0 184.25 74.0Q195.5 65.0 208.25 54.25Q221.0 43.5 231.0 34.25Q241.0 25.0 243.5 21.0ZM185.0 171.0 184.5 170.5Z" fill="black" /></svg>