<svg xmlns="http://www.w3.org/2000/svg" width="575.5" height="465.0" viewBox="0 0 575.5 465.0"><path d="M73.5 305.5Q72.0 304.5 64.75 300.5Q57.5 296.5 47.5 292.5L24.0 280.5V329.5Q26.0 328.5 30.0 326.25Q34.0 324.0 39.0 321.5Q46.0 316.5 53.75 312.75Q61.5 309.0 66.0 308.0Q68.5 307.0 70.75 306.5Q73.0 306.0 73.5 305.5ZM251.5 301.0Q247.0 298.0 243.25 295.5Q239.5 293.0 236.0 291.0Q233.5 288.5 231.5 287.25Q229.5 286.0 229.5 286.0Q228.5 286.0 225.75 294.25Q223.0 302.5 220.5 312.75Q218.0 323.0 217.0 329.5Q218.5 329.5 220.0 329.25Q221.5 329.0 223.0 328.5Q233.0 325.0 244.25 323.75Q255.5 322.5 266.5 322.5Q270.0 322.0 273.5 322.0Q277.0 322.0 280.5 322.0Q280.0 322.0 279.75 321.75Q279.5 321.5 279.5 321.5L277.0 320.0Q273.0 316.0 265.0 310.0Q257.0 304.0 251.5 301.0ZM313.5 306.5Q308.5 305.5 302.75 303.75Q297.0 302.0 294.0 301.5L292.5 301.0Q291.5 301.0 291.0 300.75Q290.5 300.5 290.5 300.5Q290.5 306.5 292.75 310.5Q295.0 314.5 301.5 314.5Q306.5 314.5 312.5 313.0Q321.5 309.0 321.5 308.5Q321.5 308.5 319.5 308.0Q317.5 307.5 313.5 306.5ZM385.5 332.0V320.0L360.5 321.0Q319.5 321.5 319.5 324.5Q319.5 325.5 336.0 330.0Q338.5 331.5 341.5 332.25Q344.5 333.0 348.0 334.0Q349.0 334.5 350.75 334.75Q352.5 335.0 353.5 336.0Q358.0 336.5 362.0 337.25Q366.0 338.0 368.5 339.0Q379.0 342.5 383.5 342.5Q385.5 342.5 385.5 332.0ZM486.5 342.5V316.0H400.5V347.0L442.5 358.0Q458.5 362.5 471.5 365.25Q484.5 368.0 487.5 368.5Q487.0 366.0 486.75 359.0Q486.5 352.0 486.5 342.5ZM70.5 141.5 51.5 132.5Q32.0 121.5 25.0 118.5Q25.0 120.0 24.5 127.0Q24.0 134.0 24.0 144.5V168.0L34.0 160.5Q40.0 156.5 48.5 151.75Q57.0 147.0 63.0 145.0ZM102.5 185.5Q100.5 186.0 97.0 186.5Q93.5 187.0 89.5 188.0Q85.0 188.5 82.5 188.75Q80.0 189.0 80.0 189.0Q80.0 190.5 82.0 192.5Q84.0 194.5 87.0 199.0L92.0 206.0L96.5 197.0Q98.0 193.5 99.75 190.5Q101.5 187.5 102.5 185.5ZM381.5 230.0Q381.5 224.5 378.75 223.75Q376.0 223.0 363.0 223.0Q354.5 223.0 344.5 224.75Q334.5 226.5 328.5 229.0L324.0 231.5L328.0 233.0Q332.0 235.0 342.0 236.5Q352.0 238.0 361.5 238.0Q376.0 238.0 378.75 236.75Q381.5 235.5 381.5 230.0ZM429.5 230.0 413.5 223.0Q407.0 219.5 404.5 219.5V230.0Q404.5 241.5 406.5 241.5Q411.0 241.5 421.5 235.5ZM451.0 302.0H486.5V240.0H466.0Q448.0 240.0 434.75 245.0Q421.5 250.0 409.5 261.5Q404.5 266.0 402.5 271.5Q400.5 277.0 400.5 288.5Q400.5 297.5 400.75 301.0Q401.0 304.5 401.5 305.0L403.5 304.5Q407.0 303.5 420.75 302.75Q434.5 302.0 451.0 302.0ZM267.5 108.5 261.5 107.0Q258.0 106.0 254.5 105.0Q251.0 104.0 248.0 103.5Q246.5 103.0 245.25 102.5Q244.0 102.0 243.0 101.5Q243.0 106.5 244.5 115.0Q246.0 122.5 247.0 132.75Q248.0 143.0 248.5 149.5V159.0L265.5 144.0Q274.5 135.5 283.5 127.25Q292.5 119.0 296.0 117.0Q296.5 117.0 296.75 116.75Q297.0 116.5 297.5 116.5Q296.5 116.0 295.25 116.0Q294.0 116.0 293.0 115.5Q289.0 114.5 281.75 112.5Q274.5 110.5 267.5 108.5ZM378.5 205.5V204.0Q377.5 200.0 373.5 198.75Q369.5 197.5 356.0 197.5Q342.0 197.5 333.25 199.25Q324.5 201.0 324.5 203.5Q327.0 205.5 337.0 206.5Q347.0 207.5 357.75 208.0Q368.5 208.5 373.0 208.5Q376.5 208.5 378.0 208.25Q379.5 208.0 379.5 208.0Q379.5 207.5 379.0 206.75Q378.5 206.0 378.5 205.5ZM406.5 151.0H390.5Q384.0 151.0 379.75 151.25Q375.5 151.5 375.5 152.0Q375.5 154.5 378.25 162.25Q381.0 170.0 384.5 176.5Q388.0 183.0 389.5 183.0Q393.5 183.0 393.5 189.5Q394.5 186.5 396.0 183.0Q397.5 179.5 399.0 176.0Q402.5 167.5 404.5 160.0Q406.5 152.5 406.5 151.0ZM530.0 39.5Q528.5 38.5 519.5 37.75Q510.5 37.0 501.25 36.5Q492.0 36.0 489.5 36.0Q489.0 35.5 487.75 35.5Q486.5 35.5 486.0 35.5Q482.0 35.0 479.0 35.0Q476.0 35.0 473.5 35.0Q466.0 35.0 466.0 38.5Q466.0 43.5 473.0 60.5Q473.5 62.5 474.5 65.5Q478.0 72.0 481.75 86.5Q485.5 101.0 488.25 115.75Q491.0 130.5 491.0 138.5Q492.0 136.0 493.25 131.25Q494.5 126.5 496.5 120.5L498.0 113.5Q500.5 102.5 506.5 86.75Q512.5 71.0 517.5 61.0Q522.5 53.0 526.0 46.75Q529.5 40.5 530.0 39.5ZM441.0 17.0Q441.0 10.0 446.5 10.0Q452.5 10.0 457.5 15.0Q460.0 17.5 472.75 19.25Q485.5 21.0 507.0 22.0Q527.5 22.5 542.0 25.0Q556.5 27.5 557.0 30.0Q557.0 31.5 553.75 35.5Q550.5 39.5 547.5 42.5Q543.5 47.0 538.0 57.0Q532.5 67.0 526.75 80.0Q521.0 93.0 516.5 105.75Q512.0 118.5 510.0 127.5Q508.0 137.0 507.0 155.0Q506.0 173.0 506.0 189.5V226.5L532.0 223.5Q536.5 223.0 541.0 223.0Q545.5 223.0 548.5 223.0Q565.5 223.0 565.5 228.5Q565.5 231.5 557.0 233.5Q548.5 235.5 537.0 235.5H522.5Q512.5 235.5 508.0 239.5Q503.5 243.5 502.25 258.25Q501.0 273.0 501.0 305.5V345.0Q501.0 398.5 499.5 426.75Q498.0 455.0 494.0 455.0Q490.5 455.0 488.5 444.25Q486.5 433.5 486.5 417.0V383.5L445.5 373.0Q430.0 368.5 416.75 365.75Q403.5 363.0 400.5 362.5V385.0Q400.5 411.0 393.0 411.0H392.0Q389.5 409.5 387.5 400.25Q385.5 391.0 385.5 380.0V358.0L341.0 347.0Q324.0 342.5 313.5 340.5Q303.0 338.5 297.5 338.5Q294.0 338.5 291.0 340.0L290.5 340.5Q288.5 342.0 286.5 343.25Q284.5 344.5 283.5 344.5Q279.0 344.5 275.5 338.0L275.0 337.5Q273.5 335.5 272.25 334.75Q271.0 334.0 267.5 334.0Q256.5 334.0 240.5 338.5Q224.5 343.0 215.0 347.0L214.5 348.0Q210.0 349.0 207.0 349.75Q204.0 350.5 201.5 350.5Q196.0 350.5 196.0 345.0Q196.0 340.5 199.5 332.0Q200.5 329.5 201.25 326.75Q202.0 324.0 203.0 321.5L204.5 314.5L144.0 316.5Q117.0 317.0 100.0 318.25Q83.0 319.5 72.0 322.25Q61.0 325.0 52.75 330.0Q44.5 335.0 36.0 343.0Q29.5 349.0 23.5 353.25Q17.5 357.5 15.5 357.5L14.0 357.0Q13.0 356.0 12.0 345.0Q11.0 334.0 10.5 318.75Q10.0 303.5 10.0 290.5Q10.0 278.0 10.75 269.25Q11.5 260.5 12.5 260.0H14.5Q17.0 260.0 23.75 262.75Q30.5 265.5 38.5 270.5Q51.5 278.5 64.75 285.25Q78.0 292.0 82.5 293.0V270.0Q82.5 260.0 81.75 248.5Q81.0 237.0 80.0 227.25Q79.0 217.5 78.0 213.5Q76.0 210.0 71.75 204.5Q67.5 199.0 63.5 195.5Q53.5 184.0 53.5 179.0L54.0 177.5Q55.5 176.5 64.0 175.5Q72.5 174.5 84.0 173.75Q95.5 173.0 104.5 173.0Q121.5 173.0 121.5 177.5Q121.5 179.5 117.75 188.25Q114.0 197.0 108.5 208.5Q102.0 220.5 99.5 228.75Q97.0 237.0 97.0 250.0Q97.0 253.5 97.25 257.75Q97.5 262.0 98.0 266.5L99.0 300.0H211.5L214.5 285.0Q216.0 278.0 217.75 271.5Q219.5 265.0 220.0 264.5L221.0 264.0Q223.5 264.0 232.0 269.5Q240.5 275.0 251.0 282.5Q255.0 285.5 259.0 289.0Q263.0 292.5 266.5 294.5Q269.5 296.5 271.75 298.25Q274.0 300.0 275.0 301.0Q275.0 299.5 273.5 296.5V294.5L273.0 292.5Q272.5 290.5 272.5 288.0Q272.5 281.0 279.5 281.0Q284.5 281.0 299.0 286.5Q316.0 294.0 339.75 299.0Q363.5 304.0 381.5 304.5Q385.0 302.0 385.0 297.0Q385.0 296.0 384.5 295.0V293.5Q384.0 287.0 381.5 285.75Q379.0 284.5 368.0 284.5Q360.0 284.5 349.25 285.25Q338.5 286.0 331.5 288.0Q323.0 290.0 318.0 290.0Q312.0 290.0 310.75 287.0Q309.5 284.0 309.5 277.0Q309.5 269.0 310.75 266.5Q312.0 264.0 317.5 264.0Q321.5 264.0 329.0 265.5Q336.0 267.5 345.75 268.25Q355.5 269.0 364.5 269.0Q372.0 269.0 377.5 268.5Q383.0 268.0 384.5 266.5V265.5Q384.5 264.5 384.5 262.5Q384.5 260.5 383.5 259.0Q382.5 255.5 380.25 254.25Q378.0 253.0 371.5 253.0Q358.0 253.0 344.25 253.5Q330.5 254.0 317.5 256.5Q311.5 256.5 310.0 254.75Q308.5 253.0 308.5 245.5V241.0Q309.0 238.0 309.0 232.75Q309.0 227.5 309.0 221.5Q309.0 216.0 309.0 211.25Q309.0 206.5 309.5 201.5Q310.5 186.5 311.75 181.25Q313.0 176.0 318.0 176.0Q319.0 176.0 320.5 176.0Q322.0 176.0 324.0 176.5Q333.5 179.0 343.75 180.5Q354.0 182.0 361.0 182.0Q367.0 182.0 370.0 181.0Q370.5 181.0 371.0 180.75Q371.5 180.5 371.5 180.5Q371.0 178.5 369.0 174.0Q367.0 169.5 363.5 164.0Q359.0 157.0 356.0 151.0Q353.0 145.0 353.0 143.0V140.0Q355.0 138.5 365.0 137.5Q375.0 136.5 387.75 136.0Q400.5 135.5 410.0 135.5Q426.0 135.5 426.0 139.5Q426.0 140.0 424.25 146.0Q422.5 152.0 420.5 158.5Q418.5 165.0 417.5 167.0Q414.0 177.5 411.75 185.25Q409.5 193.0 409.5 197.5Q409.5 205.0 418.25 210.0Q427.0 215.0 439.25 218.0Q451.5 221.0 463.0 222.5Q474.5 224.0 480.0 224.0Q484.0 223.5 486.25 221.75Q488.5 220.0 488.5 214.0Q488.5 196.0 485.5 178.0Q482.5 160.0 478.5 143.0L478.0 137.0Q473.0 114.0 470.0 105.25Q467.0 96.5 464.5 96.5Q461.5 96.5 446.5 99.25Q431.5 102.0 410.75 106.0Q390.0 110.0 369.75 114.5Q349.5 119.0 336.5 122.0Q328.5 124.0 316.75 128.75Q305.0 133.5 296.5 137.5Q287.5 142.5 277.5 151.25Q267.5 160.0 260.25 168.5Q253.0 177.0 253.0 181.5Q253.0 186.5 251.75 188.0Q250.5 189.5 247.5 189.5Q244.5 189.5 240.25 183.25Q236.0 177.0 235.0 168.0L233.5 156.5L187.5 153.5H181.5Q171.0 153.0 161.0 152.5Q151.0 152.0 142.0 152.0Q95.5 152.0 70.5 159.25Q45.5 166.5 31.0 185.0Q26.0 190.0 21.5 193.5Q17.0 197.0 14.5 197.0L13.5 196.5Q13.0 196.0 12.25 186.5Q11.5 177.0 11.0 162.75Q10.5 148.5 10.25 134.0Q10.0 119.5 10.0 109.0Q10.0 106.5 10.0 104.0Q10.0 101.5 10.5 99.5V96.5Q10.5 93.0 13.5 93.0Q18.5 93.0 31.5 103.5Q52.5 116.0 67.75 123.75Q83.0 131.5 97.25 135.0Q111.5 138.5 129.0 139.75Q146.5 141.0 171.0 141.0Q194.5 141.0 211.75 140.25Q229.0 139.5 232.0 139.0V138.0Q232.0 134.5 230.75 127.25Q229.5 120.0 227.5 112.0Q225.5 103.5 224.75 97.5Q224.0 91.5 224.0 88.0Q224.0 78.5 230.0 78.5Q231.5 78.5 233.25 79.5Q235.0 80.5 236.0 81.5Q242.0 85.5 254.0 89.75Q266.0 94.0 280.25 97.5Q294.5 101.0 307.5 103.0Q320.5 105.0 328.0 105.0Q332.5 105.0 345.75 103.0Q359.0 101.0 376.5 98.0Q394.0 95.0 411.75 91.75Q429.5 88.5 443.25 85.5Q457.0 82.5 462.5 80.5Q461.5 75.0 458.75 65.5Q456.0 56.0 452.25 46.25Q448.5 36.5 445.0 31.0Q441.0 21.5 441.0 17.0Z" fill="black" /></svg>