<svg xmlns="http://www.w3.org/2000/svg" width="678.0" height="456.0" viewBox="0 0 678.0 456.0"><path d="M145.0 195.5H145.5Q145.0 195.0 144.5 195.0Q144.0 195.0 143.5 194.5H141.0Q141.0 195.5 145.0 195.5ZM307.0 275.0 319.5 269.0 278.5 245.5V269.0Q278.5 294.5 282.0 294.5Q282.0 294.5 285.0 291.0H284.0Q286.5 288.0 293.25 283.25Q300.0 278.5 307.0 275.0ZM208.0 121.5H205.0Q201.0 121.5 189.5 118.75Q178.0 116.0 163.5 112.5L155.5 110.5Q153.5 110.0 151.75 109.75Q150.0 109.5 147.5 109.0L104.5 98.0V124.5Q104.5 135.0 104.5 143.0Q104.5 151.0 105.0 151.0Q106.0 151.0 116.25 147.5Q126.5 144.0 140.5 139.0L149.0 136.5Q163.0 132.0 176.0 128.75Q189.0 125.5 195.0 125.5Q206.0 125.5 208.0 121.5ZM579.5 153.0 575.0 136.5H429.0Q389.5 136.5 356.25 136.75Q323.0 137.0 302.5 137.5Q282.0 138.0 281.5 139.0Q280.0 140.0 279.25 153.0Q278.5 166.0 278.5 182.5Q278.5 202.5 279.25 211.5Q280.0 220.5 283.25 224.75Q286.5 229.0 294.5 234.5Q315.0 250.0 333.0 257.25Q351.0 264.5 370.75 266.25Q390.5 268.0 415.5 268.0Q428.5 268.0 435.75 265.5Q443.0 263.0 451.5 257.5Q460.0 251.5 470.25 242.75Q480.5 234.0 490.5 224.75Q500.5 215.5 506.75 208.5Q513.0 201.5 513.0 199.0Q513.0 195.5 516.25 193.5Q519.5 191.5 523.5 191.5Q534.0 191.5 534.0 200.5Q534.0 202.5 532.75 205.0Q531.5 207.5 528.5 210.0Q526.0 211.0 525.0 216.25Q524.0 221.5 524.0 228.5Q524.0 238.0 526.5 249.5Q529.0 261.0 533.0 269.0Q538.0 275.5 549.0 283.5Q560.0 291.5 571.75 297.5Q583.5 303.5 590.5 304.5Q590.0 302.5 590.0 298.5Q590.0 294.5 590.0 289.5Q590.0 275.5 589.25 254.75Q588.5 234.0 587.0 212.75Q585.5 191.5 583.5 175.0Q581.5 158.5 579.5 153.0ZM508.5 240.0Q508.5 237.5 508.25 236.0Q508.0 234.5 508.0 234.5Q503.0 234.5 484.0 253.0L467.0 267.5L482.5 270.5Q490.5 272.0 500.5 274.25Q510.5 276.5 515.5 278.0Q517.5 278.5 519.0 278.75Q520.5 279.0 521.5 279.0Q520.5 276.5 518.0 272.0L516.5 269.0Q513.0 261.5 510.75 253.25Q508.5 245.0 508.5 240.0ZM286.0 85.0 300.0 59.5H265.0Q249.5 59.5 238.25 59.0Q227.0 58.5 227.0 59.5Q228.5 63.0 232.75 72.0Q237.0 81.0 242.5 91.0Q248.0 101.0 253.5 108.0Q259.0 115.0 262.5 115.0Q270.5 115.0 286.0 85.0ZM267.5 138.0Q267.5 136.5 262.5 136.5Q261.0 136.5 261.0 137.5V139.0Q263.0 142.5 264.0 142.5Q267.5 142.5 267.5 138.0ZM631.5 36.5H630.5Q629.5 35.5 618.5 34.5Q607.5 33.5 593.0 32.75Q578.5 32.0 566.5 31.75Q554.5 31.5 551.0 31.5Q560.5 50.5 568.5 69.75Q576.5 89.0 583.5 109.5L589.0 129.5L597.5 104.5Q603.0 89.0 609.5 73.0Q616.0 57.0 621.5 50.0Q624.5 46.0 627.0 42.0Q629.5 38.0 631.5 36.5ZM73.5 352.5Q62.0 349.0 54.5 347.25Q47.0 345.5 42.0 345.5Q36.0 345.5 36.0 356.5Q36.0 378.5 40.0 399.5Q43.5 398.5 50.0 396.0Q56.5 393.5 64.0 390.5Q76.5 386.5 95.5 382.0Q114.5 377.5 130.5 374.0L151.5 370.5L134.0 367.5Q119.5 364.5 101.75 360.25Q84.0 356.0 73.5 352.5ZM146.0 299.5H145.0Q141.5 299.5 141.5 301.5Q143.0 301.5 143.0 301.0Q145.5 300.0 145.75 299.75Q146.0 299.5 146.0 299.5ZM527.0 13.5V13.0Q527.5 10.0 533.0 10.0Q536.0 10.0 542.75 11.25Q549.5 12.5 556.5 13.5Q563.5 15.0 574.25 15.5Q585.0 16.0 597.0 16.0Q603.0 16.0 609.0 16.0Q615.0 16.0 620.5 15.5Q627.5 14.5 634.75 14.25Q642.0 14.0 648.0 14.0Q662.0 14.0 662.0 18.0Q662.0 20.0 657.5 27.0Q653.0 34.0 646.5 42.0Q634.0 58.0 626.5 71.25Q619.0 84.5 615.0 101.5Q611.0 118.5 609.5 144.75Q608.0 171.0 607.5 213.0L605.5 313.5L638.0 328.0Q666.5 339.5 668.0 346.0Q666.5 349.5 661.5 350.0Q652.5 350.0 644.0 347.25Q635.5 344.5 627.5 340.5Q621.0 337.0 615.0 334.5Q609.0 332.0 606.5 331.5V387.0Q606.5 416.0 604.0 431.0Q601.5 446.0 598.0 446.0H597.0Q594.0 444.5 591.75 425.5Q589.5 406.5 589.5 381.0V325.5L557.0 309.5Q536.5 300.5 515.0 295.0Q493.5 289.5 474.5 289.5Q462.5 289.5 451.5 291.75Q440.5 294.0 432.0 298.5Q424.0 302.0 418.25 304.25Q412.5 306.5 409.0 306.5Q403.5 306.5 403.5 301.5Q403.5 299.0 406.25 295.75Q409.0 292.5 413.0 289.0Q414.0 288.0 415.0 287.25Q416.0 286.5 416.5 286.0L417.5 285.5Q417.5 284.5 408.75 284.5Q400.0 284.5 376.5 284.5Q350.5 284.5 336.0 286.0Q321.5 287.5 312.25 292.75Q303.0 298.0 292.0 308.5Q283.0 316.5 280.75 322.75Q278.5 329.0 278.5 343.0V366.0H397.0Q431.0 366.0 461.5 366.75Q492.0 367.5 515.5 369.25Q539.0 371.0 552.5 372.75Q566.0 374.5 566.0 377.0Q566.0 380.5 560.0 382.0Q558.5 382.0 538.5 382.25Q518.5 382.5 486.5 382.75Q454.5 383.0 416.0 383.5L280.0 384.0L278.5 399.5L275.0 419.0H269.5L262.5 380.5L204.0 384.0Q155.0 387.0 113.75 395.5Q72.5 404.0 48.0 417.0Q40.0 421.0 34.0 423.0Q28.0 425.0 25.5 425.0Q21.5 425.0 21.0 423.0Q20.5 421.0 20.5 417.5Q20.5 414.0 20.5 409.0Q20.5 404.5 20.5 398.5Q20.5 392.5 21.0 387.0Q21.0 373.5 19.5 361.0Q18.0 348.5 14.0 343.0Q12.0 339.0 11.0 336.25Q10.0 333.5 10.0 330.5Q10.0 320.0 18.0 320.0Q20.0 320.0 22.0 321.0Q24.0 322.0 26.0 323.0Q33.0 326.5 53.5 332.0Q74.0 337.5 101.25 343.5Q128.5 349.5 157.0 354.5Q185.5 359.5 209.25 362.75Q233.0 366.0 245.5 366.0H262.0V310.5H217.0Q169.0 310.5 150.5 318.5L144.5 320.0Q139.5 322.0 134.75 324.0Q130.0 326.0 128.5 326.0Q126.0 326.0 124.75 319.0Q123.5 312.0 123.5 302.0Q123.5 290.5 124.75 285.0Q126.0 279.5 133.0 279.5Q136.0 279.5 144.25 282.0Q152.5 284.5 155.5 286.5Q164.5 289.0 183.75 291.5Q203.0 294.0 220.0 294.0H262.0V259.0H213.5Q160.5 259.0 149.0 266.0Q143.0 269.5 139.0 271.5Q135.0 273.5 132.5 273.5Q127.0 273.5 125.25 268.25Q123.5 263.0 123.5 251.0Q123.5 241.0 125.5 234.25Q127.5 227.5 130.5 227.5Q131.5 227.5 139.0 230.0Q143.5 230.5 149.0 232.0Q154.5 233.5 159.5 234.5Q175.5 239.5 192.5 240.75Q209.5 242.0 225.5 242.0L259.5 240.0L260.0 223.5V220.0Q261.0 219.0 261.0 216.5Q261.0 211.5 260.25 208.25Q259.5 205.0 259.0 205.0Q258.5 204.5 255.75 204.5Q253.0 204.5 249.5 204.5Q239.0 204.5 223.0 205.5Q207.0 206.5 189.5 208.25Q172.0 210.0 158.25 212.0Q144.5 214.0 138.5 215.5Q136.0 217.5 131.5 217.5Q126.5 217.5 125.0 213.0Q123.5 208.5 123.5 197.0Q123.5 186.0 125.0 182.0Q126.5 178.0 134.5 178.0Q138.0 178.0 144.0 179.0Q150.0 180.0 158.5 182.0Q161.0 182.5 163.5 183.0Q166.0 183.5 168.5 184.5Q191.5 190.0 210.0 190.0Q213.5 190.0 221.25 189.75Q229.0 189.5 237.25 188.5Q245.5 187.5 251.5 185.75Q257.5 184.0 257.5 181.0Q257.5 179.5 257.5 178.0Q257.5 176.5 256.5 174.5Q247.5 136.5 234.5 136.5Q225.5 136.5 211.25 139.0Q197.0 141.5 180.75 145.5Q164.5 149.5 149.5 154.25Q134.5 159.0 124.5 163.5Q123.0 164.5 115.25 168.0Q107.5 171.5 100.5 174.5Q93.5 177.5 92.5 177.5Q89.0 177.5 89.0 170.0Q89.0 162.0 90.5 149.5V139.0Q90.5 130.5 90.0 120.25Q89.5 110.0 87.5 102.5L86.5 98.5Q86.0 93.5 85.25 88.25Q84.5 83.0 84.5 80.5Q84.5 78.5 85.5 77.5Q85.5 77.5 85.75 77.25Q86.0 77.0 86.0 76.5H89.5Q92.0 76.5 101.25 78.5Q110.5 80.5 122.5 85.0Q136.0 89.0 153.0 93.5Q170.0 98.0 186.5 101.75Q203.0 105.5 215.5 107.75Q228.0 110.0 232.0 110.0Q232.0 107.5 228.5 99.5Q225.0 91.5 218.5 79.0Q211.5 66.0 206.25 55.25Q201.0 44.5 201.0 44.0Q201.0 40.5 210.0 40.5Q218.0 40.5 232.5 41.0Q247.0 41.5 263.75 42.25Q280.5 43.0 296.0 43.75Q311.5 44.5 321.75 45.25Q332.0 46.0 333.5 46.5Q334.5 48.5 334.5 49.5Q334.5 54.5 323.5 62.0Q319.5 65.0 313.5 72.5Q307.5 80.0 301.75 89.25Q296.0 98.5 292.25 106.25Q288.5 114.0 288.5 117.0Q288.5 118.0 302.25 118.75Q316.0 119.5 346.75 119.75Q377.5 120.0 429.0 120.0H568.5L567.0 109.0Q565.5 103.5 559.0 88.0Q552.5 72.5 544.0 56.5Q536.5 40.5 531.75 28.5Q527.0 16.5 527.0 13.5ZM150.5 247.5 149.5 247.0Q149.5 247.0 147.5 247.75Q145.5 248.5 143.0 249.5Q142.5 251.0 141.5 251.0L141.0 250.5Q142.0 248.5 145.0 248.5Q147.0 248.5 148.75 248.0Q150.5 247.5 150.5 247.5Z" fill="black" /></svg>