<svg xmlns="http://www.w3.org/2000/svg" width="865.5" height="454.5" viewBox="0 0 865.5 454.5"><path d="M97.0 343.0Q97.0 340.5 90.0 335.75Q83.0 331.0 73.5 327.0L67.0 324.5Q62.0 322.5 58.0 320.5L54.5 319.0Q51.5 318.0 50.5 317.5Q50.5 328.5 49.0 340.5L46.5 363.0L70.5 356.5Q97.0 349.5 97.0 343.0ZM126.5 346.0Q125.0 346.0 123.5 346.0Q122.0 346.0 120.5 346.0Q116.0 346.0 116.0 346.5Q116.0 347.0 119.0 347.0Q122.5 347.0 126.5 346.0ZM114.0 219.0V211.5Q114.0 211.0 111.0 208.0L110.5 207.5Q108.5 208.5 108.5 219.0Q108.5 225.0 109.5 229.25Q110.5 233.5 112.5 234.5Q112.5 234.0 113.5 230.0Q113.5 227.0 113.5 224.0Q113.5 221.0 114.0 219.0ZM96.0 111.0 72.0 98.5Q71.5 101.5 71.0 110.0Q70.5 118.5 70.0 127.5Q69.5 136.5 69.0 142.0Q74.0 141.5 84.5 139.25Q95.0 137.0 106.25 134.0Q117.5 131.0 125.5 128.75Q133.5 126.5 133.5 126.0Q133.5 124.0 129.5 124.0Q126.5 124.0 116.75 120.25Q107.0 116.5 96.0 111.0ZM182.5 208.5Q179.5 205.5 177.5 205.5Q175.5 205.5 174.5 208.25Q173.5 211.0 173.5 215.0Q173.5 220.5 175.0 226.5L176.0 231.0L178.0 225.5Q180.0 220.5 181.25 216.25Q182.5 212.0 182.5 209.5Q182.5 209.0 182.5 209.0Q182.5 209.0 182.5 208.5ZM258.0 183.0Q258.0 181.5 256.0 181.0Q256.0 198.0 257.75 214.5Q259.5 231.0 263.5 248.0Q264.0 251.0 264.0 251.0Q264.0 251.0 264.0 251.0Q267.0 236.5 271.25 222.0Q275.5 207.5 281.5 194.5L287.0 185.0L276.5 187.0Q271.5 188.0 268.0 188.0Q258.0 188.0 258.0 183.0ZM295.0 202.0 296.0 201.0Q298.5 198.5 298.5 197.5Q295.5 198.5 295.0 202.0ZM340.5 255.5Q340.5 253.5 335.25 251.25Q330.0 249.0 324.0 247.25Q318.0 245.5 315.5 245.5Q313.5 245.5 311.5 247.5V251.5Q311.0 252.0 311.0 254.0Q311.0 256.5 311.5 257.5Q312.5 258.0 314.75 258.25Q317.0 258.5 319.5 258.5Q326.0 258.5 333.25 257.75Q340.5 257.0 340.5 255.5ZM340.5 222.0Q340.5 207.5 335.0 207.5Q332.5 207.5 328.5 208.5Q324.5 209.5 320.0 212.0Q312.5 215.0 312.5 218.5Q312.5 222.0 317.75 226.0Q323.0 230.0 329.5 232.75Q336.0 235.5 339.5 235.5Q340.5 235.5 340.5 222.0ZM396.0 220.5Q395.5 211.0 393.75 207.25Q392.0 203.5 386.5 203.5Q356.5 203.5 356.5 236.0Q356.5 240.0 362.75 243.0Q369.0 246.0 376.75 247.75Q384.5 249.5 388.5 249.5Q393.5 249.5 395.0 245.75Q396.5 242.0 396.5 235.5Q396.5 232.5 396.5 228.75Q396.5 225.0 396.0 220.5ZM474.5 215.0Q472.5 208.0 467.75 205.5Q463.0 203.0 448.0 202.0Q444.5 201.5 441.0 201.5Q437.5 201.5 435.0 201.5Q427.0 201.5 424.25 203.75Q421.5 206.0 419.0 212.0Q416.5 217.5 415.0 226.0Q413.5 234.5 413.5 240.0Q413.5 246.0 414.75 248.75Q416.0 251.5 421.75 252.0Q427.5 252.5 441.5 252.5Q461.5 252.5 466.5 250.25Q471.5 248.0 474.5 240.5Q477.0 233.0 477.0 227.5Q477.0 224.5 476.5 221.25Q476.0 218.0 474.5 215.0ZM508.0 215.0 504.5 214.0Q494.0 207.5 489.5 206.5Q489.5 211.5 490.25 223.0Q491.0 234.5 493.0 239.0Q496.5 239.0 502.5 237.75Q508.5 236.5 516.5 235.0L541.5 230.5L535.5 227.0Q533.0 226.0 529.5 224.5Q526.0 223.0 522.0 221.5L515.0 218.5Q513.0 217.5 511.25 216.5Q509.5 215.5 508.0 215.0ZM294.0 73.0Q294.0 73.0 288.25 72.75Q282.5 72.5 275.5 72.5Q260.5 72.5 259.0 77.5Q260.0 83.5 266.0 95.5L269.5 106.0L280.0 91.0Q285.5 84.5 289.75 79.0Q294.0 73.5 294.0 73.0ZM334.5 186.5Q330.0 181.0 326.5 181.0Q323.5 181.0 321.5 185.0Q320.0 188.5 320.0 191.0Q320.0 194.0 323.0 194.0Q325.0 194.0 331.25 192.5Q337.5 191.0 337.5 190.0Q337.5 189.5 334.5 186.5ZM366.5 139.0H361.0Q358.5 139.0 354.75 139.5Q351.0 140.0 350.0 141.0Q348.5 141.5 348.5 145.5Q348.5 151.5 350.25 160.5Q352.0 169.5 353.0 169.5Q354.5 169.5 357.5 163.5Q360.5 157.5 363.25 150.25Q366.0 143.0 366.5 139.0ZM392.0 177.5Q392.0 175.0 391.0 167.25Q390.0 159.5 388.5 152.5Q387.0 145.5 385.0 145.5Q382.0 145.5 375.5 161.5Q370.0 172.0 370.0 175.0Q370.0 176.5 374.75 178.5Q379.5 180.5 385.0 182.0Q390.5 183.5 392.0 184.0ZM422.5 145.0H413.5Q404.5 145.0 404.5 149.5Q404.5 151.5 405.25 155.75Q406.0 160.0 408.0 166.5L409.0 171.0L414.5 161.5Q418.0 156.0 420.0 151.25Q422.0 146.5 422.5 145.0ZM765.5 216.0 769.0 210.0Q771.5 205.0 773.25 201.5Q775.0 198.0 776.0 196.0Q773.0 198.0 771.0 198.5Q769.0 199.5 767.0 201.0Q765.0 202.5 762.5 203.5L754.5 208.5Q745.0 216.5 734.75 223.75Q724.5 231.0 722.0 232.5L718.0 234.5Q718.0 234.0 736.5 239.0H738.5Q741.0 239.5 743.25 239.75Q745.5 240.0 747.0 240.0Q752.5 240.0 755.75 235.0Q759.0 230.0 765.5 216.0ZM456.0 61.0Q450.5 54.0 446.25 50.5Q442.0 47.0 440.0 46.5Q439.5 47.0 439.5 49.0Q439.5 52.5 435.0 59.25Q430.5 66.0 425.0 73.0L415.5 82.0L424.5 83.5Q427.0 84.0 430.75 85.25Q434.5 86.5 440.5 87.5Q445.0 89.0 449.5 90.25Q454.0 91.5 459.5 94.0Q465.5 95.0 472.25 97.25Q479.0 99.5 484.5 101.5Q496.5 106.0 506.75 109.0Q517.0 112.0 523.0 113.0Q519.5 110.5 513.0 105.75Q506.5 101.0 499.0 95.5Q487.0 87.5 474.5 77.25Q462.0 67.0 456.0 61.0ZM520.5 325.5Q518.0 326.5 493.5 331.0L483.0 334.0Q469.0 336.0 449.75 338.25Q430.5 340.5 417.0 340.5H389.0L393.0 350.0Q395.0 355.0 396.75 364.25Q398.5 373.5 398.5 379.5Q398.5 391.0 399.5 391.0Q402.0 391.0 406.25 388.25Q410.5 385.5 417.0 382.0Q422.5 377.5 438.0 368.75Q453.5 360.0 469.0 351.5L477.0 347.0Q494.5 339.0 506.75 333.0Q519.0 327.0 520.5 325.5ZM426.5 30.0V28.0Q425.5 25.0 425.25 22.0Q425.0 19.0 425.0 17.0Q425.0 10.0 429.0 10.0Q431.0 10.0 441.25 19.0Q451.5 28.0 462.5 41.0Q473.5 52.5 494.75 69.5Q516.0 86.5 544.5 106.75Q573.0 127.0 605.75 148.5Q638.5 170.0 672.0 190.5L716.5 216.0L749.0 194.0Q758.0 188.0 770.0 179.0Q782.0 170.0 794.0 160.75Q806.0 151.5 814.5 145.0Q828.5 134.0 839.5 127.25Q850.5 120.5 854.0 120.5H855.0L855.5 123.5Q855.5 126.0 850.25 134.0Q845.0 142.0 837.0 150.5Q823.0 165.5 808.5 183.25Q794.0 201.0 784.5 214.75Q775.0 228.5 775.0 232.5Q775.0 234.5 776.25 236.25Q777.5 238.0 779.0 239.5Q781.5 240.0 782.25 242.75Q783.0 245.5 783.0 248.0Q783.0 251.5 782.5 252.5V253.5Q782.5 259.0 800.5 273.0Q813.5 281.5 824.75 292.0Q836.0 302.5 843.25 311.5Q850.5 320.5 850.5 324.5Q850.5 329.0 846.0 329.0Q843.5 329.0 840.0 326.25Q836.5 323.5 834.0 320.0Q829.0 313.5 815.25 303.25Q801.5 293.0 785.0 282.75Q768.5 272.5 754.5 265.5Q740.5 258.5 734.5 258.5Q728.5 258.5 700.5 268.75Q672.5 279.0 629.5 297.0Q586.5 315.0 535.5 338.0Q504.5 351.5 482.0 363.0Q459.5 374.5 442.25 385.25Q425.0 396.0 408.0 408.5Q384.5 426.5 377.0 426.5Q372.0 426.5 372.0 421.5Q372.0 420.0 373.25 416.5Q374.5 413.0 376.0 409.0Q378.5 405.0 379.5 398.75Q380.5 392.5 380.5 386.5Q380.5 374.5 377.5 361.0Q374.5 347.5 368.0 336.5Q363.0 325.0 359.25 317.25Q355.5 309.5 355.5 308.0Q355.5 303.0 361.0 303.0Q365.0 303.0 370.75 306.25Q376.5 309.5 381.5 315.0Q391.0 324.5 422.0 324.5Q436.5 324.5 457.75 322.0Q479.0 319.5 503.5 314.5Q519.0 311.0 539.75 305.25Q560.5 299.5 582.75 292.5Q605.0 285.5 625.75 278.5Q646.5 271.5 662.5 265.5Q678.5 259.5 686.0 255.0L688.5 254.0Q689.5 254.0 689.75 253.75Q690.0 253.5 690.5 253.5Q688.5 252.5 684.0 251.25Q679.5 250.0 672.5 248.0L670.0 247.5Q661.5 246.0 648.0 245.0Q634.5 244.0 620.0 244.0Q601.5 244.0 581.25 245.25Q561.0 246.5 542.5 248.75Q524.0 251.0 510.5 253.75Q497.0 256.5 492.0 260.0Q478.0 268.0 444.5 268.0H413.5V282.0Q413.5 289.0 411.5 294.25Q409.5 299.5 405.0 299.5Q401.5 299.5 399.0 294.25Q396.5 289.0 396.5 281.0Q396.5 274.0 395.5 271.25Q394.5 268.5 389.0 268.5Q386.5 268.5 385.0 269.5H378.0Q359.5 272.0 357.5 280.0Q356.5 286.0 353.5 290.25Q350.5 294.5 348.0 294.5Q340.5 294.5 340.5 281.0Q340.5 275.0 336.0 275.0Q329.5 275.0 301.5 282.5L280.5 287.5L291.0 264.5Q293.5 259.5 294.75 252.75Q296.0 246.0 296.0 240.0Q296.0 236.5 295.25 230.25Q294.5 224.0 290.5 223.5Q288.0 224.5 285.0 234.0Q282.0 243.5 279.5 257.0Q277.0 270.5 275.0 284.75Q273.0 299.0 271.75 310.0Q270.5 321.0 270.5 325.0Q270.5 338.0 281.5 339.5L296.0 344.0V348.5L280.0 352.5Q274.5 354.0 272.0 356.5Q269.5 359.0 269.0 367.75Q268.5 376.5 268.5 397.0Q268.5 418.0 266.75 431.25Q265.0 444.5 261.0 444.5Q257.5 444.5 254.75 431.25Q252.0 418.0 252.0 397.0V355.5L183.0 359.0L182.5 377.5Q181.0 390.0 178.0 395.75Q175.0 401.5 172.0 401.5Q164.5 401.5 164.5 379.0V360.5L141.0 362.5L115.0 363.5L112.5 382.0L110.5 403.5L105.0 404.0L102.0 384.5Q101.5 376.0 100.25 373.25Q99.0 370.5 94.0 370.5Q92.0 370.5 90.0 370.5Q88.0 370.5 85.0 371.0Q77.5 371.0 65.25 374.75Q53.0 378.5 42.5 384.0Q32.5 389.0 24.25 391.75Q16.0 394.5 13.0 394.5L10.5 394.0L10.0 392.0Q10.0 390.0 13.25 384.0Q16.5 378.0 21.5 372.0Q26.0 365.5 28.25 359.0Q30.5 352.5 31.5 341.75Q32.5 331.0 32.5 311.5Q32.5 291.0 33.0 276.75Q33.5 262.5 37.0 262.5Q38.5 262.5 40.0 265.0Q41.5 267.5 43.0 271.5Q45.0 273.5 46.25 276.5Q47.5 279.5 49.0 282.5Q52.5 290.5 60.75 299.0Q69.0 307.5 78.25 313.5Q87.5 319.5 94.5 319.5Q96.0 319.5 97.0 309.0Q98.0 298.5 98.0 283.5Q98.0 268.0 96.5 250.25Q95.0 232.5 91.5 218.0Q90.5 208.0 89.75 200.25Q89.0 192.5 89.0 188.0Q89.0 183.5 90.5 182.0L92.5 181.5Q94.5 181.5 99.25 182.75Q104.0 184.0 110.0 187.5Q118.5 194.0 127.0 194.0Q129.5 194.0 130.5 193.5Q132.5 193.0 134.0 192.5Q135.5 192.0 137.0 192.0Q147.0 192.0 147.0 200.0Q147.0 202.0 145.5 205.0Q144.0 208.0 140.5 210.0Q135.5 213.0 130.25 228.0Q125.0 243.0 121.5 263.25Q118.0 283.5 118.0 302.5Q118.0 315.0 118.75 320.5Q119.5 326.0 122.75 328.0Q126.0 330.0 132.5 331.5L144.5 334.5Q148.0 335.0 150.75 335.25Q153.5 335.5 155.5 335.5Q160.5 335.5 162.0 331.75Q163.5 328.0 163.5 318.5Q163.5 314.0 163.25 308.0Q163.0 302.0 162.5 295.0V286.0L162.0 279.0Q161.5 254.5 158.25 232.75Q155.0 211.0 154.0 203.0Q153.0 199.0 152.0 193.75Q151.0 188.5 151.0 186.5Q151.0 182.0 153.5 181.5H154.5Q156.5 181.5 162.0 183.0Q167.5 184.5 173.0 188.0Q183.0 193.0 194.0 193.0Q197.5 193.0 198.5 192.0Q203.5 191.0 205.5 191.0Q211.5 191.0 211.5 196.0Q211.5 202.0 203.5 211.5Q197.5 217.5 193.5 231.0Q189.5 244.5 187.0 261.0Q184.5 277.5 183.5 292.75Q182.5 308.0 182.5 317.0L183.0 337.0L214.0 339.0H219.0Q221.0 339.5 224.5 339.5Q246.0 339.5 249.5 336.0Q250.5 335.5 250.5 321.5Q250.5 308.0 249.0 287.75Q247.5 267.5 244.75 245.5Q242.0 223.5 238.5 205.0Q235.0 186.5 231.5 176.5Q228.0 167.0 226.0 160.25Q224.0 153.5 224.0 150.0Q224.0 145.0 229.5 145.0Q231.5 145.0 235.5 147.0Q239.5 149.0 244.0 153.0Q255.5 163.0 257.5 163.0Q258.0 163.0 258.0 151.5Q258.0 139.0 252.0 135.5Q251.0 135.0 248.5 135.0Q246.0 135.0 243.0 135.0Q232.5 135.0 212.25 136.5Q192.0 138.0 169.25 140.5Q146.5 143.0 127.25 145.5Q108.0 148.0 98.5 150.0Q91.0 152.0 80.75 156.75Q70.5 161.5 65.0 165.5Q52.5 174.5 46.5 174.5Q40.5 174.5 40.5 168.0Q40.5 162.0 47.0 147.5Q52.0 136.5 54.25 127.75Q56.5 119.0 56.5 106.5Q56.5 102.0 56.5 97.0Q56.5 92.0 56.0 86.0Q55.0 82.0 54.75 77.5Q54.5 73.0 54.5 69.5Q54.5 46.5 61.5 46.5Q68.5 46.5 73.5 67.5Q77.5 82.0 95.5 93.5Q113.5 105.0 142.25 111.5Q171.0 118.0 207.0 118.0Q227.0 118.0 236.5 117.5Q246.0 117.0 249.0 115.75Q252.0 114.5 252.0 111.5Q252.0 106.0 248.25 97.5Q244.5 89.0 239.5 81.0Q234.5 73.0 230.0 69.5Q226.5 67.5 223.75 63.75Q221.0 60.0 221.0 56.5Q221.0 52.5 222.25 50.5Q223.5 48.5 227.5 48.5Q232.0 48.5 238.0 51.0L239.5 51.5Q245.0 53.5 264.0 55.75Q283.0 58.0 303.0 58.5Q359.0 59.5 359.0 66.5Q359.0 72.0 338.5 75.0Q321.0 77.5 306.25 89.5Q291.5 101.5 282.75 118.25Q274.0 135.0 274.0 152.0Q274.0 167.0 288.5 167.0Q295.5 167.0 297.75 166.25Q300.0 165.5 300.0 162.0Q300.0 158.5 299.5 156.0V151.5Q299.5 139.5 307.0 138.5Q310.0 139.0 313.25 141.75Q316.5 144.5 318.5 151.0Q319.5 154.5 322.5 158.5Q325.5 162.5 330.0 163.5L330.5 164.0Q333.5 167.0 335.0 167.0Q335.0 159.5 333.0 152.0Q331.0 144.5 326.5 138.0Q324.0 131.5 322.25 127.25Q320.5 123.0 320.5 120.5Q320.5 114.5 326.5 114.5Q331.5 114.5 340.0 118.0Q342.5 120.0 347.75 121.25Q353.0 122.5 359.0 122.5Q362.5 122.5 365.75 122.25Q369.0 122.0 372.0 121.5Q376.0 121.0 380.5 120.75Q385.0 120.5 388.0 120.5Q393.5 120.5 398.5 121.25Q403.5 122.0 405.5 124.0Q408.0 126.5 413.5 127.25Q419.0 128.0 425.5 128.0H433.0Q439.0 127.0 444.5 126.75Q450.0 126.5 452.5 126.5Q459.5 126.5 459.5 130.0Q459.5 132.0 457.25 134.5Q455.0 137.0 451.0 141.0Q448.5 142.5 447.0 145.0Q442.0 148.5 436.75 155.75Q431.5 163.0 428.0 170.5Q424.5 178.0 424.0 182.5V183.0Q425.5 184.0 434.0 185.75Q442.5 187.5 451.75 188.75Q461.0 190.0 464.0 190.0Q469.5 190.0 469.5 187.0L469.0 185.0V183.0Q468.5 180.5 468.5 179.0Q468.5 177.5 468.5 176.0Q468.5 165.5 474.5 165.5Q480.5 165.5 487.5 177.5Q494.0 188.5 516.5 200.25Q539.0 212.0 568.0 219.0Q582.0 221.5 599.75 223.5Q617.5 225.5 635.75 226.5Q654.0 227.5 668.0 227.5Q691.0 227.5 694.0 226.5Q692.5 223.0 677.5 213.0Q662.5 203.0 639.75 190.0Q617.0 177.0 591.75 164.0Q566.5 151.0 544.0 141.5Q534.5 137.0 517.0 130.0Q499.5 123.0 479.0 115.75Q458.5 108.5 440.0 103.75Q421.5 99.0 410.5 99.0Q405.5 99.0 401.0 100.0Q396.5 101.0 390.5 103.5Q383.0 105.5 378.0 106.5Q373.0 107.5 370.0 107.5Q363.0 107.5 363.0 103.0Q363.0 97.5 375.5 90.0Q380.5 88.0 389.0 81.25Q397.5 74.5 406.25 65.5Q415.0 56.5 421.0 48.0Q427.0 39.5 427.0 33.5Q427.0 32.5 426.75 31.5Q426.5 30.5 426.5 30.0Z" fill="black" /></svg>