<svg xmlns="http://www.w3.org/2000/svg" width="924.5" height="455.0" viewBox="0 0 924.5 455.0"><path d="M56.5 297.0Q36.5 287.0 29.5 285.0Q30.5 287.5 30.5 294.0Q30.5 300.5 30.5 307.5Q31.0 317.0 31.0 323.5Q31.0 330.0 31.0 330.0Q34.0 328.0 39.0 325.5L45.5 322.0Q51.0 317.5 59.0 313.25Q67.0 309.0 73.0 307.0Q74.0 306.5 74.75 306.5Q75.5 306.5 76.0 306.0H77.5Q76.0 305.0 71.0 303.0Q66.0 301.0 56.5 297.0ZM295.0 106.5Q295.0 99.5 294.75 94.25Q294.5 89.0 294.0 89.0Q293.0 89.0 290.0 93.75Q287.0 98.5 284.0 105.5Q281.0 111.0 279.0 118.75Q277.0 126.5 276.0 140.25Q275.0 154.0 274.5 177.25Q274.0 200.5 274.0 237.5V255.0Q273.5 259.5 273.5 263.25Q273.5 267.0 273.5 271.0V279.0Q273.0 288.5 272.5 296.75Q272.0 305.0 272.0 312.0Q272.0 333.0 275.0 343.0Q278.0 353.0 285.5 357.25Q293.0 361.5 307.0 366.5L323.5 372.0Q335.0 376.0 345.75 378.5Q356.5 381.0 370.25 382.5Q384.0 384.0 404.25 385.0Q424.5 386.0 455.0 387.0L548.5 389.0L545.5 274.5Q544.0 214.5 541.5 179.25Q539.0 144.0 535.0 128.5Q532.0 117.0 528.5 107.0Q525.0 97.0 524.0 96.5Q523.5 95.5 511.75 94.75Q500.0 94.0 481.0 93.75Q462.0 93.5 439.0 93.5Q409.0 93.5 391.5 94.0Q374.0 94.5 364.0 95.75Q354.0 97.0 348.0 99.25Q342.0 101.5 335.0 105.5Q326.5 110.5 319.75 116.0Q313.0 121.5 312.0 123.0Q309.0 132.5 303.5 132.5Q300.0 132.5 297.5 125.75Q295.0 119.0 295.0 106.5ZM598.0 286.0H597.0Q596.0 285.0 590.75 282.75Q585.5 280.5 580.0 278.25Q574.5 276.0 572.0 275.5Q573.0 277.5 573.0 283.25Q573.0 289.0 573.0 297.5V318.5L589.0 309.5Q600.0 304.5 609.5 301.0Q619.0 297.5 624.0 297.5Q624.5 297.5 624.5 297.5Q624.5 297.5 625.0 297.5Q621.5 296.0 614.75 293.0Q608.0 290.0 598.0 286.0ZM78.0 164.0 61.0 156.0 58.5 154.0Q51.0 150.5 44.25 147.5Q37.5 144.5 35.0 143.0Q34.5 145.0 34.25 150.75Q34.0 156.5 34.0 164.5Q34.0 185.5 36.5 185.5Q37.5 185.5 40.5 183.0Q43.5 180.5 49.0 176.5Q51.5 174.5 58.25 171.0Q65.0 167.5 71.0 166.0ZM273.5 93.0 282.5 74.0H262.0Q250.0 74.0 245.0 74.25Q240.0 74.5 240.0 75.5Q240.0 76.0 240.5 76.5Q241.0 77.0 241.5 78.0Q242.0 80.0 242.75 82.75Q243.5 85.5 245.5 88.5L247.5 94.0Q249.0 97.5 250.25 101.75Q251.5 106.0 253.0 110.0Q258.5 126.5 261.5 129.5V126.0Q261.5 122.0 265.0 113.0Q268.5 104.0 273.5 93.0ZM343.0 82.0 352.5 78.5 332.5 69.0Q326.0 66.0 320.0 63.5Q314.0 61.0 310.5 60.5Q310.5 65.0 310.75 73.75Q311.0 82.5 311.25 90.5Q311.5 98.5 312.0 101.5Q314.5 101.0 318.5 97.0Q322.0 93.5 329.25 89.0Q336.5 84.5 343.0 82.0ZM592.5 158.5 592.0 158.0Q591.0 156.0 585.5 156.0Q582.0 156.0 582.0 178.5Q582.0 187.5 582.0 193.25Q582.0 199.0 581.5 201.5Q586.5 199.0 591.0 196.5Q595.5 194.0 600.5 191.0Q609.5 186.5 619.0 182.5Q628.5 178.5 638.0 178.5Q638.0 177.5 632.75 175.25Q627.5 173.0 619.5 170.0Q609.5 167.5 601.75 164.0Q594.0 160.5 592.5 158.5ZM576.0 31.0Q576.0 30.0 567.75 29.75Q559.5 29.5 547.0 29.5Q537.5 29.5 530.25 29.5Q523.0 29.5 520.5 29.0Q521.0 30.5 523.0 36.75Q525.0 43.0 529.0 54.0Q531.5 64.0 536.0 78.25Q540.5 92.5 545.5 111.5Q546.5 109.0 548.0 104.25Q549.5 99.5 551.5 92.5Q555.0 81.0 559.75 68.0Q564.5 55.0 567.5 48.5Q571.5 42.5 573.75 37.0Q576.0 31.5 576.0 31.0ZM869.0 53.5 882.0 32.0H842.5Q825.5 32.0 813.5 32.25Q801.5 32.5 801.5 32.5Q801.5 33.0 804.0 38.75Q806.5 44.5 809.5 50.0Q814.0 57.0 820.25 70.75Q826.5 84.5 830.0 97.5Q838.0 122.0 842.5 128.0Q842.5 109.0 851.0 89.0Q859.5 69.0 869.0 53.5ZM280.0 372.5V372.0L276.5 370.0Q273.0 368.5 271.0 367.5Q269.0 366.5 267.0 366.5Q264.5 366.5 263.75 372.25Q263.0 378.0 263.0 391.0V416.5Q266.0 416.0 273.5 412.75Q281.0 409.5 289.5 404.5Q299.5 399.5 309.75 395.25Q320.0 391.0 323.5 390.0H323.0L324.0 389.5L320.5 388.0Q319.5 387.5 317.5 387.0Q315.5 386.5 314.0 386.0Q306.0 383.5 295.75 379.25Q285.5 375.0 280.0 372.5ZM12.0 276.5Q10.0 271.0 10.0 267.0Q10.0 259.5 17.0 259.5Q24.0 259.5 42.0 272.5Q60.0 283.5 78.5 290.0Q97.0 296.5 122.25 299.25Q147.5 302.0 185.0 302.0Q216.5 302.0 237.25 303.75Q258.0 305.5 258.0 310.0Q258.0 312.0 245.5 313.75Q233.0 315.5 212.25 316.75Q191.5 318.0 166.0 318.5Q133.5 319.5 112.75 320.75Q92.0 322.0 79.0 324.5Q66.0 327.0 57.5 332.25Q49.0 337.5 40.5 346.0Q35.0 350.0 30.0 352.75Q25.0 355.5 22.5 355.5Q20.5 355.5 18.5 345.75Q16.5 336.0 16.5 321.5Q16.5 308.5 15.0 295.0Q13.5 281.5 12.0 276.5ZM345.5 154.5Q346.0 154.0 356.0 153.5Q366.0 153.0 380.0 153.0Q386.5 153.0 393.75 153.0Q401.0 153.0 408.0 153.5Q440.0 154.0 457.25 156.5Q474.5 159.0 474.5 163.0Q474.5 170.0 415.5 170.0H358.5V256.5Q358.5 299.0 356.5 321.25Q354.5 343.5 350.5 343.5H348.5Q347.5 342.5 346.25 330.0Q345.0 317.5 344.25 298.0Q343.5 278.5 343.0 256.0Q342.5 233.5 342.5 213.0Q342.5 190.5 343.0 173.5Q343.5 156.5 345.5 154.5ZM497.5 13.5 498.0 11.0 500.0 10.0Q512.5 10.0 524.5 13.0Q530.0 15.0 537.75 15.5Q545.5 16.0 553.5 16.0Q558.5 16.0 562.5 16.0Q566.5 16.0 570.5 15.5L575.0 15.0Q578.0 14.0 581.0 13.75Q584.0 13.5 586.0 13.5Q600.0 13.5 600.5 21.0Q599.5 28.0 590.0 40.0Q576.0 58.5 568.75 90.75Q561.5 123.0 559.0 178.0L556.5 249.5L579.0 261.0Q597.5 270.0 614.25 276.25Q631.0 282.5 649.75 286.25Q668.5 290.0 692.5 291.5Q716.5 293.0 749.0 293.0Q786.0 293.0 810.25 294.75Q834.5 296.5 834.5 299.5Q834.5 302.0 820.0 304.0Q805.5 306.0 780.75 307.25Q756.0 308.5 725.0 309.5Q688.5 310.0 666.75 310.5Q645.0 311.0 633.25 312.25Q621.5 313.5 614.75 315.75Q608.0 318.0 602.0 322.0Q585.0 331.5 576.5 337.75Q568.0 344.0 565.5 351.75Q563.0 359.5 563.0 373.5V403.5H447.5Q415.5 403.5 387.5 404.25Q359.5 405.0 340.5 406.0Q321.5 407.0 316.5 408.5Q310.5 410.5 299.0 416.5Q287.5 422.5 278.0 429.5Q269.5 436.0 261.5 440.5Q253.5 445.0 251.5 445.0H250.5Q249.5 443.0 248.5 432.25Q247.5 421.5 247.0 407.25Q246.5 393.0 246.25 380.75Q246.0 368.5 246.0 363.5Q246.0 350.5 247.5 346.5Q249.0 342.5 253.5 342.5H254.5Q259.0 341.5 259.0 334.5V324.0Q258.5 312.5 258.25 291.5Q258.0 270.5 258.0 247.5L257.5 174.5H177.5Q144.5 174.5 123.25 175.5Q102.0 176.5 88.5 179.25Q75.0 182.0 65.75 186.5Q56.5 191.0 46.5 198.5Q39.0 204.5 31.5 208.5Q24.0 212.5 22.5 212.5Q21.5 211.5 20.5 203.25Q19.5 195.0 18.75 183.0Q18.0 171.0 17.75 158.5Q17.5 146.0 17.5 136.5Q17.5 128.0 18.25 122.75Q19.0 117.5 21.0 117.5H21.5Q23.0 118.0 28.25 120.75Q33.5 123.5 41.5 127.5Q47.0 129.5 52.75 132.25Q58.5 135.0 64.5 138.0L101.0 157.0L178.5 158.5H208.0Q227.0 158.5 239.25 158.75Q251.5 159.0 251.5 159.0Q251.0 155.0 248.5 145.5Q246.0 136.0 242.25 124.5Q238.5 113.0 234.75 102.75Q231.0 92.5 228.0 86.5Q219.0 69.5 219.0 62.0Q219.0 60.0 226.0 59.0Q233.0 58.0 243.0 58.0H257.5L290.0 60.5V51.5Q290.0 45.0 292.0 40.75Q294.0 36.5 294.5 36.5Q295.5 36.5 306.5 41.0Q317.5 45.5 331.5 52.0L340.5 55.5L382.5 75.5L451.5 77.0H460.5Q469.5 77.5 477.0 77.75Q484.5 78.0 490.0 78.0Q506.0 78.0 512.5 76.5Q519.0 75.0 519.0 70.5Q519.0 67.0 516.5 62.25Q514.0 57.5 510.0 49.5L507.5 43.0Q503.0 33.0 500.25 24.5Q497.5 16.0 497.5 13.5ZM399.0 187.0Q401.5 185.5 413.25 184.5Q425.0 183.5 440.0 183.5Q454.5 183.5 468.25 184.25Q482.0 185.0 491.25 186.75Q500.5 188.5 500.5 191.0Q500.5 195.0 487.25 196.75Q474.0 198.5 452.0 198.5H410.5V259.5Q410.5 291.0 408.25 309.25Q406.0 327.5 403.0 327.5Q400.0 327.5 398.25 315.5Q396.5 303.5 395.75 285.0Q395.0 266.5 395.0 247.5Q395.0 225.5 396.0 207.25Q397.0 189.0 399.0 187.0ZM777.5 21.5 777.0 20.5V20.0Q777.0 17.5 785.5 16.75Q794.0 16.0 807.0 16.0Q821.5 16.0 839.5 16.25Q857.5 16.5 874.25 17.0Q891.0 17.5 902.25 18.25Q913.5 19.0 914.5 20.0V21.5Q914.5 23.5 910.75 28.25Q907.0 33.0 901.5 38.0Q896.5 42.5 888.5 52.5Q880.5 62.5 876.0 72.5Q867.5 87.0 862.5 103.5Q857.5 120.0 855.25 144.75Q853.0 169.5 853.0 209.0Q853.0 223.0 853.5 239.0Q854.0 255.0 854.5 273.0V286.5Q856.0 336.5 856.0 368.0Q856.0 417.5 850.0 417.5Q847.0 417.5 844.75 403.0Q842.5 388.5 842.5 361.5Q842.5 346.5 842.0 326.0Q841.5 305.5 840.75 284.25Q840.0 263.0 839.0 246.0L836.0 190.0H745.0Q708.0 190.0 683.25 191.0Q658.5 192.0 642.0 194.75Q625.5 197.5 614.0 202.25Q602.5 207.0 592.0 214.5Q585.5 219.5 578.75 223.5Q572.0 227.5 572.0 227.5Q570.5 226.5 569.25 216.5Q568.0 206.5 566.75 192.25Q565.5 178.0 565.0 164.25Q564.5 150.5 564.5 142.5Q564.5 131.0 568.0 131.0Q569.0 131.0 576.75 134.5Q584.5 138.0 593.5 143.0Q617.5 154.5 640.0 161.5Q662.5 168.5 690.75 171.25Q719.0 174.0 761.0 174.0Q795.0 174.0 816.25 173.25Q837.5 172.5 837.5 171.0Q837.5 162.5 833.0 147.75Q828.5 133.0 821.0 115.0Q813.5 97.0 805.5 79.0Q797.5 61.0 790.0 45.75Q782.5 30.5 777.5 21.5Z" fill="black" /></svg>