<svg xmlns="http://www.w3.org/2000/svg" width="929.5" height="458.0" viewBox="0 0 929.5 458.0"><path d="M58.0 301.0H57.5Q46.5 295.5 39.5 292.25Q32.5 289.0 32.0 289.0Q33.0 292.5 33.0 298.0Q33.0 303.5 33.0 310.0Q33.5 313.5 33.75 317.25Q34.0 321.0 34.0 324.0Q34.0 326.0 33.75 327.75Q33.5 329.5 33.5 331.0Q42.0 324.5 53.0 317.5Q64.0 310.5 73.5 308.0Q74.0 308.0 74.5 307.5Q71.0 306.0 58.0 301.0ZM76.0 165.0 61.5 159.0Q44.5 150.0 35.5 146.5Q37.0 151.5 37.0 166.0Q37.0 183.0 37.5 185.0Q38.5 184.5 42.0 182.5Q45.5 180.5 49.0 177.0Q51.0 176.0 53.0 174.0Q57.0 172.5 62.0 170.0Q67.0 167.5 72.0 166.5ZM347.0 198.5 348.5 192.0 353.0 182.5H343.5ZM395.5 167.0H396.0Q395.0 166.5 392.0 165.5Q389.0 164.5 388.5 164.0Q387.5 163.0 385.5 162.25Q383.5 161.5 382.5 161.0Q383.0 161.5 383.0 164.0L383.5 164.5V172.5L384.0 172.0H384.5Q385.0 171.0 385.75 171.0Q386.5 171.0 387.0 170.5Q388.0 169.5 390.5 168.75Q393.0 168.0 395.5 167.0ZM396.0 238.0Q396.5 235.5 397.0 233.25Q397.5 231.0 398.5 229.0L401.5 224.5H391.5L392.0 225.0Q393.0 227.0 394.0 230.75Q395.0 234.5 395.5 237.0Q395.5 237.0 395.75 237.25Q396.0 237.5 396.0 238.0ZM295.5 109.0Q295.5 102.0 295.25 97.5Q295.0 93.0 295.0 93.0Q292.0 96.0 287.5 108.0Q284.5 113.0 282.5 120.25Q280.5 127.5 279.25 141.0Q278.0 154.5 277.5 178.0Q277.0 201.5 276.5 239.5Q276.5 244.5 276.5 249.5Q276.5 254.5 275.5 258.5V298.0Q275.0 302.5 275.0 306.5Q275.0 310.5 275.0 314.5Q275.0 335.0 277.5 344.75Q280.0 354.5 287.75 358.75Q295.5 363.0 310.0 368.0Q313.5 369.5 317.5 370.75Q321.5 372.0 326.0 373.5Q337.5 378.0 347.75 380.5Q358.0 383.0 371.5 384.5Q385.0 386.0 405.5 386.75Q426.0 387.5 457.0 388.5L551.0 390.5L547.5 277.0Q545.5 215.0 542.75 180.5Q540.0 146.0 536.0 130.5Q534.5 127.5 533.75 123.75Q533.0 120.0 532.0 117.0Q530.0 110.0 528.0 104.5Q526.0 99.0 525.0 98.5Q525.0 97.5 513.5 97.25Q502.0 97.0 483.0 96.75Q464.0 96.5 441.0 96.5Q411.0 96.5 393.25 96.75Q375.5 97.0 365.75 98.25Q356.0 99.5 350.0 101.75Q344.0 104.0 337.5 108.0Q329.5 113.0 322.5 118.0Q315.5 123.0 315.0 125.5Q313.0 130.5 311.0 133.25Q309.0 136.0 305.5 136.0Q295.5 136.0 295.5 109.0ZM441.5 209.0 439.5 208.5Q436.0 206.5 433.25 205.25Q430.5 204.0 429.0 203.0V211.0Q429.0 213.0 429.0 214.75Q429.0 216.5 429.5 217.0Q432.0 214.5 435.0 212.25Q438.0 210.0 440.0 209.5ZM274.0 94.0 282.0 77.5H243.5Q243.5 77.5 243.75 77.75Q244.0 78.0 245.5 78.5Q246.0 80.5 246.5 82.5Q247.0 84.5 247.5 86.5Q248.0 87.5 248.5 88.75Q249.0 90.0 249.5 92.5Q250.5 95.5 252.75 102.5Q255.0 109.5 257.75 116.75Q260.5 124.0 262.5 128.0Q262.5 123.5 266.0 114.25Q269.5 105.0 274.0 94.0ZM344.0 82.5 351.0 80.5 333.5 72.5Q328.0 69.5 322.5 67.25Q317.0 65.0 313.5 64.0Q313.5 72.0 313.75 83.75Q314.0 95.5 314.5 101.0Q315.0 101.0 317.25 99.25Q319.5 97.5 319.5 97.5Q323.5 94.5 330.5 89.75Q337.5 85.0 344.0 82.5ZM593.5 160.5Q593.5 160.0 591.5 159.5Q589.5 159.0 588.5 159.0Q586.5 159.0 586.0 163.75Q585.5 168.5 585.5 180.5Q585.5 188.0 585.0 194.0Q584.5 200.0 584.0 202.5Q585.5 201.5 591.25 198.75Q597.0 196.0 603.5 192.5Q609.5 188.5 619.75 183.5Q630.0 178.5 637.0 178.5Q635.0 177.5 630.75 176.0Q626.5 174.5 621.5 173.0Q611.5 170.5 603.5 166.75Q595.5 163.0 593.5 160.5ZM577.0 32.5Q577.0 32.0 569.25 32.0Q561.5 32.0 550.0 32.0Q529.5 32.0 524.0 30.5Q525.0 33.5 528.75 44.5Q532.5 55.5 539.5 77.5Q540.5 82.5 542.25 88.0Q544.0 93.5 545.5 99.5Q546.5 101.5 547.25 103.5Q548.0 105.5 548.5 108.0V107.5Q549.5 105.0 550.75 101.25Q552.0 97.5 553.0 94.0Q556.0 82.5 560.75 68.75Q565.5 55.0 569.0 48.5Q572.5 43.0 574.75 38.0Q577.0 33.0 577.0 32.5ZM871.0 55.0 883.0 35.0H846.0Q838.0 35.0 831.5 34.75Q825.0 34.5 819.5 34.0H805.0Q805.0 35.5 807.75 40.75Q810.5 46.0 814.0 51.5Q818.0 58.0 824.25 71.75Q830.5 85.5 834.5 99.5Q837.5 109.0 840.25 116.0Q843.0 123.0 845.0 127.0Q846.0 108.0 854.25 88.75Q862.5 69.5 871.0 55.0ZM281.5 376.5Q276.5 372.5 273.5 371.25Q270.5 370.0 269.5 370.0Q267.5 370.0 267.0 375.25Q266.5 380.5 266.5 393.5Q266.5 402.0 266.5 409.0Q266.5 416.0 265.5 418.5Q268.0 417.5 275.25 414.0Q282.5 410.5 290.5 405.5Q299.0 401.5 307.5 398.0Q316.0 394.5 321.0 392.5Q311.0 389.5 301.0 385.0Q291.0 380.5 281.5 376.5ZM600.0 290.0 587.5 285.0Q584.0 283.0 580.5 281.5Q577.0 280.0 575.0 279.0Q576.0 282.0 576.25 287.5Q576.5 293.0 576.5 300.5V318.5L592.0 310.0Q600.5 306.0 608.75 303.0Q617.0 300.0 622.0 299.0Q618.5 297.5 613.0 295.0Q607.5 292.5 600.0 290.0ZM329.0 176.5Q328.0 174.5 328.0 173.5Q328.0 170.5 336.5 170.5Q339.5 170.5 346.25 171.0Q353.0 171.5 359.5 171.75Q366.0 172.0 366.5 172.5V173.5Q366.5 175.5 365.25 179.5Q364.0 183.5 362.0 188.5Q357.5 197.0 355.5 207.75Q353.5 218.5 353.0 236.0Q352.5 253.5 352.5 283.0Q352.5 335.5 348.5 335.5Q347.0 335.5 345.75 320.75Q344.5 306.0 344.0 283.0Q343.5 255.0 342.25 237.0Q341.0 219.0 338.0 205.25Q335.0 191.5 329.0 176.5ZM378.0 217.0Q378.0 216.5 383.75 215.25Q389.5 214.0 398.0 214.0Q406.0 214.0 411.75 215.25Q417.5 216.5 417.5 217.5Q417.5 220.0 414.5 223.0Q412.5 224.5 410.5 227.75Q408.5 231.0 407.0 234.5Q404.0 241.0 403.5 253.75Q403.0 266.5 402.5 296.0V309.0Q401.5 318.0 400.75 324.25Q400.0 330.5 398.5 330.5H397.0Q396.5 329.5 394.75 320.0Q393.0 310.5 393.0 296.0Q393.0 279.5 392.5 268.75Q392.0 258.0 390.25 249.25Q388.5 240.5 384.0 231.0Q381.0 225.5 379.5 221.25Q378.0 217.0 378.0 217.0ZM12.0 278.5Q11.5 277.5 11.5 276.75Q11.5 276.0 10.5 274.5Q10.5 273.5 10.25 272.0Q10.0 270.5 10.0 269.0Q10.0 261.5 18.0 261.5Q25.0 261.5 44.0 274.0Q61.5 285.0 80.0 291.25Q98.5 297.5 123.5 300.25Q148.5 303.0 186.0 303.0Q214.0 303.0 234.0 304.75Q254.0 306.5 259.0 309.5Q259.0 297.0 259.0 281.75Q259.0 266.5 259.0 250.5L258.0 177.5H178.5Q145.5 177.5 124.25 178.5Q103.0 179.5 89.75 182.0Q76.5 184.5 67.0 189.25Q57.5 194.0 48.0 201.5Q40.0 207.5 32.5 211.75Q25.0 216.0 22.5 216.0Q22.0 215.0 21.0 206.5Q20.0 198.0 19.25 185.75Q18.5 173.5 18.0 160.75Q17.5 148.0 17.5 138.5Q17.5 129.0 19.0 123.5Q20.5 118.0 23.5 118.0L102.5 158.0L179.5 160.0H211.0Q227.0 160.0 237.75 160.25Q248.5 160.5 252.0 161.0Q251.5 157.0 249.0 147.5Q246.5 138.0 242.75 126.75Q239.0 115.5 235.0 105.25Q231.0 95.0 228.0 89.0Q224.0 82.0 221.5 74.25Q219.0 66.5 219.0 64.5Q219.0 61.0 226.0 59.5Q233.0 58.0 244.0 58.0H259.5L290.5 61.5V53.0Q290.5 46.0 292.25 41.0Q294.0 36.0 296.0 36.0Q298.0 36.0 304.75 39.0Q311.5 42.0 322.0 46.0L324.5 47.5Q328.5 49.0 332.25 51.0Q336.0 53.0 341.0 55.0L384.0 76.5L453.0 78.0H463.0Q472.0 78.5 479.25 78.5Q486.5 78.5 492.5 78.5Q507.0 78.5 513.5 77.25Q520.0 76.0 520.0 73.5Q520.0 69.5 517.75 64.25Q515.5 59.0 511.5 50.5L508.5 44.5Q504.5 34.5 501.75 25.5Q499.0 16.5 499.0 14.0V11.5L501.0 10.0Q507.5 10.0 514.0 11.0Q520.5 12.0 527.0 13.0Q531.5 14.5 539.5 15.0Q547.5 15.5 555.5 15.5Q560.0 15.5 564.75 15.5Q569.5 15.5 573.5 15.0Q577.5 14.0 581.75 13.75Q586.0 13.5 589.0 13.5Q605.5 13.5 605.5 22.0Q605.5 25.5 602.25 30.5Q599.0 35.5 594.5 41.0Q573.0 71.5 568.25 107.0Q563.5 142.5 563.5 179.0L565.0 252.5L582.0 262.0Q600.0 271.0 616.5 277.25Q633.0 283.5 651.75 287.25Q670.5 291.0 694.5 292.75Q718.5 294.5 751.5 294.5Q789.5 294.5 814.0 296.75Q838.5 299.0 838.5 302.5Q838.5 304.5 823.75 306.75Q809.0 309.0 784.25 310.5Q759.5 312.0 729.0 313.0Q693.5 313.5 671.75 314.0Q650.0 314.5 637.75 315.75Q625.5 317.0 618.5 319.25Q611.5 321.5 605.5 325.5Q588.5 334.0 580.25 340.5Q572.0 347.0 569.5 354.75Q567.0 362.5 567.0 376.0V407.0H449.5Q418.0 407.0 389.75 407.75Q361.5 408.5 342.5 409.5Q323.5 410.5 319.0 412.0Q312.5 414.0 301.0 420.25Q289.5 426.5 280.0 432.5Q272.0 439.0 264.25 443.5Q256.5 448.0 253.5 448.0Q253.0 448.0 252.5 447.75Q252.0 447.5 251.5 447.5Q250.5 445.5 249.75 435.0Q249.0 424.5 248.25 410.5Q247.5 396.5 247.0 384.5Q246.5 372.5 246.5 367.5Q246.5 352.5 248.75 347.5Q251.0 342.5 256.0 342.5H256.5Q259.5 341.5 259.5 336.0V326.5Q259.5 324.0 259.5 320.5Q259.5 317.0 259.0 313.0Q252.5 316.5 226.75 319.0Q201.0 321.5 167.0 322.0Q134.0 322.5 113.25 323.75Q92.5 325.0 80.0 327.75Q67.5 330.5 59.25 335.5Q51.0 340.5 42.0 349.0Q37.0 353.5 31.75 356.25Q26.5 359.0 25.0 359.0Q21.5 359.0 19.25 348.5Q17.0 338.0 17.0 323.5Q17.0 310.5 15.25 297.25Q13.5 284.0 12.0 278.5ZM376.0 186.0Q375.0 185.5 374.25 178.25Q373.5 171.0 373.0 162.75Q372.5 154.5 372.5 152.0V149.5Q375.5 149.5 381.5 152.0L384.0 153.0Q396.0 158.5 409.75 160.0Q423.5 161.5 438.5 161.5Q472.5 161.5 484.0 162.5Q495.5 163.5 495.5 166.5Q495.5 172.0 474.5 172.0H462.5Q459.5 171.0 455.75 171.0Q452.0 171.0 449.0 171.0Q439.5 171.0 430.5 171.5Q421.5 172.0 415.5 172.5Q404.5 173.5 399.0 175.5Q393.5 177.5 388.0 180.5Q384.5 183.0 380.25 184.5Q376.0 186.0 376.0 186.0ZM434.5 226.0Q428.0 232.5 422.5 233.5Q420.5 233.5 420.5 231.5Q420.5 220.5 420.25 210.5Q420.0 200.5 419.5 196.5Q419.0 194.5 419.0 192.5Q419.0 190.5 419.0 189.5Q419.0 185.0 422.0 185.0Q422.0 185.0 425.0 186.75Q428.0 188.5 431.5 191.0Q440.5 197.0 447.75 200.25Q455.0 203.5 465.0 204.5Q475.0 205.5 493.0 206.0Q508.5 206.5 519.0 207.75Q529.5 209.0 529.5 210.0Q529.5 212.0 518.5 212.75Q507.5 213.5 491.0 213.5Q471.0 213.5 460.75 214.25Q450.5 215.0 445.25 217.5Q440.0 220.0 434.5 226.0ZM781.0 26.0 778.5 22.0V21.5Q778.5 18.0 787.25 16.75Q796.0 15.5 809.5 15.5Q824.0 15.5 842.0 15.75Q860.0 16.0 877.25 16.75Q894.5 17.5 906.25 18.75Q918.0 20.0 919.5 21.5V23.5Q919.5 26.5 915.25 30.75Q911.0 35.0 905.5 40.5Q900.5 44.5 892.75 55.0Q885.0 65.5 881.0 74.5Q872.5 89.0 867.5 105.75Q862.5 122.5 860.5 147.25Q858.5 172.0 858.5 212.0Q858.5 227.5 858.5 246.75Q858.5 266.0 859.0 289.5Q860.0 314.0 860.5 334.75Q861.0 355.5 861.0 371.0Q861.0 421.5 853.0 421.5Q849.5 421.5 847.25 406.25Q845.0 391.0 845.0 363.0Q845.0 348.5 844.25 328.25Q843.5 308.0 842.75 286.75Q842.0 265.5 841.0 248.5L838.5 192.5H748.0Q710.5 192.5 686.0 193.25Q661.5 194.0 645.75 196.5Q630.0 199.0 619.0 203.75Q608.0 208.5 597.0 216.5H598.0Q589.0 223.0 581.5 227.0Q574.0 231.0 574.0 231.0Q572.5 229.5 571.0 219.0Q569.5 208.5 568.25 194.25Q567.0 180.0 566.25 166.0Q565.5 152.0 565.5 144.0Q565.5 132.0 570.5 132.0Q572.0 132.0 579.75 135.5Q587.5 139.0 597.0 143.5Q615.0 152.5 631.5 158.25Q648.0 164.0 666.5 167.5Q685.0 171.0 708.25 172.5Q731.5 174.0 763.5 174.0Q797.5 174.0 818.25 173.75Q839.0 173.5 839.0 173.0Q839.0 167.5 834.75 153.25Q830.5 139.0 823.5 120.75Q816.5 102.5 808.5 83.5Q800.5 64.5 793.25 49.25Q786.0 34.0 781.0 26.0Z" fill="black" /></svg>