<svg xmlns="http://www.w3.org/2000/svg" width="490.5" height="382.0" viewBox="0 0 490.5 382.0"><path d="M57.5 279.0Q51.0 277.5 45.25 276.0Q39.5 274.5 38.0 274.0H37.5Q36.5 274.0 36.5 291.0L35.5 309.0L50.0 298.5Q56.0 294.0 61.5 289.75Q67.0 285.5 69.0 283.5Q67.5 282.5 64.5 281.25Q61.5 280.0 57.5 279.0ZM68.5 214.5 60.5 212.5Q54.5 210.5 48.75 208.5Q43.0 206.5 40.5 204.5L40.0 204.0Q40.0 204.5 39.75 207.5Q39.5 210.5 39.5 217.5V232.0ZM69.0 161.5 62.0 160.5Q50.5 158.0 43.0 155.0Q42.5 154.5 41.5 154.5Q40.5 154.5 40.5 154.5Q40.0 154.5 39.75 157.25Q39.5 160.0 39.5 167.0V179.5L45.0 176.5Q46.5 175.5 48.0 174.75Q49.5 174.0 51.0 173.0L53.0 171.5Q55.5 169.5 58.75 167.75Q62.0 166.0 64.0 165.0ZM82.5 271.5V244.0Q82.5 234.5 82.75 227.25Q83.0 220.0 83.5 217.5Q81.0 219.0 74.25 223.75Q67.5 228.5 60.0 234.5Q52.5 240.5 47.0 245.5Q41.5 250.5 41.5 253.0Q41.5 256.5 47.0 261.0Q52.5 265.5 60.5 268.5Q68.5 271.5 75.5 271.5ZM82.5 200.5V184.0Q82.5 178.5 82.5 174.5Q82.5 170.5 83.0 168.5Q79.5 169.0 70.75 174.0Q62.0 179.0 54.5 184.5Q47.0 190.0 47.0 192.0Q47.0 194.5 54.75 197.5Q62.5 200.5 71.5 200.5ZM135.0 243.0V217.0H94.0V270.5L113.5 272.0H134.0Q135.0 264.0 135.0 243.0ZM116.0 127.5H85.5L89.5 138.5Q91.0 143.0 93.0 146.5Q95.0 150.0 96.5 151.0Q99.0 150.0 103.5 145.25Q108.0 140.5 112.0 135.25Q116.0 130.0 116.0 127.5ZM132.5 175.0Q131.5 167.5 129.25 165.75Q127.0 164.0 118.5 164.0Q105.0 164.0 100.0 172.5Q95.0 181.0 95.0 192.5Q96.0 199.0 98.75 200.5Q101.5 202.0 115.0 202.0Q127.5 202.0 130.5 201.0Q133.5 200.0 134.0 195.0V193.0Q134.5 192.0 134.5 190.5Q134.5 187.0 134.0 182.75Q133.5 178.5 132.5 175.0ZM129.0 144.5Q127.5 138.5 125.5 138.5Q124.0 138.5 119.0 144.5L118.5 145.5Q115.5 149.5 115.5 150.5H118.5L121.0 151.0Q123.0 151.5 124.5 151.5Q126.0 151.5 127.5 151.5Q130.5 151.5 130.5 150.0Q130.5 148.0 129.0 144.5ZM159.0 134.5Q154.5 134.5 150.0 134.25Q145.5 134.0 141.0 132.5L139.0 132.0Q138.5 132.0 138.5 132.0Q138.5 132.0 138.0 132.0Q139.0 136.0 141.75 143.5Q144.5 151.0 146.5 151.0Q148.5 151.0 153.5 144.25Q158.5 137.5 159.0 134.5ZM147.0 204.5H216.5V164.0H187.5Q167.5 164.0 161.75 165.25Q156.0 166.5 152.5 171.5Q150.0 175.0 148.5 181.0Q147.0 187.0 147.0 192.5ZM147.0 274.5H216.5V217.0H147.0ZM264.5 307.5Q269.0 302.0 271.75 299.25Q274.5 296.5 274.5 296.5Q272.5 297.0 269.75 297.75Q267.0 298.5 263.5 300.0Q258.5 302.0 250.0 303.25Q241.5 304.5 235.0 304.5Q225.5 305.5 225.5 306.0Q225.5 307.5 226.0 308.0Q227.0 310.0 228.75 316.75Q230.5 323.5 231.5 330.5L235.0 341.5L241.5 333.0Q245.5 328.0 252.0 320.5Q258.5 313.0 264.5 307.5ZM238.5 123.5V123.0Q238.0 121.5 231.0 120.75Q224.0 120.0 222.0 120.0Q222.5 122.0 223.5 126.25Q224.5 130.5 225.5 135.5L228.5 145.5L233.0 138.0Q235.5 134.0 237.0 130.0Q238.5 126.0 238.5 123.5ZM229.0 288.0 216.5 287.5Q217.5 288.0 218.5 288.25Q219.5 288.5 220.5 289.5Q224.5 292.5 232.5 292.5Q247.5 292.5 273.0 282.5L297.5 274.0V214.5Q297.5 177.0 296.5 161.25Q295.5 145.5 291.5 145.5Q290.0 145.5 287.0 148.5Q284.0 151.5 280.0 156.0L268.5 169.5V223.5Q268.5 249.5 267.0 264.25Q265.5 279.0 263.0 279.0Q259.5 279.0 258.0 262.0Q256.5 245.0 256.5 213.0Q256.5 168.0 255.25 151.25Q254.0 134.5 251.5 134.5Q251.5 134.5 249.0 137.75Q246.5 141.0 242.5 145.5L227.5 166.5L228.5 226.5ZM340.5 191.0Q339.0 171.0 338.0 162.0Q337.0 153.0 334.5 153.0Q332.5 153.0 323.0 165.0L309.5 180.0V225.5Q309.5 250.0 309.75 258.25Q310.0 266.5 311.0 266.5Q311.0 266.5 312.0 265.5L318.5 263.5Q323.5 262.0 329.5 259.5Q341.5 255.0 342.0 220.5Q341.5 218.0 341.5 215.5Q341.5 213.0 341.5 210.5Q341.5 206.5 341.25 201.25Q341.0 196.0 340.5 191.0ZM63.5 94.5 54.0 92.0Q50.0 91.0 45.0 89.5Q40.0 88.0 36.0 86.5Q34.0 85.5 31.0 84.5L28.5 84.0Q26.0 81.5 24.5 81.5V120.0L44.5 107.5ZM393.0 142.5 326.5 92.0 288.0 89.0H280.5Q274.5 88.5 269.75 88.25Q265.0 88.0 261.5 88.0Q255.5 88.0 252.5 88.25Q249.5 88.5 249.5 88.5Q248.0 93.0 229.75 94.0Q211.5 95.0 165.5 95.0L85.0 94.5L33.5 130.0L39.5 136.0Q43.0 139.0 50.25 142.5Q57.5 146.0 65.25 148.5Q73.0 151.0 77.5 151.0Q78.5 151.0 78.5 150.75Q78.5 150.5 78.5 150.5Q79.0 150.5 79.0 149.0Q79.0 145.0 75.5 138.0Q72.0 131.0 67.5 127.0Q60.5 121.5 60.5 117.0Q60.5 115.0 62.5 113.5Q72.5 113.5 82.25 114.25Q92.0 115.0 101.5 116.0Q147.0 120.0 165.5 122.5Q184.0 125.0 184.0 129.5Q184.0 131.0 181.5 133.0Q179.0 135.0 176.0 137.0Q173.5 139.0 170.25 142.25Q167.0 145.5 165.5 148.0Q164.0 149.5 164.0 151.0Q164.0 151.5 169.25 151.5Q174.5 151.5 189.0 151.5H216.0L214.0 141.0Q213.0 136.0 210.5 130.25Q208.0 124.5 205.0 121.0Q202.0 118.0 199.75 114.5Q197.5 111.0 197.5 109.5Q197.5 105.5 208.0 105.5Q215.5 105.5 227.5 106.75Q239.5 108.0 250.5 109.75Q261.5 111.5 266.5 113.5Q272.0 115.5 279.5 117.25Q287.0 119.0 293.0 119.0Q310.0 119.0 310.0 126.0Q310.0 128.5 308.0 130.0Q310.0 130.0 312.25 130.0Q314.5 130.0 317.5 130.0Q327.5 130.0 340.0 131.5Q352.5 133.0 364.25 135.5Q376.0 138.0 383.5 140.25Q391.0 142.5 391.0 144.0Q391.0 149.0 383.0 149.0Q381.0 149.0 376.75 153.5Q372.5 158.0 367.5 163.5Q362.5 169.5 359.75 175.0Q357.0 180.5 355.75 188.75Q354.5 197.0 353.0 213.0Q352.5 223.0 352.25 232.25Q352.0 241.5 352.0 247.0Q357.5 245.0 370.0 239.75Q382.5 234.5 397.75 227.75Q413.0 221.0 427.25 214.25Q441.5 207.5 451.0 202.5Q460.5 197.5 461.5 196.0Q458.0 193.0 438.75 177.5Q419.5 162.0 393.0 142.5ZM272.5 130.0H271.5Q268.5 129.0 266.25 128.5Q264.0 128.0 262.0 127.5Q262.5 128.0 262.5 128.5Q262.5 129.0 263.0 129.5Q263.5 131.0 264.5 134.0Q265.5 137.0 266.5 140.5L269.5 149.5L273.0 145.0Q275.5 141.5 277.0 138.75Q278.5 136.0 278.5 134.5Q278.5 131.0 272.5 130.0ZM293.0 77.5 310.0 79.0 300.0 66.5Q295.0 60.5 290.5 54.25Q286.0 48.0 284.5 44.0L282.0 37.5L253.0 74.5H258.5Q263.0 74.5 273.25 75.5Q283.5 76.5 293.0 77.5ZM323.0 142.5Q323.0 142.5 320.25 142.25Q317.5 142.0 313.0 142.0H305.0L310.0 160.5L315.5 154.0Q318.5 150.0 320.75 146.5Q323.0 143.0 323.0 142.5ZM364.0 146.0Q364.0 146.0 361.25 145.75Q358.5 145.5 355.0 145.5Q348.0 145.5 348.0 147.0Q348.0 149.0 349.5 154.5Q351.0 160.0 352.0 162.5Q354.5 160.5 359.25 154.25Q364.0 148.0 364.0 146.0ZM274.0 24.0H274.5Q283.0 10.0 287.0 10.0Q292.0 10.0 293.5 25.5Q293.5 30.5 296.25 37.5Q299.0 44.5 302.0 49.5Q307.0 56.0 327.25 73.25Q347.5 90.5 377.0 114.0Q406.5 137.5 439.0 162.0Q456.0 173.5 468.25 184.25Q480.5 195.0 480.5 197.0Q480.5 200.0 462.25 209.75Q444.0 219.5 418.5 232.0Q394.0 243.0 375.0 252.5Q356.0 262.0 352.5 265.5Q348.0 271.0 343.0 271.0Q341.0 271.0 340.5 270.5H340.0Q328.0 270.5 312.5 280.5Q297.0 290.5 282.25 305.0Q267.5 319.5 256.5 334.25Q245.5 349.0 242.0 359.0Q239.5 364.0 236.75 368.0Q234.0 372.0 233.0 372.0Q231.0 372.0 228.0 362.75Q225.0 353.5 222.5 341.0Q219.5 329.5 216.25 318.25Q213.0 307.0 210.5 303.5Q207.5 296.5 207.5 293.0Q207.5 288.0 210.5 287.5L185.0 286.5H166.0Q152.0 286.5 149.5 287.5Q147.0 288.5 147.0 292.5Q147.0 296.0 146.0 301.5Q145.0 307.0 144.0 311.0Q142.0 317.5 139.5 317.5Q136.5 317.5 135.0 300.5L132.5 284.5L94.0 282.0V300.5Q94.0 310.0 92.5 316.75Q91.0 323.5 88.5 323.5Q86.5 323.5 84.5 318.0Q82.5 312.5 82.5 304.5V290.5Q79.5 291.5 72.75 296.5Q66.0 301.5 58.5 308.25Q51.0 315.0 45.0 320.75Q39.0 326.5 38.0 329.0Q35.0 339.5 31.0 339.5Q27.5 339.5 26.25 327.0Q25.0 314.5 25.0 288.0Q25.0 278.0 25.0 265.0Q25.0 252.0 25.5 236.5Q25.5 231.0 25.5 225.5Q25.5 220.0 26.0 215.0Q26.0 200.5 26.25 189.25Q26.5 178.0 26.5 169.0V138.5Q24.5 138.5 24.5 142.0Q24.5 149.0 19.0 149.0Q17.5 149.0 15.75 141.0Q14.0 133.0 12.75 120.5Q11.5 108.0 10.75 95.0Q10.0 82.0 10.0 72.0Q10.0 60.5 11.0 56.5Q11.5 56.5 12.5 55.5Q13.5 55.5 14.0 55.0Q19.5 56.0 26.0 63.5Q32.5 71.0 44.75 75.0Q57.0 79.0 81.25 80.5Q105.5 82.0 148.0 82.5H229.5L246.5 61.5Q254.5 53.0 262.5 41.75Q270.5 30.5 274.0 24.0Z" fill="black" /></svg>