<svg xmlns="http://www.w3.org/2000/svg" width="612.5" height="383.0" viewBox="0 0 612.5 383.0"><path d="M38.0 302.0V301.5Q36.0 298.5 34.5 298.5Q32.0 298.5 32.0 305.5Q32.0 308.5 32.5 309.0L34.0 307.5Q38.0 303.5 38.0 302.0ZM161.0 254.0Q159.0 251.0 158.0 251.0Q157.0 251.0 155.75 256.5Q154.5 262.0 153.5 271.0V274.0Q153.0 280.0 152.75 284.75Q152.5 289.5 152.5 292.0Q154.0 291.0 157.0 288.5Q160.0 286.0 163.5 283.0Q165.0 282.0 166.5 280.5Q168.0 279.0 169.5 278.0L186.0 265.5L178.5 263.0Q164.5 259.5 161.0 254.0ZM94.0 162.0 86.0 158.0Q82.5 156.0 78.5 154.0Q74.5 152.0 72.5 151.0Q71.0 153.0 69.5 162.25Q68.0 171.5 68.0 177.5V178.5Q70.5 177.5 73.75 175.5Q77.0 173.5 80.5 171.5ZM375.5 150.0Q377.5 142.5 378.75 136.25Q380.0 130.0 380.5 126.5Q376.5 128.5 368.0 134.0Q359.5 139.5 350.25 146.0Q341.0 152.5 334.25 158.0Q327.5 163.5 327.0 165.0Q328.0 166.0 334.75 172.0Q341.5 178.0 350.5 185.75Q359.5 193.5 367.5 200.25Q375.5 207.0 379.0 209.5Q378.5 204.5 375.0 195.5Q373.0 190.0 372.0 185.5Q371.0 181.0 371.0 176.0Q371.0 166.5 375.5 150.0ZM428.5 169.5Q428.5 146.0 428.25 126.75Q428.0 107.5 428.0 96.0Q428.0 84.5 427.5 84.5Q425.5 84.5 420.25 91.25Q415.0 98.0 409.0 107.25Q403.0 116.5 398.5 125.0Q396.0 129.0 392.25 139.25Q388.5 149.5 386.0 160.25Q383.5 171.0 383.5 177.0Q383.5 183.0 388.5 195.5Q393.5 208.0 401.0 221.75Q408.5 235.5 415.75 245.0Q423.0 254.5 427.5 254.5Q428.0 254.5 428.0 243.0Q428.0 231.5 428.25 212.0Q428.5 192.5 428.5 169.5ZM526.5 113.0H527.0Q523.0 111.5 511.75 110.25Q500.5 109.0 488.75 108.25Q477.0 107.5 471.0 107.5Q463.5 107.5 460.25 109.25Q457.0 111.0 453.0 116.0Q448.0 121.0 446.5 124.5Q450.5 125.5 462.75 126.75Q475.0 128.0 490.5 128.0Q509.0 128.0 517.5 127.5Q526.0 127.0 528.25 125.75Q530.5 124.5 530.5 121.5Q530.5 119.0 529.0 116.25Q527.5 113.5 526.5 113.0ZM535.0 176.0H514.5Q505.0 176.0 493.75 175.25Q482.5 174.5 475.5 173.5Q473.5 173.0 471.5 172.75Q469.5 172.5 467.5 172.5Q460.0 172.5 452.5 182.0Q443.5 190.0 443.5 194.5Q443.5 198.5 455.0 200.25Q466.5 202.0 491.5 202.0H535.0ZM493.0 235.0 535.0 238.0V215.5H497.0Q480.0 215.5 470.75 216.25Q461.5 217.0 457.25 218.5Q453.0 220.0 450.0 223.5Q446.0 227.5 446.0 230.0Q450.0 230.5 463.25 232.25Q476.5 234.0 493.0 235.0ZM518.0 251.0Q510.0 251.0 499.0 250.0Q488.0 249.0 479.5 248.0Q476.5 247.5 473.75 247.25Q471.0 247.0 469.0 247.0Q463.5 247.0 460.0 249.0Q456.5 251.0 452.5 256.5Q446.0 263.0 446.0 264.0Q446.0 266.0 457.5 267.0Q469.0 268.0 495.0 269.0L535.0 269.5V260.5Q535.0 253.5 532.25 252.25Q529.5 251.0 518.0 251.0ZM530.0 145.5Q525.0 140.5 491.5 140.5Q467.0 140.5 457.5 143.5Q448.0 146.5 448.0 154.0Q448.0 155.5 458.5 157.5Q469.0 159.5 485.25 161.0Q501.5 162.5 518.0 162.5Q528.0 162.5 531.5 161.5Q535.0 160.5 535.0 157.0Q535.0 150.5 530.0 145.5ZM566.0 51.0 570.0 40.0Q568.0 40.0 560.75 40.25Q553.5 40.5 544.0 40.5H520.5L525.5 50.0Q528.0 55.5 532.25 71.0Q536.5 86.5 539.5 102.0L540.5 107.0Q546.0 132.0 546.0 132.0Q546.0 132.0 547.0 126.0Q548.0 120.0 549.5 110.5Q550.5 102.0 554.25 88.25Q558.0 74.5 561.5 65.0Q562.0 61.5 564.0 57.0Q564.5 55.5 565.0 53.75Q565.5 52.0 566.0 51.0ZM58.5 147.5Q61.0 130.0 64.75 119.5Q68.5 109.0 71.0 109.0Q75.5 109.0 75.5 122.5Q75.5 132.0 86.25 140.5Q97.0 149.0 112.5 153.0Q119.0 154.0 136.0 156.75Q153.0 159.5 176.0 162.75Q199.0 166.0 223.0 169.5Q245.5 172.0 265.5 175.0Q285.5 178.0 299.0 180.0Q312.5 182.0 315.5 183.0L316.0 183.5Q317.5 185.0 317.5 187.0Q317.5 191.5 306.5 191.5Q297.0 191.5 273.75 189.0Q250.5 186.5 212.0 181.5L115.0 168.5L96.0 179.0Q86.0 183.5 76.25 191.25Q66.5 199.0 60.25 207.0Q54.0 215.0 54.0 220.5Q54.0 228.5 47.0 228.5Q40.5 228.5 40.5 221.0Q40.5 212.5 46.5 198.5Q49.0 192.0 52.5 177.0Q56.0 162.0 58.5 147.5ZM575.0 18.5Q580.5 13.5 584.0 11.75Q587.5 10.0 590.0 10.0Q594.0 10.0 598.0 13.0V12.5Q602.5 16.0 602.5 18.5Q602.5 22.0 594.5 27.5Q590.0 31.0 585.25 40.5Q580.5 50.0 576.0 63.0Q567.5 90.5 562.0 118.25Q556.5 146.0 553.5 179.5Q550.5 213.0 549.0 259.5Q548.0 295.5 545.5 318.5Q543.0 341.5 540.5 341.5Q540.5 341.5 540.0 340.5Q539.5 339.5 539.0 338.5Q538.0 333.0 536.75 322.0Q535.5 311.0 535.0 301.5V280.5L495.0 282.0L453.5 283.0L445.0 296.5Q435.5 311.5 431.0 311.5Q427.0 311.5 427.0 304.5Q427.0 303.0 427.25 300.5Q427.5 298.0 428.0 295.5Q429.5 289.5 429.5 285.5Q429.5 281.0 425.0 278.25Q420.5 275.5 408.5 274.25Q396.5 273.0 373.5 272.75Q350.5 272.5 313.0 272.5Q272.0 272.5 247.5 273.0Q223.0 273.5 210.75 274.75Q198.5 276.0 194.0 278.0Q185.5 283.0 175.25 292.75Q165.0 302.5 156.0 313.75Q147.0 325.0 142.5 335.0Q141.5 336.5 140.5 339.5Q135.5 350.0 133.0 350.0Q130.0 350.0 128.5 339.5Q128.5 338.0 128.0 337.0Q128.0 332.0 128.75 327.0Q129.5 322.0 131.5 317.5Q134.0 313.5 134.0 309.5Q130.5 308.5 118.75 308.0Q107.0 307.5 92.5 307.5Q69.5 307.5 60.75 308.75Q52.0 310.0 48.0 314.0Q44.0 319.0 39.0 328.5Q34.0 338.0 30.75 347.5Q27.5 357.0 27.5 362.5Q27.5 373.0 18.0 373.0Q10.0 373.0 10.0 366.0Q10.0 363.0 11.5 358.0Q13.5 351.0 16.25 323.0Q19.0 295.0 22.5 251.0Q23.0 247.0 26.5 247.0Q31.0 247.0 33.0 251.25Q35.0 255.5 35.5 260.5Q36.0 265.5 36.0 268.5Q36.0 278.5 41.0 284.0Q46.0 289.5 59.0 291.5Q72.0 293.5 96.0 293.5H113.5Q126.5 293.5 131.75 291.25Q137.0 289.0 138.75 280.75Q140.5 272.5 142.0 255.0Q142.0 252.5 142.25 248.75Q142.5 245.0 143.0 242.5Q144.5 228.0 147.25 217.25Q150.0 206.5 152.5 206.5Q155.5 206.5 157.0 209.75Q158.5 213.0 158.5 218.0Q158.5 227.5 165.25 235.75Q172.0 244.0 183.0 249.5Q190.0 252.5 202.5 254.0Q215.0 255.5 239.75 256.5Q264.5 257.5 307.5 258.0L411.0 260.0L404.0 252.0Q396.0 243.5 381.75 231.0Q367.5 218.5 352.25 205.75Q337.0 193.0 325.75 184.5Q314.5 176.0 312.0 176.0Q303.0 176.0 303.0 171.0Q303.0 163.5 342.5 136.0Q353.0 128.0 365.75 118.25Q378.5 108.5 390.75 98.5Q403.0 88.5 411.5 81.0Q426.0 68.0 438.0 60.25Q450.0 52.5 453.0 52.5Q456.5 52.5 456.5 55.5Q456.5 58.0 449.0 67.0Q442.5 74.0 442.5 79.0Q442.5 81.0 443.5 84.0Q446.0 88.5 456.5 91.25Q467.0 94.0 480.75 95.0Q494.5 96.0 507.0 96.25Q519.5 96.5 525.5 96.5V96.0Q525.5 91.0 521.75 80.0Q518.0 69.0 513.0 58.25Q508.0 47.5 504.0 44.0Q500.5 40.0 498.25 36.0Q496.0 32.0 496.0 30.0Q496.0 27.5 502.5 26.5Q509.0 25.5 520.0 25.5H532.0Q537.5 26.0 541.75 26.0Q546.0 26.0 549.5 26.0Q560.0 26.0 565.25 24.0Q570.5 22.0 575.0 18.5Z" fill="black" /></svg>