<svg xmlns="http://www.w3.org/2000/svg" width="815.0" height="463.0" viewBox="0 0 815.0 463.0"><path d="M89.0 343.5Q81.0 341.5 69.25 336.0Q57.5 330.5 48.25 325.75Q39.0 321.0 39.0 321.0V329.0Q39.0 336.0 38.75 343.5Q38.5 351.0 37.5 357.0L34.0 369.0H35.0L42.5 364.5Q45.0 363.5 51.75 360.0Q58.5 356.5 66.25 352.75Q74.0 349.0 80.5 346.25Q87.0 343.5 88.5 343.5ZM308.0 348.5Q328.0 340.0 348.0 331.75Q368.0 323.5 388.0 316.0H366.5Q360.0 316.5 352.0 316.5Q344.0 316.5 336.5 316.5L290.5 319.0L292.5 336.5Q294.0 354.5 295.0 354.5Q296.0 354.5 298.25 353.5Q300.5 352.5 302.5 350.5ZM164.5 189.0 153.5 185.5Q147.5 183.5 139.5 179.5Q131.5 175.5 125.5 172.5V192.0Q125.5 196.5 124.75 201.0Q124.0 205.5 123.0 210.0ZM388.5 208.0Q378.0 200.0 369.0 190.25Q360.0 180.5 350.5 170.0L350.0 170.5Q349.0 171.0 348.0 173.5Q346.0 175.5 345.5 178.0Q343.5 180.5 341.5 183.25Q339.5 186.0 336.5 188.5Q334.5 192.5 330.5 196.5Q326.5 200.5 323.0 203.0Q324.5 203.5 326.5 203.75Q328.5 204.0 330.5 204.5Q338.5 205.5 347.75 207.0Q357.0 208.5 365.0 211.0L404.5 220.0L400.0 216.0Q397.0 215.0 394.25 212.75Q391.5 210.5 388.5 208.0ZM453.0 144.0 434.5 143.5 443.0 158.0ZM434.5 60.5Q427.5 55.0 422.5 51.75Q417.5 48.5 417.5 48.5Q416.0 51.0 412.5 57.25Q409.0 63.5 405.0 70.5L394.5 89.5H410.5Q423.5 89.5 446.5 93.25Q469.5 97.0 495.5 103.5Q493.5 102.5 490.75 101.0Q488.0 99.5 485.5 98.0L480.5 93.0Q468.0 85.0 454.5 76.0Q441.0 67.0 434.5 60.5ZM458.5 395.5 465.5 394.0Q448.5 392.5 431.5 389.0Q414.5 385.5 398.5 379.0Q397.0 378.0 395.75 378.0Q394.5 378.0 393.5 377.5Q393.5 378.5 394.0 379.5Q394.5 380.5 395.0 381.5V393.5Q395.0 402.5 393.5 410.0Q393.5 412.0 393.25 413.75Q393.0 415.5 393.0 417.0L392.5 418.0L405.5 411.5Q415.5 406.0 430.75 402.0Q446.0 398.0 458.5 395.5ZM18.5 287.5Q19.5 284.5 22.0 284.5Q25.0 284.5 30.25 288.5Q35.5 292.5 42.0 299.0Q54.0 311.0 79.0 318.0Q104.0 325.0 141.5 329.0L253.0 332.5Q267.0 333.0 273.0 337.0Q271.5 324.5 267.5 315.0Q267.5 314.5 267.0 313.0Q267.0 312.5 266.75 312.0Q266.5 311.5 266.5 311.0Q266.5 306.0 272.5 303.5Q278.5 301.0 295.25 299.5Q312.0 298.0 344.0 296.5Q365.0 295.5 389.0 293.75Q413.0 292.0 434.25 289.25Q455.5 286.5 468.5 284.5L504.5 278.0L500.0 276.0Q478.5 266.5 451.75 256.75Q425.0 247.0 398.5 239.0Q372.0 231.0 350.75 226.0Q329.5 221.0 319.0 221.0Q303.0 221.0 296.25 217.5Q289.5 214.0 289.5 210.5Q289.5 203.5 298.0 200.0L299.5 199.5H249.0Q224.5 199.5 206.25 200.75Q188.0 202.0 171.5 207.75Q155.0 213.5 135.0 227.5L133.5 228.5Q127.0 233.5 121.5 236.5Q116.0 239.5 112.5 239.5H111.5Q105.5 239.0 103.5 235.25Q101.5 231.5 101.5 224.5Q101.5 222.0 101.75 218.25Q102.0 214.5 102.5 211.0V202.0Q103.0 199.0 103.0 195.5Q103.0 192.0 103.0 188.5V182.0Q103.0 179.0 103.0 175.75Q103.0 172.5 102.5 169.5V151.5Q102.5 139.5 111.5 139.0Q112.5 139.0 118.25 141.5Q124.0 144.0 128.5 149.5Q142.0 163.5 173.25 170.25Q204.5 177.0 254.5 179.5H320.0L330.0 166.0Q332.0 162.0 334.25 158.0Q336.5 154.0 337.5 151.5Q340.0 146.5 342.5 144.0Q345.0 141.5 350.0 141.5Q353.5 141.5 357.25 145.0Q361.0 148.5 364.5 157.5Q368.0 162.5 379.0 173.25Q390.0 184.0 403.75 195.25Q417.5 206.5 428.0 214.5L439.0 222.0L434.5 197.5Q432.0 178.0 426.0 163.0Q420.0 148.0 413.0 146.5Q409.0 144.0 406.0 140.75Q403.0 137.5 403.0 134.0Q403.0 130.5 411.0 128.75Q419.0 127.0 430.5 127.0Q443.5 127.0 457.75 128.0Q472.0 129.0 480.0 130.5V131.0Q481.0 131.5 481.0 134.0Q481.0 140.5 472.0 149.5Q462.5 160.0 458.0 169.75Q453.5 179.5 453.5 192.0Q453.5 196.0 453.75 200.5Q454.0 205.0 455.5 210.5L459.0 233.0L493.0 250.5Q507.5 257.5 520.25 263.0Q533.0 268.5 535.0 268.5Q536.0 268.5 552.0 265.0Q568.0 261.5 592.0 255.5Q606.5 251.5 623.25 247.5Q640.0 243.5 657.5 239.0L762.0 214.0L751.5 210.5Q727.0 200.0 692.5 186.75Q658.0 173.5 618.0 160.0Q578.0 146.5 537.25 135.25Q496.5 124.0 459.75 117.0Q423.0 110.0 395.5 110.0H380.0Q356.5 110.0 356.5 104.5Q356.5 101.0 360.0 96.5Q363.5 92.0 368.5 87.0Q378.5 78.5 386.5 63.5Q394.5 48.5 401.0 30.0L410.0 10.0L436.5 36.5Q444.0 43.5 458.0 53.75Q472.0 64.0 489.5 75.5Q507.0 87.0 525.75 98.0Q544.5 109.0 561.0 117.5Q566.0 119.5 577.5 124.25Q589.0 129.0 604.25 134.5Q619.5 140.0 635.5 145.0Q665.0 155.0 695.0 166.5Q725.0 178.0 750.0 188.5Q775.0 199.0 790.0 206.25Q805.0 213.5 805.0 215.5Q805.0 218.0 793.75 222.5Q782.5 227.0 764.0 232.5Q745.5 238.0 723.0 243.5Q692.5 250.0 661.25 257.75Q630.0 265.5 600.0 275.0L565.5 283.5L604.5 300.0Q625.5 311.0 639.25 320.0Q653.0 329.0 653.0 333.0V334.5Q651.5 339.0 647.5 339.0Q642.5 339.0 627.75 333.5Q613.0 328.0 593.5 318.5Q572.0 307.5 555.0 299.75Q538.0 292.0 534.0 292.0Q528.5 292.0 509.75 297.0Q491.0 302.0 464.75 310.5Q438.5 319.0 409.5 329.5Q380.5 340.0 354.25 351.0Q328.0 362.0 309.5 371.75Q291.0 381.5 285.5 389.0Q282.5 394.0 278.75 396.75Q275.0 399.5 273.0 399.5Q266.0 399.5 266.0 390.0Q266.0 384.0 270.0 373.5Q271.5 367.0 272.5 360.5Q273.5 354.0 273.5 347.5Q268.0 351.5 256.0 351.5H253.0L148.5 351.0Q127.5 351.5 107.0 358.5Q86.5 365.5 69.25 374.5Q52.0 383.5 40.5 390.0Q34.5 393.5 29.5 396.5Q24.5 399.5 21.0 400.5Q16.0 400.5 13.0 399.25Q10.0 398.0 10.0 391.5Q10.0 389.5 11.5 386.5Q11.5 385.5 11.75 384.5Q12.0 383.5 12.0 383.0Q13.5 377.5 16.5 364.5Q19.5 351.5 19.5 336.5Q19.5 334.5 19.5 332.75Q19.5 331.0 18.5 329.5V320.5Q17.0 307.0 17.0 297.5Q17.0 294.0 17.25 291.5Q17.5 289.0 18.5 287.5ZM371.5 384.5Q371.5 368.0 373.75 356.5Q376.0 345.0 378.5 345.0Q379.0 345.0 381.0 347.0Q382.0 347.0 382.5 347.25Q383.0 347.5 383.5 347.5Q384.5 348.5 387.0 348.5Q424.0 367.0 461.5 372.5Q499.0 378.0 540.5 378.0Q544.5 378.0 548.75 378.0Q553.0 378.0 556.5 377.5Q561.5 377.5 566.0 377.25Q570.5 377.0 575.0 377.0Q605.5 375.0 636.0 373.25Q666.5 371.5 697.0 369.5H704.5Q727.0 369.5 727.0 378.0Q727.0 381.0 718.75 384.75Q710.5 388.5 697.5 389.5L576.0 397.0Q549.0 400.5 521.0 404.75Q493.0 409.0 469.25 413.75Q445.5 418.5 429.5 423.5Q420.0 426.5 408.25 432.25Q396.5 438.0 390.5 442.0Q378.0 453.0 371.5 453.0Q364.0 453.0 364.0 444.5Q364.0 442.5 364.5 438.75Q365.0 435.0 366.5 431.5Q369.0 425.0 370.25 416.25Q371.5 407.5 371.5 384.5Z" fill="black" /></svg>