<svg xmlns="http://www.w3.org/2000/svg" width="769.0" height="380.0" viewBox="0 0 769.0 380.0"><path d="M48.0 247.5Q41.0 243.5 34.75 240.75Q28.5 238.0 26.0 237.5Q27.0 239.5 27.0 244.75Q27.0 250.0 27.0 256.5Q27.5 264.0 27.5 269.25Q27.5 274.5 27.5 274.5Q28.5 274.0 30.25 273.0Q32.0 272.0 34.0 271.0L39.0 268.0Q44.0 264.5 50.5 261.0Q57.0 257.5 62.0 256.0Q63.0 255.5 63.5 255.5Q64.0 255.5 64.5 255.0H65.5Q64.0 254.0 60.0 252.5Q56.0 251.0 48.0 247.5ZM233.5 310.0V309.5L230.5 308.0Q228.0 307.0 226.0 306.0Q224.0 305.0 222.5 305.0Q220.5 305.0 220.0 309.5Q219.5 314.0 219.5 325.5V346.5Q225.5 345.5 241.0 336.5Q249.5 332.5 257.75 329.0Q266.0 325.5 269.5 324.5H269.0L270.0 324.0L267.0 323.0Q266.0 322.5 264.5 322.0Q263.0 321.5 261.5 321.0Q255.0 318.5 246.5 315.25Q238.0 312.0 233.5 310.0ZM246.0 90.0Q246.0 84.5 245.75 79.75Q245.5 75.0 245.0 75.0Q244.5 75.0 242.0 79.25Q239.5 83.5 237.0 89.0Q233.5 95.0 231.75 104.75Q230.0 114.5 229.5 136.0Q229.0 157.5 228.5 198.0V213.0Q228.0 216.5 228.0 219.75Q228.0 223.0 228.0 226.0V232.5Q227.5 240.5 227.25 247.5Q227.0 254.5 227.0 260.0Q227.0 277.0 229.25 285.25Q231.5 293.5 238.0 297.25Q244.5 301.0 256.0 305.0L269.5 309.5Q282.5 314.0 294.25 316.25Q306.0 318.5 325.25 319.75Q344.5 321.0 378.0 322.0L456.0 323.5L453.5 229.0Q452.0 179.0 449.75 150.0Q447.5 121.0 444.5 108.0Q442.0 98.5 439.25 90.25Q436.5 82.0 435.5 81.5Q435.0 80.5 414.25 79.75Q393.5 79.0 365.0 79.0Q340.5 79.0 326.0 79.5Q311.5 80.0 303.25 81.0Q295.0 82.0 289.75 84.0Q284.5 86.0 279.0 89.0Q272.0 93.0 266.5 97.5Q261.0 102.0 260.0 103.5Q257.5 111.0 253.0 111.0Q246.0 111.0 246.0 90.0ZM497.0 238.5H496.0Q494.5 237.5 486.5 234.25Q478.5 231.0 475.0 230.0Q476.0 232.0 476.0 236.75Q476.0 241.5 476.0 248.0V265.5L489.5 257.5Q498.0 253.5 506.25 250.75Q514.5 248.0 518.0 248.0Q518.5 248.0 518.75 248.0Q519.0 248.0 519.5 248.0Q517.5 247.0 511.75 244.5Q506.0 242.0 497.0 238.5ZM66.0 137.0 52.0 130.5 50.0 129.0Q35.5 123.0 30.5 120.0Q30.0 121.5 30.0 126.25Q30.0 131.0 30.0 137.5Q30.0 155.0 31.5 155.0Q33.0 155.0 42.0 147.5Q44.5 146.0 50.0 143.0Q55.5 140.0 60.5 139.0ZM228.0 78.5 235.5 63.0H218.5Q208.5 63.0 204.5 63.25Q200.5 63.5 200.5 64.0Q200.5 65.0 201.5 66.0Q202.0 67.5 202.75 69.75Q203.5 72.0 204.5 74.5L206.5 79.5Q207.5 82.5 208.75 85.75Q210.0 89.0 211.0 92.5Q216.0 106.0 218.0 109.0V106.0Q218.0 102.5 221.0 95.0Q224.0 87.5 228.0 78.5ZM285.5 69.5 293.5 66.5 277.0 58.5Q271.5 56.0 266.25 54.0Q261.0 52.0 258.5 51.5Q258.5 55.0 258.75 62.25Q259.0 69.5 259.25 76.25Q259.5 83.0 260.0 85.5Q262.5 84.5 265.0 82.0Q272.0 75.0 285.5 69.5ZM478.5 27.0Q478.5 26.5 471.5 26.25Q464.5 26.0 454.5 26.0Q447.0 26.0 441.0 26.0Q435.0 26.0 432.5 25.5Q433.0 27.0 434.5 32.0Q436.0 37.0 439.5 46.5Q442.0 54.5 445.25 66.25Q448.5 78.0 453.5 93.5Q454.5 91.5 455.5 87.5Q456.5 83.5 458.0 78.0Q461.0 68.5 465.0 57.75Q469.0 47.0 471.5 41.5Q478.5 30.0 478.5 27.0ZM492.0 133.0 491.5 132.5Q490.5 130.5 486.5 130.5Q483.5 130.5 483.5 149.5Q483.5 156.5 483.5 161.25Q483.5 166.0 483.0 168.0Q487.0 166.5 491.0 164.25Q495.0 162.0 499.0 160.0Q506.0 156.0 514.0 152.75Q522.0 149.5 530.0 149.5Q530.0 148.5 525.75 146.5Q521.5 144.5 514.5 142.5Q506.5 140.0 500.0 137.25Q493.5 134.5 492.0 133.0ZM721.0 46.0 732.0 28.0H699.5Q685.5 28.0 675.25 28.25Q665.0 28.5 665.0 28.5Q665.0 29.0 667.25 33.75Q669.5 38.5 672.0 43.0Q676.0 48.5 680.75 59.75Q685.5 71.0 689.0 82.5Q692.0 92.0 695.0 98.75Q698.0 105.5 699.5 108.0Q699.5 92.0 706.25 75.75Q713.0 59.5 721.0 46.0ZM11.5 230.5Q10.0 225.0 10.0 222.5Q10.0 216.5 15.5 216.5Q21.0 216.5 36.5 227.0Q51.0 236.5 66.25 241.75Q81.5 247.0 102.5 249.25Q123.5 251.5 154.5 251.5Q181.0 251.5 198.0 253.0Q215.0 254.5 215.0 258.0Q215.0 260.5 192.75 262.75Q170.5 265.0 139.0 265.5Q112.0 266.0 95.0 267.0Q78.0 268.0 67.25 270.25Q56.5 272.5 49.25 276.75Q42.0 281.0 35.0 288.0Q30.5 291.5 26.25 293.75Q22.0 296.0 20.5 296.0Q18.5 296.0 16.75 287.75Q15.0 279.5 15.0 267.5Q15.0 257.0 13.75 246.0Q12.5 235.0 11.5 230.5ZM287.5 129.5Q288.0 129.0 296.25 128.5Q304.5 128.0 316.5 128.0Q322.0 128.0 327.75 128.0Q333.5 128.0 339.5 128.5Q366.0 129.0 380.25 131.25Q394.5 133.5 394.5 136.5Q394.5 142.5 345.5 142.5H298.5V213.5Q298.5 248.5 297.0 267.25Q295.5 286.0 291.5 286.0H290.5Q289.5 285.0 288.5 274.75Q287.5 264.5 286.75 248.25Q286.0 232.0 285.5 213.5Q285.0 195.0 285.0 178.0Q285.0 159.0 285.5 145.0Q286.0 131.0 287.5 129.5ZM413.5 13.0 414.0 10.5 415.5 10.0Q421.0 10.0 426.0 10.5Q431.0 11.0 436.0 12.5Q440.5 13.5 447.0 14.0Q453.5 14.5 460.0 14.5Q464.0 14.5 467.25 14.5Q470.5 14.5 474.0 14.0L477.5 13.5Q480.0 13.0 482.5 13.0Q485.0 13.0 487.0 13.0Q498.5 13.0 499.0 19.0Q498.0 24.5 490.5 34.5Q478.5 50.0 472.5 76.75Q466.5 103.5 464.5 149.0L462.5 208.0L481.0 217.5Q501.5 227.5 520.0 233.5Q538.5 239.5 562.25 241.75Q586.0 244.0 621.5 244.0Q652.5 244.0 672.5 245.5Q692.5 247.0 692.5 249.5Q692.5 253.0 666.5 254.75Q640.5 256.5 602.0 257.5Q572.0 258.0 554.0 258.5Q536.0 259.0 526.0 260.0Q516.0 261.0 510.75 263.0Q505.5 265.0 500.0 268.0Q486.0 275.5 479.0 281.0Q472.0 286.5 469.75 292.75Q467.5 299.0 467.5 310.5V335.5H372.0Q345.5 335.5 322.5 336.0Q299.5 336.5 283.75 337.5Q268.0 338.5 264.0 340.0Q259.0 341.5 249.25 346.5Q239.5 351.5 231.5 357.0Q224.5 362.5 218.0 366.25Q211.5 370.0 210.0 370.0H209.0Q208.0 368.5 207.25 359.5Q206.5 350.5 206.0 338.75Q205.5 327.0 205.25 316.75Q205.0 306.5 205.0 302.5Q205.0 292.0 206.5 288.5Q208.0 285.0 211.5 285.0H212.5Q216.0 284.0 216.0 278.5V270.0Q215.5 260.0 215.25 242.75Q215.0 225.5 215.0 206.5L214.5 146.0H148.5Q121.0 146.0 103.5 147.0Q86.0 148.0 74.75 150.0Q63.5 152.0 55.75 156.0Q48.0 160.0 40.0 166.0Q33.5 171.0 27.5 174.25Q21.5 177.5 20.5 177.5Q19.0 176.0 18.0 164.75Q17.0 153.5 16.5 139.25Q16.0 125.0 16.0 114.5Q16.0 99.0 19.0 99.0H19.5Q23.5 100.0 36.0 107.0Q40.0 109.0 45.0 111.25Q50.0 113.5 55.0 116.0L85.0 131.5L149.5 133.0H174.0Q189.5 133.0 199.75 133.25Q210.0 133.5 210.0 133.5Q209.5 128.5 206.0 116.75Q202.5 105.0 198.0 92.5Q193.5 80.0 190.5 73.5Q183.0 58.5 183.0 53.0Q183.0 51.0 188.75 50.25Q194.5 49.5 203.0 49.5H214.5L241.5 51.5V44.0Q241.5 38.5 243.25 35.0Q245.0 31.5 245.5 31.5Q246.5 31.5 255.5 35.25Q264.5 39.0 276.0 44.5L283.5 47.5L318.0 64.0L375.5 65.5H383.0Q390.5 66.0 396.5 66.0Q402.5 66.0 407.5 66.0Q420.5 66.0 425.75 64.75Q431.0 63.5 431.0 60.0Q431.0 55.5 424.0 42.5L421.5 37.0Q418.0 28.5 415.75 21.75Q413.5 15.0 413.5 13.0ZM332.0 156.5Q334.0 155.0 343.75 154.25Q353.5 153.5 366.0 153.5Q378.0 153.5 389.5 154.25Q401.0 155.0 408.5 156.25Q416.0 157.5 416.0 160.0Q416.0 163.0 405.25 164.5Q394.5 166.0 376.0 166.0H341.5V216.5Q341.5 242.5 339.5 257.75Q337.5 273.0 335.0 273.0Q333.0 273.0 331.5 263.0Q330.0 253.0 329.25 237.75Q328.5 222.5 328.5 206.5Q328.5 188.0 329.25 173.25Q330.0 158.5 332.0 156.5ZM645.5 19.5 645.0 18.5V18.0Q645.0 15.5 652.0 15.0Q659.0 14.5 670.0 14.5Q682.0 14.5 696.75 14.75Q711.5 15.0 725.5 15.5Q739.5 16.0 748.75 16.5Q758.0 17.0 759.0 18.0V19.5Q759.0 21.5 755.75 25.25Q752.5 29.0 748.0 33.0Q744.0 36.5 737.5 44.75Q731.0 53.0 727.0 61.5Q720.0 73.5 715.75 87.25Q711.5 101.0 709.75 121.5Q708.0 142.0 708.0 174.5Q708.0 186.0 708.25 199.25Q708.5 212.5 709.0 227.5V239.0Q710.5 280.0 710.5 306.5Q710.5 347.0 705.5 347.0Q699.5 347.0 699.5 300.5Q699.5 288.0 699.0 271.25Q698.5 254.5 698.0 236.75Q697.5 219.0 696.5 205.0L694.0 159.0H618.5Q588.0 159.0 567.5 160.0Q547.0 161.0 533.25 163.0Q519.5 165.0 510.0 169.0Q500.5 173.0 491.5 179.0Q486.5 183.5 480.75 186.75Q475.0 190.0 475.0 190.0Q474.0 189.0 472.75 180.75Q471.5 172.5 470.75 160.75Q470.0 149.0 469.5 137.5Q469.0 126.0 469.0 119.5Q469.0 110.0 472.0 110.0Q473.0 110.0 479.25 113.0Q485.5 116.0 493.0 120.0Q513.0 129.5 531.5 135.25Q550.0 141.0 573.5 143.25Q597.0 145.5 631.5 145.5Q660.0 145.5 677.5 144.75Q695.0 144.0 695.0 143.5Q695.0 134.5 689.25 117.75Q683.5 101.0 675.25 81.75Q667.0 62.5 658.75 45.75Q650.5 29.0 645.5 19.5Z" fill="black" /></svg>