<svg xmlns="http://www.w3.org/2000/svg" width="731.5" height="393.0" viewBox="0 0 731.5 393.0"><path d="M270.0 322.5Q249.0 316.5 240.0 316.5Q234.0 316.5 232.0 320.25Q230.0 324.0 230.0 331.5Q230.0 348.0 234.0 348.0Q238.0 348.0 245.5 344.5Q251.5 342.0 262.5 339.25Q273.5 336.5 283.0 335.5Q298.0 333.0 298.0 332.5Q298.0 331.0 270.0 322.5ZM93.5 170.5V171.0Q98.5 160.5 100.0 153.0Q96.0 156.0 88.25 163.25Q80.5 170.5 70.5 180.0L32.0 218.5L55.0 224.5Q64.0 226.5 70.25 228.0Q76.5 229.5 80.0 229.5H82.0Q82.0 229.5 80.0 225.5L79.5 225.0Q77.0 221.5 77.0 219.0Q77.0 216.0 80.5 213.5Q82.0 212.5 83.0 208.75Q84.0 205.0 84.0 201.5Q84.0 196.0 86.75 187.0Q89.5 178.0 93.5 170.5ZM154.0 175.5Q156.5 171.5 158.5 166.0Q156.5 168.0 152.75 171.0Q149.0 174.0 144.5 178.0L139.5 182.5Q135.0 186.5 128.25 192.75Q121.5 199.0 115.75 204.5Q110.0 210.0 108.0 212.5Q112.0 214.5 119.0 216.5Q126.0 218.5 133.0 219.75Q140.0 221.0 143.0 221.5Q146.5 220.0 146.5 206.5Q146.5 200.0 148.75 190.75Q151.0 181.5 154.0 175.5ZM244.0 97.5V97.0Q249.0 87.0 249.0 82.0Q249.0 78.0 242.5 78.0Q241.0 78.0 239.25 78.0Q237.5 78.0 235.0 78.5Q226.5 79.0 226.5 81.5Q226.5 82.0 226.75 82.25Q227.0 82.5 227.0 83.0Q227.0 83.0 227.25 83.5Q227.5 84.0 227.5 84.5Q228.0 86.5 228.75 89.75Q229.5 93.0 230.5 96.5L232.0 104.0Q233.0 108.0 234.0 111.25Q235.0 114.5 235.0 114.5Q236.5 114.5 244.0 97.5ZM272.0 141.5Q273.0 141.5 275.25 139.75Q277.5 138.0 277.5 136.5L277.0 136.0Q276.5 135.5 275.0 135.5Q273.5 135.5 272.25 137.25Q271.0 139.0 271.0 140.5Q271.0 141.5 272.0 141.5ZM277.0 179.5V179.0Q277.0 177.5 276.0 176.5Q275.0 176.5 274.5 176.0L274.0 176.5Q273.5 177.0 273.0 177.25Q272.5 177.5 272.0 178.0Q272.5 178.5 272.5 178.75Q272.5 179.0 273.0 179.5L273.5 180.5H274.0L275.0 181.0Q275.5 181.0 277.0 179.5ZM276.5 221.0Q277.0 221.0 277.0 219.5Q277.0 218.5 276.0 217.5H275.0Q272.0 217.5 272.0 219.0Q272.0 220.0 273.5 221.5Q274.0 221.5 274.25 221.75Q274.5 222.0 275.0 222.0Q276.5 222.0 276.5 221.0ZM279.5 258.5Q279.5 257.5 277.75 257.0Q276.0 256.5 274.5 256.5Q270.5 256.5 270.5 258.5Q270.5 260.5 274.5 260.5Q276.0 260.5 277.75 259.75Q279.5 259.0 279.5 258.5ZM279.5 299.5Q279.5 298.5 277.75 297.75Q276.0 297.0 274.5 297.0Q270.5 297.0 270.5 299.5Q270.5 301.5 274.5 301.5Q276.0 301.5 277.75 300.75Q279.5 300.0 279.5 299.5ZM345.5 237.5Q345.5 230.0 342.5 228.25Q339.5 226.5 325.0 226.0Q322.0 226.0 314.0 226.75Q306.0 227.5 296.75 229.0Q287.5 230.5 281.0 233.25Q274.5 236.0 274.5 240.0Q274.5 243.5 281.25 245.5Q288.0 247.5 297.75 248.75Q307.5 250.0 315.75 250.5Q324.0 251.0 327.0 251.0Q339.0 250.0 342.25 247.75Q345.5 245.5 345.5 237.5ZM344.0 195.0Q343.0 187.0 339.75 185.25Q336.5 183.5 325.5 183.5Q315.5 184.0 304.5 186.25Q293.5 188.5 285.5 192.0Q277.5 195.5 275.5 199.0V199.5Q275.5 203.0 284.5 205.5Q290.0 208.0 303.0 209.25Q316.0 210.5 327.0 210.5Q333.5 210.5 338.5 210.25Q343.5 210.0 344.5 209.0V208.5Q344.5 207.5 344.75 206.5Q345.0 205.5 345.0 204.0Q345.0 202.0 344.75 199.5Q344.5 197.0 344.0 195.0ZM392.5 333.5V290.0Q392.5 247.5 389.0 247.5Q388.0 247.5 384.0 255.5Q381.5 260.0 377.0 262.5Q372.5 265.0 368.5 265.0Q366.0 265.0 363.5 267.0Q361.0 269.0 360.0 271.0Q358.5 274.0 356.25 276.75Q354.0 279.5 350.5 279.5Q347.5 279.5 345.5 276.5Q343.5 273.5 343.5 270.0Q343.5 267.5 338.5 266.5Q333.5 265.5 325.5 265.5Q322.5 265.5 314.5 266.5Q306.5 267.5 297.5 269.25Q288.5 271.0 281.75 273.75Q275.0 276.5 274.5 280.0Q275.5 284.5 293.5 288.25Q311.5 292.0 342.0 292.0Q382.0 292.0 382.0 299.5V300.5Q381.0 303.0 367.75 304.5Q354.5 306.0 338.5 306.0Q289.0 306.0 289.0 311.0Q289.0 312.5 295.25 315.75Q301.5 319.0 312.5 323.5Q324.5 328.0 338.75 330.75Q353.0 333.5 366.5 333.5ZM404.0 220.0Q396.0 220.0 389.0 218.0Q382.0 216.0 375.0 213.5Q368.5 211.0 364.5 209.75Q360.5 208.5 360.5 208.5Q360.0 211.5 359.75 217.0Q359.5 222.5 359.5 228.5V247.0Q362.0 246.5 368.75 243.0Q375.5 239.5 383.0 234.75Q390.5 230.0 396.5 226.0Q402.5 222.0 404.0 220.0ZM328.5 62.0Q303.5 47.0 299.5 44.0Q298.5 46.0 296.5 54.5Q294.5 63.0 292.5 72.25Q290.5 81.5 289.5 86.0H291.0Q296.5 86.0 307.0 85.5Q317.5 85.0 329.0 84.25Q340.5 83.5 348.5 83.0Q356.5 82.5 356.5 82.0Q356.5 81.0 348.25 75.25Q340.0 69.5 328.5 62.0ZM422.0 48.5 421.5 48.0Q418.0 47.5 408.75 47.25Q399.5 47.0 392.0 47.0Q386.0 47.0 384.0 46.5Q385.0 52.0 388.25 61.25Q391.5 70.5 395.0 78.25Q398.5 86.0 400.5 87.0Q403.5 86.0 408.5 78.25Q413.5 70.5 417.75 61.5Q422.0 52.5 422.0 48.5ZM518.5 118.5 496.0 115.5Q493.5 114.5 490.75 114.25Q488.0 114.0 485.5 113.5Q462.0 110.0 444.75 107.25Q427.5 104.5 423.5 104.0H421.5Q412.0 104.0 407.5 115.25Q403.0 126.5 403.0 152.5V164.5L404.5 203.5L443.0 207.0Q451.5 207.5 463.75 207.75Q476.0 208.0 489.0 208.0Q502.5 208.0 516.0 207.75Q529.5 207.5 540.5 207.0L589.0 204.0L582.0 200.0Q576.0 197.5 567.75 194.75Q559.5 192.0 554.0 192.0Q547.5 192.0 539.0 191.0Q530.5 190.0 525.0 188.0Q521.5 187.0 519.0 186.0Q516.5 185.0 516.5 182.5Q516.5 179.5 526.25 173.5Q536.0 167.5 559.0 156.0Q574.0 149.0 585.5 142.25Q597.0 135.5 601.5 132.0Q593.5 130.5 570.25 126.5Q547.0 122.5 518.5 118.5ZM629.0 139.0Q632.0 136.5 634.5 134.25Q637.0 132.0 639.0 130.0Q632.5 133.0 620.5 139.0Q608.5 145.0 594.5 152.5Q572.5 165.0 562.5 170.75Q552.5 176.5 552.5 177.0Q552.5 177.0 554.5 177.25Q556.5 177.5 559.5 178.5Q566.5 179.5 574.75 181.5Q583.0 183.5 588.5 185.5Q590.5 186.0 592.25 186.25Q594.0 186.5 595.0 186.5Q599.5 186.5 605.0 173.0Q608.5 165.5 615.5 155.5Q622.5 145.5 629.0 139.0ZM286.0 39.0Q287.0 27.0 290.5 18.5Q294.0 10.0 296.0 10.0Q302.5 10.0 302.5 18.5Q302.5 23.5 312.5 32.75Q322.5 42.0 336.25 51.75Q350.0 61.5 362.5 68.75Q375.0 76.0 379.5 77.0Q379.5 73.0 376.5 66.0Q373.5 59.0 369.75 53.0Q366.0 47.0 363.5 47.0Q356.5 47.0 356.5 40.5Q356.5 36.5 372.5 34.75Q388.5 33.0 407.0 33.0Q422.5 33.0 435.25 34.25Q448.0 35.5 450.0 39.0V40.5Q450.0 46.5 443.5 48.5Q441.0 49.0 435.75 57.5Q430.5 66.0 425.75 75.5Q421.0 85.0 420.5 89.5Q422.5 90.0 437.0 92.25Q451.5 94.5 474.5 97.75Q497.5 101.0 524.5 105.0L626.0 120.0L654.0 103.5L659.0 100.0Q660.5 99.0 661.75 98.0Q663.0 97.0 664.0 96.5Q674.0 91.0 683.0 85.25Q692.0 79.5 696.5 76.0Q711.5 65.0 717.0 65.0Q721.5 65.0 721.5 69.0Q721.5 73.5 709.5 84.0Q665.5 120.5 642.25 146.0Q619.0 171.5 618.0 182.5Q618.0 183.0 618.25 183.5Q618.5 184.0 618.5 184.5V185.5Q620.5 187.5 621.0 190.75Q621.5 194.0 621.5 197.0V200.5Q621.5 203.5 628.5 210.75Q635.5 218.0 645.0 226.5Q656.5 236.0 666.5 246.75Q676.5 257.5 682.5 266.0Q688.5 274.5 688.5 278.0Q688.5 279.5 686.5 281.0H685.5Q683.0 281.0 672.25 272.25Q661.5 263.5 649.0 251.5L617.0 220.0H525.0Q492.0 220.0 472.75 220.25Q453.5 220.5 443.5 221.25Q433.5 222.0 428.5 223.75Q423.5 225.5 419.5 229.0L406.0 238.5L409.0 331.0L507.5 329.0Q519.0 328.5 529.0 328.5Q539.0 328.5 548.5 328.5Q577.0 328.5 594.75 329.75Q612.5 331.0 613.5 333.5Q613.5 338.0 570.75 340.25Q528.0 342.5 452.0 344.5Q408.5 345.0 369.25 346.25Q330.0 347.5 302.75 349.0Q275.5 350.5 268.0 352.0Q259.5 354.0 249.0 358.75Q238.5 363.5 234.0 368.0L215.5 383.0V340.5Q215.5 325.0 214.5 312.0Q213.5 299.0 211.0 296.0Q209.5 292.5 200.0 284.5Q190.5 276.5 177.75 266.75Q165.0 257.0 152.5 248.75Q140.0 240.5 131.5 236.5Q124.0 232.0 116.25 230.5Q108.5 229.0 100.0 229.0Q101.0 232.0 104.5 239.0Q107.5 244.0 110.25 247.75Q113.0 251.5 113.5 251.5Q119.5 251.5 119.5 258.5V259.0Q119.5 261.0 126.25 267.5Q133.0 274.0 142.5 282.0L144.5 284.0Q150.0 288.5 158.5 296.75Q167.0 305.0 175.75 314.25Q184.5 323.5 190.5 332.0Q196.5 340.5 196.5 346.0Q196.0 349.0 193.0 349.0Q191.0 349.0 186.25 344.75Q181.5 340.5 176.0 334.0Q170.5 326.5 159.0 315.5Q147.5 304.5 133.25 292.75Q119.0 281.0 104.5 270.0Q90.0 259.0 78.0 251.0Q66.0 243.0 59.0 240.0Q52.0 237.5 43.75 235.75Q35.5 234.0 30.5 233.5Q21.0 233.5 15.5 232.25Q10.0 231.0 10.0 226.0Q10.0 220.5 22.0 207.5Q34.0 194.5 60.0 168.5Q76.0 153.0 90.5 137.75Q105.0 122.5 115.25 110.75Q125.5 99.0 128.0 93.5Q140.0 75.5 143.0 75.5Q146.5 75.5 146.5 80.0Q146.5 84.5 141.0 99.25Q135.5 114.0 125.5 134.0Q116.0 152.0 108.25 169.25Q100.5 186.5 99.5 192.0L98.0 199.5L105.0 194.0Q111.5 189.0 123.5 177.5Q135.5 166.0 149.0 152.0Q162.5 138.0 173.75 125.75Q185.0 113.5 190.0 107.0Q192.5 103.0 194.75 100.0Q197.0 97.0 198.5 97.0Q202.0 97.0 202.0 107.0V108.0Q202.0 112.0 199.5 118.0Q197.0 124.0 193.0 128.5Q190.0 133.0 184.0 144.5Q178.0 156.0 171.75 169.25Q165.5 182.5 161.0 193.0Q156.5 203.5 156.5 206.0Q156.5 207.0 159.5 213.0Q160.5 214.5 161.25 216.5Q162.0 218.5 162.5 221.0L165.5 227.0Q169.0 234.0 176.25 242.5Q183.5 251.0 192.0 259.0Q200.5 267.0 207.75 272.25Q215.0 277.5 219.0 277.5Q222.0 273.0 222.0 223.0Q222.0 219.5 222.0 216.0Q222.0 212.5 221.5 209.0V190.0Q221.0 151.0 219.5 128.75Q218.0 106.5 214.5 93.25Q211.0 80.0 204.0 69.0L203.5 68.0Q203.5 65.5 215.25 64.5Q227.0 63.5 241.0 63.5Q253.5 63.5 263.75 63.75Q274.0 64.0 277.0 64.5Q279.5 65.0 279.5 67.5Q279.5 69.0 277.0 72.25Q274.5 75.5 271.0 79.5Q267.5 84.0 260.25 95.75Q253.0 107.5 247.5 120.5L233.5 152.0L235.0 223.5Q235.5 251.0 236.25 266.5Q237.0 282.0 238.5 288.75Q240.0 295.5 242.0 297.5Q247.5 301.0 250.5 301.0Q253.5 301.0 254.75 293.5Q256.0 286.0 256.25 266.25Q256.5 246.5 256.5 211.0Q256.5 184.0 257.25 162.25Q258.0 140.5 259.75 127.75Q261.5 115.0 263.5 115.0Q267.5 116.5 278.0 122.5Q284.0 125.5 298.75 127.0Q313.5 128.5 335.5 129.0Q357.0 129.0 370.5 130.5Q384.0 132.0 384.0 135.0Q384.0 138.5 373.5 140.25Q363.0 142.0 346.0 142.0Q315.5 142.0 296.0 146.75Q276.5 151.5 276.5 158.5Q276.5 161.0 280.5 164.0Q285.0 167.0 298.0 168.25Q311.0 169.5 335.5 169.5Q357.5 169.5 370.75 171.5Q384.0 173.5 384.0 176.0Q384.0 178.5 379.5 181.0Q375.0 183.5 368.0 183.5Q358.5 183.5 358.5 185.5Q358.5 190.0 374.5 197.5L386.0 204.0L387.5 170.5V162.0Q387.5 149.0 386.5 135.5Q385.5 122.0 384.5 115.5L381.0 99.5L344.5 98.0H330.0Q315.5 98.0 306.75 99.0Q298.0 100.0 291.5 104.0Q286.0 106.5 281.0 108.0Q276.0 109.5 274.0 109.5H271.0V106.0Q271.0 103.5 272.25 97.25Q273.5 91.0 275.5 84.5Q278.5 76.5 281.5 63.0Q284.5 49.5 286.0 39.0Z" fill="black" /></svg>