<svg xmlns="http://www.w3.org/2000/svg" width="437.5" height="385.5" viewBox="0 0 437.5 385.5"><path d="M208.5 260.0Q209.0 259.0 210.25 256.75Q211.5 254.5 212.0 254.0Q210.5 254.5 207.75 255.75Q205.0 257.0 201.0 259.0L198.0 260.5Q190.5 264.0 176.75 265.5Q163.0 267.0 147.0 267.0H145.0Q138.5 267.5 132.5 267.75Q126.5 268.0 122.5 268.0Q116.0 268.0 114.0 267.5Q115.5 270.0 119.0 275.0Q122.5 280.0 126.5 286.0Q132.5 294.0 140.25 306.25Q148.0 318.5 153.0 327.5L161.5 343.5L172.0 320.5Q177.5 308.5 183.75 297.5Q190.0 286.5 193.0 282.0Q196.5 278.0 200.75 271.5Q205.0 265.0 208.5 260.0ZM146.0 194.0H148.0Q129.0 192.0 114.75 187.75Q100.5 183.5 88.25 175.25Q76.0 167.0 62.0 154.0L38.5 133.5L35.5 175.0Q34.5 194.5 32.75 214.0Q31.0 233.5 29.5 241.0Q27.5 247.5 27.5 255.5Q28.5 254.5 31.0 253.25Q33.5 252.0 36.5 250.0Q40.0 248.0 44.0 245.5Q48.0 243.0 52.0 240.5Q62.0 233.5 79.75 224.0Q97.5 214.5 113.0 208.5Q125.5 203.5 135.75 198.75Q146.0 194.0 146.0 194.0ZM172.5 54.5Q172.5 46.0 171.0 44.0Q168.0 45.5 158.75 54.0Q149.5 62.5 138.75 73.5Q128.0 84.5 119.25 94.25Q110.5 104.0 108.0 108.0Q110.5 108.5 116.75 110.0Q123.0 111.5 131.0 112.5Q142.0 114.5 156.75 117.5Q171.5 120.5 181.5 124.0Q191.5 127.5 197.5 129.75Q203.5 132.0 207.0 132.5Q206.5 131.0 204.0 128.0Q201.5 125.0 199.0 121.5Q188.0 107.5 180.25 88.25Q172.5 69.0 172.5 54.5ZM313.5 45.0Q313.0 45.0 312.75 45.0Q312.5 45.0 312.0 45.0H306.0Q301.5 45.5 290.0 46.25Q278.5 47.0 267.5 47.5Q256.5 48.0 248.5 48.75Q240.5 49.5 240.5 50.0Q240.5 51.5 245.5 58.0L247.0 60.5Q249.0 63.5 250.5 66.5Q261.0 82.0 267.0 96.0Q272.5 110.0 275.75 116.25Q279.0 122.5 279.0 122.5Q282.5 104.5 287.0 92.75Q291.5 81.0 297.75 70.0Q304.0 59.0 313.5 45.0ZM147.5 45.0Q161.0 30.5 171.5 20.25Q182.0 10.0 182.5 10.0Q186.0 10.0 186.0 16.0Q186.0 17.5 185.75 20.0Q185.5 22.5 185.0 25.0Q184.5 26.5 184.5 28.5Q184.5 30.5 184.5 32.5Q184.5 45.5 188.75 64.75Q193.0 84.0 199.0 96.0Q203.0 102.5 215.5 116.75Q228.0 131.0 241.0 143.5Q259.0 160.0 267.5 167.25Q276.0 174.5 276.0 174.5L276.5 156.0Q276.0 150.0 271.75 138.25Q267.5 126.5 260.75 112.75Q254.0 99.0 246.75 85.75Q239.5 72.5 233.0 63.0Q227.0 54.5 223.25 47.75Q219.5 41.0 219.5 39.5Q219.5 38.5 228.25 37.0Q237.0 35.5 250.0 35.5Q262.0 35.5 278.5 34.25Q295.0 33.0 306.0 31.5Q323.5 29.0 332.0 29.0Q336.5 29.0 337.5 30.0V30.5Q337.5 32.0 334.0 39.25Q330.5 46.5 324.0 54.5Q308.5 73.0 301.5 90.0Q294.5 107.0 292.75 125.25Q291.0 143.5 291.0 167.0V181.5Q296.5 177.5 312.0 166.75Q327.5 156.0 346.0 142.0Q361.5 130.0 374.75 120.5Q388.0 111.0 396.75 105.25Q405.5 99.5 406.5 99.5Q411.0 99.5 411.0 103.5Q411.0 111.0 358.5 149.5L311.0 184.5L365.0 185.5Q427.5 186.5 427.5 192.5Q427.5 194.5 411.0 196.5Q394.5 198.5 363.0 198.5L304.0 199.0L353.5 237.5Q374.5 254.0 389.0 268.0Q403.5 282.0 403.5 284.5V286.5L401.0 287.0Q398.0 287.0 382.0 275.75Q366.0 264.5 346.0 248.5Q332.0 237.0 319.5 227.0Q307.0 217.0 299.0 210.75Q291.0 204.5 291.0 204.5V271.5Q291.0 303.0 290.25 319.0Q289.5 335.0 287.5 340.5Q285.5 346.0 282.5 346.0Q279.0 346.0 277.5 333.5Q276.0 321.0 275.5 284.5L276.0 217.0V209.0L258.5 222.0Q250.5 228.5 239.0 243.0Q227.5 257.5 215.5 276.0Q203.5 294.5 193.0 312.75Q182.5 331.0 176.0 345.75Q169.5 360.5 169.5 367.5Q169.5 375.5 165.0 375.5Q162.5 375.5 157.5 368.5Q152.5 361.5 147.5 349.5Q143.0 339.0 132.5 321.0Q122.0 303.0 112.0 288.0Q102.5 273.0 96.0 261.25Q89.5 249.5 89.5 247.0L90.0 245.0Q91.5 244.5 93.0 244.5Q95.0 244.5 97.5 245.0Q100.0 245.5 103.5 247.0Q109.0 250.5 121.5 252.5Q134.0 254.5 147.5 254.5Q154.5 254.5 162.0 253.75Q169.5 253.0 175.5 251.5Q181.5 249.5 192.75 243.5Q204.0 237.5 217.0 229.75Q230.0 222.0 242.0 214.75Q254.0 207.5 261.5 202.75Q269.0 198.0 269.0 198.0H253.0Q243.0 198.0 232.5 198.0Q222.0 198.0 213.5 198.5Q193.5 199.0 181.0 200.75Q168.5 202.5 156.25 206.75Q144.0 211.0 124.0 219.5Q53.5 250.0 28.5 274.0Q16.0 283.0 12.5 283.0L10.0 282.5V280.0Q10.0 271.5 14.0 249.0Q16.0 241.5 17.5 227.25Q19.0 213.0 20.5 195.5Q22.0 178.0 22.5 161.5Q24.0 129.5 26.75 114.5Q29.5 99.5 33.0 99.5Q36.5 99.5 39.5 109.0Q41.0 113.0 47.75 121.0Q54.5 129.0 64.25 138.25Q74.0 147.5 83.5 155.25Q93.0 163.0 99.5 166.5Q116.5 175.0 145.75 178.75Q175.0 182.5 219.0 183.5L269.0 185.0L255.0 174.5Q249.0 170.0 241.5 164.75Q234.0 159.5 229.0 157.0Q220.0 152.0 205.25 146.75Q190.5 141.5 173.5 136.5Q156.5 131.5 140.25 128.0Q124.0 124.5 112.5 123.0Q106.0 122.0 99.25 121.25Q92.5 120.5 87.5 120.0Q84.0 119.5 81.75 119.25Q79.5 119.0 78.5 119.0L78.0 116.5Q78.0 114.0 83.0 108.25Q88.0 102.5 96.0 95.5Q104.5 88.5 119.5 73.75Q134.5 59.0 147.5 45.0Z" fill="black" /></svg>