<svg xmlns="http://www.w3.org/2000/svg" width="953.0" height="460.5" viewBox="0 0 953.0 460.5"><path d="M55.0 302.5 55.5 302.0Q47.0 299.5 39.25 295.25Q31.5 291.0 27.5 288.0Q28.5 290.5 28.5 308.5V329.0L35.5 325.5Q41.0 321.5 49.25 316.5Q57.5 311.5 63.0 309.5L67.0 308.5ZM331.0 284.0V281.5Q332.0 280.5 332.5 280.0Q333.0 279.5 333.5 279.0Q328.0 281.0 324.0 282.5Q320.0 284.0 320.0 284.5Q320.0 285.0 320.75 287.0Q321.5 289.0 322.5 290.5L323.5 292.0Q324.0 292.0 326.0 289.75Q328.0 287.5 331.0 284.0ZM367.0 328.0Q369.0 325.0 369.5 323.5Q369.0 324.0 368.75 324.25Q368.5 324.5 368.0 325.0Q363.0 326.0 361.0 327.0Q359.0 328.0 359.0 328.0Q359.0 328.0 361.5 334.0Q362.5 333.0 363.75 331.5Q365.0 330.0 367.0 328.0ZM626.0 294.5Q621.5 291.5 619.0 291.5Q618.5 291.5 618.25 296.75Q618.0 302.0 618.0 315.0V336.0L627.0 329.5Q633.5 325.5 644.25 320.5Q655.0 315.5 662.5 313.0L666.0 311.0L658.5 309.0Q650.0 306.5 640.5 302.75Q631.0 299.0 626.0 294.5ZM68.0 165.0 49.5 156.0Q43.0 152.5 38.25 150.25Q33.5 148.0 30.5 147.0Q31.5 150.0 32.5 157.75Q33.5 165.5 33.5 172.5V183.0ZM369.5 205.0 368.5 201.0Q366.5 197.0 365.0 194.5Q363.5 192.0 362.5 191.0L360.5 193.0Q359.0 194.5 359.0 195.0Q359.0 197.5 368.0 204.0ZM417.0 145.0Q414.5 136.5 413.5 136.5L409.0 140.5Q409.5 141.0 410.25 142.0Q411.0 143.0 412.5 144.0Q416.5 148.0 418.0 148.0Q418.0 147.5 417.5 146.5Q417.0 145.5 417.0 145.0ZM291.0 134.5Q287.5 134.5 285.75 126.5Q284.0 118.5 283.25 109.0Q282.5 99.5 282.5 96.0V92.5Q280.0 96.0 271.0 113.5Q267.5 120.0 265.25 131.25Q263.0 142.5 262.25 164.5Q261.5 186.5 261.0 226.0Q261.0 234.5 261.0 243.25Q261.0 252.0 260.5 260.5Q260.5 267.5 260.0 274.75Q259.5 282.0 259.5 289.0Q259.5 308.5 260.25 321.75Q261.0 335.0 261.5 339.0Q263.5 346.5 269.25 352.25Q275.0 358.0 288.25 363.5Q301.5 369.0 324.5 377.0Q336.5 380.0 348.5 381.75Q360.5 383.5 376.0 384.75Q391.5 386.0 413.75 387.0Q436.0 388.0 468.5 389.0L572.5 390.5L570.0 277.0Q569.5 242.0 568.5 218.0Q567.5 194.0 566.25 177.75Q565.0 161.5 562.75 149.75Q560.5 138.0 557.0 127.5L548.0 96.5H456.0Q418.5 96.5 394.75 97.25Q371.0 98.0 356.75 100.25Q342.5 102.5 332.75 107.25Q323.0 112.0 313.0 120.0Q306.0 126.0 299.25 130.25Q292.5 134.5 291.0 134.5ZM478.5 232.0 468.0 217.0Q464.0 211.5 460.75 207.25Q457.5 203.0 456.5 201.5Q454.0 203.5 447.5 208.0Q441.0 212.5 433.0 219.0L430.5 221.5Q422.5 227.0 418.25 230.75Q414.0 234.5 414.0 237.0Q414.0 239.0 417.75 243.25Q421.5 247.5 427.5 255.5L436.0 264.5ZM264.0 89.0 272.0 77.5H247.5Q224.0 77.5 223.5 78.5Q226.0 86.5 229.5 94.5Q233.0 102.5 236.5 110.5Q241.0 121.0 243.5 128.75Q246.0 136.5 246.0 136.5Q246.0 136.5 246.5 132.5Q247.0 128.5 248.0 123.5Q250.0 117.0 254.75 106.5Q259.5 96.0 264.0 89.0ZM632.5 181.0Q626.5 177.0 621.0 174.75Q615.5 172.5 613.5 172.0V217.0L624.5 209.5Q631.0 205.0 641.5 200.0Q652.0 195.0 658.5 193.5Q662.5 192.5 664.75 191.75Q667.0 191.0 667.0 191.0Q667.0 190.0 661.5 190.0Q658.0 190.0 649.5 187.25Q641.0 184.5 632.5 181.0ZM331.0 74.5V74.0Q329.0 73.0 327.5 72.5Q326.0 72.0 324.5 71.5Q320.0 69.5 315.25 68.0Q310.5 66.5 307.5 64.5Q305.5 64.0 304.0 63.5Q302.5 63.0 301.0 62.5Q300.5 62.0 300.5 61.75Q300.5 61.5 300.0 61.0Q300.5 63.0 300.5 66.0Q300.5 69.0 300.5 73.5V82.5L303.0 103.5L317.0 95.5Q325.5 91.0 334.5 87.25Q343.5 83.5 348.5 81.5Q346.5 80.5 342.25 78.5Q338.0 76.5 331.0 74.5ZM605.0 31.5Q602.5 31.5 593.25 32.0Q584.0 32.5 571.0 32.5H540.5L549.5 52.0Q556.0 64.5 561.75 79.5Q567.5 94.5 569.5 109.0Q570.5 115.5 571.0 117.75Q571.5 120.0 572.0 120.0Q572.5 118.0 572.75 115.75Q573.0 113.5 573.5 108.5Q575.0 100.0 579.75 84.75Q584.5 69.5 590.5 58.0L593.5 53.0Q597.5 44.5 600.75 38.75Q604.0 33.0 605.0 31.5ZM907.0 50.0Q905.0 49.5 896.25 49.0Q887.5 48.5 871.5 48.0L832.5 46.5L836.5 58.0Q838.5 62.5 840.75 67.0Q843.0 71.5 844.5 75.0L846.5 77.5Q849.5 80.5 853.75 92.5Q858.0 104.5 863.0 119.0L869.5 139.5L876.0 119.0Q879.5 104.5 885.75 89.5Q892.0 74.5 895.5 68.5Q903.5 58.5 907.0 50.0ZM264.0 374.0 261.5 373.0Q259.5 372.0 257.5 370.75Q255.5 369.5 254.0 369.0Q252.0 368.0 250.5 367.5Q249.0 367.0 247.5 366.5Q248.0 367.5 248.25 373.5Q248.5 379.5 248.5 380.5Q249.0 383.5 249.0 387.0Q249.0 390.5 249.0 394.0L251.5 419.5L260.5 414.0Q268.5 408.5 281.25 403.25Q294.0 398.0 305.5 395.0L317.0 391.0L309.0 389.5Q299.0 386.5 286.25 382.25Q273.5 378.0 264.0 374.0ZM514.5 15.5Q514.5 10.0 523.0 10.0Q524.5 10.0 526.0 10.25Q527.5 10.5 529.5 10.5Q533.5 12.5 543.25 13.25Q553.0 14.0 562.75 14.25Q572.5 14.5 576.5 14.5H589.5Q608.5 14.5 622.0 15.75Q635.5 17.0 635.5 19.5Q635.5 21.5 632.25 27.5Q629.0 33.5 623.5 39.5Q610.5 58.0 602.5 78.25Q594.5 98.5 591.0 128.25Q587.5 158.0 587.5 205.5Q587.5 222.5 587.75 242.5Q588.0 262.5 588.5 286.0L590.0 406.5L305.5 410.0L283.0 422.5Q274.0 427.0 264.25 433.0Q254.5 439.0 252.0 443.0L248.0 445.5Q244.5 450.5 240.0 450.5L237.0 449.0Q235.5 447.5 234.0 435.75Q232.5 424.0 231.5 408.75Q230.5 393.5 230.0 379.75Q229.5 366.0 229.5 361.0Q229.5 351.5 231.75 347.75Q234.0 344.0 238.0 344.0Q239.5 344.0 241.25 344.0Q243.0 344.0 243.5 345.0Q244.5 345.0 245.0 345.25Q245.5 345.5 246.0 345.5Q245.0 343.5 245.0 342.0Q244.0 337.5 242.75 332.0Q241.5 326.5 241.5 325.0Q241.5 324.0 224.75 323.25Q208.0 322.5 162.5 322.5Q130.0 322.5 109.25 323.5Q88.5 324.5 75.5 327.25Q62.5 330.0 53.5 335.0Q44.5 340.0 35.5 348.5Q30.5 352.5 25.5 356.0Q20.5 359.5 17.5 359.5L15.0 358.5Q13.5 357.5 12.25 348.25Q11.0 339.0 10.5 325.75Q10.0 312.5 10.0 300.0Q10.0 284.5 11.5 273.5Q13.0 262.5 16.5 262.5Q21.5 262.5 31.5 269.5Q33.0 270.0 35.25 271.5Q37.5 273.0 39.0 274.0Q57.5 285.5 76.5 292.5Q95.5 299.5 120.25 302.5Q145.0 305.5 179.5 305.5H241.5V182.0L204.5 178.5Q194.0 177.5 182.25 177.0Q170.5 176.5 159.0 176.5Q128.5 176.5 101.0 179.75Q73.5 183.0 62.0 188.5Q55.5 192.0 48.5 197.0Q41.5 202.0 37.5 206.0Q33.0 211.0 28.5 215.0Q24.0 219.0 21.5 219.0Q18.0 219.0 15.5 203.75Q13.0 188.5 12.0 167.5Q12.0 141.0 14.5 128.75Q17.0 116.5 22.0 116.5Q25.0 116.5 31.5 123.0Q32.0 125.0 42.25 131.0Q52.5 137.0 66.0 143.0Q77.0 147.5 85.75 150.5Q94.5 153.5 105.0 155.25Q115.5 157.0 130.5 158.25Q145.5 159.5 169.5 160.5H183.0Q196.5 161.0 209.75 161.0Q223.0 161.0 235.5 161.0Q234.0 155.0 230.5 144.75Q227.0 134.5 222.5 122.75Q218.0 111.0 213.5 101.25Q209.0 91.5 206.0 86.5Q202.0 77.5 197.0 68.25Q192.0 59.0 192.0 59.0Q192.0 59.0 196.25 58.5Q200.5 58.0 203.0 58.0Q207.5 58.0 215.5 58.0Q223.5 58.0 233.0 59.0H241.5L279.5 60.5V52.5Q279.5 44.0 280.5 40.5Q281.5 37.0 286.5 37.0Q291.5 37.0 310.5 46.5Q343.5 62.0 371.75 68.5Q400.0 75.0 429.25 76.25Q458.5 77.5 494.0 77.5Q500.0 78.0 505.25 78.25Q510.5 78.5 515.0 78.5Q525.5 78.5 533.25 78.5Q541.0 78.5 543.5 79.5Q542.5 77.0 538.5 68.5Q534.5 60.0 529.0 50.5Q528.5 48.5 527.5 46.5Q526.5 44.5 525.5 43.0Q525.0 41.0 524.0 39.5Q523.0 38.0 522.0 36.0Q521.0 33.5 517.75 25.5Q514.5 17.5 514.5 15.5ZM397.5 123.0H398.0Q402.0 120.5 405.75 118.0Q409.5 115.5 411.5 113.5L415.5 111.5Q418.5 111.5 424.75 119.5Q431.0 127.5 436.0 139.0Q440.5 148.5 445.5 157.75Q450.5 167.0 453.5 170.0Q458.0 176.0 457.5 176.0Q459.5 176.0 462.0 174.0Q463.0 173.0 464.0 172.5Q465.0 172.0 466.0 171.5Q471.0 167.5 475.0 166.0Q479.0 164.5 482.0 164.5Q489.0 164.5 489.0 171.0Q489.0 177.0 478.5 184.5L472.0 191.5L484.0 207.0Q488.0 212.0 490.75 216.0Q493.5 220.0 493.5 220.0Q494.5 219.0 498.0 217.0Q501.5 215.0 505.5 213.0Q511.0 209.5 514.25 208.25Q517.5 207.0 519.0 207.0Q526.5 207.0 526.5 213.0Q526.5 219.5 515.0 227.5L506.5 235.5L527.0 257.5Q537.5 269.5 544.25 279.5Q551.0 289.5 551.0 291.5Q551.0 299.0 545.5 299.0Q539.0 299.0 513.0 271.5L490.5 247.5L472.0 260.5Q452.0 273.5 452.0 278.5Q452.0 286.5 473.0 309.0L475.5 311.0Q487.0 324.5 494.75 335.75Q502.5 347.0 502.5 350.0L501.0 353.5L498.0 354.0Q494.5 354.0 483.25 345.0Q472.0 336.0 460.5 322.5L432.5 290.5L413.5 305.0Q405.5 311.5 396.0 321.5Q386.5 331.5 381.0 339.0Q375.5 347.0 370.25 353.75Q365.0 360.5 362.5 360.5Q360.0 360.5 355.75 355.75Q351.5 351.0 346.0 344.5L328.5 322.0L390.0 292.0Q403.0 286.5 412.0 282.0Q421.0 277.5 421.0 277.0Q421.0 276.5 418.25 273.75Q415.5 271.0 412.0 266.5Q410.5 265.5 409.25 263.75Q408.0 262.0 405.5 260.5L393.0 249.0L371.5 269.0Q361.5 278.0 352.0 288.25Q342.5 298.5 340.0 304.0Q337.0 309.0 332.5 313.5Q328.0 318.0 326.5 318.0Q325.0 318.0 319.25 312.75Q313.5 307.5 307.5 301.0L290.5 280.5L341.0 255.5L381.0 237.0L367.5 225.5Q363.0 223.0 358.75 219.25Q354.5 215.5 350.5 212.5Q347.0 209.0 343.0 206.0L329.0 193.0L348.5 177.0L369.0 159.0L384.0 191.0Q387.5 199.5 391.25 207.0Q395.0 214.5 397.0 217.0Q402.5 215.0 413.25 209.25Q424.0 203.5 433.5 197.5Q443.0 191.5 444.5 190.0Q443.0 189.0 441.0 187.25Q439.0 185.5 435.5 183.5Q427.0 176.5 414.5 167.25Q402.0 158.0 392.5 150.25Q383.0 142.5 383.0 141.0Q383.0 138.5 387.25 133.25Q391.5 128.0 397.5 123.0ZM803.0 35.5Q803.0 32.5 813.25 31.25Q823.5 30.0 840.0 30.0Q854.5 30.0 871.5 30.25Q888.5 30.5 904.0 31.25Q919.5 32.0 930.25 33.0Q941.0 34.0 943.0 35.5Q943.0 38.5 938.75 44.0Q934.5 49.5 928.5 56.5L927.5 58.5Q921.0 64.5 913.5 76.5Q906.0 88.5 901.5 99.5L888.5 123.5L887.0 278.0Q886.5 350.0 884.0 390.75Q881.5 431.5 876.5 431.5L874.5 430.5Q872.0 427.0 870.25 409.75Q868.5 392.5 868.5 371.5V328.0L829.0 326.5H780.0Q756.0 326.5 732.75 327.0Q709.5 327.5 692.25 328.25Q675.0 329.0 667.5 330.0Q661.5 330.5 651.25 336.25Q641.0 342.0 632.5 348.5Q624.0 355.0 616.0 359.5Q608.0 364.0 605.0 364.0Q604.5 364.0 604.25 363.5Q604.0 363.0 603.0 363.0Q601.0 361.0 600.25 347.5Q599.5 334.0 599.5 319.0Q599.5 302.5 601.0 288.0Q602.5 273.5 606.0 270.0V269.5H608.5Q610.5 269.5 614.25 270.75Q618.0 272.0 623.0 274.0Q625.0 274.5 627.0 275.25Q629.0 276.0 630.0 276.5Q647.0 285.5 662.5 291.5Q678.0 297.5 695.75 300.75Q713.5 304.0 736.25 306.0Q759.0 308.0 789.5 309.0L868.5 310.5L866.0 207.0L778.5 205.0H756.0Q724.5 205.0 703.25 206.25Q682.0 207.5 667.75 210.5Q653.5 213.5 643.25 219.0Q633.0 224.5 623.5 233.0Q616.5 239.5 610.25 243.0Q604.0 246.5 602.0 246.5H599.5Q599.0 245.5 598.0 235.0Q597.0 224.5 596.0 209.75Q595.0 195.0 594.25 180.5Q593.5 166.0 593.5 157.5Q593.5 144.5 598.5 144.5Q599.5 144.5 603.5 146.5Q607.5 148.5 613.5 151.0Q618.5 152.0 625.0 155.5Q643.0 165.0 659.25 171.25Q675.5 177.5 693.25 181.0Q711.0 184.5 733.75 185.75Q756.5 187.0 788.5 187.0Q818.5 187.0 834.75 186.75Q851.0 186.5 857.25 186.0Q863.5 185.5 863.5 185.0Q863.5 178.5 859.0 162.75Q854.5 147.0 847.25 127.75Q840.0 108.5 832.25 90.0Q824.5 71.5 818.0 59.25Q811.5 47.0 808.0 46.0Q803.0 42.0 803.0 35.5Z" fill="black" /></svg>