<svg xmlns="http://www.w3.org/2000/svg" width="357.5" height="378.0" viewBox="0 0 357.5 378.0"><path d="M80.5 228.5 77.5 219.5Q74.0 224.5 68.5 232.25Q63.0 240.0 59.5 244.5Q56.0 250.5 51.25 256.0Q46.5 261.5 42.5 265.5Q41.5 267.0 40.25 268.5Q39.0 270.0 38.0 271.0Q42.0 270.5 48.0 270.25Q54.0 270.0 60.5 270.0Q65.5 270.0 70.5 270.25Q75.5 270.5 80.5 271.0L113.0 274.0Q107.0 268.5 101.5 262.5Q100.0 261.5 98.75 260.25Q97.5 259.0 96.5 258.0Q92.5 253.0 87.5 243.75Q82.5 234.5 80.5 228.5ZM180.0 232.0 169.5 227.0Q166.5 225.0 163.5 222.25Q160.5 219.5 158.0 217.5Q157.5 217.0 157.25 216.5Q157.0 216.0 156.5 215.5L154.5 249.5ZM109.5 101.0 118.5 90.0H89.0L93.0 96.5L102.5 115.5Q104.0 108.0 109.5 101.0ZM179.0 171.0 179.5 170.5Q176.0 168.5 172.25 166.0Q168.5 163.5 167.5 162.5L156.5 154.0L157.5 185.5Q163.0 180.5 169.25 176.75Q175.5 173.0 179.0 171.0ZM277.5 118.5 253.0 108.0H252.5Q251.5 107.0 250.0 106.5Q248.5 106.0 247.5 105.5Q244.5 104.0 241.75 102.75Q239.0 101.5 236.5 100.5Q228.5 96.5 221.0 93.75Q213.5 91.0 204.0 89.5L200.5 89.0H197.5Q193.0 88.5 187.0 88.0Q181.0 87.5 173.5 87.5Q164.5 87.5 158.0 87.75Q151.5 88.0 146.5 89.0Q142.5 89.5 138.5 91.25Q134.5 93.0 130.0 97.0Q122.5 106.5 117.25 115.75Q112.0 125.0 112.0 135.5Q112.0 141.5 112.0 150.5Q112.0 159.5 111.5 169.5V193.0Q111.0 198.5 111.0 203.5Q111.0 208.5 111.0 213.0V248.0Q111.0 249.5 110.0 251.5L127.0 267.0Q133.0 271.0 149.75 280.0Q166.5 289.0 188.5 300.25Q210.5 311.5 232.25 322.0Q254.0 332.5 270.25 340.0Q286.5 347.5 291.0 349.0Q290.5 348.0 290.5 343.5V326.5Q290.0 319.5 290.0 310.25Q290.0 301.0 290.0 291.0V235.5H226.0Q210.5 235.5 204.5 236.5Q198.5 237.5 191.5 240.5L177.5 248.5Q175.0 251.0 168.0 256.5Q161.0 262.0 154.25 266.5Q147.5 271.0 144.5 271.0H144.0Q140.5 271.0 140.5 264.0Q140.5 262.0 140.5 259.5Q140.5 257.0 141.0 253.5Q141.0 252.0 141.25 250.5Q141.5 249.0 141.5 247.5Q142.0 243.5 142.25 238.75Q142.5 234.0 143.0 228.5V225.5Q143.5 223.0 143.75 220.25Q144.0 217.5 144.0 214.5Q144.0 212.0 143.75 209.5Q143.5 207.0 143.0 204.5Q142.5 203.0 142.5 201.25Q142.5 199.5 142.5 197.5Q142.5 195.5 142.5 193.75Q142.5 192.0 143.0 190.5Q144.0 183.5 144.0 175.5V168.0Q144.0 162.5 144.0 157.0Q144.0 151.5 143.5 148.0V137.5Q143.5 126.0 148.5 126.0Q150.0 126.0 156.5 132.5Q161.0 137.0 167.5 143.25Q174.0 149.5 180.5 154.5Q187.0 159.5 191.5 160.0L217.0 161.0H235.0L289.5 161.5Q289.5 161.5 287.5 152.0Q285.5 142.5 283.0 134.5Q281.0 128.5 279.25 123.5Q277.5 118.5 277.5 118.5ZM210.5 221.5H290.0L289.0 174.0H226.5Q204.5 174.0 190.5 179.0Q176.5 184.0 160.5 200.0L173.0 211.5Q181.0 218.5 192.0 221.0Q194.5 221.5 198.25 221.75Q202.0 222.0 205.5 222.0Q208.5 222.0 210.5 221.5ZM180.0 48.0Q179.5 45.5 178.75 41.75Q178.0 38.0 178.0 38.0Q177.5 38.0 174.25 41.25Q171.0 44.5 159.5 62.0L149.5 76.5L151.5 76.0H193.5Q195.5 76.5 198.5 76.5L194.0 71.5Q189.0 67.0 185.75 62.0Q182.5 57.0 180.0 48.0ZM322.0 49.0Q319.5 49.5 312.25 49.5Q305.0 49.5 294.5 49.5Q282.5 49.5 275.0 50.0Q267.5 50.5 267.5 51.5Q267.5 52.5 270.0 58.25Q272.5 64.0 276.0 69.5Q278.5 74.5 280.5 83.0Q282.5 91.5 284.0 98.5Q285.0 102.5 285.5 104.0L286.0 106.5L295.5 111.0Q299.5 90.5 309.5 72.5Q315.0 64.0 318.25 57.5Q321.5 51.0 322.0 49.0ZM162.0 35.5Q169.0 25.0 175.25 17.5Q181.5 10.0 183.0 10.0Q185.5 10.0 188.0 14.25Q190.5 18.5 190.5 26.5V28.5Q193.0 41.5 196.5 50.75Q200.0 60.0 209.25 67.75Q218.5 75.5 238.0 85.0Q251.0 91.5 261.5 96.25Q272.0 101.0 272.0 101.0Q271.0 95.5 267.5 85.75Q264.0 76.0 258.0 65.0Q256.5 61.0 254.75 57.5Q253.0 54.0 251.5 51.0L249.0 46.0Q245.5 38.0 245.5 37.0Q245.5 34.0 257.0 34.0Q266.0 34.0 280.75 34.5Q295.5 35.0 310.5 35.75Q325.5 36.5 336.25 37.25Q347.0 38.0 347.5 38.5V40.0Q347.5 42.0 345.0 45.5Q342.5 49.0 339.5 52.5Q334.5 58.5 327.25 71.75Q320.0 85.0 314.0 98.0Q308.0 111.0 307.0 117.5L324.5 126.0Q325.0 126.5 327.0 127.5L330.0 129.0Q334.0 131.0 337.0 132.75Q340.0 134.5 340.0 137.5V139.0Q340.0 145.0 335.5 145.0Q332.5 145.0 318.0 138.0L306.5 132.0L304.5 157.5L305.5 367.5L303.5 368.0Q301.0 368.0 279.0 358.25Q257.0 348.5 226.5 333.5Q206.5 323.0 187.0 314.0Q167.5 305.0 152.5 298.5Q137.5 292.0 131.0 290.0Q112.5 286.0 92.0 285.0Q71.5 284.0 52.5 284.0Q35.5 284.0 28.0 285.5Q25.0 285.5 23.5 286.0H17.5Q12.5 285.5 11.25 284.25Q10.0 283.0 10.0 279.5V279.0L10.5 278.0Q10.5 278.0 16.75 272.75Q23.0 267.5 29.5 260.0L31.0 258.0Q39.5 249.0 47.0 239.5Q54.5 230.0 65.0 214.0Q77.0 194.0 82.0 194.0Q86.0 194.0 86.5 198.5Q87.5 204.0 89.25 211.5Q91.0 219.0 93.0 224.0Q94.0 226.0 96.0 230.25Q98.0 234.5 98.0 234.5Q97.5 228.5 97.5 220.25Q97.5 212.0 97.5 202.0V175.0Q97.5 149.5 92.25 131.25Q87.0 113.0 74.5 91.5Q72.5 87.0 71.0 83.75Q69.5 80.5 69.5 78.5V77.0Q70.0 73.5 76.5 73.5Q78.5 73.5 81.25 73.75Q84.0 74.0 87.0 74.0L101.5 76.0H107.0Q108.5 76.5 110.0 76.5Q111.5 76.5 112.5 76.5Q119.5 76.5 125.75 76.0Q132.0 75.5 132.0 75.5Q134.5 72.5 143.5 61.25Q152.5 50.0 162.0 35.5ZM293.0 126.0V127.5H294.0L293.0 125.0L292.0 125.5Z" fill="black" /></svg>