<svg xmlns="http://www.w3.org/2000/svg" width="540.0" height="383.0" viewBox="0 0 540.0 383.0"><path d="M62.5 314.5Q51.0 311.0 41.75 308.5Q32.5 306.0 31.0 306.0Q31.0 306.0 30.5 312.25Q30.0 318.5 29.5 326.5Q29.5 336.5 30.5 341.75Q31.5 347.0 36.5 347.0Q43.0 347.0 61.0 341.5Q69.5 339.0 85.0 335.5Q100.5 332.0 112.5 330.0L127.5 327.5L118.0 326.0Q106.5 325.0 90.25 321.5Q74.0 318.0 62.5 314.5ZM105.0 158.5Q107.5 150.0 107.5 148.0Q107.5 147.0 100.5 147.0Q93.5 147.0 93.5 148.0Q93.5 151.0 96.0 158.5Q98.0 163.5 99.25 167.25Q100.5 171.0 100.5 171.0Q101.0 170.0 101.75 168.25Q102.5 166.5 103.0 164.5Q103.5 163.0 104.0 161.5Q104.5 160.0 105.0 158.5ZM127.5 167.0Q125.5 160.5 124.0 155.75Q122.5 151.0 121.5 151.0Q118.0 151.0 115.0 163.25Q112.0 175.5 110.0 195.5Q108.0 215.5 108.0 238.5Q108.0 255.5 109.5 273.0L112.5 314.0H140.5V273.0Q140.5 242.0 137.25 217.25Q134.0 192.5 127.5 167.0ZM142.5 171.5 146.5 158.5Q149.5 150.0 149.5 148.0Q149.5 147.0 142.5 147.0Q135.5 147.0 135.5 148.0Q135.5 150.0 138.0 158.5Q139.5 163.5 140.75 167.5Q142.0 171.5 142.5 171.5ZM221.5 253.5 233.5 250.5 212.0 245.0 206.5 244.0Q203.0 243.0 199.25 241.75Q195.5 240.5 193.5 240.0L192.0 239.5Q191.0 239.5 190.25 239.25Q189.5 239.0 189.0 239.0Q187.5 239.0 187.5 248.5Q187.5 253.5 188.5 256.0Q189.5 258.5 193.0 258.5Q197.0 258.5 204.5 257.0Q212.0 255.5 221.5 253.5ZM307.5 215.0Q307.5 213.5 306.0 213.5Q304.5 213.5 304.5 215.0Q304.5 217.0 306.0 217.0Q307.5 217.0 307.5 215.0ZM332.0 222.5Q330.5 218.5 329.0 216.0Q327.5 213.5 326.5 213.5Q323.5 213.5 320.25 219.25Q317.0 225.0 316.0 232.0V235.5Q316.0 238.5 317.75 239.5Q319.5 240.5 326.0 241.0H329.0Q329.5 241.5 331.0 241.5Q337.0 241.5 337.0 237.5Q337.0 232.5 332.0 222.5ZM347.5 213.5Q346.5 213.5 344.25 213.75Q342.0 214.0 342.0 215.0Q342.0 217.0 343.5 217.0Q346.5 217.0 347.5 213.5ZM347.5 213.5 348.0 214.0V213.5Q348.0 213.5 348.0 213.5Q348.0 213.5 347.5 213.5ZM372.0 238.0Q372.0 234.0 368.75 226.0Q365.5 218.0 361.5 218.0Q359.5 218.0 357.0 223.0Q354.5 228.0 354.5 236.5Q354.5 242.0 361.5 242.0Q372.0 242.0 372.0 238.0ZM382.5 213.0Q381.5 213.5 379.0 213.5Q377.5 213.5 377.5 214.0Q378.5 215.0 379.5 215.0Q382.0 215.0 382.5 213.0ZM403.5 228.0V227.0Q402.5 223.0 400.25 220.75Q398.0 218.5 396.0 218.0Q392.0 219.0 389.5 226.0Q388.5 231.0 388.5 233.0Q388.5 242.0 398.0 242.0Q406.0 242.0 406.0 236.0Q406.0 234.0 403.5 228.0ZM416.0 215.0Q416.0 213.5 414.5 213.5Q412.5 213.5 412.5 215.0Q412.5 217.0 414.5 217.0Q416.0 217.0 416.0 215.0ZM209.5 103.0 199.0 100.0Q192.0 97.5 186.5 95.5Q181.0 93.5 179.0 93.0Q179.0 96.0 178.75 99.0Q178.5 102.0 178.0 105.0Q177.5 107.0 177.5 109.0Q177.5 111.0 177.5 112.5Q177.5 117.0 182.0 117.0Q186.0 117.0 194.25 115.25Q202.5 113.5 210.75 111.25Q219.0 109.0 223.0 107.5Q221.0 106.5 217.25 105.5Q213.5 104.5 209.5 103.0ZM236.5 180.0 227.5 177.5Q219.5 175.5 210.75 173.25Q202.0 171.0 198.0 169.5Q194.0 168.5 193.0 168.5Q191.0 168.5 191.0 180.0Q191.0 192.0 190.0 192.5Q191.0 192.0 198.0 190.0Q205.0 188.0 214.5 186.0ZM336.0 156.0Q336.0 151.5 334.5 141.5Q333.0 131.5 329.5 123.0Q326.0 114.5 320.0 114.5Q316.0 114.5 312.75 122.75Q309.5 131.0 309.5 145.5V152.5Q310.5 164.0 312.25 166.75Q314.0 169.5 322.5 169.5Q331.0 169.5 333.25 167.25Q335.5 165.0 336.0 156.0ZM366.0 127.5Q362.0 114.0 356.5 114.0Q354.0 114.0 352.0 118.0Q351.0 123.0 351.0 133.0Q351.0 136.5 351.0 139.75Q351.0 143.0 351.5 147.0Q352.5 162.5 353.75 166.0Q355.0 169.5 360.0 169.5Q365.5 169.5 367.25 167.25Q369.0 165.0 369.5 157.0V154.0Q370.0 153.5 370.0 151.5Q370.0 138.5 366.0 127.5ZM403.5 151.0Q403.5 147.5 402.75 138.75Q402.0 130.0 399.25 122.0Q396.5 114.0 391.0 114.0Q390.0 114.0 388.5 115.5Q387.0 117.0 386.0 118.5Q385.0 122.0 384.25 130.25Q383.5 138.5 383.5 147.0Q383.5 162.0 384.75 164.75Q386.0 167.5 393.5 167.5Q400.5 167.5 402.0 165.0Q403.5 162.5 403.5 151.0ZM463.5 108.0 443.0 110.5Q425.5 112.0 421.5 115.0Q420.5 116.0 419.5 124.5Q418.5 133.0 417.5 142.5L416.0 167.5H446.0Q466.5 167.5 470.75 166.25Q475.0 165.0 475.0 160.0Q475.0 155.0 471.75 140.25Q468.5 125.5 463.5 108.0ZM503.5 31.5Q501.0 30.5 492.0 29.75Q483.0 29.0 474.0 28.5Q465.0 28.0 461.5 28.0Q452.0 28.0 452.0 31.0Q452.0 33.0 454.0 37.25Q456.0 41.5 459.0 48.0L461.0 51.5Q463.5 56.5 466.5 66.5Q469.5 76.5 471.5 86.5Q474.0 96.0 475.5 102.5Q477.0 109.0 477.5 109.0Q478.0 109.0 479.0 104.25Q480.0 99.5 481.0 93.0Q483.5 77.0 489.75 61.5Q496.0 46.0 503.5 31.5ZM433.0 15.0Q433.0 10.0 440.0 10.0Q444.0 10.0 447.5 11.5Q451.5 13.0 462.5 13.75Q473.5 14.5 486.0 14.5H493.0Q509.0 14.5 519.5 15.25Q530.0 16.0 530.0 18.0Q530.0 22.5 520.0 34.0Q515.5 39.0 509.75 49.5Q504.0 60.0 500.0 69.0Q497.5 75.5 495.75 82.0Q494.0 88.5 492.75 98.25Q491.5 108.0 491.0 124.0Q490.5 140.0 490.25 166.25Q490.0 192.5 490.0 232.0Q490.0 270.5 489.25 302.75Q488.5 335.0 487.25 354.0Q486.0 373.0 484.0 373.0Q480.5 373.0 479.75 365.5Q479.0 358.0 478.5 347.5L477.5 325.5L334.5 329.0Q305.0 329.5 276.75 330.5Q248.5 331.5 225.5 332.25Q202.5 333.0 187.5 334.0Q172.5 335.0 168.5 336.0Q160.5 337.5 149.0 339.0Q137.5 340.5 128.5 341.5Q120.0 342.5 101.0 346.25Q82.0 350.0 64.5 354.5L59.0 356.0Q25.0 364.0 16.0 364.0Q10.0 364.0 10.0 359.5Q10.0 357.5 12.5 351.5Q13.0 351.0 14.0 349.0Q18.0 338.5 18.0 320.5V313.0Q18.0 311.0 17.75 309.5Q17.5 308.0 17.5 306.5V302.0Q17.5 294.0 19.0 291.0Q20.5 288.0 24.0 287.5H25.0Q25.5 288.0 25.75 288.0Q26.0 288.0 26.0 288.0Q28.5 288.5 39.0 292.25Q49.5 296.0 61.0 300.0L68.5 302.5Q77.0 305.5 82.75 307.25Q88.5 309.0 91.5 309.0Q98.0 309.0 98.0 291.0Q98.0 286.5 98.0 280.75Q98.0 275.0 97.5 268.5Q97.5 242.5 95.25 215.75Q93.0 189.0 85.0 164.5Q79.5 147.0 79.5 142.0Q79.5 136.0 83.25 134.25Q87.0 132.5 96.5 132.5Q100.0 132.5 110.25 132.75Q120.5 133.0 132.75 133.5Q145.0 134.0 154.5 134.75Q164.0 135.5 165.5 137.0V138.5Q165.5 140.5 164.0 146.0Q162.5 151.5 160.0 158.5Q155.5 168.5 154.0 182.25Q152.5 196.0 152.5 226.5Q152.5 230.5 152.5 243.5Q152.5 256.5 152.75 271.75Q153.0 287.0 153.75 299.5Q154.5 312.0 156.0 315.5Q157.0 316.5 170.0 317.0Q183.0 317.5 212.0 317.5Q226.5 317.5 245.0 317.25Q263.5 317.0 286.5 317.0Q306.5 316.0 326.25 315.75Q346.0 315.5 366.0 315.5Q386.5 315.0 404.5 314.75Q422.5 314.5 436.5 314.0Q456.0 313.5 466.5 313.5Q477.0 313.5 477.5 313.0Q477.5 308.0 477.25 289.25Q477.0 270.5 476.0 246.0L474.0 181.0H447.5Q437.0 181.0 428.25 182.0Q419.5 183.0 418.0 184.5Q416.5 188.0 413.5 188.0Q410.0 188.0 407.0 185.0Q403.5 181.0 396.0 181.0Q388.0 181.0 384.0 185.5Q380.5 188.5 377.5 188.5Q374.0 188.5 370.0 185.5Q366.5 181.0 361.5 181.0Q355.5 181.0 349.0 187.5Q344.0 191.0 341.0 191.0Q337.0 191.0 337.0 187.5Q337.0 186.5 333.25 185.75Q329.5 185.0 325.5 185.0Q313.0 185.0 309.0 189.5Q305.0 192.5 303.0 192.5Q299.5 192.0 299.5 187.0Q299.5 186.0 291.5 186.0Q282.5 186.0 265.0 188.75Q247.5 191.5 224.0 197.0Q208.5 200.5 198.75 202.75Q189.0 205.0 184.5 205.0Q177.5 205.0 176.5 198.5L177.0 196.0Q177.0 192.0 178.5 189.0L179.0 188.0Q180.0 184.0 180.5 179.0Q181.0 174.0 181.0 170.0Q181.0 168.0 181.0 166.25Q181.0 164.5 180.5 163.5L180.0 161.5Q179.5 159.5 179.5 156.5Q179.5 151.0 185.5 151.0Q191.5 151.0 211.5 158.5Q222.0 162.0 238.25 164.75Q254.5 167.5 267.0 168.0L297.0 169.5L296.5 150.0Q296.0 130.0 291.25 122.0Q286.5 114.0 275.0 114.0Q270.0 114.0 254.0 116.75Q238.0 119.5 216.75 124.0Q195.5 128.5 174.0 134.0Q173.0 134.5 171.5 134.5Q170.0 134.5 169.0 134.5Q166.0 134.5 164.5 132.5Q163.0 130.5 163.0 124.5Q163.0 116.5 163.75 108.5Q164.5 100.5 165.5 93.0Q166.0 86.5 166.5 82.0Q167.0 77.5 168.5 76.5H169.5Q171.0 76.5 180.0 79.25Q189.0 82.0 200.0 86.0Q210.5 89.5 219.5 91.75Q228.5 94.0 241.0 95.0Q253.5 96.0 273.75 96.5Q294.0 97.0 326.5 97.0Q353.0 97.0 378.0 97.5Q403.0 98.0 421.0 98.75Q439.0 99.5 444.5 100.5L462.0 102.5Q457.0 83.5 451.25 65.75Q445.5 48.0 442.0 40.0L438.0 28.5Q433.0 17.5 433.0 15.0ZM328.0 199.0Q337.5 198.5 347.0 198.5Q356.5 198.5 366.0 198.5Q391.5 198.5 411.25 199.5Q431.0 200.5 433.0 202.5Q433.5 204.0 433.5 205.5Q433.5 210.5 428.0 221.5Q422.0 230.5 422.0 235.5Q422.0 240.0 432.5 241.0Q435.0 241.0 437.75 240.75Q440.5 240.5 443.0 240.0Q446.0 239.5 449.0 239.5Q452.0 239.5 454.5 239.5Q460.0 239.5 464.25 240.25Q468.5 241.0 469.5 243.0L470.0 245.0Q470.0 251.0 453.5 251.0Q439.0 251.0 432.0 252.5Q425.0 254.0 423.0 259.75Q421.0 265.5 420.5 277.5L420.0 302.0H415.0L411.0 277.0Q408.5 263.0 406.5 259.25Q404.5 255.5 397.5 255.5Q390.5 255.5 389.0 258.25Q387.5 261.0 387.5 276.0Q387.5 286.0 386.0 293.5Q384.5 301.0 381.0 301.0Q379.0 301.0 376.75 293.5Q374.5 286.0 374.5 276.0Q374.5 261.0 373.25 258.25Q372.0 255.5 364.5 255.5Q357.0 255.5 355.75 258.25Q354.5 261.0 354.5 276.0Q354.5 286.0 353.0 293.5Q351.5 301.0 348.0 301.0Q345.5 301.0 343.25 293.5Q341.0 286.0 341.0 276.0V255.5H313.0L316.0 279.5Q316.5 282.0 316.5 284.5Q316.5 287.0 316.5 289.0Q316.5 301.0 310.5 301.0Q307.0 301.0 305.25 294.0Q303.5 287.0 303.5 276.0V255.5H291.5Q285.5 255.5 269.5 258.0Q253.5 260.5 236.0 264.5Q234.0 265.0 231.5 265.5Q229.0 266.0 226.5 267.0Q223.5 267.5 220.5 268.0Q217.5 268.5 215.0 269.0Q189.0 275.0 181.0 275.0Q175.5 275.0 173.5 273.0Q171.5 271.0 171.5 266.0Q171.5 257.5 173.0 250.0Q174.0 239.5 175.25 231.0Q176.5 222.5 178.0 221.5H179.0Q180.5 221.5 188.25 223.5Q196.0 225.5 205.0 229.0Q224.5 234.5 246.5 238.0Q268.5 241.5 288.5 241.5Q299.5 241.5 299.5 238.0Q299.5 234.0 293.0 223.5Q290.5 218.0 288.5 213.0Q286.5 208.0 286.5 206.5Q286.5 204.0 299.0 201.75Q311.5 199.5 328.0 199.0Z" fill="black" /></svg>