<svg xmlns="http://www.w3.org/2000/svg" width="528.0" height="379.5" viewBox="0 0 528.0 379.5"><path d="M46.0 289.5Q43.0 288.5 42.0 288.5Q40.0 287.5 38.5 287.0Q37.0 286.5 35.5 286.0Q33.5 285.0 32.0 284.5Q30.5 284.0 29.5 283.5Q28.0 282.5 27.0 282.25Q26.0 282.0 25.0 281.5Q25.0 285.0 25.0 288.75Q25.0 292.5 25.5 296.5Q25.5 300.0 25.75 303.0Q26.0 306.0 26.5 308.5Q27.0 311.0 27.0 313.5Q27.0 316.0 27.0 319.0Q27.0 321.5 27.0 324.25Q27.0 327.0 26.5 331.0L36.5 329.0Q42.5 327.5 49.25 325.75Q56.0 324.0 61.0 322.5Q67.5 320.5 75.5 319.0Q83.5 317.5 96.5 315.25Q109.5 313.0 131.0 309.5Q108.5 307.0 88.0 302.25Q67.5 297.5 46.0 289.5ZM68.0 163.0H64.5Q55.0 163.0 47.0 162.0Q46.5 162.0 46.25 162.0Q46.0 162.0 45.5 162.0Q49.5 167.0 51.75 171.0Q54.0 175.0 56.0 180.5Q57.5 176.0 61.0 171.25Q64.5 166.5 68.0 163.0ZM146.0 118.5Q145.5 118.5 144.5 118.25Q143.5 118.0 142.5 118.0H137.0Q134.5 117.5 130.5 117.5H120.5Q117.0 117.5 116.25 117.0Q115.5 116.5 115.0 117.5Q116.0 118.5 116.75 120.0Q117.5 121.5 118.5 123.5L120.0 124.5L120.5 126.5Q122.0 130.0 124.0 134.25Q126.0 138.5 127.0 142.5L129.5 148.5Q132.0 142.5 136.5 133.5Q141.0 124.5 145.0 119.5Q146.0 118.5 146.0 118.5ZM200.0 192.0Q200.0 188.0 202.25 184.25Q204.5 180.5 207.5 177.0Q199.5 180.5 190.25 185.0Q181.0 189.5 180.5 189.5Q182.0 189.5 186.0 190.5L191.5 192.0Q196.0 193.5 198.0 193.5Q200.0 193.5 200.0 192.0ZM194.0 254.5 190.5 253.0Q183.0 250.0 180.0 250.0L179.5 249.5V254.0Q179.5 257.0 178.25 263.0Q177.0 269.0 175.5 273.5Q175.0 274.5 174.75 275.75Q174.5 277.0 174.0 278.0Q181.0 275.0 191.25 272.0Q201.5 269.0 212.0 266.5Q222.5 264.0 229.0 263.0Q218.0 261.0 208.75 258.75Q199.5 256.5 194.0 254.5ZM240.0 193.0V176.0Q240.0 172.0 240.0 168.25Q240.0 164.5 240.5 162.0Q237.5 165.0 232.25 171.0Q227.0 177.0 222.5 182.25Q218.0 187.5 217.0 189.0Q215.0 192.0 215.0 194.5Q215.0 195.5 217.5 195.5Q224.5 195.5 224.5 199.5Q224.5 201.5 221.0 203.5L219.5 204.5Q218.5 204.5 216.5 207.5Q216.5 207.5 217.75 208.5Q219.0 209.5 221.0 212.0Q223.5 213.5 228.0 217.5Q232.5 221.5 235.5 224.5L240.0 229.0V202.0L226.0 194.5ZM298.0 179.0Q294.5 181.0 291.25 182.75Q288.0 184.5 285.0 187.0L277.5 191.0L281.0 191.5Q284.0 192.5 287.0 193.0Q290.0 193.5 291.0 193.5Q291.0 193.0 291.5 192.25Q292.0 191.5 292.5 191.0L293.0 189.0Q294.5 185.0 298.0 179.0ZM345.5 256.0V202.0Q345.5 171.0 345.75 159.75Q346.0 148.5 346.5 148.5Q345.5 148.5 340.0 154.0Q334.5 159.5 327.5 167.0Q320.5 174.5 315.25 181.0Q310.0 187.5 309.0 189.5Q306.5 192.5 306.5 195.5H309.5Q315.5 195.5 316.0 199.5Q315.5 200.0 315.5 200.5Q315.0 201.0 315.0 201.5Q315.0 202.0 314.0 202.5L312.5 203.5Q309.5 205.5 308.5 206.5Q307.5 207.5 307.5 207.5L316.5 215.0Q324.5 221.5 332.5 229.25Q340.5 237.0 343.0 243.0L343.5 244.0Q343.5 244.5 343.75 245.25Q344.0 246.0 344.0 247.0Q344.0 249.0 340.5 252.0L338.5 253.0H337.5L336.5 253.5Q335.5 253.5 334.75 253.75Q334.0 254.0 333.0 254.0Q331.0 254.0 329.5 251.5Q328.5 247.5 322.5 240.75Q316.5 234.0 308.5 227.0Q300.5 220.0 293.5 215.0Q286.5 210.0 283.0 209.0Q277.5 209.0 275.0 206.5Q273.5 205.0 263.5 204.0L254.5 203.0V252.0L257.0 252.5Q275.0 254.5 293.25 255.25Q311.5 256.0 329.0 256.0ZM128.0 51.0Q126.5 50.0 125.0 49.5Q123.5 49.0 122.5 48.5Q122.5 49.0 122.75 50.0Q123.0 51.0 123.0 52.0Q124.0 55.0 124.0 62.5Q124.0 70.0 124.0 77.5Q124.0 82.5 124.0 86.5Q124.0 90.5 123.5 93.0Q126.0 92.0 129.0 90.5Q132.0 89.0 135.0 87.0Q158.5 74.5 185.0 69.0Q187.0 68.5 188.5 68.5Q190.0 68.5 191.0 68.0Q176.5 65.0 162.0 61.25Q147.5 57.5 133.0 52.5Q132.0 52.0 130.5 51.75Q129.0 51.5 128.0 51.0ZM249.5 106.5H249.0Q246.5 105.5 243.25 105.0Q240.0 104.5 237.5 104.5L245.5 114.0L246.0 113.0Q247.0 111.5 248.0 109.75Q249.0 108.0 249.5 106.5ZM443.0 80.5 428.5 79.0Q423.0 78.5 404.25 78.5Q385.5 78.5 361.5 78.5Q331.5 78.5 299.0 78.5Q266.5 78.5 244.5 79.5Q214.0 80.0 188.0 84.25Q162.0 88.5 135.0 103.0H147.0L172.0 102.5L172.5 110.0Q172.5 113.0 171.75 114.5Q171.0 116.0 167.0 118.5Q164.0 119.5 157.75 128.5Q151.5 137.5 148.0 144.0Q145.0 150.5 143.25 158.75Q141.5 167.0 140.75 184.0Q140.0 201.0 139.5 234.5L138.5 295.0H141.0Q142.5 295.5 144.75 295.75Q147.0 296.0 149.0 296.0Q151.5 296.0 154.25 290.0Q157.0 284.0 159.25 275.75Q161.5 267.5 163.0 260.0Q164.5 252.5 164.5 249.5Q164.5 244.5 162.0 242.5Q157.5 239.5 157.5 234.5Q157.5 229.0 163.5 224.5L171.0 217.5L176.0 229.0Q177.0 232.0 178.5 232.75Q180.0 233.5 182.5 234.5Q185.0 235.0 188.75 236.5Q192.5 238.0 196.0 239.0Q199.0 241.0 202.75 241.75Q206.5 242.5 209.5 243.5L211.5 244.0Q216.5 246.0 224.5 247.25Q232.5 248.5 237.5 249.0Q233.0 242.5 225.0 234.75Q217.0 227.0 208.5 220.0Q200.0 213.0 194.0 209.5Q193.5 209.0 190.5 209.0Q186.5 209.0 184.0 206.5Q183.5 205.5 178.5 204.75Q173.5 204.0 166.5 203.0Q161.5 203.0 156.5 202.75Q151.5 202.5 148.5 202.0Q147.5 201.5 145.0 201.5L144.0 198.5Q144.0 195.5 156.0 189.0Q159.5 187.5 169.0 182.25Q178.5 177.0 190.5 170.5Q202.5 164.0 213.75 157.25Q225.0 150.5 232.5 145.75Q240.0 141.0 240.0 139.5Q240.0 136.0 242.0 134.5Q241.0 133.5 239.75 132.25Q238.5 131.0 237.5 130.0Q236.0 125.5 229.5 118.5Q223.0 111.5 216.25 106.25Q209.5 101.0 205.5 101.0Q196.5 101.0 196.5 91.5Q196.5 86.5 197.5 85.75Q198.5 85.0 203.0 85.0Q205.0 85.0 208.0 85.5Q211.0 86.0 213.5 87.0Q219.5 88.0 236.0 89.75Q252.5 91.5 267.5 91.5Q274.0 91.5 279.25 91.75Q284.5 92.0 286.5 93.0Q289.0 94.0 289.0 97.0Q289.0 98.5 288.5 99.0V100.5Q287.0 107.0 280.0 107.0Q262.0 110.0 257.0 125.5Q257.0 126.5 256.5 127.0Q258.0 126.0 259.25 125.0Q260.5 124.0 261.5 124.0Q262.5 124.0 263.25 124.25Q264.0 124.5 264.5 124.5L265.5 125.0Q270.5 129.0 270.5 131.0Q270.5 133.5 264.25 140.0Q258.0 146.5 254.5 149.0V168.5Q254.5 174.0 254.5 179.0Q254.5 184.0 254.0 187.0Q258.0 185.5 270.25 178.5Q282.5 171.5 297.25 162.5Q312.0 153.5 324.25 145.5Q336.5 137.5 341.0 134.0L344.5 130.5L340.5 125.5Q337.0 117.5 329.25 110.25Q321.5 103.0 313.0 101.0Q308.5 99.0 307.75 97.75Q307.0 96.5 307.0 92.0Q307.0 86.5 308.0 85.75Q309.0 85.0 314.0 85.0Q315.5 85.0 318.25 85.5Q321.0 86.0 323.0 87.0Q328.0 88.0 342.5 89.75Q357.0 91.5 370.5 91.5H389.5V99.0Q389.5 104.0 388.0 105.5Q386.5 107.0 381.0 107.0Q372.0 109.0 368.0 113.5Q364.0 118.0 362.0 128.0Q361.5 130.5 361.25 150.5Q361.0 170.5 361.0 195.5L360.0 254.5L407.5 253.0V268.0L387.0 268.5Q380.5 269.0 373.75 269.0Q367.0 269.0 361.5 269.5Q356.0 270.0 350.0 270.25Q344.0 270.5 337.0 270.5Q330.5 271.0 323.75 271.25Q317.0 271.5 308.5 272.0Q265.0 273.0 230.5 278.25Q196.0 283.5 178.5 292.0Q175.0 293.0 172.25 294.75Q169.5 296.5 168.0 297.5Q175.0 297.5 196.25 297.75Q217.5 298.0 248.75 298.0Q280.0 298.0 316.5 298.5L466.5 299.5L466.0 233.5Q466.0 215.5 465.5 199.25Q465.0 183.0 464.75 172.0Q464.5 161.0 464.0 159.0Q463.5 157.5 463.25 155.5Q463.0 153.5 462.5 151.5Q461.5 147.5 461.5 146.0Q461.5 145.0 461.25 144.25Q461.0 143.5 461.0 143.0Q460.0 137.5 456.0 124.5Q455.5 120.5 453.5 115.0Q452.5 111.5 451.25 107.5Q450.0 103.5 449.0 100.0Q447.5 94.5 446.0 91.0ZM355.0 106.0H353.0Q348.5 104.5 344.5 104.5L349.0 110.5Q350.0 111.5 350.5 112.0Q351.0 112.5 351.0 112.5Q352.5 110.0 355.0 106.5ZM499.5 31.0H476.5Q465.0 31.0 454.0 30.5Q443.0 30.0 439.5 29.5L436.5 29.0L437.5 32.0Q439.0 34.0 442.0 40.5Q445.0 47.0 447.5 53.0Q451.0 58.5 454.0 66.5Q457.0 74.5 458.0 80.0Q460.0 86.5 462.75 94.5Q465.5 102.5 467.5 109.0Q468.5 102.0 470.25 94.0Q472.0 86.0 473.5 80.5Q477.5 70.0 482.5 59.25Q487.5 48.5 494.5 37.5Q497.5 33.0 498.5 32.0Q499.5 31.0 499.5 31.0ZM414.0 17.0V15.0Q416.0 10.0 420.0 10.0H422.0Q429.5 12.5 435.25 14.0Q441.0 15.5 450.5 15.75Q460.0 16.0 478.5 16.0H518.0V23.5Q518.0 29.0 510.5 42.0L509.5 44.5Q497.0 61.5 490.5 79.0Q484.0 96.5 481.5 115.5Q481.0 120.5 480.75 137.25Q480.5 154.0 480.25 176.0Q480.0 198.0 480.0 220.0Q480.0 238.5 480.0 254.25Q480.0 270.0 480.5 280.0L481.5 299.0H510.5V305.5Q510.5 311.5 507.0 312.75Q503.5 314.0 489.5 314.0H481.0L482.5 369.5H468.5L467.0 339.5Q467.0 337.0 467.0 335.25Q467.0 333.5 466.5 331.5V324.5Q466.5 321.0 466.5 318.75Q466.5 316.5 467.0 314.5Q461.5 314.5 443.25 314.25Q425.0 314.0 398.5 314.0Q372.0 314.0 340.5 314.0Q290.5 314.0 260.25 314.0Q230.0 314.0 212.5 314.5Q195.0 315.0 184.25 316.25Q173.5 317.5 162.5 319.5Q159.0 320.0 154.0 320.75Q149.0 321.5 143.5 322.5Q139.0 323.0 134.75 323.75Q130.5 324.5 126.5 325.5Q100.5 329.0 89.5 331.25Q78.5 333.5 70.5 336.0Q64.0 338.5 55.75 340.5Q47.5 342.5 40.5 344.0Q32.5 345.5 26.25 346.75Q20.0 348.0 18.5 348.5V349.0Q16.5 350.5 13.5 350.5Q10.0 350.5 10.0 347.5Q10.0 345.0 10.25 342.75Q10.5 340.5 11.0 338.0L11.5 336.5Q12.0 335.5 12.0 334.75Q12.0 334.0 12.5 333.5V305.0Q12.5 283.5 12.75 274.25Q13.0 265.0 14.0 263.0Q15.0 261.0 17.5 261.0Q19.0 261.0 21.0 262.0L23.0 263.0Q24.0 264.5 29.5 267.25Q35.0 270.0 43.0 273.0L50.5 276.0L51.0 244.5Q51.0 240.5 51.0 237.0Q51.0 233.5 51.5 231.0Q51.5 208.0 45.5 193.5Q39.5 179.0 26.5 160.5Q23.0 157.0 23.0 150.5L25.0 145.5L37.0 146.5H48.5Q53.5 147.0 59.0 147.0Q64.5 147.0 70.0 147.0H94.5V154.0Q94.5 160.5 89.5 162.0Q86.5 163.0 80.25 171.0Q74.0 179.0 72.0 184.0Q68.5 190.5 67.0 205.5Q65.5 220.5 65.5 253.0V281.0L73.5 283.5Q79.0 285.0 88.0 287.25Q97.0 289.5 105.75 291.0Q114.5 292.5 119.5 293.0L124.0 293.5V242.0Q124.0 235.0 124.0 228.75Q124.0 222.5 124.5 217.5V203.5Q124.5 193.5 124.25 188.0Q124.0 182.5 123.5 180.5Q121.5 171.0 116.5 157.5Q111.5 144.0 105.75 131.75Q100.0 119.5 95.5 113.5Q93.5 111.0 93.5 108.5Q93.5 107.0 94.0 106.5V105.0Q96.5 99.0 100.0 99.0H101.5Q105.5 101.0 107.0 101.0H108.0L109.0 89.5Q109.5 85.5 109.5 81.5Q109.5 77.5 109.5 74.0Q109.5 56.5 106.0 44.5Q105.5 41.5 104.75 38.25Q104.0 35.0 104.0 34.0V32.5Q106.5 28.5 112.0 28.5Q116.0 28.5 119.5 31.5Q120.5 32.0 124.75 33.5Q129.0 35.0 133.0 36.5L135.0 37.0Q139.5 38.5 144.5 40.25Q149.5 42.0 152.0 43.0Q154.5 45.0 160.25 46.5Q166.0 48.0 172.0 49.5L176.0 50.5Q180.0 51.0 185.5 52.5Q191.0 54.0 196.0 55.0Q199.0 55.5 202.25 56.25Q205.5 57.0 208.0 57.5Q212.5 57.5 217.0 59.0L220.0 59.5Q224.0 60.5 227.25 61.25Q230.5 62.0 232.5 62.5Q237.5 63.0 255.5 63.25Q273.5 63.5 298.75 63.75Q324.0 64.0 350.0 64.0H436.5Q436.0 63.0 435.0 61.5Q434.0 60.0 432.5 58.5Q431.5 56.5 431.0 55.0Q429.5 51.5 427.75 47.5Q426.0 43.5 425.0 40.0Q423.0 36.5 421.25 32.5Q419.5 28.5 418.0 26.5Q413.5 22.0 413.5 18.5Q413.5 17.5 414.0 17.0Z" fill="black" /></svg>