<svg xmlns="http://www.w3.org/2000/svg" width="516.5" height="220.0" viewBox="0 0 516.5 220.0"><path d="M36.5 174.5Q37.5 173.5 38.5 172.75Q39.5 172.0 41.0 171.5Q43.5 169.5 46.25 167.5Q49.0 165.5 50.0 165.0Q55.5 161.5 60.75 157.5Q66.0 153.5 71.0 149.5Q77.0 145.5 82.75 142.25Q88.5 139.0 95.0 135.5L164.5 101.5Q132.5 89.0 102.0 73.25Q71.5 57.5 42.0 40.5Q42.0 57.5 43.0 74.25Q44.0 91.0 44.0 107.5Q44.0 118.5 43.0 129.75Q42.0 141.0 40.5 152.5Q40.0 156.0 39.25 159.25Q38.5 162.5 38.0 165.5Q37.5 170.5 36.5 174.5ZM11.5 207.5Q10.0 205.5 10.0 202.0Q10.0 197.5 11.5 193.0Q12.0 191.0 12.75 188.75Q13.5 186.5 14.0 184.5Q16.5 174.5 18.0 161.75Q19.5 149.0 20.0 136.5Q20.5 123.5 20.5 110.75Q20.5 98.0 20.5 88.0Q20.5 74.0 20.0 60.75Q19.5 47.5 19.5 34.5Q19.5 32.0 19.5 28.0Q19.5 24.0 20.0 20.0Q21.0 15.5 22.5 13.0Q24.0 12.0 25.75 11.0Q27.5 10.0 29.5 10.0Q33.5 10.0 41.0 13.5Q48.5 17.0 58.0 22.5Q66.5 27.5 77.75 34.5Q89.0 41.5 101.5 48.5Q126.5 63.5 152.75 75.75Q179.0 88.0 199.0 88.0Q230.0 88.5 261.0 88.75Q292.0 89.0 322.5 89.0Q357.5 89.5 392.5 90.0Q427.5 90.5 462.5 91.5Q465.0 92.0 472.0 92.0Q479.0 92.0 487.0 93.0Q489.0 93.0 493.75 94.0Q498.5 95.0 502.5 96.75Q506.5 98.5 506.5 101.5Q506.5 104.5 503.5 104.5Q501.0 107.0 491.75 108.0Q482.5 109.0 473.0 109.5Q463.0 110.0 453.5 110.0Q444.0 110.0 440.0 110.0Q386.5 110.0 332.5 109.75Q278.5 109.5 225.5 109.5Q205.0 109.5 178.25 118.75Q151.5 128.0 124.5 142.0Q97.5 156.0 74.25 171.25Q51.0 186.5 37.0 199.0Q36.5 200.0 35.25 200.75Q34.0 201.5 33.0 202.0Q32.5 203.0 31.25 203.75Q30.0 204.5 29.0 205.5Q27.0 207.0 23.75 208.5Q20.5 210.0 17.5 210.0Q12.5 210.0 11.5 207.5Z" fill="black" /></svg>