<svg xmlns="http://www.w3.org/2000/svg" width="431.0" height="186.0" viewBox="0 0 431.0 186.0"><path d="M33.0 139.0 31.5 146.5Q32.5 145.5 33.5 144.75Q34.5 144.0 35.5 143.5L43.0 138.5Q51.5 132.5 60.5 125.5Q65.5 122.5 70.25 119.5Q75.0 116.5 80.5 114.0L137.5 86.0Q111.0 75.5 85.75 62.5Q60.5 49.5 36.5 35.5Q36.5 49.5 37.25 63.25Q38.0 77.0 38.0 90.5Q38.0 109.0 35.0 128.0Q34.5 131.0 34.0 133.75Q33.5 136.5 33.0 139.0ZM11.0 173.5Q10.0 172.0 10.0 169.0Q10.0 167.0 10.25 165.25Q10.5 163.5 11.0 161.5Q11.5 160.0 12.0 158.25Q12.5 156.5 13.0 154.5Q15.5 146.0 16.5 135.75Q17.5 125.5 18.0 115.0Q18.5 104.0 18.5 93.5Q18.5 83.0 18.5 74.5Q18.5 63.0 18.0 52.0Q17.5 41.0 17.5 30.0Q17.5 28.5 17.5 25.25Q17.5 22.0 18.0 18.5Q18.5 17.0 19.0 15.5Q19.5 14.0 20.5 12.5Q21.5 11.5 22.75 10.75Q24.0 10.0 26.0 10.0Q29.5 10.0 35.5 12.75Q41.5 15.5 49.5 20.0Q56.5 24.5 66.0 30.25Q75.5 36.0 85.5 42.0Q106.5 54.5 128.0 64.5Q149.5 74.5 166.5 74.5Q192.0 75.0 217.5 75.25Q243.0 75.5 268.5 75.5Q298.0 76.0 326.75 76.25Q355.5 76.5 384.5 77.5Q387.0 78.0 392.5 78.0Q398.0 78.0 404.5 79.0Q407.5 79.5 410.5 79.75Q413.5 80.0 415.5 81.0Q417.5 81.5 419.25 82.75Q421.0 84.0 421.0 86.0Q421.0 86.0 421.0 86.25Q421.0 86.5 420.5 87.5Q419.5 88.5 418.5 88.5Q416.5 90.5 409.0 91.25Q401.5 92.0 393.5 92.5Q385.0 93.0 377.0 93.0Q369.0 93.0 366.0 93.0Q322.0 93.0 277.25 92.75Q232.5 92.5 188.0 92.5Q171.0 92.5 149.25 100.0Q127.5 107.5 104.75 119.25Q82.0 131.0 62.75 143.75Q43.5 156.5 32.0 166.5Q30.0 168.5 29.0 169.0Q28.5 169.5 27.5 170.25Q26.5 171.0 25.5 172.0Q24.0 173.0 21.25 174.5Q18.5 176.0 16.0 176.0Q12.0 176.0 11.0 173.5Z" fill="black" /></svg>