<svg xmlns="http://www.w3.org/2000/svg" width="406.0" height="371.5" viewBox="0 0 406.0 371.5"><path d="M140.0 115.0Q137.5 110.5 134.25 105.75Q131.0 101.0 127.5 96.0Q122.0 87.5 116.5 79.0Q111.0 70.5 107.5 65.0L97.0 44.5L75.0 59.5Q56.5 71.5 56.5 72.5Q56.5 72.5 57.25 72.75Q58.0 73.0 60.0 74.0Q65.0 75.0 80.0 84.25Q95.0 93.5 109.5 103.5L118.0 109.5Q131.0 118.0 139.0 123.5Q147.0 129.0 150.5 131.0Q149.5 128.5 146.75 124.25Q144.0 120.0 140.0 115.0ZM185.5 147.0Q189.0 151.0 193.0 154.5Q197.0 158.0 201.0 161.5Q202.5 163.5 204.5 165.25Q206.5 167.0 208.5 168.5L272.5 232.5Q308.5 264.5 336.5 291.0Q364.5 317.5 380.25 335.25Q396.0 353.0 396.0 358.0Q396.0 360.0 393.5 361.5H392.5Q389.0 361.5 371.75 347.5Q354.5 333.5 332.5 312.0Q318.0 297.5 298.25 279.75Q278.5 262.0 259.25 244.75Q240.0 227.5 225.5 215.0L173.0 169.5L121.5 133.5Q89.5 110.5 63.0 96.5Q36.5 82.5 25.0 82.5Q19.0 82.5 14.5 80.0Q10.0 77.5 10.0 74.0Q10.0 70.0 13.25 67.75Q16.5 65.5 20.5 65.5Q26.0 65.5 39.0 59.25Q52.0 53.0 66.0 44.25Q80.0 35.5 88.0 27.5L106.0 10.0L117.5 38.5Q122.0 49.5 129.75 64.0Q137.5 78.5 144.5 90.0L164.0 119.0Q169.0 126.0 174.25 133.5Q179.5 141.0 185.5 147.0Z" fill="black" /></svg>