<svg xmlns="http://www.w3.org/2000/svg" width="635.0" height="462.5" viewBox="0 0 635.0 462.5"><path d="M73.5 349.0V341.5Q73.0 328.0 70.75 325.0Q68.5 322.0 60.5 320.5Q57.0 319.5 54.0 319.25Q51.0 319.0 49.5 318.5Q49.0 323.5 49.0 330.25Q49.0 337.0 48.5 344.0V357.0Q48.5 371.5 52.0 371.5Q56.5 371.5 64.5 365.5Q70.0 363.5 71.75 360.75Q73.5 358.0 74.0 352.5Q74.0 350.5 73.5 349.0ZM122.0 335.5Q103.5 330.5 94.5 330.5Q91.0 330.5 90.25 333.5Q89.5 336.5 89.5 343.5Q89.5 356.0 91.0 357.5L92.5 357.0Q95.0 356.0 104.25 353.5Q113.5 351.0 124.5 349.0Q141.0 346.5 146.5 342.0Q144.0 340.5 137.25 338.5Q130.5 336.5 122.0 335.5ZM101.0 162.0Q101.0 160.5 96.0 159.75Q91.0 159.0 79.5 159.0Q72.0 159.0 66.75 159.0Q61.5 159.0 59.0 158.5Q60.0 160.5 61.75 167.0Q63.5 173.5 67.0 182.0Q71.0 190.5 73.5 199.75Q76.0 209.0 76.0 218.0Q79.5 214.5 85.0 196.0Q88.5 185.5 92.25 177.5Q96.0 169.5 98.0 168.0Q101.0 166.0 101.0 162.0ZM127.0 190.0Q123.5 181.0 120.0 173.75Q116.5 166.5 115.0 166.5Q114.5 166.5 111.25 173.75Q108.0 181.0 103.0 190.5Q93.5 214.0 91.75 239.25Q90.0 264.5 90.0 290.0Q90.0 303.5 93.0 309.5Q96.0 315.5 104.0 317.75Q112.0 320.0 127.0 321.5L149.0 324.0L149.5 306.5Q149.5 283.0 148.0 265.25Q146.5 247.5 141.75 230.0Q137.0 212.5 127.0 190.0ZM174.0 176.0Q170.0 175.0 161.0 174.25Q152.0 173.5 145.0 173.5H139.0Q140.5 181.5 148.5 201.5L155.5 218.5L157.5 214.0Q159.0 208.0 162.75 199.75Q166.5 191.5 168.5 186.5Q171.0 184.0 172.25 181.0Q173.5 178.0 174.0 176.0ZM445.0 127.5Q441.5 125.0 418.75 124.0Q396.0 123.0 362.5 123.0Q334.5 123.0 302.5 123.75Q270.5 124.5 238.75 125.5Q207.0 126.5 179.0 128.25Q151.0 130.0 130.75 132.0Q110.5 134.0 102.0 136.5Q79.0 142.5 79.0 143.5H96.5Q111.5 143.5 117.5 145.75Q123.5 148.0 123.5 152.5Q123.5 156.5 136.75 159.0Q150.0 161.5 172.0 161.5Q185.5 161.5 192.0 163.0Q198.5 164.5 198.5 169.5Q198.5 173.0 191.5 179.0Q182.5 186.0 177.0 202.75Q171.5 219.5 168.5 240.0Q165.5 260.5 164.5 280.0Q163.5 299.5 163.5 312.0Q163.5 320.5 165.0 323.25Q166.5 326.0 169.5 327.5Q175.0 330.5 189.5 332.5Q204.0 334.5 223.25 336.0Q242.5 337.5 262.25 338.25Q282.0 339.0 298.25 339.25Q314.5 339.5 322.5 339.5L370.0 338.5L373.0 285.0H359.0Q348.0 285.0 322.5 292.0Q297.0 299.0 262.0 310.5H262.5Q261.0 311.0 258.5 311.0Q253.0 311.0 251.5 304.5Q250.0 298.0 250.0 278.5Q250.0 264.0 251.25 254.0Q252.5 244.0 255.5 244.0Q255.5 244.0 263.75 248.25Q272.0 252.5 282.5 258.0Q293.0 263.0 300.5 266.0Q308.0 269.0 317.0 270.0Q326.0 271.0 339.5 271.0H368.5L366.5 259.5Q365.0 254.0 361.5 245.75Q358.0 237.5 355.0 232.0Q352.5 228.0 350.25 223.75Q348.0 219.5 348.0 217.5Q348.0 213.5 352.0 213.5Q354.0 213.5 355.0 212.5Q358.0 212.5 366.75 212.75Q375.5 213.0 385.75 213.75Q396.0 214.5 404.0 215.5Q412.0 216.5 413.5 217.5V219.0Q413.5 221.5 411.25 225.25Q409.0 229.0 405.0 233.0Q399.0 240.0 394.0 250.75Q389.0 261.5 389.0 267.5Q389.0 268.0 389.5 268.25Q390.0 268.5 390.0 268.5Q391.0 270.0 401.0 270.5Q411.0 271.0 423.5 271.0Q435.0 271.0 446.5 270.75Q458.0 270.5 465.5 270.25Q473.0 270.0 473.0 270.0Q473.0 267.0 468.25 255.75Q463.5 244.5 457.5 231.75Q451.5 219.0 447.5 212.5Q444.0 207.5 439.75 205.5Q435.5 203.5 425.0 202.75Q414.5 202.0 392.0 202.0Q372.0 202.0 355.75 203.75Q339.5 205.5 324.0 209.0Q308.5 212.5 290.0 219.0Q285.0 220.5 281.0 221.75Q277.0 223.0 273.5 224.0Q271.5 224.5 269.75 225.0Q268.0 225.5 267.0 226.0H266.0Q262.5 226.0 260.75 214.25Q259.0 202.5 259.0 190.0Q259.0 179.5 259.75 171.5Q260.5 163.5 262.5 162.0H263.5Q268.0 162.0 282.0 168.5Q283.0 169.5 285.5 170.25Q288.0 171.0 290.0 172.0Q298.0 176.5 304.25 179.0Q310.5 181.5 320.25 182.75Q330.0 184.0 347.25 184.75Q364.5 185.5 394.5 186.0L473.0 187.5V176.5Q473.0 169.5 468.5 159.5Q464.0 149.5 457.5 140.25Q451.0 131.0 445.0 127.5ZM285.0 276.0Q276.0 273.5 269.5 270.5Q264.5 268.5 263.5 268.5Q264.0 270.0 264.5 273.0Q265.0 276.0 265.0 280.0Q265.0 291.5 267.5 291.5Q272.0 291.5 280.5 288.25Q289.0 285.0 292.5 283.5L298.0 281.5Q296.0 280.5 292.75 279.25Q289.5 278.0 285.0 276.0ZM389.0 338.5H471.5L473.5 285.0H432.5Q413.5 285.0 403.75 285.75Q394.0 286.5 390.75 290.0Q387.5 293.5 387.5 302.0Q387.5 305.5 387.5 309.25Q387.5 313.0 388.0 318.5ZM84.0 101.0Q80.0 100.0 76.25 99.0Q72.5 98.0 69.0 97.5Q63.5 96.5 59.0 95.5Q54.5 94.5 50.0 93.0Q39.5 90.0 37.0 90.0Q36.0 89.5 34.0 89.5Q33.0 89.5 32.5 95.0Q32.0 100.5 32.0 116.0V143.0L41.0 141.5Q46.5 140.0 53.25 137.0Q60.0 134.0 65.0 132.0Q71.0 130.0 86.0 126.0Q101.0 122.0 116.0 119.5Q134.5 116.5 146.5 113.0Q144.5 113.0 140.5 112.0Q132.5 111.0 115.5 107.75Q98.5 104.5 84.0 101.0ZM307.0 196.5 298.0 192.5Q290.0 188.5 284.5 186.5Q279.0 184.5 276.5 184.5Q273.5 184.5 273.5 196.5Q273.5 203.0 273.75 205.25Q274.0 207.5 274.5 207.5Q275.5 207.5 276.5 207.0Q279.5 206.0 286.5 203.75Q293.5 201.5 300.0 199.5ZM375.5 240.0 379.0 246.5 388.0 228.0H379.5Q371.0 228.0 371.0 229.5Q371.0 231.0 372.25 233.75Q373.5 236.5 375.5 240.0ZM491.0 123.0H478.0Q467.0 123.0 467.0 127.0Q467.0 130.5 472.5 138.5Q474.5 141.0 475.5 142.25Q476.5 143.5 476.5 143.5Q477.0 143.5 480.5 139.0Q484.0 134.5 487.5 129.5Q491.0 124.5 491.0 123.0ZM500.0 203.0Q500.0 202.5 492.5 202.25Q485.0 202.0 476.5 202.0Q471.5 202.0 466.75 202.25Q462.0 202.5 460.5 203.5Q461.0 205.5 463.5 211.25Q466.0 217.0 469.5 222.5L477.5 237.5L483.0 226.5Q487.0 220.0 490.5 214.0Q494.0 208.0 496.0 207.0Q500.0 206.0 500.0 203.0ZM552.0 145.0Q548.5 132.0 545.5 128.5Q542.5 125.0 535.5 123.5H533.5Q526.5 123.5 518.0 127.5Q509.5 131.5 502.25 137.75Q495.0 144.0 492.0 150.5Q490.5 154.0 489.75 159.75Q489.0 165.5 488.5 171.0L489.0 172.5V176.0Q489.5 183.0 491.0 185.25Q492.5 187.5 496.0 188.5Q499.0 188.5 500.0 187.5H513.0Q527.0 187.5 527.0 192.5Q527.0 194.5 522.25 201.5Q517.5 208.5 510.0 216.5Q497.5 229.5 493.0 243.0Q488.5 256.5 488.5 283.0Q488.5 288.0 488.5 294.0Q488.5 300.0 489.0 307.0L490.0 338.5H555.0L556.0 254.5V232.0Q556.0 198.0 554.75 176.75Q553.5 155.5 552.0 145.0ZM596.0 34.5Q591.5 34.0 580.5 33.75Q569.5 33.5 557.5 33.0Q545.5 32.5 537.0 32.5Q534.0 32.5 532.5 32.0Q533.5 35.0 536.5 42.25Q539.5 49.5 543.0 58.5Q547.0 69.5 550.75 83.25Q554.5 97.0 556.0 105.5Q559.0 122.5 560.5 122.5Q562.5 122.5 565.5 105.5Q566.5 102.5 570.0 92.75Q573.5 83.0 578.25 71.0Q583.0 59.0 587.75 48.75Q592.5 38.5 596.0 34.5ZM513.0 15.0Q513.0 10.0 518.0 10.0Q521.0 10.0 527.5 13.0Q531.5 15.0 545.5 16.5Q559.5 18.0 579.0 18.0Q598.0 18.0 611.5 19.0Q625.0 20.0 625.0 23.0Q625.0 24.0 623.25 26.0Q621.5 28.0 619.5 31.0L612.5 41.5Q599.0 55.5 589.75 80.0Q580.5 104.5 576.5 131.0Q575.5 141.5 574.25 166.25Q573.0 191.0 572.5 223.5Q572.0 256.0 572.0 289.0Q572.0 351.0 569.75 384.0Q567.5 417.0 564.5 417.0Q560.5 417.0 558.5 407.5Q556.5 398.0 556.5 383.0V355.0H488.0V370.0Q488.0 378.0 485.75 384.0Q483.5 390.0 480.5 390.0Q477.5 390.0 475.25 384.0Q473.0 378.0 473.0 370.0Q473.0 360.0 471.25 357.25Q469.5 354.5 461.5 353.0Q458.0 352.5 450.0 352.0Q442.0 351.5 432.5 351.5Q429.0 351.5 425.25 351.5Q421.5 351.5 417.5 352.0L389.0 353.0L388.0 364.0Q386.5 381.0 379.5 381.0Q373.0 381.0 371.5 364.0L370.0 353.0L270.5 355.0Q242.5 355.0 218.75 355.75Q195.0 356.5 180.5 357.25Q166.0 358.0 165.0 359.0Q164.5 359.0 164.0 367.0Q163.5 375.0 163.5 385.0Q163.5 415.0 157.0 415.0H155.0Q153.0 413.5 151.0 403.75Q149.0 394.0 149.0 382.0V359.5L136.5 361.5Q129.0 362.5 119.25 365.0Q109.5 367.5 103.0 369.0L89.5 373.0V409.5Q89.5 428.0 87.25 440.25Q85.0 452.5 82.0 452.5Q78.5 452.5 76.5 441.5Q74.5 430.5 74.5 414.0Q74.5 400.5 74.0 390.5Q73.5 380.5 73.0 380.0Q70.5 380.0 65.5 381.5Q60.5 383.0 56.5 386.5Q47.0 389.5 43.0 392.0Q39.5 393.0 37.25 394.0Q35.0 395.0 32.0 395.0Q32.0 395.0 31.5 393.0Q31.0 391.0 31.0 389.5Q31.0 386.5 31.25 381.5Q31.5 376.5 32.0 370.0L32.5 362.5Q33.0 357.0 33.25 351.75Q33.5 346.5 33.5 341.5Q33.5 328.5 31.0 320.0Q28.5 311.5 28.5 305.5Q28.5 299.5 33.5 299.5Q37.0 299.5 42.5 300.5Q48.0 301.5 54.0 304.0Q59.5 306.0 64.75 307.0Q70.0 308.0 72.5 308.0Q73.5 307.0 74.0 302.75Q74.5 298.5 74.5 292.5Q74.5 280.0 72.0 262.0Q69.5 244.0 65.5 227.5Q56.5 192.0 50.25 176.5Q44.0 161.0 40.0 160.0H39.0Q28.5 163.0 22.0 163.0Q16.5 163.0 16.5 158.5V155.0Q17.5 151.0 18.0 143.5Q18.5 136.0 18.5 128.0Q18.5 114.0 17.25 101.25Q16.0 88.5 14.0 86.5Q10.0 79.5 10.0 78.0Q10.0 71.5 19.5 71.5Q24.5 71.5 34.0 73.5Q43.5 75.5 58.5 79.5Q103.0 92.0 142.25 98.5Q181.5 105.0 221.5 107.25Q261.5 109.5 308.0 109.5H375.5L541.0 109.0L540.0 100.0Q539.5 96.0 535.25 83.0Q531.0 70.0 525.5 57.0Q520.5 42.5 516.75 30.0Q513.0 17.5 513.0 15.0ZM167.0 341.5 166.5 340.5V341.5Z" fill="black" /></svg>