<svg xmlns="http://www.w3.org/2000/svg" width="624.5" height="382.5" viewBox="0 0 624.5 382.5"><path d="M131.5 278.5Q131.5 278.0 129.75 278.0Q128.0 278.0 126.5 278.0Q123.5 278.0 122.75 283.25Q122.0 288.5 122.0 304.0V327.0L138.5 316.5Q147.0 312.0 153.25 307.5Q159.5 303.0 159.5 302.5Q159.5 299.5 146.0 293.0Q140.0 289.0 135.75 285.0Q131.5 281.0 131.5 278.5ZM92.5 179.5 73.5 171.5H73.0Q61.5 167.0 51.25 161.0Q41.0 155.0 36.5 151.5Q33.0 148.0 32.0 147.5V160.5Q32.0 168.5 31.0 178.75Q30.0 189.0 29.0 195.0L27.5 205.5L40.0 198.0Q47.5 194.0 59.5 189.5Q71.5 185.0 79.5 183.0ZM207.0 181.0Q207.0 180.0 202.25 179.5Q197.5 179.0 190.5 179.0Q176.5 179.0 173.75 184.5Q171.0 190.0 171.0 202.5Q171.0 213.5 173.5 222.5L175.5 232.0L189.5 211.0Q196.5 200.0 201.75 191.5Q207.0 183.0 207.0 181.0ZM244.0 252.0Q244.0 245.0 242.75 242.75Q241.5 240.5 233.5 240.5Q232.5 240.5 231.0 240.5Q229.5 240.5 228.0 241.0H220.5Q201.0 241.0 191.0 243.25Q181.0 245.5 177.5 252.0Q174.0 258.5 174.0 271.5Q174.0 285.5 176.25 289.25Q178.5 293.0 188.0 296.5Q200.0 300.5 209.5 300.5Q213.5 300.5 215.0 300.0Q220.5 299.5 222.25 296.5Q224.0 293.5 224.0 282.5Q224.0 267.5 225.0 261.25Q226.0 255.0 229.5 255.0Q232.0 255.0 235.0 259.0Q239.5 263.5 242.0 263.5Q244.0 263.5 244.0 252.0ZM237.5 226.0 228.5 218.5Q216.5 208.0 212.0 208.0Q208.0 208.0 203.5 218.0Q200.5 222.5 200.5 224.5Q200.5 225.5 205.0 225.75Q209.5 226.0 220.5 226.0ZM253.5 282.5Q248.5 280.0 244.5 279.0Q240.5 278.0 240.0 278.0Q239.5 278.0 238.75 284.0Q238.0 290.0 237.25 298.75Q236.5 307.5 236.0 315.5Q235.5 323.5 235.5 328.0Q238.5 327.0 247.25 324.25Q256.0 321.5 266.5 317.5Q278.5 313.0 292.0 308.75Q305.5 304.5 310.5 303.0Q311.5 302.5 312.25 302.5Q313.0 302.5 313.5 302.0Q312.0 301.5 310.25 301.0Q308.5 300.5 306.5 300.0L296.5 297.0Q285.0 293.5 272.25 289.25Q259.5 285.0 253.5 282.5ZM244.0 194.5Q244.0 185.0 243.0 182.0Q242.0 179.0 238.5 179.0Q233.5 179.0 227.5 183.0Q221.5 187.0 221.5 191.5Q221.5 193.5 225.5 198.0Q229.5 202.5 234.75 206.5Q240.0 210.5 243.0 211.5Q244.0 208.5 244.0 194.5ZM312.0 209.5 297.5 179.0H259.0V220.5L289.0 233.0Q302.0 239.5 311.0 245.0Q320.0 250.5 320.0 253.5Q320.0 259.0 313.5 259.0Q308.0 259.0 290.0 252.0Q274.5 245.0 267.0 245.0Q259.0 245.0 259.0 256.5Q259.0 264.5 262.5 267.75Q266.0 271.0 277.5 275.0Q285.5 277.5 297.0 281.0Q308.5 284.5 316.0 286.5L330.5 290.0L328.5 267.5Q328.0 255.5 323.5 239.5Q319.0 223.5 312.0 209.5ZM343.0 196.0 352.0 179.0H334.0Q327.5 179.0 322.75 179.0Q318.0 179.0 317.0 179.5Q318.0 182.5 319.5 185.75Q321.0 189.0 322.5 192.5L325.5 200.0Q328.0 206.5 330.0 211.25Q332.0 216.0 332.5 216.0Q332.5 216.0 335.75 210.0Q339.0 204.0 343.0 196.0ZM183.0 52.5Q183.0 52.0 176.75 51.5Q170.5 51.0 162.0 51.0Q150.0 51.0 145.75 51.5Q141.5 52.0 141.5 53.5Q141.5 54.5 142.0 56.0Q142.5 56.5 143.5 60.5Q144.5 62.0 145.25 64.5Q146.0 67.0 146.5 69.5Q148.5 73.5 150.25 79.25Q152.0 85.0 154.0 90.5L160.5 107.5L164.0 95.0Q166.5 86.5 170.0 77.0Q173.5 67.5 177.0 63.0L179.0 60.0Q180.5 57.5 181.75 55.25Q183.0 53.0 183.0 52.5ZM234.0 119.5V119.0Q233.0 109.5 229.5 109.5Q228.5 109.5 226.25 111.75Q224.0 114.0 222.0 116.5Q220.0 120.0 218.5 122.5Q217.0 125.0 217.0 126.0Q217.0 127.0 226.0 127.0Q234.5 127.0 234.5 123.0Q234.5 121.0 234.0 119.5ZM261.5 69.0 270.5 51.0H249.5Q237.5 51.0 233.0 51.5Q228.5 52.0 228.5 54.0Q228.5 56.0 230.25 59.5Q232.0 63.0 233.5 64.5Q236.0 63.5 239.5 59.5Q244.0 55.0 247.5 55.0Q252.0 55.0 252.0 61.0Q252.0 66.0 248.5 75.5Q247.5 79.0 246.5 83.25Q245.5 87.5 245.5 91.0Q245.5 95.5 247.0 97.0Q247.5 97.5 247.5 98.25Q247.5 99.0 248.0 99.5V99.0L249.0 97.0Q249.5 96.0 250.5 94.25Q251.5 92.5 252.0 90.5Q254.0 86.0 256.25 80.5Q258.5 75.0 261.5 69.0ZM311.0 153.5Q301.5 150.0 287.25 145.75Q273.0 141.5 263.0 141.5Q260.0 141.5 259.5 144.0Q259.0 146.5 259.0 152.5V164.0H294.0Q309.0 164.0 319.5 163.75Q330.0 163.5 330.0 163.0Q330.0 162.0 324.25 159.5Q318.5 157.0 311.0 153.5ZM305.5 63.0Q301.5 57.5 297.75 54.25Q294.0 51.0 292.0 51.0Q288.5 51.0 284.0 58.25Q279.5 65.5 275.25 75.5Q271.0 85.5 268.0 94.75Q265.0 104.0 265.0 108.0Q266.0 111.0 274.25 117.0Q282.5 123.0 293.75 129.25Q305.0 135.5 314.75 140.0Q324.5 144.5 329.0 144.5Q329.5 144.5 329.75 139.5Q330.0 134.5 330.0 127.0Q330.0 110.5 323.75 95.25Q317.5 80.0 305.5 63.0ZM419.0 171.0Q419.0 166.5 411.75 160.75Q404.5 155.0 400.5 155.0Q396.5 155.0 396.5 166.0Q396.5 172.0 395.75 178.75Q395.0 185.5 393.5 189.5H393.0Q397.0 188.5 403.25 185.5Q409.5 182.5 414.25 178.25Q419.0 174.0 419.0 171.0ZM340.5 64.5 347.0 55.0H317.5L325.0 66.0Q327.5 68.5 329.5 71.5Q331.5 74.5 333.0 76.0Q333.0 76.5 333.25 76.5Q333.5 76.5 333.5 77.0Q335.0 75.0 337.0 71.75Q339.0 68.5 340.5 64.5ZM452.0 29.5Q448.5 29.5 445.0 29.5Q441.5 29.5 437.5 29.0H430.0Q428.5 28.5 425.0 28.5H398.0L404.0 42.5Q407.0 50.0 411.25 63.25Q415.5 76.5 419.0 88.0L424.0 106.5L427.0 93.5Q429.5 83.5 433.75 70.25Q438.0 57.0 442.0 48.5Q446.0 42.0 448.75 36.75Q451.5 31.5 452.0 29.5ZM377.5 16.5Q377.5 10.0 385.0 10.0Q386.0 10.0 388.0 10.0Q390.0 10.0 392.0 10.5L393.5 11.0Q398.5 12.5 412.25 13.5Q426.0 14.5 440.0 14.5H453.5Q464.0 14.5 470.5 15.25Q477.0 16.0 477.0 18.5Q477.0 19.5 473.5 25.5Q470.0 31.5 464.5 39.5Q453.5 56.5 446.5 77.5Q439.5 98.5 437.0 125.5L434.0 155.0L450.0 162.0Q458.5 165.5 480.5 168.75Q502.5 172.0 537.5 174.0Q567.5 176.0 589.75 178.0Q612.0 180.0 613.0 181.0L613.5 181.5Q614.0 182.5 614.25 183.25Q614.5 184.0 614.5 185.0Q614.5 188.5 609.5 189.75Q604.5 191.0 591.5 191.0Q582.0 191.0 567.75 190.5Q553.5 190.0 533.0 189.0Q511.5 188.0 489.0 187.25Q466.5 186.5 444.5 186.5L434.0 188.5L435.0 244.5L436.5 298.5L516.0 300.0Q553.5 300.5 576.5 302.5Q599.5 304.5 599.5 308.5Q599.5 312.0 577.0 314.0Q554.5 316.0 514.5 316.0H434.5L437.0 339.0Q438.0 343.5 438.0 347.75Q438.0 352.0 438.0 355.5Q438.0 367.0 434.0 369.5Q433.0 370.5 431.0 370.5Q424.5 370.5 424.5 349.5Q424.5 332.5 422.5 325.75Q420.5 319.0 411.25 317.5Q402.0 316.0 381.0 316.0H344.0V342.0Q344.0 354.5 342.5 363.5Q341.0 372.5 337.0 372.5Q333.5 372.5 331.75 363.25Q330.0 354.0 330.0 341.0V315.5L317.5 318.0Q296.0 322.0 275.25 330.0Q254.5 338.0 241.5 346.0Q231.0 354.0 224.5 354.0Q217.5 354.0 217.5 343.5Q217.5 341.0 218.25 337.0Q219.0 333.0 219.5 329.5L222.0 316.0H198.0Q184.0 316.0 179.0 316.75Q174.0 317.5 174.0 320.0Q174.0 330.0 167.0 330.0Q161.5 330.0 158.5 322.5Q154.5 322.5 147.0 327.75Q139.5 333.0 132.75 339.75Q126.0 346.5 124.5 352.0Q123.0 357.0 118.75 360.25Q114.5 363.5 111.5 363.5Q104.0 363.5 104.0 358.0Q104.0 356.5 105.0 355.5Q106.0 353.0 106.75 337.25Q107.5 321.5 107.5 302.0Q108.0 280.0 109.25 264.75Q110.5 249.5 113.0 249.5Q114.5 249.5 121.5 254.5Q128.5 259.5 137.5 267.0Q144.5 273.0 150.75 277.5Q157.0 282.0 158.0 282.0Q158.5 282.0 158.75 272.75Q159.0 263.5 159.0 249.5Q159.0 247.5 159.0 245.5Q159.0 243.5 158.5 241.5V231.5L157.0 181.0L140.0 182.0Q127.5 183.0 109.0 188.25Q90.5 193.5 71.75 201.0Q53.0 208.5 39.5 217.0Q32.0 222.0 25.0 224.75Q18.0 227.5 15.0 227.5Q10.0 227.5 10.0 221.0Q10.0 213.0 13.0 201.0Q15.0 193.5 16.25 179.5Q17.5 165.5 17.5 153.0Q17.5 140.0 18.5 130.75Q19.5 121.5 22.0 121.5Q23.5 121.5 28.75 125.25Q34.0 129.0 40.0 134.5Q56.0 150.0 76.0 157.0Q96.0 164.0 125.5 164.0H158.5L156.5 153.5Q153.0 138.0 148.0 119.75Q143.0 101.5 138.0 86.0Q133.0 70.5 129.0 62.5L126.0 55.0Q124.0 50.5 122.25 46.25Q120.5 42.0 120.0 41.0Q120.0 38.5 131.0 37.25Q142.0 36.0 156.5 36.0Q173.0 36.0 188.5 36.75Q204.0 37.5 206.0 40.0V41.0Q206.0 42.5 202.25 50.5Q198.5 58.5 192.0 68.5Q186.5 78.0 183.25 86.0Q180.0 94.0 178.0 104.0Q176.0 114.0 175.0 129.5L172.5 164.0H193.5Q202.5 164.0 210.75 162.25Q219.0 160.5 221.5 158.5Q226.0 154.0 228.5 154.0Q232.0 154.0 234.0 160.0Q234.5 161.0 236.25 162.5Q238.0 164.0 240.0 164.0Q243.5 164.0 243.5 156.5V153.0Q242.0 143.0 230.0 141.5H225.5Q220.0 141.5 214.5 142.25Q209.0 143.0 206.5 145.0Q197.5 149.0 195.0 149.0Q190.0 149.0 190.0 144.0Q190.0 139.0 201.5 122.0Q213.0 104.5 218.25 95.75Q223.5 87.0 223.5 81.5Q223.5 76.5 219.5 70.0L218.5 67.0Q217.5 64.5 216.25 62.0Q215.0 59.5 214.0 57.0Q213.0 53.5 211.5 50.5Q210.0 47.5 209.0 45.5Q208.5 43.0 208.25 41.0Q208.0 39.0 208.0 38.0Q208.0 32.5 213.0 32.5Q214.0 32.5 218.0 33.5Q220.5 34.0 237.75 35.25Q255.0 36.5 279.0 37.5Q284.0 37.5 289.25 37.5Q294.5 37.5 299.5 38.5Q326.0 40.0 347.75 41.5Q369.5 43.0 375.0 44.5V45.5Q375.0 51.5 360.5 66.0Q353.0 73.5 349.5 78.75Q346.0 84.0 345.0 93.75Q344.0 103.5 344.0 124.0V164.0H358.5Q366.5 164.0 372.0 165.25Q377.5 166.5 377.5 169.0Q377.5 169.5 372.5 177.75Q367.5 186.0 360.5 196.0Q353.5 207.0 349.75 214.5Q346.0 222.0 345.0 231.75Q344.0 241.5 344.0 259.5V295.0L366.5 298.5Q376.5 299.5 388.5 300.5Q400.5 301.5 407.0 301.5H419.5V247.5Q419.5 225.5 419.0 209.0Q418.5 192.5 418.0 192.5Q417.5 192.5 411.75 196.0Q406.0 199.5 399.5 204.0Q393.5 208.0 387.75 211.0Q382.0 214.0 379.5 214.0Q379.0 214.0 377.0 213.0L376.0 212.5Q375.5 211.0 375.5 206.5Q375.5 203.5 376.0 199.25Q376.5 195.0 377.5 190.5Q379.5 183.5 380.5 172.5Q381.5 161.5 381.5 153.0Q381.5 143.5 383.25 137.5Q385.0 131.5 387.0 131.5Q390.5 131.5 399.5 136.5Q400.5 137.0 402.5 138.0Q404.5 139.0 406.0 140.0L407.5 141.5Q411.0 143.5 414.25 145.0Q417.5 146.5 419.5 147.5Q419.0 141.0 415.5 128.0Q412.0 115.0 407.25 99.0Q402.5 83.0 397.5 68.0Q392.5 53.0 388.25 42.25Q384.0 31.5 381.5 29.0Q379.5 26.5 378.5 22.75Q377.5 19.0 377.5 16.5ZM438.0 174.0 439.0 172.0Q438.0 173.5 436.5 173.5Q435.0 173.5 435.0 173.0V173.5Q435.0 173.5 435.75 173.5Q436.5 173.5 437.0 173.5H438.0Z" fill="black" /></svg>