<svg xmlns="http://www.w3.org/2000/svg" width="1007.5" height="462.5" viewBox="0 0 1007.5 462.5"><path d="M142.0 238.0Q146.5 232.0 150.0 226.5Q153.5 221.0 155.5 217.0Q149.0 222.0 135.75 233.5Q122.5 245.0 107.5 258.5L61.5 300.0L83.5 304.0Q89.0 304.5 93.5 305.25Q98.0 306.0 101.5 306.0Q109.5 306.0 113.0 301.75Q116.5 297.5 118.5 286.5Q119.5 279.5 126.5 264.75Q133.5 250.0 142.0 238.0ZM277.5 148.0Q274.0 143.0 270.25 139.5Q266.5 136.0 264.5 136.0Q263.0 136.0 259.5 142.25Q256.0 148.5 251.75 157.5Q247.5 166.5 244.25 174.75Q241.0 183.0 240.0 187.0Q240.5 187.0 240.75 187.0Q241.0 187.0 241.5 187.0Q248.0 187.0 261.25 185.5Q274.5 184.0 288.75 182.25Q303.0 180.5 313.0 178.5Q323.0 176.5 323.0 176.0Q323.0 176.0 320.5 174.5Q318.0 173.0 314.0 171.0Q304.5 167.5 294.75 160.75Q285.0 154.0 277.5 148.0ZM674.5 267.0Q674.0 264.0 667.25 254.5Q660.5 245.0 652.0 235.5L634.0 214.5L627.5 229.5Q625.5 236.0 623.75 242.75Q622.0 249.5 622.0 253.5Q622.0 255.0 622.5 255.0Q623.0 257.5 629.0 260.0Q635.0 262.5 643.5 264.75Q652.0 267.0 659.75 268.25Q667.5 269.5 670.5 269.5Q674.5 269.5 674.5 267.0ZM701.0 105.5 710.5 84.5H695.5Q687.5 84.5 684.5 85.25Q681.5 86.0 681.5 88.5Q681.5 92.0 683.25 100.25Q685.0 108.5 687.0 115.75Q689.0 123.0 690.5 123.0Q691.5 123.0 694.5 118.25Q697.5 113.5 701.0 105.5ZM780.0 199.0Q780.0 198.0 777.25 193.5Q774.5 189.0 770.5 185.5L763.5 177.0L758.0 193.5Q757.5 195.5 756.75 197.25Q756.0 199.0 756.0 200.0Q756.0 201.5 767.0 201.5Q772.5 201.5 776.25 200.75Q780.0 200.0 780.0 199.0ZM809.0 111.0 816.0 96.5H808.0Q801.5 96.5 799.5 98.25Q797.5 100.0 797.5 105.5Q797.5 123.0 800.5 123.0Q803.5 123.0 809.0 111.0ZM901.5 124.5 873.0 113.0Q845.0 102.5 839.5 102.5Q834.0 102.5 830.5 108.5Q818.0 125.0 811.0 145.0Q804.0 165.0 803.5 186.0L805.0 210.0L855.5 230.0Q875.5 238.0 890.5 244.25Q905.5 250.5 908.5 251.5Q908.0 248.5 907.75 242.0Q907.5 235.5 907.5 226.5Q907.5 215.0 907.0 200.75Q906.5 186.5 906.0 173.0Q905.5 159.5 904.5 150.5ZM816.0 61.5 815.0 58.0Q813.5 51.5 809.5 51.5Q808.5 51.5 805.75 57.25Q803.0 63.0 802.5 68.0H809.5Q818.5 68.0 818.5 67.5Q818.5 65.5 816.0 61.5ZM951.5 57.0Q947.5 57.0 938.0 56.0Q928.5 55.0 919.5 53.0Q911.5 51.5 903.5 51.5Q903.5 51.5 905.0 57.0Q905.5 57.5 905.5 59.5Q906.0 60.5 906.5 61.75Q907.0 63.0 907.5 65.0Q908.5 67.5 909.25 70.5Q910.0 73.5 911.0 77.0Q912.5 80.5 914.0 84.25Q915.5 88.0 916.0 92.0Q918.5 107.0 923.5 110.5Q926.0 108.0 930.5 100.5Q935.0 93.0 940.25 84.25Q945.5 75.5 949.5 68.0Q953.5 60.5 954.0 58.0Q952.0 57.0 951.5 57.0ZM297.0 375.0Q293.5 375.0 285.75 374.75Q278.0 374.5 269.0 374.5Q253.0 374.5 245.75 375.0Q238.5 375.5 236.5 377.5Q234.5 379.5 234.5 384.0Q235.0 395.0 236.25 401.0Q237.5 407.0 241.0 407.0Q245.0 407.0 251.75 403.75Q258.5 400.5 268.0 394.5L277.0 387.5Q283.0 383.5 288.5 380.25Q294.0 377.0 297.0 375.0ZM908.0 269.5 858.5 250.0Q838.0 241.5 821.75 235.75Q805.5 230.0 804.0 230.0Q803.5 230.0 803.25 242.5Q803.0 255.0 803.0 270.0Q803.0 285.5 804.0 300.0Q805.0 314.5 807.0 318.5Q809.0 320.0 819.0 325.0Q829.0 330.0 843.0 336.5Q857.0 343.0 870.75 349.0Q884.5 355.0 894.75 359.0Q905.0 363.0 907.5 363.0Q907.5 363.0 907.75 349.25Q908.0 335.5 908.0 316.5ZM796.5 37.5Q808.0 10.0 816.0 10.0Q824.5 10.0 824.5 32.5Q824.5 40.5 828.75 47.5Q833.0 54.5 839.5 61.0Q843.5 65.0 848.5 72.25Q853.5 79.5 853.5 85.0L853.0 85.5Q854.5 88.0 864.5 92.75Q874.5 97.5 885.75 101.0Q897.0 104.5 901.5 105.0Q901.5 98.5 897.25 87.0Q893.0 75.5 887.0 64.75Q881.0 54.0 875.5 50.0Q865.0 46.0 865.0 40.0Q865.0 33.0 880.5 33.0Q884.5 33.0 889.25 33.5Q894.0 34.0 899.5 35.5Q909.5 37.0 927.5 38.25Q945.5 39.5 960.0 39.5Q997.5 40.5 997.5 49.0Q997.5 51.0 993.75 54.0Q990.0 57.0 984.5 59.5Q979.5 62.5 972.75 70.25Q966.0 78.0 959.25 87.5Q952.5 97.0 948.0 105.75Q943.5 114.5 943.5 119.0V120.5Q946.0 125.0 954.0 126.5Q960.0 128.5 964.75 132.5Q969.5 136.5 969.5 142.0Q969.5 148.5 963.5 148.5Q961.5 148.5 957.25 147.25Q953.0 146.0 946.0 144.0Q940.0 141.5 936.75 139.75Q933.5 138.0 931.0 138.0Q930.0 138.0 929.0 139.75Q928.0 141.5 927.0 143.0Q925.5 147.5 924.75 174.25Q924.0 201.0 924.0 238.0V261.5L925.5 371.0L945.5 379.0Q955.5 384.0 962.5 388.25Q969.5 392.5 969.5 395.5Q969.5 402.5 961.0 402.5Q958.0 402.5 952.75 400.75Q947.5 399.0 940.0 396.0Q933.0 392.5 929.0 392.5Q927.0 392.5 924.5 396.5Q922.5 399.0 921.0 400.75Q919.5 402.5 917.0 402.5Q913.5 402.5 909.5 392.0Q908.5 387.5 900.0 381.75Q891.5 376.0 870.5 366.75Q849.5 357.5 811.0 343.0V342.5Q808.5 343.0 806.0 351.5Q804.0 356.5 802.75 359.5Q801.5 362.5 799.0 362.5Q796.0 362.5 792.0 350.5L791.0 347.0Q789.0 340.0 784.75 335.5Q780.5 331.0 770.75 326.5Q761.0 322.0 742.0 314.5Q726.5 308.5 713.25 304.5Q700.0 300.5 695.0 300.0Q694.5 301.0 694.5 303.5Q694.5 306.0 694.5 309.5V321.5Q695.0 325.0 695.25 329.0Q695.5 333.0 695.5 337.0Q695.5 348.5 694.0 355.5Q691.0 359.5 688.0 359.5Q685.0 359.5 683.0 351.25Q681.0 343.0 679.5 329.0Q677.5 315.5 675.25 303.75Q673.0 292.0 670.5 289.5Q667.0 287.0 654.5 285.75Q642.0 284.5 627.0 284.5Q616.0 284.5 604.0 285.0Q592.0 285.5 582.5 287.5Q576.5 288.5 558.75 294.25Q541.0 300.0 515.75 309.5Q490.5 319.0 461.75 330.25Q433.0 341.5 403.75 353.25Q374.5 365.0 348.75 376.0Q323.0 387.0 304.5 395.5Q286.0 404.0 278.5 408.5Q266.0 416.0 255.25 425.0Q244.5 434.0 242.0 439.5Q234.5 452.5 230.0 452.5Q223.5 452.5 223.5 436.0Q223.5 431.0 221.75 427.75Q220.0 424.5 217.0 424.5Q212.5 424.5 209.0 422.5Q205.5 420.5 205.5 418.0Q205.5 414.5 197.75 405.75Q190.0 397.0 177.25 385.75Q164.5 374.5 149.75 362.75Q135.0 351.0 120.75 341.25Q106.5 331.5 96.0 326.0Q89.5 323.5 76.75 321.0Q64.0 318.5 51.5 318.5L10.0 315.5L62.5 274.5Q75.0 265.0 93.75 248.5Q112.5 232.0 133.0 213.25Q153.5 194.5 170.5 178.5Q187.0 162.0 201.25 148.25Q215.5 134.5 224.5 126.0Q233.5 117.5 233.5 117.5Q240.0 117.5 240.0 122.5Q240.0 131.5 216.0 162.5Q192.0 193.5 173.0 221.75Q154.0 250.0 143.25 271.5Q132.5 293.0 132.5 303.5Q132.5 309.0 136.5 309.0Q142.0 309.0 142.0 315.0Q142.0 318.5 141.0 319.5Q141.0 322.5 147.5 331.0Q154.0 339.5 164.0 350.25Q174.0 361.0 185.0 372.0Q196.0 383.0 205.5 391.5Q215.0 400.0 220.0 403.0Q219.5 400.5 218.5 397.0Q217.5 393.5 216.5 389.0Q216.0 387.5 216.0 385.75Q216.0 384.0 215.5 383.0Q215.0 381.0 214.75 379.5Q214.5 378.0 214.5 376.0L210.5 350.0L232.5 355.0Q238.5 357.0 251.75 358.25Q265.0 359.5 280.5 359.5Q283.0 359.5 284.75 359.25Q286.5 359.0 288.5 358.5H297.5Q310.5 358.5 321.0 357.5Q331.5 356.5 342.5 354.25Q353.5 352.0 368.75 346.75Q384.0 341.5 406.5 333.0Q429.0 324.5 462.5 311.5Q494.5 299.5 520.75 289.25Q547.0 279.0 563.0 272.5Q579.0 266.0 579.0 265.5Q579.0 264.0 564.0 258.75Q549.0 253.5 524.0 245.0Q499.0 236.5 468.5 226.5L356.5 188.0L298.0 197.0Q254.5 204.0 238.75 207.75Q223.0 211.5 223.0 217.0Q223.0 223.5 217.5 223.5Q217.0 223.5 215.5 222.5Q214.0 221.5 212.0 220.5Q210.5 218.0 210.5 214.0Q210.5 202.0 227.0 168.5Q236.0 152.0 243.0 136.5Q250.0 121.0 252.0 116.0Q255.5 101.5 262.0 101.5Q270.5 101.5 279.0 121.5Q282.5 130.0 293.0 138.25Q303.5 146.5 324.5 155.75Q345.5 165.0 380.0 177.75Q414.5 190.5 465.5 208.0Q492.5 216.0 519.5 225.0Q546.5 234.0 573.5 243.0Q582.0 246.0 587.0 247.75Q592.0 249.5 593.0 250.0H593.5Q599.0 250.0 614.5 214.5Q632.0 177.5 640.0 177.5Q646.0 177.5 646.0 193.5Q646.0 196.0 651.0 204.0Q656.0 212.0 662.5 219.0L674.5 232.0L672.5 172.5Q672.0 145.5 670.25 130.0Q668.5 114.5 665.75 105.5Q663.0 96.5 658.5 90.0Q653.5 83.0 649.5 76.5Q645.5 70.0 645.5 69.0Q645.5 65.0 655.5 65.0Q664.0 65.0 678.5 65.75Q693.0 66.5 708.25 67.75Q723.5 69.0 734.25 70.25Q745.0 71.5 746.5 72.5V74.0Q746.5 76.0 743.5 80.5Q740.5 85.0 736.0 89.0Q731.5 92.5 722.75 104.75Q714.0 117.0 707.5 130.0Q701.0 143.0 697.5 152.25Q694.0 161.5 692.75 173.25Q691.5 185.0 691.5 205.0Q691.5 232.5 696.0 249.75Q700.5 267.0 710.5 277.5Q720.5 288.0 737.0 295.0Q753.5 302.0 777.0 310.0Q781.0 311.5 782.75 312.25Q784.5 313.0 784.5 313.0V288.0Q784.5 283.5 784.5 278.0Q784.5 272.5 784.0 267.0Q783.5 244.0 782.5 234.5Q781.5 225.0 779.0 222.75Q776.5 220.5 770.0 220.0Q768.5 219.0 765.0 219.0Q760.0 219.0 754.0 220.75Q748.0 222.5 746.0 225.0L742.0 225.5Q739.5 226.5 735.75 227.75Q732.0 229.0 730.5 229.0Q727.0 229.0 726.5 226.0V225.5Q726.5 221.5 730.0 211.75Q733.5 202.0 739.25 189.75Q745.0 177.5 751.5 166.25Q758.0 155.0 763.75 147.5Q769.5 140.0 773.0 140.0Q780.5 140.0 780.5 156.0Q780.5 165.0 784.5 172.0Q784.5 168.5 784.0 158.75Q783.5 149.0 782.75 137.75Q782.0 126.5 780.75 118.0Q779.5 109.5 778.0 109.0Q769.0 104.5 769.0 93.5Q769.0 90.0 767.5 86.5Q766.0 83.0 763.5 81.5Q757.0 76.5 757.0 72.0Q757.0 63.5 769.0 63.5H774.5Q780.5 63.5 785.25 58.0Q790.0 52.5 796.5 37.5Z" fill="black" /></svg>