<svg xmlns="http://www.w3.org/2000/svg" width="851.5" height="467.0" viewBox="0 0 851.5 467.0"><path d="M141.0 152.5Q137.5 148.5 133.0 144.25Q128.5 140.0 123.0 135.0L101.0 112.0L87.5 137.0L73.0 157.0L81.5 155.5Q88.0 153.0 97.75 152.25Q107.5 151.5 116.5 151.5Q123.5 151.5 129.75 151.75Q136.0 152.0 141.0 152.5ZM527.0 246.5Q529.0 245.5 530.5 244.5Q532.0 243.5 533.5 243.0Q535.5 242.0 537.5 241.0Q539.5 240.0 540.0 239.5Q549.0 236.0 559.0 231.5Q569.0 227.0 578.5 222.0Q563.0 218.0 549.25 212.0Q535.5 206.0 522.5 197.5Q520.0 201.5 515.5 201.5H512.5L511.5 201.0V240.5Q514.0 239.5 516.5 238.5Q519.0 237.5 521.0 237.5Q525.0 237.5 527.5 243.0V244.0Q527.5 245.5 527.0 246.5ZM326.0 53.5 315.0 74.5Q312.0 80.0 308.25 85.5Q304.5 91.0 302.0 95.0Q302.0 95.0 302.25 95.0Q302.5 95.0 303.0 95.0L306.0 94.5Q317.0 92.0 327.5 92.0Q333.0 92.0 337.25 92.0Q341.5 92.0 344.5 92.5Q348.0 92.5 350.0 93.0L336.5 73.0Q333.5 67.5 330.25 62.25Q327.0 57.0 326.0 53.5ZM88.5 352.5 110.0 332.0Q104.5 332.5 97.5 332.75Q90.5 333.0 78.0 333.0Q62.5 333.0 46.5 331.5Q48.5 333.5 49.75 335.75Q51.0 338.0 52.5 340.0Q54.0 343.5 55.75 345.75Q57.5 348.0 58.0 349.0Q58.0 350.5 58.5 352.0V354.0L59.0 355.0Q60.0 357.5 62.25 363.0Q64.5 368.5 67.0 378.5Q70.5 373.5 76.0 366.75Q81.5 360.0 88.5 352.5ZM330.5 359.5Q332.5 357.5 333.0 356.5Q332.5 356.5 332.25 356.75Q332.0 357.0 331.5 357.0H322.0Q312.5 358.5 302.0 358.5Q294.0 358.5 287.25 358.25Q280.5 358.0 280.5 358.0L284.0 369.0Q287.0 375.5 289.75 383.5Q292.5 391.5 296.0 400.5L299.5 408.0L308.0 392.5Q313.5 384.0 319.75 374.25Q326.0 364.5 330.5 359.5ZM86.5 91.0Q91.5 76.5 99.0 76.5Q105.5 76.5 121.0 99.0Q126.0 106.0 137.5 118.0Q149.0 130.0 162.25 141.5Q175.5 153.0 185.5 159.5L280.5 193.0Q306.0 202.0 327.75 210.5Q349.5 219.0 363.25 225.75Q377.0 232.5 378.0 235.5Q378.0 239.5 366.25 245.25Q354.5 251.0 336.5 258.0Q332.5 260.5 325.5 263.0Q311.5 268.0 295.75 275.0Q280.0 282.0 264.0 289.0Q259.5 291.0 254.5 292.75Q249.5 294.5 244.0 296.5Q234.5 300.0 226.5 303.25Q218.5 306.5 210.5 309.0Q187.0 318.0 163.0 329.0Q139.0 340.0 118.75 355.5Q98.5 371.0 85.5 394.0Q82.0 398.5 80.5 404.5Q78.5 410.5 74.75 415.75Q71.0 421.0 64.0 421.0Q62.0 421.0 58.5 414.75Q55.0 408.5 51.0 398.5L49.0 392.5Q44.5 381.5 39.0 367.75Q33.5 354.0 29.5 346.5L10.0 305.5L49.0 310.0Q59.5 311.0 70.5 311.5Q81.5 312.0 91.0 312.0Q113.5 312.0 131.0 310.0Q148.5 308.0 164.25 304.0Q180.0 300.0 197.0 293.25Q214.0 286.5 235.5 277.5Q238.0 276.5 240.75 275.5Q243.5 274.5 247.0 273.5Q249.5 272.5 252.5 271.0Q255.5 269.5 259.0 269.0Q276.5 261.0 295.0 253.5Q313.5 246.0 332.0 239.5Q336.5 237.5 336.0 237.5L251.5 205.5Q228.5 196.5 209.0 191.0Q189.5 185.5 174.5 181.0Q167.5 180.5 162.0 178.5L161.0 177.5Q138.5 171.5 121.0 171.5Q98.5 171.5 82.0 177.75Q65.5 184.0 57.0 188.0Q53.5 189.0 51.5 189.75Q49.5 190.5 48.5 190.5H46.5Q32.5 187.5 32.5 179.0Q32.5 174.0 37.0 167.25Q41.5 160.5 48.5 152.5Q50.0 151.0 53.25 148.0Q56.5 145.0 57.5 143.5Q64.0 133.5 70.5 122.25Q77.0 111.0 81.5 102.25Q86.0 93.5 86.5 91.0ZM266.0 107.5Q278.5 88.5 290.5 69.5Q302.5 50.5 313.5 28.5L315.5 24.0Q319.0 18.5 321.5 14.5Q324.0 10.5 326.0 10.0Q330.0 10.0 335.25 18.5Q340.5 27.0 344.0 37.0Q355.5 65.5 381.0 92.0Q406.5 118.5 441.0 139.0Q470.5 155.0 480.75 161.5Q491.0 168.0 491.0 168.0V161.0Q491.0 152.5 497.5 152.5Q501.0 152.5 507.25 157.0Q513.5 161.5 521.5 168.5Q541.0 184.5 559.25 192.75Q577.5 201.0 599.25 203.5Q621.0 206.0 650.0 206.0H775.0Q814.0 206.0 827.75 207.75Q841.5 209.5 841.5 215.5Q841.5 219.0 835.5 221.25Q829.5 223.5 812.75 224.5Q796.0 225.5 765.0 225.75Q734.0 226.0 684.0 226.0H656.0Q633.0 226.0 618.25 229.0Q603.5 232.0 590.25 238.5Q577.0 245.0 559.0 255.5L553.5 258.5Q546.5 262.0 539.0 265.75Q531.5 269.5 527.5 273.5Q519.5 281.0 511.75 284.5Q504.0 288.0 499.5 288.0Q489.5 288.0 489.5 280.5L491.0 273.0L374.0 346.5Q366.0 352.5 357.25 361.0Q348.5 369.5 342.5 377.5Q334.5 384.0 328.5 398.0Q322.5 412.0 318.5 423.0L316.5 426.5Q311.5 441.0 305.75 449.0Q300.0 457.0 295.5 457.0Q287.5 457.0 287.5 441.0Q287.5 437.0 282.75 423.5Q278.0 410.0 271.5 395.0L266.0 378.0Q264.0 374.0 261.75 368.5Q259.5 363.0 258.0 358.5Q255.0 351.5 253.0 346.75Q251.0 342.0 251.0 341.5Q250.5 340.5 250.5 339.5Q250.5 335.5 258.0 335.5Q260.5 335.5 263.75 335.5Q267.0 335.5 270.5 336.5H274.5Q279.0 337.0 285.75 337.5Q292.5 338.0 298.5 338.0Q317.5 337.0 333.25 334.75Q349.0 332.5 363.5 326.0L491.0 252.5Q491.5 244.0 491.5 238.25Q491.5 232.5 491.5 223.0V191.5L429.0 156.5Q427.5 155.5 425.5 154.25Q423.5 153.0 421.0 151.5Q418.0 149.0 414.5 147.25Q411.0 145.5 407.0 143.5Q388.0 130.5 375.5 124.5Q363.0 117.5 350.25 114.5Q337.5 111.5 329.0 111.0Q327.0 111.5 325.0 111.5Q323.0 111.5 322.0 111.5Q320.0 112.0 317.5 112.25Q315.0 112.5 312.5 112.5Q308.5 113.0 304.25 114.0Q300.0 115.0 294.0 116.5Q291.5 117.0 289.0 118.25Q286.5 119.5 282.5 121.5L282.0 122.5Q278.5 123.5 275.5 124.0Q272.5 124.5 270.5 124.5Q266.5 124.5 263.25 122.75Q260.0 121.0 260.0 121.0Q259.5 120.0 259.5 118.5Q259.5 115.0 266.0 107.5Z" fill="black" /></svg>