<svg xmlns="http://www.w3.org/2000/svg" width="686.5" height="388.5" viewBox="0 0 686.5 388.5"><path d="M33.5 245.0Q30.5 241.5 30.5 241.5Q27.5 241.5 27.5 265.5Q27.5 275.0 27.75 281.25Q28.0 287.5 28.5 287.5Q29.5 287.5 33.25 285.25Q37.0 283.0 41.0 280.0Q46.0 276.5 52.25 272.75Q58.5 269.0 63.0 267.5Q64.5 266.5 66.0 266.0Q67.5 265.5 67.5 265.5L54.5 259.5Q47.0 255.0 40.75 251.0Q34.5 247.0 33.5 245.0ZM253.0 327.5Q243.5 325.0 233.5 321.0Q223.5 317.0 214.0 313.0L208.0 310.5Q206.5 309.5 204.5 308.75Q202.5 308.0 201.5 307.5Q200.0 309.0 200.0 313.5Q200.0 319.0 200.5 328.0Q201.0 337.0 201.75 344.0Q202.5 351.0 203.0 351.5Q211.5 347.0 221.5 342.0Q231.5 337.0 240.25 333.0Q249.0 329.0 252.0 328.0H251.5Q252.5 327.5 252.75 327.5Q253.0 327.5 253.0 327.5ZM39.0 131.5Q34.5 126.0 33.0 126.0Q33.0 137.0 33.75 147.75Q34.5 158.5 35.0 170.0Q36.5 169.0 38.75 166.75Q41.0 164.5 44.0 162.5Q50.0 157.5 56.25 154.0Q62.5 150.5 65.5 150.5Q67.5 150.5 68.25 150.25Q69.0 150.0 69.0 150.0Q69.0 147.5 58.5 143.5Q45.0 138.5 39.0 131.5ZM250.0 245.0 244.0 235.0Q241.0 228.5 238.25 224.5Q235.5 220.5 235.0 220.5Q232.0 220.5 227.75 227.75Q223.5 235.0 222.5 239.0Q225.0 239.5 229.75 240.5Q234.5 241.5 240.0 242.5ZM260.5 265.5H260.0Q251.0 261.5 241.0 258.0Q231.0 254.5 221.5 252.0L210.5 250.0L212.0 274.5L212.5 299.0L245.5 310.0Q259.0 315.0 272.5 318.5Q286.0 322.0 291.0 322.0Q297.0 322.0 298.5 319.75Q300.0 317.5 300.0 306.5Q300.0 295.5 297.0 288.75Q294.0 282.0 285.5 277.0Q277.0 272.0 260.5 265.5ZM314.5 214.0Q313.0 212.0 309.0 212.0Q305.0 212.0 303.0 214.0Q303.0 216.0 304.0 218.0Q305.0 220.0 305.5 222.0L306.0 223.0Q307.0 224.0 308.25 225.5Q309.5 227.0 309.5 227.0Q309.5 227.0 309.5 226.75Q309.5 226.5 310.0 226.0Q310.5 225.0 311.0 224.0Q311.5 223.0 312.0 221.5Q315.0 218.5 315.0 215.0Q315.0 214.0 314.75 214.0Q314.5 214.0 314.5 214.0ZM345.0 322.5Q343.0 320.0 336.25 314.0Q329.5 308.0 323.0 302.5Q316.5 297.0 314.5 297.0Q314.5 297.0 314.25 299.0Q314.0 301.0 314.0 303.5Q314.0 305.0 314.0 306.5Q314.0 308.0 314.5 309.5Q315.5 319.0 317.5 321.5Q319.5 324.0 326.0 325.0Q327.5 325.5 329.25 325.5Q331.0 325.5 332.5 325.5Q335.5 325.5 338.5 325.0Q341.5 324.5 343.0 323.5ZM345.0 289.0Q345.0 286.0 344.0 275.5Q343.0 265.0 341.25 252.25Q339.5 239.5 336.5 230.25Q333.5 221.0 329.5 221.0Q327.0 221.0 324.25 227.5Q321.5 234.0 319.25 243.0Q317.0 252.0 315.75 259.75Q314.5 267.5 314.5 270.5Q314.5 277.0 318.0 281.25Q321.5 285.5 327.0 289.5Q333.0 294.0 338.25 297.5Q343.5 301.0 344.5 301.0Q345.0 301.0 345.0 289.0ZM359.0 214.5H358.5Q352.5 212.0 348.0 212.0Q346.5 212.0 345.0 212.25Q343.5 212.5 343.5 212.5Q343.5 215.0 345.75 220.75Q348.0 226.5 350.5 231.5Q353.0 236.5 353.5 236.5Q354.5 236.5 356.25 232.25Q358.0 228.0 359.5 223.0Q361.0 218.0 361.0 216.5Q361.0 215.5 359.0 214.5ZM435.0 232.0 434.5 231.5Q433.0 228.5 431.0 228.5Q429.0 228.5 426.75 232.75Q424.5 237.0 424.5 243.5Q424.5 254.5 428.0 254.5Q431.0 254.5 439.25 252.0Q447.5 249.5 454.75 246.75Q462.0 244.0 462.0 242.5Q462.0 242.0 452.0 239.5Q438.5 237.0 435.0 232.0ZM222.0 85.0Q221.5 84.5 220.5 84.5Q217.5 84.5 216.0 84.0Q215.0 84.0 213.75 83.75Q212.5 83.5 211.5 83.5Q209.5 83.0 207.5 82.75Q205.5 82.5 203.5 82.0H202.0Q199.5 81.5 197.25 81.25Q195.0 81.0 193.0 81.0Q184.5 81.0 184.5 83.5Q184.5 85.5 188.5 89.5Q190.5 92.0 193.25 98.25Q196.0 104.5 198.0 111.0Q200.5 117.5 202.75 121.5Q205.0 125.5 206.5 125.5Q206.5 118.5 209.0 111.5Q211.5 104.5 215.0 99.0L216.5 96.0Q221.0 89.5 222.0 85.0ZM266.0 163.0Q266.0 162.0 263.5 160.0Q261.0 158.0 258.0 156.0Q256.0 155.0 254.5 154.25Q253.0 153.5 252.0 153.5Q250.5 155.5 250.25 157.5Q250.0 159.5 250.0 162.0Q250.0 166.0 250.5 167.5Q251.0 169.0 252.5 170.5L253.5 170.0Q256.5 169.0 258.0 168.0Q261.0 166.5 263.5 165.0Q266.0 163.5 266.0 163.0ZM397.5 83.0 392.0 68.0 347.5 67.0H332.0Q313.0 67.0 300.75 69.25Q288.5 71.5 277.75 77.0Q267.0 82.5 252.0 93.5Q244.0 100.0 236.5 104.25Q229.0 108.5 226.5 108.5Q222.0 108.5 218.5 128.0Q215.0 147.5 212.5 180.0V187.0Q212.0 193.5 211.75 198.5Q211.5 203.5 211.5 207.5Q211.5 223.5 213.5 223.5Q214.5 223.5 217.75 220.25Q221.0 217.0 224.5 212.0Q228.5 206.5 232.5 202.25Q236.5 198.0 237.5 198.0Q239.5 198.0 244.0 204.75Q248.5 211.5 252.0 220.5Q256.0 229.5 264.25 239.0Q272.5 248.5 281.5 256.0L298.0 269.5L299.0 260.0Q299.0 243.0 294.0 229.5L292.5 225.5Q290.5 219.5 289.0 214.0Q287.5 208.5 287.5 206.5Q287.5 204.0 295.0 201.75Q302.5 199.5 314.5 199.0Q334.0 198.0 340.25 196.25Q346.5 194.5 346.5 187.5Q346.5 186.0 346.5 184.0Q346.5 182.0 346.0 180.0L345.0 166.0L317.5 167.0Q299.0 167.0 289.75 169.5Q280.5 172.0 268.5 179.0Q259.0 184.0 252.0 187.0Q245.0 190.0 242.5 190.0Q240.0 190.0 238.75 181.5Q237.5 173.0 237.5 162.0Q237.5 153.5 238.0 145.25Q238.5 137.0 239.5 131.5L240.5 131.0Q246.0 131.0 260.0 141.0Q266.0 145.5 271.75 147.75Q277.5 150.0 286.25 150.75Q295.0 151.5 310.0 152.0H324.5Q339.0 152.0 342.25 150.75Q345.5 149.5 346.0 145.5Q346.0 141.0 344.25 138.25Q342.5 135.5 338.0 132.0Q333.5 128.5 329.75 124.75Q326.0 121.0 326.0 119.0Q326.0 115.5 338.0 114.0Q350.0 112.5 364.0 112.5Q374.0 112.5 381.5 113.25Q389.0 114.0 390.5 115.5L391.0 116.5Q391.5 117.0 391.5 118.5Q391.5 121.0 388.0 126.25Q384.5 131.5 379.0 137.5Q367.0 148.0 367.0 150.0Q367.0 151.0 368.5 152.0Q371.0 155.5 371.0 158.5Q371.0 161.5 368.0 164.5Q365.5 166.5 363.0 172.75Q360.5 179.0 360.0 185.5Q359.5 188.0 359.5 190.25Q359.5 192.5 359.5 193.5Q359.5 198.0 361.0 199.25Q362.5 200.5 365.5 200.5Q380.5 200.5 380.5 208.5Q380.5 212.5 376.5 220.0Q372.0 227.0 367.25 240.5Q362.5 254.0 359.25 267.75Q356.0 281.5 356.0 290.5Q356.0 309.5 367.75 317.0Q379.5 324.5 396.0 325.0L413.0 323.5L414.5 303.5V298.0Q415.0 296.5 415.0 293.5Q415.0 280.5 413.0 279.5Q410.5 275.5 410.5 255.5Q410.5 250.5 410.75 245.0Q411.0 239.5 411.5 234.5V233.0Q412.0 226.0 412.25 219.75Q412.5 213.5 412.5 208.5Q412.5 192.5 411.5 191.5Q409.5 186.5 408.0 172.75Q406.5 159.0 405.5 143.0Q405.0 126.0 402.5 108.5Q400.0 91.0 397.5 83.0ZM618.5 159.5Q617.5 154.5 614.25 153.25Q611.0 152.0 599.0 152.0Q585.0 152.0 565.75 152.5Q546.5 153.0 526.0 154.75Q505.5 156.5 486.75 160.0Q468.0 163.5 455.0 169.0L431.0 179.0V196.0Q431.0 208.5 434.0 212.75Q437.0 217.0 449.5 223.0Q456.0 226.0 461.75 228.0Q467.5 230.0 476.5 230.75Q485.5 231.5 501.5 231.75Q517.5 232.0 544.0 232.0H619.5L620.0 200.5V191.0Q620.0 180.0 619.75 171.25Q619.5 162.5 618.5 159.5ZM270.0 62.5H268.5Q266.5 62.5 261.0 58.75Q255.5 55.0 250.5 50.5Q247.0 48.0 243.25 45.5Q239.5 43.0 238.0 42.5Q238.0 45.5 238.75 51.75Q239.5 58.0 241.25 63.75Q243.0 69.5 245.5 71.5Q249.0 73.5 249.0 76.5Q249.0 77.5 248.0 79.5Q255.0 76.0 262.0 70.75Q269.0 65.5 270.0 62.5ZM364.5 130.0Q364.5 129.0 363.25 127.5Q362.0 126.0 360.5 126.0Q358.5 126.0 357.25 127.5Q356.0 129.0 356.0 130.0Q356.0 134.5 360.5 134.5Q364.5 134.5 364.5 130.0ZM445.5 41.0Q445.5 41.0 437.75 40.75Q430.0 40.5 420.0 40.5Q406.0 40.5 401.0 41.0Q396.0 41.5 396.0 42.5Q396.0 44.0 396.5 44.5Q401.5 55.5 405.75 68.5Q410.0 81.5 413.0 91.5Q416.0 101.5 416.0 104.5Q416.0 108.0 418.0 108.0Q420.0 108.0 420.0 103.0Q420.0 99.0 423.5 89.25Q427.0 79.5 432.0 68.5Q437.5 58.5 441.5 50.5Q445.5 42.5 445.5 41.0ZM461.0 151.5 449.5 147.0Q434.0 140.0 431.0 140.0Q429.0 140.0 429.0 151.0Q429.0 163.0 432.0 163.0Q434.5 163.0 438.75 161.25Q443.0 159.5 449.5 156.5ZM648.5 67.0Q645.5 66.0 636.25 65.5Q627.0 65.0 617.5 64.75Q608.0 64.5 603.0 64.5Q603.5 67.0 605.75 73.25Q608.0 79.5 611.0 87.5Q615.5 97.5 618.5 107.5Q621.5 117.5 621.5 120.5Q621.5 125.5 623.5 125.5Q625.5 125.5 625.5 122.0Q625.5 119.5 629.0 110.0Q632.5 100.5 637.5 89.5Q641.5 83.0 644.5 76.5Q647.5 70.0 648.5 67.0ZM225.5 67.5 225.0 41.0Q225.0 27.5 226.75 18.75Q228.5 10.0 230.5 10.0Q232.0 10.0 236.5 14.5Q241.0 19.0 244.5 25.5Q251.0 36.0 258.0 41.75Q265.0 47.5 277.25 50.0Q289.5 52.5 310.5 52.5Q313.0 52.5 315.25 52.5Q317.5 52.5 319.5 52.0H331.5Q361.0 51.5 371.0 50.75Q381.0 50.0 381.0 45.5Q381.0 41.5 379.0 35.5V33.5Q379.0 33.0 378.75 32.75Q378.5 32.5 378.5 32.5V31.5Q378.5 27.5 381.25 26.0Q384.0 24.5 393.5 24.5Q402.5 24.5 421.0 26.0Q439.0 26.5 452.5 28.0Q466.0 29.5 466.5 31.0Q466.5 31.5 463.25 39.0Q460.0 46.5 454.0 56.0Q448.0 65.0 442.75 77.25Q437.5 89.5 434.5 100.25Q431.5 111.0 431.5 117.5Q431.5 120.5 432.0 121.5Q432.5 123.0 437.5 126.0Q442.5 129.0 449.0 132.0Q457.5 136.5 472.25 138.5Q487.0 140.5 519.0 141.5Q527.5 142.0 536.0 142.0Q544.5 142.0 552.0 142.0Q566.5 142.0 578.25 141.5Q590.0 141.0 595.0 140.5Q611.0 138.5 611.5 134.5Q611.5 132.5 610.5 127.5Q609.0 121.0 604.5 109.25Q600.0 97.5 594.75 83.75Q589.5 70.0 584.0 57.5V56.5Q584.0 50.5 602.5 50.5Q607.0 50.5 618.25 51.0Q629.5 51.5 642.5 52.25Q655.5 53.0 665.0 53.75Q674.5 54.5 675.5 55.5L676.5 57.5Q676.5 59.5 675.0 61.75Q673.5 64.0 671.0 66.5Q670.0 67.5 668.5 69.0Q667.0 70.5 666.0 72.0Q651.0 86.0 644.0 109.0Q637.0 132.0 635.5 168.0Q635.5 194.5 634.25 223.0Q633.0 251.5 630.5 278.0Q630.0 283.0 629.75 290.0Q629.5 297.0 629.0 304.5Q628.5 319.0 627.25 330.75Q626.0 342.5 622.5 342.5Q620.0 342.5 619.25 337.25Q618.5 332.0 618.5 324.0V290.5L619.5 246.0H559.5Q533.5 246.0 518.0 246.5Q502.5 247.0 491.75 248.75Q481.0 250.5 469.0 255.0Q450.5 261.5 441.0 265.75Q431.5 270.0 428.0 275.25Q424.5 280.5 424.5 289.5Q424.5 292.5 425.0 294.0V300.5L426.5 323.5L443.0 325.0Q460.5 327.0 460.5 333.0Q460.5 340.0 441.5 340.0Q430.0 340.0 427.0 343.0Q425.5 344.5 424.0 345.75Q422.5 347.0 421.5 347.0Q418.5 347.0 414.5 344.0Q412.5 342.5 403.75 341.5Q395.0 340.5 385.0 340.5Q367.5 340.5 364.0 341.75Q360.5 343.0 360.5 350.0Q360.5 356.0 359.0 361.25Q357.5 366.5 354.5 368.0L353.0 368.5Q347.5 368.5 347.5 353.0Q347.5 343.0 345.5 341.5Q343.5 340.0 331.0 340.0Q318.5 340.0 315.75 341.5Q313.0 343.0 313.0 350.0Q313.0 356.5 311.25 361.25Q309.5 366.0 307.0 366.0Q304.0 366.0 302.0 361.25Q300.0 356.5 300.0 350.0Q300.0 343.0 297.5 341.5Q295.0 340.0 282.5 340.0Q261.0 340.0 244.75 345.75Q228.5 351.5 211.5 363.5L203.0 370.5Q198.5 374.0 195.0 376.25Q191.5 378.5 190.5 378.5Q188.5 378.5 187.5 365.25Q186.5 352.0 186.5 333.0Q186.5 306.5 188.25 297.0Q190.0 287.5 195.0 287.5Q196.0 287.5 196.5 285.75Q197.0 284.0 197.0 283.5Q196.5 281.0 192.0 280.0Q187.5 279.0 175.5 278.25Q163.5 277.5 140.0 277.0H120.5Q96.0 277.0 80.75 279.0Q65.5 281.0 55.75 286.0Q46.0 291.0 38.5 300.0Q33.5 306.0 30.0 309.5Q26.5 313.0 23.5 313.0Q18.5 313.0 17.25 305.0Q16.0 297.0 15.5 280.0Q15.0 266.5 14.0 253.0Q13.0 239.5 12.0 234.0Q10.0 229.0 10.0 226.0Q10.0 219.5 15.5 219.5Q19.0 219.5 24.75 223.0Q30.5 226.5 38.0 232.5Q54.0 244.5 67.75 251.0Q81.5 257.5 99.25 260.25Q117.0 263.0 145.0 263.0H196.0L198.5 217.0Q199.5 205.5 199.5 195.75Q199.5 186.0 199.5 178.5Q199.5 173.0 199.5 169.0Q199.5 165.0 199.0 164.5Q197.5 162.0 183.75 161.0Q170.0 160.0 137.0 160.0Q112.5 160.0 97.0 160.75Q81.5 161.5 72.0 164.25Q62.5 167.0 55.75 172.0Q49.0 177.0 42.0 186.0L37.5 190.5Q34.0 193.5 31.0 196.0Q28.0 198.5 26.5 198.5Q25.0 198.5 23.5 186.5Q22.0 174.5 21.0 158.0Q20.0 141.5 20.0 128.0Q20.0 117.0 21.0 110.5Q22.0 104.0 24.0 104.0Q25.5 104.0 31.5 107.75Q37.5 111.5 44.5 117.5Q59.0 129.5 71.5 135.75Q84.0 142.0 101.5 144.25Q119.0 146.5 147.5 146.5H195.5L189.5 127.5Q186.5 118.0 181.25 106.5Q176.0 95.0 172.0 88.0L162.0 65.0L196.5 66.0Z" fill="black" /></svg>