<svg xmlns="http://www.w3.org/2000/svg" width="661.0" height="382.5" viewBox="0 0 661.0 382.5"><path d="M26.5 322.0Q36.0 314.5 48.0 308.0Q60.0 301.5 71.0 296.5Q50.0 284.5 27.0 273.0Q27.0 279.5 27.25 285.75Q27.5 292.0 27.5 298.5Q27.5 304.5 27.25 310.5Q27.0 316.5 26.5 322.0ZM263.5 310.5Q273.5 306.5 284.0 303.75Q294.5 301.0 305.5 299.5Q316.0 298.0 326.5 296.75Q337.0 295.5 347.5 294.5Q328.0 285.0 310.0 274.25Q292.0 263.5 275.5 251.0Q273.5 265.5 270.25 280.5Q267.0 295.5 263.5 310.5ZM357.5 221.5Q363.0 222.0 368.75 223.5Q374.5 225.0 380.5 226.0Q386.5 227.5 392.25 228.5Q398.0 229.5 404.0 229.5Q402.0 222.5 398.25 215.25Q394.5 208.0 390.5 202.0Q390.0 201.5 389.75 201.0Q389.5 200.5 389.0 200.0Q386.5 201.5 382.0 204.75Q377.5 208.0 372.5 211.0Q368.0 214.0 364.0 216.75Q360.0 219.5 357.5 221.5ZM405.0 184.0Q413.5 186.0 425.75 189.0Q438.0 192.0 446.0 192.5Q445.0 190.0 443.25 185.75Q441.5 181.5 439.0 177.0Q437.0 172.0 435.0 168.25Q433.0 164.5 432.0 162.5Q425.5 167.5 418.75 173.0Q412.0 178.5 405.0 184.0ZM346.5 236.0V277.5L372.0 289.5Q380.5 293.0 389.0 295.75Q397.5 298.5 406.5 301.0Q450.5 312.5 495.0 322.25Q539.5 332.0 584.0 340.5L583.5 221.5Q572.5 214.0 557.0 203.25Q541.5 192.5 524.0 182.5Q507.0 172.5 489.5 165.5Q472.0 158.5 457.5 158.5H451.5Q449.0 159.0 449.0 160.5Q449.0 164.0 453.5 172.5Q458.0 181.0 460.0 185.0Q465.5 193.5 476.25 203.0Q487.0 212.5 499.25 221.0Q511.5 229.5 521.0 236.0Q524.0 238.0 531.75 243.0Q539.5 248.0 548.75 254.5Q558.0 261.0 564.5 266.5Q571.0 272.0 571.0 274.5Q571.0 275.0 570.25 276.75Q569.5 278.5 567.5 278.5Q567.0 279.0 565.5 279.0Q565.0 279.5 564.0 279.5Q561.5 279.5 555.0 275.75Q548.5 272.0 540.0 267.0Q531.0 261.5 520.0 254.25Q509.0 247.0 497.5 239.5Q481.5 229.5 465.0 220.5Q448.5 211.5 434.25 205.75Q420.0 200.0 410.5 200.0Q409.0 200.0 409.0 200.0H407.5V200.5Q407.5 201.5 408.25 203.0Q409.0 204.5 409.5 206.5Q411.0 209.5 413.0 212.5Q426.0 236.5 450.0 254.0Q455.0 257.5 469.5 265.75Q484.0 274.0 499.5 284.0Q514.0 293.5 526.75 302.0Q539.5 310.5 539.5 314.5Q539.5 318.0 535.5 318.0Q530.5 318.0 516.5 310.5Q502.5 303.0 487.5 294.0Q472.0 285.0 457.5 276.5Q443.0 268.0 437.5 264.5Q421.5 254.5 404.5 247.75Q387.5 241.0 368.5 239.0Q363.0 238.0 357.5 237.25Q352.0 236.5 346.5 236.0ZM102.0 117.5 79.0 106.5Q72.5 103.0 66.25 99.25Q60.0 95.5 53.5 92.0Q54.5 103.0 54.5 113.75Q54.5 124.5 54.5 135.5Q57.0 134.5 58.75 133.25Q60.5 132.0 62.5 131.0Q67.0 128.5 73.5 126.0Q80.5 123.5 87.75 121.5Q95.0 119.5 102.0 117.5ZM85.5 191.0Q92.5 170.5 105.0 152.5Q100.0 153.0 95.25 153.5Q90.5 154.0 85.5 154.0Q81.5 154.0 77.0 153.5Q72.5 153.0 68.5 153.0Q71.5 158.0 73.75 162.75Q76.0 167.5 78.0 172.5Q80.0 177.0 81.75 181.5Q83.5 186.0 85.5 191.0ZM79.0 139.0H79.5Q90.5 139.0 101.25 137.5Q112.0 136.0 123.0 136.0Q125.5 136.0 128.25 136.75Q131.0 137.5 131.0 141.5Q131.0 143.5 129.0 146.75Q127.0 150.0 124.5 153.0Q122.0 156.0 119.5 158.5Q117.0 161.0 115.5 162.5Q106.0 174.0 101.25 190.25Q96.5 206.5 94.0 224.0Q92.0 241.0 92.25 257.75Q92.5 274.5 92.0 287.5Q103.5 290.0 115.0 291.25Q126.5 292.5 138.0 293.0Q150.5 293.5 162.5 293.5Q174.5 293.5 186.5 293.5L252.0 295.5Q253.0 289.0 254.75 282.5Q256.5 276.0 257.5 269.5Q258.5 262.5 259.25 255.5Q260.0 248.5 260.0 241.5Q260.0 240.5 259.75 238.0Q259.5 235.5 260.0 233.5Q261.0 231.0 262.0 228.75Q263.0 226.5 266.0 226.5Q269.5 226.5 278.75 233.0Q288.0 239.5 298.0 247.0Q303.5 250.5 308.5 254.5Q313.5 258.5 318.5 261.5Q322.5 264.0 325.5 266.25Q328.5 268.5 330.5 269.5Q330.5 240.0 330.75 210.25Q331.0 180.5 331.0 151.0Q331.0 142.0 330.25 132.75Q329.5 123.5 327.5 115.0Q319.0 118.0 313.0 120.5Q307.0 123.0 301.5 125.5Q292.5 130.5 283.75 136.0Q275.0 141.5 266.5 147.0Q264.5 147.5 260.75 149.75Q257.0 152.0 255.0 152.0Q251.0 152.0 250.0 148.75Q249.0 145.5 249.0 142.5Q249.0 138.5 249.5 134.75Q250.0 131.0 250.5 127.5Q233.0 127.0 215.75 126.75Q198.5 126.5 181.0 126.5Q154.5 126.5 129.0 128.25Q103.5 130.0 79.0 139.0ZM322.0 103.0 319.0 95.0Q305.0 91.0 291.0 86.75Q277.0 82.5 263.5 77.5Q264.5 88.5 266.0 99.5Q267.5 110.5 267.5 121.5Q267.5 123.5 267.25 126.0Q267.0 128.5 267.0 131.0Q279.5 121.5 293.0 115.0Q306.5 108.5 322.0 103.0ZM331.0 83.5 345.5 86.0Q349.5 79.0 353.25 72.75Q357.0 66.5 361.0 60.0Q356.0 60.5 350.25 60.75Q344.5 61.0 339.0 61.0Q333.0 61.0 327.25 60.25Q321.5 59.5 316.0 59.0Q320.0 65.0 323.75 71.0Q327.5 77.0 331.0 83.5ZM346.5 212.5 361.0 201.5Q363.0 200.0 365.0 198.5Q367.0 197.0 369.0 195.5Q371.0 194.0 372.75 192.25Q374.5 190.5 376.5 189.0Q380.5 185.5 384.25 182.25Q388.0 179.0 392.5 176.0Q397.5 173.0 402.0 170.0Q406.5 167.0 410.5 163.5Q411.5 162.5 413.5 161.0Q415.5 159.5 417.5 157.5Q418.5 156.5 419.5 155.25Q420.5 154.0 421.0 153.5Q422.0 152.5 422.0 152.25Q422.0 152.0 422.5 151.5Q421.5 151.0 421.0 150.5L420.5 150.0Q419.5 148.0 419.5 147.5Q419.5 143.5 425.75 138.25Q432.0 133.0 439.5 128.0Q443.5 125.5 447.25 123.0Q451.0 120.5 454.5 118.5Q458.0 116.0 460.75 114.25Q463.5 112.5 465.0 111.0Q468.5 108.0 471.0 106.0Q473.5 104.0 476.5 102.0Q457.5 103.0 438.25 103.75Q419.0 104.5 400.0 105.5Q388.0 105.5 376.25 106.25Q364.5 107.0 353.5 109.5Q352.5 114.5 351.25 119.75Q350.0 125.0 349.0 130.0Q348.5 135.0 347.75 140.5Q347.0 146.0 347.0 151.5Q347.0 167.0 347.0 182.25Q347.0 197.5 346.5 212.5ZM448.0 141.5Q452.5 142.0 458.5 142.75Q464.5 143.5 470.5 144.5Q477.5 145.5 484.0 147.0Q490.5 148.5 495.0 150.5Q495.0 148.0 493.0 146.0Q488.5 140.5 485.0 132.0Q483.5 128.0 482.25 125.0Q481.0 122.0 480.0 119.0Q472.0 124.0 464.0 130.0Q456.0 136.0 448.0 141.5ZM551.0 182.0 584.0 203.0Q583.5 193.0 583.5 183.0Q583.5 173.0 583.0 163.0Q582.5 152.0 581.25 141.25Q580.0 130.5 577.0 121.0L570.5 97.5Q552.5 98.0 534.25 98.5Q516.0 99.0 498.5 102.0Q494.5 102.0 494.5 105.0Q494.5 107.0 495.25 109.25Q496.0 111.5 496.5 114.0Q500.5 131.5 507.0 142.5Q513.5 153.5 524.0 162.25Q534.5 171.0 551.0 182.0ZM566.0 29.5V30.0H564.0Q563.5 30.0 563.5 30.5V32.5Q563.5 35.0 567.5 43.75Q571.5 52.5 573.5 56.0Q576.5 62.5 579.25 70.0Q582.0 77.5 584.0 86.0Q585.5 92.0 587.25 98.25Q589.0 104.5 590.5 110.5Q593.5 94.5 598.75 78.75Q604.0 63.0 612.0 49.0Q613.0 46.5 614.5 44.5Q616.0 42.5 617.5 40.5Q618.5 39.0 619.25 37.25Q620.0 35.5 620.5 33.5Q617.5 33.5 614.25 33.0Q611.0 32.5 608.0 32.5Q603.5 31.5 599.0 31.5Q594.5 31.5 590.5 31.5Q584.5 31.0 578.75 30.25Q573.0 29.5 567.5 29.5ZM51.5 151.0Q49.5 151.0 48.0 152.5Q46.5 154.0 43.5 154.0Q41.5 154.0 40.25 152.25Q39.0 150.5 39.0 148.5V132.0Q39.0 117.5 38.5 102.25Q38.0 87.0 38.0 72.0V71.0Q40.0 69.0 41.5 69.0Q44.0 69.0 47.0 70.5Q50.0 72.0 52.5 73.5Q76.0 90.0 96.25 98.5Q116.5 107.0 138.5 110.0Q160.5 113.0 189.0 113.5L250.5 115.0V105.5Q250.5 93.5 247.25 82.75Q244.0 72.0 244.0 61.0Q244.0 60.0 245.5 58.5Q247.0 57.0 248.5 57.0Q253.5 57.0 262.5 60.0Q271.5 63.0 281.0 67.0Q289.0 70.5 296.75 73.5Q304.5 76.5 310.0 78.5Q308.0 75.5 306.5 72.25Q305.0 69.0 303.0 66.0Q301.5 63.0 299.0 60.5Q298.0 59.0 296.75 57.5Q295.5 56.0 294.5 54.0Q294.0 53.0 294.0 52.5Q294.0 52.0 293.5 51.5Q293.0 51.0 293.0 49.5Q293.0 45.0 298.0 45.0Q308.0 45.0 318.0 46.0Q328.0 47.0 338.0 47.5Q348.5 48.0 359.0 47.75Q369.5 47.5 380.0 47.5H385.0Q389.5 47.5 388.25 50.25Q387.0 53.0 385.5 55.0Q382.5 59.0 379.0 62.5Q375.5 66.0 372.5 70.0Q369.0 74.0 365.75 78.75Q362.5 83.5 360.0 88.5Q373.5 89.0 387.0 89.5Q400.5 90.0 414.5 90.0Q418.5 90.0 422.75 90.0Q427.0 90.0 431.5 89.5Q465.5 88.5 499.25 87.5Q533.0 86.5 566.5 84.0Q565.0 77.0 563.0 70.5Q561.0 64.0 558.5 57.5Q557.0 53.5 554.25 47.75Q551.5 42.0 548.5 35.5Q545.5 29.0 543.25 23.25Q541.0 17.5 541.0 14.0Q541.0 11.5 544.0 10.5Q544.5 10.5 545.0 10.25Q545.5 10.0 546.0 10.0H548.0Q551.5 10.0 555.0 10.5Q558.5 11.0 562.0 12.0Q570.0 13.5 578.0 14.25Q586.0 15.0 594.0 15.5Q602.5 16.0 610.75 15.75Q619.0 15.5 627.0 15.5Q632.5 15.5 638.5 16.0Q644.5 16.5 650.0 16.0H651.0V19.0Q651.0 19.5 650.75 20.0Q650.5 20.5 650.5 21.0Q650.0 21.5 650.0 22.25Q650.0 23.0 649.0 24.0Q648.0 25.5 646.75 27.25Q645.5 29.0 644.0 31.5Q627.5 52.0 618.75 72.0Q610.0 92.0 606.5 113.75Q603.0 135.5 601.5 161.5Q601.0 172.5 600.25 184.0Q599.5 195.5 599.5 206.5V213.0Q601.0 214.0 603.75 215.5Q606.5 217.0 609.0 219.0Q611.0 221.0 614.0 223.0Q616.5 225.5 616.5 227.5Q616.5 229.5 614.5 232.25Q612.5 235.0 609.0 235.0Q607.0 235.0 605.5 234.0Q604.0 233.0 602.5 232.5Q602.0 232.0 601.25 231.5Q600.5 231.0 599.5 230.5L599.0 343.0L608.0 344.5Q612.0 345.0 613.25 347.0Q614.5 349.0 614.5 352.0Q614.5 359.0 609.5 359.0Q607.5 359.0 605.0 358.5Q602.5 358.0 599.5 357.5V365.0Q599.0 367.5 597.5 370.0Q596.0 372.5 592.0 372.5Q588.0 372.5 586.5 369.75Q585.0 367.0 584.0 364.0Q583.5 361.5 583.75 359.0Q584.0 356.5 584.0 354.5Q528.5 344.5 474.5 333.5Q457.5 330.0 440.75 326.25Q424.0 322.5 406.5 319.5Q389.5 316.0 372.5 314.0Q355.5 312.0 338.0 312.0Q321.0 312.0 306.5 314.75Q292.0 317.5 276.0 323.5Q272.0 325.5 262.25 329.25Q252.5 333.0 248.5 333.0Q242.5 333.0 242.5 327.5Q242.5 322.5 245.0 316.5Q246.0 314.5 246.75 312.25Q247.5 310.0 248.0 308.0Q234.0 307.5 219.75 307.5Q205.5 307.5 191.5 307.5Q167.0 307.5 142.0 307.75Q117.0 308.0 92.0 308.0Q92.0 311.5 92.25 316.0Q92.5 320.5 90.0 324.0Q87.5 327.5 84.0 327.5Q80.0 327.5 78.25 324.5Q76.5 321.5 76.5 319.0Q76.0 316.5 76.25 314.0Q76.5 311.5 76.5 309.5Q71.0 311.0 63.25 316.0Q55.5 321.0 48.25 326.5Q41.0 332.0 37.0 335.5Q35.5 336.5 34.0 338.25Q32.5 340.0 31.0 341.5Q28.5 344.0 24.5 346.5Q24.0 346.5 24.0 346.75Q24.0 347.0 23.5 347.0Q21.5 349.0 19.0 349.0Q15.5 349.0 14.0 346.5Q12.5 344.0 11.5 342.0Q11.5 341.0 11.25 339.5Q11.0 338.0 11.0 337.0V333.0Q11.0 324.5 11.5 315.5Q12.0 306.5 12.0 298.0Q12.0 287.0 11.0 276.75Q10.0 266.5 10.0 255.5Q10.0 253.5 11.25 251.25Q12.5 249.0 16.0 249.0Q18.0 249.0 20.0 249.75Q22.0 250.5 24.0 251.5Q26.0 252.5 27.75 253.5Q29.5 254.5 30.5 255.5Q42.0 262.0 53.5 268.5Q65.0 275.0 77.0 281.0Q76.5 265.5 77.0 245.75Q77.5 226.0 75.0 211.5Q74.0 203.5 71.25 196.0Q68.5 188.5 65.0 180.5Q61.5 172.5 58.25 165.25Q55.0 158.0 51.5 151.0Z" fill="black" /></svg>