<svg xmlns="http://www.w3.org/2000/svg" width="759.0" height="453.5" viewBox="0 0 759.0 453.5"><path d="M132.5 160.0V159.0Q133.5 158.5 133.5 156.5Q133.5 155.5 130.5 155.0Q127.5 154.5 119.0 154.5Q111.0 154.5 107.0 155.0Q103.0 155.5 103.0 158.5Q103.0 160.5 104.75 165.25Q106.5 170.0 109.0 177.0L117.0 200.5L126.5 175.0Q131.5 166.0 132.5 160.0ZM169.5 200.5Q165.0 187.5 160.75 177.25Q156.5 167.0 154.5 163.5Q152.5 164.0 149.5 168.75Q146.5 173.5 144.0 180.0Q139.5 188.0 137.0 199.0Q134.5 210.0 133.25 230.0Q132.0 250.0 131.0 285.0L129.0 367.0L145.0 370.0Q152.5 371.5 161.5 372.5Q170.5 373.5 176.5 373.5H187.0L185.0 305.5Q183.5 265.5 180.0 242.25Q176.5 219.0 169.5 200.5ZM203.5 162.0Q203.5 161.5 198.5 160.75Q193.5 160.0 186.5 160.0Q172.5 160.0 172.5 160.5Q172.5 161.0 173.25 162.25Q174.0 163.5 174.5 166.0L175.5 168.0Q177.0 170.0 179.75 177.0Q182.5 184.0 185.0 191.0Q187.5 198.0 187.5 200.5Q187.5 201.0 187.75 201.25Q188.0 201.5 188.0 201.5Q190.5 197.0 194.0 188.5Q197.5 180.0 200.5 172.0Q203.5 164.0 203.5 162.0ZM346.0 254.5Q330.5 250.5 318.25 248.0Q306.0 245.5 303.0 245.0Q303.0 245.5 303.0 246.75Q303.0 248.0 303.0 250.0Q303.0 252.0 303.0 254.75Q303.0 257.5 303.5 261.0L305.5 275.0L346.0 267.0Q356.5 264.5 366.0 263.25Q375.5 262.0 381.0 261.5Q375.5 260.0 366.25 258.0Q357.0 256.0 346.0 254.5ZM398.0 174.0H397.5Q394.0 168.5 391.0 164.25Q388.0 160.0 387.0 160.0Q385.0 160.0 379.5 165.0Q374.0 170.0 369.0 175.75Q364.0 181.5 362.5 185.0Q364.0 186.5 369.5 188.75Q375.0 191.0 382.5 194.0Q386.5 195.0 391.25 197.25Q396.0 199.5 400.0 201.5L427.5 211.5L422.0 206.0Q417.0 200.0 409.75 190.25Q402.5 180.5 398.0 174.0ZM659.5 141.5 650.0 112.0 541.0 111.5H487.5Q461.5 111.5 444.5 112.0Q427.5 112.5 414.25 114.0Q401.0 115.5 386.25 118.0Q371.5 120.5 350.5 124.5Q305.0 133.0 279.5 139.75Q254.0 146.5 241.25 154.0Q228.5 161.5 220.5 172.0Q216.0 179.5 213.25 187.0Q210.5 194.5 208.75 206.5Q207.0 218.5 206.25 237.75Q205.5 257.0 205.0 288.0L203.0 379.5H350.0Q350.0 379.5 347.5 373.25Q345.0 367.0 342.0 359.0L338.0 349.0Q327.0 322.5 327.0 314.5Q327.0 306.0 332.25 303.5Q337.5 301.0 348.0 301.0Q360.5 301.0 380.0 297.25Q399.5 293.5 419.75 288.0Q440.0 282.5 454.5 277.0Q469.0 271.5 471.0 268.0Q462.0 268.0 445.75 270.0Q429.5 272.0 409.75 274.75Q390.0 277.5 370.5 281.25Q351.0 285.0 335.25 288.5Q319.5 292.0 311.5 295.5L284.5 307.5V266.5Q284.5 252.0 286.0 239.75Q287.5 227.5 289.0 226.0Q290.0 225.5 291.0 225.0Q292.0 224.5 293.5 224.5Q299.0 224.5 311.25 226.75Q323.5 229.0 339.0 233.0Q351.5 236.5 368.0 239.5Q384.5 242.5 401.0 244.75Q417.5 247.0 430.5 247.5L463.0 250.0L429.0 234.0Q416.5 227.0 402.25 221.0Q388.0 215.0 375.25 210.5Q362.5 206.0 354.5 204.5L320.0 196.5L388.5 134.5L403.0 153.5Q408.5 161.0 418.75 173.0Q429.0 185.0 440.25 197.25Q451.5 209.5 460.75 219.25Q470.0 229.0 474.0 232.0Q474.0 225.5 472.25 213.0Q470.5 200.5 468.0 186.5Q465.5 172.5 462.5 160.5Q459.5 148.5 457.0 143.0L455.5 140.0Q451.0 132.0 451.0 128.5Q451.5 126.0 453.0 124.5Q454.5 123.0 458.5 123.0Q463.0 123.0 471.5 125.5Q484.0 125.5 496.5 124.5Q509.0 123.5 521.5 121.0Q530.0 118.5 538.5 117.5Q547.0 116.5 552.5 116.5Q555.5 116.5 559.75 117.25Q564.0 118.0 564.0 123.0Q564.0 129.5 556.0 131.5Q546.5 135.0 535.75 151.25Q525.0 167.5 516.25 190.0Q507.5 212.5 503.5 236.0L501.5 248.5L520.5 237.5Q535.0 228.5 552.0 219.25Q569.0 210.0 584.5 202.25Q600.0 194.5 611.5 189.5Q623.0 184.5 627.0 184.0L629.5 185.5L631.0 187.5Q631.5 188.0 631.5 190.5Q631.5 192.5 628.0 195.75Q624.5 199.0 614.0 205.25Q603.5 211.5 582.0 223.0L547.0 242.0L592.0 243.5Q623.0 244.0 639.75 247.0Q656.5 250.0 656.5 254.0Q656.5 257.5 641.5 260.0Q626.5 262.5 596.5 262.5Q575.5 262.5 558.5 262.75Q541.5 263.0 535.0 264.0Q539.0 268.0 549.75 276.25Q560.5 284.5 573.5 293.5Q625.0 327.0 625.0 336.0Q625.0 340.5 618.0 340.5Q617.0 340.5 608.5 336.0Q600.0 331.5 587.5 323.75Q575.0 316.0 561.5 307.0Q541.5 293.5 524.0 283.25Q506.5 273.0 502.5 273.0Q499.5 273.0 498.0 274.5Q496.5 276.0 496.5 281.5Q496.5 285.0 497.0 291.0Q497.5 297.0 498.5 305.0Q499.5 319.0 500.5 335.25Q501.5 351.5 501.5 360.5V379.5H677.0L672.5 276.5Q670.5 226.5 667.5 191.75Q664.5 157.0 659.5 141.5ZM337.5 108.0 292.0 97.0Q281.0 93.5 267.0 88.5Q253.0 83.5 243.0 79.5L227.0 72.0L225.0 103.5V106.0Q223.5 121.5 223.5 133.0V137.5Q228.0 136.5 235.75 134.75Q243.5 133.0 251.5 129.5Q263.5 125.5 283.25 120.25Q303.0 115.0 318.5 112.0Q325.5 111.0 331.0 109.75Q336.5 108.5 340.0 108.0Q339.5 108.0 339.0 108.0Q338.5 108.0 337.5 108.0ZM490.5 208.5 501.5 179.0Q507.0 166.0 511.75 155.75Q516.5 145.5 518.5 142.0Q514.0 142.0 510.0 142.0Q506.0 142.0 501.5 142.5H496.5Q487.5 143.0 483.5 144.0Q479.5 145.0 479.5 148.5Q479.5 152.0 481.0 159.0Q482.0 162.5 483.25 168.5Q484.5 174.5 485.0 180.5Q487.0 184.0 487.0 188.0ZM676.5 122.0Q676.5 117.0 675.75 113.5Q675.0 110.0 673.0 110.0Q671.0 110.0 671.0 114.0Q671.0 120.5 676.0 127.5L676.5 128.5Q676.5 127.5 676.5 125.75Q676.5 124.0 676.5 122.0ZM697.0 61.5 711.5 33.0H676.0L639.0 32.5L644.5 46.0Q654.0 68.5 661.25 80.5Q668.5 92.5 673.5 92.5Q678.0 92.5 684.0 84.0Q690.0 75.5 697.0 61.5ZM84.0 373.0Q70.0 369.5 58.0 365.75Q46.0 362.0 41.5 360.5L40.5 360.0H40.0Q36.5 360.0 36.5 390.0L36.0 422.0L63.5 416.0Q77.0 412.5 99.75 408.25Q122.5 404.0 141.0 401.5Q155.0 399.0 167.25 396.75Q179.5 394.5 185.0 393.0Q182.0 392.0 174.75 391.0Q167.5 390.0 158.5 389.0Q148.5 388.0 134.75 385.75Q121.0 383.5 107.5 380.0Q94.0 376.5 84.0 373.0ZM362.0 359.5 395.5 328.5Q412.5 315.5 421.5 304.5L420.5 305.0Q419.0 305.5 417.0 306.0Q415.0 306.5 412.5 307.5Q410.5 308.0 407.25 308.75Q404.0 309.5 400.5 310.5Q389.5 314.0 376.75 316.25Q364.0 318.5 357.0 318.5Q345.5 318.5 345.5 320.5Q345.5 324.5 352.0 337.0ZM484.0 379.5 483.5 352.5Q483.5 341.0 482.5 326.75Q481.5 312.5 479.5 303.0L476.5 285.0L448.0 309.0Q427.5 325.0 410.25 339.75Q393.0 354.5 382.5 364.75Q372.0 375.0 372.0 378.0Q372.0 378.5 388.75 379.0Q405.5 379.5 428.5 379.5ZM615.0 15.0Q615.0 10.0 623.5 10.0Q624.5 10.0 626.25 10.25Q628.0 10.5 630.0 11.0Q635.5 13.0 653.5 13.75Q671.5 14.5 691.5 14.5H707.5Q726.5 14.5 734.5 16.5Q742.5 18.5 742.5 23.5Q742.5 29.5 734.5 36.5Q731.0 40.0 724.5 49.5Q718.0 59.0 712.5 70.0L701.0 93.5H721.5Q749.0 93.5 749.0 101.5Q749.0 109.0 720.5 110.5L696.0 112.0L692.0 136.0Q690.0 149.0 689.0 175.0Q688.0 201.0 688.0 231.5Q688.0 256.5 688.5 283.0Q689.0 309.5 690.5 330.5Q692.0 351.5 693.25 362.0Q694.5 372.5 696.5 376.0Q698.5 379.5 701.5 379.5Q715.5 379.5 715.5 388.5Q715.5 391.5 711.5 394.25Q707.5 397.0 701.0 397.0Q696.0 397.0 694.5 400.25Q693.0 403.5 693.0 413.5Q693.0 422.5 690.5 429.25Q688.0 436.0 684.0 436.0Q681.0 436.0 678.75 429.25Q676.5 422.5 676.5 413.5V397.0L491.5 397.5Q402.0 397.5 338.25 399.25Q274.5 401.0 240.5 404.25Q206.5 407.5 205.0 412.5Q204.0 414.5 200.5 415.5Q197.0 416.5 193.0 416.5Q190.5 416.5 187.5 416.25Q184.5 416.0 181.5 415.5H178.0Q168.0 415.5 144.75 418.75Q121.5 422.0 89.5 428.25Q57.5 434.5 21.0 443.5Q17.5 443.5 13.75 442.5Q10.0 441.5 10.0 436.0Q10.0 433.5 11.0 432.0V432.5Q15.5 414.5 17.5 403.0Q19.5 391.5 19.5 381.5Q19.5 377.5 19.25 372.5Q19.0 367.5 18.0 362.5L17.5 358.0Q17.0 354.5 17.0 351.75Q17.0 349.0 17.0 347.0Q17.0 335.5 24.0 335.5Q27.0 335.5 30.5 337.0Q37.0 340.0 49.25 344.25Q61.5 348.5 75.0 352.75Q88.5 357.0 98.5 360.0Q108.5 363.0 110.5 363.0Q111.0 363.0 111.75 345.5Q112.5 328.0 112.5 305.0Q112.5 284.5 111.75 270.0Q111.0 255.5 108.75 242.75Q106.5 230.0 102.75 216.25Q99.0 202.5 93.0 184.5Q82.5 158.0 82.5 148.5Q82.5 141.5 86.75 138.75Q91.0 136.0 100.5 136.0Q104.5 136.0 110.5 136.5Q116.5 137.0 123.0 138.0Q126.5 138.0 130.25 138.25Q134.0 138.5 137.5 138.5L140.0 139.0Q162.0 140.5 175.5 140.5Q196.0 140.5 202.25 134.0Q208.5 127.5 208.5 109.5Q208.5 105.5 208.5 100.25Q208.5 95.0 207.5 89.0V78.0Q207.5 65.0 209.0 56.25Q210.5 47.5 213.5 47.5Q215.0 48.0 225.25 52.25Q235.5 56.5 248.5 62.0Q267.0 70.5 285.0 76.5Q303.0 82.5 324.75 86.0Q346.5 89.5 376.75 91.0Q407.0 92.5 450.5 92.5Q456.0 92.5 461.75 92.25Q467.5 92.0 474.0 91.5H502.5L645.5 90.0L630.0 58.5Q623.5 43.5 619.25 30.75Q615.0 18.0 615.0 15.0Z" fill="black" /></svg>