<svg xmlns="http://www.w3.org/2000/svg" width="381.5" height="381.5" viewBox="0 0 381.5 381.5"><path d="M82.5 136.0Q81.5 133.5 80.25 130.75Q79.0 128.0 78.0 126.5Q77.5 127.5 76.5 129.0Q75.5 130.5 74.0 133.0Q71.5 135.0 68.5 139.0Q65.5 143.0 62.0 147.0L59.5 150.5L41.0 171.0L52.0 173.5Q58.0 174.0 70.0 176.25Q82.0 178.5 91.5 181.0Q106.0 184.0 114.5 185.0Q113.0 182.5 109.75 178.0Q106.5 173.5 102.5 168.5Q96.5 161.0 90.75 151.5Q85.0 142.0 82.5 136.0ZM173.5 107.5Q173.0 107.5 172.5 107.5Q172.0 107.5 171.0 107.5Q170.0 107.5 168.25 107.5Q166.5 107.5 165.0 108.0Q157.0 108.0 157.0 112.0Q157.0 114.0 158.0 117.5Q159.0 121.0 160.5 126.0L162.5 132.0L167.0 121.5Q169.5 117.5 171.0 113.75Q172.5 110.0 173.5 107.5ZM192.5 153.0Q188.5 140.0 185.25 130.75Q182.0 121.5 181.5 121.5Q179.5 121.5 177.0 130.75Q174.5 140.0 173.0 153.5Q171.5 167.0 171.5 180.5V206.0L187.5 215.5L202.5 223.5L201.5 206.0Q201.0 196.0 199.5 182.5Q198.0 169.0 192.5 153.0ZM211.5 134.0 213.0 130.5Q215.5 127.5 215.5 125.5H197.5L203.0 140.0Q205.5 147.5 206.0 149.5Q207.0 145.5 208.5 141.25Q210.0 137.0 211.5 134.0ZM253.0 102.5Q239.0 94.5 229.0 92.5Q219.0 90.5 201.0 90.5Q184.0 91.0 172.25 92.25Q160.5 93.5 158.0 94.5Q159.5 95.5 164.0 95.5Q166.5 95.5 169.5 95.25Q172.5 95.0 175.0 94.5L178.5 94.0Q180.5 93.5 182.25 93.5Q184.0 93.5 185.0 93.5Q191.5 93.5 191.5 99.0Q191.5 102.0 191.0 103.5L190.5 105.0Q190.5 105.5 190.25 106.0Q190.0 106.5 190.0 107.0Q190.0 109.5 200.0 112.0H222.0Q226.0 110.5 229.5 110.5Q234.0 110.5 234.0 114.5Q234.0 116.5 231.75 121.75Q229.5 127.0 225.5 136.0Q222.0 143.0 220.0 149.5Q218.0 156.0 217.25 166.0Q216.5 176.0 216.5 193.0V233.0L313.5 290.0L314.5 250.5V234.5Q314.5 215.5 312.75 203.5Q311.0 191.5 305.5 174.0Q299.0 153.0 292.25 139.75Q285.5 126.5 276.5 118.0Q267.5 109.5 253.0 102.5ZM123.5 71.0 133.0 48.0 118.0 46.0H101.5Q102.5 49.5 105.25 58.25Q108.0 67.0 111.75 76.0Q115.5 85.0 117.5 90.0Q118.5 86.0 120.0 81.0Q121.5 76.0 123.5 71.0ZM215.0 76.5 210.5 72.0Q207.0 69.0 203.5 61.75Q200.0 54.5 198.0 48.0L194.5 39.0L183.0 57.0Q180.5 61.5 177.75 66.25Q175.0 71.0 172.5 74.0L171.5 75.5Q170.0 77.5 169.75 78.0Q169.5 78.5 169.5 79.0Q175.0 79.0 181.25 78.75Q187.5 78.5 193.5 78.0ZM346.0 106.0Q343.5 106.5 335.75 106.5Q328.0 106.5 317.5 106.5H290.5L297.5 120.5Q301.5 128.5 305.75 138.25Q310.0 148.0 312.0 155.0Q314.0 159.5 315.5 163.5Q317.0 167.5 317.5 167.5Q318.0 167.5 319.25 163.0Q320.5 158.5 322.0 152.5Q326.0 140.0 332.5 128.5Q339.0 117.0 346.0 106.0ZM186.5 25.5Q195.5 10.0 201.0 10.0Q207.0 10.0 207.0 26.0Q207.0 37.0 212.75 49.25Q218.5 61.5 226.5 68.5Q232.0 73.5 241.25 79.5Q250.5 85.5 259.0 90.0Q267.5 94.5 270.0 94.5V95.0Q273.5 93.5 282.5 93.0Q291.5 92.5 302.5 92.5Q317.0 92.5 332.25 93.25Q347.5 94.0 358.75 95.0Q370.0 96.0 371.5 98.0Q371.5 98.0 367.75 103.0Q364.0 108.0 359.0 113.5Q353.5 118.5 347.25 127.5Q341.0 136.5 338.5 143.5Q335.5 149.5 333.75 156.0Q332.0 162.5 331.25 174.25Q330.5 186.0 330.25 207.25Q330.0 228.5 330.0 264.0V278.0Q330.0 323.5 328.0 347.5Q326.0 371.5 323.0 371.5Q318.5 371.5 316.0 337.0Q315.5 330.0 315.25 322.75Q315.0 315.5 315.0 311.0Q314.5 308.5 314.5 307.0Q314.5 305.5 314.5 305.5Q314.5 305.5 305.25 300.0Q296.0 294.5 283.0 287.0Q280.0 285.5 276.75 283.5Q273.5 281.5 269.5 279.5Q268.0 279.0 266.5 278.0Q265.0 277.0 263.5 276.5L216.5 248.5L216.0 271.5Q214.5 300.0 208.5 300.0Q202.5 300.0 202.5 268.5V240.0L171.5 221.0V250.0Q171.5 283.5 165.0 283.5H164.0Q162.5 282.5 161.0 271.0Q159.5 259.5 159.5 245.5V214.0L147.0 208.5Q144.5 207.5 141.75 206.75Q139.0 206.0 137.0 205.5L134.5 205.0Q131.5 203.5 130.5 203.5Q130.0 203.5 129.25 213.75Q128.5 224.0 128.5 241.5Q128.5 261.5 127.0 273.25Q125.5 285.0 122.0 285.0Q119.5 285.0 118.0 273.0Q116.5 261.0 116.5 240.5V200.0L96.0 195.0Q86.5 192.0 71.75 189.5Q57.0 187.0 45.0 186.0L10.0 182.5L32.0 160.5Q39.0 153.0 48.25 141.75Q57.5 130.5 64.0 122.0Q71.0 113.0 74.75 108.5Q78.5 104.0 82.0 104.0Q86.5 104.0 89.0 115.5Q89.5 120.5 94.5 131.0Q99.5 141.5 105.75 151.25Q112.0 161.0 115.5 164.0Q116.0 165.0 116.5 165.0Q116.5 149.0 112.75 129.25Q109.0 109.5 103.25 90.0Q97.5 70.5 91.0 56.0Q88.5 50.0 87.0 44.25Q85.5 38.5 85.5 37.0Q85.5 35.0 95.75 33.5Q106.0 32.0 120.0 32.0Q134.5 32.0 145.0 33.5Q155.5 35.0 155.5 37.5V38.5Q154.5 39.5 153.0 43.0Q145.0 57.0 140.5 66.25Q136.0 75.5 133.75 84.0Q131.5 92.5 130.5 103.5Q129.5 114.5 129.0 131.0L127.5 178.0L157.5 197.0L158.5 185.5V182.5Q158.5 174.0 156.0 160.5Q153.5 147.0 149.75 133.5Q146.0 120.0 141.5 112.0Q137.5 105.5 137.5 101.5Q137.5 97.5 144.0 94.5L145.0 93.5Q146.0 92.5 146.5 92.25Q147.0 92.0 147.5 91.5V91.0Q147.5 89.5 151.5 81.5Q155.5 73.5 162.0 65.5L165.5 60.0Q171.5 50.5 177.5 40.75Q183.5 31.0 186.5 25.5Z" fill="black" /></svg>