<svg xmlns="http://www.w3.org/2000/svg" width="512.0" height="464.0" viewBox="0 0 512.0 464.0"><path d="M89.0 325.0Q85.5 324.0 75.25 320.5Q65.0 317.0 53.5 313.0L31.0 304.0V321.0Q31.0 330.0 31.25 337.5Q31.5 345.0 32.0 346.0H35.0Q39.0 346.0 45.75 344.75Q52.5 343.5 60.0 341.0Q64.0 338.5 71.5 336.75Q79.0 335.0 84.0 334.5Q88.0 333.5 91.0 331.75Q94.0 330.0 94.0 329.5Q94.0 328.5 92.25 327.0Q90.5 325.5 89.0 325.0ZM114.0 329.0H113.5Q109.5 329.0 109.5 330.0L110.0 331.5Q112.5 331.5 114.0 329.0ZM105.0 164.0Q107.5 157.5 109.0 152.0Q110.5 146.5 111.0 143.0Q108.5 143.0 104.5 144.0Q102.0 144.0 94.75 146.0Q87.5 148.0 87.5 152.0Q87.5 152.5 88.0 154.25Q88.5 156.0 89.0 157.0Q90.5 162.5 92.5 171.0Q94.5 179.5 96.0 186.5Q96.5 187.5 96.5 188.5Q96.5 189.5 97.0 190.5Q98.5 185.0 100.75 178.0Q103.0 171.0 105.0 164.0ZM182.0 179.5Q180.0 180.0 176.0 180.0Q172.0 180.0 167.5 180.0Q164.0 180.0 160.5 180.0Q157.0 180.0 155.0 179.5Q155.0 180.0 156.5 184.0Q157.5 187.5 159.5 192.5Q161.5 197.5 163.0 203.0L167.0 216.0L173.5 201.5Q174.5 199.5 175.0 197.5Q175.5 195.5 176.0 193.5Q177.0 191.5 177.75 189.75Q178.5 188.0 179.0 187.0Q181.5 181.5 182.0 179.5ZM256.0 183.5Q256.0 180.0 243.0 180.0H231.0L242.5 216.0L247.5 206.5Q251.0 199.0 253.5 192.0Q256.0 185.0 256.0 183.5ZM409.0 145.5 399.5 125.0 294.5 126.0Q154.5 127.0 132.5 140.0Q126.0 144.5 120.75 162.25Q115.5 180.0 112.5 205.5Q109.5 231.0 109.5 259.0V312.5L130.0 316.0Q134.5 316.0 138.5 317.0Q148.5 318.5 153.5 318.5Q160.5 318.5 161.75 313.5Q163.0 308.5 163.0 297.5V292.5Q163.0 271.0 157.25 243.25Q151.5 215.5 142.0 188.5Q135.5 174.5 135.5 167.5Q135.5 164.0 138.5 164.0Q141.0 163.5 144.5 163.5Q148.0 163.5 152.5 163.5Q156.5 163.5 161.5 163.5Q166.5 163.5 171.5 164.0L208.0 165.5L194.0 195.5Q188.5 204.5 185.75 213.5Q183.0 222.5 181.5 235.25Q180.0 248.0 179.0 268.5L177.5 318.0H238.5L236.5 278.0Q235.5 251.5 229.5 228.0Q223.5 204.5 211.0 173.5Q210.5 172.0 210.5 169.0Q210.5 163.0 222.5 163.0Q225.5 163.0 228.75 163.0Q232.0 163.0 236.5 163.5L243.0 164.0Q250.5 164.5 257.25 164.75Q264.0 165.0 268.0 165.5L271.5 166.5Q273.5 167.0 275.25 167.0Q277.0 167.0 279.0 167.0Q279.0 167.5 276.25 176.5Q273.5 185.5 268.5 197.0Q264.0 206.5 261.5 215.25Q259.0 224.0 258.25 236.25Q257.5 248.5 256.5 268.5L255.5 315.5L307.0 318.0L305.5 281.0Q304.5 260.0 301.25 241.5Q298.0 223.0 291.0 205.0Q286.0 191.0 282.5 179.5Q279.0 168.0 279.0 166.5V165.0Q280.5 163.0 288.5 163.0Q293.0 163.0 300.0 163.25Q307.0 163.5 315.0 164.0L351.0 165.5L336.5 195.5Q331.5 204.5 328.75 213.0Q326.0 221.5 324.75 234.0Q323.5 246.5 322.5 268.5L320.0 318.0H441.5L439.5 271.0Q437.5 237.0 430.5 207.25Q423.5 177.5 409.0 145.5ZM96.5 109.5Q84.0 104.5 74.5 102.5L64.0 98.5Q62.0 97.0 60.5 96.5Q59.0 96.0 58.0 95.5Q57.0 94.5 56.0 94.5Q54.0 94.5 53.5 99.25Q53.0 104.0 53.0 117.0Q53.0 131.5 53.75 137.0Q54.5 142.5 57.0 142.5L57.5 141.5H58.5Q60.5 141.0 62.5 138.25Q64.5 135.5 65.0 132.5Q66.0 128.0 68.25 124.5Q70.5 121.0 73.5 121.0Q75.5 121.0 77.0 122.5Q78.5 123.5 85.0 124.0Q91.5 124.5 99.5 124.5Q111.0 124.5 122.5 123.5Q134.0 122.5 137.5 120.5H135.5Q132.5 120.5 120.75 117.25Q109.0 114.0 96.5 109.5ZM324.0 179.5Q322.0 180.0 318.75 180.0Q315.5 180.0 311.0 180.0Q299.5 180.0 299.5 181.5L300.5 183.5Q302.0 187.0 304.5 194.75Q307.0 202.5 308.5 209.0L310.5 216.0L315.5 203.0Q317.0 198.5 318.5 194.25Q320.0 190.0 321.5 187.5L323.5 181.5Q323.5 181.0 323.75 180.5Q324.0 180.0 324.0 179.5ZM467.5 126.5Q467.5 126.0 460.25 125.5Q453.0 125.0 443.0 125.0Q429.5 125.0 424.5 125.25Q419.5 125.5 419.5 126.5Q419.5 128.0 420.0 129.0Q421.5 132.5 423.5 138.0L426.5 145.0Q429.5 156.5 435.0 169.0L442.5 192.0L445.5 180.5Q448.0 172.0 451.5 162.0Q455.0 152.0 460.0 144.5Q463.0 139.0 465.25 133.75Q467.5 128.5 467.5 126.5ZM458.0 28.0Q456.0 28.5 451.25 28.5Q446.5 28.5 440.5 28.5H426.5L440.5 44.0L449.0 36.0Q452.0 33.5 454.5 31.25Q457.0 29.0 458.0 28.0ZM384.5 16.5Q384.5 14.0 401.75 12.0Q419.0 10.0 443.0 10.0Q473.5 10.5 487.75 12.5Q502.0 14.5 502.0 18.5Q502.0 22.5 498.0 25.5Q494.0 28.5 489.0 30.5Q485.0 31.0 478.25 35.0Q471.5 39.0 467.5 42.5Q462.5 46.5 460.0 50.25Q457.5 54.0 456.75 61.0Q456.0 68.0 456.0 83.0V112.5L465.5 111.0H472.0Q477.5 111.0 481.5 111.25Q485.5 111.5 488.0 112.0Q492.0 113.5 493.75 114.75Q495.5 116.0 495.5 119.5Q495.5 121.0 493.75 123.75Q492.0 126.5 489.0 131.0Q484.0 134.5 478.5 143.75Q473.0 153.0 468.5 161.0Q465.0 167.5 463.0 174.75Q461.0 182.0 459.5 195.75Q458.0 209.5 457.5 234.75Q457.0 260.0 456.5 303.5Q456.5 341.0 455.0 369.5Q453.5 398.0 451.75 414.0Q450.0 430.0 448.0 430.0Q444.0 430.0 442.0 415.25Q440.0 400.5 440.0 378.5V332.5H322.0V372.0Q322.0 391.0 320.0 403.75Q318.0 416.5 314.0 416.5Q310.0 416.5 308.0 403.75Q306.0 391.0 306.0 372.0V332.5L255.5 335.5L256.5 372.5V381.5Q256.5 397.0 254.75 406.75Q253.0 416.5 250.5 416.5Q247.5 416.5 244.5 405.5Q241.5 394.5 239.75 378.25Q238.0 362.0 238.0 346.5V332.5H178.0V372.0Q178.0 391.0 176.0 403.75Q174.0 416.5 170.5 416.5Q167.0 416.5 165.0 404.25Q163.0 392.0 163.0 373.5V336.5L140.5 340.0Q129.5 341.0 121.25 342.75Q113.0 344.5 111.0 345.0Q110.5 347.0 110.0 362.0Q109.5 377.0 109.5 397.5Q109.5 422.5 107.5 438.25Q105.5 454.0 101.5 454.0Q98.0 454.0 96.0 439.25Q94.0 424.5 94.0 399.5V350.0H93.0Q89.0 350.0 79.25 352.0Q69.5 354.0 58.0 357.0Q41.5 362.0 31.25 364.0Q21.0 366.0 17.0 366.0Q10.0 366.0 10.0 361.5Q10.0 360.5 10.0 359.0Q10.0 357.5 10.5 356.5V357.0Q11.5 354.5 12.25 343.0Q13.0 331.5 13.0 318.5Q14.0 304.5 16.25 294.25Q18.5 284.0 22.0 284.0Q24.5 284.5 32.5 287.5Q40.5 290.5 49.0 294.0Q56.5 298.5 67.25 302.25Q78.0 306.0 84.5 308.0L96.0 310.0L93.5 272.0Q92.0 257.5 89.25 238.5Q86.5 219.5 82.75 201.25Q79.0 183.0 75.75 170.0Q72.5 157.0 70.5 155.0H70.0Q66.5 155.0 60.5 156.5L53.5 157.5Q50.5 159.0 47.0 160.0Q43.5 161.0 41.0 161.5L37.0 159.5Q37.0 154.0 37.25 140.5Q37.5 127.0 38.5 111.75Q39.5 96.5 41.75 85.75Q44.0 75.0 48.0 75.0H49.0Q72.0 85.5 90.0 92.25Q108.0 99.0 127.5 102.75Q147.0 106.5 173.0 108.0Q199.0 109.5 238.0 109.5Q253.5 109.5 270.25 109.5Q287.0 109.5 307.0 109.0L438.5 107.0L439.5 90.5Q439.0 68.5 429.5 55.75Q420.0 43.0 402.5 32.0Q396.0 28.5 390.25 23.5Q384.5 18.5 384.5 16.5Z" fill="black" /></svg>