<svg xmlns="http://www.w3.org/2000/svg" width="522.0" height="466.0" viewBox="0 0 522.0 466.0"><path d="M66.0 220.0 53.5 206.5Q47.5 200.5 41.25 192.75Q35.0 185.0 32.5 181.0Q32.5 194.0 31.5 207.0Q30.5 220.0 29.0 233.0L26.5 258.5ZM176.0 276.0V261.0Q175.5 254.0 174.75 249.25Q174.0 244.5 174.0 244.5Q170.0 246.0 160.25 252.0Q150.5 258.0 146.5 262.0Q148.0 264.0 153.75 268.0Q159.5 272.0 166.25 275.5Q173.0 279.0 177.0 280.5Q177.0 279.0 176.0 276.0ZM243.5 339.0Q259.5 331.0 272.75 322.25Q286.0 313.5 287.0 309.0V308.5Q284.5 304.0 276.0 296.5Q267.5 289.0 256.25 281.25Q245.0 273.5 234.25 267.75Q223.5 262.0 217.0 260.5Q195.0 257.5 195.0 250.5Q195.0 245.0 212.0 240.5Q224.0 238.0 224.0 236.0Q224.0 234.5 220.25 230.5Q216.5 226.5 212.5 223.0Q208.5 219.5 207.0 219.5Q207.0 219.5 200.0 228.0Q195.0 233.5 193.25 239.75Q191.5 246.0 191.5 253.0Q191.5 267.5 200.5 284.25Q209.5 301.0 226.5 315.0Q244.0 330.0 244.0 336.0Q244.0 338.5 243.5 339.0ZM194.5 188.0Q194.0 184.5 192.75 178.25Q191.5 172.0 190.5 166.0L188.5 158.5L177.5 166.5Q174.0 169.5 171.25 172.0Q168.5 174.5 167.0 176.0Q168.0 176.0 168.5 176.25Q169.0 176.5 170.0 177.0Q173.0 179.5 176.5 181.5Q180.0 183.5 183.5 185.0Q187.5 187.5 190.25 189.0Q193.0 190.5 194.5 191.5Q194.5 190.5 194.5 189.75Q194.5 189.0 194.5 188.0ZM270.5 263.5V255.0Q269.5 247.0 268.25 240.75Q267.0 234.5 265.0 233.0Q260.5 234.0 252.25 238.75Q244.0 243.5 240.0 247.5Q241.0 249.5 247.25 254.75Q253.5 260.0 261.0 265.25Q268.5 270.5 272.0 272.0Q271.5 271.0 271.5 269.0Q271.5 268.0 271.5 266.5Q271.5 265.0 270.5 263.5ZM381.0 199.0V199.5Q382.0 196.5 383.25 193.75Q384.5 191.0 385.0 188.5Q378.0 191.0 367.0 196.0Q356.0 201.0 347.5 205.5Q339.0 210.0 339.0 211.5Q339.0 212.0 344.75 216.25Q350.5 220.5 357.5 225.5L372.5 235.5V228.5Q372.5 223.0 375.0 214.25Q377.5 205.5 381.0 199.0ZM249.0 62.0Q249.0 57.5 248.75 54.25Q248.5 51.0 248.5 51.0Q246.5 51.0 240.5 54.25Q234.5 57.5 227.5 61.75Q220.5 66.0 215.5 69.75Q210.5 73.5 210.5 75.0Q210.5 75.5 218.25 79.75Q226.0 84.0 236.0 89.5L256.0 100.0L253.5 92.0Q252.0 85.0 250.5 76.25Q249.0 67.5 249.0 62.0ZM483.5 39.0Q482.5 38.0 473.0 37.5Q463.5 37.0 451.0 37.0H425.0L431.0 50.0Q436.0 61.0 438.25 67.75Q440.5 74.5 442.25 81.0Q444.0 87.5 446.5 98.0L451.0 114.0L457.0 94.5Q461.0 82.5 466.75 69.5Q472.5 56.5 477.5 50.5Q481.5 44.5 483.5 39.0ZM175.0 389.5 181.0 406.5 211.0 368.5 189.5 369.0Q182.0 369.0 176.0 369.0Q170.0 369.0 167.5 368.5Q168.5 371.0 170.75 376.75Q173.0 382.5 175.0 389.5ZM190.5 135.5Q201.5 125.5 211.5 118.75Q221.5 112.0 224.0 112.0H225.0Q227.5 114.0 227.5 116.5Q227.5 122.5 217.0 138.5Q213.0 144.0 209.75 151.25Q206.5 158.5 205.5 163.5Q206.5 171.0 211.25 182.5Q216.0 194.0 222.0 204.5Q228.0 215.0 233.5 220.0Q238.0 225.0 241.5 225.0Q246.5 225.0 257.25 218.25Q268.0 211.5 288.5 196.0Q295.5 191.5 299.0 191.5Q304.5 191.5 304.5 196.0Q304.5 203.0 293.0 213.5Q288.0 218.0 286.25 222.25Q284.5 226.5 284.5 235.0Q284.5 247.5 287.25 262.0Q290.0 276.5 296.5 288.5L305.0 300.5L336.0 280.0Q360.5 262.5 368.5 262.5Q372.5 262.5 372.5 267.0V267.5Q372.0 270.0 363.0 278.0Q354.0 286.0 343.5 293.0Q332.0 301.0 326.25 305.75Q320.5 310.5 320.5 313.5Q320.5 317.0 327.5 323.0Q331.0 327.0 332.25 330.25Q333.5 333.5 333.5 335.5Q333.5 341.0 328.5 341.0Q326.0 341.0 321.25 338.75Q316.5 336.5 311.5 332.0L301.5 322.0L282.0 334.0Q241.0 362.5 216.0 390.25Q191.0 418.0 191.0 437.0Q191.0 456.0 184.5 456.0Q177.0 456.0 165.0 414.0Q161.0 398.0 155.0 383.5Q149.0 369.0 144.5 364.5Q140.5 359.5 138.0 353.75Q135.5 348.0 135.5 345.0Q135.5 337.0 142.5 337.0Q150.0 337.0 154.0 345.5Q156.0 349.0 164.25 351.25Q172.5 353.5 184.0 353.5Q214.0 353.5 241.0 340.0Q241.0 340.0 240.75 340.0Q240.5 340.0 240.0 340.0Q233.5 340.0 207.0 320.5Q151.5 279.0 122.0 279.0Q100.5 279.0 100.5 271.5Q100.5 268.5 107.5 263.5Q114.5 258.5 127.0 253.0Q151.0 241.5 152.5 237.0Q150.5 235.0 131.0 235.0Q105.0 235.0 87.75 237.5Q70.5 240.0 58.0 251.25Q45.5 262.5 32.5 289.0Q27.0 300.0 21.75 307.25Q16.5 314.5 14.0 314.5Q13.0 314.5 12.0 313.75Q11.0 313.0 10.5 312.5Q10.0 310.0 10.0 302.0Q10.0 294.5 10.5 281.5Q11.0 268.5 12.0 256.0Q13.5 241.5 14.5 225.0Q15.5 208.5 16.25 194.0Q17.0 179.5 17.0 170.5Q17.0 155.5 19.0 145.0Q21.0 134.5 24.0 134.5Q26.5 135.0 31.75 142.25Q37.0 149.5 42.5 160.0Q46.5 170.5 56.5 183.5Q66.5 196.5 75.0 203.5Q85.0 213.0 91.5 217.25Q98.0 221.5 107.25 222.5Q116.5 223.5 134.0 223.5Q160.0 223.0 174.75 219.25Q189.5 215.5 189.5 208.5Q189.5 206.0 181.25 201.25Q173.0 196.5 162.5 192.75Q152.0 189.0 144.5 189.0Q126.5 189.0 126.5 183.0Q126.5 177.5 146.0 167.5Q153.5 163.5 167.0 154.25Q180.5 145.0 190.5 135.5ZM251.5 25.5Q255.5 19.0 262.5 14.5Q269.5 10.0 274.0 10.0Q279.5 10.0 281.5 10.75Q283.5 11.5 283.5 15.0Q283.5 17.5 276.0 27.5Q270.5 33.0 268.0 40.75Q265.5 48.5 265.5 58.0Q265.5 89.5 279.0 112.25Q292.5 135.0 313.5 156.0L345.5 191.0L369.5 178.5Q380.5 173.0 392.25 166.25Q404.0 159.5 409.0 154.5Q421.5 145.0 426.5 145.0Q431.0 145.0 431.0 150.0Q431.0 151.5 428.75 156.25Q426.5 161.0 421.5 167.0Q406.0 186.0 397.0 204.75Q388.0 223.5 388.0 236.0Q388.0 242.5 390.5 245.0Q393.5 247.0 396.0 251.5Q398.5 256.0 398.5 258.5Q398.5 260.5 406.25 271.5Q414.0 282.5 424.5 295.5L444.5 320.5L445.5 245.5Q445.5 217.0 444.75 193.25Q444.0 169.5 441.25 147.5Q438.5 125.5 432.0 102.75Q425.5 80.0 414.0 53.5Q402.5 26.0 402.5 18.0Q402.5 12.0 408.0 12.0Q409.0 12.0 410.5 13.0Q412.0 14.0 414.0 15.0L416.0 16.0Q419.5 18.5 431.75 20.5Q444.0 22.5 465.0 22.5Q484.0 22.5 498.0 23.0Q512.0 23.5 512.0 26.5Q512.0 28.5 508.0 34.75Q504.0 41.0 501.5 43.5Q493.5 54.5 484.5 69.75Q475.5 85.0 471.5 98.0Q469.5 103.0 468.0 127.75Q466.5 152.5 465.25 191.0Q464.0 229.5 463.25 277.0Q462.5 324.5 462.5 375.0Q462.5 380.0 460.0 383.5Q457.5 387.0 454.5 387.0Q451.5 387.0 449.0 381.5Q446.5 376.0 446.5 368.0Q446.5 359.5 438.75 345.0Q431.0 330.5 418.0 313.25Q405.0 296.0 389.5 279.25Q374.0 262.5 358.25 248.75Q342.5 235.0 329.5 227.5Q307.0 214.0 306.0 208.5Q308.0 204.0 317.0 202.5Q321.5 201.0 325.0 199.25Q328.5 197.5 328.5 196.5Q328.5 194.0 321.25 185.75Q314.0 177.5 302.5 166.25Q291.0 155.0 278.25 143.25Q265.5 131.5 254.25 121.75Q243.0 112.0 236.0 107.5Q217.0 94.5 186.0 91.5L144.5 87.0L198.5 59.5Q216.5 51.0 231.75 40.75Q247.0 30.5 251.5 25.5Z" fill="black" /></svg>