<svg xmlns="http://www.w3.org/2000/svg" width="838.0" height="386.5" viewBox="0 0 838.0 386.5"><path d="M248.0 312.0Q245.0 312.0 238.5 311.75Q232.0 311.5 225.0 311.5Q205.0 311.5 200.5 312.75Q196.0 314.0 196.0 319.5Q197.0 338.5 201.5 338.5Q205.0 338.5 210.5 335.75Q216.0 333.0 224.0 328.0L231.5 322.5Q236.5 319.0 241.0 316.25Q245.5 313.5 248.0 312.0ZM119.5 198.5Q123.5 193.0 126.25 188.75Q129.0 184.5 130.5 181.0Q125.0 185.5 114.25 194.75Q103.5 204.0 91.0 215.5L52.5 250.0L71.0 253.5Q75.5 254.0 79.5 254.5Q83.5 255.0 86.0 255.0Q93.0 255.0 95.5 251.25Q98.0 247.5 100.0 238.5Q101.0 232.5 106.75 220.5Q112.5 208.5 119.5 198.5ZM232.0 124.0Q229.0 120.0 225.75 117.0Q222.5 114.0 221.0 114.0Q220.0 114.0 217.0 119.25Q214.0 124.5 210.25 132.25Q206.5 140.0 203.75 146.75Q201.0 153.5 200.5 156.5Q201.0 156.5 201.25 156.5Q201.5 156.5 202.0 156.5Q207.5 156.5 218.5 155.25Q229.5 154.0 241.25 152.5Q253.0 151.0 261.25 149.25Q269.5 147.5 269.5 147.0Q269.5 147.0 267.25 146.0Q265.0 145.0 262.0 143.0Q254.5 140.5 246.25 134.75Q238.0 129.0 232.0 124.0ZM560.5 222.5Q560.0 220.0 554.5 212.25Q549.0 204.5 542.0 196.5L527.0 179.0L522.0 191.5Q520.0 197.0 518.5 202.5Q517.0 208.0 517.0 211.5Q517.0 212.5 517.5 212.5Q518.0 214.5 524.5 217.25Q531.0 220.0 539.5 221.5Q552.5 224.5 557.0 224.5Q560.5 224.5 560.5 222.5ZM582.5 89.0 590.5 71.5H578.0Q566.0 71.5 566.0 74.5Q566.0 77.5 567.5 84.5Q569.0 91.5 571.0 97.5Q573.0 103.5 574.0 103.5Q575.0 103.5 577.25 99.5Q579.5 95.5 582.5 89.0ZM648.0 166.5Q648.0 165.5 645.5 161.75Q643.0 158.0 640.0 155.0L634.5 148.0L629.5 161.5Q629.0 163.5 628.5 164.75Q628.0 166.0 628.0 167.0Q628.0 168.5 637.0 168.5Q641.5 168.5 644.75 167.75Q648.0 167.0 648.0 166.5ZM754.0 224.5 713.0 208.5Q696.0 201.5 682.5 196.75Q669.0 192.0 668.0 192.0Q667.5 192.0 667.25 202.25Q667.0 212.5 667.0 225.0Q667.0 238.0 667.75 250.0Q668.5 262.0 670.0 265.0Q672.0 266.5 680.25 270.75Q688.5 275.0 700.0 280.25Q711.5 285.5 723.0 290.5Q734.5 295.5 743.0 298.75Q751.5 302.0 753.5 302.0Q753.5 302.0 753.75 290.5Q754.0 279.0 754.0 263.5ZM672.0 93.5 678.0 81.5H671.0Q666.0 81.5 664.25 83.0Q662.5 84.5 662.5 89.0Q662.5 103.5 665.0 103.5Q667.5 103.5 672.0 93.5ZM678.0 52.5 677.0 49.5Q675.0 44.0 672.5 44.0Q671.5 44.0 669.25 48.75Q667.0 53.5 666.5 57.5H672.5Q679.5 57.5 679.5 57.0Q679.5 55.5 678.0 52.5ZM748.5 104.5 725.0 95.0Q701.5 86.5 697.0 86.5Q693.0 86.5 689.5 91.0Q668.5 120.0 667.5 155.5L669.0 175.5L710.5 192.0Q726.5 198.5 739.25 203.75Q752.0 209.0 754.5 210.0Q754.0 207.5 753.75 202.25Q753.5 197.0 753.5 189.0Q753.5 174.5 752.75 155.75Q752.0 137.0 751.0 126.0ZM790.0 48.5Q786.5 48.5 778.75 47.5Q771.0 46.5 763.5 45.5Q757.0 44.0 750.0 44.0Q750.0 44.5 751.5 48.5Q752.0 49.0 752.0 50.5Q753.0 53.5 753.5 55.5Q754.5 57.5 755.25 60.0Q756.0 62.5 756.5 65.0Q759.0 72.0 760.5 77.5Q763.0 89.5 766.5 93.0Q769.5 90.0 775.25 80.75Q781.0 71.5 786.25 62.0Q791.5 52.5 792.0 49.5Q791.0 48.5 790.0 48.5ZM661.5 32.5Q671.5 10.0 678.0 10.0Q685.0 10.0 685.0 28.5Q685.0 41.0 697.0 52.0Q700.5 55.5 704.75 61.25Q709.0 67.0 709.0 72.0L708.5 72.5Q710.0 74.5 718.25 78.25Q726.5 82.0 735.5 85.0Q744.5 88.0 748.5 88.5Q748.5 83.0 745.0 73.5Q741.5 64.0 736.5 55.25Q731.5 46.5 727.0 43.0Q718.5 38.5 718.5 34.5Q718.5 29.0 731.0 29.0Q737.5 29.0 747.0 30.5Q755.5 32.0 770.25 33.0Q785.0 34.0 797.0 34.0Q828.0 35.0 828.0 42.0Q828.0 45.0 817.5 50.5Q812.0 53.5 803.75 63.75Q795.5 74.0 789.25 84.5Q783.0 95.0 783.0 100.0V101.0Q785.0 105.0 792.0 106.5Q797.5 107.5 801.25 111.25Q805.0 115.0 805.0 119.0Q805.0 124.5 800.0 124.5Q798.0 124.5 794.5 123.5Q791.0 122.5 785.5 120.5Q776.0 116.0 773.0 116.0Q771.5 116.0 769.5 120.0Q768.5 123.5 767.75 145.75Q767.0 168.0 767.0 198.5V218.0L768.5 308.5L785.0 315.5Q793.5 319.0 799.25 322.75Q805.0 326.5 805.0 329.0Q805.0 334.5 798.0 334.5Q792.5 334.5 780.5 329.5Q775.5 326.5 771.5 326.5Q769.5 326.5 767.5 330.0Q764.5 334.5 761.5 334.5Q757.5 334.5 755.5 326.0Q754.5 322.5 747.25 317.75Q740.0 313.0 722.75 305.25Q705.5 297.5 673.5 285.5V285.0Q671.0 286.0 669.5 292.5Q666.5 301.5 663.5 301.5Q661.0 301.5 658.0 291.5L657.0 289.0Q655.5 283.0 651.75 279.25Q648.0 275.5 640.0 271.5Q632.0 267.5 616.5 262.0Q604.0 257.0 592.75 253.75Q581.5 250.5 577.5 250.0Q577.0 251.5 577.0 257.5V267.5Q577.5 270.5 577.75 274.0Q578.0 277.5 578.0 280.5Q578.0 290.0 576.5 296.0Q574.5 299.0 572.0 299.0Q566.5 299.0 565.0 273.5Q563.0 262.5 561.0 252.75Q559.0 243.0 557.0 241.0Q554.5 239.0 544.25 238.0Q534.0 237.0 521.5 237.0Q512.0 237.0 502.25 237.5Q492.5 238.0 484.5 239.5Q478.5 240.5 459.75 247.0Q441.0 253.5 415.0 263.25Q389.0 273.0 360.25 284.5Q331.5 296.0 305.25 307.0Q279.0 318.0 259.5 326.75Q240.0 335.5 232.5 340.0Q222.0 346.0 213.5 353.5Q205.0 361.0 202.5 365.5Q196.5 376.5 192.5 376.5Q187.0 376.5 187.0 362.5Q187.0 353.0 182.0 353.0Q172.5 353.0 172.5 347.5Q172.5 343.5 162.75 333.5Q153.0 323.5 138.25 311.25Q123.5 299.0 108.0 288.0Q92.5 277.0 81.5 271.5Q76.5 269.0 65.75 267.0Q55.0 265.0 44.5 265.0L10.0 263.0L53.5 229.0Q64.0 221.0 79.5 207.5Q95.0 194.0 112.0 178.5Q129.0 163.0 143.0 149.5Q156.5 136.0 168.5 124.5Q180.5 113.0 188.0 106.0Q195.5 99.0 195.5 99.0Q200.5 99.0 200.5 103.0Q200.5 110.5 181.0 136.0Q161.0 161.5 145.5 185.0Q130.0 208.5 121.0 226.25Q112.0 244.0 112.0 253.0Q112.0 257.0 115.0 257.0Q119.5 257.0 119.5 262.5Q119.5 265.0 119.0 266.0Q119.0 269.0 127.0 278.75Q135.0 288.5 146.25 300.5Q157.5 312.5 168.25 322.25Q179.0 332.0 184.0 335.0Q183.5 333.0 183.0 330.0Q182.5 327.0 181.5 323.5Q181.0 322.5 181.0 321.0Q181.0 319.5 180.5 318.5Q180.0 317.0 179.75 315.75Q179.5 314.5 179.5 313.0L176.0 291.0L194.5 295.5Q199.5 297.0 210.75 298.0Q222.0 299.0 234.5 299.0Q236.0 299.0 237.75 299.0Q239.5 299.0 241.0 298.5H248.5Q262.0 298.5 272.5 297.25Q283.0 296.0 295.75 292.25Q308.5 288.5 329.5 280.75Q350.5 273.0 385.0 259.5Q411.5 249.5 433.25 241.0Q455.0 232.5 468.25 227.0Q481.5 221.5 481.5 221.0Q481.5 220.0 469.25 215.5Q457.0 211.0 436.25 204.0Q415.5 197.0 390.0 189.0L297.0 157.0L249.0 164.5Q212.5 170.5 199.5 173.75Q186.5 177.0 186.5 181.0Q186.5 186.5 182.5 186.5Q181.0 186.5 177.5 184.0Q176.0 182.5 176.0 178.5Q176.0 174.0 179.75 164.5Q183.5 155.0 190.0 141.0Q197.5 127.5 203.5 114.75Q209.5 102.0 210.5 97.5Q213.5 85.5 219.0 85.5Q226.5 85.5 233.0 102.0Q237.0 111.5 251.75 120.5Q266.5 129.5 298.75 141.75Q331.0 154.0 387.5 173.5Q410.0 180.5 432.25 188.0Q454.5 195.5 477.0 203.0Q490.5 207.5 493.0 208.5H493.5Q498.0 208.5 511.0 179.0Q525.5 148.5 532.0 148.5Q537.0 148.5 537.0 161.5Q537.0 163.5 541.25 170.25Q545.5 177.0 550.5 183.0L560.5 193.5L559.0 144.0Q558.5 122.0 557.25 109.0Q556.0 96.0 553.75 88.75Q551.5 81.5 547.5 76.0Q543.5 70.5 540.0 65.0Q536.5 59.5 536.5 58.5Q536.5 55.5 545.0 55.5Q552.0 55.5 564.0 56.25Q576.0 57.0 588.5 57.75Q601.0 58.5 610.0 59.5Q619.0 60.5 620.0 61.5V63.0Q620.0 67.5 611.5 75.0Q608.0 78.5 600.75 88.25Q593.5 98.0 588.0 109.0Q582.5 119.5 579.5 127.25Q576.5 135.0 575.5 144.75Q574.5 154.5 574.5 171.0Q574.5 194.0 578.25 208.25Q582.0 222.5 590.25 231.0Q598.5 239.5 612.25 245.5Q626.0 251.5 645.5 258.0Q649.0 259.5 650.5 260.0Q652.0 260.5 652.0 260.5V240.0Q652.0 236.0 652.0 231.75Q652.0 227.5 651.5 222.5Q651.0 203.5 650.25 195.75Q649.5 188.0 647.25 186.0Q645.0 184.0 639.5 183.5Q638.5 183.0 635.5 183.0Q631.0 183.0 626.25 184.25Q621.5 185.5 619.5 187.5L616.5 188.0Q610.5 191.0 607.0 191.0Q604.0 191.0 603.5 188.5V188.0Q603.5 184.0 608.0 172.5Q612.5 161.0 619.25 148.25Q626.0 135.5 632.5 126.25Q639.0 117.0 642.5 117.0Q648.5 117.0 648.5 130.5Q648.5 138.0 652.0 145.0Q652.0 142.0 651.75 133.75Q651.5 125.5 650.75 116.0Q650.0 106.5 648.75 99.25Q647.5 92.0 646.0 91.5Q642.5 90.0 640.75 86.25Q639.0 82.5 639.0 79.0Q639.0 71.5 634.5 69.0Q629.0 65.0 629.0 61.0Q629.0 54.0 639.0 54.0H643.5Q648.5 54.0 652.25 49.5Q656.0 45.0 661.5 32.5Z" fill="black" /></svg>