<svg xmlns="http://www.w3.org/2000/svg" width="768.0" height="462.0" viewBox="0 0 768.0 462.0"><path d="M305.0 268.5 303.0 265.5Q303.0 266.0 302.5 266.75Q302.0 267.5 302.0 268.5Q302.0 269.5 302.5 270.5Q303.0 271.5 303.0 271.5Q305.0 270.5 305.0 268.5ZM305.0 329.0Q305.0 328.5 304.0 327.5Q303.0 326.5 302.0 326.5V329.0Q302.0 330.5 302.5 331.0Q305.0 329.5 305.0 329.0ZM387.0 376.5H420.5L417.0 339.0L380.0 337.0H370.5Q369.0 336.5 367.0 336.5Q365.0 336.5 362.5 336.5Q345.0 336.5 329.25 341.75Q313.5 347.0 298.5 356.0Q304.5 361.0 319.25 365.75Q334.0 370.5 352.25 373.5Q370.5 376.5 387.0 376.5ZM283.5 252.0Q284.0 244.0 285.5 239.25Q287.0 234.5 289.0 234.5Q291.0 234.5 295.75 236.75Q300.5 239.0 305.5 241.75Q310.5 244.5 312.0 246.0Q321.5 251.0 334.75 253.75Q348.0 256.5 373.5 256.5H414.0V215.0H379.5Q339.0 215.0 317.5 226.0Q310.0 229.0 302.75 231.5Q295.5 234.0 292.5 234.0Q287.5 234.0 286.0 229.5Q284.5 225.0 284.0 221.5Q281.5 225.5 269.0 229.0Q256.5 232.5 238.75 234.75Q221.0 237.0 201.0 237.0Q184.0 237.0 164.0 249.25Q144.0 261.5 125.0 282.0L103.5 306.5L98.0 239.0Q97.0 227.5 96.5 216.75Q96.0 206.0 96.0 198.0Q96.0 189.5 97.25 183.25Q98.5 177.0 99.5 175.5L103.0 174.0Q105.5 174.0 110.25 177.25Q115.0 180.5 117.0 186.0Q127.5 200.0 136.25 207.0Q145.0 214.0 159.0 216.0Q173.0 218.0 200.0 218.0Q219.5 218.0 233.75 217.0Q248.0 216.0 251.5 215.0Q249.5 211.5 239.25 201.75Q229.0 192.0 215.0 179.5Q199.5 166.0 187.25 157.25Q175.0 148.5 163.0 143.5Q151.0 138.5 135.75 135.5Q120.5 132.5 99.0 131.0L77.5 128.5L72.0 147.5Q65.0 173.5 61.75 196.75Q58.5 220.0 58.5 249.0Q58.5 258.0 58.5 269.0Q58.5 280.0 59.0 292.5L63.0 357.5L75.5 360.5Q81.0 361.5 85.25 362.5Q89.5 363.5 94.5 363.5Q107.5 363.5 124.5 355.5Q141.5 347.5 166.75 330.5Q192.0 313.5 228.5 286.5Q246.5 272.0 261.25 261.5Q276.0 251.0 277.5 251.0Q280.5 251.0 283.5 252.0ZM57.5 127.0H35.5L47.5 155.0L50.5 148.0Q53.0 141.5 55.0 135.5Q57.0 129.5 57.5 127.0ZM145.0 237.0 131.5 227.0Q128.0 224.0 124.25 221.25Q120.5 218.5 116.5 216.5Q117.0 218.0 117.0 221.5Q117.0 231.0 118.25 243.75Q119.5 256.5 121.5 261.0Q123.0 258.5 125.75 254.5Q128.5 250.5 131.5 247.5ZM305.0 206.0 302.0 201.5Q302.0 202.0 302.0 203.25Q302.0 204.5 302.0 205.5Q302.0 208.5 303.5 210.0L304.5 208.5Q305.0 208.5 306.0 208.0Q307.0 207.5 307.0 207.5Q306.5 207.0 306.0 206.5Q305.5 206.0 305.0 206.0ZM294.5 296.5Q298.0 298.0 302.0 300.5Q306.0 303.0 309.5 307.0Q315.0 311.0 321.5 313.0Q328.0 315.0 339.0 315.5Q350.0 316.0 369.0 316.0H416.0Q417.0 315.0 417.0 312.75Q417.0 310.5 417.0 308.0Q417.0 307.0 417.0 305.0Q417.0 303.0 416.0 301.0V292.0L413.0 276.0H378.0Q359.0 276.0 343.75 278.5Q328.5 281.0 317.0 286.5Q310.5 289.5 304.5 292.25Q298.5 295.0 294.5 296.5ZM484.0 248.0Q477.5 248.0 467.75 243.0Q458.0 238.0 452.5 234.0L440.0 225.0V271.0L464.5 258.5Q472.5 254.5 477.5 252.0Q482.5 249.5 484.0 248.0ZM150.5 89.5Q150.5 87.0 150.5 84.5Q150.5 82.0 151.0 80.0V77.5Q147.5 79.0 139.25 85.5Q131.0 92.0 123.0 99.5Q115.0 107.0 111.5 111.5Q115.5 112.5 122.25 113.75Q129.0 115.0 136.0 116.0Q141.5 117.5 145.75 118.0Q150.0 118.5 152.5 118.5H155.0Q155.0 118.0 154.75 117.75Q154.5 117.5 154.5 117.5Q152.5 112.5 151.5 104.25Q150.5 96.0 150.5 89.5ZM309.0 77.5Q300.5 74.5 288.75 69.75Q277.0 65.0 269.0 59.5L259.5 53.0L256.5 79.5V94.0Q256.5 104.0 257.0 106.0Q257.0 105.5 258.5 105.5Q277.5 98.5 296.25 91.75Q315.0 85.0 322.0 81.5Q320.0 80.5 316.5 79.5Q313.0 78.5 309.0 77.5ZM309.0 146.0Q309.0 143.5 304.0 142.0L302.0 141.5V146.0Q302.0 146.5 302.5 148.25Q303.0 150.0 303.0 150.0Q303.0 149.5 303.25 149.25Q303.5 149.0 303.5 148.0Q309.0 147.0 309.0 146.0ZM290.5 115.0Q299.0 117.5 313.5 124.0Q320.0 127.5 331.75 130.25Q343.5 133.0 357.25 134.5Q371.0 136.0 382.0 136.0Q401.0 136.0 405.0 133.5Q405.0 126.5 402.75 116.75Q400.5 107.0 396.0 99.0Q391.5 91.0 384.0 90.0H381.5Q374.0 90.0 358.5 93.75Q343.0 97.5 324.75 103.0Q306.5 108.5 290.5 115.0ZM449.5 56.0H440.0Q432.5 56.0 422.75 55.0Q413.0 54.0 408.5 52.5Q404.0 50.5 401.5 50.5H401.0Q401.5 51.0 402.0 52.25Q402.5 53.5 403.5 55.0Q406.0 63.0 412.25 66.5Q418.5 70.0 426.0 70.0Q433.0 70.0 439.0 67.5Q445.0 65.0 446.5 60.5Q449.0 58.0 449.5 56.0ZM429.5 105.5Q430.0 103.0 430.25 101.75Q430.5 100.5 430.5 99.0Q432.5 93.0 432.5 90.5Q432.5 89.5 425.5 89.5Q418.0 89.5 418.0 91.0Q418.0 91.5 418.25 92.75Q418.5 94.0 418.5 95.0Q419.0 96.0 419.5 97.5Q420.0 99.0 420.0 101.0Q420.0 103.0 420.25 105.5Q420.5 108.0 421.0 110.5L421.5 113.5Q421.5 115.5 421.75 117.5Q422.0 119.5 422.5 121.5V122.5Q424.0 120.0 425.75 115.25Q427.5 110.5 429.5 105.5ZM681.5 126.5Q682.0 126.5 682.0 126.5Q682.0 126.5 682.0 126.5Q682.0 126.5 682.0 126.25Q682.0 126.0 681.5 126.5ZM721.5 39.0Q718.5 39.0 708.25 38.75Q698.0 38.5 684.0 38.0H674.0Q669.5 37.5 666.0 37.5Q662.5 37.5 660.0 37.5Q650.5 37.5 650.5 40.5Q650.5 43.5 655.0 53.5Q656.5 57.0 658.0 60.75Q659.5 64.5 661.5 69.5Q662.5 71.5 664.0 74.5Q665.5 77.5 666.5 80.0Q672.0 94.0 676.75 107.0Q681.5 120.0 681.5 124.0Q681.5 124.5 681.5 125.25Q681.5 126.0 681.5 126.0Q682.5 123.0 684.25 118.0Q686.0 113.0 687.5 107.5Q691.5 91.0 700.5 74.25Q709.5 57.5 718.5 43.0Q719.5 41.5 720.25 40.5Q721.0 39.5 721.5 39.0ZM132.0 376.0Q128.0 376.5 120.5 376.75Q113.0 377.0 104.0 377.5Q95.5 379.0 89.5 379.5Q83.5 380.0 83.5 380.0Q84.5 381.5 88.75 387.75Q93.0 394.0 98.0 401.0L111.0 418.0L120.5 397.0Q124.5 391.0 127.25 385.25Q130.0 379.5 132.0 376.0ZM296.0 377.0Q286.0 371.5 277.75 367.75Q269.5 364.0 267.5 363.5Q268.0 366.5 268.5 374.25Q269.0 382.0 269.0 392.5Q269.0 402.0 269.0 409.75Q269.0 417.5 268.5 420.5Q270.5 419.5 276.0 417.0Q281.5 414.5 288.0 410.0Q296.5 406.5 308.75 402.25Q321.0 398.0 329.0 396.5Q339.5 394.0 341.5 391.0Q330.0 391.0 318.25 386.5Q306.5 382.0 296.0 377.0ZM122.0 76.0Q137.5 63.0 150.75 54.5Q164.0 46.0 168.0 46.0H169.0Q169.5 47.0 170.25 53.5Q171.0 60.0 171.0 68.0V81.5L169.5 109.5L203.0 140.5Q217.0 153.5 231.5 166.5Q246.0 179.5 261.0 192.0Q268.5 198.0 275.0 205.25Q281.5 212.5 283.5 216.5Q283.0 212.5 283.0 208.0Q283.0 203.5 283.0 199.5Q283.0 189.5 284.25 181.5Q285.5 173.5 289.0 173.5Q291.0 173.5 297.75 177.0Q304.5 180.5 312.0 186.0Q321.5 191.5 334.75 193.5Q348.0 195.5 373.5 195.5H414.5L411.0 157.5L376.0 155.5H361.5Q346.0 155.5 335.5 157.25Q325.0 159.0 316.0 164.5Q308.0 167.5 301.5 169.75Q295.0 172.0 291.5 172.5Q289.5 172.0 288.25 171.5Q287.0 171.0 286.0 170.5Q284.0 166.0 282.75 154.25Q281.5 142.5 281.5 131.5Q281.5 122.0 283.5 118.0Q279.0 120.0 275.25 121.5Q271.5 123.0 268.0 125.0L264.0 126.5Q255.5 131.0 248.25 134.75Q241.0 138.5 240.0 138.5Q237.5 138.5 236.25 134.5Q235.0 130.5 235.0 124.0Q235.0 114.0 236.0 97.75Q237.0 81.5 238.25 64.5Q239.5 47.5 240.75 35.5Q242.0 23.5 243.0 22.0L245.0 20.5Q248.0 20.5 253.0 23.5Q258.0 26.5 263.0 30.5Q274.5 42.5 294.75 51.25Q315.0 60.0 337.25 64.75Q359.5 69.5 376.5 69.5Q385.5 69.5 385.5 68.0V67.0L381.5 57.5Q381.0 53.5 379.75 50.25Q378.5 47.0 378.5 45.0Q378.5 37.5 383.0 35.5Q387.5 33.5 400.0 33.5Q404.0 33.5 409.0 33.5Q414.0 33.5 420.5 34.5H428.5Q444.5 35.0 457.25 35.75Q470.0 36.5 475.0 37.0H477.5Q482.0 37.0 482.0 40.5Q482.0 42.5 479.5 46.5Q477.0 50.5 474.0 55.0Q471.5 59.5 469.0 64.0Q466.5 68.5 466.5 70.0H529.5Q559.0 70.5 572.25 71.75Q585.5 73.0 585.5 77.0Q585.5 81.0 564.0 83.5Q555.5 84.5 542.5 85.75Q529.5 87.0 515.75 87.5Q502.0 88.0 491.0 88.0Q475.0 88.5 466.75 89.5Q458.5 90.5 455.0 92.75Q451.5 95.0 449.0 100.0Q447.0 107.5 444.25 123.5Q441.5 139.5 440.5 155.0V170.5Q440.0 172.5 440.0 174.5Q440.0 176.5 440.0 178.0Q440.0 190.5 442.25 195.25Q444.5 200.0 452.5 208.0Q460.0 216.5 469.25 221.75Q478.5 227.0 493.5 229.75Q508.5 232.5 532.5 233.5Q556.5 234.5 594.0 234.5H680.0L676.0 198.0Q674.5 176.0 667.75 149.75Q661.0 123.5 651.5 97.25Q642.0 71.0 631.5 51.0Q625.0 41.0 621.5 30.25Q618.0 19.5 618.0 17.0Q618.0 10.0 625.0 10.0Q628.5 10.0 633.5 12.5Q637.5 14.5 656.0 16.25Q674.5 18.0 697.5 18.5Q722.0 19.0 740.0 21.5Q758.0 24.0 758.0 26.5Q758.0 28.0 753.25 34.5Q748.5 41.0 743.0 47.5Q737.0 54.0 728.0 66.75Q719.0 79.5 714.5 92.0Q710.0 100.5 707.25 108.0Q704.5 115.5 702.75 126.25Q701.0 137.0 700.25 154.5Q699.5 172.0 699.0 199.75Q698.5 227.5 698.0 270.0Q697.5 313.5 695.75 348.25Q694.0 383.0 691.75 403.5Q689.5 424.0 686.5 424.0Q683.0 424.0 680.5 398.0Q678.0 372.0 678.0 333.0V252.5L596.0 255.0Q566.5 255.5 548.5 256.25Q530.5 257.0 518.75 258.75Q507.0 260.5 497.25 264.25Q487.5 268.0 474.5 275.0L440.0 291.5V376.5H520.0Q563.0 376.5 586.5 379.5Q610.0 382.5 610.0 386.5Q610.0 391.0 586.5 393.75Q563.0 396.5 520.5 396.5Q485.5 396.5 467.75 397.0Q450.0 397.5 443.75 398.75Q437.5 400.0 436.5 403.0Q435.0 407.0 433.75 409.5Q432.5 412.0 429.5 412.0Q424.5 412.0 418.5 403.5Q414.5 397.5 407.0 397.5Q396.5 397.5 379.75 401.5Q363.0 405.5 344.0 411.5Q325.0 417.5 309.0 423.75Q293.0 430.0 284.0 435.0Q273.5 439.0 265.5 442.5Q257.5 446.0 255.0 446.0Q252.5 446.0 250.25 433.75Q248.0 421.5 248.0 403.5Q248.0 389.0 248.75 374.0Q249.5 359.0 250.75 347.75Q252.0 336.5 253.5 334.5Q255.5 332.5 258.5 332.5Q261.0 332.5 265.75 335.25Q270.5 338.0 275.0 341.5L283.0 345.5V327.5Q283.0 316.5 283.75 308.25Q284.5 300.0 286.5 297.0Q284.0 291.5 283.5 280.25Q283.0 269.0 283.0 263.0Q278.0 270.0 263.0 283.0Q248.0 296.0 223.0 313.5Q203.5 328.5 191.0 338.75Q178.5 349.0 170.5 357.5Q162.5 366.0 156.75 375.25Q151.0 384.5 145.0 397.5Q137.5 411.5 131.0 426.0Q124.5 440.5 123.5 444.5Q121.0 452.0 115.5 452.0Q112.0 452.0 107.75 447.0Q103.5 442.0 96.0 432.0Q89.5 421.5 79.0 409.5Q68.5 397.5 61.5 391.0L41.5 372.5V320.0Q41.0 277.5 38.0 241.5Q35.0 205.5 30.5 179.75Q26.0 154.0 19.5 141.5Q16.0 133.0 13.0 125.0Q10.0 117.0 10.0 113.5L11.0 109.5H21.5Q23.5 108.5 26.0 108.5Q28.5 108.5 31.5 108.5Q36.5 108.0 41.5 108.0Q46.5 108.0 52.5 107.5Q65.5 107.5 73.5 106.5Q81.5 105.5 88.0 102.5Q94.5 99.5 102.25 93.25Q110.0 87.0 122.0 76.0Z" fill="black" /></svg>