<svg xmlns="http://www.w3.org/2000/svg" width="549.5" height="383.5" viewBox="0 0 549.5 383.5"><path d="M74.5 297.5V293.0Q75.0 292.0 75.0 290.5Q75.0 284.5 70.25 281.25Q65.5 278.0 52.0 272.0L30.0 263.5L27.5 325.0L35.5 323.5Q58.0 317.5 65.75 312.5Q73.5 307.5 74.5 297.5ZM118.0 292.5Q100.5 291.0 92.0 287.0Q91.5 286.5 90.75 286.5Q90.0 286.5 90.0 286.5Q88.5 286.5 88.5 295.5V305.5L104.0 304.0Q118.0 301.5 126.0 299.5Q134.0 297.5 134.0 296.5Q134.0 295.5 129.5 294.5Q125.0 293.5 118.0 292.5ZM92.0 132.0 97.5 123.0H69.0Q60.5 123.0 60.5 125.0Q60.5 127.5 62.5 133.75Q64.5 140.0 67.0 146.5Q69.5 153.0 71.0 156.5L77.0 171.5L79.5 163.0Q82.0 156.0 85.75 146.5Q89.5 137.0 92.0 132.0ZM133.5 268.0Q133.5 234.0 127.5 201.5Q121.5 169.0 106.5 138.5Q102.5 141.0 98.5 149.5Q94.0 158.0 92.25 173.25Q90.5 188.5 89.5 219.0L88.0 272.0L101.5 275.5Q116.5 280.5 127.0 280.5Q131.0 280.5 132.25 279.0Q133.5 277.5 133.5 268.0ZM152.5 142.0H153.0V141.5Q153.0 141.0 153.25 140.75Q153.5 140.5 153.5 140.0Q153.5 139.0 138.5 139.0Q123.0 139.0 123.0 140.5V141.0L123.5 142.0Q123.5 142.5 124.0 143.5Q124.5 144.5 124.5 145.5Q126.0 149.0 128.25 155.25Q130.5 161.5 132.5 168.5L137.5 182.5L141.5 170.5Q144.5 162.0 147.5 153.75Q150.5 145.5 152.5 142.0ZM183.5 254.0Q183.5 239.5 181.75 222.5Q180.0 205.5 176.0 188.5Q172.0 171.5 165.0 159.0L162.0 153.0L157.0 165.0Q152.5 174.0 150.75 188.5Q149.0 203.0 149.0 233.0V282.5L183.5 285.0ZM202.5 142.0Q203.5 141.0 203.5 140.0Q203.5 139.0 200.0 139.0Q196.5 139.0 188.0 139.0Q173.5 139.0 173.5 140.0Q173.5 141.0 174.5 142.0Q176.0 145.5 178.75 153.75Q181.5 162.0 184.0 170.5L188.0 182.0L193.0 167.0Q195.5 159.5 198.25 152.25Q201.0 145.0 202.5 142.0ZM242.0 284.5V259.5Q242.0 249.5 240.25 235.25Q238.5 221.0 235.5 205.0Q232.5 189.0 228.75 175.0Q225.0 161.0 220.5 152.0L217.0 145.5L210.0 161.5Q206.0 169.0 203.75 177.5Q201.5 186.0 200.25 199.0Q199.0 212.0 198.0 234.0L196.0 284.5ZM177.5 72.0Q172.5 68.5 168.25 66.25Q164.0 64.0 163.5 64.0V112.0L176.5 107.0Q188.0 101.5 201.25 97.25Q214.5 93.0 227.0 90.0Q230.0 89.0 230.5 89.0Q223.5 88.5 212.75 85.5Q202.0 82.5 192.25 78.75Q182.5 75.0 177.5 72.0ZM253.0 158.0 261.5 139.0H246.0Q233.5 139.0 230.5 140.0L231.5 143.0Q232.5 146.5 234.25 152.5Q236.0 158.5 238.5 165.5Q244.0 180.5 244.5 180.5V180.0Q245.5 177.0 248.0 170.75Q250.5 164.5 253.0 158.0ZM466.5 118.5 458.0 91.0 412.0 90.5Q399.0 90.5 380.0 90.75Q361.0 91.0 341.25 91.5Q321.5 92.0 305.5 93.0Q282.0 94.0 266.25 95.75Q250.5 97.5 237.25 100.75Q224.0 104.0 207.0 110.0Q191.0 115.0 179.5 119.5Q168.0 124.0 168.0 125.0Q168.0 125.0 183.5 125.25Q199.0 125.5 220.5 125.5Q244.0 125.5 261.25 126.25Q278.5 127.0 279.0 129.5V130.5Q279.0 132.5 276.25 139.5Q273.5 146.5 269.5 155.5Q264.5 165.0 261.75 173.0Q259.0 181.0 258.0 193.75Q257.0 206.5 256.5 231.5L254.5 284.5H480.0L478.0 217.5Q477.5 190.0 476.0 172.25Q474.5 154.5 472.5 142.0Q470.5 129.5 466.5 118.5ZM514.0 27.5Q510.5 28.0 501.0 28.25Q491.5 28.5 479.5 28.5L446.0 28.0L449.0 35.5Q450.5 38.5 452.25 42.0Q454.0 45.5 456.0 48.5L459.0 53.5Q461.0 57.0 465.25 68.5Q469.5 80.0 473.5 92.0L480.0 112.0L482.5 98.5Q484.5 89.5 490.0 74.75Q495.5 60.0 501.0 50.0Q503.5 46.5 505.5 42.75Q507.5 39.0 509.0 36.0Q511.0 33.0 512.25 30.75Q513.5 28.5 514.0 27.5ZM426.0 11.0H426.5Q427.5 10.0 430.5 10.0Q433.0 10.0 435.75 10.5Q438.5 11.0 441.5 12.0Q445.5 13.0 457.75 13.75Q470.0 14.5 485.5 14.5H495.0Q514.0 14.5 526.75 15.25Q539.5 16.0 539.5 18.5Q539.5 19.5 535.25 25.75Q531.0 32.0 525.5 39.5Q520.0 46.0 512.75 57.75Q505.5 69.5 501.5 79.0Q498.0 87.0 496.0 95.0Q494.0 103.0 493.25 118.25Q492.5 133.5 492.5 164.0Q492.5 169.5 492.5 176.25Q492.5 183.0 493.0 190.0V231.5Q493.0 270.5 492.5 300.5Q492.0 330.5 490.75 347.75Q489.5 365.0 487.5 365.0Q484.5 365.0 482.75 354.5Q481.0 344.0 480.0 330.0L479.0 300.5L255.5 298.0V333.5Q255.5 351.0 254.0 362.25Q252.5 373.5 249.0 373.5Q245.5 373.5 243.75 362.25Q242.0 351.0 242.0 333.5V298.0H229.5Q211.0 298.0 204.75 300.25Q198.5 302.5 198.5 314.0Q198.5 322.5 200.0 336.0Q201.0 342.0 201.0 347.25Q201.0 352.5 201.0 356.5Q201.0 373.5 196.0 373.5Q193.0 373.5 190.25 363.0Q187.5 352.5 186.5 337.0Q186.0 325.5 185.0 316.0Q184.0 306.5 183.0 303.5Q178.5 303.5 174.0 304.0Q169.5 304.5 165.0 305.5L149.0 308.0L150.0 339.0Q150.5 342.5 150.5 346.0Q150.5 349.5 150.5 352.5Q150.5 373.5 144.5 373.5Q141.5 373.5 139.5 366.75Q137.5 360.0 137.5 350.5Q137.0 343.0 136.25 334.0Q135.5 325.0 134.0 320.5Q132.5 313.5 129.0 313.5Q124.5 313.5 111.0 316.5L90.5 320.5L89.5 342.5Q88.0 368.5 81.5 368.5Q75.0 368.5 75.0 344.5V325.5L43.0 335.5Q19.5 343.5 14.0 343.5Q10.0 343.5 10.0 339.5Q10.0 337.5 11.0 333.5L12.0 331.0Q13.5 325.5 15.0 311.5Q16.5 297.5 16.5 282.5Q16.5 266.5 17.5 254.75Q18.5 243.0 21.0 243.0Q22.0 243.0 30.5 246.75Q39.0 250.5 50.0 256.0L57.0 260.0Q61.0 261.5 64.75 263.25Q68.5 265.0 71.0 266.0Q73.5 266.5 75.0 268.0Q74.5 266.5 74.5 264.0Q74.5 261.5 74.5 258.0Q74.5 225.0 67.75 191.75Q61.0 158.5 46.0 129.5Q43.0 123.0 40.75 117.5Q38.5 112.0 38.5 110.0L39.0 107.5Q49.0 107.5 59.0 107.5Q69.0 107.5 79.0 108.5Q101.0 109.5 108.75 111.5Q116.5 113.5 116.5 119.0V120.5Q117.5 122.5 122.75 124.0Q128.0 125.5 133.5 125.5Q138.0 125.5 141.75 124.75Q145.5 124.0 147.0 122.0Q148.0 120.0 149.0 107.75Q150.0 95.5 150.0 81.5Q150.0 42.0 158.5 42.0Q162.0 42.0 165.5 47.0Q166.5 48.5 173.0 52.75Q179.5 57.0 187.5 61.0Q206.0 70.5 233.75 75.25Q261.5 80.0 308.5 80.0Q346.5 80.0 400.5 77.0L453.5 74.5L439.5 47.5Q433.5 35.5 429.5 26.25Q425.5 17.0 425.5 14.0Q425.5 13.0 425.75 12.0Q426.0 11.0 426.0 11.0Z" fill="black" /></svg>