<svg xmlns="http://www.w3.org/2000/svg" width="647.5" height="458.5" viewBox="0 0 647.5 458.5"><path d="M265.0 304.0 279.5 300.5 253.5 294.0 247.0 293.0Q242.5 291.5 238.25 290.25Q234.0 289.0 231.5 288.0L229.5 287.5Q228.0 287.5 227.25 287.25Q226.5 287.0 225.5 287.0Q224.0 287.0 224.0 298.5Q224.0 305.0 225.0 307.75Q226.0 310.5 231.0 310.5Q235.5 310.5 244.25 308.75Q253.0 307.0 265.0 304.0ZM124.5 189.5Q127.5 180.5 127.5 177.0Q127.5 175.5 119.0 175.5Q110.5 175.5 110.5 177.0Q110.5 178.5 111.25 182.0Q112.0 185.5 114.0 189.5Q116.0 195.5 117.5 200.25Q119.0 205.0 119.0 205.0Q119.5 203.5 120.25 201.25Q121.0 199.0 122.0 197.0Q122.5 195.0 123.0 193.25Q123.5 191.5 124.5 189.5ZM151.5 199.5Q149.5 192.0 147.5 186.5Q145.5 181.0 144.0 181.0Q140.0 181.0 136.25 195.75Q132.5 210.5 130.25 234.5Q128.0 258.5 128.0 286.5Q128.0 296.5 128.5 307.0Q129.0 317.5 130.0 328.0L133.5 377.5H167.5V328.0Q167.5 291.0 163.5 260.75Q159.5 230.5 151.5 199.5ZM174.5 189.5Q178.5 179.0 178.5 177.0Q178.5 175.5 170.0 175.5Q161.0 175.5 161.0 177.0Q161.0 178.5 162.0 181.75Q163.0 185.0 164.0 189.5Q166.5 195.5 168.0 200.5Q169.5 205.5 170.0 205.5Q170.0 205.5 171.25 200.5Q172.5 195.5 174.5 189.5ZM369.0 258.0Q369.0 256.0 367.5 256.0Q365.0 256.0 365.0 258.0Q365.0 260.0 367.5 260.0Q369.0 260.0 369.0 258.0ZM404.5 285.0Q404.5 282.5 402.0 275.5Q399.5 268.5 396.5 262.25Q393.5 256.0 392.0 256.0Q388.5 256.0 384.5 263.0Q380.5 270.0 379.5 278.5V282.5Q379.5 286.0 381.5 287.25Q383.5 288.5 391.5 289.5H394.5Q395.5 290.0 397.5 290.0Q404.5 290.0 404.5 285.0ZM417.0 256.0Q416.0 256.0 413.25 256.5Q410.5 257.0 410.5 258.0Q410.5 260.0 412.5 260.0Q416.0 260.0 417.0 256.0ZM417.0 256.0 417.5 257.0V256.0Q417.5 256.0 417.5 256.0Q417.5 256.0 417.0 256.0ZM444.0 273.5Q439.0 261.5 434.0 261.5Q431.5 261.5 428.5 267.5Q425.5 273.5 425.5 283.5Q425.5 290.5 434.0 290.5Q446.5 290.5 446.5 286.0Q446.5 282.0 444.0 273.5ZM459.0 255.5Q458.5 256.0 456.5 256.25Q454.5 256.5 453.5 256.5Q454.5 258.0 456.0 258.0Q458.0 258.0 459.0 255.5ZM485.0 273.5V272.0Q483.5 267.5 480.75 264.75Q478.0 262.0 476.0 261.5Q471.5 262.0 469.0 268.75Q466.5 275.5 466.5 279.5Q466.5 290.5 478.0 290.5Q488.0 290.5 488.0 283.0Q488.0 281.5 487.0 279.25Q486.0 277.0 485.0 273.5ZM500.0 258.0Q500.0 256.0 498.0 256.0Q495.5 256.0 495.5 258.0Q495.5 260.0 498.0 260.0Q500.0 260.0 500.0 258.0ZM237.5 119.0Q229.0 116.0 222.5 113.5Q216.0 111.0 213.5 110.5Q213.5 114.0 213.25 117.5Q213.0 121.0 212.5 125.0Q212.0 128.0 212.0 130.0Q212.0 132.0 212.0 134.0Q212.0 139.5 217.0 139.5Q222.0 139.5 230.25 137.75Q238.5 136.0 251.0 133.0Q256.0 131.5 260.0 130.0Q264.0 128.5 266.5 128.0Q263.0 127.0 259.0 125.5Q255.0 124.0 251.0 122.5Q247.5 121.5 244.25 120.75Q241.0 120.0 237.5 119.0ZM283.5 215.5 272.5 213.0Q262.5 210.5 252.0 207.75Q241.5 205.0 236.5 203.0Q232.5 202.0 231.0 202.0Q228.0 202.0 228.0 215.5Q228.0 230.0 227.0 230.5Q228.0 230.0 236.75 227.75Q245.5 225.5 256.5 223.0ZM403.5 186.5Q403.5 182.5 402.5 174.5Q401.5 166.5 399.25 157.75Q397.0 149.0 393.25 142.75Q389.5 136.5 384.0 136.5Q379.0 136.5 375.25 146.5Q371.5 156.5 371.5 174.0V182.5Q372.5 196.5 374.5 199.75Q376.5 203.0 387.0 203.0Q397.5 203.0 400.0 200.25Q402.5 197.5 403.5 186.5ZM444.5 181.5Q444.5 178.5 443.5 171.0Q442.5 163.5 440.75 155.5Q439.0 147.5 435.75 141.75Q432.5 136.0 428.0 136.0Q425.0 136.0 422.5 141.0Q421.5 146.0 421.5 158.5Q421.5 163.0 421.5 167.0Q421.5 171.0 422.0 175.5Q423.0 194.0 424.75 198.5Q426.5 203.0 432.5 203.0Q439.0 203.0 441.0 200.0Q443.0 197.0 444.0 187.5V184.5Q444.5 183.5 444.5 181.5ZM485.0 181.0Q485.0 178.0 484.5 170.75Q484.0 163.5 482.25 155.5Q480.5 147.5 477.5 141.75Q474.5 136.0 469.5 136.0Q468.5 136.0 466.75 137.75Q465.0 139.5 464.0 141.5Q462.5 145.5 461.75 155.5Q461.0 165.5 461.0 175.5Q461.0 193.5 462.5 197.0Q464.0 200.5 473.0 200.5Q481.5 200.5 483.25 197.5Q485.0 194.5 485.0 181.0ZM557.0 129.0 532.5 131.5Q523.5 132.5 515.75 134.25Q508.0 136.0 506.5 137.0Q505.5 138.5 504.0 148.75Q502.5 159.0 501.5 170.5L500.0 200.5H536.5Q553.0 200.5 560.25 200.0Q567.5 199.5 569.25 197.5Q571.0 195.5 571.0 191.5Q571.0 185.5 567.0 168.0Q563.0 150.5 557.0 129.0ZM605.5 36.5Q602.0 35.5 591.25 34.5Q580.5 33.5 569.75 32.75Q559.0 32.0 555.0 32.0Q543.0 32.0 543.0 36.0Q543.0 38.5 545.5 43.5Q548.0 48.5 551.5 56.5L554.0 60.5Q557.0 66.5 560.5 78.75Q564.0 91.0 567.0 102.5Q569.5 114.0 571.5 122.0Q573.5 130.0 574.0 130.0Q574.5 130.0 576.0 124.25Q577.5 118.5 578.5 110.5Q581.5 91.5 589.0 72.75Q596.5 54.0 605.5 36.5ZM73.5 378.0Q59.5 374.0 48.25 370.75Q37.0 367.5 35.0 367.5Q35.0 367.5 34.5 375.25Q34.0 383.0 33.5 392.5Q33.5 404.5 34.75 410.75Q36.0 417.0 42.0 417.0Q46.0 417.0 53.5 415.5Q61.0 414.0 71.0 410.5Q81.5 407.5 100.5 403.25Q119.5 399.0 133.5 396.5L151.5 394.0L140.0 392.0Q126.0 391.0 106.25 386.5Q86.5 382.0 73.5 378.0ZM520.5 16.5Q520.5 10.0 529.0 10.0Q532.0 10.0 538.0 12.0Q543.5 14.0 556.25 15.0Q569.0 16.0 584.5 16.0H593.0Q612.0 16.0 624.75 16.75Q637.5 17.5 637.5 20.0Q637.5 21.0 634.25 26.75Q631.0 32.5 625.5 39.5Q620.5 45.5 613.5 58.0Q606.5 70.5 601.5 81.5Q598.5 90.0 596.25 97.5Q594.0 105.0 592.75 116.75Q591.5 128.5 590.75 148.0Q590.0 167.5 589.75 199.0Q589.5 230.5 589.5 278.5Q589.5 325.0 588.5 363.75Q587.5 402.5 586.0 425.5Q584.5 448.5 582.0 448.5Q578.5 448.5 577.25 439.5Q576.0 430.5 575.0 418.0L574.0 391.5L401.5 395.5Q365.5 396.5 331.75 397.5Q298.0 398.5 270.0 399.5Q242.0 400.5 223.75 401.75Q205.5 403.0 201.0 404.0Q191.5 406.0 177.75 407.75Q164.0 409.5 152.5 410.5Q146.0 411.5 133.25 413.75Q120.5 416.0 105.25 419.25Q90.0 422.5 75.5 426.5L68.5 428.0Q47.5 433.0 35.0 435.5Q22.5 438.0 17.0 438.0Q10.0 438.0 10.0 432.5Q10.0 429.5 12.5 423.0Q13.5 422.5 13.75 421.25Q14.0 420.0 14.5 419.5Q19.5 407.0 19.5 385.0V376.0Q19.5 373.5 19.0 371.75Q18.5 370.0 18.5 368.0V363.0Q18.5 353.5 20.75 349.75Q23.0 346.0 26.5 345.5H27.5Q28.0 346.0 28.5 346.0Q29.0 346.0 29.0 346.0Q32.5 346.5 44.75 351.0Q57.0 355.5 71.0 360.5L80.0 363.5Q91.0 367.0 97.75 369.25Q104.5 371.5 108.0 371.5Q113.0 371.5 114.5 366.5Q116.0 361.5 116.0 350.0Q116.0 311.5 113.75 272.5Q111.5 233.5 100.0 197.0Q94.0 176.5 94.0 169.5Q94.0 162.5 98.5 160.25Q103.0 158.0 114.5 158.0Q118.5 158.0 130.75 158.25Q143.0 158.5 157.75 159.0Q172.5 159.5 183.75 160.75Q195.0 162.0 197.0 163.5V165.5Q197.0 167.5 195.25 174.25Q193.5 181.0 191.0 189.5Q187.5 197.5 185.25 207.25Q183.0 217.0 182.25 232.0Q181.5 247.0 181.5 271.5Q181.5 275.5 181.5 286.5Q181.5 297.5 181.75 311.75Q182.0 326.0 182.5 340.25Q183.0 354.5 183.75 365.0Q184.5 375.5 186.0 379.0Q187.5 380.5 203.0 381.25Q218.5 382.0 253.5 382.0Q271.0 382.0 293.25 381.5Q315.5 381.0 343.5 381.0Q367.5 379.5 391.75 379.25Q416.0 379.0 440.0 379.0Q464.5 378.5 486.25 378.25Q508.0 378.0 525.0 377.5Q548.5 376.5 561.0 376.5Q573.5 376.5 574.0 376.0Q574.0 370.0 573.75 347.5Q573.5 325.0 572.5 295.0L570.0 217.0H538.0Q525.5 217.0 515.0 218.0Q504.5 219.0 502.5 221.0Q500.0 225.5 497.0 225.5Q492.0 225.5 489.0 221.5Q485.0 217.0 476.0 217.0Q466.0 217.0 461.5 222.0Q457.0 226.0 453.5 226.0Q448.0 226.0 444.5 222.0Q440.0 217.0 434.0 217.0Q431.0 217.0 427.0 218.75Q423.0 220.5 419.0 225.0Q416.5 226.5 413.5 227.75Q410.5 229.0 409.5 229.0Q404.5 229.0 404.5 225.0Q404.5 223.5 400.25 222.5Q396.0 221.5 390.5 221.5Q375.0 221.5 370.5 227.0Q367.0 230.5 363.5 230.5Q359.5 230.0 359.5 224.0Q359.5 223.0 349.5 223.0Q339.0 223.0 317.75 226.25Q296.5 229.5 268.0 236.0Q249.5 240.5 237.75 243.25Q226.0 246.0 220.5 246.0Q215.5 246.0 213.5 243.75Q211.5 241.5 211.0 238.0L211.5 235.0Q211.5 230.0 213.0 226.5L213.5 225.5Q215.0 220.0 215.5 214.25Q216.0 208.5 216.0 203.5Q216.0 201.0 216.0 199.0Q216.0 197.0 215.5 195.5L215.0 193.5Q214.5 191.0 214.5 189.75Q214.5 188.5 214.5 187.0Q214.5 181.0 221.5 181.0Q224.5 181.0 232.5 183.0Q240.5 185.0 253.0 189.5Q265.5 193.5 285.0 197.0Q304.5 200.5 320.0 201.0L356.5 203.0L356.0 179.0Q355.5 155.0 349.5 145.5Q343.5 136.0 329.5 136.0Q323.5 136.0 304.25 139.25Q285.0 142.5 259.25 148.0Q233.5 153.5 207.5 160.5Q206.0 161.0 204.5 161.0Q203.0 161.0 201.5 161.0Q198.0 161.0 196.25 158.25Q194.5 155.5 194.5 148.5Q194.5 146.0 195.0 137.25Q195.5 128.5 196.25 118.25Q197.0 108.0 198.25 100.0Q199.5 92.0 201.0 90.5H202.5Q204.0 90.5 214.75 94.0Q225.5 97.5 239.0 102.0Q251.5 106.5 262.5 109.0Q273.5 111.5 288.75 112.75Q304.0 114.0 328.25 114.5Q352.5 115.0 392.0 115.0Q423.5 115.0 453.75 115.5Q484.0 116.0 506.0 117.0Q528.0 118.0 534.5 119.5L555.0 122.0Q548.5 99.0 541.75 77.5Q535.0 56.0 531.0 46.5L526.5 32.5Q523.5 27.0 522.0 22.25Q520.5 17.5 520.5 16.5ZM393.5 238.5Q405.0 238.0 416.75 238.0Q428.5 238.0 440.0 238.0Q460.5 238.0 478.25 238.5Q496.0 239.0 507.5 240.0Q519.0 241.0 520.5 242.5Q521.0 245.0 521.0 246.5Q521.0 252.0 514.5 266.0Q507.0 276.5 507.0 282.5Q507.0 286.0 510.75 287.25Q514.5 288.5 519.5 289.5Q522.5 289.5 526.0 289.0Q529.5 288.5 532.5 288.0Q536.5 287.5 539.75 287.5Q543.0 287.5 546.5 287.5Q553.5 287.5 558.25 288.25Q563.0 289.0 564.5 291.5L565.5 294.0Q565.5 301.5 545.5 301.5Q527.5 301.5 519.0 303.25Q510.5 305.0 508.25 311.75Q506.0 318.5 505.5 333.5L505.0 363.0H498.5L494.0 332.5Q490.5 316.0 488.25 311.5Q486.0 307.0 477.5 307.0Q469.0 307.0 467.25 310.25Q465.5 313.5 465.5 331.5Q465.5 343.5 463.5 352.75Q461.5 362.0 457.5 362.0Q455.0 362.0 452.5 352.75Q450.0 343.5 450.0 331.5Q450.0 313.5 448.5 310.25Q447.0 307.0 437.5 307.0Q428.5 307.0 427.0 310.25Q425.5 313.5 425.5 331.5Q425.5 343.5 423.5 352.75Q421.5 362.0 417.5 362.0Q414.5 362.0 412.0 352.75Q409.5 343.5 409.5 331.5V307.0H375.5L379.5 335.5Q380.0 339.0 380.0 341.75Q380.0 344.5 380.0 347.0Q380.0 362.0 372.5 362.0Q368.0 362.0 366.0 353.75Q364.0 345.5 364.0 331.5V307.0H349.5Q340.5 307.0 325.75 309.25Q311.0 311.5 296.0 314.5Q281.0 317.5 271.5 320.5Q268.0 321.0 264.25 321.75Q260.5 322.5 257.0 323.0Q241.5 326.5 231.5 328.5Q221.5 330.5 216.0 330.5Q209.5 330.5 207.0 327.75Q204.5 325.0 204.5 319.5Q204.5 314.0 205.0 309.25Q205.5 304.5 206.5 300.0Q207.5 287.0 209.25 277.0Q211.0 267.0 212.5 266.0H213.5Q215.5 266.0 225.0 268.25Q234.5 270.5 245.0 274.5Q268.5 281.0 295.0 285.5Q321.5 290.0 346.0 290.0Q359.5 290.0 359.5 286.0Q359.5 281.0 351.5 268.0Q348.5 261.5 346.0 255.5Q343.5 249.5 343.5 247.5Q343.5 245.0 358.75 242.0Q374.0 239.0 393.5 238.5Z" fill="black" /></svg>