<svg xmlns="http://www.w3.org/2000/svg" width="648.0" height="460.5" viewBox="0 0 648.0 460.5"><path d="M31.0 327.5 26.0 325.5V367.0L61.5 338.0Q49.0 335.5 42.25 332.5Q35.5 329.5 31.0 327.5ZM78.5 242.5Q80.5 235.5 83.25 229.0Q86.0 222.5 89.5 217.0L84.0 217.5H79.5Q79.0 217.5 74.75 217.0Q70.5 216.5 70.5 216.5Q73.0 219.5 75.25 228.0Q77.5 236.5 78.0 239.5Q78.5 240.5 78.5 242.5ZM116.5 230.0Q114.5 224.5 112.0 222.0Q109.5 219.5 109.5 219.5Q109.5 219.5 105.75 221.5Q102.0 223.5 98.5 228.0Q94.0 235.5 90.25 248.75Q86.5 262.0 86.0 283.5L85.0 325.0H128.0L127.0 285.0Q126.5 268.5 122.75 252.0Q119.0 235.5 116.5 230.0ZM143.0 219.0H136.5Q134.5 219.0 130.5 218.75Q126.5 218.5 126.5 218.5L130.5 226.5Q131.0 229.5 132.25 236.25Q133.5 243.0 133.5 243.0Q134.5 241.0 135.0 238.25Q135.5 235.5 136.5 233.5Q137.0 232.0 137.0 231.0Q137.0 230.0 137.5 229.5Q138.5 227.0 140.75 223.0Q143.0 219.0 143.0 219.0ZM174.5 231.5Q172.5 226.0 167.75 222.25Q163.0 218.5 163.0 218.5L159.0 221.0Q157.0 221.5 155.5 225.75Q154.0 230.0 153.0 234.0Q152.5 235.5 152.0 236.5Q151.5 237.5 151.0 238.5Q151.0 241.0 150.5 241.5V241.0Q142.0 265.5 142.0 298.0L142.5 325.0H185.5L183.5 282.0Q183.0 263.5 180.0 250.25Q177.0 237.0 174.5 231.5ZM161.0 127.0 158.5 165.0Q163.5 157.0 169.75 149.75Q176.0 142.5 182.5 137.0L180.5 136.5Q177.0 136.0 173.0 134.75Q169.0 133.5 166.5 131.5L164.5 129.5Q164.0 129.5 163.5 129.25Q163.0 129.0 162.5 129.0Q162.0 128.5 162.0 128.5Q162.0 128.5 161.0 127.0ZM198.0 227.0 201.0 222.5H194.5Q194.0 222.5 189.0 222.0Q184.0 221.5 184.0 221.5Q186.5 228.0 189.75 235.75Q193.0 243.5 193.0 243.5Q194.0 239.5 195.25 234.75Q196.5 230.0 198.0 227.0ZM154.0 205.0Q159.0 205.0 163.75 205.0Q168.5 205.0 173.5 205.5H177.5Q183.0 206.0 187.5 206.25Q192.0 206.5 196.0 206.5Q207.0 206.5 217.0 208.25Q227.0 210.0 229.0 211.0Q230.5 212.5 230.5 214.0Q230.5 215.5 228.5 218.5Q226.5 221.5 222.5 223.0Q212.5 228.5 206.75 247.0Q201.0 265.5 201.0 292.0V325.0L258.0 325.5H274.0Q277.0 326.0 279.5 326.0Q282.0 326.0 284.0 326.0H312.0Q320.0 326.5 324.0 329.0Q329.5 313.0 331.0 293.75Q332.5 274.5 332.5 260.5V211.0Q332.5 196.0 331.25 186.75Q330.0 177.5 326.5 169.0Q323.0 160.5 316.0 148.5Q315.5 146.0 314.0 144.0Q313.5 142.5 312.75 141.25Q312.0 140.0 311.0 138.0H283.0Q276.0 137.5 268.25 137.5Q260.5 137.5 253.0 137.5H242.0Q226.5 137.5 217.75 138.25Q209.0 139.0 203.25 141.5Q197.5 144.0 190.5 149.0Q184.5 155.5 175.75 165.5Q167.0 175.5 163.0 185.0Q162.5 187.0 161.5 189.0Q160.5 191.0 159.0 193.0Q158.0 194.5 157.0 197.5Q155.5 202.0 154.0 205.0ZM352.0 138.5H330.0Q330.0 139.0 330.25 139.25Q330.5 139.5 330.5 140.0Q331.5 141.5 332.0 145.0Q332.5 145.5 333.25 146.5Q334.0 147.5 334.5 149.0Q335.5 152.5 336.75 156.0Q338.0 159.5 339.0 163.5Q340.0 159.5 341.25 156.0Q342.5 152.5 343.5 150.5H343.0Q345.0 147.5 347.25 144.25Q349.5 141.0 352.0 138.5ZM383.0 154.5Q381.0 149.0 376.25 144.0Q371.5 139.0 371.5 139.0Q369.0 141.0 365.0 145.0Q361.0 149.0 358.0 154.5Q355.0 160.0 353.25 165.75Q351.5 171.5 350.25 181.5Q349.0 191.5 348.5 208.75Q348.0 226.0 348.0 254.5V337.5H368.5Q375.0 337.5 383.5 336.5Q392.0 335.5 392.0 335.5Q392.0 334.5 392.0 332.5Q392.0 330.5 391.0 329.0V308.0L390.5 289.5Q390.5 269.0 390.0 246.25Q389.5 223.5 389.0 204.75Q388.5 186.0 387.5 178.0L387.0 173.0Q386.5 169.5 385.5 164.75Q384.5 160.0 383.0 154.5ZM403.0 156.0Q404.0 153.0 408.0 147.0Q412.0 141.0 412.0 141.0Q402.5 140.5 396.5 139.5Q390.5 138.5 390.5 138.5Q391.5 140.0 393.25 142.0Q395.0 144.0 396.0 146.5V147.0Q396.0 147.5 396.25 147.75Q396.5 148.0 396.5 148.5L396.0 148.0Q396.5 151.0 397.25 156.75Q398.0 162.5 399.0 167.5Q399.0 163.0 403.0 156.0ZM437.5 128.5Q436.5 131.0 433.0 137.0Q429.5 143.0 425.5 147.0Q416.5 155.5 412.75 168.25Q409.0 181.0 408.25 203.75Q407.5 226.5 407.5 265.5V331.0L431.0 323.5Q437.5 321.0 455.25 311.5Q473.0 302.0 497.0 289.0Q521.0 276.0 545.25 262.25Q569.5 248.5 589.25 237.0Q609.0 225.5 618.5 219.0L620.0 218.5Q620.0 216.0 611.75 211.25Q603.5 206.5 584.0 196.75Q564.5 187.0 529.5 170.0Q517.0 162.5 500.5 154.75Q484.0 147.0 467.5 140.0Q451.0 133.0 437.5 128.5ZM359.5 121.5Q360.0 121.5 360.0 121.5Q360.0 121.5 360.5 121.5Q383.0 123.5 400.5 124.5Q418.0 125.5 427.0 126.5Q428.5 126.5 430.25 126.75Q432.0 127.0 433.5 127.0Q419.5 122.0 406.75 118.75Q394.0 115.5 383.5 115.0Q378.0 115.0 372.75 116.25Q367.5 117.5 364.5 118.5Q363.0 119.0 361.75 119.75Q360.5 120.5 359.5 121.5ZM429.5 98.0Q424.0 90.0 417.0 80.25Q410.0 70.5 407.0 65.5L403.0 56.0L390.0 76.0Q382.0 88.5 378.75 93.5Q375.5 98.5 375.5 98.5H378.0Q390.0 98.5 408.0 101.5Q426.0 104.5 438.0 108.5Q437.5 107.5 436.5 106.5Q435.5 105.5 434.5 104.5Q433.0 102.5 432.0 101.0Q431.0 99.5 429.5 98.0ZM357.5 387.5Q367.5 377.5 379.0 368.25Q390.5 359.0 402.0 350.5Q396.0 351.0 384.75 351.5Q373.5 352.0 362.0 353.0Q359.0 353.0 356.25 353.0Q353.5 353.0 351.0 353.5H340.0L334.5 353.0L337.5 365.5Q340.0 372.0 341.5 379.75Q343.0 387.5 343.0 394.5L344.0 404.0L346.0 402.0Q348.0 399.0 351.0 395.0Q354.0 391.0 357.5 387.5ZM234.5 124.0H262.0Q287.0 124.0 309.0 123.5Q331.0 123.0 345.5 122.5Q344.0 120.0 344.0 118.0Q344.0 114.5 346.5 112.0L353.0 100.5V101.0Q354.0 100.0 355.0 97.75Q356.0 95.5 358.0 93.5Q368.0 80.5 375.5 67.25Q383.0 54.0 387.25 44.25Q391.5 34.5 392.0 31.5Q392.5 29.0 393.25 26.5Q394.0 24.0 396.5 19.0Q405.5 10.0 409.0 10.0Q413.5 10.0 413.5 16.0Q413.5 17.0 413.5 19.5Q413.5 22.0 413.0 24.5Q412.5 25.0 412.25 26.75Q412.0 28.5 412.0 30.0Q414.5 55.5 449.5 96.0Q458.5 106.0 469.5 114.5Q480.5 123.0 499.75 134.0Q519.0 145.0 552.5 162.0Q589.5 182.0 613.25 196.25Q637.0 210.5 638.0 215.0V216.5Q638.0 220.5 631.25 226.75Q624.5 233.0 608.0 243.75Q591.5 254.5 561.5 272.0Q489.0 312.5 443.5 342.5Q398.0 372.5 375.0 394.5Q352.0 416.5 347.0 433.5Q346.0 440.5 342.5 445.5Q339.0 450.5 336.5 450.5Q330.5 450.5 330.5 438.5Q330.5 428.0 328.75 414.5Q327.0 401.0 324.0 387.25Q321.0 373.5 317.75 363.0Q314.5 352.5 311.5 348.0Q311.0 347.0 309.75 345.0Q308.5 343.0 308.0 342.5L307.0 341.5Q306.5 340.5 306.25 340.0Q306.0 339.5 306.0 339.5L201.0 339.0V377.5Q201.0 396.0 199.0 408.75Q197.0 421.5 193.0 421.5Q189.5 421.5 187.5 408.75Q185.5 396.0 185.5 377.5V339.0H142.5V377.5Q142.5 396.0 141.0 408.75Q139.5 421.5 134.5 421.5Q131.0 421.5 129.0 411.0Q127.0 400.5 127.0 383.5V377.5L128.0 339.0Q120.0 339.0 113.0 339.0Q106.0 339.0 98.5 339.5Q95.5 340.0 92.0 341.25Q88.5 342.5 85.0 343.5V374.5Q85.0 393.0 83.25 404.5Q81.5 416.0 77.5 416.0Q74.5 416.0 72.75 407.75Q71.0 399.5 70.0 386.5Q66.5 385.5 60.0 384.5Q53.5 383.5 47.0 383.5Q40.5 383.5 34.5 385.5Q28.5 387.5 26.5 391.0Q26.0 395.0 23.75 397.5Q21.5 400.0 19.5 400.0Q16.0 400.0 13.0 396.5Q10.0 393.0 10.0 388.5V387.5L11.5 380.0V325.0Q11.5 308.0 13.0 301.25Q14.5 294.5 18.0 294.5Q23.0 294.5 28.0 304.0Q34.5 313.0 45.0 317.75Q55.5 322.5 66.5 323.5L69.0 324.0V283.0Q69.0 255.0 65.0 241.5Q61.0 228.0 56.5 221.0Q52.0 215.5 48.75 209.25Q45.5 203.0 45.5 201.0L48.5 200.5Q49.5 200.5 51.0 200.5Q52.5 200.5 54.0 201.0Q66.0 202.0 77.75 202.5Q89.5 203.0 101.5 203.0Q108.5 203.0 116.25 203.25Q124.0 203.5 135.0 204.5Q137.5 204.5 139.5 204.5Q141.5 204.5 143.5 204.5Q143.0 202.5 143.0 200.25Q143.0 198.0 143.0 195.0V184.0Q143.5 180.0 143.5 176.0Q143.5 172.0 143.5 168.5Q145.0 157.0 145.0 148.5Q145.0 144.0 145.25 135.5Q145.5 127.0 145.75 118.0Q146.0 109.0 146.25 102.75Q146.5 96.5 146.5 96.5Q146.5 96.5 148.5 91.25Q150.5 86.0 154.5 86.0Q158.5 86.0 160.25 90.0Q162.0 94.0 162.0 99.5Q162.0 102.0 165.5 107.0Q169.0 112.0 173.5 116.5Q176.5 119.5 180.25 120.75Q184.0 122.0 194.0 122.5Q201.0 123.5 210.75 123.75Q220.5 124.0 234.5 124.0Z" fill="black" /></svg>