<svg xmlns="http://www.w3.org/2000/svg" width="773.0" height="383.0" viewBox="0 0 773.0 383.0"><path d="M49.5 251.0H49.0Q40.0 246.5 34.25 243.75Q28.5 241.0 28.0 241.0Q29.0 243.5 29.0 248.25Q29.0 253.0 29.0 258.5Q29.5 261.5 29.75 264.5Q30.0 267.5 30.0 270.0Q30.0 272.0 29.75 273.5Q29.5 275.0 29.5 276.0Q34.5 271.0 45.5 264.75Q56.5 258.5 62.5 257.0Q63.0 257.0 63.5 256.5Q61.5 255.5 58.25 254.25Q55.0 253.0 49.5 251.0ZM234.5 313.5Q227.5 308.0 224.5 308.0Q222.0 308.0 222.0 327.5Q222.0 334.5 222.0 340.0Q222.0 345.5 221.5 348.0Q223.5 347.5 229.5 344.5Q235.5 341.5 242.0 337.5Q249.0 334.5 256.25 331.5Q263.5 328.5 267.5 326.5Q259.5 324.0 251.25 320.5Q243.0 317.0 234.5 313.5ZM289.0 166.0 290.5 160.5 294.0 153.0H286.0ZM498.5 242.0 488.0 237.5Q485.0 236.0 482.25 234.75Q479.5 233.5 478.0 233.0Q479.0 235.0 479.0 239.75Q479.0 244.5 479.0 250.5V265.5L491.5 258.5Q498.5 255.5 505.75 252.75Q513.0 250.0 517.0 249.5Q510.5 246.0 498.5 242.0ZM64.5 138.5 52.5 133.5Q46.0 130.0 39.75 127.0Q33.5 124.0 31.0 123.0Q31.5 125.0 31.75 129.25Q32.0 133.5 32.0 139.0Q32.0 153.5 32.5 155.0Q33.5 154.5 36.25 152.75Q39.0 151.0 42.0 148.0Q43.0 147.5 44.0 147.0Q45.0 146.5 45.5 146.0Q49.0 144.5 53.25 142.25Q57.5 140.0 61.0 139.5ZM329.0 140.0H329.5Q328.5 139.5 326.25 138.75Q324.0 138.0 323.5 137.5Q321.5 136.0 318.0 135.0Q318.5 135.5 318.5 137.5L319.0 138.0V144.5L319.5 144.0H320.0Q320.5 143.5 321.0 143.5Q321.5 143.5 322.0 143.0Q324.0 141.5 329.0 140.0ZM329.5 199.0Q330.0 197.0 330.5 195.0Q331.0 193.0 331.5 191.0L334.0 187.5H325.5L326.0 188.0Q327.0 190.0 327.75 192.75Q328.5 195.5 329.0 198.0Q329.0 198.0 329.25 198.25Q329.5 198.5 329.5 199.0ZM246.5 92.0Q246.5 86.0 246.25 82.25Q246.0 78.5 246.0 78.5Q243.5 81.0 239.5 91.0Q237.0 95.5 235.25 101.5Q233.5 107.5 232.5 118.5Q231.5 129.5 231.0 149.0Q230.5 168.5 230.5 200.0Q230.5 204.5 230.5 208.25Q230.5 212.0 230.0 216.0V248.5Q229.5 252.0 229.5 255.5Q229.5 259.0 229.5 262.0Q229.5 279.0 231.75 287.0Q234.0 295.0 240.0 298.5Q246.0 302.0 258.0 306.5Q264.0 308.5 271.5 311.0Q281.0 314.5 289.5 316.5Q298.0 318.5 309.25 319.75Q320.5 321.0 337.25 321.75Q354.0 322.5 380.0 323.5L457.5 325.0L455.0 231.0Q453.5 180.0 451.25 151.25Q449.0 122.5 445.5 110.0Q444.5 107.5 443.75 104.25Q443.0 101.0 442.0 98.5Q440.0 92.5 438.75 88.25Q437.5 84.0 436.5 83.5Q436.0 82.5 415.5 82.0Q395.0 81.5 367.0 81.5Q342.0 81.5 327.25 81.75Q312.5 82.0 304.5 83.0Q296.5 84.0 291.5 86.0Q286.5 88.0 281.0 91.0Q274.5 95.5 268.75 99.75Q263.0 104.0 262.5 105.5Q258.5 114.0 254.5 114.0Q246.5 114.0 246.5 92.0ZM228.5 79.5 235.0 66.0H203.5Q203.5 66.0 203.75 66.25Q204.0 66.5 204.5 67.0Q205.0 68.5 205.5 70.0Q206.0 71.5 206.5 73.5Q207.5 75.0 208.0 78.0Q209.0 81.5 212.75 91.75Q216.5 102.0 219.0 107.5Q219.0 104.0 222.0 96.5Q225.0 89.0 228.5 79.5ZM367.5 174.5 365.5 174.0Q362.0 173.0 360.0 171.75Q358.0 170.5 357.0 170.0V176.5Q357.0 181.0 357.5 181.5Q359.5 179.5 361.75 177.5Q364.0 175.5 366.0 175.0ZM286.5 70.0 292.0 68.5 277.5 61.5Q267.5 56.0 261.0 54.5Q261.0 61.0 261.25 71.25Q261.5 81.5 262.0 85.5Q262.5 85.5 264.0 84.25Q265.5 83.0 266.0 82.5Q269.5 80.0 275.5 76.0Q281.5 72.0 286.5 70.0ZM479.5 28.5Q479.5 28.0 473.25 28.0Q467.0 28.0 457.0 28.0Q441.5 28.0 435.5 27.0Q436.5 29.0 439.25 38.25Q442.0 47.5 448.0 66.0Q449.0 69.5 450.5 74.25Q452.0 79.0 453.5 84.0Q454.0 86.0 454.75 87.75Q455.5 89.5 456.0 91.5Q456.0 91.0 456.0 91.0Q456.0 91.0 456.0 90.5Q457.0 88.0 457.75 85.25Q458.5 82.5 459.5 79.5Q462.0 70.0 466.0 58.75Q470.0 47.5 473.0 42.0Q475.5 37.5 477.5 33.25Q479.5 29.0 479.5 28.5ZM493.0 134.5Q493.0 134.0 491.5 133.75Q490.0 133.5 489.0 133.5Q487.5 133.5 487.0 137.25Q486.5 141.0 486.5 151.0Q486.5 157.5 486.0 162.5Q485.5 167.5 485.0 169.5Q486.5 168.5 491.25 166.25Q496.0 164.0 501.0 161.0Q506.0 158.0 514.5 153.75Q523.0 149.5 529.0 149.5Q527.0 148.5 523.75 147.25Q520.5 146.0 516.5 145.0Q508.0 142.5 501.25 139.5Q494.5 136.5 493.0 134.5ZM723.0 47.0 733.0 30.5H702.0Q695.5 30.5 690.25 30.5Q685.0 30.5 680.5 30.0H668.0Q668.0 31.0 670.25 35.25Q672.5 39.5 675.5 44.0Q679.5 49.5 684.25 61.0Q689.0 72.5 692.5 84.0Q695.0 92.0 697.25 98.0Q699.5 104.0 701.0 107.0Q702.0 91.5 709.0 75.5Q716.0 59.5 723.0 47.0ZM274.0 147.5Q273.5 146.5 273.5 145.5Q273.5 143.0 280.5 143.0Q282.5 143.0 288.25 143.25Q294.0 143.5 299.25 143.75Q304.5 144.0 305.0 144.5V145.5Q305.0 149.5 301.0 157.5Q297.5 165.0 295.75 173.75Q294.0 182.5 293.75 197.0Q293.5 211.5 293.5 236.0Q293.5 279.5 290.5 279.5Q289.0 279.5 288.0 267.25Q287.0 255.0 286.5 236.0Q286.0 213.0 285.0 198.25Q284.0 183.5 281.5 172.0Q279.0 160.5 274.0 147.5ZM314.5 181.5Q314.5 181.0 319.25 180.0Q324.0 179.0 331.0 179.0Q338.0 179.0 342.75 180.0Q347.5 181.0 347.5 182.0Q347.5 183.5 344.5 186.5Q342.0 189.0 338.5 196.0Q336.0 201.5 335.5 211.75Q335.0 222.0 334.5 247.0V257.5Q334.0 265.0 333.5 270.25Q333.0 275.5 331.5 275.5H330.5Q330.0 274.5 328.5 266.75Q327.0 259.0 327.0 247.0Q327.0 226.5 326.0 215.75Q325.0 205.0 319.5 193.0Q317.5 188.5 316.0 185.0Q314.5 181.5 314.5 181.5ZM11.5 232.5Q11.0 231.5 11.0 230.75Q11.0 230.0 10.5 229.0Q10.5 228.0 10.25 226.75Q10.0 225.5 10.0 224.5Q10.0 218.0 16.5 218.0Q22.5 218.0 38.0 228.5Q52.5 237.5 67.75 242.75Q83.0 248.0 103.75 250.25Q124.5 252.5 155.5 252.5Q179.0 252.5 195.5 254.25Q212.0 256.0 216.0 258.5Q216.0 248.5 216.0 235.5Q216.0 222.5 216.0 209.0L215.0 148.5H149.5Q122.0 148.5 104.5 149.25Q87.0 150.0 75.75 152.25Q64.5 154.5 56.75 158.5Q49.0 162.5 41.0 168.5Q34.5 173.5 28.25 177.0Q22.0 180.5 20.5 180.5Q19.5 179.0 18.5 167.5Q17.5 156.0 16.75 141.5Q16.0 127.0 16.0 116.5Q16.0 99.5 21.0 99.5L86.5 132.5L150.5 134.0H176.5Q189.5 134.0 198.5 134.25Q207.5 134.5 210.5 135.0Q210.0 130.5 206.5 118.75Q203.0 107.0 198.5 94.5Q194.0 82.0 190.5 75.5Q187.0 69.5 185.0 63.25Q183.0 57.0 183.0 55.0Q183.0 52.5 188.75 51.25Q194.5 50.0 204.0 50.0H216.5L242.0 52.5V45.5Q242.0 39.5 243.5 35.5Q245.0 31.5 247.0 31.5Q248.0 31.5 253.75 33.75Q259.5 36.0 268.0 40.0L270.5 41.0Q273.5 42.5 276.75 44.0Q280.0 45.5 284.0 47.0L319.5 65.0L377.0 66.5H385.0Q392.5 67.0 398.5 67.0Q404.5 67.0 409.5 67.0Q432.0 67.0 432.0 62.5Q432.0 59.5 430.25 55.0Q428.5 50.5 425.0 43.5L422.5 38.5Q419.0 30.0 416.75 22.75Q414.5 15.5 414.5 13.5V11.0L416.5 10.0Q422.0 10.0 427.25 10.75Q432.5 11.5 438.0 12.5Q442.0 13.5 448.5 14.0Q455.0 14.5 461.5 14.5Q465.5 14.5 469.25 14.5Q473.0 14.5 476.5 14.0Q480.0 13.0 483.5 13.0Q487.0 13.0 489.5 13.0Q503.0 13.0 503.0 20.0Q503.0 23.0 500.5 27.0Q498.0 31.0 494.0 35.5Q476.0 61.0 472.0 90.5Q468.0 120.0 468.0 150.0L469.5 210.5L483.5 218.5Q503.5 228.5 521.75 234.5Q540.0 240.5 564.0 243.0Q588.0 245.5 624.0 245.5Q655.0 245.5 675.5 247.5Q696.0 249.5 696.0 252.0Q696.0 254.0 684.0 255.75Q672.0 257.5 651.25 258.75Q630.5 260.0 605.0 260.5Q575.5 261.0 557.75 261.5Q540.0 262.0 529.75 263.0Q519.5 264.0 513.75 266.0Q508.0 268.0 503.0 271.0Q489.0 278.5 482.0 283.75Q475.0 289.0 473.0 295.25Q471.0 301.5 471.0 313.0V338.5H374.0Q347.5 338.5 324.25 339.0Q301.0 339.5 285.25 340.5Q269.5 341.5 265.5 343.0Q260.5 344.5 251.0 349.75Q241.5 355.0 233.5 360.0Q227.0 365.0 220.5 369.0Q214.0 373.0 211.5 373.0Q211.0 373.0 210.75 372.75Q210.5 372.5 210.0 372.5Q209.0 371.0 208.25 362.0Q207.5 353.0 206.75 341.5Q206.0 330.0 205.75 320.0Q205.5 310.0 205.5 306.0Q205.5 293.5 207.25 289.5Q209.0 285.5 213.5 285.5H214.0Q216.5 284.0 216.5 280.0V272.0Q216.5 269.5 216.5 267.0Q216.5 264.5 216.0 261.0Q211.0 263.5 189.75 265.75Q168.5 268.0 140.0 268.5Q112.5 269.0 95.5 270.0Q78.5 271.0 68.0 273.25Q57.5 275.5 50.75 279.5Q44.0 283.5 36.5 290.5Q26.5 299.0 22.0 299.0Q19.5 299.0 17.5 290.5Q15.5 282.0 15.5 269.5Q15.5 259.0 14.0 248.0Q12.5 237.0 11.5 232.5ZM313.0 156.0Q312.0 155.5 311.25 149.25Q310.5 143.0 310.25 136.25Q310.0 129.5 310.0 127.5V125.5Q311.0 125.5 313.25 126.0Q315.5 126.5 317.5 127.5L319.5 128.5Q329.5 133.0 340.75 134.25Q352.0 135.5 364.5 135.5Q392.5 135.5 402.25 136.25Q412.0 137.0 412.0 139.5Q412.0 144.0 394.5 144.0H384.5Q382.0 143.5 379.0 143.5Q376.0 143.5 373.5 143.5Q365.5 143.5 358.0 143.75Q350.5 144.0 345.5 144.5Q337.0 145.5 332.25 147.0Q327.5 148.5 323.0 151.0Q319.5 153.0 316.25 154.5Q313.0 156.0 313.0 156.0ZM361.0 189.0Q356.0 194.0 351.5 195.0Q350.0 195.0 350.0 193.5Q350.0 173.5 349.0 164.5Q348.5 163.0 348.5 161.25Q348.5 159.5 348.5 158.5Q348.5 155.0 351.0 155.0Q351.0 155.0 353.5 156.25Q356.0 157.5 359.0 160.0Q366.5 165.0 372.5 167.5Q378.5 170.0 386.75 171.0Q395.0 172.0 410.0 172.5Q423.0 173.0 431.5 173.75Q440.0 174.5 440.0 175.5Q440.0 177.5 431.0 178.0Q422.0 178.5 408.0 178.5Q391.5 178.5 383.0 179.25Q374.5 180.0 370.25 182.0Q366.0 184.0 361.0 189.0ZM648.0 23.5 646.5 20.0V19.5Q646.5 17.0 653.75 15.75Q661.0 14.5 672.0 14.5Q684.0 14.5 699.0 14.75Q714.0 15.0 728.25 15.75Q742.5 16.5 752.25 17.5Q762.0 18.5 763.0 19.5V21.0Q763.0 23.5 759.5 27.25Q756.0 31.0 751.5 35.0Q747.0 38.5 740.75 47.25Q734.5 56.0 731.0 63.5Q724.0 75.5 720.0 89.25Q716.0 103.0 714.25 123.5Q712.5 144.0 712.5 177.0Q712.5 190.0 712.5 206.25Q712.5 222.5 713.0 241.5Q714.5 282.5 714.5 309.0Q714.5 350.5 708.0 350.5Q701.0 350.5 701.0 302.5Q701.0 290.5 700.5 273.5Q700.0 256.5 699.5 239.0Q699.0 221.5 698.0 207.5L696.0 161.0H621.0Q589.5 161.0 569.25 161.75Q549.0 162.5 536.0 164.5Q523.0 166.5 514.0 170.5Q505.0 174.5 496.0 181.0H497.0Q489.5 186.0 483.25 189.5Q477.0 193.0 477.0 193.0Q475.5 192.0 474.25 183.25Q473.0 174.5 472.0 162.5Q471.0 150.5 470.5 139.0Q470.0 127.5 470.0 121.0Q470.0 111.0 474.0 111.0Q475.0 111.0 481.5 113.75Q488.0 116.5 496.0 120.5Q516.0 130.0 534.25 135.75Q552.5 141.5 575.75 143.75Q599.0 146.0 634.0 146.0Q662.0 146.0 679.25 145.75Q696.5 145.5 696.5 145.0Q696.5 140.5 693.0 128.75Q689.5 117.0 683.5 101.75Q677.5 86.5 671.0 71.0Q664.5 55.5 658.25 42.75Q652.0 30.0 648.0 23.5Z" fill="black" /></svg>