<svg xmlns="http://www.w3.org/2000/svg" width="456.5" height="456.5" viewBox="0 0 456.5 456.5"><path d="M97.5 162.0Q96.0 159.0 94.5 156.0Q93.0 153.0 92.0 151.0Q90.0 154.5 87.0 158.5Q84.0 161.0 80.5 165.75Q77.0 170.5 73.0 175.0L69.5 180.0L47.0 204.5L61.0 207.0Q68.0 208.0 82.5 211.0Q97.0 214.0 108.5 216.5Q116.5 218.5 123.75 219.5Q131.0 220.5 136.0 221.5Q134.0 218.0 130.25 213.0Q126.5 208.0 121.5 201.5Q115.0 192.5 108.0 181.0Q101.0 169.5 97.5 162.0ZM207.5 128.0Q207.0 128.0 206.0 128.0Q205.0 128.0 204.0 128.0Q203.0 128.0 201.0 128.0Q199.0 128.0 197.5 128.5Q187.5 128.5 187.5 133.0Q187.5 135.5 188.75 139.75Q190.0 144.0 191.5 150.0L194.0 157.5L199.5 145.0Q202.0 140.5 204.0 136.0Q206.0 131.5 207.5 128.0ZM230.5 182.5Q225.5 166.5 221.75 155.75Q218.0 145.0 217.5 145.0Q214.5 145.0 211.75 156.0Q209.0 167.0 207.0 183.5Q205.0 200.0 205.0 216.0V246.5L224.0 258.0L242.5 267.5L241.5 246.5Q241.0 235.0 239.0 218.75Q237.0 202.5 230.5 182.5ZM253.5 160.0 255.0 156.0Q257.0 153.5 257.5 151.75Q258.0 150.0 258.0 149.5H236.0L243.0 167.0Q244.5 171.0 245.25 174.0Q246.0 177.0 246.5 178.5Q247.5 173.5 249.5 168.5Q251.5 163.5 253.5 160.0ZM303.5 121.5Q292.0 115.0 283.25 112.25Q274.5 109.5 265.0 108.5Q255.5 107.5 240.5 107.5Q219.5 108.0 205.75 109.25Q192.0 110.5 189.0 112.0Q190.5 113.5 195.5 113.5Q199.0 113.5 202.5 113.0Q206.0 112.5 209.5 112.0L213.5 111.5Q215.5 110.5 217.75 110.5Q220.0 110.5 221.5 110.5Q229.5 110.5 229.5 117.5Q229.5 121.0 228.5 122.5L228.0 125.0Q228.0 125.5 227.5 126.0Q227.0 126.5 227.0 127.0Q227.0 130.5 239.5 133.0H266.0Q268.5 132.0 271.25 131.75Q274.0 131.5 275.0 131.5Q280.5 131.5 280.5 136.5Q280.5 140.5 270.5 162.0Q266.0 170.5 263.75 178.5Q261.5 186.5 260.5 198.5Q259.5 210.5 259.5 231.0V279.0L376.5 348.0L378.0 300.5V281.5Q378.0 266.0 377.0 255.0Q376.0 244.0 373.75 233.25Q371.5 222.5 367.0 208.5Q359.0 183.0 351.0 167.0Q343.0 151.0 332.0 140.5Q321.0 130.0 303.5 121.5ZM147.0 84.0 158.5 56.0 140.5 53.5H120.5Q121.5 57.5 125.25 68.25Q129.0 79.0 133.25 89.75Q137.5 100.5 140.0 106.5Q141.0 102.0 143.0 96.0Q145.0 90.0 147.0 84.0ZM257.5 90.0 252.0 85.0Q248.0 81.0 243.75 72.25Q239.5 63.5 237.0 56.0L233.0 45.0L219.0 67.0Q215.5 72.0 212.25 77.75Q209.0 83.5 206.0 87.5L205.0 89.0Q203.0 92.0 202.75 92.5Q202.5 93.0 202.5 93.5Q209.5 93.5 217.0 93.25Q224.5 93.0 231.5 92.5ZM415.5 126.0Q412.0 126.5 403.0 126.5Q394.0 126.5 381.0 126.5H348.5L357.0 143.5Q361.5 153.0 367.0 164.75Q372.5 176.5 375.0 185.0Q377.5 190.5 379.0 195.5Q380.5 200.5 381.0 200.5Q382.0 200.5 383.5 195.0Q385.0 189.5 387.0 182.0Q389.5 173.5 394.75 162.5Q400.0 151.5 404.5 143.5Q408.5 138.0 411.75 132.75Q415.0 127.5 415.5 126.0ZM223.0 28.5Q234.0 10.0 240.5 10.0Q247.5 10.0 247.5 29.5Q247.5 43.0 254.5 57.5Q261.5 72.0 271.5 80.5Q278.0 86.5 289.25 94.0Q300.5 101.5 310.75 106.75Q321.0 112.0 324.0 112.0V112.5Q328.0 110.5 338.5 110.0Q349.0 109.5 363.0 109.5Q380.5 109.5 399.0 110.25Q417.5 111.0 431.0 112.5Q444.5 114.0 446.5 116.5Q446.5 116.5 442.0 122.25Q437.5 128.0 431.5 135.0Q425.0 141.5 417.5 152.0Q410.0 162.5 407.0 171.0Q403.5 178.0 401.25 186.0Q399.0 194.0 398.0 208.25Q397.0 222.5 396.75 248.25Q396.5 274.0 396.5 317.0V334.0Q396.5 388.5 394.0 417.5Q391.5 446.5 388.0 446.5Q382.0 446.5 379.5 405.0Q379.0 396.5 378.75 387.5Q378.5 378.5 378.5 373.5Q378.0 371.0 378.0 369.0Q378.0 367.0 378.0 367.0L339.5 345.0Q336.0 342.5 332.0 340.0Q328.0 337.5 323.5 335.5Q321.5 335.0 319.75 333.75Q318.0 332.5 316.0 331.5L259.5 298.0L258.5 326.0Q257.0 360.0 250.0 360.0Q242.5 360.0 242.5 322.0V287.5L205.0 265.0V299.5Q205.0 340.0 197.5 340.0H195.5Q194.0 339.0 192.25 325.25Q190.5 311.5 190.5 294.5V256.5L175.5 250.0Q172.0 249.0 168.75 247.75Q165.5 246.5 163.0 246.0L160.5 245.5Q158.5 244.5 157.5 244.0Q156.5 243.5 155.5 243.5Q155.0 243.5 154.0 256.0Q153.0 268.5 153.0 289.5Q153.0 314.0 151.25 328.0Q149.5 342.0 145.5 342.0Q142.0 342.0 140.25 327.5Q138.5 313.0 138.5 288.5V239.5L114.0 233.5Q102.5 230.0 84.75 227.0Q67.0 224.0 52.5 222.5L10.0 218.5L36.5 192.0Q45.0 183.0 56.25 169.25Q67.5 155.5 75.0 145.5Q83.5 134.0 88.25 129.0Q93.0 124.0 97.0 124.0Q101.0 124.0 102.5 127.25Q104.0 130.5 105.5 137.5Q106.0 142.0 109.75 150.5Q113.5 159.0 118.5 168.5Q123.5 178.0 128.75 185.75Q134.0 193.5 137.5 196.0Q138.0 197.5 138.5 197.5Q138.5 178.0 134.0 154.0Q129.5 130.0 122.5 106.5Q115.5 83.0 107.5 65.5Q104.5 58.5 102.75 51.5Q101.0 44.5 101.0 43.0Q101.0 40.5 113.25 38.5Q125.5 36.5 142.5 36.5Q160.5 36.5 173.25 38.25Q186.0 40.0 186.0 43.5V44.5Q184.0 45.5 182.5 49.5Q173.0 66.5 167.5 77.75Q162.0 89.0 159.25 99.25Q156.5 109.5 155.5 122.75Q154.5 136.0 153.5 156.5L151.5 213.0L188.0 236.0L189.5 222.0V218.5Q189.5 208.0 186.5 191.75Q183.5 175.5 178.75 159.25Q174.0 143.0 169.0 133.0Q167.0 129.5 165.25 126.25Q163.5 123.0 163.5 120.5Q163.5 118.0 166.0 115.75Q168.5 113.5 171.5 112.0L173.0 110.5Q174.0 109.5 176.0 108.5V108.0Q176.0 106.0 180.75 96.25Q185.5 86.5 193.5 77.0L198.0 70.0Q205.0 59.0 212.25 47.0Q219.5 35.0 223.0 28.5Z" fill="black" /></svg>