<svg xmlns="http://www.w3.org/2000/svg" width="483.5" height="388.5" viewBox="0 0 483.5 388.5"><path d="M58.0 283.0 50.0 280.5Q42.0 278.0 36.75 276.25Q31.5 274.5 30.5 274.5Q30.5 274.5 30.25 280.25Q30.0 286.0 30.0 293.5Q30.0 302.5 30.0 306.0Q30.0 309.5 30.5 309.5Q31.5 309.5 35.0 307.0Q39.0 304.5 46.25 301.0Q53.5 297.5 60.5 295.5Q76.0 291.5 76.0 290.5Q76.0 288.5 58.0 283.0ZM123.0 231.0 114.0 228.0Q110.5 227.0 108.0 226.5Q104.5 225.5 101.75 225.0Q99.0 224.5 97.5 224.5Q95.5 224.5 95.5 231.5Q95.5 237.5 97.5 237.5Q98.5 237.5 99.5 237.25Q100.5 237.0 102.0 236.5H103.5Q113.0 234.0 118.0 232.5Q123.0 231.0 123.0 231.0ZM118.5 180.5Q112.5 177.0 107.5 177.0Q100.0 177.0 100.0 182.5Q100.0 186.5 102.5 186.5Q103.5 186.5 104.75 186.25Q106.0 186.0 107.5 186.0Q113.5 184.0 117.0 183.0Q120.5 182.0 120.5 182.0L119.5 181.5Q119.5 181.5 118.5 180.5ZM129.5 262.5Q129.5 243.5 124.5 243.5Q119.5 243.5 106.5 250.5Q98.5 254.0 96.25 257.25Q94.0 260.5 94.0 268.5Q94.0 276.0 95.75 278.25Q97.5 280.5 107.0 282.5Q111.0 283.5 114.5 283.75Q118.0 284.0 120.5 284.0Q126.0 284.0 127.75 279.25Q129.5 274.5 129.5 262.5ZM129.0 211.0V207.0Q127.5 195.5 123.5 195.5Q119.5 195.5 110.5 198.5Q99.5 201.5 99.5 206.0Q99.5 209.0 105.25 211.75Q111.0 214.5 117.75 216.25Q124.5 218.0 127.0 218.0Q129.5 218.0 129.5 214.0Q129.5 212.0 129.0 211.0ZM180.0 245.0Q180.0 241.5 177.25 240.75Q174.5 240.0 164.5 240.0Q156.5 240.0 150.75 240.25Q145.0 240.5 144.5 241.5Q144.0 242.0 143.0 249.0Q142.0 256.0 142.0 264.5V285.0H175.5L178.0 270.0Q178.5 265.5 178.75 261.0Q179.0 256.5 179.5 253.0V247.5Q180.0 246.5 180.0 245.0ZM175.5 315.0Q177.0 315.0 177.0 313.0Q177.0 311.0 176.5 310.0Q175.5 309.0 175.5 307.0Q175.5 307.0 175.25 307.25Q175.0 307.5 175.0 308.0Q174.0 309.0 173.5 310.0Q170.5 313.0 170.5 314.5Q170.5 314.5 171.5 314.75Q172.5 315.0 173.0 315.5Q174.0 315.0 175.5 315.0ZM178.5 205.5Q176.5 193.5 174.75 191.5Q173.0 189.5 163.5 189.5Q153.5 189.5 149.75 194.0Q146.0 198.5 146.0 214.0Q146.0 222.0 154.75 223.75Q163.5 225.5 170.0 225.5Q179.5 225.5 179.5 215.5Q179.5 213.0 179.25 210.5Q179.0 208.0 178.5 205.5ZM215.0 295.0Q215.0 294.0 211.75 293.75Q208.5 293.5 204.5 293.5Q200.0 293.5 195.75 294.25Q191.5 295.0 190.5 296.0Q190.0 297.0 190.0 300.5Q190.0 306.0 191.5 312.75Q193.0 319.5 194.5 319.5Q196.5 319.5 201.25 314.25Q206.0 309.0 210.5 303.0Q215.0 297.0 215.0 295.0ZM189.0 281.5H227.0V235.5H212.0Q203.5 235.5 199.75 237.0Q196.0 238.5 194.5 244.25Q193.0 250.0 191.0 263.0ZM231.5 305.5Q229.5 301.0 228.5 301.0Q227.5 301.0 226.0 303.0Q224.0 304.5 224.0 305.5Q224.0 307.5 229.5 307.5Q232.0 307.5 232.0 306.5Q232.0 305.5 231.5 305.5ZM397.5 287.0 398.5 237.5 321.0 236.0 243.5 235.5 241.0 254.0V255.5Q240.5 259.5 240.25 263.25Q240.0 267.0 240.0 270.5Q240.0 277.0 240.5 278.0Q244.0 281.5 318.5 281.5Q355.5 281.5 375.75 283.0Q396.0 284.5 397.5 287.0ZM71.0 91.0Q62.0 88.5 53.25 85.75Q44.5 83.0 41.5 82.0Q40.5 81.5 39.5 81.5Q39.0 81.5 38.75 85.25Q38.5 89.0 38.5 99.0V116.0Q39.0 116.0 40.0 115.0L43.0 113.5Q47.0 111.0 55.0 107.75Q63.0 104.5 70.0 102.5Q86.5 98.0 86.5 97.0Q86.5 95.5 71.0 91.0ZM99.5 132.5Q98.0 132.0 94.5 131.5Q91.0 131.0 87.0 131.0H78.5L83.0 146.5Q84.5 153.0 86.0 160.25Q87.5 167.5 88.0 172.0Q92.5 160.5 95.75 149.25Q99.0 138.0 99.5 132.5ZM121.0 155.5Q119.0 136.5 115.5 136.5Q114.0 136.5 111.75 141.25Q109.5 146.0 107.75 151.75Q106.0 157.5 106.0 160.0Q106.0 162.0 111.5 164.5L116.0 166.0Q118.5 166.5 120.0 167.0Q121.5 167.5 122.0 167.5V166.0Q122.0 165.0 121.75 163.5Q121.5 162.0 121.5 160.0Q121.0 158.5 121.0 155.5ZM131.5 88.0H112.0Q120.5 90.0 127.0 90.75Q133.5 91.5 138.0 91.5Q145.5 91.5 145.5 90.0Q145.5 89.0 141.5 88.5Q137.5 88.0 131.5 88.0ZM148.5 131.5Q148.5 131.5 145.0 131.25Q141.5 131.0 137.5 131.0Q128.0 131.0 128.0 132.0Q128.0 134.0 128.5 134.5Q129.5 137.5 131.5 146.25Q133.5 155.0 135.5 164.5L137.5 175.0L141.5 160.0Q144.5 149.0 146.5 140.75Q148.5 132.5 148.5 131.5ZM152.5 79.0Q157.0 78.0 160.0 71.25Q163.0 64.5 163.0 60.5Q161.0 62.5 157.0 66.75Q153.0 71.0 149.75 74.75Q146.5 78.5 146.5 79.5H148.5Q149.0 79.5 149.5 79.0ZM172.0 166.0Q172.0 161.0 170.5 154.25Q169.0 147.5 167.0 142.5L164.5 137.0Q162.5 140.0 159.75 147.0Q157.0 154.0 155.0 160.75Q153.0 167.5 153.0 170.0Q153.0 176.0 167.5 176.0Q172.0 176.0 172.0 166.0ZM197.5 134.0Q198.5 133.5 198.5 132.0Q198.5 131.0 188.5 131.0Q179.5 131.0 178.0 132.5Q178.5 132.5 178.5 133.5Q178.5 134.5 179.5 138.5Q180.5 142.0 182.25 149.25Q184.0 156.5 185.0 163.5L188.0 175.5L190.0 165.0Q192.5 155.0 194.5 146.25Q196.5 137.5 197.5 134.0ZM222.5 170.0Q222.5 167.0 220.75 159.25Q219.0 151.5 216.75 144.75Q214.5 138.0 213.0 138.0Q211.5 138.0 208.75 145.5Q206.0 153.0 203.5 161.25Q201.0 169.5 201.0 172.0Q201.0 176.0 212.0 176.0Q222.5 176.0 222.5 170.0ZM227.0 223.0 226.0 205.5Q225.5 195.5 224.0 191.25Q222.5 187.0 218.5 187.0Q207.0 187.0 202.75 190.75Q198.5 194.5 198.0 207.0L196.5 223.0ZM389.5 186.5V186.0Q389.5 185.5 369.0 185.25Q348.5 185.0 319.5 185.0Q280.0 185.0 265.0 185.75Q250.0 186.5 249.5 188.0Q248.5 190.0 247.5 196.0Q246.5 202.0 245.5 209.0L243.0 223.0H396.5L394.0 207.5Q393.0 199.5 391.75 193.75Q390.5 188.0 389.5 186.5ZM429.5 137.5Q430.5 136.5 430.5 136.0Q430.5 135.0 426.25 135.0Q422.0 135.0 409.5 135.0H388.0L394.0 150.0Q396.5 157.5 400.5 172.25Q404.5 187.0 406.5 200.0L409.5 215.0L410.0 211.5Q411.5 203.0 414.75 189.25Q418.0 175.5 422.0 161.5Q426.0 147.5 429.5 137.5ZM233.0 71.5Q234.5 65.5 236.0 63.0Q232.0 65.5 226.0 71.25Q220.0 77.0 220.0 78.5Q220.0 79.0 221.75 79.5Q223.5 80.0 225.5 81.0H226.5Q228.5 81.0 229.75 79.0Q231.0 77.0 233.0 71.5ZM252.0 110.0Q244.0 104.5 236.5 102.25Q229.0 100.0 216.5 100.0Q200.0 100.0 195.0 102.0Q196.0 103.5 198.25 105.75Q200.5 108.0 203.0 110.5Q213.5 118.5 238.0 119.0Q241.0 119.5 243.75 119.5Q246.5 119.5 249.0 119.5Q259.0 119.5 262.0 118.0Q261.0 116.5 258.25 114.25Q255.5 112.0 252.0 110.0ZM246.5 135.5V135.0Q246.5 133.0 237.0 132.0Q235.0 131.5 232.5 131.5Q230.0 131.5 228.0 131.5Q228.0 132.5 229.5 136.5Q230.0 140.0 231.25 147.5Q232.5 155.0 233.5 162.0L236.5 176.0Q237.0 176.0 239.25 166.5Q241.5 157.0 246.5 135.5ZM395.5 112.0 395.0 102.5 329.0 101.0Q305.5 101.0 286.25 101.0Q267.0 101.0 262.5 100.5Q263.5 101.0 267.0 104.25Q270.5 107.5 275.5 111.5Q288.5 123.5 288.5 128.0Q288.5 133.5 276.5 133.5H274.0Q263.5 133.5 258.5 142.0L257.0 146.5Q256.5 148.0 256.0 149.75Q255.5 151.5 255.0 153.0Q254.0 156.0 253.25 159.5Q252.5 163.0 251.5 165.5L250.5 174.0H386.5L386.0 167.5Q385.5 162.0 382.75 154.25Q380.0 146.5 377.0 140.75Q374.0 135.0 372.0 135.0Q366.0 135.0 366.0 128.5Q366.0 126.0 371.5 124.5Q377.0 123.0 384.5 123.0Q391.5 123.0 393.75 122.25Q396.0 121.5 396.0 118.5Q396.0 117.5 396.0 115.75Q396.0 114.0 395.5 112.0ZM425.5 66.0 426.0 66.5V66.0Q426.0 65.5 409.5 65.5H391.5L400.5 82.5Q404.0 90.0 405.75 94.0Q407.5 98.0 408.0 99.0Q408.5 98.0 409.0 96.75Q409.5 95.5 410.0 94.0Q411.5 89.5 414.0 84.0Q416.5 78.5 418.5 76.5Q420.5 74.5 422.75 71.25Q425.0 68.0 425.5 66.0ZM169.5 36.5Q179.5 26.0 188.5 18.25Q197.5 10.5 198.5 10.0H200.0Q204.0 10.0 205.0 15.0Q204.5 17.0 202.75 21.25Q201.0 25.5 197.5 30.0Q175.0 57.5 175.0 74.5Q175.0 78.5 175.5 80.0Q176.0 84.5 177.25 88.0Q178.5 91.5 179.5 91.5Q188.0 91.5 241.0 40.0Q264.5 18.0 270.5 18.0Q274.0 18.0 274.0 21.5Q274.0 25.5 265.5 36.5Q263.0 40.5 258.75 48.25Q254.5 56.0 251.5 63.0Q249.0 67.5 247.25 71.25Q245.5 75.0 245.5 77.5Q245.5 83.5 262.75 85.5Q280.0 87.5 321.0 90.0Q325.5 90.0 330.0 90.0Q334.5 90.0 338.0 90.5Q348.0 90.5 355.5 90.75Q363.0 91.0 368.5 91.0Q382.0 91.0 385.5 90.25Q389.0 89.5 389.0 88.0Q389.0 84.5 385.0 79.25Q381.0 74.0 376.25 69.75Q371.5 65.5 368.5 65.5Q366.5 65.5 364.25 63.25Q362.0 61.0 362.0 59.0Q362.0 55.0 376.75 53.5Q391.5 52.0 417.0 52.0Q442.0 52.0 457.0 53.5Q472.0 55.0 472.0 59.0Q472.0 61.0 467.5 63.25Q463.0 65.5 457.0 65.5Q446.5 65.5 437.5 74.25Q428.5 83.0 423.25 95.0Q418.0 107.0 418.0 117.5Q418.0 121.5 423.0 122.25Q428.0 123.0 441.0 123.0Q452.5 123.0 461.5 123.75Q470.5 124.5 472.5 127.0Q473.5 128.0 473.5 129.5Q473.5 135.0 462.0 135.0Q458.5 135.0 453.5 137.0Q448.5 139.0 446.0 141.5Q438.5 151.0 431.75 177.75Q425.0 204.5 419.5 244.75Q414.0 285.0 411.0 335.0Q408.0 378.5 403.0 378.5Q400.5 378.5 398.75 361.75Q397.0 345.0 397.0 315.5V305.0L397.5 288.0Q396.0 290.0 375.5 291.75Q355.0 293.5 318.0 293.5H242.5L244.0 300.5Q246.0 304.5 248.25 308.5Q250.5 312.5 253.0 313.5Q267.0 323.0 280.75 333.25Q294.5 343.5 303.75 351.25Q313.0 359.0 313.0 361.5Q313.0 366.0 309.0 366.0Q307.0 366.0 300.0 361.5Q293.0 357.0 275.5 345.5Q265.0 338.0 250.75 329.75Q236.5 321.5 223.0 321.5Q217.0 321.5 212.75 322.75Q208.5 324.0 208.5 326.0Q208.5 326.5 215.5 332.25Q222.5 338.0 232.0 345.0Q243.5 353.0 250.75 360.75Q258.0 368.5 258.0 372.0Q258.0 378.0 255.0 378.0Q252.5 378.0 251.0 375.5Q249.0 372.5 241.0 366.5Q233.0 360.5 223.5 354.25Q214.0 348.0 206.0 343.25Q198.0 338.5 195.0 338.0Q191.5 338.0 189.75 337.5Q188.0 337.0 184.5 334.0Q181.0 329.0 172.0 329.0Q160.5 329.0 150.5 337.5Q141.0 344.5 136.0 344.5Q132.0 344.5 131.0 340.0Q131.5 338.5 133.25 335.5Q135.0 332.5 138.5 329.0Q142.0 326.5 147.75 320.0Q153.5 313.5 158.0 308.0L166.5 297.0L130.0 298.5Q90.0 300.0 68.25 307.0Q46.5 314.0 32.5 328.5Q20.0 341.0 14.0 342.0Q10.0 341.0 10.0 338.0Q10.0 335.5 13.0 328.0Q17.0 322.5 17.0 297.0V290.5Q16.5 286.5 16.5 283.25Q16.5 280.0 16.5 277.5Q16.5 257.5 21.5 257.5Q23.5 257.5 31.0 259.5Q38.5 261.5 46.0 265.0Q60.0 270.0 68.0 273.0Q76.0 276.0 79.0 276.0Q80.0 276.0 80.0 274.5Q80.0 273.0 79.75 272.0Q79.5 271.0 79.5 271.0Q76.5 271.0 75.25 252.0Q74.0 233.0 74.0 208.5Q73.5 175.0 72.25 160.25Q71.0 145.5 66.5 139.0L64.5 134.0Q64.0 132.5 63.5 131.0Q63.0 129.5 62.0 128.5Q60.0 123.5 60.0 123.0Q60.0 120.5 68.75 119.75Q77.5 119.0 91.0 119.0H110.0Q129.5 119.0 150.0 119.0Q170.5 119.0 179.0 118.5H193.0L186.5 113.0Q181.5 109.0 176.5 107.0Q171.5 105.0 161.5 105.0Q142.5 105.0 119.75 106.75Q97.0 108.5 75.75 115.0Q54.5 121.5 40.0 135.0Q34.0 140.5 28.25 144.75Q22.5 149.0 20.5 149.0H19.5Q19.0 147.5 19.0 145.5Q19.0 143.0 19.5 138.75Q20.0 134.5 21.5 129.5Q23.0 125.5 23.75 119.0Q24.5 112.5 24.5 106.0Q24.5 102.0 24.25 97.75Q24.0 93.5 23.5 90.0Q23.0 88.0 23.0 86.5Q23.0 85.0 23.0 83.5Q22.5 80.5 22.5 78.25Q22.5 76.0 22.5 74.0Q22.5 65.0 28.0 65.0Q28.5 65.0 29.5 65.0Q30.5 65.0 31.5 65.5H31.0Q54.0 73.0 73.5 78.5Q93.0 84.0 108.0 87.0L130.0 73.0Q137.0 67.5 148.5 56.75Q160.0 46.0 169.5 36.5Z" fill="black" /></svg>