<svg xmlns="http://www.w3.org/2000/svg" width="567.0" height="463.0" viewBox="0 0 567.0 463.0"><path d="M154.5 331.5Q147.5 327.5 134.5 318.0Q121.5 308.5 111.5 299.5L91.0 280.0L65.5 320.0Q61.5 327.0 57.75 333.25Q54.0 339.5 51.5 343.5Q52.0 343.5 52.75 343.5Q53.5 343.5 54.0 343.5L59.0 342.5Q70.0 340.5 87.0 338.0Q104.0 335.5 119.5 335.5H122.0Q139.5 336.0 152.0 338.0Q164.5 340.0 171.5 341.5Q172.0 341.5 172.0 341.5Q172.0 341.5 172.5 341.5Q169.5 339.5 164.75 336.5Q160.0 333.5 154.5 331.5ZM223.0 237.0 226.5 232.0Q226.5 232.5 226.25 232.5Q226.0 232.5 226.0 232.5H213.5Q212.0 231.5 211.0 231.5Q210.0 231.5 209.0 231.5Q213.0 235.0 215.0 239.5Q217.0 244.0 219.0 248.5Q219.0 246.0 220.0 242.75Q221.0 239.5 223.0 237.0ZM256.0 252.0Q251.0 247.0 246.75 244.0Q242.5 241.0 239.5 241.0Q234.5 241.0 232.25 256.5Q230.0 272.0 228.0 308.0Q227.0 325.0 226.5 335.5Q226.0 346.0 226.0 346.0L247.5 354.0Q255.5 356.5 261.0 358.25Q266.5 360.0 266.5 360.0Q267.0 354.0 267.25 341.5Q267.5 329.0 267.5 313.5Q267.5 292.5 266.5 281.0Q265.5 269.5 263.0 263.25Q260.5 257.0 256.0 252.0ZM340.0 380.5Q338.5 376.0 337.5 364.5Q336.5 353.0 336.0 331.0V309.5Q336.0 295.5 335.5 289.25Q335.0 283.0 333.25 280.0Q331.5 277.0 328.0 274.0Q327.0 273.0 326.5 272.0Q325.5 270.0 324.0 269.5Q314.0 257.0 308.75 251.5Q303.5 246.0 303.5 246.0Q303.5 246.0 297.25 252.0Q291.0 258.0 288.5 263.5Q287.5 269.5 286.5 284.5Q285.5 299.5 285.5 320.0V366.0L308.0 372.0Q316.5 374.0 324.75 376.25Q333.0 378.5 340.0 380.5ZM180.5 49.5 187.5 40.5 163.0 39.5Q153.0 38.5 142.75 38.25Q132.5 38.0 132.5 38.0L166.5 84.0Q167.0 82.0 168.0 79.5Q169.0 77.0 169.5 74.0Q172.5 67.5 175.5 60.25Q178.5 53.0 180.5 49.5ZM278.5 162.5 259.5 153.0Q255.0 149.5 249.25 144.25Q243.5 139.0 239.5 134.5Q235.5 130.0 235.5 130.0Q233.5 135.5 231.75 143.5Q230.0 151.5 229.0 154.5L224.0 173.5Q232.5 170.5 241.0 168.5Q249.5 166.5 258.0 165.5Q259.5 165.0 261.75 164.5Q264.0 164.0 266.5 163.5Q267.5 163.0 269.0 163.0Q270.5 163.0 271.0 163.0Q273.0 163.0 274.75 163.0Q276.5 163.0 278.5 162.5ZM276.5 251.0 285.5 240.0 266.0 239.5ZM330.5 249.0 344.0 264.0 354.5 250.0ZM428.0 243.0Q430.0 240.0 435.0 234.5Q440.0 229.0 444.75 224.75Q449.5 220.5 449.5 220.5Q442.0 221.0 433.0 221.25Q424.0 221.5 418.5 221.5Q414.5 221.5 406.75 221.25Q399.0 221.0 391.25 220.75Q383.5 220.5 378.5 220.5Q384.0 223.0 394.5 228.25Q405.0 233.5 411.5 239.0Q412.0 239.5 413.5 240.5Q415.0 241.5 415.5 242.5Q418.0 244.5 420.5 247.0Q423.0 249.5 424.0 249.5Q425.5 249.5 428.0 243.0ZM264.0 85.0 289.5 83.0 276.5 78.0Q275.5 77.0 269.0 71.0Q262.5 65.0 260.0 63.0V68.0Q260.0 74.0 256.5 83.0Q256.5 83.5 256.0 85.0Q255.5 86.5 255.5 86.5Q257.0 86.0 258.75 85.75Q260.5 85.5 262.0 85.0ZM423.0 103.5Q422.0 104.5 421.0 105.0Q406.0 105.0 390.25 104.25Q374.5 103.5 359.0 101.5Q345.5 100.0 333.75 99.5Q322.0 99.0 312.0 99.0Q288.0 99.0 274.25 102.5Q260.5 106.0 253.0 111.5Q251.5 113.0 250.5 115.0Q249.5 117.0 249.0 118.0Q250.0 126.0 263.75 135.5Q277.5 145.0 302.0 152.25Q326.5 159.5 359.0 162.0L416.5 166.5L420.5 124.5Q421.5 118.0 422.0 112.75Q422.5 107.5 423.0 103.5ZM436.5 49.0 439.0 45.5Q440.0 43.5 445.5 38.75Q451.0 34.0 456.0 29.75Q461.0 25.5 461.0 25.5Q453.0 27.0 444.25 27.5Q435.5 28.0 427.0 28.0Q416.5 27.5 404.75 26.75Q393.0 26.0 385.0 25.25Q377.0 24.5 377.0 24.5Q377.0 24.5 384.5 27.25Q392.0 30.0 401.5 34.5Q411.0 39.0 417.5 44.5Q421.5 47.5 426.5 52.25Q431.5 57.0 431.5 57.0Q432.5 54.5 434.0 52.75Q435.5 51.0 436.5 49.0ZM343.5 18.5Q343.5 15.0 367.0 13.0Q390.5 11.0 425.0 10.0Q456.0 10.0 471.25 10.75Q486.5 11.5 492.0 13.5Q497.5 15.5 499.0 20.0V19.5Q499.5 21.0 499.5 23.5Q499.5 29.0 489.0 30.5Q470.0 33.0 458.25 47.75Q446.5 62.5 442.5 96.5Q440.5 115.0 439.0 137.0Q437.5 159.0 437.5 172.0L437.0 203.0H462.5Q492.0 203.0 492.0 211.5Q492.0 219.0 469.5 227.0Q456.0 232.0 448.5 243.0Q441.0 254.0 438.0 276.25Q435.0 298.5 434.5 338.0L432.5 406.0L491.0 420.5Q516.5 427.5 535.25 433.75Q554.0 440.0 556.5 445.0Q557.0 446.0 557.0 447.0Q557.0 448.0 557.0 448.5Q557.0 453.0 552.5 453.0Q549.5 453.0 545.0 451.5L429.5 423.0Q427.5 425.0 424.0 425.0Q415.0 425.0 411.0 417.0L208.0 362.0Q192.5 357.0 173.0 355.0Q153.5 353.0 134.5 353.0Q102.5 353.0 74.0 357.75Q45.5 362.5 32.5 369.5Q20.5 375.0 16.5 375.0Q10.0 375.0 10.0 368.5Q10.0 364.5 15.75 355.75Q21.5 347.0 32.0 334.0Q38.5 326.0 47.5 313.0Q56.5 300.0 63.75 286.0Q71.0 272.0 71.0 261.5H70.5Q70.0 259.0 70.0 256.0Q70.0 249.0 76.5 242.0Q83.0 235.0 90.0 235.0Q93.0 235.0 95.75 239.25Q98.5 243.5 98.5 250.5Q98.5 255.5 103.5 264.25Q108.5 273.0 117.0 280.0Q134.5 297.0 144.5 305.75Q154.5 314.5 154.5 314.5Q154.5 289.5 155.0 264.5Q155.5 239.5 156.5 215.0Q158.0 171.5 158.0 147.0Q158.0 128.0 156.75 116.75Q155.5 105.5 151.5 96.0Q145.0 82.0 135.25 69.0Q125.5 56.0 116.25 47.75Q107.0 39.5 101.0 39.5Q92.5 39.5 87.25 35.5Q82.0 31.5 82.0 28.0Q82.0 25.5 84.0 23.0Q86.0 20.5 90.0 19.5H92.5Q94.0 18.5 97.25 18.5Q100.5 18.5 103.0 18.5Q113.5 18.5 130.75 19.25Q148.0 20.0 166.5 21.0Q199.5 22.0 214.75 24.0Q230.0 26.0 230.0 30.0Q230.0 33.0 219.5 38.5L218.5 39.5Q207.5 45.0 200.0 55.25Q192.5 65.5 187.75 84.0Q183.0 102.5 180.0 132.25Q177.0 162.0 175.0 206.0L170.5 321.5L186.5 329.5Q192.0 332.5 200.5 336.25Q209.0 340.0 209.0 340.0V338.0Q209.5 331.5 210.25 319.25Q211.0 307.0 211.0 294.5Q211.0 276.0 210.0 266.25Q209.0 256.5 205.75 251.0Q202.5 245.5 195.0 240.0Q189.0 235.0 185.0 230.0Q181.0 225.0 180.5 222.0Q182.0 220.5 182.0 219.0Q186.0 216.0 203.5 216.0Q215.5 216.0 232.0 217.25Q248.5 218.5 265.0 220.5Q281.5 222.5 294.5 224.75Q307.5 227.0 312.5 229.5Q317.5 232.0 325.5 233.5Q333.5 235.0 346.5 235.0Q360.0 235.0 370.0 236.0Q380.0 237.0 380.0 241.0Q380.0 242.5 377.5 246.25Q375.0 250.0 371.0 254.0L367.0 258.5Q361.0 264.0 357.75 272.0Q354.5 280.0 354.0 295.0V314.0Q353.5 317.5 353.25 320.75Q353.0 324.0 353.0 327.5Q352.5 354.5 352.0 366.75Q351.5 379.0 348.5 383.0Q359.5 386.0 368.25 388.5Q377.0 391.0 384.0 393.0Q394.5 396.0 401.5 397.5Q408.5 399.0 412.0 400.0L413.5 332.0Q413.5 304.0 412.5 289.5Q411.5 275.0 408.0 267.0Q404.5 259.0 396.5 251.0Q389.5 244.0 378.25 236.75Q367.0 229.5 360.5 227.0Q337.5 218.5 337.5 212.5Q337.5 204.0 366.0 204.0H372.0Q374.0 204.5 375.5 204.75Q377.0 205.0 379.0 205.0H389.0Q391.5 205.5 393.25 205.5Q395.0 205.5 396.0 205.5Q410.0 205.5 413.25 203.25Q416.5 201.0 417.0 194.5V193.0Q417.5 191.5 417.5 190.5Q417.5 186.5 409.75 184.5Q402.0 182.5 375.0 180.5Q362.0 179.0 344.5 178.5Q327.0 178.0 310.5 178.0Q302.0 178.0 294.0 178.0Q286.0 178.0 279.0 178.5Q260.0 179.5 249.25 181.0Q238.5 182.5 232.75 185.5Q227.0 188.5 222.5 194.0Q214.0 204.0 207.5 204.0Q201.0 204.0 201.0 194.0Q201.0 190.0 202.25 185.25Q203.5 180.5 205.5 175.0Q207.5 167.0 211.25 152.5Q215.0 138.0 217.0 125.5Q218.5 113.0 223.0 103.5Q227.5 94.0 231.0 94.0Q231.5 94.0 233.5 95.0Q234.0 93.5 235.0 89.5L235.5 86.5Q237.0 83.5 237.75 78.75Q238.5 74.0 239.0 69.0Q242.0 45.0 245.0 34.75Q248.0 24.5 252.0 24.5Q257.5 24.5 264.0 38.0Q274.5 58.0 298.25 69.0Q322.0 80.0 363.5 84.5Q390.0 87.0 404.75 89.5Q419.5 92.0 423.5 96.0Q423.5 81.0 415.5 70.25Q407.5 59.5 395.75 51.5Q384.0 43.5 372.0 37.5Q360.5 33.0 352.0 27.0Q343.5 21.0 343.5 18.5Z" fill="black" /></svg>