<svg xmlns="http://www.w3.org/2000/svg" width="493.0" height="456.5" viewBox="0 0 493.0 456.5"><path d="M86.0 269.5Q85.5 267.0 83.5 263.25Q81.5 259.5 79.0 254.5L67.5 232.0L44.5 261.0L64.5 266.0Q68.5 266.5 72.5 267.25Q76.5 268.0 79.0 269.0L83.0 269.5Q84.0 269.5 84.75 269.5Q85.5 269.5 86.0 269.5ZM98.5 138.5Q95.0 138.0 89.25 137.25Q83.5 136.5 76.5 136.0L54.0 134.5L64.0 151.0L74.0 169.0L87.0 153.0Q95.0 144.5 98.5 138.5ZM304.5 109.5Q278.5 95.5 256.25 87.75Q234.0 80.0 223.5 80.0Q219.5 80.0 219.5 80.5Q217.5 83.0 205.5 90.5Q193.5 98.0 178.5 106.5Q162.0 114.5 143.25 127.0Q124.5 139.5 114.5 150.0Q101.0 162.0 95.0 170.0Q89.0 178.0 87.75 187.75Q86.5 197.5 86.5 215.5Q86.5 225.5 88.75 233.0Q91.0 240.5 94.5 249.0Q100.0 260.0 112.0 275.75Q124.0 291.5 139.5 307.0Q155.0 322.5 171.25 332.75Q187.5 343.0 201.5 343.0Q216.0 343.0 235.5 336.0Q255.0 329.0 284.0 314.5Q298.5 307.0 320.25 294.75Q342.0 282.5 365.75 268.5Q389.5 254.5 410.0 241.75Q430.5 229.0 443.5 220.0Q456.5 211.0 456.5 209.5Q456.5 207.0 445.0 198.25Q433.5 189.5 415.25 177.0Q397.0 164.5 376.0 151.25Q355.0 138.0 336.0 126.75Q317.0 115.5 304.5 109.5ZM291.5 52.5V52.0Q289.5 46.0 287.5 41.25Q285.5 36.5 285.5 36.5Q283.0 37.0 276.5 41.5Q270.0 46.0 262.5 51.5Q255.0 57.0 249.75 61.75Q244.5 66.5 244.5 68.0Q244.5 68.5 246.75 69.0Q249.0 69.5 251.0 69.5Q254.5 69.5 267.5 73.5Q280.5 77.5 293.5 83.0L315.5 93.0L311.0 87.0Q307.0 80.5 301.25 70.25Q295.5 60.0 291.5 52.5ZM222.5 400.5Q225.0 396.0 231.5 387.25Q238.0 378.5 246.0 368.5Q254.0 358.5 261.75 350.25Q269.5 342.0 274.0 338.5Q270.0 339.5 263.75 342.0Q257.5 344.5 249.5 348.0Q238.5 352.5 225.25 356.0Q212.0 359.5 206.5 359.5Q196.5 359.5 196.5 362.0Q196.5 365.0 199.5 372.0Q202.5 379.0 206.5 390.0L216.0 409.0ZM267.5 27.5Q277.5 19.0 284.0 14.5Q290.5 10.0 294.0 10.0Q303.0 10.0 303.0 26.5Q303.0 41.5 314.75 62.0Q326.5 82.5 346.75 103.5Q367.0 124.5 392.5 141.5Q407.5 151.0 423.5 163.0Q439.5 175.0 454.0 187.0L483.0 211.5L430.0 247.5Q417.0 256.5 402.5 266.0Q388.0 275.5 375.75 283.25Q363.5 291.0 357.0 295.0Q338.5 306.0 317.25 323.25Q296.0 340.5 276.5 360.5Q257.0 380.5 242.75 399.5Q228.5 418.5 224.0 432.0Q219.0 446.5 212.5 446.5Q205.5 446.5 202.5 428.0Q197.5 400.5 182.0 376.5Q166.5 352.5 140.0 328.5Q112.5 304.0 86.25 291.25Q60.0 278.5 38.0 278.0H36.0Q28.0 278.5 20.0 278.75Q12.0 279.0 10.5 279.0L10.0 276.0Q10.0 273.0 18.25 262.75Q26.5 252.5 38.5 239.5Q50.5 227.5 59.5 216.25Q68.5 205.0 68.5 202.5Q68.5 199.5 62.25 185.5Q56.0 171.5 47.0 155.5Q39.0 139.5 33.0 127.5Q27.0 115.5 27.0 112.5V112.0Q27.5 109.0 31.5 109.0Q34.0 109.0 39.75 111.25Q45.5 113.5 51.5 116.5Q58.0 118.5 66.5 120.25Q75.0 122.0 83.0 122.0Q99.0 122.0 118.75 115.5Q138.5 109.0 160.0 98.0Q176.0 89.5 188.25 82.25Q200.5 75.0 202.5 72.5Q204.0 70.5 211.5 65.75Q219.0 61.0 227.0 57.0Q235.0 53.0 246.75 44.25Q258.5 35.5 267.5 27.5Z" fill="black" /></svg>