<svg xmlns="http://www.w3.org/2000/svg" width="575.0" height="466.5" viewBox="0 0 575.0 466.5"><path d="M74.0 216.0 64.0 212.0Q55.5 208.5 50.0 206.75Q44.5 205.0 41.0 205.0Q36.5 205.0 36.5 216.5Q36.5 228.5 40.0 228.5Q42.5 228.5 48.0 226.75Q53.5 225.0 61.5 222.5ZM65.5 285.5Q64.0 284.0 57.75 282.25Q51.5 280.5 45.25 279.0Q39.0 277.5 37.5 277.5Q37.0 277.5 36.75 282.75Q36.5 288.0 36.5 293.5Q36.5 299.0 37.0 304.0Q37.5 309.0 38.0 310.0Q42.5 309.5 51.75 306.0Q61.0 302.5 70.0 298.25Q79.0 294.0 83.0 291.5Q81.5 290.5 78.25 289.5Q75.0 288.5 72.5 287.5Q70.5 287.0 69.0 286.5Q67.5 286.0 65.5 285.5ZM235.0 226.5Q240.5 219.0 242.0 212.0Q235.5 215.0 224.0 221.5Q212.5 228.0 200.25 235.5Q188.0 243.0 178.75 249.5Q169.5 256.0 167.0 258.5Q169.5 259.0 175.5 261.5Q181.5 264.0 189.5 267.0Q191.0 267.5 193.25 267.75Q195.5 268.0 197.0 268.5Q199.0 269.0 201.25 269.75Q203.5 270.5 205.5 271.5Q210.5 272.5 215.0 274.0Q219.5 275.5 221.0 276.0H221.5Q223.0 276.0 223.0 263.0Q223.0 255.0 226.5 244.25Q230.0 233.5 235.0 226.5ZM294.0 278.5V195.0Q293.0 192.5 292.5 189.75Q292.0 187.0 291.5 185.0Q290.5 179.5 289.5 176.25Q288.5 173.0 288.5 173.0Q284.5 173.0 276.75 183.75Q269.0 194.5 260.5 209.5Q252.0 224.5 246.0 239.0Q240.0 253.5 240.0 261.0Q240.0 266.0 242.25 271.5Q244.5 277.0 247.0 279.5Q250.5 283.0 253.25 288.25Q256.0 293.5 256.0 297.0Q256.0 300.0 261.5 306.5Q267.0 313.0 275.0 319.5L290.0 331.5ZM410.5 259.0Q405.5 258.0 396.0 256.0Q386.5 254.0 376.25 251.5Q366.0 249.0 358.0 247.0Q350.0 245.0 347.0 244.0Q345.0 243.5 343.25 243.0Q341.5 242.5 340.5 242.5Q340.5 242.5 340.5 242.75Q340.5 243.0 340.5 243.5Q340.5 244.0 341.0 244.5Q342.5 248.0 343.5 257.5Q344.5 267.0 344.5 275.5V289.5L368.0 277.0Q374.5 275.5 378.5 272.0Q388.0 268.0 396.5 264.25Q405.0 260.5 409.0 259.5Q409.5 259.5 409.75 259.25Q410.0 259.0 410.5 259.0ZM73.5 124.5Q51.5 119.5 38.5 118.0L35.0 117.0Q33.0 115.5 32.0 115.5Q31.5 116.5 31.0 122.25Q30.5 128.0 30.5 136.0Q30.5 147.0 30.75 151.0Q31.0 155.0 32.5 155.0Q33.0 155.0 34.25 155.0Q35.5 155.0 36.0 154.5Q56.0 145.5 71.25 140.5Q86.5 135.5 94.0 135.0H103.5Q103.5 134.0 73.5 124.5ZM338.0 47.5Q337.0 48.0 334.75 48.0Q332.5 48.0 330.0 48.0Q326.0 48.0 318.75 48.75Q311.5 49.5 303.0 50.5L274.5 53.0L287.5 92.0Q293.0 110.0 297.75 127.0Q302.5 144.0 302.5 150.5Q302.5 154.5 303.75 159.25Q305.0 164.0 306.5 165.0L307.0 165.5Q308.0 158.5 310.75 144.75Q313.5 131.0 317.25 115.0Q321.0 99.0 324.75 85.75Q328.5 72.5 330.5 67.0Q333.0 61.0 335.25 55.25Q337.5 49.5 338.0 47.5ZM95.0 387.5 86.5 385.0Q71.5 382.0 58.75 379.0Q46.0 376.0 42.0 375.0H40.5L39.0 374.0Q37.0 374.0 35.75 381.25Q34.5 388.5 33.75 396.75Q33.0 405.0 33.0 408.0Q33.0 415.5 36.0 415.5Q38.0 415.5 41.25 414.25Q44.5 413.0 48.5 411.5Q55.5 408.0 69.0 404.0Q82.5 400.0 96.75 397.0Q111.0 394.0 120.5 393.5Q117.5 392.5 110.75 391.0Q104.0 389.5 95.0 387.5ZM251.5 322.0Q236.5 311.0 225.5 302.75Q214.5 294.5 212.5 294.5Q210.5 294.5 208.0 295.5Q206.0 295.5 202.25 295.75Q198.5 296.0 194.5 296.0Q185.5 297.0 175.5 297.5Q165.5 298.0 156.5 298.0Q117.0 301.5 89.0 310.25Q61.0 319.0 47.0 331.0Q36.0 340.5 36.0 348.0Q36.0 355.5 49.75 361.0Q63.5 366.5 85.75 370.0Q108.0 373.5 134.75 375.75Q161.5 378.0 187.75 379.0Q214.0 380.0 236.0 380.5Q258.0 381.0 270.0 381.0Q284.5 381.0 288.75 380.0Q293.0 379.0 294.5 376.5Q295.0 374.5 295.25 373.0Q295.5 371.5 295.5 370.0Q295.5 362.0 285.25 351.25Q275.0 340.5 251.5 322.0ZM350.0 21.0Q355.0 16.5 362.0 13.25Q369.0 10.0 369.0 10.0L370.0 15.0Q370.0 17.0 366.0 27.75Q362.0 38.5 355.5 52.0Q350.0 63.0 343.75 83.0Q337.5 103.0 331.75 125.75Q326.0 148.5 322.5 168.25Q319.0 188.0 319.0 198.0Q319.0 204.0 327.0 211.25Q335.0 218.5 347.75 224.75Q360.5 231.0 375.0 235.0Q382.0 236.5 398.25 238.25Q414.5 240.0 436.0 241.5Q457.5 243.0 479.5 244.0Q503.0 244.5 522.5 246.25Q542.0 248.0 553.5 249.75Q565.0 251.5 565.0 253.5Q565.0 256.5 546.0 259.5Q527.0 262.5 500.5 264.0Q468.0 265.0 446.0 268.25Q424.0 271.5 407.0 277.5Q389.5 283.5 374.0 293.25Q358.5 303.0 349.0 313.0Q339.5 323.0 339.5 331.0Q339.5 336.0 337.25 341.0Q335.0 346.0 332.5 348.5L330.5 349.0Q324.5 349.0 324.5 333.0Q324.5 329.0 324.75 323.25Q325.0 317.5 325.5 311.0L326.0 304.0V302.5Q326.5 297.0 326.75 291.75Q327.0 286.5 327.0 281.5Q327.0 258.5 324.0 241.5Q321.0 224.5 315.5 224.5Q312.5 224.5 310.25 246.75Q308.0 269.0 308.0 303.5V344.5L335.5 371.5Q347.5 382.5 354.75 393.0Q362.0 403.5 362.0 407.0V407.5Q360.5 410.5 358.0 410.5Q356.0 410.5 348.75 405.75Q341.5 401.0 334.0 393.0Q326.5 384.0 319.75 378.25Q313.0 372.5 310.5 372.5Q308.5 372.5 308.5 373.5Q308.5 375.5 312.0 380.0Q314.0 382.0 314.5 388.0Q315.0 394.0 315.0 401.5Q315.0 412.5 313.5 425.5Q312.0 438.5 309.75 447.5Q307.5 456.5 304.5 456.5Q302.5 456.5 299.25 446.5Q296.0 436.5 295.5 425.0L294.0 401.0L247.5 399.0H238.5Q236.5 398.0 234.5 398.0Q232.5 398.0 230.0 398.0Q202.5 398.0 173.5 401.0Q144.5 404.0 117.75 409.25Q91.0 414.5 70.25 420.75Q49.5 427.0 39.0 434.0Q28.0 442.5 21.5 442.5L18.5 442.0Q17.5 438.0 17.5 422.0Q17.5 414.5 17.5 404.25Q17.5 394.0 18.0 383.5Q19.0 364.0 19.5 348.25Q20.0 332.5 20.0 320.0Q20.0 293.0 18.25 277.25Q16.5 261.5 12.5 252.0Q10.0 245.5 10.0 239.0Q10.0 232.0 15.0 230.5Q17.0 230.0 18.25 222.0Q19.5 214.0 19.5 205.0Q19.5 198.0 18.5 192.5Q17.5 187.0 16.0 186.0Q13.5 184.5 12.75 175.0Q12.0 165.5 12.0 151.5Q12.0 135.5 13.0 117.75Q14.0 100.0 16.0 87.25Q18.0 74.5 20.5 73.5H21.5Q29.0 73.5 32.5 87.5Q35.0 97.0 50.25 103.25Q65.5 109.5 97.5 113.25Q129.5 117.0 181.0 119.0Q206.5 119.5 228.25 121.25Q250.0 123.0 263.25 125.0Q276.5 127.0 276.5 129.0Q276.5 131.5 264.0 133.5Q251.5 135.5 233.0 135.5Q200.5 135.5 167.0 139.25Q133.5 143.0 104.75 149.0Q76.0 155.0 57.5 162.25Q39.0 169.5 37.0 176.5V178.5Q37.0 188.0 59.25 193.75Q81.5 199.5 124.5 202.5Q150.5 203.5 169.0 206.75Q187.5 210.0 187.5 212.5Q187.5 215.5 179.0 217.5Q170.5 219.5 158.5 219.5Q133.0 219.5 107.25 225.0Q81.5 230.5 63.25 238.75Q45.0 247.0 42.0 256.0Q43.0 262.0 55.25 266.25Q67.5 270.5 85.75 273.25Q104.0 276.0 123.75 277.75Q143.5 279.5 160.0 280.25Q176.5 281.0 185.0 281.0Q181.0 279.5 174.75 277.75Q168.5 276.0 163.0 275.5Q149.0 273.0 141.25 270.0Q133.5 267.0 133.5 262.0Q133.5 255.0 155.0 243.5Q162.0 239.5 177.25 230.5Q192.5 221.5 210.5 209.5Q228.5 197.5 245.0 184.5Q261.5 171.5 272.25 159.5Q283.0 147.5 283.0 138.5Q283.0 131.0 278.75 116.5Q274.5 102.0 268.0 85.5Q261.5 69.0 254.25 55.75Q247.0 42.5 241.5 38.0Q231.0 28.0 231.0 23.5Q231.0 17.5 238.5 17.5Q242.0 17.5 247.75 19.75Q253.5 22.0 260.0 26.5Q266.5 31.5 271.75 33.5Q277.0 35.5 285.0 35.5Q294.0 35.5 306.75 34.0Q319.5 32.5 331.5 29.25Q343.5 26.0 350.0 21.0Z" fill="black" /></svg>