<svg xmlns="http://www.w3.org/2000/svg" width="432.0" height="380.0" viewBox="0 0 432.0 380.0"><path d="M78.5 224.5 63.5 220.5 47.0 215.0 41.0 213.5Q39.0 212.5 37.5 212.25Q36.0 212.0 35.0 211.5Q35.5 214.0 36.75 221.25Q38.0 228.5 39.5 235.75Q41.0 243.0 42.0 246.0Q45.5 242.5 61.0 233.5ZM65.0 293.0Q60.0 291.5 56.25 290.25Q52.5 289.0 50.0 288.5Q50.0 291.0 50.5 295.75Q51.0 300.5 51.5 306.0Q56.5 323.5 57.5 323.5Q63.0 318.0 69.0 314.5Q75.0 311.0 82.5 307.5Q86.0 305.5 88.5 304.0Q91.0 302.5 93.0 302.0Q92.5 302.0 92.5 302.0Q92.5 302.0 92.0 302.0L90.5 301.5Q86.5 300.5 78.75 297.75Q71.0 295.0 65.0 293.0ZM211.5 270.0Q210.5 267.0 203.0 258.5Q195.5 250.0 185.75 240.5Q176.0 231.0 167.75 224.25Q159.5 217.5 156.5 217.5H155.5Q150.5 217.5 137.5 220.5Q124.5 223.5 108.5 228.5Q92.5 233.5 77.75 240.25Q63.0 247.0 53.25 254.5Q43.5 262.0 43.5 270.0Q43.5 273.0 52.25 276.5Q61.0 280.0 73.0 282.75Q85.0 285.5 96.5 287.5Q108.0 289.5 113.0 289.5Q118.0 289.5 132.0 287.5Q146.0 285.5 162.5 282.25Q179.0 279.0 192.75 275.75Q206.5 272.5 211.5 270.0ZM282.0 218.5Q271.5 207.0 263.75 199.25Q256.0 191.5 255.0 190.5Q248.0 192.0 235.75 195.0Q223.5 198.0 210.5 201.75Q197.5 205.5 188.25 208.5Q179.0 211.5 178.0 212.5Q179.0 215.5 186.25 223.75Q193.5 232.0 203.0 241.0Q212.5 250.0 220.25 256.75Q228.0 263.5 230.5 264.5Q234.5 264.0 245.0 261.75Q255.5 259.5 268.25 256.25Q281.0 253.0 291.75 250.25Q302.5 247.5 306.5 246.0Q304.5 243.5 297.75 235.75Q291.0 228.0 282.0 218.5ZM101.0 129.5 99.5 125.5Q99.0 123.0 98.25 120.0Q97.5 117.0 96.5 113.5L92.5 99.0L69.0 111.5L86.0 121.5Q90.5 124.5 94.5 126.5Q98.5 128.5 101.0 129.5ZM165.5 49.5Q165.5 41.0 163.0 41.0Q161.0 41.0 156.5 43.75Q152.0 46.5 145.5 50.5L136.0 57.5L143.5 60.5Q149.0 62.5 155.5 66.75Q162.0 71.0 165.5 74.5Q170.0 79.0 172.0 80.0Q172.0 77.5 169.5 71.0L169.0 69.5Q168.0 65.0 166.75 59.0Q165.5 53.0 165.5 49.5ZM112.0 70.5Q114.0 72.0 114.0 75.5Q114.0 80.5 109.5 84.5Q107.0 85.5 107.0 93.0Q107.0 108.0 113.0 124.5Q119.0 141.0 128.5 156.25Q138.0 171.5 148.5 182.0L167.0 200.5L204.5 190.5Q217.5 187.5 228.25 184.75Q239.0 182.0 244.0 180.5Q241.0 174.5 230.5 162.25Q220.0 150.0 204.75 133.25Q189.5 116.5 172.0 99.0Q161.0 87.5 146.75 78.75Q132.5 70.0 116.5 69.5Q115.5 70.0 114.25 70.0Q113.0 70.0 112.0 70.5ZM164.0 19.5Q166.5 15.0 171.0 12.5Q175.5 10.0 178.0 10.0Q184.0 10.0 184.0 13.0Q184.0 14.0 180.5 19.5L179.5 21.0Q177.0 27.0 177.0 36.5Q177.0 44.5 178.75 54.25Q180.5 64.0 183.5 75.5Q188.5 87.5 194.25 98.0Q200.0 108.5 208.75 119.75Q217.5 131.0 231.5 146.0L261.5 177.5L325.5 160.5Q361.0 151.5 376.25 148.0Q391.5 144.5 396.5 144.5Q400.5 144.5 401.75 145.75Q403.0 147.0 403.0 149.5Q403.0 151.0 383.25 157.75Q363.5 164.5 335.5 171.5Q322.0 175.0 309.5 178.0Q297.0 181.0 288.5 183.0Q281.0 185.0 276.25 186.0Q271.5 187.0 271.5 187.0Q271.5 187.5 277.75 194.25Q284.0 201.0 292.5 211.0L320.5 243.0Q333.0 240.0 344.5 237.0Q356.0 234.0 368.0 230.5Q386.0 226.5 400.25 224.0Q414.5 221.5 418.0 221.5H419.5Q422.0 223.0 422.0 225.5Q421.5 229.5 409.5 233.25Q397.5 237.0 372.5 243.0Q357.5 246.5 345.75 249.5Q334.0 252.5 334.0 253.0Q334.0 254.0 341.5 262.75Q349.0 271.5 359.5 283.0L363.5 287.0Q375.5 300.5 384.5 312.0Q393.5 323.5 393.5 326.0L393.0 328.0L391.0 328.5Q388.5 328.5 377.0 318.0Q365.5 307.5 351.5 292.5L318.0 256.5L236.0 277.0L276.0 318.0Q293.5 336.5 304.75 351.0Q316.0 365.5 316.0 368.0L315.0 370.0H313.0Q310.5 370.0 304.5 365.5Q298.5 361.0 292.5 355.0Q286.0 348.0 273.25 334.5Q260.5 321.0 248.5 309.0L222.5 280.0L184.0 289.5Q149.0 298.0 126.5 304.75Q104.0 311.5 91.0 317.25Q78.0 323.0 71.0 329.0Q66.0 333.5 62.0 338.25Q58.0 343.0 58.0 345.5Q58.0 356.5 53.5 356.5Q51.0 356.5 48.25 350.25Q45.5 344.0 44.0 333.5Q41.0 310.0 37.25 294.5Q33.5 279.0 29.5 276.5Q26.0 273.0 26.0 267.0Q26.0 266.0 26.0 264.5Q26.0 263.0 26.5 262.0Q28.0 258.0 28.0 252.5Q28.0 241.0 24.25 225.75Q20.5 210.5 16.0 203.5Q12.5 198.0 11.25 193.75Q10.0 189.5 10.0 184.5V184.0Q11.5 179.5 15.0 179.5Q16.5 179.5 18.25 181.0Q20.0 182.5 23.5 185.0L25.0 186.5Q32.5 195.0 46.0 201.25Q59.5 207.5 74.5 210.75Q89.5 214.0 100.5 214.0Q103.0 214.0 110.0 212.75Q117.0 211.5 125.5 209.75Q134.0 208.0 141.0 206.5Q148.0 205.0 150.0 204.0Q149.0 201.5 142.75 194.25Q136.5 187.0 127.0 177.0Q117.5 167.0 107.75 157.25Q98.0 147.5 90.0 140.0Q82.0 132.5 78.0 130.0Q73.0 127.0 66.0 125.0Q59.0 123.0 54.0 123.0Q39.0 123.0 39.0 117.0Q39.0 111.5 60.0 101.5Q68.0 98.0 77.25 92.25Q86.5 86.5 91.5 81.5Q95.5 77.5 100.0 74.25Q104.5 71.0 107.0 70.0Q105.0 69.5 105.0 66.5Q105.0 64.0 112.5 57.75Q120.0 51.5 132.5 44.5Q142.5 38.0 152.25 30.5Q162.0 23.0 164.0 19.5Z" fill="black" /></svg>