<svg xmlns="http://www.w3.org/2000/svg" width="710.0" height="384.0" viewBox="0 0 710.0 384.0"><path d="M59.0 303.0V298.5Q57.5 289.0 57.0 289.0Q56.5 289.0 53.25 292.0Q50.0 295.0 47.0 298.0Q44.0 301.0 44.0 301.5Q44.0 301.5 49.5 303.0Q51.0 303.0 54.0 304.0Q56.0 304.5 57.25 304.75Q58.5 305.0 59.5 305.0ZM122.5 242.0Q122.0 242.0 121.75 242.0Q121.5 242.0 121.0 242.0Q119.0 242.0 117.25 242.25Q115.5 242.5 115.5 242.5Q116.5 245.5 117.5 245.5Q119.0 245.5 122.5 242.0ZM125.0 286.5V286.0Q123.0 285.0 121.75 285.0Q120.5 285.0 119.5 284.5Q119.5 285.0 119.5 285.5Q119.5 286.0 119.5 287.0V289.5Q120.5 289.5 122.25 288.5Q124.0 287.5 126.0 287.0Q125.5 287.0 125.5 286.75Q125.5 286.5 125.0 286.5ZM280.0 264.0V263.5Q273.5 259.0 272.0 259.0Q271.5 259.0 270.5 268.0Q269.5 277.0 268.75 287.75Q268.0 298.5 268.0 304.5V305.0Q270.5 304.0 281.5 299.5Q292.5 295.0 307.5 288.5L338.0 276.5L320.0 273.5Q307.5 271.0 295.75 268.25Q284.0 265.5 280.0 264.0ZM134.0 162.0Q134.0 160.0 134.0 158.25Q134.0 156.5 133.5 156.5Q131.5 156.5 129.0 159.5Q126.5 162.5 126.0 164.5Q128.0 166.5 130.0 166.5Q131.0 166.5 132.5 165.25Q134.0 164.0 134.0 162.0ZM192.0 247.5V248.0Q193.0 245.5 194.0 243.75Q195.0 242.0 195.5 241.0Q195.0 241.5 193.5 241.75Q192.0 242.0 191.0 242.5Q184.0 244.5 184.0 246.5Q184.0 247.0 185.0 248.75Q186.0 250.5 187.0 253.0V253.5Q187.0 253.5 188.5 252.0Q190.0 250.5 192.0 247.5ZM189.5 283.0Q193.0 282.5 197.25 282.5Q201.5 282.5 206.5 282.5Q234.5 281.5 245.5 278.5Q256.5 275.5 257.0 267.5L256.5 264.5Q256.0 262.0 255.75 258.75Q255.5 255.5 255.0 252.0Q253.5 246.0 253.5 239.0Q253.5 231.0 259.0 231.0Q264.0 231.0 276.0 241.5Q287.5 251.5 310.75 256.25Q334.0 261.0 375.0 261.0H417.5V252.5Q417.5 239.0 415.5 233.25Q413.5 227.5 404.0 226.25Q394.5 225.0 371.0 225.0Q345.5 225.0 334.75 226.5Q324.0 228.0 320.5 231.0Q318.5 232.0 317.0 233.5Q312.5 238.0 309.5 238.0Q306.5 238.0 305.25 228.75Q304.0 219.5 304.0 206.5Q304.0 193.5 306.0 184.5Q308.0 175.5 311.0 175.5Q312.0 175.5 312.0 168.5Q312.0 166.0 312.25 163.75Q312.5 161.5 312.5 161.5Q309.5 163.5 296.25 172.5Q283.0 181.5 266.5 193.0Q247.0 207.0 236.5 215.5Q226.0 224.0 220.25 232.25Q214.5 240.5 208.5 254.0Q202.5 264.5 197.5 272.5Q192.5 280.5 189.5 283.0ZM321.5 210.0 321.0 209.5Q320.5 208.5 319.0 207.0Q319.0 207.5 319.0 207.75Q319.0 208.0 319.0 209.0Q319.0 211.5 319.5 212.0L321.0 211.0Q321.5 211.0 321.75 210.75Q322.0 210.5 322.0 210.5Q322.0 210.5 322.0 210.25Q322.0 210.0 321.5 210.0ZM409.5 176.5Q407.5 172.0 401.0 171.0Q394.5 170.0 373.5 170.0Q352.0 170.0 344.0 171.25Q336.0 172.5 329.5 178.0L320.5 184.5L331.5 195.5Q338.0 202.5 342.25 205.5Q346.5 208.5 354.5 209.0Q362.5 209.5 380.0 209.5H414.0V197.5Q414.0 192.0 412.5 185.5Q411.0 179.0 409.5 176.5ZM475.5 188.5Q474.0 189.0 468.5 189.0Q466.0 189.0 462.5 189.0Q459.0 189.0 455.0 188.5L433.5 188.0V219.5L446.5 210.0Q450.5 207.0 453.0 204.5Q455.0 203.5 456.5 202.25Q458.0 201.0 459.5 200.5Q464.5 196.5 467.5 195.0Q469.5 193.0 471.5 191.5Q473.5 190.0 475.5 188.5ZM169.0 68.0H165.5Q158.0 68.0 158.0 69.0Q158.0 69.5 162.5 69.5Q167.0 69.5 169.0 68.0ZM209.0 148.5 206.0 146.0Q202.0 144.0 201.0 144.0Q200.0 144.0 199.0 148.75Q198.0 153.5 197.0 158.0Q198.0 157.0 199.25 156.0Q200.5 155.0 202.0 154.0Q209.0 149.5 209.0 148.5ZM192.5 74.5Q184.0 77.0 175.0 81.5Q168.0 85.0 164.25 88.5Q160.5 92.0 158.5 99.25Q156.5 106.5 154.0 122.0Q149.5 149.5 149.5 163.0Q149.5 174.5 154.5 180.5Q159.5 186.5 172.0 196.5Q180.5 204.0 188.75 209.5Q197.0 215.0 200.5 216.5Q204.5 215.0 215.75 208.25Q227.0 201.5 241.25 192.25Q255.5 183.0 268.75 173.75Q282.0 164.5 290.75 157.5Q299.5 150.5 299.5 148.5H232.5L214.5 165.5Q207.0 172.0 201.75 178.0Q196.5 184.0 196.5 186.0Q196.5 195.0 188.5 195.0Q180.5 195.0 180.5 177.5Q180.5 173.5 181.25 163.25Q182.0 153.0 183.5 141.25Q185.0 129.5 187.5 121.0Q190.0 112.5 193.0 112.5Q196.0 112.5 198.0 115.25Q200.0 118.0 200.0 121.5Q200.0 125.5 207.0 128.0Q210.0 130.0 220.25 131.5Q230.5 133.0 243.75 134.0Q257.0 135.0 268.0 135.0Q275.0 135.0 279.75 134.25Q284.5 133.5 287.0 133.0Q286.0 130.5 275.0 122.0Q259.5 109.5 249.0 102.5Q238.5 95.5 230.0 91.5Q221.5 87.5 211.5 84.5Q192.5 79.5 192.5 74.5ZM247.0 57.5Q240.0 62.0 233.0 67.0Q226.0 72.0 226.0 73.0Q226.0 73.5 229.25 74.75Q232.5 76.0 235.5 77.0Q238.5 78.0 240.75 78.75Q243.0 79.5 244.0 80.0Q244.0 74.5 244.5 68.5Q245.0 62.5 247.0 57.5ZM330.5 158.5H333.5Q333.5 157.0 329.0 155.0L327.5 154.5Q327.5 155.0 327.25 155.0Q327.0 155.0 327.0 155.5Q327.0 158.5 330.5 158.5ZM333.0 66.0Q329.5 64.0 326.25 62.0Q323.0 60.0 323.0 60.0Q322.5 60.5 320.5 66.5Q318.5 72.5 316.75 79.5Q315.0 86.5 314.5 90.5Q315.5 90.0 319.5 90.0Q328.0 90.0 345.0 88.0Q362.0 86.0 378.0 84.0L369.0 81.0Q358.5 77.5 348.25 73.5Q338.0 69.5 333.0 66.0ZM445.5 46.5H432.0Q424.0 46.5 421.0 46.5Q418.0 46.5 418.0 47.0Q418.0 48.5 418.5 50.0Q419.5 53.5 421.25 58.75Q423.0 64.0 424.0 69.0Q424.5 73.0 425.25 75.25Q426.0 77.5 426.5 78.5Q429.0 77.0 433.75 69.5Q438.5 62.0 445.5 46.5ZM551.0 121.0Q523.0 115.5 499.0 110.75Q475.0 106.0 459.5 102.5Q444.0 99.0 441.0 98.5H440.5Q439.0 98.5 436.75 100.25Q434.5 102.0 433.5 103.5Q431.5 108.0 430.75 119.0Q430.0 130.0 430.0 141.5Q430.0 149.5 430.5 157.25Q431.0 165.0 432.0 167.5Q434.5 170.0 439.5 171.75Q444.5 173.5 453.0 173.5Q465.5 173.5 488.25 170.0Q511.0 166.5 543.5 161.0Q565.5 156.5 586.0 152.5Q606.5 148.5 621.5 146.0Q636.5 143.5 641.0 143.0Q643.0 142.0 647.5 141.75Q652.0 141.5 652.0 141.5Q652.0 141.5 638.0 138.75Q624.0 136.0 601.0 131.25Q578.0 126.5 551.0 121.0ZM10.0 315.0Q10.0 311.5 18.0 303.0Q26.0 294.5 36.75 284.75Q47.5 275.0 57.0 268.0Q66.5 261.0 69.5 261.0Q75.5 261.0 75.5 271.5V277.0Q74.0 281.5 74.0 289.0Q74.0 296.0 75.5 301.5Q76.5 308.0 81.75 313.5Q87.0 319.0 102.0 329.0Q100.5 322.0 100.5 305.5V267.5Q100.5 252.0 99.75 247.0Q99.0 242.0 95.5 239.5Q87.0 233.5 87.0 229.0L88.5 226.0Q90.0 224.0 98.0 224.0Q105.0 224.0 115.0 225.0Q125.0 226.0 134.75 227.75Q144.5 229.5 151.25 231.25Q158.0 233.0 158.0 234.5Q158.0 238.0 155.5 240.0Q153.0 242.0 150.0 242.0Q147.5 242.0 140.0 246.75Q132.5 251.5 126.0 257.0Q119.5 262.5 119.5 264.5Q135.5 274.0 147.75 278.75Q160.0 283.5 179.0 283.5Q181.0 283.5 183.25 283.25Q185.5 283.0 187.5 283.0Q185.5 281.5 181.75 275.25Q178.0 269.0 174.0 261.25Q170.0 253.5 167.25 246.75Q164.5 240.0 164.5 237.0V235.5Q165.0 233.0 167.75 231.5Q170.5 230.0 173.0 230.0H175.0Q176.0 230.5 177.5 230.5Q178.5 230.5 181.5 229.5Q182.5 228.5 184.5 228.5Q184.0 225.0 174.75 217.25Q165.5 209.5 153.0 200.75Q140.5 192.0 129.25 185.75Q118.0 179.5 113.5 179.5H111.5Q106.5 181.0 102.5 181.0Q94.5 181.0 94.5 174.5Q94.5 171.0 100.25 165.25Q106.0 159.5 117.0 150.5Q125.5 143.5 132.0 137.0Q138.5 130.5 138.5 128.5Q138.5 122.5 140.0 115.0Q140.0 113.5 140.25 111.75Q140.5 110.0 140.5 108.0Q141.0 105.5 141.25 103.0Q141.5 100.5 142.0 98.0Q143.5 88.0 143.5 83.0Q143.5 77.5 138.25 70.5Q133.0 63.5 127.5 63.5Q122.0 63.5 122.0 59.5Q122.0 57.5 124.5 54.0Q127.0 51.5 142.5 51.5Q154.0 51.5 168.75 52.5Q183.5 53.5 196.25 55.25Q209.0 57.0 213.5 59.0Q217.5 58.0 226.5 52.25Q235.5 46.5 245.5 39.25Q255.5 32.0 262.75 26.0Q270.0 20.0 270.0 18.0Q270.0 10.0 277.0 10.0Q281.0 10.0 282.5 10.5Q284.0 11.0 284.0 15.0Q284.0 18.5 276.0 36.0L272.5 43.5Q259.0 69.0 259.0 79.5Q259.0 82.5 260.0 82.5Q268.0 82.5 268.0 91.5Q268.0 94.5 273.75 100.5Q279.5 106.5 287.5 113.0Q295.5 119.5 302.75 124.25Q310.0 129.0 313.0 129.5Q315.0 127.5 317.0 127.5Q323.0 127.5 337.0 140.0Q343.5 146.0 348.25 149.25Q353.0 152.5 360.25 153.5Q367.5 154.5 381.0 155.0Q387.0 155.5 392.25 155.5Q397.5 155.5 402.0 155.5H413.5Q414.0 154.5 414.0 146.0Q414.0 137.5 414.0 125.0V98.0H405.5Q395.5 98.0 381.0 99.5Q366.5 101.0 351.75 103.25Q337.0 105.5 325.5 108.0Q314.0 110.5 310.0 112.0Q305.0 116.5 299.5 116.5Q293.5 116.5 293.5 109.0Q293.5 105.0 294.75 99.25Q296.0 93.5 299.5 85.5Q303.0 76.5 305.25 66.75Q307.5 57.0 307.5 52.0Q307.5 36.0 317.0 36.0Q323.0 36.0 334.0 45.5Q337.5 49.0 346.75 53.75Q356.0 58.5 367.5 63.25Q379.0 68.0 389.25 71.0Q399.5 74.0 404.0 74.0Q409.5 74.0 409.5 72.0Q409.5 68.0 406.0 61.25Q402.5 54.5 398.0 48.75Q393.5 43.0 390.5 43.0Q385.0 43.0 385.0 38.0Q385.0 35.0 387.0 33.0Q389.0 31.5 395.75 30.75Q402.5 30.0 412.0 30.0Q417.0 30.0 427.5 30.25Q438.0 30.5 449.25 31.5Q460.5 32.5 468.5 34.5Q476.5 36.5 476.5 39.5Q476.5 41.0 473.5 44.0Q473.0 44.5 472.5 45.0Q472.0 45.5 471.5 46.0Q463.0 49.5 456.25 61.75Q449.5 74.0 449.0 83.5Q450.0 84.0 452.25 84.25Q454.5 84.5 458.0 85.5Q472.5 89.0 505.0 95.75Q537.5 102.5 575.5 111.0Q609.0 117.0 637.25 123.75Q665.5 130.5 682.75 135.25Q700.0 140.0 700.0 141.5Q700.0 143.0 687.0 146.75Q674.0 150.5 651.75 155.25Q629.5 160.0 601.5 165.5L506.0 184.0L476.5 206.5Q451.0 226.0 442.25 236.0Q433.5 246.0 433.5 254.0V261.0H535.5Q589.0 261.0 617.25 263.0Q645.5 265.0 645.5 267.5Q645.5 272.0 617.5 273.75Q589.5 275.5 537.5 275.5Q494.5 275.5 472.75 275.75Q451.0 276.0 443.5 276.75Q436.0 277.5 435.0 279.5Q433.0 284.5 430.5 286.25Q428.0 288.0 425.5 288.0Q417.5 288.0 417.5 278.0Q417.5 276.0 410.0 276.0Q396.5 276.0 377.0 280.75Q357.5 285.5 336.75 293.0Q316.0 300.5 298.0 309.25Q280.0 318.0 270.0 326.5Q264.5 331.5 259.5 335.5Q254.5 339.5 253.5 339.5Q249.0 339.5 249.0 330.5Q249.0 328.0 249.25 323.0Q249.5 318.0 250.5 313.0L253.0 295.5L193.0 298.5Q167.0 299.5 146.5 301.5Q126.0 303.5 121.5 305.0Q115.5 309.5 115.5 318.5Q115.5 331.0 110.0 334.0Q112.0 335.0 114.0 336.5Q116.0 338.0 118.0 339.0Q135.0 349.0 147.5 358.0Q160.0 367.0 160.0 370.5L159.5 373.5L156.5 374.0Q153.0 374.0 138.25 366.75Q123.5 359.5 104.5 348.0Q75.5 331.0 59.75 323.75Q44.0 316.5 35.5 316.5Q30.0 316.5 26.0 318.5Q20.5 320.5 16.5 320.5Q10.0 320.5 10.0 315.0Z" fill="black" /></svg>