<svg xmlns="http://www.w3.org/2000/svg" width="388.0" height="385.0" viewBox="0 0 388.0 385.0"><path d="M112.0 278.5 64.0 230.5Q63.0 231.0 58.75 239.5Q54.5 248.0 50.25 258.0Q46.0 268.0 44.0 273.0Q49.0 273.5 58.75 274.5Q68.5 275.5 81.0 276.0ZM158.5 217.0H157.0Q155.0 217.0 155.0 219.5H156.5Q157.0 218.5 157.75 218.0Q158.5 217.5 158.5 217.0ZM187.5 243.5 181.0 236.0Q177.5 231.5 174.5 229.0Q171.5 226.5 170.5 226.5Q168.5 226.5 162.75 234.0Q157.0 241.5 156.0 246.0Q163.0 246.0 174.0 244.5ZM307.5 285.5 262.0 272.5Q239.5 265.5 217.75 261.5Q196.0 257.5 180.5 257.5Q165.5 257.5 160.0 261.0Q158.0 262.5 156.5 266.0Q155.0 269.5 154.0 273.0V275.0Q154.0 278.0 159.0 281.5Q164.0 285.0 179.5 291.75Q195.0 298.5 225.5 311.5Q246.0 320.0 263.5 327.0Q281.0 334.0 292.25 338.25Q303.5 342.5 305.0 342.5Q307.5 342.5 307.5 315.0ZM201.0 193.0Q201.0 191.5 198.25 187.75Q195.5 184.0 192.5 180.75Q189.5 177.5 188.0 177.5Q187.5 177.5 184.75 180.25Q182.0 183.0 179.0 187.0Q177.0 190.0 175.5 192.75Q174.0 195.5 174.0 196.5Q174.0 197.0 177.0 197.0Q181.5 197.0 189.0 195.5L191.0 195.0Q201.0 193.5 201.0 193.0ZM307.5 231.5 272.5 220.5Q254.5 214.5 235.25 211.25Q216.0 208.0 202.0 208.0Q186.5 208.0 184.5 211.5Q183.5 212.5 183.5 214.5Q183.5 220.0 190.75 226.75Q198.0 233.5 209.0 238.5Q220.5 244.0 241.25 250.75Q262.0 257.5 303.0 269.0Q304.0 269.5 305.5 269.5Q306.5 269.5 307.0 265.75Q307.5 262.0 307.5 252.0ZM138.5 76.0 117.5 66.5Q110.5 62.5 104.0 59.5Q97.5 56.5 94.5 55.5Q94.5 59.5 95.0 69.0Q95.5 78.5 96.5 87.5Q97.5 96.5 98.5 99.5Q99.0 99.0 100.25 98.5Q101.5 98.0 102.0 96.5Q105.5 94.0 112.5 89.75Q119.5 85.5 126.0 82.0ZM160.5 130.5 166.5 118.0H151.5Q147.0 118.0 143.5 118.25Q140.0 118.5 138.5 118.5Q149.0 143.5 152.5 143.5Q154.0 143.5 160.5 130.5ZM229.0 142.5Q228.0 137.5 224.0 132.0L218.5 124.5L207.5 144.0H215.5Q225.5 144.0 229.0 142.5ZM307.5 177.0 277.5 165.5Q261.5 160.0 252.75 157.5Q244.0 155.0 234.0 155.0Q231.5 155.0 223.25 155.25Q215.0 155.5 207.75 157.25Q200.5 159.0 200.5 163.5Q200.5 169.0 211.0 179.0Q214.0 182.0 227.0 188.0Q240.0 194.0 256.75 200.5Q273.5 207.0 287.75 211.75Q302.0 216.5 307.5 217.0ZM351.5 32.5Q352.0 31.0 352.0 29.5Q352.0 29.0 351.0 29.0V28.5Q350.5 29.0 348.5 29.0Q345.0 29.0 334.0 29.5Q323.0 30.0 311.5 31.0L287.5 32.5L298.5 52.5Q304.0 62.0 309.5 75.0Q315.0 88.0 317.0 96.5Q318.5 102.5 320.75 106.5Q323.0 110.5 324.5 110.5Q326.0 110.5 326.0 102.5Q326.0 100.0 329.5 89.25Q333.0 78.5 338.0 67.0L340.0 62.5Q344.0 52.5 347.5 43.75Q351.0 35.0 351.5 32.5ZM346.0 14.0Q349.5 13.5 352.75 13.0Q356.0 12.5 359.0 12.0L362.0 11.5Q367.5 10.0 370.0 10.0H370.5Q378.0 10.0 378.0 18.0Q378.0 22.5 375.0 24.5Q371.0 27.5 364.5 40.75Q358.0 54.0 351.0 72.25Q344.0 90.5 337.75 109.25Q331.5 128.0 327.5 143.25Q323.5 158.5 323.5 165.0Q323.5 168.5 326.5 169.5Q335.0 173.0 335.0 179.5Q335.0 186.0 326.0 186.0Q324.0 186.0 322.75 191.75Q321.5 197.5 321.5 204.5Q321.5 211.0 322.75 216.5Q324.0 222.0 326.0 223.0Q331.0 225.0 331.0 228.0Q331.0 230.0 326.5 234.5Q324.5 238.0 322.75 252.5Q321.0 267.0 321.0 294.5Q321.0 318.0 321.75 330.25Q322.5 342.5 324.0 347.5Q325.5 352.5 328.5 355.0L331.0 357.0Q335.0 360.0 335.0 362.0Q335.0 365.5 327.0 366.0Q321.0 366.0 321.0 368.0Q321.0 375.0 316.0 375.0Q314.0 375.0 311.0 372.5Q308.0 370.0 307.0 365.5Q306.5 363.0 291.5 355.5Q276.5 348.0 253.5 338.5Q230.5 329.0 205.0 319.5Q179.5 310.0 157.5 303.0Q135.5 296.0 122.5 293.5Q109.5 291.5 89.0 290.25Q68.5 289.0 54.0 289.0H10.0L23.5 274.5Q27.5 270.5 34.25 258.5Q41.0 246.5 47.0 234.0Q53.0 222.5 57.5 212.75Q62.0 203.0 62.0 203.0Q65.0 203.0 68.75 207.5Q72.5 212.0 76.5 218.0L82.5 227.0Q88.5 236.5 100.25 248.0Q112.0 259.5 123.5 267.5Q135.0 275.5 140.0 275.5Q141.0 275.5 141.0 273.0Q141.0 271.0 140.0 268.75Q139.0 266.5 137.5 266.0Q132.0 264.5 132.0 259.5Q132.0 256.0 135.5 250.0Q138.0 245.0 139.5 228.0Q141.0 211.0 141.0 192.5Q141.0 178.5 140.25 165.5Q139.5 152.5 137.0 147.0Q135.0 143.0 131.0 136.75Q127.0 130.5 122.5 127.0Q117.5 122.0 114.75 117.0Q112.0 112.0 112.0 110.0V109.5Q113.5 106.5 125.75 105.25Q138.0 104.0 150.5 104.0Q164.0 104.0 174.75 105.5Q185.5 107.0 185.5 110.0V110.5Q185.0 112.5 181.0 121.5Q177.0 130.5 171.5 140.5Q166.5 150.0 162.0 163.0Q157.5 176.0 156.5 184.5L155.5 194.5L160.0 189.0Q164.5 183.5 175.0 168.0Q185.5 152.5 195.0 136.5Q205.0 120.0 213.75 108.75Q222.5 97.5 224.5 97.5L226.0 98.0Q227.5 99.0 229.75 104.25Q232.0 109.5 234.0 116.5Q236.5 124.5 243.75 130.25Q251.0 136.0 271.0 145.0Q283.0 151.5 293.75 156.25Q304.5 161.0 307.5 162.0Q307.5 151.5 306.75 136.5Q306.0 121.5 304.5 106.75Q303.0 92.0 299.5 83.0L294.5 72.0L231.0 75.0Q197.5 76.5 176.25 80.25Q155.0 84.0 139.25 91.25Q123.5 98.5 105.5 111.5Q100.5 116.0 95.25 119.25Q90.0 122.5 88.5 122.5Q88.0 122.5 86.0 117.25Q84.0 112.0 84.0 104.0Q84.0 98.5 83.0 84.0Q82.0 69.5 80.0 56.5L76.5 17.0L100.5 38.5Q111.0 47.0 121.0 52.25Q131.0 57.5 144.5 59.75Q158.0 62.0 178.5 62.0Q185.5 62.0 193.75 61.75Q202.0 61.5 211.5 61.0H221.5Q247.0 60.0 266.0 59.0Q285.0 58.0 285.0 57.5Q285.0 55.0 281.25 49.5Q277.5 44.0 272.75 38.25Q268.0 32.5 265.0 30.5Q259.0 27.0 259.0 23.0Q260.0 15.5 279.5 15.5Q283.0 15.5 287.25 15.75Q291.5 16.0 296.0 16.5Q300.0 17.0 304.25 17.0Q308.5 17.0 312.5 17.0Q322.0 17.0 331.0 16.25Q340.0 15.5 346.0 14.0Z" fill="black" /></svg>