<svg xmlns="http://www.w3.org/2000/svg" width="524.0" height="263.5" viewBox="0 0 524.0 263.5"><path d="M62.0 208.5 52.0 204.0Q46.5 201.0 39.5 196.25Q32.5 191.5 28.5 188.0L24.0 184.5V205.5Q24.0 217.5 24.75 223.5Q25.5 229.5 26.0 230.5Q27.0 229.5 28.25 228.75Q29.5 228.0 30.5 226.0Q32.5 223.5 38.75 219.75Q45.0 216.0 51.5 213.0ZM197.5 188.0Q189.5 184.0 184.25 181.25Q179.0 178.5 178.5 178.5V230.5Q180.5 230.0 186.25 227.75Q192.0 225.5 199.5 222.0L203.0 221.0Q212.5 217.0 224.75 213.0Q237.0 209.0 244.0 207.5L251.5 205.0L239.5 203.0Q230.5 201.0 218.25 196.5Q206.0 192.0 197.5 188.0ZM69.5 69.0 63.5 67.0Q58.5 65.5 51.0 61.0Q43.5 56.5 38.0 52.5L29.0 46.0V67.5Q29.0 75.5 29.0 82.25Q29.0 89.0 28.5 91.5Q30.5 90.5 37.0 87.0Q43.5 83.5 51.5 78.5ZM210.0 44.0H210.5Q202.5 40.0 195.75 37.0Q189.0 34.0 186.5 33.0Q187.0 35.0 187.25 39.25Q187.5 43.5 187.5 49.0Q187.5 51.5 187.25 54.5Q187.0 57.5 187.0 60.0V86.0L197.5 81.5Q215.0 74.5 228.25 70.0Q241.5 65.5 253.0 64.0Q263.5 61.5 263.5 61.0Q263.5 60.5 259.25 59.5Q255.0 58.5 248.0 57.5Q241.5 56.5 230.25 52.5Q219.0 48.5 210.0 44.0ZM10.5 205.0Q11.0 185.5 12.5 171.75Q14.0 158.0 16.0 158.0Q17.0 158.0 21.75 162.0Q26.5 166.0 32.5 172.0Q41.5 182.5 50.25 187.75Q59.0 193.0 74.25 194.75Q89.5 196.5 117.5 196.5H166.5L165.5 179.5Q165.5 178.0 165.75 172.75Q166.0 167.5 167.0 162.75Q168.0 158.0 170.0 158.0Q174.5 158.0 191.5 169.0Q204.0 176.5 215.75 181.25Q227.5 186.0 243.25 188.75Q259.0 191.5 283.5 192.5Q308.0 193.5 346.5 193.5H416.5Q506.0 193.5 506.0 199.0Q506.0 202.0 486.0 203.75Q466.0 205.5 429.5 205.5Q409.0 205.5 388.0 205.75Q367.0 206.0 349.75 206.25Q332.5 206.5 324.0 207.0Q306.5 207.5 281.75 212.25Q257.0 217.0 232.75 224.25Q208.5 231.5 191.5 239.5Q183.0 243.0 176.0 245.5Q169.0 248.0 166.5 248.0H165.5Q163.0 246.5 163.0 241.0Q163.0 238.0 163.5 233.5Q164.0 229.0 164.5 225.0L166.5 209.0H131.0Q114.5 209.0 104.75 209.75Q95.0 210.5 87.5 213.0Q80.0 215.5 69.5 220.0Q59.5 225.0 48.0 232.0Q36.5 239.0 30.0 243.5Q16.0 253.5 11.5 253.5L10.5 253.0V249.5Q10.0 247.5 10.0 244.5Q10.0 241.5 10.0 237.5Q10.0 231.0 10.0 222.5Q10.0 214.0 10.5 205.0ZM177.0 57.5 175.5 36.5Q175.0 33.5 175.0 30.75Q175.0 28.0 175.0 26.0Q175.0 10.5 181.0 10.0Q183.5 11.0 187.0 16.0Q189.5 19.5 201.5 25.5Q213.5 31.5 228.0 37.25Q242.5 43.0 252.5 45.5Q263.0 47.5 300.25 48.75Q337.5 50.0 391.5 50.0Q427.5 50.0 455.0 50.75Q482.5 51.5 498.25 52.75Q514.0 54.0 514.0 56.0Q514.0 58.0 499.5 59.5Q485.0 61.0 459.75 62.0Q434.5 63.0 402.0 63.5Q365.5 64.0 342.75 64.75Q320.0 65.5 306.25 66.25Q292.5 67.0 283.0 68.75Q273.5 70.5 263.0 73.5Q246.5 78.0 230.25 83.5Q214.0 89.0 202.0 93.75Q190.0 98.5 187.0 101.0Q182.5 104.5 177.0 104.5Q171.0 104.5 171.0 97.5Q171.0 91.0 176.0 73.0Q176.5 72.0 176.5 71.0Q176.5 70.5 174.25 70.25Q172.0 70.0 165.0 70.0Q161.5 70.0 156.75 70.25Q152.0 70.5 145.5 70.5Q143.5 71.0 140.75 71.0Q138.0 71.0 135.0 71.0Q113.5 71.5 102.75 72.25Q92.0 73.0 85.0 75.75Q78.0 78.5 67.5 84.5Q58.0 89.5 48.0 95.75Q38.0 102.0 34.0 106.0Q29.5 110.0 25.25 113.25Q21.0 116.5 20.0 116.5Q18.0 116.5 17.0 102.0Q16.0 87.5 16.0 67.5Q16.0 42.5 17.75 31.25Q19.5 20.0 23.0 19.5Q27.5 20.5 31.5 28.0Q33.5 31.0 40.0 36.5Q46.5 42.0 53.5 47.0Q59.5 50.5 64.0 52.75Q68.5 55.0 75.0 56.0Q81.5 57.0 93.0 57.25Q104.5 57.5 124.5 57.5Z" fill="black" /></svg>