<svg xmlns="http://www.w3.org/2000/svg" width="633.5" height="458.0" viewBox="0 0 633.5 458.0"><path d="M39.0 164.0 43.0 175.0 58.5 140.0H46.5Q40.0 140.0 36.5 140.5Q33.0 141.0 33.0 143.5Q33.0 146.0 35.0 151.25Q37.0 156.5 39.0 164.0ZM101.0 182.5Q97.5 163.5 92.5 148.5Q87.5 133.5 85.0 130.0Q83.5 127.5 83.0 126.5Q82.5 125.5 82.5 125.5Q82.0 126.0 81.25 127.75Q80.5 129.5 79.5 131.5L78.0 135.0Q69.0 158.0 64.25 177.0Q59.5 196.0 57.75 218.0Q56.0 240.0 56.0 272.0V338.5L79.0 349.0Q88.5 353.5 97.5 357.0Q106.5 360.5 109.0 360.5Q111.0 360.5 112.25 345.75Q113.5 331.0 113.5 309.0Q113.5 288.0 112.25 264.5Q111.0 241.0 108.25 219.25Q105.5 197.5 101.0 182.5ZM70.0 61.5H70.5Q57.5 56.0 47.75 52.0Q38.0 48.0 38.0 48.0Q38.0 51.0 37.75 61.25Q37.5 71.5 37.5 84.5V121.5L53.5 115.5Q55.5 114.5 62.5 113.5Q65.0 112.5 68.0 111.5Q71.0 110.5 73.5 110.0Q83.5 106.5 95.25 103.25Q107.0 100.0 119.0 97.0L153.0 87.0L133.0 82.5Q119.5 80.0 100.75 74.0Q82.0 68.0 70.0 61.5ZM129.5 140.0V139.5Q129.5 139.0 126.5 138.5Q123.5 138.0 119.5 138.0H114.5Q108.5 138.0 108.5 139.5Q108.5 145.0 113.5 158.0L118.0 175.0L122.5 165.0Q125.0 156.5 127.25 149.25Q129.5 142.0 129.5 140.0ZM278.0 91.5Q271.0 90.5 264.25 90.0Q257.5 89.5 251.0 89.5Q244.5 89.5 237.75 90.0Q231.0 90.5 224.5 91.5Q164.0 104.0 136.5 110.25Q109.0 116.5 105.5 118.5Q109.5 119.5 113.75 120.5Q118.0 121.5 123.0 121.5Q125.0 121.5 130.5 120.75Q136.0 120.0 138.0 119.0Q140.5 118.5 142.0 118.5Q143.5 118.5 144.5 118.5Q153.0 118.5 153.0 126.5Q153.0 130.0 150.25 139.0Q147.5 148.0 142.5 161.0Q138.5 173.0 136.0 182.5Q133.5 192.0 133.5 195.5Q137.0 197.0 158.25 197.75Q179.5 198.5 206.5 198.5Q226.5 198.5 246.75 198.25Q267.0 198.0 284.0 197.5Q301.0 197.0 311.5 196.0Q322.0 195.0 322.0 194.0Q322.0 190.5 317.5 175.0Q313.0 159.5 307.0 141.0Q301.0 120.5 297.0 110.5Q293.0 100.5 289.0 96.75Q285.0 93.0 278.0 91.5ZM229.0 266.5 325.5 266.0 329.0 216.0H130.0V268.0ZM363.0 57.0Q363.0 57.0 352.25 56.5Q341.5 56.0 328.0 55.5Q315.5 55.5 305.25 55.5Q295.0 55.5 292.0 55.0Q292.5 55.5 293.5 57.25Q294.5 59.0 295.5 61.5Q297.5 65.0 299.25 68.5Q301.0 72.0 303.0 77.0Q308.5 86.5 313.75 101.0Q319.0 115.5 322.5 128.0L327.0 145.0L331.5 130.0Q334.0 118.5 339.75 103.5Q345.5 88.5 351.0 79.5Q356.0 72.0 359.5 65.25Q363.0 58.5 363.0 57.0ZM548.5 178.0Q548.5 171.5 546.25 159.25Q544.0 147.0 540.25 133.25Q536.5 119.5 532.25 108.0Q528.0 96.5 524.0 91.0Q519.0 91.0 494.5 91.5Q470.0 92.0 439.5 93.5L359.5 97.0L353.0 114.5Q349.5 124.0 347.75 139.5Q346.0 155.0 346.0 168.0L345.5 198.0L551.0 194.5ZM581.0 49.5 593.5 30.0H521.0L526.5 41.0Q528.0 44.0 529.25 48.0Q530.5 52.0 532.5 57.5Q534.5 63.0 536.5 69.0Q538.5 75.0 541.0 81.0L555.0 118.5L560.0 102.0Q562.5 91.0 569.0 75.75Q575.5 60.5 581.0 49.5ZM159.5 391.0 136.5 386.0Q120.5 382.0 99.5 375.75Q78.5 369.5 65.0 364.0L37.5 351.5V384.5Q37.5 402.5 38.75 410.5Q40.0 418.5 46.5 418.5Q54.0 418.5 75.0 409.5Q85.5 406.0 103.75 401.5Q122.0 397.0 137.0 394.5ZM242.5 376.0 327.5 380.0V286.5H130.0V339.5Q130.0 351.0 133.0 357.75Q136.0 364.5 145.25 367.75Q154.5 371.0 173.75 372.5Q193.0 374.0 226.0 375.5H233.5Q236.0 376.0 238.25 376.0Q240.5 376.0 242.5 376.0ZM345.5 268.0H553.5V216.0H345.5ZM345.5 378.0H553.5V286.5H345.5ZM492.5 14.5V12.5L493.5 12.0Q495.0 10.0 508.0 10.0Q520.0 10.0 538.75 10.75Q557.5 11.5 576.5 12.5Q595.5 13.5 609.0 15.0Q622.5 16.5 623.5 18.0Q623.5 18.5 618.0 28.75Q612.5 39.0 604.0 51.0Q596.0 64.0 588.25 78.75Q580.5 93.5 577.5 102.0Q576.5 109.5 575.0 134.0Q573.5 158.5 572.5 193.75Q571.5 229.0 571.5 269.5Q571.5 341.0 569.25 379.75Q567.0 418.5 563.0 418.5Q559.5 418.5 556.5 414.25Q553.5 410.0 553.5 404.0Q553.5 401.0 551.25 399.25Q549.0 397.5 539.25 396.5Q529.5 395.5 508.25 395.25Q487.0 395.0 449.5 395.0H345.5V419.0Q345.5 431.5 342.75 439.75Q340.0 448.0 336.0 448.0Q333.0 448.0 330.25 439.75Q327.5 431.5 327.5 419.0V395.0H276.5Q247.0 395.0 209.0 400.25Q171.0 405.5 132.5 414.5Q94.0 423.5 61.5 434.5Q47.5 439.0 36.0 441.75Q24.5 444.5 20.0 444.5Q18.0 444.5 17.5 444.0V443.5Q17.5 439.5 17.5 435.5Q17.5 431.5 18.0 427.0Q18.0 410.0 19.5 387.5V385.0Q20.5 350.5 22.5 339.5Q24.5 328.5 31.0 328.5H34.0Q36.5 327.5 37.25 316.75Q38.0 306.0 38.0 281.5Q37.5 240.0 32.5 209.5Q27.5 179.0 17.0 154.0Q13.5 146.0 11.75 140.75Q10.0 135.5 10.0 132.0Q10.0 127.5 14.0 122.5Q16.5 120.0 18.5 105.5Q20.5 91.0 20.5 69.0Q20.5 48.0 22.5 33.5Q24.5 19.0 27.0 19.0H28.0L76.0 42.0Q93.5 52.0 113.75 59.25Q134.0 66.5 146.5 67.5Q162.0 69.0 181.75 70.25Q201.5 71.5 221.5 72.25Q241.5 73.0 256.5 73.0Q266.0 73.0 272.75 73.0Q279.5 73.0 281.5 73.5Q281.0 72.0 278.75 67.0Q276.5 62.0 274.0 57.0Q267.5 42.5 267.5 37.5V36.0Q269.0 33.5 274.5 33.5Q278.5 33.5 285.75 34.25Q293.0 35.0 300.5 37.0Q306.5 37.5 315.0 38.0Q323.5 38.5 332.0 38.5Q340.0 38.5 347.25 38.25Q354.5 38.0 361.0 37.5L364.0 37.0Q368.5 37.0 372.5 36.75Q376.5 36.5 379.5 36.5Q396.5 36.5 396.5 45.0Q396.5 50.5 385.0 61.0Q381.0 65.0 377.75 69.25Q374.5 73.5 374.5 75.0Q374.5 75.5 396.0 76.25Q417.5 77.0 447.0 77.0Q487.0 77.0 503.0 75.75Q519.0 74.5 519.0 72.5Q519.0 70.0 514.75 60.75Q510.5 51.5 505.0 42.0Q500.0 33.0 496.25 25.0Q492.5 17.0 492.5 14.5Z" fill="black" /></svg>