<svg xmlns="http://www.w3.org/2000/svg" width="631.0" height="459.0" viewBox="0 0 631.0 459.0"><path d="M543.0 380.0Q542.5 368.5 542.25 355.25Q542.0 342.0 542.0 328.0V271.0Q542.0 236.5 541.5 214.75Q541.0 193.0 539.75 179.75Q538.5 166.5 536.75 157.5Q535.0 148.5 532.0 139.0L521.0 110.0H367.0Q325.0 110.0 295.75 110.5Q266.5 111.0 246.25 111.75Q226.0 112.5 211.0 114.25Q196.0 116.0 183.0 118.25Q170.0 120.5 155.5 123.5Q141.0 127.0 126.0 131.0Q111.0 135.0 99.0 138.25Q87.0 141.5 81.5 143.5L64.0 148.0L69.0 246.0Q70.0 272.5 71.25 294.75Q72.5 317.0 73.5 330.75Q74.5 344.5 75.0 346.0Q77.5 347.0 86.0 351.25Q94.5 355.5 105.5 359.5Q115.0 362.5 130.75 364.5Q146.5 366.5 172.75 368.0Q199.0 369.5 239.75 370.5Q280.5 371.5 340.0 372.5Q397.0 373.0 434.75 373.75Q472.5 374.5 495.0 375.5Q517.5 376.5 528.5 377.5Q539.5 378.5 543.0 380.0ZM73.0 83.5 63.0 80.5Q43.0 72.5 39.0 72.5Q38.5 72.5 38.0 81.75Q37.5 91.0 37.5 104.5Q37.5 121.0 39.0 128.5Q40.5 136.0 46.0 136.0Q52.5 136.0 66.5 130.0Q77.0 125.0 88.75 121.75Q100.5 118.5 111.5 116.5L150.5 106.0L133.5 102.5Q121.0 100.0 103.5 94.25Q86.0 88.5 73.0 83.5ZM587.0 35.0Q581.0 34.5 570.5 34.5Q560.0 34.5 545.5 34.5L509.0 33.5L517.0 49.5Q521.5 58.5 527.25 74.25Q533.0 90.0 536.5 103.5L547.0 127.5Q547.5 126.0 549.5 118.25Q551.5 110.5 552.0 109.5Q553.0 104.0 558.5 89.5Q564.0 75.0 570.5 62.0Q577.0 51.0 581.25 44.0Q585.5 37.0 587.0 35.0ZM139.0 383.0Q116.5 378.5 90.0 371.0Q63.5 363.5 42.5 353.0Q41.5 352.0 40.5 352.0Q38.5 352.0 38.0 358.75Q37.5 365.5 37.5 384.5V419.0L49.5 416.5Q56.5 414.0 66.25 410.5Q76.0 407.0 82.5 404.5Q87.0 402.0 96.25 400.0Q105.5 398.0 116.25 396.25Q127.0 394.5 135.0 393.5L141.0 392.5Q151.0 390.5 157.0 389.25Q163.0 388.0 163.0 387.5Q163.0 387.5 161.75 387.25Q160.5 387.0 157.0 386.5L152.5 385.0Q151.5 385.0 149.75 384.75Q148.0 384.5 147.0 384.5Q145.5 384.0 143.5 383.75Q141.5 383.5 139.0 383.0ZM483.0 16.5Q483.0 10.0 490.0 10.0Q492.0 10.0 494.25 10.25Q496.5 10.5 499.0 11.0Q502.5 13.0 515.75 14.5Q529.0 16.0 544.5 16.0Q547.0 16.0 549.5 15.75Q552.0 15.5 554.0 15.0H564.0Q588.0 15.0 604.5 16.75Q621.0 18.5 621.0 21.0Q621.0 21.5 616.75 27.75Q612.5 34.0 606.0 40.5Q601.0 45.5 593.5 58.25Q586.0 71.0 582.0 82.0Q580.0 88.5 578.25 94.25Q576.5 100.0 575.5 103.5Q571.5 115.5 569.0 124.75Q566.5 134.0 565.5 146.5Q564.5 159.0 564.0 179.75Q563.5 200.5 563.0 236.0V253.5Q562.5 258.5 562.25 264.25Q562.0 270.0 562.0 275.5Q562.0 284.5 562.0 293.25Q562.0 302.0 561.5 310.0Q561.5 348.5 560.75 379.75Q560.0 411.0 558.75 429.75Q557.5 448.5 555.0 449.0Q550.0 448.5 547.0 431.25Q544.0 414.0 543.0 385.5Q540.0 386.5 531.75 387.5Q523.5 388.5 505.75 389.25Q488.0 390.0 458.25 390.25Q428.5 390.5 383.0 390.5Q331.5 390.5 293.25 391.25Q255.0 392.0 225.25 394.5Q195.5 397.0 170.5 401.25Q145.5 405.5 121.0 412.5Q96.5 419.5 68.5 429.5Q29.0 442.5 18.5 442.5Q10.5 442.5 10.5 436.0Q10.5 432.5 14.0 427.0Q17.0 422.0 18.5 405.25Q20.0 388.5 20.0 370.0Q20.0 322.0 30.5 322.0Q36.0 322.0 40.0 328.5Q41.0 330.5 44.25 331.75Q47.5 333.0 49.5 333.0Q51.5 333.0 52.25 326.5Q53.0 320.0 53.0 300.0Q53.0 293.0 52.75 277.0Q52.5 261.0 52.25 241.5Q52.0 222.0 51.5 203.5Q51.0 185.0 50.0 171.75Q49.0 158.5 48.0 155.5Q42.0 156.0 36.5 159.5Q28.0 163.5 21.5 163.5Q10.0 163.5 10.0 154.5Q10.0 149.5 14.0 145.5Q16.5 143.0 18.25 127.5Q20.0 112.0 20.0 93.5Q20.0 72.5 22.5 57.5Q25.0 42.5 28.5 42.5Q30.5 42.5 40.0 47.0Q49.5 51.5 60.5 57.5Q77.0 67.0 92.5 73.25Q108.0 79.5 129.0 83.0Q150.0 86.5 182.75 88.0Q215.5 89.5 266.5 89.5Q273.5 89.5 281.25 89.5Q289.0 89.5 297.5 89.0H336.5L515.0 86.5L499.5 57.0Q492.5 41.5 487.75 29.75Q483.0 18.0 483.0 16.5Z" fill="black" /></svg>