<svg xmlns="http://www.w3.org/2000/svg" width="743.5" height="386.5" viewBox="0 0 743.5 386.5"><path d="M122.0 292.5 108.5 285.5Q99.5 280.5 87.75 272.5Q76.0 264.5 68.5 257.5L53.5 243.0L43.0 271.5Q35.0 293.5 33.5 304.0Q36.0 304.0 42.25 303.5Q48.5 303.0 55.5 301.5Q60.0 300.5 66.0 300.0Q68.0 299.5 70.0 299.5Q72.0 299.5 74.0 299.0Q79.5 298.0 85.5 297.0Q91.5 296.0 97.0 295.0ZM174.5 242.0 184.5 239.5 173.5 221.5 168.5 231.5Q164.5 238.0 163.5 243.5Q166.0 243.0 169.0 242.75Q172.0 242.5 174.5 242.0ZM201.5 193.0 211.0 191.0 200.5 177.0 194.0 185.5Q193.5 186.5 192.75 187.75Q192.0 189.0 191.0 190.0L188.5 195.0H189.5Q190.5 195.0 192.5 194.75Q194.5 194.5 197.0 194.0Q200.0 193.0 201.5 193.0ZM303.0 168.0 281.5 159.5H281.0Q270.5 155.0 255.25 152.5Q240.0 150.0 228.5 150.0Q222.5 150.0 218.0 150.75Q213.5 151.5 212.5 153.0Q210.0 155.0 210.0 159.0Q210.0 167.5 217.5 177.5Q221.5 181.0 233.25 187.0Q245.0 193.0 259.75 198.75Q274.5 204.5 287.5 208.75Q300.5 213.0 307.0 214.0Q307.5 213.0 307.5 211.0Q307.5 207.5 307.25 201.75Q307.0 196.0 306.0 189.5ZM377.0 269.5Q370.5 268.5 360.25 265.5Q350.0 262.5 341.5 259.0L327.0 252.0V269.5Q327.0 279.0 328.0 283.5Q329.0 288.0 332.5 288.0Q335.0 288.0 339.0 286.5Q343.0 285.0 349.0 283.0L354.0 281.5Q362.0 279.0 370.5 277.25Q379.0 275.5 383.0 275.5Q387.0 275.5 388.75 275.25Q390.5 275.0 390.5 275.0Q390.5 274.0 386.5 272.25Q382.5 270.5 377.0 269.5ZM129.0 75.0 121.5 72.5H121.0Q116.5 70.0 107.75 64.25Q99.0 58.5 93.5 53.0L84.5 44.0L81.5 70.0Q80.0 83.5 80.0 92.0Q80.0 101.0 81.5 101.0Q83.5 101.0 85.5 98.0Q88.0 95.5 95.0 91.75Q102.0 88.0 109.5 84.5ZM148.0 129.0Q148.0 129.0 145.75 128.75Q143.5 128.5 140.0 128.5H131.5Q132.0 131.0 134.25 136.0Q136.5 141.0 139.0 145.0Q141.5 149.0 142.5 149.0Q144.0 149.0 146.0 141.5Q148.0 134.0 148.0 129.0ZM225.5 135.5H228.0Q230.0 135.0 231.0 134.75Q232.0 134.5 232.0 134.5Q232.0 133.0 229.5 128.0L226.0 121.5L222.5 126.5Q221.5 128.5 220.5 130.75Q219.5 133.0 219.5 134.0Q219.5 136.0 223.5 136.0Q224.0 136.0 224.5 135.75Q225.0 135.5 225.5 135.5ZM334.0 50.5 334.5 49.0Q334.5 48.0 334.75 47.75Q335.0 47.5 335.0 47.5Q335.0 47.5 333.75 47.25Q332.5 47.0 329.5 47.0Q326.0 47.0 319.5 47.5Q313.0 48.0 304.5 49.0L301.0 49.5Q295.0 50.0 295.0 51.0Q295.0 54.0 298.5 61.5Q301.0 67.5 304.25 79.25Q307.5 91.0 309.5 101.0L313.0 116.5L322.5 86.0Q324.0 81.5 325.5 77.0Q327.0 72.5 328.0 69.0Q330.5 62.0 332.0 57.0Q333.5 52.0 334.0 50.5ZM344.0 145.5Q344.0 141.5 342.0 141.5Q340.0 141.5 340.0 142.5Q340.0 146.0 343.5 147.0Q343.5 147.0 343.75 146.5Q344.0 146.0 344.0 145.5ZM374.5 132.5Q374.5 128.5 372.5 128.5Q370.5 128.5 370.5 132.5Q370.5 136.5 372.5 136.5Q374.5 136.5 374.5 132.5ZM398.5 191.0Q398.5 188.5 393.75 181.0Q389.0 173.5 381.75 164.75Q374.5 156.0 368.0 149.75Q361.5 143.5 357.5 143.5L357.0 144.0Q357.0 147.0 360.5 156.25Q364.0 165.5 369.0 176.0Q374.0 186.5 378.0 194.25Q382.0 202.0 383.5 202.0Q384.5 202.0 387.25 200.5Q390.0 199.0 392.5 197.5L394.5 196.0Q398.5 193.0 398.5 191.0ZM342.0 168.0Q338.0 162.5 333.25 158.25Q328.5 154.0 326.5 154.0Q323.5 154.0 322.25 162.75Q321.0 171.5 321.0 186.0Q321.0 191.0 321.0 196.75Q321.0 202.5 321.5 209.0L324.0 236.5L344.0 245.0Q366.0 253.0 386.0 257.75Q406.0 262.5 429.0 262.5Q437.0 262.5 442.25 262.25Q447.5 262.0 447.5 261.5Q447.5 259.0 441.0 253.75Q434.5 248.5 425.0 242.0Q415.5 235.5 406.0 231.0Q401.0 227.5 391.75 225.25Q382.5 223.0 376.0 223.0Q368.5 223.0 362.5 221.5Q356.5 220.0 356.5 217.0Q356.5 214.5 359.25 212.25Q362.0 210.0 366.0 210.0Q369.0 210.0 369.0 207.5Q369.0 196.0 342.0 168.0ZM425.0 176.5Q425.0 172.0 421.0 164.0Q417.0 156.0 411.0 147.75Q405.0 139.5 399.0 134.0Q393.0 128.5 389.0 128.5Q387.0 128.5 387.0 131.0Q387.0 134.0 390.25 142.5Q393.5 151.0 398.0 160.5Q402.5 170.0 406.75 177.0Q411.0 184.0 413.0 184.0Q417.5 184.0 422.5 180.5Q423.5 179.5 424.25 178.5Q425.0 177.5 425.0 176.5ZM455.5 246.5 453.5 234.5Q451.5 221.5 450.5 208.0Q449.5 194.5 449.5 180.5Q447.0 181.0 440.5 185.0Q434.0 189.0 427.75 193.5Q421.5 198.0 420.5 200.5Q419.0 203.0 415.0 205.0Q411.0 207.0 407.0 207.0Q398.5 207.0 398.5 209.5Q398.5 212.0 405.0 214.5Q411.0 216.5 420.75 222.5Q430.5 228.5 439.5 235.0ZM512.5 213.5Q512.0 211.5 509.0 209.0Q506.0 206.5 503.5 204.5L503.0 204.0Q500.5 204.5 500.5 221.0V238.0L515.5 230.0Q522.5 227.0 527.25 224.25Q532.0 221.5 533.5 220.0Q533.0 220.0 531.5 220.0Q530.0 220.0 528.5 220.5Q527.0 221.0 524.0 221.0Q520.5 221.0 517.75 219.5Q515.0 218.0 512.5 213.5ZM428.0 93.5 428.5 94.0 429.0 92.5Q429.0 91.5 429.5 91.0Q429.0 91.5 428.5 91.5Q428.0 91.5 427.5 92.0L426.0 93.0Q425.0 93.5 424.0 94.5Q425.0 95.5 426.0 95.5Q427.0 95.5 428.0 93.5ZM449.5 144.0Q444.5 136.5 437.75 128.5Q431.0 120.5 425.0 115.0Q419.0 109.5 416.0 109.0Q416.0 113.0 418.75 122.0Q421.5 131.0 425.5 141.25Q429.5 151.5 433.25 159.0Q437.0 166.5 440.0 167.0Q444.5 166.0 450.5 161.5L452.5 160.0Q456.0 157.5 456.0 156.5Q456.0 155.0 454.0 151.75Q452.0 148.5 449.5 144.0ZM482.0 131.0Q482.0 129.5 477.75 128.0Q473.5 126.5 470.0 126.5Q468.0 126.5 468.0 127.0Q467.5 127.5 467.25 128.0Q467.0 128.5 466.5 129.5L466.0 130.0Q467.0 130.5 468.75 131.5Q470.5 132.5 474.0 132.5Q482.0 132.5 482.0 131.0ZM533.5 64.0Q531.5 63.5 528.0 63.5Q524.5 63.5 521.0 63.5Q517.5 63.5 514.25 63.5Q511.0 63.5 509.5 63.0Q510.0 65.0 511.75 71.0Q513.5 77.0 516.0 84.5L521.0 98.0L528.0 80.0Q529.0 77.0 530.25 74.0Q531.5 71.0 532.0 69.0Q532.5 67.5 533.0 66.0Q533.5 64.5 533.5 64.0ZM665.0 140.5Q661.5 139.0 645.0 137.75Q628.5 136.5 607.5 135.75Q586.5 135.0 567.5 135.0Q558.5 135.0 551.25 135.25Q544.0 135.5 538.5 136.0L526.5 137.0L529.0 171.0Q530.0 184.0 532.0 194.5Q534.0 205.0 535.5 207.5Q538.5 208.0 558.5 209.0Q578.5 210.0 605.5 210.0H669.0V179.0Q669.0 166.0 667.5 155.0Q666.0 144.0 665.0 140.5ZM696.0 64.5 702.5 54.5H646.5L659.5 79.5Q665.0 92.0 669.5 102.75Q674.0 113.5 674.0 116.5Q674.0 117.0 674.0 117.0Q674.0 117.0 674.0 117.5Q675.0 115.0 677.25 110.0Q679.5 105.0 681.5 97.5Q684.0 90.0 688.25 80.5Q692.5 71.0 696.0 64.5ZM38.0 246.0Q40.5 234.5 45.0 226.75Q49.5 219.0 51.5 219.0Q58.0 219.0 58.0 225.5Q58.0 228.5 64.0 234.75Q70.0 241.0 79.0 248.5Q88.0 256.0 97.75 262.75Q107.5 269.5 115.0 273.0Q127.0 278.0 159.0 286.5Q191.0 295.0 236.5 304.5Q282.0 314.0 333.0 323.5Q356.0 327.5 371.5 332.25Q387.0 337.0 387.0 339.5Q387.0 342.0 386.25 343.5Q385.5 345.0 380.5 345.0Q376.5 345.0 365.5 343.25Q354.5 341.5 332.75 337.0Q311.0 332.5 275.0 325.5Q238.5 318.0 216.75 313.75Q195.0 309.5 180.75 308.0Q166.5 306.5 152.0 306.5Q136.0 306.5 116.0 307.5Q96.0 308.5 76.25 310.5Q56.5 312.5 41.0 316.5Q33.0 318.5 25.25 320.0Q17.5 321.5 14.0 321.5Q10.5 320.5 10.0 319.0V318.5Q10.0 312.0 19.0 293.0Q24.0 284.0 29.5 270.0Q35.0 256.0 38.0 246.0ZM71.0 34.5Q71.0 10.0 78.5 10.0Q82.5 10.0 85.5 20.5Q86.5 23.0 91.75 29.75Q97.0 36.5 104.5 43.0Q114.5 53.0 127.25 58.25Q140.0 63.5 163.25 65.5Q186.5 67.5 227.5 67.5H286.0L280.5 58.0Q275.0 46.5 272.5 46.5Q265.5 46.5 265.5 39.5Q265.5 35.0 280.0 35.0Q282.5 35.0 285.5 35.0Q288.5 35.0 292.0 35.5Q294.5 36.0 297.25 36.0Q300.0 36.0 303.0 36.0Q321.0 36.0 335.0 32.5Q346.5 29.5 358.5 29.5Q360.5 31.0 360.5 33.0Q360.5 38.5 353.0 47.5Q349.5 52.0 344.5 64.0Q339.5 76.0 334.75 90.5Q330.0 105.0 327.0 117.5Q324.0 130.0 324.0 135.5V136.0Q325.5 135.0 329.25 132.5Q333.0 130.0 337.0 127.5Q341.0 125.0 345.5 123.0Q350.0 121.0 352.0 121.0Q353.0 121.0 354.0 121.5Q356.0 121.0 360.25 119.5Q364.5 118.0 368.0 116.0Q373.5 112.0 378.75 109.25Q384.0 106.5 386.0 106.5Q389.0 106.5 395.5 102.0Q398.0 101.5 399.5 100.0L399.0 99.5Q398.5 99.5 396.5 97.5Q390.5 94.5 390.5 91.5Q390.5 89.0 393.5 89.0Q394.5 89.0 404.0 85.75Q413.5 82.5 425.5 78.0Q444.0 71.0 453.75 67.75Q463.5 64.5 466.5 64.5Q470.0 64.5 470.0 68.0Q470.0 72.0 458.0 84.0Q442.5 97.5 442.5 104.5Q442.5 107.5 445.0 112.25Q447.5 117.0 451.0 122.5Q451.5 123.0 451.5 123.25Q451.5 123.5 452.0 124.0Q452.0 123.5 452.0 123.25Q452.0 123.0 452.0 122.5Q452.0 111.5 459.5 111.5Q460.5 111.5 461.75 111.5Q463.0 111.5 464.0 112.0L465.5 112.5Q469.0 113.5 477.75 115.25Q486.5 117.0 495.0 118.0L511.0 120.5L508.5 105.0Q504.0 88.0 497.75 75.75Q491.5 63.5 484.5 60.5Q482.5 59.0 482.5 57.0Q482.5 52.5 517.0 49.5Q526.5 48.5 535.5 48.0Q544.5 47.5 550.0 47.5Q558.0 47.5 560.0 48.5L560.5 50.5Q560.5 55.0 555.0 62.0Q550.5 67.0 544.75 77.75Q539.0 88.5 534.75 99.5Q530.5 110.5 530.5 116.5Q530.5 120.0 533.25 121.75Q536.0 123.5 549.75 123.75Q563.5 124.0 595.5 124.0Q623.5 124.0 637.5 123.75Q651.5 123.5 656.0 122.5Q660.5 121.5 660.5 119.5Q660.5 115.0 657.0 106.5Q653.5 98.0 648.25 88.25Q643.0 78.5 637.5 70.25Q632.0 62.0 627.5 59.0Q624.0 55.5 620.25 52.0Q616.5 48.5 616.5 46.5Q616.5 44.0 634.0 42.75Q651.5 41.5 676.0 41.5Q706.5 41.5 720.0 42.75Q733.5 44.0 733.5 48.0Q733.5 50.0 730.75 52.0Q728.0 54.0 724.0 56.5Q720.0 58.5 714.75 64.75Q709.5 71.0 705.5 78.0Q697.0 94.0 691.75 112.5Q686.5 131.0 684.25 159.25Q682.0 187.5 681.5 233.0Q681.0 258.0 680.25 278.5Q679.5 299.0 678.0 311.25Q676.5 323.5 674.5 323.5Q673.0 323.5 671.0 312.5Q669.0 301.5 667.5 286.0Q666.0 270.5 666.0 257.0V241.5L666.5 226.0L620.0 224.5Q590.0 224.5 563.5 228.0Q537.0 231.5 511.0 248.0Q504.5 252.5 498.75 255.75Q493.0 259.0 491.5 259.0Q489.5 259.0 488.0 247.5Q486.5 236.0 486.5 219.5Q486.5 203.0 488.75 191.25Q491.0 179.5 493.0 179.5Q495.0 179.5 499.25 182.5Q503.5 185.5 507.0 189.0Q513.0 196.5 515.0 196.5Q517.0 196.5 517.0 183.5Q517.0 140.5 508.0 139.0H507.5Q504.5 139.5 497.75 141.0Q491.0 142.5 484.5 143.5Q470.0 146.5 470.0 151.0V152.5Q470.0 156.0 469.0 163.25Q468.0 170.5 466.0 177.0Q464.5 182.0 463.5 187.0Q462.5 192.0 462.5 196.5Q462.5 201.5 463.5 207.5Q464.5 213.5 466.0 221.5Q466.5 224.0 466.75 226.25Q467.0 228.5 467.5 231.0Q469.5 242.0 471.5 248.5Q473.5 255.0 479.25 258.0Q485.0 261.0 497.25 261.75Q509.5 262.5 531.0 262.5H565.0Q609.0 262.5 632.75 264.0Q656.5 265.5 656.5 269.5Q656.5 271.5 633.75 273.75Q611.0 276.0 569.5 276.0H487.5L491.0 280.5Q493.0 283.5 495.75 287.5Q498.5 291.5 502.0 296.5Q505.5 301.0 509.0 306.0Q512.5 311.0 516.0 316.5Q536.0 342.5 543.75 354.0Q551.5 365.5 551.5 369.5Q551.5 372.0 550.0 375.0L549.5 376.0L547.5 376.5Q545.5 376.5 537.5 367.75Q529.5 359.0 521.5 347.0Q513.0 334.0 501.0 318.5Q489.0 303.0 481.0 294.0L463.5 273.5L421.5 281.0Q375.5 288.5 350.75 296.0Q326.0 303.5 323.0 309.5Q320.5 320.0 316.5 320.0Q309.0 320.0 307.5 272.0L307.0 230.5L276.5 219.5Q260.0 213.5 245.5 210.25Q231.0 207.0 218.0 207.0Q201.0 207.0 193.5 208.5Q186.0 210.0 185.0 214.0L185.5 215.5Q186.0 216.0 186.25 217.0Q186.5 218.0 187.0 218.5Q191.0 225.0 197.0 230.0Q203.0 235.0 215.5 240.25Q228.0 245.5 251.0 254.0Q272.5 260.5 287.75 266.75Q303.0 273.0 304.5 276.0V276.5Q304.5 280.5 299.0 280.5Q292.5 280.5 274.5 275.25Q256.5 270.0 232.5 262.0Q223.0 258.0 212.0 256.25Q201.0 254.5 190.0 254.5Q173.5 254.5 161.25 258.0Q149.0 261.5 146.5 267.0Q146.0 269.0 143.5 270.0Q141.5 269.5 139.0 255.75Q136.5 242.0 135.5 219.5Q131.0 141.0 115.0 131.0Q109.0 127.0 109.0 124.0Q109.0 115.0 139.5 115.0Q173.0 115.0 174.0 125.0Q173.0 128.5 169.0 131.0Q161.0 136.0 154.75 156.5Q148.5 177.0 148.5 204.5V234.0L153.0 228.0Q157.0 224.0 160.25 218.75Q163.5 213.5 164.0 210.5Q165.0 207.0 170.25 197.25Q175.5 187.5 182.0 178.0Q187.5 169.5 192.0 161.75Q196.5 154.0 196.5 153.0V152.5Q196.5 149.0 200.5 140.25Q204.5 131.5 210.25 121.5Q216.0 111.5 220.75 104.5Q225.5 97.5 227.0 97.5Q230.0 97.5 233.0 102.25Q236.0 107.0 238.0 114.0Q240.5 121.0 245.75 125.75Q251.0 130.5 265.0 136.5Q275.0 141.5 284.75 146.0Q294.5 150.5 298.0 151.5L300.5 152.5Q301.5 152.5 302.25 152.75Q303.0 153.0 303.5 153.0Q303.5 153.0 303.75 152.25Q304.0 151.5 304.0 150.5Q304.0 146.0 302.0 135.75Q300.0 125.5 296.0 106.0L291.5 80.5H151.0L120.5 95.0Q107.5 101.5 95.75 108.5Q84.0 115.5 80.0 119.5Q71.0 127.5 66.5 127.5Q64.5 127.5 63.5 125.5Q63.5 116.5 64.0 107.25Q64.5 98.0 65.5 89.0Q68.0 76.0 69.5 59.75Q71.0 43.5 71.0 34.5ZM402.0 118.5H402.5V119.5Q400.5 119.5 400.5 117.5Q400.5 114.5 399.5 114.5V115.5Q400.5 115.5 402.0 118.5Z" fill="black" /></svg>