<svg xmlns="http://www.w3.org/2000/svg" width="488.5" height="455.0" viewBox="0 0 488.5 455.0"><path d="M73.0 90.5 78.5 79.0H41.5Q33.5 79.0 33.5 83.0Q33.5 90.0 40.5 112.5Q42.0 116.5 43.25 121.25Q44.5 126.0 46.0 131.0L52.5 154.5L56.5 138.5Q60.5 126.0 65.0 112.5Q69.5 99.0 73.0 90.5ZM181.5 193.0 191.0 179.0H147.5L152.0 188.5Q155.5 194.5 159.25 204.5Q163.0 214.5 165.0 221.5L167.5 228.5L168.0 226.5Q169.0 221.0 173.5 211.0Q178.0 201.0 181.5 193.0ZM141.5 36.5 141.0 37.0Q139.5 34.0 135.0 34.0Q133.0 34.0 132.0 38.0Q131.0 42.0 131.0 53.5Q131.0 72.0 134.0 72.0Q135.0 72.0 138.0 68.0Q139.0 67.0 148.0 62.75Q157.0 58.5 168.0 55.0L181.0 51.5L168.5 48.0Q160.5 46.0 152.25 42.75Q144.0 39.5 141.5 36.5ZM293.0 149.0 268.5 138.0Q262.5 134.0 256.75 131.0Q251.0 128.0 246.5 126.0Q244.0 124.0 241.75 123.0Q239.5 122.0 237.5 121.5Q238.5 122.5 238.75 124.5Q239.0 126.5 239.0 128.5Q239.0 136.5 239.5 146.75Q240.0 157.0 240.75 166.0Q241.5 175.0 242.5 178.5V179.0Q243.5 178.5 246.25 176.25Q249.0 174.0 252.5 171.0Q258.0 165.5 267.0 159.75Q276.0 154.0 284.0 151.5ZM10.5 72.0V72.5Q10.0 70.5 10.0 68.0Q10.0 64.5 13.75 63.25Q17.5 62.0 28.5 62.0Q33.0 62.0 43.5 62.25Q54.0 62.5 66.0 63.25Q78.0 64.0 87.0 64.5Q96.0 65.0 97.0 66.0V67.0Q97.0 74.0 93.0 84.5Q89.0 95.0 86.5 101.5Q78.5 118.0 73.5 136.25Q68.5 154.5 66.25 180.25Q64.0 206.0 64.0 245.5Q64.0 273.5 65.5 311.0V324.0L66.0 342.0Q66.5 361.5 66.5 377.75Q66.5 394.0 66.5 405.5Q66.5 445.0 62.0 445.0Q59.5 445.0 57.0 429.25Q54.5 413.5 53.0 386.0Q51.5 358.5 51.0 324.0Q49.5 275.0 47.0 239.5Q44.5 204.0 40.0 176.75Q35.5 149.5 28.5 124.75Q21.5 100.0 10.5 72.0ZM125.0 169.0V168.5Q125.0 167.5 138.75 165.25Q152.5 163.0 171.0 163.0Q190.0 163.0 203.25 165.5Q216.5 168.0 216.5 170.5Q216.5 172.0 214.0 176.0Q211.5 180.0 208.5 183.0Q206.0 185.5 201.0 193.75Q196.0 202.0 192.0 211.0Q188.0 219.0 185.5 225.75Q183.0 232.5 182.0 243.75Q181.0 255.0 180.75 275.75Q180.5 296.5 180.5 332.5Q180.5 383.0 179.0 408.5Q177.5 434.0 172.5 434.0H171.5Q169.0 432.5 167.25 410.5Q165.5 388.5 165.5 354.0Q165.5 325.0 164.25 303.75Q163.0 282.5 160.0 265.5Q157.0 248.5 151.75 233.0Q146.5 217.5 139.0 200.5Q133.0 188.0 129.0 178.5Q125.0 169.0 125.0 169.0ZM119.5 98.0Q118.0 96.0 116.75 85.0Q115.5 74.0 114.5 59.5Q113.5 45.0 113.0 32.5Q112.5 20.0 112.5 15.5Q112.5 14.0 112.75 12.0Q113.0 10.0 113.0 10.0Q115.5 10.0 122.75 12.5Q130.0 15.0 138.5 18.5Q171.5 35.0 206.0 40.75Q240.5 46.5 276.5 46.5Q298.0 46.5 319.0 47.25Q340.0 48.0 357.5 49.75Q375.0 51.5 385.5 53.5Q396.0 55.5 396.0 58.0V58.5Q395.0 61.0 385.0 62.25Q375.0 63.5 359.5 63.5Q351.5 63.5 342.5 63.25Q333.5 63.0 324.0 62.5H308.0Q303.5 62.0 299.25 62.0Q295.0 62.0 291.0 62.0Q268.5 62.0 247.5 62.5Q226.5 63.0 212.0 64.0Q187.5 66.5 173.75 70.25Q160.0 74.0 147.5 82.5Q138.0 88.5 128.75 93.25Q119.5 98.0 119.5 98.0ZM256.0 190.5Q251.0 195.5 242.25 200.75Q233.5 206.0 229.5 206.5Q229.0 206.5 227.25 205.5Q225.5 204.5 225.0 203.5Q225.0 177.0 224.5 153.5Q224.0 130.0 223.0 120.5Q222.0 116.5 221.75 112.0Q221.5 107.5 221.5 105.0Q221.5 96.0 225.5 96.0Q226.5 96.0 233.5 99.75Q240.5 103.5 249.5 108.5Q265.5 120.0 278.5 126.75Q291.5 133.5 306.25 137.25Q321.0 141.0 342.25 142.5Q363.5 144.0 396.5 144.5Q431.0 146.0 454.75 148.25Q478.5 150.5 478.5 152.5Q478.5 157.0 453.75 158.5Q429.0 160.0 390.0 160.0Q354.0 160.0 331.5 161.0Q309.0 162.0 295.5 164.75Q282.0 167.5 273.5 173.75Q265.0 180.0 256.0 190.5Z" fill="black" /></svg>