<svg xmlns="http://www.w3.org/2000/svg" width="527.5" height="382.5" viewBox="0 0 527.5 382.5"><path d="M134.0 325.0 114.5 321.0Q101.5 318.0 84.25 312.75Q67.0 307.5 55.5 303.0L32.5 292.5V320.0Q32.5 335.0 33.75 341.5Q35.0 348.0 40.0 348.0Q43.5 348.0 49.25 346.25Q55.0 344.5 64.0 341.0Q72.5 338.0 87.5 334.0Q102.5 330.0 115.0 328.0ZM85.0 152.5Q82.0 136.5 78.0 124.25Q74.0 112.0 72.0 109.0Q71.0 107.0 70.5 106.25Q70.0 105.5 70.0 105.5Q69.0 106.5 67.5 110.5L66.0 113.5Q58.5 132.5 54.5 148.25Q50.5 164.0 49.0 182.25Q47.5 200.5 47.5 227.0V281.5L67.0 290.5Q75.0 294.0 82.25 297.0Q89.5 300.0 91.5 300.0Q93.5 300.0 94.5 287.75Q95.5 275.5 95.5 257.5Q95.5 240.0 94.25 220.5Q93.0 201.0 90.75 183.0Q88.5 165.0 85.0 152.5ZM202.5 313.0 273.0 316.0V238.5H109.0V282.5Q109.0 295.0 114.0 301.0Q119.0 307.0 135.75 309.0Q152.5 311.0 188.5 312.5H195.0Q197.0 313.0 198.75 313.0Q200.5 313.0 202.5 313.0ZM34.0 137.5 37.5 146.5 50.0 117.5H40.0Q29.0 117.5 29.0 120.5Q29.0 122.5 30.5 126.75Q32.0 131.0 34.0 137.5ZM59.5 52.5H60.0Q49.0 47.5 41.0 44.25Q33.0 41.0 33.0 41.0Q33.0 43.5 32.75 52.0Q32.5 60.5 32.5 71.5V102.0L46.0 97.5Q48.5 96.5 53.5 95.5Q55.5 94.5 58.0 93.75Q60.5 93.0 62.5 92.5Q71.0 90.0 80.75 87.0Q90.5 84.0 100.0 81.5L128.0 73.5L111.5 70.0Q100.5 67.5 85.0 62.5Q69.5 57.5 59.5 52.5ZM108.5 117.5V117.0Q108.5 115.5 100.5 115.5H96.5Q91.0 115.5 91.0 117.0Q91.0 120.5 95.5 132.5L99.5 146.5L103.0 138.0Q105.5 131.0 107.0 125.25Q108.5 119.5 108.5 117.5ZM231.5 77.5Q226.0 76.5 220.5 76.0Q215.0 75.5 209.5 75.5Q204.0 75.5 198.5 76.0Q193.0 76.5 187.5 77.5Q137.5 87.5 114.5 92.5Q91.5 97.5 89.0 99.5Q95.5 102.0 103.5 102.0Q106.0 102.0 108.0 101.75Q110.0 101.5 112.0 101.0Q113.0 100.5 114.25 100.5Q115.5 100.5 116.0 100.0Q117.5 99.5 119.0 99.5Q120.5 99.5 121.0 99.5Q128.0 99.5 128.0 106.5Q128.0 113.0 119.5 134.5Q116.0 144.5 114.0 152.5Q112.0 160.5 112.0 163.5Q115.0 164.5 132.75 165.25Q150.5 166.0 172.5 166.0Q194.5 166.0 216.5 165.5Q238.5 165.0 253.25 164.0Q268.0 163.0 268.0 162.0Q268.0 159.5 264.5 146.5Q261.0 133.5 256.0 118.0Q251.0 101.0 247.5 93.0Q244.0 85.0 240.75 81.75Q237.5 78.5 231.5 77.5ZM191.0 222.0 271.0 221.5 274.0 180.5H109.0V223.5ZM287.5 223.5H460.0V180.5H287.5ZM287.5 314.5H460.0V238.5H287.5ZM302.0 48.5Q302.0 48.5 293.25 48.25Q284.5 48.0 273.5 47.5Q263.0 47.5 254.5 47.5Q246.0 47.5 243.5 47.0Q244.0 47.5 244.75 49.0Q245.5 50.5 246.5 52.5Q247.5 55.0 249.0 58.0Q250.5 61.0 252.5 65.0Q256.5 73.0 261.0 85.25Q265.5 97.5 268.5 107.5L272.5 121.5L276.0 109.0Q278.5 99.5 283.0 87.25Q287.5 75.0 292.0 67.5Q296.0 61.0 299.0 55.5Q302.0 50.0 302.0 48.5ZM447.0 104.0Q443.5 93.5 440.0 85.75Q436.5 78.0 435.5 77.0Q431.5 77.0 411.0 77.5Q390.5 78.0 365.5 79.0L299.5 81.5L294.0 96.5Q291.5 104.5 289.75 117.25Q288.0 130.0 288.0 141.0L287.5 165.5L457.5 162.5L456.0 149.0Q456.0 142.0 453.25 128.75Q450.5 115.5 447.0 104.0ZM482.5 42.5 493.0 26.5H433.0L437.5 35.5Q438.5 37.5 439.75 41.25Q441.0 45.0 442.5 49.0Q446.0 58.5 449.5 68.5L461.0 99.5L465.0 86.0Q467.5 77.0 472.75 64.25Q478.0 51.5 482.5 42.5ZM409.5 13.5V11.5L410.5 11.0Q411.5 10.0 422.0 10.0Q432.0 10.0 447.5 10.5Q463.0 11.0 478.75 12.0Q494.5 13.0 505.75 14.0Q517.0 15.0 517.5 16.5Q517.5 17.0 513.0 25.5Q508.5 34.0 501.5 44.0Q495.0 54.5 488.75 66.75Q482.5 79.0 480.0 86.0Q479.0 92.0 477.5 112.5Q476.0 133.0 475.25 162.0Q474.5 191.0 474.5 224.5Q474.5 284.0 473.0 316.0Q471.5 348.0 467.5 348.0Q465.0 348.0 462.5 344.5Q460.0 341.0 460.0 336.0Q460.0 333.5 458.0 332.0Q456.0 330.5 448.0 329.75Q440.0 329.0 422.5 328.75Q405.0 328.5 374.0 328.5H287.5V348.5Q287.5 358.5 285.25 365.5Q283.0 372.5 280.0 372.5Q277.5 372.5 275.25 365.5Q273.0 358.5 273.0 348.5V328.5H230.5Q206.0 328.5 174.5 332.75Q143.0 337.0 111.25 344.5Q79.5 352.0 52.5 361.0Q41.0 365.0 31.5 367.25Q22.0 369.5 18.0 369.5Q16.0 369.5 16.0 369.0V368.5Q16.0 365.0 16.0 361.75Q16.0 358.5 16.5 355.0Q16.5 348.5 16.75 340.0Q17.0 331.5 17.5 322.5V320.5Q18.5 291.5 20.5 282.5Q22.5 273.5 27.5 273.5H30.0Q31.5 272.5 32.25 263.5Q33.0 254.5 33.0 234.5Q32.5 200.0 28.5 175.0Q24.5 150.0 15.5 129.0Q13.0 122.5 11.5 118.25Q10.0 114.0 10.0 111.0Q10.0 106.5 13.0 103.0Q15.5 100.5 17.0 88.75Q18.5 77.0 18.5 58.5Q18.5 41.0 20.25 29.25Q22.0 17.5 24.0 17.5H24.5L64.5 36.5Q79.0 44.5 95.5 50.5Q112.0 56.5 123.0 57.5Q136.0 59.0 152.25 60.0Q168.5 61.0 185.0 61.5Q201.5 62.0 214.0 62.0Q222.0 62.0 227.25 62.0Q232.5 62.0 234.5 62.5Q234.0 61.0 232.25 57.0Q230.5 53.0 228.5 48.5Q223.0 36.5 223.0 32.5V31.0Q224.5 29.0 229.0 29.0Q232.0 29.0 238.0 29.75Q244.0 30.5 250.5 32.0Q255.5 32.5 262.5 33.0Q269.5 33.5 276.5 33.5Q283.0 33.5 289.25 33.25Q295.5 33.0 300.5 32.5L303.0 32.0Q307.0 32.0 310.25 31.75Q313.5 31.5 316.0 31.5Q330.0 31.5 330.0 38.5Q330.0 40.5 327.25 44.25Q324.5 48.0 320.5 52.0Q317.0 55.5 314.25 59.0Q311.5 62.5 311.5 63.5Q311.5 64.0 329.25 64.5Q347.0 65.0 371.5 65.0Q405.0 65.0 418.0 64.25Q431.0 63.5 431.0 61.5Q431.0 59.5 427.75 52.0Q424.5 44.5 420.0 36.5Q415.5 29.0 412.5 22.25Q409.5 15.5 409.5 13.5Z" fill="black" /></svg>