<svg xmlns="http://www.w3.org/2000/svg" width="843.0" height="463.0" viewBox="0 0 843.0 463.0"><path d="M138.0 242.0Q116.5 266.5 93.75 289.0Q71.0 311.5 47.0 332.0L122.5 330.0L122.0 328.0V324.5Q122.0 323.0 121.75 321.75Q121.5 320.5 121.5 318.5Q121.0 317.5 121.0 315.75Q121.0 314.0 121.0 312.5Q121.0 310.0 121.25 307.75Q121.5 305.5 122.0 304.0Q123.5 298.5 125.0 293.25Q126.5 288.0 127.0 284.0Q129.5 273.5 132.0 264.25Q134.5 255.0 138.0 242.0ZM269.0 248.0Q265.5 247.0 261.75 245.5Q258.0 244.0 252.5 242.0L253.0 241.5Q251.5 240.5 250.5 239.75Q249.5 239.0 247.5 238.5Q246.5 237.5 245.25 236.75Q244.0 236.0 243.0 235.5Q241.5 234.0 241.0 234.0Q240.5 233.5 239.5 233.5Q239.5 236.0 239.75 237.75Q240.0 239.5 240.5 242.0V277.0Q240.0 279.5 239.75 280.0Q239.5 280.5 239.5 280.5V281.0L243.5 275.5Q247.5 272.0 251.0 266.5L254.5 263.5Q256.5 261.5 258.0 259.75Q259.5 258.0 261.0 256.0Q263.0 253.5 264.5 251.75Q266.0 250.0 269.0 248.0ZM558.5 289.5V259.0L560.5 231.5Q560.5 231.5 552.5 232.5Q544.5 233.5 537.5 233.5Q527.5 234.0 517.75 235.0Q508.0 236.0 494.25 238.0Q480.5 240.0 458.5 244.0Q452.0 245.5 446.25 248.0Q440.5 250.5 440.5 252.0Q440.5 256.5 449.25 261.75Q458.0 267.0 471.5 272.0Q485.0 277.0 499.5 281.0Q514.0 285.0 525.5 287.25Q537.0 289.5 542.0 289.5ZM577.5 287.5H749.0V229.5Q740.5 229.5 714.75 230.0Q689.0 230.5 647.5 231.5L577.5 232.0ZM253.5 54.0Q250.5 54.0 246.75 54.0Q243.0 54.0 238.5 54.5Q236.5 54.5 235.0 54.75Q233.5 55.0 231.0 55.0Q228.0 55.5 225.25 55.5Q222.5 55.5 219.5 55.5H214.0Q210.5 55.5 207.0 55.25Q203.5 55.0 200.5 54.5Q199.5 54.5 197.75 54.5Q196.0 54.5 195.0 54.0Q191.0 54.0 189.5 53.5Q193.5 60.0 199.0 68.75Q204.5 77.5 206.5 85.0L209.0 96.0Q210.0 95.0 211.25 93.75Q212.5 92.5 213.0 92.0Q214.5 91.5 215.5 89.0Q216.5 88.0 217.75 87.0Q219.0 86.0 219.5 85.0Q222.5 83.0 224.5 79.5Q230.0 74.5 235.75 69.25Q241.5 64.0 247.0 59.0Q248.5 58.0 250.25 56.75Q252.0 55.5 253.5 54.0ZM437.0 97.5 473.5 49.5Q472.5 49.5 471.25 49.5Q470.0 49.5 468.5 49.5Q466.5 50.0 463.75 50.25Q461.0 50.5 458.5 50.5Q457.0 51.0 455.5 51.0Q454.0 51.0 452.5 51.5Q449.5 51.5 446.75 51.75Q444.0 52.0 441.5 52.0H439.5L413.0 50.5L419.5 60.0Q421.0 63.0 423.75 68.75Q426.5 74.5 429.5 81.0Q430.0 82.0 431.75 86.0Q433.5 90.0 435.25 93.5Q437.0 97.0 437.0 97.5ZM468.5 146.0 488.5 144.0 445.0 130.5 443.5 149.5H444.0Q450.0 148.5 457.0 147.25Q464.0 146.0 468.5 146.0ZM442.0 230.0 490.0 221.5 442.0 202.0ZM542.0 213.5 557.5 213.0V157.0L531.5 157.5Q491.5 159.0 466.0 164.0Q440.5 169.0 440.5 176.0Q440.5 179.5 452.0 185.75Q463.5 192.0 480.5 198.25Q497.5 204.5 514.0 208.75Q530.5 213.0 540.5 213.5ZM595.0 84.0 613.5 59.5 584.0 61.0H580.5Q576.0 61.0 567.5 60.25Q559.0 59.5 559.0 59.5Q564.5 67.5 567.0 77.0Q568.5 82.5 570.25 91.25Q572.0 100.0 573.25 107.0Q574.5 114.0 574.5 114.0Q579.0 107.0 585.0 98.5Q591.0 90.0 595.0 84.0ZM578.5 213.0 749.0 212.0V153.5L722.5 152.0Q710.0 152.0 684.25 153.0Q658.5 154.0 633.5 155.5L580.5 157.5ZM782.0 62.5 798.5 33.0H749.0L759.5 60.5Q762.0 67.0 764.0 74.75Q766.0 82.5 766.5 88.5Q766.5 89.5 766.75 90.5Q767.0 91.5 767.0 92.5Q768.0 90.0 769.0 87.75Q770.0 85.5 771.0 83.5Q773.5 78.0 776.0 72.75Q778.5 67.5 782.0 62.5ZM392.0 372.0Q369.5 364.0 355.0 357.5Q351.0 356.0 348.0 355.0Q345.0 354.0 343.5 353.5Q342.0 353.5 340.75 353.25Q339.5 353.0 339.5 353.0Q337.5 353.0 337.0 357.75Q336.5 362.5 336.5 377.0Q336.5 392.0 337.0 397.5Q337.5 403.0 340.0 403.0Q340.5 403.0 344.5 402.0L347.5 401.5Q365.5 395.5 385.75 390.75Q406.0 386.0 426.0 385.5Q418.5 383.5 408.5 378.5Q406.0 377.5 403.25 376.75Q400.5 376.0 398.0 375.0Q396.5 374.0 394.75 373.25Q393.0 372.5 392.0 372.0ZM442.0 305.0 489.0 297.5 443.5 280.5ZM141.5 42.5Q141.5 37.5 163.25 34.75Q185.0 32.0 222.0 32.0Q259.0 32.0 280.0 34.75Q301.0 37.5 301.0 42.5Q301.0 47.0 297.25 50.5Q293.5 54.0 287.0 54.0Q283.0 54.0 270.75 64.75Q258.5 75.5 246.0 88.5L212.5 124.0L211.5 213.5Q211.0 264.5 207.0 294.25Q203.0 324.0 199.0 324.0Q194.5 324.0 191.75 303.75Q189.0 283.5 189.0 240.5V189.0L179.5 201.5Q168.0 218.5 159.5 238.25Q151.0 258.0 146.75 275.75Q142.5 293.5 142.5 305.5Q142.5 318.5 146.5 321.5Q150.0 323.5 153.5 328.75Q157.0 334.0 159.0 338.0Q160.0 343.0 170.75 349.5Q181.5 356.0 194.0 360.0Q209.0 365.5 226.25 373.75Q243.5 382.0 258.5 391.25Q273.5 400.5 283.0 408.0Q292.5 415.5 292.5 419.5Q292.5 426.0 287.0 426.0Q279.0 426.0 261.5 414.0Q253.5 409.5 238.0 402.5Q222.5 395.5 204.75 387.75Q187.0 380.0 171.0 373.5Q149.5 365.0 132.75 359.5Q116.0 354.0 99.0 351.5Q82.0 349.0 58.5 349.0Q53.5 349.5 47.75 349.5Q42.0 349.5 37.0 349.5Q24.0 349.5 17.0 347.25Q10.0 345.0 10.0 343.0Q10.0 340.5 28.75 321.5Q47.5 302.5 78.0 272.5Q110.0 241.0 135.0 215.75Q160.0 190.5 174.5 176.0Q189.0 161.5 189.0 161.5V111.5Q185.5 88.0 176.0 71.0Q166.5 54.0 154.5 54.0Q149.5 54.0 145.5 50.5Q141.5 47.0 141.5 42.5ZM223.5 203.5 224.0 202.0Q225.0 200.5 229.0 200.5Q233.0 200.5 238.0 204.5Q243.0 208.5 248.0 215.0Q253.0 220.5 259.25 224.75Q265.5 229.0 280.5 231.25Q295.5 233.5 327.0 233.5Q359.0 233.5 378.5 235.25Q398.0 237.0 398.0 242.0Q398.0 248.5 381.5 249.5Q365.0 250.5 339.5 250.5Q320.0 250.5 308.75 251.5Q297.5 252.5 290.75 255.0Q284.0 257.5 279.0 262.25Q274.0 267.0 267.0 274.5Q258.0 283.5 251.0 293.75Q244.0 304.0 243.0 310.5Q237.5 329.0 228.0 329.0Q221.0 329.0 221.0 307.0V286.0Q222.0 279.0 222.25 272.5Q222.5 266.0 222.5 258.5Q222.5 251.5 222.25 245.5Q222.0 239.5 221.0 234.0V218.0Q221.0 208.5 223.5 203.5ZM718.0 13.0V12.5L719.5 10.0H724.0Q725.5 10.0 727.5 10.0Q729.5 10.0 731.5 10.5Q743.0 11.5 754.5 11.75Q766.0 12.0 777.5 12.0Q785.0 11.5 792.25 11.5Q799.5 11.5 804.5 11.5Q833.0 11.5 833.0 22.0Q833.0 25.0 830.5 29.25Q828.0 33.5 822.5 39.0Q820.0 41.0 814.25 49.5Q808.5 58.0 801.75 70.5Q795.0 83.0 789.5 96.5Q782.5 114.0 778.25 126.25Q774.0 138.5 772.5 152.25Q771.0 166.0 771.0 188.5Q771.0 196.5 771.25 206.0Q771.5 215.5 772.0 225.5V261.0L772.5 374.0H802.0Q813.5 374.0 820.5 376.25Q827.5 378.5 827.5 382.5Q827.5 387.5 821.75 390.75Q816.0 394.0 802.0 394.0Q792.0 394.0 782.25 394.25Q772.5 394.5 772.5 394.5Q772.5 399.0 772.25 408.5Q772.0 418.0 770.75 428.25Q769.5 438.5 766.75 445.75Q764.0 453.0 759.0 453.0Q749.0 453.0 749.0 419.5V395.5L583.0 399.5Q461.0 404.0 402.5 411.25Q344.0 418.5 338.5 433.0Q333.0 447.5 327.0 447.5Q313.5 447.5 313.5 377.0Q313.5 348.0 316.5 328.0Q319.5 308.0 322.5 308.0Q325.5 308.0 329.75 311.5Q334.0 315.0 338.5 319.5Q341.5 323.0 361.75 333.5Q382.0 344.0 408.0 354.0L468.0 381.5L749.0 374.5V309.0H577.5V332.5Q577.5 345.0 575.25 355.0Q573.0 365.0 568.5 365.0Q563.0 365.0 561.0 355.5Q559.0 346.0 559.0 332.5V309.0L520.5 313.0Q484.5 316.5 467.5 319.0Q450.5 321.5 445.5 325.25Q440.5 329.0 440.5 336.0Q440.5 347.0 438.25 354.75Q436.0 362.5 432.0 362.5Q426.0 362.5 420.5 350.5Q418.0 343.5 418.0 325.5V283.0Q418.0 268.5 417.75 249.25Q417.5 230.0 416.5 204.5V196.0Q416.5 188.5 416.75 181.25Q417.0 174.0 418.0 167.5V140.0Q418.0 130.5 417.75 121.0Q417.5 111.5 415.0 101.5Q414.5 97.0 410.5 88.25Q406.5 79.5 401.25 69.75Q396.0 60.0 390.5 52.0Q385.0 44.0 381.0 41.0L380.5 40.0Q379.5 39.0 378.5 37.5Q377.5 36.0 377.5 32.5L380.5 31.0H512.5L513.5 34.5Q513.5 38.0 508.5 43.25Q503.5 48.5 496.5 55.5Q488.5 62.0 479.0 73.25Q469.5 84.5 464.0 93.0L453.5 109.5L481.5 121.5Q491.0 124.5 503.75 127.25Q516.5 130.0 528.75 132.0Q541.0 134.0 549.0 135.25Q557.0 136.5 557.0 136.5V135.5Q557.0 126.0 554.5 110.75Q552.0 95.5 547.75 82.0Q543.5 68.5 537.0 63.5Q533.5 61.5 529.75 57.0Q526.0 52.5 526.0 48.0Q526.0 42.5 534.75 39.25Q543.5 36.0 565.0 36.0Q572.0 36.0 585.75 36.25Q599.5 36.5 614.25 37.5Q629.0 38.5 639.5 41.0Q650.0 43.5 650.0 48.0Q650.0 50.5 647.5 52.75Q645.0 55.0 640.5 59.0L639.5 59.5Q634.5 63.0 626.5 73.0Q618.5 83.0 610.0 95.25Q601.5 107.5 594.75 118.5Q588.0 129.5 585.0 136.0L749.0 134.0L747.5 103.5Q747.5 95.0 744.25 83.5Q741.0 72.0 736.75 61.0Q732.5 50.0 729.0 43.5Q724.5 32.5 721.25 24.25Q718.0 16.0 718.0 13.0Z" fill="black" /></svg>