<svg xmlns="http://www.w3.org/2000/svg" width="611.0" height="379.5" viewBox="0 0 611.0 379.5"><path d="M70.0 212.5 58.0 208.5Q43.0 204.0 38.5 204.0Q35.5 204.0 35.5 214.5V229.0Q36.0 229.0 42.0 226.0Q48.0 223.0 55.5 219.0ZM105.0 102.5 102.5 101.5Q99.5 100.5 97.0 100.0Q94.5 99.5 92.0 99.0Q87.0 97.5 83.5 96.5Q80.0 95.5 78.0 95.5Q75.0 95.5 75.0 103.0V118.0L92.0 109.0Q100.5 105.5 103.5 104.5Q106.5 103.5 106.5 103.0Q105.5 103.0 105.0 102.5ZM199.0 217.0 198.5 215.5Q197.5 212.0 196.0 202.5Q194.5 193.0 193.5 184.0L191.0 166.5L177.0 183.5Q170.5 191.5 167.0 196.0Q163.5 200.5 163.5 203.5Q163.5 206.5 170.5 209.5Q177.5 212.5 186.0 214.75Q194.5 217.0 199.0 217.5ZM246.0 252.0 244.0 251.5H243.5Q238.5 249.0 234.75 247.25Q231.0 245.5 228.5 244.5Q229.0 245.0 229.5 245.25Q230.0 245.5 230.5 246.0L232.0 247.0Q239.5 254.5 251.0 254.5Q250.0 254.0 248.75 253.25Q247.5 252.5 246.0 252.0ZM294.5 273.5Q290.5 271.0 280.75 270.0Q271.0 269.0 261.0 269.0Q252.5 269.0 246.25 269.5Q240.0 270.0 239.0 271.0V271.5L239.5 273.0Q240.0 274.5 240.75 277.75Q241.5 281.0 243.0 285.0L244.5 289.5Q245.0 290.5 245.25 292.0Q245.5 293.5 246.0 294.5Q251.0 311.5 253.0 311.5Q254.0 311.5 257.0 307.0L258.5 305.0Q261.5 301.5 269.0 296.0Q276.5 290.5 284.0 285.5Q298.5 276.5 298.5 275.5Q298.5 275.0 294.5 273.5ZM221.0 89.5Q222.0 83.0 222.5 79.5Q219.0 82.0 214.25 86.75Q209.5 91.5 205.75 95.75Q202.0 100.0 202.0 101.5Q202.0 101.5 204.25 101.75Q206.5 102.0 210.0 102.0Q218.0 102.0 221.0 89.5ZM299.5 128.0Q297.0 124.5 296.0 124.5Q294.0 124.5 290.5 129.0Q287.0 133.5 284.0 138.5Q281.0 143.5 281.0 146.0Q281.0 151.0 272.0 156.5L270.5 157.5Q270.5 158.0 270.5 157.75Q270.5 157.5 270.5 158.0H308.5L305.5 147.5Q304.0 144.0 303.0 139.5Q302.0 135.0 301.0 131.5Q300.0 128.5 299.5 128.0ZM379.0 124.0Q380.0 121.0 381.5 118.5Q383.0 116.0 383.5 114.0Q381.0 116.5 376.0 121.75Q371.0 127.0 364.5 134.0L343.5 154.0L353.0 156.0L358.5 156.5Q365.5 158.0 368.5 158.0Q371.0 158.0 371.5 156.25Q372.0 154.5 372.0 150.0Q372.0 145.5 374.0 137.75Q376.0 130.0 379.0 124.0ZM428.5 188.5H428.0Q421.0 185.0 413.75 183.5Q406.5 182.0 402.5 181.5Q406.5 183.5 416.75 186.5Q427.0 189.5 435.0 191.0Q433.5 190.0 431.75 189.5Q430.0 189.0 428.5 188.5ZM435.0 207.5 433.5 206.5Q428.5 203.0 423.0 203.0Q423.5 203.5 423.75 203.75Q424.0 204.0 424.5 204.5Q427.5 208.5 431.5 208.5Q433.0 208.5 433.0 208.0ZM427.0 172.0Q432.5 172.0 437.25 163.75Q442.0 155.5 445.25 145.25Q448.5 135.0 449.0 130.0Q447.0 132.0 442.25 137.75Q437.5 143.5 432.0 149.5Q415.0 165.0 415.0 168.5Q415.0 168.5 415.5 168.75Q416.0 169.0 416.5 169.5Q423.0 172.0 427.0 172.0ZM547.0 163.5Q545.0 163.5 539.0 163.25Q533.0 163.0 525.5 163.0Q514.5 163.0 510.0 163.5Q505.5 164.0 505.5 165.5Q505.5 166.0 506.5 168.0Q507.5 170.5 509.75 181.0Q512.0 191.5 514.0 202.5Q516.5 215.5 518.5 223.0Q520.5 230.5 521.0 230.5Q521.0 230.5 521.75 228.0Q522.5 225.5 523.0 221.0Q526.5 210.0 530.75 199.25Q535.0 188.5 540.0 178.5Q541.0 176.0 542.0 174.25Q543.0 172.5 543.5 170.5L545.5 166.5Q546.0 165.5 546.25 164.75Q546.5 164.0 547.0 163.5ZM535.5 49.5 545.0 32.5H505.5L509.5 40.5Q512.0 46.0 514.75 53.5Q517.5 61.0 519.0 65.5Q519.5 66.5 519.75 67.75Q520.0 69.0 520.5 70.0Q521.0 71.5 521.0 72.25Q521.0 73.0 521.0 73.0Q522.5 73.0 535.5 49.5ZM228.0 52.0Q245.5 34.0 259.25 22.0Q273.0 10.0 275.0 10.0Q279.5 10.0 279.5 13.5Q279.5 15.5 266.0 36.0Q264.0 38.5 262.0 41.5Q260.0 44.5 257.5 48.5Q245.5 66.0 239.5 78.25Q233.5 90.5 233.5 95.5Q233.5 96.0 233.75 96.25Q234.0 96.5 234.0 96.5Q238.0 97.5 238.5 100.5Q239.0 103.5 239.0 107.0V107.5Q239.0 113.0 254.0 122.0L270.0 133.0L282.0 120.0Q286.0 113.5 290.5 106.0Q295.0 98.5 296.0 94.0Q298.0 82.5 304.5 82.5Q310.5 82.5 310.5 93.5Q310.5 97.5 311.0 105.75Q311.5 114.0 312.75 123.25Q314.0 132.5 316.25 139.75Q318.5 147.0 321.5 149.0Q325.0 148.0 333.75 141.0Q342.5 134.0 354.0 123.25Q365.5 112.5 377.0 100.5Q388.5 88.5 398.0 77.75Q407.5 67.0 412.0 60.0Q421.0 45.0 425.0 45.0Q428.0 45.0 428.0 49.0Q428.0 58.5 407.5 98.5Q385.0 138.0 385.0 153.5Q385.0 158.0 387.5 158.0Q392.5 158.0 392.5 163.0Q392.5 164.5 392.0 165.5Q398.0 161.0 410.25 149.75Q422.5 138.5 436.25 124.25Q450.0 110.0 462.25 96.5Q474.5 83.0 480.5 74.5Q485.0 68.0 488.5 65.5Q492.0 63.0 494.0 63.0Q497.5 63.0 497.5 66.5Q497.5 68.5 496.0 73.25Q494.5 78.0 490.5 84.0Q481.5 99.0 472.75 116.75Q464.0 134.5 458.0 148.5Q452.0 162.5 452.0 166.5Q452.0 171.5 454.0 171.5Q459.0 171.5 459.0 178.0Q459.0 181.0 458.0 183.0V184.5L457.5 185.5Q457.5 189.0 463.0 194.0Q468.5 199.0 475.0 203.0Q481.5 207.0 484.0 207.0Q491.0 207.0 491.0 215.0Q491.0 218.0 496.0 224.75Q501.0 231.5 504.5 233.0Q504.5 214.0 499.5 195.75Q494.5 177.5 485.5 161.0L484.0 158.0Q482.5 156.5 481.5 154.5Q477.5 148.0 477.5 144.0Q477.5 138.0 483.5 138.0Q487.0 138.0 495.5 143.5Q499.5 146.5 504.0 148.0Q508.5 149.5 512.0 149.5Q516.5 149.5 516.5 147.0Q516.5 141.5 515.0 130.0Q513.5 118.5 511.5 105.0Q509.5 91.5 507.25 79.25Q505.0 67.0 503.5 61.0Q501.5 54.0 497.25 45.5Q493.0 37.0 488.0 32.0Q478.5 20.0 478.5 16.5Q478.5 12.0 484.0 12.0Q488.5 12.0 497.5 15.0Q502.0 17.0 512.25 17.75Q522.5 18.5 535.0 18.5Q537.5 18.5 539.75 18.5Q542.0 18.5 544.0 18.0H554.0Q559.0 17.5 564.0 17.5Q569.0 17.5 573.0 17.5Q586.0 17.5 593.5 19.0Q601.0 20.5 601.0 23.0Q601.0 27.0 586.0 30.0Q571.0 33.5 561.5 40.5Q552.0 47.5 544.0 60.5Q537.5 73.0 532.5 93.0Q527.5 113.0 527.5 128.5Q527.5 133.5 528.5 139.5L531.0 150.5L559.0 149.0Q563.0 148.5 567.25 148.25Q571.5 148.0 575.0 148.0Q591.5 148.0 591.5 153.5Q591.5 158.0 580.0 161.5Q554.0 169.0 540.0 211.5Q526.0 254.0 526.0 321.5Q526.0 343.5 524.5 356.5Q523.0 369.5 519.0 369.5Q516.0 369.5 514.0 355.5Q512.0 341.5 512.0 320.0Q512.0 312.5 512.0 301.75Q512.0 291.0 511.25 280.5Q510.5 270.0 509.0 264.5Q506.0 255.5 496.0 244.25Q486.0 233.0 475.5 224.75Q465.0 216.5 458.5 216.5Q440.0 216.5 440.0 225.0Q440.0 227.0 440.5 228.0Q441.5 231.0 441.5 232.5Q441.5 238.0 436.0 238.0Q429.0 238.0 429.0 231.5Q429.0 229.5 424.5 229.5Q422.0 229.5 412.0 233.75Q402.0 238.0 388.75 244.0Q375.5 250.0 362.75 256.5Q350.0 263.0 341.75 268.0Q333.5 273.0 333.5 274.0Q333.5 274.5 337.75 277.25Q342.0 280.0 347.5 283.0Q354.5 286.5 359.25 290.75Q364.0 295.0 364.0 297.5Q364.0 303.0 359.5 303.0Q356.5 303.0 334.0 292.5L314.0 281.5L288.5 299.5Q278.0 306.5 269.0 314.0Q260.0 321.5 258.5 324.5Q253.5 332.5 246.0 340.0Q238.5 347.5 234.5 347.5Q230.0 347.5 230.0 343.0Q230.0 341.5 231.0 339.25Q232.0 337.0 233.0 334.5Q236.0 328.5 236.0 319.5Q236.0 294.5 208.0 241.5Q205.0 237.0 192.5 233.0Q180.0 229.0 163.75 225.5Q147.5 222.0 133.0 220.0Q118.5 218.0 111.0 218.0Q99.0 218.0 82.0 223.5Q65.0 229.0 51.0 238.5Q37.0 248.0 33.5 260.5Q30.5 272.5 26.0 272.5Q21.0 272.5 21.0 256.5Q21.0 254.0 21.25 250.5Q21.5 247.0 21.5 243.5L22.0 241.0Q23.5 232.0 23.5 221.0Q23.5 207.0 20.75 196.5Q18.0 186.0 13.5 184.0Q10.0 183.0 10.0 180.5Q10.0 179.5 11.75 178.25Q13.5 177.0 17.0 177.0Q22.5 177.0 28.0 179.5Q33.5 182.0 37.5 185.5Q44.0 189.0 59.0 192.75Q74.0 196.5 91.75 199.25Q109.5 202.0 124.5 202.5Q133.5 202.0 142.0 196.0Q150.5 190.0 168.0 171.5Q180.0 158.5 189.25 146.5Q198.5 134.5 199.0 131.5Q201.5 126.0 204.0 122.75Q206.5 119.5 209.0 119.5Q214.0 119.5 214.0 127.0Q214.0 128.0 214.0 129.25Q214.0 130.5 213.5 132.5L213.0 134.0Q211.5 139.5 210.0 150.25Q208.5 161.0 208.0 172.5Q207.5 175.0 207.5 177.75Q207.5 180.5 207.5 183.0Q207.5 200.0 212.75 210.0Q218.0 220.0 227.0 220.0Q235.0 220.0 235.0 225.5V228.0Q235.5 230.5 242.75 234.75Q250.0 239.0 260.5 243.0Q271.0 247.0 281.0 249.75Q291.0 252.5 297.5 252.5Q307.0 252.5 324.25 248.25Q341.5 244.0 361.5 237.5Q381.5 231.0 398.0 224.5L415.0 217.5L407.5 209.5Q403.5 205.0 397.75 200.75Q392.0 196.5 388.0 195.0Q378.0 191.0 362.25 186.75Q346.5 182.5 328.5 179.25Q310.5 176.0 294.0 174.0Q277.5 172.0 266.0 172.0H223.5L247.0 156.5Q252.5 153.0 255.75 150.0Q259.0 147.0 259.0 145.0Q259.0 139.5 231.5 126.0Q219.0 119.0 210.25 117.5Q201.5 116.0 188.0 116.0Q179.0 117.5 173.0 117.5Q165.5 117.5 165.5 113.0Q165.5 111.0 168.0 108.5L169.0 107.5Q168.0 107.0 165.0 107.0Q150.5 107.0 132.0 110.75Q113.5 114.5 97.5 122.75Q81.5 131.0 74.0 144.5Q70.0 152.0 67.25 156.5Q64.5 161.0 62.0 161.0Q58.0 161.0 58.0 153.0Q58.0 150.5 58.25 147.0Q58.5 143.5 59.0 139.0Q59.5 136.5 59.5 134.25Q59.5 132.0 60.0 129.5V126.5Q60.5 121.0 60.75 116.5Q61.0 112.0 61.0 108.5Q61.0 93.5 55.5 84.0Q53.5 79.5 52.5 76.75Q51.5 74.0 51.5 72.0Q51.5 67.5 56.0 67.5Q61.0 67.5 74.5 75.5Q82.5 79.5 98.5 83.5Q114.5 87.5 133.5 90.25Q152.5 93.0 168.5 93.5Q177.0 93.5 183.5 91.0Q190.0 88.5 199.75 79.5Q209.5 70.5 228.0 52.0ZM359.5 172.0H359.0L359.5 171.5H359.0Z" fill="black" /></svg>