<svg xmlns="http://www.w3.org/2000/svg" width="634.0" height="502.0" viewBox="0 0 634.0 502.0"><path d="M100.5 332.5H102.5Q90.5 332.5 77.75 328.25Q65.0 324.0 54.5 318.5L30.0 307.0V332.0Q30.0 346.0 30.25 350.75Q30.5 355.5 32.0 355.5Q33.0 355.5 34.5 355.25Q36.0 355.0 36.5 355.0Q41.5 353.0 47.5 350.5Q53.5 348.0 57.5 346.0Q62.5 343.5 71.25 341.0Q80.0 338.5 87.5 338.0Q97.5 335.5 100.5 332.5ZM188.0 371.0 193.5 363.5H158.5L167.0 372.0Q170.0 375.5 172.75 380.75Q175.5 386.0 175.5 386.0Q176.5 384.5 178.0 382.75Q179.5 381.0 181.0 379.0Q182.5 377.0 184.5 375.0Q185.0 374.0 188.0 371.0ZM420.5 345.5 421.5 346.5Q422.5 345.5 425.25 343.25Q428.0 341.0 430.5 339.0L431.0 338.5Q428.0 339.0 424.25 339.75Q420.5 340.5 416.0 342.0Q411.0 343.0 402.0 343.75Q393.0 344.5 384.5 344.5Q381.5 344.5 378.5 344.5Q375.5 344.5 372.5 344.0Q367.5 343.5 363.25 343.5Q359.0 343.5 355.5 343.5Q352.0 343.5 351.0 343.0Q352.0 346.0 354.0 350.25Q356.0 354.5 358.0 360.0L360.5 366.5Q361.5 368.0 362.25 369.75Q363.0 371.5 363.5 373.0Q364.0 374.0 364.25 375.25Q364.5 376.5 365.0 378.5Q370.5 389.5 373.25 395.75Q376.0 402.0 377.0 403.5L377.5 402.5Q380.5 397.0 387.5 387.5Q394.5 378.0 403.25 366.75Q412.0 355.5 420.5 345.5ZM64.5 183.0Q59.5 182.0 50.5 177.5Q41.5 173.0 35.5 169.5L25.5 161.5V214.0L34.0 208.0Q39.5 204.5 48.25 200.25Q57.0 196.0 63.5 193.5Q74.5 188.5 75.5 187.0Q75.0 186.5 71.75 185.5Q68.5 184.5 64.5 183.0ZM130.5 240.0 144.5 251.5 158.5 240.0ZM305.5 155.0 307.5 153.0Q308.5 151.0 308.5 151.0Q306.5 152.0 305.5 153.5Q304.5 154.0 299.75 157.0Q295.0 160.0 288.5 163.5Q283.0 167.5 276.75 171.5Q270.5 175.5 263.5 180.0L231.5 199.0L252.5 205.0Q261.5 207.0 267.25 209.0Q273.0 211.0 276.0 211.0Q279.0 211.0 279.0 202.0Q279.0 195.5 282.0 187.25Q285.0 179.0 289.5 173.5L292.5 171.0Q295.0 168.0 297.25 165.0Q299.5 162.0 301.5 159.0Q303.5 158.0 305.5 155.0ZM410.5 169.5 417.5 159.0H373.0Q375.0 162.5 380.0 170.0Q385.0 177.5 390.25 184.25Q395.5 191.0 398.0 193.0Q398.0 186.0 402.0 179.75Q406.0 173.5 410.5 169.5ZM346.0 149.5V148.0L346.5 146.5Q348.0 145.5 363.75 144.5Q379.5 143.5 397.5 143.5Q415.5 143.5 431.25 144.5Q447.0 145.5 450.0 146.5L451.0 150.0Q451.0 152.5 446.5 157.75Q442.0 163.0 435.0 167.5Q424.5 175.0 418.75 183.75Q413.0 192.5 410.75 207.0Q408.5 221.5 408.5 246.0Q408.5 248.5 408.5 251.25Q408.5 254.0 409.0 256.5V270.5Q409.5 280.0 409.5 288.5Q409.5 297.0 409.5 303.0Q409.5 321.5 407.5 327.5Q425.0 324.0 446.0 312.5Q459.0 306.0 477.5 296.0Q496.0 286.0 515.75 275.0Q535.5 264.0 552.75 253.75Q570.0 243.5 581.5 236.5Q593.0 229.5 595.0 227.5Q593.0 224.0 572.0 205.0Q551.0 186.0 502.5 145.5Q493.5 138.5 478.5 130.75Q463.5 123.0 446.0 116.25Q428.5 109.5 412.25 105.5Q396.0 101.5 385.0 101.5Q377.0 101.5 365.75 110.25Q354.5 119.0 342.25 132.25Q330.0 145.5 319.25 160.0Q308.5 174.5 302.0 186.25Q295.5 198.0 295.5 203.5Q295.5 205.5 295.75 208.5Q296.0 211.5 296.5 214.5V216.0Q298.0 225.0 301.25 232.25Q304.5 239.5 311.0 248.0Q317.5 256.5 329.5 270.0Q370.5 312.5 370.5 326.0Q370.5 327.5 369.5 330.5Q386.5 330.5 400.0 329.0Q398.5 325.5 396.0 319.5Q394.5 315.5 393.75 299.0Q393.0 282.5 393.0 264.5Q393.0 241.0 390.25 225.75Q387.5 210.5 380.25 198.0Q373.0 185.5 359.5 170.5Q353.5 163.5 349.75 157.5Q346.0 151.5 346.0 149.5ZM460.5 101.0H459.0Q457.0 95.5 453.5 85.0Q450.0 74.5 447.0 63.5L442.5 44.0L417.5 67.0Q406.0 76.5 400.5 81.75Q395.0 87.0 394.0 89.0Q409.0 89.0 428.75 94.75Q448.5 100.5 463.5 106.0Q463.0 104.0 460.5 101.0ZM433.0 30.0Q453.0 10.0 461.0 10.0Q465.5 10.0 465.5 15.0Q465.5 19.5 462.0 26.5Q459.0 30.5 459.0 39.0Q459.0 50.0 462.25 63.5Q465.5 77.0 470.0 85.5Q472.5 90.0 483.25 101.75Q494.0 113.5 509.75 128.5Q525.5 143.5 542.5 159.25Q559.5 175.0 575.25 188.5Q591.0 202.0 601.75 210.25Q612.5 218.5 615.0 218.5L616.5 218.0Q619.0 218.0 621.25 218.75Q623.5 219.5 624.0 222.0Q624.0 224.0 613.5 232.25Q603.0 240.5 585.25 252.25Q567.5 264.0 544.5 277.5Q517.5 292.5 500.0 302.75Q482.5 313.0 471.25 321.0Q460.0 329.0 451.5 337.0Q443.0 345.0 434.0 355.0Q420.0 371.0 408.0 386.5Q396.0 402.0 388.75 413.5Q381.5 425.0 381.5 429.0Q381.5 434.0 380.5 435.5Q379.5 437.0 377.0 437.0Q374.0 437.0 369.5 430.75Q365.0 424.5 362.0 414.5Q360.0 406.5 353.75 391.75Q347.5 377.0 341.5 366.0L328.5 335.5L228.0 338.5Q188.5 339.0 162.5 340.5Q136.5 342.0 117.5 345.25Q98.5 348.5 81.0 354.5Q63.5 360.5 41.5 370.0Q37.5 371.5 33.5 373.0Q29.5 374.5 26.5 375.5L23.5 376.5Q23.0 377.0 22.25 377.75Q21.5 378.5 20.5 378.5Q18.0 378.5 16.5 366.5Q15.0 354.5 15.0 339.0Q15.0 326.0 15.25 313.25Q15.5 300.5 16.25 291.75Q17.0 283.0 18.0 282.0L20.0 281.5Q22.5 281.5 28.75 284.75Q35.0 288.0 43.5 293.5Q61.0 306.0 86.5 313.0Q112.0 320.0 132.5 320.5L144.0 319.0L143.0 296.5Q141.5 277.5 133.5 266.5Q125.5 255.5 107.5 246.5Q100.5 243.0 94.25 238.5Q88.0 234.0 88.0 232.0Q88.0 229.0 105.75 227.5Q123.5 226.0 148.0 226.0Q175.5 226.0 192.0 227.5Q208.5 229.0 208.5 234.0Q208.5 235.5 205.5 237.75Q202.5 240.0 199.0 240.0Q194.5 240.0 186.5 243.5Q178.5 247.0 171.0 251.5Q163.5 256.0 160.5 259.0Q160.0 262.0 159.25 270.5Q158.5 279.0 158.5 288.5Q158.5 296.5 159.0 304.5Q159.5 312.5 160.5 316.5Q162.0 318.5 166.75 319.75Q171.5 321.0 184.75 321.5Q198.0 322.0 224.5 322.0H249.5Q274.5 322.0 296.5 322.25Q318.5 322.5 333.25 322.75Q348.0 323.0 351.0 324.0Q352.5 324.5 356.5 324.5Q354.5 319.5 345.5 308.75Q336.5 298.0 323.75 284.75Q311.0 271.5 297.5 258.5Q284.0 245.5 272.5 236.0Q261.0 226.5 255.0 223.5Q253.0 222.5 246.25 220.0Q239.5 217.5 232.5 215.5H231.0Q226.0 214.5 218.25 212.25Q210.5 210.0 204.5 206.75Q198.5 203.5 198.5 200.0Q198.5 195.5 207.0 191.0H163.0Q123.5 191.0 94.75 199.0Q66.0 207.0 38.0 224.0Q30.0 229.5 22.75 232.75Q15.5 236.0 13.5 236.0H12.0Q11.5 235.0 11.0 225.0Q10.5 215.0 10.25 201.0Q10.0 187.0 10.0 173.5Q10.0 159.5 10.0 148.0Q10.0 136.5 10.5 131.5L12.5 130.5Q14.0 130.5 20.0 134.75Q26.0 139.0 33.5 145.5Q44.0 156.0 53.0 162.0Q62.0 168.0 74.75 170.75Q87.5 173.5 108.25 174.25Q129.0 175.0 163.0 175.0H244.0L289.5 145.5Q309.5 132.5 326.5 120.0Q343.5 107.5 348.5 102.5Q354.0 98.0 364.75 89.0Q375.5 80.0 385.0 72.5Q395.5 64.5 409.5 52.0Q423.5 39.5 433.0 30.0ZM149.0 379.5 118.5 348.5H179.0Q205.5 348.5 220.25 350.5Q235.0 352.5 235.0 355.5Q235.0 363.5 225.0 363.5Q222.0 363.5 216.0 368.25Q210.0 373.0 203.5 379.5L188.0 393.5L190.5 441.0Q191.0 449.5 191.0 457.5Q191.0 465.5 191.0 471.5Q191.0 492.0 186.5 492.0Q183.5 492.0 180.75 481.75Q178.0 471.5 176.25 455.75Q174.5 440.0 174.5 424.5Q174.5 414.0 173.0 408.25Q171.5 402.5 166.25 396.5Q161.0 390.5 149.0 379.5Z" fill="black" /></svg>