<svg xmlns="http://www.w3.org/2000/svg" width="649.5" height="378.5" viewBox="0 0 649.5 378.5"><path d="M61.5 275.0Q53.5 271.0 46.5 268.0Q39.5 265.0 38.5 265.0Q38.0 265.0 37.5 275.0Q37.0 285.0 36.25 298.75Q35.5 312.5 35.0 325.5Q34.5 338.5 34.5 344.5V345.0Q39.5 344.0 50.75 341.0Q62.0 338.0 76.0 334.0Q93.0 328.5 108.75 324.75Q124.5 321.0 128.0 321.0Q134.0 321.0 135.0 316.0L134.5 315.0V313.0Q133.5 307.5 127.25 303.5Q121.0 299.5 109.5 294.5Q98.5 290.5 84.5 285.25Q70.5 280.0 61.5 275.0ZM178.5 310.5Q174.5 310.0 169.25 309.25Q164.0 308.5 160.0 307.5Q158.0 306.5 156.5 306.5Q155.0 306.5 154.0 306.5Q151.0 306.5 151.0 310.0Q151.0 315.0 158.0 315.0Q165.0 315.0 178.5 310.5ZM227.5 173.0H227.0Q216.5 167.0 212.5 167.0Q208.0 167.0 208.0 187.0V206.0L221.0 202.0Q227.0 200.5 231.75 199.25Q236.5 198.0 238.5 197.5Q238.0 196.5 238.0 194.0Q238.0 191.5 238.0 188.5Q238.0 177.0 227.5 173.0ZM278.0 186.5Q267.0 182.5 260.0 182.5Q255.0 183.5 255.0 184.0V185.0Q256.0 187.5 257.5 188.0Q259.0 187.5 263.5 187.5Q266.0 187.5 269.25 187.25Q272.5 187.0 276.0 186.5Q277.0 186.5 277.25 186.5Q277.5 186.5 278.0 186.5ZM305.5 300.0V249.0Q305.5 217.0 304.5 207.5Q303.5 198.0 300.5 198.0H299.0Q265.0 201.0 259.5 208.0Q258.5 210.0 257.75 217.75Q257.0 225.5 257.0 236.5Q257.0 241.0 257.0 246.5Q257.0 252.0 257.5 258.0L260.0 300.0ZM321.0 300.0H367.0V217.0Q367.0 199.5 365.5 193.75Q364.0 188.0 357.0 188.0Q354.0 188.0 350.0 188.5Q346.0 189.0 341.0 190.0Q339.5 190.0 338.0 190.25Q336.5 190.5 334.5 191.0H333.0L321.0 193.0ZM571.0 175.0Q567.5 177.0 553.25 179.25Q539.0 181.5 518.25 183.25Q497.5 185.0 473.25 186.0Q449.0 187.0 425.5 187.0H382.0V300.0H422.5Q434.5 300.0 452.0 300.5Q469.5 301.0 488.25 301.75Q507.0 302.5 522.5 304.0L579.5 307.0L576.0 228.5Q575.5 214.0 574.25 200.5Q573.0 187.0 571.0 175.0ZM164.0 34.5H164.5Q164.5 33.5 158.0 33.0Q151.5 32.5 135.5 32.5Q123.0 32.5 113.5 32.5Q104.0 32.5 104.0 33.0Q104.0 33.5 107.0 39.5Q110.0 45.5 114.0 53.0Q118.5 61.0 123.25 71.5Q128.0 82.0 130.5 89.0L133.5 96.5L136.0 86.5Q140.0 72.0 148.0 59.0Q156.0 46.0 164.0 34.5ZM257.0 62.0Q257.5 62.0 257.5 61.0Q257.5 58.5 246.5 58.5H242.5Q234.0 58.5 234.0 62.0Q234.0 64.5 235.5 70.25Q237.0 76.0 239.5 86.0L244.0 105.0L248.5 92.0Q251.0 83.0 253.5 73.75Q256.0 64.5 257.0 62.0ZM292.5 110.5Q289.5 97.5 286.25 84.75Q283.0 72.0 280.5 66.5L278.0 59.5L272.0 71.5Q268.5 79.0 264.75 94.25Q261.0 109.5 258.75 125.75Q256.5 142.0 256.5 153.0Q256.5 162.5 258.0 164.0Q259.0 165.5 267.0 167.5Q275.0 169.5 284.5 170.0L305.0 172.5L302.5 159.0Q302.0 156.5 301.5 153.5Q301.0 150.5 300.0 147.0Q298.5 139.5 297.0 130.5Q296.0 126.0 294.75 120.75Q293.5 115.5 292.5 110.5ZM321.0 58.5H308.0Q301.5 58.5 298.75 59.0Q296.0 59.5 296.0 62.0Q296.0 64.0 297.0 67.75Q298.0 71.5 299.5 77.0Q300.5 79.0 301.0 81.5Q301.5 84.0 302.0 86.5Q304.0 91.5 305.25 95.25Q306.5 99.0 307.5 101.0Q310.5 92.0 313.75 82.5Q317.0 73.0 319.0 66.0Q321.0 59.0 321.0 58.5ZM360.5 127.5 359.5 124.0Q356.0 110.0 351.75 94.0Q347.5 78.0 344.5 71.0L340.0 59.5L333.5 74.5Q330.0 83.0 326.25 100.5Q322.5 118.0 321.5 134.0L319.5 171.5H348.0Q358.0 171.5 362.25 170.25Q366.5 169.0 366.5 163.0Q366.5 153.5 360.5 127.5ZM380.0 77.0 385.5 58.5H359.5L366.0 84.5Q370.0 97.0 372.5 103.0Q372.5 102.5 372.75 102.25Q373.0 102.0 373.0 101.5Q373.5 100.0 374.0 98.5Q374.5 97.0 375.0 95.0Q376.0 91.0 377.5 86.25Q379.0 81.5 380.0 77.0ZM609.0 27.5Q609.0 27.5 598.25 27.25Q587.5 27.0 573.0 27.0H538.5L552.0 53.0Q558.0 65.0 563.25 77.75Q568.5 90.5 570.5 95.5Q573.0 102.5 574.0 102.5Q576.5 102.5 580.5 84.5Q583.0 71.5 589.75 58.5Q596.5 45.5 604.5 34.5Q606.5 31.5 607.75 29.5Q609.0 27.5 609.0 27.5ZM512.0 13.0Q512.0 10.0 520.5 10.0Q528.0 10.0 541.75 10.5Q555.5 11.0 571.5 11.75Q587.5 12.5 602.25 13.25Q617.0 14.0 627.25 14.75Q637.5 15.5 638.5 16.0L639.5 17.5Q639.5 19.5 636.0 23.75Q632.5 28.0 627.0 33.5Q613.5 47.0 605.0 63.25Q596.5 79.5 592.75 103.0Q589.0 126.5 589.0 162.0Q589.0 177.5 589.75 195.0Q590.5 212.5 591.5 233.5Q594.0 276.0 595.5 290.75Q597.0 305.5 599.5 305.5Q609.0 305.5 609.0 313.0Q609.0 316.5 605.75 318.75Q602.5 321.0 598.5 321.0Q593.5 321.0 593.5 336.5Q593.5 354.5 587.5 354.5Q587.0 354.5 584.0 353.5Q582.0 352.0 580.0 346.25Q578.0 340.5 578.0 334.5V322.5L531.0 319.5Q517.5 318.0 499.0 317.25Q480.5 316.5 462.5 316.0Q444.5 315.5 430.5 315.5H382.0V329.0Q382.0 336.0 380.5 340.5Q379.0 345.0 375.5 345.0Q375.5 345.0 374.75 344.75Q374.0 344.5 373.5 344.0Q371.5 342.0 369.25 336.75Q367.0 331.5 367.0 325.5Q367.0 319.0 363.5 317.25Q360.0 315.5 344.0 315.5Q327.0 315.5 324.0 317.5Q321.0 319.5 321.0 328.5Q321.0 335.5 318.75 341.0Q316.5 346.5 313.0 346.5Q309.5 346.5 307.5 341.0Q305.5 335.5 305.5 328.5Q305.5 319.5 302.25 317.5Q299.0 315.5 282.0 315.5Q265.0 315.5 261.75 317.5Q258.5 319.5 258.5 328.5Q258.5 335.5 256.5 341.0Q254.5 346.5 251.0 346.5Q248.5 346.5 246.0 341.0Q243.5 335.5 243.5 328.5Q243.5 323.0 243.0 319.25Q242.5 315.5 242.0 315.5Q236.0 315.5 218.25 318.75Q200.5 322.0 176.75 327.0Q153.0 332.0 128.5 337.75Q104.0 343.5 84.25 348.5Q64.5 353.5 55.0 357.0Q39.5 362.0 27.75 365.25Q16.0 368.5 13.0 368.5H12.0Q10.0 368.0 10.0 365.5Q10.0 359.0 15.0 340.0Q18.0 330.0 20.25 312.0Q22.5 294.0 22.5 279.0Q22.5 262.5 24.25 251.0Q26.0 239.5 29.0 239.5H29.5Q65.5 258.0 90.5 269.0Q115.5 280.0 124.0 283.0L135.5 285.5L132.5 212.5Q132.0 192.0 130.5 172.5Q129.0 153.0 127.5 138.25Q126.0 123.5 124.5 118.0Q121.5 108.0 115.0 93.0Q108.5 78.0 101.25 62.75Q94.0 47.5 88.25 37.25Q82.5 27.0 81.0 27.0Q75.5 27.0 75.5 22.5Q75.5 20.5 76.5 19.0Q77.5 17.5 88.0 17.0Q98.5 16.5 112.5 16.5Q129.0 16.5 147.25 17.0Q165.5 17.5 179.25 18.5Q193.0 19.5 195.0 21.0Q195.0 21.5 195.25 21.5Q195.5 21.5 195.5 22.0Q195.5 24.0 190.5 30.5Q185.5 37.0 178.5 44.5Q166.5 57.0 159.5 71.5Q152.5 86.0 149.25 107.0Q146.0 128.0 146.0 160.5Q146.0 169.5 146.25 179.75Q146.5 190.0 147.0 201.5V204.5Q148.0 226.5 149.0 245.75Q150.0 265.0 151.0 277.0Q152.0 289.0 152.5 289.5Q153.5 290.5 167.25 292.0Q181.0 293.5 200.5 294.0L243.5 296.5V255.0Q243.5 237.5 243.0 225.25Q242.5 213.0 241.5 213.0Q239.5 213.0 232.0 215.25Q224.5 217.5 215.5 220.5Q207.5 224.0 199.25 226.25Q191.0 228.5 189.5 228.5V225.5Q189.5 223.0 190.0 214.0Q190.5 205.0 191.25 193.25Q192.0 181.5 192.75 170.0Q193.5 158.5 194.0 150.5Q194.5 142.5 194.5 142.0H196.5Q199.5 142.0 208.5 146.5L213.5 148.5Q216.5 149.5 219.5 151.0Q225.0 153.5 228.75 155.25Q232.5 157.0 234.5 157.0Q237.5 157.0 237.5 151.5Q237.5 146.0 235.0 135.0Q232.5 124.0 228.0 107.0L214.5 53.5Q214.5 52.5 214.0 52.0V50.0Q214.0 45.5 220.5 43.25Q227.0 41.0 247.5 40.5Q268.0 40.0 310.0 40.0Q337.5 40.0 359.5 40.75Q381.5 41.5 394.75 42.75Q408.0 44.0 408.0 46.5Q408.0 47.5 405.0 56.0Q402.0 64.5 397.5 75.0Q392.5 85.0 388.75 102.75Q385.0 120.5 383.5 136.5L380.5 173.0L474.0 170.0Q490.0 169.0 505.5 168.75Q521.0 168.5 532.5 168.5Q563.5 168.5 571.0 171.5Q565.5 133.0 555.25 103.0Q545.0 73.0 527.5 42.5Q521.0 31.0 516.5 22.5Q512.0 14.0 512.0 13.0Z" fill="black" /></svg>