<svg xmlns="http://www.w3.org/2000/svg" width="593.0" height="425.0" viewBox="0 0 593.0 425.0"><path d="M128.5 293.5 129.0 289.5Q129.0 287.0 129.25 285.0Q129.5 283.0 129.5 282.0Q129.5 280.0 128.5 279.0Q73.0 286.0 73.0 296.5Q73.0 301.5 80.0 307.5Q84.0 311.0 89.0 312.5Q94.0 314.0 102.5 314.0Q117.5 314.0 122.0 310.0Q126.5 306.0 128.5 293.5ZM178.5 272.0Q176.0 272.0 172.0 272.0Q168.0 272.0 162.5 272.0H143.5L142.0 285.5Q141.5 288.0 141.5 290.0Q141.5 292.0 141.5 294.0Q141.5 298.0 141.0 299.5Q144.0 298.0 151.25 292.75Q158.5 287.5 166.25 281.5Q174.0 275.5 178.5 272.0ZM379.5 326.0Q379.5 321.0 377.0 321.0Q375.0 321.0 373.0 324.0Q372.5 324.5 372.25 325.0Q372.0 325.5 371.5 326.0Q374.0 326.0 375.5 326.25Q377.0 326.5 378.0 326.5Q379.0 326.5 379.25 326.25Q379.5 326.0 379.5 326.0ZM408.0 367.5Q406.0 367.5 402.75 367.0Q399.5 366.5 395.0 366.0H389.5Q388.5 365.5 386.5 365.5Q383.0 365.5 383.0 367.0Q383.0 371.0 388.0 382.5L390.0 389.5L397.5 380.0Q405.0 372.5 408.0 367.5ZM414.0 291.5 413.5 290.0Q412.5 286.5 411.0 286.5Q410.5 286.5 409.0 290.25Q407.5 294.0 407.0 296.5Q408.0 296.0 411.0 296.0H415.0L414.5 295.5Q414.5 294.5 414.25 293.75Q414.0 293.0 414.0 291.5ZM38.0 142.5Q38.0 141.5 37.75 140.75Q37.5 140.0 37.5 140.0Q36.5 140.0 34.5 142.0Q32.5 143.5 32.5 145.0Q32.5 145.0 33.25 145.25Q34.0 145.5 35.5 145.5Q38.0 145.5 38.0 142.5ZM203.5 202.0H188.5Q179.5 202.0 176.5 203.0L177.0 203.5Q177.5 204.0 178.0 205.25Q178.5 206.5 179.0 208.0Q180.0 210.0 181.5 214.0Q183.0 218.0 184.5 222.0L188.5 233.0L195.5 221.0Q196.5 218.5 199.75 211.25Q203.0 204.0 203.5 202.0ZM132.0 112.5 113.5 103.5V103.0Q91.5 89.5 81.5 89.5Q77.5 89.5 75.5 93.0Q74.5 97.0 74.5 98.5Q74.5 108.5 97.0 119.5Q104.0 125.0 111.0 128.5Q112.5 129.0 114.0 130.0Q115.5 131.0 116.5 132.0Q119.0 130.0 124.0 123.0ZM180.5 150.0 178.0 147.0Q174.5 143.0 168.25 136.25Q162.0 129.5 157.0 124.0L148.0 113.0L138.5 125.0Q134.5 131.0 131.25 135.75Q128.0 140.5 128.0 141.5Q128.0 141.5 131.25 141.75Q134.5 142.0 139.0 142.0Q145.5 142.0 154.75 143.25Q164.0 144.5 171.5 147.0ZM289.0 163.0Q288.5 162.0 283.5 161.75Q278.5 161.5 273.5 161.5Q267.5 161.5 263.5 160.5Q264.5 164.0 269.25 173.75Q274.0 183.5 277.5 189.5Q280.0 182.0 283.5 175.0Q288.0 168.0 289.0 163.0ZM441.0 270.0H449.5Q449.5 268.5 446.5 263.5Q446.0 263.0 445.75 262.5Q445.5 262.0 445.5 262.0L445.0 263.0Q444.5 263.5 444.0 264.5Q443.5 265.5 442.5 266.5Q442.0 267.0 441.75 268.25Q441.5 269.5 441.0 270.0ZM468.0 183.5Q464.0 183.5 458.25 183.25Q452.5 183.0 447.0 183.0Q438.5 183.0 433.5 182.0Q436.0 186.0 446.0 197.0L456.5 209.0L457.5 204.0Q458.5 199.0 461.5 193.5Q464.5 188.0 467.0 184.5Q467.5 184.0 467.5 184.0Q467.5 184.0 468.0 183.5ZM280.0 65.0Q280.0 64.0 271.5 64.0H264.5L266.5 68.0Q267.0 68.5 267.5 69.5Q268.0 70.5 268.5 71.5L269.5 73.0Q272.5 76.5 273.0 77.0L276.0 73.5Q280.0 68.5 280.0 65.0ZM327.0 71.5Q329.0 69.0 329.0 66.0H323.5Q317.5 66.0 317.5 66.5Q317.5 69.0 319.5 71.5Q322.0 78.5 323.5 79.0Q324.5 78.0 327.0 71.5ZM390.5 135.5Q390.0 132.0 389.75 130.5Q389.5 129.0 389.5 129.0Q388.5 129.0 383.0 135.5L379.5 142.0H384.5Q391.5 142.0 391.5 140.5Q391.5 140.0 391.25 139.25Q391.0 138.5 391.0 138.0Q391.0 137.5 390.75 136.75Q390.5 136.0 390.5 135.5ZM434.0 99.5V99.0Q434.0 98.5 433.75 97.75Q433.5 97.0 433.5 96.0Q433.5 95.5 433.25 94.75Q433.0 94.0 433.0 93.0Q432.5 91.5 431.5 87.5Q431.0 86.5 430.75 85.75Q430.5 85.0 430.5 85.0Q430.0 85.5 426.0 91.5L424.0 93.5Q421.5 96.5 419.75 98.5Q418.0 100.5 418.0 101.5H426.0Q432.0 101.5 434.0 99.5ZM500.0 155.0Q499.0 153.0 489.25 146.75Q479.5 140.5 466.25 133.25Q453.0 126.0 440.75 120.5Q428.5 115.0 422.5 114.5Q410.5 115.0 406.5 117.25Q402.5 119.5 402.5 126.5Q402.5 137.5 408.5 144.25Q414.5 151.0 428.5 160.0Q444.5 170.0 453.5 170.5Q454.5 170.0 458.25 169.75Q462.0 169.5 463.0 169.5Q476.0 167.0 487.75 162.75Q499.5 158.5 500.0 155.0ZM480.5 58.5 479.5 56.5Q479.0 54.0 478.75 51.25Q478.5 48.5 478.5 45.0Q475.5 47.0 469.5 54.0Q463.5 61.0 462.5 64.0Q463.5 63.5 466.25 63.5Q469.0 63.5 472.5 63.5Q480.5 63.5 481.0 61.0L480.5 60.5ZM521.5 97.5Q501.5 85.0 487.75 79.75Q474.0 74.5 461.5 74.5Q459.0 74.5 455.5 74.75Q452.0 75.0 449.0 75.5Q444.0 78.0 444.0 83.5Q444.0 92.0 451.0 101.0Q452.5 105.0 461.25 112.25Q470.0 119.5 481.25 127.25Q492.5 135.0 501.75 140.25Q511.0 145.5 514.0 145.5Q516.0 145.5 522.5 142.0Q529.0 138.5 536.5 133.75Q544.0 129.0 549.5 125.0Q555.0 121.0 555.0 120.0Q555.0 119.0 544.75 112.25Q534.5 105.5 521.5 97.5ZM476.0 26.5V25.5Q481.0 19.0 485.75 14.5Q490.5 10.0 491.0 10.0Q494.5 10.0 494.5 15.0Q494.5 16.5 494.5 19.0Q494.5 21.5 494.0 24.0Q494.0 27.5 493.5 28.5Q493.5 30.0 493.25 31.25Q493.0 32.5 493.0 34.0L490.0 55.5L504.0 67.5Q510.5 73.5 521.75 82.25Q533.0 91.0 544.0 96.5Q564.5 109.0 570.0 109.0Q571.0 109.0 572.0 108.0Q574.0 107.5 576.0 106.5Q578.0 105.5 578.5 105.5Q583.0 105.5 583.0 110.0V111.0Q583.0 111.5 582.75 111.75Q582.5 112.0 582.5 112.5Q582.0 115.5 569.25 125.25Q556.5 135.0 539.5 146.5Q514.5 162.5 500.25 173.25Q486.0 184.0 479.25 191.75Q472.5 199.5 470.5 207.0V208.5Q469.0 216.5 469.0 221.5V223.0Q469.0 223.5 469.25 224.25Q469.5 225.0 469.5 225.5Q469.5 228.0 468.75 230.5Q468.0 233.0 464.5 233.0Q461.0 233.0 453.0 225.25Q445.0 217.5 435.0 204.0Q426.5 193.5 419.5 185.75Q412.5 178.0 411.5 177.5L402.0 182.0Q391.0 187.0 376.0 193.75Q361.0 200.5 347.25 207.0Q333.5 213.5 324.25 217.75Q315.0 222.0 315.0 222.0Q315.0 222.5 320.0 225.5Q325.0 228.5 331.5 232.5Q338.5 236.5 351.5 245.0Q364.5 253.5 375.5 260.5L401.0 277.0L407.5 270.5Q415.5 263.5 419.5 263.5L421.5 264.5Q421.5 266.5 422.0 268.5Q422.0 271.5 423.0 277.5Q425.5 286.0 436.0 297.0Q446.5 308.0 459.25 315.75Q472.0 323.5 481.0 323.5Q484.5 323.5 489.0 321.25Q493.5 319.0 498.0 315.5L503.5 310.5L479.0 298.0Q466.5 291.0 456.25 286.75Q446.0 282.5 440.0 282.5Q433.5 282.5 428.25 280.5Q423.0 278.5 423.0 276.5Q423.0 274.5 426.75 268.75Q430.5 263.0 436.0 256.5Q441.5 250.0 446.0 245.25Q450.5 240.5 452.0 240.5Q454.5 240.5 456.25 243.75Q458.0 247.0 458.0 252.0Q458.0 258.0 464.75 266.5Q471.5 275.0 481.25 283.25Q491.0 291.5 500.5 297.0Q510.0 302.5 516.0 302.5Q520.0 302.5 526.0 298.0Q537.0 294.0 540.0 294.0Q545.0 294.0 545.0 297.5Q545.0 302.0 538.0 307.5Q535.5 309.0 534.25 310.25Q533.0 311.5 532.5 312.5L534.0 314.0Q538.5 317.0 538.5 320.5Q538.5 326.0 532.0 326.0Q528.5 326.0 525.5 324.5L524.0 324.0Q521.5 322.0 517.5 322.0Q515.5 322.0 512.0 323.0Q508.5 324.0 504.0 327.0L493.0 332.5Q493.0 332.5 493.5 332.75Q494.0 333.0 494.5 333.5L495.5 334.0Q503.0 339.0 503.0 344.5Q503.0 349.5 496.5 349.5Q495.5 349.5 493.0 348.75Q490.5 348.0 488.0 347.5L485.5 346.5Q480.5 343.0 476.5 343.0Q474.5 343.0 471.5 344.5Q468.5 346.0 463.0 348.5L459.5 350.5Q457.5 351.5 455.75 352.75Q454.0 354.0 452.5 355.0Q445.0 359.0 445.0 360.0Q447.0 362.0 456.5 365.5Q469.5 371.0 469.5 376.5Q469.5 381.5 461.5 381.5Q459.5 381.5 454.5 379.25Q449.5 377.0 443.5 374.5L442.0 373.0Q438.5 371.5 436.25 370.25Q434.0 369.0 432.5 369.0Q431.0 369.0 428.75 370.0Q426.5 371.0 424.0 372.0Q420.5 375.0 414.25 382.0Q408.0 389.0 403.5 396.0Q399.5 403.5 395.0 409.25Q390.5 415.0 389.5 415.0Q388.0 415.0 384.25 406.0Q380.5 397.0 376.25 385.0Q372.0 373.0 369.0 362.5Q366.0 352.0 366.0 349.0Q366.0 344.5 370.0 344.5Q372.0 344.5 375.0 345.5Q378.0 346.5 380.0 349.0Q384.0 351.0 391.5 352.75Q399.0 354.5 405.0 354.5Q408.5 354.5 409.5 354.0Q406.0 351.0 397.75 347.0Q389.5 343.0 381.0 340.25Q372.5 337.5 367.5 337.5Q362.5 337.5 358.0 335.25Q353.5 333.0 353.5 332.5Q353.5 330.5 357.5 324.75Q361.5 319.0 367.0 312.25Q372.5 305.5 377.25 300.75Q382.0 296.0 383.0 296.0Q385.5 296.0 386.75 299.25Q388.0 302.5 388.0 306.5Q388.0 315.5 397.0 326.0Q406.0 336.5 417.5 343.5L432.5 352.0L448.0 342.5Q453.0 339.5 456.75 336.5Q460.5 333.5 461.5 332.5Q458.5 328.0 448.75 323.0Q439.0 318.0 428.0 313.75Q417.0 309.5 409.0 309.0Q398.0 307.0 393.75 305.25Q389.5 303.5 389.5 298.5Q389.5 297.0 390.5 293.0L391.5 290.0Q392.0 290.0 392.0 289.0Q392.0 287.5 387.5 284.0Q383.0 280.5 370.5 272.25Q358.0 264.0 333.5 248.5L327.5 245.0Q314.0 236.5 307.5 233.0Q301.0 229.5 297.0 229.5Q294.5 229.5 292.5 231.5Q289.5 232.5 288.0 234.25Q286.5 236.0 286.0 242.0Q285.5 248.0 285.5 262.0V312.0Q285.5 328.0 284.75 334.0Q284.0 340.0 281.5 340.0Q278.5 340.0 277.0 334.5H276.5Q275.0 331.5 274.0 315.5Q273.0 299.5 273.0 281.0V238.5Q272.5 238.5 261.5 243.75Q250.5 249.0 236.5 256.5L203.0 273.0L202.5 325.0Q202.5 352.5 200.25 367.25Q198.0 382.0 195.0 382.0Q189.0 382.0 189.0 329.0Q189.0 303.5 188.5 293.0Q188.0 282.5 187.0 282.5Q184.5 282.5 176.25 288.5Q168.0 294.5 159.5 302.0Q151.0 309.5 146.5 314.5Q143.0 319.0 134.25 321.25Q125.5 323.5 111.0 326.0Q97.5 327.5 89.75 330.25Q82.0 333.0 78.0 337.0Q71.0 343.0 68.0 343.0Q64.0 343.0 62.5 338.0Q61.5 334.5 60.25 322.0Q59.0 309.5 58.25 294.25Q57.5 279.0 57.5 268.5Q57.5 252.0 61.5 252.0Q63.0 252.0 66.75 255.0Q70.5 258.0 73.5 262.0Q77.5 266.5 82.0 268.25Q86.5 270.0 97.0 270.0Q115.0 270.0 122.5 267.75Q130.0 265.5 131.5 260.5Q133.5 252.5 137.0 252.5Q140.0 252.5 143.5 256.0Q145.0 257.0 150.25 257.75Q155.5 258.5 162.0 258.5H167.0Q182.0 257.0 182.0 254.5V253.0Q181.0 247.5 174.75 230.75Q168.5 214.0 160.0 197.0V196.5Q160.0 192.5 166.5 190.75Q173.0 189.0 191.5 189.0Q210.5 189.0 217.0 190.75Q223.5 192.5 223.5 196.5Q223.5 199.5 222.0 202.75Q220.5 206.0 218.0 207.5Q215.5 209.5 211.25 217.25Q207.0 225.0 204.0 233.75Q201.0 242.5 201.0 248.0Q201.0 253.0 202.5 253.0Q205.0 253.0 215.25 249.25Q225.5 245.5 238.0 240.5Q250.5 235.5 260.5 231.25Q270.5 227.0 272.5 226.0Q272.0 225.0 271.75 223.25Q271.5 221.5 271.0 219.5L270.5 216.5Q268.5 212.0 262.25 206.0Q256.0 200.0 241.5 192.0Q211.0 174.5 182.0 164.5Q153.0 154.5 131.5 153.5Q117.5 153.5 111.5 152.0Q105.5 150.5 105.5 146.5V145.5L106.0 144.5V143.5Q106.0 141.0 100.25 137.0Q94.5 133.0 86.5 128.75Q78.5 124.5 71.25 121.5Q64.0 118.5 61.0 118.5Q54.5 118.5 52.75 126.5Q51.0 134.5 51.0 140.0Q51.0 144.5 54.0 147.0Q57.0 149.5 63.5 154.5L71.5 159.5Q77.0 163.0 81.5 165.5Q86.0 168.0 87.0 168.0Q91.5 170.0 91.5 173.0Q91.5 178.5 87.0 178.5Q82.5 178.5 70.5 172.0Q68.5 171.0 66.25 170.0Q64.0 169.0 61.5 168.0Q52.0 162.5 46.5 160.75Q41.0 159.0 36.5 159.0Q34.5 159.0 31.75 159.25Q29.0 159.5 26.5 160.0Q23.5 161.0 22.0 161.0Q20.0 161.5 18.5 161.75Q17.0 162.0 16.0 162.0Q10.0 162.0 10.0 158.0Q10.0 153.0 22.5 137.5Q27.5 131.5 30.0 126.75Q32.5 122.0 32.5 121.5Q32.5 119.5 38.25 110.75Q44.0 102.0 53.0 90.0Q62.0 78.0 71.25 66.75Q80.5 55.5 87.75 47.75Q95.0 40.0 97.5 40.0Q101.5 40.0 101.5 46.0Q101.5 48.0 101.0 50.75Q100.5 53.5 99.5 56.5Q97.5 62.0 97.5 67.5Q97.5 79.5 118.0 90.0Q132.5 98.0 138.0 103.5Q140.0 102.5 142.0 100.5Q145.5 97.0 149.0 97.0Q152.5 97.0 156.5 101.25Q160.5 105.5 168.0 115.5Q175.0 124.0 187.75 135.5Q200.5 147.0 214.75 158.0Q229.0 169.0 241.5 177.25Q254.0 185.5 260.0 187.5Q259.5 182.5 255.0 173.0Q251.5 166.0 249.25 159.75Q247.0 153.5 247.0 153.0Q247.0 150.5 251.25 150.25Q255.5 150.0 261.0 150.0L270.0 151.5L268.5 124.5Q268.0 108.0 265.5 98.25Q263.0 88.5 257.5 79.0Q253.5 72.0 250.5 65.0Q247.5 58.0 247.5 57.5Q248.5 55.0 263.25 54.0Q278.0 53.0 295.5 53.0Q308.5 53.0 320.75 53.25Q333.0 53.5 341.25 54.25Q349.5 55.0 350.5 56.5V58.5Q350.5 60.0 348.25 64.5Q346.0 69.0 342.0 73.0Q338.5 78.0 336.75 82.5Q335.0 87.0 334.5 96.0Q334.0 105.0 334.0 124.5Q334.0 144.5 332.25 157.0Q330.5 169.5 327.0 169.5Q323.5 169.5 322.25 159.25Q321.0 149.0 321.0 133.5Q321.0 113.5 319.25 104.25Q317.5 95.0 310.5 84.0L309.5 82.0Q306.0 75.0 303.0 70.5Q300.0 66.0 298.5 65.5Q290.5 70.5 286.0 82.5Q281.5 94.5 281.5 103.5Q281.5 107.0 281.5 111.25Q281.5 115.5 282.0 120.5L284.0 151.0L293.5 150.0H298.0Q306.5 150.0 306.5 155.5Q306.5 158.5 304.5 162.75Q302.5 167.0 298.5 175.5Q294.0 182.5 292.0 189.0Q290.0 195.5 290.0 200.0Q290.0 207.0 295.5 210.0Q296.5 211.0 298.5 211.0Q303.0 211.0 312.25 207.5Q321.5 204.0 338.5 195.5Q350.5 190.0 362.5 184.75Q374.5 179.5 382.5 176.0Q386.5 175.0 394.75 171.5Q403.0 168.0 404.5 165.0Q404.0 164.0 403.0 162.25Q402.0 160.5 399.5 159.5Q394.5 154.5 385.5 154.5Q383.0 154.5 381.5 155.0H378.0Q374.5 155.5 371.25 155.75Q368.0 156.0 366.0 156.0Q358.0 156.0 358.0 152.5Q358.0 151.0 362.5 144.5Q367.0 138.0 373.5 129.25Q380.0 120.5 386.0 113.5Q392.0 106.5 395.0 104.5Q397.5 103.0 404.75 94.75Q412.0 86.5 420.0 77.0Q429.5 66.0 436.5 59.75Q443.5 53.5 446.5 53.5Q450.5 53.5 450.5 57.5Q459.0 48.0 476.0 26.5ZM84.0 74.0 85.0 73.5H84.0L84.5 75.0Q84.0 75.0 84.0 75.25Q84.0 75.5 83.0 75.5Q82.0 75.5 82.0 75.0Q82.0 74.0 82.5 74.0Q83.0 72.5 83.5 71.0Q84.0 69.5 84.0 69.5Q82.0 69.5 82.0 70.5Q82.0 70.5 82.0 70.75Q82.0 71.0 82.5 72.0Q84.0 73.5 84.0 74.0ZM69.0 276.0 70.5 277.5V278.0L70.0 278.5Q69.5 279.0 69.0 279.5Q68.5 280.0 67.5 281.0H69.5V280.0Q69.5 280.0 69.5 279.75Q69.5 279.5 69.5 279.0V275.5ZM74.5 319.5 75.0 320.0Q75.0 320.5 74.25 321.75Q73.5 323.0 72.5 324.5H74.0V323.5Q73.0 323.5 73.0 322.5Q73.0 319.5 74.5 319.5Z" fill="black" /></svg>