<svg xmlns="http://www.w3.org/2000/svg" width="493.5" height="383.0" viewBox="0 0 493.5 383.0"><path d="M95.5 308.5V296.0Q91.0 294.5 80.5 290.25Q70.0 286.0 57.5 281.0Q46.0 275.5 39.0 271.75Q32.0 268.0 32.0 268.0Q31.5 269.5 31.5 272.5Q31.5 274.5 31.5 276.0Q31.5 277.5 32.0 279.5V289.0Q32.0 292.0 32.0 295.5Q32.0 299.0 31.5 303.0L30.0 330.5ZM126.0 302.0 110.0 299.5V305.5ZM412.5 289.5V163.0Q412.5 158.0 412.25 153.5Q412.0 149.0 411.0 144.5Q405.0 124.0 396.5 102.5L396.0 101.5Q394.0 96.0 392.75 91.0Q391.5 86.0 389.0 80.5Q337.5 81.0 284.25 81.25Q231.0 81.5 179.5 81.5Q178.5 82.0 175.0 82.0Q170.5 82.0 165.5 82.5Q160.5 83.0 156.5 84.0Q151.0 86.0 147.0 86.5Q144.5 87.0 142.0 87.75Q139.5 88.5 137.0 89.0Q135.0 90.0 132.0 90.75Q129.0 91.5 126.5 92.5Q116.0 118.0 112.75 144.75Q109.5 171.5 109.5 199.0V231.0Q110.0 239.0 110.0 246.75Q110.0 254.5 110.0 262.0V283.5Q116.5 285.0 124.0 286.25Q131.5 287.5 143.75 288.25Q156.0 289.0 176.0 289.5H307.0Q320.0 289.5 332.5 289.5Q345.0 289.5 357.5 289.0H408.5Q411.5 289.0 412.5 289.5ZM53.5 53.0 35.5 43.0Q35.5 47.0 36.0 49.0V56.5Q36.5 60.5 36.5 65.0Q36.5 69.5 36.5 75.0Q36.5 80.0 36.25 86.0Q36.0 92.0 35.5 98.5Q35.5 101.5 35.0 103.0Q35.0 105.0 34.5 106.5L69.0 95.0L52.0 59.5Q51.5 58.0 51.5 56.5Q51.5 53.5 53.5 53.0ZM114.5 80.5 117.0 74.0Q110.0 73.0 96.75 72.0Q83.5 71.0 76.0 70.5L84.5 90.0ZM100.0 133.5 109.5 96.5 89.5 103.5ZM432.0 32.5H416.5Q405.5 32.5 394.5 30.0Q393.0 30.0 391.25 29.75Q389.5 29.5 388.5 29.5Q386.5 29.0 385.0 28.75Q383.5 28.5 382.0 28.5L380.5 29.5Q381.5 31.5 385.0 38.5L385.5 39.5Q389.0 44.5 393.0 53.25Q397.0 62.0 402.0 74.0L419.0 116.5Q425.5 95.0 434.5 72.25Q443.5 49.5 457.5 31.5H453.5Q451.0 31.5 448.0 31.5Q445.0 31.5 441.5 32.0Q439.5 32.0 437.0 32.0Q434.5 32.0 432.0 32.5ZM364.0 10.0Q372.0 10.5 379.0 11.25Q386.0 12.0 392.5 13.0Q409.0 15.5 425.25 16.25Q441.5 17.0 457.5 17.0Q461.0 16.5 464.5 16.5Q468.0 16.5 470.0 16.5Q480.0 16.5 481.75 18.5Q483.5 20.5 483.5 24.5L465.0 50.0Q461.5 55.5 456.25 67.25Q451.0 79.0 445.5 94.0Q440.0 109.0 435.75 124.25Q431.5 139.5 430.0 151.5L427.5 339.0V363.0Q427.5 373.0 420.0 373.0Q412.5 373.0 412.5 363.0V303.5Q412.0 303.5 410.75 303.5Q409.5 303.5 408.5 303.5H360.0Q352.5 303.5 343.25 303.5Q334.0 303.5 324.0 304.0H269.5Q239.5 304.0 214.5 305.0Q189.5 306.0 164.5 309.5Q139.5 313.0 110.0 320.0V345.5Q110.0 349.5 107.75 351.5Q105.5 353.5 103.0 353.5Q95.5 353.5 95.5 345.5V324.5Q89.0 326.0 76.5 330.25Q64.0 334.5 49.5 340.0Q35.0 345.5 22.5 352.0L21.5 352.5Q18.5 353.5 17.5 353.5Q12.0 353.5 11.0 348.75Q10.0 344.0 10.0 340.5L14.5 281.0V248.5Q14.5 244.0 19.5 243.0Q25.0 244.0 29.5 247.0L30.5 247.5Q43.5 256.0 57.0 263.0Q70.5 270.0 85.0 275.5L87.5 276.5Q89.5 277.0 91.5 278.0Q92.5 278.0 93.5 278.25Q94.5 278.5 95.5 279.0V227.5Q96.0 225.0 96.0 222.25Q96.0 219.5 96.0 217.0Q96.0 195.5 94.25 181.25Q92.5 167.0 89.0 153.5Q85.5 140.0 79.0 120.5Q78.0 118.0 76.75 115.5Q75.5 113.0 74.5 109.5Q69.5 111.0 61.25 113.75Q53.0 116.5 45.25 119.5Q37.5 122.5 34.0 125.0Q31.0 126.5 27.5 126.5Q23.5 126.5 20.25 124.5Q17.0 122.5 16.5 118.5V117.0Q16.5 115.0 16.5 112.5Q16.5 110.0 17.0 107.0Q17.0 106.0 17.25 104.5Q17.5 103.0 17.5 101.5Q18.5 93.0 19.0 82.0Q19.5 71.0 19.5 58.5Q19.5 53.5 19.5 48.75Q19.5 44.0 19.0 39.0Q18.5 36.0 18.5 33.25Q18.5 30.5 18.5 28.5Q18.5 20.5 20.5 18.75Q22.5 17.0 26.0 17.0Q29.5 17.0 31.0 18.25Q32.5 19.5 34.0 21.5Q35.0 23.5 37.0 25.0Q47.0 34.5 59.75 40.0Q72.5 45.5 85.0 50.0Q86.0 50.5 100.5 54.25Q115.0 58.0 146.75 61.5Q178.5 65.0 229.5 65.0Q238.0 65.0 247.5 65.0Q257.0 65.0 266.5 64.5H382.5Q376.0 49.0 372.0 43.0Q368.0 37.0 365.0 33.5Q363.0 31.0 361.0 28.0Q359.0 25.0 356.5 20.5Q356.5 17.0 357.75 13.5Q359.0 10.0 364.0 10.0ZM132.5 76.5V76.0L133.5 76.5Z" fill="black" /></svg>