<svg xmlns="http://www.w3.org/2000/svg" width="407.5" height="459.0" viewBox="0 0 407.5 459.0"><path d="M74.0 334.0Q69.0 324.5 64.5 322.5Q58.5 324.0 44.5 354.5L34.5 376.5L42.5 375.0Q44.5 375.0 46.5 374.0H48.0Q64.0 370.5 86.5 369.0L108.5 366.5L98.5 359.0Q92.0 354.0 84.25 346.0Q76.5 338.0 74.0 334.0ZM103.0 241.5 107.0 239.5 116.0 232.5 103.0 217.5 99.5 230.5Q99.0 235.0 98.75 238.75Q98.5 242.5 98.5 245.5Q100.0 244.5 103.0 241.5ZM235.5 247.0Q235.5 240.0 236.25 232.5Q237.0 225.0 237.5 218.0Q232.5 223.0 227.5 228.0Q222.5 233.0 218.0 238.5L196.5 262.5L218.0 270.0Q225.0 272.0 232.0 273.75Q239.0 275.5 243.0 276.5Q242.5 275.0 241.5 273.0Q240.5 271.0 239.0 268.5Q237.0 265.0 236.25 259.25Q235.5 253.5 235.5 247.0ZM67.0 89.0Q67.0 88.5 67.0 88.25Q67.0 88.0 67.0 88.0Q67.0 86.0 53.5 86.0H39.5L46.0 106.5Q49.0 115.0 50.75 121.25Q52.5 127.5 52.5 127.5Q53.5 125.5 54.75 122.0Q56.0 118.5 57.5 114.0Q59.5 108.5 61.75 101.0Q64.0 93.5 67.0 89.0ZM67.0 89.0 66.5 90.0Q66.5 90.0 66.75 89.75Q67.0 89.5 67.0 89.0ZM150.0 83.5Q147.5 81.5 144.25 76.25Q141.0 71.0 137.0 65.5Q136.0 62.0 134.5 60.5L128.5 48.0L122.0 67.5Q119.0 75.0 116.75 81.5Q114.5 88.0 113.5 92.5Q115.5 92.0 117.5 91.75Q119.5 91.5 121.5 91.0L124.0 90.0Q126.5 89.5 129.25 89.25Q132.0 89.0 135.0 88.5Q141.0 86.5 145.0 85.25Q149.0 84.0 150.0 83.5ZM324.0 145.5 337.5 119.5H311.0Q291.5 119.5 286.5 120.25Q281.5 121.0 281.5 125.0Q281.5 132.0 285.0 135.5Q287.5 136.5 291.75 145.75Q296.0 155.0 299.0 165.5Q303.0 177.0 305.5 184.75Q308.0 192.5 309.0 195.0Q309.0 194.0 309.0 193.25Q309.0 192.5 309.0 191.0Q309.0 185.5 313.5 172.5Q318.0 159.5 324.0 145.5ZM120.0 29.5Q127.5 10.0 134.5 10.0Q140.0 10.0 140.0 23.5Q140.5 33.0 145.25 44.25Q150.0 55.5 157.25 64.75Q164.5 74.0 172.0 77.5Q186.0 83.5 203.25 89.75Q220.5 96.0 235.25 100.25Q250.0 104.5 255.5 105.0L256.0 104.5Q258.5 103.5 270.25 103.25Q282.0 103.0 298.0 103.0Q313.0 103.0 328.0 103.5Q343.0 104.0 353.5 105.0Q364.0 106.0 365.5 108.0V109.5Q365.5 111.5 363.25 115.75Q361.0 120.0 357.5 124.5Q353.5 128.5 346.5 138.75Q339.5 149.0 335.5 160.0Q329.0 171.0 326.0 181.5Q323.0 192.0 322.0 208.5Q321.0 225.0 320.0 255.0L318.0 325.0L335.5 339.0Q363.0 358.5 380.25 374.25Q397.5 390.0 397.5 394.5V395.0Q397.0 397.0 395.75 397.5Q394.5 398.0 393.5 398.0Q390.5 398.0 380.5 392.25Q370.5 386.5 360.0 377.0L353.0 371.0Q340.5 361.0 333.25 355.5Q326.0 350.0 323.5 350.0Q320.5 350.0 320.5 361.0Q320.5 364.5 320.75 369.0Q321.0 373.5 321.5 379.0V386.0L322.5 395.0Q323.5 407.0 324.0 416.0Q324.5 425.0 324.5 430.5Q324.5 441.5 322.5 445.25Q320.5 449.0 317.0 449.0Q316.5 449.0 315.25 448.5Q314.0 448.0 313.0 447.5Q257.0 424.5 217.75 410.25Q178.5 396.0 149.75 389.5Q121.0 383.0 97.0 383.0Q79.0 383.0 61.25 386.5Q43.5 390.0 24.5 395.0Q23.0 395.5 21.25 396.0Q19.5 396.5 18.5 396.5Q16.0 397.0 14.25 397.25Q12.5 397.5 11.0 397.5L10.0 394.5Q10.0 392.0 15.25 379.25Q20.5 366.5 27.0 350.5L47.5 310.5L49.5 246.5Q49.5 209.5 45.5 170.75Q41.5 132.0 25.5 98.0Q21.5 91.0 18.75 84.0Q16.0 77.0 16.0 76.0Q16.0 75.0 26.75 73.0Q37.5 71.0 52.0 71.0Q68.0 71.0 78.25 72.5Q88.5 74.0 88.5 77.0Q88.5 78.5 85.75 86.75Q83.0 95.0 78.5 103.5Q75.0 112.0 72.25 122.75Q69.5 133.5 68.25 151.5Q67.0 169.5 66.0 200.0L64.0 277.0L79.5 306.0Q85.5 317.5 93.75 329.75Q102.0 342.0 107.5 347.0Q116.0 352.5 139.0 363.0Q162.0 373.5 196.0 386.75Q230.0 400.0 271.5 414.5L309.0 427.0V407.0Q309.0 397.0 308.0 382.25Q307.0 367.5 306.0 357.0L303.0 334.5L265.5 311.5Q250.5 302.5 231.75 293.75Q213.0 285.0 203.0 281.5L196.5 280.0Q179.5 275.0 172.25 272.25Q165.0 269.5 165.0 266.0Q165.0 263.0 167.5 261.0Q170.0 259.0 174.0 256.5L176.5 255.0Q191.5 246.5 191.5 244.5Q191.5 242.5 185.5 241.5Q179.5 240.5 169.5 239.5H167.0Q157.5 238.0 152.0 238.0Q136.5 238.0 123.5 247.25Q110.5 256.5 102.5 268.5Q98.5 272.0 94.75 275.25Q91.0 278.5 88.5 278.5Q87.0 278.5 85.0 277.5Q84.5 276.5 84.0 272.75Q83.5 269.0 83.5 264.5Q83.5 254.5 84.75 239.5Q86.0 224.5 87.75 209.5Q89.5 194.5 91.5 184.25Q93.5 174.0 94.5 174.0Q97.0 174.0 100.5 179.25Q104.0 184.5 106.5 193.0Q110.5 203.5 117.25 209.5Q124.0 215.5 136.25 218.5Q148.5 221.5 169.0 224.0L207.0 227.5L221.0 210.0Q227.5 203.5 234.25 193.5Q241.0 183.5 243.5 177.0Q247.0 170.0 250.5 167.0Q254.0 164.0 256.0 164.0Q261.5 164.0 261.5 173.0Q261.5 175.5 261.0 179.75Q260.5 184.0 259.5 188.5Q256.0 201.0 253.5 216.5Q251.0 232.0 251.0 244.5Q251.0 256.0 253.5 262.5Q255.5 267.0 263.75 277.75Q272.0 288.5 282.0 298.5L302.0 318.0L303.0 282.0V276.5Q303.0 244.0 297.0 214.75Q291.0 185.5 275.0 150.0Q271.0 139.5 267.0 134.75Q263.0 130.0 252.75 125.5Q242.5 121.0 219.5 112.5Q198.0 104.0 186.5 100.75Q175.0 97.5 166.5 97.5Q160.5 97.5 149.75 100.25Q139.0 103.0 128.25 106.25Q117.5 109.5 111.5 112.0Q105.5 115.0 99.0 117.25Q92.5 119.5 90.0 119.5Q86.5 119.5 86.5 115.5Q86.5 113.0 90.0 103.0Q93.5 93.0 98.5 81.0Q105.0 66.5 111.25 51.5Q117.5 36.5 120.0 29.5Z" fill="black" /></svg>