<svg xmlns="http://www.w3.org/2000/svg" width="466.0" height="389.0" viewBox="0 0 466.0 389.0"><path d="M112.5 336.0Q103.5 335.5 90.5 332.0Q77.5 328.5 66.5 325.0L44.0 317.5L41.5 335.5V339.5Q41.0 344.5 41.0 349.0Q41.0 353.5 41.0 356.0Q52.5 355.0 68.5 350.5Q80.5 347.0 94.25 344.0Q108.0 341.0 115.5 340.5Q121.5 339.5 124.5 339.0Q127.5 338.5 127.5 338.5Q125.5 338.0 121.75 337.25Q118.0 336.5 112.5 336.0ZM125.5 266.5Q125.0 264.5 122.5 261.0Q120.0 257.5 117.5 255.0L115.0 252.0Q114.0 253.5 113.5 258.5Q113.0 260.0 112.75 262.0Q112.5 264.0 111.5 266.5Q109.5 274.0 108.5 283.0Q113.5 282.0 121.25 279.75Q129.0 277.5 134.5 275.5Q129.0 274.0 125.5 266.5ZM78.5 95.0Q76.0 93.5 69.0 92.75Q62.0 92.0 54.5 91.5Q47.0 91.0 43.5 91.0H39.5Q39.5 92.5 40.75 95.0Q42.0 97.5 44.0 101.0L44.5 102.0Q47.0 106.0 50.75 114.25Q54.5 122.5 56.5 129.0L59.0 134.5L60.5 129.5Q63.5 123.0 67.75 115.0Q72.0 107.0 75.5 102.0Q77.5 98.5 78.5 95.0ZM150.0 146.5Q139.0 143.0 127.5 137.5Q127.5 138.0 127.5 138.25Q127.5 138.5 127.5 139.0Q128.0 139.5 128.0 140.5Q128.0 141.5 128.0 142.0Q129.0 146.0 129.75 150.75Q130.5 155.5 131.0 158.5Q132.0 158.0 133.75 157.0Q135.5 156.0 137.5 155.0L139.0 154.0Q141.0 153.0 142.75 151.5Q144.5 150.0 146.0 149.5Q150.0 147.0 150.0 146.5ZM156.5 175.5 149.0 166.0 140.5 170.5 139.0 212.5V235.0Q139.0 250.0 140.5 253.75Q142.0 257.5 146.5 260.5Q149.5 262.5 156.0 265.25Q162.5 268.0 168.0 269.0L177.5 270.5V242.5Q177.5 220.5 173.0 206.75Q168.5 193.0 156.5 175.5ZM190.5 178.0H190.0Q190.0 177.0 188.25 177.0Q186.5 177.0 184.5 177.0Q177.0 177.0 177.0 177.5Q177.0 181.0 181.5 188.0Q181.5 188.5 181.75 188.75Q182.0 189.0 182.0 190.0L187.0 185.0Q190.5 179.5 190.5 178.0ZM156.5 62.0Q153.5 62.0 147.75 59.25Q142.0 56.5 136.5 51.5L131.0 46.5L129.5 63.0Q128.0 73.5 128.0 84.0Q132.5 82.5 139.5 78.0Q146.5 73.5 152.25 68.75Q158.0 64.0 158.0 62.5Q158.0 62.0 156.5 62.0ZM278.5 124.0V123.0Q278.5 121.5 279.5 120.5V120.0H273.5Q264.0 120.0 262.5 122.5H263.0Q264.0 124.0 266.0 125.5Q269.0 127.5 271.0 131.0Q273.0 134.5 273.5 138.0Q273.5 139.0 273.0 140.0Q273.0 140.5 272.75 141.0Q272.5 141.5 272.5 142.0V146.0Q273.5 144.5 274.0 141.0L274.5 139.5Q275.5 137.0 276.25 133.75Q277.0 130.5 277.5 128.0Q278.0 127.0 278.0 125.75Q278.0 124.5 278.5 124.0ZM346.0 58.5H307.0Q307.0 60.5 309.25 68.25Q311.5 76.0 314.5 85.5Q317.5 95.0 321.0 103.5Q324.5 112.0 326.5 116.0Q326.5 106.5 329.5 97.75Q332.5 89.0 336.0 80.5Q340.0 73.0 343.0 66.25Q346.0 59.5 346.0 58.5ZM114.5 67.5Q116.0 37.5 118.5 23.75Q121.0 10.0 125.0 10.0Q129.0 10.0 132.5 20.5Q139.5 38.5 154.5 44.5Q169.5 50.5 188.0 50.5Q196.5 50.5 208.0 50.0Q219.5 49.5 232.0 48.5Q243.5 47.5 255.0 46.75Q266.5 46.0 277.5 46.0Q280.0 48.0 280.0 51.0Q280.0 55.5 268.75 57.75Q257.5 60.0 229.0 63.0Q204.5 64.5 188.0 68.75Q171.5 73.0 159.25 80.75Q147.0 88.5 134.5 101.5Q124.0 111.5 124.0 112.5Q124.0 113.5 125.5 115.0Q127.0 116.5 128.0 117.5Q136.0 125.5 147.0 129.5Q158.0 133.5 176.5 133.5Q180.0 133.5 190.25 133.0Q200.5 132.5 212.75 131.75Q225.0 131.0 235.0 130.0Q245.0 129.0 248.5 128.0Q247.5 124.0 246.5 123.0Q244.5 118.5 244.5 114.0Q244.5 108.5 251.25 107.0Q258.0 105.5 275.0 105.5H304.5L293.0 132.5L282.5 152.0L285.5 224.0Q287.0 247.0 287.0 270.0Q287.0 282.5 285.25 290.0Q283.5 297.5 281.0 297.5H280.5Q277.0 296.0 274.75 278.0Q272.5 260.0 271.5 236.0Q271.0 210.0 268.25 190.75Q265.5 171.5 262.0 161.0L256.0 144.5L223.0 145.5Q202.0 146.5 190.25 149.0Q178.5 151.5 163.5 158.5L157.5 161.5L183.0 164.5Q196.5 165.5 207.0 167.25Q217.5 169.0 219.0 171.5Q219.0 171.5 215.0 177.25Q211.0 183.0 206.0 188.5Q200.0 194.0 197.25 198.5Q194.5 203.0 193.25 211.0Q192.0 219.0 191.0 234.5Q191.0 237.5 191.0 240.5Q191.0 243.5 190.5 246.0Q190.5 248.5 190.25 250.75Q190.0 253.0 190.0 255.5Q190.0 271.0 191.5 272.5Q192.5 274.5 203.75 277.25Q215.0 280.0 229.5 283.0Q245.5 285.0 257.0 289.75Q268.5 294.5 268.5 296.5Q268.5 299.5 267.25 301.0Q266.0 302.5 261.0 302.5Q256.5 302.5 244.5 300.25Q232.5 298.0 210.5 293.0Q181.0 286.5 161.5 286.5Q149.0 286.5 138.0 289.5Q127.0 292.5 111.0 300.0Q98.0 304.0 94.0 304.0Q89.0 304.0 89.0 300.0Q89.0 297.0 92.25 285.0Q95.5 273.0 99.75 258.75Q104.0 244.5 107.5 234.0Q111.0 223.5 112.0 223.5Q114.0 223.5 117.0 226.75Q120.0 230.0 122.0 233.5Q122.0 229.5 122.25 225.0Q122.5 220.5 123.0 216.5V207.0Q123.0 197.0 122.75 190.25Q122.5 183.5 121.5 181.5Q117.5 176.0 115.5 155.5Q113.5 135.0 113.5 107.5Q113.5 98.0 113.75 88.0Q114.0 78.0 114.5 67.5ZM284.5 46.0Q284.5 41.0 290.0 41.0Q293.0 41.0 297.5 42.5Q301.0 43.5 312.25 44.0Q323.5 44.5 335.5 44.5H343.5Q354.5 44.5 361.5 46.25Q368.5 48.0 368.5 51.0Q368.5 53.0 365.5 59.0Q362.5 65.0 358.0 71.0Q351.5 81.0 347.25 91.0Q343.0 101.0 340.75 116.75Q338.5 132.5 337.75 158.25Q337.0 184.0 337.0 225.5V327.0H393.5Q423.0 327.0 439.5 329.0Q456.0 331.0 456.0 334.0Q456.0 337.5 440.25 339.5Q424.5 341.5 396.5 341.5Q336.5 341.5 292.5 342.0Q248.5 342.5 217.0 343.75Q185.5 345.0 164.0 347.25Q142.5 349.5 127.5 352.5Q88.0 360.5 63.75 366.5Q39.5 372.5 35.5 376.0Q33.5 378.0 31.5 378.5Q29.5 379.0 28.0 379.0Q22.0 379.0 22.0 372.0Q22.0 365.5 25.0 355.0Q27.5 342.5 27.5 328.0V321.0Q27.0 318.0 26.75 315.0Q26.5 312.0 26.5 310.5Q26.5 303.5 28.5 300.75Q30.5 298.0 34.5 298.0Q37.0 298.0 40.25 299.0Q43.5 300.0 47.5 301.5Q51.0 303.5 54.5 305.25Q58.0 307.0 59.5 307.5Q59.0 305.0 58.75 298.25Q58.5 291.5 58.5 281.0Q58.5 272.5 58.5 262.0Q58.5 251.5 57.5 239.0Q57.0 214.0 56.0 198.5Q55.0 183.0 53.5 173.0Q52.0 163.0 49.75 155.0Q47.5 147.0 43.5 136.5Q38.5 125.0 32.75 112.25Q27.0 99.5 23.5 93.0L10.0 73.5L58.0 77.5Q75.0 78.0 88.75 79.5Q102.5 81.0 103.5 82.5V84.0Q103.5 85.5 100.75 90.25Q98.0 95.0 94.0 100.5Q87.5 108.5 83.25 114.75Q79.0 121.0 76.75 128.75Q74.5 136.5 73.75 149.25Q73.0 162.0 73.0 184.0V222.5Q73.5 245.0 74.0 264.75Q74.5 284.5 75.0 297.5Q75.5 310.5 76.0 313.0Q78.5 314.0 86.75 316.0Q95.0 318.0 106.0 320.5Q117.0 323.0 132.25 324.5Q147.5 326.0 171.0 326.5Q194.5 327.0 230.5 327.0H323.5L322.0 241.0Q321.5 212.0 321.0 193.5Q320.5 175.0 319.25 162.25Q318.0 149.5 315.75 139.25Q313.5 129.0 309.5 117.0Q306.0 102.5 300.5 87.75Q295.0 73.0 292.0 67.0L289.5 61.5Q287.5 57.0 286.0 52.25Q284.5 47.5 284.5 46.0Z" fill="black" /></svg>