<svg xmlns="http://www.w3.org/2000/svg" width="541.5" height="465.0" viewBox="0 0 541.5 465.0"><path d="M207.5 240.0 206.0 239.5H205.0Q203.0 237.5 199.75 236.25Q196.5 235.0 191.5 233.0Q187.0 230.5 181.0 227.25Q175.0 224.0 169.0 221.5L147.0 211.5L145.0 237.5Q144.0 246.5 143.5 254.0Q143.0 261.5 143.0 266.5Q146.0 265.5 152.0 263.25Q158.0 261.0 165.5 257.0L170.0 255.5Q173.0 254.0 176.25 252.75Q179.5 251.5 183.0 250.0Q188.5 247.5 194.25 245.5Q200.0 243.5 203.5 242.0Q204.0 242.0 206.5 241.0Q209.0 240.0 209.0 240.0Q208.5 240.0 208.25 240.0Q208.0 240.0 207.5 240.0ZM74.0 116.0Q72.0 116.0 66.75 115.5Q61.5 115.0 54.5 113.5H50.5Q48.5 113.0 46.25 113.0Q44.0 113.0 42.5 113.0Q39.0 113.0 39.0 114.0Q39.0 118.5 47.0 139.5L54.5 160.0L64.0 140.5Q67.5 132.5 70.25 125.75Q73.0 119.0 74.0 116.0ZM163.5 63.5Q163.0 55.0 162.25 49.25Q161.5 43.5 161.5 43.5Q159.5 43.5 151.75 48.0Q144.0 52.5 134.75 59.0Q125.5 65.5 119.0 71.25Q112.5 77.0 112.5 79.5Q112.5 81.5 121.0 81.5Q124.0 81.5 134.5 84.25Q145.0 87.0 155.5 92.5L164.5 96.0Q167.0 97.5 168.75 98.25Q170.5 99.0 171.5 99.5Q171.5 99.0 170.5 97.0Q168.5 93.5 166.75 83.25Q165.0 73.0 163.5 63.5ZM380.0 89.5 381.5 88.5Q383.5 85.5 385.5 82.25Q387.5 79.0 388.0 77.0Q383.5 78.0 372.5 84.5Q361.5 91.0 349.0 99.5Q336.5 108.0 327.75 115.25Q319.0 122.5 319.0 125.5Q319.0 127.5 327.0 129.25Q335.0 131.0 348.5 133.5L371.5 136.5V121.5Q371.5 113.5 374.0 104.0Q376.5 94.5 380.0 89.5ZM118.0 390.0Q122.5 383.0 126.25 376.5Q130.0 370.0 132.0 365.5Q125.5 367.5 111.5 370.0Q101.5 373.5 88.25 375.5Q75.0 377.5 67.0 377.5H54.5L76.0 398.5Q85.0 407.5 92.0 414.0Q99.0 420.5 100.5 421.5Q101.5 420.0 106.5 411.0Q111.5 402.0 118.0 390.0ZM398.0 286.0H398.5Q403.0 281.0 403.5 278.0Q400.0 280.0 392.0 286.0Q384.0 292.0 375.0 300.0L371.5 302.5Q362.0 310.5 355.75 315.5Q349.5 320.5 347.5 321.5L348.5 322.5L354.5 323.0Q358.0 323.5 362.0 324.0Q366.0 324.5 371.0 325.0Q382.5 326.5 387.5 326.5Q392.0 326.5 392.0 321.5Q392.0 312.5 393.75 303.5Q395.5 294.5 398.0 286.0ZM138.0 36.0 177.0 10.0 178.5 47.5Q180.0 60.5 183.25 73.5Q186.5 86.5 189.0 90.5Q190.5 93.5 200.5 104.75Q210.5 116.0 226.25 131.5Q242.0 147.0 259.0 164.0L322.0 224.5L376.0 221.0Q397.0 220.0 415.5 218.0Q434.0 216.0 440.0 215.5H441.0Q442.0 215.0 443.5 215.0Q445.0 215.0 445.5 215.0Q453.5 215.0 453.5 223.5Q453.5 227.0 452.0 231.75Q450.5 236.5 446.5 240.5Q440.5 245.5 434.25 256.0Q428.0 266.5 423.0 279.25Q418.0 292.0 414.75 304.0Q411.5 316.0 411.5 324.0Q411.5 328.5 413.0 328.5Q417.5 328.5 419.25 331.5Q421.0 334.5 421.0 338.0Q421.0 341.0 431.75 348.5Q442.5 356.0 457.0 364.5Q476.0 374.5 491.5 384.75Q507.0 395.0 516.25 403.0Q525.5 411.0 525.5 415.0Q525.5 418.0 523.5 419.5H521.5Q518.0 419.5 508.25 414.25Q498.5 409.0 488.0 401.5Q463.5 385.0 436.0 370.75Q408.5 356.5 385.0 347.75Q361.5 339.0 348.5 339.0Q330.0 339.0 321.0 337.25Q312.0 335.5 312.0 330.0Q312.0 326.0 318.75 320.25Q325.5 314.5 337.5 306.0Q359.0 291.0 377.75 276.25Q396.5 261.5 408.5 250.25Q420.5 239.0 420.5 236.0Q420.5 236.0 415.75 235.75Q411.0 235.5 402.5 235.5Q377.5 235.5 361.0 238.75Q344.5 242.0 329.5 249.75Q314.5 257.5 293.5 271.0Q289.0 273.5 284.0 276.5Q279.0 279.5 274.5 283.0Q256.0 294.0 238.0 305.0Q220.0 316.0 210.0 321.5Q192.5 333.0 173.0 351.75Q153.5 370.5 137.75 391.25Q122.0 412.0 114.5 430.0Q110.0 442.5 105.0 448.75Q100.0 455.0 97.0 455.0Q91.0 455.0 91.0 445.0Q91.0 442.5 80.5 430.75Q70.0 419.0 56.5 405.0Q41.0 390.0 30.5 377.5Q20.0 365.0 20.0 362.5Q20.0 357.0 29.5 357.0Q30.5 357.0 32.75 357.25Q35.0 357.5 37.0 358.0Q39.0 358.0 40.5 358.5L53.0 361.0V288.5Q53.0 258.5 51.5 236.25Q50.0 214.0 46.5 196.25Q43.0 178.5 36.75 162.25Q30.5 146.0 21.0 128.0Q16.5 118.0 13.25 109.5Q10.0 101.0 10.0 98.5L10.5 95.0Q11.5 95.0 26.5 95.25Q41.5 95.5 60.0 96.5L110.5 99.5L94.5 120.5Q87.0 131.5 82.25 142.5Q77.5 153.5 74.75 168.75Q72.0 184.0 71.0 207.5Q70.0 231.0 70.0 266.5Q70.0 317.5 71.0 337.5Q72.0 357.5 74.0 358.5Q75.5 359.0 77.25 359.5Q79.0 360.0 81.0 360.0Q92.5 360.0 114.0 351.5Q135.5 343.0 161.75 329.25Q188.0 315.5 214.0 300.25Q240.0 285.0 261.5 271.0Q283.0 257.0 294.0 248.0L302.5 241.5L284.0 241.0Q270.0 241.5 249.25 246.25Q228.5 251.0 205.25 259.75Q182.0 268.5 159.5 280.5Q156.0 281.5 153.0 283.25Q150.0 285.0 147.0 286.0Q130.0 295.0 125.0 295.0Q122.0 295.0 121.5 292.5V291.0Q121.5 286.0 123.0 274.0Q125.5 259.0 127.5 243.0Q129.5 227.0 129.5 212.0Q129.5 198.0 130.5 189.0Q131.5 180.0 134.5 180.0Q140.0 180.0 153.5 192.5Q170.5 208.5 193.75 216.25Q217.0 224.0 252.0 224.0Q267.0 224.0 278.0 223.25Q289.0 222.5 292.5 222.0Q263.5 192.5 236.25 167.75Q209.0 143.0 177.25 124.0Q145.5 105.0 103.0 93.0Q90.0 89.0 83.0 85.75Q76.0 82.5 76.0 77.5Q76.0 71.5 92.5 65.0Q98.0 63.0 111.75 54.0Q125.5 45.0 138.0 36.0ZM421.0 26.0Q423.5 22.0 427.25 19.75Q431.0 17.5 433.0 16.5Q435.5 16.5 436.0 18.0V16.5Q440.5 21.0 440.5 25.0Q440.5 34.0 426.5 51.5Q421.0 57.0 414.25 67.0Q407.5 77.0 401.5 87.75Q395.5 98.5 391.5 107.5Q387.5 116.5 387.5 120.0Q387.5 133.0 406.75 149.75Q426.0 166.5 457.5 183.0Q461.0 184.5 472.75 190.75Q484.5 197.0 498.0 205.25Q511.5 213.5 521.5 221.0Q531.5 228.5 531.5 233.0Q531.5 237.5 525.5 237.5Q522.0 237.5 514.25 234.25Q506.5 231.0 497.0 224.5Q474.5 209.5 446.25 194.75Q418.0 180.0 389.25 168.0Q360.5 156.0 336.25 148.75Q312.0 141.5 297.5 141.5Q266.5 141.5 266.5 131.5Q266.5 125.5 280.0 120.5Q288.0 117.5 304.0 108.25Q320.0 99.0 339.25 86.75Q358.5 74.5 376.75 62.0Q395.0 49.5 407.25 39.75Q419.5 30.0 421.0 26.0Z" fill="black" /></svg>