<svg xmlns="http://www.w3.org/2000/svg" width="444.5" height="469.5" viewBox="0 0 444.5 469.5"><path d="M60.0 119.0Q60.0 118.5 46.0 118.5H34.5L46.0 148.5L47.0 145.5Q49.5 138.5 52.5 131.75Q55.5 125.0 58.0 124.0Q58.5 123.0 59.25 121.25Q60.0 119.5 60.0 119.0ZM149.5 232.0Q149.5 231.0 142.0 227.25Q134.5 223.5 124.5 220.0L105.5 209.5V249.0L126.0 241.0Q135.0 237.5 142.25 235.0Q149.5 232.5 149.5 232.0ZM132.0 60.5Q125.0 60.5 115.25 56.75Q105.5 53.0 98.5 50.5L84.0 43.0V70.0Q84.0 72.0 84.5 74.25Q85.0 76.5 85.5 76.5Q88.0 76.5 93.75 74.75Q99.5 73.0 108.0 70.5L116.5 67.0Q122.0 65.0 126.0 63.25Q130.0 61.5 132.0 60.5ZM219.0 151.0 210.5 136.5Q205.5 127.0 203.25 121.25Q201.0 115.5 201.0 115.5Q199.5 118.0 195.25 125.5Q191.0 133.0 187.0 140.5Q183.0 148.0 182.0 150.5Q183.5 150.0 185.5 149.75Q187.5 149.5 190.0 149.5Q192.5 149.5 195.75 149.5Q199.0 149.5 201.0 150.5ZM392.5 76.5 402.0 55.5H381.0Q370.5 55.5 362.5 56.25Q354.5 57.0 353.5 58.5V60.5Q353.5 65.5 355.75 76.25Q358.0 87.0 361.0 99.0Q365.0 111.5 368.0 120.75Q371.0 130.0 373.0 135.5Q374.0 132.5 374.5 130.5Q376.5 121.0 381.25 105.5Q386.0 90.0 392.5 76.5ZM105.0 397.0Q101.5 394.5 93.0 389.5Q84.5 384.5 74.5 379.5Q64.5 374.5 55.75 370.25Q47.0 366.0 43.5 365.0V393.0Q43.5 421.5 46.5 421.5Q48.5 421.5 51.75 419.25Q55.0 417.0 58.5 414.0Q62.0 411.5 70.25 408.75Q78.5 406.0 87.0 403.5Q98.0 400.0 105.0 397.0ZM207.0 305.0Q200.5 304.0 193.5 302.25Q186.5 300.5 182.0 299.0L181.5 298.5Q182.5 301.0 184.0 304.5Q185.5 308.0 187.5 313.5Q189.5 317.0 190.75 321.0Q192.0 325.0 192.5 328.0Q196.0 335.5 196.5 335.5Q197.0 335.5 201.5 330.0Q206.0 324.5 210.75 317.75Q215.5 311.0 217.0 308.0Q216.0 307.5 213.0 306.5Q210.0 305.5 207.0 305.0ZM30.0 333.5Q37.0 333.5 45.75 338.75Q54.5 344.0 59.5 348.0Q70.5 357.0 79.75 362.75Q89.0 368.5 100.75 371.75Q112.5 375.0 130.25 376.5Q148.0 378.0 175.5 378.5Q203.0 379.0 244.0 379.0Q278.0 379.0 306.25 380.0Q334.5 381.0 352.25 382.75Q370.0 384.5 372.0 386.5Q370.5 367.5 369.75 345.5Q369.0 323.5 369.0 302.0V239.0H359.5Q361.0 240.5 361.0 243.0V244.0Q361.0 244.5 360.75 245.0Q360.5 245.5 360.5 246.5Q359.5 251.0 342.75 259.25Q326.0 267.5 304.5 276.5Q277.0 287.5 260.0 297.25Q243.0 307.0 232.0 318.0Q221.0 329.0 211.0 345.5Q205.5 354.5 199.5 360.75Q193.5 367.0 190.0 367.0L187.5 365.5Q185.5 363.5 181.5 354.5Q177.5 345.5 173.0 332.75Q168.5 320.0 164.5 307.25Q160.5 294.5 157.75 285.0Q155.0 275.5 155.0 273.0V270.0L159.0 268.5Q161.0 268.5 165.5 270.25Q170.0 272.0 175.5 274.0Q178.0 275.0 180.5 275.75Q183.0 276.5 186.0 277.5Q199.5 287.0 212.5 287.0Q224.0 287.0 242.75 279.75Q261.5 272.5 293.0 260.0Q312.5 251.5 325.0 246.5Q337.5 241.5 344.5 239.0H283.0Q248.5 239.0 225.0 240.0Q201.5 241.0 183.75 244.25Q166.0 247.5 149.5 253.0Q133.0 258.5 112.0 267.5Q102.5 271.0 96.0 273.25Q89.5 275.5 88.0 275.5Q83.0 275.5 83.0 263.5Q83.0 255.0 83.75 241.5Q84.5 228.0 85.75 214.0Q87.0 200.0 88.5 190.0Q90.0 180.0 91.0 179.5L93.5 178.5Q95.5 178.5 100.5 180.75Q105.5 183.0 110.5 188.5Q122.5 199.5 138.25 206.0Q154.0 212.5 180.25 215.25Q206.5 218.0 249.5 219.0H285.5Q304.0 219.0 316.5 219.5Q329.0 220.0 332.5 220.5Q330.5 219.0 317.25 211.75Q304.0 204.5 285.5 195.0Q265.0 183.5 252.5 178.0Q240.0 172.5 228.25 170.5Q216.5 168.5 198.0 168.0Q179.5 168.0 164.0 167.75Q148.5 167.5 148.5 167.5Q148.5 165.5 154.5 156.75Q160.5 148.0 169.5 135.75Q178.5 123.5 187.5 111.75Q196.5 100.0 203.25 92.0Q210.0 84.0 211.0 84.0Q213.5 84.0 217.25 91.25Q221.0 98.5 222.5 108.5Q223.5 116.5 227.75 125.25Q232.0 134.0 236.5 139.5Q240.5 143.0 253.5 151.5Q266.5 160.0 284.0 170.75Q301.5 181.5 319.0 191.75Q336.5 202.0 350.0 209.5Q363.5 217.0 368.5 219.5Q368.5 207.5 365.25 189.0Q362.0 170.5 357.0 150.25Q352.0 130.0 346.25 112.0Q340.5 94.0 336.0 83.0L328.0 66.0H256.5Q228.5 66.0 209.0 67.0Q189.5 68.0 175.25 70.0Q161.0 72.0 148.0 75.5Q111.5 87.5 97.75 93.5Q84.0 99.5 84.0 104.5Q84.0 109.0 80.5 117.75Q77.0 126.5 72.5 136.5Q68.5 142.5 66.25 149.25Q64.0 156.0 62.75 167.25Q61.5 178.5 61.0 196.5Q60.5 214.5 59.5 243.0V255.5Q58.5 301.5 57.5 319.5Q56.5 337.5 52.0 337.5Q48.5 337.5 46.5 333.0Q46.0 332.5 46.0 332.0Q46.0 331.5 45.5 331.0L44.5 329.0H44.0Q43.0 325.5 42.0 313.75Q41.0 302.0 40.5 285.75Q40.0 269.5 40.0 252.0Q39.5 229.5 38.25 213.25Q37.0 197.0 34.0 182.5Q31.0 168.0 25.25 152.0Q19.5 136.0 10.5 114.5Q10.0 112.5 10.0 111.0Q10.0 109.5 10.0 108.0Q10.0 102.0 15.75 100.5Q21.5 99.0 39.5 99.0Q45.0 99.0 49.5 99.0Q54.0 99.0 57.0 99.5H65.0Q64.5 97.5 64.25 93.75Q64.0 90.0 64.0 84.5Q64.0 78.5 64.25 70.75Q64.5 63.0 65.0 55.0Q65.0 36.0 68.0 23.0Q71.0 10.0 74.5 10.0Q80.0 10.0 82.0 12.75Q84.0 15.5 84.0 19.0Q84.0 19.5 90.25 23.75Q96.5 28.0 104.0 33.5Q111.5 37.0 118.5 39.25Q125.5 41.5 137.25 42.75Q149.0 44.0 170.0 44.75Q191.0 45.5 226.0 46.0Q245.0 46.5 259.0 46.5Q273.0 46.5 284.0 46.5Q303.0 46.5 311.0 46.0Q319.0 45.5 320.0 44.5V43.5Q320.0 36.5 331.5 35.0Q343.0 33.5 376.5 33.5Q381.5 33.5 386.75 33.5Q392.0 33.5 397.0 34.0Q414.0 34.0 424.25 35.25Q434.5 36.5 434.5 41.5Q434.5 41.5 431.0 48.0Q427.5 54.5 422.0 63.0Q413.0 77.5 407.0 89.0Q401.0 100.5 397.75 114.75Q394.5 129.0 392.75 150.75Q391.0 172.5 390.5 207.0Q390.0 241.5 390.0 293.5Q390.0 339.5 389.5 377.25Q389.0 415.0 387.5 437.25Q386.0 459.5 383.0 459.5Q380.0 459.5 377.0 439.0Q374.0 418.5 372.0 387.5Q370.0 391.0 351.5 394.0Q333.0 397.0 306.5 397.0Q292.5 397.0 277.0 397.0Q261.5 397.0 246.0 397.5Q209.0 397.5 179.75 399.75Q150.5 402.0 122.5 410.0Q94.5 418.0 62.0 435.0Q57.0 437.0 53.25 439.0Q49.5 441.0 45.5 442.5Q40.5 445.0 36.5 447.0Q32.5 449.0 31.0 449.0Q28.0 449.0 26.75 438.75Q25.5 428.5 25.5 413.5Q25.5 399.0 25.75 382.75Q26.0 366.5 27.0 353.25Q28.0 340.0 29.0 335.5Q29.0 334.0 30.0 333.5Z" fill="black" /></svg>