<svg xmlns="http://www.w3.org/2000/svg" width="423.0" height="315.5" viewBox="0 0 423.0 315.5"><path d="M30.5 76.5Q33.5 76.5 41.75 74.25Q50.0 72.0 57.75 69.25Q65.5 66.5 66.0 66.0Q65.0 65.0 57.5 62.5Q55.0 60.5 51.25 59.0Q47.5 57.5 45.0 56.0L28.5 48.0V62.0Q28.5 70.0 28.75 73.25Q29.0 76.5 30.5 76.5ZM68.5 157.0Q68.0 157.0 67.75 156.75Q67.5 156.5 67.0 156.5Q63.0 154.5 57.5 152.5Q52.0 150.5 48.0 148.5L33.0 140.5V173.0L46.5 163.5Q50.5 161.5 57.0 159.75Q63.5 158.0 68.5 157.0ZM134.5 249.5 137.5 250.0Q110.5 244.5 84.25 238.0Q58.0 231.5 32.0 222.5Q30.5 222.0 29.0 222.0L29.5 223.0Q31.5 227.5 32.25 237.0Q33.0 246.5 33.0 256.5V276.0L43.0 270.5Q50.0 268.0 67.0 263.5Q84.0 259.0 98.0 256.5Q113.0 254.0 123.75 251.75Q134.5 249.5 134.5 249.5ZM213.5 149.5Q208.5 147.5 204.5 146.0Q200.5 144.5 196.5 143.0Q193.5 142.0 191.25 141.25Q189.0 140.5 187.0 139.5Q184.0 138.5 183.5 138.0V156.5Q183.5 166.0 184.0 169.75Q184.5 173.5 185.5 173.5Q187.5 173.5 189.0 172.5H192.5L198.5 170.0Q207.0 168.0 218.0 164.5Q220.5 163.5 224.0 162.75Q227.5 162.0 231.0 161.5Q236.5 159.5 243.0 158.5Q242.5 158.0 241.75 158.0Q241.0 158.0 240.0 157.5Q233.5 156.0 226.25 154.0Q219.0 152.0 213.5 149.5ZM247.0 59.0 226.0 54.5Q218.0 52.5 210.5 49.5Q203.0 46.5 198.0 44.5L193.0 42.5Q192.0 41.5 190.5 41.5Q189.5 41.5 188.75 45.25Q188.0 49.0 188.0 59.0Q188.0 78.0 191.0 78.0Q192.5 78.0 196.0 74.5Q198.0 73.0 206.75 69.75Q215.5 66.5 226.0 64.5ZM171.0 53.5 170.0 35.0V28.5Q169.5 27.0 169.5 25.25Q169.5 23.5 169.5 22.5Q169.5 17.0 170.25 13.5Q171.0 10.0 174.5 10.0Q174.5 10.0 180.75 13.5Q187.0 17.0 194.5 22.5Q210.0 32.0 225.75 38.25Q241.5 44.5 261.5 47.25Q281.5 50.0 310.0 50.0H326.5Q330.5 50.0 335.25 50.0Q340.0 50.0 344.5 49.5H356.5Q387.5 49.5 400.25 51.75Q413.0 54.0 413.0 60.5Q413.0 63.0 392.25 65.25Q371.5 67.5 343.0 68.0Q287.0 68.5 247.75 75.75Q208.5 83.0 193.0 96.0Q186.5 101.0 182.0 104.25Q177.5 107.5 175.0 107.5Q170.0 107.5 170.0 100.5Q170.0 99.5 170.0 97.75Q170.0 96.0 170.5 94.5Q171.5 90.5 172.25 86.0Q173.0 81.5 173.0 78.0Q173.0 74.5 168.75 72.75Q164.5 71.0 159.5 70.5Q154.5 70.0 152.0 70.0Q146.5 70.0 132.75 71.25Q119.0 72.5 101.5 75.0Q84.0 77.5 67.75 82.0Q51.5 86.5 40.75 93.0Q30.0 99.5 30.0 108.5Q30.0 120.5 62.0 136.5Q73.0 143.0 83.25 145.25Q93.5 147.5 113.5 147.5Q116.0 147.5 118.75 147.5Q121.5 147.5 124.5 147.0H138.5L169.5 146.0L169.0 133.0Q168.5 129.0 168.25 125.75Q168.0 122.5 168.0 120.5Q168.0 110.0 174.5 110.0Q176.5 110.0 179.75 112.25Q183.0 114.5 188.0 118.5L189.0 119.0Q204.0 130.0 220.5 136.5Q237.0 143.0 262.25 146.0Q287.5 149.0 328.0 150.0Q350.0 150.5 368.25 151.75Q386.5 153.0 397.25 154.75Q408.0 156.5 408.0 159.0Q408.0 160.5 396.75 162.25Q385.5 164.0 367.0 165.5Q348.5 167.0 325.5 168.0Q282.5 169.0 255.5 172.5Q228.5 176.0 212.5 182.0Q196.5 188.0 186.0 198.0L183.5 199.5Q176.5 208.0 173.5 208.0Q168.0 208.0 168.0 196.5Q168.0 193.5 168.25 188.75Q168.5 184.0 169.0 179.0L169.5 161.5H148.0Q139.0 161.5 122.25 163.0Q105.5 164.5 86.75 168.0Q68.0 171.5 53.0 178.0Q38.0 184.5 33.0 194.5Q31.0 197.5 31.0 199.0Q31.0 202.5 41.0 207.25Q51.0 212.0 64.5 216.75Q78.0 221.5 89.25 225.0Q100.5 228.5 103.5 229.5Q117.0 233.0 130.0 235.0Q143.0 237.0 160.5 238.5Q178.0 240.0 203.75 240.75Q229.5 241.5 267.5 242.5Q301.0 242.5 329.5 243.75Q358.0 245.0 375.5 246.75Q393.0 248.5 393.0 250.5Q393.0 252.5 375.0 254.5Q357.0 256.5 328.0 258.0Q299.0 259.5 265.5 260.0Q193.5 261.5 146.25 265.75Q99.0 270.0 71.75 277.5Q44.5 285.0 32.5 297.5Q24.5 305.5 17.5 305.5Q10.0 305.5 10.0 298.5Q10.0 296.0 11.0 293.75Q12.0 291.5 12.5 288.5Q15.5 284.5 16.25 276.25Q17.0 268.0 17.0 258.0Q17.0 247.0 16.25 236.5Q15.5 226.0 12.5 218.0V216.0Q12.0 212.5 11.25 209.25Q10.5 206.0 10.5 204.0Q10.5 201.0 11.5 198.25Q12.5 195.5 13.5 193.5Q16.5 187.5 16.5 155.0Q16.5 148.0 16.25 141.0Q16.0 134.0 15.5 126.0Q15.5 120.5 15.25 115.0Q15.0 109.5 15.0 103.5Q14.0 86.0 13.25 71.5Q12.5 57.0 12.5 47.5Q12.5 15.5 20.5 15.5Q23.0 15.5 25.75 18.5Q28.5 21.5 31.0 26.0Q39.0 34.5 51.75 41.5Q64.5 48.5 78.5 52.75Q92.5 57.0 103.5 57.0Q109.0 57.0 115.5 56.75Q122.0 56.5 129.5 56.0Z" fill="black" /></svg>