<svg xmlns="http://www.w3.org/2000/svg" width="750.5" height="390.0" viewBox="0 0 750.5 390.0"><path d="M65.5 255.0Q60.5 250.0 56.5 246.5Q52.5 243.0 52.5 243.0Q52.0 245.0 50.25 250.25Q48.5 255.5 46.0 261.5Q44.0 266.5 41.75 271.75Q39.5 277.0 38.5 281.5Q36.5 286.5 35.5 290.0L35.0 290.5Q35.0 291.0 34.75 291.25Q34.5 291.5 34.5 292.0Q37.0 291.0 40.5 290.5Q42.5 290.5 43.5 290.0H48.5Q55.5 289.0 65.75 287.75Q76.0 286.5 85.5 286.0Q97.0 285.0 104.75 284.5Q112.5 284.0 112.5 284.0Q110.0 282.0 98.5 277.0Q91.5 274.0 82.0 267.25Q72.5 260.5 65.5 255.0ZM136.5 141.5Q134.5 142.5 131.0 142.5H125.0Q125.0 143.0 126.0 145.0Q127.0 147.0 128.0 149.5L129.0 150.5Q130.0 151.0 130.5 151.75Q131.0 152.5 131.5 153.5Q131.5 152.0 132.5 150.0Q135.5 145.5 136.5 141.5ZM164.5 230.5Q163.0 228.0 160.75 225.75Q158.5 223.5 158.5 223.5Q158.0 224.0 156.75 226.5Q155.5 229.0 153.5 233.0L150.0 239.5H157.0Q169.0 239.5 169.0 237.5Q169.0 236.0 164.5 230.5ZM187.0 188.0 186.0 186.5V186.0Q183.5 182.0 182.0 181.5Q181.5 182.0 179.0 189.0Q177.5 191.0 177.0 193.0Q176.5 195.0 176.0 196.5Q177.0 196.5 179.0 195.5Q180.0 195.5 181.0 195.25Q182.0 195.0 183.0 195.0Q185.5 194.0 187.75 193.25Q190.0 192.5 190.0 192.5Q190.0 191.0 187.0 188.0ZM207.5 139.0Q206.5 135.0 205.0 135.0Q204.0 135.0 202.75 138.0Q201.5 141.0 201.0 143.5Q202.0 143.0 205.0 143.0Q206.5 143.0 207.5 143.0Q208.5 143.0 209.0 143.0Q208.5 142.0 208.5 141.0Q208.5 140.0 207.5 139.0ZM284.0 179.5 258.5 169.0H258.0Q246.5 163.5 234.5 160.75Q222.5 158.0 211.0 158.0Q206.5 158.0 202.25 158.5Q198.0 159.0 194.0 160.0L191.0 161.5Q192.0 171.5 203.0 180.75Q214.0 190.0 229.25 197.25Q244.5 204.5 259.5 209.25Q274.5 214.0 282.5 215.5Q285.5 214.5 285.5 208.5Q285.5 206.0 285.0 204.5V198.5ZM331.0 283.5Q329.0 282.5 325.5 281.5Q322.0 280.5 318.0 279.0Q311.5 277.5 305.5 276.5Q299.5 275.5 297.0 275.5V279.0Q297.0 280.5 296.75 287.5Q296.5 294.5 296.0 295.5Q299.0 295.0 305.75 292.75Q312.5 290.5 319.75 287.75Q327.0 285.0 331.0 283.5ZM406.5 237.5H406.0V236.0Q405.5 235.0 401.5 232.25Q397.5 229.5 395.5 229.5Q396.0 231.0 396.0 237.0V246.5Q398.5 246.0 402.0 243.0Q405.5 240.0 406.5 237.5ZM489.0 254.0V251.0L488.5 242.5H462.0Q440.0 242.5 426.0 247.75Q412.0 253.0 402.0 265.5Q400.0 268.0 398.0 270.25Q396.0 272.5 396.0 273.5Q396.0 275.5 406.5 276.0Q417.0 276.5 442.0 276.5H449.5Q474.5 276.5 482.5 275.0Q490.5 273.5 490.5 267.0Q490.5 261.5 489.0 254.0ZM292.5 121.5Q292.5 122.0 292.5 122.0Q292.5 122.0 292.5 122.0ZM317.0 49.5Q314.5 50.0 308.0 50.5Q301.5 51.0 293.0 51.0H271.0L272.0 52.0Q275.0 58.5 279.75 72.5Q284.5 86.5 288.5 100.5Q292.5 114.5 292.5 121.5Q293.5 119.0 294.75 114.75Q296.0 110.5 297.5 105.5Q299.0 96.5 302.75 84.5Q306.5 72.5 309.5 65.5Q312.5 60.0 314.5 55.25Q316.5 50.5 317.0 49.5ZM329.0 124.5 323.5 121.5Q317.0 117.5 315.5 117.0V134.5Q316.5 133.5 318.75 132.25Q321.0 131.0 323.5 129.0ZM426.5 120.0Q420.0 118.0 413.75 116.0Q407.5 114.0 405.0 113.5H404.5Q403.5 113.5 403.5 126.0V138.5H404.5L408.5 137.0Q410.0 136.5 412.0 135.5Q414.0 134.5 416.5 134.0Q419.5 133.0 422.75 131.75Q426.0 130.5 429.5 129.5L434.5 128.0Q438.5 127.0 440.75 126.25Q443.0 125.5 443.0 125.5Q443.0 125.0 438.25 123.5Q433.5 122.0 426.5 120.0ZM389.0 142.5V130.5L371.5 131.5Q351.5 131.5 342.75 135.25Q334.0 139.0 323.5 150.5Q318.5 156.5 313.25 161.0Q308.0 165.5 307.0 165.5Q303.5 165.5 302.0 160.0Q301.0 171.5 300.25 188.5Q299.5 205.5 299.5 221.0Q299.5 236.0 300.0 247.25Q300.5 258.5 301.5 259.5Q304.5 261.5 315.25 264.75Q326.0 268.0 340.0 270.75Q354.0 273.5 366.0 275.0L381.5 276.5V241.5Q381.5 198.5 389.5 198.0Q391.0 198.5 394.0 201.0Q397.0 203.5 399.0 208.0Q404.0 218.0 417.25 223.0Q430.5 228.0 456.0 228.0H467.5Q485.5 228.0 489.0 226.0H488.0L489.5 224.5Q491.5 222.5 492.75 221.25Q494.0 220.0 496.0 220.0Q499.5 220.0 503.0 223.0L504.0 223.5Q506.5 226.0 506.5 226.0Q507.5 226.0 507.5 209.5Q507.5 196.5 501.75 181.75Q496.0 167.0 488.5 161.0Q481.5 155.0 481.5 151.0Q481.5 146.0 489.75 144.5Q498.0 143.0 515.5 143.0Q529.0 143.0 539.0 144.25Q549.0 145.5 549.0 148.5Q549.0 149.5 545.25 154.0Q541.5 158.5 536.5 164.0Q519.5 178.0 519.0 226.5Q520.0 237.5 530.5 244.0Q541.0 250.5 561.5 250.5H580.5V197.5Q580.5 174.5 579.5 157.0Q578.5 139.5 577.5 138.5Q576.0 136.0 563.25 135.0Q550.5 134.0 522.5 133.5Q500.5 133.5 486.25 134.25Q472.0 135.0 461.25 136.5Q450.5 138.0 438.5 141.5Q427.5 145.5 417.75 149.5Q408.0 153.5 406.5 156.0Q402.0 161.0 397.0 161.0Q389.0 161.0 389.0 142.5ZM519.0 157.5Q518.0 158.0 515.75 158.0Q513.5 158.0 511.0 158.0H504.0Q504.5 158.5 505.25 160.0Q506.0 161.5 507.5 163.5L508.5 165.0Q509.5 166.5 510.25 168.0Q511.0 169.5 511.0 169.5Q511.0 169.5 511.75 168.25Q512.5 167.0 514.5 165.0L516.5 161.5Q518.5 158.5 519.0 157.5ZM504.5 248.5V248.0Q504.5 246.0 503.5 246.0V260.0Q503.5 265.0 504.0 269.75Q504.5 274.5 505.0 274.5Q509.0 274.5 516.75 272.0Q524.5 269.5 531.25 266.5Q538.0 263.5 538.0 262.0Q538.0 260.5 529.75 258.5Q521.5 256.5 515.5 256.0Q508.5 256.0 504.5 248.5ZM84.5 69.5Q82.5 67.5 80.5 66.0Q78.5 64.5 76.5 63.0Q75.0 62.0 74.0 61.0Q73.0 60.0 72.0 59.5Q71.5 62.5 70.75 70.75Q70.0 79.0 69.5 88.0Q69.0 97.0 69.0 103.0V104.5Q70.0 104.0 71.5 102.5Q73.0 101.5 75.5 100.5Q78.0 99.5 81.0 97.5Q84.0 96.0 88.0 94.0Q92.0 92.0 96.0 90.0Q107.5 85.5 107.5 81.5Q101.0 81.5 95.0 77.5Q89.0 73.5 84.5 69.5ZM599.0 64.5Q597.0 65.0 593.0 65.5Q589.0 66.0 584.0 66.0Q577.5 66.0 572.75 66.25Q568.0 66.5 568.0 66.5Q568.5 69.0 571.25 76.75Q574.0 84.5 577.0 91.75Q580.0 99.0 581.0 100.5Q584.5 92.5 588.5 84.5Q592.5 76.5 597.0 69.5Q598.0 68.0 598.5 66.75Q599.0 65.5 599.0 64.5ZM707.0 33.5 708.5 29.5V28.5H709.0V28.0H689.5Q673.5 28.0 667.5 27.0Q668.5 29.0 670.75 34.0Q673.0 39.0 676.5 45.5Q680.5 55.0 684.0 65.0Q687.5 75.0 688.5 80.0L690.0 88.0Q691.0 85.0 693.0 78.5Q695.0 72.0 697.0 64.5Q699.5 55.5 702.25 47.0Q705.0 38.5 707.0 33.5ZM657.5 12.0Q661.0 11.5 674.0 10.75Q687.0 10.0 701.5 10.0H713.0Q728.0 10.0 734.25 11.75Q740.5 13.5 740.5 18.0Q740.5 20.5 737.5 24.25Q734.5 28.0 729.5 29.5Q722.0 33.0 714.5 57.0Q708.5 74.0 705.0 92.0Q701.5 110.0 699.75 132.25Q698.0 154.5 698.0 185.5Q698.0 190.5 698.25 195.5Q698.5 200.5 698.5 206.0Q699.0 211.5 699.0 217.5Q699.0 223.5 699.0 230.0Q699.5 240.0 699.5 249.75Q699.5 259.5 699.5 268.0Q699.5 290.0 697.5 304.25Q695.5 318.5 694.0 318.5Q691.5 318.5 689.5 310.0Q687.5 301.5 687.0 289.0L685.5 267.0L634.5 266.0H616.5Q546.0 266.0 537.5 282.0Q532.0 291.5 520.5 291.5Q517.0 291.5 512.5 292.5Q508.0 293.5 505.0 295.5Q502.5 296.5 500.25 297.5Q498.0 298.5 496.0 298.5Q492.5 298.5 490.0 294.0Q489.0 293.0 481.5 292.25Q474.0 291.5 457.5 291.5Q449.5 291.5 439.0 291.5Q428.5 291.5 415.5 292.5Q386.5 293.0 369.0 294.25Q351.5 295.5 341.0 297.0Q330.5 298.5 321.5 301.5Q316.5 303.5 311.5 305.75Q306.5 308.0 304.5 309.5Q307.0 310.0 311.75 311.25Q316.5 312.5 321.5 313.5Q348.5 318.5 349.5 324.5Q348.5 329.5 342.0 329.5Q336.5 329.5 329.0 328.0L321.0 327.5Q315.5 326.5 311.5 326.25Q307.5 326.0 304.5 326.0Q299.5 326.0 298.75 329.0Q298.0 332.0 298.0 341.0V348.5Q297.0 361.5 295.0 370.75Q293.0 380.0 289.0 380.0Q286.5 380.0 284.25 370.25Q282.0 360.5 281.0 347.0L280.5 320.0L222.0 308.0Q192.5 302.5 175.5 299.75Q158.5 297.0 142.0 297.0Q119.0 297.0 94.0 298.5Q69.0 300.0 46.0 305.0L41.5 306.0Q33.0 308.0 27.0 309.0Q21.0 310.0 17.5 310.0Q11.5 310.0 10.0 304.5Q11.0 302.0 12.5 298.75Q14.0 295.5 17.0 292.0Q22.5 283.5 28.5 267.75Q34.5 252.0 44.0 221.5L47.0 220.0Q54.0 220.0 73.5 239.5Q83.5 250.5 94.0 257.5Q104.5 264.5 114.0 269.0Q122.0 271.5 139.25 275.75Q156.5 280.0 178.0 284.75Q199.5 289.5 220.5 294.0Q241.5 298.5 257.0 301.25Q272.5 304.0 277.5 304.0H279.5Q281.0 304.0 281.5 301.0Q282.0 298.0 282.5 287.5Q283.0 277.0 283.5 254.5V238.5Q283.5 233.0 272.0 227.75Q260.5 222.5 244.25 218.25Q228.0 214.0 213.5 211.25Q199.0 208.5 193.0 208.5L181.0 210.0Q174.5 211.5 171.5 211.5Q171.5 213.5 172.0 215.5Q172.5 217.5 174.5 219.5Q178.0 226.0 191.75 233.25Q205.5 240.5 241.5 252.5Q254.5 257.5 264.0 262.25Q273.5 267.0 273.5 270.0Q273.5 275.5 267.0 275.5H264.5Q239.0 266.0 222.25 260.5Q205.5 255.0 194.25 252.75Q183.0 250.5 173.0 250.5Q172.0 250.5 170.5 250.75Q169.0 251.0 167.5 251.0Q166.0 251.5 164.25 251.5Q162.5 251.5 161.5 251.5Q148.5 253.5 143.0 255.25Q137.5 257.0 136.0 261.0Q132.0 268.5 128.5 268.5Q125.0 268.5 123.25 261.25Q121.5 254.0 121.5 241.5Q121.5 236.0 121.75 230.5Q122.0 225.0 122.5 219.0V210.5Q123.0 208.0 123.0 206.25Q123.0 204.5 123.0 202.5Q123.0 181.5 119.5 166.25Q116.0 151.0 109.0 145.5Q102.5 139.5 102.5 136.0Q102.5 131.0 109.25 129.75Q116.0 128.5 131.0 128.5Q142.5 128.5 150.75 129.75Q159.0 131.0 159.0 133.0Q159.0 134.0 156.5 138.75Q154.0 143.5 150.5 147.5Q144.5 156.5 140.25 176.5Q136.0 196.5 136.0 216.0Q136.0 231.0 137.0 231.0Q138.0 231.0 142.5 221.5L144.0 218.5Q146.5 213.0 151.75 204.0Q157.0 195.0 161.5 189.0Q165.5 182.0 172.75 168.25Q180.0 154.5 185.5 142.0Q191.5 129.0 197.75 119.25Q204.0 109.5 206.0 109.5Q212.0 109.5 215.0 121.0Q217.5 129.5 226.75 136.5Q236.0 143.5 256.0 152.0Q276.5 161.5 283.0 161.5Q285.0 161.5 285.0 157.5Q285.0 156.0 285.0 153.25Q285.0 150.5 284.0 148.0Q282.0 132.5 277.0 114.5Q272.0 96.5 266.75 81.0Q261.5 65.5 257.5 58.5Q254.0 53.0 251.0 47.5Q248.0 42.0 248.0 41.5Q248.0 38.5 257.25 37.25Q266.5 36.0 279.5 36.0Q295.5 36.0 313.0 37.0Q330.5 38.0 336.5 40.5Q340.0 42.0 340.0 46.0Q340.0 50.0 335.0 55.5Q332.5 57.5 328.0 65.0Q323.5 72.5 320.0 80.25Q316.5 88.0 316.5 92.0Q316.5 92.5 317.5 93.75Q318.5 95.0 319.0 96.0Q323.0 104.0 332.25 108.5Q341.5 113.0 352.0 114.75Q362.5 116.5 370.0 116.5H389.0V107.0Q389.0 90.0 396.0 90.0Q400.0 90.0 406.5 96.0Q412.0 101.5 429.25 106.25Q446.5 111.0 471.0 114.5Q495.5 118.0 522.5 119.5L572.5 122.0L571.0 115.0Q570.0 110.5 566.0 100.75Q562.0 91.0 557.5 83.0Q552.5 73.5 549.0 65.5Q545.5 57.5 545.5 57.0Q545.5 54.0 556.75 52.75Q568.0 51.5 584.0 51.5Q600.0 51.5 610.75 52.75Q621.5 54.0 621.5 57.0Q621.5 58.0 617.75 64.25Q614.0 70.5 609.0 77.5Q605.0 84.0 601.0 93.25Q597.0 102.5 596.5 108.5L595.0 120.5H616.0Q628.0 120.5 636.25 122.5Q644.5 124.5 644.5 127.5Q644.5 131.5 636.5 133.25Q628.5 135.0 616.5 135.0H608.5Q599.5 135.0 596.5 138.25Q593.5 141.5 593.5 156.5Q593.5 159.5 593.5 162.5Q593.5 165.5 594.0 169.5V191.0L597.0 252.5L640.5 253.5H684.0L684.5 224.0Q684.5 220.0 684.5 215.25Q684.5 210.5 685.0 206.5Q685.0 202.5 685.25 198.25Q685.5 194.0 685.5 190.0Q685.5 159.0 683.5 134.75Q681.5 110.5 678.0 95.0Q674.5 82.0 669.0 67.25Q663.5 52.5 658.75 42.0Q654.0 31.5 652.0 31.5Q645.0 31.5 645.0 25.5Q645.0 22.0 648.25 17.5Q651.5 13.0 657.5 12.0ZM59.0 54.0Q60.5 28.5 68.5 28.5Q74.0 28.5 77.0 38.5Q79.5 43.5 86.0 50.25Q92.5 57.0 101.0 62.5Q109.5 68.0 117.0 70.0Q123.0 72.0 136.75 73.25Q150.5 74.5 163.5 74.5Q179.5 74.5 196.0 75.5Q212.5 76.5 226.75 78.25Q241.0 80.0 249.75 81.75Q258.5 83.5 258.5 85.5Q258.5 88.0 248.0 89.25Q237.5 90.5 220.0 90.5H194.5L134.5 89.0L106.5 101.5Q96.0 106.5 85.5 112.25Q75.0 118.0 71.0 122.0Q66.0 126.0 61.0 128.0Q56.0 130.0 54.5 130.0L51.5 129.0Q51.5 129.0 51.25 127.25Q51.0 125.5 51.0 124.5Q51.0 121.0 51.5 114.5Q52.0 108.0 53.0 100.0Q54.0 95.5 54.5 90.0Q55.0 84.5 55.5 79.5Q56.0 76.0 56.5 72.5Q57.0 69.0 57.5 66.0Q58.0 63.5 58.25 61.75Q58.5 60.0 58.5 58.0Q58.5 55.0 59.0 54.0Z" fill="black" /></svg>