<svg xmlns="http://www.w3.org/2000/svg" width="785.0" height="459.5" viewBox="0 0 785.0 459.5"><path d="M57.5 185.0Q57.5 176.5 56.5 176.5Q54.5 176.5 49.5 181.25Q44.5 186.0 42.5 189.0Q45.0 189.5 48.25 190.25Q51.5 191.0 54.5 192.0Q54.5 192.5 55.5 192.5Q56.5 192.5 56.5 192.5Q57.5 192.5 57.5 185.0ZM107.0 96.0Q103.5 94.0 101.0 93.25Q98.5 92.5 94.5 92.5V93.5Q94.5 93.5 94.75 94.25Q95.0 95.0 95.0 95.5Q96.0 96.0 96.75 97.0Q97.5 98.0 99.0 98.0H101.0Q101.5 98.0 102.5 97.5Q103.5 97.0 104.5 96.5Q105.5 96.0 107.0 96.0ZM128.5 197.0 150.5 185.5 128.0 163.0Q128.5 165.5 128.5 169.75Q128.5 174.0 128.5 180.5ZM244.0 137.0 208.0 100.0 183.0 101.5Q173.0 101.5 159.0 103.25Q145.0 105.0 131.25 107.5Q117.5 110.0 107.75 112.75Q98.0 115.5 96.0 117.5Q93.5 120.0 89.75 130.25Q86.0 140.5 82.25 154.0Q78.5 167.5 76.0 179.5Q73.5 191.5 73.5 198.0V200.0Q75.0 204.5 84.5 215.25Q94.0 226.0 106.25 237.5Q118.5 249.0 127.5 256.5Q127.0 256.0 127.0 255.0Q127.0 248.5 134.5 248.5Q137.0 248.5 142.0 250.0Q146.0 253.0 149.5 253.0Q155.0 253.0 166.25 247.75Q177.5 242.5 191.25 234.25Q205.0 226.0 218.25 217.25Q231.5 208.5 241.5 200.75Q251.5 193.0 254.5 189.5Q243.5 190.0 227.0 192.0Q210.5 194.0 193.75 196.75Q177.0 199.5 163.75 202.25Q150.5 205.0 146.0 207.0Q142.0 209.0 137.5 213.5Q133.0 218.0 131.5 220.5Q128.5 233.0 122.5 233.0Q118.0 233.0 115.75 218.5Q113.5 204.0 113.5 177.0Q113.5 152.0 115.5 138.5Q117.5 125.0 121.5 125.0H122.5Q125.0 126.5 126.75 130.25Q128.5 134.0 128.5 136.5Q128.5 138.5 135.0 145.75Q141.5 153.0 151.5 161.5L172.0 183.0L220.0 178.5Q240.5 176.5 256.0 174.5Q271.5 172.5 275.0 172.0Q274.0 169.0 266.5 160.0Q259.0 151.0 244.0 137.0ZM191.0 85.0 186.0 75.0 187.0 76.0Q185.5 73.5 184.25 70.75Q183.0 68.0 182.0 66.5L181.0 65.0Q180.5 64.5 180.5 64.5Q178.5 66.5 175.0 69.75Q171.5 73.0 167.0 76.5L158.0 85.0ZM310.0 169.0Q308.5 168.0 307.25 167.5Q306.0 167.0 304.0 167.0Q303.0 167.0 302.0 168.0V169.0Q302.5 169.5 303.25 170.5Q304.0 171.5 304.5 171.5Q306.0 171.5 307.0 171.0Q310.0 171.0 310.0 169.0ZM372.5 70.5H372.0Q361.5 65.0 349.0 58.25Q336.5 51.5 330.5 46.5L317.5 38.0L288.5 70.5L324.5 73.0Q338.0 74.5 351.0 74.5Q360.0 75.0 369.0 75.25Q378.0 75.5 387.0 75.5Q384.5 74.5 380.75 73.25Q377.0 72.0 372.5 70.5ZM452.0 55.5 460.0 39.5H443.5Q434.5 39.5 431.25 39.5Q428.0 39.5 428.0 40.5Q428.0 42.5 428.5 43.5Q430.5 47.5 432.0 53.25Q433.5 59.0 434.5 64.5Q436.5 75.0 439.0 75.0Q440.5 75.0 444.5 69.5Q448.5 64.0 452.0 55.5ZM46.0 339.5V339.0Q42.5 338.0 40.0 337.25Q37.5 336.5 35.0 336.5Q30.0 336.5 30.0 345.0V350.5Q32.5 349.5 40.0 345.75Q47.5 342.0 48.5 340.5Q48.0 340.0 47.5 340.0Q47.0 340.0 46.0 339.5ZM118.0 295.5Q118.0 295.5 115.75 295.0Q113.5 294.5 111.0 294.5Q106.5 294.5 106.5 296.0Q106.5 296.0 106.5 296.75Q106.5 297.5 107.0 297.5Q108.5 300.0 109.25 302.75Q110.0 305.5 110.5 307.5Q112.5 306.0 115.25 302.0Q118.0 298.0 118.0 295.5ZM172.0 275.5H172.5Q174.0 270.5 175.25 267.25Q176.5 264.0 177.0 262.0Q173.0 263.0 165.0 267.5L155.0 272.0L166.0 290.0ZM311.5 231.5Q308.0 228.5 304.5 228.5Q303.5 228.5 303.5 234.0V238.0Q306.0 238.0 308.0 236.0L310.0 235.0Q312.0 233.0 312.5 232.0Q312.0 232.0 311.5 231.5ZM311.0 282.5V282.0Q309.0 282.0 308.0 281.5Q306.0 281.0 305.0 280.75Q304.0 280.5 303.5 280.5V286.0Q303.5 291.5 306.0 293.0Q307.0 292.0 308.75 290.75Q310.5 289.5 312.0 287.5Q314.5 285.0 314.5 284.5Q314.5 284.0 313.25 283.5Q312.0 283.0 311.0 282.5ZM368.5 267.5 422.5 267.0 425.5 228.5 413.5 229.0Q410.0 229.0 405.5 229.25Q401.0 229.5 395.0 230.0H388.0Q385.5 230.0 382.5 230.0Q379.5 230.0 377.0 231.0H367.0Q350.0 232.0 340.5 235.25Q331.0 238.5 320.5 248.0Q313.5 253.0 310.25 255.75Q307.0 258.5 307.0 261.0Q307.0 261.5 307.5 262.0Q308.0 262.5 308.5 263.5Q310.5 265.5 317.75 266.75Q325.0 268.0 340.5 268.0Q346.0 268.0 353.25 268.0Q360.5 268.0 368.5 267.5ZM514.0 233.0 498.0 231.0Q488.0 229.5 479.25 228.0Q470.5 226.5 468.0 225.0L467.0 224.5Q465.0 225.0 464.25 230.5Q463.5 236.0 462.5 245.5V266.5ZM53.0 399.0Q45.5 396.5 38.0 396.5Q36.0 396.5 36.0 402.0Q36.0 410.0 36.5 410.0Q39.0 410.0 45.5 405.5Q52.0 401.0 53.0 399.0ZM96.0 388.5V364.5Q96.0 347.0 94.0 344.0Q92.0 341.0 85.0 341.0Q81.5 341.0 73.0 344.75Q64.5 348.5 55.25 354.0Q46.0 359.5 39.5 365.0Q33.0 370.5 33.0 374.0Q33.0 374.5 36.0 376.5Q38.0 379.0 48.0 381.25Q58.0 383.5 69.0 385.5ZM288.5 346.0 293.5 345.5 222.5 322.0V324.5Q223.0 327.0 223.0 332.0Q223.0 337.0 223.0 343.0Q223.0 354.0 223.75 357.75Q224.5 361.5 226.0 361.5Q227.5 361.5 229.0 361.0Q236.5 358.0 253.75 353.75Q271.0 349.5 288.5 346.0ZM306.5 22.5V22.0Q313.5 10.0 319.0 10.0Q320.0 10.0 323.5 13.25Q327.0 16.5 330.0 22.5Q331.0 26.5 341.75 34.0Q352.5 41.5 368.0 47.5Q408.0 68.5 419.0 68.5Q420.5 68.5 420.5 67.0Q420.5 61.5 411.5 45.0L399.0 21.5H445.0Q487.5 21.5 487.5 30.0Q487.5 37.5 478.5 40.5L479.0 41.0Q477.0 42.0 472.25 50.5Q467.5 59.0 463.75 68.75Q460.0 78.5 459.5 83.5Q460.5 84.0 482.0 90.75Q503.5 97.5 539.0 108.25Q574.5 119.0 617.0 131.5Q660.5 145.0 696.25 157.5Q732.0 170.0 753.5 178.25Q775.0 186.5 775.0 188.0Q775.0 191.0 771.0 193.0Q767.0 195.0 754.0 197.5Q741.0 200.0 715.0 203.75Q689.0 207.5 645.5 213.5L549.5 228.5L514.0 252.0Q498.5 261.5 484.5 272.5Q470.5 283.5 465.5 289.0Q461.0 294.5 456.25 299.0Q451.5 303.5 450.5 303.5Q446.5 303.5 446.5 286.5Q446.5 276.0 447.25 261.0Q448.0 246.0 448.75 231.25Q449.5 216.5 450.75 206.0Q452.0 195.5 452.5 194.5Q454.0 193.0 456.0 193.0Q457.0 193.0 459.5 195.5Q462.0 198.0 463.5 200.5Q467.5 207.0 477.75 210.25Q488.0 213.5 506.5 213.5Q516.5 213.5 529.25 212.75Q542.0 212.0 557.0 210.0Q584.0 206.5 613.25 202.5Q642.5 198.5 668.5 194.75Q694.5 191.0 712.25 188.0Q730.0 185.0 733.0 184.0Q727.5 183.0 715.75 179.25Q704.0 175.5 686.5 170.5Q671.0 166.0 652.25 160.25Q633.5 154.5 613.0 148.0Q578.0 137.5 546.75 127.5Q515.5 117.5 494.5 110.75Q473.5 104.0 469.0 102.5Q465.5 101.5 462.25 100.5Q459.0 99.5 456.5 99.5Q449.0 99.5 445.5 110.25Q442.0 121.0 441.25 149.75Q440.5 178.5 440.5 232.5V340.0H536.0Q585.0 340.0 611.5 342.0Q638.0 344.0 638.0 347.0Q638.0 351.5 611.5 353.25Q585.0 355.0 536.0 355.0Q495.0 355.0 474.5 355.25Q454.0 355.5 447.25 356.25Q440.5 357.0 440.5 358.5Q440.5 369.0 432.5 369.0Q429.5 369.0 427.0 367.0Q424.5 365.0 424.5 360.5Q424.5 360.0 416.75 360.0Q409.0 360.0 391.0 360.0Q382.5 360.0 371.5 360.0Q360.5 360.0 347.0 360.5Q307.5 361.0 284.0 363.5Q260.5 366.0 248.0 370.25Q235.5 374.5 227.5 381.0Q221.0 387.0 215.5 387.0Q210.5 387.0 208.75 379.25Q207.0 371.5 207.0 353.0V340.0Q208.0 320.5 209.75 306.75Q211.5 293.0 215.0 293.0Q217.5 293.0 227.5 302.0Q229.5 304.0 238.5 308.0Q247.5 312.0 261.0 317.0Q274.5 322.0 288.5 327.5Q314.0 335.0 336.25 339.5Q358.5 344.0 384.5 344.0L422.5 342.0L425.5 284.5H386.0Q367.0 284.5 357.0 285.5Q347.0 286.5 340.75 289.0Q334.5 291.5 326.5 296.5Q319.0 301.0 313.25 306.0Q307.5 311.0 306.5 313.5Q304.0 320.0 296.0 320.0Q295.5 319.5 295.0 319.5Q293.0 318.0 291.25 307.5Q289.5 297.0 288.75 282.25Q288.0 267.5 288.0 252.5Q288.0 232.0 289.5 217.5Q291.0 203.0 294.5 203.0Q297.0 203.0 301.25 205.5Q305.5 208.0 309.5 211.0Q319.0 217.0 354.5 217.0Q365.5 217.0 378.25 216.25Q391.0 215.5 404.0 213.5L424.5 211.5V164.5Q419.0 165.0 413.25 165.75Q407.5 166.5 402.5 167.0Q397.0 167.5 391.25 168.0Q385.5 168.5 380.0 169.0Q358.0 170.0 346.75 171.75Q335.5 173.5 329.0 177.0Q322.5 180.5 314.0 187.5Q304.5 194.5 298.25 198.75Q292.0 203.0 289.5 203.0Q283.0 203.0 283.0 193.5V190.5Q275.5 197.0 267.0 202.25Q258.5 207.5 250.0 213.0Q247.5 214.5 245.0 216.25Q242.5 218.0 240.0 219.5Q223.0 232.0 213.0 240.5Q203.0 249.0 198.0 255.75Q193.0 262.5 189.5 271.5Q186.5 281.5 183.5 292.0Q180.5 302.5 180.5 306.5Q180.5 321.5 173.5 321.5Q167.0 321.5 155.0 302.5Q151.5 295.5 149.75 292.75Q148.0 290.0 146.5 289.0L142.5 293.0Q139.0 296.5 133.75 303.0Q128.5 309.5 123.5 316.0L116.5 326.5L151.0 322.5Q157.5 322.0 163.0 322.0Q168.5 322.0 173.5 322.0Q195.0 322.0 195.0 327.5Q195.0 331.0 181.75 334.25Q168.5 337.5 150.5 338.5L110.5 342.5V381.5H152.5Q176.0 381.5 187.5 384.0Q199.0 386.5 199.0 389.5Q199.0 397.0 154.0 398.5L112.5 400.5L111.0 421.5Q110.5 435.0 107.75 442.25Q105.0 449.5 102.5 449.5Q96.0 449.5 96.0 423.0Q96.0 408.5 94.25 405.25Q92.5 402.0 86.5 402.0Q82.0 402.0 73.75 405.75Q65.5 409.5 56.75 414.75Q48.0 420.0 42.0 425.25Q36.0 430.5 36.0 433.0Q36.0 440.5 28.0 440.5Q25.5 440.5 22.25 421.25Q19.0 402.0 17.0 376.0Q15.5 361.5 15.0 350.0Q14.5 338.5 14.5 332.0Q14.5 320.5 16.5 316.25Q18.5 312.0 22.5 312.0Q27.0 312.0 36.5 318.5Q40.5 321.5 50.0 323.5Q59.5 325.5 70.5 325.5Q88.0 325.5 92.0 324.0Q96.0 322.5 96.0 317.5Q96.0 313.5 94.0 308.25Q92.0 303.0 89.5 299.5Q82.5 291.5 82.5 287.5Q82.5 282.5 88.5 280.75Q94.5 279.0 108.5 277.5L125.0 276.5L87.5 243.0Q70.0 227.0 59.5 218.5Q49.0 210.0 42.5 206.75Q36.0 203.5 29.5 203.5Q21.5 203.5 15.75 202.5Q10.0 201.5 10.0 197.5Q10.0 196.0 19.5 186.25Q29.0 176.5 41.5 165.5Q55.0 154.5 61.5 146.75Q68.0 139.0 71.5 129.5Q75.0 120.0 79.0 105.0L79.5 104.0Q79.0 101.0 76.5 96.5Q74.0 92.0 71.0 88.5Q67.0 84.5 64.25 80.0Q61.5 75.5 61.0 74.0Q62.0 71.0 62.0 70.5Q64.0 68.5 67.0 68.5Q71.0 68.5 79.75 70.75Q88.5 73.0 99.5 76.0Q109.5 79.5 119.25 81.5Q129.0 83.5 134.0 83.5H135.0Q139.5 81.5 148.5 73.0Q157.5 64.5 165.5 55.0Q175.5 44.5 184.5 36.5Q193.5 28.5 195.0 28.5Q199.0 28.5 199.0 35.5Q199.0 38.5 198.5 42.0Q198.0 45.5 197.0 49.0Q196.5 51.0 196.25 52.75Q196.0 54.5 196.0 55.5Q196.0 60.0 199.5 65.5Q203.0 71.0 212.5 80.75Q222.0 90.5 240.0 109.0Q259.0 128.5 269.25 138.5Q279.5 148.5 283.0 149.5Q286.5 143.0 290.5 143.0Q296.5 143.0 304.0 149.0Q313.5 155.5 342.0 155.5Q351.5 155.5 364.25 155.0Q377.0 154.5 392.0 152.5L424.5 149.0V126.5Q424.5 116.5 423.5 107.5Q422.5 98.5 422.0 97.0Q420.0 94.5 403.75 92.75Q387.5 91.0 365.25 89.75Q343.0 88.5 321.5 88.5Q306.5 88.5 293.75 89.75Q281.0 91.0 275.5 92.0Q271.0 93.0 266.75 94.0Q262.5 95.0 259.5 95.0Q254.0 95.0 252.0 92.5L251.5 91.5Q251.5 88.5 258.5 79.0Q265.5 69.5 275.0 59.0Q286.5 47.5 295.75 36.75Q305.0 26.0 306.5 22.5ZM439.0 93.5Q439.0 93.5 438.75 94.0Q438.5 94.5 437.5 95.0V94.5Q438.5 93.0 439.25 92.0Q440.0 91.0 440.0 91.0Q439.0 91.0 439.0 93.5Z" fill="black" /></svg>