<svg xmlns="http://www.w3.org/2000/svg" width="448.0" height="383.5" viewBox="0 0 448.0 383.5"><path d="M78.0 209.5Q75.0 203.0 73.0 203.0Q70.5 203.0 64.25 208.75Q58.0 214.5 52.5 221.0Q47.0 227.5 47.0 230.0H51.5L55.0 231.0Q59.5 232.0 66.5 234.0Q73.5 236.0 80.0 238.5Q86.0 239.5 90.0 241.0Q92.0 241.5 93.75 241.75Q95.5 242.0 96.5 242.5Q95.5 240.5 93.75 237.75Q92.0 235.0 90.0 232.0Q87.0 226.5 83.5 220.25Q80.0 214.0 78.0 209.5ZM186.5 339.0Q189.0 337.5 195.5 331.75Q202.0 326.0 210.25 318.25Q218.5 310.5 226.25 302.75Q234.0 295.0 238.5 290.0Q234.5 291.0 229.0 292.75Q223.5 294.5 217.5 296.5Q207.5 299.5 197.0 301.75Q186.5 304.0 182.5 304.0Q174.5 304.0 172.0 305.5Q173.0 309.5 175.75 317.0Q178.5 324.5 181.75 331.0Q185.0 337.5 186.5 339.0ZM97.5 128.5H97.0Q91.5 128.5 85.5 133.0Q83.0 134.0 78.0 135.5Q73.0 137.0 69.0 137.0Q62.5 137.0 62.5 138.5Q62.5 141.0 66.25 147.5Q70.0 154.0 74.5 159.25Q79.0 164.5 80.5 164.5Q82.0 164.5 85.75 157.0Q89.5 149.5 93.25 140.75Q97.0 132.0 97.5 128.5ZM129.5 141.0Q127.5 134.0 125.25 128.25Q123.0 122.5 121.5 122.0H121.0Q117.5 122.5 111.75 131.5Q106.0 140.5 101.5 152.0Q97.0 163.5 96.0 173.0Q95.0 179.5 93.0 186.75Q91.0 194.0 90.0 196.5Q89.0 197.5 89.0 199.0Q89.0 201.0 90.0 204.0Q91.0 207.0 93.0 210.0Q95.5 215.5 101.5 223.75Q107.5 232.0 114.0 240.0Q120.5 248.0 126.0 253.5Q131.5 259.0 133.5 259.0Q133.5 259.0 133.75 248.0Q134.0 237.0 134.0 221.5Q134.0 207.0 133.5 191.0Q133.0 175.0 132.0 161.5Q131.0 148.0 129.5 141.0ZM143.0 128.5Q143.0 120.5 141.5 120.5Q139.5 120.5 139.5 128.5Q139.5 136.5 141.5 136.5Q143.0 136.5 143.0 128.5ZM177.0 198.5 176.0 198.0Q167.5 195.0 162.25 193.25Q157.0 191.5 154.0 191.5Q152.0 192.0 152.0 199.5Q152.0 207.5 154.0 208.0Q158.5 207.5 167.25 205.0Q176.0 202.5 179.5 201.0Q180.0 200.5 181.0 200.5Q180.0 199.5 177.0 198.5ZM184.5 133.0Q184.5 125.0 182.5 125.0Q181.0 125.0 181.0 130.0Q181.0 136.0 183.5 138.5Q184.5 137.5 184.5 133.0ZM212.5 187.5Q212.5 183.5 211.25 174.0Q210.0 164.5 208.0 154.0Q206.0 143.5 203.75 135.5Q201.5 127.5 199.5 126.5Q198.0 128.5 196.25 139.25Q194.5 150.0 193.25 161.0Q192.0 172.0 192.0 176.5Q192.0 186.0 195.75 189.5Q199.5 193.0 208.0 193.0Q210.5 193.0 211.5 192.0Q212.5 191.0 212.5 187.5ZM244.0 100.0Q224.5 90.0 208.25 82.25Q192.0 74.5 188.0 73.0H187.0Q182.5 73.0 175.25 77.0Q168.0 81.0 157.5 88.0L155.5 89.5Q148.0 96.0 142.0 101.25Q136.0 106.5 136.0 107.0Q136.0 107.0 138.5 107.25Q141.0 107.5 144.5 107.5Q153.5 107.5 157.5 109.0Q161.5 110.5 161.5 116.0Q161.5 121.0 158.0 130.0Q155.5 135.0 154.0 142.75Q152.5 150.5 152.5 156.5V159.5Q153.5 169.0 159.0 176.5Q164.5 184.0 175.0 184.0Q175.0 169.0 172.0 153.25Q169.0 137.5 165.5 123.0L161.5 110.0L206.0 110.5Q223.0 111.0 238.25 111.75Q253.5 112.5 259.0 112.5H262.0Q264.5 112.5 266.25 112.75Q268.0 113.0 269.0 113.0Q262.5 109.0 256.0 105.75Q249.5 102.5 244.0 100.0ZM221.5 127.5Q221.5 125.0 217.0 125.0Q216.0 125.0 215.25 125.25Q214.5 125.5 214.5 125.5Q214.5 127.0 215.0 127.5Q216.0 129.5 216.25 131.5Q216.5 133.5 217.0 135.0Q221.5 132.5 221.5 127.5ZM238.5 134.5Q238.0 132.5 237.0 130.5Q236.0 128.5 235.0 128.5Q232.5 128.5 231.25 135.75Q230.0 143.0 229.25 152.75Q228.5 162.5 228.5 170.75Q228.5 179.0 228.5 181.5Q228.5 191.0 230.25 193.5Q232.0 196.0 235.5 197.0H239.5Q247.0 197.0 247.0 187.5Q247.0 179.0 245.5 170.25Q244.0 161.5 242.0 153.0L241.5 148.5Q240.0 138.0 238.5 134.5ZM255.0 135.5Q256.0 132.5 256.0 131.0Q256.0 129.0 254.0 127.5Q254.0 127.0 253.0 127.0L252.5 126.5Q251.0 127.0 251.0 130.5Q251.0 133.0 253.0 136.0L254.5 137.5Q254.5 136.0 255.0 135.5ZM273.0 115.0Q274.0 117.0 274.0 119.5Q274.0 123.5 270.0 134.5L269.0 137.0Q266.0 143.5 264.5 155.0Q263.0 166.5 262.0 176.0V197.0H294.5Q311.5 197.0 321.5 198.5Q331.5 200.0 331.5 203.5Q331.5 207.0 321.0 208.75Q310.5 210.5 293.0 210.5H258.5V238.0Q258.5 264.0 253.0 265.0L252.0 264.5Q250.5 264.5 249.0 263.0Q248.0 259.5 246.5 250.0Q245.0 240.5 245.0 231.0Q245.0 215.5 243.75 213.0Q242.5 210.5 235.0 210.5H226.5V238.5Q226.5 251.5 224.75 262.25Q223.0 273.0 220.5 274.5H219.5Q212.5 274.5 212.5 243.5Q212.5 231.5 211.75 222.5Q211.0 213.5 209.5 212.0Q209.0 211.5 205.0 211.5Q203.0 211.5 201.25 211.5Q199.5 211.5 197.5 212.5Q193.5 213.5 191.75 215.5Q190.0 217.5 189.75 223.5Q189.5 229.5 189.5 243.5Q189.5 257.5 187.25 267.0Q185.0 276.5 182.5 276.5Q179.0 276.5 177.5 267.5Q176.0 258.5 176.0 245.0Q176.0 226.0 175.0 222.25Q174.0 218.5 169.0 218.5Q158.0 218.5 153.25 225.0Q148.5 231.5 148.5 246.0V248.5Q149.0 258.0 150.5 263.0Q152.0 268.0 156.25 271.75Q160.5 275.5 169.0 281.0Q176.5 285.0 181.5 287.25Q186.5 289.5 190.5 289.5Q203.5 289.5 223.75 282.25Q244.0 275.0 266.25 264.5Q288.5 254.0 308.0 243.25Q327.5 232.5 339.0 225.5Q361.0 212.5 376.75 202.25Q392.5 192.0 392.5 191.0Q392.5 189.0 381.25 181.0Q370.0 173.0 352.0 161.75Q334.0 150.5 313.25 138.0Q292.5 125.5 273.0 115.0ZM212.5 31.0Q208.5 32.0 202.0 40.0Q193.0 48.5 193.0 54.0Q193.0 61.5 220.5 73.0Q227.5 75.5 234.25 78.25Q241.0 81.0 245.5 83.0L248.0 84.0Q242.0 76.5 234.5 65.0Q225.0 53.0 218.75 43.25Q212.5 33.5 212.5 31.0ZM191.5 30.0Q211.5 10.0 216.5 10.0Q222.0 10.0 222.0 19.5Q222.0 23.5 230.25 36.0Q238.5 48.5 250.75 63.5Q263.0 78.5 275.0 90.0Q279.0 94.5 292.75 105.0Q306.5 115.5 324.75 128.5Q343.0 141.5 361.25 153.5Q379.5 165.5 393.0 173.5Q406.5 181.5 410.5 181.5Q413.0 181.5 417.0 179.0L418.5 178.0Q429.0 174.0 432.5 174.0Q438.0 174.0 438.0 178.5Q438.0 182.0 430.0 188.0Q424.5 192.5 423.5 196.5L424.0 197.0Q424.5 199.0 424.5 201.0Q424.5 205.5 419.5 205.5Q419.0 205.5 417.5 205.5Q416.0 205.5 414.0 205.0L412.5 204.5Q411.5 204.0 409.0 204.0Q403.5 204.0 392.0 209.75Q380.5 215.5 359.0 228.5Q326.0 249.0 296.5 269.25Q267.0 289.5 244.0 307.75Q221.0 326.0 207.0 340.0Q193.0 354.0 191.0 362.5Q189.5 368.5 187.0 371.0Q184.5 373.5 182.5 373.5Q176.0 373.5 176.0 359.5Q176.0 355.5 172.25 345.0Q168.5 334.5 163.5 325.5Q151.5 301.5 151.5 296.0Q151.5 291.5 156.0 291.5Q157.0 291.5 158.25 291.75Q159.5 292.0 161.5 292.5Q161.5 293.0 163.0 293.0Q160.5 290.0 147.75 283.0Q135.0 276.0 118.25 267.75Q101.5 259.5 86.5 253.5Q72.5 248.5 60.25 245.75Q48.0 243.0 37.5 243.0Q32.5 243.5 28.0 243.5Q23.5 243.5 20.5 243.5Q10.0 243.5 10.0 240.0Q10.0 238.5 13.0 236.0Q16.0 233.5 19.5 231.5Q25.5 227.5 34.5 219.75Q43.5 212.0 52.5 203.25Q61.5 194.5 67.5 187.75Q73.5 181.0 73.5 179.0Q73.5 178.0 67.75 170.25Q62.0 162.5 53.5 153.0L45.0 142.0Q40.0 135.5 36.25 130.5Q32.5 125.5 32.5 124.0Q32.5 120.5 37.0 120.5Q40.0 120.5 44.5 122.0Q53.0 124.5 59.5 124.5Q75.5 124.5 101.5 110.0Q115.0 103.0 127.0 95.25Q139.0 87.5 147.0 81.0Q155.0 74.5 156.5 71.5Q147.5 71.5 147.5 66.5Q147.5 61.0 160.5 55.0Q165.0 53.0 174.25 45.5Q183.5 38.0 191.5 30.0Z" fill="black" /></svg>