<svg xmlns="http://www.w3.org/2000/svg" width="853.0" height="459.5" viewBox="0 0 853.0 459.5"><path d="M69.0 364.0V358.5Q67.0 347.5 66.5 347.5Q66.0 347.5 62.0 351.0Q58.0 354.5 54.5 358.0Q51.0 361.5 51.0 362.0Q51.0 361.5 57.5 364.0Q60.0 364.0 63.0 365.0Q65.5 365.5 66.75 365.75Q68.0 366.0 69.5 366.0ZM146.0 290.0Q145.5 290.0 145.0 290.0Q144.5 290.0 143.5 290.0Q141.5 290.0 139.5 290.5Q137.5 291.0 137.5 291.0Q138.5 295.0 139.5 295.0Q141.0 295.0 142.5 293.5Q144.0 292.0 146.0 290.0ZM148.5 344.0V343.0Q146.5 342.0 144.75 342.0Q143.0 342.0 142.0 341.5Q142.0 342.0 142.0 342.75Q142.0 343.5 142.0 344.5V348.0Q143.0 348.0 145.5 346.5Q148.0 345.0 150.0 344.5Q149.5 344.5 149.25 344.25Q149.0 344.0 148.5 344.0ZM229.5 297.0V297.5Q230.5 294.0 231.75 292.25Q233.0 290.5 234.0 289.0Q233.0 289.5 231.5 289.75Q230.0 290.0 228.0 291.0Q220.0 293.0 220.0 296.0Q220.0 296.5 221.25 298.75Q222.5 301.0 223.5 303.5V304.0Q223.5 304.0 225.25 302.25Q227.0 300.5 229.5 297.0ZM336.0 317.0V316.5Q329.0 311.0 326.5 311.0Q326.0 311.0 325.0 317.5Q324.0 324.0 323.0 333.25Q322.0 342.5 321.5 351.5Q321.0 360.5 321.0 365.5V366.0Q324.0 365.0 337.5 359.5Q351.0 354.0 369.0 346.0L405.5 332.0L384.0 328.5Q369.0 325.5 355.0 322.25Q341.0 319.0 336.0 317.0ZM159.5 194.0Q159.5 191.5 159.5 189.25Q159.5 187.0 159.0 187.0Q156.5 187.0 153.5 190.75Q150.5 194.5 150.0 196.5Q152.0 199.0 154.5 199.0Q156.0 199.0 157.75 197.5Q159.5 196.0 159.5 194.0ZM226.0 340.0Q231.0 339.5 236.0 339.5Q241.0 339.5 247.0 339.5Q281.0 338.0 294.25 334.25Q307.5 330.5 308.0 321.0L307.5 317.5Q307.0 314.0 306.75 310.25Q306.5 306.5 305.5 302.0Q304.0 295.0 304.0 287.0Q304.0 277.0 310.5 277.0Q316.0 277.0 331.0 289.5Q345.0 302.0 372.75 307.5Q400.5 313.0 450.5 313.0H502.0V303.0Q502.0 291.0 501.0 284.0Q500.0 277.0 495.0 274.0Q490.0 271.0 478.25 270.25Q466.5 269.5 445.5 269.5Q415.0 269.5 401.75 271.25Q388.5 273.0 384.5 277.0Q382.5 278.0 380.5 280.0Q375.0 285.5 371.5 285.5Q368.0 285.5 366.25 274.25Q364.5 263.0 364.5 247.5Q364.5 231.5 367.0 220.75Q369.5 210.0 373.0 210.0Q374.0 210.0 374.0 201.5Q374.0 199.0 374.5 196.0Q375.0 193.0 375.0 193.0Q371.5 195.0 355.5 206.25Q339.5 217.5 319.5 231.0Q302.0 243.5 290.75 252.25Q279.5 261.0 272.25 268.25Q265.0 275.5 259.75 284.0Q254.5 292.5 249.0 304.5Q242.5 317.0 236.25 327.25Q230.0 337.5 226.0 340.0ZM385.5 251.5 385.0 251.0Q384.5 250.0 384.0 249.25Q383.5 248.5 383.0 248.0Q383.0 248.5 383.0 249.0Q383.0 249.5 383.0 250.5Q383.0 253.5 383.5 254.0L385.0 253.0Q385.5 253.0 386.0 252.5Q386.5 252.0 386.5 252.0Q386.5 252.0 386.5 251.75Q386.5 251.5 385.5 251.5ZM492.5 211.5Q489.5 206.0 481.75 204.75Q474.0 203.5 448.5 203.5Q431.0 203.5 421.25 204.0Q411.5 204.5 406.0 206.5Q400.5 208.5 395.5 213.0L384.5 220.5L398.0 234.5Q405.5 242.5 410.75 246.0Q416.0 249.5 425.75 250.25Q435.5 251.0 456.5 251.0H497.5V236.5Q497.5 229.5 495.75 222.0Q494.0 214.5 492.5 211.5ZM572.0 226.0Q570.5 226.5 568.0 226.5Q565.5 226.5 563.0 226.5Q560.0 226.5 555.75 226.25Q551.5 226.0 547.0 225.5L521.0 225.0V263.5L537.0 251.5Q538.5 250.0 540.75 248.5Q543.0 247.0 545.0 245.0Q547.5 244.0 549.0 242.25Q550.5 240.5 552.5 240.0Q555.0 238.0 557.75 236.25Q560.5 234.5 562.0 233.5Q564.5 231.0 567.25 229.25Q570.0 227.5 572.0 226.0ZM202.0 80.0H198.0Q188.5 80.0 188.5 81.5Q188.5 82.0 194.0 82.0Q195.5 82.0 198.0 81.5Q200.5 81.0 202.0 80.0ZM248.0 175.5 246.5 174.5Q242.5 172.0 240.5 172.0Q239.0 172.0 237.75 177.5Q236.5 183.0 235.5 188.5Q238.5 187.0 241.5 184.0Q250.5 178.5 250.5 177.0Q250.5 177.0 249.5 176.5Q248.5 176.0 248.0 175.5ZM230.5 88.0Q226.0 89.0 220.25 91.5Q214.5 94.0 209.0 96.5Q200.5 100.5 196.0 104.75Q191.5 109.0 189.0 117.75Q186.5 126.5 183.5 145.0Q181.0 162.0 179.75 174.25Q178.5 186.5 178.5 195.0Q178.5 209.0 184.5 216.0Q190.5 223.0 205.0 235.5Q216.0 244.5 225.75 250.75Q235.5 257.0 240.0 259.0Q245.5 257.5 259.0 249.25Q272.5 241.0 289.5 230.0Q306.5 219.0 322.5 207.5Q338.5 196.0 349.0 187.5Q359.5 179.0 359.5 177.0H278.5L256.5 198.0Q247.5 206.0 241.25 213.25Q235.0 220.5 235.0 223.0Q235.0 233.5 225.0 233.5Q215.5 233.5 215.5 212.5Q215.5 207.5 216.5 195.0Q217.5 182.5 219.25 168.5Q221.0 154.5 224.0 144.25Q227.0 134.0 231.0 134.0Q234.5 134.0 237.0 137.25Q239.5 140.5 239.5 144.5Q239.5 150.0 247.5 152.5Q251.0 154.5 263.75 156.5Q276.5 158.5 292.25 159.75Q308.0 161.0 321.0 161.0Q329.5 161.0 335.25 160.25Q341.0 159.5 344.5 159.0Q343.0 156.5 329.5 145.0Q311.0 130.0 298.25 121.75Q285.5 113.5 275.25 108.5Q265.0 103.5 253.0 100.0Q230.5 94.5 230.5 88.0ZM397.0 189.0H400.5Q400.5 187.5 395.0 185.0L393.0 184.5Q393.0 185.0 392.75 185.0Q392.5 185.0 392.5 186.0Q392.5 189.0 397.0 189.0ZM295.5 67.5Q287.5 72.5 279.25 78.75Q271.0 85.0 271.0 86.5Q271.0 87.0 274.75 88.5Q278.5 90.0 282.5 91.0Q286.0 92.0 288.5 93.0Q291.0 94.0 292.5 94.5Q292.5 87.5 293.0 80.75Q293.5 74.0 295.5 67.5ZM400.0 78.0Q395.0 75.5 391.5 73.0Q388.0 70.5 388.0 70.5Q387.0 71.0 384.5 78.5Q382.0 86.0 380.0 94.5Q378.0 103.0 377.5 107.5Q379.0 107.0 383.5 107.0Q394.0 107.0 414.75 104.5Q435.5 102.0 454.5 99.5L443.5 96.0Q430.5 92.0 418.25 86.75Q406.0 81.5 400.0 78.0ZM535.5 54.5H519.0Q509.5 54.5 506.0 54.5Q502.5 54.5 502.5 55.0Q502.5 56.5 503.0 58.5Q504.5 62.5 506.5 69.0Q508.5 75.5 509.5 81.5Q510.0 86.5 511.25 89.0Q512.5 91.5 513.0 92.5Q516.0 91.0 521.75 82.0Q527.5 73.0 535.5 54.5ZM663.0 144.0Q629.0 137.5 600.25 131.75Q571.5 126.0 552.75 122.0Q534.0 118.0 530.0 117.0H529.5Q527.5 117.0 525.0 119.0Q522.5 121.0 521.0 123.0Q519.0 128.5 518.0 141.75Q517.0 155.0 517.0 169.0Q517.0 179.0 517.5 188.0Q518.0 197.0 519.0 200.5Q522.0 203.5 528.0 205.5Q534.0 207.5 545.0 207.5Q560.0 207.5 587.25 203.25Q614.5 199.0 654.0 192.5Q680.5 187.0 705.25 182.5Q730.0 178.0 748.0 174.75Q766.0 171.5 771.5 171.0Q774.0 170.0 779.25 169.5Q784.5 169.0 784.5 169.0Q784.5 169.0 767.75 165.5Q751.0 162.0 723.25 156.25Q695.5 150.5 663.0 144.0ZM10.0 378.5Q10.0 375.5 16.25 368.0Q22.5 360.5 32.25 351.0Q42.0 341.5 52.25 333.0Q62.5 324.5 70.75 318.75Q79.0 313.0 82.0 313.0Q89.0 313.0 89.0 325.5V332.5Q87.0 337.0 87.0 347.5Q87.0 351.0 87.5 355.0Q88.0 359.0 89.0 362.0Q90.0 370.0 96.5 377.0Q103.0 384.0 121.5 395.5Q120.0 391.5 119.5 384.25Q119.0 377.0 119.0 367.0V321.0Q119.0 302.5 118.25 296.5Q117.5 290.5 113.5 287.5Q103.0 280.0 103.0 275.0L104.5 271.0Q106.5 268.5 116.0 268.5Q124.5 268.5 136.5 269.75Q148.5 271.0 160.5 273.0Q172.5 275.0 180.5 277.25Q188.5 279.5 188.5 281.0Q188.5 285.5 185.5 287.75Q182.5 290.0 179.0 290.0Q176.5 290.0 170.5 293.5Q164.5 297.0 158.0 302.0Q151.5 307.0 146.75 311.25Q142.0 315.5 142.0 317.5Q161.0 329.0 176.0 334.75Q191.0 340.5 214.0 340.5Q216.5 340.5 219.0 340.25Q221.5 340.0 224.0 340.0Q222.0 338.0 217.25 330.5Q212.5 323.0 207.75 313.5Q203.0 304.0 199.5 295.75Q196.0 287.5 196.0 284.5V282.5Q196.5 279.0 200.0 277.5Q203.5 276.0 206.5 276.0H209.0Q210.5 276.5 212.0 276.5Q213.5 276.5 216.5 275.5Q218.0 274.0 220.5 274.0Q220.0 271.0 212.5 264.0Q205.0 257.0 194.0 248.75Q183.0 240.5 171.0 232.75Q159.0 225.0 149.25 220.0Q139.5 215.0 135.0 215.0H132.0Q126.0 216.5 121.5 216.5Q111.5 216.5 111.5 208.5Q111.5 204.5 118.75 197.75Q126.0 191.0 139.0 180.0Q149.0 171.5 156.75 163.5Q164.5 155.5 164.5 153.0Q164.5 150.5 165.5 146.0Q166.5 141.5 167.0 136.5Q167.0 135.0 167.25 132.75Q167.5 130.5 167.5 128.5Q168.0 125.5 168.5 122.5Q169.0 119.5 169.5 116.5Q171.0 104.5 171.0 98.5Q171.0 92.0 164.5 83.5Q158.0 75.0 151.5 75.0Q148.0 75.0 146.75 74.25Q145.5 73.5 145.5 70.0Q145.5 68.0 148.0 63.0Q152.0 60.0 170.0 60.0Q184.0 60.0 202.0 61.5Q220.0 63.0 235.25 65.0Q250.5 67.0 255.5 69.5Q260.0 68.0 271.0 61.25Q282.0 54.5 294.25 45.75Q306.5 37.0 315.25 29.5Q324.0 22.0 324.0 19.5Q324.0 10.0 332.0 10.0Q337.0 10.0 338.75 10.75Q340.5 11.5 340.5 16.0Q340.5 20.5 331.0 41.5L327.0 50.5Q310.5 81.0 310.5 94.0Q310.5 98.0 311.5 98.0Q321.0 98.0 321.0 108.5Q321.0 112.0 328.0 119.25Q335.0 126.5 344.75 134.5Q354.5 142.5 363.5 148.25Q372.5 154.0 376.0 154.5Q377.5 152.0 380.5 152.0Q388.0 152.0 404.5 167.0Q412.5 174.5 418.25 178.25Q424.0 182.0 432.5 183.25Q441.0 184.5 457.5 185.0Q465.0 185.5 471.5 185.75Q478.0 186.0 483.0 186.0H497.0Q497.5 185.0 497.5 174.5Q497.5 164.0 497.5 149.0V116.5H487.5Q475.0 116.5 457.5 118.25Q440.0 120.0 422.25 122.75Q404.5 125.5 390.75 128.25Q377.0 131.0 372.0 133.0Q365.0 139.0 359.5 139.0Q352.0 139.0 352.0 130.0Q352.0 125.0 353.5 118.0Q355.0 111.0 359.5 101.5Q363.5 90.5 366.25 78.75Q369.0 67.0 369.0 60.5Q369.0 41.5 380.5 41.5Q387.5 41.5 401.0 53.5Q405.0 57.5 416.5 63.25Q428.0 69.0 441.75 74.5Q455.5 80.0 467.75 83.75Q480.0 87.5 485.5 87.5Q488.0 87.5 490.25 86.75Q492.5 86.0 492.5 85.0Q492.5 80.5 488.0 72.0Q483.5 63.5 478.0 56.75Q472.5 50.0 469.0 50.0Q462.5 50.0 462.5 44.0Q462.5 40.5 465.0 38.0Q467.5 36.0 475.75 35.25Q484.0 34.5 495.0 34.5Q501.0 34.5 513.75 34.75Q526.5 35.0 540.25 36.25Q554.0 37.5 563.5 39.75Q573.0 42.0 573.0 46.0Q573.0 47.0 571.75 48.5Q570.5 50.0 569.5 51.0Q569.0 51.5 568.5 52.5Q568.0 53.5 567.0 54.0Q560.0 56.5 554.0 64.5Q548.0 72.5 544.25 81.75Q540.5 91.0 540.0 99.0Q541.0 99.5 544.0 100.0Q547.0 100.5 550.5 101.5Q562.5 104.0 584.0 108.75Q605.5 113.5 633.75 119.5Q662.0 125.5 693.0 132.0Q733.5 139.5 767.5 147.5Q801.5 155.5 822.25 161.5Q843.0 167.5 843.0 169.0Q843.0 171.0 827.25 175.25Q811.5 179.5 784.5 185.5Q757.5 191.5 724.0 198.0L609.0 220.0L573.0 247.5Q542.5 271.0 531.75 283.0Q521.0 295.0 521.0 304.5V313.0H644.5Q708.5 313.0 743.0 315.5Q777.5 318.0 777.5 321.0Q777.5 326.5 743.5 328.75Q709.5 331.0 646.5 331.0Q607.5 331.0 583.5 331.25Q559.5 331.5 546.5 331.75Q533.5 332.0 528.75 333.0Q524.0 334.0 523.0 335.5Q521.0 341.5 517.5 343.5Q514.0 345.5 511.5 345.5Q502.0 345.5 502.0 333.5Q502.0 331.5 493.0 331.5Q477.0 331.5 453.5 337.25Q430.0 343.0 404.75 352.0Q379.5 361.0 357.75 371.75Q336.0 382.5 324.0 392.5Q317.5 399.0 311.25 403.5Q305.0 408.0 304.0 408.0Q298.5 408.0 298.5 397.0Q298.5 394.0 298.75 388.0Q299.0 382.0 300.0 376.0L303.5 355.0L231.0 358.5Q199.5 360.0 174.5 362.25Q149.5 364.5 144.0 366.0Q137.5 371.5 137.5 382.5Q137.5 397.0 130.5 401.5Q133.0 403.0 135.25 404.5Q137.5 406.0 140.0 407.5Q160.5 420.0 175.75 430.75Q191.0 441.5 191.0 445.5L190.5 449.0L187.0 449.5Q182.5 449.5 164.5 440.75Q146.5 432.0 124.0 418.0Q89.0 398.0 70.0 389.25Q51.0 380.5 41.0 380.5Q34.0 380.5 29.5 382.5Q26.0 384.0 22.75 384.5Q19.5 385.0 17.5 385.0Q10.0 385.0 10.0 378.5Z" fill="black" /></svg>