<svg xmlns="http://www.w3.org/2000/svg" width="672.5" height="377.0" viewBox="0 0 672.5 377.0"><path d="M131.5 269.5 112.0 264.5Q99.5 261.0 83.0 254.5Q66.5 248.0 56.0 243.0L33.0 230.5V302.5Q50.5 295.5 68.0 289.0Q85.5 282.5 104.0 278.0ZM153.5 190.0 152.5 187.5V188.0L152.0 193.0Q153.0 192.0 153.0 191.25Q153.0 190.5 153.5 190.0ZM222.5 222.0Q215.0 218.0 204.0 213.0Q193.0 208.0 184.5 204.5Q176.0 201.0 176.0 201.0L169.0 206.5V232.0L169.5 256.5L199.0 257.5Q215.0 258.0 225.75 258.0Q236.5 258.0 236.5 258.0V231.0Q234.5 229.5 230.5 226.75Q226.5 224.0 222.5 222.0ZM236.0 202.5 234.5 194.0H207.0L197.0 194.5L236.5 214.5Q236.5 211.5 236.5 207.75Q236.5 204.0 236.0 202.5ZM235.5 171.5V160.0Q233.0 162.0 228.75 164.5Q224.5 167.0 220.0 170.0V169.0Q215.5 171.5 208.75 175.0Q202.0 178.5 202.0 178.5Q210.5 178.5 219.25 178.25Q228.0 178.0 231.5 178.0H234.5Q235.5 173.0 235.5 171.5ZM279.5 258.5 275.5 256.5 255.0 243.0V258.0H269.5ZM494.5 241.5Q496.0 238.0 497.25 235.25Q498.5 232.5 499.0 230.5Q495.0 232.5 487.25 237.5Q479.5 242.5 471.0 247.75Q462.5 253.0 456.75 257.0Q451.0 261.0 451.0 261.0Q453.5 262.0 457.25 263.25Q461.0 264.5 464.5 265.0Q470.5 266.0 477.25 268.0Q484.0 270.0 490.0 273.0Q490.0 272.0 488.5 269.0V266.0Q488.5 261.0 490.0 253.75Q491.5 246.5 494.5 241.5ZM490.0 273.0 490.5 272.5Q490.0 272.5 490.0 273.0ZM501.5 227.0V227.5H502.0ZM181.0 29.0Q174.0 27.0 157.0 27.0Q147.5 27.0 143.5 27.5Q139.5 28.0 139.5 29.5L140.5 32.0Q142.0 35.5 145.5 45.25Q149.0 55.0 152.5 66.0Q157.5 83.5 158.5 83.5Q158.5 83.5 159.25 82.0Q160.0 80.5 160.5 78.0Q163.0 73.0 167.0 64.25Q171.0 55.5 174.5 47.5Q181.0 35.0 181.0 29.0ZM186.5 122.0 168.0 117.0V127.0Q172.0 126.0 179.25 124.0Q186.5 122.0 186.5 122.0ZM167.0 171.5 174.5 178.0Q199.0 162.5 217.0 152.25Q235.0 142.0 235.0 142.0V130.5Q224.0 130.5 212.75 131.25Q201.5 132.0 191.0 136.0Q184.5 138.0 176.0 141.25Q167.5 144.5 167.5 144.5V148.5Q167.0 151.5 167.0 154.75Q167.0 158.0 167.0 162.0ZM260.0 32.0H229.5Q229.5 35.0 231.75 43.75Q234.0 52.5 237.25 61.5Q240.5 70.5 242.5 76.0Q246.0 71.5 250.0 62.5Q254.0 53.5 257.0 44.5Q260.0 35.5 260.0 32.0ZM255.0 128.5V130.5L259.0 128.5ZM323.0 146.5Q321.5 137.0 320.0 133.25Q318.5 129.5 314.5 128.75Q310.5 128.0 301.0 128.0H290.0L255.0 149.5V156.0Q254.5 161.0 254.5 167.5Q254.5 174.0 254.5 182.0V195.0L255.0 223.5Q257.5 225.0 261.0 227.25Q264.5 229.5 268.5 232.0Q272.5 235.0 276.5 237.5Q280.5 240.0 282.5 241.0Q287.0 243.5 292.75 248.0Q298.5 252.5 303.0 255.75Q307.5 259.0 307.5 259.0L323.5 260.0Q323.5 254.0 323.75 241.0Q324.0 228.0 324.5 213.5Q325.0 208.0 325.0 202.75Q325.0 197.5 325.0 192.5Q325.0 179.0 324.5 166.5Q324.0 154.0 323.0 146.5ZM348.0 31.5Q349.0 30.5 349.0 29.0Q349.0 28.0 344.75 27.5Q340.5 27.0 328.5 27.0H307.0L319.0 61.0Q323.0 71.5 325.5 79.0Q328.0 86.5 328.0 86.5Q328.0 86.5 330.5 80.0Q333.0 73.5 336.0 64.5L338.5 58.0Q344.0 40.0 348.0 31.5ZM547.5 108.5Q543.0 109.0 514.5 128.5L489.5 146.0L506.0 151.0Q525.0 157.0 529.5 157.0Q532.0 157.0 532.5 154.5Q533.0 152.0 533.0 146.5Q533.0 139.5 535.25 132.25Q537.5 125.0 541.0 120.0Q543.5 116.5 545.5 113.0Q547.5 109.5 547.5 108.5ZM118.5 14.5Q118.5 12.0 124.5 11.0Q130.5 10.0 139.5 10.0Q151.0 10.0 165.0 10.5Q179.0 11.0 190.25 12.0Q201.5 13.0 203.5 14.0V15.0Q203.5 17.5 199.5 28.0Q195.5 38.5 189.5 50.5Q184.5 61.0 179.5 72.5Q174.5 84.0 171.5 91.75Q168.5 99.5 168.5 99.5Q171.0 101.0 173.25 102.0Q175.5 103.0 178.0 104.0L180.5 105.0Q186.5 107.0 199.5 109.75Q212.5 112.5 220.0 113.0L233.5 113.5L231.5 99.5Q230.5 92.5 226.5 79.0Q222.5 65.5 218.5 53.0Q215.5 43.0 213.5 34.0Q211.5 25.0 211.5 21.5Q211.5 17.5 213.0 17.0Q214.0 16.0 219.25 15.75Q224.5 15.5 231.5 15.5Q241.0 15.5 251.5 16.25Q262.0 17.0 270.0 18.0Q278.0 19.0 279.5 21.0V22.5Q279.5 24.5 277.0 32.25Q274.5 40.0 270.5 48.5L269.5 51.5Q266.0 61.0 262.25 73.25Q258.5 85.5 257.5 92.5L255.0 113.5L286.5 114.0L316.5 113.5L313.0 97.5Q311.0 89.5 307.5 75.5Q304.0 61.5 300.0 50.5Q295.5 39.0 292.5 29.5Q289.5 20.0 289.0 18.0Q288.5 14.0 300.5 12.25Q312.5 10.5 327.5 10.5Q340.0 10.5 351.75 11.25Q363.5 12.0 368.5 14.0V13.0Q373.0 15.0 373.0 19.0Q373.0 22.5 370.75 27.0Q368.5 31.5 364.5 37.0Q355.0 50.5 350.0 66.75Q345.0 83.0 343.0 109.25Q341.0 135.5 341.0 179.5V260.0L385.5 257.5Q403.0 257.0 413.25 256.25Q423.5 255.5 431.0 253.0Q438.5 250.5 446.5 245.5Q454.5 240.5 467.5 231.0Q482.5 221.5 498.0 210.25Q513.5 199.0 520.0 193.0Q525.5 187.5 528.25 184.75Q531.0 182.0 531.0 180.5Q531.0 180.0 527.5 177.0Q522.0 174.0 508.75 169.5Q495.5 165.0 481.5 163.0L437.5 153.5L469.0 138.0Q481.0 131.5 497.75 120.75Q514.5 110.0 531.25 98.25Q548.0 86.5 560.25 76.5Q572.5 66.5 575.5 62.0Q582.5 52.0 588.5 52.0Q590.5 52.0 591.25 54.25Q592.0 56.5 592.0 57.5Q592.0 60.5 590.25 65.5Q588.5 70.5 584.5 75.0Q577.5 85.0 569.25 98.25Q561.0 111.5 555.5 125.25Q550.0 139.0 549.5 152.0Q550.5 156.5 553.25 159.75Q556.0 163.0 558.0 163.0Q565.5 163.0 565.5 170.0Q565.5 171.0 565.0 171.5V173.0Q566.0 176.0 576.25 184.25Q586.5 192.5 604.0 204.5Q632.0 223.0 647.25 236.75Q662.5 250.5 662.5 255.5Q662.5 260.0 657.5 260.0Q655.0 260.0 642.5 251.25Q630.0 242.5 614.5 231.5Q605.5 225.0 595.0 217.75Q584.5 210.5 575.75 204.5Q567.0 198.5 562.0 196.5L544.5 187.5Q540.0 193.5 533.25 203.25Q526.5 213.0 519.75 223.75Q513.0 234.5 508.5 244.0Q504.0 253.5 504.0 259.0Q504.0 266.5 510.25 276.25Q516.5 286.0 525.0 294.25Q533.5 302.5 539.0 305.5Q554.0 315.0 568.0 326.75Q582.0 338.5 591.25 348.25Q600.5 358.0 601.0 362.5Q600.5 363.0 600.5 364.0Q599.5 367.0 596.5 367.0Q593.0 367.0 587.25 363.25Q581.5 359.5 575.0 353.5Q564.0 344.0 548.75 333.0Q533.5 322.0 517.25 311.75Q501.0 301.5 486.5 293.75Q472.0 286.0 462.0 282.5Q451.0 279.0 432.0 277.0Q413.0 275.0 387.5 275.0H341.0V282.5Q341.5 286.5 341.5 291.25Q341.5 296.0 341.5 300.0Q341.5 316.5 339.25 328.25Q337.0 340.0 333.0 340.0Q329.5 340.0 327.5 332.75Q325.5 325.5 325.5 315.0Q325.5 313.0 325.0 307.25Q324.5 301.5 324.25 296.25Q324.0 291.0 324.0 291.0L304.0 275.5H301.0Q297.5 275.5 291.0 275.25Q284.5 275.0 277.0 275.0H255.0L253.0 301.5Q252.5 315.5 251.0 325.5Q249.5 335.5 245.5 335.5Q242.5 335.5 240.75 325.5Q239.0 315.5 238.0 301.5L236.0 274.5L206.0 275.5L171.5 278.0L168.0 318.0Q166.5 340.5 161.5 340.5Q159.0 340.5 157.25 333.0Q155.5 325.5 155.0 314.5Q154.5 300.0 153.5 290.5Q152.5 281.0 152.5 281.0Q149.0 282.0 141.0 284.25Q133.0 286.5 123.5 289.0L110.5 292.5Q94.0 297.5 76.5 303.5Q59.0 309.5 49.0 314.5Q25.0 325.0 16.5 325.0Q10.0 325.0 10.0 319.0Q10.0 316.0 13.0 311.0Q14.5 305.0 16.0 289.0Q17.5 273.0 17.5 254.5Q17.5 232.5 18.25 217.75Q19.0 203.0 22.0 203.0Q24.0 203.0 32.5 209.0L36.5 211.5Q63.0 229.5 92.0 241.25Q121.0 253.0 153.0 254.5V251.0Q153.5 248.0 153.5 243.5Q153.5 239.0 153.5 234.0V215.0Q150.5 216.5 146.75 217.75Q143.0 219.0 139.0 219.0Q134.0 219.0 134.0 214.0Q134.0 211.5 135.5 208.0Q136.5 204.0 137.5 195.75Q138.5 187.5 138.5 179.5Q138.5 168.0 140.0 163.5Q141.5 159.0 145.5 159.0Q147.5 159.0 149.5 160.0Q151.0 160.5 152.25 161.5Q153.5 162.5 153.5 162.5V150.5L149.5 152.5H148.5Q148.0 153.0 147.0 153.0Q142.5 153.0 140.75 146.25Q139.0 139.5 139.0 121.0V88.0L141.0 87.0Q142.0 87.0 144.5 88.25Q147.0 89.5 147.0 89.5L146.5 88.5Q146.5 88.5 143.25 80.25Q140.0 72.0 136.0 61.5Q132.0 51.0 128.5 45.0Q127.0 36.5 123.0 27.5Q118.5 16.5 118.5 14.5Z" fill="black" /></svg>