<svg xmlns="http://www.w3.org/2000/svg" width="653.5" height="311.5" viewBox="0 0 653.5 311.5"><path d="M85.0 173.0 74.0 167.0Q68.0 163.5 60.0 155.5Q52.0 147.5 47.0 141.0L41.5 131.5L38.0 158.5Q36.5 174.0 34.75 189.25Q33.0 204.5 32.0 211.5L31.0 218.0L41.5 208.0Q49.0 201.0 58.75 193.0Q68.5 185.0 74.5 181.0ZM248.5 112.5Q250.5 109.5 252.25 106.75Q254.0 104.0 255.5 101.5Q249.0 107.0 239.75 115.5Q230.5 124.0 220.5 133.0L182.5 166.5L200.5 169.5Q213.5 171.0 225.5 171.0Q227.0 169.0 228.75 163.75Q230.5 158.5 231.5 153.0Q232.5 145.5 237.75 133.5Q243.0 121.5 248.5 112.5ZM296.5 142.0 295.0 139.0Q294.0 138.0 293.5 137.5Q293.0 137.0 293.0 137.0Q291.0 137.0 289.25 145.25Q287.5 153.5 286.0 164.0Q284.5 174.5 284.0 180.5Q286.5 179.5 290.25 178.25Q294.0 177.0 298.0 175.5Q301.5 174.5 305.5 173.0Q306.5 172.5 308.0 171.75Q309.5 171.0 311.0 170.5L332.0 162.0L320.5 157.0Q312.5 153.5 305.5 149.0Q298.5 144.5 296.5 142.0ZM473.5 206.0Q475.5 206.0 478.25 199.75Q481.0 193.5 483.25 186.25Q485.5 179.0 486.0 176.0Q484.0 178.0 478.75 181.5Q473.5 185.0 467.0 189.0L450.5 198.5L461.0 202.0Q465.0 204.0 468.25 205.0Q471.5 206.0 473.5 206.0ZM551.5 107.0Q553.5 103.5 556.25 99.75Q559.0 96.0 561.5 92.5Q557.0 96.0 549.0 102.5Q541.0 109.0 532.5 116.25Q524.0 123.5 518.0 128.75Q512.0 134.0 511.0 135.0V136.0Q511.0 136.0 512.75 136.25Q514.5 136.5 516.5 136.5Q520.5 136.5 527.0 137.5Q533.5 138.5 538.5 140.0Q541.5 141.5 543.0 141.5Q545.0 141.5 546.0 142.0L545.5 141.0V138.5Q545.0 137.5 545.0 134.0Q545.0 130.0 546.75 122.25Q548.5 114.5 551.5 107.0ZM309.0 18.0Q309.0 10.0 317.5 10.0Q325.0 10.0 325.0 18.5Q325.0 27.5 312.0 45.5Q300.0 60.0 288.5 78.0Q277.0 96.0 267.75 114.0Q258.5 132.0 253.0 146.75Q247.5 161.5 247.5 169.5Q247.5 174.0 248.5 174.0Q255.0 174.0 255.0 179.0Q255.0 183.0 252.5 187.0Q251.5 188.0 251.5 190.5Q252.5 199.0 274.0 222.0Q285.5 234.0 295.75 247.25Q306.0 260.5 312.5 271.0Q319.0 281.5 319.0 285.5Q319.0 290.5 314.0 290.5Q314.0 290.5 313.25 290.25Q312.5 290.0 312.0 290.0Q309.5 289.0 301.25 279.75Q293.0 270.5 283.5 259.0Q259.5 228.0 229.75 206.25Q200.0 184.5 160.0 180.5Q152.0 179.0 144.5 178.25Q137.0 177.5 132.0 177.0H129.0Q128.5 176.5 127.0 176.5Q111.5 176.5 89.75 190.75Q68.0 205.0 43.0 233.0Q32.5 243.0 24.0 250.0Q15.5 257.0 13.5 257.0H12.0Q10.0 255.0 10.0 250.5Q10.0 247.5 10.75 240.25Q11.5 233.0 13.5 225.5Q15.5 213.5 18.0 189.25Q20.5 165.0 22.0 142.0Q23.5 118.0 26.25 100.5Q29.0 83.0 33.5 83.0Q35.0 83.0 39.25 89.5Q43.5 96.0 46.0 104.5Q48.5 111.5 55.25 122.25Q62.0 133.0 68.5 139.0Q77.5 148.0 82.75 152.0Q88.0 156.0 97.25 156.75Q106.5 157.5 126.0 157.5H167.0L223.0 106.5Q265.0 69.5 287.0 46.75Q309.0 24.0 309.0 18.0ZM587.0 45.5V45.0Q589.0 41.5 592.75 39.0Q596.5 36.5 601.0 36.5Q609.5 36.5 609.5 41.5Q609.5 44.0 603.5 53.0Q592.5 69.5 583.25 84.5Q574.0 99.5 568.5 110.25Q563.0 121.0 562.5 124.5Q562.0 125.5 562.0 127.25Q562.0 129.0 562.0 130.5Q562.0 141.5 570.5 153.75Q579.0 166.0 593.0 177.0Q614.5 192.5 629.0 207.75Q643.5 223.0 643.5 229.5Q643.5 233.0 641.5 234.0L638.0 235.5Q630.5 233.5 618.5 221.0Q616.0 218.0 607.5 211.0Q599.0 204.0 587.5 195.25Q576.0 186.5 564.25 178.0Q552.5 169.5 542.75 163.25Q533.0 157.0 528.5 155.5L529.0 157.5V157.0Q529.5 158.5 529.5 161.0Q529.5 165.0 527.25 167.0Q525.0 169.0 518.5 169.0Q509.5 169.0 502.5 185.5Q499.0 189.5 497.75 194.5Q496.5 199.5 496.5 204.0Q496.5 209.0 498.5 212.5Q500.5 216.0 504.5 216.0Q508.0 216.0 510.5 218.0Q513.0 220.0 513.0 223.0V225.5L512.0 226.5Q513.0 228.5 516.25 232.5Q519.5 236.5 524.5 239.0Q535.0 245.0 546.75 253.75Q558.5 262.5 568.5 271.5Q578.5 280.5 585.0 287.5Q591.5 294.5 591.5 297.0V298.5Q590.5 301.5 587.5 301.5Q584.0 300.5 575.25 295.75Q566.5 291.0 556.5 283.0Q524.5 256.5 494.75 239.75Q465.0 223.0 438.5 213.5L396.0 198.5L425.0 189.5Q432.5 186.5 443.5 182.0Q454.5 177.5 460.5 174.0L467.0 169.0H420.5Q391.0 169.0 371.25 171.25Q351.5 173.5 334.5 179.25Q317.5 185.0 297.0 195.5L294.0 197.0Q286.0 200.5 281.0 203.0Q276.0 205.5 272.5 205.5Q265.5 205.5 265.5 196.0Q265.5 195.0 266.0 192.25Q266.5 189.5 266.5 187.5Q267.0 186.5 267.0 184.0Q267.0 181.5 267.5 179.5Q268.5 171.0 270.25 156.75Q272.0 142.5 272.5 133.0Q272.5 120.5 275.25 112.75Q278.0 105.0 281.0 104.5Q286.5 105.0 289.0 113.5H289.5Q290.5 116.5 298.5 122.5Q306.5 128.5 316.0 134.5Q326.0 140.0 336.5 143.0Q347.0 146.0 364.75 147.5Q382.5 149.0 414.0 150.5Q426.5 151.0 438.25 151.75Q450.0 152.5 460.5 152.5Q475.0 152.5 485.5 151.25Q496.0 150.0 498.0 149.5H498.5Q495.0 148.5 488.0 148.0L457.0 143.5L482.0 130.5Q489.5 126.5 501.75 117.25Q514.0 108.0 528.25 97.0Q542.5 86.0 555.5 75.0Q568.5 64.0 577.25 56.0Q586.0 48.0 587.0 45.5Z" fill="black" /></svg>