<svg xmlns="http://www.w3.org/2000/svg" width="391.5" height="381.0" viewBox="0 0 391.5 381.0"><path d="M70.5 273.0Q67.5 271.0 64.5 269.25Q61.5 267.5 59.0 265.5Q58.0 264.5 56.5 263.5Q55.0 262.5 54.0 262.0Q54.0 262.5 53.75 263.5Q53.5 264.5 53.0 266.0Q52.0 269.0 50.5 272.75Q49.0 276.5 47.5 281.0Q47.0 282.5 46.75 284.5Q46.5 286.5 46.0 288.0Q45.5 290.0 45.0 291.75Q44.5 293.5 43.5 295.5Q42.5 299.5 42.0 301.0Q41.5 303.0 41.0 304.75Q40.5 306.5 40.0 307.5Q41.5 308.0 50.75 308.5Q60.0 309.0 75.5 309.0Q91.5 309.5 111.25 311.0Q131.0 312.5 140.5 314.0Q147.0 315.0 152.75 315.75Q158.5 316.5 162.0 317.0L164.5 317.5Q156.0 315.5 142.75 310.25Q129.5 305.0 115.25 298.25Q101.0 291.5 89.0 284.75Q77.0 278.0 70.5 273.0ZM311.5 166.5 306.0 138.0 282.0 141.0Q272.0 142.0 260.75 144.25Q249.5 146.5 244.0 149.0L240.0 150.5Q235.5 152.5 231.5 153.75Q227.5 155.0 226.5 155.0Q224.5 155.0 223.0 147.25Q221.5 139.5 221.5 127.0Q221.5 123.0 221.5 118.0Q221.5 113.0 222.0 108.0L224.5 67.0L219.5 70.0Q210.5 76.5 205.75 88.5Q201.0 100.5 199.0 124.0Q198.0 137.0 196.0 146.0Q194.0 155.0 191.5 155.0Q189.5 155.0 187.0 147.0Q184.5 139.0 183.5 128.5Q182.5 119.5 179.5 109.25Q176.5 99.0 174.0 94.5Q171.0 88.5 167.75 86.25Q164.5 84.0 156.5 83.25Q148.5 82.5 132.0 82.0H122.0Q70.5 82.0 57.5 98.0Q53.0 103.0 50.25 109.0Q47.5 115.0 47.5 119.0V119.5Q53.5 119.5 53.5 128.5Q53.5 134.0 64.5 143.75Q75.5 153.5 89.5 161.5Q96.5 165.0 108.0 168.25Q119.5 171.5 131.75 173.75Q144.0 176.0 153.0 176.5Q151.5 174.0 147.0 170.5Q142.5 167.0 137.0 165.5Q134.0 163.5 134.0 160.5Q134.0 158.0 136.5 156.5Q138.0 155.0 146.0 155.0Q159.5 155.0 181.0 157.5L193.5 158.5Q206.5 160.0 218.0 161.0Q229.5 162.0 233.0 162.0Q248.5 162.0 248.5 170.0Q248.5 177.0 243.0 177.0Q241.0 177.0 240.0 176.0Q238.5 174.5 235.0 174.5Q224.5 174.5 217.75 184.75Q211.0 195.0 207.0 211.0Q203.0 227.0 201.0 244.0Q199.0 261.0 198.25 275.0Q197.5 289.0 197.5 295.5V318.5L216.5 324.0Q250.0 333.5 275.25 339.75Q300.5 346.0 307.0 346.5Q307.5 345.0 307.5 338.0Q307.5 336.0 307.5 333.5Q307.5 331.0 307.0 329.0V315.0L304.5 287.5L271.5 289.0Q256.0 289.5 243.0 291.5Q230.0 293.5 225.0 296.0Q214.5 300.5 210.5 300.5H208.5Q206.0 296.5 206.0 276.5Q206.0 260.0 207.5 228.0Q208.0 219.5 210.25 214.25Q212.5 209.0 215.5 209.0Q221.0 209.0 221.0 217.0Q221.0 220.5 229.0 223.5Q237.0 226.5 248.5 228.25Q260.0 230.0 270.5 231.0Q281.0 232.0 286.0 232.0Q294.5 232.0 294.5 230.5Q294.5 225.5 289.25 214.75Q284.0 204.0 277.25 193.5Q270.5 183.0 265.5 179.0Q261.0 175.5 258.5 171.5Q256.0 167.5 256.0 166.0V164.5Q258.5 163.0 263.5 163.0Q269.0 163.0 279.5 163.75Q290.0 164.5 301.5 166.0Q304.0 166.0 306.5 166.25Q309.0 166.5 311.5 166.5ZM231.0 280.0 238.0 279.0Q230.0 274.0 224.5 274.0Q221.5 274.0 219.5 277.5Q218.0 279.0 218.0 281.5Q224.5 281.5 231.0 280.0ZM90.0 177.5 80.5 171.5Q73.5 167.5 65.25 162.25Q57.0 157.0 54.0 154.0L49.0 148.5L47.5 154.0Q43.5 178.0 43.5 187.0Q43.5 187.5 43.5 188.25Q43.5 189.0 43.5 189.5Q53.0 185.5 65.0 181.5Q77.0 177.5 86.5 177.5ZM210.5 174.5 200.0 172.5Q193.5 171.5 185.5 170.0Q177.5 168.5 172.5 168.0Q170.5 167.5 168.75 167.5Q167.0 167.5 166.0 167.5H163.5Q163.5 168.0 165.25 170.25Q167.0 172.5 169.0 175.5Q169.5 176.0 169.75 176.5Q170.0 177.0 170.0 177.0L171.5 178.5Q176.0 185.5 176.5 189.5Q176.5 191.5 177.75 196.0Q179.0 200.5 181.0 206.0L182.0 208.5Q182.5 210.0 183.0 211.5Q183.5 213.0 184.0 215.0Q189.0 228.5 191.0 228.5Q192.5 228.5 192.5 215.5Q192.5 211.0 195.5 202.5Q198.5 194.0 203.0 187.5ZM231.0 241.5 238.5 240.0Q230.0 235.0 224.0 235.0Q220.0 235.0 219.0 237.5Q218.5 239.5 218.25 240.5Q218.0 241.5 218.0 242.5Q218.0 242.5 218.5 242.75Q219.0 243.0 220.0 243.0Q223.5 243.0 231.0 241.5ZM303.0 259.5 302.0 249.5H275.5Q255.0 250.0 238.0 252.5Q221.0 255.0 221.0 258.5Q221.0 260.5 229.25 263.0Q237.5 265.5 249.75 268.0Q262.0 270.5 274.5 272.0Q287.0 273.5 295.5 273.5Q301.5 273.5 303.5 272.5V271.5Q303.5 271.0 303.75 270.5Q304.0 270.0 304.0 269.5Q304.0 267.5 303.75 264.75Q303.5 262.0 303.0 259.5ZM335.5 183.0 317.0 181.0Q308.0 180.0 299.5 178.5Q291.0 177.0 287.5 176.5Q286.5 176.0 284.0 176.0H283.5Q284.0 179.0 288.5 184.0Q292.0 187.5 296.0 197.5Q300.0 207.5 303.5 218.0Q311.5 244.0 313.0 245.0Q313.5 244.0 314.25 240.75Q315.0 237.5 316.0 233.5Q317.0 226.5 320.75 215.75Q324.5 205.0 328.0 198.0ZM100.0 68.5H105.0L86.5 57.5Q80.0 53.5 73.25 49.25Q66.5 45.0 64.0 43.0Q63.0 42.0 62.25 41.25Q61.5 40.5 61.0 40.0Q61.0 43.0 60.25 50.25Q59.5 57.5 58.0 64.5V66.5Q57.5 70.5 56.75 73.75Q56.0 77.0 56.0 79.5Q62.5 78.5 71.0 74.5Q77.0 72.0 85.5 70.25Q94.0 68.5 100.0 68.5ZM203.5 62.0Q200.0 61.5 195.5 61.5Q191.0 61.5 185.5 61.5H169.0L189.0 92.5L195.5 78.5Q198.0 73.5 200.25 69.25Q202.5 65.0 203.5 62.0ZM253.5 93.0Q243.5 89.5 239.5 89.5Q237.5 89.5 236.0 92.0Q234.5 94.5 234.5 96.5Q234.5 97.5 237.0 97.5Q239.0 97.5 242.0 97.0Q245.0 96.5 249.0 95.0Q251.0 94.5 252.25 94.25Q253.5 94.0 254.5 93.5Q254.5 93.5 254.25 93.25Q254.0 93.0 253.5 93.0ZM255.5 131.0Q252.5 130.5 249.0 130.0Q245.5 129.5 243.0 129.0Q241.5 128.5 239.5 128.5Q237.5 128.5 236.0 131.5Q234.5 134.5 234.5 137.0Q238.5 137.0 245.25 135.0Q252.0 133.0 255.5 131.0ZM305.5 127.0 304.5 115.5Q304.0 106.5 301.75 104.5Q299.5 102.5 291.0 102.0Q284.5 102.0 277.5 102.25Q270.5 102.5 267.5 103.5Q254.5 106.5 246.75 109.0Q239.0 111.5 238.5 113.5Q241.0 116.0 255.0 119.25Q269.0 122.5 288.5 124.5ZM50.0 28.0Q53.0 10.0 58.5 10.0Q63.0 10.0 67.5 23.0Q71.5 31.5 85.0 41.0Q98.5 50.5 115.25 57.0Q132.0 63.5 145.0 64.0H146.0L144.0 63.0Q130.5 55.5 130.5 51.0Q130.5 45.5 143.5 45.5Q146.5 45.5 151.0 45.75Q155.5 46.0 159.5 46.5Q170.5 47.0 188.0 48.5Q205.5 50.0 218.0 51.0Q232.0 52.0 242.0 54.5Q252.0 57.0 252.0 59.5Q252.0 63.0 248.5 64.5Q245.0 66.0 240.0 66.0Q234.5 66.0 234.5 67.5Q234.5 72.0 243.25 75.5Q252.0 79.0 264.25 81.5Q276.5 84.0 287.0 85.5Q297.5 87.0 301.0 87.0H301.5Q300.5 82.0 294.75 72.25Q289.0 62.5 282.25 53.5Q275.5 44.5 271.0 42.0Q266.5 39.5 262.75 36.0Q259.0 32.5 259.0 30.0Q259.0 26.5 275.5 26.5Q286.0 26.5 300.0 27.0Q314.0 27.5 328.25 28.25Q342.5 29.0 353.5 30.0Q364.5 31.0 368.5 32.0Q375.5 34.0 375.5 37.5Q375.5 45.5 357.5 45.5Q349.0 45.5 342.0 52.25Q335.0 59.0 331.25 68.25Q327.5 77.5 327.5 85.5Q327.5 88.0 333.5 88.0Q346.5 88.0 346.5 94.0Q346.5 100.0 334.0 101.5Q328.0 102.5 326.0 105.0Q324.0 107.5 323.0 114.5V120.5Q323.0 124.5 324.25 125.5Q325.5 126.5 329.5 126.5Q344.0 126.5 344.0 132.5Q344.0 138.5 331.5 140.0Q324.5 141.0 322.0 143.0Q319.5 145.0 318.5 153.0L316.5 167.0Q319.5 167.5 322.5 167.75Q325.5 168.0 328.0 168.0Q330.5 168.5 333.5 168.75Q336.5 169.0 338.5 169.5Q341.5 169.5 345.5 170.5Q349.0 171.0 351.5 171.25Q354.0 171.5 355.5 171.5Q374.0 173.0 377.75 174.0Q381.5 175.0 381.5 180.0Q381.5 183.0 375.75 184.5Q370.0 186.0 362.0 187.0Q352.5 188.0 348.75 190.5Q345.0 193.0 339.5 203.0Q336.0 209.0 333.0 219.75Q330.0 230.5 329.0 238.5L328.5 241.5Q328.0 249.5 326.75 257.25Q325.5 265.0 324.0 268.5Q323.5 269.0 323.5 271.0Q323.5 273.5 326.0 276.0Q331.0 279.0 331.0 281.5Q331.0 284.5 326.5 287.0Q321.5 290.5 320.0 319.5L319.0 330.5Q319.0 334.0 318.75 336.25Q318.5 338.5 318.5 340.5Q318.5 348.5 322.5 350.75Q326.5 353.0 338.0 355.5L343.5 357.0Q350.5 359.0 355.25 362.25Q360.0 365.5 360.0 367.5V368.5Q358.5 371.0 353.5 371.0Q343.5 371.0 327.0 366.0Q311.5 362.0 287.75 357.0Q264.0 352.0 236.75 346.75Q209.5 341.5 183.0 336.5Q156.5 331.5 135.0 328.0Q113.5 324.5 101.0 323.0Q90.0 322.0 80.75 321.5Q71.5 321.0 64.5 321.0Q47.5 321.0 39.0 324.75Q30.5 328.5 25.0 337.5L24.0 338.5Q17.5 349.0 14.5 349.0Q11.5 349.0 10.0 341.5Q10.0 336.0 11.5 330.75Q13.0 325.5 17.0 320.5Q20.5 316.5 26.25 303.25Q32.0 290.0 37.0 275.5Q44.0 255.0 48.75 244.25Q53.5 233.5 57.0 233.5Q61.0 233.5 61.0 242.5Q61.0 248.0 71.75 256.5Q82.5 265.0 99.0 274.25Q115.5 283.5 132.75 291.75Q150.0 300.0 163.0 305.25Q176.0 310.5 180.0 310.5Q185.0 310.5 185.0 298.0Q184.5 285.5 182.0 269.25Q179.5 253.0 176.25 237.0Q173.0 221.0 169.0 210.0L161.5 190.5H119.0Q79.5 190.5 61.0 196.25Q42.5 202.0 39.0 216.0Q38.0 222.0 34.5 226.0Q31.0 230.0 29.0 230.0Q24.0 227.5 24.0 223.0V221.5Q26.0 215.5 28.5 201.75Q31.0 188.0 33.25 171.75Q35.5 155.5 37.0 141.75Q38.5 128.0 38.5 121.5Q38.5 111.0 39.5 101.0Q40.5 91.0 42.0 80.5Q44.5 66.0 47.0 50.5Q49.5 35.0 50.0 28.0ZM173.5 323.0 174.5 322.5H173.5Z" fill="black" /></svg>