<svg xmlns="http://www.w3.org/2000/svg" width="465.5" height="460.5" viewBox="0 0 465.5 460.5"><path d="M66.5 115.5 65.0 117.0Q65.5 116.5 65.5 115.5Q65.5 114.5 62.5 114.0Q59.5 113.5 51.0 113.5Q39.0 113.5 37.0 114.5H37.5Q38.0 117.5 40.25 125.0Q42.5 132.5 45.5 140.5Q48.0 145.5 49.5 150.0Q51.0 154.5 51.0 154.5Q52.0 154.5 53.25 150.75Q54.5 147.0 56.5 142.0Q58.0 135.5 60.5 128.0Q63.0 120.5 66.5 115.5ZM150.5 176.0Q147.0 178.0 138.5 184.75Q130.0 191.5 117.0 201.5L90.5 224.5L106.5 229.0Q115.0 231.5 120.75 233.0Q126.5 234.5 130.0 234.5Q133.0 234.5 133.0 224.5V222.0Q133.0 216.0 135.75 206.25Q138.5 196.5 143.0 190.0Q145.5 186.0 147.5 182.0Q149.5 178.0 150.5 176.0ZM224.5 192.5Q227.0 188.5 228.75 184.75Q230.5 181.0 232.0 178.5Q228.5 181.0 223.5 185.0Q218.5 189.0 212.0 193.5Q210.0 195.5 207.0 197.25Q204.0 199.0 201.0 201.5L172.0 224.5L190.0 229.0Q197.0 230.5 202.5 231.75Q208.0 233.0 211.0 233.0Q215.5 233.0 215.5 229.5Q215.5 228.5 215.5 227.25Q215.5 226.0 215.0 225.5Q215.0 217.0 218.0 208.75Q221.0 200.5 224.5 192.5ZM316.0 194.5Q317.0 193.0 318.0 191.5Q319.0 190.0 319.5 188.5Q312.5 193.5 301.5 202.25Q290.5 211.0 282.25 218.75Q274.0 226.5 274.0 228.5Q274.0 231.0 295.0 234.5Q299.0 235.0 301.75 235.75Q304.5 236.5 306.5 236.5Q308.5 236.5 308.5 226.0Q308.5 219.5 310.75 210.75Q313.0 202.0 316.0 194.5ZM86.5 41.0Q80.5 36.5 77.5 36.5Q74.5 36.5 74.5 58.5Q74.5 70.0 74.75 75.0Q75.0 80.0 76.0 80.0L78.5 78.5Q79.5 78.0 82.5 77.0Q84.5 76.5 86.5 75.5Q88.5 74.5 91.0 74.0L99.0 71.5Q102.0 70.0 106.25 68.75Q110.5 67.5 114.0 66.0L133.0 58.5L119.5 54.0Q110.0 52.5 100.5 48.5Q91.0 44.5 86.5 41.0ZM426.5 34.5Q424.0 34.5 414.5 35.0Q405.0 35.5 392.0 35.5H359.0L364.5 49.0Q367.5 57.0 372.75 72.5Q378.0 88.0 382.5 102.5Q386.0 117.5 389.25 127.5Q392.5 137.5 392.5 137.5Q392.5 135.0 395.0 120.0L395.5 117.0Q396.5 108.5 401.75 92.75Q407.0 77.0 412.0 64.0Q417.5 54.0 421.5 45.75Q425.5 37.5 426.5 34.5ZM119.0 387.5 105.5 384.5Q96.0 382.0 81.5 376.0Q67.0 370.0 56.5 364.0L36.5 353.5V419.0L50.0 413.5Q57.0 409.5 71.75 404.0Q86.5 398.5 99.0 395.0ZM10.0 105.0Q10.0 102.5 16.25 101.25Q22.5 100.0 31.25 99.5Q40.0 99.0 47.5 98.75Q55.0 98.5 57.0 98.5Q57.0 93.5 57.25 81.25Q57.5 69.0 58.0 54.0Q59.0 30.5 61.25 20.25Q63.5 10.0 68.5 10.0Q70.5 10.0 72.75 12.25Q75.0 14.5 78.0 17.5Q80.5 20.5 89.0 25.5Q97.5 30.5 106.5 34.5Q114.0 38.0 121.75 40.25Q129.5 42.5 140.5 43.75Q151.5 45.0 169.25 45.75Q187.0 46.5 214.5 47.5Q230.5 48.0 246.25 48.0Q262.0 48.0 275.0 48.0Q292.0 48.0 304.75 47.75Q317.5 47.5 323.0 46.5Q343.5 44.5 343.5 41.0Q343.5 39.5 342.75 36.0Q342.0 32.5 339.5 27.5L338.5 25.5V25.0Q338.5 18.0 374.0 18.0H395.5Q405.5 18.5 414.5 19.0Q423.5 19.5 431.5 20.0Q435.5 20.5 439.0 20.5Q442.5 20.5 445.5 21.0L455.0 21.5L455.5 25.0Q455.5 27.0 452.75 31.0Q450.0 35.0 446.5 39.5Q439.5 46.0 431.75 60.5Q424.0 75.0 418.0 92.25Q412.0 109.5 408.5 125.5Q407.0 136.5 406.0 162.25Q405.0 188.0 405.0 228.5Q405.0 244.0 405.0 261.75Q405.0 279.5 405.5 300.0Q406.5 316.0 406.5 332.25Q406.5 348.5 406.5 363.0Q406.5 401.5 404.75 426.0Q403.0 450.5 400.5 450.5Q397.0 450.5 395.25 440.75Q393.5 431.0 392.5 417.5L392.0 391.5H275.5Q242.0 391.5 219.5 391.75Q197.0 392.0 182.25 392.75Q167.5 393.5 157.0 395.0Q146.5 396.5 137.25 398.75Q128.0 401.0 116.5 404.5Q112.0 406.5 106.75 408.25Q101.5 410.0 97.0 412.5Q83.0 417.5 69.75 422.25Q56.5 427.0 49.5 431.0L17.5 446.5L20.5 386.5Q21.0 368.5 21.5 353.75Q22.0 339.0 22.5 333.0V327.0L26.0 326.5Q28.0 326.5 36.25 331.25Q44.5 336.0 54.0 343.0Q66.0 351.0 76.75 356.75Q87.5 362.5 101.25 365.75Q115.0 369.0 135.25 370.75Q155.5 372.5 186.0 373.0Q216.5 373.5 262.0 373.5H394.5L392.0 354.0Q389.5 342.5 384.25 333.25Q379.0 324.0 368.5 314.0Q353.5 298.0 334.5 283.25Q315.5 268.5 298.25 258.0Q281.0 247.5 271.0 245.5Q254.0 242.0 245.75 239.5Q237.5 237.0 237.5 233.0Q237.5 230.5 241.0 228.0Q244.5 225.5 249.5 222.0Q259.0 215.5 274.25 203.0Q289.5 190.5 305.75 175.75Q322.0 161.0 335.25 148.0Q348.5 135.0 354.0 128.0Q357.0 123.5 360.25 121.25Q363.5 119.0 365.0 119.0Q368.5 119.0 368.5 125.0Q368.5 128.0 367.25 133.0Q366.0 138.0 362.0 144.5Q355.0 154.5 345.75 170.5Q336.5 186.5 329.75 203.25Q323.0 220.0 322.5 233.0Q323.5 236.5 324.25 239.0Q325.0 241.5 325.5 241.5Q331.5 241.5 331.5 247.5Q331.5 249.5 330.5 251.5V252.5Q330.5 255.0 339.25 264.0Q348.0 273.0 362.0 284.5L388.5 309.0V251.0Q388.5 224.5 386.75 203.5Q385.0 182.5 381.5 162.0Q378.0 141.5 371.5 117.0Q365.5 92.5 360.5 80.75Q355.5 69.0 345.5 65.0Q335.5 61.0 313.5 61.0H285.5Q281.5 61.5 276.5 61.5Q271.5 61.5 266.5 61.5Q225.0 62.5 195.75 65.25Q166.5 68.0 142.75 74.0Q119.0 80.0 92.5 90.5L78.5 96.0Q76.5 96.5 74.25 97.25Q72.0 98.0 70.0 99.0Q80.0 99.5 86.5 100.5Q93.0 101.5 93.0 103.5Q93.0 105.0 88.5 112.25Q84.0 119.5 78.5 128.0Q71.5 139.0 68.25 150.25Q65.0 161.5 64.0 185.0Q64.0 197.5 64.0 207.75Q64.0 218.0 63.0 221.0Q67.0 220.0 78.25 212.25Q89.5 204.5 104.75 192.75Q120.0 181.0 135.5 168.25Q151.0 155.5 163.5 144.0Q176.0 132.5 182.0 125.5Q186.0 120.5 190.0 118.25Q194.0 116.0 196.0 116.0Q201.0 116.0 201.0 121.5Q201.0 124.5 198.0 130.75Q195.0 137.0 189.0 144.5Q185.5 148.5 178.75 158.5Q172.0 168.5 165.0 180.25Q158.0 192.0 153.25 202.5Q148.5 213.0 148.5 218.0Q154.0 216.5 166.0 208.0Q178.0 199.5 193.25 187.5Q208.5 175.5 223.25 163.0Q238.0 150.5 249.0 140.5Q260.0 130.5 263.5 126.0Q269.0 120.5 273.0 117.0Q277.0 113.5 279.0 113.5Q283.0 113.5 283.0 118.5Q283.0 121.0 279.75 128.75Q276.5 136.5 269.5 146.0Q259.5 161.5 250.25 178.0Q241.0 194.5 235.0 207.25Q229.0 220.0 229.0 224.5Q229.0 226.5 230.75 230.25Q232.5 234.0 235.0 236.5Q238.0 238.5 239.0 241.75Q240.0 245.0 240.0 248.5Q242.0 252.5 250.25 261.25Q258.5 270.0 270.5 279.5Q292.5 298.0 305.0 312.5Q317.5 327.0 317.5 333.0Q317.5 334.0 316.25 336.0Q315.0 338.0 313.5 338.0Q311.0 337.5 304.5 332.75Q298.0 328.0 292.5 321.5Q286.0 314.5 272.0 302.75Q258.0 291.0 242.25 278.5Q226.5 266.0 213.25 257.0Q200.0 248.0 194.5 246.0Q189.0 244.0 183.5 242.75Q178.0 241.5 172.0 240.5Q170.0 239.5 167.75 239.25Q165.5 239.0 163.5 238.5H161.0Q158.5 238.0 156.25 237.75Q154.0 237.5 152.5 237.5Q157.5 244.0 157.5 253.0Q157.5 256.0 162.5 260.25Q167.5 264.5 175.0 270.0Q183.5 276.0 194.25 285.75Q205.0 295.5 214.75 305.75Q224.5 316.0 231.0 323.75Q237.5 331.5 237.5 334.5L236.5 337.0L234.5 338.0Q231.0 338.0 219.75 330.0Q208.5 322.0 197.0 311.0Q165.0 281.5 137.0 263.5Q109.0 245.5 88.5 241.5Q79.0 239.0 72.0 238.0Q65.0 237.0 63.0 236.5Q64.0 240.5 64.0 254.0Q64.0 267.5 64.0 285.0Q64.0 339.5 57.5 339.5Q54.0 339.5 51.5 318.5Q49.0 297.5 48.0 258.0Q47.5 230.5 46.5 213.75Q45.5 197.0 44.0 186.25Q42.5 175.5 39.5 166.75Q36.5 158.0 32.0 147.0Q27.0 134.5 22.25 124.75Q17.5 115.0 15.0 114.5Q10.0 111.5 10.0 105.0ZM65.0 117.5V117.0Q65.0 117.5 65.0 117.5Q65.0 117.5 65.0 117.5Z" fill="black" /></svg>