<svg xmlns="http://www.w3.org/2000/svg" width="593.0" height="379.5" viewBox="0 0 593.0 379.5"><path d="M46.5 209.5Q39.0 206.0 33.25 203.0Q27.5 200.0 25.5 199.5Q26.5 201.5 26.75 207.5Q27.0 213.5 27.0 221.0Q27.5 241.0 30.0 241.0L31.0 240.5H32.0Q35.0 239.5 44.0 236.5Q53.0 233.5 62.5 230.5Q71.5 227.0 77.5 224.25Q83.5 221.5 83.5 220.5H78.0Q74.5 220.5 65.5 217.25Q56.5 214.0 46.5 209.5ZM161.5 256.0 168.5 247.5H134.5L141.0 255.0Q145.0 260.5 148.25 264.25Q151.5 268.0 152.0 268.0H152.5Q152.5 268.0 155.25 264.25Q158.0 260.5 161.5 256.0ZM386.0 287.0 369.0 285.0Q360.0 284.0 350.0 282.25Q340.0 280.5 335.0 279.0Q333.5 279.0 331.5 278.0Q331.0 278.0 330.5 277.75Q330.0 277.5 329.5 277.5Q329.5 278.0 329.5 278.0Q329.5 278.0 329.5 278.5L330.0 280.0Q331.0 283.0 332.75 291.5Q334.5 300.0 336.0 309.5L337.0 315.0Q338.0 320.0 338.25 323.75Q338.5 327.5 339.0 329.0Q341.5 326.5 349.0 320.25Q356.5 314.0 365.5 306.0ZM151.0 125.5 155.0 120.5H129.5L135.5 126.5Q140.0 131.0 143.0 136.0Q144.5 133.0 151.0 125.5ZM296.5 136.0Q302.5 130.5 305.5 127.0Q300.5 129.5 292.0 134.25Q283.5 139.0 274.0 145.0L244.5 162.0L255.0 165.5Q263.5 168.0 268.5 168.0Q280.0 168.0 280.0 160.0Q280.0 157.5 285.0 150.5Q290.0 143.5 296.5 136.0ZM372.5 230.0 374.5 228.5Q374.5 228.0 369.0 225.5Q366.0 222.5 364.0 222.5V227.0Q364.0 233.0 365.5 233.0Q366.5 233.0 368.5 232.0Q370.5 231.0 372.5 230.0ZM405.0 89.5 393.0 85.5Q386.5 83.5 382.75 82.5Q379.0 81.5 376.5 81.5Q373.0 81.5 367.5 87.5L366.0 89.0Q363.0 91.5 355.25 99.0Q347.5 106.5 337.5 116.0Q327.5 125.5 317.75 135.0Q308.0 144.5 301.25 151.5Q294.5 158.5 293.0 160.5Q291.5 171.0 291.5 179.0Q291.5 188.5 295.0 195.5Q298.5 202.5 307.5 214.0Q314.5 223.5 320.5 234.25Q326.5 245.0 327.5 250.5Q330.0 260.0 341.75 266.0Q353.5 272.0 370.5 272.0Q373.0 272.0 375.5 272.0Q378.0 272.0 380.5 271.5Q386.0 271.0 403.5 265.75Q421.0 260.5 443.75 253.0Q466.5 245.5 489.25 237.25Q512.0 229.0 529.0 222.5Q546.0 216.0 551.0 213.0Q548.5 208.0 538.25 194.75Q528.0 181.5 514.0 166.0Q497.5 148.0 485.25 136.0Q473.0 124.0 461.5 116.0Q450.0 108.0 436.75 102.0Q423.5 96.0 405.0 89.5ZM141.0 72.0H133.5Q130.0 72.0 121.75 68.75Q113.5 65.5 104.5 61.5Q89.5 53.5 87.5 51.5Q87.0 54.0 87.0 59.25Q87.0 64.5 87.0 71.0V92.5Q88.0 91.5 89.5 91.5Q92.5 90.5 100.75 88.0Q109.0 85.5 118.25 82.25Q127.5 79.0 134.25 76.25Q141.0 73.5 141.0 72.0ZM376.5 147.5V146.0Q375.5 146.0 373.5 148.5Q371.5 151.0 369.0 154.0L367.5 157.0Q364.5 160.5 364.5 162.5Q364.5 163.5 373.0 163.5Q379.5 163.5 379.5 162.0Q379.5 162.0 379.25 161.5Q379.0 161.0 379.0 160.5L378.0 155.5Q377.5 154.5 377.5 153.75Q377.5 153.0 377.0 152.0Q377.0 151.0 376.75 149.75Q376.5 148.5 376.5 147.5ZM445.0 44.0 446.0 36.5Q446.0 35.5 446.0 35.0Q446.0 34.5 446.0 34.0Q444.0 35.5 441.25 37.25Q438.5 39.0 436.0 40.0Q431.0 43.5 426.0 46.5Q421.0 49.5 415.5 52.5L388.0 70.0L401.5 73.5Q403.5 74.0 405.75 74.5Q408.0 75.0 410.0 76.0Q417.0 78.0 424.0 80.5Q431.0 83.0 436.0 85.5Q447.5 92.5 451.5 92.5Q451.5 92.5 451.75 92.0Q452.0 91.5 452.0 91.0Q452.0 89.0 451.0 85.75Q450.0 82.5 448.5 78.5Q446.5 73.0 445.25 66.25Q444.0 59.5 444.0 53.5Q444.0 51.0 444.25 48.5Q444.5 46.0 445.0 44.0ZM105.0 238.5Q105.0 236.0 119.75 234.75Q134.5 233.5 155.5 233.5Q179.0 233.5 192.75 235.0Q206.5 236.5 206.5 240.5Q206.5 243.0 204.0 245.25Q201.5 247.5 198.0 247.5Q196.5 247.5 190.75 251.0Q185.0 254.5 179.5 259.0L164.5 271.5L166.0 318.5V332.5Q166.0 350.0 164.75 359.75Q163.5 369.5 160.0 369.5Q156.5 369.5 154.75 358.75Q153.0 348.0 153.0 331.0Q153.0 314.5 152.0 305.5Q151.0 296.5 148.5 290.75Q146.0 285.0 141.0 277.5Q136.0 271.0 128.75 263.25Q121.5 255.5 116.5 252.0Q112.0 248.0 108.5 244.25Q105.0 240.5 105.0 238.5ZM436.0 23.5Q455.5 10.0 462.0 10.0Q467.0 10.0 467.0 14.5Q467.0 17.5 464.5 21.5Q462.0 27.0 459.5 39.75Q457.0 52.5 457.0 59.5Q457.0 70.5 465.5 84.0Q469.0 91.0 480.25 105.75Q491.5 120.5 506.5 137.75Q521.5 155.0 536.0 170.75Q550.5 186.5 561.0 196.75Q571.5 207.0 574.0 207.0Q583.0 207.0 583.0 212.5Q583.0 219.0 571.0 223.0Q560.0 226.5 542.75 232.5Q525.5 238.5 505.25 246.25Q485.0 254.0 466.25 261.5Q447.5 269.0 433.25 275.0Q419.0 281.0 413.5 284.0Q407.0 289.0 392.5 300.75Q378.0 312.5 366.5 325.5Q352.5 338.0 341.75 347.25Q331.0 356.5 330.0 356.5Q329.0 356.5 327.25 349.5Q325.5 342.5 325.0 333.0Q324.5 324.5 322.5 310.75Q320.5 297.0 318.0 287.0Q316.0 278.5 315.0 270.5Q314.0 262.5 314.0 254.0L314.5 253.5Q314.0 251.0 311.75 246.25Q309.5 241.5 307.0 237.5L297.0 224.0L204.0 226.0Q169.0 226.5 148.75 227.0Q128.5 227.5 116.75 229.0Q105.0 230.5 95.0 233.75Q85.0 237.0 70.5 242.5Q46.0 251.5 33.25 255.5Q20.5 259.5 15.5 259.5Q10.0 259.5 10.0 254.5Q10.0 253.0 11.0 250.0Q16.5 236.5 16.5 222.5Q16.5 213.5 14.0 202.0Q13.0 198.0 12.5 194.25Q12.0 190.5 12.0 188.0Q12.0 177.0 19.0 177.0Q23.5 177.0 29.5 182.5Q57.5 207.5 110.5 210.5L145.0 212.5L142.5 182.5Q140.5 163.5 137.5 155.0Q134.5 146.5 125.5 138.5Q120.0 133.0 113.5 127.75Q107.0 122.5 103.5 121.5Q96.0 117.0 96.0 113.5Q96.0 107.0 126.5 107.0Q131.5 107.0 137.25 107.0Q143.0 107.0 149.5 107.5L206.5 108.5L180.5 123.5Q168.0 129.5 162.25 135.25Q156.5 141.0 155.0 149.25Q153.5 157.5 153.5 171.0Q153.5 186.0 156.0 200.0L158.5 211.0H286.5L276.5 201.0Q265.0 188.0 254.5 182.5Q244.0 177.0 226.5 172.0L199.5 165.5L238.0 147.5Q255.5 139.0 276.25 127.75Q297.0 116.5 315.5 105.5Q334.0 94.5 346.0 86.5Q358.0 78.5 358.0 76.5Q358.0 74.0 366.75 66.5Q375.5 59.0 387.0 52.5Q400.0 45.5 414.25 37.0Q428.5 28.5 436.0 23.5ZM370.5 123.0 372.0 119.0Q374.5 114.5 376.0 111.5Q377.5 108.5 379.5 108.5Q382.5 108.5 384.0 115.25Q385.5 122.0 387.5 135.0Q389.5 145.5 391.5 150.75Q393.5 156.0 398.0 157.0Q402.5 158.5 406.25 160.25Q410.0 162.0 411.5 164.0Q413.0 164.5 424.25 168.5Q435.5 172.5 451.0 177.0Q468.0 182.0 479.75 186.75Q491.5 191.5 491.5 194.0Q491.5 197.5 485.25 200.75Q479.0 204.0 470.5 206.5Q459.5 209.5 444.75 215.0Q430.0 220.5 415.0 226.75Q400.0 233.0 388.0 238.5Q376.0 244.0 370.5 247.5Q360.5 255.0 356.5 255.0Q352.5 255.0 351.5 251.25Q350.5 247.5 350.5 238.5Q350.5 232.5 349.0 224.5Q347.5 216.5 346.0 211.5Q342.5 204.5 342.5 199.0Q342.5 196.5 344.5 195.0H345.5Q347.0 195.0 353.0 198.0Q359.0 201.0 366.0 205.5Q378.5 214.5 388.0 214.5Q393.0 214.5 403.75 212.25Q414.5 210.0 426.75 206.5Q439.0 203.0 448.75 199.75Q458.5 196.5 461.5 194.5Q457.5 192.0 445.25 189.0Q433.0 186.0 418.0 183.25Q403.0 180.5 389.0 178.5Q375.0 176.5 367.0 176.5H333.0L350.5 156.0Q356.0 149.5 362.0 139.5Q368.0 129.5 370.5 123.0ZM74.0 28.5 77.0 28.0Q80.0 28.0 87.0 33.5Q89.5 36.0 97.25 40.75Q105.0 45.5 113.0 49.5Q120.0 53.5 126.25 55.75Q132.5 58.0 144.5 59.0Q156.5 60.0 179.5 60.5Q202.5 61.0 242.0 61.5Q273.0 62.0 298.75 63.25Q324.5 64.5 340.0 66.0Q355.5 67.5 355.5 69.5Q355.5 71.0 342.5 72.75Q329.5 74.5 307.75 75.75Q286.0 77.0 259.5 78.0Q223.5 78.5 201.0 79.5Q178.5 80.5 162.5 83.0Q146.5 85.5 132.25 90.75Q118.0 96.0 98.5 104.5Q91.5 107.5 85.5 109.5Q79.5 111.5 78.0 111.5Q76.5 111.5 75.25 103.25Q74.0 95.0 73.25 82.75Q72.5 70.5 72.5 58.5Q72.5 49.0 73.0 40.75Q73.5 32.5 74.0 28.5Z" fill="black" /></svg>