<svg xmlns="http://www.w3.org/2000/svg" width="861.0" height="465.0" viewBox="0 0 861.0 465.0"><path d="M253.5 207.5Q244.0 201.0 232.0 201.0Q228.0 201.0 227.5 202.5Q223.5 205.0 223.5 209.5Q223.5 211.5 225.75 213.75Q228.0 216.0 231.5 216.0Q238.0 216.0 245.0 213.0Q252.0 210.0 253.5 207.5ZM253.0 277.0Q253.0 276.0 248.0 273.25Q243.0 270.5 237.5 268.0Q232.0 265.5 229.5 265.5Q227.5 265.5 226.5 268.5Q225.5 270.5 225.25 272.25Q225.0 274.0 225.0 276.0Q225.0 276.5 225.25 277.25Q225.5 278.0 225.5 279.0V280.5Q228.5 281.5 233.5 281.5Q239.5 281.5 246.25 280.25Q253.0 279.0 253.0 277.0ZM324.0 265.0H368.0V218.5L337.5 217.0H336.0Q325.0 217.5 307.5 219.5Q290.0 221.5 272.25 224.5Q254.5 227.5 241.0 230.5Q227.5 233.5 224.5 236.0Q225.5 237.5 226.5 239.0Q227.5 240.5 228.0 242.0Q238.0 252.5 263.5 258.5Q289.0 264.5 324.0 265.0ZM434.5 223.5Q434.5 223.0 428.0 222.5Q421.5 222.0 412.0 222.0H388.0V245.0Q388.0 257.5 389.5 263.0Q391.0 268.5 393.0 268.5Q396.0 268.5 402.5 262.75Q409.0 257.0 416.5 249.0Q424.0 241.0 429.25 233.75Q434.5 226.5 434.5 223.5ZM457.0 247.0V246.0Q454.5 240.5 453.0 237.25Q451.5 234.0 450.0 234.0Q448.5 234.0 442.5 241.5L441.0 244.5Q435.0 253.0 435.0 258.0Q435.0 263.5 449.0 263.5Q463.0 263.5 463.0 262.0Q463.0 259.0 457.0 247.0ZM255.5 68.5Q250.5 67.5 241.0 67.25Q231.5 67.0 221.0 67.0Q209.5 67.0 198.75 66.75Q188.0 66.5 184.0 66.0Q186.5 69.5 192.0 80.5Q197.5 91.5 203.5 104.5Q210.5 118.5 215.75 129.25Q221.0 140.0 221.5 140.0Q222.5 140.0 223.75 135.75Q225.0 131.5 226.5 126.5Q227.5 118.5 233.25 107.25Q239.0 96.0 245.0 86.5Q249.5 81.0 252.25 76.0Q255.0 71.0 255.5 68.5ZM261.5 151.0 267.0 150.5 257.0 145.0Q255.5 144.5 253.75 144.0Q252.0 143.5 251.0 143.5Q247.5 142.5 245.75 141.75Q244.0 141.0 243.0 141.0Q241.5 141.0 237.5 147.0L234.5 152.5Q232.5 155.5 232.5 156.5Q239.5 156.5 247.25 155.25Q255.0 154.0 261.5 151.0ZM351.5 119.0 349.5 115.0Q344.0 107.0 337.5 103.25Q331.0 99.5 317.5 99.5Q312.5 99.5 301.25 100.0Q290.0 100.5 277.75 102.5Q265.5 104.5 256.75 108.75Q248.0 113.0 248.0 120.0Q248.0 122.0 249.0 123.0Q252.5 127.5 267.25 131.25Q282.0 135.0 300.75 137.5Q319.5 140.0 334.5 140.0Q345.0 140.0 351.75 139.25Q358.5 138.5 358.5 136.5Q358.5 134.5 356.5 129.25Q354.5 124.0 351.5 119.0ZM367.5 164.0Q365.5 161.5 357.75 160.0Q350.0 158.5 339.5 158.5Q331.5 158.5 323.0 159.25Q314.5 160.0 306.0 161.0Q305.0 161.0 302.25 161.5Q299.5 162.0 297.0 163.0Q295.5 163.5 293.75 163.5Q292.0 163.5 289.5 164.0Q283.0 165.0 277.0 167.0Q274.0 167.5 270.5 168.0Q267.0 168.5 264.0 169.0Q238.5 174.5 238.5 180.0Q238.5 185.0 247.75 188.0Q257.0 191.0 271.25 193.0Q285.5 195.0 301.25 196.0Q317.0 197.0 330.25 197.25Q343.5 197.5 350.0 197.5Q365.0 197.5 367.75 195.5Q370.5 193.5 370.5 187.0Q370.5 182.0 369.5 175.5Q368.5 169.0 367.5 164.0ZM405.0 99.0Q403.0 99.5 396.75 99.5Q390.5 99.5 382.0 99.5H360.5L370.0 117.5Q375.5 126.0 379.75 133.0Q384.0 140.0 384.5 140.0Q387.0 140.0 391.75 131.5Q396.5 123.0 400.75 113.25Q405.0 103.5 405.0 99.0ZM455.0 160.5H454.5Q454.0 159.5 446.5 158.25Q439.0 157.0 429.0 157.0Q410.0 157.0 402.75 163.5Q395.5 170.0 393.0 190.5Q392.5 192.0 392.5 193.5Q392.5 195.0 392.5 196.0Q392.5 199.5 396.5 200.75Q400.5 202.0 410.0 203.0H415.5Q416.5 203.5 418.5 203.5Q426.5 203.5 431.0 199.25Q435.5 195.0 443.0 184.0Q448.5 177.0 451.5 170.25Q454.5 163.5 455.0 160.5ZM481.5 102.0Q481.5 100.5 475.25 99.75Q469.0 99.0 460.5 99.0Q449.0 99.0 438.0 100.75Q427.0 102.5 424.5 106.5Q423.0 107.5 419.25 114.5Q415.5 121.5 412.25 128.75Q409.0 136.0 409.0 139.0Q409.0 140.0 411.0 140.0Q414.5 140.0 419.75 141.0Q425.0 142.0 428.0 143.5H429.0Q433.5 143.0 442.0 137.75Q450.5 132.5 459.5 125.25Q468.5 118.0 475.0 111.5Q481.5 105.0 481.5 102.0ZM493.5 134.0Q493.5 130.0 491.5 127.75Q489.5 125.5 488.0 125.5Q484.5 125.5 481.5 129.5Q481.5 130.5 480.0 132.0L479.0 133.0Q479.0 134.5 485.0 136.5Q486.0 137.0 487.25 137.0Q488.5 137.0 489.0 137.0Q493.5 137.0 493.5 134.0ZM617.0 212.5 571.5 187.0Q548.5 174.5 531.5 168.5Q514.5 162.5 504.5 162.5Q493.5 162.5 493.5 168.5Q493.5 171.5 496.5 177.0Q499.5 182.5 504.5 189.0Q509.5 194.5 521.0 204.25Q532.5 214.0 547.0 225.0Q561.5 236.0 575.5 246.0Q589.5 256.0 600.0 262.25Q610.5 268.5 613.5 268.5Q614.5 268.5 615.75 261.0Q617.0 253.5 617.0 241.0ZM519.0 70.5Q518.0 68.0 516.75 65.75Q515.5 63.5 514.5 63.5Q513.5 63.5 510.0 66.25Q506.5 69.0 503.75 71.75Q501.0 74.5 501.0 75.5H509.5Q519.0 75.5 519.5 71.5Q519.0 71.0 519.0 70.5ZM614.0 137.5 579.5 119.0Q562.5 109.0 547.0 103.75Q531.5 98.5 521.0 98.5Q505.0 98.5 505.0 109.0Q505.0 114.0 508.5 121.25Q512.0 128.5 518.5 133.0Q522.0 136.5 531.75 143.0Q541.5 149.5 554.5 157.5Q567.5 165.5 580.25 173.0Q593.0 180.5 603.0 185.75Q613.0 191.0 616.5 192.0V177.5Q616.5 174.5 616.5 171.0Q616.5 167.5 615.5 164.0ZM667.0 43.0H667.5Q667.5 40.0 633.0 40.0H593.5Q594.0 42.5 597.0 46.0Q598.0 48.0 599.0 50.5Q600.0 53.0 601.5 55.5Q604.5 62.5 609.5 71.5Q616.5 84.5 623.0 98.25Q629.5 112.0 630.5 119.0L633.0 127.0Q633.0 124.5 641.5 104.5L647.0 88.5Q654.0 72.5 660.0 59.0Q666.0 45.5 667.0 43.0ZM97.0 380.0 78.5 374.5Q58.0 369.5 52.0 369.5Q48.0 369.5 48.0 374.5Q48.0 394.0 42.0 412.0Q40.0 415.5 39.0 419.0Q38.0 422.5 37.0 425.0Q42.5 425.0 57.25 423.5Q72.0 422.0 90.0 419.0Q94.5 418.0 100.25 417.25Q106.0 416.5 111.0 416.0Q129.5 413.0 149.0 409.75Q168.5 406.5 181.0 405.5Q196.0 404.5 206.75 402.75Q217.5 401.0 217.5 400.5Q217.5 400.5 206.5 399.0Q195.5 397.5 181.0 395.5Q170.5 394.5 155.0 392.0Q139.5 389.5 124.0 386.25Q108.5 383.0 97.0 380.0ZM245.5 341.0Q240.5 337.5 237.25 335.5Q234.0 333.5 231.5 333.5Q230.0 333.5 228.25 335.25Q226.5 337.0 225.0 339.5Q224.0 343.5 224.0 346.0Q224.0 349.5 228.5 349.5Q234.0 349.5 241.5 347.5Q247.0 346.0 245.75 346.0Q244.5 346.0 244.5 346.0Q244.5 346.0 246.25 344.5Q248.0 343.0 245.5 341.0ZM368.0 382.5V368.5Q368.0 357.5 363.0 355.25Q358.0 353.0 337.5 352.5H333.0Q320.5 352.5 303.0 354.75Q285.5 357.0 268.25 360.25Q251.0 363.5 238.0 367.0Q225.0 370.5 220.5 373.5Q220.0 374.0 218.75 375.75Q217.5 377.5 217.5 378.0Q217.5 385.0 270.5 385.0Q273.0 385.0 275.75 385.0Q278.5 385.0 281.0 384.5H297.0ZM325.0 332.0 370.5 332.5V286.5L331.0 287.5Q311.0 287.5 288.75 290.25Q266.5 293.0 248.75 297.25Q231.0 301.5 224.5 306.5Q225.5 307.0 227.5 308.75Q229.5 310.5 231.5 312.5Q250.5 322.5 271.0 327.25Q291.5 332.0 325.0 332.0ZM442.5 328.0Q439.5 321.5 437.0 321.5Q435.5 321.5 433.0 325.5Q429.0 328.0 429.0 329.5Q429.0 332.5 437.5 332.5Q444.0 332.5 444.0 330.5Q444.0 330.0 443.5 329.25Q443.0 328.5 442.5 328.0ZM498.0 372.0V371.0Q487.5 365.0 478.75 362.0Q470.0 359.0 458.75 358.0Q447.5 357.0 429.5 357.0Q411.0 357.0 402.25 357.5Q393.5 358.0 390.25 360.0Q387.0 362.0 385.0 366.5Q383.5 370.0 383.5 374.0Q383.5 376.0 384.0 378.0Q384.5 380.0 385.0 381.0Q389.0 383.5 402.5 385.25Q416.0 387.0 434.0 387.75Q452.0 388.5 470.25 389.0Q488.5 389.5 502.75 389.5Q517.0 389.5 522.5 389.5Q522.5 388.5 515.5 382.75Q508.5 377.0 498.0 372.0ZM565.5 261.5Q546.0 247.0 524.5 234.25Q503.0 221.5 478.5 221.5Q469.5 221.5 469.5 228.0Q469.5 237.0 476.25 246.75Q483.0 256.5 498.75 269.5Q514.5 282.5 541.5 301.5Q557.0 312.0 570.25 322.0Q583.5 332.0 591.5 339.0Q599.5 346.0 599.5 348.5Q599.5 351.5 598.75 353.0Q598.0 354.5 594.5 354.5Q591.0 354.5 577.25 346.0Q563.5 337.5 532.5 317.5L487.0 286.5H388.0V309.5Q388.0 318.5 389.0 326.0Q390.0 333.5 391.5 336.0Q394.5 335.0 401.0 329.25Q407.5 323.5 414.5 316.5Q438.0 293.0 445.5 293.0Q452.5 293.0 452.5 304.0Q452.5 312.0 463.75 323.5Q475.0 335.0 492.75 346.75Q510.5 358.5 530.0 369.0Q549.5 379.5 566.25 385.75Q583.0 392.0 592.5 392.0Q604.0 392.0 611.0 383.5Q615.5 378.0 615.5 347.5V335.5L614.0 294.5Q609.5 291.0 605.5 288.25Q601.5 285.5 597.5 282.5Q589.5 277.0 581.5 271.75Q573.5 266.5 565.5 261.5ZM486.5 200.5Q486.5 197.5 484.25 191.25Q482.0 185.0 479.0 180.0L474.5 169.5L466.5 181.5Q463.0 186.5 461.0 189.75Q459.0 193.0 459.0 195.0Q459.0 196.0 464.5 197.75Q470.0 199.5 476.25 200.5Q482.5 201.5 484.5 201.5Q486.5 201.5 486.5 200.5ZM678.0 15.5 677.0 16.5Q687.0 10.0 691.5 10.0Q697.5 10.0 697.5 16.0Q697.5 21.0 693.5 31.25Q689.5 41.5 682.0 57.5Q666.0 89.0 656.5 115.75Q647.0 142.5 642.0 168.75Q637.0 195.0 635.25 223.75Q633.5 252.5 633.5 288.0L632.0 387.0L642.0 390.0Q645.5 390.5 655.75 390.75Q666.0 391.0 680.0 391.0Q695.0 391.0 714.0 390.75Q733.0 390.5 752.0 390.0Q769.0 389.0 784.25 389.0Q799.5 389.0 811.0 389.0Q830.0 389.0 840.5 390.25Q851.0 391.5 851.0 394.5Q851.0 397.5 836.0 399.75Q821.0 402.0 795.5 403.25Q770.0 404.5 738.5 405.0L632.0 406.5L630.5 420.5Q629.5 428.5 626.25 433.5Q623.0 438.5 620.0 438.5Q616.5 438.5 613.5 433.0Q610.5 427.5 610.0 420.0L608.0 406.5H457.5Q411.0 407.5 367.25 409.0Q323.5 410.5 286.75 412.75Q250.0 415.0 223.5 417.5Q186.5 422.0 152.25 426.75Q118.0 431.5 90.5 436.25Q63.0 441.0 46.0 445.0Q29.0 449.0 26.0 451.5Q22.0 455.0 17.0 455.0Q10.0 455.0 10.0 445.0Q10.0 441.0 11.25 436.0Q12.5 431.0 16.0 425.0Q20.0 419.5 24.0 406.75Q28.0 394.0 30.0 381.5Q31.5 363.5 34.75 356.25Q38.0 349.0 44.5 349.0H45.5Q47.0 349.0 51.5 349.75Q56.0 350.5 62.5 352.5Q68.5 353.5 74.5 356.0Q83.0 358.0 93.0 360.25Q103.0 362.5 114.0 365.0Q138.0 371.0 158.75 375.75Q179.5 380.5 186.0 380.5H198.5L201.5 314.5Q203.5 283.0 204.0 252.0Q204.5 221.0 204.5 189.5Q204.0 167.0 202.5 153.5Q201.0 140.0 197.75 130.0Q194.5 120.0 187.5 109.0Q182.0 98.5 174.0 87.5Q166.0 76.5 160.5 72.5Q155.0 66.5 151.25 61.75Q147.5 57.0 147.5 55.5Q147.5 53.0 168.25 50.75Q189.0 48.5 217.0 48.5Q222.0 48.5 226.5 48.5Q231.0 48.5 235.0 48.0H248.0Q268.5 48.0 275.25 50.0Q282.0 52.0 282.0 56.0Q282.0 57.5 281.5 59.0Q281.0 60.5 280.0 63.0Q277.0 67.0 277.0 71.5Q277.0 72.5 277.25 72.75Q277.5 73.0 277.5 73.0Q278.5 74.5 297.25 75.0Q316.0 75.5 339.5 75.5Q358.0 75.5 375.75 75.25Q393.5 75.0 405.5 74.25Q417.5 73.5 418.5 72.5Q420.0 71.5 421.25 71.5Q422.5 71.5 423.0 71.5Q429.0 71.5 431.0 76.5Q432.5 78.0 439.0 79.25Q445.5 80.5 453.0 80.5Q463.5 80.5 470.75 76.0Q478.0 71.5 489.0 58.0Q499.5 46.5 506.5 40.75Q513.5 35.0 518.5 35.0Q524.0 35.0 526.5 40.0Q529.0 45.0 530.5 54.0Q532.5 61.5 540.75 70.25Q549.0 79.0 567.0 90.5Q580.5 98.5 592.0 104.25Q603.5 110.0 604.5 110.0Q604.5 106.0 600.0 94.75Q595.5 83.5 588.75 70.75Q582.0 58.0 575.75 49.0Q569.5 40.0 566.5 40.0Q558.0 40.0 558.0 31.0Q558.0 26.0 574.0 24.25Q590.0 22.5 615.0 22.5Q636.5 22.5 655.25 20.0Q674.0 17.5 678.0 15.5Z" fill="black" /></svg>