<svg xmlns="http://www.w3.org/2000/svg" width="592.0" height="458.5" viewBox="0 0 592.0 458.5"><path d="M496.0 347.0V195.0Q496.0 189.0 495.75 183.25Q495.5 177.5 494.5 172.0Q491.0 160.0 486.5 147.25Q482.0 134.5 477.0 122.0L476.5 120.5Q474.0 113.5 472.25 107.5Q470.5 101.5 468.0 95.0Q406.0 95.5 341.75 95.75Q277.5 96.0 215.0 96.0Q214.5 96.5 212.5 96.5Q210.5 96.5 209.5 96.5Q197.5 96.5 187.0 99.5Q184.5 100.0 181.25 101.0Q178.0 102.0 175.5 102.5L163.5 105.5Q160.5 106.5 157.25 107.5Q154.0 108.5 151.0 110.0Q138.5 140.5 134.5 173.0Q130.5 205.5 130.5 238.5V276.5Q131.0 286.0 131.0 295.5Q131.0 305.0 131.0 314.0V340.0Q138.5 342.0 147.75 343.5Q157.0 345.0 171.75 345.75Q186.5 346.5 210.5 347.5H368.5Q384.0 347.5 399.5 347.5Q415.0 347.5 429.5 347.0H491.5Q493.0 347.0 494.25 347.0Q495.5 347.0 496.0 347.0ZM62.5 62.0 41.0 50.0Q41.0 54.5 41.5 57.5V66.0Q42.0 71.0 42.0 76.5Q42.0 82.0 42.0 88.0Q42.0 94.0 41.75 101.5Q41.5 109.0 41.0 116.5Q41.0 120.5 40.5 122.5Q40.5 124.5 40.0 126.5L81.5 112.5L61.0 70.0Q60.5 68.0 60.5 66.0Q60.5 62.5 62.5 62.0ZM136.5 95.0 140.0 87.0Q134.5 86.5 125.0 85.75Q115.5 85.0 106.0 84.0Q96.5 83.0 90.5 83.0L100.5 106.5ZM119.0 159.0 130.5 114.5 106.0 123.0ZM520.0 37.5H501.0Q494.5 37.5 487.5 36.25Q480.5 35.0 474.5 34.0Q472.5 34.0 470.5 33.75Q468.5 33.5 467.5 33.5Q465.0 33.0 463.0 32.5Q461.0 32.0 459.5 32.0L457.5 33.5Q458.5 34.5 459.75 37.25Q461.0 40.0 463.0 44.0L463.5 45.5Q467.5 52.0 472.25 62.25Q477.0 72.5 483.5 87.0L504.0 138.5Q511.5 112.5 522.75 84.75Q534.0 57.0 551.0 35.5H545.5Q542.5 35.5 539.0 35.5Q535.5 35.5 531.5 36.5Q529.5 36.5 526.25 36.5Q523.0 36.5 520.0 37.5ZM113.5 370.0V355.5Q108.5 353.5 95.5 348.5Q82.5 343.5 68.0 337.0Q54.0 330.0 45.5 325.75Q37.0 321.5 37.0 321.5Q36.5 323.5 36.5 327.0Q36.5 329.0 36.5 331.0Q36.5 333.0 37.0 335.5V347.0Q37.0 350.5 37.0 354.75Q37.0 359.0 36.5 364.0L34.0 397.0ZM150.5 362.5 131.0 359.5V366.5ZM437.5 10.0Q447.5 10.5 455.75 11.5Q464.0 12.5 472.0 13.5Q492.5 17.0 511.75 17.75Q531.0 18.5 551.0 18.5Q555.0 18.0 559.0 18.0Q563.0 18.0 565.5 18.0Q577.5 18.0 579.75 20.25Q582.0 22.5 582.0 27.5L560.0 58.5Q555.5 65.0 549.0 79.25Q542.5 93.5 536.0 111.5Q529.5 129.5 524.5 147.75Q519.5 166.0 517.0 180.5L514.0 407.5V436.5Q514.0 448.5 505.0 448.5Q501.5 448.5 498.75 445.5Q496.0 442.5 496.0 436.5V364.5Q495.5 364.5 494.25 364.5Q493.0 364.5 491.5 364.5H432.5Q423.5 364.5 412.5 364.5Q401.5 364.5 389.0 365.0H323.5Q287.5 365.0 257.0 366.25Q226.5 367.5 196.5 371.75Q166.5 376.0 131.0 384.5V415.5Q131.0 420.0 128.25 422.5Q125.5 425.0 122.5 425.0Q113.5 425.0 113.5 415.5V389.5Q106.0 391.5 90.75 396.5Q75.5 401.5 58.25 408.25Q41.0 415.0 25.5 422.5L24.5 423.5Q21.0 425.0 19.5 425.0Q12.5 425.0 11.25 419.5Q10.0 414.0 10.0 409.0L16.0 337.0V297.5Q16.0 292.5 21.5 291.5Q28.5 292.5 33.5 296.0L35.0 296.5Q37.5 298.5 41.25 300.5Q45.0 302.5 48.0 304.5Q60.0 313.5 74.5 320.5Q80.5 323.0 87.5 325.75Q94.5 328.5 101.0 331.0L103.5 332.0Q105.5 332.5 106.5 332.75Q107.5 333.0 109.0 333.5Q110.5 333.5 113.5 335.0V272.5Q114.0 269.5 114.0 266.25Q114.0 263.0 114.0 260.0Q114.0 240.5 113.0 226.25Q112.0 212.0 109.5 199.75Q107.0 187.5 103.25 174.25Q99.5 161.0 93.5 143.5Q92.0 140.0 90.75 137.0Q89.5 134.0 88.5 130.0Q82.5 132.0 72.5 135.5Q62.5 139.0 53.0 142.5Q43.5 146.0 39.0 148.5Q37.5 149.5 35.25 150.0Q33.0 150.5 31.0 150.5Q26.5 150.5 22.5 148.0Q18.5 145.5 18.0 140.5V139.0Q18.0 136.5 18.0 133.5Q18.0 130.5 18.5 127.0Q18.5 125.5 19.0 124.0Q19.5 122.5 19.5 120.5Q20.5 110.5 21.0 97.25Q21.5 84.0 21.5 68.5Q21.5 62.5 21.5 56.75Q21.5 51.0 21.0 45.0Q20.5 41.0 20.5 37.5Q20.5 34.0 20.5 32.0Q20.5 22.5 22.75 20.5Q25.0 18.5 29.5 18.5Q33.5 18.5 35.5 20.0Q37.5 21.5 39.0 23.5Q40.0 24.5 40.75 25.75Q41.5 27.0 42.5 28.0Q55.0 39.0 70.25 46.0Q85.5 53.0 101.0 58.5Q102.0 59.0 119.5 63.25Q137.0 67.5 175.0 71.75Q213.0 76.0 275.0 76.0Q286.0 76.0 297.0 76.0Q308.0 76.0 320.0 75.5H460.0Q452.0 57.0 447.25 49.5Q442.5 42.0 439.0 38.5Q436.5 35.0 434.0 31.5Q431.5 28.0 428.5 22.5Q428.5 18.5 429.75 14.25Q431.0 10.0 437.5 10.0ZM158.0 90.5V90.0L159.0 90.5Z" fill="black" /></svg>