<svg xmlns="http://www.w3.org/2000/svg" width="630.5" height="390.0" viewBox="0 0 630.5 390.0"><path d="M88.0 225.5Q86.5 223.0 81.75 218.5Q77.0 214.0 72.5 210.25Q68.0 206.5 66.0 206.5Q62.0 206.5 52.5 227.0Q48.5 233.5 45.5 239.0Q42.5 244.5 41.0 248.5Q44.5 248.0 49.5 247.0Q54.5 246.0 59.5 245.5Q66.5 244.5 75.25 243.5Q84.0 242.5 91.5 242.5Q94.0 242.5 97.0 242.5Q100.0 242.5 102.5 243.0Q105.0 243.5 107.0 243.75Q109.0 244.0 111.0 244.0Q116.5 244.0 117.0 243.5Q116.5 242.5 111.0 241.0Q106.5 240.0 100.0 235.25Q93.5 230.5 88.0 225.5ZM394.5 249.0 377.5 234.0Q368.0 225.5 361.0 219.0Q354.0 212.5 353.5 212.5Q351.5 212.5 345.5 219.5Q339.5 226.5 333.75 234.25Q328.0 242.0 326.5 245.5Q330.0 245.5 340.75 246.0Q351.5 246.5 364.0 247.5ZM151.0 65.0Q146.5 64.0 138.0 62.25Q129.5 60.5 120.5 59.5L96.0 57.0L105.5 73.0Q109.0 81.0 112.5 87.25Q116.0 93.5 117.5 95.5Q120.5 90.5 129.5 81.5Q141.0 68.5 151.0 65.0ZM364.0 72.5Q357.5 68.5 350.75 64.75Q344.0 61.0 337.0 58.0Q335.0 57.0 333.5 56.0Q332.0 55.0 331.0 54.5Q331.5 55.5 331.5 57.5Q331.5 65.0 332.75 75.25Q334.0 85.5 335.0 90.0Q338.5 89.0 345.25 85.25Q352.0 81.5 358.0 77.5Q364.0 73.5 364.0 72.5ZM550.0 33.5Q548.0 33.5 540.75 33.75Q533.5 34.0 524.5 34.0Q510.5 34.0 505.0 34.75Q499.5 35.5 499.5 38.0Q499.5 43.0 504.5 51.0Q507.0 56.0 510.5 67.25Q514.0 78.5 516.5 88.5Q518.5 94.5 520.75 101.25Q523.0 108.0 523.0 108.0Q523.5 106.0 524.0 102.5Q524.5 99.0 525.0 95.0Q526.5 88.0 530.5 76.5Q534.5 65.0 539.0 55.5Q543.0 48.0 546.25 41.75Q549.5 35.5 550.0 33.5ZM80.5 63.5 77.5 58.5 56.5 33.5 84.0 38.5Q97.0 40.5 117.5 43.25Q138.0 46.0 161.75 48.75Q185.5 51.5 208.25 53.75Q231.0 56.0 248.25 57.5Q265.5 59.0 272.5 59.0Q285.5 59.0 293.75 61.25Q302.0 63.5 302.0 67.5Q302.0 71.0 295.5 73.0Q289.0 75.0 274.0 75.0Q270.5 75.0 265.5 75.0Q260.5 75.0 255.0 74.5Q239.0 73.5 222.5 72.75Q206.0 72.0 189.5 72.0Q176.5 72.0 169.25 73.5Q162.0 75.0 156.5 78.5Q147.0 85.0 140.75 94.25Q134.5 103.5 129.75 120.0Q125.0 136.5 120.0 165.0Q116.5 186.5 114.75 198.75Q113.0 211.0 113.0 217.0Q113.0 223.0 117.0 226.0Q152.5 252.0 259.5 282.5Q283.5 289.0 303.5 296.0Q323.5 303.0 335.75 307.75Q348.0 312.5 348.0 313.5Q348.0 317.0 347.0 318.5Q346.0 320.0 341.0 320.0Q335.5 320.0 316.0 314.75Q296.5 309.5 258.0 298.0Q209.5 283.5 176.5 274.75Q143.5 266.0 122.0 262.0Q100.5 258.0 86.0 258.0Q84.5 258.0 82.75 258.25Q81.0 258.5 79.5 258.5Q77.5 259.0 75.75 259.0Q74.0 259.0 72.5 259.0Q62.5 260.5 51.0 262.25Q39.5 264.0 32.5 266.5V267.0Q27.5 268.5 23.0 269.0Q18.5 269.5 15.5 269.5Q14.5 269.5 13.25 269.5Q12.0 269.5 10.0 269.0V266.5Q10.0 264.0 14.25 255.75Q18.5 247.5 25.0 239.5Q34.5 227.0 42.75 212.25Q51.0 197.5 58.0 183.0L61.0 182.5Q63.5 182.5 69.25 186.5Q75.0 190.5 81.5 196.5L82.5 197.5Q86.5 201.0 89.25 203.5Q92.0 206.0 94.0 207.0Q96.0 203.0 98.25 191.75Q100.5 180.5 102.75 166.75Q105.0 153.0 106.25 141.75Q107.5 130.5 107.5 126.5Q107.5 117.0 103.0 105.75Q98.5 94.5 92.25 83.5Q86.0 72.5 80.5 63.5ZM472.5 16.5Q472.5 10.0 480.0 10.0Q482.0 10.0 483.0 10.5Q484.0 11.0 484.75 11.0Q485.5 11.0 487.0 11.5Q489.5 13.5 503.0 15.25Q516.5 17.0 532.0 17.5Q575.5 19.5 575.5 28.5Q575.5 31.5 568.5 37.0V36.5Q564.0 40.5 558.25 52.5Q552.5 64.5 547.0 79.25Q541.5 94.0 538.5 107.0Q537.5 116.5 536.0 137.25Q534.5 158.0 534.5 185.0Q534.5 189.0 534.75 193.25Q535.0 197.5 535.0 201.5Q535.5 206.0 535.5 210.25Q535.5 214.5 535.5 219.0L536.0 302.5L581.0 321.0Q594.0 326.5 604.0 331.5Q614.0 336.5 617.5 339.0V338.0Q620.5 341.0 620.5 344.0Q620.5 346.5 619.25 347.25Q618.0 348.0 615.5 349.0H615.0Q610.5 348.0 598.5 344.5Q586.5 341.0 570.5 335.0Q559.5 329.5 550.75 326.5Q542.0 323.5 538.5 323.0Q538.5 325.0 538.5 328.75Q538.5 332.5 538.5 338.0V349.0Q538.5 380.0 531.0 380.0Q523.0 380.0 523.0 344.5V315.0L505.0 307.5Q473.0 294.0 451.0 285.5Q429.0 277.0 412.25 272.5Q395.5 268.0 380.75 266.25Q366.0 264.5 348.5 264.0Q327.0 264.0 311.0 263.25Q295.0 262.5 295.0 258.5Q295.0 258.5 303.25 248.0Q311.5 237.5 321.0 225.5Q331.0 213.0 338.25 203.0Q345.5 193.0 345.5 191.0L348.5 190.0Q351.0 190.0 361.25 197.5Q371.5 205.0 383.0 216.5Q396.0 229.0 410.75 241.25Q425.5 253.5 433.0 258.0Q439.0 261.5 451.75 267.75Q464.5 274.0 479.0 280.5Q493.5 287.0 505.25 291.5Q517.0 296.0 520.0 296.0Q519.5 293.0 518.75 281.5Q518.0 270.0 518.0 254.0V216.0Q517.0 182.0 515.5 162.0Q514.0 142.0 511.75 128.75Q509.5 115.5 504.5 102.5L494.0 73.5L444.0 75.0Q418.0 75.5 401.25 78.5Q384.5 81.5 370.25 88.5Q356.0 95.5 337.5 109.0Q329.0 115.5 319.75 117.75Q310.5 120.0 288.0 120.0H265.5Q242.5 120.0 224.5 121.0Q206.5 122.0 204.0 123.5Q202.0 124.0 200.75 125.0Q199.5 126.0 199.5 126.0Q201.5 128.5 258.0 131.0Q286.5 132.0 302.0 134.75Q317.5 137.5 317.5 140.5Q317.5 148.5 266.5 148.5Q235.5 149.0 218.5 150.0Q201.5 151.0 201.5 152.5Q201.5 156.0 261.0 158.5Q283.5 159.5 299.75 161.75Q316.0 164.0 316.0 168.0Q316.0 171.0 301.0 173.0Q286.0 175.0 265.5 175.0Q246.0 175.0 228.25 176.0Q210.5 177.0 205.0 178.0Q193.5 180.5 193.5 181.5Q193.5 185.0 214.25 188.0Q235.0 191.0 265.5 191.0Q312.5 191.0 312.5 198.5Q312.5 201.0 296.75 204.0Q281.0 207.0 253.5 208.0Q228.5 209.0 211.25 210.5Q194.0 212.0 191.5 214.5Q193.0 218.0 213.0 220.5Q233.0 223.0 264.0 223.0Q283.5 223.0 297.5 225.5Q311.5 228.0 311.5 231.0Q311.5 234.5 293.75 237.0Q276.0 239.5 250.5 240.5Q226.5 241.5 205.75 243.0Q185.0 244.5 179.5 246.5Q178.0 247.0 176.75 247.0Q175.5 247.0 174.5 247.5Q173.0 248.0 171.0 248.0Q164.5 248.0 164.5 242.0Q164.5 239.0 165.0 237.0Q166.0 233.0 167.75 221.75Q169.5 210.5 170.5 199.0Q173.5 157.5 175.75 134.5Q178.0 111.5 181.25 102.25Q184.5 93.0 190.0 93.0Q193.5 93.0 194.5 94.0Q202.5 97.0 217.75 99.5Q233.0 102.0 251.5 103.5Q270.0 105.0 287.0 105.0H318.0V89.0Q318.0 81.5 316.75 69.5Q315.5 57.5 314.5 48.5Q312.0 36.0 312.0 29.0Q312.0 26.0 313.0 22.0L313.5 20.5H316.5Q319.0 20.5 325.25 24.75Q331.5 29.0 337.5 35.5Q350.5 48.0 364.5 53.5Q378.5 59.0 405.5 59.0Q411.5 59.0 422.5 58.75Q433.5 58.5 446.25 58.0Q459.0 57.5 469.75 56.5Q480.5 55.5 486.0 54.5Q485.0 48.5 481.0 39.5Q477.5 32.0 475.0 25.25Q472.5 18.5 472.5 16.5ZM196.5 110.5Q197.0 111.0 197.0 111.0Q197.0 111.0 197.0 111.0Q196.5 111.0 196.5 110.5ZM192.0 137.5Q192.5 138.0 192.5 138.0Q192.5 138.0 192.5 138.0Q192.0 138.0 192.0 137.5ZM188.0 197.0H187.5Q187.5 196.5 187.75 196.5Q188.0 196.5 188.0 196.5Q188.0 196.5 188.0 196.5Q188.0 196.5 188.0 197.0Z" fill="black" /></svg>