<svg xmlns="http://www.w3.org/2000/svg" width="388.5" height="384.5" viewBox="0 0 388.5 384.5"><path d="M100.0 322.5 89.0 320.0Q81.0 317.5 69.0 312.75Q57.0 308.0 48.0 303.0L31.5 294.0V348.5L43.0 343.5Q48.5 341.0 60.75 336.5Q73.0 332.0 83.5 328.5ZM56.0 98.0Q56.0 97.5 56.0 97.25Q56.0 97.0 56.0 97.0Q56.0 95.5 44.0 95.5Q34.0 95.5 32.0 96.5H32.5Q33.0 98.5 35.0 104.75Q37.0 111.0 39.0 117.5L44.0 129.5Q44.5 129.5 45.75 126.25Q47.0 123.0 48.0 119.0Q49.5 114.0 51.5 108.0Q53.5 102.0 56.0 98.0ZM56.0 98.0 55.5 99.0Q55.5 99.0 55.75 98.75Q56.0 98.5 56.0 98.0ZM126.5 147.5Q123.0 149.0 116.25 154.5Q109.5 160.0 98.5 168.5L76.5 187.0L90.0 191.0Q104.5 195.5 109.0 195.5Q111.5 195.5 111.5 187.0V185.5Q111.5 180.0 114.0 172.25Q116.5 164.5 120.0 159.0Q122.5 155.5 124.0 152.5Q125.5 149.5 126.5 147.5ZM187.5 160.5Q189.5 157.0 191.25 154.0Q193.0 151.0 193.5 149.0Q187.0 153.5 180.5 158.5Q174.0 163.5 168.0 168.5L144.0 187.0L159.0 191.0Q165.0 192.5 169.5 193.5Q174.0 194.5 176.5 194.5Q180.0 194.5 180.0 191.5Q180.0 189.0 179.5 188.0Q179.5 181.0 182.0 174.0Q184.5 167.0 187.5 160.5ZM263.5 162.5Q265.0 160.0 266.0 157.5Q260.5 161.5 251.5 168.75Q242.5 176.0 235.5 182.5Q228.5 189.0 228.5 190.5Q228.5 192.5 246.0 195.5Q253.0 197.0 255.5 197.0Q257.0 197.0 257.0 188.5Q257.0 183.0 259.0 175.75Q261.0 168.5 263.5 162.5ZM73.5 35.5Q68.0 31.5 65.5 31.5Q63.5 31.5 63.5 50.0Q63.5 59.5 63.75 63.5Q64.0 67.5 64.5 67.5L66.5 66.5Q68.5 65.5 70.0 65.0Q71.5 64.5 73.25 64.0Q75.0 63.5 77.0 63.0L83.5 60.5Q86.0 59.5 89.25 58.25Q92.5 57.0 96.0 56.0L111.5 50.0L100.5 46.5Q93.0 45.0 85.0 41.5Q77.0 38.0 73.5 35.5ZM354.5 30.0Q352.5 30.0 344.75 30.25Q337.0 30.5 326.0 30.5H299.0L303.5 42.0Q306.0 48.5 310.25 61.5Q314.5 74.5 318.0 86.5Q321.0 99.0 323.75 107.25Q326.5 115.5 326.5 115.5Q326.5 114.5 327.25 110.25Q328.0 106.0 328.5 100.5L329.0 98.5Q330.0 91.5 334.25 78.5Q338.5 65.5 343.0 54.5Q347.5 46.0 350.75 39.0Q354.0 32.0 354.5 30.0ZM10.0 88.5Q10.0 86.0 18.75 84.75Q27.5 83.5 37.0 83.25Q46.5 83.0 48.5 83.0Q48.5 79.0 48.75 69.0Q49.0 59.0 49.5 46.5Q50.5 27.0 52.25 18.5Q54.0 10.0 58.0 10.0Q61.0 10.0 66.0 16.0Q68.5 18.5 75.5 22.5Q82.5 26.5 90.0 30.0Q98.5 33.5 107.25 35.5Q116.0 37.5 132.25 38.5Q148.5 39.5 179.0 40.5Q192.0 41.0 205.25 41.0Q218.5 41.0 229.5 41.0Q243.0 41.0 253.75 40.75Q264.5 40.5 269.0 40.0Q286.0 38.0 286.0 35.5Q286.0 32.5 282.5 24.0L282.0 22.5V22.0Q282.0 16.5 311.0 16.5H329.0Q346.5 17.0 359.0 18.0Q362.5 18.5 365.5 18.5Q368.5 18.5 370.5 19.0L378.0 19.5L378.5 22.0Q378.5 24.0 376.25 27.25Q374.0 30.5 371.0 34.0Q365.5 39.5 359.25 51.5Q353.0 63.5 347.75 78.0Q342.5 92.5 340.0 105.5Q337.0 122.5 337.0 190.5Q337.0 203.5 337.0 218.25Q337.0 233.0 337.5 250.0Q338.0 263.0 338.0 276.5Q338.0 290.0 338.0 302.0Q338.0 334.0 336.75 354.25Q335.5 374.5 333.5 374.5Q330.5 374.5 329.0 366.25Q327.5 358.0 326.5 347.0L326.0 325.5H230.0Q195.0 325.5 174.25 326.0Q153.5 326.5 141.25 327.5Q129.0 328.5 119.5 330.75Q110.0 333.0 98.0 336.5Q94.5 338.0 90.25 339.5Q86.0 341.0 82.0 343.0Q70.5 347.0 59.25 351.0Q48.0 355.0 42.5 358.5L16.0 371.0L18.5 321.5Q19.0 306.5 19.5 294.25Q20.0 282.0 20.5 277.0V272.5L23.0 272.0Q24.5 272.0 31.5 276.0Q38.5 280.0 46.5 285.5Q59.0 294.0 70.25 299.0Q81.5 304.0 98.25 306.5Q115.0 309.0 143.25 309.75Q171.5 310.5 218.5 310.5H328.0L326.0 294.5Q324.0 285.0 319.75 277.5Q315.5 270.0 307.0 261.5Q294.5 248.5 278.5 236.25Q262.5 224.0 248.5 215.25Q234.5 206.5 226.0 204.5Q212.0 202.0 205.0 200.0Q198.0 198.0 198.0 194.5Q198.0 192.5 201.0 190.25Q204.0 188.0 208.0 185.5Q216.0 180.0 228.75 169.5Q241.5 159.0 255.0 147.0Q268.5 135.0 279.25 124.25Q290.0 113.5 294.5 107.5Q300.0 100.0 304.0 100.0Q307.0 100.0 307.0 105.0Q307.0 107.0 305.75 111.25Q304.5 115.5 301.0 121.0Q295.5 129.0 287.75 142.25Q280.0 155.5 274.5 169.5Q269.0 183.5 268.5 194.5Q269.5 197.0 270.0 199.25Q270.5 201.5 271.0 201.5Q276.0 201.5 276.0 206.5Q276.0 208.0 275.0 210.0V210.5Q275.0 212.5 282.5 219.75Q290.0 227.0 301.0 237.0L323.5 257.0V209.5Q323.5 187.5 322.0 170.0Q320.5 152.5 317.5 135.75Q314.5 119.0 309.0 98.5Q304.0 78.0 300.0 68.25Q296.0 58.5 287.75 55.25Q279.5 52.0 261.0 52.0H238.0Q234.5 52.5 230.25 52.5Q226.0 52.5 222.0 52.5Q187.5 53.0 163.5 55.5Q139.5 58.0 119.75 62.75Q100.0 67.5 78.0 76.5L66.5 81.0Q64.5 81.5 63.0 82.0Q61.5 82.5 60.0 83.5Q68.5 84.0 73.5 84.75Q78.5 85.5 78.5 87.0Q78.5 88.5 75.0 94.5Q71.5 100.5 66.5 107.5Q60.5 117.0 58.0 126.25Q55.5 135.5 54.5 154.5Q54.5 165.0 54.5 173.5Q54.5 182.0 54.0 184.5Q57.0 184.0 66.25 177.5Q75.5 171.0 88.0 161.25Q100.5 151.5 113.25 140.75Q126.0 130.0 136.5 120.5Q147.0 111.0 152.0 105.5Q159.5 97.5 164.0 97.5Q168.0 97.5 168.0 102.0Q168.0 108.5 158.0 121.0Q155.0 124.5 149.5 132.75Q144.0 141.0 138.25 150.75Q132.5 160.5 128.5 169.25Q124.5 178.0 124.5 182.5Q129.0 181.0 139.0 174.0Q149.0 167.0 161.5 157.0Q174.0 147.0 186.5 136.5Q199.0 126.0 208.0 117.75Q217.0 109.5 220.0 106.0Q229.5 95.5 232.5 95.5Q236.0 95.5 236.0 99.5Q236.0 101.5 233.0 108.0Q230.0 114.5 224.5 122.5Q216.5 135.0 208.75 148.75Q201.0 162.5 196.0 173.0Q191.0 183.5 191.0 187.0Q191.0 192.0 196.0 197.0Q200.5 200.5 200.5 207.5Q202.0 211.0 209.0 217.75Q216.0 224.5 225.5 233.0Q244.0 248.5 254.25 260.25Q264.5 272.0 264.5 277.0Q264.5 278.0 263.5 279.75Q262.5 281.5 261.0 281.5Q254.5 280.5 244.0 267.5Q238.5 261.5 227.0 252.0Q215.5 242.5 202.25 232.25Q189.0 222.0 178.0 214.25Q167.0 206.5 162.5 205.0Q161.0 204.0 158.0 203.25Q155.0 202.5 151.0 202.0Q149.0 201.5 147.5 201.25Q146.0 201.0 144.0 200.5Q142.0 200.0 140.25 199.75Q138.5 199.5 137.0 199.0H134.5Q132.5 198.5 130.75 198.25Q129.0 198.0 128.0 198.0Q132.0 203.5 132.0 211.0Q132.0 213.0 136.0 217.0Q140.0 221.0 146.5 225.0Q153.5 230.0 162.5 238.0Q171.5 246.0 179.5 254.5Q187.5 263.0 192.75 269.5Q198.0 276.0 198.0 278.5L197.5 280.5L195.5 281.5Q192.5 281.5 183.5 274.75Q174.5 268.0 164.5 259.0Q138.0 234.5 115.0 219.75Q92.0 205.0 74.5 201.5Q67.0 199.5 61.25 198.5Q55.5 197.5 54.0 197.0Q54.5 200.0 54.5 211.25Q54.5 222.5 54.5 237.5Q54.5 282.5 49.0 282.5Q46.5 282.5 44.25 265.0Q42.0 247.5 41.0 215.0Q40.5 192.0 39.75 178.25Q39.0 164.5 37.75 155.75Q36.5 147.0 34.25 139.75Q32.0 132.5 28.0 123.5Q24.0 113.0 20.0 105.0Q16.0 97.0 14.0 96.5Q10.0 93.5 10.0 88.5Z" fill="black" /></svg>