<svg xmlns="http://www.w3.org/2000/svg" width="440.5" height="461.0" viewBox="0 0 440.5 461.0"><path d="M124.5 236.5H124.0Q124.0 236.5 119.0 232.75Q114.0 229.0 109.0 224.0L102.0 218.0V252.5L109.5 245.0Q116.0 238.5 124.5 236.5ZM58.5 335.0Q64.5 339.5 72.0 343.75Q79.5 348.0 86.0 351.5L115.5 367.0H362.0L361.0 315.0Q359.0 318.0 356.0 318.0Q352.5 318.0 346.75 314.25Q341.0 310.5 335.0 305.0Q328.5 299.5 314.25 289.5Q300.0 279.5 285.0 273.0Q274.0 266.5 266.25 263.0Q258.5 259.5 251.5 258.0Q244.5 256.5 234.5 256.5Q232.5 256.5 230.75 256.5Q229.0 256.5 226.5 257.0H215.0L162.0 260.5L188.5 240.0H175.0Q154.0 240.0 138.75 248.0Q123.5 256.0 104.5 277.0L84.0 300.5V234.0Q84.0 175.5 94.0 175.5Q101.0 175.5 104.5 189.0Q105.5 192.0 110.75 197.75Q116.0 203.5 122.5 209.0Q129.0 215.5 134.5 218.0Q140.0 220.5 152.5 220.5Q155.0 220.5 156.75 220.5Q158.5 220.5 160.5 220.0H175.0L213.0 219.0L268.5 156.5Q290.5 134.0 306.75 115.75Q323.0 97.5 325.0 93.5H289.0Q282.5 93.5 273.75 93.5Q265.0 93.5 256.0 94.5L182.0 95.5L142.5 116.0Q136.5 119.5 130.5 122.25Q124.5 125.0 119.0 128.0Q111.0 131.5 105.25 134.0Q99.5 136.5 98.5 137.0H98.0Q95.0 137.0 93.25 122.75Q91.5 108.5 91.5 89.5Q91.5 88.5 91.5 87.25Q91.5 86.0 91.5 85.0Q91.0 85.5 90.5 85.75Q90.0 86.0 89.0 87.0Q87.5 87.0 83.75 93.75Q80.0 100.5 76.0 108.5Q73.0 114.5 71.25 122.25Q69.5 130.0 68.25 142.25Q67.0 154.5 66.75 175.25Q66.5 196.0 66.5 228.5Q66.5 330.5 58.5 335.0ZM273.5 179.5Q265.5 188.5 256.0 199.5Q246.5 210.5 239.75 219.25Q233.0 228.0 233.0 229.5Q233.0 232.5 230.5 236.0Q232.5 235.5 237.0 235.5Q251.0 234.0 255.5 231.75Q260.0 229.5 261.0 219.5Q262.5 212.0 266.25 199.75Q270.0 187.5 273.5 179.5ZM361.0 309.5 360.5 271.5Q360.0 226.0 358.25 197.5Q356.5 169.0 352.5 149.75Q348.5 130.5 341.5 113.5L339.5 108.0L331.0 119.0Q325.0 128.0 316.5 142.5Q308.0 157.0 299.75 173.25Q291.5 189.5 285.5 205.0Q279.5 220.5 279.0 231.5Q283.0 231.5 284.75 234.5Q286.5 237.5 286.5 241.5V244.0Q287.5 246.5 293.75 252.25Q300.0 258.0 309.5 263.5Q330.0 275.5 344.5 288.5Q359.0 301.5 361.0 309.5ZM64.0 89.5 69.0 83.0H34.5L50.0 121.0L52.0 114.5Q54.5 107.0 58.25 99.5Q62.0 92.0 64.0 89.5ZM152.5 88.0 145.5 84.5Q137.5 83.0 129.25 78.5Q121.0 74.0 115.5 70.5L112.0 67.5Q112.0 68.5 112.0 70.25Q112.0 72.0 111.0 73.5Q111.0 76.5 111.0 79.25Q111.0 82.0 110.5 86.0V96.5Q110.0 98.5 110.0 100.25Q110.0 102.0 110.0 104.0Q110.0 105.5 110.0 106.5Q110.0 107.5 110.0 108.5Q111.5 107.5 113.5 106.5Q115.5 105.5 118.5 104.0Q122.0 103.0 125.75 101.0Q129.5 99.0 134.0 97.0ZM273.5 179.0H274.5Q276.5 176.0 276.5 176.0Q276.0 176.5 275.25 177.25Q274.5 178.0 273.5 179.0ZM396.5 31.5Q393.5 32.0 384.25 32.25Q375.0 32.5 363.0 32.5Q345.5 32.5 338.0 33.25Q330.5 34.0 330.5 36.5Q330.5 39.0 332.5 43.25Q334.5 47.5 337.5 53.0Q342.0 60.0 347.75 73.5Q353.5 87.0 357.0 99.0L361.5 112.0L364.5 102.5Q367.0 92.5 372.75 78.25Q378.5 64.0 383.5 54.5Q388.5 46.5 392.25 40.0Q396.0 33.5 396.5 31.5ZM61.0 361.5 58.0 359.5Q51.5 355.0 47.5 352.25Q43.5 349.5 42.5 349.5Q41.5 349.5 41.5 374.0V418.0Q43.0 417.5 47.75 415.25Q52.5 413.0 57.5 410.0Q64.5 405.0 77.5 399.5Q90.5 394.0 102.5 390.5L116.5 385.5L102.5 381.0Q91.0 376.5 78.75 370.75Q66.5 365.0 61.0 361.5ZM10.0 68.0 11.5 63.5H15.0Q17.5 63.0 20.25 63.0Q23.0 63.0 26.5 63.0Q32.0 63.0 45.0 63.25Q58.0 63.5 71.5 65.0Q85.0 66.5 91.5 70.5Q92.0 57.5 92.5 46.5Q93.0 35.5 93.5 30.5L96.5 30.0Q99.0 30.0 104.75 34.0Q110.5 38.0 118.0 44.5Q128.0 54.5 137.5 60.5Q147.0 66.5 160.25 69.5Q173.5 72.5 194.75 73.5Q216.0 74.5 249.5 74.5Q292.5 74.5 309.0 73.75Q325.5 73.0 325.5 72.5Q325.5 70.0 322.0 62.25Q318.5 54.5 314.5 46.5Q309.0 38.0 304.5 28.5Q300.0 19.0 300.0 17.0Q300.0 10.0 308.0 10.0Q309.0 10.0 311.25 10.0Q313.5 10.0 315.5 11.0H315.0Q318.0 12.5 335.25 13.75Q352.5 15.0 373.0 15.0Q397.0 15.0 413.75 16.25Q430.5 17.5 430.5 21.0Q430.5 23.0 425.25 30.75Q420.0 38.5 412.0 48.0Q401.5 60.0 395.0 70.75Q388.5 81.5 385.0 96.0Q381.5 110.5 380.25 133.5Q379.0 156.5 379.0 193.0V249.0L379.5 385.5L264.0 387.0Q224.5 387.5 200.5 388.5Q176.5 389.5 162.25 391.25Q148.0 393.0 137.25 396.25Q126.5 399.5 112.5 405.0Q103.0 409.0 91.25 414.5Q79.5 420.0 68.75 425.5Q58.0 431.0 52.0 435.5Q42.5 442.5 33.5 446.75Q24.5 451.0 21.0 451.0Q21.0 446.5 21.25 431.75Q21.5 417.0 22.25 397.5Q23.0 378.0 23.5 359.5Q24.0 341.0 25.0 328.25Q26.0 315.5 26.5 314.0L30.5 313.0Q35.0 313.0 46.0 324.0Q49.0 327.5 54.5 332.0Q51.5 325.5 50.25 307.0Q49.0 288.5 49.0 259.5Q49.0 221.5 46.25 194.0Q43.5 166.5 37.0 143.0Q30.5 119.5 19.0 95.0L18.5 93.0Q15.0 84.0 12.5 77.25Q10.0 70.5 10.0 68.0Z" fill="black" /></svg>