<svg xmlns="http://www.w3.org/2000/svg" width="422.0" height="389.0" viewBox="0 0 422.0 389.0"><path d="M89.0 102.0Q87.0 102.0 79.75 101.75Q72.5 101.5 62.5 101.5H37.0L45.5 122.0Q46.5 123.5 47.25 125.25Q48.0 127.0 48.5 129.0Q50.5 132.0 52.0 135.5Q53.5 139.0 54.5 142.5Q56.5 146.5 58.25 150.5Q60.0 154.5 61.0 157.0Q62.0 160.5 62.5 162.25Q63.0 164.0 63.0 164.0Q63.0 164.0 63.75 160.75Q64.5 157.5 66.5 151.0Q69.0 143.0 73.5 133.25Q78.0 123.5 81.5 118.0Q82.5 115.5 83.75 113.5Q85.0 111.5 85.5 109.5Q86.5 107.0 87.5 105.0Q88.5 103.0 89.0 102.0ZM190.5 64.0Q180.0 59.0 169.5 54.25Q159.0 49.5 148.0 45.5Q143.0 43.0 138.75 41.5Q134.5 40.0 133.0 39.0H132.5Q131.0 39.0 130.5 44.75Q130.0 50.5 130.0 64.5Q130.0 76.0 130.25 84.0Q130.5 92.0 130.5 92.0Q132.0 91.0 135.75 89.0Q139.5 87.0 143.0 84.0Q148.5 80.5 158.25 76.0Q168.0 71.5 176.0 69.5L178.5 68.5Q182.5 67.0 185.75 65.75Q189.0 64.5 190.5 64.0ZM117.5 88.5 115.0 51.5Q113.5 35.0 113.5 25.0Q113.5 10.0 118.5 10.0Q126.0 10.0 126.0 16.0Q126.0 18.0 134.25 22.5Q142.5 27.0 155.25 33.0Q168.0 39.0 181.5 44.25Q195.0 49.5 205.5 53.0Q218.5 56.5 247.5 59.0Q276.5 61.5 320.0 62.5Q346.0 63.0 366.75 64.5Q387.5 66.0 399.75 67.75Q412.0 69.5 412.0 71.0Q412.0 73.0 397.25 74.25Q382.5 75.5 357.5 76.0Q332.5 76.5 302.0 76.5Q258.5 76.5 232.0 77.5Q205.5 78.5 189.5 81.25Q173.5 84.0 163.0 89.25Q152.5 94.5 140.5 103.5Q132.5 110.0 125.0 114.75Q117.5 119.5 116.0 119.5Q114.0 119.5 113.0 115.75Q112.0 112.0 111.75 107.75Q111.5 103.5 111.5 102.5Q108.0 103.5 102.5 111.5Q97.0 119.5 92.25 127.5Q87.5 135.5 86.5 138.0Q83.0 146.0 81.0 153.25Q79.0 160.5 78.0 172.75Q77.0 185.0 76.5 207.5Q76.0 230.0 76.0 268.5Q76.0 321.5 74.0 350.25Q72.0 379.0 69.0 379.0Q65.5 379.0 63.75 356.25Q62.0 333.5 62.0 292.5Q62.0 264.5 61.5 246.5Q61.0 228.5 59.5 216.25Q58.0 204.0 55.75 194.0Q53.5 184.0 50.0 172.0Q45.0 157.5 38.0 140.25Q31.0 123.0 25.5 114.0Q20.0 104.5 15.0 95.75Q10.0 87.0 10.0 87.0Q10.0 87.0 13.25 86.75Q16.5 86.5 19.0 86.5Q25.5 86.5 38.25 86.5Q51.0 86.5 67.5 87.5Z" fill="black" /></svg>