<svg xmlns="http://www.w3.org/2000/svg" width="507.0" height="377.0" viewBox="0 0 507.0 377.0"><path d="M160.0 299.5 164.0 300.0Q131.5 293.0 99.75 285.25Q68.0 277.5 36.5 267.0Q35.5 266.5 34.5 266.5Q33.5 266.5 33.0 266.5L33.5 267.5Q36.0 273.0 37.0 284.25Q38.0 295.5 38.0 308.0V331.5L50.0 324.5Q55.5 322.5 66.75 319.25Q78.0 316.0 91.5 313.0Q105.0 310.0 116.0 308.0Q134.5 305.0 147.25 302.25Q160.0 299.5 160.0 299.5ZM81.5 187.5Q81.0 187.5 80.5 187.25Q80.0 187.0 79.0 187.0Q74.0 184.5 67.25 182.0Q60.5 179.5 56.0 177.5L38.0 167.5V207.0L54.0 195.5Q59.5 193.0 67.25 191.0Q75.0 189.0 81.5 187.5ZM256.0 178.5Q250.0 176.0 244.75 174.5Q239.5 173.0 235.5 171.0Q232.0 170.0 229.25 168.75Q226.5 167.5 224.0 166.5Q220.0 165.5 219.5 165.0V187.0Q219.5 199.0 220.0 203.25Q220.5 207.5 222.0 207.5Q223.0 207.5 224.0 207.25Q225.0 207.0 226.5 206.5H230.5L237.5 203.5Q243.0 202.5 249.0 200.5Q255.0 198.5 261.0 196.5Q264.0 195.5 268.5 194.75Q273.0 194.0 277.0 193.5Q280.5 192.5 284.25 191.25Q288.0 190.0 291.5 189.0Q290.0 189.0 288.0 188.0Q280.0 186.5 271.0 184.25Q262.0 182.0 256.0 178.5ZM42.0 89.5Q44.0 88.5 52.25 86.5Q60.5 84.5 68.75 82.0Q77.0 79.5 78.0 78.0Q75.0 76.5 67.5 73.5Q64.0 71.0 59.75 69.25Q55.5 67.5 52.0 66.0L32.0 56.0V73.0Q32.0 83.0 32.5 86.75Q33.0 90.5 35.0 90.5Q36.0 90.5 37.5 90.25Q39.0 90.0 42.0 89.5ZM296.0 69.5 271.0 63.5Q261.0 61.5 252.0 58.0Q243.0 54.5 237.0 51.5L231.0 49.5Q230.0 48.5 228.0 48.5Q227.0 48.5 226.0 52.75Q225.0 57.0 225.0 69.5Q225.0 92.0 228.5 92.0Q230.5 92.0 235.0 88.0Q237.0 86.5 247.75 82.25Q258.5 78.0 271.0 76.0ZM204.5 62.5 203.5 40.5V33.0Q203.0 30.5 203.0 28.5Q203.0 26.5 203.0 25.5Q203.0 18.5 204.0 14.25Q205.0 10.0 208.5 10.0Q208.5 10.0 216.0 14.5Q223.5 19.0 232.5 25.5Q251.5 37.0 270.5 44.5Q289.5 52.0 313.75 55.25Q338.0 58.5 372.5 58.5H392.5Q397.0 58.5 402.75 58.5Q408.5 58.5 414.0 58.0H428.5Q466.0 58.0 481.5 60.75Q497.0 63.5 497.0 71.0Q497.0 73.0 485.25 75.0Q473.5 77.0 454.25 78.25Q435.0 79.5 412.0 80.0Q344.0 81.0 297.0 89.75Q250.0 98.5 231.0 114.0Q223.0 120.5 217.75 124.25Q212.5 128.0 209.0 128.0Q203.5 128.0 203.5 119.5Q203.5 118.5 203.5 116.25Q203.5 114.0 204.0 112.0Q205.0 108.0 206.0 102.5Q207.0 97.0 207.0 92.0Q207.0 87.5 201.75 85.5Q196.5 83.5 190.5 83.0Q184.5 82.5 181.0 82.5Q174.5 82.5 157.75 84.0Q141.0 85.5 120.0 88.75Q99.0 92.0 79.5 97.5Q60.0 103.0 47.0 110.75Q34.0 118.5 34.0 129.5Q34.0 143.5 72.5 163.0Q86.0 171.0 98.5 173.5Q111.0 176.0 135.0 176.0Q138.0 176.0 141.25 176.0Q144.5 176.0 148.0 175.5H165.0L203.0 174.5L202.0 159.0Q201.0 154.5 200.75 150.0Q200.5 145.5 200.5 143.5Q200.5 131.0 208.5 131.0Q211.0 131.0 215.0 133.75Q219.0 136.5 225.0 141.5L226.5 142.0Q240.0 151.5 254.25 158.5Q268.5 165.5 287.0 169.75Q305.5 174.0 331.25 176.25Q357.0 178.5 394.0 179.0Q420.5 179.5 442.5 181.25Q464.5 183.0 477.5 185.25Q490.5 187.5 490.5 190.5Q490.5 192.0 477.0 194.25Q463.5 196.5 441.0 198.25Q418.5 200.0 391.0 201.0Q339.5 202.5 306.75 206.5Q274.0 210.5 254.5 218.0Q235.0 225.5 222.5 237.0L219.5 239.0Q212.0 249.0 207.5 249.0Q200.5 249.0 200.5 235.5Q200.5 231.5 200.75 226.25Q201.0 221.0 202.0 214.5L203.0 193.5H176.5Q168.0 193.5 153.0 194.5Q138.0 195.5 120.0 198.25Q102.0 201.0 85.0 205.5Q68.0 210.0 55.25 216.75Q42.5 223.5 38.0 233.0Q35.5 236.5 35.5 238.5Q35.5 242.0 43.5 246.5Q51.5 251.0 63.5 255.5Q75.5 260.0 88.25 264.25Q101.0 268.5 110.75 271.5Q120.5 274.5 123.0 275.5Q139.0 279.5 155.0 282.0Q171.0 284.5 192.0 286.25Q213.0 288.0 244.0 289.0Q275.0 290.0 321.0 291.0Q361.0 291.0 395.5 292.5Q430.0 294.0 451.25 296.0Q472.5 298.0 472.5 300.5Q472.5 302.0 460.0 304.0Q447.5 306.0 426.0 307.5Q404.5 309.0 376.75 310.25Q349.0 311.5 319.0 312.0Q231.5 314.0 174.5 319.0Q117.5 324.0 84.75 333.0Q52.0 342.0 37.5 357.0Q32.5 362.0 27.5 364.5Q22.5 367.0 19.0 367.0Q10.0 367.0 10.0 359.0Q10.0 356.0 11.0 353.0Q12.0 350.0 13.0 346.5Q17.0 341.5 17.75 331.75Q18.5 322.0 18.5 309.5Q18.5 296.5 17.75 284.0Q17.0 271.5 13.0 261.5V259.0Q10.5 250.5 10.5 244.5Q10.5 240.5 11.75 237.25Q13.0 234.0 15.0 231.5Q16.0 227.5 17.0 215.75Q18.0 204.0 18.0 185.5Q18.0 177.0 17.75 168.5Q17.5 160.0 17.0 150.5Q17.0 144.0 16.5 137.25Q16.0 130.5 16.0 123.0Q15.0 101.5 14.0 84.25Q13.0 67.0 13.0 55.5Q13.0 17.0 22.5 17.0Q25.5 17.0 28.75 20.5Q32.0 24.0 35.5 29.5Q45.0 39.5 60.25 48.25Q75.5 57.0 92.5 62.0Q109.5 67.0 123.0 67.0Q130.0 67.0 137.75 66.75Q145.5 66.5 154.5 66.0Z" fill="black" /></svg>