<svg xmlns="http://www.w3.org/2000/svg" width="660.0" height="388.5" viewBox="0 0 660.0 388.5"><path d="M65.5 262.5Q64.0 261.5 62.75 260.25Q61.5 259.0 60.0 258.0Q56.5 255.5 54.25 253.25Q52.0 251.0 51.5 251.0Q50.5 251.0 48.0 257.25Q45.5 263.5 42.75 272.0Q40.0 280.5 37.75 288.5Q35.5 296.5 35.0 300.0Q36.0 301.0 39.5 301.0Q40.5 301.0 41.5 300.5H44.0Q48.0 300.5 60.25 298.5Q72.5 296.5 85.5 294.5L110.5 291.0L97.0 284.5Q90.0 280.5 80.5 274.0Q71.0 267.5 65.5 262.5ZM83.5 72.5Q71.5 61.5 69.5 61.5Q69.5 61.5 68.75 66.25Q68.0 71.0 67.0 77.5Q66.5 85.0 65.25 93.75Q64.0 102.5 63.0 107.0L62.5 109.5Q62.5 111.0 62.25 111.75Q62.0 112.5 62.0 113.5V114.0Q64.5 113.5 73.5 108.5L75.0 107.5Q80.0 104.5 87.75 100.75Q95.5 97.0 102.0 95.0Q114.0 91.0 114.0 89.5Q114.0 88.5 108.0 87.0Q103.0 86.0 96.25 81.5Q89.5 77.0 83.5 72.5ZM137.5 146.5H130.0Q124.0 146.5 124.0 147.5Q124.0 149.0 125.25 151.5Q126.5 154.0 128.0 157.5L130.5 162.0L133.0 156.0Q134.5 153.0 135.75 150.25Q137.0 147.5 137.5 146.5ZM166.5 240.5Q161.5 232.5 159.5 232.5Q157.5 232.5 153.0 239.0Q148.5 245.5 148.5 247.5H151.5Q153.0 247.5 155.75 247.5Q158.5 247.5 161.0 247.0Q163.5 246.5 165.5 246.25Q167.5 246.0 170.0 246.0L169.0 244.0Q168.5 243.0 168.0 242.25Q167.5 241.5 166.5 240.5ZM188.0 195.0Q185.5 189.5 182.5 189.5Q180.5 189.5 177.25 194.75Q174.0 200.0 173.5 203.5Q174.5 203.5 177.25 203.75Q180.0 204.0 182.5 204.0Q191.5 204.0 191.5 202.5Q191.5 200.0 188.0 195.0ZM346.5 269.5Q335.5 266.0 324.75 262.25Q314.0 258.5 310.0 256.0Q308.5 255.0 307.0 254.25Q305.5 253.5 304.5 253.5Q302.5 253.5 301.75 259.0Q301.0 264.5 301.0 277.5Q301.0 303.0 306.5 303.0Q308.0 303.0 311.0 301.0Q313.5 299.5 323.0 294.75Q332.5 290.0 343.5 286.5Q350.5 284.0 357.0 281.5Q363.5 279.0 366.5 277.5Q365.0 276.5 362.5 275.5Q360.0 274.5 356.0 273.5Q354.0 272.5 351.5 271.5Q349.0 270.5 346.5 269.5ZM211.5 147.5Q211.5 146.0 206.5 142.0L204.5 140.5Q204.0 140.5 203.0 144.5Q201.5 149.0 201.5 152.0V152.5Q204.0 152.5 207.75 150.75Q211.5 149.0 211.5 147.5ZM434.5 232.0 425.0 227.0Q414.5 221.0 411.0 221.0Q409.5 221.0 409.5 231.5Q409.5 235.0 409.5 237.75Q409.5 240.5 409.0 242.0Q411.0 242.0 413.0 240.5Q415.5 239.5 418.25 238.5Q421.0 237.5 424.0 236.5ZM447.5 218.0 446.5 176.0 445.0 140.5 407.0 139.0H396.5Q394.5 138.5 392.75 138.5Q391.0 138.5 389.0 138.5Q373.5 138.5 366.0 140.75Q358.5 143.0 348.5 148.5Q329.0 158.5 320.75 168.0Q312.5 177.5 310.75 190.25Q309.0 203.0 309.0 223.5Q309.0 234.0 312.75 239.75Q316.5 245.5 326.5 250.0Q336.5 254.5 355.0 261.0Q365.5 264.0 374.25 266.0Q383.0 268.0 395.0 269.0Q407.0 270.0 428.0 270.25Q449.0 270.5 484.5 270.5H580.5L583.5 234.5L521.5 236.0Q494.0 236.5 478.25 237.75Q462.5 239.0 451.75 241.25Q441.0 243.5 428.5 248.0Q418.5 251.5 410.75 253.75Q403.0 256.0 400.0 256.0Q396.5 255.0 396.0 253.5Q396.0 251.0 396.25 243.5Q396.5 236.0 397.0 227.25Q397.5 218.5 398.5 211.75Q399.5 205.0 400.5 204.0H402.0Q404.0 204.0 409.5 206.25Q415.0 208.5 421.0 212.5Q428.0 216.0 436.5 217.75Q445.0 219.5 462.25 220.25Q479.5 221.0 511.5 222.0L583.5 223.5L580.5 183.5L550.5 182.0H543.0Q541.0 181.5 539.25 181.5Q537.5 181.5 536.0 181.5Q516.0 181.5 501.5 186.25Q487.0 191.0 471.0 201.5ZM473.0 173.5Q469.5 171.5 466.0 169.75Q462.5 168.0 460.5 167.0Q460.5 168.0 460.25 171.25Q460.0 174.5 460.0 178.5Q460.0 191.0 461.0 191.0Q463.5 191.0 471.5 186.0Q481.5 181.0 481.5 179.0Q481.5 177.5 473.0 173.5ZM330.0 32.0 333.5 26.0H271.5L279.5 41.5Q283.5 48.5 288.25 61.5Q293.0 74.5 296.0 84.0Q297.0 87.5 298.25 90.5Q299.5 93.5 300.0 95.5V95.0Q300.5 91.0 302.75 85.5Q305.0 80.0 307.5 78.0Q309.0 77.0 312.25 71.0Q315.5 65.0 317.5 58.5Q320.0 51.5 323.75 43.5Q327.5 35.5 330.0 32.0ZM332.0 121.5Q324.0 117.5 318.25 115.0Q312.5 112.5 312.0 112.5Q312.5 114.5 312.5 120.0Q312.5 125.5 312.5 132.5V153.5Q314.0 153.5 320.0 150.5Q326.0 147.5 333.25 143.5Q340.5 139.5 345.75 136.25Q351.0 133.0 351.0 132.5Q351.0 132.0 345.25 128.75Q339.5 125.5 332.0 121.5ZM481.0 134.5 472.5 128.5Q463.0 120.0 461.5 120.0Q460.0 120.0 460.0 132.5Q460.0 144.0 461.0 144.5Q462.5 144.0 465.75 142.5Q469.0 141.0 472.5 139.0ZM580.0 138.5Q579.0 137.0 567.5 136.0Q556.0 135.0 541.5 135.0Q530.5 135.0 520.5 135.75Q510.5 136.5 504.5 138.0Q494.0 141.5 483.0 147.5Q472.0 153.5 472.0 156.0Q472.0 156.5 474.25 158.5Q476.5 160.5 479.0 163.0Q484.0 166.5 496.0 167.75Q508.0 169.0 535.5 169.0H582.5V156.5Q582.5 151.0 581.75 145.75Q581.0 140.5 580.0 138.5ZM614.5 30.0Q612.5 29.0 602.5 27.5Q592.5 26.0 580.5 26.0H555.0L560.5 36.5Q565.0 43.0 570.25 56.5Q575.5 70.0 580.0 83.5Q583.0 91.5 585.5 97.75Q588.0 104.0 589.0 106.5Q590.0 104.0 591.0 100.5Q592.0 97.0 593.5 93.0L595.0 88.5Q596.0 86.0 596.75 83.25Q597.5 80.5 598.5 78.0Q602.0 65.5 606.25 54.0Q610.5 42.5 612.5 38.5L614.0 36.5Q616.5 32.5 616.5 31.5Q616.5 31.0 614.5 30.0ZM249.5 17.5Q249.5 12.0 260.75 11.0Q272.0 10.0 304.5 10.0Q336.0 10.0 347.75 11.0Q359.5 12.0 359.5 17.5Q359.5 19.5 356.75 23.25Q354.0 27.0 350.5 29.5Q345.5 32.5 339.5 43.25Q333.5 54.0 329.0 66.5Q324.5 79.0 323.0 88.5V92.5Q323.0 99.0 326.75 102.5Q330.5 106.0 343.0 113.0Q351.5 117.5 359.25 120.0Q367.0 122.5 377.75 123.5Q388.5 124.5 406.0 125.5L447.5 127.0V113.5Q447.5 105.5 448.5 100.25Q449.5 95.0 451.5 95.0Q453.0 95.0 458.0 99.0Q463.0 103.0 469.0 109.0Q480.0 121.0 495.0 123.0Q502.5 124.5 515.25 125.0Q528.0 125.5 540.5 125.5Q554.5 125.5 565.0 125.0Q575.5 124.5 576.5 124.0L577.0 123.0Q575.5 108.5 570.5 91.75Q565.5 75.0 557.75 59.0Q550.0 43.0 540.0 31.5Q531.5 22.0 530.5 16.5V16.0Q531.5 12.5 533.0 12.0Q534.5 11.0 541.5 11.0Q549.0 11.0 562.25 12.0Q575.5 13.0 590.5 14.5Q605.5 16.0 619.0 18.0Q632.5 20.0 641.25 21.75Q650.0 23.5 650.0 25.0Q650.0 30.5 642.5 30.5Q636.0 30.5 626.25 45.75Q616.5 61.0 608.5 84.5Q605.0 95.5 602.75 105.5Q600.5 115.5 599.25 130.5Q598.0 145.5 597.5 170.75Q597.0 196.0 596.5 238.0Q596.5 271.0 595.25 299.5Q594.0 328.0 592.5 345.5Q591.0 363.0 589.0 363.0Q587.0 363.0 584.75 351.25Q582.5 339.5 582.0 323.0L580.5 287.5L496.5 286.0H490.5Q478.0 285.5 467.0 285.25Q456.0 285.0 446.0 285.0Q416.5 285.0 396.75 287.0Q377.0 289.0 362.25 293.5Q347.5 298.0 332.0 305.5Q312.0 314.0 310.5 318.5Q312.0 321.0 326.5 324.0Q333.5 325.0 340.25 327.75Q347.0 330.5 349.0 332.0Q351.0 334.0 351.0 336.0Q351.0 339.5 345.0 339.5Q343.0 339.5 339.75 339.0Q336.5 338.5 333.5 338.0L330.0 337.5Q324.0 336.5 319.75 335.75Q315.5 335.0 313.0 335.0Q308.5 335.0 307.75 339.25Q307.0 343.5 306.5 354.0Q305.0 378.5 299.0 378.5Q293.0 378.5 291.5 352.5L291.0 330.0L230.5 318.0Q199.5 311.5 171.75 308.5Q144.0 305.5 119.5 305.5Q101.0 305.5 84.0 307.0Q67.0 308.5 49.5 312.5Q37.5 315.0 27.25 316.75Q17.0 318.5 13.5 318.5Q13.0 318.5 11.75 318.25Q10.5 318.0 10.5 318.0L10.0 316.0Q10.0 314.0 12.0 309.25Q14.0 304.5 17.0 301.0Q20.0 295.5 24.75 284.0Q29.5 272.5 33.0 263.0Q36.5 253.0 39.5 243.5Q42.5 234.0 43.5 232.0H44.0Q44.5 230.0 47.0 230.0Q52.0 230.0 68.0 246.0Q75.5 255.0 86.25 262.5Q97.0 270.0 106.0 274.5Q113.5 277.5 132.25 282.5Q151.0 287.5 175.0 293.25Q199.0 299.0 222.75 304.25Q246.5 309.5 264.25 312.75Q282.0 316.0 287.5 316.0Q290.0 316.0 291.0 313.5Q292.0 311.0 292.0 302.5Q292.0 298.0 292.0 292.0Q292.0 286.0 291.5 278.5L291.0 241.0L257.5 228.5Q238.5 222.0 225.0 219.25Q211.5 216.5 197.5 216.5Q183.5 216.5 177.25 217.75Q171.0 219.0 171.0 221.5Q171.0 224.0 173.5 227.5Q181.0 240.5 237.5 260.5Q256.5 265.5 267.25 270.5Q278.0 275.5 278.0 278.0Q278.0 281.5 271.0 281.5Q269.0 281.5 256.5 278.0Q244.0 274.5 230.0 269.5Q213.5 264.5 202.0 262.0Q190.5 259.5 179.0 259.5Q174.0 259.5 164.75 260.0Q155.5 260.5 147.25 262.0Q139.0 263.5 136.5 267.0Q134.0 269.5 131.25 271.75Q128.5 274.0 127.0 274.0Q125.0 274.0 124.0 265.5Q123.0 257.0 123.0 243.0V208.0Q123.5 205.5 123.5 203.0Q123.5 200.5 123.5 198.5Q123.5 182.5 121.5 175.75Q119.5 169.0 113.5 159.5Q111.5 155.0 109.0 152.0Q108.5 150.5 108.0 149.25Q107.5 148.0 106.5 147.5L104.0 142.5Q102.0 139.0 102.0 138.0Q102.0 135.5 110.5 134.25Q119.0 133.0 130.0 133.0Q158.0 133.0 158.0 141.0Q158.0 144.5 153.0 148.0Q148.0 152.0 144.5 162.5Q141.0 173.0 139.0 186.5Q137.0 200.0 136.25 212.0Q135.5 224.0 135.5 231.0Q135.5 236.0 135.75 239.0Q136.0 242.0 136.0 242.0Q137.5 242.0 146.0 224.5Q149.5 218.0 156.0 206.75Q162.5 195.5 168.0 187.5Q173.0 180.0 176.5 173.0Q180.0 166.0 180.0 165.0Q180.0 162.0 182.75 156.25Q185.5 150.5 189.0 142.5L207.0 111.0L216.5 130.0Q220.5 139.0 226.25 143.75Q232.0 148.5 247.5 155.5Q259.0 160.5 269.0 165.0Q279.0 169.5 282.5 170.5Q293.5 173.5 293.5 179.5Q293.5 182.0 293.0 183.25Q292.5 184.5 289.0 184.5Q286.0 184.5 261.0 175.5L257.5 174.0Q229.5 162.5 215.0 162.5Q213.5 162.5 207.5 163.5Q201.5 164.5 196.25 166.0Q191.0 167.5 191.0 169.5Q191.0 172.0 194.0 178.0Q195.0 182.5 198.75 187.25Q202.5 192.0 205.5 194.5Q211.0 198.0 223.25 203.0Q235.5 208.0 249.75 213.0Q264.0 218.0 275.75 221.5Q287.5 225.0 292.0 225.0Q294.5 224.0 295.25 219.5Q296.0 215.0 296.0 202.5Q296.0 194.5 295.5 180.5Q295.0 166.5 294.25 151.25Q293.5 136.0 292.0 123.25Q290.5 110.5 288.5 105.5L285.5 94.0H135.0L105.0 107.0Q93.5 112.0 82.25 117.75Q71.0 123.5 67.0 127.0Q62.0 130.5 57.5 132.25Q53.0 134.0 50.5 134.5Q46.0 133.5 46.0 129.5Q46.0 127.0 46.5 125.5V126.0Q48.5 121.0 50.75 107.0Q53.0 93.0 54.75 77.0Q56.5 61.0 56.5 51.5Q56.5 44.0 58.25 38.5Q60.0 33.0 60.5 33.0Q62.0 33.0 66.25 36.75Q70.5 40.5 75.5 45.5L80.0 49.5Q88.5 59.5 96.25 65.5Q104.0 71.5 116.25 74.75Q128.5 78.0 149.0 79.5Q169.5 81.0 203.5 82.0Q245.5 83.5 262.0 83.5Q274.0 83.5 277.25 82.75Q280.5 82.0 280.5 81.0Q280.5 76.0 276.0 65.5Q271.5 55.0 266.0 44.5Q260.5 34.0 256.5 30.0Q254.0 27.5 251.75 23.75Q249.5 20.0 249.5 17.5Z" fill="black" /></svg>