<svg xmlns="http://www.w3.org/2000/svg" width="727.5" height="466.0" viewBox="0 0 727.5 466.0"><path d="M186.5 327.0Q182.5 323.5 179.5 323.5Q177.0 323.5 176.5 329.75Q176.0 336.0 176.0 348.0V387.5L188.5 384.0Q192.0 383.5 197.0 380.5Q203.5 379.0 208.5 377.0Q223.0 370.5 238.75 366.0Q254.5 361.5 271.5 358.0L280.5 356.5L256.5 348.5Q252.5 347.5 247.25 345.75Q242.0 344.0 238.5 343.0L231.0 340.0Q223.5 338.0 217.5 336.25Q211.5 334.5 207.5 334.5Q196.5 334.5 186.5 327.0ZM114.5 228.0Q114.5 218.0 121.25 207.25Q128.0 196.5 134.0 188.5Q135.0 187.5 135.5 186.5Q136.0 185.5 136.5 184.5Q132.5 186.5 123.25 192.75Q114.0 199.0 100.0 208.5Q70.0 229.0 70.0 230.5Q70.0 230.5 72.25 231.0Q74.5 231.5 77.5 232.5Q86.0 234.0 92.75 235.5Q99.5 237.0 104.0 237.0Q114.5 237.0 114.5 228.0ZM281.0 186.5Q276.5 183.0 265.25 176.0Q254.0 169.0 240.75 161.25Q227.5 153.5 216.0 148.0Q204.5 142.5 200.0 142.5Q196.5 142.5 185.75 152.75Q175.0 163.0 162.25 178.75Q149.5 194.5 138.0 211.0Q136.0 217.5 134.75 226.5Q133.5 235.5 133.5 242.5Q135.0 253.5 139.75 261.25Q144.5 269.0 159.0 279.5Q187.5 301.0 212.75 313.5Q238.0 326.0 266.75 332.5Q295.5 339.0 333.5 342.5L384.5 346.5V241.0L373.0 245.5Q366.5 248.0 351.5 253.75Q336.5 259.5 323.0 266.0Q309.0 273.0 297.75 278.0Q286.5 283.0 285.0 283.0Q282.0 283.0 282.0 271.0Q282.0 265.5 282.25 258.0Q282.5 250.5 283.0 241.5V229.5Q283.0 214.5 282.0 200.5Q281.0 186.5 281.0 186.5ZM349.0 215.5 319.0 199.5Q316.0 202.5 312.0 202.5Q307.0 202.5 304.5 201.0H303.0L301.5 200.5Q299.5 201.0 299.5 214.0Q299.5 217.0 299.5 219.75Q299.5 222.5 300.0 225.5V234.5Q300.0 244.0 300.75 248.75Q301.5 253.5 305.0 253.5Q311.5 253.5 328.0 244.5Q336.5 240.0 348.0 235.5Q359.5 231.0 366.5 230.0Q369.5 229.0 371.5 228.5Q373.5 228.0 373.5 228.0Q372.5 227.0 366.5 223.75Q360.5 220.5 349.0 215.5ZM468.0 344.5V231.0H450.0Q441.0 231.0 432.5 231.25Q424.0 231.5 418.5 232.5H416.5L412.5 233.0Q409.0 233.0 404.0 234.0V341.5ZM247.5 98.5Q248.5 97.5 249.0 97.0Q249.5 96.5 250.0 96.0Q248.0 97.0 246.0 98.25Q244.0 99.5 241.5 101.5Q238.0 103.0 234.5 105.5L226.5 111.5Q218.5 116.5 215.0 119.25Q211.5 122.0 210.5 123.0Q212.0 124.5 213.0 125.0L214.5 126.0Q223.0 131.0 229.5 131.0Q238.5 131.0 238.5 124.5Q238.5 119.0 241.0 111.5Q243.5 104.0 247.5 98.5ZM413.5 77.0Q409.5 76.0 401.0 74.5Q392.5 73.0 382.5 72.0L358.5 69.0L370.5 90.5Q376.0 101.5 381.5 113.75Q387.0 126.0 390.5 135.0L391.5 134.0Q394.0 125.5 397.0 117.75Q400.0 110.0 404.0 102.0Q407.5 95.0 410.25 88.25Q413.0 81.5 413.5 77.0ZM437.0 108.5Q434.0 103.0 430.25 97.75Q426.5 92.5 426.5 92.5Q425.0 95.0 423.0 98.5Q421.0 102.0 420.0 105.0Q414.0 114.5 408.25 132.75Q402.5 151.0 402.5 170.5V210.0L436.0 211.0Q446.0 211.5 455.5 212.0Q465.0 212.5 468.0 212.5L467.0 200.5V198.0Q466.5 191.0 463.5 179.25Q460.5 167.5 456.0 154.0Q451.5 140.5 446.5 128.25Q441.5 116.0 437.0 108.5ZM497.5 97.5 505.5 86.0H445.0L473.0 144.5L477.0 134.0Q481.0 125.5 486.75 114.75Q492.5 104.0 497.5 97.5ZM679.5 34.5H655.5Q644.0 34.5 631.25 33.75Q618.5 33.0 613.5 32.5L611.0 32.0Q610.0 32.0 608.75 31.75Q607.5 31.5 606.5 31.5Q604.5 31.5 604.5 33.0Q604.5 39.0 615.0 58.0Q619.5 67.5 625.0 81.75Q630.5 96.0 633.0 107.0Q637.0 129.5 641.0 129.5Q642.0 129.5 646.0 111.5Q647.0 102.5 653.25 87.25Q659.5 72.0 666.0 60.0ZM579.0 12.5H578.5L579.5 11.5Q581.5 10.0 586.5 10.0Q590.0 10.0 595.25 10.5Q600.5 11.0 605.5 12.5Q615.0 15.0 633.5 16.5Q652.0 18.0 670.5 18.0Q692.5 18.0 705.0 20.5Q717.5 23.0 717.5 28.0Q717.5 30.0 714.25 32.25Q711.0 34.5 707.0 37.0Q701.0 40.0 692.75 52.25Q684.5 64.5 676.5 80.5Q668.5 96.5 663.0 112.5Q660.0 124.0 658.25 144.75Q656.5 165.5 655.75 201.0Q655.0 236.5 654.5 292.5V411.5Q654.5 431.5 654.0 441.0Q653.5 450.5 651.75 453.25Q650.0 456.0 646.0 456.0Q642.0 456.0 640.0 453.0Q638.0 450.0 637.5 440.25Q637.0 430.5 637.0 410.5V232.5H486.0V344.5H556.5Q591.5 344.5 612.25 346.5Q633.0 348.5 633.0 353.5Q633.0 357.5 602.0 359.75Q571.0 362.0 506.0 362.0Q485.5 362.0 461.25 361.75Q437.0 361.5 409.0 360.5Q353.0 362.0 300.0 371.5Q247.0 381.0 196.5 400.0Q184.0 405.0 173.75 408.25Q163.5 411.5 160.0 411.5Q157.5 411.5 156.0 409.0V408.0Q156.0 406.5 156.5 400.5Q157.0 394.5 158.0 388.0Q160.0 377.5 161.25 366.0Q162.5 354.5 162.5 343.5Q162.5 321.0 156.75 308.5Q151.0 296.0 132.0 282.0Q114.5 268.5 102.75 261.75Q91.0 255.0 79.75 252.0Q68.5 249.0 52.0 247.0L10.0 242.5L52.0 218.0Q62.5 212.0 79.75 201.25Q97.0 190.5 115.75 178.25Q134.5 166.0 149.25 155.25Q164.0 144.5 170.0 139.0Q169.5 139.0 169.25 138.75Q169.0 138.5 168.5 138.5Q165.0 137.5 165.0 134.5Q165.0 131.0 177.25 122.0Q189.5 113.0 207.0 102.0Q220.5 94.0 235.25 84.75Q250.0 75.5 263.0 66.5Q276.0 57.5 284.0 52.0Q294.0 43.5 303.25 38.5Q312.5 33.5 316.0 33.5Q319.0 33.5 320.0 36.5V37.5Q320.0 40.5 311.25 51.75Q302.5 63.0 289.0 78.5Q255.5 116.0 255.5 128.5Q255.5 131.0 258.5 131.0Q264.5 131.0 264.5 135.5Q264.5 138.0 261.0 144.5Q258.5 147.0 258.5 148.5Q258.5 151.0 267.5 156.5L270.5 157.5Q274.0 159.5 277.5 162.0Q281.0 164.5 283.5 165.0Q283.5 162.5 284.0 161.5Q284.5 160.5 287.5 160.5Q290.5 160.5 299.25 164.75Q308.0 169.0 316.0 175.5Q324.5 182.0 338.25 189.75Q352.0 197.5 365.5 203.0Q379.0 208.5 385.5 209.5Q385.0 207.5 384.75 202.25Q384.5 197.0 384.5 190.0Q384.5 178.0 379.0 160.25Q373.5 142.5 364.75 122.5Q356.0 102.5 345.0 84.0Q339.0 74.0 334.5 65.5Q330.0 57.0 330.0 54.0Q330.0 53.0 330.5 52.0Q331.0 51.0 331.5 50.5Q333.0 49.5 339.0 49.5Q343.0 49.5 352.5 50.25Q362.0 51.0 373.0 53.0Q381.0 53.5 390.0 54.5Q399.0 55.5 408.0 55.5Q413.5 55.5 418.75 54.75Q424.0 54.0 427.5 53.5Q430.0 53.0 432.0 53.0Q434.0 53.0 436.0 53.0Q450.5 53.0 450.5 60.5Q450.5 62.0 449.0 63.5Q449.0 64.0 448.75 64.25Q448.5 64.5 448.5 65.5L447.0 66.0Q448.5 68.5 459.75 69.0Q471.0 69.5 486.5 69.5H497.5Q515.0 69.5 528.5 69.75Q542.0 70.0 542.0 70.0Q542.0 73.5 535.5 82.0Q529.0 90.5 519.0 101.5Q501.5 120.5 494.25 143.0Q487.0 165.5 486.5 191.5L487.0 212.5L563.5 213.5L637.0 215.5L635.0 189.0Q634.0 175.5 629.5 157.0Q625.0 138.5 618.5 118.25Q612.0 98.0 605.0 79.5Q598.0 61.0 591.0 47.0Q585.5 37.0 582.0 27.75Q578.5 18.5 578.5 15.5Q578.5 13.0 579.0 12.5Z" fill="black" /></svg>