<svg xmlns="http://www.w3.org/2000/svg" width="430.5" height="381.5" viewBox="0 0 430.5 381.5"><path d="M97.5 171.5Q93.0 153.5 90.5 153.5Q90.0 153.5 88.0 157.5Q87.5 159.0 80.25 169.5Q73.0 180.0 64.0 191.0L45.0 213.5L58.0 216.0Q69.0 217.5 82.5 220.25Q96.0 223.0 108.5 225.75Q121.0 228.5 128.5 230.5L131.0 231.0H131.5Q131.0 230.0 129.5 227.75Q128.0 225.5 125.5 222.5Q117.0 211.0 109.25 198.25Q101.5 185.5 97.5 171.5ZM235.5 192.0 225.0 188.5Q221.0 187.0 211.25 182.5Q201.5 178.0 197.5 174.5Q197.0 176.0 197.0 190.0Q197.0 208.0 198.5 208.0Q201.0 208.0 206.5 204.0Q209.0 202.5 215.75 199.75Q222.5 197.0 228.5 195.0ZM215.5 30.5Q215.5 30.0 205.75 29.75Q196.0 29.5 183.0 29.5L152.5 28.5L159.0 42.0Q162.5 49.0 167.5 62.0Q172.5 75.0 176.0 86.5L182.5 106.5L189.0 87.5Q192.5 75.5 198.0 63.5Q203.5 51.5 207.5 46.5Q210.5 41.5 213.0 36.75Q215.5 32.0 215.5 30.5ZM129.5 14.0Q129.5 10.0 135.0 10.0Q139.0 10.0 145.0 12.0Q149.5 13.0 161.75 13.75Q174.0 14.5 188.5 14.5H198.0Q217.0 14.5 230.0 16.25Q243.0 18.0 243.0 19.0Q243.0 20.0 238.75 26.25Q234.5 32.5 229.0 40.0Q215.0 58.5 206.0 83.25Q197.0 108.0 197.0 132.0V158.5L215.5 168.0Q222.0 171.0 228.5 173.25Q235.0 175.5 246.0 176.75Q257.0 178.0 276.0 178.75Q295.0 179.5 326.5 180.0Q353.5 180.5 374.75 181.75Q396.0 183.0 408.25 184.5Q420.5 186.0 420.5 188.5Q420.5 192.0 399.25 193.75Q378.0 195.5 347.0 195.5Q320.5 195.5 302.0 196.25Q283.5 197.0 269.5 199.25Q255.5 201.5 243.5 205.25Q231.5 209.0 217.5 215.0L196.0 224.5L199.0 264.0L265.5 310.5Q283.5 323.0 299.25 334.75Q315.0 346.5 325.0 355.0Q335.0 363.5 336.0 365.5Q336.0 365.5 336.0 365.75Q336.0 366.0 336.5 366.5Q336.5 368.5 336.0 370.0Q335.5 371.5 333.0 371.5Q329.5 371.5 312.0 359.75Q294.5 348.0 255.0 321.0L199.0 282.0L197.5 318.5Q196.0 361.5 189.5 362.5Q182.0 361.5 182.0 314.0Q182.0 293.0 181.5 283.25Q181.0 273.5 178.75 269.25Q176.5 265.0 172.0 262.0Q165.0 258.0 150.75 253.25Q136.5 248.5 118.75 243.75Q101.0 239.0 83.25 235.25Q65.5 231.5 51.0 230.0L10.0 226.0L33.0 203.0Q40.5 195.5 52.25 181.0Q64.0 166.5 73.0 154.5Q82.0 142.5 89.5 134.25Q97.0 126.0 99.0 126.0Q102.0 127.0 103.75 132.0Q105.5 137.0 106.5 144.0Q108.0 162.0 118.25 182.25Q128.5 202.5 144.0 219.75Q159.5 237.0 176.5 245.5Q180.5 248.5 182.0 248.5V241.5Q182.0 238.5 181.75 235.75Q181.5 233.0 181.0 233.0Q179.0 233.0 177.75 225.5Q176.5 218.0 176.5 205.5Q176.5 201.0 176.5 196.5Q176.5 192.0 177.0 187.0Q177.5 181.5 177.5 176.25Q177.5 171.0 177.5 167.0Q177.5 147.5 172.25 124.75Q167.0 102.0 158.75 80.25Q150.5 58.5 140.5 42.0Q135.5 32.5 132.5 24.75Q129.5 17.0 129.5 14.0Z" fill="black" /></svg>