<svg xmlns="http://www.w3.org/2000/svg" width="788.0" height="468.0" viewBox="0 0 788.0 468.0"><path d="M84.5 330.5Q64.0 315.0 58.0 313.5Q58.0 327.0 55.75 341.5Q53.5 356.0 50.0 369.5Q48.0 379.0 46.75 387.75Q45.5 396.5 45.5 402.0Q49.0 401.0 54.75 398.75Q60.5 396.5 66.0 394.5Q75.5 390.5 96.75 385.5Q118.0 380.5 138.0 376.5L171.0 371.5L144.5 360.0Q126.5 353.5 109.25 344.5Q92.0 335.5 84.5 330.5ZM226.5 206.0 228.0 205.0 225.0 200.5 222.5 198.5 221.0 200.0Q221.0 201.5 222.75 203.25Q224.5 205.0 226.5 206.0ZM234.5 282.5Q234.5 281.0 227.0 278.0L225.5 276.5Q224.5 278.5 224.5 279.0Q224.5 283.5 229.5 283.5Q231.0 283.5 232.75 283.25Q234.5 283.0 234.5 282.5ZM538.0 242.0Q539.0 241.0 540.0 239.5Q541.0 238.0 541.5 237.0Q538.0 240.5 531.0 249.0Q524.5 256.5 517.0 262.25Q509.5 268.0 507.0 268.0Q504.5 268.0 498.0 274.5Q497.5 275.0 497.0 276.5Q496.5 278.0 496.5 278.0Q497.5 279.0 501.5 279.5L503.0 280.0Q508.5 281.5 516.0 283.75Q523.5 286.0 527.0 287.0Q529.0 288.0 530.5 288.0Q532.5 288.0 532.5 275.5Q532.5 267.0 534.0 257.75Q535.5 248.5 538.0 242.0ZM132.5 72.0 141.0 60.0H126.0Q109.0 60.0 104.5 58.5Q105.5 61.5 108.25 69.75Q111.0 78.0 114.0 85.25Q117.0 92.5 118.0 93.5Q118.5 93.0 121.5 88.5Q126.0 82.0 132.5 72.0ZM228.0 128.0Q228.0 124.0 224.5 122.5V124.0Q224.5 129.0 226.5 129.0Q228.0 129.0 228.0 128.0ZM423.5 135.0Q415.5 138.5 404.5 144.75Q393.5 151.0 385.25 157.0Q377.0 163.0 377.0 166.5Q377.0 168.5 392.0 171.0Q393.5 172.5 395.25 172.75Q397.0 173.0 398.0 173.0Q401.5 173.0 403.25 170.25Q405.0 167.5 407.0 162.5Q409.5 155.5 414.75 147.75Q420.0 140.0 423.5 135.0ZM506.5 166.0Q508.0 147.5 508.75 130.75Q509.5 114.0 509.5 101.5Q509.5 92.5 509.5 86.75Q509.5 81.0 508.5 79.5Q508.5 78.5 508.0 77.25Q507.5 76.0 507.0 76.0Q504.5 76.0 496.0 83.75Q487.5 91.5 476.75 103.75Q466.0 116.0 455.25 129.75Q444.5 143.5 437.25 156.0Q430.0 168.5 429.0 177.0V179.0Q430.5 186.0 438.0 198.5Q445.5 211.0 455.5 223.75Q465.5 236.5 474.5 245.25Q483.5 254.0 488.0 254.0Q495.0 254.0 499.0 235.0Q503.0 216.0 506.5 166.0ZM524.5 58.5 528.5 67.5 546.0 41.5H533.5Q517.0 41.5 517.0 44.0Q517.0 47.5 524.5 58.5ZM720.0 40.5Q717.5 41.0 713.0 41.25Q708.5 41.5 703.0 41.5Q692.0 41.5 688.0 41.75Q684.0 42.0 684.0 43.0Q684.0 43.5 684.25 44.5Q684.5 45.5 684.5 47.5L686.0 51.5Q687.0 54.5 688.25 58.25Q689.5 62.0 690.5 65.0Q691.5 71.0 692.0 74.0L693.5 78.5Q694.5 82.0 695.0 84.25Q695.5 86.5 695.5 86.5Q697.0 86.5 703.75 74.25Q710.5 62.0 720.0 40.5ZM578.0 16.0Q582.5 10.0 593.5 10.0Q600.5 10.0 607.5 13.25Q614.5 16.5 617.0 22.0V25.5Q617.0 36.0 601.5 36.0Q593.5 36.0 582.5 43.0Q571.5 50.0 561.0 61.0Q550.5 72.0 543.0 85.0Q535.0 97.5 531.75 115.75Q528.5 134.0 526.0 166.5Q525.5 179.0 525.5 190.25Q525.5 201.5 525.5 210.0Q525.5 213.5 525.25 216.5Q525.0 219.5 524.5 221.5Q528.5 218.5 536.0 211.75Q543.5 205.0 551.5 197.0Q562.5 186.5 572.25 179.75Q582.0 173.0 585.0 173.0L587.5 176.0Q587.5 179.5 582.25 193.0Q577.0 206.5 570.0 222.0Q551.5 253.5 551.5 274.0Q551.5 290.0 563.5 305.0Q575.5 320.0 598.5 337.5Q613.0 347.5 626.75 360.25Q640.5 373.0 647.0 380.0Q654.0 388.0 660.0 392.0Q666.0 396.0 677.5 397.75Q689.0 399.5 711.0 401.0Q712.0 401.0 714.0 401.25Q716.0 401.5 718.0 401.5Q726.0 402.5 737.5 404.0Q749.0 405.5 757.75 408.25Q766.5 411.0 766.5 415.5Q766.5 419.0 763.5 420.5Q760.5 422.0 748.5 422.0Q737.0 422.0 710.0 420.75Q683.0 419.5 632.75 416.25Q582.5 413.0 501.0 407.5Q407.5 402.0 335.0 398.75Q262.5 395.5 214.5 395.5Q158.5 395.5 124.5 399.75Q90.5 404.0 71.0 413.5Q51.5 423.0 39.0 439.0Q32.0 447.0 25.25 452.5Q18.5 458.0 15.0 458.0H13.5Q11.5 456.5 10.75 454.25Q10.0 452.0 10.0 450.5Q10.0 445.0 12.0 437.0Q14.0 429.0 16.0 422.5Q25.5 394.5 30.25 368.25Q35.0 342.0 35.0 323.5Q35.0 315.5 34.25 308.25Q33.5 301.0 31.5 294.5Q30.0 288.0 28.75 282.25Q27.5 276.5 27.0 271.5Q27.5 264.5 30.25 259.5Q33.0 254.5 37.5 254.5Q39.0 254.5 41.0 255.75Q43.0 257.0 44.0 258.0Q48.0 260.5 49.75 265.0Q51.5 269.5 51.5 275.0Q51.5 278.5 57.75 285.25Q64.0 292.0 72.75 299.25Q81.5 306.5 89.75 311.75Q98.0 317.0 102.0 317.5Q102.5 316.0 103.0 305.5Q103.5 295.0 103.75 279.0Q104.0 263.0 104.25 245.25Q104.5 227.5 104.75 211.5Q105.0 195.5 105.0 184.75Q105.0 174.0 105.0 172.5Q105.0 143.0 104.25 125.75Q103.5 108.5 101.5 99.0Q99.5 89.5 96.0 83.5Q86.5 67.5 76.0 62.0Q69.5 60.0 65.5 56.25Q61.5 52.5 61.5 50.0Q61.5 39.0 102.5 39.0Q118.0 39.0 135.0 37.25Q152.0 35.5 162.5 32.5L167.0 31.5Q175.5 29.0 181.5 29.0Q185.5 29.0 189.25 30.5Q193.0 32.0 195.5 33.5Q199.5 37.5 199.5 41.0Q199.5 47.5 189.0 47.5Q182.5 47.5 173.25 55.75Q164.0 64.0 154.75 78.0Q145.5 92.0 138.0 109.5Q133.0 119.0 130.0 127.25Q127.0 135.5 125.75 147.5Q124.5 159.5 124.0 179.5Q123.5 199.5 123.5 232.5V267.5Q123.5 291.5 125.25 305.75Q127.0 320.0 132.5 328.0Q138.0 336.0 149.5 341.25Q161.0 346.5 181.0 353.0Q183.5 353.5 185.5 354.0Q187.5 354.5 189.0 355.5Q190.5 356.0 191.75 356.5Q193.0 357.0 194.5 357.5Q209.5 362.0 227.25 365.5Q245.0 369.0 271.0 372.0Q297.0 375.0 337.0 378.25Q377.0 381.5 437.0 385.5Q481.5 388.0 521.25 390.0Q561.0 392.0 590.0 393.25Q619.0 394.5 630.0 394.5Q630.5 394.5 630.75 394.5Q631.0 394.5 631.5 394.5Q630.0 390.5 618.5 380.25Q607.0 370.0 582.0 351.5Q556.5 332.5 539.0 321.25Q521.5 310.0 507.75 304.0Q494.0 298.0 479.0 295.0Q468.5 293.5 461.25 289.5Q454.0 285.5 454.0 281.5Q454.0 276.5 458.25 273.75Q462.5 271.0 466.0 271.0Q463.5 260.5 436.5 233.5Q409.5 207.5 391.5 196.25Q373.5 185.0 358.5 185.0Q344.5 185.0 336.75 181.75Q329.0 178.5 329.0 173.5Q329.0 164.5 345.5 156.5Q363.5 149.5 363.5 146.5Q363.5 144.5 349.0 143.75Q334.5 143.0 303.5 143.0Q276.0 143.0 261.75 144.0Q247.5 145.0 241.0 147.5Q234.5 150.0 229.0 154.5Q226.0 157.0 224.0 159.75Q222.0 162.5 221.0 164.0Q225.5 167.5 228.5 173.0Q238.0 183.0 249.5 189.25Q261.0 195.5 279.0 198.0Q297.0 200.5 326.0 200.5Q352.5 200.5 372.25 202.25Q392.0 204.0 394.0 208.5V210.0Q394.0 220.5 314.0 220.5Q279.5 220.5 262.25 221.0Q245.0 221.5 238.0 223.75Q231.0 226.0 226.5 231.0Q224.0 233.5 222.0 236.0Q220.0 238.5 220.0 239.5Q220.0 241.5 222.0 243.75Q224.0 246.0 227.0 249.5Q236.5 260.0 249.25 266.25Q262.0 272.5 283.0 275.0Q304.0 277.5 337.0 277.5Q340.5 277.5 353.0 277.75Q365.5 278.0 380.25 279.0Q395.0 280.0 406.0 282.25Q417.0 284.5 417.0 289.0Q417.0 298.5 331.5 298.5Q300.0 298.5 282.25 298.75Q264.5 299.0 255.0 300.25Q245.5 301.5 240.5 304.5Q235.5 307.5 230.0 313.0L204.5 334.0L203.5 286.5Q202.0 255.5 201.75 224.0Q201.5 192.5 201.5 162.0Q201.5 123.5 203.0 98.25Q204.5 73.0 207.5 71.5H209.0Q212.0 71.5 216.0 75.5Q220.0 79.5 221.0 86.5Q225.5 106.0 251.0 114.25Q276.5 122.5 331.0 124.0H360.5Q380.0 124.0 390.75 123.0Q401.5 122.0 408.25 119.25Q415.0 116.5 421.5 112.5Q455.0 87.5 475.75 71.25Q496.5 55.0 496.5 52.0Q496.5 50.0 491.0 46.75Q485.5 43.5 478.5 41.0Q473.0 38.5 469.75 36.25Q466.5 34.0 466.5 31.0Q466.5 26.0 478.5 24.75Q490.5 23.5 518.0 23.0Q539.5 22.0 557.5 19.75Q575.5 17.5 578.0 16.0ZM746.5 19.0Q746.5 10.0 756.5 10.0Q762.0 10.0 768.5 13.25Q775.0 16.5 777.0 21.5Q777.0 23.0 778.0 23.5Q778.0 28.5 775.5 32.25Q773.0 36.0 767.5 36.0Q761.5 36.0 751.0 45.75Q740.5 55.5 730.25 70.25Q720.0 85.0 713.5 100.0Q708.5 110.0 705.25 126.25Q702.0 142.5 699.5 170.75Q697.0 199.0 694.5 246.5Q693.0 280.0 691.0 308.5Q689.0 337.0 687.25 354.75Q685.5 372.5 684.5 373.5L683.0 374.5Q682.5 375.0 681.25 375.5Q680.0 376.0 678.5 376.0Q675.0 376.0 673.0 369.25Q671.0 362.5 671.0 345.5Q671.0 331.0 672.25 306.25Q673.5 281.5 675.5 244.0Q677.0 217.5 678.25 190.75Q679.5 164.0 679.5 138.0Q679.5 110.5 677.0 94.5Q674.5 78.5 669.75 69.0Q665.0 59.5 657.0 52.0Q649.0 43.5 644.0 36.75Q639.0 30.0 639.0 28.0Q639.0 26.5 656.0 23.75Q673.0 21.0 696.5 21.0Q720.0 21.0 733.25 20.25Q746.5 19.5 746.5 19.0Z" fill="black" /></svg>