<svg xmlns="http://www.w3.org/2000/svg" width="653.5" height="384.0" viewBox="0 0 653.5 384.0"><path d="M39.5 283.0V282.5Q36.5 281.5 34.5 281.0Q32.5 280.5 30.5 280.5Q26.5 280.5 26.5 287.5V292.5Q29.0 291.5 35.0 288.25Q41.0 285.0 41.5 284.0Q41.5 284.0 39.5 283.0ZM45.5 332.5Q39.0 330.0 33.0 330.0Q31.0 330.0 31.0 335.0Q31.0 341.5 31.5 341.5Q34.0 341.5 39.25 337.75Q44.5 334.0 45.5 332.5ZM81.0 323.5V303.5Q81.0 289.0 79.5 286.75Q78.0 284.5 72.0 284.5Q69.0 284.5 62.0 287.5Q55.0 290.5 47.5 295.0Q40.0 299.5 34.5 304.0Q29.0 308.5 29.0 311.5Q29.0 312.0 31.0 313.5Q33.0 315.5 41.5 317.75Q50.0 320.0 58.5 321.0ZM49.0 155.0Q49.0 148.0 48.0 148.0Q46.5 148.0 42.5 152.0Q38.5 156.0 37.0 158.5Q41.0 159.5 47.0 161.0Q47.0 161.5 47.5 161.5Q48.0 161.5 48.0 161.5Q49.0 161.5 49.0 155.0ZM99.5 246.5Q99.5 246.5 97.75 246.25Q96.0 246.0 93.5 246.0Q90.0 246.0 90.0 247.0Q90.0 247.0 90.0 247.75Q90.0 248.5 90.5 248.5Q92.0 252.5 93.0 257.0Q94.5 255.5 97.0 252.0Q99.5 248.5 99.5 246.5ZM144.0 230.0H144.5Q145.5 226.0 146.5 223.5Q147.5 221.0 148.0 219.0Q144.5 220.0 138.0 223.5L130.0 227.0L139.0 242.0ZM240.5 288.5 244.5 288.0 186.0 268.5V270.5Q186.5 272.5 186.5 276.75Q186.5 281.0 186.5 286.0Q186.5 295.0 187.0 298.25Q187.5 301.5 188.5 301.5Q190.0 301.5 191.0 301.0Q197.5 298.5 211.75 295.0Q226.0 291.5 240.5 288.5ZM259.5 193.5Q256.5 191.0 254.0 191.0Q253.0 191.0 253.0 196.0V199.0Q255.0 199.0 256.5 197.5L258.0 196.5Q260.0 195.0 260.5 194.0Q260.0 194.0 259.5 193.5ZM259.0 236.0V235.5Q257.5 235.5 256.5 235.0Q255.0 234.5 254.25 234.25Q253.5 234.0 253.0 234.0V239.0Q253.0 242.5 255.0 244.5Q256.0 243.5 257.25 242.75Q258.5 242.0 260.0 240.0Q262.0 238.0 262.0 237.5Q262.0 237.0 259.0 236.0ZM307.0 223.5 351.5 223.0 354.0 191.0 344.0 191.5Q341.5 191.5 337.5 191.75Q333.5 192.0 328.5 192.5H323.0Q321.0 192.5 318.75 192.5Q316.5 192.5 314.0 193.0H305.5Q291.5 194.0 283.5 196.75Q275.5 199.5 267.0 207.0Q256.0 215.0 256.0 218.0Q256.0 219.0 257.0 220.0Q258.5 222.0 264.5 223.0Q270.5 224.0 283.5 224.0Q288.5 224.0 294.25 224.0Q300.0 224.0 307.0 223.5ZM427.5 195.0 414.0 193.0Q406.0 192.0 398.75 190.5Q391.5 189.0 389.0 188.5L388.0 188.0Q386.0 188.5 384.5 205.5V223.0ZM90.0 81.5Q87.0 80.0 85.0 79.25Q83.0 78.5 80.0 78.5V79.5Q80.0 79.5 80.25 80.0Q80.5 80.5 80.5 81.0Q81.5 83.0 83.5 83.0H85.0Q86.0 83.0 88.0 82.0Q89.0 81.5 90.0 81.5ZM108.0 165.0 126.0 155.5 107.5 137.0Q108.0 139.0 108.0 142.5Q108.0 146.0 108.0 151.5ZM204.0 115.5 174.0 85.0 153.0 86.0Q145.0 86.0 133.25 87.25Q121.5 88.5 110.25 90.75Q99.0 93.0 90.75 95.25Q82.5 97.5 81.0 99.5Q79.0 101.5 75.75 110.0Q72.5 118.5 69.5 129.5Q66.5 140.5 64.5 150.5Q62.5 160.5 62.5 166.0V167.5Q63.5 171.5 71.5 180.5Q79.5 189.5 89.75 199.0Q100.0 208.5 107.0 214.5Q107.0 207.5 113.0 207.5Q115.5 207.5 119.0 209.0Q122.5 211.5 125.5 211.5Q131.0 211.5 143.75 205.0Q156.5 198.5 171.0 189.25Q185.5 180.0 197.0 171.5Q208.5 163.0 212.0 159.0Q203.0 159.5 189.5 161.0Q176.0 162.5 162.0 164.75Q148.0 167.0 137.25 169.25Q126.5 171.5 122.5 173.0Q119.0 175.0 115.25 178.5Q111.5 182.0 110.5 184.5Q107.5 195.0 103.0 195.0Q95.5 195.0 95.5 148.5Q95.5 105.5 102.0 105.5H103.0Q105.5 106.5 106.75 109.75Q108.0 113.0 108.0 115.0Q108.0 117.0 113.5 123.0Q119.0 129.0 127.0 136.0L144.0 153.5L184.0 149.5Q200.5 148.0 213.25 146.5Q226.0 145.0 229.5 144.5Q228.5 142.0 222.25 134.5Q216.0 127.0 204.0 115.5ZM160.0 72.5 155.5 64.0 156.5 65.0Q155.0 62.5 154.0 60.5Q153.0 58.5 152.0 57.0L151.5 56.0Q151.0 55.5 151.0 55.5Q149.0 57.0 146.25 59.75Q143.5 62.5 140.0 65.5L132.5 72.5ZM258.0 142.0Q257.0 141.0 256.0 140.5Q255.0 140.0 253.5 140.0Q252.5 140.0 251.5 141.0V142.0Q252.0 142.5 252.75 143.25Q253.5 144.0 254.0 144.0Q255.0 144.0 256.0 143.5Q258.0 143.5 258.0 142.0ZM310.0 60.0H309.5Q301.0 55.5 290.75 50.0Q280.5 44.5 275.0 40.5L264.5 33.0L240.5 60.0L270.5 62.5Q276.0 63.0 281.5 63.25Q287.0 63.5 292.0 63.5Q300.0 64.0 307.5 64.25Q315.0 64.5 322.5 64.5Q320.5 63.5 317.25 62.5Q314.0 61.5 310.0 60.0ZM376.0 48.0 382.5 34.5H369.0Q361.5 34.5 358.75 34.5Q356.0 34.5 356.0 35.5Q356.0 37.0 356.5 38.0Q358.0 41.5 359.25 46.25Q360.5 51.0 361.0 55.5Q362.0 59.0 363.0 61.5Q364.0 64.0 365.0 64.0Q366.5 64.0 369.5 59.5Q372.5 55.0 376.0 48.0ZM255.5 20.5V20.0Q261.5 10.0 265.5 10.0Q266.5 10.0 269.5 12.75Q272.5 15.5 274.5 20.5Q275.5 24.0 284.75 30.0Q294.0 36.0 306.5 41.5Q340.5 59.0 348.5 59.0Q350.0 59.0 350.0 57.5Q350.0 53.0 342.5 39.5L332.0 19.5H370.0Q405.0 19.5 405.0 26.5Q405.0 32.5 398.0 35.5V36.0Q396.5 36.5 392.5 43.75Q388.5 51.0 385.5 59.0Q382.5 67.0 382.0 71.0Q383.0 71.5 400.75 77.0Q418.5 82.5 447.75 91.5Q477.0 100.5 512.5 111.0Q548.5 122.0 578.25 132.5Q608.0 143.0 625.75 149.75Q643.5 156.5 643.5 157.5Q643.5 159.5 640.0 161.25Q636.5 163.0 625.75 165.25Q615.0 167.5 593.5 170.5Q572.0 173.5 536.0 179.0L456.5 191.0L427.5 210.5Q415.0 218.5 403.0 227.75Q391.0 237.0 387.0 241.5Q383.5 246.0 379.5 249.5Q375.5 253.0 374.5 253.0Q371.0 253.0 371.0 239.5Q371.0 230.5 371.5 218.0Q372.0 205.5 373.0 193.25Q374.0 181.0 375.0 172.5Q376.0 164.0 376.5 163.0Q377.5 162.0 379.0 162.0Q382.5 162.0 385.5 168.0Q389.0 173.5 397.25 176.25Q405.5 179.0 421.0 179.0Q438.5 179.0 463.0 176.0Q485.0 173.0 509.25 169.5Q533.5 166.0 555.25 163.0Q577.0 160.0 591.5 157.5Q606.0 155.0 608.5 154.5Q604.0 153.5 594.25 150.25Q584.5 147.0 570.0 143.0Q557.0 139.0 541.5 134.25Q526.0 129.5 509.0 124.5Q480.0 115.5 454.25 107.5Q428.5 99.5 411.25 93.75Q394.0 88.0 390.0 86.5Q387.0 85.5 384.25 85.0Q381.5 84.5 379.5 84.5Q373.5 84.5 370.75 93.25Q368.0 102.0 367.25 125.75Q366.5 149.5 366.5 194.5V283.5H445.5Q486.0 283.5 508.0 285.25Q530.0 287.0 530.0 289.5Q530.0 293.0 508.0 294.5Q486.0 296.0 445.5 296.0Q411.5 296.0 394.5 296.25Q377.5 296.5 372.0 297.0Q366.5 297.5 366.5 299.0Q366.5 307.5 360.0 307.5Q357.5 307.5 355.25 305.75Q353.0 304.0 353.0 300.5Q353.0 300.0 346.5 300.0Q340.0 300.0 325.5 300.0Q318.5 300.0 309.5 300.0Q300.5 300.0 289.0 300.5Q256.0 301.0 236.75 303.0Q217.5 305.0 207.0 308.5Q196.5 312.0 190.0 317.5Q184.5 322.5 180.0 322.5Q176.0 322.5 174.5 316.0Q173.0 309.5 173.0 294.0V283.5Q174.0 267.5 175.5 256.0Q177.0 244.5 179.5 244.5Q181.5 244.5 190.0 252.0Q192.5 254.5 207.75 260.5Q223.0 266.5 240.5 273.0Q261.5 279.5 280.0 283.0Q298.5 286.5 320.0 286.5L351.5 285.0L354.0 237.5H321.0Q305.5 237.5 297.25 238.25Q289.0 239.0 283.75 241.25Q278.5 243.5 272.0 247.5Q266.0 251.0 261.25 255.25Q256.5 259.5 255.5 261.5Q253.5 267.0 247.0 267.0Q246.5 266.5 246.0 266.5Q244.0 265.0 242.75 256.5Q241.5 248.0 240.75 235.75Q240.0 223.5 240.0 211.0Q240.0 194.5 241.25 182.25Q242.5 170.0 245.5 170.0Q250.0 170.0 257.5 176.5Q266.0 181.5 295.0 181.5Q304.5 181.5 314.75 181.0Q325.0 180.5 336.0 179.0L353.0 177.0V138.0Q348.5 138.5 343.75 139.0Q339.0 139.5 334.5 140.0Q330.0 140.5 325.5 141.0Q321.0 141.5 316.5 142.0Q298.0 143.0 288.75 144.25Q279.5 145.5 274.0 148.5Q268.5 151.5 261.5 157.0Q253.5 163.0 248.5 166.5Q243.5 170.0 241.0 170.0Q236.0 170.0 236.0 162.5V159.5Q229.5 164.5 222.5 169.25Q215.5 174.0 208.5 178.5Q206.5 179.5 204.5 181.0Q202.5 182.5 200.5 183.5Q186.0 194.0 177.75 201.0Q169.5 208.0 165.5 213.75Q161.5 219.5 158.5 226.5Q156.0 235.0 153.5 243.75Q151.0 252.5 151.0 256.0Q151.0 268.0 145.0 268.0Q139.5 268.0 130.0 252.5Q125.0 242.5 123.0 241.5Q122.5 242.0 121.5 242.75Q120.5 243.5 119.5 244.5Q117.0 247.5 112.5 252.75Q108.0 258.0 104.0 263.5L98.0 272.5L126.5 269.0Q132.0 268.5 136.75 268.5Q141.5 268.5 145.0 268.5Q163.0 268.5 163.0 273.0Q163.0 276.0 152.0 278.75Q141.0 281.5 126.0 282.5L93.0 285.5V318.0H127.5Q166.5 318.0 166.5 324.5Q166.5 330.5 129.0 332.0L94.5 333.5L93.5 351.0Q92.0 374.0 86.5 374.0Q81.0 374.0 81.0 352.5Q81.0 340.5 79.75 337.75Q78.5 335.0 73.5 335.0Q70.0 335.0 63.0 338.0Q56.0 341.0 48.5 345.5Q41.0 350.0 36.0 354.0Q31.0 358.0 31.0 360.5Q31.0 366.5 24.5 366.5Q22.5 366.5 19.75 350.5Q17.0 334.5 15.5 313.0Q14.5 301.5 14.0 292.0Q13.5 282.5 13.5 276.5Q13.5 260.0 20.5 260.0Q24.0 260.0 31.5 266.0Q40.0 271.5 60.0 271.5Q74.5 271.5 77.75 270.25Q81.0 269.0 81.0 265.0Q81.0 261.5 79.25 257.25Q77.5 253.0 75.5 250.0Q70.0 243.5 70.0 240.0Q70.0 236.0 75.0 234.25Q80.0 232.5 91.0 232.0L105.0 231.0L74.0 203.0Q52.5 183.5 43.25 177.0Q34.0 170.5 26.0 170.5Q19.5 170.5 14.75 169.75Q10.0 169.0 10.0 165.5Q10.0 164.0 17.75 156.25Q25.5 148.5 36.0 139.0Q47.0 129.5 52.5 123.0Q58.0 116.5 61.0 109.0Q64.0 101.5 67.0 89.0L67.5 88.0Q66.5 82.5 60.5 75.5Q57.0 72.0 54.75 68.25Q52.5 64.5 52.0 63.0Q53.0 61.0 53.0 60.0Q55.0 59.0 57.0 59.0Q60.5 59.0 67.75 60.75Q75.0 62.5 84.0 65.0Q92.5 68.0 100.5 69.5Q108.5 71.0 112.5 71.0H113.5Q117.0 69.5 124.5 62.5Q132.0 55.5 138.5 47.5Q147.0 39.0 154.25 32.25Q161.5 25.5 163.0 25.5Q166.5 25.5 166.5 31.5Q166.5 33.5 166.0 36.75Q165.5 40.0 164.5 42.5Q164.0 44.0 164.0 45.5Q164.0 47.0 164.0 48.0Q164.0 52.0 166.75 56.5Q169.5 61.0 177.5 69.0Q185.5 77.0 200.5 92.5Q216.0 108.0 224.25 116.25Q232.5 124.5 236.0 126.0Q238.5 120.0 242.0 120.0Q246.5 120.0 253.5 125.5Q260.5 130.5 284.5 130.5Q292.5 130.5 303.0 130.0Q313.5 129.5 326.0 128.5L353.0 125.5V106.5Q353.0 98.0 352.25 90.75Q351.5 83.5 351.0 82.5Q349.5 80.5 336.0 79.0Q322.5 77.5 304.0 76.5Q285.5 75.5 267.5 75.5Q255.0 75.5 244.75 76.25Q234.5 77.0 230.0 78.0Q221.0 80.5 216.5 80.5Q212.0 80.5 210.5 78.5L210.0 77.5Q210.0 75.0 215.75 67.25Q221.5 59.5 229.5 50.5Q239.0 41.0 246.75 32.25Q254.5 23.5 255.5 20.5ZM365.0 79.5Q365.0 79.5 364.75 79.75Q364.5 80.0 364.0 80.5V80.0Q365.0 79.0 365.5 78.0Q366.0 77.0 366.0 77.0Q365.0 77.0 365.0 79.5Z" fill="black" /></svg>