<svg xmlns="http://www.w3.org/2000/svg" width="529.0" height="419.0" viewBox="0 0 529.0 419.0"><path d="M85.5 277.0H87.0Q77.0 277.0 66.5 273.25Q56.0 269.5 47.0 265.0L26.5 255.5V276.5Q26.5 288.0 26.75 292.0Q27.0 296.0 28.5 296.0Q29.5 296.0 30.75 295.75Q32.0 295.5 32.5 295.5Q36.5 294.0 41.25 292.0Q46.0 290.0 49.5 288.0Q53.5 286.0 60.75 283.75Q68.0 281.5 74.5 281.0Q78.5 280.0 81.5 278.75Q84.5 277.5 85.5 277.0ZM157.5 308.5 162.5 302.5H133.0L140.0 309.5Q142.5 313.0 145.0 317.0Q147.5 321.0 147.5 321.0Q149.0 318.5 152.0 315.0L155.0 312.0Q155.5 311.0 156.25 310.25Q157.0 309.5 157.5 308.5ZM350.0 287.5 350.5 288.0Q352.0 287.0 354.25 285.25Q356.5 283.5 358.5 282.0L359.0 281.5Q353.5 282.5 346.5 284.5Q336.5 287.0 320.5 287.0Q318.0 287.0 315.5 287.0Q313.0 287.0 310.5 286.5Q306.5 286.0 302.75 286.0Q299.0 286.0 296.0 286.0Q293.5 286.0 292.5 285.5Q293.5 287.5 295.0 291.25Q296.5 295.0 298.5 299.5L300.5 305.0Q302.5 307.5 303.0 310.5Q303.5 311.5 304.5 314.5Q312.5 333.0 314.0 335.5L314.5 334.5Q318.5 328.0 329.0 314.0Q339.5 300.0 350.0 287.5ZM55.5 153.0Q51.0 152.0 43.75 148.5Q36.5 145.0 31.5 141.5L23.0 135.0V178.5L30.0 174.0Q34.5 171.0 42.0 167.25Q49.5 163.5 54.5 161.5Q64.0 157.5 64.5 156.5Q64.0 156.0 61.5 155.0Q59.0 154.0 55.5 153.0ZM110.0 200.5 122.0 210.0 133.0 200.5ZM256.5 128.0Q257.0 127.5 257.0 127.25Q257.0 127.0 257.5 126.5Q256.5 127.0 255.0 128.5Q254.0 129.0 250.25 131.5Q246.5 134.0 241.0 137.0Q236.5 140.0 231.0 143.25Q225.5 146.5 220.0 150.5L193.5 166.5L211.0 171.0Q218.5 173.0 223.25 174.5Q228.0 176.0 230.5 176.0Q233.0 176.0 233.0 168.5Q233.0 163.0 235.5 156.25Q238.0 149.5 242.0 145.0L244.0 143.0Q246.0 140.5 248.0 138.0Q250.0 135.5 252.0 133.0L255.0 130.0Q255.5 129.5 255.75 129.0Q256.0 128.5 256.5 128.0ZM342.0 141.5 348.0 133.0H311.0Q312.5 136.0 316.5 142.25Q320.5 148.5 325.0 154.0Q329.5 159.5 331.5 161.0Q331.5 155.5 335.0 150.25Q338.5 145.0 342.0 141.5ZM288.5 125.0V124.0L289.0 123.0Q290.0 122.0 303.25 121.25Q316.5 120.5 331.0 120.5Q346.0 120.5 359.25 121.25Q372.5 122.0 374.5 123.0L375.5 125.5Q375.5 127.5 371.75 132.0Q368.0 136.5 362.5 140.5Q354.0 146.5 349.0 153.75Q344.0 161.0 342.0 172.75Q340.0 184.5 340.0 205.0Q340.0 207.0 340.0 209.25Q340.0 211.5 340.5 214.0V225.5Q341.0 233.5 341.0 240.25Q341.0 247.0 341.0 252.5Q341.0 267.0 339.5 272.5Q347.0 271.0 354.75 268.25Q362.5 265.5 371.5 260.5Q382.5 255.0 397.75 246.5Q413.0 238.0 429.25 229.0Q445.5 220.0 459.75 211.75Q474.0 203.5 483.75 197.5Q493.5 191.5 495.0 190.0Q493.0 187.0 475.5 171.25Q458.0 155.5 418.0 122.0Q411.0 116.0 398.5 109.5Q386.0 103.0 371.5 97.75Q357.0 92.5 343.5 89.0Q330.0 85.5 321.0 85.5Q314.5 85.5 305.0 92.75Q295.5 100.0 285.25 111.0Q275.0 122.0 266.25 134.0Q257.5 146.0 252.0 155.75Q246.5 165.5 246.5 170.0Q246.5 172.0 246.75 174.25Q247.0 176.5 247.5 179.0V180.5Q249.5 191.5 254.75 200.0Q260.0 208.5 275.0 225.0Q309.0 260.5 309.0 271.0Q309.0 273.0 308.0 275.0Q321.5 275.0 333.5 273.5Q331.5 271.5 330.0 266.0Q329.0 262.5 328.25 249.0Q327.5 235.5 327.5 220.5Q327.5 201.0 325.25 188.25Q323.0 175.5 317.0 165.25Q311.0 155.0 299.5 142.5Q288.5 130.0 288.5 125.0ZM383.0 85.0H382.5Q380.5 81.0 377.75 72.0Q375.0 63.0 372.5 54.0L368.5 37.5L348.0 57.0Q338.5 65.0 334.0 69.25Q329.5 73.5 328.5 75.0Q340.5 75.0 356.75 79.5Q373.0 84.0 385.5 89.0Q385.0 88.0 384.5 87.0Q384.0 86.0 383.0 85.0ZM125.5 315.5 100.0 290.0H150.0Q172.0 290.0 184.25 291.75Q196.5 293.5 196.5 296.0Q196.5 302.5 188.5 302.5Q186.0 302.5 181.0 306.25Q176.0 310.0 170.5 315.5L157.5 327.5L159.5 366.5Q160.0 373.5 160.0 380.0Q160.0 386.5 160.0 392.0Q160.0 409.0 156.5 409.0Q154.0 409.0 151.5 400.5Q149.0 392.0 147.75 379.0Q146.5 366.0 146.5 353.0Q146.5 344.5 145.25 339.75Q144.0 335.0 139.75 329.75Q135.5 324.5 125.5 315.5ZM360.5 26.5Q368.5 18.5 375.0 14.25Q381.5 10.0 383.5 10.0Q387.5 10.0 387.5 14.0Q387.5 16.5 384.5 23.5Q382.5 25.5 382.5 34.0Q382.5 43.0 385.0 54.0Q387.5 65.0 391.5 72.0Q393.5 76.0 402.5 85.5Q411.5 95.0 424.25 107.5Q437.0 120.0 451.25 133.25Q465.5 146.5 478.5 157.5Q491.5 168.5 500.5 175.5Q509.5 182.5 511.5 182.5L512.5 182.0Q514.5 182.0 516.5 182.5Q518.5 183.0 519.0 185.0Q519.0 188.0 500.0 201.25Q481.0 214.5 452.5 231.0Q430.0 243.5 415.75 252.0Q401.5 260.5 392.25 267.25Q383.0 274.0 376.0 280.5Q369.0 287.0 361.5 295.5Q350.0 308.5 340.0 321.5Q330.0 334.5 324.0 344.0Q318.0 353.5 318.0 357.0Q318.0 363.5 314.0 363.5Q312.0 363.5 308.25 358.25Q304.5 353.0 302.0 344.5Q300.0 338.0 295.0 326.0Q290.0 314.0 285.0 304.5L274.0 279.5L191.0 281.5Q158.5 282.0 136.75 283.25Q115.0 284.5 99.25 287.25Q83.5 290.0 69.0 295.0Q54.5 300.0 36.0 307.5Q30.0 310.5 24.0 312.5L21.5 313.5Q19.5 314.5 19.0 314.5Q17.0 314.5 15.75 304.5Q14.5 294.5 14.5 282.0Q14.5 266.0 15.25 251.0Q16.0 236.0 17.0 235.0L18.5 234.5Q20.5 234.5 25.75 237.25Q31.0 240.0 38.0 244.5Q52.5 255.0 73.75 260.75Q95.0 266.5 112.0 267.0L121.5 265.5L120.5 247.0Q119.5 231.5 112.75 222.25Q106.0 213.0 91.0 205.5Q85.0 202.5 80.0 199.0Q75.0 195.5 75.0 193.5Q75.0 191.0 89.5 189.75Q104.0 188.5 124.5 188.5Q147.5 188.5 161.0 189.75Q174.5 191.0 174.5 195.0Q174.5 196.5 172.0 198.5Q169.5 200.5 166.5 200.5Q163.0 200.5 156.25 203.25Q149.5 206.0 143.5 209.75Q137.5 213.5 135.0 216.0Q134.5 218.0 133.75 225.25Q133.0 232.5 133.0 240.5Q133.0 247.0 133.5 253.75Q134.0 260.5 135.0 263.5Q136.0 265.0 140.0 266.0Q144.0 267.0 155.0 267.5Q166.0 268.0 188.0 268.0H209.0Q229.5 268.0 247.5 268.25Q265.5 268.5 277.75 268.75Q290.0 269.0 292.5 270.0Q294.0 270.5 297.0 270.5Q296.0 267.0 288.75 258.25Q281.5 249.5 271.0 238.25Q260.5 227.0 249.0 216.0Q237.5 205.0 228.0 197.0Q218.5 189.0 213.0 186.5Q211.5 185.5 206.0 183.75Q200.5 182.0 194.5 180.0H193.0Q189.0 179.0 182.5 177.25Q176.0 175.5 171.0 172.75Q166.0 170.0 166.0 167.0Q166.0 164.0 173.0 159.5H137.0Q104.5 159.5 80.75 166.0Q57.0 172.5 33.5 187.0Q18.5 197.0 13.0 197.0H12.0Q11.5 196.0 11.0 187.75Q10.5 179.5 10.25 167.75Q10.0 156.0 10.0 145.0Q10.0 133.5 10.0 124.0Q10.0 114.5 10.5 110.5L12.5 109.5Q16.0 109.5 29.5 122.0Q38.0 130.5 45.5 135.5Q53.0 140.5 63.75 142.75Q74.5 145.0 91.75 145.75Q109.0 146.5 137.0 146.5H204.0L242.0 122.0Q258.0 111.0 272.25 100.5Q286.5 90.0 290.5 86.5Q295.0 82.5 304.0 75.25Q313.0 68.0 321.0 61.5Q329.5 55.0 341.0 44.75Q352.5 34.5 360.5 26.5Z" fill="black" /></svg>