<svg xmlns="http://www.w3.org/2000/svg" width="494.0" height="380.5" viewBox="0 0 494.0 380.5"><path d="M84.0 226.0 61.5 215.5Q50.5 210.0 43.75 206.5Q37.0 203.0 35.0 202.5Q35.0 204.0 34.75 206.0Q34.5 208.0 34.5 210.5Q34.0 213.0 34.0 216.0Q34.0 219.0 33.5 222.0V227.5Q33.0 230.0 32.75 232.25Q32.5 234.5 32.5 236.5Q32.5 241.5 35.0 241.5Q38.0 241.5 44.0 239.75Q50.0 238.0 59.0 235.0Q60.5 234.0 63.75 233.0Q67.0 232.0 69.0 231.5ZM161.5 282.5V263.0L161.0 262.5Q160.0 263.0 153.25 267.75Q146.5 272.5 145.0 274.0L129.5 286.5L142.0 288.0Q146.0 288.5 149.75 288.5Q153.5 288.5 155.5 288.5Q160.5 288.5 161.5 282.5ZM284.0 294.5V291.5Q284.0 290.0 284.0 288.5Q284.0 287.0 283.5 285.5V278.0L283.0 266.0L251.5 291.0L264.5 293.0Q270.0 293.5 275.75 294.0Q281.5 294.5 284.0 294.5ZM55.5 114.0Q53.5 112.5 51.25 111.25Q49.0 110.0 47.5 109.0Q46.0 108.0 45.0 107.25Q44.0 106.5 43.0 106.5V127.5Q43.0 135.5 43.0 142.0Q43.0 148.5 43.5 148.5L45.5 148.0Q47.0 147.0 50.5 146.0Q54.0 145.0 58.0 144.0Q59.0 143.5 60.75 143.0Q62.5 142.5 63.5 142.0Q70.0 139.5 75.0 138.0L92.5 131.0L86.0 128.5Q78.5 126.0 69.5 122.0Q60.5 118.0 55.5 114.0ZM218.5 216.5H252.5V137.5H218.5Q199.0 137.5 190.5 139.25Q182.0 141.0 180.0 149.0Q178.0 157.0 178.0 177.0Q178.0 196.5 180.0 204.75Q182.0 213.0 190.5 214.75Q199.0 216.5 218.5 216.5ZM364.5 174.5Q361.0 176.0 354.25 180.25Q347.5 184.5 340.25 189.25Q333.0 194.0 328.0 198.0Q323.0 202.0 323.0 203.0Q323.0 203.0 329.25 204.25Q335.5 205.5 343.25 206.5Q351.0 207.5 354.5 207.5Q354.0 207.0 354.0 205.0Q354.0 203.5 354.0 202.0Q354.0 200.5 354.5 199.0Q356.5 186.0 361.5 180.0L363.0 177.0Q363.5 176.0 363.75 175.5Q364.0 175.0 364.5 174.5ZM192.5 29.5V29.0H171.0Q162.5 29.0 155.0 28.5Q147.5 28.0 147.5 28.0Q148.0 30.0 150.25 34.75Q152.5 39.5 155.5 45.5L156.5 50.0Q158.0 52.5 159.5 55.75Q161.0 59.0 162.0 61.5Q164.0 65.0 165.5 68.25Q167.0 71.5 168.0 73.5Q169.0 76.5 169.0 77.0L169.5 76.5Q170.5 74.0 172.5 69.5Q174.5 65.0 178.0 57.5Q182.5 49.0 186.5 41.25Q190.5 33.5 192.5 29.5ZM227.5 44.0Q225.0 38.5 222.75 33.75Q220.5 29.0 220.0 29.0Q217.5 29.0 211.5 35.75Q205.5 42.5 199.25 52.0Q193.0 61.5 190.0 69.0Q187.5 75.5 185.0 86.0Q182.5 96.5 182.5 105.0V122.0H218.0Q252.5 122.0 252.5 119.5Q252.5 116.0 249.75 106.75Q247.0 97.5 243.0 85.75Q239.0 74.0 234.75 62.75Q230.5 51.5 227.5 44.0ZM277.5 34.0Q271.0 34.0 264.0 33.0Q257.0 32.0 250.0 31.0Q246.0 30.0 243.0 29.75Q240.0 29.5 237.5 29.5Q238.5 32.5 240.75 37.25Q243.0 42.0 245.0 47.5Q249.0 55.0 252.25 63.25Q255.5 71.5 256.5 76.0H257.0Q260.0 66.5 264.0 57.0Q268.0 47.5 274.0 40.0Q275.0 39.0 275.5 37.5Q276.0 36.0 276.5 35.5Q277.5 34.5 277.5 34.0ZM389.5 121.5 399.5 101.5Q403.0 95.5 404.0 93.75Q405.0 92.0 405.0 92.0Q398.5 95.5 389.5 101.0Q380.5 106.5 374.0 111.0Q367.5 115.5 367.5 116.5Q367.5 117.5 376.0 119.25Q384.5 121.0 389.5 121.5ZM126.0 13.0Q128.5 10.0 133.5 10.0Q134.5 10.0 136.25 10.0Q138.0 10.0 139.0 11.0Q142.0 11.0 154.25 11.75Q166.5 12.5 184.75 13.0Q203.0 13.5 223.5 14.0Q266.5 14.5 285.25 16.75Q304.0 19.0 304.5 26.0Q303.5 31.5 296.5 38.0Q290.5 43.0 284.75 53.5Q279.0 64.0 275.0 76.75Q271.0 89.5 269.5 101.0L267.5 122.0H282.0Q306.5 122.0 306.5 130.5Q306.5 132.5 301.5 135.0Q296.5 137.5 287.0 138.0L270.5 139.5L268.0 216.5H278.0Q284.0 216.5 290.0 218.0Q296.0 219.5 298.0 223.0V224.5Q298.0 227.5 293.75 230.0Q289.5 232.5 281.0 232.5Q272.0 232.5 270.0 234.25Q268.0 236.0 268.0 244.5Q268.0 256.0 268.5 256.0Q269.5 256.0 277.0 249.5Q278.5 248.5 281.5 245.5Q292.0 235.0 297.5 235.0Q303.0 235.0 303.0 243.0Q303.0 245.0 302.5 248.75Q302.0 252.5 301.0 258.0Q298.5 266.5 298.5 274.5Q298.5 287.0 302.25 299.25Q306.0 311.5 312.0 316.0Q333.0 333.0 347.25 347.75Q361.5 362.5 361.5 367.0L361.0 369.5L358.0 370.5Q355.5 370.5 348.0 366.0Q340.5 361.5 331.5 355.0Q312.0 338.0 299.0 328.0Q286.0 318.0 276.25 313.5Q266.5 309.0 256.5 309.0Q251.0 309.0 245.25 310.25Q239.5 311.5 233.0 313.5Q221.0 316.5 215.0 316.5Q207.0 316.5 207.0 311.5Q207.0 308.0 213.0 302.25Q219.0 296.5 228.5 289.5Q239.5 281.0 244.5 276.0Q249.5 271.0 251.0 265.5Q252.5 260.0 252.5 251.0V232.5H218.0Q201.5 232.5 194.0 232.75Q186.5 233.0 184.5 234.25Q182.5 235.5 182.5 238.5Q182.5 243.0 182.0 253.25Q181.5 263.5 179.5 273.5L177.5 294.5L212.5 327.0Q226.0 340.5 234.75 351.5Q243.5 362.5 243.5 365.0L242.0 367.5Q239.0 367.5 225.0 357.5Q211.0 347.5 195.0 334.0L158.5 303.0L132.0 305.0Q121.5 306.0 111.25 307.75Q101.0 309.5 97.5 311.0Q92.5 312.5 90.0 312.5Q85.5 312.5 85.5 308.5Q85.5 300.5 127.0 267.5Q142.5 256.0 154.0 245.75Q165.5 235.5 166.0 233.5Q165.5 232.5 146.0 232.5Q124.5 232.5 98.75 239.0Q73.0 245.5 45.0 258.5Q24.0 267.0 17.5 267.0Q10.0 267.0 10.0 260.0Q10.0 258.5 11.0 255.75Q12.0 253.0 13.0 250.0Q15.5 247.0 17.0 235.25Q18.5 223.5 18.5 211.0Q18.5 196.5 20.5 186.0Q22.5 175.5 25.0 175.5Q26.5 175.5 31.75 178.5Q37.0 181.5 43.0 185.5L47.5 189.0Q60.0 197.0 71.5 202.0Q83.0 207.0 97.25 209.5Q111.5 212.0 132.0 213.0L164.5 214.5L167.5 137.5H152.0Q141.0 137.5 124.0 141.0Q107.0 144.5 88.5 150.5Q70.0 156.5 53.5 164.0Q44.0 168.0 37.0 171.0Q30.0 174.0 30.0 174.0Q25.0 174.0 25.0 164.5Q25.0 157.0 25.75 143.75Q26.5 130.5 27.5 116.5Q28.5 102.5 29.75 92.25Q31.0 82.0 32.0 81.5Q33.0 81.5 39.5 84.5Q46.0 87.5 52.0 92.5Q69.0 105.0 87.25 111.25Q105.5 117.5 133.5 120.0L165.0 122.0L162.5 112.0Q158.5 94.0 150.5 74.0Q142.5 54.0 133.5 38.5Q125.5 22.5 125.5 16.5Q125.5 15.5 125.75 14.25Q126.0 13.0 126.0 13.0ZM443.0 47.0Q448.0 43.0 451.0 43.0Q456.0 43.0 457.0 47.0V48.5Q457.0 52.0 452.25 59.5Q447.5 67.0 439.5 75.5L435.5 80.0Q431.5 84.5 425.25 91.75Q419.0 99.0 414.25 105.75Q409.5 112.5 409.5 116.0Q409.5 117.5 414.0 122.0L414.5 123.5Q416.5 125.5 418.0 128.25Q419.5 131.0 419.5 133.0Q419.5 134.5 418.5 136.5Q420.5 137.0 429.5 144.5Q433.5 147.0 441.5 153.0Q449.5 159.0 458.25 166.0Q467.0 173.0 473.75 178.5Q480.5 184.0 482.0 186.0Q484.0 190.0 484.0 192.0Q484.0 196.0 478.5 196.0Q470.5 196.0 450.0 180.5Q443.0 173.5 432.75 166.5Q422.5 159.5 415.5 155.0Q411.0 152.5 407.5 151.0Q404.0 149.5 402.0 149.5Q399.5 149.5 394.25 156.5Q389.0 163.5 383.75 173.5Q378.5 183.5 374.75 192.75Q371.0 202.0 371.0 206.5Q371.0 211.5 373.5 211.5Q376.5 211.5 378.75 214.75Q381.0 218.0 381.0 223.0Q381.0 225.0 388.25 232.0Q395.5 239.0 404.0 246.0Q424.0 260.0 437.0 272.25Q450.0 284.5 450.0 290.0Q450.0 295.0 444.5 295.0Q441.0 295.0 435.75 291.5Q430.5 288.0 426.0 284.5Q419.5 277.5 405.75 266.75Q392.0 256.0 375.25 245.0Q358.5 234.0 342.5 225.75Q326.5 217.5 315.0 216.0Q302.5 213.5 293.75 209.75Q285.0 206.0 285.0 203.0Q285.0 198.0 293.0 198.0Q295.5 198.0 305.75 192.5Q316.0 187.0 329.75 178.5Q343.5 170.0 356.75 161.25Q370.0 152.5 378.75 146.0Q387.5 139.5 387.5 137.5Q387.5 136.0 378.75 133.75Q370.0 131.5 359.5 130.0Q349.0 128.5 342.5 128.5Q330.0 128.5 330.0 122.5Q330.0 119.0 336.25 114.25Q342.5 109.5 352.5 104.5Q363.5 99.0 377.75 90.5Q392.0 82.0 406.0 73.25Q420.0 64.5 430.25 57.25Q440.5 50.0 443.0 47.0Z" fill="black" /></svg>