<svg xmlns="http://www.w3.org/2000/svg" width="842.0" height="375.5" viewBox="0 0 842.0 375.5"><path d="M93.0 224.5H93.5Q94.5 222.5 95.0 221.0Q95.5 219.5 96.0 219.0L95.5 218.5H94.5Q91.5 219.0 84.25 223.0Q77.0 227.0 68.75 232.0Q60.5 237.0 54.25 241.25Q48.0 245.5 47.0 247.5Q48.0 249.0 56.5 252.0Q65.0 255.0 74.5 257.75Q84.0 260.5 87.5 260.5Q87.5 260.5 87.75 257.0Q88.0 253.5 88.0 249.0Q88.0 243.0 89.75 235.75Q91.5 228.5 93.0 224.5ZM194.0 223.5V218.0Q194.5 217.0 194.5 214.5V208.5Q191.5 209.0 184.75 213.0Q178.0 217.0 172.25 221.25Q166.5 225.5 166.5 227.5Q166.5 229.0 171.5 231.75Q176.5 234.5 182.75 236.5Q189.0 238.5 192.0 239.0Q192.0 237.5 192.5 233.0Q193.0 228.5 194.0 223.5ZM402.0 263.5 401.5 263.0H400.5Q398.0 261.0 386.5 259.5H385.0Q383.0 259.0 380.25 258.5Q377.5 258.0 375.5 257.5H373.5Q370.0 257.0 367.5 256.75Q365.0 256.5 363.5 256.5Q360.5 256.5 360.5 257.0Q360.5 258.0 361.75 262.75Q363.0 267.5 363.5 268.5Q365.0 276.0 367.5 283.5Q368.5 289.5 369.25 292.75Q370.0 296.0 370.0 296.0Q371.5 295.0 376.5 290.0Q381.5 285.0 388.0 278.5Q401.0 267.0 402.0 263.5ZM94.0 114.0 96.0 109.0Q100.5 97.5 101.5 91.0Q96.0 93.5 86.5 100.75Q77.0 108.0 69.5 114.5Q62.0 121.0 62.0 122.5Q62.0 123.5 65.25 124.25Q68.5 125.0 73.0 125.0Q78.5 125.0 83.0 125.0Q87.5 125.0 89.5 126.0Q89.5 125.5 90.75 122.25Q92.0 119.0 94.0 114.0ZM189.5 113.5Q191.5 107.5 191.5 100.5Q190.0 100.5 184.75 104.5Q179.5 108.5 174.75 112.75Q170.0 117.0 170.0 119.0Q170.0 120.0 172.0 120.5Q177.5 124.5 181.0 124.5Q187.5 124.5 189.5 113.5ZM321.0 141.5Q317.5 140.5 312.75 139.75Q308.0 139.0 303.0 138.0Q301.0 137.5 298.75 137.5Q296.5 137.5 294.5 137.5Q289.0 137.5 285.25 138.5Q281.5 139.5 281.5 140.5Q281.5 140.5 284.0 142.5Q286.5 144.0 290.0 152.25Q293.5 160.5 296.5 171.0Q299.0 179.5 301.25 186.0Q303.5 192.5 304.5 192.5Q305.0 192.5 307.25 186.25Q309.5 180.0 312.25 171.0Q315.0 162.0 317.5 153.75Q320.0 145.5 321.0 141.5ZM321.0 45.5V44.5Q321.0 43.5 316.25 42.0Q311.5 40.5 304.5 40.0H295.0Q293.5 39.5 292.0 39.5Q290.5 39.5 289.0 39.5Q287.5 39.5 286.0 39.5Q284.5 39.5 283.5 39.5Q284.5 43.0 287.5 51.75Q290.5 60.5 294.0 70.25Q297.5 80.0 300.5 86.75Q303.5 93.5 304.5 93.5Q305.5 93.5 307.25 87.5Q309.0 81.5 311.0 73.5Q314.0 64.5 317.0 56.25Q320.0 48.0 321.0 45.5ZM425.0 135.0Q424.5 134.0 421.0 132.5Q417.5 131.0 414.0 130.5Q412.5 130.0 411.5 130.0Q410.5 130.0 409.5 130.0Q408.5 130.0 407.0 132.5Q407.0 135.5 408.5 141.0Q409.5 145.0 411.25 149.0Q413.0 153.0 413.5 155.5V156.5Q416.5 155.5 420.75 148.5Q425.0 141.5 425.5 136.5Q425.0 136.0 425.0 135.0ZM647.5 142.5Q561.0 120.0 509.25 109.25Q457.5 98.5 430.5 98.5Q411.0 98.5 402.0 104.5Q399.5 106.5 397.5 108.75Q395.5 111.0 395.5 112.0Q395.5 116.5 429.0 116.5Q443.5 116.5 453.5 117.0Q463.5 117.5 463.5 121.5Q463.5 121.5 458.5 126.75Q453.5 132.0 447.0 138.0Q435.0 151.0 428.0 171.75Q421.0 192.5 421.0 220.5V245.5L435.5 243.0Q439.5 242.0 455.25 239.5Q471.0 237.0 495.5 233.0Q520.0 229.0 550.25 224.0Q580.5 219.0 613.0 214.0Q676.5 203.5 714.5 197.25Q752.5 191.0 770.75 187.5Q789.0 184.0 794.0 183.0Q789.5 181.5 779.75 178.75Q770.0 176.0 756.0 172.5Q729.0 164.5 701.75 157.25Q674.5 150.0 647.5 142.5ZM425.5 84.0 444.5 81.5 415.0 52.0 408.5 69.0Q403.5 80.5 402.0 86.0Q405.5 86.0 412.25 85.25Q419.0 84.5 425.5 84.0ZM332.5 21.0Q343.5 15.5 347.5 15.5Q353.0 15.5 356.0 22.5Q356.0 23.5 356.5 24.0Q356.5 32.0 349.5 34.0Q344.5 36.0 339.25 45.5Q334.0 55.0 329.25 68.0Q324.5 81.0 321.5 94.0Q318.5 107.0 318.0 116.0Q318.0 125.0 321.0 125.0Q327.0 125.0 332.0 120.0Q337.5 115.5 344.5 115.5Q346.0 115.5 347.5 115.75Q349.0 116.0 350.5 116.5Q356.5 119.5 356.5 123.0Q356.5 126.5 347.0 136.0Q331.5 151.0 323.5 184.75Q315.5 218.5 315.5 276.5Q315.5 306.0 313.5 327.0Q311.5 348.0 309.0 348.0Q302.0 348.0 302.0 335.5Q302.0 332.5 301.5 330.0Q301.0 327.5 300.0 327.5Q297.5 327.5 283.25 318.75Q269.0 310.0 252.5 298.0Q220.5 274.5 193.75 260.5Q167.0 246.5 149.0 242.0Q131.0 238.0 131.0 231.5Q131.0 225.5 147.0 218.0Q153.0 215.5 157.25 213.75Q161.5 212.0 161.5 211.5Q161.5 210.5 157.0 205.25Q152.5 200.0 147.0 194.5L135.0 182.5L126.5 195.0Q115.5 210.5 109.75 224.5Q104.0 238.5 104.0 248.5Q104.0 261.0 113.5 265.5Q117.5 267.5 121.25 272.0Q125.0 276.5 125.0 279.5Q125.0 282.0 134.25 288.5Q143.5 295.0 157.0 302.5Q188.0 321.0 206.0 336.0Q224.0 351.0 224.0 359.5Q224.0 365.5 220.0 365.5Q216.5 365.5 208.0 358.0Q197.5 348.5 180.5 336.5Q163.5 324.5 143.0 312.25Q122.5 300.0 102.0 289.5Q81.5 279.0 64.0 271.75Q46.5 264.5 35.5 262.5Q23.0 260.0 16.5 258.25Q10.0 256.5 10.0 252.5Q10.0 249.5 16.75 245.0Q23.5 240.5 36.0 234.0Q53.5 224.5 71.5 213.0Q89.5 201.5 102.5 191.25Q115.5 181.0 118.5 175.5Q118.0 167.0 109.0 160.0Q100.0 153.0 87.25 147.75Q74.5 142.5 62.75 139.0Q51.0 135.5 44.5 135.0L13.5 131.5L64.0 98.5Q76.0 90.0 90.0 80.0Q104.0 70.0 116.25 60.25Q128.5 50.5 135.5 44.0Q145.5 35.5 152.5 30.75Q159.5 26.0 162.5 26.0Q166.5 26.0 166.5 30.0Q166.5 33.5 163.75 38.75Q161.0 44.0 157.0 46.5Q152.5 49.5 144.75 59.25Q137.0 69.0 129.0 81.75Q121.0 94.5 115.5 105.75Q110.0 117.0 110.0 123.0Q110.0 134.0 119.0 145.0Q128.0 156.0 146.5 172.5L177.5 201.0L196.5 185.5Q212.5 172.0 212.5 169.0Q212.5 167.0 207.0 161.5Q197.5 150.0 180.5 142.5Q163.5 135.0 149.0 135.0Q128.5 135.0 128.5 126.5Q128.5 121.0 139.0 115.0Q144.5 112.5 156.25 104.75Q168.0 97.0 182.0 86.75Q196.0 76.5 209.0 66.25Q222.0 56.0 230.0 48.0Q243.0 37.5 248.5 37.5Q253.0 37.5 253.0 42.0Q253.0 47.5 240.0 63.0Q223.0 83.0 214.0 98.5Q205.0 114.0 205.0 124.0Q205.0 127.0 205.5 127.5Q207.5 132.0 216.25 142.25Q225.0 152.5 235.0 162.5Q245.0 172.0 251.75 180.5Q258.5 189.0 259.0 192.5Q259.0 193.0 258.5 194.25Q258.0 195.5 258.0 195.5L257.0 196.0Q256.5 196.5 255.0 196.5Q248.5 196.5 237.5 187.0L228.0 177.0L221.0 188.0Q216.0 197.5 212.75 208.25Q209.5 219.0 209.5 229.0Q209.5 235.5 212.75 241.0Q216.0 246.5 224.0 254.5Q231.5 261.0 242.75 270.5Q254.0 280.0 266.0 289.0Q278.0 298.0 287.5 304.5Q297.0 311.0 300.0 312.0Q300.0 311.0 300.25 309.25Q300.5 307.5 300.5 305.5Q300.5 303.0 300.25 300.25Q300.0 297.5 299.5 295.0Q298.5 286.5 297.0 270.25Q295.5 254.0 294.5 238.5Q292.5 217.5 287.0 196.0Q281.5 174.5 274.5 158.25Q267.5 142.0 260.5 137.5Q250.0 131.0 250.0 127.0Q250.0 119.5 273.5 119.5H292.5L289.0 103.0Q286.5 89.5 281.25 75.0Q276.0 60.5 270.25 50.0Q264.5 39.5 260.0 38.5Q255.5 36.5 252.75 33.0Q250.0 29.5 250.0 27.0Q250.0 22.5 265.5 22.5Q276.0 22.5 288.0 24.0H289.5Q294.5 24.5 299.0 24.75Q303.5 25.0 307.0 25.0Q326.0 25.0 332.5 21.0ZM404.5 14.0Q409.5 10.0 412.5 10.0Q421.0 10.0 421.0 25.0Q421.0 30.5 428.25 40.0Q435.5 49.5 446.5 59.5Q457.5 69.5 468.25 77.0Q479.0 84.5 486.5 86.0Q496.5 88.0 519.5 94.0Q542.5 100.0 573.5 108.0Q604.5 116.0 638.5 125.25Q672.5 134.5 705.5 143.5Q738.5 152.5 765.5 160.0Q792.5 167.5 809.25 172.25Q826.0 177.0 827.0 178.0Q832.0 181.0 832.0 184.5Q832.0 187.0 827.5 191.0Q826.5 191.5 811.0 194.75Q795.5 198.0 769.75 202.5Q744.0 207.0 711.25 212.25Q678.5 217.5 642.5 223.0Q588.5 231.5 552.5 237.5Q516.5 243.5 494.0 248.0Q471.5 252.5 458.75 256.25Q446.0 260.0 438.5 264.5Q422.5 272.5 406.5 285.5Q390.5 298.5 380.0 310.75Q369.5 323.0 369.5 330.0Q369.5 336.5 368.0 338.75Q366.5 341.0 361.0 341.0Q358.0 339.5 356.0 330.25Q354.0 321.0 354.0 310.0Q353.5 300.0 350.75 284.75Q348.0 269.5 344.0 258.5Q340.5 247.0 338.25 238.5Q336.0 230.0 336.0 228.0V227.0Q336.5 224.5 339.0 224.5Q341.0 224.5 346.75 227.5Q352.5 230.5 358.0 234.5Q365.5 238.5 375.5 241.75Q385.5 245.0 392.0 245.0H407.0L405.0 207.0Q403.0 180.5 397.0 159.0Q391.0 137.5 379.5 123.0Q376.0 118.5 376.0 113.0Q376.0 107.5 378.75 99.75Q381.5 92.0 386.5 79.5Q392.5 66.5 396.5 53.25Q400.5 40.0 400.5 34.0Q400.5 28.0 401.5 22.0Q402.5 16.0 404.5 14.0Z" fill="black" /></svg>