<svg xmlns="http://www.w3.org/2000/svg" width="643.0" height="460.0" viewBox="0 0 643.0 460.0"><path d="M63.0 364.0 80.0 366.5V325.5Q67.5 335.5 57.25 345.0Q47.0 354.5 43.5 359.0Q46.5 360.0 51.5 361.5Q56.5 363.0 63.0 364.0ZM209.0 342.5Q210.0 339.5 210.25 337.25Q210.5 335.0 211.0 333.0Q207.5 335.5 201.25 342.5Q195.0 349.5 195.0 352.0Q201.0 352.0 203.75 350.25Q206.5 348.5 209.0 342.5ZM106.5 229.0V228.5Q107.0 221.5 107.0 220.0Q107.0 218.5 107.0 218.5Q104.0 222.0 99.5 227.25Q95.0 232.5 91.5 237.0Q88.0 241.5 88.0 242.5Q88.0 243.0 90.5 243.75Q93.0 244.5 96.5 244.5Q102.5 244.5 104.25 241.25Q106.0 238.0 106.5 229.0ZM221.5 237.0V230.5Q221.0 231.0 221.0 231.25Q221.0 231.5 220.5 232.0Q220.0 233.5 218.0 235.25Q216.0 237.0 215.0 239.0Q214.0 240.5 213.0 242.75Q212.0 245.0 211.5 246.0H211.0H211.5Q216.0 246.0 218.75 244.75Q221.5 243.5 221.5 237.0ZM159.0 105.0 159.5 103.5Q156.0 107.0 152.0 111.25Q148.0 115.5 143.5 120.0L120.5 144.0L127.0 142.5Q129.5 142.5 131.5 142.0Q133.5 141.5 135.5 141.5Q139.0 140.5 142.75 140.25Q146.5 140.0 148.0 140.0Q149.5 140.0 150.5 137.25Q151.5 134.5 151.5 131.5Q151.5 126.0 153.75 118.25Q156.0 110.5 159.0 105.0ZM273.5 123.5V120.5Q274.0 120.0 274.0 118.5Q272.5 120.5 270.75 122.25Q269.0 124.0 266.5 126.5L257.0 135.5H262.0Q271.5 135.5 273.5 123.5ZM377.0 109.0 368.5 100.5Q366.0 97.5 363.75 95.0Q361.5 92.5 360.0 91.5Q361.0 94.0 361.0 98.75Q361.0 103.5 361.0 109.0V123.0ZM585.0 38.0Q586.0 37.0 586.5 36.25Q587.0 35.5 587.5 35.0H563.5Q552.5 35.0 544.5 35.25Q536.5 35.5 536.5 35.5Q536.5 36.0 538.5 40.0Q540.5 44.0 542.5 48.0Q546.0 52.5 549.75 60.75Q553.5 69.0 556.5 75.5L559.5 86.0L566.5 70.0Q570.5 60.0 576.25 50.75Q582.0 41.5 585.0 38.0ZM357.0 365.5 346.0 361.0Q339.5 357.0 332.25 352.0Q325.0 347.0 321.5 344.5L319.5 341.5Q319.0 342.5 319.0 365.0Q319.0 385.0 319.5 386.0L320.0 385.5Q327.5 380.0 337.5 374.5Q339.0 373.5 340.75 372.75Q342.5 372.0 344.0 371.0ZM91.0 286.5 92.0 284.5Q99.0 274.0 100.5 274.0Q103.5 274.0 104.5 276.5Q105.5 279.0 106.5 284.5V287.5Q106.5 291.5 105.25 296.0Q104.0 300.5 102.5 303.5Q101.0 306.5 99.0 315.0Q97.0 323.5 95.5 332.5Q94.0 341.5 94.0 346.0Q94.0 355.0 104.25 365.0Q114.5 375.0 128.75 384.0Q143.0 393.0 156.25 399.5Q169.5 406.0 176.0 409.0Q201.0 421.0 216.5 430.75Q232.0 440.5 232.0 445.5Q232.0 450.0 226.5 450.0Q220.5 450.0 201.0 438.5Q185.5 429.5 164.0 419.5Q142.5 409.5 119.75 400.25Q97.0 391.0 77.0 384.25Q57.0 377.5 44.0 375.0Q31.5 374.0 21.5 372.25Q11.5 370.5 10.5 370.0Q10.5 369.0 10.25 368.75Q10.0 368.5 10.0 368.5Q10.0 366.0 13.5 362.5Q17.0 359.0 22.0 355.5Q29.5 350.0 40.0 340.75Q50.5 331.5 60.75 321.25Q71.0 311.0 79.25 301.75Q87.5 292.5 91.0 286.5ZM118.5 177.0Q123.5 169.0 127.0 165.75Q130.5 162.5 132.5 162.5Q137.0 162.5 137.0 167.0Q137.0 170.5 135.5 178.0Q134.0 185.5 130.0 196.5Q126.0 207.5 123.25 216.5Q120.5 225.5 120.5 229.0Q120.5 235.5 130.25 244.75Q140.0 254.0 150.5 257.5Q161.5 260.5 172.0 266.25Q182.5 272.0 189.5 277.25Q196.5 282.5 196.5 285.5V288.0Q196.0 289.5 194.0 290.0Q192.0 290.5 190.5 290.5Q188.5 290.5 185.0 289.5Q181.5 288.5 179.0 285.5Q169.0 278.5 152.5 273.0Q136.0 267.5 118.5 264.25Q101.0 261.0 87.0 261.0L52.5 260.0L80.5 225.0Q90.5 214.0 101.75 199.75Q113.0 185.5 118.5 177.0ZM196.5 38.5Q207.0 23.0 211.5 23.0Q215.5 23.0 216.5 28.5V30.0Q216.5 33.5 214.0 40.75Q211.5 48.0 207.0 53.5Q196.0 68.5 187.0 84.25Q178.0 100.0 172.75 113.0Q167.5 126.0 167.5 133.0Q167.5 134.0 167.75 134.75Q168.0 135.5 168.0 135.5Q171.0 135.5 173.5 139.25Q176.0 143.0 177.5 147.0Q181.5 154.5 185.0 154.5Q189.0 154.5 199.75 157.75Q210.5 161.0 221.5 167.0L245.5 178.5L252.5 168.5Q255.5 164.5 258.5 161.5Q261.5 158.5 263.5 158.5Q267.0 158.5 267.0 164.0Q267.0 167.5 263.25 178.25Q259.5 189.0 252.5 203.5Q238.5 228.5 238.5 243.0Q239.0 248.0 241.75 252.25Q244.5 256.5 248.0 259.0Q253.0 259.5 260.0 264.25Q267.0 269.0 272.75 275.0Q278.5 281.0 278.5 285.5Q278.5 291.5 273.5 291.5Q272.5 291.5 270.25 290.25Q268.0 289.0 265.5 287.5L264.0 285.5Q260.5 283.0 259.5 283.0Q257.5 283.0 253.25 289.25Q249.0 295.5 244.0 304.5Q239.0 313.5 235.0 321.25Q231.0 329.0 229.5 332.0L226.5 337.0V340.5Q226.5 347.0 230.25 354.25Q234.0 361.5 237.5 364.0Q245.0 366.0 253.25 371.5Q261.5 377.0 267.25 383.0Q273.0 389.0 273.0 392.5Q273.0 396.5 268.0 396.5Q262.5 396.5 255.5 391.0Q239.0 379.0 224.25 373.75Q209.5 368.5 194.5 368.5Q188.5 368.5 181.5 370.0L148.5 373.5L200.5 320.5Q222.5 297.5 231.5 287.75Q240.5 278.0 240.5 273.5Q240.5 269.5 233.0 267.25Q225.5 265.0 216.75 264.25Q208.0 263.5 205.0 263.5H171.0L192.0 239.5Q200.0 231.5 209.25 222.25Q218.5 213.0 224.0 206.5L235.5 193.0L227.0 187.0Q217.0 179.0 199.25 172.75Q181.5 166.5 161.75 162.75Q142.0 159.0 126.0 159.0Q119.5 159.0 114.5 159.5Q109.5 160.0 106.0 161.5Q100.0 163.5 95.5 163.5Q88.5 163.5 88.5 157.5Q88.5 150.0 132.5 106.0Q146.5 93.0 159.5 79.5Q172.5 66.0 182.25 55.0Q192.0 44.0 196.5 38.5ZM613.5 13.5 618.0 11.0Q621.0 10.0 624.0 10.0L626.5 12.0Q626.5 14.5 622.5 21.25Q618.5 28.0 611.0 35.5Q603.0 43.5 593.75 57.0Q584.5 70.5 579.0 82.0L566.5 109.0L562.5 356.5H595.5Q611.5 356.5 622.25 358.25Q633.0 360.0 633.0 365.0Q633.0 368.0 622.25 370.25Q611.5 372.5 595.5 372.5H563.0V395.0Q563.0 406.5 561.5 413.5Q560.0 420.5 556.5 420.5L554.0 420.0Q552.0 418.5 550.25 410.0Q548.5 401.5 548.5 392.0V372.0L460.5 373.0Q423.0 373.0 402.5 374.0Q382.0 375.0 371.5 377.0Q361.0 379.0 354.0 382.5Q340.0 391.0 331.0 399.0Q322.0 407.0 319.0 416.0Q317.0 421.0 313.75 423.75Q310.5 426.5 308.5 426.5H307.5Q306.0 425.0 305.0 417.25Q304.0 409.5 303.25 399.0Q302.5 388.5 302.0 379.0Q301.5 369.5 301.5 365.0L301.0 300.5L321.5 323.5Q334.5 336.0 349.5 344.0Q364.5 352.0 385.5 356.0Q406.5 360.0 437.5 360.0Q446.0 360.0 455.0 359.25Q464.0 358.5 474.0 358.0H481.5L548.5 355.5V113.0L472.5 116.0Q441.0 117.5 421.25 119.25Q401.5 121.0 390.0 124.25Q378.5 127.5 372.75 133.25Q367.0 139.0 363.0 148.5Q359.0 157.5 354.5 162.75Q350.0 168.0 349.0 168.0Q346.5 168.0 344.75 151.75Q343.0 135.5 343.0 112.5V91.0Q343.0 75.5 344.0 66.25Q345.0 57.0 347.5 57.0Q348.5 57.0 355.75 63.5Q363.0 70.0 372.0 79.0L390.5 100.5L437.0 102.5Q442.5 103.0 448.25 103.0Q454.0 103.0 459.0 103.0Q476.0 103.0 491.5 102.25Q507.0 101.5 517.5 100.5L547.0 96.5L545.0 88.0Q540.0 72.5 531.5 59.0Q523.0 45.5 512.0 37.5Q505.5 32.5 501.5 27.75Q497.5 23.0 497.5 20.5L498.0 19.0Q499.5 17.5 505.5 17.5Q509.0 17.5 515.5 18.0Q522.0 18.5 529.0 19.5Q533.0 20.0 538.75 20.25Q544.5 20.5 551.0 20.5Q564.5 20.5 578.0 19.5Q591.5 18.5 601.5 17.0Q611.5 15.5 613.5 13.5ZM303.0 60.0Q307.5 53.0 311.5 49.75Q315.5 46.5 317.5 46.5Q321.0 46.5 322.0 52.0Q322.0 53.5 323.0 54.0Q323.0 63.5 317.5 70.0Q313.0 74.0 306.0 86.0Q299.0 98.0 293.75 111.0Q288.5 124.0 288.5 131.0Q288.5 144.0 308.0 154.5Q318.5 159.5 327.75 167.5Q337.0 175.5 337.5 178.5Q337.5 179.0 336.5 180.5Q335.5 182.0 333.0 182.0Q332.0 182.0 324.5 178.75Q317.0 175.5 308.0 171.5Q279.0 153.5 249.0 153.5Q246.0 153.5 243.0 154.0Q240.0 154.5 237.0 155.0L209.5 160.5L253.0 115.0Q268.0 100.5 282.25 84.25Q296.5 68.0 303.0 60.0Z" fill="black" /></svg>