<svg xmlns="http://www.w3.org/2000/svg" width="766.5" height="450.5" viewBox="0 0 766.5 450.5"><path d="M163.5 212.0Q168.5 204.5 172.5 197.75Q176.5 191.0 179.0 186.0Q170.5 193.0 156.0 205.0Q141.5 217.0 125.0 231.0L67.5 281.5L96.0 284.0Q101.5 285.5 106.0 285.75Q110.5 286.0 114.5 286.0Q129.0 286.0 135.0 280.75Q141.0 275.5 141.0 264.5Q141.0 258.5 147.5 243.5Q154.0 228.5 163.5 212.0ZM345.5 282.0H345.0Q343.5 279.5 339.75 278.25Q336.0 277.0 332.0 277.0Q328.5 277.0 325.25 278.0Q322.0 279.0 322.0 280.0Q322.0 281.5 324.0 283.0Q326.0 284.5 328.0 286.5Q330.0 287.5 332.5 287.5Q336.5 287.5 340.5 285.25Q344.5 283.0 345.5 282.0ZM340.0 205.0H339.5Q334.0 201.5 329.5 201.5Q329.0 201.5 329.0 207.0Q329.0 209.5 331.0 212.0Q333.0 214.5 335.5 214.5Q345.5 214.5 345.5 209.5Q345.5 206.5 340.0 205.0ZM478.0 141.0 482.0 119.5 440.0 121.0Q395.0 121.5 366.75 130.5Q338.5 139.5 324.0 157.0L322.0 158.0Q319.5 164.0 319.5 164.0Q319.5 166.0 322.25 169.0Q325.0 172.0 328.5 175.5Q335.5 181.5 348.5 187.0Q361.5 192.5 378.0 197.25Q394.5 202.0 411.25 204.75Q428.0 207.5 441.5 207.5Q456.0 207.5 465.0 210.5Q474.0 213.5 474.0 217.5Q474.0 221.5 456.25 224.0Q438.5 226.5 409.5 226.5Q385.0 226.5 370.5 227.5Q356.0 228.5 348.0 230.75Q340.0 233.0 334.5 237.5L323.0 246.5L337.0 256.0Q348.0 262.0 368.0 268.25Q388.0 274.5 410.0 278.75Q432.0 283.0 448.0 283.0Q458.5 283.0 466.25 285.5Q474.0 288.0 474.0 290.5Q474.0 295.0 456.0 297.0Q438.0 299.0 413.0 299.0Q379.5 299.0 363.75 301.0Q348.0 303.0 339.0 310.0Q326.0 317.5 326.0 320.0Q326.0 323.5 332.5 329.0Q348.0 345.5 376.25 356.25Q404.5 367.0 437.0 370.5L478.5 372.0L482.0 354.0Q482.5 351.5 482.5 348.25Q482.5 345.0 482.5 342.5Q482.5 335.5 481.5 328.75Q480.5 322.0 478.0 317.0Q476.0 309.0 476.0 302.0Q476.0 298.0 477.0 294.25Q478.0 290.5 480.5 288.0Q486.5 282.5 486.5 268.0Q486.5 261.0 484.75 255.25Q483.0 249.5 479.0 246.5Q477.0 243.0 475.75 240.25Q474.5 237.5 474.5 235.5Q474.5 232.0 479.0 226.5Q483.0 223.5 484.5 213.75Q486.0 204.0 486.0 194.5Q486.0 186.0 485.25 180.25Q484.5 174.5 482.0 173.5Q480.0 172.5 478.75 166.5Q477.5 160.5 477.5 153.5Q477.5 150.5 477.5 147.25Q477.5 144.0 478.0 141.0ZM526.5 265.0 522.5 264.0Q511.0 259.0 506.5 259.0Q506.5 259.0 506.25 260.0Q506.0 261.0 506.0 262.5Q506.0 270.0 509.25 274.0Q512.5 278.0 520.5 278.0Q524.5 278.0 529.0 276.25Q533.5 274.5 537.5 272.0L538.5 271.0H539.0Q539.0 269.5 526.5 265.0ZM373.5 105.5Q373.5 104.0 366.75 99.75Q360.0 95.5 350.0 90.5L330.0 79.0L327.5 88.5Q326.0 93.5 324.0 101.75Q322.0 110.0 322.0 117.0Q322.0 125.0 325.5 125.0Q329.0 125.0 329.5 123.5Q334.5 121.5 343.25 118.0Q352.0 114.5 360.0 113.0Q365.5 110.5 369.5 108.5Q373.5 106.5 373.5 105.5ZM526.5 188.0 519.5 186.5Q512.0 183.0 507.0 183.0Q506.0 184.0 506.0 188.0V194.5Q506.0 206.0 509.5 206.0Q510.5 206.0 513.25 205.5Q516.0 205.0 519.0 204.0Q539.0 200.5 539.0 196.0Q539.0 195.0 535.25 192.75Q531.5 190.5 526.5 188.0ZM575.0 91.0Q575.0 89.5 566.25 85.0Q557.5 80.5 545.5 75.25Q533.5 70.0 522.5 66.0Q511.5 62.0 507.0 61.5Q505.5 66.0 505.5 78.0Q505.5 86.0 506.5 94.5Q507.5 103.0 509.5 107.0Q512.0 109.5 515.5 109.5Q523.5 109.5 544.5 102.5Q556.5 98.5 565.75 95.0Q575.0 91.5 575.0 91.0ZM368.5 375.0Q368.5 374.0 361.25 369.5Q354.0 365.0 344.0 361.0L324.0 350.0L321.5 369.0Q321.0 374.0 321.0 378.75Q321.0 383.5 321.0 387.0V392.5Q324.0 391.5 328.25 390.0Q332.5 388.5 336.0 386.5Q344.5 382.5 352.0 379.75Q359.5 377.0 363.0 377.0Q368.5 377.0 368.5 375.0ZM534.0 346.5Q521.5 341.0 511.25 337.0Q501.0 333.0 500.0 333.0Q500.0 333.0 499.5 340.75Q499.0 348.5 499.0 359.0Q499.0 381.5 502.5 381.5Q505.0 380.5 510.0 379.0Q515.0 377.5 520.5 376.0L526.0 374.5Q528.5 373.5 531.75 372.5Q535.0 371.5 538.5 370.5Q548.0 367.5 555.25 365.0Q562.5 362.5 562.5 361.5Q562.5 360.5 554.0 356.25Q545.5 352.0 534.0 346.5ZM252.0 83.5Q257.0 75.5 263.0 71.25Q269.0 67.0 271.5 67.0H272.0Q275.5 68.5 275.5 73.5Q275.5 78.0 272.0 87.25Q268.5 96.5 262.5 105.75Q256.5 115.0 249.5 120.0Q246.5 122.5 239.0 132.5Q231.5 142.5 221.25 157.25Q211.0 172.0 200.25 188.0Q189.5 204.0 180.0 219.0Q170.5 234.0 165.0 244.0Q163.5 247.5 162.75 253.75Q162.0 260.0 162.0 267.0Q162.0 287.0 165.5 299.25Q169.0 311.5 178.0 320.5Q187.0 329.5 203.5 341.0Q220.5 353.0 235.25 367.25Q250.0 381.5 259.25 393.5Q268.5 405.5 268.5 411.5Q268.5 415.5 266.5 417.0H264.5Q262.0 417.0 254.5 411.5Q247.0 406.0 241.0 398.5Q236.0 392.5 225.25 383.0Q214.5 373.5 200.25 362.25Q186.0 351.0 171.0 341.0Q152.0 328.5 139.25 321.25Q126.5 314.0 116.5 310.5Q106.5 307.0 95.5 305.5Q84.5 304.0 68.0 302.5L10.0 298.5L51.0 268.5Q63.5 258.5 81.75 243.0Q100.0 227.5 121.0 209.0Q142.0 190.5 163.0 171.25Q184.0 152.0 202.25 134.25Q220.5 116.5 233.75 103.25Q247.0 90.0 252.0 83.5ZM486.0 12.5Q486.5 10.0 489.5 10.0Q495.5 10.0 504.5 23.0Q514.0 41.5 541.5 56.5Q569.0 71.5 608.25 80.0Q647.5 88.5 692.0 88.5Q725.5 88.5 741.0 90.25Q756.5 92.0 756.5 96.0Q756.5 100.0 730.75 104.0Q705.0 108.0 658.0 109.0Q626.0 109.5 606.0 110.5Q586.0 111.5 573.25 113.0Q560.5 114.5 551.25 117.75Q542.0 121.0 532.0 126.0Q501.0 140.5 501.0 152.0Q501.0 159.0 512.0 165.0Q523.0 171.0 540.75 175.75Q558.5 180.5 579.5 184.25Q600.5 188.0 620.75 190.25Q641.0 192.5 656.75 193.75Q672.5 195.0 679.5 195.0Q699.0 195.0 712.5 197.75Q726.0 200.5 726.0 205.0Q726.0 209.0 702.25 211.25Q678.5 213.5 636.0 213.5H619.0Q561.5 213.5 533.75 218.25Q506.0 223.0 506.0 233.5Q506.0 239.0 524.25 245.0Q542.5 251.0 574.25 256.5Q606.0 262.0 645.5 266.5Q679.5 269.5 701.25 274.5Q723.0 279.5 721.5 281.5Q718.5 282.5 707.0 283.25Q695.5 284.0 679.0 284.0Q672.0 284.0 664.0 284.0Q656.0 284.0 647.5 283.5H641.0Q610.5 283.5 582.5 285.75Q554.5 288.0 534.5 292.25Q514.5 296.5 507.5 302.0Q507.0 302.0 506.75 302.5Q506.5 303.0 506.5 303.0Q506.5 308.5 515.0 315.75Q523.5 323.0 537.75 330.0Q552.0 337.0 569.0 342.5Q578.0 346.0 593.5 349.0Q609.0 352.0 627.75 354.0Q646.5 356.0 664.0 357.0Q682.0 358.0 697.5 359.75Q713.0 361.5 722.25 363.75Q731.5 366.0 731.5 369.0Q731.5 372.0 708.25 374.5Q685.0 377.0 651.5 377.0Q585.0 377.0 549.25 385.5Q513.5 394.0 500.0 411.5Q493.5 418.5 489.0 422.5Q484.5 426.5 482.0 426.5Q474.5 426.5 474.5 405.0V389.5H432.5Q397.5 389.5 374.75 393.75Q352.0 398.0 337.5 408.5Q323.0 419.0 312.5 437.0Q311.0 440.5 308.0 440.5Q305.0 440.5 303.0 433.25Q301.0 426.0 301.0 409.5Q301.0 403.5 301.0 395.5Q301.0 387.5 301.5 378.0L303.5 348.0Q303.5 342.5 303.75 337.0Q304.0 331.5 304.0 327.5Q305.0 312.5 305.25 300.75Q305.5 289.0 305.5 283.5V212.0Q305.5 208.5 305.5 205.25Q305.5 202.0 305.0 198.5V186.5Q304.5 179.5 304.25 171.25Q304.0 163.0 304.0 155.0Q304.0 137.5 305.25 115.5Q306.5 93.5 308.25 73.0Q310.0 52.5 312.25 39.0Q314.5 25.5 316.0 25.5Q322.0 25.5 322.0 37.0Q322.0 41.5 330.75 50.75Q339.5 60.0 352.5 69.75Q365.5 79.5 378.5 86.0Q388.5 90.0 408.0 94.5Q427.5 99.0 446.0 100.5L488.5 102.5L484.5 61.0Q483.0 45.0 483.0 32.0Q483.0 25.0 483.5 19.75Q484.0 14.5 486.0 12.5Z" fill="black" /></svg>