<svg xmlns="http://www.w3.org/2000/svg" width="369.5" height="263.0" viewBox="0 0 369.5 263.0"><path d="M96.0 187.5Q89.0 186.5 76.5 180.75Q64.0 175.0 54.0 168.0L34.0 154.0L33.0 189.5V198.0Q32.5 200.0 32.5 201.5Q32.5 203.0 32.5 205.0Q32.5 214.5 32.75 220.0Q33.0 225.5 33.5 225.5Q35.5 225.5 40.25 223.0Q45.0 220.5 50.0 217.5Q56.0 214.0 67.75 208.75Q79.5 203.5 89.5 200.5Q94.5 198.0 99.0 196.5Q104.5 194.0 107.75 192.75Q111.0 191.5 111.0 191.0Q111.0 190.5 106.25 189.5Q101.5 188.5 96.0 187.5ZM96.5 70.0Q88.0 67.5 75.5 61.75Q63.0 56.0 55.0 51.0L39.0 39.5L37.5 73.5V81.0Q37.0 82.5 37.0 84.0Q37.0 85.5 37.0 87.0Q37.0 97.5 37.25 104.0Q37.5 110.5 37.5 110.5Q38.5 110.5 45.0 107.25Q51.5 104.0 58.5 99.5Q67.0 95.5 78.5 90.0Q90.0 84.5 98.0 82.5Q105.0 80.0 110.5 78.25Q116.0 76.5 116.0 76.0Q116.0 76.0 110.0 74.0Q104.0 72.0 96.5 70.0ZM22.0 116.0Q23.0 86.5 24.25 62.5Q25.5 38.5 27.0 24.25Q28.5 10.0 30.0 10.0Q31.0 10.0 35.75 14.0Q40.5 18.0 45.5 23.5Q50.0 29.0 60.75 37.0Q71.5 45.0 82.5 50.0L107.0 62.5L232.0 62.0H259.0Q288.0 62.0 310.5 62.5Q333.0 63.0 346.25 64.0Q359.5 65.0 359.5 66.5Q359.5 68.5 345.75 70.75Q332.0 73.0 309.25 74.75Q286.5 76.5 259.75 77.5Q233.0 78.5 207.0 78.5Q185.5 78.5 171.25 79.5Q157.0 80.5 145.5 83.25Q134.0 86.0 119.5 90.5Q106.0 95.5 88.25 103.5Q70.5 111.5 55.0 119.25Q39.5 127.0 33.5 131.5Q34.5 134.5 41.25 140.5Q48.0 146.5 58.25 153.25Q68.5 160.0 78.5 165.0L102.5 177.5H225.5Q260.0 177.5 288.5 178.0Q317.0 178.5 334.0 179.75Q351.0 181.0 351.0 182.5Q351.0 185.5 331.5 188.25Q312.0 191.0 280.75 192.5Q249.5 194.0 214.0 194.0Q186.5 194.0 170.25 194.75Q154.0 195.5 142.0 198.0Q130.0 200.5 115.0 205.0Q102.5 209.5 88.25 216.0Q74.0 222.5 61.0 228.75Q48.0 235.0 39.5 240.25Q31.0 245.5 30.0 248.0Q29.0 250.5 25.75 251.75Q22.5 253.0 20.0 253.0Q16.0 253.0 13.0 251.25Q10.0 249.5 10.0 246.0Q10.0 244.0 11.0 240.25Q12.0 236.5 13.0 233.0L14.0 230.5Q15.5 227.5 17.0 211.25Q18.5 195.0 20.0 170.0Q21.5 145.0 22.0 116.0Z" fill="black" /></svg>