<svg xmlns="http://www.w3.org/2000/svg" width="343.0" height="383.5" viewBox="0 0 343.0 383.5"><path d="M85.0 222.0Q85.0 221.0 79.5 214.5Q74.0 208.0 67.75 200.75Q61.5 193.5 58.5 191.5Q57.0 194.0 53.75 198.5Q50.5 203.0 47.0 207.5L36.5 222.5L60.0 223.0Q71.5 223.0 78.25 222.75Q85.0 222.5 85.0 222.0ZM91.0 93.0 92.5 100.0 106.5 74.0H95.0Q91.0 74.0 88.25 74.25Q85.5 74.5 84.5 74.5Q86.0 76.5 87.75 82.0Q89.5 87.5 91.0 93.0ZM105.5 107.5Q105.5 107.0 105.25 106.75Q105.0 106.5 105.0 106.5Q103.5 106.5 101.25 113.5Q99.0 120.5 98.0 126.0Q100.5 122.5 103.0 116.25Q105.5 110.0 105.5 107.5ZM140.0 145.5 128.0 135.0Q125.5 132.5 123.25 130.5Q121.0 128.5 119.0 126.5Q116.5 123.5 114.75 121.75Q113.0 120.0 113.0 120.0Q112.5 120.0 109.75 124.5Q107.0 129.0 104.25 134.25Q101.5 139.5 100.5 141.5L102.0 142.0H104.5Q108.0 142.5 112.75 143.0Q117.5 143.5 122.5 144.0ZM179.5 169.5 160.0 163.5Q146.0 159.5 130.5 157.25Q115.0 155.0 105.5 155.0Q100.5 155.0 98.5 156.0Q97.5 157.5 96.75 166.0Q96.0 174.5 96.0 185.0V211.5L112.5 223.0Q117.0 226.5 126.5 231.0Q136.0 235.5 147.0 240.25Q158.0 245.0 167.25 248.25Q176.5 251.5 181.0 252.5V210.5ZM274.5 244.0 273.0 202.0 192.0 174.5V212.0Q192.0 233.0 193.0 243.25Q194.0 253.5 196.0 255.5Q199.0 257.0 210.25 261.5Q221.5 266.0 235.5 271.0Q249.5 276.0 261.25 279.75Q273.0 283.5 276.0 284.0Q275.5 282.5 275.5 279.0Q275.5 275.5 275.5 270.5Q275.5 265.0 275.25 258.0Q275.0 251.0 274.5 244.0ZM170.0 41.0Q165.0 38.0 161.0 35.0Q157.0 32.0 157.0 32.0Q156.0 32.5 154.0 39.25Q152.0 46.0 151.0 50.0Q152.0 50.5 154.5 50.5Q157.0 51.0 160.0 51.25Q163.0 51.5 166.0 52.0Q168.5 52.0 173.5 53.0H177.5Q180.0 53.5 182.5 53.75Q185.0 54.0 187.0 54.0Q183.5 51.5 178.75 48.0Q174.0 44.5 170.0 41.0ZM200.5 95.5Q198.5 96.0 191.0 96.0H182.5Q182.5 96.5 183.5 99.5Q184.0 101.5 184.75 103.5Q185.5 105.5 186.0 108.0L189.0 115.5L196.5 102.5Q197.5 100.5 198.75 98.5Q200.0 96.5 200.5 95.5ZM201.0 69.0Q188.5 67.0 176.25 65.5Q164.0 64.0 160.0 64.0Q145.5 65.0 131.5 72.0Q117.5 79.0 110.5 92.5Q113.5 91.0 115.5 91.0Q120.0 91.0 120.0 96.0Q120.0 97.5 119.0 100.5V101.0Q120.0 106.0 128.0 115.75Q136.0 125.5 147.5 135.0Q159.0 144.5 169.0 150.0L180.0 155.0V145.5Q180.0 129.5 175.25 115.25Q170.5 101.0 164.0 95.5Q160.5 92.5 157.75 89.25Q155.0 86.0 155.0 85.0Q155.0 83.0 160.5 82.25Q166.0 81.5 175.5 81.5Q185.5 81.5 197.0 81.75Q208.5 82.0 217.75 82.5Q227.0 83.0 230.0 83.5L231.0 85.0Q231.0 88.0 222.0 94.5Q216.5 97.0 210.25 105.75Q204.0 114.5 199.5 125.75Q195.0 137.0 193.5 147.0L191.5 159.5L230.5 174.0Q246.5 180.5 259.75 184.75Q273.0 189.0 274.0 189.0Q274.5 189.0 274.5 183.0Q274.5 177.0 274.5 168.5Q274.5 158.0 273.75 145.5Q273.0 133.0 271.0 123.5Q267.5 105.5 261.0 95.25Q254.5 85.0 240.75 79.25Q227.0 73.5 201.0 69.0ZM296.5 96.5 297.5 94.5Q295.0 93.5 291.0 92.5Q287.0 91.5 282.5 90.0L272.0 87.0L275.0 92.0Q277.0 97.0 279.75 104.5Q282.5 112.0 283.5 118.0L284.5 123.5L288.5 113.5Q291.0 107.0 293.5 101.0L294.5 99.5Q295.0 98.5 295.5 97.75Q296.0 97.0 296.5 96.5ZM148.5 18.0Q148.5 10.0 152.5 10.0Q156.0 10.0 170.5 24.5Q186.0 40.0 208.25 51.25Q230.5 62.5 257.5 68.5Q289.0 76.0 302.5 76.0Q309.5 76.0 313.0 73.5Q315.5 71.0 318.5 71.0Q323.0 71.0 327.0 75.0Q329.5 77.0 331.25 78.75Q333.0 80.5 333.0 81.5Q333.0 84.5 324.5 84.5Q316.5 84.5 316.5 87.5Q316.5 88.0 318.0 89.0Q322.5 92.0 322.5 95.5Q322.5 99.5 319.5 100.25Q316.5 101.0 313.5 101.0Q313.0 100.5 312.0 100.5H311.0L310.5 100.0Q307.0 100.0 303.0 110.25Q299.0 120.5 295.25 135.0Q291.5 149.5 289.25 162.5Q287.0 175.5 287.0 180.5Q287.0 193.5 291.0 195.0V195.5Q297.0 197.5 297.0 202.0Q297.0 208.0 289.0 208.0Q288.5 208.0 288.0 211.75Q287.5 215.5 287.5 228.5Q287.5 237.5 287.75 252.0Q288.0 266.5 288.5 288.0Q290.0 321.5 290.0 342.0Q290.0 359.0 288.5 366.25Q287.0 373.5 284.5 373.5Q278.5 373.5 278.5 342.0Q278.0 330.5 277.75 319.25Q277.5 308.0 277.5 304.5Q277.0 300.5 269.25 296.5Q261.5 292.5 238.0 284.5Q222.0 279.0 209.5 275.5Q197.0 272.0 196.0 272.0Q196.0 272.0 195.75 274.0Q195.5 276.0 195.5 279.5Q195.5 292.0 190.0 292.0Q184.0 292.0 182.5 277.0L181.5 267.0L149.5 255.5Q135.0 250.0 122.25 246.0Q109.5 242.0 104.5 241.0L96.0 240.0V262.0Q96.0 286.5 91.0 286.5Q87.0 286.5 85.5 259.5Q84.5 239.0 82.5 235.5H52.0Q41.0 235.5 34.75 236.75Q28.5 238.0 24.5 240.5Q21.0 242.5 18.25 243.75Q15.5 245.0 14.0 245.0Q10.0 245.0 10.0 241.0Q10.0 238.5 13.5 232.25Q17.0 226.0 24.0 217.5Q35.5 203.0 42.0 193.5Q48.5 184.0 48.5 179.0V178.5Q47.5 176.5 47.5 174.5Q47.5 170.5 51.75 165.5Q56.0 160.5 60.0 160.5Q64.0 160.5 64.5 163.75Q65.0 167.0 65.0 171.5Q64.5 173.0 64.5 175.0Q64.5 181.0 75.5 192.0L85.0 201.0V183.5Q85.0 176.0 84.75 170.5Q84.5 165.0 84.5 163.0V162.5H82.5Q76.0 162.5 76.0 158.0Q76.0 155.0 80.0 149.5Q82.5 146.0 83.25 140.5Q84.0 135.0 84.0 129.0Q84.0 117.0 81.25 104.25Q78.5 91.5 74.25 82.0Q70.0 72.5 65.0 71.0Q62.0 70.5 59.5 68.25Q57.0 66.0 57.0 64.0Q57.0 59.5 69.5 59.5Q72.0 59.5 74.5 59.75Q77.0 60.0 80.0 60.0L81.5 60.5Q86.5 61.0 91.5 61.25Q96.5 61.5 101.5 61.5Q112.0 61.5 118.0 60.5Q127.0 59.0 130.75 56.0Q134.5 53.0 139.5 40.5Q143.0 34.0 145.75 27.0Q148.5 20.0 148.5 18.0Z" fill="black" /></svg>