<svg xmlns="http://www.w3.org/2000/svg" width="481.0" height="384.5" viewBox="0 0 481.0 384.5"><path d="M64.0 265.0 64.5 264.5Q58.0 262.0 52.25 258.5Q46.5 255.0 41.5 250.5Q39.0 248.0 37.5 248.0Q36.5 248.0 32.5 267.5Q31.5 273.5 30.75 279.5Q30.0 285.5 29.5 289.0Q31.5 288.5 34.75 287.5Q38.0 286.5 41.5 285.5Q47.0 284.0 59.25 283.0Q71.5 282.0 81.5 282.0Q88.5 282.0 92.25 281.75Q96.0 281.5 98.0 281.5Q95.0 280.0 92.0 280.0Q91.0 280.0 89.0 281.0H84.5Q80.5 281.0 78.5 279.75Q76.5 278.5 76.5 274.5Q76.5 272.5 73.0 269.75Q69.5 267.0 64.0 265.0ZM133.0 226.5H132.5Q131.0 223.5 126.0 220.75Q121.0 218.0 117.5 218.0H116.5Q115.0 221.0 115.0 225.5Q115.0 228.5 118.5 228.5Q121.0 228.5 126.0 227.75Q131.0 227.0 133.0 226.5ZM111.0 149.5Q104.5 167.5 100.5 188.25Q96.5 209.0 95.0 228.5Q93.5 248.0 93.0 263.5Q96.0 266.5 111.5 271.25Q127.0 276.0 149.25 281.0Q171.5 286.0 194.0 290.0Q216.0 293.5 234.25 296.5Q252.5 299.5 256.0 300.5Q257.0 301.0 258.5 301.0Q259.5 301.0 260.0 296.5Q260.5 292.0 260.5 279.5Q257.5 280.5 257.0 280.5Q250.5 280.5 240.0 271.5Q232.0 265.5 224.0 262.0Q216.0 258.5 208.5 258.5Q203.5 258.5 196.0 261.0Q190.0 262.5 186.0 262.5Q179.0 262.5 179.0 257.5Q179.0 253.5 186.5 249.0L188.5 247.5Q190.0 246.5 191.5 245.0Q189.5 240.5 154.0 240.5Q138.0 240.5 128.75 242.25Q119.5 244.0 115.0 247.0Q111.0 249.0 107.75 250.75Q104.5 252.5 102.5 252.5Q100.5 252.5 99.5 252.0Q98.5 249.0 98.5 247.0Q98.5 240.5 101.0 226.5Q103.0 219.5 104.0 211.25Q105.0 203.0 105.0 198.5Q105.0 195.0 105.75 186.25Q106.5 177.5 107.75 167.25Q109.0 157.0 111.0 149.5ZM260.5 274.5Q260.5 272.0 260.5 269.0Q260.5 266.0 260.5 262.5Q260.5 242.0 260.0 232.75Q259.5 223.5 257.25 219.25Q255.0 215.0 249.5 210.5Q239.5 200.5 231.75 196.0Q224.0 191.5 215.5 191.5Q213.5 191.5 211.75 191.75Q210.0 192.0 208.0 192.5Q198.5 194.0 193.0 194.0Q189.0 194.0 186.5 192.75Q184.0 191.5 184.0 187.0Q183.5 186.0 176.0 185.5Q168.5 185.0 158.5 185.0Q149.0 185.0 139.0 185.75Q129.0 186.5 122.0 188.5Q119.5 189.0 118.25 189.25Q117.0 189.5 117.0 189.5Q117.0 190.0 119.5 194.0Q120.0 194.5 120.5 195.5Q121.0 196.5 121.5 197.5Q129.5 207.5 143.0 215.0Q156.5 222.5 171.75 226.5Q187.0 230.5 199.5 230.5Q205.0 230.5 208.75 227.75Q212.5 225.0 219.0 217.5Q232.0 205.5 238.0 205.5Q243.0 205.5 243.0 210.0Q243.0 211.5 242.0 213.75Q241.0 216.0 240.0 218.5Q235.5 225.0 235.5 234.5Q235.5 250.5 250.0 262.0Q257.0 268.0 260.5 274.5ZM224.0 239.0V232.5Q224.0 232.5 223.5 233.0Q223.0 233.5 222.5 234.5V235.0Q222.5 235.0 222.25 235.25Q222.0 235.5 222.0 236.0Q222.0 238.0 224.0 241.0Q224.0 240.5 224.0 240.0Q224.0 239.5 224.0 239.0ZM116.0 108.5 108.5 107.0H107.5Q105.0 105.5 101.25 105.0Q97.5 104.5 94.0 104.0H93.0Q92.5 104.0 90.5 103.75Q88.5 103.5 88.0 103.0H84.0Q87.5 110.0 89.5 116.75Q91.5 123.5 93.0 131.0L95.0 144.0ZM131.0 171.5Q131.0 169.0 127.25 168.0Q123.5 167.0 121.5 167.0Q119.0 169.5 119.0 170.5Q119.0 173.0 125.5 173.0Q131.0 173.0 131.0 171.5ZM289.0 197.0V196.5Q287.5 191.5 284.0 191.5Q282.0 191.5 282.0 193.5Q282.0 198.0 286.5 198.0Q289.0 198.0 289.0 197.0ZM294.5 264.0Q294.5 262.0 286.0 255.0Q283.0 252.0 282.0 252.0Q282.0 254.0 281.5 255.5L281.0 256.5V258.0Q279.5 261.0 279.5 263.5L279.0 264.0Q279.0 265.0 285.5 265.0Q289.0 265.0 291.75 264.75Q294.5 264.5 294.5 264.0ZM333.0 212.0Q329.5 209.5 324.0 208.5Q318.5 207.5 312.5 207.5Q309.0 207.5 300.5 208.5Q292.0 209.5 284.75 212.25Q277.5 215.0 277.5 220.5Q277.5 227.5 286.75 237.25Q296.0 247.0 308.75 254.0Q321.5 261.0 331.5 261.0Q337.5 261.0 339.0 258.0Q340.5 255.0 340.5 238.0Q340.5 224.0 339.0 219.0Q337.5 214.0 333.0 212.0ZM353.5 180.5Q349.5 178.0 347.0 178.0Q347.0 178.0 346.75 178.5Q346.5 179.0 346.5 180.0Q346.5 181.0 346.75 182.75Q347.0 184.5 347.5 186.5Q348.5 190.5 349.25 193.25Q350.0 196.0 350.5 196.5Q351.0 195.5 351.75 194.0Q352.5 192.5 353.0 190.5Q355.5 187.5 355.5 184.0Q355.5 182.5 353.5 180.5ZM207.0 71.0 186.5 61.0Q181.0 57.5 175.5 54.5Q170.0 51.5 165.5 48.5Q160.5 45.5 156.5 43.25Q152.5 41.0 150.5 40.0Q150.5 39.5 150.0 39.25Q149.5 39.0 149.5 39.0Q148.0 39.5 146.0 46.75Q144.0 54.0 142.5 62.25Q141.0 70.5 141.0 73.5Q141.0 76.0 143.0 76.0Q144.0 76.0 145.5 76.0Q147.0 76.0 148.5 75.5Q154.0 74.5 165.75 73.25Q177.5 72.0 189.0 71.5ZM228.0 86.5Q226.0 86.5 222.0 86.25Q218.0 86.0 214.0 85.5H209.5Q208.0 85.0 205.5 85.0Q204.0 84.5 201.75 84.5Q199.5 84.5 197.0 84.5Q189.0 84.5 178.0 85.75Q167.0 87.0 157.0 88.5Q147.0 90.0 141.5 92.0Q141.0 92.5 140.0 93.0Q139.0 93.5 139.0 93.5L139.5 94.0Q142.5 97.0 142.5 99.5Q142.5 103.5 135.0 110.0Q123.0 120.5 114.5 140.0Q116.5 139.0 116.5 139.0Q117.0 139.0 120.75 141.75Q124.5 144.5 126.5 148.5Q131.5 156.5 143.25 162.5Q155.0 168.5 168.5 171.75Q182.0 175.0 191.0 175.0Q197.5 175.0 202.0 171.5Q206.5 168.0 217.5 157.0Q235.5 138.0 243.0 138.0Q247.0 138.0 247.0 142.5Q247.0 144.0 244.5 151.5Q240.0 158.0 240.0 167.5Q240.0 174.0 243.75 181.25Q247.5 188.5 253.0 194.0L260.5 200.0V184.5Q260.5 170.0 257.75 152.0Q255.0 134.0 251.0 118.25Q247.0 102.5 243.0 96.0Q236.0 86.5 228.0 86.5ZM227.0 173.0Q227.0 171.0 227.0 169.5Q227.0 168.0 227.0 167.5Q226.0 168.5 225.5 169.5Q223.5 171.5 222.5 173.0Q220.5 175.0 219.25 176.0Q218.0 177.0 218.0 177.0L222.5 178.5H224.5L225.5 179.0Q227.0 178.0 227.0 173.0ZM292.0 95.0V94.0Q292.5 94.0 292.5 93.0Q292.5 91.0 275.0 90.5H269.0Q268.0 90.0 265.5 90.0Q258.5 90.0 258.5 91.0Q258.5 91.0 258.75 91.25Q259.0 91.5 259.0 92.5L259.5 94.0Q263.0 103.0 273.5 162.0Q274.5 149.5 279.5 135.0Q284.0 122.0 287.75 110.0Q291.5 98.0 292.0 95.0ZM432.0 104.0Q436.0 89.5 440.5 77.25Q445.0 65.0 447.0 62.5Q446.0 61.5 441.75 61.25Q437.5 61.0 428.5 61.0Q417.5 61.0 413.25 61.0Q409.0 61.0 409.0 62.0L410.0 64.0Q411.0 67.5 413.25 78.25Q415.5 89.0 416.5 99.5Q422.0 130.0 422.5 130.0Q423.5 130.0 432.0 104.0ZM133.5 33.5 134.0 32.0Q135.5 23.0 137.0 16.5Q138.5 10.0 140.5 10.0Q141.5 10.0 145.5 13.5Q149.5 17.0 153.0 21.5Q157.5 27.0 170.75 35.0Q184.0 43.0 201.0 51.0Q218.0 59.0 234.5 65.0Q251.0 71.0 262.0 73.0Q269.0 74.5 277.5 75.25Q286.0 76.0 292.5 76.0Q295.0 76.0 297.5 76.0Q300.0 76.0 301.5 75.5Q303.5 75.0 305.25 75.0Q307.0 75.0 308.5 75.0Q318.5 75.0 320.0 78.5H320.5Q321.0 80.0 331.25 82.75Q341.5 85.5 355.5 88.0Q370.0 90.5 380.5 94.5Q391.0 98.5 391.0 100.5V101.0Q391.0 104.0 390.25 105.5Q389.5 107.0 385.0 107.0Q382.5 107.0 376.75 106.0Q371.0 105.0 361.0 103.0Q350.5 100.5 339.25 98.25Q328.0 96.0 317.0 96.0Q312.0 96.0 311.0 97.5Q309.0 99.5 304.75 108.5Q300.5 117.5 296.5 129.0Q292.5 140.5 289.5 150.5Q286.5 160.5 286.5 165.0Q286.5 173.5 294.5 180.5Q302.5 187.5 313.5 191.5Q324.5 195.5 332.5 195.5Q336.0 195.5 336.0 193.0Q336.0 190.0 334.0 185.25Q332.0 180.5 329.5 177.0Q327.0 174.0 325.5 170.5Q324.0 167.0 324.0 165.0L324.5 162.5H327.0Q329.5 162.5 337.0 163.5Q344.5 164.5 353.5 166.25Q362.5 168.0 369.5 169.5Q376.5 171.0 378.0 172.0L378.5 174.0Q378.5 175.0 376.0 179.75Q373.5 184.5 370.0 189.0Q368.0 193.0 366.0 197.5Q364.0 202.0 363.5 204.5Q364.0 205.0 364.0 207.0Q364.0 209.0 363.0 212.25Q362.0 215.5 359.5 218.0Q353.5 223.0 353.5 244.0Q353.5 258.5 355.25 262.0Q357.0 265.5 364.0 266.5Q378.5 269.0 378.5 275.5Q378.5 280.5 370.5 280.5Q368.5 280.5 365.75 280.25Q363.0 280.0 360.5 279.5Q358.5 279.0 356.25 278.75Q354.0 278.5 353.0 278.5Q350.0 278.5 350.0 288.0Q350.0 294.5 347.75 299.0Q345.5 303.5 343.0 303.5Q340.0 303.5 338.0 298.25Q336.0 293.0 336.0 286.0V272.5Q333.0 273.0 330.25 273.25Q327.5 273.5 324.5 274.0Q321.5 274.0 318.25 274.25Q315.0 274.5 312.0 275.0Q300.5 275.5 291.25 277.5Q282.0 279.5 279.5 282.0Q276.5 284.0 275.25 288.5Q274.0 293.0 274.0 297.0Q274.0 303.0 276.5 304.5Q279.0 306.0 280.5 308.75Q282.0 311.5 282.0 314.0Q282.0 319.0 276.0 319.0Q275.0 320.0 273.75 326.75Q272.5 333.5 271.5 343.0Q270.5 355.5 267.75 365.0Q265.0 374.5 262.0 374.5Q257.5 374.5 257.5 362.0Q257.5 353.5 259.0 343.0Q259.0 338.5 260.0 334.5V328.5Q260.5 327.0 260.5 324.5Q260.5 317.5 253.25 314.75Q246.0 312.0 222.5 307.5Q193.0 301.0 161.75 298.25Q130.5 295.5 99.5 295.5Q70.0 295.5 49.0 299.0Q28.0 302.5 22.5 309.0Q18.0 314.5 14.0 314.5Q10.0 314.5 10.0 307.5Q10.0 304.5 11.0 299.0Q12.0 293.5 14.0 287.0Q17.5 278.0 19.75 266.0Q22.0 254.0 22.5 245.5Q22.5 223.0 31.0 223.0Q40.0 223.0 40.0 230.0Q40.0 232.0 47.75 238.0Q55.5 244.0 64.75 249.25Q74.0 254.5 78.0 255.0Q80.0 252.0 81.25 240.75Q82.5 229.5 83.25 213.5Q84.0 197.5 84.0 181.5Q84.0 162.5 81.25 142.0Q78.5 121.5 69.0 104.5Q65.5 100.0 63.25 95.5Q61.0 91.0 61.0 89.5V89.0Q61.5 87.0 66.0 87.0Q73.5 87.0 90.0 89.5L92.0 90.0Q99.0 91.0 104.0 91.75Q109.0 92.5 112.5 92.5Q117.0 92.5 119.5 90.0Q123.5 83.5 127.5 67.25Q131.5 51.0 133.5 33.5ZM386.0 44.5Q386.0 41.5 390.0 41.5Q393.5 41.5 399.0 43.5Q405.0 46.5 423.0 46.5Q426.5 46.5 430.0 46.5Q433.5 46.5 437.5 46.0Q439.5 46.0 441.0 46.0Q442.5 46.0 444.5 45.5H451.0Q455.0 45.0 458.75 45.0Q462.5 45.0 464.5 45.0Q471.0 45.0 471.0 48.5Q471.0 48.5 468.0 54.75Q465.0 61.0 460.5 69.0Q430.0 120.5 425.0 238.0Q424.0 258.0 422.75 277.75Q421.5 297.5 421.0 312.5Q420.5 327.5 420.5 333.5Q420.5 343.5 419.0 350.75Q417.5 358.0 413.5 358.0Q408.5 358.0 408.5 315.5Q408.5 305.5 408.75 293.25Q409.0 281.0 409.0 267.0L409.5 256.0V248.0Q410.0 234.0 410.25 221.75Q410.5 209.5 410.5 198.5Q410.5 145.0 406.5 113.75Q402.5 82.5 394.0 65.5Q390.5 57.5 388.25 51.25Q386.0 45.0 386.0 44.5Z" fill="black" /></svg>