<svg xmlns="http://www.w3.org/2000/svg" width="805.5" height="453.0" viewBox="0 0 805.5 453.0"><path d="M89.5 345.0 80.5 342.0Q72.5 339.5 61.25 334.25Q50.0 329.0 43.0 324.0L32.5 316.0L31.0 341.0V344.0Q30.5 351.5 30.25 358.25Q30.0 365.0 30.0 369.0Q31.0 368.0 32.0 367.5Q33.0 367.0 34.0 366.5L37.0 365.5Q41.5 362.5 52.5 358.0Q63.5 353.5 74.0 350.0ZM329.0 279.5 326.0 279.0Q322.0 278.0 319.0 277.25Q316.0 276.5 314.5 276.5H314.0Q314.5 278.0 315.5 280.25Q316.5 282.5 318.5 285.0L323.0 295.5L329.0 288.0Q331.0 286.0 332.25 284.25Q333.5 282.5 334.0 282.0Q333.5 281.5 332.0 281.0Q330.5 280.5 329.0 279.5ZM621.5 317.0V257.0Q618.0 259.5 609.25 260.75Q600.5 262.0 589.0 262.0Q574.5 262.0 565.0 263.5Q555.5 265.0 546.75 268.75Q538.0 272.5 524.5 279.5Q509.5 286.5 499.5 291.0Q489.5 295.5 489.5 295.5Q489.5 295.5 494.0 298.25Q498.5 301.0 503.5 305.0Q511.5 309.5 526.5 311.75Q541.5 314.0 570.5 315.0ZM100.5 170.0H101.0Q89.0 170.0 80.5 167.0Q78.5 166.5 76.75 166.25Q75.0 166.0 74.0 165.5Q75.5 172.0 79.5 184.0Q83.5 196.0 86.5 202.0Q87.5 198.0 89.75 193.0Q92.0 188.0 94.0 183.0Q97.0 178.0 98.5 175.0Q100.0 172.0 100.5 170.0ZM184.0 133.0 178.0 129.5V129.0Q175.0 127.5 169.25 123.75Q163.5 120.0 158.0 115.5Q152.5 111.0 151.0 108.0Q151.0 110.5 149.0 114.0Q147.5 120.0 146.75 126.25Q146.0 132.5 146.0 137.5Q146.0 144.5 146.75 149.75Q147.5 155.0 149.5 155.0Q155.0 149.5 160.25 145.5Q165.5 141.5 173.0 138.0ZM273.5 171.0Q273.5 170.0 272.0 170.0Q271.0 170.0 270.75 173.0Q270.5 176.0 270.5 176.5H271.0Q272.0 175.5 272.75 174.25Q273.5 173.0 273.5 171.0ZM320.0 175.0 320.5 173.0Q321.5 173.0 321.5 171.0Q321.5 170.0 319.5 170.0Q318.5 170.0 318.5 171.0Q318.5 173.0 319.0 173.0L320.0 175.5ZM358.0 176.5Q356.5 174.0 355.0 172.0Q353.5 170.0 351.0 170.0Q347.5 170.0 342.75 174.0Q338.0 178.0 334.0 184.5Q329.0 192.0 326.75 202.5Q324.5 213.0 324.5 232.5V265.0H340.0Q354.0 265.0 359.0 261.25Q364.0 257.5 364.5 244.5Q364.5 227.5 363.25 209.75Q362.0 192.0 358.0 176.5ZM376.5 170.0Q375.5 170.0 373.25 170.5Q371.0 171.0 371.0 172.5Q371.0 173.5 372.0 173.5Q373.5 173.5 374.75 172.0Q376.0 170.5 376.5 170.0ZM527.5 258.0H527.0H527.5Q527.0 257.0 526.0 255.0Q525.0 253.0 523.5 252.5Q523.0 251.5 522.5 251.25Q522.0 251.0 521.5 250.5Q521.5 251.0 521.5 252.0Q521.5 253.0 521.5 254.0Q521.5 261.0 524.0 261.0Q525.0 261.0 526.0 259.75Q527.0 258.5 527.5 258.0ZM532.5 194.0Q532.0 194.0 532.0 193.75Q532.0 193.5 531.5 193.5L530.0 192.0Q529.5 191.0 527.75 190.25Q526.0 189.5 525.0 189.0Q524.5 188.5 523.75 187.75Q523.0 187.0 522.0 187.0Q521.5 186.5 521.5 186.5V198.5Q524.5 198.5 527.0 196.5Q531.0 194.5 532.5 194.0ZM621.0 193.5Q617.0 195.5 607.75 196.5Q598.5 197.5 587.0 197.5Q572.5 197.5 564.0 198.75Q555.5 200.0 549.25 202.75Q543.0 205.5 534.0 210.5L513.5 224.5Q520.0 226.5 531.5 236.5Q537.0 241.0 541.75 243.25Q546.5 245.5 555.5 246.25Q564.5 247.0 581.5 247.0Q612.5 247.0 621.5 252.0V242.5Q621.5 226.5 621.5 214.25Q621.5 202.0 621.0 193.5ZM395.0 100.5 387.5 93.0Q383.0 88.0 378.0 81.0Q373.0 74.0 369.0 68.5L368.0 67.5L364.0 58.0L356.5 73.5Q352.5 82.0 347.25 90.75Q342.0 99.5 339.5 104.5Q339.0 105.0 339.0 105.25Q339.0 105.5 338.5 106.0L342.0 105.0Q346.5 103.0 357.5 101.75Q368.5 100.5 378.5 100.5ZM525.5 97.5 512.0 92.0Q503.5 88.5 494.75 82.5Q486.0 76.5 481.0 73.0L476.0 68.5V93.5Q476.0 104.5 476.25 112.75Q476.5 121.0 477.0 122.0H477.5Q479.0 121.5 481.0 120.5Q486.0 118.0 492.0 114.75Q498.0 111.5 504.5 108.0ZM639.5 156.5 641.5 152.5H638.0Q631.5 152.5 631.5 156.0Q631.5 161.0 633.5 161.0Q634.5 161.0 636.25 159.5Q638.0 158.0 639.5 156.5ZM735.0 165.5 743.0 152.5H712.0L718.0 166.0Q720.5 172.5 722.5 177.75Q724.5 183.0 724.5 183.0Q724.5 183.0 727.75 177.5Q731.0 172.0 735.0 165.5ZM737.5 72.0 746.5 56.0H730.0Q720.0 56.0 715.5 56.5Q711.0 57.0 710.5 58.0Q711.0 59.0 712.0 60.5Q713.0 62.0 713.5 64.0Q714.0 64.5 716.0 67.5Q720.0 72.5 721.5 78.0Q723.0 83.5 723.0 90.5Q726.0 90.5 737.5 72.0ZM387.5 354.5H386.5Q385.0 355.0 380.5 355.0Q374.5 356.5 366.5 357.5H365.0L350.5 359.5L362.0 378.5Q366.5 388.0 370.0 392.0Q371.0 388.0 373.5 382.0Q376.0 376.0 378.5 370.0Q382.0 365.5 384.5 361.0Q387.0 356.5 387.5 354.5ZM520.5 326.5Q517.0 326.5 508.0 323.0Q499.0 319.5 491.5 314.5L489.0 313.0Q484.0 310.5 480.75 308.5Q477.5 306.5 476.0 306.5Q473.5 306.5 472.25 313.5Q471.0 320.5 469.5 335.0L468.5 353.0L489.0 343.0Q499.0 337.0 509.0 333.5Q519.0 330.0 521.5 330.0Q525.0 330.0 525.0 328.5Q525.0 326.5 520.5 326.5ZM17.0 322.5Q17.0 308.0 19.0 298.5Q21.0 289.0 23.5 289.0Q26.0 289.0 29.75 291.75Q33.5 294.5 38.0 298.5L41.0 301.0Q45.5 306.0 54.75 312.25Q64.0 318.5 72.5 322.5Q74.5 323.5 76.25 324.25Q78.0 325.0 80.0 326.0Q78.0 323.5 76.0 307.5Q74.0 291.5 73.5 270.0Q73.0 222.5 67.5 198.25Q62.0 174.0 52.0 165.5Q48.0 162.0 45.25 159.25Q42.5 156.5 42.5 154.5Q42.5 148.5 53.5 148.5Q57.5 148.5 64.5 149.25Q71.5 150.0 78.5 152.0Q84.0 152.5 89.75 153.25Q95.5 154.0 100.5 154.0Q104.0 154.0 107.0 153.5Q110.0 153.0 111.5 152.0Q118.5 149.0 122.5 149.0Q125.5 149.0 130.5 151.5Q131.0 149.0 131.75 141.0Q132.5 133.0 133.5 118.0L137.5 69.5L162.0 94.5Q170.5 105.0 176.25 109.75Q182.0 114.5 190.0 116.25Q198.0 118.0 212.0 120.0Q249.0 123.0 283.0 123.0Q296.0 123.0 302.25 120.25Q308.5 117.5 315.0 110.5Q320.5 104.5 330.25 87.5Q340.0 70.5 348.0 53.0Q357.5 35.0 365.75 22.5Q374.0 10.0 376.0 10.0L378.5 11.0Q380.5 14.0 380.5 28.5Q380.5 31.0 380.5 33.75Q380.5 36.5 380.0 39.0Q380.0 50.0 382.0 57.0Q384.0 64.0 392.0 73.5Q397.5 79.5 406.75 87.5Q416.0 95.5 426.75 103.0Q437.5 110.5 446.25 115.5Q455.0 120.5 458.5 121.0Q459.5 118.5 460.0 107.0Q460.5 95.5 460.5 80.0V31.0L488.5 56.0Q500.0 68.0 510.0 73.5Q520.0 79.0 533.0 82.0Q539.0 83.0 553.5 83.75Q568.0 84.5 586.75 85.25Q605.5 86.0 625.5 86.25Q645.5 86.5 662.5 86.5H708.5Q708.0 80.5 701.0 72.0Q694.0 63.5 686.5 60.0Q680.5 57.0 676.5 54.0Q672.5 51.0 672.5 49.0Q672.5 40.5 713.0 40.5Q729.0 40.5 746.75 39.75Q764.5 39.0 773.0 38.0L777.5 37.5Q780.5 37.0 783.25 37.0Q786.0 37.0 787.5 37.0Q795.5 37.0 795.5 41.0Q795.5 46.0 789.5 48.75Q783.5 51.5 779.5 51.5Q774.0 51.5 765.75 60.0Q757.5 68.5 749.25 81.5Q741.0 94.5 735.25 107.75Q729.5 121.0 728.5 131.0Q728.5 137.5 734.5 137.5Q736.5 137.5 739.5 137.25Q742.5 137.0 746.0 137.0L752.5 136.5Q758.0 135.5 763.0 135.0Q768.0 134.5 771.5 134.5Q784.5 134.5 784.5 141.0Q784.5 143.0 780.75 145.5Q777.0 148.0 771.5 152.0Q765.5 155.0 757.5 163.25Q749.5 171.5 744.0 180.5L730.5 201.0L729.0 292.0Q729.0 318.5 727.5 339.75Q726.0 361.0 724.25 373.5Q722.5 386.0 720.0 386.0Q717.0 386.0 715.0 359.25Q713.0 332.5 713.0 290.5Q713.0 251.5 712.25 227.25Q711.5 203.0 709.0 189.0Q706.5 175.0 702.0 168.0Q697.5 161.0 690.5 157.0Q684.0 153.5 680.5 150.0Q677.0 146.5 677.0 144.5Q677.0 137.5 698.0 137.5H713.0V102.0H638.0Q611.5 102.0 595.0 102.25Q578.5 102.5 568.25 103.5Q558.0 104.5 550.0 106.75Q542.0 109.0 532.0 113.0Q485.0 130.5 485.0 137.0Q485.0 137.0 487.25 138.0Q489.5 139.0 492.5 141.5Q499.5 144.0 508.5 149.25Q517.5 154.5 525.25 161.0Q533.0 167.5 536.0 174.0Q538.0 178.0 540.75 180.0Q543.5 182.0 552.0 182.5Q560.5 183.0 579.0 183.0Q594.0 183.0 605.0 184.0Q616.0 185.0 620.5 187.5Q620.0 172.0 618.25 165.0Q616.5 158.0 613.0 152.5Q609.0 146.0 606.5 140.25Q604.0 134.5 604.0 133.5Q604.0 128.5 607.5 128.5Q608.5 128.5 611.0 129.0Q613.5 129.5 616.0 130.5L623.5 133.0Q628.5 134.5 637.5 136.25Q646.5 138.0 653.0 138.5Q664.5 140.5 670.25 142.0Q676.0 143.5 676.0 147.0Q676.0 152.5 664.0 156.5Q649.0 162.5 642.75 184.75Q636.5 207.0 636.5 258.0V315.5H670.0Q687.5 315.5 698.5 317.5Q709.5 319.5 709.5 323.5Q709.5 326.5 698.75 329.0Q688.0 331.5 671.5 331.5Q636.0 331.5 612.5 331.75Q589.0 332.0 573.75 333.0Q558.5 334.0 547.75 336.25Q537.0 338.5 527.5 342.5Q518.0 346.5 505.5 353.0Q490.0 361.0 478.5 367.0Q467.0 373.0 467.0 374.0Q467.0 377.0 464.5 379.0Q462.0 381.0 459.0 381.0Q452.0 381.0 452.0 366.5Q452.0 363.0 452.25 357.5Q452.5 352.0 453.0 346.0Q454.5 338.5 455.0 332.25Q455.5 326.0 455.5 322.5Q455.5 319.0 456.0 318.0Q455.5 318.5 454.25 319.5Q453.0 320.5 451.5 321.5Q449.0 322.5 446.25 324.5Q443.5 326.5 440.0 328.5L435.0 331.5Q412.0 347.0 397.5 370.75Q383.0 394.5 383.0 418.0Q383.0 443.0 375.5 443.0Q368.0 443.0 362.5 421.5Q360.5 415.5 355.75 404.25Q351.0 393.0 345.25 381.25Q339.5 369.5 334.75 360.5Q330.0 351.5 327.5 349.5Q328.0 352.5 328.0 358.5Q328.0 364.5 328.0 371.5Q329.0 374.0 329.0 376.75Q329.0 379.5 329.0 382.0Q329.0 390.0 327.25 394.75Q325.5 399.5 323.0 399.5Q320.0 399.5 317.0 384.75Q314.0 370.0 312.5 350.0Q309.5 314.5 304.75 299.0Q300.0 283.5 289.5 278.0Q278.0 271.5 278.0 266.0Q278.0 261.0 290.5 259.5H293.5Q294.5 260.5 296.0 260.5L310.0 261.5V230.5Q310.0 202.5 306.0 186.75Q302.0 171.0 296.0 171.0Q291.5 171.0 283.0 188.0Q275.0 201.0 275.0 232.5Q275.0 246.5 272.75 256.75Q270.5 267.0 267.5 267.0Q263.5 267.0 261.5 254.5Q259.5 242.0 259.5 222.0Q259.5 204.0 259.0 195.0Q258.5 186.0 256.5 181.5Q254.5 177.0 249.5 172.5Q244.5 167.5 242.0 163.0Q239.5 158.5 239.5 157.0V156.5Q240.0 155.0 256.25 154.5Q272.5 154.0 294.0 154.0Q311.5 154.0 330.75 154.0Q350.0 154.0 367.25 154.25Q384.5 154.5 396.5 154.75Q408.5 155.0 411.5 155.0Q415.5 156.5 415.5 158.0Q415.5 160.0 411.5 163.25Q407.5 166.5 403.5 169.0Q398.0 173.0 392.75 177.5Q387.5 182.0 386.0 184.5Q384.5 187.0 383.0 197.25Q381.5 207.5 380.5 220.75Q379.5 234.0 379.5 246.0Q379.5 254.5 379.75 261.0Q380.0 267.5 380.5 267.5Q383.5 268.0 383.5 271.0Q382.5 275.0 371.0 278.5Q359.0 282.0 348.0 291.5Q337.0 301.0 332.0 314.0Q330.5 316.5 329.25 319.0Q328.0 321.5 328.0 323.0Q328.0 328.0 334.5 332.5Q341.0 337.0 348.75 340.0Q356.5 343.0 361.0 343.0Q369.5 343.0 384.5 337.75Q399.5 332.5 415.25 324.0Q431.0 315.5 442.5 305.75Q454.0 296.0 455.5 287.0Q456.5 280.0 458.0 275.25Q459.5 270.5 463.0 270.5Q467.0 270.5 473.0 279.0L473.5 280.0Q477.0 283.5 478.0 283.5Q480.0 283.5 487.0 279.5Q500.0 275.5 503.25 268.5Q506.5 261.5 506.5 249.0Q506.5 233.5 509.5 227.0L509.0 227.5L508.0 193.5Q507.0 181.0 505.5 174.75Q504.0 168.5 500.5 164.75Q497.0 161.0 490.0 157.0Q483.5 153.5 476.5 150.75Q469.5 148.0 467.0 148.0Q462.0 148.0 459.0 145.75Q456.0 143.5 456.0 141.0Q456.0 139.0 450.0 135.5Q444.0 132.0 435.5 127.5Q423.0 120.5 412.0 118.25Q401.0 116.0 384.5 116.0Q363.0 116.0 348.25 120.0Q333.5 124.0 332.5 128.5V129.0Q332.5 134.5 331.0 136.5Q329.5 138.5 322.5 138.5Q316.0 138.5 313.5 142.0H314.0Q309.5 146.5 306.5 146.5Q303.5 146.5 301.5 143.0Q299.5 141.5 290.5 140.5Q281.5 139.5 270.25 139.0Q259.0 138.5 250.0 138.25Q241.0 138.0 239.5 138.0Q226.0 138.0 217.5 139.0Q209.0 140.0 202.25 142.25Q195.5 144.5 186.0 149.5Q175.0 154.5 165.25 160.25Q155.5 166.0 152.5 170.0Q148.0 175.0 142.75 177.0Q137.5 179.0 135.0 180.0Q132.0 179.0 130.0 177.75Q128.0 176.5 128.0 173.0Q128.0 169.5 128.5 168.0Q129.5 167.0 129.5 166.5Q129.5 166.0 129.5 166.0Q128.5 166.5 126.5 166.5Q120.0 168.5 112.75 181.0Q105.5 193.5 99.75 212.25Q94.0 231.0 90.25 252.25Q86.5 273.5 86.5 293.5Q86.5 307.0 85.25 316.25Q84.0 325.5 81.5 326.5Q89.0 329.0 100.25 330.25Q111.5 331.5 133.25 332.0Q155.0 332.5 193.0 333.0Q222.5 333.5 246.0 334.75Q269.5 336.0 283.5 338.0Q297.5 340.0 297.5 342.0Q297.5 345.0 272.5 347.0Q247.5 349.0 210.0 349.0Q177.5 349.0 148.75 350.75Q120.0 352.5 92.75 359.5Q65.5 366.5 36.5 383.0Q29.5 386.5 22.75 389.5Q16.0 392.5 14.0 392.5H12.0Q10.0 390.0 10.0 386.0Q10.0 383.0 10.5 378.5Q11.0 374.0 12.5 369.0Q14.5 362.0 15.75 348.5Q17.0 335.0 17.0 322.5Z" fill="black" /></svg>