<svg xmlns="http://www.w3.org/2000/svg" width="1051.5" height="455.0" viewBox="0 0 1051.5 455.0"><path d="M88.5 276.5Q85.0 275.5 77.75 272.75Q70.5 270.0 62.5 266.5L32.5 255.0L31.0 272.5Q31.0 289.0 33.5 289.0Q34.5 289.0 35.75 288.75Q37.0 288.5 39.0 287.5Q43.0 286.0 51.5 283.75Q60.0 281.5 67.0 280.0L70.5 279.0Q75.5 278.0 80.75 277.5Q86.0 277.0 88.5 276.5ZM81.0 348.5 76.5 347.0Q70.5 346.0 59.75 343.25Q49.0 340.5 42.5 338.0Q37.5 337.0 35.5 337.0Q35.0 337.0 35.0 339.5Q35.0 341.0 35.25 342.5Q35.5 344.0 35.5 346.5L36.0 350.5Q36.5 355.5 37.0 360.5Q37.5 365.5 37.5 371.0H38.0Q41.0 370.0 48.25 367.5Q55.5 365.0 63.25 362.0Q71.0 359.0 74.5 357.5Q90.0 351.5 90.0 351.0Q90.0 351.0 87.5 350.5Q85.0 350.0 81.0 348.5ZM267.5 297.0V284.0L195.5 284.5Q143.5 285.0 110.0 289.25Q76.5 293.5 52.5 302.0Q46.5 304.5 42.25 307.25Q38.0 310.0 38.0 311.5Q38.0 321.0 99.5 335.5Q111.0 338.5 128.0 339.75Q145.0 341.0 163.0 341.0Q185.5 341.0 206.25 339.75Q227.0 338.5 241.0 336.0Q255.0 333.5 256.0 330.5L255.5 330.0Q254.5 327.0 254.5 323.0Q254.5 319.5 256.5 316.75Q258.5 314.0 264.0 313.5Q266.5 313.5 267.0 307.75Q267.5 302.0 267.5 297.0ZM481.0 338.0Q468.0 338.0 454.5 339.5Q441.0 340.5 422.75 341.25Q404.5 342.0 382.5 342.0H285.0L289.0 364.5Q291.5 375.5 293.5 384.0Q295.5 392.5 297.0 394.5H298.0Q302.0 394.5 309.0 393.0Q316.0 391.5 324.0 386.5Q331.5 383.0 346.5 378.0Q361.5 373.0 379.75 367.5Q398.0 362.0 415.5 357.5Q420.5 355.5 425.0 354.0Q433.5 352.0 450.75 347.5Q468.0 343.0 481.0 338.0ZM73.0 112.5Q64.5 110.5 55.75 107.75Q47.0 105.0 39.0 101.5Q37.0 101.0 35.75 100.75Q34.5 100.5 33.5 100.5Q31.0 100.5 31.0 113.5Q31.0 127.0 33.5 127.0Q36.5 127.0 50.0 123.0Q52.5 121.5 57.75 120.75Q63.0 120.0 68.0 119.5L78.0 117.0Q80.5 116.5 82.5 116.25Q84.5 116.0 86.5 115.5Q84.0 114.5 80.5 113.75Q77.0 113.0 73.0 112.5ZM87.5 195.0Q86.0 194.5 84.25 194.0Q82.5 193.5 81.0 193.0Q76.0 191.0 70.25 189.25Q64.5 187.5 59.0 185.5L36.5 178.0V210.0L55.5 205.0Q64.0 201.5 74.0 199.5Q78.0 198.5 81.75 197.25Q85.5 196.0 87.5 195.0ZM263.0 151.5 260.0 124.0 194.5 125.0Q166.0 125.5 143.0 126.5Q120.0 127.5 114.5 129.0Q82.0 135.0 65.25 138.5Q48.5 142.0 42.5 144.25Q36.5 146.5 36.5 149.0Q36.5 152.5 46.25 158.25Q56.0 164.0 68.5 169.5Q87.5 177.5 109.75 181.25Q132.0 185.0 154.75 185.75Q177.5 186.5 197.5 186.5Q201.5 187.0 205.5 187.25Q209.5 187.5 212.5 187.5Q232.5 187.5 246.25 186.5Q260.0 185.5 261.5 185.0Q263.0 184.0 263.5 180.0Q264.0 176.0 264.0 172.0Q264.0 167.0 263.75 161.5Q263.5 156.0 263.0 151.5ZM267.5 266.0V208.5L241.0 205.5Q234.0 205.0 225.75 204.75Q217.5 204.5 209.0 204.5Q183.0 204.5 155.5 206.75Q128.0 209.0 103.5 212.75Q79.0 216.5 62.0 221.25Q45.0 226.0 40.5 231.5Q42.0 233.5 49.25 238.0Q56.5 242.5 66.0 248.0Q78.0 253.0 92.0 256.25Q106.0 259.5 127.5 261.0Q149.0 262.5 183.0 264.0ZM362.5 232.5Q361.5 230.0 358.5 226.75Q355.5 223.5 352.0 220.0Q350.5 218.0 349.25 216.5Q348.0 215.0 346.5 213.5L337.0 201.0L328.0 212.0Q320.0 220.0 320.0 221.0Q320.0 221.0 323.25 221.75Q326.5 222.5 330.0 224.5Q337.5 225.5 345.5 228.5Q350.5 229.5 355.0 230.75Q359.5 232.0 362.5 232.5ZM491.0 317.0Q491.0 313.5 480.5 306.25Q470.0 299.0 452.75 290.0Q435.5 281.0 415.0 272.0Q394.5 263.0 374.0 255.25Q353.5 247.5 337.0 242.75Q320.5 238.0 311.0 238.0Q296.5 238.0 291.25 249.25Q286.0 260.5 286.0 285.0V322.5H389.0Q427.5 322.5 449.75 322.0Q472.0 321.5 481.5 320.25Q491.0 319.0 491.0 317.0ZM302.0 63.5H301.5V63.0Q301.0 62.0 295.25 61.25Q289.5 60.5 281.0 60.5H264.0Q266.0 69.5 268.0 78.0Q270.0 86.5 272.0 95.0Q272.0 95.0 272.5 100.75Q273.0 106.5 273.75 114.0Q274.5 121.5 275.75 128.0Q277.0 134.5 278.0 136.0Q280.0 134.0 282.5 125.25Q285.0 116.5 287.0 108.25Q289.0 100.0 289.0 100.0Q301.0 74.0 302.0 63.5ZM394.5 159.5Q394.0 158.5 393.25 157.75Q392.5 157.0 391.5 156.5Q390.0 155.5 388.75 154.0Q387.5 152.5 385.5 151.5Q385.0 150.5 380.5 146.0Q376.0 141.5 375.0 141.0L373.5 139.5Q370.5 134.0 368.5 134.0Q368.0 134.0 366.5 134.75Q365.0 135.5 363.5 136.5Q361.5 137.0 360.0 139.5Q356.5 142.0 352.75 145.5Q349.0 149.0 347.0 151.5Q352.5 153.5 361.5 155.25Q370.5 157.0 379.75 158.25Q389.0 159.5 394.5 159.5ZM522.5 136.5H523.5Q521.0 136.5 514.5 136.75Q508.0 137.0 502.0 137.75Q496.0 138.5 494.5 140.5Q494.0 140.5 494.0 143.5Q494.0 151.0 498.0 168.0L503.0 185.5L512.5 164.5Q515.0 159.0 517.75 152.25Q520.5 145.5 521.0 140.0Q522.5 137.0 522.5 136.5ZM630.5 140.0Q608.5 135.5 589.0 133.0Q569.5 130.5 565.5 130.5Q555.0 130.5 545.0 142.25Q535.0 154.0 527.0 174.25Q519.0 194.5 514.25 219.75Q509.5 245.0 509.5 272.0V318.5Q517.5 318.5 524.75 317.5Q532.0 316.5 539.0 316.0H541.0Q586.0 312.0 630.0 305.25Q674.0 298.5 718.0 292.0L736.0 289.0Q757.5 284.5 781.5 280.5Q805.5 276.5 829.0 272.5Q843.5 270.0 857.75 267.5Q872.0 265.0 884.5 262.5Q916.5 258.5 936.5 254.0Q956.0 251.0 972.5 248.25Q989.0 245.5 998.75 243.5Q1008.5 241.5 1008.5 241.5Q1008.5 239.5 993.75 234.0Q979.0 228.5 953.5 221.0Q928.0 213.5 895.5 204.5Q863.0 195.5 827.0 186.0Q791.0 176.5 755.0 167.75Q719.0 159.0 687.0 151.75Q655.0 144.5 630.5 140.0ZM636.0 111.0Q629.5 107.0 618.75 100.5Q608.0 94.0 596.5 86.25Q585.0 78.5 575.5 72.5L543.5 51.5L530.0 81.0Q525.0 92.0 521.25 102.0Q517.5 112.0 516.5 115.0Q518.0 114.0 522.5 114.0Q525.0 114.0 527.25 114.0Q529.5 114.0 532.5 113.5Q534.0 113.0 536.25 113.0Q538.5 113.0 541.0 113.0Q552.5 113.0 570.5 114.75Q588.5 116.5 608.0 119.0Q627.5 121.5 643.5 124.25Q659.5 127.0 666.0 129.0Q666.5 129.5 668.0 129.5Q664.0 126.0 655.25 121.0Q646.5 116.0 636.0 111.0ZM523.0 31.0Q523.0 22.0 524.75 16.0Q526.5 10.0 529.0 10.0Q530.5 10.0 541.0 18.5Q551.5 27.0 564.0 39.0Q581.0 54.5 607.25 70.75Q633.5 87.0 664.5 102.5Q695.5 118.0 727.75 131.5Q760.0 145.0 789.75 155.5Q819.5 166.0 843.0 172.0Q871.0 179.5 905.25 189.5Q939.5 199.5 967.5 208.5Q1010.5 222.5 1026.0 229.5Q1041.5 236.5 1041.5 242.0Q1041.5 245.5 1039.0 249.0Q1036.0 251.0 1015.5 256.0Q995.0 261.0 961.75 267.75Q928.5 274.5 887.0 281.0Q835.5 289.5 782.5 298.25Q729.5 307.0 681.5 315.25Q633.5 323.5 595.5 330.75Q557.5 338.0 534.5 343.25Q511.5 348.5 509.5 351.0Q506.5 355.5 503.25 356.25Q500.0 357.0 491.5 357.0Q484.5 357.0 468.5 360.5Q452.5 364.0 431.25 370.0Q410.0 376.0 387.5 383.75Q365.0 391.5 344.25 399.75Q323.5 408.0 308.5 416.25Q293.5 424.5 288.0 432.0Q286.0 437.5 282.75 441.25Q279.5 445.0 277.0 445.0Q269.0 445.0 269.0 426.5Q269.0 423.5 269.25 419.0Q269.5 414.5 271.0 410.5Q272.5 399.0 272.5 386.0Q272.5 373.0 271.0 366.5L267.0 351.5L201.5 356.5Q142.0 360.5 101.5 369.25Q61.0 378.0 42.5 391.0Q35.0 396.5 28.25 400.75Q21.5 405.0 21.5 405.0Q13.0 405.0 13.0 197.0Q13.0 185.5 12.75 162.75Q12.5 140.0 10.5 119.5Q10.0 114.0 10.0 108.5Q10.0 103.0 10.0 98.0Q10.0 85.0 11.75 77.0Q13.5 69.0 15.5 69.0L17.0 69.5Q34.5 79.5 49.5 85.75Q64.5 92.0 81.0 95.75Q97.5 99.5 119.0 101.5Q140.5 103.5 170.5 104.5Q186.5 105.0 199.75 105.0Q213.0 105.0 222.5 105.0Q245.0 105.0 250.25 103.5Q255.5 102.0 255.5 97.5Q255.5 93.5 251.5 84.25Q247.5 75.0 242.5 67.0Q237.5 58.5 233.75 51.5Q230.0 44.5 230.0 41.5Q230.0 38.5 232.75 38.0Q235.5 37.5 237.0 37.5Q240.0 37.5 244.75 38.0Q249.5 38.5 255.0 39.5Q257.5 39.5 260.75 39.75Q264.0 40.0 266.5 40.0L268.0 40.5Q277.5 42.5 287.75 43.25Q298.0 44.0 306.0 44.0Q309.0 44.0 311.5 44.0Q314.0 44.0 316.0 43.5Q319.5 42.5 322.5 42.0Q325.5 41.5 327.5 41.5Q336.5 41.5 336.5 48.5Q336.5 51.0 334.25 55.75Q332.0 60.5 327.0 66.0Q321.0 72.5 314.75 86.5Q308.5 100.5 302.75 118.75Q297.0 137.0 293.25 155.75Q289.5 174.5 288.0 190.5L285.0 225.0L309.5 199.5Q335.0 174.5 344.5 174.5Q348.5 174.5 352.5 181.75Q356.5 189.0 356.5 192.0Q357.0 199.5 368.25 211.0Q379.5 222.5 398.5 236.25Q417.5 250.0 441.25 263.5Q465.0 277.0 490.5 288.5Q490.5 286.5 490.75 278.75Q491.0 271.0 491.0 260.0Q491.0 245.0 489.75 236.75Q488.5 228.5 484.75 223.5Q481.0 218.5 474.0 213.5Q459.0 203.0 437.25 193.75Q415.5 184.5 391.5 178.0Q367.5 171.5 346.0 169.5L294.0 165.5L338.0 132.5Q377.0 101.0 382.0 101.0Q387.0 101.0 387.75 104.0Q388.5 107.0 388.5 113.0Q388.5 129.5 405.25 148.0Q422.0 166.5 448.5 178.0Q460.0 183.0 469.75 187.0Q479.5 191.0 484.5 192.0Q484.5 184.5 481.0 173.0Q477.5 161.5 472.75 151.25Q468.0 141.0 463.0 136.5Q453.0 129.0 453.0 122.0Q453.0 114.0 464.5 114.0Q466.0 114.0 468.25 114.0Q470.5 114.0 472.5 115.0L474.5 115.5Q480.5 117.0 485.0 117.0Q491.0 117.0 497.5 106.0Q504.0 95.0 510.0 79.75Q516.0 64.5 519.5 50.75Q523.0 37.0 523.0 31.0Z" fill="black" /></svg>