<svg xmlns="http://www.w3.org/2000/svg" width="885.0" height="462.0" viewBox="0 0 885.0 462.0"><path d="M102.5 259.5 104.0 260.0Q105.0 257.5 106.75 254.0Q108.5 250.5 108.5 250.5Q103.0 252.5 94.25 256.25Q85.5 260.0 78.75 263.0Q72.0 266.0 72.5 266.0Q73.0 267.0 77.0 268.5L81.0 270.0Q83.5 270.5 87.0 271.5Q88.5 272.5 90.0 272.75Q91.5 273.0 92.5 273.0Q99.0 273.0 102.5 259.5ZM262.5 224.5H261.5Q259.0 222.5 249.75 219.5Q240.5 216.5 231.0 214.0Q221.5 211.5 217.0 211.5Q212.5 211.5 207.0 219.0L206.0 221.0Q203.0 226.0 200.5 236.5Q198.0 247.0 196.5 259.0Q195.0 271.0 195.0 280.5Q195.0 284.0 195.0 287.0Q195.0 290.0 195.5 291.5Q199.5 290.5 210.5 285.5Q221.5 280.5 234.5 273.25Q247.5 266.0 257.25 259.75Q267.0 253.5 269.0 250.5H268.0Q256.0 248.0 256.0 242.5Q256.0 239.0 265.5 234.5Q270.0 232.5 270.0 231.0Q270.0 229.5 262.5 224.5ZM250.0 289.5 252.5 285.5Q253.0 284.5 253.5 283.5Q247.5 287.0 241.5 290.25Q235.5 293.5 233.0 295.5Q235.0 296.5 235.5 297.0Q236.5 297.0 237.25 297.25Q238.0 297.5 238.5 297.5Q244.0 297.0 246.0 295.0Q248.0 293.0 250.0 289.5ZM460.5 217.0Q459.0 222.0 458.0 228.5Q457.0 235.0 457.0 242.5V247.5Q458.0 263.0 459.75 267.5Q461.5 272.0 468.5 273.5Q471.0 273.5 471.5 274.0Q472.0 274.0 472.25 274.25Q472.5 274.5 473.0 274.5Q477.5 274.5 477.5 261.5Q477.5 255.5 474.25 246.0Q471.0 236.5 468.0 229.5Q465.5 225.5 463.5 222.25Q461.5 219.0 460.5 217.0ZM170.0 99.5 169.5 96.5Q167.0 89.5 165.0 89.5Q161.5 89.5 154.25 96.0Q147.0 102.5 139.5 111.75Q132.0 121.0 126.5 129.5Q121.0 138.0 120.5 142.0Q128.0 143.5 128.0 154.0V155.5Q128.0 158.5 134.0 160.0Q140.0 161.5 154.5 162.5L180.5 163.5L177.0 137.5Q176.5 127.5 174.5 116.75Q172.5 106.0 170.0 99.5ZM204.5 182.5H164.0V183.5Q166.0 186.5 171.5 186.5H172.5Q176.5 186.5 179.75 189.25Q183.0 192.0 183.0 197.5V199.0Q183.0 201.0 183.0 203.25Q183.0 205.5 182.5 207.0Q182.5 209.0 182.25 210.0Q182.0 211.0 182.0 212.5Q182.0 221.5 182.5 221.5Q187.5 221.5 204.5 182.5ZM268.0 185.0 269.0 183.0Q267.0 184.5 264.5 186.0Q262.0 187.5 259.5 189.0Q253.0 193.5 249.0 196.5Q249.5 196.5 249.75 196.75Q250.0 197.0 250.5 197.0H250.0Q253.0 197.5 256.25 198.25Q259.5 199.0 259.5 199.0Q261.0 196.5 263.25 192.5Q265.5 188.5 268.0 185.0ZM364.5 191.5Q358.0 195.5 349.25 201.75Q340.5 208.0 333.0 213.75Q325.5 219.5 322.0 223.0Q324.0 223.5 324.0 227.5Q324.0 231.5 321.0 236.0Q320.5 236.5 320.0 237.25Q319.5 238.0 319.0 238.5Q319.5 239.0 320.25 239.0Q321.0 239.0 321.5 239.5Q328.0 242.0 333.0 242.0Q339.5 242.0 342.0 231.0Q343.0 224.0 350.0 212.75Q357.0 201.5 364.5 191.5ZM660.5 173.0Q635.5 160.0 607.25 147.25Q579.0 134.5 549.75 126.0Q520.5 117.5 491.0 117.5Q458.0 117.5 440.0 133.0Q435.5 137.0 427.0 146.5Q418.5 156.0 408.5 167.75Q398.5 179.5 389.25 191.5Q380.0 203.5 373.25 213.0Q366.5 222.5 364.5 226.5Q362.5 231.0 360.5 236.0Q358.5 241.0 358.5 246.5Q358.5 267.5 382.0 295.0Q391.0 307.5 398.75 318.5Q406.5 329.5 407.5 334.5Q410.0 341.0 427.5 344.5Q445.0 348.0 470.5 348.0Q492.5 348.0 518.0 345.25Q543.5 342.5 571.0 337.5Q582.5 335.0 605.75 329.25Q629.0 323.5 658.25 315.75Q687.5 308.0 718.25 299.5Q749.0 291.0 776.25 283.5Q803.5 276.0 822.25 270.25Q841.0 264.5 846.0 262.5Q840.5 260.5 823.5 253.5Q806.5 246.5 784.5 236.0Q767.0 227.5 744.0 216.0Q721.0 204.5 698.75 193.0Q676.5 181.5 660.5 173.0ZM104.5 125.5V125.0Q105.5 123.0 106.5 121.5Q107.5 120.0 108.0 118.5Q106.5 119.0 102.5 121.0Q101.5 122.0 99.5 123.0Q97.5 124.0 95.5 125.0L92.0 128.0Q82.0 135.5 82.0 137.0H92.5Q95.5 137.0 99.0 134.0Q102.5 131.0 104.5 125.5ZM194.0 66.0 203.0 56.0H186.5Q187.0 57.0 187.0 59.0Q187.0 63.0 185.0 69.0Q183.0 71.5 182.25 74.0Q181.5 76.5 181.5 77.5V78.5Q183.0 77.5 186.5 74.25Q190.0 71.0 194.0 66.0ZM279.5 76.5H280.0Q280.5 75.5 280.75 75.0Q281.0 74.5 281.5 74.0Q276.5 76.5 270.5 80.5L269.5 81.0Q265.0 84.0 263.0 86.0L265.5 86.5Q267.5 87.0 269.75 87.75Q272.0 88.5 273.5 89.0L274.0 88.0Q275.0 86.5 276.5 83.5Q278.0 80.5 279.5 76.5ZM557.0 106.5 547.5 98.0Q538.0 89.5 528.0 78.75Q518.0 68.0 512.5 60.0L502.5 48.0L489.5 68.0Q483.0 77.5 478.5 86.25Q474.0 95.0 474.0 96.5Q474.0 97.0 482.0 97.75Q490.0 98.5 499.5 99.5Q511.5 99.5 527.75 101.5Q544.0 103.5 552.5 105.5ZM464.0 389.5 499.0 368.0 428.0 364.5 424.5 390.0Q423.5 396.5 422.75 402.5Q422.0 408.5 422.0 415.0Q423.5 414.5 425.75 412.75Q428.0 411.0 431.0 409.0Q437.0 405.5 445.75 400.25Q454.5 395.0 464.0 389.5ZM485.0 299.0 482.0 298.0Q469.5 294.5 462.0 294.5Q453.0 294.5 453.0 298.0Q453.0 300.0 454.5 302.5Q456.0 305.0 457.0 307.5L458.5 308.0Q459.0 309.0 459.5 309.5Q460.0 310.0 460.0 310.0Q464.0 310.0 476.5 303.0Q480.5 301.0 482.75 300.5Q485.0 300.0 486.5 299.5H487.0Q487.0 299.5 486.5 299.25Q486.0 299.0 485.0 299.0ZM472.0 206.0Q472.5 205.5 473.0 204.75Q473.5 204.0 474.0 203.5Q470.0 203.5 468.5 205.0Q469.5 205.0 470.0 205.5Q470.5 205.5 471.0 205.75Q471.5 206.0 472.0 206.0ZM514.5 242.0V241.0Q510.0 231.0 507.0 231.0Q503.0 231.0 500.0 239.25Q497.0 247.5 497.0 261.5Q497.0 274.5 498.5 277.25Q500.0 280.0 508.0 280.0Q516.0 280.0 518.0 278.25Q520.0 276.5 520.0 268.5Q520.0 263.0 518.75 254.75Q517.5 246.5 514.5 242.0ZM538.5 195.5 531.5 185.0 533.0 186.0Q532.0 184.0 530.75 182.25Q529.5 180.5 528.5 178.5Q526.5 176.0 525.5 174.75Q524.5 173.5 524.0 173.0Q523.5 173.5 521.5 175.5Q519.5 177.5 516.0 181.0L505.0 195.5ZM593.0 230.0 587.5 228.0Q578.0 224.5 570.5 222.5Q563.0 220.5 560.0 220.5H558.5Q550.5 221.0 544.75 233.0Q539.0 245.0 539.0 261.0V280.5L562.5 278.5L639.0 268.0L675.5 263.5L654.0 254.0Q650.5 252.5 647.0 251.25Q643.5 250.0 639.5 248.0L632.0 245.0Q621.0 240.5 610.5 236.25Q600.0 232.0 593.0 230.0ZM306.0 34.5Q323.0 22.0 333.75 16.0Q344.5 10.0 347.5 10.0Q350.5 10.0 352.0 10.75Q353.5 11.5 353.5 15.5Q353.5 21.0 322.5 54.5Q295.5 82.5 294.5 90.0H295.5Q303.0 90.0 303.0 96.5Q303.0 97.0 303.0 98.5Q303.0 100.0 302.5 101.0H303.0L301.5 102.0Q302.0 108.0 309.25 114.75Q316.5 121.5 322.0 121.5Q334.0 121.5 337.0 131.75Q340.0 142.0 340.0 151.0Q340.0 156.0 338.0 158.0Q336.0 160.0 333.0 161.0Q329.5 161.0 322.5 156.5Q322.5 155.5 320.0 155.5Q318.0 155.5 311.75 161.25Q305.5 167.0 298.5 175.0Q291.5 183.0 285.75 190.25Q280.0 197.5 279.0 200.5Q283.5 200.5 285.25 202.0Q287.0 203.5 287.0 208.5Q287.0 209.0 287.0 210.25Q287.0 211.5 286.5 213.5Q285.5 214.5 285.25 215.75Q285.0 217.0 285.0 218.0Q290.0 217.0 305.75 207.75Q321.5 198.5 347.0 178.5Q377.5 157.0 398.25 141.0Q419.0 125.0 432.75 111.25Q446.5 97.5 456.25 83.75Q466.0 70.0 474.5 53.5Q484.0 38.0 492.0 27.0Q500.0 16.0 501.0 16.0Q503.5 16.0 510.0 23.75Q516.5 31.5 523.0 41.5Q538.0 63.5 565.75 86.5Q593.5 109.5 639.75 136.75Q686.0 164.0 756.0 198.5Q783.0 212.5 806.0 224.75Q829.0 237.0 843.75 245.25Q858.5 253.5 859.5 255.5L861.5 257.5Q862.0 258.0 862.0 258.0H865.5Q872.0 258.0 875.0 263.0Q875.0 265.5 860.75 271.75Q846.5 278.0 822.25 286.5Q798.0 295.0 767.5 304.75Q737.0 314.5 703.75 324.0Q670.5 333.5 639.0 341.5Q623.0 345.5 604.25 351.25Q585.5 357.0 568.75 362.5Q552.0 368.0 541.5 372.0Q524.0 379.5 505.0 389.25Q486.0 399.0 469.0 409.0Q452.0 419.0 440.25 427.25Q428.5 435.5 424.5 440.5Q417.0 452.0 412.5 452.0Q403.0 452.0 403.0 428.5Q403.0 425.5 403.0 421.75Q403.0 418.0 403.5 414.5Q404.5 403.0 405.5 392.0Q406.5 381.0 406.5 370.0Q406.5 366.0 406.5 363.0Q406.5 360.0 407.0 359.0Q403.5 359.0 398.5 354.25Q393.5 349.5 389.5 343.0Q385.0 333.5 376.25 321.25Q367.5 309.0 357.25 297.75Q347.0 286.5 338.25 278.75Q329.5 271.0 325.0 270.5H321.5Q313.5 270.5 306.5 263.0V263.5Q302.5 258.0 301.5 258.0Q299.5 258.0 294.25 263.25Q289.0 268.5 283.25 276.0Q277.5 283.5 273.5 290.25Q269.5 297.0 269.5 300.0Q269.5 301.5 271.5 301.5Q279.0 301.5 279.0 306.5Q279.0 307.5 277.75 309.5Q276.5 311.5 273.0 313.5V314.0Q273.0 316.0 277.25 321.0Q281.5 326.0 292.0 335.0Q302.0 344.5 308.25 353.75Q314.5 363.0 314.5 366.5L314.0 370.0L310.5 370.5Q307.0 370.5 297.25 364.0Q287.5 357.5 277.5 348.0Q264.5 336.0 255.0 329.5Q245.5 323.0 236.25 319.5Q227.0 316.0 213.0 313.5L201.5 310.5L197.0 358.0Q195.5 381.5 192.0 398.25Q188.5 415.0 186.0 415.0Q182.0 415.0 179.5 392.5Q177.0 370.0 177.0 338.0V327.5Q177.0 297.5 175.25 272.75Q173.5 248.0 170.25 233.5Q167.0 219.0 163.0 219.0Q161.5 219.0 154.75 226.0Q148.0 233.0 140.0 242.75Q132.0 252.5 126.25 261.25Q120.5 270.0 120.5 273.5Q120.5 274.5 121.5 274.5Q129.5 274.5 129.5 280.5Q129.5 284.0 124.5 287.5V290.5Q124.5 293.5 142.5 306.5Q157.5 317.5 167.0 327.75Q176.5 338.0 176.5 343.5Q176.5 351.5 168.0 351.5Q164.5 351.5 159.0 348.25Q153.5 345.0 151.0 340.0Q147.0 333.5 136.5 325.5Q126.0 317.5 112.0 309.5Q98.0 301.5 83.5 295.5Q69.0 289.5 56.5 286.5L10.0 278.0L40.5 263.5Q45.0 261.5 56.0 256.25Q67.0 251.0 81.0 243.5Q95.0 236.0 108.0 229.0L153.5 202.5L141.5 193.0Q118.5 175.0 94.5 162.75Q70.5 150.5 55.5 150.5Q43.0 150.5 35.25 147.75Q27.5 145.0 27.5 141.5Q27.5 137.5 30.75 134.5Q34.0 131.5 38.5 131.5Q40.5 131.5 59.25 122.25Q78.0 113.0 101.0 99.5L153.5 70.0L144.0 62.0Q138.5 58.0 134.5 53.0Q130.5 48.0 130.5 44.5V42.0Q133.5 39.5 148.75 38.25Q164.0 37.0 182.5 37.0Q199.0 37.0 215.25 38.0Q231.5 39.0 242.0 41.0Q252.5 43.0 252.5 46.0Q252.5 50.5 249.0 53.25Q245.5 56.0 240.5 56.0Q235.0 56.0 225.5 64.0Q216.0 72.0 207.5 82.25Q199.0 92.5 197.0 100.5L196.5 104.0Q195.0 110.0 195.0 118.0Q195.0 127.0 196.5 134.5Q197.0 137.0 197.0 140.5L200.5 163.5H219.5Q247.0 163.5 247.0 174.0Q259.5 166.5 269.0 160.5Q278.5 154.5 285.0 150.0Q296.5 143.0 302.0 139.25Q307.5 135.5 307.5 135.5Q307.5 134.0 301.5 129.75Q295.5 125.5 287.0 120.5Q278.5 115.5 270.25 111.25Q262.0 107.0 257.0 106.0Q253.5 105.5 243.75 104.25Q234.0 103.0 225.75 100.25Q217.5 97.5 217.5 93.0Q217.5 89.0 224.25 84.5Q231.0 80.0 243.5 73.5Q257.0 66.5 275.25 55.25Q293.5 44.0 306.0 34.5ZM483.5 191.5Q491.5 181.5 501.0 170.5Q510.5 159.5 519.0 151.5Q527.5 143.5 531.0 143.5Q539.0 143.5 539.0 157.0Q539.0 161.0 544.5 169.0Q550.0 177.0 557.75 185.5Q565.5 194.0 572.75 200.0Q580.0 206.0 583.0 206.0Q584.5 206.0 594.25 209.75Q604.0 213.5 619.0 219.5Q634.0 225.5 650.75 232.5Q667.5 239.5 683.0 246.0Q698.5 252.5 709.25 257.25Q720.0 262.0 722.5 263.5Q724.5 264.5 724.5 268.5Q724.5 273.5 711.25 277.0Q698.0 280.5 668.5 283.0Q589.0 292.5 536.25 304.75Q483.5 317.0 465.5 331.5Q461.5 334.0 456.5 336.75Q451.5 339.5 448.0 339.5Q447.5 339.5 444.5 338.5L443.0 338.0Q441.0 334.0 440.0 315.75Q439.0 297.5 438.0 273.5Q437.5 247.5 436.75 235.25Q436.0 223.0 433.75 217.5Q431.5 212.0 427.0 207.0Q421.0 200.0 418.0 193.75Q415.0 187.5 415.0 183.5Q415.0 179.5 417.5 177.75Q420.0 176.0 423.5 175.0Q425.0 175.0 426.5 175.5Q428.5 175.5 431.75 176.25Q435.0 177.0 436.5 178.0Q442.0 179.0 448.0 180.25Q454.0 181.5 460.0 182.0Q476.0 184.0 483.5 191.5ZM484.5 223.0Q484.5 223.0 484.5 223.0Q484.5 223.0 484.5 223.0ZM526.0 223.0Q526.0 222.5 526.5 222.5Q526.0 223.0 526.0 223.0Q526.0 223.0 526.0 223.0Z" fill="black" /></svg>