<svg xmlns="http://www.w3.org/2000/svg" width="597.5" height="387.5" viewBox="0 0 597.5 387.5"><path d="M135.5 202.0Q125.5 200.5 109.0 196.5Q92.5 192.5 76.25 187.25Q60.0 182.0 50.5 177.5Q50.5 177.0 49.5 177.0Q46.0 177.0 41.0 201.0Q39.0 212.0 36.25 223.0Q33.5 234.0 32.0 238.0L31.5 240.5Q33.5 239.5 37.75 237.75Q42.0 236.0 48.5 233.5Q58.5 229.0 78.0 223.5Q97.5 218.0 115.0 214.5Q131.0 211.0 143.25 208.5Q155.5 206.0 155.5 206.0Q155.5 205.0 149.75 203.75Q144.0 202.5 135.5 202.0ZM196.0 243.5 196.5 243.0Q197.5 240.5 198.75 238.5Q200.0 236.5 200.5 235.0Q196.0 237.0 187.0 241.5Q178.0 246.0 168.75 251.25Q159.5 256.5 153.0 260.75Q146.5 265.0 146.5 266.0Q146.5 267.0 154.0 269.75Q161.5 272.5 170.5 274.75Q179.5 277.0 184.0 277.0Q185.5 277.0 185.5 269.0Q185.5 265.0 188.75 257.25Q192.0 249.5 196.0 243.5ZM230.0 108.5Q233.5 105.0 234.0 104.0Q229.5 106.0 220.75 111.25Q212.0 116.5 202.75 122.75Q193.5 129.0 187.25 134.25Q181.0 139.5 181.0 141.5Q181.0 145.0 202.5 145.0Q210.0 145.0 212.5 142.5Q215.0 140.0 217.0 133.5Q218.0 128.0 222.25 120.75Q226.5 113.5 230.0 108.5ZM255.5 198.5 255.0 198.0V197.5Q253.0 194.5 253.0 194.5Q253.0 195.0 252.75 195.25Q252.5 195.5 252.5 196.5Q252.5 199.5 255.5 199.5ZM431.0 178.0Q433.5 174.0 434.5 170.5Q431.0 172.0 423.5 178.25Q416.0 184.5 409.25 191.0Q402.5 197.5 401.0 200.5Q402.5 201.0 402.5 202.0Q402.0 205.0 392.0 208.5L391.0 209.0Q390.5 209.0 390.0 209.25Q389.5 209.5 388.5 209.5Q394.5 211.5 402.5 213.75Q410.5 216.0 415.0 216.0Q423.0 216.0 423.0 203.0Q423.0 197.5 425.25 190.25Q427.5 183.0 431.0 178.0ZM489.0 83.5Q491.0 79.5 492.5 76.25Q494.0 73.0 494.5 71.0Q491.0 73.0 483.5 78.25Q476.0 83.5 467.75 89.5Q459.5 95.5 453.75 100.25Q448.0 105.0 448.0 107.0Q448.0 109.5 469.0 114.0Q471.5 114.5 473.75 114.75Q476.0 115.0 477.5 115.0Q481.5 115.0 481.5 109.0Q481.5 105.0 483.5 97.5Q485.5 90.0 489.0 83.5ZM529.5 19.0Q529.5 15.0 532.0 12.5Q534.5 10.0 537.0 10.0Q544.0 10.0 544.0 17.5Q544.0 21.5 541.0 27.75Q538.0 34.0 532.5 41.5Q525.0 51.0 516.5 64.75Q508.0 78.5 502.0 90.5Q496.0 102.5 496.0 107.5Q496.0 109.5 497.75 112.0Q499.5 114.5 501.5 115.0Q505.5 116.5 507.75 120.25Q510.0 124.0 510.0 128.0Q511.5 131.5 521.75 139.75Q532.0 148.0 547.0 158.0Q564.0 169.0 575.0 179.25Q586.0 189.5 586.5 194.0Q587.5 198.0 587.5 199.5Q587.5 202.5 584.5 202.5Q582.0 202.5 570.5 192.5Q564.0 186.5 550.5 177.0Q537.0 167.5 522.0 158.25Q507.0 149.0 495.25 142.5Q483.5 136.0 480.5 136.0Q477.0 136.0 470.0 144.75Q463.0 153.5 455.5 166.0Q448.0 178.5 442.75 190.25Q437.5 202.0 437.5 207.5Q437.5 212.0 438.25 215.25Q439.0 218.5 439.5 218.5Q443.0 218.5 445.25 221.5Q447.5 224.5 447.5 228.5Q447.5 230.5 456.75 238.25Q466.0 246.0 479.5 254.5Q492.5 263.0 503.75 271.75Q515.0 280.5 522.25 287.5Q529.5 294.5 530.0 297.0Q529.0 300.5 526.0 300.5Q524.5 300.5 509.5 291.25Q494.5 282.0 475.0 269.5Q440.0 247.0 414.5 235.25Q389.0 223.5 370.0 223.5Q364.0 223.5 357.0 221.5Q350.0 219.5 346.0 217.0Q343.5 214.5 337.0 213.25Q330.5 212.0 323.0 212.0Q313.0 212.0 304.0 213.75Q295.0 215.5 295.0 218.5V219.0Q296.0 222.0 296.0 223.0Q296.0 228.5 290.5 228.5Q284.5 228.5 278.0 220.5Q273.5 213.5 252.5 213.5Q244.0 213.5 239.0 215.25Q234.0 217.0 229.5 222.5Q225.0 228.0 217.0 239.0Q209.0 250.5 204.75 259.0Q200.5 267.5 200.5 273.0Q200.5 277.5 204.0 279.5Q206.0 280.5 207.75 284.5Q209.5 288.5 209.5 292.0Q209.5 295.0 214.0 300.0Q218.5 305.0 225.0 309.5Q238.0 318.5 251.0 331.0Q264.0 343.5 272.75 354.5Q281.5 365.5 281.5 370.5Q281.5 377.5 278.5 377.5Q275.5 377.5 269.0 369.5Q266.5 365.5 257.5 357.25Q248.5 349.0 236.0 338.75Q223.5 328.5 210.5 318.5Q197.5 308.5 186.5 300.75Q175.5 293.0 169.0 290.0Q163.5 287.0 153.75 283.75Q144.0 280.5 135.5 279.5Q110.0 276.5 110.0 269.0Q110.0 263.5 130.0 255.5Q138.0 252.0 151.75 244.75Q165.5 237.5 176.5 231.0L194.5 219.0L170.5 221.0Q144.5 223.0 119.5 228.25Q94.5 233.5 73.5 240.5Q52.5 247.5 39.0 255.0Q25.5 262.5 23.0 269.5Q22.5 272.0 19.75 273.75Q17.0 275.5 15.0 276.0Q14.0 276.0 12.0 275.0Q10.0 273.0 10.0 269.5Q10.0 264.0 12.5 253.75Q15.0 243.5 18.5 233.0Q23.5 215.5 26.5 200.75Q29.5 186.0 29.5 178.0Q29.5 170.0 28.0 170.0Q23.0 170.0 20.5 165.75Q18.0 161.5 18.0 156.5Q18.0 153.0 20.25 147.25Q22.5 141.5 27.0 141.5Q31.5 141.5 38.0 149.5Q44.5 157.5 60.75 164.75Q77.0 172.0 98.75 178.0Q120.5 184.0 143.5 188.5Q166.5 193.0 186.5 195.5Q206.5 198.0 218.5 198.0Q229.5 198.0 231.5 194.5Q237.5 190.0 237.5 187.5Q237.5 183.5 214.5 170.0Q200.5 162.0 189.25 158.75Q178.0 155.5 163.0 155.5Q139.0 155.0 139.0 150.0Q139.0 148.0 144.0 145.0Q163.0 133.0 184.0 119.0Q205.0 105.0 224.25 91.5Q243.5 78.0 257.5 67.5Q271.5 57.0 276.5 52.5Q290.5 39.5 295.5 39.5Q299.5 39.5 299.5 43.5Q299.5 50.5 283.0 69.5Q258.5 94.5 244.25 114.75Q230.0 135.0 230.0 143.5Q230.0 146.0 232.0 146.0Q237.0 146.0 237.0 152.0Q237.0 153.0 237.0 154.5Q237.0 156.0 236.5 157.5Q236.0 157.5 236.0 158.5Q236.0 162.0 241.0 167.75Q246.0 173.5 257.5 182.0L282.5 201.0L376.0 195.5L414.0 167.0Q437.5 150.5 448.75 141.5Q460.0 132.5 460.5 129.0Q459.0 125.5 439.0 123.0Q408.0 119.5 408.0 114.0Q408.0 108.5 427.0 98.0Q440.5 90.5 457.75 78.5Q475.0 66.5 491.5 54.0Q508.0 41.5 518.75 31.75Q529.5 22.0 529.5 19.0Z" fill="black" /></svg>