<svg xmlns="http://www.w3.org/2000/svg" width="524.0" height="460.5" viewBox="0 0 524.0 460.5"><path d="M49.5 181.0Q49.5 178.0 46.5 178.0Q45.5 178.0 43.75 186.5Q42.0 195.0 40.25 207.75Q38.5 220.5 37.25 232.75Q36.0 245.0 36.0 252.5V256.5Q39.0 254.5 45.5 249.75Q52.0 245.0 58.5 239.0L79.5 220.5L66.5 206.5Q59.0 199.5 54.25 192.0Q49.5 184.5 49.5 181.0ZM463.0 332.0Q449.5 311.0 435.5 290.25Q421.5 269.5 406.0 249.5Q405.5 257.5 399.25 268.5Q393.0 279.5 384.25 290.5Q375.5 301.5 367.0 310.5Q358.5 319.5 353.5 324.0Q344.5 333.0 338.0 339.75Q331.5 346.5 329.0 350.5Q345.0 344.5 363.75 340.0Q382.5 335.5 400.25 332.75Q418.0 330.0 431.0 330.0Q433.5 330.0 436.25 330.0Q439.0 330.0 441.0 331.0H443.0Q448.5 331.5 453.0 331.75Q457.5 332.0 460.5 332.0Q461.5 332.0 462.0 332.0Q462.5 332.0 463.0 332.0ZM269.5 41.5Q269.5 41.5 260.0 40.5Q250.5 39.5 237.5 38.5H231.5Q225.0 38.0 219.25 38.0Q213.5 38.0 207.0 38.0Q208.5 42.0 211.75 51.5Q215.0 61.0 219.0 72.5L231.5 109.5L236.0 98.0Q239.5 90.5 246.0 79.25Q252.5 68.0 257.5 60.5Q262.5 54.0 266.0 48.0Q269.5 42.0 269.5 41.5ZM344.0 141.0Q344.0 140.5 338.25 140.25Q332.5 140.0 323.0 140.0H304.0L320.0 173.5L331.0 159.0Q344.0 144.5 344.0 141.0ZM436.0 54.0 443.0 45.5H378.5L394.0 65.5Q409.5 85.5 413.0 85.5Q413.5 85.5 416.0 81.5Q419.0 76.0 425.0 68.25Q431.0 60.5 436.0 54.0ZM175.0 20.0Q175.0 10.0 182.5 10.0Q183.5 10.0 185.5 10.75Q187.5 11.5 191.0 12.5Q194.5 15.0 212.75 17.0Q231.0 19.0 252.5 20.0Q274.5 20.5 290.25 23.25Q306.0 26.0 306.0 29.0Q306.0 31.0 299.5 39.5Q293.0 48.0 283.5 59.5Q271.5 72.5 263.75 85.5Q256.0 98.5 251.0 116.0Q246.0 133.5 242.25 160.75Q238.5 188.0 234.5 229.5Q230.0 275.5 227.0 303.0Q224.0 330.5 221.5 344.25Q219.0 358.0 216.25 362.25Q213.5 366.5 209.0 366.5Q201.5 366.5 201.5 354.5Q201.5 353.0 202.0 350.5Q202.5 348.0 203.0 345.5Q204.0 338.0 206.0 318.5Q208.0 299.0 209.5 278.5L214.5 230.5L164.0 226.5Q153.0 225.5 144.0 225.0Q135.0 224.5 129.0 224.5Q112.5 224.5 95.25 234.75Q78.0 245.0 63.0 259.0Q48.0 273.0 37.5 285.5Q30.5 293.5 23.5 299.5Q16.5 305.5 14.0 306.0Q11.0 306.0 10.0 303.5Q10.0 287.5 12.5 269.75Q15.0 252.0 18.0 235.0L18.5 231.0Q22.0 213.5 24.5 196.25Q27.0 179.0 28.75 165.25Q30.5 151.5 30.5 145.5Q30.5 120.0 39.0 120.0Q43.0 120.0 48.25 127.75Q53.5 135.5 58.0 150.5Q63.5 168.5 69.25 179.0Q75.0 189.5 84.75 195.0Q94.5 200.5 110.75 202.5Q127.0 204.5 153.0 205.5L216.0 206.5L217.5 176.0V172.0Q217.0 158.5 213.5 138.0Q210.0 117.5 204.5 96.0Q199.0 74.5 193.5 58.0Q188.0 41.5 183.5 37.0Q180.0 34.5 177.5 29.25Q175.0 24.0 175.0 20.0ZM273.0 124.0V122.5L273.5 121.5Q277.0 119.5 289.0 119.5Q299.5 119.5 314.75 120.25Q330.0 121.0 345.0 122.5Q360.0 124.0 370.75 125.75Q381.5 127.5 383.5 129.0Q385.0 130.5 385.0 133.5Q385.0 136.0 380.25 141.0Q375.5 146.0 369.0 149.0Q350.5 161.5 341.25 186.75Q332.0 212.0 328.0 258.5Q326.0 284.5 322.5 303.5Q319.0 322.5 315.0 322.5Q311.5 322.5 309.5 309.75Q307.5 297.0 307.5 277.0V266.0Q308.0 263.5 308.0 260.75Q308.0 258.0 308.0 254.5Q308.5 244.5 308.5 236.0Q308.5 227.5 308.5 221.0Q308.5 205.5 307.0 196.0Q305.5 186.5 301.5 178.5Q297.5 170.5 290.5 159.0Q283.0 146.5 278.0 136.25Q273.0 126.0 273.0 124.0ZM339.0 31.5Q339.0 29.0 361.75 26.75Q384.5 24.5 417.0 24.5Q438.0 24.5 455.75 25.5Q473.5 26.5 484.25 28.25Q495.0 30.0 495.0 32.0Q495.0 34.0 489.75 39.25Q484.5 44.5 477.0 48.5Q469.0 52.0 460.25 59.5Q451.5 67.0 445.0 74.0Q438.0 81.0 434.75 89.5Q431.5 98.0 430.25 115.25Q429.0 132.5 427.5 167.0L425.5 247.0L469.0 306.5Q491.0 337.0 502.5 356.0Q514.0 375.0 514.0 379.5Q514.0 384.0 509.5 384.0Q507.5 384.0 503.75 381.0Q500.0 378.0 495.0 374.0Q466.5 348.0 424.0 348.0Q413.0 348.0 401.0 349.5Q389.0 351.0 377.0 354.5Q367.5 357.0 349.0 364.5Q330.5 372.0 307.75 382.25Q285.0 392.5 262.0 403.5Q239.0 414.5 220.0 424.0Q201.0 433.5 191.0 440.0Q174.0 450.5 166.5 450.5Q162.0 450.5 160.0 447.5Q159.0 445.5 159.0 443.5Q159.0 440.0 164.25 434.75Q169.5 429.5 177.0 425.0Q214.0 405.0 249.25 380.75Q284.5 356.5 314.0 331.75Q343.5 307.0 363.25 285.0Q383.0 263.0 389.0 247.0Q392.0 236.5 395.75 226.75Q399.5 217.0 402.5 213.5Q404.5 211.0 406.25 197.0Q408.0 183.0 408.0 165.5Q408.0 147.0 406.75 135.75Q405.5 124.5 401.5 115.25Q397.5 106.0 390.0 94.5Q383.5 83.5 373.0 71.0Q362.5 58.5 355.5 52.5Q353.5 50.5 352.25 49.0Q351.0 47.5 349.5 45.5Q345.0 41.0 342.0 37.0Q339.0 33.0 339.0 31.5Z" fill="black" /></svg>