<svg xmlns="http://www.w3.org/2000/svg" width="583.0" height="462.0" viewBox="0 0 583.0 462.0"><path d="M63.5 191.5 62.5 191.0Q51.5 183.0 49.5 183.0Q48.0 183.0 48.0 196.0Q48.0 203.0 46.0 214.25Q44.0 225.5 42.0 234.0Q40.0 239.5 38.5 244.5Q37.0 249.5 36.0 253.0Q41.0 252.0 53.25 249.5Q65.5 247.0 79.5 243.5Q98.5 238.0 118.75 233.5Q139.0 229.0 148.5 227.5Q170.5 223.5 170.5 223.5Q170.5 222.0 147.5 219.5Q121.5 217.0 100.0 209.5Q78.5 202.0 63.5 191.5ZM260.5 111.5Q256.5 110.0 245.25 109.0Q234.0 108.0 225.0 108.0Q221.5 108.0 220.0 107.5Q221.5 110.5 225.75 120.0Q230.0 129.5 234.75 138.25Q239.5 147.0 240.5 148.5Q240.5 148.5 240.75 147.75Q241.0 147.0 241.0 146.5V147.5Q242.5 143.5 246.5 136.25Q250.5 129.0 254.5 122.5L255.0 120.5Q256.0 119.0 257.0 117.25Q258.0 115.5 259.0 114.0Q260.0 112.0 260.5 111.5ZM482.0 179.5Q456.0 160.5 438.5 148.75Q421.0 137.0 405.0 130.25Q389.0 123.5 368.75 119.5Q348.5 115.5 317.5 111.5L282.0 108.5L268.5 129.5Q258.5 146.0 254.75 166.0Q251.0 186.0 251.0 205.5V208.0Q254.0 211.0 312.0 211.0Q326.5 211.0 343.5 211.0Q360.5 211.0 380.5 210.5H384.5Q402.0 209.5 418.25 209.0Q434.5 208.5 448.0 208.5Q476.0 208.5 493.25 210.25Q510.5 212.0 511.0 214.5Q510.5 217.0 499.5 219.5Q488.5 222.0 473.5 222.0Q463.5 222.0 442.25 222.75Q421.0 223.5 394.75 224.25Q368.5 225.0 343.0 226.0L251.0 228.5V320.5L279.5 319.5Q302.0 319.0 320.75 315.5Q339.5 312.0 361.75 303.5Q384.0 295.0 416.5 279.0Q433.0 271.5 451.5 263.75Q470.0 256.0 486.25 249.0Q502.5 242.0 512.0 238.0Q525.5 233.0 535.0 229.75Q544.5 226.5 544.5 226.5Q540.0 223.5 522.25 210.0Q504.5 196.5 482.0 179.5ZM374.0 59.5Q374.0 55.0 373.5 51.0Q373.0 47.0 372.0 45.0Q367.5 48.0 359.25 55.0Q351.0 62.0 342.5 70.25Q334.0 78.5 327.75 85.75Q321.5 93.0 320.0 96.5Q321.5 97.5 326.5 98.25Q331.5 99.0 337.0 99.0Q344.0 99.0 354.75 100.75Q365.5 102.5 373.0 105.5Q378.5 106.5 384.0 107.5Q389.5 108.5 392.5 108.5Q391.5 102.5 385.0 93.5Q380.0 85.5 377.0 75.75Q374.0 66.0 374.0 59.5ZM315.0 333.0 288.5 334.5H278.5Q264.5 334.5 251.5 333.5Q238.5 332.5 231.5 331.5Q227.0 330.5 222.75 329.75Q218.5 329.0 214.5 329.0Q214.5 330.0 214.75 331.5Q215.0 333.0 215.5 335.0Q217.5 342.0 221.25 353.75Q225.0 365.5 229.25 377.25Q233.5 389.0 237.0 397.25Q240.5 405.5 241.0 405.5Q241.0 405.5 242.25 403.75Q243.5 402.0 245.5 399.5Q248.0 396.5 249.0 393.5L252.0 390.0Q256.0 382.0 268.75 370.5Q281.5 359.0 293.5 349.5ZM292.5 95.5 333.5 54.5Q352.0 35.5 366.25 22.75Q380.5 10.0 382.0 10.0Q384.5 10.0 386.5 19.5Q388.5 29.0 388.5 41.5Q388.5 53.0 390.75 65.25Q393.0 77.5 396.5 83.0Q402.0 95.0 437.5 124.25Q473.0 153.5 529.0 195.0L573.0 227.5L553.0 238.0Q550.5 238.5 547.0 240.0Q543.5 241.5 539.0 244.0L537.0 245.0Q518.5 252.0 490.0 263.5Q461.5 275.0 429.0 290.25Q396.5 305.5 364.75 323.25Q333.0 341.0 306.5 360.25Q280.0 379.5 264.25 399.25Q248.5 419.0 248.5 438.0Q248.5 452.0 243.5 452.0Q240.0 452.0 235.25 442.75Q230.5 433.5 225.5 417.0Q222.5 404.0 216.75 386.75Q211.0 369.5 205.5 358.0Q200.5 345.0 197.5 336.25Q194.5 327.5 194.5 323.0Q194.5 315.0 208.5 314.0H211.5Q213.0 314.5 215.5 314.5L231.0 316.5L233.5 230.0L205.0 233.0Q192.0 235.0 172.75 238.5Q153.5 242.0 132.25 246.75Q111.0 251.5 91.5 256.5Q72.0 261.5 57.5 265.75Q43.0 270.0 38.0 272.5Q27.5 278.5 19.5 278.5Q10.0 278.5 10.0 271.0Q10.0 270.0 12.5 264.0Q21.5 253.5 25.5 238.25Q29.5 223.0 30.5 206.25Q31.5 189.5 31.5 176.0L27.0 138.0L51.5 160.5Q65.5 174.0 81.25 183.0Q97.0 192.0 119.25 197.5Q141.5 203.0 174.0 206.5Q188.5 208.0 203.5 209.25Q218.5 210.5 233.0 210.5Q235.0 207.0 235.0 201.0Q235.0 191.5 231.0 176.75Q227.0 162.0 220.25 146.25Q213.5 130.5 205.0 117.5Q200.5 110.0 197.0 103.0Q193.5 96.0 193.5 95.0Q193.5 91.0 206.5 91.0Q212.5 91.0 221.5 91.25Q230.5 91.5 241.0 91.5Z" fill="black" /></svg>