<svg xmlns="http://www.w3.org/2000/svg" width="371.0" height="344.0" viewBox="0 0 371.0 344.0"><path d="M63.5 160.0Q60.5 158.0 54.5 153.25Q48.5 148.5 42.0 143.5L24.5 129.0V159.0Q24.5 173.0 25.5 182.75Q26.5 192.5 27.5 192.5Q29.0 192.5 29.0 190.0Q29.0 188.5 35.5 182.75Q42.0 177.0 50.5 172.0Q66.0 163.0 66.0 161.5Q66.0 161.0 63.5 160.0ZM81.5 244.0Q81.5 240.5 80.5 240.5Q78.0 240.5 73.0 245.5Q72.5 246.0 72.25 246.5Q72.0 247.0 71.5 247.5Q70.5 249.5 70.5 249.5Q70.5 250.0 72.0 251.5Q74.0 252.5 75.0 252.5Q77.5 252.5 79.5 249.75Q81.5 247.0 81.5 244.0ZM137.0 174.5V174.0Q136.5 167.0 133.75 165.25Q131.0 163.5 119.0 162.5Q117.0 162.0 114.5 162.0Q112.0 162.0 110.0 162.0Q100.0 162.0 97.0 164.0Q96.5 165.5 95.5 173.0Q94.5 180.5 94.5 189.5L95.0 207.5L99.0 202.5Q108.0 192.5 113.5 192.5Q118.0 192.5 118.0 197.5Q118.0 202.0 114.5 209.5Q112.0 214.0 110.75 217.0Q109.5 220.0 109.0 221.5Q120.5 218.5 129.0 206.75Q137.5 195.0 137.5 183.5Q137.5 181.0 137.5 178.75Q137.5 176.5 137.0 174.5ZM135.0 249.0Q133.0 246.0 124.0 243.75Q115.0 241.5 108.0 241.5Q102.5 241.5 101.0 243.0V246.0Q101.0 249.5 102.5 253.5Q104.0 257.5 106.0 257.5Q112.5 257.5 112.5 265.5Q112.5 267.5 117.75 272.25Q123.0 277.0 129.0 280.75Q135.0 284.5 138.0 284.5V274.0Q138.0 267.0 137.0 259.75Q136.0 252.5 135.0 249.0ZM138.5 225.5Q138.5 218.5 136.5 218.5Q134.5 218.5 129.75 223.0Q125.0 227.5 125.0 230.0Q125.0 232.0 131.5 232.0Q138.5 232.0 138.5 225.5ZM98.5 65.5H86.0Q74.0 65.5 74.0 71.0Q74.0 77.5 79.5 93.0L81.5 98.0Q82.5 100.5 82.75 102.25Q83.0 104.0 83.5 105.0L84.0 104.0Q86.0 100.5 88.25 93.75Q90.5 87.0 92.5 80.5Q95.0 76.0 96.5 71.75Q98.0 67.5 98.5 65.5ZM122.0 92.5Q120.0 84.0 117.75 77.0Q115.5 70.0 115.0 70.0Q112.0 70.0 108.0 79.25Q104.0 88.5 100.75 101.25Q97.5 114.0 96.0 125.5L93.0 148.5H103.5Q109.0 148.5 116.25 149.5Q123.5 150.5 127.5 151.5L129.5 152.0Q130.5 152.0 131.5 152.25Q132.5 152.5 133.0 152.5Q133.0 152.5 133.25 152.0Q133.5 151.5 133.5 150.5Q133.5 146.0 132.0 137.0Q131.0 130.0 128.0 116.75Q125.0 103.5 122.0 92.5ZM156.0 65.5H143.0Q130.5 65.5 130.5 71.0Q130.5 77.5 136.0 93.0L138.0 98.0Q139.0 102.5 139.25 103.75Q139.5 105.0 140.0 105.0L140.5 104.0Q141.0 102.5 143.0 98.5L144.0 96.0Q145.0 94.0 145.75 92.0Q146.5 90.0 147.0 88.5Q148.0 86.0 148.75 84.25Q149.5 82.5 150.0 80.5Q152.0 76.0 153.75 71.75Q155.5 67.5 156.0 65.5ZM201.0 143.0V142.0Q202.0 141.0 202.5 139.5Q203.0 138.0 203.5 137.5Q200.5 138.0 194.5 143.5L189.0 148.0Q191.0 148.0 191.5 148.5Q199.0 147.5 201.0 143.0ZM244.5 125.0Q245.0 122.0 245.25 120.0Q245.5 118.0 246.0 116.0Q243.0 117.5 237.0 122.25Q231.0 127.0 231.0 128.5Q231.0 129.0 231.5 129.25Q232.0 129.5 232.5 130.5L234.0 132.0Q234.5 132.5 237.25 133.5Q240.0 134.5 240.5 134.5Q242.0 134.5 244.5 125.0ZM281.0 123.5 268.0 103.0Q267.0 105.5 265.5 108.5Q264.0 111.5 262.5 114.5L261.5 118.5Q259.5 123.5 258.5 127.25Q257.5 131.0 257.5 134.0Q257.5 139.0 261.0 143.0Q263.5 147.5 270.0 155.25Q276.5 163.0 284.25 171.5Q292.0 180.0 298.75 186.75Q305.5 193.5 309.0 195.5Q308.0 189.0 303.5 175.5Q299.0 162.0 292.75 147.5Q286.5 133.0 281.0 123.5ZM334.0 115.0Q332.5 115.0 330.0 114.75Q327.5 114.5 324.0 114.5L313.5 113.5Q305.0 113.5 298.25 113.25Q291.5 113.0 291.5 113.0Q292.5 116.5 296.75 125.25Q301.0 134.0 306.0 143.5Q311.0 153.0 314.0 158.0Q317.5 146.5 324.5 135.0Q331.0 122.0 334.0 115.0ZM332.0 31.0H324.5Q320.0 31.0 313.75 30.0Q307.5 29.0 303.5 28.5Q302.0 27.5 300.5 27.5Q299.0 27.5 298.0 27.5Q297.5 27.5 296.75 27.75Q296.0 28.0 296.0 28.0Q296.0 29.5 298.75 36.75Q301.5 44.0 306.0 51.5L313.5 69.5L322.0 50.5ZM273.5 16.5Q273.5 11.0 279.0 10.0Q280.0 10.0 281.0 10.25Q282.0 10.5 282.5 10.5Q283.5 11.0 284.5 11.0Q285.5 11.0 286.0 11.5Q290.5 13.0 302.0 14.0Q313.5 15.0 325.5 15.0Q357.0 15.0 357.0 23.5Q357.0 28.5 347.5 37.0Q337.5 45.5 332.25 57.5Q327.0 69.5 325.5 85.0L324.0 102.5L340.5 101.0Q343.0 101.0 344.0 100.5H347.0Q361.0 100.5 361.0 107.0Q361.0 109.0 358.25 112.5Q355.5 116.0 351.5 120.0Q344.0 127.0 339.25 135.0Q334.5 143.0 331.5 156.25Q328.5 169.5 327.0 191.5Q325.5 213.5 324.0 248.5Q321.0 334.0 314.0 334.0Q312.0 334.0 310.5 317.75Q309.0 301.5 309.0 267.0Q309.0 244.0 308.75 227.5Q308.5 211.0 308.0 211.0Q306.0 211.0 294.5 201.0Q283.0 191.0 268.5 177.0Q231.0 141.0 220.5 141.0Q213.5 141.0 213.5 148.5Q213.5 155.0 221.25 167.25Q229.0 179.5 243.0 196.0Q253.0 207.0 259.75 216.75Q266.5 226.5 266.5 229.5V230.5L266.0 231.0Q265.0 233.5 263.0 233.5Q261.0 233.5 255.5 229.0Q250.0 224.5 244.5 218.0Q238.5 211.0 227.0 200.0Q215.5 189.0 205.5 181.0Q191.5 169.5 184.0 165.5Q176.5 161.5 166.0 161.5Q155.5 161.5 153.75 163.5Q152.0 165.5 152.0 175.5V186.5L157.0 180.0Q164.0 171.5 168.5 171.5Q172.0 171.5 172.0 176.5Q172.0 179.5 170.25 185.25Q168.5 191.0 165.5 199.0Q162.0 207.5 159.0 216.75Q156.0 226.0 156.0 228.5Q156.0 235.0 166.25 245.0Q176.5 255.0 200.5 271.5Q210.5 278.5 218.25 285.5Q226.0 292.5 226.0 295.0Q226.0 301.5 221.5 301.5Q217.0 301.5 200.5 288.5Q195.0 283.5 185.75 277.25Q176.5 271.0 169.5 266.0L152.0 255.0V275.0Q152.0 288.5 153.25 294.0Q154.5 299.5 159.5 302.5Q163.5 305.0 166.5 309.5Q169.5 314.0 169.5 316.5Q169.5 322.0 165.0 322.0Q161.5 322.0 157.0 318.0Q151.0 310.0 145.5 310.0Q143.5 310.0 140.5 308.0Q137.5 306.0 136.0 303.0Q134.0 300.5 128.25 296.25Q122.5 292.0 115.25 287.0Q108.0 282.0 102.25 278.75Q96.5 275.5 95.0 275.5Q95.0 275.5 94.75 280.0Q94.5 284.5 94.5 290.5Q94.5 298.5 93.0 304.25Q91.5 310.0 88.5 310.0Q85.5 310.0 83.5 304.25Q81.5 298.5 81.5 289.0Q81.5 274.0 77.25 268.0Q73.0 262.0 62.0 262.0Q45.0 262.0 45.0 254.0Q45.0 249.0 54.5 242.5Q65.5 235.0 71.25 229.25Q77.0 223.5 79.25 215.5Q81.5 207.5 81.5 195.0Q81.5 185.0 81.25 177.75Q81.0 170.5 81.0 170.5Q78.5 170.5 69.75 176.0Q61.0 181.5 50.75 189.25Q40.5 197.0 32.5 204.0Q26.0 210.5 20.25 214.5Q14.5 218.5 12.5 218.5L11.0 218.0Q10.0 217.0 10.0 209.0Q10.0 181.0 11.5 153.5L13.5 85.0L32.0 112.5Q41.0 126.5 54.25 137.5Q67.5 148.5 74.5 148.5Q75.0 148.5 75.5 148.25Q76.0 148.0 76.0 148.0V146.5Q76.0 137.0 72.5 120.5Q69.0 104.0 64.5 87.5Q60.0 71.0 57.0 61.5Q56.5 60.0 56.5 58.0Q56.5 54.0 61.0 52.75Q65.5 51.5 80.5 51.5Q86.0 51.5 100.5 51.75Q115.0 52.0 131.25 52.25Q147.5 52.5 159.75 53.25Q172.0 54.0 173.5 55.5V57.5Q173.5 59.5 171.25 66.0Q169.0 72.5 165.5 80.5Q161.5 89.0 157.5 102.5Q153.5 116.0 152.5 127.5L150.5 151.0L165.0 144.0Q172.5 141.0 184.75 132.5Q197.0 124.0 206.5 116.0Q225.0 100.5 231.5 100.5Q234.5 100.5 235.5 104.0Q240.5 103.0 253.0 91.5Q270.0 79.5 274.5 78.5Q278.0 79.0 278.0 82.5Q278.0 90.0 273.0 93.5Q272.5 94.5 271.5 96.25Q270.5 98.0 269.0 100.5H291.0Q298.0 100.5 303.5 100.25Q309.0 100.0 309.0 100.0Q309.0 98.0 305.75 89.75Q302.5 81.5 298.0 70.75Q293.5 60.0 289.0 50.5Q284.5 41.0 282.0 36.5Q273.5 23.5 273.5 16.5Z" fill="black" /></svg>