<svg xmlns="http://www.w3.org/2000/svg" width="592.0" height="464.5" viewBox="0 0 592.0 464.5"><path d="M518.0 330.0Q517.5 326.5 514.0 317.25Q510.5 308.0 505.75 297.0Q501.0 286.0 496.5 276.75Q492.0 267.5 489.5 264.5Q482.0 265.5 464.0 278.0Q457.0 283.5 445.25 291.25Q433.5 299.0 420.25 306.75Q407.0 314.5 395.0 321.0Q384.0 325.5 375.25 329.75Q366.5 334.0 361.0 337.0Q368.5 336.5 380.0 335.25Q391.5 334.0 404.0 332.0Q419.5 329.5 438.0 328.25Q456.5 327.0 470.5 327.0Q476.0 327.0 481.0 327.25Q486.0 327.5 489.0 328.5Q495.5 329.0 501.25 329.0Q507.0 329.0 510.5 329.0Q515.0 329.0 518.0 330.0ZM129.5 168.0Q132.0 162.5 134.0 158.0Q136.0 153.5 137.5 150.0Q132.5 155.0 122.75 164.5Q113.0 174.0 101.5 186.0Q73.5 214.0 67.0 224.5Q73.0 224.5 83.0 227.0Q89.5 228.0 97.25 229.25Q105.0 230.5 111.0 230.5Q114.5 230.5 115.0 227.5Q115.5 224.5 115.5 216.5Q115.5 208.0 119.25 193.75Q123.0 179.5 129.5 168.0ZM288.5 43.0V40.5Q288.5 39.0 284.0 37.75Q279.5 36.5 268.5 36.0Q265.0 35.0 261.75 35.0Q258.5 35.0 256.0 35.0Q248.0 35.0 246.0 34.5Q246.5 37.5 248.75 47.5Q251.0 57.5 255.0 69.0Q255.5 71.0 256.0 74.0Q256.5 77.0 257.0 79.5Q258.5 81.5 258.5 84.5Q262.0 96.5 264.5 109.0Q267.0 121.5 268.0 128.5Q268.5 129.5 268.5 130.75Q268.5 132.0 269.0 133.0Q270.0 129.0 271.25 123.25Q272.5 117.5 274.5 111.0L276.0 103.5Q278.0 93.0 280.5 82.5Q283.0 72.0 284.5 64.0Q288.5 47.0 288.5 43.0ZM395.5 95.0H396.0Q396.0 92.0 379.0 92.0Q362.5 92.0 362.5 95.0Q362.5 95.0 362.75 95.5Q363.0 96.0 363.5 96.5Q365.5 101.5 367.75 112.0Q370.0 122.5 371.5 131.5Q372.5 139.0 374.25 144.5Q376.0 150.0 376.5 150.0Q378.0 150.0 383.5 131.5L386.5 123.0Q388.0 118.0 389.75 113.0Q391.5 108.0 392.5 104.5Q393.5 101.5 394.25 99.0Q395.0 96.5 395.5 95.0ZM519.0 46.0H520.0Q510.0 41.5 496.0 41.5H488.0Q488.5 44.5 490.75 53.0Q493.0 61.5 496.0 71.5Q499.0 81.5 501.5 90.0Q504.0 98.5 505.5 101.5Q507.5 94.0 514.5 76.5Q518.5 66.5 520.75 60.75Q523.0 55.0 523.0 52.0Q523.0 49.5 521.75 48.25Q520.5 47.0 519.0 46.0ZM184.5 66.5Q191.5 55.5 197.5 50.75Q203.5 46.0 206.5 46.0Q212.5 46.0 212.5 52.5Q212.5 55.5 209.75 63.0Q207.0 70.5 200.0 80.0Q195.5 87.0 186.0 104.75Q176.5 122.5 166.5 141.5L162.5 149.5Q150.0 172.5 143.25 189.75Q136.5 207.0 136.5 217.0Q136.5 223.0 140.0 227.5V227.0Q144.0 229.5 146.75 235.25Q149.5 241.0 149.5 246.5Q149.5 251.0 159.0 260.0Q168.5 269.0 181.0 278.5Q200.0 291.5 216.0 305.5Q232.0 319.5 241.75 330.25Q251.5 341.0 251.5 346.0Q251.5 350.0 247.5 350.5H248.0L245.0 352.0Q241.5 352.0 230.75 344.75Q220.0 337.5 208.0 326.5Q188.5 308.0 164.25 290.25Q140.0 272.5 113.25 260.25Q86.5 248.0 58.5 246.5L10.0 243.5L91.0 164.0Q111.0 145.0 130.0 125.0Q149.0 105.0 163.75 89.0Q178.5 73.0 184.5 66.5ZM268.5 11.5Q277.5 11.0 285.0 11.0Q292.5 11.0 299.0 10.5Q306.0 10.0 311.75 10.0Q317.5 10.0 321.5 10.0Q340.5 10.0 345.75 12.25Q351.0 14.5 352.5 21.0V23.0Q352.5 29.0 348.25 31.75Q344.0 34.5 334.0 34.5Q312.0 34.5 297.0 99.0Q295.0 110.0 292.5 133.5Q290.0 157.0 287.75 186.25Q285.5 215.5 283.5 245.5Q281.5 275.5 280.25 300.5Q279.0 325.5 279.0 340.0V350.0Q281.5 349.5 290.25 346.25Q299.0 343.0 308.25 339.0Q317.5 335.0 320.5 333.5L361.0 314.5L364.0 256.0Q364.0 232.5 362.5 205.5Q361.0 178.5 355.75 152.25Q350.5 126.0 340.0 105.0Q334.5 96.0 330.5 88.0Q326.5 80.0 326.5 77.5Q326.5 76.5 344.25 73.5Q362.0 70.5 388.0 70.5Q415.5 70.5 433.0 73.25Q450.5 76.0 450.5 81.5Q450.5 85.5 445.0 88.75Q439.5 92.0 432.5 92.0Q420.0 92.0 409.0 123.0Q398.0 154.0 389.5 211.5L388.5 216.5Q388.0 224.5 386.75 231.5Q385.5 238.5 384.5 245.0Q382.5 259.5 381.5 269.75Q380.5 280.0 380.5 287.0Q380.5 300.0 384.0 300.0Q389.5 300.0 399.25 294.5Q409.0 289.0 424.0 279.5Q447.0 265.5 460.5 255.5Q474.0 245.5 481.0 235.5Q488.0 225.5 490.25 213.0Q492.5 200.5 492.5 181.0Q492.5 155.0 488.5 128.75Q484.5 102.5 478.25 82.0Q472.0 61.5 465.5 54.5Q460.0 48.0 457.75 43.0Q455.5 38.0 455.5 34.5Q455.5 27.5 462.5 25.0Q469.5 22.5 486.5 22.5Q492.5 22.5 500.75 22.5Q509.0 22.5 517.0 23.5Q548.5 24.5 565.25 27.25Q582.0 30.0 582.0 34.5Q582.0 41.5 565.5 45.0Q555.5 47.0 547.25 60.0Q539.0 73.0 532.75 91.5Q526.5 110.0 522.5 130.25Q518.5 150.5 516.25 168.0Q514.0 185.5 514.0 196.0Q514.0 203.5 515.0 203.5Q517.0 203.5 518.0 203.0Q522.5 201.0 525.5 201.0Q532.0 201.0 532.0 207.5Q532.0 209.0 530.5 211.5Q530.5 212.0 529.5 215.0L529.0 217.5Q527.0 224.0 525.0 234.0Q523.0 244.0 522.0 254.0Q521.5 257.5 521.25 260.75Q521.0 264.0 521.0 266.5Q521.0 279.0 526.0 292.0Q531.0 305.0 545.0 329.0Q554.5 348.0 560.25 363.5Q566.0 379.0 566.0 383.0Q566.0 387.0 562.5 389.5H560.0Q556.5 389.5 551.75 386.25Q547.0 383.0 544.5 378.0Q528.5 348.5 464.5 348.5Q447.5 348.5 425.5 351.0Q403.5 353.5 380.0 357.5Q356.0 362.5 324.0 371.25Q292.0 380.0 258.25 390.75Q224.5 401.5 194.25 412.75Q164.0 424.0 142.0 434.0Q120.0 444.0 112.0 450.5Q109.5 452.5 107.25 453.25Q105.0 454.0 103.5 454.5Q97.5 454.0 95.0 448.5Q92.5 446.0 91.75 443.0Q91.0 440.0 91.0 438.0Q91.0 437.0 91.0 435.75Q91.0 434.5 91.5 432.5Q95.0 432.5 106.0 427.0Q108.5 426.0 112.25 424.25Q116.0 422.5 119.5 421.5Q128.5 417.5 139.75 412.75Q151.0 408.0 163.0 403.0Q166.5 402.0 170.0 400.25Q173.5 398.5 177.0 397.0L256.0 365.0V270.5Q256.0 232.0 253.25 195.5Q250.5 159.0 246.0 128.25Q241.5 97.5 235.5 76.25Q229.5 55.0 223.0 47.0Q212.5 35.0 212.5 28.0Q212.5 19.5 225.25 16.0Q238.0 12.5 268.5 11.5Z" fill="black" /></svg>