<svg xmlns="http://www.w3.org/2000/svg" width="330.5" height="390.5" viewBox="0 0 330.5 390.5"><path d="M68.0 302.5 60.0 298.0V346.0Q65.5 342.0 78.25 337.75Q91.0 333.5 99.0 331.5L103.5 330.5Q110.5 328.5 116.25 327.0Q122.0 325.5 125.0 325.0Q121.5 323.5 116.0 321.25Q110.5 319.0 105.0 317.5Q95.5 315.0 84.5 310.5Q73.5 306.0 68.0 302.5ZM39.5 62.5 27.5 56.0V105.0L35.0 100.0Q40.5 96.0 51.5 92.5Q62.5 89.0 71.5 87.0Q76.5 85.5 82.5 84.25Q88.5 83.0 88.5 83.0Q76.0 79.0 63.5 74.0Q51.0 69.0 39.5 62.5ZM123.5 147.5H107.5L111.5 153.0Q120.0 164.5 122.5 173.5V174.0Q123.5 173.0 125.5 170.25Q127.5 167.5 131.0 163.0L133.0 160.5Q136.5 156.0 139.25 152.25Q142.0 148.5 142.5 147.0Q140.5 147.5 135.5 147.5Q130.5 147.5 123.5 147.5ZM243.5 29.0Q243.5 29.0 245.25 31.25Q247.0 33.5 249.0 37.5Q254.0 42.5 259.5 53.5Q265.0 64.5 266.5 71.0Q267.5 74.0 268.0 76.5Q268.5 79.0 269.0 81.5Q273.5 76.5 279.75 65.5Q286.0 54.5 291.25 43.75Q296.5 33.0 297.5 28.5H271.0Q260.0 28.5 251.75 28.5Q243.5 28.5 243.5 29.0ZM150.5 162.5 130.0 191.5 134.5 312.0 146.5 315.0Q151.5 315.5 166.0 316.0Q180.5 316.5 199.0 316.5H228.5Q247.0 316.5 263.75 317.0Q280.5 317.5 292.25 318.0Q304.0 318.5 307.0 319.5Q309.0 320.0 310.0 322.0Q311.0 323.0 311.0 323.0Q310.5 328.0 291.0 329.75Q271.5 331.5 230.0 333.0Q149.5 335.0 108.25 344.5Q67.0 354.0 57.5 370.0Q56.0 374.0 53.0 377.25Q50.0 380.5 48.5 380.5Q45.0 380.5 43.75 364.0Q42.5 347.5 42.5 323.5Q42.5 300.0 43.0 283.75Q43.5 267.5 47.0 267.5L49.5 268.0Q49.5 268.0 53.25 271.25Q57.0 274.5 61.5 279.0Q67.5 283.5 78.75 289.75Q90.0 296.0 101.0 300.5Q112.0 305.0 116.5 305.5Q117.5 304.5 118.0 295.75Q118.5 287.0 118.5 274.5Q118.5 263.0 118.0 244.5Q117.5 226.0 114.5 206.25Q111.5 186.5 104.5 171.25Q97.5 156.0 85.0 150.5Q74.5 144.5 74.5 140.5Q74.5 132.5 116.5 131.5Q120.5 131.0 125.0 131.0Q129.5 131.0 133.0 130.5Q144.0 130.0 151.5 129.75Q159.0 129.5 161.0 129.0H162.5Q170.5 129.0 170.5 136.5Q170.5 140.5 165.5 144.5L161.0 150.0L177.0 154.0Q182.0 155.0 199.0 155.0Q202.0 155.0 205.0 155.25Q208.0 155.5 211.5 155.5Q227.5 155.5 241.75 156.0Q256.0 156.5 256.0 160.5Q256.0 162.5 248.0 163.5Q240.0 164.5 228.5 164.5H214.0Q210.5 164.0 207.0 164.0Q203.5 164.0 200.0 164.0H180.5L154.0 168.0H153.5Q150.0 168.0 150.0 164.5Q150.0 163.5 150.5 162.5ZM152.5 229.0Q152.5 228.0 152.0 227.5V225.0Q151.0 224.0 151.0 223.0Q151.0 223.0 150.75 222.75Q150.5 222.5 150.5 222.0Q151.5 217.5 155.5 217.5H156.0L177.0 223.5Q181.5 224.5 194.25 224.75Q207.0 225.0 220.0 225.0Q234.5 225.0 246.0 225.5Q257.5 226.0 257.5 230.0Q257.5 232.5 248.25 233.75Q239.0 235.0 226.0 235.25Q213.0 235.5 202.0 235.5H182.5Q181.5 235.5 172.75 236.0Q164.0 236.5 155.5 239.5L152.5 240.0L150.5 236.5Q150.5 233.0 152.0 231.5Q152.0 230.5 152.25 229.75Q152.5 229.0 152.5 229.0ZM151.0 292.5Q151.0 287.5 157.0 287.5Q159.0 287.5 160.5 288.0Q161.5 288.5 162.5 288.5Q163.5 288.5 165.0 289.0Q170.0 291.0 177.0 292.25Q184.0 293.5 193.0 293.5Q210.0 293.5 225.25 294.5Q240.5 295.5 250.25 297.0Q260.0 298.5 260.0 300.5Q260.0 304.0 252.25 305.25Q244.5 306.5 231.5 306.5H204.0Q187.0 306.5 177.0 307.75Q167.0 309.0 162.0 310.0Q160.5 310.5 159.0 310.75Q157.5 311.0 157.0 311.0Q152.0 311.0 152.0 306.0V298.5Q151.5 297.0 151.25 295.5Q151.0 294.0 151.0 292.5ZM16.5 140.0H15.0Q13.0 140.0 11.5 123.25Q10.0 106.5 10.0 83.0Q10.0 53.0 11.75 39.5Q13.5 26.0 19.5 26.0Q22.0 26.0 24.5 28.75Q27.0 31.5 29.5 35.5Q35.0 42.0 53.75 51.75Q72.5 61.5 93.0 68.5Q106.0 72.0 125.25 73.5Q144.5 75.0 179.5 75.0Q212.0 75.0 230.0 77.0Q248.0 79.0 248.0 83.0Q248.0 86.0 232.0 88.0Q216.0 90.0 186.5 90.0Q120.0 90.0 83.25 98.5Q46.5 107.0 31.0 125.0Q26.0 130.5 21.25 135.25Q16.5 140.0 16.5 140.0ZM174.5 186.0 155.5 191.0 151.0 190.5 149.5 188.5 150.5 185.5Q151.0 185.5 151.0 182.5V181.0L150.5 179.5Q150.5 179.0 150.25 178.5Q150.0 178.0 150.0 177.5Q149.5 176.5 149.5 175.0Q149.5 171.0 154.0 171.0Q156.5 171.0 158.75 171.25Q161.0 171.5 163.0 172.0Q164.5 172.5 166.25 172.5Q168.0 172.5 169.5 173.0Q171.5 174.0 172.5 174.0Q173.5 174.0 174.0 174.5H208.5Q229.0 174.5 244.5 175.5Q260.0 176.5 260.0 180.5Q260.0 183.0 252.75 184.0Q245.5 185.0 234.25 185.25Q223.0 185.5 211.5 185.5Q199.0 185.5 188.0 185.5Q177.0 185.5 174.5 186.0ZM150.5 245.0V244.0Q150.5 240.0 154.5 240.0Q157.5 240.0 159.5 240.5Q163.5 242.5 169.25 243.75Q175.0 245.0 182.5 245.0H216.0Q234.0 245.0 247.0 246.0Q260.0 247.0 260.0 250.5Q260.0 253.5 247.75 254.75Q235.5 256.0 217.5 256.25Q199.5 256.5 182.5 256.5Q173.0 256.5 167.0 257.75Q161.0 259.0 158.0 260.0Q157.5 260.0 157.25 260.25Q157.0 260.5 156.5 260.5Q156.0 261.0 154.5 261.0Q150.5 261.0 150.5 256.5V254.0Q150.5 253.0 150.75 252.0Q151.0 251.0 151.0 250.0Q151.0 249.0 151.0 247.5Q151.0 246.0 150.5 245.0ZM175.5 212.0 156.0 215.5H154.5Q150.5 215.5 150.5 211.5Q150.5 209.0 151.0 208.0V206.5Q152.0 206.0 152.0 205.5Q152.0 205.0 152.0 205.0Q152.0 202.5 151.0 201.0V199.0Q151.0 194.5 155.5 194.5H156.0L176.0 200.0Q180.0 200.5 193.0 200.5Q206.0 200.5 220.0 200.5Q235.5 200.5 247.75 201.0Q260.0 201.5 260.0 205.5Q260.0 208.0 252.25 209.25Q244.5 210.5 232.75 210.75Q221.0 211.0 208.5 211.0Q197.0 211.0 187.5 211.0Q178.0 211.0 175.5 212.0ZM151.0 270.0V268.5Q151.0 266.5 152.75 265.75Q154.5 265.0 155.5 264.5Q161.0 266.0 168.75 267.75Q176.5 269.5 182.5 269.5Q199.5 269.5 217.5 269.75Q235.5 270.0 247.75 271.0Q260.0 272.0 260.0 275.0Q260.0 277.5 247.25 279.0Q234.5 280.5 216.0 281.0Q197.5 281.5 180.5 281.5Q177.0 281.5 172.75 282.75Q168.5 284.0 165.5 285.0L163.5 285.5Q160.0 287.0 157.0 287.0Q152.0 287.0 152.0 282.5V279.0Q152.5 278.0 152.5 276.5Q152.5 272.0 151.0 270.0ZM217.0 19.0Q217.0 12.0 225.5 12.0Q226.5 12.0 228.0 12.25Q229.5 12.5 231.0 12.5Q241.0 14.5 250.5 15.75Q260.0 17.0 270.5 17.0Q288.0 17.0 300.0 12.5Q303.0 11.5 305.5 11.5Q311.0 10.0 314.0 10.0Q320.5 10.0 320.5 15.5Q320.5 19.0 317.25 27.0Q314.0 35.0 309.5 42.5L303.5 53.0Q294.0 70.0 288.75 81.25Q283.5 92.5 281.75 105.5Q280.0 118.5 280.0 141.0Q280.0 150.5 280.0 162.0Q280.0 173.5 280.5 188.5V246.5Q280.5 277.5 279.25 294.25Q278.0 311.0 274.0 311.0Q270.0 311.0 267.5 285.5Q265.0 260.0 264.0 214.5Q264.0 189.0 263.0 164.75Q262.0 140.5 260.5 122.5Q259.0 104.5 257.5 98.0Q253.5 79.0 245.25 61.25Q237.0 43.5 226.0 34.5Q222.5 30.5 219.75 25.75Q217.0 21.0 217.0 19.0Z" fill="black" /></svg>