<svg xmlns="http://www.w3.org/2000/svg" width="536.0" height="384.5" viewBox="0 0 536.0 384.5"><path d="M54.0 303.0 68.5 305.5V271.5Q58.0 279.5 49.25 287.75Q40.5 296.0 38.0 299.5Q40.5 300.0 44.75 301.0Q49.0 302.0 54.0 303.0ZM297.5 304.5 288.5 300.5Q283.0 297.0 277.0 293.0Q271.0 289.0 268.5 287.0L266.5 284.5Q266.0 285.5 266.0 304.0Q266.0 320.5 266.5 321.5L267.0 321.0Q269.5 319.0 273.5 316.5Q277.5 314.0 281.5 312.0Q282.5 311.0 284.25 310.25Q286.0 309.5 287.0 309.0ZM90.0 191.5V191.0Q90.5 185.5 90.5 184.0Q90.5 182.5 90.5 182.5Q87.0 187.0 81.0 194.25Q75.0 201.5 75.0 202.5Q75.0 203.0 77.25 203.5Q79.5 204.0 82.0 204.0Q87.0 204.0 88.25 201.5Q89.5 199.0 90.0 191.5ZM175.0 285.5Q176.0 283.0 176.0 281.25Q176.0 279.5 176.5 278.0Q173.5 280.0 168.5 285.75Q163.5 291.5 163.5 293.0Q168.5 293.0 170.75 291.75Q173.0 290.5 175.0 285.5ZM133.5 89.0 134.0 87.5Q131.5 90.5 128.25 93.75Q125.0 97.0 121.0 101.0L102.0 121.0L107.0 119.5Q109.0 119.5 110.75 119.25Q112.5 119.0 114.0 119.0Q120.0 117.5 124.5 117.5Q125.5 117.5 126.5 115.25Q127.5 113.0 127.5 110.5Q127.5 106.0 129.5 99.75Q131.5 93.5 133.5 89.0ZM185.5 198.0V192.5Q185.0 193.0 185.0 193.25Q185.0 193.5 184.5 194.0Q184.0 195.0 182.5 196.5Q181.0 198.0 180.0 199.5Q179.5 201.0 178.5 202.75Q177.5 204.5 177.0 205.5H176.5H177.0Q181.0 205.5 183.25 204.25Q185.5 203.0 185.5 198.0ZM228.5 104.0V101.5Q229.0 101.0 229.0 99.5Q227.5 101.0 226.0 102.75Q224.5 104.5 222.5 106.5L215.0 114.0H219.0Q226.5 114.0 228.5 104.0ZM314.0 92.0 307.0 85.0Q305.0 82.5 303.25 80.5Q301.5 78.5 300.5 77.5Q301.0 79.5 301.0 83.5Q301.0 87.5 301.0 92.0V103.5ZM486.5 33.0Q487.5 32.0 487.75 31.5Q488.0 31.0 488.5 30.5H469.0Q459.5 30.5 452.75 30.75Q446.0 31.0 446.0 31.0Q446.0 31.5 447.75 35.0Q449.5 38.5 451.5 41.5Q454.0 45.0 457.25 52.0Q460.5 59.0 462.5 64.5L465.5 73.0L471.0 59.5Q474.5 51.5 479.25 43.75Q484.0 36.0 486.5 33.0ZM77.5 239.0 78.5 237.5Q83.5 229.0 85.5 229.0Q88.5 229.0 90.0 237.5V239.5Q90.0 243.0 89.0 246.75Q88.0 250.5 87.0 253.0Q85.5 255.5 83.75 262.5Q82.0 269.5 80.75 277.0Q79.5 284.5 79.5 288.5Q79.5 296.0 88.0 304.0Q96.5 312.0 108.5 319.5Q120.5 327.0 131.5 332.5Q142.5 338.0 148.0 340.5Q168.5 350.0 181.25 358.25Q194.0 366.5 194.0 370.5Q194.0 374.5 189.5 374.5Q184.5 374.5 168.5 365.0Q156.0 357.5 138.0 349.0Q120.0 340.5 101.25 333.0Q82.5 325.5 65.75 320.0Q49.0 314.5 38.5 312.5Q28.0 311.5 19.75 310.0Q11.5 308.5 10.5 308.0Q10.5 307.5 10.25 307.25Q10.0 307.0 10.0 307.0Q10.0 305.0 13.25 301.75Q16.5 298.5 20.0 296.0Q28.5 290.0 40.5 279.0Q52.5 268.0 63.0 256.75Q73.5 245.5 77.5 239.0ZM100.0 148.5Q107.5 136.0 112.0 136.0Q115.5 136.0 115.5 140.0Q115.5 146.5 109.5 164.5Q106.0 173.5 104.0 181.0Q102.0 188.5 102.0 191.5Q102.0 197.0 110.0 204.75Q118.0 212.5 126.5 215.0Q140.5 219.0 152.75 226.75Q165.0 234.5 165.0 238.5V240.0Q164.0 242.5 159.5 242.5Q157.5 242.5 155.0 241.5Q152.5 240.5 150.0 238.5Q141.5 232.5 128.0 228.0Q114.5 223.5 100.0 220.75Q85.5 218.0 74.0 218.0L45.5 217.0L69.0 188.0Q77.0 179.0 86.25 167.25Q95.5 155.5 100.0 148.5ZM165.0 33.5Q173.0 21.0 177.0 21.0Q181.0 21.0 181.5 25.5V26.5Q181.5 29.5 179.5 35.5Q177.5 41.5 173.5 46.0Q159.5 64.5 150.0 84.0Q140.5 103.5 140.5 112.0Q140.5 112.5 140.75 113.25Q141.0 114.0 141.0 114.0Q143.5 114.0 145.75 117.0Q148.0 120.0 149.0 123.5Q150.0 125.5 151.75 127.5Q153.5 129.5 155.5 129.5Q158.5 129.5 167.5 132.25Q176.5 135.0 185.5 140.0L205.5 149.5L211.0 141.5Q217.0 133.0 220.0 133.0Q223.0 133.0 223.0 137.5Q223.0 144.5 211.0 170.0Q199.5 190.5 199.5 203.0Q200.5 211.5 207.5 216.0Q211.5 216.5 217.5 220.5Q223.5 224.5 228.0 229.5Q232.5 234.5 232.5 238.5Q232.5 243.0 228.5 243.0Q227.5 243.0 222.0 239.5L220.5 238.5Q218.0 236.0 217.0 236.0Q215.0 236.0 203.0 255.5Q199.5 261.5 196.75 267.25Q194.0 273.0 192.0 276.5L189.5 281.0V283.5Q189.5 289.0 192.75 295.0Q196.0 301.0 199.0 303.0Q205.0 304.5 211.75 309.25Q218.5 314.0 223.25 319.0Q228.0 324.0 228.0 326.5Q228.0 330.0 224.0 330.0Q219.5 330.0 213.5 325.5Q200.0 315.5 187.75 311.25Q175.5 307.0 163.0 307.0Q160.5 307.0 157.75 307.25Q155.0 307.5 152.5 308.0L125.0 311.0L168.0 267.0Q186.5 248.0 193.75 240.0Q201.0 232.0 201.0 228.5Q201.0 225.0 194.75 223.25Q188.5 221.5 181.5 220.75Q174.5 220.0 172.0 220.0H143.5L161.0 200.0Q167.5 193.5 175.25 185.5Q183.0 177.5 187.5 172.5L197.0 161.5L190.0 156.5Q181.5 150.0 166.75 144.75Q152.0 139.5 135.75 136.5Q119.5 133.5 106.0 133.5Q95.0 133.5 89.5 135.5Q84.5 137.0 81.0 137.0Q75.5 137.0 75.5 132.5Q75.5 125.5 112.0 89.5Q129.5 73.5 144.25 57.0Q159.0 40.5 165.0 33.5ZM252.5 51.5Q260.5 40.0 265.0 40.0Q268.0 40.0 269.0 45.0Q269.0 46.0 269.5 46.5Q269.5 54.0 265.0 59.5Q261.0 63.0 255.25 73.0Q249.5 83.0 245.25 93.75Q241.0 104.5 241.0 110.0Q241.0 121.5 257.0 129.5Q266.0 134.0 273.5 140.5Q281.0 147.0 281.5 149.5Q281.5 152.5 278.0 152.5Q277.0 152.5 270.75 149.75Q264.5 147.0 257.0 143.5Q232.5 129.0 208.5 129.0Q206.0 129.0 203.5 129.25Q201.0 129.5 198.5 130.0L175.5 134.5L211.5 97.0Q224.0 85.5 235.75 71.75Q247.5 58.0 252.5 51.5ZM510.0 12.5 513.5 11.0Q516.5 10.0 519.0 10.0L521.0 12.0Q521.0 17.0 508.0 31.0Q501.5 37.5 493.75 48.75Q486.0 60.0 481.5 69.5L471.0 92.0L468.0 297.0H495.5Q508.5 297.0 517.25 298.5Q526.0 300.0 526.0 304.0Q526.0 306.5 517.25 308.25Q508.5 310.0 495.5 310.0H468.5V329.0Q468.5 350.0 462.5 350.0L461.0 349.5Q459.5 348.5 457.75 341.25Q456.0 334.0 456.0 326.0V309.5L383.0 310.5Q352.5 310.5 335.25 311.5Q318.0 312.5 309.5 314.0Q301.0 315.5 295.5 318.5Q283.5 325.5 276.0 332.0Q268.5 338.5 266.0 346.0Q264.0 350.5 261.5 352.75Q259.0 355.0 257.5 355.0H256.5Q255.0 353.5 254.0 343.0Q253.0 332.5 252.5 320.75Q252.0 309.0 252.0 304.0L251.5 250.5L268.5 269.5Q284.5 285.0 305.25 292.25Q326.0 299.5 364.5 299.5Q371.5 299.5 378.75 299.25Q386.0 299.0 394.5 298.5H400.5L456.0 296.0V95.5L393.0 98.0Q358.0 99.5 340.25 101.75Q322.5 104.0 314.75 109.0Q307.0 114.0 302.5 125.0Q299.0 132.0 295.5 136.5Q292.0 141.0 291.0 141.0Q289.0 141.0 287.5 127.5Q286.0 114.0 286.0 95.0V77.0Q286.0 64.0 286.75 56.5Q287.5 49.0 289.5 49.0Q290.5 49.0 296.5 54.25Q302.5 59.5 310.0 67.0L325.5 85.0L364.0 86.5Q368.0 87.0 372.75 87.0Q377.5 87.0 382.5 87.0Q396.0 87.0 409.0 86.25Q422.0 85.5 430.5 85.0L455.0 82.0L453.0 74.5Q449.0 61.5 442.0 50.25Q435.0 39.0 426.0 32.5Q414.0 24.0 414.0 19.0L414.5 17.5Q416.0 16.0 420.5 16.0Q423.5 16.0 429.0 16.5Q434.5 17.0 440.0 18.0Q443.5 18.5 448.5 18.75Q453.5 19.0 458.5 19.0Q469.5 19.0 480.75 18.0Q492.0 17.0 500.25 15.5Q508.5 14.0 510.0 12.5Z" fill="black" /></svg>