<svg xmlns="http://www.w3.org/2000/svg" width="494.0" height="388.5" viewBox="0 0 494.0 388.5"><path d="M109.0 141.0Q113.5 133.0 116.0 126.0Q112.5 130.0 104.25 138.25Q96.0 146.5 86.0 156.5Q75.0 167.5 67.25 175.75Q59.5 184.0 57.0 188.0Q59.5 188.0 63.25 188.5Q67.0 189.0 70.5 190.0Q76.0 191.0 82.5 192.0Q89.0 193.0 94.0 193.0Q96.5 193.0 97.0 190.5Q97.5 188.0 97.5 181.5Q97.5 174.5 100.75 162.5Q104.0 150.5 109.0 141.0ZM431.0 275.5Q430.5 272.5 427.5 264.75Q424.5 257.0 420.75 247.75Q417.0 238.5 413.25 231.0Q409.5 223.5 407.5 221.0Q404.5 221.5 398.75 224.5Q393.0 227.5 386.0 232.5Q377.5 239.0 360.5 249.5Q343.5 260.0 329.0 268.0Q320.0 271.5 312.75 275.0Q305.5 278.5 301.0 281.0Q307.0 280.5 316.5 279.75Q326.0 279.0 336.5 277.0Q349.5 275.0 364.75 274.0Q380.0 273.0 391.5 273.0Q396.0 273.0 400.25 273.0Q404.5 273.0 407.0 274.0Q412.5 274.5 417.0 274.5Q421.5 274.5 425.0 274.5Q428.0 274.5 431.0 275.5ZM241.0 37.5V36.0Q241.0 32.5 224.5 32.0Q221.5 31.0 219.0 31.0Q216.5 31.0 214.0 31.0Q207.0 31.0 205.5 30.5Q206.5 37.5 213.0 59.5Q213.5 61.5 214.0 63.5Q214.5 65.5 215.0 68.0Q215.5 69.0 215.75 70.0Q216.0 71.0 216.0 72.0Q218.5 82.0 220.75 92.25Q223.0 102.5 224.0 108.5Q224.5 109.0 224.5 110.0Q224.5 111.0 225.0 112.0Q226.0 108.5 226.75 104.0Q227.5 99.5 229.0 94.0L230.5 88.0Q232.0 79.5 234.0 70.5Q236.0 61.5 237.5 55.0Q239.0 48.5 240.0 43.75Q241.0 39.0 241.0 37.5ZM329.5 80.5H330.0Q330.0 78.5 315.5 78.5Q302.0 78.5 302.0 80.5Q302.0 80.5 302.25 81.0Q302.5 81.5 303.0 82.0Q304.5 86.0 306.5 94.75Q308.5 103.5 309.5 111.0Q310.5 117.5 311.75 122.0Q313.0 126.5 313.5 126.5Q314.5 126.5 319.5 111.0L322.0 104.0Q323.0 100.0 324.5 96.0Q326.0 92.0 327.0 88.5Q328.0 86.0 328.5 84.0Q329.0 82.0 329.5 80.5ZM432.0 40.0H432.5Q429.0 38.5 423.25 37.5Q417.5 36.5 412.5 36.5H406.0Q406.5 39.5 409.5 50.25Q412.5 61.0 415.75 71.75Q419.0 82.5 420.5 86.0Q421.5 83.5 423.5 77.75Q425.5 72.0 428.0 65.5Q431.5 57.0 433.25 52.25Q435.0 47.5 435.0 45.0Q435.0 43.0 432.0 40.0ZM155.0 57.0Q160.5 48.0 165.5 44.0Q170.5 40.0 173.0 40.0Q178.0 40.0 178.0 45.5Q178.0 48.0 175.5 54.25Q173.0 60.5 167.5 68.5Q164.0 74.5 156.0 89.0Q148.0 103.5 139.5 119.5L136.5 126.0Q115.0 164.5 115.0 182.0Q115.0 187.5 118.0 190.5V190.0Q125.5 195.5 125.5 206.5Q125.5 210.0 133.5 217.5Q141.5 225.0 152.0 233.0Q167.5 243.5 180.75 255.0Q194.0 266.5 202.0 275.5Q210.0 284.5 210.0 288.5Q210.0 291.5 207.0 292.5H207.5L205.0 293.5Q201.5 293.5 192.75 287.5Q184.0 281.5 174.0 272.5Q158.0 257.0 137.75 242.5Q117.5 228.0 95.5 218.0Q73.5 208.0 50.5 206.5L10.0 203.5L77.5 138.0Q94.0 122.0 109.75 105.5Q125.5 89.0 137.75 75.75Q150.0 62.5 155.0 57.0ZM224.5 11.5Q232.0 11.0 238.25 11.0Q244.5 11.0 249.5 10.5Q255.0 10.0 260.0 10.0Q265.0 10.0 268.5 10.0Q284.0 10.0 288.25 12.0Q292.5 14.0 294.0 19.5V21.0Q294.0 30.5 278.5 30.5Q260.0 30.5 248.0 84.0Q246.0 93.5 244.0 112.75Q242.0 132.0 240.0 156.25Q238.0 180.5 236.5 205.25Q235.0 230.0 234.0 250.75Q233.0 271.5 233.0 283.5V292.5Q236.0 291.5 242.0 289.0Q248.0 286.5 256.0 283.0Q258.5 282.0 261.5 280.75Q264.5 279.5 267.5 278.5L301.0 262.5L303.5 214.0Q303.5 194.5 302.25 172.25Q301.0 150.0 296.75 128.0Q292.5 106.0 283.5 89.0Q279.0 82.0 275.5 75.25Q272.0 68.5 272.0 66.5Q272.0 65.5 287.0 63.0Q302.0 60.5 323.0 60.5Q346.0 60.5 360.5 62.75Q375.0 65.0 375.0 70.0Q375.0 73.0 370.5 75.75Q366.0 78.5 360.0 78.5Q349.5 78.5 340.5 104.0Q331.5 129.5 324.5 177.0L323.5 181.5Q323.0 188.0 322.25 193.75Q321.5 199.5 320.5 205.0Q319.0 217.0 318.0 225.75Q317.0 234.5 317.0 240.0Q317.0 250.5 320.0 250.5Q324.5 250.5 332.5 246.0Q340.5 241.5 353.0 233.5Q372.0 222.0 383.25 213.5Q394.5 205.0 400.25 197.0Q406.0 189.0 407.75 178.5Q409.5 168.0 409.5 152.0Q409.5 130.5 406.25 108.75Q403.0 87.0 398.0 70.0Q393.0 53.0 387.5 47.0Q379.0 37.0 379.0 30.5Q379.0 25.0 385.0 22.75Q391.0 20.5 405.0 20.5Q410.0 20.5 416.75 20.5Q423.5 20.5 430.0 21.5Q484.0 24.0 484.0 30.5Q484.0 36.0 470.0 39.5Q462.0 41.5 455.25 52.0Q448.5 62.5 443.25 77.75Q438.0 93.0 434.5 110.0Q431.0 127.0 429.25 141.5Q427.5 156.0 427.5 164.5Q427.5 170.5 428.5 170.5Q430.0 170.5 431.0 170.0Q435.5 168.5 437.0 168.5Q442.5 168.5 442.5 174.0Q442.5 175.0 441.5 177.0Q441.5 178.0 440.5 180.0L440.0 182.5Q438.5 187.5 436.75 195.75Q435.0 204.0 434.5 212.5Q434.0 215.5 433.75 218.0Q433.5 220.5 433.5 223.0Q433.5 233.0 437.75 243.75Q442.0 254.5 453.0 274.5Q461.0 290.5 465.75 303.0Q470.5 315.5 470.5 319.5Q470.5 322.5 468.0 324.5H465.5Q462.5 324.5 458.75 322.0Q455.0 319.5 452.5 315.0Q439.0 290.5 386.5 290.5Q372.5 290.5 354.25 292.5Q336.0 294.5 316.5 298.0Q296.5 302.0 270.25 309.25Q244.0 316.5 216.0 325.5Q188.0 334.5 162.75 344.0Q137.5 353.5 119.5 361.5Q101.5 369.5 95.0 375.0Q93.0 376.5 90.75 377.25Q88.5 378.0 87.5 378.5Q83.0 378.0 80.5 373.5Q78.5 371.5 78.0 369.0Q77.5 366.5 77.5 365.0Q77.5 364.0 77.5 363.0Q77.5 362.0 78.0 360.0Q80.5 360.0 89.5 356.0Q92.0 355.0 94.75 353.5Q97.5 352.0 101.0 351.0Q108.5 348.0 117.75 344.0Q127.0 340.0 137.0 336.0Q139.5 335.0 142.5 333.5Q145.5 332.0 148.5 331.0L214.0 304.5V226.5Q214.0 194.5 211.75 164.25Q209.5 134.0 205.75 108.5Q202.0 83.0 197.0 65.25Q192.0 47.5 186.5 41.0Q178.0 31.0 178.0 25.5Q178.0 18.5 188.75 15.5Q199.5 12.5 224.5 11.5Z" fill="black" /></svg>