<svg xmlns="http://www.w3.org/2000/svg" width="493.0" height="463.0" viewBox="0 0 493.0 463.0"><path d="M68.5 298.0Q60.5 292.5 56.0 289.25Q51.5 286.0 49.5 286.0Q49.5 286.0 49.25 287.5Q49.0 289.0 49.0 291.5Q49.0 296.0 46.75 306.5Q44.5 317.0 40.5 327.0L39.0 332.0Q37.5 337.0 36.25 341.0Q35.0 345.0 34.0 348.0Q38.5 347.0 45.25 346.25Q52.0 345.5 59.0 343.5Q65.0 342.5 72.75 340.75Q80.5 339.0 88.5 337.5Q95.0 336.0 100.75 335.0Q106.5 334.0 111.0 333.5L125.5 331.5L110.0 324.0Q101.5 319.5 89.0 312.0Q76.5 304.5 68.5 298.0ZM206.0 257.5Q201.0 254.0 196.75 251.75Q192.5 249.5 190.5 249.0Q191.0 251.0 191.0 254.75Q191.0 258.5 191.0 263.5Q191.0 279.0 193.5 279.0Q194.5 279.0 197.0 277.75Q199.5 276.5 203.0 275.0Q204.0 274.5 205.25 274.25Q206.5 274.0 207.5 273.5Q219.5 269.5 219.5 266.5Q219.5 262.5 206.0 257.5ZM281.5 342.5 300.0 345.5V266.5L288.5 268.0Q283.5 268.0 273.75 269.5Q264.0 271.0 255.5 273.5L238.0 278.5V312.5Q238.0 324.5 240.25 330.0Q242.5 335.5 251.5 337.75Q260.5 340.0 281.5 342.5ZM402.5 313.5V266.5H314.5V347.5L352.0 353.5Q367.5 355.5 381.5 357.0Q395.5 358.5 398.0 358.5Q400.5 358.5 401.5 350.5Q402.5 342.5 402.5 313.5ZM121.5 118.5Q113.5 118.0 101.75 113.5Q90.0 109.0 78.5 104.0L58.0 92.5L59.0 123.0Q60.0 139.5 60.75 147.0Q61.5 154.5 64.5 154.5Q67.5 154.5 71.75 152.25Q76.0 150.0 81.5 146.5Q87.5 143.5 98.5 138.75Q109.5 134.0 119.5 131.0Q128.0 127.5 132.5 125.75Q137.0 124.0 137.0 123.0Q137.0 122.5 121.5 118.5ZM219.5 188.5Q219.5 187.5 214.75 184.75Q210.0 182.0 203.5 178.5L191.0 171.5V186.5Q191.0 192.0 191.0 196.25Q191.0 200.5 190.5 203.0Q194.0 202.5 200.75 199.5Q207.5 196.5 213.5 193.0Q219.5 189.5 219.5 188.5ZM270.5 251.5H300.0V191.0H284.0Q277.0 191.0 267.5 193.0Q258.0 195.0 252.0 196.5Q244.5 198.5 242.0 203.0Q239.5 207.5 238.0 222.0V223.5Q237.5 228.5 237.0 232.25Q236.5 236.0 236.5 239.5Q236.5 248.0 238.0 249.5Q238.0 250.0 248.0 250.75Q258.0 251.5 270.5 251.5ZM247.0 92.0Q247.0 89.5 227.5 89.5H208.0Q208.0 90.0 208.5 90.75Q209.0 91.5 209.5 92.5Q210.5 94.5 211.25 96.75Q212.0 99.0 213.5 101.5Q217.0 110.0 221.5 110.0Q229.0 110.0 238.0 105.0Q247.0 100.0 247.0 92.0ZM231.0 133.0 231.5 131.5V129.0Q232.0 127.0 232.5 125.5Q233.0 124.0 233.0 123.0Q233.0 121.0 228.0 121.0Q223.0 121.0 222.0 126.5Q222.0 130.0 223.25 134.0Q224.5 138.0 226.0 143.5L227.0 147.0Q227.5 146.0 228.75 142.0Q230.0 138.0 231.0 133.0ZM285.5 135.0Q283.5 125.0 281.0 123.0Q278.5 121.0 267.5 121.0Q254.5 121.0 249.5 127.75Q244.5 134.5 241.5 157.5L239.0 177.0H295.5L294.0 166.0Q292.5 160.0 290.25 151.25Q288.0 142.5 285.5 135.0ZM312.0 121.5Q310.5 121.0 309.0 121.0Q307.5 121.0 306.0 121.0Q300.5 121.0 299.5 122.5L300.0 126.5Q300.5 128.0 301.0 130.0Q301.5 132.0 302.0 134.5Q303.0 136.5 303.25 139.25Q303.5 142.0 304.0 144.5Q306.5 139.0 308.5 132.5Q310.5 126.0 312.0 121.5ZM314.5 251.5H402.5V191.0H314.5ZM326.5 89.5H308.0Q297.5 89.5 293.5 90.0Q289.5 90.5 288.5 93.0L289.5 95.0Q290.0 96.0 290.25 97.25Q290.5 98.5 291.0 101.0Q292.0 103.5 296.0 104.75Q300.0 106.0 304.5 106.0Q310.0 106.0 315.25 104.25Q320.5 102.5 322.5 98.5Q322.5 97.5 323.5 96.5Q324.5 93.5 324.5 93.5Q325.5 92.5 325.75 91.25Q326.0 90.0 326.5 89.5ZM392.0 143.5 383.0 116.5H358.0Q345.0 116.5 339.0 117.25Q333.0 118.0 330.75 120.5Q328.5 123.0 325.5 128.5Q323.5 133.5 321.5 143.0Q319.5 152.5 318.5 159.0L316.0 174.5L358.0 176.5H376.0Q388.0 176.5 393.0 175.0Q398.0 173.5 398.0 169.0Q398.0 165.5 396.25 159.0Q394.5 152.5 392.0 143.5ZM449.5 36.5H431.0Q420.5 36.5 407.25 35.0Q394.0 33.5 384.5 32.5Q380.5 32.0 377.0 31.75Q373.5 31.5 371.5 31.5H368.5Q368.5 36.0 372.75 45.5Q377.0 55.0 379.0 58.5Q381.5 63.5 386.0 76.75Q390.5 90.0 395.0 104.0Q398.0 114.5 400.75 123.75Q403.5 133.0 405.5 138.5Q406.5 136.0 407.5 131.75Q408.5 127.5 409.0 122.5Q413.0 103.0 421.5 84.75Q430.0 66.5 445.0 43.5ZM344.5 15.5Q344.5 10.0 350.0 10.0Q353.0 10.0 356.0 11.5L359.5 12.5Q362.5 15.5 381.5 17.75Q400.5 20.0 422.0 21.0L483.0 22.5L464.0 44.0Q455.5 54.5 446.75 71.0Q438.0 87.5 431.0 105.5Q424.0 123.5 421.0 138.5Q420.0 146.0 418.75 171.25Q417.5 196.5 417.0 232.5Q416.5 268.5 416.5 307.5Q416.5 378.0 414.5 415.5Q412.5 453.0 410.0 453.0Q406.0 453.0 404.25 442.0Q402.5 431.0 402.5 412.5Q402.5 394.5 401.25 385.5Q400.0 376.5 398.5 375.5Q395.5 375.0 381.75 372.5Q368.0 370.0 352.5 367.5Q340.0 365.5 331.5 364.75Q323.0 364.0 319.0 364.0Q314.5 364.0 314.5 367.0Q314.5 378.5 308.0 378.5Q304.0 378.5 302.0 374.75Q300.0 371.0 300.0 366.5Q300.0 363.0 292.5 360.25Q285.0 357.5 274.75 355.25Q264.5 353.0 255.25 351.75Q246.0 350.5 242.0 350.5Q237.0 350.5 236.0 353.5Q235.0 356.5 235.0 362.0Q235.0 368.5 232.75 373.5Q230.5 378.5 227.5 378.5Q225.0 378.5 222.25 373.0Q219.5 367.5 219.5 359.5Q219.5 350.0 216.5 348.0Q213.5 346.0 199.0 344.0Q195.5 343.5 190.75 343.5Q186.0 343.5 180.5 343.5Q139.5 343.5 98.5 350.0Q57.5 356.5 18.0 368.0L17.0 368.5Q15.5 368.5 14.0 369.0Q12.5 369.5 10.5 369.5L10.0 366.5Q10.0 360.0 18.0 339.0Q23.5 329.0 28.0 314.0Q32.5 299.0 34.0 288.5Q36.0 283.5 36.75 279.0Q37.5 274.5 38.0 271.0Q38.5 269.0 38.75 267.25Q39.0 265.5 39.0 264.0Q40.0 262.0 40.5 260.25Q41.0 258.5 41.5 258.0H42.5Q45.0 258.0 52.5 263.5Q60.0 269.0 68.0 277.0Q87.0 295.5 111.5 307.0Q136.0 318.5 169.5 325.5L182.0 327.5Q203.0 332.0 211.0 332.0Q217.0 332.0 218.25 328.25Q219.5 324.5 219.5 316.5V308.0Q219.5 285.5 216.0 285.5Q212.0 285.5 203.5 291.5Q197.5 294.5 193.5 296.25Q189.5 298.0 186.5 298.0Q180.0 298.0 178.0 290.0Q176.0 282.0 176.0 262.0Q176.0 246.5 177.25 236.5Q178.5 226.5 181.0 226.5Q182.0 226.5 189.25 229.5Q196.5 232.5 205.0 237.5L219.5 245.5L221.5 229.5Q222.0 226.5 222.25 223.0Q222.5 219.5 222.5 217.0Q222.5 211.0 221.5 207.0H221.0Q218.0 207.0 213.5 208.5Q209.0 210.0 205.0 213.0Q196.0 217.0 189.0 220.0Q182.0 223.0 179.5 223.0Q177.0 223.0 176.0 216.0Q175.0 209.0 175.0 198.5Q175.0 189.0 175.5 178.75Q176.0 168.5 177.0 161.0Q178.0 153.5 179.0 152.5L181.0 151.0Q183.5 151.0 189.25 153.25Q195.0 155.5 201.0 159.0Q209.5 165.5 215.5 166.5Q215.0 163.0 214.0 157.5Q213.0 152.0 210.5 146.0Q207.0 131.0 205.0 128.25Q203.0 125.5 194.0 125.5Q186.5 125.5 171.5 129.25Q156.5 133.0 138.5 139.25Q120.5 145.5 103.25 152.75Q86.0 160.0 74.5 166.5L44.5 183.5V105.0Q44.5 84.5 46.5 75.0Q48.5 65.5 52.0 65.5Q53.5 65.5 55.75 67.25Q58.0 69.0 59.0 71.0Q62.0 75.5 72.0 81.75Q82.0 88.0 94.25 93.75Q106.5 99.5 117.0 103.0Q132.0 108.0 148.0 109.25Q164.0 110.5 179.5 110.5Q189.5 110.5 193.5 109.75Q197.5 109.0 197.5 106.0Q197.5 103.5 196.25 98.5Q195.0 93.5 193.0 86.0L190.5 82.0Q190.0 80.5 190.0 77.0Q190.0 72.0 195.5 72.0Q199.5 72.0 204.0 73.5Q209.5 74.5 221.0 75.5Q232.5 76.5 242.5 76.5Q257.0 76.5 263.5 77.75Q270.0 79.0 270.0 84.5Q270.0 89.5 262.5 99.5Q261.5 101.5 260.5 103.0Q259.5 104.5 259.0 105.5H267.5Q276.5 105.5 276.5 105.0Q276.5 103.0 275.5 102.0Q275.0 99.0 273.75 94.0Q272.5 89.0 271.0 84.0Q270.0 79.0 270.0 76.5Q270.0 71.0 274.5 71.0Q277.0 71.0 282.0 73.0Q287.0 74.0 298.0 75.5Q309.0 77.0 318.5 77.0Q321.0 77.0 323.25 77.0Q325.5 77.0 328.0 77.5Q331.0 77.5 333.5 77.5Q336.0 77.5 338.0 78.5Q342.0 78.5 345.25 78.75Q348.5 79.0 352.0 81.0Q352.0 81.0 348.75 85.75Q345.5 90.5 343.0 95.0L339.5 101.5H364.5Q377.0 101.5 377.0 97.5Q377.0 91.0 362.5 60.0L360.5 54.0Q354.0 41.0 349.25 29.0Q344.5 17.0 344.5 15.5Z" fill="black" /></svg>