<svg xmlns="http://www.w3.org/2000/svg" width="640.0" height="382.0" viewBox="0 0 640.0 382.0"><path d="M42.5 305.5Q42.0 301.5 42.0 295.75Q42.0 290.0 42.0 284.0Q42.0 276.0 42.25 269.25Q42.5 262.5 43.0 260.5Q38.0 258.0 35.5 258.0Q32.5 258.0 32.5 264.0Q32.5 266.0 32.75 268.0Q33.0 270.0 33.5 272.5V274.0Q33.5 276.5 34.0 277.5V282.0Q34.5 285.5 34.5 289.25Q34.5 293.0 34.5 296.0V308.5Q37.0 308.0 42.5 305.5ZM42.0 204.5V191.5L38.5 190.0L39.5 206.5ZM49.0 154.0 54.0 142.0 45.5 141.0ZM59.5 128.5 64.5 116.0 39.5 121.5 41.0 125.5ZM59.0 200.5 71.5 197.0 59.0 194.5ZM57.5 267.0Q57.5 271.0 57.5 275.25Q57.5 279.5 58.0 283.5V297.0Q66.5 293.0 77.25 289.0Q88.0 285.0 94.5 284.5L103.5 283.0L101.5 282.0Q91.0 278.5 78.25 274.25Q65.5 270.0 57.5 267.0ZM70.0 79.5Q59.0 76.0 48.75 72.5Q38.5 69.0 35.5 68.0Q33.5 67.0 32.5 67.0Q31.5 67.0 31.0 71.0Q30.5 75.0 30.5 86.0V106.5L46.5 104.0Q58.5 102.0 70.5 99.25Q82.5 96.5 91.0 93.75Q99.5 91.0 101.0 89.5Q95.0 88.5 84.0 84.0Q80.5 83.0 77.0 81.75Q73.5 80.5 70.0 79.5ZM69.5 150.5 78.5 147.0 71.5 145.5ZM195.0 279.0 194.0 232.5V208.0L144.5 208.5Q123.0 208.5 105.25 209.25Q87.5 210.0 84.5 211.0Q81.5 211.5 76.0 212.75Q70.5 214.0 66.5 215.0L65.5 215.5Q64.0 216.0 62.25 216.75Q60.5 217.5 59.0 218.5L58.0 219.0L57.5 250.5Q61.5 252.5 74.75 258.5Q88.0 264.5 109.25 270.0Q130.5 275.5 156.5 277.0ZM182.5 194.0H193.0L192.0 156.5L161.0 156.0Q154.0 156.0 140.5 156.5Q127.0 157.0 111.75 158.0Q96.5 159.0 83.75 160.75Q71.0 162.5 65.0 165.0Q63.0 167.5 62.25 172.5Q61.5 177.5 61.5 180.5Q62.0 180.5 63.0 180.5Q64.0 180.5 65.0 181.0Q68.5 181.5 74.25 182.0Q80.0 182.5 87.0 183.5L92.0 184.0Q97.5 184.5 103.25 185.25Q109.0 186.0 115.0 187.0Q136.0 190.0 156.0 192.0Q176.0 194.0 182.5 194.0ZM184.5 116.5 180.5 101.5H146.0Q121.5 102.0 108.75 103.5Q96.0 105.0 90.5 108.25Q85.0 111.5 82.0 119.0Q80.0 122.0 78.5 125.25Q77.0 128.5 76.0 130.5Q81.0 131.5 96.25 134.0Q111.5 136.5 130.0 138.5Q148.5 140.5 162.5 140.5Q177.0 140.5 183.25 139.75Q189.5 139.0 189.5 134.5Q189.5 132.0 188.25 127.5Q187.0 123.0 184.5 116.5ZM195.5 101.5 197.5 108.0 200.0 101.0ZM209.0 191.5 339.0 194.5V156.5L274.0 157.5L209.0 157.0ZM340.5 245.0V215.5Q340.0 212.5 338.5 211.0Q337.0 209.5 331.25 209.0Q325.5 208.5 312.0 208.25Q298.5 208.0 274.0 208.0H209.5V279.5L337.0 278.0V263.0Q337.0 256.5 337.75 251.75Q338.5 247.0 340.5 245.0ZM369.0 290.0Q362.5 283.5 361.0 283.5Q359.5 283.5 359.5 298.5Q359.5 306.5 357.25 312.5Q355.0 318.5 352.5 318.5Q352.0 318.5 351.25 322.75Q350.5 327.0 349.5 331.5Q349.0 333.5 349.0 336.0Q349.0 338.5 349.0 340.0Q349.0 343.5 350.0 344.5Q352.0 343.5 356.75 341.0Q361.5 338.5 368.0 335.0Q375.0 330.5 385.25 324.75Q395.5 319.0 403.5 315.5L416.0 310.0L400.5 305.0Q391.5 302.5 382.25 298.0Q373.0 293.5 369.0 290.0ZM213.5 71.5 219.5 61.5H178.5L185.0 73.5Q187.0 80.5 191.0 87.5H204.5Q207.0 85.0 209.5 78.5Q210.5 76.5 211.0 76.0Q212.0 75.0 212.5 73.75Q213.0 72.5 213.5 71.5ZM335.5 106.5Q334.5 104.0 329.75 103.0Q325.0 102.0 311.75 101.75Q298.5 101.5 272.5 101.5H213.5L210.5 119.5Q210.0 124.5 209.75 129.75Q209.5 135.0 209.5 140.5L273.5 142.5H339.0L338.5 129.0Q338.5 123.0 337.5 116.5Q336.5 110.0 335.5 106.5ZM367.5 30.5H345.5Q325.5 30.5 325.5 32.0V32.5Q326.0 34.5 328.75 44.0Q331.5 53.5 335.0 63.5Q339.0 74.0 341.5 80.25Q344.0 86.5 345.0 86.5Q345.0 86.5 346.5 80.5L349.5 71.0Q350.5 68.5 351.75 65.75Q353.0 63.0 354.0 60.0Q355.0 56.5 356.25 53.25Q357.5 50.0 359.0 47.0Q362.5 42.0 364.75 37.25Q367.0 32.5 367.5 30.5ZM455.0 126.5 472.5 90.5Q468.5 90.5 464.0 90.75Q459.5 91.0 455.5 91.0Q451.0 91.0 446.5 90.75Q442.0 90.5 437.5 90.0ZM580.0 25.0Q578.0 25.5 572.0 25.75Q566.0 26.0 558.5 26.0Q537.0 26.0 537.0 30.0Q537.0 34.0 543.0 43.0Q545.5 48.0 548.25 57.0Q551.0 66.0 552.0 73.5Q555.5 87.0 557.0 87.0Q558.0 87.0 560.5 75.0Q561.5 68.5 564.75 58.5Q568.0 48.5 571.5 42.0L575.0 35.0Q579.0 28.5 580.0 25.0ZM516.5 11.5 517.5 11.0Q518.5 10.0 526.5 10.0Q535.0 10.0 547.75 10.5Q560.5 11.0 573.25 12.0Q586.0 13.0 594.75 14.25Q603.5 15.5 603.5 16.5Q603.5 17.0 600.25 23.0Q597.0 29.0 591.5 36.0Q584.0 47.0 579.25 58.75Q574.5 70.5 572.0 87.5Q569.5 104.5 568.5 130.75Q567.5 157.0 567.5 197.0V296.0H596.5Q611.0 296.0 620.5 298.0Q630.0 300.0 630.0 303.0Q630.0 306.5 614.25 308.5Q598.5 310.5 562.0 310.5H545.0Q540.0 310.0 534.25 310.0Q528.5 310.0 522.5 310.0Q506.0 310.0 488.75 310.5Q471.5 311.0 455.0 314.0Q444.5 316.0 429.5 321.5Q414.5 327.0 398.5 334.5Q382.5 342.0 369.75 349.5Q357.0 357.0 351.5 362.5Q341.0 372.0 337.0 372.0Q335.0 372.0 334.5 360.0Q334.0 348.0 334.0 331.0L334.5 294.0H231.5Q217.5 294.0 213.5 295.0Q209.5 296.0 209.5 299.5V301.0Q209.5 317.0 203.0 317.0Q197.5 317.0 196.5 304.0Q196.0 296.5 193.75 295.0Q191.5 293.5 178.5 293.0Q176.0 293.0 172.75 293.0Q169.5 293.0 165.5 292.5H161.0Q155.5 292.5 143.75 293.0Q132.0 293.5 117.25 295.0Q102.5 296.5 89.0 299.75Q75.5 303.0 66.75 308.25Q58.0 313.5 58.0 322.0Q58.0 327.5 56.5 332.75Q55.0 338.0 51.5 339.0L51.0 339.5H50.0Q47.5 339.0 45.0 336.0Q42.5 333.0 42.5 328.5Q42.5 322.5 41.5 322.5Q40.0 322.5 34.5 329.0Q30.0 334.5 26.5 334.5Q22.0 334.5 20.75 324.25Q19.5 314.0 19.0 292.5Q18.5 278.0 17.25 264.75Q16.0 251.5 15.0 246.5L14.5 244.5Q13.0 240.5 13.0 238.5Q13.0 234.5 17.0 234.5Q19.0 234.5 23.5 236.0Q27.5 238.5 32.25 240.25Q37.0 242.0 42.0 243.5V223.0L39.5 223.5Q35.5 224.5 32.5 224.5Q27.5 224.5 26.5 221.0Q25.5 217.5 25.5 209.0Q25.5 203.0 24.5 195.5Q23.5 188.0 22.5 184.0L22.0 181.5Q21.5 180.0 21.5 177.5Q21.5 172.5 26.5 172.5Q29.5 172.5 32.5 174.0H36.0Q36.5 174.5 37.5 174.5Q38.5 174.5 38.75 174.25Q39.0 174.0 39.0 174.0Q37.5 172.5 35.0 172.5Q25.5 172.5 25.5 154.0Q25.5 149.0 25.0 145.0Q24.5 141.0 23.5 141.0Q20.0 141.0 18.25 130.0Q16.5 119.0 16.5 102.0Q16.5 87.5 15.5 75.25Q14.5 63.0 13.5 60.5Q10.0 55.5 10.0 51.5Q10.0 46.0 16.0 46.0Q22.5 46.0 41.0 54.0Q52.5 59.0 70.25 65.0Q88.0 71.0 107.0 76.25Q126.0 81.5 141.75 84.75Q157.5 88.0 165.0 88.0H174.5L167.5 70.5Q166.5 68.0 165.5 65.25Q164.5 62.5 163.5 60.5Q162.5 58.5 161.5 55.5Q158.5 49.5 158.5 47.5Q158.5 45.0 165.0 45.0Q170.5 45.0 182.0 45.5Q193.5 46.0 205.75 47.0Q218.0 48.0 227.25 48.75Q236.5 49.5 237.5 50.0Q238.5 51.0 238.5 53.0Q238.5 55.0 236.0 59.75Q233.5 64.5 230.0 69.5L225.0 78.5Q224.0 80.5 223.0 82.25Q222.0 84.0 221.0 85.0Q219.0 87.5 219.0 88.0H286.0Q308.5 88.0 317.75 86.75Q327.0 85.5 327.0 80.0Q327.0 76.0 324.75 69.75Q322.5 63.5 318.5 54.0L316.5 49.5Q311.5 36.5 308.5 28.5Q305.5 20.5 305.5 17.5Q305.5 13.5 309.5 12.5L311.0 13.0Q311.5 13.0 312.5 13.5Q313.5 14.0 314.0 14.5Q315.5 15.0 327.0 15.75Q338.5 16.5 352.5 16.5Q368.5 16.5 379.25 17.5Q390.0 18.5 390.0 21.0Q390.0 22.0 386.5 28.25Q383.0 34.5 378.5 41.5Q370.5 55.0 365.25 73.0Q360.0 91.0 357.5 117.75Q355.0 144.5 355.0 184.5Q355.0 212.0 355.25 227.25Q355.5 242.5 356.5 250.0Q357.5 257.5 359.75 261.0Q362.0 264.5 365.5 268.5Q377.0 280.0 396.5 288.0Q416.0 296.0 433.5 296.0H452.5L450.5 226.0Q449.5 192.5 447.0 171.25Q444.5 150.0 439.75 134.0Q435.0 118.0 425.5 99.5Q421.5 92.5 419.0 85.5Q416.5 78.5 416.5 76.5H427.0Q432.0 77.0 439.75 77.25Q447.5 77.5 456.5 77.5Q465.0 77.5 472.75 77.25Q480.5 77.0 488.5 76.5H497.0Q497.0 79.0 496.0 81.25Q495.0 83.5 493.0 87.0Q491.0 90.0 488.0 94.75Q485.0 99.5 482.5 105.0Q479.0 111.5 473.5 123.75Q468.0 136.0 468.0 143.0L465.0 296.0H556.0L554.5 213.5Q554.5 185.5 553.75 167.0Q553.0 148.5 551.75 135.5Q550.5 122.5 548.25 111.75Q546.0 101.0 542.5 88.5Q537.5 72.5 531.75 55.75Q526.0 39.0 522.5 32.5Q519.5 25.5 518.0 19.5Q516.5 13.5 516.5 11.5Z" fill="black" /></svg>