<svg xmlns="http://www.w3.org/2000/svg" width="850.0" height="464.0" viewBox="0 0 850.0 464.0"><path d="M86.0 240.5Q79.5 239.5 67.5 232.5Q55.5 225.5 46.5 218.5L30.0 204.0V288.0L42.0 279.5Q49.5 274.0 60.5 267.75Q71.5 261.5 79.5 258.0Q99.0 248.5 99.0 246.5Q99.0 243.5 86.0 240.5ZM360.5 200.5Q364.0 196.5 366.25 192.75Q368.5 189.0 370.0 187.0Q365.0 189.5 354.5 196.0Q344.0 202.5 332.5 210.5L303.5 231.0H316.0Q331.5 231.0 335.75 233.75Q340.0 236.5 340.0 246.5Q340.0 250.5 340.5 251.5Q345.5 250.0 345.5 239.0Q345.5 233.0 349.75 221.5Q354.0 210.0 360.5 200.5ZM522.0 124.0Q473.5 117.5 458.0 117.5Q447.5 117.5 445.0 122.0Q444.5 122.5 443.5 123.5Q442.5 124.5 441.5 126.5Q438.0 131.0 432.75 137.25Q427.5 143.5 422.0 149.5L420.5 151.5Q394.5 182.0 379.0 208.5Q363.5 235.0 363.5 248.0Q363.5 255.0 368.5 258.0Q373.0 260.0 373.0 266.0Q373.0 268.5 372.0 270.0Q374.5 276.5 385.5 290.25Q396.5 304.0 412.0 320.0Q424.5 333.0 434.5 344.25Q444.5 355.5 449.0 361.0Q448.0 358.0 446.0 353.5Q444.0 349.0 441.5 344.0Q436.0 330.0 436.0 323.0Q436.0 314.5 442.0 314.5Q447.0 314.5 452.0 319.0Q457.0 322.0 467.25 326.0Q477.5 330.0 489.75 333.25Q502.0 336.5 513.0 338.75Q524.0 341.0 530.5 341.0Q537.0 341.0 543.5 340.0Q550.0 339.0 558.5 337.5L562.0 337.0Q576.5 334.0 598.75 328.0Q621.0 322.0 646.75 314.25Q672.5 306.5 698.0 298.5Q723.5 290.5 744.25 283.5Q765.0 276.5 777.5 271.75Q790.0 267.0 789.0 266.0Q788.0 264.0 776.75 256.75Q765.5 249.5 747.25 238.75Q729.0 228.0 707.25 215.25Q685.5 202.5 663.25 189.75Q641.0 177.0 621.5 166.25Q602.0 155.5 588.0 148.5Q571.0 139.5 552.0 132.75Q533.0 126.0 522.0 124.0ZM187.5 55.5H152.0Q137.0 55.5 127.0 56.0Q117.0 56.5 117.0 56.5Q117.0 58.0 122.25 69.5Q127.5 81.0 135.5 96.0L151.0 129.0L156.0 114.0Q159.0 104.0 165.25 92.25Q171.5 80.5 176.0 73.5Q180.0 68.0 183.25 62.75Q186.5 57.5 187.5 55.5ZM525.0 62.0 523.5 60.0Q519.0 53.0 516.0 48.0Q513.0 43.0 513.0 43.0Q511.5 43.0 505.5 48.5Q499.5 54.0 491.25 62.25Q483.0 70.5 475.25 79.25Q467.5 88.0 462.25 94.25Q457.0 100.5 457.0 102.0Q457.0 102.0 465.25 102.25Q473.5 102.5 485.5 102.5Q498.5 102.5 516.5 105.0Q534.5 107.5 546.5 111.5Q554.5 113.5 561.25 115.5Q568.0 117.5 572.0 118.5Q567.0 114.5 559.75 106.25Q552.5 98.0 545.0 89.0Q537.5 80.0 532.0 72.5Q526.5 65.0 525.0 62.0ZM506.0 354.5 498.0 352.5Q489.0 350.0 480.25 348.25Q471.5 346.5 467.0 345.0Q466.5 344.0 465.25 344.0Q464.0 344.0 463.0 343.5Q464.0 347.5 467.5 358.25Q471.0 369.0 475.5 381.5Q480.0 394.0 484.0 404.5Q488.0 415.0 490.0 419.0Q492.5 415.0 501.5 405.75Q510.5 396.5 521.75 385.75Q533.0 375.0 542.25 367.5Q551.5 360.0 553.5 360.0Q557.5 360.0 557.5 356.5Q557.5 356.5 556.25 356.25Q555.0 356.0 553.5 356.0Q551.5 356.0 550.0 356.25Q548.5 356.5 546.5 357.0Q545.5 357.5 543.0 357.5Q540.5 357.5 537.5 357.5Q531.0 357.5 522.5 356.75Q514.0 356.0 506.0 354.5ZM495.0 30.5Q500.0 22.0 504.25 16.0Q508.5 10.0 508.5 10.0Q508.5 10.0 516.75 18.75Q525.0 27.5 533.0 40.5Q546.5 60.5 563.75 81.5Q581.0 102.5 597.75 119.75Q614.5 137.0 626.5 146.0Q633.0 150.0 651.0 161.0Q669.0 172.0 693.75 186.75Q718.5 201.5 745.0 217.0Q771.0 232.0 792.5 246.5Q814.0 261.0 827.0 271.0Q840.0 281.0 840.0 283.5Q838.5 287.5 832.5 287.5Q827.0 287.5 821.0 284.5Q821.0 284.0 819.0 284.0Q812.0 284.0 795.25 287.75Q778.5 291.5 756.0 297.75Q733.5 304.0 708.25 311.75Q683.0 319.5 659.25 327.75Q635.5 336.0 616.0 343.5Q596.5 351.0 585.5 357.0Q577.5 362.0 565.75 371.75Q554.0 381.5 541.5 393.0Q529.0 404.5 518.0 415.5Q507.0 426.5 500.0 434.75Q493.0 443.0 493.0 445.5Q493.0 454.0 483.5 454.0Q480.0 454.0 477.5 450.25Q475.0 446.5 475.0 441.0Q475.0 438.0 472.75 428.5Q470.5 419.0 467.0 408.25Q463.5 397.5 460.0 389.5Q456.5 381.5 453.5 381.5Q452.5 381.5 452.5 382.5Q450.5 383.0 449.25 383.25Q448.0 383.5 447.0 383.5Q440.5 383.5 440.5 376.0Q440.5 373.0 431.25 362.5Q422.0 352.0 407.75 338.0Q393.5 324.0 377.25 309.75Q361.0 295.5 346.75 283.75Q332.5 272.0 324.0 266.5Q315.0 261.0 307.75 258.25Q300.5 255.5 291.25 254.0Q282.0 252.5 268.25 252.25Q254.5 252.0 232.5 252.0H167.5L164.0 313.5Q162.0 367.0 155.0 367.0Q148.5 367.0 144.5 298.0L143.0 251.0L110.0 264.5Q89.5 274.0 68.5 285.0Q47.5 296.0 28.0 309.0Q15.5 319.0 13.5 319.0Q10.0 319.0 10.0 308.0Q10.0 299.5 10.5 283.0Q11.0 266.5 11.75 247.0Q12.5 227.5 13.25 209.75Q14.0 192.0 14.5 180.25Q15.0 168.5 15.5 168.0L18.0 167.5Q20.5 167.5 27.25 173.75Q34.0 180.0 42.0 188.5Q59.0 207.0 82.5 219.0Q106.0 231.0 127.5 231.0H147.0V202.5Q147.0 185.0 140.75 161.5Q134.5 138.0 124.5 113.75Q114.5 89.5 102.0 70.0L100.5 67.0Q95.5 57.5 91.25 50.25Q87.0 43.0 87.0 41.0V39.5Q88.0 38.5 99.25 38.0Q110.5 37.5 126.0 37.5Q140.0 37.5 156.25 37.75Q172.5 38.0 187.25 38.75Q202.0 39.5 212.0 40.25Q222.0 41.0 223.0 42.5V43.5Q223.0 45.5 216.75 53.75Q210.5 62.0 202.5 70.5Q184.5 90.5 174.25 120.0Q164.0 149.5 164.0 191.0V229.0L202.5 234.0Q218.5 235.5 230.0 235.5Q241.5 235.5 251.0 232.5Q260.5 229.5 274.0 223.0Q289.0 216.0 307.5 205.25Q326.0 194.5 344.5 182.25Q363.0 170.0 379.25 158.0Q395.5 146.0 406.0 136.5Q416.5 127.0 418.5 122.0Q421.0 114.5 432.5 101.5Q444.0 88.5 455.0 77.5Q467.0 67.0 478.75 53.0Q490.5 39.0 495.0 30.5Z" fill="black" /></svg>