<svg xmlns="http://www.w3.org/2000/svg" width="667.0" height="379.5" viewBox="0 0 667.0 379.5"><path d="M91.5 255.5Q91.0 250.0 89.5 247.5Q88.0 245.0 87.0 244.5Q85.0 244.5 80.0 248.0Q75.0 251.5 70.75 255.5Q66.5 259.5 65.5 261.5Q67.0 263.0 80.0 263.0Q87.0 263.0 89.5 262.0Q92.0 261.0 92.5 259.5Q92.5 258.5 91.5 255.5ZM131.5 187.0Q131.5 186.0 131.25 185.5Q131.0 185.0 131.0 185.0Q127.0 185.0 122.5 190.5Q116.5 196.5 116.5 199.5Q116.5 205.5 127.0 205.5Q135.5 205.5 135.5 203.5Q135.5 203.5 135.25 203.0Q135.0 202.5 135.0 202.0L134.0 198.5Q131.5 192.5 131.5 187.0ZM245.0 272.0 196.5 249.0Q168.5 236.0 146.75 228.75Q125.0 221.5 112.5 221.5Q105.5 221.5 103.0 224.5Q102.0 227.5 102.0 231.5Q102.0 239.0 104.75 248.75Q107.5 258.5 112.5 264.0Q114.0 266.0 125.25 272.5Q136.5 279.0 152.75 287.25Q169.0 295.5 186.25 303.75Q203.5 312.0 217.5 318.5Q231.5 325.0 238.0 327.0Q238.0 325.5 239.0 321.5Q239.5 317.0 240.25 311.25Q241.0 305.5 242.0 299.0ZM263.5 333.5 263.0 332.5Q261.0 328.5 258.0 328.5Q255.0 328.5 255.0 331.5Q255.0 332.5 256.75 333.25Q258.5 334.0 260.5 334.0Q261.5 334.0 262.25 333.75Q263.0 333.5 263.5 333.5ZM268.5 261.5V261.0Q267.0 258.5 265.5 257.5Q265.5 258.0 265.25 258.5Q265.0 259.0 265.0 260.0Q265.0 263.0 268.5 263.0Q268.5 263.0 268.75 262.75Q269.0 262.5 269.0 262.0Q269.0 262.0 269.0 261.75Q269.0 261.5 268.5 261.5ZM403.5 251.5V244.5Q403.5 242.0 403.5 240.0Q403.5 238.0 403.0 236.0Q403.0 221.5 400.0 217.25Q397.0 213.0 381.0 213.0Q373.5 213.0 357.75 213.25Q342.0 213.5 324.25 214.5Q306.5 215.5 292.5 217.75Q278.5 220.0 274.5 224.5Q266.0 231.5 266.0 234.0Q266.0 238.0 281.5 247.5Q288.0 251.0 295.5 253.25Q303.0 255.5 315.5 256.5Q328.0 257.5 349.5 257.5Q402.0 257.5 402.0 265.0V266.5Q400.0 269.5 381.0 271.0Q362.0 272.5 336.5 272.5Q309.0 273.0 297.0 273.25Q285.0 273.5 285.0 274.5L286.0 275.5Q293.5 280.5 293.5 285.5Q293.5 290.0 287.0 290.0Q284.5 290.0 276.0 287.5Q274.0 285.5 269.5 285.5Q264.5 285.5 260.5 289.25Q256.5 293.0 256.5 298.5Q256.5 309.5 265.0 315.5Q273.5 321.5 285.75 324.25Q298.0 327.0 310.25 327.5Q322.5 328.0 329.5 328.0H343.0L391.5 326.5L390.0 308.5Q390.0 303.0 391.25 294.0Q392.5 285.0 398.0 281.5Q403.5 277.0 404.0 257.0Q404.0 256.0 404.0 254.5Q404.0 253.0 403.5 251.5ZM421.0 326.5V326.0Q409.0 319.5 406.0 319.5Q404.0 319.5 404.0 327.0Q404.0 333.5 406.5 333.5Q408.5 333.5 413.0 332.0Q422.0 330.0 427.0 329.5Q425.0 328.0 421.0 326.5ZM436.5 262.0Q430.5 257.5 425.0 257.5Q420.0 257.5 420.0 263.0Q420.0 266.5 422.5 266.5Q424.0 266.5 425.0 266.0Q429.0 265.0 432.5 264.25Q436.0 263.5 438.0 263.0Q437.5 263.0 436.5 262.0ZM173.5 142.0Q173.5 139.5 171.5 137.75Q169.5 136.0 167.0 136.0L166.0 136.5H165.5Q163.0 139.0 163.0 141.0Q163.0 143.5 168.0 143.5Q173.5 143.5 173.5 142.0ZM256.0 199.0 215.5 179.5Q174.5 159.5 158.5 159.0Q156.5 159.5 154.0 160.25Q151.5 161.0 150.5 162.0Q147.0 165.0 147.0 176.0Q147.0 182.5 148.5 189.75Q150.0 197.0 152.5 202.0Q155.0 205.0 164.0 211.0Q173.0 217.0 185.75 224.5Q198.5 232.0 211.25 239.0Q224.0 246.0 234.25 250.75Q244.5 255.5 248.5 256.5Q248.5 255.5 248.75 253.75Q249.0 252.0 249.5 250.0Q250.5 245.5 251.25 239.75Q252.0 234.0 252.5 227.5ZM433.0 201.0 439.0 198.5 432.5 195.5Q427.5 192.5 425.0 192.5Q424.0 192.5 422.0 195.5Q420.5 198.5 420.5 202.0Q420.5 204.0 422.5 204.0Q424.5 204.0 427.25 203.0Q430.0 202.0 433.0 201.0ZM226.5 70.5V70.0Q227.5 69.0 227.5 67.0V66.5Q225.0 66.5 220.25 71.5Q215.5 76.5 215.0 80.0Q217.5 80.0 221.25 77.0Q225.0 74.0 226.5 70.5ZM250.5 109.5Q238.5 102.5 231.25 99.25Q224.0 96.0 218.5 96.0Q211.5 96.0 203.5 100.0Q195.5 104.0 189.75 110.75Q184.0 117.5 184.0 125.0Q184.0 133.0 188.5 140.0Q190.0 143.0 198.25 149.0Q206.5 155.0 217.5 161.5Q228.5 168.0 238.75 173.25Q249.0 178.5 254.0 179.5Q256.0 175.0 258.75 165.75Q261.5 156.5 263.5 146.5Q265.5 136.5 265.5 131.5Q265.5 120.0 250.5 109.5ZM448.5 130.0Q441.0 124.0 437.5 124.0Q435.0 124.0 435.0 134.0Q435.0 141.5 437.5 141.5Q438.0 141.5 438.75 141.25Q439.5 141.0 440.5 141.0L442.0 140.5Q453.5 135.5 453.5 135.0Q453.5 135.0 450.5 132.0Q450.0 130.5 448.5 130.0ZM245.0 17.0Q245.0 10.0 255.5 10.0Q261.5 10.0 261.5 15.5Q261.5 19.0 255.0 33.5Q250.0 43.0 245.5 55.25Q241.0 67.5 241.0 79.0Q241.0 85.5 248.5 91.5Q256.0 97.5 262.0 97.5Q263.0 97.5 264.0 95.5Q267.0 87.5 272.0 87.5Q279.5 87.5 283.0 101.5Q287.0 116.5 305.5 122.5Q324.0 128.5 366.5 128.5Q391.0 128.5 404.5 130.25Q418.0 132.0 418.0 136.0L417.5 137.5Q415.5 141.0 397.0 142.25Q378.5 143.5 352.5 143.5Q325.5 143.5 312.75 144.25Q300.0 145.0 294.25 147.5Q288.5 150.0 282.5 156.0Q272.0 166.5 272.0 173.5Q272.0 182.5 290.5 192.0Q299.0 196.0 309.25 198.0Q319.5 200.0 339.0 200.0Q341.5 200.0 343.5 200.0Q345.5 200.0 347.5 199.5H358.5L407.5 197.5L406.0 181.0Q405.5 178.5 405.5 176.25Q405.5 174.0 405.5 172.0Q405.5 164.5 407.75 161.75Q410.0 159.0 415.0 159.0Q418.0 159.0 419.0 152.0Q420.0 145.0 420.0 124.0V80.0L436.0 99.5Q443.5 108.5 452.5 114.0Q461.5 119.5 475.75 122.75Q490.0 126.0 512.5 127.25Q535.0 128.5 569.5 128.5Q594.0 128.5 613.75 129.5Q633.5 130.5 645.25 132.0Q657.0 133.5 657.0 136.0Q657.0 138.0 643.5 139.75Q630.0 141.5 607.75 142.75Q585.5 144.0 558.0 145.0Q521.5 145.5 498.5 146.75Q475.5 148.0 462.25 150.5Q449.0 153.0 442.25 157.5Q435.5 162.0 431.5 169.0L430.0 171.5Q429.5 172.5 429.0 173.25Q428.5 174.0 428.5 175.0Q428.5 177.5 443.0 184.5Q450.5 187.5 462.75 189.5Q475.0 191.5 496.25 192.75Q517.5 194.0 551.0 195.0Q588.0 196.0 612.5 199.0Q637.0 202.0 637.0 204.5L635.5 205.5Q633.5 207.0 618.0 208.25Q602.5 209.5 579.25 210.5Q556.0 211.5 530.0 211.5Q479.5 212.5 455.75 214.25Q432.0 216.0 428.5 220.0Q421.0 226.0 421.0 230.5Q421.0 237.0 438.5 245.0Q446.0 249.0 456.75 251.25Q467.5 253.5 488.0 254.5Q508.5 255.5 545.0 256.0Q570.0 256.5 590.75 258.0Q611.5 259.5 624.0 261.25Q636.5 263.0 636.5 265.5Q636.5 267.0 623.0 268.75Q609.5 270.5 587.25 271.75Q565.0 273.0 537.5 274.0Q506.0 274.5 486.25 275.25Q466.5 276.0 455.0 277.0Q443.5 278.0 437.0 280.0Q430.5 282.0 425.5 285.0Q420.5 288.5 416.5 291.5Q412.5 294.5 411.5 296.5Q414.0 300.0 420.5 304.0Q427.0 308.0 434.0 312.0Q442.0 316.5 449.0 318.75Q456.0 321.0 466.25 322.0Q476.5 323.0 494.0 323.25Q511.5 323.5 540.0 323.5Q623.0 323.5 623.0 331.5V332.5Q621.5 335.5 596.5 337.25Q571.5 339.0 531.5 339.0Q468.0 339.0 438.75 343.25Q409.5 347.5 405.5 356.5Q402.5 365.0 396.5 365.0Q389.0 365.0 389.0 351.5Q389.0 347.5 385.75 346.0Q382.5 344.5 366.5 344.5Q359.5 344.5 350.0 344.5Q340.5 344.5 327.5 345.0Q298.5 345.5 284.25 346.5Q270.0 347.5 264.5 350.0Q259.0 352.5 256.0 357.5Q252.5 364.0 248.25 366.75Q244.0 369.5 241.5 369.5Q236.5 369.5 236.5 364.0Q236.5 362.5 236.75 360.75Q237.0 359.0 237.5 357.0Q238.0 356.0 238.0 354.5Q238.0 351.0 232.75 347.0Q227.5 343.0 213.0 335.5Q198.5 328.0 171.5 315.0Q143.5 300.5 127.0 293.5Q110.5 286.5 100.25 284.0Q90.0 281.5 79.5 281.5H73.5Q62.0 281.5 49.25 282.25Q36.5 283.0 29.5 284.5L12.5 288.5L10.0 285.5L30.0 270.0Q32.0 268.5 38.25 263.25Q44.5 258.0 52.5 251.0Q60.5 244.0 67.25 237.75Q74.0 231.5 77.0 228.5Q76.0 228.5 73.0 229.5Q71.5 230.0 69.0 230.0Q64.5 230.0 64.5 226.0Q64.5 222.0 88.0 200.0Q98.0 190.0 110.75 176.0Q123.5 162.0 135.5 148.25Q147.5 134.5 155.25 124.5Q163.0 114.5 163.0 112.0Q163.0 110.5 175.5 96.5Q188.0 82.5 205.0 64.0Q221.0 46.5 233.0 32.75Q245.0 19.0 245.0 17.0ZM270.5 205.0V206.0Z" fill="black" /></svg>