<svg xmlns="http://www.w3.org/2000/svg" width="494.5" height="458.0" viewBox="0 0 494.5 458.0"><path d="M87.0 210.0 70.5 203.0Q64.0 199.0 53.5 190.75Q43.0 182.5 38.0 175.0L30.5 165.5V255.5L42.5 245.0Q49.5 238.0 59.25 230.0Q69.0 222.0 75.0 218.0ZM328.0 208.5 326.0 207.0Q321.5 204.5 313.75 198.5Q306.0 192.5 300.0 186.5L291.0 177.0V239.5L311.5 226.0Q329.5 213.5 329.5 210.5Q329.5 210.0 329.0 209.5Q328.5 209.0 328.0 208.5ZM179.5 32.5Q179.5 32.0 173.25 31.75Q167.0 31.5 158.0 31.5Q147.0 31.5 141.75 32.25Q136.5 33.0 136.5 37.0Q136.5 39.5 138.25 44.75Q140.0 50.0 142.5 57.0Q143.0 59.0 143.5 60.5Q144.0 62.0 144.5 64.5Q148.5 74.5 151.5 86.5Q154.5 98.5 155.0 106.5Q156.5 103.0 158.75 96.5Q161.0 90.0 164.0 80.5Q170.5 62.5 174.75 48.75Q179.0 35.0 179.5 32.5ZM219.5 51.5Q216.0 41.0 213.75 33.0Q211.5 25.0 211.0 25.0Q205.5 25.0 199.0 38.5Q192.5 52.0 186.5 73.0Q180.5 94.0 176.75 117.0Q173.0 140.0 173.0 158.5V199.0H207.5Q227.0 199.0 235.75 197.25Q244.5 195.5 246.5 191.5Q246.0 170.5 241.75 145.75Q237.5 121.0 231.5 96.25Q225.5 71.5 219.5 51.5ZM276.5 38.0V37.0Q277.5 36.0 277.5 34.0Q277.5 32.5 273.5 32.0Q269.5 31.5 258.5 31.5Q249.0 31.5 242.25 31.75Q235.5 32.0 235.5 32.5Q235.5 35.0 238.75 48.5Q242.0 62.0 245.5 78.5L253.5 110.0L261.5 85.0Q265.5 70.5 270.0 56.25Q274.5 42.0 276.5 38.0ZM114.5 25.5Q114.0 24.5 113.25 22.75Q112.5 21.0 112.5 20.5Q112.5 15.0 120.0 12.5Q127.5 10.0 150.5 10.0Q157.5 10.0 174.5 10.25Q191.5 10.5 212.75 11.25Q234.0 12.0 254.0 13.0Q274.0 14.0 287.75 15.0Q301.5 16.0 303.0 17.5V18.5Q303.0 22.0 298.5 34.75Q294.0 47.5 287.0 64.5Q282.0 77.0 279.0 86.5Q276.0 96.0 274.0 107.75Q272.0 119.5 271.0 138.5Q270.0 157.5 269.5 188.25Q269.0 219.0 268.5 267.5Q268.0 311.5 267.75 349.25Q267.5 387.0 267.25 410.75Q267.0 434.5 267.0 436.5Q267.0 441.5 264.5 444.75Q262.0 448.0 257.5 448.0Q253.0 448.0 250.5 416.25Q248.0 384.5 248.0 326.0V211.0L237.5 214.0Q231.5 215.0 219.75 216.25Q208.0 217.5 196.5 217.5H173.0V330.0Q173.0 386.0 170.75 417.0Q168.5 448.0 164.0 448.0Q159.5 448.0 157.0 417.0Q154.5 386.0 154.5 330.0V217.0L141.0 214.0Q140.0 213.5 137.0 213.5Q126.5 213.5 108.25 222.75Q90.0 232.0 71.0 246.25Q52.0 260.5 38.0 275.5Q30.0 285.0 22.75 291.75Q15.5 298.5 13.5 298.5L11.0 298.0Q10.0 295.0 10.0 275.5Q10.0 264.5 10.0 249.75Q10.0 235.0 10.5 217.5L11.0 203.0Q13.5 112.5 22.5 112.5Q29.0 112.5 32.5 130.5Q34.0 137.0 42.0 147.75Q50.0 158.5 60.0 168.5Q70.0 178.5 77.0 184.25Q84.0 190.0 94.0 192.0Q104.0 194.0 121.5 194.0Q127.0 194.0 134.0 194.0Q141.0 194.0 149.0 193.5Q149.0 170.0 143.0 139.5Q137.0 109.0 129.0 78.75Q121.0 48.5 114.5 25.5ZM273.5 205.0Q273.5 185.0 274.25 168.25Q275.0 151.5 276.75 141.25Q278.5 131.0 280.5 131.0Q283.0 131.0 289.75 139.0Q296.5 147.0 303.5 157.5Q309.5 167.5 317.75 176.75Q326.0 186.0 331.0 187.5Q333.5 189.5 345.5 191.25Q357.5 193.0 374.75 194.0Q392.0 195.0 411.0 195.5Q431.0 196.0 447.75 197.0Q464.5 198.0 474.5 199.25Q484.5 200.5 484.5 203.0Q484.5 206.5 472.75 209.5Q461.0 212.5 444.5 214.5Q428.0 216.5 412.5 216.5Q406.0 216.5 400.0 216.25Q394.0 216.0 389.5 215.0Q387.5 214.5 385.75 214.5Q384.0 214.5 382.0 214.5Q363.5 214.5 341.0 227.25Q318.5 240.0 301.0 260.0Q294.0 268.0 287.25 274.0Q280.5 280.0 279.5 280.0Q277.5 280.0 275.5 258.0Q273.5 236.0 273.5 205.0Z" fill="black" /></svg>