<svg xmlns="http://www.w3.org/2000/svg" width="556.0" height="458.5" viewBox="0 0 556.0 458.5"><path d="M84.5 272.0Q77.0 257.5 70.5 257.5Q67.0 257.5 62.5 261.25Q58.0 265.0 53.5 271.0L43.5 282.5L64.5 284.0Q69.0 284.5 73.25 284.5Q77.5 284.5 80.5 284.5H90.0L88.0 280.5Q87.5 278.5 86.5 276.25Q85.5 274.0 84.5 272.0ZM106.5 178.0Q104.5 178.5 97.25 178.5Q90.0 178.5 80.0 178.5Q70.5 179.0 63.0 179.25Q55.5 179.5 55.5 179.5Q55.5 182.5 59.0 191.25Q62.5 200.0 66.75 207.75Q71.0 215.5 72.0 215.5Q74.5 215.5 80.0 210.75Q85.5 206.0 91.5 199.25Q97.5 192.5 101.75 186.5Q106.0 180.5 106.5 178.0ZM265.0 152.5Q265.0 151.5 259.0 151.0Q253.0 150.5 246.5 150.5Q242.0 150.5 238.25 151.0Q234.5 151.5 233.0 152.5Q233.5 156.0 236.25 163.5Q239.0 171.0 242.25 177.75Q245.5 184.5 247.0 186.0Q249.0 185.0 253.25 177.75Q257.5 170.5 261.25 162.75Q265.0 155.0 265.0 152.5ZM304.5 110.5Q301.0 109.5 298.0 108.5Q295.0 107.5 292.5 106.5Q277.0 100.5 266.75 97.5Q256.5 94.5 248.0 94.5Q237.0 94.5 225.0 101.25Q213.0 108.0 192.5 122.0L188.0 125.5Q150.5 151.5 124.5 181.25Q98.5 211.0 93.0 234.0V236.5Q92.0 237.5 92.0 239.5Q92.0 251.0 99.25 266.0Q106.5 281.0 118.75 296.0Q131.0 311.0 146.5 323.5Q155.0 329.0 163.0 333.5Q171.0 338.0 174.5 339.0Q177.5 337.5 184.0 337.5Q189.0 337.5 195.25 338.25Q201.5 339.0 208.5 340.0Q216.5 342.0 224.0 343.25Q231.5 344.5 235.5 344.5H237.0Q238.0 343.0 238.5 334.5Q239.0 326.0 239.5 313.75Q240.0 301.5 240.25 289.25Q240.5 277.0 240.5 268.25Q240.5 259.5 240.5 257.5Q241.0 254.0 241.0 250.75Q241.0 247.5 241.0 244.0Q241.0 228.0 239.5 218.25Q238.0 208.5 234.5 199.5Q231.0 190.5 225.0 178.0Q218.0 163.5 213.25 152.25Q208.5 141.0 208.5 140.5Q208.5 138.0 221.0 136.75Q233.5 135.5 252.5 135.5Q270.5 135.5 283.25 136.75Q296.0 138.0 296.0 141.0Q296.0 142.5 291.0 149.75Q286.0 157.0 279.5 165.5Q273.5 173.0 269.75 180.25Q266.0 187.5 264.0 197.0Q262.0 206.5 260.0 222.5Q258.5 234.0 257.5 249.25Q256.5 264.5 256.0 279.5Q255.5 294.5 255.5 306.5V345.5L266.5 342.5Q272.0 340.5 287.75 333.5Q303.5 326.5 325.5 316.0Q347.5 305.5 371.0 293.75Q394.5 282.0 416.25 271.0Q438.0 260.0 453.5 251.75Q469.0 243.5 474.0 240.5Q472.0 236.0 459.0 223.5Q446.0 211.0 425.0 193.0Q400.0 172.5 383.0 158.75Q366.0 145.0 353.25 136.0Q340.5 127.0 329.25 121.25Q318.0 115.5 304.5 110.5ZM305.5 53.5Q305.5 46.5 304.5 42.25Q303.5 38.0 301.5 38.0Q299.0 38.0 290.75 43.25Q282.5 48.5 274.5 54.75Q266.5 61.0 264.0 64.0Q265.0 65.0 265.0 66.5Q265.0 68.0 264.25 70.5Q263.5 73.0 261.5 74.5H261.0Q262.0 76.5 269.0 79.75Q276.0 83.0 287.5 87.0L301.0 91.5Q304.5 92.5 306.75 93.25Q309.0 94.0 311.0 94.5Q315.0 96.0 316.25 96.5Q317.5 97.0 317.5 97.0Q317.0 95.5 316.0 93.0Q315.0 90.5 312.5 88.5Q310.0 81.0 307.75 71.25Q305.5 61.5 305.5 53.5ZM510.5 53.0 518.0 38.0H494.5Q480.0 38.0 475.0 38.5Q470.0 39.0 470.0 41.5Q470.0 42.0 470.25 43.25Q470.5 44.5 471.0 45.5Q471.5 47.5 472.5 51.0Q473.5 54.5 474.5 58.0Q475.5 64.5 477.0 71.25Q478.5 78.0 480.5 84.5Q482.5 92.5 484.5 99.25Q486.5 106.0 488.0 109.5Q489.0 108.0 490.75 104.25Q492.5 100.5 494.5 96.0Q497.0 86.0 502.0 73.25Q507.0 60.5 510.5 53.0ZM265.5 368.0 275.0 358.0H239.0Q218.5 358.0 209.25 358.25Q200.0 358.5 200.0 359.5Q200.0 361.0 205.5 365.0Q208.5 367.0 211.75 374.0Q215.0 381.0 215.5 387.5Q219.0 403.0 228.5 414.5Q230.5 413.5 232.75 410.5Q235.0 407.5 239.0 401.0Q244.5 394.0 252.5 384.25Q260.5 374.5 265.5 368.0ZM289.0 25.0Q299.5 18.0 306.75 14.0Q314.0 10.0 318.0 10.0Q324.0 10.0 324.0 16.5Q324.0 19.5 322.0 22.5Q322.0 24.5 321.0 26.5Q319.5 30.0 318.5 34.0Q317.5 38.0 317.5 42.5Q317.5 53.5 323.25 68.0Q329.0 82.5 338.0 94.0Q343.0 99.0 355.75 111.0Q368.5 123.0 385.75 137.75Q403.0 152.5 421.0 167.5L482.0 219.5L482.5 204.5Q483.0 202.0 483.0 199.25Q483.0 196.5 483.0 193.0Q483.0 170.0 476.75 136.5Q470.5 103.0 461.0 69.0L457.5 60.0Q454.0 48.0 451.25 38.25Q448.5 28.5 448.5 25.0V24.0Q449.5 22.0 455.0 21.25Q460.5 20.5 469.0 20.5Q479.0 20.5 491.75 20.75Q504.5 21.0 516.25 21.75Q528.0 22.5 536.25 23.5Q544.5 24.5 545.5 25.5L546.0 27.5Q546.0 33.0 536.5 43.5Q531.5 48.5 525.5 59.5Q519.5 70.5 515.5 82.0Q512.0 91.0 509.5 102.75Q507.0 114.5 505.0 133.5Q503.0 152.5 501.25 182.5Q499.5 212.5 497.5 258.0Q496.5 299.0 494.0 331.0Q491.5 363.0 488.75 381.75Q486.0 400.5 483.5 400.5L482.5 399.0Q480.5 396.5 479.75 387.25Q479.0 378.0 479.0 366.0Q479.0 356.0 479.5 344.75Q480.0 333.5 480.5 322.5Q481.5 308.5 482.0 298.0Q482.5 287.5 482.5 279.5Q482.5 269.0 482.25 264.25Q482.0 259.5 482.0 259.5Q478.5 259.5 465.25 265.5Q452.0 271.5 433.25 281.0Q414.5 290.5 393.25 302.25Q372.0 314.0 352.25 325.5Q332.5 337.0 317.25 346.75Q302.0 356.5 295.5 362.0Q286.5 371.0 276.25 383.0Q266.0 395.0 256.5 407.0Q247.0 419.0 241.0 428.0Q235.0 437.0 235.0 440.0Q235.0 443.0 232.5 445.75Q230.0 448.5 226.5 448.5Q223.0 448.5 220.25 445.75Q217.5 443.0 217.5 440.0Q217.5 437.5 213.75 427.0Q210.0 416.5 204.5 405.0Q199.5 392.5 193.75 384.0Q188.0 375.5 178.75 367.5Q169.5 359.5 154.0 348.0Q126.0 328.0 109.0 317.5Q92.0 307.0 80.75 303.0Q69.5 299.0 58.0 299.0Q49.0 299.0 40.25 301.0Q31.5 303.0 29.0 304.0Q25.5 306.5 22.0 307.5Q18.5 308.5 16.0 308.5Q10.0 308.5 10.0 302.5Q10.0 294.5 20.5 282.5Q25.5 276.0 31.25 269.75Q37.0 263.5 42.5 257.5Q44.0 255.0 45.75 253.25Q47.5 251.5 49.5 249.5L60.0 234.5L44.0 201.0Q37.5 186.5 33.25 175.25Q29.0 164.0 29.0 161.0V159.0Q32.0 157.5 35.0 157.5Q43.5 157.5 54.5 160.5Q65.0 163.5 78.5 163.5Q81.5 163.5 84.0 163.5Q86.5 163.5 88.5 163.0Q96.0 161.0 110.25 153.75Q124.5 146.5 141.0 136.5Q157.5 126.5 172.75 116.0Q188.0 105.5 198.5 97.25Q209.0 89.0 210.5 85.5V84.0Q210.5 74.0 237.5 58.0Q250.5 52.0 265.25 41.75Q280.0 31.5 289.0 25.0Z" fill="black" /></svg>