<svg xmlns="http://www.w3.org/2000/svg" width="702.5" height="388.5" viewBox="0 0 702.5 388.5"><path d="M27.0 234.5 28.0 244.0 52.0 223.5 30.0 199.0 28.5 206.5Q27.5 210.0 27.0 215.0Q26.5 220.0 26.5 225.5Q26.5 229.0 27.0 230.5ZM131.0 295.0Q127.0 292.5 124.0 291.0Q121.0 289.5 120.5 289.5V313.5Q120.5 322.0 120.75 328.75Q121.0 335.5 121.5 337.0Q124.0 335.5 128.5 329.0Q133.0 322.5 136.5 315.25Q140.0 308.0 140.0 305.0Q140.0 303.5 137.25 300.5Q134.5 297.5 131.0 295.0ZM287.0 275.0Q283.5 273.5 276.75 268.5Q270.0 263.5 264.5 258.5L255.5 250.5L255.0 254.5Q254.5 266.0 252.75 278.25Q251.0 290.5 249.0 298.0V299.5Q248.0 301.5 248.0 303.0Q248.0 303.5 248.25 303.75Q248.5 304.0 248.5 304.0Q249.5 303.5 251.75 302.25Q254.0 301.0 256.5 297.5Q260.0 293.5 266.5 289.25Q273.0 285.0 279.0 281.5Q288.0 278.0 289.5 276.5Q289.0 276.0 288.25 275.75Q287.5 275.5 287.0 275.0ZM156.5 163.5Q156.5 162.0 148.5 162.0Q142.5 162.0 141.0 161.5Q141.5 163.0 143.0 167.5Q144.5 172.0 146.5 177.5L149.5 186.0L152.0 180.0Q154.0 174.5 155.25 169.5Q156.5 164.5 156.5 163.5ZM189.0 288.5V243.0Q189.0 222.0 188.5 210.25Q188.0 198.5 186.0 191.0Q184.0 183.5 179.5 175.5L173.0 160.5L166.0 183.0Q158.5 206.0 155.75 232.25Q153.0 258.5 153.0 282.5Q153.0 289.0 154.75 291.25Q156.5 293.5 159.5 294.5H162.0Q163.0 295.0 164.5 295.0Q173.0 295.0 180.5 292.5ZM147.0 101.5Q145.5 99.5 142.5 96.75Q139.5 94.0 137.0 93.0L135.5 92.0Q133.5 91.0 133.0 91.0Q132.5 91.0 130.5 98.0L129.5 102.5Q129.0 105.5 128.0 110.0Q126.5 119.0 124.0 126.0Q121.0 137.0 121.0 143.5Q121.0 144.5 121.5 144.5Q125.5 144.5 139.5 136.5Q149.5 131.5 159.5 128.0Q169.5 124.5 173.5 124.5Q183.0 124.5 183.0 122.5Q183.0 119.5 169.0 114.0Q161.0 110.0 154.75 106.75Q148.5 103.5 147.0 101.5ZM204.5 173.5 205.5 170.0Q207.0 164.5 207.0 163.0Q207.0 162.0 199.0 162.0Q191.0 162.0 191.0 163.0Q191.0 163.5 191.25 164.0Q191.5 164.5 191.5 165.0L192.5 167.5Q195.0 174.0 197.0 181.0L199.0 186.0Q200.5 186.0 204.5 173.5ZM270.5 138.0Q261.5 137.5 254.0 137.25Q246.5 137.0 239.5 136.5Q225.5 135.5 215.25 135.0Q205.0 134.5 198.0 134.5Q186.5 134.5 179.25 136.0Q172.0 137.5 162.5 140.5Q155.0 143.0 150.0 145.0Q145.0 147.0 145.0 148.0Q145.0 149.0 154.0 149.0H156.0Q160.0 148.5 167.5 148.5Q175.0 148.5 183.0 148.5H196.0L228.0 149.0L216.0 182.0Q212.5 193.5 209.25 210.0Q206.0 226.5 204.0 243.0Q202.0 259.5 202.0 271.0Q202.0 276.5 202.25 280.25Q202.5 284.0 203.0 284.0Q207.5 284.0 214.75 281.5Q222.0 279.0 228.5 275.5Q235.0 272.0 237.5 269.5Q239.0 267.0 240.5 260.25Q242.0 253.5 242.0 247.0Q242.0 238.5 243.75 233.0Q245.5 227.5 247.5 227.5Q249.0 227.5 255.0 231.25Q261.0 235.0 267.5 241.5Q272.5 247.5 282.75 254.5Q293.0 261.5 301.0 266.0Q309.5 270.0 316.75 272.0Q324.0 274.0 336.25 274.75Q348.5 275.5 371.5 275.5H421.0L435.5 253.5Q436.5 251.5 438.0 249.25Q439.5 247.0 440.5 245.0Q444.5 238.0 448.0 232.0Q451.5 226.0 452.0 224.0Q452.5 223.0 452.5 221.5Q452.5 213.0 438.75 200.75Q425.0 188.5 402.5 177.5Q386.0 168.0 375.75 165.0Q365.5 162.0 352.5 162.0Q340.0 162.0 335.0 161.5Q330.0 161.0 330.0 157.5Q330.0 155.0 334.0 151.0L335.0 149.5Q338.0 146.5 340.0 143.5Q335.0 142.5 315.25 141.0Q295.5 139.5 270.5 138.0ZM464.5 281.5Q464.5 279.0 463.25 273.75Q462.0 268.5 459.5 262.0L455.0 248.0L437.0 276.0Q432.5 282.5 429.5 286.75Q426.5 291.0 425.5 293.5Q427.5 293.0 430.5 290.5Q437.0 288.0 443.5 286.0Q450.0 284.0 455.0 284.0Q463.5 284.0 464.5 281.5ZM584.0 279.5 579.0 270.5Q576.0 265.0 573.5 257.75Q571.0 250.5 570.0 246.5L569.0 243.5Q567.0 244.5 555.0 267.0Q549.5 275.0 545.0 282.5Q540.5 290.0 538.5 294.0Q540.0 293.5 541.5 292.5Q543.0 291.5 545.0 290.5Q550.0 288.0 558.25 285.5Q566.5 283.0 572.5 282.0ZM393.0 115.0Q390.5 118.5 383.5 125.75Q376.5 133.0 369.75 139.25Q363.0 145.5 359.5 145.5Q357.5 145.5 357.5 147.0Q357.5 147.5 360.75 148.25Q364.0 149.0 367.5 149.0Q371.5 149.0 374.75 149.0Q378.0 149.0 380.0 149.5H383.0Q383.5 149.5 384.25 146.25Q385.0 143.0 385.5 139.0Q386.5 133.5 388.75 126.75Q391.0 120.0 393.0 115.0ZM444.5 80.0Q442.5 73.5 440.5 68.75Q438.5 64.0 437.5 64.0Q437.0 64.0 432.25 72.0Q427.5 80.0 416.0 101.0L410.0 111.5Q398.5 132.0 398.5 144.5Q398.5 149.0 400.0 149.0Q402.5 149.0 404.5 151.75Q406.5 154.5 406.5 158.5Q407.5 161.0 416.0 168.0Q424.5 175.0 435.5 182.25Q446.5 189.5 455.0 193.0Q455.0 183.0 454.5 167.5Q454.0 152.0 453.0 135.25Q452.0 118.5 450.0 103.75Q448.0 89.0 444.5 80.0ZM487.5 43.0Q487.5 41.0 482.25 40.25Q477.0 39.5 461.0 39.5Q438.5 39.5 438.5 41.5Q438.5 42.5 440.5 45.25Q442.5 48.0 446.0 52.5Q448.5 56.0 452.75 64.75Q457.0 73.5 459.5 82.0L464.0 96.5L471.0 78.5Q475.0 67.5 479.0 59.25Q483.0 51.0 485.0 49.5Q487.5 47.0 487.5 43.0ZM570.0 70.0Q570.0 69.5 563.25 69.25Q556.5 69.0 547.5 69.0Q538.0 69.0 532.0 69.25Q526.0 69.5 526.0 69.5Q526.0 70.0 528.0 74.25Q530.0 78.5 532.5 83.0Q536.5 88.0 540.25 96.75Q544.0 105.5 546.0 112.5Q547.5 118.5 548.0 120.25Q548.5 122.0 548.5 122.0Q550.0 118.5 551.75 114.75Q553.5 111.0 554.5 107.5Q556.0 105.0 559.75 96.25Q563.5 87.5 566.75 79.25Q570.0 71.0 570.0 70.0ZM656.5 45.5Q659.0 41.5 660.75 37.25Q662.5 33.0 663.0 31.0H662.0Q660.5 31.0 658.25 30.75Q656.0 30.5 652.5 30.5Q649.0 30.5 644.25 30.75Q639.5 31.0 634.5 31.5H632.5L606.0 33.5L615.5 48.0Q620.5 55.5 625.5 66.5Q630.5 77.5 632.5 85.5L635.0 95.5L640.0 82.0Q643.0 72.5 648.0 62.0Q653.0 51.5 656.5 45.5ZM669.0 15.0Q672.0 12.5 675.0 11.25Q678.0 10.0 680.0 10.0Q684.5 10.0 684.5 15.0Q684.5 20.0 673.0 43.0Q668.0 52.5 661.5 67.0Q655.0 81.5 650.0 93.5Q646.0 103.5 643.5 112.0Q641.0 120.5 640.0 131.75Q639.0 143.0 638.5 161.75Q638.0 180.5 638.0 210.5V297.5L663.5 307.5Q692.5 318.5 692.5 322.5Q692.5 325.5 688.0 325.5Q683.5 325.5 669.25 321.5Q655.0 317.5 634.5 311.0Q610.0 302.5 597.75 298.75Q585.5 295.0 578.5 295.0Q575.5 295.0 569.0 296.75Q562.5 298.5 557.0 301.0Q551.5 303.5 551.5 307.0Q551.5 309.5 554.0 313.0Q557.0 316.0 557.0 318.0Q557.0 321.5 552.5 321.5Q551.0 321.5 549.0 321.25Q547.0 321.0 544.5 320.5Q543.5 320.0 542.0 320.0Q540.5 320.0 539.5 319.5Q536.5 319.0 533.75 318.75Q531.0 318.5 529.0 318.5Q525.0 318.5 523.5 321.5Q522.0 326.0 519.5 328.0Q517.0 330.0 515.0 330.0Q509.5 329.0 509.5 322.0Q509.5 321.0 509.5 319.5Q509.5 318.0 510.0 317.0Q511.0 314.0 511.0 312.5Q511.0 310.0 504.5 307.25Q498.0 304.5 489.0 302.0Q480.0 299.5 471.75 298.0Q463.5 296.5 460.0 296.5Q449.5 296.5 439.5 301.75Q429.5 307.0 415.0 317.5Q407.5 322.5 402.25 325.75Q397.0 329.0 394.5 329.0Q390.0 329.0 390.0 324.5Q390.0 320.0 400.0 305.5Q404.0 300.0 407.0 295.25Q410.0 290.5 410.0 290.0Q410.0 289.5 393.25 289.25Q376.5 289.0 353.0 289.0Q326.0 289.0 312.25 289.75Q298.5 290.5 291.5 292.75Q284.5 295.0 277.0 299.0Q270.5 302.5 263.5 309.0Q256.5 315.5 253.0 320.0Q244.5 333.5 239.5 333.5Q234.5 333.5 234.5 322.0Q234.5 320.0 234.75 317.25Q235.0 314.5 235.0 311.5L235.5 309.5V307.5Q236.0 304.0 236.25 300.75Q236.5 297.5 236.5 295.5Q236.5 289.5 233.5 289.5Q231.5 289.5 229.25 290.25Q227.0 291.0 223.0 292.0Q221.5 292.5 220.0 293.0Q218.5 293.5 216.5 294.0Q209.5 296.0 206.5 297.75Q203.5 299.5 203.0 303.75Q202.5 308.0 202.5 318.0Q202.5 328.0 200.5 335.25Q198.5 342.5 195.5 342.5Q193.0 342.5 191.0 335.75Q189.0 329.0 189.0 319.0V303.0L173.0 309.0Q162.0 312.5 158.25 315.75Q154.5 319.0 154.0 324.5Q153.5 331.0 150.5 335.0Q147.5 339.0 144.5 339.0Q141.0 339.0 140.0 332.5Q138.0 335.0 133.75 343.75Q129.5 352.5 126.0 361.0Q119.5 378.5 115.0 378.5Q107.5 378.5 107.5 321.5V305.5Q107.5 287.0 108.5 275.5Q109.5 264.0 111.5 264.0Q112.5 264.0 117.75 267.5Q123.0 271.0 129.0 276.0L138.0 285.0L139.5 264.0V253.0Q139.5 246.0 139.5 241.25Q139.5 236.5 138.5 236.0Q138.0 235.0 126.0 234.5Q114.0 234.0 97.5 234.0Q75.5 234.0 63.5 236.25Q51.5 238.5 44.5 245.25Q37.5 252.0 30.0 265.5Q25.5 273.0 20.75 279.0Q16.0 285.0 14.0 285.0Q10.0 285.0 10.0 273.0Q10.0 270.0 10.25 266.25Q10.5 262.5 11.0 259.0Q12.0 245.0 13.0 231.0Q14.0 217.0 15.5 203.5Q16.5 190.5 19.0 180.5Q21.5 170.5 23.5 170.0Q25.0 170.5 30.25 175.75Q35.5 181.0 40.5 188.0Q50.5 202.0 59.75 209.5Q69.0 217.0 80.75 220.0Q92.5 223.0 110.0 223.0H140.0V210.0Q140.0 202.0 136.75 190.75Q133.5 179.5 129.5 170.75Q125.5 162.0 122.5 162.0Q122.0 162.0 120.0 164.0Q118.0 166.0 116.0 168.5Q112.5 175.0 109.0 175.0Q104.0 175.0 104.0 165.0Q104.0 156.0 108.0 137.5Q111.5 126.0 114.25 111.5Q117.0 97.0 118.0 89.0Q119.0 79.5 121.0 73.5Q123.0 67.5 125.0 67.5Q126.0 67.5 132.25 71.75Q138.5 76.0 145.5 82.0Q160.0 93.0 178.5 102.75Q197.0 112.5 214.75 118.5Q232.5 124.5 244.5 124.5Q254.0 124.5 273.75 125.75Q293.5 127.0 312.0 128.5L356.5 133.0L381.5 108.0Q392.0 97.5 403.25 85.25Q414.5 73.0 419.5 66.5L431.0 53.5L420.5 43.5L405.5 27.0L468.0 25.0Q479.0 24.5 487.75 24.5Q496.5 24.5 501.0 24.5Q506.5 24.5 508.0 25.0L508.5 27.0Q508.5 29.0 506.0 35.25Q503.5 41.5 499.5 50.0Q489.0 70.0 483.0 84.5Q477.0 99.0 473.75 113.0Q470.5 127.0 469.5 144.25Q468.5 161.5 468.5 186.5Q468.5 219.0 470.0 239.25Q471.5 259.5 476.0 270.5Q480.5 281.5 489.25 286.75Q498.0 292.0 512.0 295.0Q513.5 295.5 516.5 295.5Q522.5 295.5 528.5 283.5Q532.0 277.5 533.5 270.5Q535.0 263.5 535.75 246.75Q536.5 230.0 536.5 196.0Q536.5 166.0 535.25 146.5Q534.0 127.0 531.0 114.25Q528.0 101.5 523.0 92.5Q518.0 83.5 510.0 74.5Q500.5 65.0 500.5 61.0L501.0 58.5Q503.5 58.5 509.75 58.25Q516.0 58.0 524.0 58.0Q537.0 57.5 552.5 57.25Q568.0 57.0 578.0 57.0Q590.0 57.0 591.0 59.5Q591.0 61.0 588.25 66.0Q585.5 71.0 582.0 76.5Q563.5 110.5 556.75 150.5Q550.0 190.5 550.0 229.5Q550.0 245.0 551.0 245.0Q552.0 245.0 554.0 240.5Q556.0 236.0 559.5 228.5Q563.0 221.5 566.75 216.0Q570.5 210.5 572.0 210.5Q574.5 210.5 577.0 216.75Q579.5 223.0 580.5 231.5Q583.0 247.0 589.5 260.75Q596.0 274.5 604.5 283.25Q613.0 292.0 620.5 292.0Q621.5 292.0 622.25 268.5Q623.0 245.0 623.0 195.5Q623.0 154.0 622.0 128.25Q621.0 102.5 617.75 87.0Q614.5 71.5 609.0 61.5Q603.5 51.5 594.5 42.0Q587.5 35.0 582.5 28.75Q577.5 22.5 577.5 22.0Q577.5 21.0 590.75 19.5Q604.0 18.0 622.5 18.0Q639.0 18.0 652.75 16.75Q666.5 15.5 669.0 15.0Z" fill="black" /></svg>