<svg xmlns="http://www.w3.org/2000/svg" width="250.0" height="388.5" viewBox="0 0 250.0 388.5"><path d="M59.0 220.5 69.5 213.5 44.5 197.5 46.5 210.5Q48.0 218.5 48.0 227.5Q49.5 226.5 52.5 224.5Q55.5 222.5 59.0 220.5ZM139.5 257.5Q130.0 255.0 119.25 254.75Q108.5 254.5 98.5 254.5Q100.5 257.5 102.5 260.75Q104.5 264.0 106.5 268.0Q116.0 281.5 121.0 283.5V282.5Q121.0 280.0 124.25 275.5Q127.5 271.0 132.5 266.0Q137.5 261.0 139.5 257.5ZM185.0 182.5V166.5Q185.0 159.5 184.75 154.25Q184.5 149.0 184.5 149.0Q183.0 149.0 183.0 153.0Q183.0 156.5 181.0 159.0Q179.0 161.5 175.5 161.5Q173.0 161.5 168.5 164.25Q164.0 167.0 159.5 171.0L152.0 176.5ZM119.5 31.5V31.0Q119.0 31.5 117.5 31.5Q115.0 31.5 113.5 31.0H112.0Q107.5 30.0 103.25 29.5Q99.0 29.0 95.0 29.0Q89.0 29.0 89.0 30.5Q89.0 33.0 96.5 42.0L102.5 49.5L110.0 40.0Q113.5 37.0 116.5 34.25Q119.5 31.5 119.5 31.5ZM108.5 127.0Q106.0 125.5 103.5 123.75Q101.0 122.0 98.5 120.5Q96.5 119.5 94.75 118.25Q93.0 117.0 93.0 117.0Q92.5 117.0 91.5 121.75Q90.5 126.5 89.75 132.5Q89.0 138.5 89.0 142.0Q93.5 142.0 96.0 140.0Q99.0 139.0 103.5 138.5Q108.0 138.0 112.0 138.0Q115.0 138.0 118.5 138.25Q122.0 138.5 125.0 139.5Q123.0 137.5 119.0 134.5Q115.0 131.5 108.5 127.0ZM68.0 243.0Q68.0 240.0 76.5 240.0Q80.5 240.0 88.25 240.5Q96.0 241.0 104.0 242.0Q118.0 243.0 135.25 244.0Q152.5 245.0 163.5 245.0Q175.0 245.0 183.0 246.75Q191.0 248.5 191.0 249.5Q191.0 253.0 183.25 256.25Q175.5 259.5 164.5 263.5Q150.0 268.5 142.25 276.5Q134.5 284.5 131.25 298.25Q128.0 312.0 126.5 336.0Q126.0 353.0 123.25 365.75Q120.5 378.5 119.0 378.5Q115.5 378.5 114.0 366.5Q112.5 354.5 112.5 338.0Q112.5 321.0 112.0 311.75Q111.5 302.5 109.0 296.5Q106.5 290.5 101.0 282.5Q96.5 275.5 89.75 268.0Q83.0 260.5 79.0 257.0Q74.5 252.5 71.25 248.75Q68.0 245.0 68.0 243.0ZM59.5 14.0Q59.5 10.0 66.0 10.0Q67.5 10.0 69.75 10.25Q72.0 10.5 74.0 11.0Q78.5 12.5 92.75 13.75Q107.0 15.0 122.5 16.0Q138.5 17.0 150.75 19.25Q163.0 21.5 163.0 24.0Q163.0 26.0 156.75 29.5Q150.5 33.0 143.5 35.5Q128.0 41.0 120.25 53.0Q112.5 65.0 110.0 87.0L108.0 112.0L142.5 133.5Q151.0 138.5 156.5 141.5Q162.0 144.5 166.5 144.5Q172.0 144.5 177.5 139.5Q183.0 134.5 192.5 125.0Q199.0 118.5 205.25 114.5Q211.5 110.5 213.5 110.5H214.5Q217.0 111.0 217.0 114.0Q217.0 116.5 214.25 123.0Q211.5 129.5 207.5 138.0Q196.0 156.5 196.0 165.5Q196.0 167.0 196.25 168.5Q196.5 170.0 197.0 171.5Q198.0 178.0 203.5 188.25Q209.0 198.5 216.5 208.5Q224.0 218.5 230.5 224.5Q234.0 228.0 237.0 232.75Q240.0 237.5 240.0 240.5Q240.0 244.0 236.5 244.0Q234.5 244.0 227.25 237.5Q220.0 231.0 210.5 221.5Q199.0 209.5 190.75 202.75Q182.5 196.0 172.5 193.25Q162.5 190.5 145.5 190.5Q142.0 190.5 140.0 191.0H135.5Q133.5 191.5 131.5 191.5Q129.5 191.5 128.5 191.5Q121.5 191.5 121.5 187.0Q121.5 182.5 138.0 169.0L141.0 166.5Q145.0 163.0 147.25 161.0Q149.5 159.0 149.5 158.0Q149.5 155.5 120.0 151.0H118.5Q115.0 150.5 112.25 150.25Q109.5 150.0 107.0 150.0Q102.0 150.0 99.25 151.25Q96.5 152.5 93.0 156.5Q88.5 160.0 84.5 162.75Q80.5 165.5 79.5 165.5Q78.5 165.5 76.25 169.5Q74.0 173.5 71.5 179.0Q67.0 186.5 67.0 191.5Q67.0 196.0 72.5 199.75Q78.0 203.5 91.5 210.0Q99.5 214.0 105.25 217.75Q111.0 221.5 111.0 224.0L110.5 225.5Q110.0 226.5 105.25 227.0Q100.5 227.5 95.0 227.5H79.5Q69.0 227.5 59.25 237.5Q49.5 247.5 42.5 260.0Q35.5 272.5 31.5 281.0Q26.5 292.0 21.5 299.5Q16.5 307.0 13.5 307.0H12.5Q10.0 305.5 10.0 303.0Q10.0 299.0 13.0 290.0Q16.0 281.0 21.0 270.0Q27.5 257.5 30.0 250.75Q32.5 244.0 32.5 240.0Q32.5 238.0 31.5 236.0Q28.0 232.5 28.0 228.0Q28.0 225.0 30.5 221.5Q32.0 220.0 32.0 214.5Q32.0 207.5 30.0 199.0Q28.0 190.5 25.5 185.5Q24.0 183.0 24.0 180.5Q24.0 175.5 30.5 175.5Q33.0 175.5 35.75 176.0Q38.5 176.5 42.0 179.0Q48.5 185.5 53.0 185.5Q54.5 185.5 58.75 177.0Q63.0 168.5 67.75 156.5Q72.5 144.5 75.75 133.5Q79.0 122.5 79.0 117.5Q79.0 114.5 78.75 110.75Q78.5 107.0 77.5 104.5Q77.0 102.5 77.0 101.25Q77.0 100.0 77.0 99.0Q77.0 91.5 81.5 91.5Q85.0 91.5 93.5 99.0Q95.5 101.0 96.5 101.5V88.5Q96.5 70.5 92.0 60.5Q87.5 50.5 75.0 36.5Q68.5 29.5 64.0 23.0Q59.5 16.5 59.5 14.0Z" fill="black" /></svg>