<svg xmlns="http://www.w3.org/2000/svg" width="633.0" height="463.5" viewBox="0 0 633.0 463.5"><path d="M93.0 235.5V235.0Q94.5 231.5 96.0 228.25Q97.5 225.0 98.0 222.5Q94.5 225.5 87.25 232.25Q80.0 239.0 72.0 247.0Q64.0 255.0 57.5 261.5Q51.0 268.0 48.5 271.0Q53.5 270.5 60.75 268.75Q68.0 267.0 74.5 264.75Q81.0 262.5 82.5 260.5Q84.0 258.0 86.0 253.5Q88.0 249.0 90.0 243.0Q91.0 240.5 91.5 239.0Q92.0 237.5 93.0 235.5ZM129.0 128.5Q130.0 126.0 130.75 123.75Q131.5 121.5 132.0 119.5Q128.5 121.5 124.75 125.0Q121.0 128.5 117.0 132.5L103.5 146.5H110.0Q119.0 146.5 122.0 143.5Q125.0 140.5 129.0 128.5ZM220.5 216.0 221.5 215.0Q223.5 214.5 223.5 213.0Q223.5 212.0 219.25 207.0Q215.0 202.0 212.5 200.0Q212.5 202.0 212.25 204.0Q212.0 206.0 212.0 209.0Q212.0 214.0 213.0 216.0Q214.0 218.0 215.0 219.0Q217.0 218.5 220.5 216.0ZM220.5 308.0Q214.5 300.5 212.0 300.5V306.0Q212.0 317.5 213.5 317.5Q215.0 317.5 217.25 316.75Q219.5 316.0 220.5 314.5Q222.0 313.5 223.5 313.0Q225.0 312.5 225.0 312.5Q223.5 310.0 220.5 308.0ZM409.0 365.0Q406.0 365.5 402.5 367.0Q399.0 368.5 395.5 371.0Q393.5 372.5 392.5 373.75Q391.5 375.0 390.5 376.0Q397.5 376.0 403.0 374.0Q408.5 372.0 409.0 365.0ZM325.0 225.0H282.0Q261.0 225.0 251.0 225.75Q241.0 226.5 236.5 228.75Q232.0 231.0 227.0 236.0Q222.0 241.5 219.0 247.0Q216.0 252.5 216.0 259.5Q216.0 266.5 219.75 275.0Q223.5 283.5 229.5 290.5L243.5 305.0H282.0Q299.0 305.0 310.25 304.25Q321.5 303.5 321.5 301.5Q323.0 301.5 323.0 298.0Q323.0 293.5 322.0 286.0Q321.0 278.5 319.5 270.5Q317.5 262.0 316.75 255.5Q316.0 249.0 316.0 244.5Q316.0 234.5 320.0 230.5Q321.5 229.5 323.0 228.0Q324.5 226.5 325.0 225.0ZM376.5 210.5 358.5 197.0Q345.5 187.5 339.5 185.0Q339.5 185.5 339.75 186.25Q340.0 187.0 340.0 188.0Q341.0 193.0 342.25 201.0Q343.5 209.0 343.5 216.0L343.0 226.5ZM374.0 307.0H373.5Q370.0 305.0 362.75 300.5Q355.5 296.0 349.0 291.0Q344.5 286.5 341.5 284.5V287.5Q342.5 290.0 343.0 297.5Q343.5 305.0 343.5 313.0V325.0L353.0 320.0Q361.5 316.0 368.5 313.0Q375.5 310.0 379.5 310.0H380.5Q380.0 308.5 374.0 307.0ZM482.0 192.5Q469.0 183.5 453.5 177.0Q438.0 170.5 422.0 170.5Q396.5 170.5 376.5 185.0Q373.5 187.0 373.5 187.0Q375.0 189.0 382.5 191.75Q390.0 194.5 400.0 197.25Q410.0 200.0 419.0 201.75Q428.0 203.5 432.0 203.5Q438.0 203.5 445.0 203.5Q452.0 203.5 461.5 203.0L495.0 201.0ZM288.5 65.5Q289.5 61.5 290.0 60.0Q288.0 60.5 286.5 61.5Q285.0 62.5 283.0 63.5L279.0 67.0Q277.0 69.0 276.0 69.75Q275.0 70.5 274.0 71.5H279.5Q282.5 71.5 285.0 69.5Q287.5 67.5 288.5 65.5ZM456.5 139.5Q456.5 133.5 455.75 129.5Q455.0 125.5 455.0 125.5Q451.5 129.0 444.0 134.0L436.5 139.5Q430.5 143.5 426.75 146.75Q423.0 150.0 421.5 151.5Q423.0 151.5 424.0 152.0Q432.5 155.0 444.5 155.0L448.0 155.5Q453.0 155.5 454.75 153.0Q456.5 150.5 456.5 139.5ZM68.0 165.0Q68.0 162.0 76.5 151.5Q85.0 141.0 98.5 126.0Q112.0 111.0 127.75 95.0Q143.5 79.0 158.25 65.0Q173.0 51.0 184.0 42.25Q195.0 33.5 198.5 33.5L201.0 35.0V38.5Q201.0 41.5 197.5 49.0Q194.0 56.5 188.5 63.0Q169.0 89.0 157.5 109.5Q146.0 130.0 146.0 140.5Q146.0 150.5 146.5 150.5Q147.5 150.5 151.25 146.75Q155.0 143.0 156.0 142.5Q157.0 142.0 158.0 141.25Q159.0 140.5 159.5 140.0Q165.0 134.5 168.5 134.5Q174.5 134.5 174.5 143.0Q174.5 153.0 168.0 156.5Q167.5 157.5 166.25 158.5Q165.0 159.5 165.0 160.0Q165.0 161.5 169.5 163.75Q174.0 166.0 182.5 170.5L194.5 176.0L193.5 168.0V163.0Q193.5 147.5 201.5 147.5Q204.0 147.5 207.5 151.0Q211.0 154.5 212.5 163.0Q214.0 168.0 218.75 176.25Q223.5 184.5 229.5 190.5L243.5 207.0H282.0Q306.0 207.0 315.0 205.5Q324.0 204.0 324.0 196.5Q324.0 193.0 322.5 186.75Q321.0 180.5 319.5 173.0Q317.5 166.0 316.25 159.0Q315.0 152.0 315.0 147.0Q315.0 133.5 321.5 133.5Q327.5 133.5 332.5 147.0Q334.5 152.0 339.25 158.5Q344.0 165.0 349.25 169.75Q354.5 174.5 357.5 174.5Q358.5 174.5 367.0 168.75Q375.5 163.0 388.25 154.0Q401.0 145.0 414.75 134.25Q428.5 123.5 441.25 113.5Q454.0 103.5 462.0 96.0Q472.0 87.0 481.25 81.25Q490.5 75.5 494.0 75.5L496.5 77.5Q498.5 79.0 498.5 82.0Q498.5 88.5 493.5 92.0H494.5Q485.5 98.5 479.25 115.75Q473.0 133.0 473.0 148.5Q473.0 157.0 474.5 161.75Q476.0 166.5 482.0 171.0Q488.0 175.5 500.5 184.0Q511.0 191.0 517.75 194.75Q524.5 198.5 531.25 200.25Q538.0 202.0 547.5 202.5Q557.0 203.0 573.5 203.0Q597.5 203.0 610.0 205.5Q622.5 208.0 622.5 211.5Q622.5 220.0 582.5 220.5L559.0 221.0L571.0 231.0Q592.5 245.5 592.5 251.5Q592.5 256.5 587.0 256.5Q583.5 256.5 573.5 251.25Q563.5 246.0 550.5 238.0L521.5 219.0L455.0 220.5Q405.5 222.5 382.0 228.5Q358.5 234.5 349.0 247.5Q348.5 248.0 348.25 249.25Q348.0 250.5 347.5 251.5Q345.0 257.5 345.0 259.0Q345.0 267.0 365.0 280.5Q378.0 289.0 388.75 294.0Q399.5 299.0 414.25 301.25Q429.0 303.5 453.5 303.5Q465.5 303.5 481.5 303.0Q497.5 302.5 518.5 301.5Q538.0 301.0 552.25 301.0Q566.5 301.0 578.0 301.0Q603.0 301.0 613.0 303.0Q623.0 305.0 623.0 309.0Q623.0 315.0 603.0 317.0Q583.0 319.0 535.0 319.0Q498.0 319.0 476.25 319.25Q454.5 319.5 454.5 320.0Q454.5 321.5 449.5 330.0Q444.5 338.5 437.5 348.5Q430.5 357.0 426.5 363.25Q422.5 369.5 422.5 375.0Q422.5 381.5 430.25 389.0Q438.0 396.5 453.0 408.0Q467.0 419.0 477.0 429.5Q487.0 440.0 487.0 444.5Q487.0 453.5 481.5 453.5Q477.0 453.5 476.5 450.0Q472.0 445.0 461.0 435.5Q450.0 426.0 436.0 416.25Q422.0 406.5 408.75 399.75Q395.5 393.0 387.0 393.0Q379.0 393.0 370.0 395.5Q361.0 398.0 353.5 403.5Q347.0 405.5 342.75 406.75Q338.5 408.0 336.0 408.0Q329.0 408.0 329.0 402.5Q329.5 400.0 337.25 393.0Q345.0 386.0 357.5 376.5Q370.0 367.0 383.5 357.5Q403.5 344.5 418.5 333.75Q433.5 323.0 433.0 322.0Q424.0 322.0 411.0 323.25Q398.0 324.5 384.25 327.75Q370.5 331.0 360.0 336.75Q349.5 342.5 345.5 352.0Q339.0 369.0 333.0 369.0Q325.0 369.0 325.0 343.0V324.0H285.5Q252.0 324.0 237.75 328.75Q223.5 333.5 219.5 345.5Q219.0 348.0 218.0 350.75Q217.0 353.5 216.0 356.0Q215.5 356.5 214.0 361.5Q212.5 366.5 212.5 367.5L209.5 371.0Q206.5 371.0 204.0 363.5Q201.5 356.0 199.75 345.75Q198.0 335.5 197.25 325.75Q196.5 316.0 196.5 311.5Q195.5 293.0 194.5 279.25Q193.5 265.5 193.5 256.0Q193.5 247.5 194.25 240.25Q195.0 233.0 196.0 226.0Q197.0 222.0 197.0 219.5Q197.0 217.0 197.0 214.5Q197.0 209.5 195.75 206.0Q194.5 202.5 192.0 199.0Q184.0 191.0 172.0 184.5Q160.0 178.0 152.5 178.0Q150.0 178.0 144.5 184.75Q139.0 191.5 132.0 202.0Q125.0 212.5 118.75 223.75Q112.5 235.0 108.25 244.25Q104.0 253.5 104.0 257.5Q104.0 264.5 106.25 269.0Q108.5 273.5 115.75 278.0Q123.0 282.5 138.0 289.5Q176.5 307.0 179.0 320.0Q179.0 327.5 172.0 327.5Q170.0 327.5 165.0 324.75Q160.0 322.0 156.0 319.0Q149.5 315.0 138.0 309.25Q126.5 303.5 113.25 298.25Q100.0 293.0 88.25 289.5Q76.5 286.0 69.5 286.0Q65.0 286.0 59.75 287.0Q54.5 288.0 47.5 289.0Q40.0 290.5 32.75 291.0Q25.5 291.5 21.5 291.5Q19.5 291.5 14.75 290.5Q10.0 289.5 10.0 285.5Q10.0 282.5 15.0 277.0Q20.0 271.5 26.0 267.5Q31.0 263.5 42.75 253.25Q54.5 243.0 69.0 229.5Q83.5 216.0 97.0 202.75Q110.5 189.5 119.25 179.75Q128.0 170.0 128.0 167.0Q117.5 167.0 106.5 167.25Q95.5 167.5 84.5 170.0Q83.0 170.5 79.5 171.0Q76.0 171.5 74.0 171.5Q68.0 171.5 68.0 165.0ZM311.0 19.5Q322.0 10.0 329.0 10.0Q336.0 10.0 336.0 17.5Q336.0 23.0 327.0 35.5Q316.0 46.5 310.75 54.25Q305.5 62.0 305.5 69.0Q305.5 76.5 313.5 85.25Q321.5 94.0 336.0 104.5Q350.5 115.0 360.5 125.0Q370.5 135.0 370.5 138.0Q370.5 144.0 364.5 144.0Q362.0 144.0 351.75 137.0Q341.5 130.0 319.5 113.5Q303.0 102.0 290.5 95.75Q278.0 89.5 268.5 89.5Q261.0 89.5 253.25 91.25Q245.5 93.0 237.0 97.5Q230.0 99.5 224.25 101.0Q218.5 102.5 215.5 102.5H213.5Q212.0 101.5 212.0 100.0Q212.0 96.0 224.75 85.25Q237.5 74.5 255.5 62.0Q274.0 49.0 290.25 36.75Q306.5 24.5 311.0 19.5Z" fill="black" /></svg>