<svg xmlns="http://www.w3.org/2000/svg" width="801.0" height="454.0" viewBox="0 0 801.0 454.0"><path d="M108.0 306.5Q107.5 300.0 105.75 297.0Q104.0 294.0 102.5 293.0Q100.5 293.0 94.5 297.25Q88.5 301.5 83.0 306.25Q77.5 311.0 76.5 313.5Q78.5 315.5 94.5 315.5Q102.5 315.5 105.5 314.25Q108.5 313.0 109.0 311.0Q109.0 309.5 108.0 306.5ZM156.5 223.5Q156.5 222.5 156.25 222.0Q156.0 221.5 156.0 221.5Q150.5 221.5 146.0 228.0Q138.5 234.0 138.5 239.0Q138.5 246.0 151.0 246.0Q161.0 246.0 161.0 243.5Q161.0 243.5 160.75 243.0Q160.5 242.5 160.5 242.0L159.5 237.5Q158.5 234.5 157.5 230.25Q156.5 226.0 156.5 223.5ZM293.5 326.5 235.0 298.5Q201.0 282.5 174.5 273.75Q148.0 265.0 133.5 265.0Q124.5 265.0 122.0 268.5Q121.5 270.5 121.0 272.75Q120.5 275.0 120.5 277.0Q120.5 286.0 124.25 297.75Q128.0 309.5 133.5 316.5Q135.5 319.0 149.0 326.75Q162.5 334.5 182.25 344.5Q202.0 354.5 222.75 364.75Q243.5 375.0 260.5 382.5Q277.5 390.0 285.0 392.5Q285.0 391.5 285.25 389.75Q285.5 388.0 286.0 386.0Q287.0 380.5 287.75 373.5Q288.5 366.5 289.5 359.0ZM207.0 169.5Q207.0 166.5 204.5 164.25Q202.0 162.0 199.5 162.0L198.5 162.5H197.0Q194.5 165.0 194.5 168.0Q194.5 171.0 200.5 171.0Q207.0 171.0 207.0 169.5ZM307.0 238.5 257.5 214.5Q207.5 190.5 189.0 190.0Q186.0 190.5 183.25 191.25Q180.5 192.0 179.5 193.5Q177.0 195.0 176.0 199.5Q175.0 204.0 175.0 210.5Q175.0 229.0 181.5 242.0Q184.5 245.5 195.5 252.75Q206.5 260.0 221.5 269.0Q236.5 278.0 252.0 286.25Q267.5 294.5 280.0 300.5Q292.5 306.5 297.5 307.5Q297.5 304.5 299.0 299.5Q300.0 294.0 300.75 287.25Q301.5 280.5 303.0 272.5ZM271.5 83.0V82.5Q272.5 81.5 272.5 78.5V78.0Q269.0 78.0 263.25 84.25Q257.5 90.5 257.0 94.5Q260.0 94.5 264.75 91.0Q269.5 87.5 271.5 83.0ZM300.0 130.0Q285.5 121.5 277.0 117.75Q268.5 114.0 261.5 114.0Q253.0 114.0 243.25 119.0Q233.5 124.0 226.75 131.75Q220.0 139.5 220.0 148.5Q220.0 159.0 225.0 167.0Q226.5 170.5 236.75 177.5Q247.0 184.5 260.5 192.5Q274.0 200.5 286.25 206.5Q298.5 212.5 304.5 214.0Q307.0 209.0 310.0 197.75Q313.0 186.5 315.5 174.75Q318.0 163.0 318.0 156.5Q318.0 142.5 300.0 130.0ZM539.0 155.0Q530.0 147.5 526.0 147.5Q522.5 147.5 522.5 159.5Q522.5 168.5 526.0 168.5Q526.5 168.5 527.25 168.25Q528.0 168.0 529.5 168.0L531.0 167.5Q537.5 164.5 541.5 163.0Q545.5 161.5 545.5 160.5Q545.5 160.0 544.0 159.25Q542.5 158.5 541.5 157.5Q541.0 155.5 539.0 155.0ZM316.0 400.5 315.5 399.5Q312.5 394.5 309.0 394.5Q305.5 394.5 305.5 398.0Q305.5 399.5 307.75 400.25Q310.0 401.0 312.0 401.0Q313.5 401.0 314.5 400.75Q315.5 400.5 316.0 400.5ZM321.5 313.5V313.0Q320.0 309.0 318.0 308.5Q318.0 309.0 317.75 310.0Q317.5 311.0 317.5 312.0Q317.5 312.5 319.0 314.0Q320.5 315.5 321.5 315.5Q321.5 315.5 321.75 315.25Q322.0 315.0 322.0 314.5Q322.0 314.5 322.0 314.0Q322.0 313.5 321.5 313.5ZM485.0 301.5V293.0Q485.0 290.0 485.0 287.5Q485.0 285.0 484.5 283.0Q484.5 271.5 483.25 265.5Q482.0 259.5 476.25 257.25Q470.5 255.0 457.5 255.0Q450.5 255.0 436.5 255.25Q422.5 255.5 405.75 256.0Q389.0 256.5 372.75 258.0Q356.5 259.5 344.75 262.0Q333.0 264.5 329.0 268.5Q319.0 277.0 319.0 280.5Q319.0 283.5 323.75 287.25Q328.5 291.0 337.5 296.5Q345.0 301.0 354.25 303.5Q363.5 306.0 378.75 307.25Q394.0 308.5 420.0 308.5Q483.0 308.5 483.0 317.5V319.5Q480.0 323.0 457.5 325.0Q435.0 327.0 404.0 327.0Q371.0 327.5 356.25 327.75Q341.5 328.0 341.5 329.0L343.0 330.5Q352.0 337.0 352.0 342.5Q352.0 348.0 344.0 348.0Q340.0 348.0 331.0 345.0Q327.5 342.5 323.0 342.5Q317.0 342.5 312.25 347.0Q307.5 351.5 307.5 358.5Q307.5 371.5 317.75 378.75Q328.0 386.0 343.0 389.0Q358.0 392.0 372.5 392.75Q387.0 393.5 395.5 393.5H412.0L470.0 392.0L468.5 370.5Q468.5 363.5 470.0 353.0Q471.5 342.5 478.0 337.5Q484.5 333.0 485.5 308.0Q485.5 307.0 485.5 305.25Q485.5 303.5 485.0 301.5ZM520.5 240.5 527.5 237.5 519.5 234.0Q514.0 230.5 510.5 230.5Q509.5 230.5 507.0 234.0Q506.5 235.5 506.0 238.0Q505.5 240.5 505.5 242.0Q505.5 244.0 507.5 244.0Q512.0 244.0 520.5 240.5ZM506.0 392.0V391.5Q499.5 388.0 494.75 385.75Q490.0 383.5 488.0 383.5Q485.5 383.5 485.5 392.5Q485.5 400.5 488.5 400.5Q491.5 400.5 496.5 399.0Q501.0 398.0 505.75 397.25Q510.5 396.5 514.0 396.0Q512.5 395.0 510.5 394.0Q508.5 393.0 506.0 392.0ZM525.0 314.5Q517.0 308.5 510.5 308.5Q505.0 308.5 505.0 315.5Q505.0 319.5 507.5 319.5Q509.5 319.5 510.5 319.0Q515.0 318.0 519.5 317.0Q524.0 316.0 526.5 315.5Q526.0 315.5 525.0 314.5ZM293.5 18.5Q293.5 14.5 297.25 12.25Q301.0 10.0 306.0 10.0Q310.0 10.0 311.75 11.25Q313.5 12.5 313.5 16.5Q313.5 19.5 311.5 24.25Q309.5 29.0 305.5 38.0Q299.0 49.5 293.75 64.5Q288.5 79.5 288.5 93.5Q288.5 101.0 297.75 108.25Q307.0 115.5 314.0 115.5Q315.5 115.5 316.5 113.5Q320.0 103.5 326.0 103.5Q335.0 103.5 339.5 120.0Q344.0 138.5 366.5 145.75Q389.0 153.0 440.5 153.0Q469.5 153.0 486.0 155.25Q502.5 157.5 502.5 162.0L501.5 163.5Q499.5 168.0 477.0 169.5Q454.5 171.0 423.0 171.0Q398.5 171.0 384.25 171.5Q370.0 172.0 362.0 173.5Q354.0 175.0 349.25 178.0Q344.5 181.0 339.0 186.5Q326.0 198.5 326.0 207.5Q326.0 218.5 348.5 230.0Q358.5 234.5 371.0 237.0Q383.5 239.5 406.5 239.5Q409.5 239.5 412.0 239.5Q414.5 239.5 417.0 239.0H430.5L489.5 236.0L488.0 216.0Q487.5 213.5 487.25 210.5Q487.0 207.5 487.0 205.5Q487.0 196.5 489.5 193.25Q492.0 190.0 498.5 190.0Q502.5 190.0 503.75 181.5Q505.0 173.0 505.0 147.5V94.5L524.5 118.0Q533.5 128.5 544.5 135.5Q555.5 142.5 572.5 146.25Q589.5 150.0 616.75 151.5Q644.0 153.0 685.5 153.0Q715.0 153.0 739.0 154.0Q763.0 155.0 777.0 157.0Q791.0 159.0 791.0 162.0Q791.0 164.5 775.0 166.5Q759.0 168.5 731.75 170.0Q704.5 171.5 671.5 172.5Q627.5 173.0 599.5 174.75Q571.5 176.5 555.75 179.5Q540.0 182.5 531.75 188.0Q523.5 193.5 518.5 202.0L517.0 204.5Q516.5 206.5 515.75 207.5Q515.0 208.5 515.0 209.5Q515.0 212.0 532.5 220.5Q541.5 224.0 556.25 226.75Q571.0 229.5 596.75 231.0Q622.5 232.5 663.0 233.5Q692.5 234.0 716.0 236.0Q739.5 238.0 753.25 240.25Q767.0 242.5 767.0 244.5L765.0 246.0Q762.5 248.0 743.75 249.5Q725.0 251.0 697.0 252.0Q669.0 253.0 637.5 253.0Q577.0 254.5 548.0 256.25Q519.0 258.0 515.0 263.5Q506.0 270.0 506.0 276.0Q506.0 283.5 527.0 293.5Q536.5 298.5 549.5 301.25Q562.5 304.0 587.0 305.25Q611.5 306.5 655.5 307.0Q686.0 307.5 711.0 309.25Q736.0 311.0 751.25 313.25Q766.5 315.5 766.5 318.5Q766.5 320.5 750.25 322.5Q734.0 324.5 706.75 326.0Q679.5 327.5 646.5 328.5Q608.5 329.0 584.75 330.0Q561.0 331.0 547.0 332.25Q533.0 333.5 525.0 335.75Q517.0 338.0 511.0 342.0Q497.0 351.0 494.0 356.0Q497.5 359.5 505.25 365.0Q513.0 370.5 521.5 375.0Q531.0 380.0 539.5 382.75Q548.0 385.5 560.75 386.75Q573.5 388.0 594.5 388.25Q615.5 388.5 650.0 388.5Q699.0 388.5 724.5 390.5Q750.0 392.5 750.0 398.0V399.5Q748.0 403.0 717.75 405.25Q687.5 407.5 639.5 407.5Q562.5 407.5 527.5 412.25Q492.5 417.0 487.0 428.5Q485.5 433.5 482.25 436.25Q479.0 439.0 476.5 439.0Q467.0 439.0 467.0 422.0Q467.0 417.0 463.25 415.25Q459.5 413.5 440.5 413.5Q432.0 413.5 420.5 413.5Q409.0 413.5 393.0 414.5Q357.5 415.5 340.5 416.75Q323.5 418.0 317.0 420.75Q310.5 423.5 307.0 429.5Q302.0 437.5 297.25 440.75Q292.5 444.0 289.0 444.0Q283.5 444.0 283.5 437.5Q283.5 435.5 283.75 433.5Q284.0 431.5 284.5 429.0Q285.0 428.0 285.0 425.5Q285.0 421.5 278.5 416.5Q272.0 411.5 254.5 402.5Q237.0 393.5 204.5 378.0Q170.5 361.0 150.75 352.25Q131.0 343.5 118.75 340.5Q106.5 337.5 94.0 337.5H86.5Q72.5 337.5 57.0 338.5Q41.5 339.5 33.5 341.0L12.5 346.5L10.0 342.5L34.0 324.0Q36.5 322.5 44.0 316.0Q51.5 309.5 61.0 301.25Q70.5 293.0 78.5 285.5Q86.5 278.0 90.0 274.0Q89.5 274.5 88.25 274.5Q87.0 274.5 86.0 275.0Q84.0 275.5 80.5 275.5Q75.5 275.5 75.5 271.0Q75.5 265.0 104.0 239.5Q116.0 227.5 131.5 210.5Q147.0 193.5 161.25 177.0Q175.5 160.5 185.0 148.5Q194.5 136.5 194.5 133.5Q194.5 131.0 209.25 114.25Q224.0 97.5 245.0 75.0Q258.0 61.0 269.0 48.75Q280.0 36.5 286.75 28.25Q293.5 20.0 293.5 18.5ZM324.5 245.5V246.5Z" fill="black" /></svg>