<svg xmlns="http://www.w3.org/2000/svg" width="297.5" height="465.0" viewBox="0 0 297.5 465.0"><path d="M68.5 264.0 82.0 255.5 51.5 236.5 54.0 252.0Q55.5 262.5 55.5 273.5Q57.5 272.5 61.25 270.0Q65.0 267.5 68.5 264.0ZM166.5 309.0Q162.5 308.0 153.25 307.25Q144.0 306.5 134.25 306.0Q124.5 305.5 118.5 305.5Q118.0 305.5 117.75 305.5Q117.5 305.5 117.0 305.5Q119.5 309.0 122.0 313.25Q124.5 317.5 126.5 321.5Q132.0 329.0 136.75 334.0Q141.5 339.0 144.0 340.0V339.0Q144.0 336.5 148.0 330.75Q152.0 325.0 158.0 319.0Q160.5 316.5 162.75 313.75Q165.0 311.0 166.5 309.0ZM128.5 151.0Q122.0 148.0 116.5 143.0Q114.0 142.0 112.0 140.5Q110.0 139.0 110.0 139.0Q109.5 139.0 108.25 144.75Q107.0 150.5 106.0 157.75Q105.0 165.0 105.0 169.5Q110.5 169.5 114.0 167.0Q117.5 166.0 122.75 165.5Q128.0 165.0 132.5 165.0Q136.5 165.0 141.0 165.25Q145.5 165.5 149.0 166.5Q146.5 164.0 141.25 160.25Q136.0 156.5 128.5 151.0ZM221.0 218.5V199.0Q221.0 191.0 220.75 184.5Q220.5 178.0 220.5 178.0Q219.0 178.0 219.0 182.5Q219.0 193.0 209.5 193.0Q206.0 193.0 201.0 196.5Q196.0 200.0 190.5 204.5L181.0 211.0ZM142.0 36.0V35.5Q141.5 36.0 139.5 36.0Q139.0 36.0 137.5 36.0Q136.0 36.0 135.0 35.5H132.5Q121.5 33.0 112.5 33.0Q105.0 33.0 105.0 34.5Q105.0 38.0 114.5 48.5L121.5 57.5L130.5 46.0Q134.5 42.5 138.25 39.25Q142.0 36.0 142.0 36.0ZM69.5 14.5Q69.5 10.0 77.5 10.0Q82.0 10.0 87.0 11.5Q92.5 13.0 109.5 14.5Q126.5 16.0 146.0 17.0Q165.0 19.0 179.75 21.5Q194.5 24.0 194.5 26.5Q194.5 29.0 187.0 33.5Q179.5 38.0 171.0 41.0Q152.5 47.5 143.0 62.0Q133.5 76.5 130.5 103.0L128.0 133.5L169.5 159.0Q180.0 165.5 186.75 169.0Q193.5 172.5 199.0 172.5Q205.5 172.5 212.0 166.75Q218.5 161.0 230.0 149.0Q238.0 141.0 245.5 136.0Q253.0 131.0 255.5 131.0H256.5Q260.0 132.0 260.0 135.5Q260.0 138.5 256.75 146.5Q253.5 154.5 248.0 165.0Q241.5 176.5 238.0 184.0Q234.5 191.5 234.5 198.0Q234.5 200.0 234.75 201.5Q235.0 203.0 235.5 205.0Q236.5 213.0 243.25 225.25Q250.0 237.5 259.25 249.5Q268.5 261.5 276.0 269.0Q280.0 273.5 283.75 279.0Q287.5 284.5 287.5 288.0Q287.5 292.5 283.5 292.5Q280.5 292.5 272.0 285.0Q263.5 277.5 252.0 265.5Q238.0 251.0 228.0 242.75Q218.0 234.5 206.0 231.25Q194.0 228.0 173.0 228.0Q171.5 228.0 170.0 228.0Q168.5 228.0 167.0 229.0H161.0Q159.0 229.5 156.75 229.5Q154.5 229.5 152.5 229.5Q144.5 229.5 144.5 223.5Q144.5 218.5 164.0 202.0L168.0 199.0Q172.5 195.0 175.5 192.5Q178.5 190.0 178.5 189.0Q178.5 185.0 142.5 180.5H140.5Q133.0 179.0 127.0 179.0Q120.5 179.0 117.25 180.75Q114.0 182.5 110.0 187.0Q105.0 191.5 100.0 194.75Q95.0 198.0 94.0 198.0Q92.5 198.0 89.5 202.5Q86.5 207.0 84.0 214.0Q81.0 218.5 79.75 222.5Q78.5 226.5 78.5 229.5Q78.5 234.5 85.25 239.25Q92.0 244.0 108.0 251.5Q117.5 256.5 124.5 260.75Q131.5 265.0 131.5 268.0L131.0 270.5Q130.5 271.5 125.0 272.0Q119.5 272.5 112.5 272.5H94.0Q84.0 272.5 75.0 279.75Q66.0 287.0 58.25 297.5Q50.5 308.0 44.75 319.0Q39.0 330.0 35.5 337.5Q29.0 351.0 23.5 359.75Q18.0 368.5 14.0 368.5H13.0Q10.0 367.0 10.0 364.0Q10.0 358.5 13.5 347.75Q17.0 337.0 23.0 324.0Q31.0 309.0 33.75 300.75Q36.5 292.5 36.5 287.5Q36.5 285.0 35.5 283.0Q31.5 278.5 31.5 273.5Q31.5 268.5 34.5 265.5Q36.0 263.0 36.0 257.0Q36.0 248.5 33.75 238.5Q31.5 228.5 28.5 222.0Q26.5 219.5 26.5 215.5Q26.5 210.0 34.5 210.0Q37.0 210.0 40.75 210.75Q44.5 211.5 48.0 214.0Q56.0 222.0 62.0 222.0Q64.0 222.0 69.0 211.75Q74.0 201.5 79.5 187.0Q85.0 172.5 89.0 159.25Q93.0 146.0 93.0 139.5Q93.0 136.0 92.75 131.75Q92.5 127.5 91.5 124.5Q91.0 122.0 90.75 120.25Q90.5 118.5 90.5 117.5Q90.5 108.5 96.0 108.5Q98.5 108.5 102.25 111.0Q106.0 113.5 110.5 117.5Q111.5 118.0 112.5 119.0Q113.5 120.0 114.5 120.5V105.0Q114.5 90.5 112.0 80.75Q109.5 71.0 103.75 62.0Q98.0 53.0 88.0 42.0Q80.5 33.5 75.0 25.75Q69.5 18.0 69.5 14.5ZM79.5 291.5Q79.5 287.5 90.0 287.5Q95.0 287.5 104.5 288.0Q114.0 288.5 123.5 290.0Q140.5 291.5 161.25 292.75Q182.0 294.0 195.0 294.0Q209.0 294.0 218.75 296.0Q228.5 298.0 228.5 299.0Q228.5 303.0 219.0 307.25Q209.5 311.5 196.5 316.0Q179.0 322.0 169.5 331.5Q160.0 341.0 156.0 358.0Q152.0 375.0 150.5 403.5Q150.0 424.5 146.75 439.75Q143.5 455.0 141.0 455.0Q137.5 455.0 135.75 440.5Q134.0 426.0 134.0 406.5Q134.0 385.5 133.0 374.5Q132.0 363.5 129.0 356.0Q126.0 348.5 119.5 339.0Q114.5 330.5 106.25 321.5Q98.0 312.5 93.0 308.0Q88.0 303.0 83.75 298.25Q79.5 293.5 79.5 291.5Z" fill="black" /></svg>