<svg xmlns="http://www.w3.org/2000/svg" width="923.5" height="465.5" viewBox="0 0 923.5 465.5"><path d="M112.5 285.0Q103.5 275.0 94.0 263.75Q84.5 252.5 81.0 247.5L76.0 240.5L54.5 276.0Q50.5 285.0 46.75 291.75Q43.0 298.5 43.0 299.5Q43.0 300.0 50.0 301.0Q57.0 302.0 66.5 302.0Q76.5 302.0 90.75 303.25Q105.0 304.5 113.5 307.0Q118.5 308.0 123.75 308.75Q129.0 309.5 134.0 310.0Q132.5 307.0 126.75 300.0Q121.0 293.0 112.5 285.0ZM250.0 321.5 257.5 313.0H224.0L230.0 322.0Q231.5 326.0 234.0 329.5Q236.5 333.0 238.0 334.5Q238.5 333.5 242.75 329.0Q247.0 324.5 247.5 324.5Q248.0 323.5 248.75 322.75Q249.5 322.0 250.0 321.5ZM263.5 296.0 275.5 294.5 279.5 198.5H268.0Q263.0 198.5 260.5 200.0Q258.0 201.5 257.0 208.75Q256.0 216.0 254.0 233.5Q252.0 251.5 251.25 263.25Q250.5 275.0 250.5 283.0Q250.5 291.5 252.5 294.0Q254.5 296.5 258.0 296.5Q259.0 296.5 259.5 296.0ZM371.5 225.5Q369.0 225.0 366.75 224.0Q364.5 223.0 362.5 222.5Q359.0 221.0 355.25 219.75Q351.5 218.5 348.0 218.0Q342.0 215.5 335.75 213.5Q329.5 211.5 324.0 210.5Q321.0 209.0 317.75 208.0Q314.5 207.0 312.5 206.0L294.5 201.0V245.5Q294.5 272.0 295.25 281.0Q296.0 290.0 298.0 290.0Q299.5 290.0 299.5 289.5Q340.5 276.5 363.5 268.5Q386.5 260.5 396.25 255.5Q406.0 250.5 407.0 246.5V244.5Q407.0 241.0 399.5 236.75Q392.0 232.5 371.5 225.5ZM490.0 294.0Q478.5 291.0 464.5 286.75Q450.5 282.5 443.0 278.5L429.0 271.5L426.5 285.0Q425.5 292.5 424.5 301.75Q423.5 311.0 423.5 317.0V328.0L436.5 323.5Q443.0 320.5 457.75 316.25Q472.5 312.0 485.0 308.5Q496.0 306.0 505.0 303.75Q514.0 301.5 516.0 300.0Q513.5 299.0 506.0 297.25Q498.5 295.5 490.0 294.0ZM838.0 183.0V179.5H734.5Q704.5 179.5 673.5 179.5Q642.5 179.5 615.25 180.0Q588.0 180.5 569.5 180.75Q551.0 181.0 547.0 182.0Q537.5 183.5 522.0 187.0Q506.5 190.5 490.0 195.0Q473.5 199.5 460.25 203.75Q447.0 208.0 441.5 211.0Q435.0 214.0 432.25 217.25Q429.5 220.5 429.5 226.0Q429.5 232.5 431.5 243.75Q433.5 255.0 437.0 259.0Q439.5 261.0 452.25 265.5Q465.0 270.0 481.0 275.0Q515.5 285.0 584.0 290.5Q652.5 296.0 759.5 296.0L837.0 296.5L838.0 240.0Q838.5 232.5 838.5 225.0Q838.5 217.5 838.5 211.0Q838.5 202.0 838.25 194.75Q838.0 187.5 838.0 183.0ZM157.0 93.5Q150.0 91.5 139.5 88.0Q129.0 84.5 120.5 80.5L117.0 78.5Q113.0 77.0 109.5 75.5Q106.0 74.0 104.5 73.5Q103.5 75.5 102.75 85.0Q102.0 94.5 102.0 107.5V137.0L113.0 129.0Q120.0 125.0 131.0 118.75Q142.0 112.5 151.0 108.5Q169.0 100.0 169.0 97.0Q169.0 95.0 157.0 93.5ZM254.0 169.0Q244.5 159.0 241.5 159.0Q239.5 159.0 236.0 167.0Q231.0 174.5 231.0 178.0Q231.0 182.0 247.5 182.0Q263.5 182.0 263.5 180.0Q263.5 177.0 254.0 169.0ZM452.0 25.0Q450.0 25.0 440.5 25.25Q431.0 25.5 418.5 25.5Q404.5 25.5 394.25 25.75Q384.0 26.0 384.0 26.0Q384.0 29.0 386.75 36.0Q389.5 43.0 393.25 50.75Q397.0 58.5 400.75 63.75Q404.5 69.0 406.5 69.0Q412.0 69.0 412.0 74.5Q412.0 77.0 410.5 78.5Q410.5 93.0 414.5 106.5L418.5 119.5L424.5 95.5Q429.5 79.5 435.25 64.5Q441.0 49.5 448.0 34.5L449.0 32.5Q450.0 30.0 450.75 28.0Q451.5 26.0 452.0 25.0ZM439.5 142.5H439.0Q438.0 140.5 437.5 139.75Q437.0 139.0 437.0 139.0Q434.0 139.0 431.5 166.5L431.0 171.5Q430.5 179.0 429.75 185.25Q429.0 191.5 429.0 195.0Q432.0 194.5 438.0 192.75Q444.0 191.0 452.0 189.0Q455.5 188.0 458.75 187.0Q462.0 186.0 465.5 185.0Q479.5 180.0 494.0 176.0Q508.5 172.0 523.5 172.0Q523.5 171.0 513.5 167.5Q503.5 164.0 487.0 159.0Q470.0 155.0 456.0 150.25Q442.0 145.5 439.5 142.5ZM874.0 44.5 875.5 42.5Q875.5 41.5 869.5 41.0Q863.5 40.5 846.0 40.5H815.5L826.0 58.0Q830.0 69.0 835.25 82.75Q840.5 96.5 843.5 106.0L847.0 117.5L862.0 77.5Q866.0 66.0 869.25 56.75Q872.5 47.5 874.0 44.5ZM353.0 19.0Q353.0 14.5 358.75 12.75Q364.5 11.0 379.0 10.5Q393.5 10.0 420.5 10.0Q448.5 10.0 468.0 12.0Q487.5 14.0 487.5 16.5Q487.5 19.0 483.0 24.25Q478.5 29.5 472.0 34.0Q467.0 38.0 461.25 47.75Q455.5 57.5 450.5 70.0Q445.5 82.5 442.25 94.5Q439.0 106.5 439.0 115.0Q439.0 124.0 454.0 132.0Q469.0 140.0 504.0 149.5Q516.0 152.5 530.0 154.25Q544.0 156.0 564.5 157.25Q585.0 158.5 615.5 159.5Q646.0 160.5 690.5 161.5L838.0 163.0V155.0Q838.0 144.5 833.75 128.25Q829.5 112.0 823.0 94.75Q816.5 77.5 809.5 63.75Q802.5 50.0 797.5 45.0Q793.5 42.5 790.5 38.25Q787.5 34.0 787.5 32.0Q787.5 28.0 805.75 26.25Q824.0 24.5 850.0 24.5Q913.5 24.5 913.5 34.0Q913.5 39.5 900.5 43.0Q894.0 45.0 884.5 63.75Q875.0 82.5 866.0 111.5Q862.5 122.0 860.25 140.0Q858.0 158.0 857.0 187.5Q856.0 217.0 854.5 263.0Q854.0 296.5 852.0 325.75Q850.0 355.0 848.25 373.0Q846.5 391.0 845.0 391.0Q841.5 391.0 839.75 378.5Q838.0 366.0 838.0 349.0V314.0L716.0 311.0H705.5Q688.5 310.5 672.75 310.25Q657.0 310.0 642.5 310.0Q568.5 310.0 520.25 317.25Q472.0 324.5 439.5 339.5L423.5 347.5V381.0Q423.5 398.0 421.5 409.5Q419.5 421.0 415.5 421.0Q410.5 421.0 408.5 402.75Q406.5 384.5 406.5 352.5Q406.5 342.5 406.5 331.5Q406.5 320.5 407.0 308.5L408.5 270.5L353.0 288.0Q319.5 299.5 302.5 307.75Q285.5 316.0 273.0 327.5Q264.0 335.5 257.25 342.0Q250.5 348.5 250.5 351.0Q250.5 353.5 255.75 356.75Q261.0 360.0 267.5 362.5Q284.0 369.0 305.25 378.75Q326.5 388.5 348.0 399.5Q369.5 410.5 387.75 420.5Q406.0 430.5 417.25 437.5Q428.5 444.5 428.5 446.5Q428.5 450.5 425.5 453.0Q422.5 455.5 418.5 455.5Q414.5 455.5 411.25 453.5Q408.0 451.5 408.0 448.5Q408.0 447.0 390.25 438.0Q372.5 429.0 342.5 415.25Q312.5 401.5 275.75 384.75Q239.0 368.0 201.5 351.5Q165.5 334.5 128.0 325.75Q90.5 317.0 62.5 317.0Q39.5 317.0 29.0 324.5Q19.5 329.0 16.5 329.0Q10.0 329.0 10.0 323.5Q10.0 318.5 16.5 305.25Q23.0 292.0 32.5 275.5Q42.0 259.0 52.0 243.5Q62.0 228.0 69.5 217.75Q77.0 207.5 79.0 207.5Q81.5 207.5 85.5 213.5Q89.5 219.5 91.5 227.0Q96.5 238.0 111.5 255.5Q126.5 273.0 146.25 290.75Q166.0 308.5 185.0 321.5Q199.0 329.5 207.5 334.5Q216.0 339.5 219.5 339.5Q219.5 338.5 218.25 335.5Q217.0 332.5 215.0 327.5Q214.5 325.5 213.0 324.0Q211.5 322.5 210.5 320.0Q204.0 310.5 200.0 302.25Q196.0 294.0 196.0 292.0V290.5Q198.0 288.0 201.0 288.0Q203.5 288.0 208.0 289.25Q212.5 290.5 217.5 292.5Q227.5 297.0 232.0 297.0Q233.0 293.0 234.5 278.25Q236.0 263.5 237.5 245.5L241.0 198.0L226.5 201.0Q223.0 201.5 220.25 201.75Q217.5 202.0 215.0 202.0Q205.5 202.0 205.5 197.5Q205.5 194.5 210.25 184.0Q215.0 173.5 221.75 161.25Q228.5 149.0 234.25 140.0Q240.0 131.0 242.0 131.0Q245.0 131.0 246.75 134.0Q248.5 137.0 250.5 141.0Q256.5 151.0 270.25 161.25Q284.0 171.5 302.5 181.0Q321.0 190.5 340.75 198.5Q360.5 206.5 378.25 212.0Q396.0 217.5 408.0 219.5Q409.0 214.5 409.0 201.0Q409.0 189.5 408.0 174.25Q407.0 159.0 405.25 143.75Q403.5 128.5 400.5 117.5L392.5 84.5L374.0 86.5Q367.5 87.5 353.0 89.0Q338.5 90.5 320.25 92.0Q302.0 93.5 283.5 95.0Q250.0 98.0 226.25 102.0Q202.5 106.0 185.5 113.0Q168.5 119.0 150.75 128.5Q133.0 138.0 120.0 147.0Q107.0 156.0 103.5 162.0Q103.0 166.5 99.25 170.0Q95.5 173.5 92.5 173.5Q87.5 173.5 85.75 168.5Q84.0 163.5 84.0 150.5Q84.0 137.0 84.75 118.75Q85.5 100.5 87.0 82.5Q88.5 64.5 91.0 52.5L96.0 26.0L109.0 49.0Q114.5 58.0 126.0 64.75Q137.5 71.5 152.0 75.5Q166.5 79.5 180.5 81.5Q194.5 83.5 205.0 83.5Q214.0 83.5 233.5 82.5Q253.0 81.5 277.25 80.0Q301.5 78.5 324.5 76.5Q347.5 74.5 363.5 72.0Q379.5 69.5 382.5 67.5V67.0Q382.5 62.5 378.75 55.0Q375.0 47.5 370.25 40.5Q365.5 33.5 362.0 32.5Q358.5 30.5 355.75 27.25Q353.0 24.0 353.0 19.0Z" fill="black" /></svg>