<svg xmlns="http://www.w3.org/2000/svg" width="686.5" height="388.0" viewBox="0 0 686.5 388.0"><path d="M47.0 193.5Q41.5 190.0 36.0 187.75Q30.5 185.5 29.5 185.5Q29.0 185.5 28.5 192.0Q28.0 198.5 28.0 208.5L26.5 229.0L56.0 220.5Q69.0 216.0 80.0 213.25Q91.0 210.5 94.0 210.5H97.5Q97.0 209.5 92.75 208.0Q88.5 206.5 83.0 205.0Q76.0 204.0 65.0 200.5Q54.0 197.0 47.0 193.5ZM348.0 265.0H364.0L395.5 263.5L374.0 243.0L350.5 219.0L339.5 241.5L338.0 243.5Q334.5 250.5 331.5 256.25Q328.5 262.0 327.5 265.5Q329.0 265.5 331.5 265.5Q334.0 265.5 337.0 265.5Q339.5 265.5 342.25 265.5Q345.0 265.5 348.0 265.0ZM123.5 108.0Q123.5 104.5 118.0 104.5Q112.0 104.5 112.0 113.5Q112.0 120.5 115.0 131.0Q115.5 131.5 115.5 132.25Q115.5 133.0 116.0 134.0Q116.5 132.5 117.25 131.0Q118.0 129.5 118.5 127.5Q123.5 114.0 123.5 108.0ZM169.5 118.5 170.0 116.0Q171.0 112.0 171.5 109.5Q172.0 107.0 172.0 106.0Q172.0 104.5 166.0 104.5Q159.5 104.5 159.5 106.5Q159.5 109.0 161.0 115.0Q164.0 129.5 165.5 129.5Q166.5 129.5 169.5 118.5ZM199.0 153.0Q197.0 139.5 193.75 127.25Q190.5 115.0 188.5 111.5Q187.5 109.5 187.5 109.0Q187.0 111.0 185.75 114.0Q184.5 117.0 183.0 122.0Q179.5 129.5 177.75 143.75Q176.0 158.0 176.0 170.5V197.5H190.5Q198.0 197.5 201.5 196.5Q205.0 195.5 205.0 189.5Q205.0 185.5 203.75 178.75Q202.5 172.0 200.5 162.5Q200.0 160.0 199.75 157.75Q199.5 155.5 199.0 153.0ZM218.5 105.0Q218.5 104.5 216.0 104.5Q213.5 104.5 210.0 104.5Q202.0 104.5 202.0 106.0Q202.0 108.0 203.0 111.0Q204.0 114.0 205.5 118.5L209.5 131.5L212.5 124.0Q215.0 117.0 216.75 111.25Q218.5 105.5 218.5 105.0ZM264.5 106.5Q264.5 104.5 257.0 104.5Q251.5 104.5 251.5 105.5Q251.5 106.5 252.25 108.25Q253.0 110.0 253.5 112.5Q254.5 114.5 255.0 118.5L257.5 128.0L259.5 124.0Q261.5 119.5 263.0 114.25Q264.5 109.0 264.5 106.5ZM396.0 95.5Q392.5 95.5 383.75 92.25Q375.0 89.0 366.5 84.5L350.5 75.5L353.0 98.0Q354.0 106.0 355.25 113.25Q356.5 120.5 357.0 124.0Q358.0 123.5 359.0 123.0Q360.0 122.5 361.5 122.0Q363.0 121.0 364.5 120.0Q366.0 119.0 368.0 118.0Q373.0 114.0 380.5 110.0Q388.0 106.0 393.0 104.0Q403.0 100.0 403.0 97.0Q403.0 95.5 396.0 95.5ZM437.5 150.5Q436.5 150.0 435.5 150.0Q434.5 150.0 433.5 149.5Q429.5 148.5 428.0 148.5Q425.0 147.5 424.0 147.5Q425.0 152.0 429.5 158.5L433.0 164.5L435.0 158.5Q436.0 156.5 436.5 154.25Q437.0 152.0 437.5 150.5ZM477.0 220.5 477.5 217.0Q478.5 214.0 478.5 211.5Q476.5 211.5 469.5 215.75Q462.5 220.0 456.25 224.5Q450.0 229.0 450.0 230.5Q450.0 231.0 454.0 232.25Q458.0 233.5 463.0 234.5Q470.5 237.5 474.0 237.5Q475.0 237.5 475.0 235.0Q475.0 232.5 475.75 228.25Q476.5 224.0 477.0 220.5ZM516.0 290.5Q514.0 286.5 504.25 278.75Q494.5 271.0 482.0 262.5Q469.5 254.0 459.0 248.25Q448.5 242.5 444.5 242.5Q443.5 242.5 442.5 245.0Q442.0 246.5 441.75 248.25Q441.5 250.0 441.5 252.5Q441.5 254.5 441.75 256.25Q442.0 258.0 442.5 260.0Q443.5 264.0 452.5 269.0Q461.5 274.0 474.0 278.75Q486.5 283.5 498.25 286.75Q510.0 290.0 516.0 290.5ZM504.0 225.0Q497.0 219.5 494.0 219.5Q492.0 219.5 492.0 227.5Q492.0 235.5 493.0 235.5Q496.0 235.5 502.5 231.0Q505.0 230.0 506.25 229.25Q507.5 228.5 508.0 228.0Q508.0 228.0 507.75 227.75Q507.5 227.5 507.0 227.5Q506.5 226.5 504.0 225.0ZM526.0 125.0H526.5Q527.5 124.0 527.75 123.0Q528.0 122.0 528.5 121.5Q524.0 124.0 517.25 128.75Q510.5 133.5 504.75 138.0Q499.0 142.5 497.0 145.0Q498.5 146.0 503.75 148.5Q509.0 151.0 514.5 152.75Q520.0 154.5 522.0 154.5Q522.0 147.0 522.5 139.25Q523.0 131.5 526.0 125.0ZM546.0 194.0Q535.0 184.5 527.75 178.25Q520.5 172.0 519.5 172.0Q518.0 172.0 513.5 179.25Q509.0 186.5 505.0 194.5Q501.0 202.5 501.0 205.5Q501.0 207.5 504.5 210.0Q508.0 212.5 512.5 213.5Q519.0 216.0 530.75 217.25Q542.5 218.5 553.5 218.5Q561.0 218.5 566.75 218.25Q572.5 218.0 572.5 217.5Q572.5 216.5 565.0 209.5Q557.5 202.5 546.0 194.0ZM649.5 32.5V32.0Q649.5 31.5 640.5 31.25Q631.5 31.0 619.0 31.0H588.0L593.5 43.5Q594.0 44.5 594.75 46.5Q595.5 48.5 596.0 50.5Q599.0 57.0 602.5 66.5Q606.0 76.0 608.0 84.0Q618.5 112.0 618.0 112.0Q620.0 97.5 625.0 83.75Q630.0 70.0 636.0 57.5Q641.5 48.0 645.5 40.5Q649.5 33.0 649.5 32.5ZM564.5 14.5Q564.5 10.0 569.5 10.0Q570.5 10.0 571.75 10.0Q573.0 10.0 574.0 10.5L576.0 11.0Q578.0 13.0 594.0 14.25Q610.0 15.5 628.0 16.5Q651.5 17.0 664.0 19.5Q676.5 22.0 676.5 26.0Q676.5 29.5 669.0 32.5Q666.0 33.5 660.75 41.75Q655.5 50.0 650.0 61.75Q644.5 73.5 640.0 86.0Q635.5 98.5 634.0 108.5Q632.0 121.0 630.75 138.5Q629.5 156.0 629.5 173.5Q629.5 192.0 630.75 205.5Q632.0 219.0 634.0 219.5Q637.5 222.5 637.5 225.0Q637.5 227.0 634.5 231.0Q632.5 232.0 631.5 237.25Q630.5 242.5 630.5 254.0Q630.5 269.5 632.0 304.0Q633.0 318.0 633.0 329.5Q633.0 341.0 633.0 349.5Q633.0 378.0 627.0 378.0Q620.0 378.0 620.0 350.0Q620.0 343.5 619.5 331.75Q619.0 320.0 618.5 305.5Q618.0 291.0 617.0 278.0L614.0 233.5L578.0 233.0Q572.5 233.0 560.75 233.75Q549.0 234.5 535.75 236.0Q522.5 237.5 511.75 240.75Q501.0 244.0 498.0 249.5V250.0Q498.0 253.0 505.5 261.0Q513.0 269.0 522.5 278.5Q533.0 288.5 541.25 294.75Q549.5 301.0 558.25 305.0Q567.0 309.0 579.5 312.5Q593.0 317.0 602.75 321.5Q612.5 326.0 612.5 328.5Q612.5 333.0 606.5 333.0Q602.0 333.0 592.75 330.5Q583.5 328.0 569.5 323.5Q565.0 322.0 561.25 321.0Q557.5 320.0 555.0 320.0H554.0Q552.5 321.5 550.0 321.5Q545.5 321.5 541.5 318.0Q539.5 315.5 525.5 309.5Q511.5 303.5 493.5 298.0Q464.5 288.0 431.25 282.5Q398.0 277.0 367.5 277.0Q358.5 277.0 349.75 277.5Q341.0 278.0 333.0 279.0Q324.0 280.5 316.0 281.0Q308.0 281.5 305.0 281.5Q304.0 281.5 302.5 281.25Q301.0 281.0 301.0 281.0L300.5 279.0Q300.5 276.5 305.75 267.5Q311.0 258.5 319.0 247.5Q326.5 236.0 332.25 226.0Q338.0 216.0 338.0 214.0Q338.0 212.5 333.25 212.0Q328.5 211.5 316.5 211.5H303.0L267.0 213.0L266.5 265.0Q266.0 319.5 259.0 319.5Q252.0 319.5 252.0 261.5V211.0H219.0V264.5Q219.0 291.0 217.5 306.5Q216.0 322.0 212.0 322.0Q209.5 322.0 207.25 306.5Q205.0 291.0 205.0 264.5V211.0H176.0V264.5Q176.0 291.0 174.5 306.5Q173.0 322.0 169.0 322.0Q166.5 322.0 164.25 307.0Q162.0 292.0 162.0 266.0Q162.0 233.5 160.75 222.75Q159.5 212.0 152.5 212.0Q148.5 212.0 139.5 214.5L126.5 217.5L125.5 267.5Q124.0 321.5 117.5 321.5Q111.0 321.5 111.0 268.0V219.0L99.5 221.5Q97.0 222.0 92.25 223.5Q87.5 225.0 80.5 227.0Q76.5 228.0 72.25 229.5Q68.0 231.0 63.0 232.0Q60.5 233.0 57.0 234.0Q53.5 235.0 50.5 236.0Q37.5 240.5 26.5 243.5Q15.5 246.5 13.0 246.5H12.0Q10.0 245.0 10.0 242.5Q10.0 236.0 13.5 224.0Q15.0 215.5 15.0 204.0Q15.0 199.0 14.75 194.0Q14.5 189.0 14.0 185.5Q13.5 183.0 13.25 179.75Q13.0 176.5 13.0 174.5Q13.0 164.5 17.5 164.5H18.5Q53.0 180.0 69.25 186.5Q85.5 193.0 96.0 195.5L111.0 198.0V186.0Q111.0 180.5 109.0 167.75Q107.0 155.0 104.0 142.5L101.5 132.0Q101.0 129.5 100.25 126.75Q99.5 124.0 99.0 122.0Q94.5 104.5 94.5 98.0Q94.5 92.5 97.0 90.75Q99.5 89.0 104.5 88.5H107.5Q109.0 89.0 111.5 89.0H114.5Q115.0 89.5 117.0 89.5Q130.0 90.0 135.25 92.25Q140.5 94.5 140.5 101.5Q140.5 107.5 135.0 121.5Q132.5 127.5 130.0 141.25Q127.5 155.0 125.5 167.5L123.5 197.5H143.0Q151.0 197.5 156.5 197.25Q162.0 197.0 162.0 196.5Q162.0 193.5 160.0 182.0Q158.0 170.5 155.25 156.0Q152.5 141.5 149.5 128.75Q146.5 116.0 145.0 110.5Q143.0 104.5 141.75 99.25Q140.5 94.0 140.5 93.0Q140.5 90.5 148.25 89.75Q156.0 89.0 167.5 89.0Q180.5 89.0 195.75 89.5Q211.0 90.0 222.25 91.0Q233.5 92.0 234.5 93.5L235.0 95.0Q235.0 97.0 232.75 105.5Q230.5 114.0 227.0 123.5Q223.5 134.0 221.25 148.75Q219.0 163.5 219.0 174.0V197.5H235.0Q247.5 197.5 249.75 195.75Q252.0 194.0 252.0 186.0Q252.0 173.0 249.25 158.0Q246.5 143.0 242.5 130.5Q242.0 126.5 241.25 122.25Q240.5 118.0 239.5 114.5Q238.5 110.5 237.75 107.0Q237.0 103.5 236.5 101.5L236.0 98.5Q235.5 97.5 235.5 96.0Q235.5 94.5 235.5 94.0Q235.5 87.5 243.0 87.5Q246.0 87.5 254.75 88.5Q263.5 89.5 272.0 90.75Q280.5 92.0 281.5 93.0Q282.0 94.5 282.0 96.0Q282.0 101.5 277.0 115.0Q273.5 123.0 270.5 137.75Q267.5 152.5 266.5 167.0L264.0 198.5L309.0 197.0Q314.5 196.5 320.0 196.5Q325.5 196.5 330.0 196.5Q344.0 196.5 352.0 197.75Q360.0 199.0 360.0 201.0Q360.0 202.0 363.25 207.5Q366.5 213.0 370.5 219.0Q379.0 231.5 393.5 243.25Q408.0 255.0 420.5 259.0L422.5 259.5Q423.5 259.5 423.75 259.75Q424.0 260.0 424.5 260.0Q426.5 260.0 427.0 253.25Q427.5 246.5 427.5 225.0Q427.5 209.0 426.5 199.0Q425.5 189.0 423.25 181.25Q421.0 173.5 417.0 164.5Q412.5 155.5 409.0 147.75Q405.5 140.0 405.5 138.5Q405.5 135.0 414.5 135.0Q421.5 135.0 432.0 136.0Q442.5 137.0 451.5 138.25Q460.5 139.5 462.0 140.5V142.0Q462.0 146.5 453.0 158.0Q444.0 170.5 441.5 195.5V206.0Q441.5 212.0 441.25 215.5Q441.0 219.0 441.0 219.0Q444.5 217.5 454.5 210.25Q464.5 203.0 475.75 193.75Q487.0 184.5 495.25 176.25Q503.5 168.0 503.5 164.5Q503.5 161.5 496.0 159.5Q492.5 159.0 486.75 157.5Q481.0 156.0 477.0 154.5L461.0 147.5L478.5 138.0Q484.5 135.0 493.75 128.75Q503.0 122.5 513.0 115.25Q523.0 108.0 531.0 101.75Q539.0 95.5 541.5 93.0H540.5Q534.0 93.0 520.0 93.5Q506.0 94.0 488.0 95.5Q464.5 97.0 451.0 98.75Q437.5 100.5 427.75 103.5Q418.0 106.5 406.0 112.5Q394.5 118.0 382.25 124.5Q370.0 131.0 364.0 136.0Q351.0 146.0 345.5 146.0Q338.5 146.0 338.5 137.5Q338.5 136.5 338.75 134.75Q339.0 133.0 339.5 131.0Q340.5 128.0 340.5 120.5Q340.5 114.0 339.75 105.5Q339.0 97.0 338.0 88.5Q336.5 70.5 336.5 52.0Q338.0 50.0 339.5 50.0Q342.0 50.0 347.75 53.75Q353.5 57.5 360.0 63.0Q374.0 74.5 389.0 79.75Q404.0 85.0 431.5 85.0Q458.0 85.0 487.5 83.5Q517.0 82.0 543.0 78.0Q554.5 76.5 563.5 76.5Q573.5 76.5 580.0 78.5Q586.5 80.5 586.5 84.5Q586.5 88.0 582.5 89.5Q578.5 91.0 573.0 91.0Q565.0 91.0 558.25 97.75Q551.5 104.5 546.25 114.5Q541.0 124.5 538.0 135.0Q535.0 145.5 535.0 152.5Q535.0 159.0 536.5 159.0Q543.5 159.0 543.5 167.5Q543.5 169.5 550.75 177.5Q558.0 185.5 567.5 195.0Q581.5 208.5 589.75 213.75Q598.0 219.0 605.0 219.0H615.5V187.5Q615.5 168.5 610.25 142.5Q605.0 116.5 596.25 90.25Q587.5 64.0 576.5 44.0Q571.5 33.5 568.0 24.75Q564.5 16.0 564.5 14.5Z" fill="black" /></svg>