<svg xmlns="http://www.w3.org/2000/svg" width="413.0" height="382.5" viewBox="0 0 413.0 382.5"><path d="M74.0 175.5 60.5 169.5Q54.5 166.5 46.0 159.5Q37.5 152.5 33.5 146.5L27.0 138.5V213.0L37.0 204.0Q43.0 198.5 51.0 192.0Q59.0 185.5 64.0 182.0ZM273.5 174.0 272.0 173.0Q268.5 170.5 262.0 165.75Q255.5 161.0 250.5 156.0L243.0 148.0V200.0L260.0 188.5Q275.0 178.0 275.0 176.0Q275.0 175.5 274.5 175.0Q274.0 174.5 273.5 174.0ZM150.5 28.5Q150.5 28.0 145.25 27.75Q140.0 27.5 132.5 27.5Q123.5 27.5 119.25 28.0Q115.0 28.5 115.0 32.0Q115.0 34.0 116.5 38.25Q118.0 42.5 120.0 48.5Q120.5 50.0 121.0 51.5Q121.5 53.0 122.0 55.0Q125.0 63.0 127.5 73.0Q130.0 83.0 130.5 89.0Q134.0 81.5 138.0 70.0Q142.0 58.5 145.5 47.0Q149.0 35.5 150.5 28.5ZM183.5 44.0Q181.0 35.5 179.0 28.75Q177.0 22.0 176.5 22.0Q172.0 22.0 166.75 33.25Q161.5 44.5 156.5 62.0Q151.5 79.5 148.5 98.5Q145.5 117.5 145.5 133.0V166.5H174.0Q190.0 166.5 197.25 165.0Q204.5 163.5 206.0 160.0Q206.0 142.5 202.25 122.0Q198.5 101.5 193.5 81.0Q188.5 60.5 183.5 44.0ZM231.0 33.0V32.0Q232.0 31.0 232.0 29.5Q232.0 28.5 228.5 28.0Q225.0 27.5 216.0 27.5Q208.0 27.5 202.5 27.75Q197.0 28.0 197.0 28.5Q197.0 30.5 199.5 41.5Q202.0 52.5 205.5 66.5L212.0 92.5L218.5 72.0Q222.0 59.5 225.75 48.0Q229.5 36.5 231.0 33.0ZM96.5 22.5Q95.5 19.5 95.5 18.5Q95.5 13.5 101.5 11.75Q107.5 10.0 126.5 10.0Q132.5 10.0 146.5 10.25Q160.5 10.5 178.0 11.0Q195.5 11.5 212.25 12.25Q229.0 13.0 240.25 14.0Q251.5 15.0 252.5 16.0V17.0Q252.5 19.5 248.75 30.25Q245.0 41.0 239.5 55.0Q235.5 65.5 233.0 73.25Q230.5 81.0 229.0 90.75Q227.5 100.5 226.75 116.25Q226.0 132.0 225.5 157.5Q225.0 183.0 224.5 223.0Q224.0 259.5 223.75 290.75Q223.5 322.0 223.25 341.75Q223.0 361.5 223.0 363.0Q223.0 366.5 221.0 369.5Q219.0 372.5 215.5 372.5Q211.5 372.5 209.5 346.25Q207.5 320.0 207.5 271.5V176.5L199.0 178.5Q194.0 179.5 184.0 180.5Q174.0 181.5 165.0 181.5H145.5V274.5Q145.5 321.5 143.5 347.0Q141.5 372.5 138.0 372.5Q134.0 372.5 132.0 347.0Q130.0 321.5 130.0 274.5V181.0L119.0 178.5Q118.0 178.0 115.5 178.0Q106.5 178.0 91.5 185.75Q76.5 193.5 60.75 205.25Q45.0 217.0 33.5 229.5Q27.0 237.5 21.0 243.0Q15.0 248.5 13.0 248.5L11.0 248.0Q10.0 246.0 10.0 229.5Q10.0 220.5 10.0 208.25Q10.0 196.0 10.5 181.5L11.0 169.5Q13.5 94.5 20.5 94.5Q25.5 94.5 29.0 109.5Q30.0 114.5 36.75 123.75Q43.5 133.0 52.0 141.0Q60.0 149.5 65.75 154.0Q71.5 158.5 79.75 160.25Q88.0 162.0 102.5 162.0Q107.0 162.0 112.75 162.0Q118.5 162.0 125.5 161.5Q125.5 142.0 120.5 117.0Q115.5 92.0 108.75 66.75Q102.0 41.5 96.5 22.5ZM228.5 171.0Q228.5 146.0 230.0 128.0Q231.5 110.0 234.5 110.0Q236.0 110.0 241.75 116.75Q247.5 123.5 253.0 132.0Q258.5 140.0 265.0 147.75Q271.5 155.5 276.0 157.0Q279.0 159.5 299.0 161.25Q319.0 163.0 342.5 163.5Q367.5 164.0 385.25 165.5Q403.0 167.0 403.0 169.5Q403.0 172.5 393.5 175.0Q384.0 177.5 370.25 179.0Q356.5 180.5 343.5 180.5Q338.0 180.5 333.25 180.25Q328.5 180.0 324.5 179.5Q323.0 179.0 321.5 179.0Q320.0 179.0 318.5 179.0Q303.0 179.0 284.5 189.5Q266.0 200.0 251.5 217.0Q245.5 223.5 240.0 228.5Q234.5 233.5 233.5 233.5Q231.5 233.5 230.0 215.25Q228.5 197.0 228.5 171.0Z" fill="black" /></svg>