<svg xmlns="http://www.w3.org/2000/svg" width="517.5" height="385.5" viewBox="0 0 517.5 385.5"><path d="M54.5 212.0Q53.5 211.0 50.0 209.5Q46.5 208.0 41.0 206.0L29.5 200.5L29.0 210.0Q29.0 211.0 29.0 212.75Q29.0 214.5 28.5 216.0Q28.5 217.0 28.25 218.5Q28.0 220.0 28.0 221.0Q31.5 220.5 37.25 218.5Q43.0 216.5 48.25 214.5Q53.5 212.5 54.5 212.0ZM146.0 262.0 144.5 258.0Q143.5 258.5 141.5 259.75Q139.5 261.0 136.5 263.0Q135.0 263.5 132.0 265.5L124.5 271.0L133.5 275.0Q143.0 281.5 147.5 282.5Q147.5 278.0 147.5 274.25Q147.5 270.5 146.5 266.5Q146.0 265.0 146.0 262.0ZM195.5 248.0V245.0Q195.0 241.5 194.25 238.75Q193.5 236.0 193.5 234.5Q191.0 235.5 184.25 240.25Q177.5 245.0 176.5 246.5Q176.5 247.5 184.25 250.75Q192.0 254.0 196.5 255.5Q196.5 253.0 196.25 251.25Q196.0 249.5 195.5 248.0ZM225.0 202.5Q225.0 201.0 219.0 201.0H216.5L222.0 211.5L222.5 215.0Q225.0 221.0 226.25 223.5Q227.5 226.0 227.5 226.0L229.5 225.0Q232.0 223.5 239.5 218.75Q247.0 214.0 255.0 209.5L264.5 204.5L258.0 204.0H249.0Q244.5 204.0 240.75 204.0Q237.0 204.0 236.0 204.5Q234.5 206.0 231.0 206.0Q230.0 206.0 228.0 205.25Q226.0 204.5 225.0 202.5ZM302.0 268.0 303.0 267.0Q301.0 267.5 293.5 267.5Q280.5 267.5 280.5 268.0Q280.5 268.0 284.5 272.0Q287.0 275.0 289.5 275.0Q292.5 275.0 295.5 273.0Q298.5 271.0 302.0 268.0ZM50.0 67.5 58.5 63.5 51.0 58.5Q48.0 56.5 45.0 55.0Q42.0 53.5 40.0 53.0Q39.0 58.0 39.0 68.0Q39.0 70.0 39.0 71.75Q39.0 73.5 38.5 75.0Q43.0 71.5 50.0 67.5ZM91.0 120.0Q89.5 118.5 88.0 117.75Q86.5 117.0 85.5 116.5V121.0Q85.5 122.0 85.5 122.75Q85.5 123.5 85.5 124.5Q86.5 124.0 87.5 123.5Q88.5 123.0 90.5 122.0Q92.5 121.0 92.5 121.0Q92.0 121.0 91.0 120.0ZM92.5 161.0 91.0 160.0Q88.0 158.5 87.0 158.5Q85.5 158.5 85.5 161.0Q85.5 164.5 87.0 164.5Q88.0 164.5 91.0 163.0L93.0 161.5Q92.5 161.0 92.5 161.0Q92.5 161.0 92.5 161.0ZM158.5 86.0 153.5 68.0 119.5 66.5H104.0Q90.0 66.5 83.75 68.0Q77.5 69.5 69.0 74.0L52.5 81.0V139.0Q52.5 167.0 52.75 179.5Q53.0 192.0 54.0 195.0Q55.0 198.0 57.0 199.0Q61.0 199.5 78.25 200.0Q95.5 200.5 116.0 200.5H164.5L162.0 166.5L141.0 165.5H131.0Q120.0 165.5 114.25 167.0Q108.5 168.5 98.5 175.0Q90.0 178.5 83.5 181.5Q77.0 184.5 76.5 184.5Q74.0 184.5 72.75 177.0Q71.5 169.5 71.5 158.0Q71.5 145.5 72.0 131.5Q72.5 117.5 73.5 107.0Q74.5 96.5 75.0 95.0L76.5 94.5Q77.5 93.5 78.5 93.5Q81.0 93.5 84.5 96.0Q88.0 98.5 91.5 101.5Q96.5 108.0 103.5 109.25Q110.5 110.5 131.5 111.5H141.5Q143.0 112.0 144.75 112.0Q146.5 112.0 148.0 112.0Q156.5 112.0 159.75 110.5Q163.0 109.0 163.5 106.0Q163.5 103.0 162.25 98.0Q161.0 93.0 158.5 86.0ZM134.0 151.0H164.5V125.5H139.0Q116.5 125.5 102.75 129.75Q89.0 134.0 89.0 139.5Q89.0 142.5 94.5 146.5Q98.5 149.0 107.0 150.0Q115.5 151.0 134.0 151.0ZM178.0 42.0Q176.0 42.5 167.0 42.5H159.5V43.0L160.5 46.5Q161.5 49.5 163.25 53.25Q165.0 57.0 165.5 60.5Q166.5 65.5 167.5 68.5Q168.5 71.5 168.5 71.5Q169.5 70.0 171.5 63.75Q173.5 57.5 175.5 51.0Q177.5 44.5 178.0 42.0ZM239.0 45.5Q235.5 43.0 232.0 41.5Q231.0 40.5 230.0 40.0Q229.0 39.5 228.0 39.0Q226.0 37.5 223.75 36.0Q221.5 34.5 219.0 33.5Q218.0 37.0 215.0 44.0L210.5 52.0H232.0Q238.0 52.0 243.0 52.0Q248.0 52.0 251.5 52.5Q249.0 51.5 245.75 49.5Q242.5 47.5 239.0 45.5ZM244.0 68.0Q237.5 65.5 235.0 65.5Q232.5 65.5 232.5 68.0Q232.5 71.0 234.0 75.5L235.0 78.0Q236.0 81.5 236.5 81.5Q237.0 81.5 240.5 74.5Q242.5 72.0 243.0 70.25Q243.5 68.5 244.0 68.0ZM390.0 102.5Q351.5 89.0 328.75 82.0Q306.0 75.0 294.5 72.25Q283.0 69.5 276.5 69.5H260.0L237.0 103.5L238.5 189.5L301.5 191.0L391.5 163.0Q423.0 152.5 448.5 144.0Q474.0 135.5 481.5 133.5Q477.0 132.5 463.5 128.25Q450.0 124.0 430.75 117.25Q411.5 110.5 390.0 102.5ZM27.0 60.5Q27.0 46.0 28.5 36.0Q30.0 26.0 32.0 26.0Q33.0 26.0 36.5 28.75Q40.0 31.5 45.0 35.5Q46.5 36.5 47.75 37.75Q49.0 39.0 50.5 40.0L63.0 52.0H147.0L145.0 44.5Q143.5 40.0 143.5 37.0Q143.5 32.0 147.0 30.5Q150.5 29.0 158.5 29.0H169.5Q171.5 29.0 176.75 29.25Q182.0 29.5 187.5 29.75Q193.0 30.0 194.5 30.5Q194.5 37.0 193.0 42.5Q191.5 48.0 188.5 54.5Q185.0 60.5 183.25 65.5Q181.5 70.5 180.5 78.25Q179.5 86.0 179.25 99.75Q179.0 113.5 179.0 137.5Q178.5 153.5 178.25 164.5Q178.0 175.5 178.0 182.5Q178.0 196.0 178.75 198.25Q179.5 200.5 180.5 200.5Q190.5 200.5 190.5 206.5Q190.5 211.5 180.0 217.0Q176.5 218.0 174.25 218.75Q172.0 219.5 170.0 219.5Q166.5 219.5 165.0 215.5Q162.0 214.0 128.5 214.0Q108.5 214.0 94.25 215.75Q80.0 217.5 66.75 221.5Q53.5 225.5 36.5 233.5Q28.5 237.0 23.5 238.25Q18.5 239.5 15.5 239.5Q10.0 239.5 10.0 234.5Q10.0 231.0 12.0 226.5Q14.0 223.5 15.0 216.25Q16.0 209.0 16.0 201.0Q16.0 191.0 17.25 184.25Q18.5 177.5 21.5 177.5Q25.0 177.5 30.5 183.0L32.0 184.5Q33.0 185.5 34.0 186.0Q37.5 189.5 38.0 189.5V138.0L37.5 127.0Q37.5 109.5 37.5 102.75Q37.5 96.0 37.0 95.5H35.0Q29.0 95.5 28.0 88.75Q27.0 82.0 27.0 60.5ZM211.0 22.0Q213.5 15.5 216.75 12.75Q220.0 10.0 222.0 10.0Q227.5 10.0 227.5 17.5Q227.5 22.0 240.25 30.5Q253.0 39.0 270.5 46.0Q278.0 49.0 297.75 56.25Q317.5 63.5 344.25 73.25Q371.0 83.0 399.5 93.0Q428.5 103.0 453.0 112.25Q477.5 121.5 492.5 127.75Q507.5 134.0 507.5 135.0Q507.5 137.5 495.5 142.75Q483.5 148.0 466.5 153.5Q428.5 165.0 393.75 176.0Q359.0 187.0 331.0 196.25Q303.0 205.5 284.5 212.25Q266.0 219.0 260.0 221.5Q255.0 224.5 248.0 229.25Q241.0 234.0 237.0 239.5Q228.0 248.5 223.5 248.5Q221.5 248.5 218.5 245.5Q214.0 232.5 212.5 228.5Q211.0 224.5 211.0 224.5Q210.5 224.5 209.5 228.25Q208.5 232.0 208.5 237.5Q208.5 244.0 210.0 252.5Q211.0 260.0 213.5 265.0Q216.0 270.0 223.0 276.25Q230.0 282.5 244.5 295.0Q255.5 304.0 264.25 310.75Q273.0 317.5 276.0 319.0Q276.0 314.5 275.25 305.0Q274.5 295.5 272.5 286.25Q270.5 277.0 267.5 274.5Q266.0 272.5 262.75 271.0Q259.5 269.5 257.0 269.0Q251.5 268.0 248.75 265.75Q246.0 263.5 246.0 262.0Q246.0 254.0 284.0 254.0Q295.5 254.0 308.0 253.25Q320.5 252.5 327.5 252.0H330.5Q331.0 252.0 331.5 251.75Q332.0 251.5 332.5 251.5Q333.5 251.0 336.5 251.0Q346.0 251.0 346.0 257.5Q346.0 263.5 334.0 266.0Q331.5 266.5 322.75 271.5Q314.0 276.5 306.0 282.0L286.0 296.0L286.5 316.5V336.5Q286.5 353.0 285.0 359.75Q283.5 366.5 279.5 366.5Q277.0 366.5 275.0 361.5Q273.0 356.5 273.0 349.5Q273.0 344.0 270.5 339.5Q268.0 335.0 259.5 327.0Q251.0 319.0 233.5 304.0Q205.5 279.5 189.25 268.25Q173.0 257.0 165.0 257.0Q159.5 257.0 159.5 262.0Q159.5 267.0 161.0 276.0L163.0 293.5L204.5 328.5Q221.5 342.5 233.75 354.75Q246.0 367.0 246.5 369.5Q246.5 374.0 242.5 375.5Q239.0 374.5 228.0 365.75Q217.0 357.0 192.0 336.0Q167.5 315.5 152.25 304.25Q137.0 293.0 127.25 288.25Q117.5 283.5 109.5 283.5Q93.0 283.5 92.0 277.0Q93.0 271.5 102.0 267.5Q106.0 265.5 115.0 260.5Q124.0 255.5 132.0 250.5Q140.5 244.0 149.5 240.0Q158.5 236.0 162.0 235.5Q165.0 235.0 171.75 231.75Q178.5 228.5 185.75 224.0Q193.0 219.5 198.25 215.5Q203.5 211.5 203.5 210.0Q203.5 206.0 198.5 199.5Q197.0 195.5 196.25 192.5Q195.5 189.5 195.0 187.5Q196.0 181.5 201.5 181.5Q204.5 181.5 209.0 184.5L210.0 185.0Q212.5 186.0 215.5 187.0Q218.5 188.0 220.5 188.0Q222.5 188.0 223.0 185.5Q223.5 183.0 223.5 170.5Q223.5 164.0 223.5 154.25Q223.5 144.5 223.0 131.5Q223.0 107.0 222.25 94.5Q221.5 82.0 220.5 77.0Q219.5 72.0 217.0 70.0Q213.5 66.5 212.5 66.5Q208.0 66.5 203.5 68.5Q197.0 70.0 191.0 70.0Q190.0 70.0 188.25 69.75Q186.5 69.5 186.5 69.5L186.0 66.5Q186.0 65.0 189.0 59.0Q192.0 53.0 196.5 47.0L199.0 43.0Q203.0 37.0 206.25 31.25Q209.5 25.5 211.0 22.0Z" fill="black" /></svg>