<svg xmlns="http://www.w3.org/2000/svg" width="765.0" height="451.5" viewBox="0 0 765.0 451.5"><path d="M200.0 329.5 177.0 308.0Q170.5 319.0 164.25 329.0Q158.0 339.0 151.0 349.0Q156.0 346.0 161.75 342.75Q167.5 339.5 173.5 336.0Q180.5 333.5 186.5 332.0Q192.5 330.5 197.5 330.0Q198.5 330.0 199.0 329.75Q199.5 329.5 200.0 329.5ZM174.0 261.5 191.5 264.0 183.0 249.5ZM394.0 328.5Q391.5 328.0 389.0 327.5Q386.5 327.0 383.5 326.5L380.5 325.0Q377.0 323.5 371.75 321.0Q366.5 318.5 362.5 315.0V317.5Q363.0 318.5 363.0 320.25Q363.0 322.0 363.0 324.0Q363.5 329.5 363.5 335.0Q363.5 340.5 363.5 343.5Q363.5 345.5 363.25 348.0Q363.0 350.5 363.0 352.5V361.0L362.5 363.5L363.0 363.0Q366.0 357.5 370.25 352.75Q374.5 348.0 379.0 343.5Q386.0 335.0 394.0 328.5ZM46.5 122.0V129.5Q45.5 136.5 45.0 144.5Q44.5 152.5 44.5 160.0Q46.0 157.0 47.75 154.25Q49.5 151.5 50.5 149.5Q53.0 146.5 55.75 143.75Q58.5 141.0 60.5 138.5L63.0 135.0Q64.5 134.0 65.5 133.0Q66.0 133.0 66.5 132.5L65.0 131.5Q61.5 131.0 57.25 129.0Q53.0 127.0 50.5 125.5Q50.0 124.5 48.75 123.75Q47.5 123.0 46.5 122.0ZM201.0 214.5 196.0 223.5Q198.5 223.5 200.75 223.5Q203.0 223.5 205.5 224.0Q207.0 224.0 208.0 224.5Q207.5 224.0 207.5 223.75Q207.5 223.5 207.0 223.0Q205.5 220.5 203.75 218.5Q202.0 216.5 201.0 214.5ZM214.0 185.5 233.0 186.0 226.0 166.0ZM271.5 133.0 269.5 124.0Q269.0 121.5 268.75 119.25Q268.5 117.0 268.5 114.5Q268.5 107.0 270.0 99.5Q267.0 103.0 263.5 107.25Q260.0 111.5 256.0 114.0L243.0 128.5ZM404.0 135.5Q402.0 134.5 400.0 134.0Q398.0 133.5 396.0 133.0Q393.0 131.0 388.5 130.0L379.0 125.0Q377.5 124.0 376.75 123.5Q376.0 123.0 375.5 123.0L375.0 122.5Q375.0 124.5 375.25 126.25Q375.5 128.0 376.0 130.0V145.5Q376.0 148.5 376.0 150.75Q376.0 153.0 375.5 155.5Q375.5 158.0 375.25 160.75Q375.0 163.5 375.0 166.0Q374.5 168.5 374.5 168.5Q374.5 168.5 374.5 168.5Q374.5 168.5 374.5 169.0Q374.5 169.5 374.5 171.0L375.5 170.0Q378.5 165.0 381.75 160.5Q385.0 156.0 388.5 151.5Q392.5 147.5 396.5 143.25Q400.5 139.0 404.0 135.5ZM718.5 43.0 720.0 39.0Q716.5 38.5 703.75 38.25Q691.0 38.0 678.5 38.0Q673.0 38.0 668.25 38.0Q663.5 38.0 661.0 38.0Q661.0 43.0 666.0 51.5Q670.0 59.0 674.25 75.5Q678.5 92.0 682.0 111.25Q685.5 130.5 686.5 147.0L691.0 132.5Q698.0 110.0 705.0 87.0Q712.0 64.0 718.5 43.0ZM342.5 338.5Q344.0 265.5 355.0 265.5Q361.5 265.5 366.0 285.5Q368.0 292.5 372.0 297.25Q376.0 302.0 387.0 305.0Q398.0 308.0 420.75 309.25Q443.5 310.5 482.5 310.5H567.0Q660.0 310.5 666.0 318.5V319.5Q666.0 325.5 637.25 328.0Q608.5 330.5 543.5 330.5H422.0L392.5 359.0Q388.5 362.5 383.25 369.25Q378.0 376.0 372.5 382.5Q366.0 391.0 359.5 398.5Q353.0 406.0 347.5 406.0H345.5Q343.5 404.0 342.25 400.5Q341.0 397.0 340.5 390.5Q338.5 392.0 334.5 392.0Q332.0 392.0 325.75 390.75Q319.5 389.5 312.0 386.5L242.5 354.0Q242.0 354.5 240.75 354.75Q239.5 355.0 239.0 355.0Q235.0 355.0 229.5 352.0Q221.0 346.0 210.0 346.0Q193.0 346.0 172.5 356.5Q152.0 367.0 130.0 386.0Q124.0 392.0 116.25 395.75Q108.5 399.5 104.5 400.0Q103.0 400.0 101.5 399.5Q96.5 395.0 96.5 392.0Q96.5 385.5 103.0 382.5Q110.5 375.5 118.75 364.5Q127.0 353.5 134.5 342.0Q142.0 330.5 146.5 322.5L154.5 306.5H126.0Q117.0 305.5 108.25 305.5Q99.5 305.5 90.0 305.5Q76.5 305.5 67.25 309.25Q58.0 313.0 51.0 323.75Q44.0 334.5 37.0 355.5Q32.0 369.5 26.5 377.0Q21.0 384.5 17.0 385.5Q15.0 385.5 12.5 383.0Q10.0 380.5 10.0 375.5Q10.0 374.5 10.25 372.75Q10.5 371.0 10.5 369.0Q12.0 366.0 12.0 363.0Q13.5 356.0 14.25 336.0Q15.0 316.0 15.0 295.0Q15.0 269.5 17.75 253.5Q20.5 237.5 25.5 237.5Q30.5 237.5 32.75 242.5Q35.0 247.5 35.0 255.0Q35.0 266.5 41.0 273.0Q47.0 279.5 62.0 282.25Q77.0 285.0 104.5 286.5L162.0 287.5L164.5 278.5L155.0 277.5Q150.0 277.5 146.75 275.75Q143.5 274.0 143.5 270.5Q143.5 265.5 154.5 253.0Q159.5 247.5 162.25 242.5Q165.0 237.5 165.0 235.5Q165.0 232.0 169.0 224.5Q173.0 217.0 178.0 210.0Q181.0 206.5 183.0 200.75Q185.0 195.0 185.0 194.5L186.0 195.5Q189.5 186.5 199.5 173.5Q203.0 168.5 206.75 163.0Q210.5 157.5 214.0 151.5Q210.0 152.5 209.0 152.5Q201.5 152.5 201.5 145.5Q201.5 143.0 205.0 138.5H119.5Q100.0 138.5 88.75 143.0Q77.5 147.5 69.0 159.5Q60.5 171.5 50.0 194.0Q37.5 219.5 29.0 219.5Q21.5 219.5 21.5 209.0Q21.5 206.5 22.0 203.5Q22.5 200.5 23.5 197.0Q24.0 191.5 24.5 180.25Q25.0 169.0 25.5 154.75Q26.0 140.5 26.0 127.5Q26.0 101.5 29.0 86.0Q32.0 70.5 37.0 70.5Q40.0 70.5 44.0 75.5Q48.0 80.5 48.0 88.5Q48.0 92.5 53.25 100.25Q58.5 108.0 63.0 112.0Q67.5 115.5 75.5 117.25Q83.5 119.0 99.75 119.25Q116.0 119.5 145.5 119.5H224.5L270.0 68.0Q286.0 49.0 295.0 41.0Q304.0 33.0 307.0 33.0Q310.5 33.0 311.5 34.75Q312.5 36.5 314.0 39.5Q313.0 42.0 310.25 48.5Q307.5 55.0 301.5 62.5Q297.0 67.5 293.25 81.25Q289.5 95.0 289.5 109.5Q289.5 118.0 291.25 125.75Q293.0 133.5 297.5 139.0L322.5 151.0Q333.0 156.0 341.75 162.0Q350.5 168.0 355.0 172.0Q355.0 171.0 355.0 170.75Q355.0 170.5 355.0 170.0V159.0Q355.5 155.5 355.5 152.25Q355.5 149.0 355.5 145.5Q356.5 134.5 356.5 124.75Q356.5 115.0 356.5 107.0Q356.5 96.5 356.75 89.0Q357.0 81.5 359.0 78.0Q361.0 74.5 365.0 74.5Q367.5 74.5 370.25 76.0Q373.0 77.5 374.5 80.5Q376.0 91.5 388.5 104.5Q401.0 117.5 431.5 121.5H528.5Q592.0 121.5 626.75 123.75Q661.5 126.0 663.5 130.5Q654.5 52.0 634.0 38.5Q629.5 35.0 625.5 31.0Q621.5 27.0 621.5 25.0Q621.5 21.0 631.5 19.25Q641.5 17.5 657.5 17.5Q673.0 17.5 687.75 17.75Q702.5 18.0 716.5 20.0Q718.0 20.0 719.75 20.25Q721.5 20.5 722.0 20.5L723.0 21.0Q724.0 21.0 725.0 20.0L726.0 18.5Q727.0 17.5 727.75 17.0Q728.5 16.5 729.0 16.0Q731.5 13.0 732.5 12.25Q733.5 11.5 737.0 10.0H739.0Q755.0 10.0 755.0 20.0Q755.0 23.0 753.25 26.25Q751.5 29.5 747.0 32.5Q743.5 36.0 738.5 48.25Q733.5 60.5 729.0 77.0Q686.0 203.5 686.0 366.0Q686.0 405.5 683.25 423.5Q680.5 441.5 674.5 441.5Q671.0 441.5 668.5 430.5Q666.0 419.5 666.0 394.0Q666.0 386.0 666.25 376.75Q666.5 367.5 666.5 356.5Q667.5 331.5 668.25 306.0Q669.0 280.5 669.0 255.5Q669.0 218.5 667.5 187.25Q666.0 156.0 663.5 131.5Q662.5 136.0 631.0 138.25Q599.5 140.5 543.0 140.5H432.5Q414.0 154.0 397.75 173.5Q381.5 193.0 374.5 215.0Q371.0 222.0 367.0 222.0Q363.0 222.0 359.5 213.0Q356.0 204.0 355.0 182.5Q354.0 183.5 350.5 184.5Q347.0 183.5 336.75 180.0Q326.5 176.5 314.5 171.0Q299.5 164.0 282.75 158.0Q266.0 152.0 258.0 150.5L242.0 149.0L244.0 158.5Q248.0 172.5 252.0 180.0Q256.0 187.5 262.0 187.5Q266.5 187.5 270.25 190.0Q274.0 192.5 275.5 195.0Q276.5 195.5 287.5 201.5Q298.5 207.5 313.5 213.0L350.5 227.5Q358.0 231.5 360.75 235.0Q363.5 238.5 363.5 241.0Q363.5 247.5 356.5 247.5Q355.0 247.5 352.5 246.75Q350.0 246.0 347.0 245.5L343.5 244.0Q335.0 240.0 325.25 236.5Q315.5 233.0 306.5 229.5L302.5 227.5Q287.5 221.0 272.75 215.25Q258.0 209.5 242.0 205.5Q237.0 203.5 231.25 203.25Q225.5 203.0 220.0 203.0H218.5Q217.5 203.5 216.0 203.5Q220.0 210.0 228.75 219.0Q237.5 228.0 246.0 233.5Q265.0 240.5 284.5 247.75Q304.0 255.0 322.5 261.5Q331.5 265.5 334.75 268.75Q338.0 272.0 338.0 274.5Q338.0 280.0 330.0 280.0Q327.0 280.0 323.75 279.25Q320.5 278.5 315.5 277.5H314.5Q311.5 276.0 304.5 273.5Q297.5 271.0 290.5 269.0Q282.0 266.5 272.5 263.0Q263.0 259.5 256.5 257.5L250.5 255.5Q236.5 250.0 226.5 247.25Q216.5 244.5 210.5 243.0L199.5 242.5L206.0 250.0Q212.5 257.0 224.75 265.75Q237.0 274.5 249.5 279.0L263.5 286.0Q284.0 293.5 299.75 301.5Q315.5 309.5 315.5 315.0V316.5Q313.0 321.5 306.5 321.5Q304.5 321.5 300.25 320.25Q296.0 319.0 292.0 317.5L208.0 282.0L179.5 279.5Q180.5 280.5 181.75 281.75Q183.0 283.0 184.0 284.5Q192.5 293.5 209.75 308.75Q227.0 324.0 253.0 336.0L319.5 367.0Q335.5 375.5 340.5 382.0Q340.5 380.5 340.5 378.75Q340.5 377.0 341.0 375.0Q341.0 371.5 341.5 367.75Q342.0 364.0 342.0 360.5Q342.5 353.5 342.5 347.75Q342.5 342.0 342.5 338.5ZM54.5 301.5H59.0L57.0 292.0Q52.0 296.5 48.75 300.0Q45.5 303.5 42.0 307.0Q41.5 308.0 39.75 309.75Q38.0 311.5 37.0 312.5Q36.5 314.5 35.75 316.25Q35.0 318.0 34.0 319.5Q33.5 321.5 32.5 323.5Q31.5 325.5 30.5 327.5L30.0 328.5L33.0 330.5Q33.0 329.0 33.25 328.75Q33.5 328.5 33.5 328.5L30.0 328.0V330.0H33.0Q33.0 330.0 33.25 329.0Q33.5 328.0 34.0 326.5Q34.0 324.0 34.25 321.25Q34.5 318.5 35.0 316.5Q35.0 314.5 35.0 312.5Q35.0 310.5 35.0 308.5V282.5L25.5 289.5L31.0 293.0Q34.0 294.0 37.5 296.0Q38.5 296.5 39.75 297.25Q41.0 298.0 41.5 298.5Q48.5 298.5 54.5 301.5Z" fill="black" /></svg>