<svg xmlns="http://www.w3.org/2000/svg" width="430.0" height="388.5" viewBox="0 0 430.0 388.5"><path d="M54.0 282.5Q48.0 278.5 42.25 276.0Q36.5 273.5 35.0 273.5Q34.5 273.5 33.75 282.75Q33.0 292.0 33.0 305.0V335.5L47.0 330.0Q54.0 326.5 67.75 321.75Q81.5 317.0 94.0 313.0L115.0 306.0L97.0 300.5Q86.5 297.0 73.75 292.0Q61.0 287.0 54.0 282.5ZM169.0 168.0Q169.0 164.5 151.0 164.5H133.0Q133.0 166.5 137.0 174.75Q141.0 183.0 146.0 190.5Q151.0 198.0 153.5 198.0Q155.5 198.0 155.5 192.0Q155.5 189.0 157.75 185.0Q160.0 181.0 163.0 178.0Q169.0 173.5 169.0 168.0ZM187.0 195.0Q196.5 186.0 200.25 181.5Q204.0 177.0 204.0 174.5Q204.0 172.5 200.75 169.75Q197.5 167.0 195.5 167.0Q194.0 167.0 187.5 171.0Q178.0 178.0 172.5 189.25Q167.0 200.5 164.5 219.5Q165.0 217.5 171.75 210.25Q178.5 203.0 187.0 195.0ZM244.5 208.5Q242.5 204.0 240.75 195.25Q239.0 186.5 238.0 179.5L235.5 167.0L194.5 209.5H211.5Q221.5 209.5 230.5 210.5Q239.5 211.5 243.0 212.5Q244.0 213.0 244.75 213.0Q245.5 213.0 246.0 213.5Q245.5 212.5 245.5 212.0Q245.5 211.5 245.0 211.0Q245.0 210.5 244.75 209.75Q244.5 209.0 244.5 208.5ZM164.5 219.5Q163.0 233.0 163.0 251.0L162.5 294.0L254.5 295.0H347.0Q347.0 292.5 339.0 285.75Q331.0 279.0 319.0 270.0Q307.0 261.0 293.75 252.0Q280.5 243.0 269.75 236.75Q259.0 230.5 254.0 229.0Q247.0 226.5 232.0 225.0Q217.0 223.5 202.5 223.5Q187.0 223.5 175.75 222.5Q164.5 221.5 164.5 219.5ZM119.0 63.0Q119.0 58.0 118.75 54.5Q118.5 51.0 118.0 51.0Q116.5 51.0 110.5 55.5Q104.5 60.0 97.5 66.75Q90.5 73.5 84.25 79.75Q78.0 86.0 75.5 89.0Q81.0 90.0 90.5 91.5Q100.0 93.0 108.75 94.25Q117.5 95.5 120.0 95.5Q123.0 95.5 123.0 94.5Q123.0 93.0 122.0 89.0Q121.0 85.0 120.0 77.25Q119.0 69.5 119.0 63.0ZM246.0 29.0Q246.0 28.5 240.0 28.25Q234.0 28.0 226.0 28.0Q218.0 28.0 212.5 28.25Q207.0 28.5 207.0 28.5Q215.5 45.0 221.0 54.75Q226.5 64.5 228.0 64.5Q228.0 57.5 231.0 52.25Q234.0 47.0 237.5 42.0Q241.0 38.0 243.5 34.0Q246.0 30.0 246.0 29.0ZM392.0 34.0Q392.0 33.5 383.25 33.25Q374.5 33.0 362.0 33.0Q346.0 33.0 340.25 33.5Q334.5 34.0 334.5 35.0Q334.5 36.5 335.0 36.5Q338.0 47.5 342.0 58.0Q346.0 68.5 349.5 78.5L360.0 109.5L367.0 87.5Q371.0 76.0 376.25 63.75Q381.5 51.5 385.0 46.5Q387.5 42.5 389.75 38.75Q392.0 35.0 392.0 34.0ZM181.0 16.0V14.5L181.5 13.5Q183.0 12.0 195.5 12.0Q205.0 12.0 218.25 12.5Q231.5 13.0 245.0 14.0Q258.5 15.0 267.75 15.75Q277.0 16.5 278.0 17.5L278.5 19.5Q278.5 21.0 274.75 25.75Q271.0 30.5 265.5 35.0Q255.0 43.5 248.75 52.5Q242.5 61.5 240.0 74.5Q237.5 87.5 237.5 108.0Q237.5 125.0 238.0 132.75Q238.5 140.5 240.5 140.5Q241.5 140.5 246.0 136.0Q247.5 134.5 250.0 134.5Q254.0 134.5 254.0 143.5Q254.0 146.0 254.0 149.75Q254.0 153.5 253.5 158.5L253.0 162.5V166.0Q252.5 170.5 252.25 174.25Q252.0 178.0 252.0 181.0Q252.0 188.5 253.75 192.75Q255.5 197.0 260.0 202.5Q264.5 208.0 274.5 217.0Q284.5 226.0 297.25 236.25Q310.0 246.5 322.5 255.5Q335.0 264.5 344.75 270.75Q354.5 277.0 358.0 278.0Q359.0 277.0 359.25 269.5Q359.5 262.0 359.5 250.5Q359.5 194.0 352.5 144.0Q345.5 94.0 320.5 42.5Q312.0 23.5 312.0 16.0Q312.0 10.0 317.0 10.0Q318.5 10.0 321.0 11.0Q323.5 12.0 327.0 13.5Q330.5 15.5 345.0 17.0Q359.5 18.5 376.0 18.5Q420.0 18.5 420.0 26.5Q420.0 30.0 412.5 34.0Q410.0 35.5 404.25 43.75Q398.5 52.0 393.0 63.0Q384.5 78.5 379.5 100.5Q374.5 122.5 372.25 154.75Q370.0 187.0 369.5 233.5Q369.5 257.0 370.0 270.0Q370.5 283.0 372.25 288.5Q374.0 294.0 377.0 296.0Q383.0 299.5 383.0 303.0Q383.0 306.0 377.5 309.5Q372.5 312.5 372.5 325.0Q372.5 328.5 372.75 332.25Q373.0 336.0 373.5 340.5V344.0Q374.0 348.5 374.0 352.75Q374.0 357.0 374.0 360.0Q374.0 378.5 367.5 378.5Q360.0 378.5 360.0 341.5V310.5L268.5 309.0H251.0Q247.0 308.5 243.0 308.5Q239.0 308.5 235.0 308.5Q207.5 308.5 188.5 309.5Q169.5 310.5 167.0 311.5Q160.5 313.5 159.5 329.5L159.0 347.0H154.0L152.0 329.0Q151.0 320.5 149.25 317.5Q147.5 314.5 142.5 314.5Q136.0 314.5 120.0 319.0Q104.0 323.5 84.25 330.25Q64.5 337.0 47.0 344.5Q23.5 354.0 15.5 354.0Q10.0 354.0 10.0 349.5Q10.0 346.0 14.0 341.0Q19.0 335.0 19.0 293.0Q19.0 273.0 20.25 259.75Q21.5 246.5 23.5 246.5Q25.5 246.5 34.0 252.5Q35.5 253.0 37.0 254.25Q38.5 255.5 40.5 256.5Q59.0 271.0 83.25 281.25Q107.5 291.5 131.5 291.5H146.0V258.5Q146.0 232.0 140.0 212.5Q134.0 193.0 119.5 172.5Q115.5 167.5 112.5 162.25Q109.5 157.0 109.5 155.5Q109.5 153.5 120.5 152.0Q131.5 150.5 146.5 150.5Q159.5 150.5 169.0 150.25Q178.5 150.0 178.5 149.5Q178.5 148.5 173.0 143.5Q167.5 138.5 159.5 132.5Q144.0 119.5 121.25 112.5Q98.5 105.5 70.5 105.5Q58.5 105.5 50.25 103.75Q42.0 102.0 42.0 99.5Q42.0 97.0 46.75 92.0Q51.5 87.0 57.5 82.5Q63.0 78.5 74.25 69.25Q85.5 60.0 96.5 50.0L102.5 45.0Q116.5 33.5 125.5 27.0Q134.5 20.5 138.0 20.5Q140.5 20.5 141.5 24.5Q141.5 28.0 138.5 35.5Q136.5 38.5 134.75 47.5Q133.0 56.5 133.0 65.5Q133.0 75.5 135.25 81.75Q137.5 88.0 146.0 97.0Q154.5 106.0 174.0 124.5Q189.0 139.0 201.75 150.25Q214.5 161.5 218.0 163.0Q219.5 161.0 221.0 150.75Q222.5 140.5 223.0 126.0Q223.0 105.5 220.75 92.0Q218.5 78.5 211.75 65.75Q205.0 53.0 192.0 36.5Q181.0 22.5 181.0 16.0Z" fill="black" /></svg>