<svg xmlns="http://www.w3.org/2000/svg" width="511.0" height="385.0" viewBox="0 0 511.0 385.0"><path d="M42.5 201.0Q39.0 197.0 36.0 193.75Q33.0 190.5 32.5 190.5Q32.0 190.5 31.5 197.25Q31.0 204.0 30.5 213.75Q30.0 223.5 29.75 233.5Q29.5 243.5 29.5 249.5V253.0Q30.5 252.0 32.0 250.75Q33.5 249.5 35.0 248.5Q39.0 245.0 45.75 240.25Q52.5 235.5 58.0 232.0Q70.5 224.5 70.5 221.5Q70.5 220.0 63.5 217.5Q59.5 216.5 53.25 211.75Q47.0 207.0 42.5 201.0ZM120.0 233.0Q120.0 225.0 112.0 225.0Q107.5 225.0 100.75 228.0Q94.0 231.0 87.0 235.0L82.0 238.0Q75.0 243.5 72.0 245.0Q73.5 245.5 77.25 246.5Q81.0 247.5 87.0 249.0Q90.5 250.0 95.25 251.25Q100.0 252.5 105.0 254.0Q109.0 254.5 115.5 256.5L120.0 258.0Q125.5 259.5 128.5 259.5Q128.0 258.5 127.5 257.0Q127.0 255.5 126.0 254.5Q124.0 249.5 122.0 243.25Q120.0 237.0 120.0 233.0ZM130.5 205.5V201.0Q125.5 203.0 123.25 205.25Q121.0 207.5 120.0 209.0Q120.5 209.5 121.75 210.0Q123.0 210.5 125.5 210.5Q127.5 210.5 129.0 208.75Q130.5 207.0 130.5 205.5ZM173.5 259.0 172.0 227.5 157.0 226.0H152.0Q146.5 226.0 142.25 227.5Q138.0 229.0 138.0 235.0Q138.0 240.5 139.75 247.5Q141.5 254.5 144.25 259.5Q147.0 264.5 149.5 264.5Q152.0 264.5 156.0 268.5Q160.0 272.5 162.0 277.0Q166.5 285.5 172.0 287.5H172.5Q174.0 287.5 174.0 274.5Q174.0 272.0 174.0 268.0Q174.0 264.0 173.5 259.0ZM228.5 202.0Q223.0 197.5 219.5 194.5Q216.0 191.5 216.0 191.5Q215.5 195.0 214.5 206.5Q213.5 218.0 212.75 229.75Q212.0 241.5 212.0 247.0Q217.0 245.5 225.5 241.75Q234.0 238.0 242.75 233.75Q251.5 229.5 257.5 226.0Q263.5 222.5 263.5 222.0Q263.5 221.5 260.75 220.5Q258.0 219.5 254.5 218.5Q249.5 217.5 241.75 212.25Q234.0 207.0 228.5 202.0ZM427.5 151.5V150.5Q432.0 145.0 434.0 141.0Q429.0 144.0 420.5 150.0Q412.0 156.0 403.0 163.0Q394.0 170.0 387.0 176.0Q380.0 182.0 378.5 184.5Q380.0 186.0 389.5 187.5Q399.0 189.0 407.0 189.0Q410.5 189.0 413.5 188.0Q416.5 185.0 416.5 177.5Q416.5 166.0 427.5 151.5ZM204.5 34.5Q203.5 33.5 193.5 32.75Q183.5 32.0 173.0 31.25Q162.5 30.5 158.5 30.5Q153.5 30.5 150.5 30.75Q147.5 31.0 147.5 31.0Q148.5 33.0 153.5 44.75Q158.5 56.5 163.5 70.5L174.5 97.5L180.5 79.5Q184.0 69.0 189.25 58.25Q194.5 47.5 198.0 43.0L199.5 41.0Q204.0 35.5 204.5 34.5ZM125.0 11.5Q126.5 10.0 130.5 10.0Q135.0 10.0 138.0 11.5Q142.0 12.5 156.5 14.25Q171.0 16.0 188.0 17.0L236.5 18.5L216.5 44.0Q206.5 57.5 200.75 70.75Q195.0 84.0 192.5 103.0Q190.0 122.0 189.0 154.0Q188.5 163.5 188.5 171.0Q188.5 178.5 188.5 184.0Q188.5 199.0 189.75 203.5Q191.0 208.0 193.0 209.0H194.5Q197.0 209.0 198.75 204.25Q200.5 199.5 201.5 187.5Q203.5 176.5 206.25 168.5Q209.0 160.5 211.5 160.5Q213.5 161.0 218.0 166.0Q222.5 171.0 226.5 177.5Q234.5 189.5 244.5 196.5Q254.5 203.5 271.75 206.25Q289.0 209.0 319.0 209.0H343.0Q369.5 208.0 383.75 207.75Q398.0 207.5 403.0 207.5Q401.0 206.5 401.0 206.5Q395.5 203.5 384.25 200.75Q373.0 198.0 363.0 196.5L329.5 191.5L351.5 179.5Q360.0 175.0 375.75 164.25Q391.5 153.5 409.75 140.0Q428.0 126.5 443.75 113.75Q459.5 101.0 467.5 93.5Q483.5 79.0 490.5 79.0Q495.0 79.0 495.0 84.0Q495.0 89.0 486.5 100.5Q465.0 126.5 453.5 141.75Q442.0 157.0 437.5 166.0Q433.0 175.0 433.0 182.5Q433.0 184.0 433.0 186.0Q433.0 188.0 433.5 189.5Q436.5 208.0 449.5 217.5Q472.0 235.5 486.5 250.25Q501.0 265.0 501.0 271.0Q501.0 274.0 497.5 274.0Q495.0 274.0 485.75 268.25Q476.5 262.5 465.0 252.0L435.0 224.5L360.5 226.0Q322.0 227.5 297.5 231.0Q273.0 234.5 255.0 242.5Q237.0 250.5 217.5 265.5Q204.5 275.5 199.0 275.5Q192.0 275.5 192.0 266.0Q192.0 263.0 192.75 258.5Q193.5 254.0 194.5 248.5L195.0 245.5Q197.0 238.5 198.25 233.75Q199.5 229.0 199.5 227.0Q199.5 225.0 195.0 225.0Q192.0 225.0 191.0 232.0Q190.0 239.0 190.0 260.5V297.0L225.0 320.5Q256.5 342.0 269.5 351.75Q282.5 361.5 282.5 367.5Q282.5 369.0 281.0 372.0Q279.0 375.0 275.5 375.0Q271.0 375.0 265.0 368.0Q262.0 364.5 251.5 356.5Q241.0 348.5 228.0 339.5Q215.0 330.5 204.25 324.25Q193.5 318.0 189.5 318.0L189.0 318.5H188.5Q187.5 321.0 185.25 322.5Q183.0 324.0 182.0 324.5Q181.5 324.0 180.25 323.5Q179.0 323.0 178.0 322.0H179.0Q178.5 321.0 178.0 320.25Q177.5 319.5 177.0 319.0L175.5 316.0Q175.0 314.5 174.0 313.0Q173.0 311.5 172.0 310.5Q168.5 303.5 153.0 294.25Q137.5 285.0 117.25 276.0Q97.0 267.0 79.0 262.0L47.5 254.5L33.0 271.5Q27.5 277.0 22.0 281.0Q16.5 285.0 14.0 285.5L13.0 285.0Q12.0 285.0 11.0 284.0Q10.0 282.0 10.0 279.0Q10.0 270.5 12.5 254.0Q14.5 244.0 16.75 225.75Q19.0 207.5 20.0 191.5Q23.0 151.5 30.5 151.5Q36.0 151.5 39.0 165.0Q41.5 173.5 50.0 184.25Q58.5 195.0 68.25 202.75Q78.0 210.5 84.5 210.5Q89.0 210.5 98.25 205.0Q107.5 199.5 118.0 191.0Q128.5 182.5 137.5 173.5Q146.5 164.5 150.0 158.0Q156.0 148.5 159.0 148.0Q162.0 149.0 163.5 154.0Q163.5 161.5 161.25 168.25Q159.0 175.0 156.0 182.5Q151.0 191.0 148.5 196.5Q146.0 202.0 146.0 205.5Q146.0 210.5 157.5 210.5Q166.0 210.5 168.0 207.0Q170.0 203.5 170.5 186.5Q171.0 181.0 171.0 175.25Q171.0 169.5 171.0 164.0Q171.0 158.5 171.0 154.0Q171.0 149.5 170.5 146.5Q170.0 135.5 164.5 116.5Q159.0 97.5 151.0 77.25Q143.0 57.0 134.5 43.5Q130.0 34.0 126.75 26.5Q123.5 19.0 123.5 15.5Q123.5 12.0 125.0 11.5Z" fill="black" /></svg>