<svg xmlns="http://www.w3.org/2000/svg" width="549.5" height="447.5" viewBox="0 0 549.5 447.5"><path d="M123.0 260.0Q120.0 261.0 114.25 264.75Q108.5 268.5 98.5 274.0Q95.0 276.0 91.5 278.0Q88.0 280.0 84.0 282.0L52.5 302.5L86.0 313.5Q91.5 315.5 95.25 316.5Q99.0 317.5 101.0 317.5Q102.0 317.5 102.0 310.0Q102.0 300.0 104.75 290.5Q107.5 281.0 113.5 274.0Q114.5 272.5 116.0 270.5Q117.5 268.5 118.0 267.5Q121.0 263.5 123.0 260.0ZM198.5 220.5H197.5Q186.0 210.5 182.0 209.5Q178.5 211.5 171.5 219.75Q164.5 228.0 156.0 239.75Q147.5 251.5 139.5 263.75Q131.5 276.0 126.0 286.0Q120.5 296.0 119.5 300.0Q124.5 300.0 135.25 293.75Q146.0 287.5 158.75 278.0Q171.5 268.5 183.5 258.75Q195.5 249.0 203.25 241.75Q211.0 234.5 211.0 233.5Q211.0 232.5 207.5 228.5Q204.0 224.5 198.5 220.5ZM186.5 279.5Q187.0 279.0 187.0 278.75Q187.0 278.5 187.5 278.0Q183.0 280.5 176.0 285.5Q169.0 290.5 167.5 291.5L149.5 306.5L162.0 310.0Q166.0 311.5 169.0 312.25Q172.0 313.0 174.0 313.5Q177.0 312.5 178.5 304.5Q179.5 301.5 180.5 299.0Q180.5 297.0 182.0 295.0Q183.0 290.5 184.5 286.0Q186.0 281.5 186.5 279.5ZM176.0 146.5Q168.5 144.0 160.5 142.0Q152.5 140.0 145.0 139.5L146.5 140.5Q153.5 146.5 153.5 156.0Q154.5 159.5 163.75 168.75Q173.0 178.0 185.75 188.75Q198.5 199.5 209.5 207.5Q220.5 215.5 224.0 216.5H226.5Q233.5 216.5 233.5 227.0Q233.5 230.0 236.0 235.0Q238.5 240.0 242.0 244.0Q245.0 247.0 246.75 250.75Q248.5 254.5 249.0 257.0Q249.0 257.5 248.5 258.0Q248.0 258.5 248.0 259.5Q248.0 259.5 247.0 261.5H246.5Q246.0 263.0 244.5 263.5Q243.0 264.0 242.0 264.0Q240.0 264.0 236.75 261.5Q233.5 259.0 231.0 255.5Q226.0 248.5 222.5 248.5H222.0Q220.0 250.5 215.5 258.25Q211.0 266.0 206.5 275.75Q202.0 285.5 198.75 293.75Q195.5 302.0 195.5 306.0H197.0Q203.0 306.0 217.75 295.75Q232.5 285.5 256.5 266.0L290.0 238.0L278.0 224.5Q269.5 214.5 255.75 202.5Q242.0 190.5 226.75 179.0Q211.5 167.5 198.0 158.75Q184.5 150.0 176.0 146.5ZM260.0 291.5Q262.0 289.0 262.75 287.0Q263.5 285.0 264.0 283.5Q261.5 285.0 253.5 290.5Q245.5 296.0 238.5 301.25Q231.5 306.5 231.5 308.0Q231.5 308.0 232.5 308.0Q233.5 308.0 235.0 308.5Q236.0 309.0 236.5 309.0Q237.0 309.0 238.0 309.5Q244.0 310.5 248.25 311.5Q252.5 312.5 256.0 312.5H258.0V312.0Q257.5 310.5 257.0 309.25Q256.5 308.0 256.5 306.0Q256.5 302.5 257.5 299.0Q258.5 295.5 260.0 291.5ZM316.5 198.0Q307.5 189.0 293.25 177.25Q279.0 165.5 263.25 155.5Q247.5 145.5 233.5 143.0Q229.0 141.0 225.5 141.0Q226.0 149.0 233.0 157.75Q240.0 166.5 246.0 171.5Q250.0 175.0 259.75 183.75Q269.5 192.5 280.25 203.25Q291.0 214.0 298.75 223.75Q306.5 233.5 306.5 238.0Q306.5 243.0 303.5 246.0Q296.0 257.5 289.5 270.25Q283.0 283.0 280.5 290.0Q287.5 288.5 301.5 281.5Q315.5 274.5 332.25 264.75Q349.0 255.0 364.75 244.75Q380.5 234.5 391.25 226.25Q402.0 218.0 403.0 215.0Q401.0 211.0 391.0 202.0Q381.0 193.0 367.75 182.5Q354.5 172.0 342.0 163.25Q329.5 154.5 323.0 151.5Q321.0 150.0 315.0 147.5Q309.0 145.0 302.25 143.0Q295.5 141.0 292.0 141.0Q291.5 141.0 291.0 141.25Q290.5 141.5 290.5 141.5Q290.5 145.5 300.0 156.0Q309.5 166.5 327.0 183.0Q340.0 195.0 349.0 206.0Q358.0 217.0 358.0 220.0L357.5 222.5L354.5 223.5Q350.0 223.5 339.25 216.25Q328.5 209.0 316.5 198.0ZM371.0 270.0Q376.0 262.5 379.5 256.0Q373.0 259.0 361.5 265.75Q350.0 272.5 338.25 279.75Q326.5 287.0 318.25 292.5Q310.0 298.0 310.0 298.5Q310.0 299.5 316.25 302.0Q322.5 304.5 331.5 307.0Q340.5 309.5 348.75 311.25Q357.0 313.0 360.5 313.0V309.5Q360.5 306.5 359.5 304.5Q359.5 294.5 362.75 286.5Q366.0 278.5 371.0 270.0ZM145.0 80.0Q141.0 80.5 131.75 85.75Q122.5 91.0 105.5 102.5L74.5 121.5L86.0 125.0Q115.5 136.0 122.0 136.0Q123.5 136.0 123.5 129.0Q123.5 123.5 126.75 114.25Q130.0 105.0 135.0 97.0Q139.0 92.0 141.5 87.5Q144.0 83.0 145.0 80.0ZM208.0 101.0Q209.0 100.0 209.0 99.0Q209.0 98.0 209.5 97.5Q208.0 98.5 205.75 100.0Q203.5 101.5 201.0 103.5Q198.5 105.5 195.75 107.5Q193.0 109.5 189.5 112.0L171.5 125.5L186.5 130.0Q194.0 132.5 196.0 132.5Q197.5 132.5 198.5 130.25Q199.5 128.0 201.0 124.5Q202.5 119.0 204.75 111.75Q207.0 104.5 208.0 101.0ZM273.5 109.0Q273.5 107.0 274.5 105.0Q274.5 104.0 274.75 103.5Q275.0 103.0 275.0 102.5Q271.5 105.0 265.0 110.25Q258.5 115.5 253.25 120.5Q248.0 125.5 248.0 127.0Q248.0 127.0 248.75 127.5Q249.5 128.0 250.0 128.5Q256.5 132.5 263.0 132.5Q268.5 132.5 268.5 129.0Q268.5 121.5 273.5 109.0ZM340.0 108.0H340.5Q341.5 106.5 342.0 105.25Q342.5 104.0 343.0 103.5L343.5 102.5Q340.5 104.5 335.75 108.0Q331.0 111.5 325.5 115.5Q319.5 121.5 315.5 124.5Q312.5 128.0 312.5 128.0Q314.0 128.0 315.0 128.5Q316.0 128.5 319.0 129.5Q323.0 131.0 327.5 131.75Q332.0 132.5 334.0 132.5Q334.5 132.5 334.75 132.25Q335.0 132.0 335.0 132.0Q335.0 126.0 336.0 120.25Q337.0 114.5 340.0 108.0ZM427.0 84.0Q429.0 81.0 430.25 77.75Q431.5 74.5 432.0 72.5Q427.0 75.0 418.0 81.25Q409.0 87.5 399.5 95.0Q390.0 102.5 383.0 109.25Q376.0 116.0 374.5 119.0Q378.0 120.5 386.25 123.25Q394.5 126.0 403.5 128.5Q412.5 131.0 417.5 132.5Q417.5 121.0 419.5 108.0Q421.5 95.0 427.0 84.0ZM451.0 30.0Q461.0 20.0 468.5 15.0Q476.0 10.0 478.0 10.0Q483.0 10.0 483.0 14.5Q483.0 18.5 473.5 32.5Q465.0 44.5 456.0 62.0Q447.0 79.5 441.0 95.0Q435.0 110.5 435.0 117.0Q435.0 127.0 440.25 137.5Q445.5 148.0 458.75 162.25Q472.0 176.5 496.0 199.5Q515.0 217.5 527.25 231.75Q539.5 246.0 539.5 249.0L536.5 251.5H535.0Q531.0 251.5 521.5 245.25Q512.0 239.0 502.0 229.0Q494.5 221.0 481.5 209.0Q468.5 197.0 452.25 184.25Q436.0 171.5 419.25 160.25Q402.5 149.0 387.0 142.0Q371.5 135.0 359.5 135.0Q357.5 135.0 355.25 135.25Q353.0 135.5 353.0 135.5Q353.0 136.0 353.75 136.25Q354.5 136.5 355.5 138.0V137.5Q363.5 142.5 363.5 149.5V151.5Q364.5 155.5 371.75 163.0Q379.0 170.5 388.75 179.0Q398.5 187.5 407.75 193.5Q417.0 199.5 422.0 200.5H422.5Q425.0 199.0 427.0 199.0Q435.0 199.0 435.0 207.5Q435.0 211.5 431.75 217.5Q428.5 223.5 422.5 229.0Q416.0 234.5 408.0 245.0Q400.0 255.5 392.25 267.5Q384.5 279.5 379.5 289.5Q374.5 299.5 374.5 304.0Q374.5 307.5 376.75 311.5Q379.0 315.5 382.5 319.0Q385.0 321.5 386.5 325.5Q388.0 329.5 388.0 332.0V333.0Q388.0 334.0 400.0 345.25Q412.0 356.5 427.0 369.5Q453.0 392.0 467.25 408.0Q481.5 424.0 481.5 431.5Q481.5 435.0 479.0 437.5H477.0Q475.0 437.5 471.25 434.75Q467.5 432.0 463.5 427.0Q459.5 421.0 446.25 409.25Q433.0 397.5 415.75 383.25Q398.5 369.0 381.25 356.25Q364.0 343.5 351.5 336.0Q340.5 329.0 324.25 322.75Q308.0 316.5 294.0 312.5Q280.0 308.5 274.0 308.5H273.5Q273.5 315.0 286.0 330.75Q298.5 346.5 318.5 364.0Q330.0 375.0 338.25 385.0Q346.5 395.0 346.5 398.0Q346.5 401.0 344.5 402.5L343.0 403.0Q339.5 403.0 327.75 394.75Q316.0 386.5 303.0 375.0Q283.0 356.0 257.5 339.25Q232.0 322.5 203.0 320.5Q206.5 325.5 206.5 329.5Q206.5 332.0 216.5 343.0Q226.5 354.0 241.5 367.0Q256.0 381.0 264.5 392.75Q273.0 404.5 273.0 408.5V410.0Q271.0 414.0 267.5 414.0Q263.5 414.0 256.5 405.0Q248.0 392.0 230.5 377.5Q213.0 363.0 192.25 350.0Q171.5 337.0 153.0 328.25Q134.5 319.5 123.5 318.5Q119.0 318.5 119.0 321.5Q119.0 324.0 123.0 324.0Q132.5 324.0 132.5 333.0Q132.5 342.0 135.0 345.25Q137.5 348.5 146.5 354.5Q156.0 361.0 169.25 373.0Q182.5 385.0 195.5 397.75Q208.5 410.5 217.0 420.5Q225.5 430.5 225.5 433.5Q225.5 436.5 222.0 437.0H221.5Q218.0 437.0 208.75 430.5Q199.5 424.0 189.0 414.5Q145.0 371.5 105.25 347.0Q65.5 322.5 33.0 316.5Q10.0 311.5 10.0 304.5Q10.0 299.0 30.0 291.5Q37.0 289.0 50.25 281.75Q63.5 274.5 79.25 264.75Q95.0 255.0 111.0 244.5Q127.0 234.0 139.5 225.0Q152.0 216.0 158.5 210.0L171.5 198.0L162.5 191.5Q136.5 172.0 112.25 157.75Q88.0 143.5 72.5 139.5Q54.5 134.5 45.5 131.25Q36.5 128.0 36.5 124.5Q36.5 121.0 42.5 117.5Q48.5 114.0 58.0 109.5Q69.5 104.0 85.25 94.75Q101.0 85.5 117.5 75.25Q134.0 65.0 148.25 55.25Q162.5 45.5 172.0 38.5Q181.5 31.5 182.5 29.0Q184.5 24.5 186.75 21.5Q189.0 18.5 193.0 18.5Q201.0 18.5 201.0 26.5Q201.0 31.0 198.0 37.25Q195.0 43.5 189.5 48.5Q184.5 52.5 177.5 62.25Q170.5 72.0 163.25 83.5Q156.0 95.0 150.5 105.25Q145.0 115.5 143.0 121.0Q148.5 120.0 160.75 112.25Q173.0 104.5 187.75 92.75Q202.5 81.0 216.25 68.25Q230.0 55.5 239.0 44.5Q246.5 35.5 251.0 35.5Q255.5 35.5 255.5 40.0Q255.5 45.0 250.25 56.75Q245.0 68.5 235.5 86.5Q229.0 98.0 224.0 107.75Q219.0 117.5 218.0 121.0Q222.0 121.0 232.25 114.25Q242.5 107.5 256.25 96.0Q270.0 84.5 284.0 71.0Q295.5 61.0 305.5 54.5Q315.5 48.0 318.5 48.0H319.0V50.5Q319.0 53.5 314.0 64.5Q309.0 75.5 301.5 91.0Q295.5 101.0 291.25 109.5Q287.0 118.0 286.0 122.0Q294.0 119.5 311.25 106.5Q328.5 93.5 347.5 75.0Q361.5 62.5 372.5 54.25Q383.5 46.0 385.0 46.0Q388.5 46.0 388.5 50.0Q388.5 52.0 385.25 59.5Q382.0 67.0 376.5 75.5L374.5 79.5Q371.0 85.5 368.75 90.5Q366.5 95.5 365.5 98.0Q371.0 95.5 381.25 88.5Q391.5 81.5 404.0 71.75Q416.5 62.0 429.0 51.0Q441.5 40.0 451.0 30.0Z" fill="black" /></svg>