<svg xmlns="http://www.w3.org/2000/svg" width="521.0" height="388.0" viewBox="0 0 521.0 388.0"><path d="M39.5 288.0V271.5L23.5 258.5V298.5L29.5 295.0ZM52.5 282.0 60.0 278.5 52.5 277.0ZM43.0 186.5 48.0 171.0 38.0 176.0ZM62.5 143.5Q60.5 142.5 59.0 141.75Q57.5 141.0 55.5 140.5Q54.0 139.5 52.75 139.0Q51.5 138.5 50.0 138.0L45.0 136.5Q42.0 134.5 38.5 132.5Q35.0 130.5 32.0 128.5Q31.0 127.5 30.0 127.5L29.0 126.5V129.0Q29.0 129.5 29.25 130.75Q29.5 132.0 29.5 133.0V155.0Q29.5 156.0 29.25 156.75Q29.0 157.5 29.0 158.5Q29.0 159.0 28.75 159.75Q28.5 160.5 28.5 162.0Q31.5 160.5 33.0 159.5Q33.5 159.0 34.0 158.75Q34.5 158.5 35.0 158.0Q37.5 156.5 40.5 154.5Q41.5 153.5 43.0 152.75Q44.5 152.0 45.5 151.5Q48.0 150.5 50.75 149.0Q53.5 147.5 56.0 146.5L59.5 145.0Q60.5 144.5 61.0 144.25Q61.5 144.0 62.5 143.5ZM157.0 167.0 155.5 146.0 130.5 145.5Q110.0 145.5 99.5 146.0Q89.0 146.5 84.0 148.75Q79.0 151.0 74.5 155.5Q62.5 168.5 57.5 184.0Q52.5 199.5 52.5 229.0V260.0Q56.5 261.0 67.5 262.75Q78.5 264.5 93.5 265.75Q108.5 267.0 124.0 267.0H182.5V237.5Q182.5 226.0 182.25 213.75Q182.0 201.5 181.0 194.5L166.0 205.5Q160.5 209.0 158.0 209.0Q154.5 209.0 154.5 205.5Q154.5 204.0 155.5 202.0V200.5Q155.5 196.0 153.0 194.0Q150.5 191.5 150.5 189.0Q150.5 185.5 155.5 185.5Q157.5 185.5 157.5 177.5Q157.5 175.5 157.5 173.0Q157.5 170.5 157.0 167.0ZM176.5 155.5 175.0 146.0H161.5ZM169.0 177.5 176.5 173.0 168.5 167.0ZM217.5 243.0Q217.5 242.0 213.5 237.5Q209.5 233.0 208.0 232.5V253.5Q209.0 253.5 213.25 249.25Q217.5 245.0 217.5 243.0ZM227.5 326.5 230.5 322.5Q234.5 318.5 238.5 314.25Q242.5 310.0 246.5 306.0L256.0 296.5Q258.0 295.0 259.75 293.0Q261.5 291.0 263.5 289.0L208.5 296.5Q211.5 307.5 213.0 317.25Q214.5 327.0 214.5 338.5V344.0Q215.5 343.0 216.25 341.75Q217.0 340.5 217.5 339.5Q220.0 336.5 222.75 333.0Q225.5 329.5 227.5 326.5ZM266.5 271.0 255.0 262.0Q248.5 256.0 243.5 252.25Q238.5 248.5 237.0 247.5Q234.5 248.0 228.5 254.25Q222.5 260.5 216.25 267.75Q210.0 275.0 207.0 279.5ZM185.5 123.5Q189.5 112.5 194.0 101.75Q198.5 91.0 203.5 80.0Q200.0 80.5 195.0 80.75Q190.0 81.0 185.5 81.0H183.0L170.5 80.0Q175.5 91.0 179.0 101.75Q182.5 112.5 185.5 123.5ZM247.5 134.5V127.0Q247.5 117.0 246.5 117.0Q244.5 117.0 240.75 121.5Q237.0 126.0 237.0 128.0Q237.0 129.5 241.5 132.0Q246.0 134.5 247.5 134.5ZM282.0 173.5Q280.0 171.5 272.5 166.75Q265.0 162.0 258.0 157.5Q251.0 153.0 250.0 153.0Q246.0 153.0 238.0 157.0Q230.0 161.0 221.5 166.75Q213.0 172.5 207.0 178.5Q201.0 184.5 201.0 189.0Q201.0 192.5 205.0 198.75Q209.0 205.0 215.0 211.75Q221.0 218.5 226.75 223.0Q232.5 227.5 236.0 227.5Q239.5 227.5 246.0 225.0Q252.0 222.5 262.75 217.75Q273.5 213.0 284.5 207.75Q295.5 202.5 303.25 198.75Q311.0 195.0 311.0 194.5Q311.0 194.5 308.0 192.75Q305.0 191.0 301.0 187.5Q292.0 181.5 282.0 173.5ZM323.0 126.5Q304.5 112.0 280.25 97.5Q256.0 83.0 234.0 73.5Q233.0 72.5 231.75 72.0Q230.5 71.5 229.5 71.0L228.0 70.5Q226.0 69.5 225.5 69.0Q225.0 69.5 221.5 77.0Q218.0 84.5 214.0 94.5Q206.0 111.0 201.75 125.25Q197.5 139.5 197.5 148.5Q197.5 158.5 202.5 158.5Q204.5 158.5 207.5 157.0Q210.0 156.5 214.0 154.0Q221.0 150.5 227.0 148.5Q235.0 145.5 235.0 143.5Q235.0 142.5 232.25 140.75Q229.5 139.0 225.5 137.0L207.0 131.0L225.0 119.0Q230.0 115.5 235.25 110.5Q240.5 105.5 242.5 102.0Q248.0 91.5 252.5 91.5Q259.5 91.5 259.5 103.5Q259.5 113.5 261.0 124.0L261.5 130.5L273.5 124.5Q279.0 121.5 285.25 119.25Q291.5 117.0 297.5 117.0Q300.5 117.5 300.5 120.0Q300.5 125.5 285.5 133.0Q279.0 135.5 273.25 138.5Q267.5 141.5 266.5 143.0Q268.5 145.5 277.25 152.5Q286.0 159.5 297.0 168.0L307.5 176.5Q313.0 180.5 317.75 183.25Q322.5 186.0 325.5 186.0Q327.5 186.0 330.5 185.0Q333.5 183.5 337.5 183.5Q343.0 183.5 343.0 188.0Q343.0 192.5 337.5 195.5Q337.0 196.0 336.25 196.75Q335.5 197.5 335.5 197.5Q335.5 198.0 339.5 201.0Q340.5 201.5 341.5 202.5Q342.5 203.5 343.5 204.5Q347.5 208.5 349.0 212.0Q350.5 215.5 350.5 217.5Q350.5 221.5 346.0 221.5Q340.0 221.5 331.0 213.0L320.0 202.5L283.0 223.0Q270.5 230.0 261.5 235.25Q252.5 240.5 252.5 241.0Q252.5 242.5 256.75 246.5Q261.0 250.5 266.5 255.25Q272.0 260.0 277.0 263.5Q282.0 267.0 283.5 267.0Q284.5 267.0 294.75 261.75Q305.0 256.5 319.75 248.25Q334.5 240.0 350.0 231.25Q365.5 222.5 377.25 215.5Q389.0 208.5 393.0 205.5ZM420.5 207.0 448.5 234.5 448.0 192.5Q443.0 194.0 436.0 198.5ZM284.5 47.5Q284.5 37.5 282.0 37.5Q280.0 37.5 275.25 40.0Q270.5 42.5 264.0 46.5Q257.0 51.5 250.25 55.75Q243.5 60.0 241.0 60.0H240.0Q240.0 62.5 246.0 64.0Q249.0 65.0 258.75 70.0Q268.5 75.0 278.0 81.0Q284.0 85.0 290.0 88.25Q296.0 91.5 299.5 93.0Q298.5 90.5 297.0 86.5Q295.5 82.5 293.0 78.0Q289.5 69.5 287.0 61.25Q284.5 53.0 284.5 47.5ZM484.0 73.0Q480.0 72.0 469.75 71.0Q459.5 70.0 449.5 69.25Q439.5 68.5 436.5 68.5Q429.0 68.5 429.0 70.5Q429.0 74.0 433.5 81.0Q436.0 84.5 440.0 95.75Q444.0 107.0 447.5 118.0L448.5 121.0Q450.5 126.0 451.75 129.5Q453.0 133.0 453.5 135.0Q454.0 134.5 454.0 133.75Q454.0 133.0 454.5 132.5Q456.5 124.5 461.25 113.75Q466.0 103.0 471.5 93.0Q477.0 83.0 481.0 78.0Q482.0 77.0 482.75 75.75Q483.5 74.5 484.0 73.0ZM284.5 13.0Q286.0 10.0 288.5 10.0Q293.5 10.0 296.5 37.0Q297.5 46.5 301.0 58.25Q304.5 70.0 309.5 79.5Q312.5 86.0 322.0 98.5Q331.5 111.0 344.25 126.25Q357.0 141.5 370.0 156.25Q383.0 171.0 393.25 181.5Q403.5 192.0 408.0 195.0L448.5 171.0Q447.5 163.5 442.5 147.25Q437.5 131.0 431.0 112.5Q424.5 94.0 418.5 81.0Q414.0 72.0 411.0 64.25Q408.0 56.5 408.0 55.0L408.5 53.0Q408.5 53.0 410.0 52.75Q411.5 52.5 412.0 52.5Q414.5 52.5 420.0 53.0Q425.5 53.5 431.0 55.0Q438.5 56.0 453.0 57.0Q467.5 58.0 479.0 58.5Q492.0 58.5 501.5 60.0Q511.0 61.5 511.0 62.5Q511.0 63.0 506.75 68.5Q502.5 74.0 497.0 80.0Q489.0 89.0 483.25 97.75Q477.5 106.5 473.75 118.75Q470.0 131.0 468.0 150.5Q466.0 170.0 465.25 200.0Q464.5 230.0 464.5 274.0Q464.5 325.0 461.5 348.75Q458.5 372.5 455.0 372.5Q447.0 372.5 447.0 311.0V259.5L404.5 217.0L357.5 243.0Q355.5 244.0 353.5 245.0Q351.5 246.0 350.0 247.0Q348.0 248.0 346.0 249.0Q344.0 250.0 342.5 251.0Q330.5 257.0 321.75 262.25Q313.0 267.5 304.75 273.75Q296.5 280.0 286.5 289.75Q276.5 299.5 262.0 315.0L254.5 322.5Q239.0 339.5 227.25 352.75Q215.5 366.0 214.5 368.0Q211.5 378.0 207.0 378.0Q199.0 378.0 199.0 352.0V338.0Q199.5 335.0 199.5 332.0Q199.5 329.0 199.5 326.5Q199.5 321.0 199.0 319.5L197.5 312.5Q197.0 316.0 196.75 319.0Q196.5 322.0 195.5 325.5Q195.0 328.0 193.25 328.5Q191.5 329.0 189.0 329.0L188.0 328.5H186.5Q183.5 327.5 183.0 318.25Q182.5 309.0 182.5 299.5V280.5H134.5Q114.5 280.5 102.5 281.25Q90.5 282.0 83.25 283.5Q76.0 285.0 69.0 288.5L64.5 290.0Q58.0 292.5 55.25 295.0Q52.5 297.5 52.5 304.5Q52.5 309.5 51.0 313.25Q49.5 317.0 46.0 317.0Q41.5 317.0 40.5 311.5Q39.5 306.0 39.5 303.0Q38.5 303.5 36.5 305.0Q34.5 306.5 32.0 308.5L30.5 309.5Q24.0 314.5 18.75 318.0Q13.5 321.5 13.0 321.5Q10.0 321.5 10.0 313.0V301.5Q10.5 296.0 10.5 289.75Q10.5 283.5 10.5 277.0V249.0Q10.5 231.0 14.5 231.0Q16.5 231.0 21.25 234.5Q26.0 238.0 31.5 243.5L39.5 251.5V238.0Q39.5 225.0 37.0 213.0Q34.5 201.0 30.5 192.75Q26.5 184.5 22.0 184.0H21.5Q20.5 184.0 20.0 184.5H18.5Q15.0 184.5 13.75 181.5Q12.5 178.5 12.5 169.0Q12.5 164.5 13.0 153.25Q13.5 142.0 14.25 129.25Q15.0 116.5 15.75 106.75Q16.5 97.0 17.5 96.5L19.0 96.0Q21.5 96.0 24.0 98.0Q26.5 100.0 29.5 103.0L30.5 104.5Q31.5 105.0 32.5 106.0Q33.5 107.0 34.5 107.5Q43.5 118.5 52.0 123.75Q60.5 129.0 75.75 130.75Q91.0 132.5 119.5 132.5H172.5Q171.5 126.5 167.75 115.25Q164.0 104.0 160.0 96.0Q156.0 86.0 152.75 78.5Q149.5 71.0 149.5 70.5Q149.5 68.0 160.0 67.25Q170.5 66.5 185.0 66.5Q198.0 66.5 206.75 66.0Q215.5 65.5 215.5 65.0Q215.5 63.0 221.0 58.5Q226.5 54.0 233.5 49.5Q242.5 45.0 253.5 37.75Q264.5 30.5 273.5 23.25Q282.5 16.0 284.5 13.0ZM167.5 192.5 166.5 193.0Z" fill="black" /></svg>