<svg xmlns="http://www.w3.org/2000/svg" width="608.0" height="383.0" viewBox="0 0 608.0 383.0"><path d="M83.5 260.5 82.0 258.0Q79.0 254.5 76.5 251.75Q74.0 249.0 73.0 247.5Q72.5 247.5 67.75 256.0Q63.0 264.5 58.0 274.75Q53.0 285.0 50.0 291.5Q52.5 291.5 54.75 291.25Q57.0 291.0 59.0 290.5Q64.0 290.5 71.5 289.0Q77.5 288.0 84.5 287.0Q91.5 286.0 98.0 286.0L110.5 284.0L107.0 282.0Q102.0 279.0 94.75 272.75Q87.5 266.5 83.5 260.5ZM151.5 215.0Q150.0 213.5 150.0 213.5L149.0 212.0Q147.0 212.0 147.0 230.5Q147.0 238.0 147.0 243.5Q147.0 249.0 147.5 249.0Q148.5 249.0 154.5 246.0Q160.5 243.0 167.0 238.5L180.0 231.5L170.5 227.5Q164.5 224.0 158.75 220.5Q153.0 217.0 151.5 215.0ZM309.0 288.0Q304.5 285.0 300.75 281.75Q297.0 278.5 296.0 278.0Q297.0 279.5 298.25 289.5Q299.5 299.5 299.5 313.5V329.0Q299.5 335.5 299.0 340.25Q298.5 345.0 298.0 347.0Q299.0 347.0 302.5 344.5Q305.0 343.5 307.75 341.75Q310.5 340.0 313.5 338.5Q321.0 334.5 332.25 329.5Q343.5 324.5 351.5 321.5Q368.5 316.0 371.5 314.0Q355.5 314.0 338.75 306.0Q322.0 298.0 309.0 288.0ZM211.5 221.5V197.5Q211.5 185.0 211.0 179.5Q210.5 174.0 210.0 172.5Q206.0 173.5 195.5 177.75Q185.0 182.0 174.0 187.0Q163.0 192.0 157.5 195.5L152.0 199.5L164.5 207.5Q171.0 211.0 180.25 214.75Q189.5 218.5 196.5 219.0ZM318.5 194.5V168.0H226.5V220.5H271.0Q293.5 220.5 303.5 219.0Q313.5 217.5 316.0 212.0Q318.5 206.5 318.5 194.5ZM79.0 73.0Q77.0 71.5 74.75 70.0Q72.5 68.5 70.5 68.0Q70.0 67.0 69.25 66.75Q68.5 66.5 68.0 66.0Q68.5 67.5 68.5 73.0Q68.5 76.5 68.25 81.5Q68.0 86.5 67.5 92.0V105.0Q67.5 117.0 68.5 117.0Q69.5 117.0 71.75 115.75Q74.0 114.5 77.0 112.5Q81.0 110.0 90.5 105.75Q100.0 101.5 109.5 98.0L121.5 93.5L111.0 89.5Q103.0 86.5 93.5 81.75Q84.0 77.0 79.0 73.0ZM167.0 174.0 183.0 166.0 147.0 148.0V165.5Q147.0 178.0 146.0 184.0Q153.0 181.0 167.0 174.0ZM219.5 109.5 226.5 93.0Q222.5 94.0 217.0 94.0Q213.5 94.0 210.5 94.0Q207.5 94.0 206.0 94.5Q207.0 98.5 208.75 105.0Q210.5 111.5 212.25 116.75Q214.0 122.0 215.0 122.0Q215.5 122.0 216.75 118.25Q218.0 114.5 219.5 109.5ZM239.0 78.5Q239.0 78.0 232.25 77.75Q225.5 77.5 215.0 77.5Q210.0 77.5 205.75 77.5Q201.5 77.5 198.5 77.5Q206.0 79.0 218.0 79.0Q227.0 79.0 233.0 79.0Q239.0 79.0 239.0 78.5ZM311.0 102.0Q309.5 98.0 307.25 96.25Q305.0 94.5 298.75 94.25Q292.5 94.0 278.0 94.0Q259.5 94.0 252.75 95.0Q246.0 96.0 241.5 100.5Q235.5 106.5 231.0 120.25Q226.5 134.0 226.5 146.0V154.0H319.0L317.0 133.5Q316.5 125.0 314.75 116.0Q313.0 107.0 311.0 102.0ZM350.0 29.5Q348.0 30.0 341.0 30.0Q334.0 30.0 325.5 30.0Q311.5 30.0 307.0 30.0Q302.5 30.0 302.5 31.0V32.5Q308.0 48.0 314.25 65.0Q320.5 82.0 323.5 89.5Q325.5 79.5 329.5 69.5Q333.5 59.5 338.5 50.0L343.5 41.5Q349.5 31.5 350.0 29.5ZM413.0 117.0Q410.0 117.0 404.0 116.0Q398.0 115.0 392.5 114.0L389.5 113.5Q388.0 113.0 386.75 113.0Q385.5 113.0 384.5 112.5Q385.5 115.0 387.75 120.0Q390.0 125.0 393.0 130.5L398.5 144.5L408.0 126.5Q410.5 123.0 411.5 120.5Q412.5 118.0 413.0 117.0ZM458.0 168.5 465.0 158.5 470.0 148.0H460.0Q456.0 148.0 453.0 147.75Q450.0 147.5 448.5 147.0Q449.0 149.0 450.75 152.5Q452.5 156.0 454.5 160.0ZM562.5 31.0Q559.0 30.0 550.5 29.5Q542.0 29.0 533.0 28.5Q524.0 28.0 518.0 28.0Q516.5 28.0 516.0 27.5Q518.0 32.5 521.5 39.5Q524.0 45.5 527.25 55.75Q530.5 66.0 532.5 74.0Q534.0 77.5 535.25 81.5Q536.5 85.5 537.0 88.0Q537.5 85.5 538.25 83.0Q539.0 80.5 539.5 78.0L541.5 72.5Q544.0 64.0 548.75 54.25Q553.5 44.5 557.0 39.5Q559.0 37.0 560.5 34.75Q562.0 32.5 562.5 31.0ZM495.0 13.5V11.5L498.0 10.0H501.0Q507.0 10.0 518.0 11.5Q524.5 13.0 537.0 14.0Q549.5 15.0 560.5 15.0H595.5L579.5 34.0Q569.0 46.0 562.5 59.0Q556.0 72.0 552.75 90.75Q549.5 109.5 548.25 138.75Q547.0 168.0 547.0 213.0V299.5H568.5Q581.5 299.5 589.75 301.75Q598.0 304.0 598.0 306.5Q598.0 308.5 584.5 310.75Q571.0 313.0 548.75 314.5Q526.5 316.0 499.5 317.0Q466.5 318.0 446.25 319.0Q426.0 320.0 413.25 321.25Q400.5 322.5 391.25 324.75Q382.0 327.0 371.5 331.0Q349.0 338.5 327.25 349.25Q305.5 360.0 295.5 368.5Q291.0 373.0 288.0 373.0Q282.0 373.0 282.0 362.0Q282.0 360.0 282.25 356.0Q282.5 352.0 283.0 348.0V335.5L219.5 318.0Q193.0 311.0 176.25 306.75Q159.5 302.5 149.25 300.75Q139.0 299.0 130.5 299.0Q121.5 299.0 105.0 300.5Q104.5 300.5 103.5 300.75Q102.5 301.0 101.5 301.0Q99.5 301.0 97.75 301.25Q96.0 301.5 93.5 302.0Q84.0 303.0 73.5 304.25Q63.0 305.5 53.0 307.0Q45.5 308.0 41.5 308.5Q39.0 309.0 37.0 309.25Q35.0 309.5 34.0 309.5L10.0 313.5L27.5 294.5Q32.0 289.0 39.5 277.0Q47.0 265.0 53.5 253.0Q62.0 237.0 68.5 229.25Q75.0 221.5 78.5 221.5Q84.5 221.5 84.5 232.0Q84.5 237.0 90.25 245.0Q96.0 253.0 104.75 260.25Q113.5 267.5 121.5 271.5Q126.5 274.0 142.75 279.5Q159.0 285.0 180.75 291.5Q202.5 298.0 224.5 304.25Q246.5 310.5 263.5 314.5Q280.5 318.5 287.0 319.5Q286.0 318.0 286.0 313.5Q286.0 305.0 285.5 296.25Q285.0 287.5 284.0 279.0Q284.0 275.0 283.75 271.75Q283.5 268.5 283.5 266.0Q283.5 252.5 288.5 252.5Q291.0 252.5 296.0 256.25Q301.0 260.0 306.0 264.5Q310.0 268.0 313.25 271.0Q316.5 274.0 318.5 275.0Q317.5 272.0 317.5 262.0V256.0Q317.0 248.5 316.5 242.0Q316.0 235.5 316.0 235.5H226.5V258.5Q226.5 282.0 220.0 282.0Q217.0 282.0 215.0 273.5Q213.0 265.0 212.0 251.0Q211.5 248.5 211.5 246.5Q211.5 244.5 211.5 242.5Q211.5 237.0 212.0 235.5Q208.0 236.5 197.25 241.0Q186.5 245.5 175.25 251.0Q164.0 256.5 157.5 260.5Q151.5 265.0 145.5 267.5Q139.5 270.0 138.0 270.0H136.5Q135.0 269.0 134.0 258.0Q133.0 247.0 132.5 230.5Q132.0 214.0 132.0 196.5Q132.0 179.0 132.5 162.75Q133.0 146.5 134.0 135.25Q135.0 124.0 136.0 122.5H138.0Q143.0 122.5 155.5 132.5Q167.0 142.0 179.5 148.0Q192.0 154.0 203.0 154.0Q206.0 154.0 208.75 154.25Q211.5 154.5 211.5 154.5Q211.0 150.5 207.5 141.75Q204.0 133.0 199.75 123.25Q195.5 113.5 191.25 106.0Q187.0 98.5 185.0 97.0Q184.5 96.0 182.0 95.75Q179.5 95.5 177.0 95.5Q167.0 95.5 150.25 100.25Q133.5 105.0 114.75 112.5Q96.0 120.0 79.0 129.5L51.0 146.5L52.5 92.5Q53.0 81.0 53.75 70.75Q54.5 60.5 55.0 54.0Q55.0 51.5 55.25 49.75Q55.5 48.0 55.5 46.5V41.5Q56.0 40.5 57.5 40.5Q60.5 40.5 66.0 43.75Q71.5 47.0 76.0 51.5Q95.5 68.5 117.75 73.75Q140.0 79.0 166.0 79.0Q176.0 79.0 176.0 78.5Q176.0 77.0 173.0 75.0L172.0 74.0Q169.0 69.0 169.0 66.5Q169.0 62.5 173.5 62.5Q178.0 62.5 191.75 62.5Q205.5 62.5 221.5 63.0Q237.5 63.5 250.25 64.0Q263.0 64.5 265.5 65.5V69.0Q265.5 70.5 264.5 73.5Q263.5 76.5 261.0 79.0H304.5L303.0 72.0Q301.0 67.5 297.0 58.25Q293.0 49.0 289.0 40.5Q285.5 33.0 283.25 26.75Q281.0 20.5 281.0 17.0Q281.0 13.5 283.5 13.5Q284.0 13.5 296.75 13.5Q309.5 13.5 327.0 14.0Q354.0 15.0 363.5 17.25Q373.0 19.5 373.0 25.0Q373.0 34.0 366.5 34.0Q364.5 34.0 360.25 40.5Q356.0 47.0 351.25 56.75Q346.5 66.5 342.75 76.5Q339.0 86.5 337.5 94.0Q333.0 115.0 333.0 133.5Q333.0 142.0 334.0 148.0Q335.0 154.0 336.0 154.0Q340.0 154.0 342.75 156.0Q345.5 158.0 345.5 161.0Q345.5 164.5 342.75 166.25Q340.0 168.0 336.0 168.0Q335.5 168.0 334.75 172.25Q334.0 176.5 333.75 189.5Q333.5 202.5 333.5 228.0V287.5L349.5 293.5Q362.5 298.0 391.25 300.5Q420.0 303.0 451.0 303.0Q462.5 303.0 474.5 302.75Q486.5 302.5 497.0 301.5L531.5 298.5V212.0Q531.5 175.0 530.5 150.0Q529.5 125.0 526.5 107.0Q523.5 89.0 518.25 73.25Q513.0 57.5 504.0 39.5Q500.5 30.5 497.75 23.0Q495.0 15.5 495.0 13.5ZM363.5 102.0V100.5L364.5 101.0Q365.5 98.0 371.5 98.0Q377.0 98.0 387.5 98.75Q398.0 99.5 409.5 100.75Q421.0 102.0 429.25 103.25Q437.5 104.5 439.0 105.5Q439.5 106.0 439.5 107.5Q439.5 110.0 436.25 115.0Q433.0 120.0 428.0 126.0Q420.0 135.0 415.5 145.25Q411.0 155.5 409.5 172.75Q408.0 190.0 408.0 220.5Q407.5 242.5 406.25 261.5Q405.0 280.5 404.0 286.0Q403.0 290.0 400.0 290.0Q396.5 290.0 395.5 275.75Q394.5 261.5 393.5 236.0Q393.5 204.0 391.5 183.5Q389.5 163.0 385.0 148.5Q380.5 134.0 372.0 120.0Q368.0 114.5 365.75 109.25Q363.5 104.0 363.5 102.0ZM427.5 136.0V134.0L428.5 134.5Q429.5 131.5 438.5 131.5Q447.0 131.5 459.5 132.5Q472.0 133.5 482.5 135.0Q493.0 136.5 494.0 137.5L495.5 139.5Q495.5 141.5 493.0 145.25Q490.5 149.0 487.5 152.5Q479.5 161.0 475.0 171.25Q470.5 181.5 468.75 198.5Q467.0 215.5 467.0 244.0Q467.0 268.5 465.25 285.5Q463.5 302.5 461.0 302.5Q457.5 302.5 455.25 285.25Q453.0 268.0 452.0 243.5Q451.5 217.5 450.5 204.25Q449.5 191.0 447.0 182.75Q444.5 174.5 439.0 164.0Q434.0 154.0 430.75 145.75Q427.5 137.5 427.5 136.0Z" fill="black" /></svg>