<svg xmlns="http://www.w3.org/2000/svg" width="605.5" height="372.0" viewBox="0 0 605.5 372.0"><path d="M141.5 308.0Q150.5 298.5 160.5 289.75Q170.5 281.0 181.5 273.5Q175.0 274.0 164.25 274.75Q153.5 275.5 142.5 276.75Q131.5 278.0 123.5 279.0Q115.5 280.0 114.0 281.0Q114.0 285.5 115.5 295.0Q117.0 304.5 119.0 314.0Q121.0 323.5 122.5 327.5Q124.5 326.0 128.5 321.75Q132.5 317.5 137.5 312.0ZM84.0 169.5Q88.5 161.5 89.75 159.5Q91.0 157.5 91.0 157.0L89.5 158.0Q86.0 161.0 81.0 165.0Q76.0 169.0 70.5 174.0L48.5 193.5L59.0 196.5Q61.5 197.0 63.5 197.25Q65.5 197.5 67.5 197.5Q71.5 197.5 72.0 195.0Q73.0 194.0 73.5 192.0Q74.5 189.5 76.5 185.5Q78.5 181.5 80.5 177.0Q81.5 175.5 82.5 173.5Q83.5 171.5 84.0 169.5ZM156.0 212.5Q155.0 208.5 153.0 207.0Q150.5 208.0 145.25 214.0Q140.0 220.0 140.0 223.0Q140.0 225.5 144.5 227.75Q149.0 230.0 154.75 231.25Q160.5 232.5 163.0 232.5Q163.0 232.0 162.75 232.0Q162.5 232.0 162.5 231.5Q162.5 231.0 162.25 230.5Q162.0 230.0 162.0 229.5Q160.5 225.5 158.75 220.75Q157.0 216.0 156.0 212.5ZM189.5 192.5Q186.5 172.5 183.5 172.5Q183.5 172.5 182.5 174.75Q181.5 177.0 180.5 180.0Q177.5 191.0 177.5 202.5Q177.5 213.0 180.25 222.0Q183.0 231.0 188.5 237.0L194.0 244.5L194.5 232.0Q194.5 225.0 193.25 213.0Q192.0 201.0 189.5 192.5ZM207.5 182.5Q207.5 180.5 207.0 178.5Q206.5 176.5 206.0 176.5Q202.0 176.5 202.0 182.0Q202.0 183.0 202.5 187.0Q203.0 191.0 204.5 191.0Q207.5 191.0 207.5 182.5ZM314.0 123.0Q292.5 114.0 279.0 108.75Q265.5 103.5 255.25 100.75Q245.0 98.0 233.75 97.0Q222.5 96.0 205.5 95.5L155.5 94.0L140.0 114.5Q113.0 148.0 101.25 167.75Q89.5 187.5 89.5 203.5Q89.5 211.5 93.5 221.0Q97.5 230.5 104.0 240.5Q116.0 255.5 122.0 259.5Q128.0 263.5 139.0 263.5Q153.5 263.5 167.5 261.25Q181.5 259.0 181.5 257.0Q181.5 256.5 172.25 253.0Q163.0 249.5 150.0 244.5Q136.5 239.0 126.25 234.0Q116.0 229.0 116.0 227.0Q116.0 224.5 122.75 217.0Q129.5 209.5 139.0 200.5L141.5 198.0Q151.0 189.0 154.5 185.0Q158.0 181.0 158.0 177.5Q158.0 175.5 157.5 173.25Q157.0 171.0 156.0 168.0L155.5 166.5Q151.0 150.5 151.0 145.0Q151.0 139.0 155.0 139.0Q158.5 139.0 163.0 143.5Q170.0 150.5 179.0 150.5Q183.0 150.5 189.0 153.25Q195.0 156.0 199.0 160.0Q208.0 167.0 221.0 167.0Q228.5 167.0 233.0 169.25Q237.5 171.5 237.5 174.0Q237.5 181.0 229.5 181.0Q225.5 181.0 221.5 188.5Q217.5 196.0 215.0 207.5Q212.5 219.0 212.5 231.5V250.5L224.5 248.0Q234.0 245.5 239.25 242.5Q244.5 239.5 244.5 233.5Q244.5 226.5 240.0 214.5Q237.0 204.5 235.25 198.0Q233.5 191.5 233.5 188.0Q233.5 182.5 237.0 182.5Q240.5 182.5 245.5 187.0Q248.0 190.0 254.75 192.0Q261.5 194.0 268.0 195.0Q273.5 196.0 280.75 198.25Q288.0 200.5 291.5 203.0Q292.5 204.0 294.75 204.75Q297.0 205.5 299.0 206.0L299.5 205.5Q299.0 202.5 292.25 197.25Q285.5 192.0 275.5 186.0Q265.5 180.0 255.25 175.0Q245.0 170.0 237.5 168.5Q236.5 168.0 235.5 167.75Q234.5 167.5 233.5 167.5L229.0 166.0Q225.5 165.0 222.0 164.25Q218.5 163.5 216.0 163.0Q211.0 162.0 209.5 161.5Q207.0 160.0 207.0 157.5Q207.0 151.5 222.0 133.0L243.5 108.5L250.5 132.0Q253.0 140.0 256.5 146.25Q260.0 152.5 267.0 159.25Q274.0 166.0 287.0 176.5Q299.5 187.5 310.0 195.0Q320.5 202.5 322.5 202.5Q324.5 202.5 333.5 198.5Q342.5 194.5 352.0 189.5L369.0 180.5L362.0 179.0Q344.5 175.0 344.5 169.0Q344.5 166.5 348.5 163.5Q352.5 160.5 358.5 158.0Q364.0 155.5 368.0 153.0Q372.0 150.5 372.0 150.0Q372.0 148.5 355.0 140.5Q338.0 132.5 314.0 123.0ZM250.0 277.5Q250.0 276.0 249.5 270.75Q249.0 265.5 247.75 260.5Q246.5 255.5 244.5 255.5Q241.0 255.5 231.5 262.5L222.0 267.5L234.0 277.0Q239.5 282.0 244.25 285.75Q249.0 289.5 250.0 289.5ZM239.5 145.0Q237.0 138.0 236.0 138.0Q235.5 138.0 234.0 140.25Q232.5 142.5 230.5 145.5L230.0 147.0Q228.5 149.0 228.5 150.5Q228.5 151.5 233.0 152.75Q237.5 154.0 239.0 154.0Q240.0 154.0 241.0 152.0Q241.0 150.0 240.0 148.0Q240.0 147.0 239.75 146.25Q239.5 145.5 239.5 145.0ZM261.5 211.5Q261.5 207.0 258.0 207.0Q255.5 207.0 255.5 213.5Q255.5 220.0 257.0 220.0Q258.5 220.0 260.0 217.0Q261.5 214.0 261.5 211.5ZM279.5 222.0V221.5Q278.0 217.5 275.0 217.5Q273.0 217.5 271.5 221.0Q271.0 224.0 270.0 225.5L269.5 227.0Q270.0 227.0 270.25 227.25Q270.5 227.5 270.5 227.5Q273.5 227.5 275.5 226.0Q279.5 224.0 279.5 222.0ZM294.5 245.5Q291.5 235.5 287.0 235.5Q285.0 235.5 282.0 237.0Q279.0 238.5 275.0 240.5Q268.5 244.0 266.5 249.5Q264.5 255.0 264.5 274.5Q264.5 287.5 265.25 294.0Q266.0 300.5 269.5 304.5Q273.0 308.5 281.0 315.0Q288.5 321.0 293.0 324.25Q297.5 327.5 299.5 327.5Q302.0 327.5 302.0 317.0Q302.0 300.5 300.25 280.75Q298.5 261.0 294.5 245.5ZM311.5 263.5 320.0 246.5Q325.0 239.0 328.25 232.75Q331.5 226.5 332.0 224.0Q327.0 224.0 318.0 224.75Q309.0 225.5 306.5 228.0Q306.5 228.0 306.25 229.0Q306.0 230.0 306.0 231.5Q306.0 239.0 308.5 249.0ZM438.5 128.5Q445.0 117.5 448.0 112.0Q443.0 115.0 434.5 121.25Q426.0 127.5 415.0 135.5Q399.5 147.5 387.5 155.75Q375.5 164.0 374.0 164.0Q373.5 164.0 373.0 164.25Q372.5 164.5 372.5 164.5Q372.5 165.0 378.25 167.25Q384.0 169.5 392.0 171.5Q400.5 174.5 407.5 176.75Q414.5 179.0 416.5 179.0H417.0Q418.0 178.0 419.5 174.75Q421.0 171.5 421.5 166.0Q422.5 159.0 427.75 147.75Q433.0 136.5 438.5 128.5ZM499.0 84.5Q498.5 83.5 498.25 82.0Q498.0 80.5 497.5 79.5Q497.0 76.5 496.75 74.75Q496.5 73.0 496.5 73.0Q494.0 73.0 486.75 81.25Q479.5 89.5 470.5 102.5Q461.5 115.5 453.0 129.5Q444.5 143.5 439.0 155.25Q433.5 167.0 433.5 173.0Q433.5 177.0 435.5 180.0Q437.0 183.5 438.5 188.75Q440.0 194.0 440.0 197.5Q441.0 199.5 448.25 209.25Q455.5 219.0 466.0 230.0Q476.0 241.0 485.75 253.75Q495.5 266.5 499.0 272.0Q502.0 276.5 505.0 280.25Q508.0 284.0 509.5 285.0Q509.0 282.5 509.0 276.75Q509.0 271.0 509.0 262.5Q509.0 245.0 508.25 219.5Q507.5 194.0 506.0 167.25Q504.5 140.5 502.75 118.0Q501.0 95.5 499.0 84.5ZM200.5 45.5V45.0Q199.5 37.5 197.0 37.5Q195.5 37.5 190.5 44.0Q185.5 50.5 179.0 60.25Q172.5 70.0 167.0 79.0H166.5Q167.5 80.0 174.25 80.5Q181.0 81.0 197.0 81.0H227.0L217.5 71.0Q212.0 64.0 207.25 56.5Q202.5 49.0 200.5 45.5ZM550.0 41.0Q550.0 40.5 543.0 40.25Q536.0 40.0 527.0 40.0Q514.5 40.0 509.75 40.5Q505.0 41.0 505.0 42.5V43.5Q507.5 52.0 510.0 67.25Q512.5 82.5 514.25 97.5Q516.0 112.5 516.0 120.5Q516.0 143.5 517.0 143.5Q519.5 143.5 527.0 112.0Q531.0 94.5 535.75 78.0Q540.5 61.5 543.0 56.0Q550.0 44.5 550.0 41.0ZM481.0 15.5Q481.0 10.0 485.0 10.0Q488.5 10.0 499.0 18.5Q505.5 24.0 509.25 26.25Q513.0 28.5 519.5 28.5Q525.0 28.5 535.5 27.25Q546.0 26.0 556.0 23.75Q566.0 21.5 569.0 19.5Q574.5 17.5 579.0 17.0Q583.5 16.5 588.5 16.5Q595.5 18.0 595.5 21.5Q595.5 24.5 581.0 33.5Q567.0 43.0 558.75 58.0Q550.5 73.0 542.0 103.5Q536.0 128.0 532.0 151.25Q528.0 174.5 525.75 203.25Q523.5 232.0 522.0 273.5Q519.0 348.0 514.0 348.0Q510.0 348.0 509.5 319.0Q509.5 296.0 506.0 296.0Q504.0 296.0 498.5 290.5Q493.0 285.0 488.0 277.5Q483.0 270.5 472.0 258.5Q461.0 246.5 448.5 233.25Q436.0 220.0 424.5 209.25Q413.0 198.5 406.0 193.5L395.5 185.5L373.5 194.5Q357.0 202.5 353.5 205.0Q357.0 205.0 360.0 204.75Q363.0 204.5 366.5 204.0Q368.0 203.5 369.5 203.5Q371.0 203.5 372.0 203.5Q374.5 203.0 376.25 203.0Q378.0 203.0 379.0 203.0Q384.0 203.0 384.5 206.0Q384.0 211.0 362.5 222.0Q342.5 232.0 331.5 255.25Q320.5 278.5 315.0 322.5Q313.0 339.5 309.75 350.75Q306.5 362.0 304.5 362.0Q304.5 362.0 304.25 360.75Q304.0 359.5 303.5 359.0Q303.0 355.0 297.0 347.75Q291.0 340.5 281.0 333.0Q276.0 329.5 271.25 325.5Q266.5 321.5 261.5 318.0Q258.5 315.5 256.25 313.75Q254.0 312.0 252.5 311.0L251.0 310.0Q233.0 293.5 224.75 286.75Q216.5 280.0 213.5 279.5Q213.0 280.0 212.5 280.75Q212.0 281.5 211.0 283.0Q208.0 288.0 204.5 288.0Q201.5 288.0 199.0 283.5Q190.5 284.0 179.25 292.5Q168.0 301.0 158.25 311.25Q148.5 321.5 143.0 328.5Q135.0 338.0 128.0 345.75Q121.0 353.5 119.0 354.0H118.5Q116.0 354.0 113.25 346.75Q110.5 339.5 109.5 329.5Q108.5 321.0 105.75 309.25Q103.0 297.5 101.0 290.0Q96.5 281.0 96.5 275.0Q96.5 270.5 100.0 266.0Q101.0 264.0 101.0 262.5Q101.0 257.0 92.5 245.5Q79.0 225.5 65.75 216.25Q52.5 207.0 36.0 207.0H10.0L28.0 191.5Q92.0 138.0 133.5 93.75Q175.0 49.5 187.5 22.0Q192.5 11.5 200.0 11.5Q208.0 11.5 208.0 23.0Q208.0 31.0 215.25 43.0Q222.5 55.0 232.5 65.5Q237.0 69.0 251.0 77.0Q265.0 85.0 285.0 94.75Q305.0 104.5 328.25 115.0Q351.5 125.5 374.0 134.5Q377.0 136.0 379.25 137.0Q381.5 138.0 383.5 138.0Q387.0 138.0 396.0 132.25Q405.0 126.5 415.75 118.5Q426.5 110.5 436.0 102.75Q445.5 95.0 450.0 91.0Q465.5 78.5 476.5 69.0Q487.5 59.5 489.5 57.5Q490.0 56.5 490.0 54.75Q490.0 53.0 490.0 51.5Q490.0 49.0 489.5 45.5Q489.0 42.0 487.0 38.5Q485.0 32.0 483.0 25.5Q481.0 19.0 481.0 15.5Z" fill="black" /></svg>