<svg xmlns="http://www.w3.org/2000/svg" width="744.0" height="375.0" viewBox="0 0 744.0 375.0"><path d="M189.5 299.0Q178.0 299.5 162.75 299.5Q147.5 299.5 130.0 299.5H46.5L46.0 316.0V330.0H48.5Q57.0 327.5 71.75 323.75Q86.5 320.0 104.25 316.0Q122.0 312.0 140.0 308.5Q158.0 305.0 172.5 302.5Q176.5 301.5 181.0 300.5Q185.5 299.5 189.5 299.0ZM152.5 211.5V211.0Q153.5 208.5 154.75 206.5Q156.0 204.5 156.5 202.5Q153.0 205.0 146.75 209.25Q140.5 213.5 133.5 218.5Q131.0 220.5 128.75 222.0Q126.5 223.5 124.0 225.0Q119.0 228.5 116.0 230.5Q113.0 232.5 111.5 233.5Q112.5 233.5 113.0 234.0Q114.0 234.0 114.75 234.25Q115.5 234.5 116.0 234.5Q122.5 236.5 129.5 238.75Q136.5 241.0 143.0 242.0Q145.5 242.5 147.25 243.25Q149.0 244.0 150.0 244.5Q149.5 243.0 148.5 239.0Q148.0 237.5 147.75 235.75Q147.5 234.0 147.5 232.0Q147.5 228.0 149.0 222.25Q150.5 216.5 152.5 211.5ZM161.0 120.5Q154.5 123.5 136.0 136.5L116.0 150.0L132.5 154.5Q135.0 155.0 138.75 156.0Q142.5 157.0 144.5 157.5Q148.5 158.0 151.25 158.75Q154.0 159.5 156.0 160.0H157.0V146.0Q157.0 139.5 158.5 132.0Q160.0 124.5 161.0 120.5ZM244.5 228.0Q243.5 227.5 242.75 227.5Q242.0 227.5 241.0 227.0Q238.0 226.0 238.0 226.0V230.5Q238.0 233.5 239.5 234.5L240.5 234.0H242.5Q248.5 232.0 248.5 230.5Q248.5 230.0 244.5 228.0ZM254.0 160.0 238.0 151.5V167.0Q239.0 167.0 240.5 165.5Q243.0 164.5 245.75 163.25Q248.5 162.0 251.0 161.0Q252.0 161.0 254.0 160.0ZM220.0 237.5V214.0L178.0 191.0L175.0 198.0Q174.5 200.0 173.75 202.0Q173.0 204.0 172.0 206.5Q168.5 214.0 166.5 221.0Q165.5 224.0 164.75 226.25Q164.0 228.5 164.0 231.5Q164.0 237.0 167.0 241.5Q170.0 246.0 174.0 246.0Q178.0 246.0 180.25 248.25Q182.5 250.5 182.5 253.0V254.5Q182.0 255.0 182.0 255.5Q182.0 256.0 182.0 256.0Q182.0 260.0 188.0 264.25Q194.0 268.5 203.0 272.25Q212.0 276.0 220.75 278.5Q229.5 281.0 234.5 281.0Q242.5 281.0 254.75 280.0Q267.0 279.0 286.5 278.0L293.0 277.5Q306.5 276.5 318.75 275.25Q331.0 274.0 340.5 273.5H327.5Q320.5 273.5 314.75 273.75Q309.0 274.0 306.0 275.0Q303.5 276.0 301.25 276.25Q299.0 276.5 296.5 276.5Q285.5 276.5 285.5 270.0Q285.5 266.0 291.0 262.0Q292.5 261.5 296.0 257.25Q299.5 253.0 301.5 248.0L305.0 239.5H296.0Q285.5 239.5 285.0 240.5L286.0 241.5Q286.5 243.0 286.5 244.0Q286.5 245.0 286.5 245.5Q286.5 253.5 279.5 253.5Q274.5 253.5 270.0 247.0Q267.5 244.5 264.0 244.5Q254.0 244.5 242.0 254.0Q236.0 259.0 231.0 263.0Q226.0 267.0 225.0 267.0Q221.5 267.0 220.75 258.25Q220.0 249.5 220.0 237.5ZM361.5 258.5 353.0 252.5Q344.0 246.5 337.75 243.5Q331.5 240.5 327.5 240.0Q324.0 241.5 320.0 249.0Q318.5 251.0 318.0 252.75Q317.5 254.5 317.0 255.5Q326.5 255.5 336.0 256.0Q345.5 256.5 355.0 257.5ZM472.0 232.5Q470.5 230.5 469.0 230.5Q468.0 230.5 468.0 231.5Q468.0 232.5 472.0 232.5ZM472.0 194.0Q468.0 194.0 468.0 195.0Q468.0 196.0 469.0 196.0Q470.0 196.0 472.0 194.0ZM516.5 223.5H542.0V203.0L518.0 204.0Q497.0 204.0 484.75 206.5Q472.5 209.0 472.5 213.0Q472.5 217.5 484.5 220.5Q496.5 223.5 516.5 223.5ZM364.0 88.5Q353.5 84.5 336.5 77.75Q319.5 71.0 303.75 63.75Q288.0 56.5 280.0 51.0L268.5 44.0L260.0 59.0Q258.0 63.0 255.75 67.0Q253.5 71.0 251.5 74.0Q251.0 75.5 250.25 77.0Q249.5 78.5 248.5 79.5Q249.0 79.0 251.0 79.0Q257.0 79.0 272.75 80.0Q288.5 81.0 307.5 83.0Q323.5 84.5 338.25 86.0Q353.0 87.5 364.0 88.5ZM393.5 139.0 392.0 136.0V135.0Q391.0 132.0 389.75 129.5Q388.5 127.0 387.5 127.0Q387.0 127.0 384.5 129.75Q382.0 132.5 379.5 136.5L376.5 142.0H385.0Q391.0 142.0 394.0 143.0H395.0V142.5Q395.0 141.5 394.5 140.75Q394.0 140.0 393.5 139.0ZM446.0 117.5Q434.5 116.0 422.75 114.0Q411.0 112.0 406.5 111.0Q405.5 111.0 405.0 110.5Q404.5 110.5 404.25 110.25Q404.0 110.0 403.5 110.0Q402.5 110.0 401.5 111.5Q400.5 113.0 400.5 114.0Q400.5 122.0 410.75 135.25Q421.0 148.5 435.0 155.5Q440.5 159.0 445.5 161.25Q450.5 163.5 452.5 164.5Q452.0 163.0 452.0 159.0Q452.0 155.0 452.0 150.0Q452.0 139.5 453.75 135.0Q455.5 130.5 461.5 130.0Q468.0 130.0 481.0 138.5Q488.0 142.5 499.75 144.75Q511.5 147.0 521.0 147.0Q528.0 147.0 532.75 146.0Q537.5 145.0 537.5 144.0Q537.5 141.5 523.75 136.75Q510.0 132.0 489.0 126.75Q468.0 121.5 446.0 117.5ZM472.0 153.5Q468.0 153.5 468.0 154.5Q468.0 155.5 469.0 155.5Q470.0 155.5 472.0 153.5ZM522.5 187.0H542.0V162.5L520.0 163.0Q500.5 163.5 486.5 166.25Q472.5 169.0 472.5 173.0Q472.5 176.0 480.5 179.25Q488.5 182.5 500.25 184.75Q512.0 187.0 522.5 187.0ZM560.0 146.0Q560.0 144.5 556.5 144.5Q553.5 144.5 553.5 146.0Q553.5 148.0 554.0 150.25Q554.5 152.5 556.5 155.0Q556.5 155.5 556.75 155.75Q557.0 156.0 557.0 156.0Q560.0 151.0 560.0 146.0ZM578.5 118.5Q578.5 118.5 573.0 118.0Q567.5 117.5 561.0 117.0H547.0Q548.0 119.5 548.5 122.0Q549.0 124.5 549.0 125.5Q551.0 126.5 557.5 129.0Q564.0 131.5 566.0 131.5Q569.5 131.5 572.5 127.5Q574.0 123.5 576.0 121.5Q577.0 120.5 577.75 119.5Q578.5 118.5 578.5 118.5ZM374.0 176.0Q377.0 170.5 380.25 166.5Q383.5 162.5 386.5 162.5Q388.0 162.5 392.0 166.5Q396.0 170.5 399.0 176.5Q403.5 188.0 421.5 194.0Q430.5 197.5 437.0 201.5Q443.5 205.5 443.5 209.0Q443.5 215.5 436.0 215.5Q431.5 215.5 422.0 212.0Q415.0 209.5 406.75 207.75Q398.5 206.0 393.0 205.5Q385.0 205.5 385.0 207.5Q385.0 210.0 390.0 214.0Q395.0 218.0 402.0 221.5Q410.5 225.0 417.25 228.5Q424.0 232.0 424.0 236.0Q424.0 242.5 417.0 242.5H415.5Q397.5 237.0 388.25 234.75Q379.0 232.5 373.5 232.5Q371.5 232.5 369.0 233.5Q366.5 234.5 364.5 235.5Q363.0 237.0 361.0 238.0Q367.5 242.5 374.25 246.5Q381.0 250.5 386.5 253.0L408.0 265.0L473.5 257.0Q511.0 252.5 525.25 249.25Q539.5 246.0 539.5 242.5Q539.5 242.5 539.25 242.0Q539.0 241.5 539.0 241.0Q537.5 240.0 528.5 240.0Q520.0 240.0 508.5 241.25Q497.0 242.5 487.0 244.75Q477.0 247.0 473.0 249.5Q468.5 253.0 463.5 255.0Q458.5 257.0 457.0 257.0Q454.5 257.0 452.25 245.25Q450.0 233.5 450.0 216.5V182.5L429.0 172.0Q417.5 166.5 401.25 162.25Q385.0 158.0 375.0 158.0Q373.0 158.0 371.0 158.25Q369.0 158.5 369.0 158.5Q368.0 161.5 353.0 164.5Q338.0 167.5 318.0 168.0Q287.5 170.0 267.5 175.5Q247.5 181.0 227.0 193.0V192.5Q226.5 193.0 225.5 193.0Q221.0 193.0 221.0 178.0Q221.0 169.5 222.0 157.75Q223.0 146.0 224.25 136.5Q225.5 127.0 227.0 125.5L229.0 124.5Q230.0 124.5 234.25 126.75Q238.5 129.0 243.0 133.0Q254.5 142.5 268.5 147.0Q282.5 151.5 304.0 151.5H309.0Q321.0 151.0 332.25 150.25Q343.5 149.5 347.0 148.5Q351.5 146.5 358.25 138.75Q365.0 131.0 371.0 122.0Q377.0 113.0 378.0 108.0Q373.5 105.5 360.25 103.5Q347.0 101.5 329.5 100.25Q312.0 99.0 294.0 98.25Q276.0 97.5 261.0 97.25Q246.0 97.0 238.5 97.0Q232.5 98.5 226.0 98.5Q213.5 98.5 213.5 91.0Q213.5 84.5 225.5 78.0Q231.0 73.5 237.25 64.0Q243.5 54.5 248.75 42.75Q254.0 31.0 256.0 20.5Q259.5 10.0 263.0 10.0Q267.0 10.0 269.0 12.5Q271.5 21.5 281.0 29.75Q290.5 38.0 305.0 46.0Q312.0 49.0 329.0 55.75Q346.0 62.5 369.0 70.75Q392.0 79.0 416.75 87.5Q441.5 96.0 464.5 103.25Q487.5 110.5 504.5 115.0Q521.5 119.5 528.0 120.0Q526.5 117.5 524.0 114.75Q521.5 112.0 521.0 111.5Q516.0 105.0 516.0 100.5Q516.0 95.0 523.0 95.0Q527.5 95.0 537.5 97.5Q543.5 99.5 555.5 100.5Q567.5 101.5 578.0 101.5Q590.0 101.5 598.75 104.0Q607.5 106.5 607.5 109.0Q607.5 111.0 603.75 116.25Q600.0 121.5 595.5 126.5Q591.0 130.0 588.0 133.0Q585.0 136.0 585.0 136.5Q585.0 136.5 595.0 139.0Q605.0 141.5 621.5 145.5Q638.0 149.5 656.5 154.0Q677.5 158.5 695.0 163.75Q712.5 169.0 723.25 173.0Q734.0 177.0 734.0 178.0Q734.0 184.5 724.5 184.5Q717.0 184.5 699.0 180.5Q681.0 176.5 645.5 167.5Q591.0 153.5 579.5 153.5Q578.0 153.5 577.5 153.75Q577.0 154.0 576.0 154.0H575.5Q570.5 160.5 566.25 174.5Q562.0 188.5 559.5 204.0Q557.0 219.5 557.0 231.5Q557.0 238.0 557.75 242.0Q558.5 246.0 559.0 246.0Q561.0 246.0 572.0 244.75Q583.0 243.5 600.5 241.5Q618.0 239.5 637.5 237.0Q645.0 236.0 651.75 235.0Q658.5 234.0 664.5 233.5Q687.0 231.0 699.25 229.5Q711.5 228.0 717.5 228.0Q725.5 228.0 727.5 230.0Q729.5 232.0 729.5 235.0Q729.5 238.0 726.25 240.0Q723.0 242.0 712.25 244.0Q701.5 246.0 678.5 248.75Q655.5 251.5 616.5 255.5L554.0 263.0L551.0 280.0Q550.0 288.0 546.5 295.0Q543.0 302.0 540.0 302.0Q534.0 302.0 534.0 292.0Q534.0 289.5 535.25 281.0Q536.5 272.5 537.0 270.0L536.5 269.5Q535.5 267.0 534.5 267.0Q528.0 267.0 515.5 268.25Q503.0 269.5 488.75 271.25Q474.5 273.0 462.0 275.0Q449.5 277.0 442.5 278.5Q450.5 280.5 464.0 284.5Q477.5 288.5 492.75 293.75Q508.0 299.0 522.0 304.25Q536.0 309.5 544.75 313.0Q553.5 316.5 553.5 317.5Q553.5 324.0 546.0 324.0Q541.0 324.0 526.0 320.0Q511.0 316.0 483.0 306.5Q468.0 301.5 452.5 297.25Q437.0 293.0 425.25 289.75Q413.5 286.5 409.0 285.5H404.5Q395.0 285.5 377.5 287.0Q360.0 288.5 339.25 290.5Q318.5 292.5 299.5 295.0Q280.5 297.5 268.5 299.75Q256.5 302.0 256.5 303.0Q256.5 303.5 260.0 306.75Q263.5 310.0 268.0 313.5Q273.5 317.0 277.25 322.0Q281.0 327.0 281.0 330.5V332.5Q279.0 335.5 276.0 335.5Q273.0 335.5 266.25 331.5Q259.5 327.5 251.5 322.0Q234.5 309.5 226.5 309.5H224.5Q212.0 311.5 190.25 315.5Q168.5 319.5 143.0 324.75Q117.5 330.0 93.0 336.0Q68.5 342.0 50.0 347.75Q31.5 353.5 24.5 359.0L23.0 360.5Q21.0 362.0 18.75 363.5Q16.5 365.0 15.0 365.0Q10.0 365.0 10.0 355.5Q10.0 351.5 13.5 346.25Q17.0 341.0 20.5 337.0Q25.0 334.0 27.25 326.25Q29.5 318.5 30.0 311.0Q29.5 306.5 28.75 302.0Q28.0 297.5 26.5 294.5Q26.5 294.0 26.25 293.5Q26.0 293.0 26.0 292.5Q25.5 292.0 25.5 291.0Q25.5 287.0 30.75 285.0Q36.0 283.0 50.5 283.0Q54.5 283.0 59.5 283.0Q64.5 283.0 70.0 283.5Q86.0 284.5 102.0 285.0Q118.0 285.5 134.0 285.5Q151.5 285.5 163.5 284.75Q175.5 284.0 180.0 282.5L186.0 280.5L161.0 270.0Q148.5 263.5 131.25 257.75Q114.0 252.0 98.25 248.0Q82.5 244.0 73.0 244.0Q67.0 244.0 67.0 242.0Q67.0 239.5 72.0 236.25Q77.0 233.0 84.5 228.5Q87.0 227.0 89.5 225.25Q92.0 223.5 95.5 221.5Q107.0 216.0 119.5 208.0Q132.0 200.0 141.5 194.0L156.5 180.5L144.5 175.5Q138.0 172.0 126.25 169.0Q114.5 166.0 104.5 164.5Q79.0 161.5 79.0 153.5Q79.0 148.5 91.0 144.0Q96.5 141.5 108.0 134.75Q119.5 128.0 133.0 119.0Q146.5 110.0 158.25 101.0Q170.0 92.0 176.5 85.5Q187.5 74.5 192.5 74.5Q197.5 74.5 197.5 82.0Q197.5 86.5 195.75 91.25Q194.0 96.0 191.5 97.5Q188.5 99.0 183.5 109.0Q178.5 119.0 174.75 130.25Q171.0 141.5 171.0 147.0Q171.0 150.5 172.25 155.0Q173.5 159.5 174.5 162.0Q175.0 162.5 175.25 163.25Q175.5 164.0 175.5 164.0Q176.5 163.5 177.25 162.0Q178.0 160.5 180.0 158.5Q186.0 152.5 189.0 151.5Q193.0 153.5 193.0 156.5Q193.0 160.0 191.5 167.0Q191.0 169.0 191.0 170.75Q191.0 172.5 191.0 173.5Q191.0 177.0 194.5 179.5Q198.0 182.0 208.5 187.0Q222.5 194.0 229.5 198.0Q236.5 202.0 241.0 205.0Q245.5 208.0 252.0 212.5Q259.5 217.5 273.25 220.5Q287.0 223.5 298.0 223.5Q303.5 223.5 308.0 222.5Q312.5 221.5 312.5 220.5Q312.5 210.0 319.5 210.0Q323.5 210.0 330.25 214.5Q337.0 219.0 346.0 226.5Q347.0 227.0 347.75 227.5Q348.5 228.0 349.0 229.0Q351.5 222.0 357.0 210.0Q362.0 201.5 367.0 191.75Q372.0 182.0 374.0 176.0Z" fill="black" /></svg>