<svg xmlns="http://www.w3.org/2000/svg" width="763.0" height="464.0" viewBox="0 0 763.0 464.0"><path d="M85.0 301.5 76.0 298.0H74.5Q58.5 289.5 53.0 289.5Q52.0 289.5 52.0 300.0Q52.0 308.5 53.5 308.5Q57.5 308.5 62.5 307.0L70.5 304.5Q78.5 302.5 81.5 302.0Q84.5 301.5 85.0 301.5ZM82.5 226.5Q72.5 222.0 66.0 220.25Q59.5 218.5 56.0 218.5Q52.0 218.5 52.0 221.0Q52.0 223.0 52.5 223.5V225.5Q53.5 229.0 54.5 231.75Q55.5 234.5 60.5 234.5Q64.5 234.5 71.75 233.0Q79.0 231.5 88.5 230.0Q88.5 230.0 90.5 229.0H90.0Q89.0 228.0 87.0 227.5Q85.0 227.0 82.5 226.5ZM77.5 113.5Q68.0 108.0 59.5 104.25Q51.0 100.5 51.0 100.5Q52.0 103.5 52.0 111.0Q52.0 118.5 52.0 127.5Q52.0 143.0 52.25 148.75Q52.5 154.5 53.5 154.5H56.0Q56.5 154.0 57.5 154.0Q94.5 140.5 110.25 135.0Q126.0 129.5 126.0 128.5Q113.5 128.5 101.25 124.25Q89.0 120.0 77.5 113.5ZM429.5 44.5Q422.0 44.5 413.5 43.25Q405.0 42.0 400.0 41.0Q399.0 39.5 397.0 39.5V42.0Q397.0 47.5 401.75 63.0Q406.5 78.5 417.0 107.5Q417.5 106.0 419.5 102.0Q421.0 96.0 424.0 90.5L426.5 82.0Q428.0 76.5 429.75 71.75Q431.5 67.0 433.0 63.0Q435.5 58.0 437.25 54.0Q439.0 50.0 439.5 48.0Q441.0 47.0 441.0 46.0Q441.0 44.5 429.5 44.5ZM511.0 138.0 511.5 136.5Q512.0 136.0 512.25 135.5Q512.5 135.0 512.5 135.0Q512.5 134.5 500.5 134.5Q487.0 134.5 487.0 139.0Q487.0 140.5 488.75 145.0Q490.5 149.5 493.0 155.0Q497.5 167.0 500.5 167.0Q502.5 167.0 503.5 159.0Q504.5 155.5 506.75 149.25Q509.0 143.0 511.0 138.0ZM596.5 134.0Q595.0 134.5 591.75 134.5Q588.5 134.5 583.5 134.5Q569.5 134.5 569.5 139.5Q569.5 146.0 578.0 156.0L582.0 164.0L587.5 153.0Q591.5 147.0 593.75 141.5Q596.0 136.0 596.5 134.0ZM709.5 37.0Q706.5 38.5 697.75 38.75Q689.0 39.0 677.5 39.0Q660.5 39.0 654.5 39.0Q648.5 39.0 648.5 40.0Q648.5 42.0 649.0 42.0Q651.5 47.5 656.75 61.25Q662.0 75.0 667.0 89.5Q675.5 110.5 680.5 115.0Q680.5 100.5 684.75 88.5Q689.0 76.5 695.5 64.0Q700.0 55.5 704.0 48.0Q708.0 40.5 709.5 37.0ZM77.5 372.0H76.0Q63.5 366.5 53.5 363.5Q43.5 360.5 41.0 360.5Q40.0 360.5 39.25 367.25Q38.5 374.0 37.75 383.75Q37.0 393.5 36.5 403.25Q36.0 413.0 36.0 419.5V422.5Q43.0 421.5 57.75 419.0Q72.5 416.5 90.0 413.0Q110.5 407.5 132.75 403.0Q155.0 398.5 167.0 396.0L175.5 394.0L153.5 390.5Q141.5 388.0 127.0 384.75Q112.5 381.5 99.25 378.0Q86.0 374.5 77.5 372.0ZM461.0 130.0Q461.0 129.0 460.75 128.0Q460.5 127.0 460.5 126.5V125.5Q460.5 118.0 468.25 116.0Q476.0 114.0 499.0 114.0Q515.5 114.0 527.75 116.5Q540.0 119.0 540.0 122.5Q540.0 125.0 536.25 133.25Q532.5 141.5 528.5 152.5L526.5 155.5Q521.0 165.0 518.25 173.75Q515.5 182.5 514.5 196.5Q513.5 210.5 513.5 237.0V277.0Q514.0 287.5 514.0 297.75Q514.0 308.0 514.0 316.5Q514.0 341.5 512.75 358.5Q511.5 375.5 509.0 380.0L581.0 382.0L577.5 298.0Q576.5 263.0 573.0 228.5Q569.5 194.0 556.5 161.0L554.0 154.5Q550.0 144.0 547.75 137.0Q545.5 130.0 545.5 126.0Q545.5 117.5 551.0 115.75Q556.5 114.0 567.5 114.0H574.0Q576.0 114.0 583.75 114.25Q591.5 114.5 600.75 115.25Q610.0 116.0 616.75 118.0Q623.5 120.0 623.5 123.5Q623.5 126.5 619.5 135.5Q615.5 144.5 609.5 154.5Q605.0 162.0 602.25 169.75Q599.5 177.5 598.25 190.0Q597.0 202.5 596.5 223.75Q596.0 245.0 596.0 279.0L597.0 378.0L674.5 382.0L673.0 268.5Q672.0 232.0 670.75 207.25Q669.5 182.5 667.5 165.75Q665.5 149.0 662.5 136.0Q659.5 123.0 655.0 110.0Q648.5 93.5 640.5 74.25Q632.5 55.0 627.5 45.5Q623.5 36.0 620.75 28.25Q618.0 20.5 618.0 17.0Q618.0 15.5 618.25 13.5Q618.5 11.5 618.5 11.5H620.0Q620.5 10.5 623.0 10.25Q625.5 10.0 627.5 10.0Q630.5 10.0 634.5 10.5Q638.5 11.0 642.0 13.0Q647.5 15.0 664.75 16.5Q682.0 18.0 700.0 18.0H753.0L730.0 48.0Q718.5 62.5 711.25 77.0Q704.0 91.5 700.25 112.5Q696.5 133.5 695.0 167.0Q693.5 200.5 693.5 253.0Q693.5 298.0 693.75 323.25Q694.0 348.5 695.0 360.5Q696.0 372.5 698.0 376.0Q700.0 379.5 703.0 380.5Q718.0 385.5 718.0 392.5Q718.0 396.0 713.5 399.0Q709.0 402.0 702.0 402.0Q699.5 402.0 696.5 402.75Q693.5 403.5 693.5 404.5Q693.5 413.0 688.5 413.0Q687.0 413.0 684.5 411.25Q682.0 409.5 680.5 407.5Q674.0 405.5 620.75 403.75Q567.5 402.0 469.0 402.0Q409.5 402.5 366.5 403.25Q323.5 404.0 292.25 405.25Q261.0 406.5 236.75 408.75Q212.5 411.0 190.0 414.0Q147.5 421.0 112.25 427.75Q77.0 434.5 55.0 440.0Q33.0 445.5 28.5 449.5L27.0 450.0Q23.0 454.0 18.5 454.0Q10.0 454.0 10.0 440.5Q10.0 433.0 14.0 421.0Q16.0 414.5 17.0 402.75Q18.0 391.0 18.0 380.5V370.0Q17.5 366.0 17.5 361.25Q17.5 356.5 17.5 353.0Q17.5 333.5 24.5 333.5Q25.5 333.5 43.25 338.75Q61.0 344.0 83.0 352.0Q123.0 366.0 165.0 372.0Q207.0 378.0 249.5 379.5Q292.0 381.0 333.5 381.0Q338.5 380.5 343.25 380.5Q348.0 380.5 353.0 380.5L415.0 378.0L413.0 347.0Q413.0 334.0 412.25 324.5Q411.5 315.0 411.0 315.0Q410.5 314.0 393.0 313.5Q375.5 313.0 346.5 313.0Q317.5 313.0 282.0 313.0Q239.0 313.0 208.5 313.75Q178.0 314.5 154.0 316.25Q130.0 318.0 107.0 321.0Q84.0 324.0 56.0 328.5L23.5 333.0L29.0 301.0Q30.0 290.5 32.25 280.75Q34.5 271.0 36.0 269.0H38.5Q41.5 269.0 53.5 271.5Q65.5 274.0 79.0 278.0Q93.0 281.0 115.25 283.5Q137.5 286.0 174.0 287.5Q210.5 289.0 266.5 290.0L413.0 293.5V241.0L328.0 239.5H289.5Q281.5 239.0 273.75 239.0Q266.0 239.0 259.0 239.0Q222.5 239.0 193.5 240.25Q164.5 241.5 139.75 244.0Q115.0 246.5 90.5 250.5Q71.0 254.0 54.75 255.75Q38.5 257.5 33.0 257.5H29.0Q29.0 257.5 28.75 254.75Q28.5 252.0 28.5 251.0Q28.5 247.5 29.0 240.5Q29.5 233.5 30.0 227.0Q31.5 212.5 34.5 205.5Q37.5 198.5 48.5 198.5Q56.5 198.5 73.5 203.0Q77.0 203.5 80.5 204.5Q84.0 205.5 88.5 206.5Q106.5 211.0 149.75 214.25Q193.0 217.5 270.0 219.0L415.0 223.0L411.0 185.0Q409.5 169.0 407.75 155.75Q406.0 142.5 404.5 139.5Q400.0 134.5 298.5 134.5Q243.0 134.5 203.0 137.75Q163.0 141.0 132.0 148.5Q101.0 156.0 72.5 168.5Q61.5 173.5 51.5 177.5Q41.5 181.5 38.5 181.5Q34.0 181.5 32.0 164.5Q30.0 147.5 30.0 127.0Q30.0 106.5 31.75 88.25Q33.5 70.0 36.5 66.5Q38.0 66.5 46.75 70.25Q55.5 74.0 64.5 81.5Q78.0 92.5 92.0 99.0Q106.0 105.5 127.0 108.75Q148.0 112.0 182.0 113.0Q216.0 114.0 269.5 114.0H310.5Q358.0 114.0 376.5 112.0Q395.0 110.0 395.0 102.0Q395.0 97.0 392.0 89.5Q389.0 82.0 384.0 72.0Q383.5 70.5 382.25 68.0Q381.0 65.5 379.5 63.0Q374.0 49.0 369.25 37.75Q364.5 26.5 364.5 26.5Q364.5 23.0 369.75 22.0Q375.0 21.0 383.0 21.0Q389.0 21.0 402.75 21.25Q416.5 21.5 432.0 22.5Q447.5 23.5 458.25 26.0Q469.0 28.5 469.0 33.0V34.0L467.5 38.5Q466.5 41.0 464.75 44.25Q463.0 47.5 461.5 50.5Q459.5 55.5 456.75 61.25Q454.0 67.0 451.5 72.5L435.5 104.0V378.0L505.5 380.0Q501.5 375.0 498.5 351.25Q495.5 327.5 494.5 295.5Q494.0 259.5 490.0 224.25Q486.0 189.0 471.5 155.5Q469.5 151.5 468.0 147.25Q466.5 143.0 464.5 139.5Q463.5 136.0 462.5 133.75Q461.5 131.5 461.0 130.0Z" fill="black" /></svg>