<svg xmlns="http://www.w3.org/2000/svg" width="328.5" height="385.5" viewBox="0 0 328.5 385.5"><path d="M69.0 232.0 69.5 228.5Q70.5 226.0 70.75 223.75Q71.0 221.5 71.5 219.5Q70.0 221.5 67.5 224.25Q65.0 227.0 62.0 231.0Q60.0 233.0 58.5 234.75Q57.0 236.5 55.0 239.0L37.5 256.5L58.0 261.0Q62.0 261.5 65.5 261.75Q69.0 262.0 71.0 262.5Q70.5 262.0 70.5 261.5Q70.5 261.0 70.0 260.5L69.0 259.0Q66.5 252.5 66.5 246.5Q66.5 242.0 69.0 232.0ZM151.5 245.0Q147.5 240.0 144.25 234.25Q141.0 228.5 141.0 225.5Q139.0 226.5 134.25 230.5Q129.5 234.5 125.75 238.75Q122.0 243.0 122.0 244.5Q122.0 244.5 127.5 245.25Q133.0 246.0 146.5 247.5L155.0 248.5ZM118.5 108.0Q118.0 109.0 116.75 110.0Q115.5 111.0 114.5 112.0L106.0 120.0H108.0Q115.5 120.0 115.5 119.0Q115.5 117.5 116.5 114.5Q117.5 111.5 118.5 108.0ZM145.0 188.5H155.0Q154.5 187.5 154.25 186.5Q154.0 185.5 153.0 184.0L152.0 180.5V181.0Q152.0 180.5 151.75 180.5Q151.5 180.5 151.5 180.0Q151.0 181.0 149.5 182.5Q146.0 186.0 145.0 188.5ZM178.0 155.0V152.0Q176.5 153.5 174.75 155.75Q173.0 158.0 172.0 159.5Q172.5 159.5 173.0 159.5Q173.5 159.5 174.0 159.5Q179.0 159.5 179.0 158.5Q179.0 158.0 178.75 157.75Q178.5 157.5 178.5 157.0Q178.0 156.5 178.0 155.0ZM292.0 180.0Q290.0 180.0 284.25 180.25Q278.5 180.5 270.5 180.5Q249.0 180.5 249.0 182.0Q249.0 182.0 250.0 183.0L253.5 186.5Q256.0 189.0 259.25 194.75Q262.5 200.5 264.5 206.5Q267.0 212.5 268.25 215.75Q269.5 219.0 270.0 220.0Q271.0 218.5 271.5 213.5Q272.5 206.5 278.0 198.0Q283.5 189.5 288.5 184.5Q289.5 183.0 290.5 181.75Q291.5 180.5 292.0 180.0ZM213.0 74.5V73.5Q213.0 73.0 213.25 72.75Q213.5 72.5 213.5 72.0Q210.5 75.5 206.5 79.75Q202.5 84.0 198.5 89.0L181.0 109.5H212.5L210.5 101.0V94.5Q210.5 83.0 213.0 74.5ZM188.5 125.5Q190.0 127.5 190.5 131.5Q191.0 135.5 191.0 140.5Q191.0 151.0 197.0 157.0Q203.0 163.0 224.5 173.5Q224.5 170.0 226.0 168.5Q228.5 164.5 239.0 164.5Q242.0 164.5 243.5 165.0Q245.0 165.0 246.25 165.25Q247.5 165.5 249.0 165.5L263.5 167.0L261.5 142.0L241.0 134.5Q228.0 129.5 217.0 127.75Q206.0 126.0 188.5 125.5ZM243.5 106.0Q235.5 97.5 230.5 93.25Q225.5 89.0 223.5 88.5Q223.5 92.0 224.5 99.0Q225.5 106.0 229.5 106.0Q238.0 106.0 238.0 115.5Q238.0 116.0 241.25 118.25Q244.5 120.5 248.5 122.0Q253.5 124.0 257.5 125.75Q261.5 127.5 263.5 127.5Q262.0 123.0 243.5 106.0ZM275.5 91.5Q274.0 91.5 271.5 91.5Q269.0 91.5 265.0 91.5H252.0L257.0 95.5Q264.5 103.5 265.0 103.5L267.0 101.5Q270.0 97.0 275.5 91.5ZM82.0 180.5Q84.0 173.0 89.5 173.0Q92.0 173.0 94.0 174.5Q95.0 175.5 95.75 177.75Q96.5 180.0 96.5 181.5Q96.5 183.5 96.0 186.25Q95.5 189.0 94.0 193.0Q91.0 198.5 88.0 209.0Q85.0 219.5 83.25 230.0Q81.5 240.5 81.5 247.5Q81.5 250.5 82.5 251.5Q85.0 260.5 95.25 271.0Q105.5 281.5 115.5 286.5Q125.5 291.5 138.25 299.75Q151.0 308.0 162.75 316.25Q174.5 324.5 182.0 331.0Q189.5 337.5 189.5 339.0V339.5Q188.5 343.0 185.0 343.0Q182.5 343.0 173.5 338.5Q164.5 334.0 156.0 327.5Q137.0 315.0 114.25 303.0Q91.5 291.0 72.5 282.5Q53.5 274.0 44.0 273.0Q25.5 270.5 17.75 268.75Q10.0 267.0 10.0 263.0Q10.0 260.5 12.75 258.0Q15.5 255.5 19.0 252.5L21.5 250.5Q28.0 245.5 37.75 235.75Q47.5 226.0 57.25 214.75Q67.0 203.5 74.0 194.0Q81.0 184.5 82.0 180.5ZM234.5 19.0Q238.5 10.0 243.5 10.0Q247.5 10.0 247.5 16.5Q247.5 20.0 246.25 25.75Q245.0 31.5 242.5 38.0Q237.5 47.5 233.75 57.75Q230.0 68.0 229.5 73.5Q233.5 74.0 245.25 74.75Q257.0 75.5 272.0 76.0Q295.0 77.0 303.75 78.5Q312.5 80.0 312.5 84.0Q312.5 87.5 307.0 90.5Q290.0 97.0 283.5 103.5Q277.0 110.0 277.0 119.5Q277.0 128.5 280.25 131.5Q283.5 134.5 298.0 141.5Q308.0 147.0 313.0 152.0Q318.0 157.0 318.5 159.0Q318.0 163.0 313.0 164.0Q307.5 164.0 294.0 157.5Q288.5 154.0 283.5 151.5Q278.5 149.0 276.5 148.5Q277.0 150.5 277.0 158.0V167.0H293.5Q303.5 167.0 310.25 168.25Q317.0 169.5 317.0 172.0Q317.0 173.0 313.75 177.75Q310.5 182.5 305.5 188.0Q297.0 196.5 292.5 203.0Q288.0 209.5 286.0 219.25Q284.0 229.0 283.5 246.75Q283.0 264.5 283.0 295.0Q283.0 317.0 282.5 335.5Q282.0 354.0 280.75 364.75Q279.5 375.5 277.5 375.5Q275.0 375.5 272.25 366.0Q269.5 356.5 268.5 343.5L266.5 317.0L225.5 295.0Q204.0 282.5 187.25 275.5Q170.5 268.5 154.75 264.5Q139.0 260.5 120.0 258.5Q109.5 257.5 101.5 255.5Q93.5 253.5 93.5 251.0Q93.5 250.0 101.5 242.5Q109.5 235.0 120.0 225.75Q130.5 216.5 139.0 209.75Q147.5 203.0 148.5 203.0Q149.5 204.0 150.5 207.5Q151.5 211.0 152.5 215.0L153.0 218.5Q156.5 229.5 169.25 241.25Q182.0 253.0 208.5 267.5L213.5 270.5Q220.0 274.0 226.75 278.0Q233.5 282.0 238.5 285.0Q241.0 286.0 243.0 287.5Q245.0 289.0 247.0 290.0Q253.5 294.0 257.0 295.5L267.0 301.5L266.5 274.5Q266.0 260.5 264.75 251.75Q263.5 243.0 260.75 235.25Q258.0 227.5 252.5 217.5Q248.0 207.0 244.25 201.25Q240.5 195.5 239.0 194.5H237.5Q235.5 194.5 228.0 191.5Q220.5 188.5 212.0 184.0Q203.0 178.5 192.75 175.75Q182.5 173.0 175.5 173.0Q171.5 173.0 168.5 174.0Q165.5 175.0 165.5 177.0Q165.5 181.5 192.5 200.5Q207.5 210.0 216.0 217.0Q224.5 224.0 224.5 226.5Q224.5 231.5 218.5 231.5Q217.0 231.5 208.25 227.0Q199.5 222.5 189.0 216.0Q176.0 208.5 168.25 205.5Q160.5 202.5 152.5 202.5H123.0L121.5 200.0Q121.5 197.5 125.25 191.75Q129.0 186.0 134.5 179.0Q139.5 172.0 143.0 166.0Q146.5 160.0 147.0 158.5Q144.5 155.0 130.0 146.5Q120.5 139.5 112.75 138.25Q105.0 137.0 93.5 137.0L62.5 137.5L92.0 112.0Q101.5 104.0 112.75 93.25Q124.0 82.5 134.5 71.75Q145.0 61.0 151.75 53.25Q158.5 45.5 158.5 44.0Q158.5 41.0 161.0 39.0Q163.5 37.0 166.0 37.0Q173.0 37.0 173.0 44.0Q173.0 51.5 161.0 66.0Q150.0 81.5 141.0 97.0Q132.0 112.5 131.5 118.0Q133.5 120.0 134.0 122.25Q134.5 124.5 134.5 127.0V129.5Q134.5 132.5 139.5 134.5Q141.5 135.5 144.25 137.25Q147.0 139.0 149.5 141.0Q151.5 142.5 153.25 143.75Q155.0 145.0 157.0 146.0L160.0 150.0Q161.5 149.0 166.0 143.5Q167.0 142.5 169.0 139.5Q172.0 135.0 175.5 131.25Q179.0 127.5 181.5 125.5H140.0L161.0 106.5Q168.0 100.0 179.0 88.0Q190.0 76.0 201.5 62.25Q213.0 48.5 222.0 36.75Q231.0 25.0 234.5 19.0Z" fill="black" /></svg>