<svg xmlns="http://www.w3.org/2000/svg" width="731.0" height="384.0" viewBox="0 0 731.0 384.0"><path d="M38.0 263.0Q31.5 259.0 29.0 259.0Q27.0 259.0 27.0 271.0V283.5Q30.5 282.0 37.25 276.25Q44.0 270.5 46.0 267.0Q44.5 266.0 42.5 265.0Q40.5 264.0 38.0 263.0ZM295.5 290.5H291.0Q284.0 290.5 276.75 289.75Q269.5 289.0 265.5 288.0Q262.0 287.0 259.5 286.5Q259.5 287.0 260.5 288.0Q261.5 290.0 262.75 294.0Q264.0 298.0 266.0 303.5Q269.5 310.0 271.5 317.5L278.0 334.5L283.5 326.5Q287.0 321.0 292.25 314.25Q297.5 307.5 301.5 304.5Q310.0 297.0 310.0 293.5Q310.0 290.5 295.5 290.5ZM56.5 125.5Q54.5 124.5 52.75 123.5Q51.0 122.5 50.0 122.0Q50.5 123.5 50.5 126.5Q50.5 129.5 50.5 133.5V146.0Q53.0 145.0 58.0 139.25Q63.0 133.5 65.0 130.0Q63.0 129.0 60.5 127.5Q58.0 126.0 56.5 125.5ZM104.0 132.0Q102.5 132.5 97.0 132.5H92.5L93.0 134.0Q93.0 134.5 93.25 135.0Q93.5 135.5 93.5 135.5Q95.0 138.0 96.5 140.25Q98.0 142.5 98.5 142.5Q100.0 142.5 101.75 139.0Q103.5 135.5 104.0 132.0ZM131.0 254.0V206.5Q131.0 183.0 130.75 172.25Q130.5 161.5 128.75 157.0Q127.0 152.5 122.5 148.5L116.0 140.0L112.0 147.0Q109.5 151.5 108.25 165.0Q107.0 178.5 107.0 204.0V251.5ZM135.0 139.5Q136.0 139.5 137.75 136.75Q139.5 134.0 140.0 132.5H135.5Q133.0 132.5 131.25 133.0Q129.5 133.5 128.5 133.5Q130.5 136.5 132.5 138.5Q133.5 139.5 135.0 139.5ZM259.5 141.5 250.5 128.5 213.0 129.0Q190.0 129.5 176.5 131.75Q163.0 134.0 156.25 141.0Q149.5 148.0 147.25 162.25Q145.0 176.5 144.0 200.5L143.0 253.5H202.0Q232.5 253.5 249.25 255.0Q266.0 256.5 266.0 260.0Q266.0 262.5 262.5 264.25Q259.0 266.0 253.5 266.0Q249.0 266.0 247.5 267.5Q250.0 271.5 256.25 272.25Q262.5 273.0 267.0 273.0Q267.5 270.5 268.0 252.75Q268.5 235.0 268.5 213.0Q268.5 188.0 267.5 174.75Q266.5 161.5 264.75 154.5Q263.0 147.5 259.5 141.5ZM272.5 132.5Q272.5 128.5 268.5 128.5Q266.5 128.5 266.5 130.0Q266.5 132.0 270.5 134.0H271.0Q272.5 134.0 272.5 132.5ZM329.5 118.5 321.5 115.0Q313.5 111.0 297.75 108.5Q282.0 106.0 269.5 106.0Q261.0 106.0 254.0 109.5Q254.0 110.5 261.0 111.25Q268.0 112.0 280.0 112.0Q292.0 112.0 302.0 113.25Q312.0 114.5 314.0 116.5Q316.5 119.0 324.0 119.0H327.0ZM310.5 225.0V157.5L298.5 144.5Q289.5 134.0 287.5 134.0Q287.0 134.0 286.0 136.5Q282.0 144.5 280.25 154.0Q278.5 163.5 278.5 181.0Q278.5 189.5 278.75 200.25Q279.0 211.0 279.5 224.0L282.5 280.0H292.5Q301.0 280.0 304.75 277.0Q308.5 274.0 309.5 262.25Q310.5 250.5 310.5 225.0ZM406.0 159.5Q382.5 145.0 368.5 139.0Q354.5 133.0 346.0 133.0Q337.5 133.0 332.0 139.5Q329.5 142.5 328.0 149.5Q326.5 156.5 325.75 171.25Q325.0 186.0 324.0 212.5L323.0 276.5L333.0 274.5Q338.5 273.0 351.75 266.75Q365.0 260.5 381.75 251.5Q398.5 242.5 414.25 233.0Q430.0 223.5 440.75 215.5Q451.5 207.5 453.0 203.5Q454.0 200.0 454.5 196.5Q455.0 193.0 455.0 191.0Q455.0 189.0 454.5 189.0Q454.0 188.0 440.0 179.25Q426.0 170.5 406.0 159.5ZM462.5 283.5Q448.0 275.0 443.0 274.0Q443.0 275.5 443.0 281.25Q443.0 287.0 442.5 295.0V312.0Q453.0 306.5 465.25 302.5Q477.5 298.5 484.5 297.5Q488.0 296.5 490.75 295.25Q493.5 294.0 494.0 293.5Q493.5 293.5 492.5 293.25Q491.5 293.0 490.0 293.0Q486.5 293.0 478.75 290.0Q471.0 287.0 462.5 283.5ZM470.0 196.0V195.5L469.0 194.0V197.0Q469.0 198.0 469.5 198.0Q469.5 197.5 469.75 197.0Q470.0 196.5 470.0 196.0ZM481.5 236.0Q480.5 235.0 478.25 233.25Q476.0 231.5 473.5 229.5L469.0 226.0V243.5L474.5 240.0Q478.0 237.0 481.5 236.0ZM533.0 226.5H571.0L568.5 195.5H530.0Q516.5 195.5 508.0 197.0Q499.5 198.5 492.5 203.0Q476.5 210.5 476.5 216.0Q476.5 220.5 491.0 223.5Q505.5 226.5 533.0 226.5ZM316.5 88.0Q312.0 82.0 308.0 73.5Q304.0 65.0 302.0 59.5L299.5 51.5L268.0 92.5H280.0Q287.0 92.5 297.0 94.25Q307.0 96.0 313.0 98.5Q316.5 99.5 319.75 100.25Q323.0 101.0 325.0 101.5Q322.5 96.5 316.5 88.0ZM320.0 130.5Q318.5 128.5 311.5 128.5Q309.5 128.5 307.0 128.75Q304.5 129.0 304.5 129.0Q304.5 131.5 310.5 136.5Q314.0 140.0 314.5 140.0Q316.0 140.0 318.0 136.0Q320.0 132.0 320.0 130.5ZM475.0 95.0Q469.0 91.0 464.5 89.0Q463.0 88.0 462.0 87.25Q461.0 86.5 461.0 86.5Q460.5 86.5 460.0 93.0Q459.5 99.5 459.25 107.5Q459.0 115.5 459.0 120.5V123.0Q465.0 122.0 474.0 116.0Q481.0 113.0 487.5 110.5Q494.0 108.0 496.0 108.0Q498.5 108.0 498.5 106.5Q498.5 105.5 495.5 105.5Q493.0 105.5 486.75 102.5Q480.5 99.5 475.0 95.0ZM585.0 167.5Q582.5 165.5 577.5 165.0Q574.5 163.5 572.5 163.5Q572.5 166.5 577.0 173.5L580.0 178.5L582.0 174.5Q584.0 171.5 585.0 167.5ZM647.5 284.0V254.5Q647.5 249.5 647.25 239.0Q647.0 228.5 645.5 215.75Q644.0 203.0 640.75 191.0Q637.5 179.0 632.25 171.25Q627.0 163.5 618.5 163.5Q612.0 163.5 605.0 170.0Q593.5 178.5 589.0 187.75Q584.5 197.0 584.5 216.5Q584.5 221.0 584.75 226.5Q585.0 232.0 585.5 238.0V243.0L588.0 284.0ZM665.0 162.5H655.5Q646.0 162.5 646.0 163.0Q646.0 163.5 646.25 163.75Q646.5 164.0 646.5 164.5L648.0 168.0Q648.5 169.5 649.0 171.0Q649.5 172.5 650.0 174.0Q650.5 175.0 651.0 176.5Q651.5 178.0 651.5 179.0L652.5 181.5Q653.0 182.5 653.0 183.25Q653.0 184.0 653.0 184.0Q654.5 184.0 665.0 162.5ZM677.5 86.5H661.5Q645.0 86.5 645.0 89.0Q645.0 89.5 648.0 91.0Q650.0 92.0 652.25 96.0Q654.5 100.0 656.5 104.0L658.5 110.0L666.5 99.5Q668.0 98.0 669.25 96.5Q670.5 95.0 671.5 93.5Q676.5 89.0 677.5 86.5ZM303.5 15.0Q309.5 10.0 311.0 10.0Q314.5 10.0 314.5 14.0Q314.5 15.5 313.75 18.75Q313.0 22.0 311.5 25.5Q311.0 28.0 310.25 30.5Q309.5 33.0 309.5 35.5Q309.5 39.0 311.0 44.25Q312.5 49.5 315.0 56.5Q324.5 79.0 341.75 97.5Q359.0 116.0 380.5 130.0Q402.0 144.0 423.5 155.0Q437.0 163.0 446.25 168.0Q455.5 173.0 456.0 173.0V167.0Q456.0 159.0 460.0 159.0Q462.5 159.0 469.5 165.5L471.5 167.0Q475.5 171.5 482.25 175.25Q489.0 179.0 494.0 180.5Q500.5 182.5 514.5 183.25Q528.5 184.0 541.5 184.0Q550.0 184.0 556.5 183.5Q563.0 183.0 565.0 182.5Q565.0 178.5 562.5 172.5Q560.0 166.5 558.0 166.5Q554.0 166.5 546.5 160.0Q542.5 158.0 542.5 155.0Q542.5 150.5 563.0 150.5H630.0L648.0 150.0L646.0 111.0L588.5 110.0H572.0Q569.0 109.5 566.5 109.5Q564.0 109.5 561.5 109.5Q537.0 109.5 512.5 115.25Q488.0 121.0 467.0 134.0Q461.0 138.0 455.5 140.75Q450.0 143.5 449.5 143.5Q447.5 143.5 447.0 138.5Q446.5 133.5 446.5 126.0Q446.5 115.0 446.75 101.75Q447.0 88.5 447.5 77.5Q448.0 66.5 448.0 63.5Q448.5 63.5 448.75 63.25Q449.0 63.0 449.5 63.0Q451.5 63.0 456.75 66.5Q462.0 70.0 468.5 75.5Q474.5 80.5 483.0 85.5Q491.5 90.5 497.0 91.5Q505.0 94.0 527.25 95.25Q549.5 96.5 573.5 96.5Q595.5 96.5 613.5 95.75Q631.5 95.0 635.0 94.5Q631.0 91.5 619.0 87.0Q612.0 84.5 607.5 81.75Q603.0 79.0 603.0 77.5L603.5 76.0Q604.5 74.5 614.5 73.75Q624.5 73.0 639.5 72.75Q654.5 72.5 669.5 72.5Q690.0 72.5 705.5 73.5Q721.0 74.5 721.0 77.0Q721.0 82.5 713.5 82.5Q709.5 82.5 701.5 88.0Q693.5 93.5 685.0 101.25Q676.5 109.0 670.5 116.5Q666.0 124.0 663.0 130.5Q660.0 137.0 660.0 141.5Q660.0 152.5 675.5 152.5Q677.5 152.5 679.5 152.25Q681.5 152.0 683.5 151.5H685.0Q687.5 151.0 689.25 151.0Q691.0 151.0 692.5 151.0Q700.0 151.0 702.5 154.5L703.0 156.0Q703.5 156.5 703.5 157.0Q703.5 157.5 704.0 158.0Q703.0 162.5 696.5 162.5Q689.5 162.5 679.25 171.5Q669.0 180.5 664.0 191.5Q661.5 198.0 660.25 207.0Q659.0 216.0 659.0 231.5V244.0Q660.0 267.0 661.25 274.5Q662.5 282.0 666.0 283.0Q674.5 285.5 674.5 291.5Q674.5 297.0 666.5 297.0Q664.0 297.0 664.0 311.0Q664.0 330.5 657.5 330.5Q655.5 330.5 653.75 325.25Q652.0 320.0 651.0 311.5L649.5 299.0L587.0 296.5V304.0Q587.0 308.5 585.25 312.0Q583.5 315.5 581.0 315.5Q578.5 315.5 576.5 312.0Q574.5 308.5 574.5 304.0Q574.5 299.0 571.5 298.0Q568.5 297.0 553.5 297.0Q540.5 297.0 522.5 300.25Q504.5 303.5 486.5 309.0Q468.5 314.5 454.5 321.5L451.5 323.0Q443.5 326.5 438.75 328.25Q434.0 330.0 431.5 330.0Q426.5 330.0 426.5 325.0Q426.5 323.5 427.5 319.5Q428.5 316.5 429.25 306.5Q430.0 296.5 430.0 285.5Q430.0 274.0 430.75 264.75Q431.5 255.5 432.0 254.0L433.0 253.5Q435.0 252.5 435.5 252.5Q440.5 252.5 452.5 262.0Q468.0 274.0 487.75 279.0Q507.5 284.0 539.5 284.0H574.5V270.0Q574.5 254.5 573.0 248.25Q571.5 242.0 564.0 240.5Q556.5 239.0 538.5 239.0Q515.0 239.0 495.5 244.25Q476.0 249.5 470.5 257.0Q467.0 262.5 460.0 262.5Q453.0 262.5 453.0 254.5Q453.0 253.0 453.0 251.0Q453.0 249.0 453.5 247.0L454.0 244.0Q455.0 241.0 455.0 237.75Q455.0 234.5 455.0 231.5Q455.0 228.5 454.5 227.0Q450.5 228.0 438.25 234.25Q426.0 240.5 409.75 249.5Q393.5 258.5 376.5 268.75Q359.5 279.0 345.5 288.0Q331.5 297.0 324.0 302.5Q307.0 316.5 297.5 330.0Q288.0 343.5 285.5 358.0Q283.0 374.0 278.5 374.0Q276.5 374.0 275.5 371.0V371.5Q275.0 371.0 275.0 370.0Q275.0 369.0 274.0 368.0Q273.5 365.0 271.0 358.5Q269.0 352.5 265.25 341.75Q261.5 331.0 257.0 319.0Q252.5 307.0 248.0 297.5Q243.5 288.0 240.0 284.5Q236.0 280.0 233.0 275.0Q230.0 270.0 230.0 268.0Q230.0 267.0 220.25 266.5Q210.5 266.0 187.0 266.0H143.5V277.0Q143.5 283.5 142.0 288.25Q140.5 293.0 137.0 293.0Q135.0 293.0 133.0 288.25Q131.0 283.5 131.0 277.0Q131.0 269.0 129.5 267.5Q128.0 266.0 120.0 266.0Q112.5 266.0 110.75 267.5Q109.0 269.0 109.0 276.5Q109.0 294.5 102.5 294.5Q97.0 294.5 95.5 280.0Q95.0 272.0 93.0 269.75Q91.0 267.5 86.5 266.5Q75.5 266.5 61.5 274.0Q47.5 281.5 36.5 292.5Q25.5 303.5 23.0 314.5Q21.0 325.0 17.0 325.0Q14.0 325.0 11.5 321.0Q10.0 316.5 10.0 309.5Q10.0 306.5 10.5 302.0Q11.0 297.5 12.0 292.5Q13.0 287.0 13.5 279.25Q14.0 271.5 14.0 264.0Q14.0 260.5 14.0 257.0Q14.0 253.5 13.5 250.5Q13.0 248.0 13.0 245.5Q13.0 243.0 13.0 241.0Q13.0 225.5 19.5 225.5Q21.5 225.5 24.25 228.25Q27.0 231.0 29.0 237.5Q32.0 245.5 40.0 249.25Q48.0 253.0 64.5 253.0H72.0L94.5 251.5L93.5 205.5Q93.0 177.5 91.75 165.75Q90.5 154.0 87.0 148.5Q85.0 145.0 82.5 142.25Q80.0 139.5 79.0 139.5Q75.5 139.5 68.25 146.5Q61.0 153.5 54.5 162.5Q48.0 171.5 46.0 177.0Q44.0 187.5 39.5 187.5Q34.0 187.5 34.0 171.0Q34.0 163.0 35.5 155.0Q36.5 149.5 37.0 141.75Q37.5 134.0 37.5 126.5Q37.5 123.0 37.5 119.5Q37.5 116.0 37.0 113.0Q36.5 110.5 36.5 107.75Q36.5 105.0 36.5 103.0Q36.5 88.5 43.0 88.5Q45.0 88.5 47.5 91.25Q50.0 94.0 52.0 100.0Q55.0 107.0 63.5 112.0Q72.0 117.0 82.0 117.0Q84.0 117.0 85.5 116.75Q87.0 116.5 89.0 116.0H92.0Q95.0 115.5 100.0 115.5Q105.0 115.5 111.5 115.5Q121.5 115.5 133.5 115.5Q145.5 115.5 159.0 116.0Q185.0 116.0 198.75 115.75Q212.5 115.5 218.0 114.5Q223.5 113.5 224.5 111.5Q225.5 108.5 228.0 106.75Q230.5 105.0 232.5 105.0H234.5Q237.5 104.0 244.75 97.0Q252.0 90.0 260.75 79.75Q269.5 69.5 277.0 58.75Q284.5 48.0 288.5 40.0Q292.5 33.0 297.0 25.75Q301.5 18.5 303.5 15.0ZM481.5 192.0 480.5 191.0 481.5 193.0 482.0 192.0Q480.5 192.0 480.5 190.0Q480.5 190.0 481.5 192.0Z" fill="black" /></svg>