<svg xmlns="http://www.w3.org/2000/svg" width="637.0" height="377.0" viewBox="0 0 637.0 377.0"><path d="M167.0 274.0 148.0 256.5Q143.0 265.5 137.75 273.75Q132.5 282.0 127.0 290.0Q131.0 287.5 135.5 285.0Q140.0 282.5 145.0 280.0Q150.5 277.5 155.75 276.25Q161.0 275.0 165.0 274.5Q166.0 274.5 166.25 274.25Q166.5 274.0 167.0 274.0ZM40.0 102.5V108.5Q39.0 114.5 38.75 121.0Q38.5 127.5 38.5 134.0Q39.5 131.5 41.0 129.25Q42.5 127.0 43.5 125.0Q46.0 122.5 47.75 120.25Q49.5 118.0 51.5 116.0L56.0 111.5H56.5V111.0L55.5 110.5Q52.5 110.0 49.25 108.25Q46.0 106.5 43.5 105.5Q43.0 104.5 42.0 103.75Q41.0 103.0 40.0 102.5ZM145.5 218.0 160.5 220.0 153.0 208.0ZM168.0 179.0 163.5 186.5Q166.0 186.5 167.75 186.5Q169.5 186.5 171.5 187.0Q172.0 187.0 172.5 187.0Q173.0 187.0 173.5 187.0Q173.5 187.0 173.25 186.75Q173.0 186.5 173.0 186.0Q171.5 184.0 170.25 182.25Q169.0 180.5 168.0 179.0ZM328.0 273.5Q323.0 272.5 319.0 271.5L317.0 270.5Q314.0 269.5 309.75 267.25Q305.5 265.0 301.5 262.5V264.0Q302.0 265.5 302.0 270.0Q302.5 274.5 302.5 279.0Q302.5 283.5 302.5 286.0Q302.5 288.0 302.25 289.75Q302.0 291.5 302.0 293.5V300.5L301.5 302.5L302.0 302.0Q307.5 293.0 315.5 286.0Q318.0 282.5 321.25 279.5Q324.5 276.5 328.0 273.5ZM178.5 155.0 194.5 155.5 188.5 139.0ZM226.5 111.5 224.5 104.0Q224.0 101.5 224.0 100.0Q224.0 98.5 224.0 96.5Q224.0 94.0 224.25 90.5Q224.5 87.0 225.0 83.5Q219.5 90.5 213.5 96.0L203.0 107.5ZM336.5 114.0Q334.5 113.0 332.75 112.5Q331.0 112.0 329.5 111.5Q326.5 110.0 323.5 109.0L315.5 105.0Q313.5 103.5 312.5 103.5Q312.5 103.5 312.5 103.5Q312.5 103.5 312.0 103.0Q312.0 104.5 312.25 106.0Q312.5 107.5 313.0 109.0V122.0Q313.0 124.0 313.0 126.0Q313.0 128.0 312.5 130.5Q312.5 132.5 312.25 134.5Q312.0 136.5 312.0 139.0Q311.5 141.0 311.5 141.0Q311.5 141.0 311.5 141.0Q311.5 141.0 311.5 141.5Q311.5 142.0 311.5 143.0L312.5 142.0Q315.0 138.0 317.75 134.25Q320.5 130.5 323.5 127.0Q326.5 124.0 329.75 120.5Q333.0 117.0 336.5 114.0ZM596.5 37.0 597.5 34.0Q595.0 33.5 584.25 33.25Q573.5 33.0 563.5 33.0Q558.5 33.0 554.75 33.0Q551.0 33.0 549.0 33.0Q549.0 36.0 553.0 44.0Q556.5 50.0 560.0 63.5Q563.5 77.0 566.25 93.0Q569.0 109.0 570.0 123.0L574.0 111.0Q579.5 92.5 585.25 73.5Q591.0 54.5 596.5 37.0ZM285.0 281.5Q286.5 221.0 295.5 221.0Q300.5 221.0 304.5 237.5Q306.0 243.5 309.25 247.5Q312.5 251.5 321.75 254.0Q331.0 256.5 349.75 257.5Q368.5 258.5 401.0 258.5H471.0Q510.5 258.5 530.5 260.0Q550.5 261.5 553.0 265.0V266.0Q553.0 271.0 529.25 273.0Q505.5 275.0 451.5 275.0H351.0L326.5 298.5Q323.0 302.0 318.75 307.25Q314.5 312.5 310.0 318.0Q304.5 325.0 299.0 331.25Q293.5 337.5 289.5 337.5H287.5Q283.5 334.5 283.5 324.5Q282.0 326.0 278.5 326.0Q276.5 326.0 271.25 324.75Q266.0 323.5 260.0 321.5L202.5 294.5Q201.5 295.5 199.5 295.5Q197.5 295.5 195.75 294.75Q194.0 294.0 191.5 293.0Q185.0 288.0 175.5 288.0Q161.5 288.0 144.5 296.75Q127.5 305.5 109.0 321.0Q104.0 326.0 97.75 329.0Q91.5 332.0 88.0 332.5Q86.5 332.5 85.5 332.0Q81.5 329.5 81.5 326.0Q81.5 320.5 87.0 318.0Q96.0 309.0 106.5 293.75Q117.0 278.5 123.0 268.5L129.5 255.0H106.0Q98.5 254.0 91.25 254.0Q84.0 254.0 76.0 254.0Q59.5 254.0 50.25 262.0Q41.0 270.0 32.0 296.0Q23.5 319.5 15.5 320.5Q13.5 320.5 11.75 318.5Q10.0 316.5 10.0 312.5Q10.0 311.5 10.25 310.25Q10.5 309.0 10.5 307.0Q11.5 304.0 11.5 302.0Q12.5 296.5 13.25 279.75Q14.0 263.0 14.0 245.5Q14.0 224.5 16.25 211.25Q18.5 198.0 22.5 198.0Q26.5 198.0 28.5 202.0Q30.5 206.0 30.5 212.5Q30.5 227.0 42.25 232.0Q54.0 237.0 88.0 238.5L135.5 239.5L137.5 231.5L130.0 231.0Q120.5 231.0 120.5 225.5Q120.5 221.5 129.5 210.5Q138.0 201.0 138.0 196.5Q138.0 194.0 141.5 187.75Q145.0 181.5 149.0 175.5Q151.5 172.5 153.0 167.75Q154.5 163.0 154.5 162.5L155.5 163.5Q157.5 157.0 167.0 145.0Q169.5 141.0 172.5 136.25Q175.5 131.5 179.0 126.5Q177.5 127.0 176.5 127.25Q175.5 127.5 174.5 127.5Q168.5 127.5 168.5 122.0Q168.5 120.5 169.5 119.0Q170.5 117.5 171.5 116.0H100.5Q84.5 116.0 75.0 119.75Q65.5 123.5 58.75 133.25Q52.0 143.0 43.0 162.0Q32.5 183.5 25.5 183.5Q19.5 183.5 19.5 174.5Q19.5 169.5 21.0 164.5Q21.5 158.0 22.25 140.75Q23.0 123.5 23.0 107.0Q23.0 85.5 25.5 72.75Q28.0 60.0 32.0 60.0Q34.5 60.0 37.75 64.0Q41.0 68.0 41.0 74.5Q41.0 78.0 45.5 84.25Q50.0 90.5 54.0 94.0Q57.5 97.0 64.0 98.5Q70.5 100.0 84.25 100.25Q98.0 100.5 122.0 100.5H187.5L225.0 57.5Q238.5 42.0 246.0 35.25Q253.5 28.5 256.0 28.5Q258.5 28.5 259.5 30.0Q260.5 31.5 261.5 34.0Q261.0 36.0 258.5 41.5Q256.0 47.0 251.0 53.5Q247.5 57.5 244.25 68.75Q241.0 80.0 241.0 92.0Q241.0 99.0 242.5 105.5Q244.0 112.0 247.5 116.5L268.5 126.5Q277.0 131.0 284.5 135.5Q292.0 140.0 295.5 143.5Q295.5 143.0 295.5 142.75Q295.5 142.5 295.5 142.0V133.0Q296.0 130.5 296.0 127.75Q296.0 125.0 296.0 122.0Q297.0 113.0 297.0 104.75Q297.0 96.5 297.0 90.0Q297.0 82.0 297.25 76.25Q297.5 70.5 298.5 67.0Q298.5 63.0 304.0 63.0Q309.5 63.0 311.5 68.0Q313.0 77.5 323.25 88.0Q333.5 98.5 359.0 102.0H439.0Q491.0 102.0 519.75 103.75Q548.5 105.5 551.0 109.5Q543.5 45.0 526.5 33.5Q523.0 30.5 519.75 27.25Q516.5 24.0 516.5 22.0Q516.5 19.0 524.5 17.5Q532.5 16.0 546.0 16.0Q559.0 16.0 571.0 16.25Q583.0 16.5 595.0 18.0Q596.0 18.0 597.5 18.25Q599.0 18.5 599.5 18.5L600.5 19.0Q601.0 19.0 602.0 18.0L603.0 17.0Q604.0 16.0 604.25 15.5Q604.5 15.0 605.0 14.5Q607.0 12.0 607.75 11.25Q608.5 10.5 612.0 10.0H613.5Q627.0 10.0 627.0 18.0Q627.0 23.5 620.5 28.0Q617.0 31.5 613.0 41.5Q609.0 51.5 605.0 65.0Q569.5 170.0 569.5 304.5Q569.5 337.0 567.5 352.0Q565.5 367.0 560.5 367.0Q557.0 367.0 555.0 358.0Q553.0 349.0 553.0 327.5Q553.0 321.0 553.25 313.5Q553.5 306.0 553.5 297.0Q554.0 290.0 554.25 282.25Q554.5 274.5 554.5 265.5Q555.5 251.5 555.5 238.5Q555.5 225.5 555.5 213.0Q555.5 151.5 551.0 110.5Q549.5 114.0 523.5 115.75Q497.5 117.5 451.0 117.5H360.0Q344.5 128.5 330.75 144.75Q317.0 161.0 311.5 179.5Q309.0 185.0 305.5 185.0Q302.0 185.0 299.25 177.75Q296.5 170.5 295.5 152.5Q294.0 154.0 291.5 154.0Q288.5 153.5 280.25 150.75Q272.0 148.0 262.0 143.0Q249.5 137.5 235.75 132.25Q222.0 127.0 215.0 126.0L202.0 124.5L204.0 132.5Q209.5 157.0 218.5 157.0Q222.5 157.0 225.5 158.75Q228.5 160.5 230.0 163.0Q230.5 163.5 239.5 168.25Q248.5 173.0 261.0 177.5L291.5 190.0Q298.0 193.0 300.25 196.0Q302.5 199.0 302.5 201.0Q302.5 206.5 297.0 206.5Q295.5 206.5 293.5 205.75Q291.5 205.0 289.0 204.5L286.0 203.5Q279.0 200.5 270.75 197.25Q262.5 194.0 255.5 191.5L252.0 190.0Q239.5 184.5 227.25 179.75Q215.0 175.0 202.0 171.5Q197.5 170.0 192.75 169.75Q188.0 169.5 184.0 169.5H182.5Q181.5 170.0 180.5 170.0Q184.0 175.0 191.25 182.75Q198.5 190.5 205.0 194.5Q221.0 200.5 237.0 206.5Q253.0 212.5 268.5 218.0Q276.0 221.5 278.75 224.0Q281.5 226.5 281.5 228.5Q281.5 233.5 274.5 233.5Q272.5 233.5 269.75 232.75Q267.0 232.0 263.0 231.0H262.0Q259.5 230.0 253.75 228.0Q248.0 226.0 242.0 224.0Q235.0 221.5 227.25 219.0Q219.5 216.5 214.0 214.5L209.0 213.0Q198.0 208.5 189.5 206.0Q181.0 203.5 176.0 202.5L167.0 202.0L172.0 208.5Q177.5 214.5 187.75 221.5Q198.0 228.5 208.0 232.5L220.0 238.0Q236.5 244.5 249.75 251.0Q263.0 257.5 263.0 262.5V263.5Q260.5 267.5 255.5 267.5Q250.5 267.5 243.5 264.0L174.0 235.0L150.5 233.0Q151.5 233.5 152.25 234.75Q153.0 236.0 154.0 237.0Q161.0 244.5 175.25 257.25Q189.5 270.0 211.0 280.0L266.0 305.5Q273.0 309.0 277.25 312.0Q281.5 315.0 283.5 317.5Q283.5 316.5 283.5 315.0Q283.5 313.5 284.0 312.0Q284.0 309.0 284.25 306.0Q284.5 303.0 284.5 300.0Q285.0 294.5 285.0 289.75Q285.0 285.0 285.0 281.5ZM47.0 251.0H50.5L48.5 243.5Q44.5 247.0 41.75 250.0Q39.0 253.0 36.5 255.5Q36.0 256.5 34.5 258.0Q33.0 259.5 32.0 260.5Q31.5 262.0 31.0 263.25Q30.5 264.5 30.0 266.0Q29.5 267.5 28.75 269.25Q28.0 271.0 27.0 272.5L26.5 273.5L29.0 275.0Q29.0 274.0 29.25 273.75Q29.5 273.5 29.5 273.5L26.5 273.0V274.5H29.0Q29.0 274.5 29.25 273.75Q29.5 273.0 30.0 271.5Q30.0 269.5 30.0 267.5Q30.0 265.5 30.5 263.5Q30.5 262.0 30.5 260.25Q30.5 258.5 30.5 257.0V235.5L22.5 241.0L27.5 244.0Q30.0 245.0 32.5 246.5Q33.5 247.0 34.5 247.5Q35.5 248.0 36.0 248.5Q37.5 248.5 41.5 249.5Q43.0 250.0 44.25 250.25Q45.5 250.5 47.0 251.0Z" fill="black" /></svg>