<svg xmlns="http://www.w3.org/2000/svg" width="844.5" height="465.5" viewBox="0 0 844.5 465.5"><path d="M30.5 281.0 32.0 292.5 61.0 268.0 34.5 238.5 33.0 247.5Q31.0 252.0 30.5 258.0Q30.0 264.0 30.0 270.5Q30.0 274.5 30.5 276.0ZM187.0 195.5Q187.0 194.0 177.5 194.0Q170.0 194.0 168.5 193.0Q169.0 198.0 175.0 212.0L178.5 222.5L182.0 215.5Q184.0 208.5 185.5 202.75Q187.0 197.0 187.0 195.5ZM226.5 346.5V291.5Q226.5 266.0 225.75 252.0Q225.0 238.0 222.75 229.0Q220.5 220.0 215.0 210.0L207.0 191.5L198.5 219.0Q189.5 247.0 186.25 278.5Q183.0 310.0 183.0 339.0Q183.0 347.5 185.25 350.0Q187.5 352.5 191.0 353.5H194.0Q195.0 354.5 196.5 354.5Q201.5 354.5 206.75 353.5Q212.0 352.5 216.0 351.5ZM245.0 207.5 246.5 203.5Q248.0 196.5 248.0 195.0Q248.0 194.0 246.0 194.0Q244.0 194.0 238.5 194.0Q228.5 194.0 228.5 195.0Q228.5 195.5 229.0 196.25Q229.5 197.0 229.5 197.5L230.5 200.0Q232.0 203.5 233.75 208.0Q235.5 212.5 236.0 216.5Q237.0 218.5 237.75 220.5Q238.5 222.5 238.5 222.5Q240.0 222.5 245.0 207.5ZM324.5 165.0Q314.0 164.0 305.0 163.75Q296.0 163.5 287.5 163.0Q270.5 162.0 258.25 161.0Q246.0 160.0 237.5 160.0Q223.5 160.0 214.75 162.0Q206.0 164.0 194.5 167.5Q185.5 171.0 179.5 173.5Q173.5 176.0 173.5 177.0Q173.5 178.0 184.0 178.0H186.5Q191.0 177.5 200.25 177.5Q209.5 177.5 219.0 177.5H235.0L273.5 178.0L259.0 218.0Q254.5 232.0 250.75 252.0Q247.0 272.0 244.5 291.75Q242.0 311.5 242.0 325.0Q242.0 332.0 242.5 336.5Q243.0 341.0 243.5 341.0Q249.0 341.0 257.75 338.0Q266.5 335.0 274.25 330.75Q282.0 326.5 285.0 323.5Q287.0 321.0 288.75 312.5Q290.5 304.0 290.5 296.0Q290.5 286.0 292.5 279.25Q294.5 272.5 297.0 272.5Q299.0 272.5 306.0 277.25Q313.0 282.0 321.0 290.0Q327.0 297.0 339.5 305.5Q352.0 314.0 361.5 319.5Q371.5 324.0 380.5 326.5Q389.5 329.0 404.25 330.0Q419.0 331.0 447.0 331.0H506.5L524.0 304.0Q525.0 301.5 527.0 298.75Q529.0 296.0 530.0 294.0Q535.5 285.5 539.25 278.25Q543.0 271.0 544.0 268.5Q544.5 267.5 544.5 265.5Q544.5 255.5 528.0 240.5Q511.5 225.5 484.5 212.0Q464.5 201.0 452.25 197.5Q440.0 194.0 424.0 194.0Q409.0 194.0 402.75 193.25Q396.5 192.5 396.5 188.0Q396.5 186.0 401.5 180.0L403.0 178.5Q405.0 176.5 406.25 174.75Q407.5 173.0 408.0 171.5Q403.0 170.5 379.0 168.75Q355.0 167.0 324.5 165.0ZM176.0 120.5 175.5 121.0Q174.0 118.5 170.25 115.0Q166.5 111.5 163.5 110.5L162.0 109.5Q161.5 109.0 160.5 108.25Q159.5 107.5 159.0 107.5Q158.5 107.5 157.5 110.0Q156.5 112.5 155.5 116.5L154.5 122.0Q154.0 125.0 153.0 131.0Q152.0 136.0 150.75 141.0Q149.5 146.0 147.5 150.0Q146.0 156.5 145.0 162.25Q144.0 168.0 144.0 171.0Q144.0 172.5 145.0 172.5Q149.5 172.5 166.5 163.0Q179.0 157.0 191.0 152.5Q203.0 148.0 207.5 148.0Q219.0 148.0 219.0 146.0Q219.0 141.5 202.5 135.5Q181.5 127.0 176.0 120.5ZM472.0 138.0Q469.0 142.0 460.75 150.75Q452.5 159.5 444.25 166.75Q436.0 174.0 432.5 174.0Q429.5 174.0 429.5 175.5Q429.5 176.5 433.5 177.25Q437.5 178.0 441.5 178.0Q446.5 178.0 450.5 178.0Q454.5 178.0 457.0 178.5H460.5Q461.0 178.5 461.75 174.75Q462.5 171.0 464.0 166.0Q465.0 159.0 467.5 151.25Q470.0 143.5 472.0 138.0ZM535.0 94.5Q532.5 87.0 530.0 81.0Q527.5 75.0 526.5 75.0Q525.5 75.0 520.25 84.75Q515.0 94.5 500.5 120.0L493.0 133.0Q487.0 144.0 483.25 154.75Q479.5 165.5 479.5 172.5Q479.5 178.0 481.0 178.0Q484.5 178.0 486.75 181.5Q489.0 185.0 489.0 189.5Q490.5 192.5 500.5 201.0Q510.5 209.5 524.0 218.0Q537.5 226.5 548.0 231.0Q548.0 219.0 547.5 200.25Q547.0 181.5 545.5 161.25Q544.0 141.0 541.5 123.25Q539.0 105.5 535.0 94.5ZM586.5 50.0Q586.5 47.5 580.25 46.75Q574.0 46.0 554.5 46.0Q540.5 46.0 534.25 46.25Q528.0 46.5 528.0 48.5Q528.0 49.5 530.5 52.75Q533.0 56.0 537.0 61.5Q540.0 65.5 545.0 76.0Q550.0 86.5 553.0 97.0L558.5 114.5L566.5 93.0Q571.5 79.5 576.75 69.75Q582.0 60.0 584.0 58.0Q586.5 55.5 586.5 50.0ZM686.5 82.5Q686.5 82.0 678.5 81.75Q670.5 81.5 659.0 81.5Q648.0 81.5 640.75 81.75Q633.5 82.0 633.5 82.0Q633.5 82.5 635.75 87.75Q638.0 93.0 641.0 98.5Q646.5 104.5 651.0 115.0Q655.5 125.5 657.5 134.0Q659.5 141.0 660.0 143.25Q660.5 145.5 660.5 145.5Q662.5 141.0 664.5 136.5Q666.5 132.0 668.0 127.5Q669.0 125.5 672.0 118.75Q675.0 112.0 678.25 104.0Q681.5 96.0 684.0 89.75Q686.5 83.5 686.5 82.5ZM791.0 53.0Q793.5 48.0 795.75 43.0Q798.0 38.0 798.5 35.5H797.5Q795.5 35.5 792.75 35.0Q790.0 34.5 786.0 34.5Q781.5 34.5 775.75 35.0Q770.0 35.5 764.0 36.5H762.0L730.0 38.5L741.5 56.5Q747.5 65.5 753.75 78.75Q760.0 92.0 762.0 101.5L765.0 113.5L771.0 97.0Q774.5 85.5 780.5 72.75Q786.5 60.0 791.0 53.0ZM156.0 354.5Q151.5 352.0 147.75 349.75Q144.0 347.5 143.5 347.5V376.5Q143.5 387.0 144.0 395.25Q144.5 403.5 145.0 405.0Q148.0 403.0 153.25 395.0Q158.5 387.0 162.75 378.5Q167.0 370.0 167.0 366.5Q167.0 364.5 163.75 361.0Q160.5 357.5 156.0 354.5ZM344.5 330.5Q341.0 328.0 333.0 322.5Q325.0 317.0 318.0 310.5L307.0 300.5L306.5 305.0Q305.0 319.0 303.25 334.0Q301.5 349.0 299.0 358.0V359.5Q298.0 362.5 298.0 364.0Q298.0 364.5 298.25 364.75Q298.5 365.0 298.5 365.0Q299.5 364.5 302.0 363.0Q304.5 361.5 308.0 357.0Q312.0 353.0 319.75 347.5Q327.5 342.0 335.0 338.0Q341.0 335.5 344.0 334.0Q347.0 332.5 348.0 332.0Q347.5 331.5 346.25 331.25Q345.0 331.0 344.5 330.5ZM559.5 338.0Q559.5 330.5 553.0 314.5L548.0 298.0L525.5 331.5Q515.0 347.0 512.0 352.5Q513.0 351.5 514.5 350.75Q516.0 350.0 518.0 348.5Q526.0 345.5 534.0 343.25Q542.0 341.0 548.0 341.0Q552.0 341.0 555.5 340.25Q559.0 339.5 559.5 338.0ZM703.0 335.5 697.5 324.5Q694.0 317.5 691.0 309.0Q688.0 300.5 686.5 295.5Q686.0 294.5 685.75 293.25Q685.5 292.0 685.5 292.0Q683.5 292.5 679.75 299.5Q676.0 306.5 668.5 320.5Q662.0 330.5 656.5 339.75Q651.0 349.0 648.5 353.5Q650.0 352.5 652.25 351.5Q654.5 350.5 656.5 348.5Q662.5 346.0 672.5 343.0Q682.5 340.0 689.5 338.5ZM806.0 16.5Q813.0 10.0 819.0 10.0Q824.5 10.0 824.5 16.5Q824.5 20.0 821.0 28.25Q817.5 36.5 811.0 50.0Q805.0 61.0 797.0 78.75Q789.0 96.5 783.0 111.0Q778.0 123.0 775.25 133.25Q772.5 143.5 771.25 157.25Q770.0 171.0 769.5 193.25Q769.0 215.5 769.0 252.0V357.0L799.5 369.0Q834.5 383.0 834.5 387.5Q834.5 391.0 829.0 391.0Q824.0 391.0 806.5 386.25Q789.0 381.5 764.0 373.5Q735.0 363.0 720.0 358.75Q705.0 354.5 697.0 354.5Q693.0 354.5 685.25 356.5Q677.5 358.5 671.0 361.5Q664.5 364.5 664.5 368.5Q664.5 372.0 667.0 376.0Q670.5 379.5 670.5 382.5Q670.5 386.5 665.5 386.5Q663.5 386.5 661.25 386.0Q659.0 385.5 656.0 385.0Q654.5 384.5 652.5 384.5Q650.5 384.5 649.5 384.0Q646.0 383.5 642.75 383.25Q639.5 383.0 637.0 383.0Q633.0 383.0 630.0 386.5Q628.5 391.5 625.5 394.0Q622.5 396.5 620.0 396.5Q613.5 395.5 613.5 387.0Q613.5 385.5 613.5 384.0Q613.5 382.5 614.0 380.5Q615.0 377.5 615.0 375.5Q615.0 372.5 607.25 369.0Q599.5 365.5 588.5 362.5Q577.5 359.5 567.5 357.75Q557.5 356.0 553.5 356.0Q541.0 356.0 529.0 362.25Q517.0 368.5 499.5 381.5Q490.5 388.0 484.25 391.75Q478.0 395.5 474.5 395.5Q469.0 395.5 469.0 390.0Q469.0 384.0 481.0 367.0Q486.0 360.5 489.5 354.5Q493.0 348.5 493.0 348.0Q493.0 347.5 472.75 347.25Q452.5 347.0 424.5 347.0Q400.0 347.0 385.0 347.5Q370.0 348.0 360.75 349.25Q351.5 350.5 345.5 352.75Q339.5 355.0 332.5 359.0Q325.0 363.5 316.25 371.25Q307.5 379.0 303.5 384.5Q293.5 400.5 287.5 400.5Q281.5 400.5 281.5 387.0Q281.5 384.5 281.75 381.25Q282.0 378.0 282.0 374.5L282.5 372.0V369.0Q283.0 365.0 283.25 361.25Q283.5 357.5 283.5 355.0Q283.5 347.5 280.0 347.5Q276.0 347.5 267.5 351.0Q265.5 351.5 263.75 352.0Q262.0 352.5 259.5 353.0Q251.5 355.5 248.0 357.5Q244.5 359.5 243.75 364.75Q243.0 370.0 243.0 382.5Q243.0 394.5 240.5 403.0Q238.0 411.5 234.5 411.5Q231.0 411.5 228.75 403.5Q226.5 395.5 226.5 383.5V364.0L207.0 371.5Q194.0 375.5 189.25 379.25Q184.5 383.0 184.0 390.0Q183.5 398.0 180.0 402.75Q176.5 407.5 173.0 407.5Q167.5 407.5 167.0 399.5Q165.0 402.0 159.75 413.0Q154.5 424.0 150.5 434.0Q147.0 444.0 143.75 449.75Q140.5 455.5 137.0 455.5Q128.0 455.5 128.0 386.5V367.0Q128.0 344.5 129.5 330.5Q131.0 316.5 133.0 316.5Q134.0 316.5 140.25 321.0Q146.5 325.5 154.0 331.5L165.0 342.5L166.5 316.5V303.5Q166.5 295.0 166.5 289.25Q166.5 283.5 165.5 283.0Q164.5 282.0 150.25 281.25Q136.0 280.5 115.5 280.5Q89.0 280.5 74.5 283.25Q60.0 286.0 51.5 294.25Q43.0 302.5 34.5 319.0Q29.0 328.0 23.25 335.25Q17.5 342.5 15.0 342.5Q12.0 342.5 11.0 338.25Q10.0 334.0 10.0 327.5Q10.0 324.0 10.25 319.5Q10.5 315.0 11.0 311.0Q12.5 294.0 13.75 277.0Q15.0 260.0 17.0 243.5Q18.0 227.5 21.0 215.75Q24.0 204.0 26.5 203.5Q28.5 204.0 34.5 210.5Q40.5 217.0 47.0 225.5Q59.0 242.0 70.0 251.25Q81.0 260.5 95.25 264.0Q109.5 267.5 131.0 267.5H167.0V251.5Q167.0 241.5 163.25 228.0Q159.5 214.5 154.75 204.25Q150.0 194.0 146.0 194.0Q145.5 194.0 143.25 196.5Q141.0 199.0 138.5 201.5Q133.0 209.5 130.0 209.5Q123.5 209.5 123.5 197.5Q123.5 186.0 129.0 164.0Q133.0 150.0 136.25 132.5Q139.5 115.0 141.0 105.5Q142.0 94.0 144.5 86.75Q147.0 79.5 149.5 79.5Q150.5 79.5 158.0 84.5Q165.5 89.5 174.0 97.0Q191.5 110.5 213.75 122.0Q236.0 133.5 257.5 140.75Q279.0 148.0 293.5 148.0Q305.0 148.0 328.5 149.75Q352.0 151.5 375.0 153.5L428.5 158.5L459.0 128.5Q472.0 115.5 485.25 101.0Q498.5 86.5 504.5 78.5L518.5 62.5L506.0 50.5L488.0 30.5L563.5 28.5Q576.5 28.0 587.25 28.0Q598.0 28.0 603.0 28.0Q609.5 28.0 612.0 28.5L612.5 30.5Q612.5 32.5 609.25 40.5Q606.0 48.5 601.5 58.5Q589.0 82.5 581.5 100.25Q574.0 118.0 570.25 134.75Q566.5 151.5 565.25 172.25Q564.0 193.0 564.0 223.0Q564.0 262.5 565.75 286.75Q567.5 311.0 573.0 324.5Q578.5 338.0 589.0 344.5Q599.5 351.0 616.5 354.5Q618.0 355.0 622.0 355.0Q630.0 355.0 636.5 340.5Q639.5 335.0 641.25 329.25Q643.0 323.5 644.25 313.0Q645.5 302.5 645.75 284.0Q646.0 265.5 646.0 235.0Q646.0 199.0 644.5 175.25Q643.0 151.5 639.5 136.25Q636.0 121.0 629.75 110.0Q623.5 99.0 614.0 88.0Q609.0 83.0 605.75 78.25Q602.5 73.5 602.5 71.5L603.0 69.0Q605.5 69.0 613.25 68.75Q621.0 68.5 630.5 68.5Q646.0 67.5 665.0 67.25Q684.0 67.0 696.5 67.0Q710.5 67.0 711.5 70.0Q711.5 72.0 708.25 77.75Q705.0 83.5 701.0 90.5Q678.0 131.5 670.0 179.5Q662.0 227.5 662.0 275.0Q662.0 294.0 663.5 294.0Q664.5 294.0 667.25 288.5Q670.0 283.0 674.0 274.0Q678.0 265.5 682.5 258.75Q687.0 252.0 689.0 252.0Q691.5 252.0 694.75 259.75Q698.0 267.5 699.0 278.0Q702.0 296.5 710.25 313.25Q718.5 330.0 728.5 340.5Q738.5 351.0 747.5 351.0Q749.0 351.0 749.75 322.5Q750.5 294.0 750.5 234.0Q750.5 184.5 749.25 153.25Q748.0 122.0 744.25 103.25Q740.5 84.5 733.75 72.5Q727.0 60.5 716.5 49.0Q708.0 40.5 701.75 33.0Q695.5 25.5 695.5 25.0Q695.5 23.5 711.75 21.75Q728.0 20.0 750.0 20.0Q769.5 20.0 786.25 18.5Q803.0 17.0 806.0 16.5Z" fill="black" /></svg>