<svg xmlns="http://www.w3.org/2000/svg" width="707.5" height="388.0" viewBox="0 0 707.5 388.0"><path d="M421.0 295.0 414.5 293.5Q407.0 292.0 399.75 290.25Q392.5 288.5 389.0 287.5Q388.5 286.5 387.5 286.5Q386.5 286.5 385.5 286.0Q386.0 289.5 389.0 298.25Q392.0 307.0 395.75 317.5Q399.5 328.0 403.0 336.75Q406.5 345.5 408.0 348.5Q410.0 345.5 417.5 337.75Q425.0 330.0 434.25 321.25Q443.5 312.5 451.0 306.25Q458.5 300.0 460.5 300.0Q463.5 300.0 463.5 297.0Q463.5 297.0 462.5 296.75Q461.5 296.5 460.5 296.5Q459.0 296.5 457.5 296.75Q456.0 297.0 454.5 297.5Q453.0 298.0 447.0 298.0Q442.0 298.0 434.75 297.25Q427.5 296.5 421.0 295.0ZM73.0 201.0Q68.0 200.0 58.0 194.25Q48.0 188.5 40.5 182.5L26.5 171.0V240.5L36.5 233.0Q43.0 229.0 52.25 223.5Q61.5 218.0 68.0 215.0Q84.0 208.0 84.0 206.0Q84.0 203.5 73.0 201.0ZM300.5 168.0Q305.5 161.5 308.0 156.5Q304.0 159.0 295.5 164.25Q287.0 169.5 277.5 176.0L253.0 193.0H263.5Q276.5 193.0 280.0 195.25Q283.5 197.5 283.5 206.0Q283.5 209.0 284.0 210.0Q288.0 208.5 288.0 199.5Q288.0 194.5 291.75 185.25Q295.5 176.0 300.5 168.0ZM434.5 104.5Q413.5 102.0 401.0 100.5Q388.5 99.0 381.5 99.0Q376.5 99.0 374.25 99.75Q372.0 100.5 370.5 102.5Q370.0 103.0 369.25 104.0Q368.5 105.0 367.5 106.5Q365.0 110.0 360.5 115.25Q356.0 120.5 351.5 125.5L350.0 127.5Q328.5 152.5 315.75 174.5Q303.0 196.5 303.0 207.0Q303.0 213.5 307.0 215.0Q311.0 217.5 311.0 222.0Q311.0 224.5 310.0 225.5Q312.5 231.0 321.5 242.5Q330.5 254.0 343.0 267.0Q354.0 278.0 362.5 287.25Q371.0 296.5 374.5 301.0Q373.5 298.5 371.75 294.75Q370.0 291.0 367.5 286.5Q365.5 281.0 364.25 276.5Q363.0 272.0 363.0 269.0Q363.0 262.0 368.0 262.0Q372.0 262.0 376.0 266.0Q382.0 269.5 394.75 273.75Q407.5 278.0 421.0 281.25Q434.5 284.5 441.5 284.5Q447.0 284.5 452.25 283.5Q457.5 282.5 464.5 281.5L467.5 281.0Q479.5 278.5 497.75 273.5Q516.0 268.5 537.5 262.0Q559.0 255.5 580.0 249.0Q601.0 242.5 618.25 236.75Q635.5 231.0 645.75 227.0Q656.0 223.0 655.5 222.0Q654.5 220.0 641.5 212.0Q628.5 204.0 608.5 192.0Q588.5 180.0 566.0 167.25Q543.5 154.5 523.0 143.25Q502.5 132.0 489.0 125.0Q475.0 117.5 459.0 111.75Q443.0 106.0 434.5 104.5ZM157.0 48.0H128.0Q115.5 48.0 107.25 48.25Q99.0 48.5 99.0 48.5Q99.0 49.5 103.25 59.25Q107.5 69.0 114.0 81.5L127.0 108.5L131.0 96.0Q133.5 87.5 138.75 78.0Q144.0 68.5 148.0 62.5Q155.0 52.0 157.0 48.0ZM436.5 53.0 435.5 51.5Q432.0 46.0 429.25 41.75Q426.5 37.5 426.5 37.5Q425.0 37.5 418.0 44.25Q411.0 51.0 402.25 60.25Q393.5 69.5 387.0 77.0Q380.5 84.5 380.5 86.0Q380.5 86.0 387.5 86.25Q394.5 86.5 404.0 86.5Q423.0 86.5 441.0 90.5Q459.0 94.5 476.5 100.5Q472.5 97.5 466.5 90.75Q460.5 84.0 454.0 76.0Q447.5 68.0 442.75 61.5Q438.0 55.0 436.5 53.0ZM412.0 27.0Q416.0 20.0 419.5 15.0Q423.0 10.0 423.0 10.0Q423.0 10.0 430.0 17.25Q437.0 24.5 443.5 35.0Q454.5 51.5 468.75 69.0Q483.0 86.5 497.0 100.75Q511.0 115.0 521.0 122.5Q526.5 126.0 541.25 135.0Q556.0 144.0 576.5 156.25Q597.0 168.5 619.0 181.5Q640.5 194.0 658.25 205.75Q676.0 217.5 686.75 226.0Q697.5 234.5 697.5 236.5Q696.0 240.0 691.5 240.0Q688.0 240.0 682.0 237.5Q682.0 237.0 680.0 237.0Q673.0 237.0 654.75 241.25Q636.5 245.5 612.5 252.5Q588.5 259.5 563.75 267.75Q539.0 276.0 518.5 283.75Q498.0 291.5 487.0 297.5Q479.0 302.5 466.0 313.5Q453.0 324.5 440.25 336.5Q427.5 348.5 418.75 358.25Q410.0 368.0 410.0 371.0Q410.0 378.0 402.5 378.0Q399.5 378.0 397.5 374.75Q395.5 371.5 395.5 367.0Q395.5 364.5 393.5 356.75Q391.5 349.0 388.75 340.0Q386.0 331.0 383.0 324.5Q380.0 318.0 377.5 318.0Q376.5 318.0 376.5 318.5Q374.5 319.0 372.5 319.0Q366.5 319.0 366.5 313.0Q366.5 310.5 359.0 302.0Q351.5 293.5 339.5 282.0Q327.5 270.5 314.25 258.5Q301.0 246.5 289.0 236.75Q277.0 227.0 270.0 222.5Q260.5 216.5 252.5 214.0Q244.5 211.5 231.75 211.0Q219.0 210.5 194.5 210.5H140.5L138.0 261.5Q136.0 305.5 130.5 305.5Q124.5 305.5 122.0 248.5L120.5 209.5L93.0 221.0Q76.0 229.0 58.75 237.75Q41.5 246.5 25.5 258.0Q20.5 261.5 17.25 263.75Q14.0 266.0 13.0 266.0Q10.0 266.0 10.0 257.0Q10.0 249.5 10.5 235.75Q11.0 222.0 11.5 206.0Q12.0 190.0 12.75 175.5Q13.5 161.0 14.0 151.25Q14.5 141.5 15.0 141.0L17.0 140.5Q19.0 140.5 24.5 145.75Q30.0 151.0 36.5 158.0Q51.0 173.5 70.5 183.25Q90.0 193.0 107.5 193.0H123.5V169.5Q123.5 155.0 118.5 135.5Q113.5 116.0 105.0 96.0Q96.5 76.0 86.5 59.5L85.5 57.5Q81.0 49.5 77.5 43.5Q74.0 37.5 74.0 35.5V34.5Q75.0 33.5 84.25 33.0Q93.5 32.5 106.0 32.5Q122.0 32.5 140.25 33.0Q158.5 33.5 172.0 34.5Q185.5 35.5 186.5 37.0V38.0Q186.5 40.0 181.5 46.5Q176.5 53.0 169.5 60.0Q154.5 77.0 146.25 101.5Q138.0 126.0 138.0 160.0V191.5L169.5 195.5Q183.0 197.0 192.5 197.0Q202.0 197.0 210.0 194.5Q218.0 192.0 229.0 186.5Q244.5 179.0 264.0 167.25Q283.5 155.5 302.0 142.5Q320.5 129.5 333.5 118.75Q346.5 108.0 348.5 102.5Q351.0 96.5 360.25 85.75Q369.5 75.0 379.0 66.0Q389.0 57.5 398.75 45.75Q408.5 34.0 412.0 27.0Z" fill="black" /></svg>