<svg xmlns="http://www.w3.org/2000/svg" width="928.5" height="390.5" viewBox="0 0 928.5 390.5"><path d="M39.5 286.0Q37.0 283.5 35.5 283.5Q34.0 283.5 32.0 285.5Q31.0 286.5 30.25 291.5Q29.5 296.5 29.5 303.5Q29.5 308.5 29.5 313.5Q29.5 318.5 30.0 320.0Q35.5 317.5 44.0 312.75Q52.5 308.0 59.5 303.5Q66.5 299.0 68.0 297.5L57.0 294.5Q51.5 293.0 46.5 290.5Q41.5 288.0 39.5 286.0ZM77.5 248.5Q77.5 247.5 76.5 247.5Q75.5 247.5 75.5 248.5Q75.5 249.5 76.5 249.5Q77.5 249.5 77.5 248.5ZM68.5 144.5Q67.0 143.5 61.75 141.5Q56.5 139.5 50.5 137.5L34.0 131.0L31.0 147.0V147.5Q30.5 152.0 30.5 155.75Q30.5 159.5 30.5 163.0V165.5Q35.0 164.5 43.75 160.0Q52.5 155.5 60.25 150.75Q68.0 146.0 68.5 144.5ZM109.0 223.0Q109.0 211.0 105.0 211.0H102.0Q89.5 211.5 82.5 215.75Q75.5 220.0 75.5 224.5Q75.5 228.5 81.0 231.75Q86.5 235.0 97.5 235.0Q105.5 235.0 107.25 233.25Q109.0 231.5 109.0 223.0ZM109.0 270.5Q109.0 262.0 107.75 259.0Q106.5 256.0 104.0 256.0Q94.0 256.0 85.75 262.25Q77.5 268.5 77.5 276.0Q77.5 283.0 86.75 285.5Q96.0 288.0 102.0 288.0Q106.5 288.0 107.75 284.0Q109.0 280.0 109.0 270.5ZM233.5 298.0Q230.0 298.5 222.5 299.5Q215.0 300.5 203.5 302.5L183.0 306.0L198.5 328.0Q201.5 331.5 204.0 334.75Q206.5 338.0 207.0 339.5Q209.5 336.5 214.75 328.75Q220.0 321.0 225.5 312.25Q231.0 303.5 233.5 298.0ZM170.5 163.0 166.0 149.0Q159.0 149.5 151.0 150.0Q143.0 150.5 134.5 151.0Q110.0 151.0 97.25 152.5Q84.5 154.0 80.0 158.75Q75.5 163.5 75.5 172.5Q75.5 183.0 80.25 186.5Q85.0 190.0 99.0 190.0Q106.0 190.0 107.5 188.0Q109.0 186.0 109.0 175.0Q109.0 153.5 117.0 153.5Q123.5 153.5 126.0 175.5Q127.0 185.0 127.5 188.25Q128.0 191.5 131.5 191.5Q132.5 191.5 133.25 191.25Q134.0 191.0 135.0 191.0Q136.0 190.5 139.0 190.5H146.5Q166.0 190.5 166.0 197.0Q166.0 204.0 146.5 206.0L127.0 208.0V237.5L148.5 240.5H152.0Q161.5 241.5 166.5 242.5Q171.5 243.5 171.5 246.0Q171.5 250.0 159.0 252.5Q153.0 254.5 145.0 255.25Q137.0 256.0 131.5 256.0Q125.5 256.0 125.5 261.5Q125.5 264.0 126.0 265.0V272.0L127.0 287.5L169.5 286.5Q188.0 286.0 207.0 284.25Q226.0 282.5 234.0 280.5L251.5 276.0L247.5 230.5Q247.0 211.0 245.25 196.25Q243.5 181.5 241.0 180.5V180.0Q238.0 181.5 235.0 196.5Q232.0 211.5 230.0 233.0Q229.5 251.0 227.0 261.0Q224.5 271.0 221.5 271.0Q214.0 271.0 214.0 235.0Q214.0 210.0 212.25 194.25Q210.5 178.5 208.0 178.5Q206.0 178.5 203.5 187.75Q201.0 197.0 199.5 211.0Q198.0 225.0 198.0 240.0Q198.0 255.0 195.75 264.5Q193.5 274.0 190.0 274.0Q187.0 274.0 184.25 265.25Q181.5 256.5 181.5 244.5Q181.5 231.0 180.0 215.75Q178.5 200.5 176.0 186.25Q173.5 172.0 170.5 163.0ZM241.5 150.0Q230.0 147.0 218.5 145.0Q207.0 143.0 202.0 143.0Q199.0 143.0 196.5 143.75Q194.0 144.5 190.0 145.5Q189.0 146.0 188.0 146.0Q187.0 146.0 185.5 146.5Q182.5 147.5 172.0 148.5L187.0 156.5Q191.0 159.5 194.25 160.75Q197.5 162.0 198.5 162.0Q200.0 162.0 203.0 158.0Q208.0 151.5 211.5 151.5Q215.5 151.5 220.5 156.5Q224.5 162.0 228.5 162.0Q233.0 162.0 235.0 156.5Q238.5 150.5 241.5 150.0ZM316.5 191.0Q305.5 184.0 294.75 179.0Q284.0 174.0 282.5 174.0Q275.5 174.0 270.75 192.0Q266.0 210.0 266.0 236.5Q266.0 247.5 266.0 255.75Q266.0 264.0 265.0 266.5Q267.0 265.5 272.0 262.25Q277.0 259.0 283.5 254.0Q293.5 245.5 308.75 233.75Q324.0 222.0 334.5 216.5Q339.0 214.0 342.25 211.5Q345.5 209.0 345.5 208.5Q345.5 207.5 337.0 202.5Q328.5 197.5 316.5 191.0ZM378.0 303.0Q368.0 300.5 360.0 298.5Q352.0 296.5 351.5 296.5Q350.5 296.5 346.5 324.0V331.5Q346.0 333.0 346.0 335.5V338.5Q351.5 336.5 364.0 333.75Q376.5 331.0 392.25 328.0Q408.0 325.0 423.5 322.75Q439.0 320.5 450.0 319.5Q461.0 317.5 468.25 316.5Q475.5 315.5 475.5 315.5Q462.5 315.5 444.25 313.75Q426.0 312.0 408.0 309.0Q390.0 306.0 378.0 303.0ZM216.5 103.5Q214.0 96.5 213.0 96.5Q212.0 96.5 207.75 102.0Q203.5 107.5 199.0 114.75Q194.5 122.0 192.0 127.0Q194.0 127.0 195.5 127.5L201.5 128.0Q204.5 128.5 207.5 128.75Q210.5 129.0 214.0 129.5Q216.0 129.5 218.0 129.5Q220.0 129.5 221.5 130.0Q223.0 130.0 224.25 130.25Q225.5 130.5 226.5 130.5Q235.0 130.5 235.0 129.5Q235.0 127.5 228.0 121.0Q224.5 117.5 221.25 112.5Q218.0 107.5 216.5 103.5ZM268.0 161.5Q268.0 159.0 261.75 156.5Q255.5 154.0 246.5 151.5Q247.5 152.0 248.0 152.5Q248.5 153.0 249.0 154.0Q249.5 154.5 250.0 155.0Q250.5 155.5 251.0 156.0Q257.5 162.5 264.5 162.5Q268.0 162.5 268.0 161.5ZM371.0 95.0Q371.5 94.5 371.5 93.75Q371.5 93.0 371.5 93.0Q371.5 92.0 360.0 92.0Q355.5 92.0 352.75 92.5Q350.0 93.0 349.0 93.5L349.5 95.5Q350.5 98.0 352.0 106.25Q353.5 114.5 355.25 123.75Q357.0 133.0 357.5 138.5Q359.0 133.0 361.75 123.5Q364.5 114.0 367.5 105.25Q370.5 96.5 371.0 95.0ZM436.5 151.0Q436.5 149.5 431.0 149.5Q427.5 149.5 426.5 152.25Q425.5 155.0 425.5 162.5V174.5Q427.5 173.5 430.0 169.0Q432.5 164.5 434.5 159.0Q436.5 153.5 436.5 151.0ZM517.0 89.0 517.5 88.5Q516.5 88.0 513.75 87.75Q511.0 87.5 506.0 87.5Q501.0 87.5 498.5 88.0Q496.0 88.5 495.0 88.5V89.5Q496.0 92.0 497.25 99.0Q498.5 106.0 499.5 113.0L501.0 120.5Q502.0 128.5 502.75 131.5Q503.5 134.5 503.5 134.5Q506.5 123.0 510.0 111.5Q513.5 100.0 517.0 89.0ZM553.5 202.5Q552.0 199.5 549.0 197.5V198.0Q550.0 201.5 553.5 202.5ZM585.5 220.0V219.5Q579.0 218.0 564.5 217.0H558.0Q551.5 217.0 549.75 217.75Q548.0 218.5 548.0 221.0Q548.0 224.5 550.5 225.5Q553.0 226.5 561.5 226.5Q571.0 226.5 578.0 224.5Q585.0 222.5 586.0 220.5ZM581.5 131.5Q572.0 129.5 563.5 127.75Q555.0 126.0 550.5 124.0Q548.5 122.0 547.0 122.0Q543.5 122.0 543.5 138.5Q543.5 147.5 544.5 148.5Q545.0 148.5 545.5 148.25Q546.0 148.0 546.5 148.0Q548.5 147.0 549.5 147.0Q562.0 143.5 574.5 140.5Q587.0 137.5 599.5 134.5Q597.5 134.0 592.5 133.25Q587.5 132.5 581.5 131.5ZM606.5 210.5H606.0Q603.0 210.5 603.0 213.0Q605.5 213.0 606.5 210.5ZM529.0 122.0Q528.0 117.5 526.75 114.0Q525.5 110.5 525.5 110.5Q522.5 111.5 520.0 125.5Q517.5 139.5 515.5 160.25Q513.5 181.0 512.25 202.5Q511.0 224.0 510.25 241.0Q509.5 258.0 509.5 264.0Q510.0 266.5 510.0 268.75Q510.0 271.0 510.0 273.5L511.5 301.5L549.5 303.5Q566.0 304.5 593.0 305.5Q620.0 306.5 651.5 307.0Q683.0 307.5 712.5 307.5Q728.5 307.5 743.25 307.5Q758.0 307.5 770.0 308.0H796.5Q808.5 308.0 808.5 308.0Q803.0 304.5 787.75 298.5Q772.5 292.5 751.25 285.75Q730.0 279.0 706.5 272.25Q683.0 265.5 660.75 260.0Q638.5 254.5 620.5 251.0Q602.5 247.5 592.5 247.5Q582.5 247.5 574.75 250.25Q567.0 253.0 561.5 257.5Q555.0 262.5 550.5 265.75Q546.0 269.0 543.0 269.0Q539.0 269.0 537.75 265.5Q536.5 262.0 536.5 255.0Q536.5 247.5 528.0 247.5Q515.5 247.5 514.0 239.5Q514.0 236.5 516.0 232.5Q518.0 228.5 521.0 224.0Q522.5 221.5 523.75 219.25Q525.0 217.0 525.0 215.0Q525.0 213.0 522.5 209.5Q520.5 204.5 519.5 201.75Q518.5 199.0 518.5 197.0Q518.5 191.5 527.0 191.5H531.0Q534.5 191.5 535.0 182.5Q535.0 181.0 535.5 180.0Q535.5 179.5 535.75 179.0Q536.0 178.5 536.0 178.0Q536.0 174.0 535.0 174.0Q527.5 174.0 527.5 164.0Q527.5 162.5 527.75 160.75Q528.0 159.0 528.0 157.0Q528.5 156.0 528.5 154.5Q528.5 153.0 529.0 152.0Q530.0 148.5 530.0 144.25Q530.0 140.0 530.0 136.0Q530.0 132.0 530.0 128.5Q530.0 125.0 529.0 122.0ZM766.5 147.0 778.0 143.0 729.5 141.5H709.5Q685.5 141.5 662.25 142.5Q639.0 143.5 627.5 145.0Q608.0 148.0 589.75 152.25Q571.5 156.5 559.75 160.5Q548.0 164.5 548.0 167.0Q548.0 170.0 555.0 177.5Q562.0 185.0 570.25 191.5Q578.5 198.0 583.0 198.0Q591.5 198.0 610.0 193.75Q628.5 189.5 651.25 183.25Q674.0 177.0 697.0 169.75Q720.0 162.5 738.75 156.5Q757.5 150.5 766.5 147.0ZM838.0 149.5Q837.5 145.0 832.0 143.0H831.0Q829.5 143.0 816.75 146.75Q804.0 150.5 784.5 156.75Q765.0 163.0 743.0 171.0Q686.0 191.0 653.25 204.25Q620.5 217.5 620.5 221.0Q620.5 222.5 633.25 228.25Q646.0 234.0 667.0 242.0Q688.0 250.0 712.75 259.0Q737.5 268.0 762.0 276.0Q786.5 284.0 806.0 289.5Q821.0 294.0 832.75 298.75Q844.5 303.5 846.0 306.0Q846.5 306.5 847.0 307.25Q847.5 308.0 847.5 308.0Q849.0 307.0 849.5 298.0Q850.0 289.0 850.0 273.5Q850.0 259.0 849.0 240.25Q848.0 221.5 845.5 200.0L845.0 192.5Q844.5 188.5 843.75 184.0Q843.0 179.5 842.5 175.5Q841.0 166.5 840.0 159.5Q839.0 152.5 838.0 149.5ZM794.0 74.5Q790.5 66.5 788.25 61.25Q786.0 56.0 785.0 56.0Q784.0 56.0 778.25 61.5Q772.5 67.0 766.5 73.5Q760.5 80.0 758.0 83.5Q762.0 84.5 770.25 86.25Q778.5 88.0 787.25 89.25Q796.0 90.5 801.0 91.0Q799.5 85.0 794.0 74.5ZM859.0 156.0Q856.0 152.0 854.5 151.5V152.5Q854.5 154.5 854.75 156.0Q855.0 157.5 855.5 159.5Q856.5 163.0 857.0 166.25Q857.5 169.5 858.0 172.0L859.0 175.0V174.5Q859.0 174.0 859.25 173.5Q859.5 173.0 859.5 172.5Q861.0 168.0 861.0 163.0Q861.0 158.0 859.0 156.0ZM875.0 131.0Q871.5 129.0 861.5 129.0H856.5L860.0 132.5Q862.5 135.5 864.5 137.5Q866.5 139.5 867.5 139.5Q869.5 139.5 872.25 136.0Q875.0 132.5 875.0 131.0ZM402.0 143.5Q397.0 133.0 397.0 130.0Q397.0 126.0 401.0 126.0Q401.5 126.0 404.5 127.0Q414.0 130.0 423.75 131.0Q433.5 132.0 443.5 132.0H449.5Q474.0 132.0 475.0 139.0Q474.0 144.0 463.0 147.5Q452.5 150.5 444.5 175.5Q436.5 200.5 432.0 239.5L427.0 290.5H420.0L415.0 223.0Q413.0 190.5 409.5 170.75Q406.0 151.0 402.0 143.5ZM761.5 53.5Q770.5 45.0 778.0 36.75Q785.5 28.5 790.5 23.0L803.5 10.0Q803.5 10.0 805.0 13.25Q806.5 16.5 806.5 17.5Q806.5 19.0 806.5 20.75Q806.5 22.5 806.0 25.0Q805.5 27.5 805.5 30.5Q805.5 33.5 805.0 37.0Q804.5 39.0 804.25 41.0Q804.0 43.0 804.0 45.5Q804.0 76.5 833.0 100.0Q840.0 106.0 845.25 108.5Q850.5 111.0 858.75 111.75Q867.0 112.5 883.0 112.5Q899.5 112.5 909.0 115.25Q918.5 118.0 918.5 120.5L917.5 122.5Q916.0 124.5 911.25 126.75Q906.5 129.0 902.5 130.0Q899.5 130.5 895.75 134.0Q892.0 137.5 889.5 141.5L888.0 143.5Q885.0 148.5 885.0 150.5Q885.0 153.0 890.5 158.0Q893.5 162.0 894.75 165.75Q896.0 169.5 896.0 172.0Q896.0 178.5 890.5 178.5Q886.5 178.5 882.0 174.0Q877.5 169.5 875.5 169.5Q874.0 169.5 872.0 181.5Q870.0 193.5 868.75 212.0Q867.5 230.5 867.5 250.5V267.5L869.0 318.0L848.5 321.5Q843.5 322.0 819.75 322.75Q796.0 323.5 760.75 323.75Q725.5 324.0 685.5 324.0H667.0Q555.0 324.0 479.0 331.5Q403.0 339.0 352.0 353.5L349.0 354.5Q341.0 357.0 335.25 358.75Q329.5 360.5 327.0 360.5Q320.5 360.5 320.5 354.5Q320.5 350.0 325.0 342.0Q332.5 328.5 332.5 306.5Q332.5 292.0 329.5 281.0Q328.0 272.0 328.0 269.0Q328.0 264.0 332.0 264.0Q333.5 264.0 337.0 267.5Q337.5 268.0 338.0 268.5Q338.5 269.0 339.0 269.5Q346.0 277.5 347.5 277.5Q349.5 277.5 349.5 267.0Q349.5 264.5 349.5 261.5Q349.5 258.5 348.5 255.0Q347.5 247.5 346.25 240.5Q345.0 233.5 344.0 230.0Q339.5 232.0 330.5 238.0Q329.0 238.5 327.5 239.5Q326.0 240.5 324.5 241.5Q279.0 274.5 251.75 306.0Q224.5 337.5 220.5 362.0Q218.5 380.5 213.0 380.5Q210.0 380.5 206.5 374.0Q205.5 371.0 198.5 359.25Q191.5 347.5 183.5 335.0L164.5 306.0L136.0 305.5H121.0Q113.0 305.5 105.75 305.5Q98.5 305.5 96.0 306.0Q85.0 307.0 67.5 317.25Q50.0 327.5 37.0 341.0Q22.0 354.0 15.0 355.0Q12.0 353.5 11.0 352.0Q10.0 350.5 10.0 347.0Q10.0 343.5 10.5 337.75Q11.0 332.0 13.0 327.0Q15.5 317.5 16.75 307.5Q18.0 297.5 18.0 288.5Q18.0 280.5 17.0 273.75Q16.0 267.0 13.5 263.5L12.5 261.0Q10.5 257.0 10.5 255.0Q10.5 249.5 16.5 249.5Q19.0 249.5 25.25 253.25Q31.5 257.0 37.5 263.5Q43.0 269.0 48.5 273.0Q54.0 277.0 57.0 277.0Q58.0 277.0 58.0 276.0Q58.0 275.5 57.75 275.0Q57.5 274.5 57.5 274.0V273.0Q55.5 267.5 54.5 254.0Q53.5 240.5 53.5 225.5Q53.5 211.5 54.5 199.0Q55.5 186.5 56.5 180.0Q58.0 175.5 58.0 172.0Q58.0 171.5 57.75 171.0Q57.5 170.5 57.5 170.0V169.5Q55.5 170.5 50.5 174.25Q45.5 178.0 39.0 184.5Q23.0 200.5 16.5 200.5Q10.5 200.5 10.5 193.5Q10.5 192.5 10.75 190.75Q11.0 189.0 11.0 187.5Q11.5 186.5 11.5 185.0Q11.5 183.5 12.0 182.5Q13.0 176.0 14.5 161.25Q16.0 146.5 16.0 133.0Q16.0 117.0 16.75 106.0Q17.5 95.0 22.5 95.0Q22.5 95.0 27.25 99.25Q32.0 103.5 37.0 109.0Q48.0 120.0 65.75 125.5Q83.5 131.0 102.75 133.0Q122.0 135.0 136.0 135.0L167.5 133.5L222.5 51.5L225.5 78.5Q229.0 98.5 251.75 122.5Q274.5 146.5 316.0 172.0Q325.5 177.0 333.25 181.0Q341.0 185.0 344.0 185.5V180.0Q344.0 171.5 342.75 158.5Q341.5 145.5 339.25 131.5Q337.0 117.5 334.5 105.75Q332.0 94.0 329.5 88.5Q323.5 72.0 323.5 66.5Q323.5 61.0 328.5 61.0Q332.0 61.0 339.0 66.5Q344.5 71.0 351.0 73.75Q357.5 76.5 365.5 76.5Q376.0 76.5 387.0 72.0Q391.0 70.0 394.25 69.5Q397.5 69.0 399.5 69.0Q406.0 69.0 406.0 74.0Q406.0 79.0 396.0 89.0Q387.0 97.0 381.25 113.25Q375.5 129.5 371.75 150.5Q368.0 171.5 366.25 193.0Q364.5 214.5 363.75 232.5Q363.0 250.5 363.0 261.0Q363.0 266.0 363.0 270.0Q363.0 274.0 363.5 276.0Q364.5 281.5 374.75 285.75Q385.0 290.0 400.25 292.75Q415.5 295.5 432.0 297.0Q448.5 298.5 462.75 299.25Q477.0 300.0 484.5 300.0Q493.5 300.0 495.0 297.0Q495.5 297.0 495.5 288.0Q495.5 270.5 494.75 243.75Q494.0 217.0 492.0 187.75Q490.0 158.5 486.5 132.5Q483.0 106.5 478.0 91.0Q474.5 82.0 472.5 75.25Q470.5 68.5 470.5 65.0Q470.5 58.5 476.0 58.5Q479.5 58.5 487.0 64.5Q490.0 68.0 497.5 69.5Q505.0 71.0 513.0 72.0L517.5 71.5Q521.5 70.5 526.75 70.0Q532.0 69.5 535.5 67.5Q542.0 65.0 545.5 65.0Q552.5 66.5 552.5 71.5Q552.5 73.5 549.75 78.0Q547.0 82.5 541.5 87.5L533.5 93.0L541.5 100.0Q548.5 105.0 558.75 109.0Q569.0 113.0 586.5 116.0Q604.0 119.0 631.5 121.5Q650.5 123.5 678.25 124.75Q706.0 126.0 735.25 126.75Q764.5 127.5 787.0 127.5Q804.0 127.5 815.0 127.0Q826.0 126.5 826.5 126.0Q827.0 126.0 827.0 125.0Q827.0 119.0 817.0 114.75Q807.0 110.5 793.5 107.75Q780.0 105.0 768.0 103.75Q756.0 102.5 751.5 102.5Q739.5 102.5 731.25 102.0Q723.0 101.5 723.0 98.5Q723.0 96.5 734.25 83.25Q745.5 70.0 761.5 53.5ZM192.0 177.0Q192.5 177.5 192.5 177.5Q192.5 177.5 192.5 177.5Q192.0 177.5 192.0 177.0ZM224.0 177.0Q224.5 177.5 224.5 177.5Q224.5 177.5 224.5 177.5Q224.0 177.5 224.0 177.0ZM74.0 200.0H74.5Q74.5 200.5 74.5 200.5Q74.5 200.5 74.5 200.5Q74.5 200.5 74.25 200.5Q74.0 200.5 74.0 200.0ZM611.0 232.5Q612.5 234.0 613.0 234.0L613.5 233.0Q613.5 231.0 607.0 231.0H599.5L600.0 232.0L601.0 231.0Q602.0 229.5 603.0 229.5Q606.0 229.5 611.0 232.5Z" fill="black" /></svg>