<svg xmlns="http://www.w3.org/2000/svg" width="484.0" height="386.0" viewBox="0 0 484.0 386.0"><path d="M37.0 286.0Q31.5 279.0 29.0 279.0Q26.5 279.0 26.5 299.0V319.0Q28.5 319.0 36.5 314.75Q44.5 310.5 52.0 305.75Q59.5 301.0 59.5 300.0Q59.5 299.0 53.5 297.0Q44.5 294.0 37.0 286.0ZM203.0 311.5Q198.0 308.0 194.5 305.75Q191.0 303.5 190.0 303.5Q189.5 303.5 189.0 311.75Q188.5 320.0 188.25 330.75Q188.0 341.5 188.0 348.5V351.5Q190.5 350.5 193.5 349.0Q196.5 347.5 199.5 345.5Q205.0 342.5 214.75 338.25Q224.5 334.0 231.0 332.0L239.0 329.0L231.5 326.0Q225.0 323.5 216.5 319.25Q208.0 315.0 203.0 311.5ZM59.5 157.5Q59.5 157.5 56.5 157.25Q53.5 157.0 49.5 157.0Q42.0 157.0 42.0 157.5Q42.0 159.0 44.0 162.5Q46.0 166.0 49.5 172.0Q52.0 170.0 55.25 165.0Q58.5 160.0 59.5 157.5ZM60.5 122.5 68.0 119.0 39.5 101.0 37.5 118.5Q36.0 128.0 36.0 134.0Q36.0 136.0 36.25 137.5Q36.5 139.0 36.5 139.0Q38.0 139.0 42.0 135.0Q46.0 132.5 51.25 128.75Q56.5 125.0 60.5 122.5ZM198.0 137.5 193.0 124.5 146.0 123.0Q138.5 122.5 132.25 122.5Q126.0 122.5 121.0 122.5Q104.0 122.5 96.0 124.5Q88.0 126.5 77.5 132.0Q61.0 138.5 57.0 142.0H57.5Q58.5 142.0 59.75 141.75Q61.0 141.5 63.0 141.5L67.0 140.5Q69.0 140.0 70.5 140.0Q72.0 140.0 73.0 140.0Q81.0 140.0 81.0 145.5Q81.0 151.5 70.0 167.0Q66.0 173.5 63.75 179.75Q61.5 186.0 60.75 198.0Q60.0 210.0 60.0 234.0Q60.0 266.0 61.25 276.0Q62.5 286.0 65.0 287.5Q68.5 288.0 86.0 289.0Q103.5 290.0 125.0 290.0Q147.0 290.0 158.0 289.75Q169.0 289.5 172.75 288.5Q176.5 287.5 176.5 286.0Q176.5 282.0 178.75 279.75Q181.0 277.5 183.5 277.5Q189.5 277.5 189.5 283.5Q189.5 285.5 196.75 291.0Q204.0 296.5 208.0 297.5V290.0Q208.0 280.5 207.25 263.75Q206.5 247.0 205.5 227.25Q204.5 207.5 203.0 188.75Q201.5 170.0 200.25 156.0Q199.0 142.0 198.0 137.5ZM222.5 97.0V96.5Q222.5 94.5 210.0 94.5Q203.5 94.5 201.25 95.0Q199.0 95.5 199.0 96.5Q199.0 101.0 202.0 110.0Q205.0 119.0 207.0 123.5L209.5 129.5L214.5 118.0Q217.5 111.5 220.0 105.25Q222.5 99.0 222.5 97.0ZM298.0 144.0Q298.0 143.0 291.25 142.75Q284.5 142.5 278.0 142.5Q272.5 142.5 272.0 143.0Q272.5 144.5 274.5 149.0Q276.5 153.5 278.5 158.5L286.0 174.0L291.0 163.0Q294.0 156.5 296.0 151.0Q298.0 145.5 298.0 144.0ZM387.0 70.5 382.0 60.5 320.0 61.0Q293.0 61.0 277.5 61.75Q262.0 62.5 252.0 64.75Q242.0 67.0 230.0 71.5Q216.0 77.5 207.0 81.0H220.5Q230.5 81.0 236.75 82.5Q243.0 84.0 243.0 86.5V87.5Q235.0 104.0 230.5 115.0Q226.0 126.0 224.0 138.0Q222.0 150.0 221.25 168.5Q220.5 187.0 220.0 218.5L219.0 303.0L227.5 309.0Q231.5 311.0 241.25 313.0Q251.0 315.0 260.5 315.5L283.0 317.0L284.0 274.0Q284.0 242.0 280.0 213.0Q276.0 184.0 262.0 155.0Q258.0 146.5 254.75 140.0Q251.5 133.5 251.5 133.0Q251.5 131.0 264.5 130.25Q277.5 129.5 296.0 129.5Q312.0 129.5 329.25 129.75Q346.5 130.0 359.5 130.25Q372.5 130.5 375.5 131.0Q375.5 131.5 375.75 131.75Q376.0 132.0 376.0 132.5Q376.0 134.5 373.5 139.5Q371.0 144.5 367.0 150.0Q360.0 161.0 356.0 172.5Q352.0 184.0 350.5 201.75Q349.0 219.5 349.0 249.0V264.0Q349.0 288.5 350.0 300.25Q351.0 312.0 355.5 315.5Q360.0 319.0 370.0 319.0Q373.0 319.0 374.5 318.5H385.5L417.0 317.0L415.0 234.0Q414.5 206.0 413.75 186.0Q413.0 166.0 410.75 149.25Q408.5 132.5 402.75 114.0Q397.0 95.5 387.0 70.5ZM325.5 178.5Q322.0 169.0 318.5 161.75Q315.0 154.5 313.0 154.0Q308.0 153.5 303.75 165.5Q299.5 177.5 297.25 197.75Q295.0 218.0 295.0 243.0Q295.0 262.0 296.5 281.5L299.5 319.5L337.5 317.0L336.0 261.5Q335.0 229.0 333.0 210.75Q331.0 192.5 325.5 178.5ZM353.0 143.0Q346.5 143.0 339.75 143.0Q333.0 143.0 326.0 143.0Q327.0 148.0 333.5 161.5L339.5 175.5L345.0 162.0Q348.0 155.0 350.25 149.75Q352.5 144.5 353.0 143.0ZM202.0 41.5Q194.5 36.5 192.0 36.5Q189.5 36.5 189.5 56.5V75.0L208.0 66.5Q215.0 63.0 221.75 60.5Q228.5 58.0 233.0 56.5Q231.5 56.0 227.5 55.0Q221.5 52.5 213.75 48.75Q206.0 45.0 202.0 41.5ZM433.5 63.5 445.5 40.0H417.0Q402.0 40.0 395.25 40.5Q388.5 41.0 388.5 43.5Q388.5 45.5 391.0 49.5Q393.5 53.5 397.0 59.0Q399.5 62.5 402.75 72.0Q406.0 81.5 409.0 90.5Q415.0 110.0 418.5 110.0Q418.5 110.0 418.75 108.0Q419.0 106.0 419.0 102.5Q419.0 98.5 423.25 86.5Q427.5 74.5 433.5 63.5ZM176.0 51.0Q176.5 34.0 178.75 22.0Q181.0 10.0 183.0 10.0Q184.5 10.0 188.5 12.5Q192.5 15.0 196.0 19.0Q204.5 28.5 217.5 34.25Q230.5 40.0 252.0 42.75Q273.5 45.5 307.5 47.0Q320.5 47.5 330.75 47.5Q341.0 47.5 348.5 47.5Q364.5 47.5 368.75 46.75Q373.0 46.0 373.0 44.5Q373.0 38.5 370.0 38.0Q368.0 36.5 366.25 34.0Q364.5 31.5 364.5 30.0Q364.5 27.5 375.0 26.75Q385.5 26.0 400.0 26.0Q415.5 26.0 432.0 26.5Q448.5 27.0 460.5 27.75Q472.5 28.5 473.5 30.0L474.0 31.5Q474.0 33.5 471.0 37.0Q468.0 40.5 464.0 43.5Q459.5 47.0 453.0 56.5Q446.5 66.0 442.0 76.0L430.5 99.0V334.5L348.5 334.0H319.5Q296.0 334.0 280.25 335.0Q264.5 336.0 252.5 338.75Q240.5 341.5 229.0 346.5Q217.5 351.5 202.5 360.0L172.5 376.0L178.0 303.5H134.5Q114.0 303.5 103.0 304.25Q92.0 305.0 84.25 307.5Q76.5 310.0 65.0 315.5Q55.5 320.0 45.25 326.0Q35.0 332.0 31.5 336.0Q22.5 345.0 15.5 345.0Q10.0 345.0 10.0 338.0Q10.0 336.5 11.0 332.5Q12.0 328.5 13.75 315.25Q15.5 302.0 16.0 287.0L19.0 244.5L46.5 275.5L47.0 242.0Q47.0 185.5 28.5 165.0Q23.5 159.5 23.5 139.0Q23.5 135.0 23.5 130.0Q23.5 125.0 24.0 118.5L24.5 113.5Q25.5 95.0 27.75 81.75Q30.0 68.5 32.0 68.5Q34.5 68.5 37.5 72.25Q40.5 76.0 44.0 81.5Q49.5 91.0 59.0 96.5Q68.5 102.0 85.5 104.75Q102.5 107.5 130.5 109.0H134.0Q142.0 109.5 149.25 109.75Q156.5 110.0 162.0 110.0Q187.5 110.0 187.5 106.0Q187.5 104.5 182.5 99.5Q179.0 95.5 177.25 89.25Q175.5 83.0 175.5 69.0V60.5Q176.0 58.0 176.0 55.75Q176.0 53.5 176.0 51.0Z" fill="black" /></svg>