<svg xmlns="http://www.w3.org/2000/svg" width="674.0" height="464.5" viewBox="0 0 674.0 464.5"><path d="M136.5 190.5 124.0 187.5Q114.0 184.5 96.0 178.5Q78.0 172.5 62.5 167.5L28.0 156.0V217.0L51.5 211.0Q60.0 208.5 72.75 205.25Q85.5 202.0 98.5 199.0ZM295.5 278.5Q295.5 277.0 290.75 272.5Q286.0 268.0 284.0 267.5V275.0Q284.0 283.0 286.5 284.0L287.5 283.5V284.0Q287.5 283.5 289.0 283.5Q291.5 282.5 293.5 280.75Q295.5 279.0 295.5 278.5ZM429.5 252.0Q429.5 250.5 425.25 249.0Q421.0 247.5 414.5 247.5Q403.0 247.5 403.0 250.0Q403.0 251.0 403.75 252.5Q404.5 254.0 405.0 256.0Q406.0 261.0 408.25 265.5Q410.5 270.0 412.5 272.5L413.0 273.0Q417.0 273.0 423.25 265.75Q429.5 258.5 429.5 252.0ZM204.5 42.5Q203.5 42.0 200.0 41.25Q196.5 40.5 191.5 39.5Q190.0 39.5 187.5 39.0Q185.0 38.5 184.0 38.0Q180.5 37.0 176.25 36.5Q172.0 36.0 168.0 36.0Q168.0 39.5 169.5 44.0Q172.0 49.5 176.25 67.5Q180.5 85.5 184.0 105.0Q186.0 113.0 187.25 119.25Q188.5 125.5 189.0 129.5Q190.0 119.0 193.0 102.25Q196.0 85.5 199.25 68.75Q202.5 52.0 204.5 42.5ZM244.5 101.0V100.5Q242.5 86.5 238.5 71.75Q234.5 57.0 231.5 52.5L227.0 43.0L223.5 52.5Q216.0 71.5 211.25 96.75Q206.5 122.0 205.5 149.5L204.0 183.0L251.5 187.0V162.5Q251.5 152.5 249.25 134.0Q247.0 115.5 244.5 101.0ZM283.5 41.0Q283.5 37.5 277.0 36.25Q270.5 35.0 263.0 34.5Q255.5 34.0 252.5 34.0Q247.0 34.0 247.0 36.0Q247.0 41.0 252.0 53.0Q253.5 59.5 257.25 76.75Q261.0 94.0 264.5 110.5Q266.5 120.5 267.5 128.0Q268.5 118.0 270.75 104.5Q273.0 91.0 276.0 79.5Q279.0 66.5 281.25 55.0Q283.5 43.5 283.5 41.0ZM633.5 49.0Q630.0 48.0 622.75 46.5Q615.5 45.0 605.5 44.5L582.0 41.0L591.0 64.5Q593.5 71.0 596.5 82.75Q599.5 94.5 602.5 108.25Q605.5 122.0 607.0 134.0Q608.0 137.5 609.0 141.75Q610.0 146.0 610.5 149.0Q612.0 160.0 613.5 166.5Q613.5 164.5 613.5 162.25Q613.5 160.0 613.5 157.5Q613.5 148.5 616.75 128.75Q620.0 109.0 623.5 90.5Q628.0 77.5 630.5 65.75Q633.0 54.0 633.5 49.0ZM242.5 405.5H241.5Q233.5 399.0 230.5 399.0Q228.5 399.0 228.5 409.0Q228.5 419.5 230.5 419.5Q232.0 419.5 235.0 418.0Q238.0 416.5 241.5 414.5Q244.5 412.5 246.25 411.75Q248.0 411.0 248.0 411.0Q247.5 410.0 246.0 408.75Q244.5 407.5 242.5 405.5ZM276.5 348.0Q277.0 348.0 277.0 346.5Q277.0 345.0 276.0 342.25Q275.0 339.5 273.0 338.0L269.5 335.5Q269.0 334.5 268.25 333.5Q267.5 332.5 267.5 332.5Q267.5 332.5 267.0 334.25Q266.5 336.0 265.5 338.5Q264.5 341.0 263.25 344.75Q262.0 348.5 262.0 351.0Q262.0 351.5 263.5 352.0Q265.0 352.5 266.0 352.5Q273.0 352.5 276.5 348.0ZM400.0 294.5H398.5Q395.5 294.0 390.0 293.75Q384.5 293.5 378.0 292.5Q373.5 292.5 368.25 292.25Q363.0 292.0 359.0 291.5Q353.5 290.5 348.0 290.5Q342.5 290.5 338.0 290.5Q317.0 290.5 304.75 294.25Q292.5 298.0 282.5 306.5Q279.0 309.5 276.5 312.5Q274.0 315.5 274.0 317.0Q274.0 319.5 278.5 323.0Q283.0 326.5 289.5 331.5Q297.0 335.5 305.25 337.75Q313.5 340.0 326.0 341.0Q338.5 342.0 359.0 342.0H407.0L404.5 319.0Q402.5 311.0 401.5 304.25Q400.5 297.5 400.0 294.5ZM209.0 17.5Q214.5 10.0 222.0 10.0Q223.5 10.0 225.75 10.0Q228.0 10.0 230.0 11.0H229.0Q234.0 13.0 247.0 14.75Q260.0 16.5 272.5 17.0Q285.0 18.5 295.75 19.75Q306.5 21.0 306.5 21.0Q306.5 24.0 303.25 37.5Q300.0 51.0 296.0 67.0Q293.0 78.0 290.25 93.5Q287.5 109.0 285.25 124.5Q283.0 140.0 281.5 151.0L278.0 191.0H436.5Q487.0 191.0 518.25 190.75Q549.5 190.5 566.25 190.25Q583.0 190.0 589.25 189.25Q595.5 188.5 595.5 187.5Q595.5 183.5 594.0 168.25Q592.5 153.0 590.0 137.0Q585.0 99.0 577.25 77.5Q569.5 56.0 557.0 42.0Q547.5 31.5 546.5 26.0Q546.5 22.0 550.25 21.5Q554.0 21.0 557.0 21.0Q561.0 21.0 568.25 21.75Q575.5 22.5 583.0 24.5Q595.5 26.5 610.75 28.25Q626.0 30.0 635.0 30.0H664.0L651.5 60.5Q648.0 70.5 643.5 87.25Q639.0 104.0 635.0 123.0Q631.0 142.0 628.5 159.25Q626.0 176.5 626.0 187.0Q626.0 191.0 632.5 191.0Q646.0 191.0 646.0 200.0Q646.0 208.5 632.5 208.5Q628.0 208.5 625.0 220.0Q622.0 231.5 620.75 259.0Q619.5 286.5 618.5 335.5Q618.0 363.5 616.0 386.0Q614.0 408.5 611.0 412.0Q609.0 410.5 606.25 393.5Q603.5 376.5 601.0 350.75Q598.5 325.0 597.0 297.0Q595.5 269.0 595.5 246.0V208.5H280.0L278.0 219.0Q278.5 229.5 285.75 239.75Q293.0 250.0 303.25 257.75Q313.5 265.5 322.0 268.5Q330.5 272.0 342.0 273.75Q353.5 275.5 364.0 275.5Q374.5 275.5 382.25 274.5Q390.0 273.5 390.0 271.5Q390.0 264.5 383.25 256.0Q376.5 247.5 371.0 247.5Q367.0 247.5 364.5 244.5Q362.0 241.5 362.0 239.5Q362.0 235.5 374.75 233.25Q387.5 231.0 407.0 231.0Q425.0 231.0 438.75 233.0Q452.5 235.0 452.5 237.5Q452.5 240.5 450.0 247.75Q447.5 255.0 445.0 263.5L443.0 268.0Q438.5 280.5 435.25 307.25Q432.0 334.0 430.5 371.0Q430.5 393.0 428.25 412.25Q426.0 431.5 423.75 443.0Q421.5 454.5 420.5 454.5Q417.0 454.5 414.75 449.5Q412.5 444.5 412.5 438.0Q412.5 432.0 408.75 429.75Q405.0 427.5 391.0 426.5Q377.0 425.5 347.0 424.5H326.0Q283.0 424.5 257.75 430.0Q232.5 435.5 224.0 445.0Q218.5 453.0 213.5 453.0Q207.0 453.0 207.0 438.0Q207.0 432.5 207.75 421.75Q208.5 411.0 210.25 399.5Q212.0 388.0 215.5 380.0Q219.0 372.0 225.0 372.0Q229.0 372.0 233.5 375.0Q238.0 378.0 244.0 383.0Q249.5 389.0 258.25 394.75Q267.0 400.5 273.0 402.5Q278.0 404.5 291.5 406.0Q305.0 407.5 323.0 408.25Q341.0 409.0 358.5 409.0Q378.5 409.0 393.0 408.0Q407.5 407.0 409.5 405.0Q410.0 405.0 410.0 397.5Q410.0 394.0 409.75 389.75Q409.5 385.5 409.0 380.5L405.5 359.5H350.0Q307.5 359.5 290.5 362.75Q273.5 366.0 273.5 375.5Q273.5 385.5 263.5 385.5Q259.5 385.5 258.0 384.5Q251.5 384.0 247.0 381.5Q242.5 379.0 242.5 378.5Q249.5 344.0 252.5 309.25Q255.5 274.5 255.5 239.5L253.5 206.0L201.5 202.5L199.0 226.0Q198.0 234.0 197.0 249.25Q196.0 264.5 195.5 282.5Q195.0 300.5 195.0 318.0Q195.0 388.0 187.0 388.0Q183.5 388.0 180.75 363.0Q178.0 338.0 177.5 296.0L175.5 211.5L159.5 210.0Q149.0 210.0 131.75 212.25Q114.5 214.5 95.75 218.25Q77.0 222.0 60.75 226.25Q44.5 230.5 36.0 235.0Q22.0 241.5 16.5 241.5Q15.5 241.5 14.0 240.0Q13.0 237.0 12.0 226.0Q11.0 215.0 10.5 200.25Q10.0 185.5 10.0 171.5Q10.0 155.0 11.25 143.0Q12.5 131.0 15.0 131.0Q17.5 131.0 25.5 134.25Q33.5 137.5 42.5 141.5Q51.0 145.5 65.0 150.75Q79.0 156.0 95.25 161.25Q111.5 166.5 127.0 170.75Q142.5 175.0 154.5 177.5L172.5 181.0V157.5Q172.5 143.0 170.0 125.5Q167.5 108.0 163.5 90.75Q159.5 73.5 154.5 59.5Q149.5 45.5 144.5 38.5Q140.5 33.0 137.5 27.25Q134.5 21.5 134.5 19.0L135.5 15.0H139.0Q142.0 15.0 151.5 16.5Q161.0 18.0 172.5 20.5Q182.0 22.0 188.5 23.0Q195.0 24.0 199.5 24.0Q203.5 24.0 205.25 22.25Q207.0 20.5 209.0 17.5Z" fill="black" /></svg>