<svg xmlns="http://www.w3.org/2000/svg" width="586.5" height="377.5" viewBox="0 0 586.5 377.5"><path d="M87.5 290.5V291.0Q87.5 290.5 88.0 290.0H54.5Q38.0 290.0 38.0 291.0V291.5Q39.5 295.0 40.25 301.75Q41.0 308.5 41.0 315.0V324.0L57.5 312.0Q64.5 306.5 72.25 300.25Q80.0 294.0 87.5 290.5ZM107.0 138.0 113.5 125.0H99.0Q86.5 125.0 85.0 124.5Q85.5 125.0 86.5 126.5Q87.5 128.0 88.0 129.0Q93.0 135.5 94.75 141.25Q96.5 147.0 96.5 154.5Q100.0 152.0 107.0 138.0ZM177.5 128.5Q173.5 129.5 167.5 129.5H159.5Q161.0 132.0 162.75 137.25Q164.5 142.5 166.5 147.5L167.0 150.5L175.0 135.0Q176.5 130.5 177.5 128.5ZM221.5 80.5 211.5 68.5Q203.0 58.0 199.25 54.25Q195.5 50.5 195.5 50.5Q195.5 50.5 193.5 55.25Q191.5 60.0 188.5 67.0L183.0 80.5ZM187.0 14.5Q191.5 10.0 195.5 10.0Q201.0 10.0 201.75 14.5Q202.5 19.0 202.5 22.5V24.0Q202.5 32.5 214.25 47.25Q226.0 62.0 243.0 75.0Q250.0 79.5 259.75 84.0Q269.5 88.5 287.5 94.0Q305.5 99.5 337.0 107.5Q368.5 115.5 419.0 127.5Q463.0 138.0 498.5 147.5Q534.0 157.0 555.25 164.0Q576.5 171.0 576.5 173.5V174.0Q576.5 176.0 572.5 178.0Q568.5 180.0 556.5 183.5Q544.5 187.0 520.75 192.75Q497.0 198.5 457.75 207.25Q418.5 216.0 359.5 229.5Q300.5 243.0 260.5 252.5Q220.5 262.0 194.75 268.75Q169.0 275.5 153.0 281.0Q137.0 286.5 125.5 292.0Q104.5 302.0 84.0 314.75Q63.5 327.5 49.5 338.75Q35.5 350.0 33.5 356.0Q31.5 361.0 27.25 364.25Q23.0 367.5 19.0 367.5Q10.0 367.5 10.0 359.0Q10.0 356.5 12.5 350.75Q15.0 345.0 18.5 340.5Q23.5 332.5 23.5 318.0Q23.5 314.0 23.5 308.5Q23.5 303.0 23.0 296.0Q22.5 289.0 22.0 282.5Q21.5 276.0 21.5 272.0Q21.5 259.0 27.5 259.0Q29.5 259.0 32.25 261.25Q35.0 263.5 38.0 267.0Q45.5 274.5 72.0 274.5Q91.5 274.5 113.0 270.0Q122.5 268.5 129.75 266.75Q137.0 265.0 137.0 265.0L152.0 259.5Q152.0 256.0 152.5 249.5Q153.0 243.0 153.5 238.0L154.0 231.0Q154.5 225.5 154.75 220.0Q155.0 214.5 155.0 208.0Q155.0 178.0 150.75 155.5Q146.5 133.0 139.5 131.0Q139.0 130.0 137.5 130.0Q130.0 130.0 122.0 143.75Q114.0 157.5 107.75 179.5Q101.5 201.5 99.0 227.5Q95.5 264.5 88.5 264.5Q83.0 264.5 83.0 235.0V226.0Q83.5 223.0 83.5 220.0Q83.5 217.0 83.5 213.5Q85.0 193.0 85.0 182.5Q85.0 169.5 83.0 161.5Q81.0 153.5 77.0 145.0Q73.0 136.5 69.25 130.75Q65.5 125.0 63.5 125.0Q58.5 125.0 55.5 122.5Q52.5 120.0 52.5 117.0Q52.5 112.5 63.75 110.75Q75.0 109.0 91.5 109.0Q106.0 109.0 117.75 108.0Q129.5 107.0 130.5 105.0Q132.0 103.5 135.25 102.5Q138.5 101.5 140.5 101.5Q148.5 102.5 151.5 104.75Q154.5 107.0 154.5 113.5H168.0Q175.0 113.5 182.25 112.5Q189.5 111.5 191.5 109.5Q194.5 106.5 199.0 106.5Q203.0 106.5 206.5 109.0Q211.5 112.5 211.5 116.0Q211.5 120.0 204.0 124.0Q197.5 126.0 192.25 136.0Q187.0 146.0 182.75 160.0Q178.5 174.0 175.5 188.75Q172.5 203.5 170.75 215.5Q169.0 227.5 168.5 233.5Q168.0 243.0 168.0 249.25Q168.0 255.5 168.0 255.5Q174.5 253.5 188.0 250.25Q201.5 247.0 217.0 244.0Q241.0 239.0 272.25 232.5Q303.5 226.0 337.5 218.5Q371.5 211.0 404.25 203.75Q437.0 196.5 464.5 190.25Q492.0 184.0 510.25 179.75Q528.5 175.5 533.0 174.0Q527.5 172.0 508.75 167.25Q490.0 162.5 463.0 155.5Q436.0 148.5 404.5 141.0Q370.0 132.5 338.0 124.75Q306.0 117.0 284.0 111.25Q262.0 105.5 256.5 104.0Q246.5 100.5 234.5 99.0Q222.5 97.5 211.0 97.5Q200.0 97.5 190.25 99.0Q180.5 100.5 175.0 104.0Q167.5 110.0 163.0 110.0Q156.5 110.0 156.5 103.5Q156.5 100.0 159.75 92.25Q163.0 84.5 168.5 72.5Q174.5 61.0 178.75 49.25Q183.0 37.5 183.0 33.0Q183.0 27.0 184.5 21.75Q186.0 16.5 187.0 14.5Z" fill="black" /></svg>