<svg xmlns="http://www.w3.org/2000/svg" width="630.5" height="460.5" viewBox="0 0 630.5 460.5"><path d="M44.5 272.0Q44.5 271.0 41.75 269.75Q39.0 268.5 35.0 267.0Q32.0 266.0 30.5 265.0Q29.0 264.0 28.0 264.0Q27.0 264.0 27.0 274.5V285.5L34.0 281.0Q38.0 278.0 41.25 275.0Q44.5 272.0 44.5 272.0ZM256.5 282.0 237.5 278.5Q233.5 278.0 230.25 277.75Q227.0 277.5 225.5 277.5Q222.5 277.5 222.5 278.0Q222.5 280.0 224.5 285.0Q226.5 290.0 229.0 295.0Q231.5 300.0 232.0 301.5Q233.0 303.5 234.0 305.0Q235.0 306.5 235.0 306.5Q235.5 306.5 246.0 294.5Q249.5 291.0 253.0 286.5Q256.5 282.0 256.5 282.0ZM57.5 132.5Q57.0 131.5 54.0 128.5Q51.0 125.5 47.0 123.5Q45.0 122.5 43.5 121.5Q42.0 120.5 41.0 120.5V146.0L48.5 141.5Q51.5 138.5 54.25 135.75Q57.0 133.0 57.5 132.5ZM81.5 178.0H75.0Q69.0 178.0 69.0 182.5Q69.0 185.0 72.5 191.0L73.5 193.0Q73.5 193.0 77.0 188.0Q78.0 185.5 79.5 182.5Q81.0 179.5 81.5 178.0ZM119.0 265.5 117.0 238.5Q116.5 227.5 113.25 212.75Q110.0 198.0 106.0 190.0L101.0 177.0L95.0 188.5Q91.5 196.5 89.0 210.25Q86.5 224.0 86.0 236.0L85.0 262.0ZM126.0 184.5Q129.5 180.0 129.5 178.0H125.5Q119.5 178.0 119.5 182.5Q119.5 184.0 120.5 186.0Q121.5 188.0 122.5 190.0L123.0 192.0Q123.5 190.5 124.5 188.75Q125.5 187.0 126.0 184.5ZM375.5 251.5 367.0 246.0Q366.5 245.5 365.75 245.5Q365.0 245.5 364.5 245.0V257.5Q367.0 256.5 368.5 255.0Q371.0 254.0 372.75 253.0Q374.5 252.0 375.5 251.5ZM260.5 147.0Q259.0 144.0 256.0 139.5Q255.5 138.0 254.75 136.75Q254.0 135.5 253.0 135.0Q252.5 133.5 251.75 132.5Q251.0 131.5 250.5 131.0L242.5 116.0L235.0 128.0Q229.0 137.5 227.5 142.0Q231.5 143.5 242.5 145.0Q253.5 146.5 260.5 147.0ZM375.5 173.0Q375.0 172.5 373.0 171.25Q371.0 170.0 368.5 168.5L367.0 167.5Q366.5 167.0 365.75 166.75Q365.0 166.5 364.5 166.0V179.0Q365.5 178.0 366.5 177.5Q367.5 177.0 368.5 176.5Q374.0 174.5 375.5 173.0ZM453.5 199.0 450.5 178.0H424.0Q408.5 178.0 398.75 180.75Q389.0 183.5 378.0 189.5Q370.5 194.5 365.0 198.0Q359.5 201.5 359.5 202.5Q359.5 202.5 363.5 205.0Q367.5 207.5 372.0 211.0Q378.5 215.0 382.75 219.0Q387.0 223.0 387.0 226.5Q387.0 233.5 377.0 235.0H376.0L375.5 235.5Q379.5 237.0 395.5 239.0Q411.5 241.0 428.5 241.0Q444.0 241.0 450.5 240.5Q457.0 240.0 458.5 238.5Q460.0 237.0 460.0 234.0Q460.0 229.0 458.25 218.75Q456.5 208.5 453.5 199.0ZM386.0 65.0Q384.0 60.0 381.75 55.25Q379.5 50.5 378.0 47.5Q376.0 49.5 372.5 55.5Q369.0 61.5 364.5 69.5Q358.0 80.5 351.5 91.0Q345.0 101.5 342.5 105.5L341.0 108.5Q340.5 109.0 340.25 109.5Q340.0 110.0 340.0 110.0Q340.0 110.5 347.75 110.75Q355.5 111.0 377.0 111.0Q394.5 111.0 406.5 110.5Q418.5 110.0 418.5 110.0Q417.5 108.5 414.0 104.5Q410.5 100.5 405.5 96.5Q400.0 91.0 394.0 82.0Q388.0 73.0 386.0 65.0ZM469.0 138.0Q461.5 132.0 453.5 132.0Q453.0 132.0 452.25 132.25Q451.5 132.5 451.5 132.5Q451.5 136.5 453.75 144.0Q456.0 151.5 458.75 157.25Q461.5 163.0 463.0 163.0Q467.5 163.0 468.5 170.5V169.5Q471.5 160.0 472.5 155.25Q473.5 150.5 473.5 147.0Q473.5 143.0 469.0 138.0ZM487.5 121.5Q487.5 119.0 476.5 119.0Q467.0 119.0 467.0 120.0Q467.0 123.0 475.0 125.0Q477.0 126.5 479.25 127.0Q481.5 127.5 483.5 127.5Q487.5 127.5 487.5 121.5ZM546.0 176.5Q526.0 165.5 509.0 157.75Q492.0 150.0 491.0 150.0Q488.0 150.0 485.25 162.25Q482.5 174.5 481.0 193.0Q479.5 211.5 479.5 230.5V264.5Q481.0 264.5 493.5 258.5Q506.0 252.5 523.5 243.75Q541.0 235.0 558.5 226.0Q576.0 217.0 587.5 210.5Q599.0 204.0 599.0 203.5Q599.0 202.5 583.5 194.5Q568.0 186.5 546.0 176.5ZM369.0 336.0Q371.5 333.5 374.25 331.25Q377.0 329.0 379.5 326.5H378.5Q374.5 326.5 362.5 327.5Q350.5 328.5 337.5 329.5Q325.5 330.0 317.5 330.5Q309.5 331.0 309.5 331.0Q309.5 336.0 317.5 361.0L324.0 382.5L335.5 368.5Q342.0 361.0 352.0 351.25Q362.0 341.5 369.0 336.0ZM364.0 37.0Q377.5 10.0 384.5 10.0Q388.5 10.0 390.25 15.25Q392.0 20.5 392.0 28.5Q393.0 43.5 401.5 60.5Q410.0 77.5 422.0 89.75Q434.0 102.0 444.5 104.0Q450.0 104.0 460.75 104.0Q471.5 104.0 482.5 103.5Q485.0 103.0 488.5 103.0Q492.0 103.0 494.5 103.0Q502.0 103.0 507.0 104.25Q512.0 105.5 512.0 108.0Q512.0 109.0 509.75 114.0Q507.5 119.0 504.0 123.5Q500.5 131.0 499.5 135.0H500.0Q500.5 136.5 516.5 145.0Q532.5 153.5 555.0 163.5Q577.0 174.0 593.0 184.25Q609.0 194.5 609.0 197.0V197.5Q610.0 197.0 611.0 196.75Q612.0 196.5 613.0 196.5Q617.5 196.5 620.5 200.5V201.0Q620.5 203.5 611.0 210.25Q601.5 217.0 585.75 226.5Q570.0 236.0 550.0 246.0L479.5 281.5V363.0Q479.5 404.5 477.75 427.5Q476.0 450.5 472.0 450.5Q469.0 450.5 466.5 428.25Q464.0 406.0 464.0 366.5Q464.0 335.5 464.0 313.5Q464.0 291.5 463.5 289.5Q457.0 290.5 441.5 300.5Q426.0 310.5 407.0 325.25Q388.0 340.0 370.5 356.0Q353.0 372.0 342.0 385.5L336.0 391.0Q329.0 398.0 323.25 403.5Q317.5 409.0 315.0 409.0Q312.5 409.0 310.25 403.25Q308.0 397.5 308.0 391.0Q307.5 385.0 305.0 373.25Q302.5 361.5 298.5 351.0Q294.0 340.5 291.75 331.5Q289.5 322.5 288.5 320.5Q288.5 317.0 301.25 315.0Q314.0 313.0 335.0 313.0Q350.0 313.0 359.75 312.5Q369.5 312.0 377.5 310.0Q385.5 308.0 395.5 303.5Q405.5 299.0 421.0 291.0Q445.5 279.5 454.75 273.5Q464.0 267.5 464.0 262.5Q464.0 258.5 459.0 257.75Q454.0 257.0 432.0 257.0Q410.5 257.0 400.25 259.0Q390.0 261.0 379.0 268.0L373.0 272.0Q367.0 275.5 362.25 278.0Q357.5 280.5 356.0 280.5Q353.0 280.5 350.75 274.0Q348.5 267.5 348.5 258.0Q348.5 252.5 348.75 248.5Q349.0 244.5 349.5 242.5Q346.0 244.0 336.75 248.5Q327.5 253.0 316.0 258.5Q291.0 269.5 275.0 283.75Q259.0 298.0 246.0 320.0Q242.5 325.0 238.25 330.0Q234.0 335.0 231.5 335.0Q230.0 335.0 225.0 326.0Q220.0 317.0 215.5 304.5L206.5 280.5H133.5V302.0Q133.5 314.5 131.75 321.5Q130.0 328.5 126.0 328.5H124.5Q122.0 326.5 119.75 317.75Q117.5 309.0 117.5 299.0V280.5H87.5V301.5Q87.5 314.0 85.5 322.25Q83.5 330.5 79.5 330.5Q76.0 330.5 74.25 323.5Q72.5 316.5 72.5 306.0Q72.5 295.5 70.25 290.75Q68.0 286.0 62.5 285.0Q52.0 287.0 41.5 293.75Q31.0 300.5 27.0 311.0Q25.0 319.0 21.25 324.75Q17.5 330.5 16.0 330.5Q12.5 330.5 11.25 320.5Q10.0 310.5 10.0 297.5Q10.0 285.5 10.5 273.25Q11.0 261.0 12.25 251.5Q13.5 242.0 14.5 239.5Q15.5 237.5 18.0 237.5Q23.5 237.5 32.5 245.5Q41.0 252.5 50.5 258.5Q60.0 264.5 65.0 264.5Q66.0 264.5 67.0 260.25Q68.0 256.0 68.0 249.5Q68.0 238.0 65.25 223.5Q62.5 209.0 58.0 196.5Q54.5 188.0 52.25 179.5Q50.0 171.0 50.0 168.5V165.5Q53.5 164.5 63.25 163.75Q73.0 163.0 85.25 162.5Q97.5 162.0 108.5 161.75Q119.5 161.5 125.0 161.5Q139.0 161.5 145.0 163.5Q151.0 165.5 151.0 170.0Q151.0 173.0 148.75 177.25Q146.5 181.5 143.5 185.5Q140.0 191.0 137.5 203.25Q135.0 215.5 134.0 231.5L131.5 264.5H163.5Q181.5 264.5 189.5 263.0Q197.5 261.5 198.5 259.0Q199.5 256.5 201.0 254.75Q202.5 253.0 206.0 253.0Q207.5 253.0 210.5 254.25Q213.5 255.5 218.5 257.5Q223.0 260.5 231.75 262.5Q240.5 264.5 247.0 264.5Q255.5 264.5 268.5 260.75Q281.5 257.0 296.0 251.25Q310.5 245.5 323.5 239.0Q336.5 232.5 345.0 226.5Q353.5 220.5 354.5 217.0Q352.5 215.5 346.0 211.25Q339.5 207.0 333.5 202.75Q327.5 198.5 326.5 198.0L315.0 189.5Q297.5 177.5 284.5 171.5Q271.5 165.5 256.25 162.25Q241.0 159.0 215.5 157.0Q211.0 156.5 207.25 153.5Q203.5 150.5 203.0 146.0Q202.5 143.5 198.25 142.5Q194.0 141.5 182.25 141.25Q170.5 141.0 147.0 141.0Q124.0 141.0 103.5 141.75Q83.0 142.5 76.0 143.5Q64.0 146.5 52.75 157.5Q41.5 168.5 39.0 180.5Q36.0 197.0 30.5 197.0Q24.5 197.0 24.5 167.0Q24.5 157.0 24.75 143.75Q25.0 130.5 26.0 117.75Q27.0 105.0 29.5 96.0Q32.0 96.0 39.0 99.0Q46.0 102.0 54.5 109.0L72.0 123.5L217.5 128.0L228.0 108.0Q240.0 87.5 247.5 87.5Q255.5 87.5 259.0 105.0Q261.5 117.5 266.75 126.75Q272.0 136.0 282.25 145.5Q292.5 155.0 310.5 168.5Q323.5 178.0 335.0 185.75Q346.5 193.5 348.5 194.5V170.0Q348.5 157.0 350.75 148.25Q353.0 139.5 355.0 139.5Q356.0 139.5 362.0 143.0Q368.0 146.5 374.0 152.0Q381.5 158.5 389.5 160.75Q397.5 163.0 417.5 163.0H446.5Q446.0 157.5 442.0 149.0Q438.0 140.5 432.5 133.25Q427.0 126.0 422.5 124.5Q420.5 123.5 415.25 123.5Q410.0 123.5 403.0 123.5Q390.0 123.5 373.25 124.25Q356.5 125.0 342.25 126.5Q328.0 128.0 321.5 130.0L320.5 131.0Q319.0 131.5 316.0 131.5Q311.5 131.5 311.5 126.0Q311.5 121.5 323.0 106.5Q324.0 104.0 325.5 102.0Q327.0 100.0 328.0 97.5Q336.5 84.5 347.0 66.5Q357.5 48.5 364.0 37.0Z" fill="black" /></svg>