<svg xmlns="http://www.w3.org/2000/svg" width="745.5" height="465.0" viewBox="0 0 745.5 465.0"><path d="M79.5 214.0Q76.5 211.5 66.75 207.5Q57.0 203.5 46.5 199.75Q36.0 196.0 31.0 195.0Q30.5 197.0 30.0 202.0Q29.5 207.0 29.5 213.5Q29.5 220.5 30.0 228.75Q30.5 237.0 31.0 237.0Q33.0 237.0 40.0 234.0Q47.0 231.0 55.5 227.0Q64.0 223.0 71.0 219.25Q78.0 215.5 79.5 214.0ZM199.0 217.5H181.5Q163.5 217.5 160.5 222.0Q160.0 224.5 159.5 229.25Q159.0 234.0 159.0 241.0Q159.0 254.5 159.75 272.5Q160.5 290.5 161.5 307.75Q162.5 325.0 163.75 337.0Q165.0 349.0 166.0 350.0Q167.0 350.5 179.75 351.5Q192.5 352.5 210.5 352.5H252.0L251.5 291.5Q251.5 275.0 251.0 260.5Q250.5 246.0 250.0 236.75Q249.5 227.5 249.0 227.0H248.5Q246.0 227.0 239.25 229.0Q232.5 231.0 224.0 233.5Q201.5 242.0 196.0 242.0Q190.5 242.0 190.5 238.0Q190.5 236.0 191.5 234.0Q192.5 232.0 193.0 230.0L194.5 228.0Q196.0 224.0 197.5 221.0Q199.0 218.0 199.0 217.5ZM246.0 201.5Q246.0 198.0 244.75 193.0Q243.5 188.0 241.5 185.0L240.5 183.0Q238.0 184.0 232.5 196.5Q226.5 207.5 226.5 213.5Q226.5 214.5 228.0 214.5Q231.0 214.5 236.5 212.5Q246.0 210.0 246.0 201.5ZM287.0 205.0Q287.0 203.5 283.5 201.25Q280.0 199.0 275.5 197.5Q270.5 194.0 268.0 194.0V198.5Q268.0 206.0 277.0 206.0Q281.0 206.0 284.0 205.75Q287.0 205.5 287.0 205.0ZM337.0 225.5H337.5Q335.5 224.5 324.5 223.0Q313.5 221.5 299.5 221.5H268.0V350.5H350.5L346.0 290.0Q344.5 263.0 342.0 245.5Q339.5 228.0 337.0 225.5ZM540.5 203.0 541.0 202.0Q538.5 202.0 530.75 206.75Q523.0 211.5 514.0 218.0Q505.0 224.5 498.5 229.75Q492.0 235.0 492.0 236.0Q492.0 236.0 493.25 236.5Q494.5 237.0 497.5 237.5Q505.0 239.5 510.5 240.5Q516.0 241.5 520.5 241.5Q530.0 241.5 530.0 230.0Q530.0 223.0 532.0 216.5Q534.0 210.0 536.0 208.5Q540.5 206.5 540.5 203.0ZM617.5 185.0Q604.0 173.5 597.75 168.5Q591.5 163.5 587.0 163.5Q583.5 163.5 576.75 172.25Q570.0 181.0 563.0 193.25Q556.0 205.5 551.0 216.0Q546.0 226.5 546.0 230.0Q546.0 235.5 552.5 243.5Q559.0 251.5 569.5 259.5Q580.0 267.5 591.5 273.0Q601.0 278.0 614.5 286.0Q628.0 294.0 637.0 300.0Q645.0 306.0 652.0 310.25Q659.0 314.5 661.0 314.5Q662.0 314.5 663.25 302.5Q664.5 290.5 664.5 276.5Q664.5 271.5 664.5 266.75Q664.5 262.0 664.0 258.0Q663.0 248.0 655.75 234.0Q648.5 220.0 638.25 206.75Q628.0 193.5 617.5 185.0ZM684.0 197.0 691.5 180.5H642.0L651.0 194.5Q656.5 202.5 661.25 210.75Q666.0 219.0 667.5 224.0Q671.0 231.0 673.0 231.0Q674.5 231.0 674.5 226.5Q674.5 222.5 677.5 213.75Q680.5 205.0 684.0 197.0ZM161.0 64.0 162.0 61.5Q162.0 60.5 162.25 60.0Q162.5 59.5 162.5 59.0Q162.5 57.5 158.25 57.25Q154.0 57.0 142.5 57.0Q132.0 57.0 128.0 57.25Q124.0 57.5 123.5 58.5Q124.0 59.0 124.0 60.0Q124.0 61.0 124.5 61.0L125.5 63.0Q126.5 66.0 127.5 70.0Q130.0 76.0 133.0 84.5Q136.0 93.0 139.0 101.5Q140.0 104.5 141.5 108.25Q143.0 112.0 144.0 114.5L147.0 124.0Q148.0 120.5 149.5 114.5Q151.0 108.5 152.5 102.0L154.0 95.0Q156.0 86.0 158.25 77.25Q160.5 68.5 161.0 64.0ZM268.5 111.0Q268.0 110.0 262.0 109.5Q256.0 109.0 248.0 109.0Q231.0 109.0 231.0 114.0Q231.0 118.5 242.5 130.0Q247.5 135.5 251.25 140.5Q255.0 145.5 255.0 147.0Q255.0 147.5 255.25 148.25Q255.5 149.0 255.5 150.0Q259.0 144.0 262.5 134.0L263.5 130.0Q265.5 124.0 267.0 118.75Q268.5 113.5 268.5 111.0ZM364.5 57.5Q364.5 57.5 358.25 57.25Q352.0 57.0 343.5 57.0Q333.0 57.0 328.75 57.25Q324.5 57.5 324.5 58.5Q324.5 60.0 325.5 61.0Q328.0 65.0 330.5 72.5Q333.0 80.0 335.0 86.5Q337.0 92.0 340.75 98.75Q344.5 105.5 347.0 108.5Q349.5 110.5 350.0 111.5Q350.5 112.5 350.5 112.5Q350.5 112.5 350.75 111.5Q351.0 110.5 351.5 110.0Q353.5 103.0 356.5 91.5Q359.5 80.0 362.0 69.75Q364.5 59.5 364.5 57.5ZM379.5 135.5Q379.5 134.5 373.0 134.5Q368.0 134.5 366.75 137.0Q365.5 139.5 365.5 143.5Q366.0 143.5 370.0 142.5Q370.5 142.0 371.75 141.75Q373.0 141.5 374.0 141.0Q376.0 140.5 377.75 138.75Q379.5 137.0 379.5 135.5ZM466.0 127.0V126.0L466.5 125.5Q464.0 125.5 460.0 126.5Q437.0 130.0 411.25 139.25Q385.5 148.5 369.0 163.5Q360.5 168.5 360.5 194.0V216.0L384.0 222.5Q398.5 227.5 415.25 231.75Q432.0 236.0 447.0 236.0Q455.5 236.0 470.25 228.0Q485.0 220.0 501.5 208.25Q518.0 196.5 532.25 185.5Q546.5 174.5 553.5 168.5L571.5 153.5L554.5 146.5Q545.5 143.0 531.0 140.5Q516.5 138.0 500.5 138.0Q480.5 138.0 473.25 136.0Q466.0 134.0 465.5 130.0Q466.0 129.5 466.0 127.0ZM526.5 119.5Q532.5 119.5 536.25 114.0Q540.0 108.5 541.5 101.25Q543.0 94.0 543.0 89.0Q541.0 89.5 536.75 93.25Q532.5 97.0 525.5 105.0L513.0 117.0L520.5 119.0Q522.0 119.5 523.75 119.5Q525.5 119.5 526.5 119.5ZM643.0 68.0Q636.5 59.0 628.75 49.75Q621.0 40.5 616.0 37.0L613.5 36.0Q611.0 33.5 609.5 33.5Q607.5 33.5 604.75 36.0Q602.0 38.5 598.0 42.5L597.0 44.5Q593.5 48.0 586.5 56.75Q579.5 65.5 572.0 76.5Q564.5 87.5 559.5 97.0Q554.5 106.5 554.5 111.5Q554.5 115.5 558.0 121.0Q560.5 127.0 571.0 134.25Q581.5 141.5 595.5 148.5Q609.5 155.5 623.0 160.0Q636.5 164.5 645.5 164.5H658.5V129.5Q658.5 113.0 657.25 103.25Q656.0 93.5 652.75 85.75Q649.5 78.0 643.0 68.0ZM680.5 32.0Q678.5 31.5 672.25 31.0Q666.0 30.5 658.5 30.5H639.0Q640.0 33.0 643.75 39.5Q647.5 46.0 652.0 53.25Q656.5 60.5 660.0 65.75Q663.5 71.0 664.5 71.0Q666.0 71.0 669.25 63.5Q672.5 56.0 676.0 46.5Q679.5 37.0 680.5 32.0ZM216.5 367.5Q199.0 367.0 182.0 366.25Q165.0 365.5 152.5 364.5Q140.0 363.5 135.0 362.5L122.0 358.5V390.5Q122.0 405.5 122.75 412.75Q123.5 420.0 124.0 421.0Q157.0 407.0 183.5 397.25Q210.0 387.5 236.5 379.5Q254.0 375.5 265.5 372.5Q277.0 369.5 277.0 369.5Q277.0 369.5 259.25 368.75Q241.5 368.0 216.5 367.5ZM467.0 253.0Q453.5 252.0 433.0 249.0Q412.5 246.0 397.5 242.5Q373.0 236.0 363.5 236.0H362.5Q361.0 239.0 361.0 259.0Q361.0 272.0 361.75 289.5Q362.5 307.0 364.5 322.0L368.0 347.5L388.0 346.0Q398.0 345.5 420.5 343.25Q443.0 341.0 472.75 337.75Q502.5 334.5 533.5 330.75Q564.5 327.0 590.5 323.5Q608.0 321.0 621.0 319.5Q634.0 318.0 634.0 317.5Q634.0 316.5 625.25 311.25Q616.5 306.0 602.5 298.75Q588.5 291.5 573.0 284.0Q557.5 276.5 543.75 270.25Q530.0 264.0 521.5 261.0Q513.0 257.5 497.0 255.25Q481.0 253.0 467.0 253.0ZM592.5 20.5 592.0 20.0Q595.5 14.5 598.25 12.25Q601.0 10.0 607.5 10.0Q613.5 10.0 623.0 12.0Q635.5 14.5 654.25 16.0Q673.0 17.5 692.5 18.0Q712.0 18.5 726.0 18.5L727.5 21.0Q727.5 23.0 722.75 26.75Q718.0 30.5 711.5 33.5Q695.0 43.0 687.0 64.25Q679.0 85.5 678.0 121.0V162.0L710.5 163.5Q716.0 163.5 720.5 163.5Q725.0 163.5 728.0 164.5H732.0Q735.5 164.5 735.5 167.0Q735.5 172.0 722.0 180.5Q708.5 187.5 700.5 202.75Q692.5 218.0 688.5 236.75Q684.5 255.5 683.25 273.5Q682.0 291.5 682.0 304.5Q682.0 311.0 682.0 316.5Q682.0 322.0 682.5 327.5L683.0 332.5Q683.0 338.0 683.25 343.0Q683.5 348.0 683.5 352.0Q683.5 372.0 677.5 372.0Q674.0 372.0 671.75 366.0Q669.5 360.0 669.5 351.5Q669.5 345.0 668.0 339.5Q666.5 334.0 665.5 332.0H662.0Q653.0 332.0 630.5 334.25Q608.0 336.5 581.5 340.0Q558.5 343.0 529.75 346.75Q501.0 350.5 473.75 353.5Q446.5 356.5 427.0 358.5Q394.0 362.0 356.0 369.25Q318.0 376.5 280.0 386.0Q242.0 395.5 208.75 405.75Q175.5 416.0 152.25 426.0Q129.0 436.0 121.0 444.5Q116.5 449.0 112.75 452.0Q109.0 455.0 108.0 455.0Q103.5 455.0 103.5 439.5Q103.5 434.0 103.5 426.5Q103.5 419.0 104.0 410.5L104.5 403.0V396.0Q106.0 383.0 106.0 374.5Q106.0 356.0 103.0 354.0Q100.5 352.0 98.25 346.25Q96.0 340.5 96.0 335.0V315.5L114.0 332.5Q118.5 337.5 125.5 341.0Q132.5 344.5 137.5 344.5H147.5L144.5 287.5Q144.0 271.5 143.0 256.75Q142.0 242.0 141.0 232.0Q140.0 222.0 139.5 220.5Q139.0 217.5 128.5 217.5Q118.0 217.5 101.5 222.75Q85.0 228.0 68.75 236.75Q52.5 245.5 41.5 256.0Q23.0 273.0 15.5 273.0Q10.0 273.0 10.0 265.0Q10.0 263.5 10.0 261.5Q10.0 259.5 10.5 257.5L11.0 253.0Q13.5 247.0 14.5 230.0Q15.5 213.0 15.5 197.0Q15.5 179.0 16.5 166.5Q17.5 154.0 20.0 154.0Q21.0 154.0 26.75 158.75Q32.5 163.5 37.5 169.5Q45.0 178.0 58.75 185.0Q72.5 192.0 89.5 196.25Q106.5 200.5 123.0 200.5H143.0L140.0 174.5Q138.0 161.5 133.75 144.0Q129.5 126.5 124.0 109.0Q118.5 91.5 113.25 78.5Q108.0 65.5 104.5 61.5Q101.0 58.5 98.25 54.75Q95.5 51.0 95.5 49.0Q95.5 42.5 107.5 40.25Q119.5 38.0 145.0 38.0Q165.5 38.0 180.25 39.25Q195.0 40.5 195.0 42.0Q195.0 43.5 192.75 47.5Q190.5 51.5 187.0 56.0L184.0 60.0Q175.5 71.0 170.25 95.25Q165.0 119.5 161.0 161.0L157.0 200.5H210.5L220.5 178.5Q225.0 171.5 226.75 165.5Q228.5 159.5 228.5 153.5Q228.5 146.0 224.5 136.75Q220.5 127.5 213.5 116.0Q208.5 109.0 205.5 103.0Q202.5 97.0 202.5 94.0L203.0 92.5Q207.0 92.0 220.25 91.5Q233.5 91.0 250.5 90.5H264.0Q283.0 90.5 290.5 92.25Q298.0 94.0 298.0 99.0Q298.0 103.0 295.75 106.0Q293.5 109.0 290.0 109.0Q286.5 109.0 283.5 116.25Q280.5 123.5 278.25 133.75Q276.0 144.0 274.5 153.0Q273.0 162.0 273.0 165.5Q274.0 171.5 281.5 178.5Q289.0 185.5 299.5 191.5Q310.0 197.5 320.0 202.25Q330.0 207.0 335.5 208.5L338.5 209.0Q339.5 209.0 340.25 209.25Q341.0 209.5 341.5 209.5Q344.0 209.5 344.0 198.0Q344.0 188.5 343.5 187.5Q343.5 188.0 342.75 188.25Q342.0 188.5 341.5 189.5Q338.5 191.0 336.5 191.0Q332.5 191.0 330.5 180.25Q328.5 169.5 327.0 145.0Q325.0 117.5 322.25 102.75Q319.5 88.0 311.0 73.5Q305.5 62.5 301.25 54.25Q297.0 46.0 297.0 44.0Q297.0 41.5 312.0 39.75Q327.0 38.0 347.0 38.0Q367.5 38.0 381.75 39.25Q396.0 40.5 396.5 42.0Q396.5 43.5 394.0 48.25Q391.5 53.0 387.5 58.0L384.5 62.0Q380.0 68.0 376.5 78.75Q373.0 89.5 372.0 99.0L369.0 117.5H394.5Q402.0 117.5 414.0 116.5Q426.0 115.5 438.75 113.75Q451.5 112.0 462.0 110.5Q479.5 107.0 490.25 103.25Q501.0 99.5 512.75 91.0Q524.5 82.5 543.5 66.5Q561.0 52.0 575.0 38.25Q589.0 24.5 592.5 20.5Z" fill="black" /></svg>