<svg xmlns="http://www.w3.org/2000/svg" width="1374.0" height="405.0" viewBox="0 0 1374.0 405.0"><path d="M124.5 317.0Q111.5 316.0 94.0 314.5Q76.5 313.0 66.5 311.0L46.0 306.5V352.5L70.5 345.5Q82.5 342.0 104.75 336.75Q127.0 331.5 147.0 328.0L152.5 326.5Q163.0 324.5 169.75 323.75Q176.5 323.0 180.0 322.5L178.5 322.0Q170.5 319.5 154.75 318.5Q139.0 317.5 124.5 317.0ZM136.0 193.5 136.5 189.5Q137.0 187.0 137.25 185.25Q137.5 183.5 137.5 181.5Q135.5 184.0 131.5 188.0Q127.5 192.0 123.5 196.5L111.0 210.0H119.5Q128.0 210.0 131.25 206.5Q134.5 203.0 136.0 193.5ZM958.0 204.5V191.5Q957.5 192.0 957.25 194.5Q957.0 197.0 956.0 201.0V204.5Q955.5 205.5 955.5 207.5Q955.5 210.0 957.0 213.0Q958.0 210.0 958.0 204.5ZM1022.0 285.5Q1015.5 285.5 996.0 280.75Q976.5 276.0 956.0 270.0Q945.0 266.5 934.75 264.0Q924.5 261.5 917.0 259.5Q934.0 270.5 950.75 282.75Q967.5 295.0 982.0 309.5L1002.5 327.0L1018.0 310.0L1022.0 304.0Q1032.5 289.5 1032.5 286.5Q1032.5 285.5 1022.0 285.5ZM1147.0 281.5Q1147.0 279.0 1140.5 279.0Q1138.0 279.0 1136.25 281.0Q1134.5 283.0 1134.5 285.5Q1134.5 289.0 1137.0 289.0Q1138.5 289.0 1140.0 288.5Q1142.5 287.0 1144.75 285.25Q1147.0 283.5 1147.0 281.5ZM1001.5 131.0Q1001.5 121.5 989.0 121.5Q983.5 121.5 981.0 123.75Q978.5 126.0 978.0 135.25Q977.5 144.5 977.5 166.0Q977.5 199.5 979.0 205.5Q982.0 201.0 985.75 191.0Q989.5 181.0 993.0 169.0Q996.5 157.0 999.0 146.75Q1001.5 136.5 1001.5 131.0ZM1004.0 223.5 1004.5 223.0V222.0Q1004.5 215.5 1001.5 207.5Q1001.5 207.0 1001.25 206.5Q1001.0 206.0 1001.0 205.5V206.0Q1000.5 207.5 1000.5 211.0Q1000.5 216.0 1001.5 219.75Q1002.5 223.5 1004.0 223.5ZM1048.5 147.5Q1049.0 144.0 1049.0 141.0Q1049.0 138.0 1049.0 135.5Q1049.0 128.5 1045.75 126.25Q1042.5 124.0 1035.5 123.5L1020.5 121.5V168.0Q1020.5 188.5 1021.75 203.0Q1023.0 217.5 1024.5 218.5Q1028.5 218.0 1033.75 206.0Q1039.0 194.0 1043.25 177.5Q1047.5 161.0 1048.5 147.5ZM1050.5 228.0Q1051.5 227.5 1051.75 225.25Q1052.0 223.0 1052.0 220.0V209.0Q1052.0 209.0 1051.75 211.0Q1051.5 213.0 1050.0 216.0Q1048.5 221.0 1048.5 225.5Q1048.5 227.5 1048.75 228.5Q1049.0 229.5 1049.0 229.5Q1049.0 229.5 1050.5 228.0ZM1100.0 173.0Q1091.0 167.5 1082.25 163.5Q1073.5 159.5 1071.0 159.0Q1072.0 160.0 1072.0 163.75Q1072.0 167.5 1072.0 172.5Q1072.0 175.5 1072.0 178.75Q1072.0 182.0 1072.5 186.0Q1073.0 198.0 1075.25 205.5Q1077.5 213.0 1083.5 219.5Q1089.5 226.0 1101.5 235.5Q1110.0 241.5 1117.0 245.5Q1124.0 249.5 1128.0 249.5Q1133.5 249.5 1137.0 243.25Q1140.5 237.0 1142.5 229.25Q1144.5 221.5 1144.5 217.0Q1142.5 194.5 1100.0 173.0ZM1134.5 135.5Q1111.5 132.5 1097.75 130.5Q1084.0 128.5 1077.0 128.5Q1070.5 128.5 1070.5 131.0Q1070.5 134.5 1083.0 142.0Q1095.5 149.5 1114.75 158.5Q1134.0 167.5 1154.25 175.5Q1174.5 183.5 1189.5 188.0Q1192.0 188.5 1194.75 188.75Q1197.5 189.0 1199.0 189.0Q1201.5 189.0 1202.0 185.0Q1202.5 181.0 1202.5 169.5V167.0Q1202.5 158.5 1201.0 153.75Q1199.5 149.0 1193.5 146.0Q1187.5 143.0 1173.5 140.75Q1159.5 138.5 1134.5 135.5ZM1183.0 204.0H1175.0Q1166.0 204.0 1162.5 217.5L1161.5 223.5L1169.5 216.5Q1172.0 213.5 1174.75 211.0Q1177.5 208.5 1179.5 206.5Q1181.0 205.5 1181.75 205.0Q1182.5 204.5 1183.0 204.0ZM1197.5 228.5Q1197.5 222.0 1195.5 222.0Q1193.0 222.0 1187.0 227.0Q1181.0 232.0 1174.25 239.25Q1167.5 246.5 1162.5 252.75Q1157.5 259.0 1157.5 262.0Q1157.5 266.0 1172.5 266.0Q1182.5 266.0 1190.0 255.0Q1197.5 244.0 1197.5 228.5ZM1211.5 306.5Q1207.5 278.0 1205.0 278.0Q1203.0 278.0 1197.5 293.5Q1195.0 301.5 1192.25 309.75Q1189.5 318.0 1186.0 325.0V324.5Q1186.0 325.0 1185.75 325.25Q1185.5 325.5 1185.5 325.5Q1186.0 329.0 1199.0 329.0Q1207.5 329.0 1210.5 328.25Q1213.5 327.5 1213.5 322.5Q1213.5 319.5 1213.0 315.5Q1212.5 311.5 1211.5 306.5ZM173.0 105.5Q174.0 103.0 174.5 98.75Q175.0 94.5 175.0 94.5Q173.0 96.0 171.25 98.0Q169.5 100.0 167.5 102.0Q161.0 108.5 154.25 114.75Q147.5 121.0 147.5 122.0H159.0Q166.0 122.0 169.0 119.25Q172.0 116.5 173.0 105.5ZM279.5 206.5Q281.0 203.5 284.5 195.75Q288.0 188.0 288.0 185.5Q288.0 185.5 286.25 185.25Q284.5 185.0 282.0 185.0Q273.5 185.0 273.5 187.5Q273.5 191.0 278.5 202.0Q279.0 203.5 279.25 204.5Q279.5 205.5 279.5 206.5ZM358.0 208.5 358.5 209.0Q358.5 208.5 359.0 208.0Q359.5 207.5 359.5 207.5Q359.0 205.5 357.75 203.75Q356.5 202.0 355.5 201.5Q353.5 201.0 352.5 201.0Q350.5 201.0 349.5 203.75Q348.5 206.5 348.5 209.0Q348.5 211.5 349.75 214.75Q351.0 218.0 353.0 220.5L354.0 221.0Q354.5 221.0 354.75 221.0Q355.0 221.0 355.5 221.0Q356.0 219.0 356.75 215.75Q357.5 212.5 358.0 208.5ZM362.0 127.5Q350.5 119.0 337.25 109.0Q324.0 99.0 317.0 92.5L304.0 80.0L283.0 121.5L320.0 127.5Q329.0 129.0 338.75 131.0Q348.5 133.0 356.5 135.0Q359.0 135.5 361.5 135.5Q364.0 135.5 366.0 136.0Q368.0 136.5 369.5 136.75Q371.0 137.0 373.0 137.0Q374.0 137.5 376.0 137.5Q373.5 135.5 370.0 133.0Q366.5 130.5 362.0 127.5ZM1202.5 121.0V117.0Q1199.5 117.0 1196.5 118.5Q1192.5 119.0 1188.0 119.75Q1183.5 120.5 1178.0 121.5L1175.5 122.0L1179.5 123.0Q1184.0 123.5 1187.75 123.5Q1191.5 123.5 1194.0 123.5Q1202.5 123.5 1202.5 121.0ZM1319.0 126.0Q1319.0 124.5 1320.0 121.5Q1322.0 116.0 1322.0 113.0Q1322.0 110.0 1317.5 110.0Q1315.5 110.0 1315.0 111.0H1312.0Q1223.5 117.0 1223.5 124.0Q1223.5 125.5 1235.0 129.5Q1246.5 133.5 1266.5 137.5Q1282.5 141.0 1296.0 143.25Q1309.5 145.5 1314.0 146.0Q1315.0 143.5 1316.5 137.75Q1318.0 132.0 1319.0 126.0ZM179.5 61.5Q199.0 43.0 212.5 33.0Q226.0 23.0 231.0 23.0Q236.0 23.0 236.0 28.0Q236.0 34.0 223.5 51.0Q209.5 69.0 202.0 84.5Q194.5 100.0 194.5 108.0Q194.5 110.5 195.5 111.5Q198.5 114.5 199.5 118.25Q200.5 122.0 200.5 126.0Q200.0 127.0 200.0 128.0V128.5Q201.0 132.5 209.5 138.0Q218.0 143.5 230.75 149.0Q243.5 154.5 257.5 158.5Q271.5 162.5 283.5 164.0Q300.5 166.0 307.25 168.25Q314.0 170.5 314.0 176.5Q314.0 179.5 313.5 181.0L312.5 182.0Q285.5 242.0 285.5 276.5Q285.5 301.0 300.5 304.0H307.0Q312.5 304.0 319.0 303.25Q325.5 302.5 329.5 301.5Q336.0 300.5 338.5 298.5Q341.0 296.5 341.0 290.0Q341.0 271.0 336.75 248.5Q332.5 226.0 325.5 208.5Q322.0 200.0 319.75 191.75Q317.5 183.5 317.5 181.5Q317.5 177.5 325.0 177.5Q332.0 177.5 345.0 179.5Q358.0 181.5 369.5 184.25Q381.0 187.0 384.0 189.0Q385.0 190.0 385.0 193.5Q385.0 196.0 383.25 201.25Q381.5 206.5 379.5 212.5L377.0 218.0Q372.0 228.0 367.75 244.25Q363.5 260.5 361.5 272.0L359.5 299.0L386.0 296.0Q395.0 295.0 412.75 293.25Q430.5 291.5 452.5 289.5Q474.5 287.5 495.5 286.0Q512.5 284.5 530.25 282.75Q548.0 281.0 563.5 280.0Q568.5 279.0 573.0 278.75Q577.5 278.5 581.5 278.0Q590.0 277.5 596.75 276.75Q603.5 276.0 608.0 275.5L630.5 272.5L538.5 228.5Q494.5 206.0 447.5 186.0Q400.5 166.0 351.25 153.5Q302.0 141.0 251.5 141.0L249.5 138.0Q249.5 136.5 254.0 129.0Q258.5 121.5 264.5 113.5Q270.5 104.0 276.75 90.25Q283.0 76.5 286.0 67.5Q290.0 56.0 293.75 48.25Q297.5 40.5 300.5 40.5Q303.0 40.5 308.0 46.25Q313.0 52.0 317.5 59.5Q331.5 84.5 395.25 125.5Q459.0 166.5 567.0 220.0Q623.5 249.0 646.5 262.5Q669.5 276.0 669.5 282.5Q669.5 284.0 668.0 285.5L667.5 286.5Q666.0 287.5 649.75 289.75Q633.5 292.0 608.0 294.5Q582.5 297.0 553.25 299.75Q524.0 302.5 496.5 304.75Q469.0 307.0 448.5 308.75Q428.0 310.5 420.0 311.0Q406.5 311.5 397.5 312.25Q388.5 313.0 384.5 313.5L361.0 317.0V345.5Q361.0 358.0 358.75 369.25Q356.5 380.5 352.5 382.5L351.0 383.0Q347.0 383.0 344.25 373.75Q341.5 364.5 341.5 348.5V317.5L322.0 320.5Q306.0 322.5 298.0 324.75Q290.0 327.0 287.5 331.25Q285.0 335.5 285.0 345.0Q285.0 354.0 282.75 360.5Q280.5 367.0 276.0 367.0Q272.0 367.0 270.0 361.5Q268.0 356.0 267.5 349.5Q267.0 343.0 267.0 341.0Q267.0 335.5 265.25 332.75Q263.5 330.0 256.5 330.0Q248.0 330.0 231.0 332.5Q214.0 335.0 184.5 340.5L177.5 341.5Q116.0 352.5 79.25 363.5Q42.5 374.5 29.0 387.5Q24.5 391.5 20.75 393.25Q17.0 395.0 14.5 395.0Q10.0 395.0 10.0 389.0Q10.0 385.5 12.0 379.0Q14.0 372.5 19.5 364.5Q27.0 355.0 27.0 338.5Q27.0 330.5 25.5 318.5L22.0 283.0L46.5 289.5Q58.5 291.5 81.25 293.75Q104.0 296.0 131.25 298.25Q158.5 300.5 184.25 302.25Q210.0 304.0 228.5 304.5H269.5L266.5 258.0Q264.5 229.0 259.5 212.0Q254.5 195.0 243.5 183.75Q232.5 172.5 212.0 162.0Q200.0 155.5 190.0 151.5Q180.0 147.5 179.0 147.5Q177.0 147.5 172.5 154.75Q168.0 162.0 163.5 172.0Q159.0 182.0 155.75 191.25Q152.5 200.5 152.5 204.5Q152.5 206.0 154.0 208.0Q155.5 210.0 157.0 210.0Q161.5 210.0 162.75 212.0Q164.0 214.0 164.0 218.0Q163.5 218.5 163.5 219.5Q163.5 221.5 170.75 227.5Q178.0 233.5 189.0 240.5Q203.0 249.0 212.75 257.75Q222.5 266.5 222.5 269.5Q222.5 279.0 213.5 279.0Q206.0 279.0 201.0 271.0Q198.0 266.0 186.5 259.5Q175.0 253.0 159.25 246.75Q143.5 240.5 127.5 236.0Q111.5 231.5 99.0 230.5L55.5 226.0L84.5 205.0Q94.0 198.0 108.0 184.75Q122.0 171.5 131.5 160.5L151.5 141.0H128.0L87.5 139.5L114.0 121.5Q119.5 117.0 130.25 108.0Q141.0 99.0 154.0 86.75Q167.0 74.5 179.5 61.5ZM969.0 14.0 970.0 12.5Q972.0 11.5 973.5 10.75Q975.0 10.0 977.0 10.0Q983.5 10.0 983.5 32.5V42.5Q983.5 46.0 983.25 49.75Q983.0 53.5 983.0 57.5L982.0 65.5Q982.0 71.5 981.75 76.5Q981.5 81.5 981.5 85.0Q981.5 96.0 983.5 98.5Q985.5 101.0 990.5 102.0H992.5Q993.0 103.0 993.5 103.0Q1008.5 103.0 1008.5 57.5Q1008.5 41.5 1012.0 29.5Q1015.5 17.5 1021.5 17.0Q1022.0 17.0 1023.25 17.5Q1024.5 18.0 1025.0 18.5Q1028.5 22.0 1028.5 34.0Q1028.5 39.0 1028.0 46.25Q1027.5 53.5 1026.0 60.5L1025.5 70.5Q1024.0 83.0 1024.0 91.0Q1024.0 99.0 1027.5 101.25Q1031.0 103.5 1038.5 103.5Q1057.5 103.5 1057.5 49.5Q1057.5 40.0 1060.75 34.0Q1064.0 28.0 1068.5 28.0Q1076.5 28.0 1076.5 48.0Q1076.5 51.5 1076.5 57.25Q1076.5 63.0 1075.5 69.0L1072.5 104.5L1206.5 100.5L1208.5 65.5Q1209.5 48.0 1212.5 38.25Q1215.5 28.5 1219.0 28.5Q1222.5 28.5 1225.25 37.75Q1228.0 47.0 1228.0 65.5V99.5L1275.5 95.5Q1298.0 93.0 1316.5 89.25Q1335.0 85.5 1340.0 81.5Q1346.5 77.5 1351.5 75.5Q1356.5 73.5 1358.5 73.0Q1364.0 74.0 1364.0 79.0Q1364.0 83.5 1351.5 100.5Q1344.0 108.5 1341.0 118.5Q1338.0 128.5 1338.0 141.5Q1338.0 154.0 1336.0 162.75Q1334.0 171.5 1331.0 171.5Q1330.0 171.5 1314.0 167.75Q1298.0 164.0 1277.5 158.0Q1258.5 154.0 1242.0 150.75Q1225.5 147.5 1223.0 147.5Q1222.5 147.5 1222.0 153.75Q1221.5 160.0 1221.5 168.5Q1221.5 178.5 1222.75 184.75Q1224.0 191.0 1226.0 191.0Q1233.5 191.0 1233.5 196.0Q1233.5 198.5 1227.5 201.5Q1225.5 204.0 1224.25 212.75Q1223.0 221.5 1223.0 233.0Q1223.0 248.5 1225.0 267.0Q1227.0 285.5 1230.25 301.25Q1233.5 317.0 1238.0 325.0Q1245.5 341.5 1245.5 347.0Q1245.5 348.0 1245.25 349.25Q1245.0 350.5 1245.0 350.5Q1243.0 353.0 1234.0 353.0Q1226.0 353.0 1213.5 351.25Q1201.0 349.5 1188.5 347.0Q1176.0 344.5 1167.5 342.0Q1159.0 339.5 1159.0 337.5Q1159.0 334.5 1162.75 325.5Q1166.5 316.5 1171.0 305.5Q1175.0 299.5 1177.25 294.5Q1179.5 289.5 1180.5 286.5Q1174.0 289.0 1158.25 299.25Q1142.5 309.5 1120.5 324.0Q1108.5 333.5 1097.0 340.0Q1085.5 346.5 1083.0 346.5L1081.0 346.0L1080.5 343.0Q1080.5 339.5 1085.5 331.0Q1090.5 322.5 1097.0 313.0Q1111.5 294.5 1112.5 279.0Q1111.0 271.5 1106.0 264.25Q1101.0 257.0 1091.0 251.5Q1086.0 249.0 1082.0 246.75Q1078.0 244.5 1077.0 244.5V248.0Q1077.0 258.0 1070.5 258.0Q1069.5 258.0 1065.5 257.0Q1065.0 256.5 1064.0 256.25Q1063.0 256.0 1062.0 255.5Q1057.5 252.5 1045.5 249.25Q1033.5 246.0 1018.5 243.0Q1003.5 240.0 988.5 238.0Q959.0 234.0 944.25 229.5Q929.5 225.0 929.5 217.5Q929.5 215.5 930.0 213.0L931.0 212.5Q936.0 200.5 941.5 184.25Q947.0 168.0 951.0 151.5Q955.0 135.0 955.5 123.0Q953.5 120.5 919.25 117.75Q885.0 115.0 821.0 112.5Q785.5 111.5 750.75 110.25Q716.0 109.0 690.5 107.5Q665.0 106.0 656.0 105.0Q652.5 104.5 649.75 104.5Q647.0 104.5 645.0 104.5H644.5Q649.0 108.0 711.0 140.0Q759.5 166.0 814.25 192.5Q869.0 219.0 925.5 240.0Q982.0 261.0 1036.0 270.0Q1049.0 271.5 1059.75 274.5Q1070.5 277.5 1070.5 278.5Q1070.5 279.0 1062.25 289.5Q1054.0 300.0 1042.0 312.0Q1030.0 323.0 1022.0 334.5Q1014.0 346.0 1014.0 350.5Q1014.0 354.0 1010.25 361.0Q1006.5 368.0 1001.5 373.5Q996.5 379.0 992.5 379.0Q989.0 379.0 989.0 374.5Q989.0 371.0 990.5 365.0Q991.5 363.5 991.5 359.0Q991.5 347.5 977.0 331.75Q962.5 316.0 938.25 297.75Q914.0 279.5 884.25 261.0Q854.5 242.5 823.25 224.75Q792.0 207.0 763.75 191.75Q735.5 176.5 714.25 165.75Q693.0 155.0 683.5 150.0Q591.0 104.5 591.0 94.5Q591.0 91.5 592.5 91.0Q595.5 87.0 630.5 87.0Q645.5 87.0 668.25 87.5Q691.0 88.0 720.0 90.0Q752.5 92.0 787.5 93.75Q822.5 95.5 852.25 96.25Q882.0 97.0 899.0 97.0H957.5L960.5 80.5Q962.5 72.0 963.75 60.25Q965.0 48.5 965.0 40.5Q965.0 32.0 966.0 24.5Q967.0 17.0 969.0 14.0Z" fill="black" /></svg>