<svg xmlns="http://www.w3.org/2000/svg" width="736.0" height="386.0" viewBox="0 0 736.0 386.0"><path d="M86.5 216.5 87.5 217.0Q88.5 214.5 89.75 211.75Q91.0 209.0 91.0 209.0Q86.5 210.5 79.25 213.75Q72.0 217.0 66.5 219.5Q61.0 222.0 61.5 222.0Q61.5 222.5 65.0 224.0L68.5 225.0Q71.5 226.0 73.5 226.5Q74.5 227.0 76.0 227.25Q77.5 227.5 78.0 227.5Q83.0 227.5 86.5 216.5ZM219.0 187.5H218.0Q216.0 185.5 208.25 183.25Q200.5 181.0 192.75 179.0Q185.0 177.0 181.0 177.0Q178.5 177.0 177.0 178.5Q175.5 180.0 173.0 183.0L172.0 184.5Q169.5 188.5 167.5 197.5Q165.5 206.5 164.25 216.25Q163.0 226.0 163.0 234.0Q163.0 237.0 163.0 239.5Q163.0 242.0 163.5 243.0Q169.0 242.0 178.25 237.25Q187.5 232.5 198.5 226.5Q223.0 211.5 224.0 209.0H223.5Q213.5 206.5 213.5 202.5Q213.5 199.5 221.0 196.0Q225.0 194.5 225.0 193.0Q225.0 192.0 219.0 187.5ZM208.5 241.0 210.5 238.0Q211.0 237.0 211.5 236.5Q206.5 239.0 201.75 242.0Q197.0 245.0 194.5 246.5Q195.0 247.0 195.5 247.0Q196.0 247.0 196.5 247.5Q197.5 247.5 198.0 247.75Q198.5 248.0 199.0 248.0Q205.5 247.5 208.5 241.0ZM386.0 324.0 414.5 306.5 356.0 303.5 353.0 324.5Q351.0 334.5 351.0 345.0Q352.0 344.5 354.0 343.25Q356.0 342.0 358.5 340.5Q368.5 334.0 386.0 324.0ZM88.0 105.5V105.0Q89.0 103.5 89.75 102.0Q90.5 100.5 91.0 99.5Q90.0 100.0 88.75 100.5Q87.5 101.0 86.5 101.5Q85.5 102.5 83.75 103.25Q82.0 104.0 80.5 105.0L77.5 107.5Q69.5 114.0 69.5 115.0H78.0Q85.0 115.0 88.0 105.5ZM142.5 84.0 142.0 81.5Q140.0 75.5 138.0 75.5Q135.0 75.5 129.0 80.75Q123.0 86.0 116.75 93.75Q110.5 101.5 106.0 108.5Q101.5 115.5 101.0 119.0Q107.5 120.5 107.5 129.0V130.5Q107.5 133.0 112.5 134.25Q117.5 135.5 129.5 136.0L151.0 137.0L148.0 115.5Q147.5 107.0 145.75 98.25Q144.0 89.5 142.5 84.0ZM171.0 153.0H137.0V153.5Q139.5 156.0 143.5 156.0H144.0Q153.0 156.0 153.0 165.0V166.5Q153.0 171.0 152.5 173.0Q152.5 174.5 152.25 175.5Q152.0 176.5 152.0 177.5Q152.0 185.0 152.5 185.0Q156.0 185.0 171.0 153.0ZM223.5 154.5 224.5 153.5Q222.5 154.5 220.75 155.75Q219.0 157.0 216.5 158.0Q211.5 161.5 207.5 164.0Q208.0 164.0 208.25 164.25Q208.5 164.5 209.0 164.5H208.5Q211.0 165.0 213.75 165.75Q216.5 166.5 216.5 166.5Q217.5 164.0 219.5 161.0Q221.5 158.0 223.5 154.5ZM303.5 160.0 304.0 159.5Q299.0 163.0 291.5 168.25Q284.0 173.5 277.5 178.25Q271.0 183.0 268.0 186.0Q270.0 187.5 270.0 190.0Q270.0 193.0 267.0 197.0Q266.5 197.5 266.25 198.0Q266.0 198.5 265.5 199.0Q266.0 199.5 266.5 199.5Q267.0 199.5 267.5 200.0Q270.0 200.5 272.75 201.25Q275.5 202.0 277.0 202.0Q283.0 202.0 284.5 193.0Q285.5 187.0 291.25 177.5Q297.0 168.0 303.5 160.0ZM383.0 181.5Q380.0 189.5 380.0 202.5V206.5Q381.0 219.0 382.25 223.0Q383.5 227.0 389.5 228.0Q391.5 228.0 392.0 228.5Q392.5 228.5 392.75 228.75Q393.0 229.0 393.5 229.0Q397.0 229.0 397.0 218.0Q397.0 213.0 394.25 205.25Q391.5 197.5 389.0 191.5Q387.0 189.0 385.5 186.25Q384.0 183.5 383.0 181.5ZM403.5 249.0 400.5 248.5Q390.0 245.5 384.0 245.5Q377.0 245.5 377.0 248.5Q377.0 251.5 380.0 256.5L381.0 257.0Q381.5 257.5 382.0 257.75Q382.5 258.0 382.5 258.0Q387.0 258.0 396.0 252.5Q399.5 251.0 401.5 250.5Q403.5 250.0 404.0 249.5H404.5Q404.5 249.5 404.25 249.25Q404.0 249.0 403.5 249.0ZM392.5 172.0Q393.0 171.5 393.0 171.25Q393.0 171.0 393.5 170.5Q393.0 170.5 390.0 171.5Q391.0 171.5 391.5 171.75Q392.0 172.0 392.5 172.0ZM427.5 202.0V201.0Q423.5 193.0 421.0 193.0Q418.0 193.0 415.5 199.75Q413.0 206.5 413.0 218.0Q413.0 229.0 414.25 231.25Q415.5 233.5 422.0 233.5Q428.5 233.5 430.25 232.0Q432.0 230.5 432.0 224.0Q432.0 219.0 431.0 212.25Q430.0 205.5 427.5 202.0ZM447.0 163.5 441.5 154.5 443.0 155.5Q442.0 154.0 441.0 152.5Q440.0 151.0 439.0 149.5Q436.5 146.0 435.5 144.5Q435.0 145.0 429.0 151.5L420.0 163.5ZM548.5 144.5Q516.5 128.0 480.75 113.5Q445.0 99.0 408.0 99.0Q381.0 99.0 366.0 111.5Q361.5 116.0 352.0 126.75Q342.5 137.5 331.75 150.5Q321.0 163.5 313.0 174.25Q305.0 185.0 303.5 189.0Q298.5 197.5 298.5 205.5Q298.5 223.0 317.5 246.0Q325.0 256.0 331.5 265.25Q338.0 274.5 339.0 278.5Q341.0 284.0 355.5 287.0Q370.0 290.0 391.0 290.0Q409.0 290.0 430.25 287.75Q451.5 285.5 474.0 281.0Q483.5 279.0 502.75 274.25Q522.0 269.5 546.5 263.25Q571.0 257.0 596.25 250.0Q621.5 243.0 644.25 236.5Q667.0 230.0 682.5 225.25Q698.0 220.5 702.0 219.0Q697.5 217.5 683.25 211.5Q669.0 205.5 651.0 197.0Q636.5 190.0 617.5 180.5Q598.5 171.0 580.25 161.5Q562.0 152.0 548.5 144.5ZM492.5 192.0 488.0 190.5Q480.0 188.0 473.75 186.0Q467.5 184.0 465.0 184.0H464.0Q457.5 184.5 452.5 194.5Q447.5 204.5 447.5 217.5V234.0L467.0 232.0Q483.0 230.0 499.0 227.75Q515.0 225.5 530.5 223.5L560.5 220.0L543.0 212.0Q540.5 211.0 537.25 209.75Q534.0 208.5 531.0 207.0L525.0 204.5Q505.0 196.0 492.5 192.0ZM162.0 56.5 169.5 48.0H156.0Q156.5 48.5 156.5 50.5Q156.5 54.0 154.5 58.5Q152.5 60.5 152.0 62.75Q151.5 65.0 151.5 66.0V66.5Q155.5 64.5 162.0 56.5ZM233.0 65.0H233.5Q234.5 64.0 234.5 63.0Q233.0 63.5 230.5 65.0Q228.0 66.5 225.5 68.0L224.5 68.5Q223.0 70.0 221.75 71.0Q220.5 72.0 219.5 73.0L221.0 73.5Q225.0 75.0 228.0 75.0L228.5 74.5Q229.5 73.5 230.5 71.0Q231.5 68.5 233.0 65.0ZM463.0 90.0 455.0 83.0Q447.0 76.0 438.75 66.75Q430.5 57.5 426.0 51.0L417.5 41.0L407.0 57.5Q402.0 65.5 398.0 73.0Q394.0 80.5 394.0 81.5Q394.0 82.0 400.5 82.75Q407.0 83.5 415.0 84.0Q425.0 84.0 438.5 85.75Q452.0 87.5 459.0 89.0ZM255.0 30.5Q269.0 20.0 278.0 15.0Q287.0 10.0 289.5 10.0Q294.0 10.0 294.0 14.0Q294.0 19.0 268.5 47.0Q246.5 70.0 245.5 76.0H246.5Q252.5 76.0 252.5 81.5Q252.5 84.0 252.0 85.0H252.5L251.0 86.0Q251.5 91.0 257.5 96.5Q263.5 102.0 268.0 102.0Q278.0 102.0 280.5 110.75Q283.0 119.5 283.0 127.0Q283.0 133.5 277.0 135.0Q274.0 135.0 268.5 131.0Q268.5 130.5 266.5 130.5Q265.0 130.5 260.0 135.0Q255.0 139.5 249.0 146.0Q243.0 152.5 238.25 158.5Q233.5 164.5 232.5 167.5Q239.0 167.5 239.0 174.0Q239.0 174.5 239.0 175.75Q239.0 177.0 238.5 178.5Q237.5 179.5 237.5 182.0Q241.5 181.0 254.5 173.25Q267.5 165.5 289.0 149.5Q322.5 125.5 342.25 109.25Q362.0 93.0 373.75 78.5Q385.5 64.0 394.5 46.0Q402.0 33.0 408.75 23.75Q415.5 14.5 416.5 14.5Q418.5 14.5 424.0 21.0Q429.5 27.5 434.5 36.0Q447.0 54.0 470.0 73.25Q493.0 92.5 531.25 115.0Q569.5 137.5 627.5 166.0Q650.0 177.5 669.0 187.75Q688.0 198.0 700.25 204.75Q712.5 211.5 713.5 213.5L715.0 214.5Q715.5 215.0 715.5 215.0H718.0Q724.0 215.0 726.0 219.5Q726.0 221.5 714.25 226.5Q702.5 231.5 682.5 238.75Q662.5 246.0 637.0 254.0Q611.5 262.0 584.25 269.75Q557.0 277.5 530.5 284.0Q517.5 287.5 502.0 292.25Q486.5 297.0 472.5 301.5Q458.5 306.0 450.0 309.5Q430.5 318.0 409.5 329.25Q388.5 340.5 372.75 350.75Q357.0 361.0 353.0 366.5Q347.0 376.0 343.0 376.0Q335.0 376.0 335.0 356.5Q335.0 354.0 335.0 351.0Q335.0 348.0 335.5 344.5Q336.5 335.5 337.25 326.25Q338.0 317.0 338.0 308.0Q338.0 300.5 338.5 299.0Q335.0 299.0 331.0 295.0Q327.0 291.0 324.0 285.5Q320.5 277.5 313.25 267.5Q306.0 257.5 297.5 248.25Q289.0 239.0 281.75 232.5Q274.5 226.0 270.5 225.5H267.5Q261.0 225.5 255.5 219.5V220.0Q252.0 215.0 251.0 215.0Q249.5 215.0 245.25 219.5Q241.0 224.0 236.25 230.25Q231.5 236.5 228.0 242.0Q224.5 247.5 224.5 250.0Q224.5 251.0 226.5 251.0Q232.5 251.0 232.5 255.5Q232.5 258.0 227.5 261.0V261.5Q227.5 263.5 231.0 267.5Q234.5 271.5 243.5 279.0Q251.5 287.0 256.75 294.5Q262.0 302.0 262.0 305.0L261.5 308.0L258.5 308.5Q256.0 308.5 247.75 303.25Q239.5 298.0 231.0 290.0Q220.5 280.0 212.75 274.75Q205.0 269.5 197.0 266.5Q189.0 263.5 177.5 261.0L168.5 258.5L164.5 298.0Q163.5 317.5 160.5 331.25Q157.5 345.0 155.5 345.0Q152.0 345.0 150.0 326.5Q148.0 308.0 148.0 281.5V273.0Q148.0 248.0 146.5 227.5Q145.0 207.0 142.5 195.0Q140.0 183.0 136.5 183.0Q135.0 183.0 129.5 188.75Q124.0 194.5 117.5 202.75Q111.0 211.0 106.0 218.0Q101.0 225.0 101.0 228.0Q101.0 229.0 102.0 229.0Q108.5 229.0 108.5 234.0Q108.5 237.0 104.5 240.0V242.0Q104.5 245.0 119.5 255.5Q132.0 264.5 139.75 273.0Q147.5 281.5 147.5 286.0Q147.5 292.5 140.5 292.5Q137.5 292.5 133.25 289.75Q129.0 287.0 126.5 283.5Q122.0 276.0 108.5 266.75Q95.0 257.5 78.5 249.75Q62.0 242.0 48.0 239.0L10.0 231.5L35.0 220.0Q40.5 217.5 57.5 209.0Q74.5 200.5 90.5 191.0L128.5 169.5L118.5 161.5Q99.5 146.5 79.75 136.5Q60.0 126.5 47.0 126.5Q37.0 126.5 30.5 124.25Q24.0 122.0 24.0 118.5Q24.0 115.5 27.0 113.0Q30.0 110.5 33.5 110.5Q35.0 110.5 50.5 102.75Q66.0 95.0 85.0 84.0L128.5 59.5L120.5 53.0Q116.0 49.5 112.75 45.5Q109.5 41.5 109.5 38.5V36.5Q112.0 34.0 124.75 33.0Q137.5 32.0 152.5 32.0Q166.5 32.0 179.75 32.75Q193.0 33.5 201.75 35.25Q210.5 37.0 210.5 40.0Q210.5 43.5 207.5 45.75Q204.5 48.0 200.5 48.0Q196.0 48.0 188.0 54.5Q180.0 61.0 173.25 69.5Q166.5 78.0 164.5 84.5L164.0 87.5Q163.5 90.0 163.25 93.0Q163.0 96.0 163.0 99.5Q163.0 103.0 163.25 106.5Q163.5 110.0 164.0 113.0Q164.5 115.0 164.5 118.0L167.5 137.0H183.5Q206.0 137.0 206.0 145.5V146.0Q216.0 139.5 224.0 134.5Q232.0 129.5 237.5 126.0Q247.0 120.0 251.5 117.0Q256.0 114.0 256.0 114.0Q256.0 112.0 247.75 106.75Q239.5 101.5 229.5 96.0Q219.5 90.5 214.0 89.5Q211.0 89.0 203.25 88.0Q195.5 87.0 188.5 84.5Q181.5 82.0 181.5 78.5Q181.5 74.0 203.5 62.5Q214.5 57.0 229.5 47.5Q244.5 38.0 255.0 30.5ZM401.5 160.0Q408.0 152.0 416.0 143.0Q424.0 134.0 431.0 127.25Q438.0 120.5 441.0 120.5Q447.5 120.5 447.5 131.5Q447.5 135.0 452.0 141.5Q456.5 148.0 463.0 155.0Q469.5 162.0 475.5 167.0Q481.5 172.0 484.0 172.0Q485.5 172.0 496.75 176.5Q508.0 181.0 524.25 187.5Q540.5 194.0 557.0 201.0Q573.5 208.0 585.5 213.25Q597.5 218.5 600.0 220.0Q601.5 221.5 601.5 224.0Q601.5 231.5 555.0 236.0Q489.0 244.0 445.5 254.0Q402.0 264.0 387.0 276.0Q383.5 278.0 379.5 280.5Q375.5 283.0 372.5 283.0Q371.5 283.0 369.5 282.0L368.5 281.5Q367.0 278.0 366.0 263.0Q365.0 248.0 364.0 228.0Q364.0 206.5 363.25 196.25Q362.5 186.0 360.75 181.5Q359.0 177.0 355.0 173.0Q345.0 161.5 345.0 153.5Q345.0 148.0 352.0 146.5Q353.5 146.5 354.5 147.0Q359.0 147.0 363.0 149.0Q367.5 150.0 372.5 151.0Q377.5 152.0 382.5 152.5Q396.5 154.0 401.5 160.0ZM403.0 186.5Q403.0 186.5 403.0 186.5Q403.0 186.5 403.0 186.5ZM437.0 186.5Q437.0 186.0 437.5 186.0Q437.0 186.5 437.0 186.5Q437.0 186.5 437.0 186.5Z" fill="black" /></svg>