<svg xmlns="http://www.w3.org/2000/svg" width="877.0" height="388.5" viewBox="0 0 877.0 388.5"><path d="M49.5 251.0Q52.5 246.5 52.5 244.5H50.5Q50.0 244.5 48.25 244.5Q46.5 244.5 45.0 245.0Q41.5 245.5 39.5 246.25Q37.5 247.0 37.5 247.0Q37.5 248.0 41.25 252.25Q45.0 256.5 46.0 256.5Q47.0 256.5 49.5 251.0ZM79.0 276.0Q79.0 276.0 78.5 275.75Q78.0 275.5 77.0 275.5Q72.0 275.5 66.0 279.0Q63.5 281.5 63.5 284.5Q63.5 285.5 63.75 287.0Q64.0 288.5 64.5 290.0L66.5 295.5L71.5 289.0Q74.5 285.0 76.75 281.25Q79.0 277.5 79.0 276.0ZM93.5 329.5 94.5 328.0Q97.5 323.5 98.5 321.5Q95.5 321.5 90.0 322.75Q84.5 324.0 84.5 327.5Q84.5 331.5 87.0 335.5L88.0 336.5Q90.0 335.5 93.5 329.5ZM125.5 231.5 118.5 224.5Q115.0 220.5 112.5 218.5Q110.0 216.5 107.5 216.5Q104.0 216.5 96.25 222.25Q88.5 228.0 80.0 236.0Q71.5 244.0 65.75 251.5Q60.0 259.0 60.0 262.5Q60.0 263.0 61.0 264.0Q62.0 264.5 63.25 265.0Q64.5 265.5 65.5 265.5Q72.0 265.5 81.25 262.0Q90.5 258.5 100.0 253.25Q109.5 248.0 115.5 242.0ZM160.5 271.0Q160.0 270.5 159.75 270.25Q159.5 270.0 159.0 269.5L134.5 243.0L107.5 268.0Q94.5 281.0 87.0 291.0Q79.5 301.0 79.5 305.5Q79.5 309.0 85.5 309.0Q94.5 309.0 110.25 301.75Q126.0 294.5 139.5 284.0Q146.5 278.5 152.5 274.75Q158.5 271.0 160.5 271.0ZM124.0 177.5Q117.5 177.5 111.5 176.0Q105.5 174.5 102.0 172.5Q102.0 173.0 102.25 173.5Q102.5 174.0 102.5 174.5Q106.5 184.5 125.5 208.5Q144.5 232.5 170.5 261.0L195.5 288.0L202.5 273.5Q206.5 265.0 209.0 258.5Q211.5 252.0 211.5 247.0Q211.5 239.5 205.5 235.0Q199.0 230.0 199.0 226.5Q199.0 223.5 204.5 219.0Q205.5 218.0 206.75 216.75Q208.0 215.5 208.0 215.0Q208.0 214.0 197.5 204.0Q190.5 197.0 177.75 191.0Q165.0 185.0 150.75 181.25Q136.5 177.5 124.0 177.5ZM243.5 250.5Q234.0 243.5 230.0 242.5Q228.0 244.5 226.5 247.5Q226.5 249.0 225.5 251.0Q225.0 252.0 224.5 253.75Q224.0 255.5 223.5 257.0Q221.0 263.5 218.5 272.0Q217.0 276.0 216.0 278.75Q215.0 281.5 214.5 283.5Q216.0 283.5 219.5 282.0Q223.0 281.0 240.25 278.0Q257.5 275.0 278.5 272.5Q296.0 270.0 308.25 268.0Q320.5 266.0 324.0 265.0Q319.0 262.5 306.25 260.5Q293.5 258.5 280.75 257.5Q268.0 256.5 262.0 256.5Q261.0 257.5 259.0 257.5Q252.5 257.5 243.5 250.5ZM68.0 117.0 65.5 107.5Q62.0 108.0 56.0 111.0Q50.0 114.0 50.0 115.0Q50.0 115.5 53.25 117.0Q56.5 118.5 60.5 120.5L65.5 122.0Q66.5 122.5 67.5 122.75Q68.5 123.0 69.0 123.5Q69.0 122.5 68.75 120.75Q68.5 119.0 68.0 117.0ZM90.0 174.0Q88.0 165.5 85.75 159.75Q83.5 154.0 82.5 153.0Q79.0 153.5 70.0 158.25Q61.0 163.0 53.25 168.25Q45.5 173.5 45.5 175.5Q45.5 176.0 47.25 176.5Q49.0 177.0 50.5 177.0Q53.5 177.0 61.75 179.25Q70.0 181.5 78.5 185.0Q82.0 187.0 85.25 188.75Q88.5 190.5 90.5 191.5Q91.5 192.0 92.25 192.0Q93.0 192.0 93.5 192.5Q93.0 189.5 92.0 184.25Q91.0 179.0 90.0 174.0ZM111.0 86.0 110.5 83.0Q108.0 76.0 107.0 76.0Q105.5 76.0 100.0 80.0Q94.5 84.0 93.5 85.0Q94.5 86.0 105.5 90.5Q109.5 92.5 112.5 93.5V93.0Q112.5 90.5 111.0 86.0ZM95.0 101.0H94.0Q86.5 97.0 84.5 97.0Q84.0 97.0 83.75 97.5Q83.5 98.0 82.5 98.5L81.5 100.0V101.5Q81.5 107.0 82.25 115.75Q83.0 124.5 86.5 128.5H87.5Q91.5 128.5 93.5 126.5Q97.5 123.0 101.0 123.0Q105.5 123.0 105.5 131.5Q105.5 133.5 105.5 136.5Q105.5 139.5 105.0 143.0V146.0Q105.0 161.0 113.5 161.0Q117.0 161.0 125.0 157.0Q133.0 153.0 140.25 148.25Q147.5 143.5 147.5 141.0Q147.5 139.0 141.25 133.5Q135.0 128.0 126.25 121.0Q117.5 114.0 108.75 108.5Q100.0 103.0 95.0 101.0ZM161.0 170.5 176.0 173.5V140.0Q172.0 142.0 165.0 147.0Q158.0 152.0 152.0 157.0Q146.0 162.0 144.5 164.5Q146.0 165.5 150.5 167.5Q155.0 169.5 161.0 170.5ZM298.0 172.5 296.0 171.5Q294.0 170.5 292.75 170.0Q291.5 169.5 290.0 169.5Q286.0 169.5 279.0 181.0L274.0 189.5H282.0Q289.0 189.5 294.75 185.0Q300.5 180.5 300.5 176.5Q300.5 174.0 298.0 172.5ZM322.5 184.0Q322.5 182.0 320.5 181.0Q318.5 180.0 316.5 180.0Q313.0 180.0 312.0 182.0Q310.5 185.5 310.5 188.5H311.0Q314.0 188.5 318.25 187.0Q322.5 185.5 322.5 184.0ZM322.5 164.0Q322.5 160.5 320.5 160.5Q318.5 160.5 318.5 164.0Q318.5 168.5 320.5 168.5Q322.5 168.5 322.5 164.0ZM360.0 194.5Q358.0 194.5 354.0 193.5L352.0 193.0Q351.5 193.0 351.0 192.75Q350.5 192.5 349.5 192.5L348.0 192.0Q347.5 192.0 347.0 191.75Q346.5 191.5 346.0 191.5Q344.5 191.5 343.5 192.5Q343.5 193.0 346.0 193.75Q348.5 194.5 352.0 195.0Q353.0 195.5 354.75 195.5Q356.5 195.5 357.5 195.5H361.0Q360.0 194.5 360.0 194.5ZM382.5 258.0V213.0L360.5 210.0Q359.0 210.0 357.5 209.75Q356.0 209.5 355.0 209.5Q347.5 208.0 343.5 208.0Q339.0 208.0 337.75 211.25Q336.5 214.5 336.5 222.5V231.0Q336.5 241.0 338.25 245.75Q340.0 250.5 346.25 252.5Q352.5 254.5 365.5 256.5ZM372.0 165.0Q365.5 165.0 358.75 164.0Q352.0 163.0 348.0 162.0Q345.0 161.0 343.0 161.0Q340.5 161.0 340.5 168.5Q340.5 176.0 347.5 176.0Q350.0 176.0 358.5 174.25Q367.0 172.5 374.5 170.25Q382.0 168.0 382.0 166.5Q382.0 165.0 372.0 165.0ZM382.5 186.0Q382.5 182.0 378.0 182.0Q374.5 182.0 372.5 185.5Q374.0 186.0 375.75 186.5Q377.5 187.0 379.0 188.0Q379.5 188.5 381.0 188.5Q382.5 188.5 382.5 186.0ZM506.0 236.0Q478.5 230.5 455.25 226.0Q432.0 221.5 417.0 218.75Q402.0 216.0 400.0 216.0Q397.5 216.0 396.75 220.0Q396.0 224.0 396.0 236.5Q396.0 252.0 397.5 255.25Q399.0 258.5 407.5 260.0Q414.5 261.5 439.5 262.0Q464.5 262.5 495.5 262.5Q523.0 262.5 550.0 262.25Q577.0 262.0 595.75 261.25Q614.5 260.5 616.5 259.5V259.0Q616.5 258.5 612.75 257.5Q609.0 256.5 597.75 254.25Q586.5 252.0 564.5 247.5Q542.5 243.0 506.0 236.0ZM662.5 278.5 659.5 275.0Q647.5 263.0 637.5 263.0Q631.5 263.0 631.5 269.0Q631.5 272.5 638.5 275.5Q645.5 278.5 653.75 280.5Q662.0 282.5 666.5 283.0Q666.0 282.0 662.5 278.5ZM698.0 227.5Q696.5 225.0 693.0 220.25Q689.5 215.5 685.0 210.5L673.0 196.0L661.0 209.5Q657.5 213.0 655.25 215.5Q653.0 218.0 653.0 218.5Q653.0 219.0 657.5 219.5Q662.0 220.0 668.5 220.5Q676.0 221.5 684.0 223.25Q692.0 225.0 696.0 226.0Q696.5 226.5 697.0 226.75Q697.5 227.0 698.0 227.5ZM143.0 53.0Q143.0 45.0 141.0 45.0Q139.0 45.0 134.5 51.5Q131.5 54.5 131.5 55.5Q131.5 56.5 135.75 58.75Q140.0 61.0 141.0 61.0Q143.0 61.0 143.0 53.0ZM282.5 71.5Q268.5 67.5 258.25 65.0Q248.0 62.5 248.0 62.5Q248.0 62.5 245.25 67.5Q242.5 72.5 238.5 78.5L231.0 92.5L249.0 90.0Q258.5 89.0 271.75 88.0Q285.0 87.0 294.0 87.0Q314.5 87.0 314.5 85.0Q314.5 80.5 282.5 71.5ZM338.5 107.0 339.0 105.5Q339.0 104.5 339.25 103.75Q339.5 103.0 339.5 102.5Q339.5 101.0 336.5 101.0Q334.5 101.0 333.25 105.25Q332.0 109.5 332.0 113.5Q332.0 121.5 335.0 124.0H335.5V123.0Q335.5 120.5 336.5 116.0Q337.5 111.5 338.5 107.0ZM344.5 85.5Q344.5 85.0 341.75 84.5Q339.0 84.0 335.5 84.0Q333.5 84.0 332.5 84.25Q331.5 84.5 330.5 84.5Q331.5 85.0 334.0 86.0Q336.5 87.0 338.5 87.0Q344.5 87.0 344.5 85.5ZM378.5 124.5Q376.5 109.0 374.75 105.75Q373.0 102.5 365.0 101.5Q363.0 101.0 361.5 101.0Q360.0 101.0 359.0 101.0Q355.0 101.0 352.0 109.0Q349.0 117.0 347.5 126.25Q346.0 135.5 346.0 140.0Q346.0 146.5 350.25 148.75Q354.5 151.0 363.5 151.0Q369.0 151.0 373.75 150.25Q378.5 149.5 379.5 148.5V148.0Q379.5 147.5 379.75 146.5Q380.0 145.5 380.0 144.5Q380.0 135.5 378.5 124.5ZM396.0 112.0Q396.0 103.5 393.5 102.0Q392.0 103.5 392.0 116.5Q392.0 121.5 392.25 124.25Q392.5 127.0 392.5 127.0Q393.0 127.0 394.0 122.75Q395.0 118.5 396.0 112.0ZM561.0 114.5Q556.0 114.0 551.0 113.75Q546.0 113.5 540.5 113.0Q534.0 112.0 527.25 111.5Q520.5 111.0 515.0 110.5Q481.5 108.0 456.5 105.75Q431.5 103.5 427.0 103.0H425.0Q423.0 102.5 421.5 102.5Q420.0 102.5 419.0 102.5Q414.0 102.5 411.75 108.75Q409.5 115.0 404.0 135.5L400.5 152.5L454.5 149.5Q470.0 148.5 493.75 146.5Q517.5 144.5 544.0 141.5Q570.5 138.5 593.5 135.5Q624.0 131.5 643.75 129.75Q663.5 128.0 672.0 128.0Q683.5 128.0 683.5 131.5Q683.5 133.5 681.5 135.5L680.5 135.0Q676.5 136.5 661.0 139.25Q645.5 142.0 623.0 145.0Q600.5 148.0 574.5 152.0L561.5 154.0Q507.0 161.0 474.25 165.5Q441.5 170.0 425.0 173.25Q408.5 176.5 403.25 179.25Q398.0 182.0 398.0 185.5Q398.0 190.0 403.5 193.0Q409.0 196.0 426.0 201.5Q434.0 204.0 450.5 208.25Q467.0 212.5 488.25 217.5Q509.5 222.5 531.75 227.5Q554.0 232.5 573.75 236.5Q593.5 240.5 607.25 243.0Q621.0 245.5 624.5 245.5Q627.5 245.5 629.25 243.75Q631.0 242.0 631.0 240.0Q631.0 237.5 627.5 236.0Q624.5 236.0 624.5 232.5Q624.5 230.0 629.75 223.0Q635.0 216.0 643.5 208.0Q663.5 188.5 663.5 181.5V180.5L663.0 180.0V178.0Q663.0 174.0 667.0 167.5Q671.0 161.0 680.5 151.5Q698.5 134.0 698.5 127.5Q698.5 123.5 690.0 123.5H688.5Q683.0 123.5 664.25 122.25Q645.5 121.0 618.5 119.0Q591.5 117.0 561.0 114.5ZM734.5 171.0Q732.5 169.0 729.25 165.25Q726.0 161.5 722.0 157.0L707.5 142.0L699.0 151.5Q698.0 153.5 696.5 155.75Q695.0 158.0 694.0 160.0Q693.0 162.0 693.0 162.5Q697.0 163.5 704.75 165.25Q712.5 167.0 721.0 168.5Q729.5 170.0 734.5 171.0ZM754.5 117.0Q753.0 114.5 749.25 109.5Q745.5 104.5 741.0 99.5L729.5 86.5L710.5 108.5L726.0 111.0Q734.5 112.0 742.5 113.5Q750.5 115.0 753.0 116.0Q753.0 116.5 753.5 116.5Q754.0 116.5 754.5 117.0ZM142.5 22.5Q157.5 10.0 163.5 10.0Q168.0 10.0 168.0 14.5Q168.0 16.0 166.5 20.5Q165.0 23.0 163.0 25.25Q161.0 27.5 158.0 27.5Q157.5 27.5 157.25 31.0Q157.0 34.5 157.0 39.5Q157.0 46.0 158.25 53.25Q159.5 60.5 161.5 66.0Q163.0 70.5 168.5 78.75Q174.0 87.0 180.5 92.5Q192.0 105.0 192.0 109.5Q192.0 113.5 187.5 113.5Q185.0 113.5 177.5 108.25Q170.0 103.0 163.0 95.0Q155.5 88.0 147.5 81.5Q139.5 75.0 134.5 73.0Q128.0 68.5 125.5 68.5Q124.0 68.5 123.5 71.25Q123.0 74.0 123.0 75.0Q123.0 80.0 126.5 89.5Q130.0 99.0 136.0 109.0Q142.0 119.0 148.5 126.0Q155.0 133.0 161.0 133.0Q163.5 133.0 166.5 131.0Q169.5 129.0 173.5 126.5Q186.0 117.5 190.5 117.5Q195.5 117.5 195.5 124.0Q195.5 128.5 192.5 137.5Q188.0 148.5 188.0 160.0Q188.0 161.0 188.0 162.5Q188.0 164.0 188.5 165.0Q189.5 169.0 198.5 180.0Q207.5 191.0 219.0 203.0Q233.5 218.5 244.5 227.0Q255.5 235.5 269.5 239.75Q283.5 244.0 306.0 247.5L322.5 250.0V227.0Q322.5 212.0 321.5 207.75Q320.5 203.5 317.5 203.5Q315.0 203.5 310.5 205.25Q306.0 207.0 303.0 209.0Q295.0 215.5 290.0 215.5Q284.0 215.5 284.0 207.0Q284.0 204.0 278.5 204.0Q276.5 204.0 273.75 204.0Q271.0 204.0 267.5 204.5Q261.0 206.0 254.5 206.0Q245.5 206.0 245.5 202.0Q245.5 199.5 249.5 194.5Q253.5 189.5 259.0 183.5Q271.0 171.5 271.0 163.0Q271.0 160.5 269.5 160.5Q263.0 160.5 263.0 151.5Q263.0 142.5 269.5 142.5Q275.5 142.5 287.0 151.5Q293.5 156.5 297.5 158.0Q293.5 152.5 293.5 148.5Q293.5 140.0 303.0 140.0Q308.0 140.0 313.0 143.5Q315.5 144.5 317.0 145.5Q318.5 146.5 319.5 146.5Q321.5 146.5 321.5 138.5Q321.5 136.0 321.25 132.0Q321.0 128.0 320.5 124.5V122.5L317.5 101.0H291.0Q270.5 101.0 248.25 104.0Q226.0 107.0 214.5 111.0V111.5Q212.5 112.0 211.0 112.25Q209.5 112.5 208.5 112.5Q203.5 112.5 203.0 107.5Q204.0 99.5 218.5 83.5Q232.0 67.5 232.0 62.0Q232.0 58.5 227.0 54.5Q220.5 50.5 220.5 46.5Q220.5 44.0 224.0 39.5Q227.5 36.0 230.5 36.0Q233.5 36.0 238.0 40.5Q240.0 43.0 248.75 46.75Q257.5 50.5 269.0 54.0Q280.5 57.5 290.5 60.0Q300.5 62.5 304.5 62.5Q306.0 62.5 306.0 58.5Q306.0 54.5 306.5 52.5Q307.0 50.5 309.5 50.5Q312.5 50.5 323.5 59.5Q330.0 65.0 334.5 67.5Q339.0 70.0 344.5 70.0Q347.0 70.0 349.5 69.5Q352.0 69.0 355.0 68.5L358.0 68.0Q365.5 64.0 365.5 58.5Q365.5 50.0 369.5 50.0Q371.0 50.0 373.75 52.75Q376.5 55.5 380.0 59.5Q384.5 64.5 388.25 67.0Q392.0 69.5 397.0 69.5Q403.5 69.5 412.5 68.0Q421.5 66.5 427.5 66.5Q439.0 66.5 439.0 72.0Q439.0 77.5 427.5 81.0Q425.0 81.5 424.0 82.0Q423.0 82.5 423.0 82.5Q427.0 86.0 478.25 92.0Q529.5 98.0 615.5 105.0L688.0 110.0L703.5 94.0Q710.5 87.5 715.75 80.75Q721.0 74.0 721.5 70.5Q723.5 59.5 732.0 58.0H735.5Q740.5 58.0 740.5 62.0Q740.5 63.0 740.5 64.5Q740.5 66.0 740.0 67.0Q739.5 67.5 739.5 70.0Q739.5 79.0 752.25 93.5Q765.0 108.0 786.25 123.5Q807.5 139.0 832.5 152.0Q846.0 159.0 856.5 165.75Q867.0 172.5 867.0 175.0V176.5Q867.0 180.5 863.0 180.5Q860.5 180.5 849.75 175.5Q839.0 170.5 815.0 158.5Q784.5 142.5 759.25 133.25Q734.0 124.0 724.0 124.0Q722.0 124.0 720.0 125.0Q719.0 126.0 719.0 127.0Q719.0 132.5 727.25 142.5Q735.5 152.5 749.0 164.5Q762.5 176.5 779.0 187.75Q795.5 199.0 812.0 207.5Q835.0 219.0 842.5 223.5Q850.0 228.0 850.0 231.5Q850.0 233.5 847.0 236.0H846.0Q843.5 236.0 830.0 230.5Q816.5 225.0 799.5 216.5Q764.0 199.0 735.5 188.5Q707.0 178.0 693.0 177.5Q689.0 177.5 686.0 178.75Q683.0 180.0 683.0 182.5Q683.0 187.5 692.0 198.0Q701.0 208.5 715.5 220.75Q730.0 233.0 746.0 244.25Q762.0 255.5 775.5 262.0Q790.0 270.0 800.5 277.25Q811.0 284.5 811.0 286.0Q811.0 289.0 807.5 289.0Q804.0 289.0 791.25 283.5Q778.5 278.0 761.0 270.0Q725.5 252.5 700.25 243.25Q675.0 234.0 662.0 234.0Q652.0 234.0 649.5 239.5V240.0Q650.5 245.0 659.75 255.0Q669.0 265.0 683.0 277.0Q697.0 289.0 712.5 299.75Q728.0 310.5 741.5 317.5Q766.5 330.5 774.25 335.25Q782.0 340.0 782.0 343.0Q782.0 343.5 781.25 344.75Q780.5 346.0 780.0 346.5H778.0Q774.5 346.5 760.0 340.5Q745.5 334.5 727.0 325.5Q655.5 289.5 621.5 289.5Q619.5 289.5 617.5 289.5Q615.5 289.5 613.0 290.0L611.5 290.5Q608.5 290.5 606.0 290.75Q603.5 291.0 601.5 291.0Q594.0 291.0 594.0 285.5Q594.0 282.5 594.5 281.0Q595.0 280.0 595.0 278.5Q595.0 277.0 587.75 276.25Q580.5 275.5 554.0 275.5Q538.0 275.5 514.0 275.75Q490.0 276.0 455.0 277.0Q382.5 278.0 336.75 280.25Q291.0 282.5 269.0 286.0Q240.5 291.0 224.25 295.75Q208.0 300.5 208.0 304.0Q208.0 310.0 199.0 310.0Q195.0 310.0 191.0 308.0Q187.0 306.0 186.0 302.5Q185.0 301.0 179.5 293.5Q174.0 286.0 165.5 277.0Q162.0 285.0 140.0 301.0Q121.5 316.5 108.75 334.5Q96.0 352.5 96.0 364.5Q96.0 378.5 91.0 378.5Q85.5 378.5 80.0 358.0Q78.0 351.0 75.25 344.25Q72.5 337.5 70.0 334.5Q66.5 331.5 63.25 324.25Q60.0 317.0 57.5 310.0Q55.5 303.5 53.25 298.5Q51.0 293.5 50.0 291.0Q49.5 298.0 45.5 298.0Q43.0 298.0 38.5 291.0Q34.0 284.0 30.0 272.0Q27.5 263.0 23.75 254.75Q20.0 246.5 17.0 244.0Q14.5 241.5 12.25 236.75Q10.0 232.0 10.0 228.5Q10.0 220.5 14.0 220.5Q16.0 220.5 23.5 226.5Q29.0 232.0 37.0 232.0Q39.5 232.0 41.75 231.75Q44.0 231.5 47.0 231.0Q55.0 229.5 65.5 225.25Q76.0 221.0 83.75 216.25Q91.5 211.5 91.5 208.5Q91.5 206.0 78.5 199.75Q65.5 193.5 46.5 188.5Q35.0 185.5 27.0 181.25Q19.0 177.0 19.0 175.5Q19.0 174.0 26.75 168.5Q34.5 163.0 44.5 158.0Q53.0 153.0 60.5 148.25Q68.0 143.5 69.5 142.0V141.5Q69.0 138.5 63.0 135.5Q57.0 132.5 48.75 130.25Q40.5 128.0 34.0 128.0Q31.0 128.0 30.0 128.5Q28.0 129.0 25.5 129.0Q23.0 129.0 21.0 129.0Q18.0 128.5 16.5 128.0Q15.0 127.5 15.0 125.5Q15.0 119.0 37.0 107.0Q45.5 102.5 51.5 98.75Q57.5 95.0 57.5 94.0Q57.5 91.5 63.25 87.0Q69.0 82.5 76.5 79.0Q90.0 71.5 90.0 67.5V65.0Q90.0 57.0 108.5 46.0Q117.0 42.0 127.25 34.75Q137.5 27.5 142.5 22.5ZM220.0 224.5 221.5 225.0Q221.5 223.5 220.0 223.5Z" fill="black" /></svg>