<svg xmlns="http://www.w3.org/2000/svg" width="525.5" height="385.0" viewBox="0 0 525.5 385.0"><path d="M38.5 227.0Q38.5 226.5 36.0 225.25Q33.5 224.0 30.5 223.0Q25.5 220.5 24.5 220.5Q24.0 220.5 24.0 229.5V238.5L30.0 234.5Q33.0 232.0 35.75 229.5Q38.5 227.0 38.5 227.0ZM49.0 111.5Q47.5 108.5 40.5 104.0Q39.0 103.0 37.75 102.25Q36.5 101.5 35.5 101.5V123.0L41.5 119.0Q48.0 113.5 49.0 111.5ZM69.0 149.5H64.0Q58.5 149.5 58.5 153.0Q58.5 154.0 59.5 155.75Q60.5 157.5 61.5 160.0Q62.0 160.5 62.25 161.0Q62.5 161.5 62.5 161.5Q63.5 161.5 65.0 157.5Q68.0 152.5 69.0 149.5ZM100.0 221.5 98.5 199.5Q98.0 190.0 95.25 178.0Q92.5 166.0 89.5 159.5L85.0 148.5L80.5 158.0Q77.5 164.5 75.5 175.75Q73.5 187.0 73.0 197.0L72.0 219.0ZM106.0 154.5Q108.5 151.0 108.5 149.5H105.5Q100.5 149.5 100.5 153.0Q100.5 155.5 103.0 159.5L103.5 160.5Q104.0 159.5 104.75 158.0Q105.5 156.5 106.0 154.5ZM214.0 235.5 198.0 232.5Q195.0 232.0 192.25 231.75Q189.5 231.5 188.0 231.5Q186.0 231.5 186.0 232.0Q186.0 234.5 189.5 242.0Q193.0 249.5 194.0 251.5Q195.0 253.5 195.5 254.75Q196.0 256.0 196.0 256.0Q196.5 256.0 205.0 246.0Q208.0 243.0 211.0 239.25Q214.0 235.5 214.0 235.5ZM307.5 280.0Q309.0 278.5 310.5 277.25Q312.0 276.0 313.0 275.0Q314.0 274.0 314.5 273.5Q315.0 273.0 315.5 272.5H315.0Q311.5 272.5 301.5 273.0Q291.5 273.5 281.0 274.5Q271.0 275.0 264.25 275.5Q257.5 276.0 257.5 276.0Q257.5 277.0 259.5 284.0Q261.5 291.0 264.5 300.5L270.0 318.5L279.5 307.0Q285.0 301.0 293.25 293.0Q301.5 285.0 307.5 280.0ZM217.0 123.5Q216.5 122.5 215.5 120.75Q214.5 119.0 213.5 117.0Q212.5 115.0 211.0 113.5Q210.5 112.5 210.0 111.5Q209.5 110.5 209.0 110.0L202.5 98.0L196.0 108.0Q194.0 111.5 192.25 114.25Q190.5 117.0 189.5 119.5Q193.0 120.5 202.25 121.75Q211.5 123.0 217.0 123.5ZM312.5 145.0Q310.0 143.5 307.0 141.5L305.5 140.5Q303.5 139.5 303.5 139.5V150.0Q305.5 149.0 307.0 148.0Q309.0 147.0 310.5 146.25Q312.0 145.5 312.5 145.0ZM312.5 210.0Q310.0 208.5 307.0 206.5L305.5 205.5Q303.5 204.5 303.5 204.5V215.0Q305.5 214.0 307.0 213.0Q309.0 212.0 310.5 211.25Q312.0 210.5 312.5 210.0ZM377.5 166.5 374.5 149.5H352.5Q339.5 149.5 331.5 151.5Q323.5 153.5 314.5 159.0Q308.5 162.5 304.0 165.75Q299.5 169.0 299.5 169.5L309.5 176.5Q322.0 184.0 322.0 189.5Q322.0 195.0 314.0 196.5H312.5Q315.5 198.0 328.75 199.75Q342.0 201.5 356.5 201.5Q375.5 201.5 379.0 200.5Q382.5 199.5 382.5 195.5Q382.5 191.5 381.25 183.0Q380.0 174.5 377.5 166.5ZM321.0 56.0Q319.5 51.5 317.5 47.5Q315.5 43.5 314.5 41.0Q311.0 45.5 303.5 59.5Q298.5 68.5 293.0 77.25Q287.5 86.0 285.0 89.5L284.0 91.5Q283.5 92.0 283.25 92.5Q283.0 93.0 283.0 93.0Q283.0 93.5 289.5 93.5Q296.0 93.5 314.0 93.5Q328.5 93.5 338.25 93.25Q348.0 93.0 348.0 93.0Q346.0 89.0 337.5 82.0Q332.5 77.5 327.75 70.0Q323.0 62.5 321.0 56.0ZM390.0 116.5Q384.0 111.0 377.5 111.0Q377.0 111.0 376.25 111.25Q375.5 111.5 375.5 111.5Q375.5 115.0 377.25 121.0Q379.0 127.0 381.5 131.75Q384.0 136.5 385.0 136.5Q388.5 136.5 389.5 143.0V142.5Q392.0 134.5 393.0 130.25Q394.0 126.0 394.0 123.5Q394.0 120.5 390.0 116.5ZM405.0 102.5Q405.0 100.0 396.0 100.0Q388.0 100.0 388.0 101.0Q388.0 103.0 395.0 105.5Q397.5 107.5 402.0 107.5Q405.0 107.5 405.0 102.5ZM454.0 148.0Q437.0 139.0 423.0 132.5Q409.0 126.0 408.0 126.0Q406.0 126.0 403.75 136.25Q401.5 146.5 400.0 161.75Q398.5 177.0 398.5 193.0V221.0Q400.0 221.0 410.25 216.0Q420.5 211.0 435.25 203.75Q450.0 196.5 464.25 189.0Q478.5 181.5 488.0 176.0Q497.5 170.5 497.5 170.0Q497.5 169.5 484.5 163.0Q471.5 156.5 454.0 148.0ZM303.0 32.5Q314.5 10.0 320.0 10.0Q323.5 10.0 324.75 14.25Q326.0 18.5 326.0 25.5Q327.0 38.0 334.0 51.75Q341.0 65.5 351.0 75.75Q361.0 86.0 369.5 88.0Q374.0 88.0 383.0 88.0Q392.0 88.0 401.0 87.5Q403.5 87.0 406.25 87.0Q409.0 87.0 411.0 87.0Q417.5 87.0 421.5 88.25Q425.5 89.5 425.5 91.0Q425.5 92.0 423.5 96.25Q421.5 100.5 419.0 104.0Q418.0 106.5 416.75 109.25Q415.5 112.0 415.0 113.5H415.5Q416.0 115.0 429.25 121.75Q442.5 128.5 461.0 137.0Q479.5 146.0 492.75 154.25Q506.0 162.5 506.0 165.0V165.5Q508.0 164.5 509.0 164.5Q513.0 164.5 515.5 168.0V168.5Q515.5 171.5 498.75 182.25Q482.0 193.0 457.0 205.5L398.5 235.0V302.5Q398.5 337.0 397.0 356.0Q395.5 375.0 392.5 375.0Q390.0 375.0 388.0 356.75Q386.0 338.5 386.0 305.5Q386.0 280.0 386.0 261.75Q386.0 243.5 385.5 241.5Q380.0 242.5 367.0 250.75Q354.0 259.0 338.5 271.25Q323.0 283.5 308.25 296.75Q293.5 310.0 284.5 321.0L280.0 325.5Q274.0 331.5 269.25 336.0Q264.5 340.5 262.5 340.5Q260.5 340.5 258.5 335.75Q256.5 331.0 256.5 325.5Q256.0 320.5 254.0 310.75Q252.0 301.0 248.5 292.5Q245.0 284.0 243.0 276.5Q241.0 269.0 240.5 267.0Q240.5 264.5 251.25 262.75Q262.0 261.0 279.0 261.0Q296.0 261.0 305.25 260.0Q314.5 259.0 324.0 255.25Q333.5 251.5 350.5 243.0Q371.0 233.0 378.5 228.0Q386.0 223.0 386.0 219.5Q386.0 216.0 382.0 215.25Q378.0 214.5 359.5 214.5Q341.5 214.5 333.0 216.25Q324.5 218.0 315.5 223.5L310.5 227.0Q305.5 229.5 301.5 231.75Q297.5 234.0 296.5 234.0Q294.0 234.0 292.25 228.75Q290.5 223.5 290.5 215.5Q290.5 211.0 290.5 207.75Q290.5 204.5 291.0 202.5Q289.0 203.5 281.25 207.25Q273.5 211.0 263.5 216.0Q242.5 225.0 229.5 237.0Q216.5 249.0 205.0 266.5Q202.0 271.5 198.75 275.5Q195.5 279.5 193.5 279.5Q192.0 279.5 188.0 272.0Q184.0 264.5 180.0 254.0L172.5 234.0H112.0V252.0Q112.0 273.5 106.0 273.5H104.5Q102.5 272.5 100.75 265.0Q99.0 257.5 99.0 249.5V234.0H74.0V251.5Q74.0 261.5 72.5 268.5Q71.0 275.5 67.5 275.5Q65.0 275.5 63.25 269.5Q61.5 263.5 61.5 255.5Q61.5 246.5 59.5 242.5Q57.5 238.5 53.5 238.0Q44.5 239.5 35.75 245.0Q27.0 250.5 24.0 259.5Q22.0 266.0 19.0 270.75Q16.0 275.5 14.5 275.5Q12.0 275.5 11.0 267.25Q10.0 259.0 10.0 248.0Q10.0 233.5 11.0 218.5Q12.0 203.5 13.5 200.0Q15.0 198.5 16.5 198.5Q21.0 198.5 28.5 205.0Q35.5 211.0 43.5 216.0Q51.5 221.0 55.5 221.0Q56.5 221.0 57.0 217.25Q57.5 213.5 57.5 208.5Q57.5 199.0 55.5 186.75Q53.5 174.5 49.5 164.5Q46.5 157.5 44.75 150.5Q43.0 143.5 43.0 141.5V139.0Q46.0 138.0 54.0 137.25Q62.0 136.5 72.0 136.25Q82.0 136.0 91.25 135.75Q100.5 135.5 105.0 135.5Q116.5 135.5 121.5 137.25Q126.5 139.0 126.5 143.0Q126.5 148.0 120.5 155.5Q117.5 160.0 115.5 170.25Q113.5 180.5 112.5 193.5L110.5 221.0H137.0Q152.0 221.0 158.5 219.75Q165.0 218.5 166.0 216.5Q167.5 211.5 172.0 211.5Q173.5 211.5 176.25 212.5Q179.0 213.5 182.5 215.0Q186.5 217.5 193.75 219.25Q201.0 221.0 206.0 221.0Q214.5 221.0 228.75 216.5Q243.0 212.0 258.0 205.25Q273.0 198.5 283.5 192.0Q294.0 185.5 295.0 181.5Q293.5 180.5 288.0 177.0Q282.5 173.5 277.75 170.0Q273.0 166.5 272.0 166.0L262.5 159.0Q248.0 149.0 237.25 144.0Q226.5 139.0 213.75 136.25Q201.0 133.5 180.0 132.0Q176.5 131.5 173.25 129.0Q170.0 126.5 169.5 123.0Q169.0 120.0 160.75 119.25Q152.5 118.5 123.5 118.5Q104.5 118.5 87.25 119.0Q70.0 119.5 64.5 120.5Q54.5 123.0 45.5 132.25Q36.5 141.5 34.0 151.5Q31.0 165.0 27.0 165.0Q21.5 165.0 21.5 140.0Q21.5 127.5 22.0 110.0Q22.5 92.5 26.0 81.5Q28.0 81.5 34.0 84.0Q40.0 86.5 47.0 92.0L61.0 104.0L181.5 108.0L190.5 91.0Q201.0 74.0 206.5 74.0Q213.0 74.0 216.0 89.0Q218.5 99.0 222.75 106.75Q227.0 114.5 235.5 122.5Q244.0 130.5 258.5 141.5Q269.5 149.5 279.0 155.75Q288.5 162.0 290.5 163.0V143.0Q290.5 132.0 292.0 124.5Q293.5 117.0 295.5 117.0Q296.5 117.0 301.25 120.0Q306.0 123.0 311.0 127.5Q317.5 132.5 324.25 134.5Q331.0 136.5 347.5 136.5H371.0Q371.0 132.0 367.5 125.0Q364.0 118.0 359.75 112.0Q355.5 106.0 351.5 105.0Q349.5 104.0 345.25 104.0Q341.0 104.0 335.0 104.0Q324.5 104.0 310.75 104.75Q297.0 105.5 285.0 106.75Q273.0 108.0 267.5 109.5L267.0 110.0Q265.5 110.5 263.5 110.5Q259.5 110.5 259.5 106.5Q259.5 103.0 269.0 90.0Q270.0 88.0 271.25 86.25Q272.5 84.5 273.5 82.5Q280.5 72.0 289.25 57.0Q298.0 42.0 303.0 32.5Z" fill="black" /></svg>