<svg xmlns="http://www.w3.org/2000/svg" width="777.5" height="460.0" viewBox="0 0 777.5 460.0"><path d="M125.5 337.5 113.5 331.0Q105.5 325.5 95.0 318.25Q84.5 311.0 79.0 306.0L68.5 296.5L56.5 318.0Q52.5 325.0 49.25 331.25Q46.0 337.5 44.0 341.5Q45.5 341.5 48.0 341.5Q50.5 341.5 53.0 341.0Q56.0 341.0 59.5 340.75Q63.0 340.5 66.5 340.5Q71.5 340.0 77.25 340.0Q83.0 340.0 89.0 340.0ZM463.0 339.5 447.5 334.0Q436.5 330.5 426.0 326.5Q415.5 322.5 410.0 319.5L408.0 318.0Q406.0 317.0 405.0 317.0Q404.5 317.0 404.5 322.5Q404.5 328.0 404.5 341.5V365.5Q406.0 365.5 408.5 363.0L410.5 361.5Q415.5 359.0 426.75 354.25Q438.0 349.5 447.5 346.0ZM129.5 146.0 113.0 142.5Q104.0 141.5 93.25 140.0Q82.5 138.5 77.5 138.0Q75.5 137.0 74.25 137.0Q73.0 137.0 72.0 137.0Q70.5 137.0 70.5 140.0Q70.5 148.0 72.5 163.25Q74.5 178.5 77.0 188.0Q83.0 185.0 91.5 176.5Q97.5 170.0 106.5 162.5Q115.5 155.0 121.0 151.0ZM275.5 190.5 285.5 170.0H233.0L247.0 195.5Q261.0 222.0 264.0 223.5Q264.0 215.5 268.25 206.25Q272.5 197.0 275.5 190.5ZM462.5 205.0 439.5 197.0Q427.0 192.5 418.0 189.5Q409.0 186.5 409.0 186.5V226.5ZM689.5 224.5V218.5Q689.0 217.0 667.5 216.5Q646.0 216.0 616.5 216.0Q589.0 216.0 560.5 216.75Q532.0 217.5 510.25 218.5Q488.5 219.5 481.0 221.0Q472.5 222.5 458.25 227.75Q444.0 233.0 432.5 239.5Q420.0 245.5 414.5 249.25Q409.0 253.0 407.5 257.75Q406.0 262.5 405.5 272.5Q405.0 275.0 405.0 277.75Q405.0 280.5 405.0 283.0Q405.0 295.5 414.5 302.0Q424.0 308.5 450.5 318.0Q462.0 323.5 475.75 326.5Q489.5 329.5 511.25 330.75Q533.0 332.0 568.5 333.5Q595.0 334.0 621.25 334.5Q647.5 335.0 673.5 335.0L685.0 333.0L688.5 277.5V263.5Q689.0 260.5 689.0 257.5Q689.0 254.5 689.0 252.0V234.5Q689.5 232.0 689.5 229.5Q689.5 227.0 689.5 224.5ZM430.5 34.5 435.5 25.5H362.0L374.0 52.0Q379.5 64.5 386.25 82.0Q393.0 99.5 395.0 111.0L398.5 126.0L408.5 93.0Q414.0 74.5 420.25 57.75Q426.5 41.0 430.5 34.5ZM724.5 43.0 733.5 25.5H661.0L669.5 40.0Q673.5 47.0 680.0 63.75Q686.5 80.5 690.5 95.5L698.5 122.0L704.5 99.5Q708.5 85.5 714.5 68.75Q720.5 52.0 724.5 43.0ZM333.5 17.0Q333.5 14.0 353.5 12.0Q373.5 10.0 401.0 10.0Q429.5 10.0 449.0 11.75Q468.5 13.5 468.5 16.0Q468.5 18.5 464.75 22.75Q461.0 27.0 455.5 31.0V30.5Q449.0 35.5 441.25 51.25Q433.5 67.0 426.5 86.75Q419.5 106.5 415.25 125.5Q411.0 144.5 411.0 156.5Q411.0 163.0 413.0 166.5Q421.5 174.5 439.75 180.5Q458.0 186.5 482.0 190.25Q506.0 194.0 532.25 196.5Q558.5 199.0 583.75 200.0Q609.0 201.0 629.25 201.5Q649.5 202.0 661.0 202.0Q669.5 202.0 676.25 201.5Q683.0 201.0 685.0 200.5Q687.5 199.5 689.0 198.25Q690.5 197.0 690.5 192.0Q690.5 177.0 686.75 153.75Q683.0 130.5 676.25 105.75Q669.5 81.0 660.25 60.5Q651.0 40.0 640.5 30.5Q637.0 27.5 634.25 23.75Q631.5 20.0 631.5 17.0Q631.5 14.0 651.75 12.0Q672.0 10.0 700.5 10.0Q728.5 10.0 748.0 12.0Q767.5 14.0 767.5 15.0Q767.5 21.0 755.5 30.5Q744.5 39.5 736.25 57.75Q728.0 76.0 718.5 114.0Q714.0 130.5 710.5 169.75Q707.0 209.0 705.0 264.75Q703.0 320.5 703.0 388.0Q703.0 405.5 701.25 417.75Q699.5 430.0 694.5 430.0Q691.0 430.0 689.0 417.5Q687.0 405.0 687.0 386.5V349.5H597.0Q547.5 349.5 516.25 352.0Q485.0 354.5 464.25 360.25Q443.5 366.0 425.5 376.5Q415.0 382.0 410.75 387.0Q406.5 392.0 406.5 399.5Q406.0 430.0 403.75 440.0Q401.5 450.0 396.0 450.0Q393.0 450.0 390.25 444.25Q387.5 438.5 387.5 430.5V415.5L334.5 402.0Q312.0 396.5 293.25 392.0Q274.5 387.5 271.5 386.0Q270.0 386.5 270.0 402.0Q270.0 422.0 263.0 422.0H262.0Q261.5 421.5 261.25 421.5Q261.0 421.5 261.0 421.5Q257.5 420.5 255.75 413.0Q254.0 405.5 254.0 397.5V380.0L214.0 369.5Q191.5 363.5 165.0 360.5Q138.5 357.5 113.5 357.5Q92.0 357.5 73.25 359.75Q54.5 362.0 41.5 367.5Q24.0 373.0 16.0 373.0Q10.0 373.0 10.0 368.5Q10.0 365.0 15.0 352.75Q20.0 340.5 28.0 325.0Q36.0 309.5 44.75 294.5Q53.5 279.5 61.5 269.75Q69.5 260.0 74.0 260.0Q81.0 260.0 81.0 271.0Q81.0 281.0 95.0 292.75Q109.0 304.5 130.75 316.0Q152.5 327.5 176.5 337.0Q200.5 346.5 221.25 352.25Q242.0 358.0 253.0 358.0V330.0Q253.0 323.5 253.0 316.5Q253.0 309.5 252.0 300.5Q252.0 273.5 251.0 258.75Q250.0 244.0 247.0 234.25Q244.0 224.5 237.5 212.5Q231.5 200.5 224.25 191.0Q217.0 181.5 212.0 179.0Q207.0 176.5 203.5 173.0Q200.0 169.5 200.0 167.5Q200.0 163.0 210.75 160.5Q221.5 158.0 237.0 156.5Q252.5 155.0 266.75 154.75Q281.0 154.5 287.5 154.5Q323.5 154.5 323.5 162.5Q323.5 168.0 310.5 174.5Q305.0 177.0 298.0 185.75Q291.0 194.5 285.5 207.5Q281.0 217.0 278.25 224.5Q275.5 232.0 274.25 241.25Q273.0 250.5 272.5 264.75Q272.0 279.0 272.0 301.5V366.0L326.0 379.5Q345.5 384.5 360.5 387.75Q375.5 391.0 382.0 392.0Q382.5 387.0 382.75 371.0Q383.0 355.0 383.25 333.5Q383.5 312.0 383.5 290.75Q383.5 269.5 383.5 254.25Q383.5 239.0 383.5 236.0Q383.5 185.0 382.0 154.0Q380.5 123.0 377.25 106.75Q374.0 90.5 368.5 83.5Q363.5 83.5 347.75 87.25Q332.0 91.0 314.0 96.5Q295.5 103.0 272.0 110.5Q248.5 118.0 230.5 123.5L217.5 127.5Q188.0 136.0 159.75 151.5Q131.5 167.0 111.25 184.5Q91.0 202.0 85.0 217.5Q82.5 223.0 80.0 226.25Q77.5 229.5 73.5 229.5Q69.0 229.5 65.0 219.25Q61.0 209.0 57.5 193.25Q54.0 177.5 51.25 160.75Q48.5 144.0 47.0 130.25Q45.5 116.5 45.5 110.5Q45.5 104.0 47.5 101.75Q49.5 99.5 53.0 99.5Q55.5 99.5 58.5 101.75Q61.5 104.0 65.0 106.5Q66.0 107.0 67.5 107.75Q69.0 108.5 69.5 109.5Q76.0 116.0 93.5 120.25Q111.0 124.5 130.0 124.5Q142.5 124.5 153.0 123.0Q169.5 120.0 212.0 107.75Q254.5 95.5 311.5 76.5L361.0 60.0L356.5 50.5Q353.5 45.0 349.0 39.0Q344.5 33.0 342.0 30.5Q338.5 27.0 336.0 23.5Q333.5 20.0 333.5 17.0Z" fill="black" /></svg>