<svg xmlns="http://www.w3.org/2000/svg" width="793.5" height="381.5" viewBox="0 0 793.5 381.5"><path d="M98.5 216.5Q98.5 205.0 97.0 204.5Q95.0 205.5 89.5 211.25Q84.0 217.0 77.5 224.5Q71.0 232.0 66.5 238.0Q62.0 244.0 62.0 246.0Q62.0 246.5 68.75 246.75Q75.5 247.0 85.0 247.0Q103.0 247.0 103.0 243.5Q103.0 241.5 102.5 240.5Q101.0 236.5 99.75 229.0Q98.5 221.5 98.5 216.5ZM296.5 282.0 296.0 280.5Q289.5 271.0 287.0 271.0Q284.0 271.0 284.0 290.0Q284.0 305.0 284.5 305.0Q286.0 305.0 289.5 301.5Q293.0 298.0 296.0 294.0Q299.0 290.0 299.0 288.5Q299.0 286.0 296.5 282.0ZM435.5 179.0V155.5L379.5 156.5Q349.5 157.0 334.0 158.25Q318.5 159.5 310.5 162.75Q302.5 166.0 295.0 172.5L294.0 173.5Q285.0 181.0 285.0 184.0Q285.0 188.5 304.0 200.0Q312.5 205.0 317.5 210.5Q322.5 216.0 322.5 219.5V220.5Q321.0 224.0 316.5 224.0Q313.0 224.0 308.25 222.25Q303.5 220.5 298.0 218.0Q293.0 214.5 288.25 213.0Q283.5 211.5 280.5 211.5H280.0Q279.5 212.0 279.5 213.5Q279.5 218.0 283.25 227.25Q287.0 236.5 293.5 247.0Q300.0 257.5 307.0 266.0Q312.0 272.0 316.0 275.5Q320.0 279.0 326.5 280.75Q333.0 282.5 345.25 283.0Q357.5 283.5 379.0 283.5H383.0Q412.0 283.5 423.75 281.75Q435.5 280.0 435.5 272.0Q435.5 267.5 433.5 260.25Q431.5 253.0 428.5 243.5Q426.5 237.5 425.25 232.0Q424.0 226.5 424.0 223.0Q424.0 215.5 429.0 210.5Q435.5 202.0 435.5 179.0ZM502.0 294.5Q495.5 294.5 485.75 288.5Q476.0 282.5 470.5 279.0L452.5 267.0V292.0Q452.5 303.0 453.0 310.0Q453.5 317.0 454.0 317.5Q456.0 316.5 464.25 313.5Q472.5 310.5 482.0 307.5Q489.5 304.0 495.5 300.25Q501.5 296.5 502.0 294.5ZM150.0 109.0 148.5 88.0Q147.5 79.0 146.0 72.25Q144.5 65.5 143.5 65.5Q142.0 65.5 136.75 70.75Q131.5 76.0 125.75 83.25Q120.0 90.5 115.25 97.25Q110.5 104.0 109.5 106.5Q115.0 106.5 120.25 106.5Q125.5 106.5 130.5 107.5ZM299.0 145.0Q299.0 143.5 295.25 139.0Q291.5 134.5 287.25 130.75Q283.0 127.0 281.0 127.0Q278.0 127.0 278.0 144.5Q278.0 158.5 278.5 159.0Q280.5 158.0 285.5 155.5Q290.5 153.0 294.75 149.75Q299.0 146.5 299.0 145.0ZM499.0 139.0Q497.5 137.0 491.75 132.25Q486.0 127.5 478.0 121.5L452.5 105.5V161.0L471.0 151.5Q473.5 150.5 476.0 149.25Q478.5 148.0 480.5 147.0Q492.0 141.5 499.0 139.0ZM146.0 30.0Q151.5 21.0 157.75 15.5Q164.0 10.0 167.5 10.0H168.5Q173.0 12.0 174.0 17.5V18.0Q173.5 19.5 173.0 21.25Q172.5 23.0 171.0 24.5Q166.0 31.0 163.5 42.75Q161.0 54.5 161.0 68.0Q161.0 88.5 166.5 100.75Q172.0 113.0 183.5 122.25Q195.0 131.5 212.0 142.5Q228.5 153.0 242.5 161.25Q256.5 169.5 259.0 169.5Q260.5 169.5 260.5 151.0Q260.5 144.0 260.5 135.25Q260.5 126.5 259.5 114.5V111.5Q259.0 104.0 258.75 96.75Q258.5 89.5 258.5 83.5Q258.5 70.0 259.75 62.25Q261.0 54.5 264.0 54.5Q267.0 54.5 269.5 58.25Q272.0 62.0 272.0 67.5Q272.0 72.5 276.25 82.25Q280.5 92.0 287.25 102.5Q294.0 113.0 301.0 121.5Q308.0 130.0 313.5 133.5Q318.5 135.5 338.25 137.25Q358.0 139.0 380.5 139.0H435.5V123.5Q435.5 115.0 433.5 102.75Q431.5 90.5 428.5 81.0Q424.0 69.0 424.0 60.5Q424.0 56.0 427.5 50.0Q431.0 44.0 436.0 44.0Q440.0 44.0 440.0 52.5Q440.0 60.5 450.75 73.5Q461.5 86.5 477.5 99.0Q493.5 111.5 509.0 118.5Q519.0 123.5 527.75 126.5Q536.5 129.5 550.5 131.0Q564.5 132.5 590.0 133.0Q615.5 133.5 658.5 133.5Q695.0 133.5 723.0 134.5Q751.0 135.5 767.25 137.0Q783.5 138.5 783.5 141.0Q783.5 143.0 765.0 145.25Q746.5 147.5 714.5 149.0Q682.5 150.5 641.0 151.0Q583.5 151.5 549.0 153.25Q514.5 155.0 496.0 159.0Q477.5 163.0 469.5 170.5Q461.5 178.0 457.0 190.5Q454.0 199.0 450.5 204.5Q447.0 210.0 443.5 210.0Q440.0 210.0 440.0 213.5Q440.0 223.5 459.0 244.0Q466.0 253.0 481.25 263.5Q496.5 274.0 510.5 281.0L543.5 297.0L661.5 292.5Q681.0 291.5 700.75 291.0Q720.5 290.5 740.5 290.5Q783.5 290.5 783.5 296.5Q783.5 301.5 772.0 303.75Q760.5 306.0 742.5 306.5Q736.0 306.5 723.5 306.75Q711.0 307.0 694.5 308.0Q690.0 308.0 685.25 308.25Q680.5 308.5 675.5 308.5Q657.0 309.5 637.75 310.5Q618.5 311.5 599.5 311.5Q559.0 313.0 533.0 315.5Q507.0 318.0 491.75 322.25Q476.5 326.5 468.75 333.75Q461.0 341.0 457.0 352.5Q450.5 371.5 444.0 371.5Q435.5 371.5 435.5 333.0V299.0L374.5 301.5Q347.0 302.5 332.75 304.0Q318.5 305.5 311.25 308.75Q304.0 312.0 298.0 319.0Q293.0 325.5 288.5 334.75Q284.0 344.0 284.0 349.5Q284.0 356.0 281.5 361.25Q279.0 366.5 275.0 366.5Q272.5 366.5 260.0 359.5Q247.5 352.5 228.75 341.25Q210.0 330.0 188.5 316.0Q158.5 297.0 139.0 286.5Q119.5 276.0 106.75 271.25Q94.0 266.5 82.5 265.5Q78.5 265.0 74.5 265.0Q70.5 265.0 67.5 265.0Q57.5 265.0 51.0 267.0Q44.5 269.0 36.5 275.0Q19.5 287.0 14.5 287.0Q10.0 287.0 10.0 282.5Q10.0 273.0 46.5 234.0Q58.0 222.0 68.5 209.5Q79.0 197.0 86.75 186.75Q94.5 176.5 97.0 171.0Q102.0 162.5 107.75 156.5Q113.5 150.5 118.5 150.5Q125.5 150.5 125.5 156.5Q125.5 159.0 122.5 166.5Q119.5 171.5 117.75 182.75Q116.0 194.0 116.0 207.0Q116.0 230.5 121.5 245.5Q123.0 249.0 133.5 257.5Q144.0 266.0 159.75 277.0Q175.5 288.0 193.25 299.5Q211.0 311.0 227.0 321.0Q243.0 331.0 253.75 337.0Q264.5 343.0 266.5 343.0Q266.5 343.0 266.75 331.75Q267.0 320.5 267.0 304.0Q267.0 288.0 266.25 268.75Q265.5 249.5 264.0 231.0L259.5 192.5L211.0 162.0Q179.0 143.0 159.5 133.5Q140.0 124.0 125.5 124.0Q117.0 124.0 108.5 126.75Q100.0 129.5 90.5 135.0Q81.0 139.5 73.0 142.25Q65.0 145.0 61.5 145.0Q57.0 145.0 57.0 141.5Q57.0 139.0 68.25 124.75Q79.5 110.5 94.0 93.0Q109.5 76.0 124.75 57.75Q140.0 39.5 146.0 30.0Z" fill="black" /></svg>