<svg xmlns="http://www.w3.org/2000/svg" width="443.5" height="411.0" viewBox="0 0 443.5 411.0"><path d="M96.0 292.5Q96.0 288.0 95.0 288.0Q94.0 288.0 91.25 290.0Q88.5 292.0 86.0 294.5L84.0 296.5Q83.5 297.5 83.25 298.0Q83.0 298.5 83.0 299.0Q83.0 299.5 83.5 300.25Q84.0 301.0 84.5 302.0Q87.5 303.0 88.0 303.0Q90.5 303.0 93.25 299.5Q96.0 296.0 96.0 292.5ZM74.5 191.0Q71.0 188.5 63.5 183.0Q56.0 177.5 48.0 171.0L27.0 154.0V190.0Q27.0 207.0 28.5 218.75Q30.0 230.5 31.0 230.5Q33.0 230.5 33.0 227.5Q33.0 225.0 40.75 218.5Q48.5 212.0 58.5 206.0Q77.5 194.5 77.5 193.0Q77.5 192.0 76.5 191.75Q75.5 191.5 74.5 191.0ZM163.0 208.5V208.0Q162.5 200.0 159.25 197.75Q156.0 195.5 141.5 194.0Q139.0 193.5 136.0 193.5Q133.0 193.5 130.5 193.5Q119.0 193.5 115.0 196.0Q114.5 198.0 113.0 206.75Q111.5 215.5 111.5 227.0L112.0 248.5L117.5 242.5Q128.0 230.5 135.0 230.5Q140.0 230.5 140.0 236.0Q140.0 241.5 136.0 251.0Q132.5 256.5 131.25 260.0Q130.0 263.5 129.5 265.0Q143.5 261.5 153.5 247.5Q163.5 233.5 163.5 219.5Q163.5 217.0 163.5 214.0Q163.5 211.0 163.0 208.5ZM116.5 77.0H101.5Q93.5 77.0 90.25 78.25Q87.0 79.5 87.0 83.5Q87.0 91.5 94.0 110.0L98.5 125.0L99.0 123.5Q101.5 119.5 104.5 111.25Q107.5 103.0 109.5 95.0Q113.0 89.5 114.5 84.25Q116.0 79.0 116.5 77.0ZM145.5 109.5Q142.5 99.0 140.0 90.75Q137.5 82.5 136.5 82.5Q133.0 82.5 128.25 93.5Q123.5 104.5 119.5 120.25Q115.5 136.0 114.0 149.5L110.0 177.5H122.5Q129.5 177.5 138.25 178.5Q147.0 179.5 151.5 181.0L154.0 181.5Q155.5 181.5 156.75 181.75Q158.0 182.0 158.5 182.0Q158.5 182.0 158.75 181.5Q159.0 181.0 159.0 179.5Q159.0 174.0 157.5 163.5Q156.0 154.5 152.5 138.75Q149.0 123.0 145.5 109.5ZM186.0 77.0H170.5Q162.5 77.0 159.0 78.25Q155.5 79.5 155.5 83.5Q155.5 87.5 157.25 94.25Q159.0 101.0 162.0 110.0L164.0 116.0Q166.0 121.5 166.25 123.25Q166.5 125.0 167.0 125.0L167.5 123.5Q168.0 122.5 169.0 120.5Q170.0 118.5 170.5 117.0L171.5 114.0Q173.5 108.0 175.0 105.0Q176.0 102.5 177.25 99.75Q178.5 97.0 179.0 95.0Q181.5 89.5 183.25 84.25Q185.0 79.0 186.0 77.0ZM240.5 170.5V169.5Q241.5 168.0 242.25 166.5Q243.0 165.0 243.5 164.0Q239.5 165.0 232.5 171.0L226.0 176.5Q227.0 176.5 229.0 177.5Q233.0 176.5 236.5 174.75Q240.0 173.0 240.5 170.5ZM293.0 149.0Q293.5 145.0 294.0 142.5Q294.5 140.0 295.0 138.0Q293.0 139.0 288.5 142.25Q284.0 145.5 280.25 148.75Q276.5 152.0 276.5 153.5Q276.5 154.0 277.25 154.25Q278.0 154.5 278.5 155.5L280.0 157.5Q280.5 158.0 284.0 159.0Q287.5 160.0 288.0 160.0Q289.5 160.0 293.0 149.0ZM337.0 147.0 321.5 122.0Q320.0 125.5 318.25 128.75Q316.5 132.0 315.0 136.0L313.5 141.0Q311.5 147.5 310.0 151.75Q308.5 156.0 308.5 159.5Q308.5 166.0 313.0 170.5Q316.0 176.0 323.75 185.75Q331.5 195.5 341.0 205.75Q350.5 216.0 359.0 223.75Q367.5 231.5 371.0 234.0Q370.0 226.0 364.5 209.75Q359.0 193.5 351.5 176.0Q344.0 158.5 337.0 147.0ZM401.0 137.0Q399.0 137.0 396.0 136.5Q393.0 136.0 389.0 136.0L376.5 135.0Q366.0 135.0 357.75 134.75Q349.5 134.5 349.5 134.5Q350.5 138.5 355.75 149.5Q361.0 160.5 367.25 171.75Q373.5 183.0 377.0 189.0Q379.0 183.5 382.25 175.75Q385.5 168.0 389.5 161.0Q393.5 153.5 396.5 147.0Q399.5 140.5 401.0 137.0ZM398.5 35.0H389.5Q384.0 35.0 376.75 34.0Q369.5 33.0 364.0 32.5Q362.0 31.5 360.5 31.25Q359.0 31.0 357.5 31.0Q357.0 31.0 356.25 31.25Q355.5 31.5 355.5 31.5Q355.5 33.5 358.75 42.25Q362.0 51.0 367.5 60.0L376.5 82.0L386.5 59.0ZM160.5 298.5Q158.5 295.0 147.5 292.5Q136.5 290.0 128.0 290.0Q122.0 290.0 119.5 291.5V295.0Q119.5 299.5 121.5 304.0Q123.5 308.5 126.0 308.5Q129.0 308.5 131.25 311.5Q133.5 314.5 133.5 318.5Q133.5 321.0 139.75 326.75Q146.0 332.5 153.5 337.0Q161.0 341.5 164.0 341.5V328.5Q164.0 320.5 163.0 311.5Q162.0 302.5 160.5 298.5ZM164.5 270.5Q164.5 262.0 162.5 262.0Q160.0 262.0 154.25 267.5Q148.5 273.0 148.5 275.5Q148.5 278.0 156.5 278.0Q164.5 278.0 164.5 270.5ZM328.0 18.0Q328.0 11.0 335.0 10.0Q336.0 10.0 337.0 10.25Q338.0 10.5 339.0 10.5Q340.0 11.0 341.0 11.0Q342.0 11.0 343.0 12.0Q348.5 13.5 362.5 15.0Q376.5 16.5 391.0 16.5Q410.0 16.5 419.5 18.5Q429.0 20.5 429.0 26.0Q429.0 29.5 425.75 33.25Q422.5 37.0 417.0 42.5Q394.0 62.5 391.0 101.0L389.0 122.0L409.0 119.5Q410.0 119.5 411.25 119.5Q412.5 119.5 413.0 119.0H416.5Q433.5 119.0 433.5 127.0Q433.5 133.0 422.0 143.0Q413.0 151.5 407.25 161.25Q401.5 171.0 398.0 187.0Q394.5 203.0 392.5 229.5Q390.5 256.0 389.0 298.0Q385.0 401.0 377.0 401.0Q374.0 401.0 372.5 381.5Q371.0 362.0 371.0 320.5Q371.0 292.5 370.5 272.5Q370.0 252.5 369.5 252.5Q367.5 252.5 353.25 240.5Q339.0 228.5 321.5 211.5Q276.5 168.0 264.0 168.0Q255.5 168.0 255.5 177.5Q255.5 185.5 264.75 200.0Q274.0 214.5 291.0 234.5Q303.0 247.5 311.25 259.5Q319.5 271.5 319.5 275.0V276.0L319.0 276.5Q318.5 280.0 315.5 280.0Q312.5 280.0 306.25 274.5Q300.0 269.0 293.0 261.0Q286.0 253.0 272.25 239.5Q258.5 226.0 246.0 216.5Q229.0 202.5 220.0 197.75Q211.0 193.0 198.5 193.0Q185.5 193.0 183.25 195.5Q181.0 198.0 181.0 210.0V223.0L187.5 215.0Q191.5 210.0 195.25 207.75Q199.0 205.5 201.0 205.5Q205.0 205.5 205.0 211.0Q205.0 218.5 198.0 238.5Q193.0 248.5 189.5 259.75Q186.0 271.0 186.0 274.0Q186.0 281.5 198.5 293.5Q211.0 305.5 240.0 325.5Q252.0 334.0 261.5 342.75Q271.0 351.5 271.0 354.5Q271.0 361.5 265.0 361.5Q260.0 361.5 240.0 346.5Q233.5 340.5 222.25 332.75Q211.0 325.0 202.5 319.0L181.0 306.0V330.0Q181.0 346.5 182.75 353.0Q184.5 359.5 190.5 363.5Q195.0 366.5 198.75 371.75Q202.5 377.0 202.5 380.0Q202.5 387.0 196.5 387.0Q193.0 387.0 187.5 381.5Q184.0 377.5 180.0 374.75Q176.0 372.0 173.5 372.0Q171.5 372.0 167.5 369.75Q163.5 367.5 162.0 364.0Q160.0 361.0 152.75 355.75Q145.5 350.5 136.75 344.75Q128.0 339.0 121.0 335.0Q114.0 331.0 112.0 331.0Q112.0 331.0 111.75 336.25Q111.5 341.5 111.5 348.5Q111.5 358.0 110.0 365.0Q108.5 372.0 104.5 372.0Q101.0 372.0 98.5 365.0Q96.0 358.0 96.0 347.0Q96.0 329.0 91.0 321.75Q86.0 314.5 73.0 314.5Q52.0 314.5 52.0 304.5Q52.0 298.0 63.5 291.0Q77.0 282.0 84.0 274.75Q91.0 267.5 93.5 258.0Q96.0 248.5 96.0 233.5Q96.0 221.0 95.75 212.25Q95.5 203.5 95.5 203.5Q92.5 203.5 82.0 210.25Q71.5 217.0 59.0 226.25Q46.5 235.5 37.0 244.0Q29.0 252.0 22.0 257.0Q15.0 262.0 13.0 262.0L11.0 261.0Q10.5 260.5 10.25 257.25Q10.0 254.0 10.0 250.5Q10.0 217.5 11.5 183.0L14.0 101.0L36.0 134.0Q43.5 145.0 53.25 155.0Q63.0 165.0 72.5 171.25Q82.0 177.5 87.5 177.5Q88.0 177.5 88.75 177.0Q89.5 176.5 89.5 176.5V175.0Q89.5 166.0 87.0 152.25Q84.5 138.5 80.75 123.25Q77.0 108.0 73.25 94.25Q69.5 80.5 66.5 72.0Q66.0 70.5 66.0 67.5Q66.0 63.0 71.25 61.5Q76.5 60.0 95.0 60.0Q100.5 60.0 113.0 60.25Q125.5 60.5 141.0 60.75Q156.5 61.0 171.0 61.5Q185.5 62.0 195.5 63.0Q205.5 64.0 207.0 65.0V67.0Q207.0 69.5 204.5 77.5Q202.0 85.5 198.0 95.0Q193.0 105.5 188.0 122.0Q183.0 138.5 182.0 151.5L179.5 180.0L196.5 171.5Q206.0 168.0 220.75 157.75Q235.5 147.5 247.0 138.0Q270.0 119.0 277.0 119.0Q279.5 119.0 280.75 120.5Q282.0 122.0 282.5 123.5Q288.0 122.5 303.5 108.0Q323.0 94.0 329.0 93.0Q333.0 93.5 333.0 97.5Q333.0 101.5 331.5 105.5Q330.0 109.5 327.0 111.5Q326.5 112.5 325.5 114.5Q324.5 116.5 323.0 119.0H349.0Q357.5 119.0 364.25 118.75Q371.0 118.5 371.0 118.5Q371.0 116.5 367.25 106.5Q363.5 96.5 358.0 83.5Q352.5 70.5 347.0 59.0Q341.5 47.5 338.5 42.0Q333.5 35.0 330.75 28.0Q328.0 21.0 328.0 18.0Z" fill="black" /></svg>