<svg xmlns="http://www.w3.org/2000/svg" width="495.5" height="450.0" viewBox="0 0 495.5 450.0"><path d="M98.0 327.0Q105.0 314.0 110.5 304.25Q116.0 294.5 116.0 294.5H115.0Q111.5 294.5 105.75 294.75Q100.0 295.0 92.0 295.5H87.0L63.0 298.0L69.5 321.5Q71.5 325.5 73.5 331.25Q75.5 337.0 77.5 341.5Q78.5 345.0 79.75 348.0Q81.0 351.0 82.0 353.0Q84.5 350.5 88.75 343.5Q93.0 336.5 98.0 327.0ZM144.5 101.0 144.0 100.5Q141.5 96.5 137.75 89.0Q134.0 81.5 131.0 73.5L127.0 61.5L105.0 82.5L82.5 101.5L111.0 104.5Q128.5 106.0 139.0 106.0Q143.0 106.0 145.25 105.75Q147.5 105.5 147.5 105.5Q147.5 104.0 144.5 101.0ZM108.5 50.0Q151.5 10.0 160.5 10.0Q165.0 10.0 165.0 16.0Q165.0 20.5 157.0 38.0Q150.0 49.0 150.0 58.5Q150.0 72.0 160.5 89.0Q171.0 106.0 186.75 123.25Q202.5 140.5 218.25 154.5Q234.0 168.5 244.0 175.5L264.0 190.5L366.5 129.0Q395.0 111.5 419.75 97.0Q444.5 82.5 460.5 74.0Q476.5 65.5 478.5 65.5Q485.5 65.5 485.5 70.0Q485.5 75.0 459.5 92.25Q433.5 109.5 374.0 145.5Q350.0 160.0 329.25 172.75Q308.5 185.5 295.5 194.25Q282.5 203.0 280.5 205.5Q283.0 207.5 295.0 218.0Q307.0 228.5 325.75 244.25Q344.5 260.0 366.0 278.5Q410.5 315.5 430.25 335.0Q450.0 354.5 450.0 360.5Q450.0 366.0 443.0 366.0Q442.0 366.0 428.75 355.5Q415.5 345.0 394.5 327.75Q373.5 310.5 349.5 290.0Q327.0 270.0 307.0 253.25Q287.0 236.5 274.75 226.0Q262.5 215.5 261.5 215.5Q260.5 215.5 246.0 223.5Q231.5 231.5 213.5 243.0Q194.0 255.0 178.25 263.25Q162.5 271.5 160.0 271.5Q156.5 271.5 149.25 280.75Q142.0 290.0 133.0 304.5Q124.0 319.0 116.25 334.75Q108.5 350.5 104.0 363.0Q99.0 375.5 96.75 385.5Q94.5 395.5 94.5 404.5Q94.5 408.0 94.75 411.5Q95.0 415.0 95.5 418.0L96.0 421.0Q97.0 425.5 97.5 429.25Q98.0 433.0 98.0 435.0Q98.0 440.0 94.0 440.0Q87.5 440.0 82.5 432.75Q77.5 425.5 75.0 417.0Q72.5 408.5 72.5 404.0Q72.5 395.5 66.75 375.0Q61.0 354.5 53.5 332.5Q29.0 266.5 29.0 253.5Q29.0 246.5 34.0 246.5Q36.5 246.5 41.75 251.0Q47.0 255.5 54.0 263.5Q66.0 278.5 86.0 278.5Q122.5 278.5 202.5 228.5Q218.5 218.5 229.5 210.25Q240.5 202.0 241.0 200.5Q239.5 198.0 229.75 188.75Q220.0 179.5 207.0 167.5L204.0 165.0Q179.0 142.5 155.25 132.75Q131.5 123.0 98.0 123.0Q77.5 123.0 59.0 126.75Q40.5 130.5 30.0 137.0Q25.0 140.5 21.0 142.0Q17.0 143.5 14.5 143.5Q10.0 143.5 10.0 137.5Q10.0 135.5 11.0 132.5Q12.0 129.5 14.5 125.0Q16.5 122.5 24.0 117.0Q31.5 111.5 39.5 106.5Q45.5 104.0 56.75 95.5Q68.0 87.0 81.75 75.0Q95.5 63.0 108.5 50.0Z" fill="black" /></svg>