<svg xmlns="http://www.w3.org/2000/svg" width="603.0" height="479.0" viewBox="0 0 603.0 479.0"><path d="M122.0 315.0Q118.5 310.0 111.75 302.25Q105.0 294.5 97.0 285.5L67.0 253.5L60.5 269.5Q58.0 277.0 54.75 283.75Q51.5 290.5 50.0 293.5Q63.0 293.5 76.0 297.5Q89.0 301.5 100.5 306.0L105.5 308.5Q110.5 310.5 114.5 312.25Q118.5 314.0 122.0 315.0ZM218.5 305.0Q217.0 302.0 209.0 299.0Q201.0 296.0 198.5 296.0Q198.0 296.0 198.0 304.5Q198.0 312.0 199.5 312.0Q203.0 312.0 210.0 309.5Q217.0 307.0 218.5 305.0ZM181.0 343.5Q185.0 347.0 193.5 353.25Q202.0 359.5 211.75 366.25Q221.5 373.0 230.0 377.75Q238.5 382.5 242.5 382.5Q245.0 380.0 251.0 377.75Q257.0 375.5 263.5 374.0L278.5 371.0V340.5Q278.5 329.0 278.5 319.5Q278.5 310.0 278.0 309.0Q271.0 310.0 259.75 312.75Q248.5 315.5 236.5 319.25Q224.5 323.0 215.0 326.5Q205.5 330.0 201.5 333.0Q186.5 342.5 181.0 343.5ZM128.5 171.0 139.0 161.0 108.5 161.5Q76.0 163.5 74.5 164.5L75.0 165.5Q75.0 167.0 75.75 168.25Q76.5 169.5 77.0 171.5Q77.0 172.0 77.25 173.25Q77.5 174.5 77.5 176.0Q78.0 178.5 78.5 181.5Q79.0 184.5 79.5 187.5L83.0 209.0L96.0 197.0Q103.0 191.5 112.75 183.75Q122.5 176.0 128.5 171.0ZM322.0 132.0Q320.0 128.0 310.5 122.25Q301.0 116.5 291.0 112.0Q281.0 107.5 276.5 107.5Q274.5 107.5 259.0 114.0Q243.5 120.5 225.5 129.5Q202.5 140.5 176.5 157.0Q150.5 173.5 127.5 191.75Q104.5 210.0 90.0 226.0L77.5 238.0L89.0 252.5Q112.5 278.5 134.25 300.25Q156.0 322.0 175.0 338.5Q175.0 335.0 178.0 329.0Q180.0 326.5 181.0 320.75Q182.0 315.0 182.0 308.0Q182.0 303.0 181.5 298.25Q181.0 293.5 180.5 288.5Q180.0 285.5 179.75 282.0Q179.5 278.5 179.5 275.5Q179.5 267.0 181.0 260.0Q182.5 253.0 184.0 251.5Q186.0 249.0 186.0 246.0Q186.0 240.0 182.5 232.5Q181.0 227.0 180.0 223.25Q179.0 219.5 179.0 216.0Q179.0 213.0 180.0 210.25Q181.0 207.5 183.0 204.0Q185.5 202.0 186.0 197.25Q186.5 192.5 186.5 186.0V179.5Q186.0 176.5 186.0 173.75Q186.0 171.0 186.0 169.0Q186.0 153.5 193.0 153.5Q197.0 153.5 201.5 164.0Q204.0 171.0 218.75 176.25Q233.5 181.5 251.0 181.5H270.5L267.5 168.0Q265.5 159.5 264.5 150.5Q263.5 141.5 262.5 133.0L262.0 131.5Q261.5 129.0 260.75 126.75Q260.0 124.5 260.0 122.5Q260.0 116.0 267.0 116.0Q269.5 116.0 277.0 118.5Q284.5 121.0 298.0 126.0L300.5 127.5Q306.0 129.0 311.5 130.5Q317.0 132.0 322.0 132.0ZM214.0 192.0V191.5Q211.0 188.5 208.0 188.5Q206.5 188.5 204.75 189.5Q203.0 190.5 203.0 192.5V196.5Q204.5 196.5 209.25 194.75Q214.0 193.0 214.0 192.0ZM218.5 245.0Q218.0 244.0 215.25 242.5Q212.5 241.0 209.5 240.0Q208.0 239.0 205.5 239.0Q203.0 239.0 203.0 244.5Q203.0 249.0 205.0 249.0L206.0 248.5H207.5Q210.0 247.5 213.25 246.5Q216.5 245.5 218.5 245.0ZM278.5 228.0Q278.5 223.5 278.0 216.75Q277.5 210.0 275.0 204.25Q272.5 198.5 266.5 198.0Q261.0 198.5 251.25 200.5Q241.5 202.5 231.5 205.0Q221.5 207.5 213.75 209.75Q206.0 212.0 204.0 213.5Q203.5 214.0 202.75 214.75Q202.0 215.5 202.0 216.0Q202.0 220.5 210.75 225.0Q219.5 229.5 233.25 232.5Q247.0 235.5 262.5 235.5Q273.0 235.5 275.75 234.0Q278.5 232.5 278.5 228.0ZM283.5 294.0V270.0Q283.5 263.0 283.0 255.5Q282.5 248.0 282.5 248.0Q277.5 249.0 265.5 251.5Q253.5 254.0 240.0 257.25Q226.5 260.5 215.75 263.5Q205.0 266.5 202.0 268.0Q199.5 269.0 199.5 271.5Q199.5 276.0 209.0 281.25Q218.5 286.5 233.0 290.25Q247.5 294.0 262.5 294.0ZM302.0 144.0Q296.5 143.0 290.0 141.5Q283.5 140.0 279.5 139.0Q279.5 142.5 280.75 150.75Q282.0 159.0 284.0 171.5Q287.5 185.5 289.75 195.5Q292.0 205.5 292.0 205.5Q293.5 200.5 296.25 190.0Q299.0 179.5 302.5 169.5Q306.0 159.5 308.5 156.5Q312.5 154.0 312.5 151.5Q312.5 146.5 302.0 144.0ZM377.0 164.0Q366.5 155.5 357.25 150.5Q348.0 145.5 346.0 145.5Q338.0 145.5 330.5 155.0Q323.0 164.5 317.0 178.25Q311.0 192.0 307.5 205.5Q304.0 219.0 304.0 227.0Q304.0 235.5 311.0 235.5Q321.5 235.5 321.5 242.5V244.0Q319.5 247.5 314.75 249.5Q310.0 251.5 305.5 251.5Q302.0 251.5 300.5 255.25Q299.0 259.0 299.0 273.5Q299.0 285.0 300.25 289.5Q301.5 294.0 303.5 294.0Q314.0 294.0 314.0 300.5Q314.0 303.5 311.0 306.75Q308.0 310.0 301.5 311.5Q296.5 312.0 295.5 317.5Q294.5 323.0 294.5 340.5Q294.5 351.0 294.75 358.5Q295.0 366.0 295.5 366.0Q300.5 366.0 313.75 362.25Q327.0 358.5 344.75 352.25Q362.5 346.0 381.0 338.75Q399.5 331.5 415.0 325.0Q430.5 318.5 438.5 313.5Q442.0 311.0 445.75 309.25Q449.5 307.5 452.5 305.5Q464.0 300.0 473.75 294.75Q483.5 289.5 489.0 287.5Q496.0 285.0 500.75 282.25Q505.5 279.5 505.5 278.5Q505.5 276.5 495.25 266.25Q485.0 256.0 468.75 241.25Q452.5 226.5 434.5 210.75Q416.5 195.0 401.0 182.25Q385.5 169.5 377.0 164.0ZM355.5 116.5Q349.0 106.5 341.75 93.0Q334.5 79.5 332.0 70.0L325.5 51.5L318.5 60.0Q313.5 65.0 305.25 71.25Q297.0 77.5 290.5 81.0L280.5 85.5Q280.5 85.5 281.25 86.0Q282.0 86.5 282.5 87.5Q283.5 88.0 284.0 88.5Q284.5 89.0 285.5 89.5Q293.0 95.0 305.25 102.25Q317.5 109.5 330.75 117.25Q344.0 125.0 355.75 131.25Q367.5 137.5 375.0 141.0Q372.5 137.5 366.25 130.0Q360.0 122.5 359.0 120.5Q358.5 119.5 357.5 118.25Q356.5 117.0 355.5 116.5ZM511.5 68.5 522.0 89.5 545.5 43.5H523.5Q513.5 43.5 506.5 44.0Q499.5 44.5 499.5 44.5Q500.0 45.0 500.0 45.5Q500.0 46.0 500.5 47.0Q501.0 48.0 501.75 50.0Q502.5 52.0 503.5 53.0Q504.0 54.5 504.5 55.75Q505.0 57.0 505.5 58.5Q507.5 60.5 508.75 63.25Q510.0 66.0 511.5 68.5ZM353.5 366.0Q348.0 368.0 335.0 371.5Q322.0 375.0 306.5 379.0L294.5 382.5Q282.0 386.0 273.5 388.5Q265.0 391.0 262.5 392.5Q263.0 393.5 266.5 397.0Q267.0 398.0 268.5 399.5Q274.0 403.0 279.0 409.75Q284.0 416.5 287.0 422.0L290.5 431.0L298.5 419.5Q304.0 409.5 318.5 395.25Q333.0 381.0 353.5 366.0ZM323.5 22.5V22.0Q326.5 15.0 329.75 12.5Q333.0 10.0 335.0 10.0Q342.5 10.0 342.5 34.0Q342.5 44.0 346.0 57.0Q349.5 70.0 354.5 80.0Q360.5 92.0 373.25 109.75Q386.0 127.5 403.0 148.25Q420.0 169.0 438.75 189.5Q457.5 210.0 475.0 227.5L508.5 257.5L510.0 188.0V169.0Q510.0 136.5 508.75 118.5Q507.5 100.5 503.5 89.5Q499.5 80.0 491.75 68.0Q484.0 56.0 476.5 47.25Q469.0 38.5 464.5 38.5Q457.0 38.5 457.0 32.0Q457.0 29.0 476.5 27.0Q496.0 25.0 522.0 25.0H593.0L566.0 51.5Q556.0 61.5 549.0 73.0Q542.0 84.5 536.0 101.5Q533.0 112.0 531.0 123.0Q529.0 134.0 528.0 151.5Q527.0 169.0 526.75 198.0Q526.5 227.0 526.5 273.5Q526.5 343.0 524.75 379.5Q523.0 416.0 519.0 416.0Q514.5 416.0 512.75 398.5Q511.0 381.0 511.0 352.0V296.0Q508.5 296.5 497.0 302.0Q485.5 307.5 471.5 315.0Q421.0 340.5 382.0 366.5Q343.0 392.5 321.0 415.5Q299.0 438.5 299.0 454.5Q299.0 469.0 292.0 469.0Q284.5 469.0 277.5 445.5Q275.5 437.5 270.75 431.5Q266.0 425.5 254.25 416.25Q242.5 407.0 218.5 391.0Q204.0 381.0 186.0 370.0Q168.0 359.0 151.0 349.5Q134.0 340.0 122.0 334.5Q104.0 324.5 93.25 319.75Q82.5 315.0 72.75 313.25Q63.0 311.5 48.5 311.5Q34.0 310.5 22.75 309.25Q11.5 308.0 10.0 307.0V305.5Q10.0 302.5 15.25 296.75Q20.5 291.0 27.0 286.0Q34.0 281.0 41.5 272.25Q49.0 263.5 51.0 257.0Q55.0 250.0 58.25 243.5Q61.5 237.0 64.0 235.5Q67.0 233.0 67.0 221.5Q67.0 210.0 64.0 194.25Q61.0 178.5 57.0 165.5Q53.5 157.5 51.5 151.25Q49.5 145.0 49.0 141.5Q50.0 135.5 54.5 135.5Q58.5 135.5 68.0 141.5Q77.5 149.5 99.0 149.5Q118.5 149.5 149.25 141.0Q180.0 132.5 217.0 117.0Q237.5 108.0 246.25 102.25Q255.0 96.5 256.5 90.5Q258.5 83.0 264.0 78.0Q269.5 73.0 276.5 69.0Q285.0 65.0 294.5 57.25Q304.0 49.5 312.0 40.25Q320.0 31.0 323.5 22.5Z" fill="black" /></svg>