<svg xmlns="http://www.w3.org/2000/svg" width="568.0" height="456.0" viewBox="0 0 568.0 456.0"><path d="M103.5 109.0Q102.0 105.0 100.5 101.5Q99.0 98.0 98.5 98.0Q97.5 98.0 90.0 105.75Q82.5 113.5 73.25 124.25Q64.0 135.0 56.75 144.5Q49.5 154.0 48.5 157.0Q53.5 158.0 65.75 160.25Q78.0 162.5 92.0 165.5Q101.5 166.5 110.75 168.25Q120.0 170.0 128.0 171.0L147.0 175.0Q149.5 175.0 152.5 176.0Q151.0 173.5 148.0 169.75Q145.0 166.0 139.5 161.0L133.5 154.5Q122.5 140.5 113.5 128.0Q104.5 115.5 103.5 109.0ZM278.0 81.0Q278.0 81.0 277.75 81.0Q277.5 81.0 277.0 81.0Q274.5 81.0 269.0 80.25Q263.5 79.5 257.5 79.0H247.5Q246.0 78.5 244.25 78.5Q242.5 78.5 241.5 78.5Q239.0 78.5 238.5 78.0Q239.5 81.5 241.5 86.75Q243.5 92.0 245.5 97.5Q247.5 101.0 248.0 104.0Q249.0 107.5 250.75 111.0Q252.5 114.5 253.0 117.5Q254.5 121.0 255.75 124.25Q257.0 127.5 258.5 130.0Q258.5 130.5 258.75 130.75Q259.0 131.0 259.0 131.0Q260.0 128.5 262.0 123.75Q264.0 119.0 267.0 111.5Q268.5 106.0 270.5 100.5Q272.5 95.0 274.0 91.5Q275.0 88.0 276.0 85.5Q277.0 83.0 278.0 81.0ZM289.0 103.5Q281.0 118.0 278.0 133.25Q275.0 148.5 273.5 177.5L272.0 227.5L298.0 242.0Q308.0 248.5 317.0 252.25Q326.0 256.0 328.0 257.0V253.5Q328.0 243.5 322.25 220.0Q316.5 196.5 305.5 162.5Q299.0 141.0 294.5 124.75Q290.0 108.5 289.0 103.5ZM215.0 47.0 224.0 29.0H172.5L196.0 102.0L199.0 91.5Q200.5 83.0 205.25 70.0Q210.0 57.0 215.0 47.0ZM255.0 213.0Q255.0 202.0 251.75 185.25Q248.5 168.5 243.75 150.0Q239.0 131.5 233.75 114.75Q228.5 98.0 224.0 87.5Q223.0 84.5 222.25 82.25Q221.5 80.0 220.5 79.0Q220.5 79.5 219.5 82.5Q216.5 86.0 214.25 103.75Q212.0 121.5 211.0 141.5L208.5 188.0L233.5 205.5Q236.0 206.5 238.75 208.25Q241.5 210.0 243.5 211.0Q251.0 215.5 255.0 217.5ZM348.0 129.5 349.0 125.5Q350.0 124.5 350.0 123.0Q350.0 122.0 346.25 121.5Q342.5 121.0 332.5 121.0Q324.0 121.0 318.0 121.5Q312.0 122.0 312.0 122.5Q312.0 123.5 315.25 133.0Q318.5 142.5 323.0 155.5L330.0 177.0L336.5 161.0Q339.0 152.5 342.5 143.75Q346.0 135.0 348.0 129.5ZM520.5 59.0Q515.5 58.0 501.25 57.0Q487.0 56.0 471.0 55.25Q455.0 54.5 445.0 54.5Q440.0 54.5 439.0 54.0Q440.0 56.5 442.5 63.0Q445.0 69.5 450.0 77.0Q455.0 87.0 460.75 102.75Q466.5 118.5 470.0 130.0L476.5 149.0L481.5 133.5Q484.0 123.0 491.75 107.25Q499.5 91.5 506.0 81.5Q507.0 80.0 508.25 78.0Q509.5 76.0 510.0 74.0Q511.0 73.0 511.75 72.0Q512.5 71.0 513.0 70.5Q515.5 66.5 517.5 63.75Q519.5 61.0 520.5 59.0ZM149.0 22.5 148.5 21.0Q148.5 20.5 148.25 20.0Q148.0 19.5 148.0 19.0V18.0Q148.0 14.0 152.75 12.0Q157.5 10.0 171.0 10.0Q189.0 10.0 207.5 11.25Q226.0 12.5 243.5 14.0H247.5L248.0 18.0Q248.0 20.0 245.75 25.75Q243.5 31.5 240.5 38.5Q233.5 49.0 233.5 55.0Q235.5 57.5 246.0 59.0Q256.5 60.5 270.5 60.5Q274.0 60.5 276.5 59.5H281.0Q292.0 59.5 299.0 61.5Q306.0 63.5 306.0 66.5Q306.0 68.5 301.75 78.0Q297.5 87.5 290.5 101.0Q290.5 101.5 290.25 101.5Q290.0 101.5 290.0 102.0H332.0Q350.0 103.0 362.25 105.75Q374.5 108.5 374.5 112.0Q374.5 113.5 370.75 124.75Q367.0 136.0 360.5 149.0Q353.5 164.5 350.5 177.25Q347.5 190.0 347.5 209.5V227.5L349.0 271.5L392.5 294.0Q411.0 303.5 424.75 314.0Q438.5 324.5 438.5 327.5Q438.5 332.0 433.0 332.0Q423.5 332.0 390.5 315.5Q374.5 305.5 361.5 298.5Q348.5 291.5 346.5 291.5Q346.5 291.5 346.25 311.5Q346.0 331.5 346.0 359.5Q346.0 397.5 343.5 416.5Q341.0 435.5 337.5 435.5Q334.0 435.5 331.5 414.5Q329.0 393.5 328.0 354.5L326.0 280.0L273.0 248.5V316.5Q273.0 353.0 270.25 374.0Q267.5 395.0 263.5 395.0Q260.0 395.0 257.5 373.0Q255.0 351.0 255.0 314.5V239.5L232.5 226.5Q225.0 221.0 218.5 217.25Q212.0 213.5 209.5 213.0V240.0Q209.5 250.5 210.0 263.5Q210.5 276.5 211.0 291.0V295.0Q211.5 307.5 211.75 319.75Q212.0 332.0 212.0 342.5Q212.0 361.0 210.75 372.5Q209.5 384.0 205.5 384.0Q202.0 384.0 199.0 368.25Q196.0 352.5 194.0 325.75Q192.0 299.0 192.0 265.5V207.0L176.0 201.5Q138.0 189.5 94.5 181.5Q51.0 173.5 10.5 173.5L10.0 170.0Q10.0 167.5 14.75 161.25Q19.5 155.0 27.0 146.5Q41.5 132.0 56.0 116.75Q70.5 101.5 81.5 85.0Q94.0 66.5 102.0 66.5Q109.5 66.5 114.0 86.0Q117.0 98.0 126.0 113.0Q135.0 128.0 147.5 142.5Q160.0 157.0 173.0 167.5L192.5 181.0L190.5 159.0Q189.5 151.5 186.5 138.25Q183.5 125.0 179.0 109.5Q174.5 94.0 169.0 79.5Q162.5 62.0 157.0 45.75Q151.5 29.5 149.0 22.5ZM409.5 33.0Q409.5 29.0 414.0 29.0Q415.5 29.0 417.75 29.25Q420.0 29.5 422.0 30.0L426.0 31.0Q431.5 32.5 451.75 35.0Q472.0 37.5 496.5 38.5Q521.0 40.0 539.5 41.25Q558.0 42.5 558.0 42.5Q558.0 45.0 551.0 54.5Q544.0 64.0 535.0 73.0Q524.0 85.0 516.75 96.5Q509.5 108.0 504.75 122.75Q500.0 137.5 497.25 159.25Q494.5 181.0 493.0 214.0Q491.5 247.0 490.5 295.5Q490.0 337.5 488.25 371.5Q486.5 405.5 484.5 425.75Q482.5 446.0 480.0 446.0Q477.5 446.0 475.5 429.0Q473.5 412.0 472.5 382.75Q471.5 353.5 471.5 318.0Q471.5 283.0 471.25 259.25Q471.0 235.5 470.25 219.5Q469.5 203.5 467.75 192.25Q466.0 181.0 463.5 170.5Q461.0 160.0 457.0 147.5Q454.0 135.5 448.5 121.5Q443.0 107.5 437.25 94.5Q431.5 81.5 426.0 72.5Q419.5 58.0 414.5 46.0Q409.5 34.0 409.5 33.0Z" fill="black" /></svg>