<svg xmlns="http://www.w3.org/2000/svg" width="272.0" height="458.0" viewBox="0 0 272.0 458.0"><path d="M96.5 39.0Q96.0 38.0 89.5 37.25Q83.0 36.5 67.5 36.5Q51.5 36.5 45.5 37.25Q39.5 38.0 39.5 39.0Q39.5 41.0 40.5 42.0Q41.5 43.5 42.5 46.75Q43.5 50.0 45.5 54.0Q49.0 60.5 52.75 69.5Q56.5 78.5 60.0 88.0L67.5 111.5Q73.0 91.0 81.5 71.5Q90.0 52.0 96.5 39.0ZM229.0 36.0H212.5Q209.0 36.0 204.25 36.0Q199.5 36.0 195.0 35.5L163.0 32.5L170.5 49.5Q173.0 57.5 177.75 71.75Q182.5 86.0 186.5 98.0Q190.5 113.0 195.5 123.5L200.0 105.5Q204.0 89.5 210.25 73.75Q216.5 58.0 225.0 43.0L228.0 38.0Q229.0 36.0 229.0 36.0ZM10.0 23.0V22.0Q10.0 18.0 19.0 18.0Q23.0 18.0 29.0 18.0Q35.0 18.0 43.0 18.5L50.5 19.0H58.0Q60.5 19.5 62.75 19.75Q65.0 20.0 67.0 20.0Q75.0 20.5 82.25 20.5Q89.5 20.5 96.0 20.5H102.5Q111.0 21.0 117.25 21.5Q123.5 22.0 124.5 23.5L126.0 25.5Q126.0 28.5 122.0 35.5Q118.0 42.5 112.5 50.0Q97.0 75.5 89.75 114.25Q82.5 153.0 82.5 194.5V369.0Q82.5 397.0 81.75 412.5Q81.0 428.0 79.5 434.75Q78.0 441.5 76.25 442.75Q74.5 444.0 72.5 444.0Q70.5 444.0 69.0 442.5Q67.5 441.0 66.5 434.25Q65.5 427.5 64.75 412.0Q64.0 396.5 63.5 369.0L61.5 204.0Q59.0 164.5 53.0 134.5Q47.0 104.5 36.5 78.0Q26.0 51.5 10.0 23.0ZM138.0 15.5Q138.0 10.0 146.0 10.0Q147.0 10.0 148.25 10.25Q149.5 10.5 151.0 10.5Q151.5 10.5 154.5 11.5Q159.5 13.0 175.25 14.75Q191.0 16.5 210.5 16.5Q231.0 16.5 246.5 17.25Q262.0 18.0 262.0 22.0Q262.0 24.5 258.5 29.25Q255.0 34.0 251.0 38.5Q246.0 42.5 239.25 54.0Q232.5 65.5 227.0 76.0Q220.5 93.0 215.5 119.25Q210.5 145.5 210.5 193.0V370.0Q210.5 399.0 209.75 415.25Q209.0 431.5 207.5 438.25Q206.0 445.0 204.25 446.5Q202.5 448.0 201.0 448.0Q199.5 448.0 197.75 446.5Q196.0 445.0 194.5 438.25Q193.0 431.5 192.0 415.25Q191.0 399.0 191.0 370.0V292.0L190.5 209.0Q189.5 187.0 187.75 172.5Q186.0 158.0 182.75 145.25Q179.5 132.5 174.5 116.5Q169.0 95.5 161.5 74.5Q154.0 53.5 148.5 44.5Q144.0 34.5 141.0 26.0Q138.0 17.5 138.0 15.5Z" fill="black" /></svg>