<svg xmlns="http://www.w3.org/2000/svg" width="410.0" height="459.0" viewBox="0 0 410.0 459.0"><path d="M100.0 266.5Q100.0 265.5 96.0 260.5Q92.0 255.5 86.5 249.0Q81.0 242.5 75.75 237.0Q70.5 231.5 68.0 229.5Q66.5 233.0 62.5 238.0Q58.5 243.0 54.5 248.5L42.0 267.0L70.0 267.5Q84.0 267.5 92.0 267.25Q100.0 267.0 100.0 266.5ZM214.5 203.0 191.0 195.5Q174.0 191.0 155.25 188.25Q136.5 185.5 125.0 185.5Q121.5 185.5 119.5 185.75Q117.5 186.0 116.5 186.5Q115.5 188.0 114.75 198.25Q114.0 208.5 114.0 221.5V254.0L133.5 267.5Q139.0 271.5 150.5 277.25Q162.0 283.0 175.25 288.5Q188.5 294.0 199.75 298.0Q211.0 302.0 216.0 303.0V252.0ZM329.0 292.5 327.5 242.0 229.5 208.5V254.5Q229.5 279.5 231.0 292.0Q232.5 304.5 234.5 307.0Q237.0 308.5 246.5 312.25Q256.0 316.0 268.75 320.5Q281.5 325.0 294.5 329.5Q307.5 334.0 317.25 337.25Q327.0 340.5 330.5 341.0Q330.0 338.5 330.0 334.5Q330.0 330.5 330.0 324.5Q330.0 317.5 329.75 309.25Q329.5 301.0 329.0 292.5ZM107.5 110.5 109.0 119.0 126.5 87.5H112.0Q107.5 87.5 104.25 87.75Q101.0 88.0 99.5 88.0Q101.5 91.0 103.5 97.5Q105.5 104.0 107.5 110.5ZM125.0 128.0Q125.0 127.0 124.75 126.75Q124.5 126.5 124.5 126.5Q122.5 126.5 119.75 135.5Q117.0 144.5 116.0 151.0Q118.5 147.0 121.75 139.25Q125.0 131.5 125.0 128.0ZM167.0 174.0 152.0 161.5Q149.0 157.5 146.25 155.25Q143.5 153.0 141.0 151.0Q138.0 147.0 136.0 145.0Q134.0 143.0 134.0 143.0Q133.5 143.0 130.0 148.5Q126.5 154.0 123.25 160.0Q120.0 166.0 119.0 168.5L120.5 170.0H123.5Q127.5 170.5 133.75 171.0Q140.0 171.5 146.0 172.0ZM239.5 113.5Q238.0 114.0 235.0 114.0Q232.0 114.0 228.0 114.0H217.5Q217.5 114.5 218.25 115.5Q219.0 116.5 219.5 118.5Q220.5 123.5 222.5 128.5L225.5 137.5L235.0 122.0Q236.0 119.5 237.5 117.25Q239.0 115.0 239.5 113.5ZM240.5 81.5Q225.0 79.0 210.25 77.25Q195.5 75.5 191.0 75.5Q175.5 77.0 159.0 84.0Q142.5 91.0 136.0 102.0Q134.5 104.0 133.25 106.0Q132.0 108.0 131.0 110.0Q134.5 108.0 137.0 108.0Q142.5 108.0 142.5 114.0Q142.5 114.5 142.25 116.5Q142.0 118.5 141.0 119.5V120.0Q142.0 126.0 152.0 137.75Q162.0 149.5 175.75 161.0Q189.5 172.5 201.5 179.0L215.0 185.5V174.0Q215.0 154.5 209.0 137.25Q203.0 120.0 195.5 113.5Q192.0 109.5 188.25 105.75Q184.5 102.0 184.5 101.0Q184.5 98.5 191.5 97.5Q198.5 96.5 209.5 96.5Q221.5 96.5 235.25 97.0Q249.0 97.5 260.5 98.0Q272.0 98.5 275.5 99.0L276.5 101.0Q276.5 102.0 273.5 105.5Q270.5 109.0 265.5 112.0Q259.0 115.5 251.75 126.0Q244.5 136.5 239.0 150.0Q233.5 163.5 231.5 175.5L228.5 191.0L276.0 208.0Q295.0 216.0 311.25 221.25Q327.5 226.5 328.5 226.5Q329.0 226.5 329.0 219.25Q329.0 212.0 329.0 202.0Q329.0 189.0 328.25 173.75Q327.5 158.5 325.0 147.0Q321.0 125.0 313.25 112.75Q305.5 100.5 288.75 93.5Q272.0 86.5 240.5 81.5ZM203.0 47.5Q197.0 43.5 192.25 40.25Q187.5 37.0 187.5 37.0Q185.5 37.5 183.25 45.5Q181.0 53.5 180.0 58.5Q181.0 59.0 184.0 59.0Q187.0 59.5 190.75 60.0Q194.5 60.5 198.5 61.0Q200.0 61.0 202.5 61.25Q205.0 61.5 207.0 62.0H212.0Q215.0 62.5 218.0 62.75Q221.0 63.0 223.0 63.0Q219.0 60.0 213.25 55.75Q207.5 51.5 203.0 47.5ZM356.0 114.5 357.0 112.5Q354.0 111.5 349.25 110.25Q344.5 109.0 339.0 107.0L326.0 103.0L329.5 109.5Q332.0 115.5 335.25 124.5Q338.5 133.5 340.0 140.5L341.0 147.0L346.0 135.0Q347.5 131.5 349.0 127.25Q350.5 123.0 352.0 120.0L353.0 118.5Q353.5 117.5 354.5 116.25Q355.5 115.0 356.0 114.5ZM177.0 19.5Q177.0 10.0 181.5 10.0Q186.0 10.0 203.5 27.5Q222.0 46.5 249.0 60.0Q276.0 73.5 308.5 81.0Q346.0 90.0 363.0 90.0Q372.0 90.0 375.5 87.0Q379.0 83.5 382.0 83.5Q387.0 83.5 392.5 89.0Q395.0 91.0 397.5 93.0Q400.0 95.0 400.0 96.5Q400.0 99.0 397.25 99.5Q394.5 100.0 389.5 100.0Q385.5 100.0 382.75 101.25Q380.0 102.5 380.0 103.5Q380.0 104.5 381.5 105.5Q387.0 109.5 387.0 113.5Q387.0 118.5 383.5 119.25Q380.0 120.0 376.5 120.0Q375.5 119.5 374.0 119.5H373.0L372.5 119.0Q369.0 119.0 365.25 127.25Q361.5 135.5 357.75 148.25Q354.0 161.0 350.75 174.75Q347.5 188.5 345.75 199.75Q344.0 211.0 344.0 216.0Q344.0 230.5 349.0 234.0V234.5Q356.5 237.0 356.5 242.0Q356.5 249.0 346.5 249.0Q346.0 249.0 345.5 253.5Q345.0 258.0 345.0 274.0Q345.0 285.0 345.25 302.5Q345.5 320.0 346.0 345.5Q347.0 366.0 347.5 382.75Q348.0 399.5 348.0 411.5Q348.0 431.5 346.25 440.25Q344.5 449.0 341.0 449.0Q338.0 449.0 335.75 439.25Q333.5 429.5 333.5 411.5Q333.0 397.0 332.75 383.5Q332.5 370.0 332.5 365.5Q332.0 361.0 322.75 356.25Q313.5 351.5 285.0 341.5Q265.5 335.0 250.5 330.75Q235.5 326.5 234.5 326.5Q234.5 326.5 234.0 329.0Q233.5 331.5 233.5 335.5Q233.5 351.0 227.0 351.0Q220.5 351.0 217.5 332.5L216.5 320.5L178.5 307.0Q160.5 300.5 145.0 295.5Q129.5 290.5 123.5 289.0L114.0 288.0V314.5Q114.0 344.0 107.5 344.0Q102.5 344.0 100.5 311.5Q100.0 300.0 99.0 291.75Q98.0 283.5 97.0 282.5H60.0Q36.5 282.5 27.0 288.5Q23.0 290.5 19.75 292.25Q16.5 294.0 14.5 294.0Q10.0 294.0 10.0 289.0Q10.0 286.5 14.0 279.0Q18.0 271.5 26.5 260.5Q41.0 243.5 48.5 232.25Q56.0 221.0 56.0 214.5V214.0Q56.0 213.5 55.75 213.5Q55.5 213.5 55.5 213.0Q55.0 212.0 55.0 210.5Q55.0 209.0 55.0 208.5Q55.0 204.5 60.0 198.25Q65.0 192.0 70.0 192.0Q74.5 192.0 75.25 196.0Q76.0 200.0 76.0 205.5Q75.5 207.0 75.5 209.5Q75.5 217.0 88.5 230.0L100.0 240.5V219.5Q100.0 210.5 99.75 203.75Q99.5 197.0 99.5 195.0V194.5H97.0Q89.5 194.5 89.5 188.5Q89.5 185.0 94.5 178.5Q97.0 174.5 98.0 167.75Q99.0 161.0 99.0 154.0Q99.0 139.5 95.75 124.0Q92.5 108.5 87.25 97.0Q82.0 85.5 76.0 83.5Q72.5 83.0 69.5 80.5Q66.5 78.0 66.5 75.5Q66.5 70.0 81.5 70.0Q84.0 70.0 87.5 70.25Q91.0 70.5 94.5 70.5L96.0 71.0Q102.0 71.5 108.0 71.75Q114.0 72.0 120.0 72.0Q133.0 72.0 140.0 71.0Q151.0 69.5 155.5 65.75Q160.0 62.0 166.5 47.0Q170.5 39.5 173.75 31.0Q177.0 22.5 177.0 19.5Z" fill="black" /></svg>