<svg xmlns="http://www.w3.org/2000/svg" width="738.5" height="460.5" viewBox="0 0 738.5 460.5"><path d="M45.5 321.0 56.0 314.0 46.5 308.5Q40.0 304.5 36.5 302.5Q33.0 300.5 31.0 300.0V312.5Q31.0 318.5 31.0 322.75Q31.0 327.0 30.5 329.5Q31.5 329.0 33.0 328.0Q34.5 327.0 36.5 326.0Q38.0 325.0 40.5 323.75Q43.0 322.5 45.5 321.0ZM472.0 340.5H452.0Q441.0 340.5 428.0 339.25Q415.0 338.0 409.0 336.5L399.5 334.0L403.0 354.0Q403.5 358.0 404.25 362.75Q405.0 367.5 405.5 372.5L406.5 377.5Q407.5 381.0 407.75 384.25Q408.0 387.5 408.5 390.0Q409.0 392.5 409.25 394.75Q409.5 397.0 410.0 399.0L411.5 406.0ZM45.5 134.5 56.0 126.0 31.0 110.5V126.0Q31.0 132.5 31.25 137.5Q31.5 142.5 32.0 144.5Q37.5 142.0 45.5 134.5ZM126.0 224.5 137.0 205.0 119.0 206.0Q114.5 206.5 110.0 206.75Q105.5 207.0 102.5 207.0Q98.0 207.0 96.5 206.5Q97.5 210.5 101.0 219.75Q104.5 229.0 108.75 237.25Q113.0 245.5 114.5 247.0Q115.5 244.5 119.0 238.5Q122.5 232.5 126.0 224.5ZM239.5 191.5V190.5Q240.5 190.0 240.75 189.5Q241.0 189.0 241.0 189.0Q241.0 188.5 236.5 188.5Q234.5 188.5 232.5 190.5Q235.0 195.0 236.5 195.0Q238.5 195.0 239.5 191.5ZM266.0 180.0Q258.0 195.5 252.75 214.25Q247.5 233.0 247.5 249.5Q247.5 257.0 247.75 269.0Q248.0 281.0 249.5 293.75Q251.0 306.5 254.25 316.25Q257.5 326.0 263.0 328.5Q272.0 334.0 283.5 334.0Q289.5 334.0 298.0 331.5H297.5Q292.5 331.5 291.0 318.25Q289.5 305.0 289.5 286.5Q289.0 258.5 283.75 236.0Q278.5 213.5 267.0 186.0Q266.5 183.5 266.25 182.0Q266.0 180.5 266.0 180.0ZM295.0 192.0 295.5 191.5V190.5Q296.0 190.0 296.0 189.5Q296.0 189.0 296.0 189.0Q296.0 188.5 292.5 188.5Q290.0 188.5 288.5 190.0Q289.5 191.5 290.75 193.25Q292.0 195.0 292.5 195.0Q294.0 195.0 295.0 192.0ZM299.5 331.0Q307.5 328.5 319.0 321.0L337.5 307.5V271.5Q337.5 258.5 335.75 244.0Q334.0 229.5 331.25 217.0Q328.5 204.5 325.25 196.5Q322.0 188.5 319.5 188.5Q313.0 188.5 308.75 210.0Q304.5 231.5 304.5 268.0Q304.5 290.5 303.75 308.25Q303.0 326.0 299.5 331.0ZM346.5 193.0 347.5 191.5V190.5L348.0 189.0Q348.0 188.5 343.5 188.5Q341.0 188.5 340.0 190.0Q342.0 193.5 344.5 195.0Q345.5 194.5 345.75 194.0Q346.0 193.5 346.5 193.0ZM308.0 104.0 306.0 99.5Q304.0 94.0 302.25 87.5Q300.5 81.0 299.5 75.5L298.5 71.5L285.0 90.5Q280.0 97.5 274.5 103.25Q269.0 109.0 266.0 111.5Q272.0 111.5 277.0 111.25Q282.0 111.0 287.5 110.5H291.5Q299.5 110.0 305.25 109.0Q311.0 108.0 311.0 108.0L310.5 107.5Q310.0 106.5 309.25 105.75Q308.5 105.0 308.0 104.0ZM442.5 160.5V160.0Q445.0 156.0 445.0 154.0H439.5Q431.0 154.0 431.0 155.0Q431.0 157.0 434.5 160.0Q435.0 162.0 435.5 163.0Q436.0 164.0 436.5 165.0L439.5 167.5Q440.0 166.5 440.75 164.75Q441.5 163.0 442.5 160.5ZM498.0 63.5Q495.5 53.5 494.25 50.0Q493.0 46.5 493.0 46.5Q493.0 46.5 486.25 56.0Q479.5 65.5 469.5 78.0L451.5 104.0H468.5Q480.0 104.0 494.25 105.25Q508.5 106.5 516.5 107.5L525.5 109.0L520.0 102.0Q514.0 94.5 507.25 83.0Q500.5 71.5 498.0 63.5ZM513.5 160.5V160.0Q515.0 157.5 515.5 156.0Q516.0 154.5 516.5 154.0Q511.5 154.0 507.25 154.0Q503.0 154.0 503.0 155.0Q503.0 156.5 505.5 160.0Q506.5 162.0 507.25 163.0Q508.0 164.0 508.5 165.0L511.5 167.5Q511.5 166.5 512.25 165.0Q513.0 163.5 513.5 160.5ZM285.5 353.0Q277.5 353.0 269.0 351.5Q260.5 350.0 255.5 347.5Q254.5 346.5 254.0 346.5Q255.5 351.0 258.75 359.5Q262.0 368.0 266.25 377.5Q270.5 387.0 274.25 394.75Q278.0 402.5 279.5 405.0Q279.5 388.0 289.5 372.5Q293.0 365.5 296.0 360.0Q299.0 354.5 299.5 352.5Q297.5 353.0 294.0 353.0Q290.5 353.0 285.5 353.0ZM210.0 186.0Q209.5 183.5 209.5 181.75Q209.5 180.0 209.5 179.0Q209.5 173.0 215.25 171.75Q221.0 170.5 238.0 170.5Q253.0 170.5 259.0 172.25Q265.0 174.0 266.0 178.0Q267.0 172.5 278.0 171.5Q289.0 170.5 319.0 170.5Q342.5 170.5 358.75 172.25Q375.0 174.0 375.0 178.5Q375.0 181.5 371.5 186.75Q368.0 192.0 364.5 196.5Q360.5 204.5 358.25 219.75Q356.0 235.0 355.25 251.0Q354.5 267.0 354.5 277.0Q354.5 293.0 357.5 293.0Q363.5 293.0 385.0 277.0Q399.0 267.0 410.25 259.75Q421.5 252.5 423.5 252.5Q431.0 252.5 431.0 259.0Q431.0 267.0 393.5 293.5Q379.5 303.5 368.75 312.25Q358.0 321.0 356.5 323.5V323.0Q355.5 326.5 350.5 329.75Q345.5 333.0 340.0 333.5Q333.5 334.5 324.0 347.75Q314.5 361.0 305.75 380.25Q297.0 399.5 292.0 418.5Q289.5 432.5 285.0 440.5Q280.5 448.5 278.0 448.5Q276.5 448.5 275.5 448.0Q270.5 439.5 264.0 425.25Q257.5 411.0 251.0 394.75Q244.5 378.5 239.0 363.5Q233.5 348.5 230.0 338.5L222.0 322.0H127.0L131.0 374.5Q132.0 383.5 132.5 393.0Q133.0 402.5 133.0 411.5Q133.0 435.5 125.0 435.5Q115.0 435.5 115.0 376.5Q115.0 345.5 113.5 334.75Q112.0 324.0 103.0 324.0Q93.5 324.0 81.5 327.25Q69.5 330.5 59.0 336.5Q48.5 342.5 42.5 351.0Q38.5 357.5 34.75 365.5Q31.0 373.5 31.0 377.5Q31.0 384.0 28.0 389.0Q25.0 394.0 21.0 394.0Q15.0 394.0 12.5 380.25Q10.0 366.5 10.0 331.5Q10.0 305.0 12.5 286.75Q15.0 268.5 18.0 268.5Q20.5 268.5 29.5 273.75Q38.5 279.0 48.5 287.5Q62.0 297.0 70.5 300.5Q79.0 304.0 92.5 304.0H111.0L108.5 288.5Q106.5 280.0 101.25 263.25Q96.0 246.5 88.5 232.5Q80.5 217.5 75.0 205.5Q69.5 193.5 69.5 193.0Q69.5 190.0 84.5 188.5Q99.5 187.0 119.5 187.0Q140.0 187.0 154.75 188.5Q169.5 190.0 169.5 193.0Q169.5 195.0 164.75 203.0Q160.0 211.0 151.5 221.0Q138.0 238.0 134.0 253.75Q130.0 269.5 130.0 290.0V300.5Q133.0 302.5 147.25 303.25Q161.5 304.0 184.0 304.0H233.5V275.5Q232.5 256.0 226.75 233.25Q221.0 210.5 210.0 186.0ZM247.0 112.0 274.5 71.5Q286.5 53.5 296.5 40.5Q306.5 27.5 310.0 27.0Q313.5 27.0 316.0 36.5Q318.5 46.0 318.5 59.0Q318.5 75.0 322.75 86.25Q327.0 97.5 339.5 108.5Q352.0 119.5 375.5 135.5Q389.5 145.0 398.75 150.75Q408.0 156.5 413.0 158.5Q412.5 158.0 412.25 157.75Q412.0 157.5 411.5 157.0Q410.5 153.0 410.0 151.5Q408.5 147.0 408.5 144.0Q408.5 137.5 415.0 136.5Q421.5 135.5 439.5 135.5Q452.5 135.5 462.0 136.0Q471.5 136.5 471.5 140.5Q471.5 141.5 468.75 148.75Q466.0 156.0 461.0 164.5Q457.0 171.5 454.75 180.5Q452.5 189.5 452.0 205.5Q451.5 221.5 451.5 249.5Q451.5 284.0 449.25 303.0Q447.0 322.0 441.5 322.0Q438.0 322.0 435.25 306.5Q432.5 291.0 432.5 265.0Q432.5 242.5 431.5 223.5Q430.5 204.5 428.0 199.5Q426.5 196.0 419.5 189.75Q412.5 183.5 403.25 176.75Q394.0 170.0 386.0 164.25Q378.0 158.5 374.5 156.0Q373.0 155.0 371.75 154.25Q370.5 153.5 368.0 152.5Q356.5 144.0 348.0 139.5Q339.5 135.0 327.25 133.25Q315.0 131.5 291.5 131.5Q267.0 131.5 219.0 133.0Q215.0 133.0 210.0 133.0Q205.0 133.0 200.0 134.0H178.5Q140.0 134.5 117.75 135.75Q95.5 137.0 83.75 139.0Q72.0 141.0 64.5 145.0Q51.0 151.5 41.0 165.75Q31.0 180.0 31.0 195.0Q31.0 201.5 28.0 205.25Q25.0 209.0 21.0 209.0Q15.0 209.0 12.5 194.5Q10.0 180.0 10.0 144.0Q10.0 109.0 12.25 94.25Q14.5 79.5 22.0 79.0Q30.0 80.5 39.0 91.0Q47.5 100.0 56.75 105.25Q66.0 110.5 80.0 113.0Q94.0 115.5 117.5 115.5Q127.5 115.5 139.5 115.5Q151.5 115.5 165.5 115.0ZM477.0 38.0Q485.5 25.5 493.0 17.75Q500.5 10.0 504.0 10.0H505.0Q511.5 12.0 511.5 18.0Q511.5 19.0 510.5 20.5Q509.5 22.0 508.5 24.5Q509.0 35.5 513.5 49.0Q518.0 62.5 525.0 74.5Q532.0 86.5 540.0 94.0Q546.5 99.5 562.0 110.0Q577.5 120.5 599.25 134.0Q621.0 147.5 646.25 162.25Q671.5 177.0 697.0 190.5Q709.5 197.5 719.0 204.75Q728.5 212.0 728.5 213.0Q728.5 216.0 719.0 221.25Q709.5 226.5 694.0 235.0Q676.0 244.0 658.25 253.0Q640.5 262.0 623.5 272.0L518.0 323.5L467.5 375.5Q454.0 389.5 442.0 402.75Q430.0 416.0 422.25 425.0Q414.5 434.0 413.0 436.5Q411.0 443.0 408.0 446.75Q405.0 450.5 402.5 450.5Q397.5 450.5 394.25 442.75Q391.0 435.0 391.0 421.0Q391.0 410.0 388.75 391.0Q386.5 372.0 383.5 355.0Q383.0 348.0 381.75 342.5Q380.5 337.0 380.0 332.0Q379.5 324.5 378.75 318.75Q378.0 313.0 378.0 311.0V306.5L382.5 305.5Q385.0 305.5 390.5 307.5Q396.0 309.5 403.0 312.0Q422.0 323.0 445.0 323.0Q451.5 323.0 461.0 321.5Q470.5 320.0 479.5 317.0L504.5 309.5V260.5Q504.0 236.5 502.0 219.0Q500.0 201.5 495.25 185.25Q490.5 169.0 481.0 149.5Q480.5 147.5 480.5 144.0Q480.5 138.0 486.75 136.75Q493.0 135.5 511.0 135.5Q524.5 135.5 534.0 136.0Q543.5 136.5 543.5 140.5Q543.5 141.5 540.75 148.25Q538.0 155.0 533.5 164.5Q529.0 171.5 526.75 180.25Q524.5 189.0 523.75 203.25Q523.0 217.5 523.0 242.0Q523.0 263.5 523.0 279.5Q523.0 295.5 523.5 298.0Q526.0 297.0 537.25 291.5Q548.5 286.0 564.5 278.0Q575.5 272.5 588.0 266.5Q600.5 260.5 613.0 254.0L694.0 212.0L629.0 174.5Q605.0 160.0 586.75 150.5Q568.5 141.0 551.75 135.0Q535.0 129.0 515.0 126.5Q495.0 124.0 467.5 124.0H453.0Q451.0 124.0 448.25 124.0Q445.5 124.0 442.5 124.5H434.5Q426.5 124.5 421.75 123.25Q417.0 122.0 417.0 118.5Q417.0 115.5 428.0 103.5Q433.5 97.5 437.5 91.0Q446.0 81.0 457.5 65.0Q469.0 49.0 477.0 38.0Z" fill="black" /></svg>