<svg xmlns="http://www.w3.org/2000/svg" width="576.5" height="460.0" viewBox="0 0 576.5 460.0"><path d="M75.0 317.5 75.5 317.0Q60.5 311.0 47.5 300.5Q45.5 297.0 43.0 297.0Q41.0 297.0 36.5 321.0Q35.5 328.0 34.75 335.25Q34.0 342.5 33.5 346.5Q38.5 346.0 47.5 342.5Q54.5 340.5 69.0 339.25Q83.5 338.0 96.0 338.0Q104.5 338.0 109.0 337.75Q113.5 337.5 115.5 337.5Q114.5 336.5 112.25 336.25Q110.0 336.0 108.5 336.0Q107.5 336.0 106.75 336.25Q106.0 336.5 105.0 337.0H99.5Q94.5 337.0 92.25 335.5Q90.0 334.0 90.0 329.0Q90.0 326.5 85.75 323.5Q81.5 320.5 75.0 317.5ZM158.5 271.5 158.0 271.0Q156.0 267.0 149.75 264.0Q143.5 261.0 139.5 261.0H138.5Q138.0 261.5 137.25 264.25Q136.5 267.0 136.5 270.0Q136.5 273.5 140.5 273.5Q142.0 273.5 144.5 273.5Q147.0 273.5 149.0 273.0Q152.5 272.5 155.25 272.25Q158.0 272.0 158.5 271.5ZM131.5 179.0Q123.5 200.5 119.0 225.25Q114.5 250.0 112.5 273.75Q110.5 297.5 110.0 316.0Q113.5 319.5 132.25 325.25Q151.0 331.0 177.75 337.0Q204.5 343.0 232.0 348.0Q258.5 352.0 280.25 355.5Q302.0 359.0 307.0 360.5Q308.0 361.0 309.5 361.0Q311.0 361.0 311.5 355.75Q312.0 350.5 312.0 335.0Q309.0 336.5 308.0 336.5Q300.0 336.5 287.5 325.5Q278.0 318.5 268.25 314.0Q258.5 309.5 249.0 309.5Q245.5 309.5 242.0 310.5Q238.5 311.5 234.5 313.0Q227.0 314.5 222.5 314.5Q213.5 314.5 213.5 308.5Q213.5 304.0 223.0 298.0L225.0 296.5Q226.5 295.5 227.25 294.75Q228.0 294.0 228.5 293.5Q226.5 288.0 183.5 288.0Q164.5 288.0 153.25 290.0Q142.0 292.0 136.5 296.0Q126.0 302.5 121.5 302.5Q119.0 302.5 118.0 302.0Q116.5 299.5 116.5 296.0Q116.5 292.0 117.5 285.5Q118.5 279.0 119.5 271.0Q122.0 262.5 123.25 252.5Q124.5 242.5 124.5 237.5Q124.5 233.0 125.25 222.75Q126.0 212.5 127.5 200.25Q129.0 188.0 131.5 179.0ZM312.0 329.0Q312.0 325.5 312.0 322.0Q312.0 318.5 312.0 314.5Q312.0 289.5 311.5 278.5Q311.0 267.5 308.25 262.5Q305.5 257.5 299.0 252.0Q287.0 240.0 277.75 234.5Q268.5 229.0 257.5 229.0Q255.5 229.0 253.25 229.25Q251.0 229.5 248.5 230.0Q243.0 231.0 238.5 231.5Q234.0 232.0 231.0 232.0Q226.0 232.0 223.0 230.25Q220.0 228.5 220.0 223.5Q219.5 222.5 210.25 221.75Q201.0 221.0 189.0 221.0Q177.0 221.0 165.25 221.75Q153.5 222.5 144.5 225.0Q141.5 225.5 140.25 226.0Q139.0 226.5 139.0 226.5Q139.0 227.5 142.0 232.0Q142.5 232.5 143.0 233.75Q143.5 235.0 144.0 236.0Q153.5 248.0 170.0 257.0Q186.5 266.0 205.0 271.0Q223.5 276.0 238.5 276.0Q245.5 276.0 249.75 272.75Q254.0 269.5 262.0 260.5Q269.5 253.5 275.5 249.5Q281.5 245.5 285.0 245.5Q291.0 245.5 291.0 251.5Q291.0 253.0 289.75 255.5Q288.5 258.0 287.5 261.5Q282.0 269.5 282.0 281.0Q282.0 300.5 299.5 314.0Q308.0 322.5 312.0 329.0ZM268.0 286.0V278.0L266.5 281.0V281.5Q266.5 281.5 266.0 281.75Q265.5 282.0 265.5 282.5Q265.5 283.5 266.5 285.25Q267.5 287.0 268.0 288.5Q268.0 288.0 268.0 287.25Q268.0 286.5 268.0 286.0ZM138.0 128.5 128.5 127.0H127.5Q124.0 125.0 119.5 124.5Q115.0 124.0 111.0 123.5H110.0Q109.5 123.5 107.0 123.0Q104.5 122.5 104.0 122.0H99.0Q103.0 130.5 105.5 138.75Q108.0 147.0 110.0 156.0L112.0 171.5ZM156.0 204.5Q156.0 202.0 151.25 200.75Q146.5 199.5 144.0 199.5Q143.0 200.5 142.0 201.5Q141.0 202.5 141.0 203.5Q141.0 206.5 149.0 206.5Q151.5 206.5 153.75 205.75Q156.0 205.0 156.0 204.5ZM273.0 102.0Q270.0 102.0 265.75 101.75Q261.5 101.5 256.0 101.0H251.0Q249.0 100.5 247.75 100.5Q246.5 100.5 245.5 100.5Q244.0 99.5 241.5 99.5Q239.0 99.5 235.5 99.5Q225.5 99.5 212.25 101.0Q199.0 102.5 187.0 104.5Q175.0 106.5 168.5 108.5Q168.0 109.0 166.5 110.0Q165.0 111.0 165.0 111.0L166.5 111.5Q167.5 112.5 168.75 114.25Q170.0 116.0 170.0 117.5Q170.0 122.5 160.5 130.5Q153.0 137.0 147.0 146.25Q141.0 155.5 136.0 167.0Q137.5 165.5 138.5 165.5Q139.0 165.5 143.5 169.0Q148.0 172.5 150.5 177.0Q156.5 186.5 170.5 193.75Q184.5 201.0 200.75 205.0Q217.0 209.0 228.0 209.0Q236.0 209.0 241.75 205.0Q247.5 201.0 260.0 187.5Q282.5 164.5 291.0 164.5Q296.0 164.5 296.0 169.5Q296.0 173.0 293.0 180.5Q290.0 184.5 288.75 189.5Q287.5 194.5 287.5 200.0Q287.5 208.0 292.0 216.75Q296.5 225.5 303.5 232.0L312.0 239.5V220.5Q312.0 207.5 310.0 191.5Q308.0 175.5 304.75 160.0Q301.5 144.5 298.0 132.0Q294.5 119.5 291.0 113.5Q282.0 102.0 273.0 102.0ZM272.0 206.5Q272.0 204.0 272.0 202.5Q272.0 201.0 272.0 200.0Q271.5 200.5 271.0 200.75Q270.5 201.0 269.5 202.0Q269.0 203.0 268.25 204.0Q267.5 205.0 266.5 206.5Q264.0 208.5 262.5 210.0Q261.0 211.5 261.0 211.5Q261.0 211.5 262.5 211.75Q264.0 212.0 266.5 213.0H268.5L269.5 213.5Q272.0 213.0 272.0 206.5ZM346.5 235.5V235.0Q345.0 229.0 340.5 229.0Q338.0 229.0 338.0 231.5Q338.0 233.5 339.75 235.25Q341.5 237.0 343.5 237.0Q346.5 237.0 346.5 235.5ZM353.0 316.5Q353.0 314.0 343.0 305.5Q340.0 302.5 338.0 301.5Q338.0 304.5 337.5 306.0L337.0 307.0V309.0Q336.5 310.0 336.0 312.5Q335.5 315.0 335.5 316.0L334.5 316.5Q334.5 317.5 342.0 317.5Q346.5 317.5 349.75 317.25Q353.0 317.0 353.0 316.5ZM409.0 285.0Q409.0 263.0 403.0 255.75Q397.0 248.5 374.5 248.5Q370.5 248.5 360.25 249.75Q350.0 251.0 341.25 254.25Q332.5 257.5 332.5 264.0Q332.5 270.5 339.0 279.0Q345.5 287.5 355.75 295.25Q366.0 303.0 377.25 308.0Q388.5 313.0 398.0 313.0Q403.0 313.0 405.25 311.75Q407.5 310.5 408.25 304.75Q409.0 299.0 409.0 285.0ZM424.5 216.0Q420.5 212.5 416.5 212.5Q416.5 212.5 416.25 213.0Q416.0 213.5 416.0 215.0Q416.0 216.5 416.25 218.5Q416.5 220.5 417.0 223.0Q420.0 233.5 421.0 235.0Q421.5 234.0 422.25 232.25Q423.0 230.5 424.0 228.0Q425.5 225.5 426.0 223.25Q426.5 221.0 426.5 220.0Q426.5 218.0 424.5 216.0ZM247.5 83.5 223.0 71.5Q216.0 67.0 209.25 63.25Q202.5 59.5 197.0 56.0Q191.0 52.5 186.5 50.0Q182.0 47.5 179.5 46.0Q179.5 45.0 179.0 44.75Q178.5 44.5 178.5 44.5Q176.5 45.0 174.0 54.0Q171.5 63.0 169.75 73.0Q168.0 83.0 168.0 86.5Q168.0 89.0 170.5 89.0Q171.5 89.0 173.25 89.0Q175.0 89.0 177.0 88.5Q183.0 87.5 197.25 86.0Q211.5 84.5 225.5 84.0ZM350.0 112.5V111.5Q351.0 111.5 351.0 109.5Q351.0 108.5 346.0 108.0Q341.0 107.5 329.5 107.0H322.0Q321.0 106.5 318.0 106.5Q309.5 106.5 309.5 107.5Q309.5 107.5 309.75 107.75Q310.0 108.0 310.0 109.0L311.0 111.5Q313.0 116.0 317.25 137.25Q321.5 158.5 328.0 193.0Q328.5 187.0 330.5 177.75Q332.5 168.5 335.5 160.5Q340.5 144.5 345.0 130.25Q349.5 116.0 350.0 112.5ZM519.0 123.5Q524.5 105.5 530.0 90.75Q535.5 76.0 537.5 73.0Q536.0 72.0 531.0 71.75Q526.0 71.5 515.0 71.5Q502.0 71.5 496.5 71.5Q491.0 71.5 491.0 72.5L493.0 75.0Q494.0 79.0 496.5 92.0Q499.0 105.0 500.5 117.5Q504.0 135.0 505.5 145.0Q507.0 155.0 507.5 155.0Q509.5 155.0 519.0 123.5ZM159.0 38.5 159.5 36.0Q161.5 25.5 163.0 17.75Q164.5 10.0 167.5 10.0Q168.5 10.0 173.5 14.0Q178.5 18.0 182.5 23.5Q188.0 30.5 203.75 40.0Q219.5 49.5 240.0 59.25Q260.5 69.0 280.5 76.25Q300.5 83.5 314.0 85.5Q322.5 87.5 332.75 88.25Q343.0 89.0 351.0 89.0Q354.5 89.0 357.25 89.0Q360.0 89.0 361.5 88.5Q364.0 88.0 366.25 88.0Q368.5 88.0 370.0 88.0Q382.5 88.0 384.0 92.5H384.5Q385.0 94.5 397.5 97.5Q410.0 100.5 426.5 104.0Q444.5 107.0 457.0 111.75Q469.5 116.5 469.5 119.0V119.5Q469.5 123.0 468.75 125.0Q468.0 127.0 462.5 127.0Q459.0 127.0 452.5 125.5Q446.0 124.0 433.5 122.0Q421.0 118.5 407.25 116.0Q393.5 113.5 380.5 113.5Q373.5 113.5 373.0 115.5Q370.5 118.0 365.5 128.75Q360.5 139.5 355.5 153.25Q350.5 167.0 347.0 179.25Q343.5 191.5 343.5 197.0Q343.5 207.5 353.25 215.75Q363.0 224.0 376.25 228.75Q389.5 233.5 399.0 233.5Q403.5 233.5 403.5 230.5Q403.5 226.5 401.25 221.25Q399.0 216.0 395.5 211.5Q389.0 203.5 389.0 197.0L389.5 193.5H392.5Q395.5 193.5 404.75 194.75Q414.0 196.0 424.75 198.0Q435.5 200.0 444.0 202.0Q452.5 204.0 454.0 205.5L454.5 208.0Q454.5 209.0 451.5 214.5Q448.5 220.0 444.5 225.5Q442.0 230.5 439.5 236.25Q437.0 242.0 436.5 244.5Q437.0 245.0 437.0 248.0Q437.0 254.5 432.0 261.0Q424.5 267.0 424.5 292.5Q424.5 310.0 426.5 314.0Q428.5 318.0 437.0 319.5Q454.5 322.5 454.5 330.0Q454.5 336.5 445.0 336.5Q439.0 336.5 433.0 335.0Q430.5 334.5 427.75 334.25Q425.0 334.0 424.0 334.0Q421.5 334.0 421.0 336.5Q420.5 339.0 420.5 345.5Q420.5 353.0 417.75 358.75Q415.0 364.5 412.0 364.5Q408.0 364.5 405.75 358.0Q403.5 351.5 403.5 343.0V326.5Q400.0 327.0 396.5 327.5Q393.0 328.0 389.5 328.5Q386.0 328.5 382.0 328.75Q378.0 329.0 374.0 329.5Q360.5 330.0 349.25 332.75Q338.0 335.5 335.5 338.0Q331.5 341.0 330.0 346.0Q328.5 351.0 328.5 356.5Q328.5 364.0 331.5 365.5Q335.0 367.0 336.5 370.75Q338.0 374.5 338.0 377.0Q338.0 382.5 331.0 382.5H330.5Q329.5 384.0 328.25 392.0Q327.0 400.0 325.5 411.5Q324.5 427.0 321.25 438.5Q318.0 450.0 314.0 450.0Q308.5 450.0 308.5 434.5Q308.5 425.0 310.0 411.5Q310.0 409.0 310.5 406.0Q311.0 403.0 311.5 401.5V394.5Q312.0 393.0 312.0 391.5Q312.0 390.0 312.0 389.5Q312.0 383.5 308.5 380.5Q305.0 377.5 295.25 375.0Q285.5 372.5 266.5 369.0Q231.0 361.0 193.0 357.75Q155.0 354.5 118.0 354.5Q82.0 354.5 57.0 358.75Q32.0 363.0 25.0 370.5Q19.5 377.5 14.5 377.5Q10.0 377.5 10.0 369.0Q10.0 365.5 11.0 359.0Q12.0 352.5 14.5 344.5Q18.5 333.0 21.25 318.75Q24.0 304.5 25.0 294.0Q25.0 279.5 27.0 273.0Q29.0 266.5 35.0 266.5Q46.0 266.5 46.0 275.5Q46.0 277.5 51.75 282.25Q57.5 287.0 65.5 292.25Q73.5 297.5 80.75 301.25Q88.0 305.0 91.5 305.5Q94.0 302.5 95.5 288.75Q97.0 275.0 98.0 255.5Q99.0 236.0 99.0 217.0Q99.0 193.5 95.5 168.75Q92.0 144.0 80.5 124.0Q71.0 111.0 71.0 105.5V105.0Q72.5 103.0 77.5 103.0Q81.5 103.0 89.5 103.75Q97.5 104.5 106.5 105.5L108.5 106.5Q117.0 107.5 123.25 108.25Q129.5 109.0 133.5 109.0Q137.0 109.0 138.75 108.25Q140.5 107.5 142.0 106.5Q146.5 98.5 151.25 79.0Q156.0 59.5 159.0 38.5ZM464.0 51.5Q464.0 48.0 468.5 48.0Q470.5 48.0 473.0 48.5Q475.5 49.0 479.0 50.5Q482.0 51.5 489.75 52.75Q497.5 54.0 508.5 54.0Q512.5 54.0 516.75 53.75Q521.0 53.5 526.0 53.0Q528.5 53.0 530.25 53.0Q532.0 53.0 534.5 52.5H542.0Q547.5 52.0 551.75 52.0Q556.0 52.0 558.5 52.0Q566.5 52.0 566.5 56.0Q566.5 56.0 562.75 63.5Q559.0 71.0 553.5 81.0Q517.0 144.0 510.5 285.0Q509.0 309.5 507.75 333.25Q506.5 357.0 506.0 375.0Q505.5 393.0 505.5 400.5Q505.5 413.0 503.5 421.5Q501.5 430.0 497.0 430.0Q490.5 430.0 490.5 378.5Q490.5 367.0 490.75 352.0Q491.0 337.0 491.0 320.0L492.5 306.5V297.0Q493.0 280.0 493.25 265.5Q493.5 251.0 493.5 237.5Q493.5 173.0 488.5 135.25Q483.5 97.5 473.5 76.5Q469.5 67.0 466.75 59.5Q464.0 52.0 464.0 51.5Z" fill="black" /></svg>