<svg xmlns="http://www.w3.org/2000/svg" width="612.5" height="461.0" viewBox="0 0 612.5 461.0"><path d="M48.5 241.0Q45.0 236.5 41.25 232.25Q37.5 228.0 36.5 228.0Q36.0 228.0 35.5 236.25Q35.0 244.5 34.5 256.25Q34.0 268.0 33.75 280.0Q33.5 292.0 33.5 299.5V303.0Q34.5 302.0 36.25 300.75Q38.0 299.5 39.5 298.5Q44.5 294.0 52.75 288.0Q61.0 282.0 67.5 278.5Q83.0 269.0 83.0 266.0Q83.0 264.0 74.5 260.5Q69.5 259.5 61.75 253.75Q54.0 248.0 48.5 241.0ZM142.5 279.5Q142.5 270.0 132.5 270.0Q127.5 270.0 119.5 273.5Q111.5 277.0 102.5 282.0L96.5 286.0Q92.5 289.0 89.0 291.25Q85.5 293.5 84.5 294.5Q86.5 294.5 91.0 295.75Q95.5 297.0 102.5 299.0Q111.0 301.5 124.5 304.5Q127.0 305.5 130.25 306.25Q133.5 307.0 137.0 308.0L142.5 310.0Q149.5 311.5 152.5 311.5Q152.0 310.5 151.5 308.75Q151.0 307.0 150.0 306.0Q147.5 300.0 145.0 292.25Q142.5 284.5 142.5 279.5ZM155.0 246.5V241.0Q149.5 243.0 146.5 245.75Q143.5 248.5 142.5 250.5Q143.0 251.0 144.25 251.5Q145.5 252.0 149.0 252.0Q151.5 252.0 153.25 250.0Q155.0 248.0 155.0 246.5ZM207.0 311.0 205.0 272.5 187.5 271.0H181.0Q174.5 271.0 169.25 272.75Q164.0 274.5 164.0 282.0Q164.0 288.5 166.25 297.0Q168.5 305.5 172.0 311.75Q175.5 318.0 178.5 318.0Q181.5 318.0 186.25 322.5Q191.0 327.0 193.0 332.5Q195.5 337.0 199.25 340.5Q203.0 344.0 205.0 345.0H205.5Q207.5 345.0 207.5 330.0Q207.5 326.5 207.5 321.75Q207.5 317.0 207.0 311.0ZM273.5 242.0Q267.0 236.5 262.75 233.0Q258.5 229.5 258.5 229.5Q258.0 232.5 257.0 241.5Q256.0 250.5 255.25 261.25Q254.5 272.0 254.0 281.75Q253.5 291.5 253.5 296.5Q259.5 294.5 269.75 290.0Q280.0 285.5 290.75 280.5Q301.5 275.5 308.75 271.5Q316.0 267.5 316.0 266.5Q316.0 266.0 312.5 264.75Q309.0 263.5 305.0 262.0Q298.5 260.5 289.5 254.5Q280.5 248.5 273.5 242.0ZM514.0 181.5V180.0Q519.0 173.5 522.0 168.0Q516.0 171.5 506.0 178.75Q496.0 186.0 485.0 194.5Q474.0 203.0 465.5 210.25Q457.0 217.5 454.5 221.0Q457.5 223.0 468.75 224.75Q480.0 226.5 489.0 226.5Q491.5 226.5 493.5 226.25Q495.5 226.0 497.0 225.5Q498.0 224.0 499.25 220.25Q500.5 216.5 500.5 212.5Q500.5 207.0 504.25 198.0Q508.0 189.0 514.0 181.5ZM244.5 40.0Q243.0 39.0 235.75 38.25Q228.5 37.5 219.0 36.75Q209.5 36.0 201.0 35.5Q192.5 35.0 189.0 35.0Q182.5 35.0 179.0 35.5Q175.5 36.0 175.5 36.0Q177.0 38.0 182.75 52.25Q188.5 66.5 195.0 83.0L208.5 115.5L215.5 94.0Q219.5 81.5 226.0 68.5Q232.5 55.5 236.5 50.0L238.5 48.0Q241.0 45.0 242.5 43.0Q244.0 41.0 244.5 40.0ZM148.5 12.5Q150.5 10.0 155.0 10.0Q161.5 10.0 164.0 12.5Q169.5 13.5 186.75 15.5Q204.0 17.5 224.5 18.5L283.5 20.5L259.0 51.0Q247.0 67.0 240.0 83.0Q233.0 99.0 229.75 122.25Q226.5 145.5 225.5 184.0Q225.0 195.0 225.0 204.25Q225.0 213.5 225.0 220.0Q225.0 238.5 226.5 244.0Q228.0 249.5 231.0 250.5H232.5Q235.5 250.5 237.5 244.75Q239.5 239.0 241.0 224.5Q243.5 211.5 246.5 201.75Q249.5 192.0 253.0 192.0Q255.5 193.0 261.0 199.0Q266.5 205.0 271.5 212.5Q281.0 227.0 292.75 235.5Q304.5 244.0 325.5 247.25Q346.5 250.5 382.5 250.5H412.0Q444.0 249.5 461.5 249.25Q479.0 249.0 484.0 248.5Q483.5 248.0 483.0 248.0Q482.5 248.0 482.0 247.5Q475.5 244.0 461.75 240.75Q448.0 237.5 436.0 235.5L395.5 229.5L422.0 215.0Q430.0 211.0 444.25 201.5Q458.5 192.0 475.5 179.75Q492.5 167.5 509.5 154.25Q526.5 141.0 540.5 129.75Q554.5 118.5 562.0 111.0Q581.0 93.5 590.0 93.5Q595.0 93.5 595.0 99.5Q595.0 102.0 592.75 107.25Q590.5 112.5 585.0 119.5Q559.0 151.0 545.0 169.25Q531.0 187.5 525.75 198.25Q520.5 209.0 520.5 218.5Q520.5 230.0 525.5 242.0Q530.5 254.0 540.5 260.5Q568.0 282.5 585.25 300.25Q602.5 318.0 602.5 325.5Q602.5 329.0 598.5 329.0Q595.0 329.0 584.25 322.0Q573.5 315.0 559.0 302.5L522.5 269.5L433.0 271.0Q398.0 272.5 373.0 275.25Q348.0 278.0 329.25 283.0Q310.5 288.0 294.0 296.75Q277.5 305.5 260.0 319.0Q244.5 331.0 237.5 331.0Q229.5 331.0 229.5 319.5Q229.5 315.5 230.5 310.25Q231.5 305.0 232.5 298.5L233.0 294.5Q235.5 286.0 237.0 280.5Q238.5 275.0 238.5 272.0Q238.5 270.0 233.0 270.0Q229.5 270.0 228.25 278.5Q227.0 287.0 227.0 312.5V356.5L269.0 385.0Q307.5 411.0 323.25 423.0Q339.0 435.0 339.0 442.0Q339.0 443.5 338.5 444.5Q338.0 445.5 337.0 447.5Q334.5 451.0 330.0 451.0Q324.5 451.0 317.5 443.0Q314.5 439.5 305.5 432.5Q296.5 425.5 284.75 417.0Q273.0 408.5 261.0 400.5Q249.0 392.5 239.75 387.5Q230.5 382.5 226.5 382.5L225.5 383.0H225.0Q224.0 386.0 221.5 387.75Q219.0 389.5 217.0 390.5Q216.5 389.5 215.25 388.75Q214.0 388.0 212.5 387.0H213.5Q213.0 386.0 212.5 385.0Q212.0 384.0 211.5 383.5L209.5 380.0Q208.5 376.0 205.0 373.0Q202.0 366.5 190.25 358.5Q178.5 350.5 162.0 342.25Q145.5 334.0 127.5 326.75Q109.5 319.5 93.0 314.5L55.0 306.0L37.5 326.0Q30.5 332.5 23.75 337.5Q17.0 342.5 14.5 343.0L13.5 342.5Q11.0 342.5 10.5 339.75Q10.0 337.0 10.0 335.0Q10.0 330.0 10.75 322.0Q11.5 314.0 12.5 304.5Q15.0 293.0 17.75 271.0Q20.5 249.0 22.0 229.5Q25.0 181.5 34.5 181.5Q37.0 181.5 40.0 185.25Q43.0 189.0 44.5 197.5Q47.0 205.0 53.5 214.5Q60.0 224.0 68.5 232.5Q77.0 241.0 85.25 246.5Q93.5 252.0 99.5 252.0Q105.5 252.0 116.75 245.25Q128.0 238.5 140.75 228.5Q153.5 218.5 164.0 207.75Q174.5 197.0 179.0 189.0Q186.0 177.5 189.5 177.0Q193.0 177.5 195.0 184.0Q195.0 193.0 192.5 201.25Q190.0 209.5 186.0 218.5Q180.5 229.0 177.25 235.75Q174.0 242.5 174.0 246.5Q174.0 252.0 188.0 252.0Q195.0 252.0 198.0 250.5Q201.0 249.0 202.25 243.0Q203.5 237.0 203.5 223.5Q204.0 217.0 204.0 210.0Q204.0 203.0 204.0 196.0Q204.0 189.0 204.0 183.75Q204.0 178.5 203.5 175.0Q203.0 165.5 198.75 149.75Q194.5 134.0 188.5 115.75Q182.5 97.5 175.0 80.25Q167.5 63.0 160.0 50.5Q154.5 39.5 150.75 30.25Q147.0 21.0 147.0 17.0Q147.0 13.0 148.5 12.5Z" fill="black" /></svg>