<svg xmlns="http://www.w3.org/2000/svg" width="484.0" height="382.0" viewBox="0 0 484.0 382.0"><path d="M81.5 169.0Q64.5 163.0 50.0 157.75Q35.5 152.5 32.0 151.0Q32.0 150.5 31.0 150.5Q30.0 150.5 30.0 160.5Q30.0 161.5 30.0 163.0Q30.0 164.5 30.5 166.0V173.5Q31.0 197.0 34.0 197.5L37.0 196.5Q38.0 196.5 39.0 196.25Q40.0 196.0 41.5 195.5Q75.5 185.5 109.0 179.5Q105.0 178.0 97.75 175.25Q90.5 172.5 81.5 169.0ZM313.5 228.0V227.0Q314.5 226.0 314.5 225.0Q314.5 224.0 310.75 223.75Q307.0 223.5 297.0 223.5H279.5L286.0 235.5Q289.5 242.5 292.75 250.75Q296.0 259.0 297.5 263.5Q298.5 265.0 298.75 266.25Q299.0 267.5 299.0 267.5Q300.0 265.5 301.0 262.5Q302.0 259.5 303.5 255.0Q305.0 250.0 307.0 244.75Q309.0 239.5 310.5 236.0Q311.5 233.5 312.25 231.25Q313.0 229.0 313.5 228.0ZM161.0 65.5V64.5Q162.0 63.5 162.0 63.0Q162.0 61.0 146.5 61.0H130.5L137.0 81.5Q140.5 91.0 142.75 101.25Q145.0 111.5 145.5 117.0Q145.5 122.0 145.75 124.75Q146.0 127.5 146.0 127.5Q148.5 127.5 153.0 103.0Q155.5 90.5 157.75 79.5Q160.0 68.5 161.0 65.5ZM186.0 68.0Q181.0 62.0 178.5 62.0Q177.0 62.0 175.5 65.75Q174.0 69.5 172.0 75.5Q169.0 87.5 166.25 105.75Q163.5 124.0 161.75 142.25Q160.0 160.5 159.5 173.0Q160.5 173.0 162.0 173.0Q163.5 173.0 165.5 173.5Q169.5 174.5 175.0 175.0Q177.5 175.5 180.5 175.75Q183.5 176.0 186.5 176.5L212.0 179.0L209.0 150.5Q206.5 124.5 199.75 100.75Q193.0 77.0 186.0 68.0ZM231.0 73.5 231.5 71.5Q231.5 70.5 231.75 70.25Q232.0 70.0 232.0 69.5Q232.0 67.0 217.5 64.5H211.5Q210.5 64.0 208.5 64.0Q205.0 64.0 204.0 65.0Q204.0 66.5 205.0 69.5Q206.5 73.0 209.5 84.75Q212.5 96.5 215.5 109.0L216.5 111.5Q221.5 129.5 221.5 129.5Q221.5 129.5 223.0 121.75Q224.5 114.0 226.5 100.5Q227.0 97.0 227.75 92.75Q228.5 88.5 229.0 85.5L229.5 83.0Q230.0 80.0 230.5 77.5Q231.0 75.0 231.0 73.5ZM441.0 33.0 441.5 31.5Q441.5 30.5 441.75 29.75Q442.0 29.0 442.0 28.5Q442.0 26.5 437.0 26.25Q432.0 26.0 417.5 26.0H392.5L399.0 39.0Q402.5 45.5 406.25 58.5Q410.0 71.5 413.5 86.5Q417.0 101.5 419.25 114.75Q421.5 128.0 421.5 135.5Q421.5 140.0 422.5 142.0Q423.5 140.5 424.25 134.5Q425.0 128.5 425.0 121.0Q425.0 112.0 427.25 96.75Q429.5 81.5 433.25 64.25Q437.0 47.0 441.0 33.0ZM241.5 215.5Q241.5 213.0 255.75 211.25Q270.0 209.5 290.0 209.5Q310.5 209.5 324.25 211.0Q338.0 212.5 338.0 215.0Q338.0 215.5 335.0 222.75Q332.0 230.0 327.0 237.5Q321.0 249.0 315.5 266.75Q310.0 284.5 306.5 304.25Q303.0 324.0 303.0 342.0Q303.0 355.0 301.5 363.5Q300.0 372.0 296.0 372.0Q293.0 372.0 291.5 361.75Q290.0 351.5 290.0 335.0Q290.0 242.0 256.5 228.0Q250.5 225.0 246.0 221.25Q241.5 217.5 241.5 215.5ZM360.0 14.5Q360.0 12.0 374.5 11.0Q389.0 10.0 410.0 10.0Q441.0 10.5 450.25 11.5Q459.5 12.5 459.5 18.0Q459.5 20.5 459.0 22.0Q449.5 54.5 444.25 82.0Q439.0 109.5 436.5 136.5L433.5 179.0H451.5Q461.0 179.0 467.5 181.0Q474.0 183.0 474.0 186.0Q474.0 188.5 467.75 190.5Q461.5 192.5 452.5 192.5H435.5L432.0 224.0Q431.5 231.5 431.0 242.5Q430.5 253.5 430.5 265.5Q430.5 275.5 431.0 286.25Q431.5 297.0 432.0 307.0L432.5 311.5Q432.5 318.5 432.75 325.0Q433.0 331.5 433.0 336.5Q433.0 359.5 428.5 359.5Q426.5 359.5 424.75 349.75Q423.0 340.0 421.75 324.0Q420.5 308.0 419.5 289.5L419.0 279.5Q417.5 255.5 416.25 234.25Q415.0 213.0 414.0 207.0L412.0 192.5H233.0L231.0 202.0Q230.5 204.5 230.0 213.0Q229.5 221.5 229.5 233.0Q229.5 241.0 229.5 250.5Q229.5 260.0 230.0 269.5Q230.5 278.0 230.75 286.75Q231.0 295.5 231.0 302.5Q231.0 314.5 230.0 321.5Q229.0 328.5 226.5 328.5Q225.0 328.5 223.0 319.25Q221.0 310.0 219.25 295.25Q217.5 280.5 216.25 263.25Q215.0 246.0 215.0 230.5Q215.0 219.0 214.0 209.0Q213.0 199.0 211.5 197.5Q211.0 195.0 203.0 193.5Q195.0 192.0 185.0 191.5L161.0 190.5L160.0 257.5Q159.5 289.5 157.25 307.75Q155.0 326.0 152.0 326.0H151.0Q148.5 324.5 146.75 313.5Q145.0 302.5 145.0 289.0Q145.0 276.0 144.25 257.0Q143.5 238.0 142.5 224.0L139.5 192.5H126.5Q118.5 192.5 105.75 194.75Q93.0 197.0 79.25 200.25Q65.5 203.5 54.0 207.5Q42.5 211.5 36.5 215.0L18.0 225.0V188.5Q18.0 175.0 16.75 162.25Q15.5 149.5 13.0 146.0Q10.0 137.5 10.0 133.0Q10.0 127.5 14.0 127.5Q17.0 127.5 27.0 131.5Q37.0 135.5 49.5 141.0Q63.0 147.5 81.0 154.25Q99.0 161.0 115.25 165.5Q131.5 170.0 138.5 170.0Q138.5 170.0 138.75 168.5Q139.0 167.0 139.0 164.5Q139.0 157.5 136.75 143.25Q134.5 129.0 131.0 113.0Q127.5 97.0 122.75 83.5Q118.0 70.0 113.0 64.0Q108.0 60.0 104.5 55.5Q101.0 51.0 101.0 50.0Q101.0 46.0 123.5 46.0Q129.5 46.0 137.5 46.25Q145.5 46.5 153.5 47.0H155.5Q173.5 48.0 191.75 48.75Q210.0 49.5 228.0 49.5Q240.5 50.0 245.0 51.25Q249.5 52.5 249.5 57.5Q249.5 59.5 248.5 61.5Q242.0 83.5 237.75 109.75Q233.5 136.0 233.5 153.5V179.0H413.5L410.5 149.0Q408.5 130.5 404.5 109.75Q400.5 89.0 396.0 71.5Q391.5 54.0 387.5 46.5Q385.5 42.0 380.75 36.0Q376.0 30.0 371.5 26.5Q367.0 22.5 363.5 18.75Q360.0 15.0 360.0 14.5Z" fill="black" /></svg>