<svg xmlns="http://www.w3.org/2000/svg" width="1055.0" height="465.5" viewBox="0 0 1055.0 465.5"><path d="M58.0 301.0Q60.0 298.5 60.75 296.25Q61.5 294.0 61.5 293.5H59.0Q58.5 293.5 56.25 293.5Q54.0 293.5 52.5 294.0Q48.5 295.0 45.75 295.75Q43.0 296.5 43.0 296.5Q43.0 298.0 47.75 303.0Q52.5 308.0 53.5 308.0Q54.0 308.0 55.25 306.5Q56.5 305.0 58.0 301.0ZM93.5 331.5Q93.5 331.5 92.75 331.25Q92.0 331.0 91.0 331.0Q84.5 331.0 78.0 335.0Q74.5 337.5 74.5 342.0Q74.5 343.0 74.75 344.75Q75.0 346.5 76.0 348.5L78.5 355.0L84.5 347.0Q88.5 342.5 91.0 338.0Q93.5 333.5 93.5 331.5ZM149.5 278.0 141.5 269.5Q136.5 264.5 134.0 262.0Q131.5 259.5 128.0 259.5Q123.5 259.5 114.25 266.25Q105.0 273.0 94.75 282.75Q84.5 292.5 77.5 301.5Q70.5 310.5 70.5 315.0Q70.5 316.0 72.0 317.0Q74.0 319.0 77.5 319.0Q85.0 319.0 96.25 314.75Q107.5 310.5 119.0 304.0Q130.5 297.5 137.5 290.5ZM191.5 325.5Q191.0 325.0 190.75 324.5Q190.5 324.0 190.0 323.5L161.0 291.5L128.0 322.0Q112.0 337.5 103.0 349.5Q94.0 361.5 94.0 367.0Q94.0 371.5 101.5 371.5Q112.5 371.5 131.5 362.75Q150.5 354.0 166.5 341.0Q175.0 334.0 182.5 329.75Q190.0 325.5 191.5 325.5ZM147.5 212.5Q140.0 212.5 132.75 210.5Q125.5 208.5 121.5 206.5Q121.5 207.0 121.75 207.5Q122.0 208.0 122.0 209.0Q125.5 217.0 136.75 233.0Q148.0 249.0 165.5 269.5Q183.0 290.0 204.0 313.0L234.5 346.0L242.5 328.5Q247.5 318.5 250.5 310.5Q253.5 302.5 253.5 296.5Q253.5 288.0 246.5 282.0Q238.5 276.0 238.5 271.5Q238.5 269.0 240.5 267.0Q242.5 265.0 245.5 262.5Q246.5 261.0 248.0 259.75Q249.5 258.5 249.5 258.0Q249.5 257.0 236.5 244.5Q228.0 236.0 212.5 228.75Q197.0 221.5 179.75 217.0Q162.5 212.5 147.5 212.5ZM80.5 139.5Q79.5 135.0 78.75 131.75Q78.0 128.5 77.5 128.0Q73.5 129.0 66.0 132.25Q58.5 135.5 58.5 137.0Q58.5 137.5 62.25 139.5Q66.0 141.5 71.0 143.5L77.5 145.5Q78.5 146.0 79.75 146.25Q81.0 146.5 81.5 147.0Q81.5 146.0 81.25 143.75Q81.0 141.5 80.5 139.5ZM106.5 208.0Q101.0 186.5 98.0 183.0Q94.5 183.5 87.25 187.0Q80.0 190.5 72.0 195.25Q64.0 200.0 58.5 204.25Q53.0 208.5 53.0 210.0Q53.0 210.5 55.25 211.25Q57.5 212.0 59.0 212.0Q63.0 212.0 72.75 214.75Q82.5 217.5 93.0 222.0Q97.0 224.5 100.75 226.25Q104.5 228.0 107.0 229.5Q110.5 230.0 111.0 230.5Q110.5 227.0 109.5 220.75Q108.5 214.5 106.5 208.0ZM358.0 206.5 355.5 205.5Q353.5 204.5 352.0 203.75Q350.5 203.0 348.0 203.0Q343.0 203.0 335.0 217.0L329.0 227.0H338.5Q347.5 227.0 354.25 221.75Q361.0 216.5 361.0 211.5Q361.0 208.5 358.0 206.5ZM387.5 220.0Q387.5 218.0 385.0 216.75Q382.5 215.5 380.0 215.5Q376.5 215.5 375.0 218.0Q374.5 220.0 373.75 222.0Q373.0 224.0 373.0 226.0H374.0Q377.5 226.0 382.5 224.0Q387.5 222.0 387.5 220.0ZM132.5 102.0 131.5 98.5Q129.0 90.0 127.0 90.0Q125.5 90.0 118.75 94.75Q112.0 99.5 111.0 101.0Q115.0 103.5 122.0 106.5Q129.0 109.5 134.0 111.0V110.5Q134.0 109.5 133.75 107.0Q133.5 104.5 132.5 102.0ZM113.0 120.0H111.5Q106.5 117.5 104.0 116.25Q101.5 115.0 100.5 115.0Q100.0 115.0 99.5 116.0Q99.0 117.0 98.0 117.5L96.5 119.0V121.0Q96.5 127.5 97.25 137.75Q98.0 148.0 102.5 153.5H103.5Q109.0 153.5 111.0 151.0Q115.5 146.5 120.5 146.5Q125.5 146.5 125.5 157.0Q125.5 159.0 125.5 163.0Q125.5 167.0 125.0 171.0V174.5Q125.0 193.0 135.0 193.0Q138.0 193.0 144.75 190.0Q151.5 187.0 158.5 182.75Q165.5 178.5 170.75 174.5Q176.0 170.5 176.0 168.0Q176.0 166.0 168.75 159.25Q161.5 152.5 150.75 144.25Q140.0 136.0 129.5 129.0Q119.0 122.0 113.0 120.0ZM193.0 204.0 210.5 207.5V167.0Q205.5 170.0 197.0 176.0Q188.5 182.0 181.5 188.0Q174.5 194.0 173.0 197.0Q174.5 198.0 180.0 200.5Q185.5 203.0 193.0 204.0ZM387.5 196.0Q387.5 195.0 386.75 193.5Q386.0 192.0 385.0 192.0Q384.5 192.0 383.75 193.5Q383.0 195.0 383.0 196.0Q383.0 202.0 385.0 202.0Q387.5 202.0 387.5 196.0ZM432.5 233.5Q430.5 233.5 425.5 231.5L423.5 231.0Q422.5 231.0 421.75 230.75Q421.0 230.5 420.0 230.5L418.5 230.0Q418.0 230.0 417.25 229.75Q416.5 229.5 416.0 229.5Q415.0 229.5 413.0 230.5Q413.0 231.0 416.0 232.25Q419.0 233.5 423.5 234.0Q424.5 234.5 426.5 234.5Q428.5 234.5 429.5 234.5H434.5Q433.5 234.0 433.25 233.75Q433.0 233.5 432.5 233.5ZM460.0 310.0V255.5L433.0 251.5Q431.5 251.5 429.75 251.25Q428.0 251.0 427.0 251.0Q417.5 249.5 413.0 249.5Q407.5 249.5 406.0 253.5Q404.5 257.5 404.5 267.0V277.0Q404.5 289.5 406.75 295.25Q409.0 301.0 416.5 303.25Q424.0 305.5 439.5 308.0ZM447.5 197.5Q439.5 197.5 431.25 196.25Q423.0 195.0 418.5 194.0Q414.5 193.0 412.0 193.0Q409.0 193.0 409.0 202.0Q409.0 210.5 417.5 210.5Q420.0 210.5 426.75 209.25Q433.5 208.0 441.0 206.25Q448.5 204.5 454.0 202.5Q459.5 200.5 459.5 199.0Q459.5 197.5 447.5 197.5ZM460.0 223.0Q460.0 220.5 458.25 219.25Q456.5 218.0 455.0 218.0Q450.0 218.0 448.0 223.0Q451.5 223.5 456.0 225.5Q456.5 226.0 458.5 226.0Q460.0 226.0 460.0 223.0ZM609.0 283.0Q576.0 276.5 547.75 271.0Q519.5 265.5 501.5 262.25Q483.5 259.0 481.0 259.0Q478.0 259.0 477.25 264.0Q476.5 269.0 476.5 283.5Q476.5 296.0 477.0 301.75Q477.5 307.5 480.5 309.25Q483.5 311.0 490.0 312.0Q495.5 313.0 511.25 313.75Q527.0 314.5 549.25 314.75Q571.5 315.0 596.5 315.0Q621.5 315.0 646.25 314.75Q671.0 314.5 692.25 314.25Q713.5 314.0 727.0 313.25Q740.5 312.5 742.5 311.5V311.0Q742.5 310.5 738.0 309.5Q733.5 308.5 719.75 305.5Q706.0 302.5 679.5 297.25Q653.0 292.0 609.0 283.0ZM841.0 272.5Q837.0 265.0 825.5 252.0L810.5 235.0L796.5 251.0Q792.5 256.0 789.5 258.75Q786.5 261.5 786.5 262.0Q786.5 262.5 792.0 263.25Q797.5 264.0 805.5 264.5Q814.5 266.0 824.0 268.0Q833.5 270.0 838.5 271.0Q839.0 271.5 841.0 272.5ZM170.5 62.0Q170.5 52.5 168.5 52.5Q166.0 52.5 161.0 60.5Q157.0 63.0 157.0 65.5Q157.0 66.5 162.0 69.0Q167.0 71.5 168.5 71.5Q170.5 71.5 170.5 62.0ZM339.5 84.5Q322.0 79.5 310.0 76.5Q298.0 73.5 298.0 73.5Q298.0 73.5 294.25 79.5Q290.5 85.5 286.0 93.0L277.5 110.0L299.0 107.0Q310.5 105.5 326.25 104.25Q342.0 103.0 353.0 103.0Q378.0 103.0 378.0 101.0Q378.0 95.5 339.5 84.5ZM407.0 127.5 407.5 125.5Q407.5 124.0 407.75 123.25Q408.0 122.5 408.0 122.0Q408.0 120.0 404.5 120.0Q402.0 120.0 400.5 125.25Q399.0 130.5 399.0 135.0Q399.0 145.5 403.0 147.5H403.5V146.5Q403.5 139.5 407.0 127.5ZM414.5 101.5Q414.5 101.0 411.0 100.25Q407.5 99.5 403.5 99.5Q401.0 99.5 399.5 100.0Q398.0 100.5 397.0 100.5Q398.5 101.0 401.5 102.0Q404.5 103.0 407.0 103.0Q409.5 103.0 412.0 102.5Q414.5 102.0 414.5 101.5ZM455.5 149.0Q453.5 136.0 452.25 130.5Q451.0 125.0 448.25 123.25Q445.5 121.5 439.0 121.0Q437.0 120.0 434.75 120.0Q432.5 120.0 431.5 120.0Q428.0 120.0 425.0 125.75Q422.0 131.5 420.0 139.75Q418.0 148.0 417.0 155.5Q416.0 163.0 416.0 167.0Q416.0 175.0 421.0 177.75Q426.0 180.5 437.0 180.5Q444.0 180.5 449.75 179.5Q455.5 178.5 456.5 177.5V177.0Q456.5 176.0 456.75 175.0Q457.0 174.0 457.0 173.0Q457.0 162.5 455.5 149.0ZM476.5 133.5Q476.5 123.0 473.0 121.5Q471.5 123.0 471.5 139.0Q471.5 145.0 471.75 148.25Q472.0 151.5 472.0 151.5Q472.5 151.5 473.75 146.25Q475.0 141.0 476.5 133.5ZM676.0 136.5Q669.5 135.5 663.5 135.25Q657.5 135.0 650.5 134.5Q643.0 133.5 635.0 133.0Q627.0 132.5 620.0 131.5Q593.0 129.5 570.0 127.5Q547.0 125.5 532.25 124.25Q517.5 123.0 513.5 122.5H511.5Q509.5 122.0 507.25 122.0Q505.0 122.0 504.0 122.0Q497.5 122.0 495.0 129.5Q492.5 137.0 485.5 162.0L481.5 182.5L547.0 178.5Q565.5 177.5 594.5 175.0Q623.5 172.5 655.25 169.0Q687.0 165.5 714.5 162.0Q751.5 156.5 775.25 154.75Q799.0 153.0 809.5 153.0Q823.5 153.0 823.5 157.0Q823.5 160.5 821.0 162.0L819.5 161.5V161.0Q814.5 163.0 796.0 166.25Q777.5 169.5 750.5 173.5Q723.5 177.5 692.0 182.0L676.5 184.0Q610.5 192.5 571.0 198.0Q531.5 203.5 511.75 207.25Q492.0 211.0 485.5 214.5Q479.0 218.0 479.0 222.5Q479.0 227.5 485.5 231.5Q492.0 235.5 512.5 241.5Q522.5 244.5 542.5 249.75Q562.5 255.0 588.0 261.0Q613.5 267.0 640.25 273.0Q667.0 279.0 691.0 283.75Q715.0 288.5 731.5 291.5Q748.0 294.5 752.5 294.5Q756.0 294.5 758.25 292.25Q760.5 290.0 760.5 288.0Q760.5 285.0 755.5 283.0Q752.5 283.0 752.5 279.0Q752.5 276.0 758.75 267.5Q765.0 259.0 775.0 249.5Q788.0 237.5 793.5 229.75Q799.0 222.0 799.0 217.5V216.0L798.5 215.5V213.5Q798.5 202.5 819.5 181.5Q831.0 170.0 836.25 162.75Q841.5 155.5 841.5 152.0Q841.5 147.0 831.0 147.0H829.5Q823.0 147.0 800.25 145.5Q777.5 144.0 745.0 141.75Q712.5 139.5 676.0 136.5ZM885.5 205.0Q883.0 202.5 878.75 198.0Q874.5 193.5 870.0 187.5L852.0 170.0L842.0 181.5Q840.5 184.0 839.0 186.5Q837.5 189.0 836.0 191.5Q835.5 192.0 835.25 192.75Q835.0 193.5 834.5 194.5Q839.5 195.5 849.25 197.75Q859.0 200.0 869.25 202.0Q879.5 204.0 885.5 205.0ZM909.0 139.5Q907.5 136.5 903.0 130.5Q898.5 124.5 893.0 118.5L879.0 102.5L856.0 129.5L875.0 132.0Q885.0 133.5 894.5 135.25Q904.0 137.0 907.5 138.5Q907.5 139.0 908.0 139.0Q908.5 139.0 909.0 139.5ZM111.0 396.0 112.5 394.5Q116.5 388.0 117.0 386.5Q113.5 386.5 107.0 388.0Q100.5 389.5 100.5 393.5Q100.5 398.5 103.0 403.5L104.5 404.5Q105.5 404.0 107.25 402.0Q109.0 400.0 111.0 396.0ZM292.0 300.5Q280.0 291.5 275.5 291.0Q275.0 291.5 273.75 293.25Q272.5 295.0 271.5 297.0Q271.5 299.0 270.5 301.0Q270.0 302.5 269.25 304.75Q268.5 307.0 268.0 308.5Q267.0 312.0 265.0 317.0Q263.0 322.0 262.0 327.0Q260.0 331.5 259.0 335.0Q258.0 338.5 257.5 340.5Q258.5 340.5 263.0 339.0Q267.0 337.0 288.0 333.75Q309.0 330.5 334.5 327.5Q355.5 324.5 370.5 322.0Q385.5 319.5 389.0 318.5Q384.5 316.0 374.5 314.0Q364.5 312.0 352.5 310.75Q340.5 309.5 330.0 308.75Q319.5 308.0 314.5 308.0Q313.5 309.0 311.0 309.0Q307.5 309.0 302.25 306.75Q297.0 304.5 292.0 300.5ZM798.0 334.5 794.5 330.5Q780.5 315.5 767.5 315.5Q761.0 315.5 761.0 323.0Q761.0 327.0 769.25 330.75Q777.5 334.5 787.5 337.0Q797.5 339.5 803.0 340.0Q802.0 338.5 798.0 334.5ZM170.0 25.5Q179.0 18.5 185.5 14.25Q192.0 10.0 195.5 10.0Q201.0 10.0 201.0 16.0Q201.0 17.0 200.5 18.5Q200.0 20.0 199.0 23.0Q197.5 26.0 195.25 28.5Q193.0 31.0 189.0 31.0Q188.5 31.0 188.0 35.5Q187.5 40.0 187.5 46.0Q187.5 54.0 189.0 62.5Q190.5 71.0 193.5 78.0Q195.0 83.5 201.75 93.25Q208.5 103.0 216.0 110.0Q230.0 124.0 230.0 130.5Q230.0 135.0 224.5 135.0Q221.0 135.0 212.25 128.75Q203.5 122.5 195.0 113.0Q186.0 104.5 176.25 96.5Q166.5 88.5 161.0 86.5Q153.0 81.0 149.5 81.0Q147.5 81.0 147.0 84.25Q146.5 87.5 146.5 89.0Q146.5 95.0 151.0 106.5Q155.5 118.0 162.5 130.0Q169.5 142.0 177.5 150.5Q185.5 159.0 193.0 159.0Q195.5 159.0 199.0 156.5Q202.5 154.0 207.5 151.0Q222.5 140.0 228.0 140.0Q234.5 140.0 234.5 147.5Q234.5 153.0 230.5 164.0Q228.0 171.0 226.75 178.25Q225.5 185.5 225.5 191.5Q225.5 193.0 225.5 194.5Q225.5 196.0 226.0 197.5Q227.0 202.5 237.75 215.75Q248.5 229.0 262.5 243.5Q280.0 262.0 293.5 272.25Q307.0 282.5 323.75 287.75Q340.5 293.0 367.5 297.0L387.5 300.0V272.0Q387.5 254.0 386.5 249.0Q385.5 244.0 381.5 244.0Q378.0 244.0 372.75 246.0Q367.5 248.0 364.0 250.5Q354.5 258.5 348.0 258.5Q341.0 258.5 341.0 248.0Q341.0 246.5 339.75 245.5Q338.5 244.5 334.5 244.5Q332.5 244.5 329.0 244.5Q325.5 244.5 321.5 245.5Q312.5 247.0 305.5 247.0Q294.5 247.0 294.5 242.0Q294.5 239.0 299.5 233.0Q304.5 227.0 311.0 219.5Q325.5 205.0 325.5 195.0Q325.5 192.0 323.5 192.0Q320.0 192.0 317.75 188.75Q315.5 185.5 315.5 181.5Q315.5 170.5 323.5 170.5Q331.0 170.5 344.5 181.5Q348.5 184.0 351.75 186.0Q355.0 188.0 358.0 189.5L357.5 189.0Q352.5 182.5 352.5 177.5Q352.5 167.0 364.0 167.0Q366.5 167.0 369.75 168.0Q373.0 169.0 376.0 171.5Q382.0 175.0 384.0 175.0Q386.5 175.0 386.5 165.5Q386.5 162.5 386.25 157.75Q386.0 153.0 385.0 149.0V146.0L381.5 120.0H350.0Q333.0 120.0 315.25 121.75Q297.5 123.5 282.0 126.25Q266.5 129.0 257.0 132.5L257.5 133.0Q254.5 133.5 252.75 133.75Q251.0 134.0 250.0 134.0Q244.0 134.0 243.0 128.0Q243.5 124.0 248.75 116.0Q254.0 108.0 262.0 99.0Q269.5 90.0 274.0 83.25Q278.5 76.5 278.5 73.0Q278.5 69.0 272.0 64.5Q268.5 62.0 266.25 59.5Q264.0 57.0 264.0 54.5Q264.0 52.5 265.5 50.25Q267.0 48.0 268.5 46.0Q272.5 41.5 276.5 41.5Q280.0 41.5 285.5 47.0Q288.0 50.0 298.5 54.5Q309.0 59.0 322.75 63.5Q336.5 68.0 348.75 70.75Q361.0 73.5 366.0 73.5Q367.5 73.5 367.5 69.0Q367.5 64.0 368.0 61.5Q368.5 59.0 372.0 59.0Q375.5 59.0 388.5 70.0Q396.5 76.5 402.0 79.5Q407.5 82.5 414.5 82.5Q417.0 82.5 420.25 82.0Q423.5 81.5 427.0 81.0L430.5 80.5Q439.5 76.0 439.5 69.0Q439.5 63.5 440.25 61.0Q441.0 58.5 444.5 58.5Q448.0 58.5 457.0 70.0Q462.5 76.0 466.75 79.0Q471.0 82.0 477.5 82.0Q485.5 82.0 496.0 80.5Q501.5 79.5 506.25 79.0Q511.0 78.5 514.0 78.5Q528.5 78.5 528.5 85.5Q528.5 92.0 514.0 96.0Q511.0 97.0 510.0 97.5Q509.0 98.0 509.0 98.0Q512.0 100.5 541.0 104.75Q570.0 109.0 621.25 114.25Q672.5 119.5 741.5 125.0L829.0 131.0L847.5 111.5Q856.0 104.0 862.5 96.0Q869.0 88.0 869.5 83.0Q870.5 78.0 874.0 73.5Q877.5 69.0 882.0 68.5H886.5Q892.0 68.5 892.0 73.0Q892.0 74.5 892.0 76.25Q892.0 78.0 891.5 79.0Q891.0 79.5 891.0 82.5Q891.0 93.5 906.5 111.0Q922.0 128.5 947.5 147.25Q973.0 166.0 1003.5 182.0Q1019.5 190.5 1032.25 198.5Q1045.0 206.5 1045.0 209.5V211.5Q1045.0 213.5 1044.25 214.75Q1043.5 216.0 1040.0 216.0Q1037.0 216.0 1024.0 210.0Q1011.0 204.0 982.5 189.5Q945.0 170.5 914.75 159.0Q884.5 147.5 872.0 147.5Q871.0 147.5 869.75 148.25Q868.5 149.0 867.5 149.5Q866.5 150.5 866.5 151.5Q866.5 158.5 876.25 170.75Q886.0 183.0 902.25 197.25Q918.5 211.5 938.5 225.0Q958.5 238.5 978.5 248.5Q1006.5 262.5 1015.5 268.0Q1024.5 273.5 1024.5 278.0Q1024.5 281.0 1020.5 283.0H1019.5Q1016.5 283.0 1000.25 276.5Q984.0 270.0 963.5 259.5Q921.0 238.0 886.5 225.75Q852.0 213.5 835.0 212.5Q823.0 212.5 823.0 218.5Q823.0 224.5 834.0 237.25Q845.0 250.0 862.25 264.75Q879.5 279.5 898.75 293.0Q918.0 306.5 934.5 314.5Q952.0 324.0 964.75 332.75Q977.5 341.5 977.5 343.5Q977.5 347.0 973.0 347.0Q969.0 347.0 953.75 340.25Q938.5 333.5 917.5 324.0Q874.0 303.0 843.75 291.75Q813.5 280.5 797.5 280.5Q785.5 280.5 782.5 287.5V288.0Q784.0 294.0 795.0 306.0Q806.0 318.0 823.0 332.5Q840.0 347.0 858.5 360.25Q877.0 373.5 893.5 381.5Q914.0 392.0 924.5 398.0Q935.0 404.0 938.75 407.0Q942.5 410.0 942.5 412.5Q942.5 413.0 941.5 414.5Q940.5 416.0 940.0 416.5H938.0Q933.5 416.5 915.75 409.25Q898.0 402.0 876.0 391.5Q832.0 369.0 801.25 358.5Q770.5 348.0 749.0 348.0Q746.5 348.0 743.75 348.0Q741.0 348.0 738.5 348.5L736.5 349.0Q733.0 349.0 729.75 349.5Q726.5 350.0 724.5 350.0Q715.0 350.0 715.0 343.0Q715.0 339.5 716.0 338.0Q716.5 336.0 716.5 334.5Q716.5 333.0 713.0 332.25Q709.5 331.5 699.0 331.25Q688.5 331.0 667.0 331.0Q647.5 331.0 618.75 331.25Q590.0 331.5 547.5 332.5Q460.0 334.0 404.75 336.75Q349.5 339.5 323.0 343.5Q289.0 349.5 269.25 355.25Q249.5 361.0 249.5 365.0Q249.5 369.0 246.0 370.75Q242.5 372.5 238.5 372.5Q233.5 372.5 228.5 370.25Q223.5 368.0 222.5 363.5Q221.5 361.5 214.75 352.5Q208.0 343.5 198.0 332.5Q194.0 341.5 167.0 361.5Q144.5 380.0 129.25 402.0Q114.0 424.0 114.0 438.5Q114.0 455.5 108.5 455.5Q101.5 455.5 94.5 430.5Q92.5 422.0 88.75 414.0Q85.0 406.0 82.5 402.5Q79.0 398.5 74.75 389.75Q70.5 381.0 68.0 372.5Q65.0 365.0 62.5 359.0Q60.0 353.0 58.5 350.0Q57.5 358.5 53.0 358.5Q50.0 358.5 44.5 349.75Q39.0 341.0 34.0 327.0Q31.0 315.5 26.75 305.75Q22.5 296.0 18.5 292.5Q15.5 289.5 12.75 284.0Q10.0 278.5 10.0 274.5Q10.0 269.0 10.75 266.75Q11.5 264.5 15.0 264.5Q17.0 264.5 26.5 271.5Q33.0 278.5 42.5 278.5Q45.5 278.5 48.25 278.25Q51.0 278.0 54.5 277.0Q64.5 275.0 77.25 270.0Q90.0 265.0 99.5 259.25Q109.0 253.5 109.0 250.0Q109.0 247.0 93.0 239.75Q77.0 232.5 54.0 226.0Q40.5 222.0 30.75 217.0Q21.0 212.0 21.0 210.0Q21.0 208.0 30.5 201.75Q40.0 195.5 52.0 189.0Q62.0 183.5 71.0 177.5Q80.0 171.5 82.0 170.0V169.5Q81.5 166.0 74.0 162.25Q66.5 158.5 56.75 155.75Q47.0 153.0 39.0 153.0Q36.0 153.0 34.0 153.5Q32.0 154.0 29.0 154.0Q26.0 154.0 23.5 154.0Q20.0 153.5 18.25 153.0Q16.5 152.5 16.5 150.0Q16.5 142.0 42.5 127.5Q53.5 122.0 60.75 117.5Q68.0 113.0 68.0 111.5Q68.0 109.0 74.75 103.5Q81.5 98.0 90.5 93.5Q106.5 85.5 106.5 79.5V77.0Q106.5 66.5 129.5 54.0Q139.5 48.5 151.75 40.0Q164.0 31.5 170.0 25.5Z" fill="black" /></svg>