<svg xmlns="http://www.w3.org/2000/svg" width="566.5" height="376.0" viewBox="0 0 566.5 376.0"><path d="M171.5 296.5 155.5 297.5H146.5Q138.5 297.5 131.75 297.0Q125.0 296.5 122.0 295.0Q120.5 293.5 118.5 293.5Q118.0 293.5 117.75 298.25Q117.5 303.0 117.5 316.0Q117.5 326.5 117.75 333.25Q118.0 340.0 118.0 340.0Q121.5 338.5 131.5 329.0L135.5 325.5Q143.0 319.0 152.25 311.5Q161.5 304.0 166.5 300.5ZM90.0 184.5Q91.5 182.5 92.75 181.25Q94.0 180.0 95.5 178.5Q90.5 180.5 83.75 184.0Q77.0 187.5 69.5 191.5L42.0 206.0L53.5 209.0Q59.5 211.0 63.75 212.0Q68.0 213.0 71.0 213.0Q75.5 213.0 75.5 207.0Q75.5 204.5 79.5 197.75Q83.5 191.0 90.0 184.5ZM396.5 163.5 400.0 158.5Q395.5 161.0 390.75 164.25Q386.0 167.5 381.5 170.5L346.5 193.0L359.5 196.5Q371.5 199.5 376.0 199.5Q380.0 199.5 381.5 190.0Q383.5 184.5 387.75 176.75Q392.0 169.0 396.5 163.5ZM455.5 112.0Q454.5 115.0 449.25 122.0Q444.0 129.0 436.0 137.5Q417.0 158.0 406.5 172.75Q396.0 187.5 396.0 194.5Q396.0 196.5 396.5 196.5Q398.0 202.5 400.0 202.5Q404.5 202.5 404.5 209.0V210.5Q404.0 211.5 404.0 213.0Q404.0 218.0 407.0 220.5Q410.0 223.0 415.0 225.5Q420.5 229.0 430.75 237.25Q441.0 245.5 449.5 253.5L465.5 268.5L462.5 207.0Q461.0 177.5 459.5 154.0Q458.0 130.5 455.5 112.0ZM198.0 97.0 180.0 79.0Q173.5 71.0 166.5 63.25Q159.5 55.5 152.5 48.0Q148.5 49.5 135.0 75.5Q129.5 86.0 125.25 94.5Q121.0 103.0 119.5 106.0Q123.5 105.0 130.0 103.5Q136.5 102.0 144.5 100.0Q154.0 97.5 162.75 96.25Q171.5 95.0 179.0 95.0Q181.5 95.0 184.0 95.0Q186.5 95.0 188.5 95.5ZM508.0 38.0H456.0L459.5 50.0Q462.0 56.5 464.75 74.75Q467.5 93.0 469.5 112.0L473.0 142.5L479.5 119.0Q485.0 96.5 493.25 73.5Q501.5 50.5 508.0 38.0ZM35.5 192.5Q48.0 187.0 63.5 179.25Q79.0 171.5 94.75 163.25Q110.5 155.0 123.75 147.5Q137.0 140.0 144.5 135.0Q154.5 128.0 158.5 128.0Q162.0 128.0 162.0 132.0Q162.0 134.0 159.5 138.0Q157.0 142.0 151.0 147.0Q122.5 170.0 106.0 189.5Q89.5 209.0 88.5 217.5Q89.5 219.5 91.5 220.5Q97.0 220.5 97.0 223.5Q97.0 226.0 92.0 227.5Q89.5 228.0 89.5 229.5Q89.5 233.0 104.0 247.5Q111.0 254.5 117.5 262.5Q124.0 270.5 127.0 275.0Q134.5 284.0 148.5 284.0Q160.0 284.0 180.5 278.0Q201.0 272.0 224.25 263.25Q247.5 254.5 268.75 245.5Q290.0 236.5 303.0 231.0Q311.0 227.5 319.0 224.0Q327.0 220.5 335.0 218.0Q343.5 214.5 349.5 211.75Q355.5 209.0 355.5 208.5Q355.5 208.5 352.25 208.25Q349.0 208.0 343.5 207.5Q341.0 207.0 338.25 206.75Q335.5 206.5 332.5 206.0L298.0 202.0L328.5 186.5Q331.0 185.5 333.0 184.25Q335.0 183.0 337.0 182.0L340.0 180.5Q350.0 175.5 355.25 172.5Q360.5 169.5 360.5 167.5Q360.5 164.5 347.5 159.75Q334.5 155.0 305.0 145.5Q303.0 144.5 300.75 143.75Q298.5 143.0 296.5 142.5Q294.5 141.5 292.25 140.75Q290.0 140.0 288.0 139.5Q265.5 132.0 244.25 125.25Q223.0 118.5 207.75 114.0Q192.5 109.5 187.5 109.0Q186.0 108.5 184.25 108.5Q182.5 108.5 180.0 108.5Q170.0 108.5 156.25 111.0Q142.5 113.5 129.5 117.5Q116.5 121.5 109.5 126.0Q106.0 128.0 102.5 129.5Q99.0 131.0 97.0 131.5L95.5 131.0Q94.0 131.0 93.0 129.5V128.5Q93.0 126.0 99.25 113.25Q105.5 100.5 114.5 84.0Q124.0 67.5 131.75 52.75Q139.5 38.0 140.5 33.0Q143.5 19.0 149.5 19.0Q155.5 19.0 160.5 32.0Q161.5 35.5 172.25 48.0Q183.0 60.5 196.0 73.0L228.0 104.0L300.0 129.0Q316.5 134.5 332.0 139.5Q347.5 144.5 358.5 148.5Q375.0 153.5 378.0 155.0Q382.0 153.5 392.25 147.0Q402.5 140.5 415.0 132.0Q428.5 122.0 440.0 115.0Q451.5 108.0 453.5 108.0L455.0 108.5Q450.0 65.0 441.0 44.0Q436.5 35.0 433.5 26.0Q430.5 17.0 430.5 14.5Q430.5 10.0 435.0 10.0Q438.5 10.0 449.5 17.0Q457.0 21.5 463.5 24.0Q470.0 26.5 479.5 26.5Q489.5 26.5 503.5 24.0Q517.5 21.5 540.5 16.5Q543.5 15.5 545.75 15.5Q548.0 15.5 549.5 15.5Q556.5 15.5 556.5 19.0Q556.5 25.0 539.0 32.0Q529.5 36.0 524.25 42.25Q519.0 48.5 512.0 64.5Q501.5 88.0 494.5 114.0Q487.5 140.0 483.75 172.5Q480.0 205.0 478.5 248.0Q478.5 270.5 477.0 290.0Q475.5 309.5 473.75 321.25Q472.0 333.0 470.0 333.0Q468.0 333.0 466.0 324.0Q464.0 315.0 464.0 302.5Q464.0 292.5 463.75 286.0Q463.5 279.5 463.5 279.5Q461.5 279.5 454.5 275.0Q447.5 270.5 439.5 264.0Q431.5 257.0 419.25 246.75Q407.0 236.5 397.0 230.0L375.5 215.5L316.0 240.0Q303.0 245.5 289.75 251.25Q276.5 257.0 263.5 262.0L258.5 264.5Q243.5 271.0 237.0 273.0Q226.0 276.5 207.75 288.5Q189.5 300.5 170.25 315.75Q151.0 331.0 136.0 345.0Q126.5 354.0 119.0 360.0Q111.5 366.0 109.5 366.0H108.0Q107.5 365.0 106.5 355.5Q105.5 346.0 104.5 333.25Q103.5 320.5 103.0 309.25Q102.5 298.0 102.5 293.5Q102.5 282.5 104.25 279.0Q106.0 275.5 109.5 275.5H111.5Q109.5 271.0 99.75 262.25Q90.0 253.5 77.5 243.75Q65.0 234.0 53.5 226.75Q42.0 219.5 36.0 218.0Q24.0 215.5 17.0 213.5Q10.0 211.5 10.0 208.0Q10.0 203.5 35.5 192.5Z" fill="black" /></svg>