<svg xmlns="http://www.w3.org/2000/svg" width="462.0" height="385.5" viewBox="0 0 462.0 385.5"><path d="M228.0 295.5Q223.5 295.0 212.75 294.25Q202.0 293.5 188.0 293.0L149.0 290.5L155.0 315.0Q157.5 323.5 159.75 331.0Q162.0 338.5 163.0 342.5Q164.0 341.5 166.5 339.0Q169.0 336.5 171.0 334.0Q176.0 328.0 186.5 320.25Q197.0 312.5 208.5 305.5Q220.0 298.5 228.0 295.5ZM62.0 202.5 55.5 196.0Q52.0 192.0 47.25 186.0Q42.5 180.0 39.5 175.0L35.0 169.5L33.0 180.0Q31.0 194.5 30.5 209.5Q30.0 224.5 30.0 239.0Q33.0 236.0 37.5 230.0Q41.5 224.5 46.5 218.5Q51.5 212.5 54.5 209.0L55.5 207.5ZM186.5 85.5H170.0Q163.5 85.5 157.25 85.75Q151.0 86.0 148.5 87.0V87.5Q148.5 90.5 152.0 96.5Q153.5 99.0 156.0 106.5Q158.5 114.0 161.25 122.0Q164.0 130.0 165.0 134.5Q165.0 133.0 165.5 132.0Q168.0 126.5 172.5 116.5Q177.0 106.5 186.5 85.5ZM235.0 144.5 236.5 145.5Q235.0 143.0 226.5 143.0Q220.5 143.0 219.0 144.5V145.0Q219.0 149.5 223.0 157.5Q227.0 165.5 229.0 165.5Q231.5 165.5 234.0 158.25Q236.5 151.0 236.5 146.5Q236.5 145.5 235.0 144.5ZM238.0 85.0Q229.0 82.0 221.25 79.75Q213.5 77.5 212.0 77.5Q210.0 77.5 205.0 84.0Q200.0 90.5 194.5 99.75Q189.0 109.0 184.5 118.25Q180.0 127.5 179.0 133.0Q177.5 138.5 176.75 162.25Q176.0 186.0 176.0 214.0V280.0L183.5 281.5Q188.0 283.0 198.0 283.0Q210.0 283.0 226.25 281.25Q242.5 279.5 258.75 276.25Q275.0 273.0 286.0 269.0L310.0 260.5L312.5 232.0Q314.0 214.5 314.0 199.0Q314.0 195.5 314.0 192.5Q314.0 189.5 313.5 187.5Q312.5 181.0 309.0 172.5Q305.5 164.0 301.5 157.5Q297.5 151.0 295.0 151.0Q294.5 151.0 292.0 156.5Q289.5 162.0 286.0 169.0Q281.5 179.5 279.75 191.5Q278.0 203.5 278.0 227.5Q278.0 245.5 276.5 258.75Q275.0 272.0 272.0 273.0H271.5Q265.5 273.0 265.5 227.0Q265.5 200.5 264.0 188.5Q262.5 176.5 258.5 170.0Q253.5 158.0 249.5 156.0H248.5Q243.5 156.0 239.25 174.75Q235.0 193.5 233.5 225.5Q232.0 247.5 229.75 260.0Q227.5 272.5 224.5 272.5H223.5Q220.0 270.0 220.0 255.0Q220.0 243.0 221.5 228.0Q222.0 222.5 222.0 217.5Q222.0 212.5 222.0 207.5Q222.0 186.5 217.25 173.5Q212.5 160.5 201.5 149.0L186.5 134.5H263.5Q293.0 134.5 312.25 134.25Q331.5 134.0 331.5 133.5Q331.5 128.5 317.25 119.5Q303.0 110.5 281.5 101.0Q260.0 91.5 238.0 85.0ZM285.0 84.0Q281.5 79.0 276.75 69.0Q272.0 59.0 269.5 50.0L264.5 33.5L246.5 48.0Q238.5 54.0 233.0 59.5Q227.5 65.0 225.5 67.5Q226.5 68.0 230.25 69.5Q234.0 71.0 239.5 72.0Q247.0 74.0 257.0 77.75Q267.0 81.5 273.5 84.5Q279.0 87.5 283.0 89.0Q287.0 90.5 289.0 91.0Q288.5 89.0 285.0 84.0ZM282.0 145.0Q280.5 143.0 274.5 143.0Q267.0 143.0 264.5 145.5L264.0 146.0Q264.5 150.5 267.0 158.0Q269.5 165.5 271.0 165.5Q273.5 165.5 277.5 157.5Q281.5 149.5 282.0 145.0ZM329.0 145.0Q328.5 144.0 326.25 143.5Q324.0 143.0 321.5 143.0Q315.0 143.0 311.5 145.5Q312.0 149.5 315.25 157.5Q318.5 165.5 320.5 165.5Q322.0 165.5 325.25 157.5Q328.5 149.5 329.0 145.0ZM393.5 185.0Q377.5 170.5 364.5 160.0Q351.5 149.5 349.0 147.5Q344.5 148.0 334.5 169.0Q330.5 175.5 328.25 190.0Q326.0 204.5 325.25 220.0Q324.5 235.5 324.5 245.0Q324.5 249.5 324.75 251.75Q325.0 254.0 325.0 254.0Q326.0 254.0 326.0 253.5Q329.0 252.5 342.5 248.0Q356.0 243.5 373.0 238.5L379.0 236.5Q397.5 231.0 412.75 226.0Q428.0 221.0 431.0 220.0Q430.5 217.5 421.75 209.75Q413.0 202.0 393.5 185.0ZM256.0 23.0Q261.5 17.5 266.0 13.75Q270.5 10.0 271.5 10.0Q273.5 10.0 276.0 16.75Q278.5 23.5 279.0 32.5Q281.0 46.0 285.5 57.25Q290.0 68.5 301.5 82.25Q313.0 96.0 334.75 116.0Q356.5 136.0 392.5 167.0Q409.0 181.0 422.25 193.25Q435.5 205.5 443.75 213.25Q452.0 221.0 452.0 222.5Q451.5 224.5 443.0 228.75Q434.5 233.0 422.5 236.0Q387.5 246.5 361.5 255.25Q335.5 264.0 328.5 268.0Q325.5 270.0 320.75 272.0Q316.0 274.0 312.5 274.0Q308.5 274.0 295.0 279.25Q281.5 284.5 264.0 292.5Q246.5 300.5 231.0 308.25Q215.5 316.0 207.0 321.5Q192.0 331.0 180.75 342.75Q169.5 354.5 165.5 364.5Q162.0 375.5 156.5 375.5Q149.0 375.5 149.0 356.5Q149.0 350.0 146.75 337.0Q144.5 324.0 141.5 312.0Q139.5 303.0 137.5 294.5Q135.5 286.0 135.5 282.0Q135.5 280.0 136.5 279.0Q138.0 276.0 145.5 276.0Q147.0 276.0 148.75 276.0Q150.5 276.0 152.0 276.5L161.0 278.0V209.0H120.0Q101.5 209.0 91.5 209.75Q81.5 210.5 76.5 212.25Q71.5 214.0 66.0 218.0Q59.0 224.0 50.75 234.75Q42.5 245.5 36.0 257.0Q29.5 268.5 28.0 276.0Q25.5 290.0 17.0 290.0Q10.0 290.0 10.0 281.5Q10.0 280.5 10.0 278.75Q10.0 277.0 10.5 275.0L11.0 271.0Q12.0 266.5 13.25 253.75Q14.5 241.0 16.25 223.25Q18.0 205.5 19.5 187.0Q20.5 172.5 21.5 157.5Q22.5 142.5 24.5 128.5Q25.0 124.0 25.25 121.25Q25.5 118.5 25.5 118.5Q25.5 115.5 31.5 115.5Q34.0 115.5 36.25 122.0Q38.5 128.5 39.0 137.0Q41.5 152.5 51.25 168.75Q61.0 185.0 72.0 191.5Q76.5 193.5 90.0 195.0Q103.5 196.5 122.0 196.5H161.0V182.5Q161.0 173.5 157.25 156.75Q153.5 140.0 148.0 122.75Q142.5 105.5 137.5 95.0Q134.5 89.0 132.25 83.5Q130.0 78.0 130.0 77.0Q130.0 75.0 140.25 73.75Q150.5 72.5 165.5 72.5Q178.5 72.5 187.25 72.25Q196.0 72.0 196.0 72.0Q196.0 70.5 203.75 63.75Q211.5 57.0 221.5 50.5Q231.0 44.0 241.0 36.0Q251.0 28.0 256.0 23.0Z" fill="black" /></svg>