<svg xmlns="http://www.w3.org/2000/svg" width="704.0" height="451.5" viewBox="0 0 704.0 451.5"><path d="M127.0 165.0 135.0 149.0H117.5Q103.0 149.0 101.0 148.0Q107.0 157.5 110.75 165.5Q114.5 173.5 114.5 185.0Q119.5 181.0 127.0 165.0ZM212.5 153.0Q209.5 154.5 200.0 154.5H191.0Q193.0 157.5 195.0 163.75Q197.0 170.0 199.0 176.0L199.5 179.5L209.5 161.5Q211.0 155.5 212.5 153.0ZM266.0 95.0 253.5 81.0Q243.0 68.0 238.75 63.5Q234.5 59.0 234.5 59.0Q234.5 59.0 232.0 65.0Q229.5 71.0 226.0 79.0L219.0 95.0ZM103.5 348.5V349.0Q103.5 348.5 103.75 348.5Q104.0 348.5 104.0 348.0H64.0Q53.0 348.0 48.5 348.0Q44.0 348.0 44.0 349.0V350.5Q46.0 354.0 47.0 362.25Q48.0 370.5 48.0 378.5V389.0L68.0 375.0Q76.0 368.0 85.25 360.75Q94.5 353.5 103.5 348.5ZM219.0 38.0Q219.0 33.5 220.25 26.75Q221.5 20.0 224.75 15.0Q228.0 10.0 234.5 10.0Q240.5 10.0 241.5 15.75Q242.5 21.5 242.5 25.5V27.0Q242.5 37.5 256.5 55.25Q270.5 73.0 291.5 89.0Q300.0 94.5 311.75 99.75Q323.5 105.0 345.25 111.5Q367.0 118.0 405.0 127.75Q443.0 137.5 504.0 152.0Q543.5 161.5 578.0 170.5Q612.5 179.5 638.5 187.0Q664.5 194.5 679.25 199.75Q694.0 205.0 694.0 207.5V208.0Q694.0 210.5 689.25 213.0Q684.5 215.5 670.0 219.75Q655.5 224.0 626.75 230.75Q598.0 237.5 550.75 248.25Q503.5 259.0 432.0 275.0Q360.5 291.5 312.25 303.0Q264.0 314.5 233.0 322.75Q202.0 331.0 182.5 337.5Q163.0 344.0 149.5 351.0Q131.0 360.0 112.0 371.25Q93.0 382.5 76.75 393.5Q60.5 404.5 50.25 413.75Q40.0 423.0 38.5 428.0Q36.5 434.5 31.0 438.0Q25.5 441.5 21.0 441.5Q16.5 441.5 13.25 439.5Q10.0 437.5 10.0 431.5Q10.0 428.5 13.25 421.5Q16.5 414.5 20.5 409.0Q26.5 401.0 26.5 382.5Q26.5 377.0 26.5 370.5Q26.5 364.0 26.0 355.5Q25.5 347.0 25.0 339.25Q24.5 331.5 24.5 326.5Q24.5 318.0 26.0 314.5Q27.5 311.0 31.0 311.0Q33.5 311.0 37.0 313.75Q40.5 316.5 44.0 320.5Q53.5 330.0 85.0 330.0Q97.0 330.0 109.25 328.25Q121.5 326.5 134.5 324.0Q146.0 322.5 154.75 320.25Q163.5 318.0 163.5 318.0L182.0 311.5Q182.0 307.5 182.5 299.25Q183.0 291.0 183.5 285.5L184.0 277.0Q185.5 264.0 185.5 249.5Q185.5 225.0 183.0 204.5Q180.5 184.0 176.25 170.75Q172.0 157.5 166.5 156.0Q166.0 155.0 164.5 155.0Q155.5 155.0 145.5 171.5Q135.5 188.0 128.0 214.75Q120.5 241.5 117.5 272.5Q113.0 317.5 105.0 317.5Q98.5 317.5 98.5 282.0V271.0Q99.0 267.5 99.0 263.75Q99.0 260.0 99.0 256.0Q100.0 243.5 100.5 234.5Q101.0 225.5 101.0 218.5Q101.0 203.0 98.25 193.25Q95.5 183.5 91.0 173.5Q86.0 163.0 81.5 156.0Q77.0 149.0 74.5 149.0Q69.0 149.0 65.25 145.75Q61.5 142.5 61.5 139.0Q61.5 133.5 75.25 131.75Q89.0 130.0 109.0 130.0Q126.5 130.0 140.5 128.5Q154.5 127.0 155.5 125.0Q157.5 123.0 161.5 122.0Q165.5 121.0 167.5 121.0Q177.5 122.0 181.0 124.75Q184.5 127.5 185.0 135.0H201.0Q209.5 135.0 218.5 133.75Q227.5 132.5 229.5 130.5Q230.5 129.0 233.5 127.75Q236.5 126.5 238.5 126.5Q241.0 126.5 243.5 127.25Q246.0 128.0 247.5 130.0Q253.5 133.5 253.5 138.0Q253.5 142.5 244.0 147.5Q236.5 150.5 230.0 162.5Q223.5 174.5 218.75 191.5Q214.0 208.5 210.25 226.25Q206.5 244.0 204.5 258.5Q202.5 273.0 201.5 280.0Q201.0 291.5 201.0 299.0Q201.0 306.5 201.0 306.5Q208.5 304.0 225.0 300.25Q241.5 296.5 260.0 292.5Q289.0 286.5 326.75 278.5Q364.5 270.5 405.5 261.75Q446.5 253.0 486.25 244.25Q526.0 235.5 559.25 228.0Q592.5 220.5 614.5 215.25Q636.5 210.0 641.5 208.0Q635.0 206.0 612.5 200.0Q590.0 194.0 557.25 185.75Q524.5 177.5 487.0 168.0Q455.5 160.5 425.75 153.25Q396.0 146.0 371.0 139.75Q346.0 133.5 329.25 129.25Q312.5 125.0 308.0 123.5Q295.5 119.5 281.25 117.5Q267.0 115.5 253.0 115.5Q239.5 115.5 227.75 117.5Q216.0 119.5 209.5 123.5Q205.0 127.0 201.0 129.0Q197.0 131.0 195.0 131.0Q187.0 131.0 187.0 123.0Q187.0 119.0 191.0 109.5Q195.0 100.0 201.5 85.5Q208.5 72.0 213.75 57.5Q219.0 43.0 219.0 38.0Z" fill="black" /></svg>