<svg xmlns="http://www.w3.org/2000/svg" width="638.5" height="376.5" viewBox="0 0 638.5 376.5"><path d="M288.0 235.0H287.5Q286.5 232.5 283.5 231.75Q280.5 231.0 277.0 231.0Q274.0 231.0 271.5 231.75Q269.0 232.5 269.0 233.5Q269.0 236.0 273.5 238.5Q275.5 239.5 277.5 239.5Q281.0 239.5 284.25 237.75Q287.5 236.0 288.0 235.0ZM307.0 312.0Q307.0 311.0 301.0 307.5Q295.0 304.0 287.0 300.5L270.0 291.0L268.5 307.0Q268.0 311.0 268.0 315.0Q268.0 319.0 268.0 322.0V326.5Q270.5 325.5 273.75 324.5Q277.0 323.5 280.0 321.5Q296.0 314.0 302.5 314.0Q307.0 314.0 307.0 312.0ZM137.5 177.0Q145.5 164.5 150.5 155.5Q143.0 161.0 131.0 171.0Q119.0 181.0 105.5 193.0L58.0 234.5L81.5 237.0Q86.0 237.5 89.75 237.75Q93.5 238.0 96.5 238.0Q109.0 238.0 114.0 234.0Q119.0 230.0 119.0 220.5Q119.0 215.5 124.25 203.0Q129.5 190.5 137.5 177.0ZM283.5 171.0H283.0Q278.0 168.0 275.0 168.0Q274.5 168.0 274.5 173.0Q274.5 179.0 279.5 179.0Q288.0 179.0 288.0 175.0Q288.0 172.5 283.5 171.0ZM398.0 118.0 401.0 100.5 366.0 101.5Q329.0 102.0 305.5 109.5Q282.0 117.0 270.0 131.5L269.0 132.5Q266.5 136.5 266.5 137.5Q266.5 139.0 268.75 141.5Q271.0 144.0 274.0 147.0Q281.5 153.0 298.0 159.25Q314.5 165.5 333.5 169.5Q352.5 173.5 367.5 173.5Q379.0 173.5 386.75 175.75Q394.5 178.0 394.5 181.5Q394.5 185.0 379.75 187.0Q365.0 189.0 341.0 189.0Q310.5 189.0 298.25 190.75Q286.0 192.5 279.0 198.0L269.5 205.5L281.0 213.5Q290.0 218.5 306.75 223.75Q323.5 229.0 341.75 232.5Q360.0 236.0 373.0 236.0Q381.5 236.0 388.0 237.75Q394.5 239.5 394.5 242.0Q394.5 245.5 379.75 247.25Q365.0 249.0 344.0 249.0Q316.5 249.0 303.25 250.75Q290.0 252.5 282.5 258.0Q272.0 265.0 272.0 266.5Q272.0 269.5 277.5 274.0Q290.5 287.5 313.75 296.5Q337.0 305.5 364.0 308.0L398.5 309.5L401.0 294.5Q401.5 292.5 401.5 289.75Q401.5 287.0 401.5 285.0Q401.5 279.5 400.75 273.75Q400.0 268.0 398.0 264.0Q396.0 257.5 396.0 251.5Q396.0 244.0 400.0 240.0Q405.0 235.5 405.0 223.5Q405.0 210.5 399.0 205.5Q395.0 200.0 395.0 196.5Q395.0 193.0 399.0 189.0Q402.0 186.5 403.25 178.5Q404.5 170.5 404.5 162.5Q404.5 155.5 403.75 150.75Q403.0 146.0 401.0 145.0Q399.5 144.0 398.5 139.25Q397.5 134.5 397.5 128.5Q397.5 126.0 397.5 123.25Q397.5 120.5 398.0 118.0ZM438.0 221.0 435.0 220.0Q424.0 216.0 421.5 216.0Q421.5 216.0 421.25 217.0Q421.0 218.0 421.0 219.0Q421.0 231.5 433.0 231.5Q436.5 231.5 440.0 230.25Q443.5 229.0 447.0 227.0L448.0 226.0H448.5Q448.5 224.5 438.0 221.0ZM444.0 288.5Q434.0 284.0 425.5 280.75Q417.0 277.5 416.0 277.5Q416.0 277.5 415.75 283.75Q415.5 290.0 415.5 298.5Q415.5 317.5 418.0 317.5Q420.0 316.5 424.0 315.25Q428.0 314.0 433.0 313.0L437.5 311.5Q440.0 310.5 442.5 309.75Q445.0 309.0 448.0 308.0Q456.0 305.5 462.0 303.5Q468.0 301.5 468.0 301.0Q468.0 300.0 460.75 296.5Q453.5 293.0 444.0 288.5ZM311.5 89.0Q311.5 88.0 306.0 84.25Q300.5 80.5 292.0 76.5L275.5 67.0L273.0 74.5Q272.0 79.0 270.5 85.75Q269.0 92.5 269.0 98.0Q269.0 105.0 271.5 105.0Q274.0 105.0 275.0 104.0Q279.0 102.0 286.25 99.25Q293.5 96.5 300.0 95.0Q304.5 93.0 308.0 91.25Q311.5 89.5 311.5 89.0ZM438.0 157.5 432.5 156.0Q425.0 153.0 422.0 153.0Q421.0 154.0 421.0 157.5V162.5Q421.0 172.0 424.0 172.0Q427.0 172.0 432.0 170.5Q448.5 166.5 448.5 164.0Q448.5 163.0 445.25 161.25Q442.0 159.5 438.0 157.5ZM478.5 77.0Q478.5 75.5 471.25 71.75Q464.0 68.0 454.0 63.75Q444.0 59.5 435.0 56.25Q426.0 53.0 422.0 52.5Q420.5 57.0 420.5 66.0Q420.5 72.5 421.5 79.75Q422.5 87.0 424.0 90.0Q426.0 92.0 429.0 92.0Q436.0 92.0 452.5 86.5Q462.5 83.0 470.5 80.25Q478.5 77.5 478.5 77.0ZM210.5 71.0Q214.5 64.0 219.5 60.5Q224.5 57.0 226.5 57.0H227.0Q230.0 58.0 230.0 62.5Q230.0 66.5 227.0 74.0Q224.0 81.5 219.25 89.0Q214.5 96.5 209.0 101.0Q206.0 103.5 197.0 115.5Q188.0 127.5 176.75 144.0Q165.5 160.5 155.25 176.75Q145.0 193.0 139.0 203.5Q136.0 209.5 136.0 222.5Q136.0 239.0 138.75 249.0Q141.5 259.0 149.0 266.5Q156.5 274.0 170.5 284.0Q185.0 294.0 197.25 305.75Q209.5 317.5 217.0 327.25Q224.5 337.0 224.5 342.0Q224.5 345.5 222.5 347.0H221.0Q219.0 347.0 213.0 342.5Q207.0 338.0 201.5 331.5Q195.0 324.5 178.75 310.5Q162.5 296.5 143.5 284.0Q128.0 273.5 117.5 267.5Q107.0 261.5 98.75 258.5Q90.5 255.5 81.25 254.25Q72.0 253.0 58.5 252.0L10.0 248.5L44.0 224.0Q56.5 214.5 75.5 198.0Q94.5 181.5 115.75 162.25Q137.0 143.0 156.75 124.5Q176.5 106.0 191.0 91.75Q205.5 77.5 210.5 71.0ZM404.5 11.5Q405.5 10.0 407.5 10.0Q413.0 10.0 419.5 20.5Q427.5 36.0 450.25 48.25Q473.0 60.5 505.5 67.5Q538.0 74.5 575.0 74.5Q603.0 74.5 615.75 76.25Q628.5 78.0 628.5 81.0Q628.5 84.5 607.25 87.5Q586.0 90.5 547.0 91.5Q520.5 92.0 504.0 92.75Q487.5 93.5 476.75 95.0Q466.0 96.5 458.5 99.0Q451.0 101.5 442.5 106.0Q417.0 118.5 417.0 127.5Q417.0 134.5 429.75 140.25Q442.5 146.0 462.0 150.25Q481.5 154.5 502.5 157.25Q523.5 160.0 540.75 161.5Q558.0 163.0 565.0 163.0Q581.0 163.0 592.0 165.25Q603.0 167.5 603.0 171.0Q603.0 174.5 583.5 176.25Q564.0 178.0 529.0 178.0H514.5Q421.0 178.0 421.0 194.5Q421.0 199.0 436.25 204.25Q451.5 209.5 477.5 214.0Q503.5 218.5 536.5 222.0Q564.5 224.5 582.5 228.75Q600.5 233.0 599.5 234.5Q597.0 235.5 587.5 236.25Q578.0 237.0 564.5 237.0Q558.5 237.0 552.0 237.0Q545.5 237.0 538.5 236.5H532.5Q507.5 236.5 484.25 238.25Q461.0 240.0 444.5 243.5Q428.0 247.0 422.5 251.5Q422.0 251.5 421.75 252.0Q421.5 252.5 421.5 252.5Q421.5 259.0 436.75 268.75Q452.0 278.5 473.0 285.0Q484.0 289.5 507.0 292.75Q530.0 296.0 552.0 297.5Q574.5 298.0 591.25 300.75Q608.0 303.5 608.0 307.0Q608.0 309.5 588.75 311.75Q569.5 314.0 541.5 314.0Q487.0 314.0 457.25 320.75Q427.5 327.5 416.0 342.0Q405.0 354.5 401.0 354.5Q395.0 354.5 395.0 337.0V324.0H360.0Q331.0 324.0 312.25 327.5Q293.5 331.0 281.75 339.75Q270.0 348.5 261.0 363.5Q259.5 366.5 257.0 366.5Q251.5 366.5 251.5 341.0Q251.5 335.5 251.5 329.0Q251.5 322.5 252.0 314.5L253.0 289.5Q253.0 285.0 253.25 280.5Q253.5 276.0 253.5 272.5Q254.5 260.0 254.75 250.5Q255.0 241.0 255.0 236.5V177.0Q255.0 174.5 255.0 171.75Q255.0 169.0 254.5 166.0V156.0Q254.0 150.0 253.75 143.25Q253.5 136.5 253.5 130.0Q253.5 115.5 254.5 97.25Q255.5 79.0 257.25 61.75Q259.0 44.5 260.5 33.5Q262.0 22.5 263.5 22.5Q269.0 22.5 269.0 32.0Q269.0 36.0 276.25 43.5Q283.5 51.0 294.25 59.0Q305.0 67.0 315.5 72.5Q323.5 76.0 339.75 79.75Q356.0 83.5 371.5 84.5L406.5 86.5L403.0 52.0Q402.5 45.5 402.25 39.25Q402.0 33.0 402.0 28.0Q402.0 22.0 402.5 17.75Q403.0 13.5 404.5 11.5Z" fill="black" /></svg>