<svg xmlns="http://www.w3.org/2000/svg" width="792.5" height="417.0" viewBox="0 0 792.5 417.0"><path d="M51.0 294.5Q50.5 294.5 48.5 293.5Q48.0 291.5 45.5 291.5L41.0 287.0L38.0 285.5L30.5 279.5V291.5Q30.5 297.0 31.25 301.75Q32.0 306.5 32.5 307.5Q36.0 306.5 43.0 301.75Q50.0 297.0 51.0 294.5ZM60.0 152.0Q61.5 150.0 63.0 148.25Q64.5 146.5 64.5 146.5H43.0Q44.0 147.5 45.0 148.25Q46.0 149.0 46.5 150.0Q47.5 151.5 48.25 152.5Q49.0 153.5 49.5 154.5Q50.5 156.0 51.5 157.5Q52.5 159.0 53.0 160.0Q54.0 159.0 56.0 156.75Q58.0 154.5 60.0 152.0ZM253.5 269.5 251.0 252.0Q249.5 243.5 249.5 238.5Q249.0 236.0 249.0 234.5Q249.0 233.0 249.0 232.5Q248.0 233.0 245.75 235.25Q243.5 237.5 241.5 240.0Q240.0 241.0 236.25 245.0Q232.5 249.0 229.25 253.0Q226.0 257.0 225.5 258.5Q227.0 261.0 240.0 265.0ZM129.5 126.5Q127.5 123.5 125.25 122.25Q123.0 121.0 122.0 120.5Q119.0 121.5 119.0 130.0Q119.0 133.0 119.25 135.25Q119.5 137.5 119.5 137.5Q120.5 137.0 122.0 136.5Q123.5 136.0 125.0 135.0L128.0 133.0Q131.0 129.0 131.0 129.0Q131.0 128.0 129.5 126.5ZM308.0 112.0Q309.0 111.0 309.0 110.5Q301.5 115.0 291.25 121.75Q281.0 128.5 273.5 134.25Q266.0 140.0 266.0 142.0Q266.0 144.5 275.0 147.0L278.0 148.5Q279.0 149.0 280.5 149.25Q282.0 149.5 283.0 149.5Q287.0 149.5 291.5 138.5Q294.0 132.0 299.0 124.0Q304.0 116.0 308.0 112.0ZM370.0 214.0Q370.0 213.0 369.5 211.5Q369.0 210.0 369.0 210.0Q367.5 210.0 367.0 210.5Q366.5 211.0 365.25 211.0Q364.0 211.0 363.5 211.5Q363.0 211.5 362.0 212.0Q361.0 212.5 360.5 212.5Q346.5 215.5 346.5 218.5Q346.5 218.5 349.0 218.75Q351.5 219.0 355.5 219.0Q370.0 219.0 370.0 214.0ZM364.5 198.5Q369.5 197.5 374.5 190.5Q379.5 183.5 383.5 174.75Q387.5 166.0 388.5 161.0Q384.5 165.0 378.75 173.25Q373.0 181.5 368.75 188.75Q364.5 196.0 364.5 198.0ZM400.5 209.5Q404.5 205.5 404.5 204.0Q399.5 204.0 392.75 208.0Q386.0 212.0 386.0 218.0Q386.0 219.0 387.5 219.0Q391.5 219.0 395.25 216.25Q399.0 213.5 400.5 209.5ZM442.5 209.5V206.5Q442.5 199.0 439.0 199.0Q435.5 199.0 429.25 204.0Q423.0 209.0 418.0 214.75Q413.0 220.5 413.0 223.0Q413.0 223.0 414.25 223.0Q415.5 223.0 416.5 223.5Q418.5 223.0 421.5 223.0Q424.5 223.0 426.5 223.0Q434.5 222.5 437.75 219.25Q441.0 216.0 442.5 209.5ZM455.5 171.0Q456.0 169.0 457.0 166.0Q456.5 167.0 455.5 168.25Q454.5 169.5 453.5 171.0Q452.5 173.0 452.0 174.5Q451.5 176.0 451.0 177.5Q452.5 177.0 455.5 171.0ZM474.5 193.0 476.0 191.0Q477.0 189.0 477.0 189.0Q476.5 188.5 475.0 188.5Q466.5 188.5 462.75 196.5Q459.0 204.5 459.0 211.5Q462.5 210.5 467.75 203.25Q473.0 196.0 474.5 193.0ZM511.5 202.0V197.0Q512.0 194.5 512.0 191.0Q512.0 183.0 509.5 183.0Q506.5 183.0 500.25 189.0Q494.0 195.0 488.75 202.25Q483.5 209.5 483.5 213.0Q483.5 217.0 500.5 221.0H501.5Q508.0 221.0 511.5 202.0ZM523.5 157.5 526.5 152.5Q526.5 152.0 526.75 152.0Q527.0 152.0 527.0 151.5Q526.0 153.0 525.25 154.5Q524.5 156.0 523.5 157.5ZM314.5 47.5Q312.5 45.5 309.75 44.25Q307.0 43.0 304.5 41.5Q301.5 40.0 300.0 38.5Q298.5 37.0 298.0 36.5Q296.0 38.5 292.0 45.5Q288.0 52.5 284.25 60.25Q280.5 68.0 278.5 72.5Q287.5 72.0 299.75 71.25Q312.0 70.5 324.0 69.5Q336.0 68.5 343.5 66.5Q343.5 66.5 343.25 66.25Q343.0 66.0 342.5 66.0Q339.0 64.0 330.5 58.25Q322.0 52.5 314.5 47.5ZM419.5 89.0H408.0Q401.0 89.0 390.5 88.0Q380.0 87.0 372.0 85.5Q370.0 85.0 368.0 85.0Q366.0 85.0 364.5 85.0Q357.0 85.0 347.25 93.25Q337.5 101.5 328.75 113.25Q320.0 125.0 314.25 137.0Q308.5 149.0 308.5 156.5Q308.5 161.5 312.0 169.25Q315.5 177.0 320.5 185.0Q325.5 193.0 330.25 198.5Q335.0 204.0 337.5 204.0Q338.5 204.0 344.5 196.25Q350.5 188.5 359.75 176.0Q369.0 163.5 379.5 149.0Q390.0 134.5 399.25 121.25Q408.5 108.0 414.5 98.5ZM481.5 99.5Q473.5 97.0 463.75 95.25Q454.0 93.5 445.5 93.5Q440.5 93.5 437.25 97.5Q434.0 101.5 428.5 112.0Q424.5 118.5 419.25 129.75Q414.0 141.0 409.0 152.75Q404.0 164.5 400.5 174.0Q397.0 183.5 396.0 187.5Q397.0 187.5 397.75 187.5Q398.5 187.5 400.0 187.5Q400.5 187.5 401.75 187.5Q403.0 187.5 403.5 187.0H408.0Q413.0 186.0 421.25 178.5Q429.5 171.0 439.0 159.75Q448.5 148.5 457.5 136.5Q466.5 124.5 473.0 114.5Q479.5 104.5 481.5 99.5ZM540.0 106.5Q538.5 106.0 535.75 105.25Q533.0 104.5 529.5 104.0Q527.5 104.0 525.75 103.75Q524.0 103.5 523.0 103.0Q521.0 102.5 518.75 102.5Q516.5 102.5 515.5 102.5Q504.5 102.5 497.75 112.0Q491.0 121.5 480.0 149.0L471.5 172.0L480.5 170.5Q485.5 170.0 494.5 162.25Q503.5 154.5 513.25 143.25Q523.0 132.0 530.5 121.75Q538.0 111.5 540.0 106.5ZM630.0 117.5Q625.0 117.0 619.0 116.5Q613.0 116.0 607.5 115.0Q602.5 114.5 597.5 114.0Q592.5 113.5 588.5 113.0L585.0 112.5Q571.0 109.5 567.0 109.5Q565.0 109.5 561.25 115.0Q557.5 120.5 553.75 128.25Q550.0 136.0 547.25 143.5Q544.5 151.0 544.0 155.0Q550.0 154.5 564.25 152.25Q578.5 150.0 596.75 146.5Q615.0 143.0 634.0 139.0Q653.0 135.0 669.0 131.5Q685.0 128.0 694.0 125.5Q686.0 124.5 668.25 122.5Q650.5 120.5 630.0 117.5ZM254.5 327.5Q245.5 326.5 235.25 321.25Q225.0 316.0 218.5 311.5L208.0 305.0V325.5Q208.0 335.5 209.25 347.75Q210.5 360.0 211.5 366.5L214.5 378.5L249.5 360.0Q263.0 353.0 276.5 347.25Q290.0 341.5 298.0 339.5Q287.5 337.5 274.5 333.5Q261.5 329.5 254.5 327.5ZM426.5 247.0Q421.5 244.0 415.75 242.5Q410.0 241.0 405.0 241.0Q396.5 241.0 393.5 244.5Q392.5 245.5 392.5 248.0Q392.5 253.0 398.0 264.25Q403.5 275.5 416.0 292.0L434.5 318.5L453.5 315.5Q457.5 315.0 466.5 313.25Q475.5 311.5 479.0 311.0Q478.0 308.0 471.5 299.25Q465.0 290.5 456.25 279.75Q447.5 269.0 439.25 259.75Q431.0 250.5 426.5 247.0ZM524.5 269.5Q513.5 256.0 507.25 250.0Q501.0 244.0 496.0 242.5Q491.0 241.0 482.5 241.0Q472.0 241.0 465.5 243.25Q459.0 245.5 459.0 248.0Q459.0 249.0 462.5 251.0Q468.5 255.5 468.5 261.5V263.0Q468.5 269.0 481.0 286.5Q489.5 299.0 493.75 302.75Q498.0 306.5 507.5 306.5Q510.0 306.5 513.25 306.5Q516.5 306.5 520.5 306.0Q530.0 306.0 537.5 304.5Q545.0 303.0 545.5 301.5Q545.0 298.0 538.75 288.75Q532.5 279.5 524.5 269.5ZM273.0 46.5Q281.0 32.0 288.75 21.25Q296.5 10.5 298.5 10.0Q300.0 10.0 304.25 14.5Q308.5 19.0 312.5 24.5Q319.0 32.0 329.0 38.75Q339.0 45.5 348.75 49.5Q358.5 53.5 364.5 53.5Q370.0 53.5 370.0 50.0Q370.0 41.5 378.0 41.5Q384.0 41.5 384.0 49.5Q384.0 51.0 384.0 52.5Q384.0 54.0 383.5 55.5L383.0 57.0Q382.5 57.5 382.5 60.0Q382.5 61.5 388.25 63.25Q394.0 65.0 411.5 68.0Q429.0 71.0 464.0 77.5Q470.5 79.5 475.0 80.0Q479.5 80.5 483.0 80.5Q487.0 80.5 489.25 79.25Q491.5 78.0 492.5 76.5Q499.5 68.0 504.5 68.0Q511.0 68.0 511.0 78.0Q511.0 89.0 540.5 89.0Q549.0 89.0 552.75 86.25Q556.5 83.5 560.0 75.5Q562.5 67.0 566.25 62.25Q570.0 57.5 572.0 57.5Q579.0 57.5 579.0 68.0Q579.0 72.0 577.25 77.75Q575.5 83.5 573.0 89.0Q571.5 91.0 571.5 94.0Q577.0 94.5 591.75 96.25Q606.5 98.0 625.75 100.5Q645.0 103.0 664.5 105.5Q684.0 108.0 699.5 110.25Q715.0 112.5 721.5 113.5Q741.5 116.0 741.5 122.0Q741.5 127.5 716.5 135.25Q691.5 143.0 638.0 154.5Q612.0 160.0 589.25 165.25Q566.5 170.5 552.0 173.75Q537.5 177.0 535.0 178.0Q533.0 179.5 531.0 187.0Q529.0 194.5 527.5 203.0L525.5 224.5H650.5Q714.0 224.5 748.25 226.5Q782.5 228.5 782.5 232.5Q782.5 236.0 749.25 238.5Q716.0 241.0 655.0 241.0H533.5L536.0 249.0Q537.0 255.5 546.5 270.0Q556.0 284.5 568.0 299.0Q579.0 299.0 589.75 298.0Q600.5 297.0 611.5 295.0Q623.0 293.5 632.75 292.5Q642.5 291.5 649.0 291.5Q652.5 291.5 655.5 292.0Q658.5 292.5 659.5 294.5Q659.5 295.0 659.75 295.25Q660.0 295.5 660.0 295.5V297.0Q660.0 301.5 650.0 304.75Q640.0 308.0 616.0 311.5Q593.0 314.0 584.75 315.75Q576.5 317.5 576.5 319.5Q576.5 322.0 579.5 324.5Q582.0 330.0 583.25 333.25Q584.5 336.5 584.5 339.0Q584.5 345.5 576.5 345.5Q574.0 345.5 569.75 340.5Q565.5 335.5 563.5 329.5Q559.0 319.5 555.0 319.5Q552.5 319.5 551.0 321.5H548.5Q543.5 322.0 535.25 323.0Q527.0 324.0 520.5 324.0Q513.5 324.0 510.75 324.5Q508.0 325.0 508.0 328.0Q508.0 330.0 508.0 332.5Q508.0 335.0 508.5 337.5L509.5 342.5Q510.0 345.0 510.5 347.0Q511.0 349.0 511.0 350.0Q511.0 354.5 507.5 354.5Q505.5 354.5 504.0 352.75Q502.5 351.0 501.0 350.0L499.0 347.5Q494.5 342.5 492.25 337.75Q490.0 333.0 490.0 330.5Q490.0 330.0 484.5 329.75Q479.0 329.5 472.0 329.5Q469.0 329.5 461.75 329.75Q454.5 330.0 448.25 332.0Q442.0 334.0 441.0 338.5L441.5 339.5V342.0Q442.5 343.0 442.5 344.25Q442.5 345.5 442.5 346.5Q442.5 355.0 436.0 355.0Q428.5 355.0 424.5 343.0Q424.0 340.0 420.75 338.25Q417.5 336.5 410.5 336.5Q407.0 336.5 399.0 337.25Q391.0 338.0 382.5 339.0Q374.0 340.0 369.0 341.5Q371.5 343.5 377.0 347.5Q382.5 351.5 389.0 356.5Q400.5 364.5 407.75 372.5Q415.0 380.5 415.0 384.0V385.5Q413.0 387.5 410.5 387.5Q407.5 387.5 398.0 382.5Q388.5 377.5 378.0 369.5L350.5 348.0L313.5 355.0Q297.0 357.5 282.25 362.75Q267.5 368.0 259.0 374.0Q250.0 379.0 242.5 383.0Q235.0 387.0 233.0 387.0Q230.5 387.0 219.5 398.0Q209.5 407.0 203.5 407.0H201.5Q199.5 404.5 198.0 392.25Q196.5 380.0 194.5 362.0V358.0L190.5 305.0L127.0 307.0Q99.0 307.5 84.0 309.0Q69.0 310.5 60.75 313.5Q52.5 316.5 44.0 321.5Q35.5 326.5 28.25 330.5Q21.0 334.5 20.0 334.5Q17.5 334.5 16.25 320.75Q15.0 307.0 15.0 287.5Q15.0 241.0 25.0 241.0Q26.5 241.0 29.5 243.25Q32.5 245.5 34.5 249.5Q36.5 237.0 37.75 224.5Q39.0 212.0 39.0 199.5Q38.5 183.5 35.0 171.25Q31.5 159.0 25.5 148.5L10.0 130.5H56.5Q101.5 130.5 101.5 140.5Q101.5 146.0 89.5 152.5Q77.5 158.5 70.25 167.5Q63.0 176.5 59.25 191.5Q55.5 206.5 53.0 230.5L50.0 276.0L70.0 283.5Q81.5 288.5 98.5 290.25Q115.5 292.0 133.0 292.0Q155.0 292.0 171.25 289.5Q187.5 287.0 188.0 282.5L187.5 280.0Q187.0 278.5 187.0 277.5Q187.0 271.5 191.5 271.5Q200.0 271.5 213.5 286.0Q218.0 291.5 228.0 297.75Q238.0 304.0 246.5 307.5Q253.5 311.0 265.75 314.75Q278.0 318.5 290.75 320.75Q303.5 323.0 311.0 323.0Q308.0 320.0 297.0 313.5Q286.0 307.0 271.25 299.25Q256.5 291.5 242.25 284.5Q228.0 277.5 218.5 273.5Q190.0 264.0 190.0 259.0Q190.0 257.0 192.75 254.75Q195.5 252.5 199.0 250.5Q209.0 245.0 220.75 234.75Q232.5 224.5 241.0 214.5Q249.5 204.5 249.5 199.5Q249.5 194.5 252.5 191.0Q255.5 187.5 258.0 187.5Q262.0 187.5 264.0 197.75Q266.0 208.0 266.0 222.5Q266.0 237.5 269.0 251.25Q272.0 265.0 276.75 273.5Q281.5 282.0 286.0 282.0Q290.5 282.0 293.5 284.75Q296.5 287.5 299.0 291.5Q299.5 293.5 307.25 300.25Q315.0 307.0 324.5 313.5Q336.0 320.0 343.5 323.25Q351.0 326.5 359.5 326.5Q364.0 326.5 375.25 325.25Q386.5 324.0 397.25 322.0Q408.0 320.0 410.0 317.5Q410.0 311.5 399.25 296.5Q388.5 281.5 371.0 263.0Q364.5 254.0 355.75 249.25Q347.0 244.5 335.5 242.5Q324.5 240.5 318.5 238.25Q312.5 236.0 312.5 231.5Q312.5 228.0 316.5 223.0Q315.5 223.0 313.5 223.0Q311.5 223.0 310.5 223.5Q308.5 224.0 306.75 224.25Q305.0 224.5 303.0 224.5Q291.0 224.5 291.0 218.0Q291.0 214.5 296.25 211.75Q301.5 209.0 308.0 208.5L316.0 207.0L300.0 189.5Q291.5 179.0 283.0 172.75Q274.5 166.5 263.25 162.0Q252.0 157.5 234.5 154.0H233.0Q226.5 151.5 223.25 150.25Q220.0 149.0 220.0 146.5Q220.0 144.5 224.0 141.5H207.5Q203.0 141.5 197.75 141.5Q192.5 141.5 185.5 142.0Q164.5 142.5 153.75 143.75Q143.0 145.0 138.25 147.5Q133.5 150.0 129.5 155.0Q124.5 160.0 120.0 163.5Q115.5 167.0 113.0 167.0Q103.5 167.0 103.5 142.0Q103.5 137.5 104.0 127.25Q104.5 117.0 105.5 106.0Q106.5 95.0 109.0 86.75Q111.5 78.5 115.0 78.0Q118.0 78.0 121.25 83.0Q124.5 88.0 128.0 96.5Q135.0 112.0 151.5 118.5Q168.0 125.0 206.5 126.0H255.5L289.5 105.0Q300.0 98.0 308.5 93.0Q317.0 88.0 320.5 86.0Q319.0 86.0 317.0 86.25Q315.0 86.5 312.5 86.5Q308.0 88.0 300.0 88.0Q292.0 89.0 283.5 90.0Q275.0 91.0 266.5 91.0Q258.5 91.0 254.5 89.0Q254.0 88.0 254.0 85.0Q254.0 80.0 259.5 69.5Q265.0 59.0 273.0 46.5Z" fill="black" /></svg>