<svg xmlns="http://www.w3.org/2000/svg" width="466.0" height="387.5" viewBox="0 0 466.0 387.5"><path d="M50.5 254.0 45.0 250.5Q41.5 248.0 36.25 243.75Q31.0 239.5 28.0 236.0L24.0 231.5V275.0ZM73.0 148.5H65.0Q57.0 148.5 57.0 149.5Q57.0 151.5 61.5 158.5L64.0 164.0L70.0 154.0Q71.5 151.5 72.25 150.0Q73.0 148.5 73.0 148.5ZM98.5 169.5V169.0Q92.0 154.5 89.5 154.5Q86.5 154.5 82.0 161.0Q78.0 166.5 76.5 175.0Q75.0 183.5 75.0 207.0V242.0H106.0V214.0Q106.0 196.0 104.25 186.5Q102.5 177.0 98.5 169.5ZM117.0 151.0Q118.5 149.5 118.5 148.5H101.5L105.5 156.0Q109.0 163.5 109.5 163.5Q110.0 163.5 117.0 151.0ZM239.0 262.5Q234.0 259.0 226.0 250.5Q218.0 242.0 210.25 233.25Q202.5 224.5 198.5 219.5Q198.0 218.5 197.75 217.75Q197.5 217.0 197.5 217.0Q196.0 218.0 189.5 230.0Q185.0 237.0 180.25 244.5Q175.5 252.0 173.0 255.0Q171.5 256.5 170.5 259.5Q176.0 259.5 189.5 260.25Q203.0 261.0 217.0 261.75Q231.0 262.5 237.5 262.5Q238.0 262.5 238.25 262.5Q238.5 262.5 239.0 262.5ZM141.5 100.0Q134.0 99.0 122.25 95.25Q110.5 91.5 100.5 87.5L82.5 78.0V128.0L92.0 124.0Q97.5 121.5 109.5 117.5Q121.5 113.5 132.5 110.0Q142.5 107.0 149.25 104.75Q156.0 102.5 156.0 102.5Q155.0 102.0 153.25 102.0Q151.5 102.0 149.0 101.5ZM162.0 248.0Q166.0 242.5 170.25 235.5Q174.5 228.5 179.0 221.5L199.5 186.5L207.0 205.0Q209.5 210.5 213.5 217.0Q217.5 223.5 220.0 227.5L222.5 230.5V187.0Q222.5 163.0 221.0 143.75Q219.5 124.5 217.0 113.0Q214.5 101.5 211.0 101.5Q206.0 101.5 192.75 104.5Q179.5 107.5 163.25 112.25Q147.0 117.0 131.75 121.75Q116.5 126.5 106.5 130.5Q96.5 134.5 96.5 136.0H117.5Q128.5 136.0 136.0 137.5Q143.5 139.0 143.5 141.0Q143.5 142.0 140.5 145.75Q137.5 149.5 133.5 152.5Q126.5 158.5 122.5 170.5Q118.5 182.5 118.5 202.0Q118.5 203.0 118.5 204.5Q118.5 206.0 119.0 207.0V214.0L120.0 240.5L139.0 241.5Q148.0 242.0 154.75 243.75Q161.5 245.5 162.0 248.0ZM284.0 107.0Q284.0 103.5 280.5 102.5Q277.0 101.5 262.0 101.5Q252.5 101.5 245.0 102.0Q237.5 102.5 236.0 103.5Q235.5 105.5 235.0 125.75Q234.5 146.0 234.5 174.0V242.5L243.5 249.0Q247.5 252.0 254.5 255.75Q261.5 259.5 267.0 262.0L277.0 266.0L276.0 220.0Q275.5 197.5 274.5 185.75Q273.5 174.0 270.5 165.0Q267.5 156.0 261.0 142.5Q258.5 136.0 255.0 130.0Q254.0 127.5 253.0 125.25Q252.0 123.0 251.0 121.0Q247.5 113.0 247.5 112.0Q247.5 109.0 254.5 109.0Q257.0 109.0 261.0 109.0Q265.0 109.0 269.0 110.0Q272.5 110.5 275.5 110.75Q278.5 111.0 280.5 111.0Q284.0 111.0 284.0 107.0ZM218.0 82.5 223.5 95.5 237.5 66.0 225.0 64.5H217.5Q215.0 64.5 212.75 64.5Q210.5 64.5 209.5 64.0Q210.5 66.0 212.5 71.25Q214.5 76.5 218.0 82.5ZM280.0 89.5Q280.0 88.0 274.75 82.25Q269.5 76.5 263.75 71.0Q258.0 65.5 257.0 65.5Q255.0 65.5 250.0 72.0Q245.0 78.5 242.0 85.5Q240.0 87.5 240.0 89.5Q240.0 90.0 244.0 90.0Q248.0 90.0 259.0 90.0Q267.5 90.0 273.75 89.75Q280.0 89.5 280.0 89.5ZM289.5 129.5 293.5 124.0 281.0 123.0H273.5Q272.5 122.5 271.25 122.5Q270.0 122.5 269.0 122.5H265.5Q267.0 127.5 273.5 138.5Q276.0 143.5 277.5 146.75Q279.0 150.0 279.5 151.5Q279.5 151.0 279.5 151.0Q279.5 151.0 279.5 150.5L280.0 149.0Q283.0 138.5 289.5 129.5ZM387.5 116.5 382.0 98.0 351.0 98.5Q337.0 98.5 324.5 99.5Q312.0 100.5 307.0 101.5Q298.0 103.0 298.0 107.0Q298.0 109.0 303.0 109.0H304.0Q314.0 109.0 314.0 116.0Q314.0 122.0 307.0 128.5Q304.0 131.0 302.0 135.25Q300.0 139.5 300.0 145.0Q300.0 159.5 292.0 159.5Q291.0 159.5 290.25 163.5Q289.5 167.5 289.25 179.0Q289.0 190.5 289.0 213.5Q289.0 243.0 289.75 256.0Q290.5 269.0 292.5 270.5Q294.5 271.5 311.5 278.5Q328.5 285.5 350.0 294.0L400.0 312.0V244.5Q400.0 217.5 399.5 199.25Q399.0 181.0 397.75 167.5Q396.5 154.0 394.0 142.0Q391.5 130.0 387.5 116.5ZM302.0 58.0H269.5L287.5 77.0L296.0 65.5Q302.0 58.5 302.0 58.0ZM432.5 29.0H388.0Q372.0 29.0 372.0 32.0Q372.0 34.0 373.75 37.75Q375.5 41.5 377.5 47.0L378.5 49.0Q384.0 60.5 388.25 73.25Q392.5 86.0 395.5 98.5Q396.5 102.0 397.5 105.5Q398.5 109.0 399.5 111.5Q400.5 115.0 401.0 117.5Q401.5 101.5 407.5 84.0Q413.5 66.5 420.0 53.0Q425.5 43.0 429.0 36.0Q432.5 29.0 432.5 29.0ZM349.5 14.0Q349.5 10.0 354.5 10.0Q356.0 10.0 357.0 10.5Q358.5 10.5 359.5 11.0Q367.0 14.5 379.0 16.5Q391.0 18.5 405.0 18.5Q410.0 18.5 415.25 18.25Q420.5 18.0 425.5 17.5L427.5 17.0Q431.5 17.0 435.5 16.75Q439.5 16.5 442.0 16.5Q456.0 16.5 456.0 22.5Q456.0 29.0 449.5 29.0Q447.5 29.0 443.5 36.0Q439.5 43.0 434.5 53.25Q429.5 63.5 425.0 74.5Q420.5 85.5 418.0 94.0Q416.0 102.5 414.5 116.25Q413.0 130.0 412.5 153.5Q412.0 177.0 412.0 216.5V315.0L422.5 320.0Q427.5 322.5 431.0 325.75Q434.5 329.0 434.5 330.0Q434.5 333.0 429.5 333.0Q426.5 333.0 420.5 332.0L412.0 330.5V351.0Q412.0 377.5 406.0 377.5Q400.5 377.5 399.0 349.5L398.5 324.5L350.0 306.0Q329.0 297.5 311.75 292.0Q294.5 286.5 290.5 286.0Q286.5 286.0 281.75 284.25Q277.0 282.5 274.5 280.5Q272.5 278.0 261.0 276.0Q249.5 274.0 233.25 273.0Q217.0 272.0 199.5 272.0Q194.5 272.0 189.5 272.0Q184.5 272.0 179.5 272.5Q173.5 273.0 167.5 273.25Q161.5 273.5 157.5 273.5Q146.0 273.5 146.0 270.5Q146.0 269.5 148.25 266.0Q150.5 262.5 153.5 259.5Q154.5 258.5 156.25 256.25Q158.0 254.0 160.0 251.0Q156.0 253.0 146.0 254.0Q136.0 255.0 120.5 255.0Q115.0 255.0 108.25 255.0Q101.5 255.0 94.5 254.5H92.0Q62.0 254.5 29.5 287.5Q18.0 300.0 12.5 300.0H12.0L11.0 300.5Q10.5 299.0 10.25 295.25Q10.0 291.5 10.0 285.5Q10.0 276.0 10.75 262.0Q11.5 248.0 12.75 234.25Q14.0 220.5 15.5 211.25Q17.0 202.0 18.0 202.0Q24.0 202.0 24.0 208.0Q24.0 213.5 31.0 221.5Q38.0 229.5 47.0 235.75Q56.0 242.0 61.5 242.0Q62.0 242.0 62.25 235.75Q62.5 229.5 62.5 221.5Q62.5 204.0 59.25 187.0Q56.0 170.0 45.0 156.0Q38.0 147.5 38.0 143.0Q38.0 136.0 54.0 136.0Q64.0 136.0 66.75 132.0Q69.5 128.0 69.5 111.0V83.0Q69.5 74.0 70.0 67.75Q70.5 61.5 71.5 61.0L73.0 60.5Q75.0 60.5 80.75 62.75Q86.5 65.0 93.0 69.0Q115.0 83.0 140.25 87.5Q165.5 92.0 191.5 92.0Q205.5 92.0 205.5 88.5Q205.5 84.0 199.0 74.5L198.5 73.0Q195.0 66.5 192.25 61.25Q189.5 56.0 189.5 54.5Q189.5 51.0 200.0 51.0Q203.5 51.0 208.25 51.25Q213.0 51.5 218.0 52.0Q222.0 52.5 225.25 52.5Q228.5 52.5 231.0 52.5H240.0Q240.0 46.5 288.0 46.5Q337.0 47.5 337.0 53.5Q337.0 57.5 328.0 60.5Q319.0 64.0 309.5 72.25Q300.0 80.5 300.0 85.5Q300.0 89.5 304.5 89.5Q306.5 89.5 309.0 89.25Q311.5 89.0 315.0 89.0L319.5 88.5Q329.0 87.5 341.5 86.75Q354.0 86.0 362.0 86.0Q371.5 86.0 374.75 85.75Q378.0 85.5 378.0 84.5Q378.0 84.0 377.75 83.25Q377.5 82.5 377.5 81.5L377.0 80.0Q376.5 76.0 372.0 65.5Q367.5 55.0 362.0 45.5L359.0 38.5Q358.0 36.0 357.0 33.5Q356.0 31.0 355.0 29.0Q353.0 23.0 351.25 18.75Q349.5 14.5 349.5 14.0Z" fill="black" /></svg>