<svg xmlns="http://www.w3.org/2000/svg" width="581.5" height="384.5" viewBox="0 0 581.5 384.5"><path d="M117.5 194.0Q96.0 188.0 85.75 185.75Q75.5 183.5 75.5 183.5Q76.0 188.0 76.0 192.25Q76.0 196.5 76.0 203.5V225.5L91.0 217.5Q96.0 214.5 104.75 210.75Q113.5 207.0 123.0 204.0Q132.5 201.0 139.5 200.5Q135.0 199.5 129.25 197.75Q123.5 196.0 117.5 194.0ZM321.5 171.5 327.0 161.5 322.5 165.0Q320.0 167.0 317.0 169.25Q314.0 171.5 311.5 174.0L290.5 191.5L299.0 193.5Q302.5 194.0 306.0 194.75Q309.5 195.5 311.5 195.5Q313.0 191.5 315.75 184.75Q318.5 178.0 321.5 171.5ZM416.0 161.0Q410.0 165.5 402.25 172.0Q394.5 178.5 388.25 184.25Q382.0 190.0 380.5 192.5H385.5L391.5 193.0Q394.5 193.0 397.75 193.5Q401.0 194.0 402.5 194.5Q404.0 191.5 407.0 181.0Q409.0 176.0 411.25 170.5Q413.5 165.0 416.0 161.0ZM506.0 157.5Q502.5 160.0 498.75 163.25Q495.0 166.5 490.5 170.5L468.5 188.0L475.0 189.5Q483.0 191.5 488.0 191.5Q491.0 191.5 492.25 189.0Q493.5 186.5 495.0 181.5L495.5 179.5Q496.5 175.0 499.5 168.75Q502.5 162.5 506.0 157.5ZM90.5 32.5Q87.0 32.0 79.25 31.75Q71.5 31.5 63.0 31.0Q50.5 30.0 42.5 29.75Q34.5 29.5 34.5 29.5L44.0 51.0Q47.0 57.5 51.0 69.0Q55.0 80.5 57.0 89.0Q59.5 98.5 60.5 102.5Q61.5 106.5 61.5 106.5Q65.5 86.0 72.0 67.75Q78.5 49.5 90.5 32.5ZM11.5 13.5V14.0Q12.0 12.0 15.0 11.0Q18.0 10.0 20.0 10.0Q21.5 10.0 24.0 10.25Q26.5 10.5 28.0 11.5Q33.5 12.0 47.5 13.0Q61.5 14.0 75.5 14.0Q91.5 14.0 103.5 15.25Q115.5 16.5 115.5 20.5Q115.5 22.5 111.75 28.75Q108.0 35.0 103.5 40.5Q92.5 56.5 84.5 79.75Q76.5 103.0 75.5 130.5L74.0 163.0L94.5 170.0Q128.5 181.5 155.5 187.75Q182.5 194.0 211.5 194.0Q227.5 194.0 240.25 195.25Q253.0 196.5 255.0 197.5Q256.5 199.5 256.5 202.0Q256.5 207.5 249.5 207.5Q202.0 209.0 171.0 212.75Q140.0 216.5 119.75 223.0Q99.5 229.5 83.5 241.0L74.5 248.5L76.0 309.0V323.5Q76.0 374.5 68.0 374.5Q64.0 374.5 61.5 347.0Q59.0 319.5 58.0 275.0L53.5 156.5Q52.5 145.5 49.25 129.75Q46.0 114.0 41.25 96.5Q36.5 79.0 31.25 63.5Q26.0 48.0 21.5 37.5Q17.0 27.0 13.5 25.0Q10.0 20.5 10.0 17.5Q10.0 15.5 11.5 13.5ZM535.5 110.5Q548.0 99.0 555.5 93.75Q563.0 88.5 566.5 88.5Q571.5 88.5 571.5 94.0Q571.5 95.0 566.25 102.25Q561.0 109.5 554.0 118.5Q531.5 145.0 520.75 163.0Q510.0 181.0 510.0 194.5Q510.0 208.5 525.0 226.0Q536.0 238.0 544.25 251.5Q552.5 265.0 552.5 270.0Q552.5 275.0 547.5 275.0Q544.0 275.0 540.5 271.75Q537.0 268.5 534.0 264.0Q531.5 258.5 525.0 250.25Q518.5 242.0 510.25 233.5Q502.0 225.0 494.25 218.25Q486.5 211.5 481.5 209.5Q477.5 207.0 468.0 205.0Q458.5 203.0 451.5 203.0H422.0V203.5Q423.0 205.5 423.0 207.5Q425.5 212.5 429.25 219.0Q433.0 225.5 438.5 231.0Q451.0 244.5 457.75 254.25Q464.5 264.0 464.5 268.5Q464.5 275.0 457.5 275.0Q454.0 275.0 450.75 271.75Q447.5 268.5 445.0 264.0Q444.5 261.5 436.0 251.75Q427.5 242.0 417.0 232.5Q401.0 218.0 392.0 212.75Q383.0 207.5 369.0 205.5L335.5 201.5Q335.5 205.0 331.5 208.0V209.5L331.0 210.5Q331.0 215.5 345.5 229.5Q357.5 242.0 365.75 254.5Q374.0 267.0 374.0 271.0Q374.0 275.0 370.0 275.0Q368.0 275.0 357.25 264.75Q346.5 254.5 332.0 240.0Q316.5 224.5 308.75 217.75Q301.0 211.0 295.75 209.25Q290.5 207.5 282.0 207.5Q257.0 207.5 257.0 199.0Q257.0 192.5 270.0 185.5Q274.5 183.0 284.75 175.25Q295.0 167.5 307.75 157.0Q320.5 146.5 333.5 135.5Q346.5 124.5 357.0 114.75Q367.5 105.0 372.5 99.5Q383.0 87.5 390.0 87.5Q394.0 87.5 394.0 92.0Q394.0 93.5 393.5 95.5Q393.0 97.5 390.5 100.5Q389.0 102.0 386.5 105.5Q384.0 109.0 380.0 114.5Q375.5 120.5 370.0 128.25Q364.5 136.0 358.5 143.5Q329.5 181.5 329.5 193.5V195.5Q335.5 197.5 335.5 201.0L359.5 185.5Q368.5 179.5 383.75 167.25Q399.0 155.0 415.25 141.25Q431.5 127.5 444.5 116.0Q457.5 104.5 462.0 99.5Q466.0 94.0 470.25 91.0Q474.5 88.0 477.5 87.5Q480.0 88.0 482.0 89.5Q484.0 91.0 484.0 95.0Q484.0 97.0 481.25 101.25Q478.5 105.5 474.5 110.0L469.0 117.5Q444.5 146.5 432.75 164.5Q421.0 182.5 421.0 196.5Q421.0 198.0 421.25 199.5Q421.5 201.0 421.5 202.0L440.5 189.5Q448.0 184.0 460.5 174.25Q473.0 164.5 487.0 152.75Q501.0 141.0 514.0 129.75Q527.0 118.5 535.5 110.5Z" fill="black" /></svg>