<svg xmlns="http://www.w3.org/2000/svg" width="715.5" height="461.5" viewBox="0 0 715.5 461.5"><path d="M342.0 210.5 329.0 204.0Q330.0 211.0 330.5 220.5Q331.0 230.0 331.0 237.0V254.5L342.0 247.5Q348.5 244.0 360.75 239.5Q373.0 235.0 381.5 232.0L388.5 230.5L382.5 228.0Q373.0 225.5 361.0 220.5Q349.0 215.5 342.0 210.5ZM161.5 60.5Q158.5 61.0 151.0 61.25Q143.5 61.5 133.5 61.5Q124.5 61.5 117.75 61.25Q111.0 61.0 107.0 60.5Q108.0 61.5 109.0 63.5Q110.0 66.5 112.0 70.0Q114.0 73.5 116.0 77.5Q117.5 81.0 120.25 85.25Q123.0 89.5 125.0 94.0Q128.5 101.5 131.75 111.25Q135.0 121.0 135.0 121.0L137.0 116.0Q138.0 109.5 142.75 99.0Q147.5 88.5 151.5 80.5Q160.0 65.5 161.5 60.5ZM268.5 118.5 293.0 60.0Q289.5 61.0 282.75 61.25Q276.0 61.5 267.5 61.5Q258.0 61.5 250.25 61.25Q242.5 61.0 239.5 60.5Q240.5 62.5 243.5 66.75Q246.5 71.0 250.0 76.5Q255.5 84.0 259.75 93.0Q264.0 102.0 266.0 107.5ZM652.5 79.5Q656.5 70.5 661.0 60.0Q665.5 49.5 669.0 42.0Q672.5 34.5 672.5 34.5Q670.5 34.5 667.5 34.75Q664.5 35.0 661.0 35.0Q655.5 35.5 649.0 35.5Q642.5 35.5 635.5 35.5Q620.0 35.5 609.75 35.0Q599.5 34.5 599.5 34.5Q609.5 48.5 619.25 67.75Q629.0 87.0 631.5 103.5L635.5 122.0Q637.5 114.5 641.0 107.5Q644.0 100.5 647.0 93.0Q650.0 85.5 652.5 79.5ZM188.5 390.5Q159.5 387.5 133.0 381.75Q106.5 376.0 78.5 366.0L42.0 353.5L40.5 385.5V393.5Q39.0 407.0 39.0 420.5Q44.5 419.5 52.25 418.0Q60.0 416.5 69.5 414.5Q84.0 410.5 106.75 405.25Q129.5 400.0 148.5 396.5Q168.5 392.5 177.25 391.5Q186.0 390.5 188.5 390.5ZM261.5 40.0Q275.0 39.5 286.5 39.0Q298.0 38.5 304.0 38.0H310.0Q311.0 38.0 311.25 37.75Q311.5 37.5 312.0 37.5L313.5 37.0Q321.5 37.0 321.5 46.0Q321.5 53.5 314.0 67.0Q310.0 73.5 303.0 90.5Q296.0 107.5 290.0 122.5Q286.0 135.5 283.25 146.25Q280.5 157.0 279.0 171.0Q277.5 185.0 277.0 206.25Q276.5 227.5 276.5 261.5Q276.5 291.0 276.25 314.75Q276.0 338.5 274.25 352.25Q272.5 366.0 268.5 366.0Q265.0 366.0 262.5 349.5Q260.0 333.0 259.0 305.0Q258.0 277.0 257.5 242.5Q257.0 206.5 256.0 182.25Q255.0 158.0 253.0 141.75Q251.0 125.5 247.5 114.25Q244.0 103.0 238.25 93.25Q232.5 83.5 224.0 72.0Q218.0 64.5 213.75 57.75Q209.5 51.0 209.5 49.5Q209.5 46.5 224.75 43.75Q240.0 41.0 261.5 40.0ZM658.5 15.5H660.5L695.5 10.0Q705.5 10.0 705.5 19.5Q705.5 26.5 698.5 30.5Q694.0 33.5 686.75 48.25Q679.5 63.0 671.25 84.0Q663.0 105.0 656.0 127.5Q652.0 141.5 649.25 154.75Q646.5 168.0 644.75 184.0Q643.0 200.0 641.75 222.0Q640.5 244.0 639.5 275.5Q637.5 328.0 636.75 351.0Q636.0 374.0 636.0 374.0H640.0Q645.0 374.0 648.5 376.75Q652.0 379.5 652.0 384.0Q652.0 387.5 649.75 390.0Q647.5 392.5 641.5 392.5H635.5V405.0Q635.5 413.5 633.75 419.5Q632.0 425.5 627.5 425.5Q623.0 425.5 620.25 419.5Q617.5 413.5 617.5 405.0V392.5L430.5 394.5Q380.0 395.0 344.5 395.75Q309.0 396.5 284.25 397.25Q259.5 398.0 241.75 399.5Q224.0 401.0 209.5 403.25Q195.0 405.5 179.5 409.0Q148.5 415.5 117.5 423.0Q86.5 430.5 63.25 437.25Q40.0 444.0 32.0 448.5Q28.5 449.5 25.75 450.5Q23.0 451.5 21.0 451.5Q10.0 451.5 10.0 441.0Q10.0 435.0 15.0 426.0Q17.5 419.0 19.75 404.25Q22.0 389.5 22.0 371.5Q22.0 352.5 24.0 339.5Q26.0 326.5 29.0 326.5Q29.0 326.5 41.0 330.75Q53.0 335.0 68.5 341.5Q83.5 348.0 97.5 352.25Q111.5 356.5 117.0 357.5H117.5L124.5 359.5L122.5 245.5Q122.0 200.5 120.5 172.5Q119.0 144.5 115.5 127.5Q112.0 110.5 106.0 98.25Q100.0 86.0 90.0 72.5Q84.0 65.5 80.5 58.75Q77.0 52.0 77.0 49.5L78.0 47.0Q79.0 45.5 88.0 44.5Q97.0 43.5 110.5 42.75Q124.0 42.0 138.25 41.75Q152.5 41.5 163.5 41.5Q175.0 41.5 181.5 42.75Q188.0 44.0 188.0 48.0Q188.0 49.0 186.25 52.0Q184.5 55.0 184.0 56.0L182.5 60.0Q181.0 62.5 179.5 66.0Q178.0 69.5 177.0 72.5Q166.5 92.5 160.0 109.0Q153.5 125.5 149.75 143.25Q146.0 161.0 144.75 184.25Q143.5 207.5 143.5 240.5V267.0L145.5 367.0L166.0 369.5Q172.0 370.0 193.5 371.0Q215.0 372.0 247.75 372.5Q280.5 373.0 321.0 373.5Q361.5 374.0 405.5 374.0H618.0L620.0 333.5Q620.0 329.5 620.0 324.75Q620.0 320.0 620.5 315.5Q620.5 310.5 620.75 306.0Q621.0 301.5 621.0 296.5Q621.0 286.0 621.0 276.25Q621.0 266.5 621.5 260.5L623.5 235.0L539.5 233.5H520.0Q490.5 233.5 468.25 234.75Q446.0 236.0 427.75 239.5Q409.5 243.0 392.5 249.25Q375.5 255.5 356.0 265.0Q341.5 271.5 330.25 276.25Q319.0 281.0 316.0 281.0Q312.0 281.0 310.75 264.75Q309.5 248.5 308.5 225.5Q308.5 203.0 310.25 187.0Q312.0 171.0 314.5 171.0Q316.0 171.0 320.75 173.5Q325.5 176.0 331.0 180.0L336.0 184.5Q348.0 193.5 360.25 199.25Q372.5 205.0 390.75 208.0Q409.0 211.0 438.25 212.25Q467.5 213.5 513.0 213.5H623.5L621.5 164.5Q621.0 124.5 611.5 97.5Q602.0 70.5 583.5 45.5Q577.5 38.0 573.25 30.75Q569.0 23.5 569.0 21.5Q569.0 18.5 574.0 17.0Q579.0 15.5 587.0 15.5Q591.0 15.5 595.5 15.5Q600.0 15.5 605.0 16.0Q609.5 17.0 615.0 17.25Q620.5 17.5 626.0 17.5Q634.5 17.5 643.25 16.75Q652.0 16.0 658.5 15.5Z" fill="black" /></svg>