<svg xmlns="http://www.w3.org/2000/svg" width="616.5" height="467.5" viewBox="0 0 616.5 467.5"><path d="M84.0 188.5Q78.5 186.5 69.25 181.25Q60.0 176.0 52.5 170.0L41.5 160.5V224.5L66.0 210.5Q76.0 204.0 83.75 198.75Q91.5 193.5 94.0 192.0Q92.5 191.0 89.75 190.0Q87.0 189.0 84.0 188.5ZM306.0 145.0 307.5 146.5Q305.0 142.5 302.25 139.5Q299.5 136.5 298.0 136.5Q294.0 136.5 289.75 144.25Q285.5 152.0 283.0 161.5Q280.5 171.0 280.0 176.5Q282.0 180.5 282.0 182.0Q282.0 187.5 276.5 192.5Q274.5 193.5 273.0 198.5Q271.5 203.5 271.0 215.25Q270.5 227.0 270.5 249.5V285.5L272.5 371.0L339.0 374.5V305.0Q339.0 274.5 337.75 256.0Q336.5 237.5 334.0 223.75Q331.5 210.0 327.0 194.5Q321.5 179.0 315.0 164.5Q308.5 150.0 306.0 145.0ZM248.0 129.0Q247.5 127.5 243.25 126.5Q239.0 125.5 233.5 125.5Q230.5 125.5 228.0 125.75Q225.5 126.0 225.5 126.5Q225.5 129.5 228.75 136.75Q232.0 144.0 236.75 152.5Q241.5 161.0 246.0 167.25Q250.5 173.5 252.5 174.5Q256.0 172.5 261.0 166.5Q263.5 162.0 268.5 154.25Q273.5 146.5 277.0 141.0Q279.5 135.5 281.25 132.25Q283.0 129.0 283.0 127.0Q283.0 126.5 281.0 126.5V126.0Q280.0 126.5 276.5 127.5Q273.0 128.5 269.5 129.5Q261.5 133.5 255.5 133.5Q249.5 133.5 248.0 129.0ZM372.0 122.5H337.0Q330.0 122.5 324.25 122.5Q318.5 122.5 315.5 123.5Q317.5 132.5 327.0 149.0Q331.5 161.5 335.5 172.25Q339.5 183.0 339.5 185.0Q339.5 189.5 341.5 189.5Q344.0 189.5 344.0 185.0Q344.0 181.5 348.5 171.25Q353.0 161.0 358.0 149.5Q363.5 140.5 367.5 132.75Q371.5 125.0 372.0 122.5ZM507.5 133.5 489.0 84.5 435.0 83.5H421.0Q393.5 83.5 368.5 87.75Q343.5 92.0 318.0 102.0H319.0Q319.5 102.5 320.0 102.5Q320.5 102.5 321.0 103.5Q324.5 105.0 330.25 105.5Q336.0 106.0 344.0 106.0Q349.5 106.0 355.75 105.75Q362.0 105.5 368.5 105.0Q375.5 104.0 381.25 103.75Q387.0 103.5 392.0 103.5Q405.0 103.5 405.0 108.0Q405.0 109.5 399.25 118.5Q393.5 127.5 385.5 137.5Q375.5 151.0 369.0 167.0Q362.5 183.0 359.75 205.5Q357.0 228.0 357.0 261.0Q357.0 265.0 357.0 269.25Q357.0 273.5 357.5 277.5V296.0L358.5 371.0H526.5V279.5Q526.5 245.5 526.0 224.75Q525.5 204.0 523.5 190.0Q521.5 176.0 517.75 163.5Q514.0 151.0 507.5 133.5ZM323.0 84.0 327.5 81.5Q327.5 80.5 321.0 77.25Q314.5 74.0 299.0 67.0L270.5 52.0L268.5 79.5Q268.0 83.5 268.0 87.0Q268.0 90.5 268.0 94.0V108.5Q270.5 108.0 276.75 104.75Q283.0 101.5 289.0 98.0Q294.0 96.5 298.5 94.0Q303.0 91.5 308.0 89.5Q313.5 88.0 317.25 86.25Q321.0 84.5 323.0 84.0ZM573.0 50.0H533.0Q516.5 51.5 504.5 52.25Q492.5 53.0 492.5 53.0Q492.5 54.5 495.5 61.75Q498.5 69.0 503.5 77.5Q508.5 87.0 514.25 102.0Q520.0 117.0 522.5 129.5L529.0 148.0L537.5 121.5Q541.5 106.5 548.75 91.0Q556.0 75.5 562.0 67.5L566.0 60.5Q569.0 55.5 571.0 52.75Q573.0 50.0 573.0 50.0ZM64.5 361.0Q57.0 358.5 51.0 354.5Q37.5 350.0 35.0 348.0Q35.5 350.0 35.5 359.0Q35.5 368.0 35.5 380.5Q35.5 397.5 36.75 404.75Q38.0 412.0 42.5 412.0Q49.0 412.0 63.0 406.0L68.5 404.0Q77.5 402.0 92.25 398.0Q107.0 394.0 121.5 391.0L150.0 385.0L128.5 380.5Q114.0 378.0 95.0 372.0Q76.0 366.0 64.5 361.0ZM228.0 107.5 253.0 110.0V10.0L278.5 32.5Q290.0 43.0 300.0 49.25Q310.0 55.5 323.25 59.0Q336.5 62.5 356.75 63.5Q377.0 64.5 408.5 64.5H478.5L473.5 56.0Q472.5 54.0 471.0 52.5Q470.5 51.5 470.0 50.25Q469.5 49.0 468.5 48.5Q467.5 46.5 466.75 45.25Q466.0 44.0 465.5 43.5Q464.0 40.5 464.0 39.0Q464.0 36.0 484.75 34.75Q505.5 33.5 536.5 33.5Q555.0 33.5 571.0 33.5Q587.0 33.5 596.75 33.75Q606.5 34.0 606.5 34.0Q606.5 37.0 601.75 44.0Q597.0 51.0 590.5 58.0Q584.0 65.5 575.75 78.0Q567.5 90.5 562.0 100.5Q558.5 107.5 556.0 114.25Q553.5 121.0 552.25 132.0Q551.0 143.0 550.0 161.75Q549.0 180.5 548.5 211.25Q548.0 242.0 547.5 289.0Q547.0 339.5 545.75 377.5Q544.5 415.5 542.5 436.5Q540.5 457.5 538.0 457.5Q534.0 457.5 532.0 446.5Q530.0 435.5 530.0 420.5V391.5H355.5L358.5 408.5Q359.5 411.5 359.5 414.5Q359.5 417.5 359.5 420.0Q359.5 426.0 358.0 431.0Q356.5 436.0 353.5 438.0H352.5Q349.5 438.0 346.75 432.0Q344.0 426.0 344.0 413.5V391.5H269.5V412.5Q269.5 440.0 261.5 440.0Q258.0 440.0 255.25 432.75Q252.5 425.5 251.5 411.0L249.5 389.5L228.0 390.0Q213.0 391.5 190.5 395.5Q168.0 399.5 142.75 404.5Q117.5 409.5 95.0 415.25Q72.5 421.0 57.5 426.5Q43.0 431.5 33.25 434.0Q23.5 436.5 18.0 436.5Q10.0 436.5 10.0 431.0Q10.0 425.5 14.5 422.0Q17.0 417.5 18.5 404.75Q20.0 392.0 20.0 373.5Q20.0 345.5 21.25 334.0Q22.5 322.5 29.0 322.5Q31.0 322.5 33.5 324.0Q36.0 325.5 39.0 327.5Q43.0 331.0 56.75 337.75Q70.5 344.5 85.0 350.0Q101.0 356.5 113.75 360.0Q126.5 363.5 143.5 365.0Q160.5 366.5 189.5 367.5L253.5 370.5L251.5 301.5Q250.5 281.0 249.0 262.25Q247.5 243.5 245.5 229.75Q243.5 216.0 241.0 211.0L235.5 195.0H183.0Q158.0 195.0 144.25 196.0Q130.5 197.0 121.25 200.5Q112.0 204.0 99.0 211.0Q87.5 216.0 75.25 223.75Q63.0 231.5 54.0 237.5L48.5 241.0Q41.0 246.5 34.0 250.75Q27.0 255.0 26.0 255.0Q25.5 255.0 23.75 245.5Q22.0 236.0 22.0 219.0Q22.0 190.5 23.5 163.0V158.5Q24.5 144.0 25.5 134.25Q26.5 124.5 30.0 124.5Q31.0 124.5 38.0 130.0Q45.0 135.5 51.5 144.0Q64.0 157.5 77.0 165.0Q90.0 172.5 110.25 175.5Q130.5 178.5 163.5 178.5Q187.0 178.5 204.75 177.5Q222.5 176.5 227.0 174.5Q226.5 170.5 223.25 162.25Q220.0 154.0 214.5 145.5Q207.5 131.0 203.0 120.5Q198.5 110.0 198.5 109.5Q198.5 106.0 207.5 106.0Q211.5 106.0 217.25 106.25Q223.0 106.5 228.0 107.5ZM253.5 194.5 253.0 195.0 253.5 194.5H253.0L253.5 195.0Z" fill="black" /></svg>