<svg xmlns="http://www.w3.org/2000/svg" width="518.0" height="461.0" viewBox="0 0 518.0 461.0"><path d="M86.5 247.5 72.5 243.0Q49.5 237.0 40.0 237.0Q34.5 237.0 32.75 240.5Q31.0 244.0 31.0 251.5Q31.0 263.5 32.5 263.5Q33.5 263.5 35.25 263.0Q37.0 262.5 38.5 261.5Q44.5 259.0 54.75 256.0Q65.0 253.0 74.5 250.5ZM93.5 330.0Q82.5 330.0 71.75 329.25Q61.0 328.5 50.5 325.5Q41.5 322.5 37.0 322.5Q31.0 322.5 31.0 337.5V347.0L61.5 340.0Q93.5 332.0 93.5 330.0ZM268.5 275.5Q268.5 267.0 267.5 260.5Q266.5 254.0 264.0 252.0Q262.0 251.0 242.5 251.0Q228.0 251.0 207.75 252.0Q187.5 253.0 166.5 254.5Q145.5 256.0 127.75 257.75Q110.0 259.5 100.5 261.5Q34.0 277.5 32.5 291.0V292.5Q34.5 301.0 46.0 306.25Q57.5 311.5 84.0 314.25Q110.5 317.0 158.0 318.5Q171.0 319.0 182.25 319.0Q193.5 319.0 203.0 319.0Q229.0 319.0 240.5 318.0Q252.0 317.0 252.0 315.0Q252.0 314.5 247.0 311.5V312.0Q242.0 310.0 242.0 306.0Q242.0 301.0 256.0 298.5Q265.0 296.5 266.75 293.0Q268.5 289.5 268.5 275.5ZM339.5 320.5Q339.5 320.0 331.25 320.0Q323.0 320.0 311.5 320.0Q296.5 320.0 291.0 320.0Q285.5 320.0 285.5 320.5Q285.5 322.5 288.0 324.5Q289.5 329.0 292.5 332.5Q295.5 336.0 297.5 338.0Q300.0 338.0 306.75 336.25Q313.5 334.5 321.0 331.75Q328.5 329.0 334.0 326.0Q339.5 323.0 339.5 320.5ZM278.0 170.0Q277.5 169.0 275.5 168.75Q273.5 168.5 267.5 168.5Q256.5 168.5 234.75 169.75Q213.0 171.0 186.25 173.25Q159.5 175.5 132.25 179.0Q105.0 182.5 82.0 187.25Q59.0 192.0 45.0 197.75Q31.0 203.5 31.0 211.0Q31.0 215.5 46.25 219.75Q61.5 224.0 87.75 227.5Q114.0 231.0 147.0 233.0Q180.0 235.0 215.5 235.5Q255.5 235.5 255.5 231.0Q255.5 229.5 253.0 227.0Q250.5 224.5 246.5 221.0Q236.0 212.0 236.0 206.5Q236.0 202.0 242.5 200.25Q249.0 198.5 264.0 198.5Q276.5 198.5 280.75 198.0Q285.0 197.5 285.0 195.5Q285.0 190.5 282.25 182.25Q279.5 174.0 278.0 170.0ZM285.0 219.0Q283.5 217.5 280.5 216.25Q277.5 215.0 273.5 215.0Q271.5 215.0 270.0 215.25Q268.5 215.5 268.5 215.5Q268.5 218.0 270.0 220.5L271.0 225.0Q272.0 227.0 273.0 229.75Q274.0 232.5 274.5 235.0L275.5 239.0Q276.5 241.0 278.0 243.5Q279.5 246.0 280.0 246.0Q282.0 246.0 284.0 238.75Q286.0 231.5 286.0 225.5Q286.0 222.0 285.0 219.0ZM335.0 236.0Q324.5 221.0 322.0 221.0Q315.5 221.0 309.0 231.0Q302.5 241.0 297.25 255.0Q292.0 269.0 288.75 281.5Q285.5 294.0 285.5 299.0Q285.5 301.5 286.0 301.5Q287.0 302.5 296.25 303.0Q305.5 303.5 317.5 303.5H344.5V279.0Q344.5 252.5 335.0 236.0ZM372.5 217.5Q372.0 216.5 366.0 215.75Q360.0 215.0 353.0 215.0Q350.5 215.0 348.5 215.0Q346.5 215.0 345.5 215.0Q346.0 218.0 348.5 225.5Q351.0 233.0 353.75 239.5Q356.5 246.0 357.5 246.0Q360.0 246.0 363.25 240.5Q366.5 235.0 369.25 228.0Q372.0 221.0 372.5 217.5ZM409.0 247.0Q406.0 238.0 402.25 230.25Q398.5 222.5 396.5 221.5H396.0Q391.0 223.0 385.25 232.75Q379.5 242.5 374.5 256.25Q369.5 270.0 366.0 282.5Q362.5 295.0 362.5 302.0Q364.0 302.0 372.5 303.0Q381.0 304.0 390.5 304.75Q400.0 305.5 403.0 305.5Q409.0 305.5 411.75 300.5Q414.5 295.5 415.5 288.75Q416.5 282.0 416.5 277.5Q416.5 270.5 414.75 263.25Q413.0 256.0 409.0 247.0ZM433.0 233.0 442.5 215.0H432.5Q417.0 215.0 417.0 219.5Q417.0 221.5 418.75 225.0Q420.5 228.5 422.5 232.5L425.0 239.0Q426.5 241.0 427.0 243.0Q427.5 245.0 427.5 245.0L429.0 242.0Q429.5 240.0 430.75 238.0Q432.0 236.0 433.0 233.0ZM85.0 79.0Q81.0 79.0 74.25 78.25Q67.5 77.5 60.5 77.0L53.5 76.0Q47.5 74.5 42.5 74.5Q39.5 74.5 38.0 77.0Q36.5 79.5 35.0 82.5Q34.5 85.5 34.0 89.25Q33.5 93.0 33.5 95.0L35.0 94.5Q40.5 94.5 50.0 93.0Q59.5 91.5 69.75 89.0Q80.0 86.5 87.0 84.25Q94.0 82.0 94.0 80.5Q94.0 79.0 85.0 79.0ZM92.0 167.0Q90.0 166.0 84.5 165.0Q79.0 164.0 70.5 162.0Q60.5 158.5 51.25 157.0Q42.0 155.5 38.0 155.5Q37.5 158.0 37.25 162.75Q37.0 167.5 37.0 173.0V185.5L58.5 178.5Q68.5 175.5 78.0 172.25Q87.5 169.0 92.0 167.0ZM267.0 99.5V84.5L223.0 85.0Q180.5 85.5 141.75 90.5Q103.0 95.5 70.5 104.0Q50.0 109.0 44.5 112.75Q39.0 116.5 38.0 124.5Q38.0 132.5 40.0 135.25Q42.0 138.0 51.0 141.5Q58.0 143.5 78.75 146.0Q99.5 148.5 126.75 150.25Q154.0 152.0 181.5 153.25Q209.0 154.5 229.5 154.5Q239.5 154.5 247.75 154.25Q256.0 154.0 260.0 153.5L269.5 150.5L259.0 143.5Q241.0 133.5 241.0 123.5Q241.0 114.5 256.5 114.5Q263.5 114.5 265.25 112.0Q267.0 109.5 267.0 99.5ZM288.0 45.5 295.0 32.0H282.0Q268.0 32.0 268.0 36.5Q268.0 40.5 273.5 50.0Q276.5 61.0 279.0 61.0Q280.5 61.0 288.0 45.5ZM312.5 139.0Q313.0 138.5 313.5 138.25Q314.0 138.0 314.5 137.5Q310.5 137.5 306.5 137.5Q302.5 137.5 298.5 137.0Q282.0 137.0 280.0 137.5Q280.5 138.0 281.0 138.25Q281.5 138.5 282.0 139.0Q284.5 143.0 288.0 144.5Q291.5 146.0 295.0 146.0Q303.0 146.0 312.5 139.0ZM339.5 57.0Q329.0 37.0 320.0 37.0Q314.0 37.0 307.5 45.5Q301.0 54.0 295.5 66.5Q290.0 79.0 286.75 90.75Q283.5 102.5 283.5 109.0Q283.5 119.5 303.5 119.5Q307.0 119.5 309.5 119.0H317.5L347.5 117.5L348.5 99.0Q348.5 87.0 347.0 76.75Q345.5 66.5 339.5 57.0ZM376.0 32.0H361.0Q356.0 32.0 352.0 31.75Q348.0 31.5 345.5 31.0Q346.5 34.0 350.0 41.5Q353.5 49.0 357.0 55.5Q360.5 62.0 361.0 62.0Q362.5 62.0 365.75 55.75Q369.0 49.5 372.25 42.25Q375.5 35.0 376.0 32.0ZM414.5 57.0Q404.5 39.5 400.0 39.5Q394.0 39.5 388.0 49.5Q382.0 59.5 376.75 73.25Q371.5 87.0 368.25 99.25Q365.0 111.5 364.5 116.0Q364.5 117.0 365.0 117.0Q366.0 118.5 373.5 119.5Q381.0 120.5 392.5 120.5Q418.5 120.5 420.5 114.0Q422.0 110.5 422.75 105.75Q423.5 101.0 423.5 96.5Q423.5 87.5 421.0 76.5Q418.5 65.5 414.5 57.0ZM449.0 32.0H437.0Q424.5 32.0 424.5 36.0Q424.5 38.5 426.25 42.0Q428.0 45.5 430.5 50.0L434.5 58.5L440.5 48.5Q443.5 43.0 446.0 38.25Q448.5 33.5 449.0 32.0ZM229.5 19.5Q229.5 17.0 248.25 15.25Q267.0 13.5 298.5 12.25Q330.0 11.0 368.5 10.5Q380.0 10.5 389.5 10.25Q399.0 10.0 408.0 10.0H433.0Q465.0 10.0 481.0 11.0Q497.0 12.0 502.5 14.25Q508.0 16.5 508.0 20.5Q508.0 32.0 489.0 32.0Q477.5 32.0 468.25 41.0Q459.0 50.0 452.25 63.75Q445.5 77.5 442.0 91.0Q438.5 104.5 438.5 113.5Q438.5 117.0 445.0 120.5Q455.0 123.5 455.0 127.0Q455.0 130.5 443.0 133.5Q437.5 134.0 417.5 137.25Q397.5 140.5 375.0 144.5Q333.5 150.5 316.0 157.5Q298.5 164.5 298.5 174.5Q298.5 183.5 300.25 188.5Q302.0 193.5 310.5 195.5Q319.0 197.5 339.0 198.0Q359.0 198.5 395.5 198.5Q441.5 198.5 466.75 200.75Q492.0 203.0 492.0 206.5Q492.0 209.5 487.25 212.25Q482.5 215.0 477.0 215.0Q472.5 215.0 466.75 217.75Q461.0 220.5 458.5 225.0Q455.5 228.0 450.5 238.25Q445.5 248.5 440.75 261.25Q436.0 274.0 432.5 285.5Q429.0 297.0 429.0 302.0Q429.0 302.5 434.0 303.0Q439.0 303.5 445.5 303.5Q463.5 303.5 463.5 310.5Q463.5 312.5 455.5 316.25Q447.5 320.0 434.5 321.5Q337.5 335.5 319.0 356.5Q313.0 362.5 310.0 366.5Q307.0 370.5 307.0 376.0Q307.0 378.0 308.0 381.75Q309.0 385.5 309.5 390.0L310.0 392.5Q312.5 404.0 312.5 418.0Q312.5 420.0 311.75 428.0Q311.0 436.0 309.5 443.5Q308.0 451.0 304.5 451.0Q301.5 451.0 300.25 442.75Q299.0 434.5 297.5 416.5Q295.5 402.0 291.75 384.0Q288.0 366.0 284.0 356.0L275.5 335.0H228.0Q209.5 335.0 186.5 336.75Q163.5 338.5 139.75 341.5Q116.0 344.5 94.75 348.5Q73.5 352.5 58.5 356.5Q51.5 359.5 42.0 364.25Q32.5 369.0 28.5 374.5L10.0 392.5L11.5 295.0Q12.0 271.0 12.5 250.25Q13.0 229.5 14.25 215.25Q15.5 201.0 17.0 197.0H16.5Q17.5 195.0 18.75 184.75Q20.0 174.5 20.0 161.5Q20.0 159.0 20.0 157.25Q20.0 155.5 19.5 153.5V141.5Q18.0 117.5 18.0 98.5Q18.0 67.0 20.5 48.75Q23.0 30.5 28.0 30.5Q31.5 30.5 34.5 35.0Q37.5 39.5 38.0 45.5Q39.5 56.5 72.5 61.5Q105.5 66.5 179.0 67.0H201.5Q234.5 67.0 248.5 65.5Q262.5 64.0 262.5 60.5Q262.5 57.5 258.0 52.5Q253.5 47.5 246.5 40.5Q240.0 33.5 234.75 27.0Q229.5 20.5 229.5 19.5Z" fill="black" /></svg>