<svg xmlns="http://www.w3.org/2000/svg" width="892.0" height="461.5" viewBox="0 0 892.0 461.5"><path d="M78.0 368.0 90.5 364.0 38.0 338.5 39.5 360.5Q40.0 371.5 41.75 378.75Q43.5 386.0 46.0 386.0Q46.0 386.0 46.5 385.0Q47.0 384.0 48.0 383.5L49.5 381.0H50.0Q52.5 378.5 60.5 374.25Q68.5 370.0 78.0 368.0ZM250.0 316.5Q255.5 316.5 257.5 308.0Q259.5 299.5 260.0 292.5Q256.0 297.0 250.5 304.25Q245.0 311.5 245.0 315.0Q245.0 316.5 250.0 316.5ZM280.0 249.0Q280.0 247.0 274.25 244.75Q268.5 242.5 262.0 240.75Q255.5 239.0 253.0 239.0Q248.0 239.0 246.5 244.5Q245.0 250.0 245.0 263.0V280.5L259.5 268.5Q280.0 252.5 280.0 249.0ZM264.5 344.5 258.5 342.0Q247.5 336.0 245.0 336.0V346.5Q245.0 355.5 248.0 357.0Q251.0 358.5 267.0 358.5Q285.0 358.5 285.0 358.0Q285.0 354.5 264.5 344.5ZM53.0 215.5Q52.5 214.5 48.75 211.25Q45.0 208.0 44.0 208.0Q43.5 208.0 43.5 219.5Q43.5 231.0 44.0 231.0Q45.0 231.0 46.75 229.75Q48.5 228.5 50.5 227.0L53.5 225.5Q56.0 224.5 57.25 223.0Q58.5 221.5 58.5 221.5Q58.0 220.5 56.75 218.75Q55.5 217.0 53.0 215.5ZM251.0 123.5H221.0L227.5 138.5Q230.0 145.0 232.25 150.25Q234.5 155.5 235.0 157.5Q235.5 154.5 238.75 147.5Q242.0 140.5 245.75 133.25Q249.5 126.0 251.0 123.5ZM273.0 214.0Q273.0 208.0 272.5 208.0Q270.0 208.0 265.5 212.75Q261.0 217.5 261.0 219.5Q261.0 220.5 267.0 220.5Q273.0 220.5 273.0 214.0ZM324.0 194.0Q325.0 193.5 325.0 188.0V183.5L324.0 181.5L320.0 185.5Q319.5 186.0 318.75 187.0Q318.0 188.0 317.0 188.5Q316.0 189.5 315.5 190.25Q315.0 191.0 314.5 191.5Q315.0 191.5 315.25 191.75Q315.5 192.0 316.0 192.0Q317.5 192.0 318.25 192.5Q319.0 193.0 319.5 193.0Q321.0 193.5 322.25 193.75Q323.5 194.0 324.0 194.0ZM321.5 215.5 314.0 213.5Q308.5 211.0 303.75 209.25Q299.0 207.5 298.0 207.5Q295.5 207.5 294.25 211.25Q293.0 215.0 292.0 217.5Q292.0 218.0 292.5 219.0Q293.0 220.0 293.0 220.0Q297.0 220.5 298.5 223.5Q300.0 226.5 300.0 230.5Q299.5 231.0 299.5 231.5Q299.5 233.5 304.5 238.5Q309.5 243.5 316.25 249.25Q323.0 255.0 329.25 259.0Q335.5 263.0 338.0 263.0Q339.0 263.0 344.0 259.5Q349.0 256.0 354.0 251.5L364.5 241.5L354.5 234.0Q348.0 229.5 338.25 224.25Q328.5 219.0 321.5 215.5ZM323.5 280.0 315.0 272.0Q306.5 262.0 301.0 262.0Q297.5 262.0 293.25 268.5Q289.0 275.0 285.0 284.0Q281.0 293.0 278.5 301.25Q276.0 309.5 276.0 312.5Q276.0 318.0 280.0 319.0Q285.0 320.0 287.25 323.75Q289.5 327.5 289.5 330.5Q289.5 337.0 293.75 340.0Q298.0 343.0 305.5 346.5Q316.0 353.0 328.25 355.75Q340.5 358.5 362.5 358.5H388.5L386.0 354.5Q374.5 346.5 358.25 338.5Q342.0 330.5 327.0 325.0Q312.0 319.5 304.0 319.5Q294.5 319.5 289.0 318.0Q283.5 316.5 283.5 311.5Q283.5 308.5 290.0 303.0Q296.5 297.5 306.0 291.0ZM346.5 286.0V285.5Q340.0 290.5 333.5 296.0Q327.0 301.5 326.0 304.0Q329.5 306.0 337.5 306.0H344.0Q343.5 305.0 343.5 303.25Q343.5 301.5 343.5 300.5Q343.5 297.5 344.5 293.5Q345.5 289.5 346.5 286.0ZM413.0 210.0 391.5 199.0Q381.0 192.5 371.25 189.75Q361.5 187.0 354.5 187.0Q345.0 187.0 345.0 191.0Q345.0 194.0 345.5 194.0Q353.5 194.0 353.5 202.5Q353.5 203.0 353.0 203.5Q352.5 204.0 352.5 205.0Q352.0 205.5 352.0 205.75Q352.0 206.0 352.0 206.0Q353.5 211.0 363.5 216.75Q373.5 222.5 380.0 223.5Q386.5 223.5 391.5 231.75Q396.5 240.0 396.5 250.0V251.0Q396.5 256.0 394.5 257.25Q392.5 258.5 387.5 258.5Q386.5 258.0 384.5 258.0H384.0Q380.5 258.0 377.0 263.75Q373.5 269.5 370.5 277.25Q367.5 285.0 365.75 292.25Q364.0 299.5 364.0 302.5Q364.0 311.0 367.5 311.0Q375.5 311.0 375.5 317.0Q375.5 318.5 374.5 320.5Q376.0 324.0 381.5 329.0Q387.0 334.0 393.5 338.0Q400.0 342.0 403.5 342.0Q409.0 342.0 412.0 329.75Q415.0 317.5 415.0 288.5V266.0ZM386.0 161.5Q386.0 159.0 386.5 158.0Q387.0 157.5 387.0 157.0Q386.0 157.5 383.5 159.75Q381.0 162.0 378.0 164.0Q377.0 165.5 376.0 166.25Q375.0 167.0 374.5 168.0Q383.0 167.0 386.0 161.5ZM415.5 187.0V145.0Q412.5 146.0 409.75 154.0Q407.0 162.0 406.0 167.5Q407.0 168.5 407.0 169.75Q407.0 171.0 407.0 172.0Q409.0 174.5 410.75 178.5Q412.5 182.5 412.5 185.5Q412.5 187.0 415.5 187.0ZM451.5 242.0 451.0 239.5Q450.5 238.0 446.75 234.5Q443.0 231.0 439.5 229.0Q437.5 226.5 435.0 226.5V245.5Q435.0 264.0 437.5 270.5H438.0Q441.0 269.5 446.0 259.5Q451.0 249.5 451.5 242.0ZM519.0 337.0Q510.0 334.5 497.75 329.75Q485.5 325.0 475.5 320.5L463.5 316.0Q450.5 308.0 444.0 308.0Q441.5 308.0 440.75 312.25Q440.0 316.5 439.0 325.0L437.0 336.5L489.5 338.5Q499.0 339.0 507.75 339.0Q516.5 339.0 524.0 339.5Q523.0 338.5 521.5 338.0Q520.0 337.5 519.0 337.0ZM453.5 166.5Q446.5 171.0 441.75 175.5Q437.0 180.0 435.5 185.0V191.0Q435.5 202.0 444.5 202.0Q448.0 202.0 455.5 200.75Q463.0 199.5 463.0 194.5Q463.0 192.0 461.0 190.0Q459.0 188.0 456.5 187.0Q448.5 182.5 448.5 176.0Q448.5 174.5 449.0 172.5Q449.5 170.5 451.5 168.0Q452.5 167.5 453.5 166.5ZM510.5 264.5 544.5 263.0 524.5 255.0Q518.5 252.5 513.25 250.5Q508.0 248.5 503.0 247.0Q497.5 244.5 493.25 243.5Q489.0 242.5 487.5 242.0H486.5Q483.0 242.5 477.0 247.0Q471.0 251.5 466.25 256.75Q461.5 262.0 460.5 266.0Q464.5 265.0 478.75 264.75Q493.0 264.5 510.5 264.5ZM693.0 299.5Q644.5 293.0 596.5 288.5Q548.5 284.0 499.5 284.0Q456.5 284.0 456.5 287.0Q456.5 290.5 489.0 304.0Q518.5 318.0 551.25 328.5Q584.0 339.0 623.5 348.0Q663.0 357.0 711.5 366.5Q737.0 370.0 758.25 372.75Q779.5 375.5 784.5 375.5Q785.0 372.5 785.25 365.5Q785.5 358.5 785.5 350.0Q785.5 339.5 785.0 329.0Q784.5 318.5 783.0 317.0Q780.5 316.0 767.25 313.25Q754.0 310.5 734.5 306.75Q715.0 303.0 693.0 299.5ZM540.0 197.0Q532.5 196.5 523.25 195.5Q514.0 194.5 506.0 194.0L482.5 191.5V214.5Q484.0 214.5 486.5 213.5Q488.0 213.0 492.75 211.25Q497.5 209.5 504.0 207.5Q522.0 203.0 540.0 197.0ZM785.5 235.5V176.0H773.0Q760.0 177.0 737.75 180.5Q715.5 184.0 689.0 188.5Q662.5 193.0 634.75 198.25Q607.0 203.5 582.25 208.75Q557.5 214.0 539.25 218.5Q521.0 223.0 513.5 226.5L508.0 228.0L519.0 233.5Q533.0 239.5 556.25 246.75Q579.5 254.0 607.25 261.25Q635.0 268.5 663.0 274.5Q691.0 280.5 714.5 284.5Q741.5 289.0 762.0 292.0Q782.5 295.0 784.5 295.0Q785.0 295.0 785.25 279.0Q785.5 263.0 785.5 235.5ZM280.0 72.5Q278.0 70.0 275.75 68.5Q273.5 67.0 272.5 66.5Q271.0 68.5 271.0 74.5Q271.0 82.5 275.0 83.5Q277.0 83.0 279.25 81.75Q281.5 80.5 283.0 78.0Q283.5 78.0 285.0 76.5Q284.0 74.0 280.0 72.5ZM406.5 98.0Q403.5 91.0 399.0 89.0Q394.5 87.0 375.5 87.0H355.0Q289.0 87.0 285.0 98.0H285.5Q289.5 95.0 291.5 95.0Q294.0 95.0 296.0 96.5Q298.0 98.0 298.0 100.5Q298.0 103.0 293.5 109.25Q289.0 115.5 282.5 118.5Q276.0 123.5 269.25 134.0Q262.5 144.5 256.5 157.0Q250.5 169.5 246.75 181.25Q243.0 193.0 243.0 200.0Q243.0 205.0 245.0 205.0Q246.0 205.0 256.5 195.75Q267.0 186.5 280.0 174.0L285.0 170.0Q298.5 158.5 309.0 150.0Q319.5 141.5 322.0 141.5Q327.5 141.5 327.5 149.5Q327.5 150.5 327.5 152.0Q327.5 153.5 327.0 155.0Q330.0 152.0 336.75 145.75Q343.5 139.5 351.0 133.0Q358.5 126.5 365.25 122.0Q372.0 117.5 375.0 117.5Q381.0 117.5 381.0 125.0Q381.0 129.5 371.0 143.5Q370.5 145.0 369.5 146.25Q368.5 147.5 367.5 149.0Q375.0 143.0 384.5 134.25Q394.0 125.5 401.75 117.5Q409.5 109.5 410.0 106.5Q409.0 102.5 406.5 98.0ZM429.0 100.5 443.0 73.0Q448.0 64.0 451.5 56.75Q455.0 49.5 457.0 45.5Q452.5 46.0 444.25 46.5Q436.0 47.0 427.0 48.0Q402.5 49.5 402.0 50.0L402.5 51.5Q404.5 55.0 410.25 64.0Q416.0 73.0 420.5 83.5ZM512.5 117.0 508.5 116.0Q486.5 112.0 473.75 110.5Q461.0 109.0 455.0 109.0Q450.5 109.0 450.5 110.5V115.0Q450.5 117.0 450.25 118.5Q450.0 120.0 450.0 122.5Q448.0 128.0 448.0 135.5L447.0 142.5L483.5 131.0Q493.5 127.0 504.25 123.5Q515.0 120.0 524.0 118.0Q521.5 118.0 518.5 117.75Q515.5 117.5 512.5 117.0ZM782.0 125.0Q779.5 110.5 776.25 108.0Q773.0 105.5 761.5 105.0H757.5Q748.0 105.0 727.25 107.0Q706.5 109.0 678.75 112.5Q651.0 116.0 620.0 121.25Q589.0 126.5 558.75 132.75Q528.5 139.0 502.5 146.5Q476.5 154.0 459.5 163.0Q467.0 163.0 473.0 169.0Q477.5 172.5 497.0 174.0Q516.5 175.5 544.5 175.5Q572.0 175.5 603.75 174.0Q635.5 172.5 666.75 170.25Q698.0 168.0 724.0 164.75Q750.0 161.5 766.25 157.75Q782.5 154.0 784.0 150.5Q785.0 150.0 785.0 146.0Q785.0 136.0 782.0 125.0ZM796.5 98.5Q796.5 97.5 795.0 97.5Q794.0 97.5 794.0 98.5Q794.0 99.5 795.0 99.5Q796.5 99.5 796.5 98.5ZM823.0 49.5 825.5 43.0 827.0 41.0Q829.0 38.0 829.5 37.0Q824.0 37.0 815.25 37.25Q806.5 37.5 797.0 38.5L766.0 42.0L776.5 57.5Q791.5 81.5 800.0 81.5Q801.5 81.5 802.5 80.25Q803.5 79.0 805.0 77.5Q805.5 77.0 805.75 75.75Q806.0 74.5 806.5 74.0Q808.5 72.0 810.0 67.0Q813.0 63.5 816.25 59.0Q819.5 54.5 823.0 49.5ZM25.0 222.5Q25.0 197.5 27.25 180.0Q29.5 162.5 33.0 162.5Q36.0 162.5 40.5 167.5Q45.0 172.5 49.0 179.5Q57.0 193.0 66.75 200.5Q76.5 208.0 95.0 210.75Q113.5 213.5 148.0 214.5Q176.5 215.5 195.5 218.5Q214.5 221.5 214.5 226.5Q214.5 226.5 214.25 227.0Q214.0 227.5 214.0 228.0Q211.5 231.5 189.5 232.75Q167.5 234.0 138.0 234.0L72.5 232.5L58.0 249.0Q52.5 254.5 48.0 261.0Q43.5 267.5 43.5 269.5Q43.5 274.5 40.75 278.5Q38.0 282.5 33.5 282.5Q29.0 282.5 27.0 265.75Q25.0 249.0 25.0 222.5ZM786.0 18.0Q804.0 18.0 822.0 17.0Q840.0 16.0 858.0 12.5Q874.0 10.0 878.0 10.0L882.0 13.0Q882.0 16.5 875.0 24.5Q868.0 32.5 858.0 42.5Q836.5 61.5 821.0 87.5Q805.5 113.5 805.5 143.0Q805.5 151.0 808.5 154.0Q815.0 159.0 815.0 161.5Q815.0 167.0 808.0 169.5Q806.0 170.0 805.25 185.25Q804.5 200.5 804.5 237.0Q804.5 263.5 804.75 277.25Q805.0 291.0 806.0 295.5Q807.0 300.0 808.0 300.0Q813.5 300.0 817.0 302.5Q820.5 305.0 820.5 310.0Q820.5 319.5 807.0 319.5Q806.0 319.5 805.25 324.0Q804.5 328.5 804.5 340.0V389.0Q804.5 419.0 802.5 430.0Q800.5 441.0 795.0 441.0Q791.5 441.0 788.5 433.25Q785.5 425.5 785.5 416.0V399.0L743.5 391.0Q657.0 376.0 597.75 368.0Q538.5 360.0 497.5 359.5Q482.0 359.5 468.25 360.0Q454.5 360.5 445.75 361.0Q437.0 361.5 436.5 362.0L435.5 362.5Q435.5 367.0 439.0 370.5Q440.0 373.5 441.0 376.75Q442.0 380.0 442.5 381.5Q441.5 387.0 438.5 389.5Q437.0 391.0 436.0 399.25Q435.0 407.5 435.0 419.0Q435.0 432.5 432.5 442.0Q430.0 451.5 425.0 451.5Q421.0 451.5 418.25 439.5Q415.5 427.5 415.5 409.5V377.0H376.5L342.0 376.5Q345.0 378.0 349.25 383.75Q353.5 389.5 353.5 392.5Q353.5 397.5 347.5 397.5Q345.0 397.5 339.25 395.0Q333.5 392.5 327.5 387.5Q321.0 382.0 310.0 379.5Q299.0 377.0 278.5 377.0H245.0V391.0Q245.0 399.0 243.0 406.25Q241.0 413.5 237.0 416.0L237.5 416.5L235.0 417.0Q231.5 417.0 228.5 411.0Q225.5 405.0 225.5 394.5V377.0H169.5Q135.0 377.0 112.0 380.0Q89.0 383.0 73.5 390.75Q58.0 398.5 45.0 412.0Q36.5 418.5 29.75 423.0Q23.0 427.5 19.0 427.5Q17.0 427.5 16.5 426.5V424.0Q16.5 421.5 17.25 415.25Q18.0 409.0 19.5 402.5L20.0 399.0Q21.0 393.5 22.0 386.75Q23.0 380.0 23.0 372.0Q23.0 354.0 19.75 336.0Q16.5 318.0 12.5 310.5Q10.0 304.0 10.0 300.5Q11.0 298.5 12.0 297.25Q13.0 296.0 16.5 296.0Q19.0 296.0 25.75 300.25Q32.5 304.5 42.5 314.5Q64.5 334.0 96.25 343.5Q128.0 353.0 173.5 354.5L222.5 355.0L225.0 344.5V340.5Q225.0 337.5 224.0 335.0Q223.0 332.5 221.5 332.5Q218.0 331.5 212.75 329.75Q207.5 328.0 203.5 327.5Q200.0 326.5 198.25 324.25Q196.5 322.0 195.5 319.5Q196.5 317.0 200.0 313.75Q203.5 310.5 210.0 307.0Q217.0 302.5 220.25 298.75Q223.5 295.0 224.5 288.0Q225.5 281.0 225.5 267.5Q225.5 256.0 224.25 246.75Q223.0 237.5 221.0 235.5Q216.5 234.0 216.5 228.0Q216.5 223.5 221.0 220.0Q225.5 214.5 225.5 203.5Q225.5 191.5 221.25 176.25Q217.0 161.0 210.0 147.25Q203.0 133.5 195.0 126.0Q188.5 120.5 183.25 114.5Q178.0 108.5 178.0 106.5Q178.0 100.5 189.0 100.5Q191.5 100.5 194.75 100.75Q198.0 101.0 201.5 101.0Q210.0 102.5 218.25 102.75Q226.5 103.0 234.5 103.0Q238.5 103.0 243.0 102.75Q247.5 102.5 249.5 102.0Q252.0 101.0 254.0 98.75Q256.0 96.5 256.0 90.0Q256.0 87.5 255.75 85.0Q255.5 82.5 255.5 79.0Q255.0 76.0 254.5 72.25Q254.0 68.5 254.0 63.5Q252.5 50.0 252.5 39.0Q252.5 20.5 261.0 20.5Q268.5 20.5 274.0 34.0Q274.5 36.5 279.5 43.0Q284.5 49.5 291.0 55.0Q298.0 60.5 303.75 63.0Q309.5 65.5 320.25 66.25Q331.0 67.0 352.5 67.0H390.5L376.0 54.5Q366.5 46.5 361.0 37.5Q355.5 28.5 355.5 26.5Q356.0 25.0 358.25 24.5Q360.5 24.0 362.5 24.0Q366.5 24.0 375.5 25.0Q384.5 26.0 394.0 27.0Q401.0 28.5 409.25 29.0Q417.5 29.5 426.0 29.5Q434.0 29.5 442.5 29.0Q451.0 28.5 459.5 27.0Q469.5 25.0 480.5 24.5Q491.5 24.0 501.5 24.0L503.0 26.5Q503.0 29.5 497.75 36.75Q492.5 44.0 484.5 49.5Q474.0 59.0 465.0 70.75Q456.0 82.5 455.5 87.5Q458.5 89.5 471.75 91.25Q485.0 93.0 503.5 94.75Q522.0 96.5 542.25 97.5Q562.5 98.5 580.5 98.5H589.0Q607.5 98.0 631.0 96.75Q654.5 95.5 679.0 93.75Q703.5 92.0 724.0 89.75Q744.5 87.5 757.25 85.5Q770.0 83.5 770.0 82.0Q770.0 77.5 763.0 68.75Q756.0 60.0 747.0 51.25Q738.0 42.5 731.5 38.5Q723.5 34.5 717.5 29.75Q711.5 25.0 711.5 23.0Q711.5 19.5 717.25 18.25Q723.0 17.0 732.5 17.0Q739.5 17.0 748.0 17.0Q756.5 17.0 765.0 18.0Z" fill="black" /></svg>