<svg xmlns="http://www.w3.org/2000/svg" width="751.0" height="456.5" viewBox="0 0 751.0 456.5"><path d="M92.5 306.5 91.0 283.5V254.5Q90.0 255.0 87.75 257.25Q85.5 259.5 83.0 262.5Q79.0 268.0 71.5 273.75Q64.0 279.5 59.0 282.5L53.5 287.0ZM151.5 267.0V266.5Q152.5 265.5 152.5 264.5Q150.5 266.0 147.0 268.5Q143.5 271.0 139.0 274.0L129.5 282.0L132.5 283.0Q133.5 283.5 135.75 283.5Q138.0 283.5 139.0 283.5Q145.0 283.5 151.5 267.0ZM209.0 267.0 210.5 263.5Q208.0 265.5 205.25 267.0Q202.5 268.5 200.0 270.5L187.5 279.5L191.0 281.5Q193.5 281.5 195.0 281.75Q196.5 282.0 198.0 282.5Q198.5 282.5 199.0 282.5Q199.5 282.5 200.0 282.5Q202.0 280.0 204.5 275.75Q207.0 271.5 209.0 267.0ZM204.0 162.5Q199.0 160.0 193.5 158.75Q188.0 157.5 183.5 157.0Q183.0 157.5 180.75 158.0Q178.5 158.5 177.5 158.5Q180.5 168.0 194.0 181.5Q203.5 191.0 209.5 200.75Q215.5 210.5 215.5 213.0Q215.5 215.0 211.75 220.0Q208.0 225.0 203.0 229.5Q197.5 234.0 190.75 241.5Q184.0 249.0 178.75 256.75Q173.5 264.5 171.0 269.5Q178.0 266.0 191.0 256.75Q204.0 247.5 217.75 236.75Q231.5 226.0 241.25 217.75Q251.0 209.5 251.0 208.0Q251.0 204.5 235.5 189.0L230.0 183.5Q222.5 176.5 215.25 170.5Q208.0 164.5 204.0 162.5ZM282.5 277.0Q282.5 270.0 282.75 264.75Q283.0 259.5 283.5 257.5Q282.5 258.0 280.25 259.5Q278.0 261.0 275.0 263.0Q273.0 265.0 270.25 266.5Q267.5 268.0 264.0 270.5L251.0 280.5L264.0 287.0Q277.5 295.5 282.0 297.5Q281.5 296.5 281.5 292.0Q281.5 288.5 281.75 284.75Q282.0 281.0 282.5 277.0ZM379.5 247.5Q377.5 247.5 374.25 246.75Q371.0 246.0 368.5 245.5L363.0 244.0Q359.0 243.0 355.0 242.25Q351.0 241.5 350.0 241.0L347.5 240.0Q347.0 241.5 346.0 247.0L344.0 264.5Q347.5 263.5 352.0 263.0L357.5 262.5Q364.5 260.0 375.25 257.75Q386.0 255.5 393.0 255.0Q397.5 254.0 400.75 254.0Q404.0 254.0 404.0 254.0Q404.0 254.0 397.5 252.25Q391.0 250.5 379.5 247.5ZM106.5 115.5 108.5 114.0Q108.5 113.5 108.75 113.0Q109.0 112.5 109.0 112.0Q102.5 118.5 92.5 126.0L74.5 140.5L82.0 143.0Q88.5 147.0 93.5 147.0Q96.0 147.0 97.25 144.5Q98.5 142.0 98.5 138.5Q98.5 134.0 100.75 127.5Q103.0 121.0 106.5 115.5ZM152.0 143.0Q153.5 138.5 155.75 134.0Q158.0 129.5 160.0 125.5Q158.5 127.5 156.75 128.75Q155.0 130.0 153.0 131.0L139.0 141.0L142.5 141.5Q147.0 143.0 152.0 143.0ZM218.5 132.0Q219.0 130.5 219.25 129.5Q219.5 128.5 219.5 127.5Q214.0 131.0 208.0 135.5Q202.0 140.0 201.0 141.5L203.0 142.0Q204.5 142.5 205.75 143.75Q207.0 145.0 208.0 145.0Q211.0 145.0 213.75 141.25Q216.5 137.5 218.5 132.0ZM271.5 135.0V135.5Q272.5 133.5 272.75 131.75Q273.0 130.0 273.5 128.5Q272.0 129.5 270.25 131.25Q268.5 133.0 266.5 135.0L260.0 140.0Q260.5 140.5 260.75 140.5Q261.0 140.5 261.5 141.0H262.5Q266.5 141.0 267.75 140.0Q269.0 139.0 271.5 135.0ZM388.5 136.5 383.5 135.0Q379.5 134.0 375.5 133.0Q371.5 132.0 367.5 131.0Q361.5 129.5 357.5 128.5Q353.5 127.5 352.0 127.0Q348.5 129.0 347.5 138.0Q346.5 147.0 346.5 151.0Q346.5 151.0 347.5 150.0Q350.5 149.0 355.75 148.0Q361.0 147.0 367.5 146.5L378.0 145.0L383.5 143.0Q393.0 141.5 399.0 140.25Q405.0 139.0 405.0 139.0Q401.5 138.0 388.5 136.5ZM456.5 243.5 455.0 200.5Q454.5 179.5 453.75 169.75Q453.0 160.0 451.75 156.75Q450.5 153.5 448.5 153.0H443.0Q431.0 153.0 427.25 162.75Q423.5 172.5 423.5 203.5Q423.5 224.0 424.25 231.5Q425.0 239.0 426.5 239.0H429.5Q431.0 239.0 433.25 239.25Q435.5 239.5 437.0 239.5Q439.0 240.5 442.0 241.0Q445.0 241.5 447.0 241.5ZM510.0 215.0V152.5H472.5V243.0L487.5 246.0Q489.5 246.0 491.5 246.25Q493.5 246.5 495.5 246.5Q498.0 247.0 499.75 247.25Q501.5 247.5 503.0 247.5Q508.0 247.5 509.0 241.25Q510.0 235.0 510.0 215.0ZM660.0 159.5 657.5 149.5 597.5 149.0H579.5Q560.5 149.0 547.25 149.25Q534.0 149.5 531.5 150.5Q530.0 152.5 529.25 159.75Q528.5 167.0 528.5 183.0V200.5L530.0 244.0L669.5 246.5L666.5 211.5Q666.0 196.0 663.5 180.5Q661.0 165.0 660.0 159.5ZM427.5 40.0Q427.5 37.5 428.0 37.0Q428.0 36.0 428.5 35.5H428.0Q427.5 35.5 426.75 35.0Q426.0 34.5 424.0 34.5Q412.0 34.5 412.0 37.5Q412.0 39.5 413.0 42.5Q414.0 45.5 415.5 49.5Q417.0 58.5 418.0 67.25Q419.0 76.0 419.0 85.0Q419.5 83.0 420.25 79.25Q421.0 75.5 422.0 69.0L423.5 62.0Q424.5 56.0 425.75 49.75Q427.0 43.5 427.5 40.0ZM451.5 88.0Q449.0 69.0 447.5 58.0Q446.0 47.0 445.0 45.0Q443.5 48.0 441.5 58.5Q439.5 69.0 437.0 82.25Q434.5 95.5 432.75 107.5Q431.0 119.5 430.0 125.5Q434.0 127.0 442.25 127.25Q450.5 127.5 452.5 127.5V126.5Q452.5 120.0 452.5 110.25Q452.5 100.5 451.5 88.0ZM476.5 36.5V34.5H468.5Q461.5 34.5 460.5 36.5L461.0 38.0V42.0Q461.5 44.0 462.0 46.75Q462.5 49.5 463.0 53.0Q463.5 55.0 463.75 57.25Q464.0 59.5 464.5 62.0Q464.5 64.0 465.5 66.75Q466.5 69.5 467.0 72.0Q467.5 73.5 467.5 76.0Q468.0 73.5 468.5 70.75Q469.0 68.0 469.5 64.5Q470.5 59.5 471.75 54.75Q473.0 50.0 474.5 46.5Q474.5 43.0 476.0 41.5Q476.0 40.5 476.25 39.0Q476.5 37.5 476.5 36.5ZM500.5 53.0Q496.0 34.0 495.5 34.0Q495.0 35.0 494.25 37.25Q493.5 39.5 492.5 44.0Q490.5 50.5 488.0 62.5Q485.5 74.5 483.25 88.0Q481.0 101.5 479.5 112.75Q478.0 124.0 478.0 129.0V129.5Q479.0 129.5 480.5 129.5Q482.0 129.5 484.0 130.0Q486.5 130.5 489.0 131.25Q491.5 132.0 493.5 132.0L508.0 133.5L506.5 106.0Q506.0 92.5 504.25 77.0Q502.5 61.5 500.5 53.0ZM531.0 35.5 531.5 34.5H523.5Q513.5 34.5 513.5 36.0L514.0 37.0Q514.0 37.5 514.5 38.25Q515.0 39.0 515.0 40.0Q516.0 44.0 518.0 52.5Q520.0 61.0 521.0 69.0Q522.0 75.5 522.5 78.75Q523.0 82.0 523.0 82.0Q524.0 70.5 525.75 58.25Q527.5 46.0 531.0 35.5ZM700.5 109.5Q700.5 108.5 695.5 107.75Q690.5 107.0 679.0 107.0Q670.0 107.0 664.75 107.75Q659.5 108.5 658.5 109.5L660.0 110.0V109.5Q662.5 111.0 665.5 118.25Q668.5 125.5 671.25 134.5Q674.0 143.5 676.0 151.5Q678.0 159.5 678.5 163.5Q679.5 161.5 681.25 156.25Q683.0 151.0 685.0 145.5Q688.0 134.0 691.75 125.0Q695.5 116.0 697.5 114.0Q698.5 114.0 699.5 112.25Q700.5 110.5 700.5 109.5ZM699.5 43.5Q697.5 44.0 694.25 44.0Q691.0 44.0 686.5 44.0Q674.0 44.0 673.0 44.5Q673.0 45.0 675.75 50.25Q678.5 55.5 679.0 56.0L682.5 64.5L689.5 55.5Q690.5 54.0 691.75 52.75Q693.0 51.5 693.5 50.5Q695.5 48.0 697.25 46.25Q699.0 44.5 699.5 43.5ZM147.5 57.5Q147.5 53.5 150.5 51.0Q153.5 48.5 156.5 48.5Q165.5 48.5 165.5 57.5Q165.5 61.0 163.0 66.5Q160.5 72.0 155.0 77.0Q151.0 81.0 144.0 91.0Q137.0 101.0 130.25 112.25Q123.5 123.5 119.5 131.0Q129.5 125.5 146.0 113.25Q162.5 101.0 181.0 85.5Q192.5 76.0 201.75 70.0Q211.0 64.0 214.0 64.0L217.5 65.0L218.0 68.0Q218.0 70.0 214.25 76.75Q210.5 83.5 205.5 90.0Q195.0 103.0 186.75 115.5Q178.5 128.0 176.0 135.0Q183.0 132.5 201.5 118.5Q220.0 104.5 240.0 86.0Q265.0 65.0 273.0 65.0Q278.5 65.0 278.5 71.0Q278.5 75.0 270.0 86.5Q260.5 99.0 251.75 111.5Q243.0 124.0 238.5 131.0Q245.5 127.0 257.75 117.75Q270.0 108.5 288.5 93.5L291.5 91.5Q301.5 84.0 309.75 78.5Q318.0 73.0 322.0 73.0L324.5 74.0L326.0 77.0Q326.0 80.5 320.5 89.0Q315.0 97.5 306.5 108.5Q289.5 131.5 289.5 145.5Q289.5 158.5 306.0 177.5Q324.0 198.0 324.0 204.5Q324.0 210.0 319.0 210.0Q311.5 210.0 293.5 189.0Q278.0 172.0 262.75 162.25Q247.5 152.5 237.5 152.5Q235.0 152.5 235.0 153.5Q235.0 157.5 239.5 164.25Q244.0 171.0 251.0 179.0L259.0 188.5Q263.5 195.0 268.0 200.5Q272.5 206.0 274.5 209.0Q277.5 215.0 277.5 218.0Q277.5 225.0 267.0 225.0Q259.5 225.0 253.0 234.0Q243.5 244.0 235.0 256.75Q226.5 269.5 225.5 274.0Q230.0 273.0 240.75 266.5Q251.5 260.0 263.75 251.0Q276.0 242.0 285.75 233.0Q295.5 224.0 297.5 218.0Q300.5 209.5 305.5 209.5Q309.0 209.5 311.5 213.0Q313.0 213.5 313.25 215.75Q313.5 218.0 313.5 219.0Q313.5 221.5 312.5 224.75Q311.5 228.0 310.5 232.0Q305.5 240.0 302.75 253.5Q300.0 267.0 300.0 278.5Q300.0 283.5 300.5 288.0Q301.0 292.5 302.5 295.0Q306.5 304.5 328.25 326.5Q350.0 348.5 388.0 382.5Q401.0 394.5 410.25 405.25Q419.5 416.0 419.5 420.0L417.5 423.0H415.5Q412.0 423.0 401.25 415.5Q390.5 408.0 378.5 397.0Q365.5 385.0 346.75 368.75Q328.0 352.5 306.5 336.25Q285.0 320.0 263.75 307.25Q242.5 294.5 224.5 289.5Q227.0 293.0 227.0 299.0L226.5 301.0Q228.5 306.0 243.0 321.0Q254.0 332.0 260.0 340.75Q266.0 349.5 266.0 354.0Q266.0 360.0 258.5 360.0Q257.0 360.0 249.0 352.75Q241.0 345.5 231.5 336.0Q213.0 315.5 201.0 306.75Q189.0 298.0 176.0 295.5Q174.5 294.5 173.0 294.5Q171.5 294.5 170.0 294.5Q167.0 294.5 167.0 295.5Q167.0 299.0 171.25 304.75Q175.5 310.5 183.0 319.0Q194.0 331.0 202.0 343.25Q210.0 355.5 210.0 359.5Q210.0 365.0 205.0 365.0Q203.5 365.0 198.0 360.25Q192.5 355.5 185.5 348.0Q183.0 345.5 180.0 342.5Q177.0 339.5 174.0 337.5Q163.0 326.0 152.25 316.25Q141.5 306.5 135.5 304.5Q129.0 300.5 121.25 299.0Q113.5 297.5 106.0 297.5Q107.0 301.0 110.25 306.5Q113.5 312.0 116.75 316.5Q120.0 321.0 121.0 321.0Q124.5 321.0 127.0 324.0Q129.5 327.0 129.5 331.0Q129.5 333.0 143.75 346.75Q158.0 360.5 178.5 377.0Q208.0 403.0 222.25 419.25Q236.5 435.5 236.5 440.5Q236.5 446.5 230.5 446.5Q228.5 446.5 219.5 439.25Q210.5 432.0 199.0 421.0Q179.5 402.0 158.25 383.75Q137.0 365.5 116.5 349.5Q96.0 333.5 78.5 322.0Q61.0 310.5 49.5 305.5L10.0 287.0L32.0 277.5Q39.5 275.0 50.75 267.0Q62.0 259.0 73.25 249.25Q84.5 239.5 92.25 230.75Q100.0 222.0 101.0 217.5Q102.5 210.0 106.5 206.5Q110.5 203.0 113.5 203.0Q121.0 203.0 121.0 213.0Q121.0 215.0 118.5 222.0Q116.0 229.0 113.5 237.5Q106.5 255.5 106.5 275.5Q109.5 275.0 119.25 268.75Q129.0 262.5 141.75 253.25Q154.5 244.0 166.25 234.5Q178.0 225.0 186.0 218.0Q194.0 211.0 194.0 209.5Q194.0 206.5 186.25 198.25Q178.5 190.0 167.5 180.5Q156.5 171.0 147.0 164.0Q137.5 157.0 134.0 157.0Q131.0 157.0 126.25 156.5Q121.5 156.0 118.0 154.5L117.5 153.5V154.5Q117.5 159.5 121.75 167.75Q126.0 176.0 134.0 184.5Q148.5 201.5 156.5 213.25Q164.5 225.0 164.5 230.5Q164.5 233.0 163.0 235.75Q161.5 238.5 158.0 238.5Q155.5 238.5 152.5 235.75Q149.5 233.0 147.0 229.5Q143.5 224.0 135.0 214.0Q126.5 204.0 116.0 193.25Q105.5 182.5 96.25 174.0Q87.0 165.5 82.0 162.5Q77.5 161.0 69.75 158.75Q62.0 156.5 54.5 155.0L28.5 149.5L60.0 129.5Q72.0 121.5 86.75 110.0Q101.5 98.5 115.5 86.75Q129.5 75.0 138.5 67.0Q147.5 59.0 147.5 57.5ZM480.5 13.0 481.0 12.0Q481.5 12.0 482.25 11.75Q483.0 11.5 483.5 11.5Q486.5 10.0 491.0 10.0Q493.0 10.0 495.0 10.25Q497.0 10.5 499.0 11.5Q509.0 16.5 520.5 16.5Q524.5 16.5 528.0 15.75Q531.5 15.0 533.5 13.0Q536.5 12.0 539.5 11.0Q542.5 10.0 544.5 10.0Q547.5 10.0 550.0 12.25Q552.5 14.5 552.5 18.0Q552.5 22.0 550.0 31.75Q547.5 41.5 545.0 52.5Q542.5 65.0 539.25 81.75Q536.0 98.5 535.0 108.5L532.0 130.0H652.0L648.5 124.5Q646.5 119.5 642.5 114.25Q638.5 109.0 636.0 106.5Q628.5 100.5 628.5 95.0Q628.5 88.0 641.0 88.0Q643.5 88.0 647.25 88.0Q651.0 88.0 654.5 89.0L670.5 90.5L669.0 81.0Q665.0 66.5 660.25 57.0Q655.5 47.5 649.0 46.0Q636.0 43.0 636.0 36.5Q636.0 26.0 688.5 26.0Q710.5 26.0 725.75 28.0Q741.0 30.0 741.0 34.0Q741.0 36.5 736.5 39.75Q732.0 43.0 726.5 46.5L725.5 47.5Q719.5 50.0 711.25 58.0Q703.0 66.0 696.75 74.75Q690.5 83.5 690.5 88.5Q690.5 89.5 707.0 89.5Q717.0 89.5 724.0 92.0Q731.0 94.5 731.0 98.5Q731.0 102.0 728.5 104.5Q726.0 107.0 723.0 107.0Q721.0 107.0 716.5 115.25Q712.0 123.5 707.0 136.25Q702.0 149.0 697.5 162.5Q693.0 176.0 690.5 187.0Q689.0 198.0 687.75 210.75Q686.5 223.5 686.5 235.5Q687.0 246.0 687.0 256.5Q687.0 267.0 687.0 278.0Q687.0 298.0 685.75 314.5Q684.5 331.0 682.5 341.0Q680.5 351.0 677.5 351.0Q674.0 351.0 671.5 338.0Q669.0 325.0 669.0 304.5V266.0L648.0 263.5Q637.5 262.5 621.0 261.5Q604.5 260.5 588.5 260.5Q573.0 260.5 559.25 261.5Q545.5 262.5 539.0 263.5L527.5 266.0V299.0Q527.5 314.0 526.0 327.75Q524.5 341.5 522.0 345.5Q521.5 345.5 520.5 346.5Q518.5 347.5 518.0 347.5Q510.0 347.5 510.0 306.0V266.0H472.5V285.5Q472.5 288.0 472.25 297.0Q472.0 306.0 471.0 316.75Q470.0 327.5 468.0 335.5Q466.0 343.5 462.5 343.5Q459.0 343.5 457.75 335.5Q456.5 327.5 456.5 308.0Q456.5 292.0 455.5 280.75Q454.5 269.5 453.5 267.5H449.5Q446.0 267.5 442.75 267.5Q439.5 267.5 437.0 268.0L423.5 270.5V307.5Q423.5 327.5 421.0 339.25Q418.5 351.0 415.0 351.0Q410.5 351.0 408.5 338.25Q406.5 325.5 406.5 306.5V271.5L392.5 273.5Q374.5 275.0 358.75 280.0Q343.0 285.0 337.5 288.0Q333.0 292.0 327.5 292.0Q319.5 292.0 319.5 282.5Q319.5 280.0 320.5 276.75Q321.5 273.5 323.5 270.5Q326.0 266.5 327.0 260.75Q328.0 255.0 328.0 249.0V234.0Q328.0 219.0 337.5 219.0Q341.5 219.0 347.25 221.0Q353.0 223.0 360.5 225.5L365.0 227.0Q375.5 230.0 386.0 232.25Q396.5 234.5 400.0 234.5Q403.5 234.5 404.75 232.75Q406.0 231.0 406.25 222.5Q406.5 214.0 406.5 195.0V157.0L395.0 158.5Q375.0 161.5 358.0 166.25Q341.0 171.0 338.0 173.5Q335.0 178.5 331.5 178.5Q323.0 178.5 323.0 169.0Q323.0 166.5 323.5 164.0Q324.0 161.5 325.5 159.5H324.5Q327.0 155.5 329.0 146.5Q331.0 137.5 331.0 129.0Q331.0 114.5 332.25 110.0Q333.5 105.5 339.5 105.5Q340.5 105.5 342.0 105.5Q343.5 105.5 344.5 106.0Q361.0 111.5 379.25 115.5Q397.5 119.5 405.0 120.5Q405.0 112.5 403.75 100.0Q402.5 87.5 400.5 74.25Q398.5 61.0 395.75 49.75Q393.0 38.5 390.0 32.5L374.5 14.5L431.0 15.5Q447.5 15.5 462.75 14.75Q478.0 14.0 480.5 13.0ZM426.5 253.5Q427.5 253.5 427.5 254.5Q427.5 255.0 426.5 255.0Q426.5 254.0 426.5 253.75Q426.5 253.5 426.5 253.5Z" fill="black" /></svg>