<svg xmlns="http://www.w3.org/2000/svg" width="746.0" height="461.5" viewBox="0 0 746.0 461.5"><path d="M67.5 345.0Q61.5 344.0 55.0 342.0Q48.5 340.0 44.0 339.0L42.0 338.5Q41.0 338.0 39.5 338.0V365.5L58.0 357.0Q67.5 353.5 72.5 351.0Q77.5 348.5 78.5 348.0Q78.0 347.0 74.75 346.25Q71.5 345.5 67.5 345.0ZM78.0 197.0 62.5 190.5Q52.0 186.5 45.0 184.0Q38.0 181.5 38.0 181.5Q38.5 184.5 39.0 189.25Q39.5 194.0 39.5 200.0V216.0ZM82.0 280.0Q80.5 279.0 74.25 277.25Q68.0 275.5 60.0 274.0L39.5 267.0V282.5Q39.5 295.0 40.5 295.0H41.0L45.0 294.5Q47.5 293.5 52.25 291.75Q57.0 290.0 61.0 288.0L67.5 286.0Q71.5 285.0 76.0 282.75Q80.5 280.5 82.0 280.0ZM236.0 234.5 230.5 205.5H162.5Q141.5 205.5 123.0 206.75Q104.5 208.0 98.5 210.5Q82.0 216.0 66.25 224.0Q50.5 232.0 45.0 239.0Q42.5 240.5 42.5 241.5Q42.5 248.0 53.75 253.0Q65.0 258.0 83.0 261.25Q101.0 264.5 121.75 266.5Q142.5 268.5 161.75 269.5Q181.0 270.5 195.25 270.75Q209.5 271.0 213.5 271.0Q224.0 271.0 231.0 271.0Q238.0 271.0 239.5 270.5V267.0Q239.5 262.0 238.5 253.0Q237.5 244.0 236.0 234.5ZM243.0 290.5H195.5Q174.0 290.5 156.75 289.5Q139.5 288.5 134.5 287.0Q128.0 287.5 113.25 290.75Q98.5 294.0 83.0 298.5Q67.5 303.0 56.25 307.5Q45.0 312.0 45.0 315.5Q45.0 321.0 57.5 325.0Q70.0 329.0 89.25 331.25Q108.5 333.5 129.0 334.5Q149.5 335.5 165.5 336.0Q181.5 336.5 187.0 336.5L240.5 336.0ZM327.0 287.0Q326.5 286.5 324.0 285.75Q321.5 285.0 319.0 283.5Q313.0 281.0 307.0 278.25Q301.0 275.5 299.0 275.5Q298.0 275.5 298.0 290.5Q298.0 296.5 297.25 301.0Q296.5 305.5 295.5 307.5Q297.5 306.5 304.0 303.25Q310.5 300.0 317.0 296.0Q322.5 293.5 328.25 291.75Q334.0 290.0 334.0 290.0Q334.0 290.0 331.75 288.75Q329.5 287.5 327.0 287.0ZM499.5 302.5 483.0 286.5Q473.5 277.0 466.75 270.75Q460.0 264.5 460.0 264.5Q457.5 273.0 453.0 279.0Q452.5 280.5 451.75 282.0Q451.0 283.5 450.0 286.0Q449.0 287.5 447.75 289.5Q446.5 291.5 445.0 293.0Q444.5 294.0 443.75 295.25Q443.0 296.5 442.5 297.5L439.5 302.5ZM84.5 122.5Q76.5 118.5 66.25 114.75Q56.0 111.0 47.5 111.0Q46.0 112.5 45.5 116.75Q45.0 121.0 45.0 126.5Q45.0 130.0 45.25 133.75Q45.5 137.5 46.0 138.0Q49.0 137.5 55.5 134.75Q62.0 132.0 70.0 128.5Q74.0 126.0 77.25 125.0Q80.5 124.0 82.0 123.5Q83.5 122.5 84.0 122.5Q84.5 122.5 84.5 122.5ZM211.0 147.5 202.5 129.5H160.5Q134.0 129.5 118.75 132.75Q103.5 136.0 87.0 143.0Q68.5 151.0 59.5 154.75Q50.5 158.5 50.5 161.5Q58.0 170.0 73.0 175.0Q88.0 180.0 105.75 182.25Q123.5 184.5 140.0 185.0Q156.5 185.5 166.5 185.5L223.5 186.0L222.5 178.0Q222.0 172.5 218.5 163.5Q215.0 154.5 211.0 147.5ZM256.0 142.0Q256.0 140.0 256.75 139.0Q257.5 138.0 257.5 137.5L258.0 136.0Q258.0 135.0 242.5 135.0H228.5L237.5 165.5Q240.5 175.5 243.0 184.0Q245.5 192.5 246.0 196.0Q248.0 185.0 249.75 174.25Q251.5 163.5 254.0 153.5L255.0 147.5Q256.0 143.5 256.0 142.0ZM253.0 53.5Q252.5 52.0 239.0 52.0Q226.0 52.0 226.0 53.5Q226.0 55.5 228.0 58.5Q230.0 61.5 233.0 65.5L242.5 77.5L246.0 71.0Q248.5 67.0 250.5 61.5Q252.5 56.0 253.0 53.5ZM330.5 143.0H329.5L324.0 141.0Q319.0 138.5 315.75 137.0Q312.5 135.5 310.0 135.5Q307.5 135.5 307.5 151.0Q307.5 156.5 307.5 160.75Q307.5 165.0 307.0 167.0Q310.5 166.0 319.75 162.0Q329.0 158.0 337.25 154.0Q345.5 150.0 345.5 149.5Q345.5 149.5 341.5 147.25Q337.5 145.0 330.5 143.0ZM489.5 145.0 500.0 140.5 456.0 126.0Q457.0 128.0 457.0 132.75Q457.0 137.5 457.0 144.0V159.0Q458.0 159.0 459.5 157.5Q463.5 156.5 472.5 152.5Q481.5 148.5 489.5 145.0ZM686.0 103.0Q684.0 103.0 678.75 103.25Q673.5 103.5 667.5 103.5H652.5L658.0 113.5L661.5 118.0Q669.0 129.5 672.0 129.5Q674.0 129.5 677.5 122.5L683.0 112.0Q684.0 106.5 685.5 105.0Q685.5 104.0 685.75 103.75Q686.0 103.5 686.0 103.0ZM689.0 190.0V189.0Q690.0 188.0 690.0 186.5H673.5Q663.5 186.5 659.5 186.75Q655.5 187.0 655.5 187.0Q657.0 191.5 661.25 201.25Q665.5 211.0 670.25 221.25Q675.0 231.5 678.0 238.5Q678.5 236.0 679.0 232.25Q679.5 228.5 680.0 224.0Q680.5 223.0 680.5 221.75Q680.5 220.5 681.0 219.0Q682.0 216.5 682.5 214.5Q683.0 212.5 683.5 210.5Q686.0 204.0 687.25 198.25Q688.5 192.5 689.0 190.0ZM345.5 367.0V362.5Q344.0 362.5 341.75 364.25Q339.5 366.0 336.0 371.0Q334.5 372.0 333.0 373.75Q331.5 375.5 331.5 375.5Q333.5 376.0 336.5 376.5Q339.5 377.0 341.5 377.0Q345.5 377.0 345.5 367.0ZM454.5 367.0V362.5Q450.5 362.5 444.5 371.0Q443.5 372.0 442.0 373.75Q440.5 375.5 440.5 375.5Q441.0 375.5 442.25 375.5Q443.5 375.5 444.0 376.0Q446.0 376.0 447.0 376.5Q452.5 376.5 453.5 375.25Q454.5 374.0 454.5 367.0ZM198.5 56.0 169.0 32.5 238.0 34.0Q263.0 34.5 280.5 38.25Q298.0 42.0 298.0 43.0Q298.0 45.0 293.25 49.25Q288.5 53.5 282.5 56.0Q274.5 60.0 268.25 69.75Q262.0 79.5 258.75 90.5Q255.5 101.5 255.5 111.0Q255.5 113.5 261.0 113.5H266.5Q267.5 113.5 269.0 113.25Q270.5 113.0 271.5 113.0Q273.5 112.0 275.0 112.0Q287.0 112.0 287.0 119.0Q287.0 119.0 284.0 126.75Q281.0 134.5 276.0 144.0Q271.5 156.5 267.75 182.5Q264.0 208.5 261.75 242.5Q259.5 276.5 259.5 314.0Q259.5 326.0 259.75 338.25Q260.0 350.5 261.0 363.0Q261.5 374.5 261.5 384.0Q261.5 393.5 261.5 400.5Q261.5 417.5 259.5 425.0Q257.5 432.5 253.0 432.5H251.0Q247.5 430.0 244.75 417.75Q242.0 405.5 242.0 388.5V356.5H183.0Q131.5 356.5 96.5 364.5Q61.5 372.5 41.0 387.5Q34.5 392.5 29.0 395.0Q23.5 397.5 20.0 397.5Q12.0 397.5 12.0 389.0Q12.0 387.5 12.0 385.25Q12.0 383.0 12.5 381.0Q18.0 369.0 18.75 356.25Q19.5 343.5 19.5 331.5Q14.5 331.5 12.25 327.0Q10.0 322.5 10.0 317.0Q10.0 313.0 12.0 308.0Q14.0 303.0 17.5 300.5Q19.0 299.0 19.5 292.75Q20.0 286.5 20.0 280.0Q20.0 260.5 16.0 254.5Q11.0 250.0 11.0 243.5Q11.0 242.0 12.25 238.25Q13.5 234.5 16.0 231.5Q19.5 222.5 19.5 200.0V173.5Q19.5 160.5 21.0 151.5Q22.5 142.5 26.0 141.0Q26.5 141.0 27.5 131.75Q28.5 122.5 28.5 111.0Q28.5 96.0 30.0 85.25Q31.5 74.5 33.5 74.5Q36.0 74.5 41.5 78.25Q47.0 82.0 52.0 86.0Q56.5 90.0 68.25 95.5Q80.0 101.0 91.0 104.5Q100.5 106.5 118.25 108.0Q136.0 109.5 156.5 110.5Q177.0 111.5 194.5 111.5Q210.0 111.5 221.0 110.75Q232.0 110.0 235.5 108.5Q235.5 103.5 229.5 94.0Q223.5 84.5 215.25 74.0Q207.0 63.5 198.5 56.0ZM460.5 17.0Q463.0 13.0 466.5 11.5Q470.0 10.0 473.0 10.0H476.5Q479.5 12.5 479.5 16.5Q479.5 20.0 472.5 29.5Q465.5 39.0 455.5 51.0Q441.5 65.0 435.75 73.0Q430.0 81.0 430.0 87.5Q430.0 89.5 431.0 92.25Q432.0 95.0 432.5 97.0Q433.0 97.0 433.5 97.5Q439.5 91.5 443.0 91.5Q446.5 91.5 449.75 93.75Q453.0 96.0 458.5 101.0Q463.5 105.5 475.5 111.5Q487.5 117.5 500.5 122.0Q513.5 126.5 520.5 126.5Q521.5 126.5 521.5 125.5Q521.5 122.5 515.25 117.25Q509.0 112.0 500.25 106.75Q491.5 101.5 482.75 97.75Q474.0 94.0 468.5 94.0Q459.0 94.0 454.0 92.5Q449.0 91.0 449.0 86.0Q449.0 80.5 457.75 73.75Q466.5 67.0 484.5 56.0Q502.0 47.5 518.25 37.25Q534.5 27.0 542.5 21.0Q554.0 11.0 560.5 11.0Q566.5 11.0 566.5 17.5Q566.5 20.5 559.0 30.75Q551.5 41.0 540.0 52.5Q529.0 63.5 522.5 72.25Q516.0 81.0 516.0 86.5Q516.0 91.0 518.75 95.5Q521.5 100.0 526.0 105.0Q530.0 108.5 533.75 113.25Q537.5 118.0 540.5 121.5L543.5 125.0Q546.5 128.5 557.5 130.25Q568.5 132.0 598.5 132.0Q646.0 132.0 646.0 127.0Q646.0 125.5 640.5 120.5Q635.0 115.5 627.0 109.0Q617.0 102.0 610.75 96.0Q604.5 90.0 604.5 86.5Q604.5 80.5 614.0 80.5Q619.5 80.5 626.0 82.0Q633.0 83.0 650.25 84.25Q667.5 85.5 686.0 85.5Q711.5 85.5 723.75 87.5Q736.0 89.5 736.0 95.0Q736.0 101.0 719.5 107.0Q707.0 112.0 698.0 124.75Q689.0 137.5 686.5 155.0L684.0 167.0H730.5L712.5 192.0Q707.0 201.5 703.0 213.0Q699.0 224.5 696.5 241.5Q694.0 258.5 693.0 284.25Q692.0 310.0 692.0 348.5Q692.0 374.5 691.25 396.25Q690.5 418.0 689.25 431.0Q688.0 444.0 685.5 444.0Q682.0 444.0 678.75 433.5Q675.5 423.0 673.5 407.5Q672.0 388.5 669.25 382.5Q666.5 376.5 659.5 375.5Q653.5 375.0 635.75 368.0Q618.0 361.0 599.0 353.0L591.5 350.5Q558.0 337.0 539.5 330.25Q521.0 323.5 510.5 323.5Q506.0 323.5 502.25 325.75Q498.5 328.0 495.0 331.5Q485.5 342.5 479.25 352.25Q473.0 362.0 473.0 369.0Q473.0 380.0 483.5 391.75Q494.0 403.5 513.5 418.5Q522.0 424.5 528.5 432.25Q535.0 440.0 535.0 443.0Q535.0 451.5 529.0 451.5Q525.0 451.5 516.5 443.5Q508.0 433.5 491.5 423.0Q475.0 412.5 457.5 404.0Q440.0 395.5 427.0 391.5L389.5 381.0L413.0 368.0Q425.5 359.5 439.0 349.75Q452.5 340.0 462.5 332.25Q472.5 324.5 474.0 322.0H459.5Q451.0 322.0 442.0 322.75Q433.0 323.5 427.5 326.0Q416.5 329.5 411.5 329.5Q404.0 329.5 404.0 323.0Q404.0 317.5 410.0 310.0Q418.5 300.5 418.5 298.5Q418.5 295.5 393.0 295.5Q368.5 295.5 342.75 306.25Q317.0 317.0 302.0 332.5Q296.0 337.5 290.5 341.75Q285.0 346.0 282.5 346.0Q279.5 346.0 278.75 337.25Q278.0 328.5 278.0 316.0Q278.0 303.0 278.25 286.75Q278.5 270.5 279.25 257.0Q280.0 243.5 281.5 239.0Q282.5 238.0 283.5 238.0Q287.0 238.0 293.0 241.25Q299.0 244.5 305.0 250.5Q316.0 262.0 335.75 268.5Q355.5 275.0 377.25 277.75Q399.0 280.5 415.5 281.0Q429.5 280.5 437.75 268.25Q446.0 256.0 450.5 245.0Q457.0 224.0 465.0 224.0Q472.5 224.0 472.5 240.0Q472.5 250.0 486.75 264.25Q501.0 278.5 525.75 294.5Q550.5 310.5 582.0 325.75Q613.5 341.0 648.0 353.0L672.0 362.5L670.0 321.0Q669.0 297.5 664.0 273.0Q659.0 248.5 651.5 227.75Q644.0 207.0 635.5 194.5Q626.0 183.0 626.0 176.0Q626.0 170.0 631.5 168.5Q637.0 167.0 649.5 167.0Q666.0 167.0 666.0 164.0Q666.0 163.0 665.5 161.25Q665.0 159.5 664.5 158.0L663.0 156.0Q662.0 153.5 656.5 152.25Q651.0 151.0 637.5 150.5Q624.0 150.0 598.5 150.0Q545.5 150.0 513.5 157.5Q481.5 165.0 457.0 183.0L431.5 203.5L437.0 157.5L410.0 157.0Q383.0 157.0 359.75 163.5Q336.5 170.0 316.0 189.0L289.5 213.5L290.0 153.0Q291.0 129.0 293.25 112.0Q295.5 95.0 299.0 95.0Q301.0 95.0 305.75 99.75Q310.5 104.5 314.0 110.5Q321.5 122.0 348.0 129.75Q374.5 137.5 408.0 137.5Q425.5 137.5 432.25 136.5Q439.0 135.5 439.0 134.5Q439.0 129.5 430.5 121.0Q422.0 112.5 411.0 104.75Q400.0 97.0 392.0 95.5Q390.5 95.0 389.5 95.0Q388.5 95.0 387.5 94.5Q385.5 94.0 383.0 93.5Q380.5 93.0 379.0 92.5Q374.5 90.5 370.5 90.5Q366.5 89.5 366.5 85.0Q366.5 82.0 378.0 72.75Q389.5 63.5 408.0 52.5Q426.5 41.5 442.0 30.75Q457.5 20.0 460.5 17.0ZM360.0 327.5Q368.5 319.0 377.75 313.25Q387.0 307.5 390.0 307.5L392.0 312.0Q392.0 314.5 388.25 323.5Q384.5 332.5 378.0 344.0Q371.0 355.5 368.5 362.25Q366.0 369.0 366.0 373.0Q366.0 376.5 368.0 380.5L368.5 383.5Q372.5 388.5 382.0 397.5Q391.5 406.5 402.5 413.5Q414.0 421.0 422.75 429.75Q431.5 438.5 431.5 441.0Q431.5 444.5 430.75 446.75Q430.0 449.0 426.0 449.0Q422.5 449.0 412.25 443.0Q402.0 437.0 380.0 421.5Q366.5 412.5 348.25 403.5Q330.0 394.5 318.5 391.5L281.0 384.0L315.0 360.5Q324.5 355.0 337.75 344.5Q351.0 334.0 360.0 327.5ZM495.5 73.5Q495.5 74.5 491.5 74.5H489.5V75.5H491.5Q491.5 74.5 493.0 74.0Q494.5 73.5 495.5 73.5Z" fill="black" /></svg>