<svg xmlns="http://www.w3.org/2000/svg" width="677.5" height="457.0" viewBox="0 0 677.5 457.0"><path d="M87.5 327.0H87.0L83.0 325.5Q76.5 322.5 66.5 318.0Q56.5 313.5 48.0 309.5L26.5 299.5V358.5L40.5 349.5Q44.0 347.0 53.5 342.5Q63.0 338.0 73.5 333.75Q84.0 329.5 90.5 328.5Q90.0 328.5 87.5 327.0ZM60.0 168.5H59.5L60.0 168.0L59.0 168.5Q51.5 171.5 51.5 175.5Q51.5 176.0 51.75 176.5Q52.0 177.0 52.0 177.0Q56.0 176.0 60.0 168.5ZM348.0 125.0Q340.5 122.5 332.25 121.75Q324.0 121.0 316.0 121.0Q316.5 124.0 319.0 131.0Q321.5 138.0 324.5 145.5L331.0 162.0L339.0 145.5Q342.5 140.0 344.75 134.25Q347.0 128.5 348.0 125.0ZM581.5 97.0 574.0 73.5 475.0 74.5Q436.0 74.5 412.25 75.25Q388.5 76.0 374.25 77.75Q360.0 79.5 350.75 83.25Q341.5 87.0 331.5 93.0Q320.0 99.5 320.0 103.5Q320.0 107.5 348.5 107.5Q360.0 107.5 367.75 109.25Q375.5 111.0 375.5 113.5Q375.5 115.5 373.25 120.0Q371.0 124.5 367.5 129.5L364.5 132.5Q358.0 141.5 354.0 151.0Q350.0 160.5 347.5 174.5Q345.0 188.5 343.5 211.0Q342.0 233.5 341.0 269.0L338.0 361.5L376.5 373.5Q390.5 378.0 401.25 380.75Q412.0 383.5 425.25 384.75Q438.5 386.0 458.75 386.25Q479.0 386.5 511.0 386.5H604.5V291.0Q604.5 255.0 603.25 228.75Q602.0 202.5 599.5 181.5Q597.0 160.5 592.5 140.5Q588.0 120.5 581.5 97.0ZM48.5 109.5Q41.0 104.5 38.5 104.5Q36.5 104.5 36.5 113.0Q36.5 115.0 36.75 117.75Q37.0 120.5 37.5 124.5Q38.5 136.0 41.25 141.5Q44.0 147.0 51.5 147.0Q57.0 147.0 65.5 144.75Q74.0 142.5 86.0 139.0L104.5 131.5L87.0 126.0Q76.0 122.0 64.75 117.5Q53.5 113.0 48.5 109.5ZM348.0 51.0Q344.0 49.0 339.0 47.0Q335.0 45.5 331.5 44.25Q328.0 43.0 325.5 42.0Q320.5 40.0 316.0 38.5Q311.5 37.0 309.5 36.5Q309.5 36.0 308.5 36.0Q307.5 36.0 307.5 50.5V60.0Q307.5 71.0 308.0 78.75Q308.5 86.5 308.5 86.5Q309.5 85.5 312.0 84.5Q314.5 83.5 316.5 82.5Q319.0 81.5 321.0 80.0Q323.0 78.5 325.5 77.0L328.5 75.5Q338.5 70.0 348.75 66.5Q359.0 63.0 362.0 63.0Q366.5 63.0 368.5 62.75Q370.5 62.5 370.5 62.5Q370.5 58.5 348.0 51.0ZM627.5 72.5 642.0 44.0Q640.0 44.0 631.75 43.75Q623.5 43.5 611.5 43.5Q593.5 43.5 587.25 43.75Q581.0 44.0 581.0 46.0L581.5 47.0V48.0Q582.5 51.0 585.0 59.0Q587.5 67.0 590.5 77.0Q592.5 82.0 593.75 86.25Q595.0 90.5 597.0 96.0Q600.5 108.0 603.5 118.0Q606.5 128.0 608.5 133.0Q609.0 130.5 609.5 127.25Q610.0 124.0 610.5 120.0Q612.5 111.5 617.25 97.5Q622.0 83.5 627.5 72.5ZM323.0 372.0Q314.5 365.5 310.0 365.5Q307.0 365.5 307.0 385.0V392.5Q307.5 397.5 307.5 403.5Q307.5 409.5 307.5 413.0Q307.5 419.0 307.0 421.0Q308.0 420.0 310.0 418.5Q312.0 417.0 315.0 415.0Q316.0 414.0 317.75 413.25Q319.5 412.5 320.5 411.0Q327.0 406.0 338.5 401.5Q350.0 397.0 360.0 394.0L373.5 390.5L357.0 385.5Q345.5 381.0 335.75 377.5Q326.0 374.0 323.0 372.0ZM10.0 330.5V310.5Q10.0 296.5 11.0 286.75Q12.0 277.0 14.5 277.0Q17.0 277.0 23.5 280.25Q30.0 283.5 36.5 288.0Q69.5 305.0 98.25 312.75Q127.0 320.5 157.25 322.75Q187.5 325.0 224.5 326.0Q250.0 326.5 271.25 327.75Q292.5 329.0 306.75 330.5Q321.0 332.0 324.5 334.0V276.5Q324.5 245.0 323.5 224.5Q322.5 204.0 320.5 190.75Q318.5 177.5 315.5 168.0L307.5 146.0L228.0 144.5H196.0Q190.5 144.0 184.75 144.0Q179.0 144.0 174.0 144.0Q141.5 144.0 124.25 146.25Q107.0 148.5 97.75 153.75Q88.5 159.0 80.5 168.5Q73.5 177.0 70.0 184.0Q66.5 191.0 65.0 202.25Q63.5 213.5 63.0 236.0Q62.0 257.5 59.5 272.75Q57.0 288.0 53.5 288.0Q50.0 288.0 47.75 274.5Q45.5 261.0 45.5 241.5Q45.5 211.0 43.25 200.0Q41.0 189.0 35.0 189.0H32.5Q28.5 189.0 26.0 181.0Q23.5 173.0 22.25 160.5Q21.0 148.0 20.25 134.5Q19.5 121.0 19.5 109.75Q19.5 98.5 19.5 93.0Q19.5 83.0 21.5 81.0L23.0 80.0Q25.0 80.0 28.75 82.0Q32.5 84.0 37.5 86.5Q40.0 87.0 42.0 88.25Q44.0 89.5 46.5 90.5Q55.0 95.5 73.0 102.75Q91.0 110.0 106.0 115.5Q118.0 119.0 128.5 121.5Q139.0 124.0 151.0 125.25Q163.0 126.5 180.25 127.25Q197.5 128.0 223.5 128.0Q264.0 128.0 281.5 127.0Q299.0 126.0 299.0 124.0Q299.0 122.5 295.0 120.0Q290.5 117.5 290.5 105.0Q290.5 102.5 290.75 99.25Q291.0 96.0 291.0 93.0L291.5 89.5Q293.0 83.5 293.0 72.5Q293.0 65.0 292.25 57.0Q291.5 49.0 290.5 42.5Q289.0 35.5 288.5 28.75Q288.0 22.0 288.0 18.5Q288.0 14.5 289.5 12.5L289.0 12.0Q290.0 11.0 291.0 10.5Q291.5 10.5 291.75 10.25Q292.0 10.0 292.5 10.0L292.0 10.5Q292.5 10.5 292.5 10.5Q292.5 10.5 293.0 10.5Q295.5 10.5 303.0 13.5Q310.5 16.5 320.0 20.5Q339.5 30.5 356.25 37.0Q373.0 43.5 391.0 47.5Q409.0 51.5 431.75 53.25Q454.5 55.0 486.0 56.0Q491.5 56.0 496.75 56.0Q502.0 56.0 506.5 56.5Q518.0 56.5 526.5 56.75Q535.0 57.0 541.5 57.0Q557.5 57.0 560.5 55.75Q563.5 54.5 563.5 51.5Q563.5 42.5 559.5 41.0Q553.5 36.5 553.5 33.0Q553.5 26.0 582.5 26.0Q588.5 26.0 601.5 26.5Q614.5 27.0 629.0 27.75Q643.5 28.5 654.5 29.5Q665.5 30.5 667.5 32.0V33.0Q667.5 37.0 656.0 54.5Q651.0 61.0 644.25 74.25Q637.5 87.5 633.0 97.5Q629.5 106.5 627.25 116.25Q625.0 126.0 624.0 143.25Q623.0 160.5 622.25 192.0Q621.5 223.5 621.0 276.0Q620.5 319.0 619.0 354.5Q617.5 390.0 615.5 411.25Q613.5 432.5 611.5 432.5Q608.5 432.5 606.25 427.75Q604.0 423.0 603.0 415.5L601.5 404.5L502.5 403.0Q488.5 402.5 476.25 402.5Q464.0 402.5 454.0 402.5Q417.0 402.5 393.75 405.25Q370.5 408.0 354.5 414.0Q338.5 420.0 324.0 430.0Q313.0 437.0 304.25 442.0Q295.5 447.0 294.0 447.0Q290.5 447.0 290.5 439.0Q290.5 435.0 290.75 430.0Q291.0 425.0 291.5 419.5Q293.0 412.0 293.0 401.5Q293.0 393.5 292.25 385.25Q291.5 377.0 290.5 370.5L289.5 366.5Q288.0 358.0 288.0 352.0Q288.0 342.0 295.5 342.0Q298.0 342.0 302.75 344.0Q307.5 346.0 314.0 348.5L324.5 354.5V336.0Q319.5 338.5 288.0 340.5Q256.5 342.5 212.0 342.5Q182.0 342.5 155.0 343.25Q128.0 344.0 108.75 345.25Q89.5 346.5 83.5 348.0Q76.5 349.5 64.25 356.25Q52.0 363.0 42.5 369.5Q34.5 376.0 26.25 381.25Q18.0 386.5 16.0 386.5H15.0Q13.0 385.5 12.0 368.75Q11.0 352.0 10.0 330.5Z" fill="black" /></svg>