<svg xmlns="http://www.w3.org/2000/svg" width="556.0" height="391.5" viewBox="0 0 556.0 391.5"><path d="M112.0 274.0Q109.5 273.0 98.5 269.25Q87.5 265.5 73.5 261.0L36.5 250.0V303.0L54.5 293.0Q64.5 288.0 77.0 283.5Q89.5 279.0 97.5 278.0Q102.5 277.0 107.0 275.75Q111.5 274.5 112.0 274.0ZM112.0 128.5Q108.5 127.5 97.75 123.75Q87.0 120.0 73.5 115.5L36.5 104.5V157.5L54.5 147.5Q69.0 140.5 82.75 136.0Q96.5 131.5 112.0 128.5ZM171.5 265.5H242.5V136.0H171.5ZM331.5 265.5 330.0 200.0Q329.5 173.0 328.75 158.75Q328.0 144.5 327.0 139.25Q326.0 134.0 324.0 133.5Q320.5 133.5 309.5 133.75Q298.5 134.0 287.0 134.5L260.0 136.5V265.5ZM412.0 139.0Q408.5 135.0 395.5 133.0Q382.5 131.0 370.0 131.0Q363.5 131.0 358.25 131.75Q353.0 132.5 351.0 134.0Q350.0 134.5 349.0 154.25Q348.0 174.0 348.0 201.5V265.5H380.5Q399.5 265.5 407.0 263.75Q414.5 262.0 416.5 259.0Q417.5 255.0 418.5 237.5Q419.5 220.0 419.5 198.5Q419.5 166.5 418.0 154.5Q416.5 142.5 412.0 139.0ZM178.0 49.5V49.0Q176.5 49.0 170.0 48.5Q163.5 48.0 157.75 47.5Q152.0 47.0 151.0 47.0Q152.0 50.0 154.25 56.75Q156.5 63.5 159.5 71.5L166.0 86.5L169.0 76.5Q170.0 74.0 170.75 72.0Q171.5 70.0 172.0 68.0Q172.5 67.0 172.75 66.0Q173.0 65.0 173.5 64.5Q174.0 62.5 174.5 60.75Q175.0 59.0 175.5 58.0Q176.5 55.0 177.0 52.75Q177.5 50.5 178.0 49.5ZM211.5 40.5Q208.5 39.5 205.75 38.75Q203.0 38.0 203.0 38.0Q202.5 38.5 199.5 45.5Q196.5 52.5 192.75 63.0Q189.0 73.5 185.25 83.75Q181.5 94.0 179.0 101.0L173.5 119.0H242.5L239.5 101.0Q237.5 88.0 232.75 74.75Q228.0 61.5 222.25 51.75Q216.5 42.0 211.5 40.5ZM267.0 43.5 268.0 44.0Q268.0 43.0 254.0 43.0Q249.0 43.0 245.25 42.75Q241.5 42.5 239.5 42.0Q240.5 44.5 242.75 51.0Q245.0 57.5 248.0 65.5L254.0 80.5L259.0 66.0Q261.0 62.0 262.5 58.0Q264.0 54.0 265.0 50.5Q267.0 46.5 267.0 43.5ZM308.0 47.5Q303.0 40.5 298.75 36.5Q294.5 32.5 293.5 32.5Q292.5 32.5 288.25 42.0Q284.0 51.5 279.0 64.75Q274.0 78.0 269.5 90.75Q265.0 103.5 263.5 110.5V113.0Q263.5 115.0 269.75 116.0Q276.0 117.0 296.0 117.0H328.5L327.0 103.5Q326.5 83.0 322.5 71.5Q318.5 60.0 308.0 47.5ZM357.0 43.0H331.0L343.0 77.5L353.0 54.0Q354.5 50.0 355.75 46.75Q357.0 43.5 357.0 43.0ZM391.0 41.5Q387.5 37.5 385.0 35.0Q382.5 32.5 382.0 32.5Q379.5 32.5 374.5 43.25Q369.5 54.0 364.0 69.0Q358.5 84.0 354.75 97.5Q351.0 111.0 351.0 116.5V117.0Q354.5 118.0 364.0 118.5Q373.5 119.0 385.0 119.0H414.0V105.5Q413.5 95.0 410.25 82.25Q407.0 69.5 402.0 58.5Q397.0 47.5 391.0 41.5ZM440.0 38.0H413.5L420.5 56.5Q424.0 64.5 426.5 70.75Q429.0 77.0 429.0 77.0Q430.0 75.0 432.5 67.25Q435.0 59.5 437.25 50.75Q439.5 42.0 440.0 38.0ZM284.0 20.0Q284.0 11.0 290.0 11.0Q293.5 11.0 298.5 15.5Q302.0 18.5 313.75 20.75Q325.5 23.0 338.75 24.0Q352.0 25.0 358.0 25.0Q368.0 25.0 368.0 21.5Q368.0 10.0 375.5 10.0Q381.0 10.0 387.0 15.5Q388.5 18.0 400.0 20.0Q411.5 22.0 425.5 22.5Q441.0 23.5 452.0 24.5Q463.0 25.5 463.0 25.5Q465.0 25.5 465.0 28.5Q465.0 32.0 462.0 39.75Q459.0 47.5 455.0 57.5Q450.0 68.5 445.25 82.25Q440.5 96.0 439.5 104.0L436.5 119.0H488.0Q514.5 119.0 530.25 121.5Q546.0 124.0 546.0 127.5Q546.0 132.5 530.25 134.25Q514.5 136.0 488.0 136.0H436.5V195.5Q436.5 219.0 436.5 237.75Q436.5 256.5 436.0 261.5Q437.0 262.0 448.0 262.25Q459.0 262.5 475.0 263.5Q480.5 263.5 492.0 264.0Q503.5 264.5 515.75 265.75Q528.0 267.0 536.5 269.0Q545.0 271.0 545.0 274.0Q545.0 282.0 486.0 282.0H431.5V323.0Q431.5 344.0 429.0 357.25Q426.5 370.5 423.0 370.5Q419.5 370.5 416.75 357.25Q414.0 344.0 414.0 323.0V283.5L385.5 280.0Q379.0 279.0 372.75 279.0Q366.5 279.0 361.0 279.0Q353.0 279.0 352.0 279.5Q350.0 280.0 349.0 292.0Q348.0 304.0 348.0 320.0Q348.0 337.0 346.25 351.75Q344.5 366.5 340.0 368.0H339.5Q331.0 368.0 331.0 323.0V282.0H260.0V319.0Q260.0 336.0 258.25 350.75Q256.5 365.5 254.0 369.0L253.5 369.5Q252.0 372.0 250.75 373.75Q249.5 375.5 247.0 375.5Q244.5 375.5 243.25 371.5Q242.0 367.5 242.0 358.0Q242.0 352.5 242.0 343.0Q242.0 333.5 242.5 321.0L243.5 282.0H171.5V308.5Q171.5 328.0 169.5 344.5Q167.5 361.0 164.25 371.25Q161.0 381.5 157.0 381.5Q152.0 381.5 152.0 361.0Q152.0 355.0 152.0 346.75Q152.0 338.5 152.5 330.0L155.5 286.5L132.5 289.0Q122.5 290.0 108.25 293.0Q94.0 296.0 85.0 298.5Q74.5 302.0 61.25 311.0Q48.0 320.0 37.5 330.0Q27.0 340.0 24.5 347.0Q22.0 355.5 16.5 355.5Q14.5 355.5 13.0 354.0Q10.0 352.5 10.0 347.0Q10.0 340.0 14.0 332.0Q15.5 326.0 16.75 312.25Q18.0 298.5 18.0 284.0V257.0Q18.0 245.5 18.75 237.0Q19.5 228.5 21.0 227.0Q22.5 226.0 24.5 226.0Q27.5 226.0 34.25 228.0Q41.0 230.0 49.0 233.5Q56.5 237.5 71.25 243.0Q86.0 248.5 102.75 253.5Q119.5 258.5 133.0 262.0Q146.5 265.5 151.0 265.5Q153.0 265.5 153.5 251.75Q154.0 238.0 154.0 203.0V140.5L131.5 143.5Q122.0 144.5 108.0 147.25Q94.0 150.0 85.0 153.0Q75.0 156.0 61.75 165.0Q48.5 174.0 37.75 184.25Q27.0 194.5 24.5 201.5Q22.5 209.5 16.5 209.5Q15.5 209.5 14.5 208.5L13.0 208.0Q10.0 206.5 10.0 200.5Q10.0 194.5 14.0 186.5Q15.5 180.5 16.75 166.75Q18.0 153.0 18.0 138.5V111.5Q18.0 100.0 18.75 91.5Q19.5 83.0 21.0 81.5Q22.5 80.0 25.5 80.0Q28.0 80.0 34.75 82.25Q41.5 84.5 48.5 88.0Q57.0 91.5 72.0 96.75Q87.0 102.0 103.5 107.0Q120.0 112.0 133.25 115.5Q146.5 119.0 151.0 119.0Q152.0 119.0 152.0 114.5Q152.0 113.5 151.75 112.5Q151.5 111.5 151.5 110.5Q151.0 109.5 151.0 106.0Q141.5 60.5 123.5 46.0Q116.5 40.5 112.0 35.5Q107.5 30.5 107.5 27.5Q107.5 22.5 114.0 22.5Q117.5 22.5 125.0 25.5Q132.0 28.5 143.75 29.75Q155.5 31.0 168.0 31.0Q179.5 31.0 188.0 30.0Q196.5 29.0 197.0 27.5H197.5Q200.0 22.5 210.0 22.5Q214.0 22.5 220.75 23.5Q227.5 24.5 234.0 25.5Q242.0 26.5 249.0 27.25Q256.0 28.0 261.5 28.0Q284.0 28.0 284.0 20.0Z" fill="black" /></svg>