<svg xmlns="http://www.w3.org/2000/svg" width="286.0" height="310.0" viewBox="0 0 286.0 310.0"><path d="M184.0 106.5Q185.5 102.0 187.0 98.25Q188.5 94.5 189.5 91.0Q183.0 94.5 173.0 101.0Q163.0 107.5 151.5 115.5Q134.0 128.0 115.5 140.25Q97.0 152.5 88.0 156.5Q68.0 166.5 68.0 168.0Q68.0 169.5 79.5 169.5Q94.0 169.5 117.0 178.25Q140.0 187.0 163.0 200.5Q178.0 211.0 186.0 212.0Q180.0 202.5 178.5 189.0Q177.0 175.5 177.0 165.0Q177.0 149.0 178.75 133.0Q180.5 117.0 184.0 106.5ZM241.0 30.0Q266.5 10.0 272.5 10.0Q276.0 10.0 276.0 14.5Q276.0 17.0 268.75 27.0Q261.5 37.0 245.5 51.5Q228.5 67.5 218.25 80.5Q208.0 93.5 202.5 107.0Q197.0 120.5 195.0 136.75Q193.0 153.0 193.0 175.5Q193.0 191.5 201.75 208.0Q210.5 224.5 223.25 238.75Q236.0 253.0 247.5 263.5Q258.0 272.5 265.5 282.25Q273.0 292.0 273.0 295.5Q273.0 300.0 269.0 300.0Q263.0 300.0 236.0 277.0Q135.0 183.5 62.5 183.5Q57.5 183.5 53.0 183.75Q48.5 184.0 44.5 184.5Q39.5 185.5 34.5 186.0Q29.5 186.5 25.5 186.5Q10.0 186.5 10.0 179.5Q10.0 174.0 24.0 169.5Q42.0 162.5 69.0 147.5Q96.0 132.5 127.0 112.75Q158.0 93.0 187.75 71.5Q217.5 50.0 241.0 30.0Z" fill="black" /></svg>