<svg xmlns="http://www.w3.org/2000/svg" width="423.5" height="377.5" viewBox="0 0 423.5 377.5"><path d="M87.5 287.5 78.0 284.0Q71.5 281.5 63.0 277.0Q54.5 272.5 49.0 269.0L41.0 263.5V273.0Q41.0 279.0 40.5 288.75Q40.0 298.5 38.0 306.0V309.5Q37.5 311.5 37.25 313.5Q37.0 315.5 37.0 317.0Q37.5 316.0 38.25 315.5Q39.0 315.0 39.5 314.5Q43.5 311.5 52.5 305.75Q61.5 300.0 71.0 295.5ZM123.0 154.5Q123.5 153.5 123.75 153.0Q124.0 152.5 124.5 152.0Q122.5 154.0 120.0 156.75Q117.5 159.5 115.0 162.0Q111.5 164.0 107.75 168.25Q104.0 172.5 101.5 175.5L75.5 202.0H85.0Q91.5 202.0 97.25 202.5Q103.0 203.0 105.0 203.5Q107.5 201.0 109.0 189.0Q110.5 181.5 114.5 171.5Q118.5 161.5 123.0 154.5ZM183.0 168.0Q185.5 164.0 187.0 160.5Q188.5 157.0 189.5 154.0Q188.0 156.0 186.0 158.0Q184.0 160.0 181.5 162.5Q178.0 166.0 173.5 170.5Q169.0 175.0 164.5 180.0L138.0 206.5H153.0Q164.5 206.5 168.0 205.25Q171.5 204.0 171.5 200.5Q171.5 198.0 175.0 188.0Q178.5 178.0 183.0 168.0ZM177.5 233.5Q157.5 221.0 140.0 221.0H129.0L152.5 242.5Q164.0 253.5 172.25 263.75Q180.5 274.0 180.5 276.5Q180.5 279.5 186.75 281.25Q193.0 283.0 201.75 284.0Q210.5 285.0 219.25 285.75Q228.0 286.5 232.5 286.5Q230.5 282.0 221.0 272.0Q211.5 262.0 199.5 251.0Q187.5 240.0 177.5 233.5ZM249.5 184.0Q244.0 189.0 238.5 194.75Q233.0 200.5 233.0 202.0Q233.0 202.5 237.25 203.5Q241.5 204.5 242.5 204.5Q248.0 204.5 248.0 193.0Q248.0 188.5 249.5 184.0ZM212.5 216.0H192.0Q191.5 216.5 191.5 217.0V217.5Q191.5 220.5 199.0 229.0Q206.5 237.5 219.0 250.0Q230.0 261.0 238.25 270.75Q246.5 280.5 246.5 283.5Q246.5 284.0 246.25 284.5Q246.0 285.0 246.0 286.0Q247.0 287.5 257.75 289.0Q268.5 290.5 292.5 294.0L310.5 296.0V235.5Q310.5 192.5 307.5 170.75Q304.5 149.0 296.5 142.5Q293.0 144.0 287.5 151.25Q282.0 158.5 276.25 168.25Q270.5 178.0 266.75 187.0Q263.0 196.0 263.0 201.0Q263.0 216.0 284.0 233.5Q301.5 250.0 301.5 256.0Q301.5 259.5 297.5 259.5Q295.5 259.5 289.5 256.25Q283.5 253.0 275.0 245.5Q258.0 230.0 242.5 223.0Q227.0 216.0 212.5 216.0ZM57.0 60.0 54.5 58.5Q49.5 54.5 48.5 54.5Q47.0 54.5 46.75 60.25Q46.5 66.0 46.5 79.0V100.0L60.0 88.0Q68.5 81.0 75.75 76.0Q83.0 71.0 85.0 71.0Q86.0 71.0 86.0 69.0Q86.0 67.0 78.5 67.0Q66.5 67.0 57.0 60.0ZM349.5 130.5H350.0Q346.5 130.5 337.75 129.5Q329.0 128.5 320.0 128.0H316.5Q314.0 127.5 312.0 127.25Q310.0 127.0 308.5 127.0Q303.5 127.0 303.5 127.5Q303.5 128.5 305.0 130.0Q306.5 131.5 309.0 135.0Q311.0 138.0 313.75 143.75Q316.5 149.5 318.5 155.0L321.0 162.5L337.5 145.0Q343.0 139.5 346.0 135.75Q349.0 132.0 349.5 130.5ZM358.0 30.0Q360.5 28.0 361.5 27.25Q362.5 26.5 362.5 26.5H310.0L321.0 45.0L334.0 63.0L340.5 52.0Q344.0 46.5 349.0 40.0Q354.0 33.5 358.0 30.0ZM257.0 15.5Q257.0 13.0 279.0 11.5Q301.0 10.0 332.0 10.0Q366.0 10.0 385.0 12.0Q404.0 14.0 404.0 17.5V18.0Q403.0 20.0 399.75 22.75Q396.5 25.5 392.0 26.5Q378.5 30.5 366.5 42.5Q354.5 54.5 347.25 69.75Q340.0 85.0 339.5 99.5L341.0 114.0H373.5Q387.5 114.0 399.25 115.25Q411.0 116.5 412.5 119.0Q413.5 120.0 413.5 121.5Q413.5 126.5 401.0 126.5Q392.5 126.5 380.75 132.25Q369.0 138.0 357.5 147.5Q346.0 157.0 338.5 167.5L325.5 186.0V269.5Q325.5 310.0 323.25 332.5Q321.0 355.0 317.5 355.0Q315.0 355.0 312.75 348.25Q310.5 341.5 310.5 330.5Q310.5 316.0 309.0 313.0Q307.5 310.0 299.0 309.0Q291.5 308.0 273.0 306.0Q254.5 304.0 231.25 301.5Q208.0 299.0 185.5 297.0Q163.0 295.0 146.0 293.75Q129.0 292.5 124.0 292.5Q112.0 292.5 97.0 298.5Q82.0 304.5 67.25 314.0Q52.5 323.5 41.25 334.75Q30.0 346.0 25.5 356.5Q23.0 362.5 20.25 365.0Q17.5 367.5 15.5 367.5Q10.0 367.5 10.0 356.5Q10.0 352.5 11.25 346.25Q12.5 340.0 15.0 333.5Q18.5 326.5 22.5 307.25Q26.5 288.0 28.5 269.5Q31.0 249.0 34.25 234.75Q37.5 220.5 40.0 220.5Q42.5 220.5 44.5 224.0Q46.5 227.5 46.5 233.0Q46.5 251.5 65.5 262.0Q84.5 272.5 118.0 276.0Q131.0 277.0 143.25 278.75Q155.5 280.5 160.0 281.5Q161.5 282.0 164.5 282.0Q165.5 282.0 166.0 281.75Q166.5 281.5 166.5 281.5Q166.5 275.5 142.5 254.0Q120.5 233.0 103.75 224.5Q87.0 216.0 66.5 216.0H38.0L95.0 159.5Q110.0 145.5 123.75 131.25Q137.5 117.0 147.75 106.0Q158.0 95.0 161.5 90.0Q174.0 72.0 179.5 72.0Q183.5 72.0 183.5 76.0Q183.5 78.0 182.5 81.0L182.0 82.5Q180.5 86.5 176.75 92.5Q173.0 98.5 169.0 104.5Q162.0 114.0 154.0 127.75Q146.0 141.5 139.25 155.25Q132.5 169.0 128.0 180.0Q123.5 191.0 123.0 195.5V196.0Q123.0 196.5 123.25 197.0Q123.5 197.5 123.5 197.5Q126.0 196.5 134.5 188.5Q143.0 180.5 161.5 162.0L166.5 157.0Q179.0 144.5 191.25 131.5Q203.5 118.5 212.75 108.25Q222.0 98.0 225.0 93.5Q236.0 76.0 243.5 76.0Q248.5 76.0 248.5 82.5Q248.5 84.5 244.25 92.75Q240.0 101.0 233.0 110.0Q220.5 128.5 210.0 147.5Q199.5 166.5 193.25 181.25Q187.0 196.0 186.5 203.5Q186.5 206.5 187.5 206.5Q192.5 206.5 192.5 212.5L216.5 194.0Q225.0 187.0 238.5 174.5Q252.0 162.0 262.0 151.0L283.5 129.0L275.0 126.5Q270.0 124.5 265.25 123.0Q260.5 121.5 259.5 121.5Q252.5 121.5 252.5 115.0Q252.5 110.5 272.0 110.5Q276.0 110.5 281.0 110.5Q286.0 110.5 291.0 111.0L325.0 113.5V104.5Q325.0 99.5 324.0 93.0Q323.0 86.5 322.0 81.0L320.0 69.5L215.5 71.0Q181.0 71.5 159.5 72.0Q138.0 72.5 125.5 73.5Q113.0 74.5 106.0 76.5Q99.0 78.5 94.0 81.5Q83.5 88.0 71.0 98.5Q58.5 109.0 49.75 118.75Q41.0 128.5 41.0 132.5Q41.0 136.0 39.75 140.0Q38.5 144.0 36.5 145.0Q35.0 145.5 33.5 145.5Q30.0 145.5 28.0 141.25Q26.0 137.0 26.0 132.0Q26.0 126.5 28.0 123.0H27.5Q29.0 120.0 30.25 104.0Q31.5 88.0 31.5 68.5Q31.5 43.5 33.75 30.25Q36.0 17.0 39.5 17.0Q44.5 17.0 48.0 31.0Q49.0 34.5 53.75 39.75Q58.5 45.0 64.5 47.5Q69.0 50.0 75.75 51.75Q82.5 53.5 96.0 54.5Q109.5 55.5 133.5 56.0Q157.5 56.5 196.0 57.0Q216.0 57.5 231.0 57.5Q246.0 57.5 258.5 57.5Q290.5 57.5 300.5 56.75Q310.5 56.0 310.5 54.0Q310.5 47.5 299.25 38.75Q288.0 30.0 275.0 26.5Q267.5 24.0 262.25 21.25Q257.0 18.5 257.0 15.5Z" fill="black" /></svg>