<svg xmlns="http://www.w3.org/2000/svg" width="621.0" height="385.5" viewBox="0 0 621.0 385.5"><path d="M57.0 287.5Q52.0 286.5 47.0 285.0Q42.0 283.5 38.0 282.5L36.5 282.0Q35.5 281.5 34.0 281.5V304.5L49.5 297.5Q57.5 294.5 61.5 292.5Q65.5 290.5 66.5 290.0Q65.0 288.5 57.0 287.5ZM66.0 164.5 53.5 159.5Q44.5 156.0 38.75 154.0Q33.0 152.0 33.0 152.0Q34.0 158.0 34.0 167.5V180.5ZM69.5 233.5Q68.0 233.0 62.75 231.5Q57.5 230.0 51.0 228.5L34.0 223.0V235.5Q34.0 246.0 35.0 246.0H35.5L38.5 245.5Q44.5 243.5 52.0 240.5L57.0 238.5Q60.5 237.5 64.5 235.75Q68.5 234.0 69.5 233.5ZM203.0 242.0H163.5Q146.0 242.0 131.5 241.25Q117.0 240.5 113.0 239.5Q107.5 240.0 95.5 242.5Q83.5 245.0 70.25 248.75Q57.0 252.5 47.75 256.25Q38.5 260.0 38.5 263.0Q38.5 267.5 49.0 270.75Q59.5 274.0 75.5 276.0Q91.5 278.0 108.25 279.0Q125.0 280.0 138.25 280.25Q151.5 280.5 156.5 280.5L200.5 280.0ZM272.5 239.5Q272.0 239.0 270.0 238.25Q268.0 237.5 265.5 236.5Q260.5 234.5 255.5 232.25Q250.5 230.0 249.0 230.0Q248.0 230.0 248.0 242.0Q248.0 247.0 247.5 250.75Q247.0 254.5 246.5 256.5Q248.0 255.5 253.25 253.0Q258.5 250.5 264.0 247.0Q268.5 244.5 273.25 243.0Q278.0 241.5 278.0 241.5Q278.0 241.5 276.25 240.75Q274.5 240.0 272.5 239.5ZM287.5 305.5V301.5Q285.0 301.5 280.0 309.0Q278.5 309.5 277.25 311.0Q276.0 312.5 276.0 312.5Q277.5 313.0 280.0 313.5Q282.5 314.0 284.0 314.0Q287.5 314.0 287.5 305.5ZM377.5 305.5V301.5Q375.5 301.5 369.5 309.0Q369.0 309.5 367.75 311.0Q366.5 312.5 366.5 312.5Q368.5 312.5 369.0 313.0Q370.5 313.0 371.5 313.5Q372.5 313.5 373.0 313.75Q373.5 314.0 374.0 314.0Q377.5 314.0 377.5 305.5ZM415.0 252.0 401.5 239.0Q393.5 231.0 388.0 226.0Q382.5 221.0 382.5 221.0Q382.0 223.0 379.5 228.5Q379.0 229.5 377.0 232.5Q376.5 234.0 375.75 235.25Q375.0 236.5 374.0 238.5Q373.5 240.0 372.25 241.5Q371.0 243.0 370.0 244.5Q369.5 245.0 369.0 246.0Q368.5 247.0 368.0 248.0L365.5 252.0ZM71.5 103.0 68.5 101.5Q62.5 99.0 54.75 96.25Q47.0 93.5 40.5 93.5Q39.5 94.5 39.0 98.25Q38.5 102.0 38.5 106.5Q38.5 109.5 38.75 112.5Q39.0 115.5 39.5 116.0Q42.0 115.5 47.5 113.25Q53.0 111.0 59.5 108.0Q63.0 106.0 65.5 105.25Q68.0 104.5 69.5 104.0Q70.5 103.0 71.0 103.0Q71.5 103.0 71.5 103.0ZM176.5 124.0 169.0 109.0H134.0Q112.5 109.0 99.75 111.5Q87.0 114.0 73.5 120.0Q58.0 126.5 50.75 129.75Q43.5 133.0 43.5 135.5L47.5 139.5Q59.0 147.0 80.5 151.0Q102.0 155.0 139.5 155.0L186.5 155.5L186.0 149.0Q185.5 144.5 182.5 137.0Q179.5 129.5 176.5 124.0ZM197.0 196.0 192.5 171.5H136.0Q119.0 171.5 103.75 172.5Q88.5 173.5 83.0 176.0Q69.0 180.5 56.25 187.0Q43.5 193.5 38.5 199.5Q37.0 201.0 37.0 201.5Q37.0 208.0 50.0 212.5Q63.0 217.0 82.5 219.75Q102.0 222.5 122.5 223.75Q143.0 225.0 158.5 225.5Q174.0 226.0 178.0 226.0Q187.0 226.0 192.75 226.0Q198.5 226.0 200.0 225.5V223.0Q200.0 219.0 199.0 211.25Q198.0 203.5 197.0 196.0ZM211.0 46.0Q210.5 44.5 199.5 44.5Q188.5 44.5 188.5 46.0Q188.5 48.5 194.5 56.0L202.5 66.0L205.0 60.5Q207.5 57.0 209.0 52.5Q210.5 48.0 211.0 46.0ZM213.5 119.0Q213.5 118.0 214.0 117.0Q214.5 116.0 214.5 115.5L215.0 114.5Q215.0 113.5 202.5 113.5H190.5L198.0 138.5Q200.5 146.5 202.5 153.75Q204.5 161.0 205.0 163.5Q206.5 154.5 208.25 145.75Q210.0 137.0 212.0 128.5L212.5 124.0Q213.5 120.0 213.5 119.0ZM275.0 120.0H274.0L270.0 118.5Q265.5 116.5 262.75 115.25Q260.0 114.0 258.0 114.0Q256.0 114.0 256.0 127.0Q256.0 131.5 256.0 135.0Q256.0 138.5 255.5 140.0Q258.5 139.5 266.25 136.25Q274.0 133.0 280.75 129.5Q287.5 126.0 287.5 125.5Q287.5 125.5 284.0 123.75Q280.5 122.0 275.0 120.0ZM407.0 121.5 415.5 118.0 379.0 106.0Q380.0 108.0 380.0 111.75Q380.0 115.5 380.0 121.0V133.5Q380.5 133.5 382.0 132.0Q385.5 131.0 393.0 128.0Q400.5 125.0 407.0 121.5ZM569.5 87.0Q568.0 87.0 563.75 87.25Q559.5 87.5 554.0 87.5H542.0L546.5 95.5L549.5 99.5Q556.0 109.0 558.0 109.0Q559.0 109.0 562.5 103.0L567.0 94.5Q567.5 91.0 569.0 88.5Q569.0 88.0 569.25 87.75Q569.5 87.5 569.5 87.0ZM572.0 159.0V158.0Q573.0 157.5 573.0 156.0H559.5Q551.0 156.0 547.5 156.25Q544.0 156.5 544.0 156.5Q545.5 160.5 548.75 168.75Q552.0 177.0 556.0 185.5Q560.0 194.0 563.0 199.5Q564.0 195.0 564.5 187.5Q565.0 186.5 565.0 185.25Q565.0 184.0 565.5 183.0Q566.5 180.0 567.5 176.0Q569.5 170.5 570.5 165.75Q571.5 161.0 572.0 159.0ZM299.5 273.0Q306.5 266.0 314.25 261.25Q322.0 256.5 324.5 256.5L326.0 260.0Q326.0 266.0 314.5 286.5Q309.0 296.0 306.75 301.5Q304.5 307.0 304.5 310.5Q304.5 313.0 306.5 317.0L307.0 319.0Q310.0 323.5 318.0 330.75Q326.0 338.0 334.5 344.5Q344.5 350.5 351.75 357.5Q359.0 364.5 359.0 367.0Q359.0 370.0 358.5 371.75Q358.0 373.5 354.0 373.5Q351.5 373.5 343.0 368.5Q334.5 363.5 316.5 351.0Q305.0 343.5 289.75 335.75Q274.5 328.0 265.0 326.0L234.0 319.5L262.5 300.5Q270.5 295.5 281.5 287.0Q292.5 278.5 299.5 273.0ZM166.0 48.0 141.5 28.5 198.5 30.0Q219.0 30.5 233.5 33.5Q248.0 36.5 248.0 37.5Q248.0 39.0 244.25 42.25Q240.5 45.5 235.5 48.0Q225.0 53.0 219.0 67.5Q213.0 82.0 213.0 93.5Q213.0 95.5 217.5 95.5H222.0Q223.0 95.5 224.25 95.25Q225.5 95.0 226.5 95.0Q228.0 94.5 229.5 94.5Q239.0 94.5 239.0 100.5Q239.0 100.5 236.5 106.75Q234.0 113.0 230.0 121.0Q226.5 131.0 223.25 152.5Q220.0 174.0 218.25 202.25Q216.5 230.5 216.5 261.5Q216.5 271.5 216.75 281.75Q217.0 292.0 217.5 302.0Q218.0 311.5 218.0 319.5Q218.0 327.5 218.0 333.5Q218.0 347.5 216.5 353.75Q215.0 360.0 211.0 360.0H209.5Q206.0 357.5 204.0 347.5Q202.0 337.5 202.0 323.5V297.0H153.0Q110.5 297.0 81.25 303.5Q52.0 310.0 35.5 322.5Q24.0 331.0 18.0 331.0Q11.5 331.0 11.5 324.0Q11.5 322.5 11.5 320.75Q11.5 319.0 12.0 317.5Q16.0 307.5 16.75 296.75Q17.5 286.0 17.5 276.0Q13.5 276.0 11.75 272.5Q10.0 269.0 10.0 264.5Q10.0 260.5 11.5 256.5Q13.0 252.5 16.0 250.5Q17.0 249.5 17.5 244.25Q18.0 239.0 18.0 233.5Q18.0 226.0 17.0 220.0Q16.0 214.0 14.5 212.5Q10.5 208.5 10.5 203.5Q10.5 199.0 14.5 193.5Q17.5 186.5 17.5 167.5V145.0Q17.5 134.5 19.0 127.0Q20.5 119.5 23.0 118.5Q23.5 118.5 24.25 110.75Q25.0 103.0 25.0 93.5Q25.0 81.0 26.25 72.25Q27.5 63.5 29.5 63.5Q31.5 63.5 35.75 66.25Q40.0 69.0 44.5 73.0Q48.5 76.5 58.0 81.0Q67.5 85.5 77.0 88.0Q85.0 89.5 99.5 91.0Q114.0 92.5 131.0 93.25Q148.0 94.0 162.5 94.0Q175.5 94.0 184.75 93.25Q194.0 92.5 196.5 91.5Q196.5 87.5 191.5 79.75Q186.5 72.0 179.75 63.25Q173.0 54.5 166.0 48.0ZM383.0 15.5Q387.0 10.0 393.5 10.0H396.0Q398.5 12.0 398.5 15.0Q398.5 18.5 392.75 26.25Q387.0 34.0 378.5 44.0Q367.5 55.5 362.5 62.25Q357.5 69.0 357.5 74.5Q357.5 76.0 358.5 78.25Q359.5 80.5 360.0 82.0L360.5 82.5Q365.5 77.5 368.5 77.5Q371.0 77.5 373.75 79.25Q376.5 81.0 381.0 85.0Q385.0 89.0 395.0 94.0Q405.0 99.0 415.75 102.75Q426.5 106.5 432.5 106.5Q433.5 106.5 433.5 105.5Q433.5 102.0 425.0 96.0Q416.5 90.0 406.0 84.75Q395.5 79.5 389.5 79.5Q373.5 79.5 373.5 73.0Q373.5 68.5 380.75 63.0Q388.0 57.5 403.0 48.0Q417.0 41.0 430.5 32.5Q444.0 24.0 450.5 19.0Q460.0 11.0 465.5 11.0Q470.5 11.0 470.5 16.0Q470.5 18.5 464.25 26.75Q458.0 35.0 448.5 45.0Q439.5 54.5 434.25 61.5Q429.0 68.5 429.0 73.5Q429.0 80.5 437.0 88.5Q440.0 91.5 443.5 95.5Q447.0 99.5 449.0 102.0L451.5 105.0Q454.0 108.5 463.25 109.75Q472.5 111.0 497.0 111.0Q536.5 111.0 536.5 107.0Q536.5 105.5 532.0 101.25Q527.5 97.0 520.5 92.0Q512.5 86.5 507.25 81.5Q502.0 76.5 502.0 73.5Q502.0 68.0 510.0 68.0Q515.0 68.0 520.0 69.5Q525.5 70.5 540.0 71.5Q554.5 72.5 569.5 72.5Q611.0 72.5 611.0 80.5Q611.0 85.5 597.0 90.5Q587.0 94.0 579.75 104.75Q572.5 115.5 570.0 130.0L568.0 140.0H606.5L591.5 161.0Q585.5 171.0 581.75 185.0Q578.0 199.0 576.25 223.5Q574.5 248.0 574.5 290.5Q574.5 312.0 574.0 330.0Q573.5 348.0 572.25 358.75Q571.0 369.5 569.0 369.5Q566.5 369.5 563.5 360.75Q560.5 352.0 559.5 339.0Q558.0 323.0 555.75 318.25Q553.5 313.5 547.5 312.5Q542.5 312.0 528.0 306.25Q513.5 300.5 497.5 294.0L491.0 292.0Q463.5 280.5 448.25 275.0Q433.0 269.5 424.0 269.5Q420.5 269.5 417.25 271.5Q414.0 273.5 411.5 276.0Q403.5 285.5 398.5 293.5Q393.5 301.5 393.5 307.5Q393.5 316.0 402.0 325.75Q410.5 335.5 427.0 348.0Q434.0 353.0 439.25 359.5Q444.5 366.0 444.5 368.5Q444.5 375.5 439.5 375.5Q436.0 375.5 429.5 369.0Q422.0 360.5 408.5 352.0Q395.0 343.5 380.5 336.25Q366.0 329.0 355.0 326.0L324.0 317.5L343.5 306.5Q354.0 299.5 365.0 291.5Q376.0 283.5 384.25 277.0Q392.5 270.5 394.0 268.0H382.0Q375.0 268.0 367.25 268.5Q359.5 269.0 355.5 271.5Q350.5 273.5 347.75 274.0Q345.0 274.5 342.5 274.5Q336.0 274.5 336.0 269.0Q336.0 264.5 341.0 258.0Q348.0 251.0 348.0 249.0Q348.0 246.5 327.0 246.5Q306.5 246.5 285.25 255.25Q264.0 264.0 251.5 277.0Q246.5 281.5 242.0 284.75Q237.5 288.0 235.5 288.0Q233.0 288.0 232.25 280.75Q231.5 273.5 231.5 263.5Q231.5 252.5 231.75 239.0Q232.0 225.5 232.75 214.5Q233.5 203.5 234.5 199.5Q235.5 198.5 236.5 198.5Q242.5 198.5 254.0 209.0Q263.5 218.5 279.75 224.0Q296.0 229.5 314.0 231.75Q332.0 234.0 345.5 234.5Q357.0 234.0 364.0 224.0Q371.0 214.0 374.5 204.5Q379.5 187.5 386.5 187.5Q393.0 187.5 393.0 200.5Q393.0 209.0 404.75 220.75Q416.5 232.5 437.0 245.75Q457.5 259.0 483.5 271.5Q509.5 284.0 538.0 294.0L558.0 301.5L556.5 267.5Q555.5 248.0 551.25 227.75Q547.0 207.5 541.0 190.25Q535.0 173.0 527.5 162.5Q520.0 152.5 520.0 147.5Q520.0 142.5 524.5 141.25Q529.0 140.0 539.5 140.0Q553.0 140.0 553.0 137.5Q553.0 136.5 552.5 135.25Q552.0 134.0 551.5 132.5L550.5 131.0Q549.5 128.5 539.25 127.25Q529.0 126.0 497.0 126.0Q453.0 126.0 426.75 132.25Q400.5 138.5 380.0 153.5L359.0 170.5L363.5 132.0L341.0 131.5Q318.5 131.5 299.5 136.75Q280.5 142.0 263.5 158.0L241.0 178.5L241.5 128.0Q242.5 108.0 244.5 94.25Q246.5 80.5 249.0 80.5Q250.5 80.5 254.5 84.25Q258.5 88.0 261.5 93.0Q268.0 102.5 290.0 109.0Q312.0 115.5 339.5 115.5Q354.0 115.5 359.5 114.75Q365.0 114.0 365.0 113.0Q365.0 109.0 358.0 102.0Q351.0 95.0 341.75 88.75Q332.5 82.5 326.0 81.0Q325.0 80.5 324.25 80.5Q323.5 80.5 322.5 80.0Q320.5 79.5 318.5 79.0Q316.5 78.5 315.5 78.0Q311.0 76.5 308.0 76.5Q305.0 75.5 305.0 72.0Q305.0 69.5 314.5 62.0Q324.0 54.5 339.5 45.0Q355.0 36.0 367.75 27.0Q380.5 18.0 383.0 15.5ZM412.0 62.5Q412.0 63.5 408.5 63.5H407.0V64.5H408.5Q408.5 62.5 412.0 62.5Z" fill="black" /></svg>