<svg xmlns="http://www.w3.org/2000/svg" width="1095.0" height="467.0" viewBox="0 0 1095.0 467.0"><path d="M77.5 246.5Q74.0 245.5 65.75 240.75Q57.5 236.0 49.0 230.5L33.5 220.5V268.5L61.0 255.0Q67.5 251.0 71.5 249.25Q75.5 247.5 77.5 246.5ZM247.5 118.0 264.0 112.0 230.0 95.5Q207.5 83.5 206.5 83.5Q207.0 86.0 207.0 93.25Q207.0 100.5 207.0 109.0Q207.0 122.0 207.5 126.75Q208.0 131.5 210.0 131.5Q210.5 131.5 213.5 130.5Q217.5 128.5 227.25 125.0Q237.0 121.5 247.5 118.0ZM306.0 184.5 307.0 182.5Q308.0 180.5 309.0 179.5Q310.0 178.5 310.0 178.0Q310.0 177.0 304.25 176.75Q298.5 176.5 285.0 176.5Q273.5 176.5 265.75 176.25Q258.0 176.0 258.0 176.0Q259.0 179.0 263.5 188.0Q268.0 197.0 273.0 207.5L286.0 234.0L291.0 220.0Q293.5 211.5 298.0 201.0Q302.5 190.5 306.0 184.5ZM522.0 102.5Q527.5 87.0 530.5 75.5Q533.5 64.0 534.0 60.5Q532.5 59.5 528.0 59.5Q523.5 59.5 519.0 59.5Q508.0 59.5 496.25 60.0Q484.5 60.5 484.5 60.5Q484.5 61.0 489.0 70.0Q493.5 79.0 499.5 90.5Q505.0 100.0 508.25 110.75Q511.5 121.5 513.0 128.5Q514.0 124.5 516.5 117.75Q519.0 111.0 522.0 102.5ZM590.0 123.0H589.5Q588.5 122.0 587.0 122.0Q585.5 121.5 582.5 120.0Q582.0 119.0 580.5 118.5Q579.0 118.0 578.0 117.5Q577.5 117.5 576.0 116.0L575.0 115.0H573.5Q573.5 118.5 573.25 122.5Q573.0 126.5 572.5 130.5L581.0 127.0Q585.0 126.0 587.0 124.0L589.0 123.5Q589.0 123.5 589.25 123.5Q589.5 123.5 590.0 123.0ZM597.5 146.5Q597.0 146.5 596.75 146.75Q596.5 147.0 596.0 147.0L592.5 147.5Q592.5 147.5 593.5 149.5Q594.0 150.0 594.0 150.25Q594.0 150.5 594.5 151.0Q594.5 151.0 595.5 153.0Q595.5 152.5 595.75 152.25Q596.0 152.0 596.0 151.5Q597.0 148.5 597.5 146.5ZM608.5 176.5V182.5Q610.5 182.0 613.5 180.0Q615.5 180.0 615.5 179.0ZM617.0 227.0Q615.5 226.5 613.5 226.0Q611.5 225.5 609.0 224.5H608.5V231.5L609.0 231.0Q611.5 230.0 613.25 228.75Q615.0 227.5 617.0 227.0ZM686.5 271.0 739.0 269.0V236.0L692.0 235.5H682.0Q648.0 235.5 627.0 240.75Q606.0 246.0 604.5 255.0V256.0Q604.5 264.0 622.25 267.5Q640.0 271.0 673.5 271.0ZM737.5 194.5Q736.0 189.0 733.5 186.75Q731.0 184.5 722.5 184.0Q714.0 183.5 694.0 183.5Q679.0 183.5 663.25 185.25Q647.5 187.0 634.0 190.0Q620.5 193.0 612.0 196.25Q603.5 199.5 603.5 202.5Q603.5 206.5 611.25 209.0Q619.0 211.5 630.5 213.0Q642.0 214.5 654.25 215.25Q666.5 216.0 675.5 216.25Q684.5 216.5 687.0 216.5Q707.5 216.5 722.5 215.25Q737.5 214.0 739.5 212.0Q740.5 212.0 740.5 207.0Q740.5 202.0 737.5 194.5ZM726.0 141.0 725.5 141.5Q720.5 135.0 715.5 132.0Q710.5 129.0 701.25 128.25Q692.0 127.5 673.0 127.5Q656.0 127.5 641.25 129.25Q626.5 131.0 623.5 133.5Q619.0 135.5 616.5 142.0Q614.0 148.5 614.0 154.0Q614.0 161.0 617.5 163.0Q620.0 163.5 629.75 164.75Q639.5 166.0 653.5 167.0Q667.5 168.0 681.75 169.0Q696.0 170.0 707.25 170.75Q718.5 171.5 723.0 171.5Q732.0 171.5 734.0 170.0Q736.0 168.5 736.0 165.5Q736.0 161.5 733.0 154.5Q730.0 147.5 726.0 141.0ZM754.0 141.5 754.5 139.0Q754.5 138.0 754.75 137.5Q755.0 137.0 755.0 136.5Q755.0 133.0 749.5 133.0Q743.0 133.0 743.0 135.0Q743.0 137.5 744.0 138.5Q745.0 142.0 746.0 146.0Q747.0 150.0 747.0 151.0Q752.5 150.0 754.0 141.5ZM798.5 141.5 799.0 139.0Q799.0 138.0 799.25 137.5Q799.5 137.0 799.5 136.5Q799.5 133.0 794.0 133.0Q787.5 133.0 787.5 135.0Q787.5 137.5 788.5 138.5Q789.5 142.0 790.75 146.0Q792.0 150.0 792.0 151.0Q797.0 150.0 798.5 141.5ZM1049.0 217.5Q1046.0 215.0 1031.75 207.5Q1017.5 200.0 997.0 189.5Q976.5 179.0 954.5 168.0L876.0 130.5L867.0 149.5Q856.5 166.5 854.5 226.0Q854.0 251.5 850.5 270.25Q847.0 289.0 844.0 289.0Q840.5 289.0 838.75 269.75Q837.0 250.5 835.5 223.5Q835.0 188.0 832.25 172.5Q829.5 157.0 824.0 150.0L818.0 140.5L810.5 158.0Q806.5 167.0 804.5 182.0Q802.5 197.0 802.5 222.5V234.5Q802.5 260.0 801.5 277.75Q800.5 295.5 795.5 295.5Q793.5 295.5 791.25 285.75Q789.0 276.0 787.25 260.25Q785.5 244.5 785.0 226.0Q782.5 182.0 780.0 163.5Q777.5 145.0 773.0 145.0Q766.5 145.0 762.25 169.25Q758.0 193.5 758.0 232.5V292.5L701.5 291.0Q695.0 290.5 689.75 290.5Q684.5 290.5 679.0 290.5Q609.5 290.5 604.5 313.0V316.0L604.0 325.5H607.5Q609.0 326.0 611.0 326.25Q613.0 326.5 614.0 326.5H618.0Q620.0 327.0 622.0 327.0Q627.5 327.5 635.0 327.5Q642.5 327.5 650.5 327.5H662.0Q665.0 328.0 667.75 328.0Q670.5 328.0 673.0 328.0H686.5Q692.0 328.0 698.0 327.75Q704.0 327.5 708.0 326.5V325.0Q708.0 324.0 708.25 323.0Q708.5 322.0 708.5 321.5Q709.0 320.0 709.0 318.5Q711.5 313.0 717.5 313.0Q719.5 313.0 722.0 314.25Q724.5 315.5 728.5 316.5Q737.0 321.0 749.25 323.75Q761.5 326.5 775.5 326.5Q784.5 326.5 794.75 324.75Q805.0 323.0 814.5 321.0Q824.0 318.5 846.25 310.0Q868.5 301.5 897.5 290.0Q926.5 278.5 955.0 266.5Q1010.0 243.0 1031.75 232.75Q1053.5 222.5 1053.5 220.0Q1053.5 219.5 1049.0 217.5ZM841.0 118.0H840.0Q835.0 114.5 818.0 113.0Q801.0 111.5 785.5 111.5Q772.0 111.5 762.5 112.0Q753.0 112.5 753.0 113.5Q753.0 114.0 761.5 114.75Q770.0 115.5 782.5 115.5Q795.5 115.5 808.0 116.75Q820.5 118.0 825.0 119.0Q830.0 121.0 839.5 121.0H845.5Q846.0 120.5 846.5 120.5Q847.0 120.5 847.5 120.0Q846.5 119.5 845.0 119.0Q843.5 118.5 841.0 118.0ZM843.5 99.0 819.5 73.5Q817.5 71.0 810.25 64.25Q803.0 57.5 796.5 51.25Q790.0 45.0 788.5 45.0Q787.5 45.0 783.0 54.0Q778.5 63.0 773.5 74.0Q768.5 85.0 766.5 91.5H767.0Q772.5 91.5 777.5 93.0Q784.0 93.5 791.75 94.25Q799.5 95.0 807.5 96.0ZM848.0 147.0 849.0 144.0Q849.0 143.0 849.25 142.75Q849.5 142.5 849.5 142.0Q849.5 139.5 844.0 139.5H839.0Q839.0 140.0 839.5 141.75Q840.0 143.5 841.5 145.5Q844.0 149.5 845.25 152.0Q846.5 154.5 846.5 154.5Q847.5 151.5 848.0 147.0ZM54.5 375.0Q34.5 364.5 28.5 362.5V414.0L61.0 403.5Q75.5 398.0 84.75 394.5Q94.0 391.0 97.5 389.5Q87.5 389.5 75.25 384.75Q63.0 380.0 54.5 375.0ZM424.5 389.5Q419.0 389.5 404.0 383.75Q389.0 378.0 373.0 371.5L342.0 353.5L340.0 386.5V399.0Q339.5 401.0 339.5 402.75Q339.5 404.5 339.5 406.5Q339.5 422.0 344.0 422.0Q347.5 422.0 354.0 419.25Q360.5 416.5 370.0 412.5Q380.0 408.0 394.0 403.5Q408.0 399.0 417.0 397.0Q424.5 395.5 430.0 393.5Q435.5 391.5 435.5 391.0Q435.5 389.5 424.5 389.5ZM560.5 348.5 577.0 337.5 563.0 328.5 547.0 320.5V355.5Q548.0 355.0 551.75 353.0Q555.5 351.0 560.5 348.5ZM615.5 284.5Q615.0 284.5 615.0 284.25Q615.0 284.0 614.5 284.0Q613.5 284.0 612.25 283.5Q611.0 283.0 609.5 283.0Q609.0 282.5 609.0 282.25Q609.0 282.0 608.5 281.5Q608.5 283.0 608.75 284.5Q609.0 286.0 609.0 288.0L614.0 285.0Q614.0 285.0 614.5 284.75Q615.0 284.5 615.5 284.5ZM717.5 362.5 710.0 342.5 669.0 340.5Q645.5 340.5 629.5 343.0Q613.5 345.5 598.25 351.25Q583.0 357.0 562.0 368.0L545.5 375.5L561.0 378.0H568.0Q584.0 378.5 609.75 379.0Q635.5 379.5 660.0 379.5Q683.5 379.5 701.5 379.0Q719.5 378.5 722.5 377.0Q722.5 375.0 721.25 371.25Q720.0 367.5 717.5 362.5ZM814.0 343.0Q814.0 342.0 802.0 341.25Q790.0 340.5 773.0 340.5Q748.5 340.5 740.5 340.75Q732.5 341.0 732.5 343.5Q732.5 345.5 733.5 348.5Q734.0 350.0 734.25 351.5Q734.5 353.0 734.5 355.5Q736.0 361.0 737.5 368.0Q739.0 375.0 739.5 381.5Q740.5 383.5 741.0 386.5Q741.5 389.5 742.0 391.5Q743.0 395.0 743.5 398.0Q744.0 401.0 744.0 401.0Q744.0 401.0 745.5 399.5Q747.0 398.0 750.5 395.5Q753.0 393.0 755.75 390.75Q758.5 388.5 762.0 385.0Q765.5 381.5 772.75 375.0Q780.0 368.5 788.5 361.25Q797.0 354.0 803.5 349.0Q810.0 344.0 812.0 344.0Q814.0 344.0 814.0 343.0ZM770.5 38.5V38.0Q777.0 25.0 782.5 17.5Q788.0 10.0 791.5 10.0Q797.5 10.0 797.5 21.0Q797.5 24.0 806.75 34.75Q816.0 45.5 829.75 59.75Q843.5 74.0 858.25 87.5Q873.0 101.0 883.5 109.5Q888.5 113.0 905.25 122.25Q922.0 131.5 946.0 143.75Q970.0 156.0 995.5 168.5Q1023.0 182.0 1037.0 190.75Q1051.0 199.5 1057.0 205.25Q1063.0 211.0 1066.5 215.0L1067.0 216.0Q1069.5 218.0 1072.75 221.0Q1076.0 224.0 1084.0 228.0L1085.0 230.5Q1085.0 233.0 1078.0 236.25Q1071.0 239.5 1059.5 244.0L1044.5 249.5Q1029.0 254.5 1009.5 262.25Q990.0 270.0 971.0 278.5Q930.0 295.5 899.25 310.5Q868.5 325.5 845.0 340.5Q821.5 355.5 802.0 372.0Q782.5 388.5 764.5 409.0Q754.5 419.5 745.75 426.75Q737.0 434.0 736.5 434.0Q734.5 434.0 732.0 427.75Q729.5 421.5 727.0 412.0L725.0 394.5L596.0 396.5Q548.0 398.0 515.75 399.75Q483.5 401.5 459.75 405.25Q436.0 409.0 415.0 415.5Q394.0 422.0 368.5 432.5Q355.5 438.5 345.25 443.25Q335.0 448.0 335.0 449.0Q335.0 452.0 332.5 454.5Q330.0 457.0 326.0 457.0Q319.0 457.0 319.0 441.5Q319.0 437.5 319.25 432.75Q319.5 428.0 320.0 423.0L323.0 395.0H307.0Q299.0 395.0 295.5 396.0Q292.0 397.0 291.25 401.5Q290.5 406.0 290.5 417.0Q290.5 429.0 288.0 437.0Q285.5 445.0 281.5 445.0Q278.0 445.0 275.75 437.0Q273.5 429.0 273.5 417.0V395.0H214.5Q167.5 395.0 123.25 404.25Q79.0 413.5 41.0 428.0Q23.5 436.0 15.0 436.0Q12.0 436.0 10.0 433.0Q10.0 428.5 10.25 414.25Q10.5 400.0 11.25 383.25Q12.0 366.5 13.25 353.5Q14.5 340.5 16.0 337.5L17.0 337.0Q21.5 337.0 24.75 337.5Q28.0 338.0 32.0 341.0Q36.0 345.0 46.0 350.75Q56.0 356.5 66.5 361.5Q75.0 366.0 82.5 368.75Q90.0 371.5 101.5 372.75Q113.0 374.0 132.5 374.75Q152.0 375.5 183.5 376.0L273.5 379.5V323.5Q273.5 300.0 272.25 281.0Q271.0 262.0 270.0 257.0Q269.0 254.5 263.0 253.0Q257.0 251.5 241.5 251.0Q226.0 250.5 196.0 250.5Q158.5 250.5 131.75 253.5Q105.0 256.5 84.5 263.5Q64.0 270.5 44.0 282.0Q36.0 287.0 28.25 291.25Q20.5 295.5 18.5 295.5Q16.0 295.5 15.25 289.5Q14.5 283.5 14.5 273.5Q14.5 263.0 15.0 249.25Q15.5 235.5 16.5 222.5Q17.5 209.5 18.5 200.5Q19.5 191.5 21.0 190.0H22.0Q24.5 190.0 32.5 194.5Q40.5 199.0 50.0 207.5Q58.5 215.0 70.0 221.75Q81.5 228.5 89.0 229.5Q98.0 231.0 115.25 232.5Q132.5 234.0 153.75 234.75Q175.0 235.5 196.25 236.0Q217.5 236.5 234.5 236.5Q247.0 236.5 255.5 236.5Q264.0 236.5 266.0 236.0Q265.5 228.0 261.0 218.25Q256.5 208.5 250.25 200.0Q244.0 191.5 238.5 186.5Q232.0 179.5 229.25 173.75Q226.5 168.0 226.0 166.0H225.5L224.5 164.5Q226.5 163.0 239.25 162.0Q252.0 161.0 269.5 160.5Q287.0 160.0 302.0 160.0Q316.0 160.0 325.5 161.0Q335.0 162.0 335.0 164.5Q335.0 165.0 331.25 174.25Q327.5 183.5 322.0 194.0Q310.0 216.0 303.5 235.75Q297.0 255.5 294.5 277.75Q292.0 300.0 291.5 329.0L291.0 379.5L323.0 380.5V356.5Q323.0 342.0 325.0 332.25Q327.0 322.5 330.0 322.5Q331.5 322.5 339.25 327.5Q347.0 332.5 355.5 339.5Q377.5 356.5 402.0 365.25Q426.5 374.0 461.5 376.0L503.5 379.5L500.5 258.0Q500.0 225.5 498.75 196.5Q497.5 167.5 496.5 147.5Q495.5 127.5 494.5 123.5Q492.5 120.5 485.25 119.0Q478.0 117.5 458.5 117.0Q439.0 116.5 399.5 116.5Q368.0 116.5 347.75 117.0Q327.5 117.5 313.75 119.25Q300.0 121.0 288.5 123.75Q277.0 126.5 263.0 131.0Q245.5 137.5 229.0 144.0Q212.5 150.5 207.5 153.5Q199.5 159.0 194.5 159.0Q190.0 159.0 189.5 155.0Q189.5 150.5 189.5 139.5Q189.5 128.5 189.75 114.75Q190.0 101.0 190.5 88.0Q191.0 75.0 192.0 66.25Q193.0 57.5 194.0 56.5Q194.5 56.5 194.75 56.0Q195.0 55.5 195.5 55.5Q198.0 55.5 204.0 59.0Q210.0 62.5 218.0 67.5L222.5 71.0Q232.5 77.5 247.25 84.25Q262.0 91.0 272.0 93.0Q281.0 95.0 303.5 96.5Q326.0 98.0 354.75 98.75Q383.5 99.5 411.0 99.5Q441.5 99.5 463.25 99.0Q485.0 98.5 485.0 98.0Q485.0 97.0 481.75 91.75Q478.5 86.5 474.5 80.5Q470.5 74.5 469.0 73.0L450.5 45.0L506.5 42.5Q521.5 41.5 534.5 41.5Q547.5 41.5 554.0 41.5Q556.5 41.5 559.25 41.5Q562.0 41.5 564.5 42.0Q564.5 42.0 560.5 51.75Q556.5 61.5 552.5 71.5Q542.0 95.0 535.5 115.25Q529.0 135.5 525.5 157.5Q522.0 179.5 520.75 208.5Q519.5 237.5 519.5 278.0Q519.5 321.0 519.75 342.5Q520.0 364.0 521.25 371.0Q522.5 378.0 524.5 378.0Q528.0 378.0 529.0 369.75Q530.0 361.5 530.0 337.0Q530.0 317.0 531.25 303.0Q532.5 289.0 535.5 289.0Q537.0 289.0 543.75 293.25Q550.5 297.5 558.0 304.0L575.0 316.0L581.0 319.5L581.5 296.0Q581.5 287.5 581.5 275.0Q581.5 262.5 581.0 246.0Q580.5 213.0 579.5 193.75Q578.5 174.5 577.0 165.25Q575.5 156.0 572.5 153.25Q569.5 150.5 564.5 150.5Q556.0 150.5 552.75 148.25Q549.5 146.0 549.5 136.5Q549.5 132.0 550.5 121.5Q551.5 111.0 553.25 101.0Q555.0 91.0 557.0 89.5H558.0Q560.5 89.5 565.25 91.25Q570.0 93.0 576.5 97.5Q583.5 103.5 603.0 105.75Q622.5 108.0 662.0 109.5L734.5 111.0L757.5 65.5Q761.5 58.5 764.75 51.5Q768.0 44.5 770.5 38.5Z" fill="black" /></svg>