<svg xmlns="http://www.w3.org/2000/svg" width="240.5" height="260.0" viewBox="0 0 240.5 260.0"><path d="M148.5 138.5Q148.5 125.0 149.75 115.75Q151.0 106.5 153.25 97.5Q155.5 88.5 158.5 77.0Q153.5 80.0 145.25 85.5Q137.0 91.0 127.5 97.5Q113.0 107.5 97.75 117.5Q82.5 127.5 75.0 131.5Q58.5 139.0 58.5 141.0Q58.5 142.0 68.0 142.0Q80.0 142.0 99.25 149.25Q118.5 156.5 137.0 168.0Q150.5 176.5 156.0 177.5Q155.5 175.0 153.0 171.5Q151.0 166.5 149.75 157.5Q148.5 148.5 148.5 138.5ZM201.5 26.5Q222.5 10.0 227.5 10.0Q230.5 10.0 230.5 13.5Q230.5 15.5 224.5 24.0Q218.5 32.5 205.5 44.5Q187.0 62.0 177.5 76.0Q168.0 90.0 165.0 106.25Q162.0 122.5 162.0 147.0Q162.0 160.5 169.25 174.0Q176.5 187.5 187.0 199.5Q197.5 211.5 207.0 220.0Q215.5 227.5 221.75 235.5Q228.0 243.5 228.0 246.5Q228.0 250.0 225.0 250.0Q219.5 250.0 197.5 231.0Q114.0 153.5 53.5 153.5Q50.0 153.5 46.25 153.75Q42.5 154.0 39.0 154.5Q35.0 155.0 30.5 155.5Q26.0 156.0 23.0 156.0Q10.0 156.0 10.0 150.5Q10.0 145.5 22.0 142.0Q37.0 136.0 59.25 123.75Q81.5 111.5 107.0 95.25Q132.5 79.0 157.25 61.0Q182.0 43.0 201.5 26.5Z" fill="black" /></svg>