<svg xmlns="http://www.w3.org/2000/svg" width="881.0" height="450.5" viewBox="0 0 881.0 450.5"><path d="M131.5 235.5Q121.5 232.5 108.5 228.0Q95.5 223.5 83.25 218.25Q71.0 213.0 62.5 208.0L43.0 197.5L39.0 231.0Q38.0 240.0 37.25 249.0Q36.5 258.0 36.5 268.0Q39.0 267.5 43.5 266.0Q48.0 264.5 52.5 261.0Q60.0 258.0 74.5 253.5Q89.0 249.0 101.5 246.5Q139.0 237.5 139.0 237.0ZM441.5 257.0 442.5 256.0Q444.5 254.5 444.5 251.5Q444.5 250.5 444.25 249.25Q444.0 248.0 443.0 247.5L441.5 244.5Q441.0 245.5 439.25 250.25Q437.5 255.0 437.5 256.0Q437.5 257.5 437.75 258.25Q438.0 259.0 438.0 259.0Q439.5 259.0 441.5 257.0ZM463.0 234.5H462.0Q459.5 232.5 458.0 232.0Q456.5 231.5 455.0 231.0L456.0 231.5Q456.0 233.5 457.0 234.5Q459.0 241.5 462.5 241.5Q463.5 241.5 464.75 240.25Q466.0 239.0 467.0 238.0V237.0Q467.0 236.5 463.0 234.5ZM514.0 214.5 528.5 208.0H521.5Q512.5 208.0 499.25 209.5Q486.0 211.0 477.5 212.5L464.5 215.0L471.0 218.0Q475.0 220.5 477.75 221.75Q480.5 223.0 484.5 223.0Q489.0 223.0 495.75 220.75Q502.5 218.5 514.0 214.5ZM216.0 47.0V46.5Q217.0 45.5 217.0 44.0Q217.0 42.5 212.25 42.0Q207.5 41.5 193.5 41.5H169.0L175.5 53.5Q179.5 60.5 183.0 72.75Q186.5 85.0 188.5 94.5Q190.0 104.0 190.75 107.75Q191.5 111.5 191.5 111.5Q192.5 110.0 195.0 103.0Q197.5 96.0 201.5 86.0Q205.5 74.5 209.75 62.75Q214.0 51.0 216.0 47.0ZM265.0 122.5Q262.0 115.5 257.0 113.0Q252.0 110.5 236.5 110.5Q226.0 110.5 220.75 111.75Q215.5 113.0 213.25 117.0Q211.0 121.0 208.5 130.0Q206.0 139.0 204.25 157.25Q202.5 175.5 202.5 191.0V230.5H282.0L279.0 193.5L249.0 191.5Q213.5 189.5 213.5 182.0Q213.5 173.5 248.0 173.5H276.5L273.0 155.5Q272.5 148.0 270.0 138.5Q267.5 129.0 265.0 122.5ZM231.0 89.0 255.0 88.0 235.5 81.0 235.0 82.0Q235.0 82.5 234.25 83.5Q233.5 84.5 233.0 86.5Q232.5 87.0 232.25 87.5Q232.0 88.0 231.0 89.0ZM291.5 151.5 293.5 158.0 307.5 110.5H292.5Q284.5 110.5 281.75 110.75Q279.0 111.0 279.0 112.0Q279.0 113.0 279.75 115.0Q280.5 117.0 281.0 119.5Q283.5 125.0 286.5 134.5Q289.5 144.0 291.5 151.5ZM405.0 114.5Q404.0 112.5 392.25 111.5Q380.5 110.5 365.0 110.5Q350.0 110.5 341.25 111.25Q332.5 112.0 327.75 116.25Q323.0 120.5 319.5 130.25Q316.0 140.0 311.0 157.5L307.0 173.5H353.5Q377.5 173.5 393.0 175.25Q408.5 177.0 408.5 182.0Q408.5 185.5 393.0 187.75Q377.5 190.0 353.5 190.0H305.5L301.5 205.5Q300.0 211.5 300.0 218.0Q300.0 223.5 301.5 226.0Q303.0 228.0 317.5 229.25Q332.0 230.5 353.5 230.5Q380.0 230.5 394.25 232.5Q408.5 234.5 408.5 239.0Q408.5 243.0 397.0 245.0Q385.5 247.0 364.0 247.0H352.0L301.5 246.0V279.0L351.5 280.5H366.0Q368.5 281.0 371.0 281.0Q373.5 281.0 375.5 281.0Q391.0 281.0 399.0 278.0Q407.0 275.0 410.25 265.5Q413.5 256.0 413.5 237.0Q413.5 231.5 413.0 218.25Q412.5 205.0 411.5 188.5Q410.5 172.0 409.5 156.0Q408.5 140.0 407.25 128.5Q406.0 117.0 405.0 114.5ZM445.5 32.5Q445.5 31.5 441.0 30.75Q436.5 30.0 425.0 30.0Q413.0 30.0 408.25 30.25Q403.5 30.5 403.5 32.5Q403.5 35.0 405.0 39.0Q405.5 41.0 406.25 44.75Q407.0 48.5 409.0 52.5Q410.0 56.0 410.75 59.5Q411.5 63.0 412.5 66.5L413.0 70.0Q415.5 77.0 418.0 81.5Q420.5 86.0 422.5 86.0Q429.0 86.0 434.5 66.0Q437.5 55.0 441.0 45.5Q444.5 36.0 445.5 32.5ZM604.5 118.0 557.0 115.0Q544.5 114.5 533.5 114.25Q522.5 114.0 513.5 113.5Q495.0 112.5 481.75 111.75Q468.5 111.0 460.5 111.0Q446.5 111.0 444.0 112.25Q441.5 113.5 440.5 116.0Q439.0 119.5 437.25 128.0Q435.5 136.5 434.25 147.0Q433.0 157.5 432.0 166.75Q431.0 176.0 431.0 181.0Q431.0 190.0 440.0 192.5Q444.0 194.0 450.25 194.5Q456.5 195.0 464.5 195.0Q490.0 195.0 531.5 189.25Q573.0 183.5 623.75 172.75Q674.5 162.0 727.0 147.5L800.0 128.5L759.0 125.5Q744.0 124.0 718.75 122.75Q693.5 121.5 663.75 120.25Q634.0 119.0 604.5 118.0ZM326.5 368.0Q283.5 368.0 240.5 364.5Q197.5 361.0 155.0 352.5L142.0 350.5L143.5 375.5Q144.5 385.5 145.5 393.5Q146.5 401.5 146.5 401.5Q149.0 401.0 158.5 398.25Q168.0 395.5 180.5 392.5Q190.0 390.5 205.75 387.5Q221.5 384.5 240.0 381.5Q258.5 378.5 275.0 376.0Q291.0 373.5 304.5 371.5Q318.0 369.5 326.5 368.0ZM283.0 262.5 280.5 247.5H203.0L199.5 343.0L245.5 347.0H255.5Q262.5 347.5 268.0 348.0Q273.5 348.5 277.0 348.5H280.0Q280.0 348.5 280.75 341.0Q281.5 333.5 283.0 324.5L284.5 301.5L258.5 300.0Q241.5 299.0 233.25 295.75Q225.0 292.5 225.0 289.0Q225.0 286.5 232.5 284.25Q240.0 282.0 255.5 282.0Q265.5 282.0 273.5 281.0Q281.5 280.0 283.5 279.5V279.0Q283.5 278.0 283.75 276.75Q284.0 275.5 284.0 274.0Q284.0 271.5 283.75 268.5Q283.5 265.5 283.0 262.5ZM386.0 355.5H413.5V299.0H360.0Q331.0 299.0 318.25 301.0Q305.5 303.0 302.5 310.75Q299.5 318.5 299.0 336.0Q299.0 344.0 304.25 346.75Q309.5 349.5 326.0 352.0Q338.0 353.0 356.0 354.25Q374.0 355.5 386.0 355.5ZM521.5 261.0 518.0 259.5H517.5Q505.0 253.5 498.25 251.0Q491.5 248.5 486.0 248.5Q483.0 248.5 479.25 250.5Q475.5 252.5 471.5 255.5Q471.0 256.0 470.0 256.75Q469.0 257.5 468.0 258.5Q470.0 258.5 471.5 259.0Q480.0 259.0 488.75 259.25Q497.5 259.5 506.0 260.0Q510.0 260.5 514.25 260.75Q518.5 261.0 521.5 261.0ZM447.0 280.0Q447.0 276.5 441.5 276.5Q437.0 276.5 434.0 280.0Q432.5 280.5 431.5 292.75Q430.5 305.0 430.5 321.0V357.0L486.0 353.0Q566.0 348.0 621.5 345.0Q677.0 342.0 714.25 340.5Q751.5 339.0 776.0 339.0Q790.5 339.0 801.25 338.25Q812.0 337.5 817.0 337.0Q807.0 334.0 783.75 328.75Q760.5 323.5 732.5 317.0Q642.0 298.0 575.75 287.5Q509.5 277.0 480.0 277.0Q460.0 277.0 457.5 281.0Q455.5 287.5 452.0 287.5Q447.0 287.5 447.0 280.0ZM368.0 15.0Q368.0 12.0 383.75 11.0Q399.5 10.0 422.0 10.0Q445.0 10.0 460.75 11.5Q476.5 13.0 476.5 15.0Q476.5 15.0 472.0 24.75Q467.5 34.5 462.0 47.5L460.5 50.5Q455.5 62.0 452.0 69.75Q448.5 77.5 448.5 82.0Q448.5 89.5 463.5 91.5Q478.5 93.5 512.0 95.0L526.5 95.5Q552.0 97.5 589.75 99.0Q627.5 100.5 666.0 103.0Q676.0 103.5 694.75 104.25Q713.5 105.0 735.75 106.5Q758.0 108.0 779.25 110.0Q800.5 112.0 815.75 114.0Q831.0 116.0 834.5 118.0H835.0Q836.0 122.0 843.5 122.0Q853.5 122.0 853.5 126.5Q853.5 130.5 836.0 136.75Q818.5 143.0 788.5 151.0Q751.0 159.5 712.5 169.75Q674.0 180.0 639.0 190.25Q604.0 200.5 576.0 209.75Q548.0 219.0 530.5 225.75Q513.0 232.5 510.5 236.0Q521.0 241.0 543.0 248.75Q565.0 256.5 593.5 264.75Q622.0 273.0 653.25 281.0Q684.5 289.0 714.0 295.0Q761.5 305.5 792.25 312.25Q823.0 319.0 840.25 323.25Q857.5 327.5 864.25 330.5Q871.0 333.5 871.0 336.0Q871.0 344.0 828.5 350.0Q786.0 356.0 710.0 359.0Q694.0 359.5 663.25 360.75Q632.5 362.0 591.75 364.5Q551.0 367.0 504.5 370.5Q458.0 374.0 410.25 378.5Q362.5 383.0 317.25 388.5Q272.0 394.0 233.75 401.0Q195.5 408.0 168.75 416.25Q142.0 424.5 131.5 434.0Q123.5 440.5 120.0 440.5Q115.5 440.5 115.5 428.5Q115.5 422.0 118.25 417.5Q121.0 413.0 124.5 413.0Q126.0 413.0 126.5 407.5Q127.0 402.0 127.0 395.0Q127.0 383.5 124.5 369.25Q122.0 355.0 118.0 347.5L107.0 324.0L131.0 329.5Q139.5 331.5 150.75 333.5Q162.0 335.5 170.0 336.5L184.5 339.5V250.0L172.5 251.5Q158.5 253.5 141.25 257.0Q124.0 260.5 107.5 264.25Q91.0 268.0 78.5 271.5Q66.0 275.0 61.5 277.5Q56.5 280.0 48.5 285.75Q40.5 291.5 34.5 297.0Q28.0 302.0 22.75 305.5Q17.5 309.0 15.0 309.0Q10.0 309.0 10.0 301.0Q10.0 299.0 10.5 295.0Q11.0 291.0 12.5 287.0Q15.0 280.0 17.5 259.75Q20.0 239.5 20.5 218.0Q21.5 194.5 22.75 178.0Q24.0 161.5 26.5 161.5Q27.5 161.5 35.0 166.75Q42.5 172.0 52.0 179.0Q68.5 191.5 93.5 201.5Q118.5 211.5 156.0 221.5L184.5 228.0V214.5Q184.5 206.5 183.5 189.75Q182.5 173.0 180.5 156.5Q179.0 137.5 177.75 130.75Q176.5 124.0 174.0 124.0Q173.5 124.0 172.5 124.5Q171.5 125.0 170.5 125.0L167.0 126.0Q164.5 126.5 163.0 127.25Q161.5 128.0 160.0 128.0Q156.5 128.0 156.5 124.0Q156.5 123.0 158.5 120.0Q160.5 117.0 163.5 113.5Q169.0 107.0 169.0 94.5Q169.0 71.0 151.5 47.5Q146.0 40.0 142.5 33.5Q139.0 27.0 139.0 26.5Q139.0 25.5 155.0 23.5Q171.0 21.5 193.0 21.5Q216.0 21.5 232.0 23.5Q248.0 25.5 248.0 26.5Q248.0 27.0 246.5 30.0Q245.0 33.0 243.5 37.0Q242.5 38.5 241.25 40.5Q240.0 42.5 239.0 45.0L237.5 47.0Q234.5 51.5 233.0 55.5Q231.5 59.5 231.0 61.5Q233.5 62.0 248.25 65.5Q263.0 69.0 283.0 72.75Q303.0 76.5 320.0 79.0L353.5 84.0L397.5 87.5L394.0 70.5Q392.5 62.0 388.0 50.75Q383.5 39.5 379.5 33.5L375.5 28.5Q374.5 27.0 374.0 26.0Q373.5 25.0 372.5 24.5Q370.5 20.5 369.25 18.5Q368.0 16.5 368.0 15.0Z" fill="black" /></svg>