<svg xmlns="http://www.w3.org/2000/svg" width="919.5" height="459.0" viewBox="0 0 919.5 459.0"><path d="M118.0 331.0V330.5Q109.0 327.5 97.75 320.5Q86.5 313.5 79.0 308.5L66.5 300.0L58.5 325.0Q56.5 334.5 55.0 343.0Q53.5 351.5 52.5 356.5Q54.5 355.5 56.25 354.75Q58.0 354.0 60.0 352.0Q65.5 350.0 79.25 346.5Q93.0 343.0 107.0 340.0L127.5 336.0ZM151.0 145.5Q151.0 144.5 146.5 140.75Q142.0 137.0 136.5 133.5L125.0 125.5L121.5 139.0Q120.0 143.5 119.0 148.0Q118.0 152.5 117.5 155.0Q122.5 154.0 130.5 152.25Q138.5 150.5 144.75 148.5Q151.0 146.5 151.0 145.5ZM283.5 209.0H273.0Q266.0 209.0 256.5 207.75Q247.0 206.5 242.0 204.5Q239.0 203.5 237.0 203.5Q237.0 204.0 237.25 204.5Q237.5 205.0 237.5 206.5Q239.5 210.0 243.0 219.25Q246.5 228.5 251.0 238.5L257.5 260.0ZM445.5 219.5 449.0 220.0Q433.5 216.0 415.0 210.5Q396.5 205.0 383.5 198.5Q381.5 203.0 380.0 215.75Q378.5 228.5 378.0 236.5Q382.0 235.5 388.25 234.0Q394.5 232.5 401.5 230.5Q412.5 227.0 423.5 224.25Q434.5 221.5 445.5 219.5ZM740.0 179.0Q733.5 182.5 723.0 188.5Q712.5 194.5 701.5 201.5Q690.5 208.5 681.75 214.25Q673.0 220.0 670.5 222.5Q665.0 227.0 657.5 229.5Q662.5 232.0 673.25 235.5Q684.0 239.0 694.5 241.5Q705.0 244.0 709.5 244.0Q711.0 244.0 711.0 232.5Q711.0 225.5 715.5 214.25Q720.0 203.0 728.0 192.5Q736.5 184.0 740.0 179.0ZM270.5 89.5Q278.0 79.0 280.0 72.0H261.0L244.5 74.0L254.5 97.0Q256.0 100.0 257.25 102.5Q258.5 105.0 259.0 106.5Q263.0 101.5 270.5 89.5ZM450.5 46.0Q448.5 48.0 443.75 53.5Q439.0 59.0 434.0 66.5L424.5 85.5L438.0 87.0Q447.0 88.5 458.5 90.5Q470.0 92.5 479.0 95.0L488.0 97.0L474.0 79.5Q464.5 69.0 457.5 59.0Q450.5 49.0 450.5 46.0ZM422.5 328.5H400.0Q383.0 328.5 367.25 327.5Q351.5 326.5 346.0 325.0Q344.0 324.5 342.25 324.5Q340.5 324.5 339.5 324.5Q339.5 330.5 345.0 346.0Q347.5 353.0 349.75 360.75Q352.0 368.5 352.5 372.0Q353.5 371.5 355.75 370.25Q358.0 369.0 360.0 366.0Q365.5 361.0 379.0 352.25Q392.5 343.5 405.0 337.0ZM814.0 158.0Q811.5 147.5 809.75 140.5Q808.0 133.5 808.0 133.5Q805.5 134.5 794.75 145.5Q784.0 156.5 771.0 171.25Q758.0 186.0 747.5 199.5Q740.0 210.0 735.25 222.5Q730.5 235.0 730.5 243.5Q730.5 249.0 731.5 249.0Q735.5 249.0 737.0 252.0Q738.5 255.0 738.5 259.0V264.0Q738.5 271.5 760.0 289.0Q776.0 303.5 791.25 319.25Q806.5 335.0 817.0 347.0Q827.5 359.0 828.5 363.5H829.5Q830.5 363.5 830.75 354.0Q831.0 344.5 831.0 329.5Q831.0 313.5 829.75 291.75Q828.5 270.0 826.0 246.25Q823.5 222.5 820.5 199.5Q817.5 176.5 814.0 158.0ZM864.0 87.5 871.5 73.0H804.0L808.0 79.5Q812.0 85.5 817.0 100.75Q822.0 116.0 825.0 132.0Q835.5 171.0 835.5 171.0Q839.5 152.0 847.5 128.25Q855.5 104.5 864.0 87.5ZM197.0 57.0V55.0L198.5 54.0Q200.0 52.5 209.75 51.75Q219.5 51.0 234.25 50.75Q249.0 50.5 264.5 50.5Q280.0 50.5 294.25 51.0Q308.5 51.5 318.0 53.0Q327.5 54.5 328.0 57.0Q327.5 60.0 323.0 64.0Q318.5 68.0 313.5 71.0Q308.0 73.5 300.0 82.25Q292.0 91.0 285.0 100.0Q277.0 114.0 273.25 126.25Q269.5 138.5 269.0 158.0V189.5H290.5Q321.0 189.5 321.0 199.0Q321.0 201.5 317.75 205.0Q314.5 208.5 309.0 212.0Q303.5 216.5 296.5 228.0Q289.5 239.5 283.25 254.25Q277.0 269.0 272.75 283.0Q268.5 297.0 268.5 306.5Q268.5 319.0 270.25 322.5Q272.0 326.0 281.0 327.5Q289.0 329.0 297.25 330.0Q305.5 331.0 311.0 331.0Q318.0 331.0 319.5 331.5Q319.0 329.5 317.5 326.0Q316.0 322.5 313.5 319.0Q308.5 309.0 308.5 303.5Q308.5 296.0 317.5 296.0Q323.5 296.0 338.0 301.0Q349.5 305.0 370.0 307.0Q390.5 309.0 414.0 309.0Q440.5 309.0 468.0 306.25Q495.5 303.5 513.0 298.5Q540.5 289.5 568.0 282.5Q595.5 275.5 617.0 271.25Q638.5 267.0 648.0 267.0Q659.0 267.0 659.0 273.0Q659.0 277.5 651.75 281.5Q644.5 285.5 635.5 287.0Q616.5 290.0 586.5 297.75Q556.5 305.5 522.75 316.5Q489.0 327.5 456.5 340.25Q424.0 353.0 399.25 366.5Q374.5 380.0 363.5 393.0Q359.0 398.5 353.0 403.5Q347.0 408.5 340.0 408.5Q339.0 407.0 337.5 400.5Q336.0 394.0 334.5 387.0Q333.0 380.0 332.5 377.0L328.5 353.0L301.5 350.5Q292.5 349.5 284.75 349.0Q277.0 348.5 273.0 348.5H272.0L271.5 348.0Q269.5 350.0 269.0 362.0Q268.5 374.0 268.5 389.5Q268.5 411.0 265.75 424.5Q263.0 438.0 259.0 438.0Q254.0 438.0 251.5 423.5Q249.0 409.0 249.0 387.5V345.0H233.0Q216.5 345.0 190.5 347.25Q164.5 349.5 136.0 354.5Q107.5 359.5 82.75 367.75Q58.0 376.0 43.5 388.0Q35.0 395.5 27.25 400.5Q19.5 405.5 15.5 405.5Q10.0 405.5 10.0 399.0Q10.0 397.0 13.0 390.25Q16.0 383.5 20.0 375.5Q27.0 364.5 35.25 337.5Q43.5 310.5 50.0 278.5L54.0 256.5L80.5 282.5Q89.0 292.0 102.5 300.25Q116.0 308.5 130.0 314.5Q145.5 319.5 156.75 322.25Q168.0 325.0 179.75 326.0Q191.5 327.0 207.5 327.0Q211.0 326.5 214.75 326.5Q218.5 326.5 223.0 326.5L249.0 325.5L246.5 305.0Q241.5 271.0 232.5 245.25Q223.5 219.5 212.0 208.5Q204.0 201.0 199.25 194.75Q194.5 188.5 194.5 186.5Q194.5 181.5 204.0 181.5Q208.0 181.5 214.5 181.75Q221.0 182.0 226.5 183.0L249.0 186.0L246.5 157.5H212.5Q177.0 158.5 151.75 165.5Q126.5 172.5 112.5 187.0Q107.0 192.5 100.75 197.25Q94.5 202.0 91.5 202.0L88.5 201.5L87.5 197.0Q87.5 191.5 91.0 177.75Q94.5 164.0 99.5 147.0Q105.0 126.5 108.5 111.25Q112.0 96.0 112.0 92.5Q112.0 82.0 119.0 82.0Q123.0 82.0 128.0 86.5Q133.0 91.0 138.0 101.5Q145.0 117.5 156.75 124.5Q168.5 131.5 183.5 133.0Q198.5 134.5 214.5 134.5L245.5 132.0L240.0 110.5Q229.5 87.0 214.5 74.5Q206.5 69.0 201.75 64.5Q197.0 60.0 197.0 57.0ZM766.0 58.5Q766.0 55.5 787.0 53.25Q808.0 51.0 837.0 51.0H857.5Q884.5 51.0 897.0 53.25Q909.5 55.5 909.5 60.0Q909.5 64.5 898.5 70.5Q893.0 72.0 884.75 88.5Q876.5 105.0 868.5 128.75Q860.5 152.5 855.0 177.5Q851.0 196.0 849.25 215.5Q847.5 235.0 847.5 263.5Q847.5 277.5 847.75 294.75Q848.0 312.0 849.0 334.5Q849.5 353.0 849.5 368.5Q849.5 384.0 849.5 396.5Q849.5 424.0 847.5 436.5Q845.5 449.0 841.0 449.0Q835.0 449.0 833.0 438.75Q831.0 428.5 831.0 408.5Q831.0 391.0 830.0 384.25Q829.0 377.5 826.5 377.5Q823.5 377.5 815.5 371.25Q807.5 365.0 802.0 356.5Q792.5 344.5 776.75 330.0Q761.0 315.5 742.75 300.75Q724.5 286.0 706.75 273.75Q689.0 261.5 675.25 254.0Q661.5 246.5 655.5 246.5Q652.5 246.5 644.5 245.5Q636.5 244.5 627.5 242.25Q618.5 240.0 612.25 236.75Q606.0 233.5 606.0 229.0Q606.0 228.5 607.0 226.5Q605.0 227.0 602.75 227.25Q600.5 227.5 597.5 227.5Q589.0 227.5 569.5 228.5Q550.0 229.5 524.75 231.75Q499.5 234.0 472.75 237.5Q446.0 241.0 422.5 245.75Q399.0 250.5 383.25 257.0Q367.5 263.5 364.5 272.0Q363.0 280.0 356.0 280.0Q351.0 280.0 349.5 276.5Q348.0 273.0 348.0 269.5Q348.0 263.0 351.0 255.0Q354.5 249.5 356.75 236.5Q359.0 223.5 360.5 211.5Q363.0 187.0 365.5 176.0Q368.0 165.0 374.0 165.0Q380.0 165.0 389.0 174.0Q405.5 187.5 429.5 194.75Q453.5 202.0 478.5 204.75Q503.5 207.5 523.5 207.5H562.5L656.0 206.5L717.5 169.5Q734.5 159.0 750.0 148.75Q765.5 138.5 777.0 130.5Q788.5 122.5 792.5 119.0L802.5 109.0L792.5 93.5Q789.0 87.0 784.0 80.25Q779.0 73.5 776.0 71.0V71.5Q772.5 69.0 769.25 65.75Q766.0 62.5 766.0 58.5ZM425.5 42.0Q432.5 29.0 439.75 19.5Q447.0 10.0 449.0 10.0Q452.5 10.0 455.75 15.0Q459.0 20.0 461.0 26.5Q462.5 31.5 472.5 45.5Q482.5 59.5 494.5 73.0Q508.0 86.0 520.5 96.0Q533.0 106.0 551.25 116.5Q569.5 127.0 600.0 141.5Q631.5 158.5 653.5 171.75Q675.5 185.0 675.5 189.5Q675.5 193.0 674.75 194.75Q674.0 196.5 669.0 196.5Q665.0 196.5 650.25 189.75Q635.5 183.0 602.5 167.5Q545.5 139.0 501.5 123.25Q457.5 107.5 431.0 107.5Q426.0 107.5 420.25 108.5Q414.5 109.5 409.5 111.0Q405.5 113.5 401.25 114.25Q397.0 115.0 394.0 115.0Q386.0 115.0 386.0 108.0Q386.0 102.0 398.5 87.5Q404.0 81.5 411.75 68.25Q419.5 55.0 425.5 42.0Z" fill="black" /></svg>