<svg xmlns="http://www.w3.org/2000/svg" width="256.0" height="383.0" viewBox="0 0 256.0 383.0"><path d="M101.0 166.5H88.5Q81.5 166.5 73.0 165.5Q64.5 164.5 59.0 163.0L52.5 161.5L64.0 181.0Q65.5 183.5 66.75 186.0Q68.0 188.5 69.5 191.0Q70.5 193.5 72.0 195.75Q73.5 198.0 74.5 200.0Q75.5 202.0 76.75 203.75Q78.0 205.5 78.5 207.0Q81.0 198.5 85.0 191.0Q89.0 183.5 94.0 176.5ZM208.0 166.5H193.0Q185.0 166.5 176.25 165.5Q167.5 164.5 164.0 163.5Q162.5 163.0 161.0 163.0Q159.0 163.0 159.0 164.5Q159.0 166.5 163.0 170.5Q165.5 172.5 170.25 179.0Q175.0 185.5 180.0 193.0Q182.0 197.5 183.75 200.75Q185.5 204.0 186.0 205.0Q187.0 201.0 190.5 194.25Q194.0 187.5 198.0 181.0ZM57.5 27.5 79.0 49.0 99.0 27.5ZM198.0 36.5 203.5 27.5H166.0L172.5 36.5Q180.5 47.5 186.0 47.5Q191.0 47.5 198.0 36.5ZM61.0 11.5Q84.5 10.5 110.25 10.25Q136.0 10.0 160.0 10.0Q196.5 10.0 221.25 11.0Q246.0 12.0 246.0 14.5Q246.0 16.0 241.25 20.75Q236.5 25.5 229.5 29.5Q212.5 40.5 199.0 58.75Q185.5 77.0 185.5 99.0Q185.5 102.5 185.5 106.5Q185.5 110.5 186.0 115.5L187.5 149.0L207.0 148.0H210.5Q221.0 148.0 225.5 149.75Q230.0 151.5 230.0 157.0Q230.0 160.5 227.0 165.75Q224.0 171.0 218.5 178.0Q206.5 195.0 199.0 213.0Q191.5 231.0 188.25 253.5Q185.0 276.0 185.0 308.0Q185.0 336.5 183.0 354.75Q181.0 373.0 177.5 373.0Q174.0 373.0 172.5 355.0Q171.0 337.0 171.0 306.0V263.5Q171.5 259.0 171.5 254.75Q171.5 250.5 171.5 247.0Q171.5 227.0 170.25 217.0Q169.0 207.0 166.25 200.75Q163.5 194.5 158.0 187.0Q152.5 179.0 146.25 171.75Q140.0 164.5 137.5 163.0Q128.5 159.0 128.5 154.5Q128.5 146.0 151.5 146.0H169.5L170.5 121.5Q171.0 114.5 171.0 108.0Q171.0 101.5 171.0 96.0Q171.0 76.0 168.5 64.75Q166.0 53.5 160.0 46.75Q154.0 40.0 143.5 34.5Q135.5 30.0 129.5 30.0Q121.0 30.0 112.0 37.25Q103.0 44.5 92.5 58.5Q87.0 66.0 84.0 72.75Q81.0 79.5 80.25 88.5Q79.5 97.5 79.5 113.5V149.0H97.5Q106.0 149.5 113.25 150.0Q120.5 150.5 122.5 151.0Q125.0 151.5 125.0 154.5Q125.0 156.5 122.25 161.75Q119.5 167.0 115.5 172.5Q105.0 186.5 98.5 197.75Q92.0 209.0 88.25 222.0Q84.5 235.0 82.5 253.25Q80.5 271.5 79.5 299.5Q77.5 330.0 74.5 351.5Q71.5 373.0 69.0 373.0Q67.0 373.0 65.75 362.75Q64.5 352.5 64.5 336.5Q64.5 328.5 64.5 319.5Q64.5 310.5 65.0 301.5V295.5Q65.5 285.5 65.75 277.0Q66.0 268.5 66.0 262.0Q66.0 237.0 63.25 221.0Q60.5 205.0 54.5 193.75Q48.5 182.5 38.0 173.0Q30.0 164.5 25.25 158.0Q20.5 151.5 20.5 150.5Q20.5 149.5 27.0 147.75Q33.5 146.0 43.0 146.0Q54.5 146.0 58.0 143.25Q61.5 140.5 63.5 132.5Q67.5 111.5 67.5 95.5Q67.5 46.5 29.5 32.0Q21.5 29.0 15.75 25.5Q10.0 22.0 10.0 19.0Q10.0 16.5 25.25 14.0Q40.5 11.5 61.0 11.5Z" fill="black" /></svg>