<svg xmlns="http://www.w3.org/2000/svg" width="517.5" height="454.5" viewBox="0 0 517.5 454.5"><path d="M236.0 149.0Q239.0 145.0 241.25 141.75Q243.5 138.5 245.0 136.0Q243.5 137.0 242.0 138.5Q240.5 140.0 238.5 141.5L232.0 147.5Q226.0 152.5 211.75 163.5Q197.5 174.5 178.75 188.5Q160.0 202.5 140.5 217.0L78.5 265.5L114.5 271.0Q125.0 273.0 133.25 273.75Q141.5 274.5 147.5 274.5Q162.0 274.5 167.25 268.25Q172.5 262.0 176.0 246.5Q182.5 216.0 236.0 149.0ZM403.0 159.0Q396.5 164.0 387.0 172.0Q377.5 180.0 367.5 188.25Q357.5 196.5 349.75 203.0Q342.0 209.5 339.0 212.0L271.5 270.0L300.0 274.5H306.0Q313.0 275.0 318.25 275.25Q323.5 275.5 328.5 275.5Q343.5 275.5 347.5 271.0Q351.5 266.5 351.5 254.5Q351.5 246.0 359.0 229.25Q366.5 212.5 377.0 198.5Q381.0 191.5 385.75 184.5Q390.5 177.5 394.0 171.5Q397.0 167.5 399.25 164.25Q401.5 161.0 403.0 159.0ZM478.0 57.5Q490.0 38.0 500.0 38.0Q507.5 38.0 507.5 48.5Q507.5 52.0 498.75 65.25Q490.0 78.5 476.5 94.5Q469.5 102.5 457.0 118.5Q444.5 134.5 430.25 154.25Q416.0 174.0 403.25 194.25Q390.5 214.5 382.25 231.75Q374.0 249.0 374.0 259.0Q374.0 279.5 380.75 294.25Q387.5 309.0 399.5 321.25Q411.5 333.5 426.0 346.5Q455.0 373.5 470.25 392.0Q485.5 410.5 485.5 419.0Q485.5 423.0 483.0 424.5L481.5 425.5Q477.5 425.5 463.0 413.0Q448.5 400.5 430.5 383.0Q403.5 356.5 383.0 339.5Q362.5 322.5 344.75 313.0Q327.0 303.5 308.75 299.25Q290.5 295.0 267.5 293.0L204.0 288.5Q204.0 290.5 204.0 292.5Q204.0 294.5 203.5 296.0Q203.0 298.0 203.0 299.5Q203.0 301.0 203.0 302.5Q203.0 311.0 210.75 319.25Q218.5 327.5 240.0 343.5Q259.5 358.5 277.0 377.75Q294.5 397.0 305.75 413.5Q317.0 430.0 317.0 437.5Q317.0 442.0 316.0 443.0Q315.5 444.5 311.5 444.5Q308.5 444.5 301.5 437.75Q294.5 431.0 287.5 421.5Q270.5 399.0 239.75 371.0Q209.0 343.0 169.0 317.0Q153.5 305.5 142.25 300.0Q131.0 294.5 116.5 291.75Q102.0 289.0 76.5 287.5L10.0 283.0L64.0 247.5Q82.0 235.0 107.0 216.0Q132.0 197.0 160.25 175.0Q188.5 153.0 216.0 130.25Q243.5 107.5 267.25 87.25Q291.0 67.0 307.25 52.0Q323.5 37.0 328.5 30.5Q340.0 10.0 349.0 10.0Q351.5 10.0 353.75 13.0Q356.0 16.0 356.0 23.0Q356.0 27.5 345.25 44.0Q334.5 60.5 319.0 78.0Q283.5 117.5 255.5 155.0Q227.5 192.5 211.0 221.25Q194.5 250.0 193.0 264.5Q194.0 269.5 196.0 270.5Q203.0 274.5 204.0 286.5L247.5 258.5Q260.5 249.0 280.75 232.75Q301.0 216.5 325.25 196.25Q349.5 176.0 374.0 154.75Q398.5 133.5 420.0 113.75Q441.5 94.0 457.0 79.25Q472.5 64.5 478.0 57.5Z" fill="black" /></svg>