<svg xmlns="http://www.w3.org/2000/svg" width="558.5" height="463.5" viewBox="0 0 558.5 463.5"><path d="M58.5 304.5 52.0 300.0Q47.5 297.5 41.25 292.0Q35.0 286.5 31.5 283.0L26.5 277.0V329.5ZM86.0 177.0H76.0Q66.5 177.0 66.5 178.5Q66.5 181.0 72.0 189.5L75.0 195.5L82.5 183.5Q84.0 180.5 85.0 178.75Q86.0 177.0 86.0 177.0ZM116.5 202.5V202.0Q108.5 184.0 106.0 184.0Q104.5 184.0 101.75 186.5Q99.0 189.0 96.5 192.0Q93.5 196.5 91.5 202.5Q89.5 208.5 88.75 218.75Q88.0 229.0 88.0 247.5V290.0H126.0V256.0Q126.0 234.0 123.75 222.75Q121.5 211.5 116.5 202.5ZM266.5 295.0Q257.0 285.0 248.25 275.25Q239.5 265.5 237.0 263.0Q236.5 261.5 236.25 260.5Q236.0 259.5 236.0 259.5Q235.5 260.0 233.0 263.75Q230.5 267.5 226.5 275.5Q221.5 284.0 215.5 292.75Q209.5 301.5 206.5 305.5Q206.0 306.5 205.0 308.0Q204.0 309.5 203.5 311.0Q224.0 312.5 245.0 313.75Q266.0 315.0 286.5 315.0Q284.0 312.5 278.5 307.5Q273.0 302.5 266.5 295.0ZM139.0 180.0Q140.5 178.5 140.5 177.0H120.0L125.0 186.0Q129.0 195.0 130.0 195.0Q131.0 195.0 139.0 180.0ZM168.5 118.5Q159.5 117.5 145.5 113.0Q131.5 108.5 119.0 103.5L97.0 91.5V152.0L108.5 147.5Q115.5 144.0 130.0 139.25Q144.5 134.5 158.0 130.5Q169.5 127.0 177.75 124.25Q186.0 121.5 186.0 121.5Q184.5 121.0 182.25 120.75Q180.0 120.5 177.5 120.0ZM193.0 297.5Q197.5 290.5 203.0 282.0Q208.5 273.5 213.5 265.0L238.5 223.0L247.5 245.0Q251.0 252.0 255.5 259.75Q260.0 267.5 263.5 272.5L266.5 276.0V223.5Q266.5 195.0 264.5 171.5Q262.5 148.0 259.5 134.0Q256.5 120.0 252.5 120.0Q246.0 120.0 230.25 123.75Q214.5 127.5 195.0 133.0Q175.5 138.5 157.0 144.5Q138.5 150.5 126.5 155.25Q114.5 160.0 114.5 162.0H139.5Q152.5 162.0 161.75 163.75Q171.0 165.5 171.0 168.0Q171.0 169.5 167.25 173.75Q163.5 178.0 159.0 182.0Q150.5 189.0 145.5 203.75Q140.5 218.5 140.5 242.0Q140.5 243.0 140.5 244.75Q140.5 246.5 141.0 247.5V256.0L142.5 288.0L165.0 289.0Q176.5 289.5 184.5 292.0Q192.5 294.5 193.0 297.5ZM340.5 127.0Q340.5 123.0 336.25 121.5Q332.0 120.0 314.0 120.0Q303.0 120.0 293.75 120.75Q284.5 121.5 283.0 122.5Q281.5 125.0 281.0 149.5Q280.5 174.0 280.5 208.0V290.5L291.5 298.5Q296.0 302.0 304.75 306.25Q313.5 310.5 320.0 314.5L332.0 319.0L331.0 263.5Q330.5 243.5 329.5 230.75Q328.5 218.0 327.0 209.0Q325.5 200.0 322.0 191.0Q318.5 182.0 312.5 170.0Q309.0 160.5 305.5 154.5Q304.5 151.5 303.0 148.75Q301.5 146.0 300.5 143.5Q296.5 135.5 296.5 133.0Q296.5 129.5 305.0 129.5Q308.0 129.5 312.75 129.5Q317.5 129.5 322.0 130.5Q326.5 131.0 330.25 131.25Q334.0 131.5 336.5 131.5Q340.5 131.5 340.5 127.0ZM261.0 97.5 267.5 113.5 284.5 77.5 269.0 75.5H260.0Q257.0 75.5 254.75 75.5Q252.5 75.5 251.0 75.0Q252.0 77.5 254.75 84.0Q257.5 90.5 261.0 97.5ZM336.0 106.0Q336.0 105.0 332.0 100.5Q328.0 96.0 322.75 90.5Q317.5 85.0 313.25 81.0Q309.0 77.0 308.0 77.0Q306.0 77.0 299.75 84.75Q293.5 92.5 289.5 101.0Q287.5 103.5 287.5 106.0Q287.5 106.5 292.5 106.5Q297.5 106.5 310.0 106.5Q321.0 106.5 328.5 106.25Q336.0 106.0 336.0 106.0ZM347.5 154.0 352.0 147.5 337.0 146.5H328.0Q326.5 146.0 325.0 146.0Q323.5 146.0 322.0 146.0H318.5Q320.0 153.0 328.0 164.5Q330.5 171.0 332.5 175.0Q334.5 179.0 335.0 180.5Q335.5 180.0 335.5 179.5L336.0 178.0Q337.0 172.5 340.25 165.75Q343.5 159.0 347.5 154.0ZM465.5 138.5 458.5 116.0 421.5 116.5Q404.5 116.5 389.5 117.75Q374.5 119.0 368.5 120.0Q357.5 122.5 357.5 127.0Q357.5 129.5 363.5 129.5H364.5Q377.0 129.5 377.0 138.0Q377.0 145.0 368.5 152.5Q365.0 156.0 362.5 160.75Q360.0 165.5 360.0 172.5Q360.0 190.5 350.0 190.5Q349.0 190.5 348.0 195.25Q347.0 200.0 346.75 214.0Q346.5 228.0 346.5 255.5Q346.5 291.5 347.75 307.0Q349.0 322.5 351.0 324.5Q352.5 325.5 362.25 329.75Q372.0 334.0 387.5 340.0Q403.0 346.0 420.5 352.5L480.5 374.5V293.0Q480.5 260.5 480.0 238.25Q479.5 216.0 478.0 199.75Q476.5 183.5 473.5 169.25Q470.5 155.0 465.5 138.5ZM362.0 67.5H323.0L345.0 90.5L355.5 77.0Q362.0 69.0 362.0 67.5ZM519.5 33.0H466.0Q446.5 33.0 446.5 36.5Q446.5 38.5 448.75 43.25Q451.0 48.0 453.5 54.5L454.5 57.0Q461.5 71.0 466.5 86.5Q471.5 102.0 475.0 116.5Q476.5 120.5 477.5 124.75Q478.5 129.0 480.0 132.0Q481.0 134.0 481.25 136.25Q481.5 138.5 482.0 140.0Q482.5 121.0 489.75 99.5Q497.0 78.0 505.0 62.0Q511.5 50.0 515.5 41.5Q519.5 33.0 519.5 33.0ZM420.0 14.5Q420.0 10.0 425.5 10.0Q426.0 10.0 427.0 10.0Q428.0 10.0 429.0 10.5Q430.5 10.5 432.0 11.0Q441.0 15.5 455.5 18.0Q470.0 20.5 486.5 20.5Q492.5 20.5 498.75 20.0Q505.0 19.5 511.0 19.0L514.0 18.0Q519.0 18.0 523.5 17.75Q528.0 17.5 531.0 17.5Q548.5 17.5 548.5 25.0Q548.5 33.0 540.5 33.0Q538.5 33.0 533.25 41.25Q528.0 49.5 522.0 62.25Q516.0 75.0 510.75 88.0Q505.5 101.0 502.5 111.0Q500.0 121.5 498.25 137.75Q496.5 154.0 495.75 182.75Q495.0 211.5 495.0 259.0V378.0L507.5 384.0Q513.5 387.5 517.75 391.25Q522.0 395.0 522.0 396.5Q522.0 400.0 516.5 400.0Q512.5 400.0 505.5 399.0L495.0 397.0V421.5Q495.0 453.5 488.0 453.5Q481.5 453.5 479.0 420.0L478.5 389.5L420.5 367.5Q394.5 357.0 373.5 350.5Q352.5 344.0 348.5 343.0Q343.5 343.0 337.5 340.75Q331.5 338.5 329.0 336.5Q326.5 333.5 312.75 331.25Q299.0 329.0 279.25 327.75Q259.5 326.5 238.5 326.5Q232.0 326.5 226.25 326.5Q220.5 326.5 214.5 327.0Q207.0 327.5 200.0 327.75Q193.0 328.0 188.0 328.0Q174.0 328.0 174.0 324.5Q174.0 323.0 176.75 318.75Q179.5 314.5 183.0 311.0Q184.0 309.5 186.25 306.75Q188.5 304.0 190.5 300.5Q186.5 303.0 174.25 304.25Q162.0 305.5 143.0 305.5Q136.5 305.5 128.25 305.5Q120.0 305.5 111.5 305.0H108.5Q72.0 305.0 33.5 345.0Q26.5 352.5 20.75 356.25Q15.0 360.0 12.5 360.0H12.0L11.0 360.5Q10.5 358.5 10.25 354.0Q10.0 349.5 10.0 342.5Q10.0 331.0 11.0 314.0Q12.0 297.0 13.25 280.5Q14.5 264.0 16.25 253.0Q18.0 242.0 19.5 242.0Q26.5 242.0 26.5 248.5Q26.5 255.5 35.0 265.25Q43.5 275.0 54.25 282.5Q65.0 290.0 72.0 290.0Q72.5 290.0 73.0 282.5Q73.5 275.0 73.5 265.0Q73.5 244.5 69.25 223.75Q65.0 203.0 52.0 186.0Q43.5 176.0 43.5 170.5Q43.5 165.0 48.25 163.5Q53.0 162.0 63.0 162.0Q74.5 162.0 78.0 157.25Q81.5 152.5 81.5 131.5V98.0Q81.5 87.0 82.25 79.75Q83.0 72.5 84.0 71.5L86.0 70.5Q88.0 70.5 95.0 73.5Q102.0 76.5 110.0 81.0Q136.0 98.0 167.0 103.5Q198.0 109.0 228.5 109.0Q245.5 109.0 245.5 104.5Q245.5 98.5 237.5 87.5L237.0 86.0Q233.0 78.0 229.75 71.75Q226.5 65.5 226.5 63.5Q226.5 59.0 239.0 59.0Q243.0 59.0 249.0 59.5Q255.0 60.0 261.0 61.0Q266.0 61.5 269.75 61.5Q273.5 61.5 276.5 61.5H287.5Q287.5 54.0 345.5 54.0Q404.5 55.0 404.5 62.5Q404.5 67.0 393.5 70.5Q386.5 73.0 378.75 79.0Q371.0 85.0 365.5 91.0Q360.0 97.0 360.0 101.0Q360.0 103.5 360.75 104.75Q361.5 106.0 365.0 106.0Q367.5 106.0 370.75 105.75Q374.0 105.5 378.0 105.5L383.5 104.5Q395.0 103.5 410.0 102.5Q425.0 101.5 434.5 101.5Q446.0 101.5 450.0 101.25Q454.0 101.0 454.0 99.5Q454.0 99.0 453.75 98.25Q453.5 97.5 453.5 96.0L453.0 94.5Q452.5 89.0 446.75 76.5Q441.0 64.0 434.5 53.0L431.0 44.5Q430.0 42.0 428.75 38.75Q427.5 35.5 426.0 33.0Q423.5 25.5 421.75 20.25Q420.0 15.0 420.0 14.5Z" fill="black" /></svg>