<svg xmlns="http://www.w3.org/2000/svg" width="1028.5" height="469.0" viewBox="0 0 1028.5 469.0"><path d="M301.5 368.5Q298.0 368.5 289.5 366.25Q281.0 364.0 274.0 362.0L262.0 357.0L260.0 371.5Q260.0 373.5 259.75 375.5Q259.5 377.5 259.5 379.5Q259.0 381.5 259.0 383.5Q259.0 385.5 258.5 387.0Q266.5 384.5 275.5 380.5Q283.0 376.5 292.25 373.75Q301.5 371.0 305.0 371.0Q308.0 371.0 308.0 369.0Q308.0 368.5 301.5 368.5ZM120.0 231.0Q124.5 224.0 127.75 217.5Q131.0 211.0 133.0 206.0Q131.0 208.0 128.0 211.0Q125.0 214.0 122.5 217.5Q116.0 225.0 101.0 238.25Q86.0 251.5 72.0 263.0L44.5 284.5L64.0 290.0Q75.5 292.5 84.0 293.75Q92.5 295.0 96.5 295.5Q101.5 294.5 101.5 285.5Q101.5 279.0 106.75 263.5Q112.0 248.0 120.0 231.0ZM293.5 270.5H288.0Q282.0 270.5 282.0 273.5H287.0Q289.0 272.5 291.25 271.75Q293.5 271.0 293.5 270.5ZM526.5 272.0Q525.0 270.5 521.0 270.5Q515.0 270.5 514.5 275.0Q515.0 275.0 516.0 274.75Q517.0 274.5 517.5 274.5Q518.0 274.5 518.5 274.25Q519.0 274.0 519.5 274.0Q521.0 273.5 522.5 273.5L525.0 272.5Q525.5 272.5 525.75 272.25Q526.0 272.0 526.5 272.0ZM702.5 280.5Q703.5 278.5 704.75 276.75Q706.0 275.0 706.5 273.5Q705.0 274.5 703.25 276.0Q701.5 277.5 699.0 279.0Q697.0 279.5 695.75 281.0Q694.5 282.5 692.5 283.5L690.0 285.5Q679.0 293.5 668.75 301.0Q658.5 308.5 656.0 310.0L654.5 310.5L660.0 311.0Q662.5 311.5 665.75 312.25Q669.0 313.0 673.5 314.0Q677.0 314.5 680.25 314.5Q683.5 314.5 684.5 314.5Q687.0 314.5 687.75 313.5Q688.5 312.5 689.0 311.5Q689.0 307.0 693.0 297.75Q697.0 288.5 702.5 280.5ZM904.5 280.5Q901.5 282.0 898.5 283.75Q895.5 285.5 892.0 287.5Q885.5 292.5 880.5 296.25Q875.5 300.0 875.5 301.0H888.5Q897.0 301.0 899.25 300.0Q901.5 299.0 901.5 294.5Q901.5 287.0 904.5 280.5ZM289.5 134.5Q282.0 133.5 274.25 130.75Q266.5 128.0 261.0 125.0Q255.0 121.5 253.5 121.5Q253.0 121.5 252.0 129.5L251.0 133.5Q249.0 141.0 248.25 147.5Q247.5 154.0 247.5 158.0Q247.5 162.5 248.0 162.5Q251.0 162.5 257.5 159.0Q264.0 155.5 273.5 150.5Q284.0 146.5 292.25 142.75Q300.5 139.0 303.0 137.5Q301.0 137.0 297.5 136.0Q294.0 135.0 289.5 134.5ZM293.0 218.5V218.0Q291.0 217.0 289.5 216.5Q288.0 216.0 287.0 216.0V218.5Q287.0 219.0 287.25 220.25Q287.5 221.5 287.5 221.5Q288.5 221.5 290.25 220.5Q292.0 219.5 294.0 219.0Q294.0 218.5 293.0 218.5ZM506.5 142.0Q492.5 139.0 479.5 134.5Q466.5 130.0 453.5 125.0Q452.5 124.5 450.5 124.5V139.5Q450.5 147.5 449.75 155.25Q449.0 163.0 448.0 167.0Q450.5 166.0 455.25 164.25Q460.0 162.5 466.5 158.5Q480.0 152.5 491.25 148.0Q502.5 143.5 506.5 143.5Q507.5 143.5 508.5 143.25Q509.5 143.0 509.5 143.0Q509.5 142.0 506.5 142.0ZM527.0 220.5Q525.0 220.0 522.5 219.0Q520.0 218.0 517.5 217.5H515.5Q515.0 217.0 514.5 217.0Q514.5 222.5 521.0 222.5Q524.0 222.5 527.0 220.5ZM702.5 118.5Q703.5 117.0 704.25 115.75Q705.0 114.5 705.5 113.0Q701.5 115.0 696.75 118.25Q692.0 121.5 686.5 125.5Q677.5 133.0 667.75 139.0Q658.0 145.0 654.0 147.5Q660.5 149.0 673.5 150.5Q681.0 152.0 686.0 152.0Q689.0 152.0 689.0 148.5Q689.0 145.0 693.0 135.75Q697.0 126.5 702.5 118.5ZM759.0 105.0Q749.0 99.0 744.0 98.5Q740.5 100.0 734.5 106.25Q728.5 112.5 722.5 121.0Q716.5 129.5 712.5 137.0Q708.5 144.5 708.5 148.5Q708.5 149.5 710.5 150.5Q713.5 154.0 715.0 159.0Q716.5 164.0 716.5 167.5Q716.5 171.5 726.5 179.5Q736.5 187.5 745.0 192.0Q739.0 185.0 739.0 181.5Q739.0 175.5 746.5 174.25Q754.0 173.0 771.5 173.0H798.5V156.0Q798.5 141.5 789.5 130.25Q780.5 119.0 759.0 105.0ZM815.0 201.0 823.0 190.5H799.5Q783.5 190.5 777.5 191.0Q771.5 191.5 771.5 194.0Q771.5 198.0 775.5 201.0Q778.0 202.5 780.5 206.5Q783.0 210.5 786.5 215.5Q787.5 217.5 789.0 220.25Q790.5 223.0 792.0 225.5L797.5 236.0L798.5 234.0Q799.5 228.0 804.75 218.0Q810.0 208.0 815.0 201.0ZM815.0 102.5Q813.0 102.5 810.5 102.5Q808.0 102.5 804.5 102.5H790.5L795.5 107.0Q798.5 110.5 800.75 112.5Q803.0 114.5 803.5 115.5L804.0 114.0Q806.5 111.5 809.0 108.0Q811.5 104.5 815.0 102.5ZM896.5 112.5Q886.5 111.0 876.75 109.25Q867.0 107.5 863.0 106.0H860.0Q857.5 105.0 855.5 105.0Q846.5 105.0 835.25 111.25Q824.0 117.5 821.0 125.0Q818.5 128.5 817.0 137.25Q815.5 146.0 815.5 154.5V173.0H833.5Q860.0 173.0 860.0 181.5Q860.0 183.0 858.5 185.5Q868.5 180.0 881.5 171.5Q894.5 163.0 907.25 154.0Q920.0 145.0 929.0 138.25Q938.0 131.5 940.0 129.0V127.5Q940.0 123.5 928.25 119.75Q916.5 116.0 896.5 112.5ZM905.5 190.0Q905.5 181.0 910.5 173.5Q908.0 175.5 904.75 177.5Q901.5 179.5 897.5 182.0L895.5 184.0Q893.5 185.5 891.25 186.75Q889.0 188.0 888.0 189.5Q885.0 191.5 884.0 192.0Q885.0 192.5 885.75 192.75Q886.5 193.0 887.0 193.5Q892.5 195.0 896.75 196.0Q901.0 197.0 903.0 197.0Q905.5 197.0 905.5 190.0ZM929.0 83.0Q931.5 78.5 932.0 75.0Q931.5 75.5 930.75 76.0Q930.0 76.5 929.0 77.5Q923.0 81.0 917.25 85.75Q911.5 90.5 908.0 93.0H907.5Q908.5 93.5 911.0 93.75Q913.5 94.0 916.5 95.0Q919.5 95.0 920.0 96.5L921.0 97.5Q923.5 97.5 925.25 93.75Q927.0 90.0 929.0 83.0ZM543.5 368.5Q537.0 368.5 524.25 367.0Q511.5 365.5 497.0 363.0Q482.5 360.5 470.75 357.5Q459.0 354.5 454.0 351.5H453.0Q453.0 356.5 453.25 362.0Q453.5 367.5 454.0 373.0Q454.5 374.5 454.5 378.0Q454.5 382.5 456.0 387.0V394.5Q456.0 395.5 456.0 396.25Q456.0 397.0 456.0 398.0Q458.5 397.0 462.25 395.0Q466.0 393.0 470.0 390.0Q479.5 386.0 494.0 381.5Q508.5 377.0 519.5 374.5Q529.0 372.5 535.0 370.75Q541.0 369.0 543.5 368.5ZM187.5 126.5Q190.0 121.0 193.0 117.5Q196.0 114.0 200.0 114.0Q208.5 114.0 208.5 122.5Q208.5 127.5 203.25 136.75Q198.0 146.0 188.5 158.5Q177.5 173.0 166.0 191.0Q154.5 209.0 144.5 226.5Q134.5 244.0 128.5 258.0Q122.5 272.0 122.5 278.0Q122.5 319.0 152.5 344.5Q168.0 358.5 176.5 366.75Q185.0 375.0 190.75 381.75Q196.5 388.5 204.0 398.5Q210.0 405.0 213.5 412.75Q217.0 420.5 217.0 424.0V425.5Q216.0 429.5 212.5 429.5Q210.0 429.5 203.5 423.5Q197.0 417.5 189.0 408.5Q180.0 396.5 162.75 379.0Q145.5 361.5 124.5 344.75Q103.5 328.0 82.5 316.75Q61.5 305.5 44.5 305.5Q27.5 305.5 18.75 303.25Q10.0 301.0 10.0 294.5Q10.0 290.0 17.5 283.0Q25.0 276.0 38.5 266.0Q52.0 255.5 70.5 239.5Q89.0 223.5 108.5 205.5Q128.0 187.5 145.25 171.0Q162.5 154.5 174.0 142.5Q185.5 130.5 187.5 126.5ZM227.5 102.5Q227.0 101.0 227.0 99.25Q227.0 97.5 227.0 95.5Q227.0 84.5 236.5 84.5Q244.5 84.5 252.5 95.0Q256.0 101.5 271.0 108.5Q286.0 115.5 308.0 121.0Q330.0 126.5 354.75 130.0Q379.5 133.5 402.0 133.5Q411.5 133.5 418.25 135.75Q425.0 138.0 425.0 143.0Q425.0 147.0 409.75 149.25Q394.5 151.5 369.5 151.5Q262.5 151.5 239.0 209.5Q235.0 219.0 229.25 224.75Q223.5 230.5 221.0 230.5Q214.5 230.5 214.5 223.5Q214.5 219.5 216.0 214.5Q218.5 207.5 221.25 194.0Q224.0 180.5 226.5 165.5Q229.0 150.5 230.75 138.5Q232.5 126.5 232.5 122.0Q232.0 119.5 230.25 113.75Q228.5 108.0 227.5 102.5ZM259.0 194.5Q259.0 187.5 266.5 187.5Q268.0 187.5 273.25 189.25Q278.5 191.0 285.0 195.0Q289.5 197.0 304.75 199.75Q320.0 202.5 339.25 205.25Q358.5 208.0 376.25 210.0Q394.0 212.0 404.0 212.0Q415.5 212.0 415.5 222.0Q415.5 229.0 404.0 229.0Q402.0 229.0 398.75 228.75Q395.5 228.5 392.0 228.0Q389.5 227.5 385.25 227.5Q381.0 227.5 376.5 227.5Q361.0 227.5 342.25 229.75Q323.5 232.0 308.0 235.5Q292.5 239.0 285.5 243.0L280.0 247.5L288.5 250.5Q295.5 254.0 315.25 256.5Q335.0 259.0 356.0 260.0Q384.0 261.5 398.5 265.0Q413.0 268.5 413.0 272.0Q413.0 280.0 375.5 280.0Q340.5 280.0 313.0 285.5Q285.5 291.0 276.5 300.0Q266.5 308.0 263.0 308.0Q255.5 308.0 255.5 300.0Q255.5 297.0 256.75 291.5Q258.0 286.0 260.0 280.0Q261.5 275.0 262.75 270.5Q264.0 266.0 264.0 263.0Q264.0 260.0 262.0 259.0V258.5Q258.5 255.5 258.5 248.0Q258.5 241.5 263.0 229.5Q265.0 226.5 266.0 222.0Q267.0 217.5 267.0 215.0Q267.0 210.5 265.5 207.5Q263.0 204.0 261.0 199.75Q259.0 195.5 259.0 194.5ZM494.5 207.0V204.0Q493.0 199.5 493.0 195.5Q493.0 188.0 498.5 188.0Q503.5 188.0 514.5 195.5Q521.0 199.5 537.75 203.25Q554.5 207.0 575.0 209.5Q595.5 212.0 613.0 212.0Q623.5 212.0 633.5 214.25Q643.5 216.5 645.5 219.5V221.5Q645.5 225.0 633.75 227.75Q622.0 230.5 601.0 230.5Q579.5 231.0 559.5 233.0Q539.5 235.0 526.5 237.75Q513.5 240.5 513.5 243.5V244.5Q514.5 249.5 534.25 254.0Q554.0 258.5 589.0 262.5Q613.5 265.0 630.25 269.0Q647.0 273.0 647.0 276.0Q647.0 279.0 633.75 281.25Q620.5 283.5 601.0 283.5Q563.0 283.5 535.75 289.0Q508.5 294.5 500.5 304.0Q497.0 308.5 493.0 310.25Q489.0 312.0 486.5 312.0Q480.0 312.0 480.0 304.5Q480.0 298.0 487.0 287.0Q490.0 281.5 493.25 274.0Q496.5 266.5 496.5 262.5Q496.5 256.5 495.0 256.5Q494.5 256.5 494.25 257.0Q494.0 257.5 493.0 257.5Q492.5 258.0 491.5 258.0Q490.5 258.0 490.0 258.0L471.5 264.0L486.0 234.5Q490.0 227.5 492.25 219.75Q494.5 212.0 494.5 207.0ZM968.5 20.5V20.0Q970.5 15.5 974.25 12.75Q978.0 10.0 980.5 10.0Q988.0 10.0 988.0 18.5Q988.0 29.0 972.0 49.0Q961.0 64.5 954.5 75.0Q948.0 85.5 948.0 92.5Q948.0 94.5 948.75 97.75Q949.5 101.0 951.0 102.0Q954.5 114.0 956.5 114.0Q960.0 114.0 969.75 120.25Q979.5 126.5 990.75 135.0Q1002.0 143.5 1010.25 151.0Q1018.5 158.5 1018.5 161.5Q1018.5 165.5 1013.0 165.5Q1010.0 165.5 1002.25 162.5Q994.5 159.5 986.0 153.0Q985.0 152.0 978.75 148.0Q972.5 144.0 966.25 140.25Q960.0 136.5 959.5 136.5Q958.0 136.5 952.75 143.25Q947.5 150.0 941.75 159.5Q936.0 169.0 931.5 177.25Q927.0 185.5 927.0 189.0Q927.0 195.5 933.0 204.5Q939.0 213.5 945.0 215.5Q950.5 217.0 959.25 223.0Q968.0 229.0 977.0 237.0Q986.0 245.0 992.25 252.25Q998.5 259.5 998.5 262.5Q998.5 267.5 993.5 267.5Q991.0 267.5 984.5 263.5Q978.0 259.5 971.0 254.0L954.0 242.0L944.5 252.0L941.0 256.5Q937.5 261.5 933.25 268.25Q929.0 275.0 927.0 280.5Q921.0 289.0 921.0 296.0Q921.0 305.5 929.0 314.5Q937.0 323.5 949.0 331.0Q966.5 340.5 979.5 350.5Q992.5 360.5 992.5 366.0Q992.5 367.0 991.75 369.0Q991.0 371.0 989.0 372.0H987.5Q980.5 372.0 961.0 359.0Q935.0 341.5 908.75 330.25Q882.5 319.0 861.5 315.5L824.0 311.5L872.0 279.0Q888.0 267.5 903.0 256.75Q918.0 246.0 924.0 241.5L934.0 233.0L921.5 226.0Q912.0 220.5 895.25 216.5Q878.5 212.5 861.25 210.0Q844.0 207.5 832.5 207.5L831.5 209.0Q829.5 212.5 826.0 218.0Q822.5 223.5 820.0 230.0Q816.0 238.0 814.0 248.25Q812.0 258.5 811.25 277.5Q810.5 296.5 810.5 331.5Q810.5 372.0 808.5 395.25Q806.5 418.5 802.5 418.5Q797.0 418.5 794.75 398.75Q792.5 379.0 792.5 342.5Q792.5 306.0 791.0 286.75Q789.5 267.5 785.0 257.5Q780.5 247.5 770.5 239.0Q765.5 234.0 764.0 234.0Q763.0 234.0 761.25 235.75Q759.5 237.5 755.5 243.0Q733.5 268.0 721.0 285.75Q708.5 303.5 708.5 311.5Q708.5 312.0 709.0 313.0Q709.5 314.0 709.5 314.5Q712.5 316.0 714.5 320.75Q716.5 325.5 716.5 330.0Q716.5 332.0 722.5 337.0Q728.5 342.0 736.5 347.0Q748.5 354.5 759.5 364.25Q770.5 374.0 778.0 382.75Q785.5 391.5 786.5 396.0Q785.5 396.5 785.25 397.25Q785.0 398.0 784.5 398.5Q784.5 400.0 783.0 401.5L780.5 402.5Q777.5 402.5 770.5 398.0Q763.5 393.5 755.5 387.0Q730.5 363.0 702.0 347.75Q673.5 332.5 645.5 327.5L600.0 320.5L634.0 300.5Q650.0 291.0 669.5 278.0Q689.0 265.0 706.75 252.0Q724.5 239.0 736.25 229.75Q748.0 220.5 748.0 218.5Q748.0 215.5 737.75 208.0Q727.5 200.5 713.0 191.75Q698.5 183.0 684.25 176.25Q670.0 169.5 662.5 168.0Q655.5 167.0 643.5 165.0Q631.5 163.0 623.0 161.0Q607.0 156.5 594.0 155.0Q581.0 153.5 569.5 153.5Q542.5 153.5 515.0 160.0Q487.5 166.5 465.75 182.0Q444.0 197.5 433.5 225.5Q433.0 228.0 430.25 229.25Q427.5 230.5 426.0 230.5Q422.5 230.5 421.25 227.75Q420.0 225.0 420.0 221.5Q420.0 216.0 421.5 206.75Q423.0 197.5 425.0 186.5Q429.0 170.5 430.0 153.75Q431.0 137.0 431.0 121.0Q429.5 106.0 429.5 91.0Q429.5 89.5 430.0 87.0Q430.5 84.5 430.5 84.5Q434.0 84.5 439.75 88.25Q445.5 92.0 452.5 98.0Q460.0 106.5 476.0 113.25Q492.0 120.0 512.5 124.75Q533.0 129.5 554.25 132.25Q575.5 135.0 593.5 136.5Q611.5 138.0 622.0 138.0Q631.0 138.0 644.75 131.25Q658.5 124.5 674.25 114.0Q690.0 103.5 705.5 91.75Q721.0 80.0 733.75 69.5Q746.5 59.0 753.5 53.0Q764.5 43.0 770.0 43.0Q772.5 43.0 774.25 44.75Q776.0 46.5 776.0 49.0Q776.0 52.5 772.25 59.0Q768.5 65.5 762.5 72.5L755.5 79.5L764.0 81.5Q769.5 82.0 781.5 82.5Q793.5 83.0 807.0 83.0H843.5Q856.5 83.0 865.25 84.5Q874.0 86.0 875.0 89.0Q878.0 88.5 888.0 82.25Q898.0 76.0 911.25 66.75Q924.5 57.5 937.0 48.0Q949.5 38.5 958.5 31.0Q967.5 23.5 968.5 20.5ZM234.5 327.5Q234.5 322.0 240.5 322.0Q243.0 322.0 249.0 325.25Q255.0 328.5 262.0 334.5Q272.5 342.0 293.5 347.5Q314.5 353.0 338.5 357.0Q362.5 361.0 384.0 363.0Q405.5 365.0 417.5 365.0Q429.0 365.0 429.0 373.0V374.5Q429.0 375.0 428.5 375.25Q428.0 375.5 428.0 376.5Q424.5 381.5 409.5 381.5Q405.5 381.5 400.25 381.0Q395.0 380.5 390.0 379.5Q385.0 379.0 380.0 379.0Q375.0 379.0 370.5 379.0Q344.5 379.0 320.0 385.0Q295.5 391.0 277.75 401.0Q260.0 411.0 252.5 424.0L249.0 428.0Q242.0 444.5 238.5 444.5Q236.5 444.5 235.5 443.5Q235.0 443.5 234.5 443.0Q234.0 442.5 233.0 442.5L232.5 441.0Q231.0 438.5 231.0 435.0Q231.0 429.5 232.5 418.0Q234.0 406.5 236.5 394.5Q239.0 382.5 240.0 373.0Q241.0 363.5 241.0 356.5Q241.0 353.5 240.75 349.75Q240.5 346.0 240.0 343.5Q237.5 339.0 236.0 334.25Q234.5 329.5 234.5 327.5ZM417.0 324.0Q417.0 316.0 424.5 316.0Q428.5 316.0 435.5 319.5Q442.5 323.0 454.0 329.0Q474.0 340.0 522.0 348.25Q570.0 356.5 641.5 362.0Q664.0 363.0 683.5 365.5Q703.0 368.0 715.0 370.75Q727.0 373.5 727.0 375.5Q727.0 379.5 719.75 381.25Q712.5 383.0 700.0 383.0Q697.0 383.0 694.0 383.0Q691.0 383.0 687.0 382.5Q683.5 382.5 680.0 382.0Q676.5 381.5 672.5 381.5Q670.0 381.5 667.0 381.25Q664.0 381.0 661.5 381.0Q654.5 380.5 647.75 380.0Q641.0 379.5 634.5 379.5Q622.5 379.5 601.5 380.75Q580.5 382.0 555.75 385.5Q531.0 389.0 508.0 395.75Q485.0 402.5 469.0 412.75Q453.0 423.0 449.0 438.5Q444.5 459.0 436.5 459.0Q429.5 459.0 429.5 444.5Q429.5 441.5 429.75 438.5Q430.0 435.5 430.5 432.0Q433.0 421.0 433.75 408.75Q434.5 396.5 434.5 385.0Q434.5 368.5 432.75 356.0Q431.0 343.5 426.5 340.0Q423.0 335.5 420.0 330.5Q417.0 325.5 417.0 324.0Z" fill="black" /></svg>