<svg xmlns="http://www.w3.org/2000/svg" width="428.5" height="458.0" viewBox="0 0 428.5 458.0"><path d="M96.0 199.0Q94.0 198.5 87.5 198.0Q81.0 197.5 72.5 197.0H51.0Q53.0 202.5 59.0 214.0Q61.0 217.0 62.25 219.75Q63.5 222.5 64.5 225.0L74.0 246.0L83.5 225.0Q88.5 215.5 92.0 208.25Q95.5 201.0 96.0 199.0ZM175.5 195.5H152.5Q144.5 195.5 138.25 196.0Q132.0 196.5 130.5 197.0Q130.5 197.5 130.75 197.75Q131.0 198.0 131.0 198.5Q131.5 199.0 132.25 200.5Q133.0 202.0 134.0 203.0L136.0 209.0Q138.0 211.5 139.5 215.0Q141.0 218.5 142.5 222.0Q146.5 231.0 149.25 237.25Q152.0 243.5 152.5 243.5Q153.0 243.5 156.0 237.25Q159.0 231.0 162.5 221.5Q165.0 217.0 167.0 213.25Q169.0 209.5 171.0 206.0Q172.5 203.0 173.75 200.25Q175.0 197.5 175.5 195.5ZM256.0 195.5H212.5L222.5 218.5Q223.5 221.5 224.75 224.5Q226.0 227.5 228.0 231.0Q230.5 236.0 231.75 239.75Q233.0 243.5 233.0 243.5Q233.5 243.5 236.25 237.25Q239.0 231.0 243.0 222.0L247.5 211.5Q254.5 199.5 256.0 195.5ZM340.0 205.5 342.0 202.0Q345.0 198.0 345.0 197.5Q345.0 196.0 339.5 195.75Q334.0 195.5 319.0 195.5Q291.0 195.5 291.0 199.0Q291.0 201.5 297.0 207.0Q300.5 209.0 305.0 217.75Q309.5 226.5 312.5 235.5L317.0 250.0L324.5 234.5Q325.5 232.0 327.0 230.0Q328.5 228.0 329.5 225.0Q333.5 217.5 337.0 211.5Q339.0 208.5 340.0 205.5ZM72.0 38.0 77.5 30.0H65.5Q53.5 30.0 52.0 30.5Q52.5 31.5 53.25 32.5Q54.0 33.5 54.5 34.5Q59.5 47.5 63.5 47.5Q66.0 47.5 72.0 38.0ZM145.0 41.0 152.0 30.0H120.5L126.5 38.0Q130.0 43.0 133.0 46.25Q136.0 49.5 137.0 49.5Q138.5 49.5 140.0 47.0Q141.5 44.5 145.0 41.0ZM216.5 38.0 222.5 30.0H192.0L192.5 30.5Q195.5 32.5 198.75 35.75Q202.0 39.0 204.0 41.5L207.5 44.5Q209.0 46.5 209.5 46.5Q211.5 46.5 216.5 38.0ZM307.5 38.0 313.0 30.0H281.5L288.5 37.5Q289.5 39.5 294.0 44.25Q298.5 49.0 300.0 50.5Q301.5 48.0 303.5 45.0Q305.5 42.0 307.5 38.0ZM382.5 40.0 388.5 30.0H357.0L365.5 41.0Q368.0 44.0 370.5 47.0Q373.0 50.0 375.0 52.0Q375.5 51.5 375.75 51.25Q376.0 51.0 376.5 50.5L378.5 46.5Q379.5 45.5 380.75 43.5Q382.0 41.5 382.5 40.0ZM375.0 52.0 373.5 53.0V54.0Q374.0 53.5 374.25 53.0Q374.5 52.5 375.0 52.0ZM94.0 181.0Q95.0 179.5 108.0 178.75Q121.0 178.0 142.75 177.75Q164.5 177.5 190.5 177.5Q219.5 177.5 249.75 177.75Q280.0 178.0 306.25 178.5Q332.5 179.0 349.5 180.0Q366.5 181.0 369.0 182.0Q370.0 183.0 370.0 186.0Q370.0 188.0 366.75 195.0Q363.5 202.0 358.0 209.0Q347.5 225.0 340.75 239.25Q334.0 253.5 330.0 269.75Q326.0 286.0 323.5 307.5Q321.0 329.0 319.5 359.0Q318.5 381.0 316.25 400.25Q314.0 419.5 311.5 431.0Q309.0 442.5 308.0 442.5Q306.5 442.5 305.0 429.25Q303.5 416.0 302.5 393.5Q301.5 371.0 301.5 343.5L303.0 250.0L287.5 225.0Q277.0 208.0 272.5 203.5Q270.5 207.0 265.0 218.25Q259.5 229.5 253.5 244.0Q247.5 258.0 244.0 268.0Q240.5 278.0 238.75 289.25Q237.0 300.5 236.5 317.0Q236.0 333.5 236.0 361.5Q236.0 402.5 234.0 422.25Q232.0 442.0 229.0 442.0Q225.5 442.0 223.0 414.5Q220.5 387.0 219.5 338.0Q219.0 305.0 218.0 284.75Q217.0 264.5 215.25 252.5Q213.5 240.5 211.25 233.25Q209.0 226.0 205.0 219.5L193.0 202.0L187.5 210.5Q184.0 216.0 179.0 228.75Q174.0 241.5 168.5 254.5Q164.5 265.0 162.0 274.0Q159.5 283.0 158.25 294.0Q157.0 305.0 156.5 321.25Q156.0 337.5 156.0 362.5Q156.0 399.0 153.5 420.75Q151.0 442.5 147.5 442.5Q142.5 442.5 140.75 418.0Q139.0 393.5 139.0 348.5Q139.0 305.0 137.25 278.75Q135.5 252.5 131.5 237.5Q127.5 222.5 120.0 213.0Q115.0 207.0 115.0 207.0Q113.5 207.0 107.0 214.5Q92.0 237.5 83.75 276.0Q75.5 314.5 75.5 370.0Q75.5 406.5 73.5 427.25Q71.5 448.0 67.5 448.0Q63.5 448.0 61.25 421.75Q59.0 395.5 59.0 348.0Q59.0 309.0 58.25 285.25Q57.5 261.5 54.5 247.25Q51.5 233.0 45.5 223.0Q39.5 213.0 29.5 201.5L10.0 177.0L55.0 179.5H58.0Q77.0 181.0 94.0 181.0ZM11.0 14.5Q11.0 14.0 26.75 13.25Q42.5 12.5 70.75 11.75Q99.0 11.0 136.0 10.5Q173.0 10.0 215.0 10.0Q257.0 10.0 294.0 10.0Q331.0 10.0 359.0 10.5Q387.0 11.0 402.75 11.75Q418.5 12.5 418.5 14.0Q418.5 14.5 413.0 24.25Q407.5 34.0 399.0 45.5L380.5 73.0L384.0 121.5Q385.0 131.5 385.25 139.75Q385.5 148.0 385.5 153.5Q385.5 174.0 379.5 174.0Q375.0 174.0 372.25 168.75Q369.5 163.5 369.5 155.5Q369.5 148.0 368.0 132.5L366.0 112.5Q366.0 109.0 365.75 106.25Q365.5 103.5 365.5 100.5Q359.5 58.0 348.5 48.0Q343.0 42.5 339.5 39.25Q336.0 36.0 333.0 36.0Q327.5 36.0 317.5 55.5Q311.5 65.0 309.25 71.75Q307.0 78.5 307.0 89.5Q307.0 99.5 308.5 120.5L309.0 125.0Q309.0 131.5 309.25 138.0Q309.5 144.5 309.5 149.5Q309.5 169.0 304.0 169.0Q300.5 169.0 296.75 152.75Q293.0 136.5 291.0 113.0Q288.0 86.5 284.25 71.5Q280.5 56.5 274.25 48.0Q268.0 39.5 256.5 33.5Q254.5 31.5 251.0 31.5Q240.0 31.5 227.0 60.0Q222.5 67.0 220.75 75.0Q219.0 83.0 219.0 96.0Q219.0 99.5 219.25 104.25Q219.5 109.0 219.5 114.5L220.0 121.5Q220.5 127.0 220.5 132.5Q220.5 138.0 220.5 142.0Q220.5 154.5 218.75 161.75Q217.0 169.0 213.5 169.0Q210.0 169.0 206.5 153.25Q203.0 137.5 201.5 115.0Q200.0 89.5 197.25 75.0Q194.5 60.5 189.75 52.75Q185.0 45.0 177.5 41.0Q177.0 40.0 175.5 39.0Q174.0 38.0 172.5 38.0Q169.5 38.0 157.0 53.5Q151.0 61.5 147.75 68.75Q144.5 76.0 143.0 87.0Q141.5 98.0 140.5 118.5Q140.0 140.0 137.0 154.5Q134.0 169.0 130.5 169.0Q126.5 169.0 125.0 152.0Q123.5 135.0 123.5 110.5Q123.5 87.0 122.75 75.0Q122.0 63.0 119.75 56.75Q117.5 50.5 113.0 46.0Q108.5 41.5 105.5 38.75Q102.5 36.0 99.5 36.0Q97.5 36.0 95.25 38.5Q93.0 41.0 89.5 44.0Q77.0 59.0 71.25 77.75Q65.5 96.5 65.5 126.0Q65.5 144.5 63.0 156.75Q60.5 169.0 56.5 169.0Q52.5 169.0 50.25 152.75Q48.0 136.5 48.0 109.0V53.5L30.5 37.0Q22.5 30.0 16.75 23.25Q11.0 16.5 11.0 14.5Z" fill="black" /></svg>