<svg xmlns="http://www.w3.org/2000/svg" width="348.5" height="381.0" viewBox="0 0 348.5 381.0"><path d="M101.5 29.0Q101.0 28.0 91.25 27.25Q81.5 26.5 70.0 26.5H41.5L55.0 53.5Q61.5 67.5 65.75 80.0Q70.0 92.5 70.0 98.0Q70.0 106.5 71.0 106.5Q72.0 106.5 74.5 101.25Q77.0 96.0 79.5 87.5Q82.0 79.0 86.75 66.75Q91.5 54.5 95.0 46.5Q97.5 43.0 99.25 38.25Q101.0 33.5 101.5 29.0ZM207.5 32.5 185.5 29.5Q160.0 26.5 149.0 26.5Q145.5 26.5 144.5 26.0Q148.0 31.0 153.0 40.75Q158.0 50.5 163.0 61.5Q168.0 72.5 171.25 82.0Q174.5 91.5 174.5 97.0Q174.5 106.5 175.5 106.5Q179.0 106.5 184.5 87.5Q187.5 79.0 192.0 66.75Q196.5 54.5 200.0 46.5ZM312.5 32.5 290.0 29.5Q280.0 28.5 269.75 27.5Q259.5 26.5 249.5 26.5Q250.5 28.5 254.5 36.75Q258.5 45.0 264.0 55.0Q271.0 66.5 275.0 79.25Q279.0 92.0 279.0 97.0Q279.0 106.5 280.0 106.5Q281.0 106.5 283.75 101.0Q286.5 95.5 289.0 87.5Q291.5 79.0 296.25 66.75Q301.0 54.5 305.0 46.5ZM10.0 14.0Q10.0 11.5 18.75 10.75Q27.5 10.0 47.5 10.0Q66.5 10.0 97.0 10.25Q127.5 10.5 172.0 11.5H184.0Q186.5 12.0 189.5 12.0Q192.5 12.0 195.0 12.0Q202.0 12.0 208.75 12.0Q215.5 12.0 221.5 12.5Q237.5 12.5 250.5 12.75Q263.5 13.0 274.5 13.0Q284.0 13.0 292.25 13.0Q300.5 13.0 308.0 12.5Q321.0 12.5 329.75 14.0Q338.5 15.5 338.5 19.5Q338.5 26.5 332.5 26.5Q330.0 26.5 320.75 46.5Q311.5 66.5 300.0 97.0Q296.0 108.5 293.5 119.0Q291.0 129.5 289.5 144.5Q288.0 159.5 287.25 184.25Q286.5 209.0 285.5 249.5Q285.0 283.5 283.5 311.25Q282.0 339.0 280.25 355.0Q278.5 371.0 276.5 371.0Q274.0 371.0 272.5 354.75Q271.0 338.5 270.25 309.5Q269.5 280.5 269.5 243.5Q269.5 209.0 268.75 177.75Q268.0 146.5 266.5 124.25Q265.0 102.0 263.5 95.5Q262.0 86.5 257.25 74.75Q252.5 63.0 246.75 52.0Q241.0 41.0 235.75 33.75Q230.5 26.5 227.5 26.5Q225.5 26.5 221.25 35.0Q217.0 43.5 211.5 57.25Q206.0 71.0 200.5 87.5Q195.0 104.0 190.5 120.0Q187.0 132.0 185.0 143.0Q183.0 154.0 182.0 168.75Q181.0 183.5 180.5 205.75Q180.0 228.0 180.0 262.5Q180.0 314.5 177.75 342.75Q175.5 371.0 172.0 371.0Q168.5 371.0 166.5 337.75Q164.5 304.5 164.5 243.5Q164.5 209.0 163.75 177.75Q163.0 146.5 161.75 124.25Q160.5 102.0 159.0 95.5Q157.5 86.5 152.75 74.75Q148.0 63.0 142.25 52.0Q136.5 41.0 131.25 33.75Q126.0 26.5 123.0 26.5Q120.5 26.5 113.5 41.0Q106.5 55.5 98.75 77.0Q91.0 98.5 85.0 120.0Q82.0 132.0 80.0 143.0Q78.0 154.0 77.0 168.75Q76.0 183.5 75.5 205.25Q75.0 227.0 75.0 260.0Q75.0 289.5 74.25 313.5Q73.5 337.5 72.25 352.0Q71.0 366.5 70.0 367.5H69.5Q66.0 367.5 63.0 330.75Q60.0 294.0 59.0 230.0Q58.5 189.0 58.0 162.75Q57.5 136.5 56.75 120.5Q56.0 104.5 54.5 95.0Q53.0 85.5 50.5 79.0Q48.0 72.5 44.0 64.5Q39.0 53.0 32.25 42.0Q25.5 31.0 21.0 27.5Q16.5 24.0 13.25 19.75Q10.0 15.5 10.0 14.0Z" fill="black" /></svg>