<svg xmlns="http://www.w3.org/2000/svg" width="552.0" height="464.5" viewBox="0 0 552.0 464.5"><path d="M121.0 292.0Q113.5 284.5 108.0 278.75Q102.5 273.0 101.0 273.0Q100.5 273.0 99.0 275.5Q97.5 278.0 95.0 282.0Q88.5 296.0 80.25 308.75Q72.0 321.5 63.0 333.5Q58.0 341.5 54.5 346.75Q51.0 352.0 50.0 355.0Q52.0 354.5 55.0 353.75Q58.0 353.0 61.5 351.0Q65.5 350.0 77.25 348.25Q89.0 346.5 105.25 345.0Q121.5 343.5 138.0 342.5L185.5 340.0L168.5 328.5Q157.5 321.5 143.25 310.75Q129.0 300.0 121.0 292.0ZM211.0 43.5Q203.0 42.5 189.75 42.25Q176.5 42.0 166.5 42.0H153.5Q154.5 43.0 159.0 51.75Q163.5 60.5 170.0 72.0L182.0 97.0L185.5 87.5Q189.0 79.5 194.75 69.25Q200.5 59.0 205.0 52.5L206.0 51.0Q209.0 47.0 211.0 43.5ZM343.0 70.5 355.5 50.5 324.5 48.0H309.0Q300.0 48.0 295.0 47.5Q290.0 47.0 290.0 47.0Q291.0 50.0 294.5 57.0Q298.0 64.0 303.0 72.5Q308.0 82.0 313.0 94.25Q318.0 106.5 319.5 112.0Q320.5 116.5 322.5 116.5Q323.5 116.5 325.0 114.0Q326.5 111.5 326.5 107.0Q326.5 103.0 331.75 91.5Q337.0 80.0 343.0 70.5ZM486.0 52.5 495.0 38.5H426.0L434.0 52.0Q438.5 60.5 443.25 73.0Q448.0 85.5 451.5 95.0L452.0 98.5Q454.0 106.5 455.5 112.75Q457.0 119.0 457.5 119.0Q458.5 119.0 460.5 112.75Q462.5 106.5 464.5 99.0Q467.0 89.5 473.25 75.75Q479.5 62.0 486.0 52.5ZM126.0 27.5Q126.0 24.0 139.25 23.25Q152.5 22.5 171.0 22.5Q187.0 22.5 203.25 22.5Q219.5 22.5 232.0 22.5Q244.5 22.5 248.0 23.0Q249.0 25.0 249.0 27.0Q249.0 30.5 245.0 36.75Q241.0 43.0 234.5 50.5L231.5 55.0Q223.0 63.0 215.75 73.0Q208.5 83.0 206.5 88.0Q205.0 92.0 203.75 110.5Q202.5 129.0 201.75 156.5Q201.0 184.0 201.0 216.0V326.5L222.0 340.5Q227.5 344.0 238.75 349.0Q250.0 354.0 263.0 358.75Q276.0 363.5 287.5 366.5Q360.0 387.0 406.5 400.0Q453.0 413.0 479.25 420.75Q505.5 428.5 516.75 432.5Q528.0 436.5 530.5 438.5Q536.0 443.0 536.0 447.0Q536.0 451.0 532.5 452.75Q529.0 454.5 524.5 454.5Q518.5 454.5 510.5 452.5Q506.5 450.0 488.75 444.5Q471.0 439.0 444.0 431.0Q417.0 423.0 384.25 413.75Q351.5 404.5 317.25 395.25Q283.0 386.0 251.5 378.0Q228.5 372.0 209.0 368.5Q189.5 365.0 170.75 363.75Q152.0 362.5 130.0 362.5Q108.5 364.0 91.5 366.75Q74.5 369.5 59.0 374.25Q43.5 379.0 25.0 387.0L23.0 387.5Q21.0 388.0 19.25 388.25Q17.5 388.5 16.5 388.5Q10.0 388.5 10.0 381.5Q10.0 374.5 37.5 335.0Q50.0 319.0 61.75 300.0Q73.5 281.0 78.5 270.0Q84.5 258.5 90.5 250.25Q96.5 242.0 98.0 242.0Q99.0 242.0 111.25 252.75Q123.5 263.5 139.0 279.0Q153.5 293.0 165.5 303.75Q177.5 314.5 179.0 314.5Q180.0 314.5 180.5 294.75Q181.0 275.0 181.0 237.5Q181.0 204.0 179.25 179.75Q177.5 155.5 173.25 136.5Q169.0 117.5 161.25 99.5Q153.5 81.5 141.5 61.0Q138.0 53.5 135.5 49.5Q131.5 41.0 128.75 35.25Q126.0 29.5 126.0 27.5ZM259.5 31.0Q259.5 28.5 262.25 26.5Q265.0 24.5 269.0 24.5Q271.5 24.5 273.25 24.75Q275.0 25.0 276.5 25.0Q278.0 25.5 279.25 25.75Q280.5 26.0 281.5 27.0Q288.5 27.5 307.5 28.75Q326.5 30.0 345.0 30.0H400.5Q399.0 25.0 398.0 21.25Q397.0 17.5 397.0 15.5V13.0L398.0 11.5Q400.0 10.5 401.75 10.25Q403.5 10.0 405.5 10.0Q407.5 10.0 408.75 10.25Q410.0 10.5 411.5 10.5Q412.5 11.0 413.5 11.0Q414.5 11.0 415.5 11.5Q419.5 12.5 438.0 14.75Q456.5 17.0 476.5 18.5L542.0 19.0L519.0 42.0Q513.5 48.5 504.75 61.75Q496.0 75.0 490.5 86.5L476.5 116.0L477.0 260.5V302.0Q477.0 333.5 476.25 358.25Q475.5 383.0 473.75 397.25Q472.0 411.5 469.5 411.5Q468.0 411.5 465.25 394.25Q462.5 377.0 460.5 348.25Q458.5 319.5 458.0 286.0Q456.5 241.0 453.5 207.75Q450.5 174.5 445.5 148.75Q440.5 123.0 432.0 100.0Q423.5 77.0 410.5 52.0Q407.5 46.5 405.25 41.25Q403.0 36.0 401.0 31.0L375.0 60.5Q365.5 71.5 359.0 80.5Q352.5 89.5 348.75 101.0Q345.0 112.5 343.0 130.5Q341.0 148.5 340.5 176.5Q340.0 204.5 340.0 247.5Q340.0 309.5 337.5 341.5Q335.0 373.5 330.5 373.5Q327.0 373.5 323.25 345.5Q319.5 317.5 318.5 260.0Q318.0 226.0 316.75 202.5Q315.5 179.0 313.25 161.75Q311.0 144.5 306.5 130.0Q302.0 115.5 294.5 100.75Q287.0 86.0 276.0 66.5Q269.5 53.5 264.5 43.5Q259.5 33.5 259.5 31.0Z" fill="black" /></svg>