<svg xmlns="http://www.w3.org/2000/svg" width="492.0" height="401.5" viewBox="0 0 492.0 401.5"><path d="M67.0 189.5 66.5 190.0Q69.5 187.5 77.5 179.25Q85.5 171.0 93.75 162.0Q102.0 153.0 104.5 147.5Q101.5 148.5 101.0 149.0Q99.0 151.0 91.75 151.75Q84.5 152.5 76.0 153.0Q58.0 154.5 58.0 157.5L58.5 158.5V159.5Q60.0 168.0 62.75 177.5Q65.5 187.0 67.0 189.5ZM130.5 278.5Q125.5 276.0 114.25 269.25Q103.0 262.5 90.0 254.0L54.5 230.5L47.5 245.5Q44.0 251.0 42.0 255.75Q40.0 260.5 39.0 262.5Q40.5 262.0 43.5 262.0Q46.5 262.0 50.0 262.0Q55.0 262.0 70.25 265.0Q85.5 268.0 99.5 272.0Q109.5 274.5 117.5 276.25Q125.5 278.0 130.5 278.5ZM234.0 328.0H233.5Q229.5 325.5 220.25 324.5Q211.0 323.5 200.5 323.5H181.0L185.0 334.5Q190.0 345.5 190.0 357.5Q190.0 359.5 190.0 361.25Q190.0 363.0 189.5 364.5Q189.0 366.0 189.0 367.5Q189.0 369.0 189.0 370.5V374.5Q190.5 374.5 198.75 368.5Q207.0 362.5 216.75 354.75Q226.5 347.0 233.75 340.25Q241.0 333.5 241.0 332.0Q241.0 331.5 238.75 330.25Q236.5 329.0 234.0 328.0ZM281.5 303.5H281.0Q278.0 303.5 271.5 305.5Q265.0 307.5 255.0 310.5Q249.5 312.5 245.75 314.0Q242.0 315.5 241.0 316.0Q241.5 316.0 242.25 316.5Q243.0 317.0 245.0 317.5Q249.0 320.5 251.5 320.5Q254.0 320.5 257.75 318.25Q261.5 316.0 267.5 312.0Q272.0 308.5 275.75 306.25Q279.5 304.0 281.5 303.5ZM181.0 181.0 180.5 180.5Q181.5 179.5 183.5 176.75Q185.5 174.0 185.5 174.0L177.0 183.0Q171.0 188.0 165.0 195.0L141.5 218.0L148.5 219.0H150.5L152.0 219.5Q159.0 218.5 164.75 214.75Q170.5 211.0 170.5 205.0Q170.5 202.5 173.5 195.25Q176.5 188.0 181.0 181.0ZM217.5 117.0Q216.5 116.5 213.75 115.5Q211.0 114.5 208.5 114.0Q192.0 114.5 174.0 122.75Q156.0 131.0 139.5 142.5Q123.0 154.0 111.0 164.5Q100.0 175.0 89.75 187.0Q79.5 199.0 73.25 208.5Q67.0 218.0 67.0 222.5Q67.0 224.0 77.5 231.0Q88.0 238.0 104.25 248.0Q120.5 258.0 138.5 268.25Q156.5 278.5 171.5 287.0Q189.5 296.0 202.5 300.75Q215.5 305.5 225.0 305.5Q238.5 305.5 256.5 297.5L269.0 292.5L264.5 282.5Q259.5 273.5 250.0 262.0Q240.5 250.5 231.25 241.5Q222.0 232.5 217.0 231.0Q213.0 229.0 204.5 229.0Q196.0 229.0 187.75 230.75Q179.5 232.5 179.5 235.0Q179.5 236.0 182.25 240.0Q185.0 244.0 188.5 247.5Q197.5 256.0 205.75 269.75Q214.0 283.5 214.0 296.0Q213.5 297.5 211.0 297.5Q207.0 297.5 199.5 284.5Q196.5 277.5 188.0 267.5Q179.5 257.5 171.0 249.5Q159.5 238.5 154.5 235.0Q149.5 231.5 142.0 231.5Q140.0 231.5 137.75 231.5Q135.5 231.5 132.5 232.0Q124.5 232.5 117.25 232.5Q110.0 232.5 110.0 232.5Q110.0 231.5 117.0 223.5Q124.0 215.5 135.75 203.25Q147.5 191.0 161.0 177.5Q214.5 127.0 217.5 117.0ZM244.0 178.0Q245.0 176.0 246.0 174.5Q247.0 173.0 248.0 171.0L204.5 214.5L214.0 216.5Q215.5 217.0 217.0 217.0Q218.5 217.0 220.0 217.0Q226.0 217.0 230.0 213.75Q234.0 210.5 234.0 205.0Q234.0 202.5 236.75 194.5Q239.5 186.5 244.0 178.0ZM305.5 251.5Q297.5 244.0 292.5 240.5Q287.5 237.0 282.0 236.0Q276.5 235.0 267.0 235.0Q247.0 235.0 247.0 238.0Q247.0 239.5 252.0 243.5Q255.5 246.0 260.5 254.0Q265.5 262.0 270.5 270.0L282.0 289.0L301.0 280.5Q318.5 274.0 320.5 269.5Q320.0 268.0 315.5 262.75Q311.0 257.5 305.5 251.5ZM303.5 205.0 312.0 188.0V188.5Q313.0 186.0 314.0 184.0Q315.0 182.0 316.0 180.0Q316.5 179.0 316.75 178.0Q317.0 177.0 317.5 176.5Q311.0 182.5 300.75 192.25Q290.5 202.0 282.0 210.75Q273.5 219.5 271.0 222.5Q274.0 222.5 279.75 221.75Q285.5 221.0 291.25 219.25Q297.0 217.5 298.0 215.5Q299.0 214.5 300.25 211.5Q301.5 208.5 303.5 205.0ZM391.0 189.5Q383.0 185.5 376.25 181.5Q369.5 177.5 363.5 174.0Q355.5 169.0 350.25 166.0Q345.0 163.0 344.0 163.0Q341.5 163.0 336.75 169.5Q332.0 176.0 327.0 185.75Q322.0 195.5 318.25 205.25Q314.5 215.0 314.0 221.0Q313.5 223.5 313.5 225.75Q313.5 228.0 313.5 230.0Q313.5 236.0 316.25 241.0Q319.0 246.0 325.0 253.0L337.0 266.5L394.0 236.0Q396.0 235.0 403.75 230.75Q411.5 226.5 420.0 222.0Q428.5 217.5 431.0 216.0Q429.0 213.5 417.75 206.0Q406.5 198.5 391.0 189.5ZM249.0 85.0 239.0 68.5Q235.5 61.5 233.25 56.5Q231.0 51.5 231.0 51.5Q230.5 52.0 229.75 53.0Q229.0 54.0 228.0 55.5Q224.5 63.5 216.25 72.5Q208.0 81.5 200.5 85.5Q199.0 86.0 197.0 87.25Q195.0 88.5 194.0 89.5Q190.5 91.0 188.75 91.75Q187.0 92.5 187.0 92.5Q188.0 93.0 193.25 95.0Q198.5 97.0 205.0 99.5L229.0 107.0ZM252.5 128.5Q246.0 126.0 241.0 125.0Q236.0 124.0 235.0 124.0Q234.0 124.0 212.0 155.5L204.5 166.0Q179.5 205.0 179.5 214.0Q187.0 212.5 223.0 176.0Q240.5 158.5 253.25 146.0Q266.0 133.5 266.0 133.0Q266.0 132.5 262.0 131.25Q258.0 130.0 252.5 128.5ZM270.0 105.0Q265.5 99.0 261.5 95.25Q257.5 91.5 257.0 91.5Q256.0 91.5 254.0 94.75Q252.0 98.0 250.0 103.0Q244.5 110.0 244.5 111.5Q244.5 112.5 251.0 114.5Q267.5 121.0 276.0 121.0Q280.5 121.0 280.5 119.5Q280.5 115.5 270.0 105.0ZM322.0 154.0 306.5 148.0H306.0Q298.5 144.0 293.0 141.75Q287.5 139.5 286.5 139.5Q285.5 139.5 280.5 147.0Q275.5 154.5 268.75 165.0Q262.0 175.5 256.5 185.25Q251.0 195.0 249.0 199.5Q247.0 203.0 246.5 207.75Q246.0 212.5 246.0 216.5V219.5Q247.0 222.5 247.5 222.5Q250.0 222.5 258.25 215.0Q266.5 207.5 284.5 190.0ZM306.0 133.5Q298.0 128.0 295.5 128.0Q295.5 128.0 295.25 128.25Q295.0 128.5 295.0 129.0Q295.0 130.5 299.0 132.0Q303.0 133.5 307.0 134.5Q307.0 134.5 306.0 133.5ZM180.5 180.5Q180.0 181.0 180.0 181.25Q180.0 181.5 180.5 180.5ZM219.5 42.5 235.0 10.0 239.0 33.5Q243.0 49.0 250.75 60.75Q258.5 72.5 274.0 88.0L291.0 106.0L300.0 94.5Q310.0 84.5 314.0 84.5Q317.5 84.5 317.5 88.5Q317.5 92.5 311.5 104.5L304.5 116.5L318.5 127.0Q324.0 130.5 329.5 133.25Q335.0 136.0 337.5 136.0H338.0Q340.0 134.0 346.5 127.25Q353.0 120.5 360.0 111.0Q369.0 100.5 375.0 95.5Q381.0 90.5 382.5 90.5Q386.0 90.5 386.0 94.0Q386.0 99.0 371.0 120.5Q365.0 129.0 359.75 136.75Q354.5 144.5 353.5 147.0Q353.5 149.0 362.5 155.75Q371.5 162.5 385.75 171.75Q400.0 181.0 416.5 190.75Q433.0 200.5 448.0 208.0Q463.5 216.0 472.75 222.25Q482.0 228.5 482.0 231.5Q482.0 235.0 477.5 235.0Q475.0 235.0 469.75 233.25Q464.5 231.5 458.5 229.0Q456.0 227.5 453.5 226.5Q451.0 225.5 448.5 225.5Q443.5 225.5 432.0 231.0Q420.5 236.5 395.0 250.0Q375.0 260.0 364.0 266.0Q353.0 272.0 349.0 275.25Q345.0 278.5 345.0 281.5Q345.0 283.0 346.0 285.0V286.5L349.0 307.5L329.5 284.0L300.5 305.0Q290.5 312.5 282.75 318.5Q275.0 324.5 273.0 327.0Q277.0 329.5 295.75 337.5Q314.5 345.5 337.5 354.5Q364.5 365.0 378.5 371.25Q392.5 377.5 397.5 380.5Q402.5 383.5 402.5 386.0Q402.5 388.5 400.0 390.5H399.5Q398.0 390.5 385.25 386.0Q372.5 381.5 353.75 374.5Q335.0 367.5 315.5 360.0Q296.0 352.5 280.5 346.25Q265.0 340.0 259.5 337.5Q258.0 337.5 247.5 345.5Q237.0 353.5 224.0 364.5Q209.5 376.5 198.75 383.75Q188.0 391.0 184.0 391.5Q183.0 390.5 181.5 390.5Q179.5 389.0 178.5 382.25Q177.5 375.5 177.5 367.5Q177.5 355.0 174.5 345.5Q171.5 336.0 166.0 325.5L154.0 299.5L115.0 289.5Q93.5 283.0 76.75 280.0Q60.0 277.0 44.0 277.0Q10.0 277.0 10.0 270.5Q10.0 266.0 18.0 263.5Q22.5 262.0 28.25 253.75Q34.0 245.5 38.25 235.5Q42.5 225.5 42.5 219.5Q42.5 207.5 48.5 207.5Q50.5 207.5 52.5 208.0V208.5Q52.5 208.5 52.75 208.5Q53.0 208.5 53.5 208.5Q54.5 208.5 54.5 202.0Q54.5 195.5 51.5 183.0Q48.5 170.5 44.75 159.0Q41.0 147.5 38.0 144.5Q35.5 140.5 35.5 138.0Q35.5 133.5 41.0 133.5Q46.0 133.5 55.0 138.0Q60.5 141.5 67.5 141.5Q78.0 141.5 95.0 137.5Q112.0 133.5 128.75 127.75Q145.5 122.0 154.0 118.0Q167.0 113.0 172.75 110.25Q178.5 107.5 179.0 106.0L177.5 105.0Q172.0 100.5 172.0 95.5Q172.0 86.5 191.0 75.0Q200.0 70.5 206.25 62.75Q212.5 55.0 219.5 42.5Z" fill="black" /></svg>