<svg xmlns="http://www.w3.org/2000/svg" width="379.5" height="381.5" viewBox="0 0 379.5 381.5"><path d="M88.0 211.0Q91.0 203.5 91.5 194.0Q89.0 196.0 86.25 199.0Q83.5 202.0 81.0 204.5Q74.0 211.5 65.75 218.75Q57.5 226.0 52.5 228.5L47.5 232.5L54.5 235.0Q66.0 238.5 74.0 241.5Q82.0 244.5 89.0 247.5Q87.5 242.5 86.5 237.0Q85.5 231.5 85.5 226.5Q85.5 218.5 88.0 211.0ZM142.5 136.0Q132.5 145.5 125.5 153.0Q126.0 153.0 126.0 153.0Q126.0 153.0 126.5 153.0L128.5 153.5Q131.5 154.5 133.5 155.0Q134.5 155.0 135.25 155.25Q136.0 155.5 136.5 155.5Q137.5 156.0 138.0 156.0Q138.5 156.0 139.0 156.5V152.5Q139.0 147.0 139.75 143.75Q140.5 140.5 142.5 136.0ZM227.0 207.5 225.5 209.0Q223.0 211.0 220.5 213.5Q218.0 216.0 216.0 217.0Q217.0 217.0 217.0 218.0Q217.0 218.5 217.25 218.75Q217.5 219.0 217.5 219.0V220.0L218.0 220.5Q218.5 221.0 218.5 222.5Q218.5 224.0 216.5 226.0L218.5 226.5Q219.5 227.0 221.0 227.25Q222.5 227.5 223.5 228.0Q223.5 227.0 223.5 225.75Q223.5 224.5 223.5 223.5Q223.5 214.5 227.0 207.5ZM214.0 68.0Q209.0 72.0 204.0 75.5L200.0 79.0Q197.0 81.0 195.5 82.5Q196.0 83.0 197.0 83.0Q201.0 83.5 205.25 84.25Q209.5 85.0 211.5 86.0Q211.5 85.0 211.25 83.5Q211.0 82.0 211.0 81.0Q211.0 74.5 214.0 68.0ZM196.0 100.0Q193.5 99.5 190.5 98.75Q187.5 98.0 186.5 97.5Q186.0 98.0 185.5 98.0Q185.0 98.0 184.5 99.0Q184.0 99.5 182.0 102.5Q180.0 105.5 179.5 106.0L178.0 107.5Q176.5 109.5 174.75 112.25Q173.0 115.0 172.0 117.5Q171.5 119.5 170.0 121.0L169.5 122.5Q167.5 125.5 165.5 129.0Q164.0 134.0 162.5 136.0Q159.0 142.5 157.75 145.25Q156.5 148.0 156.5 150.5V153.5Q157.5 159.5 161.0 159.5Q166.5 159.5 167.5 164.5Q166.5 167.0 164.0 168.5V169.5Q163.5 169.5 163.0 169.75Q162.5 170.0 162.5 170.0Q164.0 172.5 172.0 178.5Q179.5 184.0 187.0 189.75Q194.5 195.5 201.0 202.5Q202.0 203.5 202.5 203.5L203.5 204.5Q206.5 202.5 215.5 195.75Q224.5 189.0 233.5 182.25Q242.5 175.5 245.0 173.5Q244.5 173.0 244.25 173.0Q244.0 173.0 244.0 173.0Q243.5 172.5 242.0 172.25Q240.5 172.0 239.5 171.5L222.5 169.5L241.5 159.5Q249.0 155.5 256.5 150.75Q264.0 146.0 264.0 145.5Q264.0 144.0 256.25 138.0Q248.5 132.0 238.0 124.5Q227.5 117.0 218.25 111.25Q209.0 105.5 206.0 105.0Q201.0 103.0 199.5 100.5Q199.0 100.5 199.0 100.5Q199.0 100.5 198.5 100.5H197.0Q196.5 100.0 196.0 100.0ZM288.0 164.0V157.5Q288.0 156.5 288.25 155.75Q288.5 155.0 288.5 154.0Q287.0 156.0 284.25 158.25Q281.5 160.5 279.5 160.5Q276.0 160.5 274.5 158.0Q274.5 158.0 273.5 159.0L272.0 160.5Q272.5 160.5 272.75 160.5Q273.0 160.5 273.0 160.5Q281.5 161.5 285.5 163.5Q286.0 163.5 287.0 163.75Q288.0 164.0 288.0 164.0ZM289.5 151.0Q290.0 149.0 290.75 147.25Q291.5 145.5 292.0 143.5Q290.5 144.0 290.5 145.0Q288.0 147.5 288.0 147.0L288.5 148.5Q289.0 149.0 289.0 149.75Q289.0 150.5 289.5 151.0ZM243.0 15.0H243.5Q244.0 11.5 246.0 10.75Q248.0 10.0 252.0 10.0Q257.5 10.0 259.0 11.0Q260.5 12.0 260.5 14.5V15.5Q260.0 16.0 260.0 17.0Q259.5 22.0 257.0 26.5Q254.5 31.0 250.5 36.0Q248.5 38.0 246.25 41.75Q244.0 45.5 243.0 48.5Q240.5 53.5 238.75 57.25Q237.0 61.0 234.0 67.0L232.0 71.0Q228.5 76.0 228.5 82.5Q228.5 85.0 229.25 87.25Q230.0 89.5 231.5 89.5Q238.5 89.5 238.5 94.5Q238.5 97.0 236.5 99.0V99.5Q236.0 100.0 236.0 100.5Q236.0 101.0 236.0 101.0L235.5 102.0Q235.5 102.5 240.0 105.0Q247.0 109.5 256.5 117.25Q266.0 125.0 271.5 130.0Q272.5 130.5 273.5 131.5Q274.5 132.5 275.0 133.0L276.0 134.0Q280.5 130.5 290.5 122.25Q300.5 114.0 309.5 105.75Q318.5 97.5 320.0 94.0Q320.0 88.0 329.0 88.0Q334.5 88.0 335.5 89.0Q336.5 90.0 336.5 94.5Q336.5 97.0 333.75 102.5Q331.0 108.0 327.0 113.5L324.0 118.0Q322.5 120.0 321.25 122.75Q320.0 125.5 319.0 127.0Q318.5 128.0 317.25 130.25Q316.0 132.5 314.5 135.0L313.0 137.5Q312.5 139.0 311.75 140.25Q311.0 141.5 310.5 142.5L308.5 147.0Q307.0 150.5 305.75 153.5Q304.5 156.5 304.5 159.0Q304.5 161.5 305.5 164.25Q306.5 167.0 309.0 167.0Q316.0 167.0 316.0 171.5Q316.0 174.5 311.5 177.0Q311.5 177.0 311.25 177.25Q311.0 177.5 311.0 178.0Q311.0 178.5 312.75 180.0Q314.5 181.5 317.0 184.0L320.5 186.5Q332.0 194.5 341.25 202.25Q350.5 210.0 357.5 218.0L369.5 229.5L363.5 234.0Q360.0 238.5 356.5 238.5Q356.0 238.5 352.25 235.5Q348.5 232.5 347.5 231.5Q347.0 230.5 346.0 229.75Q345.0 229.0 344.0 228.5Q339.5 224.5 331.5 217.5Q323.5 210.5 314.25 203.0Q305.0 195.5 296.5 189.75Q288.0 184.0 283.0 182.5L279.5 181.0Q278.0 180.0 277.0 179.25Q276.0 178.5 275.5 177.0H273.5L269.5 176.5Q267.5 176.0 266.25 176.0Q265.0 176.0 264.0 176.0Q262.0 176.0 261.0 177.0L260.5 178.0Q258.5 181.5 255.0 187.75Q251.5 194.0 250.5 197.0Q250.0 198.0 248.75 201.5Q247.5 205.0 245.0 209.0Q239.5 216.5 239.5 222.0Q239.5 224.5 240.5 227.0Q241.5 229.5 244.0 230.5Q251.0 232.0 251.0 236.0Q251.0 238.0 249.5 239.5L247.5 241.0Q246.5 241.0 246.5 242.0Q246.5 243.5 261.0 254.5Q272.5 262.5 284.5 273.0Q296.5 283.5 300.0 288.0Q300.5 290.5 300.5 292.5Q300.5 295.0 298.5 297.0L298.0 297.5Q293.0 301.5 291.0 301.5Q287.5 301.5 282.0 294.5Q278.0 289.5 269.0 281.75Q260.0 274.0 249.75 266.25Q239.5 258.5 230.75 252.75Q222.0 247.0 218.0 246.0Q211.5 244.5 210.0 241.0H209.5Q201.0 241.0 192.0 239.25Q183.0 237.5 174.5 235.5L158.0 233.5L174.5 223.5Q177.0 222.0 181.5 219.5Q186.0 217.0 188.0 215.5L190.5 214.5L190.0 214.0Q179.5 205.0 167.25 196.0Q155.0 187.0 145.75 181.0Q136.5 175.0 133.5 174.5L131.5 173.5Q127.5 172.0 127.5 169.5Q127.0 169.5 127.0 169.5Q127.0 169.5 126.5 169.5Q123.5 169.5 122.0 169.0Q120.5 168.5 118.5 168.5Q117.5 168.5 116.0 172.0Q114.0 174.5 112.0 180.75Q110.0 187.0 108.5 194.0Q108.5 198.0 107.5 203.5Q106.5 209.0 105.5 213.0L105.0 214.5Q102.0 222.5 102.0 228.0Q102.0 235.0 106.5 242.5Q107.5 245.0 108.75 248.25Q110.0 251.5 110.5 253.5Q110.5 253.5 114.5 254.5Q122.0 257.5 122.5 261.0Q122.5 263.5 121.0 264.5Q121.5 265.5 122.0 267.0Q122.5 268.5 122.5 268.5Q126.0 269.5 126.0 273.0Q127.0 273.5 128.5 274.5Q130.0 275.5 132.0 277.0Q133.0 278.0 134.75 279.25Q136.5 280.5 138.5 282.0L144.5 286.5Q160.5 298.0 177.75 311.75Q195.0 325.5 208.5 337.25Q222.0 349.0 225.5 354.5L230.0 360.0L225.0 366.5L219.0 371.5L204.0 357.0Q194.5 347.5 183.25 338.0Q172.0 328.5 161.0 320.0Q153.0 314.0 141.0 305.5Q129.0 297.0 117.25 288.5Q105.5 280.0 97.0 274.25Q88.5 268.5 86.5 267.5Q80.5 264.0 79.5 261.5Q78.0 261.0 73.75 259.25Q69.5 257.5 64.5 256.0Q63.0 255.0 57.25 253.25Q51.5 251.5 44.0 249.5L41.0 248.5Q39.0 248.0 37.0 247.5Q35.0 247.0 33.0 246.5Q31.0 245.5 29.25 245.0Q27.5 244.5 25.5 244.0L17.5 241.5Q10.0 240.0 10.0 236.0Q10.0 233.0 17.5 230.0Q30.0 224.5 44.5 213.25Q59.0 202.0 73.0 189.0Q87.0 176.0 96.5 166.0H96.0Q95.0 165.5 93.0 165.5L76.5 161.0L97.0 149.0Q100.5 146.5 103.75 144.75Q107.0 143.0 107.5 142.0Q108.5 141.0 110.25 140.0Q112.0 139.0 112.0 139.0Q113.0 139.0 120.75 133.25Q128.5 127.5 138.25 119.75Q148.0 112.0 156.0 105.0Q164.0 98.0 166.0 95.5Q165.5 95.5 165.25 95.25Q165.0 95.0 164.0 95.0L163.0 94.5L147.5 92.5L166.0 80.5Q171.5 77.5 183.5 69.0Q195.5 60.5 209.0 49.5Q222.5 38.5 232.25 29.0Q242.0 19.5 243.0 15.0ZM153.0 124.5Q153.0 125.0 152.5 125.0Q153.0 124.5 153.0 124.5Q153.0 124.5 153.0 124.5Z" fill="black" /></svg>