<svg xmlns="http://www.w3.org/2000/svg" width="321.5" height="465.5" viewBox="0 0 321.5 465.5"><path d="M207.0 207.5Q201.5 209.0 187.5 209.25Q173.5 209.5 155.5 209.5H104.5L112.5 223.5Q117.0 232.5 122.25 249.75Q127.5 267.0 130.0 281.5L134.0 306.5L145.5 286.0Q165.5 250.0 194.5 221.0Q199.0 216.5 202.25 213.0Q205.5 209.5 207.0 207.5ZM87.0 29.5Q84.0 30.0 78.5 30.5Q73.0 31.0 66.5 31.0H49.0L54.0 36.5Q58.0 41.5 61.75 48.75Q65.5 56.0 65.5 63.0Q67.5 61.5 70.5 57.75Q73.5 54.0 77.0 49.0Q78.5 46.0 80.5 42.25Q82.5 38.5 84.0 35.5Q85.0 33.5 85.75 32.0Q86.5 30.5 87.0 29.5ZM121.5 50.5Q112.0 37.0 107.0 37.0Q106.0 37.0 103.0 40.5Q100.0 44.0 96.0 48.5Q83.0 71.0 77.0 90.75Q71.0 110.5 71.0 141.0V179.5L84.5 184.0Q91.5 185.5 101.75 188.0Q112.0 190.5 119.5 192.0L134.5 193.5L137.5 157.5Q137.5 153.5 137.75 149.75Q138.0 146.0 138.0 142.0Q138.5 136.5 138.75 130.75Q139.0 125.0 139.0 119.5Q139.0 95.0 135.0 77.75Q131.0 60.5 121.5 50.5ZM171.0 35.5Q170.5 36.0 167.0 36.0Q164.0 36.0 160.5 36.0Q157.0 36.0 152.5 35.5Q150.5 35.5 148.5 35.5Q146.5 35.5 144.0 35.0Q142.0 35.0 139.25 34.5Q136.5 34.0 135.0 32.5L136.5 35.5Q138.5 38.5 140.75 43.0Q143.0 47.5 145.5 52.0L151.5 64.5L160.0 53.0Q164.0 47.0 167.25 42.25Q170.5 37.5 171.0 35.5ZM222.0 93.0Q220.0 77.0 216.25 67.0Q212.5 57.0 204.5 49.0L204.0 48.0Q200.5 44.0 197.75 41.25Q195.0 38.5 194.0 38.5Q193.0 38.5 189.0 44.0Q175.0 60.0 167.75 82.0Q160.5 104.0 158.25 127.25Q156.0 150.5 156.0 172.0Q156.0 179.5 156.25 185.0Q156.5 190.5 157.5 192.0Q158.5 192.5 161.0 192.5Q163.5 192.5 166.5 192.5Q169.0 192.5 171.75 192.5Q174.5 192.5 177.0 192.0H190.5L219.0 188.5L222.0 159.5Q223.0 152.5 223.0 143.5Q223.0 134.5 223.0 126.0Q223.0 118.0 223.0 109.0Q223.0 100.0 222.0 93.0ZM255.5 35.5Q253.0 36.0 248.25 36.0Q243.5 36.0 236.5 36.0H221.0L236.0 64.0L245.0 52.0Q248.0 48.0 250.75 43.25Q253.5 38.5 255.5 35.5ZM10.0 16.5Q10.0 10.0 38.5 10.0Q44.0 10.0 52.0 10.0Q60.0 10.0 68.0 11.0Q76.5 11.0 87.25 11.25Q98.0 11.5 109.0 12.5Q114.5 12.5 129.0 12.75Q143.5 13.0 162.5 13.5Q181.5 14.0 201.75 14.75Q222.0 15.5 239.75 16.5Q257.5 17.5 269.25 19.0Q281.0 20.5 283.0 22.0Q284.5 23.5 284.5 26.0Q284.5 31.0 275.5 42.5Q260.0 59.0 252.5 80.5Q245.0 102.0 242.75 125.25Q240.5 148.5 240.5 170.0Q240.5 187.5 242.5 187.5Q242.5 188.5 246.0 188.5Q250.5 188.5 257.75 187.5Q265.0 186.5 272.5 184.5Q280.5 182.5 287.5 181.75Q294.5 181.0 299.0 181.0Q311.5 181.0 311.5 188.5Q311.5 193.5 304.0 197.0Q300.5 200.0 293.0 202.0Q285.5 204.0 278.5 204.0Q257.5 204.0 235.0 217.0Q212.5 230.0 192.75 252.75Q173.0 275.5 159.0 304.5Q152.5 317.5 146.75 341.0Q141.0 364.5 137.5 391.5Q134.0 418.5 133.5 442.0Q133.5 447.5 130.25 451.5Q127.0 455.5 123.5 455.5Q115.5 455.5 115.5 436.5Q115.5 431.0 116.0 423.5Q116.5 416.0 117.5 407.0Q118.0 402.5 118.0 395.75Q118.0 389.0 118.0 382.5Q118.0 370.5 117.5 352.5Q117.0 334.5 115.0 314.0Q113.0 293.5 109.0 273.5Q105.0 253.5 98.0 237.5Q91.0 221.5 80.5 213.5Q73.0 206.0 71.0 206.0Q70.0 206.0 66.0 211.5Q65.5 212.0 65.5 212.25Q65.5 212.5 65.0 213.0Q63.5 215.5 61.0 215.5Q55.5 215.5 54.0 200.0Q52.5 184.5 51.5 145.0Q51.5 107.5 49.5 87.25Q47.5 67.0 41.75 56.0Q36.0 45.0 25.0 36.0Q18.5 32.0 14.25 26.0Q10.0 20.0 10.0 16.5Z" fill="black" /></svg>