<svg xmlns="http://www.w3.org/2000/svg" width="269.5" height="389.0" viewBox="0 0 269.5 389.0"><path d="M173.5 173.5Q169.5 174.5 157.75 174.75Q146.0 175.0 130.5 175.0H88.5L95.0 186.5Q99.0 194.0 103.25 208.5Q107.5 223.0 109.5 235.0L112.5 255.5L122.0 238.5Q139.0 208.5 163.0 184.5Q167.0 180.5 169.75 177.75Q172.5 175.0 173.5 173.5ZM74.0 26.0Q68.0 27.0 57.0 27.0H42.0L46.5 32.0Q50.0 36.0 53.0 42.25Q56.0 48.5 56.0 54.0Q57.5 53.0 60.0 49.75Q62.5 46.5 65.5 42.5Q67.0 40.0 68.5 36.75Q70.0 33.5 71.5 31.0Q72.5 29.5 73.0 28.25Q73.5 27.0 74.0 26.0ZM102.5 43.5Q94.5 32.5 90.5 32.5Q88.5 32.5 81.5 42.0Q70.5 60.5 65.5 77.0Q60.5 93.5 60.5 118.5V150.0L72.0 154.0Q77.5 155.5 86.0 157.5Q94.5 159.5 101.0 160.5L113.0 162.0L115.5 132.0Q115.5 129.5 115.75 126.25Q116.0 123.0 116.0 120.0Q116.5 114.5 116.75 110.0Q117.0 105.5 117.0 101.0Q117.0 59.5 102.5 43.5ZM143.5 31.0Q143.0 31.5 140.0 31.5Q138.0 31.5 135.0 31.5Q132.0 31.5 128.5 31.0Q126.5 31.0 124.75 31.0Q123.0 31.0 121.0 30.5Q116.0 30.5 114.0 28.5L115.0 31.0Q116.5 33.5 118.25 37.0Q120.0 40.5 122.0 44.5L127.5 55.5L134.5 45.5Q137.5 40.5 140.25 36.5Q143.0 32.5 143.5 31.0ZM185.5 79.5Q184.0 66.0 181.0 57.5Q178.0 49.0 171.5 42.5Q168.0 38.5 165.75 36.25Q163.5 34.0 162.5 34.0L158.5 38.0Q147.5 51.5 141.5 69.75Q135.5 88.0 133.25 107.25Q131.0 126.5 131.0 144.0Q131.0 150.5 131.25 155.0Q131.5 159.5 132.0 160.5Q133.0 161.0 135.25 161.25Q137.5 161.5 139.5 161.5Q142.0 161.5 144.0 161.25Q146.0 161.0 148.5 161.0Q151.0 160.5 153.75 160.5Q156.5 160.5 159.5 160.5L183.0 157.5L185.5 133.5Q186.5 128.0 186.5 120.5Q186.5 113.0 186.5 106.0Q186.5 99.0 186.5 91.75Q186.5 84.5 185.5 79.5ZM213.5 31.0Q211.5 31.5 207.5 31.5Q203.5 31.5 198.0 31.5H185.0L197.5 54.5L205.0 44.5Q207.5 41.0 209.75 37.25Q212.0 33.5 213.5 31.0ZM10.0 15.5Q10.0 10.0 33.5 10.0Q38.5 10.0 45.0 10.0Q51.5 10.0 58.5 10.5Q62.5 10.5 67.75 10.75Q73.0 11.0 78.5 11.0Q81.5 11.5 85.0 11.5Q88.5 11.5 92.0 12.0Q107.5 12.5 124.0 12.75Q140.5 13.0 156.0 13.5L167.0 14.0Q193.5 14.5 213.75 16.0Q234.0 17.5 236.0 19.5Q237.5 21.0 237.5 23.0Q237.5 27.0 230.0 37.0Q217.5 50.5 211.25 68.25Q205.0 86.0 203.0 105.25Q201.0 124.5 201.0 142.5Q201.0 157.0 202.5 157.0Q202.5 157.5 205.5 157.5Q209.5 157.5 215.25 157.0Q221.0 156.5 227.5 154.5Q234.0 153.0 240.0 152.25Q246.0 151.5 249.5 151.5Q259.5 151.5 259.5 157.5Q259.5 162.0 254.0 165.0Q248.5 168.0 242.25 169.25Q236.0 170.5 232.5 170.5Q215.0 170.5 196.5 181.25Q178.0 192.0 161.5 210.75Q145.0 229.5 133.5 253.5Q128.0 264.5 123.0 284.25Q118.0 304.0 115.25 326.0Q112.5 348.0 112.0 367.5Q112.0 372.5 109.5 375.75Q107.0 379.0 104.0 379.0Q97.5 379.0 97.5 363.0Q97.5 353.0 99.0 339.0Q99.5 335.0 99.5 329.5Q99.5 324.0 99.5 318.5Q99.5 306.5 98.75 286.5Q98.0 266.5 95.0 244.75Q92.0 223.0 85.75 205.0Q79.5 187.0 68.5 178.5Q62.5 172.5 60.5 172.5Q60.0 172.5 55.5 178.0Q53.5 180.0 52.0 180.0Q47.5 180.0 46.5 167.5Q45.5 155.0 44.5 122.5Q44.5 91.0 42.75 74.0Q41.0 57.0 36.5 48.0Q32.0 39.0 22.5 31.5Q17.5 28.0 13.75 23.0Q10.0 18.0 10.0 15.5Z" fill="black" /></svg>