<svg xmlns="http://www.w3.org/2000/svg" width="466.5" height="464.5" viewBox="0 0 466.5 464.5"><path d="M101.0 181.5Q98.5 181.0 90.75 180.5Q83.0 180.0 72.5 179.5Q65.5 178.5 59.25 178.5Q53.0 178.5 48.0 178.5Q44.5 178.5 43.0 178.0Q44.0 180.0 46.25 183.25Q48.5 186.5 52.0 190.5Q56.0 196.0 61.25 206.75Q66.5 217.5 68.5 226.0L73.0 238.0L84.5 214.0Q90.0 204.0 94.25 195.0Q98.5 186.0 101.0 181.5ZM199.0 186.5 199.5 186.0Q199.5 186.0 191.0 185.75Q182.5 185.5 171.0 185.0Q167.5 184.5 163.75 184.5Q160.0 184.5 157.0 184.5Q144.0 184.5 144.0 186.5Q144.0 189.0 151.5 195.0Q155.0 197.5 159.5 206.5Q164.0 215.5 167.0 224.0Q168.0 231.0 169.75 235.25Q171.5 239.5 172.0 240.5Q173.5 239.0 177.5 231.5Q181.5 224.0 186.25 214.5Q191.0 205.0 194.75 197.0Q198.5 189.0 199.0 186.5ZM294.0 180.0Q284.5 180.0 275.5 179.0Q266.5 178.0 263.5 177.5Q262.5 177.0 262.0 177.0Q261.5 177.0 260.5 176.5Q261.5 180.0 265.25 187.75Q269.0 195.5 275.5 208.5L289.0 236.0L293.0 223.0Q295.5 214.5 300.25 206.0Q305.0 197.5 308.0 195.0Q315.0 190.5 315.0 186.5Q315.0 180.0 294.0 180.0ZM398.0 235.5 410.5 208.5 425.0 181.5 396.5 179.5Q389.5 178.5 383.25 178.5Q377.0 178.5 373.0 178.5Q368.0 178.5 367.0 177.5Q375.0 187.5 382.25 200.25Q389.5 213.0 393.5 225.0ZM82.0 48.5 95.0 30.0H54.0L55.5 31.5Q55.5 32.5 57.5 33.5Q61.0 37.0 64.75 43.25Q68.5 49.5 71.0 54.0Q71.5 54.5 72.0 56.0Q72.5 57.5 73.0 57.5Q74.0 57.5 82.0 48.5ZM135.0 46.5Q130.0 42.0 124.5 38.75Q119.0 35.5 116.5 35.5Q114.5 35.5 109.0 41.0Q103.5 46.5 97.5 54.25Q91.5 62.0 86.25 70.0Q81.0 78.0 79.5 82.5Q77.5 93.5 76.5 107.75Q75.5 122.0 75.5 135.0Q75.5 146.0 76.0 153.5Q76.5 161.0 77.5 161.5Q79.5 162.0 91.5 163.25Q103.5 164.5 118.5 165.0L153.0 166.5L156.0 134.0V132.5Q156.5 126.5 156.75 121.0Q157.0 115.5 157.0 110.5Q157.0 63.5 135.0 46.5ZM182.5 48.0 192.5 35.5H151.5L159.5 48.0L164.0 54.0Q169.0 59.5 170.5 65.0Q171.5 62.5 174.75 58.25Q178.0 54.0 182.5 48.0ZM292.5 48.5 306.0 30.0H266.5Q266.5 30.0 269.0 33.5L272.5 38.5Q273.5 40.5 274.75 42.5Q276.0 44.5 276.5 45.5Q278.5 47.5 280.0 49.5Q281.5 51.5 282.0 54.0Q284.0 57.5 284.0 57.5Q285.0 57.5 292.5 48.5ZM381.5 64.5 365.0 47.5Q358.5 40.5 351.5 35.75Q344.5 31.0 342.0 30.0Q334.5 32.0 323.25 41.25Q312.0 50.5 301.5 65.0Q296.5 72.5 293.75 79.0Q291.0 85.5 290.0 95.75Q289.0 106.0 289.0 125.0V164.5L378.5 161.0ZM418.0 30.5Q418.0 30.5 411.0 30.25Q404.0 30.0 394.0 30.0H375.0L384.0 43.0L396.5 58.0L406.5 45.5Q411.0 40.0 414.5 35.5Q418.0 31.0 418.0 30.5ZM221.0 17.5Q221.0 15.0 236.5 13.75Q252.0 12.5 278.0 12.0Q304.0 11.5 335.5 11.5Q378.0 11.5 402.75 12.5Q427.5 13.5 438.25 16.0Q449.0 18.5 449.0 24.0Q449.0 27.0 445.25 31.0Q441.5 35.0 436.0 39.5Q421.0 53.5 412.5 65.25Q404.0 77.0 400.75 91.25Q397.5 105.5 397.5 127.0V164.5H456.5L441.0 189.0Q428.5 209.5 420.5 225.5Q412.5 241.5 408.0 258.25Q403.5 275.0 401.5 297.5Q399.5 320.0 398.5 353.5Q398.0 378.5 396.75 399.0Q395.5 419.5 393.5 431.75Q391.5 444.0 389.0 444.0Q387.0 444.0 385.25 430.0Q383.5 416.0 382.5 392.25Q381.5 368.5 381.5 339.0Q381.5 297.5 380.25 271.75Q379.0 246.0 375.75 230.5Q372.5 215.0 366.0 205.25Q359.5 195.5 349.0 186.0L339.5 175.5L328.0 192.5Q316.5 211.0 309.5 226.25Q302.5 241.5 298.25 258.0Q294.0 274.5 292.25 296.75Q290.5 319.0 289.5 351.0Q289.5 376.0 287.75 397.25Q286.0 418.5 284.0 431.25Q282.0 444.0 279.5 444.0Q277.5 444.0 276.0 430.75Q274.5 417.5 273.5 394.75Q272.5 372.0 272.5 343.5Q272.5 317.5 271.75 293.75Q271.0 270.0 270.0 252.5Q269.0 235.0 268.0 229.5Q266.0 222.0 259.0 210.5Q252.0 199.0 245.0 191.5Q237.0 181.5 231.75 173.75Q226.5 166.0 226.5 164.5Q226.5 159.0 240.5 159.0H245.5Q247.0 159.0 248.75 159.25Q250.5 159.5 252.0 159.5L270.0 161.5L271.5 125.5Q272.0 117.0 272.0 110.0Q272.0 103.0 272.0 97.5Q272.0 81.0 269.5 70.75Q267.0 60.5 261.25 53.0Q255.5 45.5 245.5 38.0Q234.5 30.0 227.0 23.5V24.0Q227.0 25.5 220.5 33.5Q219.5 35.0 217.75 36.25Q216.0 37.5 215.0 39.5Q210.0 46.0 201.5 54.5Q192.5 64.5 187.25 70.75Q182.0 77.0 179.5 83.0Q177.0 89.0 175.75 97.75Q174.5 106.5 173.0 121.5Q171.5 138.0 171.5 149.5Q171.5 162.5 173.0 165.5Q175.5 166.5 180.5 168.0Q185.5 169.5 192.0 169.5Q194.5 169.5 195.5 169.0H200.0Q203.0 168.0 206.5 167.75Q210.0 167.5 212.5 167.5Q219.0 167.5 223.0 169.25Q227.0 171.0 227.0 173.5Q227.0 174.5 223.5 182.25Q220.0 190.0 214.5 198.0Q209.5 206.0 201.75 221.5Q194.0 237.0 188.5 249.5Q184.0 260.5 181.25 269.25Q178.5 278.0 177.25 288.5Q176.0 299.0 175.75 315.0Q175.5 331.0 175.5 356.5Q175.5 394.5 174.25 416.0Q173.0 437.5 170.25 446.0Q167.5 454.5 162.5 454.5Q160.5 454.5 159.25 439.5Q158.0 424.5 157.5 399.25Q157.0 374.0 157.0 343.5V237.0L141.0 212.0Q134.5 202.0 128.75 194.75Q123.0 187.5 120.0 187.5Q118.0 187.5 111.75 198.0Q105.5 208.5 98.5 223.0Q92.0 235.5 88.25 244.25Q84.5 253.0 82.75 263.5Q81.0 274.0 80.0 290.5Q79.0 307.0 77.5 335.0Q76.0 355.5 74.75 375.25Q73.5 395.0 73.0 408.75Q72.5 422.5 72.5 426.5Q72.0 435.0 70.0 439.5Q68.0 444.0 65.5 444.0Q63.0 444.0 61.25 429.5Q59.5 415.0 58.75 391.25Q58.0 367.5 58.0 339.0V306.0Q58.0 275.5 56.75 256.5Q55.5 237.5 52.0 225.75Q48.5 214.0 42.0 205.25Q35.5 196.5 25.5 186.5Q10.5 172.0 10.5 166.0Q10.5 159.5 21.5 159.5Q23.5 159.5 26.0 159.5Q28.5 159.5 32.0 160.5L35.5 161.0Q46.0 162.5 51.0 162.5Q55.0 162.5 57.25 156.25Q59.5 150.0 60.5 141.25Q61.5 132.5 61.75 124.75Q62.0 117.0 62.0 114.0Q62.0 98.0 59.25 83.25Q56.5 68.5 52.0 61.0Q48.5 54.0 41.5 46.25Q34.5 38.5 28.5 36.5Q20.0 32.0 15.0 27.5Q10.0 23.0 10.0 18.0Q10.0 14.5 18.5 12.25Q27.0 10.0 47.0 10.0H56.5Q59.5 11.0 62.5 11.25Q65.5 11.5 68.5 11.5Q92.5 11.5 110.5 13.5Q128.5 15.5 128.5 18.0Q128.5 18.5 142.25 19.25Q156.0 20.0 174.5 20.0Q193.5 20.0 208.0 20.25Q222.5 20.5 226.0 23.0Q221.0 18.0 221.0 17.5Z" fill="black" /></svg>