<svg xmlns="http://www.w3.org/2000/svg" width="379.5" height="415.0" viewBox="0 0 379.5 415.0"><path d="M100.5 295.5Q100.5 291.5 104.75 281.5Q109.0 271.5 114.5 264.0Q109.5 267.5 103.75 271.75Q98.0 276.0 91.0 281.0L64.0 301.5L74.0 304.0Q78.0 305.5 82.5 306.25Q87.0 307.0 89.5 307.0Q96.0 307.0 98.25 303.75Q100.5 300.5 100.5 295.5ZM286.0 260.5V259.0Q276.0 266.5 264.0 276.0Q252.0 285.5 248.0 289.0Q244.5 291.5 242.0 293.75Q239.5 296.0 238.5 297.0Q240.5 297.0 241.5 297.5Q254.5 301.5 261.5 301.5Q266.0 301.5 268.5 298.5Q271.0 295.5 272.5 291.0Q273.5 284.5 277.75 275.5Q282.0 266.5 286.0 260.5ZM115.5 100.5Q115.5 100.0 119.75 95.5Q124.0 91.0 129.0 86.0Q124.0 89.0 115.25 95.25Q106.5 101.5 97.25 109.0Q88.0 116.5 80.75 123.0Q73.5 129.5 71.0 132.5Q73.5 133.5 79.25 135.0Q85.0 136.5 90.75 137.5Q96.5 138.5 98.5 138.5Q100.5 138.5 100.5 135.0Q100.5 131.0 105.0 120.5Q109.5 110.0 115.5 100.5ZM288.5 94.5Q289.5 93.0 290.25 91.25Q291.0 89.5 292.0 88.0Q290.5 89.5 289.5 90.0L280.5 96.5Q272.5 104.0 264.5 109.0L259.0 113.5Q255.5 116.0 251.75 118.75Q248.0 121.5 245.5 123.0Q244.0 125.0 242.25 126.5Q240.5 128.0 240.5 128.0Q241.5 129.0 247.75 130.0Q254.0 131.0 261.0 131.5Q268.0 132.0 270.5 132.0Q275.0 132.0 275.0 130.0Q275.0 125.5 278.5 115.5Q282.0 105.5 288.5 94.5ZM171.5 24.0Q171.5 20.5 174.25 18.0Q177.0 15.5 181.0 15.5Q189.5 15.5 189.5 23.5Q189.5 31.0 173.0 50.5Q164.5 61.0 153.75 76.0Q143.0 91.0 134.25 104.5Q125.5 118.0 122.5 124.0V126.0L122.0 128.0Q122.0 133.5 126.5 136.5Q130.5 140.5 131.0 145.25Q131.5 150.0 131.5 155.0V155.5Q132.0 160.0 140.25 167.0Q148.5 174.0 158.0 179.75Q167.5 185.5 172.5 186.5H174.0Q175.5 185.0 177.0 185.0Q184.5 185.0 184.5 195.5Q184.5 198.0 186.75 203.75Q189.0 209.5 192.0 215.0Q194.5 218.5 195.75 222.0Q197.0 225.5 197.0 227.5Q197.0 235.0 191.5 235.0Q189.5 235.0 185.75 232.75Q182.0 230.5 178.5 225.5Q176.5 223.5 175.25 222.0Q174.0 220.5 172.5 220.5Q167.5 220.5 159.0 231.25Q150.5 242.0 141.75 257.0Q133.0 272.0 126.75 285.75Q120.5 299.5 119.5 305.5Q119.5 308.5 120.5 308.5Q127.0 308.5 127.0 317.0Q127.0 317.5 127.0 319.25Q127.0 321.0 126.5 323.0V324.0Q126.5 328.0 131.5 334.25Q136.5 340.5 149.0 349.0Q168.0 361.5 180.0 376.0Q192.0 390.5 192.0 397.5Q192.0 399.5 191.5 401.75Q191.0 404.0 188.5 405.0H186.0Q182.5 405.0 177.75 400.75Q173.0 396.5 167.5 391.5Q161.0 382.5 147.0 370.75Q133.0 359.0 116.0 347.5Q99.0 336.0 82.75 328.5Q66.5 321.0 55.5 321.0Q38.0 321.0 29.25 319.0Q20.5 317.0 20.5 311.5Q20.5 304.0 42.0 291.5Q51.5 286.0 65.75 276.0Q80.0 266.0 95.5 254.5Q111.0 243.0 124.5 232.0Q138.0 221.0 146.5 213.5Q155.0 206.0 155.0 204.0Q155.0 202.0 147.5 195.75Q140.0 189.5 129.0 181.75Q118.0 174.0 107.0 167.25Q96.0 160.5 88.5 157.0L83.5 156.0Q76.5 153.5 66.5 151.5Q56.5 149.5 48.0 148.5L10.0 144.0L47.0 122.0Q58.5 114.5 74.25 103.0Q90.0 91.5 107.0 78.5Q124.0 65.5 138.5 53.75Q153.0 42.0 162.25 34.0Q171.5 26.0 171.5 24.0ZM344.5 19.0Q346.5 15.0 349.75 12.75Q353.0 10.5 355.5 10.0Q363.0 11.0 363.0 19.0Q363.0 22.0 358.5 29.5Q354.0 37.0 347.5 45.5Q339.0 54.5 329.5 67.25Q320.0 80.0 311.5 92.75Q303.0 105.5 297.75 114.75Q292.5 124.0 292.5 127.0Q292.5 128.5 294.25 130.25Q296.0 132.0 297.5 133.0Q303.0 135.0 305.0 136.25Q307.0 137.5 307.0 141.0Q307.0 143.0 300.5 147.0L300.0 148.5Q301.0 153.0 309.5 160.25Q318.0 167.5 327.75 173.5Q337.5 179.5 341.5 181.0Q347.5 182.5 354.0 190.25Q360.5 198.0 365.0 206.75Q369.5 215.5 369.5 220.5Q369.5 228.5 362.0 228.5Q358.5 228.5 354.75 226.0Q351.0 223.5 349.0 218.5H348.5Q348.0 216.0 347.25 215.25Q346.5 214.5 346.5 214.5Q346.0 215.0 344.25 216.25Q342.5 217.5 340.0 220.5Q335.5 224.5 326.75 235.5Q318.0 246.5 309.0 259.75Q300.0 273.0 293.75 283.5Q287.5 294.0 287.5 297.0Q287.5 297.5 288.0 298.25Q288.5 299.0 289.0 300.0V299.5Q293.0 301.5 295.25 306.5Q297.5 311.5 297.5 316.5Q297.5 318.5 307.5 329.0Q317.5 339.5 332.5 352.5Q346.5 366.0 355.5 377.75Q364.5 389.5 364.5 393.5V396.0Q363.5 397.5 361.5 399.0Q359.5 400.5 358.5 400.5Q355.0 400.5 351.25 397.75Q347.5 395.0 343.5 390.5Q337.5 383.5 326.5 373.5Q315.5 363.5 302.75 353.25Q290.0 343.0 278.75 335.25Q267.5 327.5 261.5 324.5Q255.0 322.0 242.5 319.75Q230.0 317.5 219.0 317.0L178.5 312.5L216.5 287.0Q231.0 277.0 250.0 263.0Q269.0 249.0 286.75 235.0Q304.5 221.0 316.25 210.75Q328.0 200.5 328.0 198.5Q328.0 197.5 318.75 190.25Q309.5 183.0 297.0 174.5Q281.0 163.0 265.5 156.25Q250.0 149.5 230.0 146.0L181.5 138.5L216.5 119.0Q227.0 112.5 242.0 101.75Q257.0 91.0 273.5 78.5Q290.0 66.0 305.0 53.75Q320.0 41.5 330.75 32.25Q341.5 23.0 344.5 19.0Z" fill="black" /></svg>