<svg xmlns="http://www.w3.org/2000/svg" width="856.5" height="458.0" viewBox="0 0 856.5 458.0"><path d="M146.0 178.5Q154.5 166.0 160.0 157.5Q152.0 162.5 138.75 172.0Q125.5 181.5 110.5 193.0Q95.5 204.5 82.0 215.25Q68.5 226.0 59.75 233.5Q51.0 241.0 51.0 242.5V243.0Q73.0 243.0 91.0 248.5Q99.5 251.5 104.0 251.5Q114.5 251.5 119.5 227.5Q121.0 220.5 128.75 205.75Q136.5 191.0 146.0 178.5ZM316.0 220.0Q308.0 219.0 300.0 217.25Q292.0 215.5 284.5 214.5Q278.0 213.0 272.0 212.0Q266.0 211.0 261.0 209.0L244.0 206.0H241.0Q240.0 205.0 238.0 205.0Q236.0 205.0 235.5 211.0Q235.0 217.0 235.0 235.0Q235.0 250.5 235.25 257.0Q235.5 263.5 236.5 264.0L238.5 263.5Q251.5 257.5 271.25 251.25Q291.0 245.0 310.75 240.0Q330.5 235.0 343.5 233.5Q354.0 231.0 360.0 230.0Q366.0 229.0 366.0 229.0Q359.5 228.0 345.75 225.75Q332.0 223.5 316.0 220.0ZM388.0 296.5Q390.0 293.5 391.0 291.0Q385.5 293.5 376.25 299.75Q367.0 306.0 358.75 312.0Q350.5 318.0 348.0 321.0Q349.0 322.5 355.25 324.5Q361.5 326.5 369.0 328.0Q376.5 329.5 379.5 329.5Q381.5 329.5 381.5 323.0Q381.5 319.0 383.25 310.75Q385.0 302.5 388.0 296.5ZM406.0 123.5V123.0Q410.5 114.5 411.5 111.75Q412.5 109.0 412.5 109.0Q407.0 113.5 398.5 120.25Q390.0 127.0 382.5 133.25Q375.0 139.5 372.5 142.5Q373.5 142.5 377.25 142.75Q381.0 143.0 384.5 143.0Q392.5 143.0 397.0 139.25Q401.5 135.5 406.0 123.5ZM686.0 204.5 686.5 203.0V202.5Q687.5 201.0 688.5 199.5Q689.5 198.0 690.0 197.0Q684.0 199.5 673.75 206.25Q663.5 213.0 655.25 219.25Q647.0 225.5 647.0 227.5Q647.0 229.5 653.5 231.5Q660.0 233.5 667.5 234.75Q675.0 236.0 678.0 236.0Q681.0 236.0 681.0 229.0Q681.0 224.0 682.5 217.25Q684.0 210.5 686.0 204.5ZM722.5 79.0Q723.5 77.0 724.75 75.5Q726.0 74.0 726.5 72.0Q723.0 74.0 715.75 78.5Q708.5 83.0 701.0 88.25Q693.5 93.5 688.0 97.75Q682.5 102.0 682.5 103.5Q682.5 105.5 689.0 108.0Q695.5 110.5 703.0 112.0Q710.5 113.5 713.5 113.5Q716.0 113.5 716.0 107.0Q716.0 93.5 722.5 79.0ZM210.0 90.0 215.5 84.0Q228.5 72.5 238.75 64.0Q249.0 55.5 252.0 55.0Q259.0 55.0 259.0 60.5Q259.0 67.0 249.0 82.0Q239.0 97.0 223.0 115.0Q212.5 125.5 198.25 142.5Q184.0 159.5 169.75 179.25Q155.5 199.0 146.0 218.5Q136.5 238.0 135.5 253.5Q139.0 257.0 139.0 267.5Q139.0 269.0 139.0 271.0Q139.0 273.0 138.5 275.5V277.0Q138.5 283.0 144.75 292.75Q151.0 302.5 164.5 317.0Q178.0 330.0 190.25 346.25Q202.5 362.5 210.5 376.5Q218.5 390.5 218.5 396.5Q218.5 403.5 211.0 403.5Q206.5 403.5 200.0 395.5Q193.5 387.5 187.5 376.5Q183.0 369.0 173.25 357.5Q163.5 346.0 151.0 333.0Q138.5 320.0 125.5 308.0Q109.5 292.0 99.5 283.0Q89.5 274.0 81.75 269.75Q74.0 265.5 65.75 263.5Q57.5 261.5 45.0 259.5Q10.0 256.0 10.0 248.5Q10.0 246.0 12.25 244.0Q14.5 242.0 17.5 239.5Q35.5 227.0 57.5 210.75Q79.5 194.5 102.5 177.0Q125.5 159.5 146.75 142.75Q168.0 126.0 184.5 112.25Q201.0 98.5 210.0 90.0ZM494.0 16.0Q494.0 10.0 498.5 10.0Q500.0 10.0 502.5 12.5Q505.0 15.0 506.0 19.0V20.0Q506.0 27.0 497.0 40.5Q488.0 54.0 471.0 72.5Q448.0 99.0 435.75 116.25Q423.5 133.5 423.5 140.5V141.0Q425.0 142.5 427.0 145.5Q429.0 148.5 429.0 152.5Q429.0 154.0 428.75 155.5Q428.5 157.0 427.5 159.0V160.5Q427.5 166.5 441.0 174.5Q448.0 179.0 457.5 187.25Q467.0 195.5 472.0 203.0L483.0 218.5L556.0 215.5Q580.5 214.0 596.0 212.75Q611.5 211.5 622.0 209.0Q632.5 206.5 641.75 202.25Q651.0 198.0 662.5 191.0L672.0 183.5Q684.5 175.0 695.5 166.5Q706.5 158.0 710.0 152.5L719.5 143.0L702.0 135.0Q692.5 130.0 680.0 125.75Q667.5 121.5 658.5 120.0Q647.5 117.5 640.75 112.25Q634.0 107.0 633.0 103.5Q634.0 100.5 636.75 98.5Q639.5 96.5 646.0 96.5Q649.5 96.5 659.75 90.75Q670.0 85.0 683.75 76.0Q697.5 67.0 711.25 57.25Q725.0 47.5 736.0 38.75Q747.0 30.0 751.0 25.0Q756.5 18.0 760.75 14.75Q765.0 11.5 767.0 11.5Q772.5 11.5 772.5 18.0Q772.5 22.0 768.75 32.75Q765.0 43.5 756.5 59.0Q737.5 92.0 737.5 107.0Q737.5 115.5 744.0 120.5Q748.0 125.5 749.25 128.5Q750.5 131.5 750.5 136.5Q750.5 138.0 760.25 145.5Q770.0 153.0 782.5 163.0Q810.5 184.0 828.5 201.0Q846.5 218.0 846.5 225.0Q846.5 232.0 840.0 232.0Q836.5 232.0 827.5 225.75Q818.5 219.5 808.5 211.0Q806.0 208.5 796.25 200.25Q786.5 192.0 774.25 182.5Q762.0 173.0 751.75 166.0Q741.5 159.0 738.5 159.0Q735.0 159.0 728.75 168.25Q722.5 177.5 716.0 190.25Q709.5 203.0 705.0 214.0Q700.5 225.0 700.5 229.0Q700.5 242.5 713.75 257.75Q727.0 273.0 756.5 295.5Q784.5 315.0 797.75 328.25Q811.0 341.5 811.0 347.5Q811.0 348.5 810.25 350.25Q809.5 352.0 808.0 353.0L806.5 355.0Q802.0 355.0 792.5 348.0Q783.0 341.0 771.5 332.0Q731.5 297.0 696.5 276.0Q661.5 255.0 625.75 245.25Q590.0 235.5 546.5 235.5Q537.5 235.5 528.5 235.5Q519.5 235.5 509.5 236.5L444.0 240.5L433.0 257.0Q416.0 286.0 409.25 300.25Q402.5 314.5 401.5 324.5Q401.5 329.5 403.25 334.25Q405.0 339.0 407.5 339.5Q411.5 341.5 414.25 344.75Q417.0 348.0 418.0 350.5Q416.5 352.0 416.5 353.5Q416.5 355.0 427.0 363.75Q437.5 372.5 452.0 383.5Q468.0 396.0 483.25 407.75Q498.5 419.5 503.0 424.5L504.5 426.0Q508.5 432.0 510.75 435.5Q513.0 439.0 513.0 441.5Q513.0 448.0 506.0 448.0Q503.0 448.0 495.0 443.5Q487.0 439.0 477.5 431.0Q456.0 410.5 430.25 392.25Q404.5 374.0 380.5 360.5Q356.5 347.0 338.5 341.5L290.0 325.5L324.5 308.0Q335.0 302.5 348.5 294.0Q362.0 285.5 375.75 276.25Q389.5 267.0 400.0 258.75Q410.5 250.5 414.0 245.5Q394.5 246.0 367.75 249.5Q341.0 253.0 312.5 259.75Q284.0 266.5 260.25 276.75Q236.5 287.0 223.0 301.0Q219.5 305.5 215.5 307.25Q211.5 309.0 209.0 309.0Q201.0 309.0 201.0 299.0Q201.0 294.5 203.0 286.75Q205.0 279.0 208.5 269.5Q212.0 259.0 213.75 249.75Q215.5 240.5 215.5 231.0Q215.5 228.0 215.5 223.75Q215.5 219.5 215.0 216.0L214.0 212.5Q212.0 206.5 212.0 198.5Q213.0 191.5 216.0 188.25Q219.0 185.0 227.0 185.0Q234.0 185.0 247.0 187.0Q260.0 189.0 278.0 193.0L287.5 195.0Q312.0 200.0 342.0 205.5Q372.0 211.0 402.0 214.75Q432.0 218.5 456.5 218.5H457.0Q456.0 210.0 420.5 184.5Q406.5 174.5 392.75 170.25Q379.0 166.0 360.0 164.0L310.5 160.5L364.5 122.5Q386.5 106.5 408.5 89.25Q430.5 72.0 449.25 56.5Q468.0 41.0 480.0 30.25Q492.0 19.5 494.0 16.0Z" fill="black" /></svg>