<svg xmlns="http://www.w3.org/2000/svg" width="785.5" height="460.5" viewBox="0 0 785.5 460.5"><path d="M36.0 169.5 40.5 168.5 34.0 164.0Q27.5 160.0 26.0 160.0Q25.0 160.0 25.0 167.0Q25.0 171.5 26.0 171.5Q28.0 171.5 36.0 169.5ZM35.0 253.0 32.5 251.5Q27.5 248.0 25.0 248.0V255.5Q25.0 261.5 26.5 261.5H29.5L34.0 260.0Q36.5 259.5 38.5 259.25Q40.5 259.0 42.0 259.0Q42.5 259.0 43.25 258.5Q44.0 258.0 44.0 258.0Q43.5 257.0 41.25 255.75Q39.0 254.5 35.0 253.0ZM44.5 304.0 41.5 301.5Q39.5 300.5 37.5 299.0Q35.5 297.5 32.0 297.0Q29.5 296.0 26.0 296.0Q25.0 296.0 25.0 302.0Q25.0 308.5 26.5 308.5Q29.0 308.5 36.25 307.0Q43.5 305.5 44.5 304.0ZM260.0 310.0Q251.5 309.5 236.25 309.5Q221.0 309.5 203.5 309.5L141.0 308.5Q141.0 310.0 141.25 312.25Q141.5 314.5 142.0 317.0Q143.0 319.0 143.5 322.0Q144.0 325.0 144.5 328.5L149.0 344.0L167.0 337.0Q179.0 332.0 197.5 327.25Q216.0 322.5 233.0 318.5Q240.5 316.0 247.75 313.75Q255.0 311.5 260.0 310.0ZM38.5 209.0H37.0Q32.0 207.5 29.25 206.75Q26.5 206.0 25.5 205.5Q25.5 206.5 25.25 207.25Q25.0 208.0 25.0 209.0V213.0Q25.0 219.0 26.5 220.0V219.5H27.0Q28.0 219.0 29.5 219.0Q31.0 219.0 32.0 219.0Q36.0 217.5 40.25 217.0Q44.5 216.5 46.5 216.5Q47.0 216.5 48.0 216.25Q49.0 216.0 49.0 216.0Q48.5 215.0 45.25 213.0Q42.0 211.0 38.5 209.0ZM150.5 224.0Q150.5 223.0 142.25 222.5Q134.0 222.0 122.5 222.0Q119.0 222.0 109.25 222.25Q99.5 222.5 86.5 223.5Q73.5 224.5 61.5 226.0Q49.5 227.5 41.5 229.75Q33.5 232.0 33.5 235.5Q33.5 238.5 44.5 242.25Q55.5 246.0 73.75 248.5Q92.0 251.0 113.5 251.0Q135.5 251.0 147.25 252.5Q159.0 254.0 159.0 257.0Q159.0 261.5 147.25 263.0Q135.5 264.5 113.5 265.5Q91.0 265.5 72.25 267.5Q53.5 269.5 42.25 272.5Q31.0 275.5 31.0 279.0Q31.0 286.0 62.25 290.0Q93.5 294.0 161.5 296.0Q172.5 296.0 183.0 296.0Q193.5 296.0 203.0 296.5H221.5Q222.5 296.5 224.25 296.75Q226.0 297.0 227.0 297.0Q257.5 297.0 267.0 295.75Q276.5 294.5 276.5 292.0Q276.5 288.5 267.0 282.75Q257.5 277.0 242.75 270.25Q228.0 263.5 211.5 257.5Q195.0 251.5 180.5 247.75Q166.0 244.0 158.0 244.0H154.5L153.0 244.5Q149.5 244.5 142.5 243.5Q135.5 242.5 135.5 236.5Q135.5 234.0 138.5 231.25Q141.5 228.5 145.0 227.5Q146.0 226.5 148.25 225.25Q150.5 224.0 150.5 224.0ZM186.0 233.0Q185.0 230.5 180.5 224.75Q176.0 219.0 174.0 219.0Q171.0 219.0 168.0 222.0Q165.0 225.0 165.0 227.5Q165.0 227.5 177.0 231.5L179.0 232.0Q181.0 232.5 182.75 232.75Q184.5 233.0 186.0 233.0ZM201.0 179.0Q197.5 171.5 195.5 171.5Q193.5 171.5 189.5 174.75Q185.5 178.0 185.5 180.5Q185.5 182.5 195.5 182.5Q198.0 182.5 200.5 182.0Q203.0 181.5 203.0 181.5Q202.5 181.0 202.25 180.25Q202.0 179.5 201.0 179.0ZM180.5 195.0Q185.5 195.5 185.5 203.0Q185.5 208.0 195.0 218.5Q204.5 229.0 219.25 240.25Q234.0 251.5 249.5 260.0L276.5 273.5V255.5Q276.5 244.0 274.75 238.0Q273.0 232.0 269.5 229.0Q265.5 224.0 255.0 218.5Q244.5 213.0 231.0 207.75Q217.5 202.5 204.0 199.0Q190.5 195.5 180.5 195.0ZM290.5 185.5H291.0Q291.5 184.0 292.0 182.25Q292.5 180.5 293.5 179.5L294.0 177.0Q294.0 176.0 294.25 175.5Q294.5 175.0 294.5 175.0H290.5Q279.5 175.0 279.5 180.5Q279.5 184.0 281.0 191.5Q282.5 199.0 283.5 199.0Q284.5 199.0 290.5 185.5ZM378.0 177.5Q359.0 174.0 347.25 172.75Q335.5 171.5 327.5 171.5Q315.5 171.5 308.25 182.25Q301.0 193.0 297.25 208.5Q293.5 224.0 292.0 239.25Q290.5 254.5 290.5 263.0V293.5L322.5 291.5Q332.5 290.5 347.75 288.5Q363.0 286.5 380.0 283.75Q397.0 281.0 411.0 277.5Q424.0 275.0 442.25 271.75Q460.5 268.5 481.5 265.5Q495.0 263.5 509.25 261.25Q523.5 259.0 535.5 257.0Q553.0 254.0 569.25 251.25Q585.5 248.5 597.0 246.25Q608.5 244.0 611.5 243.5Q607.0 239.5 590.25 233.75Q573.5 228.0 549.25 221.0Q525.0 214.0 498.0 206.75Q471.0 199.5 446.0 193.5Q421.0 187.5 402.75 183.0Q384.5 178.5 378.0 177.5ZM691.0 180.5 692.0 176.0Q692.5 168.0 692.5 166.0Q692.5 164.0 692.5 164.0Q688.5 168.0 683.25 173.75Q678.0 179.5 674.25 184.0Q670.5 188.5 670.5 188.5Q670.5 188.5 672.25 189.25Q674.0 190.0 677.5 191.0L681.0 191.5H686.0L687.0 192.0Q689.5 191.5 691.0 180.5ZM273.0 60.0V58.5Q273.0 58.0 273.0 58.0Q273.0 58.0 273.0 57.5Q270.0 64.0 269.5 67.5V68.0Q270.5 67.5 271.5 65.25Q272.5 63.0 273.0 60.0ZM375.5 160.0 371.0 156.5Q361.5 151.0 349.5 144.0Q337.5 137.0 329.0 131.5L324.0 129.0Q312.0 120.0 310.5 120.0Q310.5 120.0 309.75 121.0Q309.0 122.0 308.0 123.0Q307.5 126.5 305.0 133.0Q302.5 139.5 300.0 143.5Q299.0 150.0 297.5 155.0L295.5 156.5Q295.0 157.0 294.75 158.0Q294.5 159.0 294.5 159.0Q294.5 159.0 304.5 159.0Q314.5 159.0 329.0 160.0L342.0 160.5Q354.0 161.0 366.0 162.5Q378.0 164.0 383.5 165.0H385.0L384.0 164.5Q383.5 164.0 382.5 163.75Q381.5 163.5 380.5 163.0Q379.0 161.5 375.5 160.0ZM252.0 388.5Q252.0 384.5 249.5 383.0L246.0 386.5Q248.0 394.0 251.0 394.0Q251.5 394.0 251.75 392.0Q252.0 390.0 252.0 388.5ZM316.0 370.0Q317.0 369.0 317.0 368.5Q315.0 370.5 312.5 372.5Q310.0 374.5 308.5 376.5Q310.5 375.5 312.75 374.0Q315.0 372.5 316.0 370.0ZM646.5 293.5V282.0Q643.0 286.0 638.5 291.75Q634.0 297.5 630.75 302.25Q627.5 307.0 627.5 308.5Q627.5 310.0 637.5 310.0Q643.5 310.0 645.0 307.25Q646.5 304.5 646.5 293.5ZM234.5 74.5 268.0 39.5Q282.5 24.5 291.75 17.25Q301.0 10.0 303.5 10.0Q308.0 10.0 308.0 14.5Q308.0 17.0 304.75 25.25Q301.5 33.5 296.0 45.5L292.5 54.5Q291.5 57.5 290.5 60.0Q289.5 62.5 289.5 65.0Q289.5 70.5 298.75 80.75Q308.0 91.0 325.5 107.0Q337.0 116.5 354.25 127.25Q371.5 138.0 391.25 148.5Q411.0 159.0 430.0 167.5Q449.0 176.0 464.5 181.5H467.0Q474.0 183.5 485.5 186.75Q497.0 190.0 508.5 195.0Q520.0 198.0 533.25 201.5Q546.5 205.0 556.0 209.0Q603.5 223.0 623.0 230.25Q642.5 237.5 642.5 243.0Q642.5 246.5 640.0 249.0Q638.5 250.0 624.5 253.25Q610.5 256.5 589.75 260.25Q569.0 264.0 546.0 268.0Q518.0 273.0 484.25 279.0Q450.5 285.0 417.0 291.25Q383.5 297.5 355.0 303.25Q326.5 309.0 308.5 313.0Q290.5 317.0 288.5 318.5Q287.5 320.0 280.75 321.0Q274.0 322.0 269.5 322.5Q263.5 323.5 249.75 327.0Q236.0 330.5 219.75 335.25Q203.5 340.0 189.0 344.75Q174.5 349.5 166.5 352.5Q159.0 356.5 152.0 361.75Q145.0 367.0 141.5 370.5Q139.5 372.5 136.75 374.75Q134.0 377.0 133.5 377.0Q131.0 377.0 130.5 376.0Q130.0 375.0 130.0 372.0Q130.0 369.5 130.5 365.0Q131.0 360.5 131.5 356.0Q131.5 347.0 130.25 337.75Q129.0 328.5 126.5 319.5L121.0 306.0L96.0 309.5Q70.5 312.0 51.5 317.75Q32.5 323.5 24.5 331.5Q22.0 331.5 21.0 332.0Q19.0 333.5 16.0 333.5Q12.5 333.5 11.25 329.0Q10.0 324.5 10.0 310.0Q10.0 299.0 10.0 274.75Q10.0 250.5 10.5 220.5Q11.0 190.5 11.5 162.5V135.0L38.5 149.5Q50.5 154.5 65.25 157.75Q80.0 161.0 106.0 162.5Q126.0 163.0 140.75 164.5Q155.5 166.0 155.5 169.5Q155.5 172.0 142.25 173.5Q129.0 175.0 110.0 175.0Q88.5 175.0 70.25 176.75Q52.0 178.5 40.75 181.25Q29.5 184.0 29.5 187.0Q29.5 193.0 39.0 196.75Q48.5 200.5 63.25 202.75Q78.0 205.0 94.25 206.25Q110.5 207.5 124.5 207.75Q138.5 208.0 145.5 208.0Q155.5 208.0 159.75 206.75Q164.0 205.5 166.5 203.0Q169.0 199.5 172.75 197.5Q176.5 195.5 178.5 195.0Q178.5 195.0 178.25 195.0Q178.0 195.0 177.5 195.0Q165.5 195.0 158.0 193.75Q150.5 192.5 150.5 189.5Q150.5 188.5 157.75 182.75Q165.0 177.0 175.0 170.0Q185.0 163.0 193.5 157.25Q202.0 151.5 205.0 151.0H205.5Q209.0 151.0 209.75 153.5Q210.5 156.0 210.5 161.5Q210.5 171.5 221.25 181.25Q232.0 191.0 246.25 198.5Q260.5 206.0 270.5 210.5Q270.0 202.0 266.75 190.5Q263.5 179.0 258.5 175.0Q252.0 170.0 252.0 165.0Q252.0 159.0 261.5 159.0Q262.0 159.0 263.75 159.0Q265.5 159.0 266.0 160.0H269.5Q270.0 160.5 270.5 160.5Q273.0 160.5 280.0 149.0Q286.0 140.5 291.0 129.25Q296.0 118.0 296.0 107.5Q296.0 105.0 294.0 102.5Q292.0 100.0 285.0 95.0Q280.0 89.5 272.25 84.5Q264.5 79.5 258.5 78.0ZM214.5 45.5Q221.0 38.5 227.5 33.5Q234.0 28.5 236.0 28.5Q236.5 28.5 238.0 29.25Q239.5 30.0 239.5 32.5V33.5Q239.5 35.5 236.5 43.0Q233.5 50.5 229.5 60.0Q226.5 65.0 224.5 70.5Q222.5 76.0 222.5 80.0Q222.5 86.5 229.25 94.5Q236.0 102.5 247.5 112.5Q255.0 118.5 259.25 125.75Q263.5 133.0 263.5 135.0V139.0L260.0 140.0Q258.5 140.0 251.75 135.25Q245.0 130.5 238.5 125.0Q224.5 112.0 207.75 101.5Q191.0 91.0 181.0 91.0Q176.0 91.0 173.75 89.5Q171.5 88.0 169.0 86.0L171.5 83.0Q173.0 81.0 175.75 78.0Q178.5 75.0 183.5 72.0Q188.5 69.5 197.5 61.5Q206.5 53.5 214.5 45.5ZM696.5 131.5Q706.5 115.0 712.5 115.0Q716.5 115.0 716.5 120.5Q716.5 124.0 715.0 130.5Q713.5 137.0 711.0 144.0L709.5 155.5Q708.5 161.5 707.25 166.0Q706.0 170.5 706.0 174.5Q706.0 187.5 714.25 196.75Q722.5 206.0 740.5 215.0Q756.5 223.5 766.0 232.5Q775.5 241.5 775.5 245.5Q775.5 249.5 771.0 249.5Q769.5 249.5 765.75 248.0Q762.0 246.5 758.0 244.0Q747.0 235.5 731.0 228.0Q715.0 220.5 699.25 214.5Q683.5 208.5 672.0 205.5Q661.5 204.5 652.75 203.25Q644.0 202.0 644.0 199.0Q644.0 197.5 649.5 189.25Q655.0 181.0 662.5 173.0Q671.0 165.0 680.75 152.75Q690.5 140.5 696.5 131.5ZM265.0 349.0Q269.0 343.5 273.0 341.0Q277.0 338.5 278.5 338.5Q283.0 338.5 283.0 344.0Q283.0 345.5 280.75 351.75Q278.5 358.0 274.5 365.0Q272.0 371.5 270.25 378.0Q268.5 384.5 268.5 390.0Q268.5 396.5 274.0 405.0Q279.5 413.5 288.5 421.5Q297.0 427.0 302.0 435.5Q307.0 444.0 307.0 446.5Q307.0 450.5 303.0 450.5Q301.0 450.5 295.25 447.25Q289.5 444.0 281.5 436.5Q268.0 422.0 254.5 413.5Q241.0 405.0 227.5 401.5L208.0 399.0L234.5 377.0Q243.0 370.5 252.0 362.25Q261.0 354.0 265.0 349.0ZM323.5 340.5Q331.0 333.0 336.75 330.5Q342.5 328.0 344.0 328.0Q348.5 328.0 348.5 331.5Q348.5 333.0 347.25 338.25Q346.0 343.5 342.0 352.5Q334.5 362.0 334.5 373.5Q334.5 375.5 334.5 377.5Q334.5 379.5 335.0 381.5Q336.0 385.0 337.0 389.5Q338.0 394.0 338.0 394.0Q340.0 394.0 345.75 398.75Q351.5 403.5 358.25 410.0Q365.0 416.5 369.75 422.0Q374.5 427.5 374.5 429.5V432.5H371.5Q369.5 432.5 362.5 429.0Q355.5 425.5 347.5 419.0Q329.5 405.5 314.5 395.75Q299.5 386.0 292.5 386.0Q286.0 386.0 283.75 385.0Q281.5 384.0 281.5 381.0Q281.5 378.5 284.25 374.5Q287.0 370.5 292.5 366.5Q298.0 364.0 306.75 356.5Q315.5 349.0 323.5 340.5ZM650.5 247.5Q656.0 239.5 660.25 236.25Q664.5 233.0 666.5 233.0Q670.5 233.0 670.5 239.0Q670.5 242.0 670.0 246.25Q669.5 250.5 667.0 255.0V257.0Q666.5 260.5 665.0 265.5Q663.5 270.5 662.5 275.5L660.0 285.0V290.0Q660.0 298.0 661.0 301.0Q662.0 304.0 667.0 310.5L669.0 313.0Q674.5 318.5 686.25 326.0Q698.0 333.5 709.5 339.5Q718.0 344.0 725.75 348.75Q733.5 353.5 738.5 357.5H740.5Q744.0 366.5 744.0 366.5Q744.0 372.0 738.5 372.0Q736.5 372.0 729.75 369.25Q723.0 366.5 714.5 361.0Q699.5 350.5 681.75 341.75Q664.0 333.0 647.75 327.25Q631.5 321.5 620.5 321.0L592.5 318.5L618.5 290.0Q627.0 280.0 636.75 267.75Q646.5 255.5 650.5 247.5ZM207.0 75.0Q206.0 78.5 203.5 80.25Q201.0 82.0 199.0 82.0Q198.5 82.0 198.5 81.5Q198.5 81.0 198.5 81.0Q198.5 80.0 203.25 76.5Q208.0 73.0 210.5 71.0H214.0V67.5L209.0 65.0Q209.0 65.5 208.75 69.25Q208.5 73.0 207.0 75.0Z" fill="black" /></svg>