<svg xmlns="http://www.w3.org/2000/svg" width="717.5" height="452.0" viewBox="0 0 717.5 452.0"><path d="M154.5 184.5 162.5 166.0H127.0L135.5 184.5Q139.0 192.5 141.5 199.0Q144.0 205.5 144.5 205.5Q146.0 205.5 148.75 199.0Q151.5 192.5 154.5 184.5ZM217.0 335.0Q217.0 301.0 212.25 265.0Q207.5 229.0 192.5 198.0L181.0 172.5L172.5 185.5Q168.5 191.5 166.25 202.0Q164.0 212.5 162.75 231.25Q161.5 250.0 160.5 282.0V306.0Q160.0 310.0 160.0 314.0Q160.0 318.0 160.0 322.0Q160.0 346.5 162.5 356.75Q165.0 367.0 172.75 369.0Q180.5 371.0 195.5 371.0H217.0ZM233.5 172.0Q233.5 172.0 228.5 171.5Q223.5 171.0 217.0 171.0H202.5L216.5 207.0L223.0 194.5Q227.0 187.5 230.0 180.75Q233.0 174.0 233.5 172.0ZM272.5 93.0 257.0 88.5Q246.5 86.0 229.75 79.0Q213.0 72.0 201.0 66.0L178.5 53.5L175.0 88.5V125.5Q177.0 125.5 186.0 122.0Q195.0 118.5 205.5 114.0Q208.0 113.0 210.75 112.25Q213.5 111.5 216.0 110.5Q226.0 106.5 238.25 102.75Q250.5 99.0 259.0 96.0ZM438.0 137.5H424.0Q406.5 137.5 406.5 140.0Q406.5 143.0 416.5 160.0L423.0 174.0L427.5 160.5Q430.0 156.5 431.75 152.25Q433.5 148.0 434.5 145.5L435.0 144.0Q436.5 140.0 438.0 137.5ZM674.0 29.5Q674.0 29.5 662.0 29.25Q650.0 29.0 634.0 29.0H595.5L605.5 48.0Q611.0 58.0 617.75 74.0Q624.5 90.0 629.0 102.0L634.5 121.0L638.0 105.5Q641.0 95.5 647.5 79.75Q654.0 64.0 659.0 54.0L662.5 49.5Q666.5 42.0 670.25 36.25Q674.0 30.5 674.0 29.5ZM95.5 369.5Q74.0 363.0 57.25 357.75Q40.5 352.5 36.5 350.5V350.0Q35.5 351.0 34.75 358.25Q34.0 365.5 34.0 381.5Q34.0 396.5 34.25 407.0Q34.5 417.5 35.0 417.5Q40.0 417.5 52.0 415.0Q64.0 412.5 79.25 408.5Q94.5 404.5 109.0 400.5Q123.5 396.5 132.75 393.0Q142.0 389.5 142.0 388.5Q142.0 387.5 127.75 381.75Q113.5 376.0 95.5 369.5ZM182.5 388.5Q177.5 387.0 171.25 386.5Q165.0 386.0 160.0 386.0Q161.0 387.0 165.25 387.75Q169.5 388.5 175.0 388.5Q177.0 388.5 179.0 388.5Q181.0 388.5 182.5 388.5ZM409.0 319.0 408.5 289.0Q408.5 274.5 408.25 268.5Q408.0 262.5 408.0 262.5Q398.5 273.5 389.25 286.0Q380.0 298.5 372.5 311.5Q371.0 313.0 370.0 314.5Q369.0 316.0 368.0 317.5Q368.0 319.0 386.0 319.0ZM567.5 14.0H567.0L567.5 13.0Q568.5 11.5 581.25 10.75Q594.0 10.0 612.0 10.0Q631.0 10.0 651.5 10.5Q672.0 11.0 687.5 12.25Q703.0 13.5 706.5 15.0Q706.5 15.5 706.75 16.0Q707.0 16.5 707.0 16.5Q707.5 17.0 707.5 18.0Q707.5 20.5 704.0 26.5Q700.5 32.5 695.0 38.0Q689.0 44.0 680.75 56.0Q672.5 68.0 667.0 78.0Q662.5 86.5 660.0 95.25Q657.5 104.0 655.75 119.5Q654.0 135.0 653.25 162.75Q652.5 190.5 651.5 237.0Q651.0 255.5 651.0 271.0Q651.0 286.5 651.0 299.5Q651.0 339.0 652.5 355.25Q654.0 371.5 657.5 375.5Q662.5 382.0 662.5 386.0Q662.5 391.0 656.0 392.5Q654.5 394.0 652.75 396.75Q651.0 399.5 651.0 403.0Q651.0 409.0 648.25 412.75Q645.5 416.5 641.5 416.5Q633.5 416.5 633.5 403.0Q633.5 400.0 628.75 398.25Q624.0 396.5 608.75 395.75Q593.5 395.0 562.5 394.25Q531.5 393.5 478.5 392.5H419.0Q407.5 392.0 397.0 392.0Q386.5 392.0 376.5 392.0Q324.0 392.0 293.25 392.75Q262.5 393.5 248.5 395.25Q234.5 397.0 233.0 399.5Q229.0 405.5 223.5 405.5Q220.5 405.5 219.0 403.0Q182.5 403.5 143.5 411.5Q104.5 419.5 70.5 428.5L52.0 433.5Q40.5 436.0 31.5 438.25Q22.5 440.5 19.5 441.5Q18.5 441.5 18.0 442.0Q10.0 442.0 10.0 432.5V431.0Q11.0 427.0 12.5 410.5Q14.0 394.0 15.0 375.5Q16.5 350.5 19.75 337.75Q23.0 325.0 30.5 325.0Q33.0 325.0 36.0 326.25Q39.0 327.5 42.5 331.0Q44.5 333.0 54.25 337.0Q64.0 341.0 77.75 345.75Q91.5 350.5 105.75 355.0Q120.0 359.5 131.0 362.0L143.5 364.5L140.5 304.0Q140.0 280.5 138.75 265.0Q137.5 249.5 134.0 235.75Q130.5 222.0 123.5 204.25Q116.5 186.5 104.0 158.5V156.5Q104.0 151.5 109.75 149.75Q115.5 148.0 129.0 148.0Q140.5 148.0 145.5 146.75Q150.5 145.5 152.5 141.5Q154.5 137.5 156.5 129.0Q158.0 120.5 159.0 102.0Q160.0 83.5 160.0 66.5Q160.0 48.0 161.0 35.5Q162.0 23.0 165.0 23.0Q167.0 23.0 174.5 28.0Q182.0 33.0 189.5 38.5Q198.0 43.5 212.25 51.25Q226.5 59.0 239.0 64.5Q249.0 68.0 261.25 70.5Q273.5 73.0 294.0 74.5Q314.5 76.0 347.75 77.0Q381.0 78.0 432.5 79.0Q478.0 79.5 516.0 81.25Q554.0 83.0 576.75 85.25Q599.5 87.5 599.5 89.5Q599.5 91.5 581.25 93.25Q563.0 95.0 531.75 96.0Q500.5 97.0 461.0 97.0Q415.5 97.0 386.5 97.75Q357.5 98.5 339.0 100.0Q320.5 101.5 305.75 104.25Q291.0 107.0 274.0 111.0Q261.0 114.5 245.75 119.5Q230.5 124.5 217.0 129.25Q203.5 134.0 195.0 137.5Q191.5 139.5 188.0 141.0Q184.5 142.5 182.5 144.0Q180.5 144.5 178.75 145.25Q177.0 146.0 176.0 146.5Q178.0 146.5 180.0 148.0Q186.5 150.0 200.0 151.5Q213.5 153.0 227.0 153.5Q241.5 153.5 252.25 155.5Q263.0 157.5 263.0 160.0Q263.0 161.5 259.5 168.0Q256.0 174.5 251.5 181.5Q240.5 195.5 235.75 219.0Q231.0 242.5 231.0 276.5Q231.0 286.0 231.25 295.5Q231.5 305.0 232.0 314.5L235.5 369.5L287.5 373.5Q317.0 375.0 355.0 375.75Q393.0 376.5 426.5 376.5Q460.0 376.5 486.0 376.0Q512.0 375.5 519.5 374.5Q514.5 371.5 503.75 367.0Q493.0 362.5 480.75 358.0Q468.5 353.5 458.5 350.75Q448.5 348.0 444.0 348.0Q442.5 348.0 441.25 350.75Q440.0 353.5 440.0 356.0Q440.0 371.0 432.0 371.0Q423.0 371.0 421.5 352.5L420.0 339.5H375.5L321.5 341.5L346.0 313.0Q354.5 304.5 367.5 287.25Q380.5 270.0 391.5 253.0L416.5 214.5L399.0 168.0Q394.0 154.5 389.5 143.5Q385.0 132.5 384.5 128.5Q384.0 127.0 384.0 125.0Q384.0 118.0 405.0 118.0H424.0Q440.0 119.5 452.5 121.0Q465.0 122.5 466.5 124.0V125.0Q466.5 127.0 462.75 134.25Q459.0 141.5 453.5 150.0Q448.0 158.0 444.0 169.0Q440.0 180.0 440.0 185.5Q440.0 189.0 439.25 199.75Q438.5 210.5 437.75 225.0Q437.0 239.5 436.0 254.5V262.0Q434.5 275.5 434.5 286.0Q434.5 303.5 439.75 313.5Q445.0 323.5 457.75 330.5Q470.5 337.5 492.5 346.0Q509.5 351.5 526.75 358.0Q544.0 364.5 550.5 367.5Q556.5 372.0 571.5 374.25Q586.5 376.5 601.0 376.5H634.5L633.0 266.5Q632.0 232.5 631.0 209.25Q630.0 186.0 628.5 170.25Q627.0 154.5 624.25 143.25Q621.5 132.0 617.0 121.5Q610.0 101.0 600.75 79.5Q591.5 58.0 583.5 42.5Q575.5 27.0 571.5 24.5Q567.0 22.5 567.0 17.0Q567.0 15.0 567.5 14.0Z" fill="black" /></svg>