<svg xmlns="http://www.w3.org/2000/svg" width="943.5" height="465.0" viewBox="0 0 943.5 465.0"><path d="M67.5 242.5Q62.5 239.0 58.75 237.0Q55.0 235.0 52.0 235.0Q45.5 235.0 45.5 253.5Q45.5 263.0 47.5 263.0Q50.0 263.0 56.75 260.25Q63.5 257.5 69.5 254.25Q75.5 251.0 75.5 249.5Q75.5 249.0 74.25 248.5Q73.0 248.0 71.5 246.0Q70.5 245.0 69.5 244.0Q68.5 243.0 67.5 242.5ZM87.5 184.0Q87.5 182.0 80.5 178.0Q73.5 174.0 65.5 170.25Q57.5 166.5 53.5 166.5Q52.5 168.5 52.0 173.25Q51.5 178.0 51.5 183.0Q51.5 190.5 51.75 196.5Q52.0 202.5 52.5 202.5Q71.0 194.5 79.25 190.0Q87.5 185.5 87.5 184.0ZM367.0 291.5V127.0L350.5 128.5Q344.0 128.5 336.75 128.75Q329.5 129.0 326.0 130.0Q323.0 132.0 314.0 134.0Q312.5 134.0 311.0 134.25Q309.5 134.5 307.5 135.0L290.0 138.5V353.5L329.0 365.5Q331.0 366.0 333.5 366.5Q336.0 367.0 338.0 367.5Q347.5 371.0 353.0 371.0Q359.5 371.0 362.5 364.25Q365.5 357.5 366.25 340.25Q367.0 323.0 367.0 291.5ZM501.0 255.5Q491.5 252.5 481.0 249.0Q470.5 245.5 460.5 242.5Q448.0 238.0 437.5 235.5Q427.0 233.0 423.0 233.0Q421.0 234.0 420.5 239.25Q420.0 244.5 420.0 251.5Q420.0 259.5 421.0 267.0Q422.0 274.5 422.5 275.5Q429.0 274.5 440.25 272.0Q451.5 269.5 464.0 266.25Q476.5 263.0 486.75 260.0Q497.0 257.0 501.0 255.5ZM848.5 390.5Q849.0 383.5 849.0 375.75Q849.0 368.0 849.0 360.0L849.5 354.5L853.0 261.0H711.5Q667.5 261.0 635.25 261.75Q603.0 262.5 578.5 264.25Q554.0 266.0 533.5 269.0Q513.0 272.0 492.5 277.0Q472.0 282.0 448.0 289.0Q443.5 290.0 439.0 291.25Q434.5 292.5 430.5 294.0L425.0 295.0Q417.0 297.0 411.0 298.25Q405.0 299.5 404.0 299.5Q399.5 299.5 399.5 283.0Q399.5 272.0 400.25 257.5Q401.0 243.0 402.5 230.5Q404.0 218.0 405.5 214.0Q406.0 210.0 412.5 210.0Q422.5 210.0 450.5 221.0Q462.5 226.0 473.75 229.0Q485.0 232.0 501.75 234.25Q518.5 236.5 546.5 238.25Q574.5 240.0 620.0 242.0Q653.5 244.0 687.5 244.5Q721.5 245.0 750.0 245.0Q768.0 245.0 782.75 244.75Q797.5 244.5 806.5 243.5L857.0 239.0L853.0 205.0Q852.0 196.0 850.0 184.0Q848.0 172.0 846.0 160.25Q844.0 148.5 842.0 140.5L834.0 112.5H623.0Q543.0 112.5 495.5 113.0Q448.0 113.5 425.5 115.25Q403.0 117.0 397.5 120.0Q393.0 122.5 390.25 126.5Q387.5 130.5 386.5 142.0Q385.5 153.5 385.5 179.0Q385.5 193.0 385.5 210.5Q385.5 228.0 386.0 251.0L387.5 374.5L411.5 378.0Q418.5 378.5 440.0 379.25Q461.5 380.0 493.0 380.75Q524.5 381.5 563.0 382.0Q601.5 382.5 643.0 382.5Q737.0 383.0 789.5 384.75Q842.0 386.5 848.5 390.5ZM321.5 94.5Q301.0 88.5 282.5 83.0Q264.0 77.5 258.0 75.5Q254.5 74.0 251.0 74.0Q248.5 74.0 247.75 80.0Q247.0 86.0 247.0 102.0V131.5L282.5 124.5Q297.0 120.0 313.0 116.5Q329.0 113.0 336.0 112.0Q357.5 107.5 359.5 106.5Q358.0 105.0 348.5 102.25Q339.0 99.5 321.5 94.5ZM897.5 37.0Q895.0 37.0 884.5 37.25Q874.0 37.5 861.0 37.5Q843.5 37.5 835.5 38.75Q827.5 40.0 826.0 41.0H826.5Q827.5 43.0 832.5 58.5Q837.5 74.0 843.0 93.0Q850.0 110.0 854.5 120.5Q859.0 131.0 861.0 132.0Q861.0 116.0 866.75 101.25Q872.5 86.5 879.0 72.5Q886.0 59.5 891.25 49.25Q896.5 39.0 897.5 37.0ZM61.0 370.5H60.5Q55.5 368.0 50.0 366.75Q44.5 365.5 42.0 365.5Q41.0 365.5 39.5 371.75Q38.0 378.0 36.75 385.75Q35.5 393.5 35.5 398.5Q41.0 397.0 50.25 392.75Q59.5 388.5 67.25 384.25Q75.0 380.0 76.0 378.5Q73.5 376.0 61.0 370.5ZM62.0 313.0 59.5 311.5Q50.0 306.5 46.5 306.5Q45.5 306.5 45.5 320.5V335.0Q48.0 335.0 55.5 332.0Q63.0 329.0 69.5 325.5Q76.0 322.0 76.0 320.5Q76.0 319.5 71.75 317.25Q67.5 315.0 62.0 313.0ZM359.5 389.5Q353.0 389.5 340.5 386.5Q328.0 383.5 313.75 378.75Q299.5 374.0 286.75 369.25Q274.0 364.5 267.0 361.5Q266.0 361.0 264.5 360.5Q263.0 360.0 262.5 360.0Q261.0 360.0 260.25 366.25Q259.5 372.5 259.5 389.5V419.0L276.0 415.0Q284.5 413.0 293.0 411.5Q301.5 410.0 310.0 408.5Q314.5 408.0 323.75 406.25Q333.0 404.5 343.0 402.0Q353.0 399.5 360.0 396.5Q367.0 393.5 367.0 390.0Q367.0 390.0 365.25 389.75Q363.5 389.5 359.5 389.5ZM802.0 19.0Q802.0 10.0 807.0 10.0Q809.0 10.0 811.0 10.75Q813.0 11.5 815.0 12.5L816.5 13.5Q822.0 15.5 840.0 17.5Q858.0 19.5 878.5 19.5Q905.0 19.5 919.25 22.0Q933.5 24.5 933.5 30.0Q933.5 34.5 923.0 40.0Q920.0 41.5 912.75 52.25Q905.5 63.0 898.0 77.5Q891.0 90.5 886.75 101.25Q882.5 112.0 880.0 124.25Q877.5 136.5 876.0 154.75Q874.5 173.0 872.5 201.0Q871.5 225.0 870.0 256.0Q868.5 287.0 867.75 317.25Q867.0 347.5 867.0 369.5Q867.0 413.5 864.5 434.25Q862.0 455.0 857.5 455.0Q854.0 455.0 851.25 442.5Q848.5 430.0 848.5 401.5Q848.5 399.0 848.5 397.0Q848.5 395.0 848.5 392.5Q842.0 396.5 792.25 399.0Q742.5 401.5 653.0 401.5Q580.0 401.5 525.5 403.25Q471.0 405.0 428.75 408.75Q386.5 412.5 351.5 418.75Q316.5 425.0 282.0 434.0Q269.5 437.5 260.5 439.75Q251.5 442.0 247.0 442.0Q241.0 442.0 239.0 439.5Q237.0 437.0 237.0 431.0Q237.0 425.0 238.5 418.5L242.0 395.0L69.5 398.5L46.0 417.5Q36.5 425.0 28.0 429.75Q19.5 434.5 16.0 434.5Q13.0 434.5 11.5 432.5Q10.0 431.0 10.0 427.5Q10.0 423.5 11.5 417.5Q13.0 411.5 15.0 404.5Q16.5 400.0 18.25 384.25Q20.0 368.5 22.0 345.5Q24.0 322.5 25.75 296.25Q27.5 270.0 29.25 243.75Q31.0 217.5 32.25 195.0Q33.5 172.5 33.5 157.5Q33.5 150.5 35.75 144.75Q38.0 139.0 41.5 139.0Q44.0 139.0 52.5 143.25Q61.0 147.5 72.5 153.0Q77.0 156.0 81.0 158.0L84.0 159.0Q96.0 167.0 104.25 171.5Q112.5 176.0 121.25 178.0Q130.0 180.0 144.25 180.5Q158.5 181.0 183.0 181.0Q212.0 181.0 233.0 182.75Q254.0 184.5 256.0 188.5V189.5Q256.0 198.5 179.0 198.5Q135.5 198.5 114.5 200.75Q93.5 203.0 82.0 208.5Q75.0 212.0 69.25 215.0Q63.5 218.0 63.5 218.5Q63.5 220.5 69.75 223.75Q76.0 227.0 85.0 231.0Q96.5 238.0 115.75 241.25Q135.0 244.5 172.5 245.5Q200.5 246.0 221.25 249.0Q242.0 252.0 242.0 255.0Q242.0 258.0 231.0 260.0Q220.0 262.0 201.75 262.75Q183.5 263.5 161.5 263.5Q118.5 263.5 98.0 265.5Q77.5 267.5 68.0 273.0Q61.0 276.0 55.75 279.25Q50.5 282.5 50.5 284.0Q50.5 285.5 59.0 290.75Q67.5 296.0 78.5 301.5Q89.5 306.0 100.75 309.25Q112.0 312.5 128.75 314.25Q145.5 316.0 172.5 317.0Q200.5 317.5 221.25 320.5Q242.0 323.5 242.0 326.5Q242.0 329.5 231.5 331.5Q221.0 333.5 203.5 334.25Q186.0 335.0 165.0 335.0Q63.5 335.0 63.5 350.0Q63.5 350.5 71.5 355.25Q79.5 360.0 90.0 364.5Q102.0 369.5 113.5 372.5Q125.0 375.5 141.0 376.5Q157.0 377.5 182.0 377.5H241.5V358.5Q241.5 346.0 242.75 341.5Q244.0 337.0 250.5 337.0Q252.0 337.0 253.5 337.25Q255.0 337.5 256.0 337.5Q257.5 338.0 258.5 338.0Q259.5 338.0 260.5 338.5L271.5 341.0V246.5Q271.5 207.5 270.75 185.75Q270.0 164.0 267.5 155.25Q265.0 146.5 259.5 146.0Q257.0 146.5 253.0 147.5Q249.0 148.5 245.0 149.5L225.5 158.0L228.5 104.5Q229.0 92.5 229.75 82.0Q230.5 71.5 231.0 64.5Q231.0 62.0 231.25 59.75Q231.5 57.5 231.5 56.5L233.0 51.5L236.5 50.5Q240.0 50.5 252.25 54.0Q264.5 57.5 280.5 63.5Q291.0 67.5 305.75 71.75Q320.5 76.0 335.75 79.5Q351.0 83.0 362.5 85.0Q374.5 86.5 402.25 87.75Q430.0 89.0 467.75 90.0Q505.5 91.0 548.25 91.5Q591.0 92.0 633.0 92.0Q670.5 92.0 705.0 91.75Q739.5 91.5 766.5 91.0Q793.5 90.5 809.0 89.75Q824.5 89.0 824.5 88.5Q824.5 86.5 821.25 77.0Q818.0 67.5 814.0 56.5Q809.0 45.5 805.5 34.0Q802.0 22.5 802.0 19.0Z" fill="black" /></svg>