<svg xmlns="http://www.w3.org/2000/svg" width="798.5" height="452.0" viewBox="0 0 798.5 452.0"><path d="M61.5 356.0Q56.0 354.5 49.0 349.75Q42.0 345.0 36.5 340.5L28.5 333.5V355.0Q28.5 382.0 32.5 382.0Q35.0 382.0 38.0 376.5L40.0 374.5Q43.5 371.5 48.75 368.25Q54.0 365.0 57.5 365.0Q65.5 365.0 65.5 360.5Q65.5 359.0 64.0 357.75Q62.5 356.5 61.5 356.0ZM91.0 184.0Q91.0 184.0 87.0 183.75Q83.0 183.5 77.5 183.5Q65.5 183.5 65.5 184.0Q65.5 185.5 69.5 191.0Q71.5 195.0 73.5 198.75Q75.5 202.5 76.0 204.5Q79.5 203.5 84.75 195.75Q90.0 188.0 91.0 184.0ZM296.0 168.0Q289.5 144.5 285.25 134.5Q281.0 124.5 276.5 124.5Q274.5 124.5 269.75 127.0Q265.0 129.5 259.0 133.5Q249.5 139.5 241.0 142.75Q232.5 146.0 218.0 147.0Q203.5 148.0 176.0 148.0Q143.5 148.0 125.5 150.5Q107.5 153.0 96.5 157.5L85.5 163.5L96.0 164.5Q105.5 165.0 113.0 167.0Q120.5 169.0 120.5 171.5Q120.5 172.0 116.0 180.0Q111.5 188.0 105.0 196.5Q100.0 204.5 95.75 215.5Q91.5 226.5 91.5 233.5Q91.5 241.0 90.5 260.25Q89.5 279.5 87.5 298.5L84.0 342.0H149.5Q184.5 342.0 201.0 341.0Q217.5 340.0 218.0 338.0Q219.5 333.5 224.5 333.5Q231.5 333.5 242.5 342.5Q251.5 349.0 263.25 355.75Q275.0 362.5 286.0 367.0Q297.0 371.5 302.5 371.5Q304.5 371.5 305.5 364.5Q306.5 357.5 306.75 339.75Q307.0 322.0 307.0 289.5Q307.0 255.0 306.25 233.5Q305.5 212.0 303.25 197.0Q301.0 182.0 296.0 168.0ZM531.0 250.0Q531.0 234.5 517.0 225.5L508.0 219.5V248.5Q508.0 260.5 508.5 269.5Q509.0 278.5 509.5 280.0Q517.5 278.5 524.25 269.5Q531.0 260.5 531.0 250.0ZM564.5 249.0Q563.5 248.5 562.25 248.5Q561.0 248.5 560.0 248.0Q557.5 247.5 556.0 247.0Q554.5 246.5 553.0 246.5Q548.5 246.5 548.5 251.5Q548.5 253.5 550.25 255.25Q552.0 257.0 554.0 257.0Q556.0 257.0 559.25 255.75Q562.5 254.5 565.0 252.5Q565.5 252.0 566.25 251.25Q567.0 250.5 567.0 250.0Q567.0 250.0 564.5 249.0ZM63.0 154.0 77.5 148.0 40.0 123.5V147.0Q40.0 154.0 40.25 159.25Q40.5 164.5 40.5 167.0Q44.5 163.5 50.5 159.75Q56.5 156.0 63.0 154.0ZM335.0 121.0Q332.0 120.0 316.5 120.0Q306.5 120.0 302.5 120.5Q298.5 121.0 298.5 123.0Q298.5 125.0 299.0 125.5Q301.5 130.5 304.75 138.75Q308.0 147.0 311.0 155.5L315.0 165.5L322.0 148.0L329.0 134.0Q333.0 126.0 335.0 121.0ZM517.0 121.0 511.0 94.5 430.5 93.0Q389.5 93.0 364.75 94.5Q340.0 96.0 329.0 100.0L324.0 101.5L335.5 102.5Q365.0 103.5 365.0 113.5Q365.0 115.5 363.75 118.25Q362.5 121.0 358.5 123.5Q356.5 124.0 351.5 132.0Q346.5 140.0 342.0 148.5Q338.5 156.0 335.75 164.25Q333.0 172.5 331.5 185.5Q330.0 198.5 329.0 220.0Q328.0 241.5 327.0 275.5L324.0 377.0H531.0V288.5L519.5 296.0Q512.0 301.0 505.5 305.0Q499.0 309.0 495.5 309.0Q492.5 309.0 491.0 296.25Q489.5 283.5 489.5 265.0Q489.5 249.0 490.25 232.25Q491.0 215.5 492.25 203.25Q493.5 191.0 495.0 189.0Q496.0 188.0 499.0 188.0Q501.0 188.0 511.5 196.0Q512.5 196.5 513.25 197.25Q514.0 198.0 515.5 199.0Q524.5 208.0 529.5 210.0Q529.5 188.0 526.0 165.75Q522.5 143.5 517.0 121.0ZM267.5 68.5Q262.0 63.0 260.0 63.0Q256.5 63.0 256.5 89.5V112.5L268.0 105.5Q274.5 102.0 284.5 97.5Q294.5 93.0 302.0 91.0L309.5 88.0L296.0 83.5Q286.5 80.0 278.5 75.5Q270.5 71.0 267.5 68.5ZM556.0 35.0 556.5 32.5Q556.5 32.0 556.75 31.5Q557.0 31.0 557.0 30.5Q557.0 29.5 552.5 29.0Q548.0 28.5 535.0 28.5Q524.0 28.5 516.0 28.25Q508.0 28.0 508.0 28.0Q509.0 30.5 512.0 40.0Q515.0 49.5 520.0 62.0Q523.5 73.0 526.5 84.5Q529.5 96.0 531.0 103.0Q532.0 99.5 534.25 94.25Q536.5 89.0 539.5 82.5Q540.5 78.5 542.25 74.0Q544.0 69.5 545.0 65.0Q546.0 63.0 547.0 60.5Q548.0 58.0 548.5 56.0L552.0 47.5Q553.0 43.5 554.25 39.75Q555.5 36.0 556.0 35.0ZM308.0 388.5Q295.5 388.5 283.5 384.0Q271.5 379.5 260.0 374.0L235.0 362.0V389.5Q235.0 404.5 235.5 410.0Q236.0 415.5 237.5 415.5Q239.5 415.5 240.0 415.0Q242.0 414.0 245.25 413.25Q248.5 412.5 253.0 410.5Q255.5 409.5 259.25 408.25Q263.0 407.0 266.5 406.0Q270.5 405.0 280.5 401.75Q290.5 398.5 299.25 394.5Q308.0 390.5 308.0 388.5ZM485.0 16.0Q485.0 12.5 496.5 11.25Q508.0 10.0 523.0 10.0Q535.5 10.0 548.5 10.5Q561.5 11.0 571.0 12.0Q580.5 13.0 582.5 15.0Q582.5 18.0 578.5 27.5Q574.5 37.0 569.0 49.0L568.0 53.0Q562.5 64.0 559.0 73.0Q555.5 82.0 553.75 92.0Q552.0 102.0 551.25 116.5Q550.5 131.0 549.5 153.5Q549.0 164.5 548.75 173.5Q548.5 182.5 548.5 189.5Q548.5 209.5 550.5 216.25Q552.5 223.0 556.5 226.5Q560.5 229.5 572.75 231.25Q585.0 233.0 609.5 233.75Q634.0 234.5 674.0 234.5Q707.5 234.5 733.25 235.5Q759.0 236.5 773.75 238.25Q788.5 240.0 788.5 243.0Q788.5 245.0 775.5 247.0Q762.5 249.0 740.75 250.5Q719.0 252.0 692.5 252.5Q662.5 253.0 643.25 254.0Q624.0 255.0 612.0 256.5Q600.0 258.0 591.5 260.75Q583.0 263.5 575.0 268.0L548.5 279.0V377.0H565.0Q575.0 377.0 581.75 378.75Q588.5 380.5 588.5 385.5Q588.5 389.0 581.75 391.75Q575.0 394.5 565.0 394.5Q548.5 394.5 548.5 400.0Q548.5 404.0 546.0 407.5Q543.5 411.0 540.5 411.0Q536.5 411.0 533.75 407.5Q531.0 404.0 531.0 400.0Q531.0 397.5 525.0 396.25Q519.0 395.0 502.0 394.75Q485.0 394.5 452.0 394.5Q409.5 394.5 375.5 398.25Q341.5 402.0 312.0 410.0Q282.5 418.0 252.0 431.0Q242.5 436.0 233.75 439.0Q225.0 442.0 221.0 442.0Q217.0 442.0 216.0 438.5Q216.0 437.5 216.25 424.75Q216.5 412.0 217.0 395.0L218.0 359.0H164.5Q134.0 359.0 112.0 363.25Q90.0 367.5 72.5 377.0Q55.0 386.5 36.5 402.5L33.5 403.5Q27.5 407.5 22.25 410.75Q17.0 414.0 14.5 414.0Q11.0 414.0 10.5 410.5Q10.5 409.0 10.0 407.5Q10.0 394.0 10.25 373.5Q10.5 353.0 11.75 333.0Q13.0 313.0 16.0 300.5Q19.0 300.5 27.0 306.5Q35.0 312.5 43.0 321.5Q51.5 328.5 58.75 334.0Q66.0 339.5 68.5 341.0Q69.5 337.5 71.0 325.25Q72.5 313.0 73.5 298.5Q73.5 277.5 71.75 259.75Q70.0 242.0 63.0 222.0Q56.5 204.0 53.0 196.5Q49.5 189.0 48.0 189.0Q46.5 189.0 43.0 192.5Q36.0 199.5 31.0 199.5Q26.0 199.5 23.75 192.5Q21.5 185.5 21.5 168.5Q21.5 163.5 21.5 157.5Q21.5 151.5 22.0 144.5Q22.0 122.5 24.25 105.0Q26.5 87.5 27.0 86.5H29.0Q30.5 86.5 36.25 90.75Q42.0 95.0 47.0 101.5Q56.5 112.5 66.75 119.0Q77.0 125.5 93.0 128.25Q109.0 131.0 135.5 131.0Q138.0 131.0 141.5 130.75Q145.0 130.5 148.5 130.0H165.5L236.5 128.0L238.5 84.0Q239.5 63.0 241.5 49.0Q243.5 35.0 246.0 35.0Q246.5 35.0 256.5 39.75Q266.5 44.5 279.5 52.5L307.0 71.0L406.5 72.5H427.5Q439.0 73.0 448.25 73.25Q457.5 73.5 464.5 73.5Q486.0 73.5 494.5 71.75Q503.0 70.0 503.0 65.0Q503.0 61.5 501.0 56.5Q499.0 51.5 495.5 44.5L494.5 42.5Q490.5 33.5 487.75 25.75Q485.0 18.0 485.0 16.0Z" fill="black" /></svg>